<?xml version="1.0" encoding="utf-8" standalone="no"?>
<!DOCTYPE svg PUBLIC "-//W3C//DTD SVG 1.1//EN"
  "http://www.w3.org/Graphics/SVG/1.1/DTD/svg11.dtd">
<svg xmlns:xlink="http://www.w3.org/1999/xlink" width="958.373375pt" height="633.943878pt" viewBox="0 0 958.373375 633.943878" xmlns="http://www.w3.org/2000/svg" version="1.1">
 <metadata>
  <rdf:RDF xmlns:dc="http://purl.org/dc/elements/1.1/" xmlns:cc="http://creativecommons.org/ns#" xmlns:rdf="http://www.w3.org/1999/02/22-rdf-syntax-ns#">
   <cc:Work>
    <dc:type rdf:resource="http://purl.org/dc/dcmitype/StillImage"/>
    <dc:date>2023-05-25T13:28:42.135307</dc:date>
    <dc:format>image/svg+xml</dc:format>
    <dc:creator>
     <cc:Agent>
      <dc:title>Matplotlib v3.5.1, https://matplotlib.org/</dc:title>
     </cc:Agent>
    </dc:creator>
   </cc:Work>
  </rdf:RDF>
 </metadata>
 <defs>
  <style type="text/css">*{stroke-linejoin: round; stroke-linecap: butt}</style>
 </defs>
 <g id="figure_1">
  <g id="patch_1">
   <path d="M 0 633.943878 
L 958.373375 633.943878 
L 958.373375 0 
L 0 0 
z
" style="fill: #ffffff"/>
  </g>
  <g id="axes_1">
   <g id="patch_2">
    <path d="M 48.329375 567.74175 
L 951.173375 567.74175 
L 951.173375 24.14175 
L 48.329375 24.14175 
z
" style="fill: #e5e5e5"/>
   </g>
   <g id="matplotlib.axis_1">
    <g id="xtick_1">
     <g id="line2d_1">
      <path d="M 64.940141 567.74175 
L 64.940141 24.14175 
" clip-path="url(#p12a747b10c)" style="fill: none; stroke: #ffffff; stroke-width: 0.8; stroke-linecap: square"/>
     </g>
     <g id="line2d_2">
      <defs>
       <path id="m0fe8e4ccdd" d="M 0 0 
L 0 3.5 
" style="stroke: #555555; stroke-width: 0.8"/>
      </defs>
      <g>
       <use xlink:href="#m0fe8e4ccdd" x="64.940141" y="567.74175" style="fill: #555555; stroke: #555555; stroke-width: 0.8"/>
      </g>
     </g>
     <g id="text_1">
      <!-- 2020-11 -->
      <g style="fill: #555555" transform="translate(52.118859 609.659567)rotate(-45)scale(0.1 -0.1)">
       <defs>
        <path id="DejaVuSans-32" d="M 1228 531 
L 3431 531 
L 3431 0 
L 469 0 
L 469 531 
Q 828 903 1448 1529 
Q 2069 2156 2228 2338 
Q 2531 2678 2651 2914 
Q 2772 3150 2772 3378 
Q 2772 3750 2511 3984 
Q 2250 4219 1831 4219 
Q 1534 4219 1204 4116 
Q 875 4013 500 3803 
L 500 4441 
Q 881 4594 1212 4672 
Q 1544 4750 1819 4750 
Q 2544 4750 2975 4387 
Q 3406 4025 3406 3419 
Q 3406 3131 3298 2873 
Q 3191 2616 2906 2266 
Q 2828 2175 2409 1742 
Q 1991 1309 1228 531 
z
" transform="scale(0.015625)"/>
        <path id="DejaVuSans-30" d="M 2034 4250 
Q 1547 4250 1301 3770 
Q 1056 3291 1056 2328 
Q 1056 1369 1301 889 
Q 1547 409 2034 409 
Q 2525 409 2770 889 
Q 3016 1369 3016 2328 
Q 3016 3291 2770 3770 
Q 2525 4250 2034 4250 
z
M 2034 4750 
Q 2819 4750 3233 4129 
Q 3647 3509 3647 2328 
Q 3647 1150 3233 529 
Q 2819 -91 2034 -91 
Q 1250 -91 836 529 
Q 422 1150 422 2328 
Q 422 3509 836 4129 
Q 1250 4750 2034 4750 
z
" transform="scale(0.015625)"/>
        <path id="DejaVuSans-2d" d="M 313 2009 
L 1997 2009 
L 1997 1497 
L 313 1497 
L 313 2009 
z
" transform="scale(0.015625)"/>
        <path id="DejaVuSans-31" d="M 794 531 
L 1825 531 
L 1825 4091 
L 703 3866 
L 703 4441 
L 1819 4666 
L 2450 4666 
L 2450 531 
L 3481 531 
L 3481 0 
L 794 0 
L 794 531 
z
" transform="scale(0.015625)"/>
       </defs>
       <use xlink:href="#DejaVuSans-32"/>
       <use xlink:href="#DejaVuSans-30" x="63.623047"/>
       <use xlink:href="#DejaVuSans-32" x="127.246094"/>
       <use xlink:href="#DejaVuSans-30" x="190.869141"/>
       <use xlink:href="#DejaVuSans-2d" x="254.492188"/>
       <use xlink:href="#DejaVuSans-31" x="290.576172"/>
       <use xlink:href="#DejaVuSans-31" x="354.199219"/>
      </g>
     </g>
    </g>
    <g id="xtick_2">
     <g id="line2d_3">
      <path d="M 94.253258 567.74175 
L 94.253258 24.14175 
" clip-path="url(#p12a747b10c)" style="fill: none; stroke: #ffffff; stroke-width: 0.8; stroke-linecap: square"/>
     </g>
     <g id="line2d_4">
      <g>
       <use xlink:href="#m0fe8e4ccdd" x="94.253258" y="567.74175" style="fill: #555555; stroke: #555555; stroke-width: 0.8"/>
      </g>
     </g>
     <g id="text_2">
      <!-- 2020-12 -->
      <g style="fill: #555555" transform="translate(81.431976 609.659567)rotate(-45)scale(0.1 -0.1)">
       <use xlink:href="#DejaVuSans-32"/>
       <use xlink:href="#DejaVuSans-30" x="63.623047"/>
       <use xlink:href="#DejaVuSans-32" x="127.246094"/>
       <use xlink:href="#DejaVuSans-30" x="190.869141"/>
       <use xlink:href="#DejaVuSans-2d" x="254.492188"/>
       <use xlink:href="#DejaVuSans-31" x="290.576172"/>
       <use xlink:href="#DejaVuSans-32" x="354.199219"/>
      </g>
     </g>
    </g>
    <g id="xtick_3">
     <g id="line2d_5">
      <path d="M 124.543479 567.74175 
L 124.543479 24.14175 
" clip-path="url(#p12a747b10c)" style="fill: none; stroke: #ffffff; stroke-width: 0.8; stroke-linecap: square"/>
     </g>
     <g id="line2d_6">
      <g>
       <use xlink:href="#m0fe8e4ccdd" x="124.543479" y="567.74175" style="fill: #555555; stroke: #555555; stroke-width: 0.8"/>
      </g>
     </g>
     <g id="text_3">
      <!-- 2021-01 -->
      <g style="fill: #555555" transform="translate(111.722197 609.659567)rotate(-45)scale(0.1 -0.1)">
       <use xlink:href="#DejaVuSans-32"/>
       <use xlink:href="#DejaVuSans-30" x="63.623047"/>
       <use xlink:href="#DejaVuSans-32" x="127.246094"/>
       <use xlink:href="#DejaVuSans-31" x="190.869141"/>
       <use xlink:href="#DejaVuSans-2d" x="254.492188"/>
       <use xlink:href="#DejaVuSans-30" x="290.576172"/>
       <use xlink:href="#DejaVuSans-31" x="354.199219"/>
      </g>
     </g>
    </g>
    <g id="xtick_4">
     <g id="line2d_7">
      <path d="M 154.8337 567.74175 
L 154.8337 24.14175 
" clip-path="url(#p12a747b10c)" style="fill: none; stroke: #ffffff; stroke-width: 0.8; stroke-linecap: square"/>
     </g>
     <g id="line2d_8">
      <g>
       <use xlink:href="#m0fe8e4ccdd" x="154.8337" y="567.74175" style="fill: #555555; stroke: #555555; stroke-width: 0.8"/>
      </g>
     </g>
     <g id="text_4">
      <!-- 2021-02 -->
      <g style="fill: #555555" transform="translate(142.012417 609.659567)rotate(-45)scale(0.1 -0.1)">
       <use xlink:href="#DejaVuSans-32"/>
       <use xlink:href="#DejaVuSans-30" x="63.623047"/>
       <use xlink:href="#DejaVuSans-32" x="127.246094"/>
       <use xlink:href="#DejaVuSans-31" x="190.869141"/>
       <use xlink:href="#DejaVuSans-2d" x="254.492188"/>
       <use xlink:href="#DejaVuSans-30" x="290.576172"/>
       <use xlink:href="#DejaVuSans-32" x="354.199219"/>
      </g>
     </g>
    </g>
    <g id="xtick_5">
     <g id="line2d_9">
      <path d="M 182.192609 567.74175 
L 182.192609 24.14175 
" clip-path="url(#p12a747b10c)" style="fill: none; stroke: #ffffff; stroke-width: 0.8; stroke-linecap: square"/>
     </g>
     <g id="line2d_10">
      <g>
       <use xlink:href="#m0fe8e4ccdd" x="182.192609" y="567.74175" style="fill: #555555; stroke: #555555; stroke-width: 0.8"/>
      </g>
     </g>
     <g id="text_5">
      <!-- 2021-03 -->
      <g style="fill: #555555" transform="translate(169.371327 609.659567)rotate(-45)scale(0.1 -0.1)">
       <defs>
        <path id="DejaVuSans-33" d="M 2597 2516 
Q 3050 2419 3304 2112 
Q 3559 1806 3559 1356 
Q 3559 666 3084 287 
Q 2609 -91 1734 -91 
Q 1441 -91 1130 -33 
Q 819 25 488 141 
L 488 750 
Q 750 597 1062 519 
Q 1375 441 1716 441 
Q 2309 441 2620 675 
Q 2931 909 2931 1356 
Q 2931 1769 2642 2001 
Q 2353 2234 1838 2234 
L 1294 2234 
L 1294 2753 
L 1863 2753 
Q 2328 2753 2575 2939 
Q 2822 3125 2822 3475 
Q 2822 3834 2567 4026 
Q 2313 4219 1838 4219 
Q 1578 4219 1281 4162 
Q 984 4106 628 3988 
L 628 4550 
Q 988 4650 1302 4700 
Q 1616 4750 1894 4750 
Q 2613 4750 3031 4423 
Q 3450 4097 3450 3541 
Q 3450 3153 3228 2886 
Q 3006 2619 2597 2516 
z
" transform="scale(0.015625)"/>
       </defs>
       <use xlink:href="#DejaVuSans-32"/>
       <use xlink:href="#DejaVuSans-30" x="63.623047"/>
       <use xlink:href="#DejaVuSans-32" x="127.246094"/>
       <use xlink:href="#DejaVuSans-31" x="190.869141"/>
       <use xlink:href="#DejaVuSans-2d" x="254.492188"/>
       <use xlink:href="#DejaVuSans-30" x="290.576172"/>
       <use xlink:href="#DejaVuSans-33" x="354.199219"/>
      </g>
     </g>
    </g>
    <g id="xtick_6">
     <g id="line2d_11">
      <path d="M 212.48283 567.74175 
L 212.48283 24.14175 
" clip-path="url(#p12a747b10c)" style="fill: none; stroke: #ffffff; stroke-width: 0.8; stroke-linecap: square"/>
     </g>
     <g id="line2d_12">
      <g>
       <use xlink:href="#m0fe8e4ccdd" x="212.48283" y="567.74175" style="fill: #555555; stroke: #555555; stroke-width: 0.8"/>
      </g>
     </g>
     <g id="text_6">
      <!-- 2021-04 -->
      <g style="fill: #555555" transform="translate(199.661547 609.659567)rotate(-45)scale(0.1 -0.1)">
       <defs>
        <path id="DejaVuSans-34" d="M 2419 4116 
L 825 1625 
L 2419 1625 
L 2419 4116 
z
M 2253 4666 
L 3047 4666 
L 3047 1625 
L 3713 1625 
L 3713 1100 
L 3047 1100 
L 3047 0 
L 2419 0 
L 2419 1100 
L 313 1100 
L 313 1709 
L 2253 4666 
z
" transform="scale(0.015625)"/>
       </defs>
       <use xlink:href="#DejaVuSans-32"/>
       <use xlink:href="#DejaVuSans-30" x="63.623047"/>
       <use xlink:href="#DejaVuSans-32" x="127.246094"/>
       <use xlink:href="#DejaVuSans-31" x="190.869141"/>
       <use xlink:href="#DejaVuSans-2d" x="254.492188"/>
       <use xlink:href="#DejaVuSans-30" x="290.576172"/>
       <use xlink:href="#DejaVuSans-34" x="354.199219"/>
      </g>
     </g>
    </g>
    <g id="xtick_7">
     <g id="line2d_13">
      <path d="M 241.795946 567.74175 
L 241.795946 24.14175 
" clip-path="url(#p12a747b10c)" style="fill: none; stroke: #ffffff; stroke-width: 0.8; stroke-linecap: square"/>
     </g>
     <g id="line2d_14">
      <g>
       <use xlink:href="#m0fe8e4ccdd" x="241.795946" y="567.74175" style="fill: #555555; stroke: #555555; stroke-width: 0.8"/>
      </g>
     </g>
     <g id="text_7">
      <!-- 2021-05 -->
      <g style="fill: #555555" transform="translate(228.974664 609.659567)rotate(-45)scale(0.1 -0.1)">
       <defs>
        <path id="DejaVuSans-35" d="M 691 4666 
L 3169 4666 
L 3169 4134 
L 1269 4134 
L 1269 2991 
Q 1406 3038 1543 3061 
Q 1681 3084 1819 3084 
Q 2600 3084 3056 2656 
Q 3513 2228 3513 1497 
Q 3513 744 3044 326 
Q 2575 -91 1722 -91 
Q 1428 -91 1123 -41 
Q 819 9 494 109 
L 494 744 
Q 775 591 1075 516 
Q 1375 441 1709 441 
Q 2250 441 2565 725 
Q 2881 1009 2881 1497 
Q 2881 1984 2565 2268 
Q 2250 2553 1709 2553 
Q 1456 2553 1204 2497 
Q 953 2441 691 2322 
L 691 4666 
z
" transform="scale(0.015625)"/>
       </defs>
       <use xlink:href="#DejaVuSans-32"/>
       <use xlink:href="#DejaVuSans-30" x="63.623047"/>
       <use xlink:href="#DejaVuSans-32" x="127.246094"/>
       <use xlink:href="#DejaVuSans-31" x="190.869141"/>
       <use xlink:href="#DejaVuSans-2d" x="254.492188"/>
       <use xlink:href="#DejaVuSans-30" x="290.576172"/>
       <use xlink:href="#DejaVuSans-35" x="354.199219"/>
      </g>
     </g>
    </g>
    <g id="xtick_8">
     <g id="line2d_15">
      <path d="M 272.086167 567.74175 
L 272.086167 24.14175 
" clip-path="url(#p12a747b10c)" style="fill: none; stroke: #ffffff; stroke-width: 0.8; stroke-linecap: square"/>
     </g>
     <g id="line2d_16">
      <g>
       <use xlink:href="#m0fe8e4ccdd" x="272.086167" y="567.74175" style="fill: #555555; stroke: #555555; stroke-width: 0.8"/>
      </g>
     </g>
     <g id="text_8">
      <!-- 2021-06 -->
      <g style="fill: #555555" transform="translate(259.264885 609.659567)rotate(-45)scale(0.1 -0.1)">
       <defs>
        <path id="DejaVuSans-36" d="M 2113 2584 
Q 1688 2584 1439 2293 
Q 1191 2003 1191 1497 
Q 1191 994 1439 701 
Q 1688 409 2113 409 
Q 2538 409 2786 701 
Q 3034 994 3034 1497 
Q 3034 2003 2786 2293 
Q 2538 2584 2113 2584 
z
M 3366 4563 
L 3366 3988 
Q 3128 4100 2886 4159 
Q 2644 4219 2406 4219 
Q 1781 4219 1451 3797 
Q 1122 3375 1075 2522 
Q 1259 2794 1537 2939 
Q 1816 3084 2150 3084 
Q 2853 3084 3261 2657 
Q 3669 2231 3669 1497 
Q 3669 778 3244 343 
Q 2819 -91 2113 -91 
Q 1303 -91 875 529 
Q 447 1150 447 2328 
Q 447 3434 972 4092 
Q 1497 4750 2381 4750 
Q 2619 4750 2861 4703 
Q 3103 4656 3366 4563 
z
" transform="scale(0.015625)"/>
       </defs>
       <use xlink:href="#DejaVuSans-32"/>
       <use xlink:href="#DejaVuSans-30" x="63.623047"/>
       <use xlink:href="#DejaVuSans-32" x="127.246094"/>
       <use xlink:href="#DejaVuSans-31" x="190.869141"/>
       <use xlink:href="#DejaVuSans-2d" x="254.492188"/>
       <use xlink:href="#DejaVuSans-30" x="290.576172"/>
       <use xlink:href="#DejaVuSans-36" x="354.199219"/>
      </g>
     </g>
    </g>
    <g id="xtick_9">
     <g id="line2d_17">
      <path d="M 301.399284 567.74175 
L 301.399284 24.14175 
" clip-path="url(#p12a747b10c)" style="fill: none; stroke: #ffffff; stroke-width: 0.8; stroke-linecap: square"/>
     </g>
     <g id="line2d_18">
      <g>
       <use xlink:href="#m0fe8e4ccdd" x="301.399284" y="567.74175" style="fill: #555555; stroke: #555555; stroke-width: 0.8"/>
      </g>
     </g>
     <g id="text_9">
      <!-- 2021-07 -->
      <g style="fill: #555555" transform="translate(288.578002 609.659567)rotate(-45)scale(0.1 -0.1)">
       <defs>
        <path id="DejaVuSans-37" d="M 525 4666 
L 3525 4666 
L 3525 4397 
L 1831 0 
L 1172 0 
L 2766 4134 
L 525 4134 
L 525 4666 
z
" transform="scale(0.015625)"/>
       </defs>
       <use xlink:href="#DejaVuSans-32"/>
       <use xlink:href="#DejaVuSans-30" x="63.623047"/>
       <use xlink:href="#DejaVuSans-32" x="127.246094"/>
       <use xlink:href="#DejaVuSans-31" x="190.869141"/>
       <use xlink:href="#DejaVuSans-2d" x="254.492188"/>
       <use xlink:href="#DejaVuSans-30" x="290.576172"/>
       <use xlink:href="#DejaVuSans-37" x="354.199219"/>
      </g>
     </g>
    </g>
    <g id="xtick_10">
     <g id="line2d_19">
      <path d="M 331.689505 567.74175 
L 331.689505 24.14175 
" clip-path="url(#p12a747b10c)" style="fill: none; stroke: #ffffff; stroke-width: 0.8; stroke-linecap: square"/>
     </g>
     <g id="line2d_20">
      <g>
       <use xlink:href="#m0fe8e4ccdd" x="331.689505" y="567.74175" style="fill: #555555; stroke: #555555; stroke-width: 0.8"/>
      </g>
     </g>
     <g id="text_10">
      <!-- 2021-08 -->
      <g style="fill: #555555" transform="translate(318.868223 609.659567)rotate(-45)scale(0.1 -0.1)">
       <defs>
        <path id="DejaVuSans-38" d="M 2034 2216 
Q 1584 2216 1326 1975 
Q 1069 1734 1069 1313 
Q 1069 891 1326 650 
Q 1584 409 2034 409 
Q 2484 409 2743 651 
Q 3003 894 3003 1313 
Q 3003 1734 2745 1975 
Q 2488 2216 2034 2216 
z
M 1403 2484 
Q 997 2584 770 2862 
Q 544 3141 544 3541 
Q 544 4100 942 4425 
Q 1341 4750 2034 4750 
Q 2731 4750 3128 4425 
Q 3525 4100 3525 3541 
Q 3525 3141 3298 2862 
Q 3072 2584 2669 2484 
Q 3125 2378 3379 2068 
Q 3634 1759 3634 1313 
Q 3634 634 3220 271 
Q 2806 -91 2034 -91 
Q 1263 -91 848 271 
Q 434 634 434 1313 
Q 434 1759 690 2068 
Q 947 2378 1403 2484 
z
M 1172 3481 
Q 1172 3119 1398 2916 
Q 1625 2713 2034 2713 
Q 2441 2713 2670 2916 
Q 2900 3119 2900 3481 
Q 2900 3844 2670 4047 
Q 2441 4250 2034 4250 
Q 1625 4250 1398 4047 
Q 1172 3844 1172 3481 
z
" transform="scale(0.015625)"/>
       </defs>
       <use xlink:href="#DejaVuSans-32"/>
       <use xlink:href="#DejaVuSans-30" x="63.623047"/>
       <use xlink:href="#DejaVuSans-32" x="127.246094"/>
       <use xlink:href="#DejaVuSans-31" x="190.869141"/>
       <use xlink:href="#DejaVuSans-2d" x="254.492188"/>
       <use xlink:href="#DejaVuSans-30" x="290.576172"/>
       <use xlink:href="#DejaVuSans-38" x="354.199219"/>
      </g>
     </g>
    </g>
    <g id="xtick_11">
     <g id="line2d_21">
      <path d="M 361.979726 567.74175 
L 361.979726 24.14175 
" clip-path="url(#p12a747b10c)" style="fill: none; stroke: #ffffff; stroke-width: 0.8; stroke-linecap: square"/>
     </g>
     <g id="line2d_22">
      <g>
       <use xlink:href="#m0fe8e4ccdd" x="361.979726" y="567.74175" style="fill: #555555; stroke: #555555; stroke-width: 0.8"/>
      </g>
     </g>
     <g id="text_11">
      <!-- 2021-09 -->
      <g style="fill: #555555" transform="translate(349.158443 609.659567)rotate(-45)scale(0.1 -0.1)">
       <defs>
        <path id="DejaVuSans-39" d="M 703 97 
L 703 672 
Q 941 559 1184 500 
Q 1428 441 1663 441 
Q 2288 441 2617 861 
Q 2947 1281 2994 2138 
Q 2813 1869 2534 1725 
Q 2256 1581 1919 1581 
Q 1219 1581 811 2004 
Q 403 2428 403 3163 
Q 403 3881 828 4315 
Q 1253 4750 1959 4750 
Q 2769 4750 3195 4129 
Q 3622 3509 3622 2328 
Q 3622 1225 3098 567 
Q 2575 -91 1691 -91 
Q 1453 -91 1209 -44 
Q 966 3 703 97 
z
M 1959 2075 
Q 2384 2075 2632 2365 
Q 2881 2656 2881 3163 
Q 2881 3666 2632 3958 
Q 2384 4250 1959 4250 
Q 1534 4250 1286 3958 
Q 1038 3666 1038 3163 
Q 1038 2656 1286 2365 
Q 1534 2075 1959 2075 
z
" transform="scale(0.015625)"/>
       </defs>
       <use xlink:href="#DejaVuSans-32"/>
       <use xlink:href="#DejaVuSans-30" x="63.623047"/>
       <use xlink:href="#DejaVuSans-32" x="127.246094"/>
       <use xlink:href="#DejaVuSans-31" x="190.869141"/>
       <use xlink:href="#DejaVuSans-2d" x="254.492188"/>
       <use xlink:href="#DejaVuSans-30" x="290.576172"/>
       <use xlink:href="#DejaVuSans-39" x="354.199219"/>
      </g>
     </g>
    </g>
    <g id="xtick_12">
     <g id="line2d_23">
      <path d="M 391.292843 567.74175 
L 391.292843 24.14175 
" clip-path="url(#p12a747b10c)" style="fill: none; stroke: #ffffff; stroke-width: 0.8; stroke-linecap: square"/>
     </g>
     <g id="line2d_24">
      <g>
       <use xlink:href="#m0fe8e4ccdd" x="391.292843" y="567.74175" style="fill: #555555; stroke: #555555; stroke-width: 0.8"/>
      </g>
     </g>
     <g id="text_12">
      <!-- 2021-10 -->
      <g style="fill: #555555" transform="translate(378.47156 609.659567)rotate(-45)scale(0.1 -0.1)">
       <use xlink:href="#DejaVuSans-32"/>
       <use xlink:href="#DejaVuSans-30" x="63.623047"/>
       <use xlink:href="#DejaVuSans-32" x="127.246094"/>
       <use xlink:href="#DejaVuSans-31" x="190.869141"/>
       <use xlink:href="#DejaVuSans-2d" x="254.492188"/>
       <use xlink:href="#DejaVuSans-31" x="290.576172"/>
       <use xlink:href="#DejaVuSans-30" x="354.199219"/>
      </g>
     </g>
    </g>
    <g id="xtick_13">
     <g id="line2d_25">
      <path d="M 421.583063 567.74175 
L 421.583063 24.14175 
" clip-path="url(#p12a747b10c)" style="fill: none; stroke: #ffffff; stroke-width: 0.8; stroke-linecap: square"/>
     </g>
     <g id="line2d_26">
      <g>
       <use xlink:href="#m0fe8e4ccdd" x="421.583063" y="567.74175" style="fill: #555555; stroke: #555555; stroke-width: 0.8"/>
      </g>
     </g>
     <g id="text_13">
      <!-- 2021-11 -->
      <g style="fill: #555555" transform="translate(408.761781 609.659567)rotate(-45)scale(0.1 -0.1)">
       <use xlink:href="#DejaVuSans-32"/>
       <use xlink:href="#DejaVuSans-30" x="63.623047"/>
       <use xlink:href="#DejaVuSans-32" x="127.246094"/>
       <use xlink:href="#DejaVuSans-31" x="190.869141"/>
       <use xlink:href="#DejaVuSans-2d" x="254.492188"/>
       <use xlink:href="#DejaVuSans-31" x="290.576172"/>
       <use xlink:href="#DejaVuSans-31" x="354.199219"/>
      </g>
     </g>
    </g>
    <g id="xtick_14">
     <g id="line2d_27">
      <path d="M 450.89618 567.74175 
L 450.89618 24.14175 
" clip-path="url(#p12a747b10c)" style="fill: none; stroke: #ffffff; stroke-width: 0.8; stroke-linecap: square"/>
     </g>
     <g id="line2d_28">
      <g>
       <use xlink:href="#m0fe8e4ccdd" x="450.89618" y="567.74175" style="fill: #555555; stroke: #555555; stroke-width: 0.8"/>
      </g>
     </g>
     <g id="text_14">
      <!-- 2021-12 -->
      <g style="fill: #555555" transform="translate(438.074898 609.659567)rotate(-45)scale(0.1 -0.1)">
       <use xlink:href="#DejaVuSans-32"/>
       <use xlink:href="#DejaVuSans-30" x="63.623047"/>
       <use xlink:href="#DejaVuSans-32" x="127.246094"/>
       <use xlink:href="#DejaVuSans-31" x="190.869141"/>
       <use xlink:href="#DejaVuSans-2d" x="254.492188"/>
       <use xlink:href="#DejaVuSans-31" x="290.576172"/>
       <use xlink:href="#DejaVuSans-32" x="354.199219"/>
      </g>
     </g>
    </g>
    <g id="xtick_15">
     <g id="line2d_29">
      <path d="M 481.186401 567.74175 
L 481.186401 24.14175 
" clip-path="url(#p12a747b10c)" style="fill: none; stroke: #ffffff; stroke-width: 0.8; stroke-linecap: square"/>
     </g>
     <g id="line2d_30">
      <g>
       <use xlink:href="#m0fe8e4ccdd" x="481.186401" y="567.74175" style="fill: #555555; stroke: #555555; stroke-width: 0.8"/>
      </g>
     </g>
     <g id="text_15">
      <!-- 2022-01 -->
      <g style="fill: #555555" transform="translate(468.365119 609.659567)rotate(-45)scale(0.1 -0.1)">
       <use xlink:href="#DejaVuSans-32"/>
       <use xlink:href="#DejaVuSans-30" x="63.623047"/>
       <use xlink:href="#DejaVuSans-32" x="127.246094"/>
       <use xlink:href="#DejaVuSans-32" x="190.869141"/>
       <use xlink:href="#DejaVuSans-2d" x="254.492188"/>
       <use xlink:href="#DejaVuSans-30" x="290.576172"/>
       <use xlink:href="#DejaVuSans-31" x="354.199219"/>
      </g>
     </g>
    </g>
    <g id="xtick_16">
     <g id="line2d_31">
      <path d="M 511.476622 567.74175 
L 511.476622 24.14175 
" clip-path="url(#p12a747b10c)" style="fill: none; stroke: #ffffff; stroke-width: 0.8; stroke-linecap: square"/>
     </g>
     <g id="line2d_32">
      <g>
       <use xlink:href="#m0fe8e4ccdd" x="511.476622" y="567.74175" style="fill: #555555; stroke: #555555; stroke-width: 0.8"/>
      </g>
     </g>
     <g id="text_16">
      <!-- 2022-02 -->
      <g style="fill: #555555" transform="translate(498.655339 609.659567)rotate(-45)scale(0.1 -0.1)">
       <use xlink:href="#DejaVuSans-32"/>
       <use xlink:href="#DejaVuSans-30" x="63.623047"/>
       <use xlink:href="#DejaVuSans-32" x="127.246094"/>
       <use xlink:href="#DejaVuSans-32" x="190.869141"/>
       <use xlink:href="#DejaVuSans-2d" x="254.492188"/>
       <use xlink:href="#DejaVuSans-30" x="290.576172"/>
       <use xlink:href="#DejaVuSans-32" x="354.199219"/>
      </g>
     </g>
    </g>
    <g id="xtick_17">
     <g id="line2d_33">
      <path d="M 538.835531 567.74175 
L 538.835531 24.14175 
" clip-path="url(#p12a747b10c)" style="fill: none; stroke: #ffffff; stroke-width: 0.8; stroke-linecap: square"/>
     </g>
     <g id="line2d_34">
      <g>
       <use xlink:href="#m0fe8e4ccdd" x="538.835531" y="567.74175" style="fill: #555555; stroke: #555555; stroke-width: 0.8"/>
      </g>
     </g>
     <g id="text_17">
      <!-- 2022-03 -->
      <g style="fill: #555555" transform="translate(526.014249 609.659567)rotate(-45)scale(0.1 -0.1)">
       <use xlink:href="#DejaVuSans-32"/>
       <use xlink:href="#DejaVuSans-30" x="63.623047"/>
       <use xlink:href="#DejaVuSans-32" x="127.246094"/>
       <use xlink:href="#DejaVuSans-32" x="190.869141"/>
       <use xlink:href="#DejaVuSans-2d" x="254.492188"/>
       <use xlink:href="#DejaVuSans-30" x="290.576172"/>
       <use xlink:href="#DejaVuSans-33" x="354.199219"/>
      </g>
     </g>
    </g>
    <g id="xtick_18">
     <g id="line2d_35">
      <path d="M 569.125752 567.74175 
L 569.125752 24.14175 
" clip-path="url(#p12a747b10c)" style="fill: none; stroke: #ffffff; stroke-width: 0.8; stroke-linecap: square"/>
     </g>
     <g id="line2d_36">
      <g>
       <use xlink:href="#m0fe8e4ccdd" x="569.125752" y="567.74175" style="fill: #555555; stroke: #555555; stroke-width: 0.8"/>
      </g>
     </g>
     <g id="text_18">
      <!-- 2022-04 -->
      <g style="fill: #555555" transform="translate(556.304469 609.659567)rotate(-45)scale(0.1 -0.1)">
       <use xlink:href="#DejaVuSans-32"/>
       <use xlink:href="#DejaVuSans-30" x="63.623047"/>
       <use xlink:href="#DejaVuSans-32" x="127.246094"/>
       <use xlink:href="#DejaVuSans-32" x="190.869141"/>
       <use xlink:href="#DejaVuSans-2d" x="254.492188"/>
       <use xlink:href="#DejaVuSans-30" x="290.576172"/>
       <use xlink:href="#DejaVuSans-34" x="354.199219"/>
      </g>
     </g>
    </g>
    <g id="xtick_19">
     <g id="line2d_37">
      <path d="M 598.438869 567.74175 
L 598.438869 24.14175 
" clip-path="url(#p12a747b10c)" style="fill: none; stroke: #ffffff; stroke-width: 0.8; stroke-linecap: square"/>
     </g>
     <g id="line2d_38">
      <g>
       <use xlink:href="#m0fe8e4ccdd" x="598.438869" y="567.74175" style="fill: #555555; stroke: #555555; stroke-width: 0.8"/>
      </g>
     </g>
     <g id="text_19">
      <!-- 2022-05 -->
      <g style="fill: #555555" transform="translate(585.617586 609.659567)rotate(-45)scale(0.1 -0.1)">
       <use xlink:href="#DejaVuSans-32"/>
       <use xlink:href="#DejaVuSans-30" x="63.623047"/>
       <use xlink:href="#DejaVuSans-32" x="127.246094"/>
       <use xlink:href="#DejaVuSans-32" x="190.869141"/>
       <use xlink:href="#DejaVuSans-2d" x="254.492188"/>
       <use xlink:href="#DejaVuSans-30" x="290.576172"/>
       <use xlink:href="#DejaVuSans-35" x="354.199219"/>
      </g>
     </g>
    </g>
    <g id="xtick_20">
     <g id="line2d_39">
      <path d="M 628.729089 567.74175 
L 628.729089 24.14175 
" clip-path="url(#p12a747b10c)" style="fill: none; stroke: #ffffff; stroke-width: 0.8; stroke-linecap: square"/>
     </g>
     <g id="line2d_40">
      <g>
       <use xlink:href="#m0fe8e4ccdd" x="628.729089" y="567.74175" style="fill: #555555; stroke: #555555; stroke-width: 0.8"/>
      </g>
     </g>
     <g id="text_20">
      <!-- 2022-06 -->
      <g style="fill: #555555" transform="translate(615.907807 609.659567)rotate(-45)scale(0.1 -0.1)">
       <use xlink:href="#DejaVuSans-32"/>
       <use xlink:href="#DejaVuSans-30" x="63.623047"/>
       <use xlink:href="#DejaVuSans-32" x="127.246094"/>
       <use xlink:href="#DejaVuSans-32" x="190.869141"/>
       <use xlink:href="#DejaVuSans-2d" x="254.492188"/>
       <use xlink:href="#DejaVuSans-30" x="290.576172"/>
       <use xlink:href="#DejaVuSans-36" x="354.199219"/>
      </g>
     </g>
    </g>
    <g id="xtick_21">
     <g id="line2d_41">
      <path d="M 658.042206 567.74175 
L 658.042206 24.14175 
" clip-path="url(#p12a747b10c)" style="fill: none; stroke: #ffffff; stroke-width: 0.8; stroke-linecap: square"/>
     </g>
     <g id="line2d_42">
      <g>
       <use xlink:href="#m0fe8e4ccdd" x="658.042206" y="567.74175" style="fill: #555555; stroke: #555555; stroke-width: 0.8"/>
      </g>
     </g>
     <g id="text_21">
      <!-- 2022-07 -->
      <g style="fill: #555555" transform="translate(645.220924 609.659567)rotate(-45)scale(0.1 -0.1)">
       <use xlink:href="#DejaVuSans-32"/>
       <use xlink:href="#DejaVuSans-30" x="63.623047"/>
       <use xlink:href="#DejaVuSans-32" x="127.246094"/>
       <use xlink:href="#DejaVuSans-32" x="190.869141"/>
       <use xlink:href="#DejaVuSans-2d" x="254.492188"/>
       <use xlink:href="#DejaVuSans-30" x="290.576172"/>
       <use xlink:href="#DejaVuSans-37" x="354.199219"/>
      </g>
     </g>
    </g>
    <g id="xtick_22">
     <g id="line2d_43">
      <path d="M 688.332427 567.74175 
L 688.332427 24.14175 
" clip-path="url(#p12a747b10c)" style="fill: none; stroke: #ffffff; stroke-width: 0.8; stroke-linecap: square"/>
     </g>
     <g id="line2d_44">
      <g>
       <use xlink:href="#m0fe8e4ccdd" x="688.332427" y="567.74175" style="fill: #555555; stroke: #555555; stroke-width: 0.8"/>
      </g>
     </g>
     <g id="text_22">
      <!-- 2022-08 -->
      <g style="fill: #555555" transform="translate(675.511145 609.659567)rotate(-45)scale(0.1 -0.1)">
       <use xlink:href="#DejaVuSans-32"/>
       <use xlink:href="#DejaVuSans-30" x="63.623047"/>
       <use xlink:href="#DejaVuSans-32" x="127.246094"/>
       <use xlink:href="#DejaVuSans-32" x="190.869141"/>
       <use xlink:href="#DejaVuSans-2d" x="254.492188"/>
       <use xlink:href="#DejaVuSans-30" x="290.576172"/>
       <use xlink:href="#DejaVuSans-38" x="354.199219"/>
      </g>
     </g>
    </g>
    <g id="xtick_23">
     <g id="line2d_45">
      <path d="M 718.622648 567.74175 
L 718.622648 24.14175 
" clip-path="url(#p12a747b10c)" style="fill: none; stroke: #ffffff; stroke-width: 0.8; stroke-linecap: square"/>
     </g>
     <g id="line2d_46">
      <g>
       <use xlink:href="#m0fe8e4ccdd" x="718.622648" y="567.74175" style="fill: #555555; stroke: #555555; stroke-width: 0.8"/>
      </g>
     </g>
     <g id="text_23">
      <!-- 2022-09 -->
      <g style="fill: #555555" transform="translate(705.801365 609.659567)rotate(-45)scale(0.1 -0.1)">
       <use xlink:href="#DejaVuSans-32"/>
       <use xlink:href="#DejaVuSans-30" x="63.623047"/>
       <use xlink:href="#DejaVuSans-32" x="127.246094"/>
       <use xlink:href="#DejaVuSans-32" x="190.869141"/>
       <use xlink:href="#DejaVuSans-2d" x="254.492188"/>
       <use xlink:href="#DejaVuSans-30" x="290.576172"/>
       <use xlink:href="#DejaVuSans-39" x="354.199219"/>
      </g>
     </g>
    </g>
    <g id="xtick_24">
     <g id="line2d_47">
      <path d="M 747.935765 567.74175 
L 747.935765 24.14175 
" clip-path="url(#p12a747b10c)" style="fill: none; stroke: #ffffff; stroke-width: 0.8; stroke-linecap: square"/>
     </g>
     <g id="line2d_48">
      <g>
       <use xlink:href="#m0fe8e4ccdd" x="747.935765" y="567.74175" style="fill: #555555; stroke: #555555; stroke-width: 0.8"/>
      </g>
     </g>
     <g id="text_24">
      <!-- 2022-10 -->
      <g style="fill: #555555" transform="translate(735.114482 609.659567)rotate(-45)scale(0.1 -0.1)">
       <use xlink:href="#DejaVuSans-32"/>
       <use xlink:href="#DejaVuSans-30" x="63.623047"/>
       <use xlink:href="#DejaVuSans-32" x="127.246094"/>
       <use xlink:href="#DejaVuSans-32" x="190.869141"/>
       <use xlink:href="#DejaVuSans-2d" x="254.492188"/>
       <use xlink:href="#DejaVuSans-31" x="290.576172"/>
       <use xlink:href="#DejaVuSans-30" x="354.199219"/>
      </g>
     </g>
    </g>
    <g id="xtick_25">
     <g id="line2d_49">
      <path d="M 778.225985 567.74175 
L 778.225985 24.14175 
" clip-path="url(#p12a747b10c)" style="fill: none; stroke: #ffffff; stroke-width: 0.8; stroke-linecap: square"/>
     </g>
     <g id="line2d_50">
      <g>
       <use xlink:href="#m0fe8e4ccdd" x="778.225985" y="567.74175" style="fill: #555555; stroke: #555555; stroke-width: 0.8"/>
      </g>
     </g>
     <g id="text_25">
      <!-- 2022-11 -->
      <g style="fill: #555555" transform="translate(765.404703 609.659567)rotate(-45)scale(0.1 -0.1)">
       <use xlink:href="#DejaVuSans-32"/>
       <use xlink:href="#DejaVuSans-30" x="63.623047"/>
       <use xlink:href="#DejaVuSans-32" x="127.246094"/>
       <use xlink:href="#DejaVuSans-32" x="190.869141"/>
       <use xlink:href="#DejaVuSans-2d" x="254.492188"/>
       <use xlink:href="#DejaVuSans-31" x="290.576172"/>
       <use xlink:href="#DejaVuSans-31" x="354.199219"/>
      </g>
     </g>
    </g>
    <g id="xtick_26">
     <g id="line2d_51">
      <path d="M 807.539102 567.74175 
L 807.539102 24.14175 
" clip-path="url(#p12a747b10c)" style="fill: none; stroke: #ffffff; stroke-width: 0.8; stroke-linecap: square"/>
     </g>
     <g id="line2d_52">
      <g>
       <use xlink:href="#m0fe8e4ccdd" x="807.539102" y="567.74175" style="fill: #555555; stroke: #555555; stroke-width: 0.8"/>
      </g>
     </g>
     <g id="text_26">
      <!-- 2022-12 -->
      <g style="fill: #555555" transform="translate(794.71782 609.659567)rotate(-45)scale(0.1 -0.1)">
       <use xlink:href="#DejaVuSans-32"/>
       <use xlink:href="#DejaVuSans-30" x="63.623047"/>
       <use xlink:href="#DejaVuSans-32" x="127.246094"/>
       <use xlink:href="#DejaVuSans-32" x="190.869141"/>
       <use xlink:href="#DejaVuSans-2d" x="254.492188"/>
       <use xlink:href="#DejaVuSans-31" x="290.576172"/>
       <use xlink:href="#DejaVuSans-32" x="354.199219"/>
      </g>
     </g>
    </g>
    <g id="xtick_27">
     <g id="line2d_53">
      <path d="M 837.829323 567.74175 
L 837.829323 24.14175 
" clip-path="url(#p12a747b10c)" style="fill: none; stroke: #ffffff; stroke-width: 0.8; stroke-linecap: square"/>
     </g>
     <g id="line2d_54">
      <g>
       <use xlink:href="#m0fe8e4ccdd" x="837.829323" y="567.74175" style="fill: #555555; stroke: #555555; stroke-width: 0.8"/>
      </g>
     </g>
     <g id="text_27">
      <!-- 2023-01 -->
      <g style="fill: #555555" transform="translate(825.008041 609.659567)rotate(-45)scale(0.1 -0.1)">
       <use xlink:href="#DejaVuSans-32"/>
       <use xlink:href="#DejaVuSans-30" x="63.623047"/>
       <use xlink:href="#DejaVuSans-32" x="127.246094"/>
       <use xlink:href="#DejaVuSans-33" x="190.869141"/>
       <use xlink:href="#DejaVuSans-2d" x="254.492188"/>
       <use xlink:href="#DejaVuSans-30" x="290.576172"/>
       <use xlink:href="#DejaVuSans-31" x="354.199219"/>
      </g>
     </g>
    </g>
    <g id="xtick_28">
     <g id="line2d_55">
      <path d="M 868.119544 567.74175 
L 868.119544 24.14175 
" clip-path="url(#p12a747b10c)" style="fill: none; stroke: #ffffff; stroke-width: 0.8; stroke-linecap: square"/>
     </g>
     <g id="line2d_56">
      <g>
       <use xlink:href="#m0fe8e4ccdd" x="868.119544" y="567.74175" style="fill: #555555; stroke: #555555; stroke-width: 0.8"/>
      </g>
     </g>
     <g id="text_28">
      <!-- 2023-02 -->
      <g style="fill: #555555" transform="translate(855.298262 609.659567)rotate(-45)scale(0.1 -0.1)">
       <use xlink:href="#DejaVuSans-32"/>
       <use xlink:href="#DejaVuSans-30" x="63.623047"/>
       <use xlink:href="#DejaVuSans-32" x="127.246094"/>
       <use xlink:href="#DejaVuSans-33" x="190.869141"/>
       <use xlink:href="#DejaVuSans-2d" x="254.492188"/>
       <use xlink:href="#DejaVuSans-30" x="290.576172"/>
       <use xlink:href="#DejaVuSans-32" x="354.199219"/>
      </g>
     </g>
    </g>
    <g id="xtick_29">
     <g id="line2d_57">
      <path d="M 895.478453 567.74175 
L 895.478453 24.14175 
" clip-path="url(#p12a747b10c)" style="fill: none; stroke: #ffffff; stroke-width: 0.8; stroke-linecap: square"/>
     </g>
     <g id="line2d_58">
      <g>
       <use xlink:href="#m0fe8e4ccdd" x="895.478453" y="567.74175" style="fill: #555555; stroke: #555555; stroke-width: 0.8"/>
      </g>
     </g>
     <g id="text_29">
      <!-- 2023-03 -->
      <g style="fill: #555555" transform="translate(882.657171 609.659567)rotate(-45)scale(0.1 -0.1)">
       <use xlink:href="#DejaVuSans-32"/>
       <use xlink:href="#DejaVuSans-30" x="63.623047"/>
       <use xlink:href="#DejaVuSans-32" x="127.246094"/>
       <use xlink:href="#DejaVuSans-33" x="190.869141"/>
       <use xlink:href="#DejaVuSans-2d" x="254.492188"/>
       <use xlink:href="#DejaVuSans-30" x="290.576172"/>
       <use xlink:href="#DejaVuSans-33" x="354.199219"/>
      </g>
     </g>
    </g>
    <g id="xtick_30">
     <g id="line2d_59">
      <path d="M 925.768674 567.74175 
L 925.768674 24.14175 
" clip-path="url(#p12a747b10c)" style="fill: none; stroke: #ffffff; stroke-width: 0.8; stroke-linecap: square"/>
     </g>
     <g id="line2d_60">
      <g>
       <use xlink:href="#m0fe8e4ccdd" x="925.768674" y="567.74175" style="fill: #555555; stroke: #555555; stroke-width: 0.8"/>
      </g>
     </g>
     <g id="text_30">
      <!-- 2023-04 -->
      <g style="fill: #555555" transform="translate(912.947391 609.659567)rotate(-45)scale(0.1 -0.1)">
       <use xlink:href="#DejaVuSans-32"/>
       <use xlink:href="#DejaVuSans-30" x="63.623047"/>
       <use xlink:href="#DejaVuSans-32" x="127.246094"/>
       <use xlink:href="#DejaVuSans-33" x="190.869141"/>
       <use xlink:href="#DejaVuSans-2d" x="254.492188"/>
       <use xlink:href="#DejaVuSans-30" x="290.576172"/>
       <use xlink:href="#DejaVuSans-34" x="354.199219"/>
      </g>
     </g>
    </g>
    <g id="text_31">
     <!-- Date -->
     <g style="fill: #555555" transform="translate(485.410438 624.248253)scale(0.12 -0.12)">
      <defs>
       <path id="DejaVuSans-44" d="M 1259 4147 
L 1259 519 
L 2022 519 
Q 2988 519 3436 956 
Q 3884 1394 3884 2338 
Q 3884 3275 3436 3711 
Q 2988 4147 2022 4147 
L 1259 4147 
z
M 628 4666 
L 1925 4666 
Q 3281 4666 3915 4102 
Q 4550 3538 4550 2338 
Q 4550 1131 3912 565 
Q 3275 0 1925 0 
L 628 0 
L 628 4666 
z
" transform="scale(0.015625)"/>
       <path id="DejaVuSans-61" d="M 2194 1759 
Q 1497 1759 1228 1600 
Q 959 1441 959 1056 
Q 959 750 1161 570 
Q 1363 391 1709 391 
Q 2188 391 2477 730 
Q 2766 1069 2766 1631 
L 2766 1759 
L 2194 1759 
z
M 3341 1997 
L 3341 0 
L 2766 0 
L 2766 531 
Q 2569 213 2275 61 
Q 1981 -91 1556 -91 
Q 1019 -91 701 211 
Q 384 513 384 1019 
Q 384 1609 779 1909 
Q 1175 2209 1959 2209 
L 2766 2209 
L 2766 2266 
Q 2766 2663 2505 2880 
Q 2244 3097 1772 3097 
Q 1472 3097 1187 3025 
Q 903 2953 641 2809 
L 641 3341 
Q 956 3463 1253 3523 
Q 1550 3584 1831 3584 
Q 2591 3584 2966 3190 
Q 3341 2797 3341 1997 
z
" transform="scale(0.015625)"/>
       <path id="DejaVuSans-74" d="M 1172 4494 
L 1172 3500 
L 2356 3500 
L 2356 3053 
L 1172 3053 
L 1172 1153 
Q 1172 725 1289 603 
Q 1406 481 1766 481 
L 2356 481 
L 2356 0 
L 1766 0 
Q 1100 0 847 248 
Q 594 497 594 1153 
L 594 3053 
L 172 3053 
L 172 3500 
L 594 3500 
L 594 4494 
L 1172 4494 
z
" transform="scale(0.015625)"/>
       <path id="DejaVuSans-65" d="M 3597 1894 
L 3597 1613 
L 953 1613 
Q 991 1019 1311 708 
Q 1631 397 2203 397 
Q 2534 397 2845 478 
Q 3156 559 3463 722 
L 3463 178 
Q 3153 47 2828 -22 
Q 2503 -91 2169 -91 
Q 1331 -91 842 396 
Q 353 884 353 1716 
Q 353 2575 817 3079 
Q 1281 3584 2069 3584 
Q 2775 3584 3186 3129 
Q 3597 2675 3597 1894 
z
M 3022 2063 
Q 3016 2534 2758 2815 
Q 2500 3097 2075 3097 
Q 1594 3097 1305 2825 
Q 1016 2553 972 2059 
L 3022 2063 
z
" transform="scale(0.015625)"/>
      </defs>
      <use xlink:href="#DejaVuSans-44"/>
      <use xlink:href="#DejaVuSans-61" x="77.001953"/>
      <use xlink:href="#DejaVuSans-74" x="138.28125"/>
      <use xlink:href="#DejaVuSans-65" x="177.490234"/>
     </g>
    </g>
   </g>
   <g id="matplotlib.axis_2">
    <g id="ytick_1">
     <g id="line2d_61">
      <path d="M 48.329375 567.74175 
L 951.173375 567.74175 
" clip-path="url(#p12a747b10c)" style="fill: none; stroke: #ffffff; stroke-width: 0.8; stroke-linecap: square"/>
     </g>
     <g id="line2d_62">
      <defs>
       <path id="m53b9aeb742" d="M 0 0 
L -3.5 0 
" style="stroke: #555555; stroke-width: 0.8"/>
      </defs>
      <g>
       <use xlink:href="#m53b9aeb742" x="48.329375" y="567.74175" style="fill: #555555; stroke: #555555; stroke-width: 0.8"/>
      </g>
     </g>
     <g id="text_32">
      <!-- 0k -->
      <g style="fill: #555555" transform="translate(29.17625 571.540969)scale(0.1 -0.1)">
       <defs>
        <path id="DejaVuSans-6b" d="M 581 4863 
L 1159 4863 
L 1159 1991 
L 2875 3500 
L 3609 3500 
L 1753 1863 
L 3688 0 
L 2938 0 
L 1159 1709 
L 1159 0 
L 581 0 
L 581 4863 
z
" transform="scale(0.015625)"/>
       </defs>
       <use xlink:href="#DejaVuSans-30"/>
       <use xlink:href="#DejaVuSans-6b" x="63.623047"/>
      </g>
     </g>
    </g>
    <g id="ytick_2">
     <g id="line2d_63">
      <path d="M 48.329375 484.225334 
L 951.173375 484.225334 
" clip-path="url(#p12a747b10c)" style="fill: none; stroke: #ffffff; stroke-width: 0.8; stroke-linecap: square"/>
     </g>
     <g id="line2d_64">
      <g>
       <use xlink:href="#m53b9aeb742" x="48.329375" y="484.225334" style="fill: #555555; stroke: #555555; stroke-width: 0.8"/>
      </g>
     </g>
     <g id="text_33">
      <!-- 10k -->
      <g style="fill: #555555" transform="translate(22.81375 488.024553)scale(0.1 -0.1)">
       <use xlink:href="#DejaVuSans-31"/>
       <use xlink:href="#DejaVuSans-30" x="63.623047"/>
       <use xlink:href="#DejaVuSans-6b" x="127.246094"/>
      </g>
     </g>
    </g>
    <g id="ytick_3">
     <g id="line2d_65">
      <path d="M 48.329375 400.708918 
L 951.173375 400.708918 
" clip-path="url(#p12a747b10c)" style="fill: none; stroke: #ffffff; stroke-width: 0.8; stroke-linecap: square"/>
     </g>
     <g id="line2d_66">
      <g>
       <use xlink:href="#m53b9aeb742" x="48.329375" y="400.708918" style="fill: #555555; stroke: #555555; stroke-width: 0.8"/>
      </g>
     </g>
     <g id="text_34">
      <!-- 20k -->
      <g style="fill: #555555" transform="translate(22.81375 404.508137)scale(0.1 -0.1)">
       <use xlink:href="#DejaVuSans-32"/>
       <use xlink:href="#DejaVuSans-30" x="63.623047"/>
       <use xlink:href="#DejaVuSans-6b" x="127.246094"/>
      </g>
     </g>
    </g>
    <g id="ytick_4">
     <g id="line2d_67">
      <path d="M 48.329375 317.192502 
L 951.173375 317.192502 
" clip-path="url(#p12a747b10c)" style="fill: none; stroke: #ffffff; stroke-width: 0.8; stroke-linecap: square"/>
     </g>
     <g id="line2d_68">
      <g>
       <use xlink:href="#m53b9aeb742" x="48.329375" y="317.192502" style="fill: #555555; stroke: #555555; stroke-width: 0.8"/>
      </g>
     </g>
     <g id="text_35">
      <!-- 30k -->
      <g style="fill: #555555" transform="translate(22.81375 320.991721)scale(0.1 -0.1)">
       <use xlink:href="#DejaVuSans-33"/>
       <use xlink:href="#DejaVuSans-30" x="63.623047"/>
       <use xlink:href="#DejaVuSans-6b" x="127.246094"/>
      </g>
     </g>
    </g>
    <g id="ytick_5">
     <g id="line2d_69">
      <path d="M 48.329375 233.676086 
L 951.173375 233.676086 
" clip-path="url(#p12a747b10c)" style="fill: none; stroke: #ffffff; stroke-width: 0.8; stroke-linecap: square"/>
     </g>
     <g id="line2d_70">
      <g>
       <use xlink:href="#m53b9aeb742" x="48.329375" y="233.676086" style="fill: #555555; stroke: #555555; stroke-width: 0.8"/>
      </g>
     </g>
     <g id="text_36">
      <!-- 40k -->
      <g style="fill: #555555" transform="translate(22.81375 237.475305)scale(0.1 -0.1)">
       <use xlink:href="#DejaVuSans-34"/>
       <use xlink:href="#DejaVuSans-30" x="63.623047"/>
       <use xlink:href="#DejaVuSans-6b" x="127.246094"/>
      </g>
     </g>
    </g>
    <g id="ytick_6">
     <g id="line2d_71">
      <path d="M 48.329375 150.15967 
L 951.173375 150.15967 
" clip-path="url(#p12a747b10c)" style="fill: none; stroke: #ffffff; stroke-width: 0.8; stroke-linecap: square"/>
     </g>
     <g id="line2d_72">
      <g>
       <use xlink:href="#m53b9aeb742" x="48.329375" y="150.15967" style="fill: #555555; stroke: #555555; stroke-width: 0.8"/>
      </g>
     </g>
     <g id="text_37">
      <!-- 50k -->
      <g style="fill: #555555" transform="translate(22.81375 153.958889)scale(0.1 -0.1)">
       <use xlink:href="#DejaVuSans-35"/>
       <use xlink:href="#DejaVuSans-30" x="63.623047"/>
       <use xlink:href="#DejaVuSans-6b" x="127.246094"/>
      </g>
     </g>
    </g>
    <g id="ytick_7">
     <g id="line2d_73">
      <path d="M 48.329375 66.643254 
L 951.173375 66.643254 
" clip-path="url(#p12a747b10c)" style="fill: none; stroke: #ffffff; stroke-width: 0.8; stroke-linecap: square"/>
     </g>
     <g id="line2d_74">
      <g>
       <use xlink:href="#m53b9aeb742" x="48.329375" y="66.643254" style="fill: #555555; stroke: #555555; stroke-width: 0.8"/>
      </g>
     </g>
     <g id="text_38">
      <!-- 60k -->
      <g style="fill: #555555" transform="translate(22.81375 70.442473)scale(0.1 -0.1)">
       <use xlink:href="#DejaVuSans-36"/>
       <use xlink:href="#DejaVuSans-30" x="63.623047"/>
       <use xlink:href="#DejaVuSans-6b" x="127.246094"/>
      </g>
     </g>
    </g>
    <g id="text_39">
     <!-- Instances -->
     <g style="fill: #555555" transform="translate(16.318125 324.588)rotate(-90)scale(0.12 -0.12)">
      <defs>
       <path id="DejaVuSans-49" d="M 628 4666 
L 1259 4666 
L 1259 0 
L 628 0 
L 628 4666 
z
" transform="scale(0.015625)"/>
       <path id="DejaVuSans-6e" d="M 3513 2113 
L 3513 0 
L 2938 0 
L 2938 2094 
Q 2938 2591 2744 2837 
Q 2550 3084 2163 3084 
Q 1697 3084 1428 2787 
Q 1159 2491 1159 1978 
L 1159 0 
L 581 0 
L 581 3500 
L 1159 3500 
L 1159 2956 
Q 1366 3272 1645 3428 
Q 1925 3584 2291 3584 
Q 2894 3584 3203 3211 
Q 3513 2838 3513 2113 
z
" transform="scale(0.015625)"/>
       <path id="DejaVuSans-73" d="M 2834 3397 
L 2834 2853 
Q 2591 2978 2328 3040 
Q 2066 3103 1784 3103 
Q 1356 3103 1142 2972 
Q 928 2841 928 2578 
Q 928 2378 1081 2264 
Q 1234 2150 1697 2047 
L 1894 2003 
Q 2506 1872 2764 1633 
Q 3022 1394 3022 966 
Q 3022 478 2636 193 
Q 2250 -91 1575 -91 
Q 1294 -91 989 -36 
Q 684 19 347 128 
L 347 722 
Q 666 556 975 473 
Q 1284 391 1588 391 
Q 1994 391 2212 530 
Q 2431 669 2431 922 
Q 2431 1156 2273 1281 
Q 2116 1406 1581 1522 
L 1381 1569 
Q 847 1681 609 1914 
Q 372 2147 372 2553 
Q 372 3047 722 3315 
Q 1072 3584 1716 3584 
Q 2034 3584 2315 3537 
Q 2597 3491 2834 3397 
z
" transform="scale(0.015625)"/>
       <path id="DejaVuSans-63" d="M 3122 3366 
L 3122 2828 
Q 2878 2963 2633 3030 
Q 2388 3097 2138 3097 
Q 1578 3097 1268 2742 
Q 959 2388 959 1747 
Q 959 1106 1268 751 
Q 1578 397 2138 397 
Q 2388 397 2633 464 
Q 2878 531 3122 666 
L 3122 134 
Q 2881 22 2623 -34 
Q 2366 -91 2075 -91 
Q 1284 -91 818 406 
Q 353 903 353 1747 
Q 353 2603 823 3093 
Q 1294 3584 2113 3584 
Q 2378 3584 2631 3529 
Q 2884 3475 3122 3366 
z
" transform="scale(0.015625)"/>
      </defs>
      <use xlink:href="#DejaVuSans-49"/>
      <use xlink:href="#DejaVuSans-6e" x="29.492188"/>
      <use xlink:href="#DejaVuSans-73" x="92.871094"/>
      <use xlink:href="#DejaVuSans-74" x="144.970703"/>
      <use xlink:href="#DejaVuSans-61" x="184.179688"/>
      <use xlink:href="#DejaVuSans-6e" x="245.458984"/>
      <use xlink:href="#DejaVuSans-63" x="308.837891"/>
      <use xlink:href="#DejaVuSans-65" x="363.818359"/>
      <use xlink:href="#DejaVuSans-73" x="425.341797"/>
     </g>
    </g>
   </g>
   <g id="PolyCollection_1">
    <path d="M 48.329375 567.74175 
L 48.329375 567.74175 
L 55.169102 567.74175 
L 62.00883 567.74175 
L 68.848557 567.74175 
L 75.688284 567.74175 
L 82.528011 567.74175 
L 89.367739 567.74175 
L 96.207466 567.74175 
L 103.047193 567.74175 
L 109.88692 567.74175 
L 116.726648 567.74175 
L 123.566375 567.74175 
L 130.406102 567.74175 
L 137.24583 567.74175 
L 144.085557 567.74175 
L 150.925284 567.74175 
L 157.765011 567.74175 
L 164.604739 567.74175 
L 171.444466 567.74175 
L 178.284193 567.74175 
L 185.12392 567.74175 
L 191.963648 567.74175 
L 198.803375 567.74175 
L 205.643102 567.74175 
L 212.48283 567.74175 
L 219.322557 567.74175 
L 226.162284 567.74175 
L 233.002011 567.74175 
L 239.841739 567.74175 
L 246.681466 567.74175 
L 253.521193 567.74175 
L 260.36092 567.74175 
L 267.200648 567.74175 
L 274.040375 567.74175 
L 280.880102 567.74175 
L 287.71983 567.74175 
L 294.559557 567.74175 
L 301.399284 567.74175 
L 308.239011 567.74175 
L 315.078739 567.74175 
L 321.918466 567.74175 
L 328.758193 567.74175 
L 335.59792 567.74175 
L 342.437648 567.74175 
L 349.277375 567.74175 
L 356.117102 567.74175 
L 362.95683 567.74175 
L 369.796557 567.74175 
L 376.636284 567.74175 
L 383.476011 567.74175 
L 390.315739 567.74175 
L 397.155466 567.74175 
L 403.995193 567.74175 
L 410.83492 567.74175 
L 417.674648 567.74175 
L 424.514375 567.74175 
L 431.354102 567.74175 
L 438.19383 567.74175 
L 445.033557 567.74175 
L 451.873284 567.74175 
L 458.713011 567.74175 
L 465.552739 567.74175 
L 472.392466 567.74175 
L 479.232193 567.74175 
L 486.07192 567.74175 
L 492.911648 567.74175 
L 499.751375 567.74175 
L 506.591102 567.74175 
L 513.43083 567.74175 
L 520.270557 567.74175 
L 527.110284 567.74175 
L 533.950011 567.74175 
L 540.789739 567.74175 
L 547.629466 567.74175 
L 554.469193 567.74175 
L 561.30892 567.74175 
L 568.148648 567.74175 
L 574.988375 567.74175 
L 581.828102 567.74175 
L 588.66783 567.74175 
L 595.507557 567.74175 
L 602.347284 567.74175 
L 609.187011 567.74175 
L 616.026739 567.74175 
L 622.866466 567.74175 
L 629.706193 567.74175 
L 636.54592 567.74175 
L 643.385648 567.74175 
L 650.225375 567.74175 
L 657.065102 567.74175 
L 663.90483 567.74175 
L 670.744557 567.74175 
L 677.584284 567.74175 
L 684.424011 567.74175 
L 691.263739 567.74175 
L 698.103466 567.74175 
L 704.943193 567.74175 
L 711.78292 567.74175 
L 718.622648 567.74175 
L 725.462375 567.74175 
L 732.302102 567.74175 
L 739.14183 567.74175 
L 745.981557 567.74175 
L 752.821284 567.74175 
L 759.661011 567.74175 
L 766.500739 567.74175 
L 773.340466 567.74175 
L 780.180193 567.74175 
L 787.01992 567.74175 
L 793.859648 567.74175 
L 800.699375 567.74175 
L 807.539102 567.74175 
L 814.37883 567.74175 
L 821.218557 567.74175 
L 828.058284 567.74175 
L 834.898011 567.74175 
L 841.737739 567.74175 
L 848.577466 567.74175 
L 855.417193 567.74175 
L 862.25692 567.74175 
L 869.096648 567.74175 
L 875.936375 567.74175 
L 882.776102 567.74175 
L 889.61583 567.74175 
L 896.455557 567.74175 
L 903.295284 567.74175 
L 910.135011 567.74175 
L 916.974739 567.74175 
L 923.814466 567.74175 
L 930.654193 567.74175 
L 951.173375 567.74175 
L 951.173375 558.37956 
L 951.173375 558.37956 
L 930.654193 555.782199 
L 923.814466 555.331211 
L 916.974739 556.475385 
L 910.135011 556.926374 
L 903.295284 555.197584 
L 896.455557 556.984836 
L 889.61583 556.049452 
L 882.776102 559.114504 
L 875.936375 556.341759 
L 869.096648 556.542199 
L 862.25692 555.915825 
L 855.417193 557.377363 
L 848.577466 555.707034 
L 841.737739 556.792748 
L 834.898011 557.101759 
L 828.058284 557.402418 
L 821.218557 555.498243 
L 814.37883 558.045494 
L 807.539102 555.406375 
L 800.699375 555.556705 
L 793.859648 555.590111 
L 787.01992 554.228794 
L 780.180193 555.030551 
L 773.340466 555.832309 
L 766.500739 557.460879 
L 759.661011 557.494286 
L 752.821284 558.287692 
L 745.981557 556.993187 
L 739.14183 558.070549 
L 732.302102 557.778242 
L 725.462375 558.463076 
L 718.622648 559.573845 
L 711.78292 558.354505 
L 704.943193 559.039339 
L 698.103466 555.63187 
L 691.263739 560.175163 
L 684.424011 560.425712 
L 677.584284 559.732526 
L 670.744557 559.44857 
L 663.90483 559.139559 
L 657.065102 559.189669 
L 650.225375 559.314944 
L 643.385648 558.730329 
L 636.54592 559.390108 
L 629.706193 559.189669 
L 622.866466 558.897362 
L 616.026739 557.71978 
L 609.187011 557.318901 
L 602.347284 561.07714 
L 595.507557 559.715822 
L 588.66783 558.797142 
L 581.828102 559.381757 
L 574.988375 559.540438 
L 568.148648 559.557141 
L 561.30892 558.646812 
L 554.469193 559.005933 
L 547.629466 560.191866 
L 540.789739 560.859997 
L 533.950011 560.300437 
L 527.110284 558.797142 
L 520.270557 560.36725 
L 513.43083 559.256482 
L 506.591102 559.874504 
L 499.751375 559.189669 
L 492.911648 561.294283 
L 486.07192 560.258679 
L 479.232193 560.141756 
L 472.392466 560.734723 
L 465.552739 561.837139 
L 458.713011 562.638897 
L 451.873284 561.419557 
L 445.033557 560.626151 
L 438.19383 560.258679 
L 431.354102 560.768129 
L 424.514375 561.060437 
L 417.674648 563.440655 
L 410.83492 562.004172 
L 403.995193 561.528129 
L 397.155466 560.809887 
L 390.315739 561.711865 
L 383.476011 562.012524 
L 376.636284 562.263073 
L 369.796557 561.761975 
L 362.95683 560.692964 
L 356.117102 559.774284 
L 349.277375 560.350547 
L 342.437648 560.10835 
L 335.59792 560.392305 
L 328.758193 560.292086 
L 321.918466 561.619997 
L 315.078739 561.519777 
L 308.239011 561.110547 
L 301.399284 561.352744 
L 294.559557 561.703513 
L 287.71983 562.931204 
L 280.880102 563.858237 
L 274.040375 562.521974 
L 267.200648 562.956259 
L 260.36092 563.014721 
L 253.521193 562.338238 
L 246.681466 563.231864 
L 239.841739 563.139995 
L 233.002011 562.998018 
L 226.162284 563.46571 
L 219.322557 563.031424 
L 212.48283 563.449006 
L 205.643102 563.699555 
L 198.803375 563.156699 
L 191.963648 564.209006 
L 185.12392 564.033621 
L 178.284193 563.858237 
L 171.444466 564.292522 
L 164.604739 563.958456 
L 157.765011 563.206809 
L 150.925284 563.858237 
L 144.085557 563.223512 
L 137.24583 549.075831 
L 130.406102 560.943514 
L 123.566375 562.446809 
L 116.726648 564.142192 
L 109.88692 565.729004 
L 103.047193 565.219554 
L 96.207466 564.877137 
L 89.367739 566.179993 
L 82.528011 565.328126 
L 75.688284 564.89384 
L 68.848557 565.369884 
L 62.00883 566.697795 
L 55.169102 567.74175 
L 48.329375 567.74175 
z
" clip-path="url(#p12a747b10c)" style="fill: #e24a33"/>
   </g>
   <g id="PolyCollection_2">
    <path d="M 48.329375 567.733398 
L 48.329375 567.74175 
L 55.169102 567.74175 
L 62.00883 566.697795 
L 68.848557 565.369884 
L 75.688284 564.89384 
L 82.528011 565.328126 
L 89.367739 566.179993 
L 96.207466 564.877137 
L 103.047193 565.219554 
L 109.88692 565.729004 
L 116.726648 564.142192 
L 123.566375 562.446809 
L 130.406102 560.943514 
L 137.24583 549.075831 
L 144.085557 563.223512 
L 150.925284 563.858237 
L 157.765011 563.206809 
L 164.604739 563.958456 
L 171.444466 564.292522 
L 178.284193 563.858237 
L 185.12392 564.033621 
L 191.963648 564.209006 
L 198.803375 563.156699 
L 205.643102 563.699555 
L 212.48283 563.449006 
L 219.322557 563.031424 
L 226.162284 563.46571 
L 233.002011 562.998018 
L 239.841739 563.139995 
L 246.681466 563.231864 
L 253.521193 562.338238 
L 260.36092 563.014721 
L 267.200648 562.956259 
L 274.040375 562.521974 
L 280.880102 563.858237 
L 287.71983 562.931204 
L 294.559557 561.703513 
L 301.399284 561.352744 
L 308.239011 561.110547 
L 315.078739 561.519777 
L 321.918466 561.619997 
L 328.758193 560.292086 
L 335.59792 560.392305 
L 342.437648 560.10835 
L 349.277375 560.350547 
L 356.117102 559.774284 
L 362.95683 560.692964 
L 369.796557 561.761975 
L 376.636284 562.263073 
L 383.476011 562.012524 
L 390.315739 561.711865 
L 397.155466 560.809887 
L 403.995193 561.528129 
L 410.83492 562.004172 
L 417.674648 563.440655 
L 424.514375 561.060437 
L 431.354102 560.768129 
L 438.19383 560.258679 
L 445.033557 560.626151 
L 451.873284 561.419557 
L 458.713011 562.638897 
L 465.552739 561.837139 
L 472.392466 560.734723 
L 479.232193 560.141756 
L 486.07192 560.258679 
L 492.911648 561.294283 
L 499.751375 559.189669 
L 506.591102 559.874504 
L 513.43083 559.256482 
L 520.270557 560.36725 
L 527.110284 558.797142 
L 533.950011 560.300437 
L 540.789739 560.859997 
L 547.629466 560.191866 
L 554.469193 559.005933 
L 561.30892 558.646812 
L 568.148648 559.557141 
L 574.988375 559.540438 
L 581.828102 559.381757 
L 588.66783 558.797142 
L 595.507557 559.715822 
L 602.347284 561.07714 
L 609.187011 557.318901 
L 616.026739 557.71978 
L 622.866466 558.897362 
L 629.706193 559.189669 
L 636.54592 559.390108 
L 643.385648 558.730329 
L 650.225375 559.314944 
L 657.065102 559.189669 
L 663.90483 559.139559 
L 670.744557 559.44857 
L 677.584284 559.732526 
L 684.424011 560.425712 
L 691.263739 560.175163 
L 698.103466 555.63187 
L 704.943193 559.039339 
L 711.78292 558.354505 
L 718.622648 559.573845 
L 725.462375 558.463076 
L 732.302102 557.778242 
L 739.14183 558.070549 
L 745.981557 556.993187 
L 752.821284 558.287692 
L 759.661011 557.494286 
L 766.500739 557.460879 
L 773.340466 555.832309 
L 780.180193 555.030551 
L 787.01992 554.228794 
L 793.859648 555.590111 
L 800.699375 555.556705 
L 807.539102 555.406375 
L 814.37883 558.045494 
L 821.218557 555.498243 
L 828.058284 557.402418 
L 834.898011 557.101759 
L 841.737739 556.792748 
L 848.577466 555.707034 
L 855.417193 557.377363 
L 862.25692 555.915825 
L 869.096648 556.542199 
L 875.936375 556.341759 
L 882.776102 559.114504 
L 889.61583 556.049452 
L 896.455557 556.984836 
L 903.295284 555.197584 
L 910.135011 556.926374 
L 916.974739 556.475385 
L 923.814466 555.331211 
L 930.654193 555.782199 
L 951.173375 558.37956 
L 951.173375 526.242443 
L 951.173375 526.242443 
L 930.654193 527.662222 
L 923.814466 527.887716 
L 916.974739 531.996724 
L 910.135011 531.019582 
L 903.295284 528.731232 
L 896.455557 528.547496 
L 889.61583 528.72288 
L 882.776102 533.80903 
L 875.936375 526.501344 
L 869.096648 529.99233 
L 862.25692 529.708374 
L 855.417193 532.063537 
L 848.577466 524.388378 
L 841.737739 528.664419 
L 834.898011 530.485077 
L 828.058284 530.585297 
L 821.218557 528.864858 
L 814.37883 536.297819 
L 807.539102 530.977824 
L 800.699375 528.647716 
L 793.859648 529.616506 
L 787.01992 524.814312 
L 780.180193 525.624421 
L 773.340466 528.806397 
L 766.500739 527.069255 
L 759.661011 521.665743 
L 752.821284 527.845958 
L 745.981557 523.043764 
L 739.14183 529.165517 
L 732.302102 530.14266 
L 725.462375 533.374745 
L 718.622648 535.838479 
L 711.78292 535.362436 
L 704.943193 536.991006 
L 698.103466 528.230134 
L 691.263739 537.057819 
L 684.424011 539.30441 
L 677.584284 539.939135 
L 670.744557 535.170348 
L 663.90483 536.849028 
L 657.065102 536.974302 
L 650.225375 539.40463 
L 643.385648 537.617379 
L 636.54592 538.678037 
L 629.706193 536.289468 
L 622.866466 536.347929 
L 616.026739 538.151884 
L 609.187011 534.794524 
L 602.347284 541.634518 
L 595.507557 541.868364 
L 588.66783 539.087268 
L 581.828102 540.231443 
L 574.988375 540.816057 
L 568.148648 539.112323 
L 561.30892 539.012103 
L 554.469193 541.300453 
L 547.629466 541.584409 
L 540.789739 543.338253 
L 533.950011 545.242428 
L 527.110284 541.968584 
L 520.270557 543.622209 
L 513.43083 542.544847 
L 506.591102 544.114956 
L 499.751375 541.342211 
L 492.911648 543.538693 
L 486.07192 544.223527 
L 479.232193 544.732977 
L 472.392466 545.718471 
L 465.552739 546.77913 
L 458.713011 549.98616 
L 451.873284 547.555832 
L 445.033557 545.868801 
L 438.19383 544.824845 
L 431.354102 546.870998 
L 424.514375 547.84814 
L 417.674648 551.923741 
L 410.83492 546.77913 
L 403.995193 547.656052 
L 397.155466 545.484625 
L 390.315739 547.263525 
L 383.476011 547.380448 
L 376.636284 548.624842 
L 369.796557 547.764623 
L 362.95683 546.854294 
L 356.117102 546.52858 
L 349.277375 547.906601 
L 342.437648 546.47847 
L 335.59792 545.117153 
L 328.758193 547.096492 
L 321.918466 548.148799 
L 315.078739 549.359787 
L 308.239011 549.234512 
L 301.399284 550.946599 
L 294.559557 550.228358 
L 287.71983 551.648137 
L 280.880102 551.606378 
L 274.040375 551.439346 
L 267.200648 553.218245 
L 260.36092 552.491652 
L 253.521193 553.059564 
L 246.681466 555.172529 
L 239.841739 557.068352 
L 233.002011 554.596266 
L 226.162284 553.569014 
L 219.322557 553.026158 
L 212.48283 553.076267 
L 205.643102 553.961541 
L 198.803375 554.612969 
L 191.963648 554.011651 
L 185.12392 556.216485 
L 178.284193 555.155826 
L 171.444466 555.606815 
L 164.604739 554.688134 
L 157.765011 554.0033 
L 150.925284 556.75099 
L 144.085557 555.548353 
L 137.24583 541.876716 
L 130.406102 554.788354 
L 123.566375 555.849012 
L 116.726648 557.586154 
L 109.88692 561.12725 
L 103.047193 562.75582 
L 96.207466 562.238018 
L 89.367739 561.277579 
L 82.528011 559.189669 
L 75.688284 557.544396 
L 68.848557 557.936923 
L 62.00883 561.912304 
L 55.169102 567.733398 
L 48.329375 567.733398 
z
" clip-path="url(#p12a747b10c)" style="fill: #348abd"/>
   </g>
   <g id="PolyCollection_3">
    <path d="M 48.329375 567.716695 
L 48.329375 567.733398 
L 55.169102 567.733398 
L 62.00883 561.912304 
L 68.848557 557.936923 
L 75.688284 557.544396 
L 82.528011 559.189669 
L 89.367739 561.277579 
L 96.207466 562.238018 
L 103.047193 562.75582 
L 109.88692 561.12725 
L 116.726648 557.586154 
L 123.566375 555.849012 
L 130.406102 554.788354 
L 137.24583 541.876716 
L 144.085557 555.548353 
L 150.925284 556.75099 
L 157.765011 554.0033 
L 164.604739 554.688134 
L 171.444466 555.606815 
L 178.284193 555.155826 
L 185.12392 556.216485 
L 191.963648 554.011651 
L 198.803375 554.612969 
L 205.643102 553.961541 
L 212.48283 553.076267 
L 219.322557 553.026158 
L 226.162284 553.569014 
L 233.002011 554.596266 
L 239.841739 557.068352 
L 246.681466 555.172529 
L 253.521193 553.059564 
L 260.36092 552.491652 
L 267.200648 553.218245 
L 274.040375 551.439346 
L 280.880102 551.606378 
L 287.71983 551.648137 
L 294.559557 550.228358 
L 301.399284 550.946599 
L 308.239011 549.234512 
L 315.078739 549.359787 
L 321.918466 548.148799 
L 328.758193 547.096492 
L 335.59792 545.117153 
L 342.437648 546.47847 
L 349.277375 547.906601 
L 356.117102 546.52858 
L 362.95683 546.854294 
L 369.796557 547.764623 
L 376.636284 548.624842 
L 383.476011 547.380448 
L 390.315739 547.263525 
L 397.155466 545.484625 
L 403.995193 547.656052 
L 410.83492 546.77913 
L 417.674648 551.923741 
L 424.514375 547.84814 
L 431.354102 546.870998 
L 438.19383 544.824845 
L 445.033557 545.868801 
L 451.873284 547.555832 
L 458.713011 549.98616 
L 465.552739 546.77913 
L 472.392466 545.718471 
L 479.232193 544.732977 
L 486.07192 544.223527 
L 492.911648 543.538693 
L 499.751375 541.342211 
L 506.591102 544.114956 
L 513.43083 542.544847 
L 520.270557 543.622209 
L 527.110284 541.968584 
L 533.950011 545.242428 
L 540.789739 543.338253 
L 547.629466 541.584409 
L 554.469193 541.300453 
L 561.30892 539.012103 
L 568.148648 539.112323 
L 574.988375 540.816057 
L 581.828102 540.231443 
L 588.66783 539.087268 
L 595.507557 541.868364 
L 602.347284 541.634518 
L 609.187011 534.794524 
L 616.026739 538.151884 
L 622.866466 536.347929 
L 629.706193 536.289468 
L 636.54592 538.678037 
L 643.385648 537.617379 
L 650.225375 539.40463 
L 657.065102 536.974302 
L 663.90483 536.849028 
L 670.744557 535.170348 
L 677.584284 539.939135 
L 684.424011 539.30441 
L 691.263739 537.057819 
L 698.103466 528.230134 
L 704.943193 536.991006 
L 711.78292 535.362436 
L 718.622648 535.838479 
L 725.462375 533.374745 
L 732.302102 530.14266 
L 739.14183 529.165517 
L 745.981557 523.043764 
L 752.821284 527.845958 
L 759.661011 521.665743 
L 766.500739 527.069255 
L 773.340466 528.806397 
L 780.180193 525.624421 
L 787.01992 524.814312 
L 793.859648 529.616506 
L 800.699375 528.647716 
L 807.539102 530.977824 
L 814.37883 536.297819 
L 821.218557 528.864858 
L 828.058284 530.585297 
L 834.898011 530.485077 
L 841.737739 528.664419 
L 848.577466 524.388378 
L 855.417193 532.063537 
L 862.25692 529.708374 
L 869.096648 529.99233 
L 875.936375 526.501344 
L 882.776102 533.80903 
L 889.61583 528.72288 
L 896.455557 528.547496 
L 903.295284 528.731232 
L 910.135011 531.019582 
L 916.974739 531.996724 
L 923.814466 527.887716 
L 930.654193 527.662222 
L 951.173375 526.242443 
L 951.173375 193.112163 
L 951.173375 193.112163 
L 930.654193 183.449313 
L 923.814466 194.832601 
L 916.974739 258.62244 
L 910.135011 266.773642 
L 903.295284 270.815836 
L 896.455557 263.708589 
L 889.61583 271.517374 
L 882.776102 282.441321 
L 875.936375 278.357369 
L 869.096648 267.015839 
L 862.25692 221.708184 
L 855.417193 297.516034 
L 848.577466 278.490995 
L 841.737739 265.829906 
L 834.898011 304.523062 
L 828.058284 328.32524 
L 821.218557 343.817535 
L 814.37883 380.882121 
L 807.539102 338.255342 
L 800.699375 323.497991 
L 793.859648 339.441275 
L 787.01992 331.615787 
L 780.180193 357.748074 
L 773.340466 327.76568 
L 766.500739 324.901067 
L 759.661011 335.307213 
L 752.821284 344.686106 
L 745.981557 369.490482 
L 739.14183 390.686948 
L 732.302102 381.817505 
L 725.462375 358.123898 
L 718.622648 341.963471 
L 711.78292 366.550704 
L 704.943193 362.15774 
L 698.103466 373.307182 
L 691.263739 393.559913 
L 684.424011 419.959452 
L 677.584284 386.912006 
L 670.744557 377.574871 
L 663.90483 404.300124 
L 657.065102 389.584531 
L 650.225375 399.489578 
L 643.385648 401.443862 
L 636.54592 384.272887 
L 629.706193 404.851332 
L 622.866466 429.572191 
L 616.026739 387.655302 
L 609.187011 412.192425 
L 602.347284 433.722957 
L 595.507557 433.622738 
L 588.66783 420.410441 
L 581.828102 445.064487 
L 574.988375 431.660102 
L 568.148648 440.471084 
L 561.30892 439.544051 
L 554.469193 445.03108 
L 547.629466 442.617456 
L 540.789739 463.337878 
L 533.950011 442.049544 
L 527.110284 424.01835 
L 520.270557 425.479887 
L 513.43083 422.080769 
L 506.591102 440.320754 
L 499.751375 476.809076 
L 492.911648 479.606876 
L 486.07192 205.606219 
L 479.232193 24.14175 
L 472.392466 178.271296 
L 465.552739 326.705022 
L 458.713011 366.22499 
L 451.873284 343.84259 
L 445.033557 288.504613 
L 438.19383 303.654491 
L 431.354102 296.096255 
L 424.514375 332.091831 
L 417.674648 385.408711 
L 410.83492 296.188123 
L 403.995193 261.545514 
L 397.155466 315.6558 
L 390.315739 369.715976 
L 383.476011 368.955977 
L 376.636284 380.890473 
L 369.796557 375.837729 
L 362.95683 404.659245 
L 356.117102 288.855382 
L 349.277375 450.359427 
L 342.437648 440.496139 
L 335.59792 448.062726 
L 328.758193 465.601173 
L 321.918466 486.730826 
L 315.078739 475.547978 
L 308.239011 474.662704 
L 301.399284 484.843355 
L 294.559557 494.748402 
L 287.71983 498.940927 
L 280.880102 506.607733 
L 274.040375 515.209924 
L 267.200648 491.031922 
L 260.36092 503.910153 
L 253.521193 505.396745 
L 246.681466 505.329932 
L 239.841739 511.67718 
L 233.002011 468.407325 
L 226.162284 496.243346 
L 219.322557 502.456968 
L 212.48283 518.283328 
L 205.643102 531.904856 
L 198.803375 518.617394 
L 191.963648 523.903983 
L 185.12392 534.627491 
L 178.284193 530.40156 
L 171.444466 529.516286 
L 164.604739 531.487274 
L 157.765011 526.434531 
L 150.925284 537.16639 
L 144.085557 533.049031 
L 137.24583 521.841128 
L 130.406102 538.369026 
L 123.566375 528.489034 
L 116.726648 531.971669 
L 109.88692 542.427924 
L 103.047193 545.676713 
L 96.207466 546.896053 
L 89.367739 542.620012 
L 82.528011 536.256061 
L 75.688284 530.944417 
L 68.848557 533.441558 
L 62.00883 554.228794 
L 55.169102 567.699992 
L 48.329375 567.716695 
z
" clip-path="url(#p12a747b10c)" style="fill: #988ed5"/>
   </g>
   <g id="patch_3">
    <path d="M 48.329375 567.74175 
L 48.329375 24.14175 
" style="fill: none; stroke: #ffffff; stroke-linejoin: miter; stroke-linecap: square"/>
   </g>
   <g id="patch_4">
    <path d="M 951.173375 567.74175 
L 951.173375 24.14175 
" style="fill: none; stroke: #ffffff; stroke-linejoin: miter; stroke-linecap: square"/>
   </g>
   <g id="patch_5">
    <path d="M 48.329375 567.74175 
L 951.173375 567.74175 
" style="fill: none; stroke: #ffffff; stroke-linejoin: miter; stroke-linecap: square"/>
   </g>
   <g id="patch_6">
    <path d="M 48.329375 24.14175 
L 951.173375 24.14175 
" style="fill: none; stroke: #ffffff; stroke-linejoin: miter; stroke-linecap: square"/>
   </g>
   <g id="text_40">
    <!-- AltArch Enterprise Linux 8 and 9 Instances by Architecture -->
    <g transform="translate(289.02875 18.14175)scale(0.144 -0.144)">
     <defs>
      <path id="DejaVuSans-41" d="M 2188 4044 
L 1331 1722 
L 3047 1722 
L 2188 4044 
z
M 1831 4666 
L 2547 4666 
L 4325 0 
L 3669 0 
L 3244 1197 
L 1141 1197 
L 716 0 
L 50 0 
L 1831 4666 
z
" transform="scale(0.015625)"/>
      <path id="DejaVuSans-6c" d="M 603 4863 
L 1178 4863 
L 1178 0 
L 603 0 
L 603 4863 
z
" transform="scale(0.015625)"/>
      <path id="DejaVuSans-72" d="M 2631 2963 
Q 2534 3019 2420 3045 
Q 2306 3072 2169 3072 
Q 1681 3072 1420 2755 
Q 1159 2438 1159 1844 
L 1159 0 
L 581 0 
L 581 3500 
L 1159 3500 
L 1159 2956 
Q 1341 3275 1631 3429 
Q 1922 3584 2338 3584 
Q 2397 3584 2469 3576 
Q 2541 3569 2628 3553 
L 2631 2963 
z
" transform="scale(0.015625)"/>
      <path id="DejaVuSans-68" d="M 3513 2113 
L 3513 0 
L 2938 0 
L 2938 2094 
Q 2938 2591 2744 2837 
Q 2550 3084 2163 3084 
Q 1697 3084 1428 2787 
Q 1159 2491 1159 1978 
L 1159 0 
L 581 0 
L 581 4863 
L 1159 4863 
L 1159 2956 
Q 1366 3272 1645 3428 
Q 1925 3584 2291 3584 
Q 2894 3584 3203 3211 
Q 3513 2838 3513 2113 
z
" transform="scale(0.015625)"/>
      <path id="DejaVuSans-20" transform="scale(0.015625)"/>
      <path id="DejaVuSans-45" d="M 628 4666 
L 3578 4666 
L 3578 4134 
L 1259 4134 
L 1259 2753 
L 3481 2753 
L 3481 2222 
L 1259 2222 
L 1259 531 
L 3634 531 
L 3634 0 
L 628 0 
L 628 4666 
z
" transform="scale(0.015625)"/>
      <path id="DejaVuSans-70" d="M 1159 525 
L 1159 -1331 
L 581 -1331 
L 581 3500 
L 1159 3500 
L 1159 2969 
Q 1341 3281 1617 3432 
Q 1894 3584 2278 3584 
Q 2916 3584 3314 3078 
Q 3713 2572 3713 1747 
Q 3713 922 3314 415 
Q 2916 -91 2278 -91 
Q 1894 -91 1617 61 
Q 1341 213 1159 525 
z
M 3116 1747 
Q 3116 2381 2855 2742 
Q 2594 3103 2138 3103 
Q 1681 3103 1420 2742 
Q 1159 2381 1159 1747 
Q 1159 1113 1420 752 
Q 1681 391 2138 391 
Q 2594 391 2855 752 
Q 3116 1113 3116 1747 
z
" transform="scale(0.015625)"/>
      <path id="DejaVuSans-69" d="M 603 3500 
L 1178 3500 
L 1178 0 
L 603 0 
L 603 3500 
z
M 603 4863 
L 1178 4863 
L 1178 4134 
L 603 4134 
L 603 4863 
z
" transform="scale(0.015625)"/>
      <path id="DejaVuSans-4c" d="M 628 4666 
L 1259 4666 
L 1259 531 
L 3531 531 
L 3531 0 
L 628 0 
L 628 4666 
z
" transform="scale(0.015625)"/>
      <path id="DejaVuSans-75" d="M 544 1381 
L 544 3500 
L 1119 3500 
L 1119 1403 
Q 1119 906 1312 657 
Q 1506 409 1894 409 
Q 2359 409 2629 706 
Q 2900 1003 2900 1516 
L 2900 3500 
L 3475 3500 
L 3475 0 
L 2900 0 
L 2900 538 
Q 2691 219 2414 64 
Q 2138 -91 1772 -91 
Q 1169 -91 856 284 
Q 544 659 544 1381 
z
M 1991 3584 
L 1991 3584 
z
" transform="scale(0.015625)"/>
      <path id="DejaVuSans-78" d="M 3513 3500 
L 2247 1797 
L 3578 0 
L 2900 0 
L 1881 1375 
L 863 0 
L 184 0 
L 1544 1831 
L 300 3500 
L 978 3500 
L 1906 2253 
L 2834 3500 
L 3513 3500 
z
" transform="scale(0.015625)"/>
      <path id="DejaVuSans-64" d="M 2906 2969 
L 2906 4863 
L 3481 4863 
L 3481 0 
L 2906 0 
L 2906 525 
Q 2725 213 2448 61 
Q 2172 -91 1784 -91 
Q 1150 -91 751 415 
Q 353 922 353 1747 
Q 353 2572 751 3078 
Q 1150 3584 1784 3584 
Q 2172 3584 2448 3432 
Q 2725 3281 2906 2969 
z
M 947 1747 
Q 947 1113 1208 752 
Q 1469 391 1925 391 
Q 2381 391 2643 752 
Q 2906 1113 2906 1747 
Q 2906 2381 2643 2742 
Q 2381 3103 1925 3103 
Q 1469 3103 1208 2742 
Q 947 2381 947 1747 
z
" transform="scale(0.015625)"/>
      <path id="DejaVuSans-62" d="M 3116 1747 
Q 3116 2381 2855 2742 
Q 2594 3103 2138 3103 
Q 1681 3103 1420 2742 
Q 1159 2381 1159 1747 
Q 1159 1113 1420 752 
Q 1681 391 2138 391 
Q 2594 391 2855 752 
Q 3116 1113 3116 1747 
z
M 1159 2969 
Q 1341 3281 1617 3432 
Q 1894 3584 2278 3584 
Q 2916 3584 3314 3078 
Q 3713 2572 3713 1747 
Q 3713 922 3314 415 
Q 2916 -91 2278 -91 
Q 1894 -91 1617 61 
Q 1341 213 1159 525 
L 1159 0 
L 581 0 
L 581 4863 
L 1159 4863 
L 1159 2969 
z
" transform="scale(0.015625)"/>
      <path id="DejaVuSans-79" d="M 2059 -325 
Q 1816 -950 1584 -1140 
Q 1353 -1331 966 -1331 
L 506 -1331 
L 506 -850 
L 844 -850 
Q 1081 -850 1212 -737 
Q 1344 -625 1503 -206 
L 1606 56 
L 191 3500 
L 800 3500 
L 1894 763 
L 2988 3500 
L 3597 3500 
L 2059 -325 
z
" transform="scale(0.015625)"/>
     </defs>
     <use xlink:href="#DejaVuSans-41"/>
     <use xlink:href="#DejaVuSans-6c" x="68.408203"/>
     <use xlink:href="#DejaVuSans-74" x="96.191406"/>
     <use xlink:href="#DejaVuSans-41" x="135.400391"/>
     <use xlink:href="#DejaVuSans-72" x="203.808594"/>
     <use xlink:href="#DejaVuSans-63" x="242.671875"/>
     <use xlink:href="#DejaVuSans-68" x="297.652344"/>
     <use xlink:href="#DejaVuSans-20" x="361.03125"/>
     <use xlink:href="#DejaVuSans-45" x="392.818359"/>
     <use xlink:href="#DejaVuSans-6e" x="456.001953"/>
     <use xlink:href="#DejaVuSans-74" x="519.380859"/>
     <use xlink:href="#DejaVuSans-65" x="558.589844"/>
     <use xlink:href="#DejaVuSans-72" x="620.113281"/>
     <use xlink:href="#DejaVuSans-70" x="661.226562"/>
     <use xlink:href="#DejaVuSans-72" x="724.703125"/>
     <use xlink:href="#DejaVuSans-69" x="765.816406"/>
     <use xlink:href="#DejaVuSans-73" x="793.599609"/>
     <use xlink:href="#DejaVuSans-65" x="845.699219"/>
     <use xlink:href="#DejaVuSans-20" x="907.222656"/>
     <use xlink:href="#DejaVuSans-4c" x="939.009766"/>
     <use xlink:href="#DejaVuSans-69" x="994.722656"/>
     <use xlink:href="#DejaVuSans-6e" x="1022.505859"/>
     <use xlink:href="#DejaVuSans-75" x="1085.884766"/>
     <use xlink:href="#DejaVuSans-78" x="1149.263672"/>
     <use xlink:href="#DejaVuSans-20" x="1208.443359"/>
     <use xlink:href="#DejaVuSans-38" x="1240.230469"/>
     <use xlink:href="#DejaVuSans-20" x="1303.853516"/>
     <use xlink:href="#DejaVuSans-61" x="1335.640625"/>
     <use xlink:href="#DejaVuSans-6e" x="1396.919922"/>
     <use xlink:href="#DejaVuSans-64" x="1460.298828"/>
     <use xlink:href="#DejaVuSans-20" x="1523.775391"/>
     <use xlink:href="#DejaVuSans-39" x="1555.5625"/>
     <use xlink:href="#DejaVuSans-20" x="1619.185547"/>
     <use xlink:href="#DejaVuSans-49" x="1650.972656"/>
     <use xlink:href="#DejaVuSans-6e" x="1680.464844"/>
     <use xlink:href="#DejaVuSans-73" x="1743.84375"/>
     <use xlink:href="#DejaVuSans-74" x="1795.943359"/>
     <use xlink:href="#DejaVuSans-61" x="1835.152344"/>
     <use xlink:href="#DejaVuSans-6e" x="1896.431641"/>
     <use xlink:href="#DejaVuSans-63" x="1959.810547"/>
     <use xlink:href="#DejaVuSans-65" x="2014.791016"/>
     <use xlink:href="#DejaVuSans-73" x="2076.314453"/>
     <use xlink:href="#DejaVuSans-20" x="2128.414062"/>
     <use xlink:href="#DejaVuSans-62" x="2160.201172"/>
     <use xlink:href="#DejaVuSans-79" x="2223.677734"/>
     <use xlink:href="#DejaVuSans-20" x="2282.857422"/>
     <use xlink:href="#DejaVuSans-41" x="2314.644531"/>
     <use xlink:href="#DejaVuSans-72" x="2383.052734"/>
     <use xlink:href="#DejaVuSans-63" x="2421.916016"/>
     <use xlink:href="#DejaVuSans-68" x="2476.896484"/>
     <use xlink:href="#DejaVuSans-69" x="2540.275391"/>
     <use xlink:href="#DejaVuSans-74" x="2568.058594"/>
     <use xlink:href="#DejaVuSans-65" x="2607.267578"/>
     <use xlink:href="#DejaVuSans-63" x="2668.791016"/>
     <use xlink:href="#DejaVuSans-74" x="2723.771484"/>
     <use xlink:href="#DejaVuSans-75" x="2762.980469"/>
     <use xlink:href="#DejaVuSans-72" x="2826.359375"/>
     <use xlink:href="#DejaVuSans-65" x="2865.222656"/>
    </g>
   </g>
   <g id="legend_1">
    <g id="patch_7">
     <path d="M 55.329375 90.85425 
L 129.7325 90.85425 
Q 131.7325 90.85425 131.7325 88.85425 
L 131.7325 31.14175 
Q 131.7325 29.14175 129.7325 29.14175 
L 55.329375 29.14175 
Q 53.329375 29.14175 53.329375 31.14175 
L 53.329375 88.85425 
Q 53.329375 90.85425 55.329375 90.85425 
z
" style="fill: #e5e5e5; opacity: 0.8; stroke: #cccccc; stroke-width: 0.5; stroke-linejoin: miter"/>
    </g>
    <g id="text_41">
     <!-- Architecture -->
     <g transform="translate(61.92625 40.740187)scale(0.1 -0.1)">
      <use xlink:href="#DejaVuSans-41"/>
      <use xlink:href="#DejaVuSans-72" x="68.408203"/>
      <use xlink:href="#DejaVuSans-63" x="107.271484"/>
      <use xlink:href="#DejaVuSans-68" x="162.251953"/>
      <use xlink:href="#DejaVuSans-69" x="225.630859"/>
      <use xlink:href="#DejaVuSans-74" x="253.414062"/>
      <use xlink:href="#DejaVuSans-65" x="292.623047"/>
      <use xlink:href="#DejaVuSans-63" x="354.146484"/>
      <use xlink:href="#DejaVuSans-74" x="409.126953"/>
      <use xlink:href="#DejaVuSans-75" x="448.335938"/>
      <use xlink:href="#DejaVuSans-72" x="511.714844"/>
      <use xlink:href="#DejaVuSans-65" x="550.578125"/>
     </g>
    </g>
    <g id="patch_8">
     <path d="M 57.329375 55.418312 
L 77.329375 55.418312 
L 77.329375 48.418312 
L 57.329375 48.418312 
z
" style="fill: #e24a33"/>
    </g>
    <g id="text_42">
     <!-- S390x -->
     <g transform="translate(85.329375 55.418312)scale(0.1 -0.1)">
      <defs>
       <path id="DejaVuSans-53" d="M 3425 4513 
L 3425 3897 
Q 3066 4069 2747 4153 
Q 2428 4238 2131 4238 
Q 1616 4238 1336 4038 
Q 1056 3838 1056 3469 
Q 1056 3159 1242 3001 
Q 1428 2844 1947 2747 
L 2328 2669 
Q 3034 2534 3370 2195 
Q 3706 1856 3706 1288 
Q 3706 609 3251 259 
Q 2797 -91 1919 -91 
Q 1588 -91 1214 -16 
Q 841 59 441 206 
L 441 856 
Q 825 641 1194 531 
Q 1563 422 1919 422 
Q 2459 422 2753 634 
Q 3047 847 3047 1241 
Q 3047 1584 2836 1778 
Q 2625 1972 2144 2069 
L 1759 2144 
Q 1053 2284 737 2584 
Q 422 2884 422 3419 
Q 422 4038 858 4394 
Q 1294 4750 2059 4750 
Q 2388 4750 2728 4690 
Q 3069 4631 3425 4513 
z
" transform="scale(0.015625)"/>
      </defs>
      <use xlink:href="#DejaVuSans-53"/>
      <use xlink:href="#DejaVuSans-33" x="63.476562"/>
      <use xlink:href="#DejaVuSans-39" x="127.099609"/>
      <use xlink:href="#DejaVuSans-30" x="190.722656"/>
      <use xlink:href="#DejaVuSans-78" x="254.345703"/>
     </g>
    </g>
    <g id="patch_9">
     <path d="M 57.329375 70.096437 
L 77.329375 70.096437 
L 77.329375 63.096437 
L 57.329375 63.096437 
z
" style="fill: #348abd"/>
    </g>
    <g id="text_43">
     <!-- PPC64le -->
     <g transform="translate(85.329375 70.096437)scale(0.1 -0.1)">
      <defs>
       <path id="DejaVuSans-50" d="M 1259 4147 
L 1259 2394 
L 2053 2394 
Q 2494 2394 2734 2622 
Q 2975 2850 2975 3272 
Q 2975 3691 2734 3919 
Q 2494 4147 2053 4147 
L 1259 4147 
z
M 628 4666 
L 2053 4666 
Q 2838 4666 3239 4311 
Q 3641 3956 3641 3272 
Q 3641 2581 3239 2228 
Q 2838 1875 2053 1875 
L 1259 1875 
L 1259 0 
L 628 0 
L 628 4666 
z
" transform="scale(0.015625)"/>
       <path id="DejaVuSans-43" d="M 4122 4306 
L 4122 3641 
Q 3803 3938 3442 4084 
Q 3081 4231 2675 4231 
Q 1875 4231 1450 3742 
Q 1025 3253 1025 2328 
Q 1025 1406 1450 917 
Q 1875 428 2675 428 
Q 3081 428 3442 575 
Q 3803 722 4122 1019 
L 4122 359 
Q 3791 134 3420 21 
Q 3050 -91 2638 -91 
Q 1578 -91 968 557 
Q 359 1206 359 2328 
Q 359 3453 968 4101 
Q 1578 4750 2638 4750 
Q 3056 4750 3426 4639 
Q 3797 4528 4122 4306 
z
" transform="scale(0.015625)"/>
      </defs>
      <use xlink:href="#DejaVuSans-50"/>
      <use xlink:href="#DejaVuSans-50" x="60.302734"/>
      <use xlink:href="#DejaVuSans-43" x="120.605469"/>
      <use xlink:href="#DejaVuSans-36" x="190.429688"/>
      <use xlink:href="#DejaVuSans-34" x="254.052734"/>
      <use xlink:href="#DejaVuSans-6c" x="317.675781"/>
      <use xlink:href="#DejaVuSans-65" x="345.458984"/>
     </g>
    </g>
    <g id="patch_10">
     <path d="M 57.329375 84.774562 
L 77.329375 84.774562 
L 77.329375 77.774562 
L 57.329375 77.774562 
z
" style="fill: #988ed5"/>
    </g>
    <g id="text_44">
     <!-- AArch64 -->
     <g transform="translate(85.329375 84.774562)scale(0.1 -0.1)">
      <use xlink:href="#DejaVuSans-41"/>
      <use xlink:href="#DejaVuSans-41" x="71.158203"/>
      <use xlink:href="#DejaVuSans-72" x="139.566406"/>
      <use xlink:href="#DejaVuSans-63" x="178.429688"/>
      <use xlink:href="#DejaVuSans-68" x="233.410156"/>
      <use xlink:href="#DejaVuSans-36" x="296.789062"/>
      <use xlink:href="#DejaVuSans-34" x="360.412109"/>
     </g>
    </g>
   </g>
  </g>
 </g>
 <defs>
  <clipPath id="p12a747b10c">
   <rect x="48.329375" y="24.14175" width="902.844" height="543.6"/>
  </clipPath>
 </defs>
</svg>
