<?xml version="1.0" encoding="utf-8" standalone="no"?>
<!DOCTYPE svg PUBLIC "-//W3C//DTD SVG 1.1//EN"
  "http://www.w3.org/Graphics/SVG/1.1/DTD/svg11.dtd">
<svg xmlns:xlink="http://www.w3.org/1999/xlink" width="960.986364pt" height="633.943878pt" viewBox="0 0 960.986364 633.943878" xmlns="http://www.w3.org/2000/svg" version="1.1">
 <metadata>
  <rdf:RDF xmlns:dc="http://purl.org/dc/elements/1.1/" xmlns:cc="http://creativecommons.org/ns#" xmlns:rdf="http://www.w3.org/1999/02/22-rdf-syntax-ns#">
   <cc:Work>
    <dc:type rdf:resource="http://purl.org/dc/dcmitype/StillImage"/>
    <dc:date>2023-09-21T11:50:53.654121</dc:date>
    <dc:format>image/svg+xml</dc:format>
    <dc:creator>
     <cc:Agent>
      <dc:title>Matplotlib v3.5.1, https://matplotlib.org/</dc:title>
     </cc:Agent>
    </dc:creator>
   </cc:Work>
  </rdf:RDF>
 </metadata>
 <defs>
  <style type="text/css">*{stroke-linejoin: round; stroke-linecap: butt}</style>
 </defs>
 <g id="figure_1">
  <g id="patch_1">
   <path d="M 0 633.943878 
L 960.986364 633.943878 
L 960.986364 0 
L 0 0 
z
" style="fill: #ffffff"/>
  </g>
  <g id="axes_1">
   <g id="patch_2">
    <path d="M 48.329375 567.74175 
L 951.173375 567.74175 
L 951.173375 24.14175 
L 48.329375 24.14175 
z
" style="fill: #e5e5e5"/>
   </g>
   <g id="matplotlib.axis_1">
    <g id="xtick_1">
     <g id="line2d_1">
      <path d="M 67.373064 567.74175 
L 67.373064 24.14175 
" clip-path="url(#p417969f5bd)" style="fill: none; stroke: #ffffff; stroke-width: 0.8; stroke-linecap: square"/>
     </g>
     <g id="line2d_2">
      <defs>
       <path id="mb065bd5843" d="M 0 0 
L 0 3.5 
" style="stroke: #555555; stroke-width: 0.8"/>
      </defs>
      <g>
       <use xlink:href="#mb065bd5843" x="67.373064" y="567.74175" style="fill: #555555; stroke: #555555; stroke-width: 0.8"/>
      </g>
     </g>
     <g id="text_1">
      <!-- 2020-11 -->
      <g style="fill: #555555" transform="translate(54.551782 609.659567)rotate(-45)scale(0.1 -0.1)">
       <defs>
        <path id="DejaVuSans-32" d="M 1228 531 
L 3431 531 
L 3431 0 
L 469 0 
L 469 531 
Q 828 903 1448 1529 
Q 2069 2156 2228 2338 
Q 2531 2678 2651 2914 
Q 2772 3150 2772 3378 
Q 2772 3750 2511 3984 
Q 2250 4219 1831 4219 
Q 1534 4219 1204 4116 
Q 875 4013 500 3803 
L 500 4441 
Q 881 4594 1212 4672 
Q 1544 4750 1819 4750 
Q 2544 4750 2975 4387 
Q 3406 4025 3406 3419 
Q 3406 3131 3298 2873 
Q 3191 2616 2906 2266 
Q 2828 2175 2409 1742 
Q 1991 1309 1228 531 
z
" transform="scale(0.015625)"/>
        <path id="DejaVuSans-30" d="M 2034 4250 
Q 1547 4250 1301 3770 
Q 1056 3291 1056 2328 
Q 1056 1369 1301 889 
Q 1547 409 2034 409 
Q 2525 409 2770 889 
Q 3016 1369 3016 2328 
Q 3016 3291 2770 3770 
Q 2525 4250 2034 4250 
z
M 2034 4750 
Q 2819 4750 3233 4129 
Q 3647 3509 3647 2328 
Q 3647 1150 3233 529 
Q 2819 -91 2034 -91 
Q 1250 -91 836 529 
Q 422 1150 422 2328 
Q 422 3509 836 4129 
Q 1250 4750 2034 4750 
z
" transform="scale(0.015625)"/>
        <path id="DejaVuSans-2d" d="M 313 2009 
L 1997 2009 
L 1997 1497 
L 313 1497 
L 313 2009 
z
" transform="scale(0.015625)"/>
        <path id="DejaVuSans-31" d="M 794 531 
L 1825 531 
L 1825 4091 
L 703 3866 
L 703 4441 
L 1819 4666 
L 2450 4666 
L 2450 531 
L 3481 531 
L 3481 0 
L 794 0 
L 794 531 
z
" transform="scale(0.015625)"/>
       </defs>
       <use xlink:href="#DejaVuSans-32"/>
       <use xlink:href="#DejaVuSans-30" x="63.623047"/>
       <use xlink:href="#DejaVuSans-32" x="127.246094"/>
       <use xlink:href="#DejaVuSans-30" x="190.869141"/>
       <use xlink:href="#DejaVuSans-2d" x="254.492188"/>
       <use xlink:href="#DejaVuSans-31" x="290.576172"/>
       <use xlink:href="#DejaVuSans-31" x="354.199219"/>
      </g>
     </g>
    </g>
    <g id="xtick_2">
     <g id="line2d_3">
      <path d="M 93.341732 567.74175 
L 93.341732 24.14175 
" clip-path="url(#p417969f5bd)" style="fill: none; stroke: #ffffff; stroke-width: 0.8; stroke-linecap: square"/>
     </g>
     <g id="line2d_4">
      <g>
       <use xlink:href="#mb065bd5843" x="93.341732" y="567.74175" style="fill: #555555; stroke: #555555; stroke-width: 0.8"/>
      </g>
     </g>
     <g id="text_2">
      <!-- 2020-12 -->
      <g style="fill: #555555" transform="translate(80.520449 609.659567)rotate(-45)scale(0.1 -0.1)">
       <use xlink:href="#DejaVuSans-32"/>
       <use xlink:href="#DejaVuSans-30" x="63.623047"/>
       <use xlink:href="#DejaVuSans-32" x="127.246094"/>
       <use xlink:href="#DejaVuSans-30" x="190.869141"/>
       <use xlink:href="#DejaVuSans-2d" x="254.492188"/>
       <use xlink:href="#DejaVuSans-31" x="290.576172"/>
       <use xlink:href="#DejaVuSans-32" x="354.199219"/>
      </g>
     </g>
    </g>
    <g id="xtick_3">
     <g id="line2d_5">
      <path d="M 120.176021 567.74175 
L 120.176021 24.14175 
" clip-path="url(#p417969f5bd)" style="fill: none; stroke: #ffffff; stroke-width: 0.8; stroke-linecap: square"/>
     </g>
     <g id="line2d_6">
      <g>
       <use xlink:href="#mb065bd5843" x="120.176021" y="567.74175" style="fill: #555555; stroke: #555555; stroke-width: 0.8"/>
      </g>
     </g>
     <g id="text_3">
      <!-- 2021-01 -->
      <g style="fill: #555555" transform="translate(107.354739 609.659567)rotate(-45)scale(0.1 -0.1)">
       <use xlink:href="#DejaVuSans-32"/>
       <use xlink:href="#DejaVuSans-30" x="63.623047"/>
       <use xlink:href="#DejaVuSans-32" x="127.246094"/>
       <use xlink:href="#DejaVuSans-31" x="190.869141"/>
       <use xlink:href="#DejaVuSans-2d" x="254.492188"/>
       <use xlink:href="#DejaVuSans-30" x="290.576172"/>
       <use xlink:href="#DejaVuSans-31" x="354.199219"/>
      </g>
     </g>
    </g>
    <g id="xtick_4">
     <g id="line2d_7">
      <path d="M 171.247734 567.74175 
L 171.247734 24.14175 
" clip-path="url(#p417969f5bd)" style="fill: none; stroke: #ffffff; stroke-width: 0.8; stroke-linecap: square"/>
     </g>
     <g id="line2d_8">
      <g>
       <use xlink:href="#mb065bd5843" x="171.247734" y="567.74175" style="fill: #555555; stroke: #555555; stroke-width: 0.8"/>
      </g>
     </g>
     <g id="text_4">
      <!-- 2021-03 -->
      <g style="fill: #555555" transform="translate(158.426451 609.659567)rotate(-45)scale(0.1 -0.1)">
       <defs>
        <path id="DejaVuSans-33" d="M 2597 2516 
Q 3050 2419 3304 2112 
Q 3559 1806 3559 1356 
Q 3559 666 3084 287 
Q 2609 -91 1734 -91 
Q 1441 -91 1130 -33 
Q 819 25 488 141 
L 488 750 
Q 750 597 1062 519 
Q 1375 441 1716 441 
Q 2309 441 2620 675 
Q 2931 909 2931 1356 
Q 2931 1769 2642 2001 
Q 2353 2234 1838 2234 
L 1294 2234 
L 1294 2753 
L 1863 2753 
Q 2328 2753 2575 2939 
Q 2822 3125 2822 3475 
Q 2822 3834 2567 4026 
Q 2313 4219 1838 4219 
Q 1578 4219 1281 4162 
Q 984 4106 628 3988 
L 628 4550 
Q 988 4650 1302 4700 
Q 1616 4750 1894 4750 
Q 2613 4750 3031 4423 
Q 3450 4097 3450 3541 
Q 3450 3153 3228 2886 
Q 3006 2619 2597 2516 
z
" transform="scale(0.015625)"/>
       </defs>
       <use xlink:href="#DejaVuSans-32"/>
       <use xlink:href="#DejaVuSans-30" x="63.623047"/>
       <use xlink:href="#DejaVuSans-32" x="127.246094"/>
       <use xlink:href="#DejaVuSans-31" x="190.869141"/>
       <use xlink:href="#DejaVuSans-2d" x="254.492188"/>
       <use xlink:href="#DejaVuSans-30" x="290.576172"/>
       <use xlink:href="#DejaVuSans-33" x="354.199219"/>
      </g>
     </g>
    </g>
    <g id="xtick_5">
     <g id="line2d_9">
      <path d="M 198.082023 567.74175 
L 198.082023 24.14175 
" clip-path="url(#p417969f5bd)" style="fill: none; stroke: #ffffff; stroke-width: 0.8; stroke-linecap: square"/>
     </g>
     <g id="line2d_10">
      <g>
       <use xlink:href="#mb065bd5843" x="198.082023" y="567.74175" style="fill: #555555; stroke: #555555; stroke-width: 0.8"/>
      </g>
     </g>
     <g id="text_5">
      <!-- 2021-04 -->
      <g style="fill: #555555" transform="translate(185.260741 609.659567)rotate(-45)scale(0.1 -0.1)">
       <defs>
        <path id="DejaVuSans-34" d="M 2419 4116 
L 825 1625 
L 2419 1625 
L 2419 4116 
z
M 2253 4666 
L 3047 4666 
L 3047 1625 
L 3713 1625 
L 3713 1100 
L 3047 1100 
L 3047 0 
L 2419 0 
L 2419 1100 
L 313 1100 
L 313 1709 
L 2253 4666 
z
" transform="scale(0.015625)"/>
       </defs>
       <use xlink:href="#DejaVuSans-32"/>
       <use xlink:href="#DejaVuSans-30" x="63.623047"/>
       <use xlink:href="#DejaVuSans-32" x="127.246094"/>
       <use xlink:href="#DejaVuSans-31" x="190.869141"/>
       <use xlink:href="#DejaVuSans-2d" x="254.492188"/>
       <use xlink:href="#DejaVuSans-30" x="290.576172"/>
       <use xlink:href="#DejaVuSans-34" x="354.199219"/>
      </g>
     </g>
    </g>
    <g id="xtick_6">
     <g id="line2d_11">
      <path d="M 224.05069 567.74175 
L 224.05069 24.14175 
" clip-path="url(#p417969f5bd)" style="fill: none; stroke: #ffffff; stroke-width: 0.8; stroke-linecap: square"/>
     </g>
     <g id="line2d_12">
      <g>
       <use xlink:href="#mb065bd5843" x="224.05069" y="567.74175" style="fill: #555555; stroke: #555555; stroke-width: 0.8"/>
      </g>
     </g>
     <g id="text_6">
      <!-- 2021-05 -->
      <g style="fill: #555555" transform="translate(211.229408 609.659567)rotate(-45)scale(0.1 -0.1)">
       <defs>
        <path id="DejaVuSans-35" d="M 691 4666 
L 3169 4666 
L 3169 4134 
L 1269 4134 
L 1269 2991 
Q 1406 3038 1543 3061 
Q 1681 3084 1819 3084 
Q 2600 3084 3056 2656 
Q 3513 2228 3513 1497 
Q 3513 744 3044 326 
Q 2575 -91 1722 -91 
Q 1428 -91 1123 -41 
Q 819 9 494 109 
L 494 744 
Q 775 591 1075 516 
Q 1375 441 1709 441 
Q 2250 441 2565 725 
Q 2881 1009 2881 1497 
Q 2881 1984 2565 2268 
Q 2250 2553 1709 2553 
Q 1456 2553 1204 2497 
Q 953 2441 691 2322 
L 691 4666 
z
" transform="scale(0.015625)"/>
       </defs>
       <use xlink:href="#DejaVuSans-32"/>
       <use xlink:href="#DejaVuSans-30" x="63.623047"/>
       <use xlink:href="#DejaVuSans-32" x="127.246094"/>
       <use xlink:href="#DejaVuSans-31" x="190.869141"/>
       <use xlink:href="#DejaVuSans-2d" x="254.492188"/>
       <use xlink:href="#DejaVuSans-30" x="290.576172"/>
       <use xlink:href="#DejaVuSans-35" x="354.199219"/>
      </g>
     </g>
    </g>
    <g id="xtick_7">
     <g id="line2d_13">
      <path d="M 250.88498 567.74175 
L 250.88498 24.14175 
" clip-path="url(#p417969f5bd)" style="fill: none; stroke: #ffffff; stroke-width: 0.8; stroke-linecap: square"/>
     </g>
     <g id="line2d_14">
      <g>
       <use xlink:href="#mb065bd5843" x="250.88498" y="567.74175" style="fill: #555555; stroke: #555555; stroke-width: 0.8"/>
      </g>
     </g>
     <g id="text_7">
      <!-- 2021-06 -->
      <g style="fill: #555555" transform="translate(238.063698 609.659567)rotate(-45)scale(0.1 -0.1)">
       <defs>
        <path id="DejaVuSans-36" d="M 2113 2584 
Q 1688 2584 1439 2293 
Q 1191 2003 1191 1497 
Q 1191 994 1439 701 
Q 1688 409 2113 409 
Q 2538 409 2786 701 
Q 3034 994 3034 1497 
Q 3034 2003 2786 2293 
Q 2538 2584 2113 2584 
z
M 3366 4563 
L 3366 3988 
Q 3128 4100 2886 4159 
Q 2644 4219 2406 4219 
Q 1781 4219 1451 3797 
Q 1122 3375 1075 2522 
Q 1259 2794 1537 2939 
Q 1816 3084 2150 3084 
Q 2853 3084 3261 2657 
Q 3669 2231 3669 1497 
Q 3669 778 3244 343 
Q 2819 -91 2113 -91 
Q 1303 -91 875 529 
Q 447 1150 447 2328 
Q 447 3434 972 4092 
Q 1497 4750 2381 4750 
Q 2619 4750 2861 4703 
Q 3103 4656 3366 4563 
z
" transform="scale(0.015625)"/>
       </defs>
       <use xlink:href="#DejaVuSans-32"/>
       <use xlink:href="#DejaVuSans-30" x="63.623047"/>
       <use xlink:href="#DejaVuSans-32" x="127.246094"/>
       <use xlink:href="#DejaVuSans-31" x="190.869141"/>
       <use xlink:href="#DejaVuSans-2d" x="254.492188"/>
       <use xlink:href="#DejaVuSans-30" x="290.576172"/>
       <use xlink:href="#DejaVuSans-36" x="354.199219"/>
      </g>
     </g>
    </g>
    <g id="xtick_8">
     <g id="line2d_15">
      <path d="M 276.853647 567.74175 
L 276.853647 24.14175 
" clip-path="url(#p417969f5bd)" style="fill: none; stroke: #ffffff; stroke-width: 0.8; stroke-linecap: square"/>
     </g>
     <g id="line2d_16">
      <g>
       <use xlink:href="#mb065bd5843" x="276.853647" y="567.74175" style="fill: #555555; stroke: #555555; stroke-width: 0.8"/>
      </g>
     </g>
     <g id="text_8">
      <!-- 2021-07 -->
      <g style="fill: #555555" transform="translate(264.032365 609.659567)rotate(-45)scale(0.1 -0.1)">
       <defs>
        <path id="DejaVuSans-37" d="M 525 4666 
L 3525 4666 
L 3525 4397 
L 1831 0 
L 1172 0 
L 2766 4134 
L 525 4134 
L 525 4666 
z
" transform="scale(0.015625)"/>
       </defs>
       <use xlink:href="#DejaVuSans-32"/>
       <use xlink:href="#DejaVuSans-30" x="63.623047"/>
       <use xlink:href="#DejaVuSans-32" x="127.246094"/>
       <use xlink:href="#DejaVuSans-31" x="190.869141"/>
       <use xlink:href="#DejaVuSans-2d" x="254.492188"/>
       <use xlink:href="#DejaVuSans-30" x="290.576172"/>
       <use xlink:href="#DejaVuSans-37" x="354.199219"/>
      </g>
     </g>
    </g>
    <g id="xtick_9">
     <g id="line2d_17">
      <path d="M 303.687937 567.74175 
L 303.687937 24.14175 
" clip-path="url(#p417969f5bd)" style="fill: none; stroke: #ffffff; stroke-width: 0.8; stroke-linecap: square"/>
     </g>
     <g id="line2d_18">
      <g>
       <use xlink:href="#mb065bd5843" x="303.687937" y="567.74175" style="fill: #555555; stroke: #555555; stroke-width: 0.8"/>
      </g>
     </g>
     <g id="text_9">
      <!-- 2021-08 -->
      <g style="fill: #555555" transform="translate(290.866655 609.659567)rotate(-45)scale(0.1 -0.1)">
       <defs>
        <path id="DejaVuSans-38" d="M 2034 2216 
Q 1584 2216 1326 1975 
Q 1069 1734 1069 1313 
Q 1069 891 1326 650 
Q 1584 409 2034 409 
Q 2484 409 2743 651 
Q 3003 894 3003 1313 
Q 3003 1734 2745 1975 
Q 2488 2216 2034 2216 
z
M 1403 2484 
Q 997 2584 770 2862 
Q 544 3141 544 3541 
Q 544 4100 942 4425 
Q 1341 4750 2034 4750 
Q 2731 4750 3128 4425 
Q 3525 4100 3525 3541 
Q 3525 3141 3298 2862 
Q 3072 2584 2669 2484 
Q 3125 2378 3379 2068 
Q 3634 1759 3634 1313 
Q 3634 634 3220 271 
Q 2806 -91 2034 -91 
Q 1263 -91 848 271 
Q 434 634 434 1313 
Q 434 1759 690 2068 
Q 947 2378 1403 2484 
z
M 1172 3481 
Q 1172 3119 1398 2916 
Q 1625 2713 2034 2713 
Q 2441 2713 2670 2916 
Q 2900 3119 2900 3481 
Q 2900 3844 2670 4047 
Q 2441 4250 2034 4250 
Q 1625 4250 1398 4047 
Q 1172 3844 1172 3481 
z
" transform="scale(0.015625)"/>
       </defs>
       <use xlink:href="#DejaVuSans-32"/>
       <use xlink:href="#DejaVuSans-30" x="63.623047"/>
       <use xlink:href="#DejaVuSans-32" x="127.246094"/>
       <use xlink:href="#DejaVuSans-31" x="190.869141"/>
       <use xlink:href="#DejaVuSans-2d" x="254.492188"/>
       <use xlink:href="#DejaVuSans-30" x="290.576172"/>
       <use xlink:href="#DejaVuSans-38" x="354.199219"/>
      </g>
     </g>
    </g>
    <g id="xtick_10">
     <g id="line2d_19">
      <path d="M 330.522226 567.74175 
L 330.522226 24.14175 
" clip-path="url(#p417969f5bd)" style="fill: none; stroke: #ffffff; stroke-width: 0.8; stroke-linecap: square"/>
     </g>
     <g id="line2d_20">
      <g>
       <use xlink:href="#mb065bd5843" x="330.522226" y="567.74175" style="fill: #555555; stroke: #555555; stroke-width: 0.8"/>
      </g>
     </g>
     <g id="text_10">
      <!-- 2021-09 -->
      <g style="fill: #555555" transform="translate(317.700944 609.659567)rotate(-45)scale(0.1 -0.1)">
       <defs>
        <path id="DejaVuSans-39" d="M 703 97 
L 703 672 
Q 941 559 1184 500 
Q 1428 441 1663 441 
Q 2288 441 2617 861 
Q 2947 1281 2994 2138 
Q 2813 1869 2534 1725 
Q 2256 1581 1919 1581 
Q 1219 1581 811 2004 
Q 403 2428 403 3163 
Q 403 3881 828 4315 
Q 1253 4750 1959 4750 
Q 2769 4750 3195 4129 
Q 3622 3509 3622 2328 
Q 3622 1225 3098 567 
Q 2575 -91 1691 -91 
Q 1453 -91 1209 -44 
Q 966 3 703 97 
z
M 1959 2075 
Q 2384 2075 2632 2365 
Q 2881 2656 2881 3163 
Q 2881 3666 2632 3958 
Q 2384 4250 1959 4250 
Q 1534 4250 1286 3958 
Q 1038 3666 1038 3163 
Q 1038 2656 1286 2365 
Q 1534 2075 1959 2075 
z
" transform="scale(0.015625)"/>
       </defs>
       <use xlink:href="#DejaVuSans-32"/>
       <use xlink:href="#DejaVuSans-30" x="63.623047"/>
       <use xlink:href="#DejaVuSans-32" x="127.246094"/>
       <use xlink:href="#DejaVuSans-31" x="190.869141"/>
       <use xlink:href="#DejaVuSans-2d" x="254.492188"/>
       <use xlink:href="#DejaVuSans-30" x="290.576172"/>
       <use xlink:href="#DejaVuSans-39" x="354.199219"/>
      </g>
     </g>
    </g>
    <g id="xtick_11">
     <g id="line2d_21">
      <path d="M 356.490894 567.74175 
L 356.490894 24.14175 
" clip-path="url(#p417969f5bd)" style="fill: none; stroke: #ffffff; stroke-width: 0.8; stroke-linecap: square"/>
     </g>
     <g id="line2d_22">
      <g>
       <use xlink:href="#mb065bd5843" x="356.490894" y="567.74175" style="fill: #555555; stroke: #555555; stroke-width: 0.8"/>
      </g>
     </g>
     <g id="text_11">
      <!-- 2021-10 -->
      <g style="fill: #555555" transform="translate(343.669611 609.659567)rotate(-45)scale(0.1 -0.1)">
       <use xlink:href="#DejaVuSans-32"/>
       <use xlink:href="#DejaVuSans-30" x="63.623047"/>
       <use xlink:href="#DejaVuSans-32" x="127.246094"/>
       <use xlink:href="#DejaVuSans-31" x="190.869141"/>
       <use xlink:href="#DejaVuSans-2d" x="254.492188"/>
       <use xlink:href="#DejaVuSans-31" x="290.576172"/>
       <use xlink:href="#DejaVuSans-30" x="354.199219"/>
      </g>
     </g>
    </g>
    <g id="xtick_12">
     <g id="line2d_23">
      <path d="M 383.325183 567.74175 
L 383.325183 24.14175 
" clip-path="url(#p417969f5bd)" style="fill: none; stroke: #ffffff; stroke-width: 0.8; stroke-linecap: square"/>
     </g>
     <g id="line2d_24">
      <g>
       <use xlink:href="#mb065bd5843" x="383.325183" y="567.74175" style="fill: #555555; stroke: #555555; stroke-width: 0.8"/>
      </g>
     </g>
     <g id="text_12">
      <!-- 2021-11 -->
      <g style="fill: #555555" transform="translate(370.503901 609.659567)rotate(-45)scale(0.1 -0.1)">
       <use xlink:href="#DejaVuSans-32"/>
       <use xlink:href="#DejaVuSans-30" x="63.623047"/>
       <use xlink:href="#DejaVuSans-32" x="127.246094"/>
       <use xlink:href="#DejaVuSans-31" x="190.869141"/>
       <use xlink:href="#DejaVuSans-2d" x="254.492188"/>
       <use xlink:href="#DejaVuSans-31" x="290.576172"/>
       <use xlink:href="#DejaVuSans-31" x="354.199219"/>
      </g>
     </g>
    </g>
    <g id="xtick_13">
     <g id="line2d_25">
      <path d="M 409.293851 567.74175 
L 409.293851 24.14175 
" clip-path="url(#p417969f5bd)" style="fill: none; stroke: #ffffff; stroke-width: 0.8; stroke-linecap: square"/>
     </g>
     <g id="line2d_26">
      <g>
       <use xlink:href="#mb065bd5843" x="409.293851" y="567.74175" style="fill: #555555; stroke: #555555; stroke-width: 0.8"/>
      </g>
     </g>
     <g id="text_13">
      <!-- 2021-12 -->
      <g style="fill: #555555" transform="translate(396.472568 609.659567)rotate(-45)scale(0.1 -0.1)">
       <use xlink:href="#DejaVuSans-32"/>
       <use xlink:href="#DejaVuSans-30" x="63.623047"/>
       <use xlink:href="#DejaVuSans-32" x="127.246094"/>
       <use xlink:href="#DejaVuSans-31" x="190.869141"/>
       <use xlink:href="#DejaVuSans-2d" x="254.492188"/>
       <use xlink:href="#DejaVuSans-31" x="290.576172"/>
       <use xlink:href="#DejaVuSans-32" x="354.199219"/>
      </g>
     </g>
    </g>
    <g id="xtick_14">
     <g id="line2d_27">
      <path d="M 436.12814 567.74175 
L 436.12814 24.14175 
" clip-path="url(#p417969f5bd)" style="fill: none; stroke: #ffffff; stroke-width: 0.8; stroke-linecap: square"/>
     </g>
     <g id="line2d_28">
      <g>
       <use xlink:href="#mb065bd5843" x="436.12814" y="567.74175" style="fill: #555555; stroke: #555555; stroke-width: 0.8"/>
      </g>
     </g>
     <g id="text_14">
      <!-- 2022-01 -->
      <g style="fill: #555555" transform="translate(423.306858 609.659567)rotate(-45)scale(0.1 -0.1)">
       <use xlink:href="#DejaVuSans-32"/>
       <use xlink:href="#DejaVuSans-30" x="63.623047"/>
       <use xlink:href="#DejaVuSans-32" x="127.246094"/>
       <use xlink:href="#DejaVuSans-32" x="190.869141"/>
       <use xlink:href="#DejaVuSans-2d" x="254.492188"/>
       <use xlink:href="#DejaVuSans-30" x="290.576172"/>
       <use xlink:href="#DejaVuSans-31" x="354.199219"/>
      </g>
     </g>
    </g>
    <g id="xtick_15">
     <g id="line2d_29">
      <path d="M 487.199852 567.74175 
L 487.199852 24.14175 
" clip-path="url(#p417969f5bd)" style="fill: none; stroke: #ffffff; stroke-width: 0.8; stroke-linecap: square"/>
     </g>
     <g id="line2d_30">
      <g>
       <use xlink:href="#mb065bd5843" x="487.199852" y="567.74175" style="fill: #555555; stroke: #555555; stroke-width: 0.8"/>
      </g>
     </g>
     <g id="text_15">
      <!-- 2022-03 -->
      <g style="fill: #555555" transform="translate(474.37857 609.659567)rotate(-45)scale(0.1 -0.1)">
       <use xlink:href="#DejaVuSans-32"/>
       <use xlink:href="#DejaVuSans-30" x="63.623047"/>
       <use xlink:href="#DejaVuSans-32" x="127.246094"/>
       <use xlink:href="#DejaVuSans-32" x="190.869141"/>
       <use xlink:href="#DejaVuSans-2d" x="254.492188"/>
       <use xlink:href="#DejaVuSans-30" x="290.576172"/>
       <use xlink:href="#DejaVuSans-33" x="354.199219"/>
      </g>
     </g>
    </g>
    <g id="xtick_16">
     <g id="line2d_31">
      <path d="M 514.034142 567.74175 
L 514.034142 24.14175 
" clip-path="url(#p417969f5bd)" style="fill: none; stroke: #ffffff; stroke-width: 0.8; stroke-linecap: square"/>
     </g>
     <g id="line2d_32">
      <g>
       <use xlink:href="#mb065bd5843" x="514.034142" y="567.74175" style="fill: #555555; stroke: #555555; stroke-width: 0.8"/>
      </g>
     </g>
     <g id="text_16">
      <!-- 2022-04 -->
      <g style="fill: #555555" transform="translate(501.21286 609.659567)rotate(-45)scale(0.1 -0.1)">
       <use xlink:href="#DejaVuSans-32"/>
       <use xlink:href="#DejaVuSans-30" x="63.623047"/>
       <use xlink:href="#DejaVuSans-32" x="127.246094"/>
       <use xlink:href="#DejaVuSans-32" x="190.869141"/>
       <use xlink:href="#DejaVuSans-2d" x="254.492188"/>
       <use xlink:href="#DejaVuSans-30" x="290.576172"/>
       <use xlink:href="#DejaVuSans-34" x="354.199219"/>
      </g>
     </g>
    </g>
    <g id="xtick_17">
     <g id="line2d_33">
      <path d="M 540.002809 567.74175 
L 540.002809 24.14175 
" clip-path="url(#p417969f5bd)" style="fill: none; stroke: #ffffff; stroke-width: 0.8; stroke-linecap: square"/>
     </g>
     <g id="line2d_34">
      <g>
       <use xlink:href="#mb065bd5843" x="540.002809" y="567.74175" style="fill: #555555; stroke: #555555; stroke-width: 0.8"/>
      </g>
     </g>
     <g id="text_17">
      <!-- 2022-05 -->
      <g style="fill: #555555" transform="translate(527.181527 609.659567)rotate(-45)scale(0.1 -0.1)">
       <use xlink:href="#DejaVuSans-32"/>
       <use xlink:href="#DejaVuSans-30" x="63.623047"/>
       <use xlink:href="#DejaVuSans-32" x="127.246094"/>
       <use xlink:href="#DejaVuSans-32" x="190.869141"/>
       <use xlink:href="#DejaVuSans-2d" x="254.492188"/>
       <use xlink:href="#DejaVuSans-30" x="290.576172"/>
       <use xlink:href="#DejaVuSans-35" x="354.199219"/>
      </g>
     </g>
    </g>
    <g id="xtick_18">
     <g id="line2d_35">
      <path d="M 566.837099 567.74175 
L 566.837099 24.14175 
" clip-path="url(#p417969f5bd)" style="fill: none; stroke: #ffffff; stroke-width: 0.8; stroke-linecap: square"/>
     </g>
     <g id="line2d_36">
      <g>
       <use xlink:href="#mb065bd5843" x="566.837099" y="567.74175" style="fill: #555555; stroke: #555555; stroke-width: 0.8"/>
      </g>
     </g>
     <g id="text_18">
      <!-- 2022-06 -->
      <g style="fill: #555555" transform="translate(554.015817 609.659567)rotate(-45)scale(0.1 -0.1)">
       <use xlink:href="#DejaVuSans-32"/>
       <use xlink:href="#DejaVuSans-30" x="63.623047"/>
       <use xlink:href="#DejaVuSans-32" x="127.246094"/>
       <use xlink:href="#DejaVuSans-32" x="190.869141"/>
       <use xlink:href="#DejaVuSans-2d" x="254.492188"/>
       <use xlink:href="#DejaVuSans-30" x="290.576172"/>
       <use xlink:href="#DejaVuSans-36" x="354.199219"/>
      </g>
     </g>
    </g>
    <g id="xtick_19">
     <g id="line2d_37">
      <path d="M 592.805766 567.74175 
L 592.805766 24.14175 
" clip-path="url(#p417969f5bd)" style="fill: none; stroke: #ffffff; stroke-width: 0.8; stroke-linecap: square"/>
     </g>
     <g id="line2d_38">
      <g>
       <use xlink:href="#mb065bd5843" x="592.805766" y="567.74175" style="fill: #555555; stroke: #555555; stroke-width: 0.8"/>
      </g>
     </g>
     <g id="text_19">
      <!-- 2022-07 -->
      <g style="fill: #555555" transform="translate(579.984484 609.659567)rotate(-45)scale(0.1 -0.1)">
       <use xlink:href="#DejaVuSans-32"/>
       <use xlink:href="#DejaVuSans-30" x="63.623047"/>
       <use xlink:href="#DejaVuSans-32" x="127.246094"/>
       <use xlink:href="#DejaVuSans-32" x="190.869141"/>
       <use xlink:href="#DejaVuSans-2d" x="254.492188"/>
       <use xlink:href="#DejaVuSans-30" x="290.576172"/>
       <use xlink:href="#DejaVuSans-37" x="354.199219"/>
      </g>
     </g>
    </g>
    <g id="xtick_20">
     <g id="line2d_39">
      <path d="M 619.640056 567.74175 
L 619.640056 24.14175 
" clip-path="url(#p417969f5bd)" style="fill: none; stroke: #ffffff; stroke-width: 0.8; stroke-linecap: square"/>
     </g>
     <g id="line2d_40">
      <g>
       <use xlink:href="#mb065bd5843" x="619.640056" y="567.74175" style="fill: #555555; stroke: #555555; stroke-width: 0.8"/>
      </g>
     </g>
     <g id="text_20">
      <!-- 2022-08 -->
      <g style="fill: #555555" transform="translate(606.818773 609.659567)rotate(-45)scale(0.1 -0.1)">
       <use xlink:href="#DejaVuSans-32"/>
       <use xlink:href="#DejaVuSans-30" x="63.623047"/>
       <use xlink:href="#DejaVuSans-32" x="127.246094"/>
       <use xlink:href="#DejaVuSans-32" x="190.869141"/>
       <use xlink:href="#DejaVuSans-2d" x="254.492188"/>
       <use xlink:href="#DejaVuSans-30" x="290.576172"/>
       <use xlink:href="#DejaVuSans-38" x="354.199219"/>
      </g>
     </g>
    </g>
    <g id="xtick_21">
     <g id="line2d_41">
      <path d="M 646.474345 567.74175 
L 646.474345 24.14175 
" clip-path="url(#p417969f5bd)" style="fill: none; stroke: #ffffff; stroke-width: 0.8; stroke-linecap: square"/>
     </g>
     <g id="line2d_42">
      <g>
       <use xlink:href="#mb065bd5843" x="646.474345" y="567.74175" style="fill: #555555; stroke: #555555; stroke-width: 0.8"/>
      </g>
     </g>
     <g id="text_21">
      <!-- 2022-09 -->
      <g style="fill: #555555" transform="translate(633.653063 609.659567)rotate(-45)scale(0.1 -0.1)">
       <use xlink:href="#DejaVuSans-32"/>
       <use xlink:href="#DejaVuSans-30" x="63.623047"/>
       <use xlink:href="#DejaVuSans-32" x="127.246094"/>
       <use xlink:href="#DejaVuSans-32" x="190.869141"/>
       <use xlink:href="#DejaVuSans-2d" x="254.492188"/>
       <use xlink:href="#DejaVuSans-30" x="290.576172"/>
       <use xlink:href="#DejaVuSans-39" x="354.199219"/>
      </g>
     </g>
    </g>
    <g id="xtick_22">
     <g id="line2d_43">
      <path d="M 672.443013 567.74175 
L 672.443013 24.14175 
" clip-path="url(#p417969f5bd)" style="fill: none; stroke: #ffffff; stroke-width: 0.8; stroke-linecap: square"/>
     </g>
     <g id="line2d_44">
      <g>
       <use xlink:href="#mb065bd5843" x="672.443013" y="567.74175" style="fill: #555555; stroke: #555555; stroke-width: 0.8"/>
      </g>
     </g>
     <g id="text_22">
      <!-- 2022-10 -->
      <g style="fill: #555555" transform="translate(659.62173 609.659567)rotate(-45)scale(0.1 -0.1)">
       <use xlink:href="#DejaVuSans-32"/>
       <use xlink:href="#DejaVuSans-30" x="63.623047"/>
       <use xlink:href="#DejaVuSans-32" x="127.246094"/>
       <use xlink:href="#DejaVuSans-32" x="190.869141"/>
       <use xlink:href="#DejaVuSans-2d" x="254.492188"/>
       <use xlink:href="#DejaVuSans-31" x="290.576172"/>
       <use xlink:href="#DejaVuSans-30" x="354.199219"/>
      </g>
     </g>
    </g>
    <g id="xtick_23">
     <g id="line2d_45">
      <path d="M 699.277302 567.74175 
L 699.277302 24.14175 
" clip-path="url(#p417969f5bd)" style="fill: none; stroke: #ffffff; stroke-width: 0.8; stroke-linecap: square"/>
     </g>
     <g id="line2d_46">
      <g>
       <use xlink:href="#mb065bd5843" x="699.277302" y="567.74175" style="fill: #555555; stroke: #555555; stroke-width: 0.8"/>
      </g>
     </g>
     <g id="text_23">
      <!-- 2022-11 -->
      <g style="fill: #555555" transform="translate(686.45602 609.659567)rotate(-45)scale(0.1 -0.1)">
       <use xlink:href="#DejaVuSans-32"/>
       <use xlink:href="#DejaVuSans-30" x="63.623047"/>
       <use xlink:href="#DejaVuSans-32" x="127.246094"/>
       <use xlink:href="#DejaVuSans-32" x="190.869141"/>
       <use xlink:href="#DejaVuSans-2d" x="254.492188"/>
       <use xlink:href="#DejaVuSans-31" x="290.576172"/>
       <use xlink:href="#DejaVuSans-31" x="354.199219"/>
      </g>
     </g>
    </g>
    <g id="xtick_24">
     <g id="line2d_47">
      <path d="M 725.245969 567.74175 
L 725.245969 24.14175 
" clip-path="url(#p417969f5bd)" style="fill: none; stroke: #ffffff; stroke-width: 0.8; stroke-linecap: square"/>
     </g>
     <g id="line2d_48">
      <g>
       <use xlink:href="#mb065bd5843" x="725.245969" y="567.74175" style="fill: #555555; stroke: #555555; stroke-width: 0.8"/>
      </g>
     </g>
     <g id="text_24">
      <!-- 2022-12 -->
      <g style="fill: #555555" transform="translate(712.424687 609.659567)rotate(-45)scale(0.1 -0.1)">
       <use xlink:href="#DejaVuSans-32"/>
       <use xlink:href="#DejaVuSans-30" x="63.623047"/>
       <use xlink:href="#DejaVuSans-32" x="127.246094"/>
       <use xlink:href="#DejaVuSans-32" x="190.869141"/>
       <use xlink:href="#DejaVuSans-2d" x="254.492188"/>
       <use xlink:href="#DejaVuSans-31" x="290.576172"/>
       <use xlink:href="#DejaVuSans-32" x="354.199219"/>
      </g>
     </g>
    </g>
    <g id="xtick_25">
     <g id="line2d_49">
      <path d="M 752.080259 567.74175 
L 752.080259 24.14175 
" clip-path="url(#p417969f5bd)" style="fill: none; stroke: #ffffff; stroke-width: 0.8; stroke-linecap: square"/>
     </g>
     <g id="line2d_50">
      <g>
       <use xlink:href="#mb065bd5843" x="752.080259" y="567.74175" style="fill: #555555; stroke: #555555; stroke-width: 0.8"/>
      </g>
     </g>
     <g id="text_25">
      <!-- 2023-01 -->
      <g style="fill: #555555" transform="translate(739.258977 609.659567)rotate(-45)scale(0.1 -0.1)">
       <use xlink:href="#DejaVuSans-32"/>
       <use xlink:href="#DejaVuSans-30" x="63.623047"/>
       <use xlink:href="#DejaVuSans-32" x="127.246094"/>
       <use xlink:href="#DejaVuSans-33" x="190.869141"/>
       <use xlink:href="#DejaVuSans-2d" x="254.492188"/>
       <use xlink:href="#DejaVuSans-30" x="290.576172"/>
       <use xlink:href="#DejaVuSans-31" x="354.199219"/>
      </g>
     </g>
    </g>
    <g id="xtick_26">
     <g id="line2d_51">
      <path d="M 803.151971 567.74175 
L 803.151971 24.14175 
" clip-path="url(#p417969f5bd)" style="fill: none; stroke: #ffffff; stroke-width: 0.8; stroke-linecap: square"/>
     </g>
     <g id="line2d_52">
      <g>
       <use xlink:href="#mb065bd5843" x="803.151971" y="567.74175" style="fill: #555555; stroke: #555555; stroke-width: 0.8"/>
      </g>
     </g>
     <g id="text_26">
      <!-- 2023-03 -->
      <g style="fill: #555555" transform="translate(790.330689 609.659567)rotate(-45)scale(0.1 -0.1)">
       <use xlink:href="#DejaVuSans-32"/>
       <use xlink:href="#DejaVuSans-30" x="63.623047"/>
       <use xlink:href="#DejaVuSans-32" x="127.246094"/>
       <use xlink:href="#DejaVuSans-33" x="190.869141"/>
       <use xlink:href="#DejaVuSans-2d" x="254.492188"/>
       <use xlink:href="#DejaVuSans-30" x="290.576172"/>
       <use xlink:href="#DejaVuSans-33" x="354.199219"/>
      </g>
     </g>
    </g>
    <g id="xtick_27">
     <g id="line2d_53">
      <path d="M 829.986261 567.74175 
L 829.986261 24.14175 
" clip-path="url(#p417969f5bd)" style="fill: none; stroke: #ffffff; stroke-width: 0.8; stroke-linecap: square"/>
     </g>
     <g id="line2d_54">
      <g>
       <use xlink:href="#mb065bd5843" x="829.986261" y="567.74175" style="fill: #555555; stroke: #555555; stroke-width: 0.8"/>
      </g>
     </g>
     <g id="text_27">
      <!-- 2023-04 -->
      <g style="fill: #555555" transform="translate(817.164979 609.659567)rotate(-45)scale(0.1 -0.1)">
       <use xlink:href="#DejaVuSans-32"/>
       <use xlink:href="#DejaVuSans-30" x="63.623047"/>
       <use xlink:href="#DejaVuSans-32" x="127.246094"/>
       <use xlink:href="#DejaVuSans-33" x="190.869141"/>
       <use xlink:href="#DejaVuSans-2d" x="254.492188"/>
       <use xlink:href="#DejaVuSans-30" x="290.576172"/>
       <use xlink:href="#DejaVuSans-34" x="354.199219"/>
      </g>
     </g>
    </g>
    <g id="xtick_28">
     <g id="line2d_55">
      <path d="M 855.954928 567.74175 
L 855.954928 24.14175 
" clip-path="url(#p417969f5bd)" style="fill: none; stroke: #ffffff; stroke-width: 0.8; stroke-linecap: square"/>
     </g>
     <g id="line2d_56">
      <g>
       <use xlink:href="#mb065bd5843" x="855.954928" y="567.74175" style="fill: #555555; stroke: #555555; stroke-width: 0.8"/>
      </g>
     </g>
     <g id="text_28">
      <!-- 2023-05 -->
      <g style="fill: #555555" transform="translate(843.133646 609.659567)rotate(-45)scale(0.1 -0.1)">
       <use xlink:href="#DejaVuSans-32"/>
       <use xlink:href="#DejaVuSans-30" x="63.623047"/>
       <use xlink:href="#DejaVuSans-32" x="127.246094"/>
       <use xlink:href="#DejaVuSans-33" x="190.869141"/>
       <use xlink:href="#DejaVuSans-2d" x="254.492188"/>
       <use xlink:href="#DejaVuSans-30" x="290.576172"/>
       <use xlink:href="#DejaVuSans-35" x="354.199219"/>
      </g>
     </g>
    </g>
    <g id="xtick_29">
     <g id="line2d_57">
      <path d="M 882.789218 567.74175 
L 882.789218 24.14175 
" clip-path="url(#p417969f5bd)" style="fill: none; stroke: #ffffff; stroke-width: 0.8; stroke-linecap: square"/>
     </g>
     <g id="line2d_58">
      <g>
       <use xlink:href="#mb065bd5843" x="882.789218" y="567.74175" style="fill: #555555; stroke: #555555; stroke-width: 0.8"/>
      </g>
     </g>
     <g id="text_29">
      <!-- 2023-06 -->
      <g style="fill: #555555" transform="translate(869.967936 609.659567)rotate(-45)scale(0.1 -0.1)">
       <use xlink:href="#DejaVuSans-32"/>
       <use xlink:href="#DejaVuSans-30" x="63.623047"/>
       <use xlink:href="#DejaVuSans-32" x="127.246094"/>
       <use xlink:href="#DejaVuSans-33" x="190.869141"/>
       <use xlink:href="#DejaVuSans-2d" x="254.492188"/>
       <use xlink:href="#DejaVuSans-30" x="290.576172"/>
       <use xlink:href="#DejaVuSans-36" x="354.199219"/>
      </g>
     </g>
    </g>
    <g id="xtick_30">
     <g id="line2d_59">
      <path d="M 908.757885 567.74175 
L 908.757885 24.14175 
" clip-path="url(#p417969f5bd)" style="fill: none; stroke: #ffffff; stroke-width: 0.8; stroke-linecap: square"/>
     </g>
     <g id="line2d_60">
      <g>
       <use xlink:href="#mb065bd5843" x="908.757885" y="567.74175" style="fill: #555555; stroke: #555555; stroke-width: 0.8"/>
      </g>
     </g>
     <g id="text_30">
      <!-- 2023-07 -->
      <g style="fill: #555555" transform="translate(895.936603 609.659567)rotate(-45)scale(0.1 -0.1)">
       <use xlink:href="#DejaVuSans-32"/>
       <use xlink:href="#DejaVuSans-30" x="63.623047"/>
       <use xlink:href="#DejaVuSans-32" x="127.246094"/>
       <use xlink:href="#DejaVuSans-33" x="190.869141"/>
       <use xlink:href="#DejaVuSans-2d" x="254.492188"/>
       <use xlink:href="#DejaVuSans-30" x="290.576172"/>
       <use xlink:href="#DejaVuSans-37" x="354.199219"/>
      </g>
     </g>
    </g>
    <g id="xtick_31">
     <g id="line2d_61">
      <path d="M 935.592175 567.74175 
L 935.592175 24.14175 
" clip-path="url(#p417969f5bd)" style="fill: none; stroke: #ffffff; stroke-width: 0.8; stroke-linecap: square"/>
     </g>
     <g id="line2d_62">
      <g>
       <use xlink:href="#mb065bd5843" x="935.592175" y="567.74175" style="fill: #555555; stroke: #555555; stroke-width: 0.8"/>
      </g>
     </g>
     <g id="text_31">
      <!-- 2023-08 -->
      <g style="fill: #555555" transform="translate(922.770892 609.659567)rotate(-45)scale(0.1 -0.1)">
       <use xlink:href="#DejaVuSans-32"/>
       <use xlink:href="#DejaVuSans-30" x="63.623047"/>
       <use xlink:href="#DejaVuSans-32" x="127.246094"/>
       <use xlink:href="#DejaVuSans-33" x="190.869141"/>
       <use xlink:href="#DejaVuSans-2d" x="254.492188"/>
       <use xlink:href="#DejaVuSans-30" x="290.576172"/>
       <use xlink:href="#DejaVuSans-38" x="354.199219"/>
      </g>
     </g>
    </g>
    <g id="text_32">
     <!-- Date -->
     <g style="fill: #555555" transform="translate(485.410438 624.248253)scale(0.12 -0.12)">
      <defs>
       <path id="DejaVuSans-44" d="M 1259 4147 
L 1259 519 
L 2022 519 
Q 2988 519 3436 956 
Q 3884 1394 3884 2338 
Q 3884 3275 3436 3711 
Q 2988 4147 2022 4147 
L 1259 4147 
z
M 628 4666 
L 1925 4666 
Q 3281 4666 3915 4102 
Q 4550 3538 4550 2338 
Q 4550 1131 3912 565 
Q 3275 0 1925 0 
L 628 0 
L 628 4666 
z
" transform="scale(0.015625)"/>
       <path id="DejaVuSans-61" d="M 2194 1759 
Q 1497 1759 1228 1600 
Q 959 1441 959 1056 
Q 959 750 1161 570 
Q 1363 391 1709 391 
Q 2188 391 2477 730 
Q 2766 1069 2766 1631 
L 2766 1759 
L 2194 1759 
z
M 3341 1997 
L 3341 0 
L 2766 0 
L 2766 531 
Q 2569 213 2275 61 
Q 1981 -91 1556 -91 
Q 1019 -91 701 211 
Q 384 513 384 1019 
Q 384 1609 779 1909 
Q 1175 2209 1959 2209 
L 2766 2209 
L 2766 2266 
Q 2766 2663 2505 2880 
Q 2244 3097 1772 3097 
Q 1472 3097 1187 3025 
Q 903 2953 641 2809 
L 641 3341 
Q 956 3463 1253 3523 
Q 1550 3584 1831 3584 
Q 2591 3584 2966 3190 
Q 3341 2797 3341 1997 
z
" transform="scale(0.015625)"/>
       <path id="DejaVuSans-74" d="M 1172 4494 
L 1172 3500 
L 2356 3500 
L 2356 3053 
L 1172 3053 
L 1172 1153 
Q 1172 725 1289 603 
Q 1406 481 1766 481 
L 2356 481 
L 2356 0 
L 1766 0 
Q 1100 0 847 248 
Q 594 497 594 1153 
L 594 3053 
L 172 3053 
L 172 3500 
L 594 3500 
L 594 4494 
L 1172 4494 
z
" transform="scale(0.015625)"/>
       <path id="DejaVuSans-65" d="M 3597 1894 
L 3597 1613 
L 953 1613 
Q 991 1019 1311 708 
Q 1631 397 2203 397 
Q 2534 397 2845 478 
Q 3156 559 3463 722 
L 3463 178 
Q 3153 47 2828 -22 
Q 2503 -91 2169 -91 
Q 1331 -91 842 396 
Q 353 884 353 1716 
Q 353 2575 817 3079 
Q 1281 3584 2069 3584 
Q 2775 3584 3186 3129 
Q 3597 2675 3597 1894 
z
M 3022 2063 
Q 3016 2534 2758 2815 
Q 2500 3097 2075 3097 
Q 1594 3097 1305 2825 
Q 1016 2553 972 2059 
L 3022 2063 
z
" transform="scale(0.015625)"/>
      </defs>
      <use xlink:href="#DejaVuSans-44"/>
      <use xlink:href="#DejaVuSans-61" x="77.001953"/>
      <use xlink:href="#DejaVuSans-74" x="138.28125"/>
      <use xlink:href="#DejaVuSans-65" x="177.490234"/>
     </g>
    </g>
   </g>
   <g id="matplotlib.axis_2">
    <g id="ytick_1">
     <g id="line2d_63">
      <path d="M 48.329375 567.74175 
L 951.173375 567.74175 
" clip-path="url(#p417969f5bd)" style="fill: none; stroke: #ffffff; stroke-width: 0.8; stroke-linecap: square"/>
     </g>
     <g id="line2d_64">
      <defs>
       <path id="m6a3399219a" d="M 0 0 
L -3.5 0 
" style="stroke: #555555; stroke-width: 0.8"/>
      </defs>
      <g>
       <use xlink:href="#m6a3399219a" x="48.329375" y="567.74175" style="fill: #555555; stroke: #555555; stroke-width: 0.8"/>
      </g>
     </g>
     <g id="text_33">
      <!-- 0k -->
      <g style="fill: #555555" transform="translate(29.17625 571.540969)scale(0.1 -0.1)">
       <defs>
        <path id="DejaVuSans-6b" d="M 581 4863 
L 1159 4863 
L 1159 1991 
L 2875 3500 
L 3609 3500 
L 1753 1863 
L 3688 0 
L 2938 0 
L 1159 1709 
L 1159 0 
L 581 0 
L 581 4863 
z
" transform="scale(0.015625)"/>
       </defs>
       <use xlink:href="#DejaVuSans-30"/>
       <use xlink:href="#DejaVuSans-6b" x="63.623047"/>
      </g>
     </g>
    </g>
    <g id="ytick_2">
     <g id="line2d_65">
      <path d="M 48.329375 498.139568 
L 951.173375 498.139568 
" clip-path="url(#p417969f5bd)" style="fill: none; stroke: #ffffff; stroke-width: 0.8; stroke-linecap: square"/>
     </g>
     <g id="line2d_66">
      <g>
       <use xlink:href="#m6a3399219a" x="48.329375" y="498.139568" style="fill: #555555; stroke: #555555; stroke-width: 0.8"/>
      </g>
     </g>
     <g id="text_34">
      <!-- 10k -->
      <g style="fill: #555555" transform="translate(22.81375 501.938787)scale(0.1 -0.1)">
       <use xlink:href="#DejaVuSans-31"/>
       <use xlink:href="#DejaVuSans-30" x="63.623047"/>
       <use xlink:href="#DejaVuSans-6b" x="127.246094"/>
      </g>
     </g>
    </g>
    <g id="ytick_3">
     <g id="line2d_67">
      <path d="M 48.329375 428.537386 
L 951.173375 428.537386 
" clip-path="url(#p417969f5bd)" style="fill: none; stroke: #ffffff; stroke-width: 0.8; stroke-linecap: square"/>
     </g>
     <g id="line2d_68">
      <g>
       <use xlink:href="#m6a3399219a" x="48.329375" y="428.537386" style="fill: #555555; stroke: #555555; stroke-width: 0.8"/>
      </g>
     </g>
     <g id="text_35">
      <!-- 20k -->
      <g style="fill: #555555" transform="translate(22.81375 432.336605)scale(0.1 -0.1)">
       <use xlink:href="#DejaVuSans-32"/>
       <use xlink:href="#DejaVuSans-30" x="63.623047"/>
       <use xlink:href="#DejaVuSans-6b" x="127.246094"/>
      </g>
     </g>
    </g>
    <g id="ytick_4">
     <g id="line2d_69">
      <path d="M 48.329375 358.935205 
L 951.173375 358.935205 
" clip-path="url(#p417969f5bd)" style="fill: none; stroke: #ffffff; stroke-width: 0.8; stroke-linecap: square"/>
     </g>
     <g id="line2d_70">
      <g>
       <use xlink:href="#m6a3399219a" x="48.329375" y="358.935205" style="fill: #555555; stroke: #555555; stroke-width: 0.8"/>
      </g>
     </g>
     <g id="text_36">
      <!-- 30k -->
      <g style="fill: #555555" transform="translate(22.81375 362.734423)scale(0.1 -0.1)">
       <use xlink:href="#DejaVuSans-33"/>
       <use xlink:href="#DejaVuSans-30" x="63.623047"/>
       <use xlink:href="#DejaVuSans-6b" x="127.246094"/>
      </g>
     </g>
    </g>
    <g id="ytick_5">
     <g id="line2d_71">
      <path d="M 48.329375 289.333023 
L 951.173375 289.333023 
" clip-path="url(#p417969f5bd)" style="fill: none; stroke: #ffffff; stroke-width: 0.8; stroke-linecap: square"/>
     </g>
     <g id="line2d_72">
      <g>
       <use xlink:href="#m6a3399219a" x="48.329375" y="289.333023" style="fill: #555555; stroke: #555555; stroke-width: 0.8"/>
      </g>
     </g>
     <g id="text_37">
      <!-- 40k -->
      <g style="fill: #555555" transform="translate(22.81375 293.132242)scale(0.1 -0.1)">
       <use xlink:href="#DejaVuSans-34"/>
       <use xlink:href="#DejaVuSans-30" x="63.623047"/>
       <use xlink:href="#DejaVuSans-6b" x="127.246094"/>
      </g>
     </g>
    </g>
    <g id="ytick_6">
     <g id="line2d_73">
      <path d="M 48.329375 219.730841 
L 951.173375 219.730841 
" clip-path="url(#p417969f5bd)" style="fill: none; stroke: #ffffff; stroke-width: 0.8; stroke-linecap: square"/>
     </g>
     <g id="line2d_74">
      <g>
       <use xlink:href="#m6a3399219a" x="48.329375" y="219.730841" style="fill: #555555; stroke: #555555; stroke-width: 0.8"/>
      </g>
     </g>
     <g id="text_38">
      <!-- 50k -->
      <g style="fill: #555555" transform="translate(22.81375 223.53006)scale(0.1 -0.1)">
       <use xlink:href="#DejaVuSans-35"/>
       <use xlink:href="#DejaVuSans-30" x="63.623047"/>
       <use xlink:href="#DejaVuSans-6b" x="127.246094"/>
      </g>
     </g>
    </g>
    <g id="ytick_7">
     <g id="line2d_75">
      <path d="M 48.329375 150.128659 
L 951.173375 150.128659 
" clip-path="url(#p417969f5bd)" style="fill: none; stroke: #ffffff; stroke-width: 0.8; stroke-linecap: square"/>
     </g>
     <g id="line2d_76">
      <g>
       <use xlink:href="#m6a3399219a" x="48.329375" y="150.128659" style="fill: #555555; stroke: #555555; stroke-width: 0.8"/>
      </g>
     </g>
     <g id="text_39">
      <!-- 60k -->
      <g style="fill: #555555" transform="translate(22.81375 153.927878)scale(0.1 -0.1)">
       <use xlink:href="#DejaVuSans-36"/>
       <use xlink:href="#DejaVuSans-30" x="63.623047"/>
       <use xlink:href="#DejaVuSans-6b" x="127.246094"/>
      </g>
     </g>
    </g>
    <g id="ytick_8">
     <g id="line2d_77">
      <path d="M 48.329375 80.526477 
L 951.173375 80.526477 
" clip-path="url(#p417969f5bd)" style="fill: none; stroke: #ffffff; stroke-width: 0.8; stroke-linecap: square"/>
     </g>
     <g id="line2d_78">
      <g>
       <use xlink:href="#m6a3399219a" x="48.329375" y="80.526477" style="fill: #555555; stroke: #555555; stroke-width: 0.8"/>
      </g>
     </g>
     <g id="text_40">
      <!-- 70k -->
      <g style="fill: #555555" transform="translate(22.81375 84.325696)scale(0.1 -0.1)">
       <use xlink:href="#DejaVuSans-37"/>
       <use xlink:href="#DejaVuSans-30" x="63.623047"/>
       <use xlink:href="#DejaVuSans-6b" x="127.246094"/>
      </g>
     </g>
    </g>
    <g id="text_41">
     <!-- Instances -->
     <g style="fill: #555555" transform="translate(16.318125 324.588)rotate(-90)scale(0.12 -0.12)">
      <defs>
       <path id="DejaVuSans-49" d="M 628 4666 
L 1259 4666 
L 1259 0 
L 628 0 
L 628 4666 
z
" transform="scale(0.015625)"/>
       <path id="DejaVuSans-6e" d="M 3513 2113 
L 3513 0 
L 2938 0 
L 2938 2094 
Q 2938 2591 2744 2837 
Q 2550 3084 2163 3084 
Q 1697 3084 1428 2787 
Q 1159 2491 1159 1978 
L 1159 0 
L 581 0 
L 581 3500 
L 1159 3500 
L 1159 2956 
Q 1366 3272 1645 3428 
Q 1925 3584 2291 3584 
Q 2894 3584 3203 3211 
Q 3513 2838 3513 2113 
z
" transform="scale(0.015625)"/>
       <path id="DejaVuSans-73" d="M 2834 3397 
L 2834 2853 
Q 2591 2978 2328 3040 
Q 2066 3103 1784 3103 
Q 1356 3103 1142 2972 
Q 928 2841 928 2578 
Q 928 2378 1081 2264 
Q 1234 2150 1697 2047 
L 1894 2003 
Q 2506 1872 2764 1633 
Q 3022 1394 3022 966 
Q 3022 478 2636 193 
Q 2250 -91 1575 -91 
Q 1294 -91 989 -36 
Q 684 19 347 128 
L 347 722 
Q 666 556 975 473 
Q 1284 391 1588 391 
Q 1994 391 2212 530 
Q 2431 669 2431 922 
Q 2431 1156 2273 1281 
Q 2116 1406 1581 1522 
L 1381 1569 
Q 847 1681 609 1914 
Q 372 2147 372 2553 
Q 372 3047 722 3315 
Q 1072 3584 1716 3584 
Q 2034 3584 2315 3537 
Q 2597 3491 2834 3397 
z
" transform="scale(0.015625)"/>
       <path id="DejaVuSans-63" d="M 3122 3366 
L 3122 2828 
Q 2878 2963 2633 3030 
Q 2388 3097 2138 3097 
Q 1578 3097 1268 2742 
Q 959 2388 959 1747 
Q 959 1106 1268 751 
Q 1578 397 2138 397 
Q 2388 397 2633 464 
Q 2878 531 3122 666 
L 3122 134 
Q 2881 22 2623 -34 
Q 2366 -91 2075 -91 
Q 1284 -91 818 406 
Q 353 903 353 1747 
Q 353 2603 823 3093 
Q 1294 3584 2113 3584 
Q 2378 3584 2631 3529 
Q 2884 3475 3122 3366 
z
" transform="scale(0.015625)"/>
      </defs>
      <use xlink:href="#DejaVuSans-49"/>
      <use xlink:href="#DejaVuSans-6e" x="29.492188"/>
      <use xlink:href="#DejaVuSans-73" x="92.871094"/>
      <use xlink:href="#DejaVuSans-74" x="144.970703"/>
      <use xlink:href="#DejaVuSans-61" x="184.179688"/>
      <use xlink:href="#DejaVuSans-6e" x="245.458984"/>
      <use xlink:href="#DejaVuSans-63" x="308.837891"/>
      <use xlink:href="#DejaVuSans-65" x="363.818359"/>
      <use xlink:href="#DejaVuSans-73" x="425.341797"/>
     </g>
    </g>
   </g>
   <g id="PolyCollection_1">
    <path d="M 48.329375 567.74175 
L 48.329375 567.74175 
L 54.388731 567.74175 
L 60.448086 567.74175 
L 66.507442 567.74175 
L 72.566798 567.74175 
L 78.626154 567.74175 
L 84.685509 567.74175 
L 90.744865 567.74175 
L 96.804221 567.74175 
L 102.863576 567.74175 
L 108.922932 567.74175 
L 114.982288 567.74175 
L 121.041643 567.74175 
L 127.100999 567.74175 
L 133.160355 567.74175 
L 139.219711 567.74175 
L 145.279066 567.74175 
L 151.338422 567.74175 
L 157.397778 567.74175 
L 163.457133 567.74175 
L 169.516489 567.74175 
L 175.575845 567.74175 
L 181.635201 567.74175 
L 187.694556 567.74175 
L 193.753912 567.74175 
L 199.813268 567.74175 
L 205.872623 567.74175 
L 211.931979 567.74175 
L 217.991335 567.74175 
L 224.05069 567.74175 
L 230.110046 567.74175 
L 236.169402 567.74175 
L 242.228758 567.74175 
L 248.288113 567.74175 
L 254.347469 567.74175 
L 260.406825 567.74175 
L 266.46618 567.74175 
L 272.525536 567.74175 
L 278.584892 567.74175 
L 284.644247 567.74175 
L 290.703603 567.74175 
L 296.762959 567.74175 
L 302.822315 567.74175 
L 308.88167 567.74175 
L 314.941026 567.74175 
L 321.000382 567.74175 
L 327.059737 567.74175 
L 333.119093 567.74175 
L 339.178449 567.74175 
L 345.237805 567.74175 
L 351.29716 567.74175 
L 357.356516 567.74175 
L 363.415872 567.74175 
L 369.475227 567.74175 
L 375.534583 567.74175 
L 381.593939 567.74175 
L 387.653294 567.74175 
L 393.71265 567.74175 
L 399.772006 567.74175 
L 405.831362 567.74175 
L 411.890717 567.74175 
L 417.950073 567.74175 
L 424.009429 567.74175 
L 430.068784 567.74175 
L 436.12814 567.74175 
L 442.187496 567.74175 
L 448.246852 567.74175 
L 454.306207 567.74175 
L 460.365563 567.74175 
L 466.424919 567.74175 
L 472.484274 567.74175 
L 478.54363 567.74175 
L 484.602986 567.74175 
L 490.662341 567.74175 
L 496.721697 567.74175 
L 502.781053 567.74175 
L 508.840409 567.74175 
L 514.899764 567.74175 
L 520.95912 567.74175 
L 527.018476 567.74175 
L 533.077831 567.74175 
L 539.137187 567.74175 
L 545.196543 567.74175 
L 551.255898 567.74175 
L 557.315254 567.74175 
L 563.37461 567.74175 
L 569.433966 567.74175 
L 575.493321 567.74175 
L 581.552677 567.74175 
L 587.612033 567.74175 
L 593.671388 567.74175 
L 599.730744 567.74175 
L 605.7901 567.74175 
L 611.849456 567.74175 
L 617.908811 567.74175 
L 623.968167 567.74175 
L 630.027523 567.74175 
L 636.086878 567.74175 
L 642.146234 567.74175 
L 648.20559 567.74175 
L 654.264945 567.74175 
L 660.324301 567.74175 
L 666.383657 567.74175 
L 672.443013 567.74175 
L 678.502368 567.74175 
L 684.561724 567.74175 
L 690.62108 567.74175 
L 696.680435 567.74175 
L 702.739791 567.74175 
L 708.799147 567.74175 
L 714.858503 567.74175 
L 720.917858 567.74175 
L 726.977214 567.74175 
L 733.03657 567.74175 
L 739.095925 567.74175 
L 745.155281 567.74175 
L 751.214637 567.74175 
L 757.273992 567.74175 
L 763.333348 567.74175 
L 769.392704 567.74175 
L 775.45206 567.74175 
L 781.511415 567.74175 
L 787.570771 567.74175 
L 793.630127 567.74175 
L 799.689482 567.74175 
L 805.748838 567.74175 
L 811.808194 567.74175 
L 817.867549 567.74175 
L 823.926905 567.74175 
L 829.986261 567.74175 
L 848.164328 567.74175 
L 854.223684 567.74175 
L 860.283039 567.74175 
L 866.342395 567.74175 
L 872.401751 567.74175 
L 878.461107 567.74175 
L 884.520462 567.74175 
L 890.579818 567.74175 
L 896.639174 567.74175 
L 902.698529 567.74175 
L 908.757885 567.74175 
L 914.817241 567.74175 
L 920.876596 567.74175 
L 926.935952 567.74175 
L 932.995308 567.74175 
L 939.054664 567.74175 
L 945.114019 567.74175 
L 951.173375 567.74175 
L 951.173375 555.352562 
L 951.173375 555.352562 
L 945.114019 556.779406 
L 939.054664 555.345601 
L 932.995308 555.450005 
L 926.935952 555.749294 
L 920.876596 554.781824 
L 914.817241 553.104411 
L 908.757885 555.547448 
L 902.698529 555.143755 
L 896.639174 549.972313 
L 890.579818 555.540488 
L 884.520462 557.900001 
L 878.461107 556.89077 
L 872.401751 555.721453 
L 866.342395 557.760797 
L 860.283039 557.809519 
L 854.223684 556.779406 
L 848.164328 559.939345 
L 829.986261 557.774718 
L 823.926905 557.398866 
L 817.867549 558.352416 
L 811.808194 558.728267 
L 805.748838 557.287502 
L 799.689482 558.776989 
L 793.630127 557.997445 
L 787.570771 560.551845 
L 781.511415 558.241052 
L 775.45206 558.408097 
L 769.392704 557.886081 
L 763.333348 559.104119 
L 757.273992 557.712076 
L 751.214637 558.616904 
L 745.155281 558.874432 
L 739.095925 559.125 
L 733.03657 557.53807 
L 726.977214 559.660937 
L 720.917858 557.461508 
L 714.858503 557.586792 
L 708.799147 557.614633 
L 702.739791 556.480117 
L 696.680435 557.148298 
L 690.62108 557.816479 
L 684.561724 559.173721 
L 678.502368 559.201562 
L 672.443013 559.862783 
L 666.383657 558.783949 
L 660.324301 559.681817 
L 654.264945 559.43821 
L 648.20559 560.008948 
L 642.146234 560.934657 
L 636.086878 559.918465 
L 630.027523 560.489203 
L 623.968167 557.649434 
L 617.908811 561.435792 
L 611.849456 561.644599 
L 605.7901 561.066901 
L 599.730744 560.830253 
L 593.671388 560.572725 
L 587.612033 560.614487 
L 581.552677 560.71889 
L 575.493321 560.231675 
L 569.433966 560.781532 
L 563.37461 560.614487 
L 557.315254 560.370879 
L 551.255898 559.389488 
L 545.196543 559.055398 
L 539.137187 562.187496 
L 533.077831 561.05298 
L 527.018476 560.287356 
L 520.95912 560.774572 
L 514.899764 560.906816 
L 508.840409 560.920736 
L 502.781053 560.162072 
L 496.721697 560.461362 
L 490.662341 561.449713 
L 484.602986 562.00653 
L 478.54363 561.540196 
L 472.484274 560.287356 
L 466.424919 561.595877 
L 460.365563 560.670168 
L 454.306207 561.185224 
L 448.246852 560.614487 
L 442.187496 562.368462 
L 436.12814 561.505395 
L 430.068784 561.407951 
L 424.009429 561.902127 
L 417.950073 562.820876 
L 411.890717 563.489057 
L 405.831362 562.472865 
L 399.772006 561.811644 
L 393.71265 561.505395 
L 387.653294 561.929968 
L 381.593939 562.173575 
L 375.534583 564.157238 
L 369.475227 562.96008 
L 363.415872 562.563348 
L 357.356516 561.964769 
L 351.29716 562.716472 
L 345.237805 562.96704 
L 339.178449 563.175847 
L 333.119093 562.758234 
L 327.059737 561.867326 
L 321.000382 561.101702 
L 314.941026 561.581957 
L 308.88167 561.380111 
L 302.822315 561.616758 
L 296.762959 561.533235 
L 290.703603 562.63991 
L 284.644247 562.556387 
L 278.584892 562.215337 
L 272.525536 562.417183 
L 266.46618 562.709512 
L 260.406825 563.732664 
L 254.347469 564.505249 
L 248.288113 563.391614 
L 242.228758 563.753545 
L 236.169402 563.802267 
L 230.110046 563.238489 
L 224.05069 563.983232 
L 217.991335 563.90667 
L 211.931979 563.788346 
L 205.872623 564.178118 
L 199.813268 563.816187 
L 193.753912 564.164198 
L 187.694556 564.373004 
L 181.635201 563.92059 
L 175.575845 564.797578 
L 169.516489 564.651413 
L 163.457133 564.505249 
L 157.397778 564.86718 
L 151.338422 564.588771 
L 145.279066 563.962352 
L 139.219711 564.505249 
L 133.160355 563.976272 
L 127.100999 552.185662 
L 121.041643 562.076132 
L 114.982288 563.328972 
L 108.922932 564.741896 
L 102.863576 566.064337 
L 96.804221 565.639764 
L 90.744865 565.354395 
L 84.685509 566.440189 
L 78.626154 565.730247 
L 72.566798 565.368316 
L 66.507442 565.765048 
L 60.448086 566.871723 
L 54.388731 567.74175 
L 48.329375 567.74175 
z
" clip-path="url(#p417969f5bd)" style="fill: #e24a33"/>
   </g>
   <g id="PolyCollection_2">
    <path d="M 48.329375 567.73479 
L 48.329375 567.74175 
L 54.388731 567.74175 
L 60.448086 566.871723 
L 66.507442 565.765048 
L 72.566798 565.368316 
L 78.626154 565.730247 
L 84.685509 566.440189 
L 90.744865 565.354395 
L 96.804221 565.639764 
L 102.863576 566.064337 
L 108.922932 564.741896 
L 114.982288 563.328972 
L 121.041643 562.076132 
L 127.100999 552.185662 
L 133.160355 563.976272 
L 139.219711 564.505249 
L 145.279066 563.962352 
L 151.338422 564.588771 
L 157.397778 564.86718 
L 163.457133 564.505249 
L 169.516489 564.651413 
L 175.575845 564.797578 
L 181.635201 563.92059 
L 187.694556 564.373004 
L 193.753912 564.164198 
L 199.813268 563.816187 
L 205.872623 564.178118 
L 211.931979 563.788346 
L 217.991335 563.90667 
L 224.05069 563.983232 
L 230.110046 563.238489 
L 236.169402 563.802267 
L 242.228758 563.753545 
L 248.288113 563.391614 
L 254.347469 564.505249 
L 260.406825 563.732664 
L 266.46618 562.709512 
L 272.525536 562.417183 
L 278.584892 562.215337 
L 284.644247 562.556387 
L 290.703603 562.63991 
L 296.762959 561.533235 
L 302.822315 561.616758 
L 308.88167 561.380111 
L 314.941026 561.581957 
L 321.000382 561.101702 
L 327.059737 561.867326 
L 333.119093 562.758234 
L 339.178449 563.175847 
L 345.237805 562.96704 
L 351.29716 562.716472 
L 357.356516 561.964769 
L 363.415872 562.563348 
L 369.475227 562.96008 
L 375.534583 564.157238 
L 381.593939 562.173575 
L 387.653294 561.929968 
L 393.71265 561.505395 
L 399.772006 561.811644 
L 405.831362 562.472865 
L 411.890717 563.489057 
L 417.950073 562.820876 
L 424.009429 561.902127 
L 430.068784 561.407951 
L 436.12814 561.505395 
L 442.187496 562.368462 
L 448.246852 560.614487 
L 454.306207 561.185224 
L 460.365563 560.670168 
L 466.424919 561.595877 
L 472.484274 560.287356 
L 478.54363 561.540196 
L 484.602986 562.00653 
L 490.662341 561.449713 
L 496.721697 560.461362 
L 502.781053 560.162072 
L 508.840409 560.920736 
L 514.899764 560.906816 
L 520.95912 560.774572 
L 527.018476 560.287356 
L 533.077831 561.05298 
L 539.137187 562.187496 
L 545.196543 559.055398 
L 551.255898 559.389488 
L 557.315254 560.370879 
L 563.37461 560.614487 
L 569.433966 560.781532 
L 575.493321 560.231675 
L 581.552677 560.71889 
L 587.612033 560.614487 
L 593.671388 560.572725 
L 599.730744 560.830253 
L 605.7901 561.066901 
L 611.849456 561.644599 
L 617.908811 561.435792 
L 623.968167 557.649434 
L 630.027523 560.489203 
L 636.086878 559.918465 
L 642.146234 560.934657 
L 648.20559 560.008948 
L 654.264945 559.43821 
L 660.324301 559.681817 
L 666.383657 558.783949 
L 672.443013 559.862783 
L 678.502368 559.201562 
L 684.561724 559.173721 
L 690.62108 557.816479 
L 696.680435 557.148298 
L 702.739791 556.480117 
L 708.799147 557.614633 
L 714.858503 557.586792 
L 720.917858 557.461508 
L 726.977214 559.660937 
L 733.03657 557.53807 
L 739.095925 559.125 
L 745.155281 558.874432 
L 751.214637 558.616904 
L 757.273992 557.712076 
L 763.333348 559.104119 
L 769.392704 557.886081 
L 775.45206 558.408097 
L 781.511415 558.241052 
L 787.570771 560.551845 
L 793.630127 557.997445 
L 799.689482 558.776989 
L 805.748838 557.287502 
L 811.808194 558.728267 
L 817.867549 558.352416 
L 823.926905 557.398866 
L 829.986261 557.774718 
L 848.164328 559.939345 
L 854.223684 556.779406 
L 860.283039 557.809519 
L 866.342395 557.760797 
L 872.401751 555.721453 
L 878.461107 556.89077 
L 884.520462 557.900001 
L 890.579818 555.540488 
L 896.639174 549.972313 
L 902.698529 555.143755 
L 908.757885 555.547448 
L 914.817241 553.104411 
L 920.876596 554.781824 
L 926.935952 555.749294 
L 932.995308 555.450005 
L 939.054664 555.345601 
L 945.114019 556.779406 
L 951.173375 555.352562 
L 951.173375 528.785409 
L 951.173375 528.785409 
L 945.114019 528.451318 
L 939.054664 529.564953 
L 932.995308 529.516232 
L 926.935952 531.395491 
L 920.876596 527.010553 
L 914.817241 523.252035 
L 908.757885 528.068506 
L 902.698529 526.328452 
L 896.639174 515.40787 
L 890.579818 529.321346 
L 884.520462 531.715661 
L 878.461107 530.713389 
L 872.401751 526.864389 
L 866.342395 531.311968 
L 860.283039 528.82021 
L 854.223684 532.195916 
L 848.164328 533.156426 
L 829.986261 534.339663 
L 823.926905 534.527589 
L 817.867549 537.952016 
L 811.808194 537.137671 
L 805.748838 535.230571 
L 799.689482 535.077446 
L 793.630127 535.223611 
L 787.570771 539.462384 
L 781.511415 533.372193 
L 775.45206 536.281564 
L 769.392704 536.044916 
L 763.333348 538.007698 
L 757.273992 531.611257 
L 751.214637 535.174889 
L 745.155281 536.692217 
L 739.095925 536.775739 
L 733.03657 535.341934 
L 726.977214 541.536529 
L 720.917858 537.10287 
L 714.858503 535.160969 
L 708.799147 535.968354 
L 702.739791 531.966229 
L 696.680435 532.64137 
L 690.62108 535.293213 
L 684.561724 533.845487 
L 678.502368 529.342226 
L 672.443013 534.492788 
L 666.383657 530.490662 
L 660.324301 535.592502 
L 654.264945 536.406848 
L 648.20559 539.100452 
L 642.146234 541.153717 
L 636.086878 540.756984 
L 630.027523 542.114227 
L 623.968167 534.812958 
L 617.908811 542.169908 
L 611.849456 544.042207 
L 605.7901 544.571184 
L 599.730744 540.596899 
L 593.671388 541.995903 
L 587.612033 542.100306 
L 581.552677 544.12573 
L 575.493321 542.636243 
L 569.433966 543.520191 
L 563.37461 541.529568 
L 557.315254 541.57829 
L 551.255898 543.081697 
L 545.196543 540.283689 
L 539.137187 545.984108 
L 533.077831 546.178994 
L 527.018476 543.861241 
L 520.95912 544.814791 
L 514.899764 545.302007 
L 508.840409 543.882122 
L 502.781053 543.798599 
L 496.721697 545.705699 
L 490.662341 545.942347 
L 484.602986 547.403992 
L 478.54363 548.990922 
L 472.484274 546.262517 
L 466.424919 547.64064 
L 460.365563 546.742772 
L 454.306207 548.051293 
L 448.246852 545.7405 
L 442.187496 547.571038 
L 436.12814 548.141776 
L 430.068784 548.566349 
L 424.009429 549.387655 
L 417.950073 550.271602 
L 411.890717 552.944326 
L 405.831362 550.918903 
L 399.772006 549.512939 
L 393.71265 548.642911 
L 387.653294 550.348165 
L 381.593939 551.16251 
L 375.534583 554.559097 
L 369.475227 550.271602 
L 363.415872 551.002425 
L 357.356516 549.192769 
L 351.29716 550.675295 
L 345.237805 550.772738 
L 339.178449 551.809811 
L 333.119093 551.092908 
L 327.059737 550.334244 
L 321.000382 550.062796 
L 314.941026 551.211232 
L 308.88167 550.021035 
L 302.822315 548.886519 
L 296.762959 550.536091 
L 290.703603 551.413078 
L 284.644247 552.42231 
L 278.584892 552.317907 
L 272.525536 553.744751 
L 266.46618 553.146172 
L 260.406825 554.32941 
L 254.347469 554.294608 
L 248.288113 554.155404 
L 242.228758 555.637931 
L 236.169402 555.032392 
L 230.110046 555.505686 
L 224.05069 557.266622 
L 217.991335 558.846591 
L 211.931979 556.786367 
L 205.872623 555.93026 
L 199.813268 555.477846 
L 193.753912 555.519607 
L 187.694556 556.25739 
L 181.635201 556.800287 
L 175.575845 556.299151 
L 169.516489 558.136649 
L 163.457133 557.252701 
L 157.397778 557.628553 
L 151.338422 556.862929 
L 145.279066 556.292191 
L 139.219711 558.582103 
L 133.160355 557.579831 
L 127.100999 546.185954 
L 121.041643 556.946452 
L 114.982288 557.830399 
L 108.922932 559.278125 
L 102.863576 562.229257 
L 96.804221 563.5865 
L 90.744865 563.154966 
L 84.685509 562.354541 
L 78.626154 560.614487 
L 72.566798 559.243324 
L 66.507442 559.570454 
L 60.448086 562.883518 
L 54.388731 567.73479 
L 48.329375 567.73479 
z
" clip-path="url(#p417969f5bd)" style="fill: #348abd"/>
   </g>
   <g id="PolyCollection_3">
    <path d="M 48.329375 567.720869 
L 48.329375 567.73479 
L 54.388731 567.73479 
L 60.448086 562.883518 
L 66.507442 559.570454 
L 72.566798 559.243324 
L 78.626154 560.614487 
L 84.685509 562.354541 
L 90.744865 563.154966 
L 96.804221 563.5865 
L 102.863576 562.229257 
L 108.922932 559.278125 
L 114.982288 557.830399 
L 121.041643 556.946452 
L 127.100999 546.185954 
L 133.160355 557.579831 
L 139.219711 558.582103 
L 145.279066 556.292191 
L 151.338422 556.862929 
L 157.397778 557.628553 
L 163.457133 557.252701 
L 169.516489 558.136649 
L 175.575845 556.299151 
L 181.635201 556.800287 
L 187.694556 556.25739 
L 193.753912 555.519607 
L 199.813268 555.477846 
L 205.872623 555.93026 
L 211.931979 556.786367 
L 217.991335 558.846591 
L 224.05069 557.266622 
L 230.110046 555.505686 
L 236.169402 555.032392 
L 242.228758 555.637931 
L 248.288113 554.155404 
L 254.347469 554.294608 
L 260.406825 554.32941 
L 266.46618 553.146172 
L 272.525536 553.744751 
L 278.584892 552.317907 
L 284.644247 552.42231 
L 290.703603 551.413078 
L 296.762959 550.536091 
L 302.822315 548.886519 
L 308.88167 550.021035 
L 314.941026 551.211232 
L 321.000382 550.062796 
L 327.059737 550.334244 
L 333.119093 551.092908 
L 339.178449 551.809811 
L 345.237805 550.772738 
L 351.29716 550.675295 
L 357.356516 549.192769 
L 363.415872 551.002425 
L 369.475227 550.271602 
L 375.534583 554.559097 
L 381.593939 551.16251 
L 387.653294 550.348165 
L 393.71265 548.642911 
L 399.772006 549.512939 
L 405.831362 550.918903 
L 411.890717 552.944326 
L 417.950073 550.271602 
L 424.009429 549.387655 
L 430.068784 548.566349 
L 436.12814 548.141776 
L 442.187496 547.571038 
L 448.246852 545.7405 
L 454.306207 548.051293 
L 460.365563 546.742772 
L 466.424919 547.64064 
L 472.484274 546.262517 
L 478.54363 548.990922 
L 484.602986 547.403992 
L 490.662341 545.942347 
L 496.721697 545.705699 
L 502.781053 543.798599 
L 508.840409 543.882122 
L 514.899764 545.302007 
L 520.95912 544.814791 
L 527.018476 543.861241 
L 533.077831 546.178994 
L 539.137187 545.984108 
L 545.196543 540.283689 
L 551.255898 543.081697 
L 557.315254 541.57829 
L 563.37461 541.529568 
L 569.433966 543.520191 
L 575.493321 542.636243 
L 581.552677 544.12573 
L 587.612033 542.100306 
L 593.671388 541.995903 
L 599.730744 540.596899 
L 605.7901 544.571184 
L 611.849456 544.042207 
L 617.908811 542.169908 
L 623.968167 534.812958 
L 630.027523 542.114227 
L 636.086878 540.756984 
L 642.146234 541.153717 
L 648.20559 539.100452 
L 654.264945 536.406848 
L 660.324301 535.592502 
L 666.383657 530.490662 
L 672.443013 534.492788 
L 678.502368 529.342226 
L 684.561724 533.845487 
L 690.62108 535.293213 
L 696.680435 532.64137 
L 702.739791 531.966229 
L 708.799147 535.968354 
L 714.858503 535.160969 
L 720.917858 537.10287 
L 726.977214 541.536529 
L 733.03657 535.341934 
L 739.095925 536.775739 
L 745.155281 536.692217 
L 751.214637 535.174889 
L 757.273992 531.611257 
L 763.333348 538.007698 
L 769.392704 536.044916 
L 775.45206 536.281564 
L 781.511415 533.372193 
L 787.570771 539.462384 
L 793.630127 535.223611 
L 799.689482 535.077446 
L 805.748838 535.230571 
L 811.808194 537.137671 
L 817.867549 537.952016 
L 823.926905 534.527589 
L 829.986261 534.339663 
L 848.164328 533.156426 
L 854.223684 532.195916 
L 860.283039 528.82021 
L 866.342395 531.311968 
L 872.401751 526.864389 
L 878.461107 530.713389 
L 884.520462 531.715661 
L 890.579818 529.321346 
L 896.639174 515.40787 
L 902.698529 526.328452 
L 908.757885 528.068506 
L 914.817241 523.252035 
L 920.876596 527.010553 
L 926.935952 531.395491 
L 932.995308 529.516232 
L 939.054664 529.564953 
L 945.114019 528.451318 
L 951.173375 528.785409 
L 951.173375 109.745473 
L 951.173375 109.745473 
L 945.114019 85.06454 
L 939.054664 70.162713 
L 932.995308 88.642092 
L 926.935952 109.188656 
L 920.876596 118.083815 
L 914.817241 129.533374 
L 908.757885 119.287933 
L 902.698529 63.842834 
L 896.639174 24.14175 
L 890.579818 123.651989 
L 884.520462 65.30448 
L 878.461107 135.018026 
L 872.401751 80.59608 
L 866.342395 146.704232 
L 860.283039 152.968428 
L 854.223684 207.195488 
L 848.164328 255.527243 
L 829.986261 247.474271 
L 823.926905 256.961048 
L 817.867549 310.123195 
L 811.808194 316.916367 
L 805.748838 320.285113 
L 799.689482 314.361967 
L 793.630127 320.869771 
L 787.570771 329.973737 
L 781.511415 326.57019 
L 775.45206 317.118214 
L 769.392704 279.35903 
L 763.333348 342.536931 
L 757.273992 326.681554 
L 751.214637 316.129863 
L 745.155281 348.376554 
L 739.095925 368.213175 
L 733.03657 381.12438 
L 726.977214 412.013828 
L 720.917858 376.488875 
L 714.858503 364.190169 
L 708.799147 377.477226 
L 702.739791 370.955501 
L 696.680435 392.734024 
L 690.62108 367.746841 
L 684.561724 365.359486 
L 678.502368 374.031918 
L 672.443013 381.848243 
L 666.383657 402.520091 
L 660.324301 420.185125 
L 654.264945 412.793373 
L 648.20559 393.047234 
L 642.146234 379.579212 
L 636.086878 400.070094 
L 630.027523 396.409019 
L 623.968167 405.700911 
L 617.908811 422.57944 
L 611.849456 444.580689 
L 605.7901 417.039106 
L 599.730744 409.257582 
L 593.671388 431.53028 
L 587.612033 419.266376 
L 581.552677 427.521195 
L 575.493321 429.149886 
L 569.433966 414.839677 
L 563.37461 431.989655 
L 557.315254 452.5919 
L 551.255898 417.658565 
L 545.196543 438.107686 
L 539.137187 456.051129 
L 533.077831 455.967606 
L 527.018476 444.956541 
L 520.95912 465.503105 
L 514.899764 454.331955 
L 508.840409 461.674985 
L 502.781053 460.902401 
L 496.721697 465.475264 
L 490.662341 463.463761 
L 484.602986 480.732063 
L 478.54363 462.990466 
L 472.484274 447.963355 
L 466.424919 449.181394 
L 460.365563 446.348585 
L 454.306207 461.549701 
L 448.246852 491.958894 
L 442.187496 494.290568 
L 436.12814 265.93973 
L 430.068784 114.708109 
L 424.009429 243.158935 
L 417.950073 366.862893 
L 411.890717 399.798646 
L 405.831362 381.145261 
L 399.772006 335.026855 
L 393.71265 347.652691 
L 387.653294 341.353694 
L 381.593939 371.352234 
L 375.534583 415.786267 
L 369.475227 341.430256 
L 363.415872 312.559271 
L 357.356516 357.654524 
L 351.29716 402.708017 
L 345.237805 402.074637 
L 339.178449 412.020789 
L 333.119093 407.809857 
L 327.059737 431.82957 
L 321.000382 335.319184 
L 314.941026 469.915883 
L 308.88167 461.695866 
L 302.822315 468.001823 
L 296.762959 482.618282 
L 290.703603 500.227634 
L 284.644247 490.907902 
L 278.584892 490.170118 
L 272.525536 498.654624 
L 266.46618 506.909443 
L 260.406825 510.403473 
L 254.347469 516.792953 
L 248.288113 523.961978 
L 242.228758 503.812146 
L 236.169402 514.544802 
L 230.110046 515.783721 
L 224.05069 515.72804 
L 217.991335 521.017805 
L 211.931979 484.956915 
L 205.872623 508.155322 
L 199.813268 513.333724 
L 193.753912 526.523338 
L 187.694556 537.875454 
L 181.635201 526.801747 
L 175.575845 531.207565 
L 169.516489 540.144485 
L 163.457133 536.622615 
L 157.397778 535.884831 
L 151.338422 537.527443 
L 145.279066 533.316511 
L 139.219711 542.260391 
L 133.160355 538.829004 
L 127.100999 529.488391 
L 121.041643 543.262663 
L 114.982288 535.028725 
L 108.922932 537.931136 
L 102.863576 546.645329 
L 96.804221 549.352854 
L 90.744865 550.369045 
L 84.685509 546.805414 
L 78.626154 541.501727 
L 72.566798 537.075029 
L 66.507442 539.156134 
L 60.448086 556.480117 
L 54.388731 567.706949 
L 48.329375 567.720869 
z
" clip-path="url(#p417969f5bd)" style="fill: #988ed5"/>
   </g>
   <g id="patch_3">
    <path d="M 48.329375 567.74175 
L 48.329375 24.14175 
" style="fill: none; stroke: #ffffff; stroke-linejoin: miter; stroke-linecap: square"/>
   </g>
   <g id="patch_4">
    <path d="M 951.173375 567.74175 
L 951.173375 24.14175 
" style="fill: none; stroke: #ffffff; stroke-linejoin: miter; stroke-linecap: square"/>
   </g>
   <g id="patch_5">
    <path d="M 48.329375 567.74175 
L 951.173375 567.74175 
" style="fill: none; stroke: #ffffff; stroke-linejoin: miter; stroke-linecap: square"/>
   </g>
   <g id="patch_6">
    <path d="M 48.329375 24.14175 
L 951.173375 24.14175 
" style="fill: none; stroke: #ffffff; stroke-linejoin: miter; stroke-linecap: square"/>
   </g>
   <g id="text_42">
    <!-- AltArch Enterprise Linux 8 and 9 Instances by Architecture -->
    <g transform="translate(289.02875 18.14175)scale(0.144 -0.144)">
     <defs>
      <path id="DejaVuSans-41" d="M 2188 4044 
L 1331 1722 
L 3047 1722 
L 2188 4044 
z
M 1831 4666 
L 2547 4666 
L 4325 0 
L 3669 0 
L 3244 1197 
L 1141 1197 
L 716 0 
L 50 0 
L 1831 4666 
z
" transform="scale(0.015625)"/>
      <path id="DejaVuSans-6c" d="M 603 4863 
L 1178 4863 
L 1178 0 
L 603 0 
L 603 4863 
z
" transform="scale(0.015625)"/>
      <path id="DejaVuSans-72" d="M 2631 2963 
Q 2534 3019 2420 3045 
Q 2306 3072 2169 3072 
Q 1681 3072 1420 2755 
Q 1159 2438 1159 1844 
L 1159 0 
L 581 0 
L 581 3500 
L 1159 3500 
L 1159 2956 
Q 1341 3275 1631 3429 
Q 1922 3584 2338 3584 
Q 2397 3584 2469 3576 
Q 2541 3569 2628 3553 
L 2631 2963 
z
" transform="scale(0.015625)"/>
      <path id="DejaVuSans-68" d="M 3513 2113 
L 3513 0 
L 2938 0 
L 2938 2094 
Q 2938 2591 2744 2837 
Q 2550 3084 2163 3084 
Q 1697 3084 1428 2787 
Q 1159 2491 1159 1978 
L 1159 0 
L 581 0 
L 581 4863 
L 1159 4863 
L 1159 2956 
Q 1366 3272 1645 3428 
Q 1925 3584 2291 3584 
Q 2894 3584 3203 3211 
Q 3513 2838 3513 2113 
z
" transform="scale(0.015625)"/>
      <path id="DejaVuSans-20" transform="scale(0.015625)"/>
      <path id="DejaVuSans-45" d="M 628 4666 
L 3578 4666 
L 3578 4134 
L 1259 4134 
L 1259 2753 
L 3481 2753 
L 3481 2222 
L 1259 2222 
L 1259 531 
L 3634 531 
L 3634 0 
L 628 0 
L 628 4666 
z
" transform="scale(0.015625)"/>
      <path id="DejaVuSans-70" d="M 1159 525 
L 1159 -1331 
L 581 -1331 
L 581 3500 
L 1159 3500 
L 1159 2969 
Q 1341 3281 1617 3432 
Q 1894 3584 2278 3584 
Q 2916 3584 3314 3078 
Q 3713 2572 3713 1747 
Q 3713 922 3314 415 
Q 2916 -91 2278 -91 
Q 1894 -91 1617 61 
Q 1341 213 1159 525 
z
M 3116 1747 
Q 3116 2381 2855 2742 
Q 2594 3103 2138 3103 
Q 1681 3103 1420 2742 
Q 1159 2381 1159 1747 
Q 1159 1113 1420 752 
Q 1681 391 2138 391 
Q 2594 391 2855 752 
Q 3116 1113 3116 1747 
z
" transform="scale(0.015625)"/>
      <path id="DejaVuSans-69" d="M 603 3500 
L 1178 3500 
L 1178 0 
L 603 0 
L 603 3500 
z
M 603 4863 
L 1178 4863 
L 1178 4134 
L 603 4134 
L 603 4863 
z
" transform="scale(0.015625)"/>
      <path id="DejaVuSans-4c" d="M 628 4666 
L 1259 4666 
L 1259 531 
L 3531 531 
L 3531 0 
L 628 0 
L 628 4666 
z
" transform="scale(0.015625)"/>
      <path id="DejaVuSans-75" d="M 544 1381 
L 544 3500 
L 1119 3500 
L 1119 1403 
Q 1119 906 1312 657 
Q 1506 409 1894 409 
Q 2359 409 2629 706 
Q 2900 1003 2900 1516 
L 2900 3500 
L 3475 3500 
L 3475 0 
L 2900 0 
L 2900 538 
Q 2691 219 2414 64 
Q 2138 -91 1772 -91 
Q 1169 -91 856 284 
Q 544 659 544 1381 
z
M 1991 3584 
L 1991 3584 
z
" transform="scale(0.015625)"/>
      <path id="DejaVuSans-78" d="M 3513 3500 
L 2247 1797 
L 3578 0 
L 2900 0 
L 1881 1375 
L 863 0 
L 184 0 
L 1544 1831 
L 300 3500 
L 978 3500 
L 1906 2253 
L 2834 3500 
L 3513 3500 
z
" transform="scale(0.015625)"/>
      <path id="DejaVuSans-64" d="M 2906 2969 
L 2906 4863 
L 3481 4863 
L 3481 0 
L 2906 0 
L 2906 525 
Q 2725 213 2448 61 
Q 2172 -91 1784 -91 
Q 1150 -91 751 415 
Q 353 922 353 1747 
Q 353 2572 751 3078 
Q 1150 3584 1784 3584 
Q 2172 3584 2448 3432 
Q 2725 3281 2906 2969 
z
M 947 1747 
Q 947 1113 1208 752 
Q 1469 391 1925 391 
Q 2381 391 2643 752 
Q 2906 1113 2906 1747 
Q 2906 2381 2643 2742 
Q 2381 3103 1925 3103 
Q 1469 3103 1208 2742 
Q 947 2381 947 1747 
z
" transform="scale(0.015625)"/>
      <path id="DejaVuSans-62" d="M 3116 1747 
Q 3116 2381 2855 2742 
Q 2594 3103 2138 3103 
Q 1681 3103 1420 2742 
Q 1159 2381 1159 1747 
Q 1159 1113 1420 752 
Q 1681 391 2138 391 
Q 2594 391 2855 752 
Q 3116 1113 3116 1747 
z
M 1159 2969 
Q 1341 3281 1617 3432 
Q 1894 3584 2278 3584 
Q 2916 3584 3314 3078 
Q 3713 2572 3713 1747 
Q 3713 922 3314 415 
Q 2916 -91 2278 -91 
Q 1894 -91 1617 61 
Q 1341 213 1159 525 
L 1159 0 
L 581 0 
L 581 4863 
L 1159 4863 
L 1159 2969 
z
" transform="scale(0.015625)"/>
      <path id="DejaVuSans-79" d="M 2059 -325 
Q 1816 -950 1584 -1140 
Q 1353 -1331 966 -1331 
L 506 -1331 
L 506 -850 
L 844 -850 
Q 1081 -850 1212 -737 
Q 1344 -625 1503 -206 
L 1606 56 
L 191 3500 
L 800 3500 
L 1894 763 
L 2988 3500 
L 3597 3500 
L 2059 -325 
z
" transform="scale(0.015625)"/>
     </defs>
     <use xlink:href="#DejaVuSans-41"/>
     <use xlink:href="#DejaVuSans-6c" x="68.408203"/>
     <use xlink:href="#DejaVuSans-74" x="96.191406"/>
     <use xlink:href="#DejaVuSans-41" x="135.400391"/>
     <use xlink:href="#DejaVuSans-72" x="203.808594"/>
     <use xlink:href="#DejaVuSans-63" x="242.671875"/>
     <use xlink:href="#DejaVuSans-68" x="297.652344"/>
     <use xlink:href="#DejaVuSans-20" x="361.03125"/>
     <use xlink:href="#DejaVuSans-45" x="392.818359"/>
     <use xlink:href="#DejaVuSans-6e" x="456.001953"/>
     <use xlink:href="#DejaVuSans-74" x="519.380859"/>
     <use xlink:href="#DejaVuSans-65" x="558.589844"/>
     <use xlink:href="#DejaVuSans-72" x="620.113281"/>
     <use xlink:href="#DejaVuSans-70" x="661.226562"/>
     <use xlink:href="#DejaVuSans-72" x="724.703125"/>
     <use xlink:href="#DejaVuSans-69" x="765.816406"/>
     <use xlink:href="#DejaVuSans-73" x="793.599609"/>
     <use xlink:href="#DejaVuSans-65" x="845.699219"/>
     <use xlink:href="#DejaVuSans-20" x="907.222656"/>
     <use xlink:href="#DejaVuSans-4c" x="939.009766"/>
     <use xlink:href="#DejaVuSans-69" x="994.722656"/>
     <use xlink:href="#DejaVuSans-6e" x="1022.505859"/>
     <use xlink:href="#DejaVuSans-75" x="1085.884766"/>
     <use xlink:href="#DejaVuSans-78" x="1149.263672"/>
     <use xlink:href="#DejaVuSans-20" x="1208.443359"/>
     <use xlink:href="#DejaVuSans-38" x="1240.230469"/>
     <use xlink:href="#DejaVuSans-20" x="1303.853516"/>
     <use xlink:href="#DejaVuSans-61" x="1335.640625"/>
     <use xlink:href="#DejaVuSans-6e" x="1396.919922"/>
     <use xlink:href="#DejaVuSans-64" x="1460.298828"/>
     <use xlink:href="#DejaVuSans-20" x="1523.775391"/>
     <use xlink:href="#DejaVuSans-39" x="1555.5625"/>
     <use xlink:href="#DejaVuSans-20" x="1619.185547"/>
     <use xlink:href="#DejaVuSans-49" x="1650.972656"/>
     <use xlink:href="#DejaVuSans-6e" x="1680.464844"/>
     <use xlink:href="#DejaVuSans-73" x="1743.84375"/>
     <use xlink:href="#DejaVuSans-74" x="1795.943359"/>
     <use xlink:href="#DejaVuSans-61" x="1835.152344"/>
     <use xlink:href="#DejaVuSans-6e" x="1896.431641"/>
     <use xlink:href="#DejaVuSans-63" x="1959.810547"/>
     <use xlink:href="#DejaVuSans-65" x="2014.791016"/>
     <use xlink:href="#DejaVuSans-73" x="2076.314453"/>
     <use xlink:href="#DejaVuSans-20" x="2128.414062"/>
     <use xlink:href="#DejaVuSans-62" x="2160.201172"/>
     <use xlink:href="#DejaVuSans-79" x="2223.677734"/>
     <use xlink:href="#DejaVuSans-20" x="2282.857422"/>
     <use xlink:href="#DejaVuSans-41" x="2314.644531"/>
     <use xlink:href="#DejaVuSans-72" x="2383.052734"/>
     <use xlink:href="#DejaVuSans-63" x="2421.916016"/>
     <use xlink:href="#DejaVuSans-68" x="2476.896484"/>
     <use xlink:href="#DejaVuSans-69" x="2540.275391"/>
     <use xlink:href="#DejaVuSans-74" x="2568.058594"/>
     <use xlink:href="#DejaVuSans-65" x="2607.267578"/>
     <use xlink:href="#DejaVuSans-63" x="2668.791016"/>
     <use xlink:href="#DejaVuSans-74" x="2723.771484"/>
     <use xlink:href="#DejaVuSans-75" x="2762.980469"/>
     <use xlink:href="#DejaVuSans-72" x="2826.359375"/>
     <use xlink:href="#DejaVuSans-65" x="2865.222656"/>
    </g>
   </g>
   <g id="legend_1">
    <g id="patch_7">
     <path d="M 55.329375 90.85425 
L 129.7325 90.85425 
Q 131.7325 90.85425 131.7325 88.85425 
L 131.7325 31.14175 
Q 131.7325 29.14175 129.7325 29.14175 
L 55.329375 29.14175 
Q 53.329375 29.14175 53.329375 31.14175 
L 53.329375 88.85425 
Q 53.329375 90.85425 55.329375 90.85425 
z
" style="fill: #e5e5e5; opacity: 0.8; stroke: #cccccc; stroke-width: 0.5; stroke-linejoin: miter"/>
    </g>
    <g id="text_43">
     <!-- Architecture -->
     <g transform="translate(61.92625 40.740187)scale(0.1 -0.1)">
      <use xlink:href="#DejaVuSans-41"/>
      <use xlink:href="#DejaVuSans-72" x="68.408203"/>
      <use xlink:href="#DejaVuSans-63" x="107.271484"/>
      <use xlink:href="#DejaVuSans-68" x="162.251953"/>
      <use xlink:href="#DejaVuSans-69" x="225.630859"/>
      <use xlink:href="#DejaVuSans-74" x="253.414062"/>
      <use xlink:href="#DejaVuSans-65" x="292.623047"/>
      <use xlink:href="#DejaVuSans-63" x="354.146484"/>
      <use xlink:href="#DejaVuSans-74" x="409.126953"/>
      <use xlink:href="#DejaVuSans-75" x="448.335938"/>
      <use xlink:href="#DejaVuSans-72" x="511.714844"/>
      <use xlink:href="#DejaVuSans-65" x="550.578125"/>
     </g>
    </g>
    <g id="patch_8">
     <path d="M 57.329375 55.418312 
L 77.329375 55.418312 
L 77.329375 48.418312 
L 57.329375 48.418312 
z
" style="fill: #e24a33"/>
    </g>
    <g id="text_44">
     <!-- S390x -->
     <g transform="translate(85.329375 55.418312)scale(0.1 -0.1)">
      <defs>
       <path id="DejaVuSans-53" d="M 3425 4513 
L 3425 3897 
Q 3066 4069 2747 4153 
Q 2428 4238 2131 4238 
Q 1616 4238 1336 4038 
Q 1056 3838 1056 3469 
Q 1056 3159 1242 3001 
Q 1428 2844 1947 2747 
L 2328 2669 
Q 3034 2534 3370 2195 
Q 3706 1856 3706 1288 
Q 3706 609 3251 259 
Q 2797 -91 1919 -91 
Q 1588 -91 1214 -16 
Q 841 59 441 206 
L 441 856 
Q 825 641 1194 531 
Q 1563 422 1919 422 
Q 2459 422 2753 634 
Q 3047 847 3047 1241 
Q 3047 1584 2836 1778 
Q 2625 1972 2144 2069 
L 1759 2144 
Q 1053 2284 737 2584 
Q 422 2884 422 3419 
Q 422 4038 858 4394 
Q 1294 4750 2059 4750 
Q 2388 4750 2728 4690 
Q 3069 4631 3425 4513 
z
" transform="scale(0.015625)"/>
      </defs>
      <use xlink:href="#DejaVuSans-53"/>
      <use xlink:href="#DejaVuSans-33" x="63.476562"/>
      <use xlink:href="#DejaVuSans-39" x="127.099609"/>
      <use xlink:href="#DejaVuSans-30" x="190.722656"/>
      <use xlink:href="#DejaVuSans-78" x="254.345703"/>
     </g>
    </g>
    <g id="patch_9">
     <path d="M 57.329375 70.096437 
L 77.329375 70.096437 
L 77.329375 63.096437 
L 57.329375 63.096437 
z
" style="fill: #348abd"/>
    </g>
    <g id="text_45">
     <!-- PPC64le -->
     <g transform="translate(85.329375 70.096437)scale(0.1 -0.1)">
      <defs>
       <path id="DejaVuSans-50" d="M 1259 4147 
L 1259 2394 
L 2053 2394 
Q 2494 2394 2734 2622 
Q 2975 2850 2975 3272 
Q 2975 3691 2734 3919 
Q 2494 4147 2053 4147 
L 1259 4147 
z
M 628 4666 
L 2053 4666 
Q 2838 4666 3239 4311 
Q 3641 3956 3641 3272 
Q 3641 2581 3239 2228 
Q 2838 1875 2053 1875 
L 1259 1875 
L 1259 0 
L 628 0 
L 628 4666 
z
" transform="scale(0.015625)"/>
       <path id="DejaVuSans-43" d="M 4122 4306 
L 4122 3641 
Q 3803 3938 3442 4084 
Q 3081 4231 2675 4231 
Q 1875 4231 1450 3742 
Q 1025 3253 1025 2328 
Q 1025 1406 1450 917 
Q 1875 428 2675 428 
Q 3081 428 3442 575 
Q 3803 722 4122 1019 
L 4122 359 
Q 3791 134 3420 21 
Q 3050 -91 2638 -91 
Q 1578 -91 968 557 
Q 359 1206 359 2328 
Q 359 3453 968 4101 
Q 1578 4750 2638 4750 
Q 3056 4750 3426 4639 
Q 3797 4528 4122 4306 
z
" transform="scale(0.015625)"/>
      </defs>
      <use xlink:href="#DejaVuSans-50"/>
      <use xlink:href="#DejaVuSans-50" x="60.302734"/>
      <use xlink:href="#DejaVuSans-43" x="120.605469"/>
      <use xlink:href="#DejaVuSans-36" x="190.429688"/>
      <use xlink:href="#DejaVuSans-34" x="254.052734"/>
      <use xlink:href="#DejaVuSans-6c" x="317.675781"/>
      <use xlink:href="#DejaVuSans-65" x="345.458984"/>
     </g>
    </g>
    <g id="patch_10">
     <path d="M 57.329375 84.774562 
L 77.329375 84.774562 
L 77.329375 77.774562 
L 57.329375 77.774562 
z
" style="fill: #988ed5"/>
    </g>
    <g id="text_46">
     <!-- AArch64 -->
     <g transform="translate(85.329375 84.774562)scale(0.1 -0.1)">
      <use xlink:href="#DejaVuSans-41"/>
      <use xlink:href="#DejaVuSans-41" x="71.158203"/>
      <use xlink:href="#DejaVuSans-72" x="139.566406"/>
      <use xlink:href="#DejaVuSans-63" x="178.429688"/>
      <use xlink:href="#DejaVuSans-68" x="233.410156"/>
      <use xlink:href="#DejaVuSans-36" x="296.789062"/>
      <use xlink:href="#DejaVuSans-34" x="360.412109"/>
     </g>
    </g>
   </g>
  </g>
 </g>
 <defs>
  <clipPath id="p417969f5bd">
   <rect x="48.329375" y="24.14175" width="902.844" height="543.6"/>
  </clipPath>
 </defs>
</svg>
