<?xml version="1.0" encoding="utf-8" standalone="no"?>
<!DOCTYPE svg PUBLIC "-//W3C//DTD SVG 1.1//EN"
  "http://www.w3.org/Graphics/SVG/1.1/DTD/svg11.dtd">
<svg xmlns:xlink="http://www.w3.org/1999/xlink" width="973.08168pt" height="633.943878pt" viewBox="0 0 973.08168 633.943878" xmlns="http://www.w3.org/2000/svg" version="1.1">
 <metadata>
  <rdf:RDF xmlns:dc="http://purl.org/dc/elements/1.1/" xmlns:cc="http://creativecommons.org/ns#" xmlns:rdf="http://www.w3.org/1999/02/22-rdf-syntax-ns#">
   <cc:Work>
    <dc:type rdf:resource="http://purl.org/dc/dcmitype/StillImage"/>
    <dc:date>2023-09-14T11:50:19.694718</dc:date>
    <dc:format>image/svg+xml</dc:format>
    <dc:creator>
     <cc:Agent>
      <dc:title>Matplotlib v3.5.1, https://matplotlib.org/</dc:title>
     </cc:Agent>
    </dc:creator>
   </cc:Work>
  </rdf:RDF>
 </metadata>
 <defs>
  <style type="text/css">*{stroke-linejoin: round; stroke-linecap: butt}</style>
 </defs>
 <g id="figure_1">
  <g id="patch_1">
   <path d="M 0 633.943878 
L 973.08168 633.943878 
L 973.08168 0 
L 0 0 
z
" style="fill: #ffffff"/>
  </g>
  <g id="axes_1">
   <g id="patch_2">
    <path d="M 48.329375 567.74175 
L 951.173375 567.74175 
L 951.173375 24.14175 
L 48.329375 24.14175 
z
" style="fill: #e5e5e5"/>
   </g>
   <g id="matplotlib.axis_1">
    <g id="xtick_1">
     <g id="line2d_1">
      <path d="M 72.730564 567.74175 
L 72.730564 24.14175 
" clip-path="url(#p6ca93640c3)" style="fill: none; stroke: #ffffff; stroke-width: 0.8; stroke-linecap: square"/>
     </g>
     <g id="line2d_2">
      <defs>
       <path id="m6b0c3e541d" d="M 0 0 
L 0 3.5 
" style="stroke: #555555; stroke-width: 0.8"/>
      </defs>
      <g>
       <use xlink:href="#m6b0c3e541d" x="72.730564" y="567.74175" style="fill: #555555; stroke: #555555; stroke-width: 0.8"/>
      </g>
     </g>
     <g id="text_1">
      <!-- 2020-12 -->
      <g style="fill: #555555" transform="translate(59.909282 609.659567)rotate(-45)scale(0.1 -0.1)">
       <defs>
        <path id="DejaVuSans-32" d="M 1228 531 
L 3431 531 
L 3431 0 
L 469 0 
L 469 531 
Q 828 903 1448 1529 
Q 2069 2156 2228 2338 
Q 2531 2678 2651 2914 
Q 2772 3150 2772 3378 
Q 2772 3750 2511 3984 
Q 2250 4219 1831 4219 
Q 1534 4219 1204 4116 
Q 875 4013 500 3803 
L 500 4441 
Q 881 4594 1212 4672 
Q 1544 4750 1819 4750 
Q 2544 4750 2975 4387 
Q 3406 4025 3406 3419 
Q 3406 3131 3298 2873 
Q 3191 2616 2906 2266 
Q 2828 2175 2409 1742 
Q 1991 1309 1228 531 
z
" transform="scale(0.015625)"/>
        <path id="DejaVuSans-30" d="M 2034 4250 
Q 1547 4250 1301 3770 
Q 1056 3291 1056 2328 
Q 1056 1369 1301 889 
Q 1547 409 2034 409 
Q 2525 409 2770 889 
Q 3016 1369 3016 2328 
Q 3016 3291 2770 3770 
Q 2525 4250 2034 4250 
z
M 2034 4750 
Q 2819 4750 3233 4129 
Q 3647 3509 3647 2328 
Q 3647 1150 3233 529 
Q 2819 -91 2034 -91 
Q 1250 -91 836 529 
Q 422 1150 422 2328 
Q 422 3509 836 4129 
Q 1250 4750 2034 4750 
z
" transform="scale(0.015625)"/>
        <path id="DejaVuSans-2d" d="M 313 2009 
L 1997 2009 
L 1997 1497 
L 313 1497 
L 313 2009 
z
" transform="scale(0.015625)"/>
        <path id="DejaVuSans-31" d="M 794 531 
L 1825 531 
L 1825 4091 
L 703 3866 
L 703 4441 
L 1819 4666 
L 2450 4666 
L 2450 531 
L 3481 531 
L 3481 0 
L 794 0 
L 794 531 
z
" transform="scale(0.015625)"/>
       </defs>
       <use xlink:href="#DejaVuSans-32"/>
       <use xlink:href="#DejaVuSans-30" x="63.623047"/>
       <use xlink:href="#DejaVuSans-32" x="127.246094"/>
       <use xlink:href="#DejaVuSans-30" x="190.869141"/>
       <use xlink:href="#DejaVuSans-2d" x="254.492188"/>
       <use xlink:href="#DejaVuSans-31" x="290.576172"/>
       <use xlink:href="#DejaVuSans-32" x="354.199219"/>
      </g>
     </g>
    </g>
    <g id="xtick_2">
     <g id="line2d_3">
      <path d="M 99.746167 567.74175 
L 99.746167 24.14175 
" clip-path="url(#p6ca93640c3)" style="fill: none; stroke: #ffffff; stroke-width: 0.8; stroke-linecap: square"/>
     </g>
     <g id="line2d_4">
      <g>
       <use xlink:href="#m6b0c3e541d" x="99.746167" y="567.74175" style="fill: #555555; stroke: #555555; stroke-width: 0.8"/>
      </g>
     </g>
     <g id="text_2">
      <!-- 2021-01 -->
      <g style="fill: #555555" transform="translate(86.924884 609.659567)rotate(-45)scale(0.1 -0.1)">
       <use xlink:href="#DejaVuSans-32"/>
       <use xlink:href="#DejaVuSans-30" x="63.623047"/>
       <use xlink:href="#DejaVuSans-32" x="127.246094"/>
       <use xlink:href="#DejaVuSans-31" x="190.869141"/>
       <use xlink:href="#DejaVuSans-2d" x="254.492188"/>
       <use xlink:href="#DejaVuSans-30" x="290.576172"/>
       <use xlink:href="#DejaVuSans-31" x="354.199219"/>
      </g>
     </g>
    </g>
    <g id="xtick_3">
     <g id="line2d_5">
      <path d="M 126.761769 567.74175 
L 126.761769 24.14175 
" clip-path="url(#p6ca93640c3)" style="fill: none; stroke: #ffffff; stroke-width: 0.8; stroke-linecap: square"/>
     </g>
     <g id="line2d_6">
      <g>
       <use xlink:href="#m6b0c3e541d" x="126.761769" y="567.74175" style="fill: #555555; stroke: #555555; stroke-width: 0.8"/>
      </g>
     </g>
     <g id="text_3">
      <!-- 2021-02 -->
      <g style="fill: #555555" transform="translate(113.940487 609.659567)rotate(-45)scale(0.1 -0.1)">
       <use xlink:href="#DejaVuSans-32"/>
       <use xlink:href="#DejaVuSans-30" x="63.623047"/>
       <use xlink:href="#DejaVuSans-32" x="127.246094"/>
       <use xlink:href="#DejaVuSans-31" x="190.869141"/>
       <use xlink:href="#DejaVuSans-2d" x="254.492188"/>
       <use xlink:href="#DejaVuSans-30" x="290.576172"/>
       <use xlink:href="#DejaVuSans-32" x="354.199219"/>
      </g>
     </g>
    </g>
    <g id="xtick_4">
     <g id="line2d_7">
      <path d="M 151.162958 567.74175 
L 151.162958 24.14175 
" clip-path="url(#p6ca93640c3)" style="fill: none; stroke: #ffffff; stroke-width: 0.8; stroke-linecap: square"/>
     </g>
     <g id="line2d_8">
      <g>
       <use xlink:href="#m6b0c3e541d" x="151.162958" y="567.74175" style="fill: #555555; stroke: #555555; stroke-width: 0.8"/>
      </g>
     </g>
     <g id="text_4">
      <!-- 2021-03 -->
      <g style="fill: #555555" transform="translate(138.341676 609.659567)rotate(-45)scale(0.1 -0.1)">
       <defs>
        <path id="DejaVuSans-33" d="M 2597 2516 
Q 3050 2419 3304 2112 
Q 3559 1806 3559 1356 
Q 3559 666 3084 287 
Q 2609 -91 1734 -91 
Q 1441 -91 1130 -33 
Q 819 25 488 141 
L 488 750 
Q 750 597 1062 519 
Q 1375 441 1716 441 
Q 2309 441 2620 675 
Q 2931 909 2931 1356 
Q 2931 1769 2642 2001 
Q 2353 2234 1838 2234 
L 1294 2234 
L 1294 2753 
L 1863 2753 
Q 2328 2753 2575 2939 
Q 2822 3125 2822 3475 
Q 2822 3834 2567 4026 
Q 2313 4219 1838 4219 
Q 1578 4219 1281 4162 
Q 984 4106 628 3988 
L 628 4550 
Q 988 4650 1302 4700 
Q 1616 4750 1894 4750 
Q 2613 4750 3031 4423 
Q 3450 4097 3450 3541 
Q 3450 3153 3228 2886 
Q 3006 2619 2597 2516 
z
" transform="scale(0.015625)"/>
       </defs>
       <use xlink:href="#DejaVuSans-32"/>
       <use xlink:href="#DejaVuSans-30" x="63.623047"/>
       <use xlink:href="#DejaVuSans-32" x="127.246094"/>
       <use xlink:href="#DejaVuSans-31" x="190.869141"/>
       <use xlink:href="#DejaVuSans-2d" x="254.492188"/>
       <use xlink:href="#DejaVuSans-30" x="290.576172"/>
       <use xlink:href="#DejaVuSans-33" x="354.199219"/>
      </g>
     </g>
    </g>
    <g id="xtick_5">
     <g id="line2d_9">
      <path d="M 178.17856 567.74175 
L 178.17856 24.14175 
" clip-path="url(#p6ca93640c3)" style="fill: none; stroke: #ffffff; stroke-width: 0.8; stroke-linecap: square"/>
     </g>
     <g id="line2d_10">
      <g>
       <use xlink:href="#m6b0c3e541d" x="178.17856" y="567.74175" style="fill: #555555; stroke: #555555; stroke-width: 0.8"/>
      </g>
     </g>
     <g id="text_5">
      <!-- 2021-04 -->
      <g style="fill: #555555" transform="translate(165.357278 609.659567)rotate(-45)scale(0.1 -0.1)">
       <defs>
        <path id="DejaVuSans-34" d="M 2419 4116 
L 825 1625 
L 2419 1625 
L 2419 4116 
z
M 2253 4666 
L 3047 4666 
L 3047 1625 
L 3713 1625 
L 3713 1100 
L 3047 1100 
L 3047 0 
L 2419 0 
L 2419 1100 
L 313 1100 
L 313 1709 
L 2253 4666 
z
" transform="scale(0.015625)"/>
       </defs>
       <use xlink:href="#DejaVuSans-32"/>
       <use xlink:href="#DejaVuSans-30" x="63.623047"/>
       <use xlink:href="#DejaVuSans-32" x="127.246094"/>
       <use xlink:href="#DejaVuSans-31" x="190.869141"/>
       <use xlink:href="#DejaVuSans-2d" x="254.492188"/>
       <use xlink:href="#DejaVuSans-30" x="290.576172"/>
       <use xlink:href="#DejaVuSans-34" x="354.199219"/>
      </g>
     </g>
    </g>
    <g id="xtick_6">
     <g id="line2d_11">
      <path d="M 204.322692 567.74175 
L 204.322692 24.14175 
" clip-path="url(#p6ca93640c3)" style="fill: none; stroke: #ffffff; stroke-width: 0.8; stroke-linecap: square"/>
     </g>
     <g id="line2d_12">
      <g>
       <use xlink:href="#m6b0c3e541d" x="204.322692" y="567.74175" style="fill: #555555; stroke: #555555; stroke-width: 0.8"/>
      </g>
     </g>
     <g id="text_6">
      <!-- 2021-05 -->
      <g style="fill: #555555" transform="translate(191.501409 609.659567)rotate(-45)scale(0.1 -0.1)">
       <defs>
        <path id="DejaVuSans-35" d="M 691 4666 
L 3169 4666 
L 3169 4134 
L 1269 4134 
L 1269 2991 
Q 1406 3038 1543 3061 
Q 1681 3084 1819 3084 
Q 2600 3084 3056 2656 
Q 3513 2228 3513 1497 
Q 3513 744 3044 326 
Q 2575 -91 1722 -91 
Q 1428 -91 1123 -41 
Q 819 9 494 109 
L 494 744 
Q 775 591 1075 516 
Q 1375 441 1709 441 
Q 2250 441 2565 725 
Q 2881 1009 2881 1497 
Q 2881 1984 2565 2268 
Q 2250 2553 1709 2553 
Q 1456 2553 1204 2497 
Q 953 2441 691 2322 
L 691 4666 
z
" transform="scale(0.015625)"/>
       </defs>
       <use xlink:href="#DejaVuSans-32"/>
       <use xlink:href="#DejaVuSans-30" x="63.623047"/>
       <use xlink:href="#DejaVuSans-32" x="127.246094"/>
       <use xlink:href="#DejaVuSans-31" x="190.869141"/>
       <use xlink:href="#DejaVuSans-2d" x="254.492188"/>
       <use xlink:href="#DejaVuSans-30" x="290.576172"/>
       <use xlink:href="#DejaVuSans-35" x="354.199219"/>
      </g>
     </g>
    </g>
    <g id="xtick_7">
     <g id="line2d_13">
      <path d="M 231.338294 567.74175 
L 231.338294 24.14175 
" clip-path="url(#p6ca93640c3)" style="fill: none; stroke: #ffffff; stroke-width: 0.8; stroke-linecap: square"/>
     </g>
     <g id="line2d_14">
      <g>
       <use xlink:href="#m6b0c3e541d" x="231.338294" y="567.74175" style="fill: #555555; stroke: #555555; stroke-width: 0.8"/>
      </g>
     </g>
     <g id="text_7">
      <!-- 2021-06 -->
      <g style="fill: #555555" transform="translate(218.517012 609.659567)rotate(-45)scale(0.1 -0.1)">
       <defs>
        <path id="DejaVuSans-36" d="M 2113 2584 
Q 1688 2584 1439 2293 
Q 1191 2003 1191 1497 
Q 1191 994 1439 701 
Q 1688 409 2113 409 
Q 2538 409 2786 701 
Q 3034 994 3034 1497 
Q 3034 2003 2786 2293 
Q 2538 2584 2113 2584 
z
M 3366 4563 
L 3366 3988 
Q 3128 4100 2886 4159 
Q 2644 4219 2406 4219 
Q 1781 4219 1451 3797 
Q 1122 3375 1075 2522 
Q 1259 2794 1537 2939 
Q 1816 3084 2150 3084 
Q 2853 3084 3261 2657 
Q 3669 2231 3669 1497 
Q 3669 778 3244 343 
Q 2819 -91 2113 -91 
Q 1303 -91 875 529 
Q 447 1150 447 2328 
Q 447 3434 972 4092 
Q 1497 4750 2381 4750 
Q 2619 4750 2861 4703 
Q 3103 4656 3366 4563 
z
" transform="scale(0.015625)"/>
       </defs>
       <use xlink:href="#DejaVuSans-32"/>
       <use xlink:href="#DejaVuSans-30" x="63.623047"/>
       <use xlink:href="#DejaVuSans-32" x="127.246094"/>
       <use xlink:href="#DejaVuSans-31" x="190.869141"/>
       <use xlink:href="#DejaVuSans-2d" x="254.492188"/>
       <use xlink:href="#DejaVuSans-30" x="290.576172"/>
       <use xlink:href="#DejaVuSans-36" x="354.199219"/>
      </g>
     </g>
    </g>
    <g id="xtick_8">
     <g id="line2d_15">
      <path d="M 257.482425 567.74175 
L 257.482425 24.14175 
" clip-path="url(#p6ca93640c3)" style="fill: none; stroke: #ffffff; stroke-width: 0.8; stroke-linecap: square"/>
     </g>
     <g id="line2d_16">
      <g>
       <use xlink:href="#m6b0c3e541d" x="257.482425" y="567.74175" style="fill: #555555; stroke: #555555; stroke-width: 0.8"/>
      </g>
     </g>
     <g id="text_8">
      <!-- 2021-07 -->
      <g style="fill: #555555" transform="translate(244.661143 609.659567)rotate(-45)scale(0.1 -0.1)">
       <defs>
        <path id="DejaVuSans-37" d="M 525 4666 
L 3525 4666 
L 3525 4397 
L 1831 0 
L 1172 0 
L 2766 4134 
L 525 4134 
L 525 4666 
z
" transform="scale(0.015625)"/>
       </defs>
       <use xlink:href="#DejaVuSans-32"/>
       <use xlink:href="#DejaVuSans-30" x="63.623047"/>
       <use xlink:href="#DejaVuSans-32" x="127.246094"/>
       <use xlink:href="#DejaVuSans-31" x="190.869141"/>
       <use xlink:href="#DejaVuSans-2d" x="254.492188"/>
       <use xlink:href="#DejaVuSans-30" x="290.576172"/>
       <use xlink:href="#DejaVuSans-37" x="354.199219"/>
      </g>
     </g>
    </g>
    <g id="xtick_9">
     <g id="line2d_17">
      <path d="M 284.498028 567.74175 
L 284.498028 24.14175 
" clip-path="url(#p6ca93640c3)" style="fill: none; stroke: #ffffff; stroke-width: 0.8; stroke-linecap: square"/>
     </g>
     <g id="line2d_18">
      <g>
       <use xlink:href="#m6b0c3e541d" x="284.498028" y="567.74175" style="fill: #555555; stroke: #555555; stroke-width: 0.8"/>
      </g>
     </g>
     <g id="text_9">
      <!-- 2021-08 -->
      <g style="fill: #555555" transform="translate(271.676745 609.659567)rotate(-45)scale(0.1 -0.1)">
       <defs>
        <path id="DejaVuSans-38" d="M 2034 2216 
Q 1584 2216 1326 1975 
Q 1069 1734 1069 1313 
Q 1069 891 1326 650 
Q 1584 409 2034 409 
Q 2484 409 2743 651 
Q 3003 894 3003 1313 
Q 3003 1734 2745 1975 
Q 2488 2216 2034 2216 
z
M 1403 2484 
Q 997 2584 770 2862 
Q 544 3141 544 3541 
Q 544 4100 942 4425 
Q 1341 4750 2034 4750 
Q 2731 4750 3128 4425 
Q 3525 4100 3525 3541 
Q 3525 3141 3298 2862 
Q 3072 2584 2669 2484 
Q 3125 2378 3379 2068 
Q 3634 1759 3634 1313 
Q 3634 634 3220 271 
Q 2806 -91 2034 -91 
Q 1263 -91 848 271 
Q 434 634 434 1313 
Q 434 1759 690 2068 
Q 947 2378 1403 2484 
z
M 1172 3481 
Q 1172 3119 1398 2916 
Q 1625 2713 2034 2713 
Q 2441 2713 2670 2916 
Q 2900 3119 2900 3481 
Q 2900 3844 2670 4047 
Q 2441 4250 2034 4250 
Q 1625 4250 1398 4047 
Q 1172 3844 1172 3481 
z
" transform="scale(0.015625)"/>
       </defs>
       <use xlink:href="#DejaVuSans-32"/>
       <use xlink:href="#DejaVuSans-30" x="63.623047"/>
       <use xlink:href="#DejaVuSans-32" x="127.246094"/>
       <use xlink:href="#DejaVuSans-31" x="190.869141"/>
       <use xlink:href="#DejaVuSans-2d" x="254.492188"/>
       <use xlink:href="#DejaVuSans-30" x="290.576172"/>
       <use xlink:href="#DejaVuSans-38" x="354.199219"/>
      </g>
     </g>
    </g>
    <g id="xtick_10">
     <g id="line2d_19">
      <path d="M 311.51363 567.74175 
L 311.51363 24.14175 
" clip-path="url(#p6ca93640c3)" style="fill: none; stroke: #ffffff; stroke-width: 0.8; stroke-linecap: square"/>
     </g>
     <g id="line2d_20">
      <g>
       <use xlink:href="#m6b0c3e541d" x="311.51363" y="567.74175" style="fill: #555555; stroke: #555555; stroke-width: 0.8"/>
      </g>
     </g>
     <g id="text_10">
      <!-- 2021-09 -->
      <g style="fill: #555555" transform="translate(298.692348 609.659567)rotate(-45)scale(0.1 -0.1)">
       <defs>
        <path id="DejaVuSans-39" d="M 703 97 
L 703 672 
Q 941 559 1184 500 
Q 1428 441 1663 441 
Q 2288 441 2617 861 
Q 2947 1281 2994 2138 
Q 2813 1869 2534 1725 
Q 2256 1581 1919 1581 
Q 1219 1581 811 2004 
Q 403 2428 403 3163 
Q 403 3881 828 4315 
Q 1253 4750 1959 4750 
Q 2769 4750 3195 4129 
Q 3622 3509 3622 2328 
Q 3622 1225 3098 567 
Q 2575 -91 1691 -91 
Q 1453 -91 1209 -44 
Q 966 3 703 97 
z
M 1959 2075 
Q 2384 2075 2632 2365 
Q 2881 2656 2881 3163 
Q 2881 3666 2632 3958 
Q 2384 4250 1959 4250 
Q 1534 4250 1286 3958 
Q 1038 3666 1038 3163 
Q 1038 2656 1286 2365 
Q 1534 2075 1959 2075 
z
" transform="scale(0.015625)"/>
       </defs>
       <use xlink:href="#DejaVuSans-32"/>
       <use xlink:href="#DejaVuSans-30" x="63.623047"/>
       <use xlink:href="#DejaVuSans-32" x="127.246094"/>
       <use xlink:href="#DejaVuSans-31" x="190.869141"/>
       <use xlink:href="#DejaVuSans-2d" x="254.492188"/>
       <use xlink:href="#DejaVuSans-30" x="290.576172"/>
       <use xlink:href="#DejaVuSans-39" x="354.199219"/>
      </g>
     </g>
    </g>
    <g id="xtick_11">
     <g id="line2d_21">
      <path d="M 337.657761 567.74175 
L 337.657761 24.14175 
" clip-path="url(#p6ca93640c3)" style="fill: none; stroke: #ffffff; stroke-width: 0.8; stroke-linecap: square"/>
     </g>
     <g id="line2d_22">
      <g>
       <use xlink:href="#m6b0c3e541d" x="337.657761" y="567.74175" style="fill: #555555; stroke: #555555; stroke-width: 0.8"/>
      </g>
     </g>
     <g id="text_11">
      <!-- 2021-10 -->
      <g style="fill: #555555" transform="translate(324.836479 609.659567)rotate(-45)scale(0.1 -0.1)">
       <use xlink:href="#DejaVuSans-32"/>
       <use xlink:href="#DejaVuSans-30" x="63.623047"/>
       <use xlink:href="#DejaVuSans-32" x="127.246094"/>
       <use xlink:href="#DejaVuSans-31" x="190.869141"/>
       <use xlink:href="#DejaVuSans-2d" x="254.492188"/>
       <use xlink:href="#DejaVuSans-31" x="290.576172"/>
       <use xlink:href="#DejaVuSans-30" x="354.199219"/>
      </g>
     </g>
    </g>
    <g id="xtick_12">
     <g id="line2d_23">
      <path d="M 364.673363 567.74175 
L 364.673363 24.14175 
" clip-path="url(#p6ca93640c3)" style="fill: none; stroke: #ffffff; stroke-width: 0.8; stroke-linecap: square"/>
     </g>
     <g id="line2d_24">
      <g>
       <use xlink:href="#m6b0c3e541d" x="364.673363" y="567.74175" style="fill: #555555; stroke: #555555; stroke-width: 0.8"/>
      </g>
     </g>
     <g id="text_12">
      <!-- 2021-11 -->
      <g style="fill: #555555" transform="translate(351.852081 609.659567)rotate(-45)scale(0.1 -0.1)">
       <use xlink:href="#DejaVuSans-32"/>
       <use xlink:href="#DejaVuSans-30" x="63.623047"/>
       <use xlink:href="#DejaVuSans-32" x="127.246094"/>
       <use xlink:href="#DejaVuSans-31" x="190.869141"/>
       <use xlink:href="#DejaVuSans-2d" x="254.492188"/>
       <use xlink:href="#DejaVuSans-31" x="290.576172"/>
       <use xlink:href="#DejaVuSans-31" x="354.199219"/>
      </g>
     </g>
    </g>
    <g id="xtick_13">
     <g id="line2d_25">
      <path d="M 390.817495 567.74175 
L 390.817495 24.14175 
" clip-path="url(#p6ca93640c3)" style="fill: none; stroke: #ffffff; stroke-width: 0.8; stroke-linecap: square"/>
     </g>
     <g id="line2d_26">
      <g>
       <use xlink:href="#m6b0c3e541d" x="390.817495" y="567.74175" style="fill: #555555; stroke: #555555; stroke-width: 0.8"/>
      </g>
     </g>
     <g id="text_13">
      <!-- 2021-12 -->
      <g style="fill: #555555" transform="translate(377.996212 609.659567)rotate(-45)scale(0.1 -0.1)">
       <use xlink:href="#DejaVuSans-32"/>
       <use xlink:href="#DejaVuSans-30" x="63.623047"/>
       <use xlink:href="#DejaVuSans-32" x="127.246094"/>
       <use xlink:href="#DejaVuSans-31" x="190.869141"/>
       <use xlink:href="#DejaVuSans-2d" x="254.492188"/>
       <use xlink:href="#DejaVuSans-31" x="290.576172"/>
       <use xlink:href="#DejaVuSans-32" x="354.199219"/>
      </g>
     </g>
    </g>
    <g id="xtick_14">
     <g id="line2d_27">
      <path d="M 417.833097 567.74175 
L 417.833097 24.14175 
" clip-path="url(#p6ca93640c3)" style="fill: none; stroke: #ffffff; stroke-width: 0.8; stroke-linecap: square"/>
     </g>
     <g id="line2d_28">
      <g>
       <use xlink:href="#m6b0c3e541d" x="417.833097" y="567.74175" style="fill: #555555; stroke: #555555; stroke-width: 0.8"/>
      </g>
     </g>
     <g id="text_14">
      <!-- 2022-01 -->
      <g style="fill: #555555" transform="translate(405.011815 609.659567)rotate(-45)scale(0.1 -0.1)">
       <use xlink:href="#DejaVuSans-32"/>
       <use xlink:href="#DejaVuSans-30" x="63.623047"/>
       <use xlink:href="#DejaVuSans-32" x="127.246094"/>
       <use xlink:href="#DejaVuSans-32" x="190.869141"/>
       <use xlink:href="#DejaVuSans-2d" x="254.492188"/>
       <use xlink:href="#DejaVuSans-30" x="290.576172"/>
       <use xlink:href="#DejaVuSans-31" x="354.199219"/>
      </g>
     </g>
    </g>
    <g id="xtick_15">
     <g id="line2d_29">
      <path d="M 444.848699 567.74175 
L 444.848699 24.14175 
" clip-path="url(#p6ca93640c3)" style="fill: none; stroke: #ffffff; stroke-width: 0.8; stroke-linecap: square"/>
     </g>
     <g id="line2d_30">
      <g>
       <use xlink:href="#m6b0c3e541d" x="444.848699" y="567.74175" style="fill: #555555; stroke: #555555; stroke-width: 0.8"/>
      </g>
     </g>
     <g id="text_15">
      <!-- 2022-02 -->
      <g style="fill: #555555" transform="translate(432.027417 609.659567)rotate(-45)scale(0.1 -0.1)">
       <use xlink:href="#DejaVuSans-32"/>
       <use xlink:href="#DejaVuSans-30" x="63.623047"/>
       <use xlink:href="#DejaVuSans-32" x="127.246094"/>
       <use xlink:href="#DejaVuSans-32" x="190.869141"/>
       <use xlink:href="#DejaVuSans-2d" x="254.492188"/>
       <use xlink:href="#DejaVuSans-30" x="290.576172"/>
       <use xlink:href="#DejaVuSans-32" x="354.199219"/>
      </g>
     </g>
    </g>
    <g id="xtick_16">
     <g id="line2d_31">
      <path d="M 469.249889 567.74175 
L 469.249889 24.14175 
" clip-path="url(#p6ca93640c3)" style="fill: none; stroke: #ffffff; stroke-width: 0.8; stroke-linecap: square"/>
     </g>
     <g id="line2d_32">
      <g>
       <use xlink:href="#m6b0c3e541d" x="469.249889" y="567.74175" style="fill: #555555; stroke: #555555; stroke-width: 0.8"/>
      </g>
     </g>
     <g id="text_16">
      <!-- 2022-03 -->
      <g style="fill: #555555" transform="translate(456.428606 609.659567)rotate(-45)scale(0.1 -0.1)">
       <use xlink:href="#DejaVuSans-32"/>
       <use xlink:href="#DejaVuSans-30" x="63.623047"/>
       <use xlink:href="#DejaVuSans-32" x="127.246094"/>
       <use xlink:href="#DejaVuSans-32" x="190.869141"/>
       <use xlink:href="#DejaVuSans-2d" x="254.492188"/>
       <use xlink:href="#DejaVuSans-30" x="290.576172"/>
       <use xlink:href="#DejaVuSans-33" x="354.199219"/>
      </g>
     </g>
    </g>
    <g id="xtick_17">
     <g id="line2d_33">
      <path d="M 496.265491 567.74175 
L 496.265491 24.14175 
" clip-path="url(#p6ca93640c3)" style="fill: none; stroke: #ffffff; stroke-width: 0.8; stroke-linecap: square"/>
     </g>
     <g id="line2d_34">
      <g>
       <use xlink:href="#m6b0c3e541d" x="496.265491" y="567.74175" style="fill: #555555; stroke: #555555; stroke-width: 0.8"/>
      </g>
     </g>
     <g id="text_17">
      <!-- 2022-04 -->
      <g style="fill: #555555" transform="translate(483.444209 609.659567)rotate(-45)scale(0.1 -0.1)">
       <use xlink:href="#DejaVuSans-32"/>
       <use xlink:href="#DejaVuSans-30" x="63.623047"/>
       <use xlink:href="#DejaVuSans-32" x="127.246094"/>
       <use xlink:href="#DejaVuSans-32" x="190.869141"/>
       <use xlink:href="#DejaVuSans-2d" x="254.492188"/>
       <use xlink:href="#DejaVuSans-30" x="290.576172"/>
       <use xlink:href="#DejaVuSans-34" x="354.199219"/>
      </g>
     </g>
    </g>
    <g id="xtick_18">
     <g id="line2d_35">
      <path d="M 522.409622 567.74175 
L 522.409622 24.14175 
" clip-path="url(#p6ca93640c3)" style="fill: none; stroke: #ffffff; stroke-width: 0.8; stroke-linecap: square"/>
     </g>
     <g id="line2d_36">
      <g>
       <use xlink:href="#m6b0c3e541d" x="522.409622" y="567.74175" style="fill: #555555; stroke: #555555; stroke-width: 0.8"/>
      </g>
     </g>
     <g id="text_18">
      <!-- 2022-05 -->
      <g style="fill: #555555" transform="translate(509.58834 609.659567)rotate(-45)scale(0.1 -0.1)">
       <use xlink:href="#DejaVuSans-32"/>
       <use xlink:href="#DejaVuSans-30" x="63.623047"/>
       <use xlink:href="#DejaVuSans-32" x="127.246094"/>
       <use xlink:href="#DejaVuSans-32" x="190.869141"/>
       <use xlink:href="#DejaVuSans-2d" x="254.492188"/>
       <use xlink:href="#DejaVuSans-30" x="290.576172"/>
       <use xlink:href="#DejaVuSans-35" x="354.199219"/>
      </g>
     </g>
    </g>
    <g id="xtick_19">
     <g id="line2d_37">
      <path d="M 549.425224 567.74175 
L 549.425224 24.14175 
" clip-path="url(#p6ca93640c3)" style="fill: none; stroke: #ffffff; stroke-width: 0.8; stroke-linecap: square"/>
     </g>
     <g id="line2d_38">
      <g>
       <use xlink:href="#m6b0c3e541d" x="549.425224" y="567.74175" style="fill: #555555; stroke: #555555; stroke-width: 0.8"/>
      </g>
     </g>
     <g id="text_19">
      <!-- 2022-06 -->
      <g style="fill: #555555" transform="translate(536.603942 609.659567)rotate(-45)scale(0.1 -0.1)">
       <use xlink:href="#DejaVuSans-32"/>
       <use xlink:href="#DejaVuSans-30" x="63.623047"/>
       <use xlink:href="#DejaVuSans-32" x="127.246094"/>
       <use xlink:href="#DejaVuSans-32" x="190.869141"/>
       <use xlink:href="#DejaVuSans-2d" x="254.492188"/>
       <use xlink:href="#DejaVuSans-30" x="290.576172"/>
       <use xlink:href="#DejaVuSans-36" x="354.199219"/>
      </g>
     </g>
    </g>
    <g id="xtick_20">
     <g id="line2d_39">
      <path d="M 575.569356 567.74175 
L 575.569356 24.14175 
" clip-path="url(#p6ca93640c3)" style="fill: none; stroke: #ffffff; stroke-width: 0.8; stroke-linecap: square"/>
     </g>
     <g id="line2d_40">
      <g>
       <use xlink:href="#m6b0c3e541d" x="575.569356" y="567.74175" style="fill: #555555; stroke: #555555; stroke-width: 0.8"/>
      </g>
     </g>
     <g id="text_20">
      <!-- 2022-07 -->
      <g style="fill: #555555" transform="translate(562.748073 609.659567)rotate(-45)scale(0.1 -0.1)">
       <use xlink:href="#DejaVuSans-32"/>
       <use xlink:href="#DejaVuSans-30" x="63.623047"/>
       <use xlink:href="#DejaVuSans-32" x="127.246094"/>
       <use xlink:href="#DejaVuSans-32" x="190.869141"/>
       <use xlink:href="#DejaVuSans-2d" x="254.492188"/>
       <use xlink:href="#DejaVuSans-30" x="290.576172"/>
       <use xlink:href="#DejaVuSans-37" x="354.199219"/>
      </g>
     </g>
    </g>
    <g id="xtick_21">
     <g id="line2d_41">
      <path d="M 602.584958 567.74175 
L 602.584958 24.14175 
" clip-path="url(#p6ca93640c3)" style="fill: none; stroke: #ffffff; stroke-width: 0.8; stroke-linecap: square"/>
     </g>
     <g id="line2d_42">
      <g>
       <use xlink:href="#m6b0c3e541d" x="602.584958" y="567.74175" style="fill: #555555; stroke: #555555; stroke-width: 0.8"/>
      </g>
     </g>
     <g id="text_21">
      <!-- 2022-08 -->
      <g style="fill: #555555" transform="translate(589.763676 609.659567)rotate(-45)scale(0.1 -0.1)">
       <use xlink:href="#DejaVuSans-32"/>
       <use xlink:href="#DejaVuSans-30" x="63.623047"/>
       <use xlink:href="#DejaVuSans-32" x="127.246094"/>
       <use xlink:href="#DejaVuSans-32" x="190.869141"/>
       <use xlink:href="#DejaVuSans-2d" x="254.492188"/>
       <use xlink:href="#DejaVuSans-30" x="290.576172"/>
       <use xlink:href="#DejaVuSans-38" x="354.199219"/>
      </g>
     </g>
    </g>
    <g id="xtick_22">
     <g id="line2d_43">
      <path d="M 629.60056 567.74175 
L 629.60056 24.14175 
" clip-path="url(#p6ca93640c3)" style="fill: none; stroke: #ffffff; stroke-width: 0.8; stroke-linecap: square"/>
     </g>
     <g id="line2d_44">
      <g>
       <use xlink:href="#m6b0c3e541d" x="629.60056" y="567.74175" style="fill: #555555; stroke: #555555; stroke-width: 0.8"/>
      </g>
     </g>
     <g id="text_22">
      <!-- 2022-09 -->
      <g style="fill: #555555" transform="translate(616.779278 609.659567)rotate(-45)scale(0.1 -0.1)">
       <use xlink:href="#DejaVuSans-32"/>
       <use xlink:href="#DejaVuSans-30" x="63.623047"/>
       <use xlink:href="#DejaVuSans-32" x="127.246094"/>
       <use xlink:href="#DejaVuSans-32" x="190.869141"/>
       <use xlink:href="#DejaVuSans-2d" x="254.492188"/>
       <use xlink:href="#DejaVuSans-30" x="290.576172"/>
       <use xlink:href="#DejaVuSans-39" x="354.199219"/>
      </g>
     </g>
    </g>
    <g id="xtick_23">
     <g id="line2d_45">
      <path d="M 655.744692 567.74175 
L 655.744692 24.14175 
" clip-path="url(#p6ca93640c3)" style="fill: none; stroke: #ffffff; stroke-width: 0.8; stroke-linecap: square"/>
     </g>
     <g id="line2d_46">
      <g>
       <use xlink:href="#m6b0c3e541d" x="655.744692" y="567.74175" style="fill: #555555; stroke: #555555; stroke-width: 0.8"/>
      </g>
     </g>
     <g id="text_23">
      <!-- 2022-10 -->
      <g style="fill: #555555" transform="translate(642.923409 609.659567)rotate(-45)scale(0.1 -0.1)">
       <use xlink:href="#DejaVuSans-32"/>
       <use xlink:href="#DejaVuSans-30" x="63.623047"/>
       <use xlink:href="#DejaVuSans-32" x="127.246094"/>
       <use xlink:href="#DejaVuSans-32" x="190.869141"/>
       <use xlink:href="#DejaVuSans-2d" x="254.492188"/>
       <use xlink:href="#DejaVuSans-31" x="290.576172"/>
       <use xlink:href="#DejaVuSans-30" x="354.199219"/>
      </g>
     </g>
    </g>
    <g id="xtick_24">
     <g id="line2d_47">
      <path d="M 682.760294 567.74175 
L 682.760294 24.14175 
" clip-path="url(#p6ca93640c3)" style="fill: none; stroke: #ffffff; stroke-width: 0.8; stroke-linecap: square"/>
     </g>
     <g id="line2d_48">
      <g>
       <use xlink:href="#m6b0c3e541d" x="682.760294" y="567.74175" style="fill: #555555; stroke: #555555; stroke-width: 0.8"/>
      </g>
     </g>
     <g id="text_24">
      <!-- 2022-11 -->
      <g style="fill: #555555" transform="translate(669.939012 609.659567)rotate(-45)scale(0.1 -0.1)">
       <use xlink:href="#DejaVuSans-32"/>
       <use xlink:href="#DejaVuSans-30" x="63.623047"/>
       <use xlink:href="#DejaVuSans-32" x="127.246094"/>
       <use xlink:href="#DejaVuSans-32" x="190.869141"/>
       <use xlink:href="#DejaVuSans-2d" x="254.492188"/>
       <use xlink:href="#DejaVuSans-31" x="290.576172"/>
       <use xlink:href="#DejaVuSans-31" x="354.199219"/>
      </g>
     </g>
    </g>
    <g id="xtick_25">
     <g id="line2d_49">
      <path d="M 708.904425 567.74175 
L 708.904425 24.14175 
" clip-path="url(#p6ca93640c3)" style="fill: none; stroke: #ffffff; stroke-width: 0.8; stroke-linecap: square"/>
     </g>
     <g id="line2d_50">
      <g>
       <use xlink:href="#m6b0c3e541d" x="708.904425" y="567.74175" style="fill: #555555; stroke: #555555; stroke-width: 0.8"/>
      </g>
     </g>
     <g id="text_25">
      <!-- 2022-12 -->
      <g style="fill: #555555" transform="translate(696.083143 609.659567)rotate(-45)scale(0.1 -0.1)">
       <use xlink:href="#DejaVuSans-32"/>
       <use xlink:href="#DejaVuSans-30" x="63.623047"/>
       <use xlink:href="#DejaVuSans-32" x="127.246094"/>
       <use xlink:href="#DejaVuSans-32" x="190.869141"/>
       <use xlink:href="#DejaVuSans-2d" x="254.492188"/>
       <use xlink:href="#DejaVuSans-31" x="290.576172"/>
       <use xlink:href="#DejaVuSans-32" x="354.199219"/>
      </g>
     </g>
    </g>
    <g id="xtick_26">
     <g id="line2d_51">
      <path d="M 735.920028 567.74175 
L 735.920028 24.14175 
" clip-path="url(#p6ca93640c3)" style="fill: none; stroke: #ffffff; stroke-width: 0.8; stroke-linecap: square"/>
     </g>
     <g id="line2d_52">
      <g>
       <use xlink:href="#m6b0c3e541d" x="735.920028" y="567.74175" style="fill: #555555; stroke: #555555; stroke-width: 0.8"/>
      </g>
     </g>
     <g id="text_26">
      <!-- 2023-01 -->
      <g style="fill: #555555" transform="translate(723.098745 609.659567)rotate(-45)scale(0.1 -0.1)">
       <use xlink:href="#DejaVuSans-32"/>
       <use xlink:href="#DejaVuSans-30" x="63.623047"/>
       <use xlink:href="#DejaVuSans-32" x="127.246094"/>
       <use xlink:href="#DejaVuSans-33" x="190.869141"/>
       <use xlink:href="#DejaVuSans-2d" x="254.492188"/>
       <use xlink:href="#DejaVuSans-30" x="290.576172"/>
       <use xlink:href="#DejaVuSans-31" x="354.199219"/>
      </g>
     </g>
    </g>
    <g id="xtick_27">
     <g id="line2d_53">
      <path d="M 762.93563 567.74175 
L 762.93563 24.14175 
" clip-path="url(#p6ca93640c3)" style="fill: none; stroke: #ffffff; stroke-width: 0.8; stroke-linecap: square"/>
     </g>
     <g id="line2d_54">
      <g>
       <use xlink:href="#m6b0c3e541d" x="762.93563" y="567.74175" style="fill: #555555; stroke: #555555; stroke-width: 0.8"/>
      </g>
     </g>
     <g id="text_27">
      <!-- 2023-02 -->
      <g style="fill: #555555" transform="translate(750.114348 609.659567)rotate(-45)scale(0.1 -0.1)">
       <use xlink:href="#DejaVuSans-32"/>
       <use xlink:href="#DejaVuSans-30" x="63.623047"/>
       <use xlink:href="#DejaVuSans-32" x="127.246094"/>
       <use xlink:href="#DejaVuSans-33" x="190.869141"/>
       <use xlink:href="#DejaVuSans-2d" x="254.492188"/>
       <use xlink:href="#DejaVuSans-30" x="290.576172"/>
       <use xlink:href="#DejaVuSans-32" x="354.199219"/>
      </g>
     </g>
    </g>
    <g id="xtick_28">
     <g id="line2d_55">
      <path d="M 787.336819 567.74175 
L 787.336819 24.14175 
" clip-path="url(#p6ca93640c3)" style="fill: none; stroke: #ffffff; stroke-width: 0.8; stroke-linecap: square"/>
     </g>
     <g id="line2d_56">
      <g>
       <use xlink:href="#m6b0c3e541d" x="787.336819" y="567.74175" style="fill: #555555; stroke: #555555; stroke-width: 0.8"/>
      </g>
     </g>
     <g id="text_28">
      <!-- 2023-03 -->
      <g style="fill: #555555" transform="translate(774.515537 609.659567)rotate(-45)scale(0.1 -0.1)">
       <use xlink:href="#DejaVuSans-32"/>
       <use xlink:href="#DejaVuSans-30" x="63.623047"/>
       <use xlink:href="#DejaVuSans-32" x="127.246094"/>
       <use xlink:href="#DejaVuSans-33" x="190.869141"/>
       <use xlink:href="#DejaVuSans-2d" x="254.492188"/>
       <use xlink:href="#DejaVuSans-30" x="290.576172"/>
       <use xlink:href="#DejaVuSans-33" x="354.199219"/>
      </g>
     </g>
    </g>
    <g id="xtick_29">
     <g id="line2d_57">
      <path d="M 814.352421 567.74175 
L 814.352421 24.14175 
" clip-path="url(#p6ca93640c3)" style="fill: none; stroke: #ffffff; stroke-width: 0.8; stroke-linecap: square"/>
     </g>
     <g id="line2d_58">
      <g>
       <use xlink:href="#m6b0c3e541d" x="814.352421" y="567.74175" style="fill: #555555; stroke: #555555; stroke-width: 0.8"/>
      </g>
     </g>
     <g id="text_29">
      <!-- 2023-04 -->
      <g style="fill: #555555" transform="translate(801.531139 609.659567)rotate(-45)scale(0.1 -0.1)">
       <use xlink:href="#DejaVuSans-32"/>
       <use xlink:href="#DejaVuSans-30" x="63.623047"/>
       <use xlink:href="#DejaVuSans-32" x="127.246094"/>
       <use xlink:href="#DejaVuSans-33" x="190.869141"/>
       <use xlink:href="#DejaVuSans-2d" x="254.492188"/>
       <use xlink:href="#DejaVuSans-30" x="290.576172"/>
       <use xlink:href="#DejaVuSans-34" x="354.199219"/>
      </g>
     </g>
    </g>
    <g id="xtick_30">
     <g id="line2d_59">
      <path d="M 840.496553 567.74175 
L 840.496553 24.14175 
" clip-path="url(#p6ca93640c3)" style="fill: none; stroke: #ffffff; stroke-width: 0.8; stroke-linecap: square"/>
     </g>
     <g id="line2d_60">
      <g>
       <use xlink:href="#m6b0c3e541d" x="840.496553" y="567.74175" style="fill: #555555; stroke: #555555; stroke-width: 0.8"/>
      </g>
     </g>
     <g id="text_30">
      <!-- 2023-05 -->
      <g style="fill: #555555" transform="translate(827.67527 609.659567)rotate(-45)scale(0.1 -0.1)">
       <use xlink:href="#DejaVuSans-32"/>
       <use xlink:href="#DejaVuSans-30" x="63.623047"/>
       <use xlink:href="#DejaVuSans-32" x="127.246094"/>
       <use xlink:href="#DejaVuSans-33" x="190.869141"/>
       <use xlink:href="#DejaVuSans-2d" x="254.492188"/>
       <use xlink:href="#DejaVuSans-30" x="290.576172"/>
       <use xlink:href="#DejaVuSans-35" x="354.199219"/>
      </g>
     </g>
    </g>
    <g id="xtick_31">
     <g id="line2d_61">
      <path d="M 867.512155 567.74175 
L 867.512155 24.14175 
" clip-path="url(#p6ca93640c3)" style="fill: none; stroke: #ffffff; stroke-width: 0.8; stroke-linecap: square"/>
     </g>
     <g id="line2d_62">
      <g>
       <use xlink:href="#m6b0c3e541d" x="867.512155" y="567.74175" style="fill: #555555; stroke: #555555; stroke-width: 0.8"/>
      </g>
     </g>
     <g id="text_31">
      <!-- 2023-06 -->
      <g style="fill: #555555" transform="translate(854.690873 609.659567)rotate(-45)scale(0.1 -0.1)">
       <use xlink:href="#DejaVuSans-32"/>
       <use xlink:href="#DejaVuSans-30" x="63.623047"/>
       <use xlink:href="#DejaVuSans-32" x="127.246094"/>
       <use xlink:href="#DejaVuSans-33" x="190.869141"/>
       <use xlink:href="#DejaVuSans-2d" x="254.492188"/>
       <use xlink:href="#DejaVuSans-30" x="290.576172"/>
       <use xlink:href="#DejaVuSans-36" x="354.199219"/>
      </g>
     </g>
    </g>
    <g id="xtick_32">
     <g id="line2d_63">
      <path d="M 893.656286 567.74175 
L 893.656286 24.14175 
" clip-path="url(#p6ca93640c3)" style="fill: none; stroke: #ffffff; stroke-width: 0.8; stroke-linecap: square"/>
     </g>
     <g id="line2d_64">
      <g>
       <use xlink:href="#m6b0c3e541d" x="893.656286" y="567.74175" style="fill: #555555; stroke: #555555; stroke-width: 0.8"/>
      </g>
     </g>
     <g id="text_32">
      <!-- 2023-07 -->
      <g style="fill: #555555" transform="translate(880.835004 609.659567)rotate(-45)scale(0.1 -0.1)">
       <use xlink:href="#DejaVuSans-32"/>
       <use xlink:href="#DejaVuSans-30" x="63.623047"/>
       <use xlink:href="#DejaVuSans-32" x="127.246094"/>
       <use xlink:href="#DejaVuSans-33" x="190.869141"/>
       <use xlink:href="#DejaVuSans-2d" x="254.492188"/>
       <use xlink:href="#DejaVuSans-30" x="290.576172"/>
       <use xlink:href="#DejaVuSans-37" x="354.199219"/>
      </g>
     </g>
    </g>
    <g id="xtick_33">
     <g id="line2d_65">
      <path d="M 920.671889 567.74175 
L 920.671889 24.14175 
" clip-path="url(#p6ca93640c3)" style="fill: none; stroke: #ffffff; stroke-width: 0.8; stroke-linecap: square"/>
     </g>
     <g id="line2d_66">
      <g>
       <use xlink:href="#m6b0c3e541d" x="920.671889" y="567.74175" style="fill: #555555; stroke: #555555; stroke-width: 0.8"/>
      </g>
     </g>
     <g id="text_33">
      <!-- 2023-08 -->
      <g style="fill: #555555" transform="translate(907.850606 609.659567)rotate(-45)scale(0.1 -0.1)">
       <use xlink:href="#DejaVuSans-32"/>
       <use xlink:href="#DejaVuSans-30" x="63.623047"/>
       <use xlink:href="#DejaVuSans-32" x="127.246094"/>
       <use xlink:href="#DejaVuSans-33" x="190.869141"/>
       <use xlink:href="#DejaVuSans-2d" x="254.492188"/>
       <use xlink:href="#DejaVuSans-30" x="290.576172"/>
       <use xlink:href="#DejaVuSans-38" x="354.199219"/>
      </g>
     </g>
    </g>
    <g id="xtick_34">
     <g id="line2d_67">
      <path d="M 947.687491 567.74175 
L 947.687491 24.14175 
" clip-path="url(#p6ca93640c3)" style="fill: none; stroke: #ffffff; stroke-width: 0.8; stroke-linecap: square"/>
     </g>
     <g id="line2d_68">
      <g>
       <use xlink:href="#m6b0c3e541d" x="947.687491" y="567.74175" style="fill: #555555; stroke: #555555; stroke-width: 0.8"/>
      </g>
     </g>
     <g id="text_34">
      <!-- 2023-09 -->
      <g style="fill: #555555" transform="translate(934.866209 609.659567)rotate(-45)scale(0.1 -0.1)">
       <use xlink:href="#DejaVuSans-32"/>
       <use xlink:href="#DejaVuSans-30" x="63.623047"/>
       <use xlink:href="#DejaVuSans-32" x="127.246094"/>
       <use xlink:href="#DejaVuSans-33" x="190.869141"/>
       <use xlink:href="#DejaVuSans-2d" x="254.492188"/>
       <use xlink:href="#DejaVuSans-30" x="290.576172"/>
       <use xlink:href="#DejaVuSans-39" x="354.199219"/>
      </g>
     </g>
    </g>
    <g id="text_35">
     <!-- Date -->
     <g style="fill: #555555" transform="translate(485.410438 624.248253)scale(0.12 -0.12)">
      <defs>
       <path id="DejaVuSans-44" d="M 1259 4147 
L 1259 519 
L 2022 519 
Q 2988 519 3436 956 
Q 3884 1394 3884 2338 
Q 3884 3275 3436 3711 
Q 2988 4147 2022 4147 
L 1259 4147 
z
M 628 4666 
L 1925 4666 
Q 3281 4666 3915 4102 
Q 4550 3538 4550 2338 
Q 4550 1131 3912 565 
Q 3275 0 1925 0 
L 628 0 
L 628 4666 
z
" transform="scale(0.015625)"/>
       <path id="DejaVuSans-61" d="M 2194 1759 
Q 1497 1759 1228 1600 
Q 959 1441 959 1056 
Q 959 750 1161 570 
Q 1363 391 1709 391 
Q 2188 391 2477 730 
Q 2766 1069 2766 1631 
L 2766 1759 
L 2194 1759 
z
M 3341 1997 
L 3341 0 
L 2766 0 
L 2766 531 
Q 2569 213 2275 61 
Q 1981 -91 1556 -91 
Q 1019 -91 701 211 
Q 384 513 384 1019 
Q 384 1609 779 1909 
Q 1175 2209 1959 2209 
L 2766 2209 
L 2766 2266 
Q 2766 2663 2505 2880 
Q 2244 3097 1772 3097 
Q 1472 3097 1187 3025 
Q 903 2953 641 2809 
L 641 3341 
Q 956 3463 1253 3523 
Q 1550 3584 1831 3584 
Q 2591 3584 2966 3190 
Q 3341 2797 3341 1997 
z
" transform="scale(0.015625)"/>
       <path id="DejaVuSans-74" d="M 1172 4494 
L 1172 3500 
L 2356 3500 
L 2356 3053 
L 1172 3053 
L 1172 1153 
Q 1172 725 1289 603 
Q 1406 481 1766 481 
L 2356 481 
L 2356 0 
L 1766 0 
Q 1100 0 847 248 
Q 594 497 594 1153 
L 594 3053 
L 172 3053 
L 172 3500 
L 594 3500 
L 594 4494 
L 1172 4494 
z
" transform="scale(0.015625)"/>
       <path id="DejaVuSans-65" d="M 3597 1894 
L 3597 1613 
L 953 1613 
Q 991 1019 1311 708 
Q 1631 397 2203 397 
Q 2534 397 2845 478 
Q 3156 559 3463 722 
L 3463 178 
Q 3153 47 2828 -22 
Q 2503 -91 2169 -91 
Q 1331 -91 842 396 
Q 353 884 353 1716 
Q 353 2575 817 3079 
Q 1281 3584 2069 3584 
Q 2775 3584 3186 3129 
Q 3597 2675 3597 1894 
z
M 3022 2063 
Q 3016 2534 2758 2815 
Q 2500 3097 2075 3097 
Q 1594 3097 1305 2825 
Q 1016 2553 972 2059 
L 3022 2063 
z
" transform="scale(0.015625)"/>
      </defs>
      <use xlink:href="#DejaVuSans-44"/>
      <use xlink:href="#DejaVuSans-61" x="77.001953"/>
      <use xlink:href="#DejaVuSans-74" x="138.28125"/>
      <use xlink:href="#DejaVuSans-65" x="177.490234"/>
     </g>
    </g>
   </g>
   <g id="matplotlib.axis_2">
    <g id="ytick_1">
     <g id="line2d_69">
      <path d="M 48.329375 567.74175 
L 951.173375 567.74175 
" clip-path="url(#p6ca93640c3)" style="fill: none; stroke: #ffffff; stroke-width: 0.8; stroke-linecap: square"/>
     </g>
     <g id="line2d_70">
      <defs>
       <path id="m4d4239bf00" d="M 0 0 
L -3.5 0 
" style="stroke: #555555; stroke-width: 0.8"/>
      </defs>
      <g>
       <use xlink:href="#m4d4239bf00" x="48.329375" y="567.74175" style="fill: #555555; stroke: #555555; stroke-width: 0.8"/>
      </g>
     </g>
     <g id="text_36">
      <!-- 0k -->
      <g style="fill: #555555" transform="translate(29.17625 571.540969)scale(0.1 -0.1)">
       <defs>
        <path id="DejaVuSans-6b" d="M 581 4863 
L 1159 4863 
L 1159 1991 
L 2875 3500 
L 3609 3500 
L 1753 1863 
L 3688 0 
L 2938 0 
L 1159 1709 
L 1159 0 
L 581 0 
L 581 4863 
z
" transform="scale(0.015625)"/>
       </defs>
       <use xlink:href="#DejaVuSans-30"/>
       <use xlink:href="#DejaVuSans-6b" x="63.623047"/>
      </g>
     </g>
    </g>
    <g id="ytick_2">
     <g id="line2d_71">
      <path d="M 48.329375 498.139568 
L 951.173375 498.139568 
" clip-path="url(#p6ca93640c3)" style="fill: none; stroke: #ffffff; stroke-width: 0.8; stroke-linecap: square"/>
     </g>
     <g id="line2d_72">
      <g>
       <use xlink:href="#m4d4239bf00" x="48.329375" y="498.139568" style="fill: #555555; stroke: #555555; stroke-width: 0.8"/>
      </g>
     </g>
     <g id="text_37">
      <!-- 10k -->
      <g style="fill: #555555" transform="translate(22.81375 501.938787)scale(0.1 -0.1)">
       <use xlink:href="#DejaVuSans-31"/>
       <use xlink:href="#DejaVuSans-30" x="63.623047"/>
       <use xlink:href="#DejaVuSans-6b" x="127.246094"/>
      </g>
     </g>
    </g>
    <g id="ytick_3">
     <g id="line2d_73">
      <path d="M 48.329375 428.537386 
L 951.173375 428.537386 
" clip-path="url(#p6ca93640c3)" style="fill: none; stroke: #ffffff; stroke-width: 0.8; stroke-linecap: square"/>
     </g>
     <g id="line2d_74">
      <g>
       <use xlink:href="#m4d4239bf00" x="48.329375" y="428.537386" style="fill: #555555; stroke: #555555; stroke-width: 0.8"/>
      </g>
     </g>
     <g id="text_38">
      <!-- 20k -->
      <g style="fill: #555555" transform="translate(22.81375 432.336605)scale(0.1 -0.1)">
       <use xlink:href="#DejaVuSans-32"/>
       <use xlink:href="#DejaVuSans-30" x="63.623047"/>
       <use xlink:href="#DejaVuSans-6b" x="127.246094"/>
      </g>
     </g>
    </g>
    <g id="ytick_4">
     <g id="line2d_75">
      <path d="M 48.329375 358.935205 
L 951.173375 358.935205 
" clip-path="url(#p6ca93640c3)" style="fill: none; stroke: #ffffff; stroke-width: 0.8; stroke-linecap: square"/>
     </g>
     <g id="line2d_76">
      <g>
       <use xlink:href="#m4d4239bf00" x="48.329375" y="358.935205" style="fill: #555555; stroke: #555555; stroke-width: 0.8"/>
      </g>
     </g>
     <g id="text_39">
      <!-- 30k -->
      <g style="fill: #555555" transform="translate(22.81375 362.734423)scale(0.1 -0.1)">
       <use xlink:href="#DejaVuSans-33"/>
       <use xlink:href="#DejaVuSans-30" x="63.623047"/>
       <use xlink:href="#DejaVuSans-6b" x="127.246094"/>
      </g>
     </g>
    </g>
    <g id="ytick_5">
     <g id="line2d_77">
      <path d="M 48.329375 289.333023 
L 951.173375 289.333023 
" clip-path="url(#p6ca93640c3)" style="fill: none; stroke: #ffffff; stroke-width: 0.8; stroke-linecap: square"/>
     </g>
     <g id="line2d_78">
      <g>
       <use xlink:href="#m4d4239bf00" x="48.329375" y="289.333023" style="fill: #555555; stroke: #555555; stroke-width: 0.8"/>
      </g>
     </g>
     <g id="text_40">
      <!-- 40k -->
      <g style="fill: #555555" transform="translate(22.81375 293.132242)scale(0.1 -0.1)">
       <use xlink:href="#DejaVuSans-34"/>
       <use xlink:href="#DejaVuSans-30" x="63.623047"/>
       <use xlink:href="#DejaVuSans-6b" x="127.246094"/>
      </g>
     </g>
    </g>
    <g id="ytick_6">
     <g id="line2d_79">
      <path d="M 48.329375 219.730841 
L 951.173375 219.730841 
" clip-path="url(#p6ca93640c3)" style="fill: none; stroke: #ffffff; stroke-width: 0.8; stroke-linecap: square"/>
     </g>
     <g id="line2d_80">
      <g>
       <use xlink:href="#m4d4239bf00" x="48.329375" y="219.730841" style="fill: #555555; stroke: #555555; stroke-width: 0.8"/>
      </g>
     </g>
     <g id="text_41">
      <!-- 50k -->
      <g style="fill: #555555" transform="translate(22.81375 223.53006)scale(0.1 -0.1)">
       <use xlink:href="#DejaVuSans-35"/>
       <use xlink:href="#DejaVuSans-30" x="63.623047"/>
       <use xlink:href="#DejaVuSans-6b" x="127.246094"/>
      </g>
     </g>
    </g>
    <g id="ytick_7">
     <g id="line2d_81">
      <path d="M 48.329375 150.128659 
L 951.173375 150.128659 
" clip-path="url(#p6ca93640c3)" style="fill: none; stroke: #ffffff; stroke-width: 0.8; stroke-linecap: square"/>
     </g>
     <g id="line2d_82">
      <g>
       <use xlink:href="#m4d4239bf00" x="48.329375" y="150.128659" style="fill: #555555; stroke: #555555; stroke-width: 0.8"/>
      </g>
     </g>
     <g id="text_42">
      <!-- 60k -->
      <g style="fill: #555555" transform="translate(22.81375 153.927878)scale(0.1 -0.1)">
       <use xlink:href="#DejaVuSans-36"/>
       <use xlink:href="#DejaVuSans-30" x="63.623047"/>
       <use xlink:href="#DejaVuSans-6b" x="127.246094"/>
      </g>
     </g>
    </g>
    <g id="ytick_8">
     <g id="line2d_83">
      <path d="M 48.329375 80.526477 
L 951.173375 80.526477 
" clip-path="url(#p6ca93640c3)" style="fill: none; stroke: #ffffff; stroke-width: 0.8; stroke-linecap: square"/>
     </g>
     <g id="line2d_84">
      <g>
       <use xlink:href="#m4d4239bf00" x="48.329375" y="80.526477" style="fill: #555555; stroke: #555555; stroke-width: 0.8"/>
      </g>
     </g>
     <g id="text_43">
      <!-- 70k -->
      <g style="fill: #555555" transform="translate(22.81375 84.325696)scale(0.1 -0.1)">
       <use xlink:href="#DejaVuSans-37"/>
       <use xlink:href="#DejaVuSans-30" x="63.623047"/>
       <use xlink:href="#DejaVuSans-6b" x="127.246094"/>
      </g>
     </g>
    </g>
    <g id="text_44">
     <!-- Instances -->
     <g style="fill: #555555" transform="translate(16.318125 324.588)rotate(-90)scale(0.12 -0.12)">
      <defs>
       <path id="DejaVuSans-49" d="M 628 4666 
L 1259 4666 
L 1259 0 
L 628 0 
L 628 4666 
z
" transform="scale(0.015625)"/>
       <path id="DejaVuSans-6e" d="M 3513 2113 
L 3513 0 
L 2938 0 
L 2938 2094 
Q 2938 2591 2744 2837 
Q 2550 3084 2163 3084 
Q 1697 3084 1428 2787 
Q 1159 2491 1159 1978 
L 1159 0 
L 581 0 
L 581 3500 
L 1159 3500 
L 1159 2956 
Q 1366 3272 1645 3428 
Q 1925 3584 2291 3584 
Q 2894 3584 3203 3211 
Q 3513 2838 3513 2113 
z
" transform="scale(0.015625)"/>
       <path id="DejaVuSans-73" d="M 2834 3397 
L 2834 2853 
Q 2591 2978 2328 3040 
Q 2066 3103 1784 3103 
Q 1356 3103 1142 2972 
Q 928 2841 928 2578 
Q 928 2378 1081 2264 
Q 1234 2150 1697 2047 
L 1894 2003 
Q 2506 1872 2764 1633 
Q 3022 1394 3022 966 
Q 3022 478 2636 193 
Q 2250 -91 1575 -91 
Q 1294 -91 989 -36 
Q 684 19 347 128 
L 347 722 
Q 666 556 975 473 
Q 1284 391 1588 391 
Q 1994 391 2212 530 
Q 2431 669 2431 922 
Q 2431 1156 2273 1281 
Q 2116 1406 1581 1522 
L 1381 1569 
Q 847 1681 609 1914 
Q 372 2147 372 2553 
Q 372 3047 722 3315 
Q 1072 3584 1716 3584 
Q 2034 3584 2315 3537 
Q 2597 3491 2834 3397 
z
" transform="scale(0.015625)"/>
       <path id="DejaVuSans-63" d="M 3122 3366 
L 3122 2828 
Q 2878 2963 2633 3030 
Q 2388 3097 2138 3097 
Q 1578 3097 1268 2742 
Q 959 2388 959 1747 
Q 959 1106 1268 751 
Q 1578 397 2138 397 
Q 2388 397 2633 464 
Q 2878 531 3122 666 
L 3122 134 
Q 2881 22 2623 -34 
Q 2366 -91 2075 -91 
Q 1284 -91 818 406 
Q 353 903 353 1747 
Q 353 2603 823 3093 
Q 1294 3584 2113 3584 
Q 2378 3584 2631 3529 
Q 2884 3475 3122 3366 
z
" transform="scale(0.015625)"/>
      </defs>
      <use xlink:href="#DejaVuSans-49"/>
      <use xlink:href="#DejaVuSans-6e" x="29.492188"/>
      <use xlink:href="#DejaVuSans-73" x="92.871094"/>
      <use xlink:href="#DejaVuSans-74" x="144.970703"/>
      <use xlink:href="#DejaVuSans-61" x="184.179688"/>
      <use xlink:href="#DejaVuSans-6e" x="245.458984"/>
      <use xlink:href="#DejaVuSans-63" x="308.837891"/>
      <use xlink:href="#DejaVuSans-65" x="363.818359"/>
      <use xlink:href="#DejaVuSans-73" x="425.341797"/>
     </g>
    </g>
   </g>
   <g id="PolyCollection_1">
    <path d="M 48.329375 567.74175 
L 48.329375 567.74175 
L 54.429672 567.74175 
L 60.52997 567.74175 
L 66.630267 567.74175 
L 72.730564 567.74175 
L 78.830861 567.74175 
L 84.931159 567.74175 
L 91.031456 567.74175 
L 97.131753 567.74175 
L 103.232051 567.74175 
L 109.332348 567.74175 
L 115.432645 567.74175 
L 121.532943 567.74175 
L 127.63324 567.74175 
L 133.733537 567.74175 
L 139.833834 567.74175 
L 145.934132 567.74175 
L 152.034429 567.74175 
L 158.134726 567.74175 
L 164.235024 567.74175 
L 170.335321 567.74175 
L 176.435618 567.74175 
L 182.535916 567.74175 
L 188.636213 567.74175 
L 194.73651 567.74175 
L 200.836807 567.74175 
L 206.937105 567.74175 
L 213.037402 567.74175 
L 219.137699 567.74175 
L 225.237997 567.74175 
L 231.338294 567.74175 
L 237.438591 567.74175 
L 243.538889 567.74175 
L 249.639186 567.74175 
L 255.739483 567.74175 
L 261.83978 567.74175 
L 267.940078 567.74175 
L 274.040375 567.74175 
L 280.140672 567.74175 
L 286.24097 567.74175 
L 292.341267 567.74175 
L 298.441564 567.74175 
L 304.541861 567.74175 
L 310.642159 567.74175 
L 316.742456 567.74175 
L 322.842753 567.74175 
L 328.943051 567.74175 
L 335.043348 567.74175 
L 341.143645 567.74175 
L 347.243943 567.74175 
L 353.34424 567.74175 
L 359.444537 567.74175 
L 365.544834 567.74175 
L 371.645132 567.74175 
L 377.745429 567.74175 
L 383.845726 567.74175 
L 389.946024 567.74175 
L 396.046321 567.74175 
L 402.146618 567.74175 
L 408.246916 567.74175 
L 414.347213 567.74175 
L 420.44751 567.74175 
L 426.547807 567.74175 
L 432.648105 567.74175 
L 438.748402 567.74175 
L 444.848699 567.74175 
L 450.948997 567.74175 
L 457.049294 567.74175 
L 463.149591 567.74175 
L 469.249889 567.74175 
L 475.350186 567.74175 
L 481.450483 567.74175 
L 487.55078 567.74175 
L 493.651078 567.74175 
L 499.751375 567.74175 
L 505.851672 567.74175 
L 511.95197 567.74175 
L 518.052267 567.74175 
L 524.152564 567.74175 
L 530.252861 567.74175 
L 536.353159 567.74175 
L 542.453456 567.74175 
L 548.553753 567.74175 
L 554.654051 567.74175 
L 560.754348 567.74175 
L 566.854645 567.74175 
L 572.954943 567.74175 
L 579.05524 567.74175 
L 585.155537 567.74175 
L 591.255834 567.74175 
L 597.356132 567.74175 
L 603.456429 567.74175 
L 609.556726 567.74175 
L 615.657024 567.74175 
L 621.757321 567.74175 
L 627.857618 567.74175 
L 633.957916 567.74175 
L 640.058213 567.74175 
L 646.15851 567.74175 
L 652.258807 567.74175 
L 658.359105 567.74175 
L 664.459402 567.74175 
L 670.559699 567.74175 
L 676.659997 567.74175 
L 682.760294 567.74175 
L 688.860591 567.74175 
L 694.960889 567.74175 
L 701.061186 567.74175 
L 707.161483 567.74175 
L 713.26178 567.74175 
L 719.362078 567.74175 
L 725.462375 567.74175 
L 731.562672 567.74175 
L 737.66297 567.74175 
L 743.763267 567.74175 
L 749.863564 567.74175 
L 755.963861 567.74175 
L 762.064159 567.74175 
L 768.164456 567.74175 
L 774.264753 567.74175 
L 780.365051 567.74175 
L 786.465348 567.74175 
L 792.565645 567.74175 
L 798.665943 567.74175 
L 804.76624 567.74175 
L 810.866537 567.74175 
L 816.966834 567.74175 
L 823.067132 567.74175 
L 829.167429 567.74175 
L 835.267726 567.74175 
L 853.568618 567.74175 
L 859.668916 567.74175 
L 865.769213 567.74175 
L 871.86951 567.74175 
L 877.969807 567.74175 
L 884.070105 567.74175 
L 890.170402 567.74175 
L 896.270699 567.74175 
L 902.370997 567.74175 
L 908.471294 567.74175 
L 914.571591 567.74175 
L 920.671889 567.74175 
L 926.772186 567.74175 
L 932.872483 567.74175 
L 938.97278 567.74175 
L 945.073078 567.74175 
L 951.173375 567.74175 
L 951.173375 556.779406 
L 951.173375 556.779406 
L 945.073078 555.345601 
L 938.97278 555.450005 
L 932.872483 555.749294 
L 926.772186 554.781824 
L 920.671889 553.104411 
L 914.571591 555.547448 
L 908.471294 555.143755 
L 902.370997 549.972313 
L 896.270699 555.540488 
L 890.170402 557.900001 
L 884.070105 556.89077 
L 877.969807 555.721453 
L 871.86951 557.760797 
L 865.769213 557.809519 
L 859.668916 556.779406 
L 853.568618 559.939345 
L 835.267726 557.774718 
L 829.167429 557.398866 
L 823.067132 558.352416 
L 816.966834 558.728267 
L 810.866537 557.287502 
L 804.76624 558.776989 
L 798.665943 557.997445 
L 792.565645 560.551845 
L 786.465348 558.241052 
L 780.365051 558.408097 
L 774.264753 557.886081 
L 768.164456 559.104119 
L 762.064159 557.712076 
L 755.963861 558.616904 
L 749.863564 558.874432 
L 743.763267 559.125 
L 737.66297 557.53807 
L 731.562672 559.660937 
L 725.462375 557.461508 
L 719.362078 557.586792 
L 713.26178 557.614633 
L 707.161483 556.480117 
L 701.061186 557.148298 
L 694.960889 557.816479 
L 688.860591 559.173721 
L 682.760294 559.201562 
L 676.659997 559.862783 
L 670.559699 558.783949 
L 664.459402 559.681817 
L 658.359105 559.43821 
L 652.258807 560.008948 
L 646.15851 560.934657 
L 640.058213 559.918465 
L 633.957916 560.489203 
L 627.857618 557.649434 
L 621.757321 561.435792 
L 615.657024 561.644599 
L 609.556726 561.066901 
L 603.456429 560.830253 
L 597.356132 560.572725 
L 591.255834 560.614487 
L 585.155537 560.71889 
L 579.05524 560.231675 
L 572.954943 560.781532 
L 566.854645 560.614487 
L 560.754348 560.370879 
L 554.654051 559.389488 
L 548.553753 559.055398 
L 542.453456 562.187496 
L 536.353159 561.05298 
L 530.252861 560.287356 
L 524.152564 560.774572 
L 518.052267 560.906816 
L 511.95197 560.920736 
L 505.851672 560.162072 
L 499.751375 560.461362 
L 493.651078 561.449713 
L 487.55078 562.00653 
L 481.450483 561.540196 
L 475.350186 560.287356 
L 469.249889 561.595877 
L 463.149591 560.670168 
L 457.049294 561.185224 
L 450.948997 560.614487 
L 444.848699 562.368462 
L 438.748402 561.505395 
L 432.648105 561.407951 
L 426.547807 561.902127 
L 420.44751 562.820876 
L 414.347213 563.489057 
L 408.246916 562.472865 
L 402.146618 561.811644 
L 396.046321 561.505395 
L 389.946024 561.929968 
L 383.845726 562.173575 
L 377.745429 564.157238 
L 371.645132 562.96008 
L 365.544834 562.563348 
L 359.444537 561.964769 
L 353.34424 562.716472 
L 347.243943 562.96704 
L 341.143645 563.175847 
L 335.043348 562.758234 
L 328.943051 561.867326 
L 322.842753 561.101702 
L 316.742456 561.581957 
L 310.642159 561.380111 
L 304.541861 561.616758 
L 298.441564 561.533235 
L 292.341267 562.63991 
L 286.24097 562.556387 
L 280.140672 562.215337 
L 274.040375 562.417183 
L 267.940078 562.709512 
L 261.83978 563.732664 
L 255.739483 564.505249 
L 249.639186 563.391614 
L 243.538889 563.753545 
L 237.438591 563.802267 
L 231.338294 563.238489 
L 225.237997 563.983232 
L 219.137699 563.90667 
L 213.037402 563.788346 
L 206.937105 564.178118 
L 200.836807 563.816187 
L 194.73651 564.164198 
L 188.636213 564.373004 
L 182.535916 563.92059 
L 176.435618 564.797578 
L 170.335321 564.651413 
L 164.235024 564.505249 
L 158.134726 564.86718 
L 152.034429 564.588771 
L 145.934132 563.962352 
L 139.833834 564.505249 
L 133.733537 563.976272 
L 127.63324 552.185662 
L 121.532943 562.076132 
L 115.432645 563.328972 
L 109.332348 564.741896 
L 103.232051 566.064337 
L 97.131753 565.639764 
L 91.031456 565.354395 
L 84.931159 566.440189 
L 78.830861 565.730247 
L 72.730564 565.368316 
L 66.630267 565.765048 
L 60.52997 566.871723 
L 54.429672 567.74175 
L 48.329375 567.74175 
z
" clip-path="url(#p6ca93640c3)" style="fill: #e24a33"/>
   </g>
   <g id="PolyCollection_2">
    <path d="M 48.329375 567.73479 
L 48.329375 567.74175 
L 54.429672 567.74175 
L 60.52997 566.871723 
L 66.630267 565.765048 
L 72.730564 565.368316 
L 78.830861 565.730247 
L 84.931159 566.440189 
L 91.031456 565.354395 
L 97.131753 565.639764 
L 103.232051 566.064337 
L 109.332348 564.741896 
L 115.432645 563.328972 
L 121.532943 562.076132 
L 127.63324 552.185662 
L 133.733537 563.976272 
L 139.833834 564.505249 
L 145.934132 563.962352 
L 152.034429 564.588771 
L 158.134726 564.86718 
L 164.235024 564.505249 
L 170.335321 564.651413 
L 176.435618 564.797578 
L 182.535916 563.92059 
L 188.636213 564.373004 
L 194.73651 564.164198 
L 200.836807 563.816187 
L 206.937105 564.178118 
L 213.037402 563.788346 
L 219.137699 563.90667 
L 225.237997 563.983232 
L 231.338294 563.238489 
L 237.438591 563.802267 
L 243.538889 563.753545 
L 249.639186 563.391614 
L 255.739483 564.505249 
L 261.83978 563.732664 
L 267.940078 562.709512 
L 274.040375 562.417183 
L 280.140672 562.215337 
L 286.24097 562.556387 
L 292.341267 562.63991 
L 298.441564 561.533235 
L 304.541861 561.616758 
L 310.642159 561.380111 
L 316.742456 561.581957 
L 322.842753 561.101702 
L 328.943051 561.867326 
L 335.043348 562.758234 
L 341.143645 563.175847 
L 347.243943 562.96704 
L 353.34424 562.716472 
L 359.444537 561.964769 
L 365.544834 562.563348 
L 371.645132 562.96008 
L 377.745429 564.157238 
L 383.845726 562.173575 
L 389.946024 561.929968 
L 396.046321 561.505395 
L 402.146618 561.811644 
L 408.246916 562.472865 
L 414.347213 563.489057 
L 420.44751 562.820876 
L 426.547807 561.902127 
L 432.648105 561.407951 
L 438.748402 561.505395 
L 444.848699 562.368462 
L 450.948997 560.614487 
L 457.049294 561.185224 
L 463.149591 560.670168 
L 469.249889 561.595877 
L 475.350186 560.287356 
L 481.450483 561.540196 
L 487.55078 562.00653 
L 493.651078 561.449713 
L 499.751375 560.461362 
L 505.851672 560.162072 
L 511.95197 560.920736 
L 518.052267 560.906816 
L 524.152564 560.774572 
L 530.252861 560.287356 
L 536.353159 561.05298 
L 542.453456 562.187496 
L 548.553753 559.055398 
L 554.654051 559.389488 
L 560.754348 560.370879 
L 566.854645 560.614487 
L 572.954943 560.781532 
L 579.05524 560.231675 
L 585.155537 560.71889 
L 591.255834 560.614487 
L 597.356132 560.572725 
L 603.456429 560.830253 
L 609.556726 561.066901 
L 615.657024 561.644599 
L 621.757321 561.435792 
L 627.857618 557.649434 
L 633.957916 560.489203 
L 640.058213 559.918465 
L 646.15851 560.934657 
L 652.258807 560.008948 
L 658.359105 559.43821 
L 664.459402 559.681817 
L 670.559699 558.783949 
L 676.659997 559.862783 
L 682.760294 559.201562 
L 688.860591 559.173721 
L 694.960889 557.816479 
L 701.061186 557.148298 
L 707.161483 556.480117 
L 713.26178 557.614633 
L 719.362078 557.586792 
L 725.462375 557.461508 
L 731.562672 559.660937 
L 737.66297 557.53807 
L 743.763267 559.125 
L 749.863564 558.874432 
L 755.963861 558.616904 
L 762.064159 557.712076 
L 768.164456 559.104119 
L 774.264753 557.886081 
L 780.365051 558.408097 
L 786.465348 558.241052 
L 792.565645 560.551845 
L 798.665943 557.997445 
L 804.76624 558.776989 
L 810.866537 557.287502 
L 816.966834 558.728267 
L 823.067132 558.352416 
L 829.167429 557.398866 
L 835.267726 557.774718 
L 853.568618 559.939345 
L 859.668916 556.779406 
L 865.769213 557.809519 
L 871.86951 557.760797 
L 877.969807 555.721453 
L 884.070105 556.89077 
L 890.170402 557.900001 
L 896.270699 555.540488 
L 902.370997 549.972313 
L 908.471294 555.143755 
L 914.571591 555.547448 
L 920.671889 553.104411 
L 926.772186 554.781824 
L 932.872483 555.749294 
L 938.97278 555.450005 
L 945.073078 555.345601 
L 951.173375 556.779406 
L 951.173375 528.451318 
L 951.173375 528.451318 
L 945.073078 529.564953 
L 938.97278 529.516232 
L 932.872483 531.395491 
L 926.772186 527.010553 
L 920.671889 523.252035 
L 914.571591 528.068506 
L 908.471294 526.328452 
L 902.370997 515.40787 
L 896.270699 529.321346 
L 890.170402 531.715661 
L 884.070105 530.713389 
L 877.969807 526.864389 
L 871.86951 531.311968 
L 865.769213 528.82021 
L 859.668916 532.195916 
L 853.568618 533.156426 
L 835.267726 534.339663 
L 829.167429 534.527589 
L 823.067132 537.952016 
L 816.966834 537.137671 
L 810.866537 535.230571 
L 804.76624 535.077446 
L 798.665943 535.223611 
L 792.565645 539.462384 
L 786.465348 533.372193 
L 780.365051 536.281564 
L 774.264753 536.044916 
L 768.164456 538.007698 
L 762.064159 531.611257 
L 755.963861 535.174889 
L 749.863564 536.692217 
L 743.763267 536.775739 
L 737.66297 535.341934 
L 731.562672 541.536529 
L 725.462375 537.10287 
L 719.362078 535.160969 
L 713.26178 535.968354 
L 707.161483 531.966229 
L 701.061186 532.64137 
L 694.960889 535.293213 
L 688.860591 533.845487 
L 682.760294 529.342226 
L 676.659997 534.492788 
L 670.559699 530.490662 
L 664.459402 535.592502 
L 658.359105 536.406848 
L 652.258807 539.100452 
L 646.15851 541.153717 
L 640.058213 540.756984 
L 633.957916 542.114227 
L 627.857618 534.812958 
L 621.757321 542.169908 
L 615.657024 544.042207 
L 609.556726 544.571184 
L 603.456429 540.596899 
L 597.356132 541.995903 
L 591.255834 542.100306 
L 585.155537 544.12573 
L 579.05524 542.636243 
L 572.954943 543.520191 
L 566.854645 541.529568 
L 560.754348 541.57829 
L 554.654051 543.081697 
L 548.553753 540.283689 
L 542.453456 545.984108 
L 536.353159 546.178994 
L 530.252861 543.861241 
L 524.152564 544.814791 
L 518.052267 545.302007 
L 511.95197 543.882122 
L 505.851672 543.798599 
L 499.751375 545.705699 
L 493.651078 545.942347 
L 487.55078 547.403992 
L 481.450483 548.990922 
L 475.350186 546.262517 
L 469.249889 547.64064 
L 463.149591 546.742772 
L 457.049294 548.051293 
L 450.948997 545.7405 
L 444.848699 547.571038 
L 438.748402 548.141776 
L 432.648105 548.566349 
L 426.547807 549.387655 
L 420.44751 550.271602 
L 414.347213 552.944326 
L 408.246916 550.918903 
L 402.146618 549.512939 
L 396.046321 548.642911 
L 389.946024 550.348165 
L 383.845726 551.16251 
L 377.745429 554.559097 
L 371.645132 550.271602 
L 365.544834 551.002425 
L 359.444537 549.192769 
L 353.34424 550.675295 
L 347.243943 550.772738 
L 341.143645 551.809811 
L 335.043348 551.092908 
L 328.943051 550.334244 
L 322.842753 550.062796 
L 316.742456 551.211232 
L 310.642159 550.021035 
L 304.541861 548.886519 
L 298.441564 550.536091 
L 292.341267 551.413078 
L 286.24097 552.42231 
L 280.140672 552.317907 
L 274.040375 553.744751 
L 267.940078 553.146172 
L 261.83978 554.32941 
L 255.739483 554.294608 
L 249.639186 554.155404 
L 243.538889 555.637931 
L 237.438591 555.032392 
L 231.338294 555.505686 
L 225.237997 557.266622 
L 219.137699 558.846591 
L 213.037402 556.786367 
L 206.937105 555.93026 
L 200.836807 555.477846 
L 194.73651 555.519607 
L 188.636213 556.25739 
L 182.535916 556.800287 
L 176.435618 556.299151 
L 170.335321 558.136649 
L 164.235024 557.252701 
L 158.134726 557.628553 
L 152.034429 556.862929 
L 145.934132 556.292191 
L 139.833834 558.582103 
L 133.733537 557.579831 
L 127.63324 546.185954 
L 121.532943 556.946452 
L 115.432645 557.830399 
L 109.332348 559.278125 
L 103.232051 562.229257 
L 97.131753 563.5865 
L 91.031456 563.154966 
L 84.931159 562.354541 
L 78.830861 560.614487 
L 72.730564 559.243324 
L 66.630267 559.570454 
L 60.52997 562.883518 
L 54.429672 567.73479 
L 48.329375 567.73479 
z
" clip-path="url(#p6ca93640c3)" style="fill: #348abd"/>
   </g>
   <g id="PolyCollection_3">
    <path d="M 48.329375 567.720869 
L 48.329375 567.73479 
L 54.429672 567.73479 
L 60.52997 562.883518 
L 66.630267 559.570454 
L 72.730564 559.243324 
L 78.830861 560.614487 
L 84.931159 562.354541 
L 91.031456 563.154966 
L 97.131753 563.5865 
L 103.232051 562.229257 
L 109.332348 559.278125 
L 115.432645 557.830399 
L 121.532943 556.946452 
L 127.63324 546.185954 
L 133.733537 557.579831 
L 139.833834 558.582103 
L 145.934132 556.292191 
L 152.034429 556.862929 
L 158.134726 557.628553 
L 164.235024 557.252701 
L 170.335321 558.136649 
L 176.435618 556.299151 
L 182.535916 556.800287 
L 188.636213 556.25739 
L 194.73651 555.519607 
L 200.836807 555.477846 
L 206.937105 555.93026 
L 213.037402 556.786367 
L 219.137699 558.846591 
L 225.237997 557.266622 
L 231.338294 555.505686 
L 237.438591 555.032392 
L 243.538889 555.637931 
L 249.639186 554.155404 
L 255.739483 554.294608 
L 261.83978 554.32941 
L 267.940078 553.146172 
L 274.040375 553.744751 
L 280.140672 552.317907 
L 286.24097 552.42231 
L 292.341267 551.413078 
L 298.441564 550.536091 
L 304.541861 548.886519 
L 310.642159 550.021035 
L 316.742456 551.211232 
L 322.842753 550.062796 
L 328.943051 550.334244 
L 335.043348 551.092908 
L 341.143645 551.809811 
L 347.243943 550.772738 
L 353.34424 550.675295 
L 359.444537 549.192769 
L 365.544834 551.002425 
L 371.645132 550.271602 
L 377.745429 554.559097 
L 383.845726 551.16251 
L 389.946024 550.348165 
L 396.046321 548.642911 
L 402.146618 549.512939 
L 408.246916 550.918903 
L 414.347213 552.944326 
L 420.44751 550.271602 
L 426.547807 549.387655 
L 432.648105 548.566349 
L 438.748402 548.141776 
L 444.848699 547.571038 
L 450.948997 545.7405 
L 457.049294 548.051293 
L 463.149591 546.742772 
L 469.249889 547.64064 
L 475.350186 546.262517 
L 481.450483 548.990922 
L 487.55078 547.403992 
L 493.651078 545.942347 
L 499.751375 545.705699 
L 505.851672 543.798599 
L 511.95197 543.882122 
L 518.052267 545.302007 
L 524.152564 544.814791 
L 530.252861 543.861241 
L 536.353159 546.178994 
L 542.453456 545.984108 
L 548.553753 540.283689 
L 554.654051 543.081697 
L 560.754348 541.57829 
L 566.854645 541.529568 
L 572.954943 543.520191 
L 579.05524 542.636243 
L 585.155537 544.12573 
L 591.255834 542.100306 
L 597.356132 541.995903 
L 603.456429 540.596899 
L 609.556726 544.571184 
L 615.657024 544.042207 
L 621.757321 542.169908 
L 627.857618 534.812958 
L 633.957916 542.114227 
L 640.058213 540.756984 
L 646.15851 541.153717 
L 652.258807 539.100452 
L 658.359105 536.406848 
L 664.459402 535.592502 
L 670.559699 530.490662 
L 676.659997 534.492788 
L 682.760294 529.342226 
L 688.860591 533.845487 
L 694.960889 535.293213 
L 701.061186 532.64137 
L 707.161483 531.966229 
L 713.26178 535.968354 
L 719.362078 535.160969 
L 725.462375 537.10287 
L 731.562672 541.536529 
L 737.66297 535.341934 
L 743.763267 536.775739 
L 749.863564 536.692217 
L 755.963861 535.174889 
L 762.064159 531.611257 
L 768.164456 538.007698 
L 774.264753 536.044916 
L 780.365051 536.281564 
L 786.465348 533.372193 
L 792.565645 539.462384 
L 798.665943 535.223611 
L 804.76624 535.077446 
L 810.866537 535.230571 
L 816.966834 537.137671 
L 823.067132 537.952016 
L 829.167429 534.527589 
L 835.267726 534.339663 
L 853.568618 533.156426 
L 859.668916 532.195916 
L 865.769213 528.82021 
L 871.86951 531.311968 
L 877.969807 526.864389 
L 884.070105 530.713389 
L 890.170402 531.715661 
L 896.270699 529.321346 
L 902.370997 515.40787 
L 908.471294 526.328452 
L 914.571591 528.068506 
L 920.671889 523.252035 
L 926.772186 527.010553 
L 932.872483 531.395491 
L 938.97278 529.516232 
L 945.073078 529.564953 
L 951.173375 528.451318 
L 951.173375 85.06454 
L 951.173375 85.06454 
L 945.073078 70.162713 
L 938.97278 88.642092 
L 932.872483 109.188656 
L 926.772186 118.083815 
L 920.671889 129.533374 
L 914.571591 119.287933 
L 908.471294 63.842834 
L 902.370997 24.14175 
L 896.270699 123.651989 
L 890.170402 65.30448 
L 884.070105 135.018026 
L 877.969807 80.59608 
L 871.86951 146.704232 
L 865.769213 152.968428 
L 859.668916 207.195488 
L 853.568618 255.527243 
L 835.267726 247.474271 
L 829.167429 256.961048 
L 823.067132 310.123195 
L 816.966834 316.916367 
L 810.866537 320.285113 
L 804.76624 314.361967 
L 798.665943 320.869771 
L 792.565645 329.973737 
L 786.465348 326.57019 
L 780.365051 317.118214 
L 774.264753 279.35903 
L 768.164456 342.536931 
L 762.064159 326.681554 
L 755.963861 316.129863 
L 749.863564 348.376554 
L 743.763267 368.213175 
L 737.66297 381.12438 
L 731.562672 412.013828 
L 725.462375 376.488875 
L 719.362078 364.190169 
L 713.26178 377.477226 
L 707.161483 370.955501 
L 701.061186 392.734024 
L 694.960889 367.746841 
L 688.860591 365.359486 
L 682.760294 374.031918 
L 676.659997 381.848243 
L 670.559699 402.520091 
L 664.459402 420.185125 
L 658.359105 412.793373 
L 652.258807 393.047234 
L 646.15851 379.579212 
L 640.058213 400.070094 
L 633.957916 396.409019 
L 627.857618 405.700911 
L 621.757321 422.57944 
L 615.657024 444.580689 
L 609.556726 417.039106 
L 603.456429 409.257582 
L 597.356132 431.53028 
L 591.255834 419.266376 
L 585.155537 427.521195 
L 579.05524 429.149886 
L 572.954943 414.839677 
L 566.854645 431.989655 
L 560.754348 452.5919 
L 554.654051 417.658565 
L 548.553753 438.107686 
L 542.453456 456.051129 
L 536.353159 455.967606 
L 530.252861 444.956541 
L 524.152564 465.503105 
L 518.052267 454.331955 
L 511.95197 461.674985 
L 505.851672 460.902401 
L 499.751375 465.475264 
L 493.651078 463.463761 
L 487.55078 480.732063 
L 481.450483 462.990466 
L 475.350186 447.963355 
L 469.249889 449.181394 
L 463.149591 446.348585 
L 457.049294 461.549701 
L 450.948997 491.958894 
L 444.848699 494.290568 
L 438.748402 265.93973 
L 432.648105 114.708109 
L 426.547807 243.158935 
L 420.44751 366.862893 
L 414.347213 399.798646 
L 408.246916 381.145261 
L 402.146618 335.026855 
L 396.046321 347.652691 
L 389.946024 341.353694 
L 383.845726 371.352234 
L 377.745429 415.786267 
L 371.645132 341.430256 
L 365.544834 312.559271 
L 359.444537 357.654524 
L 353.34424 402.708017 
L 347.243943 402.074637 
L 341.143645 412.020789 
L 335.043348 407.809857 
L 328.943051 431.82957 
L 322.842753 335.319184 
L 316.742456 469.915883 
L 310.642159 461.695866 
L 304.541861 468.001823 
L 298.441564 482.618282 
L 292.341267 500.227634 
L 286.24097 490.907902 
L 280.140672 490.170118 
L 274.040375 498.654624 
L 267.940078 506.909443 
L 261.83978 510.403473 
L 255.739483 516.792953 
L 249.639186 523.961978 
L 243.538889 503.812146 
L 237.438591 514.544802 
L 231.338294 515.783721 
L 225.237997 515.72804 
L 219.137699 521.017805 
L 213.037402 484.956915 
L 206.937105 508.155322 
L 200.836807 513.333724 
L 194.73651 526.523338 
L 188.636213 537.875454 
L 182.535916 526.801747 
L 176.435618 531.207565 
L 170.335321 540.144485 
L 164.235024 536.622615 
L 158.134726 535.884831 
L 152.034429 537.527443 
L 145.934132 533.316511 
L 139.833834 542.260391 
L 133.733537 538.829004 
L 127.63324 529.488391 
L 121.532943 543.262663 
L 115.432645 535.028725 
L 109.332348 537.931136 
L 103.232051 546.645329 
L 97.131753 549.352854 
L 91.031456 550.369045 
L 84.931159 546.805414 
L 78.830861 541.501727 
L 72.730564 537.075029 
L 66.630267 539.156134 
L 60.52997 556.480117 
L 54.429672 567.706949 
L 48.329375 567.720869 
z
" clip-path="url(#p6ca93640c3)" style="fill: #988ed5"/>
   </g>
   <g id="patch_3">
    <path d="M 48.329375 567.74175 
L 48.329375 24.14175 
" style="fill: none; stroke: #ffffff; stroke-linejoin: miter; stroke-linecap: square"/>
   </g>
   <g id="patch_4">
    <path d="M 951.173375 567.74175 
L 951.173375 24.14175 
" style="fill: none; stroke: #ffffff; stroke-linejoin: miter; stroke-linecap: square"/>
   </g>
   <g id="patch_5">
    <path d="M 48.329375 567.74175 
L 951.173375 567.74175 
" style="fill: none; stroke: #ffffff; stroke-linejoin: miter; stroke-linecap: square"/>
   </g>
   <g id="patch_6">
    <path d="M 48.329375 24.14175 
L 951.173375 24.14175 
" style="fill: none; stroke: #ffffff; stroke-linejoin: miter; stroke-linecap: square"/>
   </g>
   <g id="text_45">
    <!-- AltArch Enterprise Linux 8 and 9 Instances by Architecture -->
    <g transform="translate(289.02875 18.14175)scale(0.144 -0.144)">
     <defs>
      <path id="DejaVuSans-41" d="M 2188 4044 
L 1331 1722 
L 3047 1722 
L 2188 4044 
z
M 1831 4666 
L 2547 4666 
L 4325 0 
L 3669 0 
L 3244 1197 
L 1141 1197 
L 716 0 
L 50 0 
L 1831 4666 
z
" transform="scale(0.015625)"/>
      <path id="DejaVuSans-6c" d="M 603 4863 
L 1178 4863 
L 1178 0 
L 603 0 
L 603 4863 
z
" transform="scale(0.015625)"/>
      <path id="DejaVuSans-72" d="M 2631 2963 
Q 2534 3019 2420 3045 
Q 2306 3072 2169 3072 
Q 1681 3072 1420 2755 
Q 1159 2438 1159 1844 
L 1159 0 
L 581 0 
L 581 3500 
L 1159 3500 
L 1159 2956 
Q 1341 3275 1631 3429 
Q 1922 3584 2338 3584 
Q 2397 3584 2469 3576 
Q 2541 3569 2628 3553 
L 2631 2963 
z
" transform="scale(0.015625)"/>
      <path id="DejaVuSans-68" d="M 3513 2113 
L 3513 0 
L 2938 0 
L 2938 2094 
Q 2938 2591 2744 2837 
Q 2550 3084 2163 3084 
Q 1697 3084 1428 2787 
Q 1159 2491 1159 1978 
L 1159 0 
L 581 0 
L 581 4863 
L 1159 4863 
L 1159 2956 
Q 1366 3272 1645 3428 
Q 1925 3584 2291 3584 
Q 2894 3584 3203 3211 
Q 3513 2838 3513 2113 
z
" transform="scale(0.015625)"/>
      <path id="DejaVuSans-20" transform="scale(0.015625)"/>
      <path id="DejaVuSans-45" d="M 628 4666 
L 3578 4666 
L 3578 4134 
L 1259 4134 
L 1259 2753 
L 3481 2753 
L 3481 2222 
L 1259 2222 
L 1259 531 
L 3634 531 
L 3634 0 
L 628 0 
L 628 4666 
z
" transform="scale(0.015625)"/>
      <path id="DejaVuSans-70" d="M 1159 525 
L 1159 -1331 
L 581 -1331 
L 581 3500 
L 1159 3500 
L 1159 2969 
Q 1341 3281 1617 3432 
Q 1894 3584 2278 3584 
Q 2916 3584 3314 3078 
Q 3713 2572 3713 1747 
Q 3713 922 3314 415 
Q 2916 -91 2278 -91 
Q 1894 -91 1617 61 
Q 1341 213 1159 525 
z
M 3116 1747 
Q 3116 2381 2855 2742 
Q 2594 3103 2138 3103 
Q 1681 3103 1420 2742 
Q 1159 2381 1159 1747 
Q 1159 1113 1420 752 
Q 1681 391 2138 391 
Q 2594 391 2855 752 
Q 3116 1113 3116 1747 
z
" transform="scale(0.015625)"/>
      <path id="DejaVuSans-69" d="M 603 3500 
L 1178 3500 
L 1178 0 
L 603 0 
L 603 3500 
z
M 603 4863 
L 1178 4863 
L 1178 4134 
L 603 4134 
L 603 4863 
z
" transform="scale(0.015625)"/>
      <path id="DejaVuSans-4c" d="M 628 4666 
L 1259 4666 
L 1259 531 
L 3531 531 
L 3531 0 
L 628 0 
L 628 4666 
z
" transform="scale(0.015625)"/>
      <path id="DejaVuSans-75" d="M 544 1381 
L 544 3500 
L 1119 3500 
L 1119 1403 
Q 1119 906 1312 657 
Q 1506 409 1894 409 
Q 2359 409 2629 706 
Q 2900 1003 2900 1516 
L 2900 3500 
L 3475 3500 
L 3475 0 
L 2900 0 
L 2900 538 
Q 2691 219 2414 64 
Q 2138 -91 1772 -91 
Q 1169 -91 856 284 
Q 544 659 544 1381 
z
M 1991 3584 
L 1991 3584 
z
" transform="scale(0.015625)"/>
      <path id="DejaVuSans-78" d="M 3513 3500 
L 2247 1797 
L 3578 0 
L 2900 0 
L 1881 1375 
L 863 0 
L 184 0 
L 1544 1831 
L 300 3500 
L 978 3500 
L 1906 2253 
L 2834 3500 
L 3513 3500 
z
" transform="scale(0.015625)"/>
      <path id="DejaVuSans-64" d="M 2906 2969 
L 2906 4863 
L 3481 4863 
L 3481 0 
L 2906 0 
L 2906 525 
Q 2725 213 2448 61 
Q 2172 -91 1784 -91 
Q 1150 -91 751 415 
Q 353 922 353 1747 
Q 353 2572 751 3078 
Q 1150 3584 1784 3584 
Q 2172 3584 2448 3432 
Q 2725 3281 2906 2969 
z
M 947 1747 
Q 947 1113 1208 752 
Q 1469 391 1925 391 
Q 2381 391 2643 752 
Q 2906 1113 2906 1747 
Q 2906 2381 2643 2742 
Q 2381 3103 1925 3103 
Q 1469 3103 1208 2742 
Q 947 2381 947 1747 
z
" transform="scale(0.015625)"/>
      <path id="DejaVuSans-62" d="M 3116 1747 
Q 3116 2381 2855 2742 
Q 2594 3103 2138 3103 
Q 1681 3103 1420 2742 
Q 1159 2381 1159 1747 
Q 1159 1113 1420 752 
Q 1681 391 2138 391 
Q 2594 391 2855 752 
Q 3116 1113 3116 1747 
z
M 1159 2969 
Q 1341 3281 1617 3432 
Q 1894 3584 2278 3584 
Q 2916 3584 3314 3078 
Q 3713 2572 3713 1747 
Q 3713 922 3314 415 
Q 2916 -91 2278 -91 
Q 1894 -91 1617 61 
Q 1341 213 1159 525 
L 1159 0 
L 581 0 
L 581 4863 
L 1159 4863 
L 1159 2969 
z
" transform="scale(0.015625)"/>
      <path id="DejaVuSans-79" d="M 2059 -325 
Q 1816 -950 1584 -1140 
Q 1353 -1331 966 -1331 
L 506 -1331 
L 506 -850 
L 844 -850 
Q 1081 -850 1212 -737 
Q 1344 -625 1503 -206 
L 1606 56 
L 191 3500 
L 800 3500 
L 1894 763 
L 2988 3500 
L 3597 3500 
L 2059 -325 
z
" transform="scale(0.015625)"/>
     </defs>
     <use xlink:href="#DejaVuSans-41"/>
     <use xlink:href="#DejaVuSans-6c" x="68.408203"/>
     <use xlink:href="#DejaVuSans-74" x="96.191406"/>
     <use xlink:href="#DejaVuSans-41" x="135.400391"/>
     <use xlink:href="#DejaVuSans-72" x="203.808594"/>
     <use xlink:href="#DejaVuSans-63" x="242.671875"/>
     <use xlink:href="#DejaVuSans-68" x="297.652344"/>
     <use xlink:href="#DejaVuSans-20" x="361.03125"/>
     <use xlink:href="#DejaVuSans-45" x="392.818359"/>
     <use xlink:href="#DejaVuSans-6e" x="456.001953"/>
     <use xlink:href="#DejaVuSans-74" x="519.380859"/>
     <use xlink:href="#DejaVuSans-65" x="558.589844"/>
     <use xlink:href="#DejaVuSans-72" x="620.113281"/>
     <use xlink:href="#DejaVuSans-70" x="661.226562"/>
     <use xlink:href="#DejaVuSans-72" x="724.703125"/>
     <use xlink:href="#DejaVuSans-69" x="765.816406"/>
     <use xlink:href="#DejaVuSans-73" x="793.599609"/>
     <use xlink:href="#DejaVuSans-65" x="845.699219"/>
     <use xlink:href="#DejaVuSans-20" x="907.222656"/>
     <use xlink:href="#DejaVuSans-4c" x="939.009766"/>
     <use xlink:href="#DejaVuSans-69" x="994.722656"/>
     <use xlink:href="#DejaVuSans-6e" x="1022.505859"/>
     <use xlink:href="#DejaVuSans-75" x="1085.884766"/>
     <use xlink:href="#DejaVuSans-78" x="1149.263672"/>
     <use xlink:href="#DejaVuSans-20" x="1208.443359"/>
     <use xlink:href="#DejaVuSans-38" x="1240.230469"/>
     <use xlink:href="#DejaVuSans-20" x="1303.853516"/>
     <use xlink:href="#DejaVuSans-61" x="1335.640625"/>
     <use xlink:href="#DejaVuSans-6e" x="1396.919922"/>
     <use xlink:href="#DejaVuSans-64" x="1460.298828"/>
     <use xlink:href="#DejaVuSans-20" x="1523.775391"/>
     <use xlink:href="#DejaVuSans-39" x="1555.5625"/>
     <use xlink:href="#DejaVuSans-20" x="1619.185547"/>
     <use xlink:href="#DejaVuSans-49" x="1650.972656"/>
     <use xlink:href="#DejaVuSans-6e" x="1680.464844"/>
     <use xlink:href="#DejaVuSans-73" x="1743.84375"/>
     <use xlink:href="#DejaVuSans-74" x="1795.943359"/>
     <use xlink:href="#DejaVuSans-61" x="1835.152344"/>
     <use xlink:href="#DejaVuSans-6e" x="1896.431641"/>
     <use xlink:href="#DejaVuSans-63" x="1959.810547"/>
     <use xlink:href="#DejaVuSans-65" x="2014.791016"/>
     <use xlink:href="#DejaVuSans-73" x="2076.314453"/>
     <use xlink:href="#DejaVuSans-20" x="2128.414062"/>
     <use xlink:href="#DejaVuSans-62" x="2160.201172"/>
     <use xlink:href="#DejaVuSans-79" x="2223.677734"/>
     <use xlink:href="#DejaVuSans-20" x="2282.857422"/>
     <use xlink:href="#DejaVuSans-41" x="2314.644531"/>
     <use xlink:href="#DejaVuSans-72" x="2383.052734"/>
     <use xlink:href="#DejaVuSans-63" x="2421.916016"/>
     <use xlink:href="#DejaVuSans-68" x="2476.896484"/>
     <use xlink:href="#DejaVuSans-69" x="2540.275391"/>
     <use xlink:href="#DejaVuSans-74" x="2568.058594"/>
     <use xlink:href="#DejaVuSans-65" x="2607.267578"/>
     <use xlink:href="#DejaVuSans-63" x="2668.791016"/>
     <use xlink:href="#DejaVuSans-74" x="2723.771484"/>
     <use xlink:href="#DejaVuSans-75" x="2762.980469"/>
     <use xlink:href="#DejaVuSans-72" x="2826.359375"/>
     <use xlink:href="#DejaVuSans-65" x="2865.222656"/>
    </g>
   </g>
   <g id="legend_1">
    <g id="patch_7">
     <path d="M 55.329375 90.85425 
L 129.7325 90.85425 
Q 131.7325 90.85425 131.7325 88.85425 
L 131.7325 31.14175 
Q 131.7325 29.14175 129.7325 29.14175 
L 55.329375 29.14175 
Q 53.329375 29.14175 53.329375 31.14175 
L 53.329375 88.85425 
Q 53.329375 90.85425 55.329375 90.85425 
z
" style="fill: #e5e5e5; opacity: 0.8; stroke: #cccccc; stroke-width: 0.5; stroke-linejoin: miter"/>
    </g>
    <g id="text_46">
     <!-- Architecture -->
     <g transform="translate(61.92625 40.740187)scale(0.1 -0.1)">
      <use xlink:href="#DejaVuSans-41"/>
      <use xlink:href="#DejaVuSans-72" x="68.408203"/>
      <use xlink:href="#DejaVuSans-63" x="107.271484"/>
      <use xlink:href="#DejaVuSans-68" x="162.251953"/>
      <use xlink:href="#DejaVuSans-69" x="225.630859"/>
      <use xlink:href="#DejaVuSans-74" x="253.414062"/>
      <use xlink:href="#DejaVuSans-65" x="292.623047"/>
      <use xlink:href="#DejaVuSans-63" x="354.146484"/>
      <use xlink:href="#DejaVuSans-74" x="409.126953"/>
      <use xlink:href="#DejaVuSans-75" x="448.335938"/>
      <use xlink:href="#DejaVuSans-72" x="511.714844"/>
      <use xlink:href="#DejaVuSans-65" x="550.578125"/>
     </g>
    </g>
    <g id="patch_8">
     <path d="M 57.329375 55.418312 
L 77.329375 55.418312 
L 77.329375 48.418312 
L 57.329375 48.418312 
z
" style="fill: #e24a33"/>
    </g>
    <g id="text_47">
     <!-- S390x -->
     <g transform="translate(85.329375 55.418312)scale(0.1 -0.1)">
      <defs>
       <path id="DejaVuSans-53" d="M 3425 4513 
L 3425 3897 
Q 3066 4069 2747 4153 
Q 2428 4238 2131 4238 
Q 1616 4238 1336 4038 
Q 1056 3838 1056 3469 
Q 1056 3159 1242 3001 
Q 1428 2844 1947 2747 
L 2328 2669 
Q 3034 2534 3370 2195 
Q 3706 1856 3706 1288 
Q 3706 609 3251 259 
Q 2797 -91 1919 -91 
Q 1588 -91 1214 -16 
Q 841 59 441 206 
L 441 856 
Q 825 641 1194 531 
Q 1563 422 1919 422 
Q 2459 422 2753 634 
Q 3047 847 3047 1241 
Q 3047 1584 2836 1778 
Q 2625 1972 2144 2069 
L 1759 2144 
Q 1053 2284 737 2584 
Q 422 2884 422 3419 
Q 422 4038 858 4394 
Q 1294 4750 2059 4750 
Q 2388 4750 2728 4690 
Q 3069 4631 3425 4513 
z
" transform="scale(0.015625)"/>
      </defs>
      <use xlink:href="#DejaVuSans-53"/>
      <use xlink:href="#DejaVuSans-33" x="63.476562"/>
      <use xlink:href="#DejaVuSans-39" x="127.099609"/>
      <use xlink:href="#DejaVuSans-30" x="190.722656"/>
      <use xlink:href="#DejaVuSans-78" x="254.345703"/>
     </g>
    </g>
    <g id="patch_9">
     <path d="M 57.329375 70.096437 
L 77.329375 70.096437 
L 77.329375 63.096437 
L 57.329375 63.096437 
z
" style="fill: #348abd"/>
    </g>
    <g id="text_48">
     <!-- PPC64le -->
     <g transform="translate(85.329375 70.096437)scale(0.1 -0.1)">
      <defs>
       <path id="DejaVuSans-50" d="M 1259 4147 
L 1259 2394 
L 2053 2394 
Q 2494 2394 2734 2622 
Q 2975 2850 2975 3272 
Q 2975 3691 2734 3919 
Q 2494 4147 2053 4147 
L 1259 4147 
z
M 628 4666 
L 2053 4666 
Q 2838 4666 3239 4311 
Q 3641 3956 3641 3272 
Q 3641 2581 3239 2228 
Q 2838 1875 2053 1875 
L 1259 1875 
L 1259 0 
L 628 0 
L 628 4666 
z
" transform="scale(0.015625)"/>
       <path id="DejaVuSans-43" d="M 4122 4306 
L 4122 3641 
Q 3803 3938 3442 4084 
Q 3081 4231 2675 4231 
Q 1875 4231 1450 3742 
Q 1025 3253 1025 2328 
Q 1025 1406 1450 917 
Q 1875 428 2675 428 
Q 3081 428 3442 575 
Q 3803 722 4122 1019 
L 4122 359 
Q 3791 134 3420 21 
Q 3050 -91 2638 -91 
Q 1578 -91 968 557 
Q 359 1206 359 2328 
Q 359 3453 968 4101 
Q 1578 4750 2638 4750 
Q 3056 4750 3426 4639 
Q 3797 4528 4122 4306 
z
" transform="scale(0.015625)"/>
      </defs>
      <use xlink:href="#DejaVuSans-50"/>
      <use xlink:href="#DejaVuSans-50" x="60.302734"/>
      <use xlink:href="#DejaVuSans-43" x="120.605469"/>
      <use xlink:href="#DejaVuSans-36" x="190.429688"/>
      <use xlink:href="#DejaVuSans-34" x="254.052734"/>
      <use xlink:href="#DejaVuSans-6c" x="317.675781"/>
      <use xlink:href="#DejaVuSans-65" x="345.458984"/>
     </g>
    </g>
    <g id="patch_10">
     <path d="M 57.329375 84.774562 
L 77.329375 84.774562 
L 77.329375 77.774562 
L 57.329375 77.774562 
z
" style="fill: #988ed5"/>
    </g>
    <g id="text_49">
     <!-- AArch64 -->
     <g transform="translate(85.329375 84.774562)scale(0.1 -0.1)">
      <use xlink:href="#DejaVuSans-41"/>
      <use xlink:href="#DejaVuSans-41" x="71.158203"/>
      <use xlink:href="#DejaVuSans-72" x="139.566406"/>
      <use xlink:href="#DejaVuSans-63" x="178.429688"/>
      <use xlink:href="#DejaVuSans-68" x="233.410156"/>
      <use xlink:href="#DejaVuSans-36" x="296.789062"/>
      <use xlink:href="#DejaVuSans-34" x="360.412109"/>
     </g>
    </g>
   </g>
  </g>
 </g>
 <defs>
  <clipPath id="p6ca93640c3">
   <rect x="48.329375" y="24.14175" width="902.844" height="543.6"/>
  </clipPath>
 </defs>
</svg>
