<?xml version="1.0" encoding="utf-8" standalone="no"?>
<!DOCTYPE svg PUBLIC "-//W3C//DTD SVG 1.1//EN"
  "http://www.w3.org/Graphics/SVG/1.1/DTD/svg11.dtd">
<svg xmlns:xlink="http://www.w3.org/1999/xlink" width="970.7515pt" height="633.943878pt" viewBox="0 0 970.7515 633.943878" xmlns="http://www.w3.org/2000/svg" version="1.1">
 <metadata>
  <rdf:RDF xmlns:dc="http://purl.org/dc/elements/1.1/" xmlns:cc="http://creativecommons.org/ns#" xmlns:rdf="http://www.w3.org/1999/02/22-rdf-syntax-ns#">
   <cc:Work>
    <dc:type rdf:resource="http://purl.org/dc/dcmitype/StillImage"/>
    <dc:date>2024-06-27T11:58:51.398877</dc:date>
    <dc:format>image/svg+xml</dc:format>
    <dc:creator>
     <cc:Agent>
      <dc:title>Matplotlib v3.5.1, https://matplotlib.org/</dc:title>
     </cc:Agent>
    </dc:creator>
   </cc:Work>
  </rdf:RDF>
 </metadata>
 <defs>
  <style type="text/css">*{stroke-linejoin: round; stroke-linecap: butt}</style>
 </defs>
 <g id="figure_1">
  <g id="patch_1">
   <path d="M 0 633.943878 
L 970.7515 633.943878 
L 970.7515 0 
L 0 0 
z
" style="fill: #ffffff"/>
  </g>
  <g id="axes_1">
   <g id="patch_2">
    <path d="M 60.7075 567.74175 
L 963.5515 567.74175 
L 963.5515 24.14175 
L 60.7075 24.14175 
z
" style="fill: #e5e5e5"/>
   </g>
   <g id="matplotlib.axis_1">
    <g id="xtick_1">
     <g id="line2d_1">
      <path d="M 104.559923 567.74175 
L 104.559923 24.14175 
" clip-path="url(#pba3eb2880b)" style="fill: none; stroke: #ffffff; stroke-width: 0.8; stroke-linecap: square"/>
     </g>
     <g id="line2d_2">
      <defs>
       <path id="m63151bda61" d="M 0 0 
L 0 3.5 
" style="stroke: #555555; stroke-width: 0.8"/>
      </defs>
      <g>
       <use xlink:href="#m63151bda61" x="104.559923" y="567.74175" style="fill: #555555; stroke: #555555; stroke-width: 0.8"/>
      </g>
     </g>
     <g id="text_1">
      <!-- 2023-07 -->
      <g style="fill: #555555" transform="translate(91.738641 609.659567)rotate(-45)scale(0.1 -0.1)">
       <defs>
        <path id="DejaVuSans-32" d="M 1228 531 
L 3431 531 
L 3431 0 
L 469 0 
L 469 531 
Q 828 903 1448 1529 
Q 2069 2156 2228 2338 
Q 2531 2678 2651 2914 
Q 2772 3150 2772 3378 
Q 2772 3750 2511 3984 
Q 2250 4219 1831 4219 
Q 1534 4219 1204 4116 
Q 875 4013 500 3803 
L 500 4441 
Q 881 4594 1212 4672 
Q 1544 4750 1819 4750 
Q 2544 4750 2975 4387 
Q 3406 4025 3406 3419 
Q 3406 3131 3298 2873 
Q 3191 2616 2906 2266 
Q 2828 2175 2409 1742 
Q 1991 1309 1228 531 
z
" transform="scale(0.015625)"/>
        <path id="DejaVuSans-30" d="M 2034 4250 
Q 1547 4250 1301 3770 
Q 1056 3291 1056 2328 
Q 1056 1369 1301 889 
Q 1547 409 2034 409 
Q 2525 409 2770 889 
Q 3016 1369 3016 2328 
Q 3016 3291 2770 3770 
Q 2525 4250 2034 4250 
z
M 2034 4750 
Q 2819 4750 3233 4129 
Q 3647 3509 3647 2328 
Q 3647 1150 3233 529 
Q 2819 -91 2034 -91 
Q 1250 -91 836 529 
Q 422 1150 422 2328 
Q 422 3509 836 4129 
Q 1250 4750 2034 4750 
z
" transform="scale(0.015625)"/>
        <path id="DejaVuSans-33" d="M 2597 2516 
Q 3050 2419 3304 2112 
Q 3559 1806 3559 1356 
Q 3559 666 3084 287 
Q 2609 -91 1734 -91 
Q 1441 -91 1130 -33 
Q 819 25 488 141 
L 488 750 
Q 750 597 1062 519 
Q 1375 441 1716 441 
Q 2309 441 2620 675 
Q 2931 909 2931 1356 
Q 2931 1769 2642 2001 
Q 2353 2234 1838 2234 
L 1294 2234 
L 1294 2753 
L 1863 2753 
Q 2328 2753 2575 2939 
Q 2822 3125 2822 3475 
Q 2822 3834 2567 4026 
Q 2313 4219 1838 4219 
Q 1578 4219 1281 4162 
Q 984 4106 628 3988 
L 628 4550 
Q 988 4650 1302 4700 
Q 1616 4750 1894 4750 
Q 2613 4750 3031 4423 
Q 3450 4097 3450 3541 
Q 3450 3153 3228 2886 
Q 3006 2619 2597 2516 
z
" transform="scale(0.015625)"/>
        <path id="DejaVuSans-2d" d="M 313 2009 
L 1997 2009 
L 1997 1497 
L 313 1497 
L 313 2009 
z
" transform="scale(0.015625)"/>
        <path id="DejaVuSans-37" d="M 525 4666 
L 3525 4666 
L 3525 4397 
L 1831 0 
L 1172 0 
L 2766 4134 
L 525 4134 
L 525 4666 
z
" transform="scale(0.015625)"/>
       </defs>
       <use xlink:href="#DejaVuSans-32"/>
       <use xlink:href="#DejaVuSans-30" x="63.623047"/>
       <use xlink:href="#DejaVuSans-32" x="127.246094"/>
       <use xlink:href="#DejaVuSans-33" x="190.869141"/>
       <use xlink:href="#DejaVuSans-2d" x="254.492188"/>
       <use xlink:href="#DejaVuSans-30" x="290.576172"/>
       <use xlink:href="#DejaVuSans-37" x="354.199219"/>
      </g>
     </g>
    </g>
    <g id="xtick_2">
     <g id="line2d_3">
      <path d="M 184.526106 567.74175 
L 184.526106 24.14175 
" clip-path="url(#pba3eb2880b)" style="fill: none; stroke: #ffffff; stroke-width: 0.8; stroke-linecap: square"/>
     </g>
     <g id="line2d_4">
      <g>
       <use xlink:href="#m63151bda61" x="184.526106" y="567.74175" style="fill: #555555; stroke: #555555; stroke-width: 0.8"/>
      </g>
     </g>
     <g id="text_2">
      <!-- 2023-08 -->
      <g style="fill: #555555" transform="translate(171.704823 609.659567)rotate(-45)scale(0.1 -0.1)">
       <defs>
        <path id="DejaVuSans-38" d="M 2034 2216 
Q 1584 2216 1326 1975 
Q 1069 1734 1069 1313 
Q 1069 891 1326 650 
Q 1584 409 2034 409 
Q 2484 409 2743 651 
Q 3003 894 3003 1313 
Q 3003 1734 2745 1975 
Q 2488 2216 2034 2216 
z
M 1403 2484 
Q 997 2584 770 2862 
Q 544 3141 544 3541 
Q 544 4100 942 4425 
Q 1341 4750 2034 4750 
Q 2731 4750 3128 4425 
Q 3525 4100 3525 3541 
Q 3525 3141 3298 2862 
Q 3072 2584 2669 2484 
Q 3125 2378 3379 2068 
Q 3634 1759 3634 1313 
Q 3634 634 3220 271 
Q 2806 -91 2034 -91 
Q 1263 -91 848 271 
Q 434 634 434 1313 
Q 434 1759 690 2068 
Q 947 2378 1403 2484 
z
M 1172 3481 
Q 1172 3119 1398 2916 
Q 1625 2713 2034 2713 
Q 2441 2713 2670 2916 
Q 2900 3119 2900 3481 
Q 2900 3844 2670 4047 
Q 2441 4250 2034 4250 
Q 1625 4250 1398 4047 
Q 1172 3844 1172 3481 
z
" transform="scale(0.015625)"/>
       </defs>
       <use xlink:href="#DejaVuSans-32"/>
       <use xlink:href="#DejaVuSans-30" x="63.623047"/>
       <use xlink:href="#DejaVuSans-32" x="127.246094"/>
       <use xlink:href="#DejaVuSans-33" x="190.869141"/>
       <use xlink:href="#DejaVuSans-2d" x="254.492188"/>
       <use xlink:href="#DejaVuSans-30" x="290.576172"/>
       <use xlink:href="#DejaVuSans-38" x="354.199219"/>
      </g>
     </g>
    </g>
    <g id="xtick_3">
     <g id="line2d_5">
      <path d="M 264.492289 567.74175 
L 264.492289 24.14175 
" clip-path="url(#pba3eb2880b)" style="fill: none; stroke: #ffffff; stroke-width: 0.8; stroke-linecap: square"/>
     </g>
     <g id="line2d_6">
      <g>
       <use xlink:href="#m63151bda61" x="264.492289" y="567.74175" style="fill: #555555; stroke: #555555; stroke-width: 0.8"/>
      </g>
     </g>
     <g id="text_3">
      <!-- 2023-09 -->
      <g style="fill: #555555" transform="translate(251.671006 609.659567)rotate(-45)scale(0.1 -0.1)">
       <defs>
        <path id="DejaVuSans-39" d="M 703 97 
L 703 672 
Q 941 559 1184 500 
Q 1428 441 1663 441 
Q 2288 441 2617 861 
Q 2947 1281 2994 2138 
Q 2813 1869 2534 1725 
Q 2256 1581 1919 1581 
Q 1219 1581 811 2004 
Q 403 2428 403 3163 
Q 403 3881 828 4315 
Q 1253 4750 1959 4750 
Q 2769 4750 3195 4129 
Q 3622 3509 3622 2328 
Q 3622 1225 3098 567 
Q 2575 -91 1691 -91 
Q 1453 -91 1209 -44 
Q 966 3 703 97 
z
M 1959 2075 
Q 2384 2075 2632 2365 
Q 2881 2656 2881 3163 
Q 2881 3666 2632 3958 
Q 2384 4250 1959 4250 
Q 1534 4250 1286 3958 
Q 1038 3666 1038 3163 
Q 1038 2656 1286 2365 
Q 1534 2075 1959 2075 
z
" transform="scale(0.015625)"/>
       </defs>
       <use xlink:href="#DejaVuSans-32"/>
       <use xlink:href="#DejaVuSans-30" x="63.623047"/>
       <use xlink:href="#DejaVuSans-32" x="127.246094"/>
       <use xlink:href="#DejaVuSans-33" x="190.869141"/>
       <use xlink:href="#DejaVuSans-2d" x="254.492188"/>
       <use xlink:href="#DejaVuSans-30" x="290.576172"/>
       <use xlink:href="#DejaVuSans-39" x="354.199219"/>
      </g>
     </g>
    </g>
    <g id="xtick_4">
     <g id="line2d_7">
      <path d="M 341.878917 567.74175 
L 341.878917 24.14175 
" clip-path="url(#pba3eb2880b)" style="fill: none; stroke: #ffffff; stroke-width: 0.8; stroke-linecap: square"/>
     </g>
     <g id="line2d_8">
      <g>
       <use xlink:href="#m63151bda61" x="341.878917" y="567.74175" style="fill: #555555; stroke: #555555; stroke-width: 0.8"/>
      </g>
     </g>
     <g id="text_4">
      <!-- 2023-10 -->
      <g style="fill: #555555" transform="translate(329.057635 609.659567)rotate(-45)scale(0.1 -0.1)">
       <defs>
        <path id="DejaVuSans-31" d="M 794 531 
L 1825 531 
L 1825 4091 
L 703 3866 
L 703 4441 
L 1819 4666 
L 2450 4666 
L 2450 531 
L 3481 531 
L 3481 0 
L 794 0 
L 794 531 
z
" transform="scale(0.015625)"/>
       </defs>
       <use xlink:href="#DejaVuSans-32"/>
       <use xlink:href="#DejaVuSans-30" x="63.623047"/>
       <use xlink:href="#DejaVuSans-32" x="127.246094"/>
       <use xlink:href="#DejaVuSans-33" x="190.869141"/>
       <use xlink:href="#DejaVuSans-2d" x="254.492188"/>
       <use xlink:href="#DejaVuSans-31" x="290.576172"/>
       <use xlink:href="#DejaVuSans-30" x="354.199219"/>
      </g>
     </g>
    </g>
    <g id="xtick_5">
     <g id="line2d_9">
      <path d="M 421.8451 567.74175 
L 421.8451 24.14175 
" clip-path="url(#pba3eb2880b)" style="fill: none; stroke: #ffffff; stroke-width: 0.8; stroke-linecap: square"/>
     </g>
     <g id="line2d_10">
      <g>
       <use xlink:href="#m63151bda61" x="421.8451" y="567.74175" style="fill: #555555; stroke: #555555; stroke-width: 0.8"/>
      </g>
     </g>
     <g id="text_5">
      <!-- 2023-11 -->
      <g style="fill: #555555" transform="translate(409.023818 609.659567)rotate(-45)scale(0.1 -0.1)">
       <use xlink:href="#DejaVuSans-32"/>
       <use xlink:href="#DejaVuSans-30" x="63.623047"/>
       <use xlink:href="#DejaVuSans-32" x="127.246094"/>
       <use xlink:href="#DejaVuSans-33" x="190.869141"/>
       <use xlink:href="#DejaVuSans-2d" x="254.492188"/>
       <use xlink:href="#DejaVuSans-31" x="290.576172"/>
       <use xlink:href="#DejaVuSans-31" x="354.199219"/>
      </g>
     </g>
    </g>
    <g id="xtick_6">
     <g id="line2d_11">
      <path d="M 499.231729 567.74175 
L 499.231729 24.14175 
" clip-path="url(#pba3eb2880b)" style="fill: none; stroke: #ffffff; stroke-width: 0.8; stroke-linecap: square"/>
     </g>
     <g id="line2d_12">
      <g>
       <use xlink:href="#m63151bda61" x="499.231729" y="567.74175" style="fill: #555555; stroke: #555555; stroke-width: 0.8"/>
      </g>
     </g>
     <g id="text_6">
      <!-- 2023-12 -->
      <g style="fill: #555555" transform="translate(486.410446 609.659567)rotate(-45)scale(0.1 -0.1)">
       <use xlink:href="#DejaVuSans-32"/>
       <use xlink:href="#DejaVuSans-30" x="63.623047"/>
       <use xlink:href="#DejaVuSans-32" x="127.246094"/>
       <use xlink:href="#DejaVuSans-33" x="190.869141"/>
       <use xlink:href="#DejaVuSans-2d" x="254.492188"/>
       <use xlink:href="#DejaVuSans-31" x="290.576172"/>
       <use xlink:href="#DejaVuSans-32" x="354.199219"/>
      </g>
     </g>
    </g>
    <g id="xtick_7">
     <g id="line2d_13">
      <path d="M 579.197911 567.74175 
L 579.197911 24.14175 
" clip-path="url(#pba3eb2880b)" style="fill: none; stroke: #ffffff; stroke-width: 0.8; stroke-linecap: square"/>
     </g>
     <g id="line2d_14">
      <g>
       <use xlink:href="#m63151bda61" x="579.197911" y="567.74175" style="fill: #555555; stroke: #555555; stroke-width: 0.8"/>
      </g>
     </g>
     <g id="text_7">
      <!-- 2024-01 -->
      <g style="fill: #555555" transform="translate(566.376629 609.659567)rotate(-45)scale(0.1 -0.1)">
       <defs>
        <path id="DejaVuSans-34" d="M 2419 4116 
L 825 1625 
L 2419 1625 
L 2419 4116 
z
M 2253 4666 
L 3047 4666 
L 3047 1625 
L 3713 1625 
L 3713 1100 
L 3047 1100 
L 3047 0 
L 2419 0 
L 2419 1100 
L 313 1100 
L 313 1709 
L 2253 4666 
z
" transform="scale(0.015625)"/>
       </defs>
       <use xlink:href="#DejaVuSans-32"/>
       <use xlink:href="#DejaVuSans-30" x="63.623047"/>
       <use xlink:href="#DejaVuSans-32" x="127.246094"/>
       <use xlink:href="#DejaVuSans-34" x="190.869141"/>
       <use xlink:href="#DejaVuSans-2d" x="254.492188"/>
       <use xlink:href="#DejaVuSans-30" x="290.576172"/>
       <use xlink:href="#DejaVuSans-31" x="354.199219"/>
      </g>
     </g>
    </g>
    <g id="xtick_8">
     <g id="line2d_15">
      <path d="M 659.164094 567.74175 
L 659.164094 24.14175 
" clip-path="url(#pba3eb2880b)" style="fill: none; stroke: #ffffff; stroke-width: 0.8; stroke-linecap: square"/>
     </g>
     <g id="line2d_16">
      <g>
       <use xlink:href="#m63151bda61" x="659.164094" y="567.74175" style="fill: #555555; stroke: #555555; stroke-width: 0.8"/>
      </g>
     </g>
     <g id="text_8">
      <!-- 2024-02 -->
      <g style="fill: #555555" transform="translate(646.342812 609.659567)rotate(-45)scale(0.1 -0.1)">
       <use xlink:href="#DejaVuSans-32"/>
       <use xlink:href="#DejaVuSans-30" x="63.623047"/>
       <use xlink:href="#DejaVuSans-32" x="127.246094"/>
       <use xlink:href="#DejaVuSans-34" x="190.869141"/>
       <use xlink:href="#DejaVuSans-2d" x="254.492188"/>
       <use xlink:href="#DejaVuSans-30" x="290.576172"/>
       <use xlink:href="#DejaVuSans-32" x="354.199219"/>
      </g>
     </g>
    </g>
    <g id="xtick_9">
     <g id="line2d_17">
      <path d="M 733.971169 567.74175 
L 733.971169 24.14175 
" clip-path="url(#pba3eb2880b)" style="fill: none; stroke: #ffffff; stroke-width: 0.8; stroke-linecap: square"/>
     </g>
     <g id="line2d_18">
      <g>
       <use xlink:href="#m63151bda61" x="733.971169" y="567.74175" style="fill: #555555; stroke: #555555; stroke-width: 0.8"/>
      </g>
     </g>
     <g id="text_9">
      <!-- 2024-03 -->
      <g style="fill: #555555" transform="translate(721.149886 609.659567)rotate(-45)scale(0.1 -0.1)">
       <use xlink:href="#DejaVuSans-32"/>
       <use xlink:href="#DejaVuSans-30" x="63.623047"/>
       <use xlink:href="#DejaVuSans-32" x="127.246094"/>
       <use xlink:href="#DejaVuSans-34" x="190.869141"/>
       <use xlink:href="#DejaVuSans-2d" x="254.492188"/>
       <use xlink:href="#DejaVuSans-30" x="290.576172"/>
       <use xlink:href="#DejaVuSans-33" x="354.199219"/>
      </g>
     </g>
    </g>
    <g id="xtick_10">
     <g id="line2d_19">
      <path d="M 813.937351 567.74175 
L 813.937351 24.14175 
" clip-path="url(#pba3eb2880b)" style="fill: none; stroke: #ffffff; stroke-width: 0.8; stroke-linecap: square"/>
     </g>
     <g id="line2d_20">
      <g>
       <use xlink:href="#m63151bda61" x="813.937351" y="567.74175" style="fill: #555555; stroke: #555555; stroke-width: 0.8"/>
      </g>
     </g>
     <g id="text_10">
      <!-- 2024-04 -->
      <g style="fill: #555555" transform="translate(801.116069 609.659567)rotate(-45)scale(0.1 -0.1)">
       <use xlink:href="#DejaVuSans-32"/>
       <use xlink:href="#DejaVuSans-30" x="63.623047"/>
       <use xlink:href="#DejaVuSans-32" x="127.246094"/>
       <use xlink:href="#DejaVuSans-34" x="190.869141"/>
       <use xlink:href="#DejaVuSans-2d" x="254.492188"/>
       <use xlink:href="#DejaVuSans-30" x="290.576172"/>
       <use xlink:href="#DejaVuSans-34" x="354.199219"/>
      </g>
     </g>
    </g>
    <g id="xtick_11">
     <g id="line2d_21">
      <path d="M 891.32398 567.74175 
L 891.32398 24.14175 
" clip-path="url(#pba3eb2880b)" style="fill: none; stroke: #ffffff; stroke-width: 0.8; stroke-linecap: square"/>
     </g>
     <g id="line2d_22">
      <g>
       <use xlink:href="#m63151bda61" x="891.32398" y="567.74175" style="fill: #555555; stroke: #555555; stroke-width: 0.8"/>
      </g>
     </g>
     <g id="text_11">
      <!-- 2024-05 -->
      <g style="fill: #555555" transform="translate(878.502698 609.659567)rotate(-45)scale(0.1 -0.1)">
       <defs>
        <path id="DejaVuSans-35" d="M 691 4666 
L 3169 4666 
L 3169 4134 
L 1269 4134 
L 1269 2991 
Q 1406 3038 1543 3061 
Q 1681 3084 1819 3084 
Q 2600 3084 3056 2656 
Q 3513 2228 3513 1497 
Q 3513 744 3044 326 
Q 2575 -91 1722 -91 
Q 1428 -91 1123 -41 
Q 819 9 494 109 
L 494 744 
Q 775 591 1075 516 
Q 1375 441 1709 441 
Q 2250 441 2565 725 
Q 2881 1009 2881 1497 
Q 2881 1984 2565 2268 
Q 2250 2553 1709 2553 
Q 1456 2553 1204 2497 
Q 953 2441 691 2322 
L 691 4666 
z
" transform="scale(0.015625)"/>
       </defs>
       <use xlink:href="#DejaVuSans-32"/>
       <use xlink:href="#DejaVuSans-30" x="63.623047"/>
       <use xlink:href="#DejaVuSans-32" x="127.246094"/>
       <use xlink:href="#DejaVuSans-34" x="190.869141"/>
       <use xlink:href="#DejaVuSans-2d" x="254.492188"/>
       <use xlink:href="#DejaVuSans-30" x="290.576172"/>
       <use xlink:href="#DejaVuSans-35" x="354.199219"/>
      </g>
     </g>
    </g>
    <g id="text_12">
     <!-- Date -->
     <g style="fill: #555555" transform="translate(497.788563 624.248253)scale(0.12 -0.12)">
      <defs>
       <path id="DejaVuSans-44" d="M 1259 4147 
L 1259 519 
L 2022 519 
Q 2988 519 3436 956 
Q 3884 1394 3884 2338 
Q 3884 3275 3436 3711 
Q 2988 4147 2022 4147 
L 1259 4147 
z
M 628 4666 
L 1925 4666 
Q 3281 4666 3915 4102 
Q 4550 3538 4550 2338 
Q 4550 1131 3912 565 
Q 3275 0 1925 0 
L 628 0 
L 628 4666 
z
" transform="scale(0.015625)"/>
       <path id="DejaVuSans-61" d="M 2194 1759 
Q 1497 1759 1228 1600 
Q 959 1441 959 1056 
Q 959 750 1161 570 
Q 1363 391 1709 391 
Q 2188 391 2477 730 
Q 2766 1069 2766 1631 
L 2766 1759 
L 2194 1759 
z
M 3341 1997 
L 3341 0 
L 2766 0 
L 2766 531 
Q 2569 213 2275 61 
Q 1981 -91 1556 -91 
Q 1019 -91 701 211 
Q 384 513 384 1019 
Q 384 1609 779 1909 
Q 1175 2209 1959 2209 
L 2766 2209 
L 2766 2266 
Q 2766 2663 2505 2880 
Q 2244 3097 1772 3097 
Q 1472 3097 1187 3025 
Q 903 2953 641 2809 
L 641 3341 
Q 956 3463 1253 3523 
Q 1550 3584 1831 3584 
Q 2591 3584 2966 3190 
Q 3341 2797 3341 1997 
z
" transform="scale(0.015625)"/>
       <path id="DejaVuSans-74" d="M 1172 4494 
L 1172 3500 
L 2356 3500 
L 2356 3053 
L 1172 3053 
L 1172 1153 
Q 1172 725 1289 603 
Q 1406 481 1766 481 
L 2356 481 
L 2356 0 
L 1766 0 
Q 1100 0 847 248 
Q 594 497 594 1153 
L 594 3053 
L 172 3053 
L 172 3500 
L 594 3500 
L 594 4494 
L 1172 4494 
z
" transform="scale(0.015625)"/>
       <path id="DejaVuSans-65" d="M 3597 1894 
L 3597 1613 
L 953 1613 
Q 991 1019 1311 708 
Q 1631 397 2203 397 
Q 2534 397 2845 478 
Q 3156 559 3463 722 
L 3463 178 
Q 3153 47 2828 -22 
Q 2503 -91 2169 -91 
Q 1331 -91 842 396 
Q 353 884 353 1716 
Q 353 2575 817 3079 
Q 1281 3584 2069 3584 
Q 2775 3584 3186 3129 
Q 3597 2675 3597 1894 
z
M 3022 2063 
Q 3016 2534 2758 2815 
Q 2500 3097 2075 3097 
Q 1594 3097 1305 2825 
Q 1016 2553 972 2059 
L 3022 2063 
z
" transform="scale(0.015625)"/>
      </defs>
      <use xlink:href="#DejaVuSans-44"/>
      <use xlink:href="#DejaVuSans-61" x="77.001953"/>
      <use xlink:href="#DejaVuSans-74" x="138.28125"/>
      <use xlink:href="#DejaVuSans-65" x="177.490234"/>
     </g>
    </g>
   </g>
   <g id="matplotlib.axis_2">
    <g id="ytick_1">
     <g id="line2d_23">
      <path d="M 60.7075 567.74175 
L 963.5515 567.74175 
" clip-path="url(#pba3eb2880b)" style="fill: none; stroke: #ffffff; stroke-width: 0.8; stroke-linecap: square"/>
     </g>
     <g id="line2d_24">
      <defs>
       <path id="m123511c7c3" d="M 0 0 
L -3.5 0 
" style="stroke: #555555; stroke-width: 0.8"/>
      </defs>
      <g>
       <use xlink:href="#m123511c7c3" x="60.7075" y="567.74175" style="fill: #555555; stroke: #555555; stroke-width: 0.8"/>
      </g>
     </g>
     <g id="text_13">
      <!-- 0.0M -->
      <g style="fill: #555555" transform="translate(29.17625 571.540969)scale(0.1 -0.1)">
       <defs>
        <path id="DejaVuSans-2e" d="M 684 794 
L 1344 794 
L 1344 0 
L 684 0 
L 684 794 
z
" transform="scale(0.015625)"/>
        <path id="DejaVuSans-4d" d="M 628 4666 
L 1569 4666 
L 2759 1491 
L 3956 4666 
L 4897 4666 
L 4897 0 
L 4281 0 
L 4281 4097 
L 3078 897 
L 2444 897 
L 1241 4097 
L 1241 0 
L 628 0 
L 628 4666 
z
" transform="scale(0.015625)"/>
       </defs>
       <use xlink:href="#DejaVuSans-30"/>
       <use xlink:href="#DejaVuSans-2e" x="63.623047"/>
       <use xlink:href="#DejaVuSans-30" x="95.410156"/>
       <use xlink:href="#DejaVuSans-4d" x="159.033203"/>
      </g>
     </g>
    </g>
    <g id="ytick_2">
     <g id="line2d_25">
      <path d="M 60.7075 492.986581 
L 963.5515 492.986581 
" clip-path="url(#pba3eb2880b)" style="fill: none; stroke: #ffffff; stroke-width: 0.8; stroke-linecap: square"/>
     </g>
     <g id="line2d_26">
      <g>
       <use xlink:href="#m123511c7c3" x="60.7075" y="492.986581" style="fill: #555555; stroke: #555555; stroke-width: 0.8"/>
      </g>
     </g>
     <g id="text_14">
      <!-- 2.0M -->
      <g style="fill: #555555" transform="translate(29.17625 496.7858)scale(0.1 -0.1)">
       <use xlink:href="#DejaVuSans-32"/>
       <use xlink:href="#DejaVuSans-2e" x="63.623047"/>
       <use xlink:href="#DejaVuSans-30" x="95.410156"/>
       <use xlink:href="#DejaVuSans-4d" x="159.033203"/>
      </g>
     </g>
    </g>
    <g id="ytick_3">
     <g id="line2d_27">
      <path d="M 60.7075 418.231413 
L 963.5515 418.231413 
" clip-path="url(#pba3eb2880b)" style="fill: none; stroke: #ffffff; stroke-width: 0.8; stroke-linecap: square"/>
     </g>
     <g id="line2d_28">
      <g>
       <use xlink:href="#m123511c7c3" x="60.7075" y="418.231413" style="fill: #555555; stroke: #555555; stroke-width: 0.8"/>
      </g>
     </g>
     <g id="text_15">
      <!-- 4.0M -->
      <g style="fill: #555555" transform="translate(29.17625 422.030632)scale(0.1 -0.1)">
       <use xlink:href="#DejaVuSans-34"/>
       <use xlink:href="#DejaVuSans-2e" x="63.623047"/>
       <use xlink:href="#DejaVuSans-30" x="95.410156"/>
       <use xlink:href="#DejaVuSans-4d" x="159.033203"/>
      </g>
     </g>
    </g>
    <g id="ytick_4">
     <g id="line2d_29">
      <path d="M 60.7075 343.476244 
L 963.5515 343.476244 
" clip-path="url(#pba3eb2880b)" style="fill: none; stroke: #ffffff; stroke-width: 0.8; stroke-linecap: square"/>
     </g>
     <g id="line2d_30">
      <g>
       <use xlink:href="#m123511c7c3" x="60.7075" y="343.476244" style="fill: #555555; stroke: #555555; stroke-width: 0.8"/>
      </g>
     </g>
     <g id="text_16">
      <!-- 6.0M -->
      <g style="fill: #555555" transform="translate(29.17625 347.275463)scale(0.1 -0.1)">
       <defs>
        <path id="DejaVuSans-36" d="M 2113 2584 
Q 1688 2584 1439 2293 
Q 1191 2003 1191 1497 
Q 1191 994 1439 701 
Q 1688 409 2113 409 
Q 2538 409 2786 701 
Q 3034 994 3034 1497 
Q 3034 2003 2786 2293 
Q 2538 2584 2113 2584 
z
M 3366 4563 
L 3366 3988 
Q 3128 4100 2886 4159 
Q 2644 4219 2406 4219 
Q 1781 4219 1451 3797 
Q 1122 3375 1075 2522 
Q 1259 2794 1537 2939 
Q 1816 3084 2150 3084 
Q 2853 3084 3261 2657 
Q 3669 2231 3669 1497 
Q 3669 778 3244 343 
Q 2819 -91 2113 -91 
Q 1303 -91 875 529 
Q 447 1150 447 2328 
Q 447 3434 972 4092 
Q 1497 4750 2381 4750 
Q 2619 4750 2861 4703 
Q 3103 4656 3366 4563 
z
" transform="scale(0.015625)"/>
       </defs>
       <use xlink:href="#DejaVuSans-36"/>
       <use xlink:href="#DejaVuSans-2e" x="63.623047"/>
       <use xlink:href="#DejaVuSans-30" x="95.410156"/>
       <use xlink:href="#DejaVuSans-4d" x="159.033203"/>
      </g>
     </g>
    </g>
    <g id="ytick_5">
     <g id="line2d_31">
      <path d="M 60.7075 268.721076 
L 963.5515 268.721076 
" clip-path="url(#pba3eb2880b)" style="fill: none; stroke: #ffffff; stroke-width: 0.8; stroke-linecap: square"/>
     </g>
     <g id="line2d_32">
      <g>
       <use xlink:href="#m123511c7c3" x="60.7075" y="268.721076" style="fill: #555555; stroke: #555555; stroke-width: 0.8"/>
      </g>
     </g>
     <g id="text_17">
      <!-- 8.0M -->
      <g style="fill: #555555" transform="translate(29.17625 272.520294)scale(0.1 -0.1)">
       <use xlink:href="#DejaVuSans-38"/>
       <use xlink:href="#DejaVuSans-2e" x="63.623047"/>
       <use xlink:href="#DejaVuSans-30" x="95.410156"/>
       <use xlink:href="#DejaVuSans-4d" x="159.033203"/>
      </g>
     </g>
    </g>
    <g id="ytick_6">
     <g id="line2d_33">
      <path d="M 60.7075 193.965907 
L 963.5515 193.965907 
" clip-path="url(#pba3eb2880b)" style="fill: none; stroke: #ffffff; stroke-width: 0.8; stroke-linecap: square"/>
     </g>
     <g id="line2d_34">
      <g>
       <use xlink:href="#m123511c7c3" x="60.7075" y="193.965907" style="fill: #555555; stroke: #555555; stroke-width: 0.8"/>
      </g>
     </g>
     <g id="text_18">
      <!-- 10.0M -->
      <g style="fill: #555555" transform="translate(22.81375 197.765126)scale(0.1 -0.1)">
       <use xlink:href="#DejaVuSans-31"/>
       <use xlink:href="#DejaVuSans-30" x="63.623047"/>
       <use xlink:href="#DejaVuSans-2e" x="127.246094"/>
       <use xlink:href="#DejaVuSans-30" x="159.033203"/>
       <use xlink:href="#DejaVuSans-4d" x="222.65625"/>
      </g>
     </g>
    </g>
    <g id="ytick_7">
     <g id="line2d_35">
      <path d="M 60.7075 119.210739 
L 963.5515 119.210739 
" clip-path="url(#pba3eb2880b)" style="fill: none; stroke: #ffffff; stroke-width: 0.8; stroke-linecap: square"/>
     </g>
     <g id="line2d_36">
      <g>
       <use xlink:href="#m123511c7c3" x="60.7075" y="119.210739" style="fill: #555555; stroke: #555555; stroke-width: 0.8"/>
      </g>
     </g>
     <g id="text_19">
      <!-- 12.0M -->
      <g style="fill: #555555" transform="translate(22.81375 123.009957)scale(0.1 -0.1)">
       <use xlink:href="#DejaVuSans-31"/>
       <use xlink:href="#DejaVuSans-32" x="63.623047"/>
       <use xlink:href="#DejaVuSans-2e" x="127.246094"/>
       <use xlink:href="#DejaVuSans-30" x="159.033203"/>
       <use xlink:href="#DejaVuSans-4d" x="222.65625"/>
      </g>
     </g>
    </g>
    <g id="ytick_8">
     <g id="line2d_37">
      <path d="M 60.7075 44.45557 
L 963.5515 44.45557 
" clip-path="url(#pba3eb2880b)" style="fill: none; stroke: #ffffff; stroke-width: 0.8; stroke-linecap: square"/>
     </g>
     <g id="line2d_38">
      <g>
       <use xlink:href="#m123511c7c3" x="60.7075" y="44.45557" style="fill: #555555; stroke: #555555; stroke-width: 0.8"/>
      </g>
     </g>
     <g id="text_20">
      <!-- 14.0M -->
      <g style="fill: #555555" transform="translate(22.81375 48.254789)scale(0.1 -0.1)">
       <use xlink:href="#DejaVuSans-31"/>
       <use xlink:href="#DejaVuSans-34" x="63.623047"/>
       <use xlink:href="#DejaVuSans-2e" x="127.246094"/>
       <use xlink:href="#DejaVuSans-30" x="159.033203"/>
       <use xlink:href="#DejaVuSans-4d" x="222.65625"/>
      </g>
     </g>
    </g>
    <g id="text_21">
     <!-- Instances -->
     <g style="fill: #555555" transform="translate(16.318125 324.588)rotate(-90)scale(0.12 -0.12)">
      <defs>
       <path id="DejaVuSans-49" d="M 628 4666 
L 1259 4666 
L 1259 0 
L 628 0 
L 628 4666 
z
" transform="scale(0.015625)"/>
       <path id="DejaVuSans-6e" d="M 3513 2113 
L 3513 0 
L 2938 0 
L 2938 2094 
Q 2938 2591 2744 2837 
Q 2550 3084 2163 3084 
Q 1697 3084 1428 2787 
Q 1159 2491 1159 1978 
L 1159 0 
L 581 0 
L 581 3500 
L 1159 3500 
L 1159 2956 
Q 1366 3272 1645 3428 
Q 1925 3584 2291 3584 
Q 2894 3584 3203 3211 
Q 3513 2838 3513 2113 
z
" transform="scale(0.015625)"/>
       <path id="DejaVuSans-73" d="M 2834 3397 
L 2834 2853 
Q 2591 2978 2328 3040 
Q 2066 3103 1784 3103 
Q 1356 3103 1142 2972 
Q 928 2841 928 2578 
Q 928 2378 1081 2264 
Q 1234 2150 1697 2047 
L 1894 2003 
Q 2506 1872 2764 1633 
Q 3022 1394 3022 966 
Q 3022 478 2636 193 
Q 2250 -91 1575 -91 
Q 1294 -91 989 -36 
Q 684 19 347 128 
L 347 722 
Q 666 556 975 473 
Q 1284 391 1588 391 
Q 1994 391 2212 530 
Q 2431 669 2431 922 
Q 2431 1156 2273 1281 
Q 2116 1406 1581 1522 
L 1381 1569 
Q 847 1681 609 1914 
Q 372 2147 372 2553 
Q 372 3047 722 3315 
Q 1072 3584 1716 3584 
Q 2034 3584 2315 3537 
Q 2597 3491 2834 3397 
z
" transform="scale(0.015625)"/>
       <path id="DejaVuSans-63" d="M 3122 3366 
L 3122 2828 
Q 2878 2963 2633 3030 
Q 2388 3097 2138 3097 
Q 1578 3097 1268 2742 
Q 959 2388 959 1747 
Q 959 1106 1268 751 
Q 1578 397 2138 397 
Q 2388 397 2633 464 
Q 2878 531 3122 666 
L 3122 134 
Q 2881 22 2623 -34 
Q 2366 -91 2075 -91 
Q 1284 -91 818 406 
Q 353 903 353 1747 
Q 353 2603 823 3093 
Q 1294 3584 2113 3584 
Q 2378 3584 2631 3529 
Q 2884 3475 3122 3366 
z
" transform="scale(0.015625)"/>
      </defs>
      <use xlink:href="#DejaVuSans-49"/>
      <use xlink:href="#DejaVuSans-6e" x="29.492188"/>
      <use xlink:href="#DejaVuSans-73" x="92.871094"/>
      <use xlink:href="#DejaVuSans-74" x="144.970703"/>
      <use xlink:href="#DejaVuSans-61" x="184.179688"/>
      <use xlink:href="#DejaVuSans-6e" x="245.458984"/>
      <use xlink:href="#DejaVuSans-63" x="308.837891"/>
      <use xlink:href="#DejaVuSans-65" x="363.818359"/>
      <use xlink:href="#DejaVuSans-73" x="425.341797"/>
     </g>
    </g>
   </g>
   <g id="PolyCollection_1">
    <path d="M 60.7075 481.389924 
L 60.7075 567.74175 
L 78.76438 567.74175 
L 96.82126 567.74175 
L 114.87814 567.74175 
L 132.93502 567.74175 
L 150.9919 567.74175 
L 169.04878 567.74175 
L 187.10566 567.74175 
L 205.16254 567.74175 
L 223.21942 567.74175 
L 241.2763 567.74175 
L 259.33318 567.74175 
L 277.39006 567.74175 
L 295.44694 567.74175 
L 313.50382 567.74175 
L 331.5607 567.74175 
L 349.61758 567.74175 
L 403.78822 567.74175 
L 421.8451 567.74175 
L 439.90198 567.74175 
L 457.95886 567.74175 
L 476.01574 567.74175 
L 494.07262 567.74175 
L 512.1295 567.74175 
L 530.18638 567.74175 
L 548.24326 567.74175 
L 566.30014 567.74175 
L 584.35702 567.74175 
L 602.4139 567.74175 
L 620.47078 567.74175 
L 638.52766 567.74175 
L 656.58454 567.74175 
L 674.64142 567.74175 
L 692.6983 567.74175 
L 710.75518 567.74175 
L 728.81206 567.74175 
L 746.86894 567.74175 
L 764.92582 567.74175 
L 782.9827 567.74175 
L 801.03958 567.74175 
L 819.09646 567.74175 
L 837.15334 567.74175 
L 855.21022 567.74175 
L 873.2671 567.74175 
L 891.32398 567.74175 
L 909.38086 567.74175 
L 927.43774 567.74175 
L 945.49462 567.74175 
L 963.5515 567.74175 
L 963.5515 397.590801 
L 963.5515 397.590801 
L 945.49462 400.526399 
L 927.43774 402.427871 
L 909.38086 406.060486 
L 891.32398 409.357152 
L 873.2671 411.587398 
L 855.21022 412.964313 
L 837.15334 411.28677 
L 819.09646 413.23489 
L 801.03958 413.723265 
L 782.9827 412.556262 
L 764.92582 421.754325 
L 746.86894 418.580108 
L 728.81206 423.349077 
L 710.75518 422.668992 
L 692.6983 430.717993 
L 674.64142 432.9716 
L 656.58454 433.900283 
L 638.52766 439.050017 
L 620.47078 439.918635 
L 602.4139 441.295176 
L 584.35702 440.831059 
L 566.30014 444.11782 
L 548.24326 448.71829 
L 530.18638 453.634825 
L 512.1295 448.525384 
L 494.07262 447.108736 
L 476.01574 449.586908 
L 457.95886 449.960908 
L 439.90198 450.189135 
L 421.8451 453.656205 
L 403.78822 455.224569 
L 349.61758 461.853109 
L 331.5607 463.435975 
L 313.50382 465.247368 
L 295.44694 465.962289 
L 277.39006 466.274878 
L 259.33318 469.270355 
L 241.2763 469.919491 
L 223.21942 471.767588 
L 205.16254 472.439376 
L 187.10566 472.9319 
L 169.04878 474.381851 
L 150.9919 475.761495 
L 132.93502 476.77155 
L 114.87814 479.555021 
L 96.82126 480.256636 
L 78.76438 481.927227 
L 60.7075 481.389924 
z
" clip-path="url(#pba3eb2880b)" style="fill: #48b585"/>
   </g>
   <g id="PolyCollection_2">
    <path d="M 60.7075 422.200426 
L 60.7075 481.389924 
L 78.76438 481.927227 
L 96.82126 480.256636 
L 114.87814 479.555021 
L 132.93502 476.77155 
L 150.9919 475.761495 
L 169.04878 474.381851 
L 187.10566 472.9319 
L 205.16254 472.439376 
L 223.21942 471.767588 
L 241.2763 469.919491 
L 259.33318 469.270355 
L 277.39006 466.274878 
L 295.44694 465.962289 
L 313.50382 465.247368 
L 331.5607 463.435975 
L 349.61758 461.853109 
L 403.78822 455.224569 
L 421.8451 453.656205 
L 439.90198 450.189135 
L 457.95886 449.960908 
L 476.01574 449.586908 
L 494.07262 447.108736 
L 512.1295 448.525384 
L 530.18638 453.634825 
L 548.24326 448.71829 
L 566.30014 444.11782 
L 584.35702 440.831059 
L 602.4139 441.295176 
L 620.47078 439.918635 
L 638.52766 439.050017 
L 656.58454 433.900283 
L 674.64142 432.9716 
L 692.6983 430.717993 
L 710.75518 422.668992 
L 728.81206 423.349077 
L 746.86894 418.580108 
L 764.92582 421.754325 
L 782.9827 412.556262 
L 801.03958 413.723265 
L 819.09646 413.23489 
L 837.15334 411.28677 
L 855.21022 412.964313 
L 873.2671 411.587398 
L 891.32398 409.357152 
L 909.38086 406.060486 
L 927.43774 402.427871 
L 945.49462 400.526399 
L 963.5515 397.590801 
L 963.5515 306.985742 
L 963.5515 306.985742 
L 945.49462 312.955055 
L 927.43774 314.885682 
L 909.38086 320.161229 
L 891.32398 324.617122 
L 873.2671 327.504653 
L 855.21022 330.984244 
L 837.15334 328.775528 
L 819.09646 331.051786 
L 801.03958 332.851591 
L 782.9827 333.014931 
L 764.92582 343.24084 
L 746.86894 339.317203 
L 728.81206 344.433559 
L 710.75518 344.75994 
L 692.6983 354.173672 
L 674.64142 356.871399 
L 656.58454 358.479308 
L 638.52766 364.31507 
L 620.47078 365.555445 
L 602.4139 367.777206 
L 584.35702 367.997472 
L 566.30014 372.648327 
L 548.24326 379.547744 
L 530.18638 387.163501 
L 512.1295 377.958598 
L 494.07262 374.869603 
L 476.01574 377.758329 
L 457.95886 378.205365 
L 439.90198 380.937068 
L 421.8451 383.748573 
L 403.78822 387.281315 
L 349.61758 395.768718 
L 331.5607 397.398605 
L 313.50382 400.774287 
L 295.44694 399.826541 
L 277.39006 402.11061 
L 259.33318 405.668545 
L 241.2763 405.08153 
L 223.21942 408.71422 
L 205.16254 409.354797 
L 187.10566 410.760606 
L 169.04878 413.649183 
L 150.9919 413.49586 
L 132.93502 414.594836 
L 114.87814 418.246065 
L 96.82126 419.5751 
L 78.76438 423.996681 
L 60.7075 422.200426 
z
" clip-path="url(#pba3eb2880b)" style="fill: #e2321d"/>
   </g>
   <g id="PolyCollection_3">
    <path d="M 60.7075 360.68167 
L 60.7075 422.200426 
L 78.76438 423.996681 
L 96.82126 419.5751 
L 114.87814 418.246065 
L 132.93502 414.594836 
L 150.9919 413.49586 
L 169.04878 413.649183 
L 187.10566 410.760606 
L 205.16254 409.354797 
L 223.21942 408.71422 
L 241.2763 405.08153 
L 259.33318 405.668545 
L 277.39006 402.11061 
L 295.44694 399.826541 
L 313.50382 400.774287 
L 331.5607 397.398605 
L 349.61758 395.768718 
L 403.78822 387.281315 
L 421.8451 383.748573 
L 439.90198 380.937068 
L 457.95886 378.205365 
L 476.01574 377.758329 
L 494.07262 374.869603 
L 512.1295 377.958598 
L 530.18638 387.163501 
L 548.24326 379.547744 
L 566.30014 372.648327 
L 584.35702 367.997472 
L 602.4139 367.777206 
L 620.47078 365.555445 
L 638.52766 364.31507 
L 656.58454 358.479308 
L 674.64142 356.871399 
L 692.6983 354.173672 
L 710.75518 344.75994 
L 728.81206 344.433559 
L 746.86894 339.317203 
L 764.92582 343.24084 
L 782.9827 333.014931 
L 801.03958 332.851591 
L 819.09646 331.051786 
L 837.15334 328.775528 
L 855.21022 330.984244 
L 873.2671 327.504653 
L 891.32398 324.617122 
L 909.38086 320.161229 
L 927.43774 314.885682 
L 945.49462 312.955055 
L 963.5515 306.985742 
L 963.5515 268.577621 
L 963.5515 268.577621 
L 945.49462 265.799532 
L 927.43774 230.686543 
L 909.38086 235.37272 
L 891.32398 240.203698 
L 873.2671 242.995953 
L 855.21022 247.5426 
L 837.15334 243.425908 
L 819.09646 246.070035 
L 801.03958 246.469789 
L 782.9827 249.87612 
L 764.92582 262.038599 
L 746.86894 258.912674 
L 728.81206 263.51778 
L 710.75518 267.915327 
L 692.6983 279.008471 
L 674.64142 281.843075 
L 656.58454 282.863483 
L 638.52766 285.365164 
L 620.47078 287.466383 
L 602.4139 289.864566 
L 584.35702 290.318292 
L 566.30014 297.891626 
L 548.24326 309.52839 
L 530.18638 319.709184 
L 512.1295 308.215876 
L 494.07262 303.389271 
L 476.01574 307.284726 
L 457.95886 308.621348 
L 439.90198 310.47636 
L 421.8451 312.647362 
L 403.78822 317.673975 
L 349.61758 328.579558 
L 331.5607 330.585837 
L 313.50382 334.468508 
L 295.44694 334.001998 
L 277.39006 336.799412 
L 259.33318 340.535376 
L 241.2763 339.643509 
L 223.21942 344.358318 
L 205.16254 345.033208 
L 187.10566 347.497287 
L 169.04878 351.053914 
L 150.9919 350.296569 
L 132.93502 352.547448 
L 114.87814 356.383696 
L 96.82126 357.98383 
L 78.76438 363.166008 
L 60.7075 360.68167 
z
" clip-path="url(#pba3eb2880b)" style="fill: #9a5689"/>
   </g>
   <g id="PolyCollection_4">
    <path d="M 60.7075 288.668035 
L 60.7075 360.68167 
L 78.76438 363.166008 
L 96.82126 357.98383 
L 114.87814 356.383696 
L 132.93502 352.547448 
L 150.9919 350.296569 
L 169.04878 351.053914 
L 187.10566 347.497287 
L 205.16254 345.033208 
L 223.21942 344.358318 
L 241.2763 339.643509 
L 259.33318 340.535376 
L 277.39006 336.799412 
L 295.44694 334.001998 
L 313.50382 334.468508 
L 331.5607 330.585837 
L 349.61758 328.579558 
L 403.78822 317.673975 
L 421.8451 312.647362 
L 439.90198 310.47636 
L 457.95886 308.621348 
L 476.01574 307.284726 
L 494.07262 303.389271 
L 512.1295 308.215876 
L 530.18638 319.709184 
L 548.24326 309.52839 
L 566.30014 297.891626 
L 584.35702 290.318292 
L 602.4139 289.864566 
L 620.47078 287.466383 
L 638.52766 285.365164 
L 656.58454 282.863483 
L 674.64142 281.843075 
L 692.6983 279.008471 
L 710.75518 267.915327 
L 728.81206 263.51778 
L 746.86894 258.912674 
L 764.92582 262.038599 
L 782.9827 249.87612 
L 801.03958 246.469789 
L 819.09646 246.070035 
L 837.15334 243.425908 
L 855.21022 247.5426 
L 873.2671 242.995953 
L 891.32398 240.203698 
L 909.38086 235.37272 
L 927.43774 230.686543 
L 945.49462 265.799532 
L 963.5515 268.577621 
L 963.5515 136.93717 
L 963.5515 136.93717 
L 945.49462 137.850043 
L 927.43774 101.981317 
L 909.38086 111.048895 
L 891.32398 118.462402 
L 873.2671 121.695114 
L 855.21022 128.706103 
L 837.15334 124.507292 
L 819.09646 129.153737 
L 801.03958 131.905138 
L 782.9827 135.776521 
L 764.92582 149.526576 
L 746.86894 146.726023 
L 728.81206 152.672909 
L 710.75518 159.262876 
L 692.6983 171.235701 
L 674.64142 175.444342 
L 656.58454 177.498652 
L 638.52766 179.902367 
L 620.47078 183.606411 
L 602.4139 187.761228 
L 584.35702 189.127341 
L 566.30014 196.867155 
L 548.24326 210.361958 
L 530.18638 223.751357 
L 512.1295 209.860052 
L 494.07262 204.810826 
L 476.01574 209.377919 
L 457.95886 212.218802 
L 439.90198 213.26971 
L 421.8451 219.975062 
L 403.78822 226.820094 
L 349.61758 239.711024 
L 331.5607 245.742159 
L 313.50382 250.833285 
L 295.44694 251.243317 
L 277.39006 255.459845 
L 259.33318 260.493671 
L 241.2763 260.76892 
L 223.21942 266.291458 
L 205.16254 267.697192 
L 187.10566 271.360569 
L 169.04878 275.225037 
L 150.9919 275.402581 
L 132.93502 278.188407 
L 114.87814 282.957824 
L 96.82126 285.350662 
L 78.76438 291.006601 
L 60.7075 288.668035 
z
" clip-path="url(#pba3eb2880b)" style="fill: #4ac1fa"/>
   </g>
   <g id="PolyCollection_5">
    <path d="M 60.7075 273.125501 
L 60.7075 288.668035 
L 78.76438 291.006601 
L 96.82126 285.350662 
L 114.87814 282.957824 
L 132.93502 278.188407 
L 150.9919 275.402581 
L 169.04878 275.225037 
L 187.10566 271.360569 
L 205.16254 267.697192 
L 223.21942 266.291458 
L 241.2763 260.76892 
L 259.33318 260.493671 
L 277.39006 255.459845 
L 295.44694 251.243317 
L 313.50382 250.833285 
L 331.5607 245.742159 
L 349.61758 239.711024 
L 403.78822 226.820094 
L 421.8451 219.975062 
L 439.90198 213.26971 
L 457.95886 212.218802 
L 476.01574 209.377919 
L 494.07262 204.810826 
L 512.1295 209.860052 
L 530.18638 223.751357 
L 548.24326 210.361958 
L 566.30014 196.867155 
L 584.35702 189.127341 
L 602.4139 187.761228 
L 620.47078 183.606411 
L 638.52766 179.902367 
L 656.58454 177.498652 
L 674.64142 175.444342 
L 692.6983 171.235701 
L 710.75518 159.262876 
L 728.81206 152.672909 
L 746.86894 146.726023 
L 764.92582 149.526576 
L 782.9827 135.776521 
L 801.03958 131.905138 
L 819.09646 129.153737 
L 837.15334 124.507292 
L 855.21022 128.706103 
L 873.2671 121.695114 
L 891.32398 118.462402 
L 909.38086 111.048895 
L 927.43774 101.981317 
L 945.49462 137.850043 
L 963.5515 136.93717 
L 963.5515 115.447638 
L 963.5515 115.447638 
L 945.49462 116.091878 
L 927.43774 81.095321 
L 909.38086 89.312671 
L 891.32398 97.268938 
L 873.2671 100.676353 
L 855.21022 107.248753 
L 837.15334 104.180614 
L 819.09646 108.238997 
L 801.03958 109.979821 
L 782.9827 115.713542 
L 764.92582 129.323506 
L 746.86894 126.572104 
L 728.81206 131.875535 
L 710.75518 139.026203 
L 692.6983 151.669134 
L 674.64142 155.629065 
L 656.58454 158.472228 
L 638.52766 160.773416 
L 620.47078 164.938737 
L 602.4139 168.198548 
L 584.35702 170.539132 
L 566.30014 178.07322 
L 548.24326 191.895413 
L 530.18638 206.256778 
L 512.1295 191.18266 
L 494.07262 185.797522 
L 476.01574 190.468262 
L 457.95886 193.368651 
L 439.90198 195.068583 
L 421.8451 201.259545 
L 403.78822 208.613024 
L 349.61758 222.599641 
L 331.5607 228.643036 
L 313.50382 233.811645 
L 295.44694 233.489899 
L 277.39006 238.851489 
L 259.33318 243.923142 
L 241.2763 243.982049 
L 223.21942 250.230572 
L 205.16254 251.464779 
L 187.10566 255.458873 
L 169.04878 260.322818 
L 150.9919 259.34917 
L 132.93502 262.411739 
L 114.87814 267.214385 
L 96.82126 269.786 
L 78.76438 275.625687 
L 60.7075 273.125501 
z
" clip-path="url(#pba3eb2880b)" style="fill: #be503b"/>
   </g>
   <g id="PolyCollection_6">
    <path d="M 60.7075 220.431405 
L 60.7075 273.125501 
L 78.76438 275.625687 
L 96.82126 269.786 
L 114.87814 267.214385 
L 132.93502 262.411739 
L 150.9919 259.34917 
L 169.04878 260.322818 
L 187.10566 255.458873 
L 205.16254 251.464779 
L 223.21942 250.230572 
L 241.2763 243.982049 
L 259.33318 243.923142 
L 277.39006 238.851489 
L 295.44694 233.489899 
L 313.50382 233.811645 
L 331.5607 228.643036 
L 349.61758 222.599641 
L 403.78822 208.613024 
L 421.8451 201.259545 
L 439.90198 195.068583 
L 457.95886 193.368651 
L 476.01574 190.468262 
L 494.07262 185.797522 
L 512.1295 191.18266 
L 530.18638 206.256778 
L 548.24326 191.895413 
L 566.30014 178.07322 
L 584.35702 170.539132 
L 602.4139 168.198548 
L 620.47078 164.938737 
L 638.52766 160.773416 
L 656.58454 158.472228 
L 674.64142 155.629065 
L 692.6983 151.669134 
L 710.75518 139.026203 
L 728.81206 131.875535 
L 746.86894 126.572104 
L 764.92582 129.323506 
L 782.9827 115.713542 
L 801.03958 109.979821 
L 819.09646 108.238997 
L 837.15334 104.180614 
L 855.21022 107.248753 
L 873.2671 100.676353 
L 891.32398 97.268938 
L 909.38086 89.312671 
L 927.43774 81.095321 
L 945.49462 116.091878 
L 963.5515 115.447638 
L 963.5515 65.479377 
L 963.5515 65.479377 
L 945.49462 62.45953 
L 927.43774 24.14175 
L 909.38086 33.164176 
L 891.32398 44.164062 
L 873.2671 48.323739 
L 855.21022 55.1675 
L 837.15334 48.052378 
L 819.09646 54.239825 
L 801.03958 57.602649 
L 782.9827 53.744087 
L 764.92582 65.321083 
L 746.86894 57.68017 
L 728.81206 67.896287 
L 710.75518 79.600965 
L 692.6983 89.891911 
L 674.64142 95.48072 
L 656.58454 97.27361 
L 638.52766 110.800334 
L 620.47078 108.891423 
L 602.4139 110.97926 
L 584.35702 113.77929 
L 566.30014 127.71384 
L 548.24326 145.026913 
L 530.18638 158.491253 
L 512.1295 139.40667 
L 494.07262 123.797828 
L 476.01574 130.767252 
L 457.95886 140.090231 
L 439.90198 138.557115 
L 421.8451 141.241722 
L 403.78822 152.926404 
L 349.61758 170.707668 
L 331.5607 178.223179 
L 313.50382 186.273899 
L 295.44694 181.412683 
L 277.39006 184.067201 
L 259.33318 191.758611 
L 241.2763 196.314789 
L 223.21942 202.950806 
L 205.16254 200.404458 
L 187.10566 202.261974 
L 169.04878 208.948189 
L 150.9919 211.495209 
L 132.93502 211.565105 
L 114.87814 216.064768 
L 96.82126 219.901278 
L 78.76438 228.542453 
L 60.7075 220.431405 
z
" clip-path="url(#pba3eb2880b)" style="fill: #e9a942"/>
   </g>
   <g id="patch_3">
    <path d="M 60.7075 567.74175 
L 60.7075 24.14175 
" style="fill: none; stroke: #ffffff; stroke-linejoin: miter; stroke-linecap: square"/>
   </g>
   <g id="patch_4">
    <path d="M 963.5515 567.74175 
L 963.5515 24.14175 
" style="fill: none; stroke: #ffffff; stroke-linejoin: miter; stroke-linecap: square"/>
   </g>
   <g id="patch_5">
    <path d="M 60.7075 567.74175 
L 963.5515 567.74175 
" style="fill: none; stroke: #ffffff; stroke-linejoin: miter; stroke-linecap: square"/>
   </g>
   <g id="patch_6">
    <path d="M 60.7075 24.14175 
L 963.5515 24.14175 
" style="fill: none; stroke: #ffffff; stroke-linejoin: miter; stroke-linecap: square"/>
   </g>
   <g id="text_22">
    <!-- Enterprise Linux 8 and 9 Instances by Distribution -->
    <g transform="translate(60.7075 18.14175)scale(0.144 -0.144)">
     <defs>
      <path id="DejaVuSans-45" d="M 628 4666 
L 3578 4666 
L 3578 4134 
L 1259 4134 
L 1259 2753 
L 3481 2753 
L 3481 2222 
L 1259 2222 
L 1259 531 
L 3634 531 
L 3634 0 
L 628 0 
L 628 4666 
z
" transform="scale(0.015625)"/>
      <path id="DejaVuSans-72" d="M 2631 2963 
Q 2534 3019 2420 3045 
Q 2306 3072 2169 3072 
Q 1681 3072 1420 2755 
Q 1159 2438 1159 1844 
L 1159 0 
L 581 0 
L 581 3500 
L 1159 3500 
L 1159 2956 
Q 1341 3275 1631 3429 
Q 1922 3584 2338 3584 
Q 2397 3584 2469 3576 
Q 2541 3569 2628 3553 
L 2631 2963 
z
" transform="scale(0.015625)"/>
      <path id="DejaVuSans-70" d="M 1159 525 
L 1159 -1331 
L 581 -1331 
L 581 3500 
L 1159 3500 
L 1159 2969 
Q 1341 3281 1617 3432 
Q 1894 3584 2278 3584 
Q 2916 3584 3314 3078 
Q 3713 2572 3713 1747 
Q 3713 922 3314 415 
Q 2916 -91 2278 -91 
Q 1894 -91 1617 61 
Q 1341 213 1159 525 
z
M 3116 1747 
Q 3116 2381 2855 2742 
Q 2594 3103 2138 3103 
Q 1681 3103 1420 2742 
Q 1159 2381 1159 1747 
Q 1159 1113 1420 752 
Q 1681 391 2138 391 
Q 2594 391 2855 752 
Q 3116 1113 3116 1747 
z
" transform="scale(0.015625)"/>
      <path id="DejaVuSans-69" d="M 603 3500 
L 1178 3500 
L 1178 0 
L 603 0 
L 603 3500 
z
M 603 4863 
L 1178 4863 
L 1178 4134 
L 603 4134 
L 603 4863 
z
" transform="scale(0.015625)"/>
      <path id="DejaVuSans-20" transform="scale(0.015625)"/>
      <path id="DejaVuSans-4c" d="M 628 4666 
L 1259 4666 
L 1259 531 
L 3531 531 
L 3531 0 
L 628 0 
L 628 4666 
z
" transform="scale(0.015625)"/>
      <path id="DejaVuSans-75" d="M 544 1381 
L 544 3500 
L 1119 3500 
L 1119 1403 
Q 1119 906 1312 657 
Q 1506 409 1894 409 
Q 2359 409 2629 706 
Q 2900 1003 2900 1516 
L 2900 3500 
L 3475 3500 
L 3475 0 
L 2900 0 
L 2900 538 
Q 2691 219 2414 64 
Q 2138 -91 1772 -91 
Q 1169 -91 856 284 
Q 544 659 544 1381 
z
M 1991 3584 
L 1991 3584 
z
" transform="scale(0.015625)"/>
      <path id="DejaVuSans-78" d="M 3513 3500 
L 2247 1797 
L 3578 0 
L 2900 0 
L 1881 1375 
L 863 0 
L 184 0 
L 1544 1831 
L 300 3500 
L 978 3500 
L 1906 2253 
L 2834 3500 
L 3513 3500 
z
" transform="scale(0.015625)"/>
      <path id="DejaVuSans-64" d="M 2906 2969 
L 2906 4863 
L 3481 4863 
L 3481 0 
L 2906 0 
L 2906 525 
Q 2725 213 2448 61 
Q 2172 -91 1784 -91 
Q 1150 -91 751 415 
Q 353 922 353 1747 
Q 353 2572 751 3078 
Q 1150 3584 1784 3584 
Q 2172 3584 2448 3432 
Q 2725 3281 2906 2969 
z
M 947 1747 
Q 947 1113 1208 752 
Q 1469 391 1925 391 
Q 2381 391 2643 752 
Q 2906 1113 2906 1747 
Q 2906 2381 2643 2742 
Q 2381 3103 1925 3103 
Q 1469 3103 1208 2742 
Q 947 2381 947 1747 
z
" transform="scale(0.015625)"/>
      <path id="DejaVuSans-62" d="M 3116 1747 
Q 3116 2381 2855 2742 
Q 2594 3103 2138 3103 
Q 1681 3103 1420 2742 
Q 1159 2381 1159 1747 
Q 1159 1113 1420 752 
Q 1681 391 2138 391 
Q 2594 391 2855 752 
Q 3116 1113 3116 1747 
z
M 1159 2969 
Q 1341 3281 1617 3432 
Q 1894 3584 2278 3584 
Q 2916 3584 3314 3078 
Q 3713 2572 3713 1747 
Q 3713 922 3314 415 
Q 2916 -91 2278 -91 
Q 1894 -91 1617 61 
Q 1341 213 1159 525 
L 1159 0 
L 581 0 
L 581 4863 
L 1159 4863 
L 1159 2969 
z
" transform="scale(0.015625)"/>
      <path id="DejaVuSans-79" d="M 2059 -325 
Q 1816 -950 1584 -1140 
Q 1353 -1331 966 -1331 
L 506 -1331 
L 506 -850 
L 844 -850 
Q 1081 -850 1212 -737 
Q 1344 -625 1503 -206 
L 1606 56 
L 191 3500 
L 800 3500 
L 1894 763 
L 2988 3500 
L 3597 3500 
L 2059 -325 
z
" transform="scale(0.015625)"/>
      <path id="DejaVuSans-6f" d="M 1959 3097 
Q 1497 3097 1228 2736 
Q 959 2375 959 1747 
Q 959 1119 1226 758 
Q 1494 397 1959 397 
Q 2419 397 2687 759 
Q 2956 1122 2956 1747 
Q 2956 2369 2687 2733 
Q 2419 3097 1959 3097 
z
M 1959 3584 
Q 2709 3584 3137 3096 
Q 3566 2609 3566 1747 
Q 3566 888 3137 398 
Q 2709 -91 1959 -91 
Q 1206 -91 779 398 
Q 353 888 353 1747 
Q 353 2609 779 3096 
Q 1206 3584 1959 3584 
z
" transform="scale(0.015625)"/>
     </defs>
     <use xlink:href="#DejaVuSans-45"/>
     <use xlink:href="#DejaVuSans-6e" x="63.183594"/>
     <use xlink:href="#DejaVuSans-74" x="126.5625"/>
     <use xlink:href="#DejaVuSans-65" x="165.771484"/>
     <use xlink:href="#DejaVuSans-72" x="227.294922"/>
     <use xlink:href="#DejaVuSans-70" x="268.408203"/>
     <use xlink:href="#DejaVuSans-72" x="331.884766"/>
     <use xlink:href="#DejaVuSans-69" x="372.998047"/>
     <use xlink:href="#DejaVuSans-73" x="400.78125"/>
     <use xlink:href="#DejaVuSans-65" x="452.880859"/>
     <use xlink:href="#DejaVuSans-20" x="514.404297"/>
     <use xlink:href="#DejaVuSans-4c" x="546.191406"/>
     <use xlink:href="#DejaVuSans-69" x="601.904297"/>
     <use xlink:href="#DejaVuSans-6e" x="629.6875"/>
     <use xlink:href="#DejaVuSans-75" x="693.066406"/>
     <use xlink:href="#DejaVuSans-78" x="756.445312"/>
     <use xlink:href="#DejaVuSans-20" x="815.625"/>
     <use xlink:href="#DejaVuSans-38" x="847.412109"/>
     <use xlink:href="#DejaVuSans-20" x="911.035156"/>
     <use xlink:href="#DejaVuSans-61" x="942.822266"/>
     <use xlink:href="#DejaVuSans-6e" x="1004.101562"/>
     <use xlink:href="#DejaVuSans-64" x="1067.480469"/>
     <use xlink:href="#DejaVuSans-20" x="1130.957031"/>
     <use xlink:href="#DejaVuSans-39" x="1162.744141"/>
     <use xlink:href="#DejaVuSans-20" x="1226.367188"/>
     <use xlink:href="#DejaVuSans-49" x="1258.154297"/>
     <use xlink:href="#DejaVuSans-6e" x="1287.646484"/>
     <use xlink:href="#DejaVuSans-73" x="1351.025391"/>
     <use xlink:href="#DejaVuSans-74" x="1403.125"/>
     <use xlink:href="#DejaVuSans-61" x="1442.333984"/>
     <use xlink:href="#DejaVuSans-6e" x="1503.613281"/>
     <use xlink:href="#DejaVuSans-63" x="1566.992188"/>
     <use xlink:href="#DejaVuSans-65" x="1621.972656"/>
     <use xlink:href="#DejaVuSans-73" x="1683.496094"/>
     <use xlink:href="#DejaVuSans-20" x="1735.595703"/>
     <use xlink:href="#DejaVuSans-62" x="1767.382812"/>
     <use xlink:href="#DejaVuSans-79" x="1830.859375"/>
     <use xlink:href="#DejaVuSans-20" x="1890.039062"/>
     <use xlink:href="#DejaVuSans-44" x="1921.826172"/>
     <use xlink:href="#DejaVuSans-69" x="1998.828125"/>
     <use xlink:href="#DejaVuSans-73" x="2026.611328"/>
     <use xlink:href="#DejaVuSans-74" x="2078.710938"/>
     <use xlink:href="#DejaVuSans-72" x="2117.919922"/>
     <use xlink:href="#DejaVuSans-69" x="2159.033203"/>
     <use xlink:href="#DejaVuSans-62" x="2186.816406"/>
     <use xlink:href="#DejaVuSans-75" x="2250.292969"/>
     <use xlink:href="#DejaVuSans-74" x="2313.671875"/>
     <use xlink:href="#DejaVuSans-69" x="2352.880859"/>
     <use xlink:href="#DejaVuSans-6f" x="2380.664062"/>
     <use xlink:href="#DejaVuSans-6e" x="2441.845703"/>
    </g>
   </g>
   <g id="text_23">
    <!-- 2024-06-27 11:58 UTC -->
    <g transform="translate(800.6695 18.14175)scale(0.144 -0.144)">
     <defs>
      <path id="DejaVuSans-3a" d="M 750 794 
L 1409 794 
L 1409 0 
L 750 0 
L 750 794 
z
M 750 3309 
L 1409 3309 
L 1409 2516 
L 750 2516 
L 750 3309 
z
" transform="scale(0.015625)"/>
      <path id="DejaVuSans-55" d="M 556 4666 
L 1191 4666 
L 1191 1831 
Q 1191 1081 1462 751 
Q 1734 422 2344 422 
Q 2950 422 3222 751 
Q 3494 1081 3494 1831 
L 3494 4666 
L 4128 4666 
L 4128 1753 
Q 4128 841 3676 375 
Q 3225 -91 2344 -91 
Q 1459 -91 1007 375 
Q 556 841 556 1753 
L 556 4666 
z
" transform="scale(0.015625)"/>
      <path id="DejaVuSans-54" d="M -19 4666 
L 3928 4666 
L 3928 4134 
L 2272 4134 
L 2272 0 
L 1638 0 
L 1638 4134 
L -19 4134 
L -19 4666 
z
" transform="scale(0.015625)"/>
      <path id="DejaVuSans-43" d="M 4122 4306 
L 4122 3641 
Q 3803 3938 3442 4084 
Q 3081 4231 2675 4231 
Q 1875 4231 1450 3742 
Q 1025 3253 1025 2328 
Q 1025 1406 1450 917 
Q 1875 428 2675 428 
Q 3081 428 3442 575 
Q 3803 722 4122 1019 
L 4122 359 
Q 3791 134 3420 21 
Q 3050 -91 2638 -91 
Q 1578 -91 968 557 
Q 359 1206 359 2328 
Q 359 3453 968 4101 
Q 1578 4750 2638 4750 
Q 3056 4750 3426 4639 
Q 3797 4528 4122 4306 
z
" transform="scale(0.015625)"/>
     </defs>
     <use xlink:href="#DejaVuSans-32"/>
     <use xlink:href="#DejaVuSans-30" x="63.623047"/>
     <use xlink:href="#DejaVuSans-32" x="127.246094"/>
     <use xlink:href="#DejaVuSans-34" x="190.869141"/>
     <use xlink:href="#DejaVuSans-2d" x="254.492188"/>
     <use xlink:href="#DejaVuSans-30" x="290.576172"/>
     <use xlink:href="#DejaVuSans-36" x="354.199219"/>
     <use xlink:href="#DejaVuSans-2d" x="417.822266"/>
     <use xlink:href="#DejaVuSans-32" x="453.90625"/>
     <use xlink:href="#DejaVuSans-37" x="517.529297"/>
     <use xlink:href="#DejaVuSans-20" x="581.152344"/>
     <use xlink:href="#DejaVuSans-31" x="612.939453"/>
     <use xlink:href="#DejaVuSans-31" x="676.5625"/>
     <use xlink:href="#DejaVuSans-3a" x="740.185547"/>
     <use xlink:href="#DejaVuSans-35" x="773.876953"/>
     <use xlink:href="#DejaVuSans-38" x="837.5"/>
     <use xlink:href="#DejaVuSans-20" x="901.123047"/>
     <use xlink:href="#DejaVuSans-55" x="932.910156"/>
     <use xlink:href="#DejaVuSans-54" x="1006.103516"/>
     <use xlink:href="#DejaVuSans-43" x="1061.3125"/>
    </g>
   </g>
   <g id="legend_1">
    <g id="patch_7">
     <path d="M 67.7075 134.888625 
L 176.67625 134.888625 
Q 178.67625 134.888625 178.67625 132.888625 
L 178.67625 31.14175 
Q 178.67625 29.14175 176.67625 29.14175 
L 67.7075 29.14175 
Q 65.7075 29.14175 65.7075 31.14175 
L 65.7075 132.888625 
Q 65.7075 134.888625 67.7075 134.888625 
z
" style="fill: #e5e5e5; opacity: 0.8; stroke: #cccccc; stroke-width: 0.5; stroke-linejoin: miter"/>
    </g>
    <g id="text_24">
     <!-- Distribution -->
     <g transform="translate(93.023125 40.740187)scale(0.1 -0.1)">
      <use xlink:href="#DejaVuSans-44"/>
      <use xlink:href="#DejaVuSans-69" x="77.001953"/>
      <use xlink:href="#DejaVuSans-73" x="104.785156"/>
      <use xlink:href="#DejaVuSans-74" x="156.884766"/>
      <use xlink:href="#DejaVuSans-72" x="196.09375"/>
      <use xlink:href="#DejaVuSans-69" x="237.207031"/>
      <use xlink:href="#DejaVuSans-62" x="264.990234"/>
      <use xlink:href="#DejaVuSans-75" x="328.466797"/>
      <use xlink:href="#DejaVuSans-74" x="391.845703"/>
      <use xlink:href="#DejaVuSans-69" x="431.054688"/>
      <use xlink:href="#DejaVuSans-6f" x="458.837891"/>
      <use xlink:href="#DejaVuSans-6e" x="520.019531"/>
     </g>
    </g>
    <g id="patch_8">
     <path d="M 69.7075 55.418312 
L 89.7075 55.418312 
L 89.7075 48.418312 
L 69.7075 48.418312 
z
" style="fill: #48b585"/>
    </g>
    <g id="text_25">
     <!-- Rocky Linux -->
     <g transform="translate(97.7075 55.418312)scale(0.1 -0.1)">
      <defs>
       <path id="DejaVuSans-52" d="M 2841 2188 
Q 3044 2119 3236 1894 
Q 3428 1669 3622 1275 
L 4263 0 
L 3584 0 
L 2988 1197 
Q 2756 1666 2539 1819 
Q 2322 1972 1947 1972 
L 1259 1972 
L 1259 0 
L 628 0 
L 628 4666 
L 2053 4666 
Q 2853 4666 3247 4331 
Q 3641 3997 3641 3322 
Q 3641 2881 3436 2590 
Q 3231 2300 2841 2188 
z
M 1259 4147 
L 1259 2491 
L 2053 2491 
Q 2509 2491 2742 2702 
Q 2975 2913 2975 3322 
Q 2975 3731 2742 3939 
Q 2509 4147 2053 4147 
L 1259 4147 
z
" transform="scale(0.015625)"/>
       <path id="DejaVuSans-6b" d="M 581 4863 
L 1159 4863 
L 1159 1991 
L 2875 3500 
L 3609 3500 
L 1753 1863 
L 3688 0 
L 2938 0 
L 1159 1709 
L 1159 0 
L 581 0 
L 581 4863 
z
" transform="scale(0.015625)"/>
      </defs>
      <use xlink:href="#DejaVuSans-52"/>
      <use xlink:href="#DejaVuSans-6f" x="64.982422"/>
      <use xlink:href="#DejaVuSans-63" x="126.164062"/>
      <use xlink:href="#DejaVuSans-6b" x="181.144531"/>
      <use xlink:href="#DejaVuSans-79" x="235.429688"/>
      <use xlink:href="#DejaVuSans-20" x="294.609375"/>
      <use xlink:href="#DejaVuSans-4c" x="326.396484"/>
      <use xlink:href="#DejaVuSans-69" x="382.109375"/>
      <use xlink:href="#DejaVuSans-6e" x="409.892578"/>
      <use xlink:href="#DejaVuSans-75" x="473.271484"/>
      <use xlink:href="#DejaVuSans-78" x="536.650391"/>
     </g>
    </g>
    <g id="patch_9">
     <path d="M 69.7075 70.096437 
L 89.7075 70.096437 
L 89.7075 63.096437 
L 69.7075 63.096437 
z
" style="fill: #e2321d"/>
    </g>
    <g id="text_26">
     <!-- RHEL -->
     <g transform="translate(97.7075 70.096437)scale(0.1 -0.1)">
      <defs>
       <path id="DejaVuSans-48" d="M 628 4666 
L 1259 4666 
L 1259 2753 
L 3553 2753 
L 3553 4666 
L 4184 4666 
L 4184 0 
L 3553 0 
L 3553 2222 
L 1259 2222 
L 1259 0 
L 628 0 
L 628 4666 
z
" transform="scale(0.015625)"/>
      </defs>
      <use xlink:href="#DejaVuSans-52"/>
      <use xlink:href="#DejaVuSans-48" x="69.482422"/>
      <use xlink:href="#DejaVuSans-45" x="144.677734"/>
      <use xlink:href="#DejaVuSans-4c" x="207.861328"/>
     </g>
    </g>
    <g id="patch_10">
     <path d="M 69.7075 84.774563 
L 89.7075 84.774563 
L 89.7075 77.774563 
L 69.7075 77.774563 
z
" style="fill: #9a5689"/>
    </g>
    <g id="text_27">
     <!-- CentOS Stream -->
     <g transform="translate(97.7075 84.774563)scale(0.1 -0.1)">
      <defs>
       <path id="DejaVuSans-4f" d="M 2522 4238 
Q 1834 4238 1429 3725 
Q 1025 3213 1025 2328 
Q 1025 1447 1429 934 
Q 1834 422 2522 422 
Q 3209 422 3611 934 
Q 4013 1447 4013 2328 
Q 4013 3213 3611 3725 
Q 3209 4238 2522 4238 
z
M 2522 4750 
Q 3503 4750 4090 4092 
Q 4678 3434 4678 2328 
Q 4678 1225 4090 567 
Q 3503 -91 2522 -91 
Q 1538 -91 948 565 
Q 359 1222 359 2328 
Q 359 3434 948 4092 
Q 1538 4750 2522 4750 
z
" transform="scale(0.015625)"/>
       <path id="DejaVuSans-53" d="M 3425 4513 
L 3425 3897 
Q 3066 4069 2747 4153 
Q 2428 4238 2131 4238 
Q 1616 4238 1336 4038 
Q 1056 3838 1056 3469 
Q 1056 3159 1242 3001 
Q 1428 2844 1947 2747 
L 2328 2669 
Q 3034 2534 3370 2195 
Q 3706 1856 3706 1288 
Q 3706 609 3251 259 
Q 2797 -91 1919 -91 
Q 1588 -91 1214 -16 
Q 841 59 441 206 
L 441 856 
Q 825 641 1194 531 
Q 1563 422 1919 422 
Q 2459 422 2753 634 
Q 3047 847 3047 1241 
Q 3047 1584 2836 1778 
Q 2625 1972 2144 2069 
L 1759 2144 
Q 1053 2284 737 2584 
Q 422 2884 422 3419 
Q 422 4038 858 4394 
Q 1294 4750 2059 4750 
Q 2388 4750 2728 4690 
Q 3069 4631 3425 4513 
z
" transform="scale(0.015625)"/>
       <path id="DejaVuSans-6d" d="M 3328 2828 
Q 3544 3216 3844 3400 
Q 4144 3584 4550 3584 
Q 5097 3584 5394 3201 
Q 5691 2819 5691 2113 
L 5691 0 
L 5113 0 
L 5113 2094 
Q 5113 2597 4934 2840 
Q 4756 3084 4391 3084 
Q 3944 3084 3684 2787 
Q 3425 2491 3425 1978 
L 3425 0 
L 2847 0 
L 2847 2094 
Q 2847 2600 2669 2842 
Q 2491 3084 2119 3084 
Q 1678 3084 1418 2786 
Q 1159 2488 1159 1978 
L 1159 0 
L 581 0 
L 581 3500 
L 1159 3500 
L 1159 2956 
Q 1356 3278 1631 3431 
Q 1906 3584 2284 3584 
Q 2666 3584 2933 3390 
Q 3200 3197 3328 2828 
z
" transform="scale(0.015625)"/>
      </defs>
      <use xlink:href="#DejaVuSans-43"/>
      <use xlink:href="#DejaVuSans-65" x="69.824219"/>
      <use xlink:href="#DejaVuSans-6e" x="131.347656"/>
      <use xlink:href="#DejaVuSans-74" x="194.726562"/>
      <use xlink:href="#DejaVuSans-4f" x="233.935547"/>
      <use xlink:href="#DejaVuSans-53" x="312.646484"/>
      <use xlink:href="#DejaVuSans-20" x="376.123047"/>
      <use xlink:href="#DejaVuSans-53" x="407.910156"/>
      <use xlink:href="#DejaVuSans-74" x="471.386719"/>
      <use xlink:href="#DejaVuSans-72" x="510.595703"/>
      <use xlink:href="#DejaVuSans-65" x="549.458984"/>
      <use xlink:href="#DejaVuSans-61" x="610.982422"/>
      <use xlink:href="#DejaVuSans-6d" x="672.261719"/>
     </g>
    </g>
    <g id="patch_11">
     <path d="M 69.7075 99.452687 
L 89.7075 99.452687 
L 89.7075 92.452687 
L 69.7075 92.452687 
z
" style="fill: #4ac1fa"/>
    </g>
    <g id="text_28">
     <!-- Alma Linux -->
     <g transform="translate(97.7075 99.452687)scale(0.1 -0.1)">
      <defs>
       <path id="DejaVuSans-41" d="M 2188 4044 
L 1331 1722 
L 3047 1722 
L 2188 4044 
z
M 1831 4666 
L 2547 4666 
L 4325 0 
L 3669 0 
L 3244 1197 
L 1141 1197 
L 716 0 
L 50 0 
L 1831 4666 
z
" transform="scale(0.015625)"/>
       <path id="DejaVuSans-6c" d="M 603 4863 
L 1178 4863 
L 1178 0 
L 603 0 
L 603 4863 
z
" transform="scale(0.015625)"/>
      </defs>
      <use xlink:href="#DejaVuSans-41"/>
      <use xlink:href="#DejaVuSans-6c" x="68.408203"/>
      <use xlink:href="#DejaVuSans-6d" x="96.191406"/>
      <use xlink:href="#DejaVuSans-61" x="193.603516"/>
      <use xlink:href="#DejaVuSans-20" x="254.882812"/>
      <use xlink:href="#DejaVuSans-4c" x="286.669922"/>
      <use xlink:href="#DejaVuSans-69" x="342.382812"/>
      <use xlink:href="#DejaVuSans-6e" x="370.166016"/>
      <use xlink:href="#DejaVuSans-75" x="433.544922"/>
      <use xlink:href="#DejaVuSans-78" x="496.923828"/>
     </g>
    </g>
    <g id="patch_12">
     <path d="M 69.7075 114.130812 
L 89.7075 114.130812 
L 89.7075 107.130812 
L 69.7075 107.130812 
z
" style="fill: #be503b"/>
    </g>
    <g id="text_29">
     <!-- Oracle -->
     <g transform="translate(97.7075 114.130812)scale(0.1 -0.1)">
      <use xlink:href="#DejaVuSans-4f"/>
      <use xlink:href="#DejaVuSans-72" x="78.710938"/>
      <use xlink:href="#DejaVuSans-61" x="119.824219"/>
      <use xlink:href="#DejaVuSans-63" x="181.103516"/>
      <use xlink:href="#DejaVuSans-6c" x="236.083984"/>
      <use xlink:href="#DejaVuSans-65" x="263.867188"/>
     </g>
    </g>
    <g id="patch_13">
     <path d="M 69.7075 128.808937 
L 89.7075 128.808937 
L 89.7075 121.808937 
L 69.7075 121.808937 
z
" style="fill: #e9a942"/>
    </g>
    <g id="text_30">
     <!-- CentOS Legacy -->
     <g transform="translate(97.7075 128.808937)scale(0.1 -0.1)">
      <defs>
       <path id="DejaVuSans-67" d="M 2906 1791 
Q 2906 2416 2648 2759 
Q 2391 3103 1925 3103 
Q 1463 3103 1205 2759 
Q 947 2416 947 1791 
Q 947 1169 1205 825 
Q 1463 481 1925 481 
Q 2391 481 2648 825 
Q 2906 1169 2906 1791 
z
M 3481 434 
Q 3481 -459 3084 -895 
Q 2688 -1331 1869 -1331 
Q 1566 -1331 1297 -1286 
Q 1028 -1241 775 -1147 
L 775 -588 
Q 1028 -725 1275 -790 
Q 1522 -856 1778 -856 
Q 2344 -856 2625 -561 
Q 2906 -266 2906 331 
L 2906 616 
Q 2728 306 2450 153 
Q 2172 0 1784 0 
Q 1141 0 747 490 
Q 353 981 353 1791 
Q 353 2603 747 3093 
Q 1141 3584 1784 3584 
Q 2172 3584 2450 3431 
Q 2728 3278 2906 2969 
L 2906 3500 
L 3481 3500 
L 3481 434 
z
" transform="scale(0.015625)"/>
      </defs>
      <use xlink:href="#DejaVuSans-43"/>
      <use xlink:href="#DejaVuSans-65" x="69.824219"/>
      <use xlink:href="#DejaVuSans-6e" x="131.347656"/>
      <use xlink:href="#DejaVuSans-74" x="194.726562"/>
      <use xlink:href="#DejaVuSans-4f" x="233.935547"/>
      <use xlink:href="#DejaVuSans-53" x="312.646484"/>
      <use xlink:href="#DejaVuSans-20" x="376.123047"/>
      <use xlink:href="#DejaVuSans-4c" x="407.910156"/>
      <use xlink:href="#DejaVuSans-65" x="461.873047"/>
      <use xlink:href="#DejaVuSans-67" x="523.396484"/>
      <use xlink:href="#DejaVuSans-61" x="586.873047"/>
      <use xlink:href="#DejaVuSans-63" x="648.152344"/>
      <use xlink:href="#DejaVuSans-79" x="703.132812"/>
     </g>
    </g>
   </g>
  </g>
 </g>
 <defs>
  <clipPath id="pba3eb2880b">
   <rect x="60.7075" y="24.14175" width="902.844" height="543.6"/>
  </clipPath>
 </defs>
</svg>
