<?xml version="1.0" encoding="utf-8" standalone="no"?>
<!DOCTYPE svg PUBLIC "-//W3C//DTD SVG 1.1//EN"
  "http://www.w3.org/Graphics/SVG/1.1/DTD/svg11.dtd">
<svg xmlns:xlink="http://www.w3.org/1999/xlink" width="970.7515pt" height="644.743878pt" viewBox="0 0 970.7515 644.743878" xmlns="http://www.w3.org/2000/svg" version="1.1">
 <metadata>
  <rdf:RDF xmlns:dc="http://purl.org/dc/elements/1.1/" xmlns:cc="http://creativecommons.org/ns#" xmlns:rdf="http://www.w3.org/1999/02/22-rdf-syntax-ns#">
   <cc:Work>
    <dc:type rdf:resource="http://purl.org/dc/dcmitype/StillImage"/>
    <dc:date>2025-02-20T11:55:02.412437</dc:date>
    <dc:format>image/svg+xml</dc:format>
    <dc:creator>
     <cc:Agent>
      <dc:title>Matplotlib v3.6.3, https://matplotlib.org/</dc:title>
     </cc:Agent>
    </dc:creator>
   </cc:Work>
  </rdf:RDF>
 </metadata>
 <defs>
  <style type="text/css">*{stroke-linejoin: round; stroke-linecap: butt}</style>
 </defs>
 <g id="figure_1">
  <g id="patch_1">
   <path d="M 0 644.743878 
L 970.7515 644.743878 
L 970.7515 0 
L 0 0 
z
" style="fill: #ffffff"/>
  </g>
  <g id="axes_1">
   <g id="patch_2">
    <path d="M 60.7075 578.54175 
L 963.5515 578.54175 
L 963.5515 24.14175 
L 60.7075 24.14175 
z
" style="fill: #e5e5e5"/>
   </g>
   <g id="matplotlib.axis_1">
    <g id="xtick_1">
     <g id="line2d_1">
      <path d="M 96.82126 578.54175 
L 96.82126 24.14175 
" clip-path="url(#pbfc56ea92d)" style="fill: none; stroke: #ffffff; stroke-width: 0.8; stroke-linecap: square"/>
     </g>
     <g id="line2d_2">
      <defs>
       <path id="m94e0fce1d5" d="M 0 0 
L 0 3.5 
" style="stroke: #555555; stroke-width: 0.8"/>
      </defs>
      <g>
       <use xlink:href="#m94e0fce1d5" x="96.82126" y="578.54175" style="fill: #555555; stroke: #555555; stroke-width: 0.8"/>
      </g>
     </g>
     <g id="text_1">
      <!-- 2024-03 -->
      <g style="fill: #555555" transform="translate(83.999978 620.459567) rotate(-45) scale(0.1 -0.1)">
       <defs>
        <path id="DejaVuSans-32" d="M 1228 531 
L 3431 531 
L 3431 0 
L 469 0 
L 469 531 
Q 828 903 1448 1529 
Q 2069 2156 2228 2338 
Q 2531 2678 2651 2914 
Q 2772 3150 2772 3378 
Q 2772 3750 2511 3984 
Q 2250 4219 1831 4219 
Q 1534 4219 1204 4116 
Q 875 4013 500 3803 
L 500 4441 
Q 881 4594 1212 4672 
Q 1544 4750 1819 4750 
Q 2544 4750 2975 4387 
Q 3406 4025 3406 3419 
Q 3406 3131 3298 2873 
Q 3191 2616 2906 2266 
Q 2828 2175 2409 1742 
Q 1991 1309 1228 531 
z
" transform="scale(0.015625)"/>
        <path id="DejaVuSans-30" d="M 2034 4250 
Q 1547 4250 1301 3770 
Q 1056 3291 1056 2328 
Q 1056 1369 1301 889 
Q 1547 409 2034 409 
Q 2525 409 2770 889 
Q 3016 1369 3016 2328 
Q 3016 3291 2770 3770 
Q 2525 4250 2034 4250 
z
M 2034 4750 
Q 2819 4750 3233 4129 
Q 3647 3509 3647 2328 
Q 3647 1150 3233 529 
Q 2819 -91 2034 -91 
Q 1250 -91 836 529 
Q 422 1150 422 2328 
Q 422 3509 836 4129 
Q 1250 4750 2034 4750 
z
" transform="scale(0.015625)"/>
        <path id="DejaVuSans-34" d="M 2419 4116 
L 825 1625 
L 2419 1625 
L 2419 4116 
z
M 2253 4666 
L 3047 4666 
L 3047 1625 
L 3713 1625 
L 3713 1100 
L 3047 1100 
L 3047 0 
L 2419 0 
L 2419 1100 
L 313 1100 
L 313 1709 
L 2253 4666 
z
" transform="scale(0.015625)"/>
        <path id="DejaVuSans-2d" d="M 313 2009 
L 1997 2009 
L 1997 1497 
L 313 1497 
L 313 2009 
z
" transform="scale(0.015625)"/>
        <path id="DejaVuSans-33" d="M 2597 2516 
Q 3050 2419 3304 2112 
Q 3559 1806 3559 1356 
Q 3559 666 3084 287 
Q 2609 -91 1734 -91 
Q 1441 -91 1130 -33 
Q 819 25 488 141 
L 488 750 
Q 750 597 1062 519 
Q 1375 441 1716 441 
Q 2309 441 2620 675 
Q 2931 909 2931 1356 
Q 2931 1769 2642 2001 
Q 2353 2234 1838 2234 
L 1294 2234 
L 1294 2753 
L 1863 2753 
Q 2328 2753 2575 2939 
Q 2822 3125 2822 3475 
Q 2822 3834 2567 4026 
Q 2313 4219 1838 4219 
Q 1578 4219 1281 4162 
Q 984 4106 628 3988 
L 628 4550 
Q 988 4650 1302 4700 
Q 1616 4750 1894 4750 
Q 2613 4750 3031 4423 
Q 3450 4097 3450 3541 
Q 3450 3153 3228 2886 
Q 3006 2619 2597 2516 
z
" transform="scale(0.015625)"/>
       </defs>
       <use xlink:href="#DejaVuSans-32"/>
       <use xlink:href="#DejaVuSans-30" x="63.623047"/>
       <use xlink:href="#DejaVuSans-32" x="127.246094"/>
       <use xlink:href="#DejaVuSans-34" x="190.869141"/>
       <use xlink:href="#DejaVuSans-2d" x="254.492188"/>
       <use xlink:href="#DejaVuSans-30" x="290.576172"/>
       <use xlink:href="#DejaVuSans-33" x="354.199219"/>
      </g>
     </g>
    </g>
    <g id="xtick_2">
     <g id="line2d_3">
      <path d="M 176.787443 578.54175 
L 176.787443 24.14175 
" clip-path="url(#pbfc56ea92d)" style="fill: none; stroke: #ffffff; stroke-width: 0.8; stroke-linecap: square"/>
     </g>
     <g id="line2d_4">
      <g>
       <use xlink:href="#m94e0fce1d5" x="176.787443" y="578.54175" style="fill: #555555; stroke: #555555; stroke-width: 0.8"/>
      </g>
     </g>
     <g id="text_2">
      <!-- 2024-04 -->
      <g style="fill: #555555" transform="translate(163.966161 620.459567) rotate(-45) scale(0.1 -0.1)">
       <use xlink:href="#DejaVuSans-32"/>
       <use xlink:href="#DejaVuSans-30" x="63.623047"/>
       <use xlink:href="#DejaVuSans-32" x="127.246094"/>
       <use xlink:href="#DejaVuSans-34" x="190.869141"/>
       <use xlink:href="#DejaVuSans-2d" x="254.492188"/>
       <use xlink:href="#DejaVuSans-30" x="290.576172"/>
       <use xlink:href="#DejaVuSans-34" x="354.199219"/>
      </g>
     </g>
    </g>
    <g id="xtick_3">
     <g id="line2d_5">
      <path d="M 254.174071 578.54175 
L 254.174071 24.14175 
" clip-path="url(#pbfc56ea92d)" style="fill: none; stroke: #ffffff; stroke-width: 0.8; stroke-linecap: square"/>
     </g>
     <g id="line2d_6">
      <g>
       <use xlink:href="#m94e0fce1d5" x="254.174071" y="578.54175" style="fill: #555555; stroke: #555555; stroke-width: 0.8"/>
      </g>
     </g>
     <g id="text_3">
      <!-- 2024-05 -->
      <g style="fill: #555555" transform="translate(241.352789 620.459567) rotate(-45) scale(0.1 -0.1)">
       <defs>
        <path id="DejaVuSans-35" d="M 691 4666 
L 3169 4666 
L 3169 4134 
L 1269 4134 
L 1269 2991 
Q 1406 3038 1543 3061 
Q 1681 3084 1819 3084 
Q 2600 3084 3056 2656 
Q 3513 2228 3513 1497 
Q 3513 744 3044 326 
Q 2575 -91 1722 -91 
Q 1428 -91 1123 -41 
Q 819 9 494 109 
L 494 744 
Q 775 591 1075 516 
Q 1375 441 1709 441 
Q 2250 441 2565 725 
Q 2881 1009 2881 1497 
Q 2881 1984 2565 2268 
Q 2250 2553 1709 2553 
Q 1456 2553 1204 2497 
Q 953 2441 691 2322 
L 691 4666 
z
" transform="scale(0.015625)"/>
       </defs>
       <use xlink:href="#DejaVuSans-32"/>
       <use xlink:href="#DejaVuSans-30" x="63.623047"/>
       <use xlink:href="#DejaVuSans-32" x="127.246094"/>
       <use xlink:href="#DejaVuSans-34" x="190.869141"/>
       <use xlink:href="#DejaVuSans-2d" x="254.492188"/>
       <use xlink:href="#DejaVuSans-30" x="290.576172"/>
       <use xlink:href="#DejaVuSans-35" x="354.199219"/>
      </g>
     </g>
    </g>
    <g id="xtick_4">
     <g id="line2d_7">
      <path d="M 334.140254 578.54175 
L 334.140254 24.14175 
" clip-path="url(#pbfc56ea92d)" style="fill: none; stroke: #ffffff; stroke-width: 0.8; stroke-linecap: square"/>
     </g>
     <g id="line2d_8">
      <g>
       <use xlink:href="#m94e0fce1d5" x="334.140254" y="578.54175" style="fill: #555555; stroke: #555555; stroke-width: 0.8"/>
      </g>
     </g>
     <g id="text_4">
      <!-- 2024-06 -->
      <g style="fill: #555555" transform="translate(321.318972 620.459567) rotate(-45) scale(0.1 -0.1)">
       <defs>
        <path id="DejaVuSans-36" d="M 2113 2584 
Q 1688 2584 1439 2293 
Q 1191 2003 1191 1497 
Q 1191 994 1439 701 
Q 1688 409 2113 409 
Q 2538 409 2786 701 
Q 3034 994 3034 1497 
Q 3034 2003 2786 2293 
Q 2538 2584 2113 2584 
z
M 3366 4563 
L 3366 3988 
Q 3128 4100 2886 4159 
Q 2644 4219 2406 4219 
Q 1781 4219 1451 3797 
Q 1122 3375 1075 2522 
Q 1259 2794 1537 2939 
Q 1816 3084 2150 3084 
Q 2853 3084 3261 2657 
Q 3669 2231 3669 1497 
Q 3669 778 3244 343 
Q 2819 -91 2113 -91 
Q 1303 -91 875 529 
Q 447 1150 447 2328 
Q 447 3434 972 4092 
Q 1497 4750 2381 4750 
Q 2619 4750 2861 4703 
Q 3103 4656 3366 4563 
z
" transform="scale(0.015625)"/>
       </defs>
       <use xlink:href="#DejaVuSans-32"/>
       <use xlink:href="#DejaVuSans-30" x="63.623047"/>
       <use xlink:href="#DejaVuSans-32" x="127.246094"/>
       <use xlink:href="#DejaVuSans-34" x="190.869141"/>
       <use xlink:href="#DejaVuSans-2d" x="254.492188"/>
       <use xlink:href="#DejaVuSans-30" x="290.576172"/>
       <use xlink:href="#DejaVuSans-36" x="354.199219"/>
      </g>
     </g>
    </g>
    <g id="xtick_5">
     <g id="line2d_9">
      <path d="M 411.526883 578.54175 
L 411.526883 24.14175 
" clip-path="url(#pbfc56ea92d)" style="fill: none; stroke: #ffffff; stroke-width: 0.8; stroke-linecap: square"/>
     </g>
     <g id="line2d_10">
      <g>
       <use xlink:href="#m94e0fce1d5" x="411.526883" y="578.54175" style="fill: #555555; stroke: #555555; stroke-width: 0.8"/>
      </g>
     </g>
     <g id="text_5">
      <!-- 2024-07 -->
      <g style="fill: #555555" transform="translate(398.705601 620.459567) rotate(-45) scale(0.1 -0.1)">
       <defs>
        <path id="DejaVuSans-37" d="M 525 4666 
L 3525 4666 
L 3525 4397 
L 1831 0 
L 1172 0 
L 2766 4134 
L 525 4134 
L 525 4666 
z
" transform="scale(0.015625)"/>
       </defs>
       <use xlink:href="#DejaVuSans-32"/>
       <use xlink:href="#DejaVuSans-30" x="63.623047"/>
       <use xlink:href="#DejaVuSans-32" x="127.246094"/>
       <use xlink:href="#DejaVuSans-34" x="190.869141"/>
       <use xlink:href="#DejaVuSans-2d" x="254.492188"/>
       <use xlink:href="#DejaVuSans-30" x="290.576172"/>
       <use xlink:href="#DejaVuSans-37" x="354.199219"/>
      </g>
     </g>
    </g>
    <g id="xtick_6">
     <g id="line2d_11">
      <path d="M 491.493066 578.54175 
L 491.493066 24.14175 
" clip-path="url(#pbfc56ea92d)" style="fill: none; stroke: #ffffff; stroke-width: 0.8; stroke-linecap: square"/>
     </g>
     <g id="line2d_12">
      <g>
       <use xlink:href="#m94e0fce1d5" x="491.493066" y="578.54175" style="fill: #555555; stroke: #555555; stroke-width: 0.8"/>
      </g>
     </g>
     <g id="text_6">
      <!-- 2024-08 -->
      <g style="fill: #555555" transform="translate(478.671783 620.459567) rotate(-45) scale(0.1 -0.1)">
       <defs>
        <path id="DejaVuSans-38" d="M 2034 2216 
Q 1584 2216 1326 1975 
Q 1069 1734 1069 1313 
Q 1069 891 1326 650 
Q 1584 409 2034 409 
Q 2484 409 2743 651 
Q 3003 894 3003 1313 
Q 3003 1734 2745 1975 
Q 2488 2216 2034 2216 
z
M 1403 2484 
Q 997 2584 770 2862 
Q 544 3141 544 3541 
Q 544 4100 942 4425 
Q 1341 4750 2034 4750 
Q 2731 4750 3128 4425 
Q 3525 4100 3525 3541 
Q 3525 3141 3298 2862 
Q 3072 2584 2669 2484 
Q 3125 2378 3379 2068 
Q 3634 1759 3634 1313 
Q 3634 634 3220 271 
Q 2806 -91 2034 -91 
Q 1263 -91 848 271 
Q 434 634 434 1313 
Q 434 1759 690 2068 
Q 947 2378 1403 2484 
z
M 1172 3481 
Q 1172 3119 1398 2916 
Q 1625 2713 2034 2713 
Q 2441 2713 2670 2916 
Q 2900 3119 2900 3481 
Q 2900 3844 2670 4047 
Q 2441 4250 2034 4250 
Q 1625 4250 1398 4047 
Q 1172 3844 1172 3481 
z
" transform="scale(0.015625)"/>
       </defs>
       <use xlink:href="#DejaVuSans-32"/>
       <use xlink:href="#DejaVuSans-30" x="63.623047"/>
       <use xlink:href="#DejaVuSans-32" x="127.246094"/>
       <use xlink:href="#DejaVuSans-34" x="190.869141"/>
       <use xlink:href="#DejaVuSans-2d" x="254.492188"/>
       <use xlink:href="#DejaVuSans-30" x="290.576172"/>
       <use xlink:href="#DejaVuSans-38" x="354.199219"/>
      </g>
     </g>
    </g>
    <g id="xtick_7">
     <g id="line2d_13">
      <path d="M 571.459249 578.54175 
L 571.459249 24.14175 
" clip-path="url(#pbfc56ea92d)" style="fill: none; stroke: #ffffff; stroke-width: 0.8; stroke-linecap: square"/>
     </g>
     <g id="line2d_14">
      <g>
       <use xlink:href="#m94e0fce1d5" x="571.459249" y="578.54175" style="fill: #555555; stroke: #555555; stroke-width: 0.8"/>
      </g>
     </g>
     <g id="text_7">
      <!-- 2024-09 -->
      <g style="fill: #555555" transform="translate(558.637966 620.459567) rotate(-45) scale(0.1 -0.1)">
       <defs>
        <path id="DejaVuSans-39" d="M 703 97 
L 703 672 
Q 941 559 1184 500 
Q 1428 441 1663 441 
Q 2288 441 2617 861 
Q 2947 1281 2994 2138 
Q 2813 1869 2534 1725 
Q 2256 1581 1919 1581 
Q 1219 1581 811 2004 
Q 403 2428 403 3163 
Q 403 3881 828 4315 
Q 1253 4750 1959 4750 
Q 2769 4750 3195 4129 
Q 3622 3509 3622 2328 
Q 3622 1225 3098 567 
Q 2575 -91 1691 -91 
Q 1453 -91 1209 -44 
Q 966 3 703 97 
z
M 1959 2075 
Q 2384 2075 2632 2365 
Q 2881 2656 2881 3163 
Q 2881 3666 2632 3958 
Q 2384 4250 1959 4250 
Q 1534 4250 1286 3958 
Q 1038 3666 1038 3163 
Q 1038 2656 1286 2365 
Q 1534 2075 1959 2075 
z
" transform="scale(0.015625)"/>
       </defs>
       <use xlink:href="#DejaVuSans-32"/>
       <use xlink:href="#DejaVuSans-30" x="63.623047"/>
       <use xlink:href="#DejaVuSans-32" x="127.246094"/>
       <use xlink:href="#DejaVuSans-34" x="190.869141"/>
       <use xlink:href="#DejaVuSans-2d" x="254.492188"/>
       <use xlink:href="#DejaVuSans-30" x="290.576172"/>
       <use xlink:href="#DejaVuSans-39" x="354.199219"/>
      </g>
     </g>
    </g>
    <g id="xtick_8">
     <g id="line2d_15">
      <path d="M 648.845877 578.54175 
L 648.845877 24.14175 
" clip-path="url(#pbfc56ea92d)" style="fill: none; stroke: #ffffff; stroke-width: 0.8; stroke-linecap: square"/>
     </g>
     <g id="line2d_16">
      <g>
       <use xlink:href="#m94e0fce1d5" x="648.845877" y="578.54175" style="fill: #555555; stroke: #555555; stroke-width: 0.8"/>
      </g>
     </g>
     <g id="text_8">
      <!-- 2024-10 -->
      <g style="fill: #555555" transform="translate(636.024595 620.459567) rotate(-45) scale(0.1 -0.1)">
       <defs>
        <path id="DejaVuSans-31" d="M 794 531 
L 1825 531 
L 1825 4091 
L 703 3866 
L 703 4441 
L 1819 4666 
L 2450 4666 
L 2450 531 
L 3481 531 
L 3481 0 
L 794 0 
L 794 531 
z
" transform="scale(0.015625)"/>
       </defs>
       <use xlink:href="#DejaVuSans-32"/>
       <use xlink:href="#DejaVuSans-30" x="63.623047"/>
       <use xlink:href="#DejaVuSans-32" x="127.246094"/>
       <use xlink:href="#DejaVuSans-34" x="190.869141"/>
       <use xlink:href="#DejaVuSans-2d" x="254.492188"/>
       <use xlink:href="#DejaVuSans-31" x="290.576172"/>
       <use xlink:href="#DejaVuSans-30" x="354.199219"/>
      </g>
     </g>
    </g>
    <g id="xtick_9">
     <g id="line2d_17">
      <path d="M 728.81206 578.54175 
L 728.81206 24.14175 
" clip-path="url(#pbfc56ea92d)" style="fill: none; stroke: #ffffff; stroke-width: 0.8; stroke-linecap: square"/>
     </g>
     <g id="line2d_18">
      <g>
       <use xlink:href="#m94e0fce1d5" x="728.81206" y="578.54175" style="fill: #555555; stroke: #555555; stroke-width: 0.8"/>
      </g>
     </g>
     <g id="text_9">
      <!-- 2024-11 -->
      <g style="fill: #555555" transform="translate(715.990778 620.459567) rotate(-45) scale(0.1 -0.1)">
       <use xlink:href="#DejaVuSans-32"/>
       <use xlink:href="#DejaVuSans-30" x="63.623047"/>
       <use xlink:href="#DejaVuSans-32" x="127.246094"/>
       <use xlink:href="#DejaVuSans-34" x="190.869141"/>
       <use xlink:href="#DejaVuSans-2d" x="254.492188"/>
       <use xlink:href="#DejaVuSans-31" x="290.576172"/>
       <use xlink:href="#DejaVuSans-31" x="354.199219"/>
      </g>
     </g>
    </g>
    <g id="xtick_10">
     <g id="line2d_19">
      <path d="M 806.198689 578.54175 
L 806.198689 24.14175 
" clip-path="url(#pbfc56ea92d)" style="fill: none; stroke: #ffffff; stroke-width: 0.8; stroke-linecap: square"/>
     </g>
     <g id="line2d_20">
      <g>
       <use xlink:href="#m94e0fce1d5" x="806.198689" y="578.54175" style="fill: #555555; stroke: #555555; stroke-width: 0.8"/>
      </g>
     </g>
     <g id="text_10">
      <!-- 2024-12 -->
      <g style="fill: #555555" transform="translate(793.377406 620.459567) rotate(-45) scale(0.1 -0.1)">
       <use xlink:href="#DejaVuSans-32"/>
       <use xlink:href="#DejaVuSans-30" x="63.623047"/>
       <use xlink:href="#DejaVuSans-32" x="127.246094"/>
       <use xlink:href="#DejaVuSans-34" x="190.869141"/>
       <use xlink:href="#DejaVuSans-2d" x="254.492188"/>
       <use xlink:href="#DejaVuSans-31" x="290.576172"/>
       <use xlink:href="#DejaVuSans-32" x="354.199219"/>
      </g>
     </g>
    </g>
    <g id="xtick_11">
     <g id="line2d_21">
      <path d="M 886.164871 578.54175 
L 886.164871 24.14175 
" clip-path="url(#pbfc56ea92d)" style="fill: none; stroke: #ffffff; stroke-width: 0.8; stroke-linecap: square"/>
     </g>
     <g id="line2d_22">
      <g>
       <use xlink:href="#m94e0fce1d5" x="886.164871" y="578.54175" style="fill: #555555; stroke: #555555; stroke-width: 0.8"/>
      </g>
     </g>
     <g id="text_11">
      <!-- 2025-01 -->
      <g style="fill: #555555" transform="translate(873.343589 620.459567) rotate(-45) scale(0.1 -0.1)">
       <use xlink:href="#DejaVuSans-32"/>
       <use xlink:href="#DejaVuSans-30" x="63.623047"/>
       <use xlink:href="#DejaVuSans-32" x="127.246094"/>
       <use xlink:href="#DejaVuSans-35" x="190.869141"/>
       <use xlink:href="#DejaVuSans-2d" x="254.492188"/>
       <use xlink:href="#DejaVuSans-30" x="290.576172"/>
       <use xlink:href="#DejaVuSans-31" x="354.199219"/>
      </g>
     </g>
    </g>
    <g id="text_12">
     <!-- Date -->
     <g style="fill: #555555" transform="translate(497.788563 635.048253) scale(0.12 -0.12)">
      <defs>
       <path id="DejaVuSans-44" d="M 1259 4147 
L 1259 519 
L 2022 519 
Q 2988 519 3436 956 
Q 3884 1394 3884 2338 
Q 3884 3275 3436 3711 
Q 2988 4147 2022 4147 
L 1259 4147 
z
M 628 4666 
L 1925 4666 
Q 3281 4666 3915 4102 
Q 4550 3538 4550 2338 
Q 4550 1131 3912 565 
Q 3275 0 1925 0 
L 628 0 
L 628 4666 
z
" transform="scale(0.015625)"/>
       <path id="DejaVuSans-61" d="M 2194 1759 
Q 1497 1759 1228 1600 
Q 959 1441 959 1056 
Q 959 750 1161 570 
Q 1363 391 1709 391 
Q 2188 391 2477 730 
Q 2766 1069 2766 1631 
L 2766 1759 
L 2194 1759 
z
M 3341 1997 
L 3341 0 
L 2766 0 
L 2766 531 
Q 2569 213 2275 61 
Q 1981 -91 1556 -91 
Q 1019 -91 701 211 
Q 384 513 384 1019 
Q 384 1609 779 1909 
Q 1175 2209 1959 2209 
L 2766 2209 
L 2766 2266 
Q 2766 2663 2505 2880 
Q 2244 3097 1772 3097 
Q 1472 3097 1187 3025 
Q 903 2953 641 2809 
L 641 3341 
Q 956 3463 1253 3523 
Q 1550 3584 1831 3584 
Q 2591 3584 2966 3190 
Q 3341 2797 3341 1997 
z
" transform="scale(0.015625)"/>
       <path id="DejaVuSans-74" d="M 1172 4494 
L 1172 3500 
L 2356 3500 
L 2356 3053 
L 1172 3053 
L 1172 1153 
Q 1172 725 1289 603 
Q 1406 481 1766 481 
L 2356 481 
L 2356 0 
L 1766 0 
Q 1100 0 847 248 
Q 594 497 594 1153 
L 594 3053 
L 172 3053 
L 172 3500 
L 594 3500 
L 594 4494 
L 1172 4494 
z
" transform="scale(0.015625)"/>
       <path id="DejaVuSans-65" d="M 3597 1894 
L 3597 1613 
L 953 1613 
Q 991 1019 1311 708 
Q 1631 397 2203 397 
Q 2534 397 2845 478 
Q 3156 559 3463 722 
L 3463 178 
Q 3153 47 2828 -22 
Q 2503 -91 2169 -91 
Q 1331 -91 842 396 
Q 353 884 353 1716 
Q 353 2575 817 3079 
Q 1281 3584 2069 3584 
Q 2775 3584 3186 3129 
Q 3597 2675 3597 1894 
z
M 3022 2063 
Q 3016 2534 2758 2815 
Q 2500 3097 2075 3097 
Q 1594 3097 1305 2825 
Q 1016 2553 972 2059 
L 3022 2063 
z
" transform="scale(0.015625)"/>
      </defs>
      <use xlink:href="#DejaVuSans-44"/>
      <use xlink:href="#DejaVuSans-61" x="77.001953"/>
      <use xlink:href="#DejaVuSans-74" x="138.28125"/>
      <use xlink:href="#DejaVuSans-65" x="177.490234"/>
     </g>
    </g>
   </g>
   <g id="matplotlib.axis_2">
    <g id="ytick_1">
     <g id="line2d_23">
      <path d="M 60.7075 578.54175 
L 963.5515 578.54175 
" clip-path="url(#pbfc56ea92d)" style="fill: none; stroke: #ffffff; stroke-width: 0.8; stroke-linecap: square"/>
     </g>
     <g id="line2d_24">
      <defs>
       <path id="m2c62505b5a" d="M 0 0 
L -3.5 0 
" style="stroke: #555555; stroke-width: 0.8"/>
      </defs>
      <g>
       <use xlink:href="#m2c62505b5a" x="60.7075" y="578.54175" style="fill: #555555; stroke: #555555; stroke-width: 0.8"/>
      </g>
     </g>
     <g id="text_13">
      <!-- 0.0M -->
      <g style="fill: #555555" transform="translate(29.17625 582.340969) scale(0.1 -0.1)">
       <defs>
        <path id="DejaVuSans-2e" d="M 684 794 
L 1344 794 
L 1344 0 
L 684 0 
L 684 794 
z
" transform="scale(0.015625)"/>
        <path id="DejaVuSans-4d" d="M 628 4666 
L 1569 4666 
L 2759 1491 
L 3956 4666 
L 4897 4666 
L 4897 0 
L 4281 0 
L 4281 4097 
L 3078 897 
L 2444 897 
L 1241 4097 
L 1241 0 
L 628 0 
L 628 4666 
z
" transform="scale(0.015625)"/>
       </defs>
       <use xlink:href="#DejaVuSans-30"/>
       <use xlink:href="#DejaVuSans-2e" x="63.623047"/>
       <use xlink:href="#DejaVuSans-30" x="95.410156"/>
       <use xlink:href="#DejaVuSans-4d" x="159.033203"/>
      </g>
     </g>
    </g>
    <g id="ytick_2">
     <g id="line2d_25">
      <path d="M 60.7075 504.049799 
L 963.5515 504.049799 
" clip-path="url(#pbfc56ea92d)" style="fill: none; stroke: #ffffff; stroke-width: 0.8; stroke-linecap: square"/>
     </g>
     <g id="line2d_26">
      <g>
       <use xlink:href="#m2c62505b5a" x="60.7075" y="504.049799" style="fill: #555555; stroke: #555555; stroke-width: 0.8"/>
      </g>
     </g>
     <g id="text_14">
      <!-- 2.5M -->
      <g style="fill: #555555" transform="translate(29.17625 507.849018) scale(0.1 -0.1)">
       <use xlink:href="#DejaVuSans-32"/>
       <use xlink:href="#DejaVuSans-2e" x="63.623047"/>
       <use xlink:href="#DejaVuSans-35" x="95.410156"/>
       <use xlink:href="#DejaVuSans-4d" x="159.033203"/>
      </g>
     </g>
    </g>
    <g id="ytick_3">
     <g id="line2d_27">
      <path d="M 60.7075 429.557848 
L 963.5515 429.557848 
" clip-path="url(#pbfc56ea92d)" style="fill: none; stroke: #ffffff; stroke-width: 0.8; stroke-linecap: square"/>
     </g>
     <g id="line2d_28">
      <g>
       <use xlink:href="#m2c62505b5a" x="60.7075" y="429.557848" style="fill: #555555; stroke: #555555; stroke-width: 0.8"/>
      </g>
     </g>
     <g id="text_15">
      <!-- 5.0M -->
      <g style="fill: #555555" transform="translate(29.17625 433.357066) scale(0.1 -0.1)">
       <use xlink:href="#DejaVuSans-35"/>
       <use xlink:href="#DejaVuSans-2e" x="63.623047"/>
       <use xlink:href="#DejaVuSans-30" x="95.410156"/>
       <use xlink:href="#DejaVuSans-4d" x="159.033203"/>
      </g>
     </g>
    </g>
    <g id="ytick_4">
     <g id="line2d_29">
      <path d="M 60.7075 355.065896 
L 963.5515 355.065896 
" clip-path="url(#pbfc56ea92d)" style="fill: none; stroke: #ffffff; stroke-width: 0.8; stroke-linecap: square"/>
     </g>
     <g id="line2d_30">
      <g>
       <use xlink:href="#m2c62505b5a" x="60.7075" y="355.065896" style="fill: #555555; stroke: #555555; stroke-width: 0.8"/>
      </g>
     </g>
     <g id="text_16">
      <!-- 7.5M -->
      <g style="fill: #555555" transform="translate(29.17625 358.865115) scale(0.1 -0.1)">
       <use xlink:href="#DejaVuSans-37"/>
       <use xlink:href="#DejaVuSans-2e" x="63.623047"/>
       <use xlink:href="#DejaVuSans-35" x="95.410156"/>
       <use xlink:href="#DejaVuSans-4d" x="159.033203"/>
      </g>
     </g>
    </g>
    <g id="ytick_5">
     <g id="line2d_31">
      <path d="M 60.7075 280.573945 
L 963.5515 280.573945 
" clip-path="url(#pbfc56ea92d)" style="fill: none; stroke: #ffffff; stroke-width: 0.8; stroke-linecap: square"/>
     </g>
     <g id="line2d_32">
      <g>
       <use xlink:href="#m2c62505b5a" x="60.7075" y="280.573945" style="fill: #555555; stroke: #555555; stroke-width: 0.8"/>
      </g>
     </g>
     <g id="text_17">
      <!-- 10.0M -->
      <g style="fill: #555555" transform="translate(22.81375 284.373164) scale(0.1 -0.1)">
       <use xlink:href="#DejaVuSans-31"/>
       <use xlink:href="#DejaVuSans-30" x="63.623047"/>
       <use xlink:href="#DejaVuSans-2e" x="127.246094"/>
       <use xlink:href="#DejaVuSans-30" x="159.033203"/>
       <use xlink:href="#DejaVuSans-4d" x="222.65625"/>
      </g>
     </g>
    </g>
    <g id="ytick_6">
     <g id="line2d_33">
      <path d="M 60.7075 206.081994 
L 963.5515 206.081994 
" clip-path="url(#pbfc56ea92d)" style="fill: none; stroke: #ffffff; stroke-width: 0.8; stroke-linecap: square"/>
     </g>
     <g id="line2d_34">
      <g>
       <use xlink:href="#m2c62505b5a" x="60.7075" y="206.081994" style="fill: #555555; stroke: #555555; stroke-width: 0.8"/>
      </g>
     </g>
     <g id="text_18">
      <!-- 12.5M -->
      <g style="fill: #555555" transform="translate(22.81375 209.881213) scale(0.1 -0.1)">
       <use xlink:href="#DejaVuSans-31"/>
       <use xlink:href="#DejaVuSans-32" x="63.623047"/>
       <use xlink:href="#DejaVuSans-2e" x="127.246094"/>
       <use xlink:href="#DejaVuSans-35" x="159.033203"/>
       <use xlink:href="#DejaVuSans-4d" x="222.65625"/>
      </g>
     </g>
    </g>
    <g id="ytick_7">
     <g id="line2d_35">
      <path d="M 60.7075 131.590043 
L 963.5515 131.590043 
" clip-path="url(#pbfc56ea92d)" style="fill: none; stroke: #ffffff; stroke-width: 0.8; stroke-linecap: square"/>
     </g>
     <g id="line2d_36">
      <g>
       <use xlink:href="#m2c62505b5a" x="60.7075" y="131.590043" style="fill: #555555; stroke: #555555; stroke-width: 0.8"/>
      </g>
     </g>
     <g id="text_19">
      <!-- 15.0M -->
      <g style="fill: #555555" transform="translate(22.81375 135.389262) scale(0.1 -0.1)">
       <use xlink:href="#DejaVuSans-31"/>
       <use xlink:href="#DejaVuSans-35" x="63.623047"/>
       <use xlink:href="#DejaVuSans-2e" x="127.246094"/>
       <use xlink:href="#DejaVuSans-30" x="159.033203"/>
       <use xlink:href="#DejaVuSans-4d" x="222.65625"/>
      </g>
     </g>
    </g>
    <g id="ytick_8">
     <g id="line2d_37">
      <path d="M 60.7075 57.098092 
L 963.5515 57.098092 
" clip-path="url(#pbfc56ea92d)" style="fill: none; stroke: #ffffff; stroke-width: 0.8; stroke-linecap: square"/>
     </g>
     <g id="line2d_38">
      <g>
       <use xlink:href="#m2c62505b5a" x="60.7075" y="57.098092" style="fill: #555555; stroke: #555555; stroke-width: 0.8"/>
      </g>
     </g>
     <g id="text_20">
      <!-- 17.5M -->
      <g style="fill: #555555" transform="translate(22.81375 60.89731) scale(0.1 -0.1)">
       <use xlink:href="#DejaVuSans-31"/>
       <use xlink:href="#DejaVuSans-37" x="63.623047"/>
       <use xlink:href="#DejaVuSans-2e" x="127.246094"/>
       <use xlink:href="#DejaVuSans-35" x="159.033203"/>
       <use xlink:href="#DejaVuSans-4d" x="222.65625"/>
      </g>
     </g>
    </g>
    <g id="text_21">
     <!-- Instances -->
     <g style="fill: #555555" transform="translate(16.318125 329.988) rotate(-90) scale(0.12 -0.12)">
      <defs>
       <path id="DejaVuSans-49" d="M 628 4666 
L 1259 4666 
L 1259 0 
L 628 0 
L 628 4666 
z
" transform="scale(0.015625)"/>
       <path id="DejaVuSans-6e" d="M 3513 2113 
L 3513 0 
L 2938 0 
L 2938 2094 
Q 2938 2591 2744 2837 
Q 2550 3084 2163 3084 
Q 1697 3084 1428 2787 
Q 1159 2491 1159 1978 
L 1159 0 
L 581 0 
L 581 3500 
L 1159 3500 
L 1159 2956 
Q 1366 3272 1645 3428 
Q 1925 3584 2291 3584 
Q 2894 3584 3203 3211 
Q 3513 2838 3513 2113 
z
" transform="scale(0.015625)"/>
       <path id="DejaVuSans-73" d="M 2834 3397 
L 2834 2853 
Q 2591 2978 2328 3040 
Q 2066 3103 1784 3103 
Q 1356 3103 1142 2972 
Q 928 2841 928 2578 
Q 928 2378 1081 2264 
Q 1234 2150 1697 2047 
L 1894 2003 
Q 2506 1872 2764 1633 
Q 3022 1394 3022 966 
Q 3022 478 2636 193 
Q 2250 -91 1575 -91 
Q 1294 -91 989 -36 
Q 684 19 347 128 
L 347 722 
Q 666 556 975 473 
Q 1284 391 1588 391 
Q 1994 391 2212 530 
Q 2431 669 2431 922 
Q 2431 1156 2273 1281 
Q 2116 1406 1581 1522 
L 1381 1569 
Q 847 1681 609 1914 
Q 372 2147 372 2553 
Q 372 3047 722 3315 
Q 1072 3584 1716 3584 
Q 2034 3584 2315 3537 
Q 2597 3491 2834 3397 
z
" transform="scale(0.015625)"/>
       <path id="DejaVuSans-63" d="M 3122 3366 
L 3122 2828 
Q 2878 2963 2633 3030 
Q 2388 3097 2138 3097 
Q 1578 3097 1268 2742 
Q 959 2388 959 1747 
Q 959 1106 1268 751 
Q 1578 397 2138 397 
Q 2388 397 2633 464 
Q 2878 531 3122 666 
L 3122 134 
Q 2881 22 2623 -34 
Q 2366 -91 2075 -91 
Q 1284 -91 818 406 
Q 353 903 353 1747 
Q 353 2603 823 3093 
Q 1294 3584 2113 3584 
Q 2378 3584 2631 3529 
Q 2884 3475 3122 3366 
z
" transform="scale(0.015625)"/>
      </defs>
      <use xlink:href="#DejaVuSans-49"/>
      <use xlink:href="#DejaVuSans-6e" x="29.492188"/>
      <use xlink:href="#DejaVuSans-73" x="92.871094"/>
      <use xlink:href="#DejaVuSans-74" x="144.970703"/>
      <use xlink:href="#DejaVuSans-61" x="184.179688"/>
      <use xlink:href="#DejaVuSans-6e" x="245.458984"/>
      <use xlink:href="#DejaVuSans-63" x="308.837891"/>
      <use xlink:href="#DejaVuSans-65" x="363.818359"/>
      <use xlink:href="#DejaVuSans-73" x="425.341797"/>
     </g>
    </g>
   </g>
   <g id="PolyCollection_1">
    <path d="M 60.7075 471.105257 
L 60.7075 578.54175 
L 78.76438 578.54175 
L 96.82126 578.54175 
L 114.87814 578.54175 
L 132.93502 578.54175 
L 150.9919 578.54175 
L 169.04878 578.54175 
L 187.10566 578.54175 
L 205.16254 578.54175 
L 223.21942 578.54175 
L 241.2763 578.54175 
L 259.33318 578.54175 
L 277.39006 578.54175 
L 295.44694 578.54175 
L 313.50382 578.54175 
L 331.5607 578.54175 
L 349.61758 578.54175 
L 367.67446 578.54175 
L 385.73134 578.54175 
L 403.78822 578.54175 
L 421.8451 578.54175 
L 439.90198 578.54175 
L 457.95886 578.54175 
L 476.01574 578.54175 
L 494.07262 578.54175 
L 512.1295 578.54175 
L 530.18638 578.54175 
L 548.24326 578.54175 
L 566.30014 578.54175 
L 584.35702 578.54175 
L 602.4139 578.54175 
L 620.47078 578.54175 
L 638.52766 578.54175 
L 656.58454 578.54175 
L 674.64142 578.54175 
L 692.6983 578.54175 
L 710.75518 578.54175 
L 728.81206 578.54175 
L 746.86894 578.54175 
L 764.92582 578.54175 
L 782.9827 578.54175 
L 801.03958 578.54175 
L 819.09646 578.54175 
L 837.15334 578.54175 
L 855.21022 578.54175 
L 873.2671 578.54175 
L 891.32398 578.54175 
L 909.38086 578.54175 
L 927.43774 578.54175 
L 945.49462 578.54175 
L 963.5515 578.54175 
L 963.5515 376.353491 
L 963.5515 376.353491 
L 945.49462 378.582409 
L 927.43774 379.833725 
L 909.38086 382.128256 
L 891.32398 385.90759 
L 873.2671 396.124757 
L 855.21022 397.603363 
L 837.15334 384.439175 
L 819.09646 385.074413 
L 801.03958 388.801781 
L 782.9827 395.259846 
L 764.92582 390.921703 
L 746.86894 395.033361 
L 728.81206 395.002015 
L 710.75518 396.65657 
L 692.6983 397.574222 
L 674.64142 400.4205 
L 656.58454 403.388199 
L 638.52766 411.109678 
L 620.47078 408.943362 
L 602.4139 414.568309 
L 584.35702 416.477717 
L 566.30014 421.173272 
L 548.24326 421.424667 
L 530.18638 423.790204 
L 512.1295 425.101769 
L 494.07262 430.754844 
L 476.01574 431.223666 
L 457.95886 434.20835 
L 439.90198 434.480455 
L 421.8451 435.235177 
L 403.78822 440.48826 
L 385.73134 439.55875 
L 367.67446 436.196987 
L 349.61758 442.90028 
L 331.5607 445.240489 
L 313.50382 446.756311 
L 295.44694 449.652171 
L 277.39006 452.280217 
L 259.33318 454.058131 
L 241.2763 455.155785 
L 223.21942 453.818476 
L 205.16254 455.371484 
L 187.10566 455.760809 
L 169.04878 454.830494 
L 150.9919 462.163034 
L 132.93502 459.632602 
L 114.87814 463.434344 
L 96.82126 462.892191 
L 78.76438 469.308719 
L 60.7075 471.105257 
z
" clip-path="url(#pbfc56ea92d)" style="fill: #48b585"/>
   </g>
   <g id="PolyCollection_2">
    <path d="M 60.7075 410.439459 
L 60.7075 471.105257 
L 78.76438 469.308719 
L 96.82126 462.892191 
L 114.87814 463.434344 
L 132.93502 459.632602 
L 150.9919 462.163034 
L 169.04878 454.830494 
L 187.10566 455.760809 
L 205.16254 455.371484 
L 223.21942 453.818476 
L 241.2763 455.155785 
L 259.33318 454.058131 
L 277.39006 452.280217 
L 295.44694 449.652171 
L 313.50382 446.756311 
L 331.5607 445.240489 
L 349.61758 442.90028 
L 367.67446 436.196987 
L 385.73134 439.55875 
L 403.78822 440.48826 
L 421.8451 435.235177 
L 439.90198 434.480455 
L 457.95886 434.20835 
L 476.01574 431.223666 
L 494.07262 430.754844 
L 512.1295 425.101769 
L 530.18638 423.790204 
L 548.24326 421.424667 
L 566.30014 421.173272 
L 584.35702 416.477717 
L 602.4139 414.568309 
L 620.47078 408.943362 
L 638.52766 411.109678 
L 656.58454 403.388199 
L 674.64142 400.4205 
L 692.6983 397.574222 
L 710.75518 396.65657 
L 728.81206 395.002015 
L 746.86894 395.033361 
L 764.92582 390.921703 
L 782.9827 395.259846 
L 801.03958 388.801781 
L 819.09646 385.074413 
L 837.15334 384.439175 
L 855.21022 397.603363 
L 873.2671 396.124757 
L 891.32398 385.90759 
L 909.38086 382.128256 
L 927.43774 379.833725 
L 945.49462 378.582409 
L 963.5515 376.353491 
L 963.5515 286.040016 
L 963.5515 286.040016 
L 945.49462 288.374117 
L 927.43774 290.999392 
L 909.38086 292.698017 
L 891.32398 297.229124 
L 873.2671 313.050916 
L 855.21022 314.994203 
L 837.15334 295.146299 
L 819.09646 295.131997 
L 801.03958 299.055279 
L 782.9827 307.878434 
L 764.92582 301.870479 
L 746.86894 307.111911 
L 728.81206 307.965053 
L 710.75518 309.354894 
L 692.6983 309.380698 
L 674.64142 313.905637 
L 656.58454 317.534497 
L 638.52766 324.991082 
L 620.47078 325.322691 
L 602.4139 330.963519 
L 584.35702 333.349675 
L 566.30014 338.505531 
L 548.24326 338.944408 
L 530.18638 339.503753 
L 512.1295 343.057138 
L 494.07262 350.912076 
L 476.01574 350.305026 
L 457.95886 355.653042 
L 439.90198 358.073822 
L 421.8451 359.739343 
L 403.78822 367.48293 
L 385.73134 365.637317 
L 367.67446 357.883838 
L 349.61758 370.671454 
L 331.5607 375.430089 
L 313.50382 376.969152 
L 295.44694 381.174729 
L 277.39006 384.726893 
L 259.33318 387.028784 
L 241.2763 389.802655 
L 223.21942 388.041904 
L 205.16254 389.856498 
L 187.10566 391.291273 
L 169.04878 391.421485 
L 150.9919 399.573407 
L 132.93502 396.44555 
L 114.87814 400.524222 
L 96.82126 400.784408 
L 78.76438 408.288876 
L 60.7075 410.439459 
z
" clip-path="url(#pbfc56ea92d)" style="fill: #e2321d"/>
   </g>
   <g id="PolyCollection_3">
    <path d="M 60.7075 350.628143 
L 60.7075 410.439459 
L 78.76438 408.288876 
L 96.82126 400.784408 
L 114.87814 400.524222 
L 132.93502 396.44555 
L 150.9919 399.573407 
L 169.04878 391.421485 
L 187.10566 391.291273 
L 205.16254 389.856498 
L 223.21942 388.041904 
L 241.2763 389.802655 
L 259.33318 387.028784 
L 277.39006 384.726893 
L 295.44694 381.174729 
L 313.50382 376.969152 
L 331.5607 375.430089 
L 349.61758 370.671454 
L 367.67446 357.883838 
L 385.73134 365.637317 
L 403.78822 367.48293 
L 421.8451 359.739343 
L 439.90198 358.073822 
L 457.95886 355.653042 
L 476.01574 350.305026 
L 494.07262 350.912076 
L 512.1295 343.057138 
L 530.18638 339.503753 
L 548.24326 338.944408 
L 566.30014 338.505531 
L 584.35702 333.349675 
L 602.4139 330.963519 
L 620.47078 325.322691 
L 638.52766 324.991082 
L 656.58454 317.534497 
L 674.64142 313.905637 
L 692.6983 309.380698 
L 710.75518 309.354894 
L 728.81206 307.965053 
L 746.86894 307.111911 
L 764.92582 301.870479 
L 782.9827 307.878434 
L 801.03958 299.055279 
L 819.09646 295.131997 
L 837.15334 295.146299 
L 855.21022 314.994203 
L 873.2671 313.050916 
L 891.32398 297.229124 
L 909.38086 292.698017 
L 927.43774 290.999392 
L 945.49462 288.374117 
L 963.5515 286.040016 
L 963.5515 231.817086 
L 963.5515 231.817086 
L 945.49462 236.053086 
L 927.43774 238.972157 
L 909.38086 240.946432 
L 891.32398 245.470001 
L 873.2671 263.807535 
L 855.21022 266.335911 
L 837.15334 244.993163 
L 819.09646 245.45689 
L 801.03958 249.592385 
L 782.9827 259.090884 
L 764.92582 253.145026 
L 746.86894 259.709971 
L 728.81206 261.297454 
L 710.75518 263.559984 
L 692.6983 264.535024 
L 674.64142 269.892425 
L 656.58454 274.119367 
L 638.52766 281.817037 
L 620.47078 282.182018 
L 602.4139 288.855186 
L 584.35702 291.333801 
L 566.30014 297.540679 
L 548.24326 297.06688 
L 530.18638 299.422524 
L 512.1295 304.681358 
L 494.07262 313.13986 
L 476.01574 310.417745 
L 457.95886 315.786976 
L 439.90198 317.651092 
L 421.8451 320.600199 
L 403.78822 329.8959 
L 385.73134 328.986711 
L 367.67446 323.719654 
L 349.61758 340.053146 
L 331.5607 337.8385 
L 313.50382 309.847018 
L 295.44694 313.582759 
L 277.39006 317.433933 
L 259.33318 319.659872 
L 241.2763 323.284382 
L 223.21942 320.002624 
L 205.16254 322.110478 
L 187.10566 322.429155 
L 169.04878 325.144625 
L 150.9919 334.840348 
L 132.93502 332.348414 
L 114.87814 336.019526 
L 96.82126 339.525177 
L 78.76438 348.368444 
L 60.7075 350.628143 
z
" clip-path="url(#pbfc56ea92d)" style="fill: #9a5689"/>
   </g>
   <g id="PolyCollection_4">
    <path d="M 60.7075 265.808866 
L 60.7075 350.628143 
L 78.76438 348.368444 
L 96.82126 339.525177 
L 114.87814 336.019526 
L 132.93502 332.348414 
L 150.9919 334.840348 
L 169.04878 325.144625 
L 187.10566 322.429155 
L 205.16254 322.110478 
L 223.21942 320.002624 
L 241.2763 323.284382 
L 259.33318 319.659872 
L 277.39006 317.433933 
L 295.44694 313.582759 
L 313.50382 309.847018 
L 331.5607 337.8385 
L 349.61758 340.053146 
L 367.67446 323.719654 
L 385.73134 328.986711 
L 403.78822 329.8959 
L 421.8451 320.600199 
L 439.90198 317.651092 
L 457.95886 315.786976 
L 476.01574 310.417745 
L 494.07262 313.13986 
L 512.1295 304.681358 
L 530.18638 299.422524 
L 548.24326 297.06688 
L 566.30014 297.540679 
L 584.35702 291.333801 
L 602.4139 288.855186 
L 620.47078 282.182018 
L 638.52766 281.817037 
L 656.58454 274.119367 
L 674.64142 269.892425 
L 692.6983 264.535024 
L 710.75518 263.559984 
L 728.81206 261.297454 
L 746.86894 259.709971 
L 764.92582 253.145026 
L 782.9827 259.090884 
L 801.03958 249.592385 
L 819.09646 245.45689 
L 837.15334 244.993163 
L 855.21022 266.335911 
L 873.2671 263.807535 
L 891.32398 245.470001 
L 909.38086 240.946432 
L 927.43774 238.972157 
L 945.49462 236.053086 
L 963.5515 231.817086 
L 963.5515 82.645434 
L 963.5515 82.645434 
L 945.49462 88.056559 
L 927.43774 92.07245 
L 909.38086 95.744605 
L 891.32398 101.991977 
L 873.2671 125.359983 
L 855.21022 128.33391 
L 837.15334 103.483604 
L 819.09646 104.359987 
L 801.03958 109.648945 
L 782.9827 120.334547 
L 764.92582 114.924853 
L 746.86894 124.675938 
L 728.81206 127.289474 
L 710.75518 131.591145 
L 692.6983 132.323789 
L 674.64142 138.949133 
L 656.58454 143.88342 
L 638.52766 153.142352 
L 620.47078 154.570333 
L 602.4139 163.247483 
L 584.35702 167.309798 
L 566.30014 175.292951 
L 548.24326 175.532309 
L 530.18638 179.062035 
L 512.1295 186.67839 
L 494.07262 195.472493 
L 476.01574 194.654512 
L 457.95886 200.920298 
L 439.90198 204.345706 
L 421.8451 208.711709 
L 403.78822 220.485221 
L 385.73134 220.885839 
L 367.67446 217.466808 
L 349.61758 235.111597 
L 331.5607 235.839324 
L 313.50382 207.24538 
L 295.44694 214.4739 
L 277.39006 220.383823 
L 259.33318 222.960887 
L 241.2763 228.549929 
L 223.21942 225.202707 
L 205.16254 228.906775 
L 187.10566 231.100146 
L 169.04878 234.186347 
L 150.9919 245.147659 
L 132.93502 242.915105 
L 114.87814 247.655863 
L 96.82126 252.909273 
L 78.76438 262.453808 
L 60.7075 265.808866 
z
" clip-path="url(#pbfc56ea92d)" style="fill: #4ac1fa"/>
   </g>
   <g id="PolyCollection_5">
    <path d="M 60.7075 250.01246 
L 60.7075 265.808866 
L 78.76438 262.453808 
L 96.82126 252.909273 
L 114.87814 247.655863 
L 132.93502 242.915105 
L 150.9919 245.147659 
L 169.04878 234.186347 
L 187.10566 231.100146 
L 205.16254 228.906775 
L 223.21942 225.202707 
L 241.2763 228.549929 
L 259.33318 222.960887 
L 277.39006 220.383823 
L 295.44694 214.4739 
L 313.50382 207.24538 
L 331.5607 235.839324 
L 349.61758 235.111597 
L 367.67446 217.466808 
L 385.73134 220.885839 
L 403.78822 220.485221 
L 421.8451 208.711709 
L 439.90198 204.345706 
L 457.95886 200.920298 
L 476.01574 194.654512 
L 494.07262 195.472493 
L 512.1295 186.67839 
L 530.18638 179.062035 
L 548.24326 175.532309 
L 566.30014 175.292951 
L 584.35702 167.309798 
L 602.4139 163.247483 
L 620.47078 154.570333 
L 638.52766 153.142352 
L 656.58454 143.88342 
L 674.64142 138.949133 
L 692.6983 132.323789 
L 710.75518 131.591145 
L 728.81206 127.289474 
L 746.86894 124.675938 
L 764.92582 114.924853 
L 782.9827 120.334547 
L 801.03958 109.648945 
L 819.09646 104.359987 
L 837.15334 103.483604 
L 855.21022 128.33391 
L 873.2671 125.359983 
L 891.32398 101.991977 
L 909.38086 95.744605 
L 927.43774 92.07245 
L 945.49462 88.056559 
L 963.5515 82.645434 
L 963.5515 61.356856 
L 963.5515 61.356856 
L 945.49462 67.549879 
L 927.43774 71.886144 
L 909.38086 75.045974 
L 891.32398 81.910139 
L 873.2671 106.854931 
L 855.21022 110.045957 
L 837.15334 82.752971 
L 819.09646 83.830959 
L 801.03958 88.377679 
L 782.9827 98.631019 
L 764.92582 94.602018 
L 746.86894 104.465855 
L 728.81206 106.854693 
L 710.75518 111.358535 
L 692.6983 112.862141 
L 674.64142 119.690043 
L 656.58454 124.382976 
L 638.52766 134.045059 
L 620.47078 134.942359 
L 602.4139 144.220272 
L 584.35702 148.125558 
L 566.30014 156.208292 
L 548.24326 156.757387 
L 530.18638 160.154846 
L 512.1295 168.167766 
L 494.07262 177.038566 
L 476.01574 176.407529 
L 457.95886 182.364978 
L 439.90198 186.153967 
L 421.8451 191.070287 
L 403.78822 203.219715 
L 385.73134 203.16924 
L 367.67446 199.880182 
L 349.61758 217.980504 
L 331.5607 218.494081 
L 313.50382 190.595415 
L 295.44694 197.146148 
L 277.39006 203.48875 
L 259.33318 206.205085 
L 241.2763 211.444491 
L 223.21942 208.998622 
L 205.16254 212.233897 
L 187.10566 213.621652 
L 169.04878 218.192478 
L 150.9919 229.042112 
L 132.93502 226.848741 
L 114.87814 231.076547 
L 96.82126 236.776939 
L 78.76438 246.85567 
L 60.7075 250.01246 
z
" clip-path="url(#pbfc56ea92d)" style="fill: #be503b"/>
   </g>
   <g id="PolyCollection_6">
    <path d="M 60.7075 202.063213 
L 60.7075 250.01246 
L 78.76438 246.85567 
L 96.82126 236.776939 
L 114.87814 231.076547 
L 132.93502 226.848741 
L 150.9919 229.042112 
L 169.04878 218.192478 
L 187.10566 213.621652 
L 205.16254 212.233897 
L 223.21942 208.998622 
L 241.2763 211.444491 
L 259.33318 206.205085 
L 277.39006 203.48875 
L 295.44694 197.146148 
L 313.50382 190.595415 
L 331.5607 218.494081 
L 349.61758 217.980504 
L 367.67446 199.880182 
L 385.73134 203.16924 
L 403.78822 203.219715 
L 421.8451 191.070287 
L 439.90198 186.153967 
L 457.95886 182.364978 
L 476.01574 176.407529 
L 494.07262 177.038566 
L 512.1295 168.167766 
L 530.18638 160.154846 
L 548.24326 156.757387 
L 566.30014 156.208292 
L 584.35702 148.125558 
L 602.4139 144.220272 
L 620.47078 134.942359 
L 638.52766 134.045059 
L 656.58454 124.382976 
L 674.64142 119.690043 
L 692.6983 112.862141 
L 710.75518 111.358535 
L 728.81206 106.854693 
L 746.86894 104.465855 
L 764.92582 94.602018 
L 782.9827 98.631019 
L 801.03958 88.377679 
L 819.09646 83.830959 
L 837.15334 82.752971 
L 855.21022 110.045957 
L 873.2671 106.854931 
L 891.32398 81.910139 
L 909.38086 75.045974 
L 927.43774 71.886144 
L 945.49462 67.549879 
L 963.5515 61.356856 
L 963.5515 24.14175 
L 963.5515 24.14175 
L 945.49462 30.756188 
L 927.43774 32.693307 
L 909.38086 37.215326 
L 891.32398 43.511713 
L 873.2671 70.671657 
L 855.21022 73.512632 
L 837.15334 43.098313 
L 819.09646 44.701767 
L 801.03958 49.860007 
L 782.9827 63.514471 
L 764.92582 56.360472 
L 746.86894 67.280039 
L 728.81206 68.601526 
L 710.75518 73.597284 
L 692.6983 74.021739 
L 674.64142 80.643239 
L 656.58454 84.76914 
L 638.52766 97.256166 
L 620.47078 95.056866 
L 602.4139 103.779397 
L 584.35702 108.915557 
L 566.30014 118.096958 
L 548.24326 119.129119 
L 530.18638 118.925607 
L 512.1295 128.134033 
L 494.07262 139.966126 
L 476.01574 138.522532 
L 457.95886 143.10182 
L 439.90198 148.319624 
L 421.8451 152.692808 
L 403.78822 163.616069 
L 385.73134 163.198587 
L 367.67446 158.312034 
L 349.61758 178.146648 
L 331.5607 175.739277 
L 313.50382 145.192988 
L 295.44694 152.385514 
L 277.39006 161.154438 
L 259.33318 164.470462 
L 241.2763 169.926193 
L 223.21942 164.254138 
L 205.16254 169.186667 
L 187.10566 171.867454 
L 169.04878 168.791472 
L 150.9919 178.020459 
L 132.93502 171.929252 
L 114.87814 180.073368 
L 96.82126 189.40414 
L 78.76438 197.607909 
L 60.7075 202.063213 
z
" clip-path="url(#pbfc56ea92d)" style="fill: #e9a942"/>
   </g>
   <g id="patch_3">
    <path d="M 60.7075 578.54175 
L 60.7075 24.14175 
" style="fill: none; stroke: #ffffff; stroke-linejoin: miter; stroke-linecap: square"/>
   </g>
   <g id="patch_4">
    <path d="M 963.5515 578.54175 
L 963.5515 24.14175 
" style="fill: none; stroke: #ffffff; stroke-linejoin: miter; stroke-linecap: square"/>
   </g>
   <g id="patch_5">
    <path d="M 60.7075 578.54175 
L 963.5515 578.54175 
" style="fill: none; stroke: #ffffff; stroke-linejoin: miter; stroke-linecap: square"/>
   </g>
   <g id="patch_6">
    <path d="M 60.7075 24.14175 
L 963.5515 24.14175 
" style="fill: none; stroke: #ffffff; stroke-linejoin: miter; stroke-linecap: square"/>
   </g>
   <g id="text_22">
    <!-- Enterprise Linux Instances by Distribution -->
    <g transform="translate(60.7075 18.14175) scale(0.144 -0.144)">
     <defs>
      <path id="DejaVuSans-45" d="M 628 4666 
L 3578 4666 
L 3578 4134 
L 1259 4134 
L 1259 2753 
L 3481 2753 
L 3481 2222 
L 1259 2222 
L 1259 531 
L 3634 531 
L 3634 0 
L 628 0 
L 628 4666 
z
" transform="scale(0.015625)"/>
      <path id="DejaVuSans-72" d="M 2631 2963 
Q 2534 3019 2420 3045 
Q 2306 3072 2169 3072 
Q 1681 3072 1420 2755 
Q 1159 2438 1159 1844 
L 1159 0 
L 581 0 
L 581 3500 
L 1159 3500 
L 1159 2956 
Q 1341 3275 1631 3429 
Q 1922 3584 2338 3584 
Q 2397 3584 2469 3576 
Q 2541 3569 2628 3553 
L 2631 2963 
z
" transform="scale(0.015625)"/>
      <path id="DejaVuSans-70" d="M 1159 525 
L 1159 -1331 
L 581 -1331 
L 581 3500 
L 1159 3500 
L 1159 2969 
Q 1341 3281 1617 3432 
Q 1894 3584 2278 3584 
Q 2916 3584 3314 3078 
Q 3713 2572 3713 1747 
Q 3713 922 3314 415 
Q 2916 -91 2278 -91 
Q 1894 -91 1617 61 
Q 1341 213 1159 525 
z
M 3116 1747 
Q 3116 2381 2855 2742 
Q 2594 3103 2138 3103 
Q 1681 3103 1420 2742 
Q 1159 2381 1159 1747 
Q 1159 1113 1420 752 
Q 1681 391 2138 391 
Q 2594 391 2855 752 
Q 3116 1113 3116 1747 
z
" transform="scale(0.015625)"/>
      <path id="DejaVuSans-69" d="M 603 3500 
L 1178 3500 
L 1178 0 
L 603 0 
L 603 3500 
z
M 603 4863 
L 1178 4863 
L 1178 4134 
L 603 4134 
L 603 4863 
z
" transform="scale(0.015625)"/>
      <path id="DejaVuSans-20" transform="scale(0.015625)"/>
      <path id="DejaVuSans-4c" d="M 628 4666 
L 1259 4666 
L 1259 531 
L 3531 531 
L 3531 0 
L 628 0 
L 628 4666 
z
" transform="scale(0.015625)"/>
      <path id="DejaVuSans-75" d="M 544 1381 
L 544 3500 
L 1119 3500 
L 1119 1403 
Q 1119 906 1312 657 
Q 1506 409 1894 409 
Q 2359 409 2629 706 
Q 2900 1003 2900 1516 
L 2900 3500 
L 3475 3500 
L 3475 0 
L 2900 0 
L 2900 538 
Q 2691 219 2414 64 
Q 2138 -91 1772 -91 
Q 1169 -91 856 284 
Q 544 659 544 1381 
z
M 1991 3584 
L 1991 3584 
z
" transform="scale(0.015625)"/>
      <path id="DejaVuSans-78" d="M 3513 3500 
L 2247 1797 
L 3578 0 
L 2900 0 
L 1881 1375 
L 863 0 
L 184 0 
L 1544 1831 
L 300 3500 
L 978 3500 
L 1906 2253 
L 2834 3500 
L 3513 3500 
z
" transform="scale(0.015625)"/>
      <path id="DejaVuSans-62" d="M 3116 1747 
Q 3116 2381 2855 2742 
Q 2594 3103 2138 3103 
Q 1681 3103 1420 2742 
Q 1159 2381 1159 1747 
Q 1159 1113 1420 752 
Q 1681 391 2138 391 
Q 2594 391 2855 752 
Q 3116 1113 3116 1747 
z
M 1159 2969 
Q 1341 3281 1617 3432 
Q 1894 3584 2278 3584 
Q 2916 3584 3314 3078 
Q 3713 2572 3713 1747 
Q 3713 922 3314 415 
Q 2916 -91 2278 -91 
Q 1894 -91 1617 61 
Q 1341 213 1159 525 
L 1159 0 
L 581 0 
L 581 4863 
L 1159 4863 
L 1159 2969 
z
" transform="scale(0.015625)"/>
      <path id="DejaVuSans-79" d="M 2059 -325 
Q 1816 -950 1584 -1140 
Q 1353 -1331 966 -1331 
L 506 -1331 
L 506 -850 
L 844 -850 
Q 1081 -850 1212 -737 
Q 1344 -625 1503 -206 
L 1606 56 
L 191 3500 
L 800 3500 
L 1894 763 
L 2988 3500 
L 3597 3500 
L 2059 -325 
z
" transform="scale(0.015625)"/>
      <path id="DejaVuSans-6f" d="M 1959 3097 
Q 1497 3097 1228 2736 
Q 959 2375 959 1747 
Q 959 1119 1226 758 
Q 1494 397 1959 397 
Q 2419 397 2687 759 
Q 2956 1122 2956 1747 
Q 2956 2369 2687 2733 
Q 2419 3097 1959 3097 
z
M 1959 3584 
Q 2709 3584 3137 3096 
Q 3566 2609 3566 1747 
Q 3566 888 3137 398 
Q 2709 -91 1959 -91 
Q 1206 -91 779 398 
Q 353 888 353 1747 
Q 353 2609 779 3096 
Q 1206 3584 1959 3584 
z
" transform="scale(0.015625)"/>
     </defs>
     <use xlink:href="#DejaVuSans-45"/>
     <use xlink:href="#DejaVuSans-6e" x="63.183594"/>
     <use xlink:href="#DejaVuSans-74" x="126.5625"/>
     <use xlink:href="#DejaVuSans-65" x="165.771484"/>
     <use xlink:href="#DejaVuSans-72" x="227.294922"/>
     <use xlink:href="#DejaVuSans-70" x="268.408203"/>
     <use xlink:href="#DejaVuSans-72" x="331.884766"/>
     <use xlink:href="#DejaVuSans-69" x="372.998047"/>
     <use xlink:href="#DejaVuSans-73" x="400.78125"/>
     <use xlink:href="#DejaVuSans-65" x="452.880859"/>
     <use xlink:href="#DejaVuSans-20" x="514.404297"/>
     <use xlink:href="#DejaVuSans-4c" x="546.191406"/>
     <use xlink:href="#DejaVuSans-69" x="601.904297"/>
     <use xlink:href="#DejaVuSans-6e" x="629.6875"/>
     <use xlink:href="#DejaVuSans-75" x="693.066406"/>
     <use xlink:href="#DejaVuSans-78" x="756.445312"/>
     <use xlink:href="#DejaVuSans-20" x="815.625"/>
     <use xlink:href="#DejaVuSans-49" x="847.412109"/>
     <use xlink:href="#DejaVuSans-6e" x="876.904297"/>
     <use xlink:href="#DejaVuSans-73" x="940.283203"/>
     <use xlink:href="#DejaVuSans-74" x="992.382812"/>
     <use xlink:href="#DejaVuSans-61" x="1031.591797"/>
     <use xlink:href="#DejaVuSans-6e" x="1092.871094"/>
     <use xlink:href="#DejaVuSans-63" x="1156.25"/>
     <use xlink:href="#DejaVuSans-65" x="1211.230469"/>
     <use xlink:href="#DejaVuSans-73" x="1272.753906"/>
     <use xlink:href="#DejaVuSans-20" x="1324.853516"/>
     <use xlink:href="#DejaVuSans-62" x="1356.640625"/>
     <use xlink:href="#DejaVuSans-79" x="1420.117188"/>
     <use xlink:href="#DejaVuSans-20" x="1479.296875"/>
     <use xlink:href="#DejaVuSans-44" x="1511.083984"/>
     <use xlink:href="#DejaVuSans-69" x="1588.085938"/>
     <use xlink:href="#DejaVuSans-73" x="1615.869141"/>
     <use xlink:href="#DejaVuSans-74" x="1667.96875"/>
     <use xlink:href="#DejaVuSans-72" x="1707.177734"/>
     <use xlink:href="#DejaVuSans-69" x="1748.291016"/>
     <use xlink:href="#DejaVuSans-62" x="1776.074219"/>
     <use xlink:href="#DejaVuSans-75" x="1839.550781"/>
     <use xlink:href="#DejaVuSans-74" x="1902.929688"/>
     <use xlink:href="#DejaVuSans-69" x="1942.138672"/>
     <use xlink:href="#DejaVuSans-6f" x="1969.921875"/>
     <use xlink:href="#DejaVuSans-6e" x="2031.103516"/>
    </g>
   </g>
   <g id="text_23">
    <!-- 2025-02-20 11:55 UTC -->
    <g transform="translate(800.6695 18.14175) scale(0.144 -0.144)">
     <defs>
      <path id="DejaVuSans-3a" d="M 750 794 
L 1409 794 
L 1409 0 
L 750 0 
L 750 794 
z
M 750 3309 
L 1409 3309 
L 1409 2516 
L 750 2516 
L 750 3309 
z
" transform="scale(0.015625)"/>
      <path id="DejaVuSans-55" d="M 556 4666 
L 1191 4666 
L 1191 1831 
Q 1191 1081 1462 751 
Q 1734 422 2344 422 
Q 2950 422 3222 751 
Q 3494 1081 3494 1831 
L 3494 4666 
L 4128 4666 
L 4128 1753 
Q 4128 841 3676 375 
Q 3225 -91 2344 -91 
Q 1459 -91 1007 375 
Q 556 841 556 1753 
L 556 4666 
z
" transform="scale(0.015625)"/>
      <path id="DejaVuSans-54" d="M -19 4666 
L 3928 4666 
L 3928 4134 
L 2272 4134 
L 2272 0 
L 1638 0 
L 1638 4134 
L -19 4134 
L -19 4666 
z
" transform="scale(0.015625)"/>
      <path id="DejaVuSans-43" d="M 4122 4306 
L 4122 3641 
Q 3803 3938 3442 4084 
Q 3081 4231 2675 4231 
Q 1875 4231 1450 3742 
Q 1025 3253 1025 2328 
Q 1025 1406 1450 917 
Q 1875 428 2675 428 
Q 3081 428 3442 575 
Q 3803 722 4122 1019 
L 4122 359 
Q 3791 134 3420 21 
Q 3050 -91 2638 -91 
Q 1578 -91 968 557 
Q 359 1206 359 2328 
Q 359 3453 968 4101 
Q 1578 4750 2638 4750 
Q 3056 4750 3426 4639 
Q 3797 4528 4122 4306 
z
" transform="scale(0.015625)"/>
     </defs>
     <use xlink:href="#DejaVuSans-32"/>
     <use xlink:href="#DejaVuSans-30" x="63.623047"/>
     <use xlink:href="#DejaVuSans-32" x="127.246094"/>
     <use xlink:href="#DejaVuSans-35" x="190.869141"/>
     <use xlink:href="#DejaVuSans-2d" x="254.492188"/>
     <use xlink:href="#DejaVuSans-30" x="290.576172"/>
     <use xlink:href="#DejaVuSans-32" x="354.199219"/>
     <use xlink:href="#DejaVuSans-2d" x="417.822266"/>
     <use xlink:href="#DejaVuSans-32" x="453.90625"/>
     <use xlink:href="#DejaVuSans-30" x="517.529297"/>
     <use xlink:href="#DejaVuSans-20" x="581.152344"/>
     <use xlink:href="#DejaVuSans-31" x="612.939453"/>
     <use xlink:href="#DejaVuSans-31" x="676.5625"/>
     <use xlink:href="#DejaVuSans-3a" x="740.185547"/>
     <use xlink:href="#DejaVuSans-35" x="773.876953"/>
     <use xlink:href="#DejaVuSans-35" x="837.5"/>
     <use xlink:href="#DejaVuSans-20" x="901.123047"/>
     <use xlink:href="#DejaVuSans-55" x="932.910156"/>
     <use xlink:href="#DejaVuSans-54" x="1006.103516"/>
     <use xlink:href="#DejaVuSans-43" x="1061.3125"/>
    </g>
   </g>
   <g id="legend_1">
    <g id="patch_7">
     <path d="M 67.7075 134.888625 
L 176.67625 134.888625 
Q 178.67625 134.888625 178.67625 132.888625 
L 178.67625 31.14175 
Q 178.67625 29.14175 176.67625 29.14175 
L 67.7075 29.14175 
Q 65.7075 29.14175 65.7075 31.14175 
L 65.7075 132.888625 
Q 65.7075 134.888625 67.7075 134.888625 
z
" style="fill: #e5e5e5; opacity: 0.8; stroke: #cccccc; stroke-width: 0.5; stroke-linejoin: miter"/>
    </g>
    <g id="text_24">
     <!-- Distribution -->
     <g transform="translate(93.023125 40.740188) scale(0.1 -0.1)">
      <use xlink:href="#DejaVuSans-44"/>
      <use xlink:href="#DejaVuSans-69" x="77.001953"/>
      <use xlink:href="#DejaVuSans-73" x="104.785156"/>
      <use xlink:href="#DejaVuSans-74" x="156.884766"/>
      <use xlink:href="#DejaVuSans-72" x="196.09375"/>
      <use xlink:href="#DejaVuSans-69" x="237.207031"/>
      <use xlink:href="#DejaVuSans-62" x="264.990234"/>
      <use xlink:href="#DejaVuSans-75" x="328.466797"/>
      <use xlink:href="#DejaVuSans-74" x="391.845703"/>
      <use xlink:href="#DejaVuSans-69" x="431.054688"/>
      <use xlink:href="#DejaVuSans-6f" x="458.837891"/>
      <use xlink:href="#DejaVuSans-6e" x="520.019531"/>
     </g>
    </g>
    <g id="patch_8">
     <path d="M 69.7075 55.418313 
L 89.7075 55.418313 
L 89.7075 48.418313 
L 69.7075 48.418313 
z
" style="fill: #48b585"/>
    </g>
    <g id="text_25">
     <!-- Rocky Linux -->
     <g transform="translate(97.7075 55.418313) scale(0.1 -0.1)">
      <defs>
       <path id="DejaVuSans-52" d="M 2841 2188 
Q 3044 2119 3236 1894 
Q 3428 1669 3622 1275 
L 4263 0 
L 3584 0 
L 2988 1197 
Q 2756 1666 2539 1819 
Q 2322 1972 1947 1972 
L 1259 1972 
L 1259 0 
L 628 0 
L 628 4666 
L 2053 4666 
Q 2853 4666 3247 4331 
Q 3641 3997 3641 3322 
Q 3641 2881 3436 2590 
Q 3231 2300 2841 2188 
z
M 1259 4147 
L 1259 2491 
L 2053 2491 
Q 2509 2491 2742 2702 
Q 2975 2913 2975 3322 
Q 2975 3731 2742 3939 
Q 2509 4147 2053 4147 
L 1259 4147 
z
" transform="scale(0.015625)"/>
       <path id="DejaVuSans-6b" d="M 581 4863 
L 1159 4863 
L 1159 1991 
L 2875 3500 
L 3609 3500 
L 1753 1863 
L 3688 0 
L 2938 0 
L 1159 1709 
L 1159 0 
L 581 0 
L 581 4863 
z
" transform="scale(0.015625)"/>
      </defs>
      <use xlink:href="#DejaVuSans-52"/>
      <use xlink:href="#DejaVuSans-6f" x="64.982422"/>
      <use xlink:href="#DejaVuSans-63" x="126.164062"/>
      <use xlink:href="#DejaVuSans-6b" x="181.144531"/>
      <use xlink:href="#DejaVuSans-79" x="235.429688"/>
      <use xlink:href="#DejaVuSans-20" x="294.609375"/>
      <use xlink:href="#DejaVuSans-4c" x="326.396484"/>
      <use xlink:href="#DejaVuSans-69" x="382.109375"/>
      <use xlink:href="#DejaVuSans-6e" x="409.892578"/>
      <use xlink:href="#DejaVuSans-75" x="473.271484"/>
      <use xlink:href="#DejaVuSans-78" x="536.650391"/>
     </g>
    </g>
    <g id="patch_9">
     <path d="M 69.7075 70.096438 
L 89.7075 70.096438 
L 89.7075 63.096438 
L 69.7075 63.096438 
z
" style="fill: #e2321d"/>
    </g>
    <g id="text_26">
     <!-- RHEL -->
     <g transform="translate(97.7075 70.096438) scale(0.1 -0.1)">
      <defs>
       <path id="DejaVuSans-48" d="M 628 4666 
L 1259 4666 
L 1259 2753 
L 3553 2753 
L 3553 4666 
L 4184 4666 
L 4184 0 
L 3553 0 
L 3553 2222 
L 1259 2222 
L 1259 0 
L 628 0 
L 628 4666 
z
" transform="scale(0.015625)"/>
      </defs>
      <use xlink:href="#DejaVuSans-52"/>
      <use xlink:href="#DejaVuSans-48" x="69.482422"/>
      <use xlink:href="#DejaVuSans-45" x="144.677734"/>
      <use xlink:href="#DejaVuSans-4c" x="207.861328"/>
     </g>
    </g>
    <g id="patch_10">
     <path d="M 69.7075 84.774563 
L 89.7075 84.774563 
L 89.7075 77.774563 
L 69.7075 77.774563 
z
" style="fill: #9a5689"/>
    </g>
    <g id="text_27">
     <!-- CentOS Stream -->
     <g transform="translate(97.7075 84.774563) scale(0.1 -0.1)">
      <defs>
       <path id="DejaVuSans-4f" d="M 2522 4238 
Q 1834 4238 1429 3725 
Q 1025 3213 1025 2328 
Q 1025 1447 1429 934 
Q 1834 422 2522 422 
Q 3209 422 3611 934 
Q 4013 1447 4013 2328 
Q 4013 3213 3611 3725 
Q 3209 4238 2522 4238 
z
M 2522 4750 
Q 3503 4750 4090 4092 
Q 4678 3434 4678 2328 
Q 4678 1225 4090 567 
Q 3503 -91 2522 -91 
Q 1538 -91 948 565 
Q 359 1222 359 2328 
Q 359 3434 948 4092 
Q 1538 4750 2522 4750 
z
" transform="scale(0.015625)"/>
       <path id="DejaVuSans-53" d="M 3425 4513 
L 3425 3897 
Q 3066 4069 2747 4153 
Q 2428 4238 2131 4238 
Q 1616 4238 1336 4038 
Q 1056 3838 1056 3469 
Q 1056 3159 1242 3001 
Q 1428 2844 1947 2747 
L 2328 2669 
Q 3034 2534 3370 2195 
Q 3706 1856 3706 1288 
Q 3706 609 3251 259 
Q 2797 -91 1919 -91 
Q 1588 -91 1214 -16 
Q 841 59 441 206 
L 441 856 
Q 825 641 1194 531 
Q 1563 422 1919 422 
Q 2459 422 2753 634 
Q 3047 847 3047 1241 
Q 3047 1584 2836 1778 
Q 2625 1972 2144 2069 
L 1759 2144 
Q 1053 2284 737 2584 
Q 422 2884 422 3419 
Q 422 4038 858 4394 
Q 1294 4750 2059 4750 
Q 2388 4750 2728 4690 
Q 3069 4631 3425 4513 
z
" transform="scale(0.015625)"/>
       <path id="DejaVuSans-6d" d="M 3328 2828 
Q 3544 3216 3844 3400 
Q 4144 3584 4550 3584 
Q 5097 3584 5394 3201 
Q 5691 2819 5691 2113 
L 5691 0 
L 5113 0 
L 5113 2094 
Q 5113 2597 4934 2840 
Q 4756 3084 4391 3084 
Q 3944 3084 3684 2787 
Q 3425 2491 3425 1978 
L 3425 0 
L 2847 0 
L 2847 2094 
Q 2847 2600 2669 2842 
Q 2491 3084 2119 3084 
Q 1678 3084 1418 2786 
Q 1159 2488 1159 1978 
L 1159 0 
L 581 0 
L 581 3500 
L 1159 3500 
L 1159 2956 
Q 1356 3278 1631 3431 
Q 1906 3584 2284 3584 
Q 2666 3584 2933 3390 
Q 3200 3197 3328 2828 
z
" transform="scale(0.015625)"/>
      </defs>
      <use xlink:href="#DejaVuSans-43"/>
      <use xlink:href="#DejaVuSans-65" x="69.824219"/>
      <use xlink:href="#DejaVuSans-6e" x="131.347656"/>
      <use xlink:href="#DejaVuSans-74" x="194.726562"/>
      <use xlink:href="#DejaVuSans-4f" x="233.935547"/>
      <use xlink:href="#DejaVuSans-53" x="312.646484"/>
      <use xlink:href="#DejaVuSans-20" x="376.123047"/>
      <use xlink:href="#DejaVuSans-53" x="407.910156"/>
      <use xlink:href="#DejaVuSans-74" x="471.386719"/>
      <use xlink:href="#DejaVuSans-72" x="510.595703"/>
      <use xlink:href="#DejaVuSans-65" x="549.458984"/>
      <use xlink:href="#DejaVuSans-61" x="610.982422"/>
      <use xlink:href="#DejaVuSans-6d" x="672.261719"/>
     </g>
    </g>
    <g id="patch_11">
     <path d="M 69.7075 99.452688 
L 89.7075 99.452688 
L 89.7075 92.452688 
L 69.7075 92.452688 
z
" style="fill: #4ac1fa"/>
    </g>
    <g id="text_28">
     <!-- Alma Linux -->
     <g transform="translate(97.7075 99.452688) scale(0.1 -0.1)">
      <defs>
       <path id="DejaVuSans-41" d="M 2188 4044 
L 1331 1722 
L 3047 1722 
L 2188 4044 
z
M 1831 4666 
L 2547 4666 
L 4325 0 
L 3669 0 
L 3244 1197 
L 1141 1197 
L 716 0 
L 50 0 
L 1831 4666 
z
" transform="scale(0.015625)"/>
       <path id="DejaVuSans-6c" d="M 603 4863 
L 1178 4863 
L 1178 0 
L 603 0 
L 603 4863 
z
" transform="scale(0.015625)"/>
      </defs>
      <use xlink:href="#DejaVuSans-41"/>
      <use xlink:href="#DejaVuSans-6c" x="68.408203"/>
      <use xlink:href="#DejaVuSans-6d" x="96.191406"/>
      <use xlink:href="#DejaVuSans-61" x="193.603516"/>
      <use xlink:href="#DejaVuSans-20" x="254.882812"/>
      <use xlink:href="#DejaVuSans-4c" x="286.669922"/>
      <use xlink:href="#DejaVuSans-69" x="342.382812"/>
      <use xlink:href="#DejaVuSans-6e" x="370.166016"/>
      <use xlink:href="#DejaVuSans-75" x="433.544922"/>
      <use xlink:href="#DejaVuSans-78" x="496.923828"/>
     </g>
    </g>
    <g id="patch_12">
     <path d="M 69.7075 114.130813 
L 89.7075 114.130813 
L 89.7075 107.130813 
L 69.7075 107.130813 
z
" style="fill: #be503b"/>
    </g>
    <g id="text_29">
     <!-- Oracle -->
     <g transform="translate(97.7075 114.130813) scale(0.1 -0.1)">
      <use xlink:href="#DejaVuSans-4f"/>
      <use xlink:href="#DejaVuSans-72" x="78.710938"/>
      <use xlink:href="#DejaVuSans-61" x="119.824219"/>
      <use xlink:href="#DejaVuSans-63" x="181.103516"/>
      <use xlink:href="#DejaVuSans-6c" x="236.083984"/>
      <use xlink:href="#DejaVuSans-65" x="263.867188"/>
     </g>
    </g>
    <g id="patch_13">
     <path d="M 69.7075 128.808938 
L 89.7075 128.808938 
L 89.7075 121.808938 
L 69.7075 121.808938 
z
" style="fill: #e9a942"/>
    </g>
    <g id="text_30">
     <!-- CentOS Legacy -->
     <g transform="translate(97.7075 128.808938) scale(0.1 -0.1)">
      <defs>
       <path id="DejaVuSans-67" d="M 2906 1791 
Q 2906 2416 2648 2759 
Q 2391 3103 1925 3103 
Q 1463 3103 1205 2759 
Q 947 2416 947 1791 
Q 947 1169 1205 825 
Q 1463 481 1925 481 
Q 2391 481 2648 825 
Q 2906 1169 2906 1791 
z
M 3481 434 
Q 3481 -459 3084 -895 
Q 2688 -1331 1869 -1331 
Q 1566 -1331 1297 -1286 
Q 1028 -1241 775 -1147 
L 775 -588 
Q 1028 -725 1275 -790 
Q 1522 -856 1778 -856 
Q 2344 -856 2625 -561 
Q 2906 -266 2906 331 
L 2906 616 
Q 2728 306 2450 153 
Q 2172 0 1784 0 
Q 1141 0 747 490 
Q 353 981 353 1791 
Q 353 2603 747 3093 
Q 1141 3584 1784 3584 
Q 2172 3584 2450 3431 
Q 2728 3278 2906 2969 
L 2906 3500 
L 3481 3500 
L 3481 434 
z
" transform="scale(0.015625)"/>
      </defs>
      <use xlink:href="#DejaVuSans-43"/>
      <use xlink:href="#DejaVuSans-65" x="69.824219"/>
      <use xlink:href="#DejaVuSans-6e" x="131.347656"/>
      <use xlink:href="#DejaVuSans-74" x="194.726562"/>
      <use xlink:href="#DejaVuSans-4f" x="233.935547"/>
      <use xlink:href="#DejaVuSans-53" x="312.646484"/>
      <use xlink:href="#DejaVuSans-20" x="376.123047"/>
      <use xlink:href="#DejaVuSans-4c" x="407.910156"/>
      <use xlink:href="#DejaVuSans-65" x="461.873047"/>
      <use xlink:href="#DejaVuSans-67" x="523.396484"/>
      <use xlink:href="#DejaVuSans-61" x="586.873047"/>
      <use xlink:href="#DejaVuSans-63" x="648.152344"/>
      <use xlink:href="#DejaVuSans-79" x="703.132812"/>
     </g>
    </g>
   </g>
  </g>
 </g>
 <defs>
  <clipPath id="pbfc56ea92d">
   <rect x="60.7075" y="24.14175" width="902.844" height="554.4"/>
  </clipPath>
 </defs>
</svg>
