<?xml version="1.0" encoding="utf-8" standalone="no"?>
<!DOCTYPE svg PUBLIC "-//W3C//DTD SVG 1.1//EN"
  "http://www.w3.org/Graphics/SVG/1.1/DTD/svg11.dtd">
<svg xmlns:xlink="http://www.w3.org/1999/xlink" width="973.955064pt" height="644.743878pt" viewBox="0 0 973.955064 644.743878" xmlns="http://www.w3.org/2000/svg" version="1.1">
 <metadata>
  <rdf:RDF xmlns:dc="http://purl.org/dc/elements/1.1/" xmlns:cc="http://creativecommons.org/ns#" xmlns:rdf="http://www.w3.org/1999/02/22-rdf-syntax-ns#">
   <cc:Work>
    <dc:type rdf:resource="http://purl.org/dc/dcmitype/StillImage"/>
    <dc:date>2025-06-05T11:54:58.348734</dc:date>
    <dc:format>image/svg+xml</dc:format>
    <dc:creator>
     <cc:Agent>
      <dc:title>Matplotlib v3.6.3, https://matplotlib.org/</dc:title>
     </cc:Agent>
    </dc:creator>
   </cc:Work>
  </rdf:RDF>
 </metadata>
 <defs>
  <style type="text/css">*{stroke-linejoin: round; stroke-linecap: butt}</style>
 </defs>
 <g id="figure_1">
  <g id="patch_1">
   <path d="M 0 644.743878 
L 973.955064 644.743878 
L 973.955064 0 
L 0 0 
z
" style="fill: #ffffff"/>
  </g>
  <g id="axes_1">
   <g id="patch_2">
    <path d="M 45.716875 578.54175 
L 948.560875 578.54175 
L 948.560875 24.14175 
L 45.716875 24.14175 
z
" style="fill: #e5e5e5"/>
   </g>
   <g id="matplotlib.axis_1">
    <g id="xtick_1">
     <g id="line2d_1">
      <path d="M 101.35432 578.54175 
L 101.35432 24.14175 
" clip-path="url(#p4dbb448740)" style="fill: none; stroke: #ffffff; stroke-width: 0.8; stroke-linecap: square"/>
     </g>
     <g id="line2d_2">
      <defs>
       <path id="mcee3b56c35" d="M 0 0 
L 0 3.5 
" style="stroke: #555555; stroke-width: 0.8"/>
      </defs>
      <g>
       <use xlink:href="#mcee3b56c35" x="101.35432" y="578.54175" style="fill: #555555; stroke: #555555; stroke-width: 0.8"/>
      </g>
     </g>
     <g id="text_1">
      <!-- 2024-07 -->
      <g style="fill: #555555" transform="translate(88.533038 620.459567) rotate(-45) scale(0.1 -0.1)">
       <defs>
        <path id="DejaVuSans-32" d="M 1228 531 
L 3431 531 
L 3431 0 
L 469 0 
L 469 531 
Q 828 903 1448 1529 
Q 2069 2156 2228 2338 
Q 2531 2678 2651 2914 
Q 2772 3150 2772 3378 
Q 2772 3750 2511 3984 
Q 2250 4219 1831 4219 
Q 1534 4219 1204 4116 
Q 875 4013 500 3803 
L 500 4441 
Q 881 4594 1212 4672 
Q 1544 4750 1819 4750 
Q 2544 4750 2975 4387 
Q 3406 4025 3406 3419 
Q 3406 3131 3298 2873 
Q 3191 2616 2906 2266 
Q 2828 2175 2409 1742 
Q 1991 1309 1228 531 
z
" transform="scale(0.015625)"/>
        <path id="DejaVuSans-30" d="M 2034 4250 
Q 1547 4250 1301 3770 
Q 1056 3291 1056 2328 
Q 1056 1369 1301 889 
Q 1547 409 2034 409 
Q 2525 409 2770 889 
Q 3016 1369 3016 2328 
Q 3016 3291 2770 3770 
Q 2525 4250 2034 4250 
z
M 2034 4750 
Q 2819 4750 3233 4129 
Q 3647 3509 3647 2328 
Q 3647 1150 3233 529 
Q 2819 -91 2034 -91 
Q 1250 -91 836 529 
Q 422 1150 422 2328 
Q 422 3509 836 4129 
Q 1250 4750 2034 4750 
z
" transform="scale(0.015625)"/>
        <path id="DejaVuSans-34" d="M 2419 4116 
L 825 1625 
L 2419 1625 
L 2419 4116 
z
M 2253 4666 
L 3047 4666 
L 3047 1625 
L 3713 1625 
L 3713 1100 
L 3047 1100 
L 3047 0 
L 2419 0 
L 2419 1100 
L 313 1100 
L 313 1709 
L 2253 4666 
z
" transform="scale(0.015625)"/>
        <path id="DejaVuSans-2d" d="M 313 2009 
L 1997 2009 
L 1997 1497 
L 313 1497 
L 313 2009 
z
" transform="scale(0.015625)"/>
        <path id="DejaVuSans-37" d="M 525 4666 
L 3525 4666 
L 3525 4397 
L 1831 0 
L 1172 0 
L 2766 4134 
L 525 4134 
L 525 4666 
z
" transform="scale(0.015625)"/>
       </defs>
       <use xlink:href="#DejaVuSans-32"/>
       <use xlink:href="#DejaVuSans-30" x="63.623047"/>
       <use xlink:href="#DejaVuSans-32" x="127.246094"/>
       <use xlink:href="#DejaVuSans-34" x="190.869141"/>
       <use xlink:href="#DejaVuSans-2d" x="254.492188"/>
       <use xlink:href="#DejaVuSans-30" x="290.576172"/>
       <use xlink:href="#DejaVuSans-37" x="354.199219"/>
      </g>
     </g>
    </g>
    <g id="xtick_2">
     <g id="line2d_3">
      <path d="M 179.752539 578.54175 
L 179.752539 24.14175 
" clip-path="url(#p4dbb448740)" style="fill: none; stroke: #ffffff; stroke-width: 0.8; stroke-linecap: square"/>
     </g>
     <g id="line2d_4">
      <g>
       <use xlink:href="#mcee3b56c35" x="179.752539" y="578.54175" style="fill: #555555; stroke: #555555; stroke-width: 0.8"/>
      </g>
     </g>
     <g id="text_2">
      <!-- 2024-08 -->
      <g style="fill: #555555" transform="translate(166.931257 620.459567) rotate(-45) scale(0.1 -0.1)">
       <defs>
        <path id="DejaVuSans-38" d="M 2034 2216 
Q 1584 2216 1326 1975 
Q 1069 1734 1069 1313 
Q 1069 891 1326 650 
Q 1584 409 2034 409 
Q 2484 409 2743 651 
Q 3003 894 3003 1313 
Q 3003 1734 2745 1975 
Q 2488 2216 2034 2216 
z
M 1403 2484 
Q 997 2584 770 2862 
Q 544 3141 544 3541 
Q 544 4100 942 4425 
Q 1341 4750 2034 4750 
Q 2731 4750 3128 4425 
Q 3525 4100 3525 3541 
Q 3525 3141 3298 2862 
Q 3072 2584 2669 2484 
Q 3125 2378 3379 2068 
Q 3634 1759 3634 1313 
Q 3634 634 3220 271 
Q 2806 -91 2034 -91 
Q 1263 -91 848 271 
Q 434 634 434 1313 
Q 434 1759 690 2068 
Q 947 2378 1403 2484 
z
M 1172 3481 
Q 1172 3119 1398 2916 
Q 1625 2713 2034 2713 
Q 2441 2713 2670 2916 
Q 2900 3119 2900 3481 
Q 2900 3844 2670 4047 
Q 2441 4250 2034 4250 
Q 1625 4250 1398 4047 
Q 1172 3844 1172 3481 
z
" transform="scale(0.015625)"/>
       </defs>
       <use xlink:href="#DejaVuSans-32"/>
       <use xlink:href="#DejaVuSans-30" x="63.623047"/>
       <use xlink:href="#DejaVuSans-32" x="127.246094"/>
       <use xlink:href="#DejaVuSans-34" x="190.869141"/>
       <use xlink:href="#DejaVuSans-2d" x="254.492188"/>
       <use xlink:href="#DejaVuSans-30" x="290.576172"/>
       <use xlink:href="#DejaVuSans-38" x="354.199219"/>
      </g>
     </g>
    </g>
    <g id="xtick_3">
     <g id="line2d_5">
      <path d="M 258.150757 578.54175 
L 258.150757 24.14175 
" clip-path="url(#p4dbb448740)" style="fill: none; stroke: #ffffff; stroke-width: 0.8; stroke-linecap: square"/>
     </g>
     <g id="line2d_6">
      <g>
       <use xlink:href="#mcee3b56c35" x="258.150757" y="578.54175" style="fill: #555555; stroke: #555555; stroke-width: 0.8"/>
      </g>
     </g>
     <g id="text_3">
      <!-- 2024-09 -->
      <g style="fill: #555555" transform="translate(245.329475 620.459567) rotate(-45) scale(0.1 -0.1)">
       <defs>
        <path id="DejaVuSans-39" d="M 703 97 
L 703 672 
Q 941 559 1184 500 
Q 1428 441 1663 441 
Q 2288 441 2617 861 
Q 2947 1281 2994 2138 
Q 2813 1869 2534 1725 
Q 2256 1581 1919 1581 
Q 1219 1581 811 2004 
Q 403 2428 403 3163 
Q 403 3881 828 4315 
Q 1253 4750 1959 4750 
Q 2769 4750 3195 4129 
Q 3622 3509 3622 2328 
Q 3622 1225 3098 567 
Q 2575 -91 1691 -91 
Q 1453 -91 1209 -44 
Q 966 3 703 97 
z
M 1959 2075 
Q 2384 2075 2632 2365 
Q 2881 2656 2881 3163 
Q 2881 3666 2632 3958 
Q 2384 4250 1959 4250 
Q 1534 4250 1286 3958 
Q 1038 3666 1038 3163 
Q 1038 2656 1286 2365 
Q 1534 2075 1959 2075 
z
" transform="scale(0.015625)"/>
       </defs>
       <use xlink:href="#DejaVuSans-32"/>
       <use xlink:href="#DejaVuSans-30" x="63.623047"/>
       <use xlink:href="#DejaVuSans-32" x="127.246094"/>
       <use xlink:href="#DejaVuSans-34" x="190.869141"/>
       <use xlink:href="#DejaVuSans-2d" x="254.492188"/>
       <use xlink:href="#DejaVuSans-30" x="290.576172"/>
       <use xlink:href="#DejaVuSans-39" x="354.199219"/>
      </g>
     </g>
    </g>
    <g id="xtick_4">
     <g id="line2d_7">
      <path d="M 334.020001 578.54175 
L 334.020001 24.14175 
" clip-path="url(#p4dbb448740)" style="fill: none; stroke: #ffffff; stroke-width: 0.8; stroke-linecap: square"/>
     </g>
     <g id="line2d_8">
      <g>
       <use xlink:href="#mcee3b56c35" x="334.020001" y="578.54175" style="fill: #555555; stroke: #555555; stroke-width: 0.8"/>
      </g>
     </g>
     <g id="text_4">
      <!-- 2024-10 -->
      <g style="fill: #555555" transform="translate(321.198719 620.459567) rotate(-45) scale(0.1 -0.1)">
       <defs>
        <path id="DejaVuSans-31" d="M 794 531 
L 1825 531 
L 1825 4091 
L 703 3866 
L 703 4441 
L 1819 4666 
L 2450 4666 
L 2450 531 
L 3481 531 
L 3481 0 
L 794 0 
L 794 531 
z
" transform="scale(0.015625)"/>
       </defs>
       <use xlink:href="#DejaVuSans-32"/>
       <use xlink:href="#DejaVuSans-30" x="63.623047"/>
       <use xlink:href="#DejaVuSans-32" x="127.246094"/>
       <use xlink:href="#DejaVuSans-34" x="190.869141"/>
       <use xlink:href="#DejaVuSans-2d" x="254.492188"/>
       <use xlink:href="#DejaVuSans-31" x="290.576172"/>
       <use xlink:href="#DejaVuSans-30" x="354.199219"/>
      </g>
     </g>
    </g>
    <g id="xtick_5">
     <g id="line2d_9">
      <path d="M 412.41822 578.54175 
L 412.41822 24.14175 
" clip-path="url(#p4dbb448740)" style="fill: none; stroke: #ffffff; stroke-width: 0.8; stroke-linecap: square"/>
     </g>
     <g id="line2d_10">
      <g>
       <use xlink:href="#mcee3b56c35" x="412.41822" y="578.54175" style="fill: #555555; stroke: #555555; stroke-width: 0.8"/>
      </g>
     </g>
     <g id="text_5">
      <!-- 2024-11 -->
      <g style="fill: #555555" transform="translate(399.596937 620.459567) rotate(-45) scale(0.1 -0.1)">
       <use xlink:href="#DejaVuSans-32"/>
       <use xlink:href="#DejaVuSans-30" x="63.623047"/>
       <use xlink:href="#DejaVuSans-32" x="127.246094"/>
       <use xlink:href="#DejaVuSans-34" x="190.869141"/>
       <use xlink:href="#DejaVuSans-2d" x="254.492188"/>
       <use xlink:href="#DejaVuSans-31" x="290.576172"/>
       <use xlink:href="#DejaVuSans-31" x="354.199219"/>
      </g>
     </g>
    </g>
    <g id="xtick_6">
     <g id="line2d_11">
      <path d="M 488.287463 578.54175 
L 488.287463 24.14175 
" clip-path="url(#p4dbb448740)" style="fill: none; stroke: #ffffff; stroke-width: 0.8; stroke-linecap: square"/>
     </g>
     <g id="line2d_12">
      <g>
       <use xlink:href="#mcee3b56c35" x="488.287463" y="578.54175" style="fill: #555555; stroke: #555555; stroke-width: 0.8"/>
      </g>
     </g>
     <g id="text_6">
      <!-- 2024-12 -->
      <g style="fill: #555555" transform="translate(475.466181 620.459567) rotate(-45) scale(0.1 -0.1)">
       <use xlink:href="#DejaVuSans-32"/>
       <use xlink:href="#DejaVuSans-30" x="63.623047"/>
       <use xlink:href="#DejaVuSans-32" x="127.246094"/>
       <use xlink:href="#DejaVuSans-34" x="190.869141"/>
       <use xlink:href="#DejaVuSans-2d" x="254.492188"/>
       <use xlink:href="#DejaVuSans-31" x="290.576172"/>
       <use xlink:href="#DejaVuSans-32" x="354.199219"/>
      </g>
     </g>
    </g>
    <g id="xtick_7">
     <g id="line2d_13">
      <path d="M 566.685682 578.54175 
L 566.685682 24.14175 
" clip-path="url(#p4dbb448740)" style="fill: none; stroke: #ffffff; stroke-width: 0.8; stroke-linecap: square"/>
     </g>
     <g id="line2d_14">
      <g>
       <use xlink:href="#mcee3b56c35" x="566.685682" y="578.54175" style="fill: #555555; stroke: #555555; stroke-width: 0.8"/>
      </g>
     </g>
     <g id="text_7">
      <!-- 2025-01 -->
      <g style="fill: #555555" transform="translate(553.864399 620.459567) rotate(-45) scale(0.1 -0.1)">
       <defs>
        <path id="DejaVuSans-35" d="M 691 4666 
L 3169 4666 
L 3169 4134 
L 1269 4134 
L 1269 2991 
Q 1406 3038 1543 3061 
Q 1681 3084 1819 3084 
Q 2600 3084 3056 2656 
Q 3513 2228 3513 1497 
Q 3513 744 3044 326 
Q 2575 -91 1722 -91 
Q 1428 -91 1123 -41 
Q 819 9 494 109 
L 494 744 
Q 775 591 1075 516 
Q 1375 441 1709 441 
Q 2250 441 2565 725 
Q 2881 1009 2881 1497 
Q 2881 1984 2565 2268 
Q 2250 2553 1709 2553 
Q 1456 2553 1204 2497 
Q 953 2441 691 2322 
L 691 4666 
z
" transform="scale(0.015625)"/>
       </defs>
       <use xlink:href="#DejaVuSans-32"/>
       <use xlink:href="#DejaVuSans-30" x="63.623047"/>
       <use xlink:href="#DejaVuSans-32" x="127.246094"/>
       <use xlink:href="#DejaVuSans-35" x="190.869141"/>
       <use xlink:href="#DejaVuSans-2d" x="254.492188"/>
       <use xlink:href="#DejaVuSans-30" x="290.576172"/>
       <use xlink:href="#DejaVuSans-31" x="354.199219"/>
      </g>
     </g>
    </g>
    <g id="xtick_8">
     <g id="line2d_15">
      <path d="M 645.0839 578.54175 
L 645.0839 24.14175 
" clip-path="url(#p4dbb448740)" style="fill: none; stroke: #ffffff; stroke-width: 0.8; stroke-linecap: square"/>
     </g>
     <g id="line2d_16">
      <g>
       <use xlink:href="#mcee3b56c35" x="645.0839" y="578.54175" style="fill: #555555; stroke: #555555; stroke-width: 0.8"/>
      </g>
     </g>
     <g id="text_8">
      <!-- 2025-02 -->
      <g style="fill: #555555" transform="translate(632.262618 620.459567) rotate(-45) scale(0.1 -0.1)">
       <use xlink:href="#DejaVuSans-32"/>
       <use xlink:href="#DejaVuSans-30" x="63.623047"/>
       <use xlink:href="#DejaVuSans-32" x="127.246094"/>
       <use xlink:href="#DejaVuSans-35" x="190.869141"/>
       <use xlink:href="#DejaVuSans-2d" x="254.492188"/>
       <use xlink:href="#DejaVuSans-30" x="290.576172"/>
       <use xlink:href="#DejaVuSans-32" x="354.199219"/>
      </g>
     </g>
    </g>
    <g id="xtick_9">
     <g id="line2d_17">
      <path d="M 715.895194 578.54175 
L 715.895194 24.14175 
" clip-path="url(#p4dbb448740)" style="fill: none; stroke: #ffffff; stroke-width: 0.8; stroke-linecap: square"/>
     </g>
     <g id="line2d_18">
      <g>
       <use xlink:href="#mcee3b56c35" x="715.895194" y="578.54175" style="fill: #555555; stroke: #555555; stroke-width: 0.8"/>
      </g>
     </g>
     <g id="text_9">
      <!-- 2025-03 -->
      <g style="fill: #555555" transform="translate(703.073912 620.459567) rotate(-45) scale(0.1 -0.1)">
       <defs>
        <path id="DejaVuSans-33" d="M 2597 2516 
Q 3050 2419 3304 2112 
Q 3559 1806 3559 1356 
Q 3559 666 3084 287 
Q 2609 -91 1734 -91 
Q 1441 -91 1130 -33 
Q 819 25 488 141 
L 488 750 
Q 750 597 1062 519 
Q 1375 441 1716 441 
Q 2309 441 2620 675 
Q 2931 909 2931 1356 
Q 2931 1769 2642 2001 
Q 2353 2234 1838 2234 
L 1294 2234 
L 1294 2753 
L 1863 2753 
Q 2328 2753 2575 2939 
Q 2822 3125 2822 3475 
Q 2822 3834 2567 4026 
Q 2313 4219 1838 4219 
Q 1578 4219 1281 4162 
Q 984 4106 628 3988 
L 628 4550 
Q 988 4650 1302 4700 
Q 1616 4750 1894 4750 
Q 2613 4750 3031 4423 
Q 3450 4097 3450 3541 
Q 3450 3153 3228 2886 
Q 3006 2619 2597 2516 
z
" transform="scale(0.015625)"/>
       </defs>
       <use xlink:href="#DejaVuSans-32"/>
       <use xlink:href="#DejaVuSans-30" x="63.623047"/>
       <use xlink:href="#DejaVuSans-32" x="127.246094"/>
       <use xlink:href="#DejaVuSans-35" x="190.869141"/>
       <use xlink:href="#DejaVuSans-2d" x="254.492188"/>
       <use xlink:href="#DejaVuSans-30" x="290.576172"/>
       <use xlink:href="#DejaVuSans-33" x="354.199219"/>
      </g>
     </g>
    </g>
    <g id="xtick_10">
     <g id="line2d_19">
      <path d="M 794.293413 578.54175 
L 794.293413 24.14175 
" clip-path="url(#p4dbb448740)" style="fill: none; stroke: #ffffff; stroke-width: 0.8; stroke-linecap: square"/>
     </g>
     <g id="line2d_20">
      <g>
       <use xlink:href="#mcee3b56c35" x="794.293413" y="578.54175" style="fill: #555555; stroke: #555555; stroke-width: 0.8"/>
      </g>
     </g>
     <g id="text_10">
      <!-- 2025-04 -->
      <g style="fill: #555555" transform="translate(781.472131 620.459567) rotate(-45) scale(0.1 -0.1)">
       <use xlink:href="#DejaVuSans-32"/>
       <use xlink:href="#DejaVuSans-30" x="63.623047"/>
       <use xlink:href="#DejaVuSans-32" x="127.246094"/>
       <use xlink:href="#DejaVuSans-35" x="190.869141"/>
       <use xlink:href="#DejaVuSans-2d" x="254.492188"/>
       <use xlink:href="#DejaVuSans-30" x="290.576172"/>
       <use xlink:href="#DejaVuSans-34" x="354.199219"/>
      </g>
     </g>
    </g>
    <g id="xtick_11">
     <g id="line2d_21">
      <path d="M 870.162657 578.54175 
L 870.162657 24.14175 
" clip-path="url(#p4dbb448740)" style="fill: none; stroke: #ffffff; stroke-width: 0.8; stroke-linecap: square"/>
     </g>
     <g id="line2d_22">
      <g>
       <use xlink:href="#mcee3b56c35" x="870.162657" y="578.54175" style="fill: #555555; stroke: #555555; stroke-width: 0.8"/>
      </g>
     </g>
     <g id="text_11">
      <!-- 2025-05 -->
      <g style="fill: #555555" transform="translate(857.341374 620.459567) rotate(-45) scale(0.1 -0.1)">
       <use xlink:href="#DejaVuSans-32"/>
       <use xlink:href="#DejaVuSans-30" x="63.623047"/>
       <use xlink:href="#DejaVuSans-32" x="127.246094"/>
       <use xlink:href="#DejaVuSans-35" x="190.869141"/>
       <use xlink:href="#DejaVuSans-2d" x="254.492188"/>
       <use xlink:href="#DejaVuSans-30" x="290.576172"/>
       <use xlink:href="#DejaVuSans-35" x="354.199219"/>
      </g>
     </g>
    </g>
    <g id="xtick_12">
     <g id="line2d_23">
      <path d="M 948.560875 578.54175 
L 948.560875 24.14175 
" clip-path="url(#p4dbb448740)" style="fill: none; stroke: #ffffff; stroke-width: 0.8; stroke-linecap: square"/>
     </g>
     <g id="line2d_24">
      <g>
       <use xlink:href="#mcee3b56c35" x="948.560875" y="578.54175" style="fill: #555555; stroke: #555555; stroke-width: 0.8"/>
      </g>
     </g>
     <g id="text_12">
      <!-- 2025-06 -->
      <g style="fill: #555555" transform="translate(935.739593 620.459567) rotate(-45) scale(0.1 -0.1)">
       <defs>
        <path id="DejaVuSans-36" d="M 2113 2584 
Q 1688 2584 1439 2293 
Q 1191 2003 1191 1497 
Q 1191 994 1439 701 
Q 1688 409 2113 409 
Q 2538 409 2786 701 
Q 3034 994 3034 1497 
Q 3034 2003 2786 2293 
Q 2538 2584 2113 2584 
z
M 3366 4563 
L 3366 3988 
Q 3128 4100 2886 4159 
Q 2644 4219 2406 4219 
Q 1781 4219 1451 3797 
Q 1122 3375 1075 2522 
Q 1259 2794 1537 2939 
Q 1816 3084 2150 3084 
Q 2853 3084 3261 2657 
Q 3669 2231 3669 1497 
Q 3669 778 3244 343 
Q 2819 -91 2113 -91 
Q 1303 -91 875 529 
Q 447 1150 447 2328 
Q 447 3434 972 4092 
Q 1497 4750 2381 4750 
Q 2619 4750 2861 4703 
Q 3103 4656 3366 4563 
z
" transform="scale(0.015625)"/>
       </defs>
       <use xlink:href="#DejaVuSans-32"/>
       <use xlink:href="#DejaVuSans-30" x="63.623047"/>
       <use xlink:href="#DejaVuSans-32" x="127.246094"/>
       <use xlink:href="#DejaVuSans-35" x="190.869141"/>
       <use xlink:href="#DejaVuSans-2d" x="254.492188"/>
       <use xlink:href="#DejaVuSans-30" x="290.576172"/>
       <use xlink:href="#DejaVuSans-36" x="354.199219"/>
      </g>
     </g>
    </g>
    <g id="text_13">
     <!-- Date -->
     <g style="fill: #555555" transform="translate(482.797938 635.048253) scale(0.12 -0.12)">
      <defs>
       <path id="DejaVuSans-44" d="M 1259 4147 
L 1259 519 
L 2022 519 
Q 2988 519 3436 956 
Q 3884 1394 3884 2338 
Q 3884 3275 3436 3711 
Q 2988 4147 2022 4147 
L 1259 4147 
z
M 628 4666 
L 1925 4666 
Q 3281 4666 3915 4102 
Q 4550 3538 4550 2338 
Q 4550 1131 3912 565 
Q 3275 0 1925 0 
L 628 0 
L 628 4666 
z
" transform="scale(0.015625)"/>
       <path id="DejaVuSans-61" d="M 2194 1759 
Q 1497 1759 1228 1600 
Q 959 1441 959 1056 
Q 959 750 1161 570 
Q 1363 391 1709 391 
Q 2188 391 2477 730 
Q 2766 1069 2766 1631 
L 2766 1759 
L 2194 1759 
z
M 3341 1997 
L 3341 0 
L 2766 0 
L 2766 531 
Q 2569 213 2275 61 
Q 1981 -91 1556 -91 
Q 1019 -91 701 211 
Q 384 513 384 1019 
Q 384 1609 779 1909 
Q 1175 2209 1959 2209 
L 2766 2209 
L 2766 2266 
Q 2766 2663 2505 2880 
Q 2244 3097 1772 3097 
Q 1472 3097 1187 3025 
Q 903 2953 641 2809 
L 641 3341 
Q 956 3463 1253 3523 
Q 1550 3584 1831 3584 
Q 2591 3584 2966 3190 
Q 3341 2797 3341 1997 
z
" transform="scale(0.015625)"/>
       <path id="DejaVuSans-74" d="M 1172 4494 
L 1172 3500 
L 2356 3500 
L 2356 3053 
L 1172 3053 
L 1172 1153 
Q 1172 725 1289 603 
Q 1406 481 1766 481 
L 2356 481 
L 2356 0 
L 1766 0 
Q 1100 0 847 248 
Q 594 497 594 1153 
L 594 3053 
L 172 3053 
L 172 3500 
L 594 3500 
L 594 4494 
L 1172 4494 
z
" transform="scale(0.015625)"/>
       <path id="DejaVuSans-65" d="M 3597 1894 
L 3597 1613 
L 953 1613 
Q 991 1019 1311 708 
Q 1631 397 2203 397 
Q 2534 397 2845 478 
Q 3156 559 3463 722 
L 3463 178 
Q 3153 47 2828 -22 
Q 2503 -91 2169 -91 
Q 1331 -91 842 396 
Q 353 884 353 1716 
Q 353 2575 817 3079 
Q 1281 3584 2069 3584 
Q 2775 3584 3186 3129 
Q 3597 2675 3597 1894 
z
M 3022 2063 
Q 3016 2534 2758 2815 
Q 2500 3097 2075 3097 
Q 1594 3097 1305 2825 
Q 1016 2553 972 2059 
L 3022 2063 
z
" transform="scale(0.015625)"/>
      </defs>
      <use xlink:href="#DejaVuSans-44"/>
      <use xlink:href="#DejaVuSans-61" x="77.001953"/>
      <use xlink:href="#DejaVuSans-74" x="138.28125"/>
      <use xlink:href="#DejaVuSans-65" x="177.490234"/>
     </g>
    </g>
   </g>
   <g id="matplotlib.axis_2">
    <g id="ytick_1">
     <g id="line2d_25">
      <path d="M 45.716875 578.54175 
L 948.560875 578.54175 
" clip-path="url(#p4dbb448740)" style="fill: none; stroke: #ffffff; stroke-width: 0.8; stroke-linecap: square"/>
     </g>
     <g id="line2d_26">
      <defs>
       <path id="m3fed810055" d="M 0 0 
L -3.5 0 
" style="stroke: #555555; stroke-width: 0.8"/>
      </defs>
      <g>
       <use xlink:href="#m3fed810055" x="45.716875" y="578.54175" style="fill: #555555; stroke: #555555; stroke-width: 0.8"/>
      </g>
     </g>
     <g id="text_14">
      <!-- 0.0 -->
      <g style="fill: #555555" transform="translate(22.81375 582.340969) scale(0.1 -0.1)">
       <defs>
        <path id="DejaVuSans-2e" d="M 684 794 
L 1344 794 
L 1344 0 
L 684 0 
L 684 794 
z
" transform="scale(0.015625)"/>
       </defs>
       <use xlink:href="#DejaVuSans-30"/>
       <use xlink:href="#DejaVuSans-2e" x="63.623047"/>
       <use xlink:href="#DejaVuSans-30" x="95.410156"/>
      </g>
     </g>
    </g>
    <g id="ytick_2">
     <g id="line2d_27">
      <path d="M 45.716875 464.293975 
L 948.560875 464.293975 
" clip-path="url(#p4dbb448740)" style="fill: none; stroke: #ffffff; stroke-width: 0.8; stroke-linecap: square"/>
     </g>
     <g id="line2d_28">
      <g>
       <use xlink:href="#m3fed810055" x="45.716875" y="464.293975" style="fill: #555555; stroke: #555555; stroke-width: 0.8"/>
      </g>
     </g>
     <g id="text_15">
      <!-- 0.2 -->
      <g style="fill: #555555" transform="translate(22.81375 468.093194) scale(0.1 -0.1)">
       <use xlink:href="#DejaVuSans-30"/>
       <use xlink:href="#DejaVuSans-2e" x="63.623047"/>
       <use xlink:href="#DejaVuSans-32" x="95.410156"/>
      </g>
     </g>
    </g>
    <g id="ytick_3">
     <g id="line2d_29">
      <path d="M 45.716875 350.046201 
L 948.560875 350.046201 
" clip-path="url(#p4dbb448740)" style="fill: none; stroke: #ffffff; stroke-width: 0.8; stroke-linecap: square"/>
     </g>
     <g id="line2d_30">
      <g>
       <use xlink:href="#m3fed810055" x="45.716875" y="350.046201" style="fill: #555555; stroke: #555555; stroke-width: 0.8"/>
      </g>
     </g>
     <g id="text_16">
      <!-- 0.4 -->
      <g style="fill: #555555" transform="translate(22.81375 353.845419) scale(0.1 -0.1)">
       <use xlink:href="#DejaVuSans-30"/>
       <use xlink:href="#DejaVuSans-2e" x="63.623047"/>
       <use xlink:href="#DejaVuSans-34" x="95.410156"/>
      </g>
     </g>
    </g>
    <g id="ytick_4">
     <g id="line2d_31">
      <path d="M 45.716875 235.798426 
L 948.560875 235.798426 
" clip-path="url(#p4dbb448740)" style="fill: none; stroke: #ffffff; stroke-width: 0.8; stroke-linecap: square"/>
     </g>
     <g id="line2d_32">
      <g>
       <use xlink:href="#m3fed810055" x="45.716875" y="235.798426" style="fill: #555555; stroke: #555555; stroke-width: 0.8"/>
      </g>
     </g>
     <g id="text_17">
      <!-- 0.6 -->
      <g style="fill: #555555" transform="translate(22.81375 239.597645) scale(0.1 -0.1)">
       <use xlink:href="#DejaVuSans-30"/>
       <use xlink:href="#DejaVuSans-2e" x="63.623047"/>
       <use xlink:href="#DejaVuSans-36" x="95.410156"/>
      </g>
     </g>
    </g>
    <g id="ytick_5">
     <g id="line2d_33">
      <path d="M 45.716875 121.550651 
L 948.560875 121.550651 
" clip-path="url(#p4dbb448740)" style="fill: none; stroke: #ffffff; stroke-width: 0.8; stroke-linecap: square"/>
     </g>
     <g id="line2d_34">
      <g>
       <use xlink:href="#m3fed810055" x="45.716875" y="121.550651" style="fill: #555555; stroke: #555555; stroke-width: 0.8"/>
      </g>
     </g>
     <g id="text_18">
      <!-- 0.8 -->
      <g style="fill: #555555" transform="translate(22.81375 125.34987) scale(0.1 -0.1)">
       <use xlink:href="#DejaVuSans-30"/>
       <use xlink:href="#DejaVuSans-2e" x="63.623047"/>
       <use xlink:href="#DejaVuSans-38" x="95.410156"/>
      </g>
     </g>
    </g>
    <g id="text_19">
     <!-- Share of Instances -->
     <g style="fill: #555555" transform="translate(16.318125 356.897063) rotate(-90) scale(0.12 -0.12)">
      <defs>
       <path id="DejaVuSans-53" d="M 3425 4513 
L 3425 3897 
Q 3066 4069 2747 4153 
Q 2428 4238 2131 4238 
Q 1616 4238 1336 4038 
Q 1056 3838 1056 3469 
Q 1056 3159 1242 3001 
Q 1428 2844 1947 2747 
L 2328 2669 
Q 3034 2534 3370 2195 
Q 3706 1856 3706 1288 
Q 3706 609 3251 259 
Q 2797 -91 1919 -91 
Q 1588 -91 1214 -16 
Q 841 59 441 206 
L 441 856 
Q 825 641 1194 531 
Q 1563 422 1919 422 
Q 2459 422 2753 634 
Q 3047 847 3047 1241 
Q 3047 1584 2836 1778 
Q 2625 1972 2144 2069 
L 1759 2144 
Q 1053 2284 737 2584 
Q 422 2884 422 3419 
Q 422 4038 858 4394 
Q 1294 4750 2059 4750 
Q 2388 4750 2728 4690 
Q 3069 4631 3425 4513 
z
" transform="scale(0.015625)"/>
       <path id="DejaVuSans-68" d="M 3513 2113 
L 3513 0 
L 2938 0 
L 2938 2094 
Q 2938 2591 2744 2837 
Q 2550 3084 2163 3084 
Q 1697 3084 1428 2787 
Q 1159 2491 1159 1978 
L 1159 0 
L 581 0 
L 581 4863 
L 1159 4863 
L 1159 2956 
Q 1366 3272 1645 3428 
Q 1925 3584 2291 3584 
Q 2894 3584 3203 3211 
Q 3513 2838 3513 2113 
z
" transform="scale(0.015625)"/>
       <path id="DejaVuSans-72" d="M 2631 2963 
Q 2534 3019 2420 3045 
Q 2306 3072 2169 3072 
Q 1681 3072 1420 2755 
Q 1159 2438 1159 1844 
L 1159 0 
L 581 0 
L 581 3500 
L 1159 3500 
L 1159 2956 
Q 1341 3275 1631 3429 
Q 1922 3584 2338 3584 
Q 2397 3584 2469 3576 
Q 2541 3569 2628 3553 
L 2631 2963 
z
" transform="scale(0.015625)"/>
       <path id="DejaVuSans-20" transform="scale(0.015625)"/>
       <path id="DejaVuSans-6f" d="M 1959 3097 
Q 1497 3097 1228 2736 
Q 959 2375 959 1747 
Q 959 1119 1226 758 
Q 1494 397 1959 397 
Q 2419 397 2687 759 
Q 2956 1122 2956 1747 
Q 2956 2369 2687 2733 
Q 2419 3097 1959 3097 
z
M 1959 3584 
Q 2709 3584 3137 3096 
Q 3566 2609 3566 1747 
Q 3566 888 3137 398 
Q 2709 -91 1959 -91 
Q 1206 -91 779 398 
Q 353 888 353 1747 
Q 353 2609 779 3096 
Q 1206 3584 1959 3584 
z
" transform="scale(0.015625)"/>
       <path id="DejaVuSans-66" d="M 2375 4863 
L 2375 4384 
L 1825 4384 
Q 1516 4384 1395 4259 
Q 1275 4134 1275 3809 
L 1275 3500 
L 2222 3500 
L 2222 3053 
L 1275 3053 
L 1275 0 
L 697 0 
L 697 3053 
L 147 3053 
L 147 3500 
L 697 3500 
L 697 3744 
Q 697 4328 969 4595 
Q 1241 4863 1831 4863 
L 2375 4863 
z
" transform="scale(0.015625)"/>
       <path id="DejaVuSans-49" d="M 628 4666 
L 1259 4666 
L 1259 0 
L 628 0 
L 628 4666 
z
" transform="scale(0.015625)"/>
       <path id="DejaVuSans-6e" d="M 3513 2113 
L 3513 0 
L 2938 0 
L 2938 2094 
Q 2938 2591 2744 2837 
Q 2550 3084 2163 3084 
Q 1697 3084 1428 2787 
Q 1159 2491 1159 1978 
L 1159 0 
L 581 0 
L 581 3500 
L 1159 3500 
L 1159 2956 
Q 1366 3272 1645 3428 
Q 1925 3584 2291 3584 
Q 2894 3584 3203 3211 
Q 3513 2838 3513 2113 
z
" transform="scale(0.015625)"/>
       <path id="DejaVuSans-73" d="M 2834 3397 
L 2834 2853 
Q 2591 2978 2328 3040 
Q 2066 3103 1784 3103 
Q 1356 3103 1142 2972 
Q 928 2841 928 2578 
Q 928 2378 1081 2264 
Q 1234 2150 1697 2047 
L 1894 2003 
Q 2506 1872 2764 1633 
Q 3022 1394 3022 966 
Q 3022 478 2636 193 
Q 2250 -91 1575 -91 
Q 1294 -91 989 -36 
Q 684 19 347 128 
L 347 722 
Q 666 556 975 473 
Q 1284 391 1588 391 
Q 1994 391 2212 530 
Q 2431 669 2431 922 
Q 2431 1156 2273 1281 
Q 2116 1406 1581 1522 
L 1381 1569 
Q 847 1681 609 1914 
Q 372 2147 372 2553 
Q 372 3047 722 3315 
Q 1072 3584 1716 3584 
Q 2034 3584 2315 3537 
Q 2597 3491 2834 3397 
z
" transform="scale(0.015625)"/>
       <path id="DejaVuSans-63" d="M 3122 3366 
L 3122 2828 
Q 2878 2963 2633 3030 
Q 2388 3097 2138 3097 
Q 1578 3097 1268 2742 
Q 959 2388 959 1747 
Q 959 1106 1268 751 
Q 1578 397 2138 397 
Q 2388 397 2633 464 
Q 2878 531 3122 666 
L 3122 134 
Q 2881 22 2623 -34 
Q 2366 -91 2075 -91 
Q 1284 -91 818 406 
Q 353 903 353 1747 
Q 353 2603 823 3093 
Q 1294 3584 2113 3584 
Q 2378 3584 2631 3529 
Q 2884 3475 3122 3366 
z
" transform="scale(0.015625)"/>
      </defs>
      <use xlink:href="#DejaVuSans-53"/>
      <use xlink:href="#DejaVuSans-68" x="63.476562"/>
      <use xlink:href="#DejaVuSans-61" x="126.855469"/>
      <use xlink:href="#DejaVuSans-72" x="188.134766"/>
      <use xlink:href="#DejaVuSans-65" x="226.998047"/>
      <use xlink:href="#DejaVuSans-20" x="288.521484"/>
      <use xlink:href="#DejaVuSans-6f" x="320.308594"/>
      <use xlink:href="#DejaVuSans-66" x="381.490234"/>
      <use xlink:href="#DejaVuSans-20" x="416.695312"/>
      <use xlink:href="#DejaVuSans-49" x="448.482422"/>
      <use xlink:href="#DejaVuSans-6e" x="477.974609"/>
      <use xlink:href="#DejaVuSans-73" x="541.353516"/>
      <use xlink:href="#DejaVuSans-74" x="593.453125"/>
      <use xlink:href="#DejaVuSans-61" x="632.662109"/>
      <use xlink:href="#DejaVuSans-6e" x="693.941406"/>
      <use xlink:href="#DejaVuSans-63" x="757.320312"/>
      <use xlink:href="#DejaVuSans-65" x="812.300781"/>
      <use xlink:href="#DejaVuSans-73" x="873.824219"/>
     </g>
    </g>
   </g>
   <g id="PolyCollection_1">
    <path d="M 45.716875 395.071628 
L 45.716875 578.54175 
L 63.419699 578.54175 
L 81.122522 578.54175 
L 98.825346 578.54175 
L 116.528169 578.54175 
L 134.230993 578.54175 
L 151.933816 578.54175 
L 169.63664 578.54175 
L 187.339463 578.54175 
L 205.042287 578.54175 
L 222.74511 578.54175 
L 240.447934 578.54175 
L 258.150757 578.54175 
L 275.853581 578.54175 
L 293.556404 578.54175 
L 311.259228 578.54175 
L 328.962051 578.54175 
L 346.664875 578.54175 
L 364.367699 578.54175 
L 382.070522 578.54175 
L 399.773346 578.54175 
L 417.476169 578.54175 
L 435.178993 578.54175 
L 452.881816 578.54175 
L 470.58464 578.54175 
L 488.287463 578.54175 
L 505.990287 578.54175 
L 523.69311 578.54175 
L 541.395934 578.54175 
L 559.098757 578.54175 
L 576.801581 578.54175 
L 594.504404 578.54175 
L 612.207228 578.54175 
L 629.910051 578.54175 
L 647.612875 578.54175 
L 665.315699 578.54175 
L 683.018522 578.54175 
L 700.721346 578.54175 
L 718.424169 578.54175 
L 736.126993 578.54175 
L 753.829816 578.54175 
L 771.53264 578.54175 
L 789.235463 578.54175 
L 806.938287 578.54175 
L 824.64111 578.54175 
L 842.343934 578.54175 
L 860.046757 578.54175 
L 877.749581 578.54175 
L 895.452404 578.54175 
L 913.155228 578.54175 
L 930.858051 578.54175 
L 948.560875 578.54175 
L 948.560875 379.618507 
L 948.560875 379.618507 
L 930.858051 377.898739 
L 913.155228 378.814978 
L 895.452404 376.723617 
L 877.749581 372.279269 
L 860.046757 375.151961 
L 842.343934 375.673009 
L 824.64111 373.999276 
L 806.938287 374.050373 
L 789.235463 374.594427 
L 771.53264 374.991723 
L 753.829816 376.759459 
L 736.126993 375.257857 
L 718.424169 376.549129 
L 700.721346 375.138302 
L 683.018522 373.907561 
L 665.315699 376.560139 
L 647.612875 376.394811 
L 629.910051 376.919509 
L 612.207228 377.596198 
L 594.504404 379.177376 
L 576.801581 379.868272 
L 559.098757 380.370746 
L 541.395934 377.736402 
L 523.69311 377.767751 
L 505.990287 379.72282 
L 488.287463 381.484089 
L 470.58464 379.467266 
L 452.881816 379.702329 
L 435.178993 379.131513 
L 417.476169 378.987069 
L 399.773346 379.784516 
L 382.070522 380.355555 
L 364.367699 382.117811 
L 346.664875 386.086776 
L 328.962051 384.379103 
L 311.259228 387.411026 
L 293.556404 387.559037 
L 275.853581 389.439674 
L 258.150757 389.21977 
L 240.447934 392.082801 
L 222.74511 389.94027 
L 205.042287 392.071644 
L 187.339463 393.186488 
L 169.63664 395.026444 
L 151.933816 393.187772 
L 134.230993 392.208574 
L 116.528169 394.327992 
L 98.825346 393.280306 
L 81.122522 390.916859 
L 63.419699 391.139327 
L 45.716875 395.071628 
z
" clip-path="url(#p4dbb448740)" style="fill: #48b585"/>
   </g>
   <g id="PolyCollection_2">
    <path d="M 45.716875 298.987595 
L 45.716875 395.071628 
L 63.419699 391.139327 
L 81.122522 390.916859 
L 98.825346 393.280306 
L 116.528169 394.327992 
L 134.230993 392.208574 
L 151.933816 393.187772 
L 169.63664 395.026444 
L 187.339463 393.186488 
L 205.042287 392.071644 
L 222.74511 389.94027 
L 240.447934 392.082801 
L 258.150757 389.21977 
L 275.853581 389.439674 
L 293.556404 387.559037 
L 311.259228 387.411026 
L 328.962051 384.379103 
L 346.664875 386.086776 
L 364.367699 382.117811 
L 382.070522 380.355555 
L 399.773346 379.784516 
L 417.476169 378.987069 
L 435.178993 379.131513 
L 452.881816 379.702329 
L 470.58464 379.467266 
L 488.287463 381.484089 
L 505.990287 379.72282 
L 523.69311 377.767751 
L 541.395934 377.736402 
L 559.098757 380.370746 
L 576.801581 379.868272 
L 594.504404 379.177376 
L 612.207228 377.596198 
L 629.910051 376.919509 
L 647.612875 376.394811 
L 665.315699 376.560139 
L 683.018522 373.907561 
L 700.721346 375.138302 
L 718.424169 376.549129 
L 736.126993 375.257857 
L 753.829816 376.759459 
L 771.53264 374.991723 
L 789.235463 374.594427 
L 806.938287 374.050373 
L 824.64111 373.999276 
L 842.343934 375.673009 
L 860.046757 375.151961 
L 877.749581 372.279269 
L 895.452404 376.723617 
L 913.155228 378.814978 
L 930.858051 377.898739 
L 948.560875 379.618507 
L 948.560875 292.144317 
L 948.560875 292.144317 
L 930.858051 289.022383 
L 913.155228 290.481208 
L 895.452404 287.682319 
L 877.749581 283.202071 
L 860.046757 286.113231 
L 842.343934 286.863715 
L 824.64111 284.829091 
L 806.938287 285.474546 
L 789.235463 285.738887 
L 771.53264 285.069834 
L 753.829816 287.092325 
L 736.126993 284.793931 
L 718.424169 286.053842 
L 700.721346 284.079694 
L 683.018522 283.80379 
L 665.315699 286.338969 
L 647.612875 285.19962 
L 629.910051 286.782348 
L 612.207228 286.102439 
L 594.504404 287.400679 
L 576.801581 289.391126 
L 559.098757 289.893868 
L 541.395934 285.360054 
L 523.69311 284.428488 
L 505.990287 285.681993 
L 488.287463 287.534952 
L 470.58464 284.979353 
L 452.881816 284.435567 
L 435.178993 284.568551 
L 417.476169 283.204344 
L 399.773346 282.921277 
L 382.070522 284.094994 
L 364.367699 285.838162 
L 346.664875 287.097666 
L 328.962051 288.646996 
L 311.259228 289.95961 
L 293.556404 289.597642 
L 275.853581 290.101854 
L 258.150757 289.833211 
L 240.447934 290.526704 
L 222.74511 289.094723 
L 205.042287 291.330044 
L 187.339463 291.374847 
L 169.63664 295.145879 
L 151.933816 294.880498 
L 134.230993 294.045744 
L 116.528169 296.912227 
L 98.825346 294.744578 
L 81.122522 287.692154 
L 63.419699 291.347892 
L 45.716875 298.987595 
z
" clip-path="url(#p4dbb448740)" style="fill: #e2321d"/>
   </g>
   <g id="PolyCollection_3">
    <path d="M 45.716875 247.24815 
L 45.716875 298.987595 
L 63.419699 291.347892 
L 81.122522 287.692154 
L 98.825346 294.744578 
L 116.528169 296.912227 
L 134.230993 294.045744 
L 151.933816 294.880498 
L 169.63664 295.145879 
L 187.339463 291.374847 
L 205.042287 291.330044 
L 222.74511 289.094723 
L 240.447934 290.526704 
L 258.150757 289.833211 
L 275.853581 290.101854 
L 293.556404 289.597642 
L 311.259228 289.95961 
L 328.962051 288.646996 
L 346.664875 287.097666 
L 364.367699 285.838162 
L 382.070522 284.094994 
L 399.773346 282.921277 
L 417.476169 283.204344 
L 435.178993 284.568551 
L 452.881816 284.435567 
L 470.58464 284.979353 
L 488.287463 287.534952 
L 505.990287 285.681993 
L 523.69311 284.428488 
L 541.395934 285.360054 
L 559.098757 289.893868 
L 576.801581 289.391126 
L 594.504404 287.400679 
L 612.207228 286.102439 
L 629.910051 286.782348 
L 647.612875 285.19962 
L 665.315699 286.338969 
L 683.018522 283.80379 
L 700.721346 284.079694 
L 718.424169 286.053842 
L 736.126993 284.793931 
L 753.829816 287.092325 
L 771.53264 285.069834 
L 789.235463 285.738887 
L 806.938287 285.474546 
L 824.64111 284.829091 
L 842.343934 286.863715 
L 860.046757 286.113231 
L 877.749581 283.202071 
L 895.452404 287.682319 
L 913.155228 290.481208 
L 930.858051 289.022383 
L 948.560875 292.144317 
L 948.560875 237.514269 
L 948.560875 237.514269 
L 930.858051 235.94218 
L 913.155228 236.159154 
L 895.452404 232.311664 
L 877.749581 228.311351 
L 860.046757 231.100962 
L 842.343934 231.767988 
L 824.64111 230.686837 
L 806.938287 231.183843 
L 789.235463 231.533824 
L 771.53264 229.670897 
L 753.829816 232.796935 
L 736.126993 229.821731 
L 718.424169 232.056506 
L 700.721346 230.567467 
L 683.018522 230.63016 
L 665.315699 232.171459 
L 647.612875 232.306185 
L 629.910051 233.992091 
L 612.207228 233.156735 
L 594.504404 233.833206 
L 576.801581 235.759315 
L 559.098757 236.601349 
L 541.395934 233.475023 
L 523.69311 232.877307 
L 505.990287 233.852325 
L 488.287463 235.080453 
L 470.58464 233.27915 
L 452.881816 233.073477 
L 435.178993 233.865651 
L 417.476169 232.96062 
L 399.773346 233.667125 
L 382.070522 235.123796 
L 364.367699 237.150761 
L 346.664875 237.471214 
L 328.962051 239.257923 
L 311.259228 240.877294 
L 293.556404 240.084462 
L 275.853581 240.876376 
L 258.150757 239.371885 
L 240.447934 242.23314 
L 222.74511 241.924951 
L 205.042287 243.670956 
L 187.339463 241.188765 
L 169.63664 244.45745 
L 151.933816 242.871291 
L 134.230993 243.155399 
L 116.528169 246.757407 
L 98.825346 245.890083 
L 81.122522 242.660281 
L 63.419699 249.0456 
L 45.716875 247.24815 
z
" clip-path="url(#p4dbb448740)" style="fill: #9a5689"/>
   </g>
   <g id="PolyCollection_4">
    <path d="M 45.716875 106.860869 
L 45.716875 247.24815 
L 63.419699 249.0456 
L 81.122522 242.660281 
L 98.825346 245.890083 
L 116.528169 246.757407 
L 134.230993 243.155399 
L 151.933816 242.871291 
L 169.63664 244.45745 
L 187.339463 241.188765 
L 205.042287 243.670956 
L 222.74511 241.924951 
L 240.447934 242.23314 
L 258.150757 239.371885 
L 275.853581 240.876376 
L 293.556404 240.084462 
L 311.259228 240.877294 
L 328.962051 239.257923 
L 346.664875 237.471214 
L 364.367699 237.150761 
L 382.070522 235.123796 
L 399.773346 233.667125 
L 417.476169 232.96062 
L 435.178993 233.865651 
L 452.881816 233.073477 
L 470.58464 233.27915 
L 488.287463 235.080453 
L 505.990287 233.852325 
L 523.69311 232.877307 
L 541.395934 233.475023 
L 559.098757 236.601349 
L 576.801581 235.759315 
L 594.504404 233.833206 
L 612.207228 233.156735 
L 629.910051 233.992091 
L 647.612875 232.306185 
L 665.315699 232.171459 
L 683.018522 230.63016 
L 700.721346 230.567467 
L 718.424169 232.056506 
L 736.126993 229.821731 
L 753.829816 232.796935 
L 771.53264 229.670897 
L 789.235463 231.533824 
L 806.938287 231.183843 
L 824.64111 230.686837 
L 842.343934 231.767988 
L 860.046757 231.100962 
L 877.749581 228.311351 
L 895.452404 232.311664 
L 913.155228 236.159154 
L 930.858051 235.94218 
L 948.560875 237.514269 
L 948.560875 74.226509 
L 948.560875 74.226509 
L 930.858051 72.781611 
L 913.155228 73.486934 
L 895.452404 72.308271 
L 877.749581 74.745917 
L 860.046757 77.681783 
L 842.343934 78.402519 
L 824.64111 80.926755 
L 806.938287 81.001415 
L 789.235463 80.306907 
L 771.53264 80.686119 
L 753.829816 81.572563 
L 736.126993 81.222768 
L 718.424169 82.777345 
L 700.721346 81.716498 
L 683.018522 82.825349 
L 665.315699 83.152269 
L 647.612875 82.690545 
L 629.910051 84.937979 
L 612.207228 84.604511 
L 594.504404 85.342376 
L 576.801581 84.973709 
L 559.098757 85.456003 
L 541.395934 87.078839 
L 523.69311 86.451611 
L 505.990287 87.212662 
L 488.287463 85.894971 
L 470.58464 86.620463 
L 452.881816 86.758156 
L 435.178993 88.270131 
L 417.476169 88.171476 
L 399.773346 88.459089 
L 382.070522 89.430045 
L 364.367699 91.099153 
L 346.664875 89.56596 
L 328.962051 93.163241 
L 311.259228 94.466443 
L 293.556404 93.929636 
L 275.853581 93.977204 
L 258.150757 92.9259 
L 240.447934 97.211711 
L 222.74511 96.881043 
L 205.042287 95.204173 
L 187.339463 95.53574 
L 169.63664 98.408139 
L 151.933816 97.088872 
L 134.230993 97.673323 
L 116.528169 100.763616 
L 98.825346 101.793873 
L 81.122522 102.608211 
L 63.419699 104.058226 
L 45.716875 106.860869 
z
" clip-path="url(#p4dbb448740)" style="fill: #4ac1fa"/>
   </g>
   <g id="PolyCollection_5">
    <path d="M 45.716875 82.987624 
L 45.716875 106.860869 
L 63.419699 104.058226 
L 81.122522 102.608211 
L 98.825346 101.793873 
L 116.528169 100.763616 
L 134.230993 97.673323 
L 151.933816 97.088872 
L 169.63664 98.408139 
L 187.339463 95.53574 
L 205.042287 95.204173 
L 222.74511 96.881043 
L 240.447934 97.211711 
L 258.150757 92.9259 
L 275.853581 93.977204 
L 293.556404 93.929636 
L 311.259228 94.466443 
L 328.962051 93.163241 
L 346.664875 89.56596 
L 364.367699 91.099153 
L 382.070522 89.430045 
L 399.773346 88.459089 
L 417.476169 88.171476 
L 435.178993 88.270131 
L 452.881816 86.758156 
L 470.58464 86.620463 
L 488.287463 85.894971 
L 505.990287 87.212662 
L 523.69311 86.451611 
L 541.395934 87.078839 
L 559.098757 85.456003 
L 576.801581 84.973709 
L 594.504404 85.342376 
L 612.207228 84.604511 
L 629.910051 84.937979 
L 647.612875 82.690545 
L 665.315699 83.152269 
L 683.018522 82.825349 
L 700.721346 81.716498 
L 718.424169 82.777345 
L 736.126993 81.222768 
L 753.829816 81.572563 
L 771.53264 80.686119 
L 789.235463 80.306907 
L 806.938287 81.001415 
L 824.64111 80.926755 
L 842.343934 78.402519 
L 860.046757 77.681783 
L 877.749581 74.745917 
L 895.452404 72.308271 
L 913.155228 73.486934 
L 930.858051 72.781611 
L 948.560875 74.226509 
L 948.560875 53.511291 
L 948.560875 53.511291 
L 930.858051 51.733522 
L 913.155228 52.558062 
L 895.452404 51.236486 
L 877.749581 53.614993 
L 860.046757 55.618673 
L 842.343934 57.714347 
L 824.64111 60.430494 
L 806.938287 60.353367 
L 789.235463 59.932521 
L 771.53264 59.849791 
L 753.829816 60.085991 
L 736.126993 59.954183 
L 718.424169 61.556586 
L 700.721346 61.039402 
L 683.018522 61.963571 
L 665.315699 61.885449 
L 647.612875 61.959517 
L 629.910051 64.455625 
L 612.207228 63.428278 
L 594.504404 64.558922 
L 576.801581 64.819539 
L 559.098757 65.426301 
L 541.395934 65.632333 
L 523.69311 65.147265 
L 505.990287 64.923577 
L 488.287463 62.560172 
L 470.58464 65.056894 
L 452.881816 64.85964 
L 435.178993 66.068374 
L 417.476169 65.97334 
L 399.773346 67.084297 
L 382.070522 68.001464 
L 364.367699 69.230605 
L 346.664875 67.614557 
L 328.962051 70.692394 
L 311.259228 72.287946 
L 293.556404 71.322163 
L 275.853581 71.044093 
L 258.150757 70.30261 
L 240.447934 74.430584 
L 222.74511 74.128622 
L 205.042287 71.945168 
L 187.339463 72.57743 
L 169.63664 74.815643 
L 151.933816 73.682785 
L 134.230993 74.735211 
L 116.528169 77.725127 
L 98.825346 78.178015 
L 81.122522 79.427247 
L 63.419699 80.389887 
L 45.716875 82.987624 
z
" clip-path="url(#p4dbb448740)" style="fill: #be503b"/>
   </g>
   <g id="PolyCollection_6">
    <path d="M 45.716875 24.14175 
L 45.716875 82.987624 
L 63.419699 80.389887 
L 81.122522 79.427247 
L 98.825346 78.178015 
L 116.528169 77.725127 
L 134.230993 74.735211 
L 151.933816 73.682785 
L 169.63664 74.815643 
L 187.339463 72.57743 
L 205.042287 71.945168 
L 222.74511 74.128622 
L 240.447934 74.430584 
L 258.150757 70.30261 
L 275.853581 71.044093 
L 293.556404 71.322163 
L 311.259228 72.287946 
L 328.962051 70.692394 
L 346.664875 67.614557 
L 364.367699 69.230605 
L 382.070522 68.001464 
L 399.773346 67.084297 
L 417.476169 65.97334 
L 435.178993 66.068374 
L 452.881816 64.85964 
L 470.58464 65.056894 
L 488.287463 62.560172 
L 505.990287 64.923577 
L 523.69311 65.147265 
L 541.395934 65.632333 
L 559.098757 65.426301 
L 576.801581 64.819539 
L 594.504404 64.558922 
L 612.207228 63.428278 
L 629.910051 64.455625 
L 647.612875 61.959517 
L 665.315699 61.885449 
L 683.018522 61.963571 
L 700.721346 61.039402 
L 718.424169 61.556586 
L 736.126993 59.954183 
L 753.829816 60.085991 
L 771.53264 59.849791 
L 789.235463 59.932521 
L 806.938287 60.353367 
L 824.64111 60.430494 
L 842.343934 57.714347 
L 860.046757 55.618673 
L 877.749581 53.614993 
L 895.452404 51.236486 
L 913.155228 52.558062 
L 930.858051 51.733522 
L 948.560875 53.511291 
L 948.560875 24.884608 
L 948.560875 24.884608 
L 930.858051 25.007481 
L 913.155228 25.221607 
L 895.452404 24.909685 
L 877.749581 25.205309 
L 860.046757 25.183582 
L 842.343934 25.467731 
L 824.64111 25.054668 
L 806.938287 24.94857 
L 789.235463 25.016043 
L 771.53264 24.717971 
L 753.829816 25.074805 
L 736.126993 24.798783 
L 718.424169 24.722898 
L 700.721346 24.943654 
L 683.018522 24.817812 
L 665.315699 24.708379 
L 647.612875 24.763296 
L 629.910051 24.687992 
L 612.207228 24.724723 
L 594.504404 24.81894 
L 576.801581 25.411715 
L 559.098757 25.413532 
L 541.395934 24.608316 
L 523.69311 24.540284 
L 505.990287 24.562853 
L 488.287463 24.804208 
L 470.58464 24.480655 
L 452.881816 24.567171 
L 435.178993 24.507494 
L 417.476169 24.543717 
L 399.773346 24.425756 
L 382.070522 24.556129 
L 364.367699 24.806123 
L 346.664875 25.327524 
L 328.962051 25.029973 
L 311.259228 25.149252 
L 293.556404 25.115536 
L 275.853581 25.24755 
L 258.150757 24.96153 
L 240.447934 24.753791 
L 222.74511 24.92097 
L 205.042287 25.169024 
L 187.339463 24.910617 
L 169.63664 24.893792 
L 151.933816 25.003881 
L 134.230993 24.835215 
L 116.528169 24.879405 
L 98.825346 24.897968 
L 81.122522 24.636196 
L 63.419699 25.355383 
L 45.716875 24.14175 
z
" clip-path="url(#p4dbb448740)" style="fill: #e9a942"/>
   </g>
   <g id="patch_3">
    <path d="M 45.716875 578.54175 
L 45.716875 24.14175 
" style="fill: none; stroke: #ffffff; stroke-linejoin: miter; stroke-linecap: square"/>
   </g>
   <g id="patch_4">
    <path d="M 948.560875 578.54175 
L 948.560875 24.14175 
" style="fill: none; stroke: #ffffff; stroke-linejoin: miter; stroke-linecap: square"/>
   </g>
   <g id="patch_5">
    <path d="M 45.716875 578.54175 
L 948.560875 578.54175 
" style="fill: none; stroke: #ffffff; stroke-linejoin: miter; stroke-linecap: square"/>
   </g>
   <g id="patch_6">
    <path d="M 45.716875 24.14175 
L 948.560875 24.14175 
" style="fill: none; stroke: #ffffff; stroke-linejoin: miter; stroke-linecap: square"/>
   </g>
   <g id="text_20">
    <!-- Enterprise Linux Instances by Distribution Share -->
    <g transform="translate(45.716875 18.14175) scale(0.144 -0.144)">
     <defs>
      <path id="DejaVuSans-45" d="M 628 4666 
L 3578 4666 
L 3578 4134 
L 1259 4134 
L 1259 2753 
L 3481 2753 
L 3481 2222 
L 1259 2222 
L 1259 531 
L 3634 531 
L 3634 0 
L 628 0 
L 628 4666 
z
" transform="scale(0.015625)"/>
      <path id="DejaVuSans-70" d="M 1159 525 
L 1159 -1331 
L 581 -1331 
L 581 3500 
L 1159 3500 
L 1159 2969 
Q 1341 3281 1617 3432 
Q 1894 3584 2278 3584 
Q 2916 3584 3314 3078 
Q 3713 2572 3713 1747 
Q 3713 922 3314 415 
Q 2916 -91 2278 -91 
Q 1894 -91 1617 61 
Q 1341 213 1159 525 
z
M 3116 1747 
Q 3116 2381 2855 2742 
Q 2594 3103 2138 3103 
Q 1681 3103 1420 2742 
Q 1159 2381 1159 1747 
Q 1159 1113 1420 752 
Q 1681 391 2138 391 
Q 2594 391 2855 752 
Q 3116 1113 3116 1747 
z
" transform="scale(0.015625)"/>
      <path id="DejaVuSans-69" d="M 603 3500 
L 1178 3500 
L 1178 0 
L 603 0 
L 603 3500 
z
M 603 4863 
L 1178 4863 
L 1178 4134 
L 603 4134 
L 603 4863 
z
" transform="scale(0.015625)"/>
      <path id="DejaVuSans-4c" d="M 628 4666 
L 1259 4666 
L 1259 531 
L 3531 531 
L 3531 0 
L 628 0 
L 628 4666 
z
" transform="scale(0.015625)"/>
      <path id="DejaVuSans-75" d="M 544 1381 
L 544 3500 
L 1119 3500 
L 1119 1403 
Q 1119 906 1312 657 
Q 1506 409 1894 409 
Q 2359 409 2629 706 
Q 2900 1003 2900 1516 
L 2900 3500 
L 3475 3500 
L 3475 0 
L 2900 0 
L 2900 538 
Q 2691 219 2414 64 
Q 2138 -91 1772 -91 
Q 1169 -91 856 284 
Q 544 659 544 1381 
z
M 1991 3584 
L 1991 3584 
z
" transform="scale(0.015625)"/>
      <path id="DejaVuSans-78" d="M 3513 3500 
L 2247 1797 
L 3578 0 
L 2900 0 
L 1881 1375 
L 863 0 
L 184 0 
L 1544 1831 
L 300 3500 
L 978 3500 
L 1906 2253 
L 2834 3500 
L 3513 3500 
z
" transform="scale(0.015625)"/>
      <path id="DejaVuSans-62" d="M 3116 1747 
Q 3116 2381 2855 2742 
Q 2594 3103 2138 3103 
Q 1681 3103 1420 2742 
Q 1159 2381 1159 1747 
Q 1159 1113 1420 752 
Q 1681 391 2138 391 
Q 2594 391 2855 752 
Q 3116 1113 3116 1747 
z
M 1159 2969 
Q 1341 3281 1617 3432 
Q 1894 3584 2278 3584 
Q 2916 3584 3314 3078 
Q 3713 2572 3713 1747 
Q 3713 922 3314 415 
Q 2916 -91 2278 -91 
Q 1894 -91 1617 61 
Q 1341 213 1159 525 
L 1159 0 
L 581 0 
L 581 4863 
L 1159 4863 
L 1159 2969 
z
" transform="scale(0.015625)"/>
      <path id="DejaVuSans-79" d="M 2059 -325 
Q 1816 -950 1584 -1140 
Q 1353 -1331 966 -1331 
L 506 -1331 
L 506 -850 
L 844 -850 
Q 1081 -850 1212 -737 
Q 1344 -625 1503 -206 
L 1606 56 
L 191 3500 
L 800 3500 
L 1894 763 
L 2988 3500 
L 3597 3500 
L 2059 -325 
z
" transform="scale(0.015625)"/>
     </defs>
     <use xlink:href="#DejaVuSans-45"/>
     <use xlink:href="#DejaVuSans-6e" x="63.183594"/>
     <use xlink:href="#DejaVuSans-74" x="126.5625"/>
     <use xlink:href="#DejaVuSans-65" x="165.771484"/>
     <use xlink:href="#DejaVuSans-72" x="227.294922"/>
     <use xlink:href="#DejaVuSans-70" x="268.408203"/>
     <use xlink:href="#DejaVuSans-72" x="331.884766"/>
     <use xlink:href="#DejaVuSans-69" x="372.998047"/>
     <use xlink:href="#DejaVuSans-73" x="400.78125"/>
     <use xlink:href="#DejaVuSans-65" x="452.880859"/>
     <use xlink:href="#DejaVuSans-20" x="514.404297"/>
     <use xlink:href="#DejaVuSans-4c" x="546.191406"/>
     <use xlink:href="#DejaVuSans-69" x="601.904297"/>
     <use xlink:href="#DejaVuSans-6e" x="629.6875"/>
     <use xlink:href="#DejaVuSans-75" x="693.066406"/>
     <use xlink:href="#DejaVuSans-78" x="756.445312"/>
     <use xlink:href="#DejaVuSans-20" x="815.625"/>
     <use xlink:href="#DejaVuSans-49" x="847.412109"/>
     <use xlink:href="#DejaVuSans-6e" x="876.904297"/>
     <use xlink:href="#DejaVuSans-73" x="940.283203"/>
     <use xlink:href="#DejaVuSans-74" x="992.382812"/>
     <use xlink:href="#DejaVuSans-61" x="1031.591797"/>
     <use xlink:href="#DejaVuSans-6e" x="1092.871094"/>
     <use xlink:href="#DejaVuSans-63" x="1156.25"/>
     <use xlink:href="#DejaVuSans-65" x="1211.230469"/>
     <use xlink:href="#DejaVuSans-73" x="1272.753906"/>
     <use xlink:href="#DejaVuSans-20" x="1324.853516"/>
     <use xlink:href="#DejaVuSans-62" x="1356.640625"/>
     <use xlink:href="#DejaVuSans-79" x="1420.117188"/>
     <use xlink:href="#DejaVuSans-20" x="1479.296875"/>
     <use xlink:href="#DejaVuSans-44" x="1511.083984"/>
     <use xlink:href="#DejaVuSans-69" x="1588.085938"/>
     <use xlink:href="#DejaVuSans-73" x="1615.869141"/>
     <use xlink:href="#DejaVuSans-74" x="1667.96875"/>
     <use xlink:href="#DejaVuSans-72" x="1707.177734"/>
     <use xlink:href="#DejaVuSans-69" x="1748.291016"/>
     <use xlink:href="#DejaVuSans-62" x="1776.074219"/>
     <use xlink:href="#DejaVuSans-75" x="1839.550781"/>
     <use xlink:href="#DejaVuSans-74" x="1902.929688"/>
     <use xlink:href="#DejaVuSans-69" x="1942.138672"/>
     <use xlink:href="#DejaVuSans-6f" x="1969.921875"/>
     <use xlink:href="#DejaVuSans-6e" x="2031.103516"/>
     <use xlink:href="#DejaVuSans-20" x="2094.482422"/>
     <use xlink:href="#DejaVuSans-53" x="2126.269531"/>
     <use xlink:href="#DejaVuSans-68" x="2189.746094"/>
     <use xlink:href="#DejaVuSans-61" x="2253.125"/>
     <use xlink:href="#DejaVuSans-72" x="2314.404297"/>
     <use xlink:href="#DejaVuSans-65" x="2353.267578"/>
    </g>
   </g>
   <g id="text_21">
    <!-- 2025-06-05 11:54 UTC -->
    <g transform="translate(785.678875 18.14175) scale(0.144 -0.144)">
     <defs>
      <path id="DejaVuSans-3a" d="M 750 794 
L 1409 794 
L 1409 0 
L 750 0 
L 750 794 
z
M 750 3309 
L 1409 3309 
L 1409 2516 
L 750 2516 
L 750 3309 
z
" transform="scale(0.015625)"/>
      <path id="DejaVuSans-55" d="M 556 4666 
L 1191 4666 
L 1191 1831 
Q 1191 1081 1462 751 
Q 1734 422 2344 422 
Q 2950 422 3222 751 
Q 3494 1081 3494 1831 
L 3494 4666 
L 4128 4666 
L 4128 1753 
Q 4128 841 3676 375 
Q 3225 -91 2344 -91 
Q 1459 -91 1007 375 
Q 556 841 556 1753 
L 556 4666 
z
" transform="scale(0.015625)"/>
      <path id="DejaVuSans-54" d="M -19 4666 
L 3928 4666 
L 3928 4134 
L 2272 4134 
L 2272 0 
L 1638 0 
L 1638 4134 
L -19 4134 
L -19 4666 
z
" transform="scale(0.015625)"/>
      <path id="DejaVuSans-43" d="M 4122 4306 
L 4122 3641 
Q 3803 3938 3442 4084 
Q 3081 4231 2675 4231 
Q 1875 4231 1450 3742 
Q 1025 3253 1025 2328 
Q 1025 1406 1450 917 
Q 1875 428 2675 428 
Q 3081 428 3442 575 
Q 3803 722 4122 1019 
L 4122 359 
Q 3791 134 3420 21 
Q 3050 -91 2638 -91 
Q 1578 -91 968 557 
Q 359 1206 359 2328 
Q 359 3453 968 4101 
Q 1578 4750 2638 4750 
Q 3056 4750 3426 4639 
Q 3797 4528 4122 4306 
z
" transform="scale(0.015625)"/>
     </defs>
     <use xlink:href="#DejaVuSans-32"/>
     <use xlink:href="#DejaVuSans-30" x="63.623047"/>
     <use xlink:href="#DejaVuSans-32" x="127.246094"/>
     <use xlink:href="#DejaVuSans-35" x="190.869141"/>
     <use xlink:href="#DejaVuSans-2d" x="254.492188"/>
     <use xlink:href="#DejaVuSans-30" x="290.576172"/>
     <use xlink:href="#DejaVuSans-36" x="354.199219"/>
     <use xlink:href="#DejaVuSans-2d" x="417.822266"/>
     <use xlink:href="#DejaVuSans-30" x="453.90625"/>
     <use xlink:href="#DejaVuSans-35" x="517.529297"/>
     <use xlink:href="#DejaVuSans-20" x="581.152344"/>
     <use xlink:href="#DejaVuSans-31" x="612.939453"/>
     <use xlink:href="#DejaVuSans-31" x="676.5625"/>
     <use xlink:href="#DejaVuSans-3a" x="740.185547"/>
     <use xlink:href="#DejaVuSans-35" x="773.876953"/>
     <use xlink:href="#DejaVuSans-34" x="837.5"/>
     <use xlink:href="#DejaVuSans-20" x="901.123047"/>
     <use xlink:href="#DejaVuSans-55" x="932.910156"/>
     <use xlink:href="#DejaVuSans-54" x="1006.103516"/>
     <use xlink:href="#DejaVuSans-43" x="1061.3125"/>
    </g>
   </g>
   <g id="legend_1">
    <g id="patch_7">
     <path d="M 52.716875 134.888625 
L 161.685625 134.888625 
Q 163.685625 134.888625 163.685625 132.888625 
L 163.685625 31.14175 
Q 163.685625 29.14175 161.685625 29.14175 
L 52.716875 29.14175 
Q 50.716875 29.14175 50.716875 31.14175 
L 50.716875 132.888625 
Q 50.716875 134.888625 52.716875 134.888625 
z
" style="fill: #e5e5e5; opacity: 0.8; stroke: #cccccc; stroke-width: 0.5; stroke-linejoin: miter"/>
    </g>
    <g id="text_22">
     <!-- Distribution -->
     <g transform="translate(78.0325 40.740188) scale(0.1 -0.1)">
      <use xlink:href="#DejaVuSans-44"/>
      <use xlink:href="#DejaVuSans-69" x="77.001953"/>
      <use xlink:href="#DejaVuSans-73" x="104.785156"/>
      <use xlink:href="#DejaVuSans-74" x="156.884766"/>
      <use xlink:href="#DejaVuSans-72" x="196.09375"/>
      <use xlink:href="#DejaVuSans-69" x="237.207031"/>
      <use xlink:href="#DejaVuSans-62" x="264.990234"/>
      <use xlink:href="#DejaVuSans-75" x="328.466797"/>
      <use xlink:href="#DejaVuSans-74" x="391.845703"/>
      <use xlink:href="#DejaVuSans-69" x="431.054688"/>
      <use xlink:href="#DejaVuSans-6f" x="458.837891"/>
      <use xlink:href="#DejaVuSans-6e" x="520.019531"/>
     </g>
    </g>
    <g id="patch_8">
     <path d="M 54.716875 55.418313 
L 74.716875 55.418313 
L 74.716875 48.418313 
L 54.716875 48.418313 
z
" style="fill: #48b585"/>
    </g>
    <g id="text_23">
     <!-- Rocky Linux -->
     <g transform="translate(82.716875 55.418313) scale(0.1 -0.1)">
      <defs>
       <path id="DejaVuSans-52" d="M 2841 2188 
Q 3044 2119 3236 1894 
Q 3428 1669 3622 1275 
L 4263 0 
L 3584 0 
L 2988 1197 
Q 2756 1666 2539 1819 
Q 2322 1972 1947 1972 
L 1259 1972 
L 1259 0 
L 628 0 
L 628 4666 
L 2053 4666 
Q 2853 4666 3247 4331 
Q 3641 3997 3641 3322 
Q 3641 2881 3436 2590 
Q 3231 2300 2841 2188 
z
M 1259 4147 
L 1259 2491 
L 2053 2491 
Q 2509 2491 2742 2702 
Q 2975 2913 2975 3322 
Q 2975 3731 2742 3939 
Q 2509 4147 2053 4147 
L 1259 4147 
z
" transform="scale(0.015625)"/>
       <path id="DejaVuSans-6b" d="M 581 4863 
L 1159 4863 
L 1159 1991 
L 2875 3500 
L 3609 3500 
L 1753 1863 
L 3688 0 
L 2938 0 
L 1159 1709 
L 1159 0 
L 581 0 
L 581 4863 
z
" transform="scale(0.015625)"/>
      </defs>
      <use xlink:href="#DejaVuSans-52"/>
      <use xlink:href="#DejaVuSans-6f" x="64.982422"/>
      <use xlink:href="#DejaVuSans-63" x="126.164062"/>
      <use xlink:href="#DejaVuSans-6b" x="181.144531"/>
      <use xlink:href="#DejaVuSans-79" x="235.429688"/>
      <use xlink:href="#DejaVuSans-20" x="294.609375"/>
      <use xlink:href="#DejaVuSans-4c" x="326.396484"/>
      <use xlink:href="#DejaVuSans-69" x="382.109375"/>
      <use xlink:href="#DejaVuSans-6e" x="409.892578"/>
      <use xlink:href="#DejaVuSans-75" x="473.271484"/>
      <use xlink:href="#DejaVuSans-78" x="536.650391"/>
     </g>
    </g>
    <g id="patch_9">
     <path d="M 54.716875 70.096438 
L 74.716875 70.096438 
L 74.716875 63.096438 
L 54.716875 63.096438 
z
" style="fill: #e2321d"/>
    </g>
    <g id="text_24">
     <!-- RHEL -->
     <g transform="translate(82.716875 70.096438) scale(0.1 -0.1)">
      <defs>
       <path id="DejaVuSans-48" d="M 628 4666 
L 1259 4666 
L 1259 2753 
L 3553 2753 
L 3553 4666 
L 4184 4666 
L 4184 0 
L 3553 0 
L 3553 2222 
L 1259 2222 
L 1259 0 
L 628 0 
L 628 4666 
z
" transform="scale(0.015625)"/>
      </defs>
      <use xlink:href="#DejaVuSans-52"/>
      <use xlink:href="#DejaVuSans-48" x="69.482422"/>
      <use xlink:href="#DejaVuSans-45" x="144.677734"/>
      <use xlink:href="#DejaVuSans-4c" x="207.861328"/>
     </g>
    </g>
    <g id="patch_10">
     <path d="M 54.716875 84.774563 
L 74.716875 84.774563 
L 74.716875 77.774563 
L 54.716875 77.774563 
z
" style="fill: #9a5689"/>
    </g>
    <g id="text_25">
     <!-- CentOS Stream -->
     <g transform="translate(82.716875 84.774563) scale(0.1 -0.1)">
      <defs>
       <path id="DejaVuSans-4f" d="M 2522 4238 
Q 1834 4238 1429 3725 
Q 1025 3213 1025 2328 
Q 1025 1447 1429 934 
Q 1834 422 2522 422 
Q 3209 422 3611 934 
Q 4013 1447 4013 2328 
Q 4013 3213 3611 3725 
Q 3209 4238 2522 4238 
z
M 2522 4750 
Q 3503 4750 4090 4092 
Q 4678 3434 4678 2328 
Q 4678 1225 4090 567 
Q 3503 -91 2522 -91 
Q 1538 -91 948 565 
Q 359 1222 359 2328 
Q 359 3434 948 4092 
Q 1538 4750 2522 4750 
z
" transform="scale(0.015625)"/>
       <path id="DejaVuSans-6d" d="M 3328 2828 
Q 3544 3216 3844 3400 
Q 4144 3584 4550 3584 
Q 5097 3584 5394 3201 
Q 5691 2819 5691 2113 
L 5691 0 
L 5113 0 
L 5113 2094 
Q 5113 2597 4934 2840 
Q 4756 3084 4391 3084 
Q 3944 3084 3684 2787 
Q 3425 2491 3425 1978 
L 3425 0 
L 2847 0 
L 2847 2094 
Q 2847 2600 2669 2842 
Q 2491 3084 2119 3084 
Q 1678 3084 1418 2786 
Q 1159 2488 1159 1978 
L 1159 0 
L 581 0 
L 581 3500 
L 1159 3500 
L 1159 2956 
Q 1356 3278 1631 3431 
Q 1906 3584 2284 3584 
Q 2666 3584 2933 3390 
Q 3200 3197 3328 2828 
z
" transform="scale(0.015625)"/>
      </defs>
      <use xlink:href="#DejaVuSans-43"/>
      <use xlink:href="#DejaVuSans-65" x="69.824219"/>
      <use xlink:href="#DejaVuSans-6e" x="131.347656"/>
      <use xlink:href="#DejaVuSans-74" x="194.726562"/>
      <use xlink:href="#DejaVuSans-4f" x="233.935547"/>
      <use xlink:href="#DejaVuSans-53" x="312.646484"/>
      <use xlink:href="#DejaVuSans-20" x="376.123047"/>
      <use xlink:href="#DejaVuSans-53" x="407.910156"/>
      <use xlink:href="#DejaVuSans-74" x="471.386719"/>
      <use xlink:href="#DejaVuSans-72" x="510.595703"/>
      <use xlink:href="#DejaVuSans-65" x="549.458984"/>
      <use xlink:href="#DejaVuSans-61" x="610.982422"/>
      <use xlink:href="#DejaVuSans-6d" x="672.261719"/>
     </g>
    </g>
    <g id="patch_11">
     <path d="M 54.716875 99.452688 
L 74.716875 99.452688 
L 74.716875 92.452688 
L 54.716875 92.452688 
z
" style="fill: #4ac1fa"/>
    </g>
    <g id="text_26">
     <!-- Alma Linux -->
     <g transform="translate(82.716875 99.452688) scale(0.1 -0.1)">
      <defs>
       <path id="DejaVuSans-41" d="M 2188 4044 
L 1331 1722 
L 3047 1722 
L 2188 4044 
z
M 1831 4666 
L 2547 4666 
L 4325 0 
L 3669 0 
L 3244 1197 
L 1141 1197 
L 716 0 
L 50 0 
L 1831 4666 
z
" transform="scale(0.015625)"/>
       <path id="DejaVuSans-6c" d="M 603 4863 
L 1178 4863 
L 1178 0 
L 603 0 
L 603 4863 
z
" transform="scale(0.015625)"/>
      </defs>
      <use xlink:href="#DejaVuSans-41"/>
      <use xlink:href="#DejaVuSans-6c" x="68.408203"/>
      <use xlink:href="#DejaVuSans-6d" x="96.191406"/>
      <use xlink:href="#DejaVuSans-61" x="193.603516"/>
      <use xlink:href="#DejaVuSans-20" x="254.882812"/>
      <use xlink:href="#DejaVuSans-4c" x="286.669922"/>
      <use xlink:href="#DejaVuSans-69" x="342.382812"/>
      <use xlink:href="#DejaVuSans-6e" x="370.166016"/>
      <use xlink:href="#DejaVuSans-75" x="433.544922"/>
      <use xlink:href="#DejaVuSans-78" x="496.923828"/>
     </g>
    </g>
    <g id="patch_12">
     <path d="M 54.716875 114.130813 
L 74.716875 114.130813 
L 74.716875 107.130813 
L 54.716875 107.130813 
z
" style="fill: #be503b"/>
    </g>
    <g id="text_27">
     <!-- Oracle -->
     <g transform="translate(82.716875 114.130813) scale(0.1 -0.1)">
      <use xlink:href="#DejaVuSans-4f"/>
      <use xlink:href="#DejaVuSans-72" x="78.710938"/>
      <use xlink:href="#DejaVuSans-61" x="119.824219"/>
      <use xlink:href="#DejaVuSans-63" x="181.103516"/>
      <use xlink:href="#DejaVuSans-6c" x="236.083984"/>
      <use xlink:href="#DejaVuSans-65" x="263.867188"/>
     </g>
    </g>
    <g id="patch_13">
     <path d="M 54.716875 128.808938 
L 74.716875 128.808938 
L 74.716875 121.808938 
L 54.716875 121.808938 
z
" style="fill: #e9a942"/>
    </g>
    <g id="text_28">
     <!-- CentOS Legacy -->
     <g transform="translate(82.716875 128.808938) scale(0.1 -0.1)">
      <defs>
       <path id="DejaVuSans-67" d="M 2906 1791 
Q 2906 2416 2648 2759 
Q 2391 3103 1925 3103 
Q 1463 3103 1205 2759 
Q 947 2416 947 1791 
Q 947 1169 1205 825 
Q 1463 481 1925 481 
Q 2391 481 2648 825 
Q 2906 1169 2906 1791 
z
M 3481 434 
Q 3481 -459 3084 -895 
Q 2688 -1331 1869 -1331 
Q 1566 -1331 1297 -1286 
Q 1028 -1241 775 -1147 
L 775 -588 
Q 1028 -725 1275 -790 
Q 1522 -856 1778 -856 
Q 2344 -856 2625 -561 
Q 2906 -266 2906 331 
L 2906 616 
Q 2728 306 2450 153 
Q 2172 0 1784 0 
Q 1141 0 747 490 
Q 353 981 353 1791 
Q 353 2603 747 3093 
Q 1141 3584 1784 3584 
Q 2172 3584 2450 3431 
Q 2728 3278 2906 2969 
L 2906 3500 
L 3481 3500 
L 3481 434 
z
" transform="scale(0.015625)"/>
      </defs>
      <use xlink:href="#DejaVuSans-43"/>
      <use xlink:href="#DejaVuSans-65" x="69.824219"/>
      <use xlink:href="#DejaVuSans-6e" x="131.347656"/>
      <use xlink:href="#DejaVuSans-74" x="194.726562"/>
      <use xlink:href="#DejaVuSans-4f" x="233.935547"/>
      <use xlink:href="#DejaVuSans-53" x="312.646484"/>
      <use xlink:href="#DejaVuSans-20" x="376.123047"/>
      <use xlink:href="#DejaVuSans-4c" x="407.910156"/>
      <use xlink:href="#DejaVuSans-65" x="461.873047"/>
      <use xlink:href="#DejaVuSans-67" x="523.396484"/>
      <use xlink:href="#DejaVuSans-61" x="586.873047"/>
      <use xlink:href="#DejaVuSans-63" x="648.152344"/>
      <use xlink:href="#DejaVuSans-79" x="703.132812"/>
     </g>
    </g>
   </g>
  </g>
 </g>
 <defs>
  <clipPath id="p4dbb448740">
   <rect x="45.716875" y="24.14175" width="902.844" height="554.4"/>
  </clipPath>
 </defs>
</svg>
