<?xml version="1.0" encoding="utf-8" standalone="no"?>
<!DOCTYPE svg PUBLIC "-//W3C//DTD SVG 1.1//EN"
  "http://www.w3.org/Graphics/SVG/1.1/DTD/svg11.dtd">
<svg xmlns:xlink="http://www.w3.org/1999/xlink" width="970.7515pt" height="644.743878pt" viewBox="0 0 970.7515 644.743878" xmlns="http://www.w3.org/2000/svg" version="1.1">
 <metadata>
  <rdf:RDF xmlns:dc="http://purl.org/dc/elements/1.1/" xmlns:cc="http://creativecommons.org/ns#" xmlns:rdf="http://www.w3.org/1999/02/22-rdf-syntax-ns#">
   <cc:Work>
    <dc:type rdf:resource="http://purl.org/dc/dcmitype/StillImage"/>
    <dc:date>2025-03-13T11:54:51.117215</dc:date>
    <dc:format>image/svg+xml</dc:format>
    <dc:creator>
     <cc:Agent>
      <dc:title>Matplotlib v3.6.3, https://matplotlib.org/</dc:title>
     </cc:Agent>
    </dc:creator>
   </cc:Work>
  </rdf:RDF>
 </metadata>
 <defs>
  <style type="text/css">*{stroke-linejoin: round; stroke-linecap: butt}</style>
 </defs>
 <g id="figure_1">
  <g id="patch_1">
   <path d="M 0 644.743878 
L 970.7515 644.743878 
L 970.7515 0 
L 0 0 
z
" style="fill: #ffffff"/>
  </g>
  <g id="axes_1">
   <g id="patch_2">
    <path d="M 60.7075 578.54175 
L 963.5515 578.54175 
L 963.5515 24.14175 
L 60.7075 24.14175 
z
" style="fill: #e5e5e5"/>
   </g>
   <g id="matplotlib.axis_1">
    <g id="xtick_1">
     <g id="line2d_1">
      <path d="M 107.139477 578.54175 
L 107.139477 24.14175 
" clip-path="url(#p8a8681ec24)" style="fill: none; stroke: #ffffff; stroke-width: 0.8; stroke-linecap: square"/>
     </g>
     <g id="line2d_2">
      <defs>
       <path id="m4263b95142" d="M 0 0 
L 0 3.5 
" style="stroke: #555555; stroke-width: 0.8"/>
      </defs>
      <g>
       <use xlink:href="#m4263b95142" x="107.139477" y="578.54175" style="fill: #555555; stroke: #555555; stroke-width: 0.8"/>
      </g>
     </g>
     <g id="text_1">
      <!-- 2024-04 -->
      <g style="fill: #555555" transform="translate(94.318195 620.459567) rotate(-45) scale(0.1 -0.1)">
       <defs>
        <path id="DejaVuSans-32" d="M 1228 531 
L 3431 531 
L 3431 0 
L 469 0 
L 469 531 
Q 828 903 1448 1529 
Q 2069 2156 2228 2338 
Q 2531 2678 2651 2914 
Q 2772 3150 2772 3378 
Q 2772 3750 2511 3984 
Q 2250 4219 1831 4219 
Q 1534 4219 1204 4116 
Q 875 4013 500 3803 
L 500 4441 
Q 881 4594 1212 4672 
Q 1544 4750 1819 4750 
Q 2544 4750 2975 4387 
Q 3406 4025 3406 3419 
Q 3406 3131 3298 2873 
Q 3191 2616 2906 2266 
Q 2828 2175 2409 1742 
Q 1991 1309 1228 531 
z
" transform="scale(0.015625)"/>
        <path id="DejaVuSans-30" d="M 2034 4250 
Q 1547 4250 1301 3770 
Q 1056 3291 1056 2328 
Q 1056 1369 1301 889 
Q 1547 409 2034 409 
Q 2525 409 2770 889 
Q 3016 1369 3016 2328 
Q 3016 3291 2770 3770 
Q 2525 4250 2034 4250 
z
M 2034 4750 
Q 2819 4750 3233 4129 
Q 3647 3509 3647 2328 
Q 3647 1150 3233 529 
Q 2819 -91 2034 -91 
Q 1250 -91 836 529 
Q 422 1150 422 2328 
Q 422 3509 836 4129 
Q 1250 4750 2034 4750 
z
" transform="scale(0.015625)"/>
        <path id="DejaVuSans-34" d="M 2419 4116 
L 825 1625 
L 2419 1625 
L 2419 4116 
z
M 2253 4666 
L 3047 4666 
L 3047 1625 
L 3713 1625 
L 3713 1100 
L 3047 1100 
L 3047 0 
L 2419 0 
L 2419 1100 
L 313 1100 
L 313 1709 
L 2253 4666 
z
" transform="scale(0.015625)"/>
        <path id="DejaVuSans-2d" d="M 313 2009 
L 1997 2009 
L 1997 1497 
L 313 1497 
L 313 2009 
z
" transform="scale(0.015625)"/>
       </defs>
       <use xlink:href="#DejaVuSans-32"/>
       <use xlink:href="#DejaVuSans-30" x="63.623047"/>
       <use xlink:href="#DejaVuSans-32" x="127.246094"/>
       <use xlink:href="#DejaVuSans-34" x="190.869141"/>
       <use xlink:href="#DejaVuSans-2d" x="254.492188"/>
       <use xlink:href="#DejaVuSans-30" x="290.576172"/>
       <use xlink:href="#DejaVuSans-34" x="354.199219"/>
      </g>
     </g>
    </g>
    <g id="xtick_2">
     <g id="line2d_3">
      <path d="M 184.526106 578.54175 
L 184.526106 24.14175 
" clip-path="url(#p8a8681ec24)" style="fill: none; stroke: #ffffff; stroke-width: 0.8; stroke-linecap: square"/>
     </g>
     <g id="line2d_4">
      <g>
       <use xlink:href="#m4263b95142" x="184.526106" y="578.54175" style="fill: #555555; stroke: #555555; stroke-width: 0.8"/>
      </g>
     </g>
     <g id="text_2">
      <!-- 2024-05 -->
      <g style="fill: #555555" transform="translate(171.704823 620.459567) rotate(-45) scale(0.1 -0.1)">
       <defs>
        <path id="DejaVuSans-35" d="M 691 4666 
L 3169 4666 
L 3169 4134 
L 1269 4134 
L 1269 2991 
Q 1406 3038 1543 3061 
Q 1681 3084 1819 3084 
Q 2600 3084 3056 2656 
Q 3513 2228 3513 1497 
Q 3513 744 3044 326 
Q 2575 -91 1722 -91 
Q 1428 -91 1123 -41 
Q 819 9 494 109 
L 494 744 
Q 775 591 1075 516 
Q 1375 441 1709 441 
Q 2250 441 2565 725 
Q 2881 1009 2881 1497 
Q 2881 1984 2565 2268 
Q 2250 2553 1709 2553 
Q 1456 2553 1204 2497 
Q 953 2441 691 2322 
L 691 4666 
z
" transform="scale(0.015625)"/>
       </defs>
       <use xlink:href="#DejaVuSans-32"/>
       <use xlink:href="#DejaVuSans-30" x="63.623047"/>
       <use xlink:href="#DejaVuSans-32" x="127.246094"/>
       <use xlink:href="#DejaVuSans-34" x="190.869141"/>
       <use xlink:href="#DejaVuSans-2d" x="254.492188"/>
       <use xlink:href="#DejaVuSans-30" x="290.576172"/>
       <use xlink:href="#DejaVuSans-35" x="354.199219"/>
      </g>
     </g>
    </g>
    <g id="xtick_3">
     <g id="line2d_5">
      <path d="M 264.492289 578.54175 
L 264.492289 24.14175 
" clip-path="url(#p8a8681ec24)" style="fill: none; stroke: #ffffff; stroke-width: 0.8; stroke-linecap: square"/>
     </g>
     <g id="line2d_6">
      <g>
       <use xlink:href="#m4263b95142" x="264.492289" y="578.54175" style="fill: #555555; stroke: #555555; stroke-width: 0.8"/>
      </g>
     </g>
     <g id="text_3">
      <!-- 2024-06 -->
      <g style="fill: #555555" transform="translate(251.671006 620.459567) rotate(-45) scale(0.1 -0.1)">
       <defs>
        <path id="DejaVuSans-36" d="M 2113 2584 
Q 1688 2584 1439 2293 
Q 1191 2003 1191 1497 
Q 1191 994 1439 701 
Q 1688 409 2113 409 
Q 2538 409 2786 701 
Q 3034 994 3034 1497 
Q 3034 2003 2786 2293 
Q 2538 2584 2113 2584 
z
M 3366 4563 
L 3366 3988 
Q 3128 4100 2886 4159 
Q 2644 4219 2406 4219 
Q 1781 4219 1451 3797 
Q 1122 3375 1075 2522 
Q 1259 2794 1537 2939 
Q 1816 3084 2150 3084 
Q 2853 3084 3261 2657 
Q 3669 2231 3669 1497 
Q 3669 778 3244 343 
Q 2819 -91 2113 -91 
Q 1303 -91 875 529 
Q 447 1150 447 2328 
Q 447 3434 972 4092 
Q 1497 4750 2381 4750 
Q 2619 4750 2861 4703 
Q 3103 4656 3366 4563 
z
" transform="scale(0.015625)"/>
       </defs>
       <use xlink:href="#DejaVuSans-32"/>
       <use xlink:href="#DejaVuSans-30" x="63.623047"/>
       <use xlink:href="#DejaVuSans-32" x="127.246094"/>
       <use xlink:href="#DejaVuSans-34" x="190.869141"/>
       <use xlink:href="#DejaVuSans-2d" x="254.492188"/>
       <use xlink:href="#DejaVuSans-30" x="290.576172"/>
       <use xlink:href="#DejaVuSans-36" x="354.199219"/>
      </g>
     </g>
    </g>
    <g id="xtick_4">
     <g id="line2d_7">
      <path d="M 341.878917 578.54175 
L 341.878917 24.14175 
" clip-path="url(#p8a8681ec24)" style="fill: none; stroke: #ffffff; stroke-width: 0.8; stroke-linecap: square"/>
     </g>
     <g id="line2d_8">
      <g>
       <use xlink:href="#m4263b95142" x="341.878917" y="578.54175" style="fill: #555555; stroke: #555555; stroke-width: 0.8"/>
      </g>
     </g>
     <g id="text_4">
      <!-- 2024-07 -->
      <g style="fill: #555555" transform="translate(329.057635 620.459567) rotate(-45) scale(0.1 -0.1)">
       <defs>
        <path id="DejaVuSans-37" d="M 525 4666 
L 3525 4666 
L 3525 4397 
L 1831 0 
L 1172 0 
L 2766 4134 
L 525 4134 
L 525 4666 
z
" transform="scale(0.015625)"/>
       </defs>
       <use xlink:href="#DejaVuSans-32"/>
       <use xlink:href="#DejaVuSans-30" x="63.623047"/>
       <use xlink:href="#DejaVuSans-32" x="127.246094"/>
       <use xlink:href="#DejaVuSans-34" x="190.869141"/>
       <use xlink:href="#DejaVuSans-2d" x="254.492188"/>
       <use xlink:href="#DejaVuSans-30" x="290.576172"/>
       <use xlink:href="#DejaVuSans-37" x="354.199219"/>
      </g>
     </g>
    </g>
    <g id="xtick_5">
     <g id="line2d_9">
      <path d="M 421.8451 578.54175 
L 421.8451 24.14175 
" clip-path="url(#p8a8681ec24)" style="fill: none; stroke: #ffffff; stroke-width: 0.8; stroke-linecap: square"/>
     </g>
     <g id="line2d_10">
      <g>
       <use xlink:href="#m4263b95142" x="421.8451" y="578.54175" style="fill: #555555; stroke: #555555; stroke-width: 0.8"/>
      </g>
     </g>
     <g id="text_5">
      <!-- 2024-08 -->
      <g style="fill: #555555" transform="translate(409.023818 620.459567) rotate(-45) scale(0.1 -0.1)">
       <defs>
        <path id="DejaVuSans-38" d="M 2034 2216 
Q 1584 2216 1326 1975 
Q 1069 1734 1069 1313 
Q 1069 891 1326 650 
Q 1584 409 2034 409 
Q 2484 409 2743 651 
Q 3003 894 3003 1313 
Q 3003 1734 2745 1975 
Q 2488 2216 2034 2216 
z
M 1403 2484 
Q 997 2584 770 2862 
Q 544 3141 544 3541 
Q 544 4100 942 4425 
Q 1341 4750 2034 4750 
Q 2731 4750 3128 4425 
Q 3525 4100 3525 3541 
Q 3525 3141 3298 2862 
Q 3072 2584 2669 2484 
Q 3125 2378 3379 2068 
Q 3634 1759 3634 1313 
Q 3634 634 3220 271 
Q 2806 -91 2034 -91 
Q 1263 -91 848 271 
Q 434 634 434 1313 
Q 434 1759 690 2068 
Q 947 2378 1403 2484 
z
M 1172 3481 
Q 1172 3119 1398 2916 
Q 1625 2713 2034 2713 
Q 2441 2713 2670 2916 
Q 2900 3119 2900 3481 
Q 2900 3844 2670 4047 
Q 2441 4250 2034 4250 
Q 1625 4250 1398 4047 
Q 1172 3844 1172 3481 
z
" transform="scale(0.015625)"/>
       </defs>
       <use xlink:href="#DejaVuSans-32"/>
       <use xlink:href="#DejaVuSans-30" x="63.623047"/>
       <use xlink:href="#DejaVuSans-32" x="127.246094"/>
       <use xlink:href="#DejaVuSans-34" x="190.869141"/>
       <use xlink:href="#DejaVuSans-2d" x="254.492188"/>
       <use xlink:href="#DejaVuSans-30" x="290.576172"/>
       <use xlink:href="#DejaVuSans-38" x="354.199219"/>
      </g>
     </g>
    </g>
    <g id="xtick_6">
     <g id="line2d_11">
      <path d="M 501.811283 578.54175 
L 501.811283 24.14175 
" clip-path="url(#p8a8681ec24)" style="fill: none; stroke: #ffffff; stroke-width: 0.8; stroke-linecap: square"/>
     </g>
     <g id="line2d_12">
      <g>
       <use xlink:href="#m4263b95142" x="501.811283" y="578.54175" style="fill: #555555; stroke: #555555; stroke-width: 0.8"/>
      </g>
     </g>
     <g id="text_6">
      <!-- 2024-09 -->
      <g style="fill: #555555" transform="translate(488.990001 620.459567) rotate(-45) scale(0.1 -0.1)">
       <defs>
        <path id="DejaVuSans-39" d="M 703 97 
L 703 672 
Q 941 559 1184 500 
Q 1428 441 1663 441 
Q 2288 441 2617 861 
Q 2947 1281 2994 2138 
Q 2813 1869 2534 1725 
Q 2256 1581 1919 1581 
Q 1219 1581 811 2004 
Q 403 2428 403 3163 
Q 403 3881 828 4315 
Q 1253 4750 1959 4750 
Q 2769 4750 3195 4129 
Q 3622 3509 3622 2328 
Q 3622 1225 3098 567 
Q 2575 -91 1691 -91 
Q 1453 -91 1209 -44 
Q 966 3 703 97 
z
M 1959 2075 
Q 2384 2075 2632 2365 
Q 2881 2656 2881 3163 
Q 2881 3666 2632 3958 
Q 2384 4250 1959 4250 
Q 1534 4250 1286 3958 
Q 1038 3666 1038 3163 
Q 1038 2656 1286 2365 
Q 1534 2075 1959 2075 
z
" transform="scale(0.015625)"/>
       </defs>
       <use xlink:href="#DejaVuSans-32"/>
       <use xlink:href="#DejaVuSans-30" x="63.623047"/>
       <use xlink:href="#DejaVuSans-32" x="127.246094"/>
       <use xlink:href="#DejaVuSans-34" x="190.869141"/>
       <use xlink:href="#DejaVuSans-2d" x="254.492188"/>
       <use xlink:href="#DejaVuSans-30" x="290.576172"/>
       <use xlink:href="#DejaVuSans-39" x="354.199219"/>
      </g>
     </g>
    </g>
    <g id="xtick_7">
     <g id="line2d_13">
      <path d="M 579.197911 578.54175 
L 579.197911 24.14175 
" clip-path="url(#p8a8681ec24)" style="fill: none; stroke: #ffffff; stroke-width: 0.8; stroke-linecap: square"/>
     </g>
     <g id="line2d_14">
      <g>
       <use xlink:href="#m4263b95142" x="579.197911" y="578.54175" style="fill: #555555; stroke: #555555; stroke-width: 0.8"/>
      </g>
     </g>
     <g id="text_7">
      <!-- 2024-10 -->
      <g style="fill: #555555" transform="translate(566.376629 620.459567) rotate(-45) scale(0.1 -0.1)">
       <defs>
        <path id="DejaVuSans-31" d="M 794 531 
L 1825 531 
L 1825 4091 
L 703 3866 
L 703 4441 
L 1819 4666 
L 2450 4666 
L 2450 531 
L 3481 531 
L 3481 0 
L 794 0 
L 794 531 
z
" transform="scale(0.015625)"/>
       </defs>
       <use xlink:href="#DejaVuSans-32"/>
       <use xlink:href="#DejaVuSans-30" x="63.623047"/>
       <use xlink:href="#DejaVuSans-32" x="127.246094"/>
       <use xlink:href="#DejaVuSans-34" x="190.869141"/>
       <use xlink:href="#DejaVuSans-2d" x="254.492188"/>
       <use xlink:href="#DejaVuSans-31" x="290.576172"/>
       <use xlink:href="#DejaVuSans-30" x="354.199219"/>
      </g>
     </g>
    </g>
    <g id="xtick_8">
     <g id="line2d_15">
      <path d="M 659.164094 578.54175 
L 659.164094 24.14175 
" clip-path="url(#p8a8681ec24)" style="fill: none; stroke: #ffffff; stroke-width: 0.8; stroke-linecap: square"/>
     </g>
     <g id="line2d_16">
      <g>
       <use xlink:href="#m4263b95142" x="659.164094" y="578.54175" style="fill: #555555; stroke: #555555; stroke-width: 0.8"/>
      </g>
     </g>
     <g id="text_8">
      <!-- 2024-11 -->
      <g style="fill: #555555" transform="translate(646.342812 620.459567) rotate(-45) scale(0.1 -0.1)">
       <use xlink:href="#DejaVuSans-32"/>
       <use xlink:href="#DejaVuSans-30" x="63.623047"/>
       <use xlink:href="#DejaVuSans-32" x="127.246094"/>
       <use xlink:href="#DejaVuSans-34" x="190.869141"/>
       <use xlink:href="#DejaVuSans-2d" x="254.492188"/>
       <use xlink:href="#DejaVuSans-31" x="290.576172"/>
       <use xlink:href="#DejaVuSans-31" x="354.199219"/>
      </g>
     </g>
    </g>
    <g id="xtick_9">
     <g id="line2d_17">
      <path d="M 736.550723 578.54175 
L 736.550723 24.14175 
" clip-path="url(#p8a8681ec24)" style="fill: none; stroke: #ffffff; stroke-width: 0.8; stroke-linecap: square"/>
     </g>
     <g id="line2d_18">
      <g>
       <use xlink:href="#m4263b95142" x="736.550723" y="578.54175" style="fill: #555555; stroke: #555555; stroke-width: 0.8"/>
      </g>
     </g>
     <g id="text_9">
      <!-- 2024-12 -->
      <g style="fill: #555555" transform="translate(723.729441 620.459567) rotate(-45) scale(0.1 -0.1)">
       <use xlink:href="#DejaVuSans-32"/>
       <use xlink:href="#DejaVuSans-30" x="63.623047"/>
       <use xlink:href="#DejaVuSans-32" x="127.246094"/>
       <use xlink:href="#DejaVuSans-34" x="190.869141"/>
       <use xlink:href="#DejaVuSans-2d" x="254.492188"/>
       <use xlink:href="#DejaVuSans-31" x="290.576172"/>
       <use xlink:href="#DejaVuSans-32" x="354.199219"/>
      </g>
     </g>
    </g>
    <g id="xtick_10">
     <g id="line2d_19">
      <path d="M 816.516906 578.54175 
L 816.516906 24.14175 
" clip-path="url(#p8a8681ec24)" style="fill: none; stroke: #ffffff; stroke-width: 0.8; stroke-linecap: square"/>
     </g>
     <g id="line2d_20">
      <g>
       <use xlink:href="#m4263b95142" x="816.516906" y="578.54175" style="fill: #555555; stroke: #555555; stroke-width: 0.8"/>
      </g>
     </g>
     <g id="text_10">
      <!-- 2025-01 -->
      <g style="fill: #555555" transform="translate(803.695623 620.459567) rotate(-45) scale(0.1 -0.1)">
       <use xlink:href="#DejaVuSans-32"/>
       <use xlink:href="#DejaVuSans-30" x="63.623047"/>
       <use xlink:href="#DejaVuSans-32" x="127.246094"/>
       <use xlink:href="#DejaVuSans-35" x="190.869141"/>
       <use xlink:href="#DejaVuSans-2d" x="254.492188"/>
       <use xlink:href="#DejaVuSans-30" x="290.576172"/>
       <use xlink:href="#DejaVuSans-31" x="354.199219"/>
      </g>
     </g>
    </g>
    <g id="xtick_11">
     <g id="line2d_21">
      <path d="M 896.483089 578.54175 
L 896.483089 24.14175 
" clip-path="url(#p8a8681ec24)" style="fill: none; stroke: #ffffff; stroke-width: 0.8; stroke-linecap: square"/>
     </g>
     <g id="line2d_22">
      <g>
       <use xlink:href="#m4263b95142" x="896.483089" y="578.54175" style="fill: #555555; stroke: #555555; stroke-width: 0.8"/>
      </g>
     </g>
     <g id="text_11">
      <!-- 2025-02 -->
      <g style="fill: #555555" transform="translate(883.661806 620.459567) rotate(-45) scale(0.1 -0.1)">
       <use xlink:href="#DejaVuSans-32"/>
       <use xlink:href="#DejaVuSans-30" x="63.623047"/>
       <use xlink:href="#DejaVuSans-32" x="127.246094"/>
       <use xlink:href="#DejaVuSans-35" x="190.869141"/>
       <use xlink:href="#DejaVuSans-2d" x="254.492188"/>
       <use xlink:href="#DejaVuSans-30" x="290.576172"/>
       <use xlink:href="#DejaVuSans-32" x="354.199219"/>
      </g>
     </g>
    </g>
    <g id="text_12">
     <!-- Date -->
     <g style="fill: #555555" transform="translate(497.788563 635.048253) scale(0.12 -0.12)">
      <defs>
       <path id="DejaVuSans-44" d="M 1259 4147 
L 1259 519 
L 2022 519 
Q 2988 519 3436 956 
Q 3884 1394 3884 2338 
Q 3884 3275 3436 3711 
Q 2988 4147 2022 4147 
L 1259 4147 
z
M 628 4666 
L 1925 4666 
Q 3281 4666 3915 4102 
Q 4550 3538 4550 2338 
Q 4550 1131 3912 565 
Q 3275 0 1925 0 
L 628 0 
L 628 4666 
z
" transform="scale(0.015625)"/>
       <path id="DejaVuSans-61" d="M 2194 1759 
Q 1497 1759 1228 1600 
Q 959 1441 959 1056 
Q 959 750 1161 570 
Q 1363 391 1709 391 
Q 2188 391 2477 730 
Q 2766 1069 2766 1631 
L 2766 1759 
L 2194 1759 
z
M 3341 1997 
L 3341 0 
L 2766 0 
L 2766 531 
Q 2569 213 2275 61 
Q 1981 -91 1556 -91 
Q 1019 -91 701 211 
Q 384 513 384 1019 
Q 384 1609 779 1909 
Q 1175 2209 1959 2209 
L 2766 2209 
L 2766 2266 
Q 2766 2663 2505 2880 
Q 2244 3097 1772 3097 
Q 1472 3097 1187 3025 
Q 903 2953 641 2809 
L 641 3341 
Q 956 3463 1253 3523 
Q 1550 3584 1831 3584 
Q 2591 3584 2966 3190 
Q 3341 2797 3341 1997 
z
" transform="scale(0.015625)"/>
       <path id="DejaVuSans-74" d="M 1172 4494 
L 1172 3500 
L 2356 3500 
L 2356 3053 
L 1172 3053 
L 1172 1153 
Q 1172 725 1289 603 
Q 1406 481 1766 481 
L 2356 481 
L 2356 0 
L 1766 0 
Q 1100 0 847 248 
Q 594 497 594 1153 
L 594 3053 
L 172 3053 
L 172 3500 
L 594 3500 
L 594 4494 
L 1172 4494 
z
" transform="scale(0.015625)"/>
       <path id="DejaVuSans-65" d="M 3597 1894 
L 3597 1613 
L 953 1613 
Q 991 1019 1311 708 
Q 1631 397 2203 397 
Q 2534 397 2845 478 
Q 3156 559 3463 722 
L 3463 178 
Q 3153 47 2828 -22 
Q 2503 -91 2169 -91 
Q 1331 -91 842 396 
Q 353 884 353 1716 
Q 353 2575 817 3079 
Q 1281 3584 2069 3584 
Q 2775 3584 3186 3129 
Q 3597 2675 3597 1894 
z
M 3022 2063 
Q 3016 2534 2758 2815 
Q 2500 3097 2075 3097 
Q 1594 3097 1305 2825 
Q 1016 2553 972 2059 
L 3022 2063 
z
" transform="scale(0.015625)"/>
      </defs>
      <use xlink:href="#DejaVuSans-44"/>
      <use xlink:href="#DejaVuSans-61" x="77.001953"/>
      <use xlink:href="#DejaVuSans-74" x="138.28125"/>
      <use xlink:href="#DejaVuSans-65" x="177.490234"/>
     </g>
    </g>
   </g>
   <g id="matplotlib.axis_2">
    <g id="ytick_1">
     <g id="line2d_23">
      <path d="M 60.7075 578.54175 
L 963.5515 578.54175 
" clip-path="url(#p8a8681ec24)" style="fill: none; stroke: #ffffff; stroke-width: 0.8; stroke-linecap: square"/>
     </g>
     <g id="line2d_24">
      <defs>
       <path id="m0ac9e0d2f5" d="M 0 0 
L -3.5 0 
" style="stroke: #555555; stroke-width: 0.8"/>
      </defs>
      <g>
       <use xlink:href="#m0ac9e0d2f5" x="60.7075" y="578.54175" style="fill: #555555; stroke: #555555; stroke-width: 0.8"/>
      </g>
     </g>
     <g id="text_13">
      <!-- 0.0M -->
      <g style="fill: #555555" transform="translate(29.17625 582.340969) scale(0.1 -0.1)">
       <defs>
        <path id="DejaVuSans-2e" d="M 684 794 
L 1344 794 
L 1344 0 
L 684 0 
L 684 794 
z
" transform="scale(0.015625)"/>
        <path id="DejaVuSans-4d" d="M 628 4666 
L 1569 4666 
L 2759 1491 
L 3956 4666 
L 4897 4666 
L 4897 0 
L 4281 0 
L 4281 4097 
L 3078 897 
L 2444 897 
L 1241 4097 
L 1241 0 
L 628 0 
L 628 4666 
z
" transform="scale(0.015625)"/>
       </defs>
       <use xlink:href="#DejaVuSans-30"/>
       <use xlink:href="#DejaVuSans-2e" x="63.623047"/>
       <use xlink:href="#DejaVuSans-30" x="95.410156"/>
       <use xlink:href="#DejaVuSans-4d" x="159.033203"/>
      </g>
     </g>
    </g>
    <g id="ytick_2">
     <g id="line2d_25">
      <path d="M 60.7075 505.764141 
L 963.5515 505.764141 
" clip-path="url(#p8a8681ec24)" style="fill: none; stroke: #ffffff; stroke-width: 0.8; stroke-linecap: square"/>
     </g>
     <g id="line2d_26">
      <g>
       <use xlink:href="#m0ac9e0d2f5" x="60.7075" y="505.764141" style="fill: #555555; stroke: #555555; stroke-width: 0.8"/>
      </g>
     </g>
     <g id="text_14">
      <!-- 2.5M -->
      <g style="fill: #555555" transform="translate(29.17625 509.56336) scale(0.1 -0.1)">
       <use xlink:href="#DejaVuSans-32"/>
       <use xlink:href="#DejaVuSans-2e" x="63.623047"/>
       <use xlink:href="#DejaVuSans-35" x="95.410156"/>
       <use xlink:href="#DejaVuSans-4d" x="159.033203"/>
      </g>
     </g>
    </g>
    <g id="ytick_3">
     <g id="line2d_27">
      <path d="M 60.7075 432.986532 
L 963.5515 432.986532 
" clip-path="url(#p8a8681ec24)" style="fill: none; stroke: #ffffff; stroke-width: 0.8; stroke-linecap: square"/>
     </g>
     <g id="line2d_28">
      <g>
       <use xlink:href="#m0ac9e0d2f5" x="60.7075" y="432.986532" style="fill: #555555; stroke: #555555; stroke-width: 0.8"/>
      </g>
     </g>
     <g id="text_15">
      <!-- 5.0M -->
      <g style="fill: #555555" transform="translate(29.17625 436.785751) scale(0.1 -0.1)">
       <use xlink:href="#DejaVuSans-35"/>
       <use xlink:href="#DejaVuSans-2e" x="63.623047"/>
       <use xlink:href="#DejaVuSans-30" x="95.410156"/>
       <use xlink:href="#DejaVuSans-4d" x="159.033203"/>
      </g>
     </g>
    </g>
    <g id="ytick_4">
     <g id="line2d_29">
      <path d="M 60.7075 360.208923 
L 963.5515 360.208923 
" clip-path="url(#p8a8681ec24)" style="fill: none; stroke: #ffffff; stroke-width: 0.8; stroke-linecap: square"/>
     </g>
     <g id="line2d_30">
      <g>
       <use xlink:href="#m0ac9e0d2f5" x="60.7075" y="360.208923" style="fill: #555555; stroke: #555555; stroke-width: 0.8"/>
      </g>
     </g>
     <g id="text_16">
      <!-- 7.5M -->
      <g style="fill: #555555" transform="translate(29.17625 364.008142) scale(0.1 -0.1)">
       <use xlink:href="#DejaVuSans-37"/>
       <use xlink:href="#DejaVuSans-2e" x="63.623047"/>
       <use xlink:href="#DejaVuSans-35" x="95.410156"/>
       <use xlink:href="#DejaVuSans-4d" x="159.033203"/>
      </g>
     </g>
    </g>
    <g id="ytick_5">
     <g id="line2d_31">
      <path d="M 60.7075 287.431314 
L 963.5515 287.431314 
" clip-path="url(#p8a8681ec24)" style="fill: none; stroke: #ffffff; stroke-width: 0.8; stroke-linecap: square"/>
     </g>
     <g id="line2d_32">
      <g>
       <use xlink:href="#m0ac9e0d2f5" x="60.7075" y="287.431314" style="fill: #555555; stroke: #555555; stroke-width: 0.8"/>
      </g>
     </g>
     <g id="text_17">
      <!-- 10.0M -->
      <g style="fill: #555555" transform="translate(22.81375 291.230533) scale(0.1 -0.1)">
       <use xlink:href="#DejaVuSans-31"/>
       <use xlink:href="#DejaVuSans-30" x="63.623047"/>
       <use xlink:href="#DejaVuSans-2e" x="127.246094"/>
       <use xlink:href="#DejaVuSans-30" x="159.033203"/>
       <use xlink:href="#DejaVuSans-4d" x="222.65625"/>
      </g>
     </g>
    </g>
    <g id="ytick_6">
     <g id="line2d_33">
      <path d="M 60.7075 214.653705 
L 963.5515 214.653705 
" clip-path="url(#p8a8681ec24)" style="fill: none; stroke: #ffffff; stroke-width: 0.8; stroke-linecap: square"/>
     </g>
     <g id="line2d_34">
      <g>
       <use xlink:href="#m0ac9e0d2f5" x="60.7075" y="214.653705" style="fill: #555555; stroke: #555555; stroke-width: 0.8"/>
      </g>
     </g>
     <g id="text_18">
      <!-- 12.5M -->
      <g style="fill: #555555" transform="translate(22.81375 218.452924) scale(0.1 -0.1)">
       <use xlink:href="#DejaVuSans-31"/>
       <use xlink:href="#DejaVuSans-32" x="63.623047"/>
       <use xlink:href="#DejaVuSans-2e" x="127.246094"/>
       <use xlink:href="#DejaVuSans-35" x="159.033203"/>
       <use xlink:href="#DejaVuSans-4d" x="222.65625"/>
      </g>
     </g>
    </g>
    <g id="ytick_7">
     <g id="line2d_35">
      <path d="M 60.7075 141.876097 
L 963.5515 141.876097 
" clip-path="url(#p8a8681ec24)" style="fill: none; stroke: #ffffff; stroke-width: 0.8; stroke-linecap: square"/>
     </g>
     <g id="line2d_36">
      <g>
       <use xlink:href="#m0ac9e0d2f5" x="60.7075" y="141.876097" style="fill: #555555; stroke: #555555; stroke-width: 0.8"/>
      </g>
     </g>
     <g id="text_19">
      <!-- 15.0M -->
      <g style="fill: #555555" transform="translate(22.81375 145.675315) scale(0.1 -0.1)">
       <use xlink:href="#DejaVuSans-31"/>
       <use xlink:href="#DejaVuSans-35" x="63.623047"/>
       <use xlink:href="#DejaVuSans-2e" x="127.246094"/>
       <use xlink:href="#DejaVuSans-30" x="159.033203"/>
       <use xlink:href="#DejaVuSans-4d" x="222.65625"/>
      </g>
     </g>
    </g>
    <g id="ytick_8">
     <g id="line2d_37">
      <path d="M 60.7075 69.098488 
L 963.5515 69.098488 
" clip-path="url(#p8a8681ec24)" style="fill: none; stroke: #ffffff; stroke-width: 0.8; stroke-linecap: square"/>
     </g>
     <g id="line2d_38">
      <g>
       <use xlink:href="#m0ac9e0d2f5" x="60.7075" y="69.098488" style="fill: #555555; stroke: #555555; stroke-width: 0.8"/>
      </g>
     </g>
     <g id="text_20">
      <!-- 17.5M -->
      <g style="fill: #555555" transform="translate(22.81375 72.897706) scale(0.1 -0.1)">
       <use xlink:href="#DejaVuSans-31"/>
       <use xlink:href="#DejaVuSans-37" x="63.623047"/>
       <use xlink:href="#DejaVuSans-2e" x="127.246094"/>
       <use xlink:href="#DejaVuSans-35" x="159.033203"/>
       <use xlink:href="#DejaVuSans-4d" x="222.65625"/>
      </g>
     </g>
    </g>
    <g id="text_21">
     <!-- Instances -->
     <g style="fill: #555555" transform="translate(16.318125 329.988) rotate(-90) scale(0.12 -0.12)">
      <defs>
       <path id="DejaVuSans-49" d="M 628 4666 
L 1259 4666 
L 1259 0 
L 628 0 
L 628 4666 
z
" transform="scale(0.015625)"/>
       <path id="DejaVuSans-6e" d="M 3513 2113 
L 3513 0 
L 2938 0 
L 2938 2094 
Q 2938 2591 2744 2837 
Q 2550 3084 2163 3084 
Q 1697 3084 1428 2787 
Q 1159 2491 1159 1978 
L 1159 0 
L 581 0 
L 581 3500 
L 1159 3500 
L 1159 2956 
Q 1366 3272 1645 3428 
Q 1925 3584 2291 3584 
Q 2894 3584 3203 3211 
Q 3513 2838 3513 2113 
z
" transform="scale(0.015625)"/>
       <path id="DejaVuSans-73" d="M 2834 3397 
L 2834 2853 
Q 2591 2978 2328 3040 
Q 2066 3103 1784 3103 
Q 1356 3103 1142 2972 
Q 928 2841 928 2578 
Q 928 2378 1081 2264 
Q 1234 2150 1697 2047 
L 1894 2003 
Q 2506 1872 2764 1633 
Q 3022 1394 3022 966 
Q 3022 478 2636 193 
Q 2250 -91 1575 -91 
Q 1294 -91 989 -36 
Q 684 19 347 128 
L 347 722 
Q 666 556 975 473 
Q 1284 391 1588 391 
Q 1994 391 2212 530 
Q 2431 669 2431 922 
Q 2431 1156 2273 1281 
Q 2116 1406 1581 1522 
L 1381 1569 
Q 847 1681 609 1914 
Q 372 2147 372 2553 
Q 372 3047 722 3315 
Q 1072 3584 1716 3584 
Q 2034 3584 2315 3537 
Q 2597 3491 2834 3397 
z
" transform="scale(0.015625)"/>
       <path id="DejaVuSans-63" d="M 3122 3366 
L 3122 2828 
Q 2878 2963 2633 3030 
Q 2388 3097 2138 3097 
Q 1578 3097 1268 2742 
Q 959 2388 959 1747 
Q 959 1106 1268 751 
Q 1578 397 2138 397 
Q 2388 397 2633 464 
Q 2878 531 3122 666 
L 3122 134 
Q 2881 22 2623 -34 
Q 2366 -91 2075 -91 
Q 1284 -91 818 406 
Q 353 903 353 1747 
Q 353 2603 823 3093 
Q 1294 3584 2113 3584 
Q 2378 3584 2631 3529 
Q 2884 3475 3122 3366 
z
" transform="scale(0.015625)"/>
      </defs>
      <use xlink:href="#DejaVuSans-49"/>
      <use xlink:href="#DejaVuSans-6e" x="29.492188"/>
      <use xlink:href="#DejaVuSans-73" x="92.871094"/>
      <use xlink:href="#DejaVuSans-74" x="144.970703"/>
      <use xlink:href="#DejaVuSans-61" x="184.179688"/>
      <use xlink:href="#DejaVuSans-6e" x="245.458984"/>
      <use xlink:href="#DejaVuSans-63" x="308.837891"/>
      <use xlink:href="#DejaVuSans-65" x="363.818359"/>
      <use xlink:href="#DejaVuSans-73" x="425.341797"/>
     </g>
    </g>
   </g>
   <g id="PolyCollection_1">
    <path d="M 60.7075 466.083402 
L 60.7075 578.54175 
L 78.76438 578.54175 
L 96.82126 578.54175 
L 114.87814 578.54175 
L 132.93502 578.54175 
L 150.9919 578.54175 
L 169.04878 578.54175 
L 187.10566 578.54175 
L 205.16254 578.54175 
L 223.21942 578.54175 
L 241.2763 578.54175 
L 259.33318 578.54175 
L 277.39006 578.54175 
L 295.44694 578.54175 
L 313.50382 578.54175 
L 331.5607 578.54175 
L 349.61758 578.54175 
L 367.67446 578.54175 
L 385.73134 578.54175 
L 403.78822 578.54175 
L 421.8451 578.54175 
L 439.90198 578.54175 
L 457.95886 578.54175 
L 476.01574 578.54175 
L 494.07262 578.54175 
L 512.1295 578.54175 
L 530.18638 578.54175 
L 548.24326 578.54175 
L 566.30014 578.54175 
L 584.35702 578.54175 
L 602.4139 578.54175 
L 620.47078 578.54175 
L 638.52766 578.54175 
L 656.58454 578.54175 
L 674.64142 578.54175 
L 692.6983 578.54175 
L 710.75518 578.54175 
L 728.81206 578.54175 
L 746.86894 578.54175 
L 764.92582 578.54175 
L 782.9827 578.54175 
L 801.03958 578.54175 
L 819.09646 578.54175 
L 837.15334 578.54175 
L 855.21022 578.54175 
L 873.2671 578.54175 
L 891.32398 578.54175 
L 909.38086 578.54175 
L 927.43774 578.54175 
L 945.49462 578.54175 
L 963.5515 578.54175 
L 963.5515 376.337169 
L 963.5515 376.337169 
L 945.49462 376.640477 
L 927.43774 375.668168 
L 909.38086 381.00661 
L 891.32398 383.184232 
L 873.2671 384.40675 
L 855.21022 386.648475 
L 837.15334 390.340833 
L 819.09646 400.322864 
L 801.03958 401.767442 
L 782.9827 388.906212 
L 764.92582 389.52683 
L 746.86894 393.168418 
L 728.81206 399.477858 
L 710.75518 395.239552 
L 692.6983 399.256585 
L 674.64142 399.22596 
L 656.58454 400.842438 
L 638.52766 401.738971 
L 620.47078 404.519745 
L 602.4139 407.419147 
L 584.35702 414.962924 
L 566.30014 412.846464 
L 548.24326 418.34196 
L 530.18638 420.207425 
L 512.1295 424.794917 
L 494.07262 425.040527 
L 476.01574 427.351624 
L 457.95886 428.633005 
L 439.90198 434.155981 
L 421.8451 434.614014 
L 403.78822 437.530009 
L 385.73134 437.795851 
L 367.67446 438.533205 
L 349.61758 443.665395 
L 331.5607 442.757276 
L 313.50382 439.47288 
L 295.44694 446.021904 
L 277.39006 448.308257 
L 259.33318 449.789194 
L 241.2763 452.618409 
L 223.21942 455.185974 
L 205.16254 456.922971 
L 187.10566 457.995364 
L 169.04878 456.688831 
L 150.9919 458.206099 
L 132.93502 458.586464 
L 114.87814 457.677559 
L 96.82126 464.84135 
L 78.76438 462.369153 
L 60.7075 466.083402 
z
" clip-path="url(#p8a8681ec24)" style="fill: #48b585"/>
   </g>
   <g id="PolyCollection_2">
    <path d="M 60.7075 404.621081 
L 60.7075 466.083402 
L 78.76438 462.369153 
L 96.82126 464.84135 
L 114.87814 457.677559 
L 132.93502 458.586464 
L 150.9919 458.206099 
L 169.04878 456.688831 
L 187.10566 457.995364 
L 205.16254 456.922971 
L 223.21942 455.185974 
L 241.2763 452.618409 
L 259.33318 449.789194 
L 277.39006 448.308257 
L 295.44694 446.021904 
L 313.50382 439.47288 
L 331.5607 442.757276 
L 349.61758 443.665395 
L 367.67446 438.533205 
L 385.73134 437.795851 
L 403.78822 437.530009 
L 421.8451 434.614014 
L 439.90198 434.155981 
L 457.95886 428.633005 
L 476.01574 427.351624 
L 494.07262 425.040527 
L 512.1295 424.794917 
L 530.18638 420.207425 
L 548.24326 418.34196 
L 566.30014 412.846464 
L 584.35702 414.962924 
L 602.4139 407.419147 
L 620.47078 404.519745 
L 638.52766 401.738971 
L 656.58454 400.842438 
L 674.64142 399.22596 
L 692.6983 399.256585 
L 710.75518 395.239552 
L 728.81206 399.477858 
L 746.86894 393.168418 
L 764.92582 389.52683 
L 782.9827 388.906212 
L 801.03958 401.767442 
L 819.09646 400.322864 
L 837.15334 390.340833 
L 855.21022 386.648475 
L 873.2671 384.40675 
L 891.32398 383.184232 
L 909.38086 381.00661 
L 927.43774 375.668168 
L 945.49462 376.640477 
L 963.5515 376.337169 
L 963.5515 285.74692 
L 963.5515 285.74692 
L 945.49462 286.254355 
L 927.43774 286.339621 
L 909.38086 292.77159 
L 891.32398 295.051974 
L 873.2671 297.616832 
L 855.21022 299.276365 
L 837.15334 303.703194 
L 819.09646 319.160867 
L 801.03958 321.059431 
L 782.9827 301.668303 
L 764.92582 301.65433 
L 746.86894 305.487323 
L 728.81206 314.107423 
L 710.75518 308.237734 
L 692.6983 313.358541 
L 674.64142 314.192049 
L 656.58454 315.549904 
L 638.52766 315.575114 
L 620.47078 319.995917 
L 602.4139 323.541264 
L 584.35702 330.826245 
L 566.30014 331.150221 
L 548.24326 336.661233 
L 530.18638 338.992475 
L 512.1295 344.029675 
L 494.07262 344.458451 
L 476.01574 345.004924 
L 457.95886 348.476532 
L 439.90198 356.150698 
L 421.8451 355.557619 
L 403.78822 360.782556 
L 385.73134 363.147625 
L 367.67446 364.774816 
L 349.61758 372.340194 
L 331.5607 370.537056 
L 313.50382 362.962013 
L 295.44694 375.455337 
L 277.39006 380.104458 
L 259.33318 381.608102 
L 241.2763 385.716893 
L 223.21942 389.187308 
L 205.16254 391.436223 
L 187.10566 394.146258 
L 169.04878 392.426028 
L 150.9919 394.198861 
L 132.93502 395.600616 
L 114.87814 395.727832 
L 96.82126 403.692147 
L 78.76438 400.636274 
L 60.7075 404.621081 
z
" clip-path="url(#p8a8681ec24)" style="fill: #e2321d"/>
   </g>
   <g id="PolyCollection_3">
    <path d="M 60.7075 341.600882 
L 60.7075 404.621081 
L 78.76438 400.636274 
L 96.82126 403.692147 
L 114.87814 395.727832 
L 132.93502 395.600616 
L 150.9919 394.198861 
L 169.04878 392.426028 
L 187.10566 394.146258 
L 205.16254 391.436223 
L 223.21942 389.187308 
L 241.2763 385.716893 
L 259.33318 381.608102 
L 277.39006 380.104458 
L 295.44694 375.455337 
L 313.50382 362.962013 
L 331.5607 370.537056 
L 349.61758 372.340194 
L 367.67446 364.774816 
L 385.73134 363.147625 
L 403.78822 360.782556 
L 421.8451 355.557619 
L 439.90198 356.150698 
L 457.95886 348.476532 
L 476.01574 345.004924 
L 494.07262 344.458451 
L 512.1295 344.029675 
L 530.18638 338.992475 
L 548.24326 336.661233 
L 566.30014 331.150221 
L 584.35702 330.826245 
L 602.4139 323.541264 
L 620.47078 319.995917 
L 638.52766 315.575114 
L 656.58454 315.549904 
L 674.64142 314.192049 
L 692.6983 313.358541 
L 710.75518 308.237734 
L 728.81206 314.107423 
L 746.86894 305.487323 
L 764.92582 301.65433 
L 782.9827 301.668303 
L 801.03958 321.059431 
L 819.09646 319.160867 
L 837.15334 303.703194 
L 855.21022 299.276365 
L 873.2671 297.616832 
L 891.32398 295.051974 
L 909.38086 292.77159 
L 927.43774 286.339621 
L 945.49462 286.254355 
L 963.5515 285.74692 
L 963.5515 231.692923 
L 963.5515 231.692923 
L 945.49462 233.137326 
L 927.43774 233.62348 
L 909.38086 239.796535 
L 891.32398 243.935049 
L 873.2671 246.786941 
L 855.21022 248.715781 
L 837.15334 253.135245 
L 819.09646 271.050763 
L 801.03958 273.520952 
L 782.9827 252.669381 
L 764.92582 253.122436 
L 746.86894 257.162758 
L 728.81206 266.44266 
L 710.75518 260.633638 
L 692.6983 267.0475 
L 674.64142 268.598449 
L 656.58454 270.808909 
L 638.52766 271.761509 
L 620.47078 276.995617 
L 602.4139 281.12528 
L 584.35702 288.645798 
L 566.30014 289.002379 
L 548.24326 295.521972 
L 530.18638 297.943545 
L 512.1295 304.007579 
L 494.07262 303.544685 
L 476.01574 305.846116 
L 457.95886 310.983924 
L 439.90198 319.247764 
L 421.8451 316.588295 
L 403.78822 321.83396 
L 385.73134 323.655176 
L 367.67446 326.536412 
L 349.61758 335.618184 
L 331.5607 334.729919 
L 313.50382 329.584076 
L 295.44694 345.541673 
L 277.39006 343.377995 
L 259.33318 316.030702 
L 241.2763 319.68047 
L 223.21942 323.443014 
L 205.16254 325.617726 
L 187.10566 329.158822 
L 169.04878 325.95259 
L 150.9919 328.011934 
L 132.93502 328.323277 
L 114.87814 330.976254 
L 96.82126 340.448842 
L 78.76438 338.014256 
L 60.7075 341.600882 
z
" clip-path="url(#p8a8681ec24)" style="fill: #9a5689"/>
   </g>
   <g id="PolyCollection_4">
    <path d="M 60.7075 255.270802 
L 60.7075 341.600882 
L 78.76438 338.014256 
L 96.82126 340.448842 
L 114.87814 330.976254 
L 132.93502 328.323277 
L 150.9919 328.011934 
L 169.04878 325.95259 
L 187.10566 329.158822 
L 205.16254 325.617726 
L 223.21942 323.443014 
L 241.2763 319.68047 
L 259.33318 316.030702 
L 277.39006 343.377995 
L 295.44694 345.541673 
L 313.50382 329.584076 
L 331.5607 334.729919 
L 349.61758 335.618184 
L 367.67446 326.536412 
L 385.73134 323.655176 
L 403.78822 321.83396 
L 421.8451 316.588295 
L 439.90198 319.247764 
L 457.95886 310.983924 
L 476.01574 305.846116 
L 494.07262 303.544685 
L 512.1295 304.007579 
L 530.18638 297.943545 
L 548.24326 295.521972 
L 566.30014 289.002379 
L 584.35702 288.645798 
L 602.4139 281.12528 
L 620.47078 276.995617 
L 638.52766 271.761509 
L 656.58454 270.808909 
L 674.64142 268.598449 
L 692.6983 267.0475 
L 710.75518 260.633638 
L 728.81206 266.44266 
L 746.86894 257.162758 
L 764.92582 253.122436 
L 782.9827 252.669381 
L 801.03958 273.520952 
L 819.09646 271.050763 
L 837.15334 253.135245 
L 855.21022 248.715781 
L 873.2671 246.786941 
L 891.32398 243.935049 
L 909.38086 239.796535 
L 927.43774 233.62348 
L 945.49462 233.137326 
L 963.5515 231.692923 
L 963.5515 82.257116 
L 963.5515 82.257116 
L 945.49462 85.385651 
L 927.43774 87.090335 
L 909.38086 94.057889 
L 891.32398 99.344483 
L 873.2671 103.267954 
L 855.21022 106.855599 
L 837.15334 112.959195 
L 819.09646 135.789414 
L 801.03958 138.6949 
L 782.9827 114.416493 
L 764.92582 115.272707 
L 746.86894 120.439947 
L 728.81206 130.879633 
L 710.75518 125.594435 
L 692.6983 135.121112 
L 674.64142 137.6745 
L 656.58454 141.877174 
L 638.52766 142.592956 
L 620.47078 149.065826 
L 602.4139 153.886556 
L 584.35702 162.932406 
L 566.30014 164.327523 
L 548.24326 172.804979 
L 530.18638 176.773804 
L 512.1295 184.573235 
L 494.07262 184.807084 
L 476.01574 188.255578 
L 457.95886 195.696652 
L 439.90198 204.288369 
L 421.8451 203.489213 
L 403.78822 209.610799 
L 385.73134 212.957376 
L 367.67446 217.222901 
L 349.61758 228.72546 
L 331.5607 229.116858 
L 313.50382 225.776511 
L 295.44694 243.015227 
L 277.39006 243.726206 
L 259.33318 215.790317 
L 241.2763 222.852482 
L 223.21942 228.626395 
L 205.16254 231.144151 
L 187.10566 236.604568 
L 169.04878 233.334379 
L 150.9919 236.953202 
L 132.93502 239.096095 
L 114.87814 242.111271 
L 96.82126 252.820321 
L 78.76438 250.639147 
L 60.7075 255.270802 
z
" clip-path="url(#p8a8681ec24)" style="fill: #4ac1fa"/>
   </g>
   <g id="PolyCollection_5">
    <path d="M 60.7075 239.073039 
L 60.7075 255.270802 
L 78.76438 250.639147 
L 96.82126 252.820321 
L 114.87814 242.111271 
L 132.93502 239.096095 
L 150.9919 236.953202 
L 169.04878 233.334379 
L 187.10566 236.604568 
L 205.16254 231.144151 
L 223.21942 228.626395 
L 241.2763 222.852482 
L 259.33318 215.790317 
L 277.39006 243.726206 
L 295.44694 243.015227 
L 313.50382 225.776511 
L 331.5607 229.116858 
L 349.61758 228.72546 
L 367.67446 217.222901 
L 385.73134 212.957376 
L 403.78822 209.610799 
L 421.8451 203.489213 
L 439.90198 204.288369 
L 457.95886 195.696652 
L 476.01574 188.255578 
L 494.07262 184.807084 
L 512.1295 184.573235 
L 530.18638 176.773804 
L 548.24326 172.804979 
L 566.30014 164.327523 
L 584.35702 162.932406 
L 602.4139 153.886556 
L 620.47078 149.065826 
L 638.52766 142.592956 
L 656.58454 141.877174 
L 674.64142 137.6745 
L 692.6983 135.121112 
L 710.75518 125.594435 
L 728.81206 130.879633 
L 746.86894 120.439947 
L 764.92582 115.272707 
L 782.9827 114.416493 
L 801.03958 138.6949 
L 819.09646 135.789414 
L 837.15334 112.959195 
L 855.21022 106.855599 
L 873.2671 103.267954 
L 891.32398 99.344483 
L 909.38086 94.057889 
L 927.43774 87.090335 
L 945.49462 85.385651 
L 963.5515 82.257116 
L 963.5515 61.014089 
L 963.5515 61.014089 
L 945.49462 64.861259 
L 927.43774 66.408045 
L 909.38086 73.259242 
L 891.32398 79.309739 
L 873.2671 83.546211 
L 855.21022 86.633321 
L 837.15334 93.339516 
L 819.09646 117.710233 
L 801.03958 120.827822 
L 782.9827 94.162951 
L 764.92582 95.21613 
L 746.86894 99.658213 
L 728.81206 109.675585 
L 710.75518 105.739306 
L 692.6983 115.376139 
L 674.64142 117.71 
L 656.58454 122.110193 
L 638.52766 123.579194 
L 620.47078 130.249961 
L 602.4139 134.834892 
L 584.35702 144.274614 
L 566.30014 145.151264 
L 548.24326 154.215657 
L 530.18638 158.031066 
L 512.1295 165.927786 
L 494.07262 166.464245 
L 476.01574 169.783515 
L 457.95886 177.612028 
L 439.90198 186.278676 
L 421.8451 185.662163 
L 403.78822 191.482508 
L 385.73134 195.184298 
L 367.67446 199.987474 
L 349.61758 211.857299 
L 331.5607 211.807985 
L 313.50382 208.59462 
L 295.44694 226.278386 
L 277.39006 226.780144 
L 259.33318 199.523532 
L 241.2763 205.923507 
L 223.21942 212.120142 
L 205.16254 214.773963 
L 187.10566 219.892791 
L 169.04878 217.503211 
L 150.9919 220.66403 
L 132.93502 222.019848 
L 114.87814 226.485482 
L 96.82126 237.085424 
L 78.76438 234.942531 
L 60.7075 239.073039 
z
" clip-path="url(#p8a8681ec24)" style="fill: #be503b"/>
   </g>
   <g id="PolyCollection_6">
    <path d="M 60.7075 189.243636 
L 60.7075 239.073039 
L 78.76438 234.942531 
L 96.82126 237.085424 
L 114.87814 226.485482 
L 132.93502 222.019848 
L 150.9919 220.66403 
L 169.04878 217.503211 
L 187.10566 219.892791 
L 205.16254 214.773963 
L 223.21942 212.120142 
L 241.2763 205.923507 
L 259.33318 199.523532 
L 277.39006 226.780144 
L 295.44694 226.278386 
L 313.50382 208.59462 
L 331.5607 211.807985 
L 349.61758 211.857299 
L 367.67446 199.987474 
L 385.73134 195.184298 
L 403.78822 191.482508 
L 421.8451 185.662163 
L 439.90198 186.278676 
L 457.95886 177.612028 
L 476.01574 169.783515 
L 494.07262 166.464245 
L 512.1295 165.927786 
L 530.18638 158.031066 
L 548.24326 154.215657 
L 566.30014 145.151264 
L 584.35702 144.274614 
L 602.4139 134.834892 
L 620.47078 130.249961 
L 638.52766 123.579194 
L 656.58454 122.110193 
L 674.64142 117.71 
L 692.6983 115.376139 
L 710.75518 105.739306 
L 728.81206 109.675585 
L 746.86894 99.658213 
L 764.92582 95.21613 
L 782.9827 94.162951 
L 801.03958 120.827822 
L 819.09646 117.710233 
L 837.15334 93.339516 
L 855.21022 86.633321 
L 873.2671 83.546211 
L 891.32398 79.309739 
L 909.38086 73.259242 
L 927.43774 66.408045 
L 945.49462 64.861259 
L 963.5515 61.014089 
L 963.5515 24.14175 
L 963.5515 24.14175 
L 945.49462 29.032085 
L 927.43774 29.581876 
L 909.38086 36.900596 
L 891.32398 43.362811 
L 873.2671 45.255349 
L 855.21022 49.6733 
L 837.15334 55.824783 
L 819.09646 82.359674 
L 801.03958 85.135267 
L 782.9827 55.420897 
L 764.92582 56.987449 
L 746.86894 62.026979 
L 728.81206 75.367202 
L 710.75518 68.377844 
L 692.6983 79.04611 
L 674.64142 80.337184 
L 656.58454 85.217971 
L 638.52766 85.632658 
L 620.47078 92.101772 
L 602.4139 96.13272 
L 584.35702 108.332373 
L 566.30014 106.183687 
L 548.24326 114.705479 
L 530.18638 119.723437 
L 512.1295 128.693539 
L 494.07262 129.701945 
L 476.01574 129.503117 
L 457.95886 138.499623 
L 439.90198 150.059415 
L 421.8451 148.649043 
L 403.78822 153.122944 
L 385.73134 158.220667 
L 367.67446 162.493207 
L 349.61758 173.165083 
L 331.5607 172.757208 
L 313.50382 167.983113 
L 295.44694 187.361258 
L 277.39006 185.009289 
L 259.33318 155.165987 
L 241.2763 162.192985 
L 223.21942 170.760103 
L 205.16254 173.999813 
L 187.10566 179.329987 
L 169.04878 173.788467 
L 150.9919 178.60748 
L 132.93502 181.226571 
L 114.87814 178.22138 
L 96.82126 187.237973 
L 78.76438 181.286948 
L 60.7075 189.243636 
z
" clip-path="url(#p8a8681ec24)" style="fill: #e9a942"/>
   </g>
   <g id="patch_3">
    <path d="M 60.7075 578.54175 
L 60.7075 24.14175 
" style="fill: none; stroke: #ffffff; stroke-linejoin: miter; stroke-linecap: square"/>
   </g>
   <g id="patch_4">
    <path d="M 963.5515 578.54175 
L 963.5515 24.14175 
" style="fill: none; stroke: #ffffff; stroke-linejoin: miter; stroke-linecap: square"/>
   </g>
   <g id="patch_5">
    <path d="M 60.7075 578.54175 
L 963.5515 578.54175 
" style="fill: none; stroke: #ffffff; stroke-linejoin: miter; stroke-linecap: square"/>
   </g>
   <g id="patch_6">
    <path d="M 60.7075 24.14175 
L 963.5515 24.14175 
" style="fill: none; stroke: #ffffff; stroke-linejoin: miter; stroke-linecap: square"/>
   </g>
   <g id="text_22">
    <!-- Enterprise Linux Instances by Distribution -->
    <g transform="translate(60.7075 18.14175) scale(0.144 -0.144)">
     <defs>
      <path id="DejaVuSans-45" d="M 628 4666 
L 3578 4666 
L 3578 4134 
L 1259 4134 
L 1259 2753 
L 3481 2753 
L 3481 2222 
L 1259 2222 
L 1259 531 
L 3634 531 
L 3634 0 
L 628 0 
L 628 4666 
z
" transform="scale(0.015625)"/>
      <path id="DejaVuSans-72" d="M 2631 2963 
Q 2534 3019 2420 3045 
Q 2306 3072 2169 3072 
Q 1681 3072 1420 2755 
Q 1159 2438 1159 1844 
L 1159 0 
L 581 0 
L 581 3500 
L 1159 3500 
L 1159 2956 
Q 1341 3275 1631 3429 
Q 1922 3584 2338 3584 
Q 2397 3584 2469 3576 
Q 2541 3569 2628 3553 
L 2631 2963 
z
" transform="scale(0.015625)"/>
      <path id="DejaVuSans-70" d="M 1159 525 
L 1159 -1331 
L 581 -1331 
L 581 3500 
L 1159 3500 
L 1159 2969 
Q 1341 3281 1617 3432 
Q 1894 3584 2278 3584 
Q 2916 3584 3314 3078 
Q 3713 2572 3713 1747 
Q 3713 922 3314 415 
Q 2916 -91 2278 -91 
Q 1894 -91 1617 61 
Q 1341 213 1159 525 
z
M 3116 1747 
Q 3116 2381 2855 2742 
Q 2594 3103 2138 3103 
Q 1681 3103 1420 2742 
Q 1159 2381 1159 1747 
Q 1159 1113 1420 752 
Q 1681 391 2138 391 
Q 2594 391 2855 752 
Q 3116 1113 3116 1747 
z
" transform="scale(0.015625)"/>
      <path id="DejaVuSans-69" d="M 603 3500 
L 1178 3500 
L 1178 0 
L 603 0 
L 603 3500 
z
M 603 4863 
L 1178 4863 
L 1178 4134 
L 603 4134 
L 603 4863 
z
" transform="scale(0.015625)"/>
      <path id="DejaVuSans-20" transform="scale(0.015625)"/>
      <path id="DejaVuSans-4c" d="M 628 4666 
L 1259 4666 
L 1259 531 
L 3531 531 
L 3531 0 
L 628 0 
L 628 4666 
z
" transform="scale(0.015625)"/>
      <path id="DejaVuSans-75" d="M 544 1381 
L 544 3500 
L 1119 3500 
L 1119 1403 
Q 1119 906 1312 657 
Q 1506 409 1894 409 
Q 2359 409 2629 706 
Q 2900 1003 2900 1516 
L 2900 3500 
L 3475 3500 
L 3475 0 
L 2900 0 
L 2900 538 
Q 2691 219 2414 64 
Q 2138 -91 1772 -91 
Q 1169 -91 856 284 
Q 544 659 544 1381 
z
M 1991 3584 
L 1991 3584 
z
" transform="scale(0.015625)"/>
      <path id="DejaVuSans-78" d="M 3513 3500 
L 2247 1797 
L 3578 0 
L 2900 0 
L 1881 1375 
L 863 0 
L 184 0 
L 1544 1831 
L 300 3500 
L 978 3500 
L 1906 2253 
L 2834 3500 
L 3513 3500 
z
" transform="scale(0.015625)"/>
      <path id="DejaVuSans-62" d="M 3116 1747 
Q 3116 2381 2855 2742 
Q 2594 3103 2138 3103 
Q 1681 3103 1420 2742 
Q 1159 2381 1159 1747 
Q 1159 1113 1420 752 
Q 1681 391 2138 391 
Q 2594 391 2855 752 
Q 3116 1113 3116 1747 
z
M 1159 2969 
Q 1341 3281 1617 3432 
Q 1894 3584 2278 3584 
Q 2916 3584 3314 3078 
Q 3713 2572 3713 1747 
Q 3713 922 3314 415 
Q 2916 -91 2278 -91 
Q 1894 -91 1617 61 
Q 1341 213 1159 525 
L 1159 0 
L 581 0 
L 581 4863 
L 1159 4863 
L 1159 2969 
z
" transform="scale(0.015625)"/>
      <path id="DejaVuSans-79" d="M 2059 -325 
Q 1816 -950 1584 -1140 
Q 1353 -1331 966 -1331 
L 506 -1331 
L 506 -850 
L 844 -850 
Q 1081 -850 1212 -737 
Q 1344 -625 1503 -206 
L 1606 56 
L 191 3500 
L 800 3500 
L 1894 763 
L 2988 3500 
L 3597 3500 
L 2059 -325 
z
" transform="scale(0.015625)"/>
      <path id="DejaVuSans-6f" d="M 1959 3097 
Q 1497 3097 1228 2736 
Q 959 2375 959 1747 
Q 959 1119 1226 758 
Q 1494 397 1959 397 
Q 2419 397 2687 759 
Q 2956 1122 2956 1747 
Q 2956 2369 2687 2733 
Q 2419 3097 1959 3097 
z
M 1959 3584 
Q 2709 3584 3137 3096 
Q 3566 2609 3566 1747 
Q 3566 888 3137 398 
Q 2709 -91 1959 -91 
Q 1206 -91 779 398 
Q 353 888 353 1747 
Q 353 2609 779 3096 
Q 1206 3584 1959 3584 
z
" transform="scale(0.015625)"/>
     </defs>
     <use xlink:href="#DejaVuSans-45"/>
     <use xlink:href="#DejaVuSans-6e" x="63.183594"/>
     <use xlink:href="#DejaVuSans-74" x="126.5625"/>
     <use xlink:href="#DejaVuSans-65" x="165.771484"/>
     <use xlink:href="#DejaVuSans-72" x="227.294922"/>
     <use xlink:href="#DejaVuSans-70" x="268.408203"/>
     <use xlink:href="#DejaVuSans-72" x="331.884766"/>
     <use xlink:href="#DejaVuSans-69" x="372.998047"/>
     <use xlink:href="#DejaVuSans-73" x="400.78125"/>
     <use xlink:href="#DejaVuSans-65" x="452.880859"/>
     <use xlink:href="#DejaVuSans-20" x="514.404297"/>
     <use xlink:href="#DejaVuSans-4c" x="546.191406"/>
     <use xlink:href="#DejaVuSans-69" x="601.904297"/>
     <use xlink:href="#DejaVuSans-6e" x="629.6875"/>
     <use xlink:href="#DejaVuSans-75" x="693.066406"/>
     <use xlink:href="#DejaVuSans-78" x="756.445312"/>
     <use xlink:href="#DejaVuSans-20" x="815.625"/>
     <use xlink:href="#DejaVuSans-49" x="847.412109"/>
     <use xlink:href="#DejaVuSans-6e" x="876.904297"/>
     <use xlink:href="#DejaVuSans-73" x="940.283203"/>
     <use xlink:href="#DejaVuSans-74" x="992.382812"/>
     <use xlink:href="#DejaVuSans-61" x="1031.591797"/>
     <use xlink:href="#DejaVuSans-6e" x="1092.871094"/>
     <use xlink:href="#DejaVuSans-63" x="1156.25"/>
     <use xlink:href="#DejaVuSans-65" x="1211.230469"/>
     <use xlink:href="#DejaVuSans-73" x="1272.753906"/>
     <use xlink:href="#DejaVuSans-20" x="1324.853516"/>
     <use xlink:href="#DejaVuSans-62" x="1356.640625"/>
     <use xlink:href="#DejaVuSans-79" x="1420.117188"/>
     <use xlink:href="#DejaVuSans-20" x="1479.296875"/>
     <use xlink:href="#DejaVuSans-44" x="1511.083984"/>
     <use xlink:href="#DejaVuSans-69" x="1588.085938"/>
     <use xlink:href="#DejaVuSans-73" x="1615.869141"/>
     <use xlink:href="#DejaVuSans-74" x="1667.96875"/>
     <use xlink:href="#DejaVuSans-72" x="1707.177734"/>
     <use xlink:href="#DejaVuSans-69" x="1748.291016"/>
     <use xlink:href="#DejaVuSans-62" x="1776.074219"/>
     <use xlink:href="#DejaVuSans-75" x="1839.550781"/>
     <use xlink:href="#DejaVuSans-74" x="1902.929688"/>
     <use xlink:href="#DejaVuSans-69" x="1942.138672"/>
     <use xlink:href="#DejaVuSans-6f" x="1969.921875"/>
     <use xlink:href="#DejaVuSans-6e" x="2031.103516"/>
    </g>
   </g>
   <g id="text_23">
    <!-- 2025-03-13 11:54 UTC -->
    <g transform="translate(800.6695 18.14175) scale(0.144 -0.144)">
     <defs>
      <path id="DejaVuSans-33" d="M 2597 2516 
Q 3050 2419 3304 2112 
Q 3559 1806 3559 1356 
Q 3559 666 3084 287 
Q 2609 -91 1734 -91 
Q 1441 -91 1130 -33 
Q 819 25 488 141 
L 488 750 
Q 750 597 1062 519 
Q 1375 441 1716 441 
Q 2309 441 2620 675 
Q 2931 909 2931 1356 
Q 2931 1769 2642 2001 
Q 2353 2234 1838 2234 
L 1294 2234 
L 1294 2753 
L 1863 2753 
Q 2328 2753 2575 2939 
Q 2822 3125 2822 3475 
Q 2822 3834 2567 4026 
Q 2313 4219 1838 4219 
Q 1578 4219 1281 4162 
Q 984 4106 628 3988 
L 628 4550 
Q 988 4650 1302 4700 
Q 1616 4750 1894 4750 
Q 2613 4750 3031 4423 
Q 3450 4097 3450 3541 
Q 3450 3153 3228 2886 
Q 3006 2619 2597 2516 
z
" transform="scale(0.015625)"/>
      <path id="DejaVuSans-3a" d="M 750 794 
L 1409 794 
L 1409 0 
L 750 0 
L 750 794 
z
M 750 3309 
L 1409 3309 
L 1409 2516 
L 750 2516 
L 750 3309 
z
" transform="scale(0.015625)"/>
      <path id="DejaVuSans-55" d="M 556 4666 
L 1191 4666 
L 1191 1831 
Q 1191 1081 1462 751 
Q 1734 422 2344 422 
Q 2950 422 3222 751 
Q 3494 1081 3494 1831 
L 3494 4666 
L 4128 4666 
L 4128 1753 
Q 4128 841 3676 375 
Q 3225 -91 2344 -91 
Q 1459 -91 1007 375 
Q 556 841 556 1753 
L 556 4666 
z
" transform="scale(0.015625)"/>
      <path id="DejaVuSans-54" d="M -19 4666 
L 3928 4666 
L 3928 4134 
L 2272 4134 
L 2272 0 
L 1638 0 
L 1638 4134 
L -19 4134 
L -19 4666 
z
" transform="scale(0.015625)"/>
      <path id="DejaVuSans-43" d="M 4122 4306 
L 4122 3641 
Q 3803 3938 3442 4084 
Q 3081 4231 2675 4231 
Q 1875 4231 1450 3742 
Q 1025 3253 1025 2328 
Q 1025 1406 1450 917 
Q 1875 428 2675 428 
Q 3081 428 3442 575 
Q 3803 722 4122 1019 
L 4122 359 
Q 3791 134 3420 21 
Q 3050 -91 2638 -91 
Q 1578 -91 968 557 
Q 359 1206 359 2328 
Q 359 3453 968 4101 
Q 1578 4750 2638 4750 
Q 3056 4750 3426 4639 
Q 3797 4528 4122 4306 
z
" transform="scale(0.015625)"/>
     </defs>
     <use xlink:href="#DejaVuSans-32"/>
     <use xlink:href="#DejaVuSans-30" x="63.623047"/>
     <use xlink:href="#DejaVuSans-32" x="127.246094"/>
     <use xlink:href="#DejaVuSans-35" x="190.869141"/>
     <use xlink:href="#DejaVuSans-2d" x="254.492188"/>
     <use xlink:href="#DejaVuSans-30" x="290.576172"/>
     <use xlink:href="#DejaVuSans-33" x="354.199219"/>
     <use xlink:href="#DejaVuSans-2d" x="417.822266"/>
     <use xlink:href="#DejaVuSans-31" x="453.90625"/>
     <use xlink:href="#DejaVuSans-33" x="517.529297"/>
     <use xlink:href="#DejaVuSans-20" x="581.152344"/>
     <use xlink:href="#DejaVuSans-31" x="612.939453"/>
     <use xlink:href="#DejaVuSans-31" x="676.5625"/>
     <use xlink:href="#DejaVuSans-3a" x="740.185547"/>
     <use xlink:href="#DejaVuSans-35" x="773.876953"/>
     <use xlink:href="#DejaVuSans-34" x="837.5"/>
     <use xlink:href="#DejaVuSans-20" x="901.123047"/>
     <use xlink:href="#DejaVuSans-55" x="932.910156"/>
     <use xlink:href="#DejaVuSans-54" x="1006.103516"/>
     <use xlink:href="#DejaVuSans-43" x="1061.3125"/>
    </g>
   </g>
   <g id="legend_1">
    <g id="patch_7">
     <path d="M 67.7075 134.888625 
L 176.67625 134.888625 
Q 178.67625 134.888625 178.67625 132.888625 
L 178.67625 31.14175 
Q 178.67625 29.14175 176.67625 29.14175 
L 67.7075 29.14175 
Q 65.7075 29.14175 65.7075 31.14175 
L 65.7075 132.888625 
Q 65.7075 134.888625 67.7075 134.888625 
z
" style="fill: #e5e5e5; opacity: 0.8; stroke: #cccccc; stroke-width: 0.5; stroke-linejoin: miter"/>
    </g>
    <g id="text_24">
     <!-- Distribution -->
     <g transform="translate(93.023125 40.740188) scale(0.1 -0.1)">
      <use xlink:href="#DejaVuSans-44"/>
      <use xlink:href="#DejaVuSans-69" x="77.001953"/>
      <use xlink:href="#DejaVuSans-73" x="104.785156"/>
      <use xlink:href="#DejaVuSans-74" x="156.884766"/>
      <use xlink:href="#DejaVuSans-72" x="196.09375"/>
      <use xlink:href="#DejaVuSans-69" x="237.207031"/>
      <use xlink:href="#DejaVuSans-62" x="264.990234"/>
      <use xlink:href="#DejaVuSans-75" x="328.466797"/>
      <use xlink:href="#DejaVuSans-74" x="391.845703"/>
      <use xlink:href="#DejaVuSans-69" x="431.054688"/>
      <use xlink:href="#DejaVuSans-6f" x="458.837891"/>
      <use xlink:href="#DejaVuSans-6e" x="520.019531"/>
     </g>
    </g>
    <g id="patch_8">
     <path d="M 69.7075 55.418313 
L 89.7075 55.418313 
L 89.7075 48.418313 
L 69.7075 48.418313 
z
" style="fill: #48b585"/>
    </g>
    <g id="text_25">
     <!-- Rocky Linux -->
     <g transform="translate(97.7075 55.418313) scale(0.1 -0.1)">
      <defs>
       <path id="DejaVuSans-52" d="M 2841 2188 
Q 3044 2119 3236 1894 
Q 3428 1669 3622 1275 
L 4263 0 
L 3584 0 
L 2988 1197 
Q 2756 1666 2539 1819 
Q 2322 1972 1947 1972 
L 1259 1972 
L 1259 0 
L 628 0 
L 628 4666 
L 2053 4666 
Q 2853 4666 3247 4331 
Q 3641 3997 3641 3322 
Q 3641 2881 3436 2590 
Q 3231 2300 2841 2188 
z
M 1259 4147 
L 1259 2491 
L 2053 2491 
Q 2509 2491 2742 2702 
Q 2975 2913 2975 3322 
Q 2975 3731 2742 3939 
Q 2509 4147 2053 4147 
L 1259 4147 
z
" transform="scale(0.015625)"/>
       <path id="DejaVuSans-6b" d="M 581 4863 
L 1159 4863 
L 1159 1991 
L 2875 3500 
L 3609 3500 
L 1753 1863 
L 3688 0 
L 2938 0 
L 1159 1709 
L 1159 0 
L 581 0 
L 581 4863 
z
" transform="scale(0.015625)"/>
      </defs>
      <use xlink:href="#DejaVuSans-52"/>
      <use xlink:href="#DejaVuSans-6f" x="64.982422"/>
      <use xlink:href="#DejaVuSans-63" x="126.164062"/>
      <use xlink:href="#DejaVuSans-6b" x="181.144531"/>
      <use xlink:href="#DejaVuSans-79" x="235.429688"/>
      <use xlink:href="#DejaVuSans-20" x="294.609375"/>
      <use xlink:href="#DejaVuSans-4c" x="326.396484"/>
      <use xlink:href="#DejaVuSans-69" x="382.109375"/>
      <use xlink:href="#DejaVuSans-6e" x="409.892578"/>
      <use xlink:href="#DejaVuSans-75" x="473.271484"/>
      <use xlink:href="#DejaVuSans-78" x="536.650391"/>
     </g>
    </g>
    <g id="patch_9">
     <path d="M 69.7075 70.096438 
L 89.7075 70.096438 
L 89.7075 63.096438 
L 69.7075 63.096438 
z
" style="fill: #e2321d"/>
    </g>
    <g id="text_26">
     <!-- RHEL -->
     <g transform="translate(97.7075 70.096438) scale(0.1 -0.1)">
      <defs>
       <path id="DejaVuSans-48" d="M 628 4666 
L 1259 4666 
L 1259 2753 
L 3553 2753 
L 3553 4666 
L 4184 4666 
L 4184 0 
L 3553 0 
L 3553 2222 
L 1259 2222 
L 1259 0 
L 628 0 
L 628 4666 
z
" transform="scale(0.015625)"/>
      </defs>
      <use xlink:href="#DejaVuSans-52"/>
      <use xlink:href="#DejaVuSans-48" x="69.482422"/>
      <use xlink:href="#DejaVuSans-45" x="144.677734"/>
      <use xlink:href="#DejaVuSans-4c" x="207.861328"/>
     </g>
    </g>
    <g id="patch_10">
     <path d="M 69.7075 84.774563 
L 89.7075 84.774563 
L 89.7075 77.774563 
L 69.7075 77.774563 
z
" style="fill: #9a5689"/>
    </g>
    <g id="text_27">
     <!-- CentOS Stream -->
     <g transform="translate(97.7075 84.774563) scale(0.1 -0.1)">
      <defs>
       <path id="DejaVuSans-4f" d="M 2522 4238 
Q 1834 4238 1429 3725 
Q 1025 3213 1025 2328 
Q 1025 1447 1429 934 
Q 1834 422 2522 422 
Q 3209 422 3611 934 
Q 4013 1447 4013 2328 
Q 4013 3213 3611 3725 
Q 3209 4238 2522 4238 
z
M 2522 4750 
Q 3503 4750 4090 4092 
Q 4678 3434 4678 2328 
Q 4678 1225 4090 567 
Q 3503 -91 2522 -91 
Q 1538 -91 948 565 
Q 359 1222 359 2328 
Q 359 3434 948 4092 
Q 1538 4750 2522 4750 
z
" transform="scale(0.015625)"/>
       <path id="DejaVuSans-53" d="M 3425 4513 
L 3425 3897 
Q 3066 4069 2747 4153 
Q 2428 4238 2131 4238 
Q 1616 4238 1336 4038 
Q 1056 3838 1056 3469 
Q 1056 3159 1242 3001 
Q 1428 2844 1947 2747 
L 2328 2669 
Q 3034 2534 3370 2195 
Q 3706 1856 3706 1288 
Q 3706 609 3251 259 
Q 2797 -91 1919 -91 
Q 1588 -91 1214 -16 
Q 841 59 441 206 
L 441 856 
Q 825 641 1194 531 
Q 1563 422 1919 422 
Q 2459 422 2753 634 
Q 3047 847 3047 1241 
Q 3047 1584 2836 1778 
Q 2625 1972 2144 2069 
L 1759 2144 
Q 1053 2284 737 2584 
Q 422 2884 422 3419 
Q 422 4038 858 4394 
Q 1294 4750 2059 4750 
Q 2388 4750 2728 4690 
Q 3069 4631 3425 4513 
z
" transform="scale(0.015625)"/>
       <path id="DejaVuSans-6d" d="M 3328 2828 
Q 3544 3216 3844 3400 
Q 4144 3584 4550 3584 
Q 5097 3584 5394 3201 
Q 5691 2819 5691 2113 
L 5691 0 
L 5113 0 
L 5113 2094 
Q 5113 2597 4934 2840 
Q 4756 3084 4391 3084 
Q 3944 3084 3684 2787 
Q 3425 2491 3425 1978 
L 3425 0 
L 2847 0 
L 2847 2094 
Q 2847 2600 2669 2842 
Q 2491 3084 2119 3084 
Q 1678 3084 1418 2786 
Q 1159 2488 1159 1978 
L 1159 0 
L 581 0 
L 581 3500 
L 1159 3500 
L 1159 2956 
Q 1356 3278 1631 3431 
Q 1906 3584 2284 3584 
Q 2666 3584 2933 3390 
Q 3200 3197 3328 2828 
z
" transform="scale(0.015625)"/>
      </defs>
      <use xlink:href="#DejaVuSans-43"/>
      <use xlink:href="#DejaVuSans-65" x="69.824219"/>
      <use xlink:href="#DejaVuSans-6e" x="131.347656"/>
      <use xlink:href="#DejaVuSans-74" x="194.726562"/>
      <use xlink:href="#DejaVuSans-4f" x="233.935547"/>
      <use xlink:href="#DejaVuSans-53" x="312.646484"/>
      <use xlink:href="#DejaVuSans-20" x="376.123047"/>
      <use xlink:href="#DejaVuSans-53" x="407.910156"/>
      <use xlink:href="#DejaVuSans-74" x="471.386719"/>
      <use xlink:href="#DejaVuSans-72" x="510.595703"/>
      <use xlink:href="#DejaVuSans-65" x="549.458984"/>
      <use xlink:href="#DejaVuSans-61" x="610.982422"/>
      <use xlink:href="#DejaVuSans-6d" x="672.261719"/>
     </g>
    </g>
    <g id="patch_11">
     <path d="M 69.7075 99.452688 
L 89.7075 99.452688 
L 89.7075 92.452688 
L 69.7075 92.452688 
z
" style="fill: #4ac1fa"/>
    </g>
    <g id="text_28">
     <!-- Alma Linux -->
     <g transform="translate(97.7075 99.452688) scale(0.1 -0.1)">
      <defs>
       <path id="DejaVuSans-41" d="M 2188 4044 
L 1331 1722 
L 3047 1722 
L 2188 4044 
z
M 1831 4666 
L 2547 4666 
L 4325 0 
L 3669 0 
L 3244 1197 
L 1141 1197 
L 716 0 
L 50 0 
L 1831 4666 
z
" transform="scale(0.015625)"/>
       <path id="DejaVuSans-6c" d="M 603 4863 
L 1178 4863 
L 1178 0 
L 603 0 
L 603 4863 
z
" transform="scale(0.015625)"/>
      </defs>
      <use xlink:href="#DejaVuSans-41"/>
      <use xlink:href="#DejaVuSans-6c" x="68.408203"/>
      <use xlink:href="#DejaVuSans-6d" x="96.191406"/>
      <use xlink:href="#DejaVuSans-61" x="193.603516"/>
      <use xlink:href="#DejaVuSans-20" x="254.882812"/>
      <use xlink:href="#DejaVuSans-4c" x="286.669922"/>
      <use xlink:href="#DejaVuSans-69" x="342.382812"/>
      <use xlink:href="#DejaVuSans-6e" x="370.166016"/>
      <use xlink:href="#DejaVuSans-75" x="433.544922"/>
      <use xlink:href="#DejaVuSans-78" x="496.923828"/>
     </g>
    </g>
    <g id="patch_12">
     <path d="M 69.7075 114.130813 
L 89.7075 114.130813 
L 89.7075 107.130813 
L 69.7075 107.130813 
z
" style="fill: #be503b"/>
    </g>
    <g id="text_29">
     <!-- Oracle -->
     <g transform="translate(97.7075 114.130813) scale(0.1 -0.1)">
      <use xlink:href="#DejaVuSans-4f"/>
      <use xlink:href="#DejaVuSans-72" x="78.710938"/>
      <use xlink:href="#DejaVuSans-61" x="119.824219"/>
      <use xlink:href="#DejaVuSans-63" x="181.103516"/>
      <use xlink:href="#DejaVuSans-6c" x="236.083984"/>
      <use xlink:href="#DejaVuSans-65" x="263.867188"/>
     </g>
    </g>
    <g id="patch_13">
     <path d="M 69.7075 128.808938 
L 89.7075 128.808938 
L 89.7075 121.808938 
L 69.7075 121.808938 
z
" style="fill: #e9a942"/>
    </g>
    <g id="text_30">
     <!-- CentOS Legacy -->
     <g transform="translate(97.7075 128.808938) scale(0.1 -0.1)">
      <defs>
       <path id="DejaVuSans-67" d="M 2906 1791 
Q 2906 2416 2648 2759 
Q 2391 3103 1925 3103 
Q 1463 3103 1205 2759 
Q 947 2416 947 1791 
Q 947 1169 1205 825 
Q 1463 481 1925 481 
Q 2391 481 2648 825 
Q 2906 1169 2906 1791 
z
M 3481 434 
Q 3481 -459 3084 -895 
Q 2688 -1331 1869 -1331 
Q 1566 -1331 1297 -1286 
Q 1028 -1241 775 -1147 
L 775 -588 
Q 1028 -725 1275 -790 
Q 1522 -856 1778 -856 
Q 2344 -856 2625 -561 
Q 2906 -266 2906 331 
L 2906 616 
Q 2728 306 2450 153 
Q 2172 0 1784 0 
Q 1141 0 747 490 
Q 353 981 353 1791 
Q 353 2603 747 3093 
Q 1141 3584 1784 3584 
Q 2172 3584 2450 3431 
Q 2728 3278 2906 2969 
L 2906 3500 
L 3481 3500 
L 3481 434 
z
" transform="scale(0.015625)"/>
      </defs>
      <use xlink:href="#DejaVuSans-43"/>
      <use xlink:href="#DejaVuSans-65" x="69.824219"/>
      <use xlink:href="#DejaVuSans-6e" x="131.347656"/>
      <use xlink:href="#DejaVuSans-74" x="194.726562"/>
      <use xlink:href="#DejaVuSans-4f" x="233.935547"/>
      <use xlink:href="#DejaVuSans-53" x="312.646484"/>
      <use xlink:href="#DejaVuSans-20" x="376.123047"/>
      <use xlink:href="#DejaVuSans-4c" x="407.910156"/>
      <use xlink:href="#DejaVuSans-65" x="461.873047"/>
      <use xlink:href="#DejaVuSans-67" x="523.396484"/>
      <use xlink:href="#DejaVuSans-61" x="586.873047"/>
      <use xlink:href="#DejaVuSans-63" x="648.152344"/>
      <use xlink:href="#DejaVuSans-79" x="703.132812"/>
     </g>
    </g>
   </g>
  </g>
 </g>
 <defs>
  <clipPath id="p8a8681ec24">
   <rect x="60.7075" y="24.14175" width="902.844" height="554.4"/>
  </clipPath>
 </defs>
</svg>
