<?xml version="1.0" encoding="utf-8" standalone="no"?>
<!DOCTYPE svg PUBLIC "-//W3C//DTD SVG 1.1//EN"
  "http://www.w3.org/Graphics/SVG/1.1/DTD/svg11.dtd">
<svg xmlns:xlink="http://www.w3.org/1999/xlink" width="970.7515pt" height="644.743878pt" viewBox="0 0 970.7515 644.743878" xmlns="http://www.w3.org/2000/svg" version="1.1">
 <metadata>
  <rdf:RDF xmlns:dc="http://purl.org/dc/elements/1.1/" xmlns:cc="http://creativecommons.org/ns#" xmlns:rdf="http://www.w3.org/1999/02/22-rdf-syntax-ns#">
   <cc:Work>
    <dc:type rdf:resource="http://purl.org/dc/dcmitype/StillImage"/>
    <dc:date>2025-06-05T11:54:58.988817</dc:date>
    <dc:format>image/svg+xml</dc:format>
    <dc:creator>
     <cc:Agent>
      <dc:title>Matplotlib v3.6.3, https://matplotlib.org/</dc:title>
     </cc:Agent>
    </dc:creator>
   </cc:Work>
  </rdf:RDF>
 </metadata>
 <defs>
  <style type="text/css">*{stroke-linejoin: round; stroke-linecap: butt}</style>
 </defs>
 <g id="figure_1">
  <g id="patch_1">
   <path d="M 0 644.743878 
L 970.7515 644.743878 
L 970.7515 0 
L 0 0 
z
" style="fill: #ffffff"/>
  </g>
  <g id="axes_1">
   <g id="patch_2">
    <path d="M 60.7075 578.54175 
L 963.5515 578.54175 
L 963.5515 24.14175 
L 60.7075 24.14175 
z
" style="fill: #e5e5e5"/>
   </g>
   <g id="matplotlib.axis_1">
    <g id="xtick_1">
     <g id="line2d_1">
      <path d="M 78.410324 578.54175 
L 78.410324 24.14175 
" clip-path="url(#p1806310b48)" style="fill: none; stroke: #ffffff; stroke-width: 0.8; stroke-linecap: square"/>
     </g>
     <g id="line2d_2">
      <defs>
       <path id="m87d72ffa37" d="M 0 0 
L 0 3.5 
" style="stroke: #555555; stroke-width: 0.8"/>
      </defs>
      <g>
       <use xlink:href="#m87d72ffa37" x="78.410324" y="578.54175" style="fill: #555555; stroke: #555555; stroke-width: 0.8"/>
      </g>
     </g>
     <g id="text_1">
      <!-- 2024-06 -->
      <g style="fill: #555555" transform="translate(65.589041 620.459567) rotate(-45) scale(0.1 -0.1)">
       <defs>
        <path id="DejaVuSans-32" d="M 1228 531 
L 3431 531 
L 3431 0 
L 469 0 
L 469 531 
Q 828 903 1448 1529 
Q 2069 2156 2228 2338 
Q 2531 2678 2651 2914 
Q 2772 3150 2772 3378 
Q 2772 3750 2511 3984 
Q 2250 4219 1831 4219 
Q 1534 4219 1204 4116 
Q 875 4013 500 3803 
L 500 4441 
Q 881 4594 1212 4672 
Q 1544 4750 1819 4750 
Q 2544 4750 2975 4387 
Q 3406 4025 3406 3419 
Q 3406 3131 3298 2873 
Q 3191 2616 2906 2266 
Q 2828 2175 2409 1742 
Q 1991 1309 1228 531 
z
" transform="scale(0.015625)"/>
        <path id="DejaVuSans-30" d="M 2034 4250 
Q 1547 4250 1301 3770 
Q 1056 3291 1056 2328 
Q 1056 1369 1301 889 
Q 1547 409 2034 409 
Q 2525 409 2770 889 
Q 3016 1369 3016 2328 
Q 3016 3291 2770 3770 
Q 2525 4250 2034 4250 
z
M 2034 4750 
Q 2819 4750 3233 4129 
Q 3647 3509 3647 2328 
Q 3647 1150 3233 529 
Q 2819 -91 2034 -91 
Q 1250 -91 836 529 
Q 422 1150 422 2328 
Q 422 3509 836 4129 
Q 1250 4750 2034 4750 
z
" transform="scale(0.015625)"/>
        <path id="DejaVuSans-34" d="M 2419 4116 
L 825 1625 
L 2419 1625 
L 2419 4116 
z
M 2253 4666 
L 3047 4666 
L 3047 1625 
L 3713 1625 
L 3713 1100 
L 3047 1100 
L 3047 0 
L 2419 0 
L 2419 1100 
L 313 1100 
L 313 1709 
L 2253 4666 
z
" transform="scale(0.015625)"/>
        <path id="DejaVuSans-2d" d="M 313 2009 
L 1997 2009 
L 1997 1497 
L 313 1497 
L 313 2009 
z
" transform="scale(0.015625)"/>
        <path id="DejaVuSans-36" d="M 2113 2584 
Q 1688 2584 1439 2293 
Q 1191 2003 1191 1497 
Q 1191 994 1439 701 
Q 1688 409 2113 409 
Q 2538 409 2786 701 
Q 3034 994 3034 1497 
Q 3034 2003 2786 2293 
Q 2538 2584 2113 2584 
z
M 3366 4563 
L 3366 3988 
Q 3128 4100 2886 4159 
Q 2644 4219 2406 4219 
Q 1781 4219 1451 3797 
Q 1122 3375 1075 2522 
Q 1259 2794 1537 2939 
Q 1816 3084 2150 3084 
Q 2853 3084 3261 2657 
Q 3669 2231 3669 1497 
Q 3669 778 3244 343 
Q 2819 -91 2113 -91 
Q 1303 -91 875 529 
Q 447 1150 447 2328 
Q 447 3434 972 4092 
Q 1497 4750 2381 4750 
Q 2619 4750 2861 4703 
Q 3103 4656 3366 4563 
z
" transform="scale(0.015625)"/>
       </defs>
       <use xlink:href="#DejaVuSans-32"/>
       <use xlink:href="#DejaVuSans-30" x="63.623047"/>
       <use xlink:href="#DejaVuSans-32" x="127.246094"/>
       <use xlink:href="#DejaVuSans-34" x="190.869141"/>
       <use xlink:href="#DejaVuSans-2d" x="254.492188"/>
       <use xlink:href="#DejaVuSans-30" x="290.576172"/>
       <use xlink:href="#DejaVuSans-36" x="354.199219"/>
      </g>
     </g>
    </g>
    <g id="xtick_2">
     <g id="line2d_3">
      <path d="M 154.279567 578.54175 
L 154.279567 24.14175 
" clip-path="url(#p1806310b48)" style="fill: none; stroke: #ffffff; stroke-width: 0.8; stroke-linecap: square"/>
     </g>
     <g id="line2d_4">
      <g>
       <use xlink:href="#m87d72ffa37" x="154.279567" y="578.54175" style="fill: #555555; stroke: #555555; stroke-width: 0.8"/>
      </g>
     </g>
     <g id="text_2">
      <!-- 2024-07 -->
      <g style="fill: #555555" transform="translate(141.458285 620.459567) rotate(-45) scale(0.1 -0.1)">
       <defs>
        <path id="DejaVuSans-37" d="M 525 4666 
L 3525 4666 
L 3525 4397 
L 1831 0 
L 1172 0 
L 2766 4134 
L 525 4134 
L 525 4666 
z
" transform="scale(0.015625)"/>
       </defs>
       <use xlink:href="#DejaVuSans-32"/>
       <use xlink:href="#DejaVuSans-30" x="63.623047"/>
       <use xlink:href="#DejaVuSans-32" x="127.246094"/>
       <use xlink:href="#DejaVuSans-34" x="190.869141"/>
       <use xlink:href="#DejaVuSans-2d" x="254.492188"/>
       <use xlink:href="#DejaVuSans-30" x="290.576172"/>
       <use xlink:href="#DejaVuSans-37" x="354.199219"/>
      </g>
     </g>
    </g>
    <g id="xtick_3">
     <g id="line2d_5">
      <path d="M 232.677786 578.54175 
L 232.677786 24.14175 
" clip-path="url(#p1806310b48)" style="fill: none; stroke: #ffffff; stroke-width: 0.8; stroke-linecap: square"/>
     </g>
     <g id="line2d_6">
      <g>
       <use xlink:href="#m87d72ffa37" x="232.677786" y="578.54175" style="fill: #555555; stroke: #555555; stroke-width: 0.8"/>
      </g>
     </g>
     <g id="text_3">
      <!-- 2024-08 -->
      <g style="fill: #555555" transform="translate(219.856503 620.459567) rotate(-45) scale(0.1 -0.1)">
       <defs>
        <path id="DejaVuSans-38" d="M 2034 2216 
Q 1584 2216 1326 1975 
Q 1069 1734 1069 1313 
Q 1069 891 1326 650 
Q 1584 409 2034 409 
Q 2484 409 2743 651 
Q 3003 894 3003 1313 
Q 3003 1734 2745 1975 
Q 2488 2216 2034 2216 
z
M 1403 2484 
Q 997 2584 770 2862 
Q 544 3141 544 3541 
Q 544 4100 942 4425 
Q 1341 4750 2034 4750 
Q 2731 4750 3128 4425 
Q 3525 4100 3525 3541 
Q 3525 3141 3298 2862 
Q 3072 2584 2669 2484 
Q 3125 2378 3379 2068 
Q 3634 1759 3634 1313 
Q 3634 634 3220 271 
Q 2806 -91 2034 -91 
Q 1263 -91 848 271 
Q 434 634 434 1313 
Q 434 1759 690 2068 
Q 947 2378 1403 2484 
z
M 1172 3481 
Q 1172 3119 1398 2916 
Q 1625 2713 2034 2713 
Q 2441 2713 2670 2916 
Q 2900 3119 2900 3481 
Q 2900 3844 2670 4047 
Q 2441 4250 2034 4250 
Q 1625 4250 1398 4047 
Q 1172 3844 1172 3481 
z
" transform="scale(0.015625)"/>
       </defs>
       <use xlink:href="#DejaVuSans-32"/>
       <use xlink:href="#DejaVuSans-30" x="63.623047"/>
       <use xlink:href="#DejaVuSans-32" x="127.246094"/>
       <use xlink:href="#DejaVuSans-34" x="190.869141"/>
       <use xlink:href="#DejaVuSans-2d" x="254.492188"/>
       <use xlink:href="#DejaVuSans-30" x="290.576172"/>
       <use xlink:href="#DejaVuSans-38" x="354.199219"/>
      </g>
     </g>
    </g>
    <g id="xtick_4">
     <g id="line2d_7">
      <path d="M 311.076004 578.54175 
L 311.076004 24.14175 
" clip-path="url(#p1806310b48)" style="fill: none; stroke: #ffffff; stroke-width: 0.8; stroke-linecap: square"/>
     </g>
     <g id="line2d_8">
      <g>
       <use xlink:href="#m87d72ffa37" x="311.076004" y="578.54175" style="fill: #555555; stroke: #555555; stroke-width: 0.8"/>
      </g>
     </g>
     <g id="text_4">
      <!-- 2024-09 -->
      <g style="fill: #555555" transform="translate(298.254722 620.459567) rotate(-45) scale(0.1 -0.1)">
       <defs>
        <path id="DejaVuSans-39" d="M 703 97 
L 703 672 
Q 941 559 1184 500 
Q 1428 441 1663 441 
Q 2288 441 2617 861 
Q 2947 1281 2994 2138 
Q 2813 1869 2534 1725 
Q 2256 1581 1919 1581 
Q 1219 1581 811 2004 
Q 403 2428 403 3163 
Q 403 3881 828 4315 
Q 1253 4750 1959 4750 
Q 2769 4750 3195 4129 
Q 3622 3509 3622 2328 
Q 3622 1225 3098 567 
Q 2575 -91 1691 -91 
Q 1453 -91 1209 -44 
Q 966 3 703 97 
z
M 1959 2075 
Q 2384 2075 2632 2365 
Q 2881 2656 2881 3163 
Q 2881 3666 2632 3958 
Q 2384 4250 1959 4250 
Q 1534 4250 1286 3958 
Q 1038 3666 1038 3163 
Q 1038 2656 1286 2365 
Q 1534 2075 1959 2075 
z
" transform="scale(0.015625)"/>
       </defs>
       <use xlink:href="#DejaVuSans-32"/>
       <use xlink:href="#DejaVuSans-30" x="63.623047"/>
       <use xlink:href="#DejaVuSans-32" x="127.246094"/>
       <use xlink:href="#DejaVuSans-34" x="190.869141"/>
       <use xlink:href="#DejaVuSans-2d" x="254.492188"/>
       <use xlink:href="#DejaVuSans-30" x="290.576172"/>
       <use xlink:href="#DejaVuSans-39" x="354.199219"/>
      </g>
     </g>
    </g>
    <g id="xtick_5">
     <g id="line2d_9">
      <path d="M 386.945248 578.54175 
L 386.945248 24.14175 
" clip-path="url(#p1806310b48)" style="fill: none; stroke: #ffffff; stroke-width: 0.8; stroke-linecap: square"/>
     </g>
     <g id="line2d_10">
      <g>
       <use xlink:href="#m87d72ffa37" x="386.945248" y="578.54175" style="fill: #555555; stroke: #555555; stroke-width: 0.8"/>
      </g>
     </g>
     <g id="text_5">
      <!-- 2024-10 -->
      <g style="fill: #555555" transform="translate(374.123966 620.459567) rotate(-45) scale(0.1 -0.1)">
       <defs>
        <path id="DejaVuSans-31" d="M 794 531 
L 1825 531 
L 1825 4091 
L 703 3866 
L 703 4441 
L 1819 4666 
L 2450 4666 
L 2450 531 
L 3481 531 
L 3481 0 
L 794 0 
L 794 531 
z
" transform="scale(0.015625)"/>
       </defs>
       <use xlink:href="#DejaVuSans-32"/>
       <use xlink:href="#DejaVuSans-30" x="63.623047"/>
       <use xlink:href="#DejaVuSans-32" x="127.246094"/>
       <use xlink:href="#DejaVuSans-34" x="190.869141"/>
       <use xlink:href="#DejaVuSans-2d" x="254.492188"/>
       <use xlink:href="#DejaVuSans-31" x="290.576172"/>
       <use xlink:href="#DejaVuSans-30" x="354.199219"/>
      </g>
     </g>
    </g>
    <g id="xtick_6">
     <g id="line2d_11">
      <path d="M 465.343466 578.54175 
L 465.343466 24.14175 
" clip-path="url(#p1806310b48)" style="fill: none; stroke: #ffffff; stroke-width: 0.8; stroke-linecap: square"/>
     </g>
     <g id="line2d_12">
      <g>
       <use xlink:href="#m87d72ffa37" x="465.343466" y="578.54175" style="fill: #555555; stroke: #555555; stroke-width: 0.8"/>
      </g>
     </g>
     <g id="text_6">
      <!-- 2024-11 -->
      <g style="fill: #555555" transform="translate(452.522184 620.459567) rotate(-45) scale(0.1 -0.1)">
       <use xlink:href="#DejaVuSans-32"/>
       <use xlink:href="#DejaVuSans-30" x="63.623047"/>
       <use xlink:href="#DejaVuSans-32" x="127.246094"/>
       <use xlink:href="#DejaVuSans-34" x="190.869141"/>
       <use xlink:href="#DejaVuSans-2d" x="254.492188"/>
       <use xlink:href="#DejaVuSans-31" x="290.576172"/>
       <use xlink:href="#DejaVuSans-31" x="354.199219"/>
      </g>
     </g>
    </g>
    <g id="xtick_7">
     <g id="line2d_13">
      <path d="M 541.21271 578.54175 
L 541.21271 24.14175 
" clip-path="url(#p1806310b48)" style="fill: none; stroke: #ffffff; stroke-width: 0.8; stroke-linecap: square"/>
     </g>
     <g id="line2d_14">
      <g>
       <use xlink:href="#m87d72ffa37" x="541.21271" y="578.54175" style="fill: #555555; stroke: #555555; stroke-width: 0.8"/>
      </g>
     </g>
     <g id="text_7">
      <!-- 2024-12 -->
      <g style="fill: #555555" transform="translate(528.391428 620.459567) rotate(-45) scale(0.1 -0.1)">
       <use xlink:href="#DejaVuSans-32"/>
       <use xlink:href="#DejaVuSans-30" x="63.623047"/>
       <use xlink:href="#DejaVuSans-32" x="127.246094"/>
       <use xlink:href="#DejaVuSans-34" x="190.869141"/>
       <use xlink:href="#DejaVuSans-2d" x="254.492188"/>
       <use xlink:href="#DejaVuSans-31" x="290.576172"/>
       <use xlink:href="#DejaVuSans-32" x="354.199219"/>
      </g>
     </g>
    </g>
    <g id="xtick_8">
     <g id="line2d_15">
      <path d="M 619.610929 578.54175 
L 619.610929 24.14175 
" clip-path="url(#p1806310b48)" style="fill: none; stroke: #ffffff; stroke-width: 0.8; stroke-linecap: square"/>
     </g>
     <g id="line2d_16">
      <g>
       <use xlink:href="#m87d72ffa37" x="619.610929" y="578.54175" style="fill: #555555; stroke: #555555; stroke-width: 0.8"/>
      </g>
     </g>
     <g id="text_8">
      <!-- 2025-01 -->
      <g style="fill: #555555" transform="translate(606.789646 620.459567) rotate(-45) scale(0.1 -0.1)">
       <defs>
        <path id="DejaVuSans-35" d="M 691 4666 
L 3169 4666 
L 3169 4134 
L 1269 4134 
L 1269 2991 
Q 1406 3038 1543 3061 
Q 1681 3084 1819 3084 
Q 2600 3084 3056 2656 
Q 3513 2228 3513 1497 
Q 3513 744 3044 326 
Q 2575 -91 1722 -91 
Q 1428 -91 1123 -41 
Q 819 9 494 109 
L 494 744 
Q 775 591 1075 516 
Q 1375 441 1709 441 
Q 2250 441 2565 725 
Q 2881 1009 2881 1497 
Q 2881 1984 2565 2268 
Q 2250 2553 1709 2553 
Q 1456 2553 1204 2497 
Q 953 2441 691 2322 
L 691 4666 
z
" transform="scale(0.015625)"/>
       </defs>
       <use xlink:href="#DejaVuSans-32"/>
       <use xlink:href="#DejaVuSans-30" x="63.623047"/>
       <use xlink:href="#DejaVuSans-32" x="127.246094"/>
       <use xlink:href="#DejaVuSans-35" x="190.869141"/>
       <use xlink:href="#DejaVuSans-2d" x="254.492188"/>
       <use xlink:href="#DejaVuSans-30" x="290.576172"/>
       <use xlink:href="#DejaVuSans-31" x="354.199219"/>
      </g>
     </g>
    </g>
    <g id="xtick_9">
     <g id="line2d_17">
      <path d="M 698.009147 578.54175 
L 698.009147 24.14175 
" clip-path="url(#p1806310b48)" style="fill: none; stroke: #ffffff; stroke-width: 0.8; stroke-linecap: square"/>
     </g>
     <g id="line2d_18">
      <g>
       <use xlink:href="#m87d72ffa37" x="698.009147" y="578.54175" style="fill: #555555; stroke: #555555; stroke-width: 0.8"/>
      </g>
     </g>
     <g id="text_9">
      <!-- 2025-02 -->
      <g style="fill: #555555" transform="translate(685.187865 620.459567) rotate(-45) scale(0.1 -0.1)">
       <use xlink:href="#DejaVuSans-32"/>
       <use xlink:href="#DejaVuSans-30" x="63.623047"/>
       <use xlink:href="#DejaVuSans-32" x="127.246094"/>
       <use xlink:href="#DejaVuSans-35" x="190.869141"/>
       <use xlink:href="#DejaVuSans-2d" x="254.492188"/>
       <use xlink:href="#DejaVuSans-30" x="290.576172"/>
       <use xlink:href="#DejaVuSans-32" x="354.199219"/>
      </g>
     </g>
    </g>
    <g id="xtick_10">
     <g id="line2d_19">
      <path d="M 768.820441 578.54175 
L 768.820441 24.14175 
" clip-path="url(#p1806310b48)" style="fill: none; stroke: #ffffff; stroke-width: 0.8; stroke-linecap: square"/>
     </g>
     <g id="line2d_20">
      <g>
       <use xlink:href="#m87d72ffa37" x="768.820441" y="578.54175" style="fill: #555555; stroke: #555555; stroke-width: 0.8"/>
      </g>
     </g>
     <g id="text_10">
      <!-- 2025-03 -->
      <g style="fill: #555555" transform="translate(755.999159 620.459567) rotate(-45) scale(0.1 -0.1)">
       <defs>
        <path id="DejaVuSans-33" d="M 2597 2516 
Q 3050 2419 3304 2112 
Q 3559 1806 3559 1356 
Q 3559 666 3084 287 
Q 2609 -91 1734 -91 
Q 1441 -91 1130 -33 
Q 819 25 488 141 
L 488 750 
Q 750 597 1062 519 
Q 1375 441 1716 441 
Q 2309 441 2620 675 
Q 2931 909 2931 1356 
Q 2931 1769 2642 2001 
Q 2353 2234 1838 2234 
L 1294 2234 
L 1294 2753 
L 1863 2753 
Q 2328 2753 2575 2939 
Q 2822 3125 2822 3475 
Q 2822 3834 2567 4026 
Q 2313 4219 1838 4219 
Q 1578 4219 1281 4162 
Q 984 4106 628 3988 
L 628 4550 
Q 988 4650 1302 4700 
Q 1616 4750 1894 4750 
Q 2613 4750 3031 4423 
Q 3450 4097 3450 3541 
Q 3450 3153 3228 2886 
Q 3006 2619 2597 2516 
z
" transform="scale(0.015625)"/>
       </defs>
       <use xlink:href="#DejaVuSans-32"/>
       <use xlink:href="#DejaVuSans-30" x="63.623047"/>
       <use xlink:href="#DejaVuSans-32" x="127.246094"/>
       <use xlink:href="#DejaVuSans-35" x="190.869141"/>
       <use xlink:href="#DejaVuSans-2d" x="254.492188"/>
       <use xlink:href="#DejaVuSans-30" x="290.576172"/>
       <use xlink:href="#DejaVuSans-33" x="354.199219"/>
      </g>
     </g>
    </g>
    <g id="xtick_11">
     <g id="line2d_21">
      <path d="M 847.21866 578.54175 
L 847.21866 24.14175 
" clip-path="url(#p1806310b48)" style="fill: none; stroke: #ffffff; stroke-width: 0.8; stroke-linecap: square"/>
     </g>
     <g id="line2d_22">
      <g>
       <use xlink:href="#m87d72ffa37" x="847.21866" y="578.54175" style="fill: #555555; stroke: #555555; stroke-width: 0.8"/>
      </g>
     </g>
     <g id="text_11">
      <!-- 2025-04 -->
      <g style="fill: #555555" transform="translate(834.397377 620.459567) rotate(-45) scale(0.1 -0.1)">
       <use xlink:href="#DejaVuSans-32"/>
       <use xlink:href="#DejaVuSans-30" x="63.623047"/>
       <use xlink:href="#DejaVuSans-32" x="127.246094"/>
       <use xlink:href="#DejaVuSans-35" x="190.869141"/>
       <use xlink:href="#DejaVuSans-2d" x="254.492188"/>
       <use xlink:href="#DejaVuSans-30" x="290.576172"/>
       <use xlink:href="#DejaVuSans-34" x="354.199219"/>
      </g>
     </g>
    </g>
    <g id="xtick_12">
     <g id="line2d_23">
      <path d="M 923.087903 578.54175 
L 923.087903 24.14175 
" clip-path="url(#p1806310b48)" style="fill: none; stroke: #ffffff; stroke-width: 0.8; stroke-linecap: square"/>
     </g>
     <g id="line2d_24">
      <g>
       <use xlink:href="#m87d72ffa37" x="923.087903" y="578.54175" style="fill: #555555; stroke: #555555; stroke-width: 0.8"/>
      </g>
     </g>
     <g id="text_12">
      <!-- 2025-05 -->
      <g style="fill: #555555" transform="translate(910.266621 620.459567) rotate(-45) scale(0.1 -0.1)">
       <use xlink:href="#DejaVuSans-32"/>
       <use xlink:href="#DejaVuSans-30" x="63.623047"/>
       <use xlink:href="#DejaVuSans-32" x="127.246094"/>
       <use xlink:href="#DejaVuSans-35" x="190.869141"/>
       <use xlink:href="#DejaVuSans-2d" x="254.492188"/>
       <use xlink:href="#DejaVuSans-30" x="290.576172"/>
       <use xlink:href="#DejaVuSans-35" x="354.199219"/>
      </g>
     </g>
    </g>
    <g id="text_13">
     <!-- Date -->
     <g style="fill: #555555" transform="translate(497.788563 635.048253) scale(0.12 -0.12)">
      <defs>
       <path id="DejaVuSans-44" d="M 1259 4147 
L 1259 519 
L 2022 519 
Q 2988 519 3436 956 
Q 3884 1394 3884 2338 
Q 3884 3275 3436 3711 
Q 2988 4147 2022 4147 
L 1259 4147 
z
M 628 4666 
L 1925 4666 
Q 3281 4666 3915 4102 
Q 4550 3538 4550 2338 
Q 4550 1131 3912 565 
Q 3275 0 1925 0 
L 628 0 
L 628 4666 
z
" transform="scale(0.015625)"/>
       <path id="DejaVuSans-61" d="M 2194 1759 
Q 1497 1759 1228 1600 
Q 959 1441 959 1056 
Q 959 750 1161 570 
Q 1363 391 1709 391 
Q 2188 391 2477 730 
Q 2766 1069 2766 1631 
L 2766 1759 
L 2194 1759 
z
M 3341 1997 
L 3341 0 
L 2766 0 
L 2766 531 
Q 2569 213 2275 61 
Q 1981 -91 1556 -91 
Q 1019 -91 701 211 
Q 384 513 384 1019 
Q 384 1609 779 1909 
Q 1175 2209 1959 2209 
L 2766 2209 
L 2766 2266 
Q 2766 2663 2505 2880 
Q 2244 3097 1772 3097 
Q 1472 3097 1187 3025 
Q 903 2953 641 2809 
L 641 3341 
Q 956 3463 1253 3523 
Q 1550 3584 1831 3584 
Q 2591 3584 2966 3190 
Q 3341 2797 3341 1997 
z
" transform="scale(0.015625)"/>
       <path id="DejaVuSans-74" d="M 1172 4494 
L 1172 3500 
L 2356 3500 
L 2356 3053 
L 1172 3053 
L 1172 1153 
Q 1172 725 1289 603 
Q 1406 481 1766 481 
L 2356 481 
L 2356 0 
L 1766 0 
Q 1100 0 847 248 
Q 594 497 594 1153 
L 594 3053 
L 172 3053 
L 172 3500 
L 594 3500 
L 594 4494 
L 1172 4494 
z
" transform="scale(0.015625)"/>
       <path id="DejaVuSans-65" d="M 3597 1894 
L 3597 1613 
L 953 1613 
Q 991 1019 1311 708 
Q 1631 397 2203 397 
Q 2534 397 2845 478 
Q 3156 559 3463 722 
L 3463 178 
Q 3153 47 2828 -22 
Q 2503 -91 2169 -91 
Q 1331 -91 842 396 
Q 353 884 353 1716 
Q 353 2575 817 3079 
Q 1281 3584 2069 3584 
Q 2775 3584 3186 3129 
Q 3597 2675 3597 1894 
z
M 3022 2063 
Q 3016 2534 2758 2815 
Q 2500 3097 2075 3097 
Q 1594 3097 1305 2825 
Q 1016 2553 972 2059 
L 3022 2063 
z
" transform="scale(0.015625)"/>
      </defs>
      <use xlink:href="#DejaVuSans-44"/>
      <use xlink:href="#DejaVuSans-61" x="77.001953"/>
      <use xlink:href="#DejaVuSans-74" x="138.28125"/>
      <use xlink:href="#DejaVuSans-65" x="177.490234"/>
     </g>
    </g>
   </g>
   <g id="matplotlib.axis_2">
    <g id="ytick_1">
     <g id="line2d_25">
      <path d="M 60.7075 578.54175 
L 963.5515 578.54175 
" clip-path="url(#p1806310b48)" style="fill: none; stroke: #ffffff; stroke-width: 0.8; stroke-linecap: square"/>
     </g>
     <g id="line2d_26">
      <defs>
       <path id="m0ac16eb3d5" d="M 0 0 
L -3.5 0 
" style="stroke: #555555; stroke-width: 0.8"/>
      </defs>
      <g>
       <use xlink:href="#m0ac16eb3d5" x="60.7075" y="578.54175" style="fill: #555555; stroke: #555555; stroke-width: 0.8"/>
      </g>
     </g>
     <g id="text_14">
      <!-- 0.0M -->
      <g style="fill: #555555" transform="translate(29.17625 582.340969) scale(0.1 -0.1)">
       <defs>
        <path id="DejaVuSans-2e" d="M 684 794 
L 1344 794 
L 1344 0 
L 684 0 
L 684 794 
z
" transform="scale(0.015625)"/>
        <path id="DejaVuSans-4d" d="M 628 4666 
L 1569 4666 
L 2759 1491 
L 3956 4666 
L 4897 4666 
L 4897 0 
L 4281 0 
L 4281 4097 
L 3078 897 
L 2444 897 
L 1241 4097 
L 1241 0 
L 628 0 
L 628 4666 
z
" transform="scale(0.015625)"/>
       </defs>
       <use xlink:href="#DejaVuSans-30"/>
       <use xlink:href="#DejaVuSans-2e" x="63.623047"/>
       <use xlink:href="#DejaVuSans-30" x="95.410156"/>
       <use xlink:href="#DejaVuSans-4d" x="159.033203"/>
      </g>
     </g>
    </g>
    <g id="ytick_2">
     <g id="line2d_27">
      <path d="M 60.7075 510.666911 
L 963.5515 510.666911 
" clip-path="url(#p1806310b48)" style="fill: none; stroke: #ffffff; stroke-width: 0.8; stroke-linecap: square"/>
     </g>
     <g id="line2d_28">
      <g>
       <use xlink:href="#m0ac16eb3d5" x="60.7075" y="510.666911" style="fill: #555555; stroke: #555555; stroke-width: 0.8"/>
      </g>
     </g>
     <g id="text_15">
      <!-- 2.5M -->
      <g style="fill: #555555" transform="translate(29.17625 514.46613) scale(0.1 -0.1)">
       <use xlink:href="#DejaVuSans-32"/>
       <use xlink:href="#DejaVuSans-2e" x="63.623047"/>
       <use xlink:href="#DejaVuSans-35" x="95.410156"/>
       <use xlink:href="#DejaVuSans-4d" x="159.033203"/>
      </g>
     </g>
    </g>
    <g id="ytick_3">
     <g id="line2d_29">
      <path d="M 60.7075 442.792072 
L 963.5515 442.792072 
" clip-path="url(#p1806310b48)" style="fill: none; stroke: #ffffff; stroke-width: 0.8; stroke-linecap: square"/>
     </g>
     <g id="line2d_30">
      <g>
       <use xlink:href="#m0ac16eb3d5" x="60.7075" y="442.792072" style="fill: #555555; stroke: #555555; stroke-width: 0.8"/>
      </g>
     </g>
     <g id="text_16">
      <!-- 5.0M -->
      <g style="fill: #555555" transform="translate(29.17625 446.591291) scale(0.1 -0.1)">
       <use xlink:href="#DejaVuSans-35"/>
       <use xlink:href="#DejaVuSans-2e" x="63.623047"/>
       <use xlink:href="#DejaVuSans-30" x="95.410156"/>
       <use xlink:href="#DejaVuSans-4d" x="159.033203"/>
      </g>
     </g>
    </g>
    <g id="ytick_4">
     <g id="line2d_31">
      <path d="M 60.7075 374.917234 
L 963.5515 374.917234 
" clip-path="url(#p1806310b48)" style="fill: none; stroke: #ffffff; stroke-width: 0.8; stroke-linecap: square"/>
     </g>
     <g id="line2d_32">
      <g>
       <use xlink:href="#m0ac16eb3d5" x="60.7075" y="374.917234" style="fill: #555555; stroke: #555555; stroke-width: 0.8"/>
      </g>
     </g>
     <g id="text_17">
      <!-- 7.5M -->
      <g style="fill: #555555" transform="translate(29.17625 378.716452) scale(0.1 -0.1)">
       <use xlink:href="#DejaVuSans-37"/>
       <use xlink:href="#DejaVuSans-2e" x="63.623047"/>
       <use xlink:href="#DejaVuSans-35" x="95.410156"/>
       <use xlink:href="#DejaVuSans-4d" x="159.033203"/>
      </g>
     </g>
    </g>
    <g id="ytick_5">
     <g id="line2d_33">
      <path d="M 60.7075 307.042395 
L 963.5515 307.042395 
" clip-path="url(#p1806310b48)" style="fill: none; stroke: #ffffff; stroke-width: 0.8; stroke-linecap: square"/>
     </g>
     <g id="line2d_34">
      <g>
       <use xlink:href="#m0ac16eb3d5" x="60.7075" y="307.042395" style="fill: #555555; stroke: #555555; stroke-width: 0.8"/>
      </g>
     </g>
     <g id="text_18">
      <!-- 10.0M -->
      <g style="fill: #555555" transform="translate(22.81375 310.841614) scale(0.1 -0.1)">
       <use xlink:href="#DejaVuSans-31"/>
       <use xlink:href="#DejaVuSans-30" x="63.623047"/>
       <use xlink:href="#DejaVuSans-2e" x="127.246094"/>
       <use xlink:href="#DejaVuSans-30" x="159.033203"/>
       <use xlink:href="#DejaVuSans-4d" x="222.65625"/>
      </g>
     </g>
    </g>
    <g id="ytick_6">
     <g id="line2d_35">
      <path d="M 60.7075 239.167556 
L 963.5515 239.167556 
" clip-path="url(#p1806310b48)" style="fill: none; stroke: #ffffff; stroke-width: 0.8; stroke-linecap: square"/>
     </g>
     <g id="line2d_36">
      <g>
       <use xlink:href="#m0ac16eb3d5" x="60.7075" y="239.167556" style="fill: #555555; stroke: #555555; stroke-width: 0.8"/>
      </g>
     </g>
     <g id="text_19">
      <!-- 12.5M -->
      <g style="fill: #555555" transform="translate(22.81375 242.966775) scale(0.1 -0.1)">
       <use xlink:href="#DejaVuSans-31"/>
       <use xlink:href="#DejaVuSans-32" x="63.623047"/>
       <use xlink:href="#DejaVuSans-2e" x="127.246094"/>
       <use xlink:href="#DejaVuSans-35" x="159.033203"/>
       <use xlink:href="#DejaVuSans-4d" x="222.65625"/>
      </g>
     </g>
    </g>
    <g id="ytick_7">
     <g id="line2d_37">
      <path d="M 60.7075 171.292717 
L 963.5515 171.292717 
" clip-path="url(#p1806310b48)" style="fill: none; stroke: #ffffff; stroke-width: 0.8; stroke-linecap: square"/>
     </g>
     <g id="line2d_38">
      <g>
       <use xlink:href="#m0ac16eb3d5" x="60.7075" y="171.292717" style="fill: #555555; stroke: #555555; stroke-width: 0.8"/>
      </g>
     </g>
     <g id="text_20">
      <!-- 15.0M -->
      <g style="fill: #555555" transform="translate(22.81375 175.091936) scale(0.1 -0.1)">
       <use xlink:href="#DejaVuSans-31"/>
       <use xlink:href="#DejaVuSans-35" x="63.623047"/>
       <use xlink:href="#DejaVuSans-2e" x="127.246094"/>
       <use xlink:href="#DejaVuSans-30" x="159.033203"/>
       <use xlink:href="#DejaVuSans-4d" x="222.65625"/>
      </g>
     </g>
    </g>
    <g id="ytick_8">
     <g id="line2d_39">
      <path d="M 60.7075 103.417878 
L 963.5515 103.417878 
" clip-path="url(#p1806310b48)" style="fill: none; stroke: #ffffff; stroke-width: 0.8; stroke-linecap: square"/>
     </g>
     <g id="line2d_40">
      <g>
       <use xlink:href="#m0ac16eb3d5" x="60.7075" y="103.417878" style="fill: #555555; stroke: #555555; stroke-width: 0.8"/>
      </g>
     </g>
     <g id="text_21">
      <!-- 17.5M -->
      <g style="fill: #555555" transform="translate(22.81375 107.217097) scale(0.1 -0.1)">
       <use xlink:href="#DejaVuSans-31"/>
       <use xlink:href="#DejaVuSans-37" x="63.623047"/>
       <use xlink:href="#DejaVuSans-2e" x="127.246094"/>
       <use xlink:href="#DejaVuSans-35" x="159.033203"/>
       <use xlink:href="#DejaVuSans-4d" x="222.65625"/>
      </g>
     </g>
    </g>
    <g id="ytick_9">
     <g id="line2d_41">
      <path d="M 60.7075 35.54304 
L 963.5515 35.54304 
" clip-path="url(#p1806310b48)" style="fill: none; stroke: #ffffff; stroke-width: 0.8; stroke-linecap: square"/>
     </g>
     <g id="line2d_42">
      <g>
       <use xlink:href="#m0ac16eb3d5" x="60.7075" y="35.54304" style="fill: #555555; stroke: #555555; stroke-width: 0.8"/>
      </g>
     </g>
     <g id="text_22">
      <!-- 20.0M -->
      <g style="fill: #555555" transform="translate(22.81375 39.342258) scale(0.1 -0.1)">
       <use xlink:href="#DejaVuSans-32"/>
       <use xlink:href="#DejaVuSans-30" x="63.623047"/>
       <use xlink:href="#DejaVuSans-2e" x="127.246094"/>
       <use xlink:href="#DejaVuSans-30" x="159.033203"/>
       <use xlink:href="#DejaVuSans-4d" x="222.65625"/>
      </g>
     </g>
    </g>
    <g id="text_23">
     <!-- Instances -->
     <g style="fill: #555555" transform="translate(16.318125 329.988) rotate(-90) scale(0.12 -0.12)">
      <defs>
       <path id="DejaVuSans-49" d="M 628 4666 
L 1259 4666 
L 1259 0 
L 628 0 
L 628 4666 
z
" transform="scale(0.015625)"/>
       <path id="DejaVuSans-6e" d="M 3513 2113 
L 3513 0 
L 2938 0 
L 2938 2094 
Q 2938 2591 2744 2837 
Q 2550 3084 2163 3084 
Q 1697 3084 1428 2787 
Q 1159 2491 1159 1978 
L 1159 0 
L 581 0 
L 581 3500 
L 1159 3500 
L 1159 2956 
Q 1366 3272 1645 3428 
Q 1925 3584 2291 3584 
Q 2894 3584 3203 3211 
Q 3513 2838 3513 2113 
z
" transform="scale(0.015625)"/>
       <path id="DejaVuSans-73" d="M 2834 3397 
L 2834 2853 
Q 2591 2978 2328 3040 
Q 2066 3103 1784 3103 
Q 1356 3103 1142 2972 
Q 928 2841 928 2578 
Q 928 2378 1081 2264 
Q 1234 2150 1697 2047 
L 1894 2003 
Q 2506 1872 2764 1633 
Q 3022 1394 3022 966 
Q 3022 478 2636 193 
Q 2250 -91 1575 -91 
Q 1294 -91 989 -36 
Q 684 19 347 128 
L 347 722 
Q 666 556 975 473 
Q 1284 391 1588 391 
Q 1994 391 2212 530 
Q 2431 669 2431 922 
Q 2431 1156 2273 1281 
Q 2116 1406 1581 1522 
L 1381 1569 
Q 847 1681 609 1914 
Q 372 2147 372 2553 
Q 372 3047 722 3315 
Q 1072 3584 1716 3584 
Q 2034 3584 2315 3537 
Q 2597 3491 2834 3397 
z
" transform="scale(0.015625)"/>
       <path id="DejaVuSans-63" d="M 3122 3366 
L 3122 2828 
Q 2878 2963 2633 3030 
Q 2388 3097 2138 3097 
Q 1578 3097 1268 2742 
Q 959 2388 959 1747 
Q 959 1106 1268 751 
Q 1578 397 2138 397 
Q 2388 397 2633 464 
Q 2878 531 3122 666 
L 3122 134 
Q 2881 22 2623 -34 
Q 2366 -91 2075 -91 
Q 1284 -91 818 406 
Q 353 903 353 1747 
Q 353 2603 823 3093 
Q 1294 3584 2113 3584 
Q 2378 3584 2631 3529 
Q 2884 3475 3122 3366 
z
" transform="scale(0.015625)"/>
      </defs>
      <use xlink:href="#DejaVuSans-49"/>
      <use xlink:href="#DejaVuSans-6e" x="29.492188"/>
      <use xlink:href="#DejaVuSans-73" x="92.871094"/>
      <use xlink:href="#DejaVuSans-74" x="144.970703"/>
      <use xlink:href="#DejaVuSans-61" x="184.179688"/>
      <use xlink:href="#DejaVuSans-6e" x="245.458984"/>
      <use xlink:href="#DejaVuSans-63" x="308.837891"/>
      <use xlink:href="#DejaVuSans-65" x="363.818359"/>
      <use xlink:href="#DejaVuSans-73" x="425.341797"/>
     </g>
    </g>
   </g>
   <g id="PolyCollection_1">
    <path d="M 60.7075 457.081626 
L 60.7075 578.54175 
L 78.410324 578.54175 
L 96.113147 578.54175 
L 113.815971 578.54175 
L 131.518794 578.54175 
L 149.221618 578.54175 
L 166.924441 578.54175 
L 184.627265 578.54175 
L 202.330088 578.54175 
L 220.032912 578.54175 
L 237.735735 578.54175 
L 255.438559 578.54175 
L 273.141382 578.54175 
L 290.844206 578.54175 
L 308.547029 578.54175 
L 326.249853 578.54175 
L 343.952676 578.54175 
L 361.6555 578.54175 
L 379.358324 578.54175 
L 397.061147 578.54175 
L 414.763971 578.54175 
L 432.466794 578.54175 
L 450.169618 578.54175 
L 467.872441 578.54175 
L 485.575265 578.54175 
L 503.278088 578.54175 
L 520.980912 578.54175 
L 538.683735 578.54175 
L 556.386559 578.54175 
L 574.089382 578.54175 
L 591.792206 578.54175 
L 609.495029 578.54175 
L 627.197853 578.54175 
L 644.900676 578.54175 
L 662.6035 578.54175 
L 680.306324 578.54175 
L 698.009147 578.54175 
L 715.711971 578.54175 
L 733.414794 578.54175 
L 751.117618 578.54175 
L 768.820441 578.54175 
L 786.523265 578.54175 
L 804.226088 578.54175 
L 821.928912 578.54175 
L 839.631735 578.54175 
L 857.334559 578.54175 
L 875.037382 578.54175 
L 892.740206 578.54175 
L 910.443029 578.54175 
L 928.145853 578.54175 
L 945.848676 578.54175 
L 963.5515 578.54175 
L 963.5515 379.351605 
L 963.5515 379.351605 
L 945.848676 378.209761 
L 928.145853 380.358841 
L 910.443029 380.649725 
L 892.740206 384.546746 
L 875.037382 383.741044 
L 857.334559 386.469314 
L 839.631735 381.068594 
L 821.928912 382.283391 
L 804.226088 383.741831 
L 786.523265 382.481233 
L 768.820441 388.706251 
L 751.117618 387.95485 
L 733.414794 389.958977 
L 715.711971 390.241852 
L 698.009147 389.335044 
L 680.306324 394.313853 
L 662.6035 396.344777 
L 644.900676 397.484939 
L 627.197853 399.575647 
L 609.495029 403.019263 
L 591.792206 412.32884 
L 574.089382 413.676101 
L 556.386559 401.681287 
L 538.683735 402.260097 
L 520.980912 405.656363 
L 503.278088 411.540759 
L 485.575265 407.587973 
L 467.872441 411.334392 
L 450.169618 411.305831 
L 432.466794 412.813412 
L 414.763971 413.649549 
L 397.061147 416.242992 
L 379.358324 418.947071 
L 361.6555 425.982651 
L 343.952676 424.00877 
L 326.249853 429.134053 
L 308.547029 430.873848 
L 290.844206 435.152298 
L 273.141382 435.381362 
L 255.438559 437.536768 
L 237.735735 438.731827 
L 220.032912 443.88274 
L 202.330088 444.309917 
L 184.627265 447.029471 
L 166.924441 447.277405 
L 149.221618 447.965085 
L 131.518794 452.751538 
L 113.815971 451.904595 
L 96.113147 448.841458 
L 78.410324 454.949298 
L 60.7075 457.081626 
z
" clip-path="url(#p1806310b48)" style="fill: #48b585"/>
   </g>
   <g id="PolyCollection_2">
    <path d="M 60.7075 393.472477 
L 60.7075 457.081626 
L 78.410324 454.949298 
L 96.113147 448.841458 
L 113.815971 451.904595 
L 131.518794 452.751538 
L 149.221618 447.965085 
L 166.924441 447.277405 
L 184.627265 447.029471 
L 202.330088 444.309917 
L 220.032912 443.88274 
L 237.735735 438.731827 
L 255.438559 437.536768 
L 273.141382 435.381362 
L 290.844206 435.152298 
L 308.547029 430.873848 
L 326.249853 429.134053 
L 343.952676 424.00877 
L 361.6555 425.982651 
L 379.358324 418.947071 
L 397.061147 416.242992 
L 414.763971 413.649549 
L 432.466794 412.813412 
L 450.169618 411.305831 
L 467.872441 411.334392 
L 485.575265 407.587973 
L 503.278088 411.540759 
L 520.980912 405.656363 
L 538.683735 402.260097 
L 556.386559 401.681287 
L 574.089382 413.676101 
L 591.792206 412.32884 
L 609.495029 403.019263 
L 627.197853 399.575647 
L 644.900676 397.484939 
L 662.6035 396.344777 
L 680.306324 394.313853 
L 698.009147 389.335044 
L 715.711971 390.241852 
L 733.414794 389.958977 
L 751.117618 387.95485 
L 768.820441 388.706251 
L 786.523265 382.481233 
L 804.226088 383.741831 
L 821.928912 382.283391 
L 839.631735 381.068594 
L 857.334559 386.469314 
L 875.037382 383.741044 
L 892.740206 384.546746 
L 910.443029 380.649725 
L 928.145853 380.358841 
L 945.848676 378.209761 
L 963.5515 379.351605 
L 963.5515 291.760049 
L 963.5515 291.760049 
L 945.848676 289.471174 
L 928.145853 292.70788 
L 910.443029 293.34061 
L 892.740206 300.76742 
L 875.037382 298.462391 
L 857.334559 302.386289 
L 839.631735 294.980276 
L 821.928912 297.273712 
L 804.226088 298.871622 
L 786.523265 295.86797 
L 768.820441 304.347981 
L 751.117618 303.141248 
L 733.414794 305.471472 
L 715.711971 305.944723 
L 698.009147 306.024245 
L 680.306324 312.022915 
L 662.6035 314.149678 
L 644.900676 316.54175 
L 627.197853 318.089486 
L 609.495029 322.218096 
L 591.792206 336.63444 
L 574.089382 338.405104 
L 556.386559 320.320288 
L 538.683735 320.307256 
L 520.980912 323.882034 
L 503.278088 331.921428 
L 485.575265 326.44716 
L 467.872441 331.222996 
L 450.169618 332.000353 
L 432.466794 333.266735 
L 414.763971 333.290247 
L 397.061147 337.413236 
L 379.358324 340.719745 
L 361.6555 347.513962 
L 343.952676 347.816114 
L 326.249853 352.955868 
L 308.547029 355.130062 
L 290.844206 359.827924 
L 273.141382 360.227815 
L 255.438559 360.737474 
L 237.735735 363.975212 
L 220.032912 371.132397 
L 202.330088 370.579271 
L 184.627265 375.452223 
L 166.924441 377.657965 
L 149.221618 379.175538 
L 131.518794 386.231263 
L 113.815971 384.549596 
L 96.113147 377.484857 
L 78.410324 389.136551 
L 60.7075 393.472477 
z
" clip-path="url(#p1806310b48)" style="fill: #e2321d"/>
   </g>
   <g id="PolyCollection_3">
    <path d="M 60.7075 359.220145 
L 60.7075 393.472477 
L 78.410324 389.136551 
L 96.113147 377.484857 
L 113.815971 384.549596 
L 131.518794 386.231263 
L 149.221618 379.175538 
L 166.924441 377.657965 
L 184.627265 375.452223 
L 202.330088 370.579271 
L 220.032912 371.132397 
L 237.735735 363.975212 
L 255.438559 360.737474 
L 273.141382 360.227815 
L 290.844206 359.827924 
L 308.547029 355.130062 
L 326.249853 352.955868 
L 343.952676 347.816114 
L 361.6555 347.513962 
L 379.358324 340.719745 
L 397.061147 337.413236 
L 414.763971 333.290247 
L 432.466794 333.266735 
L 450.169618 332.000353 
L 467.872441 331.222996 
L 485.575265 326.44716 
L 503.278088 331.921428 
L 520.980912 323.882034 
L 538.683735 320.307256 
L 556.386559 320.320288 
L 574.089382 338.405104 
L 591.792206 336.63444 
L 609.495029 322.218096 
L 627.197853 318.089486 
L 644.900676 316.54175 
L 662.6035 314.149678 
L 680.306324 312.022915 
L 698.009147 306.024245 
L 715.711971 305.944723 
L 733.414794 305.471472 
L 751.117618 303.141248 
L 768.820441 304.347981 
L 786.523265 295.86797 
L 804.226088 298.871622 
L 821.928912 297.273712 
L 839.631735 294.980276 
L 857.334559 302.386289 
L 875.037382 298.462391 
L 892.740206 300.76742 
L 910.443029 293.34061 
L 928.145853 292.70788 
L 945.848676 289.471174 
L 963.5515 291.760049 
L 963.5515 237.056703 
L 963.5515 237.056703 
L 945.848676 236.473251 
L 928.145853 238.805729 
L 910.443029 239.047119 
L 892.740206 249.141329 
L 875.037382 245.773271 
L 857.334559 250.222657 
L 839.631735 242.709265 
L 821.928912 245.168805 
L 804.226088 247.097754 
L 786.523265 242.507405 
L 768.820441 253.267223 
L 751.117618 251.602579 
L 733.414794 255.058902 
L 715.711971 256.406 
L 698.009147 256.859404 
L 680.306324 262.616602 
L 662.6035 266.476319 
L 644.900676 269.136089 
L 627.197853 270.93499 
L 609.495029 275.05673 
L 591.792206 291.765343 
L 574.089382 294.069124 
L 556.386559 274.62225 
L 538.683735 275.044784 
L 520.980912 278.812924 
L 503.278088 287.467671 
L 485.575265 282.049983 
L 467.872441 288.031766 
L 450.169618 289.478233 
L 432.466794 291.539782 
L 414.763971 292.428209 
L 397.061147 297.309713 
L 379.358324 301.161176 
L 361.6555 308.175063 
L 343.952676 308.507623 
L 326.249853 314.588013 
L 308.547029 316.846454 
L 290.844206 322.501975 
L 273.141382 322.070264 
L 255.438559 324.216657 
L 237.735735 329.008349 
L 220.032912 336.715482 
L 202.330088 334.235173 
L 184.627265 339.127456 
L 166.924441 340.825983 
L 149.221618 343.51312 
L 131.518794 351.983086 
L 113.815971 351.15466 
L 96.113147 346.355474 
L 78.410324 361.238064 
L 60.7075 359.220145 
z
" clip-path="url(#p1806310b48)" style="fill: #9a5689"/>
   </g>
   <g id="PolyCollection_4">
    <path d="M 60.7075 266.281545 
L 60.7075 359.220145 
L 78.410324 361.238064 
L 96.113147 346.355474 
L 113.815971 351.15466 
L 131.518794 351.983086 
L 149.221618 343.51312 
L 166.924441 340.825983 
L 184.627265 339.127456 
L 202.330088 334.235173 
L 220.032912 336.715482 
L 237.735735 329.008349 
L 255.438559 324.216657 
L 273.141382 322.070264 
L 290.844206 322.501975 
L 308.547029 316.846454 
L 326.249853 314.588013 
L 343.952676 308.507623 
L 361.6555 308.175063 
L 379.358324 301.161176 
L 397.061147 297.309713 
L 414.763971 292.428209 
L 432.466794 291.539782 
L 450.169618 289.478233 
L 467.872441 288.031766 
L 485.575265 282.049983 
L 503.278088 287.467671 
L 520.980912 278.812924 
L 538.683735 275.044784 
L 556.386559 274.62225 
L 574.089382 294.069124 
L 591.792206 291.765343 
L 609.495029 275.05673 
L 627.197853 270.93499 
L 644.900676 269.136089 
L 662.6035 266.476319 
L 680.306324 262.616602 
L 698.009147 256.859404 
L 715.711971 256.406 
L 733.414794 255.058902 
L 751.117618 251.602579 
L 768.820441 253.267223 
L 786.523265 242.507405 
L 804.226088 247.097754 
L 821.928912 245.168805 
L 839.631735 242.709265 
L 857.334559 250.222657 
L 875.037382 245.773271 
L 892.740206 249.141329 
L 910.443029 239.047119 
L 928.145853 238.805729 
L 945.848676 236.473251 
L 963.5515 237.056703 
L 963.5515 73.549854 
L 963.5515 73.549854 
L 945.848676 73.565601 
L 928.145853 77.390946 
L 910.443029 82.156384 
L 892.740206 104.709211 
L 875.037382 98.832933 
L 857.334559 105.019019 
L 839.631735 98.125134 
L 821.928912 101.032865 
L 804.226088 102.653635 
L 786.523265 99.004439 
L 768.820441 110.996294 
L 751.117618 112.28502 
L 733.414794 115.690057 
L 715.711971 118.607833 
L 698.009147 120.197679 
L 680.306324 126.695853 
L 662.6035 131.626308 
L 644.900676 135.285468 
L 627.197853 138.631426 
L 609.495029 144.323845 
L 591.792206 165.616073 
L 574.089382 168.325827 
L 556.386559 145.68297 
L 538.683735 146.481504 
L 520.980912 151.300645 
L 503.278088 161.037046 
L 485.575265 156.107894 
L 467.872441 164.992792 
L 450.169618 167.374167 
L 432.466794 171.293722 
L 414.763971 171.961284 
L 397.061147 177.9981 
L 379.358324 182.494075 
L 361.6555 190.930537 
L 343.952676 192.231671 
L 326.249853 200.13803 
L 308.547029 203.83949 
L 290.844206 211.1135 
L 273.141382 211.331596 
L 255.438559 214.547777 
L 237.735735 221.487572 
L 220.032912 229.500496 
L 202.330088 228.755176 
L 184.627265 234.464373 
L 166.924441 237.585502 
L 149.221618 241.563674 
L 131.518794 252.291346 
L 113.815971 252.656377 
L 96.113147 249.541058 
L 78.410324 265.618462 
L 60.7075 266.281545 
z
" clip-path="url(#p1806310b48)" style="fill: #4ac1fa"/>
   </g>
   <g id="PolyCollection_5">
    <path d="M 60.7075 250.477079 
L 60.7075 266.281545 
L 78.410324 265.618462 
L 96.113147 249.541058 
L 113.815971 252.656377 
L 131.518794 252.291346 
L 149.221618 241.563674 
L 166.924441 237.585502 
L 184.627265 234.464373 
L 202.330088 228.755176 
L 220.032912 229.500496 
L 237.735735 221.487572 
L 255.438559 214.547777 
L 273.141382 211.331596 
L 290.844206 211.1135 
L 308.547029 203.83949 
L 326.249853 200.13803 
L 343.952676 192.231671 
L 361.6555 190.930537 
L 379.358324 182.494075 
L 397.061147 177.9981 
L 414.763971 171.961284 
L 432.466794 171.293722 
L 450.169618 167.374167 
L 467.872441 164.992792 
L 485.575265 156.107894 
L 503.278088 161.037046 
L 520.980912 151.300645 
L 538.683735 146.481504 
L 556.386559 145.68297 
L 574.089382 168.325827 
L 591.792206 165.616073 
L 609.495029 144.323845 
L 627.197853 138.631426 
L 644.900676 135.285468 
L 662.6035 131.626308 
L 680.306324 126.695853 
L 698.009147 120.197679 
L 715.711971 118.607833 
L 733.414794 115.690057 
L 751.117618 112.28502 
L 768.820441 110.996294 
L 786.523265 99.004439 
L 804.226088 102.653635 
L 821.928912 101.032865 
L 839.631735 98.125134 
L 857.334559 105.019019 
L 875.037382 98.832933 
L 892.740206 104.709211 
L 910.443029 82.156384 
L 928.145853 77.390946 
L 945.848676 73.565601 
L 963.5515 73.549854 
L 963.5515 52.806842 
L 963.5515 52.806842 
L 945.848676 52.550139 
L 928.145853 56.623851 
L 910.443029 61.494523 
L 892.740206 84.835051 
L 875.037382 77.701541 
L 857.334559 85.431833 
L 839.631735 78.337257 
L 821.928912 81.216127 
L 804.226088 83.193077 
L 786.523265 78.934772 
L 768.820441 90.781864 
L 751.117618 92.344859 
L 733.414794 95.878097 
L 715.711971 99.466097 
L 698.009147 100.908681 
L 680.306324 107.298337 
L 662.6035 112.941234 
L 644.900676 116.89231 
L 627.197853 119.771452 
L 609.495029 126.025874 
L 591.792206 148.754823 
L 574.089382 151.662391 
L 556.386559 126.793837 
L 538.683735 127.776068 
L 520.980912 131.918903 
L 503.278088 141.26144 
L 485.575265 137.590335 
L 467.872441 146.577968 
L 450.169618 148.754605 
L 432.466794 152.858373 
L 414.763971 154.228413 
L 397.061147 160.449793 
L 379.358324 164.725854 
L 361.6555 173.529655 
L 343.952676 174.347248 
L 326.249853 182.801005 
L 308.547029 186.359384 
L 290.844206 193.72413 
L 273.141382 194.224449 
L 255.438559 197.320112 
L 237.735735 204.621245 
L 220.032912 212.704052 
L 202.330088 212.129071 
L 184.627265 217.55732 
L 166.924441 221.009733 
L 149.221618 225.489337 
L 131.518794 236.559533 
L 113.815971 236.513541 
L 96.113147 233.51665 
L 78.410324 250.009123 
L 60.7075 250.477079 
z
" clip-path="url(#p1806310b48)" style="fill: #be503b"/>
   </g>
   <g id="PolyCollection_6">
    <path d="M 60.7075 211.520179 
L 60.7075 250.477079 
L 78.410324 250.009123 
L 96.113147 233.51665 
L 113.815971 236.513541 
L 131.518794 236.559533 
L 149.221618 225.489337 
L 166.924441 221.009733 
L 184.627265 217.55732 
L 202.330088 212.129071 
L 220.032912 212.704052 
L 237.735735 204.621245 
L 255.438559 197.320112 
L 273.141382 194.224449 
L 290.844206 193.72413 
L 308.547029 186.359384 
L 326.249853 182.801005 
L 343.952676 174.347248 
L 361.6555 173.529655 
L 379.358324 164.725854 
L 397.061147 160.449793 
L 414.763971 154.228413 
L 432.466794 152.858373 
L 450.169618 148.754605 
L 467.872441 146.577968 
L 485.575265 137.590335 
L 503.278088 141.26144 
L 520.980912 131.918903 
L 538.683735 127.776068 
L 556.386559 126.793837 
L 574.089382 151.662391 
L 591.792206 148.754823 
L 609.495029 126.025874 
L 627.197853 119.771452 
L 644.900676 116.89231 
L 662.6035 112.941234 
L 680.306324 107.298337 
L 698.009147 100.908681 
L 715.711971 99.466097 
L 733.414794 95.878097 
L 751.117618 92.344859 
L 768.820441 90.781864 
L 786.523265 78.934772 
L 804.226088 83.193077 
L 821.928912 81.216127 
L 839.631735 78.337257 
L 857.334559 85.431833 
L 875.037382 77.701541 
L 892.740206 84.835051 
L 910.443029 61.494523 
L 928.145853 56.623851 
L 945.848676 52.550139 
L 963.5515 52.806842 
L 963.5515 24.14175 
L 963.5515 24.14175 
L 945.848676 25.865527 
L 928.145853 29.498704 
L 910.443029 35.679875 
L 892.740206 58.115034 
L 875.037382 48.551714 
L 857.334559 54.901324 
L 839.631735 44.184077 
L 821.928912 47.236761 
L 804.226088 49.842666 
L 786.523265 45.095609 
L 768.820441 57.843562 
L 751.117618 59.385244 
L 733.414794 61.489717 
L 715.711971 66.050608 
L 698.009147 66.563361 
L 680.306324 73.389045 
L 662.6035 79.415924 
L 644.900676 81.180968 
L 627.197853 85.301297 
L 609.495029 91.038377 
L 591.792206 115.785706 
L 574.089382 118.374316 
L 556.386559 90.661698 
L 538.683735 92.122718 
L 520.980912 96.822752 
L 503.278088 109.264291 
L 485.575265 102.745782 
L 467.872441 112.695364 
L 450.169618 113.899464 
L 432.466794 118.451449 
L 414.763971 118.8382 
L 397.061147 124.871513 
L 379.358324 128.63091 
L 361.6555 140.008715 
L 343.952676 138.004779 
L 326.249853 145.952488 
L 308.547029 150.632404 
L 290.844206 158.998222 
L 273.141382 159.938696 
L 255.438559 159.753262 
L 237.735735 168.143705 
L 220.032912 178.924754 
L 202.330088 177.609394 
L 184.627265 181.781905 
L 166.924441 186.536211 
L 149.221618 190.520926 
L 131.518794 200.473875 
L 113.815971 200.093477 
L 96.113147 195.640997 
L 78.410324 213.713704 
L 60.7075 211.520179 
z
" clip-path="url(#p1806310b48)" style="fill: #e9a942"/>
   </g>
   <g id="patch_3">
    <path d="M 60.7075 578.54175 
L 60.7075 24.14175 
" style="fill: none; stroke: #ffffff; stroke-linejoin: miter; stroke-linecap: square"/>
   </g>
   <g id="patch_4">
    <path d="M 963.5515 578.54175 
L 963.5515 24.14175 
" style="fill: none; stroke: #ffffff; stroke-linejoin: miter; stroke-linecap: square"/>
   </g>
   <g id="patch_5">
    <path d="M 60.7075 578.54175 
L 963.5515 578.54175 
" style="fill: none; stroke: #ffffff; stroke-linejoin: miter; stroke-linecap: square"/>
   </g>
   <g id="patch_6">
    <path d="M 60.7075 24.14175 
L 963.5515 24.14175 
" style="fill: none; stroke: #ffffff; stroke-linejoin: miter; stroke-linecap: square"/>
   </g>
   <g id="text_24">
    <!-- Enterprise Linux Instances by Distribution -->
    <g transform="translate(60.7075 18.14175) scale(0.144 -0.144)">
     <defs>
      <path id="DejaVuSans-45" d="M 628 4666 
L 3578 4666 
L 3578 4134 
L 1259 4134 
L 1259 2753 
L 3481 2753 
L 3481 2222 
L 1259 2222 
L 1259 531 
L 3634 531 
L 3634 0 
L 628 0 
L 628 4666 
z
" transform="scale(0.015625)"/>
      <path id="DejaVuSans-72" d="M 2631 2963 
Q 2534 3019 2420 3045 
Q 2306 3072 2169 3072 
Q 1681 3072 1420 2755 
Q 1159 2438 1159 1844 
L 1159 0 
L 581 0 
L 581 3500 
L 1159 3500 
L 1159 2956 
Q 1341 3275 1631 3429 
Q 1922 3584 2338 3584 
Q 2397 3584 2469 3576 
Q 2541 3569 2628 3553 
L 2631 2963 
z
" transform="scale(0.015625)"/>
      <path id="DejaVuSans-70" d="M 1159 525 
L 1159 -1331 
L 581 -1331 
L 581 3500 
L 1159 3500 
L 1159 2969 
Q 1341 3281 1617 3432 
Q 1894 3584 2278 3584 
Q 2916 3584 3314 3078 
Q 3713 2572 3713 1747 
Q 3713 922 3314 415 
Q 2916 -91 2278 -91 
Q 1894 -91 1617 61 
Q 1341 213 1159 525 
z
M 3116 1747 
Q 3116 2381 2855 2742 
Q 2594 3103 2138 3103 
Q 1681 3103 1420 2742 
Q 1159 2381 1159 1747 
Q 1159 1113 1420 752 
Q 1681 391 2138 391 
Q 2594 391 2855 752 
Q 3116 1113 3116 1747 
z
" transform="scale(0.015625)"/>
      <path id="DejaVuSans-69" d="M 603 3500 
L 1178 3500 
L 1178 0 
L 603 0 
L 603 3500 
z
M 603 4863 
L 1178 4863 
L 1178 4134 
L 603 4134 
L 603 4863 
z
" transform="scale(0.015625)"/>
      <path id="DejaVuSans-20" transform="scale(0.015625)"/>
      <path id="DejaVuSans-4c" d="M 628 4666 
L 1259 4666 
L 1259 531 
L 3531 531 
L 3531 0 
L 628 0 
L 628 4666 
z
" transform="scale(0.015625)"/>
      <path id="DejaVuSans-75" d="M 544 1381 
L 544 3500 
L 1119 3500 
L 1119 1403 
Q 1119 906 1312 657 
Q 1506 409 1894 409 
Q 2359 409 2629 706 
Q 2900 1003 2900 1516 
L 2900 3500 
L 3475 3500 
L 3475 0 
L 2900 0 
L 2900 538 
Q 2691 219 2414 64 
Q 2138 -91 1772 -91 
Q 1169 -91 856 284 
Q 544 659 544 1381 
z
M 1991 3584 
L 1991 3584 
z
" transform="scale(0.015625)"/>
      <path id="DejaVuSans-78" d="M 3513 3500 
L 2247 1797 
L 3578 0 
L 2900 0 
L 1881 1375 
L 863 0 
L 184 0 
L 1544 1831 
L 300 3500 
L 978 3500 
L 1906 2253 
L 2834 3500 
L 3513 3500 
z
" transform="scale(0.015625)"/>
      <path id="DejaVuSans-62" d="M 3116 1747 
Q 3116 2381 2855 2742 
Q 2594 3103 2138 3103 
Q 1681 3103 1420 2742 
Q 1159 2381 1159 1747 
Q 1159 1113 1420 752 
Q 1681 391 2138 391 
Q 2594 391 2855 752 
Q 3116 1113 3116 1747 
z
M 1159 2969 
Q 1341 3281 1617 3432 
Q 1894 3584 2278 3584 
Q 2916 3584 3314 3078 
Q 3713 2572 3713 1747 
Q 3713 922 3314 415 
Q 2916 -91 2278 -91 
Q 1894 -91 1617 61 
Q 1341 213 1159 525 
L 1159 0 
L 581 0 
L 581 4863 
L 1159 4863 
L 1159 2969 
z
" transform="scale(0.015625)"/>
      <path id="DejaVuSans-79" d="M 2059 -325 
Q 1816 -950 1584 -1140 
Q 1353 -1331 966 -1331 
L 506 -1331 
L 506 -850 
L 844 -850 
Q 1081 -850 1212 -737 
Q 1344 -625 1503 -206 
L 1606 56 
L 191 3500 
L 800 3500 
L 1894 763 
L 2988 3500 
L 3597 3500 
L 2059 -325 
z
" transform="scale(0.015625)"/>
      <path id="DejaVuSans-6f" d="M 1959 3097 
Q 1497 3097 1228 2736 
Q 959 2375 959 1747 
Q 959 1119 1226 758 
Q 1494 397 1959 397 
Q 2419 397 2687 759 
Q 2956 1122 2956 1747 
Q 2956 2369 2687 2733 
Q 2419 3097 1959 3097 
z
M 1959 3584 
Q 2709 3584 3137 3096 
Q 3566 2609 3566 1747 
Q 3566 888 3137 398 
Q 2709 -91 1959 -91 
Q 1206 -91 779 398 
Q 353 888 353 1747 
Q 353 2609 779 3096 
Q 1206 3584 1959 3584 
z
" transform="scale(0.015625)"/>
     </defs>
     <use xlink:href="#DejaVuSans-45"/>
     <use xlink:href="#DejaVuSans-6e" x="63.183594"/>
     <use xlink:href="#DejaVuSans-74" x="126.5625"/>
     <use xlink:href="#DejaVuSans-65" x="165.771484"/>
     <use xlink:href="#DejaVuSans-72" x="227.294922"/>
     <use xlink:href="#DejaVuSans-70" x="268.408203"/>
     <use xlink:href="#DejaVuSans-72" x="331.884766"/>
     <use xlink:href="#DejaVuSans-69" x="372.998047"/>
     <use xlink:href="#DejaVuSans-73" x="400.78125"/>
     <use xlink:href="#DejaVuSans-65" x="452.880859"/>
     <use xlink:href="#DejaVuSans-20" x="514.404297"/>
     <use xlink:href="#DejaVuSans-4c" x="546.191406"/>
     <use xlink:href="#DejaVuSans-69" x="601.904297"/>
     <use xlink:href="#DejaVuSans-6e" x="629.6875"/>
     <use xlink:href="#DejaVuSans-75" x="693.066406"/>
     <use xlink:href="#DejaVuSans-78" x="756.445312"/>
     <use xlink:href="#DejaVuSans-20" x="815.625"/>
     <use xlink:href="#DejaVuSans-49" x="847.412109"/>
     <use xlink:href="#DejaVuSans-6e" x="876.904297"/>
     <use xlink:href="#DejaVuSans-73" x="940.283203"/>
     <use xlink:href="#DejaVuSans-74" x="992.382812"/>
     <use xlink:href="#DejaVuSans-61" x="1031.591797"/>
     <use xlink:href="#DejaVuSans-6e" x="1092.871094"/>
     <use xlink:href="#DejaVuSans-63" x="1156.25"/>
     <use xlink:href="#DejaVuSans-65" x="1211.230469"/>
     <use xlink:href="#DejaVuSans-73" x="1272.753906"/>
     <use xlink:href="#DejaVuSans-20" x="1324.853516"/>
     <use xlink:href="#DejaVuSans-62" x="1356.640625"/>
     <use xlink:href="#DejaVuSans-79" x="1420.117188"/>
     <use xlink:href="#DejaVuSans-20" x="1479.296875"/>
     <use xlink:href="#DejaVuSans-44" x="1511.083984"/>
     <use xlink:href="#DejaVuSans-69" x="1588.085938"/>
     <use xlink:href="#DejaVuSans-73" x="1615.869141"/>
     <use xlink:href="#DejaVuSans-74" x="1667.96875"/>
     <use xlink:href="#DejaVuSans-72" x="1707.177734"/>
     <use xlink:href="#DejaVuSans-69" x="1748.291016"/>
     <use xlink:href="#DejaVuSans-62" x="1776.074219"/>
     <use xlink:href="#DejaVuSans-75" x="1839.550781"/>
     <use xlink:href="#DejaVuSans-74" x="1902.929688"/>
     <use xlink:href="#DejaVuSans-69" x="1942.138672"/>
     <use xlink:href="#DejaVuSans-6f" x="1969.921875"/>
     <use xlink:href="#DejaVuSans-6e" x="2031.103516"/>
    </g>
   </g>
   <g id="text_25">
    <!-- 2025-06-05 11:54 UTC -->
    <g transform="translate(800.6695 18.14175) scale(0.144 -0.144)">
     <defs>
      <path id="DejaVuSans-3a" d="M 750 794 
L 1409 794 
L 1409 0 
L 750 0 
L 750 794 
z
M 750 3309 
L 1409 3309 
L 1409 2516 
L 750 2516 
L 750 3309 
z
" transform="scale(0.015625)"/>
      <path id="DejaVuSans-55" d="M 556 4666 
L 1191 4666 
L 1191 1831 
Q 1191 1081 1462 751 
Q 1734 422 2344 422 
Q 2950 422 3222 751 
Q 3494 1081 3494 1831 
L 3494 4666 
L 4128 4666 
L 4128 1753 
Q 4128 841 3676 375 
Q 3225 -91 2344 -91 
Q 1459 -91 1007 375 
Q 556 841 556 1753 
L 556 4666 
z
" transform="scale(0.015625)"/>
      <path id="DejaVuSans-54" d="M -19 4666 
L 3928 4666 
L 3928 4134 
L 2272 4134 
L 2272 0 
L 1638 0 
L 1638 4134 
L -19 4134 
L -19 4666 
z
" transform="scale(0.015625)"/>
      <path id="DejaVuSans-43" d="M 4122 4306 
L 4122 3641 
Q 3803 3938 3442 4084 
Q 3081 4231 2675 4231 
Q 1875 4231 1450 3742 
Q 1025 3253 1025 2328 
Q 1025 1406 1450 917 
Q 1875 428 2675 428 
Q 3081 428 3442 575 
Q 3803 722 4122 1019 
L 4122 359 
Q 3791 134 3420 21 
Q 3050 -91 2638 -91 
Q 1578 -91 968 557 
Q 359 1206 359 2328 
Q 359 3453 968 4101 
Q 1578 4750 2638 4750 
Q 3056 4750 3426 4639 
Q 3797 4528 4122 4306 
z
" transform="scale(0.015625)"/>
     </defs>
     <use xlink:href="#DejaVuSans-32"/>
     <use xlink:href="#DejaVuSans-30" x="63.623047"/>
     <use xlink:href="#DejaVuSans-32" x="127.246094"/>
     <use xlink:href="#DejaVuSans-35" x="190.869141"/>
     <use xlink:href="#DejaVuSans-2d" x="254.492188"/>
     <use xlink:href="#DejaVuSans-30" x="290.576172"/>
     <use xlink:href="#DejaVuSans-36" x="354.199219"/>
     <use xlink:href="#DejaVuSans-2d" x="417.822266"/>
     <use xlink:href="#DejaVuSans-30" x="453.90625"/>
     <use xlink:href="#DejaVuSans-35" x="517.529297"/>
     <use xlink:href="#DejaVuSans-20" x="581.152344"/>
     <use xlink:href="#DejaVuSans-31" x="612.939453"/>
     <use xlink:href="#DejaVuSans-31" x="676.5625"/>
     <use xlink:href="#DejaVuSans-3a" x="740.185547"/>
     <use xlink:href="#DejaVuSans-35" x="773.876953"/>
     <use xlink:href="#DejaVuSans-34" x="837.5"/>
     <use xlink:href="#DejaVuSans-20" x="901.123047"/>
     <use xlink:href="#DejaVuSans-55" x="932.910156"/>
     <use xlink:href="#DejaVuSans-54" x="1006.103516"/>
     <use xlink:href="#DejaVuSans-43" x="1061.3125"/>
    </g>
   </g>
   <g id="legend_1">
    <g id="patch_7">
     <path d="M 67.7075 134.888625 
L 176.67625 134.888625 
Q 178.67625 134.888625 178.67625 132.888625 
L 178.67625 31.14175 
Q 178.67625 29.14175 176.67625 29.14175 
L 67.7075 29.14175 
Q 65.7075 29.14175 65.7075 31.14175 
L 65.7075 132.888625 
Q 65.7075 134.888625 67.7075 134.888625 
z
" style="fill: #e5e5e5; opacity: 0.8; stroke: #cccccc; stroke-width: 0.5; stroke-linejoin: miter"/>
    </g>
    <g id="text_26">
     <!-- Distribution -->
     <g transform="translate(93.023125 40.740188) scale(0.1 -0.1)">
      <use xlink:href="#DejaVuSans-44"/>
      <use xlink:href="#DejaVuSans-69" x="77.001953"/>
      <use xlink:href="#DejaVuSans-73" x="104.785156"/>
      <use xlink:href="#DejaVuSans-74" x="156.884766"/>
      <use xlink:href="#DejaVuSans-72" x="196.09375"/>
      <use xlink:href="#DejaVuSans-69" x="237.207031"/>
      <use xlink:href="#DejaVuSans-62" x="264.990234"/>
      <use xlink:href="#DejaVuSans-75" x="328.466797"/>
      <use xlink:href="#DejaVuSans-74" x="391.845703"/>
      <use xlink:href="#DejaVuSans-69" x="431.054688"/>
      <use xlink:href="#DejaVuSans-6f" x="458.837891"/>
      <use xlink:href="#DejaVuSans-6e" x="520.019531"/>
     </g>
    </g>
    <g id="patch_8">
     <path d="M 69.7075 55.418313 
L 89.7075 55.418313 
L 89.7075 48.418313 
L 69.7075 48.418313 
z
" style="fill: #48b585"/>
    </g>
    <g id="text_27">
     <!-- Rocky Linux -->
     <g transform="translate(97.7075 55.418313) scale(0.1 -0.1)">
      <defs>
       <path id="DejaVuSans-52" d="M 2841 2188 
Q 3044 2119 3236 1894 
Q 3428 1669 3622 1275 
L 4263 0 
L 3584 0 
L 2988 1197 
Q 2756 1666 2539 1819 
Q 2322 1972 1947 1972 
L 1259 1972 
L 1259 0 
L 628 0 
L 628 4666 
L 2053 4666 
Q 2853 4666 3247 4331 
Q 3641 3997 3641 3322 
Q 3641 2881 3436 2590 
Q 3231 2300 2841 2188 
z
M 1259 4147 
L 1259 2491 
L 2053 2491 
Q 2509 2491 2742 2702 
Q 2975 2913 2975 3322 
Q 2975 3731 2742 3939 
Q 2509 4147 2053 4147 
L 1259 4147 
z
" transform="scale(0.015625)"/>
       <path id="DejaVuSans-6b" d="M 581 4863 
L 1159 4863 
L 1159 1991 
L 2875 3500 
L 3609 3500 
L 1753 1863 
L 3688 0 
L 2938 0 
L 1159 1709 
L 1159 0 
L 581 0 
L 581 4863 
z
" transform="scale(0.015625)"/>
      </defs>
      <use xlink:href="#DejaVuSans-52"/>
      <use xlink:href="#DejaVuSans-6f" x="64.982422"/>
      <use xlink:href="#DejaVuSans-63" x="126.164062"/>
      <use xlink:href="#DejaVuSans-6b" x="181.144531"/>
      <use xlink:href="#DejaVuSans-79" x="235.429688"/>
      <use xlink:href="#DejaVuSans-20" x="294.609375"/>
      <use xlink:href="#DejaVuSans-4c" x="326.396484"/>
      <use xlink:href="#DejaVuSans-69" x="382.109375"/>
      <use xlink:href="#DejaVuSans-6e" x="409.892578"/>
      <use xlink:href="#DejaVuSans-75" x="473.271484"/>
      <use xlink:href="#DejaVuSans-78" x="536.650391"/>
     </g>
    </g>
    <g id="patch_9">
     <path d="M 69.7075 70.096438 
L 89.7075 70.096438 
L 89.7075 63.096438 
L 69.7075 63.096438 
z
" style="fill: #e2321d"/>
    </g>
    <g id="text_28">
     <!-- RHEL -->
     <g transform="translate(97.7075 70.096438) scale(0.1 -0.1)">
      <defs>
       <path id="DejaVuSans-48" d="M 628 4666 
L 1259 4666 
L 1259 2753 
L 3553 2753 
L 3553 4666 
L 4184 4666 
L 4184 0 
L 3553 0 
L 3553 2222 
L 1259 2222 
L 1259 0 
L 628 0 
L 628 4666 
z
" transform="scale(0.015625)"/>
      </defs>
      <use xlink:href="#DejaVuSans-52"/>
      <use xlink:href="#DejaVuSans-48" x="69.482422"/>
      <use xlink:href="#DejaVuSans-45" x="144.677734"/>
      <use xlink:href="#DejaVuSans-4c" x="207.861328"/>
     </g>
    </g>
    <g id="patch_10">
     <path d="M 69.7075 84.774563 
L 89.7075 84.774563 
L 89.7075 77.774563 
L 69.7075 77.774563 
z
" style="fill: #9a5689"/>
    </g>
    <g id="text_29">
     <!-- CentOS Stream -->
     <g transform="translate(97.7075 84.774563) scale(0.1 -0.1)">
      <defs>
       <path id="DejaVuSans-4f" d="M 2522 4238 
Q 1834 4238 1429 3725 
Q 1025 3213 1025 2328 
Q 1025 1447 1429 934 
Q 1834 422 2522 422 
Q 3209 422 3611 934 
Q 4013 1447 4013 2328 
Q 4013 3213 3611 3725 
Q 3209 4238 2522 4238 
z
M 2522 4750 
Q 3503 4750 4090 4092 
Q 4678 3434 4678 2328 
Q 4678 1225 4090 567 
Q 3503 -91 2522 -91 
Q 1538 -91 948 565 
Q 359 1222 359 2328 
Q 359 3434 948 4092 
Q 1538 4750 2522 4750 
z
" transform="scale(0.015625)"/>
       <path id="DejaVuSans-53" d="M 3425 4513 
L 3425 3897 
Q 3066 4069 2747 4153 
Q 2428 4238 2131 4238 
Q 1616 4238 1336 4038 
Q 1056 3838 1056 3469 
Q 1056 3159 1242 3001 
Q 1428 2844 1947 2747 
L 2328 2669 
Q 3034 2534 3370 2195 
Q 3706 1856 3706 1288 
Q 3706 609 3251 259 
Q 2797 -91 1919 -91 
Q 1588 -91 1214 -16 
Q 841 59 441 206 
L 441 856 
Q 825 641 1194 531 
Q 1563 422 1919 422 
Q 2459 422 2753 634 
Q 3047 847 3047 1241 
Q 3047 1584 2836 1778 
Q 2625 1972 2144 2069 
L 1759 2144 
Q 1053 2284 737 2584 
Q 422 2884 422 3419 
Q 422 4038 858 4394 
Q 1294 4750 2059 4750 
Q 2388 4750 2728 4690 
Q 3069 4631 3425 4513 
z
" transform="scale(0.015625)"/>
       <path id="DejaVuSans-6d" d="M 3328 2828 
Q 3544 3216 3844 3400 
Q 4144 3584 4550 3584 
Q 5097 3584 5394 3201 
Q 5691 2819 5691 2113 
L 5691 0 
L 5113 0 
L 5113 2094 
Q 5113 2597 4934 2840 
Q 4756 3084 4391 3084 
Q 3944 3084 3684 2787 
Q 3425 2491 3425 1978 
L 3425 0 
L 2847 0 
L 2847 2094 
Q 2847 2600 2669 2842 
Q 2491 3084 2119 3084 
Q 1678 3084 1418 2786 
Q 1159 2488 1159 1978 
L 1159 0 
L 581 0 
L 581 3500 
L 1159 3500 
L 1159 2956 
Q 1356 3278 1631 3431 
Q 1906 3584 2284 3584 
Q 2666 3584 2933 3390 
Q 3200 3197 3328 2828 
z
" transform="scale(0.015625)"/>
      </defs>
      <use xlink:href="#DejaVuSans-43"/>
      <use xlink:href="#DejaVuSans-65" x="69.824219"/>
      <use xlink:href="#DejaVuSans-6e" x="131.347656"/>
      <use xlink:href="#DejaVuSans-74" x="194.726562"/>
      <use xlink:href="#DejaVuSans-4f" x="233.935547"/>
      <use xlink:href="#DejaVuSans-53" x="312.646484"/>
      <use xlink:href="#DejaVuSans-20" x="376.123047"/>
      <use xlink:href="#DejaVuSans-53" x="407.910156"/>
      <use xlink:href="#DejaVuSans-74" x="471.386719"/>
      <use xlink:href="#DejaVuSans-72" x="510.595703"/>
      <use xlink:href="#DejaVuSans-65" x="549.458984"/>
      <use xlink:href="#DejaVuSans-61" x="610.982422"/>
      <use xlink:href="#DejaVuSans-6d" x="672.261719"/>
     </g>
    </g>
    <g id="patch_11">
     <path d="M 69.7075 99.452688 
L 89.7075 99.452688 
L 89.7075 92.452688 
L 69.7075 92.452688 
z
" style="fill: #4ac1fa"/>
    </g>
    <g id="text_30">
     <!-- Alma Linux -->
     <g transform="translate(97.7075 99.452688) scale(0.1 -0.1)">
      <defs>
       <path id="DejaVuSans-41" d="M 2188 4044 
L 1331 1722 
L 3047 1722 
L 2188 4044 
z
M 1831 4666 
L 2547 4666 
L 4325 0 
L 3669 0 
L 3244 1197 
L 1141 1197 
L 716 0 
L 50 0 
L 1831 4666 
z
" transform="scale(0.015625)"/>
       <path id="DejaVuSans-6c" d="M 603 4863 
L 1178 4863 
L 1178 0 
L 603 0 
L 603 4863 
z
" transform="scale(0.015625)"/>
      </defs>
      <use xlink:href="#DejaVuSans-41"/>
      <use xlink:href="#DejaVuSans-6c" x="68.408203"/>
      <use xlink:href="#DejaVuSans-6d" x="96.191406"/>
      <use xlink:href="#DejaVuSans-61" x="193.603516"/>
      <use xlink:href="#DejaVuSans-20" x="254.882812"/>
      <use xlink:href="#DejaVuSans-4c" x="286.669922"/>
      <use xlink:href="#DejaVuSans-69" x="342.382812"/>
      <use xlink:href="#DejaVuSans-6e" x="370.166016"/>
      <use xlink:href="#DejaVuSans-75" x="433.544922"/>
      <use xlink:href="#DejaVuSans-78" x="496.923828"/>
     </g>
    </g>
    <g id="patch_12">
     <path d="M 69.7075 114.130813 
L 89.7075 114.130813 
L 89.7075 107.130813 
L 69.7075 107.130813 
z
" style="fill: #be503b"/>
    </g>
    <g id="text_31">
     <!-- Oracle -->
     <g transform="translate(97.7075 114.130813) scale(0.1 -0.1)">
      <use xlink:href="#DejaVuSans-4f"/>
      <use xlink:href="#DejaVuSans-72" x="78.710938"/>
      <use xlink:href="#DejaVuSans-61" x="119.824219"/>
      <use xlink:href="#DejaVuSans-63" x="181.103516"/>
      <use xlink:href="#DejaVuSans-6c" x="236.083984"/>
      <use xlink:href="#DejaVuSans-65" x="263.867188"/>
     </g>
    </g>
    <g id="patch_13">
     <path d="M 69.7075 128.808938 
L 89.7075 128.808938 
L 89.7075 121.808938 
L 69.7075 121.808938 
z
" style="fill: #e9a942"/>
    </g>
    <g id="text_32">
     <!-- CentOS Legacy -->
     <g transform="translate(97.7075 128.808938) scale(0.1 -0.1)">
      <defs>
       <path id="DejaVuSans-67" d="M 2906 1791 
Q 2906 2416 2648 2759 
Q 2391 3103 1925 3103 
Q 1463 3103 1205 2759 
Q 947 2416 947 1791 
Q 947 1169 1205 825 
Q 1463 481 1925 481 
Q 2391 481 2648 825 
Q 2906 1169 2906 1791 
z
M 3481 434 
Q 3481 -459 3084 -895 
Q 2688 -1331 1869 -1331 
Q 1566 -1331 1297 -1286 
Q 1028 -1241 775 -1147 
L 775 -588 
Q 1028 -725 1275 -790 
Q 1522 -856 1778 -856 
Q 2344 -856 2625 -561 
Q 2906 -266 2906 331 
L 2906 616 
Q 2728 306 2450 153 
Q 2172 0 1784 0 
Q 1141 0 747 490 
Q 353 981 353 1791 
Q 353 2603 747 3093 
Q 1141 3584 1784 3584 
Q 2172 3584 2450 3431 
Q 2728 3278 2906 2969 
L 2906 3500 
L 3481 3500 
L 3481 434 
z
" transform="scale(0.015625)"/>
      </defs>
      <use xlink:href="#DejaVuSans-43"/>
      <use xlink:href="#DejaVuSans-65" x="69.824219"/>
      <use xlink:href="#DejaVuSans-6e" x="131.347656"/>
      <use xlink:href="#DejaVuSans-74" x="194.726562"/>
      <use xlink:href="#DejaVuSans-4f" x="233.935547"/>
      <use xlink:href="#DejaVuSans-53" x="312.646484"/>
      <use xlink:href="#DejaVuSans-20" x="376.123047"/>
      <use xlink:href="#DejaVuSans-4c" x="407.910156"/>
      <use xlink:href="#DejaVuSans-65" x="461.873047"/>
      <use xlink:href="#DejaVuSans-67" x="523.396484"/>
      <use xlink:href="#DejaVuSans-61" x="586.873047"/>
      <use xlink:href="#DejaVuSans-63" x="648.152344"/>
      <use xlink:href="#DejaVuSans-79" x="703.132812"/>
     </g>
    </g>
   </g>
  </g>
 </g>
 <defs>
  <clipPath id="p1806310b48">
   <rect x="60.7075" y="24.14175" width="902.844" height="554.4"/>
  </clipPath>
 </defs>
</svg>
