<?xml version="1.0" encoding="utf-8" standalone="no"?>
<!DOCTYPE svg PUBLIC "-//W3C//DTD SVG 1.1//EN"
  "http://www.w3.org/Graphics/SVG/1.1/DTD/svg11.dtd">
<svg xmlns:xlink="http://www.w3.org/1999/xlink" width="955.760875pt" height="644.743878pt" viewBox="0 0 955.760875 644.743878" xmlns="http://www.w3.org/2000/svg" version="1.1">
 <metadata>
  <rdf:RDF xmlns:dc="http://purl.org/dc/elements/1.1/" xmlns:cc="http://creativecommons.org/ns#" xmlns:rdf="http://www.w3.org/1999/02/22-rdf-syntax-ns#">
   <cc:Work>
    <dc:type rdf:resource="http://purl.org/dc/dcmitype/StillImage"/>
    <dc:date>2025-02-06T11:54:48.384745</dc:date>
    <dc:format>image/svg+xml</dc:format>
    <dc:creator>
     <cc:Agent>
      <dc:title>Matplotlib v3.6.3, https://matplotlib.org/</dc:title>
     </cc:Agent>
    </dc:creator>
   </cc:Work>
  </rdf:RDF>
 </metadata>
 <defs>
  <style type="text/css">*{stroke-linejoin: round; stroke-linecap: butt}</style>
 </defs>
 <g id="figure_1">
  <g id="patch_1">
   <path d="M 0 644.743878 
L 955.760875 644.743878 
L 955.760875 0 
L 0 0 
z
" style="fill: #ffffff"/>
  </g>
  <g id="axes_1">
   <g id="patch_2">
    <path d="M 45.716875 578.54175 
L 948.560875 578.54175 
L 948.560875 24.14175 
L 45.716875 24.14175 
z
" style="fill: #e5e5e5"/>
   </g>
   <g id="matplotlib.axis_1">
    <g id="xtick_1">
     <g id="line2d_1">
      <path d="M 94.728406 578.54175 
L 94.728406 24.14175 
" clip-path="url(#p2161546448)" style="fill: none; stroke: #ffffff; stroke-width: 0.8; stroke-linecap: square"/>
     </g>
     <g id="line2d_2">
      <defs>
       <path id="m4afb03493b" d="M 0 0 
L 0 3.5 
" style="stroke: #555555; stroke-width: 0.8"/>
      </defs>
      <g>
       <use xlink:href="#m4afb03493b" x="94.728406" y="578.54175" style="fill: #555555; stroke: #555555; stroke-width: 0.8"/>
      </g>
     </g>
     <g id="text_1">
      <!-- 2024-03 -->
      <g style="fill: #555555" transform="translate(81.907124 620.459567) rotate(-45) scale(0.1 -0.1)">
       <defs>
        <path id="DejaVuSans-32" d="M 1228 531 
L 3431 531 
L 3431 0 
L 469 0 
L 469 531 
Q 828 903 1448 1529 
Q 2069 2156 2228 2338 
Q 2531 2678 2651 2914 
Q 2772 3150 2772 3378 
Q 2772 3750 2511 3984 
Q 2250 4219 1831 4219 
Q 1534 4219 1204 4116 
Q 875 4013 500 3803 
L 500 4441 
Q 881 4594 1212 4672 
Q 1544 4750 1819 4750 
Q 2544 4750 2975 4387 
Q 3406 4025 3406 3419 
Q 3406 3131 3298 2873 
Q 3191 2616 2906 2266 
Q 2828 2175 2409 1742 
Q 1991 1309 1228 531 
z
" transform="scale(0.015625)"/>
        <path id="DejaVuSans-30" d="M 2034 4250 
Q 1547 4250 1301 3770 
Q 1056 3291 1056 2328 
Q 1056 1369 1301 889 
Q 1547 409 2034 409 
Q 2525 409 2770 889 
Q 3016 1369 3016 2328 
Q 3016 3291 2770 3770 
Q 2525 4250 2034 4250 
z
M 2034 4750 
Q 2819 4750 3233 4129 
Q 3647 3509 3647 2328 
Q 3647 1150 3233 529 
Q 2819 -91 2034 -91 
Q 1250 -91 836 529 
Q 422 1150 422 2328 
Q 422 3509 836 4129 
Q 1250 4750 2034 4750 
z
" transform="scale(0.015625)"/>
        <path id="DejaVuSans-34" d="M 2419 4116 
L 825 1625 
L 2419 1625 
L 2419 4116 
z
M 2253 4666 
L 3047 4666 
L 3047 1625 
L 3713 1625 
L 3713 1100 
L 3047 1100 
L 3047 0 
L 2419 0 
L 2419 1100 
L 313 1100 
L 313 1709 
L 2253 4666 
z
" transform="scale(0.015625)"/>
        <path id="DejaVuSans-2d" d="M 313 2009 
L 1997 2009 
L 1997 1497 
L 313 1497 
L 313 2009 
z
" transform="scale(0.015625)"/>
        <path id="DejaVuSans-33" d="M 2597 2516 
Q 3050 2419 3304 2112 
Q 3559 1806 3559 1356 
Q 3559 666 3084 287 
Q 2609 -91 1734 -91 
Q 1441 -91 1130 -33 
Q 819 25 488 141 
L 488 750 
Q 750 597 1062 519 
Q 1375 441 1716 441 
Q 2309 441 2620 675 
Q 2931 909 2931 1356 
Q 2931 1769 2642 2001 
Q 2353 2234 1838 2234 
L 1294 2234 
L 1294 2753 
L 1863 2753 
Q 2328 2753 2575 2939 
Q 2822 3125 2822 3475 
Q 2822 3834 2567 4026 
Q 2313 4219 1838 4219 
Q 1578 4219 1281 4162 
Q 984 4106 628 3988 
L 628 4550 
Q 988 4650 1302 4700 
Q 1616 4750 1894 4750 
Q 2613 4750 3031 4423 
Q 3450 4097 3450 3541 
Q 3450 3153 3228 2886 
Q 3006 2619 2597 2516 
z
" transform="scale(0.015625)"/>
       </defs>
       <use xlink:href="#DejaVuSans-32"/>
       <use xlink:href="#DejaVuSans-30" x="63.623047"/>
       <use xlink:href="#DejaVuSans-32" x="127.246094"/>
       <use xlink:href="#DejaVuSans-34" x="190.869141"/>
       <use xlink:href="#DejaVuSans-2d" x="254.492188"/>
       <use xlink:href="#DejaVuSans-30" x="290.576172"/>
       <use xlink:href="#DejaVuSans-33" x="354.199219"/>
      </g>
     </g>
    </g>
    <g id="xtick_2">
     <g id="line2d_3">
      <path d="M 174.694589 578.54175 
L 174.694589 24.14175 
" clip-path="url(#p2161546448)" style="fill: none; stroke: #ffffff; stroke-width: 0.8; stroke-linecap: square"/>
     </g>
     <g id="line2d_4">
      <g>
       <use xlink:href="#m4afb03493b" x="174.694589" y="578.54175" style="fill: #555555; stroke: #555555; stroke-width: 0.8"/>
      </g>
     </g>
     <g id="text_2">
      <!-- 2024-04 -->
      <g style="fill: #555555" transform="translate(161.873307 620.459567) rotate(-45) scale(0.1 -0.1)">
       <use xlink:href="#DejaVuSans-32"/>
       <use xlink:href="#DejaVuSans-30" x="63.623047"/>
       <use xlink:href="#DejaVuSans-32" x="127.246094"/>
       <use xlink:href="#DejaVuSans-34" x="190.869141"/>
       <use xlink:href="#DejaVuSans-2d" x="254.492188"/>
       <use xlink:href="#DejaVuSans-30" x="290.576172"/>
       <use xlink:href="#DejaVuSans-34" x="354.199219"/>
      </g>
     </g>
    </g>
    <g id="xtick_3">
     <g id="line2d_5">
      <path d="M 252.081218 578.54175 
L 252.081218 24.14175 
" clip-path="url(#p2161546448)" style="fill: none; stroke: #ffffff; stroke-width: 0.8; stroke-linecap: square"/>
     </g>
     <g id="line2d_6">
      <g>
       <use xlink:href="#m4afb03493b" x="252.081218" y="578.54175" style="fill: #555555; stroke: #555555; stroke-width: 0.8"/>
      </g>
     </g>
     <g id="text_3">
      <!-- 2024-05 -->
      <g style="fill: #555555" transform="translate(239.259936 620.459567) rotate(-45) scale(0.1 -0.1)">
       <defs>
        <path id="DejaVuSans-35" d="M 691 4666 
L 3169 4666 
L 3169 4134 
L 1269 4134 
L 1269 2991 
Q 1406 3038 1543 3061 
Q 1681 3084 1819 3084 
Q 2600 3084 3056 2656 
Q 3513 2228 3513 1497 
Q 3513 744 3044 326 
Q 2575 -91 1722 -91 
Q 1428 -91 1123 -41 
Q 819 9 494 109 
L 494 744 
Q 775 591 1075 516 
Q 1375 441 1709 441 
Q 2250 441 2565 725 
Q 2881 1009 2881 1497 
Q 2881 1984 2565 2268 
Q 2250 2553 1709 2553 
Q 1456 2553 1204 2497 
Q 953 2441 691 2322 
L 691 4666 
z
" transform="scale(0.015625)"/>
       </defs>
       <use xlink:href="#DejaVuSans-32"/>
       <use xlink:href="#DejaVuSans-30" x="63.623047"/>
       <use xlink:href="#DejaVuSans-32" x="127.246094"/>
       <use xlink:href="#DejaVuSans-34" x="190.869141"/>
       <use xlink:href="#DejaVuSans-2d" x="254.492188"/>
       <use xlink:href="#DejaVuSans-30" x="290.576172"/>
       <use xlink:href="#DejaVuSans-35" x="354.199219"/>
      </g>
     </g>
    </g>
    <g id="xtick_4">
     <g id="line2d_7">
      <path d="M 332.047401 578.54175 
L 332.047401 24.14175 
" clip-path="url(#p2161546448)" style="fill: none; stroke: #ffffff; stroke-width: 0.8; stroke-linecap: square"/>
     </g>
     <g id="line2d_8">
      <g>
       <use xlink:href="#m4afb03493b" x="332.047401" y="578.54175" style="fill: #555555; stroke: #555555; stroke-width: 0.8"/>
      </g>
     </g>
     <g id="text_4">
      <!-- 2024-06 -->
      <g style="fill: #555555" transform="translate(319.226118 620.459567) rotate(-45) scale(0.1 -0.1)">
       <defs>
        <path id="DejaVuSans-36" d="M 2113 2584 
Q 1688 2584 1439 2293 
Q 1191 2003 1191 1497 
Q 1191 994 1439 701 
Q 1688 409 2113 409 
Q 2538 409 2786 701 
Q 3034 994 3034 1497 
Q 3034 2003 2786 2293 
Q 2538 2584 2113 2584 
z
M 3366 4563 
L 3366 3988 
Q 3128 4100 2886 4159 
Q 2644 4219 2406 4219 
Q 1781 4219 1451 3797 
Q 1122 3375 1075 2522 
Q 1259 2794 1537 2939 
Q 1816 3084 2150 3084 
Q 2853 3084 3261 2657 
Q 3669 2231 3669 1497 
Q 3669 778 3244 343 
Q 2819 -91 2113 -91 
Q 1303 -91 875 529 
Q 447 1150 447 2328 
Q 447 3434 972 4092 
Q 1497 4750 2381 4750 
Q 2619 4750 2861 4703 
Q 3103 4656 3366 4563 
z
" transform="scale(0.015625)"/>
       </defs>
       <use xlink:href="#DejaVuSans-32"/>
       <use xlink:href="#DejaVuSans-30" x="63.623047"/>
       <use xlink:href="#DejaVuSans-32" x="127.246094"/>
       <use xlink:href="#DejaVuSans-34" x="190.869141"/>
       <use xlink:href="#DejaVuSans-2d" x="254.492188"/>
       <use xlink:href="#DejaVuSans-30" x="290.576172"/>
       <use xlink:href="#DejaVuSans-36" x="354.199219"/>
      </g>
     </g>
    </g>
    <g id="xtick_5">
     <g id="line2d_9">
      <path d="M 409.434029 578.54175 
L 409.434029 24.14175 
" clip-path="url(#p2161546448)" style="fill: none; stroke: #ffffff; stroke-width: 0.8; stroke-linecap: square"/>
     </g>
     <g id="line2d_10">
      <g>
       <use xlink:href="#m4afb03493b" x="409.434029" y="578.54175" style="fill: #555555; stroke: #555555; stroke-width: 0.8"/>
      </g>
     </g>
     <g id="text_5">
      <!-- 2024-07 -->
      <g style="fill: #555555" transform="translate(396.612747 620.459567) rotate(-45) scale(0.1 -0.1)">
       <defs>
        <path id="DejaVuSans-37" d="M 525 4666 
L 3525 4666 
L 3525 4397 
L 1831 0 
L 1172 0 
L 2766 4134 
L 525 4134 
L 525 4666 
z
" transform="scale(0.015625)"/>
       </defs>
       <use xlink:href="#DejaVuSans-32"/>
       <use xlink:href="#DejaVuSans-30" x="63.623047"/>
       <use xlink:href="#DejaVuSans-32" x="127.246094"/>
       <use xlink:href="#DejaVuSans-34" x="190.869141"/>
       <use xlink:href="#DejaVuSans-2d" x="254.492188"/>
       <use xlink:href="#DejaVuSans-30" x="290.576172"/>
       <use xlink:href="#DejaVuSans-37" x="354.199219"/>
      </g>
     </g>
    </g>
    <g id="xtick_6">
     <g id="line2d_11">
      <path d="M 489.400212 578.54175 
L 489.400212 24.14175 
" clip-path="url(#p2161546448)" style="fill: none; stroke: #ffffff; stroke-width: 0.8; stroke-linecap: square"/>
     </g>
     <g id="line2d_12">
      <g>
       <use xlink:href="#m4afb03493b" x="489.400212" y="578.54175" style="fill: #555555; stroke: #555555; stroke-width: 0.8"/>
      </g>
     </g>
     <g id="text_6">
      <!-- 2024-08 -->
      <g style="fill: #555555" transform="translate(476.57893 620.459567) rotate(-45) scale(0.1 -0.1)">
       <defs>
        <path id="DejaVuSans-38" d="M 2034 2216 
Q 1584 2216 1326 1975 
Q 1069 1734 1069 1313 
Q 1069 891 1326 650 
Q 1584 409 2034 409 
Q 2484 409 2743 651 
Q 3003 894 3003 1313 
Q 3003 1734 2745 1975 
Q 2488 2216 2034 2216 
z
M 1403 2484 
Q 997 2584 770 2862 
Q 544 3141 544 3541 
Q 544 4100 942 4425 
Q 1341 4750 2034 4750 
Q 2731 4750 3128 4425 
Q 3525 4100 3525 3541 
Q 3525 3141 3298 2862 
Q 3072 2584 2669 2484 
Q 3125 2378 3379 2068 
Q 3634 1759 3634 1313 
Q 3634 634 3220 271 
Q 2806 -91 2034 -91 
Q 1263 -91 848 271 
Q 434 634 434 1313 
Q 434 1759 690 2068 
Q 947 2378 1403 2484 
z
M 1172 3481 
Q 1172 3119 1398 2916 
Q 1625 2713 2034 2713 
Q 2441 2713 2670 2916 
Q 2900 3119 2900 3481 
Q 2900 3844 2670 4047 
Q 2441 4250 2034 4250 
Q 1625 4250 1398 4047 
Q 1172 3844 1172 3481 
z
" transform="scale(0.015625)"/>
       </defs>
       <use xlink:href="#DejaVuSans-32"/>
       <use xlink:href="#DejaVuSans-30" x="63.623047"/>
       <use xlink:href="#DejaVuSans-32" x="127.246094"/>
       <use xlink:href="#DejaVuSans-34" x="190.869141"/>
       <use xlink:href="#DejaVuSans-2d" x="254.492188"/>
       <use xlink:href="#DejaVuSans-30" x="290.576172"/>
       <use xlink:href="#DejaVuSans-38" x="354.199219"/>
      </g>
     </g>
    </g>
    <g id="xtick_7">
     <g id="line2d_13">
      <path d="M 569.366395 578.54175 
L 569.366395 24.14175 
" clip-path="url(#p2161546448)" style="fill: none; stroke: #ffffff; stroke-width: 0.8; stroke-linecap: square"/>
     </g>
     <g id="line2d_14">
      <g>
       <use xlink:href="#m4afb03493b" x="569.366395" y="578.54175" style="fill: #555555; stroke: #555555; stroke-width: 0.8"/>
      </g>
     </g>
     <g id="text_7">
      <!-- 2024-09 -->
      <g style="fill: #555555" transform="translate(556.545113 620.459567) rotate(-45) scale(0.1 -0.1)">
       <defs>
        <path id="DejaVuSans-39" d="M 703 97 
L 703 672 
Q 941 559 1184 500 
Q 1428 441 1663 441 
Q 2288 441 2617 861 
Q 2947 1281 2994 2138 
Q 2813 1869 2534 1725 
Q 2256 1581 1919 1581 
Q 1219 1581 811 2004 
Q 403 2428 403 3163 
Q 403 3881 828 4315 
Q 1253 4750 1959 4750 
Q 2769 4750 3195 4129 
Q 3622 3509 3622 2328 
Q 3622 1225 3098 567 
Q 2575 -91 1691 -91 
Q 1453 -91 1209 -44 
Q 966 3 703 97 
z
M 1959 2075 
Q 2384 2075 2632 2365 
Q 2881 2656 2881 3163 
Q 2881 3666 2632 3958 
Q 2384 4250 1959 4250 
Q 1534 4250 1286 3958 
Q 1038 3666 1038 3163 
Q 1038 2656 1286 2365 
Q 1534 2075 1959 2075 
z
" transform="scale(0.015625)"/>
       </defs>
       <use xlink:href="#DejaVuSans-32"/>
       <use xlink:href="#DejaVuSans-30" x="63.623047"/>
       <use xlink:href="#DejaVuSans-32" x="127.246094"/>
       <use xlink:href="#DejaVuSans-34" x="190.869141"/>
       <use xlink:href="#DejaVuSans-2d" x="254.492188"/>
       <use xlink:href="#DejaVuSans-30" x="290.576172"/>
       <use xlink:href="#DejaVuSans-39" x="354.199219"/>
      </g>
     </g>
    </g>
    <g id="xtick_8">
     <g id="line2d_15">
      <path d="M 646.753024 578.54175 
L 646.753024 24.14175 
" clip-path="url(#p2161546448)" style="fill: none; stroke: #ffffff; stroke-width: 0.8; stroke-linecap: square"/>
     </g>
     <g id="line2d_16">
      <g>
       <use xlink:href="#m4afb03493b" x="646.753024" y="578.54175" style="fill: #555555; stroke: #555555; stroke-width: 0.8"/>
      </g>
     </g>
     <g id="text_8">
      <!-- 2024-10 -->
      <g style="fill: #555555" transform="translate(633.931741 620.459567) rotate(-45) scale(0.1 -0.1)">
       <defs>
        <path id="DejaVuSans-31" d="M 794 531 
L 1825 531 
L 1825 4091 
L 703 3866 
L 703 4441 
L 1819 4666 
L 2450 4666 
L 2450 531 
L 3481 531 
L 3481 0 
L 794 0 
L 794 531 
z
" transform="scale(0.015625)"/>
       </defs>
       <use xlink:href="#DejaVuSans-32"/>
       <use xlink:href="#DejaVuSans-30" x="63.623047"/>
       <use xlink:href="#DejaVuSans-32" x="127.246094"/>
       <use xlink:href="#DejaVuSans-34" x="190.869141"/>
       <use xlink:href="#DejaVuSans-2d" x="254.492188"/>
       <use xlink:href="#DejaVuSans-31" x="290.576172"/>
       <use xlink:href="#DejaVuSans-30" x="354.199219"/>
      </g>
     </g>
    </g>
    <g id="xtick_9">
     <g id="line2d_17">
      <path d="M 726.719206 578.54175 
L 726.719206 24.14175 
" clip-path="url(#p2161546448)" style="fill: none; stroke: #ffffff; stroke-width: 0.8; stroke-linecap: square"/>
     </g>
     <g id="line2d_18">
      <g>
       <use xlink:href="#m4afb03493b" x="726.719206" y="578.54175" style="fill: #555555; stroke: #555555; stroke-width: 0.8"/>
      </g>
     </g>
     <g id="text_9">
      <!-- 2024-11 -->
      <g style="fill: #555555" transform="translate(713.897924 620.459567) rotate(-45) scale(0.1 -0.1)">
       <use xlink:href="#DejaVuSans-32"/>
       <use xlink:href="#DejaVuSans-30" x="63.623047"/>
       <use xlink:href="#DejaVuSans-32" x="127.246094"/>
       <use xlink:href="#DejaVuSans-34" x="190.869141"/>
       <use xlink:href="#DejaVuSans-2d" x="254.492188"/>
       <use xlink:href="#DejaVuSans-31" x="290.576172"/>
       <use xlink:href="#DejaVuSans-31" x="354.199219"/>
      </g>
     </g>
    </g>
    <g id="xtick_10">
     <g id="line2d_19">
      <path d="M 804.105835 578.54175 
L 804.105835 24.14175 
" clip-path="url(#p2161546448)" style="fill: none; stroke: #ffffff; stroke-width: 0.8; stroke-linecap: square"/>
     </g>
     <g id="line2d_20">
      <g>
       <use xlink:href="#m4afb03493b" x="804.105835" y="578.54175" style="fill: #555555; stroke: #555555; stroke-width: 0.8"/>
      </g>
     </g>
     <g id="text_10">
      <!-- 2024-12 -->
      <g style="fill: #555555" transform="translate(791.284553 620.459567) rotate(-45) scale(0.1 -0.1)">
       <use xlink:href="#DejaVuSans-32"/>
       <use xlink:href="#DejaVuSans-30" x="63.623047"/>
       <use xlink:href="#DejaVuSans-32" x="127.246094"/>
       <use xlink:href="#DejaVuSans-34" x="190.869141"/>
       <use xlink:href="#DejaVuSans-2d" x="254.492188"/>
       <use xlink:href="#DejaVuSans-31" x="290.576172"/>
       <use xlink:href="#DejaVuSans-32" x="354.199219"/>
      </g>
     </g>
    </g>
    <g id="xtick_11">
     <g id="line2d_21">
      <path d="M 884.072018 578.54175 
L 884.072018 24.14175 
" clip-path="url(#p2161546448)" style="fill: none; stroke: #ffffff; stroke-width: 0.8; stroke-linecap: square"/>
     </g>
     <g id="line2d_22">
      <g>
       <use xlink:href="#m4afb03493b" x="884.072018" y="578.54175" style="fill: #555555; stroke: #555555; stroke-width: 0.8"/>
      </g>
     </g>
     <g id="text_11">
      <!-- 2025-01 -->
      <g style="fill: #555555" transform="translate(871.250736 620.459567) rotate(-45) scale(0.1 -0.1)">
       <use xlink:href="#DejaVuSans-32"/>
       <use xlink:href="#DejaVuSans-30" x="63.623047"/>
       <use xlink:href="#DejaVuSans-32" x="127.246094"/>
       <use xlink:href="#DejaVuSans-35" x="190.869141"/>
       <use xlink:href="#DejaVuSans-2d" x="254.492188"/>
       <use xlink:href="#DejaVuSans-30" x="290.576172"/>
       <use xlink:href="#DejaVuSans-31" x="354.199219"/>
      </g>
     </g>
    </g>
    <g id="text_12">
     <!-- Date -->
     <g style="fill: #555555" transform="translate(482.797938 635.048253) scale(0.12 -0.12)">
      <defs>
       <path id="DejaVuSans-44" d="M 1259 4147 
L 1259 519 
L 2022 519 
Q 2988 519 3436 956 
Q 3884 1394 3884 2338 
Q 3884 3275 3436 3711 
Q 2988 4147 2022 4147 
L 1259 4147 
z
M 628 4666 
L 1925 4666 
Q 3281 4666 3915 4102 
Q 4550 3538 4550 2338 
Q 4550 1131 3912 565 
Q 3275 0 1925 0 
L 628 0 
L 628 4666 
z
" transform="scale(0.015625)"/>
       <path id="DejaVuSans-61" d="M 2194 1759 
Q 1497 1759 1228 1600 
Q 959 1441 959 1056 
Q 959 750 1161 570 
Q 1363 391 1709 391 
Q 2188 391 2477 730 
Q 2766 1069 2766 1631 
L 2766 1759 
L 2194 1759 
z
M 3341 1997 
L 3341 0 
L 2766 0 
L 2766 531 
Q 2569 213 2275 61 
Q 1981 -91 1556 -91 
Q 1019 -91 701 211 
Q 384 513 384 1019 
Q 384 1609 779 1909 
Q 1175 2209 1959 2209 
L 2766 2209 
L 2766 2266 
Q 2766 2663 2505 2880 
Q 2244 3097 1772 3097 
Q 1472 3097 1187 3025 
Q 903 2953 641 2809 
L 641 3341 
Q 956 3463 1253 3523 
Q 1550 3584 1831 3584 
Q 2591 3584 2966 3190 
Q 3341 2797 3341 1997 
z
" transform="scale(0.015625)"/>
       <path id="DejaVuSans-74" d="M 1172 4494 
L 1172 3500 
L 2356 3500 
L 2356 3053 
L 1172 3053 
L 1172 1153 
Q 1172 725 1289 603 
Q 1406 481 1766 481 
L 2356 481 
L 2356 0 
L 1766 0 
Q 1100 0 847 248 
Q 594 497 594 1153 
L 594 3053 
L 172 3053 
L 172 3500 
L 594 3500 
L 594 4494 
L 1172 4494 
z
" transform="scale(0.015625)"/>
       <path id="DejaVuSans-65" d="M 3597 1894 
L 3597 1613 
L 953 1613 
Q 991 1019 1311 708 
Q 1631 397 2203 397 
Q 2534 397 2845 478 
Q 3156 559 3463 722 
L 3463 178 
Q 3153 47 2828 -22 
Q 2503 -91 2169 -91 
Q 1331 -91 842 396 
Q 353 884 353 1716 
Q 353 2575 817 3079 
Q 1281 3584 2069 3584 
Q 2775 3584 3186 3129 
Q 3597 2675 3597 1894 
z
M 3022 2063 
Q 3016 2534 2758 2815 
Q 2500 3097 2075 3097 
Q 1594 3097 1305 2825 
Q 1016 2553 972 2059 
L 3022 2063 
z
" transform="scale(0.015625)"/>
      </defs>
      <use xlink:href="#DejaVuSans-44"/>
      <use xlink:href="#DejaVuSans-61" x="77.001953"/>
      <use xlink:href="#DejaVuSans-74" x="138.28125"/>
      <use xlink:href="#DejaVuSans-65" x="177.490234"/>
     </g>
    </g>
   </g>
   <g id="matplotlib.axis_2">
    <g id="ytick_1">
     <g id="line2d_23">
      <path d="M 45.716875 578.54175 
L 948.560875 578.54175 
" clip-path="url(#p2161546448)" style="fill: none; stroke: #ffffff; stroke-width: 0.8; stroke-linecap: square"/>
     </g>
     <g id="line2d_24">
      <defs>
       <path id="med1191ed54" d="M 0 0 
L -3.5 0 
" style="stroke: #555555; stroke-width: 0.8"/>
      </defs>
      <g>
       <use xlink:href="#med1191ed54" x="45.716875" y="578.54175" style="fill: #555555; stroke: #555555; stroke-width: 0.8"/>
      </g>
     </g>
     <g id="text_13">
      <!-- 0.0 -->
      <g style="fill: #555555" transform="translate(22.81375 582.340969) scale(0.1 -0.1)">
       <defs>
        <path id="DejaVuSans-2e" d="M 684 794 
L 1344 794 
L 1344 0 
L 684 0 
L 684 794 
z
" transform="scale(0.015625)"/>
       </defs>
       <use xlink:href="#DejaVuSans-30"/>
       <use xlink:href="#DejaVuSans-2e" x="63.623047"/>
       <use xlink:href="#DejaVuSans-30" x="95.410156"/>
      </g>
     </g>
    </g>
    <g id="ytick_2">
     <g id="line2d_25">
      <path d="M 45.716875 464.976746 
L 948.560875 464.976746 
" clip-path="url(#p2161546448)" style="fill: none; stroke: #ffffff; stroke-width: 0.8; stroke-linecap: square"/>
     </g>
     <g id="line2d_26">
      <g>
       <use xlink:href="#med1191ed54" x="45.716875" y="464.976746" style="fill: #555555; stroke: #555555; stroke-width: 0.8"/>
      </g>
     </g>
     <g id="text_14">
      <!-- 0.2 -->
      <g style="fill: #555555" transform="translate(22.81375 468.775965) scale(0.1 -0.1)">
       <use xlink:href="#DejaVuSans-30"/>
       <use xlink:href="#DejaVuSans-2e" x="63.623047"/>
       <use xlink:href="#DejaVuSans-32" x="95.410156"/>
      </g>
     </g>
    </g>
    <g id="ytick_3">
     <g id="line2d_27">
      <path d="M 45.716875 351.411742 
L 948.560875 351.411742 
" clip-path="url(#p2161546448)" style="fill: none; stroke: #ffffff; stroke-width: 0.8; stroke-linecap: square"/>
     </g>
     <g id="line2d_28">
      <g>
       <use xlink:href="#med1191ed54" x="45.716875" y="351.411742" style="fill: #555555; stroke: #555555; stroke-width: 0.8"/>
      </g>
     </g>
     <g id="text_15">
      <!-- 0.4 -->
      <g style="fill: #555555" transform="translate(22.81375 355.210961) scale(0.1 -0.1)">
       <use xlink:href="#DejaVuSans-30"/>
       <use xlink:href="#DejaVuSans-2e" x="63.623047"/>
       <use xlink:href="#DejaVuSans-34" x="95.410156"/>
      </g>
     </g>
    </g>
    <g id="ytick_4">
     <g id="line2d_29">
      <path d="M 45.716875 237.846738 
L 948.560875 237.846738 
" clip-path="url(#p2161546448)" style="fill: none; stroke: #ffffff; stroke-width: 0.8; stroke-linecap: square"/>
     </g>
     <g id="line2d_30">
      <g>
       <use xlink:href="#med1191ed54" x="45.716875" y="237.846738" style="fill: #555555; stroke: #555555; stroke-width: 0.8"/>
      </g>
     </g>
     <g id="text_16">
      <!-- 0.6 -->
      <g style="fill: #555555" transform="translate(22.81375 241.645957) scale(0.1 -0.1)">
       <use xlink:href="#DejaVuSans-30"/>
       <use xlink:href="#DejaVuSans-2e" x="63.623047"/>
       <use xlink:href="#DejaVuSans-36" x="95.410156"/>
      </g>
     </g>
    </g>
    <g id="ytick_5">
     <g id="line2d_31">
      <path d="M 45.716875 124.281735 
L 948.560875 124.281735 
" clip-path="url(#p2161546448)" style="fill: none; stroke: #ffffff; stroke-width: 0.8; stroke-linecap: square"/>
     </g>
     <g id="line2d_32">
      <g>
       <use xlink:href="#med1191ed54" x="45.716875" y="124.281735" style="fill: #555555; stroke: #555555; stroke-width: 0.8"/>
      </g>
     </g>
     <g id="text_17">
      <!-- 0.8 -->
      <g style="fill: #555555" transform="translate(22.81375 128.080953) scale(0.1 -0.1)">
       <use xlink:href="#DejaVuSans-30"/>
       <use xlink:href="#DejaVuSans-2e" x="63.623047"/>
       <use xlink:href="#DejaVuSans-38" x="95.410156"/>
      </g>
     </g>
    </g>
    <g id="text_18">
     <!-- Share of Instances -->
     <g style="fill: #555555" transform="translate(16.318125 356.897063) rotate(-90) scale(0.12 -0.12)">
      <defs>
       <path id="DejaVuSans-53" d="M 3425 4513 
L 3425 3897 
Q 3066 4069 2747 4153 
Q 2428 4238 2131 4238 
Q 1616 4238 1336 4038 
Q 1056 3838 1056 3469 
Q 1056 3159 1242 3001 
Q 1428 2844 1947 2747 
L 2328 2669 
Q 3034 2534 3370 2195 
Q 3706 1856 3706 1288 
Q 3706 609 3251 259 
Q 2797 -91 1919 -91 
Q 1588 -91 1214 -16 
Q 841 59 441 206 
L 441 856 
Q 825 641 1194 531 
Q 1563 422 1919 422 
Q 2459 422 2753 634 
Q 3047 847 3047 1241 
Q 3047 1584 2836 1778 
Q 2625 1972 2144 2069 
L 1759 2144 
Q 1053 2284 737 2584 
Q 422 2884 422 3419 
Q 422 4038 858 4394 
Q 1294 4750 2059 4750 
Q 2388 4750 2728 4690 
Q 3069 4631 3425 4513 
z
" transform="scale(0.015625)"/>
       <path id="DejaVuSans-68" d="M 3513 2113 
L 3513 0 
L 2938 0 
L 2938 2094 
Q 2938 2591 2744 2837 
Q 2550 3084 2163 3084 
Q 1697 3084 1428 2787 
Q 1159 2491 1159 1978 
L 1159 0 
L 581 0 
L 581 4863 
L 1159 4863 
L 1159 2956 
Q 1366 3272 1645 3428 
Q 1925 3584 2291 3584 
Q 2894 3584 3203 3211 
Q 3513 2838 3513 2113 
z
" transform="scale(0.015625)"/>
       <path id="DejaVuSans-72" d="M 2631 2963 
Q 2534 3019 2420 3045 
Q 2306 3072 2169 3072 
Q 1681 3072 1420 2755 
Q 1159 2438 1159 1844 
L 1159 0 
L 581 0 
L 581 3500 
L 1159 3500 
L 1159 2956 
Q 1341 3275 1631 3429 
Q 1922 3584 2338 3584 
Q 2397 3584 2469 3576 
Q 2541 3569 2628 3553 
L 2631 2963 
z
" transform="scale(0.015625)"/>
       <path id="DejaVuSans-20" transform="scale(0.015625)"/>
       <path id="DejaVuSans-6f" d="M 1959 3097 
Q 1497 3097 1228 2736 
Q 959 2375 959 1747 
Q 959 1119 1226 758 
Q 1494 397 1959 397 
Q 2419 397 2687 759 
Q 2956 1122 2956 1747 
Q 2956 2369 2687 2733 
Q 2419 3097 1959 3097 
z
M 1959 3584 
Q 2709 3584 3137 3096 
Q 3566 2609 3566 1747 
Q 3566 888 3137 398 
Q 2709 -91 1959 -91 
Q 1206 -91 779 398 
Q 353 888 353 1747 
Q 353 2609 779 3096 
Q 1206 3584 1959 3584 
z
" transform="scale(0.015625)"/>
       <path id="DejaVuSans-66" d="M 2375 4863 
L 2375 4384 
L 1825 4384 
Q 1516 4384 1395 4259 
Q 1275 4134 1275 3809 
L 1275 3500 
L 2222 3500 
L 2222 3053 
L 1275 3053 
L 1275 0 
L 697 0 
L 697 3053 
L 147 3053 
L 147 3500 
L 697 3500 
L 697 3744 
Q 697 4328 969 4595 
Q 1241 4863 1831 4863 
L 2375 4863 
z
" transform="scale(0.015625)"/>
       <path id="DejaVuSans-49" d="M 628 4666 
L 1259 4666 
L 1259 0 
L 628 0 
L 628 4666 
z
" transform="scale(0.015625)"/>
       <path id="DejaVuSans-6e" d="M 3513 2113 
L 3513 0 
L 2938 0 
L 2938 2094 
Q 2938 2591 2744 2837 
Q 2550 3084 2163 3084 
Q 1697 3084 1428 2787 
Q 1159 2491 1159 1978 
L 1159 0 
L 581 0 
L 581 3500 
L 1159 3500 
L 1159 2956 
Q 1366 3272 1645 3428 
Q 1925 3584 2291 3584 
Q 2894 3584 3203 3211 
Q 3513 2838 3513 2113 
z
" transform="scale(0.015625)"/>
       <path id="DejaVuSans-73" d="M 2834 3397 
L 2834 2853 
Q 2591 2978 2328 3040 
Q 2066 3103 1784 3103 
Q 1356 3103 1142 2972 
Q 928 2841 928 2578 
Q 928 2378 1081 2264 
Q 1234 2150 1697 2047 
L 1894 2003 
Q 2506 1872 2764 1633 
Q 3022 1394 3022 966 
Q 3022 478 2636 193 
Q 2250 -91 1575 -91 
Q 1294 -91 989 -36 
Q 684 19 347 128 
L 347 722 
Q 666 556 975 473 
Q 1284 391 1588 391 
Q 1994 391 2212 530 
Q 2431 669 2431 922 
Q 2431 1156 2273 1281 
Q 2116 1406 1581 1522 
L 1381 1569 
Q 847 1681 609 1914 
Q 372 2147 372 2553 
Q 372 3047 722 3315 
Q 1072 3584 1716 3584 
Q 2034 3584 2315 3537 
Q 2597 3491 2834 3397 
z
" transform="scale(0.015625)"/>
       <path id="DejaVuSans-63" d="M 3122 3366 
L 3122 2828 
Q 2878 2963 2633 3030 
Q 2388 3097 2138 3097 
Q 1578 3097 1268 2742 
Q 959 2388 959 1747 
Q 959 1106 1268 751 
Q 1578 397 2138 397 
Q 2388 397 2633 464 
Q 2878 531 3122 666 
L 3122 134 
Q 2881 22 2623 -34 
Q 2366 -91 2075 -91 
Q 1284 -91 818 406 
Q 353 903 353 1747 
Q 353 2603 823 3093 
Q 1294 3584 2113 3584 
Q 2378 3584 2631 3529 
Q 2884 3475 3122 3366 
z
" transform="scale(0.015625)"/>
      </defs>
      <use xlink:href="#DejaVuSans-53"/>
      <use xlink:href="#DejaVuSans-68" x="63.476562"/>
      <use xlink:href="#DejaVuSans-61" x="126.855469"/>
      <use xlink:href="#DejaVuSans-72" x="188.134766"/>
      <use xlink:href="#DejaVuSans-65" x="226.998047"/>
      <use xlink:href="#DejaVuSans-20" x="288.521484"/>
      <use xlink:href="#DejaVuSans-6f" x="320.308594"/>
      <use xlink:href="#DejaVuSans-66" x="381.490234"/>
      <use xlink:href="#DejaVuSans-20" x="416.695312"/>
      <use xlink:href="#DejaVuSans-49" x="448.482422"/>
      <use xlink:href="#DejaVuSans-6e" x="477.974609"/>
      <use xlink:href="#DejaVuSans-73" x="541.353516"/>
      <use xlink:href="#DejaVuSans-74" x="593.453125"/>
      <use xlink:href="#DejaVuSans-61" x="632.662109"/>
      <use xlink:href="#DejaVuSans-6e" x="693.941406"/>
      <use xlink:href="#DejaVuSans-63" x="757.320312"/>
      <use xlink:href="#DejaVuSans-65" x="812.300781"/>
      <use xlink:href="#DejaVuSans-73" x="873.824219"/>
     </g>
    </g>
   </g>
   <g id="PolyCollection_1">
    <path d="M 45.716875 422.517379 
L 45.716875 578.54175 
L 63.773755 578.54175 
L 81.830635 578.54175 
L 99.887515 578.54175 
L 117.944395 578.54175 
L 136.001275 578.54175 
L 154.058155 578.54175 
L 172.115035 578.54175 
L 190.171915 578.54175 
L 208.228795 578.54175 
L 226.285675 578.54175 
L 244.342555 578.54175 
L 262.399435 578.54175 
L 280.456315 578.54175 
L 298.513195 578.54175 
L 316.570075 578.54175 
L 334.626955 578.54175 
L 352.683835 578.54175 
L 370.740715 578.54175 
L 388.797595 578.54175 
L 406.854475 578.54175 
L 424.911355 578.54175 
L 442.968235 578.54175 
L 461.025115 578.54175 
L 479.081995 578.54175 
L 497.138875 578.54175 
L 515.195755 578.54175 
L 533.252635 578.54175 
L 551.309515 578.54175 
L 569.366395 578.54175 
L 587.423275 578.54175 
L 605.480155 578.54175 
L 623.537035 578.54175 
L 641.593915 578.54175 
L 659.650795 578.54175 
L 677.707675 578.54175 
L 695.764555 578.54175 
L 713.821435 578.54175 
L 731.878315 578.54175 
L 749.935195 578.54175 
L 767.992075 578.54175 
L 786.048955 578.54175 
L 804.105835 578.54175 
L 822.162715 578.54175 
L 840.219595 578.54175 
L 858.276475 578.54175 
L 876.333355 578.54175 
L 894.390235 578.54175 
L 912.447115 578.54175 
L 930.503995 578.54175 
L 948.560875 578.54175 
L 948.560875 378.12445 
L 948.560875 378.12445 
L 930.503995 378.797094 
L 912.447115 380.368823 
L 894.390235 381.05559 
L 876.333355 381.555061 
L 858.276475 378.936461 
L 840.219595 378.967622 
L 822.162715 380.911008 
L 804.105835 382.661751 
L 786.048955 380.65698 
L 767.992075 380.890639 
L 749.935195 380.323235 
L 731.878315 380.179653 
L 713.821435 380.972335 
L 695.764555 381.539961 
L 677.707675 383.291685 
L 659.650795 387.236931 
L 641.593915 385.539463 
L 623.537035 388.553267 
L 605.480155 388.700393 
L 587.423275 390.569791 
L 569.366395 390.351201 
L 551.309515 393.197123 
L 533.252635 391.067395 
L 515.195755 393.186032 
L 497.138875 394.294213 
L 479.081995 396.123173 
L 461.025115 394.29549 
L 442.968235 393.322143 
L 424.911355 395.428895 
L 406.854475 394.387471 
L 388.797595 392.038149 
L 370.740715 392.259287 
L 352.683835 396.168087 
L 334.626955 410.465961 
L 316.570075 411.421812 
L 298.513195 411.393642 
L 280.456315 412.332622 
L 262.399435 411.534695 
L 244.342555 411.978186 
L 226.285675 412.014443 
L 208.228795 411.417281 
L 190.171915 411.346493 
L 172.115035 417.668895 
L 154.058155 416.435711 
L 136.001275 418.479436 
L 117.944395 413.902205 
L 99.887515 419.680836 
L 81.830635 420.369663 
L 63.773755 420.822868 
L 45.716875 422.517379 
z
" clip-path="url(#p2161546448)" style="fill: #48b585"/>
   </g>
   <g id="PolyCollection_2">
    <path d="M 45.716875 331.909592 
L 45.716875 422.517379 
L 63.773755 420.822868 
L 81.830635 420.369663 
L 99.887515 419.680836 
L 117.944395 413.902205 
L 136.001275 418.479436 
L 154.058155 416.435711 
L 172.115035 417.668895 
L 190.171915 411.346493 
L 208.228795 411.417281 
L 226.285675 412.014443 
L 244.342555 411.978186 
L 262.399435 411.534695 
L 280.456315 412.332622 
L 298.513195 411.393642 
L 316.570075 411.421812 
L 334.626955 410.465961 
L 352.683835 396.168087 
L 370.740715 392.259287 
L 388.797595 392.038149 
L 406.854475 394.387471 
L 424.911355 395.428895 
L 442.968235 393.322143 
L 461.025115 394.29549 
L 479.081995 396.123173 
L 497.138875 394.294213 
L 515.195755 393.186032 
L 533.252635 391.067395 
L 551.309515 393.197123 
L 569.366395 390.351201 
L 587.423275 390.569791 
L 605.480155 388.700393 
L 623.537035 388.553267 
L 641.593915 385.539463 
L 659.650795 387.236931 
L 677.707675 383.291685 
L 695.764555 381.539961 
L 713.821435 380.972335 
L 731.878315 380.179653 
L 749.935195 380.323235 
L 767.992075 380.890639 
L 786.048955 380.65698 
L 804.105835 382.661751 
L 822.162715 380.911008 
L 840.219595 378.967622 
L 858.276475 378.936461 
L 876.333355 381.555061 
L 894.390235 381.05559 
L 912.447115 380.368823 
L 930.503995 378.797094 
L 948.560875 378.12445 
L 948.560875 288.525968 
L 948.560875 288.525968 
L 930.503995 287.850123 
L 912.447115 289.140605 
L 894.390235 291.119156 
L 876.333355 291.618894 
L 858.276475 287.112174 
L 840.219595 286.186176 
L 822.162715 287.43219 
L 804.105835 289.274075 
L 786.048955 286.733749 
L 767.992075 286.193212 
L 749.935195 286.325402 
L 731.878315 284.969348 
L 713.821435 284.687973 
L 695.764555 285.854675 
L 677.707675 287.587425 
L 659.650795 288.839402 
L 641.593915 290.379473 
L 623.537035 291.684243 
L 605.480155 291.324438 
L 587.423275 291.825637 
L 569.366395 291.5586 
L 551.309515 292.247948 
L 533.252635 290.824525 
L 515.195755 293.046487 
L 497.138875 293.091023 
L 479.081995 296.839518 
L 461.025115 296.575722 
L 442.968235 295.745958 
L 424.911355 298.59531 
L 406.854475 296.440614 
L 388.797595 289.430338 
L 370.740715 293.064228 
L 352.683835 300.658275 
L 334.626955 321.461199 
L 316.570075 322.633053 
L 298.513195 321.964899 
L 280.456315 322.835791 
L 262.399435 323.077035 
L 244.342555 324.135879 
L 226.285675 323.437593 
L 208.228795 323.663947 
L 190.171915 325.649477 
L 172.115035 331.149879 
L 154.058155 330.294291 
L 136.001275 330.999925 
L 117.944395 325.485117 
L 99.887515 330.937825 
L 81.830635 331.05517 
L 63.773755 331.946735 
L 45.716875 331.909592 
z
" clip-path="url(#p2161546448)" style="fill: #e2321d"/>
   </g>
   <g id="PolyCollection_3">
    <path d="M 45.716875 236.191638 
L 45.716875 331.909592 
L 63.773755 331.946735 
L 81.830635 331.05517 
L 99.887515 330.937825 
L 117.944395 325.485117 
L 136.001275 330.999925 
L 154.058155 330.294291 
L 172.115035 331.149879 
L 190.171915 325.649477 
L 208.228795 323.663947 
L 226.285675 323.437593 
L 244.342555 324.135879 
L 262.399435 323.077035 
L 280.456315 322.835791 
L 298.513195 321.964899 
L 316.570075 322.633053 
L 334.626955 321.461199 
L 352.683835 300.658275 
L 370.740715 293.064228 
L 388.797595 289.430338 
L 406.854475 296.440614 
L 424.911355 298.59531 
L 442.968235 295.745958 
L 461.025115 296.575722 
L 479.081995 296.839518 
L 497.138875 293.091023 
L 515.195755 293.046487 
L 533.252635 290.824525 
L 551.309515 292.247948 
L 569.366395 291.5586 
L 587.423275 291.825637 
L 605.480155 291.324438 
L 623.537035 291.684243 
L 641.593915 290.379473 
L 659.650795 288.839402 
L 677.707675 287.587425 
L 695.764555 285.854675 
L 713.821435 284.687973 
L 731.878315 284.969348 
L 749.935195 286.325402 
L 767.992075 286.193212 
L 786.048955 286.733749 
L 804.105835 289.274075 
L 822.162715 287.43219 
L 840.219595 286.186176 
L 858.276475 287.112174 
L 876.333355 291.618894 
L 894.390235 291.119156 
L 912.447115 289.140605 
L 930.503995 287.850123 
L 948.560875 288.525968 
L 948.560875 236.051198 
L 948.560875 236.051198 
L 930.503995 235.220834 
L 912.447115 235.893263 
L 894.390235 237.807861 
L 876.333355 238.644863 
L 858.276475 235.537221 
L 840.219595 234.943076 
L 822.162715 235.912268 
L 804.105835 237.133056 
L 786.048955 235.342518 
L 767.992075 235.138074 
L 749.935195 235.925514 
L 731.878315 235.025892 
L 713.821435 235.728175 
L 695.764555 237.17614 
L 677.707675 239.190992 
L 659.650795 239.509529 
L 641.593915 241.28556 
L 623.537035 242.895254 
L 605.480155 242.10716 
L 587.423275 242.894342 
L 569.366395 241.398841 
L 551.309515 244.242997 
L 533.252635 243.93665 
L 515.195755 245.67222 
L 497.138875 243.204863 
L 479.081995 246.454014 
L 461.025115 244.877334 
L 442.968235 245.159745 
L 424.911355 248.740226 
L 406.854475 247.878086 
L 388.797595 244.667585 
L 370.740715 251.014744 
L 352.683835 249.228036 
L 334.626955 235.85534 
L 316.570075 234.992407 
L 298.513195 232.880832 
L 280.456315 232.885577 
L 262.399435 233.042315 
L 244.342555 233.271804 
L 226.285675 231.844366 
L 208.228795 229.931607 
L 190.171915 236.076572 
L 172.115035 241.66795 
L 154.058155 242.912176 
L 136.001275 241.303083 
L 117.944395 238.276035 
L 99.887515 243.793721 
L 81.830635 242.998678 
L 63.773755 242.840992 
L 45.716875 236.191638 
z
" clip-path="url(#p2161546448)" style="fill: #9a5689"/>
   </g>
   <g id="PolyCollection_4">
    <path d="M 45.716875 108.32976 
L 45.716875 236.191638 
L 63.773755 242.840992 
L 81.830635 242.998678 
L 99.887515 243.793721 
L 117.944395 238.276035 
L 136.001275 241.303083 
L 154.058155 242.912176 
L 172.115035 241.66795 
L 190.171915 236.076572 
L 208.228795 229.931607 
L 226.285675 231.844366 
L 244.342555 233.271804 
L 262.399435 233.042315 
L 280.456315 232.885577 
L 298.513195 232.880832 
L 316.570075 234.992407 
L 334.626955 235.85534 
L 352.683835 249.228036 
L 370.740715 251.014744 
L 388.797595 244.667585 
L 406.854475 247.878086 
L 424.911355 248.740226 
L 442.968235 245.159745 
L 461.025115 244.877334 
L 479.081995 246.454014 
L 497.138875 243.204863 
L 515.195755 245.67222 
L 533.252635 243.93665 
L 551.309515 244.242997 
L 569.366395 241.398841 
L 587.423275 242.894342 
L 605.480155 242.10716 
L 623.537035 242.895254 
L 641.593915 241.28556 
L 659.650795 239.509529 
L 677.707675 239.190992 
L 695.764555 237.17614 
L 713.821435 235.728175 
L 731.878315 235.025892 
L 749.935195 235.925514 
L 767.992075 235.138074 
L 786.048955 235.342518 
L 804.105835 237.133056 
L 822.162715 235.912268 
L 840.219595 234.943076 
L 858.276475 235.537221 
L 876.333355 238.644863 
L 894.390235 237.807861 
L 912.447115 235.893263 
L 930.503995 235.220834 
L 948.560875 236.051198 
L 948.560875 87.887868 
L 948.560875 87.887868 
L 930.503995 87.556393 
L 912.447115 88.289848 
L 894.390235 87.923385 
L 876.333355 88.402796 
L 858.276475 90.015934 
L 840.219595 89.392454 
L 822.162715 90.148957 
L 804.105835 88.839141 
L 786.048955 89.560297 
L 767.992075 89.697167 
L 749.935195 91.200106 
L 731.878315 91.102041 
L 713.821435 91.387935 
L 695.764555 92.353089 
L 677.707675 94.012222 
L 659.650795 92.488191 
L 641.593915 96.063974 
L 623.537035 97.359388 
L 605.480155 96.825788 
L 587.423275 96.873072 
L 569.366395 95.828051 
L 551.309515 100.08825 
L 533.252635 99.759558 
L 515.195755 98.092709 
L 497.138875 98.422294 
L 479.081995 101.277527 
L 461.025115 99.966144 
L 442.968235 100.547103 
L 424.911355 103.618927 
L 406.854475 104.643028 
L 388.797595 105.452499 
L 370.740715 106.893848 
L 352.683835 109.679742 
L 334.626955 104.999827 
L 316.570075 106.486546 
L 298.513195 104.40352 
L 280.456315 103.774179 
L 262.399435 104.816044 
L 244.342555 106.669835 
L 226.285675 105.832121 
L 208.228795 105.618241 
L 190.171915 113.146832 
L 172.115035 117.683775 
L 154.058155 120.989854 
L 136.001275 118.429213 
L 117.944395 114.96901 
L 99.887515 118.845456 
L 81.830635 118.124516 
L 63.773755 118.678998 
L 45.716875 108.32976 
z
" clip-path="url(#p2161546448)" style="fill: #4ac1fa"/>
   </g>
   <g id="PolyCollection_5">
    <path d="M 45.716875 85.138042 
L 45.716875 108.32976 
L 63.773755 118.678998 
L 81.830635 118.124516 
L 99.887515 118.845456 
L 117.944395 114.96901 
L 136.001275 118.429213 
L 154.058155 120.989854 
L 172.115035 117.683775 
L 190.171915 113.146832 
L 208.228795 105.618241 
L 226.285675 105.832121 
L 244.342555 106.669835 
L 262.399435 104.816044 
L 280.456315 103.774179 
L 298.513195 104.40352 
L 316.570075 106.486546 
L 334.626955 104.999827 
L 352.683835 109.679742 
L 370.740715 106.893848 
L 388.797595 105.452499 
L 406.854475 104.643028 
L 424.911355 103.618927 
L 442.968235 100.547103 
L 461.025115 99.966144 
L 479.081995 101.277527 
L 497.138875 98.422294 
L 515.195755 98.092709 
L 533.252635 99.759558 
L 551.309515 100.08825 
L 569.366395 95.828051 
L 587.423275 96.873072 
L 605.480155 96.825788 
L 623.537035 97.359388 
L 641.593915 96.063974 
L 659.650795 92.488191 
L 677.707675 94.012222 
L 695.764555 92.353089 
L 713.821435 91.387935 
L 731.878315 91.102041 
L 749.935195 91.200106 
L 767.992075 89.697167 
L 786.048955 89.560297 
L 804.105835 88.839141 
L 822.162715 90.148957 
L 840.219595 89.392454 
L 858.276475 90.015934 
L 876.333355 88.402796 
L 894.390235 87.923385 
L 912.447115 88.289848 
L 930.503995 87.556393 
L 948.560875 87.887868 
L 948.560875 67.527921 
L 948.560875 67.527921 
L 930.503995 66.506714 
L 912.447115 67.630601 
L 894.390235 67.889661 
L 876.333355 68.492796 
L 858.276475 68.697597 
L 840.219595 68.215427 
L 822.162715 67.993077 
L 804.105835 65.643796 
L 786.048955 68.125597 
L 767.992075 67.929522 
L 749.935195 69.131032 
L 731.878315 69.036566 
L 713.821435 70.140884 
L 695.764555 71.05257 
L 677.707675 72.274365 
L 659.650795 70.667974 
L 641.593915 73.727418 
L 623.537035 75.313434 
L 605.480155 74.353423 
L 587.423275 74.077015 
L 569.366395 73.339963 
L 551.309515 77.443267 
L 533.252635 77.14311 
L 515.195755 74.972705 
L 497.138875 75.601189 
L 479.081995 77.826025 
L 461.025115 76.699938 
L 442.968235 77.746074 
L 424.911355 80.718122 
L 406.854475 81.168303 
L 388.797595 82.41007 
L 370.740715 83.366956 
L 352.683835 85.949169 
L 334.626955 83.764887 
L 316.570075 84.019153 
L 298.513195 82.03741 
L 280.456315 81.402021 
L 262.399435 81.663259 
L 244.342555 85.029847 
L 226.285675 83.29024 
L 208.228795 81.82722 
L 190.171915 91.531183 
L 172.115035 95.420724 
L 154.058155 99.086957 
L 136.001275 95.374887 
L 117.944395 92.002903 
L 99.887515 96.16061 
L 81.830635 94.868448 
L 63.773755 96.258246 
L 45.716875 85.138042 
z
" clip-path="url(#p2161546448)" style="fill: #be503b"/>
   </g>
   <g id="PolyCollection_6">
    <path d="M 45.716875 24.551253 
L 45.716875 85.138042 
L 63.773755 96.258246 
L 81.830635 94.868448 
L 99.887515 96.16061 
L 117.944395 92.002903 
L 136.001275 95.374887 
L 154.058155 99.086957 
L 172.115035 95.420724 
L 190.171915 91.531183 
L 208.228795 81.82722 
L 226.285675 83.29024 
L 244.342555 85.029847 
L 262.399435 81.663259 
L 280.456315 81.402021 
L 298.513195 82.03741 
L 316.570075 84.019153 
L 334.626955 83.764887 
L 352.683835 85.949169 
L 370.740715 83.366956 
L 388.797595 82.41007 
L 406.854475 81.168303 
L 424.911355 80.718122 
L 442.968235 77.746074 
L 461.025115 76.699938 
L 479.081995 77.826025 
L 497.138875 75.601189 
L 515.195755 74.972705 
L 533.252635 77.14311 
L 551.309515 77.443267 
L 569.366395 73.339963 
L 587.423275 74.077015 
L 605.480155 74.353423 
L 623.537035 75.313434 
L 641.593915 73.727418 
L 659.650795 70.667974 
L 677.707675 72.274365 
L 695.764555 71.05257 
L 713.821435 70.140884 
L 731.878315 69.036566 
L 749.935195 69.131032 
L 767.992075 67.929522 
L 786.048955 68.125597 
L 804.105835 65.643796 
L 822.162715 67.993077 
L 840.219595 68.215427 
L 858.276475 68.697597 
L 876.333355 68.492796 
L 894.390235 67.889661 
L 912.447115 67.630601 
L 930.503995 66.506714 
L 948.560875 67.527921 
L 948.560875 27.997949 
L 948.560875 27.997949 
L 930.503995 28.03446 
L 912.447115 28.128114 
L 894.390235 28.717347 
L 876.333355 28.719152 
L 858.276475 27.918749 
L 840.219595 27.851124 
L 822.162715 27.873558 
L 804.105835 28.11347 
L 786.048955 27.79185 
L 767.992075 27.87785 
L 749.935195 27.818529 
L 731.878315 27.854536 
L 713.821435 27.73728 
L 695.764555 27.866873 
L 677.707675 28.115373 
L 659.650795 28.633659 
L 641.593915 28.337886 
L 623.537035 28.456452 
L 605.480155 28.422938 
L 587.423275 28.554163 
L 569.366395 28.269852 
L 551.309515 28.063354 
L 533.252635 28.229534 
L 515.195755 28.476106 
L 497.138875 28.219243 
L 479.081995 28.202519 
L 461.025115 28.31195 
L 442.968235 28.144291 
L 424.911355 28.188217 
L 406.854475 28.20667 
L 388.797595 27.946463 
L 370.740715 28.661351 
L 352.683835 27.454971 
L 334.626955 25.859789 
L 316.570075 25.981921 
L 298.513195 25.994211 
L 280.456315 25.678422 
L 262.399435 25.466846 
L 244.342555 25.275156 
L 226.285675 25.089998 
L 208.228795 24.993087 
L 190.171915 24.765926 
L 172.115035 24.892372 
L 154.058155 24.216512 
L 136.001275 24.452545 
L 117.944395 24.562645 
L 99.887515 24.538096 
L 81.830635 24.275744 
L 63.773755 24.14175 
L 45.716875 24.551253 
z
" clip-path="url(#p2161546448)" style="fill: #e9a942"/>
   </g>
   <g id="patch_3">
    <path d="M 45.716875 578.54175 
L 45.716875 24.14175 
" style="fill: none; stroke: #ffffff; stroke-linejoin: miter; stroke-linecap: square"/>
   </g>
   <g id="patch_4">
    <path d="M 948.560875 578.54175 
L 948.560875 24.14175 
" style="fill: none; stroke: #ffffff; stroke-linejoin: miter; stroke-linecap: square"/>
   </g>
   <g id="patch_5">
    <path d="M 45.716875 578.54175 
L 948.560875 578.54175 
" style="fill: none; stroke: #ffffff; stroke-linejoin: miter; stroke-linecap: square"/>
   </g>
   <g id="patch_6">
    <path d="M 45.716875 24.14175 
L 948.560875 24.14175 
" style="fill: none; stroke: #ffffff; stroke-linejoin: miter; stroke-linecap: square"/>
   </g>
   <g id="text_19">
    <!-- Enterprise Linux Instances by Distribution Share -->
    <g transform="translate(45.716875 18.14175) scale(0.144 -0.144)">
     <defs>
      <path id="DejaVuSans-45" d="M 628 4666 
L 3578 4666 
L 3578 4134 
L 1259 4134 
L 1259 2753 
L 3481 2753 
L 3481 2222 
L 1259 2222 
L 1259 531 
L 3634 531 
L 3634 0 
L 628 0 
L 628 4666 
z
" transform="scale(0.015625)"/>
      <path id="DejaVuSans-70" d="M 1159 525 
L 1159 -1331 
L 581 -1331 
L 581 3500 
L 1159 3500 
L 1159 2969 
Q 1341 3281 1617 3432 
Q 1894 3584 2278 3584 
Q 2916 3584 3314 3078 
Q 3713 2572 3713 1747 
Q 3713 922 3314 415 
Q 2916 -91 2278 -91 
Q 1894 -91 1617 61 
Q 1341 213 1159 525 
z
M 3116 1747 
Q 3116 2381 2855 2742 
Q 2594 3103 2138 3103 
Q 1681 3103 1420 2742 
Q 1159 2381 1159 1747 
Q 1159 1113 1420 752 
Q 1681 391 2138 391 
Q 2594 391 2855 752 
Q 3116 1113 3116 1747 
z
" transform="scale(0.015625)"/>
      <path id="DejaVuSans-69" d="M 603 3500 
L 1178 3500 
L 1178 0 
L 603 0 
L 603 3500 
z
M 603 4863 
L 1178 4863 
L 1178 4134 
L 603 4134 
L 603 4863 
z
" transform="scale(0.015625)"/>
      <path id="DejaVuSans-4c" d="M 628 4666 
L 1259 4666 
L 1259 531 
L 3531 531 
L 3531 0 
L 628 0 
L 628 4666 
z
" transform="scale(0.015625)"/>
      <path id="DejaVuSans-75" d="M 544 1381 
L 544 3500 
L 1119 3500 
L 1119 1403 
Q 1119 906 1312 657 
Q 1506 409 1894 409 
Q 2359 409 2629 706 
Q 2900 1003 2900 1516 
L 2900 3500 
L 3475 3500 
L 3475 0 
L 2900 0 
L 2900 538 
Q 2691 219 2414 64 
Q 2138 -91 1772 -91 
Q 1169 -91 856 284 
Q 544 659 544 1381 
z
M 1991 3584 
L 1991 3584 
z
" transform="scale(0.015625)"/>
      <path id="DejaVuSans-78" d="M 3513 3500 
L 2247 1797 
L 3578 0 
L 2900 0 
L 1881 1375 
L 863 0 
L 184 0 
L 1544 1831 
L 300 3500 
L 978 3500 
L 1906 2253 
L 2834 3500 
L 3513 3500 
z
" transform="scale(0.015625)"/>
      <path id="DejaVuSans-62" d="M 3116 1747 
Q 3116 2381 2855 2742 
Q 2594 3103 2138 3103 
Q 1681 3103 1420 2742 
Q 1159 2381 1159 1747 
Q 1159 1113 1420 752 
Q 1681 391 2138 391 
Q 2594 391 2855 752 
Q 3116 1113 3116 1747 
z
M 1159 2969 
Q 1341 3281 1617 3432 
Q 1894 3584 2278 3584 
Q 2916 3584 3314 3078 
Q 3713 2572 3713 1747 
Q 3713 922 3314 415 
Q 2916 -91 2278 -91 
Q 1894 -91 1617 61 
Q 1341 213 1159 525 
L 1159 0 
L 581 0 
L 581 4863 
L 1159 4863 
L 1159 2969 
z
" transform="scale(0.015625)"/>
      <path id="DejaVuSans-79" d="M 2059 -325 
Q 1816 -950 1584 -1140 
Q 1353 -1331 966 -1331 
L 506 -1331 
L 506 -850 
L 844 -850 
Q 1081 -850 1212 -737 
Q 1344 -625 1503 -206 
L 1606 56 
L 191 3500 
L 800 3500 
L 1894 763 
L 2988 3500 
L 3597 3500 
L 2059 -325 
z
" transform="scale(0.015625)"/>
     </defs>
     <use xlink:href="#DejaVuSans-45"/>
     <use xlink:href="#DejaVuSans-6e" x="63.183594"/>
     <use xlink:href="#DejaVuSans-74" x="126.5625"/>
     <use xlink:href="#DejaVuSans-65" x="165.771484"/>
     <use xlink:href="#DejaVuSans-72" x="227.294922"/>
     <use xlink:href="#DejaVuSans-70" x="268.408203"/>
     <use xlink:href="#DejaVuSans-72" x="331.884766"/>
     <use xlink:href="#DejaVuSans-69" x="372.998047"/>
     <use xlink:href="#DejaVuSans-73" x="400.78125"/>
     <use xlink:href="#DejaVuSans-65" x="452.880859"/>
     <use xlink:href="#DejaVuSans-20" x="514.404297"/>
     <use xlink:href="#DejaVuSans-4c" x="546.191406"/>
     <use xlink:href="#DejaVuSans-69" x="601.904297"/>
     <use xlink:href="#DejaVuSans-6e" x="629.6875"/>
     <use xlink:href="#DejaVuSans-75" x="693.066406"/>
     <use xlink:href="#DejaVuSans-78" x="756.445312"/>
     <use xlink:href="#DejaVuSans-20" x="815.625"/>
     <use xlink:href="#DejaVuSans-49" x="847.412109"/>
     <use xlink:href="#DejaVuSans-6e" x="876.904297"/>
     <use xlink:href="#DejaVuSans-73" x="940.283203"/>
     <use xlink:href="#DejaVuSans-74" x="992.382812"/>
     <use xlink:href="#DejaVuSans-61" x="1031.591797"/>
     <use xlink:href="#DejaVuSans-6e" x="1092.871094"/>
     <use xlink:href="#DejaVuSans-63" x="1156.25"/>
     <use xlink:href="#DejaVuSans-65" x="1211.230469"/>
     <use xlink:href="#DejaVuSans-73" x="1272.753906"/>
     <use xlink:href="#DejaVuSans-20" x="1324.853516"/>
     <use xlink:href="#DejaVuSans-62" x="1356.640625"/>
     <use xlink:href="#DejaVuSans-79" x="1420.117188"/>
     <use xlink:href="#DejaVuSans-20" x="1479.296875"/>
     <use xlink:href="#DejaVuSans-44" x="1511.083984"/>
     <use xlink:href="#DejaVuSans-69" x="1588.085938"/>
     <use xlink:href="#DejaVuSans-73" x="1615.869141"/>
     <use xlink:href="#DejaVuSans-74" x="1667.96875"/>
     <use xlink:href="#DejaVuSans-72" x="1707.177734"/>
     <use xlink:href="#DejaVuSans-69" x="1748.291016"/>
     <use xlink:href="#DejaVuSans-62" x="1776.074219"/>
     <use xlink:href="#DejaVuSans-75" x="1839.550781"/>
     <use xlink:href="#DejaVuSans-74" x="1902.929688"/>
     <use xlink:href="#DejaVuSans-69" x="1942.138672"/>
     <use xlink:href="#DejaVuSans-6f" x="1969.921875"/>
     <use xlink:href="#DejaVuSans-6e" x="2031.103516"/>
     <use xlink:href="#DejaVuSans-20" x="2094.482422"/>
     <use xlink:href="#DejaVuSans-53" x="2126.269531"/>
     <use xlink:href="#DejaVuSans-68" x="2189.746094"/>
     <use xlink:href="#DejaVuSans-61" x="2253.125"/>
     <use xlink:href="#DejaVuSans-72" x="2314.404297"/>
     <use xlink:href="#DejaVuSans-65" x="2353.267578"/>
    </g>
   </g>
   <g id="text_20">
    <!-- 2025-02-06 11:54 UTC -->
    <g transform="translate(785.678875 18.14175) scale(0.144 -0.144)">
     <defs>
      <path id="DejaVuSans-3a" d="M 750 794 
L 1409 794 
L 1409 0 
L 750 0 
L 750 794 
z
M 750 3309 
L 1409 3309 
L 1409 2516 
L 750 2516 
L 750 3309 
z
" transform="scale(0.015625)"/>
      <path id="DejaVuSans-55" d="M 556 4666 
L 1191 4666 
L 1191 1831 
Q 1191 1081 1462 751 
Q 1734 422 2344 422 
Q 2950 422 3222 751 
Q 3494 1081 3494 1831 
L 3494 4666 
L 4128 4666 
L 4128 1753 
Q 4128 841 3676 375 
Q 3225 -91 2344 -91 
Q 1459 -91 1007 375 
Q 556 841 556 1753 
L 556 4666 
z
" transform="scale(0.015625)"/>
      <path id="DejaVuSans-54" d="M -19 4666 
L 3928 4666 
L 3928 4134 
L 2272 4134 
L 2272 0 
L 1638 0 
L 1638 4134 
L -19 4134 
L -19 4666 
z
" transform="scale(0.015625)"/>
      <path id="DejaVuSans-43" d="M 4122 4306 
L 4122 3641 
Q 3803 3938 3442 4084 
Q 3081 4231 2675 4231 
Q 1875 4231 1450 3742 
Q 1025 3253 1025 2328 
Q 1025 1406 1450 917 
Q 1875 428 2675 428 
Q 3081 428 3442 575 
Q 3803 722 4122 1019 
L 4122 359 
Q 3791 134 3420 21 
Q 3050 -91 2638 -91 
Q 1578 -91 968 557 
Q 359 1206 359 2328 
Q 359 3453 968 4101 
Q 1578 4750 2638 4750 
Q 3056 4750 3426 4639 
Q 3797 4528 4122 4306 
z
" transform="scale(0.015625)"/>
     </defs>
     <use xlink:href="#DejaVuSans-32"/>
     <use xlink:href="#DejaVuSans-30" x="63.623047"/>
     <use xlink:href="#DejaVuSans-32" x="127.246094"/>
     <use xlink:href="#DejaVuSans-35" x="190.869141"/>
     <use xlink:href="#DejaVuSans-2d" x="254.492188"/>
     <use xlink:href="#DejaVuSans-30" x="290.576172"/>
     <use xlink:href="#DejaVuSans-32" x="354.199219"/>
     <use xlink:href="#DejaVuSans-2d" x="417.822266"/>
     <use xlink:href="#DejaVuSans-30" x="453.90625"/>
     <use xlink:href="#DejaVuSans-36" x="517.529297"/>
     <use xlink:href="#DejaVuSans-20" x="581.152344"/>
     <use xlink:href="#DejaVuSans-31" x="612.939453"/>
     <use xlink:href="#DejaVuSans-31" x="676.5625"/>
     <use xlink:href="#DejaVuSans-3a" x="740.185547"/>
     <use xlink:href="#DejaVuSans-35" x="773.876953"/>
     <use xlink:href="#DejaVuSans-34" x="837.5"/>
     <use xlink:href="#DejaVuSans-20" x="901.123047"/>
     <use xlink:href="#DejaVuSans-55" x="932.910156"/>
     <use xlink:href="#DejaVuSans-54" x="1006.103516"/>
     <use xlink:href="#DejaVuSans-43" x="1061.3125"/>
    </g>
   </g>
   <g id="legend_1">
    <g id="patch_7">
     <path d="M 52.716875 134.888625 
L 161.685625 134.888625 
Q 163.685625 134.888625 163.685625 132.888625 
L 163.685625 31.14175 
Q 163.685625 29.14175 161.685625 29.14175 
L 52.716875 29.14175 
Q 50.716875 29.14175 50.716875 31.14175 
L 50.716875 132.888625 
Q 50.716875 134.888625 52.716875 134.888625 
z
" style="fill: #e5e5e5; opacity: 0.8; stroke: #cccccc; stroke-width: 0.5; stroke-linejoin: miter"/>
    </g>
    <g id="text_21">
     <!-- Distribution -->
     <g transform="translate(78.0325 40.740188) scale(0.1 -0.1)">
      <use xlink:href="#DejaVuSans-44"/>
      <use xlink:href="#DejaVuSans-69" x="77.001953"/>
      <use xlink:href="#DejaVuSans-73" x="104.785156"/>
      <use xlink:href="#DejaVuSans-74" x="156.884766"/>
      <use xlink:href="#DejaVuSans-72" x="196.09375"/>
      <use xlink:href="#DejaVuSans-69" x="237.207031"/>
      <use xlink:href="#DejaVuSans-62" x="264.990234"/>
      <use xlink:href="#DejaVuSans-75" x="328.466797"/>
      <use xlink:href="#DejaVuSans-74" x="391.845703"/>
      <use xlink:href="#DejaVuSans-69" x="431.054688"/>
      <use xlink:href="#DejaVuSans-6f" x="458.837891"/>
      <use xlink:href="#DejaVuSans-6e" x="520.019531"/>
     </g>
    </g>
    <g id="patch_8">
     <path d="M 54.716875 55.418313 
L 74.716875 55.418313 
L 74.716875 48.418313 
L 54.716875 48.418313 
z
" style="fill: #48b585"/>
    </g>
    <g id="text_22">
     <!-- Rocky Linux -->
     <g transform="translate(82.716875 55.418313) scale(0.1 -0.1)">
      <defs>
       <path id="DejaVuSans-52" d="M 2841 2188 
Q 3044 2119 3236 1894 
Q 3428 1669 3622 1275 
L 4263 0 
L 3584 0 
L 2988 1197 
Q 2756 1666 2539 1819 
Q 2322 1972 1947 1972 
L 1259 1972 
L 1259 0 
L 628 0 
L 628 4666 
L 2053 4666 
Q 2853 4666 3247 4331 
Q 3641 3997 3641 3322 
Q 3641 2881 3436 2590 
Q 3231 2300 2841 2188 
z
M 1259 4147 
L 1259 2491 
L 2053 2491 
Q 2509 2491 2742 2702 
Q 2975 2913 2975 3322 
Q 2975 3731 2742 3939 
Q 2509 4147 2053 4147 
L 1259 4147 
z
" transform="scale(0.015625)"/>
       <path id="DejaVuSans-6b" d="M 581 4863 
L 1159 4863 
L 1159 1991 
L 2875 3500 
L 3609 3500 
L 1753 1863 
L 3688 0 
L 2938 0 
L 1159 1709 
L 1159 0 
L 581 0 
L 581 4863 
z
" transform="scale(0.015625)"/>
      </defs>
      <use xlink:href="#DejaVuSans-52"/>
      <use xlink:href="#DejaVuSans-6f" x="64.982422"/>
      <use xlink:href="#DejaVuSans-63" x="126.164062"/>
      <use xlink:href="#DejaVuSans-6b" x="181.144531"/>
      <use xlink:href="#DejaVuSans-79" x="235.429688"/>
      <use xlink:href="#DejaVuSans-20" x="294.609375"/>
      <use xlink:href="#DejaVuSans-4c" x="326.396484"/>
      <use xlink:href="#DejaVuSans-69" x="382.109375"/>
      <use xlink:href="#DejaVuSans-6e" x="409.892578"/>
      <use xlink:href="#DejaVuSans-75" x="473.271484"/>
      <use xlink:href="#DejaVuSans-78" x="536.650391"/>
     </g>
    </g>
    <g id="patch_9">
     <path d="M 54.716875 70.096438 
L 74.716875 70.096438 
L 74.716875 63.096438 
L 54.716875 63.096438 
z
" style="fill: #e2321d"/>
    </g>
    <g id="text_23">
     <!-- RHEL -->
     <g transform="translate(82.716875 70.096438) scale(0.1 -0.1)">
      <defs>
       <path id="DejaVuSans-48" d="M 628 4666 
L 1259 4666 
L 1259 2753 
L 3553 2753 
L 3553 4666 
L 4184 4666 
L 4184 0 
L 3553 0 
L 3553 2222 
L 1259 2222 
L 1259 0 
L 628 0 
L 628 4666 
z
" transform="scale(0.015625)"/>
      </defs>
      <use xlink:href="#DejaVuSans-52"/>
      <use xlink:href="#DejaVuSans-48" x="69.482422"/>
      <use xlink:href="#DejaVuSans-45" x="144.677734"/>
      <use xlink:href="#DejaVuSans-4c" x="207.861328"/>
     </g>
    </g>
    <g id="patch_10">
     <path d="M 54.716875 84.774563 
L 74.716875 84.774563 
L 74.716875 77.774563 
L 54.716875 77.774563 
z
" style="fill: #9a5689"/>
    </g>
    <g id="text_24">
     <!-- CentOS Stream -->
     <g transform="translate(82.716875 84.774563) scale(0.1 -0.1)">
      <defs>
       <path id="DejaVuSans-4f" d="M 2522 4238 
Q 1834 4238 1429 3725 
Q 1025 3213 1025 2328 
Q 1025 1447 1429 934 
Q 1834 422 2522 422 
Q 3209 422 3611 934 
Q 4013 1447 4013 2328 
Q 4013 3213 3611 3725 
Q 3209 4238 2522 4238 
z
M 2522 4750 
Q 3503 4750 4090 4092 
Q 4678 3434 4678 2328 
Q 4678 1225 4090 567 
Q 3503 -91 2522 -91 
Q 1538 -91 948 565 
Q 359 1222 359 2328 
Q 359 3434 948 4092 
Q 1538 4750 2522 4750 
z
" transform="scale(0.015625)"/>
       <path id="DejaVuSans-6d" d="M 3328 2828 
Q 3544 3216 3844 3400 
Q 4144 3584 4550 3584 
Q 5097 3584 5394 3201 
Q 5691 2819 5691 2113 
L 5691 0 
L 5113 0 
L 5113 2094 
Q 5113 2597 4934 2840 
Q 4756 3084 4391 3084 
Q 3944 3084 3684 2787 
Q 3425 2491 3425 1978 
L 3425 0 
L 2847 0 
L 2847 2094 
Q 2847 2600 2669 2842 
Q 2491 3084 2119 3084 
Q 1678 3084 1418 2786 
Q 1159 2488 1159 1978 
L 1159 0 
L 581 0 
L 581 3500 
L 1159 3500 
L 1159 2956 
Q 1356 3278 1631 3431 
Q 1906 3584 2284 3584 
Q 2666 3584 2933 3390 
Q 3200 3197 3328 2828 
z
" transform="scale(0.015625)"/>
      </defs>
      <use xlink:href="#DejaVuSans-43"/>
      <use xlink:href="#DejaVuSans-65" x="69.824219"/>
      <use xlink:href="#DejaVuSans-6e" x="131.347656"/>
      <use xlink:href="#DejaVuSans-74" x="194.726562"/>
      <use xlink:href="#DejaVuSans-4f" x="233.935547"/>
      <use xlink:href="#DejaVuSans-53" x="312.646484"/>
      <use xlink:href="#DejaVuSans-20" x="376.123047"/>
      <use xlink:href="#DejaVuSans-53" x="407.910156"/>
      <use xlink:href="#DejaVuSans-74" x="471.386719"/>
      <use xlink:href="#DejaVuSans-72" x="510.595703"/>
      <use xlink:href="#DejaVuSans-65" x="549.458984"/>
      <use xlink:href="#DejaVuSans-61" x="610.982422"/>
      <use xlink:href="#DejaVuSans-6d" x="672.261719"/>
     </g>
    </g>
    <g id="patch_11">
     <path d="M 54.716875 99.452688 
L 74.716875 99.452688 
L 74.716875 92.452688 
L 54.716875 92.452688 
z
" style="fill: #4ac1fa"/>
    </g>
    <g id="text_25">
     <!-- Alma Linux -->
     <g transform="translate(82.716875 99.452688) scale(0.1 -0.1)">
      <defs>
       <path id="DejaVuSans-41" d="M 2188 4044 
L 1331 1722 
L 3047 1722 
L 2188 4044 
z
M 1831 4666 
L 2547 4666 
L 4325 0 
L 3669 0 
L 3244 1197 
L 1141 1197 
L 716 0 
L 50 0 
L 1831 4666 
z
" transform="scale(0.015625)"/>
       <path id="DejaVuSans-6c" d="M 603 4863 
L 1178 4863 
L 1178 0 
L 603 0 
L 603 4863 
z
" transform="scale(0.015625)"/>
      </defs>
      <use xlink:href="#DejaVuSans-41"/>
      <use xlink:href="#DejaVuSans-6c" x="68.408203"/>
      <use xlink:href="#DejaVuSans-6d" x="96.191406"/>
      <use xlink:href="#DejaVuSans-61" x="193.603516"/>
      <use xlink:href="#DejaVuSans-20" x="254.882812"/>
      <use xlink:href="#DejaVuSans-4c" x="286.669922"/>
      <use xlink:href="#DejaVuSans-69" x="342.382812"/>
      <use xlink:href="#DejaVuSans-6e" x="370.166016"/>
      <use xlink:href="#DejaVuSans-75" x="433.544922"/>
      <use xlink:href="#DejaVuSans-78" x="496.923828"/>
     </g>
    </g>
    <g id="patch_12">
     <path d="M 54.716875 114.130813 
L 74.716875 114.130813 
L 74.716875 107.130813 
L 54.716875 107.130813 
z
" style="fill: #be503b"/>
    </g>
    <g id="text_26">
     <!-- Oracle -->
     <g transform="translate(82.716875 114.130813) scale(0.1 -0.1)">
      <use xlink:href="#DejaVuSans-4f"/>
      <use xlink:href="#DejaVuSans-72" x="78.710938"/>
      <use xlink:href="#DejaVuSans-61" x="119.824219"/>
      <use xlink:href="#DejaVuSans-63" x="181.103516"/>
      <use xlink:href="#DejaVuSans-6c" x="236.083984"/>
      <use xlink:href="#DejaVuSans-65" x="263.867188"/>
     </g>
    </g>
    <g id="patch_13">
     <path d="M 54.716875 128.808938 
L 74.716875 128.808938 
L 74.716875 121.808938 
L 54.716875 121.808938 
z
" style="fill: #e9a942"/>
    </g>
    <g id="text_27">
     <!-- CentOS Legacy -->
     <g transform="translate(82.716875 128.808938) scale(0.1 -0.1)">
      <defs>
       <path id="DejaVuSans-67" d="M 2906 1791 
Q 2906 2416 2648 2759 
Q 2391 3103 1925 3103 
Q 1463 3103 1205 2759 
Q 947 2416 947 1791 
Q 947 1169 1205 825 
Q 1463 481 1925 481 
Q 2391 481 2648 825 
Q 2906 1169 2906 1791 
z
M 3481 434 
Q 3481 -459 3084 -895 
Q 2688 -1331 1869 -1331 
Q 1566 -1331 1297 -1286 
Q 1028 -1241 775 -1147 
L 775 -588 
Q 1028 -725 1275 -790 
Q 1522 -856 1778 -856 
Q 2344 -856 2625 -561 
Q 2906 -266 2906 331 
L 2906 616 
Q 2728 306 2450 153 
Q 2172 0 1784 0 
Q 1141 0 747 490 
Q 353 981 353 1791 
Q 353 2603 747 3093 
Q 1141 3584 1784 3584 
Q 2172 3584 2450 3431 
Q 2728 3278 2906 2969 
L 2906 3500 
L 3481 3500 
L 3481 434 
z
" transform="scale(0.015625)"/>
      </defs>
      <use xlink:href="#DejaVuSans-43"/>
      <use xlink:href="#DejaVuSans-65" x="69.824219"/>
      <use xlink:href="#DejaVuSans-6e" x="131.347656"/>
      <use xlink:href="#DejaVuSans-74" x="194.726562"/>
      <use xlink:href="#DejaVuSans-4f" x="233.935547"/>
      <use xlink:href="#DejaVuSans-53" x="312.646484"/>
      <use xlink:href="#DejaVuSans-20" x="376.123047"/>
      <use xlink:href="#DejaVuSans-4c" x="407.910156"/>
      <use xlink:href="#DejaVuSans-65" x="461.873047"/>
      <use xlink:href="#DejaVuSans-67" x="523.396484"/>
      <use xlink:href="#DejaVuSans-61" x="586.873047"/>
      <use xlink:href="#DejaVuSans-63" x="648.152344"/>
      <use xlink:href="#DejaVuSans-79" x="703.132812"/>
     </g>
    </g>
   </g>
  </g>
 </g>
 <defs>
  <clipPath id="p2161546448">
   <rect x="45.716875" y="24.14175" width="902.844" height="554.4"/>
  </clipPath>
 </defs>
</svg>
