<?xml version="1.0" encoding="utf-8" standalone="no"?>
<!DOCTYPE svg PUBLIC "-//W3C//DTD SVG 1.1//EN"
  "http://www.w3.org/Graphics/SVG/1.1/DTD/svg11.dtd">
<svg xmlns:xlink="http://www.w3.org/1999/xlink" width="974.2765pt" height="644.743878pt" viewBox="0 0 974.2765 644.743878" xmlns="http://www.w3.org/2000/svg" version="1.1">
 <metadata>
  <rdf:RDF xmlns:dc="http://purl.org/dc/elements/1.1/" xmlns:cc="http://creativecommons.org/ns#" xmlns:rdf="http://www.w3.org/1999/02/22-rdf-syntax-ns#">
   <cc:Work>
    <dc:type rdf:resource="http://purl.org/dc/dcmitype/StillImage"/>
    <dc:date>2026-08-27T21:20:19.262716</dc:date>
    <dc:format>image/svg+xml</dc:format>
    <dc:creator>
     <cc:Agent>
      <dc:title>Matplotlib v3.6.3, https://matplotlib.org/</dc:title>
     </cc:Agent>
    </dc:creator>
   </cc:Work>
  </rdf:RDF>
 </metadata>
 <defs>
  <style type="text/css">*{stroke-linejoin: round; stroke-linecap: butt}</style>
 </defs>
 <g id="figure_1">
  <g id="patch_1">
   <path d="M 0 644.743878 
L 974.2765 644.743878 
L 974.2765 0 
L 0 0 
z
" style="fill: #ffffff"/>
  </g>
  <g id="axes_1">
   <g id="patch_2">
    <path d="M 64.2325 578.54175 
L 967.0765 578.54175 
L 967.0765 24.14175 
L 64.2325 24.14175 
z
" style="fill: #e5e5e5"/>
   </g>
   <g id="matplotlib.axis_1">
    <g id="xtick_1">
     <g id="line2d_1">
      <path d="M 70.291856 578.54175 
L 70.291856 24.14175 
" clip-path="url(#p8a53915b0e)" style="fill: none; stroke: #ffffff; stroke-width: 0.8; stroke-linecap: square"/>
     </g>
     <g id="line2d_2">
      <defs>
       <path id="m0a670d7c6a" d="M 0 0 
L 0 3.5 
" style="stroke: #555555; stroke-width: 0.8"/>
      </defs>
      <g>
       <use xlink:href="#m0a670d7c6a" x="70.291856" y="578.54175" style="fill: #555555; stroke: #555555; stroke-width: 0.8"/>
      </g>
     </g>
     <g id="text_1">
      <!-- 2020-12 -->
      <g style="fill: #555555" transform="translate(57.470573 620.459567) rotate(-45) scale(0.1 -0.1)">
       <defs>
        <path id="DejaVuSans-32" d="M 1228 531 
L 3431 531 
L 3431 0 
L 469 0 
L 469 531 
Q 828 903 1448 1529 
Q 2069 2156 2228 2338 
Q 2531 2678 2651 2914 
Q 2772 3150 2772 3378 
Q 2772 3750 2511 3984 
Q 2250 4219 1831 4219 
Q 1534 4219 1204 4116 
Q 875 4013 500 3803 
L 500 4441 
Q 881 4594 1212 4672 
Q 1544 4750 1819 4750 
Q 2544 4750 2975 4387 
Q 3406 4025 3406 3419 
Q 3406 3131 3298 2873 
Q 3191 2616 2906 2266 
Q 2828 2175 2409 1742 
Q 1991 1309 1228 531 
z
" transform="scale(0.015625)"/>
        <path id="DejaVuSans-30" d="M 2034 4250 
Q 1547 4250 1301 3770 
Q 1056 3291 1056 2328 
Q 1056 1369 1301 889 
Q 1547 409 2034 409 
Q 2525 409 2770 889 
Q 3016 1369 3016 2328 
Q 3016 3291 2770 3770 
Q 2525 4250 2034 4250 
z
M 2034 4750 
Q 2819 4750 3233 4129 
Q 3647 3509 3647 2328 
Q 3647 1150 3233 529 
Q 2819 -91 2034 -91 
Q 1250 -91 836 529 
Q 422 1150 422 2328 
Q 422 3509 836 4129 
Q 1250 4750 2034 4750 
z
" transform="scale(0.015625)"/>
        <path id="DejaVuSans-2d" d="M 313 2009 
L 1997 2009 
L 1997 1497 
L 313 1497 
L 313 2009 
z
" transform="scale(0.015625)"/>
        <path id="DejaVuSans-31" d="M 794 531 
L 1825 531 
L 1825 4091 
L 703 3866 
L 703 4441 
L 1819 4666 
L 2450 4666 
L 2450 531 
L 3481 531 
L 3481 0 
L 794 0 
L 794 531 
z
" transform="scale(0.015625)"/>
       </defs>
       <use xlink:href="#DejaVuSans-32"/>
       <use xlink:href="#DejaVuSans-30" x="63.623047"/>
       <use xlink:href="#DejaVuSans-32" x="127.246094"/>
       <use xlink:href="#DejaVuSans-30" x="190.869141"/>
       <use xlink:href="#DejaVuSans-2d" x="254.492188"/>
       <use xlink:href="#DejaVuSans-31" x="290.576172"/>
       <use xlink:href="#DejaVuSans-32" x="354.199219"/>
      </g>
     </g>
    </g>
    <g id="xtick_2">
     <g id="line2d_3">
      <path d="M 109.244857 578.54175 
L 109.244857 24.14175 
" clip-path="url(#p8a53915b0e)" style="fill: none; stroke: #ffffff; stroke-width: 0.8; stroke-linecap: square"/>
     </g>
     <g id="line2d_4">
      <g>
       <use xlink:href="#m0a670d7c6a" x="109.244857" y="578.54175" style="fill: #555555; stroke: #555555; stroke-width: 0.8"/>
      </g>
     </g>
     <g id="text_2">
      <!-- 2021-03 -->
      <g style="fill: #555555" transform="translate(96.423574 620.459567) rotate(-45) scale(0.1 -0.1)">
       <defs>
        <path id="DejaVuSans-33" d="M 2597 2516 
Q 3050 2419 3304 2112 
Q 3559 1806 3559 1356 
Q 3559 666 3084 287 
Q 2609 -91 1734 -91 
Q 1441 -91 1130 -33 
Q 819 25 488 141 
L 488 750 
Q 750 597 1062 519 
Q 1375 441 1716 441 
Q 2309 441 2620 675 
Q 2931 909 2931 1356 
Q 2931 1769 2642 2001 
Q 2353 2234 1838 2234 
L 1294 2234 
L 1294 2753 
L 1863 2753 
Q 2328 2753 2575 2939 
Q 2822 3125 2822 3475 
Q 2822 3834 2567 4026 
Q 2313 4219 1838 4219 
Q 1578 4219 1281 4162 
Q 984 4106 628 3988 
L 628 4550 
Q 988 4650 1302 4700 
Q 1616 4750 1894 4750 
Q 2613 4750 3031 4423 
Q 3450 4097 3450 3541 
Q 3450 3153 3228 2886 
Q 3006 2619 2597 2516 
z
" transform="scale(0.015625)"/>
       </defs>
       <use xlink:href="#DejaVuSans-32"/>
       <use xlink:href="#DejaVuSans-30" x="63.623047"/>
       <use xlink:href="#DejaVuSans-32" x="127.246094"/>
       <use xlink:href="#DejaVuSans-31" x="190.869141"/>
       <use xlink:href="#DejaVuSans-2d" x="254.492188"/>
       <use xlink:href="#DejaVuSans-30" x="290.576172"/>
       <use xlink:href="#DejaVuSans-33" x="354.199219"/>
      </g>
     </g>
    </g>
    <g id="xtick_3">
     <g id="line2d_5">
      <path d="M 149.06348 578.54175 
L 149.06348 24.14175 
" clip-path="url(#p8a53915b0e)" style="fill: none; stroke: #ffffff; stroke-width: 0.8; stroke-linecap: square"/>
     </g>
     <g id="line2d_6">
      <g>
       <use xlink:href="#m0a670d7c6a" x="149.06348" y="578.54175" style="fill: #555555; stroke: #555555; stroke-width: 0.8"/>
      </g>
     </g>
     <g id="text_3">
      <!-- 2021-06 -->
      <g style="fill: #555555" transform="translate(136.242198 620.459567) rotate(-45) scale(0.1 -0.1)">
       <defs>
        <path id="DejaVuSans-36" d="M 2113 2584 
Q 1688 2584 1439 2293 
Q 1191 2003 1191 1497 
Q 1191 994 1439 701 
Q 1688 409 2113 409 
Q 2538 409 2786 701 
Q 3034 994 3034 1497 
Q 3034 2003 2786 2293 
Q 2538 2584 2113 2584 
z
M 3366 4563 
L 3366 3988 
Q 3128 4100 2886 4159 
Q 2644 4219 2406 4219 
Q 1781 4219 1451 3797 
Q 1122 3375 1075 2522 
Q 1259 2794 1537 2939 
Q 1816 3084 2150 3084 
Q 2853 3084 3261 2657 
Q 3669 2231 3669 1497 
Q 3669 778 3244 343 
Q 2819 -91 2113 -91 
Q 1303 -91 875 529 
Q 447 1150 447 2328 
Q 447 3434 972 4092 
Q 1497 4750 2381 4750 
Q 2619 4750 2861 4703 
Q 3103 4656 3366 4563 
z
" transform="scale(0.015625)"/>
       </defs>
       <use xlink:href="#DejaVuSans-32"/>
       <use xlink:href="#DejaVuSans-30" x="63.623047"/>
       <use xlink:href="#DejaVuSans-32" x="127.246094"/>
       <use xlink:href="#DejaVuSans-31" x="190.869141"/>
       <use xlink:href="#DejaVuSans-2d" x="254.492188"/>
       <use xlink:href="#DejaVuSans-30" x="290.576172"/>
       <use xlink:href="#DejaVuSans-36" x="354.199219"/>
      </g>
     </g>
    </g>
    <g id="xtick_4">
     <g id="line2d_7">
      <path d="M 188.882103 578.54175 
L 188.882103 24.14175 
" clip-path="url(#p8a53915b0e)" style="fill: none; stroke: #ffffff; stroke-width: 0.8; stroke-linecap: square"/>
     </g>
     <g id="line2d_8">
      <g>
       <use xlink:href="#m0a670d7c6a" x="188.882103" y="578.54175" style="fill: #555555; stroke: #555555; stroke-width: 0.8"/>
      </g>
     </g>
     <g id="text_4">
      <!-- 2021-09 -->
      <g style="fill: #555555" transform="translate(176.060821 620.459567) rotate(-45) scale(0.1 -0.1)">
       <defs>
        <path id="DejaVuSans-39" d="M 703 97 
L 703 672 
Q 941 559 1184 500 
Q 1428 441 1663 441 
Q 2288 441 2617 861 
Q 2947 1281 2994 2138 
Q 2813 1869 2534 1725 
Q 2256 1581 1919 1581 
Q 1219 1581 811 2004 
Q 403 2428 403 3163 
Q 403 3881 828 4315 
Q 1253 4750 1959 4750 
Q 2769 4750 3195 4129 
Q 3622 3509 3622 2328 
Q 3622 1225 3098 567 
Q 2575 -91 1691 -91 
Q 1453 -91 1209 -44 
Q 966 3 703 97 
z
M 1959 2075 
Q 2384 2075 2632 2365 
Q 2881 2656 2881 3163 
Q 2881 3666 2632 3958 
Q 2384 4250 1959 4250 
Q 1534 4250 1286 3958 
Q 1038 3666 1038 3163 
Q 1038 2656 1286 2365 
Q 1534 2075 1959 2075 
z
" transform="scale(0.015625)"/>
       </defs>
       <use xlink:href="#DejaVuSans-32"/>
       <use xlink:href="#DejaVuSans-30" x="63.623047"/>
       <use xlink:href="#DejaVuSans-32" x="127.246094"/>
       <use xlink:href="#DejaVuSans-31" x="190.869141"/>
       <use xlink:href="#DejaVuSans-2d" x="254.492188"/>
       <use xlink:href="#DejaVuSans-30" x="290.576172"/>
       <use xlink:href="#DejaVuSans-39" x="354.199219"/>
      </g>
     </g>
    </g>
    <g id="xtick_5">
     <g id="line2d_9">
      <path d="M 228.267915 578.54175 
L 228.267915 24.14175 
" clip-path="url(#p8a53915b0e)" style="fill: none; stroke: #ffffff; stroke-width: 0.8; stroke-linecap: square"/>
     </g>
     <g id="line2d_10">
      <g>
       <use xlink:href="#m0a670d7c6a" x="228.267915" y="578.54175" style="fill: #555555; stroke: #555555; stroke-width: 0.8"/>
      </g>
     </g>
     <g id="text_5">
      <!-- 2021-12 -->
      <g style="fill: #555555" transform="translate(215.446633 620.459567) rotate(-45) scale(0.1 -0.1)">
       <use xlink:href="#DejaVuSans-32"/>
       <use xlink:href="#DejaVuSans-30" x="63.623047"/>
       <use xlink:href="#DejaVuSans-32" x="127.246094"/>
       <use xlink:href="#DejaVuSans-31" x="190.869141"/>
       <use xlink:href="#DejaVuSans-2d" x="254.492188"/>
       <use xlink:href="#DejaVuSans-31" x="290.576172"/>
       <use xlink:href="#DejaVuSans-32" x="354.199219"/>
      </g>
     </g>
    </g>
    <g id="xtick_6">
     <g id="line2d_11">
      <path d="M 267.220916 578.54175 
L 267.220916 24.14175 
" clip-path="url(#p8a53915b0e)" style="fill: none; stroke: #ffffff; stroke-width: 0.8; stroke-linecap: square"/>
     </g>
     <g id="line2d_12">
      <g>
       <use xlink:href="#m0a670d7c6a" x="267.220916" y="578.54175" style="fill: #555555; stroke: #555555; stroke-width: 0.8"/>
      </g>
     </g>
     <g id="text_6">
      <!-- 2022-03 -->
      <g style="fill: #555555" transform="translate(254.399634 620.459567) rotate(-45) scale(0.1 -0.1)">
       <use xlink:href="#DejaVuSans-32"/>
       <use xlink:href="#DejaVuSans-30" x="63.623047"/>
       <use xlink:href="#DejaVuSans-32" x="127.246094"/>
       <use xlink:href="#DejaVuSans-32" x="190.869141"/>
       <use xlink:href="#DejaVuSans-2d" x="254.492188"/>
       <use xlink:href="#DejaVuSans-30" x="290.576172"/>
       <use xlink:href="#DejaVuSans-33" x="354.199219"/>
      </g>
     </g>
    </g>
    <g id="xtick_7">
     <g id="line2d_13">
      <path d="M 307.039539 578.54175 
L 307.039539 24.14175 
" clip-path="url(#p8a53915b0e)" style="fill: none; stroke: #ffffff; stroke-width: 0.8; stroke-linecap: square"/>
     </g>
     <g id="line2d_14">
      <g>
       <use xlink:href="#m0a670d7c6a" x="307.039539" y="578.54175" style="fill: #555555; stroke: #555555; stroke-width: 0.8"/>
      </g>
     </g>
     <g id="text_7">
      <!-- 2022-06 -->
      <g style="fill: #555555" transform="translate(294.218257 620.459567) rotate(-45) scale(0.1 -0.1)">
       <use xlink:href="#DejaVuSans-32"/>
       <use xlink:href="#DejaVuSans-30" x="63.623047"/>
       <use xlink:href="#DejaVuSans-32" x="127.246094"/>
       <use xlink:href="#DejaVuSans-32" x="190.869141"/>
       <use xlink:href="#DejaVuSans-2d" x="254.492188"/>
       <use xlink:href="#DejaVuSans-30" x="290.576172"/>
       <use xlink:href="#DejaVuSans-36" x="354.199219"/>
      </g>
     </g>
    </g>
    <g id="xtick_8">
     <g id="line2d_15">
      <path d="M 346.858163 578.54175 
L 346.858163 24.14175 
" clip-path="url(#p8a53915b0e)" style="fill: none; stroke: #ffffff; stroke-width: 0.8; stroke-linecap: square"/>
     </g>
     <g id="line2d_16">
      <g>
       <use xlink:href="#m0a670d7c6a" x="346.858163" y="578.54175" style="fill: #555555; stroke: #555555; stroke-width: 0.8"/>
      </g>
     </g>
     <g id="text_8">
      <!-- 2022-09 -->
      <g style="fill: #555555" transform="translate(334.03688 620.459567) rotate(-45) scale(0.1 -0.1)">
       <use xlink:href="#DejaVuSans-32"/>
       <use xlink:href="#DejaVuSans-30" x="63.623047"/>
       <use xlink:href="#DejaVuSans-32" x="127.246094"/>
       <use xlink:href="#DejaVuSans-32" x="190.869141"/>
       <use xlink:href="#DejaVuSans-2d" x="254.492188"/>
       <use xlink:href="#DejaVuSans-30" x="290.576172"/>
       <use xlink:href="#DejaVuSans-39" x="354.199219"/>
      </g>
     </g>
    </g>
    <g id="xtick_9">
     <g id="line2d_17">
      <path d="M 386.243975 578.54175 
L 386.243975 24.14175 
" clip-path="url(#p8a53915b0e)" style="fill: none; stroke: #ffffff; stroke-width: 0.8; stroke-linecap: square"/>
     </g>
     <g id="line2d_18">
      <g>
       <use xlink:href="#m0a670d7c6a" x="386.243975" y="578.54175" style="fill: #555555; stroke: #555555; stroke-width: 0.8"/>
      </g>
     </g>
     <g id="text_9">
      <!-- 2022-12 -->
      <g style="fill: #555555" transform="translate(373.422692 620.459567) rotate(-45) scale(0.1 -0.1)">
       <use xlink:href="#DejaVuSans-32"/>
       <use xlink:href="#DejaVuSans-30" x="63.623047"/>
       <use xlink:href="#DejaVuSans-32" x="127.246094"/>
       <use xlink:href="#DejaVuSans-32" x="190.869141"/>
       <use xlink:href="#DejaVuSans-2d" x="254.492188"/>
       <use xlink:href="#DejaVuSans-31" x="290.576172"/>
       <use xlink:href="#DejaVuSans-32" x="354.199219"/>
      </g>
     </g>
    </g>
    <g id="xtick_10">
     <g id="line2d_19">
      <path d="M 425.196976 578.54175 
L 425.196976 24.14175 
" clip-path="url(#p8a53915b0e)" style="fill: none; stroke: #ffffff; stroke-width: 0.8; stroke-linecap: square"/>
     </g>
     <g id="line2d_20">
      <g>
       <use xlink:href="#m0a670d7c6a" x="425.196976" y="578.54175" style="fill: #555555; stroke: #555555; stroke-width: 0.8"/>
      </g>
     </g>
     <g id="text_10">
      <!-- 2023-03 -->
      <g style="fill: #555555" transform="translate(412.375693 620.459567) rotate(-45) scale(0.1 -0.1)">
       <use xlink:href="#DejaVuSans-32"/>
       <use xlink:href="#DejaVuSans-30" x="63.623047"/>
       <use xlink:href="#DejaVuSans-32" x="127.246094"/>
       <use xlink:href="#DejaVuSans-33" x="190.869141"/>
       <use xlink:href="#DejaVuSans-2d" x="254.492188"/>
       <use xlink:href="#DejaVuSans-30" x="290.576172"/>
       <use xlink:href="#DejaVuSans-33" x="354.199219"/>
      </g>
     </g>
    </g>
    <g id="xtick_11">
     <g id="line2d_21">
      <path d="M 465.015599 578.54175 
L 465.015599 24.14175 
" clip-path="url(#p8a53915b0e)" style="fill: none; stroke: #ffffff; stroke-width: 0.8; stroke-linecap: square"/>
     </g>
     <g id="line2d_22">
      <g>
       <use xlink:href="#m0a670d7c6a" x="465.015599" y="578.54175" style="fill: #555555; stroke: #555555; stroke-width: 0.8"/>
      </g>
     </g>
     <g id="text_11">
      <!-- 2023-06 -->
      <g style="fill: #555555" transform="translate(452.194317 620.459567) rotate(-45) scale(0.1 -0.1)">
       <use xlink:href="#DejaVuSans-32"/>
       <use xlink:href="#DejaVuSans-30" x="63.623047"/>
       <use xlink:href="#DejaVuSans-32" x="127.246094"/>
       <use xlink:href="#DejaVuSans-33" x="190.869141"/>
       <use xlink:href="#DejaVuSans-2d" x="254.492188"/>
       <use xlink:href="#DejaVuSans-30" x="290.576172"/>
       <use xlink:href="#DejaVuSans-36" x="354.199219"/>
      </g>
     </g>
    </g>
    <g id="xtick_12">
     <g id="line2d_23">
      <path d="M 504.834222 578.54175 
L 504.834222 24.14175 
" clip-path="url(#p8a53915b0e)" style="fill: none; stroke: #ffffff; stroke-width: 0.8; stroke-linecap: square"/>
     </g>
     <g id="line2d_24">
      <g>
       <use xlink:href="#m0a670d7c6a" x="504.834222" y="578.54175" style="fill: #555555; stroke: #555555; stroke-width: 0.8"/>
      </g>
     </g>
     <g id="text_12">
      <!-- 2023-09 -->
      <g style="fill: #555555" transform="translate(492.01294 620.459567) rotate(-45) scale(0.1 -0.1)">
       <use xlink:href="#DejaVuSans-32"/>
       <use xlink:href="#DejaVuSans-30" x="63.623047"/>
       <use xlink:href="#DejaVuSans-32" x="127.246094"/>
       <use xlink:href="#DejaVuSans-33" x="190.869141"/>
       <use xlink:href="#DejaVuSans-2d" x="254.492188"/>
       <use xlink:href="#DejaVuSans-30" x="290.576172"/>
       <use xlink:href="#DejaVuSans-39" x="354.199219"/>
      </g>
     </g>
    </g>
    <g id="xtick_13">
     <g id="line2d_25">
      <path d="M 544.220034 578.54175 
L 544.220034 24.14175 
" clip-path="url(#p8a53915b0e)" style="fill: none; stroke: #ffffff; stroke-width: 0.8; stroke-linecap: square"/>
     </g>
     <g id="line2d_26">
      <g>
       <use xlink:href="#m0a670d7c6a" x="544.220034" y="578.54175" style="fill: #555555; stroke: #555555; stroke-width: 0.8"/>
      </g>
     </g>
     <g id="text_13">
      <!-- 2023-12 -->
      <g style="fill: #555555" transform="translate(531.398752 620.459567) rotate(-45) scale(0.1 -0.1)">
       <use xlink:href="#DejaVuSans-32"/>
       <use xlink:href="#DejaVuSans-30" x="63.623047"/>
       <use xlink:href="#DejaVuSans-32" x="127.246094"/>
       <use xlink:href="#DejaVuSans-33" x="190.869141"/>
       <use xlink:href="#DejaVuSans-2d" x="254.492188"/>
       <use xlink:href="#DejaVuSans-31" x="290.576172"/>
       <use xlink:href="#DejaVuSans-32" x="354.199219"/>
      </g>
     </g>
    </g>
    <g id="xtick_14">
     <g id="line2d_27">
      <path d="M 583.605846 578.54175 
L 583.605846 24.14175 
" clip-path="url(#p8a53915b0e)" style="fill: none; stroke: #ffffff; stroke-width: 0.8; stroke-linecap: square"/>
     </g>
     <g id="line2d_28">
      <g>
       <use xlink:href="#m0a670d7c6a" x="583.605846" y="578.54175" style="fill: #555555; stroke: #555555; stroke-width: 0.8"/>
      </g>
     </g>
     <g id="text_14">
      <!-- 2024-03 -->
      <g style="fill: #555555" transform="translate(570.784564 620.459567) rotate(-45) scale(0.1 -0.1)">
       <defs>
        <path id="DejaVuSans-34" d="M 2419 4116 
L 825 1625 
L 2419 1625 
L 2419 4116 
z
M 2253 4666 
L 3047 4666 
L 3047 1625 
L 3713 1625 
L 3713 1100 
L 3047 1100 
L 3047 0 
L 2419 0 
L 2419 1100 
L 313 1100 
L 313 1709 
L 2253 4666 
z
" transform="scale(0.015625)"/>
       </defs>
       <use xlink:href="#DejaVuSans-32"/>
       <use xlink:href="#DejaVuSans-30" x="63.623047"/>
       <use xlink:href="#DejaVuSans-32" x="127.246094"/>
       <use xlink:href="#DejaVuSans-34" x="190.869141"/>
       <use xlink:href="#DejaVuSans-2d" x="254.492188"/>
       <use xlink:href="#DejaVuSans-30" x="290.576172"/>
       <use xlink:href="#DejaVuSans-33" x="354.199219"/>
      </g>
     </g>
    </g>
    <g id="xtick_15">
     <g id="line2d_29">
      <path d="M 623.424469 578.54175 
L 623.424469 24.14175 
" clip-path="url(#p8a53915b0e)" style="fill: none; stroke: #ffffff; stroke-width: 0.8; stroke-linecap: square"/>
     </g>
     <g id="line2d_30">
      <g>
       <use xlink:href="#m0a670d7c6a" x="623.424469" y="578.54175" style="fill: #555555; stroke: #555555; stroke-width: 0.8"/>
      </g>
     </g>
     <g id="text_15">
      <!-- 2024-06 -->
      <g style="fill: #555555" transform="translate(610.603187 620.459567) rotate(-45) scale(0.1 -0.1)">
       <use xlink:href="#DejaVuSans-32"/>
       <use xlink:href="#DejaVuSans-30" x="63.623047"/>
       <use xlink:href="#DejaVuSans-32" x="127.246094"/>
       <use xlink:href="#DejaVuSans-34" x="190.869141"/>
       <use xlink:href="#DejaVuSans-2d" x="254.492188"/>
       <use xlink:href="#DejaVuSans-30" x="290.576172"/>
       <use xlink:href="#DejaVuSans-36" x="354.199219"/>
      </g>
     </g>
    </g>
    <g id="xtick_16">
     <g id="line2d_31">
      <path d="M 663.243093 578.54175 
L 663.243093 24.14175 
" clip-path="url(#p8a53915b0e)" style="fill: none; stroke: #ffffff; stroke-width: 0.8; stroke-linecap: square"/>
     </g>
     <g id="line2d_32">
      <g>
       <use xlink:href="#m0a670d7c6a" x="663.243093" y="578.54175" style="fill: #555555; stroke: #555555; stroke-width: 0.8"/>
      </g>
     </g>
     <g id="text_16">
      <!-- 2024-09 -->
      <g style="fill: #555555" transform="translate(650.42181 620.459567) rotate(-45) scale(0.1 -0.1)">
       <use xlink:href="#DejaVuSans-32"/>
       <use xlink:href="#DejaVuSans-30" x="63.623047"/>
       <use xlink:href="#DejaVuSans-32" x="127.246094"/>
       <use xlink:href="#DejaVuSans-34" x="190.869141"/>
       <use xlink:href="#DejaVuSans-2d" x="254.492188"/>
       <use xlink:href="#DejaVuSans-30" x="290.576172"/>
       <use xlink:href="#DejaVuSans-39" x="354.199219"/>
      </g>
     </g>
    </g>
    <g id="xtick_17">
     <g id="line2d_33">
      <path d="M 702.628905 578.54175 
L 702.628905 24.14175 
" clip-path="url(#p8a53915b0e)" style="fill: none; stroke: #ffffff; stroke-width: 0.8; stroke-linecap: square"/>
     </g>
     <g id="line2d_34">
      <g>
       <use xlink:href="#m0a670d7c6a" x="702.628905" y="578.54175" style="fill: #555555; stroke: #555555; stroke-width: 0.8"/>
      </g>
     </g>
     <g id="text_17">
      <!-- 2024-12 -->
      <g style="fill: #555555" transform="translate(689.807622 620.459567) rotate(-45) scale(0.1 -0.1)">
       <use xlink:href="#DejaVuSans-32"/>
       <use xlink:href="#DejaVuSans-30" x="63.623047"/>
       <use xlink:href="#DejaVuSans-32" x="127.246094"/>
       <use xlink:href="#DejaVuSans-34" x="190.869141"/>
       <use xlink:href="#DejaVuSans-2d" x="254.492188"/>
       <use xlink:href="#DejaVuSans-31" x="290.576172"/>
       <use xlink:href="#DejaVuSans-32" x="354.199219"/>
      </g>
     </g>
    </g>
    <g id="xtick_18">
     <g id="line2d_35">
      <path d="M 741.581906 578.54175 
L 741.581906 24.14175 
" clip-path="url(#p8a53915b0e)" style="fill: none; stroke: #ffffff; stroke-width: 0.8; stroke-linecap: square"/>
     </g>
     <g id="line2d_36">
      <g>
       <use xlink:href="#m0a670d7c6a" x="741.581906" y="578.54175" style="fill: #555555; stroke: #555555; stroke-width: 0.8"/>
      </g>
     </g>
     <g id="text_18">
      <!-- 2025-03 -->
      <g style="fill: #555555" transform="translate(728.760623 620.459567) rotate(-45) scale(0.1 -0.1)">
       <defs>
        <path id="DejaVuSans-35" d="M 691 4666 
L 3169 4666 
L 3169 4134 
L 1269 4134 
L 1269 2991 
Q 1406 3038 1543 3061 
Q 1681 3084 1819 3084 
Q 2600 3084 3056 2656 
Q 3513 2228 3513 1497 
Q 3513 744 3044 326 
Q 2575 -91 1722 -91 
Q 1428 -91 1123 -41 
Q 819 9 494 109 
L 494 744 
Q 775 591 1075 516 
Q 1375 441 1709 441 
Q 2250 441 2565 725 
Q 2881 1009 2881 1497 
Q 2881 1984 2565 2268 
Q 2250 2553 1709 2553 
Q 1456 2553 1204 2497 
Q 953 2441 691 2322 
L 691 4666 
z
" transform="scale(0.015625)"/>
       </defs>
       <use xlink:href="#DejaVuSans-32"/>
       <use xlink:href="#DejaVuSans-30" x="63.623047"/>
       <use xlink:href="#DejaVuSans-32" x="127.246094"/>
       <use xlink:href="#DejaVuSans-35" x="190.869141"/>
       <use xlink:href="#DejaVuSans-2d" x="254.492188"/>
       <use xlink:href="#DejaVuSans-30" x="290.576172"/>
       <use xlink:href="#DejaVuSans-33" x="354.199219"/>
      </g>
     </g>
    </g>
    <g id="xtick_19">
     <g id="line2d_37">
      <path d="M 781.400529 578.54175 
L 781.400529 24.14175 
" clip-path="url(#p8a53915b0e)" style="fill: none; stroke: #ffffff; stroke-width: 0.8; stroke-linecap: square"/>
     </g>
     <g id="line2d_38">
      <g>
       <use xlink:href="#m0a670d7c6a" x="781.400529" y="578.54175" style="fill: #555555; stroke: #555555; stroke-width: 0.8"/>
      </g>
     </g>
     <g id="text_19">
      <!-- 2025-06 -->
      <g style="fill: #555555" transform="translate(768.579247 620.459567) rotate(-45) scale(0.1 -0.1)">
       <use xlink:href="#DejaVuSans-32"/>
       <use xlink:href="#DejaVuSans-30" x="63.623047"/>
       <use xlink:href="#DejaVuSans-32" x="127.246094"/>
       <use xlink:href="#DejaVuSans-35" x="190.869141"/>
       <use xlink:href="#DejaVuSans-2d" x="254.492188"/>
       <use xlink:href="#DejaVuSans-30" x="290.576172"/>
       <use xlink:href="#DejaVuSans-36" x="354.199219"/>
      </g>
     </g>
    </g>
    <g id="xtick_20">
     <g id="line2d_39">
      <path d="M 821.219152 578.54175 
L 821.219152 24.14175 
" clip-path="url(#p8a53915b0e)" style="fill: none; stroke: #ffffff; stroke-width: 0.8; stroke-linecap: square"/>
     </g>
     <g id="line2d_40">
      <g>
       <use xlink:href="#m0a670d7c6a" x="821.219152" y="578.54175" style="fill: #555555; stroke: #555555; stroke-width: 0.8"/>
      </g>
     </g>
     <g id="text_20">
      <!-- 2025-09 -->
      <g style="fill: #555555" transform="translate(808.39787 620.459567) rotate(-45) scale(0.1 -0.1)">
       <use xlink:href="#DejaVuSans-32"/>
       <use xlink:href="#DejaVuSans-30" x="63.623047"/>
       <use xlink:href="#DejaVuSans-32" x="127.246094"/>
       <use xlink:href="#DejaVuSans-35" x="190.869141"/>
       <use xlink:href="#DejaVuSans-2d" x="254.492188"/>
       <use xlink:href="#DejaVuSans-30" x="290.576172"/>
       <use xlink:href="#DejaVuSans-39" x="354.199219"/>
      </g>
     </g>
    </g>
    <g id="xtick_21">
     <g id="line2d_41">
      <path d="M 860.604964 578.54175 
L 860.604964 24.14175 
" clip-path="url(#p8a53915b0e)" style="fill: none; stroke: #ffffff; stroke-width: 0.8; stroke-linecap: square"/>
     </g>
     <g id="line2d_42">
      <g>
       <use xlink:href="#m0a670d7c6a" x="860.604964" y="578.54175" style="fill: #555555; stroke: #555555; stroke-width: 0.8"/>
      </g>
     </g>
     <g id="text_21">
      <!-- 2025-12 -->
      <g style="fill: #555555" transform="translate(847.783682 620.459567) rotate(-45) scale(0.1 -0.1)">
       <use xlink:href="#DejaVuSans-32"/>
       <use xlink:href="#DejaVuSans-30" x="63.623047"/>
       <use xlink:href="#DejaVuSans-32" x="127.246094"/>
       <use xlink:href="#DejaVuSans-35" x="190.869141"/>
       <use xlink:href="#DejaVuSans-2d" x="254.492188"/>
       <use xlink:href="#DejaVuSans-31" x="290.576172"/>
       <use xlink:href="#DejaVuSans-32" x="354.199219"/>
      </g>
     </g>
    </g>
    <g id="xtick_22">
     <g id="line2d_43">
      <path d="M 899.557965 578.54175 
L 899.557965 24.14175 
" clip-path="url(#p8a53915b0e)" style="fill: none; stroke: #ffffff; stroke-width: 0.8; stroke-linecap: square"/>
     </g>
     <g id="line2d_44">
      <g>
       <use xlink:href="#m0a670d7c6a" x="899.557965" y="578.54175" style="fill: #555555; stroke: #555555; stroke-width: 0.8"/>
      </g>
     </g>
     <g id="text_22">
      <!-- 2026-03 -->
      <g style="fill: #555555" transform="translate(886.736683 620.459567) rotate(-45) scale(0.1 -0.1)">
       <use xlink:href="#DejaVuSans-32"/>
       <use xlink:href="#DejaVuSans-30" x="63.623047"/>
       <use xlink:href="#DejaVuSans-32" x="127.246094"/>
       <use xlink:href="#DejaVuSans-36" x="190.869141"/>
       <use xlink:href="#DejaVuSans-2d" x="254.492188"/>
       <use xlink:href="#DejaVuSans-30" x="290.576172"/>
       <use xlink:href="#DejaVuSans-33" x="354.199219"/>
      </g>
     </g>
    </g>
    <g id="xtick_23">
     <g id="line2d_45">
      <path d="M 939.376588 578.54175 
L 939.376588 24.14175 
" clip-path="url(#p8a53915b0e)" style="fill: none; stroke: #ffffff; stroke-width: 0.8; stroke-linecap: square"/>
     </g>
     <g id="line2d_46">
      <g>
       <use xlink:href="#m0a670d7c6a" x="939.376588" y="578.54175" style="fill: #555555; stroke: #555555; stroke-width: 0.8"/>
      </g>
     </g>
     <g id="text_23">
      <!-- 2026-06 -->
      <g style="fill: #555555" transform="translate(926.555306 620.459567) rotate(-45) scale(0.1 -0.1)">
       <use xlink:href="#DejaVuSans-32"/>
       <use xlink:href="#DejaVuSans-30" x="63.623047"/>
       <use xlink:href="#DejaVuSans-32" x="127.246094"/>
       <use xlink:href="#DejaVuSans-36" x="190.869141"/>
       <use xlink:href="#DejaVuSans-2d" x="254.492188"/>
       <use xlink:href="#DejaVuSans-30" x="290.576172"/>
       <use xlink:href="#DejaVuSans-36" x="354.199219"/>
      </g>
     </g>
    </g>
    <g id="text_24">
     <!-- Date -->
     <g style="fill: #555555" transform="translate(501.313563 635.048253) scale(0.12 -0.12)">
      <defs>
       <path id="DejaVuSans-44" d="M 1259 4147 
L 1259 519 
L 2022 519 
Q 2988 519 3436 956 
Q 3884 1394 3884 2338 
Q 3884 3275 3436 3711 
Q 2988 4147 2022 4147 
L 1259 4147 
z
M 628 4666 
L 1925 4666 
Q 3281 4666 3915 4102 
Q 4550 3538 4550 2338 
Q 4550 1131 3912 565 
Q 3275 0 1925 0 
L 628 0 
L 628 4666 
z
" transform="scale(0.015625)"/>
       <path id="DejaVuSans-61" d="M 2194 1759 
Q 1497 1759 1228 1600 
Q 959 1441 959 1056 
Q 959 750 1161 570 
Q 1363 391 1709 391 
Q 2188 391 2477 730 
Q 2766 1069 2766 1631 
L 2766 1759 
L 2194 1759 
z
M 3341 1997 
L 3341 0 
L 2766 0 
L 2766 531 
Q 2569 213 2275 61 
Q 1981 -91 1556 -91 
Q 1019 -91 701 211 
Q 384 513 384 1019 
Q 384 1609 779 1909 
Q 1175 2209 1959 2209 
L 2766 2209 
L 2766 2266 
Q 2766 2663 2505 2880 
Q 2244 3097 1772 3097 
Q 1472 3097 1187 3025 
Q 903 2953 641 2809 
L 641 3341 
Q 956 3463 1253 3523 
Q 1550 3584 1831 3584 
Q 2591 3584 2966 3190 
Q 3341 2797 3341 1997 
z
" transform="scale(0.015625)"/>
       <path id="DejaVuSans-74" d="M 1172 4494 
L 1172 3500 
L 2356 3500 
L 2356 3053 
L 1172 3053 
L 1172 1153 
Q 1172 725 1289 603 
Q 1406 481 1766 481 
L 2356 481 
L 2356 0 
L 1766 0 
Q 1100 0 847 248 
Q 594 497 594 1153 
L 594 3053 
L 172 3053 
L 172 3500 
L 594 3500 
L 594 4494 
L 1172 4494 
z
" transform="scale(0.015625)"/>
       <path id="DejaVuSans-65" d="M 3597 1894 
L 3597 1613 
L 953 1613 
Q 991 1019 1311 708 
Q 1631 397 2203 397 
Q 2534 397 2845 478 
Q 3156 559 3463 722 
L 3463 178 
Q 3153 47 2828 -22 
Q 2503 -91 2169 -91 
Q 1331 -91 842 396 
Q 353 884 353 1716 
Q 353 2575 817 3079 
Q 1281 3584 2069 3584 
Q 2775 3584 3186 3129 
Q 3597 2675 3597 1894 
z
M 3022 2063 
Q 3016 2534 2758 2815 
Q 2500 3097 2075 3097 
Q 1594 3097 1305 2825 
Q 1016 2553 972 2059 
L 3022 2063 
z
" transform="scale(0.015625)"/>
      </defs>
      <use xlink:href="#DejaVuSans-44"/>
      <use xlink:href="#DejaVuSans-61" x="77.001953"/>
      <use xlink:href="#DejaVuSans-74" x="138.28125"/>
      <use xlink:href="#DejaVuSans-65" x="177.490234"/>
     </g>
    </g>
   </g>
   <g id="matplotlib.axis_2">
    <g id="ytick_1">
     <g id="line2d_47">
      <path d="M 64.2325 578.54175 
L 967.0765 578.54175 
" clip-path="url(#p8a53915b0e)" style="fill: none; stroke: #ffffff; stroke-width: 0.8; stroke-linecap: square"/>
     </g>
     <g id="line2d_48">
      <defs>
       <path id="m4e29d1a046" d="M 0 0 
L -3.5 0 
" style="stroke: #555555; stroke-width: 0.8"/>
      </defs>
      <g>
       <use xlink:href="#m4e29d1a046" x="64.2325" y="578.54175" style="fill: #555555; stroke: #555555; stroke-width: 0.8"/>
      </g>
     </g>
     <g id="text_25">
      <!-- 0k -->
      <g style="fill: #555555" transform="translate(45.079375 582.340969) scale(0.1 -0.1)">
       <defs>
        <path id="DejaVuSans-6b" d="M 581 4863 
L 1159 4863 
L 1159 1991 
L 2875 3500 
L 3609 3500 
L 1753 1863 
L 3688 0 
L 2938 0 
L 1159 1709 
L 1159 0 
L 581 0 
L 581 4863 
z
" transform="scale(0.015625)"/>
       </defs>
       <use xlink:href="#DejaVuSans-30"/>
       <use xlink:href="#DejaVuSans-6b" x="63.623047"/>
      </g>
     </g>
    </g>
    <g id="ytick_2">
     <g id="line2d_49">
      <path d="M 64.2325 468.852607 
L 967.0765 468.852607 
" clip-path="url(#p8a53915b0e)" style="fill: none; stroke: #ffffff; stroke-width: 0.8; stroke-linecap: square"/>
     </g>
     <g id="line2d_50">
      <g>
       <use xlink:href="#m4e29d1a046" x="64.2325" y="468.852607" style="fill: #555555; stroke: #555555; stroke-width: 0.8"/>
      </g>
     </g>
     <g id="text_26">
      <!-- 500k -->
      <g style="fill: #555555" transform="translate(32.354375 472.651826) scale(0.1 -0.1)">
       <use xlink:href="#DejaVuSans-35"/>
       <use xlink:href="#DejaVuSans-30" x="63.623047"/>
       <use xlink:href="#DejaVuSans-30" x="127.246094"/>
       <use xlink:href="#DejaVuSans-6b" x="190.869141"/>
      </g>
     </g>
    </g>
    <g id="ytick_3">
     <g id="line2d_51">
      <path d="M 64.2325 359.163464 
L 967.0765 359.163464 
" clip-path="url(#p8a53915b0e)" style="fill: none; stroke: #ffffff; stroke-width: 0.8; stroke-linecap: square"/>
     </g>
     <g id="line2d_52">
      <g>
       <use xlink:href="#m4e29d1a046" x="64.2325" y="359.163464" style="fill: #555555; stroke: #555555; stroke-width: 0.8"/>
      </g>
     </g>
     <g id="text_27">
      <!-- 1,000k -->
      <g style="fill: #555555" transform="translate(22.81375 362.962682) scale(0.1 -0.1)">
       <defs>
        <path id="DejaVuSans-2c" d="M 750 794 
L 1409 794 
L 1409 256 
L 897 -744 
L 494 -744 
L 750 256 
L 750 794 
z
" transform="scale(0.015625)"/>
       </defs>
       <use xlink:href="#DejaVuSans-31"/>
       <use xlink:href="#DejaVuSans-2c" x="63.623047"/>
       <use xlink:href="#DejaVuSans-30" x="95.410156"/>
       <use xlink:href="#DejaVuSans-30" x="159.033203"/>
       <use xlink:href="#DejaVuSans-30" x="222.65625"/>
       <use xlink:href="#DejaVuSans-6b" x="286.279297"/>
      </g>
     </g>
    </g>
    <g id="ytick_4">
     <g id="line2d_53">
      <path d="M 64.2325 249.474321 
L 967.0765 249.474321 
" clip-path="url(#p8a53915b0e)" style="fill: none; stroke: #ffffff; stroke-width: 0.8; stroke-linecap: square"/>
     </g>
     <g id="line2d_54">
      <g>
       <use xlink:href="#m4e29d1a046" x="64.2325" y="249.474321" style="fill: #555555; stroke: #555555; stroke-width: 0.8"/>
      </g>
     </g>
     <g id="text_28">
      <!-- 1,500k -->
      <g style="fill: #555555" transform="translate(22.81375 253.273539) scale(0.1 -0.1)">
       <use xlink:href="#DejaVuSans-31"/>
       <use xlink:href="#DejaVuSans-2c" x="63.623047"/>
       <use xlink:href="#DejaVuSans-35" x="95.410156"/>
       <use xlink:href="#DejaVuSans-30" x="159.033203"/>
       <use xlink:href="#DejaVuSans-30" x="222.65625"/>
       <use xlink:href="#DejaVuSans-6b" x="286.279297"/>
      </g>
     </g>
    </g>
    <g id="ytick_5">
     <g id="line2d_55">
      <path d="M 64.2325 139.785177 
L 967.0765 139.785177 
" clip-path="url(#p8a53915b0e)" style="fill: none; stroke: #ffffff; stroke-width: 0.8; stroke-linecap: square"/>
     </g>
     <g id="line2d_56">
      <g>
       <use xlink:href="#m4e29d1a046" x="64.2325" y="139.785177" style="fill: #555555; stroke: #555555; stroke-width: 0.8"/>
      </g>
     </g>
     <g id="text_29">
      <!-- 2,000k -->
      <g style="fill: #555555" transform="translate(22.81375 143.584396) scale(0.1 -0.1)">
       <use xlink:href="#DejaVuSans-32"/>
       <use xlink:href="#DejaVuSans-2c" x="63.623047"/>
       <use xlink:href="#DejaVuSans-30" x="95.410156"/>
       <use xlink:href="#DejaVuSans-30" x="159.033203"/>
       <use xlink:href="#DejaVuSans-30" x="222.65625"/>
       <use xlink:href="#DejaVuSans-6b" x="286.279297"/>
      </g>
     </g>
    </g>
    <g id="ytick_6">
     <g id="line2d_57">
      <path d="M 64.2325 30.096034 
L 967.0765 30.096034 
" clip-path="url(#p8a53915b0e)" style="fill: none; stroke: #ffffff; stroke-width: 0.8; stroke-linecap: square"/>
     </g>
     <g id="line2d_58">
      <g>
       <use xlink:href="#m4e29d1a046" x="64.2325" y="30.096034" style="fill: #555555; stroke: #555555; stroke-width: 0.8"/>
      </g>
     </g>
     <g id="text_30">
      <!-- 2,500k -->
      <g style="fill: #555555" transform="translate(22.81375 33.895253) scale(0.1 -0.1)">
       <use xlink:href="#DejaVuSans-32"/>
       <use xlink:href="#DejaVuSans-2c" x="63.623047"/>
       <use xlink:href="#DejaVuSans-35" x="95.410156"/>
       <use xlink:href="#DejaVuSans-30" x="159.033203"/>
       <use xlink:href="#DejaVuSans-30" x="222.65625"/>
       <use xlink:href="#DejaVuSans-6b" x="286.279297"/>
      </g>
     </g>
    </g>
    <g id="text_31">
     <!-- Instances -->
     <g style="fill: #555555" transform="translate(16.318125 329.988) rotate(-90) scale(0.12 -0.12)">
      <defs>
       <path id="DejaVuSans-49" d="M 628 4666 
L 1259 4666 
L 1259 0 
L 628 0 
L 628 4666 
z
" transform="scale(0.015625)"/>
       <path id="DejaVuSans-6e" d="M 3513 2113 
L 3513 0 
L 2938 0 
L 2938 2094 
Q 2938 2591 2744 2837 
Q 2550 3084 2163 3084 
Q 1697 3084 1428 2787 
Q 1159 2491 1159 1978 
L 1159 0 
L 581 0 
L 581 3500 
L 1159 3500 
L 1159 2956 
Q 1366 3272 1645 3428 
Q 1925 3584 2291 3584 
Q 2894 3584 3203 3211 
Q 3513 2838 3513 2113 
z
" transform="scale(0.015625)"/>
       <path id="DejaVuSans-73" d="M 2834 3397 
L 2834 2853 
Q 2591 2978 2328 3040 
Q 2066 3103 1784 3103 
Q 1356 3103 1142 2972 
Q 928 2841 928 2578 
Q 928 2378 1081 2264 
Q 1234 2150 1697 2047 
L 1894 2003 
Q 2506 1872 2764 1633 
Q 3022 1394 3022 966 
Q 3022 478 2636 193 
Q 2250 -91 1575 -91 
Q 1294 -91 989 -36 
Q 684 19 347 128 
L 347 722 
Q 666 556 975 473 
Q 1284 391 1588 391 
Q 1994 391 2212 530 
Q 2431 669 2431 922 
Q 2431 1156 2273 1281 
Q 2116 1406 1581 1522 
L 1381 1569 
Q 847 1681 609 1914 
Q 372 2147 372 2553 
Q 372 3047 722 3315 
Q 1072 3584 1716 3584 
Q 2034 3584 2315 3537 
Q 2597 3491 2834 3397 
z
" transform="scale(0.015625)"/>
       <path id="DejaVuSans-63" d="M 3122 3366 
L 3122 2828 
Q 2878 2963 2633 3030 
Q 2388 3097 2138 3097 
Q 1578 3097 1268 2742 
Q 959 2388 959 1747 
Q 959 1106 1268 751 
Q 1578 397 2138 397 
Q 2388 397 2633 464 
Q 2878 531 3122 666 
L 3122 134 
Q 2881 22 2623 -34 
Q 2366 -91 2075 -91 
Q 1284 -91 818 406 
Q 353 903 353 1747 
Q 353 2603 823 3093 
Q 1294 3584 2113 3584 
Q 2378 3584 2631 3529 
Q 2884 3475 3122 3366 
z
" transform="scale(0.015625)"/>
      </defs>
      <use xlink:href="#DejaVuSans-49"/>
      <use xlink:href="#DejaVuSans-6e" x="29.492188"/>
      <use xlink:href="#DejaVuSans-73" x="92.871094"/>
      <use xlink:href="#DejaVuSans-74" x="144.970703"/>
      <use xlink:href="#DejaVuSans-61" x="184.179688"/>
      <use xlink:href="#DejaVuSans-6e" x="245.458984"/>
      <use xlink:href="#DejaVuSans-63" x="308.837891"/>
      <use xlink:href="#DejaVuSans-65" x="363.818359"/>
      <use xlink:href="#DejaVuSans-73" x="425.341797"/>
     </g>
    </g>
   </g>
   <g id="line2d_59">
    <path d="M 64.2325 580.58959 
L 73.321534 579.745555 
L 82.410567 578.855022 
L 91.499601 577.91799 
L 100.588634 576.93446 
L 109.677668 575.904431 
L 118.766701 574.827904 
L 127.855735 573.704878 
L 136.944768 572.535353 
L 146.033802 571.31933 
L 155.122836 570.056808 
L 164.211869 568.747788 
L 173.300903 567.392269 
L 182.389936 565.990252 
L 191.47897 564.541736 
L 200.568003 563.046722 
L 209.657037 561.505209 
L 218.74607 559.917197 
L 227.835104 558.282687 
L 236.924138 556.601678 
L 246.013171 554.874171 
L 255.102205 553.100165 
L 264.191238 551.279661 
L 273.280272 549.412658 
L 282.369305 547.499156 
L 291.458339 545.539156 
L 300.547372 543.532658 
L 309.636406 541.47966 
L 318.72544 539.380165 
L 327.814473 537.23417 
L 336.903507 535.041677 
L 345.99254 532.802686 
L 355.081574 530.517196 
L 364.170607 528.185207 
L 373.259641 525.80672 
L 382.348674 523.381735 
L 391.437708 520.91025 
L 400.526742 518.392268 
L 409.615775 515.827786 
L 418.704809 513.216806 
L 427.793842 510.559328 
L 436.882876 507.855351 
L 445.971909 505.104875 
L 455.060943 502.307901 
L 464.149977 499.464428 
L 473.23901 496.574457 
L 482.328044 493.637987 
L 491.417077 490.655019 
L 500.506111 487.625552 
L 509.595144 484.549586 
L 518.684178 481.427122 
L 527.773211 478.25816 
L 536.862245 475.042699 
L 545.951279 471.780739 
L 555.040312 468.47228 
L 564.129346 465.117324 
L 573.218379 461.715868 
L 582.307413 458.267914 
L 591.396446 454.773462 
L 600.48548 451.23251 
L 609.574513 447.645061 
L 618.663547 444.011112 
L 627.752581 440.330666 
L 636.841614 436.60372 
L 645.930648 432.830276 
L 655.019681 429.010334 
L 664.108715 425.143893 
L 673.197748 421.230953 
L 682.286782 417.271515 
L 691.375815 413.265578 
L 700.464849 409.213143 
L 709.553883 405.114209 
L 718.642916 400.968777 
L 727.73195 396.776846 
L 736.820983 392.538416 
L 745.910017 388.253488 
L 754.99905 383.922062 
L 764.088084 379.544136 
L 773.177117 375.119713 
L 782.266151 370.64879 
L 791.355185 366.131369 
L 800.444218 361.56745 
L 809.533252 356.957032 
L 818.622285 352.300115 
L 827.711319 347.5967 
L 836.800352 342.846786 
L 845.889386 338.050374 
L 854.978419 333.207463 
L 864.067453 328.318054 
L 873.156487 323.382146 
L 882.24552 318.399739 
L 891.334554 313.370834 
L 900.423587 308.295431 
L 909.512621 303.173529 
L 918.601654 298.005128 
L 927.690688 292.790229 
L 936.779721 287.528831 
L 945.868755 282.220934 
L 954.957789 276.866539 
L 964.046822 271.465646 
" clip-path="url(#p8a53915b0e)" style="fill: none; stroke-dasharray: 3,4.95; stroke-dashoffset: 0; stroke: #4ac1fa; stroke-opacity: 0.9; stroke-width: 3"/>
   </g>
   <g id="line2d_60">
    <path d="M 64.2325 425.108488 
L 73.321534 422.296918 
L 82.410567 419.579926 
L 91.499601 416.95751 
L 100.588634 414.429671 
L 109.677668 411.996408 
L 118.766701 409.657723 
L 127.855735 407.413615 
L 136.944768 405.264084 
L 146.033802 403.209129 
L 155.122836 401.248752 
L 164.211869 399.382951 
L 173.300903 397.611727 
L 182.389936 395.935081 
L 191.47897 394.353011 
L 200.568003 392.865518 
L 209.657037 391.472602 
L 218.74607 390.174263 
L 227.835104 388.970501 
L 236.924138 387.861316 
L 246.013171 386.846707 
L 255.102205 385.926676 
L 264.191238 385.101222 
L 273.280272 384.370344 
L 282.369305 383.734043 
L 291.458339 383.19232 
L 300.547372 382.745173 
L 309.636406 382.392603 
L 318.72544 382.13461 
L 327.814473 381.971194 
L 336.903507 381.902355 
L 345.99254 381.928093 
L 355.081574 382.048408 
L 364.170607 382.2633 
L 373.259641 382.572768 
L 382.348674 382.976814 
L 391.437708 383.475436 
L 400.526742 384.068636 
L 409.615775 384.756412 
L 418.704809 385.538765 
L 427.793842 386.415695 
L 436.882876 387.387202 
L 445.971909 388.453286 
L 455.060943 389.613947 
L 464.149977 390.869185 
L 473.23901 392.219 
L 482.328044 393.663392 
L 491.417077 395.20236 
L 500.506111 396.835906 
L 509.595144 398.564028 
L 518.684178 400.386727 
L 527.773211 402.304004 
L 536.862245 404.315857 
L 545.951279 406.422287 
L 555.040312 408.623294 
L 564.129346 410.918878 
L 573.218379 413.309039 
L 582.307413 415.793777 
L 591.396446 418.373092 
L 600.48548 421.046983 
L 609.574513 423.815452 
L 618.663547 426.678497 
L 627.752581 429.63612 
L 636.841614 432.688319 
L 645.930648 435.835096 
L 655.019681 439.076449 
L 664.108715 442.412379 
L 673.197748 445.842886 
L 682.286782 449.36797 
L 691.375815 452.987631 
L 700.464849 456.701869 
L 709.553883 460.510683 
L 718.642916 464.414075 
L 727.73195 468.412044 
L 736.820983 472.504589 
L 745.910017 476.691711 
L 754.99905 480.973411 
L 764.088084 485.349687 
L 773.177117 489.82054 
L 782.266151 494.38597 
L 791.355185 499.045977 
L 800.444218 503.800561 
L 809.533252 508.649722 
L 818.622285 513.59346 
L 827.711319 518.631775 
L 836.800352 523.764666 
L 845.889386 528.992135 
L 854.978419 534.31418 
L 864.067453 539.730803 
L 873.156487 545.242002 
L 882.24552 550.847778 
L 891.334554 556.548132 
L 900.423587 562.343062 
L 909.512621 568.232569 
L 918.601654 574.216653 
L 927.690688 580.295313 
L 936.779721 586.468551 
L 945.868755 592.736366 
L 954.957789 599.098758 
L 964.046822 605.555726 
" clip-path="url(#p8a53915b0e)" style="fill: none; stroke-dasharray: 3,4.95; stroke-dashoffset: 0; stroke: #e9a942; stroke-opacity: 0.9; stroke-width: 3"/>
   </g>
   <g id="line2d_61">
    <path d="M 64.2325 577.728169 
L 73.321534 573.854939 
L 82.410567 570.034005 
L 91.499601 566.265367 
L 100.588634 562.549023 
L 109.677668 558.884975 
L 118.766701 555.273223 
L 127.855735 551.713766 
L 136.944768 548.206604 
L 146.033802 544.751737 
L 155.122836 541.349166 
L 164.211869 537.998891 
L 173.300903 534.70091 
L 182.389936 531.455225 
L 191.47897 528.261836 
L 200.568003 525.120742 
L 209.657037 522.031943 
L 218.74607 518.99544 
L 227.835104 516.011232 
L 236.924138 513.079319 
L 246.013171 510.199702 
L 255.102205 507.37238 
L 264.191238 504.597354 
L 273.280272 501.874623 
L 282.369305 499.204187 
L 291.458339 496.586047 
L 300.547372 494.020202 
L 309.636406 491.506652 
L 318.72544 489.045398 
L 327.814473 486.636439 
L 336.903507 484.279776 
L 345.99254 481.975408 
L 355.081574 479.723335 
L 364.170607 477.523558 
L 373.259641 475.376076 
L 382.348674 473.28089 
L 391.437708 471.237999 
L 400.526742 469.247403 
L 409.615775 467.309103 
L 418.704809 465.423098 
L 427.793842 463.589388 
L 436.882876 461.807974 
L 445.971909 460.078855 
L 455.060943 458.402032 
L 464.149977 456.777504 
L 473.23901 455.205271 
L 482.328044 453.685334 
L 491.417077 452.217692 
L 500.506111 450.802346 
L 509.595144 449.439295 
L 518.684178 448.128539 
L 527.773211 446.870079 
L 536.862245 445.663914 
L 545.951279 444.510044 
L 555.040312 443.40847 
L 564.129346 442.359191 
L 573.218379 441.362208 
L 582.307413 440.41752 
L 591.396446 439.525127 
L 600.48548 438.68503 
L 609.574513 437.897228 
L 618.663547 437.161722 
L 627.752581 436.478511 
L 636.841614 435.847595 
L 645.930648 435.268974 
L 655.019681 434.74265 
L 664.108715 434.26862 
L 673.197748 433.846886 
L 682.286782 433.477447 
L 691.375815 433.160304 
L 700.464849 432.895456 
L 709.553883 432.682903 
L 718.642916 432.522646 
L 727.73195 432.414684 
L 736.820983 432.359017 
L 745.910017 432.355646 
L 754.99905 432.40457 
L 764.088084 432.50579 
L 773.177117 432.659305 
L 782.266151 432.865116 
L 791.355185 433.123221 
L 800.444218 433.433623 
L 809.533252 433.796319 
L 818.622285 434.211311 
L 827.711319 434.678598 
L 836.800352 435.198181 
L 845.889386 435.770059 
L 854.978419 436.394233 
L 864.067453 437.070702 
L 873.156487 437.799466 
L 882.24552 438.580526 
L 891.334554 439.413881 
L 900.423587 440.299531 
L 909.512621 441.237477 
L 918.601654 442.227718 
L 927.690688 443.270254 
L 936.779721 444.365086 
L 945.868755 445.512214 
L 954.957789 446.711636 
L 964.046822 447.963355 
" clip-path="url(#p8a53915b0e)" style="fill: none; stroke-dasharray: 3,4.95; stroke-dashoffset: 0; stroke: #9a5689; stroke-opacity: 0.9; stroke-width: 3"/>
   </g>
   <g id="line2d_62">
    <path d="M 64.2325 576.077138 
L 73.321534 575.534078 
L 82.410567 574.994844 
L 91.499601 574.459437 
L 100.588634 573.927856 
L 109.677668 573.400101 
L 118.766701 572.876172 
L 127.855735 572.356069 
L 136.944768 571.839793 
L 146.033802 571.327343 
L 155.122836 570.818719 
L 164.211869 570.313921 
L 173.300903 569.81295 
L 182.389936 569.315804 
L 191.47897 568.822485 
L 200.568003 568.332992 
L 209.657037 567.847326 
L 218.74607 567.365485 
L 227.835104 566.887471 
L 236.924138 566.413283 
L 246.013171 565.942921 
L 255.102205 565.476386 
L 264.191238 565.013677 
L 273.280272 564.554793 
L 282.369305 564.099736 
L 291.458339 563.648506 
L 300.547372 563.201101 
L 309.636406 562.757523 
L 318.72544 562.317771 
L 327.814473 561.881845 
L 336.903507 561.449746 
L 345.99254 561.021472 
L 355.081574 560.597025 
L 364.170607 560.176404 
L 373.259641 559.759609 
L 382.348674 559.346641 
L 391.437708 558.937498 
L 400.526742 558.532182 
L 409.615775 558.130692 
L 418.704809 557.733029 
L 427.793842 557.339191 
L 436.882876 556.94918 
L 445.971909 556.562995 
L 455.060943 556.180636 
L 464.149977 555.802103 
L 473.23901 555.427397 
L 482.328044 555.056517 
L 491.417077 554.689463 
L 500.506111 554.326235 
L 509.595144 553.966834 
L 518.684178 553.611258 
L 527.773211 553.259509 
L 536.862245 552.911586 
L 545.951279 552.56749 
L 555.040312 552.227219 
L 564.129346 551.890775 
L 573.218379 551.558157 
L 582.307413 551.229365 
L 591.396446 550.9044 
L 600.48548 550.58326 
L 609.574513 550.265947 
L 618.663547 549.95246 
L 627.752581 549.642799 
L 636.841614 549.336965 
L 645.930648 549.034957 
L 655.019681 548.736775 
L 664.108715 548.442419 
L 673.197748 548.151889 
L 682.286782 547.865186 
L 691.375815 547.582308 
L 700.464849 547.303257 
L 709.553883 547.028033 
L 718.642916 546.756634 
L 727.73195 546.489062 
L 736.820983 546.225316 
L 745.910017 545.965396 
L 754.99905 545.709302 
L 764.088084 545.457034 
L 773.177117 545.208593 
L 782.266151 544.963978 
L 791.355185 544.723189 
L 800.444218 544.486227 
L 809.533252 544.25309 
L 818.622285 544.02378 
L 827.711319 543.798296 
L 836.800352 543.576638 
L 845.889386 543.358807 
L 854.978419 543.144801 
L 864.067453 542.934622 
L 873.156487 542.728269 
L 882.24552 542.525743 
L 891.334554 542.327042 
L 900.423587 542.132168 
L 909.512621 541.94112 
L 918.601654 541.753898 
L 927.690688 541.570502 
L 936.779721 541.390933 
L 945.868755 541.21519 
L 954.957789 541.043273 
L 964.046822 540.875182 
" clip-path="url(#p8a53915b0e)" style="fill: none; stroke-dasharray: 3,4.95; stroke-dashoffset: 0; stroke: #be503b; stroke-opacity: 0.9; stroke-width: 3"/>
   </g>
   <g id="line2d_63">
    <path d="M 64.2325 564.805847 
L 73.321534 562.451711 
L 82.410567 560.102545 
L 91.499601 557.758349 
L 100.588634 555.419124 
L 109.677668 553.084869 
L 118.766701 550.755585 
L 127.855735 548.43127 
L 136.944768 546.111927 
L 146.033802 543.797553 
L 155.122836 541.48815 
L 164.211869 539.183718 
L 173.300903 536.884256 
L 182.389936 534.589764 
L 191.47897 532.300242 
L 200.568003 530.015691 
L 209.657037 527.73611 
L 218.74607 525.4615 
L 227.835104 523.19186 
L 236.924138 520.92719 
L 246.013171 518.667491 
L 255.102205 516.412762 
L 264.191238 514.163004 
L 273.280272 511.918215 
L 282.369305 509.678398 
L 291.458339 507.44355 
L 300.547372 505.213673 
L 309.636406 502.988767 
L 318.72544 500.76883 
L 327.814473 498.553864 
L 336.903507 496.343869 
L 345.99254 494.138844 
L 355.081574 491.938789 
L 364.170607 489.743704 
L 373.259641 487.55359 
L 382.348674 485.368447 
L 391.437708 483.188273 
L 400.526742 481.01307 
L 409.615775 478.842838 
L 418.704809 476.677576 
L 427.793842 474.517284 
L 436.882876 472.361962 
L 445.971909 470.211611 
L 455.060943 468.066231 
L 464.149977 465.92582 
L 473.23901 463.79038 
L 482.328044 461.659911 
L 491.417077 459.534411 
L 500.506111 457.413883 
L 509.595144 455.298324 
L 518.684178 453.187736 
L 527.773211 451.082118 
L 536.862245 448.981471 
L 545.951279 446.885794 
L 555.040312 444.795087 
L 564.129346 442.709351 
L 573.218379 440.628585 
L 582.307413 438.55279 
L 591.396446 436.481965 
L 600.48548 434.41611 
L 609.574513 432.355225 
L 618.663547 430.299311 
L 627.752581 428.248368 
L 636.841614 426.202395 
L 645.930648 424.161392 
L 655.019681 422.125359 
L 664.108715 420.094297 
L 673.197748 418.068205 
L 682.286782 416.047084 
L 691.375815 414.030933 
L 700.464849 412.019752 
L 709.553883 410.013542 
L 718.642916 408.012302 
L 727.73195 406.016032 
L 736.820983 404.024733 
L 745.910017 402.038404 
L 754.99905 400.057046 
L 764.088084 398.080658 
L 773.177117 396.10924 
L 782.266151 394.142793 
L 791.355185 392.181316 
L 800.444218 390.224809 
L 809.533252 388.273273 
L 818.622285 386.326707 
L 827.711319 384.385112 
L 836.800352 382.448487 
L 845.889386 380.516832 
L 854.978419 378.590148 
L 864.067453 376.668434 
L 873.156487 374.75169 
L 882.24552 372.839917 
L 891.334554 370.933114 
L 900.423587 369.031282 
L 909.512621 367.13442 
L 918.601654 365.242528 
L 927.690688 363.355606 
L 936.779721 361.473655 
L 945.868755 359.596675 
L 954.957789 357.724665 
L 964.046822 355.857625 
" clip-path="url(#p8a53915b0e)" style="fill: none; stroke-dasharray: 3,4.95; stroke-dashoffset: 0; stroke: #e2321d; stroke-opacity: 0.9; stroke-width: 3"/>
   </g>
   <g id="line2d_64">
    <path d="M 64.2325 602.903783 
L 73.321534 600.24568 
L 82.410567 597.528224 
L 91.499601 594.751415 
L 100.588634 591.915252 
L 109.677668 589.019735 
L 118.766701 586.064865 
L 127.855735 583.050642 
L 136.944768 579.977065 
L 146.033802 576.844135 
L 155.122836 573.651852 
L 164.211869 570.400215 
L 173.300903 567.089224 
L 182.389936 563.71888 
L 191.47897 560.289183 
L 200.568003 556.800132 
L 209.657037 553.251728 
L 218.74607 549.64397 
L 227.835104 545.976859 
L 236.924138 542.250395 
L 246.013171 538.464577 
L 255.102205 534.619406 
L 264.191238 530.714881 
L 273.280272 526.751003 
L 282.369305 522.727771 
L 291.458339 518.645186 
L 300.547372 514.503248 
L 309.636406 510.301956 
L 318.72544 506.041311 
L 327.814473 501.721312 
L 336.903507 497.34196 
L 345.99254 492.903254 
L 355.081574 488.405195 
L 364.170607 483.847783 
L 373.259641 479.231017 
L 382.348674 474.554898 
L 391.437708 469.819425 
L 400.526742 465.024599 
L 409.615775 460.170419 
L 418.704809 455.256886 
L 427.793842 450.284 
L 436.882876 445.25176 
L 445.971909 440.160166 
L 455.060943 435.00922 
L 464.149977 429.798919 
L 473.23901 424.529266 
L 482.328044 419.200259 
L 491.417077 413.811898 
L 500.506111 408.364185 
L 509.595144 402.857117 
L 518.684178 397.290696 
L 527.773211 391.664922 
L 536.862245 385.979795 
L 545.951279 380.235314 
L 555.040312 374.431479 
L 564.129346 368.568291 
L 573.218379 362.64575 
L 582.307413 356.663855 
L 591.396446 350.622607 
L 600.48548 344.522006 
L 609.574513 338.362051 
L 618.663547 332.142742 
L 627.752581 325.86408 
L 636.841614 319.526065 
L 645.930648 313.128696 
L 655.019681 306.671974 
L 664.108715 300.155898 
L 673.197748 293.580469 
L 682.286782 286.945687 
L 691.375815 280.251551 
L 700.464849 273.498062 
L 709.553883 266.685219 
L 718.642916 259.813023 
L 727.73195 252.881473 
L 736.820983 245.89057 
L 745.910017 238.840314 
L 754.99905 231.730704 
L 764.088084 224.56174 
L 773.177117 217.333424 
L 782.266151 210.045753 
L 791.355185 202.69873 
L 800.444218 195.292353 
L 809.533252 187.826622 
L 818.622285 180.301538 
L 827.711319 172.717101 
L 836.800352 165.07331 
L 845.889386 157.370166 
L 854.978419 149.607669 
L 864.067453 141.785818 
L 873.156487 133.904613 
L 882.24552 125.964055 
L 891.334554 117.964144 
L 900.423587 109.904879 
L 909.512621 101.786261 
L 918.601654 93.608289 
L 927.690688 85.370964 
L 936.779721 77.074286 
L 945.868755 68.718254 
L 954.957789 60.302869 
L 964.046822 51.82813 
" clip-path="url(#p8a53915b0e)" style="fill: none; stroke-dasharray: 3,4.95; stroke-dashoffset: 0; stroke: #48b585; stroke-opacity: 0.9; stroke-width: 3"/>
   </g>
   <g id="line2d_65">
    <path d="M 64.2325 578.54175 
L 94.529279 578.511476 
L 106.64799 578.242847 
L 112.707346 578.042664 
L 118.766701 577.958972 
L 124.826057 577.217692 
L 130.885413 576.806139 
L 136.944768 576.63283 
L 143.004124 575.503361 
L 149.06348 574.66029 
L 155.122836 574.387822 
L 161.182191 573.813819 
L 167.241547 573.009688 
L 173.300903 572.501059 
L 179.360258 571.02574 
L 185.419614 570.214808 
L 191.47897 569.655284 
L 197.538326 567.592251 
L 203.597681 565.851703 
L 209.657037 566.043769 
L 215.716393 566.022709 
L 221.775748 563.993569 
L 227.835104 562.811888 
L 239.953815 558.183664 
L 246.013171 556.012916 
L 252.072527 553.405167 
L 258.131883 550.07665 
L 264.191238 548.931714 
L 270.250594 547.131167 
L 276.30995 542.576325 
L 282.369305 541.164078 
L 288.428661 540.166565 
L 294.488017 538.618412 
L 300.547372 535.31293 
L 306.606728 534.353917 
L 312.666084 528.038236 
L 318.72544 528.464049 
L 324.784795 526.765623 
L 330.844151 522.145187 
L 342.962862 518.743068 
L 349.022218 516.391991 
L 355.081574 516.654697 
L 361.14093 513.439708 
L 367.200285 513.02245 
L 373.259641 518.212502 
L 379.318997 516.497841 
L 385.378352 517.294733 
L 391.437708 518.523471 
L 397.497064 518.123983 
L 403.556419 514.36713 
L 409.615775 513.725229 
L 415.675131 513.901719 
L 421.734487 512.308155 
L 427.793842 511.906034 
L 433.853198 511.122964 
L 439.912554 509.297626 
M 452.031265 510.910386 
L 458.090621 507.911046 
L 464.149977 504.641651 
L 470.209332 502.646296 
L 476.268688 501.887138 
L 482.328044 500.864945 
L 488.387399 500.806261 
L 494.446755 500.536645 
L 500.506111 498.928931 
L 506.565466 494.475333 
L 518.684178 492.080599 
L 524.743534 488.354898 
L 530.802889 485.832047 
L 536.862245 485.303017 
L 542.921601 483.344956 
L 548.980956 482.954572 
L 555.040312 481.499546 
L 561.099668 478.594209 
L 567.159023 472.292458 
L 573.218379 470.240394 
L 579.277735 463.522811 
L 585.337091 462.014366 
L 591.396446 461.04965 
L 597.455802 462.71166 
L 603.515158 461.485006 
L 609.574513 458.112943 
L 615.633869 456.090056 
L 621.693225 447.290464 
L 627.752581 448.383187 
L 633.811936 442.064653 
L 639.871292 436.912006 
L 645.930648 433.089449 
L 651.990003 426.795157 
L 658.049359 423.726603 
L 664.108715 419.12273 
L 670.16807 422.279803 
L 676.227426 414.986243 
L 682.286782 414.794397 
L 688.346138 412.050413 
L 694.405493 408.919446 
L 700.464849 405.393489 
L 706.524205 410.755533 
L 712.58356 402.060255 
L 718.642916 396.938101 
L 724.702272 392.521139 
L 730.761628 392.169256 
L 736.820983 389.257887 
L 742.880339 378.407546 
L 748.939695 377.193288 
L 754.99905 375.058956 
L 761.058406 382.065789 
L 767.117762 372.328903 
L 773.177117 367.175049 
L 779.236473 372.363455 
L 785.295829 381.7761 
L 791.355185 376.135994 
L 797.41454 352.490744 
L 803.473896 360.96423 
L 809.533252 355.367232 
L 815.592607 346.38424 
L 821.651963 339.653714 
L 827.711319 337.379858 
L 833.770674 342.369837 
L 839.83003 326.768859 
L 845.889386 348.076414 
L 851.948742 324.585058 
L 858.008097 330.475804 
L 864.067453 330.181508 
L 870.126809 325.937196 
L 876.186164 324.750689 
L 882.24552 320.214494 
L 888.304876 320.807474 
L 894.364232 315.045942 
L 900.423587 316.82499 
L 906.482943 312.649124 
L 912.542299 306.185582 
L 918.601654 305.900171 
L 924.66101 301.551106 
L 930.720366 288.892759 
L 936.779721 299.177543 
L 942.839077 289.474551 
L 948.898433 280.741759 
L 954.957789 265.792007 
L 961.017144 269.784033 
L 967.0765 281.128194 
L 967.0765 281.128194 
" clip-path="url(#p8a53915b0e)" style="fill: none; stroke: #4ac1fa; stroke-width: 1.5; stroke-linecap: square"/>
   </g>
   <g id="line2d_66">
    <path d="M 64.2325 537.773806 
L 70.291856 522.611914 
L 76.351211 507.793459 
L 82.410567 498.126116 
L 88.469923 493.050361 
L 100.588634 469.271619 
L 106.64799 463.401824 
L 112.707346 457.752395 
L 118.766701 459.810821 
L 124.826057 438.585423 
L 130.885413 430.335264 
L 136.944768 454.606729 
L 143.004124 418.182146 
L 149.06348 412.992424 
L 155.122836 412.945367 
L 161.182191 409.214839 
L 167.241547 398.106839 
L 173.300903 386.151271 
L 179.360258 367.166055 
L 185.419614 354.215167 
L 191.47897 352.490634 
L 197.538326 334.861505 
L 203.597681 333.76231 
L 209.657037 335.892364 
L 215.716393 343.634772 
L 221.775748 318.140711 
L 227.835104 326.738585 
L 233.89446 331.112879 
L 239.953815 316.738226 
L 246.013171 370.227479 
L 252.072527 548.523451 
L 258.131883 530.986351 
L 270.250594 298.650486 
L 276.30995 359.382074 
L 282.369305 273.805566 
L 294.488017 235.061935 
L 300.547372 251.339584 
L 306.606728 199.732378 
L 312.666084 228.276894 
L 318.72544 319.589815 
L 324.784795 350.909685 
L 330.844151 189.213738 
L 336.903507 293.753414 
L 342.962862 414.780576 
L 349.022218 385.478218 
L 355.081574 406.968076 
L 361.14093 377.456103 
L 367.200285 387.523921 
L 373.259641 367.386639 
L 379.318997 364.449384 
L 385.378352 401.233199 
L 391.437708 412.391985 
L 397.497064 392.154119 
L 403.556419 362.079221 
L 409.615775 368.985688 
L 415.675131 352.948806 
L 421.734487 354.090999 
L 427.793842 353.386466 
L 433.853198 400.881316 
L 439.912554 377.500527 
M 452.031265 370.875303 
L 458.090621 396.24333 
L 470.209332 466.189025 
L 476.268688 450.902746 
L 482.328044 458.360621 
L 488.387399 438.286959 
L 494.446755 459.000767 
L 500.506111 452.668522 
L 506.565466 428.599324 
L 512.624822 457.800109 
L 518.684178 439.442315 
L 524.743534 417.168399 
L 530.802889 403.921022 
L 536.862245 416.274871 
L 542.921601 409.430707 
L 548.980956 468.666026 
L 555.040312 432.816981 
L 561.099668 415.232276 
L 567.159023 418.510665 
L 573.218379 389.398508 
L 579.277735 386.3067 
L 585.337091 356.410157 
L 591.396446 416.050557 
L 597.455802 429.931608 
L 603.515158 448.078799 
L 609.574513 434.475481 
L 615.633869 422.874538 
L 621.693225 435.398625 
L 627.752581 450.5592 
L 633.811936 460.004971 
L 639.871292 461.242155 
L 645.930648 460.794075 
L 651.990003 457.158209 
L 658.049359 464.117107 
L 664.108715 455.03331 
L 670.16807 470.468328 
L 676.227426 463.650709 
L 682.286782 470.61575 
L 688.346138 472.998747 
L 694.405493 480.155525 
L 700.464849 462.809064 
L 706.524205 482.568357 
L 712.58356 474.920391 
L 718.642916 475.408178 
L 724.702272 478.509091 
L 736.820983 484.204041 
L 742.880339 481.81896 
L 748.939695 477.017318 
L 754.99905 504.673132 
L 761.058406 527.014178 
L 767.117762 527.148657 
L 773.177117 522.82142 
L 779.236473 533.809311 
L 785.295829 542.159287 
L 791.355185 541.214864 
L 797.41454 535.924995 
L 803.473896 538.556767 
L 809.533252 536.402362 
L 815.592607 535.890991 
L 821.651963 535.652308 
L 827.711319 535.612052 
L 833.770674 535.941887 
L 839.83003 535.690699 
L 845.889386 540.542798 
L 851.948742 535.740717 
L 858.008097 538.069966 
L 864.067453 536.669784 
L 870.126809 535.391796 
L 876.186164 535.667884 
L 882.24552 536.267006 
L 888.304876 535.749273 
L 894.364232 536.880826 
L 900.423587 539.592342 
L 906.482943 540.206053 
L 912.542299 539.906272 
L 924.66101 540.363895 
L 936.779721 541.409891 
L 942.839077 541.229343 
L 948.898433 541.668428 
L 954.957789 541.633328 
L 961.017144 541.87585 
L 967.0765 544.749596 
L 967.0765 544.749596 
" clip-path="url(#p8a53915b0e)" style="fill: none; stroke: #e9a942; stroke-width: 1.5; stroke-linecap: square"/>
   </g>
   <g id="line2d_67">
    <path d="M 64.2325 577.765151 
L 70.291856 576.769941 
L 76.351211 575.564238 
L 82.410567 574.930893 
L 88.469923 573.855281 
L 94.529279 572.919194 
L 100.588634 571.713381 
L 106.64799 570.906728 
L 112.707346 570.29554 
L 118.766701 570.28128 
L 124.826057 568.662707 
L 130.885413 567.783549 
L 136.944768 569.275431 
L 143.004124 566.116603 
L 149.06348 565.29536 
L 155.122836 563.717811 
L 161.182191 560.823553 
L 173.300903 555.823702 
L 179.360258 553.703521 
L 185.419614 552.320231 
L 197.538326 546.507475 
L 203.597681 544.685977 
L 209.657037 542.519616 
L 215.716393 541.597021 
L 221.775748 538.52375 
L 227.835104 537.651612 
L 233.89446 536.538048 
L 239.953815 533.293772 
L 246.013171 530.465547 
L 252.072527 493.82707 
L 258.131883 495.062828 
L 264.191238 496.866556 
L 270.250594 474.317759 
L 276.30995 472.543866 
L 282.369305 465.639044 
L 288.428661 468.503466 
L 300.547372 454.327022 
L 306.606728 457.174991 
L 312.666084 458.68903 
L 318.72544 459.412759 
L 324.784795 465.712975 
L 330.844151 460.332174 
L 336.903507 453.873567 
L 342.962862 454.822598 
L 349.022218 450.800626 
L 355.081574 443.571343 
L 361.14093 438.861511 
L 367.200285 432.469376 
L 373.259641 440.410431 
L 379.318997 440.075331 
L 385.378352 443.399241 
L 391.437708 447.05518 
L 397.497064 448.340079 
L 403.556419 444.165639 
L 409.615775 443.844798 
L 415.675131 444.590575 
L 421.734487 448.654009 
L 427.793842 451.528084 
L 433.853198 454.897296 
L 439.912554 452.05163 
M 452.031265 454.924938 
L 458.090621 440.660852 
L 464.149977 452.100881 
L 470.209332 452.664573 
L 476.268688 452.42929 
L 482.328044 453.334555 
L 488.387399 452.852361 
L 494.446755 448.38571 
L 500.506111 442.972221 
L 506.565466 446.535144 
L 512.624822 443.738071 
L 518.684178 441.529699 
L 524.743534 436.150763 
L 530.802889 428.927514 
L 536.862245 432.871387 
L 542.921601 426.695888 
L 548.980956 440.43928 
L 555.040312 427.851244 
L 561.099668 428.642322 
L 567.159023 425.572562 
L 573.218379 426.954535 
L 579.277735 411.413997 
L 585.337091 410.454217 
L 591.396446 398.523767 
L 597.455802 406.668077 
L 603.515158 415.205841 
L 609.574513 407.642555 
L 615.633869 442.263739 
L 621.693225 503.295875 
L 627.752581 496.564472 
L 633.811936 498.685641 
L 639.871292 492.70846 
L 645.930648 492.791056 
L 651.990003 488.639102 
L 658.049359 485.987038 
L 664.108715 483.139727 
L 670.16807 481.80492 
L 676.227426 481.208321 
L 682.286782 473.140794 
L 688.346138 459.212028 
L 700.464849 467.887671 
L 706.524205 470.28416 
L 712.58356 463.500983 
L 718.642916 463.562299 
L 724.702272 460.844312 
L 730.761628 460.367055 
L 736.820983 454.236529 
L 742.880339 455.184243 
L 748.939695 454.74757 
L 754.99905 453.931044 
L 761.058406 455.3547 
L 773.177117 446.382018 
L 779.236473 448.905746 
L 785.295829 463.03294 
L 791.355185 459.337293 
L 797.41454 443.569917 
L 803.473896 441.664288 
L 809.533252 435.541879 
L 815.592607 438.157745 
L 821.651963 437.075772 
L 827.711319 442.670467 
L 833.770674 439.163485 
L 839.83003 436.490361 
L 845.889386 446.237448 
L 851.948742 431.948133 
L 858.008097 438.018002 
L 864.067453 436.292701 
L 870.126809 431.275958 
L 876.186164 426.407515 
L 882.24552 425.900971 
L 888.304876 428.425686 
L 900.423587 431.025757 
L 906.482943 426.80097 
L 912.542299 420.505033 
L 918.601654 420.509201 
L 924.66101 418.716113 
L 930.720366 404.033343 
L 936.779721 410.788878 
L 942.839077 402.888189 
L 948.898433 408.082847 
L 954.957789 410.845588 
L 961.017144 405.409503 
L 967.0765 419.640573 
L 967.0765 419.640573 
" clip-path="url(#p8a53915b0e)" style="fill: none; stroke: #9a5689; stroke-width: 1.5; stroke-linecap: square"/>
   </g>
   <g id="line2d_68">
    <path d="M 64.2325 578.173853 
L 70.291856 577.983542 
L 88.469923 576.897839 
L 94.529279 576.408735 
L 112.707346 575.29539 
L 118.766701 575.1789 
L 124.826057 574.548078 
L 130.885413 574.178426 
L 136.944768 574.665116 
L 143.004124 573.559559 
L 161.182191 572.492503 
L 167.241547 572.013272 
L 185.419614 570.943035 
L 197.538326 569.981719 
L 209.657037 569.289471 
L 215.716393 569.183621 
L 221.775748 568.177003 
L 227.835104 567.694042 
L 233.89446 567.430569 
L 239.953815 566.690606 
L 258.131883 564.922527 
L 264.191238 561.082639 
L 270.250594 558.293463 
L 276.30995 559.410537 
L 282.369305 556.540411 
L 288.428661 555.899498 
L 294.488017 555.976938 
L 300.547372 556.324982 
L 306.606728 553.833722 
L 312.666084 553.641218 
L 324.784795 556.302934 
L 330.844151 554.301217 
L 336.903507 555.852441 
L 342.962862 558.42509 
L 349.022218 558.087686 
L 355.081574 556.78085 
L 361.14093 554.979096 
L 373.259641 557.95244 
L 379.318997 558.50297 
L 385.378352 558.352695 
L 391.437708 558.511964 
L 397.497064 559.475473 
L 403.556419 558.162604 
L 415.675131 558.008271 
L 421.734487 557.576096 
L 427.793842 557.749076 
L 433.853198 558.123555 
L 439.912554 557.771343 
M 452.031265 557.679643 
L 458.090621 557.222897 
L 464.149977 557.322276 
L 470.209332 556.809479 
L 476.268688 556.510686 
L 482.328044 556.649004 
L 488.387399 556.611819 
L 494.446755 556.46319 
L 506.565466 555.469955 
L 518.684178 556.091454 
L 524.743534 556.009845 
L 530.802889 555.484763 
L 536.862245 555.70458 
L 542.921601 555.774891 
L 548.980956 556.051527 
L 555.040312 555.480046 
L 561.099668 555.096793 
L 567.159023 554.303521 
L 573.218379 554.121327 
L 579.277735 553.75343 
L 585.337091 553.496976 
L 591.396446 552.956977 
L 603.515158 553.287141 
L 609.574513 553.16056 
L 615.633869 553.895038 
L 621.693225 553.115258 
L 627.752581 552.068824 
L 633.811936 551.220049 
L 639.871292 550.897015 
L 645.930648 550.816722 
L 651.990003 550.122719 
L 658.049359 549.822609 
L 670.16807 549.398222 
L 676.227426 549.150105 
L 682.286782 549.068497 
L 688.346138 548.420892 
L 694.405493 548.285426 
L 700.464849 548.609667 
L 706.524205 548.623268 
L 712.58356 547.398589 
L 718.642916 547.551715 
L 724.702272 547.533726 
L 730.761628 547.277821 
L 736.820983 546.82327 
L 742.880339 546.869668 
L 748.939695 546.585793 
L 754.99905 545.8704 
L 761.058406 546.578224 
L 767.117762 544.815958 
L 779.236473 543.779067 
L 785.295829 546.493873 
L 791.355185 546.924951 
L 797.41454 544.332448 
L 803.473896 542.805356 
L 809.533252 541.746966 
L 815.592607 539.991939 
L 821.651963 542.428684 
L 827.711319 542.416728 
L 833.770674 542.568647 
L 839.83003 542.063967 
L 845.889386 544.23669 
L 851.948742 541.89735 
L 858.008097 544.235812 
L 870.126809 541.903492 
L 876.186164 541.258849 
L 882.24552 540.899507 
L 888.304876 541.017314 
L 894.364232 541.568063 
L 900.423587 543.508025 
L 906.482943 540.96203 
L 912.542299 540.126528 
L 918.601654 540.518009 
L 924.66101 540.11183 
L 930.720366 540.225468 
L 936.779721 541.098264 
L 942.839077 540.300276 
L 961.017144 540.469855 
L 967.0765 540.422798 
L 967.0765 540.422798 
" clip-path="url(#p8a53915b0e)" style="fill: none; stroke: #be503b; stroke-width: 1.5; stroke-linecap: square"/>
   </g>
   <g id="line2d_69">
    <path d="M 64.2325 574.630674 
L 88.469923 568.854005 
L 94.529279 566.675469 
L 100.588634 564.109511 
L 106.64799 561.156679 
L 112.707346 560.52125 
L 118.766701 559.193024 
L 124.826057 555.936353 
L 130.885413 553.95811 
L 136.944768 556.423263 
L 143.004124 550.166924 
L 149.06348 547.747291 
L 155.122836 546.708535 
L 161.182191 546.73826 
L 167.241547 544.277714 
L 173.300903 541.292414 
L 185.419614 537.300387 
L 191.47897 534.757683 
L 197.538326 531.357539 
L 203.597681 526.656921 
L 209.657037 524.84705 
L 215.716393 524.842991 
L 221.775748 519.145079 
L 227.835104 519.151002 
L 233.89446 519.307748 
L 239.953815 515.288299 
L 246.013171 514.708702 
L 252.072527 511.990276 
L 258.131883 508.890131 
L 264.191238 510.077736 
L 270.250594 506.14187 
L 276.30995 504.014997 
L 282.369305 500.98999 
L 288.428661 503.694705 
L 294.488017 504.519129 
L 300.547372 499.180119 
L 306.606728 496.079427 
L 318.72544 493.970433 
L 324.784795 491.803415 
L 330.844151 487.277202 
L 336.903507 471.360759 
L 342.962862 408.241458 
L 349.022218 460.824678 
L 355.081574 461.617292 
L 361.14093 462.145335 
L 367.200285 468.330048 
L 373.259641 470.466902 
L 379.318997 473.952823 
L 385.378352 476.334613 
L 391.437708 483.745321 
L 397.497064 481.552635 
L 403.556419 467.68716 
L 409.615775 466.732535 
L 415.675131 467.656447 
L 421.734487 471.224196 
L 427.793842 473.904779 
L 433.853198 472.865804 
L 439.912554 465.91206 
M 452.031265 471.983025 
L 458.090621 474.124377 
L 464.149977 465.408258 
L 470.209332 478.65388 
L 476.268688 463.31868 
L 482.328044 459.786251 
L 488.387399 469.302223 
L 494.446755 472.541014 
L 500.506111 463.789795 
L 506.565466 471.98829 
L 512.624822 474.657137 
L 518.684178 473.972896 
L 524.743534 472.544305 
L 530.802889 473.148692 
L 536.862245 470.348657 
L 542.921601 471.750046 
L 548.980956 476.617282 
L 555.040312 469.585221 
L 561.099668 468.932131 
L 567.159023 466.560213 
L 573.218379 465.459154 
L 579.277735 460.64051 
L 585.337091 457.531371 
L 591.396446 455.288009 
L 597.455802 452.712069 
L 603.515158 452.378065 
L 609.574513 448.459092 
L 615.633869 448.920883 
L 621.693225 444.827942 
L 627.752581 442.082971 
L 633.811936 437.176905 
L 639.871292 431.669304 
L 645.930648 430.205502 
L 651.990003 420.836404 
L 658.049359 419.934978 
L 664.108715 416.982915 
L 670.16807 403.830748 
L 676.227426 401.890785 
L 682.286782 402.055977 
L 688.346138 404.711332 
L 694.405493 404.256232 
L 700.464849 400.510677 
L 706.524205 414.41213 
L 712.58356 402.063765 
L 718.642916 402.854953 
L 724.702272 401.757513 
L 730.761628 390.483224 
L 736.820983 398.087424 
L 742.880339 400.527569 
L 748.939695 398.153347 
L 754.99905 396.453824 
L 761.058406 394.430936 
L 767.117762 388.826808 
L 773.177117 386.604397 
L 779.236473 386.254269 
L 785.295829 409.861786 
L 791.355185 403.157695 
L 797.41454 381.274491 
L 803.473896 393.473131 
L 809.533252 384.273283 
L 815.592607 382.730066 
L 821.651963 378.489484 
L 827.711319 384.269115 
L 833.770674 377.775079 
L 839.83003 376.828023 
L 845.889386 386.551856 
L 851.948742 378.27208 
L 858.008097 388.202458 
L 864.067453 391.596898 
L 870.126809 375.723563 
L 876.186164 372.456801 
L 882.24552 370.019069 
L 888.304876 371.217862 
L 894.364232 366.346018 
L 900.423587 364.826275 
L 906.482943 356.848694 
L 912.542299 355.07875 
L 918.601654 359.394798 
L 924.66101 360.621671 
L 930.720366 362.317794 
L 936.779721 365.376366 
L 942.839077 361.457832 
L 948.898433 358.01436 
L 954.957789 353.388659 
L 961.017144 359.961891 
L 967.0765 366.34547 
L 967.0765 366.34547 
" clip-path="url(#p8a53915b0e)" style="fill: none; stroke: #e2321d; stroke-width: 1.5; stroke-linecap: square"/>
   </g>
   <g id="line2d_70">
    <path d="M 64.2325 578.54175 
L 130.885413 578.527381 
L 143.004124 578.248441 
L 149.06348 578.191622 
L 155.122836 577.771952 
L 161.182191 576.521715 
L 173.300903 574.26146 
L 179.360258 572.960986 
L 185.419614 571.778976 
L 191.47897 570.432432 
L 197.538326 568.613128 
L 203.597681 567.082964 
L 209.657037 565.28132 
L 215.716393 563.942015 
L 221.775748 559.877045 
L 227.835104 558.339752 
L 233.89446 555.732551 
L 239.953815 552.6912 
L 246.013171 549.807143 
L 258.131883 541.586929 
L 264.191238 538.401995 
L 270.250594 533.004412 
L 276.30995 529.163098 
L 282.369305 524.288293 
L 288.428661 520.345846 
L 294.488017 518.208553 
L 300.547372 514.698281 
L 306.606728 510.392653 
L 312.666084 505.489658 
L 318.72544 494.5044 
L 324.784795 488.845208 
L 330.844151 494.02824 
L 336.903507 488.469523 
L 342.962862 478.018012 
L 349.022218 469.541126 
L 355.081574 467.761858 
L 361.14093 461.552136 
L 367.200285 454.697662 
L 373.259641 466.976703 
L 379.318997 470.057871 
L 385.378352 468.070304 
L 391.437708 469.461382 
L 397.497064 471.960978 
L 403.556419 463.255609 
L 409.615775 466.597837 
L 415.675131 462.376231 
L 421.734487 460.598499 
L 427.793842 464.962152 
L 433.853198 466.410268 
L 439.912554 462.467163 
M 452.031265 462.191185 
L 458.090621 459.452905 
L 464.149977 459.308774 
L 470.209332 453.859746 
L 476.268688 456.899123 
L 482.328044 454.058393 
L 488.387399 453.240441 
L 494.446755 447.814997 
L 500.506111 446.014011 
L 506.565466 440.788091 
L 512.624822 431.587585 
L 518.684178 431.954276 
L 524.743534 425.3613 
L 530.802889 423.753477 
L 536.862245 409.547088 
L 542.921601 400.294479 
L 548.980956 410.733924 
L 555.040312 399.644461 
L 561.099668 408.823029 
L 567.159023 392.164759 
L 573.218379 394.71898 
L 579.277735 372.518665 
L 585.337091 361.434358 
L 591.396446 343.302194 
L 597.455802 345.41031 
L 603.515158 340.829691 
L 609.574513 343.704205 
L 615.633869 334.128233 
L 621.693225 312.591538 
L 627.752581 319.858114 
L 633.811936 318.062722 
L 639.871292 325.351456 
L 645.930648 312.732927 
L 651.990003 296.733339 
L 658.049359 288.858975 
L 664.108715 275.107247 
L 670.16807 275.94604 
L 676.227426 248.873114 
L 682.286782 246.486608 
L 688.346138 233.401461 
L 694.405493 234.635793 
L 700.464849 223.781503 
L 706.524205 255.02163 
L 712.58356 234.158426 
L 718.642916 227.425377 
L 724.702272 228.192981 
L 730.761628 227.975468 
L 736.820983 221.205454 
L 748.939695 198.497388 
L 754.99905 200.89256 
L 761.058406 199.044189 
L 767.117762 190.139953 
L 773.177117 176.770163 
L 779.236473 168.103294 
L 785.295829 216.106335 
L 791.355185 191.770811 
L 797.41454 158.77884 
L 803.473896 161.907942 
L 809.533252 155.088897 
L 815.592607 176.576232 
L 821.651963 174.192907 
L 827.711319 172.651226 
L 833.770674 173.432212 
L 839.83003 172.214444 
L 845.889386 198.378705 
L 851.948742 195.108981 
L 858.008097 176.654441 
L 864.067453 190.925656 
L 870.126809 174.606873 
L 876.186164 145.619104 
L 882.24552 138.899767 
L 888.304876 112.756785 
L 894.364232 98.069628 
L 900.423587 86.985431 
L 906.482943 66.724859 
L 912.542299 58.216272 
L 918.601654 79.927702 
L 924.66101 80.024558 
L 930.720366 81.035234 
L 936.779721 117.538574 
L 942.839077 117.560183 
L 948.898433 116.669178 
L 954.957789 120.909431 
L 961.017144 120.337183 
L 967.0765 128.772607 
L 967.0765 128.772607 
" clip-path="url(#p8a53915b0e)" style="fill: none; stroke: #48b585; stroke-width: 6; stroke-linecap: square"/>
   </g>
   <g id="patch_3">
    <path d="M 64.2325 578.54175 
L 64.2325 24.14175 
" style="fill: none; stroke: #ffffff; stroke-linejoin: miter; stroke-linecap: square"/>
   </g>
   <g id="patch_4">
    <path d="M 967.0765 578.54175 
L 967.0765 24.14175 
" style="fill: none; stroke: #ffffff; stroke-linejoin: miter; stroke-linecap: square"/>
   </g>
   <g id="patch_5">
    <path d="M 64.2325 578.54175 
L 967.0765 578.54175 
" style="fill: none; stroke: #ffffff; stroke-linejoin: miter; stroke-linecap: square"/>
   </g>
   <g id="patch_6">
    <path d="M 64.2325 24.14175 
L 967.0765 24.14175 
" style="fill: none; stroke: #ffffff; stroke-linejoin: miter; stroke-linecap: square"/>
   </g>
   <g id="text_32">
    <!-- Enterprise Linux Instances by Distribution (System Age &gt; 1 Week, 2 Week Resample) -->
    <g transform="translate(64.2325 18.14175) scale(0.144 -0.144)">
     <defs>
      <path id="DejaVuSans-45" d="M 628 4666 
L 3578 4666 
L 3578 4134 
L 1259 4134 
L 1259 2753 
L 3481 2753 
L 3481 2222 
L 1259 2222 
L 1259 531 
L 3634 531 
L 3634 0 
L 628 0 
L 628 4666 
z
" transform="scale(0.015625)"/>
      <path id="DejaVuSans-72" d="M 2631 2963 
Q 2534 3019 2420 3045 
Q 2306 3072 2169 3072 
Q 1681 3072 1420 2755 
Q 1159 2438 1159 1844 
L 1159 0 
L 581 0 
L 581 3500 
L 1159 3500 
L 1159 2956 
Q 1341 3275 1631 3429 
Q 1922 3584 2338 3584 
Q 2397 3584 2469 3576 
Q 2541 3569 2628 3553 
L 2631 2963 
z
" transform="scale(0.015625)"/>
      <path id="DejaVuSans-70" d="M 1159 525 
L 1159 -1331 
L 581 -1331 
L 581 3500 
L 1159 3500 
L 1159 2969 
Q 1341 3281 1617 3432 
Q 1894 3584 2278 3584 
Q 2916 3584 3314 3078 
Q 3713 2572 3713 1747 
Q 3713 922 3314 415 
Q 2916 -91 2278 -91 
Q 1894 -91 1617 61 
Q 1341 213 1159 525 
z
M 3116 1747 
Q 3116 2381 2855 2742 
Q 2594 3103 2138 3103 
Q 1681 3103 1420 2742 
Q 1159 2381 1159 1747 
Q 1159 1113 1420 752 
Q 1681 391 2138 391 
Q 2594 391 2855 752 
Q 3116 1113 3116 1747 
z
" transform="scale(0.015625)"/>
      <path id="DejaVuSans-69" d="M 603 3500 
L 1178 3500 
L 1178 0 
L 603 0 
L 603 3500 
z
M 603 4863 
L 1178 4863 
L 1178 4134 
L 603 4134 
L 603 4863 
z
" transform="scale(0.015625)"/>
      <path id="DejaVuSans-20" transform="scale(0.015625)"/>
      <path id="DejaVuSans-4c" d="M 628 4666 
L 1259 4666 
L 1259 531 
L 3531 531 
L 3531 0 
L 628 0 
L 628 4666 
z
" transform="scale(0.015625)"/>
      <path id="DejaVuSans-75" d="M 544 1381 
L 544 3500 
L 1119 3500 
L 1119 1403 
Q 1119 906 1312 657 
Q 1506 409 1894 409 
Q 2359 409 2629 706 
Q 2900 1003 2900 1516 
L 2900 3500 
L 3475 3500 
L 3475 0 
L 2900 0 
L 2900 538 
Q 2691 219 2414 64 
Q 2138 -91 1772 -91 
Q 1169 -91 856 284 
Q 544 659 544 1381 
z
M 1991 3584 
L 1991 3584 
z
" transform="scale(0.015625)"/>
      <path id="DejaVuSans-78" d="M 3513 3500 
L 2247 1797 
L 3578 0 
L 2900 0 
L 1881 1375 
L 863 0 
L 184 0 
L 1544 1831 
L 300 3500 
L 978 3500 
L 1906 2253 
L 2834 3500 
L 3513 3500 
z
" transform="scale(0.015625)"/>
      <path id="DejaVuSans-62" d="M 3116 1747 
Q 3116 2381 2855 2742 
Q 2594 3103 2138 3103 
Q 1681 3103 1420 2742 
Q 1159 2381 1159 1747 
Q 1159 1113 1420 752 
Q 1681 391 2138 391 
Q 2594 391 2855 752 
Q 3116 1113 3116 1747 
z
M 1159 2969 
Q 1341 3281 1617 3432 
Q 1894 3584 2278 3584 
Q 2916 3584 3314 3078 
Q 3713 2572 3713 1747 
Q 3713 922 3314 415 
Q 2916 -91 2278 -91 
Q 1894 -91 1617 61 
Q 1341 213 1159 525 
L 1159 0 
L 581 0 
L 581 4863 
L 1159 4863 
L 1159 2969 
z
" transform="scale(0.015625)"/>
      <path id="DejaVuSans-79" d="M 2059 -325 
Q 1816 -950 1584 -1140 
Q 1353 -1331 966 -1331 
L 506 -1331 
L 506 -850 
L 844 -850 
Q 1081 -850 1212 -737 
Q 1344 -625 1503 -206 
L 1606 56 
L 191 3500 
L 800 3500 
L 1894 763 
L 2988 3500 
L 3597 3500 
L 2059 -325 
z
" transform="scale(0.015625)"/>
      <path id="DejaVuSans-6f" d="M 1959 3097 
Q 1497 3097 1228 2736 
Q 959 2375 959 1747 
Q 959 1119 1226 758 
Q 1494 397 1959 397 
Q 2419 397 2687 759 
Q 2956 1122 2956 1747 
Q 2956 2369 2687 2733 
Q 2419 3097 1959 3097 
z
M 1959 3584 
Q 2709 3584 3137 3096 
Q 3566 2609 3566 1747 
Q 3566 888 3137 398 
Q 2709 -91 1959 -91 
Q 1206 -91 779 398 
Q 353 888 353 1747 
Q 353 2609 779 3096 
Q 1206 3584 1959 3584 
z
" transform="scale(0.015625)"/>
      <path id="DejaVuSans-28" d="M 1984 4856 
Q 1566 4138 1362 3434 
Q 1159 2731 1159 2009 
Q 1159 1288 1364 580 
Q 1569 -128 1984 -844 
L 1484 -844 
Q 1016 -109 783 600 
Q 550 1309 550 2009 
Q 550 2706 781 3412 
Q 1013 4119 1484 4856 
L 1984 4856 
z
" transform="scale(0.015625)"/>
      <path id="DejaVuSans-53" d="M 3425 4513 
L 3425 3897 
Q 3066 4069 2747 4153 
Q 2428 4238 2131 4238 
Q 1616 4238 1336 4038 
Q 1056 3838 1056 3469 
Q 1056 3159 1242 3001 
Q 1428 2844 1947 2747 
L 2328 2669 
Q 3034 2534 3370 2195 
Q 3706 1856 3706 1288 
Q 3706 609 3251 259 
Q 2797 -91 1919 -91 
Q 1588 -91 1214 -16 
Q 841 59 441 206 
L 441 856 
Q 825 641 1194 531 
Q 1563 422 1919 422 
Q 2459 422 2753 634 
Q 3047 847 3047 1241 
Q 3047 1584 2836 1778 
Q 2625 1972 2144 2069 
L 1759 2144 
Q 1053 2284 737 2584 
Q 422 2884 422 3419 
Q 422 4038 858 4394 
Q 1294 4750 2059 4750 
Q 2388 4750 2728 4690 
Q 3069 4631 3425 4513 
z
" transform="scale(0.015625)"/>
      <path id="DejaVuSans-6d" d="M 3328 2828 
Q 3544 3216 3844 3400 
Q 4144 3584 4550 3584 
Q 5097 3584 5394 3201 
Q 5691 2819 5691 2113 
L 5691 0 
L 5113 0 
L 5113 2094 
Q 5113 2597 4934 2840 
Q 4756 3084 4391 3084 
Q 3944 3084 3684 2787 
Q 3425 2491 3425 1978 
L 3425 0 
L 2847 0 
L 2847 2094 
Q 2847 2600 2669 2842 
Q 2491 3084 2119 3084 
Q 1678 3084 1418 2786 
Q 1159 2488 1159 1978 
L 1159 0 
L 581 0 
L 581 3500 
L 1159 3500 
L 1159 2956 
Q 1356 3278 1631 3431 
Q 1906 3584 2284 3584 
Q 2666 3584 2933 3390 
Q 3200 3197 3328 2828 
z
" transform="scale(0.015625)"/>
      <path id="DejaVuSans-41" d="M 2188 4044 
L 1331 1722 
L 3047 1722 
L 2188 4044 
z
M 1831 4666 
L 2547 4666 
L 4325 0 
L 3669 0 
L 3244 1197 
L 1141 1197 
L 716 0 
L 50 0 
L 1831 4666 
z
" transform="scale(0.015625)"/>
      <path id="DejaVuSans-67" d="M 2906 1791 
Q 2906 2416 2648 2759 
Q 2391 3103 1925 3103 
Q 1463 3103 1205 2759 
Q 947 2416 947 1791 
Q 947 1169 1205 825 
Q 1463 481 1925 481 
Q 2391 481 2648 825 
Q 2906 1169 2906 1791 
z
M 3481 434 
Q 3481 -459 3084 -895 
Q 2688 -1331 1869 -1331 
Q 1566 -1331 1297 -1286 
Q 1028 -1241 775 -1147 
L 775 -588 
Q 1028 -725 1275 -790 
Q 1522 -856 1778 -856 
Q 2344 -856 2625 -561 
Q 2906 -266 2906 331 
L 2906 616 
Q 2728 306 2450 153 
Q 2172 0 1784 0 
Q 1141 0 747 490 
Q 353 981 353 1791 
Q 353 2603 747 3093 
Q 1141 3584 1784 3584 
Q 2172 3584 2450 3431 
Q 2728 3278 2906 2969 
L 2906 3500 
L 3481 3500 
L 3481 434 
z
" transform="scale(0.015625)"/>
      <path id="DejaVuSans-3e" d="M 678 3150 
L 678 3719 
L 4684 2266 
L 4684 1747 
L 678 294 
L 678 863 
L 3897 2003 
L 678 3150 
z
" transform="scale(0.015625)"/>
      <path id="DejaVuSans-57" d="M 213 4666 
L 850 4666 
L 1831 722 
L 2809 4666 
L 3519 4666 
L 4500 722 
L 5478 4666 
L 6119 4666 
L 4947 0 
L 4153 0 
L 3169 4050 
L 2175 0 
L 1381 0 
L 213 4666 
z
" transform="scale(0.015625)"/>
      <path id="DejaVuSans-52" d="M 2841 2188 
Q 3044 2119 3236 1894 
Q 3428 1669 3622 1275 
L 4263 0 
L 3584 0 
L 2988 1197 
Q 2756 1666 2539 1819 
Q 2322 1972 1947 1972 
L 1259 1972 
L 1259 0 
L 628 0 
L 628 4666 
L 2053 4666 
Q 2853 4666 3247 4331 
Q 3641 3997 3641 3322 
Q 3641 2881 3436 2590 
Q 3231 2300 2841 2188 
z
M 1259 4147 
L 1259 2491 
L 2053 2491 
Q 2509 2491 2742 2702 
Q 2975 2913 2975 3322 
Q 2975 3731 2742 3939 
Q 2509 4147 2053 4147 
L 1259 4147 
z
" transform="scale(0.015625)"/>
      <path id="DejaVuSans-6c" d="M 603 4863 
L 1178 4863 
L 1178 0 
L 603 0 
L 603 4863 
z
" transform="scale(0.015625)"/>
      <path id="DejaVuSans-29" d="M 513 4856 
L 1013 4856 
Q 1481 4119 1714 3412 
Q 1947 2706 1947 2009 
Q 1947 1309 1714 600 
Q 1481 -109 1013 -844 
L 513 -844 
Q 928 -128 1133 580 
Q 1338 1288 1338 2009 
Q 1338 2731 1133 3434 
Q 928 4138 513 4856 
z
" transform="scale(0.015625)"/>
     </defs>
     <use xlink:href="#DejaVuSans-45"/>
     <use xlink:href="#DejaVuSans-6e" x="63.183594"/>
     <use xlink:href="#DejaVuSans-74" x="126.5625"/>
     <use xlink:href="#DejaVuSans-65" x="165.771484"/>
     <use xlink:href="#DejaVuSans-72" x="227.294922"/>
     <use xlink:href="#DejaVuSans-70" x="268.408203"/>
     <use xlink:href="#DejaVuSans-72" x="331.884766"/>
     <use xlink:href="#DejaVuSans-69" x="372.998047"/>
     <use xlink:href="#DejaVuSans-73" x="400.78125"/>
     <use xlink:href="#DejaVuSans-65" x="452.880859"/>
     <use xlink:href="#DejaVuSans-20" x="514.404297"/>
     <use xlink:href="#DejaVuSans-4c" x="546.191406"/>
     <use xlink:href="#DejaVuSans-69" x="601.904297"/>
     <use xlink:href="#DejaVuSans-6e" x="629.6875"/>
     <use xlink:href="#DejaVuSans-75" x="693.066406"/>
     <use xlink:href="#DejaVuSans-78" x="756.445312"/>
     <use xlink:href="#DejaVuSans-20" x="815.625"/>
     <use xlink:href="#DejaVuSans-49" x="847.412109"/>
     <use xlink:href="#DejaVuSans-6e" x="876.904297"/>
     <use xlink:href="#DejaVuSans-73" x="940.283203"/>
     <use xlink:href="#DejaVuSans-74" x="992.382812"/>
     <use xlink:href="#DejaVuSans-61" x="1031.591797"/>
     <use xlink:href="#DejaVuSans-6e" x="1092.871094"/>
     <use xlink:href="#DejaVuSans-63" x="1156.25"/>
     <use xlink:href="#DejaVuSans-65" x="1211.230469"/>
     <use xlink:href="#DejaVuSans-73" x="1272.753906"/>
     <use xlink:href="#DejaVuSans-20" x="1324.853516"/>
     <use xlink:href="#DejaVuSans-62" x="1356.640625"/>
     <use xlink:href="#DejaVuSans-79" x="1420.117188"/>
     <use xlink:href="#DejaVuSans-20" x="1479.296875"/>
     <use xlink:href="#DejaVuSans-44" x="1511.083984"/>
     <use xlink:href="#DejaVuSans-69" x="1588.085938"/>
     <use xlink:href="#DejaVuSans-73" x="1615.869141"/>
     <use xlink:href="#DejaVuSans-74" x="1667.96875"/>
     <use xlink:href="#DejaVuSans-72" x="1707.177734"/>
     <use xlink:href="#DejaVuSans-69" x="1748.291016"/>
     <use xlink:href="#DejaVuSans-62" x="1776.074219"/>
     <use xlink:href="#DejaVuSans-75" x="1839.550781"/>
     <use xlink:href="#DejaVuSans-74" x="1902.929688"/>
     <use xlink:href="#DejaVuSans-69" x="1942.138672"/>
     <use xlink:href="#DejaVuSans-6f" x="1969.921875"/>
     <use xlink:href="#DejaVuSans-6e" x="2031.103516"/>
     <use xlink:href="#DejaVuSans-20" x="2094.482422"/>
     <use xlink:href="#DejaVuSans-28" x="2126.269531"/>
     <use xlink:href="#DejaVuSans-53" x="2165.283203"/>
     <use xlink:href="#DejaVuSans-79" x="2228.759766"/>
     <use xlink:href="#DejaVuSans-73" x="2287.939453"/>
     <use xlink:href="#DejaVuSans-74" x="2340.039062"/>
     <use xlink:href="#DejaVuSans-65" x="2379.248047"/>
     <use xlink:href="#DejaVuSans-6d" x="2440.771484"/>
     <use xlink:href="#DejaVuSans-20" x="2538.183594"/>
     <use xlink:href="#DejaVuSans-41" x="2569.970703"/>
     <use xlink:href="#DejaVuSans-67" x="2638.378906"/>
     <use xlink:href="#DejaVuSans-65" x="2701.855469"/>
     <use xlink:href="#DejaVuSans-20" x="2763.378906"/>
     <use xlink:href="#DejaVuSans-3e" x="2795.166016"/>
     <use xlink:href="#DejaVuSans-20" x="2878.955078"/>
     <use xlink:href="#DejaVuSans-31" x="2910.742188"/>
     <use xlink:href="#DejaVuSans-20" x="2974.365234"/>
     <use xlink:href="#DejaVuSans-57" x="3006.152344"/>
     <use xlink:href="#DejaVuSans-65" x="3099.154297"/>
     <use xlink:href="#DejaVuSans-65" x="3160.677734"/>
     <use xlink:href="#DejaVuSans-6b" x="3222.201172"/>
     <use xlink:href="#DejaVuSans-2c" x="3280.111328"/>
     <use xlink:href="#DejaVuSans-20" x="3311.898438"/>
     <use xlink:href="#DejaVuSans-32" x="3343.685547"/>
     <use xlink:href="#DejaVuSans-20" x="3407.308594"/>
     <use xlink:href="#DejaVuSans-57" x="3439.095703"/>
     <use xlink:href="#DejaVuSans-65" x="3532.097656"/>
     <use xlink:href="#DejaVuSans-65" x="3593.621094"/>
     <use xlink:href="#DejaVuSans-6b" x="3655.144531"/>
     <use xlink:href="#DejaVuSans-20" x="3713.054688"/>
     <use xlink:href="#DejaVuSans-52" x="3744.841797"/>
     <use xlink:href="#DejaVuSans-65" x="3809.824219"/>
     <use xlink:href="#DejaVuSans-73" x="3871.347656"/>
     <use xlink:href="#DejaVuSans-61" x="3923.447266"/>
     <use xlink:href="#DejaVuSans-6d" x="3984.726562"/>
     <use xlink:href="#DejaVuSans-70" x="4082.138672"/>
     <use xlink:href="#DejaVuSans-6c" x="4145.615234"/>
     <use xlink:href="#DejaVuSans-65" x="4173.398438"/>
     <use xlink:href="#DejaVuSans-29" x="4234.921875"/>
    </g>
   </g>
   <g id="text_33">
    <!-- 2026-08-27 21:20 UTC -->
    <g transform="translate(804.1945 18.14175) scale(0.144 -0.144)">
     <defs>
      <path id="DejaVuSans-38" d="M 2034 2216 
Q 1584 2216 1326 1975 
Q 1069 1734 1069 1313 
Q 1069 891 1326 650 
Q 1584 409 2034 409 
Q 2484 409 2743 651 
Q 3003 894 3003 1313 
Q 3003 1734 2745 1975 
Q 2488 2216 2034 2216 
z
M 1403 2484 
Q 997 2584 770 2862 
Q 544 3141 544 3541 
Q 544 4100 942 4425 
Q 1341 4750 2034 4750 
Q 2731 4750 3128 4425 
Q 3525 4100 3525 3541 
Q 3525 3141 3298 2862 
Q 3072 2584 2669 2484 
Q 3125 2378 3379 2068 
Q 3634 1759 3634 1313 
Q 3634 634 3220 271 
Q 2806 -91 2034 -91 
Q 1263 -91 848 271 
Q 434 634 434 1313 
Q 434 1759 690 2068 
Q 947 2378 1403 2484 
z
M 1172 3481 
Q 1172 3119 1398 2916 
Q 1625 2713 2034 2713 
Q 2441 2713 2670 2916 
Q 2900 3119 2900 3481 
Q 2900 3844 2670 4047 
Q 2441 4250 2034 4250 
Q 1625 4250 1398 4047 
Q 1172 3844 1172 3481 
z
" transform="scale(0.015625)"/>
      <path id="DejaVuSans-37" d="M 525 4666 
L 3525 4666 
L 3525 4397 
L 1831 0 
L 1172 0 
L 2766 4134 
L 525 4134 
L 525 4666 
z
" transform="scale(0.015625)"/>
      <path id="DejaVuSans-3a" d="M 750 794 
L 1409 794 
L 1409 0 
L 750 0 
L 750 794 
z
M 750 3309 
L 1409 3309 
L 1409 2516 
L 750 2516 
L 750 3309 
z
" transform="scale(0.015625)"/>
      <path id="DejaVuSans-55" d="M 556 4666 
L 1191 4666 
L 1191 1831 
Q 1191 1081 1462 751 
Q 1734 422 2344 422 
Q 2950 422 3222 751 
Q 3494 1081 3494 1831 
L 3494 4666 
L 4128 4666 
L 4128 1753 
Q 4128 841 3676 375 
Q 3225 -91 2344 -91 
Q 1459 -91 1007 375 
Q 556 841 556 1753 
L 556 4666 
z
" transform="scale(0.015625)"/>
      <path id="DejaVuSans-54" d="M -19 4666 
L 3928 4666 
L 3928 4134 
L 2272 4134 
L 2272 0 
L 1638 0 
L 1638 4134 
L -19 4134 
L -19 4666 
z
" transform="scale(0.015625)"/>
      <path id="DejaVuSans-43" d="M 4122 4306 
L 4122 3641 
Q 3803 3938 3442 4084 
Q 3081 4231 2675 4231 
Q 1875 4231 1450 3742 
Q 1025 3253 1025 2328 
Q 1025 1406 1450 917 
Q 1875 428 2675 428 
Q 3081 428 3442 575 
Q 3803 722 4122 1019 
L 4122 359 
Q 3791 134 3420 21 
Q 3050 -91 2638 -91 
Q 1578 -91 968 557 
Q 359 1206 359 2328 
Q 359 3453 968 4101 
Q 1578 4750 2638 4750 
Q 3056 4750 3426 4639 
Q 3797 4528 4122 4306 
z
" transform="scale(0.015625)"/>
     </defs>
     <use xlink:href="#DejaVuSans-32"/>
     <use xlink:href="#DejaVuSans-30" x="63.623047"/>
     <use xlink:href="#DejaVuSans-32" x="127.246094"/>
     <use xlink:href="#DejaVuSans-36" x="190.869141"/>
     <use xlink:href="#DejaVuSans-2d" x="254.492188"/>
     <use xlink:href="#DejaVuSans-30" x="290.576172"/>
     <use xlink:href="#DejaVuSans-38" x="354.199219"/>
     <use xlink:href="#DejaVuSans-2d" x="417.822266"/>
     <use xlink:href="#DejaVuSans-32" x="453.90625"/>
     <use xlink:href="#DejaVuSans-37" x="517.529297"/>
     <use xlink:href="#DejaVuSans-20" x="581.152344"/>
     <use xlink:href="#DejaVuSans-32" x="612.939453"/>
     <use xlink:href="#DejaVuSans-31" x="676.5625"/>
     <use xlink:href="#DejaVuSans-3a" x="740.185547"/>
     <use xlink:href="#DejaVuSans-32" x="773.876953"/>
     <use xlink:href="#DejaVuSans-30" x="837.5"/>
     <use xlink:href="#DejaVuSans-20" x="901.123047"/>
     <use xlink:href="#DejaVuSans-55" x="932.910156"/>
     <use xlink:href="#DejaVuSans-54" x="1006.103516"/>
     <use xlink:href="#DejaVuSans-43" x="1061.3125"/>
    </g>
   </g>
   <g id="legend_1">
    <g id="patch_7">
     <path d="M 71.2325 134.888625 
L 180.20125 134.888625 
Q 182.20125 134.888625 182.20125 132.888625 
L 182.20125 31.14175 
Q 182.20125 29.14175 180.20125 29.14175 
L 71.2325 29.14175 
Q 69.2325 29.14175 69.2325 31.14175 
L 69.2325 132.888625 
Q 69.2325 134.888625 71.2325 134.888625 
z
" style="fill: #e5e5e5; opacity: 0.8; stroke: #cccccc; stroke-width: 0.5; stroke-linejoin: miter"/>
    </g>
    <g id="text_34">
     <!-- Distribution -->
     <g transform="translate(96.548125 40.740188) scale(0.1 -0.1)">
      <use xlink:href="#DejaVuSans-44"/>
      <use xlink:href="#DejaVuSans-69" x="77.001953"/>
      <use xlink:href="#DejaVuSans-73" x="104.785156"/>
      <use xlink:href="#DejaVuSans-74" x="156.884766"/>
      <use xlink:href="#DejaVuSans-72" x="196.09375"/>
      <use xlink:href="#DejaVuSans-69" x="237.207031"/>
      <use xlink:href="#DejaVuSans-62" x="264.990234"/>
      <use xlink:href="#DejaVuSans-75" x="328.466797"/>
      <use xlink:href="#DejaVuSans-74" x="391.845703"/>
      <use xlink:href="#DejaVuSans-69" x="431.054688"/>
      <use xlink:href="#DejaVuSans-6f" x="458.837891"/>
      <use xlink:href="#DejaVuSans-6e" x="520.019531"/>
     </g>
    </g>
    <g id="line2d_71">
     <path d="M 73.2325 51.918313 
L 83.2325 51.918313 
L 93.2325 51.918313 
" style="fill: none; stroke: #4ac1fa; stroke-width: 1.5; stroke-linecap: square"/>
    </g>
    <g id="text_35">
     <!-- AlmaLinux -->
     <g transform="translate(101.2325 55.418313) scale(0.1 -0.1)">
      <use xlink:href="#DejaVuSans-41"/>
      <use xlink:href="#DejaVuSans-6c" x="68.408203"/>
      <use xlink:href="#DejaVuSans-6d" x="96.191406"/>
      <use xlink:href="#DejaVuSans-61" x="193.603516"/>
      <use xlink:href="#DejaVuSans-4c" x="254.882812"/>
      <use xlink:href="#DejaVuSans-69" x="310.595703"/>
      <use xlink:href="#DejaVuSans-6e" x="338.378906"/>
      <use xlink:href="#DejaVuSans-75" x="401.757812"/>
      <use xlink:href="#DejaVuSans-78" x="465.136719"/>
     </g>
    </g>
    <g id="line2d_72">
     <path d="M 73.2325 66.596438 
L 83.2325 66.596438 
L 93.2325 66.596438 
" style="fill: none; stroke: #e9a942; stroke-width: 1.5; stroke-linecap: square"/>
    </g>
    <g id="text_36">
     <!-- CentOS Legacy -->
     <g transform="translate(101.2325 70.096438) scale(0.1 -0.1)">
      <defs>
       <path id="DejaVuSans-4f" d="M 2522 4238 
Q 1834 4238 1429 3725 
Q 1025 3213 1025 2328 
Q 1025 1447 1429 934 
Q 1834 422 2522 422 
Q 3209 422 3611 934 
Q 4013 1447 4013 2328 
Q 4013 3213 3611 3725 
Q 3209 4238 2522 4238 
z
M 2522 4750 
Q 3503 4750 4090 4092 
Q 4678 3434 4678 2328 
Q 4678 1225 4090 567 
Q 3503 -91 2522 -91 
Q 1538 -91 948 565 
Q 359 1222 359 2328 
Q 359 3434 948 4092 
Q 1538 4750 2522 4750 
z
" transform="scale(0.015625)"/>
      </defs>
      <use xlink:href="#DejaVuSans-43"/>
      <use xlink:href="#DejaVuSans-65" x="69.824219"/>
      <use xlink:href="#DejaVuSans-6e" x="131.347656"/>
      <use xlink:href="#DejaVuSans-74" x="194.726562"/>
      <use xlink:href="#DejaVuSans-4f" x="233.935547"/>
      <use xlink:href="#DejaVuSans-53" x="312.646484"/>
      <use xlink:href="#DejaVuSans-20" x="376.123047"/>
      <use xlink:href="#DejaVuSans-4c" x="407.910156"/>
      <use xlink:href="#DejaVuSans-65" x="461.873047"/>
      <use xlink:href="#DejaVuSans-67" x="523.396484"/>
      <use xlink:href="#DejaVuSans-61" x="586.873047"/>
      <use xlink:href="#DejaVuSans-63" x="648.152344"/>
      <use xlink:href="#DejaVuSans-79" x="703.132812"/>
     </g>
    </g>
    <g id="line2d_73">
     <path d="M 73.2325 81.274563 
L 83.2325 81.274563 
L 93.2325 81.274563 
" style="fill: none; stroke: #9a5689; stroke-width: 1.5; stroke-linecap: square"/>
    </g>
    <g id="text_37">
     <!-- CentOS Stream -->
     <g transform="translate(101.2325 84.774563) scale(0.1 -0.1)">
      <use xlink:href="#DejaVuSans-43"/>
      <use xlink:href="#DejaVuSans-65" x="69.824219"/>
      <use xlink:href="#DejaVuSans-6e" x="131.347656"/>
      <use xlink:href="#DejaVuSans-74" x="194.726562"/>
      <use xlink:href="#DejaVuSans-4f" x="233.935547"/>
      <use xlink:href="#DejaVuSans-53" x="312.646484"/>
      <use xlink:href="#DejaVuSans-20" x="376.123047"/>
      <use xlink:href="#DejaVuSans-53" x="407.910156"/>
      <use xlink:href="#DejaVuSans-74" x="471.386719"/>
      <use xlink:href="#DejaVuSans-72" x="510.595703"/>
      <use xlink:href="#DejaVuSans-65" x="549.458984"/>
      <use xlink:href="#DejaVuSans-61" x="610.982422"/>
      <use xlink:href="#DejaVuSans-6d" x="672.261719"/>
     </g>
    </g>
    <g id="line2d_74">
     <path d="M 73.2325 95.952688 
L 83.2325 95.952688 
L 93.2325 95.952688 
" style="fill: none; stroke: #be503b; stroke-width: 1.5; stroke-linecap: square"/>
    </g>
    <g id="text_38">
     <!-- Oracle -->
     <g transform="translate(101.2325 99.452688) scale(0.1 -0.1)">
      <use xlink:href="#DejaVuSans-4f"/>
      <use xlink:href="#DejaVuSans-72" x="78.710938"/>
      <use xlink:href="#DejaVuSans-61" x="119.824219"/>
      <use xlink:href="#DejaVuSans-63" x="181.103516"/>
      <use xlink:href="#DejaVuSans-6c" x="236.083984"/>
      <use xlink:href="#DejaVuSans-65" x="263.867188"/>
     </g>
    </g>
    <g id="line2d_75">
     <path d="M 73.2325 110.630813 
L 83.2325 110.630813 
L 93.2325 110.630813 
" style="fill: none; stroke: #e2321d; stroke-width: 1.5; stroke-linecap: square"/>
    </g>
    <g id="text_39">
     <!-- RHEL -->
     <g transform="translate(101.2325 114.130813) scale(0.1 -0.1)">
      <defs>
       <path id="DejaVuSans-48" d="M 628 4666 
L 1259 4666 
L 1259 2753 
L 3553 2753 
L 3553 4666 
L 4184 4666 
L 4184 0 
L 3553 0 
L 3553 2222 
L 1259 2222 
L 1259 0 
L 628 0 
L 628 4666 
z
" transform="scale(0.015625)"/>
      </defs>
      <use xlink:href="#DejaVuSans-52"/>
      <use xlink:href="#DejaVuSans-48" x="69.482422"/>
      <use xlink:href="#DejaVuSans-45" x="144.677734"/>
      <use xlink:href="#DejaVuSans-4c" x="207.861328"/>
     </g>
    </g>
    <g id="line2d_76">
     <path d="M 73.2325 125.308938 
L 83.2325 125.308938 
L 93.2325 125.308938 
" style="fill: none; stroke: #48b585; stroke-width: 6; stroke-linecap: square"/>
    </g>
    <g id="text_40">
     <!-- Rocky Linux -->
     <g transform="translate(101.2325 128.808938) scale(0.1 -0.1)">
      <use xlink:href="#DejaVuSans-52"/>
      <use xlink:href="#DejaVuSans-6f" x="64.982422"/>
      <use xlink:href="#DejaVuSans-63" x="126.164062"/>
      <use xlink:href="#DejaVuSans-6b" x="181.144531"/>
      <use xlink:href="#DejaVuSans-79" x="235.429688"/>
      <use xlink:href="#DejaVuSans-20" x="294.609375"/>
      <use xlink:href="#DejaVuSans-4c" x="326.396484"/>
      <use xlink:href="#DejaVuSans-69" x="382.109375"/>
      <use xlink:href="#DejaVuSans-6e" x="409.892578"/>
      <use xlink:href="#DejaVuSans-75" x="473.271484"/>
      <use xlink:href="#DejaVuSans-78" x="536.650391"/>
     </g>
    </g>
   </g>
  </g>
 </g>
 <defs>
  <clipPath id="p8a53915b0e">
   <rect x="64.2325" y="24.14175" width="902.844" height="554.4"/>
  </clipPath>
 </defs>
</svg>
