<?xml version="1.0" encoding="utf-8" standalone="no"?>
<!DOCTYPE svg PUBLIC "-//W3C//DTD SVG 1.1//EN"
  "http://www.w3.org/Graphics/SVG/1.1/DTD/svg11.dtd">
<svg xmlns:xlink="http://www.w3.org/1999/xlink" width="962.123375pt" height="633.943878pt" viewBox="0 0 962.123375 633.943878" xmlns="http://www.w3.org/2000/svg" version="1.1">
 <metadata>
  <rdf:RDF xmlns:dc="http://purl.org/dc/elements/1.1/" xmlns:cc="http://creativecommons.org/ns#" xmlns:rdf="http://www.w3.org/1999/02/22-rdf-syntax-ns#">
   <cc:Work>
    <dc:type rdf:resource="http://purl.org/dc/dcmitype/StillImage"/>
    <dc:date>2023-12-14T11:55:22.529120</dc:date>
    <dc:format>image/svg+xml</dc:format>
    <dc:creator>
     <cc:Agent>
      <dc:title>Matplotlib v3.5.1, https://matplotlib.org/</dc:title>
     </cc:Agent>
    </dc:creator>
   </cc:Work>
  </rdf:RDF>
 </metadata>
 <defs>
  <style type="text/css">*{stroke-linejoin: round; stroke-linecap: butt}</style>
 </defs>
 <g id="figure_1">
  <g id="patch_1">
   <path d="M 0 633.943878 
L 962.123375 633.943878 
L 962.123375 0 
L 0 0 
z
" style="fill: #ffffff"/>
  </g>
  <g id="axes_1">
   <g id="patch_2">
    <path d="M 52.079375 567.74175 
L 954.923375 567.74175 
L 954.923375 24.14175 
L 52.079375 24.14175 
z
" style="fill: #e5e5e5"/>
   </g>
   <g id="matplotlib.axis_1">
    <g id="xtick_1">
     <g id="line2d_1">
      <path d="M 74.840148 567.74175 
L 74.840148 24.14175 
" clip-path="url(#pda7efe87ef)" style="fill: none; stroke: #ffffff; stroke-width: 0.8; stroke-linecap: square"/>
     </g>
     <g id="line2d_2">
      <defs>
       <path id="ma98ec80dc4" d="M 0 0 
L 0 3.5 
" style="stroke: #555555; stroke-width: 0.8"/>
      </defs>
      <g>
       <use xlink:href="#ma98ec80dc4" x="74.840148" y="567.74175" style="fill: #555555; stroke: #555555; stroke-width: 0.8"/>
      </g>
     </g>
     <g id="text_1">
      <!-- 2022-12 -->
      <g style="fill: #555555" transform="translate(62.018866 609.659567)rotate(-45)scale(0.1 -0.1)">
       <defs>
        <path id="DejaVuSans-32" d="M 1228 531 
L 3431 531 
L 3431 0 
L 469 0 
L 469 531 
Q 828 903 1448 1529 
Q 2069 2156 2228 2338 
Q 2531 2678 2651 2914 
Q 2772 3150 2772 3378 
Q 2772 3750 2511 3984 
Q 2250 4219 1831 4219 
Q 1534 4219 1204 4116 
Q 875 4013 500 3803 
L 500 4441 
Q 881 4594 1212 4672 
Q 1544 4750 1819 4750 
Q 2544 4750 2975 4387 
Q 3406 4025 3406 3419 
Q 3406 3131 3298 2873 
Q 3191 2616 2906 2266 
Q 2828 2175 2409 1742 
Q 1991 1309 1228 531 
z
" transform="scale(0.015625)"/>
        <path id="DejaVuSans-30" d="M 2034 4250 
Q 1547 4250 1301 3770 
Q 1056 3291 1056 2328 
Q 1056 1369 1301 889 
Q 1547 409 2034 409 
Q 2525 409 2770 889 
Q 3016 1369 3016 2328 
Q 3016 3291 2770 3770 
Q 2525 4250 2034 4250 
z
M 2034 4750 
Q 2819 4750 3233 4129 
Q 3647 3509 3647 2328 
Q 3647 1150 3233 529 
Q 2819 -91 2034 -91 
Q 1250 -91 836 529 
Q 422 1150 422 2328 
Q 422 3509 836 4129 
Q 1250 4750 2034 4750 
z
" transform="scale(0.015625)"/>
        <path id="DejaVuSans-2d" d="M 313 2009 
L 1997 2009 
L 1997 1497 
L 313 1497 
L 313 2009 
z
" transform="scale(0.015625)"/>
        <path id="DejaVuSans-31" d="M 794 531 
L 1825 531 
L 1825 4091 
L 703 3866 
L 703 4441 
L 1819 4666 
L 2450 4666 
L 2450 531 
L 3481 531 
L 3481 0 
L 794 0 
L 794 531 
z
" transform="scale(0.015625)"/>
       </defs>
       <use xlink:href="#DejaVuSans-32"/>
       <use xlink:href="#DejaVuSans-30" x="63.623047"/>
       <use xlink:href="#DejaVuSans-32" x="127.246094"/>
       <use xlink:href="#DejaVuSans-32" x="190.869141"/>
       <use xlink:href="#DejaVuSans-2d" x="254.492188"/>
       <use xlink:href="#DejaVuSans-31" x="290.576172"/>
       <use xlink:href="#DejaVuSans-32" x="354.199219"/>
      </g>
     </g>
    </g>
    <g id="xtick_2">
     <g id="line2d_3">
      <path d="M 153.238367 567.74175 
L 153.238367 24.14175 
" clip-path="url(#pda7efe87ef)" style="fill: none; stroke: #ffffff; stroke-width: 0.8; stroke-linecap: square"/>
     </g>
     <g id="line2d_4">
      <g>
       <use xlink:href="#ma98ec80dc4" x="153.238367" y="567.74175" style="fill: #555555; stroke: #555555; stroke-width: 0.8"/>
      </g>
     </g>
     <g id="text_2">
      <!-- 2023-01 -->
      <g style="fill: #555555" transform="translate(140.417084 609.659567)rotate(-45)scale(0.1 -0.1)">
       <defs>
        <path id="DejaVuSans-33" d="M 2597 2516 
Q 3050 2419 3304 2112 
Q 3559 1806 3559 1356 
Q 3559 666 3084 287 
Q 2609 -91 1734 -91 
Q 1441 -91 1130 -33 
Q 819 25 488 141 
L 488 750 
Q 750 597 1062 519 
Q 1375 441 1716 441 
Q 2309 441 2620 675 
Q 2931 909 2931 1356 
Q 2931 1769 2642 2001 
Q 2353 2234 1838 2234 
L 1294 2234 
L 1294 2753 
L 1863 2753 
Q 2328 2753 2575 2939 
Q 2822 3125 2822 3475 
Q 2822 3834 2567 4026 
Q 2313 4219 1838 4219 
Q 1578 4219 1281 4162 
Q 984 4106 628 3988 
L 628 4550 
Q 988 4650 1302 4700 
Q 1616 4750 1894 4750 
Q 2613 4750 3031 4423 
Q 3450 4097 3450 3541 
Q 3450 3153 3228 2886 
Q 3006 2619 2597 2516 
z
" transform="scale(0.015625)"/>
       </defs>
       <use xlink:href="#DejaVuSans-32"/>
       <use xlink:href="#DejaVuSans-30" x="63.623047"/>
       <use xlink:href="#DejaVuSans-32" x="127.246094"/>
       <use xlink:href="#DejaVuSans-33" x="190.869141"/>
       <use xlink:href="#DejaVuSans-2d" x="254.492188"/>
       <use xlink:href="#DejaVuSans-30" x="290.576172"/>
       <use xlink:href="#DejaVuSans-31" x="354.199219"/>
      </g>
     </g>
    </g>
    <g id="xtick_3">
     <g id="line2d_5">
      <path d="M 231.636585 567.74175 
L 231.636585 24.14175 
" clip-path="url(#pda7efe87ef)" style="fill: none; stroke: #ffffff; stroke-width: 0.8; stroke-linecap: square"/>
     </g>
     <g id="line2d_6">
      <g>
       <use xlink:href="#ma98ec80dc4" x="231.636585" y="567.74175" style="fill: #555555; stroke: #555555; stroke-width: 0.8"/>
      </g>
     </g>
     <g id="text_3">
      <!-- 2023-02 -->
      <g style="fill: #555555" transform="translate(218.815303 609.659567)rotate(-45)scale(0.1 -0.1)">
       <use xlink:href="#DejaVuSans-32"/>
       <use xlink:href="#DejaVuSans-30" x="63.623047"/>
       <use xlink:href="#DejaVuSans-32" x="127.246094"/>
       <use xlink:href="#DejaVuSans-33" x="190.869141"/>
       <use xlink:href="#DejaVuSans-2d" x="254.492188"/>
       <use xlink:href="#DejaVuSans-30" x="290.576172"/>
       <use xlink:href="#DejaVuSans-32" x="354.199219"/>
      </g>
     </g>
    </g>
    <g id="xtick_4">
     <g id="line2d_7">
      <path d="M 302.447879 567.74175 
L 302.447879 24.14175 
" clip-path="url(#pda7efe87ef)" style="fill: none; stroke: #ffffff; stroke-width: 0.8; stroke-linecap: square"/>
     </g>
     <g id="line2d_8">
      <g>
       <use xlink:href="#ma98ec80dc4" x="302.447879" y="567.74175" style="fill: #555555; stroke: #555555; stroke-width: 0.8"/>
      </g>
     </g>
     <g id="text_4">
      <!-- 2023-03 -->
      <g style="fill: #555555" transform="translate(289.626597 609.659567)rotate(-45)scale(0.1 -0.1)">
       <use xlink:href="#DejaVuSans-32"/>
       <use xlink:href="#DejaVuSans-30" x="63.623047"/>
       <use xlink:href="#DejaVuSans-32" x="127.246094"/>
       <use xlink:href="#DejaVuSans-33" x="190.869141"/>
       <use xlink:href="#DejaVuSans-2d" x="254.492188"/>
       <use xlink:href="#DejaVuSans-30" x="290.576172"/>
       <use xlink:href="#DejaVuSans-33" x="354.199219"/>
      </g>
     </g>
    </g>
    <g id="xtick_5">
     <g id="line2d_9">
      <path d="M 380.846098 567.74175 
L 380.846098 24.14175 
" clip-path="url(#pda7efe87ef)" style="fill: none; stroke: #ffffff; stroke-width: 0.8; stroke-linecap: square"/>
     </g>
     <g id="line2d_10">
      <g>
       <use xlink:href="#ma98ec80dc4" x="380.846098" y="567.74175" style="fill: #555555; stroke: #555555; stroke-width: 0.8"/>
      </g>
     </g>
     <g id="text_5">
      <!-- 2023-04 -->
      <g style="fill: #555555" transform="translate(368.024815 609.659567)rotate(-45)scale(0.1 -0.1)">
       <defs>
        <path id="DejaVuSans-34" d="M 2419 4116 
L 825 1625 
L 2419 1625 
L 2419 4116 
z
M 2253 4666 
L 3047 4666 
L 3047 1625 
L 3713 1625 
L 3713 1100 
L 3047 1100 
L 3047 0 
L 2419 0 
L 2419 1100 
L 313 1100 
L 313 1709 
L 2253 4666 
z
" transform="scale(0.015625)"/>
       </defs>
       <use xlink:href="#DejaVuSans-32"/>
       <use xlink:href="#DejaVuSans-30" x="63.623047"/>
       <use xlink:href="#DejaVuSans-32" x="127.246094"/>
       <use xlink:href="#DejaVuSans-33" x="190.869141"/>
       <use xlink:href="#DejaVuSans-2d" x="254.492188"/>
       <use xlink:href="#DejaVuSans-30" x="290.576172"/>
       <use xlink:href="#DejaVuSans-34" x="354.199219"/>
      </g>
     </g>
    </g>
    <g id="xtick_6">
     <g id="line2d_11">
      <path d="M 456.715341 567.74175 
L 456.715341 24.14175 
" clip-path="url(#pda7efe87ef)" style="fill: none; stroke: #ffffff; stroke-width: 0.8; stroke-linecap: square"/>
     </g>
     <g id="line2d_12">
      <g>
       <use xlink:href="#ma98ec80dc4" x="456.715341" y="567.74175" style="fill: #555555; stroke: #555555; stroke-width: 0.8"/>
      </g>
     </g>
     <g id="text_6">
      <!-- 2023-05 -->
      <g style="fill: #555555" transform="translate(443.894059 609.659567)rotate(-45)scale(0.1 -0.1)">
       <defs>
        <path id="DejaVuSans-35" d="M 691 4666 
L 3169 4666 
L 3169 4134 
L 1269 4134 
L 1269 2991 
Q 1406 3038 1543 3061 
Q 1681 3084 1819 3084 
Q 2600 3084 3056 2656 
Q 3513 2228 3513 1497 
Q 3513 744 3044 326 
Q 2575 -91 1722 -91 
Q 1428 -91 1123 -41 
Q 819 9 494 109 
L 494 744 
Q 775 591 1075 516 
Q 1375 441 1709 441 
Q 2250 441 2565 725 
Q 2881 1009 2881 1497 
Q 2881 1984 2565 2268 
Q 2250 2553 1709 2553 
Q 1456 2553 1204 2497 
Q 953 2441 691 2322 
L 691 4666 
z
" transform="scale(0.015625)"/>
       </defs>
       <use xlink:href="#DejaVuSans-32"/>
       <use xlink:href="#DejaVuSans-30" x="63.623047"/>
       <use xlink:href="#DejaVuSans-32" x="127.246094"/>
       <use xlink:href="#DejaVuSans-33" x="190.869141"/>
       <use xlink:href="#DejaVuSans-2d" x="254.492188"/>
       <use xlink:href="#DejaVuSans-30" x="290.576172"/>
       <use xlink:href="#DejaVuSans-35" x="354.199219"/>
      </g>
     </g>
    </g>
    <g id="xtick_7">
     <g id="line2d_13">
      <path d="M 535.11356 567.74175 
L 535.11356 24.14175 
" clip-path="url(#pda7efe87ef)" style="fill: none; stroke: #ffffff; stroke-width: 0.8; stroke-linecap: square"/>
     </g>
     <g id="line2d_14">
      <g>
       <use xlink:href="#ma98ec80dc4" x="535.11356" y="567.74175" style="fill: #555555; stroke: #555555; stroke-width: 0.8"/>
      </g>
     </g>
     <g id="text_7">
      <!-- 2023-06 -->
      <g style="fill: #555555" transform="translate(522.292278 609.659567)rotate(-45)scale(0.1 -0.1)">
       <defs>
        <path id="DejaVuSans-36" d="M 2113 2584 
Q 1688 2584 1439 2293 
Q 1191 2003 1191 1497 
Q 1191 994 1439 701 
Q 1688 409 2113 409 
Q 2538 409 2786 701 
Q 3034 994 3034 1497 
Q 3034 2003 2786 2293 
Q 2538 2584 2113 2584 
z
M 3366 4563 
L 3366 3988 
Q 3128 4100 2886 4159 
Q 2644 4219 2406 4219 
Q 1781 4219 1451 3797 
Q 1122 3375 1075 2522 
Q 1259 2794 1537 2939 
Q 1816 3084 2150 3084 
Q 2853 3084 3261 2657 
Q 3669 2231 3669 1497 
Q 3669 778 3244 343 
Q 2819 -91 2113 -91 
Q 1303 -91 875 529 
Q 447 1150 447 2328 
Q 447 3434 972 4092 
Q 1497 4750 2381 4750 
Q 2619 4750 2861 4703 
Q 3103 4656 3366 4563 
z
" transform="scale(0.015625)"/>
       </defs>
       <use xlink:href="#DejaVuSans-32"/>
       <use xlink:href="#DejaVuSans-30" x="63.623047"/>
       <use xlink:href="#DejaVuSans-32" x="127.246094"/>
       <use xlink:href="#DejaVuSans-33" x="190.869141"/>
       <use xlink:href="#DejaVuSans-2d" x="254.492188"/>
       <use xlink:href="#DejaVuSans-30" x="290.576172"/>
       <use xlink:href="#DejaVuSans-36" x="354.199219"/>
      </g>
     </g>
    </g>
    <g id="xtick_8">
     <g id="line2d_15">
      <path d="M 610.982804 567.74175 
L 610.982804 24.14175 
" clip-path="url(#pda7efe87ef)" style="fill: none; stroke: #ffffff; stroke-width: 0.8; stroke-linecap: square"/>
     </g>
     <g id="line2d_16">
      <g>
       <use xlink:href="#ma98ec80dc4" x="610.982804" y="567.74175" style="fill: #555555; stroke: #555555; stroke-width: 0.8"/>
      </g>
     </g>
     <g id="text_8">
      <!-- 2023-07 -->
      <g style="fill: #555555" transform="translate(598.161521 609.659567)rotate(-45)scale(0.1 -0.1)">
       <defs>
        <path id="DejaVuSans-37" d="M 525 4666 
L 3525 4666 
L 3525 4397 
L 1831 0 
L 1172 0 
L 2766 4134 
L 525 4134 
L 525 4666 
z
" transform="scale(0.015625)"/>
       </defs>
       <use xlink:href="#DejaVuSans-32"/>
       <use xlink:href="#DejaVuSans-30" x="63.623047"/>
       <use xlink:href="#DejaVuSans-32" x="127.246094"/>
       <use xlink:href="#DejaVuSans-33" x="190.869141"/>
       <use xlink:href="#DejaVuSans-2d" x="254.492188"/>
       <use xlink:href="#DejaVuSans-30" x="290.576172"/>
       <use xlink:href="#DejaVuSans-37" x="354.199219"/>
      </g>
     </g>
    </g>
    <g id="xtick_9">
     <g id="line2d_17">
      <path d="M 689.381022 567.74175 
L 689.381022 24.14175 
" clip-path="url(#pda7efe87ef)" style="fill: none; stroke: #ffffff; stroke-width: 0.8; stroke-linecap: square"/>
     </g>
     <g id="line2d_18">
      <g>
       <use xlink:href="#ma98ec80dc4" x="689.381022" y="567.74175" style="fill: #555555; stroke: #555555; stroke-width: 0.8"/>
      </g>
     </g>
     <g id="text_9">
      <!-- 2023-08 -->
      <g style="fill: #555555" transform="translate(676.55974 609.659567)rotate(-45)scale(0.1 -0.1)">
       <defs>
        <path id="DejaVuSans-38" d="M 2034 2216 
Q 1584 2216 1326 1975 
Q 1069 1734 1069 1313 
Q 1069 891 1326 650 
Q 1584 409 2034 409 
Q 2484 409 2743 651 
Q 3003 894 3003 1313 
Q 3003 1734 2745 1975 
Q 2488 2216 2034 2216 
z
M 1403 2484 
Q 997 2584 770 2862 
Q 544 3141 544 3541 
Q 544 4100 942 4425 
Q 1341 4750 2034 4750 
Q 2731 4750 3128 4425 
Q 3525 4100 3525 3541 
Q 3525 3141 3298 2862 
Q 3072 2584 2669 2484 
Q 3125 2378 3379 2068 
Q 3634 1759 3634 1313 
Q 3634 634 3220 271 
Q 2806 -91 2034 -91 
Q 1263 -91 848 271 
Q 434 634 434 1313 
Q 434 1759 690 2068 
Q 947 2378 1403 2484 
z
M 1172 3481 
Q 1172 3119 1398 2916 
Q 1625 2713 2034 2713 
Q 2441 2713 2670 2916 
Q 2900 3119 2900 3481 
Q 2900 3844 2670 4047 
Q 2441 4250 2034 4250 
Q 1625 4250 1398 4047 
Q 1172 3844 1172 3481 
z
" transform="scale(0.015625)"/>
       </defs>
       <use xlink:href="#DejaVuSans-32"/>
       <use xlink:href="#DejaVuSans-30" x="63.623047"/>
       <use xlink:href="#DejaVuSans-32" x="127.246094"/>
       <use xlink:href="#DejaVuSans-33" x="190.869141"/>
       <use xlink:href="#DejaVuSans-2d" x="254.492188"/>
       <use xlink:href="#DejaVuSans-30" x="290.576172"/>
       <use xlink:href="#DejaVuSans-38" x="354.199219"/>
      </g>
     </g>
    </g>
    <g id="xtick_10">
     <g id="line2d_19">
      <path d="M 767.779241 567.74175 
L 767.779241 24.14175 
" clip-path="url(#pda7efe87ef)" style="fill: none; stroke: #ffffff; stroke-width: 0.8; stroke-linecap: square"/>
     </g>
     <g id="line2d_20">
      <g>
       <use xlink:href="#ma98ec80dc4" x="767.779241" y="567.74175" style="fill: #555555; stroke: #555555; stroke-width: 0.8"/>
      </g>
     </g>
     <g id="text_10">
      <!-- 2023-09 -->
      <g style="fill: #555555" transform="translate(754.957958 609.659567)rotate(-45)scale(0.1 -0.1)">
       <defs>
        <path id="DejaVuSans-39" d="M 703 97 
L 703 672 
Q 941 559 1184 500 
Q 1428 441 1663 441 
Q 2288 441 2617 861 
Q 2947 1281 2994 2138 
Q 2813 1869 2534 1725 
Q 2256 1581 1919 1581 
Q 1219 1581 811 2004 
Q 403 2428 403 3163 
Q 403 3881 828 4315 
Q 1253 4750 1959 4750 
Q 2769 4750 3195 4129 
Q 3622 3509 3622 2328 
Q 3622 1225 3098 567 
Q 2575 -91 1691 -91 
Q 1453 -91 1209 -44 
Q 966 3 703 97 
z
M 1959 2075 
Q 2384 2075 2632 2365 
Q 2881 2656 2881 3163 
Q 2881 3666 2632 3958 
Q 2384 4250 1959 4250 
Q 1534 4250 1286 3958 
Q 1038 3666 1038 3163 
Q 1038 2656 1286 2365 
Q 1534 2075 1959 2075 
z
" transform="scale(0.015625)"/>
       </defs>
       <use xlink:href="#DejaVuSans-32"/>
       <use xlink:href="#DejaVuSans-30" x="63.623047"/>
       <use xlink:href="#DejaVuSans-32" x="127.246094"/>
       <use xlink:href="#DejaVuSans-33" x="190.869141"/>
       <use xlink:href="#DejaVuSans-2d" x="254.492188"/>
       <use xlink:href="#DejaVuSans-30" x="290.576172"/>
       <use xlink:href="#DejaVuSans-39" x="354.199219"/>
      </g>
     </g>
    </g>
    <g id="xtick_11">
     <g id="line2d_21">
      <path d="M 843.648484 567.74175 
L 843.648484 24.14175 
" clip-path="url(#pda7efe87ef)" style="fill: none; stroke: #ffffff; stroke-width: 0.8; stroke-linecap: square"/>
     </g>
     <g id="line2d_22">
      <g>
       <use xlink:href="#ma98ec80dc4" x="843.648484" y="567.74175" style="fill: #555555; stroke: #555555; stroke-width: 0.8"/>
      </g>
     </g>
     <g id="text_11">
      <!-- 2023-10 -->
      <g style="fill: #555555" transform="translate(830.827202 609.659567)rotate(-45)scale(0.1 -0.1)">
       <use xlink:href="#DejaVuSans-32"/>
       <use xlink:href="#DejaVuSans-30" x="63.623047"/>
       <use xlink:href="#DejaVuSans-32" x="127.246094"/>
       <use xlink:href="#DejaVuSans-33" x="190.869141"/>
       <use xlink:href="#DejaVuSans-2d" x="254.492188"/>
       <use xlink:href="#DejaVuSans-31" x="290.576172"/>
       <use xlink:href="#DejaVuSans-30" x="354.199219"/>
      </g>
     </g>
    </g>
    <g id="xtick_12">
     <g id="line2d_23">
      <path d="M 922.046703 567.74175 
L 922.046703 24.14175 
" clip-path="url(#pda7efe87ef)" style="fill: none; stroke: #ffffff; stroke-width: 0.8; stroke-linecap: square"/>
     </g>
     <g id="line2d_24">
      <g>
       <use xlink:href="#ma98ec80dc4" x="922.046703" y="567.74175" style="fill: #555555; stroke: #555555; stroke-width: 0.8"/>
      </g>
     </g>
     <g id="text_12">
      <!-- 2023-11 -->
      <g style="fill: #555555" transform="translate(909.22542 609.659567)rotate(-45)scale(0.1 -0.1)">
       <use xlink:href="#DejaVuSans-32"/>
       <use xlink:href="#DejaVuSans-30" x="63.623047"/>
       <use xlink:href="#DejaVuSans-32" x="127.246094"/>
       <use xlink:href="#DejaVuSans-33" x="190.869141"/>
       <use xlink:href="#DejaVuSans-2d" x="254.492188"/>
       <use xlink:href="#DejaVuSans-31" x="290.576172"/>
       <use xlink:href="#DejaVuSans-31" x="354.199219"/>
      </g>
     </g>
    </g>
    <g id="text_13">
     <!-- Date -->
     <g style="fill: #555555" transform="translate(489.160438 624.248253)scale(0.12 -0.12)">
      <defs>
       <path id="DejaVuSans-44" d="M 1259 4147 
L 1259 519 
L 2022 519 
Q 2988 519 3436 956 
Q 3884 1394 3884 2338 
Q 3884 3275 3436 3711 
Q 2988 4147 2022 4147 
L 1259 4147 
z
M 628 4666 
L 1925 4666 
Q 3281 4666 3915 4102 
Q 4550 3538 4550 2338 
Q 4550 1131 3912 565 
Q 3275 0 1925 0 
L 628 0 
L 628 4666 
z
" transform="scale(0.015625)"/>
       <path id="DejaVuSans-61" d="M 2194 1759 
Q 1497 1759 1228 1600 
Q 959 1441 959 1056 
Q 959 750 1161 570 
Q 1363 391 1709 391 
Q 2188 391 2477 730 
Q 2766 1069 2766 1631 
L 2766 1759 
L 2194 1759 
z
M 3341 1997 
L 3341 0 
L 2766 0 
L 2766 531 
Q 2569 213 2275 61 
Q 1981 -91 1556 -91 
Q 1019 -91 701 211 
Q 384 513 384 1019 
Q 384 1609 779 1909 
Q 1175 2209 1959 2209 
L 2766 2209 
L 2766 2266 
Q 2766 2663 2505 2880 
Q 2244 3097 1772 3097 
Q 1472 3097 1187 3025 
Q 903 2953 641 2809 
L 641 3341 
Q 956 3463 1253 3523 
Q 1550 3584 1831 3584 
Q 2591 3584 2966 3190 
Q 3341 2797 3341 1997 
z
" transform="scale(0.015625)"/>
       <path id="DejaVuSans-74" d="M 1172 4494 
L 1172 3500 
L 2356 3500 
L 2356 3053 
L 1172 3053 
L 1172 1153 
Q 1172 725 1289 603 
Q 1406 481 1766 481 
L 2356 481 
L 2356 0 
L 1766 0 
Q 1100 0 847 248 
Q 594 497 594 1153 
L 594 3053 
L 172 3053 
L 172 3500 
L 594 3500 
L 594 4494 
L 1172 4494 
z
" transform="scale(0.015625)"/>
       <path id="DejaVuSans-65" d="M 3597 1894 
L 3597 1613 
L 953 1613 
Q 991 1019 1311 708 
Q 1631 397 2203 397 
Q 2534 397 2845 478 
Q 3156 559 3463 722 
L 3463 178 
Q 3153 47 2828 -22 
Q 2503 -91 2169 -91 
Q 1331 -91 842 396 
Q 353 884 353 1716 
Q 353 2575 817 3079 
Q 1281 3584 2069 3584 
Q 2775 3584 3186 3129 
Q 3597 2675 3597 1894 
z
M 3022 2063 
Q 3016 2534 2758 2815 
Q 2500 3097 2075 3097 
Q 1594 3097 1305 2825 
Q 1016 2553 972 2059 
L 3022 2063 
z
" transform="scale(0.015625)"/>
      </defs>
      <use xlink:href="#DejaVuSans-44"/>
      <use xlink:href="#DejaVuSans-61" x="77.001953"/>
      <use xlink:href="#DejaVuSans-74" x="138.28125"/>
      <use xlink:href="#DejaVuSans-65" x="177.490234"/>
     </g>
    </g>
   </g>
   <g id="matplotlib.axis_2">
    <g id="ytick_1">
     <g id="line2d_25">
      <path d="M 52.079375 567.74175 
L 954.923375 567.74175 
" clip-path="url(#pda7efe87ef)" style="fill: none; stroke: #ffffff; stroke-width: 0.8; stroke-linecap: square"/>
     </g>
     <g id="line2d_26">
      <defs>
       <path id="m88b113ad5f" d="M 0 0 
L -3.5 0 
" style="stroke: #555555; stroke-width: 0.8"/>
      </defs>
      <g>
       <use xlink:href="#m88b113ad5f" x="52.079375" y="567.74175" style="fill: #555555; stroke: #555555; stroke-width: 0.8"/>
      </g>
     </g>
     <g id="text_14">
      <!-- 0.00 -->
      <g style="fill: #555555" transform="translate(22.81375 571.540969)scale(0.1 -0.1)">
       <defs>
        <path id="DejaVuSans-2e" d="M 684 794 
L 1344 794 
L 1344 0 
L 684 0 
L 684 794 
z
" transform="scale(0.015625)"/>
       </defs>
       <use xlink:href="#DejaVuSans-30"/>
       <use xlink:href="#DejaVuSans-2e" x="63.623047"/>
       <use xlink:href="#DejaVuSans-30" x="95.410156"/>
       <use xlink:href="#DejaVuSans-30" x="159.033203"/>
      </g>
     </g>
    </g>
    <g id="ytick_2">
     <g id="line2d_27">
      <path d="M 52.079375 485.766936 
L 954.923375 485.766936 
" clip-path="url(#pda7efe87ef)" style="fill: none; stroke: #ffffff; stroke-width: 0.8; stroke-linecap: square"/>
     </g>
     <g id="line2d_28">
      <g>
       <use xlink:href="#m88b113ad5f" x="52.079375" y="485.766936" style="fill: #555555; stroke: #555555; stroke-width: 0.8"/>
      </g>
     </g>
     <g id="text_15">
      <!-- 0.05 -->
      <g style="fill: #555555" transform="translate(22.81375 489.566155)scale(0.1 -0.1)">
       <use xlink:href="#DejaVuSans-30"/>
       <use xlink:href="#DejaVuSans-2e" x="63.623047"/>
       <use xlink:href="#DejaVuSans-30" x="95.410156"/>
       <use xlink:href="#DejaVuSans-35" x="159.033203"/>
      </g>
     </g>
    </g>
    <g id="ytick_3">
     <g id="line2d_29">
      <path d="M 52.079375 403.792122 
L 954.923375 403.792122 
" clip-path="url(#pda7efe87ef)" style="fill: none; stroke: #ffffff; stroke-width: 0.8; stroke-linecap: square"/>
     </g>
     <g id="line2d_30">
      <g>
       <use xlink:href="#m88b113ad5f" x="52.079375" y="403.792122" style="fill: #555555; stroke: #555555; stroke-width: 0.8"/>
      </g>
     </g>
     <g id="text_16">
      <!-- 0.10 -->
      <g style="fill: #555555" transform="translate(22.81375 407.591341)scale(0.1 -0.1)">
       <use xlink:href="#DejaVuSans-30"/>
       <use xlink:href="#DejaVuSans-2e" x="63.623047"/>
       <use xlink:href="#DejaVuSans-31" x="95.410156"/>
       <use xlink:href="#DejaVuSans-30" x="159.033203"/>
      </g>
     </g>
    </g>
    <g id="ytick_4">
     <g id="line2d_31">
      <path d="M 52.079375 321.817308 
L 954.923375 321.817308 
" clip-path="url(#pda7efe87ef)" style="fill: none; stroke: #ffffff; stroke-width: 0.8; stroke-linecap: square"/>
     </g>
     <g id="line2d_32">
      <g>
       <use xlink:href="#m88b113ad5f" x="52.079375" y="321.817308" style="fill: #555555; stroke: #555555; stroke-width: 0.8"/>
      </g>
     </g>
     <g id="text_17">
      <!-- 0.15 -->
      <g style="fill: #555555" transform="translate(22.81375 325.616527)scale(0.1 -0.1)">
       <use xlink:href="#DejaVuSans-30"/>
       <use xlink:href="#DejaVuSans-2e" x="63.623047"/>
       <use xlink:href="#DejaVuSans-31" x="95.410156"/>
       <use xlink:href="#DejaVuSans-35" x="159.033203"/>
      </g>
     </g>
    </g>
    <g id="ytick_5">
     <g id="line2d_33">
      <path d="M 52.079375 239.842494 
L 954.923375 239.842494 
" clip-path="url(#pda7efe87ef)" style="fill: none; stroke: #ffffff; stroke-width: 0.8; stroke-linecap: square"/>
     </g>
     <g id="line2d_34">
      <g>
       <use xlink:href="#m88b113ad5f" x="52.079375" y="239.842494" style="fill: #555555; stroke: #555555; stroke-width: 0.8"/>
      </g>
     </g>
     <g id="text_18">
      <!-- 0.20 -->
      <g style="fill: #555555" transform="translate(22.81375 243.641713)scale(0.1 -0.1)">
       <use xlink:href="#DejaVuSans-30"/>
       <use xlink:href="#DejaVuSans-2e" x="63.623047"/>
       <use xlink:href="#DejaVuSans-32" x="95.410156"/>
       <use xlink:href="#DejaVuSans-30" x="159.033203"/>
      </g>
     </g>
    </g>
    <g id="ytick_6">
     <g id="line2d_35">
      <path d="M 52.079375 157.86768 
L 954.923375 157.86768 
" clip-path="url(#pda7efe87ef)" style="fill: none; stroke: #ffffff; stroke-width: 0.8; stroke-linecap: square"/>
     </g>
     <g id="line2d_36">
      <g>
       <use xlink:href="#m88b113ad5f" x="52.079375" y="157.86768" style="fill: #555555; stroke: #555555; stroke-width: 0.8"/>
      </g>
     </g>
     <g id="text_19">
      <!-- 0.25 -->
      <g style="fill: #555555" transform="translate(22.81375 161.666899)scale(0.1 -0.1)">
       <use xlink:href="#DejaVuSans-30"/>
       <use xlink:href="#DejaVuSans-2e" x="63.623047"/>
       <use xlink:href="#DejaVuSans-32" x="95.410156"/>
       <use xlink:href="#DejaVuSans-35" x="159.033203"/>
      </g>
     </g>
    </g>
    <g id="ytick_7">
     <g id="line2d_37">
      <path d="M 52.079375 75.892866 
L 954.923375 75.892866 
" clip-path="url(#pda7efe87ef)" style="fill: none; stroke: #ffffff; stroke-width: 0.8; stroke-linecap: square"/>
     </g>
     <g id="line2d_38">
      <g>
       <use xlink:href="#m88b113ad5f" x="52.079375" y="75.892866" style="fill: #555555; stroke: #555555; stroke-width: 0.8"/>
      </g>
     </g>
     <g id="text_20">
      <!-- 0.30 -->
      <g style="fill: #555555" transform="translate(22.81375 79.692085)scale(0.1 -0.1)">
       <use xlink:href="#DejaVuSans-30"/>
       <use xlink:href="#DejaVuSans-2e" x="63.623047"/>
       <use xlink:href="#DejaVuSans-33" x="95.410156"/>
       <use xlink:href="#DejaVuSans-30" x="159.033203"/>
      </g>
     </g>
    </g>
    <g id="text_21">
     <!-- Share -->
     <g style="fill: #555555" transform="translate(16.318125 313.253625)rotate(-90)scale(0.12 -0.12)">
      <defs>
       <path id="DejaVuSans-53" d="M 3425 4513 
L 3425 3897 
Q 3066 4069 2747 4153 
Q 2428 4238 2131 4238 
Q 1616 4238 1336 4038 
Q 1056 3838 1056 3469 
Q 1056 3159 1242 3001 
Q 1428 2844 1947 2747 
L 2328 2669 
Q 3034 2534 3370 2195 
Q 3706 1856 3706 1288 
Q 3706 609 3251 259 
Q 2797 -91 1919 -91 
Q 1588 -91 1214 -16 
Q 841 59 441 206 
L 441 856 
Q 825 641 1194 531 
Q 1563 422 1919 422 
Q 2459 422 2753 634 
Q 3047 847 3047 1241 
Q 3047 1584 2836 1778 
Q 2625 1972 2144 2069 
L 1759 2144 
Q 1053 2284 737 2584 
Q 422 2884 422 3419 
Q 422 4038 858 4394 
Q 1294 4750 2059 4750 
Q 2388 4750 2728 4690 
Q 3069 4631 3425 4513 
z
" transform="scale(0.015625)"/>
       <path id="DejaVuSans-68" d="M 3513 2113 
L 3513 0 
L 2938 0 
L 2938 2094 
Q 2938 2591 2744 2837 
Q 2550 3084 2163 3084 
Q 1697 3084 1428 2787 
Q 1159 2491 1159 1978 
L 1159 0 
L 581 0 
L 581 4863 
L 1159 4863 
L 1159 2956 
Q 1366 3272 1645 3428 
Q 1925 3584 2291 3584 
Q 2894 3584 3203 3211 
Q 3513 2838 3513 2113 
z
" transform="scale(0.015625)"/>
       <path id="DejaVuSans-72" d="M 2631 2963 
Q 2534 3019 2420 3045 
Q 2306 3072 2169 3072 
Q 1681 3072 1420 2755 
Q 1159 2438 1159 1844 
L 1159 0 
L 581 0 
L 581 3500 
L 1159 3500 
L 1159 2956 
Q 1341 3275 1631 3429 
Q 1922 3584 2338 3584 
Q 2397 3584 2469 3576 
Q 2541 3569 2628 3553 
L 2631 2963 
z
" transform="scale(0.015625)"/>
      </defs>
      <use xlink:href="#DejaVuSans-53"/>
      <use xlink:href="#DejaVuSans-68" x="63.476562"/>
      <use xlink:href="#DejaVuSans-61" x="126.855469"/>
      <use xlink:href="#DejaVuSans-72" x="188.134766"/>
      <use xlink:href="#DejaVuSans-65" x="226.998047"/>
     </g>
    </g>
   </g>
   <g id="line2d_39">
    <path d="M 52.079375 378.294648 
L 61.199011 377.286384 
L 70.318648 376.27812 
L 79.438284 375.269855 
L 88.55792 374.261591 
L 97.677557 373.253327 
L 106.797193 372.245063 
L 115.91683 371.236799 
L 125.036466 370.228535 
L 134.156102 369.220271 
L 143.275739 368.212007 
L 152.395375 367.203743 
L 161.515011 366.195478 
L 170.634648 365.187214 
L 179.754284 364.17895 
L 188.87392 363.170686 
L 197.993557 362.162422 
L 207.113193 361.154158 
L 216.23283 360.145894 
L 225.352466 359.13763 
L 234.472102 358.129365 
L 243.591739 357.121101 
L 252.711375 356.112837 
L 261.831011 355.104573 
L 270.950648 354.096309 
L 280.070284 353.088045 
L 289.18992 352.079781 
L 298.309557 351.071517 
L 307.429193 350.063253 
L 316.54883 349.054988 
L 325.668466 348.046724 
L 334.788102 347.03846 
L 343.907739 346.030196 
L 353.027375 345.021932 
L 362.147011 344.013668 
L 371.266648 343.005404 
L 380.386284 341.99714 
L 389.50592 340.988876 
L 398.625557 339.980611 
L 407.745193 338.972347 
L 416.86483 337.964083 
L 425.984466 336.955819 
L 435.104102 335.947555 
L 444.223739 334.939291 
L 453.343375 333.931027 
L 462.463011 332.922763 
L 471.582648 331.914498 
L 480.702284 330.906234 
L 489.82192 329.89797 
L 498.941557 328.889706 
L 508.061193 327.881442 
L 517.18083 326.873178 
L 526.300466 325.864914 
L 535.420102 324.85665 
L 544.539739 323.848386 
L 553.659375 322.840121 
L 562.779011 321.831857 
L 571.898648 320.823593 
L 581.018284 319.815329 
L 590.13792 318.807065 
L 599.257557 317.798801 
L 608.377193 316.790537 
L 617.49683 315.782273 
L 626.616466 314.774008 
L 635.736102 313.765744 
L 644.855739 312.75748 
L 653.975375 311.749216 
L 663.095011 310.740952 
L 672.214648 309.732688 
L 681.334284 308.724424 
L 690.45392 307.71616 
L 699.573557 306.707896 
L 708.693193 305.699631 
L 717.81283 304.691367 
L 726.932466 303.683103 
L 736.052102 302.674839 
L 745.171739 301.666575 
L 754.291375 300.658311 
L 763.411011 299.650047 
L 772.530648 298.641783 
L 781.650284 297.633519 
L 790.76992 296.625254 
L 799.889557 295.61699 
L 809.009193 294.608726 
L 818.12883 293.600462 
L 827.248466 292.592198 
L 836.368102 291.583934 
L 845.487739 290.57567 
L 854.607375 289.567406 
L 863.727011 288.559141 
L 872.846648 287.550877 
L 881.966284 286.542613 
L 891.08592 285.534349 
L 900.205557 284.526085 
L 909.325193 283.517821 
L 918.44483 282.509557 
L 927.564466 281.501293 
L 936.684102 280.493029 
L 945.803739 279.484764 
L 954.923375 278.4765 
" clip-path="url(#pda7efe87ef)" style="fill: none; stroke-dasharray: 1.5,2.475; stroke-dashoffset: 0; stroke: #4ac1fa; stroke-width: 1.5"/>
   </g>
   <g id="line2d_40">
    <path d="M 52.079375 96.243948 
L 61.199011 98.582683 
L 70.318648 100.921418 
L 79.438284 103.260152 
L 88.55792 105.598887 
L 97.677557 107.937621 
L 106.797193 110.276356 
L 115.91683 112.615091 
L 125.036466 114.953825 
L 134.156102 117.29256 
L 143.275739 119.631294 
L 152.395375 121.970029 
L 161.515011 124.308763 
L 170.634648 126.647498 
L 179.754284 128.986233 
L 188.87392 131.324967 
L 197.993557 133.663702 
L 207.113193 136.002436 
L 216.23283 138.341171 
L 225.352466 140.679906 
L 234.472102 143.01864 
L 243.591739 145.357375 
L 252.711375 147.696109 
L 261.831011 150.034844 
L 270.950648 152.373578 
L 280.070284 154.712313 
L 289.18992 157.051048 
L 298.309557 159.389782 
L 307.429193 161.728517 
L 316.54883 164.067251 
L 325.668466 166.405986 
L 334.788102 168.744721 
L 343.907739 171.083455 
L 353.027375 173.42219 
L 362.147011 175.760924 
L 371.266648 178.099659 
L 380.386284 180.438394 
L 389.50592 182.777128 
L 398.625557 185.115863 
L 407.745193 187.454597 
L 416.86483 189.793332 
L 425.984466 192.132066 
L 435.104102 194.470801 
L 444.223739 196.809536 
L 453.343375 199.14827 
L 462.463011 201.487005 
L 471.582648 203.825739 
L 480.702284 206.164474 
L 489.82192 208.503209 
L 498.941557 210.841943 
L 508.061193 213.180678 
L 517.18083 215.519412 
L 526.300466 217.858147 
L 535.420102 220.196881 
L 544.539739 222.535616 
L 553.659375 224.874351 
L 562.779011 227.213085 
L 571.898648 229.55182 
L 581.018284 231.890554 
L 590.13792 234.229289 
L 599.257557 236.568024 
L 608.377193 238.906758 
L 617.49683 241.245493 
L 626.616466 243.584227 
L 635.736102 245.922962 
L 644.855739 248.261696 
L 653.975375 250.600431 
L 663.095011 252.939166 
L 672.214648 255.2779 
L 681.334284 257.616635 
L 690.45392 259.955369 
L 699.573557 262.294104 
L 708.693193 264.632839 
L 717.81283 266.971573 
L 726.932466 269.310308 
L 736.052102 271.649042 
L 745.171739 273.987777 
L 754.291375 276.326511 
L 763.411011 278.665246 
L 772.530648 281.003981 
L 781.650284 283.342715 
L 790.76992 285.68145 
L 799.889557 288.020184 
L 809.009193 290.358919 
L 818.12883 292.697654 
L 827.248466 295.036388 
L 836.368102 297.375123 
L 845.487739 299.713857 
L 854.607375 302.052592 
L 863.727011 304.391326 
L 872.846648 306.730061 
L 881.966284 309.068796 
L 891.08592 311.40753 
L 900.205557 313.746265 
L 909.325193 316.084999 
L 918.44483 318.423734 
L 927.564466 320.762469 
L 936.684102 323.101203 
L 945.803739 325.439938 
L 954.923375 327.778672 
" clip-path="url(#pda7efe87ef)" style="fill: none; stroke-dasharray: 1.5,2.475; stroke-dashoffset: 0; stroke: #e9a942; stroke-width: 1.5"/>
   </g>
   <g id="line2d_41">
    <path d="M 52.079375 296.704274 
L 61.199011 297.094283 
L 70.318648 297.484292 
L 79.438284 297.874301 
L 88.55792 298.26431 
L 97.677557 298.654319 
L 106.797193 299.044328 
L 115.91683 299.434336 
L 125.036466 299.824345 
L 134.156102 300.214354 
L 143.275739 300.604363 
L 152.395375 300.994372 
L 161.515011 301.384381 
L 170.634648 301.77439 
L 179.754284 302.164398 
L 188.87392 302.554407 
L 197.993557 302.944416 
L 207.113193 303.334425 
L 216.23283 303.724434 
L 225.352466 304.114443 
L 234.472102 304.504452 
L 243.591739 304.89446 
L 252.711375 305.284469 
L 261.831011 305.674478 
L 270.950648 306.064487 
L 280.070284 306.454496 
L 289.18992 306.844505 
L 298.309557 307.234514 
L 307.429193 307.624523 
L 316.54883 308.014531 
L 325.668466 308.40454 
L 334.788102 308.794549 
L 343.907739 309.184558 
L 353.027375 309.574567 
L 362.147011 309.964576 
L 371.266648 310.354585 
L 380.386284 310.744593 
L 389.50592 311.134602 
L 398.625557 311.524611 
L 407.745193 311.91462 
L 416.86483 312.304629 
L 425.984466 312.694638 
L 435.104102 313.084647 
L 444.223739 313.474655 
L 453.343375 313.864664 
L 462.463011 314.254673 
L 471.582648 314.644682 
L 480.702284 315.034691 
L 489.82192 315.4247 
L 498.941557 315.814709 
L 508.061193 316.204717 
L 517.18083 316.594726 
L 526.300466 316.984735 
L 535.420102 317.374744 
L 544.539739 317.764753 
L 553.659375 318.154762 
L 562.779011 318.544771 
L 571.898648 318.934779 
L 581.018284 319.324788 
L 590.13792 319.714797 
L 599.257557 320.104806 
L 608.377193 320.494815 
L 617.49683 320.884824 
L 626.616466 321.274833 
L 635.736102 321.664842 
L 644.855739 322.05485 
L 653.975375 322.444859 
L 663.095011 322.834868 
L 672.214648 323.224877 
L 681.334284 323.614886 
L 690.45392 324.004895 
L 699.573557 324.394904 
L 708.693193 324.784912 
L 717.81283 325.174921 
L 726.932466 325.56493 
L 736.052102 325.954939 
L 745.171739 326.344948 
L 754.291375 326.734957 
L 763.411011 327.124966 
L 772.530648 327.514974 
L 781.650284 327.904983 
L 790.76992 328.294992 
L 799.889557 328.685001 
L 809.009193 329.07501 
L 818.12883 329.465019 
L 827.248466 329.855028 
L 836.368102 330.245036 
L 845.487739 330.635045 
L 854.607375 331.025054 
L 863.727011 331.415063 
L 872.846648 331.805072 
L 881.966284 332.195081 
L 891.08592 332.58509 
L 900.205557 332.975098 
L 909.325193 333.365107 
L 918.44483 333.755116 
L 927.564466 334.145125 
L 936.684102 334.535134 
L 945.803739 334.925143 
L 954.923375 335.315152 
" clip-path="url(#pda7efe87ef)" style="fill: none; stroke-dasharray: 1.5,2.475; stroke-dashoffset: 0; stroke: #9a5689; stroke-width: 1.5"/>
   </g>
   <g id="line2d_42">
    <path d="M 52.079375 511.244773 
L 61.199011 511.170637 
L 70.318648 511.096501 
L 79.438284 511.022365 
L 88.55792 510.948229 
L 97.677557 510.874093 
L 106.797193 510.799957 
L 115.91683 510.725821 
L 125.036466 510.651685 
L 134.156102 510.577548 
L 143.275739 510.503412 
L 152.395375 510.429276 
L 161.515011 510.35514 
L 170.634648 510.281004 
L 179.754284 510.206868 
L 188.87392 510.132732 
L 197.993557 510.058596 
L 207.113193 509.98446 
L 216.23283 509.910324 
L 225.352466 509.836188 
L 234.472102 509.762052 
L 243.591739 509.687916 
L 252.711375 509.61378 
L 261.831011 509.539643 
L 270.950648 509.465507 
L 280.070284 509.391371 
L 289.18992 509.317235 
L 298.309557 509.243099 
L 307.429193 509.168963 
L 316.54883 509.094827 
L 325.668466 509.020691 
L 334.788102 508.946555 
L 343.907739 508.872419 
L 353.027375 508.798283 
L 362.147011 508.724147 
L 371.266648 508.650011 
L 380.386284 508.575875 
L 389.50592 508.501738 
L 398.625557 508.427602 
L 407.745193 508.353466 
L 416.86483 508.27933 
L 425.984466 508.205194 
L 435.104102 508.131058 
L 444.223739 508.056922 
L 453.343375 507.982786 
L 462.463011 507.90865 
L 471.582648 507.834514 
L 480.702284 507.760378 
L 489.82192 507.686242 
L 498.941557 507.612106 
L 508.061193 507.53797 
L 517.18083 507.463833 
L 526.300466 507.389697 
L 535.420102 507.315561 
L 544.539739 507.241425 
L 553.659375 507.167289 
L 562.779011 507.093153 
L 571.898648 507.019017 
L 581.018284 506.944881 
L 590.13792 506.870745 
L 599.257557 506.796609 
L 608.377193 506.722473 
L 617.49683 506.648337 
L 626.616466 506.574201 
L 635.736102 506.500065 
L 644.855739 506.425928 
L 653.975375 506.351792 
L 663.095011 506.277656 
L 672.214648 506.20352 
L 681.334284 506.129384 
L 690.45392 506.055248 
L 699.573557 505.981112 
L 708.693193 505.906976 
L 717.81283 505.83284 
L 726.932466 505.758704 
L 736.052102 505.684568 
L 745.171739 505.610432 
L 754.291375 505.536296 
L 763.411011 505.46216 
L 772.530648 505.388023 
L 781.650284 505.313887 
L 790.76992 505.239751 
L 799.889557 505.165615 
L 809.009193 505.091479 
L 818.12883 505.017343 
L 827.248466 504.943207 
L 836.368102 504.869071 
L 845.487739 504.794935 
L 854.607375 504.720799 
L 863.727011 504.646663 
L 872.846648 504.572527 
L 881.966284 504.498391 
L 891.08592 504.424255 
L 900.205557 504.350118 
L 909.325193 504.275982 
L 918.44483 504.201846 
L 927.564466 504.12771 
L 936.684102 504.053574 
L 945.803739 503.979438 
L 954.923375 503.905302 
" clip-path="url(#pda7efe87ef)" style="fill: none; stroke-dasharray: 1.5,2.475; stroke-dashoffset: 0; stroke: #be503b; stroke-width: 1.5"/>
   </g>
   <g id="line2d_43">
    <path d="M 52.079375 240.871208 
L 61.199011 240.84487 
L 70.318648 240.818532 
L 79.438284 240.792194 
L 88.55792 240.765856 
L 97.677557 240.739518 
L 106.797193 240.71318 
L 115.91683 240.686843 
L 125.036466 240.660505 
L 134.156102 240.634167 
L 143.275739 240.607829 
L 152.395375 240.581491 
L 161.515011 240.555153 
L 170.634648 240.528815 
L 179.754284 240.502477 
L 188.87392 240.476139 
L 197.993557 240.449802 
L 207.113193 240.423464 
L 216.23283 240.397126 
L 225.352466 240.370788 
L 234.472102 240.34445 
L 243.591739 240.318112 
L 252.711375 240.291774 
L 261.831011 240.265436 
L 270.950648 240.239099 
L 280.070284 240.212761 
L 289.18992 240.186423 
L 298.309557 240.160085 
L 307.429193 240.133747 
L 316.54883 240.107409 
L 325.668466 240.081071 
L 334.788102 240.054733 
L 343.907739 240.028396 
L 353.027375 240.002058 
L 362.147011 239.97572 
L 371.266648 239.949382 
L 380.386284 239.923044 
L 389.50592 239.896706 
L 398.625557 239.870368 
L 407.745193 239.84403 
L 416.86483 239.817693 
L 425.984466 239.791355 
L 435.104102 239.765017 
L 444.223739 239.738679 
L 453.343375 239.712341 
L 462.463011 239.686003 
L 471.582648 239.659665 
L 480.702284 239.633327 
L 489.82192 239.60699 
L 498.941557 239.580652 
L 508.061193 239.554314 
L 517.18083 239.527976 
L 526.300466 239.501638 
L 535.420102 239.4753 
L 544.539739 239.448962 
L 553.659375 239.422624 
L 562.779011 239.396286 
L 571.898648 239.369949 
L 581.018284 239.343611 
L 590.13792 239.317273 
L 599.257557 239.290935 
L 608.377193 239.264597 
L 617.49683 239.238259 
L 626.616466 239.211921 
L 635.736102 239.185583 
L 644.855739 239.159246 
L 653.975375 239.132908 
L 663.095011 239.10657 
L 672.214648 239.080232 
L 681.334284 239.053894 
L 690.45392 239.027556 
L 699.573557 239.001218 
L 708.693193 238.97488 
L 717.81283 238.948543 
L 726.932466 238.922205 
L 736.052102 238.895867 
L 745.171739 238.869529 
L 754.291375 238.843191 
L 763.411011 238.816853 
L 772.530648 238.790515 
L 781.650284 238.764177 
L 790.76992 238.73784 
L 799.889557 238.711502 
L 809.009193 238.685164 
L 818.12883 238.658826 
L 827.248466 238.632488 
L 836.368102 238.60615 
L 845.487739 238.579812 
L 854.607375 238.553474 
L 863.727011 238.527137 
L 872.846648 238.500799 
L 881.966284 238.474461 
L 891.08592 238.448123 
L 900.205557 238.421785 
L 909.325193 238.395447 
L 918.44483 238.369109 
L 927.564466 238.342771 
L 936.684102 238.316434 
L 945.803739 238.290096 
L 954.923375 238.263758 
" clip-path="url(#pda7efe87ef)" style="fill: none; stroke-dasharray: 1.5,2.475; stroke-dashoffset: 0; stroke: #e2321d; stroke-width: 1.5"/>
   </g>
   <g id="line2d_44">
    <path d="M 52.079375 262.254419 
L 61.199011 260.732748 
L 70.318648 259.211078 
L 79.438284 257.689407 
L 88.55792 256.167736 
L 97.677557 254.646065 
L 106.797193 253.124394 
L 115.91683 251.602724 
L 125.036466 250.081053 
L 134.156102 248.559382 
L 143.275739 247.037711 
L 152.395375 245.516041 
L 161.515011 243.99437 
L 170.634648 242.472699 
L 179.754284 240.951028 
L 188.87392 239.429358 
L 197.993557 237.907687 
L 207.113193 236.386016 
L 216.23283 234.864345 
L 225.352466 233.342674 
L 234.472102 231.821004 
L 243.591739 230.299333 
L 252.711375 228.777662 
L 261.831011 227.255991 
L 270.950648 225.734321 
L 280.070284 224.21265 
L 289.18992 222.690979 
L 298.309557 221.169308 
L 307.429193 219.647638 
L 316.54883 218.125967 
L 325.668466 216.604296 
L 334.788102 215.082625 
L 343.907739 213.560954 
L 353.027375 212.039284 
L 362.147011 210.517613 
L 371.266648 208.995942 
L 380.386284 207.474271 
L 389.50592 205.952601 
L 398.625557 204.43093 
L 407.745193 202.909259 
L 416.86483 201.387588 
L 425.984466 199.865918 
L 435.104102 198.344247 
L 444.223739 196.822576 
L 453.343375 195.300905 
L 462.463011 193.779235 
L 471.582648 192.257564 
L 480.702284 190.735893 
L 489.82192 189.214222 
L 498.941557 187.692551 
L 508.061193 186.170881 
L 517.18083 184.64921 
L 526.300466 183.127539 
L 535.420102 181.605868 
L 544.539739 180.084198 
L 553.659375 178.562527 
L 562.779011 177.040856 
L 571.898648 175.519185 
L 581.018284 173.997515 
L 590.13792 172.475844 
L 599.257557 170.954173 
L 608.377193 169.432502 
L 617.49683 167.910831 
L 626.616466 166.389161 
L 635.736102 164.86749 
L 644.855739 163.345819 
L 653.975375 161.824148 
L 663.095011 160.302478 
L 672.214648 158.780807 
L 681.334284 157.259136 
L 690.45392 155.737465 
L 699.573557 154.215795 
L 708.693193 152.694124 
L 717.81283 151.172453 
L 726.932466 149.650782 
L 736.052102 148.129111 
L 745.171739 146.607441 
L 754.291375 145.08577 
L 763.411011 143.564099 
L 772.530648 142.042428 
L 781.650284 140.520758 
L 790.76992 138.999087 
L 799.889557 137.477416 
L 809.009193 135.955745 
L 818.12883 134.434075 
L 827.248466 132.912404 
L 836.368102 131.390733 
L 845.487739 129.869062 
L 854.607375 128.347391 
L 863.727011 126.825721 
L 872.846648 125.30405 
L 881.966284 123.782379 
L 891.08592 122.260708 
L 900.205557 120.739038 
L 909.325193 119.217367 
L 918.44483 117.695696 
L 927.564466 116.174025 
L 936.684102 114.652355 
L 945.803739 113.130684 
L 954.923375 111.609013 
" clip-path="url(#pda7efe87ef)" style="fill: none; stroke-dasharray: 1.5,2.475; stroke-dashoffset: 0; stroke: #48b585; stroke-width: 1.5"/>
   </g>
   <g id="line2d_45">
    <path d="M 52.079375 378.387403 
L 69.782199 366.025209 
L 87.485022 365.558228 
L 105.187846 362.734101 
L 122.890669 363.075077 
L 140.593493 369.640073 
L 158.296316 375.342122 
L 175.99914 375.911583 
L 193.701963 369.666725 
L 211.404787 371.88678 
L 229.10761 375.755637 
L 246.810434 373.954694 
L 264.513257 361.763049 
L 282.216081 369.687677 
L 299.918904 369.687955 
L 317.621728 352.550464 
L 335.324551 342.078295 
L 353.027375 328.254367 
L 370.730199 351.144447 
L 388.433022 347.433867 
L 441.541493 335.125367 
L 459.244316 356.489012 
L 476.94714 341.473442 
L 494.649963 329.219091 
L 512.352787 314.609373 
L 530.05561 306.844051 
L 547.758434 295.02213 
L 565.461257 287.46462 
L 583.164081 301.471312 
L 600.866904 303.132143 
L 618.569728 304.507367 
L 636.272551 294.410347 
L 653.975375 296.334115 
L 671.678199 310.398327 
L 689.381022 309.246708 
L 707.083846 292.469379 
L 724.786669 309.016732 
L 742.489493 301.535606 
L 760.192316 301.869826 
L 777.89514 293.280922 
L 795.597963 286.809318 
L 813.300787 293.22778 
L 831.00361 294.026769 
L 884.112081 298.687377 
L 901.814904 303.311031 
L 919.517728 290.548929 
L 937.220551 290.704035 
L 954.923375 309.451248 
" clip-path="url(#pda7efe87ef)" style="fill: none; stroke: #4ac1fa; stroke-width: 1.5; stroke-linecap: square"/>
   </g>
   <g id="line2d_46">
    <path d="M 52.079375 91.777249 
L 69.782199 156.847232 
L 87.485022 128.878508 
L 105.187846 170.402443 
L 122.890669 152.011418 
L 140.593493 112.078754 
L 158.296316 113.999931 
L 175.99914 108.580372 
L 193.701963 137.05293 
L 211.404787 108.418469 
L 229.10761 103.463794 
L 246.810434 100.923204 
L 264.513257 136.404782 
L 282.216081 86.413536 
L 299.918904 47.478163 
L 317.621728 146.846633 
L 335.324551 155.417201 
L 353.027375 231.732228 
L 370.730199 108.897319 
L 388.433022 150.512674 
L 441.541493 177.337088 
L 459.244316 104.84372 
L 476.94714 149.027327 
L 494.649963 218.085401 
L 512.352787 242.729719 
L 530.05561 259.915129 
L 547.758434 294.659782 
L 565.461257 336.437607 
L 583.164081 289.533296 
L 600.866904 275.025963 
L 618.569728 284.480403 
L 636.272551 319.062889 
L 653.975375 267.505915 
L 671.678199 257.646492 
L 689.381022 285.872028 
L 707.083846 326.259733 
L 724.786669 324.168518 
L 742.489493 279.451556 
L 760.192316 246.152778 
L 777.89514 282.873026 
L 795.597963 333.844836 
L 813.300787 307.887288 
L 831.00361 292.342415 
L 884.112081 268.394597 
L 901.814904 232.482151 
L 919.517728 271.28633 
L 937.220551 307.044083 
L 954.923375 257.859095 
" clip-path="url(#pda7efe87ef)" style="fill: none; stroke: #e9a942; stroke-width: 1.5; stroke-linecap: square"/>
   </g>
   <g id="line2d_47">
    <path d="M 52.079375 288.916663 
L 69.782199 280.920836 
L 87.485022 283.113953 
L 105.187846 272.58656 
L 122.890669 274.14354 
L 140.593493 292.605536 
L 158.296316 299.406479 
L 175.99914 297.358693 
L 193.701963 285.611623 
L 211.404787 298.16674 
L 229.10761 300.702996 
L 246.810434 314.138271 
L 264.513257 313.517409 
L 282.216081 328.63231 
L 299.918904 340.768846 
L 317.621728 323.470249 
L 335.324551 319.579051 
L 353.027375 314.568078 
L 370.730199 341.986624 
L 388.433022 335.182891 
L 441.541493 331.715295 
L 459.244316 346.415561 
L 476.94714 320.552974 
L 494.649963 289.304675 
L 512.352787 321.529778 
L 530.05561 318.263582 
L 547.758434 309.404324 
L 565.461257 307.047192 
L 583.164081 322.705141 
L 600.866904 322.338883 
L 618.569728 328.878295 
L 636.272551 323.082153 
L 653.975375 329.846875 
L 671.678199 330.998306 
L 689.381022 322.094611 
L 707.083846 312.654 
L 724.786669 298.671097 
L 742.489493 323.950909 
L 760.192316 337.44762 
L 777.89514 328.457316 
L 795.597963 320.010251 
L 813.300787 330.388392 
L 831.00361 328.974668 
L 884.112081 326.629524 
L 901.814904 322.857562 
L 919.517728 316.466837 
L 937.220551 330.705053 
L 954.923375 338.985723 
" clip-path="url(#pda7efe87ef)" style="fill: none; stroke: #9a5689; stroke-width: 1.5; stroke-linecap: square"/>
   </g>
   <g id="line2d_48">
    <path d="M 52.079375 513.388548 
L 69.782199 509.447887 
L 87.485022 509.305673 
L 105.187846 507.327573 
L 122.890669 510.950598 
L 140.593493 513.166966 
L 158.296316 513.808394 
L 175.99914 513.663615 
L 193.701963 512.627498 
L 211.404787 512.382639 
L 229.10761 514.206429 
L 246.810434 512.868941 
L 264.513257 510.487444 
L 282.216081 512.000493 
L 299.918904 513.566385 
L 317.621728 508.476098 
L 335.324551 507.163551 
L 353.027375 504.598434 
L 370.730199 511.160899 
L 388.433022 508.836819 
L 441.541493 506.863513 
L 459.244316 509.855507 
L 476.94714 507.028944 
L 494.649963 508.27353 
L 512.352787 505.43444 
L 530.05561 504.150503 
L 547.758434 500.723932 
L 565.461257 500.287993 
L 583.164081 503.386484 
L 600.866904 502.796779 
L 618.569728 504.78246 
L 636.272551 502.530506 
L 653.975375 502.531243 
L 671.678199 504.752894 
L 689.381022 503.334339 
L 707.083846 501.58936 
L 724.786669 502.691683 
L 742.489493 505.390829 
L 760.192316 504.211205 
L 777.89514 504.34599 
L 795.597963 501.939662 
L 813.300787 504.762403 
L 831.00361 505.999016 
L 884.112081 508.98973 
L 901.814904 510.616688 
L 919.517728 509.40166 
L 937.220551 509.160802 
L 954.923375 512.652158 
" clip-path="url(#pda7efe87ef)" style="fill: none; stroke: #be503b; stroke-width: 1.5; stroke-linecap: square"/>
   </g>
   <g id="line2d_49">
    <path d="M 52.079375 263.461941 
L 69.782199 249.693013 
L 87.485022 274.100489 
L 105.187846 251.495865 
L 122.890669 252.363589 
L 140.593493 252.614333 
L 158.296316 240.392696 
L 175.99914 246.665678 
L 193.701963 233.378269 
L 211.404787 239.214447 
L 229.10761 244.935205 
L 246.810434 246.674841 
L 264.513257 238.044422 
L 282.216081 250.952468 
L 299.918904 260.31098 
L 317.621728 234.699371 
L 335.324551 249.521425 
L 353.027375 209.964182 
L 370.730199 240.429007 
L 388.433022 231.208508 
L 441.541493 226.826079 
L 459.244316 252.268435 
L 476.94714 266.897475 
L 494.649963 232.519496 
L 512.352787 214.936417 
L 530.05561 212.464959 
L 547.758434 233.348212 
L 565.461257 224.921808 
L 583.164081 204.239336 
L 600.866904 203.400387 
L 618.569728 197.300197 
L 636.272551 188.302349 
L 653.975375 233.499073 
L 671.678199 215.223268 
L 689.381022 219.213153 
L 707.083846 223.869757 
L 724.786669 198.552524 
L 742.489493 239.961242 
L 760.192316 254.797114 
L 777.89514 241.036181 
L 795.597963 241.007012 
L 813.300787 250.355961 
L 831.00361 253.059925 
L 884.112081 266.290273 
L 901.814904 280.096574 
L 919.517728 272.24589 
L 937.220551 259.945454 
L 954.923375 284.07368 
" clip-path="url(#pda7efe87ef)" style="fill: none; stroke: #e2321d; stroke-width: 1.5; stroke-linecap: square"/>
   </g>
   <g id="line2d_50">
    <path d="M 52.079375 251.340794 
L 69.782199 225.668875 
L 87.485022 227.842153 
L 105.187846 222.679922 
L 122.890669 235.042517 
L 140.593493 245.927057 
L 158.296316 242.379806 
L 175.99914 243.4491 
L 193.701963 248.039719 
L 211.404787 256.69987 
L 229.10761 245.962545 
L 246.810434 237.69248 
L 264.513257 225.999148 
L 282.216081 238.353678 
L 299.918904 255.775547 
L 317.621728 223.750758 
L 335.324551 216.642384 
L 353.027375 202.491473 
L 370.730199 234.528875 
L 388.433022 215.123694 
L 441.541493 211.438754 
L 459.244316 217.994667 
L 476.94714 203.551815 
L 494.649963 211.478423 
L 512.352787 191.00745 
L 530.05561 188.458224 
L 547.758434 157.847766 
L 565.461257 136.326098 
L 583.164081 169.998094 
L 600.866904 184.899894 
L 618.569728 172.238309 
L 636.272551 166.628769 
L 653.975375 163.106238 
L 671.678199 171.683343 
L 689.381022 152.469436 
L 707.083846 136.445903 
L 724.786669 160.282778 
L 742.489493 142.521051 
L 760.192316 148.71595 
L 777.89514 144.462162 
L 795.597963 111.397204 
L 813.300787 107.735225 
L 831.00361 120.484186 
L 884.112081 126.105278 
L 901.814904 144.915226 
L 919.517728 134.785248 
L 937.220551 97.745257 
L 954.923375 91.224175 
" clip-path="url(#pda7efe87ef)" style="fill: none; stroke: #48b585; stroke-width: 6; stroke-linecap: square"/>
   </g>
   <g id="patch_3">
    <path d="M 52.079375 567.74175 
L 52.079375 24.14175 
" style="fill: none; stroke: #ffffff; stroke-linejoin: miter; stroke-linecap: square"/>
   </g>
   <g id="patch_4">
    <path d="M 954.923375 567.74175 
L 954.923375 24.14175 
" style="fill: none; stroke: #ffffff; stroke-linejoin: miter; stroke-linecap: square"/>
   </g>
   <g id="patch_5">
    <path d="M 52.079375 567.74175 
L 954.923375 567.74175 
" style="fill: none; stroke: #ffffff; stroke-linejoin: miter; stroke-linecap: square"/>
   </g>
   <g id="patch_6">
    <path d="M 52.079375 24.14175 
L 954.923375 24.14175 
" style="fill: none; stroke: #ffffff; stroke-linejoin: miter; stroke-linecap: square"/>
   </g>
   <g id="text_22">
    <!-- Enterprise Linux 8 and 9 Instances by Distribution Share (System Age &gt; 1 Week) -->
    <g transform="translate(52.079375 18.14175)scale(0.144 -0.144)">
     <defs>
      <path id="DejaVuSans-45" d="M 628 4666 
L 3578 4666 
L 3578 4134 
L 1259 4134 
L 1259 2753 
L 3481 2753 
L 3481 2222 
L 1259 2222 
L 1259 531 
L 3634 531 
L 3634 0 
L 628 0 
L 628 4666 
z
" transform="scale(0.015625)"/>
      <path id="DejaVuSans-6e" d="M 3513 2113 
L 3513 0 
L 2938 0 
L 2938 2094 
Q 2938 2591 2744 2837 
Q 2550 3084 2163 3084 
Q 1697 3084 1428 2787 
Q 1159 2491 1159 1978 
L 1159 0 
L 581 0 
L 581 3500 
L 1159 3500 
L 1159 2956 
Q 1366 3272 1645 3428 
Q 1925 3584 2291 3584 
Q 2894 3584 3203 3211 
Q 3513 2838 3513 2113 
z
" transform="scale(0.015625)"/>
      <path id="DejaVuSans-70" d="M 1159 525 
L 1159 -1331 
L 581 -1331 
L 581 3500 
L 1159 3500 
L 1159 2969 
Q 1341 3281 1617 3432 
Q 1894 3584 2278 3584 
Q 2916 3584 3314 3078 
Q 3713 2572 3713 1747 
Q 3713 922 3314 415 
Q 2916 -91 2278 -91 
Q 1894 -91 1617 61 
Q 1341 213 1159 525 
z
M 3116 1747 
Q 3116 2381 2855 2742 
Q 2594 3103 2138 3103 
Q 1681 3103 1420 2742 
Q 1159 2381 1159 1747 
Q 1159 1113 1420 752 
Q 1681 391 2138 391 
Q 2594 391 2855 752 
Q 3116 1113 3116 1747 
z
" transform="scale(0.015625)"/>
      <path id="DejaVuSans-69" d="M 603 3500 
L 1178 3500 
L 1178 0 
L 603 0 
L 603 3500 
z
M 603 4863 
L 1178 4863 
L 1178 4134 
L 603 4134 
L 603 4863 
z
" transform="scale(0.015625)"/>
      <path id="DejaVuSans-73" d="M 2834 3397 
L 2834 2853 
Q 2591 2978 2328 3040 
Q 2066 3103 1784 3103 
Q 1356 3103 1142 2972 
Q 928 2841 928 2578 
Q 928 2378 1081 2264 
Q 1234 2150 1697 2047 
L 1894 2003 
Q 2506 1872 2764 1633 
Q 3022 1394 3022 966 
Q 3022 478 2636 193 
Q 2250 -91 1575 -91 
Q 1294 -91 989 -36 
Q 684 19 347 128 
L 347 722 
Q 666 556 975 473 
Q 1284 391 1588 391 
Q 1994 391 2212 530 
Q 2431 669 2431 922 
Q 2431 1156 2273 1281 
Q 2116 1406 1581 1522 
L 1381 1569 
Q 847 1681 609 1914 
Q 372 2147 372 2553 
Q 372 3047 722 3315 
Q 1072 3584 1716 3584 
Q 2034 3584 2315 3537 
Q 2597 3491 2834 3397 
z
" transform="scale(0.015625)"/>
      <path id="DejaVuSans-20" transform="scale(0.015625)"/>
      <path id="DejaVuSans-4c" d="M 628 4666 
L 1259 4666 
L 1259 531 
L 3531 531 
L 3531 0 
L 628 0 
L 628 4666 
z
" transform="scale(0.015625)"/>
      <path id="DejaVuSans-75" d="M 544 1381 
L 544 3500 
L 1119 3500 
L 1119 1403 
Q 1119 906 1312 657 
Q 1506 409 1894 409 
Q 2359 409 2629 706 
Q 2900 1003 2900 1516 
L 2900 3500 
L 3475 3500 
L 3475 0 
L 2900 0 
L 2900 538 
Q 2691 219 2414 64 
Q 2138 -91 1772 -91 
Q 1169 -91 856 284 
Q 544 659 544 1381 
z
M 1991 3584 
L 1991 3584 
z
" transform="scale(0.015625)"/>
      <path id="DejaVuSans-78" d="M 3513 3500 
L 2247 1797 
L 3578 0 
L 2900 0 
L 1881 1375 
L 863 0 
L 184 0 
L 1544 1831 
L 300 3500 
L 978 3500 
L 1906 2253 
L 2834 3500 
L 3513 3500 
z
" transform="scale(0.015625)"/>
      <path id="DejaVuSans-64" d="M 2906 2969 
L 2906 4863 
L 3481 4863 
L 3481 0 
L 2906 0 
L 2906 525 
Q 2725 213 2448 61 
Q 2172 -91 1784 -91 
Q 1150 -91 751 415 
Q 353 922 353 1747 
Q 353 2572 751 3078 
Q 1150 3584 1784 3584 
Q 2172 3584 2448 3432 
Q 2725 3281 2906 2969 
z
M 947 1747 
Q 947 1113 1208 752 
Q 1469 391 1925 391 
Q 2381 391 2643 752 
Q 2906 1113 2906 1747 
Q 2906 2381 2643 2742 
Q 2381 3103 1925 3103 
Q 1469 3103 1208 2742 
Q 947 2381 947 1747 
z
" transform="scale(0.015625)"/>
      <path id="DejaVuSans-49" d="M 628 4666 
L 1259 4666 
L 1259 0 
L 628 0 
L 628 4666 
z
" transform="scale(0.015625)"/>
      <path id="DejaVuSans-63" d="M 3122 3366 
L 3122 2828 
Q 2878 2963 2633 3030 
Q 2388 3097 2138 3097 
Q 1578 3097 1268 2742 
Q 959 2388 959 1747 
Q 959 1106 1268 751 
Q 1578 397 2138 397 
Q 2388 397 2633 464 
Q 2878 531 3122 666 
L 3122 134 
Q 2881 22 2623 -34 
Q 2366 -91 2075 -91 
Q 1284 -91 818 406 
Q 353 903 353 1747 
Q 353 2603 823 3093 
Q 1294 3584 2113 3584 
Q 2378 3584 2631 3529 
Q 2884 3475 3122 3366 
z
" transform="scale(0.015625)"/>
      <path id="DejaVuSans-62" d="M 3116 1747 
Q 3116 2381 2855 2742 
Q 2594 3103 2138 3103 
Q 1681 3103 1420 2742 
Q 1159 2381 1159 1747 
Q 1159 1113 1420 752 
Q 1681 391 2138 391 
Q 2594 391 2855 752 
Q 3116 1113 3116 1747 
z
M 1159 2969 
Q 1341 3281 1617 3432 
Q 1894 3584 2278 3584 
Q 2916 3584 3314 3078 
Q 3713 2572 3713 1747 
Q 3713 922 3314 415 
Q 2916 -91 2278 -91 
Q 1894 -91 1617 61 
Q 1341 213 1159 525 
L 1159 0 
L 581 0 
L 581 4863 
L 1159 4863 
L 1159 2969 
z
" transform="scale(0.015625)"/>
      <path id="DejaVuSans-79" d="M 2059 -325 
Q 1816 -950 1584 -1140 
Q 1353 -1331 966 -1331 
L 506 -1331 
L 506 -850 
L 844 -850 
Q 1081 -850 1212 -737 
Q 1344 -625 1503 -206 
L 1606 56 
L 191 3500 
L 800 3500 
L 1894 763 
L 2988 3500 
L 3597 3500 
L 2059 -325 
z
" transform="scale(0.015625)"/>
      <path id="DejaVuSans-6f" d="M 1959 3097 
Q 1497 3097 1228 2736 
Q 959 2375 959 1747 
Q 959 1119 1226 758 
Q 1494 397 1959 397 
Q 2419 397 2687 759 
Q 2956 1122 2956 1747 
Q 2956 2369 2687 2733 
Q 2419 3097 1959 3097 
z
M 1959 3584 
Q 2709 3584 3137 3096 
Q 3566 2609 3566 1747 
Q 3566 888 3137 398 
Q 2709 -91 1959 -91 
Q 1206 -91 779 398 
Q 353 888 353 1747 
Q 353 2609 779 3096 
Q 1206 3584 1959 3584 
z
" transform="scale(0.015625)"/>
      <path id="DejaVuSans-28" d="M 1984 4856 
Q 1566 4138 1362 3434 
Q 1159 2731 1159 2009 
Q 1159 1288 1364 580 
Q 1569 -128 1984 -844 
L 1484 -844 
Q 1016 -109 783 600 
Q 550 1309 550 2009 
Q 550 2706 781 3412 
Q 1013 4119 1484 4856 
L 1984 4856 
z
" transform="scale(0.015625)"/>
      <path id="DejaVuSans-6d" d="M 3328 2828 
Q 3544 3216 3844 3400 
Q 4144 3584 4550 3584 
Q 5097 3584 5394 3201 
Q 5691 2819 5691 2113 
L 5691 0 
L 5113 0 
L 5113 2094 
Q 5113 2597 4934 2840 
Q 4756 3084 4391 3084 
Q 3944 3084 3684 2787 
Q 3425 2491 3425 1978 
L 3425 0 
L 2847 0 
L 2847 2094 
Q 2847 2600 2669 2842 
Q 2491 3084 2119 3084 
Q 1678 3084 1418 2786 
Q 1159 2488 1159 1978 
L 1159 0 
L 581 0 
L 581 3500 
L 1159 3500 
L 1159 2956 
Q 1356 3278 1631 3431 
Q 1906 3584 2284 3584 
Q 2666 3584 2933 3390 
Q 3200 3197 3328 2828 
z
" transform="scale(0.015625)"/>
      <path id="DejaVuSans-41" d="M 2188 4044 
L 1331 1722 
L 3047 1722 
L 2188 4044 
z
M 1831 4666 
L 2547 4666 
L 4325 0 
L 3669 0 
L 3244 1197 
L 1141 1197 
L 716 0 
L 50 0 
L 1831 4666 
z
" transform="scale(0.015625)"/>
      <path id="DejaVuSans-67" d="M 2906 1791 
Q 2906 2416 2648 2759 
Q 2391 3103 1925 3103 
Q 1463 3103 1205 2759 
Q 947 2416 947 1791 
Q 947 1169 1205 825 
Q 1463 481 1925 481 
Q 2391 481 2648 825 
Q 2906 1169 2906 1791 
z
M 3481 434 
Q 3481 -459 3084 -895 
Q 2688 -1331 1869 -1331 
Q 1566 -1331 1297 -1286 
Q 1028 -1241 775 -1147 
L 775 -588 
Q 1028 -725 1275 -790 
Q 1522 -856 1778 -856 
Q 2344 -856 2625 -561 
Q 2906 -266 2906 331 
L 2906 616 
Q 2728 306 2450 153 
Q 2172 0 1784 0 
Q 1141 0 747 490 
Q 353 981 353 1791 
Q 353 2603 747 3093 
Q 1141 3584 1784 3584 
Q 2172 3584 2450 3431 
Q 2728 3278 2906 2969 
L 2906 3500 
L 3481 3500 
L 3481 434 
z
" transform="scale(0.015625)"/>
      <path id="DejaVuSans-3e" d="M 678 3150 
L 678 3719 
L 4684 2266 
L 4684 1747 
L 678 294 
L 678 863 
L 3897 2003 
L 678 3150 
z
" transform="scale(0.015625)"/>
      <path id="DejaVuSans-57" d="M 213 4666 
L 850 4666 
L 1831 722 
L 2809 4666 
L 3519 4666 
L 4500 722 
L 5478 4666 
L 6119 4666 
L 4947 0 
L 4153 0 
L 3169 4050 
L 2175 0 
L 1381 0 
L 213 4666 
z
" transform="scale(0.015625)"/>
      <path id="DejaVuSans-6b" d="M 581 4863 
L 1159 4863 
L 1159 1991 
L 2875 3500 
L 3609 3500 
L 1753 1863 
L 3688 0 
L 2938 0 
L 1159 1709 
L 1159 0 
L 581 0 
L 581 4863 
z
" transform="scale(0.015625)"/>
      <path id="DejaVuSans-29" d="M 513 4856 
L 1013 4856 
Q 1481 4119 1714 3412 
Q 1947 2706 1947 2009 
Q 1947 1309 1714 600 
Q 1481 -109 1013 -844 
L 513 -844 
Q 928 -128 1133 580 
Q 1338 1288 1338 2009 
Q 1338 2731 1133 3434 
Q 928 4138 513 4856 
z
" transform="scale(0.015625)"/>
     </defs>
     <use xlink:href="#DejaVuSans-45"/>
     <use xlink:href="#DejaVuSans-6e" x="63.183594"/>
     <use xlink:href="#DejaVuSans-74" x="126.5625"/>
     <use xlink:href="#DejaVuSans-65" x="165.771484"/>
     <use xlink:href="#DejaVuSans-72" x="227.294922"/>
     <use xlink:href="#DejaVuSans-70" x="268.408203"/>
     <use xlink:href="#DejaVuSans-72" x="331.884766"/>
     <use xlink:href="#DejaVuSans-69" x="372.998047"/>
     <use xlink:href="#DejaVuSans-73" x="400.78125"/>
     <use xlink:href="#DejaVuSans-65" x="452.880859"/>
     <use xlink:href="#DejaVuSans-20" x="514.404297"/>
     <use xlink:href="#DejaVuSans-4c" x="546.191406"/>
     <use xlink:href="#DejaVuSans-69" x="601.904297"/>
     <use xlink:href="#DejaVuSans-6e" x="629.6875"/>
     <use xlink:href="#DejaVuSans-75" x="693.066406"/>
     <use xlink:href="#DejaVuSans-78" x="756.445312"/>
     <use xlink:href="#DejaVuSans-20" x="815.625"/>
     <use xlink:href="#DejaVuSans-38" x="847.412109"/>
     <use xlink:href="#DejaVuSans-20" x="911.035156"/>
     <use xlink:href="#DejaVuSans-61" x="942.822266"/>
     <use xlink:href="#DejaVuSans-6e" x="1004.101562"/>
     <use xlink:href="#DejaVuSans-64" x="1067.480469"/>
     <use xlink:href="#DejaVuSans-20" x="1130.957031"/>
     <use xlink:href="#DejaVuSans-39" x="1162.744141"/>
     <use xlink:href="#DejaVuSans-20" x="1226.367188"/>
     <use xlink:href="#DejaVuSans-49" x="1258.154297"/>
     <use xlink:href="#DejaVuSans-6e" x="1287.646484"/>
     <use xlink:href="#DejaVuSans-73" x="1351.025391"/>
     <use xlink:href="#DejaVuSans-74" x="1403.125"/>
     <use xlink:href="#DejaVuSans-61" x="1442.333984"/>
     <use xlink:href="#DejaVuSans-6e" x="1503.613281"/>
     <use xlink:href="#DejaVuSans-63" x="1566.992188"/>
     <use xlink:href="#DejaVuSans-65" x="1621.972656"/>
     <use xlink:href="#DejaVuSans-73" x="1683.496094"/>
     <use xlink:href="#DejaVuSans-20" x="1735.595703"/>
     <use xlink:href="#DejaVuSans-62" x="1767.382812"/>
     <use xlink:href="#DejaVuSans-79" x="1830.859375"/>
     <use xlink:href="#DejaVuSans-20" x="1890.039062"/>
     <use xlink:href="#DejaVuSans-44" x="1921.826172"/>
     <use xlink:href="#DejaVuSans-69" x="1998.828125"/>
     <use xlink:href="#DejaVuSans-73" x="2026.611328"/>
     <use xlink:href="#DejaVuSans-74" x="2078.710938"/>
     <use xlink:href="#DejaVuSans-72" x="2117.919922"/>
     <use xlink:href="#DejaVuSans-69" x="2159.033203"/>
     <use xlink:href="#DejaVuSans-62" x="2186.816406"/>
     <use xlink:href="#DejaVuSans-75" x="2250.292969"/>
     <use xlink:href="#DejaVuSans-74" x="2313.671875"/>
     <use xlink:href="#DejaVuSans-69" x="2352.880859"/>
     <use xlink:href="#DejaVuSans-6f" x="2380.664062"/>
     <use xlink:href="#DejaVuSans-6e" x="2441.845703"/>
     <use xlink:href="#DejaVuSans-20" x="2505.224609"/>
     <use xlink:href="#DejaVuSans-53" x="2537.011719"/>
     <use xlink:href="#DejaVuSans-68" x="2600.488281"/>
     <use xlink:href="#DejaVuSans-61" x="2663.867188"/>
     <use xlink:href="#DejaVuSans-72" x="2725.146484"/>
     <use xlink:href="#DejaVuSans-65" x="2764.009766"/>
     <use xlink:href="#DejaVuSans-20" x="2825.533203"/>
     <use xlink:href="#DejaVuSans-28" x="2857.320312"/>
     <use xlink:href="#DejaVuSans-53" x="2896.333984"/>
     <use xlink:href="#DejaVuSans-79" x="2959.810547"/>
     <use xlink:href="#DejaVuSans-73" x="3018.990234"/>
     <use xlink:href="#DejaVuSans-74" x="3071.089844"/>
     <use xlink:href="#DejaVuSans-65" x="3110.298828"/>
     <use xlink:href="#DejaVuSans-6d" x="3171.822266"/>
     <use xlink:href="#DejaVuSans-20" x="3269.234375"/>
     <use xlink:href="#DejaVuSans-41" x="3301.021484"/>
     <use xlink:href="#DejaVuSans-67" x="3369.429688"/>
     <use xlink:href="#DejaVuSans-65" x="3432.90625"/>
     <use xlink:href="#DejaVuSans-20" x="3494.429688"/>
     <use xlink:href="#DejaVuSans-3e" x="3526.216797"/>
     <use xlink:href="#DejaVuSans-20" x="3610.005859"/>
     <use xlink:href="#DejaVuSans-31" x="3641.792969"/>
     <use xlink:href="#DejaVuSans-20" x="3705.416016"/>
     <use xlink:href="#DejaVuSans-57" x="3737.203125"/>
     <use xlink:href="#DejaVuSans-65" x="3830.205078"/>
     <use xlink:href="#DejaVuSans-65" x="3891.728516"/>
     <use xlink:href="#DejaVuSans-6b" x="3953.251953"/>
     <use xlink:href="#DejaVuSans-29" x="4011.162109"/>
    </g>
   </g>
   <g id="text_23">
    <!-- 2023-12-14 11:55 UTC -->
    <g transform="translate(792.041375 18.14175)scale(0.144 -0.144)">
     <defs>
      <path id="DejaVuSans-3a" d="M 750 794 
L 1409 794 
L 1409 0 
L 750 0 
L 750 794 
z
M 750 3309 
L 1409 3309 
L 1409 2516 
L 750 2516 
L 750 3309 
z
" transform="scale(0.015625)"/>
      <path id="DejaVuSans-55" d="M 556 4666 
L 1191 4666 
L 1191 1831 
Q 1191 1081 1462 751 
Q 1734 422 2344 422 
Q 2950 422 3222 751 
Q 3494 1081 3494 1831 
L 3494 4666 
L 4128 4666 
L 4128 1753 
Q 4128 841 3676 375 
Q 3225 -91 2344 -91 
Q 1459 -91 1007 375 
Q 556 841 556 1753 
L 556 4666 
z
" transform="scale(0.015625)"/>
      <path id="DejaVuSans-54" d="M -19 4666 
L 3928 4666 
L 3928 4134 
L 2272 4134 
L 2272 0 
L 1638 0 
L 1638 4134 
L -19 4134 
L -19 4666 
z
" transform="scale(0.015625)"/>
      <path id="DejaVuSans-43" d="M 4122 4306 
L 4122 3641 
Q 3803 3938 3442 4084 
Q 3081 4231 2675 4231 
Q 1875 4231 1450 3742 
Q 1025 3253 1025 2328 
Q 1025 1406 1450 917 
Q 1875 428 2675 428 
Q 3081 428 3442 575 
Q 3803 722 4122 1019 
L 4122 359 
Q 3791 134 3420 21 
Q 3050 -91 2638 -91 
Q 1578 -91 968 557 
Q 359 1206 359 2328 
Q 359 3453 968 4101 
Q 1578 4750 2638 4750 
Q 3056 4750 3426 4639 
Q 3797 4528 4122 4306 
z
" transform="scale(0.015625)"/>
     </defs>
     <use xlink:href="#DejaVuSans-32"/>
     <use xlink:href="#DejaVuSans-30" x="63.623047"/>
     <use xlink:href="#DejaVuSans-32" x="127.246094"/>
     <use xlink:href="#DejaVuSans-33" x="190.869141"/>
     <use xlink:href="#DejaVuSans-2d" x="254.492188"/>
     <use xlink:href="#DejaVuSans-31" x="290.576172"/>
     <use xlink:href="#DejaVuSans-32" x="354.199219"/>
     <use xlink:href="#DejaVuSans-2d" x="417.822266"/>
     <use xlink:href="#DejaVuSans-31" x="453.90625"/>
     <use xlink:href="#DejaVuSans-34" x="517.529297"/>
     <use xlink:href="#DejaVuSans-20" x="581.152344"/>
     <use xlink:href="#DejaVuSans-31" x="612.939453"/>
     <use xlink:href="#DejaVuSans-31" x="676.5625"/>
     <use xlink:href="#DejaVuSans-3a" x="740.185547"/>
     <use xlink:href="#DejaVuSans-35" x="773.876953"/>
     <use xlink:href="#DejaVuSans-35" x="837.5"/>
     <use xlink:href="#DejaVuSans-20" x="901.123047"/>
     <use xlink:href="#DejaVuSans-55" x="932.910156"/>
     <use xlink:href="#DejaVuSans-54" x="1006.103516"/>
     <use xlink:href="#DejaVuSans-43" x="1061.3125"/>
    </g>
   </g>
   <g id="legend_1">
    <g id="patch_7">
     <path d="M 449.017 134.888625 
L 557.98575 134.888625 
Q 559.98575 134.888625 559.98575 132.888625 
L 559.98575 31.14175 
Q 559.98575 29.14175 557.98575 29.14175 
L 449.017 29.14175 
Q 447.017 29.14175 447.017 31.14175 
L 447.017 132.888625 
Q 447.017 134.888625 449.017 134.888625 
z
" style="fill: #e5e5e5; opacity: 0.8; stroke: #cccccc; stroke-width: 0.5; stroke-linejoin: miter"/>
    </g>
    <g id="text_24">
     <!-- Distribution -->
     <g transform="translate(474.332625 40.740187)scale(0.1 -0.1)">
      <use xlink:href="#DejaVuSans-44"/>
      <use xlink:href="#DejaVuSans-69" x="77.001953"/>
      <use xlink:href="#DejaVuSans-73" x="104.785156"/>
      <use xlink:href="#DejaVuSans-74" x="156.884766"/>
      <use xlink:href="#DejaVuSans-72" x="196.09375"/>
      <use xlink:href="#DejaVuSans-69" x="237.207031"/>
      <use xlink:href="#DejaVuSans-62" x="264.990234"/>
      <use xlink:href="#DejaVuSans-75" x="328.466797"/>
      <use xlink:href="#DejaVuSans-74" x="391.845703"/>
      <use xlink:href="#DejaVuSans-69" x="431.054688"/>
      <use xlink:href="#DejaVuSans-6f" x="458.837891"/>
      <use xlink:href="#DejaVuSans-6e" x="520.019531"/>
     </g>
    </g>
    <g id="line2d_51">
     <path d="M 451.017 51.918312 
L 461.017 51.918312 
L 471.017 51.918312 
" style="fill: none; stroke: #4ac1fa; stroke-width: 1.5; stroke-linecap: square"/>
    </g>
    <g id="text_25">
     <!-- AlmaLinux -->
     <g transform="translate(479.017 55.418312)scale(0.1 -0.1)">
      <defs>
       <path id="DejaVuSans-6c" d="M 603 4863 
L 1178 4863 
L 1178 0 
L 603 0 
L 603 4863 
z
" transform="scale(0.015625)"/>
      </defs>
      <use xlink:href="#DejaVuSans-41"/>
      <use xlink:href="#DejaVuSans-6c" x="68.408203"/>
      <use xlink:href="#DejaVuSans-6d" x="96.191406"/>
      <use xlink:href="#DejaVuSans-61" x="193.603516"/>
      <use xlink:href="#DejaVuSans-4c" x="254.882812"/>
      <use xlink:href="#DejaVuSans-69" x="310.595703"/>
      <use xlink:href="#DejaVuSans-6e" x="338.378906"/>
      <use xlink:href="#DejaVuSans-75" x="401.757812"/>
      <use xlink:href="#DejaVuSans-78" x="465.136719"/>
     </g>
    </g>
    <g id="line2d_52">
     <path d="M 451.017 66.596437 
L 461.017 66.596437 
L 471.017 66.596437 
" style="fill: none; stroke: #e9a942; stroke-width: 1.5; stroke-linecap: square"/>
    </g>
    <g id="text_26">
     <!-- CentOS Legacy -->
     <g transform="translate(479.017 70.096437)scale(0.1 -0.1)">
      <defs>
       <path id="DejaVuSans-4f" d="M 2522 4238 
Q 1834 4238 1429 3725 
Q 1025 3213 1025 2328 
Q 1025 1447 1429 934 
Q 1834 422 2522 422 
Q 3209 422 3611 934 
Q 4013 1447 4013 2328 
Q 4013 3213 3611 3725 
Q 3209 4238 2522 4238 
z
M 2522 4750 
Q 3503 4750 4090 4092 
Q 4678 3434 4678 2328 
Q 4678 1225 4090 567 
Q 3503 -91 2522 -91 
Q 1538 -91 948 565 
Q 359 1222 359 2328 
Q 359 3434 948 4092 
Q 1538 4750 2522 4750 
z
" transform="scale(0.015625)"/>
      </defs>
      <use xlink:href="#DejaVuSans-43"/>
      <use xlink:href="#DejaVuSans-65" x="69.824219"/>
      <use xlink:href="#DejaVuSans-6e" x="131.347656"/>
      <use xlink:href="#DejaVuSans-74" x="194.726562"/>
      <use xlink:href="#DejaVuSans-4f" x="233.935547"/>
      <use xlink:href="#DejaVuSans-53" x="312.646484"/>
      <use xlink:href="#DejaVuSans-20" x="376.123047"/>
      <use xlink:href="#DejaVuSans-4c" x="407.910156"/>
      <use xlink:href="#DejaVuSans-65" x="461.873047"/>
      <use xlink:href="#DejaVuSans-67" x="523.396484"/>
      <use xlink:href="#DejaVuSans-61" x="586.873047"/>
      <use xlink:href="#DejaVuSans-63" x="648.152344"/>
      <use xlink:href="#DejaVuSans-79" x="703.132812"/>
     </g>
    </g>
    <g id="line2d_53">
     <path d="M 451.017 81.274563 
L 461.017 81.274563 
L 471.017 81.274563 
" style="fill: none; stroke: #9a5689; stroke-width: 1.5; stroke-linecap: square"/>
    </g>
    <g id="text_27">
     <!-- CentOS Stream -->
     <g transform="translate(479.017 84.774563)scale(0.1 -0.1)">
      <use xlink:href="#DejaVuSans-43"/>
      <use xlink:href="#DejaVuSans-65" x="69.824219"/>
      <use xlink:href="#DejaVuSans-6e" x="131.347656"/>
      <use xlink:href="#DejaVuSans-74" x="194.726562"/>
      <use xlink:href="#DejaVuSans-4f" x="233.935547"/>
      <use xlink:href="#DejaVuSans-53" x="312.646484"/>
      <use xlink:href="#DejaVuSans-20" x="376.123047"/>
      <use xlink:href="#DejaVuSans-53" x="407.910156"/>
      <use xlink:href="#DejaVuSans-74" x="471.386719"/>
      <use xlink:href="#DejaVuSans-72" x="510.595703"/>
      <use xlink:href="#DejaVuSans-65" x="549.458984"/>
      <use xlink:href="#DejaVuSans-61" x="610.982422"/>
      <use xlink:href="#DejaVuSans-6d" x="672.261719"/>
     </g>
    </g>
    <g id="line2d_54">
     <path d="M 451.017 95.952687 
L 461.017 95.952687 
L 471.017 95.952687 
" style="fill: none; stroke: #be503b; stroke-width: 1.5; stroke-linecap: square"/>
    </g>
    <g id="text_28">
     <!-- Oracle -->
     <g transform="translate(479.017 99.452687)scale(0.1 -0.1)">
      <use xlink:href="#DejaVuSans-4f"/>
      <use xlink:href="#DejaVuSans-72" x="78.710938"/>
      <use xlink:href="#DejaVuSans-61" x="119.824219"/>
      <use xlink:href="#DejaVuSans-63" x="181.103516"/>
      <use xlink:href="#DejaVuSans-6c" x="236.083984"/>
      <use xlink:href="#DejaVuSans-65" x="263.867188"/>
     </g>
    </g>
    <g id="line2d_55">
     <path d="M 451.017 110.630812 
L 461.017 110.630812 
L 471.017 110.630812 
" style="fill: none; stroke: #e2321d; stroke-width: 1.5; stroke-linecap: square"/>
    </g>
    <g id="text_29">
     <!-- RHEL -->
     <g transform="translate(479.017 114.130812)scale(0.1 -0.1)">
      <defs>
       <path id="DejaVuSans-52" d="M 2841 2188 
Q 3044 2119 3236 1894 
Q 3428 1669 3622 1275 
L 4263 0 
L 3584 0 
L 2988 1197 
Q 2756 1666 2539 1819 
Q 2322 1972 1947 1972 
L 1259 1972 
L 1259 0 
L 628 0 
L 628 4666 
L 2053 4666 
Q 2853 4666 3247 4331 
Q 3641 3997 3641 3322 
Q 3641 2881 3436 2590 
Q 3231 2300 2841 2188 
z
M 1259 4147 
L 1259 2491 
L 2053 2491 
Q 2509 2491 2742 2702 
Q 2975 2913 2975 3322 
Q 2975 3731 2742 3939 
Q 2509 4147 2053 4147 
L 1259 4147 
z
" transform="scale(0.015625)"/>
       <path id="DejaVuSans-48" d="M 628 4666 
L 1259 4666 
L 1259 2753 
L 3553 2753 
L 3553 4666 
L 4184 4666 
L 4184 0 
L 3553 0 
L 3553 2222 
L 1259 2222 
L 1259 0 
L 628 0 
L 628 4666 
z
" transform="scale(0.015625)"/>
      </defs>
      <use xlink:href="#DejaVuSans-52"/>
      <use xlink:href="#DejaVuSans-48" x="69.482422"/>
      <use xlink:href="#DejaVuSans-45" x="144.677734"/>
      <use xlink:href="#DejaVuSans-4c" x="207.861328"/>
     </g>
    </g>
    <g id="line2d_56">
     <path d="M 451.017 125.308937 
L 461.017 125.308937 
L 471.017 125.308937 
" style="fill: none; stroke: #48b585; stroke-width: 6; stroke-linecap: square"/>
    </g>
    <g id="text_30">
     <!-- Rocky Linux -->
     <g transform="translate(479.017 128.808937)scale(0.1 -0.1)">
      <use xlink:href="#DejaVuSans-52"/>
      <use xlink:href="#DejaVuSans-6f" x="64.982422"/>
      <use xlink:href="#DejaVuSans-63" x="126.164062"/>
      <use xlink:href="#DejaVuSans-6b" x="181.144531"/>
      <use xlink:href="#DejaVuSans-79" x="235.429688"/>
      <use xlink:href="#DejaVuSans-20" x="294.609375"/>
      <use xlink:href="#DejaVuSans-4c" x="326.396484"/>
      <use xlink:href="#DejaVuSans-69" x="382.109375"/>
      <use xlink:href="#DejaVuSans-6e" x="409.892578"/>
      <use xlink:href="#DejaVuSans-75" x="473.271484"/>
      <use xlink:href="#DejaVuSans-78" x="536.650391"/>
     </g>
    </g>
   </g>
  </g>
 </g>
 <defs>
  <clipPath id="pda7efe87ef">
   <rect x="52.079375" y="24.14175" width="902.844" height="543.6"/>
  </clipPath>
 </defs>
</svg>
