<?xml version="1.0" encoding="utf-8" standalone="no"?>
<!DOCTYPE svg PUBLIC "-//W3C//DTD SVG 1.1//EN"
  "http://www.w3.org/Graphics/SVG/1.1/DTD/svg11.dtd">
<svg xmlns:xlink="http://www.w3.org/1999/xlink" width="974.2765pt" height="644.743878pt" viewBox="0 0 974.2765 644.743878" xmlns="http://www.w3.org/2000/svg" version="1.1">
 <metadata>
  <rdf:RDF xmlns:dc="http://purl.org/dc/elements/1.1/" xmlns:cc="http://creativecommons.org/ns#" xmlns:rdf="http://www.w3.org/1999/02/22-rdf-syntax-ns#">
   <cc:Work>
    <dc:type rdf:resource="http://purl.org/dc/dcmitype/StillImage"/>
    <dc:date>2026-03-05T12:04:04.760600</dc:date>
    <dc:format>image/svg+xml</dc:format>
    <dc:creator>
     <cc:Agent>
      <dc:title>Matplotlib v3.6.3, https://matplotlib.org/</dc:title>
     </cc:Agent>
    </dc:creator>
   </cc:Work>
  </rdf:RDF>
 </metadata>
 <defs>
  <style type="text/css">*{stroke-linejoin: round; stroke-linecap: butt}</style>
 </defs>
 <g id="figure_1">
  <g id="patch_1">
   <path d="M 0 644.743878 
L 974.2765 644.743878 
L 974.2765 0 
L 0 0 
z
" style="fill: #ffffff"/>
  </g>
  <g id="axes_1">
   <g id="patch_2">
    <path d="M 64.2325 578.54175 
L 967.0765 578.54175 
L 967.0765 24.14175 
L 64.2325 24.14175 
z
" style="fill: #e5e5e5"/>
   </g>
   <g id="matplotlib.axis_1">
    <g id="xtick_1">
     <g id="line2d_1">
      <path d="M 70.871059 578.54175 
L 70.871059 24.14175 
" clip-path="url(#pab3f2a9b2a)" style="fill: none; stroke: #ffffff; stroke-width: 0.8; stroke-linecap: square"/>
     </g>
     <g id="line2d_2">
      <defs>
       <path id="m693b9d3827" d="M 0 0 
L 0 3.5 
" style="stroke: #555555; stroke-width: 0.8"/>
      </defs>
      <g>
       <use xlink:href="#m693b9d3827" x="70.871059" y="578.54175" style="fill: #555555; stroke: #555555; stroke-width: 0.8"/>
      </g>
     </g>
     <g id="text_1">
      <!-- 2020-12 -->
      <g style="fill: #555555" transform="translate(58.049777 620.459567) rotate(-45) scale(0.1 -0.1)">
       <defs>
        <path id="DejaVuSans-32" d="M 1228 531 
L 3431 531 
L 3431 0 
L 469 0 
L 469 531 
Q 828 903 1448 1529 
Q 2069 2156 2228 2338 
Q 2531 2678 2651 2914 
Q 2772 3150 2772 3378 
Q 2772 3750 2511 3984 
Q 2250 4219 1831 4219 
Q 1534 4219 1204 4116 
Q 875 4013 500 3803 
L 500 4441 
Q 881 4594 1212 4672 
Q 1544 4750 1819 4750 
Q 2544 4750 2975 4387 
Q 3406 4025 3406 3419 
Q 3406 3131 3298 2873 
Q 3191 2616 2906 2266 
Q 2828 2175 2409 1742 
Q 1991 1309 1228 531 
z
" transform="scale(0.015625)"/>
        <path id="DejaVuSans-30" d="M 2034 4250 
Q 1547 4250 1301 3770 
Q 1056 3291 1056 2328 
Q 1056 1369 1301 889 
Q 1547 409 2034 409 
Q 2525 409 2770 889 
Q 3016 1369 3016 2328 
Q 3016 3291 2770 3770 
Q 2525 4250 2034 4250 
z
M 2034 4750 
Q 2819 4750 3233 4129 
Q 3647 3509 3647 2328 
Q 3647 1150 3233 529 
Q 2819 -91 2034 -91 
Q 1250 -91 836 529 
Q 422 1150 422 2328 
Q 422 3509 836 4129 
Q 1250 4750 2034 4750 
z
" transform="scale(0.015625)"/>
        <path id="DejaVuSans-2d" d="M 313 2009 
L 1997 2009 
L 1997 1497 
L 313 1497 
L 313 2009 
z
" transform="scale(0.015625)"/>
        <path id="DejaVuSans-31" d="M 794 531 
L 1825 531 
L 1825 4091 
L 703 3866 
L 703 4441 
L 1819 4666 
L 2450 4666 
L 2450 531 
L 3481 531 
L 3481 0 
L 794 0 
L 794 531 
z
" transform="scale(0.015625)"/>
       </defs>
       <use xlink:href="#DejaVuSans-32"/>
       <use xlink:href="#DejaVuSans-30" x="63.623047"/>
       <use xlink:href="#DejaVuSans-32" x="127.246094"/>
       <use xlink:href="#DejaVuSans-30" x="190.869141"/>
       <use xlink:href="#DejaVuSans-2d" x="254.492188"/>
       <use xlink:href="#DejaVuSans-31" x="290.576172"/>
       <use xlink:href="#DejaVuSans-32" x="354.199219"/>
      </g>
     </g>
    </g>
    <g id="xtick_2">
     <g id="line2d_3">
      <path d="M 113.547508 578.54175 
L 113.547508 24.14175 
" clip-path="url(#pab3f2a9b2a)" style="fill: none; stroke: #ffffff; stroke-width: 0.8; stroke-linecap: square"/>
     </g>
     <g id="line2d_4">
      <g>
       <use xlink:href="#m693b9d3827" x="113.547508" y="578.54175" style="fill: #555555; stroke: #555555; stroke-width: 0.8"/>
      </g>
     </g>
     <g id="text_2">
      <!-- 2021-03 -->
      <g style="fill: #555555" transform="translate(100.726226 620.459567) rotate(-45) scale(0.1 -0.1)">
       <defs>
        <path id="DejaVuSans-33" d="M 2597 2516 
Q 3050 2419 3304 2112 
Q 3559 1806 3559 1356 
Q 3559 666 3084 287 
Q 2609 -91 1734 -91 
Q 1441 -91 1130 -33 
Q 819 25 488 141 
L 488 750 
Q 750 597 1062 519 
Q 1375 441 1716 441 
Q 2309 441 2620 675 
Q 2931 909 2931 1356 
Q 2931 1769 2642 2001 
Q 2353 2234 1838 2234 
L 1294 2234 
L 1294 2753 
L 1863 2753 
Q 2328 2753 2575 2939 
Q 2822 3125 2822 3475 
Q 2822 3834 2567 4026 
Q 2313 4219 1838 4219 
Q 1578 4219 1281 4162 
Q 984 4106 628 3988 
L 628 4550 
Q 988 4650 1302 4700 
Q 1616 4750 1894 4750 
Q 2613 4750 3031 4423 
Q 3450 4097 3450 3541 
Q 3450 3153 3228 2886 
Q 3006 2619 2597 2516 
z
" transform="scale(0.015625)"/>
       </defs>
       <use xlink:href="#DejaVuSans-32"/>
       <use xlink:href="#DejaVuSans-30" x="63.623047"/>
       <use xlink:href="#DejaVuSans-32" x="127.246094"/>
       <use xlink:href="#DejaVuSans-31" x="190.869141"/>
       <use xlink:href="#DejaVuSans-2d" x="254.492188"/>
       <use xlink:href="#DejaVuSans-30" x="290.576172"/>
       <use xlink:href="#DejaVuSans-33" x="354.199219"/>
      </g>
     </g>
    </g>
    <g id="xtick_3">
     <g id="line2d_5">
      <path d="M 157.172324 578.54175 
L 157.172324 24.14175 
" clip-path="url(#pab3f2a9b2a)" style="fill: none; stroke: #ffffff; stroke-width: 0.8; stroke-linecap: square"/>
     </g>
     <g id="line2d_6">
      <g>
       <use xlink:href="#m693b9d3827" x="157.172324" y="578.54175" style="fill: #555555; stroke: #555555; stroke-width: 0.8"/>
      </g>
     </g>
     <g id="text_3">
      <!-- 2021-06 -->
      <g style="fill: #555555" transform="translate(144.351041 620.459567) rotate(-45) scale(0.1 -0.1)">
       <defs>
        <path id="DejaVuSans-36" d="M 2113 2584 
Q 1688 2584 1439 2293 
Q 1191 2003 1191 1497 
Q 1191 994 1439 701 
Q 1688 409 2113 409 
Q 2538 409 2786 701 
Q 3034 994 3034 1497 
Q 3034 2003 2786 2293 
Q 2538 2584 2113 2584 
z
M 3366 4563 
L 3366 3988 
Q 3128 4100 2886 4159 
Q 2644 4219 2406 4219 
Q 1781 4219 1451 3797 
Q 1122 3375 1075 2522 
Q 1259 2794 1537 2939 
Q 1816 3084 2150 3084 
Q 2853 3084 3261 2657 
Q 3669 2231 3669 1497 
Q 3669 778 3244 343 
Q 2819 -91 2113 -91 
Q 1303 -91 875 529 
Q 447 1150 447 2328 
Q 447 3434 972 4092 
Q 1497 4750 2381 4750 
Q 2619 4750 2861 4703 
Q 3103 4656 3366 4563 
z
" transform="scale(0.015625)"/>
       </defs>
       <use xlink:href="#DejaVuSans-32"/>
       <use xlink:href="#DejaVuSans-30" x="63.623047"/>
       <use xlink:href="#DejaVuSans-32" x="127.246094"/>
       <use xlink:href="#DejaVuSans-31" x="190.869141"/>
       <use xlink:href="#DejaVuSans-2d" x="254.492188"/>
       <use xlink:href="#DejaVuSans-30" x="290.576172"/>
       <use xlink:href="#DejaVuSans-36" x="354.199219"/>
      </g>
     </g>
    </g>
    <g id="xtick_4">
     <g id="line2d_7">
      <path d="M 200.797139 578.54175 
L 200.797139 24.14175 
" clip-path="url(#pab3f2a9b2a)" style="fill: none; stroke: #ffffff; stroke-width: 0.8; stroke-linecap: square"/>
     </g>
     <g id="line2d_8">
      <g>
       <use xlink:href="#m693b9d3827" x="200.797139" y="578.54175" style="fill: #555555; stroke: #555555; stroke-width: 0.8"/>
      </g>
     </g>
     <g id="text_4">
      <!-- 2021-09 -->
      <g style="fill: #555555" transform="translate(187.975856 620.459567) rotate(-45) scale(0.1 -0.1)">
       <defs>
        <path id="DejaVuSans-39" d="M 703 97 
L 703 672 
Q 941 559 1184 500 
Q 1428 441 1663 441 
Q 2288 441 2617 861 
Q 2947 1281 2994 2138 
Q 2813 1869 2534 1725 
Q 2256 1581 1919 1581 
Q 1219 1581 811 2004 
Q 403 2428 403 3163 
Q 403 3881 828 4315 
Q 1253 4750 1959 4750 
Q 2769 4750 3195 4129 
Q 3622 3509 3622 2328 
Q 3622 1225 3098 567 
Q 2575 -91 1691 -91 
Q 1453 -91 1209 -44 
Q 966 3 703 97 
z
M 1959 2075 
Q 2384 2075 2632 2365 
Q 2881 2656 2881 3163 
Q 2881 3666 2632 3958 
Q 2384 4250 1959 4250 
Q 1534 4250 1286 3958 
Q 1038 3666 1038 3163 
Q 1038 2656 1286 2365 
Q 1534 2075 1959 2075 
z
" transform="scale(0.015625)"/>
       </defs>
       <use xlink:href="#DejaVuSans-32"/>
       <use xlink:href="#DejaVuSans-30" x="63.623047"/>
       <use xlink:href="#DejaVuSans-32" x="127.246094"/>
       <use xlink:href="#DejaVuSans-31" x="190.869141"/>
       <use xlink:href="#DejaVuSans-2d" x="254.492188"/>
       <use xlink:href="#DejaVuSans-30" x="290.576172"/>
       <use xlink:href="#DejaVuSans-39" x="354.199219"/>
      </g>
     </g>
    </g>
    <g id="xtick_5">
     <g id="line2d_9">
      <path d="M 243.947771 578.54175 
L 243.947771 24.14175 
" clip-path="url(#pab3f2a9b2a)" style="fill: none; stroke: #ffffff; stroke-width: 0.8; stroke-linecap: square"/>
     </g>
     <g id="line2d_10">
      <g>
       <use xlink:href="#m693b9d3827" x="243.947771" y="578.54175" style="fill: #555555; stroke: #555555; stroke-width: 0.8"/>
      </g>
     </g>
     <g id="text_5">
      <!-- 2021-12 -->
      <g style="fill: #555555" transform="translate(231.126489 620.459567) rotate(-45) scale(0.1 -0.1)">
       <use xlink:href="#DejaVuSans-32"/>
       <use xlink:href="#DejaVuSans-30" x="63.623047"/>
       <use xlink:href="#DejaVuSans-32" x="127.246094"/>
       <use xlink:href="#DejaVuSans-31" x="190.869141"/>
       <use xlink:href="#DejaVuSans-2d" x="254.492188"/>
       <use xlink:href="#DejaVuSans-31" x="290.576172"/>
       <use xlink:href="#DejaVuSans-32" x="354.199219"/>
      </g>
     </g>
    </g>
    <g id="xtick_6">
     <g id="line2d_11">
      <path d="M 286.624221 578.54175 
L 286.624221 24.14175 
" clip-path="url(#pab3f2a9b2a)" style="fill: none; stroke: #ffffff; stroke-width: 0.8; stroke-linecap: square"/>
     </g>
     <g id="line2d_12">
      <g>
       <use xlink:href="#m693b9d3827" x="286.624221" y="578.54175" style="fill: #555555; stroke: #555555; stroke-width: 0.8"/>
      </g>
     </g>
     <g id="text_6">
      <!-- 2022-03 -->
      <g style="fill: #555555" transform="translate(273.802938 620.459567) rotate(-45) scale(0.1 -0.1)">
       <use xlink:href="#DejaVuSans-32"/>
       <use xlink:href="#DejaVuSans-30" x="63.623047"/>
       <use xlink:href="#DejaVuSans-32" x="127.246094"/>
       <use xlink:href="#DejaVuSans-32" x="190.869141"/>
       <use xlink:href="#DejaVuSans-2d" x="254.492188"/>
       <use xlink:href="#DejaVuSans-30" x="290.576172"/>
       <use xlink:href="#DejaVuSans-33" x="354.199219"/>
      </g>
     </g>
    </g>
    <g id="xtick_7">
     <g id="line2d_13">
      <path d="M 330.249036 578.54175 
L 330.249036 24.14175 
" clip-path="url(#pab3f2a9b2a)" style="fill: none; stroke: #ffffff; stroke-width: 0.8; stroke-linecap: square"/>
     </g>
     <g id="line2d_14">
      <g>
       <use xlink:href="#m693b9d3827" x="330.249036" y="578.54175" style="fill: #555555; stroke: #555555; stroke-width: 0.8"/>
      </g>
     </g>
     <g id="text_7">
      <!-- 2022-06 -->
      <g style="fill: #555555" transform="translate(317.427753 620.459567) rotate(-45) scale(0.1 -0.1)">
       <use xlink:href="#DejaVuSans-32"/>
       <use xlink:href="#DejaVuSans-30" x="63.623047"/>
       <use xlink:href="#DejaVuSans-32" x="127.246094"/>
       <use xlink:href="#DejaVuSans-32" x="190.869141"/>
       <use xlink:href="#DejaVuSans-2d" x="254.492188"/>
       <use xlink:href="#DejaVuSans-30" x="290.576172"/>
       <use xlink:href="#DejaVuSans-36" x="354.199219"/>
      </g>
     </g>
    </g>
    <g id="xtick_8">
     <g id="line2d_15">
      <path d="M 373.873851 578.54175 
L 373.873851 24.14175 
" clip-path="url(#pab3f2a9b2a)" style="fill: none; stroke: #ffffff; stroke-width: 0.8; stroke-linecap: square"/>
     </g>
     <g id="line2d_16">
      <g>
       <use xlink:href="#m693b9d3827" x="373.873851" y="578.54175" style="fill: #555555; stroke: #555555; stroke-width: 0.8"/>
      </g>
     </g>
     <g id="text_8">
      <!-- 2022-09 -->
      <g style="fill: #555555" transform="translate(361.052569 620.459567) rotate(-45) scale(0.1 -0.1)">
       <use xlink:href="#DejaVuSans-32"/>
       <use xlink:href="#DejaVuSans-30" x="63.623047"/>
       <use xlink:href="#DejaVuSans-32" x="127.246094"/>
       <use xlink:href="#DejaVuSans-32" x="190.869141"/>
       <use xlink:href="#DejaVuSans-2d" x="254.492188"/>
       <use xlink:href="#DejaVuSans-30" x="290.576172"/>
       <use xlink:href="#DejaVuSans-39" x="354.199219"/>
      </g>
     </g>
    </g>
    <g id="xtick_9">
     <g id="line2d_17">
      <path d="M 417.024483 578.54175 
L 417.024483 24.14175 
" clip-path="url(#pab3f2a9b2a)" style="fill: none; stroke: #ffffff; stroke-width: 0.8; stroke-linecap: square"/>
     </g>
     <g id="line2d_18">
      <g>
       <use xlink:href="#m693b9d3827" x="417.024483" y="578.54175" style="fill: #555555; stroke: #555555; stroke-width: 0.8"/>
      </g>
     </g>
     <g id="text_9">
      <!-- 2022-12 -->
      <g style="fill: #555555" transform="translate(404.203201 620.459567) rotate(-45) scale(0.1 -0.1)">
       <use xlink:href="#DejaVuSans-32"/>
       <use xlink:href="#DejaVuSans-30" x="63.623047"/>
       <use xlink:href="#DejaVuSans-32" x="127.246094"/>
       <use xlink:href="#DejaVuSans-32" x="190.869141"/>
       <use xlink:href="#DejaVuSans-2d" x="254.492188"/>
       <use xlink:href="#DejaVuSans-31" x="290.576172"/>
       <use xlink:href="#DejaVuSans-32" x="354.199219"/>
      </g>
     </g>
    </g>
    <g id="xtick_10">
     <g id="line2d_19">
      <path d="M 459.700933 578.54175 
L 459.700933 24.14175 
" clip-path="url(#pab3f2a9b2a)" style="fill: none; stroke: #ffffff; stroke-width: 0.8; stroke-linecap: square"/>
     </g>
     <g id="line2d_20">
      <g>
       <use xlink:href="#m693b9d3827" x="459.700933" y="578.54175" style="fill: #555555; stroke: #555555; stroke-width: 0.8"/>
      </g>
     </g>
     <g id="text_10">
      <!-- 2023-03 -->
      <g style="fill: #555555" transform="translate(446.879651 620.459567) rotate(-45) scale(0.1 -0.1)">
       <use xlink:href="#DejaVuSans-32"/>
       <use xlink:href="#DejaVuSans-30" x="63.623047"/>
       <use xlink:href="#DejaVuSans-32" x="127.246094"/>
       <use xlink:href="#DejaVuSans-33" x="190.869141"/>
       <use xlink:href="#DejaVuSans-2d" x="254.492188"/>
       <use xlink:href="#DejaVuSans-30" x="290.576172"/>
       <use xlink:href="#DejaVuSans-33" x="354.199219"/>
      </g>
     </g>
    </g>
    <g id="xtick_11">
     <g id="line2d_21">
      <path d="M 503.325748 578.54175 
L 503.325748 24.14175 
" clip-path="url(#pab3f2a9b2a)" style="fill: none; stroke: #ffffff; stroke-width: 0.8; stroke-linecap: square"/>
     </g>
     <g id="line2d_22">
      <g>
       <use xlink:href="#m693b9d3827" x="503.325748" y="578.54175" style="fill: #555555; stroke: #555555; stroke-width: 0.8"/>
      </g>
     </g>
     <g id="text_11">
      <!-- 2023-06 -->
      <g style="fill: #555555" transform="translate(490.504466 620.459567) rotate(-45) scale(0.1 -0.1)">
       <use xlink:href="#DejaVuSans-32"/>
       <use xlink:href="#DejaVuSans-30" x="63.623047"/>
       <use xlink:href="#DejaVuSans-32" x="127.246094"/>
       <use xlink:href="#DejaVuSans-33" x="190.869141"/>
       <use xlink:href="#DejaVuSans-2d" x="254.492188"/>
       <use xlink:href="#DejaVuSans-30" x="290.576172"/>
       <use xlink:href="#DejaVuSans-36" x="354.199219"/>
      </g>
     </g>
    </g>
    <g id="xtick_12">
     <g id="line2d_23">
      <path d="M 546.950563 578.54175 
L 546.950563 24.14175 
" clip-path="url(#pab3f2a9b2a)" style="fill: none; stroke: #ffffff; stroke-width: 0.8; stroke-linecap: square"/>
     </g>
     <g id="line2d_24">
      <g>
       <use xlink:href="#m693b9d3827" x="546.950563" y="578.54175" style="fill: #555555; stroke: #555555; stroke-width: 0.8"/>
      </g>
     </g>
     <g id="text_12">
      <!-- 2023-09 -->
      <g style="fill: #555555" transform="translate(534.129281 620.459567) rotate(-45) scale(0.1 -0.1)">
       <use xlink:href="#DejaVuSans-32"/>
       <use xlink:href="#DejaVuSans-30" x="63.623047"/>
       <use xlink:href="#DejaVuSans-32" x="127.246094"/>
       <use xlink:href="#DejaVuSans-33" x="190.869141"/>
       <use xlink:href="#DejaVuSans-2d" x="254.492188"/>
       <use xlink:href="#DejaVuSans-30" x="290.576172"/>
       <use xlink:href="#DejaVuSans-39" x="354.199219"/>
      </g>
     </g>
    </g>
    <g id="xtick_13">
     <g id="line2d_25">
      <path d="M 590.101195 578.54175 
L 590.101195 24.14175 
" clip-path="url(#pab3f2a9b2a)" style="fill: none; stroke: #ffffff; stroke-width: 0.8; stroke-linecap: square"/>
     </g>
     <g id="line2d_26">
      <g>
       <use xlink:href="#m693b9d3827" x="590.101195" y="578.54175" style="fill: #555555; stroke: #555555; stroke-width: 0.8"/>
      </g>
     </g>
     <g id="text_13">
      <!-- 2023-12 -->
      <g style="fill: #555555" transform="translate(577.279913 620.459567) rotate(-45) scale(0.1 -0.1)">
       <use xlink:href="#DejaVuSans-32"/>
       <use xlink:href="#DejaVuSans-30" x="63.623047"/>
       <use xlink:href="#DejaVuSans-32" x="127.246094"/>
       <use xlink:href="#DejaVuSans-33" x="190.869141"/>
       <use xlink:href="#DejaVuSans-2d" x="254.492188"/>
       <use xlink:href="#DejaVuSans-31" x="290.576172"/>
       <use xlink:href="#DejaVuSans-32" x="354.199219"/>
      </g>
     </g>
    </g>
    <g id="xtick_14">
     <g id="line2d_27">
      <path d="M 633.251828 578.54175 
L 633.251828 24.14175 
" clip-path="url(#pab3f2a9b2a)" style="fill: none; stroke: #ffffff; stroke-width: 0.8; stroke-linecap: square"/>
     </g>
     <g id="line2d_28">
      <g>
       <use xlink:href="#m693b9d3827" x="633.251828" y="578.54175" style="fill: #555555; stroke: #555555; stroke-width: 0.8"/>
      </g>
     </g>
     <g id="text_14">
      <!-- 2024-03 -->
      <g style="fill: #555555" transform="translate(620.430545 620.459567) rotate(-45) scale(0.1 -0.1)">
       <defs>
        <path id="DejaVuSans-34" d="M 2419 4116 
L 825 1625 
L 2419 1625 
L 2419 4116 
z
M 2253 4666 
L 3047 4666 
L 3047 1625 
L 3713 1625 
L 3713 1100 
L 3047 1100 
L 3047 0 
L 2419 0 
L 2419 1100 
L 313 1100 
L 313 1709 
L 2253 4666 
z
" transform="scale(0.015625)"/>
       </defs>
       <use xlink:href="#DejaVuSans-32"/>
       <use xlink:href="#DejaVuSans-30" x="63.623047"/>
       <use xlink:href="#DejaVuSans-32" x="127.246094"/>
       <use xlink:href="#DejaVuSans-34" x="190.869141"/>
       <use xlink:href="#DejaVuSans-2d" x="254.492188"/>
       <use xlink:href="#DejaVuSans-30" x="290.576172"/>
       <use xlink:href="#DejaVuSans-33" x="354.199219"/>
      </g>
     </g>
    </g>
    <g id="xtick_15">
     <g id="line2d_29">
      <path d="M 676.876643 578.54175 
L 676.876643 24.14175 
" clip-path="url(#pab3f2a9b2a)" style="fill: none; stroke: #ffffff; stroke-width: 0.8; stroke-linecap: square"/>
     </g>
     <g id="line2d_30">
      <g>
       <use xlink:href="#m693b9d3827" x="676.876643" y="578.54175" style="fill: #555555; stroke: #555555; stroke-width: 0.8"/>
      </g>
     </g>
     <g id="text_15">
      <!-- 2024-06 -->
      <g style="fill: #555555" transform="translate(664.055361 620.459567) rotate(-45) scale(0.1 -0.1)">
       <use xlink:href="#DejaVuSans-32"/>
       <use xlink:href="#DejaVuSans-30" x="63.623047"/>
       <use xlink:href="#DejaVuSans-32" x="127.246094"/>
       <use xlink:href="#DejaVuSans-34" x="190.869141"/>
       <use xlink:href="#DejaVuSans-2d" x="254.492188"/>
       <use xlink:href="#DejaVuSans-30" x="290.576172"/>
       <use xlink:href="#DejaVuSans-36" x="354.199219"/>
      </g>
     </g>
    </g>
    <g id="xtick_16">
     <g id="line2d_31">
      <path d="M 720.501458 578.54175 
L 720.501458 24.14175 
" clip-path="url(#pab3f2a9b2a)" style="fill: none; stroke: #ffffff; stroke-width: 0.8; stroke-linecap: square"/>
     </g>
     <g id="line2d_32">
      <g>
       <use xlink:href="#m693b9d3827" x="720.501458" y="578.54175" style="fill: #555555; stroke: #555555; stroke-width: 0.8"/>
      </g>
     </g>
     <g id="text_16">
      <!-- 2024-09 -->
      <g style="fill: #555555" transform="translate(707.680176 620.459567) rotate(-45) scale(0.1 -0.1)">
       <use xlink:href="#DejaVuSans-32"/>
       <use xlink:href="#DejaVuSans-30" x="63.623047"/>
       <use xlink:href="#DejaVuSans-32" x="127.246094"/>
       <use xlink:href="#DejaVuSans-34" x="190.869141"/>
       <use xlink:href="#DejaVuSans-2d" x="254.492188"/>
       <use xlink:href="#DejaVuSans-30" x="290.576172"/>
       <use xlink:href="#DejaVuSans-39" x="354.199219"/>
      </g>
     </g>
    </g>
    <g id="xtick_17">
     <g id="line2d_33">
      <path d="M 763.65209 578.54175 
L 763.65209 24.14175 
" clip-path="url(#pab3f2a9b2a)" style="fill: none; stroke: #ffffff; stroke-width: 0.8; stroke-linecap: square"/>
     </g>
     <g id="line2d_34">
      <g>
       <use xlink:href="#m693b9d3827" x="763.65209" y="578.54175" style="fill: #555555; stroke: #555555; stroke-width: 0.8"/>
      </g>
     </g>
     <g id="text_17">
      <!-- 2024-12 -->
      <g style="fill: #555555" transform="translate(750.830808 620.459567) rotate(-45) scale(0.1 -0.1)">
       <use xlink:href="#DejaVuSans-32"/>
       <use xlink:href="#DejaVuSans-30" x="63.623047"/>
       <use xlink:href="#DejaVuSans-32" x="127.246094"/>
       <use xlink:href="#DejaVuSans-34" x="190.869141"/>
       <use xlink:href="#DejaVuSans-2d" x="254.492188"/>
       <use xlink:href="#DejaVuSans-31" x="290.576172"/>
       <use xlink:href="#DejaVuSans-32" x="354.199219"/>
      </g>
     </g>
    </g>
    <g id="xtick_18">
     <g id="line2d_35">
      <path d="M 806.32854 578.54175 
L 806.32854 24.14175 
" clip-path="url(#pab3f2a9b2a)" style="fill: none; stroke: #ffffff; stroke-width: 0.8; stroke-linecap: square"/>
     </g>
     <g id="line2d_36">
      <g>
       <use xlink:href="#m693b9d3827" x="806.32854" y="578.54175" style="fill: #555555; stroke: #555555; stroke-width: 0.8"/>
      </g>
     </g>
     <g id="text_18">
      <!-- 2025-03 -->
      <g style="fill: #555555" transform="translate(793.507258 620.459567) rotate(-45) scale(0.1 -0.1)">
       <defs>
        <path id="DejaVuSans-35" d="M 691 4666 
L 3169 4666 
L 3169 4134 
L 1269 4134 
L 1269 2991 
Q 1406 3038 1543 3061 
Q 1681 3084 1819 3084 
Q 2600 3084 3056 2656 
Q 3513 2228 3513 1497 
Q 3513 744 3044 326 
Q 2575 -91 1722 -91 
Q 1428 -91 1123 -41 
Q 819 9 494 109 
L 494 744 
Q 775 591 1075 516 
Q 1375 441 1709 441 
Q 2250 441 2565 725 
Q 2881 1009 2881 1497 
Q 2881 1984 2565 2268 
Q 2250 2553 1709 2553 
Q 1456 2553 1204 2497 
Q 953 2441 691 2322 
L 691 4666 
z
" transform="scale(0.015625)"/>
       </defs>
       <use xlink:href="#DejaVuSans-32"/>
       <use xlink:href="#DejaVuSans-30" x="63.623047"/>
       <use xlink:href="#DejaVuSans-32" x="127.246094"/>
       <use xlink:href="#DejaVuSans-35" x="190.869141"/>
       <use xlink:href="#DejaVuSans-2d" x="254.492188"/>
       <use xlink:href="#DejaVuSans-30" x="290.576172"/>
       <use xlink:href="#DejaVuSans-33" x="354.199219"/>
      </g>
     </g>
    </g>
    <g id="xtick_19">
     <g id="line2d_37">
      <path d="M 849.953355 578.54175 
L 849.953355 24.14175 
" clip-path="url(#pab3f2a9b2a)" style="fill: none; stroke: #ffffff; stroke-width: 0.8; stroke-linecap: square"/>
     </g>
     <g id="line2d_38">
      <g>
       <use xlink:href="#m693b9d3827" x="849.953355" y="578.54175" style="fill: #555555; stroke: #555555; stroke-width: 0.8"/>
      </g>
     </g>
     <g id="text_19">
      <!-- 2025-06 -->
      <g style="fill: #555555" transform="translate(837.132073 620.459567) rotate(-45) scale(0.1 -0.1)">
       <use xlink:href="#DejaVuSans-32"/>
       <use xlink:href="#DejaVuSans-30" x="63.623047"/>
       <use xlink:href="#DejaVuSans-32" x="127.246094"/>
       <use xlink:href="#DejaVuSans-35" x="190.869141"/>
       <use xlink:href="#DejaVuSans-2d" x="254.492188"/>
       <use xlink:href="#DejaVuSans-30" x="290.576172"/>
       <use xlink:href="#DejaVuSans-36" x="354.199219"/>
      </g>
     </g>
    </g>
    <g id="xtick_20">
     <g id="line2d_39">
      <path d="M 893.57817 578.54175 
L 893.57817 24.14175 
" clip-path="url(#pab3f2a9b2a)" style="fill: none; stroke: #ffffff; stroke-width: 0.8; stroke-linecap: square"/>
     </g>
     <g id="line2d_40">
      <g>
       <use xlink:href="#m693b9d3827" x="893.57817" y="578.54175" style="fill: #555555; stroke: #555555; stroke-width: 0.8"/>
      </g>
     </g>
     <g id="text_20">
      <!-- 2025-09 -->
      <g style="fill: #555555" transform="translate(880.756888 620.459567) rotate(-45) scale(0.1 -0.1)">
       <use xlink:href="#DejaVuSans-32"/>
       <use xlink:href="#DejaVuSans-30" x="63.623047"/>
       <use xlink:href="#DejaVuSans-32" x="127.246094"/>
       <use xlink:href="#DejaVuSans-35" x="190.869141"/>
       <use xlink:href="#DejaVuSans-2d" x="254.492188"/>
       <use xlink:href="#DejaVuSans-30" x="290.576172"/>
       <use xlink:href="#DejaVuSans-39" x="354.199219"/>
      </g>
     </g>
    </g>
    <g id="xtick_21">
     <g id="line2d_41">
      <path d="M 936.728803 578.54175 
L 936.728803 24.14175 
" clip-path="url(#pab3f2a9b2a)" style="fill: none; stroke: #ffffff; stroke-width: 0.8; stroke-linecap: square"/>
     </g>
     <g id="line2d_42">
      <g>
       <use xlink:href="#m693b9d3827" x="936.728803" y="578.54175" style="fill: #555555; stroke: #555555; stroke-width: 0.8"/>
      </g>
     </g>
     <g id="text_21">
      <!-- 2025-12 -->
      <g style="fill: #555555" transform="translate(923.90752 620.459567) rotate(-45) scale(0.1 -0.1)">
       <use xlink:href="#DejaVuSans-32"/>
       <use xlink:href="#DejaVuSans-30" x="63.623047"/>
       <use xlink:href="#DejaVuSans-32" x="127.246094"/>
       <use xlink:href="#DejaVuSans-35" x="190.869141"/>
       <use xlink:href="#DejaVuSans-2d" x="254.492188"/>
       <use xlink:href="#DejaVuSans-31" x="290.576172"/>
       <use xlink:href="#DejaVuSans-32" x="354.199219"/>
      </g>
     </g>
    </g>
    <g id="text_22">
     <!-- Date -->
     <g style="fill: #555555" transform="translate(501.313563 635.048253) scale(0.12 -0.12)">
      <defs>
       <path id="DejaVuSans-44" d="M 1259 4147 
L 1259 519 
L 2022 519 
Q 2988 519 3436 956 
Q 3884 1394 3884 2338 
Q 3884 3275 3436 3711 
Q 2988 4147 2022 4147 
L 1259 4147 
z
M 628 4666 
L 1925 4666 
Q 3281 4666 3915 4102 
Q 4550 3538 4550 2338 
Q 4550 1131 3912 565 
Q 3275 0 1925 0 
L 628 0 
L 628 4666 
z
" transform="scale(0.015625)"/>
       <path id="DejaVuSans-61" d="M 2194 1759 
Q 1497 1759 1228 1600 
Q 959 1441 959 1056 
Q 959 750 1161 570 
Q 1363 391 1709 391 
Q 2188 391 2477 730 
Q 2766 1069 2766 1631 
L 2766 1759 
L 2194 1759 
z
M 3341 1997 
L 3341 0 
L 2766 0 
L 2766 531 
Q 2569 213 2275 61 
Q 1981 -91 1556 -91 
Q 1019 -91 701 211 
Q 384 513 384 1019 
Q 384 1609 779 1909 
Q 1175 2209 1959 2209 
L 2766 2209 
L 2766 2266 
Q 2766 2663 2505 2880 
Q 2244 3097 1772 3097 
Q 1472 3097 1187 3025 
Q 903 2953 641 2809 
L 641 3341 
Q 956 3463 1253 3523 
Q 1550 3584 1831 3584 
Q 2591 3584 2966 3190 
Q 3341 2797 3341 1997 
z
" transform="scale(0.015625)"/>
       <path id="DejaVuSans-74" d="M 1172 4494 
L 1172 3500 
L 2356 3500 
L 2356 3053 
L 1172 3053 
L 1172 1153 
Q 1172 725 1289 603 
Q 1406 481 1766 481 
L 2356 481 
L 2356 0 
L 1766 0 
Q 1100 0 847 248 
Q 594 497 594 1153 
L 594 3053 
L 172 3053 
L 172 3500 
L 594 3500 
L 594 4494 
L 1172 4494 
z
" transform="scale(0.015625)"/>
       <path id="DejaVuSans-65" d="M 3597 1894 
L 3597 1613 
L 953 1613 
Q 991 1019 1311 708 
Q 1631 397 2203 397 
Q 2534 397 2845 478 
Q 3156 559 3463 722 
L 3463 178 
Q 3153 47 2828 -22 
Q 2503 -91 2169 -91 
Q 1331 -91 842 396 
Q 353 884 353 1716 
Q 353 2575 817 3079 
Q 1281 3584 2069 3584 
Q 2775 3584 3186 3129 
Q 3597 2675 3597 1894 
z
M 3022 2063 
Q 3016 2534 2758 2815 
Q 2500 3097 2075 3097 
Q 1594 3097 1305 2825 
Q 1016 2553 972 2059 
L 3022 2063 
z
" transform="scale(0.015625)"/>
      </defs>
      <use xlink:href="#DejaVuSans-44"/>
      <use xlink:href="#DejaVuSans-61" x="77.001953"/>
      <use xlink:href="#DejaVuSans-74" x="138.28125"/>
      <use xlink:href="#DejaVuSans-65" x="177.490234"/>
     </g>
    </g>
   </g>
   <g id="matplotlib.axis_2">
    <g id="ytick_1">
     <g id="line2d_43">
      <path d="M 64.2325 578.54175 
L 967.0765 578.54175 
" clip-path="url(#pab3f2a9b2a)" style="fill: none; stroke: #ffffff; stroke-width: 0.8; stroke-linecap: square"/>
     </g>
     <g id="line2d_44">
      <defs>
       <path id="m96a13730ef" d="M 0 0 
L -3.5 0 
" style="stroke: #555555; stroke-width: 0.8"/>
      </defs>
      <g>
       <use xlink:href="#m96a13730ef" x="64.2325" y="578.54175" style="fill: #555555; stroke: #555555; stroke-width: 0.8"/>
      </g>
     </g>
     <g id="text_23">
      <!-- 0k -->
      <g style="fill: #555555" transform="translate(45.079375 582.340969) scale(0.1 -0.1)">
       <defs>
        <path id="DejaVuSans-6b" d="M 581 4863 
L 1159 4863 
L 1159 1991 
L 2875 3500 
L 3609 3500 
L 1753 1863 
L 3688 0 
L 2938 0 
L 1159 1709 
L 1159 0 
L 581 0 
L 581 4863 
z
" transform="scale(0.015625)"/>
       </defs>
       <use xlink:href="#DejaVuSans-30"/>
       <use xlink:href="#DejaVuSans-6b" x="63.623047"/>
      </g>
     </g>
    </g>
    <g id="ytick_2">
     <g id="line2d_45">
      <path d="M 64.2325 456.206748 
L 967.0765 456.206748 
" clip-path="url(#pab3f2a9b2a)" style="fill: none; stroke: #ffffff; stroke-width: 0.8; stroke-linecap: square"/>
     </g>
     <g id="line2d_46">
      <g>
       <use xlink:href="#m96a13730ef" x="64.2325" y="456.206748" style="fill: #555555; stroke: #555555; stroke-width: 0.8"/>
      </g>
     </g>
     <g id="text_24">
      <!-- 500k -->
      <g style="fill: #555555" transform="translate(32.354375 460.005966) scale(0.1 -0.1)">
       <use xlink:href="#DejaVuSans-35"/>
       <use xlink:href="#DejaVuSans-30" x="63.623047"/>
       <use xlink:href="#DejaVuSans-30" x="127.246094"/>
       <use xlink:href="#DejaVuSans-6b" x="190.869141"/>
      </g>
     </g>
    </g>
    <g id="ytick_3">
     <g id="line2d_47">
      <path d="M 64.2325 333.871745 
L 967.0765 333.871745 
" clip-path="url(#pab3f2a9b2a)" style="fill: none; stroke: #ffffff; stroke-width: 0.8; stroke-linecap: square"/>
     </g>
     <g id="line2d_48">
      <g>
       <use xlink:href="#m96a13730ef" x="64.2325" y="333.871745" style="fill: #555555; stroke: #555555; stroke-width: 0.8"/>
      </g>
     </g>
     <g id="text_25">
      <!-- 1,000k -->
      <g style="fill: #555555" transform="translate(22.81375 337.670964) scale(0.1 -0.1)">
       <defs>
        <path id="DejaVuSans-2c" d="M 750 794 
L 1409 794 
L 1409 256 
L 897 -744 
L 494 -744 
L 750 256 
L 750 794 
z
" transform="scale(0.015625)"/>
       </defs>
       <use xlink:href="#DejaVuSans-31"/>
       <use xlink:href="#DejaVuSans-2c" x="63.623047"/>
       <use xlink:href="#DejaVuSans-30" x="95.410156"/>
       <use xlink:href="#DejaVuSans-30" x="159.033203"/>
       <use xlink:href="#DejaVuSans-30" x="222.65625"/>
       <use xlink:href="#DejaVuSans-6b" x="286.279297"/>
      </g>
     </g>
    </g>
    <g id="ytick_4">
     <g id="line2d_49">
      <path d="M 64.2325 211.536743 
L 967.0765 211.536743 
" clip-path="url(#pab3f2a9b2a)" style="fill: none; stroke: #ffffff; stroke-width: 0.8; stroke-linecap: square"/>
     </g>
     <g id="line2d_50">
      <g>
       <use xlink:href="#m96a13730ef" x="64.2325" y="211.536743" style="fill: #555555; stroke: #555555; stroke-width: 0.8"/>
      </g>
     </g>
     <g id="text_26">
      <!-- 1,500k -->
      <g style="fill: #555555" transform="translate(22.81375 215.335962) scale(0.1 -0.1)">
       <use xlink:href="#DejaVuSans-31"/>
       <use xlink:href="#DejaVuSans-2c" x="63.623047"/>
       <use xlink:href="#DejaVuSans-35" x="95.410156"/>
       <use xlink:href="#DejaVuSans-30" x="159.033203"/>
       <use xlink:href="#DejaVuSans-30" x="222.65625"/>
       <use xlink:href="#DejaVuSans-6b" x="286.279297"/>
      </g>
     </g>
    </g>
    <g id="ytick_5">
     <g id="line2d_51">
      <path d="M 64.2325 89.201741 
L 967.0765 89.201741 
" clip-path="url(#pab3f2a9b2a)" style="fill: none; stroke: #ffffff; stroke-width: 0.8; stroke-linecap: square"/>
     </g>
     <g id="line2d_52">
      <g>
       <use xlink:href="#m96a13730ef" x="64.2325" y="89.201741" style="fill: #555555; stroke: #555555; stroke-width: 0.8"/>
      </g>
     </g>
     <g id="text_27">
      <!-- 2,000k -->
      <g style="fill: #555555" transform="translate(22.81375 93.000959) scale(0.1 -0.1)">
       <use xlink:href="#DejaVuSans-32"/>
       <use xlink:href="#DejaVuSans-2c" x="63.623047"/>
       <use xlink:href="#DejaVuSans-30" x="95.410156"/>
       <use xlink:href="#DejaVuSans-30" x="159.033203"/>
       <use xlink:href="#DejaVuSans-30" x="222.65625"/>
       <use xlink:href="#DejaVuSans-6b" x="286.279297"/>
      </g>
     </g>
    </g>
    <g id="text_28">
     <!-- Instances -->
     <g style="fill: #555555" transform="translate(16.318125 329.988) rotate(-90) scale(0.12 -0.12)">
      <defs>
       <path id="DejaVuSans-49" d="M 628 4666 
L 1259 4666 
L 1259 0 
L 628 0 
L 628 4666 
z
" transform="scale(0.015625)"/>
       <path id="DejaVuSans-6e" d="M 3513 2113 
L 3513 0 
L 2938 0 
L 2938 2094 
Q 2938 2591 2744 2837 
Q 2550 3084 2163 3084 
Q 1697 3084 1428 2787 
Q 1159 2491 1159 1978 
L 1159 0 
L 581 0 
L 581 3500 
L 1159 3500 
L 1159 2956 
Q 1366 3272 1645 3428 
Q 1925 3584 2291 3584 
Q 2894 3584 3203 3211 
Q 3513 2838 3513 2113 
z
" transform="scale(0.015625)"/>
       <path id="DejaVuSans-73" d="M 2834 3397 
L 2834 2853 
Q 2591 2978 2328 3040 
Q 2066 3103 1784 3103 
Q 1356 3103 1142 2972 
Q 928 2841 928 2578 
Q 928 2378 1081 2264 
Q 1234 2150 1697 2047 
L 1894 2003 
Q 2506 1872 2764 1633 
Q 3022 1394 3022 966 
Q 3022 478 2636 193 
Q 2250 -91 1575 -91 
Q 1294 -91 989 -36 
Q 684 19 347 128 
L 347 722 
Q 666 556 975 473 
Q 1284 391 1588 391 
Q 1994 391 2212 530 
Q 2431 669 2431 922 
Q 2431 1156 2273 1281 
Q 2116 1406 1581 1522 
L 1381 1569 
Q 847 1681 609 1914 
Q 372 2147 372 2553 
Q 372 3047 722 3315 
Q 1072 3584 1716 3584 
Q 2034 3584 2315 3537 
Q 2597 3491 2834 3397 
z
" transform="scale(0.015625)"/>
       <path id="DejaVuSans-63" d="M 3122 3366 
L 3122 2828 
Q 2878 2963 2633 3030 
Q 2388 3097 2138 3097 
Q 1578 3097 1268 2742 
Q 959 2388 959 1747 
Q 959 1106 1268 751 
Q 1578 397 2138 397 
Q 2388 397 2633 464 
Q 2878 531 3122 666 
L 3122 134 
Q 2881 22 2623 -34 
Q 2366 -91 2075 -91 
Q 1284 -91 818 406 
Q 353 903 353 1747 
Q 353 2603 823 3093 
Q 1294 3584 2113 3584 
Q 2378 3584 2631 3529 
Q 2884 3475 3122 3366 
z
" transform="scale(0.015625)"/>
      </defs>
      <use xlink:href="#DejaVuSans-49"/>
      <use xlink:href="#DejaVuSans-6e" x="29.492188"/>
      <use xlink:href="#DejaVuSans-73" x="92.871094"/>
      <use xlink:href="#DejaVuSans-74" x="144.970703"/>
      <use xlink:href="#DejaVuSans-61" x="184.179688"/>
      <use xlink:href="#DejaVuSans-6e" x="245.458984"/>
      <use xlink:href="#DejaVuSans-63" x="308.837891"/>
      <use xlink:href="#DejaVuSans-65" x="363.818359"/>
      <use xlink:href="#DejaVuSans-73" x="425.341797"/>
     </g>
    </g>
   </g>
   <g id="line2d_53">
    <path d="M 64.2325 579.858878 
L 73.352136 579.075371 
L 82.471773 578.246446 
L 91.591409 577.372102 
L 100.711045 576.452339 
L 109.830682 575.487157 
L 118.950318 574.476557 
L 128.069955 573.420538 
L 137.189591 572.3191 
L 146.309227 571.172243 
L 155.428864 569.979968 
L 164.5485 568.742273 
L 173.668136 567.45916 
L 182.787773 566.130628 
L 191.907409 564.756678 
L 201.027045 563.337308 
L 210.146682 561.87252 
L 219.266318 560.362313 
L 228.385955 558.806687 
L 237.505591 557.205643 
L 246.625227 555.559179 
L 255.744864 553.867297 
L 264.8645 552.129996 
L 273.984136 550.347276 
L 283.103773 548.519138 
L 292.223409 546.645581 
L 301.343045 544.726605 
L 310.462682 542.76221 
L 319.582318 540.752396 
L 328.701955 538.697164 
L 337.821591 536.596512 
L 346.941227 534.450442 
L 356.060864 532.258954 
L 365.1805 530.022046 
L 374.300136 527.73972 
L 383.419773 525.411975 
L 392.539409 523.038811 
L 401.659045 520.620228 
L 410.778682 518.156226 
L 419.898318 515.646806 
L 429.017955 513.091967 
L 438.137591 510.491709 
L 447.257227 507.846033 
L 456.376864 505.154937 
L 465.4965 502.418423 
L 474.616136 499.63649 
L 483.735773 496.809138 
L 492.855409 493.936368 
L 501.975045 491.018178 
L 511.094682 488.05457 
L 520.214318 485.045543 
L 529.333955 481.991098 
L 538.453591 478.891233 
L 547.573227 475.74595 
L 556.692864 472.555248 
L 565.8125 469.319127 
L 574.932136 466.037588 
L 584.051773 462.710629 
L 593.171409 459.338252 
L 602.291045 455.920456 
L 611.410682 452.457241 
L 620.530318 448.948608 
L 629.649955 445.394556 
L 638.769591 441.795084 
L 647.889227 438.150195 
L 657.008864 434.459886 
L 666.1285 430.724159 
L 675.248136 426.943012 
L 684.367773 423.116447 
L 693.487409 419.244463 
L 702.607045 415.327061 
L 711.726682 411.36424 
L 720.846318 407.355999 
L 729.965955 403.30234 
L 739.085591 399.203263 
L 748.205227 395.058766 
L 757.324864 390.868851 
L 766.4445 386.633517 
L 775.564136 382.352764 
L 784.683773 378.026592 
L 793.803409 373.655002 
L 802.923045 369.237993 
L 812.042682 364.775565 
L 821.162318 360.267718 
L 830.281955 355.714452 
L 839.401591 351.115768 
L 848.521227 346.471665 
L 857.640864 341.782143 
L 866.7605 337.047202 
L 875.880136 332.266843 
L 884.999773 327.441065 
L 894.119409 322.569868 
L 903.239045 317.653252 
L 912.358682 312.691217 
L 921.478318 307.683764 
L 930.597955 302.630892 
L 939.717591 297.532601 
L 948.837227 292.388891 
L 957.956864 287.199762 
L 967.0765 281.965215 
" clip-path="url(#pab3f2a9b2a)" style="fill: none; stroke-dasharray: 3,4.95; stroke-dashoffset: 0; stroke: #4ac1fa; stroke-opacity: 0.9; stroke-width: 3"/>
   </g>
   <g id="line2d_54">
    <path d="M 64.2325 590.072127 
L 73.352136 585.154939 
L 82.471773 580.310082 
L 91.591409 575.537556 
L 100.711045 570.837361 
L 109.830682 566.209497 
L 118.950318 561.653963 
L 128.069955 557.170761 
L 137.189591 552.759889 
L 146.309227 548.421348 
L 155.428864 544.155138 
L 164.5485 539.961259 
L 173.668136 535.839711 
L 182.787773 531.790494 
L 191.907409 527.813607 
L 201.027045 523.909052 
L 210.146682 520.076827 
L 219.266318 516.316933 
L 228.385955 512.62937 
L 237.505591 509.014138 
L 246.625227 505.471237 
L 255.744864 502.000667 
L 264.8645 498.602427 
L 273.984136 495.276519 
L 283.103773 492.022941 
L 292.223409 488.841695 
L 301.343045 485.732779 
L 310.462682 482.696194 
L 319.582318 479.73194 
L 328.701955 476.840017 
L 337.821591 474.020424 
L 346.941227 471.273163 
L 356.060864 468.598232 
L 365.1805 465.995633 
L 374.300136 463.465364 
L 383.419773 461.007426 
L 392.539409 458.621819 
L 401.659045 456.308543 
L 410.778682 454.067598 
L 419.898318 451.898983 
L 429.017955 449.8027 
L 438.137591 447.778747 
L 447.257227 445.827126 
L 456.376864 443.947835 
L 465.4965 442.140875 
L 474.616136 440.406246 
L 483.735773 438.743947 
L 492.855409 437.15398 
L 501.975045 435.636344 
L 511.094682 434.191038 
L 520.214318 432.818064 
L 529.333955 431.51742 
L 538.453591 430.289107 
L 547.573227 429.133125 
L 556.692864 428.049474 
L 565.8125 427.038154 
L 574.932136 426.099164 
L 584.051773 425.232506 
L 593.171409 424.438178 
L 602.291045 423.716181 
L 611.410682 423.066516 
L 620.530318 422.489181 
L 629.649955 421.984177 
L 638.769591 421.551503 
L 647.889227 421.191161 
L 657.008864 420.90315 
L 666.1285 420.687469 
L 675.248136 420.544119 
L 684.367773 420.473101 
L 693.487409 420.474413 
L 702.607045 420.548056 
L 711.726682 420.69403 
L 720.846318 420.912334 
L 729.965955 421.20297 
L 739.085591 421.565937 
L 748.205227 422.001234 
L 757.324864 422.508862 
L 766.4445 423.088822 
L 775.564136 423.741112 
L 784.683773 424.465733 
L 793.803409 425.262684 
L 802.923045 426.131967 
L 812.042682 427.073581 
L 821.162318 428.087525 
L 830.281955 429.1738 
L 839.401591 430.332407 
L 848.521227 431.563344 
L 857.640864 432.866612 
L 866.7605 434.242211 
L 875.880136 435.690141 
L 884.999773 437.210401 
L 894.119409 438.802993 
L 903.239045 440.467915 
L 912.358682 442.205168 
L 921.478318 444.014753 
L 930.597955 445.896668 
L 939.717591 447.850914 
L 948.837227 449.87749 
L 957.956864 451.976398 
L 967.0765 454.147637 
" clip-path="url(#pab3f2a9b2a)" style="fill: none; stroke-dasharray: 3,4.95; stroke-dashoffset: 0; stroke: #9a5689; stroke-opacity: 0.9; stroke-width: 3"/>
   </g>
   <g id="line2d_55">
    <path d="M 64.2325 576.126369 
L 73.352136 575.545673 
L 82.471773 574.969191 
L 91.591409 574.396923 
L 100.711045 573.828869 
L 109.830682 573.265029 
L 118.950318 572.705402 
L 128.069955 572.14999 
L 137.189591 571.598791 
L 146.309227 571.051806 
L 155.428864 570.509036 
L 164.5485 569.970479 
L 173.668136 569.436136 
L 182.787773 568.906006 
L 191.907409 568.380091 
L 201.027045 567.85839 
L 210.146682 567.340902 
L 219.266318 566.827629 
L 228.385955 566.318569 
L 237.505591 565.813723 
L 246.625227 565.313092 
L 255.744864 564.816674 
L 264.8645 564.32447 
L 273.984136 563.836479 
L 283.103773 563.352703 
L 292.223409 562.873141 
L 301.343045 562.397792 
L 310.462682 561.926658 
L 319.582318 561.459737 
L 328.701955 560.99703 
L 337.821591 560.538537 
L 346.941227 560.084258 
L 356.060864 559.634193 
L 365.1805 559.188342 
L 374.300136 558.746705 
L 383.419773 558.309282 
L 392.539409 557.876072 
L 401.659045 557.447076 
L 410.778682 557.022295 
L 419.898318 556.601727 
L 429.017955 556.185373 
L 438.137591 555.773233 
L 447.257227 555.365307 
L 456.376864 554.961595 
L 465.4965 554.562096 
L 474.616136 554.166812 
L 483.735773 553.775742 
L 492.855409 553.388885 
L 501.975045 553.006242 
L 511.094682 552.627813 
L 520.214318 552.253599 
L 529.333955 551.883598 
L 538.453591 551.51781 
L 547.573227 551.156237 
L 556.692864 550.798878 
L 565.8125 550.445732 
L 574.932136 550.096801 
L 584.051773 549.752083 
L 593.171409 549.41158 
L 602.291045 549.07529 
L 611.410682 548.743214 
L 620.530318 548.415352 
L 629.649955 548.091704 
L 638.769591 547.772269 
L 647.889227 547.457049 
L 657.008864 547.146043 
L 666.1285 546.83925 
L 675.248136 546.536671 
L 684.367773 546.238307 
L 693.487409 545.944156 
L 702.607045 545.654219 
L 711.726682 545.368496 
L 720.846318 545.086987 
L 729.965955 544.809691 
L 739.085591 544.53661 
L 748.205227 544.267743 
L 757.324864 544.003089 
L 766.4445 543.742649 
L 775.564136 543.486424 
L 784.683773 543.234412 
L 793.803409 542.986614 
L 802.923045 542.74303 
L 812.042682 542.50366 
L 821.162318 542.268503 
L 830.281955 542.037561 
L 839.401591 541.810832 
L 848.521227 541.588318 
L 857.640864 541.370017 
L 866.7605 541.15593 
L 875.880136 540.946058 
L 884.999773 540.740399 
L 894.119409 540.538953 
L 903.239045 540.341722 
L 912.358682 540.148705 
L 921.478318 539.959902 
L 930.597955 539.775312 
L 939.717591 539.594937 
L 948.837227 539.418775 
L 957.956864 539.246827 
L 967.0765 539.079093 
" clip-path="url(#pab3f2a9b2a)" style="fill: none; stroke-dasharray: 3,4.95; stroke-dashoffset: 0; stroke: #be503b; stroke-opacity: 0.9; stroke-width: 3"/>
   </g>
   <g id="line2d_56">
    <path d="M 64.2325 564.178366 
L 73.352136 561.697296 
L 82.471773 559.222805 
L 91.591409 556.754894 
L 100.711045 554.293562 
L 109.830682 551.838809 
L 118.950318 549.390636 
L 128.069955 546.949042 
L 137.189591 544.514028 
L 146.309227 542.085593 
L 155.428864 539.663737 
L 164.5485 537.248461 
L 173.668136 534.839765 
L 182.787773 532.437648 
L 191.907409 530.04211 
L 201.027045 527.653152 
L 210.146682 525.270773 
L 219.266318 522.894973 
L 228.385955 520.525753 
L 237.505591 518.163113 
L 246.625227 515.807051 
L 255.744864 513.45757 
L 264.8645 511.114667 
L 273.984136 508.778345 
L 283.103773 506.448601 
L 292.223409 504.125437 
L 301.343045 501.808852 
L 310.462682 499.498847 
L 319.582318 497.195422 
L 328.701955 494.898575 
L 337.821591 492.608308 
L 346.941227 490.324621 
L 356.060864 488.047513 
L 365.1805 485.776984 
L 374.300136 483.513035 
L 383.419773 481.255665 
L 392.539409 479.004875 
L 401.659045 476.760664 
L 410.778682 474.523033 
L 419.898318 472.291981 
L 429.017955 470.067508 
L 438.137591 467.849615 
L 447.257227 465.638301 
L 456.376864 463.433567 
L 465.4965 461.235412 
L 474.616136 459.043837 
L 483.735773 456.858841 
L 492.855409 454.680424 
L 501.975045 452.508587 
L 511.094682 450.343329 
L 520.214318 448.184651 
L 529.333955 446.032552 
L 538.453591 443.887032 
L 547.573227 441.748092 
L 556.692864 439.615732 
L 565.8125 437.489951 
L 574.932136 435.370749 
L 584.051773 433.258127 
L 593.171409 431.152084 
L 602.291045 429.05262 
L 611.410682 426.959736 
L 620.530318 424.873432 
L 629.649955 422.793707 
L 638.769591 420.720561 
L 647.889227 418.653995 
L 657.008864 416.594008 
L 666.1285 414.5406 
L 675.248136 412.493772 
L 684.367773 410.453524 
L 693.487409 408.419854 
L 702.607045 406.392765 
L 711.726682 404.372254 
L 720.846318 402.358324 
L 729.965955 400.350972 
L 739.085591 398.3502 
L 748.205227 396.356008 
L 757.324864 394.368394 
L 766.4445 392.387361 
L 775.564136 390.412906 
L 784.683773 388.445031 
L 793.803409 386.483736 
L 802.923045 384.52902 
L 812.042682 382.580883 
L 821.162318 380.639326 
L 830.281955 378.704349 
L 839.401591 376.77595 
L 848.521227 374.854131 
L 857.640864 372.938892 
L 866.7605 371.030232 
L 875.880136 369.128151 
L 884.999773 367.23265 
L 894.119409 365.343729 
L 903.239045 363.461386 
L 912.358682 361.585623 
L 921.478318 359.71644 
L 930.597955 357.853836 
L 939.717591 355.997811 
L 948.837227 354.148366 
L 957.956864 352.3055 
L 967.0765 350.469214 
" clip-path="url(#pab3f2a9b2a)" style="fill: none; stroke-dasharray: 3,4.95; stroke-dashoffset: 0; stroke: #e2321d; stroke-opacity: 0.9; stroke-width: 3"/>
   </g>
   <g id="line2d_57">
    <path d="M 64.2325 598.167874 
L 73.352136 596.019416 
L 82.471773 593.802108 
L 91.591409 591.515949 
L 100.711045 589.160939 
L 109.830682 586.737079 
L 118.950318 584.244369 
L 128.069955 581.682808 
L 137.189591 579.052396 
L 146.309227 576.353133 
L 155.428864 573.58502 
L 164.5485 570.748057 
L 173.668136 567.842242 
L 182.787773 564.867578 
L 191.907409 561.824062 
L 201.027045 558.711696 
L 210.146682 555.53048 
L 219.266318 552.280413 
L 228.385955 548.961495 
L 237.505591 545.573726 
L 246.625227 542.117107 
L 255.744864 538.591638 
L 264.8645 534.997318 
L 273.984136 531.334147 
L 283.103773 527.602126 
L 292.223409 523.801254 
L 301.343045 519.931531 
L 310.462682 515.992958 
L 319.582318 511.985534 
L 328.701955 507.90926 
L 337.821591 503.764135 
L 346.941227 499.550159 
L 356.060864 495.267333 
L 365.1805 490.915657 
L 374.300136 486.495129 
L 383.419773 482.005751 
L 392.539409 477.447523 
L 401.659045 472.820444 
L 410.778682 468.124514 
L 419.898318 463.359734 
L 429.017955 458.526103 
L 438.137591 453.623622 
L 447.257227 448.652289 
L 456.376864 443.612107 
L 465.4965 438.503074 
L 474.616136 433.32519 
L 483.735773 428.078455 
L 492.855409 422.76287 
L 501.975045 417.378435 
L 511.094682 411.925148 
L 520.214318 406.403011 
L 529.333955 400.812024 
L 538.453591 395.152186 
L 547.573227 389.423497 
L 556.692864 383.625958 
L 565.8125 377.759568 
L 574.932136 371.824328 
L 584.051773 365.820237 
L 593.171409 359.747295 
L 602.291045 353.605503 
L 611.410682 347.39486 
L 620.530318 341.115367 
L 629.649955 334.767023 
L 638.769591 328.349828 
L 647.889227 321.863783 
L 657.008864 315.308888 
L 666.1285 308.685141 
L 675.248136 301.992544 
L 684.367773 295.231097 
L 693.487409 288.400799 
L 702.607045 281.50165 
L 711.726682 274.53365 
L 720.846318 267.496801 
L 729.965955 260.3911 
L 739.085591 253.216549 
L 748.205227 245.973147 
L 757.324864 238.660895 
L 766.4445 231.279792 
L 775.564136 223.829838 
L 784.683773 216.311034 
L 793.803409 208.72338 
L 802.923045 201.066874 
L 812.042682 193.341518 
L 821.162318 185.547312 
L 830.281955 177.684255 
L 839.401591 169.752347 
L 848.521227 161.751589 
L 857.640864 153.68198 
L 866.7605 145.543521 
L 875.880136 137.336211 
L 884.999773 129.06005 
L 894.119409 120.715039 
L 903.239045 112.301177 
L 912.358682 103.818464 
L 921.478318 95.266901 
L 930.597955 86.646488 
L 939.717591 77.957224 
L 948.837227 69.199109 
L 957.956864 60.372143 
L 967.0765 51.476327 
" clip-path="url(#pab3f2a9b2a)" style="fill: none; stroke-dasharray: 3,4.95; stroke-dashoffset: 0; stroke: #48b585; stroke-opacity: 0.9; stroke-width: 3"/>
   </g>
   <g id="line2d_58">
    <path d="M 64.2325 578.54175 
L 97.425294 578.507986 
L 110.702412 578.208387 
L 117.340971 577.985126 
L 123.979529 577.891784 
L 130.618088 577.065044 
L 137.256647 576.606043 
L 143.895206 576.412754 
L 150.533765 575.15307 
L 157.172324 574.212804 
L 163.810882 573.908923 
L 170.449441 573.268744 
L 177.088 572.371906 
L 183.726559 571.804639 
L 190.365118 570.159233 
L 197.003676 569.254811 
L 203.642235 568.63078 
L 210.280794 566.329903 
L 216.919353 564.388691 
L 223.557912 564.6029 
L 230.196471 564.579412 
L 236.835029 562.316336 
L 243.473588 560.998421 
L 256.750706 555.836618 
L 263.389265 553.415609 
L 270.027824 550.507216 
L 276.666382 546.794961 
L 283.304941 545.518028 
L 289.9435 543.509899 
L 296.582059 538.429938 
L 303.220618 536.854875 
L 309.859176 535.74236 
L 316.497735 534.015724 
L 323.136294 530.329159 
L 329.774853 529.259584 
L 336.413412 522.215779 
L 343.051971 522.690683 
L 349.690529 520.796448 
L 356.329088 515.643331 
L 369.606206 511.848988 
L 376.244765 509.22686 
L 382.883324 509.519852 
L 389.521882 505.934213 
L 396.160441 505.468851 
L 402.799 511.257254 
L 409.437559 509.344913 
L 416.076118 510.233677 
L 422.714676 511.604074 
L 429.353235 511.15853 
L 435.991794 506.968556 
L 442.630353 506.252651 
L 449.268912 506.449488 
L 455.907471 504.672206 
L 462.546029 504.223725 
L 469.184588 503.350376 
L 475.823147 501.314599 
M 489.100265 503.113291 
L 495.738824 499.768162 
L 502.377382 496.121845 
L 509.015941 493.896449 
L 515.6545 493.049769 
L 522.293059 491.909729 
L 528.931618 491.84428 
L 535.570176 491.54358 
L 542.208735 489.750516 
L 548.847294 484.78347 
L 562.124412 482.112652 
L 568.762971 477.957422 
L 575.401529 475.143717 
L 582.040088 474.553695 
L 588.678647 472.369893 
L 595.317206 471.934503 
L 601.955765 470.311729 
L 608.594324 467.071442 
L 615.232882 460.043173 
L 621.871441 457.75453 
L 628.51 450.26249 
L 635.148559 448.580139 
L 641.787118 447.504203 
L 648.425676 449.357823 
L 655.064235 447.98975 
L 661.702794 444.228928 
L 668.341353 441.972825 
L 674.979912 432.158745 
L 681.618471 433.377446 
L 688.257029 426.33046 
L 694.895588 420.583774 
L 701.534147 416.320521 
L 708.172706 409.300572 
L 714.811265 405.87825 
L 721.449824 400.743605 
L 728.088382 404.264651 
L 734.726941 396.13023 
L 741.3655 395.916266 
L 748.004059 392.855934 
L 754.642618 389.364003 
L 761.281176 385.431545 
L 767.919735 391.411769 
L 774.558294 381.714029 
L 781.196853 376.001351 
L 787.835412 371.075165 
L 794.473971 370.682715 
L 801.112529 367.435699 
L 807.751088 355.334443 
L 814.389647 353.980194 
L 821.028206 351.5998 
L 827.666765 359.414437 
L 834.305324 348.555004 
L 840.943882 342.806972 
L 847.582441 348.59354 
L 854.221 359.091351 
L 860.859559 352.801007 
L 867.498118 326.42974 
L 874.136676 335.880119 
L 880.775235 329.637853 
L 887.413794 319.619228 
L 894.052353 312.112753 
L 900.690912 309.576748 
L 907.329471 315.142012 
L 913.968029 297.742427 
L 920.606588 321.50649 
L 927.245147 295.306859 
L 933.883706 301.876738 
L 940.522265 301.548513 
L 947.160824 296.814883 
L 953.799382 295.491585 
L 960.437941 290.432421 
L 967.0765 291.093764 
L 967.0765 291.093764 
" clip-path="url(#pab3f2a9b2a)" style="fill: none; stroke: #4ac1fa; stroke-width: 1.5; stroke-linecap: square"/>
   </g>
   <g id="line2d_59">
    <path d="M 64.2325 577.675618 
L 70.871059 576.565673 
L 77.509618 575.220966 
L 84.148176 574.514604 
L 90.786735 573.314987 
L 97.425294 572.27098 
L 104.063853 570.926151 
L 110.702412 570.0265 
L 117.340971 569.344849 
L 123.979529 569.328946 
L 130.618088 567.52377 
L 137.256647 566.543255 
L 143.895206 568.207134 
L 150.533765 564.68413 
L 157.172324 563.768208 
L 163.810882 562.008786 
L 170.449441 558.780855 
L 183.726559 553.204581 
L 190.365118 550.839967 
L 197.003676 549.297201 
L 210.280794 542.814302 
L 216.919353 540.782807 
L 223.557912 538.366691 
L 230.196471 537.337731 
L 236.835029 533.910149 
L 243.473588 532.937463 
L 250.112147 531.695518 
L 256.750706 528.077216 
L 263.389265 524.92293 
L 270.027824 484.06047 
L 276.666382 485.438696 
L 283.304941 487.450373 
L 289.9435 462.301967 
L 296.582059 460.323565 
L 303.220618 452.622699 
L 309.859176 455.817355 
L 323.136294 440.006535 
L 329.774853 443.182841 
L 336.413412 444.871431 
L 343.051971 445.678597 
L 349.690529 452.705153 
L 356.329088 446.704009 
L 362.967647 439.500802 
L 369.606206 440.559245 
L 376.244765 436.073587 
L 382.883324 428.010854 
L 389.521882 422.758034 
L 396.160441 415.628961 
L 402.799 424.485526 
L 409.437559 424.111793 
L 416.076118 427.81891 
L 422.714676 431.896336 
L 429.353235 433.329368 
L 435.991794 428.673665 
L 442.630353 428.315835 
L 449.268912 429.147591 
L 455.907471 433.679491 
L 462.546029 436.884913 
L 469.184588 440.642555 
L 475.823147 437.468818 
M 489.100265 440.673383 
L 495.738824 424.764817 
L 502.377382 437.523746 
L 509.015941 438.152426 
L 515.6545 437.890017 
L 522.293059 438.899648 
L 528.931618 438.361863 
L 535.570176 433.38026 
L 542.208735 427.34266 
L 548.847294 431.316346 
L 555.485853 428.196803 
L 562.124412 425.733833 
L 568.762971 419.734769 
L 575.401529 411.678764 
L 582.040088 416.077319 
L 588.678647 409.189859 
L 595.317206 424.5177 
L 601.955765 410.478413 
L 608.594324 411.360693 
L 615.232882 407.937026 
L 621.871441 409.478325 
L 628.51 392.146146 
L 635.148559 391.075715 
L 641.787118 377.769826 
L 648.425676 386.853077 
L 655.064235 396.375145 
L 661.702794 387.939902 
L 668.341353 426.552498 
L 674.979912 494.620917 
L 681.618471 487.113463 
L 688.257029 489.479177 
L 694.895588 482.812898 
L 701.534147 482.905016 
L 708.172706 478.274392 
L 714.811265 475.316576 
L 721.449824 472.141004 
L 728.088382 470.652309 
L 734.726941 469.986929 
L 741.3655 460.989312 
L 748.004059 445.454724 
L 761.281176 455.130567 
L 767.919735 457.803342 
L 774.558294 450.238145 
L 781.196853 450.306531 
L 787.835412 447.275191 
L 794.473971 446.742912 
L 801.112529 439.905609 
L 807.751088 440.962583 
L 814.389647 440.475567 
L 821.028206 439.564906 
L 827.666765 441.152692 
L 840.943882 431.145566 
L 847.582441 433.96025 
L 854.221 449.716142 
L 860.859559 445.594431 
L 867.498118 428.009264 
L 874.136676 425.883938 
L 880.775235 419.055687 
L 887.413794 421.973132 
L 894.052353 420.76642 
L 900.690912 427.006117 
L 907.329471 423.094822 
L 913.968029 420.113518 
L 920.606588 430.984329 
L 927.245147 415.047625 
L 933.883706 421.817278 
L 940.522265 419.89307 
L 947.160824 414.297957 
L 953.799382 408.86824 
L 960.437941 408.303297 
L 967.0765 411.119082 
L 967.0765 411.119082 
" clip-path="url(#pab3f2a9b2a)" style="fill: none; stroke: #9a5689; stroke-width: 1.5; stroke-linecap: square"/>
   </g>
   <g id="line2d_60">
    <path d="M 64.2325 578.131438 
L 70.871059 577.919187 
L 90.786735 576.708315 
L 97.425294 576.162824 
L 104.063853 575.758751 
L 110.702412 575.24213 
L 117.340971 574.921123 
L 123.979529 574.791203 
L 130.618088 574.087655 
L 137.256647 573.675386 
L 143.895206 574.218186 
L 150.533765 572.985172 
L 170.449441 571.795097 
L 177.088 571.260615 
L 197.003676 570.066993 
L 210.280794 568.994849 
L 223.557912 568.222793 
L 230.196471 568.104739 
L 236.835029 566.982071 
L 243.473588 566.44343 
L 250.112147 566.149581 
L 256.750706 565.324309 
L 276.666382 563.352391 
L 283.304941 559.06981 
L 289.9435 555.959076 
L 296.582059 557.204935 
L 303.220618 554.003918 
L 309.859176 553.289114 
L 316.497735 553.375483 
L 323.136294 553.763652 
L 329.774853 550.985179 
L 336.413412 550.770481 
L 349.690529 553.739062 
L 356.329088 551.506571 
L 362.967647 553.236632 
L 369.606206 556.105878 
L 376.244765 555.729575 
L 382.883324 554.272076 
L 389.521882 552.262601 
L 402.799 555.578736 
L 409.437559 556.192735 
L 416.076118 556.025136 
L 422.714676 556.202767 
L 429.353235 557.277358 
L 435.991794 555.81313 
L 442.630353 555.669142 
L 449.268912 555.641005 
L 455.907471 555.159005 
L 462.546029 555.351927 
L 469.184588 555.769579 
L 475.823147 555.376761 
M 489.100265 555.274489 
L 495.738824 554.765086 
L 502.377382 554.875921 
L 509.015941 554.304005 
L 515.6545 553.970765 
L 522.293059 554.125029 
L 528.931618 554.083558 
L 535.570176 553.917794 
L 548.847294 552.81005 
L 555.485853 553.096804 
L 562.124412 553.5032 
L 568.762971 553.412183 
L 575.401529 552.826566 
L 582.040088 553.071725 
L 588.678647 553.150142 
L 595.317206 553.45867 
L 601.955765 552.821305 
L 608.594324 552.393867 
L 615.232882 551.50914 
L 621.871441 551.305941 
L 628.51 550.89563 
L 635.148559 550.609611 
L 641.787118 550.007355 
L 655.064235 550.375584 
L 661.702794 550.234409 
L 668.341353 551.053564 
L 674.979912 550.183885 
L 681.618471 549.016809 
L 688.257029 548.070181 
L 694.895588 547.709904 
L 701.534147 547.620355 
L 708.172706 546.846341 
L 714.811265 546.511633 
L 721.449824 546.336571 
L 734.726941 545.761597 
L 741.3655 545.67058 
L 748.004059 544.948314 
L 754.642618 544.79723 
L 761.281176 545.158852 
L 767.919735 545.174022 
L 774.558294 543.808151 
L 781.196853 543.978931 
L 787.835412 543.958868 
L 794.473971 543.673461 
L 801.112529 543.166504 
L 807.751088 543.218252 
L 814.389647 542.901649 
L 821.028206 542.10378 
L 827.666765 542.893208 
L 834.305324 540.927774 
L 840.943882 540.406627 
L 847.582441 539.771341 
L 854.221 542.799132 
L 860.859559 543.279909 
L 867.498118 540.388521 
L 874.136676 538.685373 
L 880.775235 537.504963 
L 887.413794 535.547603 
L 894.052353 538.265275 
L 900.690912 538.25194 
L 907.329471 538.421374 
L 913.968029 537.858511 
L 920.606588 540.281723 
L 927.245147 537.672684 
L 933.883706 540.280744 
L 940.522265 539.041613 
L 947.160824 537.679535 
L 953.799382 536.960572 
L 960.437941 536.559803 
L 967.0765 536.69119 
L 967.0765 536.69119 
" clip-path="url(#pab3f2a9b2a)" style="fill: none; stroke: #be503b; stroke-width: 1.5; stroke-linecap: square"/>
   </g>
   <g id="line2d_61">
    <path d="M 64.2325 574.179773 
L 90.786735 567.737123 
L 97.425294 565.307427 
L 104.063853 562.445644 
L 110.702412 559.152386 
L 117.340971 558.443699 
L 123.979529 556.962345 
L 130.618088 553.330219 
L 137.256647 551.123907 
L 143.895206 553.873264 
L 150.533765 546.895642 
L 157.172324 544.197054 
L 163.810882 543.038542 
L 170.449441 543.071695 
L 177.088 540.327476 
L 183.726559 536.998007 
L 197.003676 532.545746 
L 203.642235 529.709899 
L 210.280794 525.917758 
L 216.919353 520.675214 
L 223.557912 518.656687 
L 230.196471 518.65216 
L 236.835029 512.297346 
L 243.473588 512.303952 
L 250.112147 512.478769 
L 256.750706 507.995925 
L 263.389265 507.349507 
L 270.027824 504.317679 
L 276.666382 500.860125 
L 283.304941 502.184646 
L 289.9435 497.795021 
L 296.582059 495.422945 
L 303.220618 492.049191 
L 309.859176 495.065727 
L 316.497735 495.985197 
L 323.136294 490.030663 
L 329.774853 486.572497 
L 343.051971 484.220362 
L 349.690529 481.803512 
L 356.329088 476.75548 
L 362.967647 459.00406 
L 369.606206 388.607851 
L 376.244765 447.253294 
L 382.883324 448.137286 
L 389.521882 448.726207 
L 396.160441 455.623944 
L 402.799 458.007152 
L 409.437559 461.894958 
L 416.076118 464.551341 
L 422.714676 472.816416 
L 429.353235 470.370939 
L 435.991794 454.906938 
L 442.630353 453.842257 
L 449.268912 454.872684 
L 455.907471 458.851753 
L 462.546029 461.841376 
L 469.184588 460.682618 
L 475.823147 452.927191 
M 489.100265 459.698066 
L 495.738824 462.08629 
L 502.377382 452.365306 
L 509.015941 467.137992 
L 515.6545 450.034824 
L 522.293059 446.095148 
L 528.931618 456.708199 
L 535.570176 460.320384 
L 542.208735 450.560253 
L 548.847294 459.703938 
L 555.485853 462.680471 
L 562.124412 461.917346 
L 568.762971 460.324055 
L 575.401529 460.99812 
L 582.040088 457.875275 
L 588.678647 459.438227 
L 595.317206 464.866598 
L 601.955765 457.023823 
L 608.594324 456.295441 
L 615.232882 453.650068 
L 621.871441 452.42207 
L 628.51 447.047893 
L 635.148559 443.580307 
L 641.787118 441.078312 
L 648.425676 438.205397 
L 655.064235 437.832887 
L 661.702794 433.462102 
L 668.341353 433.977132 
L 674.979912 429.412324 
L 681.618471 426.35089 
L 688.257029 420.879213 
L 694.895588 414.73665 
L 701.534147 413.104089 
L 708.172706 402.654845 
L 714.811265 401.649496 
L 721.449824 398.357094 
L 728.088382 383.688638 
L 734.726941 381.525021 
L 741.3655 381.709258 
L 748.004059 384.670743 
L 754.642618 384.163175 
L 761.281176 379.985802 
L 767.919735 395.489929 
L 774.558294 381.717943 
L 781.196853 382.600346 
L 787.835412 381.376384 
L 794.473971 368.802303 
L 801.112529 377.283177 
L 807.751088 380.004642 
L 814.389647 377.356701 
L 821.028206 375.461242 
L 827.666765 373.20514 
L 834.305324 366.954922 
L 840.943882 364.476293 
L 847.582441 364.0858 
L 854.221 390.414983 
L 860.859559 382.93799 
L 867.498118 358.531913 
L 874.136676 372.136911 
L 880.775235 361.882301 
L 887.413794 360.164473 
L 894.052353 355.440752 
L 900.690912 361.897226 
L 907.329471 354.650957 
L 913.968029 353.602669 
L 920.606588 364.453294 
L 927.245147 355.305572 
L 933.883706 366.378602 
L 940.522265 370.133186 
L 947.160824 352.457491 
L 953.799382 348.842002 
L 960.437941 346.10916 
L 967.0765 347.432336 
L 967.0765 347.432336 
" clip-path="url(#pab3f2a9b2a)" style="fill: none; stroke: #e2321d; stroke-width: 1.5; stroke-linecap: square"/>
   </g>
   <g id="line2d_62">
    <path d="M 64.2325 578.54175 
L 137.256647 578.525724 
L 150.533765 578.214626 
L 157.172324 578.151257 
L 163.810882 577.683203 
L 170.449441 576.288829 
L 183.726559 573.767994 
L 190.365118 572.31759 
L 197.003676 570.999308 
L 203.642235 569.497523 
L 210.280794 567.468475 
L 216.919353 565.761902 
L 223.557912 563.752549 
L 230.196471 562.258839 
L 236.835029 557.725226 
L 243.473588 556.010701 
L 250.112147 553.10292 
L 256.750706 549.710938 
L 263.389265 546.494383 
L 270.027824 541.836478 
L 276.666382 537.326476 
L 283.304941 533.774357 
L 289.9435 527.754496 
L 296.582059 523.470324 
L 303.220618 518.033512 
L 309.859176 513.636548 
L 316.497735 511.25285 
L 323.136294 507.337885 
L 329.774853 502.535869 
L 336.413412 497.067617 
L 343.051971 484.815889 
L 349.690529 478.504259 
L 356.329088 484.284833 
L 362.967647 478.085262 
L 369.606206 466.428816 
L 376.244765 456.974644 
L 382.883324 454.990248 
L 389.521882 448.064619 
L 396.160441 440.419905 
L 402.799 454.114574 
L 409.437559 457.550965 
L 416.076118 455.334254 
L 422.714676 456.885707 
L 429.353235 459.673477 
L 435.991794 449.964482 
L 442.630353 453.692029 
L 449.268912 448.983722 
L 455.907471 447.001039 
L 462.546029 451.86777 
L 469.184588 453.482837 
L 475.823147 449.085138 
M 489.100265 448.777343 
L 495.738824 445.723372 
L 502.377382 445.562624 
L 509.015941 439.485388 
L 515.6545 442.875168 
L 522.293059 439.706937 
L 528.931618 438.794684 
L 535.570176 432.743751 
L 542.208735 430.735132 
L 548.847294 424.906726 
L 555.485853 414.64551 
L 562.124412 415.054476 
L 568.762971 407.701409 
L 575.401529 405.908222 
L 582.040088 390.064004 
L 588.678647 379.74468 
L 595.317206 391.387669 
L 601.955765 379.019723 
L 608.594324 389.256471 
L 615.232882 370.677699 
L 621.871441 373.526392 
L 628.51 348.766644 
L 635.148559 336.404447 
L 641.787118 316.181859 
L 648.425676 318.533016 
L 655.064235 313.424306 
L 661.702794 316.630217 
L 668.341353 305.950249 
L 674.979912 281.930872 
L 681.618471 290.035199 
L 688.257029 288.03282 
L 694.895588 296.161859 
L 701.534147 282.088562 
L 708.172706 264.244412 
L 714.811265 255.462227 
L 721.449824 240.125087 
L 728.088382 241.060583 
L 734.726941 210.86647 
L 741.3655 208.204827 
L 748.004059 193.611117 
L 754.642618 194.987753 
L 761.281176 182.882093 
L 767.919735 217.723836 
L 774.558294 194.455351 
L 781.196853 186.946062 
L 787.835412 187.802162 
L 794.473971 187.559572 
L 801.112529 180.009056 
L 814.389647 154.683019 
L 821.028206 157.354326 
L 827.666765 155.292859 
L 834.305324 145.36207 
L 840.943882 130.450901 
L 847.582441 120.784846 
L 854.221 174.321946 
L 860.859559 147.180947 
L 867.498118 110.385392 
L 874.136676 113.875243 
L 880.775235 106.270043 
L 887.413794 130.234613 
L 894.052353 127.576518 
L 900.690912 125.8571 
L 907.329471 126.728125 
L 913.968029 125.369962 
L 920.606588 154.550652 
L 927.245147 150.903968 
L 933.883706 130.321838 
L 940.522265 146.238356 
L 947.160824 128.038211 
L 953.799382 95.708495 
L 960.437941 88.214497 
L 967.0765 59.05754 
L 967.0765 59.05754 
" clip-path="url(#pab3f2a9b2a)" style="fill: none; stroke: #48b585; stroke-width: 6; stroke-linecap: square"/>
   </g>
   <g id="patch_3">
    <path d="M 64.2325 578.54175 
L 64.2325 24.14175 
" style="fill: none; stroke: #ffffff; stroke-linejoin: miter; stroke-linecap: square"/>
   </g>
   <g id="patch_4">
    <path d="M 967.0765 578.54175 
L 967.0765 24.14175 
" style="fill: none; stroke: #ffffff; stroke-linejoin: miter; stroke-linecap: square"/>
   </g>
   <g id="patch_5">
    <path d="M 64.2325 578.54175 
L 967.0765 578.54175 
" style="fill: none; stroke: #ffffff; stroke-linejoin: miter; stroke-linecap: square"/>
   </g>
   <g id="patch_6">
    <path d="M 64.2325 24.14175 
L 967.0765 24.14175 
" style="fill: none; stroke: #ffffff; stroke-linejoin: miter; stroke-linecap: square"/>
   </g>
   <g id="text_29">
    <!-- Enterprise Linux Instances by Distribution (System Age &gt; 1 Week, 2 Week Resample) -->
    <g transform="translate(64.2325 18.14175) scale(0.144 -0.144)">
     <defs>
      <path id="DejaVuSans-45" d="M 628 4666 
L 3578 4666 
L 3578 4134 
L 1259 4134 
L 1259 2753 
L 3481 2753 
L 3481 2222 
L 1259 2222 
L 1259 531 
L 3634 531 
L 3634 0 
L 628 0 
L 628 4666 
z
" transform="scale(0.015625)"/>
      <path id="DejaVuSans-72" d="M 2631 2963 
Q 2534 3019 2420 3045 
Q 2306 3072 2169 3072 
Q 1681 3072 1420 2755 
Q 1159 2438 1159 1844 
L 1159 0 
L 581 0 
L 581 3500 
L 1159 3500 
L 1159 2956 
Q 1341 3275 1631 3429 
Q 1922 3584 2338 3584 
Q 2397 3584 2469 3576 
Q 2541 3569 2628 3553 
L 2631 2963 
z
" transform="scale(0.015625)"/>
      <path id="DejaVuSans-70" d="M 1159 525 
L 1159 -1331 
L 581 -1331 
L 581 3500 
L 1159 3500 
L 1159 2969 
Q 1341 3281 1617 3432 
Q 1894 3584 2278 3584 
Q 2916 3584 3314 3078 
Q 3713 2572 3713 1747 
Q 3713 922 3314 415 
Q 2916 -91 2278 -91 
Q 1894 -91 1617 61 
Q 1341 213 1159 525 
z
M 3116 1747 
Q 3116 2381 2855 2742 
Q 2594 3103 2138 3103 
Q 1681 3103 1420 2742 
Q 1159 2381 1159 1747 
Q 1159 1113 1420 752 
Q 1681 391 2138 391 
Q 2594 391 2855 752 
Q 3116 1113 3116 1747 
z
" transform="scale(0.015625)"/>
      <path id="DejaVuSans-69" d="M 603 3500 
L 1178 3500 
L 1178 0 
L 603 0 
L 603 3500 
z
M 603 4863 
L 1178 4863 
L 1178 4134 
L 603 4134 
L 603 4863 
z
" transform="scale(0.015625)"/>
      <path id="DejaVuSans-20" transform="scale(0.015625)"/>
      <path id="DejaVuSans-4c" d="M 628 4666 
L 1259 4666 
L 1259 531 
L 3531 531 
L 3531 0 
L 628 0 
L 628 4666 
z
" transform="scale(0.015625)"/>
      <path id="DejaVuSans-75" d="M 544 1381 
L 544 3500 
L 1119 3500 
L 1119 1403 
Q 1119 906 1312 657 
Q 1506 409 1894 409 
Q 2359 409 2629 706 
Q 2900 1003 2900 1516 
L 2900 3500 
L 3475 3500 
L 3475 0 
L 2900 0 
L 2900 538 
Q 2691 219 2414 64 
Q 2138 -91 1772 -91 
Q 1169 -91 856 284 
Q 544 659 544 1381 
z
M 1991 3584 
L 1991 3584 
z
" transform="scale(0.015625)"/>
      <path id="DejaVuSans-78" d="M 3513 3500 
L 2247 1797 
L 3578 0 
L 2900 0 
L 1881 1375 
L 863 0 
L 184 0 
L 1544 1831 
L 300 3500 
L 978 3500 
L 1906 2253 
L 2834 3500 
L 3513 3500 
z
" transform="scale(0.015625)"/>
      <path id="DejaVuSans-62" d="M 3116 1747 
Q 3116 2381 2855 2742 
Q 2594 3103 2138 3103 
Q 1681 3103 1420 2742 
Q 1159 2381 1159 1747 
Q 1159 1113 1420 752 
Q 1681 391 2138 391 
Q 2594 391 2855 752 
Q 3116 1113 3116 1747 
z
M 1159 2969 
Q 1341 3281 1617 3432 
Q 1894 3584 2278 3584 
Q 2916 3584 3314 3078 
Q 3713 2572 3713 1747 
Q 3713 922 3314 415 
Q 2916 -91 2278 -91 
Q 1894 -91 1617 61 
Q 1341 213 1159 525 
L 1159 0 
L 581 0 
L 581 4863 
L 1159 4863 
L 1159 2969 
z
" transform="scale(0.015625)"/>
      <path id="DejaVuSans-79" d="M 2059 -325 
Q 1816 -950 1584 -1140 
Q 1353 -1331 966 -1331 
L 506 -1331 
L 506 -850 
L 844 -850 
Q 1081 -850 1212 -737 
Q 1344 -625 1503 -206 
L 1606 56 
L 191 3500 
L 800 3500 
L 1894 763 
L 2988 3500 
L 3597 3500 
L 2059 -325 
z
" transform="scale(0.015625)"/>
      <path id="DejaVuSans-6f" d="M 1959 3097 
Q 1497 3097 1228 2736 
Q 959 2375 959 1747 
Q 959 1119 1226 758 
Q 1494 397 1959 397 
Q 2419 397 2687 759 
Q 2956 1122 2956 1747 
Q 2956 2369 2687 2733 
Q 2419 3097 1959 3097 
z
M 1959 3584 
Q 2709 3584 3137 3096 
Q 3566 2609 3566 1747 
Q 3566 888 3137 398 
Q 2709 -91 1959 -91 
Q 1206 -91 779 398 
Q 353 888 353 1747 
Q 353 2609 779 3096 
Q 1206 3584 1959 3584 
z
" transform="scale(0.015625)"/>
      <path id="DejaVuSans-28" d="M 1984 4856 
Q 1566 4138 1362 3434 
Q 1159 2731 1159 2009 
Q 1159 1288 1364 580 
Q 1569 -128 1984 -844 
L 1484 -844 
Q 1016 -109 783 600 
Q 550 1309 550 2009 
Q 550 2706 781 3412 
Q 1013 4119 1484 4856 
L 1984 4856 
z
" transform="scale(0.015625)"/>
      <path id="DejaVuSans-53" d="M 3425 4513 
L 3425 3897 
Q 3066 4069 2747 4153 
Q 2428 4238 2131 4238 
Q 1616 4238 1336 4038 
Q 1056 3838 1056 3469 
Q 1056 3159 1242 3001 
Q 1428 2844 1947 2747 
L 2328 2669 
Q 3034 2534 3370 2195 
Q 3706 1856 3706 1288 
Q 3706 609 3251 259 
Q 2797 -91 1919 -91 
Q 1588 -91 1214 -16 
Q 841 59 441 206 
L 441 856 
Q 825 641 1194 531 
Q 1563 422 1919 422 
Q 2459 422 2753 634 
Q 3047 847 3047 1241 
Q 3047 1584 2836 1778 
Q 2625 1972 2144 2069 
L 1759 2144 
Q 1053 2284 737 2584 
Q 422 2884 422 3419 
Q 422 4038 858 4394 
Q 1294 4750 2059 4750 
Q 2388 4750 2728 4690 
Q 3069 4631 3425 4513 
z
" transform="scale(0.015625)"/>
      <path id="DejaVuSans-6d" d="M 3328 2828 
Q 3544 3216 3844 3400 
Q 4144 3584 4550 3584 
Q 5097 3584 5394 3201 
Q 5691 2819 5691 2113 
L 5691 0 
L 5113 0 
L 5113 2094 
Q 5113 2597 4934 2840 
Q 4756 3084 4391 3084 
Q 3944 3084 3684 2787 
Q 3425 2491 3425 1978 
L 3425 0 
L 2847 0 
L 2847 2094 
Q 2847 2600 2669 2842 
Q 2491 3084 2119 3084 
Q 1678 3084 1418 2786 
Q 1159 2488 1159 1978 
L 1159 0 
L 581 0 
L 581 3500 
L 1159 3500 
L 1159 2956 
Q 1356 3278 1631 3431 
Q 1906 3584 2284 3584 
Q 2666 3584 2933 3390 
Q 3200 3197 3328 2828 
z
" transform="scale(0.015625)"/>
      <path id="DejaVuSans-41" d="M 2188 4044 
L 1331 1722 
L 3047 1722 
L 2188 4044 
z
M 1831 4666 
L 2547 4666 
L 4325 0 
L 3669 0 
L 3244 1197 
L 1141 1197 
L 716 0 
L 50 0 
L 1831 4666 
z
" transform="scale(0.015625)"/>
      <path id="DejaVuSans-67" d="M 2906 1791 
Q 2906 2416 2648 2759 
Q 2391 3103 1925 3103 
Q 1463 3103 1205 2759 
Q 947 2416 947 1791 
Q 947 1169 1205 825 
Q 1463 481 1925 481 
Q 2391 481 2648 825 
Q 2906 1169 2906 1791 
z
M 3481 434 
Q 3481 -459 3084 -895 
Q 2688 -1331 1869 -1331 
Q 1566 -1331 1297 -1286 
Q 1028 -1241 775 -1147 
L 775 -588 
Q 1028 -725 1275 -790 
Q 1522 -856 1778 -856 
Q 2344 -856 2625 -561 
Q 2906 -266 2906 331 
L 2906 616 
Q 2728 306 2450 153 
Q 2172 0 1784 0 
Q 1141 0 747 490 
Q 353 981 353 1791 
Q 353 2603 747 3093 
Q 1141 3584 1784 3584 
Q 2172 3584 2450 3431 
Q 2728 3278 2906 2969 
L 2906 3500 
L 3481 3500 
L 3481 434 
z
" transform="scale(0.015625)"/>
      <path id="DejaVuSans-3e" d="M 678 3150 
L 678 3719 
L 4684 2266 
L 4684 1747 
L 678 294 
L 678 863 
L 3897 2003 
L 678 3150 
z
" transform="scale(0.015625)"/>
      <path id="DejaVuSans-57" d="M 213 4666 
L 850 4666 
L 1831 722 
L 2809 4666 
L 3519 4666 
L 4500 722 
L 5478 4666 
L 6119 4666 
L 4947 0 
L 4153 0 
L 3169 4050 
L 2175 0 
L 1381 0 
L 213 4666 
z
" transform="scale(0.015625)"/>
      <path id="DejaVuSans-52" d="M 2841 2188 
Q 3044 2119 3236 1894 
Q 3428 1669 3622 1275 
L 4263 0 
L 3584 0 
L 2988 1197 
Q 2756 1666 2539 1819 
Q 2322 1972 1947 1972 
L 1259 1972 
L 1259 0 
L 628 0 
L 628 4666 
L 2053 4666 
Q 2853 4666 3247 4331 
Q 3641 3997 3641 3322 
Q 3641 2881 3436 2590 
Q 3231 2300 2841 2188 
z
M 1259 4147 
L 1259 2491 
L 2053 2491 
Q 2509 2491 2742 2702 
Q 2975 2913 2975 3322 
Q 2975 3731 2742 3939 
Q 2509 4147 2053 4147 
L 1259 4147 
z
" transform="scale(0.015625)"/>
      <path id="DejaVuSans-6c" d="M 603 4863 
L 1178 4863 
L 1178 0 
L 603 0 
L 603 4863 
z
" transform="scale(0.015625)"/>
      <path id="DejaVuSans-29" d="M 513 4856 
L 1013 4856 
Q 1481 4119 1714 3412 
Q 1947 2706 1947 2009 
Q 1947 1309 1714 600 
Q 1481 -109 1013 -844 
L 513 -844 
Q 928 -128 1133 580 
Q 1338 1288 1338 2009 
Q 1338 2731 1133 3434 
Q 928 4138 513 4856 
z
" transform="scale(0.015625)"/>
     </defs>
     <use xlink:href="#DejaVuSans-45"/>
     <use xlink:href="#DejaVuSans-6e" x="63.183594"/>
     <use xlink:href="#DejaVuSans-74" x="126.5625"/>
     <use xlink:href="#DejaVuSans-65" x="165.771484"/>
     <use xlink:href="#DejaVuSans-72" x="227.294922"/>
     <use xlink:href="#DejaVuSans-70" x="268.408203"/>
     <use xlink:href="#DejaVuSans-72" x="331.884766"/>
     <use xlink:href="#DejaVuSans-69" x="372.998047"/>
     <use xlink:href="#DejaVuSans-73" x="400.78125"/>
     <use xlink:href="#DejaVuSans-65" x="452.880859"/>
     <use xlink:href="#DejaVuSans-20" x="514.404297"/>
     <use xlink:href="#DejaVuSans-4c" x="546.191406"/>
     <use xlink:href="#DejaVuSans-69" x="601.904297"/>
     <use xlink:href="#DejaVuSans-6e" x="629.6875"/>
     <use xlink:href="#DejaVuSans-75" x="693.066406"/>
     <use xlink:href="#DejaVuSans-78" x="756.445312"/>
     <use xlink:href="#DejaVuSans-20" x="815.625"/>
     <use xlink:href="#DejaVuSans-49" x="847.412109"/>
     <use xlink:href="#DejaVuSans-6e" x="876.904297"/>
     <use xlink:href="#DejaVuSans-73" x="940.283203"/>
     <use xlink:href="#DejaVuSans-74" x="992.382812"/>
     <use xlink:href="#DejaVuSans-61" x="1031.591797"/>
     <use xlink:href="#DejaVuSans-6e" x="1092.871094"/>
     <use xlink:href="#DejaVuSans-63" x="1156.25"/>
     <use xlink:href="#DejaVuSans-65" x="1211.230469"/>
     <use xlink:href="#DejaVuSans-73" x="1272.753906"/>
     <use xlink:href="#DejaVuSans-20" x="1324.853516"/>
     <use xlink:href="#DejaVuSans-62" x="1356.640625"/>
     <use xlink:href="#DejaVuSans-79" x="1420.117188"/>
     <use xlink:href="#DejaVuSans-20" x="1479.296875"/>
     <use xlink:href="#DejaVuSans-44" x="1511.083984"/>
     <use xlink:href="#DejaVuSans-69" x="1588.085938"/>
     <use xlink:href="#DejaVuSans-73" x="1615.869141"/>
     <use xlink:href="#DejaVuSans-74" x="1667.96875"/>
     <use xlink:href="#DejaVuSans-72" x="1707.177734"/>
     <use xlink:href="#DejaVuSans-69" x="1748.291016"/>
     <use xlink:href="#DejaVuSans-62" x="1776.074219"/>
     <use xlink:href="#DejaVuSans-75" x="1839.550781"/>
     <use xlink:href="#DejaVuSans-74" x="1902.929688"/>
     <use xlink:href="#DejaVuSans-69" x="1942.138672"/>
     <use xlink:href="#DejaVuSans-6f" x="1969.921875"/>
     <use xlink:href="#DejaVuSans-6e" x="2031.103516"/>
     <use xlink:href="#DejaVuSans-20" x="2094.482422"/>
     <use xlink:href="#DejaVuSans-28" x="2126.269531"/>
     <use xlink:href="#DejaVuSans-53" x="2165.283203"/>
     <use xlink:href="#DejaVuSans-79" x="2228.759766"/>
     <use xlink:href="#DejaVuSans-73" x="2287.939453"/>
     <use xlink:href="#DejaVuSans-74" x="2340.039062"/>
     <use xlink:href="#DejaVuSans-65" x="2379.248047"/>
     <use xlink:href="#DejaVuSans-6d" x="2440.771484"/>
     <use xlink:href="#DejaVuSans-20" x="2538.183594"/>
     <use xlink:href="#DejaVuSans-41" x="2569.970703"/>
     <use xlink:href="#DejaVuSans-67" x="2638.378906"/>
     <use xlink:href="#DejaVuSans-65" x="2701.855469"/>
     <use xlink:href="#DejaVuSans-20" x="2763.378906"/>
     <use xlink:href="#DejaVuSans-3e" x="2795.166016"/>
     <use xlink:href="#DejaVuSans-20" x="2878.955078"/>
     <use xlink:href="#DejaVuSans-31" x="2910.742188"/>
     <use xlink:href="#DejaVuSans-20" x="2974.365234"/>
     <use xlink:href="#DejaVuSans-57" x="3006.152344"/>
     <use xlink:href="#DejaVuSans-65" x="3099.154297"/>
     <use xlink:href="#DejaVuSans-65" x="3160.677734"/>
     <use xlink:href="#DejaVuSans-6b" x="3222.201172"/>
     <use xlink:href="#DejaVuSans-2c" x="3280.111328"/>
     <use xlink:href="#DejaVuSans-20" x="3311.898438"/>
     <use xlink:href="#DejaVuSans-32" x="3343.685547"/>
     <use xlink:href="#DejaVuSans-20" x="3407.308594"/>
     <use xlink:href="#DejaVuSans-57" x="3439.095703"/>
     <use xlink:href="#DejaVuSans-65" x="3532.097656"/>
     <use xlink:href="#DejaVuSans-65" x="3593.621094"/>
     <use xlink:href="#DejaVuSans-6b" x="3655.144531"/>
     <use xlink:href="#DejaVuSans-20" x="3713.054688"/>
     <use xlink:href="#DejaVuSans-52" x="3744.841797"/>
     <use xlink:href="#DejaVuSans-65" x="3809.824219"/>
     <use xlink:href="#DejaVuSans-73" x="3871.347656"/>
     <use xlink:href="#DejaVuSans-61" x="3923.447266"/>
     <use xlink:href="#DejaVuSans-6d" x="3984.726562"/>
     <use xlink:href="#DejaVuSans-70" x="4082.138672"/>
     <use xlink:href="#DejaVuSans-6c" x="4145.615234"/>
     <use xlink:href="#DejaVuSans-65" x="4173.398438"/>
     <use xlink:href="#DejaVuSans-29" x="4234.921875"/>
    </g>
   </g>
   <g id="text_30">
    <!-- 2026-03-05 12:04 UTC -->
    <g transform="translate(804.1945 18.14175) scale(0.144 -0.144)">
     <defs>
      <path id="DejaVuSans-3a" d="M 750 794 
L 1409 794 
L 1409 0 
L 750 0 
L 750 794 
z
M 750 3309 
L 1409 3309 
L 1409 2516 
L 750 2516 
L 750 3309 
z
" transform="scale(0.015625)"/>
      <path id="DejaVuSans-55" d="M 556 4666 
L 1191 4666 
L 1191 1831 
Q 1191 1081 1462 751 
Q 1734 422 2344 422 
Q 2950 422 3222 751 
Q 3494 1081 3494 1831 
L 3494 4666 
L 4128 4666 
L 4128 1753 
Q 4128 841 3676 375 
Q 3225 -91 2344 -91 
Q 1459 -91 1007 375 
Q 556 841 556 1753 
L 556 4666 
z
" transform="scale(0.015625)"/>
      <path id="DejaVuSans-54" d="M -19 4666 
L 3928 4666 
L 3928 4134 
L 2272 4134 
L 2272 0 
L 1638 0 
L 1638 4134 
L -19 4134 
L -19 4666 
z
" transform="scale(0.015625)"/>
      <path id="DejaVuSans-43" d="M 4122 4306 
L 4122 3641 
Q 3803 3938 3442 4084 
Q 3081 4231 2675 4231 
Q 1875 4231 1450 3742 
Q 1025 3253 1025 2328 
Q 1025 1406 1450 917 
Q 1875 428 2675 428 
Q 3081 428 3442 575 
Q 3803 722 4122 1019 
L 4122 359 
Q 3791 134 3420 21 
Q 3050 -91 2638 -91 
Q 1578 -91 968 557 
Q 359 1206 359 2328 
Q 359 3453 968 4101 
Q 1578 4750 2638 4750 
Q 3056 4750 3426 4639 
Q 3797 4528 4122 4306 
z
" transform="scale(0.015625)"/>
     </defs>
     <use xlink:href="#DejaVuSans-32"/>
     <use xlink:href="#DejaVuSans-30" x="63.623047"/>
     <use xlink:href="#DejaVuSans-32" x="127.246094"/>
     <use xlink:href="#DejaVuSans-36" x="190.869141"/>
     <use xlink:href="#DejaVuSans-2d" x="254.492188"/>
     <use xlink:href="#DejaVuSans-30" x="290.576172"/>
     <use xlink:href="#DejaVuSans-33" x="354.199219"/>
     <use xlink:href="#DejaVuSans-2d" x="417.822266"/>
     <use xlink:href="#DejaVuSans-30" x="453.90625"/>
     <use xlink:href="#DejaVuSans-35" x="517.529297"/>
     <use xlink:href="#DejaVuSans-20" x="581.152344"/>
     <use xlink:href="#DejaVuSans-31" x="612.939453"/>
     <use xlink:href="#DejaVuSans-32" x="676.5625"/>
     <use xlink:href="#DejaVuSans-3a" x="740.185547"/>
     <use xlink:href="#DejaVuSans-30" x="773.876953"/>
     <use xlink:href="#DejaVuSans-34" x="837.5"/>
     <use xlink:href="#DejaVuSans-20" x="901.123047"/>
     <use xlink:href="#DejaVuSans-55" x="932.910156"/>
     <use xlink:href="#DejaVuSans-54" x="1006.103516"/>
     <use xlink:href="#DejaVuSans-43" x="1061.3125"/>
    </g>
   </g>
   <g id="legend_1">
    <g id="patch_7">
     <path d="M 71.2325 120.2105 
L 180.20125 120.2105 
Q 182.20125 120.2105 182.20125 118.2105 
L 182.20125 31.14175 
Q 182.20125 29.14175 180.20125 29.14175 
L 71.2325 29.14175 
Q 69.2325 29.14175 69.2325 31.14175 
L 69.2325 118.2105 
Q 69.2325 120.2105 71.2325 120.2105 
z
" style="fill: #e5e5e5; opacity: 0.8; stroke: #cccccc; stroke-width: 0.5; stroke-linejoin: miter"/>
    </g>
    <g id="text_31">
     <!-- Distribution -->
     <g transform="translate(96.548125 40.740188) scale(0.1 -0.1)">
      <use xlink:href="#DejaVuSans-44"/>
      <use xlink:href="#DejaVuSans-69" x="77.001953"/>
      <use xlink:href="#DejaVuSans-73" x="104.785156"/>
      <use xlink:href="#DejaVuSans-74" x="156.884766"/>
      <use xlink:href="#DejaVuSans-72" x="196.09375"/>
      <use xlink:href="#DejaVuSans-69" x="237.207031"/>
      <use xlink:href="#DejaVuSans-62" x="264.990234"/>
      <use xlink:href="#DejaVuSans-75" x="328.466797"/>
      <use xlink:href="#DejaVuSans-74" x="391.845703"/>
      <use xlink:href="#DejaVuSans-69" x="431.054688"/>
      <use xlink:href="#DejaVuSans-6f" x="458.837891"/>
      <use xlink:href="#DejaVuSans-6e" x="520.019531"/>
     </g>
    </g>
    <g id="line2d_63">
     <path d="M 73.2325 51.918313 
L 83.2325 51.918313 
L 93.2325 51.918313 
" style="fill: none; stroke: #4ac1fa; stroke-width: 1.5; stroke-linecap: square"/>
    </g>
    <g id="text_32">
     <!-- AlmaLinux -->
     <g transform="translate(101.2325 55.418313) scale(0.1 -0.1)">
      <use xlink:href="#DejaVuSans-41"/>
      <use xlink:href="#DejaVuSans-6c" x="68.408203"/>
      <use xlink:href="#DejaVuSans-6d" x="96.191406"/>
      <use xlink:href="#DejaVuSans-61" x="193.603516"/>
      <use xlink:href="#DejaVuSans-4c" x="254.882812"/>
      <use xlink:href="#DejaVuSans-69" x="310.595703"/>
      <use xlink:href="#DejaVuSans-6e" x="338.378906"/>
      <use xlink:href="#DejaVuSans-75" x="401.757812"/>
      <use xlink:href="#DejaVuSans-78" x="465.136719"/>
     </g>
    </g>
    <g id="line2d_64">
     <path d="M 73.2325 66.596438 
L 83.2325 66.596438 
L 93.2325 66.596438 
" style="fill: none; stroke: #9a5689; stroke-width: 1.5; stroke-linecap: square"/>
    </g>
    <g id="text_33">
     <!-- CentOS Stream -->
     <g transform="translate(101.2325 70.096438) scale(0.1 -0.1)">
      <defs>
       <path id="DejaVuSans-4f" d="M 2522 4238 
Q 1834 4238 1429 3725 
Q 1025 3213 1025 2328 
Q 1025 1447 1429 934 
Q 1834 422 2522 422 
Q 3209 422 3611 934 
Q 4013 1447 4013 2328 
Q 4013 3213 3611 3725 
Q 3209 4238 2522 4238 
z
M 2522 4750 
Q 3503 4750 4090 4092 
Q 4678 3434 4678 2328 
Q 4678 1225 4090 567 
Q 3503 -91 2522 -91 
Q 1538 -91 948 565 
Q 359 1222 359 2328 
Q 359 3434 948 4092 
Q 1538 4750 2522 4750 
z
" transform="scale(0.015625)"/>
      </defs>
      <use xlink:href="#DejaVuSans-43"/>
      <use xlink:href="#DejaVuSans-65" x="69.824219"/>
      <use xlink:href="#DejaVuSans-6e" x="131.347656"/>
      <use xlink:href="#DejaVuSans-74" x="194.726562"/>
      <use xlink:href="#DejaVuSans-4f" x="233.935547"/>
      <use xlink:href="#DejaVuSans-53" x="312.646484"/>
      <use xlink:href="#DejaVuSans-20" x="376.123047"/>
      <use xlink:href="#DejaVuSans-53" x="407.910156"/>
      <use xlink:href="#DejaVuSans-74" x="471.386719"/>
      <use xlink:href="#DejaVuSans-72" x="510.595703"/>
      <use xlink:href="#DejaVuSans-65" x="549.458984"/>
      <use xlink:href="#DejaVuSans-61" x="610.982422"/>
      <use xlink:href="#DejaVuSans-6d" x="672.261719"/>
     </g>
    </g>
    <g id="line2d_65">
     <path d="M 73.2325 81.274563 
L 83.2325 81.274563 
L 93.2325 81.274563 
" style="fill: none; stroke: #be503b; stroke-width: 1.5; stroke-linecap: square"/>
    </g>
    <g id="text_34">
     <!-- Oracle -->
     <g transform="translate(101.2325 84.774563) scale(0.1 -0.1)">
      <use xlink:href="#DejaVuSans-4f"/>
      <use xlink:href="#DejaVuSans-72" x="78.710938"/>
      <use xlink:href="#DejaVuSans-61" x="119.824219"/>
      <use xlink:href="#DejaVuSans-63" x="181.103516"/>
      <use xlink:href="#DejaVuSans-6c" x="236.083984"/>
      <use xlink:href="#DejaVuSans-65" x="263.867188"/>
     </g>
    </g>
    <g id="line2d_66">
     <path d="M 73.2325 95.952688 
L 83.2325 95.952688 
L 93.2325 95.952688 
" style="fill: none; stroke: #e2321d; stroke-width: 1.5; stroke-linecap: square"/>
    </g>
    <g id="text_35">
     <!-- RHEL -->
     <g transform="translate(101.2325 99.452688) scale(0.1 -0.1)">
      <defs>
       <path id="DejaVuSans-48" d="M 628 4666 
L 1259 4666 
L 1259 2753 
L 3553 2753 
L 3553 4666 
L 4184 4666 
L 4184 0 
L 3553 0 
L 3553 2222 
L 1259 2222 
L 1259 0 
L 628 0 
L 628 4666 
z
" transform="scale(0.015625)"/>
      </defs>
      <use xlink:href="#DejaVuSans-52"/>
      <use xlink:href="#DejaVuSans-48" x="69.482422"/>
      <use xlink:href="#DejaVuSans-45" x="144.677734"/>
      <use xlink:href="#DejaVuSans-4c" x="207.861328"/>
     </g>
    </g>
    <g id="line2d_67">
     <path d="M 73.2325 110.630813 
L 83.2325 110.630813 
L 93.2325 110.630813 
" style="fill: none; stroke: #48b585; stroke-width: 6; stroke-linecap: square"/>
    </g>
    <g id="text_36">
     <!-- Rocky Linux -->
     <g transform="translate(101.2325 114.130813) scale(0.1 -0.1)">
      <use xlink:href="#DejaVuSans-52"/>
      <use xlink:href="#DejaVuSans-6f" x="64.982422"/>
      <use xlink:href="#DejaVuSans-63" x="126.164062"/>
      <use xlink:href="#DejaVuSans-6b" x="181.144531"/>
      <use xlink:href="#DejaVuSans-79" x="235.429688"/>
      <use xlink:href="#DejaVuSans-20" x="294.609375"/>
      <use xlink:href="#DejaVuSans-4c" x="326.396484"/>
      <use xlink:href="#DejaVuSans-69" x="382.109375"/>
      <use xlink:href="#DejaVuSans-6e" x="409.892578"/>
      <use xlink:href="#DejaVuSans-75" x="473.271484"/>
      <use xlink:href="#DejaVuSans-78" x="536.650391"/>
     </g>
    </g>
   </g>
  </g>
 </g>
 <defs>
  <clipPath id="pab3f2a9b2a">
   <rect x="64.2325" y="24.14175" width="902.844" height="554.4"/>
  </clipPath>
 </defs>
</svg>
