<?xml version="1.0" encoding="utf-8" standalone="no"?>
<!DOCTYPE svg PUBLIC "-//W3C//DTD SVG 1.1//EN"
  "http://www.w3.org/Graphics/SVG/1.1/DTD/svg11.dtd">
<svg xmlns:xlink="http://www.w3.org/1999/xlink" width="962.123375pt" height="644.743878pt" viewBox="0 0 962.123375 644.743878" xmlns="http://www.w3.org/2000/svg" version="1.1">
 <metadata>
  <rdf:RDF xmlns:dc="http://purl.org/dc/elements/1.1/" xmlns:cc="http://creativecommons.org/ns#" xmlns:rdf="http://www.w3.org/1999/02/22-rdf-syntax-ns#">
   <cc:Work>
    <dc:type rdf:resource="http://purl.org/dc/dcmitype/StillImage"/>
    <dc:date>2025-05-08T11:55:23.106832</dc:date>
    <dc:format>image/svg+xml</dc:format>
    <dc:creator>
     <cc:Agent>
      <dc:title>Matplotlib v3.6.3, https://matplotlib.org/</dc:title>
     </cc:Agent>
    </dc:creator>
   </cc:Work>
  </rdf:RDF>
 </metadata>
 <defs>
  <style type="text/css">*{stroke-linejoin: round; stroke-linecap: butt}</style>
 </defs>
 <g id="figure_1">
  <g id="patch_1">
   <path d="M 0 644.743878 
L 962.123375 644.743878 
L 962.123375 0 
L 0 0 
z
" style="fill: #ffffff"/>
  </g>
  <g id="axes_1">
   <g id="patch_2">
    <path d="M 52.079375 578.54175 
L 954.923375 578.54175 
L 954.923375 24.14175 
L 52.079375 24.14175 
z
" style="fill: #e5e5e5"/>
   </g>
   <g id="matplotlib.axis_1">
    <g id="xtick_1">
     <g id="line2d_1">
      <path d="M 74.840148 578.54175 
L 74.840148 24.14175 
" clip-path="url(#p4820e29bda)" style="fill: none; stroke: #ffffff; stroke-width: 0.8; stroke-linecap: square"/>
     </g>
     <g id="line2d_2">
      <defs>
       <path id="m0652f502cf" d="M 0 0 
L 0 3.5 
" style="stroke: #555555; stroke-width: 0.8"/>
      </defs>
      <g>
       <use xlink:href="#m0652f502cf" x="74.840148" y="578.54175" style="fill: #555555; stroke: #555555; stroke-width: 0.8"/>
      </g>
     </g>
     <g id="text_1">
      <!-- 2024-05 -->
      <g style="fill: #555555" transform="translate(62.018866 620.459567) rotate(-45) scale(0.1 -0.1)">
       <defs>
        <path id="DejaVuSans-32" d="M 1228 531 
L 3431 531 
L 3431 0 
L 469 0 
L 469 531 
Q 828 903 1448 1529 
Q 2069 2156 2228 2338 
Q 2531 2678 2651 2914 
Q 2772 3150 2772 3378 
Q 2772 3750 2511 3984 
Q 2250 4219 1831 4219 
Q 1534 4219 1204 4116 
Q 875 4013 500 3803 
L 500 4441 
Q 881 4594 1212 4672 
Q 1544 4750 1819 4750 
Q 2544 4750 2975 4387 
Q 3406 4025 3406 3419 
Q 3406 3131 3298 2873 
Q 3191 2616 2906 2266 
Q 2828 2175 2409 1742 
Q 1991 1309 1228 531 
z
" transform="scale(0.015625)"/>
        <path id="DejaVuSans-30" d="M 2034 4250 
Q 1547 4250 1301 3770 
Q 1056 3291 1056 2328 
Q 1056 1369 1301 889 
Q 1547 409 2034 409 
Q 2525 409 2770 889 
Q 3016 1369 3016 2328 
Q 3016 3291 2770 3770 
Q 2525 4250 2034 4250 
z
M 2034 4750 
Q 2819 4750 3233 4129 
Q 3647 3509 3647 2328 
Q 3647 1150 3233 529 
Q 2819 -91 2034 -91 
Q 1250 -91 836 529 
Q 422 1150 422 2328 
Q 422 3509 836 4129 
Q 1250 4750 2034 4750 
z
" transform="scale(0.015625)"/>
        <path id="DejaVuSans-34" d="M 2419 4116 
L 825 1625 
L 2419 1625 
L 2419 4116 
z
M 2253 4666 
L 3047 4666 
L 3047 1625 
L 3713 1625 
L 3713 1100 
L 3047 1100 
L 3047 0 
L 2419 0 
L 2419 1100 
L 313 1100 
L 313 1709 
L 2253 4666 
z
" transform="scale(0.015625)"/>
        <path id="DejaVuSans-2d" d="M 313 2009 
L 1997 2009 
L 1997 1497 
L 313 1497 
L 313 2009 
z
" transform="scale(0.015625)"/>
        <path id="DejaVuSans-35" d="M 691 4666 
L 3169 4666 
L 3169 4134 
L 1269 4134 
L 1269 2991 
Q 1406 3038 1543 3061 
Q 1681 3084 1819 3084 
Q 2600 3084 3056 2656 
Q 3513 2228 3513 1497 
Q 3513 744 3044 326 
Q 2575 -91 1722 -91 
Q 1428 -91 1123 -41 
Q 819 9 494 109 
L 494 744 
Q 775 591 1075 516 
Q 1375 441 1709 441 
Q 2250 441 2565 725 
Q 2881 1009 2881 1497 
Q 2881 1984 2565 2268 
Q 2250 2553 1709 2553 
Q 1456 2553 1204 2497 
Q 953 2441 691 2322 
L 691 4666 
z
" transform="scale(0.015625)"/>
       </defs>
       <use xlink:href="#DejaVuSans-32"/>
       <use xlink:href="#DejaVuSans-30" x="63.623047"/>
       <use xlink:href="#DejaVuSans-32" x="127.246094"/>
       <use xlink:href="#DejaVuSans-34" x="190.869141"/>
       <use xlink:href="#DejaVuSans-2d" x="254.492188"/>
       <use xlink:href="#DejaVuSans-30" x="290.576172"/>
       <use xlink:href="#DejaVuSans-35" x="354.199219"/>
      </g>
     </g>
    </g>
    <g id="xtick_2">
     <g id="line2d_3">
      <path d="M 153.238367 578.54175 
L 153.238367 24.14175 
" clip-path="url(#p4820e29bda)" style="fill: none; stroke: #ffffff; stroke-width: 0.8; stroke-linecap: square"/>
     </g>
     <g id="line2d_4">
      <g>
       <use xlink:href="#m0652f502cf" x="153.238367" y="578.54175" style="fill: #555555; stroke: #555555; stroke-width: 0.8"/>
      </g>
     </g>
     <g id="text_2">
      <!-- 2024-06 -->
      <g style="fill: #555555" transform="translate(140.417084 620.459567) rotate(-45) scale(0.1 -0.1)">
       <defs>
        <path id="DejaVuSans-36" d="M 2113 2584 
Q 1688 2584 1439 2293 
Q 1191 2003 1191 1497 
Q 1191 994 1439 701 
Q 1688 409 2113 409 
Q 2538 409 2786 701 
Q 3034 994 3034 1497 
Q 3034 2003 2786 2293 
Q 2538 2584 2113 2584 
z
M 3366 4563 
L 3366 3988 
Q 3128 4100 2886 4159 
Q 2644 4219 2406 4219 
Q 1781 4219 1451 3797 
Q 1122 3375 1075 2522 
Q 1259 2794 1537 2939 
Q 1816 3084 2150 3084 
Q 2853 3084 3261 2657 
Q 3669 2231 3669 1497 
Q 3669 778 3244 343 
Q 2819 -91 2113 -91 
Q 1303 -91 875 529 
Q 447 1150 447 2328 
Q 447 3434 972 4092 
Q 1497 4750 2381 4750 
Q 2619 4750 2861 4703 
Q 3103 4656 3366 4563 
z
" transform="scale(0.015625)"/>
       </defs>
       <use xlink:href="#DejaVuSans-32"/>
       <use xlink:href="#DejaVuSans-30" x="63.623047"/>
       <use xlink:href="#DejaVuSans-32" x="127.246094"/>
       <use xlink:href="#DejaVuSans-34" x="190.869141"/>
       <use xlink:href="#DejaVuSans-2d" x="254.492188"/>
       <use xlink:href="#DejaVuSans-30" x="290.576172"/>
       <use xlink:href="#DejaVuSans-36" x="354.199219"/>
      </g>
     </g>
    </g>
    <g id="xtick_3">
     <g id="line2d_5">
      <path d="M 229.10761 578.54175 
L 229.10761 24.14175 
" clip-path="url(#p4820e29bda)" style="fill: none; stroke: #ffffff; stroke-width: 0.8; stroke-linecap: square"/>
     </g>
     <g id="line2d_6">
      <g>
       <use xlink:href="#m0652f502cf" x="229.10761" y="578.54175" style="fill: #555555; stroke: #555555; stroke-width: 0.8"/>
      </g>
     </g>
     <g id="text_3">
      <!-- 2024-07 -->
      <g style="fill: #555555" transform="translate(216.286328 620.459567) rotate(-45) scale(0.1 -0.1)">
       <defs>
        <path id="DejaVuSans-37" d="M 525 4666 
L 3525 4666 
L 3525 4397 
L 1831 0 
L 1172 0 
L 2766 4134 
L 525 4134 
L 525 4666 
z
" transform="scale(0.015625)"/>
       </defs>
       <use xlink:href="#DejaVuSans-32"/>
       <use xlink:href="#DejaVuSans-30" x="63.623047"/>
       <use xlink:href="#DejaVuSans-32" x="127.246094"/>
       <use xlink:href="#DejaVuSans-34" x="190.869141"/>
       <use xlink:href="#DejaVuSans-2d" x="254.492188"/>
       <use xlink:href="#DejaVuSans-30" x="290.576172"/>
       <use xlink:href="#DejaVuSans-37" x="354.199219"/>
      </g>
     </g>
    </g>
    <g id="xtick_4">
     <g id="line2d_7">
      <path d="M 307.505829 578.54175 
L 307.505829 24.14175 
" clip-path="url(#p4820e29bda)" style="fill: none; stroke: #ffffff; stroke-width: 0.8; stroke-linecap: square"/>
     </g>
     <g id="line2d_8">
      <g>
       <use xlink:href="#m0652f502cf" x="307.505829" y="578.54175" style="fill: #555555; stroke: #555555; stroke-width: 0.8"/>
      </g>
     </g>
     <g id="text_4">
      <!-- 2024-08 -->
      <g style="fill: #555555" transform="translate(294.684547 620.459567) rotate(-45) scale(0.1 -0.1)">
       <defs>
        <path id="DejaVuSans-38" d="M 2034 2216 
Q 1584 2216 1326 1975 
Q 1069 1734 1069 1313 
Q 1069 891 1326 650 
Q 1584 409 2034 409 
Q 2484 409 2743 651 
Q 3003 894 3003 1313 
Q 3003 1734 2745 1975 
Q 2488 2216 2034 2216 
z
M 1403 2484 
Q 997 2584 770 2862 
Q 544 3141 544 3541 
Q 544 4100 942 4425 
Q 1341 4750 2034 4750 
Q 2731 4750 3128 4425 
Q 3525 4100 3525 3541 
Q 3525 3141 3298 2862 
Q 3072 2584 2669 2484 
Q 3125 2378 3379 2068 
Q 3634 1759 3634 1313 
Q 3634 634 3220 271 
Q 2806 -91 2034 -91 
Q 1263 -91 848 271 
Q 434 634 434 1313 
Q 434 1759 690 2068 
Q 947 2378 1403 2484 
z
M 1172 3481 
Q 1172 3119 1398 2916 
Q 1625 2713 2034 2713 
Q 2441 2713 2670 2916 
Q 2900 3119 2900 3481 
Q 2900 3844 2670 4047 
Q 2441 4250 2034 4250 
Q 1625 4250 1398 4047 
Q 1172 3844 1172 3481 
z
" transform="scale(0.015625)"/>
       </defs>
       <use xlink:href="#DejaVuSans-32"/>
       <use xlink:href="#DejaVuSans-30" x="63.623047"/>
       <use xlink:href="#DejaVuSans-32" x="127.246094"/>
       <use xlink:href="#DejaVuSans-34" x="190.869141"/>
       <use xlink:href="#DejaVuSans-2d" x="254.492188"/>
       <use xlink:href="#DejaVuSans-30" x="290.576172"/>
       <use xlink:href="#DejaVuSans-38" x="354.199219"/>
      </g>
     </g>
    </g>
    <g id="xtick_5">
     <g id="line2d_9">
      <path d="M 385.904047 578.54175 
L 385.904047 24.14175 
" clip-path="url(#p4820e29bda)" style="fill: none; stroke: #ffffff; stroke-width: 0.8; stroke-linecap: square"/>
     </g>
     <g id="line2d_10">
      <g>
       <use xlink:href="#m0652f502cf" x="385.904047" y="578.54175" style="fill: #555555; stroke: #555555; stroke-width: 0.8"/>
      </g>
     </g>
     <g id="text_5">
      <!-- 2024-09 -->
      <g style="fill: #555555" transform="translate(373.082765 620.459567) rotate(-45) scale(0.1 -0.1)">
       <defs>
        <path id="DejaVuSans-39" d="M 703 97 
L 703 672 
Q 941 559 1184 500 
Q 1428 441 1663 441 
Q 2288 441 2617 861 
Q 2947 1281 2994 2138 
Q 2813 1869 2534 1725 
Q 2256 1581 1919 1581 
Q 1219 1581 811 2004 
Q 403 2428 403 3163 
Q 403 3881 828 4315 
Q 1253 4750 1959 4750 
Q 2769 4750 3195 4129 
Q 3622 3509 3622 2328 
Q 3622 1225 3098 567 
Q 2575 -91 1691 -91 
Q 1453 -91 1209 -44 
Q 966 3 703 97 
z
M 1959 2075 
Q 2384 2075 2632 2365 
Q 2881 2656 2881 3163 
Q 2881 3666 2632 3958 
Q 2384 4250 1959 4250 
Q 1534 4250 1286 3958 
Q 1038 3666 1038 3163 
Q 1038 2656 1286 2365 
Q 1534 2075 1959 2075 
z
" transform="scale(0.015625)"/>
       </defs>
       <use xlink:href="#DejaVuSans-32"/>
       <use xlink:href="#DejaVuSans-30" x="63.623047"/>
       <use xlink:href="#DejaVuSans-32" x="127.246094"/>
       <use xlink:href="#DejaVuSans-34" x="190.869141"/>
       <use xlink:href="#DejaVuSans-2d" x="254.492188"/>
       <use xlink:href="#DejaVuSans-30" x="290.576172"/>
       <use xlink:href="#DejaVuSans-39" x="354.199219"/>
      </g>
     </g>
    </g>
    <g id="xtick_6">
     <g id="line2d_11">
      <path d="M 461.773291 578.54175 
L 461.773291 24.14175 
" clip-path="url(#p4820e29bda)" style="fill: none; stroke: #ffffff; stroke-width: 0.8; stroke-linecap: square"/>
     </g>
     <g id="line2d_12">
      <g>
       <use xlink:href="#m0652f502cf" x="461.773291" y="578.54175" style="fill: #555555; stroke: #555555; stroke-width: 0.8"/>
      </g>
     </g>
     <g id="text_6">
      <!-- 2024-10 -->
      <g style="fill: #555555" transform="translate(448.952009 620.459567) rotate(-45) scale(0.1 -0.1)">
       <defs>
        <path id="DejaVuSans-31" d="M 794 531 
L 1825 531 
L 1825 4091 
L 703 3866 
L 703 4441 
L 1819 4666 
L 2450 4666 
L 2450 531 
L 3481 531 
L 3481 0 
L 794 0 
L 794 531 
z
" transform="scale(0.015625)"/>
       </defs>
       <use xlink:href="#DejaVuSans-32"/>
       <use xlink:href="#DejaVuSans-30" x="63.623047"/>
       <use xlink:href="#DejaVuSans-32" x="127.246094"/>
       <use xlink:href="#DejaVuSans-34" x="190.869141"/>
       <use xlink:href="#DejaVuSans-2d" x="254.492188"/>
       <use xlink:href="#DejaVuSans-31" x="290.576172"/>
       <use xlink:href="#DejaVuSans-30" x="354.199219"/>
      </g>
     </g>
    </g>
    <g id="xtick_7">
     <g id="line2d_13">
      <path d="M 540.171509 578.54175 
L 540.171509 24.14175 
" clip-path="url(#p4820e29bda)" style="fill: none; stroke: #ffffff; stroke-width: 0.8; stroke-linecap: square"/>
     </g>
     <g id="line2d_14">
      <g>
       <use xlink:href="#m0652f502cf" x="540.171509" y="578.54175" style="fill: #555555; stroke: #555555; stroke-width: 0.8"/>
      </g>
     </g>
     <g id="text_7">
      <!-- 2024-11 -->
      <g style="fill: #555555" transform="translate(527.350227 620.459567) rotate(-45) scale(0.1 -0.1)">
       <use xlink:href="#DejaVuSans-32"/>
       <use xlink:href="#DejaVuSans-30" x="63.623047"/>
       <use xlink:href="#DejaVuSans-32" x="127.246094"/>
       <use xlink:href="#DejaVuSans-34" x="190.869141"/>
       <use xlink:href="#DejaVuSans-2d" x="254.492188"/>
       <use xlink:href="#DejaVuSans-31" x="290.576172"/>
       <use xlink:href="#DejaVuSans-31" x="354.199219"/>
      </g>
     </g>
    </g>
    <g id="xtick_8">
     <g id="line2d_15">
      <path d="M 616.040753 578.54175 
L 616.040753 24.14175 
" clip-path="url(#p4820e29bda)" style="fill: none; stroke: #ffffff; stroke-width: 0.8; stroke-linecap: square"/>
     </g>
     <g id="line2d_16">
      <g>
       <use xlink:href="#m0652f502cf" x="616.040753" y="578.54175" style="fill: #555555; stroke: #555555; stroke-width: 0.8"/>
      </g>
     </g>
     <g id="text_8">
      <!-- 2024-12 -->
      <g style="fill: #555555" transform="translate(603.219471 620.459567) rotate(-45) scale(0.1 -0.1)">
       <use xlink:href="#DejaVuSans-32"/>
       <use xlink:href="#DejaVuSans-30" x="63.623047"/>
       <use xlink:href="#DejaVuSans-32" x="127.246094"/>
       <use xlink:href="#DejaVuSans-34" x="190.869141"/>
       <use xlink:href="#DejaVuSans-2d" x="254.492188"/>
       <use xlink:href="#DejaVuSans-31" x="290.576172"/>
       <use xlink:href="#DejaVuSans-32" x="354.199219"/>
      </g>
     </g>
    </g>
    <g id="xtick_9">
     <g id="line2d_17">
      <path d="M 694.438972 578.54175 
L 694.438972 24.14175 
" clip-path="url(#p4820e29bda)" style="fill: none; stroke: #ffffff; stroke-width: 0.8; stroke-linecap: square"/>
     </g>
     <g id="line2d_18">
      <g>
       <use xlink:href="#m0652f502cf" x="694.438972" y="578.54175" style="fill: #555555; stroke: #555555; stroke-width: 0.8"/>
      </g>
     </g>
     <g id="text_9">
      <!-- 2025-01 -->
      <g style="fill: #555555" transform="translate(681.617689 620.459567) rotate(-45) scale(0.1 -0.1)">
       <use xlink:href="#DejaVuSans-32"/>
       <use xlink:href="#DejaVuSans-30" x="63.623047"/>
       <use xlink:href="#DejaVuSans-32" x="127.246094"/>
       <use xlink:href="#DejaVuSans-35" x="190.869141"/>
       <use xlink:href="#DejaVuSans-2d" x="254.492188"/>
       <use xlink:href="#DejaVuSans-30" x="290.576172"/>
       <use xlink:href="#DejaVuSans-31" x="354.199219"/>
      </g>
     </g>
    </g>
    <g id="xtick_10">
     <g id="line2d_19">
      <path d="M 772.83719 578.54175 
L 772.83719 24.14175 
" clip-path="url(#p4820e29bda)" style="fill: none; stroke: #ffffff; stroke-width: 0.8; stroke-linecap: square"/>
     </g>
     <g id="line2d_20">
      <g>
       <use xlink:href="#m0652f502cf" x="772.83719" y="578.54175" style="fill: #555555; stroke: #555555; stroke-width: 0.8"/>
      </g>
     </g>
     <g id="text_10">
      <!-- 2025-02 -->
      <g style="fill: #555555" transform="translate(760.015908 620.459567) rotate(-45) scale(0.1 -0.1)">
       <use xlink:href="#DejaVuSans-32"/>
       <use xlink:href="#DejaVuSans-30" x="63.623047"/>
       <use xlink:href="#DejaVuSans-32" x="127.246094"/>
       <use xlink:href="#DejaVuSans-35" x="190.869141"/>
       <use xlink:href="#DejaVuSans-2d" x="254.492188"/>
       <use xlink:href="#DejaVuSans-30" x="290.576172"/>
       <use xlink:href="#DejaVuSans-32" x="354.199219"/>
      </g>
     </g>
    </g>
    <g id="xtick_11">
     <g id="line2d_21">
      <path d="M 843.648484 578.54175 
L 843.648484 24.14175 
" clip-path="url(#p4820e29bda)" style="fill: none; stroke: #ffffff; stroke-width: 0.8; stroke-linecap: square"/>
     </g>
     <g id="line2d_22">
      <g>
       <use xlink:href="#m0652f502cf" x="843.648484" y="578.54175" style="fill: #555555; stroke: #555555; stroke-width: 0.8"/>
      </g>
     </g>
     <g id="text_11">
      <!-- 2025-03 -->
      <g style="fill: #555555" transform="translate(830.827202 620.459567) rotate(-45) scale(0.1 -0.1)">
       <defs>
        <path id="DejaVuSans-33" d="M 2597 2516 
Q 3050 2419 3304 2112 
Q 3559 1806 3559 1356 
Q 3559 666 3084 287 
Q 2609 -91 1734 -91 
Q 1441 -91 1130 -33 
Q 819 25 488 141 
L 488 750 
Q 750 597 1062 519 
Q 1375 441 1716 441 
Q 2309 441 2620 675 
Q 2931 909 2931 1356 
Q 2931 1769 2642 2001 
Q 2353 2234 1838 2234 
L 1294 2234 
L 1294 2753 
L 1863 2753 
Q 2328 2753 2575 2939 
Q 2822 3125 2822 3475 
Q 2822 3834 2567 4026 
Q 2313 4219 1838 4219 
Q 1578 4219 1281 4162 
Q 984 4106 628 3988 
L 628 4550 
Q 988 4650 1302 4700 
Q 1616 4750 1894 4750 
Q 2613 4750 3031 4423 
Q 3450 4097 3450 3541 
Q 3450 3153 3228 2886 
Q 3006 2619 2597 2516 
z
" transform="scale(0.015625)"/>
       </defs>
       <use xlink:href="#DejaVuSans-32"/>
       <use xlink:href="#DejaVuSans-30" x="63.623047"/>
       <use xlink:href="#DejaVuSans-32" x="127.246094"/>
       <use xlink:href="#DejaVuSans-35" x="190.869141"/>
       <use xlink:href="#DejaVuSans-2d" x="254.492188"/>
       <use xlink:href="#DejaVuSans-30" x="290.576172"/>
       <use xlink:href="#DejaVuSans-33" x="354.199219"/>
      </g>
     </g>
    </g>
    <g id="xtick_12">
     <g id="line2d_23">
      <path d="M 922.046703 578.54175 
L 922.046703 24.14175 
" clip-path="url(#p4820e29bda)" style="fill: none; stroke: #ffffff; stroke-width: 0.8; stroke-linecap: square"/>
     </g>
     <g id="line2d_24">
      <g>
       <use xlink:href="#m0652f502cf" x="922.046703" y="578.54175" style="fill: #555555; stroke: #555555; stroke-width: 0.8"/>
      </g>
     </g>
     <g id="text_12">
      <!-- 2025-04 -->
      <g style="fill: #555555" transform="translate(909.22542 620.459567) rotate(-45) scale(0.1 -0.1)">
       <use xlink:href="#DejaVuSans-32"/>
       <use xlink:href="#DejaVuSans-30" x="63.623047"/>
       <use xlink:href="#DejaVuSans-32" x="127.246094"/>
       <use xlink:href="#DejaVuSans-35" x="190.869141"/>
       <use xlink:href="#DejaVuSans-2d" x="254.492188"/>
       <use xlink:href="#DejaVuSans-30" x="290.576172"/>
       <use xlink:href="#DejaVuSans-34" x="354.199219"/>
      </g>
     </g>
    </g>
    <g id="text_13">
     <!-- Date -->
     <g style="fill: #555555" transform="translate(489.160438 635.048253) scale(0.12 -0.12)">
      <defs>
       <path id="DejaVuSans-44" d="M 1259 4147 
L 1259 519 
L 2022 519 
Q 2988 519 3436 956 
Q 3884 1394 3884 2338 
Q 3884 3275 3436 3711 
Q 2988 4147 2022 4147 
L 1259 4147 
z
M 628 4666 
L 1925 4666 
Q 3281 4666 3915 4102 
Q 4550 3538 4550 2338 
Q 4550 1131 3912 565 
Q 3275 0 1925 0 
L 628 0 
L 628 4666 
z
" transform="scale(0.015625)"/>
       <path id="DejaVuSans-61" d="M 2194 1759 
Q 1497 1759 1228 1600 
Q 959 1441 959 1056 
Q 959 750 1161 570 
Q 1363 391 1709 391 
Q 2188 391 2477 730 
Q 2766 1069 2766 1631 
L 2766 1759 
L 2194 1759 
z
M 3341 1997 
L 3341 0 
L 2766 0 
L 2766 531 
Q 2569 213 2275 61 
Q 1981 -91 1556 -91 
Q 1019 -91 701 211 
Q 384 513 384 1019 
Q 384 1609 779 1909 
Q 1175 2209 1959 2209 
L 2766 2209 
L 2766 2266 
Q 2766 2663 2505 2880 
Q 2244 3097 1772 3097 
Q 1472 3097 1187 3025 
Q 903 2953 641 2809 
L 641 3341 
Q 956 3463 1253 3523 
Q 1550 3584 1831 3584 
Q 2591 3584 2966 3190 
Q 3341 2797 3341 1997 
z
" transform="scale(0.015625)"/>
       <path id="DejaVuSans-74" d="M 1172 4494 
L 1172 3500 
L 2356 3500 
L 2356 3053 
L 1172 3053 
L 1172 1153 
Q 1172 725 1289 603 
Q 1406 481 1766 481 
L 2356 481 
L 2356 0 
L 1766 0 
Q 1100 0 847 248 
Q 594 497 594 1153 
L 594 3053 
L 172 3053 
L 172 3500 
L 594 3500 
L 594 4494 
L 1172 4494 
z
" transform="scale(0.015625)"/>
       <path id="DejaVuSans-65" d="M 3597 1894 
L 3597 1613 
L 953 1613 
Q 991 1019 1311 708 
Q 1631 397 2203 397 
Q 2534 397 2845 478 
Q 3156 559 3463 722 
L 3463 178 
Q 3153 47 2828 -22 
Q 2503 -91 2169 -91 
Q 1331 -91 842 396 
Q 353 884 353 1716 
Q 353 2575 817 3079 
Q 1281 3584 2069 3584 
Q 2775 3584 3186 3129 
Q 3597 2675 3597 1894 
z
M 3022 2063 
Q 3016 2534 2758 2815 
Q 2500 3097 2075 3097 
Q 1594 3097 1305 2825 
Q 1016 2553 972 2059 
L 3022 2063 
z
" transform="scale(0.015625)"/>
      </defs>
      <use xlink:href="#DejaVuSans-44"/>
      <use xlink:href="#DejaVuSans-61" x="77.001953"/>
      <use xlink:href="#DejaVuSans-74" x="138.28125"/>
      <use xlink:href="#DejaVuSans-65" x="177.490234"/>
     </g>
    </g>
   </g>
   <g id="matplotlib.axis_2">
    <g id="ytick_1">
     <g id="line2d_25">
      <path d="M 52.079375 578.54175 
L 954.923375 578.54175 
" clip-path="url(#p4820e29bda)" style="fill: none; stroke: #ffffff; stroke-width: 0.8; stroke-linecap: square"/>
     </g>
     <g id="line2d_26">
      <defs>
       <path id="mb37cbfecc3" d="M 0 0 
L -3.5 0 
" style="stroke: #555555; stroke-width: 0.8"/>
      </defs>
      <g>
       <use xlink:href="#mb37cbfecc3" x="52.079375" y="578.54175" style="fill: #555555; stroke: #555555; stroke-width: 0.8"/>
      </g>
     </g>
     <g id="text_14">
      <!-- 0.00 -->
      <g style="fill: #555555" transform="translate(22.81375 582.340969) scale(0.1 -0.1)">
       <defs>
        <path id="DejaVuSans-2e" d="M 684 794 
L 1344 794 
L 1344 0 
L 684 0 
L 684 794 
z
" transform="scale(0.015625)"/>
       </defs>
       <use xlink:href="#DejaVuSans-30"/>
       <use xlink:href="#DejaVuSans-2e" x="63.623047"/>
       <use xlink:href="#DejaVuSans-30" x="95.410156"/>
       <use xlink:href="#DejaVuSans-30" x="159.033203"/>
      </g>
     </g>
    </g>
    <g id="ytick_2">
     <g id="line2d_27">
      <path d="M 52.079375 514.313083 
L 954.923375 514.313083 
" clip-path="url(#p4820e29bda)" style="fill: none; stroke: #ffffff; stroke-width: 0.8; stroke-linecap: square"/>
     </g>
     <g id="line2d_28">
      <g>
       <use xlink:href="#mb37cbfecc3" x="52.079375" y="514.313083" style="fill: #555555; stroke: #555555; stroke-width: 0.8"/>
      </g>
     </g>
     <g id="text_15">
      <!-- 0.05 -->
      <g style="fill: #555555" transform="translate(22.81375 518.112302) scale(0.1 -0.1)">
       <use xlink:href="#DejaVuSans-30"/>
       <use xlink:href="#DejaVuSans-2e" x="63.623047"/>
       <use xlink:href="#DejaVuSans-30" x="95.410156"/>
       <use xlink:href="#DejaVuSans-35" x="159.033203"/>
      </g>
     </g>
    </g>
    <g id="ytick_3">
     <g id="line2d_29">
      <path d="M 52.079375 450.084416 
L 954.923375 450.084416 
" clip-path="url(#p4820e29bda)" style="fill: none; stroke: #ffffff; stroke-width: 0.8; stroke-linecap: square"/>
     </g>
     <g id="line2d_30">
      <g>
       <use xlink:href="#mb37cbfecc3" x="52.079375" y="450.084416" style="fill: #555555; stroke: #555555; stroke-width: 0.8"/>
      </g>
     </g>
     <g id="text_16">
      <!-- 0.10 -->
      <g style="fill: #555555" transform="translate(22.81375 453.883635) scale(0.1 -0.1)">
       <use xlink:href="#DejaVuSans-30"/>
       <use xlink:href="#DejaVuSans-2e" x="63.623047"/>
       <use xlink:href="#DejaVuSans-31" x="95.410156"/>
       <use xlink:href="#DejaVuSans-30" x="159.033203"/>
      </g>
     </g>
    </g>
    <g id="ytick_4">
     <g id="line2d_31">
      <path d="M 52.079375 385.855749 
L 954.923375 385.855749 
" clip-path="url(#p4820e29bda)" style="fill: none; stroke: #ffffff; stroke-width: 0.8; stroke-linecap: square"/>
     </g>
     <g id="line2d_32">
      <g>
       <use xlink:href="#mb37cbfecc3" x="52.079375" y="385.855749" style="fill: #555555; stroke: #555555; stroke-width: 0.8"/>
      </g>
     </g>
     <g id="text_17">
      <!-- 0.15 -->
      <g style="fill: #555555" transform="translate(22.81375 389.654968) scale(0.1 -0.1)">
       <use xlink:href="#DejaVuSans-30"/>
       <use xlink:href="#DejaVuSans-2e" x="63.623047"/>
       <use xlink:href="#DejaVuSans-31" x="95.410156"/>
       <use xlink:href="#DejaVuSans-35" x="159.033203"/>
      </g>
     </g>
    </g>
    <g id="ytick_5">
     <g id="line2d_33">
      <path d="M 52.079375 321.627082 
L 954.923375 321.627082 
" clip-path="url(#p4820e29bda)" style="fill: none; stroke: #ffffff; stroke-width: 0.8; stroke-linecap: square"/>
     </g>
     <g id="line2d_34">
      <g>
       <use xlink:href="#mb37cbfecc3" x="52.079375" y="321.627082" style="fill: #555555; stroke: #555555; stroke-width: 0.8"/>
      </g>
     </g>
     <g id="text_18">
      <!-- 0.20 -->
      <g style="fill: #555555" transform="translate(22.81375 325.426301) scale(0.1 -0.1)">
       <use xlink:href="#DejaVuSans-30"/>
       <use xlink:href="#DejaVuSans-2e" x="63.623047"/>
       <use xlink:href="#DejaVuSans-32" x="95.410156"/>
       <use xlink:href="#DejaVuSans-30" x="159.033203"/>
      </g>
     </g>
    </g>
    <g id="ytick_6">
     <g id="line2d_35">
      <path d="M 52.079375 257.398415 
L 954.923375 257.398415 
" clip-path="url(#p4820e29bda)" style="fill: none; stroke: #ffffff; stroke-width: 0.8; stroke-linecap: square"/>
     </g>
     <g id="line2d_36">
      <g>
       <use xlink:href="#mb37cbfecc3" x="52.079375" y="257.398415" style="fill: #555555; stroke: #555555; stroke-width: 0.8"/>
      </g>
     </g>
     <g id="text_19">
      <!-- 0.25 -->
      <g style="fill: #555555" transform="translate(22.81375 261.197634) scale(0.1 -0.1)">
       <use xlink:href="#DejaVuSans-30"/>
       <use xlink:href="#DejaVuSans-2e" x="63.623047"/>
       <use xlink:href="#DejaVuSans-32" x="95.410156"/>
       <use xlink:href="#DejaVuSans-35" x="159.033203"/>
      </g>
     </g>
    </g>
    <g id="ytick_7">
     <g id="line2d_37">
      <path d="M 52.079375 193.169748 
L 954.923375 193.169748 
" clip-path="url(#p4820e29bda)" style="fill: none; stroke: #ffffff; stroke-width: 0.8; stroke-linecap: square"/>
     </g>
     <g id="line2d_38">
      <g>
       <use xlink:href="#mb37cbfecc3" x="52.079375" y="193.169748" style="fill: #555555; stroke: #555555; stroke-width: 0.8"/>
      </g>
     </g>
     <g id="text_20">
      <!-- 0.30 -->
      <g style="fill: #555555" transform="translate(22.81375 196.968967) scale(0.1 -0.1)">
       <use xlink:href="#DejaVuSans-30"/>
       <use xlink:href="#DejaVuSans-2e" x="63.623047"/>
       <use xlink:href="#DejaVuSans-33" x="95.410156"/>
       <use xlink:href="#DejaVuSans-30" x="159.033203"/>
      </g>
     </g>
    </g>
    <g id="ytick_8">
     <g id="line2d_39">
      <path d="M 52.079375 128.941081 
L 954.923375 128.941081 
" clip-path="url(#p4820e29bda)" style="fill: none; stroke: #ffffff; stroke-width: 0.8; stroke-linecap: square"/>
     </g>
     <g id="line2d_40">
      <g>
       <use xlink:href="#mb37cbfecc3" x="52.079375" y="128.941081" style="fill: #555555; stroke: #555555; stroke-width: 0.8"/>
      </g>
     </g>
     <g id="text_21">
      <!-- 0.35 -->
      <g style="fill: #555555" transform="translate(22.81375 132.7403) scale(0.1 -0.1)">
       <use xlink:href="#DejaVuSans-30"/>
       <use xlink:href="#DejaVuSans-2e" x="63.623047"/>
       <use xlink:href="#DejaVuSans-33" x="95.410156"/>
       <use xlink:href="#DejaVuSans-35" x="159.033203"/>
      </g>
     </g>
    </g>
    <g id="ytick_9">
     <g id="line2d_41">
      <path d="M 52.079375 64.712414 
L 954.923375 64.712414 
" clip-path="url(#p4820e29bda)" style="fill: none; stroke: #ffffff; stroke-width: 0.8; stroke-linecap: square"/>
     </g>
     <g id="line2d_42">
      <g>
       <use xlink:href="#mb37cbfecc3" x="52.079375" y="64.712414" style="fill: #555555; stroke: #555555; stroke-width: 0.8"/>
      </g>
     </g>
     <g id="text_22">
      <!-- 0.40 -->
      <g style="fill: #555555" transform="translate(22.81375 68.511633) scale(0.1 -0.1)">
       <use xlink:href="#DejaVuSans-30"/>
       <use xlink:href="#DejaVuSans-2e" x="63.623047"/>
       <use xlink:href="#DejaVuSans-34" x="95.410156"/>
       <use xlink:href="#DejaVuSans-30" x="159.033203"/>
      </g>
     </g>
    </g>
    <g id="text_23">
     <!-- Share -->
     <g style="fill: #555555" transform="translate(16.318125 318.653625) rotate(-90) scale(0.12 -0.12)">
      <defs>
       <path id="DejaVuSans-53" d="M 3425 4513 
L 3425 3897 
Q 3066 4069 2747 4153 
Q 2428 4238 2131 4238 
Q 1616 4238 1336 4038 
Q 1056 3838 1056 3469 
Q 1056 3159 1242 3001 
Q 1428 2844 1947 2747 
L 2328 2669 
Q 3034 2534 3370 2195 
Q 3706 1856 3706 1288 
Q 3706 609 3251 259 
Q 2797 -91 1919 -91 
Q 1588 -91 1214 -16 
Q 841 59 441 206 
L 441 856 
Q 825 641 1194 531 
Q 1563 422 1919 422 
Q 2459 422 2753 634 
Q 3047 847 3047 1241 
Q 3047 1584 2836 1778 
Q 2625 1972 2144 2069 
L 1759 2144 
Q 1053 2284 737 2584 
Q 422 2884 422 3419 
Q 422 4038 858 4394 
Q 1294 4750 2059 4750 
Q 2388 4750 2728 4690 
Q 3069 4631 3425 4513 
z
" transform="scale(0.015625)"/>
       <path id="DejaVuSans-68" d="M 3513 2113 
L 3513 0 
L 2938 0 
L 2938 2094 
Q 2938 2591 2744 2837 
Q 2550 3084 2163 3084 
Q 1697 3084 1428 2787 
Q 1159 2491 1159 1978 
L 1159 0 
L 581 0 
L 581 4863 
L 1159 4863 
L 1159 2956 
Q 1366 3272 1645 3428 
Q 1925 3584 2291 3584 
Q 2894 3584 3203 3211 
Q 3513 2838 3513 2113 
z
" transform="scale(0.015625)"/>
       <path id="DejaVuSans-72" d="M 2631 2963 
Q 2534 3019 2420 3045 
Q 2306 3072 2169 3072 
Q 1681 3072 1420 2755 
Q 1159 2438 1159 1844 
L 1159 0 
L 581 0 
L 581 3500 
L 1159 3500 
L 1159 2956 
Q 1341 3275 1631 3429 
Q 1922 3584 2338 3584 
Q 2397 3584 2469 3576 
Q 2541 3569 2628 3553 
L 2631 2963 
z
" transform="scale(0.015625)"/>
      </defs>
      <use xlink:href="#DejaVuSans-53"/>
      <use xlink:href="#DejaVuSans-68" x="63.476562"/>
      <use xlink:href="#DejaVuSans-61" x="126.855469"/>
      <use xlink:href="#DejaVuSans-72" x="188.134766"/>
      <use xlink:href="#DejaVuSans-65" x="226.998047"/>
     </g>
    </g>
   </g>
   <g id="line2d_43">
    <path d="M 52.079375 340.513549 
L 61.199011 340.079955 
L 70.318648 339.646361 
L 79.438284 339.212767 
L 88.55792 338.779173 
L 97.677557 338.345579 
L 106.797193 337.911985 
L 115.91683 337.478391 
L 125.036466 337.044797 
L 134.156102 336.611203 
L 143.275739 336.177608 
L 152.395375 335.744014 
L 161.515011 335.31042 
L 170.634648 334.876826 
L 179.754284 334.443232 
L 188.87392 334.009638 
L 197.993557 333.576044 
L 207.113193 333.14245 
L 216.23283 332.708856 
L 225.352466 332.275262 
L 234.472102 331.841668 
L 243.591739 331.408073 
L 252.711375 330.974479 
L 261.831011 330.540885 
L 270.950648 330.107291 
L 280.070284 329.673697 
L 289.18992 329.240103 
L 298.309557 328.806509 
L 307.429193 328.372915 
L 316.54883 327.939321 
L 325.668466 327.505727 
L 334.788102 327.072133 
L 343.907739 326.638538 
L 353.027375 326.204944 
L 362.147011 325.77135 
L 371.266648 325.337756 
L 380.386284 324.904162 
L 389.50592 324.470568 
L 398.625557 324.036974 
L 407.745193 323.60338 
L 416.86483 323.169786 
L 425.984466 322.736192 
L 435.104102 322.302598 
L 444.223739 321.869003 
L 453.343375 321.435409 
L 462.463011 321.001815 
L 471.582648 320.568221 
L 480.702284 320.134627 
L 489.82192 319.701033 
L 498.941557 319.267439 
L 508.061193 318.833845 
L 517.18083 318.400251 
L 526.300466 317.966657 
L 535.420102 317.533063 
L 544.539739 317.099468 
L 553.659375 316.665874 
L 562.779011 316.23228 
L 571.898648 315.798686 
L 581.018284 315.365092 
L 590.13792 314.931498 
L 599.257557 314.497904 
L 608.377193 314.06431 
L 617.49683 313.630716 
L 626.616466 313.197122 
L 635.736102 312.763528 
L 644.855739 312.329933 
L 653.975375 311.896339 
L 663.095011 311.462745 
L 672.214648 311.029151 
L 681.334284 310.595557 
L 690.45392 310.161963 
L 699.573557 309.728369 
L 708.693193 309.294775 
L 717.81283 308.861181 
L 726.932466 308.427587 
L 736.052102 307.993993 
L 745.171739 307.560398 
L 754.291375 307.126804 
L 763.411011 306.69321 
L 772.530648 306.259616 
L 781.650284 305.826022 
L 790.76992 305.392428 
L 799.889557 304.958834 
L 809.009193 304.52524 
L 818.12883 304.091646 
L 827.248466 303.658052 
L 836.368102 303.224457 
L 845.487739 302.790863 
L 854.607375 302.357269 
L 863.727011 301.923675 
L 872.846648 301.490081 
L 881.966284 301.056487 
L 891.08592 300.622893 
L 900.205557 300.189299 
L 909.325193 299.755705 
L 918.44483 299.322111 
L 927.564466 298.888517 
L 936.684102 298.454922 
L 945.803739 298.021328 
L 954.923375 297.587734 
" clip-path="url(#p4820e29bda)" style="fill: none; stroke-dasharray: 1.5,2.475; stroke-dashoffset: 0; stroke: #4ac1fa; stroke-width: 1.5"/>
   </g>
   <g id="line2d_44">
    <path d="M 52.079375 425.846795 
L 61.199011 426.751644 
L 70.318648 427.656494 
L 79.438284 428.561343 
L 88.55792 429.466193 
L 97.677557 430.371042 
L 106.797193 431.275891 
L 115.91683 432.180741 
L 125.036466 433.08559 
L 134.156102 433.99044 
L 143.275739 434.895289 
L 152.395375 435.800139 
L 161.515011 436.704988 
L 170.634648 437.609838 
L 179.754284 438.514687 
L 188.87392 439.419536 
L 197.993557 440.324386 
L 207.113193 441.229235 
L 216.23283 442.134085 
L 225.352466 443.038934 
L 234.472102 443.943784 
L 243.591739 444.848633 
L 252.711375 445.753482 
L 261.831011 446.658332 
L 270.950648 447.563181 
L 280.070284 448.468031 
L 289.18992 449.37288 
L 298.309557 450.27773 
L 307.429193 451.182579 
L 316.54883 452.087428 
L 325.668466 452.992278 
L 334.788102 453.897127 
L 343.907739 454.801977 
L 353.027375 455.706826 
L 362.147011 456.611676 
L 371.266648 457.516525 
L 380.386284 458.421374 
L 389.50592 459.326224 
L 398.625557 460.231073 
L 407.745193 461.135923 
L 416.86483 462.040772 
L 425.984466 462.945622 
L 435.104102 463.850471 
L 444.223739 464.75532 
L 453.343375 465.66017 
L 462.463011 466.565019 
L 471.582648 467.469869 
L 480.702284 468.374718 
L 489.82192 469.279568 
L 498.941557 470.184417 
L 508.061193 471.089266 
L 517.18083 471.994116 
L 526.300466 472.898965 
L 535.420102 473.803815 
L 544.539739 474.708664 
L 553.659375 475.613514 
L 562.779011 476.518363 
L 571.898648 477.423212 
L 581.018284 478.328062 
L 590.13792 479.232911 
L 599.257557 480.137761 
L 608.377193 481.04261 
L 617.49683 481.94746 
L 626.616466 482.852309 
L 635.736102 483.757159 
L 644.855739 484.662008 
L 653.975375 485.566857 
L 663.095011 486.471707 
L 672.214648 487.376556 
L 681.334284 488.281406 
L 690.45392 489.186255 
L 699.573557 490.091105 
L 708.693193 490.995954 
L 717.81283 491.900803 
L 726.932466 492.805653 
L 736.052102 493.710502 
L 745.171739 494.615352 
L 754.291375 495.520201 
L 763.411011 496.425051 
L 772.530648 497.3299 
L 781.650284 498.234749 
L 790.76992 499.139599 
L 799.889557 500.044448 
L 809.009193 500.949298 
L 818.12883 501.854147 
L 827.248466 502.758997 
L 836.368102 503.663846 
L 845.487739 504.568695 
L 854.607375 505.473545 
L 863.727011 506.378394 
L 872.846648 507.283244 
L 881.966284 508.188093 
L 891.08592 509.092943 
L 900.205557 509.997792 
L 909.325193 510.902641 
L 918.44483 511.807491 
L 927.564466 512.71234 
L 936.684102 513.61719 
L 945.803739 514.522039 
L 954.923375 515.426889 
" clip-path="url(#p4820e29bda)" style="fill: none; stroke-dasharray: 1.5,2.475; stroke-dashoffset: 0; stroke: #e9a942; stroke-width: 1.5"/>
   </g>
   <g id="line2d_45">
    <path d="M 52.079375 468.049258 
L 61.199011 468.234988 
L 70.318648 468.420719 
L 79.438284 468.60645 
L 88.55792 468.79218 
L 97.677557 468.977911 
L 106.797193 469.163641 
L 115.91683 469.349372 
L 125.036466 469.535103 
L 134.156102 469.720833 
L 143.275739 469.906564 
L 152.395375 470.092295 
L 161.515011 470.278025 
L 170.634648 470.463756 
L 179.754284 470.649487 
L 188.87392 470.835217 
L 197.993557 471.020948 
L 207.113193 471.206679 
L 216.23283 471.392409 
L 225.352466 471.57814 
L 234.472102 471.763871 
L 243.591739 471.949601 
L 252.711375 472.135332 
L 261.831011 472.321063 
L 270.950648 472.506793 
L 280.070284 472.692524 
L 289.18992 472.878255 
L 298.309557 473.063985 
L 307.429193 473.249716 
L 316.54883 473.435447 
L 325.668466 473.621177 
L 334.788102 473.806908 
L 343.907739 473.992639 
L 353.027375 474.178369 
L 362.147011 474.3641 
L 371.266648 474.549831 
L 380.386284 474.735561 
L 389.50592 474.921292 
L 398.625557 475.107023 
L 407.745193 475.292753 
L 416.86483 475.478484 
L 425.984466 475.664214 
L 435.104102 475.849945 
L 444.223739 476.035676 
L 453.343375 476.221406 
L 462.463011 476.407137 
L 471.582648 476.592868 
L 480.702284 476.778598 
L 489.82192 476.964329 
L 498.941557 477.15006 
L 508.061193 477.33579 
L 517.18083 477.521521 
L 526.300466 477.707252 
L 535.420102 477.892982 
L 544.539739 478.078713 
L 553.659375 478.264444 
L 562.779011 478.450174 
L 571.898648 478.635905 
L 581.018284 478.821636 
L 590.13792 479.007366 
L 599.257557 479.193097 
L 608.377193 479.378828 
L 617.49683 479.564558 
L 626.616466 479.750289 
L 635.736102 479.93602 
L 644.855739 480.12175 
L 653.975375 480.307481 
L 663.095011 480.493212 
L 672.214648 480.678942 
L 681.334284 480.864673 
L 690.45392 481.050404 
L 699.573557 481.236134 
L 708.693193 481.421865 
L 717.81283 481.607595 
L 726.932466 481.793326 
L 736.052102 481.979057 
L 745.171739 482.164787 
L 754.291375 482.350518 
L 763.411011 482.536249 
L 772.530648 482.721979 
L 781.650284 482.90771 
L 790.76992 483.093441 
L 799.889557 483.279171 
L 809.009193 483.464902 
L 818.12883 483.650633 
L 827.248466 483.836363 
L 836.368102 484.022094 
L 845.487739 484.207825 
L 854.607375 484.393555 
L 863.727011 484.579286 
L 872.846648 484.765017 
L 881.966284 484.950747 
L 891.08592 485.136478 
L 900.205557 485.322209 
L 909.325193 485.507939 
L 918.44483 485.69367 
L 927.564466 485.879401 
L 936.684102 486.065131 
L 945.803739 486.250862 
L 954.923375 486.436593 
" clip-path="url(#p4820e29bda)" style="fill: none; stroke-dasharray: 1.5,2.475; stroke-dashoffset: 0; stroke: #9a5689; stroke-width: 1.5"/>
   </g>
   <g id="line2d_46">
    <path d="M 52.079375 534.605862 
L 61.199011 534.636726 
L 70.318648 534.667591 
L 79.438284 534.698455 
L 88.55792 534.72932 
L 97.677557 534.760184 
L 106.797193 534.791049 
L 115.91683 534.821913 
L 125.036466 534.852778 
L 134.156102 534.883643 
L 143.275739 534.914507 
L 152.395375 534.945372 
L 161.515011 534.976236 
L 170.634648 535.007101 
L 179.754284 535.037965 
L 188.87392 535.06883 
L 197.993557 535.099695 
L 207.113193 535.130559 
L 216.23283 535.161424 
L 225.352466 535.192288 
L 234.472102 535.223153 
L 243.591739 535.254017 
L 252.711375 535.284882 
L 261.831011 535.315746 
L 270.950648 535.346611 
L 280.070284 535.377476 
L 289.18992 535.40834 
L 298.309557 535.439205 
L 307.429193 535.470069 
L 316.54883 535.500934 
L 325.668466 535.531798 
L 334.788102 535.562663 
L 343.907739 535.593527 
L 353.027375 535.624392 
L 362.147011 535.655257 
L 371.266648 535.686121 
L 380.386284 535.716986 
L 389.50592 535.74785 
L 398.625557 535.778715 
L 407.745193 535.809579 
L 416.86483 535.840444 
L 425.984466 535.871308 
L 435.104102 535.902173 
L 444.223739 535.933038 
L 453.343375 535.963902 
L 462.463011 535.994767 
L 471.582648 536.025631 
L 480.702284 536.056496 
L 489.82192 536.08736 
L 498.941557 536.118225 
L 508.061193 536.149089 
L 517.18083 536.179954 
L 526.300466 536.210819 
L 535.420102 536.241683 
L 544.539739 536.272548 
L 553.659375 536.303412 
L 562.779011 536.334277 
L 571.898648 536.365141 
L 581.018284 536.396006 
L 590.13792 536.42687 
L 599.257557 536.457735 
L 608.377193 536.4886 
L 617.49683 536.519464 
L 626.616466 536.550329 
L 635.736102 536.581193 
L 644.855739 536.612058 
L 653.975375 536.642922 
L 663.095011 536.673787 
L 672.214648 536.704652 
L 681.334284 536.735516 
L 690.45392 536.766381 
L 699.573557 536.797245 
L 708.693193 536.82811 
L 717.81283 536.858974 
L 726.932466 536.889839 
L 736.052102 536.920703 
L 745.171739 536.951568 
L 754.291375 536.982433 
L 763.411011 537.013297 
L 772.530648 537.044162 
L 781.650284 537.075026 
L 790.76992 537.105891 
L 799.889557 537.136755 
L 809.009193 537.16762 
L 818.12883 537.198484 
L 827.248466 537.229349 
L 836.368102 537.260214 
L 845.487739 537.291078 
L 854.607375 537.321943 
L 863.727011 537.352807 
L 872.846648 537.383672 
L 881.966284 537.414536 
L 891.08592 537.445401 
L 900.205557 537.476265 
L 909.325193 537.50713 
L 918.44483 537.537995 
L 927.564466 537.568859 
L 936.684102 537.599724 
L 945.803739 537.630588 
L 954.923375 537.661453 
" clip-path="url(#p4820e29bda)" style="fill: none; stroke-dasharray: 1.5,2.475; stroke-dashoffset: 0; stroke: #be503b; stroke-width: 1.5"/>
   </g>
   <g id="line2d_47">
    <path d="M 52.079375 327.577849 
L 61.199011 327.489383 
L 70.318648 327.400916 
L 79.438284 327.31245 
L 88.55792 327.223983 
L 97.677557 327.135517 
L 106.797193 327.04705 
L 115.91683 326.958584 
L 125.036466 326.870118 
L 134.156102 326.781651 
L 143.275739 326.693185 
L 152.395375 326.604718 
L 161.515011 326.516252 
L 170.634648 326.427785 
L 179.754284 326.339319 
L 188.87392 326.250852 
L 197.993557 326.162386 
L 207.113193 326.07392 
L 216.23283 325.985453 
L 225.352466 325.896987 
L 234.472102 325.80852 
L 243.591739 325.720054 
L 252.711375 325.631587 
L 261.831011 325.543121 
L 270.950648 325.454655 
L 280.070284 325.366188 
L 289.18992 325.277722 
L 298.309557 325.189255 
L 307.429193 325.100789 
L 316.54883 325.012322 
L 325.668466 324.923856 
L 334.788102 324.835389 
L 343.907739 324.746923 
L 353.027375 324.658457 
L 362.147011 324.56999 
L 371.266648 324.481524 
L 380.386284 324.393057 
L 389.50592 324.304591 
L 398.625557 324.216124 
L 407.745193 324.127658 
L 416.86483 324.039191 
L 425.984466 323.950725 
L 435.104102 323.862259 
L 444.223739 323.773792 
L 453.343375 323.685326 
L 462.463011 323.596859 
L 471.582648 323.508393 
L 480.702284 323.419926 
L 489.82192 323.33146 
L 498.941557 323.242993 
L 508.061193 323.154527 
L 517.18083 323.066061 
L 526.300466 322.977594 
L 535.420102 322.889128 
L 544.539739 322.800661 
L 553.659375 322.712195 
L 562.779011 322.623728 
L 571.898648 322.535262 
L 581.018284 322.446795 
L 590.13792 322.358329 
L 599.257557 322.269863 
L 608.377193 322.181396 
L 617.49683 322.09293 
L 626.616466 322.004463 
L 635.736102 321.915997 
L 644.855739 321.82753 
L 653.975375 321.739064 
L 663.095011 321.650597 
L 672.214648 321.562131 
L 681.334284 321.473665 
L 690.45392 321.385198 
L 699.573557 321.296732 
L 708.693193 321.208265 
L 717.81283 321.119799 
L 726.932466 321.031332 
L 736.052102 320.942866 
L 745.171739 320.854399 
L 754.291375 320.765933 
L 763.411011 320.677467 
L 772.530648 320.589 
L 781.650284 320.500534 
L 790.76992 320.412067 
L 799.889557 320.323601 
L 809.009193 320.235134 
L 818.12883 320.146668 
L 827.248466 320.058201 
L 836.368102 319.969735 
L 845.487739 319.881269 
L 854.607375 319.792802 
L 863.727011 319.704336 
L 872.846648 319.615869 
L 881.966284 319.527403 
L 891.08592 319.438936 
L 900.205557 319.35047 
L 909.325193 319.262003 
L 918.44483 319.173537 
L 927.564466 319.085071 
L 936.684102 318.996604 
L 945.803739 318.908138 
L 954.923375 318.819671 
" clip-path="url(#p4820e29bda)" style="fill: none; stroke-dasharray: 1.5,2.475; stroke-dashoffset: 0; stroke: #e2321d; stroke-width: 1.5"/>
   </g>
   <g id="line2d_48">
    <path d="M 52.079375 116.880711 
L 61.199011 116.317236 
L 70.318648 115.75376 
L 79.438284 115.190284 
L 88.55792 114.626808 
L 97.677557 114.063332 
L 106.797193 113.499856 
L 115.91683 112.93638 
L 125.036466 112.372905 
L 134.156102 111.809429 
L 143.275739 111.245953 
L 152.395375 110.682477 
L 161.515011 110.119001 
L 170.634648 109.555525 
L 179.754284 108.99205 
L 188.87392 108.428574 
L 197.993557 107.865098 
L 207.113193 107.301622 
L 216.23283 106.738146 
L 225.352466 106.17467 
L 234.472102 105.611195 
L 243.591739 105.047719 
L 252.711375 104.484243 
L 261.831011 103.920767 
L 270.950648 103.357291 
L 280.070284 102.793815 
L 289.18992 102.23034 
L 298.309557 101.666864 
L 307.429193 101.103388 
L 316.54883 100.539912 
L 325.668466 99.976436 
L 334.788102 99.41296 
L 343.907739 98.849485 
L 353.027375 98.286009 
L 362.147011 97.722533 
L 371.266648 97.159057 
L 380.386284 96.595581 
L 389.50592 96.032105 
L 398.625557 95.46863 
L 407.745193 94.905154 
L 416.86483 94.341678 
L 425.984466 93.778202 
L 435.104102 93.214726 
L 444.223739 92.65125 
L 453.343375 92.087775 
L 462.463011 91.524299 
L 471.582648 90.960823 
L 480.702284 90.397347 
L 489.82192 89.833871 
L 498.941557 89.270395 
L 508.061193 88.706919 
L 517.18083 88.143444 
L 526.300466 87.579968 
L 535.420102 87.016492 
L 544.539739 86.453016 
L 553.659375 85.88954 
L 562.779011 85.326064 
L 571.898648 84.762589 
L 581.018284 84.199113 
L 590.13792 83.635637 
L 599.257557 83.072161 
L 608.377193 82.508685 
L 617.49683 81.945209 
L 626.616466 81.381734 
L 635.736102 80.818258 
L 644.855739 80.254782 
L 653.975375 79.691306 
L 663.095011 79.12783 
L 672.214648 78.564354 
L 681.334284 78.000879 
L 690.45392 77.437403 
L 699.573557 76.873927 
L 708.693193 76.310451 
L 717.81283 75.746975 
L 726.932466 75.183499 
L 736.052102 74.620024 
L 745.171739 74.056548 
L 754.291375 73.493072 
L 763.411011 72.929596 
L 772.530648 72.36612 
L 781.650284 71.802644 
L 790.76992 71.239169 
L 799.889557 70.675693 
L 809.009193 70.112217 
L 818.12883 69.548741 
L 827.248466 68.985265 
L 836.368102 68.421789 
L 845.487739 67.858314 
L 854.607375 67.294838 
L 863.727011 66.731362 
L 872.846648 66.167886 
L 881.966284 65.60441 
L 891.08592 65.040934 
L 900.205557 64.477458 
L 909.325193 63.913983 
L 918.44483 63.350507 
L 927.564466 62.787031 
L 936.684102 62.223555 
L 945.803739 61.660079 
L 954.923375 61.096603 
" clip-path="url(#p4820e29bda)" style="fill: none; stroke-dasharray: 1.5,2.475; stroke-dashoffset: 0; stroke: #48b585; stroke-width: 1.5"/>
   </g>
   <g id="line2d_49">
    <path d="M 52.079375 355.453483 
L 69.782199 352.200031 
L 87.485022 356.47021 
L 105.187846 356.834763 
L 122.890669 342.907127 
L 140.593493 325.372589 
L 158.296316 341.352505 
L 175.99914 335.350619 
L 193.701963 329.670756 
L 211.404787 327.64496 
L 229.10761 321.266148 
L 246.810434 316.560213 
L 264.513257 317.398189 
L 282.216081 314.600166 
L 299.918904 317.699384 
L 317.621728 324.531494 
L 335.324551 313.991505 
L 353.027375 316.869105 
L 370.730199 318.47697 
L 388.433022 317.475058 
L 406.135846 317.745671 
L 423.838669 318.364912 
L 441.541493 327.552745 
L 459.244316 323.207464 
L 476.94714 321.415932 
L 494.649963 321.01809 
L 512.352787 324.789237 
L 530.05561 318.275811 
L 547.758434 329.747453 
L 565.461257 312.911887 
L 583.164081 324.403879 
L 600.866904 321.347312 
L 618.569728 322.733759 
L 636.272551 308.724353 
L 653.975375 313.067838 
L 671.678199 318.508985 
L 689.381022 312.108047 
L 707.083846 313.851635 
L 724.786669 308.282165 
L 742.489493 306.241269 
L 760.192316 308.663808 
L 777.89514 308.59055 
L 795.597963 307.850947 
L 813.300787 308.560245 
L 831.00361 304.805562 
L 848.706434 298.201876 
L 866.409257 295.016093 
L 884.112081 296.032876 
L 901.814904 305.532519 
L 919.517728 297.916729 
L 937.220551 290.827618 
L 954.923375 302.210835 
" clip-path="url(#p4820e29bda)" style="fill: none; stroke: #4ac1fa; stroke-width: 1.5; stroke-linecap: square"/>
   </g>
   <g id="line2d_50">
    <path d="M 52.079375 430.509287 
L 69.782199 426.536692 
L 87.485022 413.394236 
L 105.187846 412.065156 
L 122.890669 403.541239 
L 140.593493 422.289094 
L 158.296316 420.426647 
L 175.99914 436.770089 
L 193.701963 438.921459 
L 211.404787 447.522997 
L 229.10761 450.882988 
L 246.810434 445.954472 
L 264.513257 459.193749 
L 282.216081 463.809082 
L 299.918904 446.120022 
L 317.621728 448.87841 
L 335.324551 464.907364 
L 353.027375 466.013493 
L 370.730199 463.993836 
L 388.433022 457.780554 
L 406.135846 465.44172 
L 423.838669 483.239628 
L 441.541493 467.524564 
L 459.244316 473.014635 
L 476.94714 473.447921 
L 494.649963 479.758708 
L 512.352787 478.302904 
L 530.05561 485.208277 
L 547.758434 480.425085 
L 565.461257 495.894035 
L 583.164081 482.382983 
L 600.866904 479.756308 
L 618.569728 475.237379 
L 636.272551 488.423305 
L 653.975375 488.529617 
L 671.678199 487.785462 
L 689.381022 490.63712 
L 707.083846 483.839492 
L 724.786669 495.379889 
L 742.489493 493.638917 
L 760.192316 490.567269 
L 777.89514 494.66707 
L 795.597963 493.741873 
L 813.300787 495.426699 
L 831.00361 495.066872 
L 848.706434 495.706778 
L 866.409257 497.02559 
L 884.112081 493.290757 
L 901.814904 494.638955 
L 919.517728 512.158081 
L 937.220551 517.131998 
L 954.923375 526.315013 
" clip-path="url(#p4820e29bda)" style="fill: none; stroke: #e9a942; stroke-width: 1.5; stroke-linecap: square"/>
   </g>
   <g id="line2d_51">
    <path d="M 52.079375 406.720356 
L 69.782199 408.728415 
L 87.485022 406.522741 
L 105.187846 417.47536 
L 122.890669 467.86003 
L 140.593493 497.706892 
L 158.296316 501.945341 
L 175.99914 492.757569 
L 193.701963 490.318675 
L 211.404787 490.352966 
L 229.10761 485.606432 
L 246.810434 482.216862 
L 264.513257 481.856834 
L 282.216081 487.537544 
L 299.918904 489.73917 
L 317.621728 491.246521 
L 335.324551 486.010887 
L 353.027375 488.202605 
L 370.730199 487.244006 
L 388.433022 488.932958 
L 406.135846 487.926089 
L 423.838669 483.867722 
L 441.541493 487.66644 
L 459.244316 488.44361 
L 476.94714 488.655202 
L 494.649963 482.827051 
L 512.352787 483.489211 
L 530.05561 482.419288 
L 547.758434 472.240633 
L 565.461257 474.06403 
L 583.164081 483.234587 
L 600.866904 484.228957 
L 618.569728 484.001426 
L 636.272551 478.575246 
L 653.975375 477.135765 
L 671.678199 476.341515 
L 689.381022 479.537265 
L 707.083846 480.705741 
L 724.786669 479.488452 
L 742.489493 478.717207 
L 760.192316 478.772798 
L 777.89514 481.746184 
L 795.597963 478.018706 
L 813.300787 472.993183 
L 831.00361 475.74882 
L 848.706434 476.826365 
L 866.409257 477.235289 
L 884.112081 478.52895 
L 901.814904 481.00062 
L 919.517728 476.840935 
L 937.220551 476.723133 
L 954.923375 479.649518 
" clip-path="url(#p4820e29bda)" style="fill: none; stroke: #9a5689; stroke-width: 1.5; stroke-linecap: square"/>
   </g>
   <g id="line2d_52">
    <path d="M 52.079375 535.869253 
L 69.782199 536.31294 
L 87.485022 536.817844 
L 105.187846 537.421216 
L 122.890669 537.798515 
L 140.593493 534.963555 
L 158.296316 537.256262 
L 175.99914 534.493354 
L 193.701963 532.724597 
L 211.404787 533.231549 
L 229.10761 532.330591 
L 246.810434 531.995903 
L 264.513257 533.234584 
L 282.216081 532.462016 
L 299.918904 534.665854 
L 317.621728 535.704554 
L 335.324551 533.820823 
L 353.027375 534.954274 
L 370.730199 534.858741 
L 388.433022 535.70094 
L 406.135846 536.198072 
L 423.838669 535.05883 
L 441.541493 536.016561 
L 459.244316 536.831024 
L 476.94714 537.212159 
L 494.649963 536.746669 
L 512.352787 537.174513 
L 530.05561 536.693179 
L 547.758434 536.993216 
L 565.461257 535.406685 
L 583.164081 537.643267 
L 600.866904 538.312821 
L 618.569728 538.504237 
L 636.272551 535.009637 
L 653.975375 535.251828 
L 671.678199 536.369442 
L 689.381022 536.125996 
L 707.083846 537.5177 
L 724.786669 536.569283 
L 742.489493 537.201814 
L 760.192316 537.604351 
L 777.89514 537.325506 
L 795.597963 537.217836 
L 813.300787 537.58057 
L 831.00361 536.911104 
L 848.706434 538.118903 
L 866.409257 537.862974 
L 884.112081 538.239568 
L 901.814904 538.461236 
L 919.517728 537.135979 
L 937.220551 536.390392 
L 954.923375 536.647459 
" clip-path="url(#p4820e29bda)" style="fill: none; stroke: #be503b; stroke-width: 1.5; stroke-linecap: square"/>
   </g>
   <g id="line2d_53">
    <path d="M 52.079375 347.585522 
L 69.782199 345.869002 
L 87.485022 349.125203 
L 105.187846 348.282019 
L 122.890669 346.443067 
L 140.593493 332.514295 
L 158.296316 342.777955 
L 175.99914 329.873573 
L 193.701963 327.822911 
L 211.404787 327.410283 
L 229.10761 320.753148 
L 246.810434 313.7002 
L 264.513257 316.352519 
L 282.216081 313.354116 
L 299.918904 324.125175 
L 317.621728 314.58291 
L 335.324551 316.77149 
L 353.027375 316.645415 
L 370.730199 319.637882 
L 388.433022 322.270839 
L 406.135846 322.327557 
L 423.838669 291.67539 
L 441.541493 303.676277 
L 459.244316 305.054615 
L 476.94714 307.727229 
L 494.649963 303.406761 
L 512.352787 311.736206 
L 530.05561 314.721948 
L 547.758434 321.611204 
L 565.461257 316.312923 
L 583.164081 316.989794 
L 600.866904 316.070922 
L 618.569728 323.10272 
L 636.272551 320.689186 
L 653.975375 321.984332 
L 671.678199 320.839869 
L 689.381022 319.435806 
L 707.083846 327.934279 
L 724.786669 321.649564 
L 742.489493 324.627264 
L 760.192316 326.252102 
L 777.89514 315.16275 
L 795.597963 319.735812 
L 813.300787 321.183514 
L 831.00361 324.872167 
L 848.706434 333.271077 
L 866.409257 331.778974 
L 884.112081 331.981699 
L 901.814904 335.657333 
L 919.517728 328.797891 
L 937.220551 327.743489 
L 954.923375 322.427354 
" clip-path="url(#p4820e29bda)" style="fill: none; stroke: #e2321d; stroke-width: 1.5; stroke-linecap: square"/>
   </g>
   <g id="line2d_54">
    <path d="M 52.079375 134.381454 
L 69.782199 141.821467 
L 87.485022 149.01326 
L 105.187846 139.11669 
L 122.890669 113.244818 
L 140.593493 100.426069 
L 158.296316 68.760124 
L 175.99914 84.757599 
L 193.701963 95.553757 
L 211.404787 88.45856 
L 229.10761 104.840921 
L 246.810434 125.845978 
L 264.513257 107.619852 
L 282.216081 104.529528 
L 299.918904 103.163877 
L 317.621728 100.180552 
L 335.324551 100.672526 
L 353.027375 93.735444 
L 370.730199 91.721494 
L 388.433022 93.729488 
L 406.135846 86.364805 
L 423.838669 105.119827 
L 441.541493 93.154686 
L 459.244316 88.44787 
L 476.94714 86.340287 
L 494.649963 91.644721 
L 512.352787 79.253585 
L 530.05561 77.455039 
L 547.758434 73.281208 
L 565.461257 81.842127 
L 583.164081 70.001443 
L 600.866904 75.004939 
L 618.569728 71.966626 
L 636.272551 85.564387 
L 653.975375 81.403546 
L 671.678199 76.136322 
L 689.381022 77.776413 
L 707.083846 71.950238 
L 724.786669 74.953179 
L 742.489493 75.813011 
L 760.192316 74.689713 
L 777.89514 79.357844 
L 795.597963 79.942774 
L 813.300787 80.271459 
L 831.00361 79.15042 
L 848.706434 73.9899 
L 866.409257 77.30483 
L 884.112081 77.98029 
L 901.814904 60.370408 
L 919.517728 63.373456 
L 937.220551 67.296173 
L 954.923375 48.635202 
" clip-path="url(#p4820e29bda)" style="fill: none; stroke: #48b585; stroke-width: 6; stroke-linecap: square"/>
   </g>
   <g id="patch_3">
    <path d="M 52.079375 578.54175 
L 52.079375 24.14175 
" style="fill: none; stroke: #ffffff; stroke-linejoin: miter; stroke-linecap: square"/>
   </g>
   <g id="patch_4">
    <path d="M 954.923375 578.54175 
L 954.923375 24.14175 
" style="fill: none; stroke: #ffffff; stroke-linejoin: miter; stroke-linecap: square"/>
   </g>
   <g id="patch_5">
    <path d="M 52.079375 578.54175 
L 954.923375 578.54175 
" style="fill: none; stroke: #ffffff; stroke-linejoin: miter; stroke-linecap: square"/>
   </g>
   <g id="patch_6">
    <path d="M 52.079375 24.14175 
L 954.923375 24.14175 
" style="fill: none; stroke: #ffffff; stroke-linejoin: miter; stroke-linecap: square"/>
   </g>
   <g id="text_24">
    <!-- Enterprise Linux Instances by Distribution Share (System Age &gt; 1 Week) -->
    <g transform="translate(52.079375 18.14175) scale(0.144 -0.144)">
     <defs>
      <path id="DejaVuSans-45" d="M 628 4666 
L 3578 4666 
L 3578 4134 
L 1259 4134 
L 1259 2753 
L 3481 2753 
L 3481 2222 
L 1259 2222 
L 1259 531 
L 3634 531 
L 3634 0 
L 628 0 
L 628 4666 
z
" transform="scale(0.015625)"/>
      <path id="DejaVuSans-6e" d="M 3513 2113 
L 3513 0 
L 2938 0 
L 2938 2094 
Q 2938 2591 2744 2837 
Q 2550 3084 2163 3084 
Q 1697 3084 1428 2787 
Q 1159 2491 1159 1978 
L 1159 0 
L 581 0 
L 581 3500 
L 1159 3500 
L 1159 2956 
Q 1366 3272 1645 3428 
Q 1925 3584 2291 3584 
Q 2894 3584 3203 3211 
Q 3513 2838 3513 2113 
z
" transform="scale(0.015625)"/>
      <path id="DejaVuSans-70" d="M 1159 525 
L 1159 -1331 
L 581 -1331 
L 581 3500 
L 1159 3500 
L 1159 2969 
Q 1341 3281 1617 3432 
Q 1894 3584 2278 3584 
Q 2916 3584 3314 3078 
Q 3713 2572 3713 1747 
Q 3713 922 3314 415 
Q 2916 -91 2278 -91 
Q 1894 -91 1617 61 
Q 1341 213 1159 525 
z
M 3116 1747 
Q 3116 2381 2855 2742 
Q 2594 3103 2138 3103 
Q 1681 3103 1420 2742 
Q 1159 2381 1159 1747 
Q 1159 1113 1420 752 
Q 1681 391 2138 391 
Q 2594 391 2855 752 
Q 3116 1113 3116 1747 
z
" transform="scale(0.015625)"/>
      <path id="DejaVuSans-69" d="M 603 3500 
L 1178 3500 
L 1178 0 
L 603 0 
L 603 3500 
z
M 603 4863 
L 1178 4863 
L 1178 4134 
L 603 4134 
L 603 4863 
z
" transform="scale(0.015625)"/>
      <path id="DejaVuSans-73" d="M 2834 3397 
L 2834 2853 
Q 2591 2978 2328 3040 
Q 2066 3103 1784 3103 
Q 1356 3103 1142 2972 
Q 928 2841 928 2578 
Q 928 2378 1081 2264 
Q 1234 2150 1697 2047 
L 1894 2003 
Q 2506 1872 2764 1633 
Q 3022 1394 3022 966 
Q 3022 478 2636 193 
Q 2250 -91 1575 -91 
Q 1294 -91 989 -36 
Q 684 19 347 128 
L 347 722 
Q 666 556 975 473 
Q 1284 391 1588 391 
Q 1994 391 2212 530 
Q 2431 669 2431 922 
Q 2431 1156 2273 1281 
Q 2116 1406 1581 1522 
L 1381 1569 
Q 847 1681 609 1914 
Q 372 2147 372 2553 
Q 372 3047 722 3315 
Q 1072 3584 1716 3584 
Q 2034 3584 2315 3537 
Q 2597 3491 2834 3397 
z
" transform="scale(0.015625)"/>
      <path id="DejaVuSans-20" transform="scale(0.015625)"/>
      <path id="DejaVuSans-4c" d="M 628 4666 
L 1259 4666 
L 1259 531 
L 3531 531 
L 3531 0 
L 628 0 
L 628 4666 
z
" transform="scale(0.015625)"/>
      <path id="DejaVuSans-75" d="M 544 1381 
L 544 3500 
L 1119 3500 
L 1119 1403 
Q 1119 906 1312 657 
Q 1506 409 1894 409 
Q 2359 409 2629 706 
Q 2900 1003 2900 1516 
L 2900 3500 
L 3475 3500 
L 3475 0 
L 2900 0 
L 2900 538 
Q 2691 219 2414 64 
Q 2138 -91 1772 -91 
Q 1169 -91 856 284 
Q 544 659 544 1381 
z
M 1991 3584 
L 1991 3584 
z
" transform="scale(0.015625)"/>
      <path id="DejaVuSans-78" d="M 3513 3500 
L 2247 1797 
L 3578 0 
L 2900 0 
L 1881 1375 
L 863 0 
L 184 0 
L 1544 1831 
L 300 3500 
L 978 3500 
L 1906 2253 
L 2834 3500 
L 3513 3500 
z
" transform="scale(0.015625)"/>
      <path id="DejaVuSans-49" d="M 628 4666 
L 1259 4666 
L 1259 0 
L 628 0 
L 628 4666 
z
" transform="scale(0.015625)"/>
      <path id="DejaVuSans-63" d="M 3122 3366 
L 3122 2828 
Q 2878 2963 2633 3030 
Q 2388 3097 2138 3097 
Q 1578 3097 1268 2742 
Q 959 2388 959 1747 
Q 959 1106 1268 751 
Q 1578 397 2138 397 
Q 2388 397 2633 464 
Q 2878 531 3122 666 
L 3122 134 
Q 2881 22 2623 -34 
Q 2366 -91 2075 -91 
Q 1284 -91 818 406 
Q 353 903 353 1747 
Q 353 2603 823 3093 
Q 1294 3584 2113 3584 
Q 2378 3584 2631 3529 
Q 2884 3475 3122 3366 
z
" transform="scale(0.015625)"/>
      <path id="DejaVuSans-62" d="M 3116 1747 
Q 3116 2381 2855 2742 
Q 2594 3103 2138 3103 
Q 1681 3103 1420 2742 
Q 1159 2381 1159 1747 
Q 1159 1113 1420 752 
Q 1681 391 2138 391 
Q 2594 391 2855 752 
Q 3116 1113 3116 1747 
z
M 1159 2969 
Q 1341 3281 1617 3432 
Q 1894 3584 2278 3584 
Q 2916 3584 3314 3078 
Q 3713 2572 3713 1747 
Q 3713 922 3314 415 
Q 2916 -91 2278 -91 
Q 1894 -91 1617 61 
Q 1341 213 1159 525 
L 1159 0 
L 581 0 
L 581 4863 
L 1159 4863 
L 1159 2969 
z
" transform="scale(0.015625)"/>
      <path id="DejaVuSans-79" d="M 2059 -325 
Q 1816 -950 1584 -1140 
Q 1353 -1331 966 -1331 
L 506 -1331 
L 506 -850 
L 844 -850 
Q 1081 -850 1212 -737 
Q 1344 -625 1503 -206 
L 1606 56 
L 191 3500 
L 800 3500 
L 1894 763 
L 2988 3500 
L 3597 3500 
L 2059 -325 
z
" transform="scale(0.015625)"/>
      <path id="DejaVuSans-6f" d="M 1959 3097 
Q 1497 3097 1228 2736 
Q 959 2375 959 1747 
Q 959 1119 1226 758 
Q 1494 397 1959 397 
Q 2419 397 2687 759 
Q 2956 1122 2956 1747 
Q 2956 2369 2687 2733 
Q 2419 3097 1959 3097 
z
M 1959 3584 
Q 2709 3584 3137 3096 
Q 3566 2609 3566 1747 
Q 3566 888 3137 398 
Q 2709 -91 1959 -91 
Q 1206 -91 779 398 
Q 353 888 353 1747 
Q 353 2609 779 3096 
Q 1206 3584 1959 3584 
z
" transform="scale(0.015625)"/>
      <path id="DejaVuSans-28" d="M 1984 4856 
Q 1566 4138 1362 3434 
Q 1159 2731 1159 2009 
Q 1159 1288 1364 580 
Q 1569 -128 1984 -844 
L 1484 -844 
Q 1016 -109 783 600 
Q 550 1309 550 2009 
Q 550 2706 781 3412 
Q 1013 4119 1484 4856 
L 1984 4856 
z
" transform="scale(0.015625)"/>
      <path id="DejaVuSans-6d" d="M 3328 2828 
Q 3544 3216 3844 3400 
Q 4144 3584 4550 3584 
Q 5097 3584 5394 3201 
Q 5691 2819 5691 2113 
L 5691 0 
L 5113 0 
L 5113 2094 
Q 5113 2597 4934 2840 
Q 4756 3084 4391 3084 
Q 3944 3084 3684 2787 
Q 3425 2491 3425 1978 
L 3425 0 
L 2847 0 
L 2847 2094 
Q 2847 2600 2669 2842 
Q 2491 3084 2119 3084 
Q 1678 3084 1418 2786 
Q 1159 2488 1159 1978 
L 1159 0 
L 581 0 
L 581 3500 
L 1159 3500 
L 1159 2956 
Q 1356 3278 1631 3431 
Q 1906 3584 2284 3584 
Q 2666 3584 2933 3390 
Q 3200 3197 3328 2828 
z
" transform="scale(0.015625)"/>
      <path id="DejaVuSans-41" d="M 2188 4044 
L 1331 1722 
L 3047 1722 
L 2188 4044 
z
M 1831 4666 
L 2547 4666 
L 4325 0 
L 3669 0 
L 3244 1197 
L 1141 1197 
L 716 0 
L 50 0 
L 1831 4666 
z
" transform="scale(0.015625)"/>
      <path id="DejaVuSans-67" d="M 2906 1791 
Q 2906 2416 2648 2759 
Q 2391 3103 1925 3103 
Q 1463 3103 1205 2759 
Q 947 2416 947 1791 
Q 947 1169 1205 825 
Q 1463 481 1925 481 
Q 2391 481 2648 825 
Q 2906 1169 2906 1791 
z
M 3481 434 
Q 3481 -459 3084 -895 
Q 2688 -1331 1869 -1331 
Q 1566 -1331 1297 -1286 
Q 1028 -1241 775 -1147 
L 775 -588 
Q 1028 -725 1275 -790 
Q 1522 -856 1778 -856 
Q 2344 -856 2625 -561 
Q 2906 -266 2906 331 
L 2906 616 
Q 2728 306 2450 153 
Q 2172 0 1784 0 
Q 1141 0 747 490 
Q 353 981 353 1791 
Q 353 2603 747 3093 
Q 1141 3584 1784 3584 
Q 2172 3584 2450 3431 
Q 2728 3278 2906 2969 
L 2906 3500 
L 3481 3500 
L 3481 434 
z
" transform="scale(0.015625)"/>
      <path id="DejaVuSans-3e" d="M 678 3150 
L 678 3719 
L 4684 2266 
L 4684 1747 
L 678 294 
L 678 863 
L 3897 2003 
L 678 3150 
z
" transform="scale(0.015625)"/>
      <path id="DejaVuSans-57" d="M 213 4666 
L 850 4666 
L 1831 722 
L 2809 4666 
L 3519 4666 
L 4500 722 
L 5478 4666 
L 6119 4666 
L 4947 0 
L 4153 0 
L 3169 4050 
L 2175 0 
L 1381 0 
L 213 4666 
z
" transform="scale(0.015625)"/>
      <path id="DejaVuSans-6b" d="M 581 4863 
L 1159 4863 
L 1159 1991 
L 2875 3500 
L 3609 3500 
L 1753 1863 
L 3688 0 
L 2938 0 
L 1159 1709 
L 1159 0 
L 581 0 
L 581 4863 
z
" transform="scale(0.015625)"/>
      <path id="DejaVuSans-29" d="M 513 4856 
L 1013 4856 
Q 1481 4119 1714 3412 
Q 1947 2706 1947 2009 
Q 1947 1309 1714 600 
Q 1481 -109 1013 -844 
L 513 -844 
Q 928 -128 1133 580 
Q 1338 1288 1338 2009 
Q 1338 2731 1133 3434 
Q 928 4138 513 4856 
z
" transform="scale(0.015625)"/>
     </defs>
     <use xlink:href="#DejaVuSans-45"/>
     <use xlink:href="#DejaVuSans-6e" x="63.183594"/>
     <use xlink:href="#DejaVuSans-74" x="126.5625"/>
     <use xlink:href="#DejaVuSans-65" x="165.771484"/>
     <use xlink:href="#DejaVuSans-72" x="227.294922"/>
     <use xlink:href="#DejaVuSans-70" x="268.408203"/>
     <use xlink:href="#DejaVuSans-72" x="331.884766"/>
     <use xlink:href="#DejaVuSans-69" x="372.998047"/>
     <use xlink:href="#DejaVuSans-73" x="400.78125"/>
     <use xlink:href="#DejaVuSans-65" x="452.880859"/>
     <use xlink:href="#DejaVuSans-20" x="514.404297"/>
     <use xlink:href="#DejaVuSans-4c" x="546.191406"/>
     <use xlink:href="#DejaVuSans-69" x="601.904297"/>
     <use xlink:href="#DejaVuSans-6e" x="629.6875"/>
     <use xlink:href="#DejaVuSans-75" x="693.066406"/>
     <use xlink:href="#DejaVuSans-78" x="756.445312"/>
     <use xlink:href="#DejaVuSans-20" x="815.625"/>
     <use xlink:href="#DejaVuSans-49" x="847.412109"/>
     <use xlink:href="#DejaVuSans-6e" x="876.904297"/>
     <use xlink:href="#DejaVuSans-73" x="940.283203"/>
     <use xlink:href="#DejaVuSans-74" x="992.382812"/>
     <use xlink:href="#DejaVuSans-61" x="1031.591797"/>
     <use xlink:href="#DejaVuSans-6e" x="1092.871094"/>
     <use xlink:href="#DejaVuSans-63" x="1156.25"/>
     <use xlink:href="#DejaVuSans-65" x="1211.230469"/>
     <use xlink:href="#DejaVuSans-73" x="1272.753906"/>
     <use xlink:href="#DejaVuSans-20" x="1324.853516"/>
     <use xlink:href="#DejaVuSans-62" x="1356.640625"/>
     <use xlink:href="#DejaVuSans-79" x="1420.117188"/>
     <use xlink:href="#DejaVuSans-20" x="1479.296875"/>
     <use xlink:href="#DejaVuSans-44" x="1511.083984"/>
     <use xlink:href="#DejaVuSans-69" x="1588.085938"/>
     <use xlink:href="#DejaVuSans-73" x="1615.869141"/>
     <use xlink:href="#DejaVuSans-74" x="1667.96875"/>
     <use xlink:href="#DejaVuSans-72" x="1707.177734"/>
     <use xlink:href="#DejaVuSans-69" x="1748.291016"/>
     <use xlink:href="#DejaVuSans-62" x="1776.074219"/>
     <use xlink:href="#DejaVuSans-75" x="1839.550781"/>
     <use xlink:href="#DejaVuSans-74" x="1902.929688"/>
     <use xlink:href="#DejaVuSans-69" x="1942.138672"/>
     <use xlink:href="#DejaVuSans-6f" x="1969.921875"/>
     <use xlink:href="#DejaVuSans-6e" x="2031.103516"/>
     <use xlink:href="#DejaVuSans-20" x="2094.482422"/>
     <use xlink:href="#DejaVuSans-53" x="2126.269531"/>
     <use xlink:href="#DejaVuSans-68" x="2189.746094"/>
     <use xlink:href="#DejaVuSans-61" x="2253.125"/>
     <use xlink:href="#DejaVuSans-72" x="2314.404297"/>
     <use xlink:href="#DejaVuSans-65" x="2353.267578"/>
     <use xlink:href="#DejaVuSans-20" x="2414.791016"/>
     <use xlink:href="#DejaVuSans-28" x="2446.578125"/>
     <use xlink:href="#DejaVuSans-53" x="2485.591797"/>
     <use xlink:href="#DejaVuSans-79" x="2549.068359"/>
     <use xlink:href="#DejaVuSans-73" x="2608.248047"/>
     <use xlink:href="#DejaVuSans-74" x="2660.347656"/>
     <use xlink:href="#DejaVuSans-65" x="2699.556641"/>
     <use xlink:href="#DejaVuSans-6d" x="2761.080078"/>
     <use xlink:href="#DejaVuSans-20" x="2858.492188"/>
     <use xlink:href="#DejaVuSans-41" x="2890.279297"/>
     <use xlink:href="#DejaVuSans-67" x="2958.6875"/>
     <use xlink:href="#DejaVuSans-65" x="3022.164062"/>
     <use xlink:href="#DejaVuSans-20" x="3083.6875"/>
     <use xlink:href="#DejaVuSans-3e" x="3115.474609"/>
     <use xlink:href="#DejaVuSans-20" x="3199.263672"/>
     <use xlink:href="#DejaVuSans-31" x="3231.050781"/>
     <use xlink:href="#DejaVuSans-20" x="3294.673828"/>
     <use xlink:href="#DejaVuSans-57" x="3326.460938"/>
     <use xlink:href="#DejaVuSans-65" x="3419.462891"/>
     <use xlink:href="#DejaVuSans-65" x="3480.986328"/>
     <use xlink:href="#DejaVuSans-6b" x="3542.509766"/>
     <use xlink:href="#DejaVuSans-29" x="3600.419922"/>
    </g>
   </g>
   <g id="text_25">
    <!-- 2025-05-08 11:55 UTC -->
    <g transform="translate(792.041375 18.14175) scale(0.144 -0.144)">
     <defs>
      <path id="DejaVuSans-3a" d="M 750 794 
L 1409 794 
L 1409 0 
L 750 0 
L 750 794 
z
M 750 3309 
L 1409 3309 
L 1409 2516 
L 750 2516 
L 750 3309 
z
" transform="scale(0.015625)"/>
      <path id="DejaVuSans-55" d="M 556 4666 
L 1191 4666 
L 1191 1831 
Q 1191 1081 1462 751 
Q 1734 422 2344 422 
Q 2950 422 3222 751 
Q 3494 1081 3494 1831 
L 3494 4666 
L 4128 4666 
L 4128 1753 
Q 4128 841 3676 375 
Q 3225 -91 2344 -91 
Q 1459 -91 1007 375 
Q 556 841 556 1753 
L 556 4666 
z
" transform="scale(0.015625)"/>
      <path id="DejaVuSans-54" d="M -19 4666 
L 3928 4666 
L 3928 4134 
L 2272 4134 
L 2272 0 
L 1638 0 
L 1638 4134 
L -19 4134 
L -19 4666 
z
" transform="scale(0.015625)"/>
      <path id="DejaVuSans-43" d="M 4122 4306 
L 4122 3641 
Q 3803 3938 3442 4084 
Q 3081 4231 2675 4231 
Q 1875 4231 1450 3742 
Q 1025 3253 1025 2328 
Q 1025 1406 1450 917 
Q 1875 428 2675 428 
Q 3081 428 3442 575 
Q 3803 722 4122 1019 
L 4122 359 
Q 3791 134 3420 21 
Q 3050 -91 2638 -91 
Q 1578 -91 968 557 
Q 359 1206 359 2328 
Q 359 3453 968 4101 
Q 1578 4750 2638 4750 
Q 3056 4750 3426 4639 
Q 3797 4528 4122 4306 
z
" transform="scale(0.015625)"/>
     </defs>
     <use xlink:href="#DejaVuSans-32"/>
     <use xlink:href="#DejaVuSans-30" x="63.623047"/>
     <use xlink:href="#DejaVuSans-32" x="127.246094"/>
     <use xlink:href="#DejaVuSans-35" x="190.869141"/>
     <use xlink:href="#DejaVuSans-2d" x="254.492188"/>
     <use xlink:href="#DejaVuSans-30" x="290.576172"/>
     <use xlink:href="#DejaVuSans-35" x="354.199219"/>
     <use xlink:href="#DejaVuSans-2d" x="417.822266"/>
     <use xlink:href="#DejaVuSans-30" x="453.90625"/>
     <use xlink:href="#DejaVuSans-38" x="517.529297"/>
     <use xlink:href="#DejaVuSans-20" x="581.152344"/>
     <use xlink:href="#DejaVuSans-31" x="612.939453"/>
     <use xlink:href="#DejaVuSans-31" x="676.5625"/>
     <use xlink:href="#DejaVuSans-3a" x="740.185547"/>
     <use xlink:href="#DejaVuSans-35" x="773.876953"/>
     <use xlink:href="#DejaVuSans-35" x="837.5"/>
     <use xlink:href="#DejaVuSans-20" x="901.123047"/>
     <use xlink:href="#DejaVuSans-55" x="932.910156"/>
     <use xlink:href="#DejaVuSans-54" x="1006.103516"/>
     <use xlink:href="#DejaVuSans-43" x="1061.3125"/>
    </g>
   </g>
   <g id="legend_1">
    <g id="patch_7">
     <path d="M 59.079375 134.888625 
L 168.048125 134.888625 
Q 170.048125 134.888625 170.048125 132.888625 
L 170.048125 31.14175 
Q 170.048125 29.14175 168.048125 29.14175 
L 59.079375 29.14175 
Q 57.079375 29.14175 57.079375 31.14175 
L 57.079375 132.888625 
Q 57.079375 134.888625 59.079375 134.888625 
z
" style="fill: #e5e5e5; opacity: 0.8; stroke: #cccccc; stroke-width: 0.5; stroke-linejoin: miter"/>
    </g>
    <g id="text_26">
     <!-- Distribution -->
     <g transform="translate(84.395 40.740188) scale(0.1 -0.1)">
      <use xlink:href="#DejaVuSans-44"/>
      <use xlink:href="#DejaVuSans-69" x="77.001953"/>
      <use xlink:href="#DejaVuSans-73" x="104.785156"/>
      <use xlink:href="#DejaVuSans-74" x="156.884766"/>
      <use xlink:href="#DejaVuSans-72" x="196.09375"/>
      <use xlink:href="#DejaVuSans-69" x="237.207031"/>
      <use xlink:href="#DejaVuSans-62" x="264.990234"/>
      <use xlink:href="#DejaVuSans-75" x="328.466797"/>
      <use xlink:href="#DejaVuSans-74" x="391.845703"/>
      <use xlink:href="#DejaVuSans-69" x="431.054688"/>
      <use xlink:href="#DejaVuSans-6f" x="458.837891"/>
      <use xlink:href="#DejaVuSans-6e" x="520.019531"/>
     </g>
    </g>
    <g id="line2d_55">
     <path d="M 61.079375 51.918313 
L 71.079375 51.918313 
L 81.079375 51.918313 
" style="fill: none; stroke: #4ac1fa; stroke-width: 1.5; stroke-linecap: square"/>
    </g>
    <g id="text_27">
     <!-- AlmaLinux -->
     <g transform="translate(89.079375 55.418313) scale(0.1 -0.1)">
      <defs>
       <path id="DejaVuSans-6c" d="M 603 4863 
L 1178 4863 
L 1178 0 
L 603 0 
L 603 4863 
z
" transform="scale(0.015625)"/>
      </defs>
      <use xlink:href="#DejaVuSans-41"/>
      <use xlink:href="#DejaVuSans-6c" x="68.408203"/>
      <use xlink:href="#DejaVuSans-6d" x="96.191406"/>
      <use xlink:href="#DejaVuSans-61" x="193.603516"/>
      <use xlink:href="#DejaVuSans-4c" x="254.882812"/>
      <use xlink:href="#DejaVuSans-69" x="310.595703"/>
      <use xlink:href="#DejaVuSans-6e" x="338.378906"/>
      <use xlink:href="#DejaVuSans-75" x="401.757812"/>
      <use xlink:href="#DejaVuSans-78" x="465.136719"/>
     </g>
    </g>
    <g id="line2d_56">
     <path d="M 61.079375 66.596438 
L 71.079375 66.596438 
L 81.079375 66.596438 
" style="fill: none; stroke: #e9a942; stroke-width: 1.5; stroke-linecap: square"/>
    </g>
    <g id="text_28">
     <!-- CentOS Legacy -->
     <g transform="translate(89.079375 70.096438) scale(0.1 -0.1)">
      <defs>
       <path id="DejaVuSans-4f" d="M 2522 4238 
Q 1834 4238 1429 3725 
Q 1025 3213 1025 2328 
Q 1025 1447 1429 934 
Q 1834 422 2522 422 
Q 3209 422 3611 934 
Q 4013 1447 4013 2328 
Q 4013 3213 3611 3725 
Q 3209 4238 2522 4238 
z
M 2522 4750 
Q 3503 4750 4090 4092 
Q 4678 3434 4678 2328 
Q 4678 1225 4090 567 
Q 3503 -91 2522 -91 
Q 1538 -91 948 565 
Q 359 1222 359 2328 
Q 359 3434 948 4092 
Q 1538 4750 2522 4750 
z
" transform="scale(0.015625)"/>
      </defs>
      <use xlink:href="#DejaVuSans-43"/>
      <use xlink:href="#DejaVuSans-65" x="69.824219"/>
      <use xlink:href="#DejaVuSans-6e" x="131.347656"/>
      <use xlink:href="#DejaVuSans-74" x="194.726562"/>
      <use xlink:href="#DejaVuSans-4f" x="233.935547"/>
      <use xlink:href="#DejaVuSans-53" x="312.646484"/>
      <use xlink:href="#DejaVuSans-20" x="376.123047"/>
      <use xlink:href="#DejaVuSans-4c" x="407.910156"/>
      <use xlink:href="#DejaVuSans-65" x="461.873047"/>
      <use xlink:href="#DejaVuSans-67" x="523.396484"/>
      <use xlink:href="#DejaVuSans-61" x="586.873047"/>
      <use xlink:href="#DejaVuSans-63" x="648.152344"/>
      <use xlink:href="#DejaVuSans-79" x="703.132812"/>
     </g>
    </g>
    <g id="line2d_57">
     <path d="M 61.079375 81.274563 
L 71.079375 81.274563 
L 81.079375 81.274563 
" style="fill: none; stroke: #9a5689; stroke-width: 1.5; stroke-linecap: square"/>
    </g>
    <g id="text_29">
     <!-- CentOS Stream -->
     <g transform="translate(89.079375 84.774563) scale(0.1 -0.1)">
      <use xlink:href="#DejaVuSans-43"/>
      <use xlink:href="#DejaVuSans-65" x="69.824219"/>
      <use xlink:href="#DejaVuSans-6e" x="131.347656"/>
      <use xlink:href="#DejaVuSans-74" x="194.726562"/>
      <use xlink:href="#DejaVuSans-4f" x="233.935547"/>
      <use xlink:href="#DejaVuSans-53" x="312.646484"/>
      <use xlink:href="#DejaVuSans-20" x="376.123047"/>
      <use xlink:href="#DejaVuSans-53" x="407.910156"/>
      <use xlink:href="#DejaVuSans-74" x="471.386719"/>
      <use xlink:href="#DejaVuSans-72" x="510.595703"/>
      <use xlink:href="#DejaVuSans-65" x="549.458984"/>
      <use xlink:href="#DejaVuSans-61" x="610.982422"/>
      <use xlink:href="#DejaVuSans-6d" x="672.261719"/>
     </g>
    </g>
    <g id="line2d_58">
     <path d="M 61.079375 95.952688 
L 71.079375 95.952688 
L 81.079375 95.952688 
" style="fill: none; stroke: #be503b; stroke-width: 1.5; stroke-linecap: square"/>
    </g>
    <g id="text_30">
     <!-- Oracle -->
     <g transform="translate(89.079375 99.452688) scale(0.1 -0.1)">
      <use xlink:href="#DejaVuSans-4f"/>
      <use xlink:href="#DejaVuSans-72" x="78.710938"/>
      <use xlink:href="#DejaVuSans-61" x="119.824219"/>
      <use xlink:href="#DejaVuSans-63" x="181.103516"/>
      <use xlink:href="#DejaVuSans-6c" x="236.083984"/>
      <use xlink:href="#DejaVuSans-65" x="263.867188"/>
     </g>
    </g>
    <g id="line2d_59">
     <path d="M 61.079375 110.630813 
L 71.079375 110.630813 
L 81.079375 110.630813 
" style="fill: none; stroke: #e2321d; stroke-width: 1.5; stroke-linecap: square"/>
    </g>
    <g id="text_31">
     <!-- RHEL -->
     <g transform="translate(89.079375 114.130813) scale(0.1 -0.1)">
      <defs>
       <path id="DejaVuSans-52" d="M 2841 2188 
Q 3044 2119 3236 1894 
Q 3428 1669 3622 1275 
L 4263 0 
L 3584 0 
L 2988 1197 
Q 2756 1666 2539 1819 
Q 2322 1972 1947 1972 
L 1259 1972 
L 1259 0 
L 628 0 
L 628 4666 
L 2053 4666 
Q 2853 4666 3247 4331 
Q 3641 3997 3641 3322 
Q 3641 2881 3436 2590 
Q 3231 2300 2841 2188 
z
M 1259 4147 
L 1259 2491 
L 2053 2491 
Q 2509 2491 2742 2702 
Q 2975 2913 2975 3322 
Q 2975 3731 2742 3939 
Q 2509 4147 2053 4147 
L 1259 4147 
z
" transform="scale(0.015625)"/>
       <path id="DejaVuSans-48" d="M 628 4666 
L 1259 4666 
L 1259 2753 
L 3553 2753 
L 3553 4666 
L 4184 4666 
L 4184 0 
L 3553 0 
L 3553 2222 
L 1259 2222 
L 1259 0 
L 628 0 
L 628 4666 
z
" transform="scale(0.015625)"/>
      </defs>
      <use xlink:href="#DejaVuSans-52"/>
      <use xlink:href="#DejaVuSans-48" x="69.482422"/>
      <use xlink:href="#DejaVuSans-45" x="144.677734"/>
      <use xlink:href="#DejaVuSans-4c" x="207.861328"/>
     </g>
    </g>
    <g id="line2d_60">
     <path d="M 61.079375 125.308938 
L 71.079375 125.308938 
L 81.079375 125.308938 
" style="fill: none; stroke: #48b585; stroke-width: 6; stroke-linecap: square"/>
    </g>
    <g id="text_32">
     <!-- Rocky Linux -->
     <g transform="translate(89.079375 128.808938) scale(0.1 -0.1)">
      <use xlink:href="#DejaVuSans-52"/>
      <use xlink:href="#DejaVuSans-6f" x="64.982422"/>
      <use xlink:href="#DejaVuSans-63" x="126.164062"/>
      <use xlink:href="#DejaVuSans-6b" x="181.144531"/>
      <use xlink:href="#DejaVuSans-79" x="235.429688"/>
      <use xlink:href="#DejaVuSans-20" x="294.609375"/>
      <use xlink:href="#DejaVuSans-4c" x="326.396484"/>
      <use xlink:href="#DejaVuSans-69" x="382.109375"/>
      <use xlink:href="#DejaVuSans-6e" x="409.892578"/>
      <use xlink:href="#DejaVuSans-75" x="473.271484"/>
      <use xlink:href="#DejaVuSans-78" x="536.650391"/>
     </g>
    </g>
   </g>
  </g>
 </g>
 <defs>
  <clipPath id="p4820e29bda">
   <rect x="52.079375" y="24.14175" width="902.844" height="554.4"/>
  </clipPath>
 </defs>
</svg>
