<?xml version="1.0" encoding="utf-8" standalone="no"?>
<!DOCTYPE svg PUBLIC "-//W3C//DTD SVG 1.1//EN"
  "http://www.w3.org/Graphics/SVG/1.1/DTD/svg11.dtd">
<svg xmlns:xlink="http://www.w3.org/1999/xlink" width="962.123375pt" height="644.743878pt" viewBox="0 0 962.123375 644.743878" xmlns="http://www.w3.org/2000/svg" version="1.1">
 <metadata>
  <rdf:RDF xmlns:dc="http://purl.org/dc/elements/1.1/" xmlns:cc="http://creativecommons.org/ns#" xmlns:rdf="http://www.w3.org/1999/02/22-rdf-syntax-ns#">
   <cc:Work>
    <dc:type rdf:resource="http://purl.org/dc/dcmitype/StillImage"/>
    <dc:date>2024-12-19T15:58:57.717266</dc:date>
    <dc:format>image/svg+xml</dc:format>
    <dc:creator>
     <cc:Agent>
      <dc:title>Matplotlib v3.6.3, https://matplotlib.org/</dc:title>
     </cc:Agent>
    </dc:creator>
   </cc:Work>
  </rdf:RDF>
 </metadata>
 <defs>
  <style type="text/css">*{stroke-linejoin: round; stroke-linecap: butt}</style>
 </defs>
 <g id="figure_1">
  <g id="patch_1">
   <path d="M 0 644.743878 
L 962.123375 644.743878 
L 962.123375 0 
L 0 0 
z
" style="fill: #ffffff"/>
  </g>
  <g id="axes_1">
   <g id="patch_2">
    <path d="M 52.079375 578.54175 
L 954.923375 578.54175 
L 954.923375 24.14175 
L 52.079375 24.14175 
z
" style="fill: #e5e5e5"/>
   </g>
   <g id="matplotlib.axis_1">
    <g id="xtick_1">
     <g id="line2d_1">
      <path d="M 77.369123 578.54175 
L 77.369123 24.14175 
" clip-path="url(#p5c228d6228)" style="fill: none; stroke: #ffffff; stroke-width: 0.8; stroke-linecap: square"/>
     </g>
     <g id="line2d_2">
      <defs>
       <path id="m723f82a700" d="M 0 0 
L 0 3.5 
" style="stroke: #555555; stroke-width: 0.8"/>
      </defs>
      <g>
       <use xlink:href="#m723f82a700" x="77.369123" y="578.54175" style="fill: #555555; stroke: #555555; stroke-width: 0.8"/>
      </g>
     </g>
     <g id="text_1">
      <!-- 2024-01 -->
      <g style="fill: #555555" transform="translate(64.547841 620.459567) rotate(-45) scale(0.1 -0.1)">
       <defs>
        <path id="DejaVuSans-32" d="M 1228 531 
L 3431 531 
L 3431 0 
L 469 0 
L 469 531 
Q 828 903 1448 1529 
Q 2069 2156 2228 2338 
Q 2531 2678 2651 2914 
Q 2772 3150 2772 3378 
Q 2772 3750 2511 3984 
Q 2250 4219 1831 4219 
Q 1534 4219 1204 4116 
Q 875 4013 500 3803 
L 500 4441 
Q 881 4594 1212 4672 
Q 1544 4750 1819 4750 
Q 2544 4750 2975 4387 
Q 3406 4025 3406 3419 
Q 3406 3131 3298 2873 
Q 3191 2616 2906 2266 
Q 2828 2175 2409 1742 
Q 1991 1309 1228 531 
z
" transform="scale(0.015625)"/>
        <path id="DejaVuSans-30" d="M 2034 4250 
Q 1547 4250 1301 3770 
Q 1056 3291 1056 2328 
Q 1056 1369 1301 889 
Q 1547 409 2034 409 
Q 2525 409 2770 889 
Q 3016 1369 3016 2328 
Q 3016 3291 2770 3770 
Q 2525 4250 2034 4250 
z
M 2034 4750 
Q 2819 4750 3233 4129 
Q 3647 3509 3647 2328 
Q 3647 1150 3233 529 
Q 2819 -91 2034 -91 
Q 1250 -91 836 529 
Q 422 1150 422 2328 
Q 422 3509 836 4129 
Q 1250 4750 2034 4750 
z
" transform="scale(0.015625)"/>
        <path id="DejaVuSans-34" d="M 2419 4116 
L 825 1625 
L 2419 1625 
L 2419 4116 
z
M 2253 4666 
L 3047 4666 
L 3047 1625 
L 3713 1625 
L 3713 1100 
L 3047 1100 
L 3047 0 
L 2419 0 
L 2419 1100 
L 313 1100 
L 313 1709 
L 2253 4666 
z
" transform="scale(0.015625)"/>
        <path id="DejaVuSans-2d" d="M 313 2009 
L 1997 2009 
L 1997 1497 
L 313 1497 
L 313 2009 
z
" transform="scale(0.015625)"/>
        <path id="DejaVuSans-31" d="M 794 531 
L 1825 531 
L 1825 4091 
L 703 3866 
L 703 4441 
L 1819 4666 
L 2450 4666 
L 2450 531 
L 3481 531 
L 3481 0 
L 794 0 
L 794 531 
z
" transform="scale(0.015625)"/>
       </defs>
       <use xlink:href="#DejaVuSans-32"/>
       <use xlink:href="#DejaVuSans-30" x="63.623047"/>
       <use xlink:href="#DejaVuSans-32" x="127.246094"/>
       <use xlink:href="#DejaVuSans-34" x="190.869141"/>
       <use xlink:href="#DejaVuSans-2d" x="254.492188"/>
       <use xlink:href="#DejaVuSans-30" x="290.576172"/>
       <use xlink:href="#DejaVuSans-31" x="354.199219"/>
      </g>
     </g>
    </g>
    <g id="xtick_2">
     <g id="line2d_3">
      <path d="M 155.767341 578.54175 
L 155.767341 24.14175 
" clip-path="url(#p5c228d6228)" style="fill: none; stroke: #ffffff; stroke-width: 0.8; stroke-linecap: square"/>
     </g>
     <g id="line2d_4">
      <g>
       <use xlink:href="#m723f82a700" x="155.767341" y="578.54175" style="fill: #555555; stroke: #555555; stroke-width: 0.8"/>
      </g>
     </g>
     <g id="text_2">
      <!-- 2024-02 -->
      <g style="fill: #555555" transform="translate(142.946059 620.459567) rotate(-45) scale(0.1 -0.1)">
       <use xlink:href="#DejaVuSans-32"/>
       <use xlink:href="#DejaVuSans-30" x="63.623047"/>
       <use xlink:href="#DejaVuSans-32" x="127.246094"/>
       <use xlink:href="#DejaVuSans-34" x="190.869141"/>
       <use xlink:href="#DejaVuSans-2d" x="254.492188"/>
       <use xlink:href="#DejaVuSans-30" x="290.576172"/>
       <use xlink:href="#DejaVuSans-32" x="354.199219"/>
      </g>
     </g>
    </g>
    <g id="xtick_3">
     <g id="line2d_5">
      <path d="M 229.10761 578.54175 
L 229.10761 24.14175 
" clip-path="url(#p5c228d6228)" style="fill: none; stroke: #ffffff; stroke-width: 0.8; stroke-linecap: square"/>
     </g>
     <g id="line2d_6">
      <g>
       <use xlink:href="#m723f82a700" x="229.10761" y="578.54175" style="fill: #555555; stroke: #555555; stroke-width: 0.8"/>
      </g>
     </g>
     <g id="text_3">
      <!-- 2024-03 -->
      <g style="fill: #555555" transform="translate(216.286328 620.459567) rotate(-45) scale(0.1 -0.1)">
       <defs>
        <path id="DejaVuSans-33" d="M 2597 2516 
Q 3050 2419 3304 2112 
Q 3559 1806 3559 1356 
Q 3559 666 3084 287 
Q 2609 -91 1734 -91 
Q 1441 -91 1130 -33 
Q 819 25 488 141 
L 488 750 
Q 750 597 1062 519 
Q 1375 441 1716 441 
Q 2309 441 2620 675 
Q 2931 909 2931 1356 
Q 2931 1769 2642 2001 
Q 2353 2234 1838 2234 
L 1294 2234 
L 1294 2753 
L 1863 2753 
Q 2328 2753 2575 2939 
Q 2822 3125 2822 3475 
Q 2822 3834 2567 4026 
Q 2313 4219 1838 4219 
Q 1578 4219 1281 4162 
Q 984 4106 628 3988 
L 628 4550 
Q 988 4650 1302 4700 
Q 1616 4750 1894 4750 
Q 2613 4750 3031 4423 
Q 3450 4097 3450 3541 
Q 3450 3153 3228 2886 
Q 3006 2619 2597 2516 
z
" transform="scale(0.015625)"/>
       </defs>
       <use xlink:href="#DejaVuSans-32"/>
       <use xlink:href="#DejaVuSans-30" x="63.623047"/>
       <use xlink:href="#DejaVuSans-32" x="127.246094"/>
       <use xlink:href="#DejaVuSans-34" x="190.869141"/>
       <use xlink:href="#DejaVuSans-2d" x="254.492188"/>
       <use xlink:href="#DejaVuSans-30" x="290.576172"/>
       <use xlink:href="#DejaVuSans-33" x="354.199219"/>
      </g>
     </g>
    </g>
    <g id="xtick_4">
     <g id="line2d_7">
      <path d="M 307.505829 578.54175 
L 307.505829 24.14175 
" clip-path="url(#p5c228d6228)" style="fill: none; stroke: #ffffff; stroke-width: 0.8; stroke-linecap: square"/>
     </g>
     <g id="line2d_8">
      <g>
       <use xlink:href="#m723f82a700" x="307.505829" y="578.54175" style="fill: #555555; stroke: #555555; stroke-width: 0.8"/>
      </g>
     </g>
     <g id="text_4">
      <!-- 2024-04 -->
      <g style="fill: #555555" transform="translate(294.684547 620.459567) rotate(-45) scale(0.1 -0.1)">
       <use xlink:href="#DejaVuSans-32"/>
       <use xlink:href="#DejaVuSans-30" x="63.623047"/>
       <use xlink:href="#DejaVuSans-32" x="127.246094"/>
       <use xlink:href="#DejaVuSans-34" x="190.869141"/>
       <use xlink:href="#DejaVuSans-2d" x="254.492188"/>
       <use xlink:href="#DejaVuSans-30" x="290.576172"/>
       <use xlink:href="#DejaVuSans-34" x="354.199219"/>
      </g>
     </g>
    </g>
    <g id="xtick_5">
     <g id="line2d_9">
      <path d="M 383.375072 578.54175 
L 383.375072 24.14175 
" clip-path="url(#p5c228d6228)" style="fill: none; stroke: #ffffff; stroke-width: 0.8; stroke-linecap: square"/>
     </g>
     <g id="line2d_10">
      <g>
       <use xlink:href="#m723f82a700" x="383.375072" y="578.54175" style="fill: #555555; stroke: #555555; stroke-width: 0.8"/>
      </g>
     </g>
     <g id="text_5">
      <!-- 2024-05 -->
      <g style="fill: #555555" transform="translate(370.55379 620.459567) rotate(-45) scale(0.1 -0.1)">
       <defs>
        <path id="DejaVuSans-35" d="M 691 4666 
L 3169 4666 
L 3169 4134 
L 1269 4134 
L 1269 2991 
Q 1406 3038 1543 3061 
Q 1681 3084 1819 3084 
Q 2600 3084 3056 2656 
Q 3513 2228 3513 1497 
Q 3513 744 3044 326 
Q 2575 -91 1722 -91 
Q 1428 -91 1123 -41 
Q 819 9 494 109 
L 494 744 
Q 775 591 1075 516 
Q 1375 441 1709 441 
Q 2250 441 2565 725 
Q 2881 1009 2881 1497 
Q 2881 1984 2565 2268 
Q 2250 2553 1709 2553 
Q 1456 2553 1204 2497 
Q 953 2441 691 2322 
L 691 4666 
z
" transform="scale(0.015625)"/>
       </defs>
       <use xlink:href="#DejaVuSans-32"/>
       <use xlink:href="#DejaVuSans-30" x="63.623047"/>
       <use xlink:href="#DejaVuSans-32" x="127.246094"/>
       <use xlink:href="#DejaVuSans-34" x="190.869141"/>
       <use xlink:href="#DejaVuSans-2d" x="254.492188"/>
       <use xlink:href="#DejaVuSans-30" x="290.576172"/>
       <use xlink:href="#DejaVuSans-35" x="354.199219"/>
      </g>
     </g>
    </g>
    <g id="xtick_6">
     <g id="line2d_11">
      <path d="M 461.773291 578.54175 
L 461.773291 24.14175 
" clip-path="url(#p5c228d6228)" style="fill: none; stroke: #ffffff; stroke-width: 0.8; stroke-linecap: square"/>
     </g>
     <g id="line2d_12">
      <g>
       <use xlink:href="#m723f82a700" x="461.773291" y="578.54175" style="fill: #555555; stroke: #555555; stroke-width: 0.8"/>
      </g>
     </g>
     <g id="text_6">
      <!-- 2024-06 -->
      <g style="fill: #555555" transform="translate(448.952009 620.459567) rotate(-45) scale(0.1 -0.1)">
       <defs>
        <path id="DejaVuSans-36" d="M 2113 2584 
Q 1688 2584 1439 2293 
Q 1191 2003 1191 1497 
Q 1191 994 1439 701 
Q 1688 409 2113 409 
Q 2538 409 2786 701 
Q 3034 994 3034 1497 
Q 3034 2003 2786 2293 
Q 2538 2584 2113 2584 
z
M 3366 4563 
L 3366 3988 
Q 3128 4100 2886 4159 
Q 2644 4219 2406 4219 
Q 1781 4219 1451 3797 
Q 1122 3375 1075 2522 
Q 1259 2794 1537 2939 
Q 1816 3084 2150 3084 
Q 2853 3084 3261 2657 
Q 3669 2231 3669 1497 
Q 3669 778 3244 343 
Q 2819 -91 2113 -91 
Q 1303 -91 875 529 
Q 447 1150 447 2328 
Q 447 3434 972 4092 
Q 1497 4750 2381 4750 
Q 2619 4750 2861 4703 
Q 3103 4656 3366 4563 
z
" transform="scale(0.015625)"/>
       </defs>
       <use xlink:href="#DejaVuSans-32"/>
       <use xlink:href="#DejaVuSans-30" x="63.623047"/>
       <use xlink:href="#DejaVuSans-32" x="127.246094"/>
       <use xlink:href="#DejaVuSans-34" x="190.869141"/>
       <use xlink:href="#DejaVuSans-2d" x="254.492188"/>
       <use xlink:href="#DejaVuSans-30" x="290.576172"/>
       <use xlink:href="#DejaVuSans-36" x="354.199219"/>
      </g>
     </g>
    </g>
    <g id="xtick_7">
     <g id="line2d_13">
      <path d="M 537.642535 578.54175 
L 537.642535 24.14175 
" clip-path="url(#p5c228d6228)" style="fill: none; stroke: #ffffff; stroke-width: 0.8; stroke-linecap: square"/>
     </g>
     <g id="line2d_14">
      <g>
       <use xlink:href="#m723f82a700" x="537.642535" y="578.54175" style="fill: #555555; stroke: #555555; stroke-width: 0.8"/>
      </g>
     </g>
     <g id="text_7">
      <!-- 2024-07 -->
      <g style="fill: #555555" transform="translate(524.821252 620.459567) rotate(-45) scale(0.1 -0.1)">
       <defs>
        <path id="DejaVuSans-37" d="M 525 4666 
L 3525 4666 
L 3525 4397 
L 1831 0 
L 1172 0 
L 2766 4134 
L 525 4134 
L 525 4666 
z
" transform="scale(0.015625)"/>
       </defs>
       <use xlink:href="#DejaVuSans-32"/>
       <use xlink:href="#DejaVuSans-30" x="63.623047"/>
       <use xlink:href="#DejaVuSans-32" x="127.246094"/>
       <use xlink:href="#DejaVuSans-34" x="190.869141"/>
       <use xlink:href="#DejaVuSans-2d" x="254.492188"/>
       <use xlink:href="#DejaVuSans-30" x="290.576172"/>
       <use xlink:href="#DejaVuSans-37" x="354.199219"/>
      </g>
     </g>
    </g>
    <g id="xtick_8">
     <g id="line2d_15">
      <path d="M 616.040753 578.54175 
L 616.040753 24.14175 
" clip-path="url(#p5c228d6228)" style="fill: none; stroke: #ffffff; stroke-width: 0.8; stroke-linecap: square"/>
     </g>
     <g id="line2d_16">
      <g>
       <use xlink:href="#m723f82a700" x="616.040753" y="578.54175" style="fill: #555555; stroke: #555555; stroke-width: 0.8"/>
      </g>
     </g>
     <g id="text_8">
      <!-- 2024-08 -->
      <g style="fill: #555555" transform="translate(603.219471 620.459567) rotate(-45) scale(0.1 -0.1)">
       <defs>
        <path id="DejaVuSans-38" d="M 2034 2216 
Q 1584 2216 1326 1975 
Q 1069 1734 1069 1313 
Q 1069 891 1326 650 
Q 1584 409 2034 409 
Q 2484 409 2743 651 
Q 3003 894 3003 1313 
Q 3003 1734 2745 1975 
Q 2488 2216 2034 2216 
z
M 1403 2484 
Q 997 2584 770 2862 
Q 544 3141 544 3541 
Q 544 4100 942 4425 
Q 1341 4750 2034 4750 
Q 2731 4750 3128 4425 
Q 3525 4100 3525 3541 
Q 3525 3141 3298 2862 
Q 3072 2584 2669 2484 
Q 3125 2378 3379 2068 
Q 3634 1759 3634 1313 
Q 3634 634 3220 271 
Q 2806 -91 2034 -91 
Q 1263 -91 848 271 
Q 434 634 434 1313 
Q 434 1759 690 2068 
Q 947 2378 1403 2484 
z
M 1172 3481 
Q 1172 3119 1398 2916 
Q 1625 2713 2034 2713 
Q 2441 2713 2670 2916 
Q 2900 3119 2900 3481 
Q 2900 3844 2670 4047 
Q 2441 4250 2034 4250 
Q 1625 4250 1398 4047 
Q 1172 3844 1172 3481 
z
" transform="scale(0.015625)"/>
       </defs>
       <use xlink:href="#DejaVuSans-32"/>
       <use xlink:href="#DejaVuSans-30" x="63.623047"/>
       <use xlink:href="#DejaVuSans-32" x="127.246094"/>
       <use xlink:href="#DejaVuSans-34" x="190.869141"/>
       <use xlink:href="#DejaVuSans-2d" x="254.492188"/>
       <use xlink:href="#DejaVuSans-30" x="290.576172"/>
       <use xlink:href="#DejaVuSans-38" x="354.199219"/>
      </g>
     </g>
    </g>
    <g id="xtick_9">
     <g id="line2d_17">
      <path d="M 694.438972 578.54175 
L 694.438972 24.14175 
" clip-path="url(#p5c228d6228)" style="fill: none; stroke: #ffffff; stroke-width: 0.8; stroke-linecap: square"/>
     </g>
     <g id="line2d_18">
      <g>
       <use xlink:href="#m723f82a700" x="694.438972" y="578.54175" style="fill: #555555; stroke: #555555; stroke-width: 0.8"/>
      </g>
     </g>
     <g id="text_9">
      <!-- 2024-09 -->
      <g style="fill: #555555" transform="translate(681.617689 620.459567) rotate(-45) scale(0.1 -0.1)">
       <defs>
        <path id="DejaVuSans-39" d="M 703 97 
L 703 672 
Q 941 559 1184 500 
Q 1428 441 1663 441 
Q 2288 441 2617 861 
Q 2947 1281 2994 2138 
Q 2813 1869 2534 1725 
Q 2256 1581 1919 1581 
Q 1219 1581 811 2004 
Q 403 2428 403 3163 
Q 403 3881 828 4315 
Q 1253 4750 1959 4750 
Q 2769 4750 3195 4129 
Q 3622 3509 3622 2328 
Q 3622 1225 3098 567 
Q 2575 -91 1691 -91 
Q 1453 -91 1209 -44 
Q 966 3 703 97 
z
M 1959 2075 
Q 2384 2075 2632 2365 
Q 2881 2656 2881 3163 
Q 2881 3666 2632 3958 
Q 2384 4250 1959 4250 
Q 1534 4250 1286 3958 
Q 1038 3666 1038 3163 
Q 1038 2656 1286 2365 
Q 1534 2075 1959 2075 
z
" transform="scale(0.015625)"/>
       </defs>
       <use xlink:href="#DejaVuSans-32"/>
       <use xlink:href="#DejaVuSans-30" x="63.623047"/>
       <use xlink:href="#DejaVuSans-32" x="127.246094"/>
       <use xlink:href="#DejaVuSans-34" x="190.869141"/>
       <use xlink:href="#DejaVuSans-2d" x="254.492188"/>
       <use xlink:href="#DejaVuSans-30" x="290.576172"/>
       <use xlink:href="#DejaVuSans-39" x="354.199219"/>
      </g>
     </g>
    </g>
    <g id="xtick_10">
     <g id="line2d_19">
      <path d="M 770.308215 578.54175 
L 770.308215 24.14175 
" clip-path="url(#p5c228d6228)" style="fill: none; stroke: #ffffff; stroke-width: 0.8; stroke-linecap: square"/>
     </g>
     <g id="line2d_20">
      <g>
       <use xlink:href="#m723f82a700" x="770.308215" y="578.54175" style="fill: #555555; stroke: #555555; stroke-width: 0.8"/>
      </g>
     </g>
     <g id="text_10">
      <!-- 2024-10 -->
      <g style="fill: #555555" transform="translate(757.486933 620.459567) rotate(-45) scale(0.1 -0.1)">
       <use xlink:href="#DejaVuSans-32"/>
       <use xlink:href="#DejaVuSans-30" x="63.623047"/>
       <use xlink:href="#DejaVuSans-32" x="127.246094"/>
       <use xlink:href="#DejaVuSans-34" x="190.869141"/>
       <use xlink:href="#DejaVuSans-2d" x="254.492188"/>
       <use xlink:href="#DejaVuSans-31" x="290.576172"/>
       <use xlink:href="#DejaVuSans-30" x="354.199219"/>
      </g>
     </g>
    </g>
    <g id="xtick_11">
     <g id="line2d_21">
      <path d="M 848.706434 578.54175 
L 848.706434 24.14175 
" clip-path="url(#p5c228d6228)" style="fill: none; stroke: #ffffff; stroke-width: 0.8; stroke-linecap: square"/>
     </g>
     <g id="line2d_22">
      <g>
       <use xlink:href="#m723f82a700" x="848.706434" y="578.54175" style="fill: #555555; stroke: #555555; stroke-width: 0.8"/>
      </g>
     </g>
     <g id="text_11">
      <!-- 2024-11 -->
      <g style="fill: #555555" transform="translate(835.885152 620.459567) rotate(-45) scale(0.1 -0.1)">
       <use xlink:href="#DejaVuSans-32"/>
       <use xlink:href="#DejaVuSans-30" x="63.623047"/>
       <use xlink:href="#DejaVuSans-32" x="127.246094"/>
       <use xlink:href="#DejaVuSans-34" x="190.869141"/>
       <use xlink:href="#DejaVuSans-2d" x="254.492188"/>
       <use xlink:href="#DejaVuSans-31" x="290.576172"/>
       <use xlink:href="#DejaVuSans-31" x="354.199219"/>
      </g>
     </g>
    </g>
    <g id="xtick_12">
     <g id="line2d_23">
      <path d="M 924.575678 578.54175 
L 924.575678 24.14175 
" clip-path="url(#p5c228d6228)" style="fill: none; stroke: #ffffff; stroke-width: 0.8; stroke-linecap: square"/>
     </g>
     <g id="line2d_24">
      <g>
       <use xlink:href="#m723f82a700" x="924.575678" y="578.54175" style="fill: #555555; stroke: #555555; stroke-width: 0.8"/>
      </g>
     </g>
     <g id="text_12">
      <!-- 2024-12 -->
      <g style="fill: #555555" transform="translate(911.754395 620.459567) rotate(-45) scale(0.1 -0.1)">
       <use xlink:href="#DejaVuSans-32"/>
       <use xlink:href="#DejaVuSans-30" x="63.623047"/>
       <use xlink:href="#DejaVuSans-32" x="127.246094"/>
       <use xlink:href="#DejaVuSans-34" x="190.869141"/>
       <use xlink:href="#DejaVuSans-2d" x="254.492188"/>
       <use xlink:href="#DejaVuSans-31" x="290.576172"/>
       <use xlink:href="#DejaVuSans-32" x="354.199219"/>
      </g>
     </g>
    </g>
    <g id="text_13">
     <!-- Date -->
     <g style="fill: #555555" transform="translate(489.160438 635.048253) scale(0.12 -0.12)">
      <defs>
       <path id="DejaVuSans-44" d="M 1259 4147 
L 1259 519 
L 2022 519 
Q 2988 519 3436 956 
Q 3884 1394 3884 2338 
Q 3884 3275 3436 3711 
Q 2988 4147 2022 4147 
L 1259 4147 
z
M 628 4666 
L 1925 4666 
Q 3281 4666 3915 4102 
Q 4550 3538 4550 2338 
Q 4550 1131 3912 565 
Q 3275 0 1925 0 
L 628 0 
L 628 4666 
z
" transform="scale(0.015625)"/>
       <path id="DejaVuSans-61" d="M 2194 1759 
Q 1497 1759 1228 1600 
Q 959 1441 959 1056 
Q 959 750 1161 570 
Q 1363 391 1709 391 
Q 2188 391 2477 730 
Q 2766 1069 2766 1631 
L 2766 1759 
L 2194 1759 
z
M 3341 1997 
L 3341 0 
L 2766 0 
L 2766 531 
Q 2569 213 2275 61 
Q 1981 -91 1556 -91 
Q 1019 -91 701 211 
Q 384 513 384 1019 
Q 384 1609 779 1909 
Q 1175 2209 1959 2209 
L 2766 2209 
L 2766 2266 
Q 2766 2663 2505 2880 
Q 2244 3097 1772 3097 
Q 1472 3097 1187 3025 
Q 903 2953 641 2809 
L 641 3341 
Q 956 3463 1253 3523 
Q 1550 3584 1831 3584 
Q 2591 3584 2966 3190 
Q 3341 2797 3341 1997 
z
" transform="scale(0.015625)"/>
       <path id="DejaVuSans-74" d="M 1172 4494 
L 1172 3500 
L 2356 3500 
L 2356 3053 
L 1172 3053 
L 1172 1153 
Q 1172 725 1289 603 
Q 1406 481 1766 481 
L 2356 481 
L 2356 0 
L 1766 0 
Q 1100 0 847 248 
Q 594 497 594 1153 
L 594 3053 
L 172 3053 
L 172 3500 
L 594 3500 
L 594 4494 
L 1172 4494 
z
" transform="scale(0.015625)"/>
       <path id="DejaVuSans-65" d="M 3597 1894 
L 3597 1613 
L 953 1613 
Q 991 1019 1311 708 
Q 1631 397 2203 397 
Q 2534 397 2845 478 
Q 3156 559 3463 722 
L 3463 178 
Q 3153 47 2828 -22 
Q 2503 -91 2169 -91 
Q 1331 -91 842 396 
Q 353 884 353 1716 
Q 353 2575 817 3079 
Q 1281 3584 2069 3584 
Q 2775 3584 3186 3129 
Q 3597 2675 3597 1894 
z
M 3022 2063 
Q 3016 2534 2758 2815 
Q 2500 3097 2075 3097 
Q 1594 3097 1305 2825 
Q 1016 2553 972 2059 
L 3022 2063 
z
" transform="scale(0.015625)"/>
      </defs>
      <use xlink:href="#DejaVuSans-44"/>
      <use xlink:href="#DejaVuSans-61" x="77.001953"/>
      <use xlink:href="#DejaVuSans-74" x="138.28125"/>
      <use xlink:href="#DejaVuSans-65" x="177.490234"/>
     </g>
    </g>
   </g>
   <g id="matplotlib.axis_2">
    <g id="ytick_1">
     <g id="line2d_25">
      <path d="M 52.079375 578.54175 
L 954.923375 578.54175 
" clip-path="url(#p5c228d6228)" style="fill: none; stroke: #ffffff; stroke-width: 0.8; stroke-linecap: square"/>
     </g>
     <g id="line2d_26">
      <defs>
       <path id="m77577db31e" d="M 0 0 
L -3.5 0 
" style="stroke: #555555; stroke-width: 0.8"/>
      </defs>
      <g>
       <use xlink:href="#m77577db31e" x="52.079375" y="578.54175" style="fill: #555555; stroke: #555555; stroke-width: 0.8"/>
      </g>
     </g>
     <g id="text_14">
      <!-- 0.00 -->
      <g style="fill: #555555" transform="translate(22.81375 582.340969) scale(0.1 -0.1)">
       <defs>
        <path id="DejaVuSans-2e" d="M 684 794 
L 1344 794 
L 1344 0 
L 684 0 
L 684 794 
z
" transform="scale(0.015625)"/>
       </defs>
       <use xlink:href="#DejaVuSans-30"/>
       <use xlink:href="#DejaVuSans-2e" x="63.623047"/>
       <use xlink:href="#DejaVuSans-30" x="95.410156"/>
       <use xlink:href="#DejaVuSans-30" x="159.033203"/>
      </g>
     </g>
    </g>
    <g id="ytick_2">
     <g id="line2d_27">
      <path d="M 52.079375 513.050098 
L 954.923375 513.050098 
" clip-path="url(#p5c228d6228)" style="fill: none; stroke: #ffffff; stroke-width: 0.8; stroke-linecap: square"/>
     </g>
     <g id="line2d_28">
      <g>
       <use xlink:href="#m77577db31e" x="52.079375" y="513.050098" style="fill: #555555; stroke: #555555; stroke-width: 0.8"/>
      </g>
     </g>
     <g id="text_15">
      <!-- 0.05 -->
      <g style="fill: #555555" transform="translate(22.81375 516.849316) scale(0.1 -0.1)">
       <use xlink:href="#DejaVuSans-30"/>
       <use xlink:href="#DejaVuSans-2e" x="63.623047"/>
       <use xlink:href="#DejaVuSans-30" x="95.410156"/>
       <use xlink:href="#DejaVuSans-35" x="159.033203"/>
      </g>
     </g>
    </g>
    <g id="ytick_3">
     <g id="line2d_29">
      <path d="M 52.079375 447.558445 
L 954.923375 447.558445 
" clip-path="url(#p5c228d6228)" style="fill: none; stroke: #ffffff; stroke-width: 0.8; stroke-linecap: square"/>
     </g>
     <g id="line2d_30">
      <g>
       <use xlink:href="#m77577db31e" x="52.079375" y="447.558445" style="fill: #555555; stroke: #555555; stroke-width: 0.8"/>
      </g>
     </g>
     <g id="text_16">
      <!-- 0.10 -->
      <g style="fill: #555555" transform="translate(22.81375 451.357664) scale(0.1 -0.1)">
       <use xlink:href="#DejaVuSans-30"/>
       <use xlink:href="#DejaVuSans-2e" x="63.623047"/>
       <use xlink:href="#DejaVuSans-31" x="95.410156"/>
       <use xlink:href="#DejaVuSans-30" x="159.033203"/>
      </g>
     </g>
    </g>
    <g id="ytick_4">
     <g id="line2d_31">
      <path d="M 52.079375 382.066793 
L 954.923375 382.066793 
" clip-path="url(#p5c228d6228)" style="fill: none; stroke: #ffffff; stroke-width: 0.8; stroke-linecap: square"/>
     </g>
     <g id="line2d_32">
      <g>
       <use xlink:href="#m77577db31e" x="52.079375" y="382.066793" style="fill: #555555; stroke: #555555; stroke-width: 0.8"/>
      </g>
     </g>
     <g id="text_17">
      <!-- 0.15 -->
      <g style="fill: #555555" transform="translate(22.81375 385.866011) scale(0.1 -0.1)">
       <use xlink:href="#DejaVuSans-30"/>
       <use xlink:href="#DejaVuSans-2e" x="63.623047"/>
       <use xlink:href="#DejaVuSans-31" x="95.410156"/>
       <use xlink:href="#DejaVuSans-35" x="159.033203"/>
      </g>
     </g>
    </g>
    <g id="ytick_5">
     <g id="line2d_33">
      <path d="M 52.079375 316.57514 
L 954.923375 316.57514 
" clip-path="url(#p5c228d6228)" style="fill: none; stroke: #ffffff; stroke-width: 0.8; stroke-linecap: square"/>
     </g>
     <g id="line2d_34">
      <g>
       <use xlink:href="#m77577db31e" x="52.079375" y="316.57514" style="fill: #555555; stroke: #555555; stroke-width: 0.8"/>
      </g>
     </g>
     <g id="text_18">
      <!-- 0.20 -->
      <g style="fill: #555555" transform="translate(22.81375 320.374359) scale(0.1 -0.1)">
       <use xlink:href="#DejaVuSans-30"/>
       <use xlink:href="#DejaVuSans-2e" x="63.623047"/>
       <use xlink:href="#DejaVuSans-32" x="95.410156"/>
       <use xlink:href="#DejaVuSans-30" x="159.033203"/>
      </g>
     </g>
    </g>
    <g id="ytick_6">
     <g id="line2d_35">
      <path d="M 52.079375 251.083488 
L 954.923375 251.083488 
" clip-path="url(#p5c228d6228)" style="fill: none; stroke: #ffffff; stroke-width: 0.8; stroke-linecap: square"/>
     </g>
     <g id="line2d_36">
      <g>
       <use xlink:href="#m77577db31e" x="52.079375" y="251.083488" style="fill: #555555; stroke: #555555; stroke-width: 0.8"/>
      </g>
     </g>
     <g id="text_19">
      <!-- 0.25 -->
      <g style="fill: #555555" transform="translate(22.81375 254.882706) scale(0.1 -0.1)">
       <use xlink:href="#DejaVuSans-30"/>
       <use xlink:href="#DejaVuSans-2e" x="63.623047"/>
       <use xlink:href="#DejaVuSans-32" x="95.410156"/>
       <use xlink:href="#DejaVuSans-35" x="159.033203"/>
      </g>
     </g>
    </g>
    <g id="ytick_7">
     <g id="line2d_37">
      <path d="M 52.079375 185.591835 
L 954.923375 185.591835 
" clip-path="url(#p5c228d6228)" style="fill: none; stroke: #ffffff; stroke-width: 0.8; stroke-linecap: square"/>
     </g>
     <g id="line2d_38">
      <g>
       <use xlink:href="#m77577db31e" x="52.079375" y="185.591835" style="fill: #555555; stroke: #555555; stroke-width: 0.8"/>
      </g>
     </g>
     <g id="text_20">
      <!-- 0.30 -->
      <g style="fill: #555555" transform="translate(22.81375 189.391054) scale(0.1 -0.1)">
       <use xlink:href="#DejaVuSans-30"/>
       <use xlink:href="#DejaVuSans-2e" x="63.623047"/>
       <use xlink:href="#DejaVuSans-33" x="95.410156"/>
       <use xlink:href="#DejaVuSans-30" x="159.033203"/>
      </g>
     </g>
    </g>
    <g id="ytick_8">
     <g id="line2d_39">
      <path d="M 52.079375 120.100183 
L 954.923375 120.100183 
" clip-path="url(#p5c228d6228)" style="fill: none; stroke: #ffffff; stroke-width: 0.8; stroke-linecap: square"/>
     </g>
     <g id="line2d_40">
      <g>
       <use xlink:href="#m77577db31e" x="52.079375" y="120.100183" style="fill: #555555; stroke: #555555; stroke-width: 0.8"/>
      </g>
     </g>
     <g id="text_21">
      <!-- 0.35 -->
      <g style="fill: #555555" transform="translate(22.81375 123.899401) scale(0.1 -0.1)">
       <use xlink:href="#DejaVuSans-30"/>
       <use xlink:href="#DejaVuSans-2e" x="63.623047"/>
       <use xlink:href="#DejaVuSans-33" x="95.410156"/>
       <use xlink:href="#DejaVuSans-35" x="159.033203"/>
      </g>
     </g>
    </g>
    <g id="ytick_9">
     <g id="line2d_41">
      <path d="M 52.079375 54.60853 
L 954.923375 54.60853 
" clip-path="url(#p5c228d6228)" style="fill: none; stroke: #ffffff; stroke-width: 0.8; stroke-linecap: square"/>
     </g>
     <g id="line2d_42">
      <g>
       <use xlink:href="#m77577db31e" x="52.079375" y="54.60853" style="fill: #555555; stroke: #555555; stroke-width: 0.8"/>
      </g>
     </g>
     <g id="text_22">
      <!-- 0.40 -->
      <g style="fill: #555555" transform="translate(22.81375 58.407749) scale(0.1 -0.1)">
       <use xlink:href="#DejaVuSans-30"/>
       <use xlink:href="#DejaVuSans-2e" x="63.623047"/>
       <use xlink:href="#DejaVuSans-34" x="95.410156"/>
       <use xlink:href="#DejaVuSans-30" x="159.033203"/>
      </g>
     </g>
    </g>
    <g id="text_23">
     <!-- Share -->
     <g style="fill: #555555" transform="translate(16.318125 318.653625) rotate(-90) scale(0.12 -0.12)">
      <defs>
       <path id="DejaVuSans-53" d="M 3425 4513 
L 3425 3897 
Q 3066 4069 2747 4153 
Q 2428 4238 2131 4238 
Q 1616 4238 1336 4038 
Q 1056 3838 1056 3469 
Q 1056 3159 1242 3001 
Q 1428 2844 1947 2747 
L 2328 2669 
Q 3034 2534 3370 2195 
Q 3706 1856 3706 1288 
Q 3706 609 3251 259 
Q 2797 -91 1919 -91 
Q 1588 -91 1214 -16 
Q 841 59 441 206 
L 441 856 
Q 825 641 1194 531 
Q 1563 422 1919 422 
Q 2459 422 2753 634 
Q 3047 847 3047 1241 
Q 3047 1584 2836 1778 
Q 2625 1972 2144 2069 
L 1759 2144 
Q 1053 2284 737 2584 
Q 422 2884 422 3419 
Q 422 4038 858 4394 
Q 1294 4750 2059 4750 
Q 2388 4750 2728 4690 
Q 3069 4631 3425 4513 
z
" transform="scale(0.015625)"/>
       <path id="DejaVuSans-68" d="M 3513 2113 
L 3513 0 
L 2938 0 
L 2938 2094 
Q 2938 2591 2744 2837 
Q 2550 3084 2163 3084 
Q 1697 3084 1428 2787 
Q 1159 2491 1159 1978 
L 1159 0 
L 581 0 
L 581 4863 
L 1159 4863 
L 1159 2956 
Q 1366 3272 1645 3428 
Q 1925 3584 2291 3584 
Q 2894 3584 3203 3211 
Q 3513 2838 3513 2113 
z
" transform="scale(0.015625)"/>
       <path id="DejaVuSans-72" d="M 2631 2963 
Q 2534 3019 2420 3045 
Q 2306 3072 2169 3072 
Q 1681 3072 1420 2755 
Q 1159 2438 1159 1844 
L 1159 0 
L 581 0 
L 581 3500 
L 1159 3500 
L 1159 2956 
Q 1341 3275 1631 3429 
Q 1922 3584 2338 3584 
Q 2397 3584 2469 3576 
Q 2541 3569 2628 3553 
L 2631 2963 
z
" transform="scale(0.015625)"/>
      </defs>
      <use xlink:href="#DejaVuSans-53"/>
      <use xlink:href="#DejaVuSans-68" x="63.476562"/>
      <use xlink:href="#DejaVuSans-61" x="126.855469"/>
      <use xlink:href="#DejaVuSans-72" x="188.134766"/>
      <use xlink:href="#DejaVuSans-65" x="226.998047"/>
     </g>
    </g>
   </g>
   <g id="line2d_43">
    <path d="M 52.079375 361.579059 
L 61.199011 361.027596 
L 70.318648 360.476133 
L 79.438284 359.92467 
L 88.55792 359.373207 
L 97.677557 358.821744 
L 106.797193 358.270281 
L 115.91683 357.718818 
L 125.036466 357.167355 
L 134.156102 356.615892 
L 143.275739 356.064429 
L 152.395375 355.512966 
L 161.515011 354.961503 
L 170.634648 354.410039 
L 179.754284 353.858576 
L 188.87392 353.307113 
L 197.993557 352.75565 
L 207.113193 352.204187 
L 216.23283 351.652724 
L 225.352466 351.101261 
L 234.472102 350.549798 
L 243.591739 349.998335 
L 252.711375 349.446872 
L 261.831011 348.895409 
L 270.950648 348.343946 
L 280.070284 347.792483 
L 289.18992 347.24102 
L 298.309557 346.689557 
L 307.429193 346.138094 
L 316.54883 345.586631 
L 325.668466 345.035168 
L 334.788102 344.483705 
L 343.907739 343.932242 
L 353.027375 343.380779 
L 362.147011 342.829316 
L 371.266648 342.277853 
L 380.386284 341.72639 
L 389.50592 341.174927 
L 398.625557 340.623464 
L 407.745193 340.072001 
L 416.86483 339.520537 
L 425.984466 338.969074 
L 435.104102 338.417611 
L 444.223739 337.866148 
L 453.343375 337.314685 
L 462.463011 336.763222 
L 471.582648 336.211759 
L 480.702284 335.660296 
L 489.82192 335.108833 
L 498.941557 334.55737 
L 508.061193 334.005907 
L 517.18083 333.454444 
L 526.300466 332.902981 
L 535.420102 332.351518 
L 544.539739 331.800055 
L 553.659375 331.248592 
L 562.779011 330.697129 
L 571.898648 330.145666 
L 581.018284 329.594203 
L 590.13792 329.04274 
L 599.257557 328.491277 
L 608.377193 327.939814 
L 617.49683 327.388351 
L 626.616466 326.836888 
L 635.736102 326.285425 
L 644.855739 325.733962 
L 653.975375 325.182499 
L 663.095011 324.631036 
L 672.214648 324.079572 
L 681.334284 323.528109 
L 690.45392 322.976646 
L 699.573557 322.425183 
L 708.693193 321.87372 
L 717.81283 321.322257 
L 726.932466 320.770794 
L 736.052102 320.219331 
L 745.171739 319.667868 
L 754.291375 319.116405 
L 763.411011 318.564942 
L 772.530648 318.013479 
L 781.650284 317.462016 
L 790.76992 316.910553 
L 799.889557 316.35909 
L 809.009193 315.807627 
L 818.12883 315.256164 
L 827.248466 314.704701 
L 836.368102 314.153238 
L 845.487739 313.601775 
L 854.607375 313.050312 
L 863.727011 312.498849 
L 872.846648 311.947386 
L 881.966284 311.395923 
L 891.08592 310.84446 
L 900.205557 310.292997 
L 909.325193 309.741534 
L 918.44483 309.19007 
L 927.564466 308.638607 
L 936.684102 308.087144 
L 945.803739 307.535681 
L 954.923375 306.984218 
" clip-path="url(#p5c228d6228)" style="fill: none; stroke-dasharray: 1.5,2.475; stroke-dashoffset: 0; stroke: #4ac1fa; stroke-width: 1.5"/>
   </g>
   <g id="line2d_44">
    <path d="M 52.079375 353.047127 
L 61.199011 354.455323 
L 70.318648 355.863519 
L 79.438284 357.271715 
L 88.55792 358.679911 
L 97.677557 360.088108 
L 106.797193 361.496304 
L 115.91683 362.9045 
L 125.036466 364.312696 
L 134.156102 365.720893 
L 143.275739 367.129089 
L 152.395375 368.537285 
L 161.515011 369.945481 
L 170.634648 371.353677 
L 179.754284 372.761874 
L 188.87392 374.17007 
L 197.993557 375.578266 
L 207.113193 376.986462 
L 216.23283 378.394658 
L 225.352466 379.802855 
L 234.472102 381.211051 
L 243.591739 382.619247 
L 252.711375 384.027443 
L 261.831011 385.435639 
L 270.950648 386.843836 
L 280.070284 388.252032 
L 289.18992 389.660228 
L 298.309557 391.068424 
L 307.429193 392.476621 
L 316.54883 393.884817 
L 325.668466 395.293013 
L 334.788102 396.701209 
L 343.907739 398.109405 
L 353.027375 399.517602 
L 362.147011 400.925798 
L 371.266648 402.333994 
L 380.386284 403.74219 
L 389.50592 405.150386 
L 398.625557 406.558583 
L 407.745193 407.966779 
L 416.86483 409.374975 
L 425.984466 410.783171 
L 435.104102 412.191367 
L 444.223739 413.599564 
L 453.343375 415.00776 
L 462.463011 416.415956 
L 471.582648 417.824152 
L 480.702284 419.232349 
L 489.82192 420.640545 
L 498.941557 422.048741 
L 508.061193 423.456937 
L 517.18083 424.865133 
L 526.300466 426.27333 
L 535.420102 427.681526 
L 544.539739 429.089722 
L 553.659375 430.497918 
L 562.779011 431.906114 
L 571.898648 433.314311 
L 581.018284 434.722507 
L 590.13792 436.130703 
L 599.257557 437.538899 
L 608.377193 438.947095 
L 617.49683 440.355292 
L 626.616466 441.763488 
L 635.736102 443.171684 
L 644.855739 444.57988 
L 653.975375 445.988077 
L 663.095011 447.396273 
L 672.214648 448.804469 
L 681.334284 450.212665 
L 690.45392 451.620861 
L 699.573557 453.029058 
L 708.693193 454.437254 
L 717.81283 455.84545 
L 726.932466 457.253646 
L 736.052102 458.661842 
L 745.171739 460.070039 
L 754.291375 461.478235 
L 763.411011 462.886431 
L 772.530648 464.294627 
L 781.650284 465.702823 
L 790.76992 467.11102 
L 799.889557 468.519216 
L 809.009193 469.927412 
L 818.12883 471.335608 
L 827.248466 472.743804 
L 836.368102 474.152001 
L 845.487739 475.560197 
L 854.607375 476.968393 
L 863.727011 478.376589 
L 872.846648 479.784786 
L 881.966284 481.192982 
L 891.08592 482.601178 
L 900.205557 484.009374 
L 909.325193 485.41757 
L 918.44483 486.825767 
L 927.564466 488.233963 
L 936.684102 489.642159 
L 945.803739 491.050355 
L 954.923375 492.458551 
" clip-path="url(#p5c228d6228)" style="fill: none; stroke-dasharray: 1.5,2.475; stroke-dashoffset: 0; stroke: #e9a942; stroke-width: 1.5"/>
   </g>
   <g id="line2d_45">
    <path d="M 52.079375 383.290907 
L 61.199011 384.543611 
L 70.318648 385.796315 
L 79.438284 387.049019 
L 88.55792 388.301723 
L 97.677557 389.554427 
L 106.797193 390.807131 
L 115.91683 392.059835 
L 125.036466 393.312539 
L 134.156102 394.565243 
L 143.275739 395.817947 
L 152.395375 397.070651 
L 161.515011 398.323355 
L 170.634648 399.576059 
L 179.754284 400.828762 
L 188.87392 402.081466 
L 197.993557 403.33417 
L 207.113193 404.586874 
L 216.23283 405.839578 
L 225.352466 407.092282 
L 234.472102 408.344986 
L 243.591739 409.59769 
L 252.711375 410.850394 
L 261.831011 412.103098 
L 270.950648 413.355802 
L 280.070284 414.608506 
L 289.18992 415.86121 
L 298.309557 417.113914 
L 307.429193 418.366618 
L 316.54883 419.619322 
L 325.668466 420.872026 
L 334.788102 422.12473 
L 343.907739 423.377434 
L 353.027375 424.630138 
L 362.147011 425.882842 
L 371.266648 427.135546 
L 380.386284 428.38825 
L 389.50592 429.640953 
L 398.625557 430.893657 
L 407.745193 432.146361 
L 416.86483 433.399065 
L 425.984466 434.651769 
L 435.104102 435.904473 
L 444.223739 437.157177 
L 453.343375 438.409881 
L 462.463011 439.662585 
L 471.582648 440.915289 
L 480.702284 442.167993 
L 489.82192 443.420697 
L 498.941557 444.673401 
L 508.061193 445.926105 
L 517.18083 447.178809 
L 526.300466 448.431513 
L 535.420102 449.684217 
L 544.539739 450.936921 
L 553.659375 452.189625 
L 562.779011 453.442329 
L 571.898648 454.695033 
L 581.018284 455.947737 
L 590.13792 457.200441 
L 599.257557 458.453145 
L 608.377193 459.705848 
L 617.49683 460.958552 
L 626.616466 462.211256 
L 635.736102 463.46396 
L 644.855739 464.716664 
L 653.975375 465.969368 
L 663.095011 467.222072 
L 672.214648 468.474776 
L 681.334284 469.72748 
L 690.45392 470.980184 
L 699.573557 472.232888 
L 708.693193 473.485592 
L 717.81283 474.738296 
L 726.932466 475.991 
L 736.052102 477.243704 
L 745.171739 478.496408 
L 754.291375 479.749112 
L 763.411011 481.001816 
L 772.530648 482.25452 
L 781.650284 483.507224 
L 790.76992 484.759928 
L 799.889557 486.012632 
L 809.009193 487.265336 
L 818.12883 488.518039 
L 827.248466 489.770743 
L 836.368102 491.023447 
L 845.487739 492.276151 
L 854.607375 493.528855 
L 863.727011 494.781559 
L 872.846648 496.034263 
L 881.966284 497.286967 
L 891.08592 498.539671 
L 900.205557 499.792375 
L 909.325193 501.045079 
L 918.44483 502.297783 
L 927.564466 503.550487 
L 936.684102 504.803191 
L 945.803739 506.055895 
L 954.923375 507.308599 
" clip-path="url(#p5c228d6228)" style="fill: none; stroke-dasharray: 1.5,2.475; stroke-dashoffset: 0; stroke: #9a5689; stroke-width: 1.5"/>
   </g>
   <g id="line2d_46">
    <path d="M 52.079375 532.979132 
L 61.199011 533.0072 
L 70.318648 533.035267 
L 79.438284 533.063335 
L 88.55792 533.091402 
L 97.677557 533.119469 
L 106.797193 533.147537 
L 115.91683 533.175604 
L 125.036466 533.203672 
L 134.156102 533.231739 
L 143.275739 533.259807 
L 152.395375 533.287874 
L 161.515011 533.315941 
L 170.634648 533.344009 
L 179.754284 533.372076 
L 188.87392 533.400144 
L 197.993557 533.428211 
L 207.113193 533.456279 
L 216.23283 533.484346 
L 225.352466 533.512413 
L 234.472102 533.540481 
L 243.591739 533.568548 
L 252.711375 533.596616 
L 261.831011 533.624683 
L 270.950648 533.65275 
L 280.070284 533.680818 
L 289.18992 533.708885 
L 298.309557 533.736953 
L 307.429193 533.76502 
L 316.54883 533.793088 
L 325.668466 533.821155 
L 334.788102 533.849222 
L 343.907739 533.87729 
L 353.027375 533.905357 
L 362.147011 533.933425 
L 371.266648 533.961492 
L 380.386284 533.989559 
L 389.50592 534.017627 
L 398.625557 534.045694 
L 407.745193 534.073762 
L 416.86483 534.101829 
L 425.984466 534.129897 
L 435.104102 534.157964 
L 444.223739 534.186031 
L 453.343375 534.214099 
L 462.463011 534.242166 
L 471.582648 534.270234 
L 480.702284 534.298301 
L 489.82192 534.326368 
L 498.941557 534.354436 
L 508.061193 534.382503 
L 517.18083 534.410571 
L 526.300466 534.438638 
L 535.420102 534.466706 
L 544.539739 534.494773 
L 553.659375 534.52284 
L 562.779011 534.550908 
L 571.898648 534.578975 
L 581.018284 534.607043 
L 590.13792 534.63511 
L 599.257557 534.663178 
L 608.377193 534.691245 
L 617.49683 534.719312 
L 626.616466 534.74738 
L 635.736102 534.775447 
L 644.855739 534.803515 
L 653.975375 534.831582 
L 663.095011 534.859649 
L 672.214648 534.887717 
L 681.334284 534.915784 
L 690.45392 534.943852 
L 699.573557 534.971919 
L 708.693193 534.999987 
L 717.81283 535.028054 
L 726.932466 535.056121 
L 736.052102 535.084189 
L 745.171739 535.112256 
L 754.291375 535.140324 
L 763.411011 535.168391 
L 772.530648 535.196458 
L 781.650284 535.224526 
L 790.76992 535.252593 
L 799.889557 535.280661 
L 809.009193 535.308728 
L 818.12883 535.336796 
L 827.248466 535.364863 
L 836.368102 535.39293 
L 845.487739 535.420998 
L 854.607375 535.449065 
L 863.727011 535.477133 
L 872.846648 535.5052 
L 881.966284 535.533268 
L 891.08592 535.561335 
L 900.205557 535.589402 
L 909.325193 535.61747 
L 918.44483 535.645537 
L 927.564466 535.673605 
L 936.684102 535.701672 
L 945.803739 535.729739 
L 954.923375 535.757807 
" clip-path="url(#p5c228d6228)" style="fill: none; stroke-dasharray: 1.5,2.475; stroke-dashoffset: 0; stroke: #be503b; stroke-width: 1.5"/>
   </g>
   <g id="line2d_47">
    <path d="M 52.079375 357.297804 
L 61.199011 356.731272 
L 70.318648 356.164739 
L 79.438284 355.598206 
L 88.55792 355.031674 
L 97.677557 354.465141 
L 106.797193 353.898608 
L 115.91683 353.332075 
L 125.036466 352.765543 
L 134.156102 352.19901 
L 143.275739 351.632477 
L 152.395375 351.065945 
L 161.515011 350.499412 
L 170.634648 349.932879 
L 179.754284 349.366346 
L 188.87392 348.799814 
L 197.993557 348.233281 
L 207.113193 347.666748 
L 216.23283 347.100215 
L 225.352466 346.533683 
L 234.472102 345.96715 
L 243.591739 345.400617 
L 252.711375 344.834085 
L 261.831011 344.267552 
L 270.950648 343.701019 
L 280.070284 343.134486 
L 289.18992 342.567954 
L 298.309557 342.001421 
L 307.429193 341.434888 
L 316.54883 340.868356 
L 325.668466 340.301823 
L 334.788102 339.73529 
L 343.907739 339.168757 
L 353.027375 338.602225 
L 362.147011 338.035692 
L 371.266648 337.469159 
L 380.386284 336.902627 
L 389.50592 336.336094 
L 398.625557 335.769561 
L 407.745193 335.203028 
L 416.86483 334.636496 
L 425.984466 334.069963 
L 435.104102 333.50343 
L 444.223739 332.936898 
L 453.343375 332.370365 
L 462.463011 331.803832 
L 471.582648 331.237299 
L 480.702284 330.670767 
L 489.82192 330.104234 
L 498.941557 329.537701 
L 508.061193 328.971169 
L 517.18083 328.404636 
L 526.300466 327.838103 
L 535.420102 327.27157 
L 544.539739 326.705038 
L 553.659375 326.138505 
L 562.779011 325.571972 
L 571.898648 325.00544 
L 581.018284 324.438907 
L 590.13792 323.872374 
L 599.257557 323.305841 
L 608.377193 322.739309 
L 617.49683 322.172776 
L 626.616466 321.606243 
L 635.736102 321.039711 
L 644.855739 320.473178 
L 653.975375 319.906645 
L 663.095011 319.340112 
L 672.214648 318.77358 
L 681.334284 318.207047 
L 690.45392 317.640514 
L 699.573557 317.073982 
L 708.693193 316.507449 
L 717.81283 315.940916 
L 726.932466 315.374383 
L 736.052102 314.807851 
L 745.171739 314.241318 
L 754.291375 313.674785 
L 763.411011 313.108253 
L 772.530648 312.54172 
L 781.650284 311.975187 
L 790.76992 311.408654 
L 799.889557 310.842122 
L 809.009193 310.275589 
L 818.12883 309.709056 
L 827.248466 309.142524 
L 836.368102 308.575991 
L 845.487739 308.009458 
L 854.607375 307.442925 
L 863.727011 306.876393 
L 872.846648 306.30986 
L 881.966284 305.743327 
L 891.08592 305.176795 
L 900.205557 304.610262 
L 909.325193 304.043729 
L 918.44483 303.477196 
L 927.564466 302.910664 
L 936.684102 302.344131 
L 945.803739 301.777598 
L 954.923375 301.211066 
" clip-path="url(#p5c228d6228)" style="fill: none; stroke-dasharray: 1.5,2.475; stroke-dashoffset: 0; stroke: #e2321d; stroke-width: 1.5"/>
   </g>
   <g id="line2d_48">
    <path d="M 52.079375 195.051665 
L 61.199011 193.572685 
L 70.318648 192.093704 
L 79.438284 190.614724 
L 88.55792 189.135743 
L 97.677557 187.656762 
L 106.797193 186.177782 
L 115.91683 184.698801 
L 125.036466 183.219821 
L 134.156102 181.74084 
L 143.275739 180.261859 
L 152.395375 178.782879 
L 161.515011 177.303898 
L 170.634648 175.824918 
L 179.754284 174.345937 
L 188.87392 172.866957 
L 197.993557 171.387976 
L 207.113193 169.908995 
L 216.23283 168.430015 
L 225.352466 166.951034 
L 234.472102 165.472054 
L 243.591739 163.993073 
L 252.711375 162.514092 
L 261.831011 161.035112 
L 270.950648 159.556131 
L 280.070284 158.077151 
L 289.18992 156.59817 
L 298.309557 155.11919 
L 307.429193 153.640209 
L 316.54883 152.161228 
L 325.668466 150.682248 
L 334.788102 149.203267 
L 343.907739 147.724287 
L 353.027375 146.245306 
L 362.147011 144.766325 
L 371.266648 143.287345 
L 380.386284 141.808364 
L 389.50592 140.329384 
L 398.625557 138.850403 
L 407.745193 137.371423 
L 416.86483 135.892442 
L 425.984466 134.413461 
L 435.104102 132.934481 
L 444.223739 131.4555 
L 453.343375 129.97652 
L 462.463011 128.497539 
L 471.582648 127.018558 
L 480.702284 125.539578 
L 489.82192 124.060597 
L 498.941557 122.581617 
L 508.061193 121.102636 
L 517.18083 119.623656 
L 526.300466 118.144675 
L 535.420102 116.665694 
L 544.539739 115.186714 
L 553.659375 113.707733 
L 562.779011 112.228753 
L 571.898648 110.749772 
L 581.018284 109.270791 
L 590.13792 107.791811 
L 599.257557 106.31283 
L 608.377193 104.83385 
L 617.49683 103.354869 
L 626.616466 101.875889 
L 635.736102 100.396908 
L 644.855739 98.917927 
L 653.975375 97.438947 
L 663.095011 95.959966 
L 672.214648 94.480986 
L 681.334284 93.002005 
L 690.45392 91.523024 
L 699.573557 90.044044 
L 708.693193 88.565063 
L 717.81283 87.086083 
L 726.932466 85.607102 
L 736.052102 84.128122 
L 745.171739 82.649141 
L 754.291375 81.17016 
L 763.411011 79.69118 
L 772.530648 78.212199 
L 781.650284 76.733219 
L 790.76992 75.254238 
L 799.889557 73.775257 
L 809.009193 72.296277 
L 818.12883 70.817296 
L 827.248466 69.338316 
L 836.368102 67.859335 
L 845.487739 66.380355 
L 854.607375 64.901374 
L 863.727011 63.422393 
L 872.846648 61.943413 
L 881.966284 60.464432 
L 891.08592 58.985452 
L 900.205557 57.506471 
L 909.325193 56.02749 
L 918.44483 54.54851 
L 927.564466 53.069529 
L 936.684102 51.590549 
L 945.803739 50.111568 
L 954.923375 48.632588 
" clip-path="url(#p5c228d6228)" style="fill: none; stroke-dasharray: 1.5,2.475; stroke-dashoffset: 0; stroke: #48b585; stroke-width: 1.5"/>
   </g>
   <g id="line2d_49">
    <path d="M 52.079375 359.28485 
L 69.782199 343.154336 
L 87.485022 343.709565 
L 105.187846 354.048882 
L 122.890669 363.95276 
L 140.593493 361.161657 
L 158.296316 343.702058 
L 175.99914 336.378022 
L 193.701963 358.20543 
L 211.404787 351.233726 
L 229.10761 352.331421 
L 246.810434 352.3257 
L 264.513257 354.925238 
L 282.216081 366.796974 
L 299.918904 355.751094 
L 317.621728 359.850345 
L 335.324551 354.430035 
L 353.027375 357.752481 
L 370.730199 356.678092 
L 388.433022 352.369659 
L 406.135846 351.0667 
L 423.838669 347.749272 
L 441.541493 352.103419 
L 459.244316 352.475142 
L 476.94714 338.273634 
L 494.649963 320.394298 
L 512.352787 336.688442 
L 530.05561 330.568535 
L 547.758434 324.776984 
L 565.461257 322.711353 
L 583.164081 316.207109 
L 600.866904 311.408636 
L 618.569728 312.26309 
L 636.272551 309.410048 
L 653.975375 312.570208 
L 671.678199 319.536664 
L 689.381022 308.789418 
L 707.083846 311.723603 
L 724.786669 313.363085 
L 742.489493 312.341471 
L 760.192316 312.617405 
L 777.89514 313.248823 
L 795.597963 322.617324 
L 813.300787 318.186599 
L 831.00361 316.359838 
L 848.706434 315.954173 
L 866.409257 319.799475 
L 884.112081 313.15797 
L 901.814904 324.85519 
L 919.517728 307.688571 
L 937.220551 319.40654 
L 954.923375 316.289869 
" clip-path="url(#p5c228d6228)" style="fill: none; stroke: #4ac1fa; stroke-width: 1.5; stroke-linecap: square"/>
   </g>
   <g id="line2d_50">
    <path d="M 52.079375 383.064757 
L 69.782199 404.103076 
L 87.485022 418.446433 
L 105.187846 398.115691 
L 122.890669 356.000994 
L 140.593493 345.072168 
L 158.296316 361.906746 
L 175.99914 408.234485 
L 193.701963 330.683771 
L 211.404787 344.84373 
L 229.10761 336.727893 
L 246.810434 364.418967 
L 264.513257 346.035485 
L 282.216081 318.956347 
L 299.918904 344.269645 
L 317.621728 365.371186 
L 335.324551 427.882424 
L 353.027375 412.938724 
L 370.730199 403.252173 
L 388.433022 426.576427 
L 406.135846 427.598393 
L 423.838669 423.547681 
L 441.541493 410.146794 
L 459.244316 408.791579 
L 476.94714 400.100048 
L 494.649963 419.216559 
L 512.352787 417.317489 
L 530.05561 433.982306 
L 547.758434 436.175981 
L 565.461257 444.946659 
L 583.164081 448.37272 
L 600.866904 443.34729 
L 618.569728 456.846903 
L 636.272551 461.552991 
L 653.975375 443.516095 
L 671.678199 446.328724 
L 689.381022 462.67287 
L 707.083846 463.80075 
L 724.786669 461.741379 
L 742.489493 455.405919 
L 760.192316 463.217734 
L 777.89514 481.365617 
L 795.597963 465.341534 
L 813.300787 470.939561 
L 831.00361 471.381368 
L 848.706434 477.816249 
L 866.409257 476.331818 
L 884.112081 483.372978 
L 901.814904 478.49573 
L 919.517728 494.268859 
L 937.220551 480.492128 
L 954.923375 477.813802 
" clip-path="url(#p5c228d6228)" style="fill: none; stroke: #e9a942; stroke-width: 1.5; stroke-linecap: square"/>
   </g>
   <g id="line2d_51">
    <path d="M 52.079375 389.025119 
L 69.782199 394.503527 
L 87.485022 393.080895 
L 105.187846 390.092774 
L 122.890669 396.446967 
L 140.593493 394.9974 
L 158.296316 393.850146 
L 175.99914 388.155147 
L 193.701963 408.313078 
L 211.404787 401.228612 
L 229.10761 406.535617 
L 246.810434 406.240443 
L 264.513257 393.18533 
L 282.216081 401.232945 
L 299.918904 414.025392 
L 317.621728 416.838464 
L 335.324551 372.306881 
L 353.027375 397.321754 
L 370.730199 402.954744 
L 388.433022 411.41526 
L 406.135846 403.341679 
L 423.838669 405.389224 
L 441.541493 403.140178 
L 459.244316 414.308169 
L 476.94714 465.683597 
L 494.649963 496.117365 
L 512.352787 500.439157 
L 530.05561 491.070718 
L 547.758434 488.583866 
L 565.461257 488.618831 
L 583.164081 483.778962 
L 600.866904 480.32274 
L 618.569728 479.955632 
L 636.272551 485.748047 
L 653.975375 487.992966 
L 671.678199 489.529957 
L 689.381022 484.19137 
L 707.083846 486.426185 
L 724.786669 485.448737 
L 742.489493 487.1709 
L 760.192316 486.144232 
L 777.89514 482.006063 
L 795.597963 485.879478 
L 813.300787 486.67193 
L 831.00361 486.887683 
L 848.706434 480.944927 
L 866.409257 481.620108 
L 884.112081 480.529147 
L 901.814904 470.15034 
L 919.517728 472.009591 
L 937.220551 481.360478 
L 954.923375 482.374401 
" clip-path="url(#p5c228d6228)" style="fill: none; stroke: #9a5689; stroke-width: 1.5; stroke-linecap: square"/>
   </g>
   <g id="line2d_52">
    <path d="M 52.079375 532.380305 
L 69.782199 530.070348 
L 87.485022 530.240963 
L 105.187846 531.772232 
L 122.890669 533.590811 
L 140.593493 532.575923 
L 158.296316 530.99481 
L 175.99914 529.383914 
L 193.701963 534.46996 
L 211.404787 533.266149 
L 229.10761 533.912724 
L 246.810434 535.079031 
L 264.513257 536.701294 
L 282.216081 538.449338 
L 299.918904 536.27804 
L 317.621728 536.568348 
L 335.324551 535.373314 
L 353.027375 534.653541 
L 370.730199 536.422649 
L 388.433022 535.138365 
L 406.135846 535.030146 
L 423.838669 535.482558 
L 441.541493 535.99739 
L 459.244316 536.612626 
L 476.94714 536.997344 
L 494.649963 534.106638 
L 512.352787 536.444428 
L 530.05561 533.627191 
L 547.758434 531.823654 
L 565.461257 532.340574 
L 583.164081 531.4219 
L 600.866904 531.08063 
L 618.569728 532.343669 
L 636.272551 531.55591 
L 653.975375 533.803083 
L 671.678199 534.862208 
L 689.381022 532.941435 
L 707.083846 534.097175 
L 724.786669 533.999764 
L 742.489493 534.858523 
L 760.192316 535.365431 
L 777.89514 534.203787 
L 795.597963 535.180351 
L 813.300787 536.010829 
L 831.00361 536.399459 
L 848.706434 535.924815 
L 866.409257 536.361072 
L 884.112081 535.870273 
L 901.814904 536.17621 
L 919.517728 534.558481 
L 937.220551 536.839043 
L 954.923375 537.521764 
" clip-path="url(#p5c228d6228)" style="fill: none; stroke: #be503b; stroke-width: 1.5; stroke-linecap: square"/>
   </g>
   <g id="line2d_53">
    <path d="M 52.079375 344.110837 
L 69.782199 343.217868 
L 87.485022 333.11411 
L 105.187846 337.649378 
L 122.890669 345.323953 
L 140.593493 339.988164 
L 158.296316 339.604802 
L 175.99914 333.901184 
L 193.701963 355.673816 
L 211.404787 351.043352 
L 229.10761 354.148193 
L 246.810434 357.664201 
L 264.513257 360.885895 
L 282.216081 367.853731 
L 299.918904 358.965638 
L 317.621728 361.470479 
L 335.324551 352.513524 
L 353.027375 346.691481 
L 370.730199 347.973192 
L 388.433022 343.592867 
L 406.135846 343.044024 
L 423.838669 341.29375 
L 441.541493 344.613981 
L 459.244316 343.754216 
L 476.94714 341.879104 
L 494.649963 327.676438 
L 512.352787 338.141922 
L 530.05561 324.983789 
L 547.758434 322.892803 
L 565.461257 322.472062 
L 583.164081 315.684021 
L 600.866904 308.492385 
L 618.569728 311.196859 
L 636.272551 308.139495 
L 653.975375 319.122355 
L 671.678199 309.392452 
L 689.381022 311.624068 
L 707.083846 311.495514 
L 724.786669 314.546825 
L 742.489493 317.231555 
L 760.192316 317.289389 
L 777.89514 286.034481 
L 795.597963 298.271353 
L 813.300787 299.676793 
L 831.00361 302.401962 
L 848.706434 297.996536 
L 866.409257 306.489771 
L 884.112081 309.534225 
L 901.814904 316.55895 
L 919.517728 311.156484 
L 937.220551 311.846665 
L 954.923375 310.909724 
" clip-path="url(#p5c228d6228)" style="fill: none; stroke: #e2321d; stroke-width: 1.5; stroke-linecap: square"/>
   </g>
   <g id="line2d_54">
    <path d="M 52.079375 176.693842 
L 69.782199 169.184286 
L 87.485022 167.197643 
L 105.187846 173.511937 
L 122.890669 189.400453 
L 140.593493 210.365976 
L 158.296316 215.278728 
L 175.99914 189.759218 
L 193.701963 195.491362 
L 211.404787 201.926296 
L 229.10761 199.575114 
L 246.810434 167.500498 
L 264.513257 191.982903 
L 282.216081 189.094659 
L 299.918904 174.793891 
L 317.621728 143.519073 
L 335.324551 142.218623 
L 353.027375 136.127228 
L 370.730199 138.159595 
L 388.433022 116.638355 
L 406.135846 125.647534 
L 423.838669 133.233847 
L 441.541493 140.567059 
L 459.244316 130.475884 
L 476.94714 104.09527 
L 494.649963 91.024455 
L 512.352787 58.735834 
L 530.05561 75.047881 
L 547.758434 86.056334 
L 565.461257 78.821618 
L 583.164081 95.52612 
L 600.866904 116.944218 
L 618.569728 98.359696 
L 636.272551 95.208604 
L 653.975375 93.816099 
L 671.678199 90.77411 
L 689.381022 91.275758 
L 707.083846 84.202266 
L 724.786669 82.148714 
L 742.489493 84.196193 
L 760.192316 76.686692 
L 777.89514 95.81051 
L 795.597963 83.610088 
L 813.300787 78.810717 
L 831.00361 76.661692 
L 848.706434 82.070431 
L 866.409257 69.435637 
L 884.112081 67.601725 
L 901.814904 63.34582 
L 919.517728 72.07508 
L 937.220551 60.001562 
L 954.923375 65.103446 
" clip-path="url(#p5c228d6228)" style="fill: none; stroke: #48b585; stroke-width: 6; stroke-linecap: square"/>
   </g>
   <g id="patch_3">
    <path d="M 52.079375 578.54175 
L 52.079375 24.14175 
" style="fill: none; stroke: #ffffff; stroke-linejoin: miter; stroke-linecap: square"/>
   </g>
   <g id="patch_4">
    <path d="M 954.923375 578.54175 
L 954.923375 24.14175 
" style="fill: none; stroke: #ffffff; stroke-linejoin: miter; stroke-linecap: square"/>
   </g>
   <g id="patch_5">
    <path d="M 52.079375 578.54175 
L 954.923375 578.54175 
" style="fill: none; stroke: #ffffff; stroke-linejoin: miter; stroke-linecap: square"/>
   </g>
   <g id="patch_6">
    <path d="M 52.079375 24.14175 
L 954.923375 24.14175 
" style="fill: none; stroke: #ffffff; stroke-linejoin: miter; stroke-linecap: square"/>
   </g>
   <g id="text_24">
    <!-- Enterprise Linux Instances by Distribution Share (System Age &gt; 1 Week) -->
    <g transform="translate(52.079375 18.14175) scale(0.144 -0.144)">
     <defs>
      <path id="DejaVuSans-45" d="M 628 4666 
L 3578 4666 
L 3578 4134 
L 1259 4134 
L 1259 2753 
L 3481 2753 
L 3481 2222 
L 1259 2222 
L 1259 531 
L 3634 531 
L 3634 0 
L 628 0 
L 628 4666 
z
" transform="scale(0.015625)"/>
      <path id="DejaVuSans-6e" d="M 3513 2113 
L 3513 0 
L 2938 0 
L 2938 2094 
Q 2938 2591 2744 2837 
Q 2550 3084 2163 3084 
Q 1697 3084 1428 2787 
Q 1159 2491 1159 1978 
L 1159 0 
L 581 0 
L 581 3500 
L 1159 3500 
L 1159 2956 
Q 1366 3272 1645 3428 
Q 1925 3584 2291 3584 
Q 2894 3584 3203 3211 
Q 3513 2838 3513 2113 
z
" transform="scale(0.015625)"/>
      <path id="DejaVuSans-70" d="M 1159 525 
L 1159 -1331 
L 581 -1331 
L 581 3500 
L 1159 3500 
L 1159 2969 
Q 1341 3281 1617 3432 
Q 1894 3584 2278 3584 
Q 2916 3584 3314 3078 
Q 3713 2572 3713 1747 
Q 3713 922 3314 415 
Q 2916 -91 2278 -91 
Q 1894 -91 1617 61 
Q 1341 213 1159 525 
z
M 3116 1747 
Q 3116 2381 2855 2742 
Q 2594 3103 2138 3103 
Q 1681 3103 1420 2742 
Q 1159 2381 1159 1747 
Q 1159 1113 1420 752 
Q 1681 391 2138 391 
Q 2594 391 2855 752 
Q 3116 1113 3116 1747 
z
" transform="scale(0.015625)"/>
      <path id="DejaVuSans-69" d="M 603 3500 
L 1178 3500 
L 1178 0 
L 603 0 
L 603 3500 
z
M 603 4863 
L 1178 4863 
L 1178 4134 
L 603 4134 
L 603 4863 
z
" transform="scale(0.015625)"/>
      <path id="DejaVuSans-73" d="M 2834 3397 
L 2834 2853 
Q 2591 2978 2328 3040 
Q 2066 3103 1784 3103 
Q 1356 3103 1142 2972 
Q 928 2841 928 2578 
Q 928 2378 1081 2264 
Q 1234 2150 1697 2047 
L 1894 2003 
Q 2506 1872 2764 1633 
Q 3022 1394 3022 966 
Q 3022 478 2636 193 
Q 2250 -91 1575 -91 
Q 1294 -91 989 -36 
Q 684 19 347 128 
L 347 722 
Q 666 556 975 473 
Q 1284 391 1588 391 
Q 1994 391 2212 530 
Q 2431 669 2431 922 
Q 2431 1156 2273 1281 
Q 2116 1406 1581 1522 
L 1381 1569 
Q 847 1681 609 1914 
Q 372 2147 372 2553 
Q 372 3047 722 3315 
Q 1072 3584 1716 3584 
Q 2034 3584 2315 3537 
Q 2597 3491 2834 3397 
z
" transform="scale(0.015625)"/>
      <path id="DejaVuSans-20" transform="scale(0.015625)"/>
      <path id="DejaVuSans-4c" d="M 628 4666 
L 1259 4666 
L 1259 531 
L 3531 531 
L 3531 0 
L 628 0 
L 628 4666 
z
" transform="scale(0.015625)"/>
      <path id="DejaVuSans-75" d="M 544 1381 
L 544 3500 
L 1119 3500 
L 1119 1403 
Q 1119 906 1312 657 
Q 1506 409 1894 409 
Q 2359 409 2629 706 
Q 2900 1003 2900 1516 
L 2900 3500 
L 3475 3500 
L 3475 0 
L 2900 0 
L 2900 538 
Q 2691 219 2414 64 
Q 2138 -91 1772 -91 
Q 1169 -91 856 284 
Q 544 659 544 1381 
z
M 1991 3584 
L 1991 3584 
z
" transform="scale(0.015625)"/>
      <path id="DejaVuSans-78" d="M 3513 3500 
L 2247 1797 
L 3578 0 
L 2900 0 
L 1881 1375 
L 863 0 
L 184 0 
L 1544 1831 
L 300 3500 
L 978 3500 
L 1906 2253 
L 2834 3500 
L 3513 3500 
z
" transform="scale(0.015625)"/>
      <path id="DejaVuSans-49" d="M 628 4666 
L 1259 4666 
L 1259 0 
L 628 0 
L 628 4666 
z
" transform="scale(0.015625)"/>
      <path id="DejaVuSans-63" d="M 3122 3366 
L 3122 2828 
Q 2878 2963 2633 3030 
Q 2388 3097 2138 3097 
Q 1578 3097 1268 2742 
Q 959 2388 959 1747 
Q 959 1106 1268 751 
Q 1578 397 2138 397 
Q 2388 397 2633 464 
Q 2878 531 3122 666 
L 3122 134 
Q 2881 22 2623 -34 
Q 2366 -91 2075 -91 
Q 1284 -91 818 406 
Q 353 903 353 1747 
Q 353 2603 823 3093 
Q 1294 3584 2113 3584 
Q 2378 3584 2631 3529 
Q 2884 3475 3122 3366 
z
" transform="scale(0.015625)"/>
      <path id="DejaVuSans-62" d="M 3116 1747 
Q 3116 2381 2855 2742 
Q 2594 3103 2138 3103 
Q 1681 3103 1420 2742 
Q 1159 2381 1159 1747 
Q 1159 1113 1420 752 
Q 1681 391 2138 391 
Q 2594 391 2855 752 
Q 3116 1113 3116 1747 
z
M 1159 2969 
Q 1341 3281 1617 3432 
Q 1894 3584 2278 3584 
Q 2916 3584 3314 3078 
Q 3713 2572 3713 1747 
Q 3713 922 3314 415 
Q 2916 -91 2278 -91 
Q 1894 -91 1617 61 
Q 1341 213 1159 525 
L 1159 0 
L 581 0 
L 581 4863 
L 1159 4863 
L 1159 2969 
z
" transform="scale(0.015625)"/>
      <path id="DejaVuSans-79" d="M 2059 -325 
Q 1816 -950 1584 -1140 
Q 1353 -1331 966 -1331 
L 506 -1331 
L 506 -850 
L 844 -850 
Q 1081 -850 1212 -737 
Q 1344 -625 1503 -206 
L 1606 56 
L 191 3500 
L 800 3500 
L 1894 763 
L 2988 3500 
L 3597 3500 
L 2059 -325 
z
" transform="scale(0.015625)"/>
      <path id="DejaVuSans-6f" d="M 1959 3097 
Q 1497 3097 1228 2736 
Q 959 2375 959 1747 
Q 959 1119 1226 758 
Q 1494 397 1959 397 
Q 2419 397 2687 759 
Q 2956 1122 2956 1747 
Q 2956 2369 2687 2733 
Q 2419 3097 1959 3097 
z
M 1959 3584 
Q 2709 3584 3137 3096 
Q 3566 2609 3566 1747 
Q 3566 888 3137 398 
Q 2709 -91 1959 -91 
Q 1206 -91 779 398 
Q 353 888 353 1747 
Q 353 2609 779 3096 
Q 1206 3584 1959 3584 
z
" transform="scale(0.015625)"/>
      <path id="DejaVuSans-28" d="M 1984 4856 
Q 1566 4138 1362 3434 
Q 1159 2731 1159 2009 
Q 1159 1288 1364 580 
Q 1569 -128 1984 -844 
L 1484 -844 
Q 1016 -109 783 600 
Q 550 1309 550 2009 
Q 550 2706 781 3412 
Q 1013 4119 1484 4856 
L 1984 4856 
z
" transform="scale(0.015625)"/>
      <path id="DejaVuSans-6d" d="M 3328 2828 
Q 3544 3216 3844 3400 
Q 4144 3584 4550 3584 
Q 5097 3584 5394 3201 
Q 5691 2819 5691 2113 
L 5691 0 
L 5113 0 
L 5113 2094 
Q 5113 2597 4934 2840 
Q 4756 3084 4391 3084 
Q 3944 3084 3684 2787 
Q 3425 2491 3425 1978 
L 3425 0 
L 2847 0 
L 2847 2094 
Q 2847 2600 2669 2842 
Q 2491 3084 2119 3084 
Q 1678 3084 1418 2786 
Q 1159 2488 1159 1978 
L 1159 0 
L 581 0 
L 581 3500 
L 1159 3500 
L 1159 2956 
Q 1356 3278 1631 3431 
Q 1906 3584 2284 3584 
Q 2666 3584 2933 3390 
Q 3200 3197 3328 2828 
z
" transform="scale(0.015625)"/>
      <path id="DejaVuSans-41" d="M 2188 4044 
L 1331 1722 
L 3047 1722 
L 2188 4044 
z
M 1831 4666 
L 2547 4666 
L 4325 0 
L 3669 0 
L 3244 1197 
L 1141 1197 
L 716 0 
L 50 0 
L 1831 4666 
z
" transform="scale(0.015625)"/>
      <path id="DejaVuSans-67" d="M 2906 1791 
Q 2906 2416 2648 2759 
Q 2391 3103 1925 3103 
Q 1463 3103 1205 2759 
Q 947 2416 947 1791 
Q 947 1169 1205 825 
Q 1463 481 1925 481 
Q 2391 481 2648 825 
Q 2906 1169 2906 1791 
z
M 3481 434 
Q 3481 -459 3084 -895 
Q 2688 -1331 1869 -1331 
Q 1566 -1331 1297 -1286 
Q 1028 -1241 775 -1147 
L 775 -588 
Q 1028 -725 1275 -790 
Q 1522 -856 1778 -856 
Q 2344 -856 2625 -561 
Q 2906 -266 2906 331 
L 2906 616 
Q 2728 306 2450 153 
Q 2172 0 1784 0 
Q 1141 0 747 490 
Q 353 981 353 1791 
Q 353 2603 747 3093 
Q 1141 3584 1784 3584 
Q 2172 3584 2450 3431 
Q 2728 3278 2906 2969 
L 2906 3500 
L 3481 3500 
L 3481 434 
z
" transform="scale(0.015625)"/>
      <path id="DejaVuSans-3e" d="M 678 3150 
L 678 3719 
L 4684 2266 
L 4684 1747 
L 678 294 
L 678 863 
L 3897 2003 
L 678 3150 
z
" transform="scale(0.015625)"/>
      <path id="DejaVuSans-57" d="M 213 4666 
L 850 4666 
L 1831 722 
L 2809 4666 
L 3519 4666 
L 4500 722 
L 5478 4666 
L 6119 4666 
L 4947 0 
L 4153 0 
L 3169 4050 
L 2175 0 
L 1381 0 
L 213 4666 
z
" transform="scale(0.015625)"/>
      <path id="DejaVuSans-6b" d="M 581 4863 
L 1159 4863 
L 1159 1991 
L 2875 3500 
L 3609 3500 
L 1753 1863 
L 3688 0 
L 2938 0 
L 1159 1709 
L 1159 0 
L 581 0 
L 581 4863 
z
" transform="scale(0.015625)"/>
      <path id="DejaVuSans-29" d="M 513 4856 
L 1013 4856 
Q 1481 4119 1714 3412 
Q 1947 2706 1947 2009 
Q 1947 1309 1714 600 
Q 1481 -109 1013 -844 
L 513 -844 
Q 928 -128 1133 580 
Q 1338 1288 1338 2009 
Q 1338 2731 1133 3434 
Q 928 4138 513 4856 
z
" transform="scale(0.015625)"/>
     </defs>
     <use xlink:href="#DejaVuSans-45"/>
     <use xlink:href="#DejaVuSans-6e" x="63.183594"/>
     <use xlink:href="#DejaVuSans-74" x="126.5625"/>
     <use xlink:href="#DejaVuSans-65" x="165.771484"/>
     <use xlink:href="#DejaVuSans-72" x="227.294922"/>
     <use xlink:href="#DejaVuSans-70" x="268.408203"/>
     <use xlink:href="#DejaVuSans-72" x="331.884766"/>
     <use xlink:href="#DejaVuSans-69" x="372.998047"/>
     <use xlink:href="#DejaVuSans-73" x="400.78125"/>
     <use xlink:href="#DejaVuSans-65" x="452.880859"/>
     <use xlink:href="#DejaVuSans-20" x="514.404297"/>
     <use xlink:href="#DejaVuSans-4c" x="546.191406"/>
     <use xlink:href="#DejaVuSans-69" x="601.904297"/>
     <use xlink:href="#DejaVuSans-6e" x="629.6875"/>
     <use xlink:href="#DejaVuSans-75" x="693.066406"/>
     <use xlink:href="#DejaVuSans-78" x="756.445312"/>
     <use xlink:href="#DejaVuSans-20" x="815.625"/>
     <use xlink:href="#DejaVuSans-49" x="847.412109"/>
     <use xlink:href="#DejaVuSans-6e" x="876.904297"/>
     <use xlink:href="#DejaVuSans-73" x="940.283203"/>
     <use xlink:href="#DejaVuSans-74" x="992.382812"/>
     <use xlink:href="#DejaVuSans-61" x="1031.591797"/>
     <use xlink:href="#DejaVuSans-6e" x="1092.871094"/>
     <use xlink:href="#DejaVuSans-63" x="1156.25"/>
     <use xlink:href="#DejaVuSans-65" x="1211.230469"/>
     <use xlink:href="#DejaVuSans-73" x="1272.753906"/>
     <use xlink:href="#DejaVuSans-20" x="1324.853516"/>
     <use xlink:href="#DejaVuSans-62" x="1356.640625"/>
     <use xlink:href="#DejaVuSans-79" x="1420.117188"/>
     <use xlink:href="#DejaVuSans-20" x="1479.296875"/>
     <use xlink:href="#DejaVuSans-44" x="1511.083984"/>
     <use xlink:href="#DejaVuSans-69" x="1588.085938"/>
     <use xlink:href="#DejaVuSans-73" x="1615.869141"/>
     <use xlink:href="#DejaVuSans-74" x="1667.96875"/>
     <use xlink:href="#DejaVuSans-72" x="1707.177734"/>
     <use xlink:href="#DejaVuSans-69" x="1748.291016"/>
     <use xlink:href="#DejaVuSans-62" x="1776.074219"/>
     <use xlink:href="#DejaVuSans-75" x="1839.550781"/>
     <use xlink:href="#DejaVuSans-74" x="1902.929688"/>
     <use xlink:href="#DejaVuSans-69" x="1942.138672"/>
     <use xlink:href="#DejaVuSans-6f" x="1969.921875"/>
     <use xlink:href="#DejaVuSans-6e" x="2031.103516"/>
     <use xlink:href="#DejaVuSans-20" x="2094.482422"/>
     <use xlink:href="#DejaVuSans-53" x="2126.269531"/>
     <use xlink:href="#DejaVuSans-68" x="2189.746094"/>
     <use xlink:href="#DejaVuSans-61" x="2253.125"/>
     <use xlink:href="#DejaVuSans-72" x="2314.404297"/>
     <use xlink:href="#DejaVuSans-65" x="2353.267578"/>
     <use xlink:href="#DejaVuSans-20" x="2414.791016"/>
     <use xlink:href="#DejaVuSans-28" x="2446.578125"/>
     <use xlink:href="#DejaVuSans-53" x="2485.591797"/>
     <use xlink:href="#DejaVuSans-79" x="2549.068359"/>
     <use xlink:href="#DejaVuSans-73" x="2608.248047"/>
     <use xlink:href="#DejaVuSans-74" x="2660.347656"/>
     <use xlink:href="#DejaVuSans-65" x="2699.556641"/>
     <use xlink:href="#DejaVuSans-6d" x="2761.080078"/>
     <use xlink:href="#DejaVuSans-20" x="2858.492188"/>
     <use xlink:href="#DejaVuSans-41" x="2890.279297"/>
     <use xlink:href="#DejaVuSans-67" x="2958.6875"/>
     <use xlink:href="#DejaVuSans-65" x="3022.164062"/>
     <use xlink:href="#DejaVuSans-20" x="3083.6875"/>
     <use xlink:href="#DejaVuSans-3e" x="3115.474609"/>
     <use xlink:href="#DejaVuSans-20" x="3199.263672"/>
     <use xlink:href="#DejaVuSans-31" x="3231.050781"/>
     <use xlink:href="#DejaVuSans-20" x="3294.673828"/>
     <use xlink:href="#DejaVuSans-57" x="3326.460938"/>
     <use xlink:href="#DejaVuSans-65" x="3419.462891"/>
     <use xlink:href="#DejaVuSans-65" x="3480.986328"/>
     <use xlink:href="#DejaVuSans-6b" x="3542.509766"/>
     <use xlink:href="#DejaVuSans-29" x="3600.419922"/>
    </g>
   </g>
   <g id="text_25">
    <!-- 2024-12-19 15:58 UTC -->
    <g transform="translate(792.041375 18.14175) scale(0.144 -0.144)">
     <defs>
      <path id="DejaVuSans-3a" d="M 750 794 
L 1409 794 
L 1409 0 
L 750 0 
L 750 794 
z
M 750 3309 
L 1409 3309 
L 1409 2516 
L 750 2516 
L 750 3309 
z
" transform="scale(0.015625)"/>
      <path id="DejaVuSans-55" d="M 556 4666 
L 1191 4666 
L 1191 1831 
Q 1191 1081 1462 751 
Q 1734 422 2344 422 
Q 2950 422 3222 751 
Q 3494 1081 3494 1831 
L 3494 4666 
L 4128 4666 
L 4128 1753 
Q 4128 841 3676 375 
Q 3225 -91 2344 -91 
Q 1459 -91 1007 375 
Q 556 841 556 1753 
L 556 4666 
z
" transform="scale(0.015625)"/>
      <path id="DejaVuSans-54" d="M -19 4666 
L 3928 4666 
L 3928 4134 
L 2272 4134 
L 2272 0 
L 1638 0 
L 1638 4134 
L -19 4134 
L -19 4666 
z
" transform="scale(0.015625)"/>
      <path id="DejaVuSans-43" d="M 4122 4306 
L 4122 3641 
Q 3803 3938 3442 4084 
Q 3081 4231 2675 4231 
Q 1875 4231 1450 3742 
Q 1025 3253 1025 2328 
Q 1025 1406 1450 917 
Q 1875 428 2675 428 
Q 3081 428 3442 575 
Q 3803 722 4122 1019 
L 4122 359 
Q 3791 134 3420 21 
Q 3050 -91 2638 -91 
Q 1578 -91 968 557 
Q 359 1206 359 2328 
Q 359 3453 968 4101 
Q 1578 4750 2638 4750 
Q 3056 4750 3426 4639 
Q 3797 4528 4122 4306 
z
" transform="scale(0.015625)"/>
     </defs>
     <use xlink:href="#DejaVuSans-32"/>
     <use xlink:href="#DejaVuSans-30" x="63.623047"/>
     <use xlink:href="#DejaVuSans-32" x="127.246094"/>
     <use xlink:href="#DejaVuSans-34" x="190.869141"/>
     <use xlink:href="#DejaVuSans-2d" x="254.492188"/>
     <use xlink:href="#DejaVuSans-31" x="290.576172"/>
     <use xlink:href="#DejaVuSans-32" x="354.199219"/>
     <use xlink:href="#DejaVuSans-2d" x="417.822266"/>
     <use xlink:href="#DejaVuSans-31" x="453.90625"/>
     <use xlink:href="#DejaVuSans-39" x="517.529297"/>
     <use xlink:href="#DejaVuSans-20" x="581.152344"/>
     <use xlink:href="#DejaVuSans-31" x="612.939453"/>
     <use xlink:href="#DejaVuSans-35" x="676.5625"/>
     <use xlink:href="#DejaVuSans-3a" x="740.185547"/>
     <use xlink:href="#DejaVuSans-35" x="773.876953"/>
     <use xlink:href="#DejaVuSans-38" x="837.5"/>
     <use xlink:href="#DejaVuSans-20" x="901.123047"/>
     <use xlink:href="#DejaVuSans-55" x="932.910156"/>
     <use xlink:href="#DejaVuSans-54" x="1006.103516"/>
     <use xlink:href="#DejaVuSans-43" x="1061.3125"/>
    </g>
   </g>
   <g id="legend_1">
    <g id="patch_7">
     <path d="M 59.079375 134.888625 
L 168.048125 134.888625 
Q 170.048125 134.888625 170.048125 132.888625 
L 170.048125 31.14175 
Q 170.048125 29.14175 168.048125 29.14175 
L 59.079375 29.14175 
Q 57.079375 29.14175 57.079375 31.14175 
L 57.079375 132.888625 
Q 57.079375 134.888625 59.079375 134.888625 
z
" style="fill: #e5e5e5; opacity: 0.8; stroke: #cccccc; stroke-width: 0.5; stroke-linejoin: miter"/>
    </g>
    <g id="text_26">
     <!-- Distribution -->
     <g transform="translate(84.395 40.740188) scale(0.1 -0.1)">
      <use xlink:href="#DejaVuSans-44"/>
      <use xlink:href="#DejaVuSans-69" x="77.001953"/>
      <use xlink:href="#DejaVuSans-73" x="104.785156"/>
      <use xlink:href="#DejaVuSans-74" x="156.884766"/>
      <use xlink:href="#DejaVuSans-72" x="196.09375"/>
      <use xlink:href="#DejaVuSans-69" x="237.207031"/>
      <use xlink:href="#DejaVuSans-62" x="264.990234"/>
      <use xlink:href="#DejaVuSans-75" x="328.466797"/>
      <use xlink:href="#DejaVuSans-74" x="391.845703"/>
      <use xlink:href="#DejaVuSans-69" x="431.054688"/>
      <use xlink:href="#DejaVuSans-6f" x="458.837891"/>
      <use xlink:href="#DejaVuSans-6e" x="520.019531"/>
     </g>
    </g>
    <g id="line2d_55">
     <path d="M 61.079375 51.918313 
L 71.079375 51.918313 
L 81.079375 51.918313 
" style="fill: none; stroke: #4ac1fa; stroke-width: 1.5; stroke-linecap: square"/>
    </g>
    <g id="text_27">
     <!-- AlmaLinux -->
     <g transform="translate(89.079375 55.418313) scale(0.1 -0.1)">
      <defs>
       <path id="DejaVuSans-6c" d="M 603 4863 
L 1178 4863 
L 1178 0 
L 603 0 
L 603 4863 
z
" transform="scale(0.015625)"/>
      </defs>
      <use xlink:href="#DejaVuSans-41"/>
      <use xlink:href="#DejaVuSans-6c" x="68.408203"/>
      <use xlink:href="#DejaVuSans-6d" x="96.191406"/>
      <use xlink:href="#DejaVuSans-61" x="193.603516"/>
      <use xlink:href="#DejaVuSans-4c" x="254.882812"/>
      <use xlink:href="#DejaVuSans-69" x="310.595703"/>
      <use xlink:href="#DejaVuSans-6e" x="338.378906"/>
      <use xlink:href="#DejaVuSans-75" x="401.757812"/>
      <use xlink:href="#DejaVuSans-78" x="465.136719"/>
     </g>
    </g>
    <g id="line2d_56">
     <path d="M 61.079375 66.596438 
L 71.079375 66.596438 
L 81.079375 66.596438 
" style="fill: none; stroke: #e9a942; stroke-width: 1.5; stroke-linecap: square"/>
    </g>
    <g id="text_28">
     <!-- CentOS Legacy -->
     <g transform="translate(89.079375 70.096438) scale(0.1 -0.1)">
      <defs>
       <path id="DejaVuSans-4f" d="M 2522 4238 
Q 1834 4238 1429 3725 
Q 1025 3213 1025 2328 
Q 1025 1447 1429 934 
Q 1834 422 2522 422 
Q 3209 422 3611 934 
Q 4013 1447 4013 2328 
Q 4013 3213 3611 3725 
Q 3209 4238 2522 4238 
z
M 2522 4750 
Q 3503 4750 4090 4092 
Q 4678 3434 4678 2328 
Q 4678 1225 4090 567 
Q 3503 -91 2522 -91 
Q 1538 -91 948 565 
Q 359 1222 359 2328 
Q 359 3434 948 4092 
Q 1538 4750 2522 4750 
z
" transform="scale(0.015625)"/>
      </defs>
      <use xlink:href="#DejaVuSans-43"/>
      <use xlink:href="#DejaVuSans-65" x="69.824219"/>
      <use xlink:href="#DejaVuSans-6e" x="131.347656"/>
      <use xlink:href="#DejaVuSans-74" x="194.726562"/>
      <use xlink:href="#DejaVuSans-4f" x="233.935547"/>
      <use xlink:href="#DejaVuSans-53" x="312.646484"/>
      <use xlink:href="#DejaVuSans-20" x="376.123047"/>
      <use xlink:href="#DejaVuSans-4c" x="407.910156"/>
      <use xlink:href="#DejaVuSans-65" x="461.873047"/>
      <use xlink:href="#DejaVuSans-67" x="523.396484"/>
      <use xlink:href="#DejaVuSans-61" x="586.873047"/>
      <use xlink:href="#DejaVuSans-63" x="648.152344"/>
      <use xlink:href="#DejaVuSans-79" x="703.132812"/>
     </g>
    </g>
    <g id="line2d_57">
     <path d="M 61.079375 81.274563 
L 71.079375 81.274563 
L 81.079375 81.274563 
" style="fill: none; stroke: #9a5689; stroke-width: 1.5; stroke-linecap: square"/>
    </g>
    <g id="text_29">
     <!-- CentOS Stream -->
     <g transform="translate(89.079375 84.774563) scale(0.1 -0.1)">
      <use xlink:href="#DejaVuSans-43"/>
      <use xlink:href="#DejaVuSans-65" x="69.824219"/>
      <use xlink:href="#DejaVuSans-6e" x="131.347656"/>
      <use xlink:href="#DejaVuSans-74" x="194.726562"/>
      <use xlink:href="#DejaVuSans-4f" x="233.935547"/>
      <use xlink:href="#DejaVuSans-53" x="312.646484"/>
      <use xlink:href="#DejaVuSans-20" x="376.123047"/>
      <use xlink:href="#DejaVuSans-53" x="407.910156"/>
      <use xlink:href="#DejaVuSans-74" x="471.386719"/>
      <use xlink:href="#DejaVuSans-72" x="510.595703"/>
      <use xlink:href="#DejaVuSans-65" x="549.458984"/>
      <use xlink:href="#DejaVuSans-61" x="610.982422"/>
      <use xlink:href="#DejaVuSans-6d" x="672.261719"/>
     </g>
    </g>
    <g id="line2d_58">
     <path d="M 61.079375 95.952688 
L 71.079375 95.952688 
L 81.079375 95.952688 
" style="fill: none; stroke: #be503b; stroke-width: 1.5; stroke-linecap: square"/>
    </g>
    <g id="text_30">
     <!-- Oracle -->
     <g transform="translate(89.079375 99.452688) scale(0.1 -0.1)">
      <use xlink:href="#DejaVuSans-4f"/>
      <use xlink:href="#DejaVuSans-72" x="78.710938"/>
      <use xlink:href="#DejaVuSans-61" x="119.824219"/>
      <use xlink:href="#DejaVuSans-63" x="181.103516"/>
      <use xlink:href="#DejaVuSans-6c" x="236.083984"/>
      <use xlink:href="#DejaVuSans-65" x="263.867188"/>
     </g>
    </g>
    <g id="line2d_59">
     <path d="M 61.079375 110.630813 
L 71.079375 110.630813 
L 81.079375 110.630813 
" style="fill: none; stroke: #e2321d; stroke-width: 1.5; stroke-linecap: square"/>
    </g>
    <g id="text_31">
     <!-- RHEL -->
     <g transform="translate(89.079375 114.130813) scale(0.1 -0.1)">
      <defs>
       <path id="DejaVuSans-52" d="M 2841 2188 
Q 3044 2119 3236 1894 
Q 3428 1669 3622 1275 
L 4263 0 
L 3584 0 
L 2988 1197 
Q 2756 1666 2539 1819 
Q 2322 1972 1947 1972 
L 1259 1972 
L 1259 0 
L 628 0 
L 628 4666 
L 2053 4666 
Q 2853 4666 3247 4331 
Q 3641 3997 3641 3322 
Q 3641 2881 3436 2590 
Q 3231 2300 2841 2188 
z
M 1259 4147 
L 1259 2491 
L 2053 2491 
Q 2509 2491 2742 2702 
Q 2975 2913 2975 3322 
Q 2975 3731 2742 3939 
Q 2509 4147 2053 4147 
L 1259 4147 
z
" transform="scale(0.015625)"/>
       <path id="DejaVuSans-48" d="M 628 4666 
L 1259 4666 
L 1259 2753 
L 3553 2753 
L 3553 4666 
L 4184 4666 
L 4184 0 
L 3553 0 
L 3553 2222 
L 1259 2222 
L 1259 0 
L 628 0 
L 628 4666 
z
" transform="scale(0.015625)"/>
      </defs>
      <use xlink:href="#DejaVuSans-52"/>
      <use xlink:href="#DejaVuSans-48" x="69.482422"/>
      <use xlink:href="#DejaVuSans-45" x="144.677734"/>
      <use xlink:href="#DejaVuSans-4c" x="207.861328"/>
     </g>
    </g>
    <g id="line2d_60">
     <path d="M 61.079375 125.308938 
L 71.079375 125.308938 
L 81.079375 125.308938 
" style="fill: none; stroke: #48b585; stroke-width: 6; stroke-linecap: square"/>
    </g>
    <g id="text_32">
     <!-- Rocky Linux -->
     <g transform="translate(89.079375 128.808938) scale(0.1 -0.1)">
      <use xlink:href="#DejaVuSans-52"/>
      <use xlink:href="#DejaVuSans-6f" x="64.982422"/>
      <use xlink:href="#DejaVuSans-63" x="126.164062"/>
      <use xlink:href="#DejaVuSans-6b" x="181.144531"/>
      <use xlink:href="#DejaVuSans-79" x="235.429688"/>
      <use xlink:href="#DejaVuSans-20" x="294.609375"/>
      <use xlink:href="#DejaVuSans-4c" x="326.396484"/>
      <use xlink:href="#DejaVuSans-69" x="382.109375"/>
      <use xlink:href="#DejaVuSans-6e" x="409.892578"/>
      <use xlink:href="#DejaVuSans-75" x="473.271484"/>
      <use xlink:href="#DejaVuSans-78" x="536.650391"/>
     </g>
    </g>
   </g>
  </g>
 </g>
 <defs>
  <clipPath id="p5c228d6228">
   <rect x="52.079375" y="24.14175" width="902.844" height="554.4"/>
  </clipPath>
 </defs>
</svg>
