<?xml version="1.0" encoding="utf-8" standalone="no"?>
<!DOCTYPE svg PUBLIC "-//W3C//DTD SVG 1.1//EN"
  "http://www.w3.org/Graphics/SVG/1.1/DTD/svg11.dtd">
<svg xmlns:xlink="http://www.w3.org/1999/xlink" width="962.123375pt" height="633.943878pt" viewBox="0 0 962.123375 633.943878" xmlns="http://www.w3.org/2000/svg" version="1.1">
 <metadata>
  <rdf:RDF xmlns:dc="http://purl.org/dc/elements/1.1/" xmlns:cc="http://creativecommons.org/ns#" xmlns:rdf="http://www.w3.org/1999/02/22-rdf-syntax-ns#">
   <cc:Work>
    <dc:type rdf:resource="http://purl.org/dc/dcmitype/StillImage"/>
    <dc:date>2024-07-25T11:54:34.265191</dc:date>
    <dc:format>image/svg+xml</dc:format>
    <dc:creator>
     <cc:Agent>
      <dc:title>Matplotlib v3.5.1, https://matplotlib.org/</dc:title>
     </cc:Agent>
    </dc:creator>
   </cc:Work>
  </rdf:RDF>
 </metadata>
 <defs>
  <style type="text/css">*{stroke-linejoin: round; stroke-linecap: butt}</style>
 </defs>
 <g id="figure_1">
  <g id="patch_1">
   <path d="M 0 633.943878 
L 962.123375 633.943878 
L 962.123375 0 
L 0 0 
z
" style="fill: #ffffff"/>
  </g>
  <g id="axes_1">
   <g id="patch_2">
    <path d="M 52.079375 567.74175 
L 954.923375 567.74175 
L 954.923375 24.14175 
L 52.079375 24.14175 
z
" style="fill: #e5e5e5"/>
   </g>
   <g id="matplotlib.axis_1">
    <g id="xtick_1">
     <g id="line2d_1">
      <path d="M 95.931798 567.74175 
L 95.931798 24.14175 
" clip-path="url(#pc24be4ce1e)" style="fill: none; stroke: #ffffff; stroke-width: 0.8; stroke-linecap: square"/>
     </g>
     <g id="line2d_2">
      <defs>
       <path id="m7e0c4e0439" d="M 0 0 
L 0 3.5 
" style="stroke: #555555; stroke-width: 0.8"/>
      </defs>
      <g>
       <use xlink:href="#m7e0c4e0439" x="95.931798" y="567.74175" style="fill: #555555; stroke: #555555; stroke-width: 0.8"/>
      </g>
     </g>
     <g id="text_1">
      <!-- 2023-08 -->
      <g style="fill: #555555" transform="translate(83.110516 609.659567)rotate(-45)scale(0.1 -0.1)">
       <defs>
        <path id="DejaVuSans-32" d="M 1228 531 
L 3431 531 
L 3431 0 
L 469 0 
L 469 531 
Q 828 903 1448 1529 
Q 2069 2156 2228 2338 
Q 2531 2678 2651 2914 
Q 2772 3150 2772 3378 
Q 2772 3750 2511 3984 
Q 2250 4219 1831 4219 
Q 1534 4219 1204 4116 
Q 875 4013 500 3803 
L 500 4441 
Q 881 4594 1212 4672 
Q 1544 4750 1819 4750 
Q 2544 4750 2975 4387 
Q 3406 4025 3406 3419 
Q 3406 3131 3298 2873 
Q 3191 2616 2906 2266 
Q 2828 2175 2409 1742 
Q 1991 1309 1228 531 
z
" transform="scale(0.015625)"/>
        <path id="DejaVuSans-30" d="M 2034 4250 
Q 1547 4250 1301 3770 
Q 1056 3291 1056 2328 
Q 1056 1369 1301 889 
Q 1547 409 2034 409 
Q 2525 409 2770 889 
Q 3016 1369 3016 2328 
Q 3016 3291 2770 3770 
Q 2525 4250 2034 4250 
z
M 2034 4750 
Q 2819 4750 3233 4129 
Q 3647 3509 3647 2328 
Q 3647 1150 3233 529 
Q 2819 -91 2034 -91 
Q 1250 -91 836 529 
Q 422 1150 422 2328 
Q 422 3509 836 4129 
Q 1250 4750 2034 4750 
z
" transform="scale(0.015625)"/>
        <path id="DejaVuSans-33" d="M 2597 2516 
Q 3050 2419 3304 2112 
Q 3559 1806 3559 1356 
Q 3559 666 3084 287 
Q 2609 -91 1734 -91 
Q 1441 -91 1130 -33 
Q 819 25 488 141 
L 488 750 
Q 750 597 1062 519 
Q 1375 441 1716 441 
Q 2309 441 2620 675 
Q 2931 909 2931 1356 
Q 2931 1769 2642 2001 
Q 2353 2234 1838 2234 
L 1294 2234 
L 1294 2753 
L 1863 2753 
Q 2328 2753 2575 2939 
Q 2822 3125 2822 3475 
Q 2822 3834 2567 4026 
Q 2313 4219 1838 4219 
Q 1578 4219 1281 4162 
Q 984 4106 628 3988 
L 628 4550 
Q 988 4650 1302 4700 
Q 1616 4750 1894 4750 
Q 2613 4750 3031 4423 
Q 3450 4097 3450 3541 
Q 3450 3153 3228 2886 
Q 3006 2619 2597 2516 
z
" transform="scale(0.015625)"/>
        <path id="DejaVuSans-2d" d="M 313 2009 
L 1997 2009 
L 1997 1497 
L 313 1497 
L 313 2009 
z
" transform="scale(0.015625)"/>
        <path id="DejaVuSans-38" d="M 2034 2216 
Q 1584 2216 1326 1975 
Q 1069 1734 1069 1313 
Q 1069 891 1326 650 
Q 1584 409 2034 409 
Q 2484 409 2743 651 
Q 3003 894 3003 1313 
Q 3003 1734 2745 1975 
Q 2488 2216 2034 2216 
z
M 1403 2484 
Q 997 2584 770 2862 
Q 544 3141 544 3541 
Q 544 4100 942 4425 
Q 1341 4750 2034 4750 
Q 2731 4750 3128 4425 
Q 3525 4100 3525 3541 
Q 3525 3141 3298 2862 
Q 3072 2584 2669 2484 
Q 3125 2378 3379 2068 
Q 3634 1759 3634 1313 
Q 3634 634 3220 271 
Q 2806 -91 2034 -91 
Q 1263 -91 848 271 
Q 434 634 434 1313 
Q 434 1759 690 2068 
Q 947 2378 1403 2484 
z
M 1172 3481 
Q 1172 3119 1398 2916 
Q 1625 2713 2034 2713 
Q 2441 2713 2670 2916 
Q 2900 3119 2900 3481 
Q 2900 3844 2670 4047 
Q 2441 4250 2034 4250 
Q 1625 4250 1398 4047 
Q 1172 3844 1172 3481 
z
" transform="scale(0.015625)"/>
       </defs>
       <use xlink:href="#DejaVuSans-32"/>
       <use xlink:href="#DejaVuSans-30" x="63.623047"/>
       <use xlink:href="#DejaVuSans-32" x="127.246094"/>
       <use xlink:href="#DejaVuSans-33" x="190.869141"/>
       <use xlink:href="#DejaVuSans-2d" x="254.492188"/>
       <use xlink:href="#DejaVuSans-30" x="290.576172"/>
       <use xlink:href="#DejaVuSans-38" x="354.199219"/>
      </g>
     </g>
    </g>
    <g id="xtick_2">
     <g id="line2d_3">
      <path d="M 175.897981 567.74175 
L 175.897981 24.14175 
" clip-path="url(#pc24be4ce1e)" style="fill: none; stroke: #ffffff; stroke-width: 0.8; stroke-linecap: square"/>
     </g>
     <g id="line2d_4">
      <g>
       <use xlink:href="#m7e0c4e0439" x="175.897981" y="567.74175" style="fill: #555555; stroke: #555555; stroke-width: 0.8"/>
      </g>
     </g>
     <g id="text_2">
      <!-- 2023-09 -->
      <g style="fill: #555555" transform="translate(163.076698 609.659567)rotate(-45)scale(0.1 -0.1)">
       <defs>
        <path id="DejaVuSans-39" d="M 703 97 
L 703 672 
Q 941 559 1184 500 
Q 1428 441 1663 441 
Q 2288 441 2617 861 
Q 2947 1281 2994 2138 
Q 2813 1869 2534 1725 
Q 2256 1581 1919 1581 
Q 1219 1581 811 2004 
Q 403 2428 403 3163 
Q 403 3881 828 4315 
Q 1253 4750 1959 4750 
Q 2769 4750 3195 4129 
Q 3622 3509 3622 2328 
Q 3622 1225 3098 567 
Q 2575 -91 1691 -91 
Q 1453 -91 1209 -44 
Q 966 3 703 97 
z
M 1959 2075 
Q 2384 2075 2632 2365 
Q 2881 2656 2881 3163 
Q 2881 3666 2632 3958 
Q 2384 4250 1959 4250 
Q 1534 4250 1286 3958 
Q 1038 3666 1038 3163 
Q 1038 2656 1286 2365 
Q 1534 2075 1959 2075 
z
" transform="scale(0.015625)"/>
       </defs>
       <use xlink:href="#DejaVuSans-32"/>
       <use xlink:href="#DejaVuSans-30" x="63.623047"/>
       <use xlink:href="#DejaVuSans-32" x="127.246094"/>
       <use xlink:href="#DejaVuSans-33" x="190.869141"/>
       <use xlink:href="#DejaVuSans-2d" x="254.492188"/>
       <use xlink:href="#DejaVuSans-30" x="290.576172"/>
       <use xlink:href="#DejaVuSans-39" x="354.199219"/>
      </g>
     </g>
    </g>
    <g id="xtick_3">
     <g id="line2d_5">
      <path d="M 253.284609 567.74175 
L 253.284609 24.14175 
" clip-path="url(#pc24be4ce1e)" style="fill: none; stroke: #ffffff; stroke-width: 0.8; stroke-linecap: square"/>
     </g>
     <g id="line2d_6">
      <g>
       <use xlink:href="#m7e0c4e0439" x="253.284609" y="567.74175" style="fill: #555555; stroke: #555555; stroke-width: 0.8"/>
      </g>
     </g>
     <g id="text_3">
      <!-- 2023-10 -->
      <g style="fill: #555555" transform="translate(240.463327 609.659567)rotate(-45)scale(0.1 -0.1)">
       <defs>
        <path id="DejaVuSans-31" d="M 794 531 
L 1825 531 
L 1825 4091 
L 703 3866 
L 703 4441 
L 1819 4666 
L 2450 4666 
L 2450 531 
L 3481 531 
L 3481 0 
L 794 0 
L 794 531 
z
" transform="scale(0.015625)"/>
       </defs>
       <use xlink:href="#DejaVuSans-32"/>
       <use xlink:href="#DejaVuSans-30" x="63.623047"/>
       <use xlink:href="#DejaVuSans-32" x="127.246094"/>
       <use xlink:href="#DejaVuSans-33" x="190.869141"/>
       <use xlink:href="#DejaVuSans-2d" x="254.492188"/>
       <use xlink:href="#DejaVuSans-31" x="290.576172"/>
       <use xlink:href="#DejaVuSans-30" x="354.199219"/>
      </g>
     </g>
    </g>
    <g id="xtick_4">
     <g id="line2d_7">
      <path d="M 333.250792 567.74175 
L 333.250792 24.14175 
" clip-path="url(#pc24be4ce1e)" style="fill: none; stroke: #ffffff; stroke-width: 0.8; stroke-linecap: square"/>
     </g>
     <g id="line2d_8">
      <g>
       <use xlink:href="#m7e0c4e0439" x="333.250792" y="567.74175" style="fill: #555555; stroke: #555555; stroke-width: 0.8"/>
      </g>
     </g>
     <g id="text_4">
      <!-- 2023-11 -->
      <g style="fill: #555555" transform="translate(320.42951 609.659567)rotate(-45)scale(0.1 -0.1)">
       <use xlink:href="#DejaVuSans-32"/>
       <use xlink:href="#DejaVuSans-30" x="63.623047"/>
       <use xlink:href="#DejaVuSans-32" x="127.246094"/>
       <use xlink:href="#DejaVuSans-33" x="190.869141"/>
       <use xlink:href="#DejaVuSans-2d" x="254.492188"/>
       <use xlink:href="#DejaVuSans-31" x="290.576172"/>
       <use xlink:href="#DejaVuSans-31" x="354.199219"/>
      </g>
     </g>
    </g>
    <g id="xtick_5">
     <g id="line2d_9">
      <path d="M 410.637421 567.74175 
L 410.637421 24.14175 
" clip-path="url(#pc24be4ce1e)" style="fill: none; stroke: #ffffff; stroke-width: 0.8; stroke-linecap: square"/>
     </g>
     <g id="line2d_10">
      <g>
       <use xlink:href="#m7e0c4e0439" x="410.637421" y="567.74175" style="fill: #555555; stroke: #555555; stroke-width: 0.8"/>
      </g>
     </g>
     <g id="text_5">
      <!-- 2023-12 -->
      <g style="fill: #555555" transform="translate(397.816138 609.659567)rotate(-45)scale(0.1 -0.1)">
       <use xlink:href="#DejaVuSans-32"/>
       <use xlink:href="#DejaVuSans-30" x="63.623047"/>
       <use xlink:href="#DejaVuSans-32" x="127.246094"/>
       <use xlink:href="#DejaVuSans-33" x="190.869141"/>
       <use xlink:href="#DejaVuSans-2d" x="254.492188"/>
       <use xlink:href="#DejaVuSans-31" x="290.576172"/>
       <use xlink:href="#DejaVuSans-32" x="354.199219"/>
      </g>
     </g>
    </g>
    <g id="xtick_6">
     <g id="line2d_11">
      <path d="M 490.603604 567.74175 
L 490.603604 24.14175 
" clip-path="url(#pc24be4ce1e)" style="fill: none; stroke: #ffffff; stroke-width: 0.8; stroke-linecap: square"/>
     </g>
     <g id="line2d_12">
      <g>
       <use xlink:href="#m7e0c4e0439" x="490.603604" y="567.74175" style="fill: #555555; stroke: #555555; stroke-width: 0.8"/>
      </g>
     </g>
     <g id="text_6">
      <!-- 2024-01 -->
      <g style="fill: #555555" transform="translate(477.782321 609.659567)rotate(-45)scale(0.1 -0.1)">
       <defs>
        <path id="DejaVuSans-34" d="M 2419 4116 
L 825 1625 
L 2419 1625 
L 2419 4116 
z
M 2253 4666 
L 3047 4666 
L 3047 1625 
L 3713 1625 
L 3713 1100 
L 3047 1100 
L 3047 0 
L 2419 0 
L 2419 1100 
L 313 1100 
L 313 1709 
L 2253 4666 
z
" transform="scale(0.015625)"/>
       </defs>
       <use xlink:href="#DejaVuSans-32"/>
       <use xlink:href="#DejaVuSans-30" x="63.623047"/>
       <use xlink:href="#DejaVuSans-32" x="127.246094"/>
       <use xlink:href="#DejaVuSans-34" x="190.869141"/>
       <use xlink:href="#DejaVuSans-2d" x="254.492188"/>
       <use xlink:href="#DejaVuSans-30" x="290.576172"/>
       <use xlink:href="#DejaVuSans-31" x="354.199219"/>
      </g>
     </g>
    </g>
    <g id="xtick_7">
     <g id="line2d_13">
      <path d="M 570.569786 567.74175 
L 570.569786 24.14175 
" clip-path="url(#pc24be4ce1e)" style="fill: none; stroke: #ffffff; stroke-width: 0.8; stroke-linecap: square"/>
     </g>
     <g id="line2d_14">
      <g>
       <use xlink:href="#m7e0c4e0439" x="570.569786" y="567.74175" style="fill: #555555; stroke: #555555; stroke-width: 0.8"/>
      </g>
     </g>
     <g id="text_7">
      <!-- 2024-02 -->
      <g style="fill: #555555" transform="translate(557.748504 609.659567)rotate(-45)scale(0.1 -0.1)">
       <use xlink:href="#DejaVuSans-32"/>
       <use xlink:href="#DejaVuSans-30" x="63.623047"/>
       <use xlink:href="#DejaVuSans-32" x="127.246094"/>
       <use xlink:href="#DejaVuSans-34" x="190.869141"/>
       <use xlink:href="#DejaVuSans-2d" x="254.492188"/>
       <use xlink:href="#DejaVuSans-30" x="290.576172"/>
       <use xlink:href="#DejaVuSans-32" x="354.199219"/>
      </g>
     </g>
    </g>
    <g id="xtick_8">
     <g id="line2d_15">
      <path d="M 645.376861 567.74175 
L 645.376861 24.14175 
" clip-path="url(#pc24be4ce1e)" style="fill: none; stroke: #ffffff; stroke-width: 0.8; stroke-linecap: square"/>
     </g>
     <g id="line2d_16">
      <g>
       <use xlink:href="#m7e0c4e0439" x="645.376861" y="567.74175" style="fill: #555555; stroke: #555555; stroke-width: 0.8"/>
      </g>
     </g>
     <g id="text_8">
      <!-- 2024-03 -->
      <g style="fill: #555555" transform="translate(632.555578 609.659567)rotate(-45)scale(0.1 -0.1)">
       <use xlink:href="#DejaVuSans-32"/>
       <use xlink:href="#DejaVuSans-30" x="63.623047"/>
       <use xlink:href="#DejaVuSans-32" x="127.246094"/>
       <use xlink:href="#DejaVuSans-34" x="190.869141"/>
       <use xlink:href="#DejaVuSans-2d" x="254.492188"/>
       <use xlink:href="#DejaVuSans-30" x="290.576172"/>
       <use xlink:href="#DejaVuSans-33" x="354.199219"/>
      </g>
     </g>
    </g>
    <g id="xtick_9">
     <g id="line2d_17">
      <path d="M 725.343044 567.74175 
L 725.343044 24.14175 
" clip-path="url(#pc24be4ce1e)" style="fill: none; stroke: #ffffff; stroke-width: 0.8; stroke-linecap: square"/>
     </g>
     <g id="line2d_18">
      <g>
       <use xlink:href="#m7e0c4e0439" x="725.343044" y="567.74175" style="fill: #555555; stroke: #555555; stroke-width: 0.8"/>
      </g>
     </g>
     <g id="text_9">
      <!-- 2024-04 -->
      <g style="fill: #555555" transform="translate(712.521761 609.659567)rotate(-45)scale(0.1 -0.1)">
       <use xlink:href="#DejaVuSans-32"/>
       <use xlink:href="#DejaVuSans-30" x="63.623047"/>
       <use xlink:href="#DejaVuSans-32" x="127.246094"/>
       <use xlink:href="#DejaVuSans-34" x="190.869141"/>
       <use xlink:href="#DejaVuSans-2d" x="254.492188"/>
       <use xlink:href="#DejaVuSans-30" x="290.576172"/>
       <use xlink:href="#DejaVuSans-34" x="354.199219"/>
      </g>
     </g>
    </g>
    <g id="xtick_10">
     <g id="line2d_19">
      <path d="M 802.729672 567.74175 
L 802.729672 24.14175 
" clip-path="url(#pc24be4ce1e)" style="fill: none; stroke: #ffffff; stroke-width: 0.8; stroke-linecap: square"/>
     </g>
     <g id="line2d_20">
      <g>
       <use xlink:href="#m7e0c4e0439" x="802.729672" y="567.74175" style="fill: #555555; stroke: #555555; stroke-width: 0.8"/>
      </g>
     </g>
     <g id="text_10">
      <!-- 2024-05 -->
      <g style="fill: #555555" transform="translate(789.90839 609.659567)rotate(-45)scale(0.1 -0.1)">
       <defs>
        <path id="DejaVuSans-35" d="M 691 4666 
L 3169 4666 
L 3169 4134 
L 1269 4134 
L 1269 2991 
Q 1406 3038 1543 3061 
Q 1681 3084 1819 3084 
Q 2600 3084 3056 2656 
Q 3513 2228 3513 1497 
Q 3513 744 3044 326 
Q 2575 -91 1722 -91 
Q 1428 -91 1123 -41 
Q 819 9 494 109 
L 494 744 
Q 775 591 1075 516 
Q 1375 441 1709 441 
Q 2250 441 2565 725 
Q 2881 1009 2881 1497 
Q 2881 1984 2565 2268 
Q 2250 2553 1709 2553 
Q 1456 2553 1204 2497 
Q 953 2441 691 2322 
L 691 4666 
z
" transform="scale(0.015625)"/>
       </defs>
       <use xlink:href="#DejaVuSans-32"/>
       <use xlink:href="#DejaVuSans-30" x="63.623047"/>
       <use xlink:href="#DejaVuSans-32" x="127.246094"/>
       <use xlink:href="#DejaVuSans-34" x="190.869141"/>
       <use xlink:href="#DejaVuSans-2d" x="254.492188"/>
       <use xlink:href="#DejaVuSans-30" x="290.576172"/>
       <use xlink:href="#DejaVuSans-35" x="354.199219"/>
      </g>
     </g>
    </g>
    <g id="xtick_11">
     <g id="line2d_21">
      <path d="M 882.695855 567.74175 
L 882.695855 24.14175 
" clip-path="url(#pc24be4ce1e)" style="fill: none; stroke: #ffffff; stroke-width: 0.8; stroke-linecap: square"/>
     </g>
     <g id="line2d_22">
      <g>
       <use xlink:href="#m7e0c4e0439" x="882.695855" y="567.74175" style="fill: #555555; stroke: #555555; stroke-width: 0.8"/>
      </g>
     </g>
     <g id="text_11">
      <!-- 2024-06 -->
      <g style="fill: #555555" transform="translate(869.874573 609.659567)rotate(-45)scale(0.1 -0.1)">
       <defs>
        <path id="DejaVuSans-36" d="M 2113 2584 
Q 1688 2584 1439 2293 
Q 1191 2003 1191 1497 
Q 1191 994 1439 701 
Q 1688 409 2113 409 
Q 2538 409 2786 701 
Q 3034 994 3034 1497 
Q 3034 2003 2786 2293 
Q 2538 2584 2113 2584 
z
M 3366 4563 
L 3366 3988 
Q 3128 4100 2886 4159 
Q 2644 4219 2406 4219 
Q 1781 4219 1451 3797 
Q 1122 3375 1075 2522 
Q 1259 2794 1537 2939 
Q 1816 3084 2150 3084 
Q 2853 3084 3261 2657 
Q 3669 2231 3669 1497 
Q 3669 778 3244 343 
Q 2819 -91 2113 -91 
Q 1303 -91 875 529 
Q 447 1150 447 2328 
Q 447 3434 972 4092 
Q 1497 4750 2381 4750 
Q 2619 4750 2861 4703 
Q 3103 4656 3366 4563 
z
" transform="scale(0.015625)"/>
       </defs>
       <use xlink:href="#DejaVuSans-32"/>
       <use xlink:href="#DejaVuSans-30" x="63.623047"/>
       <use xlink:href="#DejaVuSans-32" x="127.246094"/>
       <use xlink:href="#DejaVuSans-34" x="190.869141"/>
       <use xlink:href="#DejaVuSans-2d" x="254.492188"/>
       <use xlink:href="#DejaVuSans-30" x="290.576172"/>
       <use xlink:href="#DejaVuSans-36" x="354.199219"/>
      </g>
     </g>
    </g>
    <g id="text_12">
     <!-- Date -->
     <g style="fill: #555555" transform="translate(489.160438 624.248253)scale(0.12 -0.12)">
      <defs>
       <path id="DejaVuSans-44" d="M 1259 4147 
L 1259 519 
L 2022 519 
Q 2988 519 3436 956 
Q 3884 1394 3884 2338 
Q 3884 3275 3436 3711 
Q 2988 4147 2022 4147 
L 1259 4147 
z
M 628 4666 
L 1925 4666 
Q 3281 4666 3915 4102 
Q 4550 3538 4550 2338 
Q 4550 1131 3912 565 
Q 3275 0 1925 0 
L 628 0 
L 628 4666 
z
" transform="scale(0.015625)"/>
       <path id="DejaVuSans-61" d="M 2194 1759 
Q 1497 1759 1228 1600 
Q 959 1441 959 1056 
Q 959 750 1161 570 
Q 1363 391 1709 391 
Q 2188 391 2477 730 
Q 2766 1069 2766 1631 
L 2766 1759 
L 2194 1759 
z
M 3341 1997 
L 3341 0 
L 2766 0 
L 2766 531 
Q 2569 213 2275 61 
Q 1981 -91 1556 -91 
Q 1019 -91 701 211 
Q 384 513 384 1019 
Q 384 1609 779 1909 
Q 1175 2209 1959 2209 
L 2766 2209 
L 2766 2266 
Q 2766 2663 2505 2880 
Q 2244 3097 1772 3097 
Q 1472 3097 1187 3025 
Q 903 2953 641 2809 
L 641 3341 
Q 956 3463 1253 3523 
Q 1550 3584 1831 3584 
Q 2591 3584 2966 3190 
Q 3341 2797 3341 1997 
z
" transform="scale(0.015625)"/>
       <path id="DejaVuSans-74" d="M 1172 4494 
L 1172 3500 
L 2356 3500 
L 2356 3053 
L 1172 3053 
L 1172 1153 
Q 1172 725 1289 603 
Q 1406 481 1766 481 
L 2356 481 
L 2356 0 
L 1766 0 
Q 1100 0 847 248 
Q 594 497 594 1153 
L 594 3053 
L 172 3053 
L 172 3500 
L 594 3500 
L 594 4494 
L 1172 4494 
z
" transform="scale(0.015625)"/>
       <path id="DejaVuSans-65" d="M 3597 1894 
L 3597 1613 
L 953 1613 
Q 991 1019 1311 708 
Q 1631 397 2203 397 
Q 2534 397 2845 478 
Q 3156 559 3463 722 
L 3463 178 
Q 3153 47 2828 -22 
Q 2503 -91 2169 -91 
Q 1331 -91 842 396 
Q 353 884 353 1716 
Q 353 2575 817 3079 
Q 1281 3584 2069 3584 
Q 2775 3584 3186 3129 
Q 3597 2675 3597 1894 
z
M 3022 2063 
Q 3016 2534 2758 2815 
Q 2500 3097 2075 3097 
Q 1594 3097 1305 2825 
Q 1016 2553 972 2059 
L 3022 2063 
z
" transform="scale(0.015625)"/>
      </defs>
      <use xlink:href="#DejaVuSans-44"/>
      <use xlink:href="#DejaVuSans-61" x="77.001953"/>
      <use xlink:href="#DejaVuSans-74" x="138.28125"/>
      <use xlink:href="#DejaVuSans-65" x="177.490234"/>
     </g>
    </g>
   </g>
   <g id="matplotlib.axis_2">
    <g id="ytick_1">
     <g id="line2d_23">
      <path d="M 52.079375 567.74175 
L 954.923375 567.74175 
" clip-path="url(#pc24be4ce1e)" style="fill: none; stroke: #ffffff; stroke-width: 0.8; stroke-linecap: square"/>
     </g>
     <g id="line2d_24">
      <defs>
       <path id="m20e229bd14" d="M 0 0 
L -3.5 0 
" style="stroke: #555555; stroke-width: 0.8"/>
      </defs>
      <g>
       <use xlink:href="#m20e229bd14" x="52.079375" y="567.74175" style="fill: #555555; stroke: #555555; stroke-width: 0.8"/>
      </g>
     </g>
     <g id="text_13">
      <!-- 0.00 -->
      <g style="fill: #555555" transform="translate(22.81375 571.540969)scale(0.1 -0.1)">
       <defs>
        <path id="DejaVuSans-2e" d="M 684 794 
L 1344 794 
L 1344 0 
L 684 0 
L 684 794 
z
" transform="scale(0.015625)"/>
       </defs>
       <use xlink:href="#DejaVuSans-30"/>
       <use xlink:href="#DejaVuSans-2e" x="63.623047"/>
       <use xlink:href="#DejaVuSans-30" x="95.410156"/>
       <use xlink:href="#DejaVuSans-30" x="159.033203"/>
      </g>
     </g>
    </g>
    <g id="ytick_2">
     <g id="line2d_25">
      <path d="M 52.079375 502.273172 
L 954.923375 502.273172 
" clip-path="url(#pc24be4ce1e)" style="fill: none; stroke: #ffffff; stroke-width: 0.8; stroke-linecap: square"/>
     </g>
     <g id="line2d_26">
      <g>
       <use xlink:href="#m20e229bd14" x="52.079375" y="502.273172" style="fill: #555555; stroke: #555555; stroke-width: 0.8"/>
      </g>
     </g>
     <g id="text_14">
      <!-- 0.05 -->
      <g style="fill: #555555" transform="translate(22.81375 506.072391)scale(0.1 -0.1)">
       <use xlink:href="#DejaVuSans-30"/>
       <use xlink:href="#DejaVuSans-2e" x="63.623047"/>
       <use xlink:href="#DejaVuSans-30" x="95.410156"/>
       <use xlink:href="#DejaVuSans-35" x="159.033203"/>
      </g>
     </g>
    </g>
    <g id="ytick_3">
     <g id="line2d_27">
      <path d="M 52.079375 436.804594 
L 954.923375 436.804594 
" clip-path="url(#pc24be4ce1e)" style="fill: none; stroke: #ffffff; stroke-width: 0.8; stroke-linecap: square"/>
     </g>
     <g id="line2d_28">
      <g>
       <use xlink:href="#m20e229bd14" x="52.079375" y="436.804594" style="fill: #555555; stroke: #555555; stroke-width: 0.8"/>
      </g>
     </g>
     <g id="text_15">
      <!-- 0.10 -->
      <g style="fill: #555555" transform="translate(22.81375 440.603812)scale(0.1 -0.1)">
       <use xlink:href="#DejaVuSans-30"/>
       <use xlink:href="#DejaVuSans-2e" x="63.623047"/>
       <use xlink:href="#DejaVuSans-31" x="95.410156"/>
       <use xlink:href="#DejaVuSans-30" x="159.033203"/>
      </g>
     </g>
    </g>
    <g id="ytick_4">
     <g id="line2d_29">
      <path d="M 52.079375 371.336016 
L 954.923375 371.336016 
" clip-path="url(#pc24be4ce1e)" style="fill: none; stroke: #ffffff; stroke-width: 0.8; stroke-linecap: square"/>
     </g>
     <g id="line2d_30">
      <g>
       <use xlink:href="#m20e229bd14" x="52.079375" y="371.336016" style="fill: #555555; stroke: #555555; stroke-width: 0.8"/>
      </g>
     </g>
     <g id="text_16">
      <!-- 0.15 -->
      <g style="fill: #555555" transform="translate(22.81375 375.135234)scale(0.1 -0.1)">
       <use xlink:href="#DejaVuSans-30"/>
       <use xlink:href="#DejaVuSans-2e" x="63.623047"/>
       <use xlink:href="#DejaVuSans-31" x="95.410156"/>
       <use xlink:href="#DejaVuSans-35" x="159.033203"/>
      </g>
     </g>
    </g>
    <g id="ytick_5">
     <g id="line2d_31">
      <path d="M 52.079375 305.867437 
L 954.923375 305.867437 
" clip-path="url(#pc24be4ce1e)" style="fill: none; stroke: #ffffff; stroke-width: 0.8; stroke-linecap: square"/>
     </g>
     <g id="line2d_32">
      <g>
       <use xlink:href="#m20e229bd14" x="52.079375" y="305.867437" style="fill: #555555; stroke: #555555; stroke-width: 0.8"/>
      </g>
     </g>
     <g id="text_17">
      <!-- 0.20 -->
      <g style="fill: #555555" transform="translate(22.81375 309.666656)scale(0.1 -0.1)">
       <use xlink:href="#DejaVuSans-30"/>
       <use xlink:href="#DejaVuSans-2e" x="63.623047"/>
       <use xlink:href="#DejaVuSans-32" x="95.410156"/>
       <use xlink:href="#DejaVuSans-30" x="159.033203"/>
      </g>
     </g>
    </g>
    <g id="ytick_6">
     <g id="line2d_33">
      <path d="M 52.079375 240.398859 
L 954.923375 240.398859 
" clip-path="url(#pc24be4ce1e)" style="fill: none; stroke: #ffffff; stroke-width: 0.8; stroke-linecap: square"/>
     </g>
     <g id="line2d_34">
      <g>
       <use xlink:href="#m20e229bd14" x="52.079375" y="240.398859" style="fill: #555555; stroke: #555555; stroke-width: 0.8"/>
      </g>
     </g>
     <g id="text_18">
      <!-- 0.25 -->
      <g style="fill: #555555" transform="translate(22.81375 244.198078)scale(0.1 -0.1)">
       <use xlink:href="#DejaVuSans-30"/>
       <use xlink:href="#DejaVuSans-2e" x="63.623047"/>
       <use xlink:href="#DejaVuSans-32" x="95.410156"/>
       <use xlink:href="#DejaVuSans-35" x="159.033203"/>
      </g>
     </g>
    </g>
    <g id="ytick_7">
     <g id="line2d_35">
      <path d="M 52.079375 174.930281 
L 954.923375 174.930281 
" clip-path="url(#pc24be4ce1e)" style="fill: none; stroke: #ffffff; stroke-width: 0.8; stroke-linecap: square"/>
     </g>
     <g id="line2d_36">
      <g>
       <use xlink:href="#m20e229bd14" x="52.079375" y="174.930281" style="fill: #555555; stroke: #555555; stroke-width: 0.8"/>
      </g>
     </g>
     <g id="text_19">
      <!-- 0.30 -->
      <g style="fill: #555555" transform="translate(22.81375 178.7295)scale(0.1 -0.1)">
       <use xlink:href="#DejaVuSans-30"/>
       <use xlink:href="#DejaVuSans-2e" x="63.623047"/>
       <use xlink:href="#DejaVuSans-33" x="95.410156"/>
       <use xlink:href="#DejaVuSans-30" x="159.033203"/>
      </g>
     </g>
    </g>
    <g id="ytick_8">
     <g id="line2d_37">
      <path d="M 52.079375 109.461703 
L 954.923375 109.461703 
" clip-path="url(#pc24be4ce1e)" style="fill: none; stroke: #ffffff; stroke-width: 0.8; stroke-linecap: square"/>
     </g>
     <g id="line2d_38">
      <g>
       <use xlink:href="#m20e229bd14" x="52.079375" y="109.461703" style="fill: #555555; stroke: #555555; stroke-width: 0.8"/>
      </g>
     </g>
     <g id="text_20">
      <!-- 0.35 -->
      <g style="fill: #555555" transform="translate(22.81375 113.260922)scale(0.1 -0.1)">
       <use xlink:href="#DejaVuSans-30"/>
       <use xlink:href="#DejaVuSans-2e" x="63.623047"/>
       <use xlink:href="#DejaVuSans-33" x="95.410156"/>
       <use xlink:href="#DejaVuSans-35" x="159.033203"/>
      </g>
     </g>
    </g>
    <g id="ytick_9">
     <g id="line2d_39">
      <path d="M 52.079375 43.993125 
L 954.923375 43.993125 
" clip-path="url(#pc24be4ce1e)" style="fill: none; stroke: #ffffff; stroke-width: 0.8; stroke-linecap: square"/>
     </g>
     <g id="line2d_40">
      <g>
       <use xlink:href="#m20e229bd14" x="52.079375" y="43.993125" style="fill: #555555; stroke: #555555; stroke-width: 0.8"/>
      </g>
     </g>
     <g id="text_21">
      <!-- 0.40 -->
      <g style="fill: #555555" transform="translate(22.81375 47.792344)scale(0.1 -0.1)">
       <use xlink:href="#DejaVuSans-30"/>
       <use xlink:href="#DejaVuSans-2e" x="63.623047"/>
       <use xlink:href="#DejaVuSans-34" x="95.410156"/>
       <use xlink:href="#DejaVuSans-30" x="159.033203"/>
      </g>
     </g>
    </g>
    <g id="text_22">
     <!-- Share -->
     <g style="fill: #555555" transform="translate(16.318125 313.253625)rotate(-90)scale(0.12 -0.12)">
      <defs>
       <path id="DejaVuSans-53" d="M 3425 4513 
L 3425 3897 
Q 3066 4069 2747 4153 
Q 2428 4238 2131 4238 
Q 1616 4238 1336 4038 
Q 1056 3838 1056 3469 
Q 1056 3159 1242 3001 
Q 1428 2844 1947 2747 
L 2328 2669 
Q 3034 2534 3370 2195 
Q 3706 1856 3706 1288 
Q 3706 609 3251 259 
Q 2797 -91 1919 -91 
Q 1588 -91 1214 -16 
Q 841 59 441 206 
L 441 856 
Q 825 641 1194 531 
Q 1563 422 1919 422 
Q 2459 422 2753 634 
Q 3047 847 3047 1241 
Q 3047 1584 2836 1778 
Q 2625 1972 2144 2069 
L 1759 2144 
Q 1053 2284 737 2584 
Q 422 2884 422 3419 
Q 422 4038 858 4394 
Q 1294 4750 2059 4750 
Q 2388 4750 2728 4690 
Q 3069 4631 3425 4513 
z
" transform="scale(0.015625)"/>
       <path id="DejaVuSans-68" d="M 3513 2113 
L 3513 0 
L 2938 0 
L 2938 2094 
Q 2938 2591 2744 2837 
Q 2550 3084 2163 3084 
Q 1697 3084 1428 2787 
Q 1159 2491 1159 1978 
L 1159 0 
L 581 0 
L 581 4863 
L 1159 4863 
L 1159 2956 
Q 1366 3272 1645 3428 
Q 1925 3584 2291 3584 
Q 2894 3584 3203 3211 
Q 3513 2838 3513 2113 
z
" transform="scale(0.015625)"/>
       <path id="DejaVuSans-72" d="M 2631 2963 
Q 2534 3019 2420 3045 
Q 2306 3072 2169 3072 
Q 1681 3072 1420 2755 
Q 1159 2438 1159 1844 
L 1159 0 
L 581 0 
L 581 3500 
L 1159 3500 
L 1159 2956 
Q 1341 3275 1631 3429 
Q 1922 3584 2338 3584 
Q 2397 3584 2469 3576 
Q 2541 3569 2628 3553 
L 2631 2963 
z
" transform="scale(0.015625)"/>
      </defs>
      <use xlink:href="#DejaVuSans-53"/>
      <use xlink:href="#DejaVuSans-68" x="63.476562"/>
      <use xlink:href="#DejaVuSans-61" x="126.855469"/>
      <use xlink:href="#DejaVuSans-72" x="188.134766"/>
      <use xlink:href="#DejaVuSans-65" x="226.998047"/>
     </g>
    </g>
   </g>
   <g id="line2d_41">
    <path d="M 52.079375 359.271212 
L 61.199011 358.96745 
L 70.318648 358.663689 
L 79.438284 358.359927 
L 88.55792 358.056166 
L 97.677557 357.752404 
L 106.797193 357.448643 
L 115.91683 357.144881 
L 125.036466 356.84112 
L 134.156102 356.537358 
L 143.275739 356.233597 
L 152.395375 355.929836 
L 161.515011 355.626074 
L 170.634648 355.322313 
L 179.754284 355.018551 
L 188.87392 354.71479 
L 197.993557 354.411028 
L 207.113193 354.107267 
L 216.23283 353.803505 
L 225.352466 353.499744 
L 234.472102 353.195982 
L 243.591739 352.892221 
L 252.711375 352.588459 
L 261.831011 352.284698 
L 270.950648 351.980936 
L 280.070284 351.677175 
L 289.18992 351.373413 
L 298.309557 351.069652 
L 307.429193 350.765891 
L 316.54883 350.462129 
L 325.668466 350.158368 
L 334.788102 349.854606 
L 343.907739 349.550845 
L 353.027375 349.247083 
L 362.147011 348.943322 
L 371.266648 348.63956 
L 380.386284 348.335799 
L 389.50592 348.032037 
L 398.625557 347.728276 
L 407.745193 347.424514 
L 416.86483 347.120753 
L 425.984466 346.816991 
L 435.104102 346.51323 
L 444.223739 346.209468 
L 453.343375 345.905707 
L 462.463011 345.601946 
L 471.582648 345.298184 
L 480.702284 344.994423 
L 489.82192 344.690661 
L 498.941557 344.3869 
L 508.061193 344.083138 
L 517.18083 343.779377 
L 526.300466 343.475615 
L 535.420102 343.171854 
L 544.539739 342.868092 
L 553.659375 342.564331 
L 562.779011 342.260569 
L 571.898648 341.956808 
L 581.018284 341.653046 
L 590.13792 341.349285 
L 599.257557 341.045523 
L 608.377193 340.741762 
L 617.49683 340.438001 
L 626.616466 340.134239 
L 635.736102 339.830478 
L 644.855739 339.526716 
L 653.975375 339.222955 
L 663.095011 338.919193 
L 672.214648 338.615432 
L 681.334284 338.31167 
L 690.45392 338.007909 
L 699.573557 337.704147 
L 708.693193 337.400386 
L 717.81283 337.096624 
L 726.932466 336.792863 
L 736.052102 336.489101 
L 745.171739 336.18534 
L 754.291375 335.881578 
L 763.411011 335.577817 
L 772.530648 335.274056 
L 781.650284 334.970294 
L 790.76992 334.666533 
L 799.889557 334.362771 
L 809.009193 334.05901 
L 818.12883 333.755248 
L 827.248466 333.451487 
L 836.368102 333.147725 
L 845.487739 332.843964 
L 854.607375 332.540202 
L 863.727011 332.236441 
L 872.846648 331.932679 
L 881.966284 331.628918 
L 891.08592 331.325156 
L 900.205557 331.021395 
L 909.325193 330.717633 
L 918.44483 330.413872 
L 927.564466 330.110111 
L 936.684102 329.806349 
L 945.803739 329.502588 
L 954.923375 329.198826 
" clip-path="url(#pc24be4ce1e)" style="fill: none; stroke-dasharray: 1.5,2.475; stroke-dashoffset: 0; stroke: #4ac1fa; stroke-width: 1.5"/>
   </g>
   <g id="line2d_42">
    <path d="M 52.079375 326.757068 
L 61.199011 327.510132 
L 70.318648 328.263196 
L 79.438284 329.01626 
L 88.55792 329.769324 
L 97.677557 330.522388 
L 106.797193 331.275452 
L 115.91683 332.028516 
L 125.036466 332.78158 
L 134.156102 333.534644 
L 143.275739 334.287708 
L 152.395375 335.040773 
L 161.515011 335.793837 
L 170.634648 336.546901 
L 179.754284 337.299965 
L 188.87392 338.053029 
L 197.993557 338.806093 
L 207.113193 339.559157 
L 216.23283 340.312221 
L 225.352466 341.065285 
L 234.472102 341.818349 
L 243.591739 342.571413 
L 252.711375 343.324477 
L 261.831011 344.077541 
L 270.950648 344.830605 
L 280.070284 345.583669 
L 289.18992 346.336733 
L 298.309557 347.089797 
L 307.429193 347.842861 
L 316.54883 348.595926 
L 325.668466 349.34899 
L 334.788102 350.102054 
L 343.907739 350.855118 
L 353.027375 351.608182 
L 362.147011 352.361246 
L 371.266648 353.11431 
L 380.386284 353.867374 
L 389.50592 354.620438 
L 398.625557 355.373502 
L 407.745193 356.126566 
L 416.86483 356.87963 
L 425.984466 357.632694 
L 435.104102 358.385758 
L 444.223739 359.138822 
L 453.343375 359.891886 
L 462.463011 360.64495 
L 471.582648 361.398014 
L 480.702284 362.151079 
L 489.82192 362.904143 
L 498.941557 363.657207 
L 508.061193 364.410271 
L 517.18083 365.163335 
L 526.300466 365.916399 
L 535.420102 366.669463 
L 544.539739 367.422527 
L 553.659375 368.175591 
L 562.779011 368.928655 
L 571.898648 369.681719 
L 581.018284 370.434783 
L 590.13792 371.187847 
L 599.257557 371.940911 
L 608.377193 372.693975 
L 617.49683 373.447039 
L 626.616466 374.200103 
L 635.736102 374.953167 
L 644.855739 375.706232 
L 653.975375 376.459296 
L 663.095011 377.21236 
L 672.214648 377.965424 
L 681.334284 378.718488 
L 690.45392 379.471552 
L 699.573557 380.224616 
L 708.693193 380.97768 
L 717.81283 381.730744 
L 726.932466 382.483808 
L 736.052102 383.236872 
L 745.171739 383.989936 
L 754.291375 384.743 
L 763.411011 385.496064 
L 772.530648 386.249128 
L 781.650284 387.002192 
L 790.76992 387.755256 
L 799.889557 388.50832 
L 809.009193 389.261385 
L 818.12883 390.014449 
L 827.248466 390.767513 
L 836.368102 391.520577 
L 845.487739 392.273641 
L 854.607375 393.026705 
L 863.727011 393.779769 
L 872.846648 394.532833 
L 881.966284 395.285897 
L 891.08592 396.038961 
L 900.205557 396.792025 
L 909.325193 397.545089 
L 918.44483 398.298153 
L 927.564466 399.051217 
L 936.684102 399.804281 
L 945.803739 400.557345 
L 954.923375 401.310409 
" clip-path="url(#pc24be4ce1e)" style="fill: none; stroke-dasharray: 1.5,2.475; stroke-dashoffset: 0; stroke: #e9a942; stroke-width: 1.5"/>
   </g>
   <g id="line2d_43">
    <path d="M 52.079375 353.753088 
L 61.199011 354.556829 
L 70.318648 355.360571 
L 79.438284 356.164313 
L 88.55792 356.968054 
L 97.677557 357.771796 
L 106.797193 358.575538 
L 115.91683 359.379279 
L 125.036466 360.183021 
L 134.156102 360.986763 
L 143.275739 361.790504 
L 152.395375 362.594246 
L 161.515011 363.397988 
L 170.634648 364.201729 
L 179.754284 365.005471 
L 188.87392 365.809213 
L 197.993557 366.612954 
L 207.113193 367.416696 
L 216.23283 368.220438 
L 225.352466 369.02418 
L 234.472102 369.827921 
L 243.591739 370.631663 
L 252.711375 371.435405 
L 261.831011 372.239146 
L 270.950648 373.042888 
L 280.070284 373.84663 
L 289.18992 374.650371 
L 298.309557 375.454113 
L 307.429193 376.257855 
L 316.54883 377.061596 
L 325.668466 377.865338 
L 334.788102 378.66908 
L 343.907739 379.472821 
L 353.027375 380.276563 
L 362.147011 381.080305 
L 371.266648 381.884046 
L 380.386284 382.687788 
L 389.50592 383.49153 
L 398.625557 384.295271 
L 407.745193 385.099013 
L 416.86483 385.902755 
L 425.984466 386.706496 
L 435.104102 387.510238 
L 444.223739 388.31398 
L 453.343375 389.117721 
L 462.463011 389.921463 
L 471.582648 390.725205 
L 480.702284 391.528947 
L 489.82192 392.332688 
L 498.941557 393.13643 
L 508.061193 393.940172 
L 517.18083 394.743913 
L 526.300466 395.547655 
L 535.420102 396.351397 
L 544.539739 397.155138 
L 553.659375 397.95888 
L 562.779011 398.762622 
L 571.898648 399.566363 
L 581.018284 400.370105 
L 590.13792 401.173847 
L 599.257557 401.977588 
L 608.377193 402.78133 
L 617.49683 403.585072 
L 626.616466 404.388813 
L 635.736102 405.192555 
L 644.855739 405.996297 
L 653.975375 406.800038 
L 663.095011 407.60378 
L 672.214648 408.407522 
L 681.334284 409.211263 
L 690.45392 410.015005 
L 699.573557 410.818747 
L 708.693193 411.622488 
L 717.81283 412.42623 
L 726.932466 413.229972 
L 736.052102 414.033714 
L 745.171739 414.837455 
L 754.291375 415.641197 
L 763.411011 416.444939 
L 772.530648 417.24868 
L 781.650284 418.052422 
L 790.76992 418.856164 
L 799.889557 419.659905 
L 809.009193 420.463647 
L 818.12883 421.267389 
L 827.248466 422.07113 
L 836.368102 422.874872 
L 845.487739 423.678614 
L 854.607375 424.482355 
L 863.727011 425.286097 
L 872.846648 426.089839 
L 881.966284 426.89358 
L 891.08592 427.697322 
L 900.205557 428.501064 
L 909.325193 429.304805 
L 918.44483 430.108547 
L 927.564466 430.912289 
L 936.684102 431.71603 
L 945.803739 432.519772 
L 954.923375 433.323514 
" clip-path="url(#pc24be4ce1e)" style="fill: none; stroke-dasharray: 1.5,2.475; stroke-dashoffset: 0; stroke: #9a5689; stroke-width: 1.5"/>
   </g>
   <g id="line2d_44">
    <path d="M 52.079375 516.472256 
L 61.199011 516.571008 
L 70.318648 516.66976 
L 79.438284 516.768513 
L 88.55792 516.867265 
L 97.677557 516.966018 
L 106.797193 517.06477 
L 115.91683 517.163522 
L 125.036466 517.262275 
L 134.156102 517.361027 
L 143.275739 517.459779 
L 152.395375 517.558532 
L 161.515011 517.657284 
L 170.634648 517.756036 
L 179.754284 517.854789 
L 188.87392 517.953541 
L 197.993557 518.052293 
L 207.113193 518.151046 
L 216.23283 518.249798 
L 225.352466 518.34855 
L 234.472102 518.447303 
L 243.591739 518.546055 
L 252.711375 518.644807 
L 261.831011 518.74356 
L 270.950648 518.842312 
L 280.070284 518.941065 
L 289.18992 519.039817 
L 298.309557 519.138569 
L 307.429193 519.237322 
L 316.54883 519.336074 
L 325.668466 519.434826 
L 334.788102 519.533579 
L 343.907739 519.632331 
L 353.027375 519.731083 
L 362.147011 519.829836 
L 371.266648 519.928588 
L 380.386284 520.02734 
L 389.50592 520.126093 
L 398.625557 520.224845 
L 407.745193 520.323597 
L 416.86483 520.42235 
L 425.984466 520.521102 
L 435.104102 520.619855 
L 444.223739 520.718607 
L 453.343375 520.817359 
L 462.463011 520.916112 
L 471.582648 521.014864 
L 480.702284 521.113616 
L 489.82192 521.212369 
L 498.941557 521.311121 
L 508.061193 521.409873 
L 517.18083 521.508626 
L 526.300466 521.607378 
L 535.420102 521.70613 
L 544.539739 521.804883 
L 553.659375 521.903635 
L 562.779011 522.002387 
L 571.898648 522.10114 
L 581.018284 522.199892 
L 590.13792 522.298644 
L 599.257557 522.397397 
L 608.377193 522.496149 
L 617.49683 522.594902 
L 626.616466 522.693654 
L 635.736102 522.792406 
L 644.855739 522.891159 
L 653.975375 522.989911 
L 663.095011 523.088663 
L 672.214648 523.187416 
L 681.334284 523.286168 
L 690.45392 523.38492 
L 699.573557 523.483673 
L 708.693193 523.582425 
L 717.81283 523.681177 
L 726.932466 523.77993 
L 736.052102 523.878682 
L 745.171739 523.977434 
L 754.291375 524.076187 
L 763.411011 524.174939 
L 772.530648 524.273692 
L 781.650284 524.372444 
L 790.76992 524.471196 
L 799.889557 524.569949 
L 809.009193 524.668701 
L 818.12883 524.767453 
L 827.248466 524.866206 
L 836.368102 524.964958 
L 845.487739 525.06371 
L 854.607375 525.162463 
L 863.727011 525.261215 
L 872.846648 525.359967 
L 881.966284 525.45872 
L 891.08592 525.557472 
L 900.205557 525.656224 
L 909.325193 525.754977 
L 918.44483 525.853729 
L 927.564466 525.952481 
L 936.684102 526.051234 
L 945.803739 526.149986 
L 954.923375 526.248739 
" clip-path="url(#pc24be4ce1e)" style="fill: none; stroke-dasharray: 1.5,2.475; stroke-dashoffset: 0; stroke: #be503b; stroke-width: 1.5"/>
   </g>
   <g id="line2d_45">
    <path d="M 52.079375 301.769299 
L 61.199011 302.202327 
L 70.318648 302.635355 
L 79.438284 303.068383 
L 88.55792 303.50141 
L 97.677557 303.934438 
L 106.797193 304.367466 
L 115.91683 304.800494 
L 125.036466 305.233521 
L 134.156102 305.666549 
L 143.275739 306.099577 
L 152.395375 306.532605 
L 161.515011 306.965632 
L 170.634648 307.39866 
L 179.754284 307.831688 
L 188.87392 308.264716 
L 197.993557 308.697743 
L 207.113193 309.130771 
L 216.23283 309.563799 
L 225.352466 309.996827 
L 234.472102 310.429854 
L 243.591739 310.862882 
L 252.711375 311.29591 
L 261.831011 311.728938 
L 270.950648 312.161965 
L 280.070284 312.594993 
L 289.18992 313.028021 
L 298.309557 313.461048 
L 307.429193 313.894076 
L 316.54883 314.327104 
L 325.668466 314.760132 
L 334.788102 315.193159 
L 343.907739 315.626187 
L 353.027375 316.059215 
L 362.147011 316.492243 
L 371.266648 316.92527 
L 380.386284 317.358298 
L 389.50592 317.791326 
L 398.625557 318.224354 
L 407.745193 318.657381 
L 416.86483 319.090409 
L 425.984466 319.523437 
L 435.104102 319.956465 
L 444.223739 320.389492 
L 453.343375 320.82252 
L 462.463011 321.255548 
L 471.582648 321.688576 
L 480.702284 322.121603 
L 489.82192 322.554631 
L 498.941557 322.987659 
L 508.061193 323.420687 
L 517.18083 323.853714 
L 526.300466 324.286742 
L 535.420102 324.71977 
L 544.539739 325.152797 
L 553.659375 325.585825 
L 562.779011 326.018853 
L 571.898648 326.451881 
L 581.018284 326.884908 
L 590.13792 327.317936 
L 599.257557 327.750964 
L 608.377193 328.183992 
L 617.49683 328.617019 
L 626.616466 329.050047 
L 635.736102 329.483075 
L 644.855739 329.916103 
L 653.975375 330.34913 
L 663.095011 330.782158 
L 672.214648 331.215186 
L 681.334284 331.648214 
L 690.45392 332.081241 
L 699.573557 332.514269 
L 708.693193 332.947297 
L 717.81283 333.380325 
L 726.932466 333.813352 
L 736.052102 334.24638 
L 745.171739 334.679408 
L 754.291375 335.112436 
L 763.411011 335.545463 
L 772.530648 335.978491 
L 781.650284 336.411519 
L 790.76992 336.844546 
L 799.889557 337.277574 
L 809.009193 337.710602 
L 818.12883 338.14363 
L 827.248466 338.576657 
L 836.368102 339.009685 
L 845.487739 339.442713 
L 854.607375 339.875741 
L 863.727011 340.308768 
L 872.846648 340.741796 
L 881.966284 341.174824 
L 891.08592 341.607852 
L 900.205557 342.040879 
L 909.325193 342.473907 
L 918.44483 342.906935 
L 927.564466 343.339963 
L 936.684102 343.77299 
L 945.803739 344.206018 
L 954.923375 344.639046 
" clip-path="url(#pc24be4ce1e)" style="fill: none; stroke-dasharray: 1.5,2.475; stroke-dashoffset: 0; stroke: #e2321d; stroke-width: 1.5"/>
   </g>
   <g id="line2d_46">
    <path d="M 52.079375 258.960861 
L 61.199011 257.237547 
L 70.318648 255.514233 
L 79.438284 253.790919 
L 88.55792 252.067605 
L 97.677557 250.344291 
L 106.797193 248.620977 
L 115.91683 246.897662 
L 125.036466 245.174348 
L 134.156102 243.451034 
L 143.275739 241.72772 
L 152.395375 240.004406 
L 161.515011 238.281092 
L 170.634648 236.557778 
L 179.754284 234.834464 
L 188.87392 233.11115 
L 197.993557 231.387836 
L 207.113193 229.664522 
L 216.23283 227.941208 
L 225.352466 226.217894 
L 234.472102 224.49458 
L 243.591739 222.771266 
L 252.711375 221.047952 
L 261.831011 219.324638 
L 270.950648 217.601324 
L 280.070284 215.878009 
L 289.18992 214.154695 
L 298.309557 212.431381 
L 307.429193 210.708067 
L 316.54883 208.984753 
L 325.668466 207.261439 
L 334.788102 205.538125 
L 343.907739 203.814811 
L 353.027375 202.091497 
L 362.147011 200.368183 
L 371.266648 198.644869 
L 380.386284 196.921555 
L 389.50592 195.198241 
L 398.625557 193.474927 
L 407.745193 191.751613 
L 416.86483 190.028299 
L 425.984466 188.304985 
L 435.104102 186.58167 
L 444.223739 184.858356 
L 453.343375 183.135042 
L 462.463011 181.411728 
L 471.582648 179.688414 
L 480.702284 177.9651 
L 489.82192 176.241786 
L 498.941557 174.518472 
L 508.061193 172.795158 
L 517.18083 171.071844 
L 526.300466 169.34853 
L 535.420102 167.625216 
L 544.539739 165.901902 
L 553.659375 164.178588 
L 562.779011 162.455274 
L 571.898648 160.73196 
L 581.018284 159.008646 
L 590.13792 157.285331 
L 599.257557 155.562017 
L 608.377193 153.838703 
L 617.49683 152.115389 
L 626.616466 150.392075 
L 635.736102 148.668761 
L 644.855739 146.945447 
L 653.975375 145.222133 
L 663.095011 143.498819 
L 672.214648 141.775505 
L 681.334284 140.052191 
L 690.45392 138.328877 
L 699.573557 136.605563 
L 708.693193 134.882249 
L 717.81283 133.158935 
L 726.932466 131.435621 
L 736.052102 129.712307 
L 745.171739 127.988993 
L 754.291375 126.265678 
L 763.411011 124.542364 
L 772.530648 122.81905 
L 781.650284 121.095736 
L 790.76992 119.372422 
L 799.889557 117.649108 
L 809.009193 115.925794 
L 818.12883 114.20248 
L 827.248466 112.479166 
L 836.368102 110.755852 
L 845.487739 109.032538 
L 854.607375 107.309224 
L 863.727011 105.58591 
L 872.846648 103.862596 
L 881.966284 102.139282 
L 891.08592 100.415968 
L 900.205557 98.692654 
L 909.325193 96.969339 
L 918.44483 95.246025 
L 927.564466 93.522711 
L 936.684102 91.799397 
L 945.803739 90.076083 
L 954.923375 88.352769 
" clip-path="url(#pc24be4ce1e)" style="fill: none; stroke-dasharray: 1.5,2.475; stroke-dashoffset: 0; stroke: #48b585; stroke-width: 1.5"/>
   </g>
   <g id="line2d_47">
    <path d="M 52.079375 357.511559 
L 70.136255 349.447649 
L 88.193135 350.984052 
L 106.250015 362.216331 
L 124.306895 361.296599 
L 142.363775 347.89751 
L 160.420655 361.122127 
L 178.477535 354.977089 
L 196.534415 355.295013 
L 214.591295 348.545642 
L 232.648175 343.377144 
L 250.705055 348.5032 
L 268.761935 349.141308 
L 322.932575 352.853315 
L 340.989455 356.556114 
L 359.046335 346.363756 
L 377.103215 346.48763 
L 395.160095 361.459953 
L 413.216975 366.365002 
L 431.273855 348.5621 
L 449.330735 332.437269 
L 467.387615 332.992302 
L 485.444495 343.327976 
L 503.501375 353.228365 
L 521.558255 350.438245 
L 539.615135 332.984798 
L 557.672015 325.663343 
L 575.728895 347.48306 
L 593.785775 340.513812 
L 611.842655 341.61112 
L 629.899535 341.605402 
L 647.956415 344.204023 
L 666.013295 356.071577 
L 684.070175 345.029589 
L 702.127055 349.127395 
L 720.183935 343.708995 
L 738.240815 347.03027 
L 756.297695 345.95626 
L 774.354575 341.649345 
L 792.411455 340.346845 
L 810.468335 337.030586 
L 828.525215 341.383199 
L 846.582095 341.75479 
L 864.638975 327.558286 
L 882.695855 309.68525 
L 900.752735 325.973652 
L 918.809615 319.855902 
L 936.866495 314.066391 
L 954.923375 312.001488 
" clip-path="url(#pc24be4ce1e)" style="fill: none; stroke: #4ac1fa; stroke-width: 1.5; stroke-linecap: square"/>
   </g>
   <g id="line2d_48">
    <path d="M 52.079375 341.517173 
L 70.136255 369.136219 
L 88.193135 327.960624 
L 106.250015 320.086468 
L 124.306895 342.628584 
L 142.363775 374.883925 
L 160.420655 374.735319 
L 178.477535 338.147778 
L 196.534415 310.848596 
L 214.591295 340.233453 
L 232.648175 380.941712 
L 250.705055 360.210908 
L 268.761935 347.79611 
L 322.932575 328.695948 
L 340.989455 299.989154 
L 359.046335 330.979824 
L 377.103215 359.537489 
L 395.160095 320.256262 
L 413.216975 306.651333 
L 431.273855 372.333629 
L 449.330735 393.364536 
L 467.387615 407.702839 
L 485.444495 387.37926 
L 503.501375 345.2794 
L 521.558255 334.354425 
L 539.615135 351.183072 
L 557.672015 397.494488 
L 575.728895 319.971097 
L 593.785775 334.126068 
L 611.842655 326.01309 
L 629.899535 353.694408 
L 647.956415 335.317403 
L 666.013295 308.247805 
L 684.070175 333.552185 
L 702.127055 354.646291 
L 720.183935 417.135505 
L 738.240815 402.19707 
L 756.297695 392.513932 
L 774.354575 415.829968 
L 792.411455 416.851574 
L 810.468335 412.802289 
L 828.525215 399.406124 
L 846.582095 398.051386 
L 864.638975 389.362917 
L 882.695855 408.472693 
L 900.752735 406.574292 
L 918.809615 423.233238 
L 936.866495 425.42614 
L 954.923375 434.193728 
" clip-path="url(#pc24be4ce1e)" style="fill: none; stroke: #e9a942; stroke-width: 1.5; stroke-linecap: square"/>
   </g>
   <g id="line2d_49">
    <path d="M 52.079375 376.97522 
L 70.136255 372.346174 
L 88.193135 377.74877 
L 106.250015 378.668352 
L 124.306895 371.557481 
L 142.363775 364.017808 
L 160.420655 353.624956 
L 178.477535 374.143443 
L 196.534415 385.114198 
L 214.591295 376.639009 
L 232.648175 369.892823 
L 250.705055 378.181249 
L 268.761935 377.052188 
L 322.932575 375.207766 
L 340.989455 372.166806 
L 359.046335 367.062901 
L 377.103215 378.434147 
L 395.160095 385.047443 
L 413.216975 379.954161 
L 431.273855 378.29189 
L 449.330735 383.768368 
L 467.387615 382.346237 
L 485.444495 379.359169 
L 503.501375 385.711123 
L 521.558255 384.262067 
L 539.615135 383.115218 
L 557.672015 377.422225 
L 575.728895 397.573053 
L 593.785775 390.491084 
L 611.842655 395.796219 
L 629.899535 395.501149 
L 647.956415 382.450636 
L 666.013295 390.495415 
L 684.070175 403.283355 
L 702.127055 406.095436 
L 720.183935 361.579543 
L 738.240815 386.585602 
L 756.297695 392.216607 
L 774.354575 400.674143 
L 792.411455 392.603406 
L 810.468335 394.65023 
L 828.525215 392.401976 
L 846.582095 403.566032 
L 864.638975 454.92336 
L 882.695855 485.346405 
L 900.752735 489.666675 
L 918.809615 480.301537 
L 936.866495 477.81556 
L 954.923375 477.850513 
" clip-path="url(#pc24be4ce1e)" style="fill: none; stroke: #9a5689; stroke-width: 1.5; stroke-linecap: square"/>
   </g>
   <g id="line2d_50">
    <path d="M 52.079375 517.459779 
L 70.136255 515.661273 
L 88.193135 515.661862 
L 106.250015 517.436166 
L 124.306895 516.303248 
L 142.363775 514.909634 
L 160.420655 515.122807 
L 178.477535 517.325653 
L 196.534415 516.419792 
L 214.591295 517.111196 
L 232.648175 515.189399 
L 250.705055 517.443761 
L 268.761935 518.431372 
L 322.932575 520.812183 
L 340.989455 522.119242 
L 359.046335 521.14887 
L 377.103215 520.95651 
L 395.160095 523.744855 
L 413.216975 525.650575 
L 431.273855 521.596569 
L 449.330735 519.287426 
L 467.387615 519.45798 
L 485.444495 520.98871 
L 503.501375 522.806648 
L 521.558255 521.792118 
L 539.615135 520.211562 
L 557.672015 518.601234 
L 575.728895 523.685487 
L 593.785775 522.482101 
L 611.842655 523.128447 
L 629.899535 524.294344 
L 647.956415 525.916035 
L 666.013295 527.663463 
L 684.070175 525.49293 
L 702.127055 525.783136 
L 720.183935 524.588523 
L 738.240815 523.869004 
L 756.297695 525.637489 
L 774.354575 524.353657 
L 792.411455 524.245476 
L 810.468335 524.697728 
L 828.525215 525.212379 
L 846.582095 525.827399 
L 864.638975 526.211981 
L 882.695855 523.322294 
L 900.752735 525.65926 
L 918.809615 522.843016 
L 936.866495 521.040114 
L 954.923375 521.556852 
" clip-path="url(#pc24be4ce1e)" style="fill: none; stroke: #be503b; stroke-width: 1.5; stroke-linecap: square"/>
   </g>
   <g id="line2d_51">
    <path d="M 52.079375 271.891347 
L 70.136255 264.705282 
L 88.193135 300.801311 
L 106.250015 286.205475 
L 124.306895 289.391967 
L 142.363775 293.110929 
L 160.420655 270.731429 
L 178.477535 304.679349 
L 196.534415 316.716999 
L 214.591295 306.820766 
L 232.648175 306.797471 
L 250.705055 314.26394 
L 268.761935 316.423441 
L 322.932575 326.950442 
L 340.989455 338.01606 
L 359.046335 331.74617 
L 377.103215 321.922517 
L 395.160095 341.192347 
L 413.216975 349.741664 
L 431.273855 333.393433 
L 449.330735 332.500778 
L 467.387615 322.400581 
L 485.444495 326.93425 
L 503.501375 334.606122 
L 521.558255 329.272213 
L 539.615135 328.888986 
L 557.672015 323.187377 
L 575.728895 344.952338 
L 593.785775 340.323506 
L 611.842655 343.427252 
L 629.899535 346.942021 
L 647.956415 350.162581 
L 666.013295 357.127961 
L 684.070175 348.243 
L 702.127055 350.746958 
L 720.183935 341.793159 
L 738.240815 335.973168 
L 756.297695 337.254427 
L 774.354575 332.875645 
L 792.411455 332.326996 
L 810.468335 330.577338 
L 828.525215 333.896399 
L 846.582095 333.036938 
L 864.638975 331.162486 
L 882.695855 316.964824 
L 900.752735 327.426621 
L 918.809615 314.273124 
L 936.866495 312.182874 
L 954.923375 311.762281 
" clip-path="url(#pc24be4ce1e)" style="fill: none; stroke: #e2321d; stroke-width: 1.5; stroke-linecap: square"/>
   </g>
   <g id="line2d_52">
    <path d="M 52.079375 251.875855 
L 70.136255 247.395838 
L 88.193135 244.582595 
L 106.250015 251.432636 
L 124.306895 236.087591 
L 142.363775 223.290516 
L 160.420655 242.225502 
L 178.477535 227.832634 
L 196.534415 232.995523 
L 214.591295 229.692642 
L 232.648175 203.285558 
L 250.705055 200.360945 
L 268.761935 210.542808 
L 322.932575 215.037105 
L 340.989455 230.054478 
L 359.046335 221.964246 
L 377.103215 192.382531 
L 395.160095 187.174517 
L 413.216975 189.839997 
L 431.273855 166.035423 
L 449.330735 158.528513 
L 467.387615 156.542569 
L 485.444495 162.854639 
L 503.501375 178.737557 
L 521.558255 199.695693 
L 539.615135 204.606715 
L 557.672015 179.096196 
L 575.728895 184.82632 
L 593.785775 191.258987 
L 611.842655 188.908633 
L 629.899535 156.845318 
L 647.956415 181.319097 
L 666.013295 178.43187 
L 684.070175 164.136142 
L 702.127055 132.872343 
L 720.183935 131.57235 
L 738.240815 125.483101 
L 756.297695 127.514753 
L 774.354575 106.001095 
L 792.411455 115.0071 
L 810.468335 122.59074 
L 828.525215 129.921369 
L 846.582095 119.833748 
L 864.638975 93.462429 
L 882.695855 80.396219 
L 900.752735 48.118974 
L 918.809615 64.425274 
L 936.866495 75.429849 
L 954.923375 68.197682 
" clip-path="url(#pc24be4ce1e)" style="fill: none; stroke: #48b585; stroke-width: 6; stroke-linecap: square"/>
   </g>
   <g id="patch_3">
    <path d="M 52.079375 567.74175 
L 52.079375 24.14175 
" style="fill: none; stroke: #ffffff; stroke-linejoin: miter; stroke-linecap: square"/>
   </g>
   <g id="patch_4">
    <path d="M 954.923375 567.74175 
L 954.923375 24.14175 
" style="fill: none; stroke: #ffffff; stroke-linejoin: miter; stroke-linecap: square"/>
   </g>
   <g id="patch_5">
    <path d="M 52.079375 567.74175 
L 954.923375 567.74175 
" style="fill: none; stroke: #ffffff; stroke-linejoin: miter; stroke-linecap: square"/>
   </g>
   <g id="patch_6">
    <path d="M 52.079375 24.14175 
L 954.923375 24.14175 
" style="fill: none; stroke: #ffffff; stroke-linejoin: miter; stroke-linecap: square"/>
   </g>
   <g id="text_23">
    <!-- Enterprise Linux 8 and 9 Instances by Distribution Share (System Age &gt; 1 Week) -->
    <g transform="translate(52.079375 18.14175)scale(0.144 -0.144)">
     <defs>
      <path id="DejaVuSans-45" d="M 628 4666 
L 3578 4666 
L 3578 4134 
L 1259 4134 
L 1259 2753 
L 3481 2753 
L 3481 2222 
L 1259 2222 
L 1259 531 
L 3634 531 
L 3634 0 
L 628 0 
L 628 4666 
z
" transform="scale(0.015625)"/>
      <path id="DejaVuSans-6e" d="M 3513 2113 
L 3513 0 
L 2938 0 
L 2938 2094 
Q 2938 2591 2744 2837 
Q 2550 3084 2163 3084 
Q 1697 3084 1428 2787 
Q 1159 2491 1159 1978 
L 1159 0 
L 581 0 
L 581 3500 
L 1159 3500 
L 1159 2956 
Q 1366 3272 1645 3428 
Q 1925 3584 2291 3584 
Q 2894 3584 3203 3211 
Q 3513 2838 3513 2113 
z
" transform="scale(0.015625)"/>
      <path id="DejaVuSans-70" d="M 1159 525 
L 1159 -1331 
L 581 -1331 
L 581 3500 
L 1159 3500 
L 1159 2969 
Q 1341 3281 1617 3432 
Q 1894 3584 2278 3584 
Q 2916 3584 3314 3078 
Q 3713 2572 3713 1747 
Q 3713 922 3314 415 
Q 2916 -91 2278 -91 
Q 1894 -91 1617 61 
Q 1341 213 1159 525 
z
M 3116 1747 
Q 3116 2381 2855 2742 
Q 2594 3103 2138 3103 
Q 1681 3103 1420 2742 
Q 1159 2381 1159 1747 
Q 1159 1113 1420 752 
Q 1681 391 2138 391 
Q 2594 391 2855 752 
Q 3116 1113 3116 1747 
z
" transform="scale(0.015625)"/>
      <path id="DejaVuSans-69" d="M 603 3500 
L 1178 3500 
L 1178 0 
L 603 0 
L 603 3500 
z
M 603 4863 
L 1178 4863 
L 1178 4134 
L 603 4134 
L 603 4863 
z
" transform="scale(0.015625)"/>
      <path id="DejaVuSans-73" d="M 2834 3397 
L 2834 2853 
Q 2591 2978 2328 3040 
Q 2066 3103 1784 3103 
Q 1356 3103 1142 2972 
Q 928 2841 928 2578 
Q 928 2378 1081 2264 
Q 1234 2150 1697 2047 
L 1894 2003 
Q 2506 1872 2764 1633 
Q 3022 1394 3022 966 
Q 3022 478 2636 193 
Q 2250 -91 1575 -91 
Q 1294 -91 989 -36 
Q 684 19 347 128 
L 347 722 
Q 666 556 975 473 
Q 1284 391 1588 391 
Q 1994 391 2212 530 
Q 2431 669 2431 922 
Q 2431 1156 2273 1281 
Q 2116 1406 1581 1522 
L 1381 1569 
Q 847 1681 609 1914 
Q 372 2147 372 2553 
Q 372 3047 722 3315 
Q 1072 3584 1716 3584 
Q 2034 3584 2315 3537 
Q 2597 3491 2834 3397 
z
" transform="scale(0.015625)"/>
      <path id="DejaVuSans-20" transform="scale(0.015625)"/>
      <path id="DejaVuSans-4c" d="M 628 4666 
L 1259 4666 
L 1259 531 
L 3531 531 
L 3531 0 
L 628 0 
L 628 4666 
z
" transform="scale(0.015625)"/>
      <path id="DejaVuSans-75" d="M 544 1381 
L 544 3500 
L 1119 3500 
L 1119 1403 
Q 1119 906 1312 657 
Q 1506 409 1894 409 
Q 2359 409 2629 706 
Q 2900 1003 2900 1516 
L 2900 3500 
L 3475 3500 
L 3475 0 
L 2900 0 
L 2900 538 
Q 2691 219 2414 64 
Q 2138 -91 1772 -91 
Q 1169 -91 856 284 
Q 544 659 544 1381 
z
M 1991 3584 
L 1991 3584 
z
" transform="scale(0.015625)"/>
      <path id="DejaVuSans-78" d="M 3513 3500 
L 2247 1797 
L 3578 0 
L 2900 0 
L 1881 1375 
L 863 0 
L 184 0 
L 1544 1831 
L 300 3500 
L 978 3500 
L 1906 2253 
L 2834 3500 
L 3513 3500 
z
" transform="scale(0.015625)"/>
      <path id="DejaVuSans-64" d="M 2906 2969 
L 2906 4863 
L 3481 4863 
L 3481 0 
L 2906 0 
L 2906 525 
Q 2725 213 2448 61 
Q 2172 -91 1784 -91 
Q 1150 -91 751 415 
Q 353 922 353 1747 
Q 353 2572 751 3078 
Q 1150 3584 1784 3584 
Q 2172 3584 2448 3432 
Q 2725 3281 2906 2969 
z
M 947 1747 
Q 947 1113 1208 752 
Q 1469 391 1925 391 
Q 2381 391 2643 752 
Q 2906 1113 2906 1747 
Q 2906 2381 2643 2742 
Q 2381 3103 1925 3103 
Q 1469 3103 1208 2742 
Q 947 2381 947 1747 
z
" transform="scale(0.015625)"/>
      <path id="DejaVuSans-49" d="M 628 4666 
L 1259 4666 
L 1259 0 
L 628 0 
L 628 4666 
z
" transform="scale(0.015625)"/>
      <path id="DejaVuSans-63" d="M 3122 3366 
L 3122 2828 
Q 2878 2963 2633 3030 
Q 2388 3097 2138 3097 
Q 1578 3097 1268 2742 
Q 959 2388 959 1747 
Q 959 1106 1268 751 
Q 1578 397 2138 397 
Q 2388 397 2633 464 
Q 2878 531 3122 666 
L 3122 134 
Q 2881 22 2623 -34 
Q 2366 -91 2075 -91 
Q 1284 -91 818 406 
Q 353 903 353 1747 
Q 353 2603 823 3093 
Q 1294 3584 2113 3584 
Q 2378 3584 2631 3529 
Q 2884 3475 3122 3366 
z
" transform="scale(0.015625)"/>
      <path id="DejaVuSans-62" d="M 3116 1747 
Q 3116 2381 2855 2742 
Q 2594 3103 2138 3103 
Q 1681 3103 1420 2742 
Q 1159 2381 1159 1747 
Q 1159 1113 1420 752 
Q 1681 391 2138 391 
Q 2594 391 2855 752 
Q 3116 1113 3116 1747 
z
M 1159 2969 
Q 1341 3281 1617 3432 
Q 1894 3584 2278 3584 
Q 2916 3584 3314 3078 
Q 3713 2572 3713 1747 
Q 3713 922 3314 415 
Q 2916 -91 2278 -91 
Q 1894 -91 1617 61 
Q 1341 213 1159 525 
L 1159 0 
L 581 0 
L 581 4863 
L 1159 4863 
L 1159 2969 
z
" transform="scale(0.015625)"/>
      <path id="DejaVuSans-79" d="M 2059 -325 
Q 1816 -950 1584 -1140 
Q 1353 -1331 966 -1331 
L 506 -1331 
L 506 -850 
L 844 -850 
Q 1081 -850 1212 -737 
Q 1344 -625 1503 -206 
L 1606 56 
L 191 3500 
L 800 3500 
L 1894 763 
L 2988 3500 
L 3597 3500 
L 2059 -325 
z
" transform="scale(0.015625)"/>
      <path id="DejaVuSans-6f" d="M 1959 3097 
Q 1497 3097 1228 2736 
Q 959 2375 959 1747 
Q 959 1119 1226 758 
Q 1494 397 1959 397 
Q 2419 397 2687 759 
Q 2956 1122 2956 1747 
Q 2956 2369 2687 2733 
Q 2419 3097 1959 3097 
z
M 1959 3584 
Q 2709 3584 3137 3096 
Q 3566 2609 3566 1747 
Q 3566 888 3137 398 
Q 2709 -91 1959 -91 
Q 1206 -91 779 398 
Q 353 888 353 1747 
Q 353 2609 779 3096 
Q 1206 3584 1959 3584 
z
" transform="scale(0.015625)"/>
      <path id="DejaVuSans-28" d="M 1984 4856 
Q 1566 4138 1362 3434 
Q 1159 2731 1159 2009 
Q 1159 1288 1364 580 
Q 1569 -128 1984 -844 
L 1484 -844 
Q 1016 -109 783 600 
Q 550 1309 550 2009 
Q 550 2706 781 3412 
Q 1013 4119 1484 4856 
L 1984 4856 
z
" transform="scale(0.015625)"/>
      <path id="DejaVuSans-6d" d="M 3328 2828 
Q 3544 3216 3844 3400 
Q 4144 3584 4550 3584 
Q 5097 3584 5394 3201 
Q 5691 2819 5691 2113 
L 5691 0 
L 5113 0 
L 5113 2094 
Q 5113 2597 4934 2840 
Q 4756 3084 4391 3084 
Q 3944 3084 3684 2787 
Q 3425 2491 3425 1978 
L 3425 0 
L 2847 0 
L 2847 2094 
Q 2847 2600 2669 2842 
Q 2491 3084 2119 3084 
Q 1678 3084 1418 2786 
Q 1159 2488 1159 1978 
L 1159 0 
L 581 0 
L 581 3500 
L 1159 3500 
L 1159 2956 
Q 1356 3278 1631 3431 
Q 1906 3584 2284 3584 
Q 2666 3584 2933 3390 
Q 3200 3197 3328 2828 
z
" transform="scale(0.015625)"/>
      <path id="DejaVuSans-41" d="M 2188 4044 
L 1331 1722 
L 3047 1722 
L 2188 4044 
z
M 1831 4666 
L 2547 4666 
L 4325 0 
L 3669 0 
L 3244 1197 
L 1141 1197 
L 716 0 
L 50 0 
L 1831 4666 
z
" transform="scale(0.015625)"/>
      <path id="DejaVuSans-67" d="M 2906 1791 
Q 2906 2416 2648 2759 
Q 2391 3103 1925 3103 
Q 1463 3103 1205 2759 
Q 947 2416 947 1791 
Q 947 1169 1205 825 
Q 1463 481 1925 481 
Q 2391 481 2648 825 
Q 2906 1169 2906 1791 
z
M 3481 434 
Q 3481 -459 3084 -895 
Q 2688 -1331 1869 -1331 
Q 1566 -1331 1297 -1286 
Q 1028 -1241 775 -1147 
L 775 -588 
Q 1028 -725 1275 -790 
Q 1522 -856 1778 -856 
Q 2344 -856 2625 -561 
Q 2906 -266 2906 331 
L 2906 616 
Q 2728 306 2450 153 
Q 2172 0 1784 0 
Q 1141 0 747 490 
Q 353 981 353 1791 
Q 353 2603 747 3093 
Q 1141 3584 1784 3584 
Q 2172 3584 2450 3431 
Q 2728 3278 2906 2969 
L 2906 3500 
L 3481 3500 
L 3481 434 
z
" transform="scale(0.015625)"/>
      <path id="DejaVuSans-3e" d="M 678 3150 
L 678 3719 
L 4684 2266 
L 4684 1747 
L 678 294 
L 678 863 
L 3897 2003 
L 678 3150 
z
" transform="scale(0.015625)"/>
      <path id="DejaVuSans-57" d="M 213 4666 
L 850 4666 
L 1831 722 
L 2809 4666 
L 3519 4666 
L 4500 722 
L 5478 4666 
L 6119 4666 
L 4947 0 
L 4153 0 
L 3169 4050 
L 2175 0 
L 1381 0 
L 213 4666 
z
" transform="scale(0.015625)"/>
      <path id="DejaVuSans-6b" d="M 581 4863 
L 1159 4863 
L 1159 1991 
L 2875 3500 
L 3609 3500 
L 1753 1863 
L 3688 0 
L 2938 0 
L 1159 1709 
L 1159 0 
L 581 0 
L 581 4863 
z
" transform="scale(0.015625)"/>
      <path id="DejaVuSans-29" d="M 513 4856 
L 1013 4856 
Q 1481 4119 1714 3412 
Q 1947 2706 1947 2009 
Q 1947 1309 1714 600 
Q 1481 -109 1013 -844 
L 513 -844 
Q 928 -128 1133 580 
Q 1338 1288 1338 2009 
Q 1338 2731 1133 3434 
Q 928 4138 513 4856 
z
" transform="scale(0.015625)"/>
     </defs>
     <use xlink:href="#DejaVuSans-45"/>
     <use xlink:href="#DejaVuSans-6e" x="63.183594"/>
     <use xlink:href="#DejaVuSans-74" x="126.5625"/>
     <use xlink:href="#DejaVuSans-65" x="165.771484"/>
     <use xlink:href="#DejaVuSans-72" x="227.294922"/>
     <use xlink:href="#DejaVuSans-70" x="268.408203"/>
     <use xlink:href="#DejaVuSans-72" x="331.884766"/>
     <use xlink:href="#DejaVuSans-69" x="372.998047"/>
     <use xlink:href="#DejaVuSans-73" x="400.78125"/>
     <use xlink:href="#DejaVuSans-65" x="452.880859"/>
     <use xlink:href="#DejaVuSans-20" x="514.404297"/>
     <use xlink:href="#DejaVuSans-4c" x="546.191406"/>
     <use xlink:href="#DejaVuSans-69" x="601.904297"/>
     <use xlink:href="#DejaVuSans-6e" x="629.6875"/>
     <use xlink:href="#DejaVuSans-75" x="693.066406"/>
     <use xlink:href="#DejaVuSans-78" x="756.445312"/>
     <use xlink:href="#DejaVuSans-20" x="815.625"/>
     <use xlink:href="#DejaVuSans-38" x="847.412109"/>
     <use xlink:href="#DejaVuSans-20" x="911.035156"/>
     <use xlink:href="#DejaVuSans-61" x="942.822266"/>
     <use xlink:href="#DejaVuSans-6e" x="1004.101562"/>
     <use xlink:href="#DejaVuSans-64" x="1067.480469"/>
     <use xlink:href="#DejaVuSans-20" x="1130.957031"/>
     <use xlink:href="#DejaVuSans-39" x="1162.744141"/>
     <use xlink:href="#DejaVuSans-20" x="1226.367188"/>
     <use xlink:href="#DejaVuSans-49" x="1258.154297"/>
     <use xlink:href="#DejaVuSans-6e" x="1287.646484"/>
     <use xlink:href="#DejaVuSans-73" x="1351.025391"/>
     <use xlink:href="#DejaVuSans-74" x="1403.125"/>
     <use xlink:href="#DejaVuSans-61" x="1442.333984"/>
     <use xlink:href="#DejaVuSans-6e" x="1503.613281"/>
     <use xlink:href="#DejaVuSans-63" x="1566.992188"/>
     <use xlink:href="#DejaVuSans-65" x="1621.972656"/>
     <use xlink:href="#DejaVuSans-73" x="1683.496094"/>
     <use xlink:href="#DejaVuSans-20" x="1735.595703"/>
     <use xlink:href="#DejaVuSans-62" x="1767.382812"/>
     <use xlink:href="#DejaVuSans-79" x="1830.859375"/>
     <use xlink:href="#DejaVuSans-20" x="1890.039062"/>
     <use xlink:href="#DejaVuSans-44" x="1921.826172"/>
     <use xlink:href="#DejaVuSans-69" x="1998.828125"/>
     <use xlink:href="#DejaVuSans-73" x="2026.611328"/>
     <use xlink:href="#DejaVuSans-74" x="2078.710938"/>
     <use xlink:href="#DejaVuSans-72" x="2117.919922"/>
     <use xlink:href="#DejaVuSans-69" x="2159.033203"/>
     <use xlink:href="#DejaVuSans-62" x="2186.816406"/>
     <use xlink:href="#DejaVuSans-75" x="2250.292969"/>
     <use xlink:href="#DejaVuSans-74" x="2313.671875"/>
     <use xlink:href="#DejaVuSans-69" x="2352.880859"/>
     <use xlink:href="#DejaVuSans-6f" x="2380.664062"/>
     <use xlink:href="#DejaVuSans-6e" x="2441.845703"/>
     <use xlink:href="#DejaVuSans-20" x="2505.224609"/>
     <use xlink:href="#DejaVuSans-53" x="2537.011719"/>
     <use xlink:href="#DejaVuSans-68" x="2600.488281"/>
     <use xlink:href="#DejaVuSans-61" x="2663.867188"/>
     <use xlink:href="#DejaVuSans-72" x="2725.146484"/>
     <use xlink:href="#DejaVuSans-65" x="2764.009766"/>
     <use xlink:href="#DejaVuSans-20" x="2825.533203"/>
     <use xlink:href="#DejaVuSans-28" x="2857.320312"/>
     <use xlink:href="#DejaVuSans-53" x="2896.333984"/>
     <use xlink:href="#DejaVuSans-79" x="2959.810547"/>
     <use xlink:href="#DejaVuSans-73" x="3018.990234"/>
     <use xlink:href="#DejaVuSans-74" x="3071.089844"/>
     <use xlink:href="#DejaVuSans-65" x="3110.298828"/>
     <use xlink:href="#DejaVuSans-6d" x="3171.822266"/>
     <use xlink:href="#DejaVuSans-20" x="3269.234375"/>
     <use xlink:href="#DejaVuSans-41" x="3301.021484"/>
     <use xlink:href="#DejaVuSans-67" x="3369.429688"/>
     <use xlink:href="#DejaVuSans-65" x="3432.90625"/>
     <use xlink:href="#DejaVuSans-20" x="3494.429688"/>
     <use xlink:href="#DejaVuSans-3e" x="3526.216797"/>
     <use xlink:href="#DejaVuSans-20" x="3610.005859"/>
     <use xlink:href="#DejaVuSans-31" x="3641.792969"/>
     <use xlink:href="#DejaVuSans-20" x="3705.416016"/>
     <use xlink:href="#DejaVuSans-57" x="3737.203125"/>
     <use xlink:href="#DejaVuSans-65" x="3830.205078"/>
     <use xlink:href="#DejaVuSans-65" x="3891.728516"/>
     <use xlink:href="#DejaVuSans-6b" x="3953.251953"/>
     <use xlink:href="#DejaVuSans-29" x="4011.162109"/>
    </g>
   </g>
   <g id="text_24">
    <!-- 2024-07-25 11:54 UTC -->
    <g transform="translate(792.041375 18.14175)scale(0.144 -0.144)">
     <defs>
      <path id="DejaVuSans-37" d="M 525 4666 
L 3525 4666 
L 3525 4397 
L 1831 0 
L 1172 0 
L 2766 4134 
L 525 4134 
L 525 4666 
z
" transform="scale(0.015625)"/>
      <path id="DejaVuSans-3a" d="M 750 794 
L 1409 794 
L 1409 0 
L 750 0 
L 750 794 
z
M 750 3309 
L 1409 3309 
L 1409 2516 
L 750 2516 
L 750 3309 
z
" transform="scale(0.015625)"/>
      <path id="DejaVuSans-55" d="M 556 4666 
L 1191 4666 
L 1191 1831 
Q 1191 1081 1462 751 
Q 1734 422 2344 422 
Q 2950 422 3222 751 
Q 3494 1081 3494 1831 
L 3494 4666 
L 4128 4666 
L 4128 1753 
Q 4128 841 3676 375 
Q 3225 -91 2344 -91 
Q 1459 -91 1007 375 
Q 556 841 556 1753 
L 556 4666 
z
" transform="scale(0.015625)"/>
      <path id="DejaVuSans-54" d="M -19 4666 
L 3928 4666 
L 3928 4134 
L 2272 4134 
L 2272 0 
L 1638 0 
L 1638 4134 
L -19 4134 
L -19 4666 
z
" transform="scale(0.015625)"/>
      <path id="DejaVuSans-43" d="M 4122 4306 
L 4122 3641 
Q 3803 3938 3442 4084 
Q 3081 4231 2675 4231 
Q 1875 4231 1450 3742 
Q 1025 3253 1025 2328 
Q 1025 1406 1450 917 
Q 1875 428 2675 428 
Q 3081 428 3442 575 
Q 3803 722 4122 1019 
L 4122 359 
Q 3791 134 3420 21 
Q 3050 -91 2638 -91 
Q 1578 -91 968 557 
Q 359 1206 359 2328 
Q 359 3453 968 4101 
Q 1578 4750 2638 4750 
Q 3056 4750 3426 4639 
Q 3797 4528 4122 4306 
z
" transform="scale(0.015625)"/>
     </defs>
     <use xlink:href="#DejaVuSans-32"/>
     <use xlink:href="#DejaVuSans-30" x="63.623047"/>
     <use xlink:href="#DejaVuSans-32" x="127.246094"/>
     <use xlink:href="#DejaVuSans-34" x="190.869141"/>
     <use xlink:href="#DejaVuSans-2d" x="254.492188"/>
     <use xlink:href="#DejaVuSans-30" x="290.576172"/>
     <use xlink:href="#DejaVuSans-37" x="354.199219"/>
     <use xlink:href="#DejaVuSans-2d" x="417.822266"/>
     <use xlink:href="#DejaVuSans-32" x="453.90625"/>
     <use xlink:href="#DejaVuSans-35" x="517.529297"/>
     <use xlink:href="#DejaVuSans-20" x="581.152344"/>
     <use xlink:href="#DejaVuSans-31" x="612.939453"/>
     <use xlink:href="#DejaVuSans-31" x="676.5625"/>
     <use xlink:href="#DejaVuSans-3a" x="740.185547"/>
     <use xlink:href="#DejaVuSans-35" x="773.876953"/>
     <use xlink:href="#DejaVuSans-34" x="837.5"/>
     <use xlink:href="#DejaVuSans-20" x="901.123047"/>
     <use xlink:href="#DejaVuSans-55" x="932.910156"/>
     <use xlink:href="#DejaVuSans-54" x="1006.103516"/>
     <use xlink:href="#DejaVuSans-43" x="1061.3125"/>
    </g>
   </g>
   <g id="legend_1">
    <g id="patch_7">
     <path d="M 59.079375 134.888625 
L 168.048125 134.888625 
Q 170.048125 134.888625 170.048125 132.888625 
L 170.048125 31.14175 
Q 170.048125 29.14175 168.048125 29.14175 
L 59.079375 29.14175 
Q 57.079375 29.14175 57.079375 31.14175 
L 57.079375 132.888625 
Q 57.079375 134.888625 59.079375 134.888625 
z
" style="fill: #e5e5e5; opacity: 0.8; stroke: #cccccc; stroke-width: 0.5; stroke-linejoin: miter"/>
    </g>
    <g id="text_25">
     <!-- Distribution -->
     <g transform="translate(84.395 40.740187)scale(0.1 -0.1)">
      <use xlink:href="#DejaVuSans-44"/>
      <use xlink:href="#DejaVuSans-69" x="77.001953"/>
      <use xlink:href="#DejaVuSans-73" x="104.785156"/>
      <use xlink:href="#DejaVuSans-74" x="156.884766"/>
      <use xlink:href="#DejaVuSans-72" x="196.09375"/>
      <use xlink:href="#DejaVuSans-69" x="237.207031"/>
      <use xlink:href="#DejaVuSans-62" x="264.990234"/>
      <use xlink:href="#DejaVuSans-75" x="328.466797"/>
      <use xlink:href="#DejaVuSans-74" x="391.845703"/>
      <use xlink:href="#DejaVuSans-69" x="431.054688"/>
      <use xlink:href="#DejaVuSans-6f" x="458.837891"/>
      <use xlink:href="#DejaVuSans-6e" x="520.019531"/>
     </g>
    </g>
    <g id="line2d_53">
     <path d="M 61.079375 51.918312 
L 71.079375 51.918312 
L 81.079375 51.918312 
" style="fill: none; stroke: #4ac1fa; stroke-width: 1.5; stroke-linecap: square"/>
    </g>
    <g id="text_26">
     <!-- AlmaLinux -->
     <g transform="translate(89.079375 55.418312)scale(0.1 -0.1)">
      <defs>
       <path id="DejaVuSans-6c" d="M 603 4863 
L 1178 4863 
L 1178 0 
L 603 0 
L 603 4863 
z
" transform="scale(0.015625)"/>
      </defs>
      <use xlink:href="#DejaVuSans-41"/>
      <use xlink:href="#DejaVuSans-6c" x="68.408203"/>
      <use xlink:href="#DejaVuSans-6d" x="96.191406"/>
      <use xlink:href="#DejaVuSans-61" x="193.603516"/>
      <use xlink:href="#DejaVuSans-4c" x="254.882812"/>
      <use xlink:href="#DejaVuSans-69" x="310.595703"/>
      <use xlink:href="#DejaVuSans-6e" x="338.378906"/>
      <use xlink:href="#DejaVuSans-75" x="401.757812"/>
      <use xlink:href="#DejaVuSans-78" x="465.136719"/>
     </g>
    </g>
    <g id="line2d_54">
     <path d="M 61.079375 66.596437 
L 71.079375 66.596437 
L 81.079375 66.596437 
" style="fill: none; stroke: #e9a942; stroke-width: 1.5; stroke-linecap: square"/>
    </g>
    <g id="text_27">
     <!-- CentOS Legacy -->
     <g transform="translate(89.079375 70.096437)scale(0.1 -0.1)">
      <defs>
       <path id="DejaVuSans-4f" d="M 2522 4238 
Q 1834 4238 1429 3725 
Q 1025 3213 1025 2328 
Q 1025 1447 1429 934 
Q 1834 422 2522 422 
Q 3209 422 3611 934 
Q 4013 1447 4013 2328 
Q 4013 3213 3611 3725 
Q 3209 4238 2522 4238 
z
M 2522 4750 
Q 3503 4750 4090 4092 
Q 4678 3434 4678 2328 
Q 4678 1225 4090 567 
Q 3503 -91 2522 -91 
Q 1538 -91 948 565 
Q 359 1222 359 2328 
Q 359 3434 948 4092 
Q 1538 4750 2522 4750 
z
" transform="scale(0.015625)"/>
      </defs>
      <use xlink:href="#DejaVuSans-43"/>
      <use xlink:href="#DejaVuSans-65" x="69.824219"/>
      <use xlink:href="#DejaVuSans-6e" x="131.347656"/>
      <use xlink:href="#DejaVuSans-74" x="194.726562"/>
      <use xlink:href="#DejaVuSans-4f" x="233.935547"/>
      <use xlink:href="#DejaVuSans-53" x="312.646484"/>
      <use xlink:href="#DejaVuSans-20" x="376.123047"/>
      <use xlink:href="#DejaVuSans-4c" x="407.910156"/>
      <use xlink:href="#DejaVuSans-65" x="461.873047"/>
      <use xlink:href="#DejaVuSans-67" x="523.396484"/>
      <use xlink:href="#DejaVuSans-61" x="586.873047"/>
      <use xlink:href="#DejaVuSans-63" x="648.152344"/>
      <use xlink:href="#DejaVuSans-79" x="703.132812"/>
     </g>
    </g>
    <g id="line2d_55">
     <path d="M 61.079375 81.274563 
L 71.079375 81.274563 
L 81.079375 81.274563 
" style="fill: none; stroke: #9a5689; stroke-width: 1.5; stroke-linecap: square"/>
    </g>
    <g id="text_28">
     <!-- CentOS Stream -->
     <g transform="translate(89.079375 84.774563)scale(0.1 -0.1)">
      <use xlink:href="#DejaVuSans-43"/>
      <use xlink:href="#DejaVuSans-65" x="69.824219"/>
      <use xlink:href="#DejaVuSans-6e" x="131.347656"/>
      <use xlink:href="#DejaVuSans-74" x="194.726562"/>
      <use xlink:href="#DejaVuSans-4f" x="233.935547"/>
      <use xlink:href="#DejaVuSans-53" x="312.646484"/>
      <use xlink:href="#DejaVuSans-20" x="376.123047"/>
      <use xlink:href="#DejaVuSans-53" x="407.910156"/>
      <use xlink:href="#DejaVuSans-74" x="471.386719"/>
      <use xlink:href="#DejaVuSans-72" x="510.595703"/>
      <use xlink:href="#DejaVuSans-65" x="549.458984"/>
      <use xlink:href="#DejaVuSans-61" x="610.982422"/>
      <use xlink:href="#DejaVuSans-6d" x="672.261719"/>
     </g>
    </g>
    <g id="line2d_56">
     <path d="M 61.079375 95.952687 
L 71.079375 95.952687 
L 81.079375 95.952687 
" style="fill: none; stroke: #be503b; stroke-width: 1.5; stroke-linecap: square"/>
    </g>
    <g id="text_29">
     <!-- Oracle -->
     <g transform="translate(89.079375 99.452687)scale(0.1 -0.1)">
      <use xlink:href="#DejaVuSans-4f"/>
      <use xlink:href="#DejaVuSans-72" x="78.710938"/>
      <use xlink:href="#DejaVuSans-61" x="119.824219"/>
      <use xlink:href="#DejaVuSans-63" x="181.103516"/>
      <use xlink:href="#DejaVuSans-6c" x="236.083984"/>
      <use xlink:href="#DejaVuSans-65" x="263.867188"/>
     </g>
    </g>
    <g id="line2d_57">
     <path d="M 61.079375 110.630812 
L 71.079375 110.630812 
L 81.079375 110.630812 
" style="fill: none; stroke: #e2321d; stroke-width: 1.5; stroke-linecap: square"/>
    </g>
    <g id="text_30">
     <!-- RHEL -->
     <g transform="translate(89.079375 114.130812)scale(0.1 -0.1)">
      <defs>
       <path id="DejaVuSans-52" d="M 2841 2188 
Q 3044 2119 3236 1894 
Q 3428 1669 3622 1275 
L 4263 0 
L 3584 0 
L 2988 1197 
Q 2756 1666 2539 1819 
Q 2322 1972 1947 1972 
L 1259 1972 
L 1259 0 
L 628 0 
L 628 4666 
L 2053 4666 
Q 2853 4666 3247 4331 
Q 3641 3997 3641 3322 
Q 3641 2881 3436 2590 
Q 3231 2300 2841 2188 
z
M 1259 4147 
L 1259 2491 
L 2053 2491 
Q 2509 2491 2742 2702 
Q 2975 2913 2975 3322 
Q 2975 3731 2742 3939 
Q 2509 4147 2053 4147 
L 1259 4147 
z
" transform="scale(0.015625)"/>
       <path id="DejaVuSans-48" d="M 628 4666 
L 1259 4666 
L 1259 2753 
L 3553 2753 
L 3553 4666 
L 4184 4666 
L 4184 0 
L 3553 0 
L 3553 2222 
L 1259 2222 
L 1259 0 
L 628 0 
L 628 4666 
z
" transform="scale(0.015625)"/>
      </defs>
      <use xlink:href="#DejaVuSans-52"/>
      <use xlink:href="#DejaVuSans-48" x="69.482422"/>
      <use xlink:href="#DejaVuSans-45" x="144.677734"/>
      <use xlink:href="#DejaVuSans-4c" x="207.861328"/>
     </g>
    </g>
    <g id="line2d_58">
     <path d="M 61.079375 125.308937 
L 71.079375 125.308937 
L 81.079375 125.308937 
" style="fill: none; stroke: #48b585; stroke-width: 6; stroke-linecap: square"/>
    </g>
    <g id="text_31">
     <!-- Rocky Linux -->
     <g transform="translate(89.079375 128.808937)scale(0.1 -0.1)">
      <use xlink:href="#DejaVuSans-52"/>
      <use xlink:href="#DejaVuSans-6f" x="64.982422"/>
      <use xlink:href="#DejaVuSans-63" x="126.164062"/>
      <use xlink:href="#DejaVuSans-6b" x="181.144531"/>
      <use xlink:href="#DejaVuSans-79" x="235.429688"/>
      <use xlink:href="#DejaVuSans-20" x="294.609375"/>
      <use xlink:href="#DejaVuSans-4c" x="326.396484"/>
      <use xlink:href="#DejaVuSans-69" x="382.109375"/>
      <use xlink:href="#DejaVuSans-6e" x="409.892578"/>
      <use xlink:href="#DejaVuSans-75" x="473.271484"/>
      <use xlink:href="#DejaVuSans-78" x="536.650391"/>
     </g>
    </g>
   </g>
  </g>
 </g>
 <defs>
  <clipPath id="pc24be4ce1e">
   <rect x="52.079375" y="24.14175" width="902.844" height="543.6"/>
  </clipPath>
 </defs>
</svg>
