<?xml version="1.0" encoding="utf-8" standalone="no"?>
<!DOCTYPE svg PUBLIC "-//W3C//DTD SVG 1.1//EN"
  "http://www.w3.org/Graphics/SVG/1.1/DTD/svg11.dtd">
<svg xmlns:xlink="http://www.w3.org/1999/xlink" width="964.735875pt" height="633.943878pt" viewBox="0 0 964.735875 633.943878" xmlns="http://www.w3.org/2000/svg" version="1.1">
 <metadata>
  <rdf:RDF xmlns:dc="http://purl.org/dc/elements/1.1/" xmlns:cc="http://creativecommons.org/ns#" xmlns:rdf="http://www.w3.org/1999/02/22-rdf-syntax-ns#">
   <cc:Work>
    <dc:type rdf:resource="http://purl.org/dc/dcmitype/StillImage"/>
    <dc:date>2024-07-11T11:55:11.202770</dc:date>
    <dc:format>image/svg+xml</dc:format>
    <dc:creator>
     <cc:Agent>
      <dc:title>Matplotlib v3.5.1, https://matplotlib.org/</dc:title>
     </cc:Agent>
    </dc:creator>
   </cc:Work>
  </rdf:RDF>
 </metadata>
 <defs>
  <style type="text/css">*{stroke-linejoin: round; stroke-linecap: butt}</style>
 </defs>
 <g id="figure_1">
  <g id="patch_1">
   <path d="M 0 633.943878 
L 964.735875 633.943878 
L 964.735875 0 
L 0 0 
z
" style="fill: #ffffff"/>
  </g>
  <g id="axes_1">
   <g id="patch_2">
    <path d="M 54.691875 567.74175 
L 957.535875 567.74175 
L 957.535875 24.14175 
L 54.691875 24.14175 
z
" style="fill: #e5e5e5"/>
   </g>
   <g id="matplotlib.axis_1">
    <g id="xtick_1">
     <g id="line2d_1">
      <path d="M 98.544298 567.74175 
L 98.544298 24.14175 
" clip-path="url(#p1501eba253)" style="fill: none; stroke: #ffffff; stroke-width: 0.8; stroke-linecap: square"/>
     </g>
     <g id="line2d_2">
      <defs>
       <path id="m74cfc532f7" d="M 0 0 
L 0 3.5 
" style="stroke: #555555; stroke-width: 0.8"/>
      </defs>
      <g>
       <use xlink:href="#m74cfc532f7" x="98.544298" y="567.74175" style="fill: #555555; stroke: #555555; stroke-width: 0.8"/>
      </g>
     </g>
     <g id="text_1">
      <!-- 2023-08 -->
      <g style="fill: #555555" transform="translate(85.723016 609.659567)rotate(-45)scale(0.1 -0.1)">
       <defs>
        <path id="DejaVuSans-32" d="M 1228 531 
L 3431 531 
L 3431 0 
L 469 0 
L 469 531 
Q 828 903 1448 1529 
Q 2069 2156 2228 2338 
Q 2531 2678 2651 2914 
Q 2772 3150 2772 3378 
Q 2772 3750 2511 3984 
Q 2250 4219 1831 4219 
Q 1534 4219 1204 4116 
Q 875 4013 500 3803 
L 500 4441 
Q 881 4594 1212 4672 
Q 1544 4750 1819 4750 
Q 2544 4750 2975 4387 
Q 3406 4025 3406 3419 
Q 3406 3131 3298 2873 
Q 3191 2616 2906 2266 
Q 2828 2175 2409 1742 
Q 1991 1309 1228 531 
z
" transform="scale(0.015625)"/>
        <path id="DejaVuSans-30" d="M 2034 4250 
Q 1547 4250 1301 3770 
Q 1056 3291 1056 2328 
Q 1056 1369 1301 889 
Q 1547 409 2034 409 
Q 2525 409 2770 889 
Q 3016 1369 3016 2328 
Q 3016 3291 2770 3770 
Q 2525 4250 2034 4250 
z
M 2034 4750 
Q 2819 4750 3233 4129 
Q 3647 3509 3647 2328 
Q 3647 1150 3233 529 
Q 2819 -91 2034 -91 
Q 1250 -91 836 529 
Q 422 1150 422 2328 
Q 422 3509 836 4129 
Q 1250 4750 2034 4750 
z
" transform="scale(0.015625)"/>
        <path id="DejaVuSans-33" d="M 2597 2516 
Q 3050 2419 3304 2112 
Q 3559 1806 3559 1356 
Q 3559 666 3084 287 
Q 2609 -91 1734 -91 
Q 1441 -91 1130 -33 
Q 819 25 488 141 
L 488 750 
Q 750 597 1062 519 
Q 1375 441 1716 441 
Q 2309 441 2620 675 
Q 2931 909 2931 1356 
Q 2931 1769 2642 2001 
Q 2353 2234 1838 2234 
L 1294 2234 
L 1294 2753 
L 1863 2753 
Q 2328 2753 2575 2939 
Q 2822 3125 2822 3475 
Q 2822 3834 2567 4026 
Q 2313 4219 1838 4219 
Q 1578 4219 1281 4162 
Q 984 4106 628 3988 
L 628 4550 
Q 988 4650 1302 4700 
Q 1616 4750 1894 4750 
Q 2613 4750 3031 4423 
Q 3450 4097 3450 3541 
Q 3450 3153 3228 2886 
Q 3006 2619 2597 2516 
z
" transform="scale(0.015625)"/>
        <path id="DejaVuSans-2d" d="M 313 2009 
L 1997 2009 
L 1997 1497 
L 313 1497 
L 313 2009 
z
" transform="scale(0.015625)"/>
        <path id="DejaVuSans-38" d="M 2034 2216 
Q 1584 2216 1326 1975 
Q 1069 1734 1069 1313 
Q 1069 891 1326 650 
Q 1584 409 2034 409 
Q 2484 409 2743 651 
Q 3003 894 3003 1313 
Q 3003 1734 2745 1975 
Q 2488 2216 2034 2216 
z
M 1403 2484 
Q 997 2584 770 2862 
Q 544 3141 544 3541 
Q 544 4100 942 4425 
Q 1341 4750 2034 4750 
Q 2731 4750 3128 4425 
Q 3525 4100 3525 3541 
Q 3525 3141 3298 2862 
Q 3072 2584 2669 2484 
Q 3125 2378 3379 2068 
Q 3634 1759 3634 1313 
Q 3634 634 3220 271 
Q 2806 -91 2034 -91 
Q 1263 -91 848 271 
Q 434 634 434 1313 
Q 434 1759 690 2068 
Q 947 2378 1403 2484 
z
M 1172 3481 
Q 1172 3119 1398 2916 
Q 1625 2713 2034 2713 
Q 2441 2713 2670 2916 
Q 2900 3119 2900 3481 
Q 2900 3844 2670 4047 
Q 2441 4250 2034 4250 
Q 1625 4250 1398 4047 
Q 1172 3844 1172 3481 
z
" transform="scale(0.015625)"/>
       </defs>
       <use xlink:href="#DejaVuSans-32"/>
       <use xlink:href="#DejaVuSans-30" x="63.623047"/>
       <use xlink:href="#DejaVuSans-32" x="127.246094"/>
       <use xlink:href="#DejaVuSans-33" x="190.869141"/>
       <use xlink:href="#DejaVuSans-2d" x="254.492188"/>
       <use xlink:href="#DejaVuSans-30" x="290.576172"/>
       <use xlink:href="#DejaVuSans-38" x="354.199219"/>
      </g>
     </g>
    </g>
    <g id="xtick_2">
     <g id="line2d_3">
      <path d="M 178.510481 567.74175 
L 178.510481 24.14175 
" clip-path="url(#p1501eba253)" style="fill: none; stroke: #ffffff; stroke-width: 0.8; stroke-linecap: square"/>
     </g>
     <g id="line2d_4">
      <g>
       <use xlink:href="#m74cfc532f7" x="178.510481" y="567.74175" style="fill: #555555; stroke: #555555; stroke-width: 0.8"/>
      </g>
     </g>
     <g id="text_2">
      <!-- 2023-09 -->
      <g style="fill: #555555" transform="translate(165.689198 609.659567)rotate(-45)scale(0.1 -0.1)">
       <defs>
        <path id="DejaVuSans-39" d="M 703 97 
L 703 672 
Q 941 559 1184 500 
Q 1428 441 1663 441 
Q 2288 441 2617 861 
Q 2947 1281 2994 2138 
Q 2813 1869 2534 1725 
Q 2256 1581 1919 1581 
Q 1219 1581 811 2004 
Q 403 2428 403 3163 
Q 403 3881 828 4315 
Q 1253 4750 1959 4750 
Q 2769 4750 3195 4129 
Q 3622 3509 3622 2328 
Q 3622 1225 3098 567 
Q 2575 -91 1691 -91 
Q 1453 -91 1209 -44 
Q 966 3 703 97 
z
M 1959 2075 
Q 2384 2075 2632 2365 
Q 2881 2656 2881 3163 
Q 2881 3666 2632 3958 
Q 2384 4250 1959 4250 
Q 1534 4250 1286 3958 
Q 1038 3666 1038 3163 
Q 1038 2656 1286 2365 
Q 1534 2075 1959 2075 
z
" transform="scale(0.015625)"/>
       </defs>
       <use xlink:href="#DejaVuSans-32"/>
       <use xlink:href="#DejaVuSans-30" x="63.623047"/>
       <use xlink:href="#DejaVuSans-32" x="127.246094"/>
       <use xlink:href="#DejaVuSans-33" x="190.869141"/>
       <use xlink:href="#DejaVuSans-2d" x="254.492188"/>
       <use xlink:href="#DejaVuSans-30" x="290.576172"/>
       <use xlink:href="#DejaVuSans-39" x="354.199219"/>
      </g>
     </g>
    </g>
    <g id="xtick_3">
     <g id="line2d_5">
      <path d="M 255.897109 567.74175 
L 255.897109 24.14175 
" clip-path="url(#p1501eba253)" style="fill: none; stroke: #ffffff; stroke-width: 0.8; stroke-linecap: square"/>
     </g>
     <g id="line2d_6">
      <g>
       <use xlink:href="#m74cfc532f7" x="255.897109" y="567.74175" style="fill: #555555; stroke: #555555; stroke-width: 0.8"/>
      </g>
     </g>
     <g id="text_3">
      <!-- 2023-10 -->
      <g style="fill: #555555" transform="translate(243.075827 609.659567)rotate(-45)scale(0.1 -0.1)">
       <defs>
        <path id="DejaVuSans-31" d="M 794 531 
L 1825 531 
L 1825 4091 
L 703 3866 
L 703 4441 
L 1819 4666 
L 2450 4666 
L 2450 531 
L 3481 531 
L 3481 0 
L 794 0 
L 794 531 
z
" transform="scale(0.015625)"/>
       </defs>
       <use xlink:href="#DejaVuSans-32"/>
       <use xlink:href="#DejaVuSans-30" x="63.623047"/>
       <use xlink:href="#DejaVuSans-32" x="127.246094"/>
       <use xlink:href="#DejaVuSans-33" x="190.869141"/>
       <use xlink:href="#DejaVuSans-2d" x="254.492188"/>
       <use xlink:href="#DejaVuSans-31" x="290.576172"/>
       <use xlink:href="#DejaVuSans-30" x="354.199219"/>
      </g>
     </g>
    </g>
    <g id="xtick_4">
     <g id="line2d_7">
      <path d="M 335.863292 567.74175 
L 335.863292 24.14175 
" clip-path="url(#p1501eba253)" style="fill: none; stroke: #ffffff; stroke-width: 0.8; stroke-linecap: square"/>
     </g>
     <g id="line2d_8">
      <g>
       <use xlink:href="#m74cfc532f7" x="335.863292" y="567.74175" style="fill: #555555; stroke: #555555; stroke-width: 0.8"/>
      </g>
     </g>
     <g id="text_4">
      <!-- 2023-11 -->
      <g style="fill: #555555" transform="translate(323.04201 609.659567)rotate(-45)scale(0.1 -0.1)">
       <use xlink:href="#DejaVuSans-32"/>
       <use xlink:href="#DejaVuSans-30" x="63.623047"/>
       <use xlink:href="#DejaVuSans-32" x="127.246094"/>
       <use xlink:href="#DejaVuSans-33" x="190.869141"/>
       <use xlink:href="#DejaVuSans-2d" x="254.492188"/>
       <use xlink:href="#DejaVuSans-31" x="290.576172"/>
       <use xlink:href="#DejaVuSans-31" x="354.199219"/>
      </g>
     </g>
    </g>
    <g id="xtick_5">
     <g id="line2d_9">
      <path d="M 413.249921 567.74175 
L 413.249921 24.14175 
" clip-path="url(#p1501eba253)" style="fill: none; stroke: #ffffff; stroke-width: 0.8; stroke-linecap: square"/>
     </g>
     <g id="line2d_10">
      <g>
       <use xlink:href="#m74cfc532f7" x="413.249921" y="567.74175" style="fill: #555555; stroke: #555555; stroke-width: 0.8"/>
      </g>
     </g>
     <g id="text_5">
      <!-- 2023-12 -->
      <g style="fill: #555555" transform="translate(400.428638 609.659567)rotate(-45)scale(0.1 -0.1)">
       <use xlink:href="#DejaVuSans-32"/>
       <use xlink:href="#DejaVuSans-30" x="63.623047"/>
       <use xlink:href="#DejaVuSans-32" x="127.246094"/>
       <use xlink:href="#DejaVuSans-33" x="190.869141"/>
       <use xlink:href="#DejaVuSans-2d" x="254.492188"/>
       <use xlink:href="#DejaVuSans-31" x="290.576172"/>
       <use xlink:href="#DejaVuSans-32" x="354.199219"/>
      </g>
     </g>
    </g>
    <g id="xtick_6">
     <g id="line2d_11">
      <path d="M 493.216104 567.74175 
L 493.216104 24.14175 
" clip-path="url(#p1501eba253)" style="fill: none; stroke: #ffffff; stroke-width: 0.8; stroke-linecap: square"/>
     </g>
     <g id="line2d_12">
      <g>
       <use xlink:href="#m74cfc532f7" x="493.216104" y="567.74175" style="fill: #555555; stroke: #555555; stroke-width: 0.8"/>
      </g>
     </g>
     <g id="text_6">
      <!-- 2024-01 -->
      <g style="fill: #555555" transform="translate(480.394821 609.659567)rotate(-45)scale(0.1 -0.1)">
       <defs>
        <path id="DejaVuSans-34" d="M 2419 4116 
L 825 1625 
L 2419 1625 
L 2419 4116 
z
M 2253 4666 
L 3047 4666 
L 3047 1625 
L 3713 1625 
L 3713 1100 
L 3047 1100 
L 3047 0 
L 2419 0 
L 2419 1100 
L 313 1100 
L 313 1709 
L 2253 4666 
z
" transform="scale(0.015625)"/>
       </defs>
       <use xlink:href="#DejaVuSans-32"/>
       <use xlink:href="#DejaVuSans-30" x="63.623047"/>
       <use xlink:href="#DejaVuSans-32" x="127.246094"/>
       <use xlink:href="#DejaVuSans-34" x="190.869141"/>
       <use xlink:href="#DejaVuSans-2d" x="254.492188"/>
       <use xlink:href="#DejaVuSans-30" x="290.576172"/>
       <use xlink:href="#DejaVuSans-31" x="354.199219"/>
      </g>
     </g>
    </g>
    <g id="xtick_7">
     <g id="line2d_13">
      <path d="M 573.182286 567.74175 
L 573.182286 24.14175 
" clip-path="url(#p1501eba253)" style="fill: none; stroke: #ffffff; stroke-width: 0.8; stroke-linecap: square"/>
     </g>
     <g id="line2d_14">
      <g>
       <use xlink:href="#m74cfc532f7" x="573.182286" y="567.74175" style="fill: #555555; stroke: #555555; stroke-width: 0.8"/>
      </g>
     </g>
     <g id="text_7">
      <!-- 2024-02 -->
      <g style="fill: #555555" transform="translate(560.361004 609.659567)rotate(-45)scale(0.1 -0.1)">
       <use xlink:href="#DejaVuSans-32"/>
       <use xlink:href="#DejaVuSans-30" x="63.623047"/>
       <use xlink:href="#DejaVuSans-32" x="127.246094"/>
       <use xlink:href="#DejaVuSans-34" x="190.869141"/>
       <use xlink:href="#DejaVuSans-2d" x="254.492188"/>
       <use xlink:href="#DejaVuSans-30" x="290.576172"/>
       <use xlink:href="#DejaVuSans-32" x="354.199219"/>
      </g>
     </g>
    </g>
    <g id="xtick_8">
     <g id="line2d_15">
      <path d="M 647.989361 567.74175 
L 647.989361 24.14175 
" clip-path="url(#p1501eba253)" style="fill: none; stroke: #ffffff; stroke-width: 0.8; stroke-linecap: square"/>
     </g>
     <g id="line2d_16">
      <g>
       <use xlink:href="#m74cfc532f7" x="647.989361" y="567.74175" style="fill: #555555; stroke: #555555; stroke-width: 0.8"/>
      </g>
     </g>
     <g id="text_8">
      <!-- 2024-03 -->
      <g style="fill: #555555" transform="translate(635.168078 609.659567)rotate(-45)scale(0.1 -0.1)">
       <use xlink:href="#DejaVuSans-32"/>
       <use xlink:href="#DejaVuSans-30" x="63.623047"/>
       <use xlink:href="#DejaVuSans-32" x="127.246094"/>
       <use xlink:href="#DejaVuSans-34" x="190.869141"/>
       <use xlink:href="#DejaVuSans-2d" x="254.492188"/>
       <use xlink:href="#DejaVuSans-30" x="290.576172"/>
       <use xlink:href="#DejaVuSans-33" x="354.199219"/>
      </g>
     </g>
    </g>
    <g id="xtick_9">
     <g id="line2d_17">
      <path d="M 727.955544 567.74175 
L 727.955544 24.14175 
" clip-path="url(#p1501eba253)" style="fill: none; stroke: #ffffff; stroke-width: 0.8; stroke-linecap: square"/>
     </g>
     <g id="line2d_18">
      <g>
       <use xlink:href="#m74cfc532f7" x="727.955544" y="567.74175" style="fill: #555555; stroke: #555555; stroke-width: 0.8"/>
      </g>
     </g>
     <g id="text_9">
      <!-- 2024-04 -->
      <g style="fill: #555555" transform="translate(715.134261 609.659567)rotate(-45)scale(0.1 -0.1)">
       <use xlink:href="#DejaVuSans-32"/>
       <use xlink:href="#DejaVuSans-30" x="63.623047"/>
       <use xlink:href="#DejaVuSans-32" x="127.246094"/>
       <use xlink:href="#DejaVuSans-34" x="190.869141"/>
       <use xlink:href="#DejaVuSans-2d" x="254.492188"/>
       <use xlink:href="#DejaVuSans-30" x="290.576172"/>
       <use xlink:href="#DejaVuSans-34" x="354.199219"/>
      </g>
     </g>
    </g>
    <g id="xtick_10">
     <g id="line2d_19">
      <path d="M 805.342172 567.74175 
L 805.342172 24.14175 
" clip-path="url(#p1501eba253)" style="fill: none; stroke: #ffffff; stroke-width: 0.8; stroke-linecap: square"/>
     </g>
     <g id="line2d_20">
      <g>
       <use xlink:href="#m74cfc532f7" x="805.342172" y="567.74175" style="fill: #555555; stroke: #555555; stroke-width: 0.8"/>
      </g>
     </g>
     <g id="text_10">
      <!-- 2024-05 -->
      <g style="fill: #555555" transform="translate(792.52089 609.659567)rotate(-45)scale(0.1 -0.1)">
       <defs>
        <path id="DejaVuSans-35" d="M 691 4666 
L 3169 4666 
L 3169 4134 
L 1269 4134 
L 1269 2991 
Q 1406 3038 1543 3061 
Q 1681 3084 1819 3084 
Q 2600 3084 3056 2656 
Q 3513 2228 3513 1497 
Q 3513 744 3044 326 
Q 2575 -91 1722 -91 
Q 1428 -91 1123 -41 
Q 819 9 494 109 
L 494 744 
Q 775 591 1075 516 
Q 1375 441 1709 441 
Q 2250 441 2565 725 
Q 2881 1009 2881 1497 
Q 2881 1984 2565 2268 
Q 2250 2553 1709 2553 
Q 1456 2553 1204 2497 
Q 953 2441 691 2322 
L 691 4666 
z
" transform="scale(0.015625)"/>
       </defs>
       <use xlink:href="#DejaVuSans-32"/>
       <use xlink:href="#DejaVuSans-30" x="63.623047"/>
       <use xlink:href="#DejaVuSans-32" x="127.246094"/>
       <use xlink:href="#DejaVuSans-34" x="190.869141"/>
       <use xlink:href="#DejaVuSans-2d" x="254.492188"/>
       <use xlink:href="#DejaVuSans-30" x="290.576172"/>
       <use xlink:href="#DejaVuSans-35" x="354.199219"/>
      </g>
     </g>
    </g>
    <g id="xtick_11">
     <g id="line2d_21">
      <path d="M 885.308355 567.74175 
L 885.308355 24.14175 
" clip-path="url(#p1501eba253)" style="fill: none; stroke: #ffffff; stroke-width: 0.8; stroke-linecap: square"/>
     </g>
     <g id="line2d_22">
      <g>
       <use xlink:href="#m74cfc532f7" x="885.308355" y="567.74175" style="fill: #555555; stroke: #555555; stroke-width: 0.8"/>
      </g>
     </g>
     <g id="text_11">
      <!-- 2024-06 -->
      <g style="fill: #555555" transform="translate(872.487073 609.659567)rotate(-45)scale(0.1 -0.1)">
       <defs>
        <path id="DejaVuSans-36" d="M 2113 2584 
Q 1688 2584 1439 2293 
Q 1191 2003 1191 1497 
Q 1191 994 1439 701 
Q 1688 409 2113 409 
Q 2538 409 2786 701 
Q 3034 994 3034 1497 
Q 3034 2003 2786 2293 
Q 2538 2584 2113 2584 
z
M 3366 4563 
L 3366 3988 
Q 3128 4100 2886 4159 
Q 2644 4219 2406 4219 
Q 1781 4219 1451 3797 
Q 1122 3375 1075 2522 
Q 1259 2794 1537 2939 
Q 1816 3084 2150 3084 
Q 2853 3084 3261 2657 
Q 3669 2231 3669 1497 
Q 3669 778 3244 343 
Q 2819 -91 2113 -91 
Q 1303 -91 875 529 
Q 447 1150 447 2328 
Q 447 3434 972 4092 
Q 1497 4750 2381 4750 
Q 2619 4750 2861 4703 
Q 3103 4656 3366 4563 
z
" transform="scale(0.015625)"/>
       </defs>
       <use xlink:href="#DejaVuSans-32"/>
       <use xlink:href="#DejaVuSans-30" x="63.623047"/>
       <use xlink:href="#DejaVuSans-32" x="127.246094"/>
       <use xlink:href="#DejaVuSans-34" x="190.869141"/>
       <use xlink:href="#DejaVuSans-2d" x="254.492188"/>
       <use xlink:href="#DejaVuSans-30" x="290.576172"/>
       <use xlink:href="#DejaVuSans-36" x="354.199219"/>
      </g>
     </g>
    </g>
    <g id="text_12">
     <!-- Date -->
     <g style="fill: #555555" transform="translate(491.772938 624.248253)scale(0.12 -0.12)">
      <defs>
       <path id="DejaVuSans-44" d="M 1259 4147 
L 1259 519 
L 2022 519 
Q 2988 519 3436 956 
Q 3884 1394 3884 2338 
Q 3884 3275 3436 3711 
Q 2988 4147 2022 4147 
L 1259 4147 
z
M 628 4666 
L 1925 4666 
Q 3281 4666 3915 4102 
Q 4550 3538 4550 2338 
Q 4550 1131 3912 565 
Q 3275 0 1925 0 
L 628 0 
L 628 4666 
z
" transform="scale(0.015625)"/>
       <path id="DejaVuSans-61" d="M 2194 1759 
Q 1497 1759 1228 1600 
Q 959 1441 959 1056 
Q 959 750 1161 570 
Q 1363 391 1709 391 
Q 2188 391 2477 730 
Q 2766 1069 2766 1631 
L 2766 1759 
L 2194 1759 
z
M 3341 1997 
L 3341 0 
L 2766 0 
L 2766 531 
Q 2569 213 2275 61 
Q 1981 -91 1556 -91 
Q 1019 -91 701 211 
Q 384 513 384 1019 
Q 384 1609 779 1909 
Q 1175 2209 1959 2209 
L 2766 2209 
L 2766 2266 
Q 2766 2663 2505 2880 
Q 2244 3097 1772 3097 
Q 1472 3097 1187 3025 
Q 903 2953 641 2809 
L 641 3341 
Q 956 3463 1253 3523 
Q 1550 3584 1831 3584 
Q 2591 3584 2966 3190 
Q 3341 2797 3341 1997 
z
" transform="scale(0.015625)"/>
       <path id="DejaVuSans-74" d="M 1172 4494 
L 1172 3500 
L 2356 3500 
L 2356 3053 
L 1172 3053 
L 1172 1153 
Q 1172 725 1289 603 
Q 1406 481 1766 481 
L 2356 481 
L 2356 0 
L 1766 0 
Q 1100 0 847 248 
Q 594 497 594 1153 
L 594 3053 
L 172 3053 
L 172 3500 
L 594 3500 
L 594 4494 
L 1172 4494 
z
" transform="scale(0.015625)"/>
       <path id="DejaVuSans-65" d="M 3597 1894 
L 3597 1613 
L 953 1613 
Q 991 1019 1311 708 
Q 1631 397 2203 397 
Q 2534 397 2845 478 
Q 3156 559 3463 722 
L 3463 178 
Q 3153 47 2828 -22 
Q 2503 -91 2169 -91 
Q 1331 -91 842 396 
Q 353 884 353 1716 
Q 353 2575 817 3079 
Q 1281 3584 2069 3584 
Q 2775 3584 3186 3129 
Q 3597 2675 3597 1894 
z
M 3022 2063 
Q 3016 2534 2758 2815 
Q 2500 3097 2075 3097 
Q 1594 3097 1305 2825 
Q 1016 2553 972 2059 
L 3022 2063 
z
" transform="scale(0.015625)"/>
      </defs>
      <use xlink:href="#DejaVuSans-44"/>
      <use xlink:href="#DejaVuSans-61" x="77.001953"/>
      <use xlink:href="#DejaVuSans-74" x="138.28125"/>
      <use xlink:href="#DejaVuSans-65" x="177.490234"/>
     </g>
    </g>
   </g>
   <g id="matplotlib.axis_2">
    <g id="ytick_1">
     <g id="line2d_23">
      <path d="M 54.691875 567.74175 
L 957.535875 567.74175 
" clip-path="url(#p1501eba253)" style="fill: none; stroke: #ffffff; stroke-width: 0.8; stroke-linecap: square"/>
     </g>
     <g id="line2d_24">
      <defs>
       <path id="mf2d64234bb" d="M 0 0 
L -3.5 0 
" style="stroke: #555555; stroke-width: 0.8"/>
      </defs>
      <g>
       <use xlink:href="#mf2d64234bb" x="54.691875" y="567.74175" style="fill: #555555; stroke: #555555; stroke-width: 0.8"/>
      </g>
     </g>
     <g id="text_13">
      <!-- 0k -->
      <g style="fill: #555555" transform="translate(35.53875 571.540969)scale(0.1 -0.1)">
       <defs>
        <path id="DejaVuSans-6b" d="M 581 4863 
L 1159 4863 
L 1159 1991 
L 2875 3500 
L 3609 3500 
L 1753 1863 
L 3688 0 
L 2938 0 
L 1159 1709 
L 1159 0 
L 581 0 
L 581 4863 
z
" transform="scale(0.015625)"/>
       </defs>
       <use xlink:href="#DejaVuSans-30"/>
       <use xlink:href="#DejaVuSans-6b" x="63.623047"/>
      </g>
     </g>
    </g>
    <g id="ytick_2">
     <g id="line2d_25">
      <path d="M 54.691875 484.318115 
L 957.535875 484.318115 
" clip-path="url(#p1501eba253)" style="fill: none; stroke: #ffffff; stroke-width: 0.8; stroke-linecap: square"/>
     </g>
     <g id="line2d_26">
      <g>
       <use xlink:href="#mf2d64234bb" x="54.691875" y="484.318115" style="fill: #555555; stroke: #555555; stroke-width: 0.8"/>
      </g>
     </g>
     <g id="text_14">
      <!-- 50k -->
      <g style="fill: #555555" transform="translate(29.17625 488.117334)scale(0.1 -0.1)">
       <use xlink:href="#DejaVuSans-35"/>
       <use xlink:href="#DejaVuSans-30" x="63.623047"/>
       <use xlink:href="#DejaVuSans-6b" x="127.246094"/>
      </g>
     </g>
    </g>
    <g id="ytick_3">
     <g id="line2d_27">
      <path d="M 54.691875 400.89448 
L 957.535875 400.89448 
" clip-path="url(#p1501eba253)" style="fill: none; stroke: #ffffff; stroke-width: 0.8; stroke-linecap: square"/>
     </g>
     <g id="line2d_28">
      <g>
       <use xlink:href="#mf2d64234bb" x="54.691875" y="400.89448" style="fill: #555555; stroke: #555555; stroke-width: 0.8"/>
      </g>
     </g>
     <g id="text_15">
      <!-- 100k -->
      <g style="fill: #555555" transform="translate(22.81375 404.693699)scale(0.1 -0.1)">
       <use xlink:href="#DejaVuSans-31"/>
       <use xlink:href="#DejaVuSans-30" x="63.623047"/>
       <use xlink:href="#DejaVuSans-30" x="127.246094"/>
       <use xlink:href="#DejaVuSans-6b" x="190.869141"/>
      </g>
     </g>
    </g>
    <g id="ytick_4">
     <g id="line2d_29">
      <path d="M 54.691875 317.470846 
L 957.535875 317.470846 
" clip-path="url(#p1501eba253)" style="fill: none; stroke: #ffffff; stroke-width: 0.8; stroke-linecap: square"/>
     </g>
     <g id="line2d_30">
      <g>
       <use xlink:href="#mf2d64234bb" x="54.691875" y="317.470846" style="fill: #555555; stroke: #555555; stroke-width: 0.8"/>
      </g>
     </g>
     <g id="text_16">
      <!-- 150k -->
      <g style="fill: #555555" transform="translate(22.81375 321.270064)scale(0.1 -0.1)">
       <use xlink:href="#DejaVuSans-31"/>
       <use xlink:href="#DejaVuSans-35" x="63.623047"/>
       <use xlink:href="#DejaVuSans-30" x="127.246094"/>
       <use xlink:href="#DejaVuSans-6b" x="190.869141"/>
      </g>
     </g>
    </g>
    <g id="ytick_5">
     <g id="line2d_31">
      <path d="M 54.691875 234.047211 
L 957.535875 234.047211 
" clip-path="url(#p1501eba253)" style="fill: none; stroke: #ffffff; stroke-width: 0.8; stroke-linecap: square"/>
     </g>
     <g id="line2d_32">
      <g>
       <use xlink:href="#mf2d64234bb" x="54.691875" y="234.047211" style="fill: #555555; stroke: #555555; stroke-width: 0.8"/>
      </g>
     </g>
     <g id="text_17">
      <!-- 200k -->
      <g style="fill: #555555" transform="translate(22.81375 237.84643)scale(0.1 -0.1)">
       <use xlink:href="#DejaVuSans-32"/>
       <use xlink:href="#DejaVuSans-30" x="63.623047"/>
       <use xlink:href="#DejaVuSans-30" x="127.246094"/>
       <use xlink:href="#DejaVuSans-6b" x="190.869141"/>
      </g>
     </g>
    </g>
    <g id="ytick_6">
     <g id="line2d_33">
      <path d="M 54.691875 150.623576 
L 957.535875 150.623576 
" clip-path="url(#p1501eba253)" style="fill: none; stroke: #ffffff; stroke-width: 0.8; stroke-linecap: square"/>
     </g>
     <g id="line2d_34">
      <g>
       <use xlink:href="#mf2d64234bb" x="54.691875" y="150.623576" style="fill: #555555; stroke: #555555; stroke-width: 0.8"/>
      </g>
     </g>
     <g id="text_18">
      <!-- 250k -->
      <g style="fill: #555555" transform="translate(22.81375 154.422795)scale(0.1 -0.1)">
       <use xlink:href="#DejaVuSans-32"/>
       <use xlink:href="#DejaVuSans-35" x="63.623047"/>
       <use xlink:href="#DejaVuSans-30" x="127.246094"/>
       <use xlink:href="#DejaVuSans-6b" x="190.869141"/>
      </g>
     </g>
    </g>
    <g id="ytick_7">
     <g id="line2d_35">
      <path d="M 54.691875 67.199941 
L 957.535875 67.199941 
" clip-path="url(#p1501eba253)" style="fill: none; stroke: #ffffff; stroke-width: 0.8; stroke-linecap: square"/>
     </g>
     <g id="line2d_36">
      <g>
       <use xlink:href="#mf2d64234bb" x="54.691875" y="67.199941" style="fill: #555555; stroke: #555555; stroke-width: 0.8"/>
      </g>
     </g>
     <g id="text_19">
      <!-- 300k -->
      <g style="fill: #555555" transform="translate(22.81375 70.99916)scale(0.1 -0.1)">
       <use xlink:href="#DejaVuSans-33"/>
       <use xlink:href="#DejaVuSans-30" x="63.623047"/>
       <use xlink:href="#DejaVuSans-30" x="127.246094"/>
       <use xlink:href="#DejaVuSans-6b" x="190.869141"/>
      </g>
     </g>
    </g>
    <g id="text_20">
     <!-- Instances -->
     <g style="fill: #555555" transform="translate(16.318125 324.588)rotate(-90)scale(0.12 -0.12)">
      <defs>
       <path id="DejaVuSans-49" d="M 628 4666 
L 1259 4666 
L 1259 0 
L 628 0 
L 628 4666 
z
" transform="scale(0.015625)"/>
       <path id="DejaVuSans-6e" d="M 3513 2113 
L 3513 0 
L 2938 0 
L 2938 2094 
Q 2938 2591 2744 2837 
Q 2550 3084 2163 3084 
Q 1697 3084 1428 2787 
Q 1159 2491 1159 1978 
L 1159 0 
L 581 0 
L 581 3500 
L 1159 3500 
L 1159 2956 
Q 1366 3272 1645 3428 
Q 1925 3584 2291 3584 
Q 2894 3584 3203 3211 
Q 3513 2838 3513 2113 
z
" transform="scale(0.015625)"/>
       <path id="DejaVuSans-73" d="M 2834 3397 
L 2834 2853 
Q 2591 2978 2328 3040 
Q 2066 3103 1784 3103 
Q 1356 3103 1142 2972 
Q 928 2841 928 2578 
Q 928 2378 1081 2264 
Q 1234 2150 1697 2047 
L 1894 2003 
Q 2506 1872 2764 1633 
Q 3022 1394 3022 966 
Q 3022 478 2636 193 
Q 2250 -91 1575 -91 
Q 1294 -91 989 -36 
Q 684 19 347 128 
L 347 722 
Q 666 556 975 473 
Q 1284 391 1588 391 
Q 1994 391 2212 530 
Q 2431 669 2431 922 
Q 2431 1156 2273 1281 
Q 2116 1406 1581 1522 
L 1381 1569 
Q 847 1681 609 1914 
Q 372 2147 372 2553 
Q 372 3047 722 3315 
Q 1072 3584 1716 3584 
Q 2034 3584 2315 3537 
Q 2597 3491 2834 3397 
z
" transform="scale(0.015625)"/>
       <path id="DejaVuSans-63" d="M 3122 3366 
L 3122 2828 
Q 2878 2963 2633 3030 
Q 2388 3097 2138 3097 
Q 1578 3097 1268 2742 
Q 959 2388 959 1747 
Q 959 1106 1268 751 
Q 1578 397 2138 397 
Q 2388 397 2633 464 
Q 2878 531 3122 666 
L 3122 134 
Q 2881 22 2623 -34 
Q 2366 -91 2075 -91 
Q 1284 -91 818 406 
Q 353 903 353 1747 
Q 353 2603 823 3093 
Q 1294 3584 2113 3584 
Q 2378 3584 2631 3529 
Q 2884 3475 3122 3366 
z
" transform="scale(0.015625)"/>
      </defs>
      <use xlink:href="#DejaVuSans-49"/>
      <use xlink:href="#DejaVuSans-6e" x="29.492188"/>
      <use xlink:href="#DejaVuSans-73" x="92.871094"/>
      <use xlink:href="#DejaVuSans-74" x="144.970703"/>
      <use xlink:href="#DejaVuSans-61" x="184.179688"/>
      <use xlink:href="#DejaVuSans-6e" x="245.458984"/>
      <use xlink:href="#DejaVuSans-63" x="308.837891"/>
      <use xlink:href="#DejaVuSans-65" x="363.818359"/>
      <use xlink:href="#DejaVuSans-73" x="425.341797"/>
     </g>
    </g>
   </g>
   <g id="line2d_37">
    <path d="M 54.691875 436.152012 
L 63.811511 435.327551 
L 72.931148 434.50309 
L 82.050784 433.678628 
L 91.17042 432.854167 
L 100.290057 432.029706 
L 109.409693 431.205244 
L 118.52933 430.380783 
L 127.648966 429.556322 
L 136.768602 428.73186 
L 145.888239 427.907399 
L 155.007875 427.082938 
L 164.127511 426.258476 
L 173.247148 425.434015 
L 182.366784 424.609554 
L 191.48642 423.785092 
L 200.606057 422.960631 
L 209.725693 422.13617 
L 218.84533 421.311708 
L 227.964966 420.487247 
L 237.084602 419.662786 
L 246.204239 418.838324 
L 255.323875 418.013863 
L 264.443511 417.189402 
L 273.563148 416.36494 
L 282.682784 415.540479 
L 291.80242 414.716018 
L 300.922057 413.891556 
L 310.041693 413.067095 
L 319.16133 412.242634 
L 328.280966 411.418173 
L 337.400602 410.593711 
L 346.520239 409.76925 
L 355.639875 408.944789 
L 364.759511 408.120327 
L 373.879148 407.295866 
L 382.998784 406.471405 
L 392.11842 405.646943 
L 401.238057 404.822482 
L 410.357693 403.998021 
L 419.47733 403.173559 
L 428.596966 402.349098 
L 437.716602 401.524637 
L 446.836239 400.700175 
L 455.955875 399.875714 
L 465.075511 399.051253 
L 474.195148 398.226791 
L 483.314784 397.40233 
L 492.43442 396.577869 
L 501.554057 395.753407 
L 510.673693 394.928946 
L 519.79333 394.104485 
L 528.912966 393.280023 
L 538.032602 392.455562 
L 547.152239 391.631101 
L 556.271875 390.806639 
L 565.391511 389.982178 
L 574.511148 389.157717 
L 583.630784 388.333255 
L 592.75042 387.508794 
L 601.870057 386.684333 
L 610.989693 385.859872 
L 620.10933 385.03541 
L 629.228966 384.210949 
L 638.348602 383.386488 
L 647.468239 382.562026 
L 656.587875 381.737565 
L 665.707511 380.913104 
L 674.827148 380.088642 
L 683.946784 379.264181 
L 693.06642 378.43972 
L 702.186057 377.615258 
L 711.305693 376.790797 
L 720.42533 375.966336 
L 729.544966 375.141874 
L 738.664602 374.317413 
L 747.784239 373.492952 
L 756.903875 372.66849 
L 766.023511 371.844029 
L 775.143148 371.019568 
L 784.262784 370.195106 
L 793.38242 369.370645 
L 802.502057 368.546184 
L 811.621693 367.721722 
L 820.74133 366.897261 
L 829.860966 366.0728 
L 838.980602 365.248338 
L 848.100239 364.423877 
L 857.219875 363.599416 
L 866.339511 362.774954 
L 875.459148 361.950493 
L 884.578784 361.126032 
L 893.69842 360.301571 
L 902.818057 359.477109 
L 911.937693 358.652648 
L 921.05733 357.828187 
L 930.176966 357.003725 
L 939.296602 356.179264 
L 948.416239 355.354803 
L 957.535875 354.530341 
" clip-path="url(#p1501eba253)" style="fill: none; stroke-dasharray: 1.5,2.475; stroke-dashoffset: 0; stroke: #4ac1fa; stroke-width: 1.5"/>
   </g>
   <g id="line2d_38">
    <path d="M 54.691875 522.1824 
L 63.811511 521.313674 
L 72.931148 520.444947 
L 82.050784 519.576221 
L 91.17042 518.707494 
L 100.290057 517.838767 
L 109.409693 516.970041 
L 118.52933 516.101314 
L 127.648966 515.232588 
L 136.768602 514.363861 
L 145.888239 513.495134 
L 155.007875 512.626408 
L 164.127511 511.757681 
L 173.247148 510.888955 
L 182.366784 510.020228 
L 191.48642 509.151501 
L 200.606057 508.282775 
L 209.725693 507.414048 
L 218.84533 506.545322 
L 227.964966 505.676595 
L 237.084602 504.807868 
L 246.204239 503.939142 
L 255.323875 503.070415 
L 264.443511 502.201689 
L 273.563148 501.332962 
L 282.682784 500.464236 
L 291.80242 499.595509 
L 300.922057 498.726782 
L 310.041693 497.858056 
L 319.16133 496.989329 
L 328.280966 496.120603 
L 337.400602 495.251876 
L 346.520239 494.383149 
L 355.639875 493.514423 
L 364.759511 492.645696 
L 373.879148 491.77697 
L 382.998784 490.908243 
L 392.11842 490.039516 
L 401.238057 489.17079 
L 410.357693 488.302063 
L 419.47733 487.433337 
L 428.596966 486.56461 
L 437.716602 485.695883 
L 446.836239 484.827157 
L 455.955875 483.95843 
L 465.075511 483.089704 
L 474.195148 482.220977 
L 483.314784 481.35225 
L 492.43442 480.483524 
L 501.554057 479.614797 
L 510.673693 478.746071 
L 519.79333 477.877344 
L 528.912966 477.008617 
L 538.032602 476.139891 
L 547.152239 475.271164 
L 556.271875 474.402438 
L 565.391511 473.533711 
L 574.511148 472.664984 
L 583.630784 471.796258 
L 592.75042 470.927531 
L 601.870057 470.058805 
L 610.989693 469.190078 
L 620.10933 468.321352 
L 629.228966 467.452625 
L 638.348602 466.583898 
L 647.468239 465.715172 
L 656.587875 464.846445 
L 665.707511 463.977719 
L 674.827148 463.108992 
L 683.946784 462.240265 
L 693.06642 461.371539 
L 702.186057 460.502812 
L 711.305693 459.634086 
L 720.42533 458.765359 
L 729.544966 457.896632 
L 738.664602 457.027906 
L 747.784239 456.159179 
L 756.903875 455.290453 
L 766.023511 454.421726 
L 775.143148 453.552999 
L 784.262784 452.684273 
L 793.38242 451.815546 
L 802.502057 450.94682 
L 811.621693 450.078093 
L 820.74133 449.209366 
L 829.860966 448.34064 
L 838.980602 447.471913 
L 848.100239 446.603187 
L 857.219875 445.73446 
L 866.339511 444.865733 
L 875.459148 443.997007 
L 884.578784 443.12828 
L 893.69842 442.259554 
L 902.818057 441.390827 
L 911.937693 440.5221 
L 921.05733 439.653374 
L 930.176966 438.784647 
L 939.296602 437.915921 
L 948.416239 437.047194 
L 957.535875 436.178468 
" clip-path="url(#p1501eba253)" style="fill: none; stroke-dasharray: 1.5,2.475; stroke-dashoffset: 0; stroke: #e9a942; stroke-width: 1.5"/>
   </g>
   <g id="line2d_39">
    <path d="M 54.691875 465.587169 
L 63.811511 465.380027 
L 72.931148 465.172886 
L 82.050784 464.965744 
L 91.17042 464.758603 
L 100.290057 464.551461 
L 109.409693 464.34432 
L 118.52933 464.137178 
L 127.648966 463.930037 
L 136.768602 463.722895 
L 145.888239 463.515754 
L 155.007875 463.308612 
L 164.127511 463.101471 
L 173.247148 462.894329 
L 182.366784 462.687188 
L 191.48642 462.480046 
L 200.606057 462.272905 
L 209.725693 462.065763 
L 218.84533 461.858622 
L 227.964966 461.65148 
L 237.084602 461.444339 
L 246.204239 461.237197 
L 255.323875 461.030055 
L 264.443511 460.822914 
L 273.563148 460.615772 
L 282.682784 460.408631 
L 291.80242 460.201489 
L 300.922057 459.994348 
L 310.041693 459.787206 
L 319.16133 459.580065 
L 328.280966 459.372923 
L 337.400602 459.165782 
L 346.520239 458.95864 
L 355.639875 458.751499 
L 364.759511 458.544357 
L 373.879148 458.337216 
L 382.998784 458.130074 
L 392.11842 457.922933 
L 401.238057 457.715791 
L 410.357693 457.50865 
L 419.47733 457.301508 
L 428.596966 457.094367 
L 437.716602 456.887225 
L 446.836239 456.680084 
L 455.955875 456.472942 
L 465.075511 456.265801 
L 474.195148 456.058659 
L 483.314784 455.851518 
L 492.43442 455.644376 
L 501.554057 455.437235 
L 510.673693 455.230093 
L 519.79333 455.022952 
L 528.912966 454.81581 
L 538.032602 454.608669 
L 547.152239 454.401527 
L 556.271875 454.194386 
L 565.391511 453.987244 
L 574.511148 453.780103 
L 583.630784 453.572961 
L 592.75042 453.36582 
L 601.870057 453.158678 
L 610.989693 452.951537 
L 620.10933 452.744395 
L 629.228966 452.537254 
L 638.348602 452.330112 
L 647.468239 452.122971 
L 656.587875 451.915829 
L 665.707511 451.708688 
L 674.827148 451.501546 
L 683.946784 451.294405 
L 693.06642 451.087263 
L 702.186057 450.880122 
L 711.305693 450.67298 
L 720.42533 450.465839 
L 729.544966 450.258697 
L 738.664602 450.051556 
L 747.784239 449.844414 
L 756.903875 449.637273 
L 766.023511 449.430131 
L 775.143148 449.22299 
L 784.262784 449.015848 
L 793.38242 448.808707 
L 802.502057 448.601565 
L 811.621693 448.394424 
L 820.74133 448.187282 
L 829.860966 447.980141 
L 838.980602 447.772999 
L 848.100239 447.565858 
L 857.219875 447.358716 
L 866.339511 447.151575 
L 875.459148 446.944433 
L 884.578784 446.737292 
L 893.69842 446.53015 
L 902.818057 446.323009 
L 911.937693 446.115867 
L 921.05733 445.908726 
L 930.176966 445.701584 
L 939.296602 445.494443 
L 948.416239 445.287301 
L 957.535875 445.08016 
" clip-path="url(#p1501eba253)" style="fill: none; stroke-dasharray: 1.5,2.475; stroke-dashoffset: 0; stroke: #9a5689; stroke-width: 1.5"/>
   </g>
   <g id="line2d_40">
    <path d="M 54.691875 510.666589 
L 63.811511 510.265675 
L 72.931148 509.864762 
L 82.050784 509.463848 
L 91.17042 509.062935 
L 100.290057 508.662021 
L 109.409693 508.261107 
L 118.52933 507.860194 
L 127.648966 507.45928 
L 136.768602 507.058367 
L 145.888239 506.657453 
L 155.007875 506.256539 
L 164.127511 505.855626 
L 173.247148 505.454712 
L 182.366784 505.053799 
L 191.48642 504.652885 
L 200.606057 504.251972 
L 209.725693 503.851058 
L 218.84533 503.450144 
L 227.964966 503.049231 
L 237.084602 502.648317 
L 246.204239 502.247404 
L 255.323875 501.84649 
L 264.443511 501.445576 
L 273.563148 501.044663 
L 282.682784 500.643749 
L 291.80242 500.242836 
L 300.922057 499.841922 
L 310.041693 499.441008 
L 319.16133 499.040095 
L 328.280966 498.639181 
L 337.400602 498.238268 
L 346.520239 497.837354 
L 355.639875 497.436441 
L 364.759511 497.035527 
L 373.879148 496.634613 
L 382.998784 496.2337 
L 392.11842 495.832786 
L 401.238057 495.431873 
L 410.357693 495.030959 
L 419.47733 494.630045 
L 428.596966 494.229132 
L 437.716602 493.828218 
L 446.836239 493.427305 
L 455.955875 493.026391 
L 465.075511 492.625478 
L 474.195148 492.224564 
L 483.314784 491.82365 
L 492.43442 491.422737 
L 501.554057 491.021823 
L 510.673693 490.62091 
L 519.79333 490.219996 
L 528.912966 489.819082 
L 538.032602 489.418169 
L 547.152239 489.017255 
L 556.271875 488.616342 
L 565.391511 488.215428 
L 574.511148 487.814515 
L 583.630784 487.413601 
L 592.75042 487.012687 
L 601.870057 486.611774 
L 610.989693 486.21086 
L 620.10933 485.809947 
L 629.228966 485.409033 
L 638.348602 485.008119 
L 647.468239 484.607206 
L 656.587875 484.206292 
L 665.707511 483.805379 
L 674.827148 483.404465 
L 683.946784 483.003551 
L 693.06642 482.602638 
L 702.186057 482.201724 
L 711.305693 481.800811 
L 720.42533 481.399897 
L 729.544966 480.998984 
L 738.664602 480.59807 
L 747.784239 480.197156 
L 756.903875 479.796243 
L 766.023511 479.395329 
L 775.143148 478.994416 
L 784.262784 478.593502 
L 793.38242 478.192588 
L 802.502057 477.791675 
L 811.621693 477.390761 
L 820.74133 476.989848 
L 829.860966 476.588934 
L 838.980602 476.188021 
L 848.100239 475.787107 
L 857.219875 475.386193 
L 866.339511 474.98528 
L 875.459148 474.584366 
L 884.578784 474.183453 
L 893.69842 473.782539 
L 902.818057 473.381625 
L 911.937693 472.980712 
L 921.05733 472.579798 
L 930.176966 472.178885 
L 939.296602 471.777971 
L 948.416239 471.377058 
L 957.535875 470.976144 
" clip-path="url(#p1501eba253)" style="fill: none; stroke-dasharray: 1.5,2.475; stroke-dashoffset: 0; stroke: #be503b; stroke-width: 1.5"/>
   </g>
   <g id="line2d_41">
    <path d="M 54.691875 432.234329 
L 63.811511 430.902307 
L 72.931148 429.570285 
L 82.050784 428.238263 
L 91.17042 426.906241 
L 100.290057 425.574219 
L 109.409693 424.242197 
L 118.52933 422.910174 
L 127.648966 421.578152 
L 136.768602 420.24613 
L 145.888239 418.914108 
L 155.007875 417.582086 
L 164.127511 416.250064 
L 173.247148 414.918042 
L 182.366784 413.58602 
L 191.48642 412.253998 
L 200.606057 410.921976 
L 209.725693 409.589954 
L 218.84533 408.257932 
L 227.964966 406.92591 
L 237.084602 405.593888 
L 246.204239 404.261866 
L 255.323875 402.929844 
L 264.443511 401.597822 
L 273.563148 400.2658 
L 282.682784 398.933778 
L 291.80242 397.601756 
L 300.922057 396.269734 
L 310.041693 394.937712 
L 319.16133 393.60569 
L 328.280966 392.273668 
L 337.400602 390.941646 
L 346.520239 389.609624 
L 355.639875 388.277602 
L 364.759511 386.94558 
L 373.879148 385.613558 
L 382.998784 384.281536 
L 392.11842 382.949514 
L 401.238057 381.617492 
L 410.357693 380.28547 
L 419.47733 378.953448 
L 428.596966 377.621426 
L 437.716602 376.289404 
L 446.836239 374.957382 
L 455.955875 373.62536 
L 465.075511 372.293338 
L 474.195148 370.961316 
L 483.314784 369.629294 
L 492.43442 368.297272 
L 501.554057 366.96525 
L 510.673693 365.633228 
L 519.79333 364.301206 
L 528.912966 362.969184 
L 538.032602 361.637162 
L 547.152239 360.30514 
L 556.271875 358.973118 
L 565.391511 357.641096 
L 574.511148 356.309074 
L 583.630784 354.977052 
L 592.75042 353.64503 
L 601.870057 352.313008 
L 610.989693 350.980986 
L 620.10933 349.648964 
L 629.228966 348.316942 
L 638.348602 346.98492 
L 647.468239 345.652898 
L 656.587875 344.320876 
L 665.707511 342.988854 
L 674.827148 341.656832 
L 683.946784 340.32481 
L 693.06642 338.992788 
L 702.186057 337.660766 
L 711.305693 336.328744 
L 720.42533 334.996722 
L 729.544966 333.6647 
L 738.664602 332.332678 
L 747.784239 331.000656 
L 756.903875 329.668634 
L 766.023511 328.336612 
L 775.143148 327.00459 
L 784.262784 325.672568 
L 793.38242 324.340546 
L 802.502057 323.008524 
L 811.621693 321.676502 
L 820.74133 320.34448 
L 829.860966 319.012458 
L 838.980602 317.680436 
L 848.100239 316.348414 
L 857.219875 315.016392 
L 866.339511 313.68437 
L 875.459148 312.352348 
L 884.578784 311.020326 
L 893.69842 309.688304 
L 902.818057 308.356282 
L 911.937693 307.02426 
L 921.05733 305.692238 
L 930.176966 304.360216 
L 939.296602 303.028194 
L 948.416239 301.696172 
L 957.535875 300.364149 
" clip-path="url(#p1501eba253)" style="fill: none; stroke-dasharray: 1.5,2.475; stroke-dashoffset: 0; stroke: #e2321d; stroke-width: 1.5"/>
   </g>
   <g id="line2d_42">
    <path d="M 54.691875 347.107941 
L 63.811511 344.626171 
L 72.931148 342.144402 
L 82.050784 339.662633 
L 91.17042 337.180863 
L 100.290057 334.699094 
L 109.409693 332.217324 
L 118.52933 329.735555 
L 127.648966 327.253785 
L 136.768602 324.772016 
L 145.888239 322.290247 
L 155.007875 319.808477 
L 164.127511 317.326708 
L 173.247148 314.844938 
L 182.366784 312.363169 
L 191.48642 309.881399 
L 200.606057 307.39963 
L 209.725693 304.917861 
L 218.84533 302.436091 
L 227.964966 299.954322 
L 237.084602 297.472552 
L 246.204239 294.990783 
L 255.323875 292.509013 
L 264.443511 290.027244 
L 273.563148 287.545475 
L 282.682784 285.063705 
L 291.80242 282.581936 
L 300.922057 280.100166 
L 310.041693 277.618397 
L 319.16133 275.136627 
L 328.280966 272.654858 
L 337.400602 270.173089 
L 346.520239 267.691319 
L 355.639875 265.20955 
L 364.759511 262.72778 
L 373.879148 260.246011 
L 382.998784 257.764241 
L 392.11842 255.282472 
L 401.238057 252.800702 
L 410.357693 250.318933 
L 419.47733 247.837164 
L 428.596966 245.355394 
L 437.716602 242.873625 
L 446.836239 240.391855 
L 455.955875 237.910086 
L 465.075511 235.428316 
L 474.195148 232.946547 
L 483.314784 230.464778 
L 492.43442 227.983008 
L 501.554057 225.501239 
L 510.673693 223.019469 
L 519.79333 220.5377 
L 528.912966 218.05593 
L 538.032602 215.574161 
L 547.152239 213.092392 
L 556.271875 210.610622 
L 565.391511 208.128853 
L 574.511148 205.647083 
L 583.630784 203.165314 
L 592.75042 200.683544 
L 601.870057 198.201775 
L 610.989693 195.720006 
L 620.10933 193.238236 
L 629.228966 190.756467 
L 638.348602 188.274697 
L 647.468239 185.792928 
L 656.587875 183.311158 
L 665.707511 180.829389 
L 674.827148 178.34762 
L 683.946784 175.86585 
L 693.06642 173.384081 
L 702.186057 170.902311 
L 711.305693 168.420542 
L 720.42533 165.938772 
L 729.544966 163.457003 
L 738.664602 160.975234 
L 747.784239 158.493464 
L 756.903875 156.011695 
L 766.023511 153.529925 
L 775.143148 151.048156 
L 784.262784 148.566386 
L 793.38242 146.084617 
L 802.502057 143.602848 
L 811.621693 141.121078 
L 820.74133 138.639309 
L 829.860966 136.157539 
L 838.980602 133.67577 
L 848.100239 131.194 
L 857.219875 128.712231 
L 866.339511 126.230462 
L 875.459148 123.748692 
L 884.578784 121.266923 
L 893.69842 118.785153 
L 902.818057 116.303384 
L 911.937693 113.821614 
L 921.05733 111.339845 
L 930.176966 108.858076 
L 939.296602 106.376306 
L 948.416239 103.894537 
L 957.535875 101.412767 
" clip-path="url(#p1501eba253)" style="fill: none; stroke-dasharray: 1.5,2.475; stroke-dashoffset: 0; stroke: #48b585; stroke-width: 1.5"/>
   </g>
   <g id="line2d_43">
    <path d="M 54.691875 452.211695 
L 72.748755 455.785564 
L 90.805635 448.305801 
L 108.862515 452.011478 
L 126.919395 453.326235 
L 144.976275 455.156549 
L 163.033155 432.366881 
L 181.090035 451.410828 
L 199.146915 439.826622 
L 217.203795 452.056527 
L 235.260675 445.654597 
L 253.317555 439.905041 
L 271.374435 444.461639 
L 289.431315 435.206621 
L 307.488195 305.364408 
L 361.658835 366.812589 
L 379.715715 367.147952 
L 397.772595 339.184349 
L 415.829475 362.149208 
L 433.886355 319.943522 
L 451.943235 331.095594 
L 470.000115 328.249179 
L 488.056995 404.491708 
L 506.113875 337.549246 
L 524.170755 337.052041 
L 542.227635 384.051249 
L 560.284515 389.570556 
L 578.341395 423.228656 
L 596.398275 401.621935 
L 614.455155 400.717622 
L 632.512035 410.660051 
L 650.568915 410.696758 
L 668.625795 429.597216 
L 686.682675 426.956024 
L 704.739555 415.777257 
L 722.796435 436.090912 
L 740.853315 420.710931 
L 758.910195 423.026771 
L 776.967075 364.369945 
L 795.023955 353.753453 
L 813.080835 346.508944 
L 831.137715 352.286865 
L 849.194595 405.105706 
L 867.251475 349.81252 
L 885.308355 353.151134 
L 903.365235 373.306284 
L 921.422115 350.186258 
L 939.478995 348.452715 
L 957.535875 314.335786 
" clip-path="url(#p1501eba253)" style="fill: none; stroke: #4ac1fa; stroke-width: 1.5; stroke-linecap: square"/>
   </g>
   <g id="line2d_44">
    <path d="M 54.691875 500.252029 
L 72.748755 501.875453 
L 90.805635 501.388259 
L 108.862515 498.338291 
L 126.919395 508.294068 
L 144.976275 500.695843 
L 163.033155 497.725962 
L 181.090035 503.397101 
L 199.146915 512.557016 
L 217.203795 507.905314 
L 235.260675 505.646202 
L 253.317555 499.703102 
L 271.374435 493.339547 
L 289.431315 493.921844 
L 307.488195 493.102624 
L 361.658835 483.146847 
L 379.715715 484.369838 
L 397.772595 499.711444 
L 415.829475 492.174953 
L 433.886355 494.827825 
L 451.943235 498.853849 
L 470.000115 514.185445 
L 488.056995 518.029606 
L 506.113875 511.430797 
L 524.170755 497.654217 
L 542.227635 492.203317 
L 560.284515 497.385593 
L 578.341395 492.710533 
L 596.398275 486.283576 
L 614.455155 496.574716 
L 632.512035 476.966825 
L 650.568915 470.486477 
L 668.625795 469.260149 
L 686.682675 454.292281 
L 704.739555 467.75185 
L 722.796435 463.353756 
L 740.853315 463.48056 
L 758.910195 457.752693 
L 776.967075 462.297613 
L 795.023955 466.794147 
L 813.080835 453.711652 
L 831.137715 454.9263 
L 849.194595 435.116524 
L 867.251475 406.919335 
L 885.308355 397.18046 
L 903.365235 424.842069 
L 921.422115 427.776913 
L 939.478995 431.113858 
L 957.535875 385.451097 
" clip-path="url(#p1501eba253)" style="fill: none; stroke: #e9a942; stroke-width: 1.5; stroke-linecap: square"/>
   </g>
   <g id="line2d_45">
    <path d="M 54.691875 481.790379 
L 72.748755 481.034561 
L 90.805635 482.392698 
L 108.862515 440.484001 
L 126.919395 467.483226 
L 144.976275 479.935037 
L 163.033155 467.988773 
L 181.090035 470.958654 
L 199.146915 470.950312 
L 217.203795 467.162879 
L 235.260675 457.542465 
L 253.317555 461.828772 
L 271.374435 458.53187 
L 289.431315 449.79241 
L 307.488195 454.447449 
L 361.658835 431.110521 
L 379.715715 408.025533 
L 397.772595 440.996222 
L 415.829475 458.163137 
L 433.886355 454.520861 
L 451.943235 457.36227 
L 470.000115 470.207842 
L 488.056995 490.971984 
L 506.113875 478.873889 
L 524.170755 465.130679 
L 542.227635 464.581752 
L 560.284515 455.378456 
L 578.341395 463.347082 
L 596.398275 460.515684 
L 614.455155 461.446692 
L 632.512035 470.404721 
L 650.568915 467.741839 
L 668.625795 429.313576 
L 686.682675 398.438489 
L 704.739555 396.553115 
L 722.796435 421.396673 
L 740.853315 435.748875 
L 758.910195 433.599882 
L 776.967075 424.238082 
L 795.023955 425.389328 
L 813.080835 435.573685 
L 831.137715 426.13013 
L 849.194595 443.850978 
L 867.251475 466.093388 
L 885.308355 460.348836 
L 903.365235 492.016448 
L 921.422115 479.858288 
L 939.478995 464.054514 
L 957.535875 479.849945 
" clip-path="url(#p1501eba253)" style="fill: none; stroke: #9a5689; stroke-width: 1.5; stroke-linecap: square"/>
   </g>
   <g id="line2d_46">
    <path d="M 54.691875 508.319095 
L 72.748755 502.289235 
L 90.805635 509.53708 
L 108.862515 505.526072 
L 126.919395 530.823455 
L 144.976275 509.915823 
L 163.033155 507.962042 
L 181.090035 516.202628 
L 199.146915 503.832572 
L 217.203795 508.85968 
L 235.260675 509.748976 
L 253.317555 488.926437 
L 271.374435 505.394262 
L 289.431315 502.254197 
L 307.488195 498.493459 
L 361.658835 474.752761 
L 379.715715 462.477808 
L 397.772595 487.232937 
L 415.829475 476.055838 
L 433.886355 481.271484 
L 451.943235 484.576729 
L 470.000115 493.6966 
L 488.056995 514.754394 
L 506.113875 498.283232 
L 524.170755 496.538009 
L 542.227635 501.40995 
L 560.284515 477.574149 
L 578.341395 506.744057 
L 596.398275 499.557945 
L 614.455155 498.476775 
L 632.512035 484.353153 
L 650.568915 496.052484 
L 668.625795 483.814236 
L 686.682675 478.543531 
L 704.739555 489.668907 
L 722.796435 486.984335 
L 740.853315 492.084856 
L 758.910195 446.920968 
L 776.967075 471.275664 
L 795.023955 488.025462 
L 813.080835 464.932131 
L 831.137715 478.656987 
L 849.194595 474.337312 
L 867.251475 463.710809 
L 885.308355 491.901324 
L 903.365235 463.171892 
L 921.422115 477.522426 
L 939.478995 471.30236 
L 957.535875 470.418069 
" clip-path="url(#p1501eba253)" style="fill: none; stroke: #be503b; stroke-width: 1.5; stroke-linecap: square"/>
   </g>
   <g id="line2d_47">
    <path d="M 54.691875 420.035199 
L 72.748755 408.457667 
L 90.805635 414.010344 
L 108.862515 411.654461 
L 126.919395 421.785427 
L 144.976275 421.69533 
L 163.033155 392.004858 
L 181.090035 390.486548 
L 199.146915 401.171447 
L 217.203795 411.490951 
L 235.260675 404.935521 
L 253.317555 400.235434 
L 271.374435 406.256952 
L 289.431315 401.346637 
L 307.488195 390.820242 
L 361.658835 381.520176 
L 379.715715 350.853647 
L 397.772595 387.299765 
L 415.829475 374.452525 
L 433.886355 363.253736 
L 451.943235 363.510681 
L 470.000115 388.953221 
L 488.056995 448.087231 
L 506.113875 425.03728 
L 524.170755 390.663406 
L 542.227635 374.1522 
L 560.284515 376.504747 
L 578.341395 364.803748 
L 596.398275 369.700715 
L 614.455155 360.525784 
L 632.512035 356.850138 
L 650.568915 356.418004 
L 668.625795 326.023437 
L 686.682675 341.675379 
L 704.739555 337.444132 
L 722.796435 349.722423 
L 740.853315 347.408251 
L 758.910195 330.066146 
L 776.967075 323.108615 
L 795.023955 328.107359 
L 813.080835 354.51094 
L 831.137715 333.865258 
L 849.194595 333.851911 
L 867.251475 341.012995 
L 885.308355 330.942094 
L 903.365235 328.888204 
L 921.422115 294.502651 
L 939.478995 55.690817 
L 957.535875 312.75741 
" clip-path="url(#p1501eba253)" style="fill: none; stroke: #e2321d; stroke-width: 1.5; stroke-linecap: square"/>
   </g>
   <g id="line2d_48">
    <path d="M 54.691875 373.459784 
L 72.748755 348.571177 
L 90.805635 339.519712 
L 108.862515 327.93217 
L 126.919395 347.134622 
L 144.976275 330.112863 
L 163.033155 342.826625 
L 181.090035 351.589444 
L 199.146915 299.035891 
L 217.203795 298.248372 
L 235.260675 250.228059 
L 253.317555 279.776711 
L 271.374435 304.036304 
L 289.431315 330.588378 
L 307.488195 296.464774 
L 361.658835 196.14118 
L 379.715715 189.006791 
L 397.772595 128.452911 
L 415.829475 238.562098 
L 433.886355 312.930932 
L 451.943235 299.683258 
L 470.000115 269.438854 
L 488.056995 341.133125 
L 506.113875 270.089558 
L 524.170755 256.665027 
L 542.227635 234.691241 
L 560.284515 177.409237 
L 578.341395 158.875842 
L 596.398275 212.890977 
L 614.455155 192.340399 
L 632.512035 136.661797 
L 650.568915 137.617832 
L 668.625795 117.372584 
L 686.682675 133.750312 
L 704.739555 48.26945 
L 722.796435 163.971358 
L 740.853315 69.23381 
L 758.910195 126.098696 
L 776.967075 103.86296 
L 795.023955 144.635428 
L 813.080835 200.550953 
L 831.137715 170.420005 
L 849.194595 176.021068 
L 867.251475 148.010748 
L 885.308355 160.777901 
L 903.365235 146.732698 
L 921.422115 135.880951 
L 939.478995 148.519632 
L 957.535875 129.168686 
" clip-path="url(#p1501eba253)" style="fill: none; stroke: #48b585; stroke-width: 6; stroke-linecap: square"/>
   </g>
   <g id="patch_3">
    <path d="M 54.691875 567.74175 
L 54.691875 24.14175 
" style="fill: none; stroke: #ffffff; stroke-linejoin: miter; stroke-linecap: square"/>
   </g>
   <g id="patch_4">
    <path d="M 957.535875 567.74175 
L 957.535875 24.14175 
" style="fill: none; stroke: #ffffff; stroke-linejoin: miter; stroke-linecap: square"/>
   </g>
   <g id="patch_5">
    <path d="M 54.691875 567.74175 
L 957.535875 567.74175 
" style="fill: none; stroke: #ffffff; stroke-linejoin: miter; stroke-linecap: square"/>
   </g>
   <g id="patch_6">
    <path d="M 54.691875 24.14175 
L 957.535875 24.14175 
" style="fill: none; stroke: #ffffff; stroke-linejoin: miter; stroke-linecap: square"/>
   </g>
   <g id="text_21">
    <!-- Potentially Ephemeral Enterprise Linux 8 and 9 Instances by Distribution -->
    <g transform="translate(54.691875 18.14175)scale(0.144 -0.144)">
     <defs>
      <path id="DejaVuSans-50" d="M 1259 4147 
L 1259 2394 
L 2053 2394 
Q 2494 2394 2734 2622 
Q 2975 2850 2975 3272 
Q 2975 3691 2734 3919 
Q 2494 4147 2053 4147 
L 1259 4147 
z
M 628 4666 
L 2053 4666 
Q 2838 4666 3239 4311 
Q 3641 3956 3641 3272 
Q 3641 2581 3239 2228 
Q 2838 1875 2053 1875 
L 1259 1875 
L 1259 0 
L 628 0 
L 628 4666 
z
" transform="scale(0.015625)"/>
      <path id="DejaVuSans-6f" d="M 1959 3097 
Q 1497 3097 1228 2736 
Q 959 2375 959 1747 
Q 959 1119 1226 758 
Q 1494 397 1959 397 
Q 2419 397 2687 759 
Q 2956 1122 2956 1747 
Q 2956 2369 2687 2733 
Q 2419 3097 1959 3097 
z
M 1959 3584 
Q 2709 3584 3137 3096 
Q 3566 2609 3566 1747 
Q 3566 888 3137 398 
Q 2709 -91 1959 -91 
Q 1206 -91 779 398 
Q 353 888 353 1747 
Q 353 2609 779 3096 
Q 1206 3584 1959 3584 
z
" transform="scale(0.015625)"/>
      <path id="DejaVuSans-69" d="M 603 3500 
L 1178 3500 
L 1178 0 
L 603 0 
L 603 3500 
z
M 603 4863 
L 1178 4863 
L 1178 4134 
L 603 4134 
L 603 4863 
z
" transform="scale(0.015625)"/>
      <path id="DejaVuSans-6c" d="M 603 4863 
L 1178 4863 
L 1178 0 
L 603 0 
L 603 4863 
z
" transform="scale(0.015625)"/>
      <path id="DejaVuSans-79" d="M 2059 -325 
Q 1816 -950 1584 -1140 
Q 1353 -1331 966 -1331 
L 506 -1331 
L 506 -850 
L 844 -850 
Q 1081 -850 1212 -737 
Q 1344 -625 1503 -206 
L 1606 56 
L 191 3500 
L 800 3500 
L 1894 763 
L 2988 3500 
L 3597 3500 
L 2059 -325 
z
" transform="scale(0.015625)"/>
      <path id="DejaVuSans-20" transform="scale(0.015625)"/>
      <path id="DejaVuSans-45" d="M 628 4666 
L 3578 4666 
L 3578 4134 
L 1259 4134 
L 1259 2753 
L 3481 2753 
L 3481 2222 
L 1259 2222 
L 1259 531 
L 3634 531 
L 3634 0 
L 628 0 
L 628 4666 
z
" transform="scale(0.015625)"/>
      <path id="DejaVuSans-70" d="M 1159 525 
L 1159 -1331 
L 581 -1331 
L 581 3500 
L 1159 3500 
L 1159 2969 
Q 1341 3281 1617 3432 
Q 1894 3584 2278 3584 
Q 2916 3584 3314 3078 
Q 3713 2572 3713 1747 
Q 3713 922 3314 415 
Q 2916 -91 2278 -91 
Q 1894 -91 1617 61 
Q 1341 213 1159 525 
z
M 3116 1747 
Q 3116 2381 2855 2742 
Q 2594 3103 2138 3103 
Q 1681 3103 1420 2742 
Q 1159 2381 1159 1747 
Q 1159 1113 1420 752 
Q 1681 391 2138 391 
Q 2594 391 2855 752 
Q 3116 1113 3116 1747 
z
" transform="scale(0.015625)"/>
      <path id="DejaVuSans-68" d="M 3513 2113 
L 3513 0 
L 2938 0 
L 2938 2094 
Q 2938 2591 2744 2837 
Q 2550 3084 2163 3084 
Q 1697 3084 1428 2787 
Q 1159 2491 1159 1978 
L 1159 0 
L 581 0 
L 581 4863 
L 1159 4863 
L 1159 2956 
Q 1366 3272 1645 3428 
Q 1925 3584 2291 3584 
Q 2894 3584 3203 3211 
Q 3513 2838 3513 2113 
z
" transform="scale(0.015625)"/>
      <path id="DejaVuSans-6d" d="M 3328 2828 
Q 3544 3216 3844 3400 
Q 4144 3584 4550 3584 
Q 5097 3584 5394 3201 
Q 5691 2819 5691 2113 
L 5691 0 
L 5113 0 
L 5113 2094 
Q 5113 2597 4934 2840 
Q 4756 3084 4391 3084 
Q 3944 3084 3684 2787 
Q 3425 2491 3425 1978 
L 3425 0 
L 2847 0 
L 2847 2094 
Q 2847 2600 2669 2842 
Q 2491 3084 2119 3084 
Q 1678 3084 1418 2786 
Q 1159 2488 1159 1978 
L 1159 0 
L 581 0 
L 581 3500 
L 1159 3500 
L 1159 2956 
Q 1356 3278 1631 3431 
Q 1906 3584 2284 3584 
Q 2666 3584 2933 3390 
Q 3200 3197 3328 2828 
z
" transform="scale(0.015625)"/>
      <path id="DejaVuSans-72" d="M 2631 2963 
Q 2534 3019 2420 3045 
Q 2306 3072 2169 3072 
Q 1681 3072 1420 2755 
Q 1159 2438 1159 1844 
L 1159 0 
L 581 0 
L 581 3500 
L 1159 3500 
L 1159 2956 
Q 1341 3275 1631 3429 
Q 1922 3584 2338 3584 
Q 2397 3584 2469 3576 
Q 2541 3569 2628 3553 
L 2631 2963 
z
" transform="scale(0.015625)"/>
      <path id="DejaVuSans-4c" d="M 628 4666 
L 1259 4666 
L 1259 531 
L 3531 531 
L 3531 0 
L 628 0 
L 628 4666 
z
" transform="scale(0.015625)"/>
      <path id="DejaVuSans-75" d="M 544 1381 
L 544 3500 
L 1119 3500 
L 1119 1403 
Q 1119 906 1312 657 
Q 1506 409 1894 409 
Q 2359 409 2629 706 
Q 2900 1003 2900 1516 
L 2900 3500 
L 3475 3500 
L 3475 0 
L 2900 0 
L 2900 538 
Q 2691 219 2414 64 
Q 2138 -91 1772 -91 
Q 1169 -91 856 284 
Q 544 659 544 1381 
z
M 1991 3584 
L 1991 3584 
z
" transform="scale(0.015625)"/>
      <path id="DejaVuSans-78" d="M 3513 3500 
L 2247 1797 
L 3578 0 
L 2900 0 
L 1881 1375 
L 863 0 
L 184 0 
L 1544 1831 
L 300 3500 
L 978 3500 
L 1906 2253 
L 2834 3500 
L 3513 3500 
z
" transform="scale(0.015625)"/>
      <path id="DejaVuSans-64" d="M 2906 2969 
L 2906 4863 
L 3481 4863 
L 3481 0 
L 2906 0 
L 2906 525 
Q 2725 213 2448 61 
Q 2172 -91 1784 -91 
Q 1150 -91 751 415 
Q 353 922 353 1747 
Q 353 2572 751 3078 
Q 1150 3584 1784 3584 
Q 2172 3584 2448 3432 
Q 2725 3281 2906 2969 
z
M 947 1747 
Q 947 1113 1208 752 
Q 1469 391 1925 391 
Q 2381 391 2643 752 
Q 2906 1113 2906 1747 
Q 2906 2381 2643 2742 
Q 2381 3103 1925 3103 
Q 1469 3103 1208 2742 
Q 947 2381 947 1747 
z
" transform="scale(0.015625)"/>
      <path id="DejaVuSans-62" d="M 3116 1747 
Q 3116 2381 2855 2742 
Q 2594 3103 2138 3103 
Q 1681 3103 1420 2742 
Q 1159 2381 1159 1747 
Q 1159 1113 1420 752 
Q 1681 391 2138 391 
Q 2594 391 2855 752 
Q 3116 1113 3116 1747 
z
M 1159 2969 
Q 1341 3281 1617 3432 
Q 1894 3584 2278 3584 
Q 2916 3584 3314 3078 
Q 3713 2572 3713 1747 
Q 3713 922 3314 415 
Q 2916 -91 2278 -91 
Q 1894 -91 1617 61 
Q 1341 213 1159 525 
L 1159 0 
L 581 0 
L 581 4863 
L 1159 4863 
L 1159 2969 
z
" transform="scale(0.015625)"/>
     </defs>
     <use xlink:href="#DejaVuSans-50"/>
     <use xlink:href="#DejaVuSans-6f" x="56.677734"/>
     <use xlink:href="#DejaVuSans-74" x="117.859375"/>
     <use xlink:href="#DejaVuSans-65" x="157.068359"/>
     <use xlink:href="#DejaVuSans-6e" x="218.591797"/>
     <use xlink:href="#DejaVuSans-74" x="281.970703"/>
     <use xlink:href="#DejaVuSans-69" x="321.179688"/>
     <use xlink:href="#DejaVuSans-61" x="348.962891"/>
     <use xlink:href="#DejaVuSans-6c" x="410.242188"/>
     <use xlink:href="#DejaVuSans-6c" x="438.025391"/>
     <use xlink:href="#DejaVuSans-79" x="465.808594"/>
     <use xlink:href="#DejaVuSans-20" x="524.988281"/>
     <use xlink:href="#DejaVuSans-45" x="556.775391"/>
     <use xlink:href="#DejaVuSans-70" x="619.958984"/>
     <use xlink:href="#DejaVuSans-68" x="683.435547"/>
     <use xlink:href="#DejaVuSans-65" x="746.814453"/>
     <use xlink:href="#DejaVuSans-6d" x="808.337891"/>
     <use xlink:href="#DejaVuSans-65" x="905.75"/>
     <use xlink:href="#DejaVuSans-72" x="967.273438"/>
     <use xlink:href="#DejaVuSans-61" x="1008.386719"/>
     <use xlink:href="#DejaVuSans-6c" x="1069.666016"/>
     <use xlink:href="#DejaVuSans-20" x="1097.449219"/>
     <use xlink:href="#DejaVuSans-45" x="1129.236328"/>
     <use xlink:href="#DejaVuSans-6e" x="1192.419922"/>
     <use xlink:href="#DejaVuSans-74" x="1255.798828"/>
     <use xlink:href="#DejaVuSans-65" x="1295.007812"/>
     <use xlink:href="#DejaVuSans-72" x="1356.53125"/>
     <use xlink:href="#DejaVuSans-70" x="1397.644531"/>
     <use xlink:href="#DejaVuSans-72" x="1461.121094"/>
     <use xlink:href="#DejaVuSans-69" x="1502.234375"/>
     <use xlink:href="#DejaVuSans-73" x="1530.017578"/>
     <use xlink:href="#DejaVuSans-65" x="1582.117188"/>
     <use xlink:href="#DejaVuSans-20" x="1643.640625"/>
     <use xlink:href="#DejaVuSans-4c" x="1675.427734"/>
     <use xlink:href="#DejaVuSans-69" x="1731.140625"/>
     <use xlink:href="#DejaVuSans-6e" x="1758.923828"/>
     <use xlink:href="#DejaVuSans-75" x="1822.302734"/>
     <use xlink:href="#DejaVuSans-78" x="1885.681641"/>
     <use xlink:href="#DejaVuSans-20" x="1944.861328"/>
     <use xlink:href="#DejaVuSans-38" x="1976.648438"/>
     <use xlink:href="#DejaVuSans-20" x="2040.271484"/>
     <use xlink:href="#DejaVuSans-61" x="2072.058594"/>
     <use xlink:href="#DejaVuSans-6e" x="2133.337891"/>
     <use xlink:href="#DejaVuSans-64" x="2196.716797"/>
     <use xlink:href="#DejaVuSans-20" x="2260.193359"/>
     <use xlink:href="#DejaVuSans-39" x="2291.980469"/>
     <use xlink:href="#DejaVuSans-20" x="2355.603516"/>
     <use xlink:href="#DejaVuSans-49" x="2387.390625"/>
     <use xlink:href="#DejaVuSans-6e" x="2416.882812"/>
     <use xlink:href="#DejaVuSans-73" x="2480.261719"/>
     <use xlink:href="#DejaVuSans-74" x="2532.361328"/>
     <use xlink:href="#DejaVuSans-61" x="2571.570312"/>
     <use xlink:href="#DejaVuSans-6e" x="2632.849609"/>
     <use xlink:href="#DejaVuSans-63" x="2696.228516"/>
     <use xlink:href="#DejaVuSans-65" x="2751.208984"/>
     <use xlink:href="#DejaVuSans-73" x="2812.732422"/>
     <use xlink:href="#DejaVuSans-20" x="2864.832031"/>
     <use xlink:href="#DejaVuSans-62" x="2896.619141"/>
     <use xlink:href="#DejaVuSans-79" x="2960.095703"/>
     <use xlink:href="#DejaVuSans-20" x="3019.275391"/>
     <use xlink:href="#DejaVuSans-44" x="3051.0625"/>
     <use xlink:href="#DejaVuSans-69" x="3128.064453"/>
     <use xlink:href="#DejaVuSans-73" x="3155.847656"/>
     <use xlink:href="#DejaVuSans-74" x="3207.947266"/>
     <use xlink:href="#DejaVuSans-72" x="3247.15625"/>
     <use xlink:href="#DejaVuSans-69" x="3288.269531"/>
     <use xlink:href="#DejaVuSans-62" x="3316.052734"/>
     <use xlink:href="#DejaVuSans-75" x="3379.529297"/>
     <use xlink:href="#DejaVuSans-74" x="3442.908203"/>
     <use xlink:href="#DejaVuSans-69" x="3482.117188"/>
     <use xlink:href="#DejaVuSans-6f" x="3509.900391"/>
     <use xlink:href="#DejaVuSans-6e" x="3571.082031"/>
    </g>
   </g>
   <g id="text_22">
    <!-- 2024-07-11 11:55 UTC -->
    <g transform="translate(794.653875 18.14175)scale(0.144 -0.144)">
     <defs>
      <path id="DejaVuSans-37" d="M 525 4666 
L 3525 4666 
L 3525 4397 
L 1831 0 
L 1172 0 
L 2766 4134 
L 525 4134 
L 525 4666 
z
" transform="scale(0.015625)"/>
      <path id="DejaVuSans-3a" d="M 750 794 
L 1409 794 
L 1409 0 
L 750 0 
L 750 794 
z
M 750 3309 
L 1409 3309 
L 1409 2516 
L 750 2516 
L 750 3309 
z
" transform="scale(0.015625)"/>
      <path id="DejaVuSans-55" d="M 556 4666 
L 1191 4666 
L 1191 1831 
Q 1191 1081 1462 751 
Q 1734 422 2344 422 
Q 2950 422 3222 751 
Q 3494 1081 3494 1831 
L 3494 4666 
L 4128 4666 
L 4128 1753 
Q 4128 841 3676 375 
Q 3225 -91 2344 -91 
Q 1459 -91 1007 375 
Q 556 841 556 1753 
L 556 4666 
z
" transform="scale(0.015625)"/>
      <path id="DejaVuSans-54" d="M -19 4666 
L 3928 4666 
L 3928 4134 
L 2272 4134 
L 2272 0 
L 1638 0 
L 1638 4134 
L -19 4134 
L -19 4666 
z
" transform="scale(0.015625)"/>
      <path id="DejaVuSans-43" d="M 4122 4306 
L 4122 3641 
Q 3803 3938 3442 4084 
Q 3081 4231 2675 4231 
Q 1875 4231 1450 3742 
Q 1025 3253 1025 2328 
Q 1025 1406 1450 917 
Q 1875 428 2675 428 
Q 3081 428 3442 575 
Q 3803 722 4122 1019 
L 4122 359 
Q 3791 134 3420 21 
Q 3050 -91 2638 -91 
Q 1578 -91 968 557 
Q 359 1206 359 2328 
Q 359 3453 968 4101 
Q 1578 4750 2638 4750 
Q 3056 4750 3426 4639 
Q 3797 4528 4122 4306 
z
" transform="scale(0.015625)"/>
     </defs>
     <use xlink:href="#DejaVuSans-32"/>
     <use xlink:href="#DejaVuSans-30" x="63.623047"/>
     <use xlink:href="#DejaVuSans-32" x="127.246094"/>
     <use xlink:href="#DejaVuSans-34" x="190.869141"/>
     <use xlink:href="#DejaVuSans-2d" x="254.492188"/>
     <use xlink:href="#DejaVuSans-30" x="290.576172"/>
     <use xlink:href="#DejaVuSans-37" x="354.199219"/>
     <use xlink:href="#DejaVuSans-2d" x="417.822266"/>
     <use xlink:href="#DejaVuSans-31" x="453.90625"/>
     <use xlink:href="#DejaVuSans-31" x="517.529297"/>
     <use xlink:href="#DejaVuSans-20" x="581.152344"/>
     <use xlink:href="#DejaVuSans-31" x="612.939453"/>
     <use xlink:href="#DejaVuSans-31" x="676.5625"/>
     <use xlink:href="#DejaVuSans-3a" x="740.185547"/>
     <use xlink:href="#DejaVuSans-35" x="773.876953"/>
     <use xlink:href="#DejaVuSans-35" x="837.5"/>
     <use xlink:href="#DejaVuSans-20" x="901.123047"/>
     <use xlink:href="#DejaVuSans-55" x="932.910156"/>
     <use xlink:href="#DejaVuSans-54" x="1006.103516"/>
     <use xlink:href="#DejaVuSans-43" x="1061.3125"/>
    </g>
   </g>
   <g id="legend_1">
    <g id="patch_7">
     <path d="M 61.691875 134.888625 
L 170.660625 134.888625 
Q 172.660625 134.888625 172.660625 132.888625 
L 172.660625 31.14175 
Q 172.660625 29.14175 170.660625 29.14175 
L 61.691875 29.14175 
Q 59.691875 29.14175 59.691875 31.14175 
L 59.691875 132.888625 
Q 59.691875 134.888625 61.691875 134.888625 
z
" style="fill: #e5e5e5; opacity: 0.8; stroke: #cccccc; stroke-width: 0.5; stroke-linejoin: miter"/>
    </g>
    <g id="text_23">
     <!-- Distribution -->
     <g transform="translate(87.0075 40.740187)scale(0.1 -0.1)">
      <use xlink:href="#DejaVuSans-44"/>
      <use xlink:href="#DejaVuSans-69" x="77.001953"/>
      <use xlink:href="#DejaVuSans-73" x="104.785156"/>
      <use xlink:href="#DejaVuSans-74" x="156.884766"/>
      <use xlink:href="#DejaVuSans-72" x="196.09375"/>
      <use xlink:href="#DejaVuSans-69" x="237.207031"/>
      <use xlink:href="#DejaVuSans-62" x="264.990234"/>
      <use xlink:href="#DejaVuSans-75" x="328.466797"/>
      <use xlink:href="#DejaVuSans-74" x="391.845703"/>
      <use xlink:href="#DejaVuSans-69" x="431.054688"/>
      <use xlink:href="#DejaVuSans-6f" x="458.837891"/>
      <use xlink:href="#DejaVuSans-6e" x="520.019531"/>
     </g>
    </g>
    <g id="line2d_49">
     <path d="M 63.691875 51.918312 
L 73.691875 51.918312 
L 83.691875 51.918312 
" style="fill: none; stroke: #4ac1fa; stroke-width: 1.5; stroke-linecap: square"/>
    </g>
    <g id="text_24">
     <!-- AlmaLinux -->
     <g transform="translate(91.691875 55.418312)scale(0.1 -0.1)">
      <defs>
       <path id="DejaVuSans-41" d="M 2188 4044 
L 1331 1722 
L 3047 1722 
L 2188 4044 
z
M 1831 4666 
L 2547 4666 
L 4325 0 
L 3669 0 
L 3244 1197 
L 1141 1197 
L 716 0 
L 50 0 
L 1831 4666 
z
" transform="scale(0.015625)"/>
      </defs>
      <use xlink:href="#DejaVuSans-41"/>
      <use xlink:href="#DejaVuSans-6c" x="68.408203"/>
      <use xlink:href="#DejaVuSans-6d" x="96.191406"/>
      <use xlink:href="#DejaVuSans-61" x="193.603516"/>
      <use xlink:href="#DejaVuSans-4c" x="254.882812"/>
      <use xlink:href="#DejaVuSans-69" x="310.595703"/>
      <use xlink:href="#DejaVuSans-6e" x="338.378906"/>
      <use xlink:href="#DejaVuSans-75" x="401.757812"/>
      <use xlink:href="#DejaVuSans-78" x="465.136719"/>
     </g>
    </g>
    <g id="line2d_50">
     <path d="M 63.691875 66.596437 
L 73.691875 66.596437 
L 83.691875 66.596437 
" style="fill: none; stroke: #e9a942; stroke-width: 1.5; stroke-linecap: square"/>
    </g>
    <g id="text_25">
     <!-- CentOS Legacy -->
     <g transform="translate(91.691875 70.096437)scale(0.1 -0.1)">
      <defs>
       <path id="DejaVuSans-4f" d="M 2522 4238 
Q 1834 4238 1429 3725 
Q 1025 3213 1025 2328 
Q 1025 1447 1429 934 
Q 1834 422 2522 422 
Q 3209 422 3611 934 
Q 4013 1447 4013 2328 
Q 4013 3213 3611 3725 
Q 3209 4238 2522 4238 
z
M 2522 4750 
Q 3503 4750 4090 4092 
Q 4678 3434 4678 2328 
Q 4678 1225 4090 567 
Q 3503 -91 2522 -91 
Q 1538 -91 948 565 
Q 359 1222 359 2328 
Q 359 3434 948 4092 
Q 1538 4750 2522 4750 
z
" transform="scale(0.015625)"/>
       <path id="DejaVuSans-53" d="M 3425 4513 
L 3425 3897 
Q 3066 4069 2747 4153 
Q 2428 4238 2131 4238 
Q 1616 4238 1336 4038 
Q 1056 3838 1056 3469 
Q 1056 3159 1242 3001 
Q 1428 2844 1947 2747 
L 2328 2669 
Q 3034 2534 3370 2195 
Q 3706 1856 3706 1288 
Q 3706 609 3251 259 
Q 2797 -91 1919 -91 
Q 1588 -91 1214 -16 
Q 841 59 441 206 
L 441 856 
Q 825 641 1194 531 
Q 1563 422 1919 422 
Q 2459 422 2753 634 
Q 3047 847 3047 1241 
Q 3047 1584 2836 1778 
Q 2625 1972 2144 2069 
L 1759 2144 
Q 1053 2284 737 2584 
Q 422 2884 422 3419 
Q 422 4038 858 4394 
Q 1294 4750 2059 4750 
Q 2388 4750 2728 4690 
Q 3069 4631 3425 4513 
z
" transform="scale(0.015625)"/>
       <path id="DejaVuSans-67" d="M 2906 1791 
Q 2906 2416 2648 2759 
Q 2391 3103 1925 3103 
Q 1463 3103 1205 2759 
Q 947 2416 947 1791 
Q 947 1169 1205 825 
Q 1463 481 1925 481 
Q 2391 481 2648 825 
Q 2906 1169 2906 1791 
z
M 3481 434 
Q 3481 -459 3084 -895 
Q 2688 -1331 1869 -1331 
Q 1566 -1331 1297 -1286 
Q 1028 -1241 775 -1147 
L 775 -588 
Q 1028 -725 1275 -790 
Q 1522 -856 1778 -856 
Q 2344 -856 2625 -561 
Q 2906 -266 2906 331 
L 2906 616 
Q 2728 306 2450 153 
Q 2172 0 1784 0 
Q 1141 0 747 490 
Q 353 981 353 1791 
Q 353 2603 747 3093 
Q 1141 3584 1784 3584 
Q 2172 3584 2450 3431 
Q 2728 3278 2906 2969 
L 2906 3500 
L 3481 3500 
L 3481 434 
z
" transform="scale(0.015625)"/>
      </defs>
      <use xlink:href="#DejaVuSans-43"/>
      <use xlink:href="#DejaVuSans-65" x="69.824219"/>
      <use xlink:href="#DejaVuSans-6e" x="131.347656"/>
      <use xlink:href="#DejaVuSans-74" x="194.726562"/>
      <use xlink:href="#DejaVuSans-4f" x="233.935547"/>
      <use xlink:href="#DejaVuSans-53" x="312.646484"/>
      <use xlink:href="#DejaVuSans-20" x="376.123047"/>
      <use xlink:href="#DejaVuSans-4c" x="407.910156"/>
      <use xlink:href="#DejaVuSans-65" x="461.873047"/>
      <use xlink:href="#DejaVuSans-67" x="523.396484"/>
      <use xlink:href="#DejaVuSans-61" x="586.873047"/>
      <use xlink:href="#DejaVuSans-63" x="648.152344"/>
      <use xlink:href="#DejaVuSans-79" x="703.132812"/>
     </g>
    </g>
    <g id="line2d_51">
     <path d="M 63.691875 81.274563 
L 73.691875 81.274563 
L 83.691875 81.274563 
" style="fill: none; stroke: #9a5689; stroke-width: 1.5; stroke-linecap: square"/>
    </g>
    <g id="text_26">
     <!-- CentOS Stream -->
     <g transform="translate(91.691875 84.774563)scale(0.1 -0.1)">
      <use xlink:href="#DejaVuSans-43"/>
      <use xlink:href="#DejaVuSans-65" x="69.824219"/>
      <use xlink:href="#DejaVuSans-6e" x="131.347656"/>
      <use xlink:href="#DejaVuSans-74" x="194.726562"/>
      <use xlink:href="#DejaVuSans-4f" x="233.935547"/>
      <use xlink:href="#DejaVuSans-53" x="312.646484"/>
      <use xlink:href="#DejaVuSans-20" x="376.123047"/>
      <use xlink:href="#DejaVuSans-53" x="407.910156"/>
      <use xlink:href="#DejaVuSans-74" x="471.386719"/>
      <use xlink:href="#DejaVuSans-72" x="510.595703"/>
      <use xlink:href="#DejaVuSans-65" x="549.458984"/>
      <use xlink:href="#DejaVuSans-61" x="610.982422"/>
      <use xlink:href="#DejaVuSans-6d" x="672.261719"/>
     </g>
    </g>
    <g id="line2d_52">
     <path d="M 63.691875 95.952687 
L 73.691875 95.952687 
L 83.691875 95.952687 
" style="fill: none; stroke: #be503b; stroke-width: 1.5; stroke-linecap: square"/>
    </g>
    <g id="text_27">
     <!-- Oracle -->
     <g transform="translate(91.691875 99.452687)scale(0.1 -0.1)">
      <use xlink:href="#DejaVuSans-4f"/>
      <use xlink:href="#DejaVuSans-72" x="78.710938"/>
      <use xlink:href="#DejaVuSans-61" x="119.824219"/>
      <use xlink:href="#DejaVuSans-63" x="181.103516"/>
      <use xlink:href="#DejaVuSans-6c" x="236.083984"/>
      <use xlink:href="#DejaVuSans-65" x="263.867188"/>
     </g>
    </g>
    <g id="line2d_53">
     <path d="M 63.691875 110.630812 
L 73.691875 110.630812 
L 83.691875 110.630812 
" style="fill: none; stroke: #e2321d; stroke-width: 1.5; stroke-linecap: square"/>
    </g>
    <g id="text_28">
     <!-- RHEL -->
     <g transform="translate(91.691875 114.130812)scale(0.1 -0.1)">
      <defs>
       <path id="DejaVuSans-52" d="M 2841 2188 
Q 3044 2119 3236 1894 
Q 3428 1669 3622 1275 
L 4263 0 
L 3584 0 
L 2988 1197 
Q 2756 1666 2539 1819 
Q 2322 1972 1947 1972 
L 1259 1972 
L 1259 0 
L 628 0 
L 628 4666 
L 2053 4666 
Q 2853 4666 3247 4331 
Q 3641 3997 3641 3322 
Q 3641 2881 3436 2590 
Q 3231 2300 2841 2188 
z
M 1259 4147 
L 1259 2491 
L 2053 2491 
Q 2509 2491 2742 2702 
Q 2975 2913 2975 3322 
Q 2975 3731 2742 3939 
Q 2509 4147 2053 4147 
L 1259 4147 
z
" transform="scale(0.015625)"/>
       <path id="DejaVuSans-48" d="M 628 4666 
L 1259 4666 
L 1259 2753 
L 3553 2753 
L 3553 4666 
L 4184 4666 
L 4184 0 
L 3553 0 
L 3553 2222 
L 1259 2222 
L 1259 0 
L 628 0 
L 628 4666 
z
" transform="scale(0.015625)"/>
      </defs>
      <use xlink:href="#DejaVuSans-52"/>
      <use xlink:href="#DejaVuSans-48" x="69.482422"/>
      <use xlink:href="#DejaVuSans-45" x="144.677734"/>
      <use xlink:href="#DejaVuSans-4c" x="207.861328"/>
     </g>
    </g>
    <g id="line2d_54">
     <path d="M 63.691875 125.308937 
L 73.691875 125.308937 
L 83.691875 125.308937 
" style="fill: none; stroke: #48b585; stroke-width: 6; stroke-linecap: square"/>
    </g>
    <g id="text_29">
     <!-- Rocky Linux -->
     <g transform="translate(91.691875 128.808937)scale(0.1 -0.1)">
      <use xlink:href="#DejaVuSans-52"/>
      <use xlink:href="#DejaVuSans-6f" x="64.982422"/>
      <use xlink:href="#DejaVuSans-63" x="126.164062"/>
      <use xlink:href="#DejaVuSans-6b" x="181.144531"/>
      <use xlink:href="#DejaVuSans-79" x="235.429688"/>
      <use xlink:href="#DejaVuSans-20" x="294.609375"/>
      <use xlink:href="#DejaVuSans-4c" x="326.396484"/>
      <use xlink:href="#DejaVuSans-69" x="382.109375"/>
      <use xlink:href="#DejaVuSans-6e" x="409.892578"/>
      <use xlink:href="#DejaVuSans-75" x="473.271484"/>
      <use xlink:href="#DejaVuSans-78" x="536.650391"/>
     </g>
    </g>
   </g>
  </g>
 </g>
 <defs>
  <clipPath id="p1501eba253">
   <rect x="54.691875" y="24.14175" width="902.844" height="543.6"/>
  </clipPath>
 </defs>
</svg>
