<?xml version="1.0" encoding="utf-8" standalone="no"?>
<!DOCTYPE svg PUBLIC "-//W3C//DTD SVG 1.1//EN"
  "http://www.w3.org/Graphics/SVG/1.1/DTD/svg11.dtd">
<svg xmlns:xlink="http://www.w3.org/1999/xlink" width="974.2765pt" height="644.743878pt" viewBox="0 0 974.2765 644.743878" xmlns="http://www.w3.org/2000/svg" version="1.1">
 <metadata>
  <rdf:RDF xmlns:dc="http://purl.org/dc/elements/1.1/" xmlns:cc="http://creativecommons.org/ns#" xmlns:rdf="http://www.w3.org/1999/02/22-rdf-syntax-ns#">
   <cc:Work>
    <dc:type rdf:resource="http://purl.org/dc/dcmitype/StillImage"/>
    <dc:date>2025-10-09T11:55:32.718018</dc:date>
    <dc:format>image/svg+xml</dc:format>
    <dc:creator>
     <cc:Agent>
      <dc:title>Matplotlib v3.6.3, https://matplotlib.org/</dc:title>
     </cc:Agent>
    </dc:creator>
   </cc:Work>
  </rdf:RDF>
 </metadata>
 <defs>
  <style type="text/css">*{stroke-linejoin: round; stroke-linecap: butt}</style>
 </defs>
 <g id="figure_1">
  <g id="patch_1">
   <path d="M 0 644.743878 
L 974.2765 644.743878 
L 974.2765 0 
L 0 0 
z
" style="fill: #ffffff"/>
  </g>
  <g id="axes_1">
   <g id="patch_2">
    <path d="M 64.2325 578.54175 
L 967.0765 578.54175 
L 967.0765 24.14175 
L 64.2325 24.14175 
z
" style="fill: #e5e5e5"/>
   </g>
   <g id="matplotlib.axis_1">
    <g id="xtick_1">
     <g id="line2d_1">
      <path d="M 86.993273 578.54175 
L 86.993273 24.14175 
" clip-path="url(#p534977a3eb)" style="fill: none; stroke: #ffffff; stroke-width: 0.8; stroke-linecap: square"/>
     </g>
     <g id="line2d_2">
      <defs>
       <path id="m7ecf0cdfb2" d="M 0 0 
L 0 3.5 
" style="stroke: #555555; stroke-width: 0.8"/>
      </defs>
      <g>
       <use xlink:href="#m7ecf0cdfb2" x="86.993273" y="578.54175" style="fill: #555555; stroke: #555555; stroke-width: 0.8"/>
      </g>
     </g>
     <g id="text_1">
      <!-- 2024-10 -->
      <g style="fill: #555555" transform="translate(74.171991 620.459567) rotate(-45) scale(0.1 -0.1)">
       <defs>
        <path id="DejaVuSans-32" d="M 1228 531 
L 3431 531 
L 3431 0 
L 469 0 
L 469 531 
Q 828 903 1448 1529 
Q 2069 2156 2228 2338 
Q 2531 2678 2651 2914 
Q 2772 3150 2772 3378 
Q 2772 3750 2511 3984 
Q 2250 4219 1831 4219 
Q 1534 4219 1204 4116 
Q 875 4013 500 3803 
L 500 4441 
Q 881 4594 1212 4672 
Q 1544 4750 1819 4750 
Q 2544 4750 2975 4387 
Q 3406 4025 3406 3419 
Q 3406 3131 3298 2873 
Q 3191 2616 2906 2266 
Q 2828 2175 2409 1742 
Q 1991 1309 1228 531 
z
" transform="scale(0.015625)"/>
        <path id="DejaVuSans-30" d="M 2034 4250 
Q 1547 4250 1301 3770 
Q 1056 3291 1056 2328 
Q 1056 1369 1301 889 
Q 1547 409 2034 409 
Q 2525 409 2770 889 
Q 3016 1369 3016 2328 
Q 3016 3291 2770 3770 
Q 2525 4250 2034 4250 
z
M 2034 4750 
Q 2819 4750 3233 4129 
Q 3647 3509 3647 2328 
Q 3647 1150 3233 529 
Q 2819 -91 2034 -91 
Q 1250 -91 836 529 
Q 422 1150 422 2328 
Q 422 3509 836 4129 
Q 1250 4750 2034 4750 
z
" transform="scale(0.015625)"/>
        <path id="DejaVuSans-34" d="M 2419 4116 
L 825 1625 
L 2419 1625 
L 2419 4116 
z
M 2253 4666 
L 3047 4666 
L 3047 1625 
L 3713 1625 
L 3713 1100 
L 3047 1100 
L 3047 0 
L 2419 0 
L 2419 1100 
L 313 1100 
L 313 1709 
L 2253 4666 
z
" transform="scale(0.015625)"/>
        <path id="DejaVuSans-2d" d="M 313 2009 
L 1997 2009 
L 1997 1497 
L 313 1497 
L 313 2009 
z
" transform="scale(0.015625)"/>
        <path id="DejaVuSans-31" d="M 794 531 
L 1825 531 
L 1825 4091 
L 703 3866 
L 703 4441 
L 1819 4666 
L 2450 4666 
L 2450 531 
L 3481 531 
L 3481 0 
L 794 0 
L 794 531 
z
" transform="scale(0.015625)"/>
       </defs>
       <use xlink:href="#DejaVuSans-32"/>
       <use xlink:href="#DejaVuSans-30" x="63.623047"/>
       <use xlink:href="#DejaVuSans-32" x="127.246094"/>
       <use xlink:href="#DejaVuSans-34" x="190.869141"/>
       <use xlink:href="#DejaVuSans-2d" x="254.492188"/>
       <use xlink:href="#DejaVuSans-31" x="290.576172"/>
       <use xlink:href="#DejaVuSans-30" x="354.199219"/>
      </g>
     </g>
    </g>
    <g id="xtick_2">
     <g id="line2d_3">
      <path d="M 165.391492 578.54175 
L 165.391492 24.14175 
" clip-path="url(#p534977a3eb)" style="fill: none; stroke: #ffffff; stroke-width: 0.8; stroke-linecap: square"/>
     </g>
     <g id="line2d_4">
      <g>
       <use xlink:href="#m7ecf0cdfb2" x="165.391492" y="578.54175" style="fill: #555555; stroke: #555555; stroke-width: 0.8"/>
      </g>
     </g>
     <g id="text_2">
      <!-- 2024-11 -->
      <g style="fill: #555555" transform="translate(152.570209 620.459567) rotate(-45) scale(0.1 -0.1)">
       <use xlink:href="#DejaVuSans-32"/>
       <use xlink:href="#DejaVuSans-30" x="63.623047"/>
       <use xlink:href="#DejaVuSans-32" x="127.246094"/>
       <use xlink:href="#DejaVuSans-34" x="190.869141"/>
       <use xlink:href="#DejaVuSans-2d" x="254.492188"/>
       <use xlink:href="#DejaVuSans-31" x="290.576172"/>
       <use xlink:href="#DejaVuSans-31" x="354.199219"/>
      </g>
     </g>
    </g>
    <g id="xtick_3">
     <g id="line2d_5">
      <path d="M 241.260735 578.54175 
L 241.260735 24.14175 
" clip-path="url(#p534977a3eb)" style="fill: none; stroke: #ffffff; stroke-width: 0.8; stroke-linecap: square"/>
     </g>
     <g id="line2d_6">
      <g>
       <use xlink:href="#m7ecf0cdfb2" x="241.260735" y="578.54175" style="fill: #555555; stroke: #555555; stroke-width: 0.8"/>
      </g>
     </g>
     <g id="text_3">
      <!-- 2024-12 -->
      <g style="fill: #555555" transform="translate(228.439453 620.459567) rotate(-45) scale(0.1 -0.1)">
       <use xlink:href="#DejaVuSans-32"/>
       <use xlink:href="#DejaVuSans-30" x="63.623047"/>
       <use xlink:href="#DejaVuSans-32" x="127.246094"/>
       <use xlink:href="#DejaVuSans-34" x="190.869141"/>
       <use xlink:href="#DejaVuSans-2d" x="254.492188"/>
       <use xlink:href="#DejaVuSans-31" x="290.576172"/>
       <use xlink:href="#DejaVuSans-32" x="354.199219"/>
      </g>
     </g>
    </g>
    <g id="xtick_4">
     <g id="line2d_7">
      <path d="M 319.658954 578.54175 
L 319.658954 24.14175 
" clip-path="url(#p534977a3eb)" style="fill: none; stroke: #ffffff; stroke-width: 0.8; stroke-linecap: square"/>
     </g>
     <g id="line2d_8">
      <g>
       <use xlink:href="#m7ecf0cdfb2" x="319.658954" y="578.54175" style="fill: #555555; stroke: #555555; stroke-width: 0.8"/>
      </g>
     </g>
     <g id="text_4">
      <!-- 2025-01 -->
      <g style="fill: #555555" transform="translate(306.837672 620.459567) rotate(-45) scale(0.1 -0.1)">
       <defs>
        <path id="DejaVuSans-35" d="M 691 4666 
L 3169 4666 
L 3169 4134 
L 1269 4134 
L 1269 2991 
Q 1406 3038 1543 3061 
Q 1681 3084 1819 3084 
Q 2600 3084 3056 2656 
Q 3513 2228 3513 1497 
Q 3513 744 3044 326 
Q 2575 -91 1722 -91 
Q 1428 -91 1123 -41 
Q 819 9 494 109 
L 494 744 
Q 775 591 1075 516 
Q 1375 441 1709 441 
Q 2250 441 2565 725 
Q 2881 1009 2881 1497 
Q 2881 1984 2565 2268 
Q 2250 2553 1709 2553 
Q 1456 2553 1204 2497 
Q 953 2441 691 2322 
L 691 4666 
z
" transform="scale(0.015625)"/>
       </defs>
       <use xlink:href="#DejaVuSans-32"/>
       <use xlink:href="#DejaVuSans-30" x="63.623047"/>
       <use xlink:href="#DejaVuSans-32" x="127.246094"/>
       <use xlink:href="#DejaVuSans-35" x="190.869141"/>
       <use xlink:href="#DejaVuSans-2d" x="254.492188"/>
       <use xlink:href="#DejaVuSans-30" x="290.576172"/>
       <use xlink:href="#DejaVuSans-31" x="354.199219"/>
      </g>
     </g>
    </g>
    <g id="xtick_5">
     <g id="line2d_9">
      <path d="M 398.057172 578.54175 
L 398.057172 24.14175 
" clip-path="url(#p534977a3eb)" style="fill: none; stroke: #ffffff; stroke-width: 0.8; stroke-linecap: square"/>
     </g>
     <g id="line2d_10">
      <g>
       <use xlink:href="#m7ecf0cdfb2" x="398.057172" y="578.54175" style="fill: #555555; stroke: #555555; stroke-width: 0.8"/>
      </g>
     </g>
     <g id="text_5">
      <!-- 2025-02 -->
      <g style="fill: #555555" transform="translate(385.23589 620.459567) rotate(-45) scale(0.1 -0.1)">
       <use xlink:href="#DejaVuSans-32"/>
       <use xlink:href="#DejaVuSans-30" x="63.623047"/>
       <use xlink:href="#DejaVuSans-32" x="127.246094"/>
       <use xlink:href="#DejaVuSans-35" x="190.869141"/>
       <use xlink:href="#DejaVuSans-2d" x="254.492188"/>
       <use xlink:href="#DejaVuSans-30" x="290.576172"/>
       <use xlink:href="#DejaVuSans-32" x="354.199219"/>
      </g>
     </g>
    </g>
    <g id="xtick_6">
     <g id="line2d_11">
      <path d="M 468.868466 578.54175 
L 468.868466 24.14175 
" clip-path="url(#p534977a3eb)" style="fill: none; stroke: #ffffff; stroke-width: 0.8; stroke-linecap: square"/>
     </g>
     <g id="line2d_12">
      <g>
       <use xlink:href="#m7ecf0cdfb2" x="468.868466" y="578.54175" style="fill: #555555; stroke: #555555; stroke-width: 0.8"/>
      </g>
     </g>
     <g id="text_6">
      <!-- 2025-03 -->
      <g style="fill: #555555" transform="translate(456.047184 620.459567) rotate(-45) scale(0.1 -0.1)">
       <defs>
        <path id="DejaVuSans-33" d="M 2597 2516 
Q 3050 2419 3304 2112 
Q 3559 1806 3559 1356 
Q 3559 666 3084 287 
Q 2609 -91 1734 -91 
Q 1441 -91 1130 -33 
Q 819 25 488 141 
L 488 750 
Q 750 597 1062 519 
Q 1375 441 1716 441 
Q 2309 441 2620 675 
Q 2931 909 2931 1356 
Q 2931 1769 2642 2001 
Q 2353 2234 1838 2234 
L 1294 2234 
L 1294 2753 
L 1863 2753 
Q 2328 2753 2575 2939 
Q 2822 3125 2822 3475 
Q 2822 3834 2567 4026 
Q 2313 4219 1838 4219 
Q 1578 4219 1281 4162 
Q 984 4106 628 3988 
L 628 4550 
Q 988 4650 1302 4700 
Q 1616 4750 1894 4750 
Q 2613 4750 3031 4423 
Q 3450 4097 3450 3541 
Q 3450 3153 3228 2886 
Q 3006 2619 2597 2516 
z
" transform="scale(0.015625)"/>
       </defs>
       <use xlink:href="#DejaVuSans-32"/>
       <use xlink:href="#DejaVuSans-30" x="63.623047"/>
       <use xlink:href="#DejaVuSans-32" x="127.246094"/>
       <use xlink:href="#DejaVuSans-35" x="190.869141"/>
       <use xlink:href="#DejaVuSans-2d" x="254.492188"/>
       <use xlink:href="#DejaVuSans-30" x="290.576172"/>
       <use xlink:href="#DejaVuSans-33" x="354.199219"/>
      </g>
     </g>
    </g>
    <g id="xtick_7">
     <g id="line2d_13">
      <path d="M 547.266685 578.54175 
L 547.266685 24.14175 
" clip-path="url(#p534977a3eb)" style="fill: none; stroke: #ffffff; stroke-width: 0.8; stroke-linecap: square"/>
     </g>
     <g id="line2d_14">
      <g>
       <use xlink:href="#m7ecf0cdfb2" x="547.266685" y="578.54175" style="fill: #555555; stroke: #555555; stroke-width: 0.8"/>
      </g>
     </g>
     <g id="text_7">
      <!-- 2025-04 -->
      <g style="fill: #555555" transform="translate(534.445403 620.459567) rotate(-45) scale(0.1 -0.1)">
       <use xlink:href="#DejaVuSans-32"/>
       <use xlink:href="#DejaVuSans-30" x="63.623047"/>
       <use xlink:href="#DejaVuSans-32" x="127.246094"/>
       <use xlink:href="#DejaVuSans-35" x="190.869141"/>
       <use xlink:href="#DejaVuSans-2d" x="254.492188"/>
       <use xlink:href="#DejaVuSans-30" x="290.576172"/>
       <use xlink:href="#DejaVuSans-34" x="354.199219"/>
      </g>
     </g>
    </g>
    <g id="xtick_8">
     <g id="line2d_15">
      <path d="M 623.135929 578.54175 
L 623.135929 24.14175 
" clip-path="url(#p534977a3eb)" style="fill: none; stroke: #ffffff; stroke-width: 0.8; stroke-linecap: square"/>
     </g>
     <g id="line2d_16">
      <g>
       <use xlink:href="#m7ecf0cdfb2" x="623.135929" y="578.54175" style="fill: #555555; stroke: #555555; stroke-width: 0.8"/>
      </g>
     </g>
     <g id="text_8">
      <!-- 2025-05 -->
      <g style="fill: #555555" transform="translate(610.314646 620.459567) rotate(-45) scale(0.1 -0.1)">
       <use xlink:href="#DejaVuSans-32"/>
       <use xlink:href="#DejaVuSans-30" x="63.623047"/>
       <use xlink:href="#DejaVuSans-32" x="127.246094"/>
       <use xlink:href="#DejaVuSans-35" x="190.869141"/>
       <use xlink:href="#DejaVuSans-2d" x="254.492188"/>
       <use xlink:href="#DejaVuSans-30" x="290.576172"/>
       <use xlink:href="#DejaVuSans-35" x="354.199219"/>
      </g>
     </g>
    </g>
    <g id="xtick_9">
     <g id="line2d_17">
      <path d="M 701.534147 578.54175 
L 701.534147 24.14175 
" clip-path="url(#p534977a3eb)" style="fill: none; stroke: #ffffff; stroke-width: 0.8; stroke-linecap: square"/>
     </g>
     <g id="line2d_18">
      <g>
       <use xlink:href="#m7ecf0cdfb2" x="701.534147" y="578.54175" style="fill: #555555; stroke: #555555; stroke-width: 0.8"/>
      </g>
     </g>
     <g id="text_9">
      <!-- 2025-06 -->
      <g style="fill: #555555" transform="translate(688.712865 620.459567) rotate(-45) scale(0.1 -0.1)">
       <defs>
        <path id="DejaVuSans-36" d="M 2113 2584 
Q 1688 2584 1439 2293 
Q 1191 2003 1191 1497 
Q 1191 994 1439 701 
Q 1688 409 2113 409 
Q 2538 409 2786 701 
Q 3034 994 3034 1497 
Q 3034 2003 2786 2293 
Q 2538 2584 2113 2584 
z
M 3366 4563 
L 3366 3988 
Q 3128 4100 2886 4159 
Q 2644 4219 2406 4219 
Q 1781 4219 1451 3797 
Q 1122 3375 1075 2522 
Q 1259 2794 1537 2939 
Q 1816 3084 2150 3084 
Q 2853 3084 3261 2657 
Q 3669 2231 3669 1497 
Q 3669 778 3244 343 
Q 2819 -91 2113 -91 
Q 1303 -91 875 529 
Q 447 1150 447 2328 
Q 447 3434 972 4092 
Q 1497 4750 2381 4750 
Q 2619 4750 2861 4703 
Q 3103 4656 3366 4563 
z
" transform="scale(0.015625)"/>
       </defs>
       <use xlink:href="#DejaVuSans-32"/>
       <use xlink:href="#DejaVuSans-30" x="63.623047"/>
       <use xlink:href="#DejaVuSans-32" x="127.246094"/>
       <use xlink:href="#DejaVuSans-35" x="190.869141"/>
       <use xlink:href="#DejaVuSans-2d" x="254.492188"/>
       <use xlink:href="#DejaVuSans-30" x="290.576172"/>
       <use xlink:href="#DejaVuSans-36" x="354.199219"/>
      </g>
     </g>
    </g>
    <g id="xtick_10">
     <g id="line2d_19">
      <path d="M 777.403391 578.54175 
L 777.403391 24.14175 
" clip-path="url(#p534977a3eb)" style="fill: none; stroke: #ffffff; stroke-width: 0.8; stroke-linecap: square"/>
     </g>
     <g id="line2d_20">
      <g>
       <use xlink:href="#m7ecf0cdfb2" x="777.403391" y="578.54175" style="fill: #555555; stroke: #555555; stroke-width: 0.8"/>
      </g>
     </g>
     <g id="text_10">
      <!-- 2025-07 -->
      <g style="fill: #555555" transform="translate(764.582109 620.459567) rotate(-45) scale(0.1 -0.1)">
       <defs>
        <path id="DejaVuSans-37" d="M 525 4666 
L 3525 4666 
L 3525 4397 
L 1831 0 
L 1172 0 
L 2766 4134 
L 525 4134 
L 525 4666 
z
" transform="scale(0.015625)"/>
       </defs>
       <use xlink:href="#DejaVuSans-32"/>
       <use xlink:href="#DejaVuSans-30" x="63.623047"/>
       <use xlink:href="#DejaVuSans-32" x="127.246094"/>
       <use xlink:href="#DejaVuSans-35" x="190.869141"/>
       <use xlink:href="#DejaVuSans-2d" x="254.492188"/>
       <use xlink:href="#DejaVuSans-30" x="290.576172"/>
       <use xlink:href="#DejaVuSans-37" x="354.199219"/>
      </g>
     </g>
    </g>
    <g id="xtick_11">
     <g id="line2d_21">
      <path d="M 855.801609 578.54175 
L 855.801609 24.14175 
" clip-path="url(#p534977a3eb)" style="fill: none; stroke: #ffffff; stroke-width: 0.8; stroke-linecap: square"/>
     </g>
     <g id="line2d_22">
      <g>
       <use xlink:href="#m7ecf0cdfb2" x="855.801609" y="578.54175" style="fill: #555555; stroke: #555555; stroke-width: 0.8"/>
      </g>
     </g>
     <g id="text_11">
      <!-- 2025-08 -->
      <g style="fill: #555555" transform="translate(842.980327 620.459567) rotate(-45) scale(0.1 -0.1)">
       <defs>
        <path id="DejaVuSans-38" d="M 2034 2216 
Q 1584 2216 1326 1975 
Q 1069 1734 1069 1313 
Q 1069 891 1326 650 
Q 1584 409 2034 409 
Q 2484 409 2743 651 
Q 3003 894 3003 1313 
Q 3003 1734 2745 1975 
Q 2488 2216 2034 2216 
z
M 1403 2484 
Q 997 2584 770 2862 
Q 544 3141 544 3541 
Q 544 4100 942 4425 
Q 1341 4750 2034 4750 
Q 2731 4750 3128 4425 
Q 3525 4100 3525 3541 
Q 3525 3141 3298 2862 
Q 3072 2584 2669 2484 
Q 3125 2378 3379 2068 
Q 3634 1759 3634 1313 
Q 3634 634 3220 271 
Q 2806 -91 2034 -91 
Q 1263 -91 848 271 
Q 434 634 434 1313 
Q 434 1759 690 2068 
Q 947 2378 1403 2484 
z
M 1172 3481 
Q 1172 3119 1398 2916 
Q 1625 2713 2034 2713 
Q 2441 2713 2670 2916 
Q 2900 3119 2900 3481 
Q 2900 3844 2670 4047 
Q 2441 4250 2034 4250 
Q 1625 4250 1398 4047 
Q 1172 3844 1172 3481 
z
" transform="scale(0.015625)"/>
       </defs>
       <use xlink:href="#DejaVuSans-32"/>
       <use xlink:href="#DejaVuSans-30" x="63.623047"/>
       <use xlink:href="#DejaVuSans-32" x="127.246094"/>
       <use xlink:href="#DejaVuSans-35" x="190.869141"/>
       <use xlink:href="#DejaVuSans-2d" x="254.492188"/>
       <use xlink:href="#DejaVuSans-30" x="290.576172"/>
       <use xlink:href="#DejaVuSans-38" x="354.199219"/>
      </g>
     </g>
    </g>
    <g id="xtick_12">
     <g id="line2d_23">
      <path d="M 934.199828 578.54175 
L 934.199828 24.14175 
" clip-path="url(#p534977a3eb)" style="fill: none; stroke: #ffffff; stroke-width: 0.8; stroke-linecap: square"/>
     </g>
     <g id="line2d_24">
      <g>
       <use xlink:href="#m7ecf0cdfb2" x="934.199828" y="578.54175" style="fill: #555555; stroke: #555555; stroke-width: 0.8"/>
      </g>
     </g>
     <g id="text_12">
      <!-- 2025-09 -->
      <g style="fill: #555555" transform="translate(921.378545 620.459567) rotate(-45) scale(0.1 -0.1)">
       <defs>
        <path id="DejaVuSans-39" d="M 703 97 
L 703 672 
Q 941 559 1184 500 
Q 1428 441 1663 441 
Q 2288 441 2617 861 
Q 2947 1281 2994 2138 
Q 2813 1869 2534 1725 
Q 2256 1581 1919 1581 
Q 1219 1581 811 2004 
Q 403 2428 403 3163 
Q 403 3881 828 4315 
Q 1253 4750 1959 4750 
Q 2769 4750 3195 4129 
Q 3622 3509 3622 2328 
Q 3622 1225 3098 567 
Q 2575 -91 1691 -91 
Q 1453 -91 1209 -44 
Q 966 3 703 97 
z
M 1959 2075 
Q 2384 2075 2632 2365 
Q 2881 2656 2881 3163 
Q 2881 3666 2632 3958 
Q 2384 4250 1959 4250 
Q 1534 4250 1286 3958 
Q 1038 3666 1038 3163 
Q 1038 2656 1286 2365 
Q 1534 2075 1959 2075 
z
" transform="scale(0.015625)"/>
       </defs>
       <use xlink:href="#DejaVuSans-32"/>
       <use xlink:href="#DejaVuSans-30" x="63.623047"/>
       <use xlink:href="#DejaVuSans-32" x="127.246094"/>
       <use xlink:href="#DejaVuSans-35" x="190.869141"/>
       <use xlink:href="#DejaVuSans-2d" x="254.492188"/>
       <use xlink:href="#DejaVuSans-30" x="290.576172"/>
       <use xlink:href="#DejaVuSans-39" x="354.199219"/>
      </g>
     </g>
    </g>
    <g id="text_13">
     <!-- Date -->
     <g style="fill: #555555" transform="translate(501.313563 635.048253) scale(0.12 -0.12)">
      <defs>
       <path id="DejaVuSans-44" d="M 1259 4147 
L 1259 519 
L 2022 519 
Q 2988 519 3436 956 
Q 3884 1394 3884 2338 
Q 3884 3275 3436 3711 
Q 2988 4147 2022 4147 
L 1259 4147 
z
M 628 4666 
L 1925 4666 
Q 3281 4666 3915 4102 
Q 4550 3538 4550 2338 
Q 4550 1131 3912 565 
Q 3275 0 1925 0 
L 628 0 
L 628 4666 
z
" transform="scale(0.015625)"/>
       <path id="DejaVuSans-61" d="M 2194 1759 
Q 1497 1759 1228 1600 
Q 959 1441 959 1056 
Q 959 750 1161 570 
Q 1363 391 1709 391 
Q 2188 391 2477 730 
Q 2766 1069 2766 1631 
L 2766 1759 
L 2194 1759 
z
M 3341 1997 
L 3341 0 
L 2766 0 
L 2766 531 
Q 2569 213 2275 61 
Q 1981 -91 1556 -91 
Q 1019 -91 701 211 
Q 384 513 384 1019 
Q 384 1609 779 1909 
Q 1175 2209 1959 2209 
L 2766 2209 
L 2766 2266 
Q 2766 2663 2505 2880 
Q 2244 3097 1772 3097 
Q 1472 3097 1187 3025 
Q 903 2953 641 2809 
L 641 3341 
Q 956 3463 1253 3523 
Q 1550 3584 1831 3584 
Q 2591 3584 2966 3190 
Q 3341 2797 3341 1997 
z
" transform="scale(0.015625)"/>
       <path id="DejaVuSans-74" d="M 1172 4494 
L 1172 3500 
L 2356 3500 
L 2356 3053 
L 1172 3053 
L 1172 1153 
Q 1172 725 1289 603 
Q 1406 481 1766 481 
L 2356 481 
L 2356 0 
L 1766 0 
Q 1100 0 847 248 
Q 594 497 594 1153 
L 594 3053 
L 172 3053 
L 172 3500 
L 594 3500 
L 594 4494 
L 1172 4494 
z
" transform="scale(0.015625)"/>
       <path id="DejaVuSans-65" d="M 3597 1894 
L 3597 1613 
L 953 1613 
Q 991 1019 1311 708 
Q 1631 397 2203 397 
Q 2534 397 2845 478 
Q 3156 559 3463 722 
L 3463 178 
Q 3153 47 2828 -22 
Q 2503 -91 2169 -91 
Q 1331 -91 842 396 
Q 353 884 353 1716 
Q 353 2575 817 3079 
Q 1281 3584 2069 3584 
Q 2775 3584 3186 3129 
Q 3597 2675 3597 1894 
z
M 3022 2063 
Q 3016 2534 2758 2815 
Q 2500 3097 2075 3097 
Q 1594 3097 1305 2825 
Q 1016 2553 972 2059 
L 3022 2063 
z
" transform="scale(0.015625)"/>
      </defs>
      <use xlink:href="#DejaVuSans-44"/>
      <use xlink:href="#DejaVuSans-61" x="77.001953"/>
      <use xlink:href="#DejaVuSans-74" x="138.28125"/>
      <use xlink:href="#DejaVuSans-65" x="177.490234"/>
     </g>
    </g>
   </g>
   <g id="matplotlib.axis_2">
    <g id="ytick_1">
     <g id="line2d_25">
      <path d="M 64.2325 578.54175 
L 967.0765 578.54175 
" clip-path="url(#p534977a3eb)" style="fill: none; stroke: #ffffff; stroke-width: 0.8; stroke-linecap: square"/>
     </g>
     <g id="line2d_26">
      <defs>
       <path id="me2ed8f6dd8" d="M 0 0 
L -3.5 0 
" style="stroke: #555555; stroke-width: 0.8"/>
      </defs>
      <g>
       <use xlink:href="#me2ed8f6dd8" x="64.2325" y="578.54175" style="fill: #555555; stroke: #555555; stroke-width: 0.8"/>
      </g>
     </g>
     <g id="text_14">
      <!-- 0k -->
      <g style="fill: #555555" transform="translate(45.079375 582.340969) scale(0.1 -0.1)">
       <defs>
        <path id="DejaVuSans-6b" d="M 581 4863 
L 1159 4863 
L 1159 1991 
L 2875 3500 
L 3609 3500 
L 1753 1863 
L 3688 0 
L 2938 0 
L 1159 1709 
L 1159 0 
L 581 0 
L 581 4863 
z
" transform="scale(0.015625)"/>
       </defs>
       <use xlink:href="#DejaVuSans-30"/>
       <use xlink:href="#DejaVuSans-6b" x="63.623047"/>
      </g>
     </g>
    </g>
    <g id="ytick_2">
     <g id="line2d_27">
      <path d="M 64.2325 505.861268 
L 967.0765 505.861268 
" clip-path="url(#p534977a3eb)" style="fill: none; stroke: #ffffff; stroke-width: 0.8; stroke-linecap: square"/>
     </g>
     <g id="line2d_28">
      <g>
       <use xlink:href="#me2ed8f6dd8" x="64.2325" y="505.861268" style="fill: #555555; stroke: #555555; stroke-width: 0.8"/>
      </g>
     </g>
     <g id="text_15">
      <!-- 250k -->
      <g style="fill: #555555" transform="translate(32.354375 509.660487) scale(0.1 -0.1)">
       <use xlink:href="#DejaVuSans-32"/>
       <use xlink:href="#DejaVuSans-35" x="63.623047"/>
       <use xlink:href="#DejaVuSans-30" x="127.246094"/>
       <use xlink:href="#DejaVuSans-6b" x="190.869141"/>
      </g>
     </g>
    </g>
    <g id="ytick_3">
     <g id="line2d_29">
      <path d="M 64.2325 433.180786 
L 967.0765 433.180786 
" clip-path="url(#p534977a3eb)" style="fill: none; stroke: #ffffff; stroke-width: 0.8; stroke-linecap: square"/>
     </g>
     <g id="line2d_30">
      <g>
       <use xlink:href="#me2ed8f6dd8" x="64.2325" y="433.180786" style="fill: #555555; stroke: #555555; stroke-width: 0.8"/>
      </g>
     </g>
     <g id="text_16">
      <!-- 500k -->
      <g style="fill: #555555" transform="translate(32.354375 436.980005) scale(0.1 -0.1)">
       <use xlink:href="#DejaVuSans-35"/>
       <use xlink:href="#DejaVuSans-30" x="63.623047"/>
       <use xlink:href="#DejaVuSans-30" x="127.246094"/>
       <use xlink:href="#DejaVuSans-6b" x="190.869141"/>
      </g>
     </g>
    </g>
    <g id="ytick_4">
     <g id="line2d_31">
      <path d="M 64.2325 360.500304 
L 967.0765 360.500304 
" clip-path="url(#p534977a3eb)" style="fill: none; stroke: #ffffff; stroke-width: 0.8; stroke-linecap: square"/>
     </g>
     <g id="line2d_32">
      <g>
       <use xlink:href="#me2ed8f6dd8" x="64.2325" y="360.500304" style="fill: #555555; stroke: #555555; stroke-width: 0.8"/>
      </g>
     </g>
     <g id="text_17">
      <!-- 750k -->
      <g style="fill: #555555" transform="translate(32.354375 364.299523) scale(0.1 -0.1)">
       <use xlink:href="#DejaVuSans-37"/>
       <use xlink:href="#DejaVuSans-35" x="63.623047"/>
       <use xlink:href="#DejaVuSans-30" x="127.246094"/>
       <use xlink:href="#DejaVuSans-6b" x="190.869141"/>
      </g>
     </g>
    </g>
    <g id="ytick_5">
     <g id="line2d_33">
      <path d="M 64.2325 287.819823 
L 967.0765 287.819823 
" clip-path="url(#p534977a3eb)" style="fill: none; stroke: #ffffff; stroke-width: 0.8; stroke-linecap: square"/>
     </g>
     <g id="line2d_34">
      <g>
       <use xlink:href="#me2ed8f6dd8" x="64.2325" y="287.819823" style="fill: #555555; stroke: #555555; stroke-width: 0.8"/>
      </g>
     </g>
     <g id="text_18">
      <!-- 1,000k -->
      <g style="fill: #555555" transform="translate(22.81375 291.619041) scale(0.1 -0.1)">
       <defs>
        <path id="DejaVuSans-2c" d="M 750 794 
L 1409 794 
L 1409 256 
L 897 -744 
L 494 -744 
L 750 256 
L 750 794 
z
" transform="scale(0.015625)"/>
       </defs>
       <use xlink:href="#DejaVuSans-31"/>
       <use xlink:href="#DejaVuSans-2c" x="63.623047"/>
       <use xlink:href="#DejaVuSans-30" x="95.410156"/>
       <use xlink:href="#DejaVuSans-30" x="159.033203"/>
       <use xlink:href="#DejaVuSans-30" x="222.65625"/>
       <use xlink:href="#DejaVuSans-6b" x="286.279297"/>
      </g>
     </g>
    </g>
    <g id="ytick_6">
     <g id="line2d_35">
      <path d="M 64.2325 215.139341 
L 967.0765 215.139341 
" clip-path="url(#p534977a3eb)" style="fill: none; stroke: #ffffff; stroke-width: 0.8; stroke-linecap: square"/>
     </g>
     <g id="line2d_36">
      <g>
       <use xlink:href="#me2ed8f6dd8" x="64.2325" y="215.139341" style="fill: #555555; stroke: #555555; stroke-width: 0.8"/>
      </g>
     </g>
     <g id="text_19">
      <!-- 1,250k -->
      <g style="fill: #555555" transform="translate(22.81375 218.938559) scale(0.1 -0.1)">
       <use xlink:href="#DejaVuSans-31"/>
       <use xlink:href="#DejaVuSans-2c" x="63.623047"/>
       <use xlink:href="#DejaVuSans-32" x="95.410156"/>
       <use xlink:href="#DejaVuSans-35" x="159.033203"/>
       <use xlink:href="#DejaVuSans-30" x="222.65625"/>
       <use xlink:href="#DejaVuSans-6b" x="286.279297"/>
      </g>
     </g>
    </g>
    <g id="ytick_7">
     <g id="line2d_37">
      <path d="M 64.2325 142.458859 
L 967.0765 142.458859 
" clip-path="url(#p534977a3eb)" style="fill: none; stroke: #ffffff; stroke-width: 0.8; stroke-linecap: square"/>
     </g>
     <g id="line2d_38">
      <g>
       <use xlink:href="#me2ed8f6dd8" x="64.2325" y="142.458859" style="fill: #555555; stroke: #555555; stroke-width: 0.8"/>
      </g>
     </g>
     <g id="text_20">
      <!-- 1,500k -->
      <g style="fill: #555555" transform="translate(22.81375 146.258078) scale(0.1 -0.1)">
       <use xlink:href="#DejaVuSans-31"/>
       <use xlink:href="#DejaVuSans-2c" x="63.623047"/>
       <use xlink:href="#DejaVuSans-35" x="95.410156"/>
       <use xlink:href="#DejaVuSans-30" x="159.033203"/>
       <use xlink:href="#DejaVuSans-30" x="222.65625"/>
       <use xlink:href="#DejaVuSans-6b" x="286.279297"/>
      </g>
     </g>
    </g>
    <g id="ytick_8">
     <g id="line2d_39">
      <path d="M 64.2325 69.778377 
L 967.0765 69.778377 
" clip-path="url(#p534977a3eb)" style="fill: none; stroke: #ffffff; stroke-width: 0.8; stroke-linecap: square"/>
     </g>
     <g id="line2d_40">
      <g>
       <use xlink:href="#me2ed8f6dd8" x="64.2325" y="69.778377" style="fill: #555555; stroke: #555555; stroke-width: 0.8"/>
      </g>
     </g>
     <g id="text_21">
      <!-- 1,750k -->
      <g style="fill: #555555" transform="translate(22.81375 73.577596) scale(0.1 -0.1)">
       <use xlink:href="#DejaVuSans-31"/>
       <use xlink:href="#DejaVuSans-2c" x="63.623047"/>
       <use xlink:href="#DejaVuSans-37" x="95.410156"/>
       <use xlink:href="#DejaVuSans-35" x="159.033203"/>
       <use xlink:href="#DejaVuSans-30" x="222.65625"/>
       <use xlink:href="#DejaVuSans-6b" x="286.279297"/>
      </g>
     </g>
    </g>
    <g id="text_22">
     <!-- Instances -->
     <g style="fill: #555555" transform="translate(16.318125 329.988) rotate(-90) scale(0.12 -0.12)">
      <defs>
       <path id="DejaVuSans-49" d="M 628 4666 
L 1259 4666 
L 1259 0 
L 628 0 
L 628 4666 
z
" transform="scale(0.015625)"/>
       <path id="DejaVuSans-6e" d="M 3513 2113 
L 3513 0 
L 2938 0 
L 2938 2094 
Q 2938 2591 2744 2837 
Q 2550 3084 2163 3084 
Q 1697 3084 1428 2787 
Q 1159 2491 1159 1978 
L 1159 0 
L 581 0 
L 581 3500 
L 1159 3500 
L 1159 2956 
Q 1366 3272 1645 3428 
Q 1925 3584 2291 3584 
Q 2894 3584 3203 3211 
Q 3513 2838 3513 2113 
z
" transform="scale(0.015625)"/>
       <path id="DejaVuSans-73" d="M 2834 3397 
L 2834 2853 
Q 2591 2978 2328 3040 
Q 2066 3103 1784 3103 
Q 1356 3103 1142 2972 
Q 928 2841 928 2578 
Q 928 2378 1081 2264 
Q 1234 2150 1697 2047 
L 1894 2003 
Q 2506 1872 2764 1633 
Q 3022 1394 3022 966 
Q 3022 478 2636 193 
Q 2250 -91 1575 -91 
Q 1294 -91 989 -36 
Q 684 19 347 128 
L 347 722 
Q 666 556 975 473 
Q 1284 391 1588 391 
Q 1994 391 2212 530 
Q 2431 669 2431 922 
Q 2431 1156 2273 1281 
Q 2116 1406 1581 1522 
L 1381 1569 
Q 847 1681 609 1914 
Q 372 2147 372 2553 
Q 372 3047 722 3315 
Q 1072 3584 1716 3584 
Q 2034 3584 2315 3537 
Q 2597 3491 2834 3397 
z
" transform="scale(0.015625)"/>
       <path id="DejaVuSans-63" d="M 3122 3366 
L 3122 2828 
Q 2878 2963 2633 3030 
Q 2388 3097 2138 3097 
Q 1578 3097 1268 2742 
Q 959 2388 959 1747 
Q 959 1106 1268 751 
Q 1578 397 2138 397 
Q 2388 397 2633 464 
Q 2878 531 3122 666 
L 3122 134 
Q 2881 22 2623 -34 
Q 2366 -91 2075 -91 
Q 1284 -91 818 406 
Q 353 903 353 1747 
Q 353 2603 823 3093 
Q 1294 3584 2113 3584 
Q 2378 3584 2631 3529 
Q 2884 3475 3122 3366 
z
" transform="scale(0.015625)"/>
      </defs>
      <use xlink:href="#DejaVuSans-49"/>
      <use xlink:href="#DejaVuSans-6e" x="29.492188"/>
      <use xlink:href="#DejaVuSans-73" x="92.871094"/>
      <use xlink:href="#DejaVuSans-74" x="144.970703"/>
      <use xlink:href="#DejaVuSans-61" x="184.179688"/>
      <use xlink:href="#DejaVuSans-6e" x="245.458984"/>
      <use xlink:href="#DejaVuSans-63" x="308.837891"/>
      <use xlink:href="#DejaVuSans-65" x="363.818359"/>
      <use xlink:href="#DejaVuSans-73" x="425.341797"/>
     </g>
    </g>
   </g>
   <g id="line2d_41">
    <path d="M 64.2325 382.557632 
L 73.352136 381.561034 
L 82.471773 380.564436 
L 91.591409 379.567838 
L 100.711045 378.571241 
L 109.830682 377.574643 
L 118.950318 376.578045 
L 128.069955 375.581447 
L 137.189591 374.584849 
L 146.309227 373.588251 
L 155.428864 372.591653 
L 164.5485 371.595055 
L 173.668136 370.598457 
L 182.787773 369.60186 
L 191.907409 368.605262 
L 201.027045 367.608664 
L 210.146682 366.612066 
L 219.266318 365.615468 
L 228.385955 364.61887 
L 237.505591 363.622272 
L 246.625227 362.625674 
L 255.744864 361.629076 
L 264.8645 360.632479 
L 273.984136 359.635881 
L 283.103773 358.639283 
L 292.223409 357.642685 
L 301.343045 356.646087 
L 310.462682 355.649489 
L 319.582318 354.652891 
L 328.701955 353.656293 
L 337.821591 352.659695 
L 346.941227 351.663098 
L 356.060864 350.6665 
L 365.1805 349.669902 
L 374.300136 348.673304 
L 383.419773 347.676706 
L 392.539409 346.680108 
L 401.659045 345.68351 
L 410.778682 344.686912 
L 419.898318 343.690315 
L 429.017955 342.693717 
L 438.137591 341.697119 
L 447.257227 340.700521 
L 456.376864 339.703923 
L 465.4965 338.707325 
L 474.616136 337.710727 
L 483.735773 336.714129 
L 492.855409 335.717531 
L 501.975045 334.720934 
L 511.094682 333.724336 
L 520.214318 332.727738 
L 529.333955 331.73114 
L 538.453591 330.734542 
L 547.573227 329.737944 
L 556.692864 328.741346 
L 565.8125 327.744748 
L 574.932136 326.74815 
L 584.051773 325.751553 
L 593.171409 324.754955 
L 602.291045 323.758357 
L 611.410682 322.761759 
L 620.530318 321.765161 
L 629.649955 320.768563 
L 638.769591 319.771965 
L 647.889227 318.775367 
L 657.008864 317.778769 
L 666.1285 316.782172 
L 675.248136 315.785574 
L 684.367773 314.788976 
L 693.487409 313.792378 
L 702.607045 312.79578 
L 711.726682 311.799182 
L 720.846318 310.802584 
L 729.965955 309.805986 
L 739.085591 308.809388 
L 748.205227 307.812791 
L 757.324864 306.816193 
L 766.4445 305.819595 
L 775.564136 304.822997 
L 784.683773 303.826399 
L 793.803409 302.829801 
L 802.923045 301.833203 
L 812.042682 300.836605 
L 821.162318 299.840007 
L 830.281955 298.84341 
L 839.401591 297.846812 
L 848.521227 296.850214 
L 857.640864 295.853616 
L 866.7605 294.857018 
L 875.880136 293.86042 
L 884.999773 292.863822 
L 894.119409 291.867224 
L 903.239045 290.870626 
L 912.358682 289.874029 
L 921.478318 288.877431 
L 930.597955 287.880833 
L 939.717591 286.884235 
L 948.837227 285.887637 
L 957.956864 284.891039 
L 967.0765 283.894441 
" clip-path="url(#p534977a3eb)" style="fill: none; stroke-dasharray: 3,4.95; stroke-dashoffset: 0; stroke: #4ac1fa; stroke-opacity: 0.9; stroke-width: 3"/>
   </g>
   <g id="line2d_42">
    <path d="M 64.2325 490.147756 
L 73.352136 490.756464 
L 82.471773 491.365173 
L 91.591409 491.973881 
L 100.711045 492.58259 
L 109.830682 493.191298 
L 118.950318 493.800006 
L 128.069955 494.408715 
L 137.189591 495.017423 
L 146.309227 495.626132 
L 155.428864 496.23484 
L 164.5485 496.843549 
L 173.668136 497.452257 
L 182.787773 498.060965 
L 191.907409 498.669674 
L 201.027045 499.278382 
L 210.146682 499.887091 
L 219.266318 500.495799 
L 228.385955 501.104507 
L 237.505591 501.713216 
L 246.625227 502.321924 
L 255.744864 502.930633 
L 264.8645 503.539341 
L 273.984136 504.14805 
L 283.103773 504.756758 
L 292.223409 505.365466 
L 301.343045 505.974175 
L 310.462682 506.582883 
L 319.582318 507.191592 
L 328.701955 507.8003 
L 337.821591 508.409008 
L 346.941227 509.017717 
L 356.060864 509.626425 
L 365.1805 510.235134 
L 374.300136 510.843842 
L 383.419773 511.452551 
L 392.539409 512.061259 
L 401.659045 512.669967 
L 410.778682 513.278676 
L 419.898318 513.887384 
L 429.017955 514.496093 
L 438.137591 515.104801 
L 447.257227 515.71351 
L 456.376864 516.322218 
L 465.4965 516.930926 
L 474.616136 517.539635 
L 483.735773 518.148343 
L 492.855409 518.757052 
L 501.975045 519.36576 
L 511.094682 519.974468 
L 520.214318 520.583177 
L 529.333955 521.191885 
L 538.453591 521.800594 
L 547.573227 522.409302 
L 556.692864 523.018011 
L 565.8125 523.626719 
L 574.932136 524.235427 
L 584.051773 524.844136 
L 593.171409 525.452844 
L 602.291045 526.061553 
L 611.410682 526.670261 
L 620.530318 527.278969 
L 629.649955 527.887678 
L 638.769591 528.496386 
L 647.889227 529.105095 
L 657.008864 529.713803 
L 666.1285 530.322512 
L 675.248136 530.93122 
L 684.367773 531.539928 
L 693.487409 532.148637 
L 702.607045 532.757345 
L 711.726682 533.366054 
L 720.846318 533.974762 
L 729.965955 534.58347 
L 739.085591 535.192179 
L 748.205227 535.800887 
L 757.324864 536.409596 
L 766.4445 537.018304 
L 775.564136 537.627013 
L 784.683773 538.235721 
L 793.803409 538.844429 
L 802.923045 539.453138 
L 812.042682 540.061846 
L 821.162318 540.670555 
L 830.281955 541.279263 
L 839.401591 541.887971 
L 848.521227 542.49668 
L 857.640864 543.105388 
L 866.7605 543.714097 
L 875.880136 544.322805 
L 884.999773 544.931514 
L 894.119409 545.540222 
L 903.239045 546.14893 
L 912.358682 546.757639 
L 921.478318 547.366347 
L 930.597955 547.975056 
L 939.717591 548.583764 
L 948.837227 549.192472 
L 957.956864 549.801181 
L 967.0765 550.409889 
" clip-path="url(#p534977a3eb)" style="fill: none; stroke-dasharray: 3,4.95; stroke-dashoffset: 0; stroke: #e9a942; stroke-opacity: 0.9; stroke-width: 3"/>
   </g>
   <g id="line2d_43">
    <path d="M 64.2325 503.476215 
L 73.352136 503.204784 
L 82.471773 502.933353 
L 91.591409 502.661922 
L 100.711045 502.390491 
L 109.830682 502.11906 
L 118.950318 501.847629 
L 128.069955 501.576198 
L 137.189591 501.304767 
L 146.309227 501.033336 
L 155.428864 500.761905 
L 164.5485 500.490474 
L 173.668136 500.219043 
L 182.787773 499.947612 
L 191.907409 499.676181 
L 201.027045 499.40475 
L 210.146682 499.13332 
L 219.266318 498.861889 
L 228.385955 498.590458 
L 237.505591 498.319027 
L 246.625227 498.047596 
L 255.744864 497.776165 
L 264.8645 497.504734 
L 273.984136 497.233303 
L 283.103773 496.961872 
L 292.223409 496.690441 
L 301.343045 496.41901 
L 310.462682 496.147579 
L 319.582318 495.876148 
L 328.701955 495.604717 
L 337.821591 495.333286 
L 346.941227 495.061855 
L 356.060864 494.790424 
L 365.1805 494.518993 
L 374.300136 494.247562 
L 383.419773 493.976131 
L 392.539409 493.7047 
L 401.659045 493.433269 
L 410.778682 493.161838 
L 419.898318 492.890407 
L 429.017955 492.618976 
L 438.137591 492.347545 
L 447.257227 492.076114 
L 456.376864 491.804683 
L 465.4965 491.533252 
L 474.616136 491.261821 
L 483.735773 490.99039 
L 492.855409 490.71896 
L 501.975045 490.447529 
L 511.094682 490.176098 
L 520.214318 489.904667 
L 529.333955 489.633236 
L 538.453591 489.361805 
L 547.573227 489.090374 
L 556.692864 488.818943 
L 565.8125 488.547512 
L 574.932136 488.276081 
L 584.051773 488.00465 
L 593.171409 487.733219 
L 602.291045 487.461788 
L 611.410682 487.190357 
L 620.530318 486.918926 
L 629.649955 486.647495 
L 638.769591 486.376064 
L 647.889227 486.104633 
L 657.008864 485.833202 
L 666.1285 485.561771 
L 675.248136 485.29034 
L 684.367773 485.018909 
L 693.487409 484.747478 
L 702.607045 484.476047 
L 711.726682 484.204616 
L 720.846318 483.933185 
L 729.965955 483.661754 
L 739.085591 483.390323 
L 748.205227 483.118892 
L 757.324864 482.847461 
L 766.4445 482.576031 
L 775.564136 482.3046 
L 784.683773 482.033169 
L 793.803409 481.761738 
L 802.923045 481.490307 
L 812.042682 481.218876 
L 821.162318 480.947445 
L 830.281955 480.676014 
L 839.401591 480.404583 
L 848.521227 480.133152 
L 857.640864 479.861721 
L 866.7605 479.59029 
L 875.880136 479.318859 
L 884.999773 479.047428 
L 894.119409 478.775997 
L 903.239045 478.504566 
L 912.358682 478.233135 
L 921.478318 477.961704 
L 930.597955 477.690273 
L 939.717591 477.418842 
L 948.837227 477.147411 
L 957.956864 476.87598 
L 967.0765 476.604549 
" clip-path="url(#p534977a3eb)" style="fill: none; stroke-dasharray: 3,4.95; stroke-dashoffset: 0; stroke: #9a5689; stroke-opacity: 0.9; stroke-width: 3"/>
   </g>
   <g id="line2d_44">
    <path d="M 64.2325 546.676593 
L 73.352136 546.565207 
L 82.471773 546.453821 
L 91.591409 546.342435 
L 100.711045 546.23105 
L 109.830682 546.119664 
L 118.950318 546.008278 
L 128.069955 545.896892 
L 137.189591 545.785506 
L 146.309227 545.674121 
L 155.428864 545.562735 
L 164.5485 545.451349 
L 173.668136 545.339963 
L 182.787773 545.228577 
L 191.907409 545.117191 
L 201.027045 545.005806 
L 210.146682 544.89442 
L 219.266318 544.783034 
L 228.385955 544.671648 
L 237.505591 544.560262 
L 246.625227 544.448876 
L 255.744864 544.337491 
L 264.8645 544.226105 
L 273.984136 544.114719 
L 283.103773 544.003333 
L 292.223409 543.891947 
L 301.343045 543.780561 
L 310.462682 543.669176 
L 319.582318 543.55779 
L 328.701955 543.446404 
L 337.821591 543.335018 
L 346.941227 543.223632 
L 356.060864 543.112246 
L 365.1805 543.000861 
L 374.300136 542.889475 
L 383.419773 542.778089 
L 392.539409 542.666703 
L 401.659045 542.555317 
L 410.778682 542.443931 
L 419.898318 542.332546 
L 429.017955 542.22116 
L 438.137591 542.109774 
L 447.257227 541.998388 
L 456.376864 541.887002 
L 465.4965 541.775616 
L 474.616136 541.664231 
L 483.735773 541.552845 
L 492.855409 541.441459 
L 501.975045 541.330073 
L 511.094682 541.218687 
L 520.214318 541.107302 
L 529.333955 540.995916 
L 538.453591 540.88453 
L 547.573227 540.773144 
L 556.692864 540.661758 
L 565.8125 540.550372 
L 574.932136 540.438987 
L 584.051773 540.327601 
L 593.171409 540.216215 
L 602.291045 540.104829 
L 611.410682 539.993443 
L 620.530318 539.882057 
L 629.649955 539.770672 
L 638.769591 539.659286 
L 647.889227 539.5479 
L 657.008864 539.436514 
L 666.1285 539.325128 
L 675.248136 539.213742 
L 684.367773 539.102357 
L 693.487409 538.990971 
L 702.607045 538.879585 
L 711.726682 538.768199 
L 720.846318 538.656813 
L 729.965955 538.545427 
L 739.085591 538.434042 
L 748.205227 538.322656 
L 757.324864 538.21127 
L 766.4445 538.099884 
L 775.564136 537.988498 
L 784.683773 537.877112 
L 793.803409 537.765727 
L 802.923045 537.654341 
L 812.042682 537.542955 
L 821.162318 537.431569 
L 830.281955 537.320183 
L 839.401591 537.208798 
L 848.521227 537.097412 
L 857.640864 536.986026 
L 866.7605 536.87464 
L 875.880136 536.763254 
L 884.999773 536.651868 
L 894.119409 536.540483 
L 903.239045 536.429097 
L 912.358682 536.317711 
L 921.478318 536.206325 
L 930.597955 536.094939 
L 939.717591 535.983553 
L 948.837227 535.872168 
L 957.956864 535.760782 
L 967.0765 535.649396 
" clip-path="url(#p534977a3eb)" style="fill: none; stroke-dasharray: 3,4.95; stroke-dashoffset: 0; stroke: #be503b; stroke-opacity: 0.9; stroke-width: 3"/>
   </g>
   <g id="line2d_45">
    <path d="M 64.2325 370.411936 
L 73.352136 370.079601 
L 82.471773 369.747266 
L 91.591409 369.414931 
L 100.711045 369.082597 
L 109.830682 368.750262 
L 118.950318 368.417927 
L 128.069955 368.085592 
L 137.189591 367.753258 
L 146.309227 367.420923 
L 155.428864 367.088588 
L 164.5485 366.756253 
L 173.668136 366.423919 
L 182.787773 366.091584 
L 191.907409 365.759249 
L 201.027045 365.426914 
L 210.146682 365.094579 
L 219.266318 364.762245 
L 228.385955 364.42991 
L 237.505591 364.097575 
L 246.625227 363.76524 
L 255.744864 363.432906 
L 264.8645 363.100571 
L 273.984136 362.768236 
L 283.103773 362.435901 
L 292.223409 362.103566 
L 301.343045 361.771232 
L 310.462682 361.438897 
L 319.582318 361.106562 
L 328.701955 360.774227 
L 337.821591 360.441893 
L 346.941227 360.109558 
L 356.060864 359.777223 
L 365.1805 359.444888 
L 374.300136 359.112553 
L 383.419773 358.780219 
L 392.539409 358.447884 
L 401.659045 358.115549 
L 410.778682 357.783214 
L 419.898318 357.45088 
L 429.017955 357.118545 
L 438.137591 356.78621 
L 447.257227 356.453875 
L 456.376864 356.12154 
L 465.4965 355.789206 
L 474.616136 355.456871 
L 483.735773 355.124536 
L 492.855409 354.792201 
L 501.975045 354.459867 
L 511.094682 354.127532 
L 520.214318 353.795197 
L 529.333955 353.462862 
L 538.453591 353.130528 
L 547.573227 352.798193 
L 556.692864 352.465858 
L 565.8125 352.133523 
L 574.932136 351.801188 
L 584.051773 351.468854 
L 593.171409 351.136519 
L 602.291045 350.804184 
L 611.410682 350.471849 
L 620.530318 350.139515 
L 629.649955 349.80718 
L 638.769591 349.474845 
L 647.889227 349.14251 
L 657.008864 348.810175 
L 666.1285 348.477841 
L 675.248136 348.145506 
L 684.367773 347.813171 
L 693.487409 347.480836 
L 702.607045 347.148502 
L 711.726682 346.816167 
L 720.846318 346.483832 
L 729.965955 346.151497 
L 739.085591 345.819162 
L 748.205227 345.486828 
L 757.324864 345.154493 
L 766.4445 344.822158 
L 775.564136 344.489823 
L 784.683773 344.157489 
L 793.803409 343.825154 
L 802.923045 343.492819 
L 812.042682 343.160484 
L 821.162318 342.828149 
L 830.281955 342.495815 
L 839.401591 342.16348 
L 848.521227 341.831145 
L 857.640864 341.49881 
L 866.7605 341.166476 
L 875.880136 340.834141 
L 884.999773 340.501806 
L 894.119409 340.169471 
L 903.239045 339.837137 
L 912.358682 339.504802 
L 921.478318 339.172467 
L 930.597955 338.840132 
L 939.717591 338.507797 
L 948.837227 338.175463 
L 957.956864 337.843128 
L 967.0765 337.510793 
" clip-path="url(#p534977a3eb)" style="fill: none; stroke-dasharray: 3,4.95; stroke-dashoffset: 0; stroke: #e2321d; stroke-opacity: 0.9; stroke-width: 3"/>
   </g>
   <g id="line2d_46">
    <path d="M 64.2325 192.196691 
L 73.352136 190.892821 
L 82.471773 189.58895 
L 91.591409 188.28508 
L 100.711045 186.981209 
L 109.830682 185.677339 
L 118.950318 184.373468 
L 128.069955 183.069598 
L 137.189591 181.765727 
L 146.309227 180.461857 
L 155.428864 179.157986 
L 164.5485 177.854116 
L 173.668136 176.550245 
L 182.787773 175.246375 
L 191.907409 173.942504 
L 201.027045 172.638634 
L 210.146682 171.334763 
L 219.266318 170.030893 
L 228.385955 168.727023 
L 237.505591 167.423152 
L 246.625227 166.119282 
L 255.744864 164.815411 
L 264.8645 163.511541 
L 273.984136 162.20767 
L 283.103773 160.9038 
L 292.223409 159.599929 
L 301.343045 158.296059 
L 310.462682 156.992188 
L 319.582318 155.688318 
L 328.701955 154.384447 
L 337.821591 153.080577 
L 346.941227 151.776706 
L 356.060864 150.472836 
L 365.1805 149.168965 
L 374.300136 147.865095 
L 383.419773 146.561224 
L 392.539409 145.257354 
L 401.659045 143.953484 
L 410.778682 142.649613 
L 419.898318 141.345743 
L 429.017955 140.041872 
L 438.137591 138.738002 
L 447.257227 137.434131 
L 456.376864 136.130261 
L 465.4965 134.82639 
L 474.616136 133.52252 
L 483.735773 132.218649 
L 492.855409 130.914779 
L 501.975045 129.610908 
L 511.094682 128.307038 
L 520.214318 127.003167 
L 529.333955 125.699297 
L 538.453591 124.395426 
L 547.573227 123.091556 
L 556.692864 121.787685 
L 565.8125 120.483815 
L 574.932136 119.179944 
L 584.051773 117.876074 
L 593.171409 116.572204 
L 602.291045 115.268333 
L 611.410682 113.964463 
L 620.530318 112.660592 
L 629.649955 111.356722 
L 638.769591 110.052851 
L 647.889227 108.748981 
L 657.008864 107.44511 
L 666.1285 106.14124 
L 675.248136 104.837369 
L 684.367773 103.533499 
L 693.487409 102.229628 
L 702.607045 100.925758 
L 711.726682 99.621887 
L 720.846318 98.318017 
L 729.965955 97.014146 
L 739.085591 95.710276 
L 748.205227 94.406405 
L 757.324864 93.102535 
L 766.4445 91.798665 
L 775.564136 90.494794 
L 784.683773 89.190924 
L 793.803409 87.887053 
L 802.923045 86.583183 
L 812.042682 85.279312 
L 821.162318 83.975442 
L 830.281955 82.671571 
L 839.401591 81.367701 
L 848.521227 80.06383 
L 857.640864 78.75996 
L 866.7605 77.456089 
L 875.880136 76.152219 
L 884.999773 74.848348 
L 894.119409 73.544478 
L 903.239045 72.240607 
L 912.358682 70.936737 
L 921.478318 69.632866 
L 930.597955 68.328996 
L 939.717591 67.025126 
L 948.837227 65.721255 
L 957.956864 64.417385 
L 967.0765 63.113514 
" clip-path="url(#p534977a3eb)" style="fill: none; stroke-dasharray: 3,4.95; stroke-dashoffset: 0; stroke: #48b585; stroke-opacity: 0.9; stroke-width: 3"/>
   </g>
   <g id="line2d_47">
    <path d="M 64.2325 385.853873 
L 81.935324 378.729441 
L 99.638147 373.420859 
L 117.340971 376.826376 
L 135.043794 374.380823 
L 152.746618 369.315865 
L 170.449441 374.466586 
L 188.152265 369.940336 
L 205.855088 365.464091 
L 223.557912 362.433024 
L 241.260735 363.675569 
L 258.963559 370.020575 
L 276.666382 369.375173 
L 294.369206 361.241645 
L 312.072029 355.578091 
L 329.774853 352.507196 
L 347.477676 350.678555 
L 365.1805 345.640344 
L 382.883324 345.620865 
L 400.586147 346.450295 
L 418.288971 343.703264 
L 435.991794 341.958932 
L 453.694618 340.824826 
L 471.397441 328.009513 
L 489.100265 325.970389 
L 506.803088 323.130617 
L 524.505912 327.542032 
L 542.208735 327.665007 
L 559.911559 317.405721 
L 577.614382 339.886085 
L 595.317206 323.016945 
L 613.020029 321.105739 
L 630.722853 316.634145 
L 648.425676 316.276557 
L 666.1285 307.80492 
L 683.831324 324.408631 
L 701.534147 313.170484 
L 719.236971 301.984376 
L 736.939794 358.389082 
L 754.642618 348.79991 
L 772.345441 297.02844 
L 790.048265 294.018014 
L 807.751088 292.738838 
L 825.453912 313.471381 
L 843.156735 294.871864 
L 860.859559 301.603821 
L 878.562382 293.513902 
L 896.265206 292.640864 
L 913.968029 279.525526 
L 931.670853 280.746558 
L 949.373676 274.472197 
L 967.0765 273.815747 
" clip-path="url(#p534977a3eb)" style="fill: none; stroke: #4ac1fa; stroke-width: 1.5; stroke-linecap: square"/>
   </g>
   <g id="line2d_48">
    <path d="M 64.2325 493.312256 
L 81.935324 495.961314 
L 99.638147 494.703651 
L 117.340971 501.166109 
L 135.043794 497.892871 
L 152.746618 503.511654 
L 170.449441 498.060908 
L 188.152265 513.637789 
L 205.855088 497.919036 
L 223.557912 495.53686 
L 241.260735 491.771139 
L 258.963559 508.896114 
L 276.666382 507.621299 
L 294.369206 502.699958 
L 312.072029 504.979218 
L 329.774853 497.669887 
L 347.477676 508.425726 
L 365.1805 505.923483 
L 382.883324 502.614486 
L 400.586147 506.430211 
L 418.288971 504.973403 
L 435.991794 505.708639 
L 453.694618 506.050819 
L 471.397441 504.514353 
L 489.100265 505.925227 
L 506.803088 501.467878 
L 524.505912 501.403047 
L 542.208735 519.195229 
L 559.911559 522.804833 
L 577.614382 533.435662 
L 595.317206 539.235564 
L 613.020029 537.22871 
L 630.722853 539.046595 
L 648.425676 538.927108 
L 666.1285 538.97217 
L 683.831324 542.3428 
L 701.534147 541.116826 
L 719.236971 541.700595 
L 736.939794 552.194785 
L 754.642618 551.009221 
L 772.345441 541.162178 
L 790.048265 541.236312 
L 807.751088 541.65815 
L 825.453912 546.085845 
L 843.156735 541.547385 
L 860.859559 541.878517 
L 878.562382 541.641869 
L 896.265206 541.709026 
L 913.968029 539.927482 
L 931.670853 540.53073 
L 949.373676 540.347866 
L 967.0765 540.785984 
" clip-path="url(#p534977a3eb)" style="fill: none; stroke: #e9a942; stroke-width: 1.5; stroke-linecap: square"/>
   </g>
   <g id="line2d_49">
    <path d="M 64.2325 508.775465 
L 81.935324 508.035287 
L 99.638147 506.835187 
L 117.340971 503.569507 
L 135.043794 502.065603 
L 152.746618 501.269606 
L 170.449441 491.347557 
L 188.152265 496.494498 
L 205.855088 498.633049 
L 223.557912 499.295023 
L 241.260735 499.132509 
L 258.963559 501.285305 
L 276.666382 498.644096 
L 294.369206 493.13666 
L 312.072029 495.690362 
L 329.774853 494.993792 
L 347.477676 495.027225 
L 365.1805 493.16079 
L 382.883324 492.435148 
L 400.586147 495.321435 
L 418.288971 491.332731 
L 435.991794 486.050313 
L 453.694618 489.27471 
L 471.397441 487.641434 
L 489.100265 488.295559 
L 506.803088 488.121998 
L 524.505912 488.864211 
L 542.208735 487.621956 
L 559.911559 486.128808 
L 577.614382 493.13259 
L 595.317206 484.050437 
L 613.020029 482.834929 
L 630.722853 487.209421 
L 648.425676 479.302948 
L 666.1285 484.151027 
L 683.831324 487.471653 
L 701.534147 482.68666 
L 719.236971 484.31761 
L 736.939794 506.248219 
L 754.642618 501.866458 
L 772.345441 483.964093 
L 790.048265 483.650404 
L 807.751088 481.903165 
L 825.453912 484.333891 
L 843.156735 476.582372 
L 860.859559 473.383849 
L 878.562382 474.860717 
L 896.265206 478.784591 
L 913.968029 474.449636 
L 931.670853 473.822258 
L 949.373676 474.747626 
L 967.0765 479.865495 
" clip-path="url(#p534977a3eb)" style="fill: none; stroke: #9a5689; stroke-width: 1.5; stroke-linecap: square"/>
   </g>
   <g id="line2d_50">
    <path d="M 64.2325 545.89455 
L 81.935324 545.900946 
L 99.638147 545.571267 
L 117.340971 545.804135 
L 135.043794 545.259032 
L 152.746618 544.89999 
L 170.449441 544.461291 
L 188.152265 544.667412 
L 205.855088 544.251099 
L 223.557912 544.739221 
L 241.260735 544.9122 
L 258.963559 544.899118 
L 276.666382 544.433672 
L 294.369206 543.299857 
L 312.072029 543.046347 
L 329.774853 543.508886 
L 347.477676 543.153623 
L 365.1805 543.183277 
L 382.883324 543.210314 
L 400.586147 543.105945 
L 418.288971 542.691085 
L 435.991794 542.647767 
L 453.694618 542.389025 
L 471.397441 542.416934 
L 489.100265 542.304134 
L 506.803088 542.10528 
L 524.505912 541.692455 
L 542.208735 541.52529 
L 559.911559 540.284198 
L 577.614382 542.359371 
L 595.317206 540.95344 
L 613.020029 540.681906 
L 630.722853 538.309615 
L 648.425676 538.310487 
L 666.1285 539.426859 
L 683.831324 539.476863 
L 701.534147 536.49958 
L 719.236971 535.151212 
L 736.939794 546.646938 
L 754.642618 545.024128 
L 772.345441 537.663631 
L 790.048265 538.560508 
L 807.751088 538.434044 
L 825.453912 537.910453 
L 843.156735 534.603491 
L 860.859559 535.959709 
L 878.562382 534.273813 
L 896.265206 532.342256 
L 913.968029 533.234191 
L 931.670853 535.242498 
L 949.373676 536.806873 
L 967.0765 536.345497 
" clip-path="url(#p534977a3eb)" style="fill: none; stroke: #be503b; stroke-width: 1.5; stroke-linecap: square"/>
   </g>
   <g id="line2d_51">
    <path d="M 64.2325 367.523565 
L 81.935324 364.523896 
L 99.638147 362.500762 
L 117.340971 363.03162 
L 135.043794 363.878784 
L 152.746618 366.458941 
L 170.449441 367.792773 
L 188.152265 372.611198 
L 205.855088 359.247874 
L 223.557912 357.999514 
L 241.260735 363.985479 
L 258.963559 379.267277 
L 276.666382 376.400468 
L 294.369206 363.189482 
L 312.072029 361.710289 
L 329.774853 364.533199 
L 347.477676 361.948972 
L 365.1805 361.366074 
L 382.883324 360.80062 
L 400.586147 352.100766 
L 418.288971 354.014007 
L 435.991794 353.020611 
L 453.694618 358.250989 
L 471.397441 359.349918 
L 489.100265 358.719633 
L 506.803088 355.631294 
L 524.505912 355.238238 
L 542.208735 355.272543 
L 559.911559 350.911423 
L 577.614382 357.346262 
L 595.317206 342.887207 
L 613.020029 344.205922 
L 630.722853 341.519651 
L 648.425676 340.969315 
L 666.1285 338.739768 
L 683.831324 343.077921 
L 701.534147 335.126385 
L 719.236971 337.898128 
L 736.939794 399.416923 
L 754.642618 386.507416 
L 772.345441 334.546976 
L 790.048265 335.834293 
L 807.751088 331.211815 
L 825.453912 357.390452 
L 843.156735 340.848374 
L 860.859559 337.193709 
L 878.562382 338.251646 
L 896.265206 337.198651 
L 913.968029 334.300444 
L 931.670853 327.425161 
L 949.373676 332.580533 
L 967.0765 340.233788 
" clip-path="url(#p534977a3eb)" style="fill: none; stroke: #e2321d; stroke-width: 1.5; stroke-linecap: square"/>
   </g>
   <g id="line2d_52">
    <path d="M 64.2325 205.903105 
L 81.935324 195.017895 
L 99.638147 185.890389 
L 117.340971 197.160806 
L 135.043794 176.830912 
L 152.746618 175.721808 
L 170.449441 164.098455 
L 188.152265 188.479268 
L 205.855088 152.16461 
L 223.557912 155.442791 
L 241.260735 153.043463 
L 258.963559 197.557351 
L 276.666382 186.847155 
L 294.369206 158.699458 
L 312.072029 159.478883 
L 329.774853 145.933277 
L 347.477676 153.95255 
L 365.1805 148.552681 
L 382.883324 143.687159 
L 400.586147 149.366703 
L 418.288971 145.980955 
L 435.991794 141.911139 
L 453.694618 144.862257 
L 471.397441 127.637273 
L 489.100265 132.028047 
L 506.803088 125.993241 
L 524.505912 102.144449 
L 542.208735 117.985015 
L 559.911559 114.523389 
L 577.614382 120.883222 
L 595.317206 104.469062 
L 613.020029 109.218877 
L 630.722853 100.066369 
L 648.425676 96.763768 
L 666.1285 83.444052 
L 683.831324 76.286478 
L 701.534147 82.395999 
L 719.236971 84.25662 
L 736.939794 192.389478 
L 754.642618 152.048612 
L 772.345441 68.488153 
L 790.048265 68.277961 
L 807.751088 80.576661 
L 825.453912 96.636722 
L 843.156735 57.381994 
L 860.859559 49.287133 
L 878.562382 76.801056 
L 896.265206 108.549925 
L 913.968029 59.166736 
L 931.670853 79.612337 
L 949.373676 74.263344 
L 967.0765 69.906295 
" clip-path="url(#p534977a3eb)" style="fill: none; stroke: #48b585; stroke-width: 6; stroke-linecap: square"/>
   </g>
   <g id="patch_3">
    <path d="M 64.2325 578.54175 
L 64.2325 24.14175 
" style="fill: none; stroke: #ffffff; stroke-linejoin: miter; stroke-linecap: square"/>
   </g>
   <g id="patch_4">
    <path d="M 967.0765 578.54175 
L 967.0765 24.14175 
" style="fill: none; stroke: #ffffff; stroke-linejoin: miter; stroke-linecap: square"/>
   </g>
   <g id="patch_5">
    <path d="M 64.2325 578.54175 
L 967.0765 578.54175 
" style="fill: none; stroke: #ffffff; stroke-linejoin: miter; stroke-linecap: square"/>
   </g>
   <g id="patch_6">
    <path d="M 64.2325 24.14175 
L 967.0765 24.14175 
" style="fill: none; stroke: #ffffff; stroke-linejoin: miter; stroke-linecap: square"/>
   </g>
   <g id="text_23">
    <!-- Enterprise Linux Instances by Distribution (System Age &gt; 1 Week) -->
    <g transform="translate(64.2325 18.14175) scale(0.144 -0.144)">
     <defs>
      <path id="DejaVuSans-45" d="M 628 4666 
L 3578 4666 
L 3578 4134 
L 1259 4134 
L 1259 2753 
L 3481 2753 
L 3481 2222 
L 1259 2222 
L 1259 531 
L 3634 531 
L 3634 0 
L 628 0 
L 628 4666 
z
" transform="scale(0.015625)"/>
      <path id="DejaVuSans-72" d="M 2631 2963 
Q 2534 3019 2420 3045 
Q 2306 3072 2169 3072 
Q 1681 3072 1420 2755 
Q 1159 2438 1159 1844 
L 1159 0 
L 581 0 
L 581 3500 
L 1159 3500 
L 1159 2956 
Q 1341 3275 1631 3429 
Q 1922 3584 2338 3584 
Q 2397 3584 2469 3576 
Q 2541 3569 2628 3553 
L 2631 2963 
z
" transform="scale(0.015625)"/>
      <path id="DejaVuSans-70" d="M 1159 525 
L 1159 -1331 
L 581 -1331 
L 581 3500 
L 1159 3500 
L 1159 2969 
Q 1341 3281 1617 3432 
Q 1894 3584 2278 3584 
Q 2916 3584 3314 3078 
Q 3713 2572 3713 1747 
Q 3713 922 3314 415 
Q 2916 -91 2278 -91 
Q 1894 -91 1617 61 
Q 1341 213 1159 525 
z
M 3116 1747 
Q 3116 2381 2855 2742 
Q 2594 3103 2138 3103 
Q 1681 3103 1420 2742 
Q 1159 2381 1159 1747 
Q 1159 1113 1420 752 
Q 1681 391 2138 391 
Q 2594 391 2855 752 
Q 3116 1113 3116 1747 
z
" transform="scale(0.015625)"/>
      <path id="DejaVuSans-69" d="M 603 3500 
L 1178 3500 
L 1178 0 
L 603 0 
L 603 3500 
z
M 603 4863 
L 1178 4863 
L 1178 4134 
L 603 4134 
L 603 4863 
z
" transform="scale(0.015625)"/>
      <path id="DejaVuSans-20" transform="scale(0.015625)"/>
      <path id="DejaVuSans-4c" d="M 628 4666 
L 1259 4666 
L 1259 531 
L 3531 531 
L 3531 0 
L 628 0 
L 628 4666 
z
" transform="scale(0.015625)"/>
      <path id="DejaVuSans-75" d="M 544 1381 
L 544 3500 
L 1119 3500 
L 1119 1403 
Q 1119 906 1312 657 
Q 1506 409 1894 409 
Q 2359 409 2629 706 
Q 2900 1003 2900 1516 
L 2900 3500 
L 3475 3500 
L 3475 0 
L 2900 0 
L 2900 538 
Q 2691 219 2414 64 
Q 2138 -91 1772 -91 
Q 1169 -91 856 284 
Q 544 659 544 1381 
z
M 1991 3584 
L 1991 3584 
z
" transform="scale(0.015625)"/>
      <path id="DejaVuSans-78" d="M 3513 3500 
L 2247 1797 
L 3578 0 
L 2900 0 
L 1881 1375 
L 863 0 
L 184 0 
L 1544 1831 
L 300 3500 
L 978 3500 
L 1906 2253 
L 2834 3500 
L 3513 3500 
z
" transform="scale(0.015625)"/>
      <path id="DejaVuSans-62" d="M 3116 1747 
Q 3116 2381 2855 2742 
Q 2594 3103 2138 3103 
Q 1681 3103 1420 2742 
Q 1159 2381 1159 1747 
Q 1159 1113 1420 752 
Q 1681 391 2138 391 
Q 2594 391 2855 752 
Q 3116 1113 3116 1747 
z
M 1159 2969 
Q 1341 3281 1617 3432 
Q 1894 3584 2278 3584 
Q 2916 3584 3314 3078 
Q 3713 2572 3713 1747 
Q 3713 922 3314 415 
Q 2916 -91 2278 -91 
Q 1894 -91 1617 61 
Q 1341 213 1159 525 
L 1159 0 
L 581 0 
L 581 4863 
L 1159 4863 
L 1159 2969 
z
" transform="scale(0.015625)"/>
      <path id="DejaVuSans-79" d="M 2059 -325 
Q 1816 -950 1584 -1140 
Q 1353 -1331 966 -1331 
L 506 -1331 
L 506 -850 
L 844 -850 
Q 1081 -850 1212 -737 
Q 1344 -625 1503 -206 
L 1606 56 
L 191 3500 
L 800 3500 
L 1894 763 
L 2988 3500 
L 3597 3500 
L 2059 -325 
z
" transform="scale(0.015625)"/>
      <path id="DejaVuSans-6f" d="M 1959 3097 
Q 1497 3097 1228 2736 
Q 959 2375 959 1747 
Q 959 1119 1226 758 
Q 1494 397 1959 397 
Q 2419 397 2687 759 
Q 2956 1122 2956 1747 
Q 2956 2369 2687 2733 
Q 2419 3097 1959 3097 
z
M 1959 3584 
Q 2709 3584 3137 3096 
Q 3566 2609 3566 1747 
Q 3566 888 3137 398 
Q 2709 -91 1959 -91 
Q 1206 -91 779 398 
Q 353 888 353 1747 
Q 353 2609 779 3096 
Q 1206 3584 1959 3584 
z
" transform="scale(0.015625)"/>
      <path id="DejaVuSans-28" d="M 1984 4856 
Q 1566 4138 1362 3434 
Q 1159 2731 1159 2009 
Q 1159 1288 1364 580 
Q 1569 -128 1984 -844 
L 1484 -844 
Q 1016 -109 783 600 
Q 550 1309 550 2009 
Q 550 2706 781 3412 
Q 1013 4119 1484 4856 
L 1984 4856 
z
" transform="scale(0.015625)"/>
      <path id="DejaVuSans-53" d="M 3425 4513 
L 3425 3897 
Q 3066 4069 2747 4153 
Q 2428 4238 2131 4238 
Q 1616 4238 1336 4038 
Q 1056 3838 1056 3469 
Q 1056 3159 1242 3001 
Q 1428 2844 1947 2747 
L 2328 2669 
Q 3034 2534 3370 2195 
Q 3706 1856 3706 1288 
Q 3706 609 3251 259 
Q 2797 -91 1919 -91 
Q 1588 -91 1214 -16 
Q 841 59 441 206 
L 441 856 
Q 825 641 1194 531 
Q 1563 422 1919 422 
Q 2459 422 2753 634 
Q 3047 847 3047 1241 
Q 3047 1584 2836 1778 
Q 2625 1972 2144 2069 
L 1759 2144 
Q 1053 2284 737 2584 
Q 422 2884 422 3419 
Q 422 4038 858 4394 
Q 1294 4750 2059 4750 
Q 2388 4750 2728 4690 
Q 3069 4631 3425 4513 
z
" transform="scale(0.015625)"/>
      <path id="DejaVuSans-6d" d="M 3328 2828 
Q 3544 3216 3844 3400 
Q 4144 3584 4550 3584 
Q 5097 3584 5394 3201 
Q 5691 2819 5691 2113 
L 5691 0 
L 5113 0 
L 5113 2094 
Q 5113 2597 4934 2840 
Q 4756 3084 4391 3084 
Q 3944 3084 3684 2787 
Q 3425 2491 3425 1978 
L 3425 0 
L 2847 0 
L 2847 2094 
Q 2847 2600 2669 2842 
Q 2491 3084 2119 3084 
Q 1678 3084 1418 2786 
Q 1159 2488 1159 1978 
L 1159 0 
L 581 0 
L 581 3500 
L 1159 3500 
L 1159 2956 
Q 1356 3278 1631 3431 
Q 1906 3584 2284 3584 
Q 2666 3584 2933 3390 
Q 3200 3197 3328 2828 
z
" transform="scale(0.015625)"/>
      <path id="DejaVuSans-41" d="M 2188 4044 
L 1331 1722 
L 3047 1722 
L 2188 4044 
z
M 1831 4666 
L 2547 4666 
L 4325 0 
L 3669 0 
L 3244 1197 
L 1141 1197 
L 716 0 
L 50 0 
L 1831 4666 
z
" transform="scale(0.015625)"/>
      <path id="DejaVuSans-67" d="M 2906 1791 
Q 2906 2416 2648 2759 
Q 2391 3103 1925 3103 
Q 1463 3103 1205 2759 
Q 947 2416 947 1791 
Q 947 1169 1205 825 
Q 1463 481 1925 481 
Q 2391 481 2648 825 
Q 2906 1169 2906 1791 
z
M 3481 434 
Q 3481 -459 3084 -895 
Q 2688 -1331 1869 -1331 
Q 1566 -1331 1297 -1286 
Q 1028 -1241 775 -1147 
L 775 -588 
Q 1028 -725 1275 -790 
Q 1522 -856 1778 -856 
Q 2344 -856 2625 -561 
Q 2906 -266 2906 331 
L 2906 616 
Q 2728 306 2450 153 
Q 2172 0 1784 0 
Q 1141 0 747 490 
Q 353 981 353 1791 
Q 353 2603 747 3093 
Q 1141 3584 1784 3584 
Q 2172 3584 2450 3431 
Q 2728 3278 2906 2969 
L 2906 3500 
L 3481 3500 
L 3481 434 
z
" transform="scale(0.015625)"/>
      <path id="DejaVuSans-3e" d="M 678 3150 
L 678 3719 
L 4684 2266 
L 4684 1747 
L 678 294 
L 678 863 
L 3897 2003 
L 678 3150 
z
" transform="scale(0.015625)"/>
      <path id="DejaVuSans-57" d="M 213 4666 
L 850 4666 
L 1831 722 
L 2809 4666 
L 3519 4666 
L 4500 722 
L 5478 4666 
L 6119 4666 
L 4947 0 
L 4153 0 
L 3169 4050 
L 2175 0 
L 1381 0 
L 213 4666 
z
" transform="scale(0.015625)"/>
      <path id="DejaVuSans-29" d="M 513 4856 
L 1013 4856 
Q 1481 4119 1714 3412 
Q 1947 2706 1947 2009 
Q 1947 1309 1714 600 
Q 1481 -109 1013 -844 
L 513 -844 
Q 928 -128 1133 580 
Q 1338 1288 1338 2009 
Q 1338 2731 1133 3434 
Q 928 4138 513 4856 
z
" transform="scale(0.015625)"/>
     </defs>
     <use xlink:href="#DejaVuSans-45"/>
     <use xlink:href="#DejaVuSans-6e" x="63.183594"/>
     <use xlink:href="#DejaVuSans-74" x="126.5625"/>
     <use xlink:href="#DejaVuSans-65" x="165.771484"/>
     <use xlink:href="#DejaVuSans-72" x="227.294922"/>
     <use xlink:href="#DejaVuSans-70" x="268.408203"/>
     <use xlink:href="#DejaVuSans-72" x="331.884766"/>
     <use xlink:href="#DejaVuSans-69" x="372.998047"/>
     <use xlink:href="#DejaVuSans-73" x="400.78125"/>
     <use xlink:href="#DejaVuSans-65" x="452.880859"/>
     <use xlink:href="#DejaVuSans-20" x="514.404297"/>
     <use xlink:href="#DejaVuSans-4c" x="546.191406"/>
     <use xlink:href="#DejaVuSans-69" x="601.904297"/>
     <use xlink:href="#DejaVuSans-6e" x="629.6875"/>
     <use xlink:href="#DejaVuSans-75" x="693.066406"/>
     <use xlink:href="#DejaVuSans-78" x="756.445312"/>
     <use xlink:href="#DejaVuSans-20" x="815.625"/>
     <use xlink:href="#DejaVuSans-49" x="847.412109"/>
     <use xlink:href="#DejaVuSans-6e" x="876.904297"/>
     <use xlink:href="#DejaVuSans-73" x="940.283203"/>
     <use xlink:href="#DejaVuSans-74" x="992.382812"/>
     <use xlink:href="#DejaVuSans-61" x="1031.591797"/>
     <use xlink:href="#DejaVuSans-6e" x="1092.871094"/>
     <use xlink:href="#DejaVuSans-63" x="1156.25"/>
     <use xlink:href="#DejaVuSans-65" x="1211.230469"/>
     <use xlink:href="#DejaVuSans-73" x="1272.753906"/>
     <use xlink:href="#DejaVuSans-20" x="1324.853516"/>
     <use xlink:href="#DejaVuSans-62" x="1356.640625"/>
     <use xlink:href="#DejaVuSans-79" x="1420.117188"/>
     <use xlink:href="#DejaVuSans-20" x="1479.296875"/>
     <use xlink:href="#DejaVuSans-44" x="1511.083984"/>
     <use xlink:href="#DejaVuSans-69" x="1588.085938"/>
     <use xlink:href="#DejaVuSans-73" x="1615.869141"/>
     <use xlink:href="#DejaVuSans-74" x="1667.96875"/>
     <use xlink:href="#DejaVuSans-72" x="1707.177734"/>
     <use xlink:href="#DejaVuSans-69" x="1748.291016"/>
     <use xlink:href="#DejaVuSans-62" x="1776.074219"/>
     <use xlink:href="#DejaVuSans-75" x="1839.550781"/>
     <use xlink:href="#DejaVuSans-74" x="1902.929688"/>
     <use xlink:href="#DejaVuSans-69" x="1942.138672"/>
     <use xlink:href="#DejaVuSans-6f" x="1969.921875"/>
     <use xlink:href="#DejaVuSans-6e" x="2031.103516"/>
     <use xlink:href="#DejaVuSans-20" x="2094.482422"/>
     <use xlink:href="#DejaVuSans-28" x="2126.269531"/>
     <use xlink:href="#DejaVuSans-53" x="2165.283203"/>
     <use xlink:href="#DejaVuSans-79" x="2228.759766"/>
     <use xlink:href="#DejaVuSans-73" x="2287.939453"/>
     <use xlink:href="#DejaVuSans-74" x="2340.039062"/>
     <use xlink:href="#DejaVuSans-65" x="2379.248047"/>
     <use xlink:href="#DejaVuSans-6d" x="2440.771484"/>
     <use xlink:href="#DejaVuSans-20" x="2538.183594"/>
     <use xlink:href="#DejaVuSans-41" x="2569.970703"/>
     <use xlink:href="#DejaVuSans-67" x="2638.378906"/>
     <use xlink:href="#DejaVuSans-65" x="2701.855469"/>
     <use xlink:href="#DejaVuSans-20" x="2763.378906"/>
     <use xlink:href="#DejaVuSans-3e" x="2795.166016"/>
     <use xlink:href="#DejaVuSans-20" x="2878.955078"/>
     <use xlink:href="#DejaVuSans-31" x="2910.742188"/>
     <use xlink:href="#DejaVuSans-20" x="2974.365234"/>
     <use xlink:href="#DejaVuSans-57" x="3006.152344"/>
     <use xlink:href="#DejaVuSans-65" x="3099.154297"/>
     <use xlink:href="#DejaVuSans-65" x="3160.677734"/>
     <use xlink:href="#DejaVuSans-6b" x="3222.201172"/>
     <use xlink:href="#DejaVuSans-29" x="3280.111328"/>
    </g>
   </g>
   <g id="text_24">
    <!-- 2025-10-09 11:55 UTC -->
    <g transform="translate(804.1945 18.14175) scale(0.144 -0.144)">
     <defs>
      <path id="DejaVuSans-3a" d="M 750 794 
L 1409 794 
L 1409 0 
L 750 0 
L 750 794 
z
M 750 3309 
L 1409 3309 
L 1409 2516 
L 750 2516 
L 750 3309 
z
" transform="scale(0.015625)"/>
      <path id="DejaVuSans-55" d="M 556 4666 
L 1191 4666 
L 1191 1831 
Q 1191 1081 1462 751 
Q 1734 422 2344 422 
Q 2950 422 3222 751 
Q 3494 1081 3494 1831 
L 3494 4666 
L 4128 4666 
L 4128 1753 
Q 4128 841 3676 375 
Q 3225 -91 2344 -91 
Q 1459 -91 1007 375 
Q 556 841 556 1753 
L 556 4666 
z
" transform="scale(0.015625)"/>
      <path id="DejaVuSans-54" d="M -19 4666 
L 3928 4666 
L 3928 4134 
L 2272 4134 
L 2272 0 
L 1638 0 
L 1638 4134 
L -19 4134 
L -19 4666 
z
" transform="scale(0.015625)"/>
      <path id="DejaVuSans-43" d="M 4122 4306 
L 4122 3641 
Q 3803 3938 3442 4084 
Q 3081 4231 2675 4231 
Q 1875 4231 1450 3742 
Q 1025 3253 1025 2328 
Q 1025 1406 1450 917 
Q 1875 428 2675 428 
Q 3081 428 3442 575 
Q 3803 722 4122 1019 
L 4122 359 
Q 3791 134 3420 21 
Q 3050 -91 2638 -91 
Q 1578 -91 968 557 
Q 359 1206 359 2328 
Q 359 3453 968 4101 
Q 1578 4750 2638 4750 
Q 3056 4750 3426 4639 
Q 3797 4528 4122 4306 
z
" transform="scale(0.015625)"/>
     </defs>
     <use xlink:href="#DejaVuSans-32"/>
     <use xlink:href="#DejaVuSans-30" x="63.623047"/>
     <use xlink:href="#DejaVuSans-32" x="127.246094"/>
     <use xlink:href="#DejaVuSans-35" x="190.869141"/>
     <use xlink:href="#DejaVuSans-2d" x="254.492188"/>
     <use xlink:href="#DejaVuSans-31" x="290.576172"/>
     <use xlink:href="#DejaVuSans-30" x="354.199219"/>
     <use xlink:href="#DejaVuSans-2d" x="417.822266"/>
     <use xlink:href="#DejaVuSans-30" x="453.90625"/>
     <use xlink:href="#DejaVuSans-39" x="517.529297"/>
     <use xlink:href="#DejaVuSans-20" x="581.152344"/>
     <use xlink:href="#DejaVuSans-31" x="612.939453"/>
     <use xlink:href="#DejaVuSans-31" x="676.5625"/>
     <use xlink:href="#DejaVuSans-3a" x="740.185547"/>
     <use xlink:href="#DejaVuSans-35" x="773.876953"/>
     <use xlink:href="#DejaVuSans-35" x="837.5"/>
     <use xlink:href="#DejaVuSans-20" x="901.123047"/>
     <use xlink:href="#DejaVuSans-55" x="932.910156"/>
     <use xlink:href="#DejaVuSans-54" x="1006.103516"/>
     <use xlink:href="#DejaVuSans-43" x="1061.3125"/>
    </g>
   </g>
   <g id="legend_1">
    <g id="patch_7">
     <path d="M 71.2325 134.888625 
L 180.20125 134.888625 
Q 182.20125 134.888625 182.20125 132.888625 
L 182.20125 31.14175 
Q 182.20125 29.14175 180.20125 29.14175 
L 71.2325 29.14175 
Q 69.2325 29.14175 69.2325 31.14175 
L 69.2325 132.888625 
Q 69.2325 134.888625 71.2325 134.888625 
z
" style="fill: #e5e5e5; opacity: 0.8; stroke: #cccccc; stroke-width: 0.5; stroke-linejoin: miter"/>
    </g>
    <g id="text_25">
     <!-- Distribution -->
     <g transform="translate(96.548125 40.740188) scale(0.1 -0.1)">
      <use xlink:href="#DejaVuSans-44"/>
      <use xlink:href="#DejaVuSans-69" x="77.001953"/>
      <use xlink:href="#DejaVuSans-73" x="104.785156"/>
      <use xlink:href="#DejaVuSans-74" x="156.884766"/>
      <use xlink:href="#DejaVuSans-72" x="196.09375"/>
      <use xlink:href="#DejaVuSans-69" x="237.207031"/>
      <use xlink:href="#DejaVuSans-62" x="264.990234"/>
      <use xlink:href="#DejaVuSans-75" x="328.466797"/>
      <use xlink:href="#DejaVuSans-74" x="391.845703"/>
      <use xlink:href="#DejaVuSans-69" x="431.054688"/>
      <use xlink:href="#DejaVuSans-6f" x="458.837891"/>
      <use xlink:href="#DejaVuSans-6e" x="520.019531"/>
     </g>
    </g>
    <g id="line2d_53">
     <path d="M 73.2325 51.918313 
L 83.2325 51.918313 
L 93.2325 51.918313 
" style="fill: none; stroke: #4ac1fa; stroke-width: 1.5; stroke-linecap: square"/>
    </g>
    <g id="text_26">
     <!-- AlmaLinux -->
     <g transform="translate(101.2325 55.418313) scale(0.1 -0.1)">
      <defs>
       <path id="DejaVuSans-6c" d="M 603 4863 
L 1178 4863 
L 1178 0 
L 603 0 
L 603 4863 
z
" transform="scale(0.015625)"/>
      </defs>
      <use xlink:href="#DejaVuSans-41"/>
      <use xlink:href="#DejaVuSans-6c" x="68.408203"/>
      <use xlink:href="#DejaVuSans-6d" x="96.191406"/>
      <use xlink:href="#DejaVuSans-61" x="193.603516"/>
      <use xlink:href="#DejaVuSans-4c" x="254.882812"/>
      <use xlink:href="#DejaVuSans-69" x="310.595703"/>
      <use xlink:href="#DejaVuSans-6e" x="338.378906"/>
      <use xlink:href="#DejaVuSans-75" x="401.757812"/>
      <use xlink:href="#DejaVuSans-78" x="465.136719"/>
     </g>
    </g>
    <g id="line2d_54">
     <path d="M 73.2325 66.596438 
L 83.2325 66.596438 
L 93.2325 66.596438 
" style="fill: none; stroke: #e9a942; stroke-width: 1.5; stroke-linecap: square"/>
    </g>
    <g id="text_27">
     <!-- CentOS Legacy -->
     <g transform="translate(101.2325 70.096438) scale(0.1 -0.1)">
      <defs>
       <path id="DejaVuSans-4f" d="M 2522 4238 
Q 1834 4238 1429 3725 
Q 1025 3213 1025 2328 
Q 1025 1447 1429 934 
Q 1834 422 2522 422 
Q 3209 422 3611 934 
Q 4013 1447 4013 2328 
Q 4013 3213 3611 3725 
Q 3209 4238 2522 4238 
z
M 2522 4750 
Q 3503 4750 4090 4092 
Q 4678 3434 4678 2328 
Q 4678 1225 4090 567 
Q 3503 -91 2522 -91 
Q 1538 -91 948 565 
Q 359 1222 359 2328 
Q 359 3434 948 4092 
Q 1538 4750 2522 4750 
z
" transform="scale(0.015625)"/>
      </defs>
      <use xlink:href="#DejaVuSans-43"/>
      <use xlink:href="#DejaVuSans-65" x="69.824219"/>
      <use xlink:href="#DejaVuSans-6e" x="131.347656"/>
      <use xlink:href="#DejaVuSans-74" x="194.726562"/>
      <use xlink:href="#DejaVuSans-4f" x="233.935547"/>
      <use xlink:href="#DejaVuSans-53" x="312.646484"/>
      <use xlink:href="#DejaVuSans-20" x="376.123047"/>
      <use xlink:href="#DejaVuSans-4c" x="407.910156"/>
      <use xlink:href="#DejaVuSans-65" x="461.873047"/>
      <use xlink:href="#DejaVuSans-67" x="523.396484"/>
      <use xlink:href="#DejaVuSans-61" x="586.873047"/>
      <use xlink:href="#DejaVuSans-63" x="648.152344"/>
      <use xlink:href="#DejaVuSans-79" x="703.132812"/>
     </g>
    </g>
    <g id="line2d_55">
     <path d="M 73.2325 81.274563 
L 83.2325 81.274563 
L 93.2325 81.274563 
" style="fill: none; stroke: #9a5689; stroke-width: 1.5; stroke-linecap: square"/>
    </g>
    <g id="text_28">
     <!-- CentOS Stream -->
     <g transform="translate(101.2325 84.774563) scale(0.1 -0.1)">
      <use xlink:href="#DejaVuSans-43"/>
      <use xlink:href="#DejaVuSans-65" x="69.824219"/>
      <use xlink:href="#DejaVuSans-6e" x="131.347656"/>
      <use xlink:href="#DejaVuSans-74" x="194.726562"/>
      <use xlink:href="#DejaVuSans-4f" x="233.935547"/>
      <use xlink:href="#DejaVuSans-53" x="312.646484"/>
      <use xlink:href="#DejaVuSans-20" x="376.123047"/>
      <use xlink:href="#DejaVuSans-53" x="407.910156"/>
      <use xlink:href="#DejaVuSans-74" x="471.386719"/>
      <use xlink:href="#DejaVuSans-72" x="510.595703"/>
      <use xlink:href="#DejaVuSans-65" x="549.458984"/>
      <use xlink:href="#DejaVuSans-61" x="610.982422"/>
      <use xlink:href="#DejaVuSans-6d" x="672.261719"/>
     </g>
    </g>
    <g id="line2d_56">
     <path d="M 73.2325 95.952688 
L 83.2325 95.952688 
L 93.2325 95.952688 
" style="fill: none; stroke: #be503b; stroke-width: 1.5; stroke-linecap: square"/>
    </g>
    <g id="text_29">
     <!-- Oracle -->
     <g transform="translate(101.2325 99.452688) scale(0.1 -0.1)">
      <use xlink:href="#DejaVuSans-4f"/>
      <use xlink:href="#DejaVuSans-72" x="78.710938"/>
      <use xlink:href="#DejaVuSans-61" x="119.824219"/>
      <use xlink:href="#DejaVuSans-63" x="181.103516"/>
      <use xlink:href="#DejaVuSans-6c" x="236.083984"/>
      <use xlink:href="#DejaVuSans-65" x="263.867188"/>
     </g>
    </g>
    <g id="line2d_57">
     <path d="M 73.2325 110.630813 
L 83.2325 110.630813 
L 93.2325 110.630813 
" style="fill: none; stroke: #e2321d; stroke-width: 1.5; stroke-linecap: square"/>
    </g>
    <g id="text_30">
     <!-- RHEL -->
     <g transform="translate(101.2325 114.130813) scale(0.1 -0.1)">
      <defs>
       <path id="DejaVuSans-52" d="M 2841 2188 
Q 3044 2119 3236 1894 
Q 3428 1669 3622 1275 
L 4263 0 
L 3584 0 
L 2988 1197 
Q 2756 1666 2539 1819 
Q 2322 1972 1947 1972 
L 1259 1972 
L 1259 0 
L 628 0 
L 628 4666 
L 2053 4666 
Q 2853 4666 3247 4331 
Q 3641 3997 3641 3322 
Q 3641 2881 3436 2590 
Q 3231 2300 2841 2188 
z
M 1259 4147 
L 1259 2491 
L 2053 2491 
Q 2509 2491 2742 2702 
Q 2975 2913 2975 3322 
Q 2975 3731 2742 3939 
Q 2509 4147 2053 4147 
L 1259 4147 
z
" transform="scale(0.015625)"/>
       <path id="DejaVuSans-48" d="M 628 4666 
L 1259 4666 
L 1259 2753 
L 3553 2753 
L 3553 4666 
L 4184 4666 
L 4184 0 
L 3553 0 
L 3553 2222 
L 1259 2222 
L 1259 0 
L 628 0 
L 628 4666 
z
" transform="scale(0.015625)"/>
      </defs>
      <use xlink:href="#DejaVuSans-52"/>
      <use xlink:href="#DejaVuSans-48" x="69.482422"/>
      <use xlink:href="#DejaVuSans-45" x="144.677734"/>
      <use xlink:href="#DejaVuSans-4c" x="207.861328"/>
     </g>
    </g>
    <g id="line2d_58">
     <path d="M 73.2325 125.308938 
L 83.2325 125.308938 
L 93.2325 125.308938 
" style="fill: none; stroke: #48b585; stroke-width: 6; stroke-linecap: square"/>
    </g>
    <g id="text_31">
     <!-- Rocky Linux -->
     <g transform="translate(101.2325 128.808938) scale(0.1 -0.1)">
      <use xlink:href="#DejaVuSans-52"/>
      <use xlink:href="#DejaVuSans-6f" x="64.982422"/>
      <use xlink:href="#DejaVuSans-63" x="126.164062"/>
      <use xlink:href="#DejaVuSans-6b" x="181.144531"/>
      <use xlink:href="#DejaVuSans-79" x="235.429688"/>
      <use xlink:href="#DejaVuSans-20" x="294.609375"/>
      <use xlink:href="#DejaVuSans-4c" x="326.396484"/>
      <use xlink:href="#DejaVuSans-69" x="382.109375"/>
      <use xlink:href="#DejaVuSans-6e" x="409.892578"/>
      <use xlink:href="#DejaVuSans-75" x="473.271484"/>
      <use xlink:href="#DejaVuSans-78" x="536.650391"/>
     </g>
    </g>
   </g>
  </g>
 </g>
 <defs>
  <clipPath id="p534977a3eb">
   <rect x="64.2325" y="24.14175" width="902.844" height="554.4"/>
  </clipPath>
 </defs>
</svg>
