<?xml version="1.0" encoding="utf-8" standalone="no"?>
<!DOCTYPE svg PUBLIC "-//W3C//DTD SVG 1.1//EN"
  "http://www.w3.org/Graphics/SVG/1.1/DTD/svg11.dtd">
<svg xmlns:xlink="http://www.w3.org/1999/xlink" width="964.735875pt" height="633.943878pt" viewBox="0 0 964.735875 633.943878" xmlns="http://www.w3.org/2000/svg" version="1.1">
 <metadata>
  <rdf:RDF xmlns:dc="http://purl.org/dc/elements/1.1/" xmlns:cc="http://creativecommons.org/ns#" xmlns:rdf="http://www.w3.org/1999/02/22-rdf-syntax-ns#">
   <cc:Work>
    <dc:type rdf:resource="http://purl.org/dc/dcmitype/StillImage"/>
    <dc:date>2024-04-11T11:54:39.507971</dc:date>
    <dc:format>image/svg+xml</dc:format>
    <dc:creator>
     <cc:Agent>
      <dc:title>Matplotlib v3.5.1, https://matplotlib.org/</dc:title>
     </cc:Agent>
    </dc:creator>
   </cc:Work>
  </rdf:RDF>
 </metadata>
 <defs>
  <style type="text/css">*{stroke-linejoin: round; stroke-linecap: butt}</style>
 </defs>
 <g id="figure_1">
  <g id="patch_1">
   <path d="M 0 633.943878 
L 964.735875 633.943878 
L 964.735875 0 
L 0 0 
z
" style="fill: #ffffff"/>
  </g>
  <g id="axes_1">
   <g id="patch_2">
    <path d="M 54.691875 567.74175 
L 957.535875 567.74175 
L 957.535875 24.14175 
L 54.691875 24.14175 
z
" style="fill: #e5e5e5"/>
   </g>
   <g id="matplotlib.axis_1">
    <g id="xtick_1">
     <g id="line2d_1">
      <path d="M 74.923673 567.74175 
L 74.923673 24.14175 
" clip-path="url(#pf563c4cf82)" style="fill: none; stroke: #ffffff; stroke-width: 0.8; stroke-linecap: square"/>
     </g>
     <g id="line2d_2">
      <defs>
       <path id="mde8013db5f" d="M 0 0 
L 0 3.5 
" style="stroke: #555555; stroke-width: 0.8"/>
      </defs>
      <g>
       <use xlink:href="#mde8013db5f" x="74.923673" y="567.74175" style="fill: #555555; stroke: #555555; stroke-width: 0.8"/>
      </g>
     </g>
     <g id="text_1">
      <!-- 2023-04 -->
      <g style="fill: #555555" transform="translate(62.102391 609.659567)rotate(-45)scale(0.1 -0.1)">
       <defs>
        <path id="DejaVuSans-32" d="M 1228 531 
L 3431 531 
L 3431 0 
L 469 0 
L 469 531 
Q 828 903 1448 1529 
Q 2069 2156 2228 2338 
Q 2531 2678 2651 2914 
Q 2772 3150 2772 3378 
Q 2772 3750 2511 3984 
Q 2250 4219 1831 4219 
Q 1534 4219 1204 4116 
Q 875 4013 500 3803 
L 500 4441 
Q 881 4594 1212 4672 
Q 1544 4750 1819 4750 
Q 2544 4750 2975 4387 
Q 3406 4025 3406 3419 
Q 3406 3131 3298 2873 
Q 3191 2616 2906 2266 
Q 2828 2175 2409 1742 
Q 1991 1309 1228 531 
z
" transform="scale(0.015625)"/>
        <path id="DejaVuSans-30" d="M 2034 4250 
Q 1547 4250 1301 3770 
Q 1056 3291 1056 2328 
Q 1056 1369 1301 889 
Q 1547 409 2034 409 
Q 2525 409 2770 889 
Q 3016 1369 3016 2328 
Q 3016 3291 2770 3770 
Q 2525 4250 2034 4250 
z
M 2034 4750 
Q 2819 4750 3233 4129 
Q 3647 3509 3647 2328 
Q 3647 1150 3233 529 
Q 2819 -91 2034 -91 
Q 1250 -91 836 529 
Q 422 1150 422 2328 
Q 422 3509 836 4129 
Q 1250 4750 2034 4750 
z
" transform="scale(0.015625)"/>
        <path id="DejaVuSans-33" d="M 2597 2516 
Q 3050 2419 3304 2112 
Q 3559 1806 3559 1356 
Q 3559 666 3084 287 
Q 2609 -91 1734 -91 
Q 1441 -91 1130 -33 
Q 819 25 488 141 
L 488 750 
Q 750 597 1062 519 
Q 1375 441 1716 441 
Q 2309 441 2620 675 
Q 2931 909 2931 1356 
Q 2931 1769 2642 2001 
Q 2353 2234 1838 2234 
L 1294 2234 
L 1294 2753 
L 1863 2753 
Q 2328 2753 2575 2939 
Q 2822 3125 2822 3475 
Q 2822 3834 2567 4026 
Q 2313 4219 1838 4219 
Q 1578 4219 1281 4162 
Q 984 4106 628 3988 
L 628 4550 
Q 988 4650 1302 4700 
Q 1616 4750 1894 4750 
Q 2613 4750 3031 4423 
Q 3450 4097 3450 3541 
Q 3450 3153 3228 2886 
Q 3006 2619 2597 2516 
z
" transform="scale(0.015625)"/>
        <path id="DejaVuSans-2d" d="M 313 2009 
L 1997 2009 
L 1997 1497 
L 313 1497 
L 313 2009 
z
" transform="scale(0.015625)"/>
        <path id="DejaVuSans-34" d="M 2419 4116 
L 825 1625 
L 2419 1625 
L 2419 4116 
z
M 2253 4666 
L 3047 4666 
L 3047 1625 
L 3713 1625 
L 3713 1100 
L 3047 1100 
L 3047 0 
L 2419 0 
L 2419 1100 
L 313 1100 
L 313 1709 
L 2253 4666 
z
" transform="scale(0.015625)"/>
       </defs>
       <use xlink:href="#DejaVuSans-32"/>
       <use xlink:href="#DejaVuSans-30" x="63.623047"/>
       <use xlink:href="#DejaVuSans-32" x="127.246094"/>
       <use xlink:href="#DejaVuSans-33" x="190.869141"/>
       <use xlink:href="#DejaVuSans-2d" x="254.492188"/>
       <use xlink:href="#DejaVuSans-30" x="290.576172"/>
       <use xlink:href="#DejaVuSans-34" x="354.199219"/>
      </g>
     </g>
    </g>
    <g id="xtick_2">
     <g id="line2d_3">
      <path d="M 150.792917 567.74175 
L 150.792917 24.14175 
" clip-path="url(#pf563c4cf82)" style="fill: none; stroke: #ffffff; stroke-width: 0.8; stroke-linecap: square"/>
     </g>
     <g id="line2d_4">
      <g>
       <use xlink:href="#mde8013db5f" x="150.792917" y="567.74175" style="fill: #555555; stroke: #555555; stroke-width: 0.8"/>
      </g>
     </g>
     <g id="text_2">
      <!-- 2023-05 -->
      <g style="fill: #555555" transform="translate(137.971635 609.659567)rotate(-45)scale(0.1 -0.1)">
       <defs>
        <path id="DejaVuSans-35" d="M 691 4666 
L 3169 4666 
L 3169 4134 
L 1269 4134 
L 1269 2991 
Q 1406 3038 1543 3061 
Q 1681 3084 1819 3084 
Q 2600 3084 3056 2656 
Q 3513 2228 3513 1497 
Q 3513 744 3044 326 
Q 2575 -91 1722 -91 
Q 1428 -91 1123 -41 
Q 819 9 494 109 
L 494 744 
Q 775 591 1075 516 
Q 1375 441 1709 441 
Q 2250 441 2565 725 
Q 2881 1009 2881 1497 
Q 2881 1984 2565 2268 
Q 2250 2553 1709 2553 
Q 1456 2553 1204 2497 
Q 953 2441 691 2322 
L 691 4666 
z
" transform="scale(0.015625)"/>
       </defs>
       <use xlink:href="#DejaVuSans-32"/>
       <use xlink:href="#DejaVuSans-30" x="63.623047"/>
       <use xlink:href="#DejaVuSans-32" x="127.246094"/>
       <use xlink:href="#DejaVuSans-33" x="190.869141"/>
       <use xlink:href="#DejaVuSans-2d" x="254.492188"/>
       <use xlink:href="#DejaVuSans-30" x="290.576172"/>
       <use xlink:href="#DejaVuSans-35" x="354.199219"/>
      </g>
     </g>
    </g>
    <g id="xtick_3">
     <g id="line2d_5">
      <path d="M 229.191136 567.74175 
L 229.191136 24.14175 
" clip-path="url(#pf563c4cf82)" style="fill: none; stroke: #ffffff; stroke-width: 0.8; stroke-linecap: square"/>
     </g>
     <g id="line2d_6">
      <g>
       <use xlink:href="#mde8013db5f" x="229.191136" y="567.74175" style="fill: #555555; stroke: #555555; stroke-width: 0.8"/>
      </g>
     </g>
     <g id="text_3">
      <!-- 2023-06 -->
      <g style="fill: #555555" transform="translate(216.369853 609.659567)rotate(-45)scale(0.1 -0.1)">
       <defs>
        <path id="DejaVuSans-36" d="M 2113 2584 
Q 1688 2584 1439 2293 
Q 1191 2003 1191 1497 
Q 1191 994 1439 701 
Q 1688 409 2113 409 
Q 2538 409 2786 701 
Q 3034 994 3034 1497 
Q 3034 2003 2786 2293 
Q 2538 2584 2113 2584 
z
M 3366 4563 
L 3366 3988 
Q 3128 4100 2886 4159 
Q 2644 4219 2406 4219 
Q 1781 4219 1451 3797 
Q 1122 3375 1075 2522 
Q 1259 2794 1537 2939 
Q 1816 3084 2150 3084 
Q 2853 3084 3261 2657 
Q 3669 2231 3669 1497 
Q 3669 778 3244 343 
Q 2819 -91 2113 -91 
Q 1303 -91 875 529 
Q 447 1150 447 2328 
Q 447 3434 972 4092 
Q 1497 4750 2381 4750 
Q 2619 4750 2861 4703 
Q 3103 4656 3366 4563 
z
" transform="scale(0.015625)"/>
       </defs>
       <use xlink:href="#DejaVuSans-32"/>
       <use xlink:href="#DejaVuSans-30" x="63.623047"/>
       <use xlink:href="#DejaVuSans-32" x="127.246094"/>
       <use xlink:href="#DejaVuSans-33" x="190.869141"/>
       <use xlink:href="#DejaVuSans-2d" x="254.492188"/>
       <use xlink:href="#DejaVuSans-30" x="290.576172"/>
       <use xlink:href="#DejaVuSans-36" x="354.199219"/>
      </g>
     </g>
    </g>
    <g id="xtick_4">
     <g id="line2d_7">
      <path d="M 305.060379 567.74175 
L 305.060379 24.14175 
" clip-path="url(#pf563c4cf82)" style="fill: none; stroke: #ffffff; stroke-width: 0.8; stroke-linecap: square"/>
     </g>
     <g id="line2d_8">
      <g>
       <use xlink:href="#mde8013db5f" x="305.060379" y="567.74175" style="fill: #555555; stroke: #555555; stroke-width: 0.8"/>
      </g>
     </g>
     <g id="text_4">
      <!-- 2023-07 -->
      <g style="fill: #555555" transform="translate(292.239097 609.659567)rotate(-45)scale(0.1 -0.1)">
       <defs>
        <path id="DejaVuSans-37" d="M 525 4666 
L 3525 4666 
L 3525 4397 
L 1831 0 
L 1172 0 
L 2766 4134 
L 525 4134 
L 525 4666 
z
" transform="scale(0.015625)"/>
       </defs>
       <use xlink:href="#DejaVuSans-32"/>
       <use xlink:href="#DejaVuSans-30" x="63.623047"/>
       <use xlink:href="#DejaVuSans-32" x="127.246094"/>
       <use xlink:href="#DejaVuSans-33" x="190.869141"/>
       <use xlink:href="#DejaVuSans-2d" x="254.492188"/>
       <use xlink:href="#DejaVuSans-30" x="290.576172"/>
       <use xlink:href="#DejaVuSans-37" x="354.199219"/>
      </g>
     </g>
    </g>
    <g id="xtick_5">
     <g id="line2d_9">
      <path d="M 383.458598 567.74175 
L 383.458598 24.14175 
" clip-path="url(#pf563c4cf82)" style="fill: none; stroke: #ffffff; stroke-width: 0.8; stroke-linecap: square"/>
     </g>
     <g id="line2d_10">
      <g>
       <use xlink:href="#mde8013db5f" x="383.458598" y="567.74175" style="fill: #555555; stroke: #555555; stroke-width: 0.8"/>
      </g>
     </g>
     <g id="text_5">
      <!-- 2023-08 -->
      <g style="fill: #555555" transform="translate(370.637315 609.659567)rotate(-45)scale(0.1 -0.1)">
       <defs>
        <path id="DejaVuSans-38" d="M 2034 2216 
Q 1584 2216 1326 1975 
Q 1069 1734 1069 1313 
Q 1069 891 1326 650 
Q 1584 409 2034 409 
Q 2484 409 2743 651 
Q 3003 894 3003 1313 
Q 3003 1734 2745 1975 
Q 2488 2216 2034 2216 
z
M 1403 2484 
Q 997 2584 770 2862 
Q 544 3141 544 3541 
Q 544 4100 942 4425 
Q 1341 4750 2034 4750 
Q 2731 4750 3128 4425 
Q 3525 4100 3525 3541 
Q 3525 3141 3298 2862 
Q 3072 2584 2669 2484 
Q 3125 2378 3379 2068 
Q 3634 1759 3634 1313 
Q 3634 634 3220 271 
Q 2806 -91 2034 -91 
Q 1263 -91 848 271 
Q 434 634 434 1313 
Q 434 1759 690 2068 
Q 947 2378 1403 2484 
z
M 1172 3481 
Q 1172 3119 1398 2916 
Q 1625 2713 2034 2713 
Q 2441 2713 2670 2916 
Q 2900 3119 2900 3481 
Q 2900 3844 2670 4047 
Q 2441 4250 2034 4250 
Q 1625 4250 1398 4047 
Q 1172 3844 1172 3481 
z
" transform="scale(0.015625)"/>
       </defs>
       <use xlink:href="#DejaVuSans-32"/>
       <use xlink:href="#DejaVuSans-30" x="63.623047"/>
       <use xlink:href="#DejaVuSans-32" x="127.246094"/>
       <use xlink:href="#DejaVuSans-33" x="190.869141"/>
       <use xlink:href="#DejaVuSans-2d" x="254.492188"/>
       <use xlink:href="#DejaVuSans-30" x="290.576172"/>
       <use xlink:href="#DejaVuSans-38" x="354.199219"/>
      </g>
     </g>
    </g>
    <g id="xtick_6">
     <g id="line2d_11">
      <path d="M 461.856816 567.74175 
L 461.856816 24.14175 
" clip-path="url(#pf563c4cf82)" style="fill: none; stroke: #ffffff; stroke-width: 0.8; stroke-linecap: square"/>
     </g>
     <g id="line2d_12">
      <g>
       <use xlink:href="#mde8013db5f" x="461.856816" y="567.74175" style="fill: #555555; stroke: #555555; stroke-width: 0.8"/>
      </g>
     </g>
     <g id="text_6">
      <!-- 2023-09 -->
      <g style="fill: #555555" transform="translate(449.035534 609.659567)rotate(-45)scale(0.1 -0.1)">
       <defs>
        <path id="DejaVuSans-39" d="M 703 97 
L 703 672 
Q 941 559 1184 500 
Q 1428 441 1663 441 
Q 2288 441 2617 861 
Q 2947 1281 2994 2138 
Q 2813 1869 2534 1725 
Q 2256 1581 1919 1581 
Q 1219 1581 811 2004 
Q 403 2428 403 3163 
Q 403 3881 828 4315 
Q 1253 4750 1959 4750 
Q 2769 4750 3195 4129 
Q 3622 3509 3622 2328 
Q 3622 1225 3098 567 
Q 2575 -91 1691 -91 
Q 1453 -91 1209 -44 
Q 966 3 703 97 
z
M 1959 2075 
Q 2384 2075 2632 2365 
Q 2881 2656 2881 3163 
Q 2881 3666 2632 3958 
Q 2384 4250 1959 4250 
Q 1534 4250 1286 3958 
Q 1038 3666 1038 3163 
Q 1038 2656 1286 2365 
Q 1534 2075 1959 2075 
z
" transform="scale(0.015625)"/>
       </defs>
       <use xlink:href="#DejaVuSans-32"/>
       <use xlink:href="#DejaVuSans-30" x="63.623047"/>
       <use xlink:href="#DejaVuSans-32" x="127.246094"/>
       <use xlink:href="#DejaVuSans-33" x="190.869141"/>
       <use xlink:href="#DejaVuSans-2d" x="254.492188"/>
       <use xlink:href="#DejaVuSans-30" x="290.576172"/>
       <use xlink:href="#DejaVuSans-39" x="354.199219"/>
      </g>
     </g>
    </g>
    <g id="xtick_7">
     <g id="line2d_13">
      <path d="M 537.72606 567.74175 
L 537.72606 24.14175 
" clip-path="url(#pf563c4cf82)" style="fill: none; stroke: #ffffff; stroke-width: 0.8; stroke-linecap: square"/>
     </g>
     <g id="line2d_14">
      <g>
       <use xlink:href="#mde8013db5f" x="537.72606" y="567.74175" style="fill: #555555; stroke: #555555; stroke-width: 0.8"/>
      </g>
     </g>
     <g id="text_7">
      <!-- 2023-10 -->
      <g style="fill: #555555" transform="translate(524.904778 609.659567)rotate(-45)scale(0.1 -0.1)">
       <defs>
        <path id="DejaVuSans-31" d="M 794 531 
L 1825 531 
L 1825 4091 
L 703 3866 
L 703 4441 
L 1819 4666 
L 2450 4666 
L 2450 531 
L 3481 531 
L 3481 0 
L 794 0 
L 794 531 
z
" transform="scale(0.015625)"/>
       </defs>
       <use xlink:href="#DejaVuSans-32"/>
       <use xlink:href="#DejaVuSans-30" x="63.623047"/>
       <use xlink:href="#DejaVuSans-32" x="127.246094"/>
       <use xlink:href="#DejaVuSans-33" x="190.869141"/>
       <use xlink:href="#DejaVuSans-2d" x="254.492188"/>
       <use xlink:href="#DejaVuSans-31" x="290.576172"/>
       <use xlink:href="#DejaVuSans-30" x="354.199219"/>
      </g>
     </g>
    </g>
    <g id="xtick_8">
     <g id="line2d_15">
      <path d="M 616.124278 567.74175 
L 616.124278 24.14175 
" clip-path="url(#pf563c4cf82)" style="fill: none; stroke: #ffffff; stroke-width: 0.8; stroke-linecap: square"/>
     </g>
     <g id="line2d_16">
      <g>
       <use xlink:href="#mde8013db5f" x="616.124278" y="567.74175" style="fill: #555555; stroke: #555555; stroke-width: 0.8"/>
      </g>
     </g>
     <g id="text_8">
      <!-- 2023-11 -->
      <g style="fill: #555555" transform="translate(603.302996 609.659567)rotate(-45)scale(0.1 -0.1)">
       <use xlink:href="#DejaVuSans-32"/>
       <use xlink:href="#DejaVuSans-30" x="63.623047"/>
       <use xlink:href="#DejaVuSans-32" x="127.246094"/>
       <use xlink:href="#DejaVuSans-33" x="190.869141"/>
       <use xlink:href="#DejaVuSans-2d" x="254.492188"/>
       <use xlink:href="#DejaVuSans-31" x="290.576172"/>
       <use xlink:href="#DejaVuSans-31" x="354.199219"/>
      </g>
     </g>
    </g>
    <g id="xtick_9">
     <g id="line2d_17">
      <path d="M 691.993522 567.74175 
L 691.993522 24.14175 
" clip-path="url(#pf563c4cf82)" style="fill: none; stroke: #ffffff; stroke-width: 0.8; stroke-linecap: square"/>
     </g>
     <g id="line2d_18">
      <g>
       <use xlink:href="#mde8013db5f" x="691.993522" y="567.74175" style="fill: #555555; stroke: #555555; stroke-width: 0.8"/>
      </g>
     </g>
     <g id="text_9">
      <!-- 2023-12 -->
      <g style="fill: #555555" transform="translate(679.17224 609.659567)rotate(-45)scale(0.1 -0.1)">
       <use xlink:href="#DejaVuSans-32"/>
       <use xlink:href="#DejaVuSans-30" x="63.623047"/>
       <use xlink:href="#DejaVuSans-32" x="127.246094"/>
       <use xlink:href="#DejaVuSans-33" x="190.869141"/>
       <use xlink:href="#DejaVuSans-2d" x="254.492188"/>
       <use xlink:href="#DejaVuSans-31" x="290.576172"/>
       <use xlink:href="#DejaVuSans-32" x="354.199219"/>
      </g>
     </g>
    </g>
    <g id="xtick_10">
     <g id="line2d_19">
      <path d="M 770.391741 567.74175 
L 770.391741 24.14175 
" clip-path="url(#pf563c4cf82)" style="fill: none; stroke: #ffffff; stroke-width: 0.8; stroke-linecap: square"/>
     </g>
     <g id="line2d_20">
      <g>
       <use xlink:href="#mde8013db5f" x="770.391741" y="567.74175" style="fill: #555555; stroke: #555555; stroke-width: 0.8"/>
      </g>
     </g>
     <g id="text_10">
      <!-- 2024-01 -->
      <g style="fill: #555555" transform="translate(757.570458 609.659567)rotate(-45)scale(0.1 -0.1)">
       <use xlink:href="#DejaVuSans-32"/>
       <use xlink:href="#DejaVuSans-30" x="63.623047"/>
       <use xlink:href="#DejaVuSans-32" x="127.246094"/>
       <use xlink:href="#DejaVuSans-34" x="190.869141"/>
       <use xlink:href="#DejaVuSans-2d" x="254.492188"/>
       <use xlink:href="#DejaVuSans-30" x="290.576172"/>
       <use xlink:href="#DejaVuSans-31" x="354.199219"/>
      </g>
     </g>
    </g>
    <g id="xtick_11">
     <g id="line2d_21">
      <path d="M 848.789959 567.74175 
L 848.789959 24.14175 
" clip-path="url(#pf563c4cf82)" style="fill: none; stroke: #ffffff; stroke-width: 0.8; stroke-linecap: square"/>
     </g>
     <g id="line2d_22">
      <g>
       <use xlink:href="#mde8013db5f" x="848.789959" y="567.74175" style="fill: #555555; stroke: #555555; stroke-width: 0.8"/>
      </g>
     </g>
     <g id="text_11">
      <!-- 2024-02 -->
      <g style="fill: #555555" transform="translate(835.968677 609.659567)rotate(-45)scale(0.1 -0.1)">
       <use xlink:href="#DejaVuSans-32"/>
       <use xlink:href="#DejaVuSans-30" x="63.623047"/>
       <use xlink:href="#DejaVuSans-32" x="127.246094"/>
       <use xlink:href="#DejaVuSans-34" x="190.869141"/>
       <use xlink:href="#DejaVuSans-2d" x="254.492188"/>
       <use xlink:href="#DejaVuSans-30" x="290.576172"/>
       <use xlink:href="#DejaVuSans-32" x="354.199219"/>
      </g>
     </g>
    </g>
    <g id="xtick_12">
     <g id="line2d_23">
      <path d="M 922.130228 567.74175 
L 922.130228 24.14175 
" clip-path="url(#pf563c4cf82)" style="fill: none; stroke: #ffffff; stroke-width: 0.8; stroke-linecap: square"/>
     </g>
     <g id="line2d_24">
      <g>
       <use xlink:href="#mde8013db5f" x="922.130228" y="567.74175" style="fill: #555555; stroke: #555555; stroke-width: 0.8"/>
      </g>
     </g>
     <g id="text_12">
      <!-- 2024-03 -->
      <g style="fill: #555555" transform="translate(909.308946 609.659567)rotate(-45)scale(0.1 -0.1)">
       <use xlink:href="#DejaVuSans-32"/>
       <use xlink:href="#DejaVuSans-30" x="63.623047"/>
       <use xlink:href="#DejaVuSans-32" x="127.246094"/>
       <use xlink:href="#DejaVuSans-34" x="190.869141"/>
       <use xlink:href="#DejaVuSans-2d" x="254.492188"/>
       <use xlink:href="#DejaVuSans-30" x="290.576172"/>
       <use xlink:href="#DejaVuSans-33" x="354.199219"/>
      </g>
     </g>
    </g>
    <g id="text_13">
     <!-- Date -->
     <g style="fill: #555555" transform="translate(491.772938 624.248253)scale(0.12 -0.12)">
      <defs>
       <path id="DejaVuSans-44" d="M 1259 4147 
L 1259 519 
L 2022 519 
Q 2988 519 3436 956 
Q 3884 1394 3884 2338 
Q 3884 3275 3436 3711 
Q 2988 4147 2022 4147 
L 1259 4147 
z
M 628 4666 
L 1925 4666 
Q 3281 4666 3915 4102 
Q 4550 3538 4550 2338 
Q 4550 1131 3912 565 
Q 3275 0 1925 0 
L 628 0 
L 628 4666 
z
" transform="scale(0.015625)"/>
       <path id="DejaVuSans-61" d="M 2194 1759 
Q 1497 1759 1228 1600 
Q 959 1441 959 1056 
Q 959 750 1161 570 
Q 1363 391 1709 391 
Q 2188 391 2477 730 
Q 2766 1069 2766 1631 
L 2766 1759 
L 2194 1759 
z
M 3341 1997 
L 3341 0 
L 2766 0 
L 2766 531 
Q 2569 213 2275 61 
Q 1981 -91 1556 -91 
Q 1019 -91 701 211 
Q 384 513 384 1019 
Q 384 1609 779 1909 
Q 1175 2209 1959 2209 
L 2766 2209 
L 2766 2266 
Q 2766 2663 2505 2880 
Q 2244 3097 1772 3097 
Q 1472 3097 1187 3025 
Q 903 2953 641 2809 
L 641 3341 
Q 956 3463 1253 3523 
Q 1550 3584 1831 3584 
Q 2591 3584 2966 3190 
Q 3341 2797 3341 1997 
z
" transform="scale(0.015625)"/>
       <path id="DejaVuSans-74" d="M 1172 4494 
L 1172 3500 
L 2356 3500 
L 2356 3053 
L 1172 3053 
L 1172 1153 
Q 1172 725 1289 603 
Q 1406 481 1766 481 
L 2356 481 
L 2356 0 
L 1766 0 
Q 1100 0 847 248 
Q 594 497 594 1153 
L 594 3053 
L 172 3053 
L 172 3500 
L 594 3500 
L 594 4494 
L 1172 4494 
z
" transform="scale(0.015625)"/>
       <path id="DejaVuSans-65" d="M 3597 1894 
L 3597 1613 
L 953 1613 
Q 991 1019 1311 708 
Q 1631 397 2203 397 
Q 2534 397 2845 478 
Q 3156 559 3463 722 
L 3463 178 
Q 3153 47 2828 -22 
Q 2503 -91 2169 -91 
Q 1331 -91 842 396 
Q 353 884 353 1716 
Q 353 2575 817 3079 
Q 1281 3584 2069 3584 
Q 2775 3584 3186 3129 
Q 3597 2675 3597 1894 
z
M 3022 2063 
Q 3016 2534 2758 2815 
Q 2500 3097 2075 3097 
Q 1594 3097 1305 2825 
Q 1016 2553 972 2059 
L 3022 2063 
z
" transform="scale(0.015625)"/>
      </defs>
      <use xlink:href="#DejaVuSans-44"/>
      <use xlink:href="#DejaVuSans-61" x="77.001953"/>
      <use xlink:href="#DejaVuSans-74" x="138.28125"/>
      <use xlink:href="#DejaVuSans-65" x="177.490234"/>
     </g>
    </g>
   </g>
   <g id="matplotlib.axis_2">
    <g id="ytick_1">
     <g id="line2d_25">
      <path d="M 54.691875 567.74175 
L 957.535875 567.74175 
" clip-path="url(#pf563c4cf82)" style="fill: none; stroke: #ffffff; stroke-width: 0.8; stroke-linecap: square"/>
     </g>
     <g id="line2d_26">
      <defs>
       <path id="m89129350bc" d="M 0 0 
L -3.5 0 
" style="stroke: #555555; stroke-width: 0.8"/>
      </defs>
      <g>
       <use xlink:href="#m89129350bc" x="54.691875" y="567.74175" style="fill: #555555; stroke: #555555; stroke-width: 0.8"/>
      </g>
     </g>
     <g id="text_14">
      <!-- 0k -->
      <g style="fill: #555555" transform="translate(35.53875 571.540969)scale(0.1 -0.1)">
       <defs>
        <path id="DejaVuSans-6b" d="M 581 4863 
L 1159 4863 
L 1159 1991 
L 2875 3500 
L 3609 3500 
L 1753 1863 
L 3688 0 
L 2938 0 
L 1159 1709 
L 1159 0 
L 581 0 
L 581 4863 
z
" transform="scale(0.015625)"/>
       </defs>
       <use xlink:href="#DejaVuSans-30"/>
       <use xlink:href="#DejaVuSans-6b" x="63.623047"/>
      </g>
     </g>
    </g>
    <g id="ytick_2">
     <g id="line2d_27">
      <path d="M 54.691875 484.328522 
L 957.535875 484.328522 
" clip-path="url(#pf563c4cf82)" style="fill: none; stroke: #ffffff; stroke-width: 0.8; stroke-linecap: square"/>
     </g>
     <g id="line2d_28">
      <g>
       <use xlink:href="#m89129350bc" x="54.691875" y="484.328522" style="fill: #555555; stroke: #555555; stroke-width: 0.8"/>
      </g>
     </g>
     <g id="text_15">
      <!-- 50k -->
      <g style="fill: #555555" transform="translate(29.17625 488.127741)scale(0.1 -0.1)">
       <use xlink:href="#DejaVuSans-35"/>
       <use xlink:href="#DejaVuSans-30" x="63.623047"/>
       <use xlink:href="#DejaVuSans-6b" x="127.246094"/>
      </g>
     </g>
    </g>
    <g id="ytick_3">
     <g id="line2d_29">
      <path d="M 54.691875 400.915295 
L 957.535875 400.915295 
" clip-path="url(#pf563c4cf82)" style="fill: none; stroke: #ffffff; stroke-width: 0.8; stroke-linecap: square"/>
     </g>
     <g id="line2d_30">
      <g>
       <use xlink:href="#m89129350bc" x="54.691875" y="400.915295" style="fill: #555555; stroke: #555555; stroke-width: 0.8"/>
      </g>
     </g>
     <g id="text_16">
      <!-- 100k -->
      <g style="fill: #555555" transform="translate(22.81375 404.714514)scale(0.1 -0.1)">
       <use xlink:href="#DejaVuSans-31"/>
       <use xlink:href="#DejaVuSans-30" x="63.623047"/>
       <use xlink:href="#DejaVuSans-30" x="127.246094"/>
       <use xlink:href="#DejaVuSans-6b" x="190.869141"/>
      </g>
     </g>
    </g>
    <g id="ytick_4">
     <g id="line2d_31">
      <path d="M 54.691875 317.502067 
L 957.535875 317.502067 
" clip-path="url(#pf563c4cf82)" style="fill: none; stroke: #ffffff; stroke-width: 0.8; stroke-linecap: square"/>
     </g>
     <g id="line2d_32">
      <g>
       <use xlink:href="#m89129350bc" x="54.691875" y="317.502067" style="fill: #555555; stroke: #555555; stroke-width: 0.8"/>
      </g>
     </g>
     <g id="text_17">
      <!-- 150k -->
      <g style="fill: #555555" transform="translate(22.81375 321.301286)scale(0.1 -0.1)">
       <use xlink:href="#DejaVuSans-31"/>
       <use xlink:href="#DejaVuSans-35" x="63.623047"/>
       <use xlink:href="#DejaVuSans-30" x="127.246094"/>
       <use xlink:href="#DejaVuSans-6b" x="190.869141"/>
      </g>
     </g>
    </g>
    <g id="ytick_5">
     <g id="line2d_33">
      <path d="M 54.691875 234.08884 
L 957.535875 234.08884 
" clip-path="url(#pf563c4cf82)" style="fill: none; stroke: #ffffff; stroke-width: 0.8; stroke-linecap: square"/>
     </g>
     <g id="line2d_34">
      <g>
       <use xlink:href="#m89129350bc" x="54.691875" y="234.08884" style="fill: #555555; stroke: #555555; stroke-width: 0.8"/>
      </g>
     </g>
     <g id="text_18">
      <!-- 200k -->
      <g style="fill: #555555" transform="translate(22.81375 237.888059)scale(0.1 -0.1)">
       <use xlink:href="#DejaVuSans-32"/>
       <use xlink:href="#DejaVuSans-30" x="63.623047"/>
       <use xlink:href="#DejaVuSans-30" x="127.246094"/>
       <use xlink:href="#DejaVuSans-6b" x="190.869141"/>
      </g>
     </g>
    </g>
    <g id="ytick_6">
     <g id="line2d_35">
      <path d="M 54.691875 150.675612 
L 957.535875 150.675612 
" clip-path="url(#pf563c4cf82)" style="fill: none; stroke: #ffffff; stroke-width: 0.8; stroke-linecap: square"/>
     </g>
     <g id="line2d_36">
      <g>
       <use xlink:href="#m89129350bc" x="54.691875" y="150.675612" style="fill: #555555; stroke: #555555; stroke-width: 0.8"/>
      </g>
     </g>
     <g id="text_19">
      <!-- 250k -->
      <g style="fill: #555555" transform="translate(22.81375 154.474831)scale(0.1 -0.1)">
       <use xlink:href="#DejaVuSans-32"/>
       <use xlink:href="#DejaVuSans-35" x="63.623047"/>
       <use xlink:href="#DejaVuSans-30" x="127.246094"/>
       <use xlink:href="#DejaVuSans-6b" x="190.869141"/>
      </g>
     </g>
    </g>
    <g id="ytick_7">
     <g id="line2d_37">
      <path d="M 54.691875 67.262385 
L 957.535875 67.262385 
" clip-path="url(#pf563c4cf82)" style="fill: none; stroke: #ffffff; stroke-width: 0.8; stroke-linecap: square"/>
     </g>
     <g id="line2d_38">
      <g>
       <use xlink:href="#m89129350bc" x="54.691875" y="67.262385" style="fill: #555555; stroke: #555555; stroke-width: 0.8"/>
      </g>
     </g>
     <g id="text_20">
      <!-- 300k -->
      <g style="fill: #555555" transform="translate(22.81375 71.061604)scale(0.1 -0.1)">
       <use xlink:href="#DejaVuSans-33"/>
       <use xlink:href="#DejaVuSans-30" x="63.623047"/>
       <use xlink:href="#DejaVuSans-30" x="127.246094"/>
       <use xlink:href="#DejaVuSans-6b" x="190.869141"/>
      </g>
     </g>
    </g>
    <g id="text_21">
     <!-- Instances -->
     <g style="fill: #555555" transform="translate(16.318125 324.588)rotate(-90)scale(0.12 -0.12)">
      <defs>
       <path id="DejaVuSans-49" d="M 628 4666 
L 1259 4666 
L 1259 0 
L 628 0 
L 628 4666 
z
" transform="scale(0.015625)"/>
       <path id="DejaVuSans-6e" d="M 3513 2113 
L 3513 0 
L 2938 0 
L 2938 2094 
Q 2938 2591 2744 2837 
Q 2550 3084 2163 3084 
Q 1697 3084 1428 2787 
Q 1159 2491 1159 1978 
L 1159 0 
L 581 0 
L 581 3500 
L 1159 3500 
L 1159 2956 
Q 1366 3272 1645 3428 
Q 1925 3584 2291 3584 
Q 2894 3584 3203 3211 
Q 3513 2838 3513 2113 
z
" transform="scale(0.015625)"/>
       <path id="DejaVuSans-73" d="M 2834 3397 
L 2834 2853 
Q 2591 2978 2328 3040 
Q 2066 3103 1784 3103 
Q 1356 3103 1142 2972 
Q 928 2841 928 2578 
Q 928 2378 1081 2264 
Q 1234 2150 1697 2047 
L 1894 2003 
Q 2506 1872 2764 1633 
Q 3022 1394 3022 966 
Q 3022 478 2636 193 
Q 2250 -91 1575 -91 
Q 1294 -91 989 -36 
Q 684 19 347 128 
L 347 722 
Q 666 556 975 473 
Q 1284 391 1588 391 
Q 1994 391 2212 530 
Q 2431 669 2431 922 
Q 2431 1156 2273 1281 
Q 2116 1406 1581 1522 
L 1381 1569 
Q 847 1681 609 1914 
Q 372 2147 372 2553 
Q 372 3047 722 3315 
Q 1072 3584 1716 3584 
Q 2034 3584 2315 3537 
Q 2597 3491 2834 3397 
z
" transform="scale(0.015625)"/>
       <path id="DejaVuSans-63" d="M 3122 3366 
L 3122 2828 
Q 2878 2963 2633 3030 
Q 2388 3097 2138 3097 
Q 1578 3097 1268 2742 
Q 959 2388 959 1747 
Q 959 1106 1268 751 
Q 1578 397 2138 397 
Q 2388 397 2633 464 
Q 2878 531 3122 666 
L 3122 134 
Q 2881 22 2623 -34 
Q 2366 -91 2075 -91 
Q 1284 -91 818 406 
Q 353 903 353 1747 
Q 353 2603 823 3093 
Q 1294 3584 2113 3584 
Q 2378 3584 2631 3529 
Q 2884 3475 3122 3366 
z
" transform="scale(0.015625)"/>
      </defs>
      <use xlink:href="#DejaVuSans-49"/>
      <use xlink:href="#DejaVuSans-6e" x="29.492188"/>
      <use xlink:href="#DejaVuSans-73" x="92.871094"/>
      <use xlink:href="#DejaVuSans-74" x="144.970703"/>
      <use xlink:href="#DejaVuSans-61" x="184.179688"/>
      <use xlink:href="#DejaVuSans-6e" x="245.458984"/>
      <use xlink:href="#DejaVuSans-63" x="308.837891"/>
      <use xlink:href="#DejaVuSans-65" x="363.818359"/>
      <use xlink:href="#DejaVuSans-73" x="425.341797"/>
     </g>
    </g>
   </g>
   <g id="line2d_39">
    <path d="M 54.691875 471.907766 
L 63.811511 470.88561 
L 72.931148 469.863454 
L 82.050784 468.841298 
L 91.17042 467.819142 
L 100.290057 466.796986 
L 109.409693 465.774831 
L 118.52933 464.752675 
L 127.648966 463.730519 
L 136.768602 462.708363 
L 145.888239 461.686207 
L 155.007875 460.664051 
L 164.127511 459.641895 
L 173.247148 458.619739 
L 182.366784 457.597583 
L 191.48642 456.575427 
L 200.606057 455.553271 
L 209.725693 454.531116 
L 218.84533 453.50896 
L 227.964966 452.486804 
L 237.084602 451.464648 
L 246.204239 450.442492 
L 255.323875 449.420336 
L 264.443511 448.39818 
L 273.563148 447.376024 
L 282.682784 446.353868 
L 291.80242 445.331712 
L 300.922057 444.309556 
L 310.041693 443.287401 
L 319.16133 442.265245 
L 328.280966 441.243089 
L 337.400602 440.220933 
L 346.520239 439.198777 
L 355.639875 438.176621 
L 364.759511 437.154465 
L 373.879148 436.132309 
L 382.998784 435.110153 
L 392.11842 434.087997 
L 401.238057 433.065841 
L 410.357693 432.043686 
L 419.47733 431.02153 
L 428.596966 429.999374 
L 437.716602 428.977218 
L 446.836239 427.955062 
L 455.955875 426.932906 
L 465.075511 425.91075 
L 474.195148 424.888594 
L 483.314784 423.866438 
L 492.43442 422.844282 
L 501.554057 421.822126 
L 510.673693 420.799971 
L 519.79333 419.777815 
L 528.912966 418.755659 
L 538.032602 417.733503 
L 547.152239 416.711347 
L 556.271875 415.689191 
L 565.391511 414.667035 
L 574.511148 413.644879 
L 583.630784 412.622723 
L 592.75042 411.600567 
L 601.870057 410.578411 
L 610.989693 409.556256 
L 620.10933 408.5341 
L 629.228966 407.511944 
L 638.348602 406.489788 
L 647.468239 405.467632 
L 656.587875 404.445476 
L 665.707511 403.42332 
L 674.827148 402.401164 
L 683.946784 401.379008 
L 693.06642 400.356852 
L 702.186057 399.334696 
L 711.305693 398.312541 
L 720.42533 397.290385 
L 729.544966 396.268229 
L 738.664602 395.246073 
L 747.784239 394.223917 
L 756.903875 393.201761 
L 766.023511 392.179605 
L 775.143148 391.157449 
L 784.262784 390.135293 
L 793.38242 389.113137 
L 802.502057 388.090981 
L 811.621693 387.068826 
L 820.74133 386.04667 
L 829.860966 385.024514 
L 838.980602 384.002358 
L 848.100239 382.980202 
L 857.219875 381.958046 
L 866.339511 380.93589 
L 875.459148 379.913734 
L 884.578784 378.891578 
L 893.69842 377.869422 
L 902.818057 376.847266 
L 911.937693 375.825111 
L 921.05733 374.802955 
L 930.176966 373.780799 
L 939.296602 372.758643 
L 948.416239 371.736487 
L 957.535875 370.714331 
" clip-path="url(#pf563c4cf82)" style="fill: none; stroke-dasharray: 1.5,2.475; stroke-dashoffset: 0; stroke: #4ac1fa; stroke-width: 1.5"/>
   </g>
   <g id="line2d_40">
    <path d="M 54.691875 416.455236 
L 63.811511 417.425242 
L 72.931148 418.395248 
L 82.050784 419.365254 
L 91.17042 420.33526 
L 100.290057 421.305266 
L 109.409693 422.275272 
L 118.52933 423.245279 
L 127.648966 424.215285 
L 136.768602 425.185291 
L 145.888239 426.155297 
L 155.007875 427.125303 
L 164.127511 428.095309 
L 173.247148 429.065315 
L 182.366784 430.035321 
L 191.48642 431.005327 
L 200.606057 431.975333 
L 209.725693 432.945339 
L 218.84533 433.915345 
L 227.964966 434.885351 
L 237.084602 435.855358 
L 246.204239 436.825364 
L 255.323875 437.79537 
L 264.443511 438.765376 
L 273.563148 439.735382 
L 282.682784 440.705388 
L 291.80242 441.675394 
L 300.922057 442.6454 
L 310.041693 443.615406 
L 319.16133 444.585412 
L 328.280966 445.555418 
L 337.400602 446.525424 
L 346.520239 447.49543 
L 355.639875 448.465436 
L 364.759511 449.435443 
L 373.879148 450.405449 
L 382.998784 451.375455 
L 392.11842 452.345461 
L 401.238057 453.315467 
L 410.357693 454.285473 
L 419.47733 455.255479 
L 428.596966 456.225485 
L 437.716602 457.195491 
L 446.836239 458.165497 
L 455.955875 459.135503 
L 465.075511 460.105509 
L 474.195148 461.075515 
L 483.314784 462.045522 
L 492.43442 463.015528 
L 501.554057 463.985534 
L 510.673693 464.95554 
L 519.79333 465.925546 
L 528.912966 466.895552 
L 538.032602 467.865558 
L 547.152239 468.835564 
L 556.271875 469.80557 
L 565.391511 470.775576 
L 574.511148 471.745582 
L 583.630784 472.715588 
L 592.75042 473.685594 
L 601.870057 474.6556 
L 610.989693 475.625607 
L 620.10933 476.595613 
L 629.228966 477.565619 
L 638.348602 478.535625 
L 647.468239 479.505631 
L 656.587875 480.475637 
L 665.707511 481.445643 
L 674.827148 482.415649 
L 683.946784 483.385655 
L 693.06642 484.355661 
L 702.186057 485.325667 
L 711.305693 486.295673 
L 720.42533 487.265679 
L 729.544966 488.235686 
L 738.664602 489.205692 
L 747.784239 490.175698 
L 756.903875 491.145704 
L 766.023511 492.11571 
L 775.143148 493.085716 
L 784.262784 494.055722 
L 793.38242 495.025728 
L 802.502057 495.995734 
L 811.621693 496.96574 
L 820.74133 497.935746 
L 829.860966 498.905752 
L 838.980602 499.875758 
L 848.100239 500.845764 
L 857.219875 501.815771 
L 866.339511 502.785777 
L 875.459148 503.755783 
L 884.578784 504.725789 
L 893.69842 505.695795 
L 902.818057 506.665801 
L 911.937693 507.635807 
L 921.05733 508.605813 
L 930.176966 509.575819 
L 939.296602 510.545825 
L 948.416239 511.515831 
L 957.535875 512.485837 
" clip-path="url(#pf563c4cf82)" style="fill: none; stroke-dasharray: 1.5,2.475; stroke-dashoffset: 0; stroke: #e9a942; stroke-width: 1.5"/>
   </g>
   <g id="line2d_41">
    <path d="M 54.691875 474.223173 
L 63.811511 473.912594 
L 72.931148 473.602014 
L 82.050784 473.291435 
L 91.17042 472.980855 
L 100.290057 472.670276 
L 109.409693 472.359696 
L 118.52933 472.049117 
L 127.648966 471.738537 
L 136.768602 471.427958 
L 145.888239 471.117379 
L 155.007875 470.806799 
L 164.127511 470.49622 
L 173.247148 470.18564 
L 182.366784 469.875061 
L 191.48642 469.564481 
L 200.606057 469.253902 
L 209.725693 468.943322 
L 218.84533 468.632743 
L 227.964966 468.322163 
L 237.084602 468.011584 
L 246.204239 467.701005 
L 255.323875 467.390425 
L 264.443511 467.079846 
L 273.563148 466.769266 
L 282.682784 466.458687 
L 291.80242 466.148107 
L 300.922057 465.837528 
L 310.041693 465.526948 
L 319.16133 465.216369 
L 328.280966 464.90579 
L 337.400602 464.59521 
L 346.520239 464.284631 
L 355.639875 463.974051 
L 364.759511 463.663472 
L 373.879148 463.352892 
L 382.998784 463.042313 
L 392.11842 462.731733 
L 401.238057 462.421154 
L 410.357693 462.110575 
L 419.47733 461.799995 
L 428.596966 461.489416 
L 437.716602 461.178836 
L 446.836239 460.868257 
L 455.955875 460.557677 
L 465.075511 460.247098 
L 474.195148 459.936518 
L 483.314784 459.625939 
L 492.43442 459.31536 
L 501.554057 459.00478 
L 510.673693 458.694201 
L 519.79333 458.383621 
L 528.912966 458.073042 
L 538.032602 457.762462 
L 547.152239 457.451883 
L 556.271875 457.141303 
L 565.391511 456.830724 
L 574.511148 456.520145 
L 583.630784 456.209565 
L 592.75042 455.898986 
L 601.870057 455.588406 
L 610.989693 455.277827 
L 620.10933 454.967247 
L 629.228966 454.656668 
L 638.348602 454.346088 
L 647.468239 454.035509 
L 656.587875 453.72493 
L 665.707511 453.41435 
L 674.827148 453.103771 
L 683.946784 452.793191 
L 693.06642 452.482612 
L 702.186057 452.172032 
L 711.305693 451.861453 
L 720.42533 451.550873 
L 729.544966 451.240294 
L 738.664602 450.929715 
L 747.784239 450.619135 
L 756.903875 450.308556 
L 766.023511 449.997976 
L 775.143148 449.687397 
L 784.262784 449.376817 
L 793.38242 449.066238 
L 802.502057 448.755658 
L 811.621693 448.445079 
L 820.74133 448.134499 
L 829.860966 447.82392 
L 838.980602 447.513341 
L 848.100239 447.202761 
L 857.219875 446.892182 
L 866.339511 446.581602 
L 875.459148 446.271023 
L 884.578784 445.960443 
L 893.69842 445.649864 
L 902.818057 445.339284 
L 911.937693 445.028705 
L 921.05733 444.718126 
L 930.176966 444.407546 
L 939.296602 444.096967 
L 948.416239 443.786387 
L 957.535875 443.475808 
" clip-path="url(#pf563c4cf82)" style="fill: none; stroke-dasharray: 1.5,2.475; stroke-dashoffset: 0; stroke: #9a5689; stroke-width: 1.5"/>
   </g>
   <g id="line2d_42">
    <path d="M 54.691875 521.155799 
L 63.811511 520.772353 
L 72.931148 520.388906 
L 82.050784 520.005459 
L 91.17042 519.622012 
L 100.290057 519.238566 
L 109.409693 518.855119 
L 118.52933 518.471672 
L 127.648966 518.088226 
L 136.768602 517.704779 
L 145.888239 517.321332 
L 155.007875 516.937886 
L 164.127511 516.554439 
L 173.247148 516.170992 
L 182.366784 515.787545 
L 191.48642 515.404099 
L 200.606057 515.020652 
L 209.725693 514.637205 
L 218.84533 514.253759 
L 227.964966 513.870312 
L 237.084602 513.486865 
L 246.204239 513.103418 
L 255.323875 512.719972 
L 264.443511 512.336525 
L 273.563148 511.953078 
L 282.682784 511.569632 
L 291.80242 511.186185 
L 300.922057 510.802738 
L 310.041693 510.419291 
L 319.16133 510.035845 
L 328.280966 509.652398 
L 337.400602 509.268951 
L 346.520239 508.885505 
L 355.639875 508.502058 
L 364.759511 508.118611 
L 373.879148 507.735165 
L 382.998784 507.351718 
L 392.11842 506.968271 
L 401.238057 506.584824 
L 410.357693 506.201378 
L 419.47733 505.817931 
L 428.596966 505.434484 
L 437.716602 505.051038 
L 446.836239 504.667591 
L 455.955875 504.284144 
L 465.075511 503.900697 
L 474.195148 503.517251 
L 483.314784 503.133804 
L 492.43442 502.750357 
L 501.554057 502.366911 
L 510.673693 501.983464 
L 519.79333 501.600017 
L 528.912966 501.21657 
L 538.032602 500.833124 
L 547.152239 500.449677 
L 556.271875 500.06623 
L 565.391511 499.682784 
L 574.511148 499.299337 
L 583.630784 498.91589 
L 592.75042 498.532444 
L 601.870057 498.148997 
L 610.989693 497.76555 
L 620.10933 497.382103 
L 629.228966 496.998657 
L 638.348602 496.61521 
L 647.468239 496.231763 
L 656.587875 495.848317 
L 665.707511 495.46487 
L 674.827148 495.081423 
L 683.946784 494.697976 
L 693.06642 494.31453 
L 702.186057 493.931083 
L 711.305693 493.547636 
L 720.42533 493.16419 
L 729.544966 492.780743 
L 738.664602 492.397296 
L 747.784239 492.013849 
L 756.903875 491.630403 
L 766.023511 491.246956 
L 775.143148 490.863509 
L 784.262784 490.480063 
L 793.38242 490.096616 
L 802.502057 489.713169 
L 811.621693 489.329722 
L 820.74133 488.946276 
L 829.860966 488.562829 
L 838.980602 488.179382 
L 848.100239 487.795936 
L 857.219875 487.412489 
L 866.339511 487.029042 
L 875.459148 486.645596 
L 884.578784 486.262149 
L 893.69842 485.878702 
L 902.818057 485.495255 
L 911.937693 485.111809 
L 921.05733 484.728362 
L 930.176966 484.344915 
L 939.296602 483.961469 
L 948.416239 483.578022 
L 957.535875 483.194575 
" clip-path="url(#pf563c4cf82)" style="fill: none; stroke-dasharray: 1.5,2.475; stroke-dashoffset: 0; stroke: #be503b; stroke-width: 1.5"/>
   </g>
   <g id="line2d_43">
    <path d="M 54.691875 443.914213 
L 63.811511 442.967651 
L 72.931148 442.02109 
L 82.050784 441.074529 
L 91.17042 440.127968 
L 100.290057 439.181407 
L 109.409693 438.234845 
L 118.52933 437.288284 
L 127.648966 436.341723 
L 136.768602 435.395162 
L 145.888239 434.448601 
L 155.007875 433.502039 
L 164.127511 432.555478 
L 173.247148 431.608917 
L 182.366784 430.662356 
L 191.48642 429.715795 
L 200.606057 428.769234 
L 209.725693 427.822672 
L 218.84533 426.876111 
L 227.964966 425.92955 
L 237.084602 424.982989 
L 246.204239 424.036428 
L 255.323875 423.089866 
L 264.443511 422.143305 
L 273.563148 421.196744 
L 282.682784 420.250183 
L 291.80242 419.303622 
L 300.922057 418.35706 
L 310.041693 417.410499 
L 319.16133 416.463938 
L 328.280966 415.517377 
L 337.400602 414.570816 
L 346.520239 413.624254 
L 355.639875 412.677693 
L 364.759511 411.731132 
L 373.879148 410.784571 
L 382.998784 409.83801 
L 392.11842 408.891449 
L 401.238057 407.944887 
L 410.357693 406.998326 
L 419.47733 406.051765 
L 428.596966 405.105204 
L 437.716602 404.158643 
L 446.836239 403.212081 
L 455.955875 402.26552 
L 465.075511 401.318959 
L 474.195148 400.372398 
L 483.314784 399.425837 
L 492.43442 398.479275 
L 501.554057 397.532714 
L 510.673693 396.586153 
L 519.79333 395.639592 
L 528.912966 394.693031 
L 538.032602 393.746469 
L 547.152239 392.799908 
L 556.271875 391.853347 
L 565.391511 390.906786 
L 574.511148 389.960225 
L 583.630784 389.013664 
L 592.75042 388.067102 
L 601.870057 387.120541 
L 610.989693 386.17398 
L 620.10933 385.227419 
L 629.228966 384.280858 
L 638.348602 383.334296 
L 647.468239 382.387735 
L 656.587875 381.441174 
L 665.707511 380.494613 
L 674.827148 379.548052 
L 683.946784 378.60149 
L 693.06642 377.654929 
L 702.186057 376.708368 
L 711.305693 375.761807 
L 720.42533 374.815246 
L 729.544966 373.868684 
L 738.664602 372.922123 
L 747.784239 371.975562 
L 756.903875 371.029001 
L 766.023511 370.08244 
L 775.143148 369.135879 
L 784.262784 368.189317 
L 793.38242 367.242756 
L 802.502057 366.296195 
L 811.621693 365.349634 
L 820.74133 364.403073 
L 829.860966 363.456511 
L 838.980602 362.50995 
L 848.100239 361.563389 
L 857.219875 360.616828 
L 866.339511 359.670267 
L 875.459148 358.723705 
L 884.578784 357.777144 
L 893.69842 356.830583 
L 902.818057 355.884022 
L 911.937693 354.937461 
L 921.05733 353.990899 
L 930.176966 353.044338 
L 939.296602 352.097777 
L 948.416239 351.151216 
L 957.535875 350.204655 
" clip-path="url(#pf563c4cf82)" style="fill: none; stroke-dasharray: 1.5,2.475; stroke-dashoffset: 0; stroke: #e2321d; stroke-width: 1.5"/>
   </g>
   <g id="line2d_44">
    <path d="M 54.691875 423.421414 
L 63.811511 420.538546 
L 72.931148 417.655678 
L 82.050784 414.77281 
L 91.17042 411.889942 
L 100.290057 409.007074 
L 109.409693 406.124206 
L 118.52933 403.241338 
L 127.648966 400.35847 
L 136.768602 397.475602 
L 145.888239 394.592734 
L 155.007875 391.709866 
L 164.127511 388.826998 
L 173.247148 385.94413 
L 182.366784 383.061262 
L 191.48642 380.178393 
L 200.606057 377.295525 
L 209.725693 374.412657 
L 218.84533 371.529789 
L 227.964966 368.646921 
L 237.084602 365.764053 
L 246.204239 362.881185 
L 255.323875 359.998317 
L 264.443511 357.115449 
L 273.563148 354.232581 
L 282.682784 351.349713 
L 291.80242 348.466845 
L 300.922057 345.583977 
L 310.041693 342.701109 
L 319.16133 339.818241 
L 328.280966 336.935373 
L 337.400602 334.052505 
L 346.520239 331.169637 
L 355.639875 328.286768 
L 364.759511 325.4039 
L 373.879148 322.521032 
L 382.998784 319.638164 
L 392.11842 316.755296 
L 401.238057 313.872428 
L 410.357693 310.98956 
L 419.47733 308.106692 
L 428.596966 305.223824 
L 437.716602 302.340956 
L 446.836239 299.458088 
L 455.955875 296.57522 
L 465.075511 293.692352 
L 474.195148 290.809484 
L 483.314784 287.926616 
L 492.43442 285.043748 
L 501.554057 282.16088 
L 510.673693 279.278012 
L 519.79333 276.395143 
L 528.912966 273.512275 
L 538.032602 270.629407 
L 547.152239 267.746539 
L 556.271875 264.863671 
L 565.391511 261.980803 
L 574.511148 259.097935 
L 583.630784 256.215067 
L 592.75042 253.332199 
L 601.870057 250.449331 
L 610.989693 247.566463 
L 620.10933 244.683595 
L 629.228966 241.800727 
L 638.348602 238.917859 
L 647.468239 236.034991 
L 656.587875 233.152123 
L 665.707511 230.269255 
L 674.827148 227.386387 
L 683.946784 224.503518 
L 693.06642 221.62065 
L 702.186057 218.737782 
L 711.305693 215.854914 
L 720.42533 212.972046 
L 729.544966 210.089178 
L 738.664602 207.20631 
L 747.784239 204.323442 
L 756.903875 201.440574 
L 766.023511 198.557706 
L 775.143148 195.674838 
L 784.262784 192.79197 
L 793.38242 189.909102 
L 802.502057 187.026234 
L 811.621693 184.143366 
L 820.74133 181.260498 
L 829.860966 178.37763 
L 838.980602 175.494762 
L 848.100239 172.611893 
L 857.219875 169.729025 
L 866.339511 166.846157 
L 875.459148 163.963289 
L 884.578784 161.080421 
L 893.69842 158.197553 
L 902.818057 155.314685 
L 911.937693 152.431817 
L 921.05733 149.548949 
L 930.176966 146.666081 
L 939.296602 143.783213 
L 948.416239 140.900345 
L 957.535875 138.017477 
" clip-path="url(#pf563c4cf82)" style="fill: none; stroke-dasharray: 1.5,2.475; stroke-dashoffset: 0; stroke: #48b585; stroke-width: 1.5"/>
   </g>
   <g id="line2d_45">
    <path d="M 54.691875 502.262366 
L 72.394699 500.68252 
L 90.097522 493.860986 
L 143.205993 489.601907 
L 160.908816 460.308849 
L 178.61164 429.567739 
L 196.314463 463.305053 
L 214.017287 448.337383 
L 231.72011 449.990633 
L 249.422934 446.050192 
L 267.125757 456.410115 
L 284.828581 452.226108 
L 302.531404 455.79953 
L 320.234228 448.3207 
L 337.937051 452.025916 
L 355.639875 453.340508 
L 373.342699 455.170595 
L 391.045522 432.383769 
L 408.748346 451.425341 
L 426.451169 439.84258 
L 444.153993 452.070959 
L 461.856816 445.669828 
L 479.55964 439.920988 
L 497.262463 444.477019 
L 514.965287 435.223155 
L 532.66811 305.39714 
L 585.776581 366.837655 
L 603.479404 367.172976 
L 621.182228 339.212862 
L 638.885051 362.174856 
L 656.587875 319.974435 
L 674.290699 331.125116 
L 691.993522 328.279056 
L 709.696346 404.512073 
L 727.399169 337.577963 
L 745.101993 337.08082 
L 762.804816 384.074164 
L 780.50764 389.592783 
L 798.210463 423.246684 
L 815.913287 401.642658 
L 833.61611 400.738459 
L 851.318934 410.679647 
L 869.021757 410.716349 
L 886.724581 429.61445 
L 904.427404 426.973587 
L 922.130228 415.796215 
L 939.833051 436.107336 
L 957.535875 420.729273 
" clip-path="url(#pf563c4cf82)" style="fill: none; stroke: #4ac1fa; stroke-width: 1.5; stroke-linecap: square"/>
   </g>
   <g id="line2d_46">
    <path d="M 54.691875 473.331323 
L 72.394699 465.163499 
L 90.097522 436.581123 
L 143.205993 312.685788 
L 160.908816 335.028855 
L 178.61164 312.026823 
L 196.314463 335.229047 
L 214.017287 333.128701 
L 231.72011 365.06429 
L 249.422934 331.887513 
L 267.125757 422.389196 
L 284.828581 500.260449 
L 302.531404 501.88367 
L 320.234228 501.396537 
L 337.937051 498.346949 
L 355.639875 508.301484 
L 373.342699 500.704207 
L 391.045522 497.734696 
L 408.748346 503.405128 
L 426.451169 512.5639 
L 444.153993 507.912778 
L 461.856816 505.653948 
L 479.55964 499.71159 
L 497.262463 493.348829 
L 514.965287 493.931053 
L 532.66811 493.111935 
L 585.776581 483.157401 
L 603.479404 484.380239 
L 621.182228 499.719931 
L 638.885051 492.18438 
L 656.587875 494.836921 
L 674.290699 498.862443 
L 691.993522 514.192126 
L 709.696346 518.035808 
L 727.399169 511.437821 
L 745.101993 497.662961 
L 762.804816 492.212741 
L 780.50764 497.39437 
L 798.210463 492.719893 
L 815.913287 486.293738 
L 833.61611 496.583594 
L 851.318934 476.978149 
L 869.021757 470.498609 
L 886.724581 469.272435 
L 904.427404 454.306434 
L 922.130228 467.764324 
L 939.833051 463.366778 
L 957.535875 463.493566 
" clip-path="url(#pf563c4cf82)" style="fill: none; stroke: #e9a942; stroke-width: 1.5; stroke-linecap: square"/>
   </g>
   <g id="line2d_47">
    <path d="M 54.691875 483.172415 
L 72.394699 460.976155 
L 90.097522 440.149541 
L 143.205993 460.550748 
L 160.908816 462.847948 
L 178.61164 449.418418 
L 196.314463 442.701985 
L 214.017287 479.310383 
L 231.72011 476.936442 
L 249.422934 482.747008 
L 267.125757 489.985608 
L 284.828581 481.801102 
L 302.531404 481.045378 
L 320.234228 482.403345 
L 337.937051 440.499876 
L 355.639875 467.495733 
L 373.342699 479.945991 
L 391.045522 468.001217 
L 408.748346 470.970728 
L 426.451169 470.962387 
L 444.153993 467.175426 
L 461.856816 457.556213 
L 479.55964 461.841985 
L 497.262463 458.545494 
L 514.965287 449.807124 
L 532.66811 454.461582 
L 585.776581 431.127566 
L 603.479404 408.045458 
L 621.182228 441.012033 
L 638.885051 458.176807 
L 656.587875 454.534986 
L 674.290699 457.37604 
L 691.993522 470.220009 
L 709.696346 490.981561 
L 727.399169 478.884975 
L 745.101993 465.14348 
L 762.804816 464.594621 
L 780.50764 455.392474 
L 798.210463 463.360105 
L 815.913287 460.52906 
L 833.61611 461.459952 
L 851.318934 470.416864 
L 869.021757 467.754314 
L 886.724581 429.330845 
L 904.427404 398.45961 
L 922.130228 396.574471 
L 939.833051 421.41493 
L 957.535875 435.765341 
" clip-path="url(#pf563c4cf82)" style="fill: none; stroke: #9a5689; stroke-width: 1.5; stroke-linecap: square"/>
   </g>
   <g id="line2d_48">
    <path d="M 54.691875 532.184359 
L 72.394699 518.14925 
L 90.097522 516.025549 
L 143.205993 512.030055 
L 160.908816 524.919067 
L 178.61164 524.006527 
L 196.314463 513.493123 
L 214.017287 519.27366 
L 231.72011 519.106834 
L 249.422934 510.822232 
L 267.125757 512.795789 
L 284.828581 508.326508 
L 302.531404 502.2974 
L 320.234228 509.544341 
L 337.937051 505.533833 
L 355.639875 530.82806 
L 373.342699 509.923037 
L 391.045522 507.969499 
L 408.748346 516.209058 
L 426.451169 503.840545 
L 444.153993 508.867026 
L 461.856816 509.756211 
L 479.55964 488.936269 
L 497.262463 505.40204 
L 514.965287 502.262366 
L 532.66811 498.502098 
L 585.776581 474.764362 
L 603.479404 462.490939 
L 621.182228 487.242981 
L 638.885051 476.067276 
L 656.587875 481.282271 
L 674.290699 484.587103 
L 691.993522 493.705838 
L 709.696346 514.761004 
L 727.399169 498.291897 
L 745.101993 496.546892 
L 762.804816 501.418225 
L 780.50764 477.585397 
L 798.210463 506.751666 
L 815.913287 499.566451 
L 833.61611 498.485415 
L 851.318934 484.363556 
L 869.021757 496.061427 
L 886.724581 483.824707 
L 904.427404 478.554659 
L 922.130228 489.678647 
L 939.833051 486.994409 
L 957.535875 492.094294 
" clip-path="url(#pf563c4cf82)" style="fill: none; stroke: #be503b; stroke-width: 1.5; stroke-linecap: square"/>
   </g>
   <g id="line2d_49">
    <path d="M 54.691875 445.916731 
L 72.394699 436.941468 
L 90.097522 435.179781 
L 143.205993 428.665207 
L 160.908816 427.647566 
L 178.61164 437.161679 
L 196.314463 433.13282 
L 214.017287 431.376137 
L 231.72011 430.023175 
L 249.422934 413.028564 
L 267.125757 437.864018 
L 284.828581 420.053626 
L 302.531404 408.477538 
L 320.234228 414.029523 
L 337.937051 411.673933 
L 355.639875 421.803635 
L 373.342699 421.713549 
L 391.045522 392.026781 
L 408.748346 390.508661 
L 426.451169 401.192227 
L 444.153993 411.510443 
L 461.856816 404.955832 
L 479.55964 400.25633 
L 497.262463 406.277097 
L 514.965287 401.367395 
L 532.66811 390.842314 
L 585.776581 381.543407 
L 603.479404 350.880705 
L 621.182228 387.322275 
L 638.885051 374.476638 
L 656.587875 363.279247 
L 674.290699 363.536159 
L 691.993522 388.975526 
L 709.696346 448.102158 
L 727.399169 425.055083 
L 745.101993 390.685497 
L 762.804816 374.176351 
L 780.50764 376.528604 
L 798.210463 364.829064 
L 815.913287 369.725421 
L 833.61611 360.551634 
L 851.318934 356.876447 
L 869.021757 356.444367 
L 886.724581 326.053591 
L 904.427404 341.703581 
L 922.130228 337.472862 
L 939.833051 349.749621 
L 957.535875 347.435738 
" clip-path="url(#pf563c4cf82)" style="fill: none; stroke: #e2321d; stroke-width: 1.5; stroke-linecap: square"/>
   </g>
   <g id="line2d_50">
    <path d="M 54.691875 392.150233 
L 72.394699 359.463926 
L 90.097522 394.198862 
L 143.205993 357.965824 
L 160.908816 401.327356 
L 178.61164 372.950176 
L 196.314463 353.766802 
L 214.017287 360.595009 
L 231.72011 363.519477 
L 249.422934 383.09823 
L 267.125757 416.645361 
L 284.828581 373.484021 
L 302.531404 348.598519 
L 320.234228 339.548183 
L 337.937051 327.962086 
L 355.639875 347.162143 
L 373.342699 330.142508 
L 391.045522 342.854684 
L 408.748346 351.616409 
L 426.451169 299.069412 
L 444.153993 298.281992 
L 461.856816 250.267669 
L 479.55964 279.812635 
L 497.262463 304.069201 
L 514.965287 330.617963 
L 532.66811 296.498617 
L 585.776581 196.187538 
L 603.479404 189.054038 
L 621.182228 128.507713 
L 638.885051 238.603164 
L 656.587875 312.96272 
L 674.290699 299.716699 
L 691.993522 269.476068 
L 709.696346 341.161395 
L 727.399169 270.126691 
L 745.101993 256.703834 
L 762.804816 234.73279 
L 780.50764 177.457931 
L 798.210463 158.926849 
L 815.913287 212.935245 
L 833.61611 192.387231 
L 851.318934 136.715575 
L 869.021757 137.67149 
L 886.724581 117.428768 
L 904.427404 133.804453 
L 922.130228 48.334255 
L 939.833051 164.021729 
L 957.535875 69.295999 
" clip-path="url(#pf563c4cf82)" style="fill: none; stroke: #48b585; stroke-width: 6; stroke-linecap: square"/>
   </g>
   <g id="patch_3">
    <path d="M 54.691875 567.74175 
L 54.691875 24.14175 
" style="fill: none; stroke: #ffffff; stroke-linejoin: miter; stroke-linecap: square"/>
   </g>
   <g id="patch_4">
    <path d="M 957.535875 567.74175 
L 957.535875 24.14175 
" style="fill: none; stroke: #ffffff; stroke-linejoin: miter; stroke-linecap: square"/>
   </g>
   <g id="patch_5">
    <path d="M 54.691875 567.74175 
L 957.535875 567.74175 
" style="fill: none; stroke: #ffffff; stroke-linejoin: miter; stroke-linecap: square"/>
   </g>
   <g id="patch_6">
    <path d="M 54.691875 24.14175 
L 957.535875 24.14175 
" style="fill: none; stroke: #ffffff; stroke-linejoin: miter; stroke-linecap: square"/>
   </g>
   <g id="text_22">
    <!-- Potentially Ephemeral Enterprise Linux 8 and 9 Instances by Distribution -->
    <g transform="translate(54.691875 18.14175)scale(0.144 -0.144)">
     <defs>
      <path id="DejaVuSans-50" d="M 1259 4147 
L 1259 2394 
L 2053 2394 
Q 2494 2394 2734 2622 
Q 2975 2850 2975 3272 
Q 2975 3691 2734 3919 
Q 2494 4147 2053 4147 
L 1259 4147 
z
M 628 4666 
L 2053 4666 
Q 2838 4666 3239 4311 
Q 3641 3956 3641 3272 
Q 3641 2581 3239 2228 
Q 2838 1875 2053 1875 
L 1259 1875 
L 1259 0 
L 628 0 
L 628 4666 
z
" transform="scale(0.015625)"/>
      <path id="DejaVuSans-6f" d="M 1959 3097 
Q 1497 3097 1228 2736 
Q 959 2375 959 1747 
Q 959 1119 1226 758 
Q 1494 397 1959 397 
Q 2419 397 2687 759 
Q 2956 1122 2956 1747 
Q 2956 2369 2687 2733 
Q 2419 3097 1959 3097 
z
M 1959 3584 
Q 2709 3584 3137 3096 
Q 3566 2609 3566 1747 
Q 3566 888 3137 398 
Q 2709 -91 1959 -91 
Q 1206 -91 779 398 
Q 353 888 353 1747 
Q 353 2609 779 3096 
Q 1206 3584 1959 3584 
z
" transform="scale(0.015625)"/>
      <path id="DejaVuSans-69" d="M 603 3500 
L 1178 3500 
L 1178 0 
L 603 0 
L 603 3500 
z
M 603 4863 
L 1178 4863 
L 1178 4134 
L 603 4134 
L 603 4863 
z
" transform="scale(0.015625)"/>
      <path id="DejaVuSans-6c" d="M 603 4863 
L 1178 4863 
L 1178 0 
L 603 0 
L 603 4863 
z
" transform="scale(0.015625)"/>
      <path id="DejaVuSans-79" d="M 2059 -325 
Q 1816 -950 1584 -1140 
Q 1353 -1331 966 -1331 
L 506 -1331 
L 506 -850 
L 844 -850 
Q 1081 -850 1212 -737 
Q 1344 -625 1503 -206 
L 1606 56 
L 191 3500 
L 800 3500 
L 1894 763 
L 2988 3500 
L 3597 3500 
L 2059 -325 
z
" transform="scale(0.015625)"/>
      <path id="DejaVuSans-20" transform="scale(0.015625)"/>
      <path id="DejaVuSans-45" d="M 628 4666 
L 3578 4666 
L 3578 4134 
L 1259 4134 
L 1259 2753 
L 3481 2753 
L 3481 2222 
L 1259 2222 
L 1259 531 
L 3634 531 
L 3634 0 
L 628 0 
L 628 4666 
z
" transform="scale(0.015625)"/>
      <path id="DejaVuSans-70" d="M 1159 525 
L 1159 -1331 
L 581 -1331 
L 581 3500 
L 1159 3500 
L 1159 2969 
Q 1341 3281 1617 3432 
Q 1894 3584 2278 3584 
Q 2916 3584 3314 3078 
Q 3713 2572 3713 1747 
Q 3713 922 3314 415 
Q 2916 -91 2278 -91 
Q 1894 -91 1617 61 
Q 1341 213 1159 525 
z
M 3116 1747 
Q 3116 2381 2855 2742 
Q 2594 3103 2138 3103 
Q 1681 3103 1420 2742 
Q 1159 2381 1159 1747 
Q 1159 1113 1420 752 
Q 1681 391 2138 391 
Q 2594 391 2855 752 
Q 3116 1113 3116 1747 
z
" transform="scale(0.015625)"/>
      <path id="DejaVuSans-68" d="M 3513 2113 
L 3513 0 
L 2938 0 
L 2938 2094 
Q 2938 2591 2744 2837 
Q 2550 3084 2163 3084 
Q 1697 3084 1428 2787 
Q 1159 2491 1159 1978 
L 1159 0 
L 581 0 
L 581 4863 
L 1159 4863 
L 1159 2956 
Q 1366 3272 1645 3428 
Q 1925 3584 2291 3584 
Q 2894 3584 3203 3211 
Q 3513 2838 3513 2113 
z
" transform="scale(0.015625)"/>
      <path id="DejaVuSans-6d" d="M 3328 2828 
Q 3544 3216 3844 3400 
Q 4144 3584 4550 3584 
Q 5097 3584 5394 3201 
Q 5691 2819 5691 2113 
L 5691 0 
L 5113 0 
L 5113 2094 
Q 5113 2597 4934 2840 
Q 4756 3084 4391 3084 
Q 3944 3084 3684 2787 
Q 3425 2491 3425 1978 
L 3425 0 
L 2847 0 
L 2847 2094 
Q 2847 2600 2669 2842 
Q 2491 3084 2119 3084 
Q 1678 3084 1418 2786 
Q 1159 2488 1159 1978 
L 1159 0 
L 581 0 
L 581 3500 
L 1159 3500 
L 1159 2956 
Q 1356 3278 1631 3431 
Q 1906 3584 2284 3584 
Q 2666 3584 2933 3390 
Q 3200 3197 3328 2828 
z
" transform="scale(0.015625)"/>
      <path id="DejaVuSans-72" d="M 2631 2963 
Q 2534 3019 2420 3045 
Q 2306 3072 2169 3072 
Q 1681 3072 1420 2755 
Q 1159 2438 1159 1844 
L 1159 0 
L 581 0 
L 581 3500 
L 1159 3500 
L 1159 2956 
Q 1341 3275 1631 3429 
Q 1922 3584 2338 3584 
Q 2397 3584 2469 3576 
Q 2541 3569 2628 3553 
L 2631 2963 
z
" transform="scale(0.015625)"/>
      <path id="DejaVuSans-4c" d="M 628 4666 
L 1259 4666 
L 1259 531 
L 3531 531 
L 3531 0 
L 628 0 
L 628 4666 
z
" transform="scale(0.015625)"/>
      <path id="DejaVuSans-75" d="M 544 1381 
L 544 3500 
L 1119 3500 
L 1119 1403 
Q 1119 906 1312 657 
Q 1506 409 1894 409 
Q 2359 409 2629 706 
Q 2900 1003 2900 1516 
L 2900 3500 
L 3475 3500 
L 3475 0 
L 2900 0 
L 2900 538 
Q 2691 219 2414 64 
Q 2138 -91 1772 -91 
Q 1169 -91 856 284 
Q 544 659 544 1381 
z
M 1991 3584 
L 1991 3584 
z
" transform="scale(0.015625)"/>
      <path id="DejaVuSans-78" d="M 3513 3500 
L 2247 1797 
L 3578 0 
L 2900 0 
L 1881 1375 
L 863 0 
L 184 0 
L 1544 1831 
L 300 3500 
L 978 3500 
L 1906 2253 
L 2834 3500 
L 3513 3500 
z
" transform="scale(0.015625)"/>
      <path id="DejaVuSans-64" d="M 2906 2969 
L 2906 4863 
L 3481 4863 
L 3481 0 
L 2906 0 
L 2906 525 
Q 2725 213 2448 61 
Q 2172 -91 1784 -91 
Q 1150 -91 751 415 
Q 353 922 353 1747 
Q 353 2572 751 3078 
Q 1150 3584 1784 3584 
Q 2172 3584 2448 3432 
Q 2725 3281 2906 2969 
z
M 947 1747 
Q 947 1113 1208 752 
Q 1469 391 1925 391 
Q 2381 391 2643 752 
Q 2906 1113 2906 1747 
Q 2906 2381 2643 2742 
Q 2381 3103 1925 3103 
Q 1469 3103 1208 2742 
Q 947 2381 947 1747 
z
" transform="scale(0.015625)"/>
      <path id="DejaVuSans-62" d="M 3116 1747 
Q 3116 2381 2855 2742 
Q 2594 3103 2138 3103 
Q 1681 3103 1420 2742 
Q 1159 2381 1159 1747 
Q 1159 1113 1420 752 
Q 1681 391 2138 391 
Q 2594 391 2855 752 
Q 3116 1113 3116 1747 
z
M 1159 2969 
Q 1341 3281 1617 3432 
Q 1894 3584 2278 3584 
Q 2916 3584 3314 3078 
Q 3713 2572 3713 1747 
Q 3713 922 3314 415 
Q 2916 -91 2278 -91 
Q 1894 -91 1617 61 
Q 1341 213 1159 525 
L 1159 0 
L 581 0 
L 581 4863 
L 1159 4863 
L 1159 2969 
z
" transform="scale(0.015625)"/>
     </defs>
     <use xlink:href="#DejaVuSans-50"/>
     <use xlink:href="#DejaVuSans-6f" x="56.677734"/>
     <use xlink:href="#DejaVuSans-74" x="117.859375"/>
     <use xlink:href="#DejaVuSans-65" x="157.068359"/>
     <use xlink:href="#DejaVuSans-6e" x="218.591797"/>
     <use xlink:href="#DejaVuSans-74" x="281.970703"/>
     <use xlink:href="#DejaVuSans-69" x="321.179688"/>
     <use xlink:href="#DejaVuSans-61" x="348.962891"/>
     <use xlink:href="#DejaVuSans-6c" x="410.242188"/>
     <use xlink:href="#DejaVuSans-6c" x="438.025391"/>
     <use xlink:href="#DejaVuSans-79" x="465.808594"/>
     <use xlink:href="#DejaVuSans-20" x="524.988281"/>
     <use xlink:href="#DejaVuSans-45" x="556.775391"/>
     <use xlink:href="#DejaVuSans-70" x="619.958984"/>
     <use xlink:href="#DejaVuSans-68" x="683.435547"/>
     <use xlink:href="#DejaVuSans-65" x="746.814453"/>
     <use xlink:href="#DejaVuSans-6d" x="808.337891"/>
     <use xlink:href="#DejaVuSans-65" x="905.75"/>
     <use xlink:href="#DejaVuSans-72" x="967.273438"/>
     <use xlink:href="#DejaVuSans-61" x="1008.386719"/>
     <use xlink:href="#DejaVuSans-6c" x="1069.666016"/>
     <use xlink:href="#DejaVuSans-20" x="1097.449219"/>
     <use xlink:href="#DejaVuSans-45" x="1129.236328"/>
     <use xlink:href="#DejaVuSans-6e" x="1192.419922"/>
     <use xlink:href="#DejaVuSans-74" x="1255.798828"/>
     <use xlink:href="#DejaVuSans-65" x="1295.007812"/>
     <use xlink:href="#DejaVuSans-72" x="1356.53125"/>
     <use xlink:href="#DejaVuSans-70" x="1397.644531"/>
     <use xlink:href="#DejaVuSans-72" x="1461.121094"/>
     <use xlink:href="#DejaVuSans-69" x="1502.234375"/>
     <use xlink:href="#DejaVuSans-73" x="1530.017578"/>
     <use xlink:href="#DejaVuSans-65" x="1582.117188"/>
     <use xlink:href="#DejaVuSans-20" x="1643.640625"/>
     <use xlink:href="#DejaVuSans-4c" x="1675.427734"/>
     <use xlink:href="#DejaVuSans-69" x="1731.140625"/>
     <use xlink:href="#DejaVuSans-6e" x="1758.923828"/>
     <use xlink:href="#DejaVuSans-75" x="1822.302734"/>
     <use xlink:href="#DejaVuSans-78" x="1885.681641"/>
     <use xlink:href="#DejaVuSans-20" x="1944.861328"/>
     <use xlink:href="#DejaVuSans-38" x="1976.648438"/>
     <use xlink:href="#DejaVuSans-20" x="2040.271484"/>
     <use xlink:href="#DejaVuSans-61" x="2072.058594"/>
     <use xlink:href="#DejaVuSans-6e" x="2133.337891"/>
     <use xlink:href="#DejaVuSans-64" x="2196.716797"/>
     <use xlink:href="#DejaVuSans-20" x="2260.193359"/>
     <use xlink:href="#DejaVuSans-39" x="2291.980469"/>
     <use xlink:href="#DejaVuSans-20" x="2355.603516"/>
     <use xlink:href="#DejaVuSans-49" x="2387.390625"/>
     <use xlink:href="#DejaVuSans-6e" x="2416.882812"/>
     <use xlink:href="#DejaVuSans-73" x="2480.261719"/>
     <use xlink:href="#DejaVuSans-74" x="2532.361328"/>
     <use xlink:href="#DejaVuSans-61" x="2571.570312"/>
     <use xlink:href="#DejaVuSans-6e" x="2632.849609"/>
     <use xlink:href="#DejaVuSans-63" x="2696.228516"/>
     <use xlink:href="#DejaVuSans-65" x="2751.208984"/>
     <use xlink:href="#DejaVuSans-73" x="2812.732422"/>
     <use xlink:href="#DejaVuSans-20" x="2864.832031"/>
     <use xlink:href="#DejaVuSans-62" x="2896.619141"/>
     <use xlink:href="#DejaVuSans-79" x="2960.095703"/>
     <use xlink:href="#DejaVuSans-20" x="3019.275391"/>
     <use xlink:href="#DejaVuSans-44" x="3051.0625"/>
     <use xlink:href="#DejaVuSans-69" x="3128.064453"/>
     <use xlink:href="#DejaVuSans-73" x="3155.847656"/>
     <use xlink:href="#DejaVuSans-74" x="3207.947266"/>
     <use xlink:href="#DejaVuSans-72" x="3247.15625"/>
     <use xlink:href="#DejaVuSans-69" x="3288.269531"/>
     <use xlink:href="#DejaVuSans-62" x="3316.052734"/>
     <use xlink:href="#DejaVuSans-75" x="3379.529297"/>
     <use xlink:href="#DejaVuSans-74" x="3442.908203"/>
     <use xlink:href="#DejaVuSans-69" x="3482.117188"/>
     <use xlink:href="#DejaVuSans-6f" x="3509.900391"/>
     <use xlink:href="#DejaVuSans-6e" x="3571.082031"/>
    </g>
   </g>
   <g id="text_23">
    <!-- 2024-04-11 11:54 UTC -->
    <g transform="translate(794.653875 18.14175)scale(0.144 -0.144)">
     <defs>
      <path id="DejaVuSans-3a" d="M 750 794 
L 1409 794 
L 1409 0 
L 750 0 
L 750 794 
z
M 750 3309 
L 1409 3309 
L 1409 2516 
L 750 2516 
L 750 3309 
z
" transform="scale(0.015625)"/>
      <path id="DejaVuSans-55" d="M 556 4666 
L 1191 4666 
L 1191 1831 
Q 1191 1081 1462 751 
Q 1734 422 2344 422 
Q 2950 422 3222 751 
Q 3494 1081 3494 1831 
L 3494 4666 
L 4128 4666 
L 4128 1753 
Q 4128 841 3676 375 
Q 3225 -91 2344 -91 
Q 1459 -91 1007 375 
Q 556 841 556 1753 
L 556 4666 
z
" transform="scale(0.015625)"/>
      <path id="DejaVuSans-54" d="M -19 4666 
L 3928 4666 
L 3928 4134 
L 2272 4134 
L 2272 0 
L 1638 0 
L 1638 4134 
L -19 4134 
L -19 4666 
z
" transform="scale(0.015625)"/>
      <path id="DejaVuSans-43" d="M 4122 4306 
L 4122 3641 
Q 3803 3938 3442 4084 
Q 3081 4231 2675 4231 
Q 1875 4231 1450 3742 
Q 1025 3253 1025 2328 
Q 1025 1406 1450 917 
Q 1875 428 2675 428 
Q 3081 428 3442 575 
Q 3803 722 4122 1019 
L 4122 359 
Q 3791 134 3420 21 
Q 3050 -91 2638 -91 
Q 1578 -91 968 557 
Q 359 1206 359 2328 
Q 359 3453 968 4101 
Q 1578 4750 2638 4750 
Q 3056 4750 3426 4639 
Q 3797 4528 4122 4306 
z
" transform="scale(0.015625)"/>
     </defs>
     <use xlink:href="#DejaVuSans-32"/>
     <use xlink:href="#DejaVuSans-30" x="63.623047"/>
     <use xlink:href="#DejaVuSans-32" x="127.246094"/>
     <use xlink:href="#DejaVuSans-34" x="190.869141"/>
     <use xlink:href="#DejaVuSans-2d" x="254.492188"/>
     <use xlink:href="#DejaVuSans-30" x="290.576172"/>
     <use xlink:href="#DejaVuSans-34" x="354.199219"/>
     <use xlink:href="#DejaVuSans-2d" x="417.822266"/>
     <use xlink:href="#DejaVuSans-31" x="453.90625"/>
     <use xlink:href="#DejaVuSans-31" x="517.529297"/>
     <use xlink:href="#DejaVuSans-20" x="581.152344"/>
     <use xlink:href="#DejaVuSans-31" x="612.939453"/>
     <use xlink:href="#DejaVuSans-31" x="676.5625"/>
     <use xlink:href="#DejaVuSans-3a" x="740.185547"/>
     <use xlink:href="#DejaVuSans-35" x="773.876953"/>
     <use xlink:href="#DejaVuSans-34" x="837.5"/>
     <use xlink:href="#DejaVuSans-20" x="901.123047"/>
     <use xlink:href="#DejaVuSans-55" x="932.910156"/>
     <use xlink:href="#DejaVuSans-54" x="1006.103516"/>
     <use xlink:href="#DejaVuSans-43" x="1061.3125"/>
    </g>
   </g>
   <g id="legend_1">
    <g id="patch_7">
     <path d="M 61.691875 134.888625 
L 170.660625 134.888625 
Q 172.660625 134.888625 172.660625 132.888625 
L 172.660625 31.14175 
Q 172.660625 29.14175 170.660625 29.14175 
L 61.691875 29.14175 
Q 59.691875 29.14175 59.691875 31.14175 
L 59.691875 132.888625 
Q 59.691875 134.888625 61.691875 134.888625 
z
" style="fill: #e5e5e5; opacity: 0.8; stroke: #cccccc; stroke-width: 0.5; stroke-linejoin: miter"/>
    </g>
    <g id="text_24">
     <!-- Distribution -->
     <g transform="translate(87.0075 40.740187)scale(0.1 -0.1)">
      <use xlink:href="#DejaVuSans-44"/>
      <use xlink:href="#DejaVuSans-69" x="77.001953"/>
      <use xlink:href="#DejaVuSans-73" x="104.785156"/>
      <use xlink:href="#DejaVuSans-74" x="156.884766"/>
      <use xlink:href="#DejaVuSans-72" x="196.09375"/>
      <use xlink:href="#DejaVuSans-69" x="237.207031"/>
      <use xlink:href="#DejaVuSans-62" x="264.990234"/>
      <use xlink:href="#DejaVuSans-75" x="328.466797"/>
      <use xlink:href="#DejaVuSans-74" x="391.845703"/>
      <use xlink:href="#DejaVuSans-69" x="431.054688"/>
      <use xlink:href="#DejaVuSans-6f" x="458.837891"/>
      <use xlink:href="#DejaVuSans-6e" x="520.019531"/>
     </g>
    </g>
    <g id="line2d_51">
     <path d="M 63.691875 51.918312 
L 73.691875 51.918312 
L 83.691875 51.918312 
" style="fill: none; stroke: #4ac1fa; stroke-width: 1.5; stroke-linecap: square"/>
    </g>
    <g id="text_25">
     <!-- AlmaLinux -->
     <g transform="translate(91.691875 55.418312)scale(0.1 -0.1)">
      <defs>
       <path id="DejaVuSans-41" d="M 2188 4044 
L 1331 1722 
L 3047 1722 
L 2188 4044 
z
M 1831 4666 
L 2547 4666 
L 4325 0 
L 3669 0 
L 3244 1197 
L 1141 1197 
L 716 0 
L 50 0 
L 1831 4666 
z
" transform="scale(0.015625)"/>
      </defs>
      <use xlink:href="#DejaVuSans-41"/>
      <use xlink:href="#DejaVuSans-6c" x="68.408203"/>
      <use xlink:href="#DejaVuSans-6d" x="96.191406"/>
      <use xlink:href="#DejaVuSans-61" x="193.603516"/>
      <use xlink:href="#DejaVuSans-4c" x="254.882812"/>
      <use xlink:href="#DejaVuSans-69" x="310.595703"/>
      <use xlink:href="#DejaVuSans-6e" x="338.378906"/>
      <use xlink:href="#DejaVuSans-75" x="401.757812"/>
      <use xlink:href="#DejaVuSans-78" x="465.136719"/>
     </g>
    </g>
    <g id="line2d_52">
     <path d="M 63.691875 66.596437 
L 73.691875 66.596437 
L 83.691875 66.596437 
" style="fill: none; stroke: #e9a942; stroke-width: 1.5; stroke-linecap: square"/>
    </g>
    <g id="text_26">
     <!-- CentOS Legacy -->
     <g transform="translate(91.691875 70.096437)scale(0.1 -0.1)">
      <defs>
       <path id="DejaVuSans-4f" d="M 2522 4238 
Q 1834 4238 1429 3725 
Q 1025 3213 1025 2328 
Q 1025 1447 1429 934 
Q 1834 422 2522 422 
Q 3209 422 3611 934 
Q 4013 1447 4013 2328 
Q 4013 3213 3611 3725 
Q 3209 4238 2522 4238 
z
M 2522 4750 
Q 3503 4750 4090 4092 
Q 4678 3434 4678 2328 
Q 4678 1225 4090 567 
Q 3503 -91 2522 -91 
Q 1538 -91 948 565 
Q 359 1222 359 2328 
Q 359 3434 948 4092 
Q 1538 4750 2522 4750 
z
" transform="scale(0.015625)"/>
       <path id="DejaVuSans-53" d="M 3425 4513 
L 3425 3897 
Q 3066 4069 2747 4153 
Q 2428 4238 2131 4238 
Q 1616 4238 1336 4038 
Q 1056 3838 1056 3469 
Q 1056 3159 1242 3001 
Q 1428 2844 1947 2747 
L 2328 2669 
Q 3034 2534 3370 2195 
Q 3706 1856 3706 1288 
Q 3706 609 3251 259 
Q 2797 -91 1919 -91 
Q 1588 -91 1214 -16 
Q 841 59 441 206 
L 441 856 
Q 825 641 1194 531 
Q 1563 422 1919 422 
Q 2459 422 2753 634 
Q 3047 847 3047 1241 
Q 3047 1584 2836 1778 
Q 2625 1972 2144 2069 
L 1759 2144 
Q 1053 2284 737 2584 
Q 422 2884 422 3419 
Q 422 4038 858 4394 
Q 1294 4750 2059 4750 
Q 2388 4750 2728 4690 
Q 3069 4631 3425 4513 
z
" transform="scale(0.015625)"/>
       <path id="DejaVuSans-67" d="M 2906 1791 
Q 2906 2416 2648 2759 
Q 2391 3103 1925 3103 
Q 1463 3103 1205 2759 
Q 947 2416 947 1791 
Q 947 1169 1205 825 
Q 1463 481 1925 481 
Q 2391 481 2648 825 
Q 2906 1169 2906 1791 
z
M 3481 434 
Q 3481 -459 3084 -895 
Q 2688 -1331 1869 -1331 
Q 1566 -1331 1297 -1286 
Q 1028 -1241 775 -1147 
L 775 -588 
Q 1028 -725 1275 -790 
Q 1522 -856 1778 -856 
Q 2344 -856 2625 -561 
Q 2906 -266 2906 331 
L 2906 616 
Q 2728 306 2450 153 
Q 2172 0 1784 0 
Q 1141 0 747 490 
Q 353 981 353 1791 
Q 353 2603 747 3093 
Q 1141 3584 1784 3584 
Q 2172 3584 2450 3431 
Q 2728 3278 2906 2969 
L 2906 3500 
L 3481 3500 
L 3481 434 
z
" transform="scale(0.015625)"/>
      </defs>
      <use xlink:href="#DejaVuSans-43"/>
      <use xlink:href="#DejaVuSans-65" x="69.824219"/>
      <use xlink:href="#DejaVuSans-6e" x="131.347656"/>
      <use xlink:href="#DejaVuSans-74" x="194.726562"/>
      <use xlink:href="#DejaVuSans-4f" x="233.935547"/>
      <use xlink:href="#DejaVuSans-53" x="312.646484"/>
      <use xlink:href="#DejaVuSans-20" x="376.123047"/>
      <use xlink:href="#DejaVuSans-4c" x="407.910156"/>
      <use xlink:href="#DejaVuSans-65" x="461.873047"/>
      <use xlink:href="#DejaVuSans-67" x="523.396484"/>
      <use xlink:href="#DejaVuSans-61" x="586.873047"/>
      <use xlink:href="#DejaVuSans-63" x="648.152344"/>
      <use xlink:href="#DejaVuSans-79" x="703.132812"/>
     </g>
    </g>
    <g id="line2d_53">
     <path d="M 63.691875 81.274563 
L 73.691875 81.274563 
L 83.691875 81.274563 
" style="fill: none; stroke: #9a5689; stroke-width: 1.5; stroke-linecap: square"/>
    </g>
    <g id="text_27">
     <!-- CentOS Stream -->
     <g transform="translate(91.691875 84.774563)scale(0.1 -0.1)">
      <use xlink:href="#DejaVuSans-43"/>
      <use xlink:href="#DejaVuSans-65" x="69.824219"/>
      <use xlink:href="#DejaVuSans-6e" x="131.347656"/>
      <use xlink:href="#DejaVuSans-74" x="194.726562"/>
      <use xlink:href="#DejaVuSans-4f" x="233.935547"/>
      <use xlink:href="#DejaVuSans-53" x="312.646484"/>
      <use xlink:href="#DejaVuSans-20" x="376.123047"/>
      <use xlink:href="#DejaVuSans-53" x="407.910156"/>
      <use xlink:href="#DejaVuSans-74" x="471.386719"/>
      <use xlink:href="#DejaVuSans-72" x="510.595703"/>
      <use xlink:href="#DejaVuSans-65" x="549.458984"/>
      <use xlink:href="#DejaVuSans-61" x="610.982422"/>
      <use xlink:href="#DejaVuSans-6d" x="672.261719"/>
     </g>
    </g>
    <g id="line2d_54">
     <path d="M 63.691875 95.952687 
L 73.691875 95.952687 
L 83.691875 95.952687 
" style="fill: none; stroke: #be503b; stroke-width: 1.5; stroke-linecap: square"/>
    </g>
    <g id="text_28">
     <!-- Oracle -->
     <g transform="translate(91.691875 99.452687)scale(0.1 -0.1)">
      <use xlink:href="#DejaVuSans-4f"/>
      <use xlink:href="#DejaVuSans-72" x="78.710938"/>
      <use xlink:href="#DejaVuSans-61" x="119.824219"/>
      <use xlink:href="#DejaVuSans-63" x="181.103516"/>
      <use xlink:href="#DejaVuSans-6c" x="236.083984"/>
      <use xlink:href="#DejaVuSans-65" x="263.867188"/>
     </g>
    </g>
    <g id="line2d_55">
     <path d="M 63.691875 110.630812 
L 73.691875 110.630812 
L 83.691875 110.630812 
" style="fill: none; stroke: #e2321d; stroke-width: 1.5; stroke-linecap: square"/>
    </g>
    <g id="text_29">
     <!-- RHEL -->
     <g transform="translate(91.691875 114.130812)scale(0.1 -0.1)">
      <defs>
       <path id="DejaVuSans-52" d="M 2841 2188 
Q 3044 2119 3236 1894 
Q 3428 1669 3622 1275 
L 4263 0 
L 3584 0 
L 2988 1197 
Q 2756 1666 2539 1819 
Q 2322 1972 1947 1972 
L 1259 1972 
L 1259 0 
L 628 0 
L 628 4666 
L 2053 4666 
Q 2853 4666 3247 4331 
Q 3641 3997 3641 3322 
Q 3641 2881 3436 2590 
Q 3231 2300 2841 2188 
z
M 1259 4147 
L 1259 2491 
L 2053 2491 
Q 2509 2491 2742 2702 
Q 2975 2913 2975 3322 
Q 2975 3731 2742 3939 
Q 2509 4147 2053 4147 
L 1259 4147 
z
" transform="scale(0.015625)"/>
       <path id="DejaVuSans-48" d="M 628 4666 
L 1259 4666 
L 1259 2753 
L 3553 2753 
L 3553 4666 
L 4184 4666 
L 4184 0 
L 3553 0 
L 3553 2222 
L 1259 2222 
L 1259 0 
L 628 0 
L 628 4666 
z
" transform="scale(0.015625)"/>
      </defs>
      <use xlink:href="#DejaVuSans-52"/>
      <use xlink:href="#DejaVuSans-48" x="69.482422"/>
      <use xlink:href="#DejaVuSans-45" x="144.677734"/>
      <use xlink:href="#DejaVuSans-4c" x="207.861328"/>
     </g>
    </g>
    <g id="line2d_56">
     <path d="M 63.691875 125.308937 
L 73.691875 125.308937 
L 83.691875 125.308937 
" style="fill: none; stroke: #48b585; stroke-width: 6; stroke-linecap: square"/>
    </g>
    <g id="text_30">
     <!-- Rocky Linux -->
     <g transform="translate(91.691875 128.808937)scale(0.1 -0.1)">
      <use xlink:href="#DejaVuSans-52"/>
      <use xlink:href="#DejaVuSans-6f" x="64.982422"/>
      <use xlink:href="#DejaVuSans-63" x="126.164062"/>
      <use xlink:href="#DejaVuSans-6b" x="181.144531"/>
      <use xlink:href="#DejaVuSans-79" x="235.429688"/>
      <use xlink:href="#DejaVuSans-20" x="294.609375"/>
      <use xlink:href="#DejaVuSans-4c" x="326.396484"/>
      <use xlink:href="#DejaVuSans-69" x="382.109375"/>
      <use xlink:href="#DejaVuSans-6e" x="409.892578"/>
      <use xlink:href="#DejaVuSans-75" x="473.271484"/>
      <use xlink:href="#DejaVuSans-78" x="536.650391"/>
     </g>
    </g>
   </g>
  </g>
 </g>
 <defs>
  <clipPath id="pf563c4cf82">
   <rect x="54.691875" y="24.14175" width="902.844" height="543.6"/>
  </clipPath>
 </defs>
</svg>
