<?xml version="1.0" encoding="utf-8" standalone="no"?>
<!DOCTYPE svg PUBLIC "-//W3C//DTD SVG 1.1//EN"
  "http://www.w3.org/Graphics/SVG/1.1/DTD/svg11.dtd">
<svg xmlns:xlink="http://www.w3.org/1999/xlink" width="974.2765pt" height="644.743878pt" viewBox="0 0 974.2765 644.743878" xmlns="http://www.w3.org/2000/svg" version="1.1">
 <metadata>
  <rdf:RDF xmlns:dc="http://purl.org/dc/elements/1.1/" xmlns:cc="http://creativecommons.org/ns#" xmlns:rdf="http://www.w3.org/1999/02/22-rdf-syntax-ns#">
   <cc:Work>
    <dc:type rdf:resource="http://purl.org/dc/dcmitype/StillImage"/>
    <dc:date>2026-07-09T14:18:19.108877</dc:date>
    <dc:format>image/svg+xml</dc:format>
    <dc:creator>
     <cc:Agent>
      <dc:title>Matplotlib v3.6.3, https://matplotlib.org/</dc:title>
     </cc:Agent>
    </dc:creator>
   </cc:Work>
  </rdf:RDF>
 </metadata>
 <defs>
  <style type="text/css">*{stroke-linejoin: round; stroke-linecap: butt}</style>
 </defs>
 <g id="figure_1">
  <g id="patch_1">
   <path d="M 0 644.743878 
L 974.2765 644.743878 
L 974.2765 0 
L 0 0 
z
" style="fill: #ffffff"/>
  </g>
  <g id="axes_1">
   <g id="patch_2">
    <path d="M 64.2325 578.54175 
L 967.0765 578.54175 
L 967.0765 24.14175 
L 64.2325 24.14175 
z
" style="fill: #e5e5e5"/>
   </g>
   <g id="matplotlib.axis_1">
    <g id="xtick_1">
     <g id="line2d_1">
      <path d="M 95.809802 578.54175 
L 95.809802 24.14175 
" clip-path="url(#p8e12232348)" style="fill: none; stroke: #ffffff; stroke-width: 0.8; stroke-linecap: square"/>
     </g>
     <g id="line2d_2">
      <defs>
       <path id="mdccebe8e30" d="M 0 0 
L 0 3.5 
" style="stroke: #555555; stroke-width: 0.8"/>
      </defs>
      <g>
       <use xlink:href="#mdccebe8e30" x="95.809802" y="578.54175" style="fill: #555555; stroke: #555555; stroke-width: 0.8"/>
      </g>
     </g>
     <g id="text_1">
      <!-- 2021-02 -->
      <g style="fill: #555555" transform="translate(82.98852 620.459567) rotate(-45) scale(0.1 -0.1)">
       <defs>
        <path id="DejaVuSans-32" d="M 1228 531 
L 3431 531 
L 3431 0 
L 469 0 
L 469 531 
Q 828 903 1448 1529 
Q 2069 2156 2228 2338 
Q 2531 2678 2651 2914 
Q 2772 3150 2772 3378 
Q 2772 3750 2511 3984 
Q 2250 4219 1831 4219 
Q 1534 4219 1204 4116 
Q 875 4013 500 3803 
L 500 4441 
Q 881 4594 1212 4672 
Q 1544 4750 1819 4750 
Q 2544 4750 2975 4387 
Q 3406 4025 3406 3419 
Q 3406 3131 3298 2873 
Q 3191 2616 2906 2266 
Q 2828 2175 2409 1742 
Q 1991 1309 1228 531 
z
" transform="scale(0.015625)"/>
        <path id="DejaVuSans-30" d="M 2034 4250 
Q 1547 4250 1301 3770 
Q 1056 3291 1056 2328 
Q 1056 1369 1301 889 
Q 1547 409 2034 409 
Q 2525 409 2770 889 
Q 3016 1369 3016 2328 
Q 3016 3291 2770 3770 
Q 2525 4250 2034 4250 
z
M 2034 4750 
Q 2819 4750 3233 4129 
Q 3647 3509 3647 2328 
Q 3647 1150 3233 529 
Q 2819 -91 2034 -91 
Q 1250 -91 836 529 
Q 422 1150 422 2328 
Q 422 3509 836 4129 
Q 1250 4750 2034 4750 
z
" transform="scale(0.015625)"/>
        <path id="DejaVuSans-31" d="M 794 531 
L 1825 531 
L 1825 4091 
L 703 3866 
L 703 4441 
L 1819 4666 
L 2450 4666 
L 2450 531 
L 3481 531 
L 3481 0 
L 794 0 
L 794 531 
z
" transform="scale(0.015625)"/>
        <path id="DejaVuSans-2d" d="M 313 2009 
L 1997 2009 
L 1997 1497 
L 313 1497 
L 313 2009 
z
" transform="scale(0.015625)"/>
       </defs>
       <use xlink:href="#DejaVuSans-32"/>
       <use xlink:href="#DejaVuSans-30" x="63.623047"/>
       <use xlink:href="#DejaVuSans-32" x="127.246094"/>
       <use xlink:href="#DejaVuSans-31" x="190.869141"/>
       <use xlink:href="#DejaVuSans-2d" x="254.492188"/>
       <use xlink:href="#DejaVuSans-30" x="290.576172"/>
       <use xlink:href="#DejaVuSans-32" x="354.199219"/>
      </g>
     </g>
    </g>
    <g id="xtick_2">
     <g id="line2d_3">
      <path d="M 135.392618 578.54175 
L 135.392618 24.14175 
" clip-path="url(#p8e12232348)" style="fill: none; stroke: #ffffff; stroke-width: 0.8; stroke-linecap: square"/>
     </g>
     <g id="line2d_4">
      <g>
       <use xlink:href="#mdccebe8e30" x="135.392618" y="578.54175" style="fill: #555555; stroke: #555555; stroke-width: 0.8"/>
      </g>
     </g>
     <g id="text_2">
      <!-- 2021-05 -->
      <g style="fill: #555555" transform="translate(122.571336 620.459567) rotate(-45) scale(0.1 -0.1)">
       <defs>
        <path id="DejaVuSans-35" d="M 691 4666 
L 3169 4666 
L 3169 4134 
L 1269 4134 
L 1269 2991 
Q 1406 3038 1543 3061 
Q 1681 3084 1819 3084 
Q 2600 3084 3056 2656 
Q 3513 2228 3513 1497 
Q 3513 744 3044 326 
Q 2575 -91 1722 -91 
Q 1428 -91 1123 -41 
Q 819 9 494 109 
L 494 744 
Q 775 591 1075 516 
Q 1375 441 1709 441 
Q 2250 441 2565 725 
Q 2881 1009 2881 1497 
Q 2881 1984 2565 2268 
Q 2250 2553 1709 2553 
Q 1456 2553 1204 2497 
Q 953 2441 691 2322 
L 691 4666 
z
" transform="scale(0.015625)"/>
       </defs>
       <use xlink:href="#DejaVuSans-32"/>
       <use xlink:href="#DejaVuSans-30" x="63.623047"/>
       <use xlink:href="#DejaVuSans-32" x="127.246094"/>
       <use xlink:href="#DejaVuSans-31" x="190.869141"/>
       <use xlink:href="#DejaVuSans-2d" x="254.492188"/>
       <use xlink:href="#DejaVuSans-30" x="290.576172"/>
       <use xlink:href="#DejaVuSans-35" x="354.199219"/>
      </g>
     </g>
    </g>
    <g id="xtick_3">
     <g id="line2d_5">
      <path d="M 176.309686 578.54175 
L 176.309686 24.14175 
" clip-path="url(#p8e12232348)" style="fill: none; stroke: #ffffff; stroke-width: 0.8; stroke-linecap: square"/>
     </g>
     <g id="line2d_6">
      <g>
       <use xlink:href="#mdccebe8e30" x="176.309686" y="578.54175" style="fill: #555555; stroke: #555555; stroke-width: 0.8"/>
      </g>
     </g>
     <g id="text_3">
      <!-- 2021-08 -->
      <g style="fill: #555555" transform="translate(163.488404 620.459567) rotate(-45) scale(0.1 -0.1)">
       <defs>
        <path id="DejaVuSans-38" d="M 2034 2216 
Q 1584 2216 1326 1975 
Q 1069 1734 1069 1313 
Q 1069 891 1326 650 
Q 1584 409 2034 409 
Q 2484 409 2743 651 
Q 3003 894 3003 1313 
Q 3003 1734 2745 1975 
Q 2488 2216 2034 2216 
z
M 1403 2484 
Q 997 2584 770 2862 
Q 544 3141 544 3541 
Q 544 4100 942 4425 
Q 1341 4750 2034 4750 
Q 2731 4750 3128 4425 
Q 3525 4100 3525 3541 
Q 3525 3141 3298 2862 
Q 3072 2584 2669 2484 
Q 3125 2378 3379 2068 
Q 3634 1759 3634 1313 
Q 3634 634 3220 271 
Q 2806 -91 2034 -91 
Q 1263 -91 848 271 
Q 434 634 434 1313 
Q 434 1759 690 2068 
Q 947 2378 1403 2484 
z
M 1172 3481 
Q 1172 3119 1398 2916 
Q 1625 2713 2034 2713 
Q 2441 2713 2670 2916 
Q 2900 3119 2900 3481 
Q 2900 3844 2670 4047 
Q 2441 4250 2034 4250 
Q 1625 4250 1398 4047 
Q 1172 3844 1172 3481 
z
" transform="scale(0.015625)"/>
       </defs>
       <use xlink:href="#DejaVuSans-32"/>
       <use xlink:href="#DejaVuSans-30" x="63.623047"/>
       <use xlink:href="#DejaVuSans-32" x="127.246094"/>
       <use xlink:href="#DejaVuSans-31" x="190.869141"/>
       <use xlink:href="#DejaVuSans-2d" x="254.492188"/>
       <use xlink:href="#DejaVuSans-30" x="290.576172"/>
       <use xlink:href="#DejaVuSans-38" x="354.199219"/>
      </g>
     </g>
    </g>
    <g id="xtick_4">
     <g id="line2d_7">
      <path d="M 217.226754 578.54175 
L 217.226754 24.14175 
" clip-path="url(#p8e12232348)" style="fill: none; stroke: #ffffff; stroke-width: 0.8; stroke-linecap: square"/>
     </g>
     <g id="line2d_8">
      <g>
       <use xlink:href="#mdccebe8e30" x="217.226754" y="578.54175" style="fill: #555555; stroke: #555555; stroke-width: 0.8"/>
      </g>
     </g>
     <g id="text_4">
      <!-- 2021-11 -->
      <g style="fill: #555555" transform="translate(204.405472 620.459567) rotate(-45) scale(0.1 -0.1)">
       <use xlink:href="#DejaVuSans-32"/>
       <use xlink:href="#DejaVuSans-30" x="63.623047"/>
       <use xlink:href="#DejaVuSans-32" x="127.246094"/>
       <use xlink:href="#DejaVuSans-31" x="190.869141"/>
       <use xlink:href="#DejaVuSans-2d" x="254.492188"/>
       <use xlink:href="#DejaVuSans-31" x="290.576172"/>
       <use xlink:href="#DejaVuSans-31" x="354.199219"/>
      </g>
     </g>
    </g>
    <g id="xtick_5">
     <g id="line2d_9">
      <path d="M 258.143822 578.54175 
L 258.143822 24.14175 
" clip-path="url(#p8e12232348)" style="fill: none; stroke: #ffffff; stroke-width: 0.8; stroke-linecap: square"/>
     </g>
     <g id="line2d_10">
      <g>
       <use xlink:href="#mdccebe8e30" x="258.143822" y="578.54175" style="fill: #555555; stroke: #555555; stroke-width: 0.8"/>
      </g>
     </g>
     <g id="text_5">
      <!-- 2022-02 -->
      <g style="fill: #555555" transform="translate(245.32254 620.459567) rotate(-45) scale(0.1 -0.1)">
       <use xlink:href="#DejaVuSans-32"/>
       <use xlink:href="#DejaVuSans-30" x="63.623047"/>
       <use xlink:href="#DejaVuSans-32" x="127.246094"/>
       <use xlink:href="#DejaVuSans-32" x="190.869141"/>
       <use xlink:href="#DejaVuSans-2d" x="254.492188"/>
       <use xlink:href="#DejaVuSans-30" x="290.576172"/>
       <use xlink:href="#DejaVuSans-32" x="354.199219"/>
      </g>
     </g>
    </g>
    <g id="xtick_6">
     <g id="line2d_11">
      <path d="M 297.726638 578.54175 
L 297.726638 24.14175 
" clip-path="url(#p8e12232348)" style="fill: none; stroke: #ffffff; stroke-width: 0.8; stroke-linecap: square"/>
     </g>
     <g id="line2d_12">
      <g>
       <use xlink:href="#mdccebe8e30" x="297.726638" y="578.54175" style="fill: #555555; stroke: #555555; stroke-width: 0.8"/>
      </g>
     </g>
     <g id="text_6">
      <!-- 2022-05 -->
      <g style="fill: #555555" transform="translate(284.905356 620.459567) rotate(-45) scale(0.1 -0.1)">
       <use xlink:href="#DejaVuSans-32"/>
       <use xlink:href="#DejaVuSans-30" x="63.623047"/>
       <use xlink:href="#DejaVuSans-32" x="127.246094"/>
       <use xlink:href="#DejaVuSans-32" x="190.869141"/>
       <use xlink:href="#DejaVuSans-2d" x="254.492188"/>
       <use xlink:href="#DejaVuSans-30" x="290.576172"/>
       <use xlink:href="#DejaVuSans-35" x="354.199219"/>
      </g>
     </g>
    </g>
    <g id="xtick_7">
     <g id="line2d_13">
      <path d="M 338.643706 578.54175 
L 338.643706 24.14175 
" clip-path="url(#p8e12232348)" style="fill: none; stroke: #ffffff; stroke-width: 0.8; stroke-linecap: square"/>
     </g>
     <g id="line2d_14">
      <g>
       <use xlink:href="#mdccebe8e30" x="338.643706" y="578.54175" style="fill: #555555; stroke: #555555; stroke-width: 0.8"/>
      </g>
     </g>
     <g id="text_7">
      <!-- 2022-08 -->
      <g style="fill: #555555" transform="translate(325.822424 620.459567) rotate(-45) scale(0.1 -0.1)">
       <use xlink:href="#DejaVuSans-32"/>
       <use xlink:href="#DejaVuSans-30" x="63.623047"/>
       <use xlink:href="#DejaVuSans-32" x="127.246094"/>
       <use xlink:href="#DejaVuSans-32" x="190.869141"/>
       <use xlink:href="#DejaVuSans-2d" x="254.492188"/>
       <use xlink:href="#DejaVuSans-30" x="290.576172"/>
       <use xlink:href="#DejaVuSans-38" x="354.199219"/>
      </g>
     </g>
    </g>
    <g id="xtick_8">
     <g id="line2d_15">
      <path d="M 379.560774 578.54175 
L 379.560774 24.14175 
" clip-path="url(#p8e12232348)" style="fill: none; stroke: #ffffff; stroke-width: 0.8; stroke-linecap: square"/>
     </g>
     <g id="line2d_16">
      <g>
       <use xlink:href="#mdccebe8e30" x="379.560774" y="578.54175" style="fill: #555555; stroke: #555555; stroke-width: 0.8"/>
      </g>
     </g>
     <g id="text_8">
      <!-- 2022-11 -->
      <g style="fill: #555555" transform="translate(366.739492 620.459567) rotate(-45) scale(0.1 -0.1)">
       <use xlink:href="#DejaVuSans-32"/>
       <use xlink:href="#DejaVuSans-30" x="63.623047"/>
       <use xlink:href="#DejaVuSans-32" x="127.246094"/>
       <use xlink:href="#DejaVuSans-32" x="190.869141"/>
       <use xlink:href="#DejaVuSans-2d" x="254.492188"/>
       <use xlink:href="#DejaVuSans-31" x="290.576172"/>
       <use xlink:href="#DejaVuSans-31" x="354.199219"/>
      </g>
     </g>
    </g>
    <g id="xtick_9">
     <g id="line2d_17">
      <path d="M 420.477842 578.54175 
L 420.477842 24.14175 
" clip-path="url(#p8e12232348)" style="fill: none; stroke: #ffffff; stroke-width: 0.8; stroke-linecap: square"/>
     </g>
     <g id="line2d_18">
      <g>
       <use xlink:href="#mdccebe8e30" x="420.477842" y="578.54175" style="fill: #555555; stroke: #555555; stroke-width: 0.8"/>
      </g>
     </g>
     <g id="text_9">
      <!-- 2023-02 -->
      <g style="fill: #555555" transform="translate(407.65656 620.459567) rotate(-45) scale(0.1 -0.1)">
       <defs>
        <path id="DejaVuSans-33" d="M 2597 2516 
Q 3050 2419 3304 2112 
Q 3559 1806 3559 1356 
Q 3559 666 3084 287 
Q 2609 -91 1734 -91 
Q 1441 -91 1130 -33 
Q 819 25 488 141 
L 488 750 
Q 750 597 1062 519 
Q 1375 441 1716 441 
Q 2309 441 2620 675 
Q 2931 909 2931 1356 
Q 2931 1769 2642 2001 
Q 2353 2234 1838 2234 
L 1294 2234 
L 1294 2753 
L 1863 2753 
Q 2328 2753 2575 2939 
Q 2822 3125 2822 3475 
Q 2822 3834 2567 4026 
Q 2313 4219 1838 4219 
Q 1578 4219 1281 4162 
Q 984 4106 628 3988 
L 628 4550 
Q 988 4650 1302 4700 
Q 1616 4750 1894 4750 
Q 2613 4750 3031 4423 
Q 3450 4097 3450 3541 
Q 3450 3153 3228 2886 
Q 3006 2619 2597 2516 
z
" transform="scale(0.015625)"/>
       </defs>
       <use xlink:href="#DejaVuSans-32"/>
       <use xlink:href="#DejaVuSans-30" x="63.623047"/>
       <use xlink:href="#DejaVuSans-32" x="127.246094"/>
       <use xlink:href="#DejaVuSans-33" x="190.869141"/>
       <use xlink:href="#DejaVuSans-2d" x="254.492188"/>
       <use xlink:href="#DejaVuSans-30" x="290.576172"/>
       <use xlink:href="#DejaVuSans-32" x="354.199219"/>
      </g>
     </g>
    </g>
    <g id="xtick_10">
     <g id="line2d_19">
      <path d="M 460.060658 578.54175 
L 460.060658 24.14175 
" clip-path="url(#p8e12232348)" style="fill: none; stroke: #ffffff; stroke-width: 0.8; stroke-linecap: square"/>
     </g>
     <g id="line2d_20">
      <g>
       <use xlink:href="#mdccebe8e30" x="460.060658" y="578.54175" style="fill: #555555; stroke: #555555; stroke-width: 0.8"/>
      </g>
     </g>
     <g id="text_10">
      <!-- 2023-05 -->
      <g style="fill: #555555" transform="translate(447.239375 620.459567) rotate(-45) scale(0.1 -0.1)">
       <use xlink:href="#DejaVuSans-32"/>
       <use xlink:href="#DejaVuSans-30" x="63.623047"/>
       <use xlink:href="#DejaVuSans-32" x="127.246094"/>
       <use xlink:href="#DejaVuSans-33" x="190.869141"/>
       <use xlink:href="#DejaVuSans-2d" x="254.492188"/>
       <use xlink:href="#DejaVuSans-30" x="290.576172"/>
       <use xlink:href="#DejaVuSans-35" x="354.199219"/>
      </g>
     </g>
    </g>
    <g id="xtick_11">
     <g id="line2d_21">
      <path d="M 500.977726 578.54175 
L 500.977726 24.14175 
" clip-path="url(#p8e12232348)" style="fill: none; stroke: #ffffff; stroke-width: 0.8; stroke-linecap: square"/>
     </g>
     <g id="line2d_22">
      <g>
       <use xlink:href="#mdccebe8e30" x="500.977726" y="578.54175" style="fill: #555555; stroke: #555555; stroke-width: 0.8"/>
      </g>
     </g>
     <g id="text_11">
      <!-- 2023-08 -->
      <g style="fill: #555555" transform="translate(488.156443 620.459567) rotate(-45) scale(0.1 -0.1)">
       <use xlink:href="#DejaVuSans-32"/>
       <use xlink:href="#DejaVuSans-30" x="63.623047"/>
       <use xlink:href="#DejaVuSans-32" x="127.246094"/>
       <use xlink:href="#DejaVuSans-33" x="190.869141"/>
       <use xlink:href="#DejaVuSans-2d" x="254.492188"/>
       <use xlink:href="#DejaVuSans-30" x="290.576172"/>
       <use xlink:href="#DejaVuSans-38" x="354.199219"/>
      </g>
     </g>
    </g>
    <g id="xtick_12">
     <g id="line2d_23">
      <path d="M 541.894794 578.54175 
L 541.894794 24.14175 
" clip-path="url(#p8e12232348)" style="fill: none; stroke: #ffffff; stroke-width: 0.8; stroke-linecap: square"/>
     </g>
     <g id="line2d_24">
      <g>
       <use xlink:href="#mdccebe8e30" x="541.894794" y="578.54175" style="fill: #555555; stroke: #555555; stroke-width: 0.8"/>
      </g>
     </g>
     <g id="text_12">
      <!-- 2023-11 -->
      <g style="fill: #555555" transform="translate(529.073511 620.459567) rotate(-45) scale(0.1 -0.1)">
       <use xlink:href="#DejaVuSans-32"/>
       <use xlink:href="#DejaVuSans-30" x="63.623047"/>
       <use xlink:href="#DejaVuSans-32" x="127.246094"/>
       <use xlink:href="#DejaVuSans-33" x="190.869141"/>
       <use xlink:href="#DejaVuSans-2d" x="254.492188"/>
       <use xlink:href="#DejaVuSans-31" x="290.576172"/>
       <use xlink:href="#DejaVuSans-31" x="354.199219"/>
      </g>
     </g>
    </g>
    <g id="xtick_13">
     <g id="line2d_25">
      <path d="M 582.811862 578.54175 
L 582.811862 24.14175 
" clip-path="url(#p8e12232348)" style="fill: none; stroke: #ffffff; stroke-width: 0.8; stroke-linecap: square"/>
     </g>
     <g id="line2d_26">
      <g>
       <use xlink:href="#mdccebe8e30" x="582.811862" y="578.54175" style="fill: #555555; stroke: #555555; stroke-width: 0.8"/>
      </g>
     </g>
     <g id="text_13">
      <!-- 2024-02 -->
      <g style="fill: #555555" transform="translate(569.990579 620.459567) rotate(-45) scale(0.1 -0.1)">
       <defs>
        <path id="DejaVuSans-34" d="M 2419 4116 
L 825 1625 
L 2419 1625 
L 2419 4116 
z
M 2253 4666 
L 3047 4666 
L 3047 1625 
L 3713 1625 
L 3713 1100 
L 3047 1100 
L 3047 0 
L 2419 0 
L 2419 1100 
L 313 1100 
L 313 1709 
L 2253 4666 
z
" transform="scale(0.015625)"/>
       </defs>
       <use xlink:href="#DejaVuSans-32"/>
       <use xlink:href="#DejaVuSans-30" x="63.623047"/>
       <use xlink:href="#DejaVuSans-32" x="127.246094"/>
       <use xlink:href="#DejaVuSans-34" x="190.869141"/>
       <use xlink:href="#DejaVuSans-2d" x="254.492188"/>
       <use xlink:href="#DejaVuSans-30" x="290.576172"/>
       <use xlink:href="#DejaVuSans-32" x="354.199219"/>
      </g>
     </g>
    </g>
    <g id="xtick_14">
     <g id="line2d_27">
      <path d="M 622.839428 578.54175 
L 622.839428 24.14175 
" clip-path="url(#p8e12232348)" style="fill: none; stroke: #ffffff; stroke-width: 0.8; stroke-linecap: square"/>
     </g>
     <g id="line2d_28">
      <g>
       <use xlink:href="#mdccebe8e30" x="622.839428" y="578.54175" style="fill: #555555; stroke: #555555; stroke-width: 0.8"/>
      </g>
     </g>
     <g id="text_14">
      <!-- 2024-05 -->
      <g style="fill: #555555" transform="translate(610.018146 620.459567) rotate(-45) scale(0.1 -0.1)">
       <use xlink:href="#DejaVuSans-32"/>
       <use xlink:href="#DejaVuSans-30" x="63.623047"/>
       <use xlink:href="#DejaVuSans-32" x="127.246094"/>
       <use xlink:href="#DejaVuSans-34" x="190.869141"/>
       <use xlink:href="#DejaVuSans-2d" x="254.492188"/>
       <use xlink:href="#DejaVuSans-30" x="290.576172"/>
       <use xlink:href="#DejaVuSans-35" x="354.199219"/>
      </g>
     </g>
    </g>
    <g id="xtick_15">
     <g id="line2d_29">
      <path d="M 663.756496 578.54175 
L 663.756496 24.14175 
" clip-path="url(#p8e12232348)" style="fill: none; stroke: #ffffff; stroke-width: 0.8; stroke-linecap: square"/>
     </g>
     <g id="line2d_30">
      <g>
       <use xlink:href="#mdccebe8e30" x="663.756496" y="578.54175" style="fill: #555555; stroke: #555555; stroke-width: 0.8"/>
      </g>
     </g>
     <g id="text_15">
      <!-- 2024-08 -->
      <g style="fill: #555555" transform="translate(650.935214 620.459567) rotate(-45) scale(0.1 -0.1)">
       <use xlink:href="#DejaVuSans-32"/>
       <use xlink:href="#DejaVuSans-30" x="63.623047"/>
       <use xlink:href="#DejaVuSans-32" x="127.246094"/>
       <use xlink:href="#DejaVuSans-34" x="190.869141"/>
       <use xlink:href="#DejaVuSans-2d" x="254.492188"/>
       <use xlink:href="#DejaVuSans-30" x="290.576172"/>
       <use xlink:href="#DejaVuSans-38" x="354.199219"/>
      </g>
     </g>
    </g>
    <g id="xtick_16">
     <g id="line2d_31">
      <path d="M 704.673564 578.54175 
L 704.673564 24.14175 
" clip-path="url(#p8e12232348)" style="fill: none; stroke: #ffffff; stroke-width: 0.8; stroke-linecap: square"/>
     </g>
     <g id="line2d_32">
      <g>
       <use xlink:href="#mdccebe8e30" x="704.673564" y="578.54175" style="fill: #555555; stroke: #555555; stroke-width: 0.8"/>
      </g>
     </g>
     <g id="text_16">
      <!-- 2024-11 -->
      <g style="fill: #555555" transform="translate(691.852282 620.459567) rotate(-45) scale(0.1 -0.1)">
       <use xlink:href="#DejaVuSans-32"/>
       <use xlink:href="#DejaVuSans-30" x="63.623047"/>
       <use xlink:href="#DejaVuSans-32" x="127.246094"/>
       <use xlink:href="#DejaVuSans-34" x="190.869141"/>
       <use xlink:href="#DejaVuSans-2d" x="254.492188"/>
       <use xlink:href="#DejaVuSans-31" x="290.576172"/>
       <use xlink:href="#DejaVuSans-31" x="354.199219"/>
      </g>
     </g>
    </g>
    <g id="xtick_17">
     <g id="line2d_33">
      <path d="M 745.590632 578.54175 
L 745.590632 24.14175 
" clip-path="url(#p8e12232348)" style="fill: none; stroke: #ffffff; stroke-width: 0.8; stroke-linecap: square"/>
     </g>
     <g id="line2d_34">
      <g>
       <use xlink:href="#mdccebe8e30" x="745.590632" y="578.54175" style="fill: #555555; stroke: #555555; stroke-width: 0.8"/>
      </g>
     </g>
     <g id="text_17">
      <!-- 2025-02 -->
      <g style="fill: #555555" transform="translate(732.76935 620.459567) rotate(-45) scale(0.1 -0.1)">
       <use xlink:href="#DejaVuSans-32"/>
       <use xlink:href="#DejaVuSans-30" x="63.623047"/>
       <use xlink:href="#DejaVuSans-32" x="127.246094"/>
       <use xlink:href="#DejaVuSans-35" x="190.869141"/>
       <use xlink:href="#DejaVuSans-2d" x="254.492188"/>
       <use xlink:href="#DejaVuSans-30" x="290.576172"/>
       <use xlink:href="#DejaVuSans-32" x="354.199219"/>
      </g>
     </g>
    </g>
    <g id="xtick_18">
     <g id="line2d_35">
      <path d="M 785.173448 578.54175 
L 785.173448 24.14175 
" clip-path="url(#p8e12232348)" style="fill: none; stroke: #ffffff; stroke-width: 0.8; stroke-linecap: square"/>
     </g>
     <g id="line2d_36">
      <g>
       <use xlink:href="#mdccebe8e30" x="785.173448" y="578.54175" style="fill: #555555; stroke: #555555; stroke-width: 0.8"/>
      </g>
     </g>
     <g id="text_18">
      <!-- 2025-05 -->
      <g style="fill: #555555" transform="translate(772.352166 620.459567) rotate(-45) scale(0.1 -0.1)">
       <use xlink:href="#DejaVuSans-32"/>
       <use xlink:href="#DejaVuSans-30" x="63.623047"/>
       <use xlink:href="#DejaVuSans-32" x="127.246094"/>
       <use xlink:href="#DejaVuSans-35" x="190.869141"/>
       <use xlink:href="#DejaVuSans-2d" x="254.492188"/>
       <use xlink:href="#DejaVuSans-30" x="290.576172"/>
       <use xlink:href="#DejaVuSans-35" x="354.199219"/>
      </g>
     </g>
    </g>
    <g id="xtick_19">
     <g id="line2d_37">
      <path d="M 826.090516 578.54175 
L 826.090516 24.14175 
" clip-path="url(#p8e12232348)" style="fill: none; stroke: #ffffff; stroke-width: 0.8; stroke-linecap: square"/>
     </g>
     <g id="line2d_38">
      <g>
       <use xlink:href="#mdccebe8e30" x="826.090516" y="578.54175" style="fill: #555555; stroke: #555555; stroke-width: 0.8"/>
      </g>
     </g>
     <g id="text_19">
      <!-- 2025-08 -->
      <g style="fill: #555555" transform="translate(813.269234 620.459567) rotate(-45) scale(0.1 -0.1)">
       <use xlink:href="#DejaVuSans-32"/>
       <use xlink:href="#DejaVuSans-30" x="63.623047"/>
       <use xlink:href="#DejaVuSans-32" x="127.246094"/>
       <use xlink:href="#DejaVuSans-35" x="190.869141"/>
       <use xlink:href="#DejaVuSans-2d" x="254.492188"/>
       <use xlink:href="#DejaVuSans-30" x="290.576172"/>
       <use xlink:href="#DejaVuSans-38" x="354.199219"/>
      </g>
     </g>
    </g>
    <g id="xtick_20">
     <g id="line2d_39">
      <path d="M 867.007584 578.54175 
L 867.007584 24.14175 
" clip-path="url(#p8e12232348)" style="fill: none; stroke: #ffffff; stroke-width: 0.8; stroke-linecap: square"/>
     </g>
     <g id="line2d_40">
      <g>
       <use xlink:href="#mdccebe8e30" x="867.007584" y="578.54175" style="fill: #555555; stroke: #555555; stroke-width: 0.8"/>
      </g>
     </g>
     <g id="text_20">
      <!-- 2025-11 -->
      <g style="fill: #555555" transform="translate(854.186301 620.459567) rotate(-45) scale(0.1 -0.1)">
       <use xlink:href="#DejaVuSans-32"/>
       <use xlink:href="#DejaVuSans-30" x="63.623047"/>
       <use xlink:href="#DejaVuSans-32" x="127.246094"/>
       <use xlink:href="#DejaVuSans-35" x="190.869141"/>
       <use xlink:href="#DejaVuSans-2d" x="254.492188"/>
       <use xlink:href="#DejaVuSans-31" x="290.576172"/>
       <use xlink:href="#DejaVuSans-31" x="354.199219"/>
      </g>
     </g>
    </g>
    <g id="xtick_21">
     <g id="line2d_41">
      <path d="M 907.924652 578.54175 
L 907.924652 24.14175 
" clip-path="url(#p8e12232348)" style="fill: none; stroke: #ffffff; stroke-width: 0.8; stroke-linecap: square"/>
     </g>
     <g id="line2d_42">
      <g>
       <use xlink:href="#mdccebe8e30" x="907.924652" y="578.54175" style="fill: #555555; stroke: #555555; stroke-width: 0.8"/>
      </g>
     </g>
     <g id="text_21">
      <!-- 2026-02 -->
      <g style="fill: #555555" transform="translate(895.103369 620.459567) rotate(-45) scale(0.1 -0.1)">
       <defs>
        <path id="DejaVuSans-36" d="M 2113 2584 
Q 1688 2584 1439 2293 
Q 1191 2003 1191 1497 
Q 1191 994 1439 701 
Q 1688 409 2113 409 
Q 2538 409 2786 701 
Q 3034 994 3034 1497 
Q 3034 2003 2786 2293 
Q 2538 2584 2113 2584 
z
M 3366 4563 
L 3366 3988 
Q 3128 4100 2886 4159 
Q 2644 4219 2406 4219 
Q 1781 4219 1451 3797 
Q 1122 3375 1075 2522 
Q 1259 2794 1537 2939 
Q 1816 3084 2150 3084 
Q 2853 3084 3261 2657 
Q 3669 2231 3669 1497 
Q 3669 778 3244 343 
Q 2819 -91 2113 -91 
Q 1303 -91 875 529 
Q 447 1150 447 2328 
Q 447 3434 972 4092 
Q 1497 4750 2381 4750 
Q 2619 4750 2861 4703 
Q 3103 4656 3366 4563 
z
" transform="scale(0.015625)"/>
       </defs>
       <use xlink:href="#DejaVuSans-32"/>
       <use xlink:href="#DejaVuSans-30" x="63.623047"/>
       <use xlink:href="#DejaVuSans-32" x="127.246094"/>
       <use xlink:href="#DejaVuSans-36" x="190.869141"/>
       <use xlink:href="#DejaVuSans-2d" x="254.492188"/>
       <use xlink:href="#DejaVuSans-30" x="290.576172"/>
       <use xlink:href="#DejaVuSans-32" x="354.199219"/>
      </g>
     </g>
    </g>
    <g id="xtick_22">
     <g id="line2d_43">
      <path d="M 947.507467 578.54175 
L 947.507467 24.14175 
" clip-path="url(#p8e12232348)" style="fill: none; stroke: #ffffff; stroke-width: 0.8; stroke-linecap: square"/>
     </g>
     <g id="line2d_44">
      <g>
       <use xlink:href="#mdccebe8e30" x="947.507467" y="578.54175" style="fill: #555555; stroke: #555555; stroke-width: 0.8"/>
      </g>
     </g>
     <g id="text_22">
      <!-- 2026-05 -->
      <g style="fill: #555555" transform="translate(934.686185 620.459567) rotate(-45) scale(0.1 -0.1)">
       <use xlink:href="#DejaVuSans-32"/>
       <use xlink:href="#DejaVuSans-30" x="63.623047"/>
       <use xlink:href="#DejaVuSans-32" x="127.246094"/>
       <use xlink:href="#DejaVuSans-36" x="190.869141"/>
       <use xlink:href="#DejaVuSans-2d" x="254.492188"/>
       <use xlink:href="#DejaVuSans-30" x="290.576172"/>
       <use xlink:href="#DejaVuSans-35" x="354.199219"/>
      </g>
     </g>
    </g>
    <g id="text_23">
     <!-- Date -->
     <g style="fill: #555555" transform="translate(501.313563 635.048253) scale(0.12 -0.12)">
      <defs>
       <path id="DejaVuSans-44" d="M 1259 4147 
L 1259 519 
L 2022 519 
Q 2988 519 3436 956 
Q 3884 1394 3884 2338 
Q 3884 3275 3436 3711 
Q 2988 4147 2022 4147 
L 1259 4147 
z
M 628 4666 
L 1925 4666 
Q 3281 4666 3915 4102 
Q 4550 3538 4550 2338 
Q 4550 1131 3912 565 
Q 3275 0 1925 0 
L 628 0 
L 628 4666 
z
" transform="scale(0.015625)"/>
       <path id="DejaVuSans-61" d="M 2194 1759 
Q 1497 1759 1228 1600 
Q 959 1441 959 1056 
Q 959 750 1161 570 
Q 1363 391 1709 391 
Q 2188 391 2477 730 
Q 2766 1069 2766 1631 
L 2766 1759 
L 2194 1759 
z
M 3341 1997 
L 3341 0 
L 2766 0 
L 2766 531 
Q 2569 213 2275 61 
Q 1981 -91 1556 -91 
Q 1019 -91 701 211 
Q 384 513 384 1019 
Q 384 1609 779 1909 
Q 1175 2209 1959 2209 
L 2766 2209 
L 2766 2266 
Q 2766 2663 2505 2880 
Q 2244 3097 1772 3097 
Q 1472 3097 1187 3025 
Q 903 2953 641 2809 
L 641 3341 
Q 956 3463 1253 3523 
Q 1550 3584 1831 3584 
Q 2591 3584 2966 3190 
Q 3341 2797 3341 1997 
z
" transform="scale(0.015625)"/>
       <path id="DejaVuSans-74" d="M 1172 4494 
L 1172 3500 
L 2356 3500 
L 2356 3053 
L 1172 3053 
L 1172 1153 
Q 1172 725 1289 603 
Q 1406 481 1766 481 
L 2356 481 
L 2356 0 
L 1766 0 
Q 1100 0 847 248 
Q 594 497 594 1153 
L 594 3053 
L 172 3053 
L 172 3500 
L 594 3500 
L 594 4494 
L 1172 4494 
z
" transform="scale(0.015625)"/>
       <path id="DejaVuSans-65" d="M 3597 1894 
L 3597 1613 
L 953 1613 
Q 991 1019 1311 708 
Q 1631 397 2203 397 
Q 2534 397 2845 478 
Q 3156 559 3463 722 
L 3463 178 
Q 3153 47 2828 -22 
Q 2503 -91 2169 -91 
Q 1331 -91 842 396 
Q 353 884 353 1716 
Q 353 2575 817 3079 
Q 1281 3584 2069 3584 
Q 2775 3584 3186 3129 
Q 3597 2675 3597 1894 
z
M 3022 2063 
Q 3016 2534 2758 2815 
Q 2500 3097 2075 3097 
Q 1594 3097 1305 2825 
Q 1016 2553 972 2059 
L 3022 2063 
z
" transform="scale(0.015625)"/>
      </defs>
      <use xlink:href="#DejaVuSans-44"/>
      <use xlink:href="#DejaVuSans-61" x="77.001953"/>
      <use xlink:href="#DejaVuSans-74" x="138.28125"/>
      <use xlink:href="#DejaVuSans-65" x="177.490234"/>
     </g>
    </g>
   </g>
   <g id="matplotlib.axis_2">
    <g id="ytick_1">
     <g id="line2d_45">
      <path d="M 64.2325 578.54175 
L 967.0765 578.54175 
" clip-path="url(#p8e12232348)" style="fill: none; stroke: #ffffff; stroke-width: 0.8; stroke-linecap: square"/>
     </g>
     <g id="line2d_46">
      <defs>
       <path id="me75d2286a6" d="M 0 0 
L -3.5 0 
" style="stroke: #555555; stroke-width: 0.8"/>
      </defs>
      <g>
       <use xlink:href="#me75d2286a6" x="64.2325" y="578.54175" style="fill: #555555; stroke: #555555; stroke-width: 0.8"/>
      </g>
     </g>
     <g id="text_24">
      <!-- 0k -->
      <g style="fill: #555555" transform="translate(45.079375 582.340969) scale(0.1 -0.1)">
       <defs>
        <path id="DejaVuSans-6b" d="M 581 4863 
L 1159 4863 
L 1159 1991 
L 2875 3500 
L 3609 3500 
L 1753 1863 
L 3688 0 
L 2938 0 
L 1159 1709 
L 1159 0 
L 581 0 
L 581 4863 
z
" transform="scale(0.015625)"/>
       </defs>
       <use xlink:href="#DejaVuSans-30"/>
       <use xlink:href="#DejaVuSans-6b" x="63.623047"/>
      </g>
     </g>
    </g>
    <g id="ytick_2">
     <g id="line2d_47">
      <path d="M 64.2325 467.524503 
L 967.0765 467.524503 
" clip-path="url(#p8e12232348)" style="fill: none; stroke: #ffffff; stroke-width: 0.8; stroke-linecap: square"/>
     </g>
     <g id="line2d_48">
      <g>
       <use xlink:href="#me75d2286a6" x="64.2325" y="467.524503" style="fill: #555555; stroke: #555555; stroke-width: 0.8"/>
      </g>
     </g>
     <g id="text_25">
      <!-- 500k -->
      <g style="fill: #555555" transform="translate(32.354375 471.323722) scale(0.1 -0.1)">
       <use xlink:href="#DejaVuSans-35"/>
       <use xlink:href="#DejaVuSans-30" x="63.623047"/>
       <use xlink:href="#DejaVuSans-30" x="127.246094"/>
       <use xlink:href="#DejaVuSans-6b" x="190.869141"/>
      </g>
     </g>
    </g>
    <g id="ytick_3">
     <g id="line2d_49">
      <path d="M 64.2325 356.507256 
L 967.0765 356.507256 
" clip-path="url(#p8e12232348)" style="fill: none; stroke: #ffffff; stroke-width: 0.8; stroke-linecap: square"/>
     </g>
     <g id="line2d_50">
      <g>
       <use xlink:href="#me75d2286a6" x="64.2325" y="356.507256" style="fill: #555555; stroke: #555555; stroke-width: 0.8"/>
      </g>
     </g>
     <g id="text_26">
      <!-- 1,000k -->
      <g style="fill: #555555" transform="translate(22.81375 360.306475) scale(0.1 -0.1)">
       <defs>
        <path id="DejaVuSans-2c" d="M 750 794 
L 1409 794 
L 1409 256 
L 897 -744 
L 494 -744 
L 750 256 
L 750 794 
z
" transform="scale(0.015625)"/>
       </defs>
       <use xlink:href="#DejaVuSans-31"/>
       <use xlink:href="#DejaVuSans-2c" x="63.623047"/>
       <use xlink:href="#DejaVuSans-30" x="95.410156"/>
       <use xlink:href="#DejaVuSans-30" x="159.033203"/>
       <use xlink:href="#DejaVuSans-30" x="222.65625"/>
       <use xlink:href="#DejaVuSans-6b" x="286.279297"/>
      </g>
     </g>
    </g>
    <g id="ytick_4">
     <g id="line2d_51">
      <path d="M 64.2325 245.490009 
L 967.0765 245.490009 
" clip-path="url(#p8e12232348)" style="fill: none; stroke: #ffffff; stroke-width: 0.8; stroke-linecap: square"/>
     </g>
     <g id="line2d_52">
      <g>
       <use xlink:href="#me75d2286a6" x="64.2325" y="245.490009" style="fill: #555555; stroke: #555555; stroke-width: 0.8"/>
      </g>
     </g>
     <g id="text_27">
      <!-- 1,500k -->
      <g style="fill: #555555" transform="translate(22.81375 249.289228) scale(0.1 -0.1)">
       <use xlink:href="#DejaVuSans-31"/>
       <use xlink:href="#DejaVuSans-2c" x="63.623047"/>
       <use xlink:href="#DejaVuSans-35" x="95.410156"/>
       <use xlink:href="#DejaVuSans-30" x="159.033203"/>
       <use xlink:href="#DejaVuSans-30" x="222.65625"/>
       <use xlink:href="#DejaVuSans-6b" x="286.279297"/>
      </g>
     </g>
    </g>
    <g id="ytick_5">
     <g id="line2d_53">
      <path d="M 64.2325 134.472762 
L 967.0765 134.472762 
" clip-path="url(#p8e12232348)" style="fill: none; stroke: #ffffff; stroke-width: 0.8; stroke-linecap: square"/>
     </g>
     <g id="line2d_54">
      <g>
       <use xlink:href="#me75d2286a6" x="64.2325" y="134.472762" style="fill: #555555; stroke: #555555; stroke-width: 0.8"/>
      </g>
     </g>
     <g id="text_28">
      <!-- 2,000k -->
      <g style="fill: #555555" transform="translate(22.81375 138.271981) scale(0.1 -0.1)">
       <use xlink:href="#DejaVuSans-32"/>
       <use xlink:href="#DejaVuSans-2c" x="63.623047"/>
       <use xlink:href="#DejaVuSans-30" x="95.410156"/>
       <use xlink:href="#DejaVuSans-30" x="159.033203"/>
       <use xlink:href="#DejaVuSans-30" x="222.65625"/>
       <use xlink:href="#DejaVuSans-6b" x="286.279297"/>
      </g>
     </g>
    </g>
    <g id="text_29">
     <!-- Instances -->
     <g style="fill: #555555" transform="translate(16.318125 329.988) rotate(-90) scale(0.12 -0.12)">
      <defs>
       <path id="DejaVuSans-49" d="M 628 4666 
L 1259 4666 
L 1259 0 
L 628 0 
L 628 4666 
z
" transform="scale(0.015625)"/>
       <path id="DejaVuSans-6e" d="M 3513 2113 
L 3513 0 
L 2938 0 
L 2938 2094 
Q 2938 2591 2744 2837 
Q 2550 3084 2163 3084 
Q 1697 3084 1428 2787 
Q 1159 2491 1159 1978 
L 1159 0 
L 581 0 
L 581 3500 
L 1159 3500 
L 1159 2956 
Q 1366 3272 1645 3428 
Q 1925 3584 2291 3584 
Q 2894 3584 3203 3211 
Q 3513 2838 3513 2113 
z
" transform="scale(0.015625)"/>
       <path id="DejaVuSans-73" d="M 2834 3397 
L 2834 2853 
Q 2591 2978 2328 3040 
Q 2066 3103 1784 3103 
Q 1356 3103 1142 2972 
Q 928 2841 928 2578 
Q 928 2378 1081 2264 
Q 1234 2150 1697 2047 
L 1894 2003 
Q 2506 1872 2764 1633 
Q 3022 1394 3022 966 
Q 3022 478 2636 193 
Q 2250 -91 1575 -91 
Q 1294 -91 989 -36 
Q 684 19 347 128 
L 347 722 
Q 666 556 975 473 
Q 1284 391 1588 391 
Q 1994 391 2212 530 
Q 2431 669 2431 922 
Q 2431 1156 2273 1281 
Q 2116 1406 1581 1522 
L 1381 1569 
Q 847 1681 609 1914 
Q 372 2147 372 2553 
Q 372 3047 722 3315 
Q 1072 3584 1716 3584 
Q 2034 3584 2315 3537 
Q 2597 3491 2834 3397 
z
" transform="scale(0.015625)"/>
       <path id="DejaVuSans-63" d="M 3122 3366 
L 3122 2828 
Q 2878 2963 2633 3030 
Q 2388 3097 2138 3097 
Q 1578 3097 1268 2742 
Q 959 2388 959 1747 
Q 959 1106 1268 751 
Q 1578 397 2138 397 
Q 2388 397 2633 464 
Q 2878 531 3122 666 
L 3122 134 
Q 2881 22 2623 -34 
Q 2366 -91 2075 -91 
Q 1284 -91 818 406 
Q 353 903 353 1747 
Q 353 2603 823 3093 
Q 1294 3584 2113 3584 
Q 2378 3584 2631 3529 
Q 2884 3475 3122 3366 
z
" transform="scale(0.015625)"/>
      </defs>
      <use xlink:href="#DejaVuSans-49"/>
      <use xlink:href="#DejaVuSans-6e" x="29.492188"/>
      <use xlink:href="#DejaVuSans-73" x="92.871094"/>
      <use xlink:href="#DejaVuSans-74" x="144.970703"/>
      <use xlink:href="#DejaVuSans-61" x="184.179688"/>
      <use xlink:href="#DejaVuSans-6e" x="245.458984"/>
      <use xlink:href="#DejaVuSans-63" x="308.837891"/>
      <use xlink:href="#DejaVuSans-65" x="363.818359"/>
      <use xlink:href="#DejaVuSans-73" x="425.341797"/>
     </g>
    </g>
   </g>
   <g id="line2d_55">
    <path d="M 64.2325 580.88115 
L 73.352136 580.026221 
L 82.471773 579.126965 
L 91.591409 578.18338 
L 100.711045 577.195468 
L 109.830682 576.163227 
L 118.950318 575.086658 
L 128.069955 573.965762 
L 137.189591 572.800537 
L 146.309227 571.590984 
L 155.428864 570.337103 
L 164.5485 569.038895 
L 173.668136 567.696358 
L 182.787773 566.309493 
L 191.907409 564.8783 
L 201.027045 563.402779 
L 210.146682 561.88293 
L 219.266318 560.318753 
L 228.385955 558.710248 
L 237.505591 557.057415 
L 246.625227 555.360254 
L 255.744864 553.618765 
L 264.8645 551.832948 
L 273.984136 550.002803 
L 283.103773 548.12833 
L 292.223409 546.209529 
L 301.343045 544.246399 
L 310.462682 542.238942 
L 319.582318 540.187157 
L 328.701955 538.091044 
L 337.821591 535.950602 
L 346.941227 533.765833 
L 356.060864 531.536735 
L 365.1805 529.26331 
L 374.300136 526.945557 
L 383.419773 524.583475 
L 392.539409 522.177066 
L 401.659045 519.726328 
L 410.778682 517.231263 
L 419.898318 514.691869 
L 429.017955 512.108147 
L 438.137591 509.480098 
L 447.257227 506.80772 
L 456.376864 504.091014 
L 465.4965 501.329981 
L 474.616136 498.524619 
L 483.735773 495.674929 
L 492.855409 492.780911 
L 501.975045 489.842566 
L 511.094682 486.859892 
L 520.214318 483.83289 
L 529.333955 480.76156 
L 538.453591 477.645902 
L 547.573227 474.485916 
L 556.692864 471.281602 
L 565.8125 468.03296 
L 574.932136 464.73999 
L 584.051773 461.402692 
L 593.171409 458.021066 
L 602.291045 454.595112 
L 611.410682 451.12483 
L 620.530318 447.610219 
L 629.649955 444.051281 
L 638.769591 440.448015 
L 647.889227 436.800421 
L 657.008864 433.108498 
L 666.1285 429.372248 
L 675.248136 425.59167 
L 684.367773 421.766763 
L 693.487409 417.897529 
L 702.607045 413.983967 
L 711.726682 410.026076 
L 720.846318 406.023858 
L 729.965955 401.977311 
L 739.085591 397.886437 
L 748.205227 393.751234 
L 757.324864 389.571703 
L 766.4445 385.347845 
L 775.564136 381.079658 
L 784.683773 376.767143 
L 793.803409 372.410301 
L 802.923045 368.00913 
L 812.042682 363.563631 
L 821.162318 359.073805 
L 830.281955 354.53965 
L 839.401591 349.961167 
L 848.521227 345.338356 
L 857.640864 340.671217 
L 866.7605 335.95975 
L 875.880136 331.203955 
L 884.999773 326.403832 
L 894.119409 321.559381 
L 903.239045 316.670602 
L 912.358682 311.737495 
L 921.478318 306.76006 
L 930.597955 301.738297 
L 939.717591 296.672206 
L 948.837227 291.561787 
L 957.956864 286.407039 
L 967.0765 281.207964 
" clip-path="url(#p8e12232348)" style="fill: none; stroke-dasharray: 3,4.95; stroke-dashoffset: 0; stroke: #4ac1fa; stroke-opacity: 0.9; stroke-width: 3"/>
   </g>
   <g id="line2d_56">
    <path d="M 64.2325 580.665759 
L 73.352136 576.602494 
L 82.471773 572.595623 
L 91.591409 568.645147 
L 100.711045 564.751065 
L 109.830682 560.913378 
L 118.950318 557.132085 
L 128.069955 553.407187 
L 137.189591 549.738683 
L 146.309227 546.126573 
L 155.428864 542.570858 
L 164.5485 539.071538 
L 173.668136 535.628611 
L 182.787773 532.24208 
L 191.907409 528.911942 
L 201.027045 525.6382 
L 210.146682 522.420851 
L 219.266318 519.259897 
L 228.385955 516.155338 
L 237.505591 513.107173 
L 246.625227 510.115402 
L 255.744864 507.180026 
L 264.8645 504.301044 
L 273.984136 501.478457 
L 283.103773 498.712264 
L 292.223409 496.002466 
L 301.343045 493.349062 
L 310.462682 490.752052 
L 319.582318 488.211437 
L 328.701955 485.727217 
L 337.821591 483.299391 
L 346.941227 480.927959 
L 356.060864 478.612922 
L 365.1805 476.354279 
L 374.300136 474.152031 
L 383.419773 472.006177 
L 392.539409 469.916717 
L 401.659045 467.883652 
L 410.778682 465.906982 
L 419.898318 463.986706 
L 429.017955 462.122824 
L 438.137591 460.315337 
L 447.257227 458.564244 
L 456.376864 456.869546 
L 465.4965 455.231242 
L 474.616136 453.649332 
L 483.735773 452.123817 
L 492.855409 450.654697 
L 501.975045 449.241971 
L 511.094682 447.885639 
L 520.214318 446.585702 
L 529.333955 445.342159 
L 538.453591 444.155011 
L 547.573227 443.024257 
L 556.692864 441.949898 
L 565.8125 440.931933 
L 574.932136 439.970362 
L 584.051773 439.065186 
L 593.171409 438.216405 
L 602.291045 437.424017 
L 611.410682 436.688025 
L 620.530318 436.008426 
L 629.649955 435.385223 
L 638.769591 434.818413 
L 647.889227 434.307998 
L 657.008864 433.853978 
L 666.1285 433.456352 
L 675.248136 433.11512 
L 684.367773 432.830283 
L 693.487409 432.60184 
L 702.607045 432.429792 
L 711.726682 432.314138 
L 720.846318 432.254879 
L 729.965955 432.252014 
L 739.085591 432.305544 
L 748.205227 432.415468 
L 757.324864 432.581786 
L 766.4445 432.804499 
L 775.564136 433.083606 
L 784.683773 433.419108 
L 793.803409 433.811004 
L 802.923045 434.259295 
L 812.042682 434.76398 
L 821.162318 435.32506 
L 830.281955 435.942534 
L 839.401591 436.616402 
L 848.521227 437.346665 
L 857.640864 438.133322 
L 866.7605 438.976374 
L 875.880136 439.87582 
L 884.999773 440.831661 
L 894.119409 441.843896 
L 903.239045 442.912526 
L 912.358682 444.03755 
L 921.478318 445.218968 
L 930.597955 446.456781 
L 939.717591 447.750989 
L 948.837227 449.10159 
L 957.956864 450.508587 
L 967.0765 451.971977 
" clip-path="url(#p8e12232348)" style="fill: none; stroke-dasharray: 3,4.95; stroke-dashoffset: 0; stroke: #9a5689; stroke-opacity: 0.9; stroke-width: 3"/>
   </g>
   <g id="line2d_57">
    <path d="M 64.2325 576.09345 
L 73.352136 575.553042 
L 82.471773 575.016419 
L 91.591409 574.483581 
L 100.711045 573.954528 
L 109.830682 573.429261 
L 118.950318 572.907779 
L 128.069955 572.390082 
L 137.189591 571.876171 
L 146.309227 571.366044 
L 155.428864 570.859703 
L 164.5485 570.357148 
L 173.668136 569.858377 
L 182.787773 569.363392 
L 191.907409 568.872192 
L 201.027045 568.384777 
L 210.146682 567.901147 
L 219.266318 567.421303 
L 228.385955 566.945244 
L 237.505591 566.47297 
L 246.625227 566.004482 
L 255.744864 565.539778 
L 264.8645 565.07886 
L 273.984136 564.621728 
L 283.103773 564.16838 
L 292.223409 563.718818 
L 301.343045 563.273041 
L 310.462682 562.831049 
L 319.582318 562.392842 
L 328.701955 561.958421 
L 337.821591 561.527785 
L 346.941227 561.100934 
L 356.060864 560.677869 
L 365.1805 560.258588 
L 374.300136 559.843093 
L 383.419773 559.431383 
L 392.539409 559.023459 
L 401.659045 558.61932 
L 410.778682 558.218965 
L 419.898318 557.822397 
L 429.017955 557.429613 
L 438.137591 557.040615 
L 447.257227 556.655402 
L 456.376864 556.273974 
L 465.4965 555.896331 
L 474.616136 555.522474 
L 483.735773 555.152402 
L 492.855409 554.786115 
L 501.975045 554.423614 
L 511.094682 554.064897 
L 520.214318 553.709966 
L 529.333955 553.35882 
L 538.453591 553.01146 
L 547.573227 552.667885 
L 556.692864 552.328095 
L 565.8125 551.99209 
L 574.932136 551.65987 
L 584.051773 551.331436 
L 593.171409 551.006787 
L 602.291045 550.685923 
L 611.410682 550.368844 
L 620.530318 550.055551 
L 629.649955 549.746043 
L 638.769591 549.44032 
L 647.889227 549.138383 
L 657.008864 548.84023 
L 666.1285 548.545863 
L 675.248136 548.255281 
L 684.367773 547.968485 
L 693.487409 547.685474 
L 702.607045 547.406247 
L 711.726682 547.130807 
L 720.846318 546.859151 
L 729.965955 546.591281 
L 739.085591 546.327196 
L 748.205227 546.066896 
L 757.324864 545.810381 
L 766.4445 545.557652 
L 775.564136 545.308708 
L 784.683773 545.063549 
L 793.803409 544.822176 
L 802.923045 544.584587 
L 812.042682 544.350784 
L 821.162318 544.120766 
L 830.281955 543.894534 
L 839.401591 543.672086 
L 848.521227 543.453424 
L 857.640864 543.238548 
L 866.7605 543.027456 
L 875.880136 542.82015 
L 884.999773 542.616629 
L 894.119409 542.416893 
L 903.239045 542.220942 
L 912.358682 542.028777 
L 921.478318 541.840397 
L 930.597955 541.655802 
L 939.717591 541.474992 
L 948.837227 541.297968 
L 957.956864 541.124729 
L 967.0765 540.955275 
" clip-path="url(#p8e12232348)" style="fill: none; stroke-dasharray: 3,4.95; stroke-dashoffset: 0; stroke: #be503b; stroke-opacity: 0.9; stroke-width: 3"/>
   </g>
   <g id="line2d_58">
    <path d="M 64.2325 564.567833 
L 73.352136 562.246869 
L 82.471773 559.930564 
L 91.591409 557.618917 
L 100.711045 555.31193 
L 109.830682 553.009602 
L 118.950318 550.711933 
L 128.069955 548.418922 
L 137.189591 546.130571 
L 146.309227 543.846879 
L 155.428864 541.567845 
L 164.5485 539.293471 
L 173.668136 537.023756 
L 182.787773 534.758699 
L 191.907409 532.498302 
L 201.027045 530.242563 
L 210.146682 527.991483 
L 219.266318 525.745063 
L 228.385955 523.503301 
L 237.505591 521.266199 
L 246.625227 519.033755 
L 255.744864 516.80597 
L 264.8645 514.582844 
L 273.984136 512.364378 
L 283.103773 510.15057 
L 292.223409 507.941421 
L 301.343045 505.736931 
L 310.462682 503.5371 
L 319.582318 501.341928 
L 328.701955 499.151415 
L 337.821591 496.965561 
L 346.941227 494.784366 
L 356.060864 492.60783 
L 365.1805 490.435953 
L 374.300136 488.268735 
L 383.419773 486.106176 
L 392.539409 483.948275 
L 401.659045 481.795034 
L 410.778682 479.646452 
L 419.898318 477.502529 
L 429.017955 475.363264 
L 438.137591 473.228659 
L 447.257227 471.098713 
L 456.376864 468.973425 
L 465.4965 466.852797 
L 474.616136 464.736827 
L 483.735773 462.625517 
L 492.855409 460.518865 
L 501.975045 458.416873 
L 511.094682 456.319539 
L 520.214318 454.226864 
L 529.333955 452.138849 
L 538.453591 450.055492 
L 547.573227 447.976794 
L 556.692864 445.902755 
L 565.8125 443.833376 
L 574.932136 441.768655 
L 584.051773 439.708593 
L 593.171409 437.65319 
L 602.291045 435.602446 
L 611.410682 433.556361 
L 620.530318 431.514935 
L 629.649955 429.478168 
L 638.769591 427.44606 
L 647.889227 425.418611 
L 657.008864 423.395821 
L 666.1285 421.37769 
L 675.248136 419.364217 
L 684.367773 417.355404 
L 693.487409 415.35125 
L 702.607045 413.351755 
L 711.726682 411.356918 
L 720.846318 409.366741 
L 729.965955 407.381223 
L 739.085591 405.400363 
L 748.205227 403.424163 
L 757.324864 401.452621 
L 766.4445 399.485739 
L 775.564136 397.523515 
L 784.683773 395.565951 
L 793.803409 393.613045 
L 802.923045 391.664798 
L 812.042682 389.721211 
L 821.162318 387.782282 
L 830.281955 385.848012 
L 839.401591 383.918402 
L 848.521227 381.99345 
L 857.640864 380.073157 
L 866.7605 378.157523 
L 875.880136 376.246548 
L 884.999773 374.340232 
L 894.119409 372.438575 
L 903.239045 370.541577 
L 912.358682 368.649238 
L 921.478318 366.761558 
L 930.597955 364.878537 
L 939.717591 363.000175 
L 948.837227 361.126472 
L 957.956864 359.257428 
L 967.0765 357.393043 
" clip-path="url(#p8e12232348)" style="fill: none; stroke-dasharray: 3,4.95; stroke-dashoffset: 0; stroke: #e2321d; stroke-opacity: 0.9; stroke-width: 3"/>
   </g>
   <g id="line2d_59">
    <path d="M 64.2325 598.341735 
L 73.352136 596.102271 
L 82.471773 593.795779 
L 91.591409 591.422259 
L 100.711045 588.981713 
L 109.830682 586.474138 
L 118.950318 583.899537 
L 128.069955 581.257907 
L 137.189591 578.549251 
L 146.309227 575.773567 
L 155.428864 572.930855 
L 164.5485 570.021116 
L 173.668136 567.04435 
L 182.787773 564.000556 
L 191.907409 560.889735 
L 201.027045 557.711886 
L 210.146682 554.46701 
L 219.266318 551.155106 
L 228.385955 547.776175 
L 237.505591 544.330216 
L 246.625227 540.81723 
L 255.744864 537.237217 
L 264.8645 533.590176 
L 273.984136 529.876108 
L 283.103773 526.095012 
L 292.223409 522.246889 
L 301.343045 518.331738 
L 310.462682 514.34956 
L 319.582318 510.300354 
L 328.701955 506.184121 
L 337.821591 502.000861 
L 346.941227 497.750573 
L 356.060864 493.433257 
L 365.1805 489.048915 
L 374.300136 484.597544 
L 383.419773 480.079147 
L 392.539409 475.493722 
L 401.659045 470.841269 
L 410.778682 466.121789 
L 419.898318 461.335282 
L 429.017955 456.481747 
L 438.137591 451.561184 
L 447.257227 446.573594 
L 456.376864 441.518977 
L 465.4965 436.397332 
L 474.616136 431.20866 
L 483.735773 425.952961 
L 492.855409 420.630234 
L 501.975045 415.240479 
L 511.094682 409.783697 
L 520.214318 404.259888 
L 529.333955 398.669051 
L 538.453591 393.011187 
L 547.573227 387.286295 
L 556.692864 381.494376 
L 565.8125 375.635429 
L 574.932136 369.709455 
L 584.051773 363.716454 
L 593.171409 357.656425 
L 602.291045 351.529368 
L 611.410682 345.335285 
L 620.530318 339.074173 
L 629.649955 332.746034 
L 638.769591 326.350868 
L 647.889227 319.888675 
L 657.008864 313.359454 
L 666.1285 306.763205 
L 675.248136 300.099929 
L 684.367773 293.369626 
L 693.487409 286.572295 
L 702.607045 279.707937 
L 711.726682 272.776551 
L 720.846318 265.778138 
L 729.965955 258.712697 
L 739.085591 251.580229 
L 748.205227 244.380733 
L 757.324864 237.11421 
L 766.4445 229.78066 
L 775.564136 222.380082 
L 784.683773 214.912477 
L 793.803409 207.377844 
L 802.923045 199.776184 
L 812.042682 192.107496 
L 821.162318 184.371781 
L 830.281955 176.569038 
L 839.401591 168.699268 
L 848.521227 160.762471 
L 857.640864 152.758646 
L 866.7605 144.687794 
L 875.880136 136.549914 
L 884.999773 128.345007 
L 894.119409 120.073072 
L 903.239045 111.73411 
L 912.358682 103.32812 
L 921.478318 94.855103 
L 930.597955 86.315059 
L 939.717591 77.707987 
L 948.837227 69.033887 
L 957.956864 60.292761 
L 967.0765 51.484606 
" clip-path="url(#p8e12232348)" style="fill: none; stroke-dasharray: 3,4.95; stroke-dashoffset: 0; stroke: #48b585; stroke-opacity: 0.9; stroke-width: 3"/>
   </g>
   <g id="line2d_60">
    <path d="M 64.2325 578.54175 
L 95.365052 578.511109 
L 107.818072 578.239228 
L 114.044583 578.036622 
L 120.271093 577.951915 
L 126.497603 577.201661 
L 132.724114 576.785124 
L 138.950624 576.609717 
L 145.177134 575.466572 
L 151.403645 574.613294 
L 157.630155 574.337527 
L 163.856666 573.756574 
L 170.083176 572.942706 
L 176.309686 572.427919 
L 182.536197 570.934737 
L 188.762707 570.113987 
L 194.989217 569.547688 
L 201.215728 567.459675 
L 207.442238 565.698054 
L 213.668748 565.892445 
L 219.895259 565.87113 
L 226.121769 563.817422 
L 232.348279 562.621433 
L 244.8013 557.937171 
L 251.02781 555.74014 
L 257.254321 553.100816 
L 263.480831 549.731997 
L 269.707341 548.573199 
L 275.933852 546.750851 
L 282.160362 542.14086 
L 288.386872 540.711513 
L 294.613383 539.701922 
L 300.839893 538.135025 
L 307.066403 534.78952 
L 313.292914 533.818896 
L 319.519424 527.426745 
L 325.745934 527.857714 
L 331.972445 526.138723 
L 338.198955 521.462343 
L 350.651976 518.019033 
L 356.878486 515.639489 
L 363.104997 515.905375 
L 369.331507 512.65146 
L 375.558017 512.22915 
L 381.784528 517.482042 
L 388.011038 515.74662 
L 394.237548 516.553161 
L 400.464059 517.796776 
L 406.690569 517.392451 
L 412.917079 513.59011 
L 419.14359 512.940438 
L 425.3701 513.119064 
L 431.59661 511.506206 
L 437.823121 511.099216 
L 444.049631 510.306664 
L 450.276141 508.459226 
M 462.729162 510.091513 
L 468.955672 507.055857 
L 475.182183 503.746877 
L 481.408693 501.727363 
L 487.635203 500.959012 
L 493.861714 499.924442 
L 500.088224 499.865048 
L 506.314734 499.592168 
L 512.541245 497.964988 
L 518.767755 493.457466 
L 531.220776 491.033737 
L 537.447286 487.262925 
L 543.673797 484.709529 
L 549.900307 484.174093 
L 556.126817 482.192324 
L 562.353328 481.797213 
L 568.579838 480.32457 
L 574.806348 477.384056 
L 581.032859 471.006004 
L 587.259369 468.929093 
L 593.485879 462.130175 
L 599.71239 460.603466 
L 605.9389 459.627069 
L 612.16541 461.309202 
L 618.391921 460.067697 
L 624.618431 456.654804 
L 630.844941 454.607424 
L 637.071452 445.701288 
L 643.297962 446.807241 
L 649.524472 440.412204 
L 655.750983 435.197169 
L 661.977493 431.328329 
L 668.204003 424.957826 
L 674.430514 421.852119 
L 680.657024 417.192503 
L 686.883534 420.387801 
L 693.110045 413.005931 
L 699.336555 412.811762 
L 705.563066 410.034555 
L 711.789576 406.865678 
L 718.016086 403.297029 
L 724.242597 408.723996 
L 730.469107 399.923437 
L 736.695617 394.739264 
L 742.922128 390.268822 
L 749.148638 389.912679 
L 755.375148 386.966059 
L 761.601659 375.984344 
L 767.828169 374.755383 
L 774.054679 372.595209 
L 780.28119 379.68688 
L 786.5077 369.832101 
L 792.73421 364.615845 
L 798.960721 369.867071 
L 805.187231 379.393683 
L 811.413741 373.685288 
L 817.640252 349.753744 
L 823.866762 358.329826 
L 830.093272 352.66506 
L 836.319783 343.573303 
L 842.546293 336.761284 
L 848.772803 334.459897 
L 854.999314 339.510293 
L 861.225824 323.720421 
L 867.452334 345.285966 
L 873.678845 321.510179 
L 879.905355 327.472249 
L 886.131866 327.17439 
L 892.358376 322.878689 
L 898.584886 321.677815 
L 904.811397 317.086697 
L 911.037907 317.686856 
L 917.264417 311.855564 
L 923.490928 313.656153 
L 929.717438 309.429726 
L 935.943948 302.887924 
L 942.170459 302.599057 
L 948.396969 298.197334 
L 954.623479 285.385722 
L 960.84999 295.795032 
L 967.0765 285.974557 
L 967.0765 285.974557 
" clip-path="url(#p8e12232348)" style="fill: none; stroke: #4ac1fa; stroke-width: 1.5; stroke-linecap: square"/>
   </g>
   <g id="line2d_61">
    <path d="M 64.2325 577.755748 
L 70.45901 576.748488 
L 76.685521 575.528187 
L 82.912031 574.887173 
L 89.138541 573.798538 
L 95.365052 572.851117 
L 101.591562 571.630704 
L 107.818072 570.814284 
L 114.044583 570.195695 
L 120.271093 570.181263 
L 126.497603 568.543093 
L 132.724114 567.653289 
L 138.950624 569.163235 
L 145.177134 565.96616 
L 151.403645 565.134974 
L 157.630155 563.538324 
L 163.856666 560.609023 
L 176.309686 555.548635 
L 182.536197 553.402783 
L 188.762707 552.002744 
L 201.215728 546.119607 
L 207.442238 544.276055 
L 213.668748 542.083464 
L 219.895259 541.149698 
L 226.121769 538.039217 
L 232.348279 537.156519 
L 238.57479 536.029472 
L 244.8013 532.745914 
L 251.02781 529.883446 
L 257.254321 492.801354 
L 263.480831 494.052074 
L 269.707341 495.877642 
L 275.933852 473.055826 
L 282.160362 471.260455 
L 288.386872 464.272031 
L 294.613383 467.171135 
L 307.066403 452.823044 
L 313.292914 455.705496 
L 319.519424 457.237867 
L 325.745934 457.970359 
L 331.972445 464.346856 
L 338.198955 458.900905 
L 344.425466 452.364099 
L 350.651976 453.32462 
L 356.878486 449.253951 
L 363.104997 441.937137 
L 369.331507 437.170278 
L 375.558017 430.700748 
L 381.784528 438.737953 
L 388.011038 438.398795 
L 394.237548 441.762951 
L 400.464059 445.463156 
L 406.690569 446.763612 
L 412.917079 442.538628 
L 419.14359 442.213903 
L 425.3701 442.968709 
L 431.59661 447.081343 
L 437.823121 449.990217 
L 444.049631 453.400223 
L 450.276141 450.520102 
M 462.729162 453.428199 
L 468.955672 438.991405 
L 475.182183 450.569949 
L 481.408693 451.140467 
L 487.635203 450.902335 
L 493.861714 451.81856 
L 500.088224 451.330528 
L 506.314734 446.809795 
L 512.541245 441.330761 
L 518.767755 444.936823 
L 524.994266 442.105883 
L 531.220776 439.870773 
L 537.447286 434.426709 
L 543.673797 427.116001 
L 549.900307 431.107626 
L 556.126817 424.857355 
L 562.353328 438.76715 
L 568.579838 426.0267 
L 574.806348 426.827356 
L 581.032859 423.720428 
L 587.259369 425.119134 
L 593.485879 409.390433 
L 599.71239 408.419032 
L 605.9389 396.34413 
L 612.16541 404.587049 
L 618.391921 413.228188 
L 624.618431 405.573327 
L 630.844941 440.6137 
L 637.071452 502.384807 
L 643.297962 495.5719 
L 649.524472 497.718752 
L 655.750983 491.6692 
L 661.977493 491.752796 
L 668.204003 487.550571 
L 674.430514 484.866396 
L 680.657024 481.98461 
L 686.883534 480.633642 
L 693.110045 480.029819 
L 699.336555 471.864611 
L 705.563066 457.767197 
L 718.016086 466.547884 
L 724.242597 468.973389 
L 730.469107 462.108082 
L 736.695617 462.170141 
L 742.922128 459.419245 
L 749.148638 458.936209 
L 755.375148 452.731455 
L 761.601659 453.690644 
L 767.828169 453.248684 
L 774.054679 452.422272 
L 780.28119 453.863165 
L 792.73421 444.781843 
L 798.960721 447.336128 
L 805.187231 461.634372 
L 811.413741 457.893979 
L 817.640252 441.935694 
L 823.866762 440.006991 
L 830.093272 433.810452 
L 836.319783 436.457992 
L 842.546293 435.362918 
L 848.772803 441.025352 
L 854.999314 437.475909 
L 861.225824 434.770418 
L 867.452334 444.635522 
L 873.678845 430.173194 
L 879.905355 436.316556 
L 886.131866 434.570365 
L 892.358376 429.492881 
L 898.584886 424.565491 
L 904.811397 424.052813 
L 911.037907 426.608097 
L 923.490928 429.23965 
L 929.717438 424.96371 
L 935.943948 418.591542 
L 942.170459 418.595761 
L 948.396969 416.780962 
L 954.623479 401.920415 
L 960.84999 408.757745 
L 967.0765 400.761395 
L 967.0765 400.761395 
" clip-path="url(#p8e12232348)" style="fill: none; stroke: #9a5689; stroke-width: 1.5; stroke-linecap: square"/>
   </g>
   <g id="line2d_62">
    <path d="M 64.2325 578.169398 
L 70.45901 577.976783 
L 89.138541 576.877935 
L 95.365052 576.382909 
L 114.044583 575.256084 
L 120.271093 575.138183 
L 126.497603 574.499723 
L 132.724114 574.125595 
L 138.950624 574.618178 
L 145.177134 573.499236 
L 163.856666 572.41926 
L 170.083176 571.934225 
L 188.762707 570.85103 
L 201.215728 569.878075 
L 213.668748 569.177445 
L 219.895259 569.070314 
L 226.121769 568.051508 
L 232.348279 567.562699 
L 238.57479 567.296036 
L 244.8013 566.547114 
L 263.480831 564.757627 
L 269.707341 560.871246 
L 275.933852 558.048299 
L 282.160362 559.178899 
L 288.386872 556.274022 
L 294.613383 555.625348 
L 300.839893 555.703726 
L 307.066403 556.055984 
L 313.292914 553.53456 
L 319.519424 553.339725 
L 331.972445 556.033669 
L 338.198955 554.007716 
L 344.425466 555.577721 
L 350.651976 558.18152 
L 356.878486 557.840031 
L 363.104997 556.517371 
L 369.331507 554.693802 
L 381.784528 557.703147 
L 388.011038 558.260342 
L 394.237548 558.108249 
L 400.464059 558.269446 
L 406.690569 559.244621 
L 412.917079 557.915856 
L 425.3701 557.759654 
L 431.59661 557.322246 
L 437.823121 557.497321 
L 444.049631 557.876334 
L 450.276141 557.519857 
M 462.729162 557.427047 
L 468.955672 556.964771 
L 475.182183 557.065353 
L 481.408693 556.546347 
L 487.635203 556.243936 
L 493.861714 556.383929 
L 500.088224 556.346294 
L 506.314734 556.195865 
L 518.767755 555.190604 
L 531.220776 555.819628 
L 537.447286 555.737031 
L 543.673797 555.205592 
L 549.900307 555.42807 
L 556.126817 555.499232 
L 562.353328 555.779218 
L 568.579838 555.200818 
L 574.806348 554.812924 
L 581.032859 554.010047 
L 587.259369 553.825647 
L 593.485879 553.453295 
L 599.71239 553.193737 
L 605.9389 552.647199 
L 618.391921 552.981361 
L 624.618431 552.853247 
L 630.844941 553.596619 
L 637.071452 552.807397 
L 643.297962 551.748293 
L 649.524472 550.889241 
L 655.750983 550.562295 
L 661.977493 550.481031 
L 668.204003 549.778625 
L 674.430514 549.474881 
L 680.657024 549.316016 
L 693.110045 548.794235 
L 699.336555 548.711638 
L 705.563066 548.056192 
L 711.789576 547.919086 
L 718.016086 548.247253 
L 724.242597 548.261019 
L 730.469107 547.021511 
L 736.695617 547.176491 
L 742.922128 547.158284 
L 749.148638 546.899281 
L 755.375148 546.439226 
L 761.601659 546.486186 
L 767.828169 546.198873 
L 774.054679 545.474819 
L 780.28119 546.191213 
L 786.5077 544.40761 
L 798.960721 543.358164 
L 805.187231 546.105841 
L 811.413741 546.542139 
L 817.640252 543.918246 
L 823.866762 542.372664 
L 830.093272 541.301459 
L 836.319783 539.525183 
L 842.546293 541.991431 
L 848.772803 541.97933 
L 854.999314 542.133089 
L 861.225824 541.622298 
L 867.452334 543.821328 
L 873.678845 541.453663 
L 879.905355 543.82044 
L 892.358376 541.45988 
L 898.584886 540.807432 
L 904.811397 540.443739 
L 911.037907 540.562972 
L 917.264417 541.120389 
L 923.490928 543.08384 
L 929.717438 540.507019 
L 935.943948 539.661401 
L 942.170459 540.057621 
L 948.396969 539.646524 
L 954.623479 539.761538 
L 960.84999 540.644903 
L 967.0765 539.837252 
L 967.0765 539.837252 
" clip-path="url(#p8e12232348)" style="fill: none; stroke: #be503b; stroke-width: 1.5; stroke-linecap: square"/>
   </g>
   <g id="line2d_63">
    <path d="M 64.2325 574.583319 
L 89.138541 568.736707 
L 95.365052 566.531793 
L 101.591562 563.934767 
L 107.818072 560.946182 
L 114.044583 560.30306 
L 120.271093 558.958752 
L 126.497603 555.66265 
L 132.724114 553.660454 
L 138.950624 556.155455 
L 145.177134 549.823364 
L 151.403645 547.374435 
L 157.630155 546.323102 
L 163.856666 546.353187 
L 170.083176 543.862848 
L 176.309686 540.841403 
L 188.762707 536.801041 
L 194.989217 534.227551 
L 201.215728 530.786238 
L 207.442238 526.028705 
L 213.668748 524.19692 
L 219.895259 524.192813 
L 226.121769 518.425911 
L 232.348279 518.431906 
L 238.57479 518.590549 
L 244.8013 514.522433 
L 251.02781 513.935818 
L 257.254321 511.184478 
L 263.480831 508.046797 
L 269.707341 509.248781 
L 275.933852 505.26526 
L 282.160362 503.112636 
L 288.386872 500.051002 
L 294.613383 502.788465 
L 300.839893 503.622871 
L 307.066403 498.219218 
L 313.292914 495.080982 
L 325.745934 492.946453 
L 331.972445 490.753197 
L 338.198955 486.172181 
L 344.425466 470.063023 
L 350.651976 406.179481 
L 356.878486 459.399373 
L 363.104997 460.201583 
L 369.331507 460.73602 
L 375.558017 466.995617 
L 381.784528 469.158344 
L 388.011038 472.686472 
L 394.237548 475.0971 
L 400.464059 482.597537 
L 406.690569 480.378302 
L 412.917079 466.344945 
L 419.14359 465.378762 
L 425.3701 466.31386 
L 431.59661 469.924807 
L 437.823121 472.637846 
L 444.049631 471.586291 
L 450.276141 464.548353 
M 462.729162 470.692824 
L 468.955672 472.860103 
L 475.182183 464.03845 
L 481.408693 477.444449 
L 487.635203 461.923572 
L 493.861714 458.348372 
L 500.088224 467.979563 
L 506.314734 471.257569 
L 512.541245 462.400391 
L 518.767755 470.698153 
L 524.994266 473.399314 
L 531.220776 472.706788 
L 537.447286 471.260899 
L 543.673797 471.872604 
L 549.900307 469.038667 
L 556.126817 470.457024 
L 562.353328 475.383192 
L 568.579838 468.265987 
L 574.806348 467.60499 
L 581.032859 465.204354 
L 587.259369 464.089962 
L 593.485879 459.212975 
L 599.71239 456.066191 
L 605.9389 453.795666 
L 612.16541 451.188537 
L 618.391921 450.85049 
L 624.618431 446.884065 
L 630.844941 447.351448 
L 637.071452 443.20895 
L 643.297962 440.430744 
L 649.524472 435.465275 
L 655.750983 429.890988 
L 661.977493 428.409463 
L 668.204003 418.926925 
L 674.430514 418.014585 
L 680.657024 415.026778 
L 686.883534 401.715366 
L 693.110045 399.751915 
L 699.336555 399.919107 
L 705.563066 402.606613 
L 711.789576 402.146002 
L 718.016086 398.355096 
L 724.242597 412.424867 
L 730.469107 399.926989 
L 736.695617 400.727757 
L 742.922128 399.617029 
L 749.148638 388.206232 
L 755.375148 395.902503 
L 761.601659 398.372193 
L 767.828169 395.969225 
L 774.054679 394.249123 
L 780.28119 392.201743 
L 786.5077 386.529761 
L 792.73421 384.280441 
L 798.960721 383.926074 
L 805.187231 407.819427 
L 811.413741 401.034164 
L 817.640252 378.886002 
L 823.866762 391.232341 
L 830.093272 381.921102 
L 836.319783 380.3592 
L 842.546293 376.067274 
L 848.772803 381.916883 
L 854.999314 375.344218 
L 861.225824 374.385695 
L 867.452334 384.227263 
L 873.678845 375.847237 
L 879.905355 385.897851 
L 886.131866 389.333391 
L 892.358376 373.267863 
L 898.584886 369.961547 
L 904.811397 367.4943 
L 911.037907 368.707607 
L 917.264417 363.776776 
L 923.490928 362.238632 
L 929.717438 354.164459 
L 935.943948 352.373085 
L 942.170459 356.741391 
L 948.396969 357.983119 
L 954.623479 359.699779 
L 960.84999 362.795384 
L 967.0765 358.829404 
L 967.0765 358.829404 
" clip-path="url(#p8e12232348)" style="fill: none; stroke: #e2321d; stroke-width: 1.5; stroke-linecap: square"/>
   </g>
   <g id="line2d_64">
    <path d="M 64.2325 578.54175 
L 132.724114 578.527207 
L 145.177134 578.24489 
L 151.403645 578.187383 
L 157.630155 577.762631 
L 163.856666 576.497256 
L 176.309686 574.209635 
L 182.536197 572.893415 
L 188.762707 571.697093 
L 194.989217 570.334245 
L 201.215728 568.492913 
L 207.442238 566.944222 
L 213.668748 565.120764 
L 219.895259 563.765243 
L 226.121769 559.651055 
L 232.348279 558.095149 
L 238.57479 555.45638 
L 244.8013 552.378204 
L 251.02781 549.459228 
L 263.480831 541.139484 
L 269.707341 537.915988 
L 275.933852 532.453051 
L 282.160362 528.565227 
L 288.386872 523.631398 
L 294.613383 519.641217 
L 300.839893 517.478045 
L 307.066403 513.925272 
L 313.292914 509.567512 
L 319.519424 504.605152 
L 325.745934 493.486885 
L 331.972445 487.759173 
L 338.198955 493.004959 
L 344.425466 487.378938 
L 350.651976 476.800882 
L 356.878486 468.221358 
L 363.104997 466.420547 
L 369.331507 460.135639 
L 375.558017 453.198171 
L 381.784528 465.625886 
L 388.011038 468.74436 
L 394.237548 466.732728 
L 400.464059 468.140649 
L 406.690569 470.67051 
L 412.917079 461.859737 
L 419.14359 465.242432 
L 425.3701 460.969712 
L 431.59661 459.170455 
L 437.823121 463.586943 
L 444.049631 465.052593 
L 450.276141 461.061745 
M 462.729162 460.782426 
L 468.955672 458.010991 
L 475.182183 457.865114 
L 481.408693 452.350111 
L 487.635203 455.426287 
L 493.861714 452.551163 
L 500.088224 451.723307 
L 506.314734 446.232172 
L 512.541245 444.40938 
L 518.767755 439.120185 
L 524.994266 429.808281 
L 531.220776 430.179411 
L 537.447286 423.506609 
L 543.673797 421.879318 
L 549.900307 407.500919 
L 556.126817 398.136281 
L 562.353328 408.702126 
L 568.579838 397.478393 
L 574.806348 406.768094 
L 581.032859 389.908127 
L 587.259369 392.493275 
L 593.485879 370.024161 
L 599.71239 358.805646 
L 605.9389 340.45394 
L 612.16541 342.58758 
L 618.391921 337.9515 
L 624.618431 340.860818 
L 630.844941 331.168901 
L 637.071452 309.371442 
L 643.297962 316.726002 
L 649.524472 314.908871 
L 655.750983 322.285856 
L 661.977493 309.514543 
L 668.204003 293.321235 
L 674.430514 285.351529 
L 680.657024 271.433296 
L 686.883534 272.282245 
L 693.110045 244.881523 
L 699.336555 242.466121 
L 705.563066 229.222541 
L 711.789576 230.471818 
L 718.016086 219.486106 
L 724.242597 251.104484 
L 730.469107 229.988671 
L 736.695617 223.174099 
L 742.922128 223.950998 
L 749.148638 223.73085 
L 755.375148 216.878866 
L 767.828169 193.895853 
L 774.054679 196.320026 
L 780.28119 194.449274 
L 786.5077 185.437227 
L 792.73421 171.905557 
L 798.960721 163.133751 
L 805.187231 211.718007 
L 811.413741 187.087832 
L 817.640252 153.696397 
L 823.866762 156.863386 
L 830.093272 149.961777 
L 836.319783 171.709279 
L 842.546293 169.297096 
L 848.772803 167.736749 
L 854.999314 168.527191 
L 861.225824 167.294678 
L 867.452334 193.775733 
L 873.678845 190.46642 
L 879.905355 171.788434 
L 886.131866 186.232444 
L 892.358376 169.716075 
L 898.584886 140.377325 
L 904.811397 133.576631 
L 911.037907 107.117113 
L 917.264417 92.252126 
L 923.490928 81.033722 
L 929.717438 60.527837 
L 935.943948 51.916229 
L 942.170459 73.890539 
L 948.396969 73.988567 
L 954.623479 75.01148 
L 960.84999 111.956799 
L 967.0765 111.978669 
L 967.0765 111.978669 
" clip-path="url(#p8e12232348)" style="fill: none; stroke: #48b585; stroke-width: 6; stroke-linecap: square"/>
   </g>
   <g id="patch_3">
    <path d="M 64.2325 578.54175 
L 64.2325 24.14175 
" style="fill: none; stroke: #ffffff; stroke-linejoin: miter; stroke-linecap: square"/>
   </g>
   <g id="patch_4">
    <path d="M 967.0765 578.54175 
L 967.0765 24.14175 
" style="fill: none; stroke: #ffffff; stroke-linejoin: miter; stroke-linecap: square"/>
   </g>
   <g id="patch_5">
    <path d="M 64.2325 578.54175 
L 967.0765 578.54175 
" style="fill: none; stroke: #ffffff; stroke-linejoin: miter; stroke-linecap: square"/>
   </g>
   <g id="patch_6">
    <path d="M 64.2325 24.14175 
L 967.0765 24.14175 
" style="fill: none; stroke: #ffffff; stroke-linejoin: miter; stroke-linecap: square"/>
   </g>
   <g id="text_30">
    <!-- Enterprise Linux Instances by Distribution (System Age &gt; 1 Week, 2 Week Resample) -->
    <g transform="translate(64.2325 18.14175) scale(0.144 -0.144)">
     <defs>
      <path id="DejaVuSans-45" d="M 628 4666 
L 3578 4666 
L 3578 4134 
L 1259 4134 
L 1259 2753 
L 3481 2753 
L 3481 2222 
L 1259 2222 
L 1259 531 
L 3634 531 
L 3634 0 
L 628 0 
L 628 4666 
z
" transform="scale(0.015625)"/>
      <path id="DejaVuSans-72" d="M 2631 2963 
Q 2534 3019 2420 3045 
Q 2306 3072 2169 3072 
Q 1681 3072 1420 2755 
Q 1159 2438 1159 1844 
L 1159 0 
L 581 0 
L 581 3500 
L 1159 3500 
L 1159 2956 
Q 1341 3275 1631 3429 
Q 1922 3584 2338 3584 
Q 2397 3584 2469 3576 
Q 2541 3569 2628 3553 
L 2631 2963 
z
" transform="scale(0.015625)"/>
      <path id="DejaVuSans-70" d="M 1159 525 
L 1159 -1331 
L 581 -1331 
L 581 3500 
L 1159 3500 
L 1159 2969 
Q 1341 3281 1617 3432 
Q 1894 3584 2278 3584 
Q 2916 3584 3314 3078 
Q 3713 2572 3713 1747 
Q 3713 922 3314 415 
Q 2916 -91 2278 -91 
Q 1894 -91 1617 61 
Q 1341 213 1159 525 
z
M 3116 1747 
Q 3116 2381 2855 2742 
Q 2594 3103 2138 3103 
Q 1681 3103 1420 2742 
Q 1159 2381 1159 1747 
Q 1159 1113 1420 752 
Q 1681 391 2138 391 
Q 2594 391 2855 752 
Q 3116 1113 3116 1747 
z
" transform="scale(0.015625)"/>
      <path id="DejaVuSans-69" d="M 603 3500 
L 1178 3500 
L 1178 0 
L 603 0 
L 603 3500 
z
M 603 4863 
L 1178 4863 
L 1178 4134 
L 603 4134 
L 603 4863 
z
" transform="scale(0.015625)"/>
      <path id="DejaVuSans-20" transform="scale(0.015625)"/>
      <path id="DejaVuSans-4c" d="M 628 4666 
L 1259 4666 
L 1259 531 
L 3531 531 
L 3531 0 
L 628 0 
L 628 4666 
z
" transform="scale(0.015625)"/>
      <path id="DejaVuSans-75" d="M 544 1381 
L 544 3500 
L 1119 3500 
L 1119 1403 
Q 1119 906 1312 657 
Q 1506 409 1894 409 
Q 2359 409 2629 706 
Q 2900 1003 2900 1516 
L 2900 3500 
L 3475 3500 
L 3475 0 
L 2900 0 
L 2900 538 
Q 2691 219 2414 64 
Q 2138 -91 1772 -91 
Q 1169 -91 856 284 
Q 544 659 544 1381 
z
M 1991 3584 
L 1991 3584 
z
" transform="scale(0.015625)"/>
      <path id="DejaVuSans-78" d="M 3513 3500 
L 2247 1797 
L 3578 0 
L 2900 0 
L 1881 1375 
L 863 0 
L 184 0 
L 1544 1831 
L 300 3500 
L 978 3500 
L 1906 2253 
L 2834 3500 
L 3513 3500 
z
" transform="scale(0.015625)"/>
      <path id="DejaVuSans-62" d="M 3116 1747 
Q 3116 2381 2855 2742 
Q 2594 3103 2138 3103 
Q 1681 3103 1420 2742 
Q 1159 2381 1159 1747 
Q 1159 1113 1420 752 
Q 1681 391 2138 391 
Q 2594 391 2855 752 
Q 3116 1113 3116 1747 
z
M 1159 2969 
Q 1341 3281 1617 3432 
Q 1894 3584 2278 3584 
Q 2916 3584 3314 3078 
Q 3713 2572 3713 1747 
Q 3713 922 3314 415 
Q 2916 -91 2278 -91 
Q 1894 -91 1617 61 
Q 1341 213 1159 525 
L 1159 0 
L 581 0 
L 581 4863 
L 1159 4863 
L 1159 2969 
z
" transform="scale(0.015625)"/>
      <path id="DejaVuSans-79" d="M 2059 -325 
Q 1816 -950 1584 -1140 
Q 1353 -1331 966 -1331 
L 506 -1331 
L 506 -850 
L 844 -850 
Q 1081 -850 1212 -737 
Q 1344 -625 1503 -206 
L 1606 56 
L 191 3500 
L 800 3500 
L 1894 763 
L 2988 3500 
L 3597 3500 
L 2059 -325 
z
" transform="scale(0.015625)"/>
      <path id="DejaVuSans-6f" d="M 1959 3097 
Q 1497 3097 1228 2736 
Q 959 2375 959 1747 
Q 959 1119 1226 758 
Q 1494 397 1959 397 
Q 2419 397 2687 759 
Q 2956 1122 2956 1747 
Q 2956 2369 2687 2733 
Q 2419 3097 1959 3097 
z
M 1959 3584 
Q 2709 3584 3137 3096 
Q 3566 2609 3566 1747 
Q 3566 888 3137 398 
Q 2709 -91 1959 -91 
Q 1206 -91 779 398 
Q 353 888 353 1747 
Q 353 2609 779 3096 
Q 1206 3584 1959 3584 
z
" transform="scale(0.015625)"/>
      <path id="DejaVuSans-28" d="M 1984 4856 
Q 1566 4138 1362 3434 
Q 1159 2731 1159 2009 
Q 1159 1288 1364 580 
Q 1569 -128 1984 -844 
L 1484 -844 
Q 1016 -109 783 600 
Q 550 1309 550 2009 
Q 550 2706 781 3412 
Q 1013 4119 1484 4856 
L 1984 4856 
z
" transform="scale(0.015625)"/>
      <path id="DejaVuSans-53" d="M 3425 4513 
L 3425 3897 
Q 3066 4069 2747 4153 
Q 2428 4238 2131 4238 
Q 1616 4238 1336 4038 
Q 1056 3838 1056 3469 
Q 1056 3159 1242 3001 
Q 1428 2844 1947 2747 
L 2328 2669 
Q 3034 2534 3370 2195 
Q 3706 1856 3706 1288 
Q 3706 609 3251 259 
Q 2797 -91 1919 -91 
Q 1588 -91 1214 -16 
Q 841 59 441 206 
L 441 856 
Q 825 641 1194 531 
Q 1563 422 1919 422 
Q 2459 422 2753 634 
Q 3047 847 3047 1241 
Q 3047 1584 2836 1778 
Q 2625 1972 2144 2069 
L 1759 2144 
Q 1053 2284 737 2584 
Q 422 2884 422 3419 
Q 422 4038 858 4394 
Q 1294 4750 2059 4750 
Q 2388 4750 2728 4690 
Q 3069 4631 3425 4513 
z
" transform="scale(0.015625)"/>
      <path id="DejaVuSans-6d" d="M 3328 2828 
Q 3544 3216 3844 3400 
Q 4144 3584 4550 3584 
Q 5097 3584 5394 3201 
Q 5691 2819 5691 2113 
L 5691 0 
L 5113 0 
L 5113 2094 
Q 5113 2597 4934 2840 
Q 4756 3084 4391 3084 
Q 3944 3084 3684 2787 
Q 3425 2491 3425 1978 
L 3425 0 
L 2847 0 
L 2847 2094 
Q 2847 2600 2669 2842 
Q 2491 3084 2119 3084 
Q 1678 3084 1418 2786 
Q 1159 2488 1159 1978 
L 1159 0 
L 581 0 
L 581 3500 
L 1159 3500 
L 1159 2956 
Q 1356 3278 1631 3431 
Q 1906 3584 2284 3584 
Q 2666 3584 2933 3390 
Q 3200 3197 3328 2828 
z
" transform="scale(0.015625)"/>
      <path id="DejaVuSans-41" d="M 2188 4044 
L 1331 1722 
L 3047 1722 
L 2188 4044 
z
M 1831 4666 
L 2547 4666 
L 4325 0 
L 3669 0 
L 3244 1197 
L 1141 1197 
L 716 0 
L 50 0 
L 1831 4666 
z
" transform="scale(0.015625)"/>
      <path id="DejaVuSans-67" d="M 2906 1791 
Q 2906 2416 2648 2759 
Q 2391 3103 1925 3103 
Q 1463 3103 1205 2759 
Q 947 2416 947 1791 
Q 947 1169 1205 825 
Q 1463 481 1925 481 
Q 2391 481 2648 825 
Q 2906 1169 2906 1791 
z
M 3481 434 
Q 3481 -459 3084 -895 
Q 2688 -1331 1869 -1331 
Q 1566 -1331 1297 -1286 
Q 1028 -1241 775 -1147 
L 775 -588 
Q 1028 -725 1275 -790 
Q 1522 -856 1778 -856 
Q 2344 -856 2625 -561 
Q 2906 -266 2906 331 
L 2906 616 
Q 2728 306 2450 153 
Q 2172 0 1784 0 
Q 1141 0 747 490 
Q 353 981 353 1791 
Q 353 2603 747 3093 
Q 1141 3584 1784 3584 
Q 2172 3584 2450 3431 
Q 2728 3278 2906 2969 
L 2906 3500 
L 3481 3500 
L 3481 434 
z
" transform="scale(0.015625)"/>
      <path id="DejaVuSans-3e" d="M 678 3150 
L 678 3719 
L 4684 2266 
L 4684 1747 
L 678 294 
L 678 863 
L 3897 2003 
L 678 3150 
z
" transform="scale(0.015625)"/>
      <path id="DejaVuSans-57" d="M 213 4666 
L 850 4666 
L 1831 722 
L 2809 4666 
L 3519 4666 
L 4500 722 
L 5478 4666 
L 6119 4666 
L 4947 0 
L 4153 0 
L 3169 4050 
L 2175 0 
L 1381 0 
L 213 4666 
z
" transform="scale(0.015625)"/>
      <path id="DejaVuSans-52" d="M 2841 2188 
Q 3044 2119 3236 1894 
Q 3428 1669 3622 1275 
L 4263 0 
L 3584 0 
L 2988 1197 
Q 2756 1666 2539 1819 
Q 2322 1972 1947 1972 
L 1259 1972 
L 1259 0 
L 628 0 
L 628 4666 
L 2053 4666 
Q 2853 4666 3247 4331 
Q 3641 3997 3641 3322 
Q 3641 2881 3436 2590 
Q 3231 2300 2841 2188 
z
M 1259 4147 
L 1259 2491 
L 2053 2491 
Q 2509 2491 2742 2702 
Q 2975 2913 2975 3322 
Q 2975 3731 2742 3939 
Q 2509 4147 2053 4147 
L 1259 4147 
z
" transform="scale(0.015625)"/>
      <path id="DejaVuSans-6c" d="M 603 4863 
L 1178 4863 
L 1178 0 
L 603 0 
L 603 4863 
z
" transform="scale(0.015625)"/>
      <path id="DejaVuSans-29" d="M 513 4856 
L 1013 4856 
Q 1481 4119 1714 3412 
Q 1947 2706 1947 2009 
Q 1947 1309 1714 600 
Q 1481 -109 1013 -844 
L 513 -844 
Q 928 -128 1133 580 
Q 1338 1288 1338 2009 
Q 1338 2731 1133 3434 
Q 928 4138 513 4856 
z
" transform="scale(0.015625)"/>
     </defs>
     <use xlink:href="#DejaVuSans-45"/>
     <use xlink:href="#DejaVuSans-6e" x="63.183594"/>
     <use xlink:href="#DejaVuSans-74" x="126.5625"/>
     <use xlink:href="#DejaVuSans-65" x="165.771484"/>
     <use xlink:href="#DejaVuSans-72" x="227.294922"/>
     <use xlink:href="#DejaVuSans-70" x="268.408203"/>
     <use xlink:href="#DejaVuSans-72" x="331.884766"/>
     <use xlink:href="#DejaVuSans-69" x="372.998047"/>
     <use xlink:href="#DejaVuSans-73" x="400.78125"/>
     <use xlink:href="#DejaVuSans-65" x="452.880859"/>
     <use xlink:href="#DejaVuSans-20" x="514.404297"/>
     <use xlink:href="#DejaVuSans-4c" x="546.191406"/>
     <use xlink:href="#DejaVuSans-69" x="601.904297"/>
     <use xlink:href="#DejaVuSans-6e" x="629.6875"/>
     <use xlink:href="#DejaVuSans-75" x="693.066406"/>
     <use xlink:href="#DejaVuSans-78" x="756.445312"/>
     <use xlink:href="#DejaVuSans-20" x="815.625"/>
     <use xlink:href="#DejaVuSans-49" x="847.412109"/>
     <use xlink:href="#DejaVuSans-6e" x="876.904297"/>
     <use xlink:href="#DejaVuSans-73" x="940.283203"/>
     <use xlink:href="#DejaVuSans-74" x="992.382812"/>
     <use xlink:href="#DejaVuSans-61" x="1031.591797"/>
     <use xlink:href="#DejaVuSans-6e" x="1092.871094"/>
     <use xlink:href="#DejaVuSans-63" x="1156.25"/>
     <use xlink:href="#DejaVuSans-65" x="1211.230469"/>
     <use xlink:href="#DejaVuSans-73" x="1272.753906"/>
     <use xlink:href="#DejaVuSans-20" x="1324.853516"/>
     <use xlink:href="#DejaVuSans-62" x="1356.640625"/>
     <use xlink:href="#DejaVuSans-79" x="1420.117188"/>
     <use xlink:href="#DejaVuSans-20" x="1479.296875"/>
     <use xlink:href="#DejaVuSans-44" x="1511.083984"/>
     <use xlink:href="#DejaVuSans-69" x="1588.085938"/>
     <use xlink:href="#DejaVuSans-73" x="1615.869141"/>
     <use xlink:href="#DejaVuSans-74" x="1667.96875"/>
     <use xlink:href="#DejaVuSans-72" x="1707.177734"/>
     <use xlink:href="#DejaVuSans-69" x="1748.291016"/>
     <use xlink:href="#DejaVuSans-62" x="1776.074219"/>
     <use xlink:href="#DejaVuSans-75" x="1839.550781"/>
     <use xlink:href="#DejaVuSans-74" x="1902.929688"/>
     <use xlink:href="#DejaVuSans-69" x="1942.138672"/>
     <use xlink:href="#DejaVuSans-6f" x="1969.921875"/>
     <use xlink:href="#DejaVuSans-6e" x="2031.103516"/>
     <use xlink:href="#DejaVuSans-20" x="2094.482422"/>
     <use xlink:href="#DejaVuSans-28" x="2126.269531"/>
     <use xlink:href="#DejaVuSans-53" x="2165.283203"/>
     <use xlink:href="#DejaVuSans-79" x="2228.759766"/>
     <use xlink:href="#DejaVuSans-73" x="2287.939453"/>
     <use xlink:href="#DejaVuSans-74" x="2340.039062"/>
     <use xlink:href="#DejaVuSans-65" x="2379.248047"/>
     <use xlink:href="#DejaVuSans-6d" x="2440.771484"/>
     <use xlink:href="#DejaVuSans-20" x="2538.183594"/>
     <use xlink:href="#DejaVuSans-41" x="2569.970703"/>
     <use xlink:href="#DejaVuSans-67" x="2638.378906"/>
     <use xlink:href="#DejaVuSans-65" x="2701.855469"/>
     <use xlink:href="#DejaVuSans-20" x="2763.378906"/>
     <use xlink:href="#DejaVuSans-3e" x="2795.166016"/>
     <use xlink:href="#DejaVuSans-20" x="2878.955078"/>
     <use xlink:href="#DejaVuSans-31" x="2910.742188"/>
     <use xlink:href="#DejaVuSans-20" x="2974.365234"/>
     <use xlink:href="#DejaVuSans-57" x="3006.152344"/>
     <use xlink:href="#DejaVuSans-65" x="3099.154297"/>
     <use xlink:href="#DejaVuSans-65" x="3160.677734"/>
     <use xlink:href="#DejaVuSans-6b" x="3222.201172"/>
     <use xlink:href="#DejaVuSans-2c" x="3280.111328"/>
     <use xlink:href="#DejaVuSans-20" x="3311.898438"/>
     <use xlink:href="#DejaVuSans-32" x="3343.685547"/>
     <use xlink:href="#DejaVuSans-20" x="3407.308594"/>
     <use xlink:href="#DejaVuSans-57" x="3439.095703"/>
     <use xlink:href="#DejaVuSans-65" x="3532.097656"/>
     <use xlink:href="#DejaVuSans-65" x="3593.621094"/>
     <use xlink:href="#DejaVuSans-6b" x="3655.144531"/>
     <use xlink:href="#DejaVuSans-20" x="3713.054688"/>
     <use xlink:href="#DejaVuSans-52" x="3744.841797"/>
     <use xlink:href="#DejaVuSans-65" x="3809.824219"/>
     <use xlink:href="#DejaVuSans-73" x="3871.347656"/>
     <use xlink:href="#DejaVuSans-61" x="3923.447266"/>
     <use xlink:href="#DejaVuSans-6d" x="3984.726562"/>
     <use xlink:href="#DejaVuSans-70" x="4082.138672"/>
     <use xlink:href="#DejaVuSans-6c" x="4145.615234"/>
     <use xlink:href="#DejaVuSans-65" x="4173.398438"/>
     <use xlink:href="#DejaVuSans-29" x="4234.921875"/>
    </g>
   </g>
   <g id="text_31">
    <!-- 2026-07-09 14:18 UTC -->
    <g transform="translate(804.1945 18.14175) scale(0.144 -0.144)">
     <defs>
      <path id="DejaVuSans-37" d="M 525 4666 
L 3525 4666 
L 3525 4397 
L 1831 0 
L 1172 0 
L 2766 4134 
L 525 4134 
L 525 4666 
z
" transform="scale(0.015625)"/>
      <path id="DejaVuSans-39" d="M 703 97 
L 703 672 
Q 941 559 1184 500 
Q 1428 441 1663 441 
Q 2288 441 2617 861 
Q 2947 1281 2994 2138 
Q 2813 1869 2534 1725 
Q 2256 1581 1919 1581 
Q 1219 1581 811 2004 
Q 403 2428 403 3163 
Q 403 3881 828 4315 
Q 1253 4750 1959 4750 
Q 2769 4750 3195 4129 
Q 3622 3509 3622 2328 
Q 3622 1225 3098 567 
Q 2575 -91 1691 -91 
Q 1453 -91 1209 -44 
Q 966 3 703 97 
z
M 1959 2075 
Q 2384 2075 2632 2365 
Q 2881 2656 2881 3163 
Q 2881 3666 2632 3958 
Q 2384 4250 1959 4250 
Q 1534 4250 1286 3958 
Q 1038 3666 1038 3163 
Q 1038 2656 1286 2365 
Q 1534 2075 1959 2075 
z
" transform="scale(0.015625)"/>
      <path id="DejaVuSans-3a" d="M 750 794 
L 1409 794 
L 1409 0 
L 750 0 
L 750 794 
z
M 750 3309 
L 1409 3309 
L 1409 2516 
L 750 2516 
L 750 3309 
z
" transform="scale(0.015625)"/>
      <path id="DejaVuSans-55" d="M 556 4666 
L 1191 4666 
L 1191 1831 
Q 1191 1081 1462 751 
Q 1734 422 2344 422 
Q 2950 422 3222 751 
Q 3494 1081 3494 1831 
L 3494 4666 
L 4128 4666 
L 4128 1753 
Q 4128 841 3676 375 
Q 3225 -91 2344 -91 
Q 1459 -91 1007 375 
Q 556 841 556 1753 
L 556 4666 
z
" transform="scale(0.015625)"/>
      <path id="DejaVuSans-54" d="M -19 4666 
L 3928 4666 
L 3928 4134 
L 2272 4134 
L 2272 0 
L 1638 0 
L 1638 4134 
L -19 4134 
L -19 4666 
z
" transform="scale(0.015625)"/>
      <path id="DejaVuSans-43" d="M 4122 4306 
L 4122 3641 
Q 3803 3938 3442 4084 
Q 3081 4231 2675 4231 
Q 1875 4231 1450 3742 
Q 1025 3253 1025 2328 
Q 1025 1406 1450 917 
Q 1875 428 2675 428 
Q 3081 428 3442 575 
Q 3803 722 4122 1019 
L 4122 359 
Q 3791 134 3420 21 
Q 3050 -91 2638 -91 
Q 1578 -91 968 557 
Q 359 1206 359 2328 
Q 359 3453 968 4101 
Q 1578 4750 2638 4750 
Q 3056 4750 3426 4639 
Q 3797 4528 4122 4306 
z
" transform="scale(0.015625)"/>
     </defs>
     <use xlink:href="#DejaVuSans-32"/>
     <use xlink:href="#DejaVuSans-30" x="63.623047"/>
     <use xlink:href="#DejaVuSans-32" x="127.246094"/>
     <use xlink:href="#DejaVuSans-36" x="190.869141"/>
     <use xlink:href="#DejaVuSans-2d" x="254.492188"/>
     <use xlink:href="#DejaVuSans-30" x="290.576172"/>
     <use xlink:href="#DejaVuSans-37" x="354.199219"/>
     <use xlink:href="#DejaVuSans-2d" x="417.822266"/>
     <use xlink:href="#DejaVuSans-30" x="453.90625"/>
     <use xlink:href="#DejaVuSans-39" x="517.529297"/>
     <use xlink:href="#DejaVuSans-20" x="581.152344"/>
     <use xlink:href="#DejaVuSans-31" x="612.939453"/>
     <use xlink:href="#DejaVuSans-34" x="676.5625"/>
     <use xlink:href="#DejaVuSans-3a" x="740.185547"/>
     <use xlink:href="#DejaVuSans-31" x="773.876953"/>
     <use xlink:href="#DejaVuSans-38" x="837.5"/>
     <use xlink:href="#DejaVuSans-20" x="901.123047"/>
     <use xlink:href="#DejaVuSans-55" x="932.910156"/>
     <use xlink:href="#DejaVuSans-54" x="1006.103516"/>
     <use xlink:href="#DejaVuSans-43" x="1061.3125"/>
    </g>
   </g>
   <g id="legend_1">
    <g id="patch_7">
     <path d="M 71.2325 120.2105 
L 180.20125 120.2105 
Q 182.20125 120.2105 182.20125 118.2105 
L 182.20125 31.14175 
Q 182.20125 29.14175 180.20125 29.14175 
L 71.2325 29.14175 
Q 69.2325 29.14175 69.2325 31.14175 
L 69.2325 118.2105 
Q 69.2325 120.2105 71.2325 120.2105 
z
" style="fill: #e5e5e5; opacity: 0.8; stroke: #cccccc; stroke-width: 0.5; stroke-linejoin: miter"/>
    </g>
    <g id="text_32">
     <!-- Distribution -->
     <g transform="translate(96.548125 40.740188) scale(0.1 -0.1)">
      <use xlink:href="#DejaVuSans-44"/>
      <use xlink:href="#DejaVuSans-69" x="77.001953"/>
      <use xlink:href="#DejaVuSans-73" x="104.785156"/>
      <use xlink:href="#DejaVuSans-74" x="156.884766"/>
      <use xlink:href="#DejaVuSans-72" x="196.09375"/>
      <use xlink:href="#DejaVuSans-69" x="237.207031"/>
      <use xlink:href="#DejaVuSans-62" x="264.990234"/>
      <use xlink:href="#DejaVuSans-75" x="328.466797"/>
      <use xlink:href="#DejaVuSans-74" x="391.845703"/>
      <use xlink:href="#DejaVuSans-69" x="431.054688"/>
      <use xlink:href="#DejaVuSans-6f" x="458.837891"/>
      <use xlink:href="#DejaVuSans-6e" x="520.019531"/>
     </g>
    </g>
    <g id="line2d_65">
     <path d="M 73.2325 51.918313 
L 83.2325 51.918313 
L 93.2325 51.918313 
" style="fill: none; stroke: #4ac1fa; stroke-width: 1.5; stroke-linecap: square"/>
    </g>
    <g id="text_33">
     <!-- AlmaLinux -->
     <g transform="translate(101.2325 55.418313) scale(0.1 -0.1)">
      <use xlink:href="#DejaVuSans-41"/>
      <use xlink:href="#DejaVuSans-6c" x="68.408203"/>
      <use xlink:href="#DejaVuSans-6d" x="96.191406"/>
      <use xlink:href="#DejaVuSans-61" x="193.603516"/>
      <use xlink:href="#DejaVuSans-4c" x="254.882812"/>
      <use xlink:href="#DejaVuSans-69" x="310.595703"/>
      <use xlink:href="#DejaVuSans-6e" x="338.378906"/>
      <use xlink:href="#DejaVuSans-75" x="401.757812"/>
      <use xlink:href="#DejaVuSans-78" x="465.136719"/>
     </g>
    </g>
    <g id="line2d_66">
     <path d="M 73.2325 66.596438 
L 83.2325 66.596438 
L 93.2325 66.596438 
" style="fill: none; stroke: #9a5689; stroke-width: 1.5; stroke-linecap: square"/>
    </g>
    <g id="text_34">
     <!-- CentOS Stream -->
     <g transform="translate(101.2325 70.096438) scale(0.1 -0.1)">
      <defs>
       <path id="DejaVuSans-4f" d="M 2522 4238 
Q 1834 4238 1429 3725 
Q 1025 3213 1025 2328 
Q 1025 1447 1429 934 
Q 1834 422 2522 422 
Q 3209 422 3611 934 
Q 4013 1447 4013 2328 
Q 4013 3213 3611 3725 
Q 3209 4238 2522 4238 
z
M 2522 4750 
Q 3503 4750 4090 4092 
Q 4678 3434 4678 2328 
Q 4678 1225 4090 567 
Q 3503 -91 2522 -91 
Q 1538 -91 948 565 
Q 359 1222 359 2328 
Q 359 3434 948 4092 
Q 1538 4750 2522 4750 
z
" transform="scale(0.015625)"/>
      </defs>
      <use xlink:href="#DejaVuSans-43"/>
      <use xlink:href="#DejaVuSans-65" x="69.824219"/>
      <use xlink:href="#DejaVuSans-6e" x="131.347656"/>
      <use xlink:href="#DejaVuSans-74" x="194.726562"/>
      <use xlink:href="#DejaVuSans-4f" x="233.935547"/>
      <use xlink:href="#DejaVuSans-53" x="312.646484"/>
      <use xlink:href="#DejaVuSans-20" x="376.123047"/>
      <use xlink:href="#DejaVuSans-53" x="407.910156"/>
      <use xlink:href="#DejaVuSans-74" x="471.386719"/>
      <use xlink:href="#DejaVuSans-72" x="510.595703"/>
      <use xlink:href="#DejaVuSans-65" x="549.458984"/>
      <use xlink:href="#DejaVuSans-61" x="610.982422"/>
      <use xlink:href="#DejaVuSans-6d" x="672.261719"/>
     </g>
    </g>
    <g id="line2d_67">
     <path d="M 73.2325 81.274563 
L 83.2325 81.274563 
L 93.2325 81.274563 
" style="fill: none; stroke: #be503b; stroke-width: 1.5; stroke-linecap: square"/>
    </g>
    <g id="text_35">
     <!-- Oracle -->
     <g transform="translate(101.2325 84.774563) scale(0.1 -0.1)">
      <use xlink:href="#DejaVuSans-4f"/>
      <use xlink:href="#DejaVuSans-72" x="78.710938"/>
      <use xlink:href="#DejaVuSans-61" x="119.824219"/>
      <use xlink:href="#DejaVuSans-63" x="181.103516"/>
      <use xlink:href="#DejaVuSans-6c" x="236.083984"/>
      <use xlink:href="#DejaVuSans-65" x="263.867188"/>
     </g>
    </g>
    <g id="line2d_68">
     <path d="M 73.2325 95.952688 
L 83.2325 95.952688 
L 93.2325 95.952688 
" style="fill: none; stroke: #e2321d; stroke-width: 1.5; stroke-linecap: square"/>
    </g>
    <g id="text_36">
     <!-- RHEL -->
     <g transform="translate(101.2325 99.452688) scale(0.1 -0.1)">
      <defs>
       <path id="DejaVuSans-48" d="M 628 4666 
L 1259 4666 
L 1259 2753 
L 3553 2753 
L 3553 4666 
L 4184 4666 
L 4184 0 
L 3553 0 
L 3553 2222 
L 1259 2222 
L 1259 0 
L 628 0 
L 628 4666 
z
" transform="scale(0.015625)"/>
      </defs>
      <use xlink:href="#DejaVuSans-52"/>
      <use xlink:href="#DejaVuSans-48" x="69.482422"/>
      <use xlink:href="#DejaVuSans-45" x="144.677734"/>
      <use xlink:href="#DejaVuSans-4c" x="207.861328"/>
     </g>
    </g>
    <g id="line2d_69">
     <path d="M 73.2325 110.630813 
L 83.2325 110.630813 
L 93.2325 110.630813 
" style="fill: none; stroke: #48b585; stroke-width: 6; stroke-linecap: square"/>
    </g>
    <g id="text_37">
     <!-- Rocky Linux -->
     <g transform="translate(101.2325 114.130813) scale(0.1 -0.1)">
      <use xlink:href="#DejaVuSans-52"/>
      <use xlink:href="#DejaVuSans-6f" x="64.982422"/>
      <use xlink:href="#DejaVuSans-63" x="126.164062"/>
      <use xlink:href="#DejaVuSans-6b" x="181.144531"/>
      <use xlink:href="#DejaVuSans-79" x="235.429688"/>
      <use xlink:href="#DejaVuSans-20" x="294.609375"/>
      <use xlink:href="#DejaVuSans-4c" x="326.396484"/>
      <use xlink:href="#DejaVuSans-69" x="382.109375"/>
      <use xlink:href="#DejaVuSans-6e" x="409.892578"/>
      <use xlink:href="#DejaVuSans-75" x="473.271484"/>
      <use xlink:href="#DejaVuSans-78" x="536.650391"/>
     </g>
    </g>
   </g>
  </g>
 </g>
 <defs>
  <clipPath id="p8e12232348">
   <rect x="64.2325" y="24.14175" width="902.844" height="554.4"/>
  </clipPath>
 </defs>
</svg>
