<?xml version="1.0" encoding="utf-8" standalone="no"?>
<!DOCTYPE svg PUBLIC "-//W3C//DTD SVG 1.1//EN"
  "http://www.w3.org/Graphics/SVG/1.1/DTD/svg11.dtd">
<svg xmlns:xlink="http://www.w3.org/1999/xlink" width="964.735875pt" height="633.943878pt" viewBox="0 0 964.735875 633.943878" xmlns="http://www.w3.org/2000/svg" version="1.1">
 <metadata>
  <rdf:RDF xmlns:dc="http://purl.org/dc/elements/1.1/" xmlns:cc="http://creativecommons.org/ns#" xmlns:rdf="http://www.w3.org/1999/02/22-rdf-syntax-ns#">
   <cc:Work>
    <dc:type rdf:resource="http://purl.org/dc/dcmitype/StillImage"/>
    <dc:date>2023-09-07T11:50:13.154873</dc:date>
    <dc:format>image/svg+xml</dc:format>
    <dc:creator>
     <cc:Agent>
      <dc:title>Matplotlib v3.5.1, https://matplotlib.org/</dc:title>
     </cc:Agent>
    </dc:creator>
   </cc:Work>
  </rdf:RDF>
 </metadata>
 <defs>
  <style type="text/css">*{stroke-linejoin: round; stroke-linecap: butt}</style>
 </defs>
 <g id="figure_1">
  <g id="patch_1">
   <path d="M 0 633.943878 
L 964.735875 633.943878 
L 964.735875 0 
L 0 0 
z
" style="fill: #ffffff"/>
  </g>
  <g id="axes_1">
   <g id="patch_2">
    <path d="M 54.691875 567.74175 
L 957.535875 567.74175 
L 957.535875 24.14175 
L 54.691875 24.14175 
z
" style="fill: #e5e5e5"/>
   </g>
   <g id="matplotlib.axis_1">
    <g id="xtick_1">
     <g id="line2d_1">
      <path d="M 72.394699 567.74175 
L 72.394699 24.14175 
" clip-path="url(#p044985cf86)" style="fill: none; stroke: #ffffff; stroke-width: 0.8; stroke-linecap: square"/>
     </g>
     <g id="line2d_2">
      <defs>
       <path id="mb2e9ebf039" d="M 0 0 
L 0 3.5 
" style="stroke: #555555; stroke-width: 0.8"/>
      </defs>
      <g>
       <use xlink:href="#mb2e9ebf039" x="72.394699" y="567.74175" style="fill: #555555; stroke: #555555; stroke-width: 0.8"/>
      </g>
     </g>
     <g id="text_1">
      <!-- 2022-09 -->
      <g style="fill: #555555" transform="translate(59.573416 609.659567)rotate(-45)scale(0.1 -0.1)">
       <defs>
        <path id="DejaVuSans-32" d="M 1228 531 
L 3431 531 
L 3431 0 
L 469 0 
L 469 531 
Q 828 903 1448 1529 
Q 2069 2156 2228 2338 
Q 2531 2678 2651 2914 
Q 2772 3150 2772 3378 
Q 2772 3750 2511 3984 
Q 2250 4219 1831 4219 
Q 1534 4219 1204 4116 
Q 875 4013 500 3803 
L 500 4441 
Q 881 4594 1212 4672 
Q 1544 4750 1819 4750 
Q 2544 4750 2975 4387 
Q 3406 4025 3406 3419 
Q 3406 3131 3298 2873 
Q 3191 2616 2906 2266 
Q 2828 2175 2409 1742 
Q 1991 1309 1228 531 
z
" transform="scale(0.015625)"/>
        <path id="DejaVuSans-30" d="M 2034 4250 
Q 1547 4250 1301 3770 
Q 1056 3291 1056 2328 
Q 1056 1369 1301 889 
Q 1547 409 2034 409 
Q 2525 409 2770 889 
Q 3016 1369 3016 2328 
Q 3016 3291 2770 3770 
Q 2525 4250 2034 4250 
z
M 2034 4750 
Q 2819 4750 3233 4129 
Q 3647 3509 3647 2328 
Q 3647 1150 3233 529 
Q 2819 -91 2034 -91 
Q 1250 -91 836 529 
Q 422 1150 422 2328 
Q 422 3509 836 4129 
Q 1250 4750 2034 4750 
z
" transform="scale(0.015625)"/>
        <path id="DejaVuSans-2d" d="M 313 2009 
L 1997 2009 
L 1997 1497 
L 313 1497 
L 313 2009 
z
" transform="scale(0.015625)"/>
        <path id="DejaVuSans-39" d="M 703 97 
L 703 672 
Q 941 559 1184 500 
Q 1428 441 1663 441 
Q 2288 441 2617 861 
Q 2947 1281 2994 2138 
Q 2813 1869 2534 1725 
Q 2256 1581 1919 1581 
Q 1219 1581 811 2004 
Q 403 2428 403 3163 
Q 403 3881 828 4315 
Q 1253 4750 1959 4750 
Q 2769 4750 3195 4129 
Q 3622 3509 3622 2328 
Q 3622 1225 3098 567 
Q 2575 -91 1691 -91 
Q 1453 -91 1209 -44 
Q 966 3 703 97 
z
M 1959 2075 
Q 2384 2075 2632 2365 
Q 2881 2656 2881 3163 
Q 2881 3666 2632 3958 
Q 2384 4250 1959 4250 
Q 1534 4250 1286 3958 
Q 1038 3666 1038 3163 
Q 1038 2656 1286 2365 
Q 1534 2075 1959 2075 
z
" transform="scale(0.015625)"/>
       </defs>
       <use xlink:href="#DejaVuSans-32"/>
       <use xlink:href="#DejaVuSans-30" x="63.623047"/>
       <use xlink:href="#DejaVuSans-32" x="127.246094"/>
       <use xlink:href="#DejaVuSans-32" x="190.869141"/>
       <use xlink:href="#DejaVuSans-2d" x="254.492188"/>
       <use xlink:href="#DejaVuSans-30" x="290.576172"/>
       <use xlink:href="#DejaVuSans-39" x="354.199219"/>
      </g>
     </g>
    </g>
    <g id="xtick_2">
     <g id="line2d_3">
      <path d="M 148.263942 567.74175 
L 148.263942 24.14175 
" clip-path="url(#p044985cf86)" style="fill: none; stroke: #ffffff; stroke-width: 0.8; stroke-linecap: square"/>
     </g>
     <g id="line2d_4">
      <g>
       <use xlink:href="#mb2e9ebf039" x="148.263942" y="567.74175" style="fill: #555555; stroke: #555555; stroke-width: 0.8"/>
      </g>
     </g>
     <g id="text_2">
      <!-- 2022-10 -->
      <g style="fill: #555555" transform="translate(135.44266 609.659567)rotate(-45)scale(0.1 -0.1)">
       <defs>
        <path id="DejaVuSans-31" d="M 794 531 
L 1825 531 
L 1825 4091 
L 703 3866 
L 703 4441 
L 1819 4666 
L 2450 4666 
L 2450 531 
L 3481 531 
L 3481 0 
L 794 0 
L 794 531 
z
" transform="scale(0.015625)"/>
       </defs>
       <use xlink:href="#DejaVuSans-32"/>
       <use xlink:href="#DejaVuSans-30" x="63.623047"/>
       <use xlink:href="#DejaVuSans-32" x="127.246094"/>
       <use xlink:href="#DejaVuSans-32" x="190.869141"/>
       <use xlink:href="#DejaVuSans-2d" x="254.492188"/>
       <use xlink:href="#DejaVuSans-31" x="290.576172"/>
       <use xlink:href="#DejaVuSans-30" x="354.199219"/>
      </g>
     </g>
    </g>
    <g id="xtick_3">
     <g id="line2d_5">
      <path d="M 226.662161 567.74175 
L 226.662161 24.14175 
" clip-path="url(#p044985cf86)" style="fill: none; stroke: #ffffff; stroke-width: 0.8; stroke-linecap: square"/>
     </g>
     <g id="line2d_6">
      <g>
       <use xlink:href="#mb2e9ebf039" x="226.662161" y="567.74175" style="fill: #555555; stroke: #555555; stroke-width: 0.8"/>
      </g>
     </g>
     <g id="text_3">
      <!-- 2022-11 -->
      <g style="fill: #555555" transform="translate(213.840878 609.659567)rotate(-45)scale(0.1 -0.1)">
       <use xlink:href="#DejaVuSans-32"/>
       <use xlink:href="#DejaVuSans-30" x="63.623047"/>
       <use xlink:href="#DejaVuSans-32" x="127.246094"/>
       <use xlink:href="#DejaVuSans-32" x="190.869141"/>
       <use xlink:href="#DejaVuSans-2d" x="254.492188"/>
       <use xlink:href="#DejaVuSans-31" x="290.576172"/>
       <use xlink:href="#DejaVuSans-31" x="354.199219"/>
      </g>
     </g>
    </g>
    <g id="xtick_4">
     <g id="line2d_7">
      <path d="M 302.531404 567.74175 
L 302.531404 24.14175 
" clip-path="url(#p044985cf86)" style="fill: none; stroke: #ffffff; stroke-width: 0.8; stroke-linecap: square"/>
     </g>
     <g id="line2d_8">
      <g>
       <use xlink:href="#mb2e9ebf039" x="302.531404" y="567.74175" style="fill: #555555; stroke: #555555; stroke-width: 0.8"/>
      </g>
     </g>
     <g id="text_4">
      <!-- 2022-12 -->
      <g style="fill: #555555" transform="translate(289.710122 609.659567)rotate(-45)scale(0.1 -0.1)">
       <use xlink:href="#DejaVuSans-32"/>
       <use xlink:href="#DejaVuSans-30" x="63.623047"/>
       <use xlink:href="#DejaVuSans-32" x="127.246094"/>
       <use xlink:href="#DejaVuSans-32" x="190.869141"/>
       <use xlink:href="#DejaVuSans-2d" x="254.492188"/>
       <use xlink:href="#DejaVuSans-31" x="290.576172"/>
       <use xlink:href="#DejaVuSans-32" x="354.199219"/>
      </g>
     </g>
    </g>
    <g id="xtick_5">
     <g id="line2d_9">
      <path d="M 380.929623 567.74175 
L 380.929623 24.14175 
" clip-path="url(#p044985cf86)" style="fill: none; stroke: #ffffff; stroke-width: 0.8; stroke-linecap: square"/>
     </g>
     <g id="line2d_10">
      <g>
       <use xlink:href="#mb2e9ebf039" x="380.929623" y="567.74175" style="fill: #555555; stroke: #555555; stroke-width: 0.8"/>
      </g>
     </g>
     <g id="text_5">
      <!-- 2023-01 -->
      <g style="fill: #555555" transform="translate(368.108341 609.659567)rotate(-45)scale(0.1 -0.1)">
       <defs>
        <path id="DejaVuSans-33" d="M 2597 2516 
Q 3050 2419 3304 2112 
Q 3559 1806 3559 1356 
Q 3559 666 3084 287 
Q 2609 -91 1734 -91 
Q 1441 -91 1130 -33 
Q 819 25 488 141 
L 488 750 
Q 750 597 1062 519 
Q 1375 441 1716 441 
Q 2309 441 2620 675 
Q 2931 909 2931 1356 
Q 2931 1769 2642 2001 
Q 2353 2234 1838 2234 
L 1294 2234 
L 1294 2753 
L 1863 2753 
Q 2328 2753 2575 2939 
Q 2822 3125 2822 3475 
Q 2822 3834 2567 4026 
Q 2313 4219 1838 4219 
Q 1578 4219 1281 4162 
Q 984 4106 628 3988 
L 628 4550 
Q 988 4650 1302 4700 
Q 1616 4750 1894 4750 
Q 2613 4750 3031 4423 
Q 3450 4097 3450 3541 
Q 3450 3153 3228 2886 
Q 3006 2619 2597 2516 
z
" transform="scale(0.015625)"/>
       </defs>
       <use xlink:href="#DejaVuSans-32"/>
       <use xlink:href="#DejaVuSans-30" x="63.623047"/>
       <use xlink:href="#DejaVuSans-32" x="127.246094"/>
       <use xlink:href="#DejaVuSans-33" x="190.869141"/>
       <use xlink:href="#DejaVuSans-2d" x="254.492188"/>
       <use xlink:href="#DejaVuSans-30" x="290.576172"/>
       <use xlink:href="#DejaVuSans-31" x="354.199219"/>
      </g>
     </g>
    </g>
    <g id="xtick_6">
     <g id="line2d_11">
      <path d="M 459.327841 567.74175 
L 459.327841 24.14175 
" clip-path="url(#p044985cf86)" style="fill: none; stroke: #ffffff; stroke-width: 0.8; stroke-linecap: square"/>
     </g>
     <g id="line2d_12">
      <g>
       <use xlink:href="#mb2e9ebf039" x="459.327841" y="567.74175" style="fill: #555555; stroke: #555555; stroke-width: 0.8"/>
      </g>
     </g>
     <g id="text_6">
      <!-- 2023-02 -->
      <g style="fill: #555555" transform="translate(446.506559 609.659567)rotate(-45)scale(0.1 -0.1)">
       <use xlink:href="#DejaVuSans-32"/>
       <use xlink:href="#DejaVuSans-30" x="63.623047"/>
       <use xlink:href="#DejaVuSans-32" x="127.246094"/>
       <use xlink:href="#DejaVuSans-33" x="190.869141"/>
       <use xlink:href="#DejaVuSans-2d" x="254.492188"/>
       <use xlink:href="#DejaVuSans-30" x="290.576172"/>
       <use xlink:href="#DejaVuSans-32" x="354.199219"/>
      </g>
     </g>
    </g>
    <g id="xtick_7">
     <g id="line2d_13">
      <path d="M 530.139136 567.74175 
L 530.139136 24.14175 
" clip-path="url(#p044985cf86)" style="fill: none; stroke: #ffffff; stroke-width: 0.8; stroke-linecap: square"/>
     </g>
     <g id="line2d_14">
      <g>
       <use xlink:href="#mb2e9ebf039" x="530.139136" y="567.74175" style="fill: #555555; stroke: #555555; stroke-width: 0.8"/>
      </g>
     </g>
     <g id="text_7">
      <!-- 2023-03 -->
      <g style="fill: #555555" transform="translate(517.317853 609.659567)rotate(-45)scale(0.1 -0.1)">
       <use xlink:href="#DejaVuSans-32"/>
       <use xlink:href="#DejaVuSans-30" x="63.623047"/>
       <use xlink:href="#DejaVuSans-32" x="127.246094"/>
       <use xlink:href="#DejaVuSans-33" x="190.869141"/>
       <use xlink:href="#DejaVuSans-2d" x="254.492188"/>
       <use xlink:href="#DejaVuSans-30" x="290.576172"/>
       <use xlink:href="#DejaVuSans-33" x="354.199219"/>
      </g>
     </g>
    </g>
    <g id="xtick_8">
     <g id="line2d_15">
      <path d="M 608.537354 567.74175 
L 608.537354 24.14175 
" clip-path="url(#p044985cf86)" style="fill: none; stroke: #ffffff; stroke-width: 0.8; stroke-linecap: square"/>
     </g>
     <g id="line2d_16">
      <g>
       <use xlink:href="#mb2e9ebf039" x="608.537354" y="567.74175" style="fill: #555555; stroke: #555555; stroke-width: 0.8"/>
      </g>
     </g>
     <g id="text_8">
      <!-- 2023-04 -->
      <g style="fill: #555555" transform="translate(595.716072 609.659567)rotate(-45)scale(0.1 -0.1)">
       <defs>
        <path id="DejaVuSans-34" d="M 2419 4116 
L 825 1625 
L 2419 1625 
L 2419 4116 
z
M 2253 4666 
L 3047 4666 
L 3047 1625 
L 3713 1625 
L 3713 1100 
L 3047 1100 
L 3047 0 
L 2419 0 
L 2419 1100 
L 313 1100 
L 313 1709 
L 2253 4666 
z
" transform="scale(0.015625)"/>
       </defs>
       <use xlink:href="#DejaVuSans-32"/>
       <use xlink:href="#DejaVuSans-30" x="63.623047"/>
       <use xlink:href="#DejaVuSans-32" x="127.246094"/>
       <use xlink:href="#DejaVuSans-33" x="190.869141"/>
       <use xlink:href="#DejaVuSans-2d" x="254.492188"/>
       <use xlink:href="#DejaVuSans-30" x="290.576172"/>
       <use xlink:href="#DejaVuSans-34" x="354.199219"/>
      </g>
     </g>
    </g>
    <g id="xtick_9">
     <g id="line2d_17">
      <path d="M 684.406598 567.74175 
L 684.406598 24.14175 
" clip-path="url(#p044985cf86)" style="fill: none; stroke: #ffffff; stroke-width: 0.8; stroke-linecap: square"/>
     </g>
     <g id="line2d_18">
      <g>
       <use xlink:href="#mb2e9ebf039" x="684.406598" y="567.74175" style="fill: #555555; stroke: #555555; stroke-width: 0.8"/>
      </g>
     </g>
     <g id="text_9">
      <!-- 2023-05 -->
      <g style="fill: #555555" transform="translate(671.585315 609.659567)rotate(-45)scale(0.1 -0.1)">
       <defs>
        <path id="DejaVuSans-35" d="M 691 4666 
L 3169 4666 
L 3169 4134 
L 1269 4134 
L 1269 2991 
Q 1406 3038 1543 3061 
Q 1681 3084 1819 3084 
Q 2600 3084 3056 2656 
Q 3513 2228 3513 1497 
Q 3513 744 3044 326 
Q 2575 -91 1722 -91 
Q 1428 -91 1123 -41 
Q 819 9 494 109 
L 494 744 
Q 775 591 1075 516 
Q 1375 441 1709 441 
Q 2250 441 2565 725 
Q 2881 1009 2881 1497 
Q 2881 1984 2565 2268 
Q 2250 2553 1709 2553 
Q 1456 2553 1204 2497 
Q 953 2441 691 2322 
L 691 4666 
z
" transform="scale(0.015625)"/>
       </defs>
       <use xlink:href="#DejaVuSans-32"/>
       <use xlink:href="#DejaVuSans-30" x="63.623047"/>
       <use xlink:href="#DejaVuSans-32" x="127.246094"/>
       <use xlink:href="#DejaVuSans-33" x="190.869141"/>
       <use xlink:href="#DejaVuSans-2d" x="254.492188"/>
       <use xlink:href="#DejaVuSans-30" x="290.576172"/>
       <use xlink:href="#DejaVuSans-35" x="354.199219"/>
      </g>
     </g>
    </g>
    <g id="xtick_10">
     <g id="line2d_19">
      <path d="M 762.804816 567.74175 
L 762.804816 24.14175 
" clip-path="url(#p044985cf86)" style="fill: none; stroke: #ffffff; stroke-width: 0.8; stroke-linecap: square"/>
     </g>
     <g id="line2d_20">
      <g>
       <use xlink:href="#mb2e9ebf039" x="762.804816" y="567.74175" style="fill: #555555; stroke: #555555; stroke-width: 0.8"/>
      </g>
     </g>
     <g id="text_10">
      <!-- 2023-06 -->
      <g style="fill: #555555" transform="translate(749.983534 609.659567)rotate(-45)scale(0.1 -0.1)">
       <defs>
        <path id="DejaVuSans-36" d="M 2113 2584 
Q 1688 2584 1439 2293 
Q 1191 2003 1191 1497 
Q 1191 994 1439 701 
Q 1688 409 2113 409 
Q 2538 409 2786 701 
Q 3034 994 3034 1497 
Q 3034 2003 2786 2293 
Q 2538 2584 2113 2584 
z
M 3366 4563 
L 3366 3988 
Q 3128 4100 2886 4159 
Q 2644 4219 2406 4219 
Q 1781 4219 1451 3797 
Q 1122 3375 1075 2522 
Q 1259 2794 1537 2939 
Q 1816 3084 2150 3084 
Q 2853 3084 3261 2657 
Q 3669 2231 3669 1497 
Q 3669 778 3244 343 
Q 2819 -91 2113 -91 
Q 1303 -91 875 529 
Q 447 1150 447 2328 
Q 447 3434 972 4092 
Q 1497 4750 2381 4750 
Q 2619 4750 2861 4703 
Q 3103 4656 3366 4563 
z
" transform="scale(0.015625)"/>
       </defs>
       <use xlink:href="#DejaVuSans-32"/>
       <use xlink:href="#DejaVuSans-30" x="63.623047"/>
       <use xlink:href="#DejaVuSans-32" x="127.246094"/>
       <use xlink:href="#DejaVuSans-33" x="190.869141"/>
       <use xlink:href="#DejaVuSans-2d" x="254.492188"/>
       <use xlink:href="#DejaVuSans-30" x="290.576172"/>
       <use xlink:href="#DejaVuSans-36" x="354.199219"/>
      </g>
     </g>
    </g>
    <g id="xtick_11">
     <g id="line2d_21">
      <path d="M 838.67406 567.74175 
L 838.67406 24.14175 
" clip-path="url(#p044985cf86)" style="fill: none; stroke: #ffffff; stroke-width: 0.8; stroke-linecap: square"/>
     </g>
     <g id="line2d_22">
      <g>
       <use xlink:href="#mb2e9ebf039" x="838.67406" y="567.74175" style="fill: #555555; stroke: #555555; stroke-width: 0.8"/>
      </g>
     </g>
     <g id="text_11">
      <!-- 2023-07 -->
      <g style="fill: #555555" transform="translate(825.852778 609.659567)rotate(-45)scale(0.1 -0.1)">
       <defs>
        <path id="DejaVuSans-37" d="M 525 4666 
L 3525 4666 
L 3525 4397 
L 1831 0 
L 1172 0 
L 2766 4134 
L 525 4134 
L 525 4666 
z
" transform="scale(0.015625)"/>
       </defs>
       <use xlink:href="#DejaVuSans-32"/>
       <use xlink:href="#DejaVuSans-30" x="63.623047"/>
       <use xlink:href="#DejaVuSans-32" x="127.246094"/>
       <use xlink:href="#DejaVuSans-33" x="190.869141"/>
       <use xlink:href="#DejaVuSans-2d" x="254.492188"/>
       <use xlink:href="#DejaVuSans-30" x="290.576172"/>
       <use xlink:href="#DejaVuSans-37" x="354.199219"/>
      </g>
     </g>
    </g>
    <g id="xtick_12">
     <g id="line2d_23">
      <path d="M 917.072278 567.74175 
L 917.072278 24.14175 
" clip-path="url(#p044985cf86)" style="fill: none; stroke: #ffffff; stroke-width: 0.8; stroke-linecap: square"/>
     </g>
     <g id="line2d_24">
      <g>
       <use xlink:href="#mb2e9ebf039" x="917.072278" y="567.74175" style="fill: #555555; stroke: #555555; stroke-width: 0.8"/>
      </g>
     </g>
     <g id="text_12">
      <!-- 2023-08 -->
      <g style="fill: #555555" transform="translate(904.250996 609.659567)rotate(-45)scale(0.1 -0.1)">
       <defs>
        <path id="DejaVuSans-38" d="M 2034 2216 
Q 1584 2216 1326 1975 
Q 1069 1734 1069 1313 
Q 1069 891 1326 650 
Q 1584 409 2034 409 
Q 2484 409 2743 651 
Q 3003 894 3003 1313 
Q 3003 1734 2745 1975 
Q 2488 2216 2034 2216 
z
M 1403 2484 
Q 997 2584 770 2862 
Q 544 3141 544 3541 
Q 544 4100 942 4425 
Q 1341 4750 2034 4750 
Q 2731 4750 3128 4425 
Q 3525 4100 3525 3541 
Q 3525 3141 3298 2862 
Q 3072 2584 2669 2484 
Q 3125 2378 3379 2068 
Q 3634 1759 3634 1313 
Q 3634 634 3220 271 
Q 2806 -91 2034 -91 
Q 1263 -91 848 271 
Q 434 634 434 1313 
Q 434 1759 690 2068 
Q 947 2378 1403 2484 
z
M 1172 3481 
Q 1172 3119 1398 2916 
Q 1625 2713 2034 2713 
Q 2441 2713 2670 2916 
Q 2900 3119 2900 3481 
Q 2900 3844 2670 4047 
Q 2441 4250 2034 4250 
Q 1625 4250 1398 4047 
Q 1172 3844 1172 3481 
z
" transform="scale(0.015625)"/>
       </defs>
       <use xlink:href="#DejaVuSans-32"/>
       <use xlink:href="#DejaVuSans-30" x="63.623047"/>
       <use xlink:href="#DejaVuSans-32" x="127.246094"/>
       <use xlink:href="#DejaVuSans-33" x="190.869141"/>
       <use xlink:href="#DejaVuSans-2d" x="254.492188"/>
       <use xlink:href="#DejaVuSans-30" x="290.576172"/>
       <use xlink:href="#DejaVuSans-38" x="354.199219"/>
      </g>
     </g>
    </g>
    <g id="text_13">
     <!-- Date -->
     <g style="fill: #555555" transform="translate(491.772938 624.248253)scale(0.12 -0.12)">
      <defs>
       <path id="DejaVuSans-44" d="M 1259 4147 
L 1259 519 
L 2022 519 
Q 2988 519 3436 956 
Q 3884 1394 3884 2338 
Q 3884 3275 3436 3711 
Q 2988 4147 2022 4147 
L 1259 4147 
z
M 628 4666 
L 1925 4666 
Q 3281 4666 3915 4102 
Q 4550 3538 4550 2338 
Q 4550 1131 3912 565 
Q 3275 0 1925 0 
L 628 0 
L 628 4666 
z
" transform="scale(0.015625)"/>
       <path id="DejaVuSans-61" d="M 2194 1759 
Q 1497 1759 1228 1600 
Q 959 1441 959 1056 
Q 959 750 1161 570 
Q 1363 391 1709 391 
Q 2188 391 2477 730 
Q 2766 1069 2766 1631 
L 2766 1759 
L 2194 1759 
z
M 3341 1997 
L 3341 0 
L 2766 0 
L 2766 531 
Q 2569 213 2275 61 
Q 1981 -91 1556 -91 
Q 1019 -91 701 211 
Q 384 513 384 1019 
Q 384 1609 779 1909 
Q 1175 2209 1959 2209 
L 2766 2209 
L 2766 2266 
Q 2766 2663 2505 2880 
Q 2244 3097 1772 3097 
Q 1472 3097 1187 3025 
Q 903 2953 641 2809 
L 641 3341 
Q 956 3463 1253 3523 
Q 1550 3584 1831 3584 
Q 2591 3584 2966 3190 
Q 3341 2797 3341 1997 
z
" transform="scale(0.015625)"/>
       <path id="DejaVuSans-74" d="M 1172 4494 
L 1172 3500 
L 2356 3500 
L 2356 3053 
L 1172 3053 
L 1172 1153 
Q 1172 725 1289 603 
Q 1406 481 1766 481 
L 2356 481 
L 2356 0 
L 1766 0 
Q 1100 0 847 248 
Q 594 497 594 1153 
L 594 3053 
L 172 3053 
L 172 3500 
L 594 3500 
L 594 4494 
L 1172 4494 
z
" transform="scale(0.015625)"/>
       <path id="DejaVuSans-65" d="M 3597 1894 
L 3597 1613 
L 953 1613 
Q 991 1019 1311 708 
Q 1631 397 2203 397 
Q 2534 397 2845 478 
Q 3156 559 3463 722 
L 3463 178 
Q 3153 47 2828 -22 
Q 2503 -91 2169 -91 
Q 1331 -91 842 396 
Q 353 884 353 1716 
Q 353 2575 817 3079 
Q 1281 3584 2069 3584 
Q 2775 3584 3186 3129 
Q 3597 2675 3597 1894 
z
M 3022 2063 
Q 3016 2534 2758 2815 
Q 2500 3097 2075 3097 
Q 1594 3097 1305 2825 
Q 1016 2553 972 2059 
L 3022 2063 
z
" transform="scale(0.015625)"/>
      </defs>
      <use xlink:href="#DejaVuSans-44"/>
      <use xlink:href="#DejaVuSans-61" x="77.001953"/>
      <use xlink:href="#DejaVuSans-74" x="138.28125"/>
      <use xlink:href="#DejaVuSans-65" x="177.490234"/>
     </g>
    </g>
   </g>
   <g id="matplotlib.axis_2">
    <g id="ytick_1">
     <g id="line2d_25">
      <path d="M 54.691875 567.74175 
L 957.535875 567.74175 
" clip-path="url(#p044985cf86)" style="fill: none; stroke: #ffffff; stroke-width: 0.8; stroke-linecap: square"/>
     </g>
     <g id="line2d_26">
      <defs>
       <path id="m6d6903b4cd" d="M 0 0 
L -3.5 0 
" style="stroke: #555555; stroke-width: 0.8"/>
      </defs>
      <g>
       <use xlink:href="#m6d6903b4cd" x="54.691875" y="567.74175" style="fill: #555555; stroke: #555555; stroke-width: 0.8"/>
      </g>
     </g>
     <g id="text_14">
      <!-- 0k -->
      <g style="fill: #555555" transform="translate(35.53875 571.540969)scale(0.1 -0.1)">
       <defs>
        <path id="DejaVuSans-6b" d="M 581 4863 
L 1159 4863 
L 1159 1991 
L 2875 3500 
L 3609 3500 
L 1753 1863 
L 3688 0 
L 2938 0 
L 1159 1709 
L 1159 0 
L 581 0 
L 581 4863 
z
" transform="scale(0.015625)"/>
       </defs>
       <use xlink:href="#DejaVuSans-30"/>
       <use xlink:href="#DejaVuSans-6b" x="63.623047"/>
      </g>
     </g>
    </g>
    <g id="ytick_2">
     <g id="line2d_27">
      <path d="M 54.691875 457.056804 
L 957.535875 457.056804 
" clip-path="url(#p044985cf86)" style="fill: none; stroke: #ffffff; stroke-width: 0.8; stroke-linecap: square"/>
     </g>
     <g id="line2d_28">
      <g>
       <use xlink:href="#m6d6903b4cd" x="54.691875" y="457.056804" style="fill: #555555; stroke: #555555; stroke-width: 0.8"/>
      </g>
     </g>
     <g id="text_15">
      <!-- 100k -->
      <g style="fill: #555555" transform="translate(22.81375 460.856022)scale(0.1 -0.1)">
       <use xlink:href="#DejaVuSans-31"/>
       <use xlink:href="#DejaVuSans-30" x="63.623047"/>
       <use xlink:href="#DejaVuSans-30" x="127.246094"/>
       <use xlink:href="#DejaVuSans-6b" x="190.869141"/>
      </g>
     </g>
    </g>
    <g id="ytick_3">
     <g id="line2d_29">
      <path d="M 54.691875 346.371857 
L 957.535875 346.371857 
" clip-path="url(#p044985cf86)" style="fill: none; stroke: #ffffff; stroke-width: 0.8; stroke-linecap: square"/>
     </g>
     <g id="line2d_30">
      <g>
       <use xlink:href="#m6d6903b4cd" x="54.691875" y="346.371857" style="fill: #555555; stroke: #555555; stroke-width: 0.8"/>
      </g>
     </g>
     <g id="text_16">
      <!-- 200k -->
      <g style="fill: #555555" transform="translate(22.81375 350.171076)scale(0.1 -0.1)">
       <use xlink:href="#DejaVuSans-32"/>
       <use xlink:href="#DejaVuSans-30" x="63.623047"/>
       <use xlink:href="#DejaVuSans-30" x="127.246094"/>
       <use xlink:href="#DejaVuSans-6b" x="190.869141"/>
      </g>
     </g>
    </g>
    <g id="ytick_4">
     <g id="line2d_31">
      <path d="M 54.691875 235.686911 
L 957.535875 235.686911 
" clip-path="url(#p044985cf86)" style="fill: none; stroke: #ffffff; stroke-width: 0.8; stroke-linecap: square"/>
     </g>
     <g id="line2d_32">
      <g>
       <use xlink:href="#m6d6903b4cd" x="54.691875" y="235.686911" style="fill: #555555; stroke: #555555; stroke-width: 0.8"/>
      </g>
     </g>
     <g id="text_17">
      <!-- 300k -->
      <g style="fill: #555555" transform="translate(22.81375 239.486129)scale(0.1 -0.1)">
       <use xlink:href="#DejaVuSans-33"/>
       <use xlink:href="#DejaVuSans-30" x="63.623047"/>
       <use xlink:href="#DejaVuSans-30" x="127.246094"/>
       <use xlink:href="#DejaVuSans-6b" x="190.869141"/>
      </g>
     </g>
    </g>
    <g id="ytick_5">
     <g id="line2d_33">
      <path d="M 54.691875 125.001964 
L 957.535875 125.001964 
" clip-path="url(#p044985cf86)" style="fill: none; stroke: #ffffff; stroke-width: 0.8; stroke-linecap: square"/>
     </g>
     <g id="line2d_34">
      <g>
       <use xlink:href="#m6d6903b4cd" x="54.691875" y="125.001964" style="fill: #555555; stroke: #555555; stroke-width: 0.8"/>
      </g>
     </g>
     <g id="text_18">
      <!-- 400k -->
      <g style="fill: #555555" transform="translate(22.81375 128.801183)scale(0.1 -0.1)">
       <use xlink:href="#DejaVuSans-34"/>
       <use xlink:href="#DejaVuSans-30" x="63.623047"/>
       <use xlink:href="#DejaVuSans-30" x="127.246094"/>
       <use xlink:href="#DejaVuSans-6b" x="190.869141"/>
      </g>
     </g>
    </g>
    <g id="text_19">
     <!-- Instances -->
     <g style="fill: #555555" transform="translate(16.318125 324.588)rotate(-90)scale(0.12 -0.12)">
      <defs>
       <path id="DejaVuSans-49" d="M 628 4666 
L 1259 4666 
L 1259 0 
L 628 0 
L 628 4666 
z
" transform="scale(0.015625)"/>
       <path id="DejaVuSans-6e" d="M 3513 2113 
L 3513 0 
L 2938 0 
L 2938 2094 
Q 2938 2591 2744 2837 
Q 2550 3084 2163 3084 
Q 1697 3084 1428 2787 
Q 1159 2491 1159 1978 
L 1159 0 
L 581 0 
L 581 3500 
L 1159 3500 
L 1159 2956 
Q 1366 3272 1645 3428 
Q 1925 3584 2291 3584 
Q 2894 3584 3203 3211 
Q 3513 2838 3513 2113 
z
" transform="scale(0.015625)"/>
       <path id="DejaVuSans-73" d="M 2834 3397 
L 2834 2853 
Q 2591 2978 2328 3040 
Q 2066 3103 1784 3103 
Q 1356 3103 1142 2972 
Q 928 2841 928 2578 
Q 928 2378 1081 2264 
Q 1234 2150 1697 2047 
L 1894 2003 
Q 2506 1872 2764 1633 
Q 3022 1394 3022 966 
Q 3022 478 2636 193 
Q 2250 -91 1575 -91 
Q 1294 -91 989 -36 
Q 684 19 347 128 
L 347 722 
Q 666 556 975 473 
Q 1284 391 1588 391 
Q 1994 391 2212 530 
Q 2431 669 2431 922 
Q 2431 1156 2273 1281 
Q 2116 1406 1581 1522 
L 1381 1569 
Q 847 1681 609 1914 
Q 372 2147 372 2553 
Q 372 3047 722 3315 
Q 1072 3584 1716 3584 
Q 2034 3584 2315 3537 
Q 2597 3491 2834 3397 
z
" transform="scale(0.015625)"/>
       <path id="DejaVuSans-63" d="M 3122 3366 
L 3122 2828 
Q 2878 2963 2633 3030 
Q 2388 3097 2138 3097 
Q 1578 3097 1268 2742 
Q 959 2388 959 1747 
Q 959 1106 1268 751 
Q 1578 397 2138 397 
Q 2388 397 2633 464 
Q 2878 531 3122 666 
L 3122 134 
Q 2881 22 2623 -34 
Q 2366 -91 2075 -91 
Q 1284 -91 818 406 
Q 353 903 353 1747 
Q 353 2603 823 3093 
Q 1294 3584 2113 3584 
Q 2378 3584 2631 3529 
Q 2884 3475 3122 3366 
z
" transform="scale(0.015625)"/>
      </defs>
      <use xlink:href="#DejaVuSans-49"/>
      <use xlink:href="#DejaVuSans-6e" x="29.492188"/>
      <use xlink:href="#DejaVuSans-73" x="92.871094"/>
      <use xlink:href="#DejaVuSans-74" x="144.970703"/>
      <use xlink:href="#DejaVuSans-61" x="184.179688"/>
      <use xlink:href="#DejaVuSans-6e" x="245.458984"/>
      <use xlink:href="#DejaVuSans-63" x="308.837891"/>
      <use xlink:href="#DejaVuSans-65" x="363.818359"/>
      <use xlink:href="#DejaVuSans-73" x="425.341797"/>
     </g>
    </g>
   </g>
   <g id="line2d_35">
    <path d="M 54.691875 421.378289 
L 63.811511 419.52082 
L 72.931148 417.66335 
L 82.050784 415.805881 
L 91.17042 413.948411 
L 100.290057 412.090941 
L 109.409693 410.233472 
L 118.52933 408.376002 
L 127.648966 406.518532 
L 136.768602 404.661063 
L 145.888239 402.803593 
L 155.007875 400.946124 
L 164.127511 399.088654 
L 173.247148 397.231184 
L 182.366784 395.373715 
L 191.48642 393.516245 
L 200.606057 391.658776 
L 209.725693 389.801306 
L 218.84533 387.943836 
L 227.964966 386.086367 
L 237.084602 384.228897 
L 246.204239 382.371428 
L 255.323875 380.513958 
L 264.443511 378.656488 
L 273.563148 376.799019 
L 282.682784 374.941549 
L 291.80242 373.084079 
L 300.922057 371.22661 
L 310.041693 369.36914 
L 319.16133 367.511671 
L 328.280966 365.654201 
L 337.400602 363.796731 
L 346.520239 361.939262 
L 355.639875 360.081792 
L 364.759511 358.224323 
L 373.879148 356.366853 
L 382.998784 354.509383 
L 392.11842 352.651914 
L 401.238057 350.794444 
L 410.357693 348.936975 
L 419.47733 347.079505 
L 428.596966 345.222035 
L 437.716602 343.364566 
L 446.836239 341.507096 
L 455.955875 339.649626 
L 465.075511 337.792157 
L 474.195148 335.934687 
L 483.314784 334.077218 
L 492.43442 332.219748 
L 501.554057 330.362278 
L 510.673693 328.504809 
L 519.79333 326.647339 
L 528.912966 324.78987 
L 538.032602 322.9324 
L 547.152239 321.07493 
L 556.271875 319.217461 
L 565.391511 317.359991 
L 574.511148 315.502522 
L 583.630784 313.645052 
L 592.75042 311.787582 
L 601.870057 309.930113 
L 610.989693 308.072643 
L 620.10933 306.215173 
L 629.228966 304.357704 
L 638.348602 302.500234 
L 647.468239 300.642765 
L 656.587875 298.785295 
L 665.707511 296.927825 
L 674.827148 295.070356 
L 683.946784 293.212886 
L 693.06642 291.355417 
L 702.186057 289.497947 
L 711.305693 287.640477 
L 720.42533 285.783008 
L 729.544966 283.925538 
L 738.664602 282.068069 
L 747.784239 280.210599 
L 756.903875 278.353129 
L 766.023511 276.49566 
L 775.143148 274.63819 
L 784.262784 272.78072 
L 793.38242 270.923251 
L 802.502057 269.065781 
L 811.621693 267.208312 
L 820.74133 265.350842 
L 829.860966 263.493372 
L 838.980602 261.635903 
L 848.100239 259.778433 
L 857.219875 257.920964 
L 866.339511 256.063494 
L 875.459148 254.206024 
L 884.578784 252.348555 
L 893.69842 250.491085 
L 902.818057 248.633616 
L 911.937693 246.776146 
L 921.05733 244.918676 
L 930.176966 243.061207 
L 939.296602 241.203737 
L 948.416239 239.346267 
L 957.535875 237.488798 
" clip-path="url(#p044985cf86)" style="fill: none; stroke-dasharray: 1.5,2.475; stroke-dashoffset: 0; stroke: #4ac1fa; stroke-width: 1.5"/>
   </g>
   <g id="line2d_36">
    <path d="M 54.691875 301.151478 
L 63.811511 300.78041 
L 72.931148 300.409342 
L 82.050784 300.038275 
L 91.17042 299.667207 
L 100.290057 299.296139 
L 109.409693 298.925071 
L 118.52933 298.554003 
L 127.648966 298.182936 
L 136.768602 297.811868 
L 145.888239 297.4408 
L 155.007875 297.069732 
L 164.127511 296.698664 
L 173.247148 296.327597 
L 182.366784 295.956529 
L 191.48642 295.585461 
L 200.606057 295.214393 
L 209.725693 294.843326 
L 218.84533 294.472258 
L 227.964966 294.10119 
L 237.084602 293.730122 
L 246.204239 293.359054 
L 255.323875 292.987987 
L 264.443511 292.616919 
L 273.563148 292.245851 
L 282.682784 291.874783 
L 291.80242 291.503716 
L 300.922057 291.132648 
L 310.041693 290.76158 
L 319.16133 290.390512 
L 328.280966 290.019444 
L 337.400602 289.648377 
L 346.520239 289.277309 
L 355.639875 288.906241 
L 364.759511 288.535173 
L 373.879148 288.164106 
L 382.998784 287.793038 
L 392.11842 287.42197 
L 401.238057 287.050902 
L 410.357693 286.679834 
L 419.47733 286.308767 
L 428.596966 285.937699 
L 437.716602 285.566631 
L 446.836239 285.195563 
L 455.955875 284.824496 
L 465.075511 284.453428 
L 474.195148 284.08236 
L 483.314784 283.711292 
L 492.43442 283.340224 
L 501.554057 282.969157 
L 510.673693 282.598089 
L 519.79333 282.227021 
L 528.912966 281.855953 
L 538.032602 281.484885 
L 547.152239 281.113818 
L 556.271875 280.74275 
L 565.391511 280.371682 
L 574.511148 280.000614 
L 583.630784 279.629547 
L 592.75042 279.258479 
L 601.870057 278.887411 
L 610.989693 278.516343 
L 620.10933 278.145275 
L 629.228966 277.774208 
L 638.348602 277.40314 
L 647.468239 277.032072 
L 656.587875 276.661004 
L 665.707511 276.289937 
L 674.827148 275.918869 
L 683.946784 275.547801 
L 693.06642 275.176733 
L 702.186057 274.805665 
L 711.305693 274.434598 
L 720.42533 274.06353 
L 729.544966 273.692462 
L 738.664602 273.321394 
L 747.784239 272.950327 
L 756.903875 272.579259 
L 766.023511 272.208191 
L 775.143148 271.837123 
L 784.262784 271.466055 
L 793.38242 271.094988 
L 802.502057 270.72392 
L 811.621693 270.352852 
L 820.74133 269.981784 
L 829.860966 269.610716 
L 838.980602 269.239649 
L 848.100239 268.868581 
L 857.219875 268.497513 
L 866.339511 268.126445 
L 875.459148 267.755378 
L 884.578784 267.38431 
L 893.69842 267.013242 
L 902.818057 266.642174 
L 911.937693 266.271106 
L 921.05733 265.900039 
L 930.176966 265.528971 
L 939.296602 265.157903 
L 948.416239 264.786835 
L 957.535875 264.415768 
" clip-path="url(#p044985cf86)" style="fill: none; stroke-dasharray: 1.5,2.475; stroke-dashoffset: 0; stroke: #9a5689; stroke-width: 1.5"/>
   </g>
   <g id="line2d_37">
    <path d="M 54.691875 518.600864 
L 63.811511 518.289752 
L 72.931148 517.978639 
L 82.050784 517.667527 
L 91.17042 517.356414 
L 100.290057 517.045302 
L 109.409693 516.734189 
L 118.52933 516.423077 
L 127.648966 516.111965 
L 136.768602 515.800852 
L 145.888239 515.48974 
L 155.007875 515.178627 
L 164.127511 514.867515 
L 173.247148 514.556402 
L 182.366784 514.24529 
L 191.48642 513.934178 
L 200.606057 513.623065 
L 209.725693 513.311953 
L 218.84533 513.00084 
L 227.964966 512.689728 
L 237.084602 512.378616 
L 246.204239 512.067503 
L 255.323875 511.756391 
L 264.443511 511.445278 
L 273.563148 511.134166 
L 282.682784 510.823053 
L 291.80242 510.511941 
L 300.922057 510.200829 
L 310.041693 509.889716 
L 319.16133 509.578604 
L 328.280966 509.267491 
L 337.400602 508.956379 
L 346.520239 508.645266 
L 355.639875 508.334154 
L 364.759511 508.023042 
L 373.879148 507.711929 
L 382.998784 507.400817 
L 392.11842 507.089704 
L 401.238057 506.778592 
L 410.357693 506.467479 
L 419.47733 506.156367 
L 428.596966 505.845255 
L 437.716602 505.534142 
L 446.836239 505.22303 
L 455.955875 504.911917 
L 465.075511 504.600805 
L 474.195148 504.289692 
L 483.314784 503.97858 
L 492.43442 503.667468 
L 501.554057 503.356355 
L 510.673693 503.045243 
L 519.79333 502.73413 
L 528.912966 502.423018 
L 538.032602 502.111905 
L 547.152239 501.800793 
L 556.271875 501.489681 
L 565.391511 501.178568 
L 574.511148 500.867456 
L 583.630784 500.556343 
L 592.75042 500.245231 
L 601.870057 499.934119 
L 610.989693 499.623006 
L 620.10933 499.311894 
L 629.228966 499.000781 
L 638.348602 498.689669 
L 647.468239 498.378556 
L 656.587875 498.067444 
L 665.707511 497.756332 
L 674.827148 497.445219 
L 683.946784 497.134107 
L 693.06642 496.822994 
L 702.186057 496.511882 
L 711.305693 496.200769 
L 720.42533 495.889657 
L 729.544966 495.578545 
L 738.664602 495.267432 
L 747.784239 494.95632 
L 756.903875 494.645207 
L 766.023511 494.334095 
L 775.143148 494.022982 
L 784.262784 493.71187 
L 793.38242 493.400758 
L 802.502057 493.089645 
L 811.621693 492.778533 
L 820.74133 492.46742 
L 829.860966 492.156308 
L 838.980602 491.845195 
L 848.100239 491.534083 
L 857.219875 491.222971 
L 866.339511 490.911858 
L 875.459148 490.600746 
L 884.578784 490.289633 
L 893.69842 489.978521 
L 902.818057 489.667408 
L 911.937693 489.356296 
L 921.05733 489.045184 
L 930.176966 488.734071 
L 939.296602 488.422959 
L 948.416239 488.111846 
L 957.535875 487.800734 
" clip-path="url(#p044985cf86)" style="fill: none; stroke-dasharray: 1.5,2.475; stroke-dashoffset: 0; stroke: #be503b; stroke-width: 1.5"/>
   </g>
   <g id="line2d_38">
    <path d="M 54.691875 295.749438 
L 63.811511 294.019008 
L 72.931148 292.288578 
L 82.050784 290.558148 
L 91.17042 288.827718 
L 100.290057 287.097288 
L 109.409693 285.366858 
L 118.52933 283.636428 
L 127.648966 281.905998 
L 136.768602 280.175568 
L 145.888239 278.445138 
L 155.007875 276.714708 
L 164.127511 274.984278 
L 173.247148 273.253848 
L 182.366784 271.523418 
L 191.48642 269.792988 
L 200.606057 268.062558 
L 209.725693 266.332128 
L 218.84533 264.601698 
L 227.964966 262.871268 
L 237.084602 261.140838 
L 246.204239 259.410408 
L 255.323875 257.679978 
L 264.443511 255.949548 
L 273.563148 254.219118 
L 282.682784 252.488688 
L 291.80242 250.758258 
L 300.922057 249.027828 
L 310.041693 247.297398 
L 319.16133 245.566968 
L 328.280966 243.836538 
L 337.400602 242.106108 
L 346.520239 240.375679 
L 355.639875 238.645249 
L 364.759511 236.914819 
L 373.879148 235.184389 
L 382.998784 233.453959 
L 392.11842 231.723529 
L 401.238057 229.993099 
L 410.357693 228.262669 
L 419.47733 226.532239 
L 428.596966 224.801809 
L 437.716602 223.071379 
L 446.836239 221.340949 
L 455.955875 219.610519 
L 465.075511 217.880089 
L 474.195148 216.149659 
L 483.314784 214.419229 
L 492.43442 212.688799 
L 501.554057 210.958369 
L 510.673693 209.227939 
L 519.79333 207.497509 
L 528.912966 205.767079 
L 538.032602 204.036649 
L 547.152239 202.306219 
L 556.271875 200.575789 
L 565.391511 198.845359 
L 574.511148 197.114929 
L 583.630784 195.384499 
L 592.75042 193.654069 
L 601.870057 191.923639 
L 610.989693 190.193209 
L 620.10933 188.462779 
L 629.228966 186.732349 
L 638.348602 185.001919 
L 647.468239 183.271489 
L 656.587875 181.541059 
L 665.707511 179.810629 
L 674.827148 178.080199 
L 683.946784 176.349769 
L 693.06642 174.619339 
L 702.186057 172.888909 
L 711.305693 171.15848 
L 720.42533 169.42805 
L 729.544966 167.69762 
L 738.664602 165.96719 
L 747.784239 164.23676 
L 756.903875 162.50633 
L 766.023511 160.7759 
L 775.143148 159.04547 
L 784.262784 157.31504 
L 793.38242 155.58461 
L 802.502057 153.85418 
L 811.621693 152.12375 
L 820.74133 150.39332 
L 829.860966 148.66289 
L 838.980602 146.93246 
L 848.100239 145.20203 
L 857.219875 143.4716 
L 866.339511 141.74117 
L 875.459148 140.01074 
L 884.578784 138.28031 
L 893.69842 136.54988 
L 902.818057 134.81945 
L 911.937693 133.08902 
L 921.05733 131.35859 
L 930.176966 129.62816 
L 939.296602 127.89773 
L 948.416239 126.1673 
L 957.535875 124.43687 
" clip-path="url(#p044985cf86)" style="fill: none; stroke-dasharray: 1.5,2.475; stroke-dashoffset: 0; stroke: #e2321d; stroke-width: 1.5"/>
   </g>
   <g id="line2d_39">
    <path d="M 54.691875 299.370428 
L 63.811511 297.059245 
L 72.931148 294.748061 
L 82.050784 292.436878 
L 91.17042 290.125694 
L 100.290057 287.814511 
L 109.409693 285.503327 
L 118.52933 283.192144 
L 127.648966 280.88096 
L 136.768602 278.569777 
L 145.888239 276.258593 
L 155.007875 273.94741 
L 164.127511 271.636226 
L 173.247148 269.325043 
L 182.366784 267.013859 
L 191.48642 264.702676 
L 200.606057 262.391492 
L 209.725693 260.080309 
L 218.84533 257.769125 
L 227.964966 255.457942 
L 237.084602 253.146758 
L 246.204239 250.835575 
L 255.323875 248.524391 
L 264.443511 246.213208 
L 273.563148 243.902024 
L 282.682784 241.590841 
L 291.80242 239.279657 
L 300.922057 236.968474 
L 310.041693 234.65729 
L 319.16133 232.346107 
L 328.280966 230.034923 
L 337.400602 227.72374 
L 346.520239 225.412556 
L 355.639875 223.101373 
L 364.759511 220.790189 
L 373.879148 218.479006 
L 382.998784 216.167822 
L 392.11842 213.856639 
L 401.238057 211.545455 
L 410.357693 209.234272 
L 419.47733 206.923088 
L 428.596966 204.611905 
L 437.716602 202.300721 
L 446.836239 199.989538 
L 455.955875 197.678354 
L 465.075511 195.367171 
L 474.195148 193.055987 
L 483.314784 190.744804 
L 492.43442 188.43362 
L 501.554057 186.122437 
L 510.673693 183.811253 
L 519.79333 181.50007 
L 528.912966 179.188886 
L 538.032602 176.877703 
L 547.152239 174.566519 
L 556.271875 172.255336 
L 565.391511 169.944152 
L 574.511148 167.632969 
L 583.630784 165.321785 
L 592.75042 163.010602 
L 601.870057 160.699419 
L 610.989693 158.388235 
L 620.10933 156.077052 
L 629.228966 153.765868 
L 638.348602 151.454685 
L 647.468239 149.143501 
L 656.587875 146.832318 
L 665.707511 144.521134 
L 674.827148 142.209951 
L 683.946784 139.898767 
L 693.06642 137.587584 
L 702.186057 135.2764 
L 711.305693 132.965217 
L 720.42533 130.654033 
L 729.544966 128.34285 
L 738.664602 126.031666 
L 747.784239 123.720483 
L 756.903875 121.409299 
L 766.023511 119.098116 
L 775.143148 116.786932 
L 784.262784 114.475749 
L 793.38242 112.164565 
L 802.502057 109.853382 
L 811.621693 107.542198 
L 820.74133 105.231015 
L 829.860966 102.919831 
L 838.980602 100.608648 
L 848.100239 98.297464 
L 857.219875 95.986281 
L 866.339511 93.675097 
L 875.459148 91.363914 
L 884.578784 89.05273 
L 893.69842 86.741547 
L 902.818057 84.430363 
L 911.937693 82.11918 
L 921.05733 79.807996 
L 930.176966 77.496813 
L 939.296602 75.185629 
L 948.416239 72.874446 
L 957.535875 70.563262 
" clip-path="url(#p044985cf86)" style="fill: none; stroke-dasharray: 1.5,2.475; stroke-dashoffset: 0; stroke: #48b585; stroke-width: 1.5"/>
   </g>
   <g id="line2d_40">
    <path d="M 54.691875 414.881412 
L 72.394699 414.468557 
L 90.097522 411.894025 
L 107.800346 410.699734 
L 125.503169 410.011274 
L 143.205993 410.221575 
L 160.908816 394.788773 
L 178.61164 397.012434 
L 196.314463 384.595796 
L 214.017287 380.646558 
L 231.72011 375.73436 
L 249.422934 384.604651 
L 267.125757 369.977636 
L 284.828581 369.990918 
L 302.531404 367.390928 
L 320.234228 366.777734 
L 337.937051 371.202918 
L 355.639875 363.688517 
L 373.342699 365.18055 
L 391.045522 360.810708 
L 408.748346 347.508591 
L 426.451169 344.759177 
L 444.153993 341.64561 
L 461.856816 339.447407 
L 479.55964 335.868962 
L 497.262463 338.046135 
L 514.965287 331.090693 
L 532.66811 326.058956 
L 550.370934 323.799876 
L 568.073757 319.476522 
L 585.776581 318.346429 
L 603.479404 322.271317 
L 621.182228 307.446175 
L 638.885051 308.427951 
L 691.993522 294.948738 
L 709.696346 316.750352 
L 727.399169 296.831489 
L 745.101993 275.201436 
L 762.804816 271.70822 
L 780.50764 272.45645 
L 798.210463 257.008152 
L 815.913287 258.587626 
L 833.61611 252.184502 
L 851.318934 251.737335 
L 869.021757 247.268983 
L 886.724581 243.772446 
L 904.427404 241.847635 
L 922.130228 244.309268 
L 939.833051 247.374134 
L 957.535875 235.819732 
" clip-path="url(#p044985cf86)" style="fill: none; stroke: #4ac1fa; stroke-width: 1.5; stroke-linecap: square"/>
   </g>
   <g id="line2d_41">
    <path d="M 54.691875 340.030716 
L 72.394699 347.245161 
L 90.097522 349.496493 
L 107.800346 325.471219 
L 125.503169 322.974166 
L 143.205993 312.860883 
L 160.908816 307.339918 
L 178.61164 285.869252 
L 196.314463 265.742301 
L 214.017287 270.990981 
L 231.72011 277.203727 
L 249.422934 280.109207 
L 267.125757 271.980504 
L 284.828581 279.07541 
L 302.531404 272.724307 
L 320.234228 281.990851 
L 337.937051 291.060376 
L 355.639875 273.960658 
L 373.342699 277.163881 
L 391.045522 280.342752 
L 408.748346 260.587703 
L 426.451169 253.449631 
L 444.153993 245.699471 
L 461.856816 253.517149 
L 479.55964 245.223526 
L 497.262463 267.145786 
L 514.965287 275.660779 
L 532.66811 275.959628 
L 550.370934 288.180353 
L 568.073757 285.926808 
L 585.776581 293.481055 
L 603.479404 308.243107 
L 621.182228 296.440771 
L 638.885051 294.007916 
L 691.993522 290.949691 
L 709.696346 304.781988 
L 727.399169 271.783485 
L 745.101993 226.247698 
L 762.804816 279.801503 
L 780.50764 285.381131 
L 798.210463 273.395058 
L 815.913287 280.187793 
L 833.61611 277.348724 
L 851.318934 274.674576 
L 869.021757 276.93919 
L 886.724581 277.756045 
L 904.427404 282.088254 
L 922.130228 270.199584 
L 939.833051 263.29727 
L 957.535875 260.158245 
" clip-path="url(#p044985cf86)" style="fill: none; stroke: #9a5689; stroke-width: 1.5; stroke-linecap: square"/>
   </g>
   <g id="line2d_42">
    <path d="M 54.691875 517.497425 
L 72.394699 517.454258 
L 90.097522 516.742554 
L 107.800346 516.180275 
L 125.503169 516.275464 
L 143.205993 516.06959 
L 160.908816 513.281436 
L 178.61164 515.367847 
L 196.314463 514.19348 
L 214.017287 512.596296 
L 231.72011 511.663222 
L 249.422934 512.602937 
L 267.125757 511.886805 
L 284.828581 511.993063 
L 302.531404 510.232066 
L 320.234228 509.665359 
L 337.937051 510.937129 
L 355.639875 507.608832 
L 373.342699 511.534827 
L 391.045522 510.734575 
L 408.748346 506.006114 
L 426.451169 504.881555 
L 444.153993 504.83064 
L 461.856816 503.213533 
L 479.55964 503.084032 
L 497.262463 502.701062 
L 514.965287 501.961686 
L 532.66811 499.721423 
L 550.370934 501.014223 
L 568.073757 499.367231 
L 585.776581 500.792853 
L 603.479404 503.020941 
L 621.182228 499.745774 
L 638.885051 498.407593 
L 691.993522 496.348853 
L 709.696346 498.966552 
L 727.399169 495.050518 
L 745.101993 494.805905 
L 762.804816 494.874529 
L 780.50764 495.768864 
L 798.210463 491.382419 
L 815.913287 493.338222 
L 833.61611 491.474288 
L 851.318934 490.182594 
L 869.021757 491.092425 
L 886.724581 490.449345 
L 904.427404 489.439898 
L 922.130228 488.576556 
L 939.833051 487.91798 
L 957.535875 487.975536 
" clip-path="url(#p044985cf86)" style="fill: none; stroke: #be503b; stroke-width: 1.5; stroke-linecap: square"/>
   </g>
   <g id="line2d_43">
    <path d="M 54.691875 321.999032 
L 72.394699 364.236407 
L 90.097522 237.655996 
L 107.800346 291.002819 
L 125.503169 286.898622 
L 143.205993 285.505098 
L 160.908816 266.932164 
L 178.61164 281.794939 
L 196.314463 262.671901 
L 214.017287 281.322314 
L 231.72011 241.517794 
L 249.422934 268.759573 
L 267.125757 253.704206 
L 284.828581 259.242881 
L 302.531404 245.791339 
L 320.234228 250.879526 
L 337.937051 282.298555 
L 355.639875 252.968151 
L 373.342699 255.607987 
L 391.045522 238.569147 
L 408.748346 193.03668 
L 426.451169 194.524286 
L 444.153993 186.076811 
L 461.856816 184.800613 
L 479.55964 177.869522 
L 497.262463 187.181446 
L 514.965287 188.949085 
L 532.66811 181.167933 
L 550.370934 189.0808 
L 568.073757 183.51224 
L 585.776581 216.055828 
L 603.479404 201.02592 
L 621.182228 174.394015 
L 638.885051 171.624677 
L 691.993522 167.944403 
L 709.696346 192.924888 
L 727.399169 207.541942 
L 745.101993 156.602516 
L 762.804816 155.142582 
L 780.50764 165.637728 
L 798.210463 186.7376 
L 815.913287 189.601019 
L 833.61611 136.954831 
L 851.318934 132.634798 
L 869.021757 116.750401 
L 886.724581 118.006675 
L 904.427404 166.398134 
L 922.130228 124.692046 
L 939.833051 135.790426 
L 957.535875 153.102658 
" clip-path="url(#p044985cf86)" style="fill: none; stroke: #e2321d; stroke-width: 1.5; stroke-linecap: square"/>
   </g>
   <g id="line2d_44">
    <path d="M 54.691875 313.021376 
L 72.394699 309.57686 
L 90.097522 288.014326 
L 107.800346 280.37153 
L 125.503169 287.045833 
L 143.205993 284.486797 
L 160.908816 262.873347 
L 178.61164 257.766344 
L 196.314463 241.129289 
L 214.017287 224.536509 
L 231.72011 238.699755 
L 249.422934 252.172326 
L 267.125757 250.224271 
L 284.828581 248.614912 
L 302.531404 232.966275 
L 320.234228 226.945013 
L 337.937051 237.331689 
L 355.639875 224.286361 
L 373.342699 238.465103 
L 391.045522 231.58382 
L 408.748346 195.311256 
L 426.451169 190.785348 
L 444.153993 202.812375 
L 461.856816 205.182139 
L 479.55964 179.1103 
L 497.262463 176.534661 
L 514.965287 175.110146 
L 532.66811 165.793794 
L 550.370934 183.494531 
L 568.073757 170.880874 
L 585.776581 179.719067 
L 603.479404 193.366521 
L 621.182228 167.303537 
L 638.885051 152.692017 
L 691.993522 149.899436 
L 709.696346 152.203897 
L 727.399169 131.698403 
L 745.101993 130.796321 
L 762.804816 127.158107 
L 780.50764 138.466788 
L 798.210463 100.713259 
L 815.913287 91.87728 
L 833.61611 96.375516 
L 851.318934 110.540976 
L 869.021757 86.238989 
L 886.724581 92.317806 
L 904.427404 81.873575 
L 922.130228 69.970516 
L 939.833051 53.071138 
L 957.535875 47.687422 
" clip-path="url(#p044985cf86)" style="fill: none; stroke: #48b585; stroke-width: 6; stroke-linecap: square"/>
   </g>
   <g id="patch_3">
    <path d="M 54.691875 567.74175 
L 54.691875 24.14175 
" style="fill: none; stroke: #ffffff; stroke-linejoin: miter; stroke-linecap: square"/>
   </g>
   <g id="patch_4">
    <path d="M 957.535875 567.74175 
L 957.535875 24.14175 
" style="fill: none; stroke: #ffffff; stroke-linejoin: miter; stroke-linecap: square"/>
   </g>
   <g id="patch_5">
    <path d="M 54.691875 567.74175 
L 957.535875 567.74175 
" style="fill: none; stroke: #ffffff; stroke-linejoin: miter; stroke-linecap: square"/>
   </g>
   <g id="patch_6">
    <path d="M 54.691875 24.14175 
L 957.535875 24.14175 
" style="fill: none; stroke: #ffffff; stroke-linejoin: miter; stroke-linecap: square"/>
   </g>
   <g id="text_20">
    <!-- Enterprise Linux 8 and 9 Instances by Distribution (System Age &gt; 1 Week) -->
    <g transform="translate(237.565125 18.14175)scale(0.144 -0.144)">
     <defs>
      <path id="DejaVuSans-45" d="M 628 4666 
L 3578 4666 
L 3578 4134 
L 1259 4134 
L 1259 2753 
L 3481 2753 
L 3481 2222 
L 1259 2222 
L 1259 531 
L 3634 531 
L 3634 0 
L 628 0 
L 628 4666 
z
" transform="scale(0.015625)"/>
      <path id="DejaVuSans-72" d="M 2631 2963 
Q 2534 3019 2420 3045 
Q 2306 3072 2169 3072 
Q 1681 3072 1420 2755 
Q 1159 2438 1159 1844 
L 1159 0 
L 581 0 
L 581 3500 
L 1159 3500 
L 1159 2956 
Q 1341 3275 1631 3429 
Q 1922 3584 2338 3584 
Q 2397 3584 2469 3576 
Q 2541 3569 2628 3553 
L 2631 2963 
z
" transform="scale(0.015625)"/>
      <path id="DejaVuSans-70" d="M 1159 525 
L 1159 -1331 
L 581 -1331 
L 581 3500 
L 1159 3500 
L 1159 2969 
Q 1341 3281 1617 3432 
Q 1894 3584 2278 3584 
Q 2916 3584 3314 3078 
Q 3713 2572 3713 1747 
Q 3713 922 3314 415 
Q 2916 -91 2278 -91 
Q 1894 -91 1617 61 
Q 1341 213 1159 525 
z
M 3116 1747 
Q 3116 2381 2855 2742 
Q 2594 3103 2138 3103 
Q 1681 3103 1420 2742 
Q 1159 2381 1159 1747 
Q 1159 1113 1420 752 
Q 1681 391 2138 391 
Q 2594 391 2855 752 
Q 3116 1113 3116 1747 
z
" transform="scale(0.015625)"/>
      <path id="DejaVuSans-69" d="M 603 3500 
L 1178 3500 
L 1178 0 
L 603 0 
L 603 3500 
z
M 603 4863 
L 1178 4863 
L 1178 4134 
L 603 4134 
L 603 4863 
z
" transform="scale(0.015625)"/>
      <path id="DejaVuSans-20" transform="scale(0.015625)"/>
      <path id="DejaVuSans-4c" d="M 628 4666 
L 1259 4666 
L 1259 531 
L 3531 531 
L 3531 0 
L 628 0 
L 628 4666 
z
" transform="scale(0.015625)"/>
      <path id="DejaVuSans-75" d="M 544 1381 
L 544 3500 
L 1119 3500 
L 1119 1403 
Q 1119 906 1312 657 
Q 1506 409 1894 409 
Q 2359 409 2629 706 
Q 2900 1003 2900 1516 
L 2900 3500 
L 3475 3500 
L 3475 0 
L 2900 0 
L 2900 538 
Q 2691 219 2414 64 
Q 2138 -91 1772 -91 
Q 1169 -91 856 284 
Q 544 659 544 1381 
z
M 1991 3584 
L 1991 3584 
z
" transform="scale(0.015625)"/>
      <path id="DejaVuSans-78" d="M 3513 3500 
L 2247 1797 
L 3578 0 
L 2900 0 
L 1881 1375 
L 863 0 
L 184 0 
L 1544 1831 
L 300 3500 
L 978 3500 
L 1906 2253 
L 2834 3500 
L 3513 3500 
z
" transform="scale(0.015625)"/>
      <path id="DejaVuSans-64" d="M 2906 2969 
L 2906 4863 
L 3481 4863 
L 3481 0 
L 2906 0 
L 2906 525 
Q 2725 213 2448 61 
Q 2172 -91 1784 -91 
Q 1150 -91 751 415 
Q 353 922 353 1747 
Q 353 2572 751 3078 
Q 1150 3584 1784 3584 
Q 2172 3584 2448 3432 
Q 2725 3281 2906 2969 
z
M 947 1747 
Q 947 1113 1208 752 
Q 1469 391 1925 391 
Q 2381 391 2643 752 
Q 2906 1113 2906 1747 
Q 2906 2381 2643 2742 
Q 2381 3103 1925 3103 
Q 1469 3103 1208 2742 
Q 947 2381 947 1747 
z
" transform="scale(0.015625)"/>
      <path id="DejaVuSans-62" d="M 3116 1747 
Q 3116 2381 2855 2742 
Q 2594 3103 2138 3103 
Q 1681 3103 1420 2742 
Q 1159 2381 1159 1747 
Q 1159 1113 1420 752 
Q 1681 391 2138 391 
Q 2594 391 2855 752 
Q 3116 1113 3116 1747 
z
M 1159 2969 
Q 1341 3281 1617 3432 
Q 1894 3584 2278 3584 
Q 2916 3584 3314 3078 
Q 3713 2572 3713 1747 
Q 3713 922 3314 415 
Q 2916 -91 2278 -91 
Q 1894 -91 1617 61 
Q 1341 213 1159 525 
L 1159 0 
L 581 0 
L 581 4863 
L 1159 4863 
L 1159 2969 
z
" transform="scale(0.015625)"/>
      <path id="DejaVuSans-79" d="M 2059 -325 
Q 1816 -950 1584 -1140 
Q 1353 -1331 966 -1331 
L 506 -1331 
L 506 -850 
L 844 -850 
Q 1081 -850 1212 -737 
Q 1344 -625 1503 -206 
L 1606 56 
L 191 3500 
L 800 3500 
L 1894 763 
L 2988 3500 
L 3597 3500 
L 2059 -325 
z
" transform="scale(0.015625)"/>
      <path id="DejaVuSans-6f" d="M 1959 3097 
Q 1497 3097 1228 2736 
Q 959 2375 959 1747 
Q 959 1119 1226 758 
Q 1494 397 1959 397 
Q 2419 397 2687 759 
Q 2956 1122 2956 1747 
Q 2956 2369 2687 2733 
Q 2419 3097 1959 3097 
z
M 1959 3584 
Q 2709 3584 3137 3096 
Q 3566 2609 3566 1747 
Q 3566 888 3137 398 
Q 2709 -91 1959 -91 
Q 1206 -91 779 398 
Q 353 888 353 1747 
Q 353 2609 779 3096 
Q 1206 3584 1959 3584 
z
" transform="scale(0.015625)"/>
      <path id="DejaVuSans-28" d="M 1984 4856 
Q 1566 4138 1362 3434 
Q 1159 2731 1159 2009 
Q 1159 1288 1364 580 
Q 1569 -128 1984 -844 
L 1484 -844 
Q 1016 -109 783 600 
Q 550 1309 550 2009 
Q 550 2706 781 3412 
Q 1013 4119 1484 4856 
L 1984 4856 
z
" transform="scale(0.015625)"/>
      <path id="DejaVuSans-53" d="M 3425 4513 
L 3425 3897 
Q 3066 4069 2747 4153 
Q 2428 4238 2131 4238 
Q 1616 4238 1336 4038 
Q 1056 3838 1056 3469 
Q 1056 3159 1242 3001 
Q 1428 2844 1947 2747 
L 2328 2669 
Q 3034 2534 3370 2195 
Q 3706 1856 3706 1288 
Q 3706 609 3251 259 
Q 2797 -91 1919 -91 
Q 1588 -91 1214 -16 
Q 841 59 441 206 
L 441 856 
Q 825 641 1194 531 
Q 1563 422 1919 422 
Q 2459 422 2753 634 
Q 3047 847 3047 1241 
Q 3047 1584 2836 1778 
Q 2625 1972 2144 2069 
L 1759 2144 
Q 1053 2284 737 2584 
Q 422 2884 422 3419 
Q 422 4038 858 4394 
Q 1294 4750 2059 4750 
Q 2388 4750 2728 4690 
Q 3069 4631 3425 4513 
z
" transform="scale(0.015625)"/>
      <path id="DejaVuSans-6d" d="M 3328 2828 
Q 3544 3216 3844 3400 
Q 4144 3584 4550 3584 
Q 5097 3584 5394 3201 
Q 5691 2819 5691 2113 
L 5691 0 
L 5113 0 
L 5113 2094 
Q 5113 2597 4934 2840 
Q 4756 3084 4391 3084 
Q 3944 3084 3684 2787 
Q 3425 2491 3425 1978 
L 3425 0 
L 2847 0 
L 2847 2094 
Q 2847 2600 2669 2842 
Q 2491 3084 2119 3084 
Q 1678 3084 1418 2786 
Q 1159 2488 1159 1978 
L 1159 0 
L 581 0 
L 581 3500 
L 1159 3500 
L 1159 2956 
Q 1356 3278 1631 3431 
Q 1906 3584 2284 3584 
Q 2666 3584 2933 3390 
Q 3200 3197 3328 2828 
z
" transform="scale(0.015625)"/>
      <path id="DejaVuSans-41" d="M 2188 4044 
L 1331 1722 
L 3047 1722 
L 2188 4044 
z
M 1831 4666 
L 2547 4666 
L 4325 0 
L 3669 0 
L 3244 1197 
L 1141 1197 
L 716 0 
L 50 0 
L 1831 4666 
z
" transform="scale(0.015625)"/>
      <path id="DejaVuSans-67" d="M 2906 1791 
Q 2906 2416 2648 2759 
Q 2391 3103 1925 3103 
Q 1463 3103 1205 2759 
Q 947 2416 947 1791 
Q 947 1169 1205 825 
Q 1463 481 1925 481 
Q 2391 481 2648 825 
Q 2906 1169 2906 1791 
z
M 3481 434 
Q 3481 -459 3084 -895 
Q 2688 -1331 1869 -1331 
Q 1566 -1331 1297 -1286 
Q 1028 -1241 775 -1147 
L 775 -588 
Q 1028 -725 1275 -790 
Q 1522 -856 1778 -856 
Q 2344 -856 2625 -561 
Q 2906 -266 2906 331 
L 2906 616 
Q 2728 306 2450 153 
Q 2172 0 1784 0 
Q 1141 0 747 490 
Q 353 981 353 1791 
Q 353 2603 747 3093 
Q 1141 3584 1784 3584 
Q 2172 3584 2450 3431 
Q 2728 3278 2906 2969 
L 2906 3500 
L 3481 3500 
L 3481 434 
z
" transform="scale(0.015625)"/>
      <path id="DejaVuSans-3e" d="M 678 3150 
L 678 3719 
L 4684 2266 
L 4684 1747 
L 678 294 
L 678 863 
L 3897 2003 
L 678 3150 
z
" transform="scale(0.015625)"/>
      <path id="DejaVuSans-57" d="M 213 4666 
L 850 4666 
L 1831 722 
L 2809 4666 
L 3519 4666 
L 4500 722 
L 5478 4666 
L 6119 4666 
L 4947 0 
L 4153 0 
L 3169 4050 
L 2175 0 
L 1381 0 
L 213 4666 
z
" transform="scale(0.015625)"/>
      <path id="DejaVuSans-29" d="M 513 4856 
L 1013 4856 
Q 1481 4119 1714 3412 
Q 1947 2706 1947 2009 
Q 1947 1309 1714 600 
Q 1481 -109 1013 -844 
L 513 -844 
Q 928 -128 1133 580 
Q 1338 1288 1338 2009 
Q 1338 2731 1133 3434 
Q 928 4138 513 4856 
z
" transform="scale(0.015625)"/>
     </defs>
     <use xlink:href="#DejaVuSans-45"/>
     <use xlink:href="#DejaVuSans-6e" x="63.183594"/>
     <use xlink:href="#DejaVuSans-74" x="126.5625"/>
     <use xlink:href="#DejaVuSans-65" x="165.771484"/>
     <use xlink:href="#DejaVuSans-72" x="227.294922"/>
     <use xlink:href="#DejaVuSans-70" x="268.408203"/>
     <use xlink:href="#DejaVuSans-72" x="331.884766"/>
     <use xlink:href="#DejaVuSans-69" x="372.998047"/>
     <use xlink:href="#DejaVuSans-73" x="400.78125"/>
     <use xlink:href="#DejaVuSans-65" x="452.880859"/>
     <use xlink:href="#DejaVuSans-20" x="514.404297"/>
     <use xlink:href="#DejaVuSans-4c" x="546.191406"/>
     <use xlink:href="#DejaVuSans-69" x="601.904297"/>
     <use xlink:href="#DejaVuSans-6e" x="629.6875"/>
     <use xlink:href="#DejaVuSans-75" x="693.066406"/>
     <use xlink:href="#DejaVuSans-78" x="756.445312"/>
     <use xlink:href="#DejaVuSans-20" x="815.625"/>
     <use xlink:href="#DejaVuSans-38" x="847.412109"/>
     <use xlink:href="#DejaVuSans-20" x="911.035156"/>
     <use xlink:href="#DejaVuSans-61" x="942.822266"/>
     <use xlink:href="#DejaVuSans-6e" x="1004.101562"/>
     <use xlink:href="#DejaVuSans-64" x="1067.480469"/>
     <use xlink:href="#DejaVuSans-20" x="1130.957031"/>
     <use xlink:href="#DejaVuSans-39" x="1162.744141"/>
     <use xlink:href="#DejaVuSans-20" x="1226.367188"/>
     <use xlink:href="#DejaVuSans-49" x="1258.154297"/>
     <use xlink:href="#DejaVuSans-6e" x="1287.646484"/>
     <use xlink:href="#DejaVuSans-73" x="1351.025391"/>
     <use xlink:href="#DejaVuSans-74" x="1403.125"/>
     <use xlink:href="#DejaVuSans-61" x="1442.333984"/>
     <use xlink:href="#DejaVuSans-6e" x="1503.613281"/>
     <use xlink:href="#DejaVuSans-63" x="1566.992188"/>
     <use xlink:href="#DejaVuSans-65" x="1621.972656"/>
     <use xlink:href="#DejaVuSans-73" x="1683.496094"/>
     <use xlink:href="#DejaVuSans-20" x="1735.595703"/>
     <use xlink:href="#DejaVuSans-62" x="1767.382812"/>
     <use xlink:href="#DejaVuSans-79" x="1830.859375"/>
     <use xlink:href="#DejaVuSans-20" x="1890.039062"/>
     <use xlink:href="#DejaVuSans-44" x="1921.826172"/>
     <use xlink:href="#DejaVuSans-69" x="1998.828125"/>
     <use xlink:href="#DejaVuSans-73" x="2026.611328"/>
     <use xlink:href="#DejaVuSans-74" x="2078.710938"/>
     <use xlink:href="#DejaVuSans-72" x="2117.919922"/>
     <use xlink:href="#DejaVuSans-69" x="2159.033203"/>
     <use xlink:href="#DejaVuSans-62" x="2186.816406"/>
     <use xlink:href="#DejaVuSans-75" x="2250.292969"/>
     <use xlink:href="#DejaVuSans-74" x="2313.671875"/>
     <use xlink:href="#DejaVuSans-69" x="2352.880859"/>
     <use xlink:href="#DejaVuSans-6f" x="2380.664062"/>
     <use xlink:href="#DejaVuSans-6e" x="2441.845703"/>
     <use xlink:href="#DejaVuSans-20" x="2505.224609"/>
     <use xlink:href="#DejaVuSans-28" x="2537.011719"/>
     <use xlink:href="#DejaVuSans-53" x="2576.025391"/>
     <use xlink:href="#DejaVuSans-79" x="2639.501953"/>
     <use xlink:href="#DejaVuSans-73" x="2698.681641"/>
     <use xlink:href="#DejaVuSans-74" x="2750.78125"/>
     <use xlink:href="#DejaVuSans-65" x="2789.990234"/>
     <use xlink:href="#DejaVuSans-6d" x="2851.513672"/>
     <use xlink:href="#DejaVuSans-20" x="2948.925781"/>
     <use xlink:href="#DejaVuSans-41" x="2980.712891"/>
     <use xlink:href="#DejaVuSans-67" x="3049.121094"/>
     <use xlink:href="#DejaVuSans-65" x="3112.597656"/>
     <use xlink:href="#DejaVuSans-20" x="3174.121094"/>
     <use xlink:href="#DejaVuSans-3e" x="3205.908203"/>
     <use xlink:href="#DejaVuSans-20" x="3289.697266"/>
     <use xlink:href="#DejaVuSans-31" x="3321.484375"/>
     <use xlink:href="#DejaVuSans-20" x="3385.107422"/>
     <use xlink:href="#DejaVuSans-57" x="3416.894531"/>
     <use xlink:href="#DejaVuSans-65" x="3509.896484"/>
     <use xlink:href="#DejaVuSans-65" x="3571.419922"/>
     <use xlink:href="#DejaVuSans-6b" x="3632.943359"/>
     <use xlink:href="#DejaVuSans-29" x="3690.853516"/>
    </g>
   </g>
   <g id="legend_1">
    <g id="patch_7">
     <path d="M 61.691875 120.2105 
L 170.660625 120.2105 
Q 172.660625 120.2105 172.660625 118.2105 
L 172.660625 31.14175 
Q 172.660625 29.14175 170.660625 29.14175 
L 61.691875 29.14175 
Q 59.691875 29.14175 59.691875 31.14175 
L 59.691875 118.2105 
Q 59.691875 120.2105 61.691875 120.2105 
z
" style="fill: #e5e5e5; opacity: 0.8; stroke: #cccccc; stroke-width: 0.5; stroke-linejoin: miter"/>
    </g>
    <g id="text_21">
     <!-- Distribution -->
     <g transform="translate(87.0075 40.740187)scale(0.1 -0.1)">
      <use xlink:href="#DejaVuSans-44"/>
      <use xlink:href="#DejaVuSans-69" x="77.001953"/>
      <use xlink:href="#DejaVuSans-73" x="104.785156"/>
      <use xlink:href="#DejaVuSans-74" x="156.884766"/>
      <use xlink:href="#DejaVuSans-72" x="196.09375"/>
      <use xlink:href="#DejaVuSans-69" x="237.207031"/>
      <use xlink:href="#DejaVuSans-62" x="264.990234"/>
      <use xlink:href="#DejaVuSans-75" x="328.466797"/>
      <use xlink:href="#DejaVuSans-74" x="391.845703"/>
      <use xlink:href="#DejaVuSans-69" x="431.054688"/>
      <use xlink:href="#DejaVuSans-6f" x="458.837891"/>
      <use xlink:href="#DejaVuSans-6e" x="520.019531"/>
     </g>
    </g>
    <g id="line2d_45">
     <path d="M 63.691875 51.918312 
L 73.691875 51.918312 
L 83.691875 51.918312 
" style="fill: none; stroke: #4ac1fa; stroke-width: 1.5; stroke-linecap: square"/>
    </g>
    <g id="text_22">
     <!-- AlmaLinux -->
     <g transform="translate(91.691875 55.418312)scale(0.1 -0.1)">
      <defs>
       <path id="DejaVuSans-6c" d="M 603 4863 
L 1178 4863 
L 1178 0 
L 603 0 
L 603 4863 
z
" transform="scale(0.015625)"/>
      </defs>
      <use xlink:href="#DejaVuSans-41"/>
      <use xlink:href="#DejaVuSans-6c" x="68.408203"/>
      <use xlink:href="#DejaVuSans-6d" x="96.191406"/>
      <use xlink:href="#DejaVuSans-61" x="193.603516"/>
      <use xlink:href="#DejaVuSans-4c" x="254.882812"/>
      <use xlink:href="#DejaVuSans-69" x="310.595703"/>
      <use xlink:href="#DejaVuSans-6e" x="338.378906"/>
      <use xlink:href="#DejaVuSans-75" x="401.757812"/>
      <use xlink:href="#DejaVuSans-78" x="465.136719"/>
     </g>
    </g>
    <g id="line2d_46">
     <path d="M 63.691875 66.596437 
L 73.691875 66.596437 
L 83.691875 66.596437 
" style="fill: none; stroke: #9a5689; stroke-width: 1.5; stroke-linecap: square"/>
    </g>
    <g id="text_23">
     <!-- CentOS Stream -->
     <g transform="translate(91.691875 70.096437)scale(0.1 -0.1)">
      <defs>
       <path id="DejaVuSans-43" d="M 4122 4306 
L 4122 3641 
Q 3803 3938 3442 4084 
Q 3081 4231 2675 4231 
Q 1875 4231 1450 3742 
Q 1025 3253 1025 2328 
Q 1025 1406 1450 917 
Q 1875 428 2675 428 
Q 3081 428 3442 575 
Q 3803 722 4122 1019 
L 4122 359 
Q 3791 134 3420 21 
Q 3050 -91 2638 -91 
Q 1578 -91 968 557 
Q 359 1206 359 2328 
Q 359 3453 968 4101 
Q 1578 4750 2638 4750 
Q 3056 4750 3426 4639 
Q 3797 4528 4122 4306 
z
" transform="scale(0.015625)"/>
       <path id="DejaVuSans-4f" d="M 2522 4238 
Q 1834 4238 1429 3725 
Q 1025 3213 1025 2328 
Q 1025 1447 1429 934 
Q 1834 422 2522 422 
Q 3209 422 3611 934 
Q 4013 1447 4013 2328 
Q 4013 3213 3611 3725 
Q 3209 4238 2522 4238 
z
M 2522 4750 
Q 3503 4750 4090 4092 
Q 4678 3434 4678 2328 
Q 4678 1225 4090 567 
Q 3503 -91 2522 -91 
Q 1538 -91 948 565 
Q 359 1222 359 2328 
Q 359 3434 948 4092 
Q 1538 4750 2522 4750 
z
" transform="scale(0.015625)"/>
      </defs>
      <use xlink:href="#DejaVuSans-43"/>
      <use xlink:href="#DejaVuSans-65" x="69.824219"/>
      <use xlink:href="#DejaVuSans-6e" x="131.347656"/>
      <use xlink:href="#DejaVuSans-74" x="194.726562"/>
      <use xlink:href="#DejaVuSans-4f" x="233.935547"/>
      <use xlink:href="#DejaVuSans-53" x="312.646484"/>
      <use xlink:href="#DejaVuSans-20" x="376.123047"/>
      <use xlink:href="#DejaVuSans-53" x="407.910156"/>
      <use xlink:href="#DejaVuSans-74" x="471.386719"/>
      <use xlink:href="#DejaVuSans-72" x="510.595703"/>
      <use xlink:href="#DejaVuSans-65" x="549.458984"/>
      <use xlink:href="#DejaVuSans-61" x="610.982422"/>
      <use xlink:href="#DejaVuSans-6d" x="672.261719"/>
     </g>
    </g>
    <g id="line2d_47">
     <path d="M 63.691875 81.274563 
L 73.691875 81.274563 
L 83.691875 81.274563 
" style="fill: none; stroke: #be503b; stroke-width: 1.5; stroke-linecap: square"/>
    </g>
    <g id="text_24">
     <!-- Oracle -->
     <g transform="translate(91.691875 84.774563)scale(0.1 -0.1)">
      <use xlink:href="#DejaVuSans-4f"/>
      <use xlink:href="#DejaVuSans-72" x="78.710938"/>
      <use xlink:href="#DejaVuSans-61" x="119.824219"/>
      <use xlink:href="#DejaVuSans-63" x="181.103516"/>
      <use xlink:href="#DejaVuSans-6c" x="236.083984"/>
      <use xlink:href="#DejaVuSans-65" x="263.867188"/>
     </g>
    </g>
    <g id="line2d_48">
     <path d="M 63.691875 95.952687 
L 73.691875 95.952687 
L 83.691875 95.952687 
" style="fill: none; stroke: #e2321d; stroke-width: 1.5; stroke-linecap: square"/>
    </g>
    <g id="text_25">
     <!-- RHEL -->
     <g transform="translate(91.691875 99.452687)scale(0.1 -0.1)">
      <defs>
       <path id="DejaVuSans-52" d="M 2841 2188 
Q 3044 2119 3236 1894 
Q 3428 1669 3622 1275 
L 4263 0 
L 3584 0 
L 2988 1197 
Q 2756 1666 2539 1819 
Q 2322 1972 1947 1972 
L 1259 1972 
L 1259 0 
L 628 0 
L 628 4666 
L 2053 4666 
Q 2853 4666 3247 4331 
Q 3641 3997 3641 3322 
Q 3641 2881 3436 2590 
Q 3231 2300 2841 2188 
z
M 1259 4147 
L 1259 2491 
L 2053 2491 
Q 2509 2491 2742 2702 
Q 2975 2913 2975 3322 
Q 2975 3731 2742 3939 
Q 2509 4147 2053 4147 
L 1259 4147 
z
" transform="scale(0.015625)"/>
       <path id="DejaVuSans-48" d="M 628 4666 
L 1259 4666 
L 1259 2753 
L 3553 2753 
L 3553 4666 
L 4184 4666 
L 4184 0 
L 3553 0 
L 3553 2222 
L 1259 2222 
L 1259 0 
L 628 0 
L 628 4666 
z
" transform="scale(0.015625)"/>
      </defs>
      <use xlink:href="#DejaVuSans-52"/>
      <use xlink:href="#DejaVuSans-48" x="69.482422"/>
      <use xlink:href="#DejaVuSans-45" x="144.677734"/>
      <use xlink:href="#DejaVuSans-4c" x="207.861328"/>
     </g>
    </g>
    <g id="line2d_49">
     <path d="M 63.691875 110.630812 
L 73.691875 110.630812 
L 83.691875 110.630812 
" style="fill: none; stroke: #48b585; stroke-width: 6; stroke-linecap: square"/>
    </g>
    <g id="text_26">
     <!-- Rocky Linux -->
     <g transform="translate(91.691875 114.130812)scale(0.1 -0.1)">
      <use xlink:href="#DejaVuSans-52"/>
      <use xlink:href="#DejaVuSans-6f" x="64.982422"/>
      <use xlink:href="#DejaVuSans-63" x="126.164062"/>
      <use xlink:href="#DejaVuSans-6b" x="181.144531"/>
      <use xlink:href="#DejaVuSans-79" x="235.429688"/>
      <use xlink:href="#DejaVuSans-20" x="294.609375"/>
      <use xlink:href="#DejaVuSans-4c" x="326.396484"/>
      <use xlink:href="#DejaVuSans-69" x="382.109375"/>
      <use xlink:href="#DejaVuSans-6e" x="409.892578"/>
      <use xlink:href="#DejaVuSans-75" x="473.271484"/>
      <use xlink:href="#DejaVuSans-78" x="536.650391"/>
     </g>
    </g>
   </g>
  </g>
 </g>
 <defs>
  <clipPath id="p044985cf86">
   <rect x="54.691875" y="24.14175" width="902.844" height="543.6"/>
  </clipPath>
 </defs>
</svg>
