<?xml version="1.0" encoding="utf-8" standalone="no"?>
<!DOCTYPE svg PUBLIC "-//W3C//DTD SVG 1.1//EN"
  "http://www.w3.org/Graphics/SVG/1.1/DTD/svg11.dtd">
<svg xmlns:xlink="http://www.w3.org/1999/xlink" width="974.2765pt" height="644.743878pt" viewBox="0 0 974.2765 644.743878" xmlns="http://www.w3.org/2000/svg" version="1.1">
 <metadata>
  <rdf:RDF xmlns:dc="http://purl.org/dc/elements/1.1/" xmlns:cc="http://creativecommons.org/ns#" xmlns:rdf="http://www.w3.org/1999/02/22-rdf-syntax-ns#">
   <cc:Work>
    <dc:type rdf:resource="http://purl.org/dc/dcmitype/StillImage"/>
    <dc:date>2026-05-28T14:55:57.234107</dc:date>
    <dc:format>image/svg+xml</dc:format>
    <dc:creator>
     <cc:Agent>
      <dc:title>Matplotlib v3.6.3, https://matplotlib.org/</dc:title>
     </cc:Agent>
    </dc:creator>
   </cc:Work>
  </rdf:RDF>
 </metadata>
 <defs>
  <style type="text/css">*{stroke-linejoin: round; stroke-linecap: butt}</style>
 </defs>
 <g id="figure_1">
  <g id="patch_1">
   <path d="M 0 644.743878 
L 974.2765 644.743878 
L 974.2765 0 
L 0 0 
z
" style="fill: #ffffff"/>
  </g>
  <g id="axes_1">
   <g id="patch_2">
    <path d="M 64.2325 578.54175 
L 967.0765 578.54175 
L 967.0765 24.14175 
L 64.2325 24.14175 
z
" style="fill: #e5e5e5"/>
   </g>
   <g id="matplotlib.axis_1">
    <g id="xtick_1">
     <g id="line2d_1">
      <path d="M 73.315438 578.54175 
L 73.315438 24.14175 
" clip-path="url(#pc6f206e2b4)" style="fill: none; stroke: #ffffff; stroke-width: 0.8; stroke-linecap: square"/>
     </g>
     <g id="line2d_2">
      <defs>
       <path id="m9358eb23e7" d="M 0 0 
L 0 3.5 
" style="stroke: #555555; stroke-width: 0.8"/>
      </defs>
      <g>
       <use xlink:href="#m9358eb23e7" x="73.315438" y="578.54175" style="fill: #555555; stroke: #555555; stroke-width: 0.8"/>
      </g>
     </g>
     <g id="text_1">
      <!-- 2021-01 -->
      <g style="fill: #555555" transform="translate(60.494155 620.459567) rotate(-45) scale(0.1 -0.1)">
       <defs>
        <path id="DejaVuSans-32" d="M 1228 531 
L 3431 531 
L 3431 0 
L 469 0 
L 469 531 
Q 828 903 1448 1529 
Q 2069 2156 2228 2338 
Q 2531 2678 2651 2914 
Q 2772 3150 2772 3378 
Q 2772 3750 2511 3984 
Q 2250 4219 1831 4219 
Q 1534 4219 1204 4116 
Q 875 4013 500 3803 
L 500 4441 
Q 881 4594 1212 4672 
Q 1544 4750 1819 4750 
Q 2544 4750 2975 4387 
Q 3406 4025 3406 3419 
Q 3406 3131 3298 2873 
Q 3191 2616 2906 2266 
Q 2828 2175 2409 1742 
Q 1991 1309 1228 531 
z
" transform="scale(0.015625)"/>
        <path id="DejaVuSans-30" d="M 2034 4250 
Q 1547 4250 1301 3770 
Q 1056 3291 1056 2328 
Q 1056 1369 1301 889 
Q 1547 409 2034 409 
Q 2525 409 2770 889 
Q 3016 1369 3016 2328 
Q 3016 3291 2770 3770 
Q 2525 4250 2034 4250 
z
M 2034 4750 
Q 2819 4750 3233 4129 
Q 3647 3509 3647 2328 
Q 3647 1150 3233 529 
Q 2819 -91 2034 -91 
Q 1250 -91 836 529 
Q 422 1150 422 2328 
Q 422 3509 836 4129 
Q 1250 4750 2034 4750 
z
" transform="scale(0.015625)"/>
        <path id="DejaVuSans-31" d="M 794 531 
L 1825 531 
L 1825 4091 
L 703 3866 
L 703 4441 
L 1819 4666 
L 2450 4666 
L 2450 531 
L 3481 531 
L 3481 0 
L 794 0 
L 794 531 
z
" transform="scale(0.015625)"/>
        <path id="DejaVuSans-2d" d="M 313 2009 
L 1997 2009 
L 1997 1497 
L 313 1497 
L 313 2009 
z
" transform="scale(0.015625)"/>
       </defs>
       <use xlink:href="#DejaVuSans-32"/>
       <use xlink:href="#DejaVuSans-30" x="63.623047"/>
       <use xlink:href="#DejaVuSans-32" x="127.246094"/>
       <use xlink:href="#DejaVuSans-31" x="190.869141"/>
       <use xlink:href="#DejaVuSans-2d" x="254.492188"/>
       <use xlink:href="#DejaVuSans-30" x="290.576172"/>
       <use xlink:href="#DejaVuSans-31" x="354.199219"/>
      </g>
     </g>
    </g>
    <g id="xtick_2">
     <g id="line2d_3">
      <path d="M 114.188657 578.54175 
L 114.188657 24.14175 
" clip-path="url(#pc6f206e2b4)" style="fill: none; stroke: #ffffff; stroke-width: 0.8; stroke-linecap: square"/>
     </g>
     <g id="line2d_4">
      <g>
       <use xlink:href="#m9358eb23e7" x="114.188657" y="578.54175" style="fill: #555555; stroke: #555555; stroke-width: 0.8"/>
      </g>
     </g>
     <g id="text_2">
      <!-- 2021-04 -->
      <g style="fill: #555555" transform="translate(101.367375 620.459567) rotate(-45) scale(0.1 -0.1)">
       <defs>
        <path id="DejaVuSans-34" d="M 2419 4116 
L 825 1625 
L 2419 1625 
L 2419 4116 
z
M 2253 4666 
L 3047 4666 
L 3047 1625 
L 3713 1625 
L 3713 1100 
L 3047 1100 
L 3047 0 
L 2419 0 
L 2419 1100 
L 313 1100 
L 313 1709 
L 2253 4666 
z
" transform="scale(0.015625)"/>
       </defs>
       <use xlink:href="#DejaVuSans-32"/>
       <use xlink:href="#DejaVuSans-30" x="63.623047"/>
       <use xlink:href="#DejaVuSans-32" x="127.246094"/>
       <use xlink:href="#DejaVuSans-31" x="190.869141"/>
       <use xlink:href="#DejaVuSans-2d" x="254.492188"/>
       <use xlink:href="#DejaVuSans-30" x="290.576172"/>
       <use xlink:href="#DejaVuSans-34" x="354.199219"/>
      </g>
     </g>
    </g>
    <g id="xtick_3">
     <g id="line2d_5">
      <path d="M 155.516023 578.54175 
L 155.516023 24.14175 
" clip-path="url(#pc6f206e2b4)" style="fill: none; stroke: #ffffff; stroke-width: 0.8; stroke-linecap: square"/>
     </g>
     <g id="line2d_6">
      <g>
       <use xlink:href="#m9358eb23e7" x="155.516023" y="578.54175" style="fill: #555555; stroke: #555555; stroke-width: 0.8"/>
      </g>
     </g>
     <g id="text_3">
      <!-- 2021-07 -->
      <g style="fill: #555555" transform="translate(142.694741 620.459567) rotate(-45) scale(0.1 -0.1)">
       <defs>
        <path id="DejaVuSans-37" d="M 525 4666 
L 3525 4666 
L 3525 4397 
L 1831 0 
L 1172 0 
L 2766 4134 
L 525 4134 
L 525 4666 
z
" transform="scale(0.015625)"/>
       </defs>
       <use xlink:href="#DejaVuSans-32"/>
       <use xlink:href="#DejaVuSans-30" x="63.623047"/>
       <use xlink:href="#DejaVuSans-32" x="127.246094"/>
       <use xlink:href="#DejaVuSans-31" x="190.869141"/>
       <use xlink:href="#DejaVuSans-2d" x="254.492188"/>
       <use xlink:href="#DejaVuSans-30" x="290.576172"/>
       <use xlink:href="#DejaVuSans-37" x="354.199219"/>
      </g>
     </g>
    </g>
    <g id="xtick_4">
     <g id="line2d_7">
      <path d="M 197.297536 578.54175 
L 197.297536 24.14175 
" clip-path="url(#pc6f206e2b4)" style="fill: none; stroke: #ffffff; stroke-width: 0.8; stroke-linecap: square"/>
     </g>
     <g id="line2d_8">
      <g>
       <use xlink:href="#m9358eb23e7" x="197.297536" y="578.54175" style="fill: #555555; stroke: #555555; stroke-width: 0.8"/>
      </g>
     </g>
     <g id="text_4">
      <!-- 2021-10 -->
      <g style="fill: #555555" transform="translate(184.476254 620.459567) rotate(-45) scale(0.1 -0.1)">
       <use xlink:href="#DejaVuSans-32"/>
       <use xlink:href="#DejaVuSans-30" x="63.623047"/>
       <use xlink:href="#DejaVuSans-32" x="127.246094"/>
       <use xlink:href="#DejaVuSans-31" x="190.869141"/>
       <use xlink:href="#DejaVuSans-2d" x="254.492188"/>
       <use xlink:href="#DejaVuSans-31" x="290.576172"/>
       <use xlink:href="#DejaVuSans-30" x="354.199219"/>
      </g>
     </g>
    </g>
    <g id="xtick_5">
     <g id="line2d_9">
      <path d="M 239.079049 578.54175 
L 239.079049 24.14175 
" clip-path="url(#pc6f206e2b4)" style="fill: none; stroke: #ffffff; stroke-width: 0.8; stroke-linecap: square"/>
     </g>
     <g id="line2d_10">
      <g>
       <use xlink:href="#m9358eb23e7" x="239.079049" y="578.54175" style="fill: #555555; stroke: #555555; stroke-width: 0.8"/>
      </g>
     </g>
     <g id="text_5">
      <!-- 2022-01 -->
      <g style="fill: #555555" transform="translate(226.257767 620.459567) rotate(-45) scale(0.1 -0.1)">
       <use xlink:href="#DejaVuSans-32"/>
       <use xlink:href="#DejaVuSans-30" x="63.623047"/>
       <use xlink:href="#DejaVuSans-32" x="127.246094"/>
       <use xlink:href="#DejaVuSans-32" x="190.869141"/>
       <use xlink:href="#DejaVuSans-2d" x="254.492188"/>
       <use xlink:href="#DejaVuSans-30" x="290.576172"/>
       <use xlink:href="#DejaVuSans-31" x="354.199219"/>
      </g>
     </g>
    </g>
    <g id="xtick_6">
     <g id="line2d_11">
      <path d="M 279.952269 578.54175 
L 279.952269 24.14175 
" clip-path="url(#pc6f206e2b4)" style="fill: none; stroke: #ffffff; stroke-width: 0.8; stroke-linecap: square"/>
     </g>
     <g id="line2d_12">
      <g>
       <use xlink:href="#m9358eb23e7" x="279.952269" y="578.54175" style="fill: #555555; stroke: #555555; stroke-width: 0.8"/>
      </g>
     </g>
     <g id="text_6">
      <!-- 2022-04 -->
      <g style="fill: #555555" transform="translate(267.130986 620.459567) rotate(-45) scale(0.1 -0.1)">
       <use xlink:href="#DejaVuSans-32"/>
       <use xlink:href="#DejaVuSans-30" x="63.623047"/>
       <use xlink:href="#DejaVuSans-32" x="127.246094"/>
       <use xlink:href="#DejaVuSans-32" x="190.869141"/>
       <use xlink:href="#DejaVuSans-2d" x="254.492188"/>
       <use xlink:href="#DejaVuSans-30" x="290.576172"/>
       <use xlink:href="#DejaVuSans-34" x="354.199219"/>
      </g>
     </g>
    </g>
    <g id="xtick_7">
     <g id="line2d_13">
      <path d="M 321.279635 578.54175 
L 321.279635 24.14175 
" clip-path="url(#pc6f206e2b4)" style="fill: none; stroke: #ffffff; stroke-width: 0.8; stroke-linecap: square"/>
     </g>
     <g id="line2d_14">
      <g>
       <use xlink:href="#m9358eb23e7" x="321.279635" y="578.54175" style="fill: #555555; stroke: #555555; stroke-width: 0.8"/>
      </g>
     </g>
     <g id="text_7">
      <!-- 2022-07 -->
      <g style="fill: #555555" transform="translate(308.458353 620.459567) rotate(-45) scale(0.1 -0.1)">
       <use xlink:href="#DejaVuSans-32"/>
       <use xlink:href="#DejaVuSans-30" x="63.623047"/>
       <use xlink:href="#DejaVuSans-32" x="127.246094"/>
       <use xlink:href="#DejaVuSans-32" x="190.869141"/>
       <use xlink:href="#DejaVuSans-2d" x="254.492188"/>
       <use xlink:href="#DejaVuSans-30" x="290.576172"/>
       <use xlink:href="#DejaVuSans-37" x="354.199219"/>
      </g>
     </g>
    </g>
    <g id="xtick_8">
     <g id="line2d_15">
      <path d="M 363.061148 578.54175 
L 363.061148 24.14175 
" clip-path="url(#pc6f206e2b4)" style="fill: none; stroke: #ffffff; stroke-width: 0.8; stroke-linecap: square"/>
     </g>
     <g id="line2d_16">
      <g>
       <use xlink:href="#m9358eb23e7" x="363.061148" y="578.54175" style="fill: #555555; stroke: #555555; stroke-width: 0.8"/>
      </g>
     </g>
     <g id="text_8">
      <!-- 2022-10 -->
      <g style="fill: #555555" transform="translate(350.239866 620.459567) rotate(-45) scale(0.1 -0.1)">
       <use xlink:href="#DejaVuSans-32"/>
       <use xlink:href="#DejaVuSans-30" x="63.623047"/>
       <use xlink:href="#DejaVuSans-32" x="127.246094"/>
       <use xlink:href="#DejaVuSans-32" x="190.869141"/>
       <use xlink:href="#DejaVuSans-2d" x="254.492188"/>
       <use xlink:href="#DejaVuSans-31" x="290.576172"/>
       <use xlink:href="#DejaVuSans-30" x="354.199219"/>
      </g>
     </g>
    </g>
    <g id="xtick_9">
     <g id="line2d_17">
      <path d="M 404.842661 578.54175 
L 404.842661 24.14175 
" clip-path="url(#pc6f206e2b4)" style="fill: none; stroke: #ffffff; stroke-width: 0.8; stroke-linecap: square"/>
     </g>
     <g id="line2d_18">
      <g>
       <use xlink:href="#m9358eb23e7" x="404.842661" y="578.54175" style="fill: #555555; stroke: #555555; stroke-width: 0.8"/>
      </g>
     </g>
     <g id="text_9">
      <!-- 2023-01 -->
      <g style="fill: #555555" transform="translate(392.021379 620.459567) rotate(-45) scale(0.1 -0.1)">
       <defs>
        <path id="DejaVuSans-33" d="M 2597 2516 
Q 3050 2419 3304 2112 
Q 3559 1806 3559 1356 
Q 3559 666 3084 287 
Q 2609 -91 1734 -91 
Q 1441 -91 1130 -33 
Q 819 25 488 141 
L 488 750 
Q 750 597 1062 519 
Q 1375 441 1716 441 
Q 2309 441 2620 675 
Q 2931 909 2931 1356 
Q 2931 1769 2642 2001 
Q 2353 2234 1838 2234 
L 1294 2234 
L 1294 2753 
L 1863 2753 
Q 2328 2753 2575 2939 
Q 2822 3125 2822 3475 
Q 2822 3834 2567 4026 
Q 2313 4219 1838 4219 
Q 1578 4219 1281 4162 
Q 984 4106 628 3988 
L 628 4550 
Q 988 4650 1302 4700 
Q 1616 4750 1894 4750 
Q 2613 4750 3031 4423 
Q 3450 4097 3450 3541 
Q 3450 3153 3228 2886 
Q 3006 2619 2597 2516 
z
" transform="scale(0.015625)"/>
       </defs>
       <use xlink:href="#DejaVuSans-32"/>
       <use xlink:href="#DejaVuSans-30" x="63.623047"/>
       <use xlink:href="#DejaVuSans-32" x="127.246094"/>
       <use xlink:href="#DejaVuSans-33" x="190.869141"/>
       <use xlink:href="#DejaVuSans-2d" x="254.492188"/>
       <use xlink:href="#DejaVuSans-30" x="290.576172"/>
       <use xlink:href="#DejaVuSans-31" x="354.199219"/>
      </g>
     </g>
    </g>
    <g id="xtick_10">
     <g id="line2d_19">
      <path d="M 445.71588 578.54175 
L 445.71588 24.14175 
" clip-path="url(#pc6f206e2b4)" style="fill: none; stroke: #ffffff; stroke-width: 0.8; stroke-linecap: square"/>
     </g>
     <g id="line2d_20">
      <g>
       <use xlink:href="#m9358eb23e7" x="445.71588" y="578.54175" style="fill: #555555; stroke: #555555; stroke-width: 0.8"/>
      </g>
     </g>
     <g id="text_10">
      <!-- 2023-04 -->
      <g style="fill: #555555" transform="translate(432.894598 620.459567) rotate(-45) scale(0.1 -0.1)">
       <use xlink:href="#DejaVuSans-32"/>
       <use xlink:href="#DejaVuSans-30" x="63.623047"/>
       <use xlink:href="#DejaVuSans-32" x="127.246094"/>
       <use xlink:href="#DejaVuSans-33" x="190.869141"/>
       <use xlink:href="#DejaVuSans-2d" x="254.492188"/>
       <use xlink:href="#DejaVuSans-30" x="290.576172"/>
       <use xlink:href="#DejaVuSans-34" x="354.199219"/>
      </g>
     </g>
    </g>
    <g id="xtick_11">
     <g id="line2d_21">
      <path d="M 487.043246 578.54175 
L 487.043246 24.14175 
" clip-path="url(#pc6f206e2b4)" style="fill: none; stroke: #ffffff; stroke-width: 0.8; stroke-linecap: square"/>
     </g>
     <g id="line2d_22">
      <g>
       <use xlink:href="#m9358eb23e7" x="487.043246" y="578.54175" style="fill: #555555; stroke: #555555; stroke-width: 0.8"/>
      </g>
     </g>
     <g id="text_11">
      <!-- 2023-07 -->
      <g style="fill: #555555" transform="translate(474.221964 620.459567) rotate(-45) scale(0.1 -0.1)">
       <use xlink:href="#DejaVuSans-32"/>
       <use xlink:href="#DejaVuSans-30" x="63.623047"/>
       <use xlink:href="#DejaVuSans-32" x="127.246094"/>
       <use xlink:href="#DejaVuSans-33" x="190.869141"/>
       <use xlink:href="#DejaVuSans-2d" x="254.492188"/>
       <use xlink:href="#DejaVuSans-30" x="290.576172"/>
       <use xlink:href="#DejaVuSans-37" x="354.199219"/>
      </g>
     </g>
    </g>
    <g id="xtick_12">
     <g id="line2d_23">
      <path d="M 528.82476 578.54175 
L 528.82476 24.14175 
" clip-path="url(#pc6f206e2b4)" style="fill: none; stroke: #ffffff; stroke-width: 0.8; stroke-linecap: square"/>
     </g>
     <g id="line2d_24">
      <g>
       <use xlink:href="#m9358eb23e7" x="528.82476" y="578.54175" style="fill: #555555; stroke: #555555; stroke-width: 0.8"/>
      </g>
     </g>
     <g id="text_12">
      <!-- 2023-10 -->
      <g style="fill: #555555" transform="translate(516.003477 620.459567) rotate(-45) scale(0.1 -0.1)">
       <use xlink:href="#DejaVuSans-32"/>
       <use xlink:href="#DejaVuSans-30" x="63.623047"/>
       <use xlink:href="#DejaVuSans-32" x="127.246094"/>
       <use xlink:href="#DejaVuSans-33" x="190.869141"/>
       <use xlink:href="#DejaVuSans-2d" x="254.492188"/>
       <use xlink:href="#DejaVuSans-31" x="290.576172"/>
       <use xlink:href="#DejaVuSans-30" x="354.199219"/>
      </g>
     </g>
    </g>
    <g id="xtick_13">
     <g id="line2d_25">
      <path d="M 570.606273 578.54175 
L 570.606273 24.14175 
" clip-path="url(#pc6f206e2b4)" style="fill: none; stroke: #ffffff; stroke-width: 0.8; stroke-linecap: square"/>
     </g>
     <g id="line2d_26">
      <g>
       <use xlink:href="#m9358eb23e7" x="570.606273" y="578.54175" style="fill: #555555; stroke: #555555; stroke-width: 0.8"/>
      </g>
     </g>
     <g id="text_13">
      <!-- 2024-01 -->
      <g style="fill: #555555" transform="translate(557.78499 620.459567) rotate(-45) scale(0.1 -0.1)">
       <use xlink:href="#DejaVuSans-32"/>
       <use xlink:href="#DejaVuSans-30" x="63.623047"/>
       <use xlink:href="#DejaVuSans-32" x="127.246094"/>
       <use xlink:href="#DejaVuSans-34" x="190.869141"/>
       <use xlink:href="#DejaVuSans-2d" x="254.492188"/>
       <use xlink:href="#DejaVuSans-30" x="290.576172"/>
       <use xlink:href="#DejaVuSans-31" x="354.199219"/>
      </g>
     </g>
    </g>
    <g id="xtick_14">
     <g id="line2d_27">
      <path d="M 611.933639 578.54175 
L 611.933639 24.14175 
" clip-path="url(#pc6f206e2b4)" style="fill: none; stroke: #ffffff; stroke-width: 0.8; stroke-linecap: square"/>
     </g>
     <g id="line2d_28">
      <g>
       <use xlink:href="#m9358eb23e7" x="611.933639" y="578.54175" style="fill: #555555; stroke: #555555; stroke-width: 0.8"/>
      </g>
     </g>
     <g id="text_14">
      <!-- 2024-04 -->
      <g style="fill: #555555" transform="translate(599.112357 620.459567) rotate(-45) scale(0.1 -0.1)">
       <use xlink:href="#DejaVuSans-32"/>
       <use xlink:href="#DejaVuSans-30" x="63.623047"/>
       <use xlink:href="#DejaVuSans-32" x="127.246094"/>
       <use xlink:href="#DejaVuSans-34" x="190.869141"/>
       <use xlink:href="#DejaVuSans-2d" x="254.492188"/>
       <use xlink:href="#DejaVuSans-30" x="290.576172"/>
       <use xlink:href="#DejaVuSans-34" x="354.199219"/>
      </g>
     </g>
    </g>
    <g id="xtick_15">
     <g id="line2d_29">
      <path d="M 653.261005 578.54175 
L 653.261005 24.14175 
" clip-path="url(#pc6f206e2b4)" style="fill: none; stroke: #ffffff; stroke-width: 0.8; stroke-linecap: square"/>
     </g>
     <g id="line2d_30">
      <g>
       <use xlink:href="#m9358eb23e7" x="653.261005" y="578.54175" style="fill: #555555; stroke: #555555; stroke-width: 0.8"/>
      </g>
     </g>
     <g id="text_15">
      <!-- 2024-07 -->
      <g style="fill: #555555" transform="translate(640.439723 620.459567) rotate(-45) scale(0.1 -0.1)">
       <use xlink:href="#DejaVuSans-32"/>
       <use xlink:href="#DejaVuSans-30" x="63.623047"/>
       <use xlink:href="#DejaVuSans-32" x="127.246094"/>
       <use xlink:href="#DejaVuSans-34" x="190.869141"/>
       <use xlink:href="#DejaVuSans-2d" x="254.492188"/>
       <use xlink:href="#DejaVuSans-30" x="290.576172"/>
       <use xlink:href="#DejaVuSans-37" x="354.199219"/>
      </g>
     </g>
    </g>
    <g id="xtick_16">
     <g id="line2d_31">
      <path d="M 695.042518 578.54175 
L 695.042518 24.14175 
" clip-path="url(#pc6f206e2b4)" style="fill: none; stroke: #ffffff; stroke-width: 0.8; stroke-linecap: square"/>
     </g>
     <g id="line2d_32">
      <g>
       <use xlink:href="#m9358eb23e7" x="695.042518" y="578.54175" style="fill: #555555; stroke: #555555; stroke-width: 0.8"/>
      </g>
     </g>
     <g id="text_16">
      <!-- 2024-10 -->
      <g style="fill: #555555" transform="translate(682.221236 620.459567) rotate(-45) scale(0.1 -0.1)">
       <use xlink:href="#DejaVuSans-32"/>
       <use xlink:href="#DejaVuSans-30" x="63.623047"/>
       <use xlink:href="#DejaVuSans-32" x="127.246094"/>
       <use xlink:href="#DejaVuSans-34" x="190.869141"/>
       <use xlink:href="#DejaVuSans-2d" x="254.492188"/>
       <use xlink:href="#DejaVuSans-31" x="290.576172"/>
       <use xlink:href="#DejaVuSans-30" x="354.199219"/>
      </g>
     </g>
    </g>
    <g id="xtick_17">
     <g id="line2d_33">
      <path d="M 736.824031 578.54175 
L 736.824031 24.14175 
" clip-path="url(#pc6f206e2b4)" style="fill: none; stroke: #ffffff; stroke-width: 0.8; stroke-linecap: square"/>
     </g>
     <g id="line2d_34">
      <g>
       <use xlink:href="#m9358eb23e7" x="736.824031" y="578.54175" style="fill: #555555; stroke: #555555; stroke-width: 0.8"/>
      </g>
     </g>
     <g id="text_17">
      <!-- 2025-01 -->
      <g style="fill: #555555" transform="translate(724.002749 620.459567) rotate(-45) scale(0.1 -0.1)">
       <defs>
        <path id="DejaVuSans-35" d="M 691 4666 
L 3169 4666 
L 3169 4134 
L 1269 4134 
L 1269 2991 
Q 1406 3038 1543 3061 
Q 1681 3084 1819 3084 
Q 2600 3084 3056 2656 
Q 3513 2228 3513 1497 
Q 3513 744 3044 326 
Q 2575 -91 1722 -91 
Q 1428 -91 1123 -41 
Q 819 9 494 109 
L 494 744 
Q 775 591 1075 516 
Q 1375 441 1709 441 
Q 2250 441 2565 725 
Q 2881 1009 2881 1497 
Q 2881 1984 2565 2268 
Q 2250 2553 1709 2553 
Q 1456 2553 1204 2497 
Q 953 2441 691 2322 
L 691 4666 
z
" transform="scale(0.015625)"/>
       </defs>
       <use xlink:href="#DejaVuSans-32"/>
       <use xlink:href="#DejaVuSans-30" x="63.623047"/>
       <use xlink:href="#DejaVuSans-32" x="127.246094"/>
       <use xlink:href="#DejaVuSans-35" x="190.869141"/>
       <use xlink:href="#DejaVuSans-2d" x="254.492188"/>
       <use xlink:href="#DejaVuSans-30" x="290.576172"/>
       <use xlink:href="#DejaVuSans-31" x="354.199219"/>
      </g>
     </g>
    </g>
    <g id="xtick_18">
     <g id="line2d_35">
      <path d="M 777.697251 578.54175 
L 777.697251 24.14175 
" clip-path="url(#pc6f206e2b4)" style="fill: none; stroke: #ffffff; stroke-width: 0.8; stroke-linecap: square"/>
     </g>
     <g id="line2d_36">
      <g>
       <use xlink:href="#m9358eb23e7" x="777.697251" y="578.54175" style="fill: #555555; stroke: #555555; stroke-width: 0.8"/>
      </g>
     </g>
     <g id="text_18">
      <!-- 2025-04 -->
      <g style="fill: #555555" transform="translate(764.875968 620.459567) rotate(-45) scale(0.1 -0.1)">
       <use xlink:href="#DejaVuSans-32"/>
       <use xlink:href="#DejaVuSans-30" x="63.623047"/>
       <use xlink:href="#DejaVuSans-32" x="127.246094"/>
       <use xlink:href="#DejaVuSans-35" x="190.869141"/>
       <use xlink:href="#DejaVuSans-2d" x="254.492188"/>
       <use xlink:href="#DejaVuSans-30" x="290.576172"/>
       <use xlink:href="#DejaVuSans-34" x="354.199219"/>
      </g>
     </g>
    </g>
    <g id="xtick_19">
     <g id="line2d_37">
      <path d="M 819.024617 578.54175 
L 819.024617 24.14175 
" clip-path="url(#pc6f206e2b4)" style="fill: none; stroke: #ffffff; stroke-width: 0.8; stroke-linecap: square"/>
     </g>
     <g id="line2d_38">
      <g>
       <use xlink:href="#m9358eb23e7" x="819.024617" y="578.54175" style="fill: #555555; stroke: #555555; stroke-width: 0.8"/>
      </g>
     </g>
     <g id="text_19">
      <!-- 2025-07 -->
      <g style="fill: #555555" transform="translate(806.203334 620.459567) rotate(-45) scale(0.1 -0.1)">
       <use xlink:href="#DejaVuSans-32"/>
       <use xlink:href="#DejaVuSans-30" x="63.623047"/>
       <use xlink:href="#DejaVuSans-32" x="127.246094"/>
       <use xlink:href="#DejaVuSans-35" x="190.869141"/>
       <use xlink:href="#DejaVuSans-2d" x="254.492188"/>
       <use xlink:href="#DejaVuSans-30" x="290.576172"/>
       <use xlink:href="#DejaVuSans-37" x="354.199219"/>
      </g>
     </g>
    </g>
    <g id="xtick_20">
     <g id="line2d_39">
      <path d="M 860.80613 578.54175 
L 860.80613 24.14175 
" clip-path="url(#pc6f206e2b4)" style="fill: none; stroke: #ffffff; stroke-width: 0.8; stroke-linecap: square"/>
     </g>
     <g id="line2d_40">
      <g>
       <use xlink:href="#m9358eb23e7" x="860.80613" y="578.54175" style="fill: #555555; stroke: #555555; stroke-width: 0.8"/>
      </g>
     </g>
     <g id="text_20">
      <!-- 2025-10 -->
      <g style="fill: #555555" transform="translate(847.984848 620.459567) rotate(-45) scale(0.1 -0.1)">
       <use xlink:href="#DejaVuSans-32"/>
       <use xlink:href="#DejaVuSans-30" x="63.623047"/>
       <use xlink:href="#DejaVuSans-32" x="127.246094"/>
       <use xlink:href="#DejaVuSans-35" x="190.869141"/>
       <use xlink:href="#DejaVuSans-2d" x="254.492188"/>
       <use xlink:href="#DejaVuSans-31" x="290.576172"/>
       <use xlink:href="#DejaVuSans-30" x="354.199219"/>
      </g>
     </g>
    </g>
    <g id="xtick_21">
     <g id="line2d_41">
      <path d="M 902.587643 578.54175 
L 902.587643 24.14175 
" clip-path="url(#pc6f206e2b4)" style="fill: none; stroke: #ffffff; stroke-width: 0.8; stroke-linecap: square"/>
     </g>
     <g id="line2d_42">
      <g>
       <use xlink:href="#m9358eb23e7" x="902.587643" y="578.54175" style="fill: #555555; stroke: #555555; stroke-width: 0.8"/>
      </g>
     </g>
     <g id="text_21">
      <!-- 2026-01 -->
      <g style="fill: #555555" transform="translate(889.766361 620.459567) rotate(-45) scale(0.1 -0.1)">
       <defs>
        <path id="DejaVuSans-36" d="M 2113 2584 
Q 1688 2584 1439 2293 
Q 1191 2003 1191 1497 
Q 1191 994 1439 701 
Q 1688 409 2113 409 
Q 2538 409 2786 701 
Q 3034 994 3034 1497 
Q 3034 2003 2786 2293 
Q 2538 2584 2113 2584 
z
M 3366 4563 
L 3366 3988 
Q 3128 4100 2886 4159 
Q 2644 4219 2406 4219 
Q 1781 4219 1451 3797 
Q 1122 3375 1075 2522 
Q 1259 2794 1537 2939 
Q 1816 3084 2150 3084 
Q 2853 3084 3261 2657 
Q 3669 2231 3669 1497 
Q 3669 778 3244 343 
Q 2819 -91 2113 -91 
Q 1303 -91 875 529 
Q 447 1150 447 2328 
Q 447 3434 972 4092 
Q 1497 4750 2381 4750 
Q 2619 4750 2861 4703 
Q 3103 4656 3366 4563 
z
" transform="scale(0.015625)"/>
       </defs>
       <use xlink:href="#DejaVuSans-32"/>
       <use xlink:href="#DejaVuSans-30" x="63.623047"/>
       <use xlink:href="#DejaVuSans-32" x="127.246094"/>
       <use xlink:href="#DejaVuSans-36" x="190.869141"/>
       <use xlink:href="#DejaVuSans-2d" x="254.492188"/>
       <use xlink:href="#DejaVuSans-30" x="290.576172"/>
       <use xlink:href="#DejaVuSans-31" x="354.199219"/>
      </g>
     </g>
    </g>
    <g id="xtick_22">
     <g id="line2d_43">
      <path d="M 943.460862 578.54175 
L 943.460862 24.14175 
" clip-path="url(#pc6f206e2b4)" style="fill: none; stroke: #ffffff; stroke-width: 0.8; stroke-linecap: square"/>
     </g>
     <g id="line2d_44">
      <g>
       <use xlink:href="#m9358eb23e7" x="943.460862" y="578.54175" style="fill: #555555; stroke: #555555; stroke-width: 0.8"/>
      </g>
     </g>
     <g id="text_22">
      <!-- 2026-04 -->
      <g style="fill: #555555" transform="translate(930.63958 620.459567) rotate(-45) scale(0.1 -0.1)">
       <use xlink:href="#DejaVuSans-32"/>
       <use xlink:href="#DejaVuSans-30" x="63.623047"/>
       <use xlink:href="#DejaVuSans-32" x="127.246094"/>
       <use xlink:href="#DejaVuSans-36" x="190.869141"/>
       <use xlink:href="#DejaVuSans-2d" x="254.492188"/>
       <use xlink:href="#DejaVuSans-30" x="290.576172"/>
       <use xlink:href="#DejaVuSans-34" x="354.199219"/>
      </g>
     </g>
    </g>
    <g id="text_23">
     <!-- Date -->
     <g style="fill: #555555" transform="translate(501.313563 635.048253) scale(0.12 -0.12)">
      <defs>
       <path id="DejaVuSans-44" d="M 1259 4147 
L 1259 519 
L 2022 519 
Q 2988 519 3436 956 
Q 3884 1394 3884 2338 
Q 3884 3275 3436 3711 
Q 2988 4147 2022 4147 
L 1259 4147 
z
M 628 4666 
L 1925 4666 
Q 3281 4666 3915 4102 
Q 4550 3538 4550 2338 
Q 4550 1131 3912 565 
Q 3275 0 1925 0 
L 628 0 
L 628 4666 
z
" transform="scale(0.015625)"/>
       <path id="DejaVuSans-61" d="M 2194 1759 
Q 1497 1759 1228 1600 
Q 959 1441 959 1056 
Q 959 750 1161 570 
Q 1363 391 1709 391 
Q 2188 391 2477 730 
Q 2766 1069 2766 1631 
L 2766 1759 
L 2194 1759 
z
M 3341 1997 
L 3341 0 
L 2766 0 
L 2766 531 
Q 2569 213 2275 61 
Q 1981 -91 1556 -91 
Q 1019 -91 701 211 
Q 384 513 384 1019 
Q 384 1609 779 1909 
Q 1175 2209 1959 2209 
L 2766 2209 
L 2766 2266 
Q 2766 2663 2505 2880 
Q 2244 3097 1772 3097 
Q 1472 3097 1187 3025 
Q 903 2953 641 2809 
L 641 3341 
Q 956 3463 1253 3523 
Q 1550 3584 1831 3584 
Q 2591 3584 2966 3190 
Q 3341 2797 3341 1997 
z
" transform="scale(0.015625)"/>
       <path id="DejaVuSans-74" d="M 1172 4494 
L 1172 3500 
L 2356 3500 
L 2356 3053 
L 1172 3053 
L 1172 1153 
Q 1172 725 1289 603 
Q 1406 481 1766 481 
L 2356 481 
L 2356 0 
L 1766 0 
Q 1100 0 847 248 
Q 594 497 594 1153 
L 594 3053 
L 172 3053 
L 172 3500 
L 594 3500 
L 594 4494 
L 1172 4494 
z
" transform="scale(0.015625)"/>
       <path id="DejaVuSans-65" d="M 3597 1894 
L 3597 1613 
L 953 1613 
Q 991 1019 1311 708 
Q 1631 397 2203 397 
Q 2534 397 2845 478 
Q 3156 559 3463 722 
L 3463 178 
Q 3153 47 2828 -22 
Q 2503 -91 2169 -91 
Q 1331 -91 842 396 
Q 353 884 353 1716 
Q 353 2575 817 3079 
Q 1281 3584 2069 3584 
Q 2775 3584 3186 3129 
Q 3597 2675 3597 1894 
z
M 3022 2063 
Q 3016 2534 2758 2815 
Q 2500 3097 2075 3097 
Q 1594 3097 1305 2825 
Q 1016 2553 972 2059 
L 3022 2063 
z
" transform="scale(0.015625)"/>
      </defs>
      <use xlink:href="#DejaVuSans-44"/>
      <use xlink:href="#DejaVuSans-61" x="77.001953"/>
      <use xlink:href="#DejaVuSans-74" x="138.28125"/>
      <use xlink:href="#DejaVuSans-65" x="177.490234"/>
     </g>
    </g>
   </g>
   <g id="matplotlib.axis_2">
    <g id="ytick_1">
     <g id="line2d_45">
      <path d="M 64.2325 578.54175 
L 967.0765 578.54175 
" clip-path="url(#pc6f206e2b4)" style="fill: none; stroke: #ffffff; stroke-width: 0.8; stroke-linecap: square"/>
     </g>
     <g id="line2d_46">
      <defs>
       <path id="mae30383095" d="M 0 0 
L -3.5 0 
" style="stroke: #555555; stroke-width: 0.8"/>
      </defs>
      <g>
       <use xlink:href="#mae30383095" x="64.2325" y="578.54175" style="fill: #555555; stroke: #555555; stroke-width: 0.8"/>
      </g>
     </g>
     <g id="text_24">
      <!-- 0k -->
      <g style="fill: #555555" transform="translate(45.079375 582.340969) scale(0.1 -0.1)">
       <defs>
        <path id="DejaVuSans-6b" d="M 581 4863 
L 1159 4863 
L 1159 1991 
L 2875 3500 
L 3609 3500 
L 1753 1863 
L 3688 0 
L 2938 0 
L 1159 1709 
L 1159 0 
L 581 0 
L 581 4863 
z
" transform="scale(0.015625)"/>
       </defs>
       <use xlink:href="#DejaVuSans-30"/>
       <use xlink:href="#DejaVuSans-6b" x="63.623047"/>
      </g>
     </g>
    </g>
    <g id="ytick_2">
     <g id="line2d_47">
      <path d="M 64.2325 471.389233 
L 967.0765 471.389233 
" clip-path="url(#pc6f206e2b4)" style="fill: none; stroke: #ffffff; stroke-width: 0.8; stroke-linecap: square"/>
     </g>
     <g id="line2d_48">
      <g>
       <use xlink:href="#mae30383095" x="64.2325" y="471.389233" style="fill: #555555; stroke: #555555; stroke-width: 0.8"/>
      </g>
     </g>
     <g id="text_25">
      <!-- 200k -->
      <g style="fill: #555555" transform="translate(32.354375 475.188452) scale(0.1 -0.1)">
       <use xlink:href="#DejaVuSans-32"/>
       <use xlink:href="#DejaVuSans-30" x="63.623047"/>
       <use xlink:href="#DejaVuSans-30" x="127.246094"/>
       <use xlink:href="#DejaVuSans-6b" x="190.869141"/>
      </g>
     </g>
    </g>
    <g id="ytick_3">
     <g id="line2d_49">
      <path d="M 64.2325 364.236716 
L 967.0765 364.236716 
" clip-path="url(#pc6f206e2b4)" style="fill: none; stroke: #ffffff; stroke-width: 0.8; stroke-linecap: square"/>
     </g>
     <g id="line2d_50">
      <g>
       <use xlink:href="#mae30383095" x="64.2325" y="364.236716" style="fill: #555555; stroke: #555555; stroke-width: 0.8"/>
      </g>
     </g>
     <g id="text_26">
      <!-- 400k -->
      <g style="fill: #555555" transform="translate(32.354375 368.035935) scale(0.1 -0.1)">
       <use xlink:href="#DejaVuSans-34"/>
       <use xlink:href="#DejaVuSans-30" x="63.623047"/>
       <use xlink:href="#DejaVuSans-30" x="127.246094"/>
       <use xlink:href="#DejaVuSans-6b" x="190.869141"/>
      </g>
     </g>
    </g>
    <g id="ytick_4">
     <g id="line2d_51">
      <path d="M 64.2325 257.0842 
L 967.0765 257.0842 
" clip-path="url(#pc6f206e2b4)" style="fill: none; stroke: #ffffff; stroke-width: 0.8; stroke-linecap: square"/>
     </g>
     <g id="line2d_52">
      <g>
       <use xlink:href="#mae30383095" x="64.2325" y="257.0842" style="fill: #555555; stroke: #555555; stroke-width: 0.8"/>
      </g>
     </g>
     <g id="text_27">
      <!-- 600k -->
      <g style="fill: #555555" transform="translate(32.354375 260.883418) scale(0.1 -0.1)">
       <use xlink:href="#DejaVuSans-36"/>
       <use xlink:href="#DejaVuSans-30" x="63.623047"/>
       <use xlink:href="#DejaVuSans-30" x="127.246094"/>
       <use xlink:href="#DejaVuSans-6b" x="190.869141"/>
      </g>
     </g>
    </g>
    <g id="ytick_5">
     <g id="line2d_53">
      <path d="M 64.2325 149.931683 
L 967.0765 149.931683 
" clip-path="url(#pc6f206e2b4)" style="fill: none; stroke: #ffffff; stroke-width: 0.8; stroke-linecap: square"/>
     </g>
     <g id="line2d_54">
      <g>
       <use xlink:href="#mae30383095" x="64.2325" y="149.931683" style="fill: #555555; stroke: #555555; stroke-width: 0.8"/>
      </g>
     </g>
     <g id="text_28">
      <!-- 800k -->
      <g style="fill: #555555" transform="translate(32.354375 153.730902) scale(0.1 -0.1)">
       <defs>
        <path id="DejaVuSans-38" d="M 2034 2216 
Q 1584 2216 1326 1975 
Q 1069 1734 1069 1313 
Q 1069 891 1326 650 
Q 1584 409 2034 409 
Q 2484 409 2743 651 
Q 3003 894 3003 1313 
Q 3003 1734 2745 1975 
Q 2488 2216 2034 2216 
z
M 1403 2484 
Q 997 2584 770 2862 
Q 544 3141 544 3541 
Q 544 4100 942 4425 
Q 1341 4750 2034 4750 
Q 2731 4750 3128 4425 
Q 3525 4100 3525 3541 
Q 3525 3141 3298 2862 
Q 3072 2584 2669 2484 
Q 3125 2378 3379 2068 
Q 3634 1759 3634 1313 
Q 3634 634 3220 271 
Q 2806 -91 2034 -91 
Q 1263 -91 848 271 
Q 434 634 434 1313 
Q 434 1759 690 2068 
Q 947 2378 1403 2484 
z
M 1172 3481 
Q 1172 3119 1398 2916 
Q 1625 2713 2034 2713 
Q 2441 2713 2670 2916 
Q 2900 3119 2900 3481 
Q 2900 3844 2670 4047 
Q 2441 4250 2034 4250 
Q 1625 4250 1398 4047 
Q 1172 3844 1172 3481 
z
" transform="scale(0.015625)"/>
       </defs>
       <use xlink:href="#DejaVuSans-38"/>
       <use xlink:href="#DejaVuSans-30" x="63.623047"/>
       <use xlink:href="#DejaVuSans-30" x="127.246094"/>
       <use xlink:href="#DejaVuSans-6b" x="190.869141"/>
      </g>
     </g>
    </g>
    <g id="ytick_6">
     <g id="line2d_55">
      <path d="M 64.2325 42.779166 
L 967.0765 42.779166 
" clip-path="url(#pc6f206e2b4)" style="fill: none; stroke: #ffffff; stroke-width: 0.8; stroke-linecap: square"/>
     </g>
     <g id="line2d_56">
      <g>
       <use xlink:href="#mae30383095" x="64.2325" y="42.779166" style="fill: #555555; stroke: #555555; stroke-width: 0.8"/>
      </g>
     </g>
     <g id="text_29">
      <!-- 1,000k -->
      <g style="fill: #555555" transform="translate(22.81375 46.578385) scale(0.1 -0.1)">
       <defs>
        <path id="DejaVuSans-2c" d="M 750 794 
L 1409 794 
L 1409 256 
L 897 -744 
L 494 -744 
L 750 256 
L 750 794 
z
" transform="scale(0.015625)"/>
       </defs>
       <use xlink:href="#DejaVuSans-31"/>
       <use xlink:href="#DejaVuSans-2c" x="63.623047"/>
       <use xlink:href="#DejaVuSans-30" x="95.410156"/>
       <use xlink:href="#DejaVuSans-30" x="159.033203"/>
       <use xlink:href="#DejaVuSans-30" x="222.65625"/>
       <use xlink:href="#DejaVuSans-6b" x="286.279297"/>
      </g>
     </g>
    </g>
    <g id="text_30">
     <!-- Instances -->
     <g style="fill: #555555" transform="translate(16.318125 329.988) rotate(-90) scale(0.12 -0.12)">
      <defs>
       <path id="DejaVuSans-49" d="M 628 4666 
L 1259 4666 
L 1259 0 
L 628 0 
L 628 4666 
z
" transform="scale(0.015625)"/>
       <path id="DejaVuSans-6e" d="M 3513 2113 
L 3513 0 
L 2938 0 
L 2938 2094 
Q 2938 2591 2744 2837 
Q 2550 3084 2163 3084 
Q 1697 3084 1428 2787 
Q 1159 2491 1159 1978 
L 1159 0 
L 581 0 
L 581 3500 
L 1159 3500 
L 1159 2956 
Q 1366 3272 1645 3428 
Q 1925 3584 2291 3584 
Q 2894 3584 3203 3211 
Q 3513 2838 3513 2113 
z
" transform="scale(0.015625)"/>
       <path id="DejaVuSans-73" d="M 2834 3397 
L 2834 2853 
Q 2591 2978 2328 3040 
Q 2066 3103 1784 3103 
Q 1356 3103 1142 2972 
Q 928 2841 928 2578 
Q 928 2378 1081 2264 
Q 1234 2150 1697 2047 
L 1894 2003 
Q 2506 1872 2764 1633 
Q 3022 1394 3022 966 
Q 3022 478 2636 193 
Q 2250 -91 1575 -91 
Q 1294 -91 989 -36 
Q 684 19 347 128 
L 347 722 
Q 666 556 975 473 
Q 1284 391 1588 391 
Q 1994 391 2212 530 
Q 2431 669 2431 922 
Q 2431 1156 2273 1281 
Q 2116 1406 1581 1522 
L 1381 1569 
Q 847 1681 609 1914 
Q 372 2147 372 2553 
Q 372 3047 722 3315 
Q 1072 3584 1716 3584 
Q 2034 3584 2315 3537 
Q 2597 3491 2834 3397 
z
" transform="scale(0.015625)"/>
       <path id="DejaVuSans-63" d="M 3122 3366 
L 3122 2828 
Q 2878 2963 2633 3030 
Q 2388 3097 2138 3097 
Q 1578 3097 1268 2742 
Q 959 2388 959 1747 
Q 959 1106 1268 751 
Q 1578 397 2138 397 
Q 2388 397 2633 464 
Q 2878 531 3122 666 
L 3122 134 
Q 2881 22 2623 -34 
Q 2366 -91 2075 -91 
Q 1284 -91 818 406 
Q 353 903 353 1747 
Q 353 2603 823 3093 
Q 1294 3584 2113 3584 
Q 2378 3584 2631 3529 
Q 2884 3475 3122 3366 
z
" transform="scale(0.015625)"/>
      </defs>
      <use xlink:href="#DejaVuSans-49"/>
      <use xlink:href="#DejaVuSans-6e" x="29.492188"/>
      <use xlink:href="#DejaVuSans-73" x="92.871094"/>
      <use xlink:href="#DejaVuSans-74" x="144.970703"/>
      <use xlink:href="#DejaVuSans-61" x="184.179688"/>
      <use xlink:href="#DejaVuSans-6e" x="245.458984"/>
      <use xlink:href="#DejaVuSans-63" x="308.837891"/>
      <use xlink:href="#DejaVuSans-65" x="363.818359"/>
      <use xlink:href="#DejaVuSans-73" x="425.341797"/>
     </g>
    </g>
   </g>
   <g id="line2d_57">
    <path d="M 64.2325 615.923639 
L 73.352136 613.609018 
L 82.471773 611.294397 
L 91.591409 608.979776 
L 100.711045 606.665155 
L 109.830682 604.350534 
L 118.950318 602.035913 
L 128.069955 599.721292 
L 137.189591 597.406671 
L 146.309227 595.09205 
L 155.428864 592.777429 
L 164.5485 590.462808 
L 173.668136 588.148187 
L 182.787773 585.833566 
L 191.907409 583.518945 
L 201.027045 581.204324 
L 210.146682 578.889703 
L 219.266318 576.575082 
L 228.385955 574.260461 
L 237.505591 571.94584 
L 246.625227 569.631219 
L 255.744864 567.316598 
L 264.8645 565.001977 
L 273.984136 562.687356 
L 283.103773 560.372735 
L 292.223409 558.058114 
L 301.343045 555.743493 
L 310.462682 553.428872 
L 319.582318 551.114251 
L 328.701955 548.79963 
L 337.821591 546.48501 
L 346.941227 544.170389 
L 356.060864 541.855768 
L 365.1805 539.541147 
L 374.300136 537.226526 
L 383.419773 534.911905 
L 392.539409 532.597284 
L 401.659045 530.282663 
L 410.778682 527.968042 
L 419.898318 525.653421 
L 429.017955 523.3388 
L 438.137591 521.024179 
L 447.257227 518.709558 
L 456.376864 516.394937 
L 465.4965 514.080316 
L 474.616136 511.765695 
L 483.735773 509.451074 
L 492.855409 507.136453 
L 501.975045 504.821832 
L 511.094682 502.507211 
L 520.214318 500.19259 
L 529.333955 497.877969 
L 538.453591 495.563348 
L 547.573227 493.248727 
L 556.692864 490.934106 
L 565.8125 488.619485 
L 574.932136 486.304864 
L 584.051773 483.990243 
L 593.171409 481.675622 
L 602.291045 479.361001 
L 611.410682 477.04638 
L 620.530318 474.731759 
L 629.649955 472.417138 
L 638.769591 470.102517 
L 647.889227 467.787896 
L 657.008864 465.473275 
L 666.1285 463.158654 
L 675.248136 460.844033 
L 684.367773 458.529412 
L 693.487409 456.214791 
L 702.607045 453.90017 
L 711.726682 451.58555 
L 720.846318 449.270929 
L 729.965955 446.956308 
L 739.085591 444.641687 
L 748.205227 442.327066 
L 757.324864 440.012445 
L 766.4445 437.697824 
L 775.564136 435.383203 
L 784.683773 433.068582 
L 793.803409 430.753961 
L 802.923045 428.43934 
L 812.042682 426.124719 
L 821.162318 423.810098 
L 830.281955 421.495477 
L 839.401591 419.180856 
L 848.521227 416.866235 
L 857.640864 414.551614 
L 866.7605 412.236993 
L 875.880136 409.922372 
L 884.999773 407.607751 
L 894.119409 405.29313 
L 903.239045 402.978509 
L 912.358682 400.663888 
L 921.478318 398.349267 
L 930.597955 396.034646 
L 939.717591 393.720025 
L 948.837227 391.405404 
L 957.956864 389.090783 
L 967.0765 386.776162 
" clip-path="url(#pc6f206e2b4)" style="fill: none; stroke-dasharray: 3,4.95; stroke-dashoffset: 0; stroke: #4ac1fa; stroke-opacity: 0.9; stroke-width: 3"/>
   </g>
   <g id="line2d_58">
    <path d="M 64.2325 361.767507 
L 73.352136 364.19632 
L 82.471773 366.625134 
L 91.591409 369.053948 
L 100.711045 371.482761 
L 109.830682 373.911575 
L 118.950318 376.340389 
L 128.069955 378.769202 
L 137.189591 381.198016 
L 146.309227 383.626829 
L 155.428864 386.055643 
L 164.5485 388.484457 
L 173.668136 390.91327 
L 182.787773 393.342084 
L 191.907409 395.770897 
L 201.027045 398.199711 
L 210.146682 400.628525 
L 219.266318 403.057338 
L 228.385955 405.486152 
L 237.505591 407.914966 
L 246.625227 410.343779 
L 255.744864 412.772593 
L 264.8645 415.201406 
L 273.984136 417.63022 
L 283.103773 420.059034 
L 292.223409 422.487847 
L 301.343045 424.916661 
L 310.462682 427.345474 
L 319.582318 429.774288 
L 328.701955 432.203102 
L 337.821591 434.631915 
L 346.941227 437.060729 
L 356.060864 439.489543 
L 365.1805 441.918356 
L 374.300136 444.34717 
L 383.419773 446.775983 
L 392.539409 449.204797 
L 401.659045 451.633611 
L 410.778682 454.062424 
L 419.898318 456.491238 
L 429.017955 458.920051 
L 438.137591 461.348865 
L 447.257227 463.777679 
L 456.376864 466.206492 
L 465.4965 468.635306 
L 474.616136 471.06412 
L 483.735773 473.492933 
L 492.855409 475.921747 
L 501.975045 478.35056 
L 511.094682 480.779374 
L 520.214318 483.208188 
L 529.333955 485.637001 
L 538.453591 488.065815 
L 547.573227 490.494628 
L 556.692864 492.923442 
L 565.8125 495.352256 
L 574.932136 497.781069 
L 584.051773 500.209883 
L 593.171409 502.638697 
L 602.291045 505.06751 
L 611.410682 507.496324 
L 620.530318 509.925137 
L 629.649955 512.353951 
L 638.769591 514.782765 
L 647.889227 517.211578 
L 657.008864 519.640392 
L 666.1285 522.069205 
L 675.248136 524.498019 
L 684.367773 526.926833 
L 693.487409 529.355646 
L 702.607045 531.78446 
L 711.726682 534.213273 
L 720.846318 536.642087 
L 729.965955 539.070901 
L 739.085591 541.499714 
L 748.205227 543.928528 
L 757.324864 546.357342 
L 766.4445 548.786155 
L 775.564136 551.214969 
L 784.683773 553.643782 
L 793.803409 556.072596 
L 802.923045 558.50141 
L 812.042682 560.930223 
L 821.162318 563.359037 
L 830.281955 565.78785 
L 839.401591 568.216664 
L 848.521227 570.645478 
L 857.640864 573.074291 
L 866.7605 575.503105 
L 875.880136 577.931919 
L 884.999773 580.360732 
L 894.119409 582.789546 
L 903.239045 585.218359 
L 912.358682 587.647173 
L 921.478318 590.075987 
L 930.597955 592.5048 
L 939.717591 594.933614 
L 948.837227 597.362427 
L 957.956864 599.791241 
L 967.0765 602.220055 
" clip-path="url(#pc6f206e2b4)" style="fill: none; stroke-dasharray: 3,4.95; stroke-dashoffset: 0; stroke: #e9a942; stroke-opacity: 0.9; stroke-width: 3"/>
   </g>
   <g id="line2d_59">
    <path d="M 64.2325 554.187447 
L 73.352136 553.55403 
L 82.471773 552.920612 
L 91.591409 552.287195 
L 100.711045 551.653778 
L 109.830682 551.020361 
L 118.950318 550.386944 
L 128.069955 549.753527 
L 137.189591 549.12011 
L 146.309227 548.486692 
L 155.428864 547.853275 
L 164.5485 547.219858 
L 173.668136 546.586441 
L 182.787773 545.953024 
L 191.907409 545.319607 
L 201.027045 544.686189 
L 210.146682 544.052772 
L 219.266318 543.419355 
L 228.385955 542.785938 
L 237.505591 542.152521 
L 246.625227 541.519104 
L 255.744864 540.885687 
L 264.8645 540.252269 
L 273.984136 539.618852 
L 283.103773 538.985435 
L 292.223409 538.352018 
L 301.343045 537.718601 
L 310.462682 537.085184 
L 319.582318 536.451766 
L 328.701955 535.818349 
L 337.821591 535.184932 
L 346.941227 534.551515 
L 356.060864 533.918098 
L 365.1805 533.284681 
L 374.300136 532.651264 
L 383.419773 532.017846 
L 392.539409 531.384429 
L 401.659045 530.751012 
L 410.778682 530.117595 
L 419.898318 529.484178 
L 429.017955 528.850761 
L 438.137591 528.217344 
L 447.257227 527.583926 
L 456.376864 526.950509 
L 465.4965 526.317092 
L 474.616136 525.683675 
L 483.735773 525.050258 
L 492.855409 524.416841 
L 501.975045 523.783423 
L 511.094682 523.150006 
L 520.214318 522.516589 
L 529.333955 521.883172 
L 538.453591 521.249755 
L 547.573227 520.616338 
L 556.692864 519.982921 
L 565.8125 519.349503 
L 574.932136 518.716086 
L 584.051773 518.082669 
L 593.171409 517.449252 
L 602.291045 516.815835 
L 611.410682 516.182418 
L 620.530318 515.549001 
L 629.649955 514.915583 
L 638.769591 514.282166 
L 647.889227 513.648749 
L 657.008864 513.015332 
L 666.1285 512.381915 
L 675.248136 511.748498 
L 684.367773 511.11508 
L 693.487409 510.481663 
L 702.607045 509.848246 
L 711.726682 509.214829 
L 720.846318 508.581412 
L 729.965955 507.947995 
L 739.085591 507.314578 
L 748.205227 506.68116 
L 757.324864 506.047743 
L 766.4445 505.414326 
L 775.564136 504.780909 
L 784.683773 504.147492 
L 793.803409 503.514075 
L 802.923045 502.880658 
L 812.042682 502.24724 
L 821.162318 501.613823 
L 830.281955 500.980406 
L 839.401591 500.346989 
L 848.521227 499.713572 
L 857.640864 499.080155 
L 866.7605 498.446737 
L 875.880136 497.81332 
L 884.999773 497.179903 
L 894.119409 496.546486 
L 903.239045 495.913069 
L 912.358682 495.279652 
L 921.478318 494.646235 
L 930.597955 494.012817 
L 939.717591 493.3794 
L 948.837227 492.745983 
L 957.956864 492.112566 
L 967.0765 491.479149 
" clip-path="url(#pc6f206e2b4)" style="fill: none; stroke-dasharray: 3,4.95; stroke-dashoffset: 0; stroke: #9a5689; stroke-opacity: 0.9; stroke-width: 3"/>
   </g>
   <g id="line2d_60">
    <path d="M 64.2325 573.916734 
L 73.352136 573.50445 
L 82.471773 573.092167 
L 91.591409 572.679883 
L 100.711045 572.267599 
L 109.830682 571.855316 
L 118.950318 571.443032 
L 128.069955 571.030749 
L 137.189591 570.618465 
L 146.309227 570.206182 
L 155.428864 569.793898 
L 164.5485 569.381615 
L 173.668136 568.969331 
L 182.787773 568.557048 
L 191.907409 568.144764 
L 201.027045 567.732481 
L 210.146682 567.320197 
L 219.266318 566.907914 
L 228.385955 566.49563 
L 237.505591 566.083347 
L 246.625227 565.671063 
L 255.744864 565.258779 
L 264.8645 564.846496 
L 273.984136 564.434212 
L 283.103773 564.021929 
L 292.223409 563.609645 
L 301.343045 563.197362 
L 310.462682 562.785078 
L 319.582318 562.372795 
L 328.701955 561.960511 
L 337.821591 561.548228 
L 346.941227 561.135944 
L 356.060864 560.723661 
L 365.1805 560.311377 
L 374.300136 559.899094 
L 383.419773 559.48681 
L 392.539409 559.074527 
L 401.659045 558.662243 
L 410.778682 558.24996 
L 419.898318 557.837676 
L 429.017955 557.425392 
L 438.137591 557.013109 
L 447.257227 556.600825 
L 456.376864 556.188542 
L 465.4965 555.776258 
L 474.616136 555.363975 
L 483.735773 554.951691 
L 492.855409 554.539408 
L 501.975045 554.127124 
L 511.094682 553.714841 
L 520.214318 553.302557 
L 529.333955 552.890274 
L 538.453591 552.47799 
L 547.573227 552.065707 
L 556.692864 551.653423 
L 565.8125 551.24114 
L 574.932136 550.828856 
L 584.051773 550.416573 
L 593.171409 550.004289 
L 602.291045 549.592005 
L 611.410682 549.179722 
L 620.530318 548.767438 
L 629.649955 548.355155 
L 638.769591 547.942871 
L 647.889227 547.530588 
L 657.008864 547.118304 
L 666.1285 546.706021 
L 675.248136 546.293737 
L 684.367773 545.881454 
L 693.487409 545.46917 
L 702.607045 545.056887 
L 711.726682 544.644603 
L 720.846318 544.23232 
L 729.965955 543.820036 
L 739.085591 543.407753 
L 748.205227 542.995469 
L 757.324864 542.583185 
L 766.4445 542.170902 
L 775.564136 541.758618 
L 784.683773 541.346335 
L 793.803409 540.934051 
L 802.923045 540.521768 
L 812.042682 540.109484 
L 821.162318 539.697201 
L 830.281955 539.284917 
L 839.401591 538.872634 
L 848.521227 538.46035 
L 857.640864 538.048067 
L 866.7605 537.635783 
L 875.880136 537.2235 
L 884.999773 536.811216 
L 894.119409 536.398933 
L 903.239045 535.986649 
L 912.358682 535.574366 
L 921.478318 535.162082 
L 930.597955 534.749798 
L 939.717591 534.337515 
L 948.837227 533.925231 
L 957.956864 533.512948 
L 967.0765 533.100664 
" clip-path="url(#pc6f206e2b4)" style="fill: none; stroke-dasharray: 3,4.95; stroke-dashoffset: 0; stroke: #be503b; stroke-opacity: 0.9; stroke-width: 3"/>
   </g>
   <g id="line2d_61">
    <path d="M 64.2325 507.878681 
L 73.352136 507.544228 
L 82.471773 507.209776 
L 91.591409 506.875324 
L 100.711045 506.540871 
L 109.830682 506.206419 
L 118.950318 505.871966 
L 128.069955 505.537514 
L 137.189591 505.203061 
L 146.309227 504.868609 
L 155.428864 504.534156 
L 164.5485 504.199704 
L 173.668136 503.865251 
L 182.787773 503.530799 
L 191.907409 503.196347 
L 201.027045 502.861894 
L 210.146682 502.527442 
L 219.266318 502.192989 
L 228.385955 501.858537 
L 237.505591 501.524084 
L 246.625227 501.189632 
L 255.744864 500.855179 
L 264.8645 500.520727 
L 273.984136 500.186274 
L 283.103773 499.851822 
L 292.223409 499.51737 
L 301.343045 499.182917 
L 310.462682 498.848465 
L 319.582318 498.514012 
L 328.701955 498.17956 
L 337.821591 497.845107 
L 346.941227 497.510655 
L 356.060864 497.176202 
L 365.1805 496.84175 
L 374.300136 496.507297 
L 383.419773 496.172845 
L 392.539409 495.838393 
L 401.659045 495.50394 
L 410.778682 495.169488 
L 419.898318 494.835035 
L 429.017955 494.500583 
L 438.137591 494.16613 
L 447.257227 493.831678 
L 456.376864 493.497225 
L 465.4965 493.162773 
L 474.616136 492.828321 
L 483.735773 492.493868 
L 492.855409 492.159416 
L 501.975045 491.824963 
L 511.094682 491.490511 
L 520.214318 491.156058 
L 529.333955 490.821606 
L 538.453591 490.487153 
L 547.573227 490.152701 
L 556.692864 489.818248 
L 565.8125 489.483796 
L 574.932136 489.149344 
L 584.051773 488.814891 
L 593.171409 488.480439 
L 602.291045 488.145986 
L 611.410682 487.811534 
L 620.530318 487.477081 
L 629.649955 487.142629 
L 638.769591 486.808176 
L 647.889227 486.473724 
L 657.008864 486.139271 
L 666.1285 485.804819 
L 675.248136 485.470367 
L 684.367773 485.135914 
L 693.487409 484.801462 
L 702.607045 484.467009 
L 711.726682 484.132557 
L 720.846318 483.798104 
L 729.965955 483.463652 
L 739.085591 483.129199 
L 748.205227 482.794747 
L 757.324864 482.460294 
L 766.4445 482.125842 
L 775.564136 481.79139 
L 784.683773 481.456937 
L 793.803409 481.122485 
L 802.923045 480.788032 
L 812.042682 480.45358 
L 821.162318 480.119127 
L 830.281955 479.784675 
L 839.401591 479.450222 
L 848.521227 479.11577 
L 857.640864 478.781317 
L 866.7605 478.446865 
L 875.880136 478.112413 
L 884.999773 477.77796 
L 894.119409 477.443508 
L 903.239045 477.109055 
L 912.358682 476.774603 
L 921.478318 476.44015 
L 930.597955 476.105698 
L 939.717591 475.771245 
L 948.837227 475.436793 
L 957.956864 475.10234 
L 967.0765 474.767888 
" clip-path="url(#pc6f206e2b4)" style="fill: none; stroke-dasharray: 3,4.95; stroke-dashoffset: 0; stroke: #e2321d; stroke-opacity: 0.9; stroke-width: 3"/>
   </g>
   <g id="line2d_62">
    <path d="M 75.408549 645.743878 
L 82.471773 642.030968 
L 91.591409 637.237068 
L 100.711045 632.443168 
L 109.830682 627.649268 
L 118.950318 622.855368 
L 128.069955 618.061467 
L 137.189591 613.267567 
L 146.309227 608.473667 
L 155.428864 603.679767 
L 164.5485 598.885867 
L 173.668136 594.091967 
L 182.787773 589.298067 
L 191.907409 584.504167 
L 201.027045 579.710266 
L 210.146682 574.916366 
L 219.266318 570.122466 
L 228.385955 565.328566 
L 237.505591 560.534666 
L 246.625227 555.740766 
L 255.744864 550.946866 
L 264.8645 546.152966 
L 273.984136 541.359066 
L 283.103773 536.565165 
L 292.223409 531.771265 
L 301.343045 526.977365 
L 310.462682 522.183465 
L 319.582318 517.389565 
L 328.701955 512.595665 
L 337.821591 507.801765 
L 346.941227 503.007865 
L 356.060864 498.213964 
L 365.1805 493.420064 
L 374.300136 488.626164 
L 383.419773 483.832264 
L 392.539409 479.038364 
L 401.659045 474.244464 
L 410.778682 469.450564 
L 419.898318 464.656664 
L 429.017955 459.862763 
L 438.137591 455.068863 
L 447.257227 450.274963 
L 456.376864 445.481063 
L 465.4965 440.687163 
L 474.616136 435.893263 
L 483.735773 431.099363 
L 492.855409 426.305463 
L 501.975045 421.511563 
L 511.094682 416.717662 
L 520.214318 411.923762 
L 529.333955 407.129862 
L 538.453591 402.335962 
L 547.573227 397.542062 
L 556.692864 392.748162 
L 565.8125 387.954262 
L 574.932136 383.160362 
L 584.051773 378.366461 
L 593.171409 373.572561 
L 602.291045 368.778661 
L 611.410682 363.984761 
L 620.530318 359.190861 
L 629.649955 354.396961 
L 638.769591 349.603061 
L 647.889227 344.809161 
L 657.008864 340.01526 
L 666.1285 335.22136 
L 675.248136 330.42746 
L 684.367773 325.63356 
L 693.487409 320.83966 
L 702.607045 316.04576 
L 711.726682 311.25186 
L 720.846318 306.45796 
L 729.965955 301.66406 
L 739.085591 296.870159 
L 748.205227 292.076259 
L 757.324864 287.282359 
L 766.4445 282.488459 
L 775.564136 277.694559 
L 784.683773 272.900659 
L 793.803409 268.106759 
L 802.923045 263.312859 
L 812.042682 258.518958 
L 821.162318 253.725058 
L 830.281955 248.931158 
L 839.401591 244.137258 
L 848.521227 239.343358 
L 857.640864 234.549458 
L 866.7605 229.755558 
L 875.880136 224.961658 
L 884.999773 220.167757 
L 894.119409 215.373857 
L 903.239045 210.579957 
L 912.358682 205.786057 
L 921.478318 200.992157 
L 930.597955 196.198257 
L 939.717591 191.404357 
L 948.837227 186.610457 
L 957.956864 181.816557 
L 967.0765 177.022656 
" clip-path="url(#pc6f206e2b4)" style="fill: none; stroke-dasharray: 3,4.95; stroke-dashoffset: 0; stroke: #48b585; stroke-opacity: 0.9; stroke-width: 3"/>
   </g>
   <g id="line2d_63">
    <path d="M 64.2325 578.54175 
L 83.306669 578.539875 
L 96.022782 577.998219 
L 102.380838 577.192432 
L 108.738894 576.695512 
L 115.096951 575.947588 
L 121.455007 573.460846 
L 127.813063 574.95857 
L 134.17112 575.40486 
L 140.529176 575.35182 
L 153.245289 574.480134 
L 159.603345 574.421736 
L 172.319458 574.538264 
L 178.677514 573.980535 
L 185.03557 572.122778 
L 191.393627 571.728993 
L 197.751683 568.730598 
L 204.109739 568.521115 
L 210.467796 566.088484 
L 216.825852 569.080719 
L 223.183908 566.005441 
L 229.541965 562.531021 
L 235.900021 561.390115 
L 242.258077 565.165901 
L 248.616134 561.073747 
L 254.97419 558.030347 
L 261.332246 554.158927 
L 267.690303 554.555927 
L 274.048359 553.682634 
L 280.406415 551.478507 
L 286.764472 555.247596 
L 293.122528 551.991767 
L 299.480585 544.625567 
L 305.838641 542.701644 
L 312.196697 543.022566 
L 318.554754 541.642441 
L 324.91281 549.739421 
L 331.270866 546.963903 
L 337.628923 545.434837 
L 343.986979 549.964977 
L 350.345035 548.615124 
L 356.703092 539.051226 
L 363.061148 542.446889 
L 369.419204 540.833708 
L 375.777261 539.621813 
L 382.135317 542.139897 
L 388.493373 542.141504 
L 394.85143 546.664144 
L 401.209486 553.255631 
L 407.567542 559.220812 
L 413.925599 552.910868 
L 420.283655 551.922386 
L 426.641711 553.097849 
L 432.999768 555.671653 
L 439.357824 554.012664 
L 445.71588 555.462705 
L 452.073937 555.732462 
L 458.431993 554.370285 
M 471.148106 547.290451 
L 477.506162 538.339733 
L 483.864218 538.865048 
L 496.580331 540.905768 
L 502.938387 539.462423 
L 509.296444 540.909518 
L 515.6545 536.929338 
L 522.012556 538.111766 
L 528.370613 537.037294 
L 534.728669 536.177663 
L 541.086725 492.927961 
L 547.444782 512.636523 
L 553.802838 508.179246 
L 560.160894 504.012621 
L 566.518951 500.765899 
L 572.877007 514.548928 
L 579.235063 510.829396 
L 585.59312 525.412585 
L 591.951176 523.91754 
L 598.309232 526.65609 
L 604.667289 532.431075 
L 611.025345 531.745567 
L 617.383401 530.524296 
L 623.741458 510.434003 
L 630.099514 507.299256 
L 636.45757 516.009416 
L 642.815627 511.341317 
L 649.173683 506.88913 
L 655.531739 495.53766 
L 661.889796 487.852682 
L 668.247852 494.238436 
L 674.605908 491.256381 
L 680.963965 493.974841 
L 687.322021 501.093518 
L 693.680077 494.901442 
L 700.038134 484.145205 
L 706.39619 488.187265 
L 712.754246 490.186731 
L 719.112303 482.356025 
L 725.470359 476.188059 
L 731.828415 479.22235 
L 738.186472 508.316669 
L 744.544528 475.395666 
L 750.902585 469.428342 
L 757.260641 469.651487 
L 763.618697 459.333504 
L 769.976754 456.752199 
L 776.33481 461.730505 
L 782.692866 476.871424 
L 789.050923 474.689799 
L 795.408979 383.776246 
L 801.767035 250.746396 
L 808.125092 253.447711 
L 814.483148 272.336021 
L 820.841204 293.974936 
L 827.199261 295.544185 
L 833.557317 285.824648 
L 839.915373 299.765994 
L 846.27343 297.792512 
L 852.631486 369.511299 
L 858.989542 378.925719 
L 865.347599 370.814809 
L 871.705655 376.597027 
L 878.063711 390.027256 
L 884.421768 392.560609 
L 890.779824 392.965913 
L 897.13788 415.749753 
L 903.495937 452.529319 
L 909.853993 421.943704 
L 916.212049 401.506773 
L 922.570106 399.387296 
L 928.928162 403.958154 
L 935.286218 405.822072 
L 941.644275 393.042795 
L 948.002331 399.362383 
L 954.360387 383.377103 
L 960.718444 373.704445 
L 967.0765 349.315728 
L 967.0765 349.315728 
" clip-path="url(#pc6f206e2b4)" style="fill: none; stroke: #4ac1fa; stroke-width: 1.5; stroke-linecap: square"/>
   </g>
   <g id="line2d_64">
    <path d="M 64.2325 413.298103 
L 70.590556 451.696744 
L 76.948613 467.107686 
L 83.306669 430.594931 
L 89.664725 439.447604 
L 96.022782 408.929763 
L 102.380838 415.009329 
L 108.738894 402.953064 
L 115.096951 443.627355 
L 121.455007 422.519917 
L 127.813063 392.669637 
L 134.17112 368.592198 
L 140.529176 341.797908 
L 146.887232 328.267492 
L 153.245289 325.331513 
L 159.603345 285.449614 
L 165.961401 285.360409 
L 172.319458 288.470779 
L 178.677514 275.062249 
L 185.03557 285.268258 
L 191.393627 257.123042 
L 197.751683 219.88915 
L 204.109739 217.164262 
L 210.467796 201.456774 
L 216.825852 198.887257 
L 223.183908 129.467427 
L 229.541965 121.450276 
L 235.900021 124.752984 
L 242.258077 141.287689 
L 248.616134 119.446524 
L 254.97419 292.226743 
L 261.332246 385.909384 
L 267.690303 293.154683 
L 274.048359 479.211367 
L 280.406415 513.114959 
L 286.764472 522.935755 
L 293.122528 509.110937 
L 299.480585 512.317476 
L 305.838641 510.826717 
L 312.196697 516.116033 
L 318.554754 495.15459 
L 324.91281 509.210053 
L 331.270866 521.893429 
L 337.628923 548.841483 
L 343.986979 549.220803 
L 350.345035 550.077488 
L 356.703092 550.028197 
L 363.061148 549.028464 
L 369.419204 551.215447 
L 375.777261 548.715847 
L 382.135317 548.545474 
L 388.493373 553.084187 
L 394.85143 545.977832 
L 401.209486 535.66092 
L 407.567542 532.200162 
L 413.925599 523.479822 
L 420.283655 522.244621 
L 426.641711 527.139348 
L 432.999768 526.252125 
L 439.357824 531.089258 
L 445.71588 535.346695 
L 452.073937 538.299283 
L 458.431993 530.783873 
M 471.148106 492.100743 
L 477.506162 492.271919 
L 483.864218 501.008064 
L 490.222275 509.222376 
L 496.580331 550.229912 
L 502.938387 549.767281 
L 509.296444 551.048557 
L 515.6545 549.116865 
L 522.012556 552.867471 
L 528.370613 550.214107 
L 534.728669 547.22482 
L 541.086725 545.805049 
L 547.444782 540.689588 
L 553.802838 543.877911 
L 560.160894 546.07293 
L 566.518951 549.4994 
L 572.877007 552.704867 
L 579.235063 545.132935 
L 585.59312 545.938989 
L 591.951176 545.838802 
L 598.309232 538.687979 
L 604.667289 532.536353 
L 611.025345 534.669224 
L 617.383401 534.854597 
L 623.741458 535.533409 
L 630.099514 533.379375 
L 636.45757 522.399189 
L 642.815627 519.329537 
L 649.173683 528.025232 
L 655.531739 515.878422 
L 661.889796 527.144438 
L 668.247852 521.901465 
L 680.963965 522.657962 
L 687.322021 523.719576 
L 693.680077 518.882175 
L 700.038134 513.24006 
L 706.39619 520.806099 
L 712.754246 521.857533 
L 719.112303 517.268726 
L 725.470359 515.440169 
L 731.828415 513.877349 
L 738.186472 515.004594 
L 744.544528 497.06003 
L 750.902585 495.995469 
L 757.260641 503.033514 
L 763.618697 504.417657 
L 769.976754 520.802616 
L 776.33481 514.290422 
L 782.692866 519.056834 
L 789.050923 525.570368 
L 795.408979 540.900678 
L 801.767035 520.869319 
L 808.125092 476.999471 
L 814.483148 538.635474 
L 820.841204 561.668711 
L 827.199261 560.45253 
L 833.557317 557.782021 
L 839.915373 557.173395 
L 846.27343 557.401898 
L 852.631486 555.702459 
L 858.989542 559.708088 
L 865.347599 559.773451 
L 871.705655 561.411277 
L 878.063711 560.468871 
L 884.421768 562.550576 
L 890.779824 562.251085 
L 897.13788 559.54602 
L 903.495937 557.578699 
L 909.853993 563.138576 
L 916.212049 565.012941 
L 922.570106 564.715325 
L 928.928162 564.08125 
L 935.286218 562.948648 
L 941.644275 559.933108 
L 948.002331 559.512535 
L 954.360387 558.531285 
L 960.718444 561.282694 
L 967.0765 555.742105 
L 967.0765 555.742105 
" clip-path="url(#pc6f206e2b4)" style="fill: none; stroke: #e9a942; stroke-width: 1.5; stroke-linecap: square"/>
   </g>
   <g id="line2d_65">
    <path d="M 64.2325 575.595592 
L 70.590556 574.578446 
L 76.948613 575.452007 
L 83.306669 574.41102 
L 89.664725 573.765962 
L 96.022782 573.37432 
L 102.380838 573.458435 
L 108.738894 572.931512 
L 115.096951 573.501563 
L 121.455007 572.730333 
L 127.813063 572.103491 
L 134.17112 572.833468 
L 140.529176 572.973034 
L 146.887232 572.602822 
L 153.245289 570.405927 
L 159.603345 563.036513 
L 165.961401 563.179829 
L 172.319458 560.429224 
L 178.677514 558.494318 
L 185.03557 558.934179 
L 191.393627 549.082309 
L 197.751683 550.960692 
L 204.109739 547.750939 
L 210.467796 549.706204 
L 216.825852 550.89774 
L 223.183908 558.997667 
L 229.541965 556.977306 
L 235.900021 557.604684 
L 242.258077 562.116073 
L 248.616134 556.259652 
L 261.332246 489.646415 
L 267.690303 521.802885 
L 274.048359 501.601421 
L 280.406415 520.132109 
L 286.764472 523.410173 
L 293.122528 521.825387 
L 299.480585 528.041572 
L 305.838641 529.145243 
L 312.196697 530.802357 
L 318.554754 530.075863 
L 324.91281 531.014251 
L 331.270866 531.726548 
L 337.628923 524.705915 
L 343.986979 530.770479 
L 350.345035 523.419817 
L 356.703092 520.558576 
L 363.061148 507.648573 
L 369.419204 507.115222 
L 375.777261 497.886443 
L 382.135317 491.900636 
L 388.493373 505.069412 
L 394.85143 508.054949 
L 401.209486 500.448192 
L 407.567542 514.324711 
L 413.925599 503.583743 
L 420.283655 510.662238 
L 426.641711 514.996557 
L 432.999768 512.40427 
L 439.357824 514.566876 
L 445.71588 510.924226 
L 452.073937 523.378027 
L 458.431993 510.597143 
M 471.148106 518.219169 
L 477.506162 512.385786 
L 483.864218 524.522684 
L 490.222275 527.857002 
L 496.580331 526.222926 
L 502.938387 518.419009 
L 509.296444 522.872803 
L 515.6545 519.911911 
L 522.012556 519.476068 
L 528.370613 513.65474 
L 534.728669 508.935475 
L 541.086725 509.046914 
L 547.444782 504.301129 
L 553.802838 501.665713 
L 560.160894 510.113885 
L 566.518951 515.212737 
L 572.877007 528.032732 
L 579.235063 516.432401 
L 585.59312 512.588304 
L 591.951176 512.915655 
L 598.309232 513.943248 
L 604.667289 495.721159 
L 611.025345 494.443901 
L 617.383401 503.80287 
L 623.741458 499.310768 
L 630.099514 500.530432 
L 636.45757 508.070486 
L 642.815627 520.164255 
L 649.173683 521.312127 
L 655.531739 520.157826 
L 661.889796 511.56848 
L 668.247852 501.949131 
L 674.605908 506.276485 
L 680.963965 506.302738 
L 687.322021 511.272204 
L 693.680077 509.867166 
L 700.038134 513.13639 
L 706.39619 510.800733 
L 712.754246 514.588842 
L 719.112303 514.919943 
L 725.470359 514.034328 
L 731.828415 513.281045 
L 738.186472 532.178999 
L 744.544528 516.750644 
L 750.902585 514.227202 
L 757.260641 504.07209 
L 763.618697 507.198265 
L 769.976754 510.641343 
L 776.33481 505.747152 
L 782.692866 512.198001 
L 789.050923 512.073437 
L 795.408979 509.513295 
L 801.767035 511.036736 
L 808.125092 512.933871 
L 814.483148 514.365429 
L 820.841204 521.281052 
L 827.199261 520.029511 
L 833.557317 508.426501 
L 839.915373 506.938152 
L 846.27343 506.646429 
L 852.631486 503.944043 
L 858.989542 499.927431 
L 865.347599 502.150042 
L 871.705655 506.862878 
L 878.063711 496.851618 
L 884.421768 504.536864 
L 890.779824 506.266038 
L 897.13788 494.569269 
L 903.495937 517.659297 
L 909.853993 493.943231 
L 916.212049 495.231472 
L 922.570106 497.410686 
L 928.928162 501.974044 
L 935.286218 498.509803 
L 941.644275 497.688479 
L 948.002331 506.419534 
L 954.360387 501.341308 
L 960.718444 507.153261 
L 967.0765 503.796708 
L 967.0765 503.796708 
" clip-path="url(#pc6f206e2b4)" style="fill: none; stroke: #9a5689; stroke-width: 1.5; stroke-linecap: square"/>
   </g>
   <g id="line2d_66">
    <path d="M 64.2325 577.449866 
L 70.590556 576.880886 
L 76.948613 577.115818 
L 83.306669 576.702477 
L 96.022782 576.251633 
L 102.380838 576.174215 
L 115.096951 576.524068 
L 127.813063 576.068938 
L 134.17112 576.382359 
L 140.529176 576.555946 
L 146.887232 575.278688 
L 153.245289 572.438343 
L 159.603345 571.860791 
L 165.961401 571.824627 
L 172.319458 573.007858 
L 178.677514 572.62077 
L 185.03557 573.300385 
L 191.393627 572.671667 
L 197.751683 573.499153 
L 204.109739 572.840968 
L 210.467796 572.668721 
L 216.825852 573.284848 
L 223.183908 571.235288 
L 229.541965 570.21841 
L 242.258077 571.236627 
L 248.616134 569.353957 
L 254.97419 567.092771 
L 261.332246 566.734078 
L 267.690303 550.030876 
L 274.048359 547.025784 
L 280.406415 534.074527 
L 286.764472 545.594226 
L 293.122528 528.066218 
L 299.480585 527.295791 
L 305.838641 529.111758 
L 312.196697 538.710213 
L 318.554754 523.368919 
L 324.91281 531.608948 
L 331.270866 542.513859 
L 337.628923 550.94703 
L 343.986979 533.393841 
L 350.345035 548.610837 
L 356.703092 573.187874 
L 363.061148 571.417983 
L 369.419204 567.958296 
L 375.777261 559.873103 
L 382.135317 569.042412 
L 388.493373 568.701399 
L 394.85143 565.730059 
L 401.209486 566.255107 
L 407.567542 565.591029 
L 420.283655 561.342432 
L 426.641711 562.876588 
L 432.999768 566.143936 
L 439.357824 567.283503 
L 445.71588 566.064643 
L 452.073937 566.322881 
L 458.431993 561.704339 
M 471.148106 562.229119 
L 483.864218 562.526199 
L 490.222275 560.191881 
L 496.580331 558.094371 
L 502.938387 558.84685 
L 509.296444 562.950791 
L 515.6545 560.305999 
L 522.012556 558.445831 
L 528.370613 556.175002 
L 534.728669 557.61406 
L 541.086725 555.880064 
L 547.444782 548.185978 
L 553.802838 548.209819 
L 560.160894 549.426536 
L 566.518951 552.733531 
L 572.877007 558.422258 
L 579.235063 555.801307 
L 585.59312 553.692813 
L 591.951176 555.964983 
L 604.667289 550.223751 
L 611.025345 552.536102 
L 617.383401 546.470198 
L 623.741458 549.722813 
L 630.099514 547.296612 
L 636.45757 546.40805 
L 642.815627 549.096774 
L 649.173683 547.861574 
L 655.531739 550.795409 
L 661.889796 548.975692 
L 668.247852 548.469128 
L 674.605908 549.690399 
L 680.963965 549.084987 
L 687.322021 548.009712 
L 693.680077 547.576012 
L 700.038134 549.98239 
L 706.39619 551.060076 
L 712.754246 544.366526 
L 719.112303 548.28563 
L 725.470359 541.937914 
L 731.828415 548.292595 
L 738.186472 567.204478 
L 744.544528 553.736746 
L 750.902585 553.828094 
L 757.260641 545.493771 
L 763.618697 545.74933 
L 769.976754 540.739146 
L 776.33481 546.066233 
L 782.692866 547.847108 
L 789.050923 542.204188 
L 795.408979 542.300626 
L 801.767035 539.803704 
L 808.125092 542.691465 
L 814.483148 534.788699 
L 820.841204 541.991223 
L 827.199261 523.639479 
L 833.557317 517.397845 
L 839.915373 533.80611 
L 846.27343 538.068101 
L 852.631486 531.777445 
L 858.989542 536.878976 
L 865.347599 537.990416 
L 871.705655 543.447961 
L 878.063711 539.202311 
L 884.421768 535.384199 
L 890.779824 542.992831 
L 897.13788 531.543585 
L 903.495937 556.905246 
L 909.853993 531.947817 
L 916.212049 527.679397 
L 922.570106 521.672159 
L 928.928162 521.222922 
L 935.286218 528.847627 
L 941.644275 525.381243 
L 948.002331 534.90362 
L 954.360387 529.726278 
L 960.718444 531.643772 
L 967.0765 523.263374 
L 967.0765 523.263374 
" clip-path="url(#pc6f206e2b4)" style="fill: none; stroke: #be503b; stroke-width: 1.5; stroke-linecap: square"/>
   </g>
   <g id="line2d_67">
    <path d="M 64.2325 559.118213 
L 70.590556 562.379936 
L 76.948613 565.161347 
L 83.306669 554.830773 
L 89.664725 553.376981 
L 96.022782 548.203122 
L 102.380838 540.500731 
L 108.738894 539.501802 
L 115.096951 526.067287 
L 121.455007 505.814122 
L 127.813063 479.942415 
L 134.17112 481.241907 
L 140.529176 469.338334 
L 146.887232 487.736957 
L 153.245289 470.529602 
L 159.603345 460.20385 
L 165.961401 455.6863 
L 172.319458 452.213755 
L 178.677514 445.057306 
L 185.03557 445.589318 
L 191.393627 424.870843 
L 197.751683 418.575097 
L 204.109739 408.188804 
L 210.467796 413.385701 
L 216.825852 412.747875 
L 223.183908 404.576424 
L 229.541965 419.470356 
L 235.900021 482.226639 
L 242.258077 474.450313 
L 248.616134 464.534687 
L 254.97419 474.8666 
L 261.332246 468.762121 
L 267.690303 472.638899 
L 274.048359 473.043668 
L 280.406415 464.145455 
L 286.764472 461.099913 
L 293.122528 472.160463 
L 299.480585 511.168266 
L 305.838641 511.955569 
L 312.196697 518.524554 
L 318.554754 514.855652 
L 324.91281 519.967095 
L 331.270866 519.084961 
L 337.628923 516.428115 
L 343.986979 517.293907 
L 350.345035 513.66358 
L 356.703092 515.999505 
L 363.061148 515.17068 
L 369.419204 518.204971 
L 375.777261 511.283455 
L 382.135317 524.775296 
L 388.493373 532.571177 
L 394.85143 532.760569 
L 401.209486 536.814417 
L 407.567542 546.922114 
L 413.925599 537.438848 
L 420.283655 533.474473 
L 426.641711 532.292849 
L 432.999768 531.367587 
L 439.357824 531.941656 
L 445.71588 531.665471 
L 452.073937 534.012111 
L 458.431993 531.018537 
M 471.148106 528.496971 
L 477.506162 531.412055 
L 483.864218 530.091936 
L 490.222275 527.937367 
L 496.580331 523.804226 
L 502.938387 524.091663 
L 509.296444 527.396782 
L 515.6545 517.263369 
L 522.012556 522.547059 
L 528.370613 520.942718 
L 534.728669 520.798062 
L 541.086725 517.249439 
L 547.444782 514.301673 
L 553.802838 510.92878 
L 560.160894 509.567675 
L 566.518951 511.132102 
L 572.877007 533.060061 
L 579.235063 514.742338 
L 585.59312 509.215679 
L 591.951176 506.658484 
L 598.309232 504.677234 
L 604.667289 498.666782 
L 611.025345 501.230673 
L 617.383401 500.253442 
L 623.741458 496.436938 
L 630.099514 501.855373 
L 642.815627 497.238706 
L 649.173683 447.781926 
L 655.531739 494.711782 
L 661.889796 496.71607 
L 668.247852 491.105564 
L 674.605908 487.588551 
L 680.963965 488.815447 
L 687.322021 486.665164 
L 693.680077 483.91563 
L 700.038134 486.540599 
L 706.39619 471.519959 
L 712.754246 480.762132 
L 719.112303 477.65712 
L 725.470359 482.686591 
L 731.828415 487.983676 
L 738.186472 518.842529 
L 744.544528 489.152442 
L 750.902585 484.540329 
L 763.618697 477.072335 
L 769.976754 479.908662 
L 776.33481 466.934903 
L 782.692866 475.030276 
L 789.050923 479.520502 
L 795.408979 484.84116 
L 801.767035 474.312622 
L 808.125092 480.954203 
L 814.483148 475.222079 
L 820.841204 490.271918 
L 827.199261 492.005913 
L 833.557317 471.574339 
L 839.915373 475.974825 
L 846.27343 480.58533 
L 852.631486 474.694353 
L 858.989542 457.784078 
L 865.347599 453.754072 
L 871.705655 463.239213 
L 878.063711 456.504409 
L 884.421768 452.21054 
L 890.779824 460.734255 
L 897.13788 461.919094 
L 903.495937 488.656593 
L 909.853993 466.583711 
L 916.212049 443.269734 
L 922.570106 430.555552 
L 928.928162 435.727268 
L 935.286218 443.355724 
L 941.644275 440.578331 
L 948.002331 451.771215 
L 954.360387 445.185889 
L 960.718444 448.004 
L 967.0765 454.296799 
L 967.0765 454.296799 
" clip-path="url(#pc6f206e2b4)" style="fill: none; stroke: #e2321d; stroke-width: 1.5; stroke-linecap: square"/>
   </g>
   <g id="line2d_68">
    <path d="M 64.2325 578.54175 
L 121.455007 578.54175 
L 127.813063 578.323695 
L 134.17112 574.947319 
L 140.529176 577.344321 
L 146.887232 577.380217 
L 153.245289 575.48067 
L 159.603345 571.981605 
L 165.961401 572.036253 
L 172.319458 572.265827 
L 178.677514 571.494061 
L 185.03557 570.587283 
L 191.393627 570.195105 
L 197.751683 569.461378 
L 204.109739 567.627195 
L 210.467796 567.261805 
L 216.825852 565.902307 
L 223.183908 563.551381 
L 229.541965 557.602809 
L 235.900021 559.221615 
L 242.258077 559.833992 
L 248.616134 554.117941 
L 254.97419 545.968992 
L 261.332246 535.775573 
L 267.690303 533.313744 
L 274.048359 528.151404 
L 280.406415 518.319357 
L 286.764472 526.956921 
L 293.122528 519.513572 
L 299.480585 514.289351 
L 305.838641 506.723579 
L 312.196697 486.875451 
L 318.554754 462.492895 
L 324.91281 475.815436 
L 331.270866 493.522121 
L 337.628923 492.980197 
L 343.986979 469.259041 
L 350.345035 470.107957 
L 356.703092 472.203324 
L 363.061148 453.45217 
L 369.419204 463.766403 
L 375.777261 466.684434 
L 382.135317 498.556414 
L 388.493373 508.207909 
L 394.85143 507.002979 
L 401.209486 512.128888 
L 407.567542 516.530981 
L 413.925599 510.054951 
L 420.283655 520.960934 
L 426.641711 512.235773 
L 432.999768 514.691976 
L 439.357824 514.885386 
L 445.71588 507.030839 
L 452.073937 515.382842 
L 458.431993 509.4849 
M 471.148106 510.541959 
L 477.506162 505.976458 
L 483.864218 506.033517 
L 490.222275 520.618314 
L 496.580331 506.707506 
L 502.938387 498.508999 
L 509.296444 499.016634 
L 515.6545 502.482751 
L 522.012556 486.42916 
L 528.370613 471.679081 
L 534.728669 489.22343 
L 541.086725 474.999737 
L 547.444782 430.894154 
L 553.802838 421.520452 
L 560.160894 458.618528 
L 566.518951 455.913195 
L 572.877007 460.36056 
L 579.235063 442.645035 
L 585.59312 422.811104 
L 591.951176 438.91077 
L 598.309232 402.369886 
L 604.667289 395.378184 
L 611.025345 391.859028 
L 617.383401 384.115116 
L 623.741458 403.081647 
L 630.099514 443.47761 
L 636.45757 442.739061 
L 642.815627 438.883714 
L 649.173683 433.4626 
L 655.531739 431.555821 
L 661.889796 414.072013 
L 668.247852 396.214242 
L 674.605908 393.277459 
L 680.963965 386.984928 
L 687.322021 384.830626 
L 693.680077 359.582815 
L 700.038134 327.735212 
L 706.39619 319.223551 
L 712.754246 303.251129 
L 719.112303 319.636089 
L 725.470359 332.736287 
L 731.828415 294.391491 
L 738.186472 352.191166 
L 744.544528 284.075651 
L 750.902585 266.98536 
L 757.260641 208.632778 
L 763.618697 202.526692 
L 769.976754 213.125147 
L 776.33481 211.491339 
L 782.692866 234.993637 
L 789.050923 273.493268 
L 795.408979 265.932587 
L 801.767035 246.225631 
L 808.125092 299.533205 
L 814.483148 321.746189 
L 820.841204 331.822812 
L 827.199261 281.23852 
L 833.557317 233.504485 
L 839.915373 232.926933 
L 846.27343 194.782512 
L 852.631486 171.335934 
L 858.989542 149.894447 
L 865.347599 165.234937 
L 871.705655 194.17201 
L 878.063711 170.411743 
L 884.421768 54.021608 
L 890.779824 77.520423 
L 897.13788 68.681144 
L 903.495937 162.340748 
L 909.853993 89.290859 
L 916.212049 110.383028 
L 922.570106 152.361634 
L 928.928162 129.337505 
L 935.286218 130.738256 
L 941.644275 202.240327 
L 948.002331 158.474417 
L 954.360387 147.814885 
L 960.718444 152.395119 
L 967.0765 150.921236 
L 967.0765 150.921236 
" clip-path="url(#pc6f206e2b4)" style="fill: none; stroke: #48b585; stroke-width: 6; stroke-linecap: square"/>
   </g>
   <g id="patch_3">
    <path d="M 64.2325 578.54175 
L 64.2325 24.14175 
" style="fill: none; stroke: #ffffff; stroke-linejoin: miter; stroke-linecap: square"/>
   </g>
   <g id="patch_4">
    <path d="M 967.0765 578.54175 
L 967.0765 24.14175 
" style="fill: none; stroke: #ffffff; stroke-linejoin: miter; stroke-linecap: square"/>
   </g>
   <g id="patch_5">
    <path d="M 64.2325 578.54175 
L 967.0765 578.54175 
" style="fill: none; stroke: #ffffff; stroke-linejoin: miter; stroke-linecap: square"/>
   </g>
   <g id="patch_6">
    <path d="M 64.2325 24.14175 
L 967.0765 24.14175 
" style="fill: none; stroke: #ffffff; stroke-linejoin: miter; stroke-linecap: square"/>
   </g>
   <g id="text_31">
    <!-- Potentially Ephemeral Enterprise Linux Instances by Distribution (2 Week Resample) -->
    <g transform="translate(64.2325 18.14175) scale(0.144 -0.144)">
     <defs>
      <path id="DejaVuSans-50" d="M 1259 4147 
L 1259 2394 
L 2053 2394 
Q 2494 2394 2734 2622 
Q 2975 2850 2975 3272 
Q 2975 3691 2734 3919 
Q 2494 4147 2053 4147 
L 1259 4147 
z
M 628 4666 
L 2053 4666 
Q 2838 4666 3239 4311 
Q 3641 3956 3641 3272 
Q 3641 2581 3239 2228 
Q 2838 1875 2053 1875 
L 1259 1875 
L 1259 0 
L 628 0 
L 628 4666 
z
" transform="scale(0.015625)"/>
      <path id="DejaVuSans-6f" d="M 1959 3097 
Q 1497 3097 1228 2736 
Q 959 2375 959 1747 
Q 959 1119 1226 758 
Q 1494 397 1959 397 
Q 2419 397 2687 759 
Q 2956 1122 2956 1747 
Q 2956 2369 2687 2733 
Q 2419 3097 1959 3097 
z
M 1959 3584 
Q 2709 3584 3137 3096 
Q 3566 2609 3566 1747 
Q 3566 888 3137 398 
Q 2709 -91 1959 -91 
Q 1206 -91 779 398 
Q 353 888 353 1747 
Q 353 2609 779 3096 
Q 1206 3584 1959 3584 
z
" transform="scale(0.015625)"/>
      <path id="DejaVuSans-69" d="M 603 3500 
L 1178 3500 
L 1178 0 
L 603 0 
L 603 3500 
z
M 603 4863 
L 1178 4863 
L 1178 4134 
L 603 4134 
L 603 4863 
z
" transform="scale(0.015625)"/>
      <path id="DejaVuSans-6c" d="M 603 4863 
L 1178 4863 
L 1178 0 
L 603 0 
L 603 4863 
z
" transform="scale(0.015625)"/>
      <path id="DejaVuSans-79" d="M 2059 -325 
Q 1816 -950 1584 -1140 
Q 1353 -1331 966 -1331 
L 506 -1331 
L 506 -850 
L 844 -850 
Q 1081 -850 1212 -737 
Q 1344 -625 1503 -206 
L 1606 56 
L 191 3500 
L 800 3500 
L 1894 763 
L 2988 3500 
L 3597 3500 
L 2059 -325 
z
" transform="scale(0.015625)"/>
      <path id="DejaVuSans-20" transform="scale(0.015625)"/>
      <path id="DejaVuSans-45" d="M 628 4666 
L 3578 4666 
L 3578 4134 
L 1259 4134 
L 1259 2753 
L 3481 2753 
L 3481 2222 
L 1259 2222 
L 1259 531 
L 3634 531 
L 3634 0 
L 628 0 
L 628 4666 
z
" transform="scale(0.015625)"/>
      <path id="DejaVuSans-70" d="M 1159 525 
L 1159 -1331 
L 581 -1331 
L 581 3500 
L 1159 3500 
L 1159 2969 
Q 1341 3281 1617 3432 
Q 1894 3584 2278 3584 
Q 2916 3584 3314 3078 
Q 3713 2572 3713 1747 
Q 3713 922 3314 415 
Q 2916 -91 2278 -91 
Q 1894 -91 1617 61 
Q 1341 213 1159 525 
z
M 3116 1747 
Q 3116 2381 2855 2742 
Q 2594 3103 2138 3103 
Q 1681 3103 1420 2742 
Q 1159 2381 1159 1747 
Q 1159 1113 1420 752 
Q 1681 391 2138 391 
Q 2594 391 2855 752 
Q 3116 1113 3116 1747 
z
" transform="scale(0.015625)"/>
      <path id="DejaVuSans-68" d="M 3513 2113 
L 3513 0 
L 2938 0 
L 2938 2094 
Q 2938 2591 2744 2837 
Q 2550 3084 2163 3084 
Q 1697 3084 1428 2787 
Q 1159 2491 1159 1978 
L 1159 0 
L 581 0 
L 581 4863 
L 1159 4863 
L 1159 2956 
Q 1366 3272 1645 3428 
Q 1925 3584 2291 3584 
Q 2894 3584 3203 3211 
Q 3513 2838 3513 2113 
z
" transform="scale(0.015625)"/>
      <path id="DejaVuSans-6d" d="M 3328 2828 
Q 3544 3216 3844 3400 
Q 4144 3584 4550 3584 
Q 5097 3584 5394 3201 
Q 5691 2819 5691 2113 
L 5691 0 
L 5113 0 
L 5113 2094 
Q 5113 2597 4934 2840 
Q 4756 3084 4391 3084 
Q 3944 3084 3684 2787 
Q 3425 2491 3425 1978 
L 3425 0 
L 2847 0 
L 2847 2094 
Q 2847 2600 2669 2842 
Q 2491 3084 2119 3084 
Q 1678 3084 1418 2786 
Q 1159 2488 1159 1978 
L 1159 0 
L 581 0 
L 581 3500 
L 1159 3500 
L 1159 2956 
Q 1356 3278 1631 3431 
Q 1906 3584 2284 3584 
Q 2666 3584 2933 3390 
Q 3200 3197 3328 2828 
z
" transform="scale(0.015625)"/>
      <path id="DejaVuSans-72" d="M 2631 2963 
Q 2534 3019 2420 3045 
Q 2306 3072 2169 3072 
Q 1681 3072 1420 2755 
Q 1159 2438 1159 1844 
L 1159 0 
L 581 0 
L 581 3500 
L 1159 3500 
L 1159 2956 
Q 1341 3275 1631 3429 
Q 1922 3584 2338 3584 
Q 2397 3584 2469 3576 
Q 2541 3569 2628 3553 
L 2631 2963 
z
" transform="scale(0.015625)"/>
      <path id="DejaVuSans-4c" d="M 628 4666 
L 1259 4666 
L 1259 531 
L 3531 531 
L 3531 0 
L 628 0 
L 628 4666 
z
" transform="scale(0.015625)"/>
      <path id="DejaVuSans-75" d="M 544 1381 
L 544 3500 
L 1119 3500 
L 1119 1403 
Q 1119 906 1312 657 
Q 1506 409 1894 409 
Q 2359 409 2629 706 
Q 2900 1003 2900 1516 
L 2900 3500 
L 3475 3500 
L 3475 0 
L 2900 0 
L 2900 538 
Q 2691 219 2414 64 
Q 2138 -91 1772 -91 
Q 1169 -91 856 284 
Q 544 659 544 1381 
z
M 1991 3584 
L 1991 3584 
z
" transform="scale(0.015625)"/>
      <path id="DejaVuSans-78" d="M 3513 3500 
L 2247 1797 
L 3578 0 
L 2900 0 
L 1881 1375 
L 863 0 
L 184 0 
L 1544 1831 
L 300 3500 
L 978 3500 
L 1906 2253 
L 2834 3500 
L 3513 3500 
z
" transform="scale(0.015625)"/>
      <path id="DejaVuSans-62" d="M 3116 1747 
Q 3116 2381 2855 2742 
Q 2594 3103 2138 3103 
Q 1681 3103 1420 2742 
Q 1159 2381 1159 1747 
Q 1159 1113 1420 752 
Q 1681 391 2138 391 
Q 2594 391 2855 752 
Q 3116 1113 3116 1747 
z
M 1159 2969 
Q 1341 3281 1617 3432 
Q 1894 3584 2278 3584 
Q 2916 3584 3314 3078 
Q 3713 2572 3713 1747 
Q 3713 922 3314 415 
Q 2916 -91 2278 -91 
Q 1894 -91 1617 61 
Q 1341 213 1159 525 
L 1159 0 
L 581 0 
L 581 4863 
L 1159 4863 
L 1159 2969 
z
" transform="scale(0.015625)"/>
      <path id="DejaVuSans-28" d="M 1984 4856 
Q 1566 4138 1362 3434 
Q 1159 2731 1159 2009 
Q 1159 1288 1364 580 
Q 1569 -128 1984 -844 
L 1484 -844 
Q 1016 -109 783 600 
Q 550 1309 550 2009 
Q 550 2706 781 3412 
Q 1013 4119 1484 4856 
L 1984 4856 
z
" transform="scale(0.015625)"/>
      <path id="DejaVuSans-57" d="M 213 4666 
L 850 4666 
L 1831 722 
L 2809 4666 
L 3519 4666 
L 4500 722 
L 5478 4666 
L 6119 4666 
L 4947 0 
L 4153 0 
L 3169 4050 
L 2175 0 
L 1381 0 
L 213 4666 
z
" transform="scale(0.015625)"/>
      <path id="DejaVuSans-52" d="M 2841 2188 
Q 3044 2119 3236 1894 
Q 3428 1669 3622 1275 
L 4263 0 
L 3584 0 
L 2988 1197 
Q 2756 1666 2539 1819 
Q 2322 1972 1947 1972 
L 1259 1972 
L 1259 0 
L 628 0 
L 628 4666 
L 2053 4666 
Q 2853 4666 3247 4331 
Q 3641 3997 3641 3322 
Q 3641 2881 3436 2590 
Q 3231 2300 2841 2188 
z
M 1259 4147 
L 1259 2491 
L 2053 2491 
Q 2509 2491 2742 2702 
Q 2975 2913 2975 3322 
Q 2975 3731 2742 3939 
Q 2509 4147 2053 4147 
L 1259 4147 
z
" transform="scale(0.015625)"/>
      <path id="DejaVuSans-29" d="M 513 4856 
L 1013 4856 
Q 1481 4119 1714 3412 
Q 1947 2706 1947 2009 
Q 1947 1309 1714 600 
Q 1481 -109 1013 -844 
L 513 -844 
Q 928 -128 1133 580 
Q 1338 1288 1338 2009 
Q 1338 2731 1133 3434 
Q 928 4138 513 4856 
z
" transform="scale(0.015625)"/>
     </defs>
     <use xlink:href="#DejaVuSans-50"/>
     <use xlink:href="#DejaVuSans-6f" x="56.677734"/>
     <use xlink:href="#DejaVuSans-74" x="117.859375"/>
     <use xlink:href="#DejaVuSans-65" x="157.068359"/>
     <use xlink:href="#DejaVuSans-6e" x="218.591797"/>
     <use xlink:href="#DejaVuSans-74" x="281.970703"/>
     <use xlink:href="#DejaVuSans-69" x="321.179688"/>
     <use xlink:href="#DejaVuSans-61" x="348.962891"/>
     <use xlink:href="#DejaVuSans-6c" x="410.242188"/>
     <use xlink:href="#DejaVuSans-6c" x="438.025391"/>
     <use xlink:href="#DejaVuSans-79" x="465.808594"/>
     <use xlink:href="#DejaVuSans-20" x="524.988281"/>
     <use xlink:href="#DejaVuSans-45" x="556.775391"/>
     <use xlink:href="#DejaVuSans-70" x="619.958984"/>
     <use xlink:href="#DejaVuSans-68" x="683.435547"/>
     <use xlink:href="#DejaVuSans-65" x="746.814453"/>
     <use xlink:href="#DejaVuSans-6d" x="808.337891"/>
     <use xlink:href="#DejaVuSans-65" x="905.75"/>
     <use xlink:href="#DejaVuSans-72" x="967.273438"/>
     <use xlink:href="#DejaVuSans-61" x="1008.386719"/>
     <use xlink:href="#DejaVuSans-6c" x="1069.666016"/>
     <use xlink:href="#DejaVuSans-20" x="1097.449219"/>
     <use xlink:href="#DejaVuSans-45" x="1129.236328"/>
     <use xlink:href="#DejaVuSans-6e" x="1192.419922"/>
     <use xlink:href="#DejaVuSans-74" x="1255.798828"/>
     <use xlink:href="#DejaVuSans-65" x="1295.007812"/>
     <use xlink:href="#DejaVuSans-72" x="1356.53125"/>
     <use xlink:href="#DejaVuSans-70" x="1397.644531"/>
     <use xlink:href="#DejaVuSans-72" x="1461.121094"/>
     <use xlink:href="#DejaVuSans-69" x="1502.234375"/>
     <use xlink:href="#DejaVuSans-73" x="1530.017578"/>
     <use xlink:href="#DejaVuSans-65" x="1582.117188"/>
     <use xlink:href="#DejaVuSans-20" x="1643.640625"/>
     <use xlink:href="#DejaVuSans-4c" x="1675.427734"/>
     <use xlink:href="#DejaVuSans-69" x="1731.140625"/>
     <use xlink:href="#DejaVuSans-6e" x="1758.923828"/>
     <use xlink:href="#DejaVuSans-75" x="1822.302734"/>
     <use xlink:href="#DejaVuSans-78" x="1885.681641"/>
     <use xlink:href="#DejaVuSans-20" x="1944.861328"/>
     <use xlink:href="#DejaVuSans-49" x="1976.648438"/>
     <use xlink:href="#DejaVuSans-6e" x="2006.140625"/>
     <use xlink:href="#DejaVuSans-73" x="2069.519531"/>
     <use xlink:href="#DejaVuSans-74" x="2121.619141"/>
     <use xlink:href="#DejaVuSans-61" x="2160.828125"/>
     <use xlink:href="#DejaVuSans-6e" x="2222.107422"/>
     <use xlink:href="#DejaVuSans-63" x="2285.486328"/>
     <use xlink:href="#DejaVuSans-65" x="2340.466797"/>
     <use xlink:href="#DejaVuSans-73" x="2401.990234"/>
     <use xlink:href="#DejaVuSans-20" x="2454.089844"/>
     <use xlink:href="#DejaVuSans-62" x="2485.876953"/>
     <use xlink:href="#DejaVuSans-79" x="2549.353516"/>
     <use xlink:href="#DejaVuSans-20" x="2608.533203"/>
     <use xlink:href="#DejaVuSans-44" x="2640.320312"/>
     <use xlink:href="#DejaVuSans-69" x="2717.322266"/>
     <use xlink:href="#DejaVuSans-73" x="2745.105469"/>
     <use xlink:href="#DejaVuSans-74" x="2797.205078"/>
     <use xlink:href="#DejaVuSans-72" x="2836.414062"/>
     <use xlink:href="#DejaVuSans-69" x="2877.527344"/>
     <use xlink:href="#DejaVuSans-62" x="2905.310547"/>
     <use xlink:href="#DejaVuSans-75" x="2968.787109"/>
     <use xlink:href="#DejaVuSans-74" x="3032.166016"/>
     <use xlink:href="#DejaVuSans-69" x="3071.375"/>
     <use xlink:href="#DejaVuSans-6f" x="3099.158203"/>
     <use xlink:href="#DejaVuSans-6e" x="3160.339844"/>
     <use xlink:href="#DejaVuSans-20" x="3223.71875"/>
     <use xlink:href="#DejaVuSans-28" x="3255.505859"/>
     <use xlink:href="#DejaVuSans-32" x="3294.519531"/>
     <use xlink:href="#DejaVuSans-20" x="3358.142578"/>
     <use xlink:href="#DejaVuSans-57" x="3389.929688"/>
     <use xlink:href="#DejaVuSans-65" x="3482.931641"/>
     <use xlink:href="#DejaVuSans-65" x="3544.455078"/>
     <use xlink:href="#DejaVuSans-6b" x="3605.978516"/>
     <use xlink:href="#DejaVuSans-20" x="3663.888672"/>
     <use xlink:href="#DejaVuSans-52" x="3695.675781"/>
     <use xlink:href="#DejaVuSans-65" x="3760.658203"/>
     <use xlink:href="#DejaVuSans-73" x="3822.181641"/>
     <use xlink:href="#DejaVuSans-61" x="3874.28125"/>
     <use xlink:href="#DejaVuSans-6d" x="3935.560547"/>
     <use xlink:href="#DejaVuSans-70" x="4032.972656"/>
     <use xlink:href="#DejaVuSans-6c" x="4096.449219"/>
     <use xlink:href="#DejaVuSans-65" x="4124.232422"/>
     <use xlink:href="#DejaVuSans-29" x="4185.755859"/>
    </g>
   </g>
   <g id="text_32">
    <!-- 2026-05-28 14:55 UTC -->
    <g transform="translate(804.1945 18.14175) scale(0.144 -0.144)">
     <defs>
      <path id="DejaVuSans-3a" d="M 750 794 
L 1409 794 
L 1409 0 
L 750 0 
L 750 794 
z
M 750 3309 
L 1409 3309 
L 1409 2516 
L 750 2516 
L 750 3309 
z
" transform="scale(0.015625)"/>
      <path id="DejaVuSans-55" d="M 556 4666 
L 1191 4666 
L 1191 1831 
Q 1191 1081 1462 751 
Q 1734 422 2344 422 
Q 2950 422 3222 751 
Q 3494 1081 3494 1831 
L 3494 4666 
L 4128 4666 
L 4128 1753 
Q 4128 841 3676 375 
Q 3225 -91 2344 -91 
Q 1459 -91 1007 375 
Q 556 841 556 1753 
L 556 4666 
z
" transform="scale(0.015625)"/>
      <path id="DejaVuSans-54" d="M -19 4666 
L 3928 4666 
L 3928 4134 
L 2272 4134 
L 2272 0 
L 1638 0 
L 1638 4134 
L -19 4134 
L -19 4666 
z
" transform="scale(0.015625)"/>
      <path id="DejaVuSans-43" d="M 4122 4306 
L 4122 3641 
Q 3803 3938 3442 4084 
Q 3081 4231 2675 4231 
Q 1875 4231 1450 3742 
Q 1025 3253 1025 2328 
Q 1025 1406 1450 917 
Q 1875 428 2675 428 
Q 3081 428 3442 575 
Q 3803 722 4122 1019 
L 4122 359 
Q 3791 134 3420 21 
Q 3050 -91 2638 -91 
Q 1578 -91 968 557 
Q 359 1206 359 2328 
Q 359 3453 968 4101 
Q 1578 4750 2638 4750 
Q 3056 4750 3426 4639 
Q 3797 4528 4122 4306 
z
" transform="scale(0.015625)"/>
     </defs>
     <use xlink:href="#DejaVuSans-32"/>
     <use xlink:href="#DejaVuSans-30" x="63.623047"/>
     <use xlink:href="#DejaVuSans-32" x="127.246094"/>
     <use xlink:href="#DejaVuSans-36" x="190.869141"/>
     <use xlink:href="#DejaVuSans-2d" x="254.492188"/>
     <use xlink:href="#DejaVuSans-30" x="290.576172"/>
     <use xlink:href="#DejaVuSans-35" x="354.199219"/>
     <use xlink:href="#DejaVuSans-2d" x="417.822266"/>
     <use xlink:href="#DejaVuSans-32" x="453.90625"/>
     <use xlink:href="#DejaVuSans-38" x="517.529297"/>
     <use xlink:href="#DejaVuSans-20" x="581.152344"/>
     <use xlink:href="#DejaVuSans-31" x="612.939453"/>
     <use xlink:href="#DejaVuSans-34" x="676.5625"/>
     <use xlink:href="#DejaVuSans-3a" x="740.185547"/>
     <use xlink:href="#DejaVuSans-35" x="773.876953"/>
     <use xlink:href="#DejaVuSans-35" x="837.5"/>
     <use xlink:href="#DejaVuSans-20" x="901.123047"/>
     <use xlink:href="#DejaVuSans-55" x="932.910156"/>
     <use xlink:href="#DejaVuSans-54" x="1006.103516"/>
     <use xlink:href="#DejaVuSans-43" x="1061.3125"/>
    </g>
   </g>
   <g id="legend_1">
    <g id="patch_7">
     <path d="M 71.2325 134.888625 
L 180.20125 134.888625 
Q 182.20125 134.888625 182.20125 132.888625 
L 182.20125 31.14175 
Q 182.20125 29.14175 180.20125 29.14175 
L 71.2325 29.14175 
Q 69.2325 29.14175 69.2325 31.14175 
L 69.2325 132.888625 
Q 69.2325 134.888625 71.2325 134.888625 
z
" style="fill: #e5e5e5; opacity: 0.8; stroke: #cccccc; stroke-width: 0.5; stroke-linejoin: miter"/>
    </g>
    <g id="text_33">
     <!-- Distribution -->
     <g transform="translate(96.548125 40.740188) scale(0.1 -0.1)">
      <use xlink:href="#DejaVuSans-44"/>
      <use xlink:href="#DejaVuSans-69" x="77.001953"/>
      <use xlink:href="#DejaVuSans-73" x="104.785156"/>
      <use xlink:href="#DejaVuSans-74" x="156.884766"/>
      <use xlink:href="#DejaVuSans-72" x="196.09375"/>
      <use xlink:href="#DejaVuSans-69" x="237.207031"/>
      <use xlink:href="#DejaVuSans-62" x="264.990234"/>
      <use xlink:href="#DejaVuSans-75" x="328.466797"/>
      <use xlink:href="#DejaVuSans-74" x="391.845703"/>
      <use xlink:href="#DejaVuSans-69" x="431.054688"/>
      <use xlink:href="#DejaVuSans-6f" x="458.837891"/>
      <use xlink:href="#DejaVuSans-6e" x="520.019531"/>
     </g>
    </g>
    <g id="line2d_69">
     <path d="M 73.2325 51.918313 
L 83.2325 51.918313 
L 93.2325 51.918313 
" style="fill: none; stroke: #4ac1fa; stroke-width: 1.5; stroke-linecap: square"/>
    </g>
    <g id="text_34">
     <!-- AlmaLinux -->
     <g transform="translate(101.2325 55.418313) scale(0.1 -0.1)">
      <defs>
       <path id="DejaVuSans-41" d="M 2188 4044 
L 1331 1722 
L 3047 1722 
L 2188 4044 
z
M 1831 4666 
L 2547 4666 
L 4325 0 
L 3669 0 
L 3244 1197 
L 1141 1197 
L 716 0 
L 50 0 
L 1831 4666 
z
" transform="scale(0.015625)"/>
      </defs>
      <use xlink:href="#DejaVuSans-41"/>
      <use xlink:href="#DejaVuSans-6c" x="68.408203"/>
      <use xlink:href="#DejaVuSans-6d" x="96.191406"/>
      <use xlink:href="#DejaVuSans-61" x="193.603516"/>
      <use xlink:href="#DejaVuSans-4c" x="254.882812"/>
      <use xlink:href="#DejaVuSans-69" x="310.595703"/>
      <use xlink:href="#DejaVuSans-6e" x="338.378906"/>
      <use xlink:href="#DejaVuSans-75" x="401.757812"/>
      <use xlink:href="#DejaVuSans-78" x="465.136719"/>
     </g>
    </g>
    <g id="line2d_70">
     <path d="M 73.2325 66.596438 
L 83.2325 66.596438 
L 93.2325 66.596438 
" style="fill: none; stroke: #e9a942; stroke-width: 1.5; stroke-linecap: square"/>
    </g>
    <g id="text_35">
     <!-- CentOS Legacy -->
     <g transform="translate(101.2325 70.096438) scale(0.1 -0.1)">
      <defs>
       <path id="DejaVuSans-4f" d="M 2522 4238 
Q 1834 4238 1429 3725 
Q 1025 3213 1025 2328 
Q 1025 1447 1429 934 
Q 1834 422 2522 422 
Q 3209 422 3611 934 
Q 4013 1447 4013 2328 
Q 4013 3213 3611 3725 
Q 3209 4238 2522 4238 
z
M 2522 4750 
Q 3503 4750 4090 4092 
Q 4678 3434 4678 2328 
Q 4678 1225 4090 567 
Q 3503 -91 2522 -91 
Q 1538 -91 948 565 
Q 359 1222 359 2328 
Q 359 3434 948 4092 
Q 1538 4750 2522 4750 
z
" transform="scale(0.015625)"/>
       <path id="DejaVuSans-53" d="M 3425 4513 
L 3425 3897 
Q 3066 4069 2747 4153 
Q 2428 4238 2131 4238 
Q 1616 4238 1336 4038 
Q 1056 3838 1056 3469 
Q 1056 3159 1242 3001 
Q 1428 2844 1947 2747 
L 2328 2669 
Q 3034 2534 3370 2195 
Q 3706 1856 3706 1288 
Q 3706 609 3251 259 
Q 2797 -91 1919 -91 
Q 1588 -91 1214 -16 
Q 841 59 441 206 
L 441 856 
Q 825 641 1194 531 
Q 1563 422 1919 422 
Q 2459 422 2753 634 
Q 3047 847 3047 1241 
Q 3047 1584 2836 1778 
Q 2625 1972 2144 2069 
L 1759 2144 
Q 1053 2284 737 2584 
Q 422 2884 422 3419 
Q 422 4038 858 4394 
Q 1294 4750 2059 4750 
Q 2388 4750 2728 4690 
Q 3069 4631 3425 4513 
z
" transform="scale(0.015625)"/>
       <path id="DejaVuSans-67" d="M 2906 1791 
Q 2906 2416 2648 2759 
Q 2391 3103 1925 3103 
Q 1463 3103 1205 2759 
Q 947 2416 947 1791 
Q 947 1169 1205 825 
Q 1463 481 1925 481 
Q 2391 481 2648 825 
Q 2906 1169 2906 1791 
z
M 3481 434 
Q 3481 -459 3084 -895 
Q 2688 -1331 1869 -1331 
Q 1566 -1331 1297 -1286 
Q 1028 -1241 775 -1147 
L 775 -588 
Q 1028 -725 1275 -790 
Q 1522 -856 1778 -856 
Q 2344 -856 2625 -561 
Q 2906 -266 2906 331 
L 2906 616 
Q 2728 306 2450 153 
Q 2172 0 1784 0 
Q 1141 0 747 490 
Q 353 981 353 1791 
Q 353 2603 747 3093 
Q 1141 3584 1784 3584 
Q 2172 3584 2450 3431 
Q 2728 3278 2906 2969 
L 2906 3500 
L 3481 3500 
L 3481 434 
z
" transform="scale(0.015625)"/>
      </defs>
      <use xlink:href="#DejaVuSans-43"/>
      <use xlink:href="#DejaVuSans-65" x="69.824219"/>
      <use xlink:href="#DejaVuSans-6e" x="131.347656"/>
      <use xlink:href="#DejaVuSans-74" x="194.726562"/>
      <use xlink:href="#DejaVuSans-4f" x="233.935547"/>
      <use xlink:href="#DejaVuSans-53" x="312.646484"/>
      <use xlink:href="#DejaVuSans-20" x="376.123047"/>
      <use xlink:href="#DejaVuSans-4c" x="407.910156"/>
      <use xlink:href="#DejaVuSans-65" x="461.873047"/>
      <use xlink:href="#DejaVuSans-67" x="523.396484"/>
      <use xlink:href="#DejaVuSans-61" x="586.873047"/>
      <use xlink:href="#DejaVuSans-63" x="648.152344"/>
      <use xlink:href="#DejaVuSans-79" x="703.132812"/>
     </g>
    </g>
    <g id="line2d_71">
     <path d="M 73.2325 81.274563 
L 83.2325 81.274563 
L 93.2325 81.274563 
" style="fill: none; stroke: #9a5689; stroke-width: 1.5; stroke-linecap: square"/>
    </g>
    <g id="text_36">
     <!-- CentOS Stream -->
     <g transform="translate(101.2325 84.774563) scale(0.1 -0.1)">
      <use xlink:href="#DejaVuSans-43"/>
      <use xlink:href="#DejaVuSans-65" x="69.824219"/>
      <use xlink:href="#DejaVuSans-6e" x="131.347656"/>
      <use xlink:href="#DejaVuSans-74" x="194.726562"/>
      <use xlink:href="#DejaVuSans-4f" x="233.935547"/>
      <use xlink:href="#DejaVuSans-53" x="312.646484"/>
      <use xlink:href="#DejaVuSans-20" x="376.123047"/>
      <use xlink:href="#DejaVuSans-53" x="407.910156"/>
      <use xlink:href="#DejaVuSans-74" x="471.386719"/>
      <use xlink:href="#DejaVuSans-72" x="510.595703"/>
      <use xlink:href="#DejaVuSans-65" x="549.458984"/>
      <use xlink:href="#DejaVuSans-61" x="610.982422"/>
      <use xlink:href="#DejaVuSans-6d" x="672.261719"/>
     </g>
    </g>
    <g id="line2d_72">
     <path d="M 73.2325 95.952688 
L 83.2325 95.952688 
L 93.2325 95.952688 
" style="fill: none; stroke: #be503b; stroke-width: 1.5; stroke-linecap: square"/>
    </g>
    <g id="text_37">
     <!-- Oracle -->
     <g transform="translate(101.2325 99.452688) scale(0.1 -0.1)">
      <use xlink:href="#DejaVuSans-4f"/>
      <use xlink:href="#DejaVuSans-72" x="78.710938"/>
      <use xlink:href="#DejaVuSans-61" x="119.824219"/>
      <use xlink:href="#DejaVuSans-63" x="181.103516"/>
      <use xlink:href="#DejaVuSans-6c" x="236.083984"/>
      <use xlink:href="#DejaVuSans-65" x="263.867188"/>
     </g>
    </g>
    <g id="line2d_73">
     <path d="M 73.2325 110.630813 
L 83.2325 110.630813 
L 93.2325 110.630813 
" style="fill: none; stroke: #e2321d; stroke-width: 1.5; stroke-linecap: square"/>
    </g>
    <g id="text_38">
     <!-- RHEL -->
     <g transform="translate(101.2325 114.130813) scale(0.1 -0.1)">
      <defs>
       <path id="DejaVuSans-48" d="M 628 4666 
L 1259 4666 
L 1259 2753 
L 3553 2753 
L 3553 4666 
L 4184 4666 
L 4184 0 
L 3553 0 
L 3553 2222 
L 1259 2222 
L 1259 0 
L 628 0 
L 628 4666 
z
" transform="scale(0.015625)"/>
      </defs>
      <use xlink:href="#DejaVuSans-52"/>
      <use xlink:href="#DejaVuSans-48" x="69.482422"/>
      <use xlink:href="#DejaVuSans-45" x="144.677734"/>
      <use xlink:href="#DejaVuSans-4c" x="207.861328"/>
     </g>
    </g>
    <g id="line2d_74">
     <path d="M 73.2325 125.308938 
L 83.2325 125.308938 
L 93.2325 125.308938 
" style="fill: none; stroke: #48b585; stroke-width: 6; stroke-linecap: square"/>
    </g>
    <g id="text_39">
     <!-- Rocky Linux -->
     <g transform="translate(101.2325 128.808938) scale(0.1 -0.1)">
      <use xlink:href="#DejaVuSans-52"/>
      <use xlink:href="#DejaVuSans-6f" x="64.982422"/>
      <use xlink:href="#DejaVuSans-63" x="126.164062"/>
      <use xlink:href="#DejaVuSans-6b" x="181.144531"/>
      <use xlink:href="#DejaVuSans-79" x="235.429688"/>
      <use xlink:href="#DejaVuSans-20" x="294.609375"/>
      <use xlink:href="#DejaVuSans-4c" x="326.396484"/>
      <use xlink:href="#DejaVuSans-69" x="382.109375"/>
      <use xlink:href="#DejaVuSans-6e" x="409.892578"/>
      <use xlink:href="#DejaVuSans-75" x="473.271484"/>
      <use xlink:href="#DejaVuSans-78" x="536.650391"/>
     </g>
    </g>
   </g>
  </g>
 </g>
 <defs>
  <clipPath id="pc6f206e2b4">
   <rect x="64.2325" y="24.14175" width="902.844" height="554.4"/>
  </clipPath>
 </defs>
</svg>
