<?xml version="1.0" encoding="utf-8" standalone="no"?>
<!DOCTYPE svg PUBLIC "-//W3C//DTD SVG 1.1//EN"
  "http://www.w3.org/Graphics/SVG/1.1/DTD/svg11.dtd">
<svg xmlns:xlink="http://www.w3.org/1999/xlink" width="964.735875pt" height="633.943878pt" viewBox="0 0 964.735875 633.943878" xmlns="http://www.w3.org/2000/svg" version="1.1">
 <metadata>
  <rdf:RDF xmlns:dc="http://purl.org/dc/elements/1.1/" xmlns:cc="http://creativecommons.org/ns#" xmlns:rdf="http://www.w3.org/1999/02/22-rdf-syntax-ns#">
   <cc:Work>
    <dc:type rdf:resource="http://purl.org/dc/dcmitype/StillImage"/>
    <dc:date>2024-03-28T11:54:48.810756</dc:date>
    <dc:format>image/svg+xml</dc:format>
    <dc:creator>
     <cc:Agent>
      <dc:title>Matplotlib v3.5.1, https://matplotlib.org/</dc:title>
     </cc:Agent>
    </dc:creator>
   </cc:Work>
  </rdf:RDF>
 </metadata>
 <defs>
  <style type="text/css">*{stroke-linejoin: round; stroke-linecap: butt}</style>
 </defs>
 <g id="figure_1">
  <g id="patch_1">
   <path d="M 0 633.943878 
L 964.735875 633.943878 
L 964.735875 0 
L 0 0 
z
" style="fill: #ffffff"/>
  </g>
  <g id="axes_1">
   <g id="patch_2">
    <path d="M 54.691875 567.74175 
L 957.535875 567.74175 
L 957.535875 24.14175 
L 54.691875 24.14175 
z
" style="fill: #e5e5e5"/>
   </g>
   <g id="matplotlib.axis_1">
    <g id="xtick_1">
     <g id="line2d_1">
      <path d="M 74.923673 567.74175 
L 74.923673 24.14175 
" clip-path="url(#p2f51341371)" style="fill: none; stroke: #ffffff; stroke-width: 0.8; stroke-linecap: square"/>
     </g>
     <g id="line2d_2">
      <defs>
       <path id="m1f71f9b0e3" d="M 0 0 
L 0 3.5 
" style="stroke: #555555; stroke-width: 0.8"/>
      </defs>
      <g>
       <use xlink:href="#m1f71f9b0e3" x="74.923673" y="567.74175" style="fill: #555555; stroke: #555555; stroke-width: 0.8"/>
      </g>
     </g>
     <g id="text_1">
      <!-- 2023-04 -->
      <g style="fill: #555555" transform="translate(62.102391 609.659567)rotate(-45)scale(0.1 -0.1)">
       <defs>
        <path id="DejaVuSans-32" d="M 1228 531 
L 3431 531 
L 3431 0 
L 469 0 
L 469 531 
Q 828 903 1448 1529 
Q 2069 2156 2228 2338 
Q 2531 2678 2651 2914 
Q 2772 3150 2772 3378 
Q 2772 3750 2511 3984 
Q 2250 4219 1831 4219 
Q 1534 4219 1204 4116 
Q 875 4013 500 3803 
L 500 4441 
Q 881 4594 1212 4672 
Q 1544 4750 1819 4750 
Q 2544 4750 2975 4387 
Q 3406 4025 3406 3419 
Q 3406 3131 3298 2873 
Q 3191 2616 2906 2266 
Q 2828 2175 2409 1742 
Q 1991 1309 1228 531 
z
" transform="scale(0.015625)"/>
        <path id="DejaVuSans-30" d="M 2034 4250 
Q 1547 4250 1301 3770 
Q 1056 3291 1056 2328 
Q 1056 1369 1301 889 
Q 1547 409 2034 409 
Q 2525 409 2770 889 
Q 3016 1369 3016 2328 
Q 3016 3291 2770 3770 
Q 2525 4250 2034 4250 
z
M 2034 4750 
Q 2819 4750 3233 4129 
Q 3647 3509 3647 2328 
Q 3647 1150 3233 529 
Q 2819 -91 2034 -91 
Q 1250 -91 836 529 
Q 422 1150 422 2328 
Q 422 3509 836 4129 
Q 1250 4750 2034 4750 
z
" transform="scale(0.015625)"/>
        <path id="DejaVuSans-33" d="M 2597 2516 
Q 3050 2419 3304 2112 
Q 3559 1806 3559 1356 
Q 3559 666 3084 287 
Q 2609 -91 1734 -91 
Q 1441 -91 1130 -33 
Q 819 25 488 141 
L 488 750 
Q 750 597 1062 519 
Q 1375 441 1716 441 
Q 2309 441 2620 675 
Q 2931 909 2931 1356 
Q 2931 1769 2642 2001 
Q 2353 2234 1838 2234 
L 1294 2234 
L 1294 2753 
L 1863 2753 
Q 2328 2753 2575 2939 
Q 2822 3125 2822 3475 
Q 2822 3834 2567 4026 
Q 2313 4219 1838 4219 
Q 1578 4219 1281 4162 
Q 984 4106 628 3988 
L 628 4550 
Q 988 4650 1302 4700 
Q 1616 4750 1894 4750 
Q 2613 4750 3031 4423 
Q 3450 4097 3450 3541 
Q 3450 3153 3228 2886 
Q 3006 2619 2597 2516 
z
" transform="scale(0.015625)"/>
        <path id="DejaVuSans-2d" d="M 313 2009 
L 1997 2009 
L 1997 1497 
L 313 1497 
L 313 2009 
z
" transform="scale(0.015625)"/>
        <path id="DejaVuSans-34" d="M 2419 4116 
L 825 1625 
L 2419 1625 
L 2419 4116 
z
M 2253 4666 
L 3047 4666 
L 3047 1625 
L 3713 1625 
L 3713 1100 
L 3047 1100 
L 3047 0 
L 2419 0 
L 2419 1100 
L 313 1100 
L 313 1709 
L 2253 4666 
z
" transform="scale(0.015625)"/>
       </defs>
       <use xlink:href="#DejaVuSans-32"/>
       <use xlink:href="#DejaVuSans-30" x="63.623047"/>
       <use xlink:href="#DejaVuSans-32" x="127.246094"/>
       <use xlink:href="#DejaVuSans-33" x="190.869141"/>
       <use xlink:href="#DejaVuSans-2d" x="254.492188"/>
       <use xlink:href="#DejaVuSans-30" x="290.576172"/>
       <use xlink:href="#DejaVuSans-34" x="354.199219"/>
      </g>
     </g>
    </g>
    <g id="xtick_2">
     <g id="line2d_3">
      <path d="M 150.792917 567.74175 
L 150.792917 24.14175 
" clip-path="url(#p2f51341371)" style="fill: none; stroke: #ffffff; stroke-width: 0.8; stroke-linecap: square"/>
     </g>
     <g id="line2d_4">
      <g>
       <use xlink:href="#m1f71f9b0e3" x="150.792917" y="567.74175" style="fill: #555555; stroke: #555555; stroke-width: 0.8"/>
      </g>
     </g>
     <g id="text_2">
      <!-- 2023-05 -->
      <g style="fill: #555555" transform="translate(137.971635 609.659567)rotate(-45)scale(0.1 -0.1)">
       <defs>
        <path id="DejaVuSans-35" d="M 691 4666 
L 3169 4666 
L 3169 4134 
L 1269 4134 
L 1269 2991 
Q 1406 3038 1543 3061 
Q 1681 3084 1819 3084 
Q 2600 3084 3056 2656 
Q 3513 2228 3513 1497 
Q 3513 744 3044 326 
Q 2575 -91 1722 -91 
Q 1428 -91 1123 -41 
Q 819 9 494 109 
L 494 744 
Q 775 591 1075 516 
Q 1375 441 1709 441 
Q 2250 441 2565 725 
Q 2881 1009 2881 1497 
Q 2881 1984 2565 2268 
Q 2250 2553 1709 2553 
Q 1456 2553 1204 2497 
Q 953 2441 691 2322 
L 691 4666 
z
" transform="scale(0.015625)"/>
       </defs>
       <use xlink:href="#DejaVuSans-32"/>
       <use xlink:href="#DejaVuSans-30" x="63.623047"/>
       <use xlink:href="#DejaVuSans-32" x="127.246094"/>
       <use xlink:href="#DejaVuSans-33" x="190.869141"/>
       <use xlink:href="#DejaVuSans-2d" x="254.492188"/>
       <use xlink:href="#DejaVuSans-30" x="290.576172"/>
       <use xlink:href="#DejaVuSans-35" x="354.199219"/>
      </g>
     </g>
    </g>
    <g id="xtick_3">
     <g id="line2d_5">
      <path d="M 229.191136 567.74175 
L 229.191136 24.14175 
" clip-path="url(#p2f51341371)" style="fill: none; stroke: #ffffff; stroke-width: 0.8; stroke-linecap: square"/>
     </g>
     <g id="line2d_6">
      <g>
       <use xlink:href="#m1f71f9b0e3" x="229.191136" y="567.74175" style="fill: #555555; stroke: #555555; stroke-width: 0.8"/>
      </g>
     </g>
     <g id="text_3">
      <!-- 2023-06 -->
      <g style="fill: #555555" transform="translate(216.369853 609.659567)rotate(-45)scale(0.1 -0.1)">
       <defs>
        <path id="DejaVuSans-36" d="M 2113 2584 
Q 1688 2584 1439 2293 
Q 1191 2003 1191 1497 
Q 1191 994 1439 701 
Q 1688 409 2113 409 
Q 2538 409 2786 701 
Q 3034 994 3034 1497 
Q 3034 2003 2786 2293 
Q 2538 2584 2113 2584 
z
M 3366 4563 
L 3366 3988 
Q 3128 4100 2886 4159 
Q 2644 4219 2406 4219 
Q 1781 4219 1451 3797 
Q 1122 3375 1075 2522 
Q 1259 2794 1537 2939 
Q 1816 3084 2150 3084 
Q 2853 3084 3261 2657 
Q 3669 2231 3669 1497 
Q 3669 778 3244 343 
Q 2819 -91 2113 -91 
Q 1303 -91 875 529 
Q 447 1150 447 2328 
Q 447 3434 972 4092 
Q 1497 4750 2381 4750 
Q 2619 4750 2861 4703 
Q 3103 4656 3366 4563 
z
" transform="scale(0.015625)"/>
       </defs>
       <use xlink:href="#DejaVuSans-32"/>
       <use xlink:href="#DejaVuSans-30" x="63.623047"/>
       <use xlink:href="#DejaVuSans-32" x="127.246094"/>
       <use xlink:href="#DejaVuSans-33" x="190.869141"/>
       <use xlink:href="#DejaVuSans-2d" x="254.492188"/>
       <use xlink:href="#DejaVuSans-30" x="290.576172"/>
       <use xlink:href="#DejaVuSans-36" x="354.199219"/>
      </g>
     </g>
    </g>
    <g id="xtick_4">
     <g id="line2d_7">
      <path d="M 305.060379 567.74175 
L 305.060379 24.14175 
" clip-path="url(#p2f51341371)" style="fill: none; stroke: #ffffff; stroke-width: 0.8; stroke-linecap: square"/>
     </g>
     <g id="line2d_8">
      <g>
       <use xlink:href="#m1f71f9b0e3" x="305.060379" y="567.74175" style="fill: #555555; stroke: #555555; stroke-width: 0.8"/>
      </g>
     </g>
     <g id="text_4">
      <!-- 2023-07 -->
      <g style="fill: #555555" transform="translate(292.239097 609.659567)rotate(-45)scale(0.1 -0.1)">
       <defs>
        <path id="DejaVuSans-37" d="M 525 4666 
L 3525 4666 
L 3525 4397 
L 1831 0 
L 1172 0 
L 2766 4134 
L 525 4134 
L 525 4666 
z
" transform="scale(0.015625)"/>
       </defs>
       <use xlink:href="#DejaVuSans-32"/>
       <use xlink:href="#DejaVuSans-30" x="63.623047"/>
       <use xlink:href="#DejaVuSans-32" x="127.246094"/>
       <use xlink:href="#DejaVuSans-33" x="190.869141"/>
       <use xlink:href="#DejaVuSans-2d" x="254.492188"/>
       <use xlink:href="#DejaVuSans-30" x="290.576172"/>
       <use xlink:href="#DejaVuSans-37" x="354.199219"/>
      </g>
     </g>
    </g>
    <g id="xtick_5">
     <g id="line2d_9">
      <path d="M 383.458598 567.74175 
L 383.458598 24.14175 
" clip-path="url(#p2f51341371)" style="fill: none; stroke: #ffffff; stroke-width: 0.8; stroke-linecap: square"/>
     </g>
     <g id="line2d_10">
      <g>
       <use xlink:href="#m1f71f9b0e3" x="383.458598" y="567.74175" style="fill: #555555; stroke: #555555; stroke-width: 0.8"/>
      </g>
     </g>
     <g id="text_5">
      <!-- 2023-08 -->
      <g style="fill: #555555" transform="translate(370.637315 609.659567)rotate(-45)scale(0.1 -0.1)">
       <defs>
        <path id="DejaVuSans-38" d="M 2034 2216 
Q 1584 2216 1326 1975 
Q 1069 1734 1069 1313 
Q 1069 891 1326 650 
Q 1584 409 2034 409 
Q 2484 409 2743 651 
Q 3003 894 3003 1313 
Q 3003 1734 2745 1975 
Q 2488 2216 2034 2216 
z
M 1403 2484 
Q 997 2584 770 2862 
Q 544 3141 544 3541 
Q 544 4100 942 4425 
Q 1341 4750 2034 4750 
Q 2731 4750 3128 4425 
Q 3525 4100 3525 3541 
Q 3525 3141 3298 2862 
Q 3072 2584 2669 2484 
Q 3125 2378 3379 2068 
Q 3634 1759 3634 1313 
Q 3634 634 3220 271 
Q 2806 -91 2034 -91 
Q 1263 -91 848 271 
Q 434 634 434 1313 
Q 434 1759 690 2068 
Q 947 2378 1403 2484 
z
M 1172 3481 
Q 1172 3119 1398 2916 
Q 1625 2713 2034 2713 
Q 2441 2713 2670 2916 
Q 2900 3119 2900 3481 
Q 2900 3844 2670 4047 
Q 2441 4250 2034 4250 
Q 1625 4250 1398 4047 
Q 1172 3844 1172 3481 
z
" transform="scale(0.015625)"/>
       </defs>
       <use xlink:href="#DejaVuSans-32"/>
       <use xlink:href="#DejaVuSans-30" x="63.623047"/>
       <use xlink:href="#DejaVuSans-32" x="127.246094"/>
       <use xlink:href="#DejaVuSans-33" x="190.869141"/>
       <use xlink:href="#DejaVuSans-2d" x="254.492188"/>
       <use xlink:href="#DejaVuSans-30" x="290.576172"/>
       <use xlink:href="#DejaVuSans-38" x="354.199219"/>
      </g>
     </g>
    </g>
    <g id="xtick_6">
     <g id="line2d_11">
      <path d="M 461.856816 567.74175 
L 461.856816 24.14175 
" clip-path="url(#p2f51341371)" style="fill: none; stroke: #ffffff; stroke-width: 0.8; stroke-linecap: square"/>
     </g>
     <g id="line2d_12">
      <g>
       <use xlink:href="#m1f71f9b0e3" x="461.856816" y="567.74175" style="fill: #555555; stroke: #555555; stroke-width: 0.8"/>
      </g>
     </g>
     <g id="text_6">
      <!-- 2023-09 -->
      <g style="fill: #555555" transform="translate(449.035534 609.659567)rotate(-45)scale(0.1 -0.1)">
       <defs>
        <path id="DejaVuSans-39" d="M 703 97 
L 703 672 
Q 941 559 1184 500 
Q 1428 441 1663 441 
Q 2288 441 2617 861 
Q 2947 1281 2994 2138 
Q 2813 1869 2534 1725 
Q 2256 1581 1919 1581 
Q 1219 1581 811 2004 
Q 403 2428 403 3163 
Q 403 3881 828 4315 
Q 1253 4750 1959 4750 
Q 2769 4750 3195 4129 
Q 3622 3509 3622 2328 
Q 3622 1225 3098 567 
Q 2575 -91 1691 -91 
Q 1453 -91 1209 -44 
Q 966 3 703 97 
z
M 1959 2075 
Q 2384 2075 2632 2365 
Q 2881 2656 2881 3163 
Q 2881 3666 2632 3958 
Q 2384 4250 1959 4250 
Q 1534 4250 1286 3958 
Q 1038 3666 1038 3163 
Q 1038 2656 1286 2365 
Q 1534 2075 1959 2075 
z
" transform="scale(0.015625)"/>
       </defs>
       <use xlink:href="#DejaVuSans-32"/>
       <use xlink:href="#DejaVuSans-30" x="63.623047"/>
       <use xlink:href="#DejaVuSans-32" x="127.246094"/>
       <use xlink:href="#DejaVuSans-33" x="190.869141"/>
       <use xlink:href="#DejaVuSans-2d" x="254.492188"/>
       <use xlink:href="#DejaVuSans-30" x="290.576172"/>
       <use xlink:href="#DejaVuSans-39" x="354.199219"/>
      </g>
     </g>
    </g>
    <g id="xtick_7">
     <g id="line2d_13">
      <path d="M 537.72606 567.74175 
L 537.72606 24.14175 
" clip-path="url(#p2f51341371)" style="fill: none; stroke: #ffffff; stroke-width: 0.8; stroke-linecap: square"/>
     </g>
     <g id="line2d_14">
      <g>
       <use xlink:href="#m1f71f9b0e3" x="537.72606" y="567.74175" style="fill: #555555; stroke: #555555; stroke-width: 0.8"/>
      </g>
     </g>
     <g id="text_7">
      <!-- 2023-10 -->
      <g style="fill: #555555" transform="translate(524.904778 609.659567)rotate(-45)scale(0.1 -0.1)">
       <defs>
        <path id="DejaVuSans-31" d="M 794 531 
L 1825 531 
L 1825 4091 
L 703 3866 
L 703 4441 
L 1819 4666 
L 2450 4666 
L 2450 531 
L 3481 531 
L 3481 0 
L 794 0 
L 794 531 
z
" transform="scale(0.015625)"/>
       </defs>
       <use xlink:href="#DejaVuSans-32"/>
       <use xlink:href="#DejaVuSans-30" x="63.623047"/>
       <use xlink:href="#DejaVuSans-32" x="127.246094"/>
       <use xlink:href="#DejaVuSans-33" x="190.869141"/>
       <use xlink:href="#DejaVuSans-2d" x="254.492188"/>
       <use xlink:href="#DejaVuSans-31" x="290.576172"/>
       <use xlink:href="#DejaVuSans-30" x="354.199219"/>
      </g>
     </g>
    </g>
    <g id="xtick_8">
     <g id="line2d_15">
      <path d="M 616.124278 567.74175 
L 616.124278 24.14175 
" clip-path="url(#p2f51341371)" style="fill: none; stroke: #ffffff; stroke-width: 0.8; stroke-linecap: square"/>
     </g>
     <g id="line2d_16">
      <g>
       <use xlink:href="#m1f71f9b0e3" x="616.124278" y="567.74175" style="fill: #555555; stroke: #555555; stroke-width: 0.8"/>
      </g>
     </g>
     <g id="text_8">
      <!-- 2023-11 -->
      <g style="fill: #555555" transform="translate(603.302996 609.659567)rotate(-45)scale(0.1 -0.1)">
       <use xlink:href="#DejaVuSans-32"/>
       <use xlink:href="#DejaVuSans-30" x="63.623047"/>
       <use xlink:href="#DejaVuSans-32" x="127.246094"/>
       <use xlink:href="#DejaVuSans-33" x="190.869141"/>
       <use xlink:href="#DejaVuSans-2d" x="254.492188"/>
       <use xlink:href="#DejaVuSans-31" x="290.576172"/>
       <use xlink:href="#DejaVuSans-31" x="354.199219"/>
      </g>
     </g>
    </g>
    <g id="xtick_9">
     <g id="line2d_17">
      <path d="M 691.993522 567.74175 
L 691.993522 24.14175 
" clip-path="url(#p2f51341371)" style="fill: none; stroke: #ffffff; stroke-width: 0.8; stroke-linecap: square"/>
     </g>
     <g id="line2d_18">
      <g>
       <use xlink:href="#m1f71f9b0e3" x="691.993522" y="567.74175" style="fill: #555555; stroke: #555555; stroke-width: 0.8"/>
      </g>
     </g>
     <g id="text_9">
      <!-- 2023-12 -->
      <g style="fill: #555555" transform="translate(679.17224 609.659567)rotate(-45)scale(0.1 -0.1)">
       <use xlink:href="#DejaVuSans-32"/>
       <use xlink:href="#DejaVuSans-30" x="63.623047"/>
       <use xlink:href="#DejaVuSans-32" x="127.246094"/>
       <use xlink:href="#DejaVuSans-33" x="190.869141"/>
       <use xlink:href="#DejaVuSans-2d" x="254.492188"/>
       <use xlink:href="#DejaVuSans-31" x="290.576172"/>
       <use xlink:href="#DejaVuSans-32" x="354.199219"/>
      </g>
     </g>
    </g>
    <g id="xtick_10">
     <g id="line2d_19">
      <path d="M 770.391741 567.74175 
L 770.391741 24.14175 
" clip-path="url(#p2f51341371)" style="fill: none; stroke: #ffffff; stroke-width: 0.8; stroke-linecap: square"/>
     </g>
     <g id="line2d_20">
      <g>
       <use xlink:href="#m1f71f9b0e3" x="770.391741" y="567.74175" style="fill: #555555; stroke: #555555; stroke-width: 0.8"/>
      </g>
     </g>
     <g id="text_10">
      <!-- 2024-01 -->
      <g style="fill: #555555" transform="translate(757.570458 609.659567)rotate(-45)scale(0.1 -0.1)">
       <use xlink:href="#DejaVuSans-32"/>
       <use xlink:href="#DejaVuSans-30" x="63.623047"/>
       <use xlink:href="#DejaVuSans-32" x="127.246094"/>
       <use xlink:href="#DejaVuSans-34" x="190.869141"/>
       <use xlink:href="#DejaVuSans-2d" x="254.492188"/>
       <use xlink:href="#DejaVuSans-30" x="290.576172"/>
       <use xlink:href="#DejaVuSans-31" x="354.199219"/>
      </g>
     </g>
    </g>
    <g id="xtick_11">
     <g id="line2d_21">
      <path d="M 848.789959 567.74175 
L 848.789959 24.14175 
" clip-path="url(#p2f51341371)" style="fill: none; stroke: #ffffff; stroke-width: 0.8; stroke-linecap: square"/>
     </g>
     <g id="line2d_22">
      <g>
       <use xlink:href="#m1f71f9b0e3" x="848.789959" y="567.74175" style="fill: #555555; stroke: #555555; stroke-width: 0.8"/>
      </g>
     </g>
     <g id="text_11">
      <!-- 2024-02 -->
      <g style="fill: #555555" transform="translate(835.968677 609.659567)rotate(-45)scale(0.1 -0.1)">
       <use xlink:href="#DejaVuSans-32"/>
       <use xlink:href="#DejaVuSans-30" x="63.623047"/>
       <use xlink:href="#DejaVuSans-32" x="127.246094"/>
       <use xlink:href="#DejaVuSans-34" x="190.869141"/>
       <use xlink:href="#DejaVuSans-2d" x="254.492188"/>
       <use xlink:href="#DejaVuSans-30" x="290.576172"/>
       <use xlink:href="#DejaVuSans-32" x="354.199219"/>
      </g>
     </g>
    </g>
    <g id="xtick_12">
     <g id="line2d_23">
      <path d="M 922.130228 567.74175 
L 922.130228 24.14175 
" clip-path="url(#p2f51341371)" style="fill: none; stroke: #ffffff; stroke-width: 0.8; stroke-linecap: square"/>
     </g>
     <g id="line2d_24">
      <g>
       <use xlink:href="#m1f71f9b0e3" x="922.130228" y="567.74175" style="fill: #555555; stroke: #555555; stroke-width: 0.8"/>
      </g>
     </g>
     <g id="text_12">
      <!-- 2024-03 -->
      <g style="fill: #555555" transform="translate(909.308946 609.659567)rotate(-45)scale(0.1 -0.1)">
       <use xlink:href="#DejaVuSans-32"/>
       <use xlink:href="#DejaVuSans-30" x="63.623047"/>
       <use xlink:href="#DejaVuSans-32" x="127.246094"/>
       <use xlink:href="#DejaVuSans-34" x="190.869141"/>
       <use xlink:href="#DejaVuSans-2d" x="254.492188"/>
       <use xlink:href="#DejaVuSans-30" x="290.576172"/>
       <use xlink:href="#DejaVuSans-33" x="354.199219"/>
      </g>
     </g>
    </g>
    <g id="text_13">
     <!-- Date -->
     <g style="fill: #555555" transform="translate(491.772938 624.248253)scale(0.12 -0.12)">
      <defs>
       <path id="DejaVuSans-44" d="M 1259 4147 
L 1259 519 
L 2022 519 
Q 2988 519 3436 956 
Q 3884 1394 3884 2338 
Q 3884 3275 3436 3711 
Q 2988 4147 2022 4147 
L 1259 4147 
z
M 628 4666 
L 1925 4666 
Q 3281 4666 3915 4102 
Q 4550 3538 4550 2338 
Q 4550 1131 3912 565 
Q 3275 0 1925 0 
L 628 0 
L 628 4666 
z
" transform="scale(0.015625)"/>
       <path id="DejaVuSans-61" d="M 2194 1759 
Q 1497 1759 1228 1600 
Q 959 1441 959 1056 
Q 959 750 1161 570 
Q 1363 391 1709 391 
Q 2188 391 2477 730 
Q 2766 1069 2766 1631 
L 2766 1759 
L 2194 1759 
z
M 3341 1997 
L 3341 0 
L 2766 0 
L 2766 531 
Q 2569 213 2275 61 
Q 1981 -91 1556 -91 
Q 1019 -91 701 211 
Q 384 513 384 1019 
Q 384 1609 779 1909 
Q 1175 2209 1959 2209 
L 2766 2209 
L 2766 2266 
Q 2766 2663 2505 2880 
Q 2244 3097 1772 3097 
Q 1472 3097 1187 3025 
Q 903 2953 641 2809 
L 641 3341 
Q 956 3463 1253 3523 
Q 1550 3584 1831 3584 
Q 2591 3584 2966 3190 
Q 3341 2797 3341 1997 
z
" transform="scale(0.015625)"/>
       <path id="DejaVuSans-74" d="M 1172 4494 
L 1172 3500 
L 2356 3500 
L 2356 3053 
L 1172 3053 
L 1172 1153 
Q 1172 725 1289 603 
Q 1406 481 1766 481 
L 2356 481 
L 2356 0 
L 1766 0 
Q 1100 0 847 248 
Q 594 497 594 1153 
L 594 3053 
L 172 3053 
L 172 3500 
L 594 3500 
L 594 4494 
L 1172 4494 
z
" transform="scale(0.015625)"/>
       <path id="DejaVuSans-65" d="M 3597 1894 
L 3597 1613 
L 953 1613 
Q 991 1019 1311 708 
Q 1631 397 2203 397 
Q 2534 397 2845 478 
Q 3156 559 3463 722 
L 3463 178 
Q 3153 47 2828 -22 
Q 2503 -91 2169 -91 
Q 1331 -91 842 396 
Q 353 884 353 1716 
Q 353 2575 817 3079 
Q 1281 3584 2069 3584 
Q 2775 3584 3186 3129 
Q 3597 2675 3597 1894 
z
M 3022 2063 
Q 3016 2534 2758 2815 
Q 2500 3097 2075 3097 
Q 1594 3097 1305 2825 
Q 1016 2553 972 2059 
L 3022 2063 
z
" transform="scale(0.015625)"/>
      </defs>
      <use xlink:href="#DejaVuSans-44"/>
      <use xlink:href="#DejaVuSans-61" x="77.001953"/>
      <use xlink:href="#DejaVuSans-74" x="138.28125"/>
      <use xlink:href="#DejaVuSans-65" x="177.490234"/>
     </g>
    </g>
   </g>
   <g id="matplotlib.axis_2">
    <g id="ytick_1">
     <g id="line2d_25">
      <path d="M 54.691875 567.74175 
L 957.535875 567.74175 
" clip-path="url(#p2f51341371)" style="fill: none; stroke: #ffffff; stroke-width: 0.8; stroke-linecap: square"/>
     </g>
     <g id="line2d_26">
      <defs>
       <path id="m34cc4fba4e" d="M 0 0 
L -3.5 0 
" style="stroke: #555555; stroke-width: 0.8"/>
      </defs>
      <g>
       <use xlink:href="#m34cc4fba4e" x="54.691875" y="567.74175" style="fill: #555555; stroke: #555555; stroke-width: 0.8"/>
      </g>
     </g>
     <g id="text_14">
      <!-- 0k -->
      <g style="fill: #555555" transform="translate(35.53875 571.540969)scale(0.1 -0.1)">
       <defs>
        <path id="DejaVuSans-6b" d="M 581 4863 
L 1159 4863 
L 1159 1991 
L 2875 3500 
L 3609 3500 
L 1753 1863 
L 3688 0 
L 2938 0 
L 1159 1709 
L 1159 0 
L 581 0 
L 581 4863 
z
" transform="scale(0.015625)"/>
       </defs>
       <use xlink:href="#DejaVuSans-30"/>
       <use xlink:href="#DejaVuSans-6b" x="63.623047"/>
      </g>
     </g>
    </g>
    <g id="ytick_2">
     <g id="line2d_27">
      <path d="M 54.691875 484.328522 
L 957.535875 484.328522 
" clip-path="url(#p2f51341371)" style="fill: none; stroke: #ffffff; stroke-width: 0.8; stroke-linecap: square"/>
     </g>
     <g id="line2d_28">
      <g>
       <use xlink:href="#m34cc4fba4e" x="54.691875" y="484.328522" style="fill: #555555; stroke: #555555; stroke-width: 0.8"/>
      </g>
     </g>
     <g id="text_15">
      <!-- 50k -->
      <g style="fill: #555555" transform="translate(29.17625 488.127741)scale(0.1 -0.1)">
       <use xlink:href="#DejaVuSans-35"/>
       <use xlink:href="#DejaVuSans-30" x="63.623047"/>
       <use xlink:href="#DejaVuSans-6b" x="127.246094"/>
      </g>
     </g>
    </g>
    <g id="ytick_3">
     <g id="line2d_29">
      <path d="M 54.691875 400.915295 
L 957.535875 400.915295 
" clip-path="url(#p2f51341371)" style="fill: none; stroke: #ffffff; stroke-width: 0.8; stroke-linecap: square"/>
     </g>
     <g id="line2d_30">
      <g>
       <use xlink:href="#m34cc4fba4e" x="54.691875" y="400.915295" style="fill: #555555; stroke: #555555; stroke-width: 0.8"/>
      </g>
     </g>
     <g id="text_16">
      <!-- 100k -->
      <g style="fill: #555555" transform="translate(22.81375 404.714514)scale(0.1 -0.1)">
       <use xlink:href="#DejaVuSans-31"/>
       <use xlink:href="#DejaVuSans-30" x="63.623047"/>
       <use xlink:href="#DejaVuSans-30" x="127.246094"/>
       <use xlink:href="#DejaVuSans-6b" x="190.869141"/>
      </g>
     </g>
    </g>
    <g id="ytick_4">
     <g id="line2d_31">
      <path d="M 54.691875 317.502067 
L 957.535875 317.502067 
" clip-path="url(#p2f51341371)" style="fill: none; stroke: #ffffff; stroke-width: 0.8; stroke-linecap: square"/>
     </g>
     <g id="line2d_32">
      <g>
       <use xlink:href="#m34cc4fba4e" x="54.691875" y="317.502067" style="fill: #555555; stroke: #555555; stroke-width: 0.8"/>
      </g>
     </g>
     <g id="text_17">
      <!-- 150k -->
      <g style="fill: #555555" transform="translate(22.81375 321.301286)scale(0.1 -0.1)">
       <use xlink:href="#DejaVuSans-31"/>
       <use xlink:href="#DejaVuSans-35" x="63.623047"/>
       <use xlink:href="#DejaVuSans-30" x="127.246094"/>
       <use xlink:href="#DejaVuSans-6b" x="190.869141"/>
      </g>
     </g>
    </g>
    <g id="ytick_5">
     <g id="line2d_33">
      <path d="M 54.691875 234.08884 
L 957.535875 234.08884 
" clip-path="url(#p2f51341371)" style="fill: none; stroke: #ffffff; stroke-width: 0.8; stroke-linecap: square"/>
     </g>
     <g id="line2d_34">
      <g>
       <use xlink:href="#m34cc4fba4e" x="54.691875" y="234.08884" style="fill: #555555; stroke: #555555; stroke-width: 0.8"/>
      </g>
     </g>
     <g id="text_18">
      <!-- 200k -->
      <g style="fill: #555555" transform="translate(22.81375 237.888059)scale(0.1 -0.1)">
       <use xlink:href="#DejaVuSans-32"/>
       <use xlink:href="#DejaVuSans-30" x="63.623047"/>
       <use xlink:href="#DejaVuSans-30" x="127.246094"/>
       <use xlink:href="#DejaVuSans-6b" x="190.869141"/>
      </g>
     </g>
    </g>
    <g id="ytick_6">
     <g id="line2d_35">
      <path d="M 54.691875 150.675612 
L 957.535875 150.675612 
" clip-path="url(#p2f51341371)" style="fill: none; stroke: #ffffff; stroke-width: 0.8; stroke-linecap: square"/>
     </g>
     <g id="line2d_36">
      <g>
       <use xlink:href="#m34cc4fba4e" x="54.691875" y="150.675612" style="fill: #555555; stroke: #555555; stroke-width: 0.8"/>
      </g>
     </g>
     <g id="text_19">
      <!-- 250k -->
      <g style="fill: #555555" transform="translate(22.81375 154.474831)scale(0.1 -0.1)">
       <use xlink:href="#DejaVuSans-32"/>
       <use xlink:href="#DejaVuSans-35" x="63.623047"/>
       <use xlink:href="#DejaVuSans-30" x="127.246094"/>
       <use xlink:href="#DejaVuSans-6b" x="190.869141"/>
      </g>
     </g>
    </g>
    <g id="ytick_7">
     <g id="line2d_37">
      <path d="M 54.691875 67.262385 
L 957.535875 67.262385 
" clip-path="url(#p2f51341371)" style="fill: none; stroke: #ffffff; stroke-width: 0.8; stroke-linecap: square"/>
     </g>
     <g id="line2d_38">
      <g>
       <use xlink:href="#m34cc4fba4e" x="54.691875" y="67.262385" style="fill: #555555; stroke: #555555; stroke-width: 0.8"/>
      </g>
     </g>
     <g id="text_20">
      <!-- 300k -->
      <g style="fill: #555555" transform="translate(22.81375 71.061604)scale(0.1 -0.1)">
       <use xlink:href="#DejaVuSans-33"/>
       <use xlink:href="#DejaVuSans-30" x="63.623047"/>
       <use xlink:href="#DejaVuSans-30" x="127.246094"/>
       <use xlink:href="#DejaVuSans-6b" x="190.869141"/>
      </g>
     </g>
    </g>
    <g id="text_21">
     <!-- Instances -->
     <g style="fill: #555555" transform="translate(16.318125 324.588)rotate(-90)scale(0.12 -0.12)">
      <defs>
       <path id="DejaVuSans-49" d="M 628 4666 
L 1259 4666 
L 1259 0 
L 628 0 
L 628 4666 
z
" transform="scale(0.015625)"/>
       <path id="DejaVuSans-6e" d="M 3513 2113 
L 3513 0 
L 2938 0 
L 2938 2094 
Q 2938 2591 2744 2837 
Q 2550 3084 2163 3084 
Q 1697 3084 1428 2787 
Q 1159 2491 1159 1978 
L 1159 0 
L 581 0 
L 581 3500 
L 1159 3500 
L 1159 2956 
Q 1366 3272 1645 3428 
Q 1925 3584 2291 3584 
Q 2894 3584 3203 3211 
Q 3513 2838 3513 2113 
z
" transform="scale(0.015625)"/>
       <path id="DejaVuSans-73" d="M 2834 3397 
L 2834 2853 
Q 2591 2978 2328 3040 
Q 2066 3103 1784 3103 
Q 1356 3103 1142 2972 
Q 928 2841 928 2578 
Q 928 2378 1081 2264 
Q 1234 2150 1697 2047 
L 1894 2003 
Q 2506 1872 2764 1633 
Q 3022 1394 3022 966 
Q 3022 478 2636 193 
Q 2250 -91 1575 -91 
Q 1294 -91 989 -36 
Q 684 19 347 128 
L 347 722 
Q 666 556 975 473 
Q 1284 391 1588 391 
Q 1994 391 2212 530 
Q 2431 669 2431 922 
Q 2431 1156 2273 1281 
Q 2116 1406 1581 1522 
L 1381 1569 
Q 847 1681 609 1914 
Q 372 2147 372 2553 
Q 372 3047 722 3315 
Q 1072 3584 1716 3584 
Q 2034 3584 2315 3537 
Q 2597 3491 2834 3397 
z
" transform="scale(0.015625)"/>
       <path id="DejaVuSans-63" d="M 3122 3366 
L 3122 2828 
Q 2878 2963 2633 3030 
Q 2388 3097 2138 3097 
Q 1578 3097 1268 2742 
Q 959 2388 959 1747 
Q 959 1106 1268 751 
Q 1578 397 2138 397 
Q 2388 397 2633 464 
Q 2878 531 3122 666 
L 3122 134 
Q 2881 22 2623 -34 
Q 2366 -91 2075 -91 
Q 1284 -91 818 406 
Q 353 903 353 1747 
Q 353 2603 823 3093 
Q 1294 3584 2113 3584 
Q 2378 3584 2631 3529 
Q 2884 3475 3122 3366 
z
" transform="scale(0.015625)"/>
      </defs>
      <use xlink:href="#DejaVuSans-49"/>
      <use xlink:href="#DejaVuSans-6e" x="29.492188"/>
      <use xlink:href="#DejaVuSans-73" x="92.871094"/>
      <use xlink:href="#DejaVuSans-74" x="144.970703"/>
      <use xlink:href="#DejaVuSans-61" x="184.179688"/>
      <use xlink:href="#DejaVuSans-6e" x="245.458984"/>
      <use xlink:href="#DejaVuSans-63" x="308.837891"/>
      <use xlink:href="#DejaVuSans-65" x="363.818359"/>
      <use xlink:href="#DejaVuSans-73" x="425.341797"/>
     </g>
    </g>
   </g>
   <g id="line2d_39">
    <path d="M 54.691875 485.174092 
L 63.811511 483.944249 
L 72.931148 482.714406 
L 82.050784 481.484563 
L 91.17042 480.25472 
L 100.290057 479.024876 
L 109.409693 477.795033 
L 118.52933 476.56519 
L 127.648966 475.335347 
L 136.768602 474.105504 
L 145.888239 472.875661 
L 155.007875 471.645818 
L 164.127511 470.415975 
L 173.247148 469.186131 
L 182.366784 467.956288 
L 191.48642 466.726445 
L 200.606057 465.496602 
L 209.725693 464.266759 
L 218.84533 463.036916 
L 227.964966 461.807073 
L 237.084602 460.577229 
L 246.204239 459.347386 
L 255.323875 458.117543 
L 264.443511 456.8877 
L 273.563148 455.657857 
L 282.682784 454.428014 
L 291.80242 453.198171 
L 300.922057 451.968328 
L 310.041693 450.738484 
L 319.16133 449.508641 
L 328.280966 448.278798 
L 337.400602 447.048955 
L 346.520239 445.819112 
L 355.639875 444.589269 
L 364.759511 443.359426 
L 373.879148 442.129582 
L 382.998784 440.899739 
L 392.11842 439.669896 
L 401.238057 438.440053 
L 410.357693 437.21021 
L 419.47733 435.980367 
L 428.596966 434.750524 
L 437.716602 433.52068 
L 446.836239 432.290837 
L 455.955875 431.060994 
L 465.075511 429.831151 
L 474.195148 428.601308 
L 483.314784 427.371465 
L 492.43442 426.141622 
L 501.554057 424.911779 
L 510.673693 423.681935 
L 519.79333 422.452092 
L 528.912966 421.222249 
L 538.032602 419.992406 
L 547.152239 418.762563 
L 556.271875 417.53272 
L 565.391511 416.302877 
L 574.511148 415.073033 
L 583.630784 413.84319 
L 592.75042 412.613347 
L 601.870057 411.383504 
L 610.989693 410.153661 
L 620.10933 408.923818 
L 629.228966 407.693975 
L 638.348602 406.464132 
L 647.468239 405.234288 
L 656.587875 404.004445 
L 665.707511 402.774602 
L 674.827148 401.544759 
L 683.946784 400.314916 
L 693.06642 399.085073 
L 702.186057 397.85523 
L 711.305693 396.625386 
L 720.42533 395.395543 
L 729.544966 394.1657 
L 738.664602 392.935857 
L 747.784239 391.706014 
L 756.903875 390.476171 
L 766.023511 389.246328 
L 775.143148 388.016485 
L 784.262784 386.786641 
L 793.38242 385.556798 
L 802.502057 384.326955 
L 811.621693 383.097112 
L 820.74133 381.867269 
L 829.860966 380.637426 
L 838.980602 379.407583 
L 848.100239 378.177739 
L 857.219875 376.947896 
L 866.339511 375.718053 
L 875.459148 374.48821 
L 884.578784 373.258367 
L 893.69842 372.028524 
L 902.818057 370.798681 
L 911.937693 369.568837 
L 921.05733 368.338994 
L 930.176966 367.109151 
L 939.296602 365.879308 
L 948.416239 364.649465 
L 957.535875 363.419622 
" clip-path="url(#p2f51341371)" style="fill: none; stroke-dasharray: 1.5,2.475; stroke-dashoffset: 0; stroke: #4ac1fa; stroke-width: 1.5"/>
   </g>
   <g id="line2d_40">
    <path d="M 54.691875 417.728106 
L 63.811511 418.683792 
L 72.931148 419.639477 
L 82.050784 420.595162 
L 91.17042 421.550847 
L 100.290057 422.506533 
L 109.409693 423.462218 
L 118.52933 424.417903 
L 127.648966 425.373589 
L 136.768602 426.329274 
L 145.888239 427.284959 
L 155.007875 428.240645 
L 164.127511 429.19633 
L 173.247148 430.152015 
L 182.366784 431.107701 
L 191.48642 432.063386 
L 200.606057 433.019071 
L 209.725693 433.974757 
L 218.84533 434.930442 
L 227.964966 435.886127 
L 237.084602 436.841812 
L 246.204239 437.797498 
L 255.323875 438.753183 
L 264.443511 439.708868 
L 273.563148 440.664554 
L 282.682784 441.620239 
L 291.80242 442.575924 
L 300.922057 443.53161 
L 310.041693 444.487295 
L 319.16133 445.44298 
L 328.280966 446.398666 
L 337.400602 447.354351 
L 346.520239 448.310036 
L 355.639875 449.265721 
L 364.759511 450.221407 
L 373.879148 451.177092 
L 382.998784 452.132777 
L 392.11842 453.088463 
L 401.238057 454.044148 
L 410.357693 454.999833 
L 419.47733 455.955519 
L 428.596966 456.911204 
L 437.716602 457.866889 
L 446.836239 458.822575 
L 455.955875 459.77826 
L 465.075511 460.733945 
L 474.195148 461.68963 
L 483.314784 462.645316 
L 492.43442 463.601001 
L 501.554057 464.556686 
L 510.673693 465.512372 
L 519.79333 466.468057 
L 528.912966 467.423742 
L 538.032602 468.379428 
L 547.152239 469.335113 
L 556.271875 470.290798 
L 565.391511 471.246484 
L 574.511148 472.202169 
L 583.630784 473.157854 
L 592.75042 474.11354 
L 601.870057 475.069225 
L 610.989693 476.02491 
L 620.10933 476.980595 
L 629.228966 477.936281 
L 638.348602 478.891966 
L 647.468239 479.847651 
L 656.587875 480.803337 
L 665.707511 481.759022 
L 674.827148 482.714707 
L 683.946784 483.670393 
L 693.06642 484.626078 
L 702.186057 485.581763 
L 711.305693 486.537449 
L 720.42533 487.493134 
L 729.544966 488.448819 
L 738.664602 489.404504 
L 747.784239 490.36019 
L 756.903875 491.315875 
L 766.023511 492.27156 
L 775.143148 493.227246 
L 784.262784 494.182931 
L 793.38242 495.138616 
L 802.502057 496.094302 
L 811.621693 497.049987 
L 820.74133 498.005672 
L 829.860966 498.961358 
L 838.980602 499.917043 
L 848.100239 500.872728 
L 857.219875 501.828413 
L 866.339511 502.784099 
L 875.459148 503.739784 
L 884.578784 504.695469 
L 893.69842 505.651155 
L 902.818057 506.60684 
L 911.937693 507.562525 
L 921.05733 508.518211 
L 930.176966 509.473896 
L 939.296602 510.429581 
L 948.416239 511.385267 
L 957.535875 512.340952 
" clip-path="url(#p2f51341371)" style="fill: none; stroke-dasharray: 1.5,2.475; stroke-dashoffset: 0; stroke: #e9a942; stroke-width: 1.5"/>
   </g>
   <g id="line2d_41">
    <path d="M 54.691875 474.294001 
L 63.811511 474.019057 
L 72.931148 473.744112 
L 82.050784 473.469167 
L 91.17042 473.194222 
L 100.290057 472.919277 
L 109.409693 472.644332 
L 118.52933 472.369388 
L 127.648966 472.094443 
L 136.768602 471.819498 
L 145.888239 471.544553 
L 155.007875 471.269608 
L 164.127511 470.994664 
L 173.247148 470.719719 
L 182.366784 470.444774 
L 191.48642 470.169829 
L 200.606057 469.894884 
L 209.725693 469.61994 
L 218.84533 469.344995 
L 227.964966 469.07005 
L 237.084602 468.795105 
L 246.204239 468.52016 
L 255.323875 468.245215 
L 264.443511 467.970271 
L 273.563148 467.695326 
L 282.682784 467.420381 
L 291.80242 467.145436 
L 300.922057 466.870491 
L 310.041693 466.595547 
L 319.16133 466.320602 
L 328.280966 466.045657 
L 337.400602 465.770712 
L 346.520239 465.495767 
L 355.639875 465.220823 
L 364.759511 464.945878 
L 373.879148 464.670933 
L 382.998784 464.395988 
L 392.11842 464.121043 
L 401.238057 463.846098 
L 410.357693 463.571154 
L 419.47733 463.296209 
L 428.596966 463.021264 
L 437.716602 462.746319 
L 446.836239 462.471374 
L 455.955875 462.19643 
L 465.075511 461.921485 
L 474.195148 461.64654 
L 483.314784 461.371595 
L 492.43442 461.09665 
L 501.554057 460.821706 
L 510.673693 460.546761 
L 519.79333 460.271816 
L 528.912966 459.996871 
L 538.032602 459.721926 
L 547.152239 459.446981 
L 556.271875 459.172037 
L 565.391511 458.897092 
L 574.511148 458.622147 
L 583.630784 458.347202 
L 592.75042 458.072257 
L 601.870057 457.797313 
L 610.989693 457.522368 
L 620.10933 457.247423 
L 629.228966 456.972478 
L 638.348602 456.697533 
L 647.468239 456.422589 
L 656.587875 456.147644 
L 665.707511 455.872699 
L 674.827148 455.597754 
L 683.946784 455.322809 
L 693.06642 455.047864 
L 702.186057 454.77292 
L 711.305693 454.497975 
L 720.42533 454.22303 
L 729.544966 453.948085 
L 738.664602 453.67314 
L 747.784239 453.398196 
L 756.903875 453.123251 
L 766.023511 452.848306 
L 775.143148 452.573361 
L 784.262784 452.298416 
L 793.38242 452.023472 
L 802.502057 451.748527 
L 811.621693 451.473582 
L 820.74133 451.198637 
L 829.860966 450.923692 
L 838.980602 450.648747 
L 848.100239 450.373803 
L 857.219875 450.098858 
L 866.339511 449.823913 
L 875.459148 449.548968 
L 884.578784 449.274023 
L 893.69842 448.999079 
L 902.818057 448.724134 
L 911.937693 448.449189 
L 921.05733 448.174244 
L 930.176966 447.899299 
L 939.296602 447.624355 
L 948.416239 447.34941 
L 957.535875 447.074465 
" clip-path="url(#p2f51341371)" style="fill: none; stroke-dasharray: 1.5,2.475; stroke-dashoffset: 0; stroke: #9a5689; stroke-width: 1.5"/>
   </g>
   <g id="line2d_42">
    <path d="M 54.691875 524.212362 
L 63.811511 523.798331 
L 72.931148 523.3843 
L 82.050784 522.970268 
L 91.17042 522.556237 
L 100.290057 522.142206 
L 109.409693 521.728175 
L 118.52933 521.314144 
L 127.648966 520.900112 
L 136.768602 520.486081 
L 145.888239 520.07205 
L 155.007875 519.658019 
L 164.127511 519.243988 
L 173.247148 518.829957 
L 182.366784 518.415925 
L 191.48642 518.001894 
L 200.606057 517.587863 
L 209.725693 517.173832 
L 218.84533 516.759801 
L 227.964966 516.34577 
L 237.084602 515.931738 
L 246.204239 515.517707 
L 255.323875 515.103676 
L 264.443511 514.689645 
L 273.563148 514.275614 
L 282.682784 513.861583 
L 291.80242 513.447551 
L 300.922057 513.03352 
L 310.041693 512.619489 
L 319.16133 512.205458 
L 328.280966 511.791427 
L 337.400602 511.377395 
L 346.520239 510.963364 
L 355.639875 510.549333 
L 364.759511 510.135302 
L 373.879148 509.721271 
L 382.998784 509.30724 
L 392.11842 508.893208 
L 401.238057 508.479177 
L 410.357693 508.065146 
L 419.47733 507.651115 
L 428.596966 507.237084 
L 437.716602 506.823053 
L 446.836239 506.409021 
L 455.955875 505.99499 
L 465.075511 505.580959 
L 474.195148 505.166928 
L 483.314784 504.752897 
L 492.43442 504.338866 
L 501.554057 503.924834 
L 510.673693 503.510803 
L 519.79333 503.096772 
L 528.912966 502.682741 
L 538.032602 502.26871 
L 547.152239 501.854678 
L 556.271875 501.440647 
L 565.391511 501.026616 
L 574.511148 500.612585 
L 583.630784 500.198554 
L 592.75042 499.784523 
L 601.870057 499.370491 
L 610.989693 498.95646 
L 620.10933 498.542429 
L 629.228966 498.128398 
L 638.348602 497.714367 
L 647.468239 497.300336 
L 656.587875 496.886304 
L 665.707511 496.472273 
L 674.827148 496.058242 
L 683.946784 495.644211 
L 693.06642 495.23018 
L 702.186057 494.816149 
L 711.305693 494.402117 
L 720.42533 493.988086 
L 729.544966 493.574055 
L 738.664602 493.160024 
L 747.784239 492.745993 
L 756.903875 492.331961 
L 766.023511 491.91793 
L 775.143148 491.503899 
L 784.262784 491.089868 
L 793.38242 490.675837 
L 802.502057 490.261806 
L 811.621693 489.847774 
L 820.74133 489.433743 
L 829.860966 489.019712 
L 838.980602 488.605681 
L 848.100239 488.19165 
L 857.219875 487.777619 
L 866.339511 487.363587 
L 875.459148 486.949556 
L 884.578784 486.535525 
L 893.69842 486.121494 
L 902.818057 485.707463 
L 911.937693 485.293432 
L 921.05733 484.8794 
L 930.176966 484.465369 
L 939.296602 484.051338 
L 948.416239 483.637307 
L 957.535875 483.223276 
" clip-path="url(#p2f51341371)" style="fill: none; stroke-dasharray: 1.5,2.475; stroke-dashoffset: 0; stroke: #be503b; stroke-width: 1.5"/>
   </g>
   <g id="line2d_43">
    <path d="M 54.691875 446.659481 
L 63.811511 445.729826 
L 72.931148 444.80017 
L 82.050784 443.870515 
L 91.17042 442.940859 
L 100.290057 442.011204 
L 109.409693 441.081548 
L 118.52933 440.151892 
L 127.648966 439.222237 
L 136.768602 438.292581 
L 145.888239 437.362926 
L 155.007875 436.43327 
L 164.127511 435.503615 
L 173.247148 434.573959 
L 182.366784 433.644304 
L 191.48642 432.714648 
L 200.606057 431.784992 
L 209.725693 430.855337 
L 218.84533 429.925681 
L 227.964966 428.996026 
L 237.084602 428.06637 
L 246.204239 427.136715 
L 255.323875 426.207059 
L 264.443511 425.277403 
L 273.563148 424.347748 
L 282.682784 423.418092 
L 291.80242 422.488437 
L 300.922057 421.558781 
L 310.041693 420.629126 
L 319.16133 419.69947 
L 328.280966 418.769814 
L 337.400602 417.840159 
L 346.520239 416.910503 
L 355.639875 415.980848 
L 364.759511 415.051192 
L 373.879148 414.121537 
L 382.998784 413.191881 
L 392.11842 412.262225 
L 401.238057 411.33257 
L 410.357693 410.402914 
L 419.47733 409.473259 
L 428.596966 408.543603 
L 437.716602 407.613948 
L 446.836239 406.684292 
L 455.955875 405.754636 
L 465.075511 404.824981 
L 474.195148 403.895325 
L 483.314784 402.96567 
L 492.43442 402.036014 
L 501.554057 401.106359 
L 510.673693 400.176703 
L 519.79333 399.247048 
L 528.912966 398.317392 
L 538.032602 397.387736 
L 547.152239 396.458081 
L 556.271875 395.528425 
L 565.391511 394.59877 
L 574.511148 393.669114 
L 583.630784 392.739459 
L 592.75042 391.809803 
L 601.870057 390.880147 
L 610.989693 389.950492 
L 620.10933 389.020836 
L 629.228966 388.091181 
L 638.348602 387.161525 
L 647.468239 386.23187 
L 656.587875 385.302214 
L 665.707511 384.372558 
L 674.827148 383.442903 
L 683.946784 382.513247 
L 693.06642 381.583592 
L 702.186057 380.653936 
L 711.305693 379.724281 
L 720.42533 378.794625 
L 729.544966 377.864969 
L 738.664602 376.935314 
L 747.784239 376.005658 
L 756.903875 375.076003 
L 766.023511 374.146347 
L 775.143148 373.216692 
L 784.262784 372.287036 
L 793.38242 371.35738 
L 802.502057 370.427725 
L 811.621693 369.498069 
L 820.74133 368.568414 
L 829.860966 367.638758 
L 838.980602 366.709103 
L 848.100239 365.779447 
L 857.219875 364.849792 
L 866.339511 363.920136 
L 875.459148 362.99048 
L 884.578784 362.060825 
L 893.69842 361.131169 
L 902.818057 360.201514 
L 911.937693 359.271858 
L 921.05733 358.342203 
L 930.176966 357.412547 
L 939.296602 356.482891 
L 948.416239 355.553236 
L 957.535875 354.62358 
" clip-path="url(#p2f51341371)" style="fill: none; stroke-dasharray: 1.5,2.475; stroke-dashoffset: 0; stroke: #e2321d; stroke-width: 1.5"/>
   </g>
   <g id="line2d_44">
    <path d="M 54.691875 425.943408 
L 63.811511 423.219104 
L 72.931148 420.494801 
L 82.050784 417.770497 
L 91.17042 415.046194 
L 100.290057 412.32189 
L 109.409693 409.597587 
L 118.52933 406.873284 
L 127.648966 404.14898 
L 136.768602 401.424677 
L 145.888239 398.700373 
L 155.007875 395.97607 
L 164.127511 393.251766 
L 173.247148 390.527463 
L 182.366784 387.80316 
L 191.48642 385.078856 
L 200.606057 382.354553 
L 209.725693 379.630249 
L 218.84533 376.905946 
L 227.964966 374.181642 
L 237.084602 371.457339 
L 246.204239 368.733036 
L 255.323875 366.008732 
L 264.443511 363.284429 
L 273.563148 360.560125 
L 282.682784 357.835822 
L 291.80242 355.111518 
L 300.922057 352.387215 
L 310.041693 349.662912 
L 319.16133 346.938608 
L 328.280966 344.214305 
L 337.400602 341.490001 
L 346.520239 338.765698 
L 355.639875 336.041394 
L 364.759511 333.317091 
L 373.879148 330.592788 
L 382.998784 327.868484 
L 392.11842 325.144181 
L 401.238057 322.419877 
L 410.357693 319.695574 
L 419.47733 316.97127 
L 428.596966 314.246967 
L 437.716602 311.522664 
L 446.836239 308.79836 
L 455.955875 306.074057 
L 465.075511 303.349753 
L 474.195148 300.62545 
L 483.314784 297.901146 
L 492.43442 295.176843 
L 501.554057 292.452539 
L 510.673693 289.728236 
L 519.79333 287.003933 
L 528.912966 284.279629 
L 538.032602 281.555326 
L 547.152239 278.831022 
L 556.271875 276.106719 
L 565.391511 273.382415 
L 574.511148 270.658112 
L 583.630784 267.933809 
L 592.75042 265.209505 
L 601.870057 262.485202 
L 610.989693 259.760898 
L 620.10933 257.036595 
L 629.228966 254.312291 
L 638.348602 251.587988 
L 647.468239 248.863685 
L 656.587875 246.139381 
L 665.707511 243.415078 
L 674.827148 240.690774 
L 683.946784 237.966471 
L 693.06642 235.242167 
L 702.186057 232.517864 
L 711.305693 229.793561 
L 720.42533 227.069257 
L 729.544966 224.344954 
L 738.664602 221.62065 
L 747.784239 218.896347 
L 756.903875 216.172043 
L 766.023511 213.44774 
L 775.143148 210.723437 
L 784.262784 207.999133 
L 793.38242 205.27483 
L 802.502057 202.550526 
L 811.621693 199.826223 
L 820.74133 197.101919 
L 829.860966 194.377616 
L 838.980602 191.653313 
L 848.100239 188.929009 
L 857.219875 186.204706 
L 866.339511 183.480402 
L 875.459148 180.756099 
L 884.578784 178.031795 
L 893.69842 175.307492 
L 902.818057 172.583189 
L 911.937693 169.858885 
L 921.05733 167.134582 
L 930.176966 164.410278 
L 939.296602 161.685975 
L 948.416239 158.961671 
L 957.535875 156.237368 
" clip-path="url(#p2f51341371)" style="fill: none; stroke-dasharray: 1.5,2.475; stroke-dashoffset: 0; stroke: #48b585; stroke-width: 1.5"/>
   </g>
   <g id="line2d_45">
    <path d="M 54.691875 501.636767 
L 72.394699 502.2974 
L 90.097522 502.262366 
L 107.800346 500.68252 
L 125.503169 493.860986 
L 178.61164 489.601907 
L 196.314463 460.308849 
L 214.017287 429.567739 
L 231.72011 463.305053 
L 249.422934 448.337383 
L 267.125757 449.990633 
L 284.828581 446.050192 
L 302.531404 456.410115 
L 320.234228 452.226108 
L 337.937051 455.79953 
L 355.639875 448.3207 
L 373.342699 452.025916 
L 391.045522 453.340508 
L 408.748346 455.170595 
L 426.451169 432.383769 
L 444.153993 451.425341 
L 461.856816 439.84258 
L 479.55964 452.070959 
L 497.262463 445.669828 
L 514.965287 439.920988 
L 532.66811 444.477019 
L 550.370934 435.223155 
L 568.073757 305.39714 
L 621.182228 366.837655 
L 638.885051 367.172976 
L 656.587875 339.212862 
L 674.290699 362.174856 
L 691.993522 319.974435 
L 709.696346 331.125116 
L 727.399169 328.279056 
L 745.101993 404.512073 
L 762.804816 337.577963 
L 780.50764 337.08082 
L 798.210463 384.074164 
L 815.913287 389.592783 
L 833.61611 423.246684 
L 851.318934 401.642658 
L 869.021757 400.738459 
L 886.724581 410.679647 
L 904.427404 410.716349 
L 922.130228 429.61445 
L 939.833051 426.973587 
L 957.535875 415.796215 
" clip-path="url(#p2f51341371)" style="fill: none; stroke: #4ac1fa; stroke-width: 1.5; stroke-linecap: square"/>
   </g>
   <g id="line2d_46">
    <path d="M 54.691875 469.857996 
L 72.394699 468.176385 
L 90.097522 473.331323 
L 107.800346 465.163499 
L 125.503169 436.581123 
L 178.61164 312.685788 
L 196.314463 335.028855 
L 214.017287 312.026823 
L 231.72011 335.229047 
L 249.422934 333.128701 
L 267.125757 365.06429 
L 284.828581 331.887513 
L 302.531404 422.389196 
L 320.234228 500.260449 
L 337.937051 501.88367 
L 355.639875 501.396537 
L 373.342699 498.346949 
L 391.045522 508.301484 
L 408.748346 500.704207 
L 426.451169 497.734696 
L 444.153993 503.405128 
L 461.856816 512.5639 
L 479.55964 507.912778 
L 497.262463 505.653948 
L 514.965287 499.71159 
L 532.66811 493.348829 
L 550.370934 493.931053 
L 568.073757 493.111935 
L 621.182228 483.157401 
L 638.885051 484.380239 
L 656.587875 499.719931 
L 674.290699 492.18438 
L 691.993522 494.836921 
L 709.696346 498.862443 
L 727.399169 514.192126 
L 745.101993 518.035808 
L 762.804816 511.437821 
L 780.50764 497.662961 
L 798.210463 492.212741 
L 815.913287 497.39437 
L 833.61611 492.719893 
L 851.318934 486.293738 
L 869.021757 496.583594 
L 886.724581 476.978149 
L 904.427404 470.498609 
L 922.130228 469.272435 
L 939.833051 454.306434 
L 957.535875 467.764324 
" clip-path="url(#p2f51341371)" style="fill: none; stroke: #e9a942; stroke-width: 1.5; stroke-linecap: square"/>
   </g>
   <g id="line2d_47">
    <path d="M 54.691875 471.494563 
L 72.394699 480.651667 
L 90.097522 483.172415 
L 107.800346 460.976155 
L 125.503169 440.149541 
L 178.61164 460.550748 
L 196.314463 462.847948 
L 214.017287 449.418418 
L 231.72011 442.701985 
L 249.422934 479.310383 
L 267.125757 476.936442 
L 284.828581 482.747008 
L 302.531404 489.985608 
L 320.234228 481.801102 
L 337.937051 481.045378 
L 355.639875 482.403345 
L 373.342699 440.499876 
L 391.045522 467.495733 
L 408.748346 479.945991 
L 426.451169 468.001217 
L 444.153993 470.970728 
L 461.856816 470.962387 
L 479.55964 467.175426 
L 497.262463 457.556213 
L 514.965287 461.841985 
L 532.66811 458.545494 
L 550.370934 449.807124 
L 568.073757 454.461582 
L 621.182228 431.127566 
L 638.885051 408.045458 
L 656.587875 441.012033 
L 674.290699 458.176807 
L 691.993522 454.534986 
L 709.696346 457.37604 
L 727.399169 470.220009 
L 745.101993 490.981561 
L 762.804816 478.884975 
L 780.50764 465.14348 
L 798.210463 464.594621 
L 815.913287 455.392474 
L 833.61611 463.360105 
L 851.318934 460.52906 
L 869.021757 461.459952 
L 886.724581 470.416864 
L 904.427404 467.754314 
L 922.130228 429.330845 
L 939.833051 398.45961 
L 957.535875 396.574471 
" clip-path="url(#p2f51341371)" style="fill: none; stroke: #9a5689; stroke-width: 1.5; stroke-linecap: square"/>
   </g>
   <g id="line2d_48">
    <path d="M 54.691875 527.469844 
L 72.394699 529.838779 
L 90.097522 532.184359 
L 107.800346 518.14925 
L 125.503169 516.025549 
L 178.61164 512.030055 
L 196.314463 524.919067 
L 214.017287 524.006527 
L 231.72011 513.493123 
L 249.422934 519.27366 
L 267.125757 519.106834 
L 284.828581 510.822232 
L 302.531404 512.795789 
L 320.234228 508.326508 
L 337.937051 502.2974 
L 355.639875 509.544341 
L 373.342699 505.533833 
L 391.045522 530.82806 
L 408.748346 509.923037 
L 426.451169 507.969499 
L 444.153993 516.209058 
L 461.856816 503.840545 
L 479.55964 508.867026 
L 497.262463 509.756211 
L 514.965287 488.936269 
L 532.66811 505.40204 
L 550.370934 502.262366 
L 568.073757 498.502098 
L 621.182228 474.764362 
L 638.885051 462.490939 
L 656.587875 487.242981 
L 674.290699 476.067276 
L 691.993522 481.282271 
L 709.696346 484.587103 
L 727.399169 493.705838 
L 745.101993 514.761004 
L 762.804816 498.291897 
L 780.50764 496.546892 
L 798.210463 501.418225 
L 815.913287 477.585397 
L 833.61611 506.751666 
L 851.318934 499.566451 
L 869.021757 498.485415 
L 886.724581 484.363556 
L 904.427404 496.061427 
L 922.130228 483.824707 
L 939.833051 478.554659 
L 957.535875 489.678647 
" clip-path="url(#p2f51341371)" style="fill: none; stroke: #be503b; stroke-width: 1.5; stroke-linecap: square"/>
   </g>
   <g id="line2d_49">
    <path d="M 54.691875 439.814219 
L 72.394699 444.995849 
L 90.097522 445.916731 
L 107.800346 436.941468 
L 125.503169 435.179781 
L 178.61164 428.665207 
L 196.314463 427.647566 
L 214.017287 437.161679 
L 231.72011 433.13282 
L 249.422934 431.376137 
L 267.125757 430.023175 
L 284.828581 413.028564 
L 302.531404 437.864018 
L 320.234228 420.053626 
L 337.937051 408.477538 
L 355.639875 414.029523 
L 373.342699 411.673933 
L 391.045522 421.803635 
L 408.748346 421.713549 
L 426.451169 392.026781 
L 444.153993 390.508661 
L 461.856816 401.192227 
L 479.55964 411.510443 
L 497.262463 404.955832 
L 514.965287 400.25633 
L 532.66811 406.277097 
L 550.370934 401.367395 
L 568.073757 390.842314 
L 621.182228 381.543407 
L 638.885051 350.880705 
L 656.587875 387.322275 
L 674.290699 374.476638 
L 691.993522 363.279247 
L 709.696346 363.536159 
L 727.399169 388.975526 
L 745.101993 448.102158 
L 762.804816 425.055083 
L 780.50764 390.685497 
L 798.210463 374.176351 
L 815.913287 376.528604 
L 833.61611 364.829064 
L 851.318934 369.725421 
L 869.021757 360.551634 
L 886.724581 356.876447 
L 904.427404 356.444367 
L 922.130228 326.053591 
L 939.833051 341.703581 
L 957.535875 337.472862 
" clip-path="url(#p2f51341371)" style="fill: none; stroke: #e2321d; stroke-width: 1.5; stroke-linecap: square"/>
   </g>
   <g id="line2d_50">
    <path d="M 54.691875 388.309888 
L 72.394699 396.816369 
L 90.097522 392.150233 
L 107.800346 359.463926 
L 125.503169 394.198862 
L 178.61164 357.965824 
L 196.314463 401.327356 
L 214.017287 372.950176 
L 231.72011 353.766802 
L 249.422934 360.595009 
L 267.125757 363.519477 
L 284.828581 383.09823 
L 302.531404 416.645361 
L 320.234228 373.484021 
L 337.937051 348.598519 
L 355.639875 339.548183 
L 373.342699 327.962086 
L 391.045522 347.162143 
L 408.748346 330.142508 
L 426.451169 342.854684 
L 444.153993 351.616409 
L 461.856816 299.069412 
L 479.55964 298.281992 
L 497.262463 250.267669 
L 514.965287 279.812635 
L 532.66811 304.069201 
L 550.370934 330.617963 
L 568.073757 296.498617 
L 621.182228 196.187538 
L 638.885051 189.054038 
L 656.587875 128.507713 
L 674.290699 238.603164 
L 691.993522 312.96272 
L 709.696346 299.716699 
L 727.399169 269.476068 
L 745.101993 341.161395 
L 762.804816 270.126691 
L 780.50764 256.703834 
L 798.210463 234.73279 
L 815.913287 177.457931 
L 833.61611 158.926849 
L 851.318934 212.935245 
L 869.021757 192.387231 
L 886.724581 136.715575 
L 904.427404 137.67149 
L 922.130228 117.428768 
L 939.833051 133.804453 
L 957.535875 48.334255 
" clip-path="url(#p2f51341371)" style="fill: none; stroke: #48b585; stroke-width: 6; stroke-linecap: square"/>
   </g>
   <g id="patch_3">
    <path d="M 54.691875 567.74175 
L 54.691875 24.14175 
" style="fill: none; stroke: #ffffff; stroke-linejoin: miter; stroke-linecap: square"/>
   </g>
   <g id="patch_4">
    <path d="M 957.535875 567.74175 
L 957.535875 24.14175 
" style="fill: none; stroke: #ffffff; stroke-linejoin: miter; stroke-linecap: square"/>
   </g>
   <g id="patch_5">
    <path d="M 54.691875 567.74175 
L 957.535875 567.74175 
" style="fill: none; stroke: #ffffff; stroke-linejoin: miter; stroke-linecap: square"/>
   </g>
   <g id="patch_6">
    <path d="M 54.691875 24.14175 
L 957.535875 24.14175 
" style="fill: none; stroke: #ffffff; stroke-linejoin: miter; stroke-linecap: square"/>
   </g>
   <g id="text_22">
    <!-- Potentially Ephemeral Enterprise Linux 8 and 9 Instances by Distribution -->
    <g transform="translate(54.691875 18.14175)scale(0.144 -0.144)">
     <defs>
      <path id="DejaVuSans-50" d="M 1259 4147 
L 1259 2394 
L 2053 2394 
Q 2494 2394 2734 2622 
Q 2975 2850 2975 3272 
Q 2975 3691 2734 3919 
Q 2494 4147 2053 4147 
L 1259 4147 
z
M 628 4666 
L 2053 4666 
Q 2838 4666 3239 4311 
Q 3641 3956 3641 3272 
Q 3641 2581 3239 2228 
Q 2838 1875 2053 1875 
L 1259 1875 
L 1259 0 
L 628 0 
L 628 4666 
z
" transform="scale(0.015625)"/>
      <path id="DejaVuSans-6f" d="M 1959 3097 
Q 1497 3097 1228 2736 
Q 959 2375 959 1747 
Q 959 1119 1226 758 
Q 1494 397 1959 397 
Q 2419 397 2687 759 
Q 2956 1122 2956 1747 
Q 2956 2369 2687 2733 
Q 2419 3097 1959 3097 
z
M 1959 3584 
Q 2709 3584 3137 3096 
Q 3566 2609 3566 1747 
Q 3566 888 3137 398 
Q 2709 -91 1959 -91 
Q 1206 -91 779 398 
Q 353 888 353 1747 
Q 353 2609 779 3096 
Q 1206 3584 1959 3584 
z
" transform="scale(0.015625)"/>
      <path id="DejaVuSans-69" d="M 603 3500 
L 1178 3500 
L 1178 0 
L 603 0 
L 603 3500 
z
M 603 4863 
L 1178 4863 
L 1178 4134 
L 603 4134 
L 603 4863 
z
" transform="scale(0.015625)"/>
      <path id="DejaVuSans-6c" d="M 603 4863 
L 1178 4863 
L 1178 0 
L 603 0 
L 603 4863 
z
" transform="scale(0.015625)"/>
      <path id="DejaVuSans-79" d="M 2059 -325 
Q 1816 -950 1584 -1140 
Q 1353 -1331 966 -1331 
L 506 -1331 
L 506 -850 
L 844 -850 
Q 1081 -850 1212 -737 
Q 1344 -625 1503 -206 
L 1606 56 
L 191 3500 
L 800 3500 
L 1894 763 
L 2988 3500 
L 3597 3500 
L 2059 -325 
z
" transform="scale(0.015625)"/>
      <path id="DejaVuSans-20" transform="scale(0.015625)"/>
      <path id="DejaVuSans-45" d="M 628 4666 
L 3578 4666 
L 3578 4134 
L 1259 4134 
L 1259 2753 
L 3481 2753 
L 3481 2222 
L 1259 2222 
L 1259 531 
L 3634 531 
L 3634 0 
L 628 0 
L 628 4666 
z
" transform="scale(0.015625)"/>
      <path id="DejaVuSans-70" d="M 1159 525 
L 1159 -1331 
L 581 -1331 
L 581 3500 
L 1159 3500 
L 1159 2969 
Q 1341 3281 1617 3432 
Q 1894 3584 2278 3584 
Q 2916 3584 3314 3078 
Q 3713 2572 3713 1747 
Q 3713 922 3314 415 
Q 2916 -91 2278 -91 
Q 1894 -91 1617 61 
Q 1341 213 1159 525 
z
M 3116 1747 
Q 3116 2381 2855 2742 
Q 2594 3103 2138 3103 
Q 1681 3103 1420 2742 
Q 1159 2381 1159 1747 
Q 1159 1113 1420 752 
Q 1681 391 2138 391 
Q 2594 391 2855 752 
Q 3116 1113 3116 1747 
z
" transform="scale(0.015625)"/>
      <path id="DejaVuSans-68" d="M 3513 2113 
L 3513 0 
L 2938 0 
L 2938 2094 
Q 2938 2591 2744 2837 
Q 2550 3084 2163 3084 
Q 1697 3084 1428 2787 
Q 1159 2491 1159 1978 
L 1159 0 
L 581 0 
L 581 4863 
L 1159 4863 
L 1159 2956 
Q 1366 3272 1645 3428 
Q 1925 3584 2291 3584 
Q 2894 3584 3203 3211 
Q 3513 2838 3513 2113 
z
" transform="scale(0.015625)"/>
      <path id="DejaVuSans-6d" d="M 3328 2828 
Q 3544 3216 3844 3400 
Q 4144 3584 4550 3584 
Q 5097 3584 5394 3201 
Q 5691 2819 5691 2113 
L 5691 0 
L 5113 0 
L 5113 2094 
Q 5113 2597 4934 2840 
Q 4756 3084 4391 3084 
Q 3944 3084 3684 2787 
Q 3425 2491 3425 1978 
L 3425 0 
L 2847 0 
L 2847 2094 
Q 2847 2600 2669 2842 
Q 2491 3084 2119 3084 
Q 1678 3084 1418 2786 
Q 1159 2488 1159 1978 
L 1159 0 
L 581 0 
L 581 3500 
L 1159 3500 
L 1159 2956 
Q 1356 3278 1631 3431 
Q 1906 3584 2284 3584 
Q 2666 3584 2933 3390 
Q 3200 3197 3328 2828 
z
" transform="scale(0.015625)"/>
      <path id="DejaVuSans-72" d="M 2631 2963 
Q 2534 3019 2420 3045 
Q 2306 3072 2169 3072 
Q 1681 3072 1420 2755 
Q 1159 2438 1159 1844 
L 1159 0 
L 581 0 
L 581 3500 
L 1159 3500 
L 1159 2956 
Q 1341 3275 1631 3429 
Q 1922 3584 2338 3584 
Q 2397 3584 2469 3576 
Q 2541 3569 2628 3553 
L 2631 2963 
z
" transform="scale(0.015625)"/>
      <path id="DejaVuSans-4c" d="M 628 4666 
L 1259 4666 
L 1259 531 
L 3531 531 
L 3531 0 
L 628 0 
L 628 4666 
z
" transform="scale(0.015625)"/>
      <path id="DejaVuSans-75" d="M 544 1381 
L 544 3500 
L 1119 3500 
L 1119 1403 
Q 1119 906 1312 657 
Q 1506 409 1894 409 
Q 2359 409 2629 706 
Q 2900 1003 2900 1516 
L 2900 3500 
L 3475 3500 
L 3475 0 
L 2900 0 
L 2900 538 
Q 2691 219 2414 64 
Q 2138 -91 1772 -91 
Q 1169 -91 856 284 
Q 544 659 544 1381 
z
M 1991 3584 
L 1991 3584 
z
" transform="scale(0.015625)"/>
      <path id="DejaVuSans-78" d="M 3513 3500 
L 2247 1797 
L 3578 0 
L 2900 0 
L 1881 1375 
L 863 0 
L 184 0 
L 1544 1831 
L 300 3500 
L 978 3500 
L 1906 2253 
L 2834 3500 
L 3513 3500 
z
" transform="scale(0.015625)"/>
      <path id="DejaVuSans-64" d="M 2906 2969 
L 2906 4863 
L 3481 4863 
L 3481 0 
L 2906 0 
L 2906 525 
Q 2725 213 2448 61 
Q 2172 -91 1784 -91 
Q 1150 -91 751 415 
Q 353 922 353 1747 
Q 353 2572 751 3078 
Q 1150 3584 1784 3584 
Q 2172 3584 2448 3432 
Q 2725 3281 2906 2969 
z
M 947 1747 
Q 947 1113 1208 752 
Q 1469 391 1925 391 
Q 2381 391 2643 752 
Q 2906 1113 2906 1747 
Q 2906 2381 2643 2742 
Q 2381 3103 1925 3103 
Q 1469 3103 1208 2742 
Q 947 2381 947 1747 
z
" transform="scale(0.015625)"/>
      <path id="DejaVuSans-62" d="M 3116 1747 
Q 3116 2381 2855 2742 
Q 2594 3103 2138 3103 
Q 1681 3103 1420 2742 
Q 1159 2381 1159 1747 
Q 1159 1113 1420 752 
Q 1681 391 2138 391 
Q 2594 391 2855 752 
Q 3116 1113 3116 1747 
z
M 1159 2969 
Q 1341 3281 1617 3432 
Q 1894 3584 2278 3584 
Q 2916 3584 3314 3078 
Q 3713 2572 3713 1747 
Q 3713 922 3314 415 
Q 2916 -91 2278 -91 
Q 1894 -91 1617 61 
Q 1341 213 1159 525 
L 1159 0 
L 581 0 
L 581 4863 
L 1159 4863 
L 1159 2969 
z
" transform="scale(0.015625)"/>
     </defs>
     <use xlink:href="#DejaVuSans-50"/>
     <use xlink:href="#DejaVuSans-6f" x="56.677734"/>
     <use xlink:href="#DejaVuSans-74" x="117.859375"/>
     <use xlink:href="#DejaVuSans-65" x="157.068359"/>
     <use xlink:href="#DejaVuSans-6e" x="218.591797"/>
     <use xlink:href="#DejaVuSans-74" x="281.970703"/>
     <use xlink:href="#DejaVuSans-69" x="321.179688"/>
     <use xlink:href="#DejaVuSans-61" x="348.962891"/>
     <use xlink:href="#DejaVuSans-6c" x="410.242188"/>
     <use xlink:href="#DejaVuSans-6c" x="438.025391"/>
     <use xlink:href="#DejaVuSans-79" x="465.808594"/>
     <use xlink:href="#DejaVuSans-20" x="524.988281"/>
     <use xlink:href="#DejaVuSans-45" x="556.775391"/>
     <use xlink:href="#DejaVuSans-70" x="619.958984"/>
     <use xlink:href="#DejaVuSans-68" x="683.435547"/>
     <use xlink:href="#DejaVuSans-65" x="746.814453"/>
     <use xlink:href="#DejaVuSans-6d" x="808.337891"/>
     <use xlink:href="#DejaVuSans-65" x="905.75"/>
     <use xlink:href="#DejaVuSans-72" x="967.273438"/>
     <use xlink:href="#DejaVuSans-61" x="1008.386719"/>
     <use xlink:href="#DejaVuSans-6c" x="1069.666016"/>
     <use xlink:href="#DejaVuSans-20" x="1097.449219"/>
     <use xlink:href="#DejaVuSans-45" x="1129.236328"/>
     <use xlink:href="#DejaVuSans-6e" x="1192.419922"/>
     <use xlink:href="#DejaVuSans-74" x="1255.798828"/>
     <use xlink:href="#DejaVuSans-65" x="1295.007812"/>
     <use xlink:href="#DejaVuSans-72" x="1356.53125"/>
     <use xlink:href="#DejaVuSans-70" x="1397.644531"/>
     <use xlink:href="#DejaVuSans-72" x="1461.121094"/>
     <use xlink:href="#DejaVuSans-69" x="1502.234375"/>
     <use xlink:href="#DejaVuSans-73" x="1530.017578"/>
     <use xlink:href="#DejaVuSans-65" x="1582.117188"/>
     <use xlink:href="#DejaVuSans-20" x="1643.640625"/>
     <use xlink:href="#DejaVuSans-4c" x="1675.427734"/>
     <use xlink:href="#DejaVuSans-69" x="1731.140625"/>
     <use xlink:href="#DejaVuSans-6e" x="1758.923828"/>
     <use xlink:href="#DejaVuSans-75" x="1822.302734"/>
     <use xlink:href="#DejaVuSans-78" x="1885.681641"/>
     <use xlink:href="#DejaVuSans-20" x="1944.861328"/>
     <use xlink:href="#DejaVuSans-38" x="1976.648438"/>
     <use xlink:href="#DejaVuSans-20" x="2040.271484"/>
     <use xlink:href="#DejaVuSans-61" x="2072.058594"/>
     <use xlink:href="#DejaVuSans-6e" x="2133.337891"/>
     <use xlink:href="#DejaVuSans-64" x="2196.716797"/>
     <use xlink:href="#DejaVuSans-20" x="2260.193359"/>
     <use xlink:href="#DejaVuSans-39" x="2291.980469"/>
     <use xlink:href="#DejaVuSans-20" x="2355.603516"/>
     <use xlink:href="#DejaVuSans-49" x="2387.390625"/>
     <use xlink:href="#DejaVuSans-6e" x="2416.882812"/>
     <use xlink:href="#DejaVuSans-73" x="2480.261719"/>
     <use xlink:href="#DejaVuSans-74" x="2532.361328"/>
     <use xlink:href="#DejaVuSans-61" x="2571.570312"/>
     <use xlink:href="#DejaVuSans-6e" x="2632.849609"/>
     <use xlink:href="#DejaVuSans-63" x="2696.228516"/>
     <use xlink:href="#DejaVuSans-65" x="2751.208984"/>
     <use xlink:href="#DejaVuSans-73" x="2812.732422"/>
     <use xlink:href="#DejaVuSans-20" x="2864.832031"/>
     <use xlink:href="#DejaVuSans-62" x="2896.619141"/>
     <use xlink:href="#DejaVuSans-79" x="2960.095703"/>
     <use xlink:href="#DejaVuSans-20" x="3019.275391"/>
     <use xlink:href="#DejaVuSans-44" x="3051.0625"/>
     <use xlink:href="#DejaVuSans-69" x="3128.064453"/>
     <use xlink:href="#DejaVuSans-73" x="3155.847656"/>
     <use xlink:href="#DejaVuSans-74" x="3207.947266"/>
     <use xlink:href="#DejaVuSans-72" x="3247.15625"/>
     <use xlink:href="#DejaVuSans-69" x="3288.269531"/>
     <use xlink:href="#DejaVuSans-62" x="3316.052734"/>
     <use xlink:href="#DejaVuSans-75" x="3379.529297"/>
     <use xlink:href="#DejaVuSans-74" x="3442.908203"/>
     <use xlink:href="#DejaVuSans-69" x="3482.117188"/>
     <use xlink:href="#DejaVuSans-6f" x="3509.900391"/>
     <use xlink:href="#DejaVuSans-6e" x="3571.082031"/>
    </g>
   </g>
   <g id="text_23">
    <!-- 2024-03-28 11:54 UTC -->
    <g transform="translate(794.653875 18.14175)scale(0.144 -0.144)">
     <defs>
      <path id="DejaVuSans-3a" d="M 750 794 
L 1409 794 
L 1409 0 
L 750 0 
L 750 794 
z
M 750 3309 
L 1409 3309 
L 1409 2516 
L 750 2516 
L 750 3309 
z
" transform="scale(0.015625)"/>
      <path id="DejaVuSans-55" d="M 556 4666 
L 1191 4666 
L 1191 1831 
Q 1191 1081 1462 751 
Q 1734 422 2344 422 
Q 2950 422 3222 751 
Q 3494 1081 3494 1831 
L 3494 4666 
L 4128 4666 
L 4128 1753 
Q 4128 841 3676 375 
Q 3225 -91 2344 -91 
Q 1459 -91 1007 375 
Q 556 841 556 1753 
L 556 4666 
z
" transform="scale(0.015625)"/>
      <path id="DejaVuSans-54" d="M -19 4666 
L 3928 4666 
L 3928 4134 
L 2272 4134 
L 2272 0 
L 1638 0 
L 1638 4134 
L -19 4134 
L -19 4666 
z
" transform="scale(0.015625)"/>
      <path id="DejaVuSans-43" d="M 4122 4306 
L 4122 3641 
Q 3803 3938 3442 4084 
Q 3081 4231 2675 4231 
Q 1875 4231 1450 3742 
Q 1025 3253 1025 2328 
Q 1025 1406 1450 917 
Q 1875 428 2675 428 
Q 3081 428 3442 575 
Q 3803 722 4122 1019 
L 4122 359 
Q 3791 134 3420 21 
Q 3050 -91 2638 -91 
Q 1578 -91 968 557 
Q 359 1206 359 2328 
Q 359 3453 968 4101 
Q 1578 4750 2638 4750 
Q 3056 4750 3426 4639 
Q 3797 4528 4122 4306 
z
" transform="scale(0.015625)"/>
     </defs>
     <use xlink:href="#DejaVuSans-32"/>
     <use xlink:href="#DejaVuSans-30" x="63.623047"/>
     <use xlink:href="#DejaVuSans-32" x="127.246094"/>
     <use xlink:href="#DejaVuSans-34" x="190.869141"/>
     <use xlink:href="#DejaVuSans-2d" x="254.492188"/>
     <use xlink:href="#DejaVuSans-30" x="290.576172"/>
     <use xlink:href="#DejaVuSans-33" x="354.199219"/>
     <use xlink:href="#DejaVuSans-2d" x="417.822266"/>
     <use xlink:href="#DejaVuSans-32" x="453.90625"/>
     <use xlink:href="#DejaVuSans-38" x="517.529297"/>
     <use xlink:href="#DejaVuSans-20" x="581.152344"/>
     <use xlink:href="#DejaVuSans-31" x="612.939453"/>
     <use xlink:href="#DejaVuSans-31" x="676.5625"/>
     <use xlink:href="#DejaVuSans-3a" x="740.185547"/>
     <use xlink:href="#DejaVuSans-35" x="773.876953"/>
     <use xlink:href="#DejaVuSans-34" x="837.5"/>
     <use xlink:href="#DejaVuSans-20" x="901.123047"/>
     <use xlink:href="#DejaVuSans-55" x="932.910156"/>
     <use xlink:href="#DejaVuSans-54" x="1006.103516"/>
     <use xlink:href="#DejaVuSans-43" x="1061.3125"/>
    </g>
   </g>
   <g id="legend_1">
    <g id="patch_7">
     <path d="M 61.691875 134.888625 
L 170.660625 134.888625 
Q 172.660625 134.888625 172.660625 132.888625 
L 172.660625 31.14175 
Q 172.660625 29.14175 170.660625 29.14175 
L 61.691875 29.14175 
Q 59.691875 29.14175 59.691875 31.14175 
L 59.691875 132.888625 
Q 59.691875 134.888625 61.691875 134.888625 
z
" style="fill: #e5e5e5; opacity: 0.8; stroke: #cccccc; stroke-width: 0.5; stroke-linejoin: miter"/>
    </g>
    <g id="text_24">
     <!-- Distribution -->
     <g transform="translate(87.0075 40.740187)scale(0.1 -0.1)">
      <use xlink:href="#DejaVuSans-44"/>
      <use xlink:href="#DejaVuSans-69" x="77.001953"/>
      <use xlink:href="#DejaVuSans-73" x="104.785156"/>
      <use xlink:href="#DejaVuSans-74" x="156.884766"/>
      <use xlink:href="#DejaVuSans-72" x="196.09375"/>
      <use xlink:href="#DejaVuSans-69" x="237.207031"/>
      <use xlink:href="#DejaVuSans-62" x="264.990234"/>
      <use xlink:href="#DejaVuSans-75" x="328.466797"/>
      <use xlink:href="#DejaVuSans-74" x="391.845703"/>
      <use xlink:href="#DejaVuSans-69" x="431.054688"/>
      <use xlink:href="#DejaVuSans-6f" x="458.837891"/>
      <use xlink:href="#DejaVuSans-6e" x="520.019531"/>
     </g>
    </g>
    <g id="line2d_51">
     <path d="M 63.691875 51.918312 
L 73.691875 51.918312 
L 83.691875 51.918312 
" style="fill: none; stroke: #4ac1fa; stroke-width: 1.5; stroke-linecap: square"/>
    </g>
    <g id="text_25">
     <!-- AlmaLinux -->
     <g transform="translate(91.691875 55.418312)scale(0.1 -0.1)">
      <defs>
       <path id="DejaVuSans-41" d="M 2188 4044 
L 1331 1722 
L 3047 1722 
L 2188 4044 
z
M 1831 4666 
L 2547 4666 
L 4325 0 
L 3669 0 
L 3244 1197 
L 1141 1197 
L 716 0 
L 50 0 
L 1831 4666 
z
" transform="scale(0.015625)"/>
      </defs>
      <use xlink:href="#DejaVuSans-41"/>
      <use xlink:href="#DejaVuSans-6c" x="68.408203"/>
      <use xlink:href="#DejaVuSans-6d" x="96.191406"/>
      <use xlink:href="#DejaVuSans-61" x="193.603516"/>
      <use xlink:href="#DejaVuSans-4c" x="254.882812"/>
      <use xlink:href="#DejaVuSans-69" x="310.595703"/>
      <use xlink:href="#DejaVuSans-6e" x="338.378906"/>
      <use xlink:href="#DejaVuSans-75" x="401.757812"/>
      <use xlink:href="#DejaVuSans-78" x="465.136719"/>
     </g>
    </g>
    <g id="line2d_52">
     <path d="M 63.691875 66.596437 
L 73.691875 66.596437 
L 83.691875 66.596437 
" style="fill: none; stroke: #e9a942; stroke-width: 1.5; stroke-linecap: square"/>
    </g>
    <g id="text_26">
     <!-- CentOS Legacy -->
     <g transform="translate(91.691875 70.096437)scale(0.1 -0.1)">
      <defs>
       <path id="DejaVuSans-4f" d="M 2522 4238 
Q 1834 4238 1429 3725 
Q 1025 3213 1025 2328 
Q 1025 1447 1429 934 
Q 1834 422 2522 422 
Q 3209 422 3611 934 
Q 4013 1447 4013 2328 
Q 4013 3213 3611 3725 
Q 3209 4238 2522 4238 
z
M 2522 4750 
Q 3503 4750 4090 4092 
Q 4678 3434 4678 2328 
Q 4678 1225 4090 567 
Q 3503 -91 2522 -91 
Q 1538 -91 948 565 
Q 359 1222 359 2328 
Q 359 3434 948 4092 
Q 1538 4750 2522 4750 
z
" transform="scale(0.015625)"/>
       <path id="DejaVuSans-53" d="M 3425 4513 
L 3425 3897 
Q 3066 4069 2747 4153 
Q 2428 4238 2131 4238 
Q 1616 4238 1336 4038 
Q 1056 3838 1056 3469 
Q 1056 3159 1242 3001 
Q 1428 2844 1947 2747 
L 2328 2669 
Q 3034 2534 3370 2195 
Q 3706 1856 3706 1288 
Q 3706 609 3251 259 
Q 2797 -91 1919 -91 
Q 1588 -91 1214 -16 
Q 841 59 441 206 
L 441 856 
Q 825 641 1194 531 
Q 1563 422 1919 422 
Q 2459 422 2753 634 
Q 3047 847 3047 1241 
Q 3047 1584 2836 1778 
Q 2625 1972 2144 2069 
L 1759 2144 
Q 1053 2284 737 2584 
Q 422 2884 422 3419 
Q 422 4038 858 4394 
Q 1294 4750 2059 4750 
Q 2388 4750 2728 4690 
Q 3069 4631 3425 4513 
z
" transform="scale(0.015625)"/>
       <path id="DejaVuSans-67" d="M 2906 1791 
Q 2906 2416 2648 2759 
Q 2391 3103 1925 3103 
Q 1463 3103 1205 2759 
Q 947 2416 947 1791 
Q 947 1169 1205 825 
Q 1463 481 1925 481 
Q 2391 481 2648 825 
Q 2906 1169 2906 1791 
z
M 3481 434 
Q 3481 -459 3084 -895 
Q 2688 -1331 1869 -1331 
Q 1566 -1331 1297 -1286 
Q 1028 -1241 775 -1147 
L 775 -588 
Q 1028 -725 1275 -790 
Q 1522 -856 1778 -856 
Q 2344 -856 2625 -561 
Q 2906 -266 2906 331 
L 2906 616 
Q 2728 306 2450 153 
Q 2172 0 1784 0 
Q 1141 0 747 490 
Q 353 981 353 1791 
Q 353 2603 747 3093 
Q 1141 3584 1784 3584 
Q 2172 3584 2450 3431 
Q 2728 3278 2906 2969 
L 2906 3500 
L 3481 3500 
L 3481 434 
z
" transform="scale(0.015625)"/>
      </defs>
      <use xlink:href="#DejaVuSans-43"/>
      <use xlink:href="#DejaVuSans-65" x="69.824219"/>
      <use xlink:href="#DejaVuSans-6e" x="131.347656"/>
      <use xlink:href="#DejaVuSans-74" x="194.726562"/>
      <use xlink:href="#DejaVuSans-4f" x="233.935547"/>
      <use xlink:href="#DejaVuSans-53" x="312.646484"/>
      <use xlink:href="#DejaVuSans-20" x="376.123047"/>
      <use xlink:href="#DejaVuSans-4c" x="407.910156"/>
      <use xlink:href="#DejaVuSans-65" x="461.873047"/>
      <use xlink:href="#DejaVuSans-67" x="523.396484"/>
      <use xlink:href="#DejaVuSans-61" x="586.873047"/>
      <use xlink:href="#DejaVuSans-63" x="648.152344"/>
      <use xlink:href="#DejaVuSans-79" x="703.132812"/>
     </g>
    </g>
    <g id="line2d_53">
     <path d="M 63.691875 81.274563 
L 73.691875 81.274563 
L 83.691875 81.274563 
" style="fill: none; stroke: #9a5689; stroke-width: 1.5; stroke-linecap: square"/>
    </g>
    <g id="text_27">
     <!-- CentOS Stream -->
     <g transform="translate(91.691875 84.774563)scale(0.1 -0.1)">
      <use xlink:href="#DejaVuSans-43"/>
      <use xlink:href="#DejaVuSans-65" x="69.824219"/>
      <use xlink:href="#DejaVuSans-6e" x="131.347656"/>
      <use xlink:href="#DejaVuSans-74" x="194.726562"/>
      <use xlink:href="#DejaVuSans-4f" x="233.935547"/>
      <use xlink:href="#DejaVuSans-53" x="312.646484"/>
      <use xlink:href="#DejaVuSans-20" x="376.123047"/>
      <use xlink:href="#DejaVuSans-53" x="407.910156"/>
      <use xlink:href="#DejaVuSans-74" x="471.386719"/>
      <use xlink:href="#DejaVuSans-72" x="510.595703"/>
      <use xlink:href="#DejaVuSans-65" x="549.458984"/>
      <use xlink:href="#DejaVuSans-61" x="610.982422"/>
      <use xlink:href="#DejaVuSans-6d" x="672.261719"/>
     </g>
    </g>
    <g id="line2d_54">
     <path d="M 63.691875 95.952687 
L 73.691875 95.952687 
L 83.691875 95.952687 
" style="fill: none; stroke: #be503b; stroke-width: 1.5; stroke-linecap: square"/>
    </g>
    <g id="text_28">
     <!-- Oracle -->
     <g transform="translate(91.691875 99.452687)scale(0.1 -0.1)">
      <use xlink:href="#DejaVuSans-4f"/>
      <use xlink:href="#DejaVuSans-72" x="78.710938"/>
      <use xlink:href="#DejaVuSans-61" x="119.824219"/>
      <use xlink:href="#DejaVuSans-63" x="181.103516"/>
      <use xlink:href="#DejaVuSans-6c" x="236.083984"/>
      <use xlink:href="#DejaVuSans-65" x="263.867188"/>
     </g>
    </g>
    <g id="line2d_55">
     <path d="M 63.691875 110.630812 
L 73.691875 110.630812 
L 83.691875 110.630812 
" style="fill: none; stroke: #e2321d; stroke-width: 1.5; stroke-linecap: square"/>
    </g>
    <g id="text_29">
     <!-- RHEL -->
     <g transform="translate(91.691875 114.130812)scale(0.1 -0.1)">
      <defs>
       <path id="DejaVuSans-52" d="M 2841 2188 
Q 3044 2119 3236 1894 
Q 3428 1669 3622 1275 
L 4263 0 
L 3584 0 
L 2988 1197 
Q 2756 1666 2539 1819 
Q 2322 1972 1947 1972 
L 1259 1972 
L 1259 0 
L 628 0 
L 628 4666 
L 2053 4666 
Q 2853 4666 3247 4331 
Q 3641 3997 3641 3322 
Q 3641 2881 3436 2590 
Q 3231 2300 2841 2188 
z
M 1259 4147 
L 1259 2491 
L 2053 2491 
Q 2509 2491 2742 2702 
Q 2975 2913 2975 3322 
Q 2975 3731 2742 3939 
Q 2509 4147 2053 4147 
L 1259 4147 
z
" transform="scale(0.015625)"/>
       <path id="DejaVuSans-48" d="M 628 4666 
L 1259 4666 
L 1259 2753 
L 3553 2753 
L 3553 4666 
L 4184 4666 
L 4184 0 
L 3553 0 
L 3553 2222 
L 1259 2222 
L 1259 0 
L 628 0 
L 628 4666 
z
" transform="scale(0.015625)"/>
      </defs>
      <use xlink:href="#DejaVuSans-52"/>
      <use xlink:href="#DejaVuSans-48" x="69.482422"/>
      <use xlink:href="#DejaVuSans-45" x="144.677734"/>
      <use xlink:href="#DejaVuSans-4c" x="207.861328"/>
     </g>
    </g>
    <g id="line2d_56">
     <path d="M 63.691875 125.308937 
L 73.691875 125.308937 
L 83.691875 125.308937 
" style="fill: none; stroke: #48b585; stroke-width: 6; stroke-linecap: square"/>
    </g>
    <g id="text_30">
     <!-- Rocky Linux -->
     <g transform="translate(91.691875 128.808937)scale(0.1 -0.1)">
      <use xlink:href="#DejaVuSans-52"/>
      <use xlink:href="#DejaVuSans-6f" x="64.982422"/>
      <use xlink:href="#DejaVuSans-63" x="126.164062"/>
      <use xlink:href="#DejaVuSans-6b" x="181.144531"/>
      <use xlink:href="#DejaVuSans-79" x="235.429688"/>
      <use xlink:href="#DejaVuSans-20" x="294.609375"/>
      <use xlink:href="#DejaVuSans-4c" x="326.396484"/>
      <use xlink:href="#DejaVuSans-69" x="382.109375"/>
      <use xlink:href="#DejaVuSans-6e" x="409.892578"/>
      <use xlink:href="#DejaVuSans-75" x="473.271484"/>
      <use xlink:href="#DejaVuSans-78" x="536.650391"/>
     </g>
    </g>
   </g>
  </g>
 </g>
 <defs>
  <clipPath id="p2f51341371">
   <rect x="54.691875" y="24.14175" width="902.844" height="543.6"/>
  </clipPath>
 </defs>
</svg>
