<?xml version="1.0" encoding="utf-8" standalone="no"?>
<!DOCTYPE svg PUBLIC "-//W3C//DTD SVG 1.1//EN"
  "http://www.w3.org/Graphics/SVG/1.1/DTD/svg11.dtd">
<svg xmlns:xlink="http://www.w3.org/1999/xlink" width="962.123375pt" height="644.743878pt" viewBox="0 0 962.123375 644.743878" xmlns="http://www.w3.org/2000/svg" version="1.1">
 <metadata>
  <rdf:RDF xmlns:dc="http://purl.org/dc/elements/1.1/" xmlns:cc="http://creativecommons.org/ns#" xmlns:rdf="http://www.w3.org/1999/02/22-rdf-syntax-ns#">
   <cc:Work>
    <dc:type rdf:resource="http://purl.org/dc/dcmitype/StillImage"/>
    <dc:date>2025-12-04T11:55:07.953393</dc:date>
    <dc:format>image/svg+xml</dc:format>
    <dc:creator>
     <cc:Agent>
      <dc:title>Matplotlib v3.6.3, https://matplotlib.org/</dc:title>
     </cc:Agent>
    </dc:creator>
   </cc:Work>
  </rdf:RDF>
 </metadata>
 <defs>
  <style type="text/css">*{stroke-linejoin: round; stroke-linecap: butt}</style>
 </defs>
 <g id="figure_1">
  <g id="patch_1">
   <path d="M 0 644.743878 
L 962.123375 644.743878 
L 962.123375 0 
L 0 0 
z
" style="fill: #ffffff"/>
  </g>
  <g id="axes_1">
   <g id="patch_2">
    <path d="M 52.079375 578.54175 
L 954.923375 578.54175 
L 954.923375 24.14175 
L 52.079375 24.14175 
z
" style="fill: #e5e5e5"/>
   </g>
   <g id="matplotlib.axis_1">
    <g id="xtick_1">
     <g id="line2d_1">
      <path d="M 74.840148 578.54175 
L 74.840148 24.14175 
" clip-path="url(#p1f845fe89d)" style="fill: none; stroke: #ffffff; stroke-width: 0.8; stroke-linecap: square"/>
     </g>
     <g id="line2d_2">
      <defs>
       <path id="m8d1f0a282b" d="M 0 0 
L 0 3.5 
" style="stroke: #555555; stroke-width: 0.8"/>
      </defs>
      <g>
       <use xlink:href="#m8d1f0a282b" x="74.840148" y="578.54175" style="fill: #555555; stroke: #555555; stroke-width: 0.8"/>
      </g>
     </g>
     <g id="text_1">
      <!-- 2024-12 -->
      <g style="fill: #555555" transform="translate(62.018866 620.459567) rotate(-45) scale(0.1 -0.1)">
       <defs>
        <path id="DejaVuSans-32" d="M 1228 531 
L 3431 531 
L 3431 0 
L 469 0 
L 469 531 
Q 828 903 1448 1529 
Q 2069 2156 2228 2338 
Q 2531 2678 2651 2914 
Q 2772 3150 2772 3378 
Q 2772 3750 2511 3984 
Q 2250 4219 1831 4219 
Q 1534 4219 1204 4116 
Q 875 4013 500 3803 
L 500 4441 
Q 881 4594 1212 4672 
Q 1544 4750 1819 4750 
Q 2544 4750 2975 4387 
Q 3406 4025 3406 3419 
Q 3406 3131 3298 2873 
Q 3191 2616 2906 2266 
Q 2828 2175 2409 1742 
Q 1991 1309 1228 531 
z
" transform="scale(0.015625)"/>
        <path id="DejaVuSans-30" d="M 2034 4250 
Q 1547 4250 1301 3770 
Q 1056 3291 1056 2328 
Q 1056 1369 1301 889 
Q 1547 409 2034 409 
Q 2525 409 2770 889 
Q 3016 1369 3016 2328 
Q 3016 3291 2770 3770 
Q 2525 4250 2034 4250 
z
M 2034 4750 
Q 2819 4750 3233 4129 
Q 3647 3509 3647 2328 
Q 3647 1150 3233 529 
Q 2819 -91 2034 -91 
Q 1250 -91 836 529 
Q 422 1150 422 2328 
Q 422 3509 836 4129 
Q 1250 4750 2034 4750 
z
" transform="scale(0.015625)"/>
        <path id="DejaVuSans-34" d="M 2419 4116 
L 825 1625 
L 2419 1625 
L 2419 4116 
z
M 2253 4666 
L 3047 4666 
L 3047 1625 
L 3713 1625 
L 3713 1100 
L 3047 1100 
L 3047 0 
L 2419 0 
L 2419 1100 
L 313 1100 
L 313 1709 
L 2253 4666 
z
" transform="scale(0.015625)"/>
        <path id="DejaVuSans-2d" d="M 313 2009 
L 1997 2009 
L 1997 1497 
L 313 1497 
L 313 2009 
z
" transform="scale(0.015625)"/>
        <path id="DejaVuSans-31" d="M 794 531 
L 1825 531 
L 1825 4091 
L 703 3866 
L 703 4441 
L 1819 4666 
L 2450 4666 
L 2450 531 
L 3481 531 
L 3481 0 
L 794 0 
L 794 531 
z
" transform="scale(0.015625)"/>
       </defs>
       <use xlink:href="#DejaVuSans-32"/>
       <use xlink:href="#DejaVuSans-30" x="63.623047"/>
       <use xlink:href="#DejaVuSans-32" x="127.246094"/>
       <use xlink:href="#DejaVuSans-34" x="190.869141"/>
       <use xlink:href="#DejaVuSans-2d" x="254.492188"/>
       <use xlink:href="#DejaVuSans-31" x="290.576172"/>
       <use xlink:href="#DejaVuSans-32" x="354.199219"/>
      </g>
     </g>
    </g>
    <g id="xtick_2">
     <g id="line2d_3">
      <path d="M 153.238367 578.54175 
L 153.238367 24.14175 
" clip-path="url(#p1f845fe89d)" style="fill: none; stroke: #ffffff; stroke-width: 0.8; stroke-linecap: square"/>
     </g>
     <g id="line2d_4">
      <g>
       <use xlink:href="#m8d1f0a282b" x="153.238367" y="578.54175" style="fill: #555555; stroke: #555555; stroke-width: 0.8"/>
      </g>
     </g>
     <g id="text_2">
      <!-- 2025-01 -->
      <g style="fill: #555555" transform="translate(140.417084 620.459567) rotate(-45) scale(0.1 -0.1)">
       <defs>
        <path id="DejaVuSans-35" d="M 691 4666 
L 3169 4666 
L 3169 4134 
L 1269 4134 
L 1269 2991 
Q 1406 3038 1543 3061 
Q 1681 3084 1819 3084 
Q 2600 3084 3056 2656 
Q 3513 2228 3513 1497 
Q 3513 744 3044 326 
Q 2575 -91 1722 -91 
Q 1428 -91 1123 -41 
Q 819 9 494 109 
L 494 744 
Q 775 591 1075 516 
Q 1375 441 1709 441 
Q 2250 441 2565 725 
Q 2881 1009 2881 1497 
Q 2881 1984 2565 2268 
Q 2250 2553 1709 2553 
Q 1456 2553 1204 2497 
Q 953 2441 691 2322 
L 691 4666 
z
" transform="scale(0.015625)"/>
       </defs>
       <use xlink:href="#DejaVuSans-32"/>
       <use xlink:href="#DejaVuSans-30" x="63.623047"/>
       <use xlink:href="#DejaVuSans-32" x="127.246094"/>
       <use xlink:href="#DejaVuSans-35" x="190.869141"/>
       <use xlink:href="#DejaVuSans-2d" x="254.492188"/>
       <use xlink:href="#DejaVuSans-30" x="290.576172"/>
       <use xlink:href="#DejaVuSans-31" x="354.199219"/>
      </g>
     </g>
    </g>
    <g id="xtick_3">
     <g id="line2d_5">
      <path d="M 231.636585 578.54175 
L 231.636585 24.14175 
" clip-path="url(#p1f845fe89d)" style="fill: none; stroke: #ffffff; stroke-width: 0.8; stroke-linecap: square"/>
     </g>
     <g id="line2d_6">
      <g>
       <use xlink:href="#m8d1f0a282b" x="231.636585" y="578.54175" style="fill: #555555; stroke: #555555; stroke-width: 0.8"/>
      </g>
     </g>
     <g id="text_3">
      <!-- 2025-02 -->
      <g style="fill: #555555" transform="translate(218.815303 620.459567) rotate(-45) scale(0.1 -0.1)">
       <use xlink:href="#DejaVuSans-32"/>
       <use xlink:href="#DejaVuSans-30" x="63.623047"/>
       <use xlink:href="#DejaVuSans-32" x="127.246094"/>
       <use xlink:href="#DejaVuSans-35" x="190.869141"/>
       <use xlink:href="#DejaVuSans-2d" x="254.492188"/>
       <use xlink:href="#DejaVuSans-30" x="290.576172"/>
       <use xlink:href="#DejaVuSans-32" x="354.199219"/>
      </g>
     </g>
    </g>
    <g id="xtick_4">
     <g id="line2d_7">
      <path d="M 302.447879 578.54175 
L 302.447879 24.14175 
" clip-path="url(#p1f845fe89d)" style="fill: none; stroke: #ffffff; stroke-width: 0.8; stroke-linecap: square"/>
     </g>
     <g id="line2d_8">
      <g>
       <use xlink:href="#m8d1f0a282b" x="302.447879" y="578.54175" style="fill: #555555; stroke: #555555; stroke-width: 0.8"/>
      </g>
     </g>
     <g id="text_4">
      <!-- 2025-03 -->
      <g style="fill: #555555" transform="translate(289.626597 620.459567) rotate(-45) scale(0.1 -0.1)">
       <defs>
        <path id="DejaVuSans-33" d="M 2597 2516 
Q 3050 2419 3304 2112 
Q 3559 1806 3559 1356 
Q 3559 666 3084 287 
Q 2609 -91 1734 -91 
Q 1441 -91 1130 -33 
Q 819 25 488 141 
L 488 750 
Q 750 597 1062 519 
Q 1375 441 1716 441 
Q 2309 441 2620 675 
Q 2931 909 2931 1356 
Q 2931 1769 2642 2001 
Q 2353 2234 1838 2234 
L 1294 2234 
L 1294 2753 
L 1863 2753 
Q 2328 2753 2575 2939 
Q 2822 3125 2822 3475 
Q 2822 3834 2567 4026 
Q 2313 4219 1838 4219 
Q 1578 4219 1281 4162 
Q 984 4106 628 3988 
L 628 4550 
Q 988 4650 1302 4700 
Q 1616 4750 1894 4750 
Q 2613 4750 3031 4423 
Q 3450 4097 3450 3541 
Q 3450 3153 3228 2886 
Q 3006 2619 2597 2516 
z
" transform="scale(0.015625)"/>
       </defs>
       <use xlink:href="#DejaVuSans-32"/>
       <use xlink:href="#DejaVuSans-30" x="63.623047"/>
       <use xlink:href="#DejaVuSans-32" x="127.246094"/>
       <use xlink:href="#DejaVuSans-35" x="190.869141"/>
       <use xlink:href="#DejaVuSans-2d" x="254.492188"/>
       <use xlink:href="#DejaVuSans-30" x="290.576172"/>
       <use xlink:href="#DejaVuSans-33" x="354.199219"/>
      </g>
     </g>
    </g>
    <g id="xtick_5">
     <g id="line2d_9">
      <path d="M 380.846098 578.54175 
L 380.846098 24.14175 
" clip-path="url(#p1f845fe89d)" style="fill: none; stroke: #ffffff; stroke-width: 0.8; stroke-linecap: square"/>
     </g>
     <g id="line2d_10">
      <g>
       <use xlink:href="#m8d1f0a282b" x="380.846098" y="578.54175" style="fill: #555555; stroke: #555555; stroke-width: 0.8"/>
      </g>
     </g>
     <g id="text_5">
      <!-- 2025-04 -->
      <g style="fill: #555555" transform="translate(368.024815 620.459567) rotate(-45) scale(0.1 -0.1)">
       <use xlink:href="#DejaVuSans-32"/>
       <use xlink:href="#DejaVuSans-30" x="63.623047"/>
       <use xlink:href="#DejaVuSans-32" x="127.246094"/>
       <use xlink:href="#DejaVuSans-35" x="190.869141"/>
       <use xlink:href="#DejaVuSans-2d" x="254.492188"/>
       <use xlink:href="#DejaVuSans-30" x="290.576172"/>
       <use xlink:href="#DejaVuSans-34" x="354.199219"/>
      </g>
     </g>
    </g>
    <g id="xtick_6">
     <g id="line2d_11">
      <path d="M 456.715341 578.54175 
L 456.715341 24.14175 
" clip-path="url(#p1f845fe89d)" style="fill: none; stroke: #ffffff; stroke-width: 0.8; stroke-linecap: square"/>
     </g>
     <g id="line2d_12">
      <g>
       <use xlink:href="#m8d1f0a282b" x="456.715341" y="578.54175" style="fill: #555555; stroke: #555555; stroke-width: 0.8"/>
      </g>
     </g>
     <g id="text_6">
      <!-- 2025-05 -->
      <g style="fill: #555555" transform="translate(443.894059 620.459567) rotate(-45) scale(0.1 -0.1)">
       <use xlink:href="#DejaVuSans-32"/>
       <use xlink:href="#DejaVuSans-30" x="63.623047"/>
       <use xlink:href="#DejaVuSans-32" x="127.246094"/>
       <use xlink:href="#DejaVuSans-35" x="190.869141"/>
       <use xlink:href="#DejaVuSans-2d" x="254.492188"/>
       <use xlink:href="#DejaVuSans-30" x="290.576172"/>
       <use xlink:href="#DejaVuSans-35" x="354.199219"/>
      </g>
     </g>
    </g>
    <g id="xtick_7">
     <g id="line2d_13">
      <path d="M 535.11356 578.54175 
L 535.11356 24.14175 
" clip-path="url(#p1f845fe89d)" style="fill: none; stroke: #ffffff; stroke-width: 0.8; stroke-linecap: square"/>
     </g>
     <g id="line2d_14">
      <g>
       <use xlink:href="#m8d1f0a282b" x="535.11356" y="578.54175" style="fill: #555555; stroke: #555555; stroke-width: 0.8"/>
      </g>
     </g>
     <g id="text_7">
      <!-- 2025-06 -->
      <g style="fill: #555555" transform="translate(522.292278 620.459567) rotate(-45) scale(0.1 -0.1)">
       <defs>
        <path id="DejaVuSans-36" d="M 2113 2584 
Q 1688 2584 1439 2293 
Q 1191 2003 1191 1497 
Q 1191 994 1439 701 
Q 1688 409 2113 409 
Q 2538 409 2786 701 
Q 3034 994 3034 1497 
Q 3034 2003 2786 2293 
Q 2538 2584 2113 2584 
z
M 3366 4563 
L 3366 3988 
Q 3128 4100 2886 4159 
Q 2644 4219 2406 4219 
Q 1781 4219 1451 3797 
Q 1122 3375 1075 2522 
Q 1259 2794 1537 2939 
Q 1816 3084 2150 3084 
Q 2853 3084 3261 2657 
Q 3669 2231 3669 1497 
Q 3669 778 3244 343 
Q 2819 -91 2113 -91 
Q 1303 -91 875 529 
Q 447 1150 447 2328 
Q 447 3434 972 4092 
Q 1497 4750 2381 4750 
Q 2619 4750 2861 4703 
Q 3103 4656 3366 4563 
z
" transform="scale(0.015625)"/>
       </defs>
       <use xlink:href="#DejaVuSans-32"/>
       <use xlink:href="#DejaVuSans-30" x="63.623047"/>
       <use xlink:href="#DejaVuSans-32" x="127.246094"/>
       <use xlink:href="#DejaVuSans-35" x="190.869141"/>
       <use xlink:href="#DejaVuSans-2d" x="254.492188"/>
       <use xlink:href="#DejaVuSans-30" x="290.576172"/>
       <use xlink:href="#DejaVuSans-36" x="354.199219"/>
      </g>
     </g>
    </g>
    <g id="xtick_8">
     <g id="line2d_15">
      <path d="M 610.982804 578.54175 
L 610.982804 24.14175 
" clip-path="url(#p1f845fe89d)" style="fill: none; stroke: #ffffff; stroke-width: 0.8; stroke-linecap: square"/>
     </g>
     <g id="line2d_16">
      <g>
       <use xlink:href="#m8d1f0a282b" x="610.982804" y="578.54175" style="fill: #555555; stroke: #555555; stroke-width: 0.8"/>
      </g>
     </g>
     <g id="text_8">
      <!-- 2025-07 -->
      <g style="fill: #555555" transform="translate(598.161521 620.459567) rotate(-45) scale(0.1 -0.1)">
       <defs>
        <path id="DejaVuSans-37" d="M 525 4666 
L 3525 4666 
L 3525 4397 
L 1831 0 
L 1172 0 
L 2766 4134 
L 525 4134 
L 525 4666 
z
" transform="scale(0.015625)"/>
       </defs>
       <use xlink:href="#DejaVuSans-32"/>
       <use xlink:href="#DejaVuSans-30" x="63.623047"/>
       <use xlink:href="#DejaVuSans-32" x="127.246094"/>
       <use xlink:href="#DejaVuSans-35" x="190.869141"/>
       <use xlink:href="#DejaVuSans-2d" x="254.492188"/>
       <use xlink:href="#DejaVuSans-30" x="290.576172"/>
       <use xlink:href="#DejaVuSans-37" x="354.199219"/>
      </g>
     </g>
    </g>
    <g id="xtick_9">
     <g id="line2d_17">
      <path d="M 689.381022 578.54175 
L 689.381022 24.14175 
" clip-path="url(#p1f845fe89d)" style="fill: none; stroke: #ffffff; stroke-width: 0.8; stroke-linecap: square"/>
     </g>
     <g id="line2d_18">
      <g>
       <use xlink:href="#m8d1f0a282b" x="689.381022" y="578.54175" style="fill: #555555; stroke: #555555; stroke-width: 0.8"/>
      </g>
     </g>
     <g id="text_9">
      <!-- 2025-08 -->
      <g style="fill: #555555" transform="translate(676.55974 620.459567) rotate(-45) scale(0.1 -0.1)">
       <defs>
        <path id="DejaVuSans-38" d="M 2034 2216 
Q 1584 2216 1326 1975 
Q 1069 1734 1069 1313 
Q 1069 891 1326 650 
Q 1584 409 2034 409 
Q 2484 409 2743 651 
Q 3003 894 3003 1313 
Q 3003 1734 2745 1975 
Q 2488 2216 2034 2216 
z
M 1403 2484 
Q 997 2584 770 2862 
Q 544 3141 544 3541 
Q 544 4100 942 4425 
Q 1341 4750 2034 4750 
Q 2731 4750 3128 4425 
Q 3525 4100 3525 3541 
Q 3525 3141 3298 2862 
Q 3072 2584 2669 2484 
Q 3125 2378 3379 2068 
Q 3634 1759 3634 1313 
Q 3634 634 3220 271 
Q 2806 -91 2034 -91 
Q 1263 -91 848 271 
Q 434 634 434 1313 
Q 434 1759 690 2068 
Q 947 2378 1403 2484 
z
M 1172 3481 
Q 1172 3119 1398 2916 
Q 1625 2713 2034 2713 
Q 2441 2713 2670 2916 
Q 2900 3119 2900 3481 
Q 2900 3844 2670 4047 
Q 2441 4250 2034 4250 
Q 1625 4250 1398 4047 
Q 1172 3844 1172 3481 
z
" transform="scale(0.015625)"/>
       </defs>
       <use xlink:href="#DejaVuSans-32"/>
       <use xlink:href="#DejaVuSans-30" x="63.623047"/>
       <use xlink:href="#DejaVuSans-32" x="127.246094"/>
       <use xlink:href="#DejaVuSans-35" x="190.869141"/>
       <use xlink:href="#DejaVuSans-2d" x="254.492188"/>
       <use xlink:href="#DejaVuSans-30" x="290.576172"/>
       <use xlink:href="#DejaVuSans-38" x="354.199219"/>
      </g>
     </g>
    </g>
    <g id="xtick_10">
     <g id="line2d_19">
      <path d="M 767.779241 578.54175 
L 767.779241 24.14175 
" clip-path="url(#p1f845fe89d)" style="fill: none; stroke: #ffffff; stroke-width: 0.8; stroke-linecap: square"/>
     </g>
     <g id="line2d_20">
      <g>
       <use xlink:href="#m8d1f0a282b" x="767.779241" y="578.54175" style="fill: #555555; stroke: #555555; stroke-width: 0.8"/>
      </g>
     </g>
     <g id="text_10">
      <!-- 2025-09 -->
      <g style="fill: #555555" transform="translate(754.957958 620.459567) rotate(-45) scale(0.1 -0.1)">
       <defs>
        <path id="DejaVuSans-39" d="M 703 97 
L 703 672 
Q 941 559 1184 500 
Q 1428 441 1663 441 
Q 2288 441 2617 861 
Q 2947 1281 2994 2138 
Q 2813 1869 2534 1725 
Q 2256 1581 1919 1581 
Q 1219 1581 811 2004 
Q 403 2428 403 3163 
Q 403 3881 828 4315 
Q 1253 4750 1959 4750 
Q 2769 4750 3195 4129 
Q 3622 3509 3622 2328 
Q 3622 1225 3098 567 
Q 2575 -91 1691 -91 
Q 1453 -91 1209 -44 
Q 966 3 703 97 
z
M 1959 2075 
Q 2384 2075 2632 2365 
Q 2881 2656 2881 3163 
Q 2881 3666 2632 3958 
Q 2384 4250 1959 4250 
Q 1534 4250 1286 3958 
Q 1038 3666 1038 3163 
Q 1038 2656 1286 2365 
Q 1534 2075 1959 2075 
z
" transform="scale(0.015625)"/>
       </defs>
       <use xlink:href="#DejaVuSans-32"/>
       <use xlink:href="#DejaVuSans-30" x="63.623047"/>
       <use xlink:href="#DejaVuSans-32" x="127.246094"/>
       <use xlink:href="#DejaVuSans-35" x="190.869141"/>
       <use xlink:href="#DejaVuSans-2d" x="254.492188"/>
       <use xlink:href="#DejaVuSans-30" x="290.576172"/>
       <use xlink:href="#DejaVuSans-39" x="354.199219"/>
      </g>
     </g>
    </g>
    <g id="xtick_11">
     <g id="line2d_21">
      <path d="M 843.648484 578.54175 
L 843.648484 24.14175 
" clip-path="url(#p1f845fe89d)" style="fill: none; stroke: #ffffff; stroke-width: 0.8; stroke-linecap: square"/>
     </g>
     <g id="line2d_22">
      <g>
       <use xlink:href="#m8d1f0a282b" x="843.648484" y="578.54175" style="fill: #555555; stroke: #555555; stroke-width: 0.8"/>
      </g>
     </g>
     <g id="text_11">
      <!-- 2025-10 -->
      <g style="fill: #555555" transform="translate(830.827202 620.459567) rotate(-45) scale(0.1 -0.1)">
       <use xlink:href="#DejaVuSans-32"/>
       <use xlink:href="#DejaVuSans-30" x="63.623047"/>
       <use xlink:href="#DejaVuSans-32" x="127.246094"/>
       <use xlink:href="#DejaVuSans-35" x="190.869141"/>
       <use xlink:href="#DejaVuSans-2d" x="254.492188"/>
       <use xlink:href="#DejaVuSans-31" x="290.576172"/>
       <use xlink:href="#DejaVuSans-30" x="354.199219"/>
      </g>
     </g>
    </g>
    <g id="xtick_12">
     <g id="line2d_23">
      <path d="M 922.046703 578.54175 
L 922.046703 24.14175 
" clip-path="url(#p1f845fe89d)" style="fill: none; stroke: #ffffff; stroke-width: 0.8; stroke-linecap: square"/>
     </g>
     <g id="line2d_24">
      <g>
       <use xlink:href="#m8d1f0a282b" x="922.046703" y="578.54175" style="fill: #555555; stroke: #555555; stroke-width: 0.8"/>
      </g>
     </g>
     <g id="text_12">
      <!-- 2025-11 -->
      <g style="fill: #555555" transform="translate(909.22542 620.459567) rotate(-45) scale(0.1 -0.1)">
       <use xlink:href="#DejaVuSans-32"/>
       <use xlink:href="#DejaVuSans-30" x="63.623047"/>
       <use xlink:href="#DejaVuSans-32" x="127.246094"/>
       <use xlink:href="#DejaVuSans-35" x="190.869141"/>
       <use xlink:href="#DejaVuSans-2d" x="254.492188"/>
       <use xlink:href="#DejaVuSans-31" x="290.576172"/>
       <use xlink:href="#DejaVuSans-31" x="354.199219"/>
      </g>
     </g>
    </g>
    <g id="text_13">
     <!-- Date -->
     <g style="fill: #555555" transform="translate(489.160438 635.048253) scale(0.12 -0.12)">
      <defs>
       <path id="DejaVuSans-44" d="M 1259 4147 
L 1259 519 
L 2022 519 
Q 2988 519 3436 956 
Q 3884 1394 3884 2338 
Q 3884 3275 3436 3711 
Q 2988 4147 2022 4147 
L 1259 4147 
z
M 628 4666 
L 1925 4666 
Q 3281 4666 3915 4102 
Q 4550 3538 4550 2338 
Q 4550 1131 3912 565 
Q 3275 0 1925 0 
L 628 0 
L 628 4666 
z
" transform="scale(0.015625)"/>
       <path id="DejaVuSans-61" d="M 2194 1759 
Q 1497 1759 1228 1600 
Q 959 1441 959 1056 
Q 959 750 1161 570 
Q 1363 391 1709 391 
Q 2188 391 2477 730 
Q 2766 1069 2766 1631 
L 2766 1759 
L 2194 1759 
z
M 3341 1997 
L 3341 0 
L 2766 0 
L 2766 531 
Q 2569 213 2275 61 
Q 1981 -91 1556 -91 
Q 1019 -91 701 211 
Q 384 513 384 1019 
Q 384 1609 779 1909 
Q 1175 2209 1959 2209 
L 2766 2209 
L 2766 2266 
Q 2766 2663 2505 2880 
Q 2244 3097 1772 3097 
Q 1472 3097 1187 3025 
Q 903 2953 641 2809 
L 641 3341 
Q 956 3463 1253 3523 
Q 1550 3584 1831 3584 
Q 2591 3584 2966 3190 
Q 3341 2797 3341 1997 
z
" transform="scale(0.015625)"/>
       <path id="DejaVuSans-74" d="M 1172 4494 
L 1172 3500 
L 2356 3500 
L 2356 3053 
L 1172 3053 
L 1172 1153 
Q 1172 725 1289 603 
Q 1406 481 1766 481 
L 2356 481 
L 2356 0 
L 1766 0 
Q 1100 0 847 248 
Q 594 497 594 1153 
L 594 3053 
L 172 3053 
L 172 3500 
L 594 3500 
L 594 4494 
L 1172 4494 
z
" transform="scale(0.015625)"/>
       <path id="DejaVuSans-65" d="M 3597 1894 
L 3597 1613 
L 953 1613 
Q 991 1019 1311 708 
Q 1631 397 2203 397 
Q 2534 397 2845 478 
Q 3156 559 3463 722 
L 3463 178 
Q 3153 47 2828 -22 
Q 2503 -91 2169 -91 
Q 1331 -91 842 396 
Q 353 884 353 1716 
Q 353 2575 817 3079 
Q 1281 3584 2069 3584 
Q 2775 3584 3186 3129 
Q 3597 2675 3597 1894 
z
M 3022 2063 
Q 3016 2534 2758 2815 
Q 2500 3097 2075 3097 
Q 1594 3097 1305 2825 
Q 1016 2553 972 2059 
L 3022 2063 
z
" transform="scale(0.015625)"/>
      </defs>
      <use xlink:href="#DejaVuSans-44"/>
      <use xlink:href="#DejaVuSans-61" x="77.001953"/>
      <use xlink:href="#DejaVuSans-74" x="138.28125"/>
      <use xlink:href="#DejaVuSans-65" x="177.490234"/>
     </g>
    </g>
   </g>
   <g id="matplotlib.axis_2">
    <g id="ytick_1">
     <g id="line2d_25">
      <path d="M 52.079375 578.54175 
L 954.923375 578.54175 
" clip-path="url(#p1f845fe89d)" style="fill: none; stroke: #ffffff; stroke-width: 0.8; stroke-linecap: square"/>
     </g>
     <g id="line2d_26">
      <defs>
       <path id="m45452cccf4" d="M 0 0 
L -3.5 0 
" style="stroke: #555555; stroke-width: 0.8"/>
      </defs>
      <g>
       <use xlink:href="#m45452cccf4" x="52.079375" y="578.54175" style="fill: #555555; stroke: #555555; stroke-width: 0.8"/>
      </g>
     </g>
     <g id="text_14">
      <!-- 0.00 -->
      <g style="fill: #555555" transform="translate(22.81375 582.340969) scale(0.1 -0.1)">
       <defs>
        <path id="DejaVuSans-2e" d="M 684 794 
L 1344 794 
L 1344 0 
L 684 0 
L 684 794 
z
" transform="scale(0.015625)"/>
       </defs>
       <use xlink:href="#DejaVuSans-30"/>
       <use xlink:href="#DejaVuSans-2e" x="63.623047"/>
       <use xlink:href="#DejaVuSans-30" x="95.410156"/>
       <use xlink:href="#DejaVuSans-30" x="159.033203"/>
      </g>
     </g>
    </g>
    <g id="ytick_2">
     <g id="line2d_27">
      <path d="M 52.079375 516.144627 
L 954.923375 516.144627 
" clip-path="url(#p1f845fe89d)" style="fill: none; stroke: #ffffff; stroke-width: 0.8; stroke-linecap: square"/>
     </g>
     <g id="line2d_28">
      <g>
       <use xlink:href="#m45452cccf4" x="52.079375" y="516.144627" style="fill: #555555; stroke: #555555; stroke-width: 0.8"/>
      </g>
     </g>
     <g id="text_15">
      <!-- 0.05 -->
      <g style="fill: #555555" transform="translate(22.81375 519.943846) scale(0.1 -0.1)">
       <use xlink:href="#DejaVuSans-30"/>
       <use xlink:href="#DejaVuSans-2e" x="63.623047"/>
       <use xlink:href="#DejaVuSans-30" x="95.410156"/>
       <use xlink:href="#DejaVuSans-35" x="159.033203"/>
      </g>
     </g>
    </g>
    <g id="ytick_3">
     <g id="line2d_29">
      <path d="M 52.079375 453.747504 
L 954.923375 453.747504 
" clip-path="url(#p1f845fe89d)" style="fill: none; stroke: #ffffff; stroke-width: 0.8; stroke-linecap: square"/>
     </g>
     <g id="line2d_30">
      <g>
       <use xlink:href="#m45452cccf4" x="52.079375" y="453.747504" style="fill: #555555; stroke: #555555; stroke-width: 0.8"/>
      </g>
     </g>
     <g id="text_16">
      <!-- 0.10 -->
      <g style="fill: #555555" transform="translate(22.81375 457.546723) scale(0.1 -0.1)">
       <use xlink:href="#DejaVuSans-30"/>
       <use xlink:href="#DejaVuSans-2e" x="63.623047"/>
       <use xlink:href="#DejaVuSans-31" x="95.410156"/>
       <use xlink:href="#DejaVuSans-30" x="159.033203"/>
      </g>
     </g>
    </g>
    <g id="ytick_4">
     <g id="line2d_31">
      <path d="M 52.079375 391.350381 
L 954.923375 391.350381 
" clip-path="url(#p1f845fe89d)" style="fill: none; stroke: #ffffff; stroke-width: 0.8; stroke-linecap: square"/>
     </g>
     <g id="line2d_32">
      <g>
       <use xlink:href="#m45452cccf4" x="52.079375" y="391.350381" style="fill: #555555; stroke: #555555; stroke-width: 0.8"/>
      </g>
     </g>
     <g id="text_17">
      <!-- 0.15 -->
      <g style="fill: #555555" transform="translate(22.81375 395.1496) scale(0.1 -0.1)">
       <use xlink:href="#DejaVuSans-30"/>
       <use xlink:href="#DejaVuSans-2e" x="63.623047"/>
       <use xlink:href="#DejaVuSans-31" x="95.410156"/>
       <use xlink:href="#DejaVuSans-35" x="159.033203"/>
      </g>
     </g>
    </g>
    <g id="ytick_5">
     <g id="line2d_33">
      <path d="M 52.079375 328.953258 
L 954.923375 328.953258 
" clip-path="url(#p1f845fe89d)" style="fill: none; stroke: #ffffff; stroke-width: 0.8; stroke-linecap: square"/>
     </g>
     <g id="line2d_34">
      <g>
       <use xlink:href="#m45452cccf4" x="52.079375" y="328.953258" style="fill: #555555; stroke: #555555; stroke-width: 0.8"/>
      </g>
     </g>
     <g id="text_18">
      <!-- 0.20 -->
      <g style="fill: #555555" transform="translate(22.81375 332.752477) scale(0.1 -0.1)">
       <use xlink:href="#DejaVuSans-30"/>
       <use xlink:href="#DejaVuSans-2e" x="63.623047"/>
       <use xlink:href="#DejaVuSans-32" x="95.410156"/>
       <use xlink:href="#DejaVuSans-30" x="159.033203"/>
      </g>
     </g>
    </g>
    <g id="ytick_6">
     <g id="line2d_35">
      <path d="M 52.079375 266.556135 
L 954.923375 266.556135 
" clip-path="url(#p1f845fe89d)" style="fill: none; stroke: #ffffff; stroke-width: 0.8; stroke-linecap: square"/>
     </g>
     <g id="line2d_36">
      <g>
       <use xlink:href="#m45452cccf4" x="52.079375" y="266.556135" style="fill: #555555; stroke: #555555; stroke-width: 0.8"/>
      </g>
     </g>
     <g id="text_19">
      <!-- 0.25 -->
      <g style="fill: #555555" transform="translate(22.81375 270.355354) scale(0.1 -0.1)">
       <use xlink:href="#DejaVuSans-30"/>
       <use xlink:href="#DejaVuSans-2e" x="63.623047"/>
       <use xlink:href="#DejaVuSans-32" x="95.410156"/>
       <use xlink:href="#DejaVuSans-35" x="159.033203"/>
      </g>
     </g>
    </g>
    <g id="ytick_7">
     <g id="line2d_37">
      <path d="M 52.079375 204.159012 
L 954.923375 204.159012 
" clip-path="url(#p1f845fe89d)" style="fill: none; stroke: #ffffff; stroke-width: 0.8; stroke-linecap: square"/>
     </g>
     <g id="line2d_38">
      <g>
       <use xlink:href="#m45452cccf4" x="52.079375" y="204.159012" style="fill: #555555; stroke: #555555; stroke-width: 0.8"/>
      </g>
     </g>
     <g id="text_20">
      <!-- 0.30 -->
      <g style="fill: #555555" transform="translate(22.81375 207.958231) scale(0.1 -0.1)">
       <use xlink:href="#DejaVuSans-30"/>
       <use xlink:href="#DejaVuSans-2e" x="63.623047"/>
       <use xlink:href="#DejaVuSans-33" x="95.410156"/>
       <use xlink:href="#DejaVuSans-30" x="159.033203"/>
      </g>
     </g>
    </g>
    <g id="ytick_8">
     <g id="line2d_39">
      <path d="M 52.079375 141.761889 
L 954.923375 141.761889 
" clip-path="url(#p1f845fe89d)" style="fill: none; stroke: #ffffff; stroke-width: 0.8; stroke-linecap: square"/>
     </g>
     <g id="line2d_40">
      <g>
       <use xlink:href="#m45452cccf4" x="52.079375" y="141.761889" style="fill: #555555; stroke: #555555; stroke-width: 0.8"/>
      </g>
     </g>
     <g id="text_21">
      <!-- 0.35 -->
      <g style="fill: #555555" transform="translate(22.81375 145.561108) scale(0.1 -0.1)">
       <use xlink:href="#DejaVuSans-30"/>
       <use xlink:href="#DejaVuSans-2e" x="63.623047"/>
       <use xlink:href="#DejaVuSans-33" x="95.410156"/>
       <use xlink:href="#DejaVuSans-35" x="159.033203"/>
      </g>
     </g>
    </g>
    <g id="ytick_9">
     <g id="line2d_41">
      <path d="M 52.079375 79.364766 
L 954.923375 79.364766 
" clip-path="url(#p1f845fe89d)" style="fill: none; stroke: #ffffff; stroke-width: 0.8; stroke-linecap: square"/>
     </g>
     <g id="line2d_42">
      <g>
       <use xlink:href="#m45452cccf4" x="52.079375" y="79.364766" style="fill: #555555; stroke: #555555; stroke-width: 0.8"/>
      </g>
     </g>
     <g id="text_22">
      <!-- 0.40 -->
      <g style="fill: #555555" transform="translate(22.81375 83.163985) scale(0.1 -0.1)">
       <use xlink:href="#DejaVuSans-30"/>
       <use xlink:href="#DejaVuSans-2e" x="63.623047"/>
       <use xlink:href="#DejaVuSans-34" x="95.410156"/>
       <use xlink:href="#DejaVuSans-30" x="159.033203"/>
      </g>
     </g>
    </g>
    <g id="text_23">
     <!-- Share -->
     <g style="fill: #555555" transform="translate(16.318125 318.653625) rotate(-90) scale(0.12 -0.12)">
      <defs>
       <path id="DejaVuSans-53" d="M 3425 4513 
L 3425 3897 
Q 3066 4069 2747 4153 
Q 2428 4238 2131 4238 
Q 1616 4238 1336 4038 
Q 1056 3838 1056 3469 
Q 1056 3159 1242 3001 
Q 1428 2844 1947 2747 
L 2328 2669 
Q 3034 2534 3370 2195 
Q 3706 1856 3706 1288 
Q 3706 609 3251 259 
Q 2797 -91 1919 -91 
Q 1588 -91 1214 -16 
Q 841 59 441 206 
L 441 856 
Q 825 641 1194 531 
Q 1563 422 1919 422 
Q 2459 422 2753 634 
Q 3047 847 3047 1241 
Q 3047 1584 2836 1778 
Q 2625 1972 2144 2069 
L 1759 2144 
Q 1053 2284 737 2584 
Q 422 2884 422 3419 
Q 422 4038 858 4394 
Q 1294 4750 2059 4750 
Q 2388 4750 2728 4690 
Q 3069 4631 3425 4513 
z
" transform="scale(0.015625)"/>
       <path id="DejaVuSans-68" d="M 3513 2113 
L 3513 0 
L 2938 0 
L 2938 2094 
Q 2938 2591 2744 2837 
Q 2550 3084 2163 3084 
Q 1697 3084 1428 2787 
Q 1159 2491 1159 1978 
L 1159 0 
L 581 0 
L 581 4863 
L 1159 4863 
L 1159 2956 
Q 1366 3272 1645 3428 
Q 1925 3584 2291 3584 
Q 2894 3584 3203 3211 
Q 3513 2838 3513 2113 
z
" transform="scale(0.015625)"/>
       <path id="DejaVuSans-72" d="M 2631 2963 
Q 2534 3019 2420 3045 
Q 2306 3072 2169 3072 
Q 1681 3072 1420 2755 
Q 1159 2438 1159 1844 
L 1159 0 
L 581 0 
L 581 3500 
L 1159 3500 
L 1159 2956 
Q 1341 3275 1631 3429 
Q 1922 3584 2338 3584 
Q 2397 3584 2469 3576 
Q 2541 3569 2628 3553 
L 2631 2963 
z
" transform="scale(0.015625)"/>
      </defs>
      <use xlink:href="#DejaVuSans-53"/>
      <use xlink:href="#DejaVuSans-68" x="63.476562"/>
      <use xlink:href="#DejaVuSans-61" x="126.855469"/>
      <use xlink:href="#DejaVuSans-72" x="188.134766"/>
      <use xlink:href="#DejaVuSans-65" x="226.998047"/>
     </g>
    </g>
   </g>
   <g id="line2d_43">
    <path d="M 52.079375 327.376239 
L 61.199011 326.832141 
L 70.318648 326.288044 
L 79.438284 325.743946 
L 88.55792 325.199849 
L 97.677557 324.655751 
L 106.797193 324.111654 
L 115.91683 323.567556 
L 125.036466 323.023459 
L 134.156102 322.479361 
L 143.275739 321.935264 
L 152.395375 321.391166 
L 161.515011 320.847069 
L 170.634648 320.302971 
L 179.754284 319.758874 
L 188.87392 319.214776 
L 197.993557 318.670679 
L 207.113193 318.126581 
L 216.23283 317.582484 
L 225.352466 317.038386 
L 234.472102 316.494289 
L 243.591739 315.950192 
L 252.711375 315.406094 
L 261.831011 314.861997 
L 270.950648 314.317899 
L 280.070284 313.773802 
L 289.18992 313.229704 
L 298.309557 312.685607 
L 307.429193 312.141509 
L 316.54883 311.597412 
L 325.668466 311.053314 
L 334.788102 310.509217 
L 343.907739 309.965119 
L 353.027375 309.421022 
L 362.147011 308.876924 
L 371.266648 308.332827 
L 380.386284 307.788729 
L 389.50592 307.244632 
L 398.625557 306.700534 
L 407.745193 306.156437 
L 416.86483 305.612339 
L 425.984466 305.068242 
L 435.104102 304.524145 
L 444.223739 303.980047 
L 453.343375 303.43595 
L 462.463011 302.891852 
L 471.582648 302.347755 
L 480.702284 301.803657 
L 489.82192 301.25956 
L 498.941557 300.715462 
L 508.061193 300.171365 
L 517.18083 299.627267 
L 526.300466 299.08317 
L 535.420102 298.539072 
L 544.539739 297.994975 
L 553.659375 297.450877 
L 562.779011 296.90678 
L 571.898648 296.362682 
L 581.018284 295.818585 
L 590.13792 295.274487 
L 599.257557 294.73039 
L 608.377193 294.186292 
L 617.49683 293.642195 
L 626.616466 293.098098 
L 635.736102 292.554 
L 644.855739 292.009903 
L 653.975375 291.465805 
L 663.095011 290.921708 
L 672.214648 290.37761 
L 681.334284 289.833513 
L 690.45392 289.289415 
L 699.573557 288.745318 
L 708.693193 288.20122 
L 717.81283 287.657123 
L 726.932466 287.113025 
L 736.052102 286.568928 
L 745.171739 286.02483 
L 754.291375 285.480733 
L 763.411011 284.936635 
L 772.530648 284.392538 
L 781.650284 283.84844 
L 790.76992 283.304343 
L 799.889557 282.760245 
L 809.009193 282.216148 
L 818.12883 281.672051 
L 827.248466 281.127953 
L 836.368102 280.583856 
L 845.487739 280.039758 
L 854.607375 279.495661 
L 863.727011 278.951563 
L 872.846648 278.407466 
L 881.966284 277.863368 
L 891.08592 277.319271 
L 900.205557 276.775173 
L 909.325193 276.231076 
L 918.44483 275.686978 
L 927.564466 275.142881 
L 936.684102 274.598783 
L 945.803739 274.054686 
L 954.923375 273.510588 
" clip-path="url(#p1f845fe89d)" style="fill: none; stroke-dasharray: 1.5,2.475; stroke-dashoffset: 0; stroke: #4ac1fa; stroke-width: 1.5"/>
   </g>
   <g id="line2d_44">
    <path d="M 52.079375 486.839442 
L 61.199011 487.549334 
L 70.318648 488.259226 
L 79.438284 488.969119 
L 88.55792 489.679011 
L 97.677557 490.388904 
L 106.797193 491.098796 
L 115.91683 491.808688 
L 125.036466 492.518581 
L 134.156102 493.228473 
L 143.275739 493.938365 
L 152.395375 494.648258 
L 161.515011 495.35815 
L 170.634648 496.068043 
L 179.754284 496.777935 
L 188.87392 497.487827 
L 197.993557 498.19772 
L 207.113193 498.907612 
L 216.23283 499.617504 
L 225.352466 500.327397 
L 234.472102 501.037289 
L 243.591739 501.747181 
L 252.711375 502.457074 
L 261.831011 503.166966 
L 270.950648 503.876859 
L 280.070284 504.586751 
L 289.18992 505.296643 
L 298.309557 506.006536 
L 307.429193 506.716428 
L 316.54883 507.42632 
L 325.668466 508.136213 
L 334.788102 508.846105 
L 343.907739 509.555998 
L 353.027375 510.26589 
L 362.147011 510.975782 
L 371.266648 511.685675 
L 380.386284 512.395567 
L 389.50592 513.105459 
L 398.625557 513.815352 
L 407.745193 514.525244 
L 416.86483 515.235137 
L 425.984466 515.945029 
L 435.104102 516.654921 
L 444.223739 517.364814 
L 453.343375 518.074706 
L 462.463011 518.784598 
L 471.582648 519.494491 
L 480.702284 520.204383 
L 489.82192 520.914276 
L 498.941557 521.624168 
L 508.061193 522.33406 
L 517.18083 523.043953 
L 526.300466 523.753845 
L 535.420102 524.463737 
L 544.539739 525.17363 
L 553.659375 525.883522 
L 562.779011 526.593414 
L 571.898648 527.303307 
L 581.018284 528.013199 
L 590.13792 528.723092 
L 599.257557 529.432984 
L 608.377193 530.142876 
L 617.49683 530.852769 
L 626.616466 531.562661 
L 635.736102 532.272553 
L 644.855739 532.982446 
L 653.975375 533.692338 
L 663.095011 534.402231 
L 672.214648 535.112123 
L 681.334284 535.822015 
L 690.45392 536.531908 
L 699.573557 537.2418 
L 708.693193 537.951692 
L 717.81283 538.661585 
L 726.932466 539.371477 
L 736.052102 540.08137 
L 745.171739 540.791262 
L 754.291375 541.501154 
L 763.411011 542.211047 
L 772.530648 542.920939 
L 781.650284 543.630831 
L 790.76992 544.340724 
L 799.889557 545.050616 
L 809.009193 545.760509 
L 818.12883 546.470401 
L 827.248466 547.180293 
L 836.368102 547.890186 
L 845.487739 548.600078 
L 854.607375 549.30997 
L 863.727011 550.019863 
L 872.846648 550.729755 
L 881.966284 551.439647 
L 891.08592 552.14954 
L 900.205557 552.859432 
L 909.325193 553.569325 
L 918.44483 554.279217 
L 927.564466 554.989109 
L 936.684102 555.699002 
L 945.803739 556.408894 
L 954.923375 557.118786 
" clip-path="url(#p1f845fe89d)" style="fill: none; stroke-dasharray: 1.5,2.475; stroke-dashoffset: 0; stroke: #e9a942; stroke-width: 1.5"/>
   </g>
   <g id="line2d_45">
    <path d="M 52.079375 483.087489 
L 61.199011 483.023396 
L 70.318648 482.959303 
L 79.438284 482.89521 
L 88.55792 482.831117 
L 97.677557 482.767024 
L 106.797193 482.702931 
L 115.91683 482.638839 
L 125.036466 482.574746 
L 134.156102 482.510653 
L 143.275739 482.44656 
L 152.395375 482.382467 
L 161.515011 482.318374 
L 170.634648 482.254281 
L 179.754284 482.190188 
L 188.87392 482.126095 
L 197.993557 482.062002 
L 207.113193 481.997909 
L 216.23283 481.933816 
L 225.352466 481.869723 
L 234.472102 481.805631 
L 243.591739 481.741538 
L 252.711375 481.677445 
L 261.831011 481.613352 
L 270.950648 481.549259 
L 280.070284 481.485166 
L 289.18992 481.421073 
L 298.309557 481.35698 
L 307.429193 481.292887 
L 316.54883 481.228794 
L 325.668466 481.164701 
L 334.788102 481.100608 
L 343.907739 481.036515 
L 353.027375 480.972423 
L 362.147011 480.90833 
L 371.266648 480.844237 
L 380.386284 480.780144 
L 389.50592 480.716051 
L 398.625557 480.651958 
L 407.745193 480.587865 
L 416.86483 480.523772 
L 425.984466 480.459679 
L 435.104102 480.395586 
L 444.223739 480.331493 
L 453.343375 480.2674 
L 462.463011 480.203307 
L 471.582648 480.139214 
L 480.702284 480.075122 
L 489.82192 480.011029 
L 498.941557 479.946936 
L 508.061193 479.882843 
L 517.18083 479.81875 
L 526.300466 479.754657 
L 535.420102 479.690564 
L 544.539739 479.626471 
L 553.659375 479.562378 
L 562.779011 479.498285 
L 571.898648 479.434192 
L 581.018284 479.370099 
L 590.13792 479.306006 
L 599.257557 479.241914 
L 608.377193 479.177821 
L 617.49683 479.113728 
L 626.616466 479.049635 
L 635.736102 478.985542 
L 644.855739 478.921449 
L 653.975375 478.857356 
L 663.095011 478.793263 
L 672.214648 478.72917 
L 681.334284 478.665077 
L 690.45392 478.600984 
L 699.573557 478.536891 
L 708.693193 478.472798 
L 717.81283 478.408705 
L 726.932466 478.344613 
L 736.052102 478.28052 
L 745.171739 478.216427 
L 754.291375 478.152334 
L 763.411011 478.088241 
L 772.530648 478.024148 
L 781.650284 477.960055 
L 790.76992 477.895962 
L 799.889557 477.831869 
L 809.009193 477.767776 
L 818.12883 477.703683 
L 827.248466 477.63959 
L 836.368102 477.575497 
L 845.487739 477.511405 
L 854.607375 477.447312 
L 863.727011 477.383219 
L 872.846648 477.319126 
L 881.966284 477.255033 
L 891.08592 477.19094 
L 900.205557 477.126847 
L 909.325193 477.062754 
L 918.44483 476.998661 
L 927.564466 476.934568 
L 936.684102 476.870475 
L 945.803739 476.806382 
L 954.923375 476.742289 
" clip-path="url(#p1f845fe89d)" style="fill: none; stroke-dasharray: 1.5,2.475; stroke-dashoffset: 0; stroke: #9a5689; stroke-width: 1.5"/>
   </g>
   <g id="line2d_46">
    <path d="M 52.079375 538.820305 
L 61.199011 538.78532 
L 70.318648 538.750334 
L 79.438284 538.715349 
L 88.55792 538.680364 
L 97.677557 538.645378 
L 106.797193 538.610393 
L 115.91683 538.575408 
L 125.036466 538.540422 
L 134.156102 538.505437 
L 143.275739 538.470452 
L 152.395375 538.435466 
L 161.515011 538.400481 
L 170.634648 538.365496 
L 179.754284 538.33051 
L 188.87392 538.295525 
L 197.993557 538.26054 
L 207.113193 538.225554 
L 216.23283 538.190569 
L 225.352466 538.155584 
L 234.472102 538.120598 
L 243.591739 538.085613 
L 252.711375 538.050628 
L 261.831011 538.015643 
L 270.950648 537.980657 
L 280.070284 537.945672 
L 289.18992 537.910687 
L 298.309557 537.875701 
L 307.429193 537.840716 
L 316.54883 537.805731 
L 325.668466 537.770745 
L 334.788102 537.73576 
L 343.907739 537.700775 
L 353.027375 537.665789 
L 362.147011 537.630804 
L 371.266648 537.595819 
L 380.386284 537.560833 
L 389.50592 537.525848 
L 398.625557 537.490863 
L 407.745193 537.455877 
L 416.86483 537.420892 
L 425.984466 537.385907 
L 435.104102 537.350922 
L 444.223739 537.315936 
L 453.343375 537.280951 
L 462.463011 537.245966 
L 471.582648 537.21098 
L 480.702284 537.175995 
L 489.82192 537.14101 
L 498.941557 537.106024 
L 508.061193 537.071039 
L 517.18083 537.036054 
L 526.300466 537.001068 
L 535.420102 536.966083 
L 544.539739 536.931098 
L 553.659375 536.896112 
L 562.779011 536.861127 
L 571.898648 536.826142 
L 581.018284 536.791156 
L 590.13792 536.756171 
L 599.257557 536.721186 
L 608.377193 536.6862 
L 617.49683 536.651215 
L 626.616466 536.61623 
L 635.736102 536.581245 
L 644.855739 536.546259 
L 653.975375 536.511274 
L 663.095011 536.476289 
L 672.214648 536.441303 
L 681.334284 536.406318 
L 690.45392 536.371333 
L 699.573557 536.336347 
L 708.693193 536.301362 
L 717.81283 536.266377 
L 726.932466 536.231391 
L 736.052102 536.196406 
L 745.171739 536.161421 
L 754.291375 536.126435 
L 763.411011 536.09145 
L 772.530648 536.056465 
L 781.650284 536.021479 
L 790.76992 535.986494 
L 799.889557 535.951509 
L 809.009193 535.916524 
L 818.12883 535.881538 
L 827.248466 535.846553 
L 836.368102 535.811568 
L 845.487739 535.776582 
L 854.607375 535.741597 
L 863.727011 535.706612 
L 872.846648 535.671626 
L 881.966284 535.636641 
L 891.08592 535.601656 
L 900.205557 535.56667 
L 909.325193 535.531685 
L 918.44483 535.4967 
L 927.564466 535.461714 
L 936.684102 535.426729 
L 945.803739 535.391744 
L 954.923375 535.356758 
" clip-path="url(#p1f845fe89d)" style="fill: none; stroke-dasharray: 1.5,2.475; stroke-dashoffset: 0; stroke: #be503b; stroke-width: 1.5"/>
   </g>
   <g id="line2d_47">
    <path d="M 52.079375 329.495909 
L 61.199011 329.55721 
L 70.318648 329.618512 
L 79.438284 329.679813 
L 88.55792 329.741115 
L 97.677557 329.802417 
L 106.797193 329.863718 
L 115.91683 329.92502 
L 125.036466 329.986321 
L 134.156102 330.047623 
L 143.275739 330.108925 
L 152.395375 330.170226 
L 161.515011 330.231528 
L 170.634648 330.292829 
L 179.754284 330.354131 
L 188.87392 330.415432 
L 197.993557 330.476734 
L 207.113193 330.538036 
L 216.23283 330.599337 
L 225.352466 330.660639 
L 234.472102 330.72194 
L 243.591739 330.783242 
L 252.711375 330.844544 
L 261.831011 330.905845 
L 270.950648 330.967147 
L 280.070284 331.028448 
L 289.18992 331.08975 
L 298.309557 331.151051 
L 307.429193 331.212353 
L 316.54883 331.273655 
L 325.668466 331.334956 
L 334.788102 331.396258 
L 343.907739 331.457559 
L 353.027375 331.518861 
L 362.147011 331.580163 
L 371.266648 331.641464 
L 380.386284 331.702766 
L 389.50592 331.764067 
L 398.625557 331.825369 
L 407.745193 331.886671 
L 416.86483 331.947972 
L 425.984466 332.009274 
L 435.104102 332.070575 
L 444.223739 332.131877 
L 453.343375 332.193178 
L 462.463011 332.25448 
L 471.582648 332.315782 
L 480.702284 332.377083 
L 489.82192 332.438385 
L 498.941557 332.499686 
L 508.061193 332.560988 
L 517.18083 332.62229 
L 526.300466 332.683591 
L 535.420102 332.744893 
L 544.539739 332.806194 
L 553.659375 332.867496 
L 562.779011 332.928797 
L 571.898648 332.990099 
L 581.018284 333.051401 
L 590.13792 333.112702 
L 599.257557 333.174004 
L 608.377193 333.235305 
L 617.49683 333.296607 
L 626.616466 333.357909 
L 635.736102 333.41921 
L 644.855739 333.480512 
L 653.975375 333.541813 
L 663.095011 333.603115 
L 672.214648 333.664416 
L 681.334284 333.725718 
L 690.45392 333.78702 
L 699.573557 333.848321 
L 708.693193 333.909623 
L 717.81283 333.970924 
L 726.932466 334.032226 
L 736.052102 334.093528 
L 745.171739 334.154829 
L 754.291375 334.216131 
L 763.411011 334.277432 
L 772.530648 334.338734 
L 781.650284 334.400036 
L 790.76992 334.461337 
L 799.889557 334.522639 
L 809.009193 334.58394 
L 818.12883 334.645242 
L 827.248466 334.706543 
L 836.368102 334.767845 
L 845.487739 334.829147 
L 854.607375 334.890448 
L 863.727011 334.95175 
L 872.846648 335.013051 
L 881.966284 335.074353 
L 891.08592 335.135655 
L 900.205557 335.196956 
L 909.325193 335.258258 
L 918.44483 335.319559 
L 927.564466 335.380861 
L 936.684102 335.442162 
L 945.803739 335.503464 
L 954.923375 335.564766 
" clip-path="url(#p1f845fe89d)" style="fill: none; stroke-dasharray: 1.5,2.475; stroke-dashoffset: 0; stroke: #e2321d; stroke-width: 1.5"/>
   </g>
   <g id="line2d_48">
    <path d="M 52.079375 86.097326 
L 61.199011 85.977744 
L 70.318648 85.858162 
L 79.438284 85.738581 
L 88.55792 85.618999 
L 97.677557 85.499417 
L 106.797193 85.379835 
L 115.91683 85.260254 
L 125.036466 85.140672 
L 134.156102 85.02109 
L 143.275739 84.901509 
L 152.395375 84.781927 
L 161.515011 84.662345 
L 170.634648 84.542764 
L 179.754284 84.423182 
L 188.87392 84.3036 
L 197.993557 84.184019 
L 207.113193 84.064437 
L 216.23283 83.944855 
L 225.352466 83.825274 
L 234.472102 83.705692 
L 243.591739 83.58611 
L 252.711375 83.466528 
L 261.831011 83.346947 
L 270.950648 83.227365 
L 280.070284 83.107783 
L 289.18992 82.988202 
L 298.309557 82.86862 
L 307.429193 82.749038 
L 316.54883 82.629457 
L 325.668466 82.509875 
L 334.788102 82.390293 
L 343.907739 82.270712 
L 353.027375 82.15113 
L 362.147011 82.031548 
L 371.266648 81.911966 
L 380.386284 81.792385 
L 389.50592 81.672803 
L 398.625557 81.553221 
L 407.745193 81.43364 
L 416.86483 81.314058 
L 425.984466 81.194476 
L 435.104102 81.074895 
L 444.223739 80.955313 
L 453.343375 80.835731 
L 462.463011 80.71615 
L 471.582648 80.596568 
L 480.702284 80.476986 
L 489.82192 80.357404 
L 498.941557 80.237823 
L 508.061193 80.118241 
L 517.18083 79.998659 
L 526.300466 79.879078 
L 535.420102 79.759496 
L 544.539739 79.639914 
L 553.659375 79.520333 
L 562.779011 79.400751 
L 571.898648 79.281169 
L 581.018284 79.161588 
L 590.13792 79.042006 
L 599.257557 78.922424 
L 608.377193 78.802843 
L 617.49683 78.683261 
L 626.616466 78.563679 
L 635.736102 78.444097 
L 644.855739 78.324516 
L 653.975375 78.204934 
L 663.095011 78.085352 
L 672.214648 77.965771 
L 681.334284 77.846189 
L 690.45392 77.726607 
L 699.573557 77.607026 
L 708.693193 77.487444 
L 717.81283 77.367862 
L 726.932466 77.248281 
L 736.052102 77.128699 
L 745.171739 77.009117 
L 754.291375 76.889535 
L 763.411011 76.769954 
L 772.530648 76.650372 
L 781.650284 76.53079 
L 790.76992 76.411209 
L 799.889557 76.291627 
L 809.009193 76.172045 
L 818.12883 76.052464 
L 827.248466 75.932882 
L 836.368102 75.8133 
L 845.487739 75.693719 
L 854.607375 75.574137 
L 863.727011 75.454555 
L 872.846648 75.334973 
L 881.966284 75.215392 
L 891.08592 75.09581 
L 900.205557 74.976228 
L 909.325193 74.856647 
L 918.44483 74.737065 
L 927.564466 74.617483 
L 936.684102 74.497902 
L 945.803739 74.37832 
L 954.923375 74.258738 
" clip-path="url(#p1f845fe89d)" style="fill: none; stroke-dasharray: 1.5,2.475; stroke-dashoffset: 0; stroke: #48b585; stroke-width: 1.5"/>
   </g>
   <g id="line2d_49">
    <path d="M 52.079375 331.650872 
L 69.782199 328.681466 
L 87.485022 330.028377 
L 105.187846 316.418464 
L 122.890669 320.638089 
L 140.593493 325.924077 
L 158.296316 319.705667 
L 175.99914 321.399536 
L 193.701963 315.988885 
L 211.404787 314.006187 
L 229.10761 316.359645 
L 246.810434 316.288476 
L 264.513257 315.569964 
L 282.216081 316.259035 
L 299.918904 312.611421 
L 317.621728 306.196045 
L 335.324551 303.101108 
L 353.027375 304.088896 
L 370.730199 313.317647 
L 388.433022 305.919029 
L 406.135846 299.032072 
L 423.838669 310.090685 
L 441.541493 304.606544 
L 459.244316 302.657199 
L 476.94714 300.646115 
L 494.649963 303.112962 
L 512.352787 298.62638 
L 530.05561 310.866036 
L 547.758434 304.409895 
L 565.461257 294.222192 
L 583.164081 285.415496 
L 600.866904 294.093083 
L 618.569728 294.455792 
L 636.272551 291.846447 
L 653.975375 289.408249 
L 671.678199 293.797065 
L 689.381022 296.255233 
L 707.083846 304.396458 
L 724.786669 291.812931 
L 742.489493 283.45563 
L 760.192316 287.030683 
L 777.89514 284.334772 
L 795.597963 279.234756 
L 813.300787 276.698149 
L 831.00361 277.952318 
L 848.706434 286.294545 
L 866.409257 284.24959 
L 884.112081 269.251409 
L 901.814904 274.082968 
L 919.517728 281.697782 
L 937.220551 272.108566 
L 954.923375 262.762615 
" clip-path="url(#p1f845fe89d)" style="fill: none; stroke: #4ac1fa; stroke-width: 1.5; stroke-linecap: square"/>
   </g>
   <g id="line2d_50">
    <path d="M 52.079375 485.125046 
L 69.782199 482.573273 
L 87.485022 478.183205 
L 105.187846 490.993121 
L 122.890669 491.096403 
L 140.593493 490.373467 
L 158.296316 493.143808 
L 175.99914 486.540021 
L 193.701963 497.751331 
L 211.404787 496.060006 
L 229.10761 493.075949 
L 246.810434 497.05884 
L 264.513257 496.160025 
L 282.216081 497.796807 
L 299.918904 497.447241 
L 317.621728 498.068899 
L 335.324551 499.350104 
L 353.027375 495.721774 
L 370.730199 497.031526 
L 388.433022 514.051077 
L 406.135846 518.883158 
L 423.838669 527.80431 
L 441.541493 536.403578 
L 459.244316 534.26811 
L 476.94714 536.635631 
L 494.649963 536.938773 
L 512.352787 537.630679 
L 530.05561 540.413781 
L 547.758434 539.881332 
L 565.461257 540.666568 
L 583.164081 543.461606 
L 600.866904 544.453091 
L 618.569728 540.82058 
L 636.272551 540.951586 
L 653.975375 541.228329 
L 671.678199 543.67687 
L 689.381022 541.727795 
L 707.083846 542.248228 
L 724.786669 541.421661 
L 742.489493 540.525689 
L 760.192316 540.896681 
L 777.89514 540.988735 
L 795.597963 540.946086 
L 813.300787 541.143116 
L 831.00361 540.109678 
L 848.706434 541.623659 
L 866.409257 541.084871 
L 884.112081 541.696649 
L 901.814904 541.321891 
L 919.517728 541.199326 
L 937.220551 544.755014 
L 954.923375 539.504948 
" clip-path="url(#p1f845fe89d)" style="fill: none; stroke: #e9a942; stroke-width: 1.5; stroke-linecap: square"/>
   </g>
   <g id="line2d_51">
    <path d="M 52.079375 485.952365 
L 69.782199 486.91838 
L 87.485022 486.697337 
L 105.187846 481.42589 
L 122.890669 480.027457 
L 140.593493 479.255856 
L 158.296316 482.360476 
L 175.99914 483.495632 
L 193.701963 482.313055 
L 211.404787 481.563803 
L 229.10761 481.617809 
L 246.810434 484.506405 
L 264.513257 480.88522 
L 282.216081 476.003005 
L 299.918904 478.680062 
L 317.621728 479.72688 
L 335.324551 480.124143 
L 353.027375 481.380914 
L 370.730199 483.782102 
L 388.433022 479.741035 
L 406.135846 479.626592 
L 423.838669 482.469528 
L 441.541493 477.242398 
L 459.244316 475.976327 
L 476.94714 481.634081 
L 494.649963 474.321961 
L 512.352787 480.950986 
L 530.05561 482.618584 
L 547.758434 479.522237 
L 565.461257 481.673005 
L 583.164081 482.28522 
L 600.866904 483.608304 
L 618.569728 483.099782 
L 636.272551 482.926165 
L 653.975375 480.776992 
L 671.678199 477.341502 
L 689.381022 477.079596 
L 707.083846 474.44426 
L 724.786669 474.241976 
L 742.489493 475.579659 
L 760.192316 477.062296 
L 777.89514 475.084051 
L 795.597963 476.373325 
L 813.300787 480.798873 
L 831.00361 479.273202 
L 848.706434 474.025121 
L 866.409257 479.838213 
L 884.112081 476.829046 
L 901.814904 480.398472 
L 919.517728 479.243495 
L 937.220551 478.472958 
L 954.923375 474.298209 
" clip-path="url(#p1f845fe89d)" style="fill: none; stroke: #9a5689; stroke-width: 1.5; stroke-linecap: square"/>
   </g>
   <g id="line2d_52">
    <path d="M 52.079375 538.809527 
L 69.782199 539.459989 
L 87.485022 539.645946 
L 105.187846 536.250998 
L 122.890669 536.486283 
L 140.593493 537.572027 
L 158.296316 537.335523 
L 175.99914 538.687541 
L 193.701963 537.76617 
L 211.404787 538.380663 
L 229.10761 538.771721 
L 246.810434 538.500828 
L 264.513257 538.396229 
L 282.216081 538.748618 
L 299.918904 538.098243 
L 317.621728 539.2716 
L 335.324551 539.022969 
L 353.027375 539.388824 
L 370.730199 539.604172 
L 388.433022 538.316706 
L 406.135846 537.592379 
L 423.838669 537.842116 
L 441.541493 538.245226 
L 459.244316 537.96877 
L 476.94714 535.853662 
L 494.649963 536.291202 
L 512.352787 538.100783 
L 530.05561 537.39512 
L 547.758434 535.11166 
L 565.461257 533.933362 
L 583.164081 536.074826 
L 600.866904 537.04281 
L 618.569728 537.29006 
L 636.272551 538.255359 
L 653.975375 537.966651 
L 671.678199 534.894677 
L 689.381022 534.817765 
L 707.083846 536.389106 
L 724.786669 534.009633 
L 742.489493 530.85799 
L 760.192316 534.371388 
L 777.89514 535.764223 
L 795.597963 537.460555 
L 813.300787 536.744631 
L 831.00361 535.803807 
L 848.706434 536.636861 
L 866.409257 536.420737 
L 884.112081 536.669312 
L 901.814904 536.579831 
L 919.517728 537.330122 
L 937.220551 534.869394 
L 954.923375 535.505051 
" clip-path="url(#p1f845fe89d)" style="fill: none; stroke: #be503b; stroke-width: 1.5; stroke-linecap: square"/>
   </g>
   <g id="line2d_53">
    <path d="M 52.079375 324.448207 
L 69.782199 323.555538 
L 87.485022 330.386817 
L 105.187846 328.042107 
L 122.890669 329.300321 
L 140.593493 328.188494 
L 158.296316 326.824469 
L 175.99914 335.080599 
L 193.701963 328.975099 
L 211.404787 331.867887 
L 229.10761 333.446391 
L 246.810434 322.673263 
L 264.513257 327.115919 
L 282.216081 328.522339 
L 299.918904 332.105806 
L 317.621728 340.265213 
L 335.324551 338.815658 
L 353.027375 339.012603 
L 370.730199 342.583423 
L 388.433022 335.919584 
L 406.135846 334.89525 
L 423.838669 329.73071 
L 441.541493 325.908446 
L 459.244316 327.412802 
L 476.94714 327.050745 
L 494.649963 329.045097 
L 512.352787 330.609984 
L 530.05561 330.530201 
L 547.758434 327.090617 
L 565.461257 331.143941 
L 583.164081 340.042758 
L 600.866904 340.779616 
L 618.569728 332.317197 
L 636.272551 333.98188 
L 653.975375 328.329569 
L 671.678199 340.975941 
L 689.381022 342.00753 
L 707.083846 339.627458 
L 724.786669 336.817658 
L 742.489493 329.44494 
L 760.192316 340.430778 
L 777.89514 330.450933 
L 795.597963 336.432957 
L 813.300787 342.487942 
L 831.00361 336.452642 
L 848.706434 333.028126 
L 866.409257 329.487371 
L 884.112081 336.617784 
L 901.814904 333.267202 
L 919.517728 334.237566 
L 937.220551 323.077524 
L 954.923375 330.734636 
" clip-path="url(#p1f845fe89d)" style="fill: none; stroke: #e2321d; stroke-width: 1.5; stroke-linecap: square"/>
   </g>
   <g id="line2d_54">
    <path d="M 52.079375 84.502973 
L 69.782199 89.363789 
L 87.485022 86.412117 
L 105.187846 99.622125 
L 122.890669 95.579934 
L 140.593493 90.46291 
L 158.296316 92.056233 
L 175.99914 86.396197 
L 193.701963 89.313505 
L 211.404787 90.148819 
L 229.10761 89.057553 
L 246.810434 93.592567 
L 264.513257 94.160818 
L 282.216081 94.480129 
L 299.918904 93.391058 
L 317.621728 88.377695 
L 335.324551 91.598097 
L 353.027375 92.254295 
L 370.730199 75.146577 
L 388.433022 78.06399 
L 406.135846 81.874846 
L 423.838669 63.746012 
L 441.541493 70.312424 
L 459.244316 75.585968 
L 476.94714 70.858057 
L 494.649963 72.582403 
L 512.352787 66.659214 
L 530.05561 49.521609 
L 547.758434 66.01695 
L 565.461257 70.383432 
L 583.164081 64.39232 
L 600.866904 50.490768 
L 618.569728 63.826959 
L 636.272551 64.383481 
L 653.975375 74.773653 
L 671.678199 60.868288 
L 689.381022 59.923526 
L 707.083846 54.624125 
L 724.786669 73.806799 
L 742.489493 93.450339 
L 760.192316 72.202788 
L 777.89514 85.624071 
L 795.597963 82.161719 
L 813.300787 74.717474 
L 831.00361 83.215082 
L 848.706434 80.658155 
L 866.409257 81.996304 
L 884.112081 92.182844 
L 901.814904 87.496384 
L 919.517728 79.186783 
L 937.220551 96.752106 
L 954.923375 111.001395 
" clip-path="url(#p1f845fe89d)" style="fill: none; stroke: #48b585; stroke-width: 6; stroke-linecap: square"/>
   </g>
   <g id="patch_3">
    <path d="M 52.079375 578.54175 
L 52.079375 24.14175 
" style="fill: none; stroke: #ffffff; stroke-linejoin: miter; stroke-linecap: square"/>
   </g>
   <g id="patch_4">
    <path d="M 954.923375 578.54175 
L 954.923375 24.14175 
" style="fill: none; stroke: #ffffff; stroke-linejoin: miter; stroke-linecap: square"/>
   </g>
   <g id="patch_5">
    <path d="M 52.079375 578.54175 
L 954.923375 578.54175 
" style="fill: none; stroke: #ffffff; stroke-linejoin: miter; stroke-linecap: square"/>
   </g>
   <g id="patch_6">
    <path d="M 52.079375 24.14175 
L 954.923375 24.14175 
" style="fill: none; stroke: #ffffff; stroke-linejoin: miter; stroke-linecap: square"/>
   </g>
   <g id="text_24">
    <!-- Enterprise Linux Instances by Distribution Share (System Age &gt; 1 Week) -->
    <g transform="translate(52.079375 18.14175) scale(0.144 -0.144)">
     <defs>
      <path id="DejaVuSans-45" d="M 628 4666 
L 3578 4666 
L 3578 4134 
L 1259 4134 
L 1259 2753 
L 3481 2753 
L 3481 2222 
L 1259 2222 
L 1259 531 
L 3634 531 
L 3634 0 
L 628 0 
L 628 4666 
z
" transform="scale(0.015625)"/>
      <path id="DejaVuSans-6e" d="M 3513 2113 
L 3513 0 
L 2938 0 
L 2938 2094 
Q 2938 2591 2744 2837 
Q 2550 3084 2163 3084 
Q 1697 3084 1428 2787 
Q 1159 2491 1159 1978 
L 1159 0 
L 581 0 
L 581 3500 
L 1159 3500 
L 1159 2956 
Q 1366 3272 1645 3428 
Q 1925 3584 2291 3584 
Q 2894 3584 3203 3211 
Q 3513 2838 3513 2113 
z
" transform="scale(0.015625)"/>
      <path id="DejaVuSans-70" d="M 1159 525 
L 1159 -1331 
L 581 -1331 
L 581 3500 
L 1159 3500 
L 1159 2969 
Q 1341 3281 1617 3432 
Q 1894 3584 2278 3584 
Q 2916 3584 3314 3078 
Q 3713 2572 3713 1747 
Q 3713 922 3314 415 
Q 2916 -91 2278 -91 
Q 1894 -91 1617 61 
Q 1341 213 1159 525 
z
M 3116 1747 
Q 3116 2381 2855 2742 
Q 2594 3103 2138 3103 
Q 1681 3103 1420 2742 
Q 1159 2381 1159 1747 
Q 1159 1113 1420 752 
Q 1681 391 2138 391 
Q 2594 391 2855 752 
Q 3116 1113 3116 1747 
z
" transform="scale(0.015625)"/>
      <path id="DejaVuSans-69" d="M 603 3500 
L 1178 3500 
L 1178 0 
L 603 0 
L 603 3500 
z
M 603 4863 
L 1178 4863 
L 1178 4134 
L 603 4134 
L 603 4863 
z
" transform="scale(0.015625)"/>
      <path id="DejaVuSans-73" d="M 2834 3397 
L 2834 2853 
Q 2591 2978 2328 3040 
Q 2066 3103 1784 3103 
Q 1356 3103 1142 2972 
Q 928 2841 928 2578 
Q 928 2378 1081 2264 
Q 1234 2150 1697 2047 
L 1894 2003 
Q 2506 1872 2764 1633 
Q 3022 1394 3022 966 
Q 3022 478 2636 193 
Q 2250 -91 1575 -91 
Q 1294 -91 989 -36 
Q 684 19 347 128 
L 347 722 
Q 666 556 975 473 
Q 1284 391 1588 391 
Q 1994 391 2212 530 
Q 2431 669 2431 922 
Q 2431 1156 2273 1281 
Q 2116 1406 1581 1522 
L 1381 1569 
Q 847 1681 609 1914 
Q 372 2147 372 2553 
Q 372 3047 722 3315 
Q 1072 3584 1716 3584 
Q 2034 3584 2315 3537 
Q 2597 3491 2834 3397 
z
" transform="scale(0.015625)"/>
      <path id="DejaVuSans-20" transform="scale(0.015625)"/>
      <path id="DejaVuSans-4c" d="M 628 4666 
L 1259 4666 
L 1259 531 
L 3531 531 
L 3531 0 
L 628 0 
L 628 4666 
z
" transform="scale(0.015625)"/>
      <path id="DejaVuSans-75" d="M 544 1381 
L 544 3500 
L 1119 3500 
L 1119 1403 
Q 1119 906 1312 657 
Q 1506 409 1894 409 
Q 2359 409 2629 706 
Q 2900 1003 2900 1516 
L 2900 3500 
L 3475 3500 
L 3475 0 
L 2900 0 
L 2900 538 
Q 2691 219 2414 64 
Q 2138 -91 1772 -91 
Q 1169 -91 856 284 
Q 544 659 544 1381 
z
M 1991 3584 
L 1991 3584 
z
" transform="scale(0.015625)"/>
      <path id="DejaVuSans-78" d="M 3513 3500 
L 2247 1797 
L 3578 0 
L 2900 0 
L 1881 1375 
L 863 0 
L 184 0 
L 1544 1831 
L 300 3500 
L 978 3500 
L 1906 2253 
L 2834 3500 
L 3513 3500 
z
" transform="scale(0.015625)"/>
      <path id="DejaVuSans-49" d="M 628 4666 
L 1259 4666 
L 1259 0 
L 628 0 
L 628 4666 
z
" transform="scale(0.015625)"/>
      <path id="DejaVuSans-63" d="M 3122 3366 
L 3122 2828 
Q 2878 2963 2633 3030 
Q 2388 3097 2138 3097 
Q 1578 3097 1268 2742 
Q 959 2388 959 1747 
Q 959 1106 1268 751 
Q 1578 397 2138 397 
Q 2388 397 2633 464 
Q 2878 531 3122 666 
L 3122 134 
Q 2881 22 2623 -34 
Q 2366 -91 2075 -91 
Q 1284 -91 818 406 
Q 353 903 353 1747 
Q 353 2603 823 3093 
Q 1294 3584 2113 3584 
Q 2378 3584 2631 3529 
Q 2884 3475 3122 3366 
z
" transform="scale(0.015625)"/>
      <path id="DejaVuSans-62" d="M 3116 1747 
Q 3116 2381 2855 2742 
Q 2594 3103 2138 3103 
Q 1681 3103 1420 2742 
Q 1159 2381 1159 1747 
Q 1159 1113 1420 752 
Q 1681 391 2138 391 
Q 2594 391 2855 752 
Q 3116 1113 3116 1747 
z
M 1159 2969 
Q 1341 3281 1617 3432 
Q 1894 3584 2278 3584 
Q 2916 3584 3314 3078 
Q 3713 2572 3713 1747 
Q 3713 922 3314 415 
Q 2916 -91 2278 -91 
Q 1894 -91 1617 61 
Q 1341 213 1159 525 
L 1159 0 
L 581 0 
L 581 4863 
L 1159 4863 
L 1159 2969 
z
" transform="scale(0.015625)"/>
      <path id="DejaVuSans-79" d="M 2059 -325 
Q 1816 -950 1584 -1140 
Q 1353 -1331 966 -1331 
L 506 -1331 
L 506 -850 
L 844 -850 
Q 1081 -850 1212 -737 
Q 1344 -625 1503 -206 
L 1606 56 
L 191 3500 
L 800 3500 
L 1894 763 
L 2988 3500 
L 3597 3500 
L 2059 -325 
z
" transform="scale(0.015625)"/>
      <path id="DejaVuSans-6f" d="M 1959 3097 
Q 1497 3097 1228 2736 
Q 959 2375 959 1747 
Q 959 1119 1226 758 
Q 1494 397 1959 397 
Q 2419 397 2687 759 
Q 2956 1122 2956 1747 
Q 2956 2369 2687 2733 
Q 2419 3097 1959 3097 
z
M 1959 3584 
Q 2709 3584 3137 3096 
Q 3566 2609 3566 1747 
Q 3566 888 3137 398 
Q 2709 -91 1959 -91 
Q 1206 -91 779 398 
Q 353 888 353 1747 
Q 353 2609 779 3096 
Q 1206 3584 1959 3584 
z
" transform="scale(0.015625)"/>
      <path id="DejaVuSans-28" d="M 1984 4856 
Q 1566 4138 1362 3434 
Q 1159 2731 1159 2009 
Q 1159 1288 1364 580 
Q 1569 -128 1984 -844 
L 1484 -844 
Q 1016 -109 783 600 
Q 550 1309 550 2009 
Q 550 2706 781 3412 
Q 1013 4119 1484 4856 
L 1984 4856 
z
" transform="scale(0.015625)"/>
      <path id="DejaVuSans-6d" d="M 3328 2828 
Q 3544 3216 3844 3400 
Q 4144 3584 4550 3584 
Q 5097 3584 5394 3201 
Q 5691 2819 5691 2113 
L 5691 0 
L 5113 0 
L 5113 2094 
Q 5113 2597 4934 2840 
Q 4756 3084 4391 3084 
Q 3944 3084 3684 2787 
Q 3425 2491 3425 1978 
L 3425 0 
L 2847 0 
L 2847 2094 
Q 2847 2600 2669 2842 
Q 2491 3084 2119 3084 
Q 1678 3084 1418 2786 
Q 1159 2488 1159 1978 
L 1159 0 
L 581 0 
L 581 3500 
L 1159 3500 
L 1159 2956 
Q 1356 3278 1631 3431 
Q 1906 3584 2284 3584 
Q 2666 3584 2933 3390 
Q 3200 3197 3328 2828 
z
" transform="scale(0.015625)"/>
      <path id="DejaVuSans-41" d="M 2188 4044 
L 1331 1722 
L 3047 1722 
L 2188 4044 
z
M 1831 4666 
L 2547 4666 
L 4325 0 
L 3669 0 
L 3244 1197 
L 1141 1197 
L 716 0 
L 50 0 
L 1831 4666 
z
" transform="scale(0.015625)"/>
      <path id="DejaVuSans-67" d="M 2906 1791 
Q 2906 2416 2648 2759 
Q 2391 3103 1925 3103 
Q 1463 3103 1205 2759 
Q 947 2416 947 1791 
Q 947 1169 1205 825 
Q 1463 481 1925 481 
Q 2391 481 2648 825 
Q 2906 1169 2906 1791 
z
M 3481 434 
Q 3481 -459 3084 -895 
Q 2688 -1331 1869 -1331 
Q 1566 -1331 1297 -1286 
Q 1028 -1241 775 -1147 
L 775 -588 
Q 1028 -725 1275 -790 
Q 1522 -856 1778 -856 
Q 2344 -856 2625 -561 
Q 2906 -266 2906 331 
L 2906 616 
Q 2728 306 2450 153 
Q 2172 0 1784 0 
Q 1141 0 747 490 
Q 353 981 353 1791 
Q 353 2603 747 3093 
Q 1141 3584 1784 3584 
Q 2172 3584 2450 3431 
Q 2728 3278 2906 2969 
L 2906 3500 
L 3481 3500 
L 3481 434 
z
" transform="scale(0.015625)"/>
      <path id="DejaVuSans-3e" d="M 678 3150 
L 678 3719 
L 4684 2266 
L 4684 1747 
L 678 294 
L 678 863 
L 3897 2003 
L 678 3150 
z
" transform="scale(0.015625)"/>
      <path id="DejaVuSans-57" d="M 213 4666 
L 850 4666 
L 1831 722 
L 2809 4666 
L 3519 4666 
L 4500 722 
L 5478 4666 
L 6119 4666 
L 4947 0 
L 4153 0 
L 3169 4050 
L 2175 0 
L 1381 0 
L 213 4666 
z
" transform="scale(0.015625)"/>
      <path id="DejaVuSans-6b" d="M 581 4863 
L 1159 4863 
L 1159 1991 
L 2875 3500 
L 3609 3500 
L 1753 1863 
L 3688 0 
L 2938 0 
L 1159 1709 
L 1159 0 
L 581 0 
L 581 4863 
z
" transform="scale(0.015625)"/>
      <path id="DejaVuSans-29" d="M 513 4856 
L 1013 4856 
Q 1481 4119 1714 3412 
Q 1947 2706 1947 2009 
Q 1947 1309 1714 600 
Q 1481 -109 1013 -844 
L 513 -844 
Q 928 -128 1133 580 
Q 1338 1288 1338 2009 
Q 1338 2731 1133 3434 
Q 928 4138 513 4856 
z
" transform="scale(0.015625)"/>
     </defs>
     <use xlink:href="#DejaVuSans-45"/>
     <use xlink:href="#DejaVuSans-6e" x="63.183594"/>
     <use xlink:href="#DejaVuSans-74" x="126.5625"/>
     <use xlink:href="#DejaVuSans-65" x="165.771484"/>
     <use xlink:href="#DejaVuSans-72" x="227.294922"/>
     <use xlink:href="#DejaVuSans-70" x="268.408203"/>
     <use xlink:href="#DejaVuSans-72" x="331.884766"/>
     <use xlink:href="#DejaVuSans-69" x="372.998047"/>
     <use xlink:href="#DejaVuSans-73" x="400.78125"/>
     <use xlink:href="#DejaVuSans-65" x="452.880859"/>
     <use xlink:href="#DejaVuSans-20" x="514.404297"/>
     <use xlink:href="#DejaVuSans-4c" x="546.191406"/>
     <use xlink:href="#DejaVuSans-69" x="601.904297"/>
     <use xlink:href="#DejaVuSans-6e" x="629.6875"/>
     <use xlink:href="#DejaVuSans-75" x="693.066406"/>
     <use xlink:href="#DejaVuSans-78" x="756.445312"/>
     <use xlink:href="#DejaVuSans-20" x="815.625"/>
     <use xlink:href="#DejaVuSans-49" x="847.412109"/>
     <use xlink:href="#DejaVuSans-6e" x="876.904297"/>
     <use xlink:href="#DejaVuSans-73" x="940.283203"/>
     <use xlink:href="#DejaVuSans-74" x="992.382812"/>
     <use xlink:href="#DejaVuSans-61" x="1031.591797"/>
     <use xlink:href="#DejaVuSans-6e" x="1092.871094"/>
     <use xlink:href="#DejaVuSans-63" x="1156.25"/>
     <use xlink:href="#DejaVuSans-65" x="1211.230469"/>
     <use xlink:href="#DejaVuSans-73" x="1272.753906"/>
     <use xlink:href="#DejaVuSans-20" x="1324.853516"/>
     <use xlink:href="#DejaVuSans-62" x="1356.640625"/>
     <use xlink:href="#DejaVuSans-79" x="1420.117188"/>
     <use xlink:href="#DejaVuSans-20" x="1479.296875"/>
     <use xlink:href="#DejaVuSans-44" x="1511.083984"/>
     <use xlink:href="#DejaVuSans-69" x="1588.085938"/>
     <use xlink:href="#DejaVuSans-73" x="1615.869141"/>
     <use xlink:href="#DejaVuSans-74" x="1667.96875"/>
     <use xlink:href="#DejaVuSans-72" x="1707.177734"/>
     <use xlink:href="#DejaVuSans-69" x="1748.291016"/>
     <use xlink:href="#DejaVuSans-62" x="1776.074219"/>
     <use xlink:href="#DejaVuSans-75" x="1839.550781"/>
     <use xlink:href="#DejaVuSans-74" x="1902.929688"/>
     <use xlink:href="#DejaVuSans-69" x="1942.138672"/>
     <use xlink:href="#DejaVuSans-6f" x="1969.921875"/>
     <use xlink:href="#DejaVuSans-6e" x="2031.103516"/>
     <use xlink:href="#DejaVuSans-20" x="2094.482422"/>
     <use xlink:href="#DejaVuSans-53" x="2126.269531"/>
     <use xlink:href="#DejaVuSans-68" x="2189.746094"/>
     <use xlink:href="#DejaVuSans-61" x="2253.125"/>
     <use xlink:href="#DejaVuSans-72" x="2314.404297"/>
     <use xlink:href="#DejaVuSans-65" x="2353.267578"/>
     <use xlink:href="#DejaVuSans-20" x="2414.791016"/>
     <use xlink:href="#DejaVuSans-28" x="2446.578125"/>
     <use xlink:href="#DejaVuSans-53" x="2485.591797"/>
     <use xlink:href="#DejaVuSans-79" x="2549.068359"/>
     <use xlink:href="#DejaVuSans-73" x="2608.248047"/>
     <use xlink:href="#DejaVuSans-74" x="2660.347656"/>
     <use xlink:href="#DejaVuSans-65" x="2699.556641"/>
     <use xlink:href="#DejaVuSans-6d" x="2761.080078"/>
     <use xlink:href="#DejaVuSans-20" x="2858.492188"/>
     <use xlink:href="#DejaVuSans-41" x="2890.279297"/>
     <use xlink:href="#DejaVuSans-67" x="2958.6875"/>
     <use xlink:href="#DejaVuSans-65" x="3022.164062"/>
     <use xlink:href="#DejaVuSans-20" x="3083.6875"/>
     <use xlink:href="#DejaVuSans-3e" x="3115.474609"/>
     <use xlink:href="#DejaVuSans-20" x="3199.263672"/>
     <use xlink:href="#DejaVuSans-31" x="3231.050781"/>
     <use xlink:href="#DejaVuSans-20" x="3294.673828"/>
     <use xlink:href="#DejaVuSans-57" x="3326.460938"/>
     <use xlink:href="#DejaVuSans-65" x="3419.462891"/>
     <use xlink:href="#DejaVuSans-65" x="3480.986328"/>
     <use xlink:href="#DejaVuSans-6b" x="3542.509766"/>
     <use xlink:href="#DejaVuSans-29" x="3600.419922"/>
    </g>
   </g>
   <g id="text_25">
    <!-- 2025-12-04 11:55 UTC -->
    <g transform="translate(792.041375 18.14175) scale(0.144 -0.144)">
     <defs>
      <path id="DejaVuSans-3a" d="M 750 794 
L 1409 794 
L 1409 0 
L 750 0 
L 750 794 
z
M 750 3309 
L 1409 3309 
L 1409 2516 
L 750 2516 
L 750 3309 
z
" transform="scale(0.015625)"/>
      <path id="DejaVuSans-55" d="M 556 4666 
L 1191 4666 
L 1191 1831 
Q 1191 1081 1462 751 
Q 1734 422 2344 422 
Q 2950 422 3222 751 
Q 3494 1081 3494 1831 
L 3494 4666 
L 4128 4666 
L 4128 1753 
Q 4128 841 3676 375 
Q 3225 -91 2344 -91 
Q 1459 -91 1007 375 
Q 556 841 556 1753 
L 556 4666 
z
" transform="scale(0.015625)"/>
      <path id="DejaVuSans-54" d="M -19 4666 
L 3928 4666 
L 3928 4134 
L 2272 4134 
L 2272 0 
L 1638 0 
L 1638 4134 
L -19 4134 
L -19 4666 
z
" transform="scale(0.015625)"/>
      <path id="DejaVuSans-43" d="M 4122 4306 
L 4122 3641 
Q 3803 3938 3442 4084 
Q 3081 4231 2675 4231 
Q 1875 4231 1450 3742 
Q 1025 3253 1025 2328 
Q 1025 1406 1450 917 
Q 1875 428 2675 428 
Q 3081 428 3442 575 
Q 3803 722 4122 1019 
L 4122 359 
Q 3791 134 3420 21 
Q 3050 -91 2638 -91 
Q 1578 -91 968 557 
Q 359 1206 359 2328 
Q 359 3453 968 4101 
Q 1578 4750 2638 4750 
Q 3056 4750 3426 4639 
Q 3797 4528 4122 4306 
z
" transform="scale(0.015625)"/>
     </defs>
     <use xlink:href="#DejaVuSans-32"/>
     <use xlink:href="#DejaVuSans-30" x="63.623047"/>
     <use xlink:href="#DejaVuSans-32" x="127.246094"/>
     <use xlink:href="#DejaVuSans-35" x="190.869141"/>
     <use xlink:href="#DejaVuSans-2d" x="254.492188"/>
     <use xlink:href="#DejaVuSans-31" x="290.576172"/>
     <use xlink:href="#DejaVuSans-32" x="354.199219"/>
     <use xlink:href="#DejaVuSans-2d" x="417.822266"/>
     <use xlink:href="#DejaVuSans-30" x="453.90625"/>
     <use xlink:href="#DejaVuSans-34" x="517.529297"/>
     <use xlink:href="#DejaVuSans-20" x="581.152344"/>
     <use xlink:href="#DejaVuSans-31" x="612.939453"/>
     <use xlink:href="#DejaVuSans-31" x="676.5625"/>
     <use xlink:href="#DejaVuSans-3a" x="740.185547"/>
     <use xlink:href="#DejaVuSans-35" x="773.876953"/>
     <use xlink:href="#DejaVuSans-35" x="837.5"/>
     <use xlink:href="#DejaVuSans-20" x="901.123047"/>
     <use xlink:href="#DejaVuSans-55" x="932.910156"/>
     <use xlink:href="#DejaVuSans-54" x="1006.103516"/>
     <use xlink:href="#DejaVuSans-43" x="1061.3125"/>
    </g>
   </g>
   <g id="legend_1">
    <g id="patch_7">
     <path d="M 838.954625 134.888625 
L 947.923375 134.888625 
Q 949.923375 134.888625 949.923375 132.888625 
L 949.923375 31.14175 
Q 949.923375 29.14175 947.923375 29.14175 
L 838.954625 29.14175 
Q 836.954625 29.14175 836.954625 31.14175 
L 836.954625 132.888625 
Q 836.954625 134.888625 838.954625 134.888625 
z
" style="fill: #e5e5e5; opacity: 0.8; stroke: #cccccc; stroke-width: 0.5; stroke-linejoin: miter"/>
    </g>
    <g id="text_26">
     <!-- Distribution -->
     <g transform="translate(864.27025 40.740188) scale(0.1 -0.1)">
      <use xlink:href="#DejaVuSans-44"/>
      <use xlink:href="#DejaVuSans-69" x="77.001953"/>
      <use xlink:href="#DejaVuSans-73" x="104.785156"/>
      <use xlink:href="#DejaVuSans-74" x="156.884766"/>
      <use xlink:href="#DejaVuSans-72" x="196.09375"/>
      <use xlink:href="#DejaVuSans-69" x="237.207031"/>
      <use xlink:href="#DejaVuSans-62" x="264.990234"/>
      <use xlink:href="#DejaVuSans-75" x="328.466797"/>
      <use xlink:href="#DejaVuSans-74" x="391.845703"/>
      <use xlink:href="#DejaVuSans-69" x="431.054688"/>
      <use xlink:href="#DejaVuSans-6f" x="458.837891"/>
      <use xlink:href="#DejaVuSans-6e" x="520.019531"/>
     </g>
    </g>
    <g id="line2d_55">
     <path d="M 840.954625 51.918313 
L 850.954625 51.918313 
L 860.954625 51.918313 
" style="fill: none; stroke: #4ac1fa; stroke-width: 1.5; stroke-linecap: square"/>
    </g>
    <g id="text_27">
     <!-- AlmaLinux -->
     <g transform="translate(868.954625 55.418313) scale(0.1 -0.1)">
      <defs>
       <path id="DejaVuSans-6c" d="M 603 4863 
L 1178 4863 
L 1178 0 
L 603 0 
L 603 4863 
z
" transform="scale(0.015625)"/>
      </defs>
      <use xlink:href="#DejaVuSans-41"/>
      <use xlink:href="#DejaVuSans-6c" x="68.408203"/>
      <use xlink:href="#DejaVuSans-6d" x="96.191406"/>
      <use xlink:href="#DejaVuSans-61" x="193.603516"/>
      <use xlink:href="#DejaVuSans-4c" x="254.882812"/>
      <use xlink:href="#DejaVuSans-69" x="310.595703"/>
      <use xlink:href="#DejaVuSans-6e" x="338.378906"/>
      <use xlink:href="#DejaVuSans-75" x="401.757812"/>
      <use xlink:href="#DejaVuSans-78" x="465.136719"/>
     </g>
    </g>
    <g id="line2d_56">
     <path d="M 840.954625 66.596438 
L 850.954625 66.596438 
L 860.954625 66.596438 
" style="fill: none; stroke: #e9a942; stroke-width: 1.5; stroke-linecap: square"/>
    </g>
    <g id="text_28">
     <!-- CentOS Legacy -->
     <g transform="translate(868.954625 70.096438) scale(0.1 -0.1)">
      <defs>
       <path id="DejaVuSans-4f" d="M 2522 4238 
Q 1834 4238 1429 3725 
Q 1025 3213 1025 2328 
Q 1025 1447 1429 934 
Q 1834 422 2522 422 
Q 3209 422 3611 934 
Q 4013 1447 4013 2328 
Q 4013 3213 3611 3725 
Q 3209 4238 2522 4238 
z
M 2522 4750 
Q 3503 4750 4090 4092 
Q 4678 3434 4678 2328 
Q 4678 1225 4090 567 
Q 3503 -91 2522 -91 
Q 1538 -91 948 565 
Q 359 1222 359 2328 
Q 359 3434 948 4092 
Q 1538 4750 2522 4750 
z
" transform="scale(0.015625)"/>
      </defs>
      <use xlink:href="#DejaVuSans-43"/>
      <use xlink:href="#DejaVuSans-65" x="69.824219"/>
      <use xlink:href="#DejaVuSans-6e" x="131.347656"/>
      <use xlink:href="#DejaVuSans-74" x="194.726562"/>
      <use xlink:href="#DejaVuSans-4f" x="233.935547"/>
      <use xlink:href="#DejaVuSans-53" x="312.646484"/>
      <use xlink:href="#DejaVuSans-20" x="376.123047"/>
      <use xlink:href="#DejaVuSans-4c" x="407.910156"/>
      <use xlink:href="#DejaVuSans-65" x="461.873047"/>
      <use xlink:href="#DejaVuSans-67" x="523.396484"/>
      <use xlink:href="#DejaVuSans-61" x="586.873047"/>
      <use xlink:href="#DejaVuSans-63" x="648.152344"/>
      <use xlink:href="#DejaVuSans-79" x="703.132812"/>
     </g>
    </g>
    <g id="line2d_57">
     <path d="M 840.954625 81.274563 
L 850.954625 81.274563 
L 860.954625 81.274563 
" style="fill: none; stroke: #9a5689; stroke-width: 1.5; stroke-linecap: square"/>
    </g>
    <g id="text_29">
     <!-- CentOS Stream -->
     <g transform="translate(868.954625 84.774563) scale(0.1 -0.1)">
      <use xlink:href="#DejaVuSans-43"/>
      <use xlink:href="#DejaVuSans-65" x="69.824219"/>
      <use xlink:href="#DejaVuSans-6e" x="131.347656"/>
      <use xlink:href="#DejaVuSans-74" x="194.726562"/>
      <use xlink:href="#DejaVuSans-4f" x="233.935547"/>
      <use xlink:href="#DejaVuSans-53" x="312.646484"/>
      <use xlink:href="#DejaVuSans-20" x="376.123047"/>
      <use xlink:href="#DejaVuSans-53" x="407.910156"/>
      <use xlink:href="#DejaVuSans-74" x="471.386719"/>
      <use xlink:href="#DejaVuSans-72" x="510.595703"/>
      <use xlink:href="#DejaVuSans-65" x="549.458984"/>
      <use xlink:href="#DejaVuSans-61" x="610.982422"/>
      <use xlink:href="#DejaVuSans-6d" x="672.261719"/>
     </g>
    </g>
    <g id="line2d_58">
     <path d="M 840.954625 95.952688 
L 850.954625 95.952688 
L 860.954625 95.952688 
" style="fill: none; stroke: #be503b; stroke-width: 1.5; stroke-linecap: square"/>
    </g>
    <g id="text_30">
     <!-- Oracle -->
     <g transform="translate(868.954625 99.452688) scale(0.1 -0.1)">
      <use xlink:href="#DejaVuSans-4f"/>
      <use xlink:href="#DejaVuSans-72" x="78.710938"/>
      <use xlink:href="#DejaVuSans-61" x="119.824219"/>
      <use xlink:href="#DejaVuSans-63" x="181.103516"/>
      <use xlink:href="#DejaVuSans-6c" x="236.083984"/>
      <use xlink:href="#DejaVuSans-65" x="263.867188"/>
     </g>
    </g>
    <g id="line2d_59">
     <path d="M 840.954625 110.630813 
L 850.954625 110.630813 
L 860.954625 110.630813 
" style="fill: none; stroke: #e2321d; stroke-width: 1.5; stroke-linecap: square"/>
    </g>
    <g id="text_31">
     <!-- RHEL -->
     <g transform="translate(868.954625 114.130813) scale(0.1 -0.1)">
      <defs>
       <path id="DejaVuSans-52" d="M 2841 2188 
Q 3044 2119 3236 1894 
Q 3428 1669 3622 1275 
L 4263 0 
L 3584 0 
L 2988 1197 
Q 2756 1666 2539 1819 
Q 2322 1972 1947 1972 
L 1259 1972 
L 1259 0 
L 628 0 
L 628 4666 
L 2053 4666 
Q 2853 4666 3247 4331 
Q 3641 3997 3641 3322 
Q 3641 2881 3436 2590 
Q 3231 2300 2841 2188 
z
M 1259 4147 
L 1259 2491 
L 2053 2491 
Q 2509 2491 2742 2702 
Q 2975 2913 2975 3322 
Q 2975 3731 2742 3939 
Q 2509 4147 2053 4147 
L 1259 4147 
z
" transform="scale(0.015625)"/>
       <path id="DejaVuSans-48" d="M 628 4666 
L 1259 4666 
L 1259 2753 
L 3553 2753 
L 3553 4666 
L 4184 4666 
L 4184 0 
L 3553 0 
L 3553 2222 
L 1259 2222 
L 1259 0 
L 628 0 
L 628 4666 
z
" transform="scale(0.015625)"/>
      </defs>
      <use xlink:href="#DejaVuSans-52"/>
      <use xlink:href="#DejaVuSans-48" x="69.482422"/>
      <use xlink:href="#DejaVuSans-45" x="144.677734"/>
      <use xlink:href="#DejaVuSans-4c" x="207.861328"/>
     </g>
    </g>
    <g id="line2d_60">
     <path d="M 840.954625 125.308938 
L 850.954625 125.308938 
L 860.954625 125.308938 
" style="fill: none; stroke: #48b585; stroke-width: 6; stroke-linecap: square"/>
    </g>
    <g id="text_32">
     <!-- Rocky Linux -->
     <g transform="translate(868.954625 128.808938) scale(0.1 -0.1)">
      <use xlink:href="#DejaVuSans-52"/>
      <use xlink:href="#DejaVuSans-6f" x="64.982422"/>
      <use xlink:href="#DejaVuSans-63" x="126.164062"/>
      <use xlink:href="#DejaVuSans-6b" x="181.144531"/>
      <use xlink:href="#DejaVuSans-79" x="235.429688"/>
      <use xlink:href="#DejaVuSans-20" x="294.609375"/>
      <use xlink:href="#DejaVuSans-4c" x="326.396484"/>
      <use xlink:href="#DejaVuSans-69" x="382.109375"/>
      <use xlink:href="#DejaVuSans-6e" x="409.892578"/>
      <use xlink:href="#DejaVuSans-75" x="473.271484"/>
      <use xlink:href="#DejaVuSans-78" x="536.650391"/>
     </g>
    </g>
   </g>
  </g>
 </g>
 <defs>
  <clipPath id="p1f845fe89d">
   <rect x="52.079375" y="24.14175" width="902.844" height="554.4"/>
  </clipPath>
 </defs>
</svg>
