<?xml version="1.0" encoding="utf-8" standalone="no"?>
<!DOCTYPE svg PUBLIC "-//W3C//DTD SVG 1.1//EN"
  "http://www.w3.org/Graphics/SVG/1.1/DTD/svg11.dtd">
<svg xmlns:xlink="http://www.w3.org/1999/xlink" width="974.2765pt" height="633.943878pt" viewBox="0 0 974.2765 633.943878" xmlns="http://www.w3.org/2000/svg" version="1.1">
 <metadata>
  <rdf:RDF xmlns:dc="http://purl.org/dc/elements/1.1/" xmlns:cc="http://creativecommons.org/ns#" xmlns:rdf="http://www.w3.org/1999/02/22-rdf-syntax-ns#">
   <cc:Work>
    <dc:type rdf:resource="http://purl.org/dc/dcmitype/StillImage"/>
    <dc:date>2024-07-04T11:55:09.556179</dc:date>
    <dc:format>image/svg+xml</dc:format>
    <dc:creator>
     <cc:Agent>
      <dc:title>Matplotlib v3.5.1, https://matplotlib.org/</dc:title>
     </cc:Agent>
    </dc:creator>
   </cc:Work>
  </rdf:RDF>
 </metadata>
 <defs>
  <style type="text/css">*{stroke-linejoin: round; stroke-linecap: butt}</style>
 </defs>
 <g id="figure_1">
  <g id="patch_1">
   <path d="M 0 633.943878 
L 974.2765 633.943878 
L 974.2765 0 
L 0 0 
z
" style="fill: #ffffff"/>
  </g>
  <g id="axes_1">
   <g id="patch_2">
    <path d="M 64.2325 567.74175 
L 967.0765 567.74175 
L 967.0765 24.14175 
L 64.2325 24.14175 
z
" style="fill: #e5e5e5"/>
   </g>
   <g id="matplotlib.axis_1">
    <g id="xtick_1">
     <g id="line2d_1">
      <path d="M 108.084923 567.74175 
L 108.084923 24.14175 
" clip-path="url(#pf599026be5)" style="fill: none; stroke: #ffffff; stroke-width: 0.8; stroke-linecap: square"/>
     </g>
     <g id="line2d_2">
      <defs>
       <path id="m321031dd6b" d="M 0 0 
L 0 3.5 
" style="stroke: #555555; stroke-width: 0.8"/>
      </defs>
      <g>
       <use xlink:href="#m321031dd6b" x="108.084923" y="567.74175" style="fill: #555555; stroke: #555555; stroke-width: 0.8"/>
      </g>
     </g>
     <g id="text_1">
      <!-- 2023-07 -->
      <g style="fill: #555555" transform="translate(95.263641 609.659567)rotate(-45)scale(0.1 -0.1)">
       <defs>
        <path id="DejaVuSans-32" d="M 1228 531 
L 3431 531 
L 3431 0 
L 469 0 
L 469 531 
Q 828 903 1448 1529 
Q 2069 2156 2228 2338 
Q 2531 2678 2651 2914 
Q 2772 3150 2772 3378 
Q 2772 3750 2511 3984 
Q 2250 4219 1831 4219 
Q 1534 4219 1204 4116 
Q 875 4013 500 3803 
L 500 4441 
Q 881 4594 1212 4672 
Q 1544 4750 1819 4750 
Q 2544 4750 2975 4387 
Q 3406 4025 3406 3419 
Q 3406 3131 3298 2873 
Q 3191 2616 2906 2266 
Q 2828 2175 2409 1742 
Q 1991 1309 1228 531 
z
" transform="scale(0.015625)"/>
        <path id="DejaVuSans-30" d="M 2034 4250 
Q 1547 4250 1301 3770 
Q 1056 3291 1056 2328 
Q 1056 1369 1301 889 
Q 1547 409 2034 409 
Q 2525 409 2770 889 
Q 3016 1369 3016 2328 
Q 3016 3291 2770 3770 
Q 2525 4250 2034 4250 
z
M 2034 4750 
Q 2819 4750 3233 4129 
Q 3647 3509 3647 2328 
Q 3647 1150 3233 529 
Q 2819 -91 2034 -91 
Q 1250 -91 836 529 
Q 422 1150 422 2328 
Q 422 3509 836 4129 
Q 1250 4750 2034 4750 
z
" transform="scale(0.015625)"/>
        <path id="DejaVuSans-33" d="M 2597 2516 
Q 3050 2419 3304 2112 
Q 3559 1806 3559 1356 
Q 3559 666 3084 287 
Q 2609 -91 1734 -91 
Q 1441 -91 1130 -33 
Q 819 25 488 141 
L 488 750 
Q 750 597 1062 519 
Q 1375 441 1716 441 
Q 2309 441 2620 675 
Q 2931 909 2931 1356 
Q 2931 1769 2642 2001 
Q 2353 2234 1838 2234 
L 1294 2234 
L 1294 2753 
L 1863 2753 
Q 2328 2753 2575 2939 
Q 2822 3125 2822 3475 
Q 2822 3834 2567 4026 
Q 2313 4219 1838 4219 
Q 1578 4219 1281 4162 
Q 984 4106 628 3988 
L 628 4550 
Q 988 4650 1302 4700 
Q 1616 4750 1894 4750 
Q 2613 4750 3031 4423 
Q 3450 4097 3450 3541 
Q 3450 3153 3228 2886 
Q 3006 2619 2597 2516 
z
" transform="scale(0.015625)"/>
        <path id="DejaVuSans-2d" d="M 313 2009 
L 1997 2009 
L 1997 1497 
L 313 1497 
L 313 2009 
z
" transform="scale(0.015625)"/>
        <path id="DejaVuSans-37" d="M 525 4666 
L 3525 4666 
L 3525 4397 
L 1831 0 
L 1172 0 
L 2766 4134 
L 525 4134 
L 525 4666 
z
" transform="scale(0.015625)"/>
       </defs>
       <use xlink:href="#DejaVuSans-32"/>
       <use xlink:href="#DejaVuSans-30" x="63.623047"/>
       <use xlink:href="#DejaVuSans-32" x="127.246094"/>
       <use xlink:href="#DejaVuSans-33" x="190.869141"/>
       <use xlink:href="#DejaVuSans-2d" x="254.492188"/>
       <use xlink:href="#DejaVuSans-30" x="290.576172"/>
       <use xlink:href="#DejaVuSans-37" x="354.199219"/>
      </g>
     </g>
    </g>
    <g id="xtick_2">
     <g id="line2d_3">
      <path d="M 188.051106 567.74175 
L 188.051106 24.14175 
" clip-path="url(#pf599026be5)" style="fill: none; stroke: #ffffff; stroke-width: 0.8; stroke-linecap: square"/>
     </g>
     <g id="line2d_4">
      <g>
       <use xlink:href="#m321031dd6b" x="188.051106" y="567.74175" style="fill: #555555; stroke: #555555; stroke-width: 0.8"/>
      </g>
     </g>
     <g id="text_2">
      <!-- 2023-08 -->
      <g style="fill: #555555" transform="translate(175.229823 609.659567)rotate(-45)scale(0.1 -0.1)">
       <defs>
        <path id="DejaVuSans-38" d="M 2034 2216 
Q 1584 2216 1326 1975 
Q 1069 1734 1069 1313 
Q 1069 891 1326 650 
Q 1584 409 2034 409 
Q 2484 409 2743 651 
Q 3003 894 3003 1313 
Q 3003 1734 2745 1975 
Q 2488 2216 2034 2216 
z
M 1403 2484 
Q 997 2584 770 2862 
Q 544 3141 544 3541 
Q 544 4100 942 4425 
Q 1341 4750 2034 4750 
Q 2731 4750 3128 4425 
Q 3525 4100 3525 3541 
Q 3525 3141 3298 2862 
Q 3072 2584 2669 2484 
Q 3125 2378 3379 2068 
Q 3634 1759 3634 1313 
Q 3634 634 3220 271 
Q 2806 -91 2034 -91 
Q 1263 -91 848 271 
Q 434 634 434 1313 
Q 434 1759 690 2068 
Q 947 2378 1403 2484 
z
M 1172 3481 
Q 1172 3119 1398 2916 
Q 1625 2713 2034 2713 
Q 2441 2713 2670 2916 
Q 2900 3119 2900 3481 
Q 2900 3844 2670 4047 
Q 2441 4250 2034 4250 
Q 1625 4250 1398 4047 
Q 1172 3844 1172 3481 
z
" transform="scale(0.015625)"/>
       </defs>
       <use xlink:href="#DejaVuSans-32"/>
       <use xlink:href="#DejaVuSans-30" x="63.623047"/>
       <use xlink:href="#DejaVuSans-32" x="127.246094"/>
       <use xlink:href="#DejaVuSans-33" x="190.869141"/>
       <use xlink:href="#DejaVuSans-2d" x="254.492188"/>
       <use xlink:href="#DejaVuSans-30" x="290.576172"/>
       <use xlink:href="#DejaVuSans-38" x="354.199219"/>
      </g>
     </g>
    </g>
    <g id="xtick_3">
     <g id="line2d_5">
      <path d="M 268.017289 567.74175 
L 268.017289 24.14175 
" clip-path="url(#pf599026be5)" style="fill: none; stroke: #ffffff; stroke-width: 0.8; stroke-linecap: square"/>
     </g>
     <g id="line2d_6">
      <g>
       <use xlink:href="#m321031dd6b" x="268.017289" y="567.74175" style="fill: #555555; stroke: #555555; stroke-width: 0.8"/>
      </g>
     </g>
     <g id="text_3">
      <!-- 2023-09 -->
      <g style="fill: #555555" transform="translate(255.196006 609.659567)rotate(-45)scale(0.1 -0.1)">
       <defs>
        <path id="DejaVuSans-39" d="M 703 97 
L 703 672 
Q 941 559 1184 500 
Q 1428 441 1663 441 
Q 2288 441 2617 861 
Q 2947 1281 2994 2138 
Q 2813 1869 2534 1725 
Q 2256 1581 1919 1581 
Q 1219 1581 811 2004 
Q 403 2428 403 3163 
Q 403 3881 828 4315 
Q 1253 4750 1959 4750 
Q 2769 4750 3195 4129 
Q 3622 3509 3622 2328 
Q 3622 1225 3098 567 
Q 2575 -91 1691 -91 
Q 1453 -91 1209 -44 
Q 966 3 703 97 
z
M 1959 2075 
Q 2384 2075 2632 2365 
Q 2881 2656 2881 3163 
Q 2881 3666 2632 3958 
Q 2384 4250 1959 4250 
Q 1534 4250 1286 3958 
Q 1038 3666 1038 3163 
Q 1038 2656 1286 2365 
Q 1534 2075 1959 2075 
z
" transform="scale(0.015625)"/>
       </defs>
       <use xlink:href="#DejaVuSans-32"/>
       <use xlink:href="#DejaVuSans-30" x="63.623047"/>
       <use xlink:href="#DejaVuSans-32" x="127.246094"/>
       <use xlink:href="#DejaVuSans-33" x="190.869141"/>
       <use xlink:href="#DejaVuSans-2d" x="254.492188"/>
       <use xlink:href="#DejaVuSans-30" x="290.576172"/>
       <use xlink:href="#DejaVuSans-39" x="354.199219"/>
      </g>
     </g>
    </g>
    <g id="xtick_4">
     <g id="line2d_7">
      <path d="M 345.403917 567.74175 
L 345.403917 24.14175 
" clip-path="url(#pf599026be5)" style="fill: none; stroke: #ffffff; stroke-width: 0.8; stroke-linecap: square"/>
     </g>
     <g id="line2d_8">
      <g>
       <use xlink:href="#m321031dd6b" x="345.403917" y="567.74175" style="fill: #555555; stroke: #555555; stroke-width: 0.8"/>
      </g>
     </g>
     <g id="text_4">
      <!-- 2023-10 -->
      <g style="fill: #555555" transform="translate(332.582635 609.659567)rotate(-45)scale(0.1 -0.1)">
       <defs>
        <path id="DejaVuSans-31" d="M 794 531 
L 1825 531 
L 1825 4091 
L 703 3866 
L 703 4441 
L 1819 4666 
L 2450 4666 
L 2450 531 
L 3481 531 
L 3481 0 
L 794 0 
L 794 531 
z
" transform="scale(0.015625)"/>
       </defs>
       <use xlink:href="#DejaVuSans-32"/>
       <use xlink:href="#DejaVuSans-30" x="63.623047"/>
       <use xlink:href="#DejaVuSans-32" x="127.246094"/>
       <use xlink:href="#DejaVuSans-33" x="190.869141"/>
       <use xlink:href="#DejaVuSans-2d" x="254.492188"/>
       <use xlink:href="#DejaVuSans-31" x="290.576172"/>
       <use xlink:href="#DejaVuSans-30" x="354.199219"/>
      </g>
     </g>
    </g>
    <g id="xtick_5">
     <g id="line2d_9">
      <path d="M 425.3701 567.74175 
L 425.3701 24.14175 
" clip-path="url(#pf599026be5)" style="fill: none; stroke: #ffffff; stroke-width: 0.8; stroke-linecap: square"/>
     </g>
     <g id="line2d_10">
      <g>
       <use xlink:href="#m321031dd6b" x="425.3701" y="567.74175" style="fill: #555555; stroke: #555555; stroke-width: 0.8"/>
      </g>
     </g>
     <g id="text_5">
      <!-- 2023-11 -->
      <g style="fill: #555555" transform="translate(412.548818 609.659567)rotate(-45)scale(0.1 -0.1)">
       <use xlink:href="#DejaVuSans-32"/>
       <use xlink:href="#DejaVuSans-30" x="63.623047"/>
       <use xlink:href="#DejaVuSans-32" x="127.246094"/>
       <use xlink:href="#DejaVuSans-33" x="190.869141"/>
       <use xlink:href="#DejaVuSans-2d" x="254.492188"/>
       <use xlink:href="#DejaVuSans-31" x="290.576172"/>
       <use xlink:href="#DejaVuSans-31" x="354.199219"/>
      </g>
     </g>
    </g>
    <g id="xtick_6">
     <g id="line2d_11">
      <path d="M 502.756729 567.74175 
L 502.756729 24.14175 
" clip-path="url(#pf599026be5)" style="fill: none; stroke: #ffffff; stroke-width: 0.8; stroke-linecap: square"/>
     </g>
     <g id="line2d_12">
      <g>
       <use xlink:href="#m321031dd6b" x="502.756729" y="567.74175" style="fill: #555555; stroke: #555555; stroke-width: 0.8"/>
      </g>
     </g>
     <g id="text_6">
      <!-- 2023-12 -->
      <g style="fill: #555555" transform="translate(489.935446 609.659567)rotate(-45)scale(0.1 -0.1)">
       <use xlink:href="#DejaVuSans-32"/>
       <use xlink:href="#DejaVuSans-30" x="63.623047"/>
       <use xlink:href="#DejaVuSans-32" x="127.246094"/>
       <use xlink:href="#DejaVuSans-33" x="190.869141"/>
       <use xlink:href="#DejaVuSans-2d" x="254.492188"/>
       <use xlink:href="#DejaVuSans-31" x="290.576172"/>
       <use xlink:href="#DejaVuSans-32" x="354.199219"/>
      </g>
     </g>
    </g>
    <g id="xtick_7">
     <g id="line2d_13">
      <path d="M 582.722911 567.74175 
L 582.722911 24.14175 
" clip-path="url(#pf599026be5)" style="fill: none; stroke: #ffffff; stroke-width: 0.8; stroke-linecap: square"/>
     </g>
     <g id="line2d_14">
      <g>
       <use xlink:href="#m321031dd6b" x="582.722911" y="567.74175" style="fill: #555555; stroke: #555555; stroke-width: 0.8"/>
      </g>
     </g>
     <g id="text_7">
      <!-- 2024-01 -->
      <g style="fill: #555555" transform="translate(569.901629 609.659567)rotate(-45)scale(0.1 -0.1)">
       <defs>
        <path id="DejaVuSans-34" d="M 2419 4116 
L 825 1625 
L 2419 1625 
L 2419 4116 
z
M 2253 4666 
L 3047 4666 
L 3047 1625 
L 3713 1625 
L 3713 1100 
L 3047 1100 
L 3047 0 
L 2419 0 
L 2419 1100 
L 313 1100 
L 313 1709 
L 2253 4666 
z
" transform="scale(0.015625)"/>
       </defs>
       <use xlink:href="#DejaVuSans-32"/>
       <use xlink:href="#DejaVuSans-30" x="63.623047"/>
       <use xlink:href="#DejaVuSans-32" x="127.246094"/>
       <use xlink:href="#DejaVuSans-34" x="190.869141"/>
       <use xlink:href="#DejaVuSans-2d" x="254.492188"/>
       <use xlink:href="#DejaVuSans-30" x="290.576172"/>
       <use xlink:href="#DejaVuSans-31" x="354.199219"/>
      </g>
     </g>
    </g>
    <g id="xtick_8">
     <g id="line2d_15">
      <path d="M 662.689094 567.74175 
L 662.689094 24.14175 
" clip-path="url(#pf599026be5)" style="fill: none; stroke: #ffffff; stroke-width: 0.8; stroke-linecap: square"/>
     </g>
     <g id="line2d_16">
      <g>
       <use xlink:href="#m321031dd6b" x="662.689094" y="567.74175" style="fill: #555555; stroke: #555555; stroke-width: 0.8"/>
      </g>
     </g>
     <g id="text_8">
      <!-- 2024-02 -->
      <g style="fill: #555555" transform="translate(649.867812 609.659567)rotate(-45)scale(0.1 -0.1)">
       <use xlink:href="#DejaVuSans-32"/>
       <use xlink:href="#DejaVuSans-30" x="63.623047"/>
       <use xlink:href="#DejaVuSans-32" x="127.246094"/>
       <use xlink:href="#DejaVuSans-34" x="190.869141"/>
       <use xlink:href="#DejaVuSans-2d" x="254.492188"/>
       <use xlink:href="#DejaVuSans-30" x="290.576172"/>
       <use xlink:href="#DejaVuSans-32" x="354.199219"/>
      </g>
     </g>
    </g>
    <g id="xtick_9">
     <g id="line2d_17">
      <path d="M 737.496169 567.74175 
L 737.496169 24.14175 
" clip-path="url(#pf599026be5)" style="fill: none; stroke: #ffffff; stroke-width: 0.8; stroke-linecap: square"/>
     </g>
     <g id="line2d_18">
      <g>
       <use xlink:href="#m321031dd6b" x="737.496169" y="567.74175" style="fill: #555555; stroke: #555555; stroke-width: 0.8"/>
      </g>
     </g>
     <g id="text_9">
      <!-- 2024-03 -->
      <g style="fill: #555555" transform="translate(724.674886 609.659567)rotate(-45)scale(0.1 -0.1)">
       <use xlink:href="#DejaVuSans-32"/>
       <use xlink:href="#DejaVuSans-30" x="63.623047"/>
       <use xlink:href="#DejaVuSans-32" x="127.246094"/>
       <use xlink:href="#DejaVuSans-34" x="190.869141"/>
       <use xlink:href="#DejaVuSans-2d" x="254.492188"/>
       <use xlink:href="#DejaVuSans-30" x="290.576172"/>
       <use xlink:href="#DejaVuSans-33" x="354.199219"/>
      </g>
     </g>
    </g>
    <g id="xtick_10">
     <g id="line2d_19">
      <path d="M 817.462351 567.74175 
L 817.462351 24.14175 
" clip-path="url(#pf599026be5)" style="fill: none; stroke: #ffffff; stroke-width: 0.8; stroke-linecap: square"/>
     </g>
     <g id="line2d_20">
      <g>
       <use xlink:href="#m321031dd6b" x="817.462351" y="567.74175" style="fill: #555555; stroke: #555555; stroke-width: 0.8"/>
      </g>
     </g>
     <g id="text_10">
      <!-- 2024-04 -->
      <g style="fill: #555555" transform="translate(804.641069 609.659567)rotate(-45)scale(0.1 -0.1)">
       <use xlink:href="#DejaVuSans-32"/>
       <use xlink:href="#DejaVuSans-30" x="63.623047"/>
       <use xlink:href="#DejaVuSans-32" x="127.246094"/>
       <use xlink:href="#DejaVuSans-34" x="190.869141"/>
       <use xlink:href="#DejaVuSans-2d" x="254.492188"/>
       <use xlink:href="#DejaVuSans-30" x="290.576172"/>
       <use xlink:href="#DejaVuSans-34" x="354.199219"/>
      </g>
     </g>
    </g>
    <g id="xtick_11">
     <g id="line2d_21">
      <path d="M 894.84898 567.74175 
L 894.84898 24.14175 
" clip-path="url(#pf599026be5)" style="fill: none; stroke: #ffffff; stroke-width: 0.8; stroke-linecap: square"/>
     </g>
     <g id="line2d_22">
      <g>
       <use xlink:href="#m321031dd6b" x="894.84898" y="567.74175" style="fill: #555555; stroke: #555555; stroke-width: 0.8"/>
      </g>
     </g>
     <g id="text_11">
      <!-- 2024-05 -->
      <g style="fill: #555555" transform="translate(882.027698 609.659567)rotate(-45)scale(0.1 -0.1)">
       <defs>
        <path id="DejaVuSans-35" d="M 691 4666 
L 3169 4666 
L 3169 4134 
L 1269 4134 
L 1269 2991 
Q 1406 3038 1543 3061 
Q 1681 3084 1819 3084 
Q 2600 3084 3056 2656 
Q 3513 2228 3513 1497 
Q 3513 744 3044 326 
Q 2575 -91 1722 -91 
Q 1428 -91 1123 -41 
Q 819 9 494 109 
L 494 744 
Q 775 591 1075 516 
Q 1375 441 1709 441 
Q 2250 441 2565 725 
Q 2881 1009 2881 1497 
Q 2881 1984 2565 2268 
Q 2250 2553 1709 2553 
Q 1456 2553 1204 2497 
Q 953 2441 691 2322 
L 691 4666 
z
" transform="scale(0.015625)"/>
       </defs>
       <use xlink:href="#DejaVuSans-32"/>
       <use xlink:href="#DejaVuSans-30" x="63.623047"/>
       <use xlink:href="#DejaVuSans-32" x="127.246094"/>
       <use xlink:href="#DejaVuSans-34" x="190.869141"/>
       <use xlink:href="#DejaVuSans-2d" x="254.492188"/>
       <use xlink:href="#DejaVuSans-30" x="290.576172"/>
       <use xlink:href="#DejaVuSans-35" x="354.199219"/>
      </g>
     </g>
    </g>
    <g id="text_12">
     <!-- Date -->
     <g style="fill: #555555" transform="translate(501.313563 624.248253)scale(0.12 -0.12)">
      <defs>
       <path id="DejaVuSans-44" d="M 1259 4147 
L 1259 519 
L 2022 519 
Q 2988 519 3436 956 
Q 3884 1394 3884 2338 
Q 3884 3275 3436 3711 
Q 2988 4147 2022 4147 
L 1259 4147 
z
M 628 4666 
L 1925 4666 
Q 3281 4666 3915 4102 
Q 4550 3538 4550 2338 
Q 4550 1131 3912 565 
Q 3275 0 1925 0 
L 628 0 
L 628 4666 
z
" transform="scale(0.015625)"/>
       <path id="DejaVuSans-61" d="M 2194 1759 
Q 1497 1759 1228 1600 
Q 959 1441 959 1056 
Q 959 750 1161 570 
Q 1363 391 1709 391 
Q 2188 391 2477 730 
Q 2766 1069 2766 1631 
L 2766 1759 
L 2194 1759 
z
M 3341 1997 
L 3341 0 
L 2766 0 
L 2766 531 
Q 2569 213 2275 61 
Q 1981 -91 1556 -91 
Q 1019 -91 701 211 
Q 384 513 384 1019 
Q 384 1609 779 1909 
Q 1175 2209 1959 2209 
L 2766 2209 
L 2766 2266 
Q 2766 2663 2505 2880 
Q 2244 3097 1772 3097 
Q 1472 3097 1187 3025 
Q 903 2953 641 2809 
L 641 3341 
Q 956 3463 1253 3523 
Q 1550 3584 1831 3584 
Q 2591 3584 2966 3190 
Q 3341 2797 3341 1997 
z
" transform="scale(0.015625)"/>
       <path id="DejaVuSans-74" d="M 1172 4494 
L 1172 3500 
L 2356 3500 
L 2356 3053 
L 1172 3053 
L 1172 1153 
Q 1172 725 1289 603 
Q 1406 481 1766 481 
L 2356 481 
L 2356 0 
L 1766 0 
Q 1100 0 847 248 
Q 594 497 594 1153 
L 594 3053 
L 172 3053 
L 172 3500 
L 594 3500 
L 594 4494 
L 1172 4494 
z
" transform="scale(0.015625)"/>
       <path id="DejaVuSans-65" d="M 3597 1894 
L 3597 1613 
L 953 1613 
Q 991 1019 1311 708 
Q 1631 397 2203 397 
Q 2534 397 2845 478 
Q 3156 559 3463 722 
L 3463 178 
Q 3153 47 2828 -22 
Q 2503 -91 2169 -91 
Q 1331 -91 842 396 
Q 353 884 353 1716 
Q 353 2575 817 3079 
Q 1281 3584 2069 3584 
Q 2775 3584 3186 3129 
Q 3597 2675 3597 1894 
z
M 3022 2063 
Q 3016 2534 2758 2815 
Q 2500 3097 2075 3097 
Q 1594 3097 1305 2825 
Q 1016 2553 972 2059 
L 3022 2063 
z
" transform="scale(0.015625)"/>
      </defs>
      <use xlink:href="#DejaVuSans-44"/>
      <use xlink:href="#DejaVuSans-61" x="77.001953"/>
      <use xlink:href="#DejaVuSans-74" x="138.28125"/>
      <use xlink:href="#DejaVuSans-65" x="177.490234"/>
     </g>
    </g>
   </g>
   <g id="matplotlib.axis_2">
    <g id="ytick_1">
     <g id="line2d_23">
      <path d="M 64.2325 567.74175 
L 967.0765 567.74175 
" clip-path="url(#pf599026be5)" style="fill: none; stroke: #ffffff; stroke-width: 0.8; stroke-linecap: square"/>
     </g>
     <g id="line2d_24">
      <defs>
       <path id="m719396e5da" d="M 0 0 
L -3.5 0 
" style="stroke: #555555; stroke-width: 0.8"/>
      </defs>
      <g>
       <use xlink:href="#m719396e5da" x="64.2325" y="567.74175" style="fill: #555555; stroke: #555555; stroke-width: 0.8"/>
      </g>
     </g>
     <g id="text_13">
      <!-- 0k -->
      <g style="fill: #555555" transform="translate(45.079375 571.540969)scale(0.1 -0.1)">
       <defs>
        <path id="DejaVuSans-6b" d="M 581 4863 
L 1159 4863 
L 1159 1991 
L 2875 3500 
L 3609 3500 
L 1753 1863 
L 3688 0 
L 2938 0 
L 1159 1709 
L 1159 0 
L 581 0 
L 581 4863 
z
" transform="scale(0.015625)"/>
       </defs>
       <use xlink:href="#DejaVuSans-30"/>
       <use xlink:href="#DejaVuSans-6b" x="63.623047"/>
      </g>
     </g>
    </g>
    <g id="ytick_2">
     <g id="line2d_25">
      <path d="M 64.2325 479.98122 
L 967.0765 479.98122 
" clip-path="url(#pf599026be5)" style="fill: none; stroke: #ffffff; stroke-width: 0.8; stroke-linecap: square"/>
     </g>
     <g id="line2d_26">
      <g>
       <use xlink:href="#m719396e5da" x="64.2325" y="479.98122" style="fill: #555555; stroke: #555555; stroke-width: 0.8"/>
      </g>
     </g>
     <g id="text_14">
      <!-- 200k -->
      <g style="fill: #555555" transform="translate(32.354375 483.780439)scale(0.1 -0.1)">
       <use xlink:href="#DejaVuSans-32"/>
       <use xlink:href="#DejaVuSans-30" x="63.623047"/>
       <use xlink:href="#DejaVuSans-30" x="127.246094"/>
       <use xlink:href="#DejaVuSans-6b" x="190.869141"/>
      </g>
     </g>
    </g>
    <g id="ytick_3">
     <g id="line2d_27">
      <path d="M 64.2325 392.22069 
L 967.0765 392.22069 
" clip-path="url(#pf599026be5)" style="fill: none; stroke: #ffffff; stroke-width: 0.8; stroke-linecap: square"/>
     </g>
     <g id="line2d_28">
      <g>
       <use xlink:href="#m719396e5da" x="64.2325" y="392.22069" style="fill: #555555; stroke: #555555; stroke-width: 0.8"/>
      </g>
     </g>
     <g id="text_15">
      <!-- 400k -->
      <g style="fill: #555555" transform="translate(32.354375 396.019909)scale(0.1 -0.1)">
       <use xlink:href="#DejaVuSans-34"/>
       <use xlink:href="#DejaVuSans-30" x="63.623047"/>
       <use xlink:href="#DejaVuSans-30" x="127.246094"/>
       <use xlink:href="#DejaVuSans-6b" x="190.869141"/>
      </g>
     </g>
    </g>
    <g id="ytick_4">
     <g id="line2d_29">
      <path d="M 64.2325 304.46016 
L 967.0765 304.46016 
" clip-path="url(#pf599026be5)" style="fill: none; stroke: #ffffff; stroke-width: 0.8; stroke-linecap: square"/>
     </g>
     <g id="line2d_30">
      <g>
       <use xlink:href="#m719396e5da" x="64.2325" y="304.46016" style="fill: #555555; stroke: #555555; stroke-width: 0.8"/>
      </g>
     </g>
     <g id="text_16">
      <!-- 600k -->
      <g style="fill: #555555" transform="translate(32.354375 308.259379)scale(0.1 -0.1)">
       <defs>
        <path id="DejaVuSans-36" d="M 2113 2584 
Q 1688 2584 1439 2293 
Q 1191 2003 1191 1497 
Q 1191 994 1439 701 
Q 1688 409 2113 409 
Q 2538 409 2786 701 
Q 3034 994 3034 1497 
Q 3034 2003 2786 2293 
Q 2538 2584 2113 2584 
z
M 3366 4563 
L 3366 3988 
Q 3128 4100 2886 4159 
Q 2644 4219 2406 4219 
Q 1781 4219 1451 3797 
Q 1122 3375 1075 2522 
Q 1259 2794 1537 2939 
Q 1816 3084 2150 3084 
Q 2853 3084 3261 2657 
Q 3669 2231 3669 1497 
Q 3669 778 3244 343 
Q 2819 -91 2113 -91 
Q 1303 -91 875 529 
Q 447 1150 447 2328 
Q 447 3434 972 4092 
Q 1497 4750 2381 4750 
Q 2619 4750 2861 4703 
Q 3103 4656 3366 4563 
z
" transform="scale(0.015625)"/>
       </defs>
       <use xlink:href="#DejaVuSans-36"/>
       <use xlink:href="#DejaVuSans-30" x="63.623047"/>
       <use xlink:href="#DejaVuSans-30" x="127.246094"/>
       <use xlink:href="#DejaVuSans-6b" x="190.869141"/>
      </g>
     </g>
    </g>
    <g id="ytick_5">
     <g id="line2d_31">
      <path d="M 64.2325 216.69963 
L 967.0765 216.69963 
" clip-path="url(#pf599026be5)" style="fill: none; stroke: #ffffff; stroke-width: 0.8; stroke-linecap: square"/>
     </g>
     <g id="line2d_32">
      <g>
       <use xlink:href="#m719396e5da" x="64.2325" y="216.69963" style="fill: #555555; stroke: #555555; stroke-width: 0.8"/>
      </g>
     </g>
     <g id="text_17">
      <!-- 800k -->
      <g style="fill: #555555" transform="translate(32.354375 220.498849)scale(0.1 -0.1)">
       <use xlink:href="#DejaVuSans-38"/>
       <use xlink:href="#DejaVuSans-30" x="63.623047"/>
       <use xlink:href="#DejaVuSans-30" x="127.246094"/>
       <use xlink:href="#DejaVuSans-6b" x="190.869141"/>
      </g>
     </g>
    </g>
    <g id="ytick_6">
     <g id="line2d_33">
      <path d="M 64.2325 128.9391 
L 967.0765 128.9391 
" clip-path="url(#pf599026be5)" style="fill: none; stroke: #ffffff; stroke-width: 0.8; stroke-linecap: square"/>
     </g>
     <g id="line2d_34">
      <g>
       <use xlink:href="#m719396e5da" x="64.2325" y="128.9391" style="fill: #555555; stroke: #555555; stroke-width: 0.8"/>
      </g>
     </g>
     <g id="text_18">
      <!-- 1,000k -->
      <g style="fill: #555555" transform="translate(22.81375 132.738319)scale(0.1 -0.1)">
       <defs>
        <path id="DejaVuSans-2c" d="M 750 794 
L 1409 794 
L 1409 256 
L 897 -744 
L 494 -744 
L 750 256 
L 750 794 
z
" transform="scale(0.015625)"/>
       </defs>
       <use xlink:href="#DejaVuSans-31"/>
       <use xlink:href="#DejaVuSans-2c" x="63.623047"/>
       <use xlink:href="#DejaVuSans-30" x="95.410156"/>
       <use xlink:href="#DejaVuSans-30" x="159.033203"/>
       <use xlink:href="#DejaVuSans-30" x="222.65625"/>
       <use xlink:href="#DejaVuSans-6b" x="286.279297"/>
      </g>
     </g>
    </g>
    <g id="ytick_7">
     <g id="line2d_35">
      <path d="M 64.2325 41.17857 
L 967.0765 41.17857 
" clip-path="url(#pf599026be5)" style="fill: none; stroke: #ffffff; stroke-width: 0.8; stroke-linecap: square"/>
     </g>
     <g id="line2d_36">
      <g>
       <use xlink:href="#m719396e5da" x="64.2325" y="41.17857" style="fill: #555555; stroke: #555555; stroke-width: 0.8"/>
      </g>
     </g>
     <g id="text_19">
      <!-- 1,200k -->
      <g style="fill: #555555" transform="translate(22.81375 44.977789)scale(0.1 -0.1)">
       <use xlink:href="#DejaVuSans-31"/>
       <use xlink:href="#DejaVuSans-2c" x="63.623047"/>
       <use xlink:href="#DejaVuSans-32" x="95.410156"/>
       <use xlink:href="#DejaVuSans-30" x="159.033203"/>
       <use xlink:href="#DejaVuSans-30" x="222.65625"/>
       <use xlink:href="#DejaVuSans-6b" x="286.279297"/>
      </g>
     </g>
    </g>
    <g id="text_20">
     <!-- Instances -->
     <g style="fill: #555555" transform="translate(16.318125 324.588)rotate(-90)scale(0.12 -0.12)">
      <defs>
       <path id="DejaVuSans-49" d="M 628 4666 
L 1259 4666 
L 1259 0 
L 628 0 
L 628 4666 
z
" transform="scale(0.015625)"/>
       <path id="DejaVuSans-6e" d="M 3513 2113 
L 3513 0 
L 2938 0 
L 2938 2094 
Q 2938 2591 2744 2837 
Q 2550 3084 2163 3084 
Q 1697 3084 1428 2787 
Q 1159 2491 1159 1978 
L 1159 0 
L 581 0 
L 581 3500 
L 1159 3500 
L 1159 2956 
Q 1366 3272 1645 3428 
Q 1925 3584 2291 3584 
Q 2894 3584 3203 3211 
Q 3513 2838 3513 2113 
z
" transform="scale(0.015625)"/>
       <path id="DejaVuSans-73" d="M 2834 3397 
L 2834 2853 
Q 2591 2978 2328 3040 
Q 2066 3103 1784 3103 
Q 1356 3103 1142 2972 
Q 928 2841 928 2578 
Q 928 2378 1081 2264 
Q 1234 2150 1697 2047 
L 1894 2003 
Q 2506 1872 2764 1633 
Q 3022 1394 3022 966 
Q 3022 478 2636 193 
Q 2250 -91 1575 -91 
Q 1294 -91 989 -36 
Q 684 19 347 128 
L 347 722 
Q 666 556 975 473 
Q 1284 391 1588 391 
Q 1994 391 2212 530 
Q 2431 669 2431 922 
Q 2431 1156 2273 1281 
Q 2116 1406 1581 1522 
L 1381 1569 
Q 847 1681 609 1914 
Q 372 2147 372 2553 
Q 372 3047 722 3315 
Q 1072 3584 1716 3584 
Q 2034 3584 2315 3537 
Q 2597 3491 2834 3397 
z
" transform="scale(0.015625)"/>
       <path id="DejaVuSans-63" d="M 3122 3366 
L 3122 2828 
Q 2878 2963 2633 3030 
Q 2388 3097 2138 3097 
Q 1578 3097 1268 2742 
Q 959 2388 959 1747 
Q 959 1106 1268 751 
Q 1578 397 2138 397 
Q 2388 397 2633 464 
Q 2878 531 3122 666 
L 3122 134 
Q 2881 22 2623 -34 
Q 2366 -91 2075 -91 
Q 1284 -91 818 406 
Q 353 903 353 1747 
Q 353 2603 823 3093 
Q 1294 3584 2113 3584 
Q 2378 3584 2631 3529 
Q 2884 3475 3122 3366 
z
" transform="scale(0.015625)"/>
      </defs>
      <use xlink:href="#DejaVuSans-49"/>
      <use xlink:href="#DejaVuSans-6e" x="29.492188"/>
      <use xlink:href="#DejaVuSans-73" x="92.871094"/>
      <use xlink:href="#DejaVuSans-74" x="144.970703"/>
      <use xlink:href="#DejaVuSans-61" x="184.179688"/>
      <use xlink:href="#DejaVuSans-6e" x="245.458984"/>
      <use xlink:href="#DejaVuSans-63" x="308.837891"/>
      <use xlink:href="#DejaVuSans-65" x="363.818359"/>
      <use xlink:href="#DejaVuSans-73" x="425.341797"/>
     </g>
    </g>
   </g>
   <g id="line2d_37">
    <path d="M 64.2325 453.289768 
L 73.352136 452.115902 
L 82.471773 450.942035 
L 91.591409 449.768169 
L 100.711045 448.594303 
L 109.830682 447.420437 
L 118.950318 446.24657 
L 128.069955 445.072704 
L 137.189591 443.898838 
L 146.309227 442.724971 
L 155.428864 441.551105 
L 164.5485 440.377239 
L 173.668136 439.203372 
L 182.787773 438.029506 
L 191.907409 436.85564 
L 201.027045 435.681773 
L 210.146682 434.507907 
L 219.266318 433.334041 
L 228.385955 432.160174 
L 237.505591 430.986308 
L 246.625227 429.812442 
L 255.744864 428.638575 
L 264.8645 427.464709 
L 273.984136 426.290843 
L 283.103773 425.116976 
L 292.223409 423.94311 
L 301.343045 422.769244 
L 310.462682 421.595378 
L 319.582318 420.421511 
L 328.701955 419.247645 
L 337.821591 418.073779 
L 346.941227 416.899912 
L 356.060864 415.726046 
L 365.1805 414.55218 
L 374.300136 413.378313 
L 383.419773 412.204447 
L 392.539409 411.030581 
L 401.659045 409.856714 
L 410.778682 408.682848 
L 419.898318 407.508982 
L 429.017955 406.335115 
L 438.137591 405.161249 
L 447.257227 403.987383 
L 456.376864 402.813516 
L 465.4965 401.63965 
L 474.616136 400.465784 
L 483.735773 399.291917 
L 492.855409 398.118051 
L 501.975045 396.944185 
L 511.094682 395.770318 
L 520.214318 394.596452 
L 529.333955 393.422586 
L 538.453591 392.24872 
L 547.573227 391.074853 
L 556.692864 389.900987 
L 565.8125 388.727121 
L 574.932136 387.553254 
L 584.051773 386.379388 
L 593.171409 385.205522 
L 602.291045 384.031655 
L 611.410682 382.857789 
L 620.530318 381.683923 
L 629.649955 380.510056 
L 638.769591 379.33619 
L 647.889227 378.162324 
L 657.008864 376.988457 
L 666.1285 375.814591 
L 675.248136 374.640725 
L 684.367773 373.466858 
L 693.487409 372.292992 
L 702.607045 371.119126 
L 711.726682 369.945259 
L 720.846318 368.771393 
L 729.965955 367.597527 
L 739.085591 366.42366 
L 748.205227 365.249794 
L 757.324864 364.075928 
L 766.4445 362.902062 
L 775.564136 361.728195 
L 784.683773 360.554329 
L 793.803409 359.380463 
L 802.923045 358.206596 
L 812.042682 357.03273 
L 821.162318 355.858864 
L 830.281955 354.684997 
L 839.401591 353.511131 
L 848.521227 352.337265 
L 857.640864 351.163398 
L 866.7605 349.989532 
L 875.880136 348.815666 
L 884.999773 347.641799 
L 894.119409 346.467933 
L 903.239045 345.294067 
L 912.358682 344.1202 
L 921.478318 342.946334 
L 930.597955 341.772468 
L 939.717591 340.598601 
L 948.837227 339.424735 
L 957.956864 338.250869 
L 967.0765 337.077002 
" clip-path="url(#pf599026be5)" style="fill: none; stroke-dasharray: 1.5,2.475; stroke-dashoffset: 0; stroke: #4ac1fa; stroke-width: 1.5"/>
   </g>
   <g id="line2d_38">
    <path d="M 64.2325 431.233002 
L 73.352136 430.760203 
L 82.471773 430.287404 
L 91.591409 429.814605 
L 100.711045 429.341806 
L 109.830682 428.869007 
L 118.950318 428.396208 
L 128.069955 427.923409 
L 137.189591 427.45061 
L 146.309227 426.977811 
L 155.428864 426.505012 
L 164.5485 426.032213 
L 173.668136 425.559414 
L 182.787773 425.086615 
L 191.907409 424.613816 
L 201.027045 424.141017 
L 210.146682 423.668219 
L 219.266318 423.19542 
L 228.385955 422.722621 
L 237.505591 422.249822 
L 246.625227 421.777023 
L 255.744864 421.304224 
L 264.8645 420.831425 
L 273.984136 420.358626 
L 283.103773 419.885827 
L 292.223409 419.413028 
L 301.343045 418.940229 
L 310.462682 418.46743 
L 319.582318 417.994631 
L 328.701955 417.521832 
L 337.821591 417.049033 
L 346.941227 416.576234 
L 356.060864 416.103435 
L 365.1805 415.630636 
L 374.300136 415.157837 
L 383.419773 414.685039 
L 392.539409 414.21224 
L 401.659045 413.739441 
L 410.778682 413.266642 
L 419.898318 412.793843 
L 429.017955 412.321044 
L 438.137591 411.848245 
L 447.257227 411.375446 
L 456.376864 410.902647 
L 465.4965 410.429848 
L 474.616136 409.957049 
L 483.735773 409.48425 
L 492.855409 409.011451 
L 501.975045 408.538652 
L 511.094682 408.065853 
L 520.214318 407.593054 
L 529.333955 407.120255 
L 538.453591 406.647456 
L 547.573227 406.174658 
L 556.692864 405.701859 
L 565.8125 405.22906 
L 574.932136 404.756261 
L 584.051773 404.283462 
L 593.171409 403.810663 
L 602.291045 403.337864 
L 611.410682 402.865065 
L 620.530318 402.392266 
L 629.649955 401.919467 
L 638.769591 401.446668 
L 647.889227 400.973869 
L 657.008864 400.50107 
L 666.1285 400.028271 
L 675.248136 399.555472 
L 684.367773 399.082673 
L 693.487409 398.609874 
L 702.607045 398.137075 
L 711.726682 397.664276 
L 720.846318 397.191478 
L 729.965955 396.718679 
L 739.085591 396.24588 
L 748.205227 395.773081 
L 757.324864 395.300282 
L 766.4445 394.827483 
L 775.564136 394.354684 
L 784.683773 393.881885 
L 793.803409 393.409086 
L 802.923045 392.936287 
L 812.042682 392.463488 
L 821.162318 391.990689 
L 830.281955 391.51789 
L 839.401591 391.045091 
L 848.521227 390.572292 
L 857.640864 390.099493 
L 866.7605 389.626694 
L 875.880136 389.153895 
L 884.999773 388.681097 
L 894.119409 388.208298 
L 903.239045 387.735499 
L 912.358682 387.2627 
L 921.478318 386.789901 
L 930.597955 386.317102 
L 939.717591 385.844303 
L 948.837227 385.371504 
L 957.956864 384.898705 
L 967.0765 384.425906 
" clip-path="url(#pf599026be5)" style="fill: none; stroke-dasharray: 1.5,2.475; stroke-dashoffset: 0; stroke: #e9a942; stroke-width: 1.5"/>
   </g>
   <g id="line2d_39">
    <path d="M 64.2325 446.556077 
L 73.352136 446.213058 
L 82.471773 445.870038 
L 91.591409 445.527018 
L 100.711045 445.183998 
L 109.830682 444.840979 
L 118.950318 444.497959 
L 128.069955 444.154939 
L 137.189591 443.81192 
L 146.309227 443.4689 
L 155.428864 443.12588 
L 164.5485 442.78286 
L 173.668136 442.439841 
L 182.787773 442.096821 
L 191.907409 441.753801 
L 201.027045 441.410781 
L 210.146682 441.067762 
L 219.266318 440.724742 
L 228.385955 440.381722 
L 237.505591 440.038703 
L 246.625227 439.695683 
L 255.744864 439.352663 
L 264.8645 439.009643 
L 273.984136 438.666624 
L 283.103773 438.323604 
L 292.223409 437.980584 
L 301.343045 437.637564 
L 310.462682 437.294545 
L 319.582318 436.951525 
L 328.701955 436.608505 
L 337.821591 436.265486 
L 346.941227 435.922466 
L 356.060864 435.579446 
L 365.1805 435.236426 
L 374.300136 434.893407 
L 383.419773 434.550387 
L 392.539409 434.207367 
L 401.659045 433.864347 
L 410.778682 433.521328 
L 419.898318 433.178308 
L 429.017955 432.835288 
L 438.137591 432.492269 
L 447.257227 432.149249 
L 456.376864 431.806229 
L 465.4965 431.463209 
L 474.616136 431.12019 
L 483.735773 430.77717 
L 492.855409 430.43415 
L 501.975045 430.09113 
L 511.094682 429.748111 
L 520.214318 429.405091 
L 529.333955 429.062071 
L 538.453591 428.719052 
L 547.573227 428.376032 
L 556.692864 428.033012 
L 565.8125 427.689992 
L 574.932136 427.346973 
L 584.051773 427.003953 
L 593.171409 426.660933 
L 602.291045 426.317914 
L 611.410682 425.974894 
L 620.530318 425.631874 
L 629.649955 425.288854 
L 638.769591 424.945835 
L 647.889227 424.602815 
L 657.008864 424.259795 
L 666.1285 423.916775 
L 675.248136 423.573756 
L 684.367773 423.230736 
L 693.487409 422.887716 
L 702.607045 422.544697 
L 711.726682 422.201677 
L 720.846318 421.858657 
L 729.965955 421.515637 
L 739.085591 421.172618 
L 748.205227 420.829598 
L 757.324864 420.486578 
L 766.4445 420.143558 
L 775.564136 419.800539 
L 784.683773 419.457519 
L 793.803409 419.114499 
L 802.923045 418.77148 
L 812.042682 418.42846 
L 821.162318 418.08544 
L 830.281955 417.74242 
L 839.401591 417.399401 
L 848.521227 417.056381 
L 857.640864 416.713361 
L 866.7605 416.370341 
L 875.880136 416.027322 
L 884.999773 415.684302 
L 894.119409 415.341282 
L 903.239045 414.998263 
L 912.358682 414.655243 
L 921.478318 414.312223 
L 930.597955 413.969203 
L 939.717591 413.626184 
L 948.837227 413.283164 
L 957.956864 412.940144 
L 967.0765 412.597124 
" clip-path="url(#pf599026be5)" style="fill: none; stroke-dasharray: 1.5,2.475; stroke-dashoffset: 0; stroke: #9a5689; stroke-width: 1.5"/>
   </g>
   <g id="line2d_40">
    <path d="M 64.2325 537.960232 
L 73.352136 537.838607 
L 82.471773 537.716982 
L 91.591409 537.595357 
L 100.711045 537.473732 
L 109.830682 537.352107 
L 118.950318 537.230482 
L 128.069955 537.108857 
L 137.189591 536.987232 
L 146.309227 536.865607 
L 155.428864 536.743982 
L 164.5485 536.622357 
L 173.668136 536.500732 
L 182.787773 536.379107 
L 191.907409 536.257482 
L 201.027045 536.135857 
L 210.146682 536.014232 
L 219.266318 535.892607 
L 228.385955 535.770982 
L 237.505591 535.649357 
L 246.625227 535.527732 
L 255.744864 535.406107 
L 264.8645 535.284482 
L 273.984136 535.162857 
L 283.103773 535.041232 
L 292.223409 534.919607 
L 301.343045 534.797982 
L 310.462682 534.676357 
L 319.582318 534.554732 
L 328.701955 534.433107 
L 337.821591 534.311482 
L 346.941227 534.189857 
L 356.060864 534.068232 
L 365.1805 533.946607 
L 374.300136 533.824982 
L 383.419773 533.703357 
L 392.539409 533.581732 
L 401.659045 533.460107 
L 410.778682 533.338482 
L 419.898318 533.216857 
L 429.017955 533.095232 
L 438.137591 532.973607 
L 447.257227 532.851982 
L 456.376864 532.730357 
L 465.4965 532.608732 
L 474.616136 532.487107 
L 483.735773 532.365482 
L 492.855409 532.243857 
L 501.975045 532.122232 
L 511.094682 532.000607 
L 520.214318 531.878982 
L 529.333955 531.757357 
L 538.453591 531.635732 
L 547.573227 531.514107 
L 556.692864 531.392482 
L 565.8125 531.270857 
L 574.932136 531.149232 
L 584.051773 531.027607 
L 593.171409 530.905982 
L 602.291045 530.784357 
L 611.410682 530.662732 
L 620.530318 530.541107 
L 629.649955 530.419482 
L 638.769591 530.297857 
L 647.889227 530.176232 
L 657.008864 530.054607 
L 666.1285 529.932982 
L 675.248136 529.811357 
L 684.367773 529.689732 
L 693.487409 529.568107 
L 702.607045 529.446482 
L 711.726682 529.324857 
L 720.846318 529.203232 
L 729.965955 529.081607 
L 739.085591 528.959982 
L 748.205227 528.838357 
L 757.324864 528.716732 
L 766.4445 528.595107 
L 775.564136 528.473482 
L 784.683773 528.351857 
L 793.803409 528.230232 
L 802.923045 528.108607 
L 812.042682 527.986982 
L 821.162318 527.865357 
L 830.281955 527.743732 
L 839.401591 527.622107 
L 848.521227 527.500482 
L 857.640864 527.378857 
L 866.7605 527.257232 
L 875.880136 527.135607 
L 884.999773 527.013982 
L 894.119409 526.892356 
L 903.239045 526.770731 
L 912.358682 526.649106 
L 921.478318 526.527481 
L 930.597955 526.405856 
L 939.717591 526.284231 
L 948.837227 526.162606 
L 957.956864 526.040981 
L 967.0765 525.919356 
" clip-path="url(#pf599026be5)" style="fill: none; stroke-dasharray: 1.5,2.475; stroke-dashoffset: 0; stroke: #be503b; stroke-width: 1.5"/>
   </g>
   <g id="line2d_41">
    <path d="M 64.2325 412.712439 
L 73.352136 412.032052 
L 82.471773 411.351664 
L 91.591409 410.671276 
L 100.711045 409.990888 
L 109.830682 409.3105 
L 118.950318 408.630113 
L 128.069955 407.949725 
L 137.189591 407.269337 
L 146.309227 406.588949 
L 155.428864 405.908561 
L 164.5485 405.228174 
L 173.668136 404.547786 
L 182.787773 403.867398 
L 191.907409 403.18701 
L 201.027045 402.506623 
L 210.146682 401.826235 
L 219.266318 401.145847 
L 228.385955 400.465459 
L 237.505591 399.785071 
L 246.625227 399.104684 
L 255.744864 398.424296 
L 264.8645 397.743908 
L 273.984136 397.06352 
L 283.103773 396.383132 
L 292.223409 395.702745 
L 301.343045 395.022357 
L 310.462682 394.341969 
L 319.582318 393.661581 
L 328.701955 392.981193 
L 337.821591 392.300806 
L 346.941227 391.620418 
L 356.060864 390.94003 
L 365.1805 390.259642 
L 374.300136 389.579255 
L 383.419773 388.898867 
L 392.539409 388.218479 
L 401.659045 387.538091 
L 410.778682 386.857703 
L 419.898318 386.177316 
L 429.017955 385.496928 
L 438.137591 384.81654 
L 447.257227 384.136152 
L 456.376864 383.455764 
L 465.4965 382.775377 
L 474.616136 382.094989 
L 483.735773 381.414601 
L 492.855409 380.734213 
L 501.975045 380.053825 
L 511.094682 379.373438 
L 520.214318 378.69305 
L 529.333955 378.012662 
L 538.453591 377.332274 
L 547.573227 376.651886 
L 556.692864 375.971499 
L 565.8125 375.291111 
L 574.932136 374.610723 
L 584.051773 373.930335 
L 593.171409 373.249948 
L 602.291045 372.56956 
L 611.410682 371.889172 
L 620.530318 371.208784 
L 629.649955 370.528396 
L 638.769591 369.848009 
L 647.889227 369.167621 
L 657.008864 368.487233 
L 666.1285 367.806845 
L 675.248136 367.126457 
L 684.367773 366.44607 
L 693.487409 365.765682 
L 702.607045 365.085294 
L 711.726682 364.404906 
L 720.846318 363.724518 
L 729.965955 363.044131 
L 739.085591 362.363743 
L 748.205227 361.683355 
L 757.324864 361.002967 
L 766.4445 360.32258 
L 775.564136 359.642192 
L 784.683773 358.961804 
L 793.803409 358.281416 
L 802.923045 357.601028 
L 812.042682 356.920641 
L 821.162318 356.240253 
L 830.281955 355.559865 
L 839.401591 354.879477 
L 848.521227 354.199089 
L 857.640864 353.518702 
L 866.7605 352.838314 
L 875.880136 352.157926 
L 884.999773 351.477538 
L 894.119409 350.79715 
L 903.239045 350.116763 
L 912.358682 349.436375 
L 921.478318 348.755987 
L 930.597955 348.075599 
L 939.717591 347.395212 
L 948.837227 346.714824 
L 957.956864 346.034436 
L 967.0765 345.354048 
" clip-path="url(#pf599026be5)" style="fill: none; stroke-dasharray: 1.5,2.475; stroke-dashoffset: 0; stroke: #e2321d; stroke-width: 1.5"/>
   </g>
   <g id="line2d_42">
    <path d="M 64.2325 411.175351 
L 73.352136 408.198055 
L 82.471773 405.220759 
L 91.591409 402.243463 
L 100.711045 399.266168 
L 109.830682 396.288872 
L 118.950318 393.311576 
L 128.069955 390.33428 
L 137.189591 387.356984 
L 146.309227 384.379688 
L 155.428864 381.402393 
L 164.5485 378.425097 
L 173.668136 375.447801 
L 182.787773 372.470505 
L 191.907409 369.493209 
L 201.027045 366.515913 
L 210.146682 363.538618 
L 219.266318 360.561322 
L 228.385955 357.584026 
L 237.505591 354.60673 
L 246.625227 351.629434 
L 255.744864 348.652139 
L 264.8645 345.674843 
L 273.984136 342.697547 
L 283.103773 339.720251 
L 292.223409 336.742955 
L 301.343045 333.765659 
L 310.462682 330.788364 
L 319.582318 327.811068 
L 328.701955 324.833772 
L 337.821591 321.856476 
L 346.941227 318.87918 
L 356.060864 315.901884 
L 365.1805 312.924589 
L 374.300136 309.947293 
L 383.419773 306.969997 
L 392.539409 303.992701 
L 401.659045 301.015405 
L 410.778682 298.03811 
L 419.898318 295.060814 
L 429.017955 292.083518 
L 438.137591 289.106222 
L 447.257227 286.128926 
L 456.376864 283.15163 
L 465.4965 280.174335 
L 474.616136 277.197039 
L 483.735773 274.219743 
L 492.855409 271.242447 
L 501.975045 268.265151 
L 511.094682 265.287855 
L 520.214318 262.31056 
L 529.333955 259.333264 
L 538.453591 256.355968 
L 547.573227 253.378672 
L 556.692864 250.401376 
L 565.8125 247.424081 
L 574.932136 244.446785 
L 584.051773 241.469489 
L 593.171409 238.492193 
L 602.291045 235.514897 
L 611.410682 232.537601 
L 620.530318 229.560306 
L 629.649955 226.58301 
L 638.769591 223.605714 
L 647.889227 220.628418 
L 657.008864 217.651122 
L 666.1285 214.673826 
L 675.248136 211.696531 
L 684.367773 208.719235 
L 693.487409 205.741939 
L 702.607045 202.764643 
L 711.726682 199.787347 
L 720.846318 196.810052 
L 729.965955 193.832756 
L 739.085591 190.85546 
L 748.205227 187.878164 
L 757.324864 184.900868 
L 766.4445 181.923572 
L 775.564136 178.946277 
L 784.683773 175.968981 
L 793.803409 172.991685 
L 802.923045 170.014389 
L 812.042682 167.037093 
L 821.162318 164.059797 
L 830.281955 161.082502 
L 839.401591 158.105206 
L 848.521227 155.12791 
L 857.640864 152.150614 
L 866.7605 149.173318 
L 875.880136 146.196023 
L 884.999773 143.218727 
L 894.119409 140.241431 
L 903.239045 137.264135 
L 912.358682 134.286839 
L 921.478318 131.309543 
L 930.597955 128.332248 
L 939.717591 125.354952 
L 948.837227 122.377656 
L 957.956864 119.40036 
L 967.0765 116.423064 
" clip-path="url(#pf599026be5)" style="fill: none; stroke-dasharray: 1.5,2.475; stroke-dashoffset: 0; stroke: #48b585; stroke-width: 1.5"/>
   </g>
   <g id="line2d_43">
    <path d="M 64.2325 445.179782 
L 82.28938 442.641309 
L 100.34626 442.464032 
L 118.40314 440.692586 
L 136.46002 439.306408 
L 154.5169 438.543331 
L 172.57378 439.519228 
L 190.63066 440.734272 
L 208.68754 436.153611 
L 226.74442 438.355962 
L 244.8013 431.277197 
L 262.85818 428.251653 
L 280.91506 423.990002 
L 298.97194 424.896568 
L 317.02882 422.653848 
L 335.0857 421.133835 
L 389.25634 413.350354 
L 407.31322 410.455134 
L 425.3701 405.870524 
L 443.42698 406.605518 
L 461.48386 406.877576 
L 479.54074 401.652753 
L 497.59762 403.580413 
L 515.6545 403.53741 
L 533.71138 398.140577 
L 551.76826 398.951484 
L 569.82514 397.955841 
L 587.88202 399.970384 
L 605.9389 383.287546 
L 623.99578 379.014485 
L 642.05266 379.767032 
L 660.10954 375.981482 
L 678.16642 373.181921 
L 696.2233 367.42834 
L 714.28018 355.153275 
L 732.33706 358.30695 
L 750.39394 358.475889 
L 768.45082 355.457365 
L 786.5077 357.206871 
L 804.56458 362.1513 
L 822.62146 356.948417 
L 840.67834 358.957255 
L 858.73522 354.551238 
L 876.7921 350.545408 
L 894.84898 349.394868 
L 912.90586 345.899366 
L 930.96274 344.597877 
L 949.01962 329.216967 
L 967.0765 326.208097 
" clip-path="url(#pf599026be5)" style="fill: none; stroke: #4ac1fa; stroke-width: 1.5; stroke-linecap: square"/>
   </g>
   <g id="line2d_44">
    <path d="M 64.2325 466.595106 
L 82.28938 437.032533 
L 100.34626 429.157342 
L 118.40314 431.026641 
L 136.46002 450.89036 
L 154.5169 424.820216 
L 172.57378 413.235388 
L 190.63066 429.24949 
L 208.68754 452.306376 
L 226.74442 446.880581 
L 244.8013 420.483091 
L 262.85818 399.068644 
L 280.91506 418.538757 
L 298.97194 448.812629 
L 317.02882 430.401786 
L 335.0857 420.231657 
L 389.25634 395.993954 
L 407.31322 368.325253 
L 425.3701 394.621818 
L 443.42698 416.109545 
L 461.48386 374.745813 
L 479.54074 352.40286 
L 497.59762 421.384831 
L 515.6545 446.054754 
L 533.71138 452.117252 
L 551.76826 432.084156 
L 569.82514 391.664288 
L 587.88202 387.552707 
L 605.9389 397.586369 
L 623.99578 435.014918 
L 642.05266 356.28758 
L 660.10954 370.590791 
L 678.16642 359.76158 
L 696.2233 378.13688 
L 714.28018 346.701936 
L 732.33706 310.988227 
L 750.39394 347.691436 
L 768.45082 360.816462 
L 786.5077 426.209466 
L 804.56458 413.5386 
L 822.62146 401.198592 
L 840.67834 427.459176 
L 858.73522 426.277041 
L 876.7921 421.878484 
L 894.84898 405.364146 
L 912.90586 401.163488 
L 930.96274 402.017837 
L 949.01962 420.52741 
L 967.0765 406.730577 
" clip-path="url(#pf599026be5)" style="fill: none; stroke: #e9a942; stroke-width: 1.5; stroke-linecap: square"/>
   </g>
   <g id="line2d_45">
    <path d="M 64.2325 453.743016 
L 82.28938 452.617487 
L 100.34626 451.55734 
L 118.40314 452.45513 
L 136.46002 452.778966 
L 154.5169 454.49644 
L 172.57378 449.78326 
L 190.63066 447.046887 
L 208.68754 445.802443 
L 226.74442 433.661212 
L 244.8013 443.570254 
L 262.85818 447.830589 
L 280.91506 442.414009 
L 298.97194 441.778184 
L 317.02882 442.294216 
L 335.0857 439.852718 
L 389.25634 429.411409 
L 407.31322 422.081649 
L 425.3701 421.005705 
L 443.42698 429.871713 
L 461.48386 425.271744 
L 479.54074 412.86065 
L 497.59762 425.847453 
L 515.6545 439.358187 
L 533.71138 433.79768 
L 551.76826 426.051936 
L 569.82514 423.665727 
L 587.88202 426.084407 
L 605.9389 422.676227 
L 623.99578 419.366338 
L 642.05266 422.515186 
L 660.10954 418.157876 
L 678.16642 419.802069 
L 696.2233 415.16963 
L 714.28018 391.526504 
L 732.33706 392.36725 
L 750.39394 413.21257 
L 768.45082 410.775899 
L 786.5077 374.000726 
L 804.56458 398.996681 
L 822.62146 400.916003 
L 840.67834 413.463565 
L 858.73522 403.543554 
L 876.7921 404.789753 
L 894.84898 398.607901 
L 912.90586 406.576996 
L 930.96274 462.927155 
L 949.01962 491.582723 
L 967.0765 489.742385 
" clip-path="url(#pf599026be5)" style="fill: none; stroke: #9a5689; stroke-width: 1.5; stroke-linecap: square"/>
   </g>
   <g id="line2d_46">
    <path d="M 64.2325 538.244997 
L 82.28938 537.506053 
L 100.34626 536.993971 
L 118.40314 537.354666 
L 136.46002 537.099722 
L 154.5169 536.699534 
L 172.57378 536.357268 
L 190.63066 536.09618 
L 208.68754 536.118998 
L 226.74442 534.79162 
L 244.8013 535.405505 
L 262.85818 534.044339 
L 280.91506 534.537553 
L 298.97194 534.283487 
L 317.02882 534.455497 
L 335.0857 534.670949 
L 389.25634 534.024154 
L 407.31322 533.763067 
L 425.3701 533.673112 
L 443.42698 533.668724 
L 461.48386 533.431771 
L 479.54074 533.026317 
L 497.59762 533.179898 
L 515.6545 533.928495 
L 533.71138 532.857817 
L 551.76826 532.576983 
L 569.82514 532.175918 
L 587.88202 532.265872 
L 605.9389 530.396134 
L 623.99578 529.431207 
L 642.05266 530.142945 
L 660.10954 529.546612 
L 678.16642 529.357049 
L 696.2233 529.255686 
L 714.28018 527.964729 
L 732.33706 528.086716 
L 750.39394 528.043713 
L 768.45082 526.998046 
L 786.5077 527.188487 
L 804.56458 526.874743 
L 822.62146 527.724265 
L 840.67834 527.675119 
L 858.73522 526.962503 
L 876.7921 527.219203 
L 894.84898 526.717651 
L 912.90586 526.596103 
L 930.96274 529.158272 
L 949.01962 526.684302 
L 967.0765 525.700068 
" clip-path="url(#pf599026be5)" style="fill: none; stroke: #be503b; stroke-width: 1.5; stroke-linecap: square"/>
   </g>
   <g id="line2d_47">
    <path d="M 64.2325 417.830529 
L 82.28938 396.95932 
L 100.34626 395.246673 
L 118.40314 388.949416 
L 136.46002 389.447457 
L 154.5169 408.631909 
L 172.57378 392.097825 
L 190.63066 396.497699 
L 208.68754 403.361012 
L 226.74442 381.753053 
L 244.8013 399.016865 
L 262.85818 402.92177 
L 280.91506 396.626269 
L 298.97194 401.607556 
L 317.02882 399.994957 
L 335.0857 399.19107 
L 389.25634 394.739856 
L 407.31322 396.646892 
L 425.3701 395.182169 
L 443.42698 388.715096 
L 461.48386 391.072343 
L 479.54074 387.942364 
L 497.59762 392.219374 
L 515.6545 403.581729 
L 533.71138 390.488297 
L 551.76826 386.621129 
L 569.82514 383.21646 
L 587.88202 383.628934 
L 605.9389 380.069367 
L 623.99578 377.084193 
L 642.05266 377.607245 
L 660.10954 375.82088 
L 678.16642 374.744497 
L 696.2233 372.155561 
L 714.28018 360.819972 
L 732.33706 359.352178 
L 750.39394 361.49529 
L 768.45082 357.030034 
L 786.5077 355.406464 
L 804.56458 351.851724 
L 822.62146 348.677864 
L 840.67834 350.855203 
L 858.73522 347.032354 
L 876.7921 344.470186 
L 894.84898 342.173054 
L 912.90586 337.341398 
L 930.96274 347.94638 
L 949.01962 335.945567 
L 967.0765 327.659656 
" clip-path="url(#pf599026be5)" style="fill: none; stroke: #e2321d; stroke-width: 1.5; stroke-linecap: square"/>
   </g>
   <g id="line2d_48">
    <path d="M 64.2325 379.088643 
L 82.28938 380.871937 
L 100.34626 386.487733 
L 118.40314 376.853382 
L 136.46002 379.263287 
L 154.5169 375.122745 
L 172.57378 370.403861 
L 190.63066 363.704222 
L 208.68754 361.569886 
L 226.74442 363.902561 
L 244.8013 349.728358 
L 262.85818 347.951207 
L 280.91506 346.04461 
L 298.97194 335.705103 
L 317.02882 324.616121 
L 335.0857 328.180515 
L 389.25634 314.33322 
L 407.31322 316.239378 
L 425.3701 314.909806 
L 443.42698 294.372965 
L 461.48386 270.965037 
L 479.54074 256.060667 
L 497.59762 266.871447 
L 515.6545 282.177323 
L 533.71138 270.659631 
L 551.76826 263.210517 
L 569.82514 259.847533 
L 587.88202 283.588073 
L 605.9389 282.417787 
L 623.99578 264.748959 
L 642.05266 240.951375 
L 660.10954 250.02362 
L 678.16642 241.798703 
L 696.2233 203.766361 
L 714.28018 200.246725 
L 732.33706 182.543232 
L 750.39394 188.503927 
L 768.45082 145.463969 
L 786.5077 157.851368 
L 804.56458 155.782413 
L 822.62146 149.333331 
L 840.67834 141.348439 
L 858.73522 143.287508 
L 876.7921 148.667228 
L 894.84898 145.417456 
L 912.90586 128.048331 
L 930.96274 127.109732 
L 949.01962 117.282308 
L 967.0765 48.622857 
" clip-path="url(#pf599026be5)" style="fill: none; stroke: #48b585; stroke-width: 6; stroke-linecap: square"/>
   </g>
   <g id="patch_3">
    <path d="M 64.2325 567.74175 
L 64.2325 24.14175 
" style="fill: none; stroke: #ffffff; stroke-linejoin: miter; stroke-linecap: square"/>
   </g>
   <g id="patch_4">
    <path d="M 967.0765 567.74175 
L 967.0765 24.14175 
" style="fill: none; stroke: #ffffff; stroke-linejoin: miter; stroke-linecap: square"/>
   </g>
   <g id="patch_5">
    <path d="M 64.2325 567.74175 
L 967.0765 567.74175 
" style="fill: none; stroke: #ffffff; stroke-linejoin: miter; stroke-linecap: square"/>
   </g>
   <g id="patch_6">
    <path d="M 64.2325 24.14175 
L 967.0765 24.14175 
" style="fill: none; stroke: #ffffff; stroke-linejoin: miter; stroke-linecap: square"/>
   </g>
   <g id="text_21">
    <!-- Enterprise Linux 8 and 9 Instances by Distribution (System Age &gt; 1 Week) -->
    <g transform="translate(64.2325 18.14175)scale(0.144 -0.144)">
     <defs>
      <path id="DejaVuSans-45" d="M 628 4666 
L 3578 4666 
L 3578 4134 
L 1259 4134 
L 1259 2753 
L 3481 2753 
L 3481 2222 
L 1259 2222 
L 1259 531 
L 3634 531 
L 3634 0 
L 628 0 
L 628 4666 
z
" transform="scale(0.015625)"/>
      <path id="DejaVuSans-72" d="M 2631 2963 
Q 2534 3019 2420 3045 
Q 2306 3072 2169 3072 
Q 1681 3072 1420 2755 
Q 1159 2438 1159 1844 
L 1159 0 
L 581 0 
L 581 3500 
L 1159 3500 
L 1159 2956 
Q 1341 3275 1631 3429 
Q 1922 3584 2338 3584 
Q 2397 3584 2469 3576 
Q 2541 3569 2628 3553 
L 2631 2963 
z
" transform="scale(0.015625)"/>
      <path id="DejaVuSans-70" d="M 1159 525 
L 1159 -1331 
L 581 -1331 
L 581 3500 
L 1159 3500 
L 1159 2969 
Q 1341 3281 1617 3432 
Q 1894 3584 2278 3584 
Q 2916 3584 3314 3078 
Q 3713 2572 3713 1747 
Q 3713 922 3314 415 
Q 2916 -91 2278 -91 
Q 1894 -91 1617 61 
Q 1341 213 1159 525 
z
M 3116 1747 
Q 3116 2381 2855 2742 
Q 2594 3103 2138 3103 
Q 1681 3103 1420 2742 
Q 1159 2381 1159 1747 
Q 1159 1113 1420 752 
Q 1681 391 2138 391 
Q 2594 391 2855 752 
Q 3116 1113 3116 1747 
z
" transform="scale(0.015625)"/>
      <path id="DejaVuSans-69" d="M 603 3500 
L 1178 3500 
L 1178 0 
L 603 0 
L 603 3500 
z
M 603 4863 
L 1178 4863 
L 1178 4134 
L 603 4134 
L 603 4863 
z
" transform="scale(0.015625)"/>
      <path id="DejaVuSans-20" transform="scale(0.015625)"/>
      <path id="DejaVuSans-4c" d="M 628 4666 
L 1259 4666 
L 1259 531 
L 3531 531 
L 3531 0 
L 628 0 
L 628 4666 
z
" transform="scale(0.015625)"/>
      <path id="DejaVuSans-75" d="M 544 1381 
L 544 3500 
L 1119 3500 
L 1119 1403 
Q 1119 906 1312 657 
Q 1506 409 1894 409 
Q 2359 409 2629 706 
Q 2900 1003 2900 1516 
L 2900 3500 
L 3475 3500 
L 3475 0 
L 2900 0 
L 2900 538 
Q 2691 219 2414 64 
Q 2138 -91 1772 -91 
Q 1169 -91 856 284 
Q 544 659 544 1381 
z
M 1991 3584 
L 1991 3584 
z
" transform="scale(0.015625)"/>
      <path id="DejaVuSans-78" d="M 3513 3500 
L 2247 1797 
L 3578 0 
L 2900 0 
L 1881 1375 
L 863 0 
L 184 0 
L 1544 1831 
L 300 3500 
L 978 3500 
L 1906 2253 
L 2834 3500 
L 3513 3500 
z
" transform="scale(0.015625)"/>
      <path id="DejaVuSans-64" d="M 2906 2969 
L 2906 4863 
L 3481 4863 
L 3481 0 
L 2906 0 
L 2906 525 
Q 2725 213 2448 61 
Q 2172 -91 1784 -91 
Q 1150 -91 751 415 
Q 353 922 353 1747 
Q 353 2572 751 3078 
Q 1150 3584 1784 3584 
Q 2172 3584 2448 3432 
Q 2725 3281 2906 2969 
z
M 947 1747 
Q 947 1113 1208 752 
Q 1469 391 1925 391 
Q 2381 391 2643 752 
Q 2906 1113 2906 1747 
Q 2906 2381 2643 2742 
Q 2381 3103 1925 3103 
Q 1469 3103 1208 2742 
Q 947 2381 947 1747 
z
" transform="scale(0.015625)"/>
      <path id="DejaVuSans-62" d="M 3116 1747 
Q 3116 2381 2855 2742 
Q 2594 3103 2138 3103 
Q 1681 3103 1420 2742 
Q 1159 2381 1159 1747 
Q 1159 1113 1420 752 
Q 1681 391 2138 391 
Q 2594 391 2855 752 
Q 3116 1113 3116 1747 
z
M 1159 2969 
Q 1341 3281 1617 3432 
Q 1894 3584 2278 3584 
Q 2916 3584 3314 3078 
Q 3713 2572 3713 1747 
Q 3713 922 3314 415 
Q 2916 -91 2278 -91 
Q 1894 -91 1617 61 
Q 1341 213 1159 525 
L 1159 0 
L 581 0 
L 581 4863 
L 1159 4863 
L 1159 2969 
z
" transform="scale(0.015625)"/>
      <path id="DejaVuSans-79" d="M 2059 -325 
Q 1816 -950 1584 -1140 
Q 1353 -1331 966 -1331 
L 506 -1331 
L 506 -850 
L 844 -850 
Q 1081 -850 1212 -737 
Q 1344 -625 1503 -206 
L 1606 56 
L 191 3500 
L 800 3500 
L 1894 763 
L 2988 3500 
L 3597 3500 
L 2059 -325 
z
" transform="scale(0.015625)"/>
      <path id="DejaVuSans-6f" d="M 1959 3097 
Q 1497 3097 1228 2736 
Q 959 2375 959 1747 
Q 959 1119 1226 758 
Q 1494 397 1959 397 
Q 2419 397 2687 759 
Q 2956 1122 2956 1747 
Q 2956 2369 2687 2733 
Q 2419 3097 1959 3097 
z
M 1959 3584 
Q 2709 3584 3137 3096 
Q 3566 2609 3566 1747 
Q 3566 888 3137 398 
Q 2709 -91 1959 -91 
Q 1206 -91 779 398 
Q 353 888 353 1747 
Q 353 2609 779 3096 
Q 1206 3584 1959 3584 
z
" transform="scale(0.015625)"/>
      <path id="DejaVuSans-28" d="M 1984 4856 
Q 1566 4138 1362 3434 
Q 1159 2731 1159 2009 
Q 1159 1288 1364 580 
Q 1569 -128 1984 -844 
L 1484 -844 
Q 1016 -109 783 600 
Q 550 1309 550 2009 
Q 550 2706 781 3412 
Q 1013 4119 1484 4856 
L 1984 4856 
z
" transform="scale(0.015625)"/>
      <path id="DejaVuSans-53" d="M 3425 4513 
L 3425 3897 
Q 3066 4069 2747 4153 
Q 2428 4238 2131 4238 
Q 1616 4238 1336 4038 
Q 1056 3838 1056 3469 
Q 1056 3159 1242 3001 
Q 1428 2844 1947 2747 
L 2328 2669 
Q 3034 2534 3370 2195 
Q 3706 1856 3706 1288 
Q 3706 609 3251 259 
Q 2797 -91 1919 -91 
Q 1588 -91 1214 -16 
Q 841 59 441 206 
L 441 856 
Q 825 641 1194 531 
Q 1563 422 1919 422 
Q 2459 422 2753 634 
Q 3047 847 3047 1241 
Q 3047 1584 2836 1778 
Q 2625 1972 2144 2069 
L 1759 2144 
Q 1053 2284 737 2584 
Q 422 2884 422 3419 
Q 422 4038 858 4394 
Q 1294 4750 2059 4750 
Q 2388 4750 2728 4690 
Q 3069 4631 3425 4513 
z
" transform="scale(0.015625)"/>
      <path id="DejaVuSans-6d" d="M 3328 2828 
Q 3544 3216 3844 3400 
Q 4144 3584 4550 3584 
Q 5097 3584 5394 3201 
Q 5691 2819 5691 2113 
L 5691 0 
L 5113 0 
L 5113 2094 
Q 5113 2597 4934 2840 
Q 4756 3084 4391 3084 
Q 3944 3084 3684 2787 
Q 3425 2491 3425 1978 
L 3425 0 
L 2847 0 
L 2847 2094 
Q 2847 2600 2669 2842 
Q 2491 3084 2119 3084 
Q 1678 3084 1418 2786 
Q 1159 2488 1159 1978 
L 1159 0 
L 581 0 
L 581 3500 
L 1159 3500 
L 1159 2956 
Q 1356 3278 1631 3431 
Q 1906 3584 2284 3584 
Q 2666 3584 2933 3390 
Q 3200 3197 3328 2828 
z
" transform="scale(0.015625)"/>
      <path id="DejaVuSans-41" d="M 2188 4044 
L 1331 1722 
L 3047 1722 
L 2188 4044 
z
M 1831 4666 
L 2547 4666 
L 4325 0 
L 3669 0 
L 3244 1197 
L 1141 1197 
L 716 0 
L 50 0 
L 1831 4666 
z
" transform="scale(0.015625)"/>
      <path id="DejaVuSans-67" d="M 2906 1791 
Q 2906 2416 2648 2759 
Q 2391 3103 1925 3103 
Q 1463 3103 1205 2759 
Q 947 2416 947 1791 
Q 947 1169 1205 825 
Q 1463 481 1925 481 
Q 2391 481 2648 825 
Q 2906 1169 2906 1791 
z
M 3481 434 
Q 3481 -459 3084 -895 
Q 2688 -1331 1869 -1331 
Q 1566 -1331 1297 -1286 
Q 1028 -1241 775 -1147 
L 775 -588 
Q 1028 -725 1275 -790 
Q 1522 -856 1778 -856 
Q 2344 -856 2625 -561 
Q 2906 -266 2906 331 
L 2906 616 
Q 2728 306 2450 153 
Q 2172 0 1784 0 
Q 1141 0 747 490 
Q 353 981 353 1791 
Q 353 2603 747 3093 
Q 1141 3584 1784 3584 
Q 2172 3584 2450 3431 
Q 2728 3278 2906 2969 
L 2906 3500 
L 3481 3500 
L 3481 434 
z
" transform="scale(0.015625)"/>
      <path id="DejaVuSans-3e" d="M 678 3150 
L 678 3719 
L 4684 2266 
L 4684 1747 
L 678 294 
L 678 863 
L 3897 2003 
L 678 3150 
z
" transform="scale(0.015625)"/>
      <path id="DejaVuSans-57" d="M 213 4666 
L 850 4666 
L 1831 722 
L 2809 4666 
L 3519 4666 
L 4500 722 
L 5478 4666 
L 6119 4666 
L 4947 0 
L 4153 0 
L 3169 4050 
L 2175 0 
L 1381 0 
L 213 4666 
z
" transform="scale(0.015625)"/>
      <path id="DejaVuSans-29" d="M 513 4856 
L 1013 4856 
Q 1481 4119 1714 3412 
Q 1947 2706 1947 2009 
Q 1947 1309 1714 600 
Q 1481 -109 1013 -844 
L 513 -844 
Q 928 -128 1133 580 
Q 1338 1288 1338 2009 
Q 1338 2731 1133 3434 
Q 928 4138 513 4856 
z
" transform="scale(0.015625)"/>
     </defs>
     <use xlink:href="#DejaVuSans-45"/>
     <use xlink:href="#DejaVuSans-6e" x="63.183594"/>
     <use xlink:href="#DejaVuSans-74" x="126.5625"/>
     <use xlink:href="#DejaVuSans-65" x="165.771484"/>
     <use xlink:href="#DejaVuSans-72" x="227.294922"/>
     <use xlink:href="#DejaVuSans-70" x="268.408203"/>
     <use xlink:href="#DejaVuSans-72" x="331.884766"/>
     <use xlink:href="#DejaVuSans-69" x="372.998047"/>
     <use xlink:href="#DejaVuSans-73" x="400.78125"/>
     <use xlink:href="#DejaVuSans-65" x="452.880859"/>
     <use xlink:href="#DejaVuSans-20" x="514.404297"/>
     <use xlink:href="#DejaVuSans-4c" x="546.191406"/>
     <use xlink:href="#DejaVuSans-69" x="601.904297"/>
     <use xlink:href="#DejaVuSans-6e" x="629.6875"/>
     <use xlink:href="#DejaVuSans-75" x="693.066406"/>
     <use xlink:href="#DejaVuSans-78" x="756.445312"/>
     <use xlink:href="#DejaVuSans-20" x="815.625"/>
     <use xlink:href="#DejaVuSans-38" x="847.412109"/>
     <use xlink:href="#DejaVuSans-20" x="911.035156"/>
     <use xlink:href="#DejaVuSans-61" x="942.822266"/>
     <use xlink:href="#DejaVuSans-6e" x="1004.101562"/>
     <use xlink:href="#DejaVuSans-64" x="1067.480469"/>
     <use xlink:href="#DejaVuSans-20" x="1130.957031"/>
     <use xlink:href="#DejaVuSans-39" x="1162.744141"/>
     <use xlink:href="#DejaVuSans-20" x="1226.367188"/>
     <use xlink:href="#DejaVuSans-49" x="1258.154297"/>
     <use xlink:href="#DejaVuSans-6e" x="1287.646484"/>
     <use xlink:href="#DejaVuSans-73" x="1351.025391"/>
     <use xlink:href="#DejaVuSans-74" x="1403.125"/>
     <use xlink:href="#DejaVuSans-61" x="1442.333984"/>
     <use xlink:href="#DejaVuSans-6e" x="1503.613281"/>
     <use xlink:href="#DejaVuSans-63" x="1566.992188"/>
     <use xlink:href="#DejaVuSans-65" x="1621.972656"/>
     <use xlink:href="#DejaVuSans-73" x="1683.496094"/>
     <use xlink:href="#DejaVuSans-20" x="1735.595703"/>
     <use xlink:href="#DejaVuSans-62" x="1767.382812"/>
     <use xlink:href="#DejaVuSans-79" x="1830.859375"/>
     <use xlink:href="#DejaVuSans-20" x="1890.039062"/>
     <use xlink:href="#DejaVuSans-44" x="1921.826172"/>
     <use xlink:href="#DejaVuSans-69" x="1998.828125"/>
     <use xlink:href="#DejaVuSans-73" x="2026.611328"/>
     <use xlink:href="#DejaVuSans-74" x="2078.710938"/>
     <use xlink:href="#DejaVuSans-72" x="2117.919922"/>
     <use xlink:href="#DejaVuSans-69" x="2159.033203"/>
     <use xlink:href="#DejaVuSans-62" x="2186.816406"/>
     <use xlink:href="#DejaVuSans-75" x="2250.292969"/>
     <use xlink:href="#DejaVuSans-74" x="2313.671875"/>
     <use xlink:href="#DejaVuSans-69" x="2352.880859"/>
     <use xlink:href="#DejaVuSans-6f" x="2380.664062"/>
     <use xlink:href="#DejaVuSans-6e" x="2441.845703"/>
     <use xlink:href="#DejaVuSans-20" x="2505.224609"/>
     <use xlink:href="#DejaVuSans-28" x="2537.011719"/>
     <use xlink:href="#DejaVuSans-53" x="2576.025391"/>
     <use xlink:href="#DejaVuSans-79" x="2639.501953"/>
     <use xlink:href="#DejaVuSans-73" x="2698.681641"/>
     <use xlink:href="#DejaVuSans-74" x="2750.78125"/>
     <use xlink:href="#DejaVuSans-65" x="2789.990234"/>
     <use xlink:href="#DejaVuSans-6d" x="2851.513672"/>
     <use xlink:href="#DejaVuSans-20" x="2948.925781"/>
     <use xlink:href="#DejaVuSans-41" x="2980.712891"/>
     <use xlink:href="#DejaVuSans-67" x="3049.121094"/>
     <use xlink:href="#DejaVuSans-65" x="3112.597656"/>
     <use xlink:href="#DejaVuSans-20" x="3174.121094"/>
     <use xlink:href="#DejaVuSans-3e" x="3205.908203"/>
     <use xlink:href="#DejaVuSans-20" x="3289.697266"/>
     <use xlink:href="#DejaVuSans-31" x="3321.484375"/>
     <use xlink:href="#DejaVuSans-20" x="3385.107422"/>
     <use xlink:href="#DejaVuSans-57" x="3416.894531"/>
     <use xlink:href="#DejaVuSans-65" x="3509.896484"/>
     <use xlink:href="#DejaVuSans-65" x="3571.419922"/>
     <use xlink:href="#DejaVuSans-6b" x="3632.943359"/>
     <use xlink:href="#DejaVuSans-29" x="3690.853516"/>
    </g>
   </g>
   <g id="text_22">
    <!-- 2024-07-04 11:55 UTC -->
    <g transform="translate(804.1945 18.14175)scale(0.144 -0.144)">
     <defs>
      <path id="DejaVuSans-3a" d="M 750 794 
L 1409 794 
L 1409 0 
L 750 0 
L 750 794 
z
M 750 3309 
L 1409 3309 
L 1409 2516 
L 750 2516 
L 750 3309 
z
" transform="scale(0.015625)"/>
      <path id="DejaVuSans-55" d="M 556 4666 
L 1191 4666 
L 1191 1831 
Q 1191 1081 1462 751 
Q 1734 422 2344 422 
Q 2950 422 3222 751 
Q 3494 1081 3494 1831 
L 3494 4666 
L 4128 4666 
L 4128 1753 
Q 4128 841 3676 375 
Q 3225 -91 2344 -91 
Q 1459 -91 1007 375 
Q 556 841 556 1753 
L 556 4666 
z
" transform="scale(0.015625)"/>
      <path id="DejaVuSans-54" d="M -19 4666 
L 3928 4666 
L 3928 4134 
L 2272 4134 
L 2272 0 
L 1638 0 
L 1638 4134 
L -19 4134 
L -19 4666 
z
" transform="scale(0.015625)"/>
      <path id="DejaVuSans-43" d="M 4122 4306 
L 4122 3641 
Q 3803 3938 3442 4084 
Q 3081 4231 2675 4231 
Q 1875 4231 1450 3742 
Q 1025 3253 1025 2328 
Q 1025 1406 1450 917 
Q 1875 428 2675 428 
Q 3081 428 3442 575 
Q 3803 722 4122 1019 
L 4122 359 
Q 3791 134 3420 21 
Q 3050 -91 2638 -91 
Q 1578 -91 968 557 
Q 359 1206 359 2328 
Q 359 3453 968 4101 
Q 1578 4750 2638 4750 
Q 3056 4750 3426 4639 
Q 3797 4528 4122 4306 
z
" transform="scale(0.015625)"/>
     </defs>
     <use xlink:href="#DejaVuSans-32"/>
     <use xlink:href="#DejaVuSans-30" x="63.623047"/>
     <use xlink:href="#DejaVuSans-32" x="127.246094"/>
     <use xlink:href="#DejaVuSans-34" x="190.869141"/>
     <use xlink:href="#DejaVuSans-2d" x="254.492188"/>
     <use xlink:href="#DejaVuSans-30" x="290.576172"/>
     <use xlink:href="#DejaVuSans-37" x="354.199219"/>
     <use xlink:href="#DejaVuSans-2d" x="417.822266"/>
     <use xlink:href="#DejaVuSans-30" x="453.90625"/>
     <use xlink:href="#DejaVuSans-34" x="517.529297"/>
     <use xlink:href="#DejaVuSans-20" x="581.152344"/>
     <use xlink:href="#DejaVuSans-31" x="612.939453"/>
     <use xlink:href="#DejaVuSans-31" x="676.5625"/>
     <use xlink:href="#DejaVuSans-3a" x="740.185547"/>
     <use xlink:href="#DejaVuSans-35" x="773.876953"/>
     <use xlink:href="#DejaVuSans-35" x="837.5"/>
     <use xlink:href="#DejaVuSans-20" x="901.123047"/>
     <use xlink:href="#DejaVuSans-55" x="932.910156"/>
     <use xlink:href="#DejaVuSans-54" x="1006.103516"/>
     <use xlink:href="#DejaVuSans-43" x="1061.3125"/>
    </g>
   </g>
   <g id="legend_1">
    <g id="patch_7">
     <path d="M 71.2325 134.888625 
L 180.20125 134.888625 
Q 182.20125 134.888625 182.20125 132.888625 
L 182.20125 31.14175 
Q 182.20125 29.14175 180.20125 29.14175 
L 71.2325 29.14175 
Q 69.2325 29.14175 69.2325 31.14175 
L 69.2325 132.888625 
Q 69.2325 134.888625 71.2325 134.888625 
z
" style="fill: #e5e5e5; opacity: 0.8; stroke: #cccccc; stroke-width: 0.5; stroke-linejoin: miter"/>
    </g>
    <g id="text_23">
     <!-- Distribution -->
     <g transform="translate(96.548125 40.740187)scale(0.1 -0.1)">
      <use xlink:href="#DejaVuSans-44"/>
      <use xlink:href="#DejaVuSans-69" x="77.001953"/>
      <use xlink:href="#DejaVuSans-73" x="104.785156"/>
      <use xlink:href="#DejaVuSans-74" x="156.884766"/>
      <use xlink:href="#DejaVuSans-72" x="196.09375"/>
      <use xlink:href="#DejaVuSans-69" x="237.207031"/>
      <use xlink:href="#DejaVuSans-62" x="264.990234"/>
      <use xlink:href="#DejaVuSans-75" x="328.466797"/>
      <use xlink:href="#DejaVuSans-74" x="391.845703"/>
      <use xlink:href="#DejaVuSans-69" x="431.054688"/>
      <use xlink:href="#DejaVuSans-6f" x="458.837891"/>
      <use xlink:href="#DejaVuSans-6e" x="520.019531"/>
     </g>
    </g>
    <g id="line2d_49">
     <path d="M 73.2325 51.918312 
L 83.2325 51.918312 
L 93.2325 51.918312 
" style="fill: none; stroke: #4ac1fa; stroke-width: 1.5; stroke-linecap: square"/>
    </g>
    <g id="text_24">
     <!-- AlmaLinux -->
     <g transform="translate(101.2325 55.418312)scale(0.1 -0.1)">
      <defs>
       <path id="DejaVuSans-6c" d="M 603 4863 
L 1178 4863 
L 1178 0 
L 603 0 
L 603 4863 
z
" transform="scale(0.015625)"/>
      </defs>
      <use xlink:href="#DejaVuSans-41"/>
      <use xlink:href="#DejaVuSans-6c" x="68.408203"/>
      <use xlink:href="#DejaVuSans-6d" x="96.191406"/>
      <use xlink:href="#DejaVuSans-61" x="193.603516"/>
      <use xlink:href="#DejaVuSans-4c" x="254.882812"/>
      <use xlink:href="#DejaVuSans-69" x="310.595703"/>
      <use xlink:href="#DejaVuSans-6e" x="338.378906"/>
      <use xlink:href="#DejaVuSans-75" x="401.757812"/>
      <use xlink:href="#DejaVuSans-78" x="465.136719"/>
     </g>
    </g>
    <g id="line2d_50">
     <path d="M 73.2325 66.596437 
L 83.2325 66.596437 
L 93.2325 66.596437 
" style="fill: none; stroke: #e9a942; stroke-width: 1.5; stroke-linecap: square"/>
    </g>
    <g id="text_25">
     <!-- CentOS Legacy -->
     <g transform="translate(101.2325 70.096437)scale(0.1 -0.1)">
      <defs>
       <path id="DejaVuSans-4f" d="M 2522 4238 
Q 1834 4238 1429 3725 
Q 1025 3213 1025 2328 
Q 1025 1447 1429 934 
Q 1834 422 2522 422 
Q 3209 422 3611 934 
Q 4013 1447 4013 2328 
Q 4013 3213 3611 3725 
Q 3209 4238 2522 4238 
z
M 2522 4750 
Q 3503 4750 4090 4092 
Q 4678 3434 4678 2328 
Q 4678 1225 4090 567 
Q 3503 -91 2522 -91 
Q 1538 -91 948 565 
Q 359 1222 359 2328 
Q 359 3434 948 4092 
Q 1538 4750 2522 4750 
z
" transform="scale(0.015625)"/>
      </defs>
      <use xlink:href="#DejaVuSans-43"/>
      <use xlink:href="#DejaVuSans-65" x="69.824219"/>
      <use xlink:href="#DejaVuSans-6e" x="131.347656"/>
      <use xlink:href="#DejaVuSans-74" x="194.726562"/>
      <use xlink:href="#DejaVuSans-4f" x="233.935547"/>
      <use xlink:href="#DejaVuSans-53" x="312.646484"/>
      <use xlink:href="#DejaVuSans-20" x="376.123047"/>
      <use xlink:href="#DejaVuSans-4c" x="407.910156"/>
      <use xlink:href="#DejaVuSans-65" x="461.873047"/>
      <use xlink:href="#DejaVuSans-67" x="523.396484"/>
      <use xlink:href="#DejaVuSans-61" x="586.873047"/>
      <use xlink:href="#DejaVuSans-63" x="648.152344"/>
      <use xlink:href="#DejaVuSans-79" x="703.132812"/>
     </g>
    </g>
    <g id="line2d_51">
     <path d="M 73.2325 81.274563 
L 83.2325 81.274563 
L 93.2325 81.274563 
" style="fill: none; stroke: #9a5689; stroke-width: 1.5; stroke-linecap: square"/>
    </g>
    <g id="text_26">
     <!-- CentOS Stream -->
     <g transform="translate(101.2325 84.774563)scale(0.1 -0.1)">
      <use xlink:href="#DejaVuSans-43"/>
      <use xlink:href="#DejaVuSans-65" x="69.824219"/>
      <use xlink:href="#DejaVuSans-6e" x="131.347656"/>
      <use xlink:href="#DejaVuSans-74" x="194.726562"/>
      <use xlink:href="#DejaVuSans-4f" x="233.935547"/>
      <use xlink:href="#DejaVuSans-53" x="312.646484"/>
      <use xlink:href="#DejaVuSans-20" x="376.123047"/>
      <use xlink:href="#DejaVuSans-53" x="407.910156"/>
      <use xlink:href="#DejaVuSans-74" x="471.386719"/>
      <use xlink:href="#DejaVuSans-72" x="510.595703"/>
      <use xlink:href="#DejaVuSans-65" x="549.458984"/>
      <use xlink:href="#DejaVuSans-61" x="610.982422"/>
      <use xlink:href="#DejaVuSans-6d" x="672.261719"/>
     </g>
    </g>
    <g id="line2d_52">
     <path d="M 73.2325 95.952687 
L 83.2325 95.952687 
L 93.2325 95.952687 
" style="fill: none; stroke: #be503b; stroke-width: 1.5; stroke-linecap: square"/>
    </g>
    <g id="text_27">
     <!-- Oracle -->
     <g transform="translate(101.2325 99.452687)scale(0.1 -0.1)">
      <use xlink:href="#DejaVuSans-4f"/>
      <use xlink:href="#DejaVuSans-72" x="78.710938"/>
      <use xlink:href="#DejaVuSans-61" x="119.824219"/>
      <use xlink:href="#DejaVuSans-63" x="181.103516"/>
      <use xlink:href="#DejaVuSans-6c" x="236.083984"/>
      <use xlink:href="#DejaVuSans-65" x="263.867188"/>
     </g>
    </g>
    <g id="line2d_53">
     <path d="M 73.2325 110.630812 
L 83.2325 110.630812 
L 93.2325 110.630812 
" style="fill: none; stroke: #e2321d; stroke-width: 1.5; stroke-linecap: square"/>
    </g>
    <g id="text_28">
     <!-- RHEL -->
     <g transform="translate(101.2325 114.130812)scale(0.1 -0.1)">
      <defs>
       <path id="DejaVuSans-52" d="M 2841 2188 
Q 3044 2119 3236 1894 
Q 3428 1669 3622 1275 
L 4263 0 
L 3584 0 
L 2988 1197 
Q 2756 1666 2539 1819 
Q 2322 1972 1947 1972 
L 1259 1972 
L 1259 0 
L 628 0 
L 628 4666 
L 2053 4666 
Q 2853 4666 3247 4331 
Q 3641 3997 3641 3322 
Q 3641 2881 3436 2590 
Q 3231 2300 2841 2188 
z
M 1259 4147 
L 1259 2491 
L 2053 2491 
Q 2509 2491 2742 2702 
Q 2975 2913 2975 3322 
Q 2975 3731 2742 3939 
Q 2509 4147 2053 4147 
L 1259 4147 
z
" transform="scale(0.015625)"/>
       <path id="DejaVuSans-48" d="M 628 4666 
L 1259 4666 
L 1259 2753 
L 3553 2753 
L 3553 4666 
L 4184 4666 
L 4184 0 
L 3553 0 
L 3553 2222 
L 1259 2222 
L 1259 0 
L 628 0 
L 628 4666 
z
" transform="scale(0.015625)"/>
      </defs>
      <use xlink:href="#DejaVuSans-52"/>
      <use xlink:href="#DejaVuSans-48" x="69.482422"/>
      <use xlink:href="#DejaVuSans-45" x="144.677734"/>
      <use xlink:href="#DejaVuSans-4c" x="207.861328"/>
     </g>
    </g>
    <g id="line2d_54">
     <path d="M 73.2325 125.308937 
L 83.2325 125.308937 
L 93.2325 125.308937 
" style="fill: none; stroke: #48b585; stroke-width: 6; stroke-linecap: square"/>
    </g>
    <g id="text_29">
     <!-- Rocky Linux -->
     <g transform="translate(101.2325 128.808937)scale(0.1 -0.1)">
      <use xlink:href="#DejaVuSans-52"/>
      <use xlink:href="#DejaVuSans-6f" x="64.982422"/>
      <use xlink:href="#DejaVuSans-63" x="126.164062"/>
      <use xlink:href="#DejaVuSans-6b" x="181.144531"/>
      <use xlink:href="#DejaVuSans-79" x="235.429688"/>
      <use xlink:href="#DejaVuSans-20" x="294.609375"/>
      <use xlink:href="#DejaVuSans-4c" x="326.396484"/>
      <use xlink:href="#DejaVuSans-69" x="382.109375"/>
      <use xlink:href="#DejaVuSans-6e" x="409.892578"/>
      <use xlink:href="#DejaVuSans-75" x="473.271484"/>
      <use xlink:href="#DejaVuSans-78" x="536.650391"/>
     </g>
    </g>
   </g>
  </g>
 </g>
 <defs>
  <clipPath id="pf599026be5">
   <rect x="64.2325" y="24.14175" width="902.844" height="543.6"/>
  </clipPath>
 </defs>
</svg>
