<?xml version="1.0" encoding="utf-8" standalone="no"?>
<!DOCTYPE svg PUBLIC "-//W3C//DTD SVG 1.1//EN"
  "http://www.w3.org/Graphics/SVG/1.1/DTD/svg11.dtd">
<svg xmlns:xlink="http://www.w3.org/1999/xlink" width="964.735875pt" height="633.943878pt" viewBox="0 0 964.735875 633.943878" xmlns="http://www.w3.org/2000/svg" version="1.1">
 <metadata>
  <rdf:RDF xmlns:dc="http://purl.org/dc/elements/1.1/" xmlns:cc="http://creativecommons.org/ns#" xmlns:rdf="http://www.w3.org/1999/02/22-rdf-syntax-ns#">
   <cc:Work>
    <dc:type rdf:resource="http://purl.org/dc/dcmitype/StillImage"/>
    <dc:date>2024-08-15T11:55:19.091243</dc:date>
    <dc:format>image/svg+xml</dc:format>
    <dc:creator>
     <cc:Agent>
      <dc:title>Matplotlib v3.5.1, https://matplotlib.org/</dc:title>
     </cc:Agent>
    </dc:creator>
   </cc:Work>
  </rdf:RDF>
 </metadata>
 <defs>
  <style type="text/css">*{stroke-linejoin: round; stroke-linecap: butt}</style>
 </defs>
 <g id="figure_1">
  <g id="patch_1">
   <path d="M 0 633.943878 
L 964.735875 633.943878 
L 964.735875 0 
L 0 0 
z
" style="fill: #ffffff"/>
  </g>
  <g id="axes_1">
   <g id="patch_2">
    <path d="M 54.691875 567.74175 
L 957.535875 567.74175 
L 957.535875 24.14175 
L 54.691875 24.14175 
z
" style="fill: #e5e5e5"/>
   </g>
   <g id="matplotlib.axis_1">
    <g id="xtick_1">
     <g id="line2d_1">
      <path d="M 95.964744 567.74175 
L 95.964744 24.14175 
" clip-path="url(#p6d5b23ed6a)" style="fill: none; stroke: #ffffff; stroke-width: 0.8; stroke-linecap: square"/>
     </g>
     <g id="line2d_2">
      <defs>
       <path id="m24bc5d3e44" d="M 0 0 
L 0 3.5 
" style="stroke: #555555; stroke-width: 0.8"/>
      </defs>
      <g>
       <use xlink:href="#m24bc5d3e44" x="95.964744" y="567.74175" style="fill: #555555; stroke: #555555; stroke-width: 0.8"/>
      </g>
     </g>
     <g id="text_1">
      <!-- 2023-09 -->
      <g style="fill: #555555" transform="translate(83.143461 609.659567)rotate(-45)scale(0.1 -0.1)">
       <defs>
        <path id="DejaVuSans-32" d="M 1228 531 
L 3431 531 
L 3431 0 
L 469 0 
L 469 531 
Q 828 903 1448 1529 
Q 2069 2156 2228 2338 
Q 2531 2678 2651 2914 
Q 2772 3150 2772 3378 
Q 2772 3750 2511 3984 
Q 2250 4219 1831 4219 
Q 1534 4219 1204 4116 
Q 875 4013 500 3803 
L 500 4441 
Q 881 4594 1212 4672 
Q 1544 4750 1819 4750 
Q 2544 4750 2975 4387 
Q 3406 4025 3406 3419 
Q 3406 3131 3298 2873 
Q 3191 2616 2906 2266 
Q 2828 2175 2409 1742 
Q 1991 1309 1228 531 
z
" transform="scale(0.015625)"/>
        <path id="DejaVuSans-30" d="M 2034 4250 
Q 1547 4250 1301 3770 
Q 1056 3291 1056 2328 
Q 1056 1369 1301 889 
Q 1547 409 2034 409 
Q 2525 409 2770 889 
Q 3016 1369 3016 2328 
Q 3016 3291 2770 3770 
Q 2525 4250 2034 4250 
z
M 2034 4750 
Q 2819 4750 3233 4129 
Q 3647 3509 3647 2328 
Q 3647 1150 3233 529 
Q 2819 -91 2034 -91 
Q 1250 -91 836 529 
Q 422 1150 422 2328 
Q 422 3509 836 4129 
Q 1250 4750 2034 4750 
z
" transform="scale(0.015625)"/>
        <path id="DejaVuSans-33" d="M 2597 2516 
Q 3050 2419 3304 2112 
Q 3559 1806 3559 1356 
Q 3559 666 3084 287 
Q 2609 -91 1734 -91 
Q 1441 -91 1130 -33 
Q 819 25 488 141 
L 488 750 
Q 750 597 1062 519 
Q 1375 441 1716 441 
Q 2309 441 2620 675 
Q 2931 909 2931 1356 
Q 2931 1769 2642 2001 
Q 2353 2234 1838 2234 
L 1294 2234 
L 1294 2753 
L 1863 2753 
Q 2328 2753 2575 2939 
Q 2822 3125 2822 3475 
Q 2822 3834 2567 4026 
Q 2313 4219 1838 4219 
Q 1578 4219 1281 4162 
Q 984 4106 628 3988 
L 628 4550 
Q 988 4650 1302 4700 
Q 1616 4750 1894 4750 
Q 2613 4750 3031 4423 
Q 3450 4097 3450 3541 
Q 3450 3153 3228 2886 
Q 3006 2619 2597 2516 
z
" transform="scale(0.015625)"/>
        <path id="DejaVuSans-2d" d="M 313 2009 
L 1997 2009 
L 1997 1497 
L 313 1497 
L 313 2009 
z
" transform="scale(0.015625)"/>
        <path id="DejaVuSans-39" d="M 703 97 
L 703 672 
Q 941 559 1184 500 
Q 1428 441 1663 441 
Q 2288 441 2617 861 
Q 2947 1281 2994 2138 
Q 2813 1869 2534 1725 
Q 2256 1581 1919 1581 
Q 1219 1581 811 2004 
Q 403 2428 403 3163 
Q 403 3881 828 4315 
Q 1253 4750 1959 4750 
Q 2769 4750 3195 4129 
Q 3622 3509 3622 2328 
Q 3622 1225 3098 567 
Q 2575 -91 1691 -91 
Q 1453 -91 1209 -44 
Q 966 3 703 97 
z
M 1959 2075 
Q 2384 2075 2632 2365 
Q 2881 2656 2881 3163 
Q 2881 3666 2632 3958 
Q 2384 4250 1959 4250 
Q 1534 4250 1286 3958 
Q 1038 3666 1038 3163 
Q 1038 2656 1286 2365 
Q 1534 2075 1959 2075 
z
" transform="scale(0.015625)"/>
       </defs>
       <use xlink:href="#DejaVuSans-32"/>
       <use xlink:href="#DejaVuSans-30" x="63.623047"/>
       <use xlink:href="#DejaVuSans-32" x="127.246094"/>
       <use xlink:href="#DejaVuSans-33" x="190.869141"/>
       <use xlink:href="#DejaVuSans-2d" x="254.492188"/>
       <use xlink:href="#DejaVuSans-30" x="290.576172"/>
       <use xlink:href="#DejaVuSans-39" x="354.199219"/>
      </g>
     </g>
    </g>
    <g id="xtick_2">
     <g id="line2d_3">
      <path d="M 173.351372 567.74175 
L 173.351372 24.14175 
" clip-path="url(#p6d5b23ed6a)" style="fill: none; stroke: #ffffff; stroke-width: 0.8; stroke-linecap: square"/>
     </g>
     <g id="line2d_4">
      <g>
       <use xlink:href="#m24bc5d3e44" x="173.351372" y="567.74175" style="fill: #555555; stroke: #555555; stroke-width: 0.8"/>
      </g>
     </g>
     <g id="text_2">
      <!-- 2023-10 -->
      <g style="fill: #555555" transform="translate(160.53009 609.659567)rotate(-45)scale(0.1 -0.1)">
       <defs>
        <path id="DejaVuSans-31" d="M 794 531 
L 1825 531 
L 1825 4091 
L 703 3866 
L 703 4441 
L 1819 4666 
L 2450 4666 
L 2450 531 
L 3481 531 
L 3481 0 
L 794 0 
L 794 531 
z
" transform="scale(0.015625)"/>
       </defs>
       <use xlink:href="#DejaVuSans-32"/>
       <use xlink:href="#DejaVuSans-30" x="63.623047"/>
       <use xlink:href="#DejaVuSans-32" x="127.246094"/>
       <use xlink:href="#DejaVuSans-33" x="190.869141"/>
       <use xlink:href="#DejaVuSans-2d" x="254.492188"/>
       <use xlink:href="#DejaVuSans-31" x="290.576172"/>
       <use xlink:href="#DejaVuSans-30" x="354.199219"/>
      </g>
     </g>
    </g>
    <g id="xtick_3">
     <g id="line2d_5">
      <path d="M 253.317555 567.74175 
L 253.317555 24.14175 
" clip-path="url(#p6d5b23ed6a)" style="fill: none; stroke: #ffffff; stroke-width: 0.8; stroke-linecap: square"/>
     </g>
     <g id="line2d_6">
      <g>
       <use xlink:href="#m24bc5d3e44" x="253.317555" y="567.74175" style="fill: #555555; stroke: #555555; stroke-width: 0.8"/>
      </g>
     </g>
     <g id="text_3">
      <!-- 2023-11 -->
      <g style="fill: #555555" transform="translate(240.496273 609.659567)rotate(-45)scale(0.1 -0.1)">
       <use xlink:href="#DejaVuSans-32"/>
       <use xlink:href="#DejaVuSans-30" x="63.623047"/>
       <use xlink:href="#DejaVuSans-32" x="127.246094"/>
       <use xlink:href="#DejaVuSans-33" x="190.869141"/>
       <use xlink:href="#DejaVuSans-2d" x="254.492188"/>
       <use xlink:href="#DejaVuSans-31" x="290.576172"/>
       <use xlink:href="#DejaVuSans-31" x="354.199219"/>
      </g>
     </g>
    </g>
    <g id="xtick_4">
     <g id="line2d_7">
      <path d="M 330.704184 567.74175 
L 330.704184 24.14175 
" clip-path="url(#p6d5b23ed6a)" style="fill: none; stroke: #ffffff; stroke-width: 0.8; stroke-linecap: square"/>
     </g>
     <g id="line2d_8">
      <g>
       <use xlink:href="#m24bc5d3e44" x="330.704184" y="567.74175" style="fill: #555555; stroke: #555555; stroke-width: 0.8"/>
      </g>
     </g>
     <g id="text_4">
      <!-- 2023-12 -->
      <g style="fill: #555555" transform="translate(317.882901 609.659567)rotate(-45)scale(0.1 -0.1)">
       <use xlink:href="#DejaVuSans-32"/>
       <use xlink:href="#DejaVuSans-30" x="63.623047"/>
       <use xlink:href="#DejaVuSans-32" x="127.246094"/>
       <use xlink:href="#DejaVuSans-33" x="190.869141"/>
       <use xlink:href="#DejaVuSans-2d" x="254.492188"/>
       <use xlink:href="#DejaVuSans-31" x="290.576172"/>
       <use xlink:href="#DejaVuSans-32" x="354.199219"/>
      </g>
     </g>
    </g>
    <g id="xtick_5">
     <g id="line2d_9">
      <path d="M 410.670366 567.74175 
L 410.670366 24.14175 
" clip-path="url(#p6d5b23ed6a)" style="fill: none; stroke: #ffffff; stroke-width: 0.8; stroke-linecap: square"/>
     </g>
     <g id="line2d_10">
      <g>
       <use xlink:href="#m24bc5d3e44" x="410.670366" y="567.74175" style="fill: #555555; stroke: #555555; stroke-width: 0.8"/>
      </g>
     </g>
     <g id="text_5">
      <!-- 2024-01 -->
      <g style="fill: #555555" transform="translate(397.849084 609.659567)rotate(-45)scale(0.1 -0.1)">
       <defs>
        <path id="DejaVuSans-34" d="M 2419 4116 
L 825 1625 
L 2419 1625 
L 2419 4116 
z
M 2253 4666 
L 3047 4666 
L 3047 1625 
L 3713 1625 
L 3713 1100 
L 3047 1100 
L 3047 0 
L 2419 0 
L 2419 1100 
L 313 1100 
L 313 1709 
L 2253 4666 
z
" transform="scale(0.015625)"/>
       </defs>
       <use xlink:href="#DejaVuSans-32"/>
       <use xlink:href="#DejaVuSans-30" x="63.623047"/>
       <use xlink:href="#DejaVuSans-32" x="127.246094"/>
       <use xlink:href="#DejaVuSans-34" x="190.869141"/>
       <use xlink:href="#DejaVuSans-2d" x="254.492188"/>
       <use xlink:href="#DejaVuSans-30" x="290.576172"/>
       <use xlink:href="#DejaVuSans-31" x="354.199219"/>
      </g>
     </g>
    </g>
    <g id="xtick_6">
     <g id="line2d_11">
      <path d="M 490.636549 567.74175 
L 490.636549 24.14175 
" clip-path="url(#p6d5b23ed6a)" style="fill: none; stroke: #ffffff; stroke-width: 0.8; stroke-linecap: square"/>
     </g>
     <g id="line2d_12">
      <g>
       <use xlink:href="#m24bc5d3e44" x="490.636549" y="567.74175" style="fill: #555555; stroke: #555555; stroke-width: 0.8"/>
      </g>
     </g>
     <g id="text_6">
      <!-- 2024-02 -->
      <g style="fill: #555555" transform="translate(477.815267 609.659567)rotate(-45)scale(0.1 -0.1)">
       <use xlink:href="#DejaVuSans-32"/>
       <use xlink:href="#DejaVuSans-30" x="63.623047"/>
       <use xlink:href="#DejaVuSans-32" x="127.246094"/>
       <use xlink:href="#DejaVuSans-34" x="190.869141"/>
       <use xlink:href="#DejaVuSans-2d" x="254.492188"/>
       <use xlink:href="#DejaVuSans-30" x="290.576172"/>
       <use xlink:href="#DejaVuSans-32" x="354.199219"/>
      </g>
     </g>
    </g>
    <g id="xtick_7">
     <g id="line2d_13">
      <path d="M 565.443624 567.74175 
L 565.443624 24.14175 
" clip-path="url(#p6d5b23ed6a)" style="fill: none; stroke: #ffffff; stroke-width: 0.8; stroke-linecap: square"/>
     </g>
     <g id="line2d_14">
      <g>
       <use xlink:href="#m24bc5d3e44" x="565.443624" y="567.74175" style="fill: #555555; stroke: #555555; stroke-width: 0.8"/>
      </g>
     </g>
     <g id="text_7">
      <!-- 2024-03 -->
      <g style="fill: #555555" transform="translate(552.622341 609.659567)rotate(-45)scale(0.1 -0.1)">
       <use xlink:href="#DejaVuSans-32"/>
       <use xlink:href="#DejaVuSans-30" x="63.623047"/>
       <use xlink:href="#DejaVuSans-32" x="127.246094"/>
       <use xlink:href="#DejaVuSans-34" x="190.869141"/>
       <use xlink:href="#DejaVuSans-2d" x="254.492188"/>
       <use xlink:href="#DejaVuSans-30" x="290.576172"/>
       <use xlink:href="#DejaVuSans-33" x="354.199219"/>
      </g>
     </g>
    </g>
    <g id="xtick_8">
     <g id="line2d_15">
      <path d="M 645.409806 567.74175 
L 645.409806 24.14175 
" clip-path="url(#p6d5b23ed6a)" style="fill: none; stroke: #ffffff; stroke-width: 0.8; stroke-linecap: square"/>
     </g>
     <g id="line2d_16">
      <g>
       <use xlink:href="#m24bc5d3e44" x="645.409806" y="567.74175" style="fill: #555555; stroke: #555555; stroke-width: 0.8"/>
      </g>
     </g>
     <g id="text_8">
      <!-- 2024-04 -->
      <g style="fill: #555555" transform="translate(632.588524 609.659567)rotate(-45)scale(0.1 -0.1)">
       <use xlink:href="#DejaVuSans-32"/>
       <use xlink:href="#DejaVuSans-30" x="63.623047"/>
       <use xlink:href="#DejaVuSans-32" x="127.246094"/>
       <use xlink:href="#DejaVuSans-34" x="190.869141"/>
       <use xlink:href="#DejaVuSans-2d" x="254.492188"/>
       <use xlink:href="#DejaVuSans-30" x="290.576172"/>
       <use xlink:href="#DejaVuSans-34" x="354.199219"/>
      </g>
     </g>
    </g>
    <g id="xtick_9">
     <g id="line2d_17">
      <path d="M 722.796435 567.74175 
L 722.796435 24.14175 
" clip-path="url(#p6d5b23ed6a)" style="fill: none; stroke: #ffffff; stroke-width: 0.8; stroke-linecap: square"/>
     </g>
     <g id="line2d_18">
      <g>
       <use xlink:href="#m24bc5d3e44" x="722.796435" y="567.74175" style="fill: #555555; stroke: #555555; stroke-width: 0.8"/>
      </g>
     </g>
     <g id="text_9">
      <!-- 2024-05 -->
      <g style="fill: #555555" transform="translate(709.975153 609.659567)rotate(-45)scale(0.1 -0.1)">
       <defs>
        <path id="DejaVuSans-35" d="M 691 4666 
L 3169 4666 
L 3169 4134 
L 1269 4134 
L 1269 2991 
Q 1406 3038 1543 3061 
Q 1681 3084 1819 3084 
Q 2600 3084 3056 2656 
Q 3513 2228 3513 1497 
Q 3513 744 3044 326 
Q 2575 -91 1722 -91 
Q 1428 -91 1123 -41 
Q 819 9 494 109 
L 494 744 
Q 775 591 1075 516 
Q 1375 441 1709 441 
Q 2250 441 2565 725 
Q 2881 1009 2881 1497 
Q 2881 1984 2565 2268 
Q 2250 2553 1709 2553 
Q 1456 2553 1204 2497 
Q 953 2441 691 2322 
L 691 4666 
z
" transform="scale(0.015625)"/>
       </defs>
       <use xlink:href="#DejaVuSans-32"/>
       <use xlink:href="#DejaVuSans-30" x="63.623047"/>
       <use xlink:href="#DejaVuSans-32" x="127.246094"/>
       <use xlink:href="#DejaVuSans-34" x="190.869141"/>
       <use xlink:href="#DejaVuSans-2d" x="254.492188"/>
       <use xlink:href="#DejaVuSans-30" x="290.576172"/>
       <use xlink:href="#DejaVuSans-35" x="354.199219"/>
      </g>
     </g>
    </g>
    <g id="xtick_10">
     <g id="line2d_19">
      <path d="M 802.762618 567.74175 
L 802.762618 24.14175 
" clip-path="url(#p6d5b23ed6a)" style="fill: none; stroke: #ffffff; stroke-width: 0.8; stroke-linecap: square"/>
     </g>
     <g id="line2d_20">
      <g>
       <use xlink:href="#m24bc5d3e44" x="802.762618" y="567.74175" style="fill: #555555; stroke: #555555; stroke-width: 0.8"/>
      </g>
     </g>
     <g id="text_10">
      <!-- 2024-06 -->
      <g style="fill: #555555" transform="translate(789.941336 609.659567)rotate(-45)scale(0.1 -0.1)">
       <defs>
        <path id="DejaVuSans-36" d="M 2113 2584 
Q 1688 2584 1439 2293 
Q 1191 2003 1191 1497 
Q 1191 994 1439 701 
Q 1688 409 2113 409 
Q 2538 409 2786 701 
Q 3034 994 3034 1497 
Q 3034 2003 2786 2293 
Q 2538 2584 2113 2584 
z
M 3366 4563 
L 3366 3988 
Q 3128 4100 2886 4159 
Q 2644 4219 2406 4219 
Q 1781 4219 1451 3797 
Q 1122 3375 1075 2522 
Q 1259 2794 1537 2939 
Q 1816 3084 2150 3084 
Q 2853 3084 3261 2657 
Q 3669 2231 3669 1497 
Q 3669 778 3244 343 
Q 2819 -91 2113 -91 
Q 1303 -91 875 529 
Q 447 1150 447 2328 
Q 447 3434 972 4092 
Q 1497 4750 2381 4750 
Q 2619 4750 2861 4703 
Q 3103 4656 3366 4563 
z
" transform="scale(0.015625)"/>
       </defs>
       <use xlink:href="#DejaVuSans-32"/>
       <use xlink:href="#DejaVuSans-30" x="63.623047"/>
       <use xlink:href="#DejaVuSans-32" x="127.246094"/>
       <use xlink:href="#DejaVuSans-34" x="190.869141"/>
       <use xlink:href="#DejaVuSans-2d" x="254.492188"/>
       <use xlink:href="#DejaVuSans-30" x="290.576172"/>
       <use xlink:href="#DejaVuSans-36" x="354.199219"/>
      </g>
     </g>
    </g>
    <g id="xtick_11">
     <g id="line2d_21">
      <path d="M 880.149246 567.74175 
L 880.149246 24.14175 
" clip-path="url(#p6d5b23ed6a)" style="fill: none; stroke: #ffffff; stroke-width: 0.8; stroke-linecap: square"/>
     </g>
     <g id="line2d_22">
      <g>
       <use xlink:href="#m24bc5d3e44" x="880.149246" y="567.74175" style="fill: #555555; stroke: #555555; stroke-width: 0.8"/>
      </g>
     </g>
     <g id="text_11">
      <!-- 2024-07 -->
      <g style="fill: #555555" transform="translate(867.327964 609.659567)rotate(-45)scale(0.1 -0.1)">
       <defs>
        <path id="DejaVuSans-37" d="M 525 4666 
L 3525 4666 
L 3525 4397 
L 1831 0 
L 1172 0 
L 2766 4134 
L 525 4134 
L 525 4666 
z
" transform="scale(0.015625)"/>
       </defs>
       <use xlink:href="#DejaVuSans-32"/>
       <use xlink:href="#DejaVuSans-30" x="63.623047"/>
       <use xlink:href="#DejaVuSans-32" x="127.246094"/>
       <use xlink:href="#DejaVuSans-34" x="190.869141"/>
       <use xlink:href="#DejaVuSans-2d" x="254.492188"/>
       <use xlink:href="#DejaVuSans-30" x="290.576172"/>
       <use xlink:href="#DejaVuSans-37" x="354.199219"/>
      </g>
     </g>
    </g>
    <g id="text_12">
     <!-- Date -->
     <g style="fill: #555555" transform="translate(491.772938 624.248253)scale(0.12 -0.12)">
      <defs>
       <path id="DejaVuSans-44" d="M 1259 4147 
L 1259 519 
L 2022 519 
Q 2988 519 3436 956 
Q 3884 1394 3884 2338 
Q 3884 3275 3436 3711 
Q 2988 4147 2022 4147 
L 1259 4147 
z
M 628 4666 
L 1925 4666 
Q 3281 4666 3915 4102 
Q 4550 3538 4550 2338 
Q 4550 1131 3912 565 
Q 3275 0 1925 0 
L 628 0 
L 628 4666 
z
" transform="scale(0.015625)"/>
       <path id="DejaVuSans-61" d="M 2194 1759 
Q 1497 1759 1228 1600 
Q 959 1441 959 1056 
Q 959 750 1161 570 
Q 1363 391 1709 391 
Q 2188 391 2477 730 
Q 2766 1069 2766 1631 
L 2766 1759 
L 2194 1759 
z
M 3341 1997 
L 3341 0 
L 2766 0 
L 2766 531 
Q 2569 213 2275 61 
Q 1981 -91 1556 -91 
Q 1019 -91 701 211 
Q 384 513 384 1019 
Q 384 1609 779 1909 
Q 1175 2209 1959 2209 
L 2766 2209 
L 2766 2266 
Q 2766 2663 2505 2880 
Q 2244 3097 1772 3097 
Q 1472 3097 1187 3025 
Q 903 2953 641 2809 
L 641 3341 
Q 956 3463 1253 3523 
Q 1550 3584 1831 3584 
Q 2591 3584 2966 3190 
Q 3341 2797 3341 1997 
z
" transform="scale(0.015625)"/>
       <path id="DejaVuSans-74" d="M 1172 4494 
L 1172 3500 
L 2356 3500 
L 2356 3053 
L 1172 3053 
L 1172 1153 
Q 1172 725 1289 603 
Q 1406 481 1766 481 
L 2356 481 
L 2356 0 
L 1766 0 
Q 1100 0 847 248 
Q 594 497 594 1153 
L 594 3053 
L 172 3053 
L 172 3500 
L 594 3500 
L 594 4494 
L 1172 4494 
z
" transform="scale(0.015625)"/>
       <path id="DejaVuSans-65" d="M 3597 1894 
L 3597 1613 
L 953 1613 
Q 991 1019 1311 708 
Q 1631 397 2203 397 
Q 2534 397 2845 478 
Q 3156 559 3463 722 
L 3463 178 
Q 3153 47 2828 -22 
Q 2503 -91 2169 -91 
Q 1331 -91 842 396 
Q 353 884 353 1716 
Q 353 2575 817 3079 
Q 1281 3584 2069 3584 
Q 2775 3584 3186 3129 
Q 3597 2675 3597 1894 
z
M 3022 2063 
Q 3016 2534 2758 2815 
Q 2500 3097 2075 3097 
Q 1594 3097 1305 2825 
Q 1016 2553 972 2059 
L 3022 2063 
z
" transform="scale(0.015625)"/>
      </defs>
      <use xlink:href="#DejaVuSans-44"/>
      <use xlink:href="#DejaVuSans-61" x="77.001953"/>
      <use xlink:href="#DejaVuSans-74" x="138.28125"/>
      <use xlink:href="#DejaVuSans-65" x="177.490234"/>
     </g>
    </g>
   </g>
   <g id="matplotlib.axis_2">
    <g id="ytick_1">
     <g id="line2d_23">
      <path d="M 54.691875 567.74175 
L 957.535875 567.74175 
" clip-path="url(#p6d5b23ed6a)" style="fill: none; stroke: #ffffff; stroke-width: 0.8; stroke-linecap: square"/>
     </g>
     <g id="line2d_24">
      <defs>
       <path id="m7d551e1f7e" d="M 0 0 
L -3.5 0 
" style="stroke: #555555; stroke-width: 0.8"/>
      </defs>
      <g>
       <use xlink:href="#m7d551e1f7e" x="54.691875" y="567.74175" style="fill: #555555; stroke: #555555; stroke-width: 0.8"/>
      </g>
     </g>
     <g id="text_13">
      <!-- 0k -->
      <g style="fill: #555555" transform="translate(35.53875 571.540969)scale(0.1 -0.1)">
       <defs>
        <path id="DejaVuSans-6b" d="M 581 4863 
L 1159 4863 
L 1159 1991 
L 2875 3500 
L 3609 3500 
L 1753 1863 
L 3688 0 
L 2938 0 
L 1159 1709 
L 1159 0 
L 581 0 
L 581 4863 
z
" transform="scale(0.015625)"/>
       </defs>
       <use xlink:href="#DejaVuSans-30"/>
       <use xlink:href="#DejaVuSans-6b" x="63.623047"/>
      </g>
     </g>
    </g>
    <g id="ytick_2">
     <g id="line2d_25">
      <path d="M 54.691875 493.337381 
L 957.535875 493.337381 
" clip-path="url(#p6d5b23ed6a)" style="fill: none; stroke: #ffffff; stroke-width: 0.8; stroke-linecap: square"/>
     </g>
     <g id="line2d_26">
      <g>
       <use xlink:href="#m7d551e1f7e" x="54.691875" y="493.337381" style="fill: #555555; stroke: #555555; stroke-width: 0.8"/>
      </g>
     </g>
     <g id="text_14">
      <!-- 50k -->
      <g style="fill: #555555" transform="translate(29.17625 497.136599)scale(0.1 -0.1)">
       <use xlink:href="#DejaVuSans-35"/>
       <use xlink:href="#DejaVuSans-30" x="63.623047"/>
       <use xlink:href="#DejaVuSans-6b" x="127.246094"/>
      </g>
     </g>
    </g>
    <g id="ytick_3">
     <g id="line2d_27">
      <path d="M 54.691875 418.933011 
L 957.535875 418.933011 
" clip-path="url(#p6d5b23ed6a)" style="fill: none; stroke: #ffffff; stroke-width: 0.8; stroke-linecap: square"/>
     </g>
     <g id="line2d_28">
      <g>
       <use xlink:href="#m7d551e1f7e" x="54.691875" y="418.933011" style="fill: #555555; stroke: #555555; stroke-width: 0.8"/>
      </g>
     </g>
     <g id="text_15">
      <!-- 100k -->
      <g style="fill: #555555" transform="translate(22.81375 422.73223)scale(0.1 -0.1)">
       <use xlink:href="#DejaVuSans-31"/>
       <use xlink:href="#DejaVuSans-30" x="63.623047"/>
       <use xlink:href="#DejaVuSans-30" x="127.246094"/>
       <use xlink:href="#DejaVuSans-6b" x="190.869141"/>
      </g>
     </g>
    </g>
    <g id="ytick_4">
     <g id="line2d_29">
      <path d="M 54.691875 344.528642 
L 957.535875 344.528642 
" clip-path="url(#p6d5b23ed6a)" style="fill: none; stroke: #ffffff; stroke-width: 0.8; stroke-linecap: square"/>
     </g>
     <g id="line2d_30">
      <g>
       <use xlink:href="#m7d551e1f7e" x="54.691875" y="344.528642" style="fill: #555555; stroke: #555555; stroke-width: 0.8"/>
      </g>
     </g>
     <g id="text_16">
      <!-- 150k -->
      <g style="fill: #555555" transform="translate(22.81375 348.32786)scale(0.1 -0.1)">
       <use xlink:href="#DejaVuSans-31"/>
       <use xlink:href="#DejaVuSans-35" x="63.623047"/>
       <use xlink:href="#DejaVuSans-30" x="127.246094"/>
       <use xlink:href="#DejaVuSans-6b" x="190.869141"/>
      </g>
     </g>
    </g>
    <g id="ytick_5">
     <g id="line2d_31">
      <path d="M 54.691875 270.124272 
L 957.535875 270.124272 
" clip-path="url(#p6d5b23ed6a)" style="fill: none; stroke: #ffffff; stroke-width: 0.8; stroke-linecap: square"/>
     </g>
     <g id="line2d_32">
      <g>
       <use xlink:href="#m7d551e1f7e" x="54.691875" y="270.124272" style="fill: #555555; stroke: #555555; stroke-width: 0.8"/>
      </g>
     </g>
     <g id="text_17">
      <!-- 200k -->
      <g style="fill: #555555" transform="translate(22.81375 273.923491)scale(0.1 -0.1)">
       <use xlink:href="#DejaVuSans-32"/>
       <use xlink:href="#DejaVuSans-30" x="63.623047"/>
       <use xlink:href="#DejaVuSans-30" x="127.246094"/>
       <use xlink:href="#DejaVuSans-6b" x="190.869141"/>
      </g>
     </g>
    </g>
    <g id="ytick_6">
     <g id="line2d_33">
      <path d="M 54.691875 195.719903 
L 957.535875 195.719903 
" clip-path="url(#p6d5b23ed6a)" style="fill: none; stroke: #ffffff; stroke-width: 0.8; stroke-linecap: square"/>
     </g>
     <g id="line2d_34">
      <g>
       <use xlink:href="#m7d551e1f7e" x="54.691875" y="195.719903" style="fill: #555555; stroke: #555555; stroke-width: 0.8"/>
      </g>
     </g>
     <g id="text_18">
      <!-- 250k -->
      <g style="fill: #555555" transform="translate(22.81375 199.519122)scale(0.1 -0.1)">
       <use xlink:href="#DejaVuSans-32"/>
       <use xlink:href="#DejaVuSans-35" x="63.623047"/>
       <use xlink:href="#DejaVuSans-30" x="127.246094"/>
       <use xlink:href="#DejaVuSans-6b" x="190.869141"/>
      </g>
     </g>
    </g>
    <g id="ytick_7">
     <g id="line2d_35">
      <path d="M 54.691875 121.315533 
L 957.535875 121.315533 
" clip-path="url(#p6d5b23ed6a)" style="fill: none; stroke: #ffffff; stroke-width: 0.8; stroke-linecap: square"/>
     </g>
     <g id="line2d_36">
      <g>
       <use xlink:href="#m7d551e1f7e" x="54.691875" y="121.315533" style="fill: #555555; stroke: #555555; stroke-width: 0.8"/>
      </g>
     </g>
     <g id="text_19">
      <!-- 300k -->
      <g style="fill: #555555" transform="translate(22.81375 125.114752)scale(0.1 -0.1)">
       <use xlink:href="#DejaVuSans-33"/>
       <use xlink:href="#DejaVuSans-30" x="63.623047"/>
       <use xlink:href="#DejaVuSans-30" x="127.246094"/>
       <use xlink:href="#DejaVuSans-6b" x="190.869141"/>
      </g>
     </g>
    </g>
    <g id="ytick_8">
     <g id="line2d_37">
      <path d="M 54.691875 46.911164 
L 957.535875 46.911164 
" clip-path="url(#p6d5b23ed6a)" style="fill: none; stroke: #ffffff; stroke-width: 0.8; stroke-linecap: square"/>
     </g>
     <g id="line2d_38">
      <g>
       <use xlink:href="#m7d551e1f7e" x="54.691875" y="46.911164" style="fill: #555555; stroke: #555555; stroke-width: 0.8"/>
      </g>
     </g>
     <g id="text_20">
      <!-- 350k -->
      <g style="fill: #555555" transform="translate(22.81375 50.710383)scale(0.1 -0.1)">
       <use xlink:href="#DejaVuSans-33"/>
       <use xlink:href="#DejaVuSans-35" x="63.623047"/>
       <use xlink:href="#DejaVuSans-30" x="127.246094"/>
       <use xlink:href="#DejaVuSans-6b" x="190.869141"/>
      </g>
     </g>
    </g>
    <g id="text_21">
     <!-- Instances -->
     <g style="fill: #555555" transform="translate(16.318125 324.588)rotate(-90)scale(0.12 -0.12)">
      <defs>
       <path id="DejaVuSans-49" d="M 628 4666 
L 1259 4666 
L 1259 0 
L 628 0 
L 628 4666 
z
" transform="scale(0.015625)"/>
       <path id="DejaVuSans-6e" d="M 3513 2113 
L 3513 0 
L 2938 0 
L 2938 2094 
Q 2938 2591 2744 2837 
Q 2550 3084 2163 3084 
Q 1697 3084 1428 2787 
Q 1159 2491 1159 1978 
L 1159 0 
L 581 0 
L 581 3500 
L 1159 3500 
L 1159 2956 
Q 1366 3272 1645 3428 
Q 1925 3584 2291 3584 
Q 2894 3584 3203 3211 
Q 3513 2838 3513 2113 
z
" transform="scale(0.015625)"/>
       <path id="DejaVuSans-73" d="M 2834 3397 
L 2834 2853 
Q 2591 2978 2328 3040 
Q 2066 3103 1784 3103 
Q 1356 3103 1142 2972 
Q 928 2841 928 2578 
Q 928 2378 1081 2264 
Q 1234 2150 1697 2047 
L 1894 2003 
Q 2506 1872 2764 1633 
Q 3022 1394 3022 966 
Q 3022 478 2636 193 
Q 2250 -91 1575 -91 
Q 1294 -91 989 -36 
Q 684 19 347 128 
L 347 722 
Q 666 556 975 473 
Q 1284 391 1588 391 
Q 1994 391 2212 530 
Q 2431 669 2431 922 
Q 2431 1156 2273 1281 
Q 2116 1406 1581 1522 
L 1381 1569 
Q 847 1681 609 1914 
Q 372 2147 372 2553 
Q 372 3047 722 3315 
Q 1072 3584 1716 3584 
Q 2034 3584 2315 3537 
Q 2597 3491 2834 3397 
z
" transform="scale(0.015625)"/>
       <path id="DejaVuSans-63" d="M 3122 3366 
L 3122 2828 
Q 2878 2963 2633 3030 
Q 2388 3097 2138 3097 
Q 1578 3097 1268 2742 
Q 959 2388 959 1747 
Q 959 1106 1268 751 
Q 1578 397 2138 397 
Q 2388 397 2633 464 
Q 2878 531 3122 666 
L 3122 134 
Q 2881 22 2623 -34 
Q 2366 -91 2075 -91 
Q 1284 -91 818 406 
Q 353 903 353 1747 
Q 353 2603 823 3093 
Q 1294 3584 2113 3584 
Q 2378 3584 2631 3529 
Q 2884 3475 3122 3366 
z
" transform="scale(0.015625)"/>
      </defs>
      <use xlink:href="#DejaVuSans-49"/>
      <use xlink:href="#DejaVuSans-6e" x="29.492188"/>
      <use xlink:href="#DejaVuSans-73" x="92.871094"/>
      <use xlink:href="#DejaVuSans-74" x="144.970703"/>
      <use xlink:href="#DejaVuSans-61" x="184.179688"/>
      <use xlink:href="#DejaVuSans-6e" x="245.458984"/>
      <use xlink:href="#DejaVuSans-63" x="308.837891"/>
      <use xlink:href="#DejaVuSans-65" x="363.818359"/>
      <use xlink:href="#DejaVuSans-73" x="425.341797"/>
     </g>
    </g>
   </g>
   <g id="line2d_39">
    <path d="M 54.691875 442.291758 
L 63.811511 441.453684 
L 72.931148 440.61561 
L 82.050784 439.777535 
L 91.17042 438.939461 
L 100.290057 438.101387 
L 109.409693 437.263313 
L 118.52933 436.425239 
L 127.648966 435.587164 
L 136.768602 434.74909 
L 145.888239 433.911016 
L 155.007875 433.072942 
L 164.127511 432.234867 
L 173.247148 431.396793 
L 182.366784 430.558719 
L 191.48642 429.720645 
L 200.606057 428.88257 
L 209.725693 428.044496 
L 218.84533 427.206422 
L 227.964966 426.368348 
L 237.084602 425.530273 
L 246.204239 424.692199 
L 255.323875 423.854125 
L 264.443511 423.016051 
L 273.563148 422.177976 
L 282.682784 421.339902 
L 291.80242 420.501828 
L 300.922057 419.663754 
L 310.041693 418.82568 
L 319.16133 417.987605 
L 328.280966 417.149531 
L 337.400602 416.311457 
L 346.520239 415.473383 
L 355.639875 414.635308 
L 364.759511 413.797234 
L 373.879148 412.95916 
L 382.998784 412.121086 
L 392.11842 411.283011 
L 401.238057 410.444937 
L 410.357693 409.606863 
L 419.47733 408.768789 
L 428.596966 407.930714 
L 437.716602 407.09264 
L 446.836239 406.254566 
L 455.955875 405.416492 
L 465.075511 404.578418 
L 474.195148 403.740343 
L 483.314784 402.902269 
L 492.43442 402.064195 
L 501.554057 401.226121 
L 510.673693 400.388046 
L 519.79333 399.549972 
L 528.912966 398.711898 
L 538.032602 397.873824 
L 547.152239 397.035749 
L 556.271875 396.197675 
L 565.391511 395.359601 
L 574.511148 394.521527 
L 583.630784 393.683452 
L 592.75042 392.845378 
L 601.870057 392.007304 
L 610.989693 391.16923 
L 620.10933 390.331155 
L 629.228966 389.493081 
L 638.348602 388.655007 
L 647.468239 387.816933 
L 656.587875 386.978859 
L 665.707511 386.140784 
L 674.827148 385.30271 
L 683.946784 384.464636 
L 693.06642 383.626562 
L 702.186057 382.788487 
L 711.305693 381.950413 
L 720.42533 381.112339 
L 729.544966 380.274265 
L 738.664602 379.43619 
L 747.784239 378.598116 
L 756.903875 377.760042 
L 766.023511 376.921968 
L 775.143148 376.083893 
L 784.262784 375.245819 
L 793.38242 374.407745 
L 802.502057 373.569671 
L 811.621693 372.731597 
L 820.74133 371.893522 
L 829.860966 371.055448 
L 838.980602 370.217374 
L 848.100239 369.3793 
L 857.219875 368.541225 
L 866.339511 367.703151 
L 875.459148 366.865077 
L 884.578784 366.027003 
L 893.69842 365.188928 
L 902.818057 364.350854 
L 911.937693 363.51278 
L 921.05733 362.674706 
L 930.176966 361.836631 
L 939.296602 360.998557 
L 948.416239 360.160483 
L 957.535875 359.322409 
" clip-path="url(#p6d5b23ed6a)" style="fill: none; stroke-dasharray: 1.5,2.475; stroke-dashoffset: 0; stroke: #4ac1fa; stroke-width: 1.5"/>
   </g>
   <g id="line2d_40">
    <path d="M 54.691875 528.611806 
L 63.811511 527.656111 
L 72.931148 526.700417 
L 82.050784 525.744722 
L 91.17042 524.789027 
L 100.290057 523.833332 
L 109.409693 522.877638 
L 118.52933 521.921943 
L 127.648966 520.966248 
L 136.768602 520.010553 
L 145.888239 519.054858 
L 155.007875 518.099164 
L 164.127511 517.143469 
L 173.247148 516.187774 
L 182.366784 515.232079 
L 191.48642 514.276384 
L 200.606057 513.32069 
L 209.725693 512.364995 
L 218.84533 511.4093 
L 227.964966 510.453605 
L 237.084602 509.497911 
L 246.204239 508.542216 
L 255.323875 507.586521 
L 264.443511 506.630826 
L 273.563148 505.675131 
L 282.682784 504.719437 
L 291.80242 503.763742 
L 300.922057 502.808047 
L 310.041693 501.852352 
L 319.16133 500.896657 
L 328.280966 499.940963 
L 337.400602 498.985268 
L 346.520239 498.029573 
L 355.639875 497.073878 
L 364.759511 496.118184 
L 373.879148 495.162489 
L 382.998784 494.206794 
L 392.11842 493.251099 
L 401.238057 492.295404 
L 410.357693 491.33971 
L 419.47733 490.384015 
L 428.596966 489.42832 
L 437.716602 488.472625 
L 446.836239 487.51693 
L 455.955875 486.561236 
L 465.075511 485.605541 
L 474.195148 484.649846 
L 483.314784 483.694151 
L 492.43442 482.738457 
L 501.554057 481.782762 
L 510.673693 480.827067 
L 519.79333 479.871372 
L 528.912966 478.915677 
L 538.032602 477.959983 
L 547.152239 477.004288 
L 556.271875 476.048593 
L 565.391511 475.092898 
L 574.511148 474.137203 
L 583.630784 473.181509 
L 592.75042 472.225814 
L 601.870057 471.270119 
L 610.989693 470.314424 
L 620.10933 469.35873 
L 629.228966 468.403035 
L 638.348602 467.44734 
L 647.468239 466.491645 
L 656.587875 465.53595 
L 665.707511 464.580256 
L 674.827148 463.624561 
L 683.946784 462.668866 
L 693.06642 461.713171 
L 702.186057 460.757476 
L 711.305693 459.801782 
L 720.42533 458.846087 
L 729.544966 457.890392 
L 738.664602 456.934697 
L 747.784239 455.979003 
L 756.903875 455.023308 
L 766.023511 454.067613 
L 775.143148 453.111918 
L 784.262784 452.156223 
L 793.38242 451.200529 
L 802.502057 450.244834 
L 811.621693 449.289139 
L 820.74133 448.333444 
L 829.860966 447.377749 
L 838.980602 446.422055 
L 848.100239 445.46636 
L 857.219875 444.510665 
L 866.339511 443.55497 
L 875.459148 442.599276 
L 884.578784 441.643581 
L 893.69842 440.687886 
L 902.818057 439.732191 
L 911.937693 438.776496 
L 921.05733 437.820802 
L 930.176966 436.865107 
L 939.296602 435.909412 
L 948.416239 434.953717 
L 957.535875 433.998022 
" clip-path="url(#p6d5b23ed6a)" style="fill: none; stroke-dasharray: 1.5,2.475; stroke-dashoffset: 0; stroke: #e9a942; stroke-width: 1.5"/>
   </g>
   <g id="line2d_41">
    <path d="M 54.691875 470.041232 
L 63.811511 469.968608 
L 72.931148 469.895984 
L 82.050784 469.82336 
L 91.17042 469.750736 
L 100.290057 469.678112 
L 109.409693 469.605488 
L 118.52933 469.532864 
L 127.648966 469.46024 
L 136.768602 469.387616 
L 145.888239 469.314992 
L 155.007875 469.242368 
L 164.127511 469.169744 
L 173.247148 469.09712 
L 182.366784 469.024496 
L 191.48642 468.951872 
L 200.606057 468.879248 
L 209.725693 468.806624 
L 218.84533 468.734 
L 227.964966 468.661376 
L 237.084602 468.588752 
L 246.204239 468.516128 
L 255.323875 468.443504 
L 264.443511 468.37088 
L 273.563148 468.298256 
L 282.682784 468.225632 
L 291.80242 468.153008 
L 300.922057 468.080384 
L 310.041693 468.00776 
L 319.16133 467.935136 
L 328.280966 467.862512 
L 337.400602 467.789888 
L 346.520239 467.717264 
L 355.639875 467.64464 
L 364.759511 467.572017 
L 373.879148 467.499393 
L 382.998784 467.426769 
L 392.11842 467.354145 
L 401.238057 467.281521 
L 410.357693 467.208897 
L 419.47733 467.136273 
L 428.596966 467.063649 
L 437.716602 466.991025 
L 446.836239 466.918401 
L 455.955875 466.845777 
L 465.075511 466.773153 
L 474.195148 466.700529 
L 483.314784 466.627905 
L 492.43442 466.555281 
L 501.554057 466.482657 
L 510.673693 466.410033 
L 519.79333 466.337409 
L 528.912966 466.264785 
L 538.032602 466.192161 
L 547.152239 466.119537 
L 556.271875 466.046913 
L 565.391511 465.974289 
L 574.511148 465.901665 
L 583.630784 465.829041 
L 592.75042 465.756417 
L 601.870057 465.683793 
L 610.989693 465.611169 
L 620.10933 465.538545 
L 629.228966 465.465921 
L 638.348602 465.393297 
L 647.468239 465.320673 
L 656.587875 465.248049 
L 665.707511 465.175425 
L 674.827148 465.102801 
L 683.946784 465.030177 
L 693.06642 464.957553 
L 702.186057 464.884929 
L 711.305693 464.812305 
L 720.42533 464.739681 
L 729.544966 464.667057 
L 738.664602 464.594433 
L 747.784239 464.521809 
L 756.903875 464.449185 
L 766.023511 464.376561 
L 775.143148 464.303937 
L 784.262784 464.231313 
L 793.38242 464.158689 
L 802.502057 464.086065 
L 811.621693 464.013441 
L 820.74133 463.940817 
L 829.860966 463.868193 
L 838.980602 463.795569 
L 848.100239 463.722945 
L 857.219875 463.650321 
L 866.339511 463.577697 
L 875.459148 463.505073 
L 884.578784 463.432449 
L 893.69842 463.359825 
L 902.818057 463.287201 
L 911.937693 463.214577 
L 921.05733 463.141953 
L 930.176966 463.069329 
L 939.296602 462.996705 
L 948.416239 462.924082 
L 957.535875 462.851458 
" clip-path="url(#p6d5b23ed6a)" style="fill: none; stroke-dasharray: 1.5,2.475; stroke-dashoffset: 0; stroke: #9a5689; stroke-width: 1.5"/>
   </g>
   <g id="line2d_42">
    <path d="M 54.691875 510.908834 
L 63.811511 510.614827 
L 72.931148 510.320819 
L 82.050784 510.026811 
L 91.17042 509.732804 
L 100.290057 509.438796 
L 109.409693 509.144788 
L 118.52933 508.850781 
L 127.648966 508.556773 
L 136.768602 508.262765 
L 145.888239 507.968758 
L 155.007875 507.67475 
L 164.127511 507.380743 
L 173.247148 507.086735 
L 182.366784 506.792727 
L 191.48642 506.49872 
L 200.606057 506.204712 
L 209.725693 505.910704 
L 218.84533 505.616697 
L 227.964966 505.322689 
L 237.084602 505.028681 
L 246.204239 504.734674 
L 255.323875 504.440666 
L 264.443511 504.146658 
L 273.563148 503.852651 
L 282.682784 503.558643 
L 291.80242 503.264636 
L 300.922057 502.970628 
L 310.041693 502.67662 
L 319.16133 502.382613 
L 328.280966 502.088605 
L 337.400602 501.794597 
L 346.520239 501.50059 
L 355.639875 501.206582 
L 364.759511 500.912574 
L 373.879148 500.618567 
L 382.998784 500.324559 
L 392.11842 500.030551 
L 401.238057 499.736544 
L 410.357693 499.442536 
L 419.47733 499.148529 
L 428.596966 498.854521 
L 437.716602 498.560513 
L 446.836239 498.266506 
L 455.955875 497.972498 
L 465.075511 497.67849 
L 474.195148 497.384483 
L 483.314784 497.090475 
L 492.43442 496.796467 
L 501.554057 496.50246 
L 510.673693 496.208452 
L 519.79333 495.914444 
L 528.912966 495.620437 
L 538.032602 495.326429 
L 547.152239 495.032422 
L 556.271875 494.738414 
L 565.391511 494.444406 
L 574.511148 494.150399 
L 583.630784 493.856391 
L 592.75042 493.562383 
L 601.870057 493.268376 
L 610.989693 492.974368 
L 620.10933 492.68036 
L 629.228966 492.386353 
L 638.348602 492.092345 
L 647.468239 491.798337 
L 656.587875 491.50433 
L 665.707511 491.210322 
L 674.827148 490.916315 
L 683.946784 490.622307 
L 693.06642 490.328299 
L 702.186057 490.034292 
L 711.305693 489.740284 
L 720.42533 489.446276 
L 729.544966 489.152269 
L 738.664602 488.858261 
L 747.784239 488.564253 
L 756.903875 488.270246 
L 766.023511 487.976238 
L 775.143148 487.68223 
L 784.262784 487.388223 
L 793.38242 487.094215 
L 802.502057 486.800208 
L 811.621693 486.5062 
L 820.74133 486.212192 
L 829.860966 485.918185 
L 838.980602 485.624177 
L 848.100239 485.330169 
L 857.219875 485.036162 
L 866.339511 484.742154 
L 875.459148 484.448146 
L 884.578784 484.154139 
L 893.69842 483.860131 
L 902.818057 483.566123 
L 911.937693 483.272116 
L 921.05733 482.978108 
L 930.176966 482.684101 
L 939.296602 482.390093 
L 948.416239 482.096085 
L 957.535875 481.802078 
" clip-path="url(#p6d5b23ed6a)" style="fill: none; stroke-dasharray: 1.5,2.475; stroke-dashoffset: 0; stroke: #be503b; stroke-width: 1.5"/>
   </g>
   <g id="line2d_43">
    <path d="M 54.691875 435.785145 
L 63.811511 434.655627 
L 72.931148 433.526109 
L 82.050784 432.396591 
L 91.17042 431.267073 
L 100.290057 430.137555 
L 109.409693 429.008037 
L 118.52933 427.878519 
L 127.648966 426.749 
L 136.768602 425.619482 
L 145.888239 424.489964 
L 155.007875 423.360446 
L 164.127511 422.230928 
L 173.247148 421.10141 
L 182.366784 419.971892 
L 191.48642 418.842374 
L 200.606057 417.712856 
L 209.725693 416.583338 
L 218.84533 415.45382 
L 227.964966 414.324301 
L 237.084602 413.194783 
L 246.204239 412.065265 
L 255.323875 410.935747 
L 264.443511 409.806229 
L 273.563148 408.676711 
L 282.682784 407.547193 
L 291.80242 406.417675 
L 300.922057 405.288157 
L 310.041693 404.158639 
L 319.16133 403.029121 
L 328.280966 401.899602 
L 337.400602 400.770084 
L 346.520239 399.640566 
L 355.639875 398.511048 
L 364.759511 397.38153 
L 373.879148 396.252012 
L 382.998784 395.122494 
L 392.11842 393.992976 
L 401.238057 392.863458 
L 410.357693 391.73394 
L 419.47733 390.604422 
L 428.596966 389.474903 
L 437.716602 388.345385 
L 446.836239 387.215867 
L 455.955875 386.086349 
L 465.075511 384.956831 
L 474.195148 383.827313 
L 483.314784 382.697795 
L 492.43442 381.568277 
L 501.554057 380.438759 
L 510.673693 379.309241 
L 519.79333 378.179723 
L 528.912966 377.050204 
L 538.032602 375.920686 
L 547.152239 374.791168 
L 556.271875 373.66165 
L 565.391511 372.532132 
L 574.511148 371.402614 
L 583.630784 370.273096 
L 592.75042 369.143578 
L 601.870057 368.01406 
L 610.989693 366.884542 
L 620.10933 365.755024 
L 629.228966 364.625505 
L 638.348602 363.495987 
L 647.468239 362.366469 
L 656.587875 361.236951 
L 665.707511 360.107433 
L 674.827148 358.977915 
L 683.946784 357.848397 
L 693.06642 356.718879 
L 702.186057 355.589361 
L 711.305693 354.459843 
L 720.42533 353.330325 
L 729.544966 352.200806 
L 738.664602 351.071288 
L 747.784239 349.94177 
L 756.903875 348.812252 
L 766.023511 347.682734 
L 775.143148 346.553216 
L 784.262784 345.423698 
L 793.38242 344.29418 
L 802.502057 343.164662 
L 811.621693 342.035144 
L 820.74133 340.905626 
L 829.860966 339.776108 
L 838.980602 338.646589 
L 848.100239 337.517071 
L 857.219875 336.387553 
L 866.339511 335.258035 
L 875.459148 334.128517 
L 884.578784 332.998999 
L 893.69842 331.869481 
L 902.818057 330.739963 
L 911.937693 329.610445 
L 921.05733 328.480927 
L 930.176966 327.351409 
L 939.296602 326.22189 
L 948.416239 325.092372 
L 957.535875 323.962854 
" clip-path="url(#p6d5b23ed6a)" style="fill: none; stroke-dasharray: 1.5,2.475; stroke-dashoffset: 0; stroke: #e2321d; stroke-width: 1.5"/>
   </g>
   <g id="line2d_44">
    <path d="M 54.691875 348.523491 
L 63.811511 346.265839 
L 72.931148 344.008187 
L 82.050784 341.750534 
L 91.17042 339.492882 
L 100.290057 337.235229 
L 109.409693 334.977577 
L 118.52933 332.719925 
L 127.648966 330.462272 
L 136.768602 328.20462 
L 145.888239 325.946967 
L 155.007875 323.689315 
L 164.127511 321.431663 
L 173.247148 319.17401 
L 182.366784 316.916358 
L 191.48642 314.658705 
L 200.606057 312.401053 
L 209.725693 310.143401 
L 218.84533 307.885748 
L 227.964966 305.628096 
L 237.084602 303.370443 
L 246.204239 301.112791 
L 255.323875 298.855139 
L 264.443511 296.597486 
L 273.563148 294.339834 
L 282.682784 292.082181 
L 291.80242 289.824529 
L 300.922057 287.566877 
L 310.041693 285.309224 
L 319.16133 283.051572 
L 328.280966 280.793919 
L 337.400602 278.536267 
L 346.520239 276.278615 
L 355.639875 274.020962 
L 364.759511 271.76331 
L 373.879148 269.505658 
L 382.998784 267.248005 
L 392.11842 264.990353 
L 401.238057 262.7327 
L 410.357693 260.475048 
L 419.47733 258.217396 
L 428.596966 255.959743 
L 437.716602 253.702091 
L 446.836239 251.444438 
L 455.955875 249.186786 
L 465.075511 246.929134 
L 474.195148 244.671481 
L 483.314784 242.413829 
L 492.43442 240.156176 
L 501.554057 237.898524 
L 510.673693 235.640872 
L 519.79333 233.383219 
L 528.912966 231.125567 
L 538.032602 228.867914 
L 547.152239 226.610262 
L 556.271875 224.35261 
L 565.391511 222.094957 
L 574.511148 219.837305 
L 583.630784 217.579652 
L 592.75042 215.322 
L 601.870057 213.064348 
L 610.989693 210.806695 
L 620.10933 208.549043 
L 629.228966 206.29139 
L 638.348602 204.033738 
L 647.468239 201.776086 
L 656.587875 199.518433 
L 665.707511 197.260781 
L 674.827148 195.003128 
L 683.946784 192.745476 
L 693.06642 190.487824 
L 702.186057 188.230171 
L 711.305693 185.972519 
L 720.42533 183.714867 
L 729.544966 181.457214 
L 738.664602 179.199562 
L 747.784239 176.941909 
L 756.903875 174.684257 
L 766.023511 172.426605 
L 775.143148 170.168952 
L 784.262784 167.9113 
L 793.38242 165.653647 
L 802.502057 163.395995 
L 811.621693 161.138343 
L 820.74133 158.88069 
L 829.860966 156.623038 
L 838.980602 154.365385 
L 848.100239 152.107733 
L 857.219875 149.850081 
L 866.339511 147.592428 
L 875.459148 145.334776 
L 884.578784 143.077123 
L 893.69842 140.819471 
L 902.818057 138.561819 
L 911.937693 136.304166 
L 921.05733 134.046514 
L 930.176966 131.788861 
L 939.296602 129.531209 
L 948.416239 127.273557 
L 957.535875 125.015904 
" clip-path="url(#p6d5b23ed6a)" style="fill: none; stroke-dasharray: 1.5,2.475; stroke-dashoffset: 0; stroke: #48b585; stroke-width: 1.5"/>
   </g>
   <g id="line2d_45">
    <path d="M 54.691875 467.328589 
L 72.748755 447.002804 
L 90.805635 463.987833 
L 108.862515 453.656042 
L 126.919395 464.563723 
L 144.976275 458.853932 
L 163.033155 453.725982 
L 181.090035 457.789949 
L 199.146915 449.535528 
L 217.203795 333.73108 
L 271.374435 388.53585 
L 289.431315 388.834956 
L 307.488195 363.894611 
L 325.545075 384.376646 
L 343.601955 346.733987 
L 361.658835 356.680363 
L 379.715715 354.141686 
L 397.772595 422.141328 
L 415.829475 362.436285 
L 433.886355 361.992835 
L 451.943235 403.910769 
L 470.000115 408.833362 
L 488.056995 438.852549 
L 506.113875 419.581817 
L 524.170755 418.775274 
L 542.227635 427.642787 
L 560.284515 427.675525 
L 578.341395 444.532579 
L 596.398275 442.176936 
L 614.455155 432.206751 
L 632.512035 450.324215 
L 650.568915 436.607025 
L 668.625795 438.67249 
L 686.682675 386.35729 
L 704.739555 376.88859 
L 722.796435 370.427315 
L 740.853315 375.580561 
L 758.910195 422.688944 
L 776.967075 373.373728 
L 795.023955 376.351391 
L 813.080835 394.327486 
L 831.137715 373.707059 
L 849.194595 372.160936 
L 867.251475 341.732526 
L 885.308355 341.423003 
L 903.365235 322.113581 
L 921.422115 317.862116 
L 939.478995 327.153733 
L 957.535875 349.54052 
" clip-path="url(#p6d5b23ed6a)" style="fill: none; stroke: #4ac1fa; stroke-width: 1.5; stroke-linecap: square"/>
   </g>
   <g id="line2d_46">
    <path d="M 54.691875 507.944446 
L 72.748755 505.295651 
L 90.805635 510.35366 
L 108.862515 518.52326 
L 126.919395 514.374472 
L 144.976275 512.359602 
L 163.033155 507.059034 
L 181.090035 501.383469 
L 199.146915 501.902812 
L 217.203795 501.172161 
L 271.374435 492.292743 
L 289.431315 493.383511 
L 307.488195 507.066475 
L 325.545075 500.344784 
L 343.601955 502.710843 
L 361.658835 506.301598 
L 379.715715 519.975633 
L 397.772595 523.404186 
L 415.829475 517.518801 
L 433.886355 505.231663 
L 451.943235 500.370082 
L 470.000115 504.992081 
L 488.056995 500.82246 
L 506.113875 495.090348 
L 524.170755 504.268871 
L 542.227635 486.780868 
L 560.284515 481.001136 
L 578.341395 479.907392 
L 596.398275 466.55776 
L 614.455155 478.562161 
L 632.512035 474.639563 
L 650.568915 474.752657 
L 668.625795 469.644053 
L 686.682675 473.697603 
L 704.739555 477.707999 
L 722.796435 466.039906 
L 740.853315 467.123233 
L 758.910195 449.455172 
L 776.967075 424.306495 
L 795.023955 415.620529 
L 813.080835 440.291529 
L 831.137715 442.909075 
L 849.194595 445.88525 
L 867.251475 405.159274 
L 885.308355 417.876469 
L 903.365235 438.148684 
L 921.422115 447.862918 
L 939.478995 425.854106 
L 957.535875 425.138336 
" clip-path="url(#p6d5b23ed6a)" style="fill: none; stroke: #e9a942; stroke-width: 1.5; stroke-linecap: square"/>
   </g>
   <g id="line2d_47">
    <path d="M 54.691875 489.428175 
L 72.748755 478.773469 
L 90.805635 481.422265 
L 108.862515 481.414824 
L 126.919395 478.036866 
L 144.976275 469.456554 
L 163.033155 473.279451 
L 181.090035 470.33899 
L 199.146915 462.544388 
L 217.203795 466.696152 
L 271.374435 445.882274 
L 289.431315 425.293097 
L 307.488195 454.699192 
L 325.545075 470.010123 
L 343.601955 466.761628 
L 361.658835 469.295841 
L 379.715715 480.752626 
L 397.772595 499.271873 
L 415.829475 488.481751 
L 433.886355 476.224376 
L 451.943235 475.734795 
L 470.000115 467.526505 
L 488.056995 474.63361 
L 506.113875 472.108326 
L 524.170755 472.938679 
L 542.227635 480.92822 
L 560.284515 478.553232 
L 578.341395 444.279604 
L 596.398275 416.742547 
L 614.455155 415.061008 
L 632.512035 437.218629 
L 650.568915 450.019157 
L 668.625795 448.1025 
L 686.682675 439.752842 
L 704.739555 440.779622 
L 722.796435 449.862908 
L 740.853315 441.440333 
L 758.910195 457.245309 
L 776.967075 477.083002 
L 795.023955 471.959517 
L 813.080835 500.203416 
L 831.137715 489.359723 
L 849.194595 475.264559 
L 867.251475 489.352283 
L 885.308355 485.65885 
L 903.365235 475.675271 
L 921.422115 467.691683 
L 939.478995 461.144098 
L 957.535875 467.316685 
" clip-path="url(#p6d5b23ed6a)" style="fill: none; stroke: #9a5689; stroke-width: 1.5; stroke-linecap: square"/>
   </g>
   <g id="line2d_48">
    <path d="M 54.691875 516.167617 
L 72.748755 514.425067 
L 90.805635 521.774731 
L 108.862515 510.742051 
L 126.919395 515.225658 
L 144.976275 516.018809 
L 163.033155 497.447478 
L 181.090035 512.1349 
L 199.146915 509.33432 
L 217.203795 505.980171 
L 271.374435 484.806176 
L 289.431315 473.858317 
L 307.488195 495.937069 
L 325.545075 485.968372 
L 343.601955 490.620133 
L 361.658835 493.568034 
L 379.715715 501.70192 
L 397.772595 520.483071 
L 415.829475 505.792672 
L 433.886355 504.236133 
L 451.943235 508.581348 
L 470.000115 487.322531 
L 488.056995 513.338763 
L 506.113875 506.929571 
L 524.170755 505.96529 
L 542.227635 493.36863 
L 560.284515 503.803099 
L 578.341395 492.887978 
L 596.398275 488.18711 
L 614.455155 498.109677 
L 632.512035 495.715344 
L 650.568915 500.264427 
L 668.625795 459.98339 
L 686.682675 481.705001 
L 704.739555 496.643911 
L 722.796435 476.047293 
L 740.853315 488.2883 
L 758.910195 484.435642 
L 776.967075 474.958013 
L 795.023955 500.100738 
L 813.080835 474.477361 
L 831.137715 487.276401 
L 849.194595 481.728811 
L 867.251475 480.940125 
L 885.308355 503.139412 
L 903.365235 494.788266 
L 921.422115 478.64847 
L 939.478995 480.544293 
L 957.535875 490.133528 
" clip-path="url(#p6d5b23ed6a)" style="fill: none; stroke: #be503b; stroke-width: 1.5; stroke-linecap: square"/>
   </g>
   <g id="line2d_49">
    <path d="M 54.691875 437.484997 
L 72.748755 411.004482 
L 90.805635 409.650322 
L 108.862515 419.180034 
L 126.919395 428.383854 
L 144.976275 422.537159 
L 163.033155 418.345217 
L 181.090035 423.715724 
L 199.146915 419.336283 
L 217.203795 409.94794 
L 271.374435 401.65334 
L 289.431315 374.302294 
L 307.488195 406.808075 
L 325.545075 395.349802 
L 343.601955 385.36176 
L 361.658835 385.590925 
L 379.715715 408.28277 
L 397.772595 461.023563 
L 415.829475 440.465636 
L 433.886355 409.808059 
L 451.943235 395.081946 
L 470.000115 397.18015 
L 488.056995 386.744193 
L 506.113875 391.111729 
L 524.170755 382.928737 
L 542.227635 379.65048 
L 560.284515 379.265066 
L 578.341395 352.156578 
L 596.398275 366.116325 
L 614.455155 362.342536 
L 632.512035 373.293371 
L 650.568915 371.229394 
L 668.625795 355.762213 
L 686.682675 349.556889 
L 704.739555 354.015199 
L 722.796435 377.564182 
L 740.853315 359.150588 
L 758.910195 359.138684 
L 776.967075 365.525555 
L 795.023955 356.543459 
L 813.080835 354.711624 
L 831.137715 324.043631 
L 849.194595 111.050707 
L 867.251475 340.324795 
L 885.308355 357.016671 
L 903.365235 354.269662 
L 921.422115 351.943781 
L 939.478995 346.853034 
L 957.535875 326.165643 
" clip-path="url(#p6d5b23ed6a)" style="fill: none; stroke: #e2321d; stroke-width: 1.5; stroke-linecap: square"/>
   </g>
   <g id="line2d_50">
    <path d="M 54.691875 355.80388 
L 72.748755 367.143106 
L 90.805635 374.958541 
L 108.862515 328.086764 
L 126.919395 327.384387 
L 144.976275 284.555744 
L 163.033155 310.909771 
L 181.090035 332.546562 
L 199.146915 356.227985 
L 217.203795 325.793622 
L 271.374435 236.316415 
L 289.431315 229.953353 
L 307.488195 175.946198 
L 325.545075 274.151037 
L 343.601955 340.479556 
L 361.658835 328.664142 
L 379.715715 301.689582 
L 397.772595 365.632697 
L 415.829475 302.269936 
L 433.886355 290.296785 
L 451.943235 270.698674 
L 470.000115 219.609658 
L 488.056995 203.079983 
L 506.113875 251.255324 
L 524.170755 232.926552 
L 542.227635 183.267588 
L 560.284515 184.120262 
L 578.341395 166.063809 
L 596.398275 180.670875 
L 614.455155 104.431694 
L 632.512035 207.624602 
L 650.568915 123.129512 
L 668.625795 173.846506 
L 686.682675 154.014766 
L 704.739555 190.379157 
L 722.796435 240.24943 
L 740.853315 213.37606 
L 758.910195 218.371569 
L 776.967075 193.389558 
L 795.023955 204.776403 
L 813.080835 192.249683 
L 831.137715 182.571163 
L 849.194595 193.843425 
L 867.251475 176.584587 
L 885.308355 183.016101 
L 903.365235 142.282685 
L 921.422115 120.636966 
L 939.478995 48.164134 
L 957.535875 108.640005 
" clip-path="url(#p6d5b23ed6a)" style="fill: none; stroke: #48b585; stroke-width: 6; stroke-linecap: square"/>
   </g>
   <g id="patch_3">
    <path d="M 54.691875 567.74175 
L 54.691875 24.14175 
" style="fill: none; stroke: #ffffff; stroke-linejoin: miter; stroke-linecap: square"/>
   </g>
   <g id="patch_4">
    <path d="M 957.535875 567.74175 
L 957.535875 24.14175 
" style="fill: none; stroke: #ffffff; stroke-linejoin: miter; stroke-linecap: square"/>
   </g>
   <g id="patch_5">
    <path d="M 54.691875 567.74175 
L 957.535875 567.74175 
" style="fill: none; stroke: #ffffff; stroke-linejoin: miter; stroke-linecap: square"/>
   </g>
   <g id="patch_6">
    <path d="M 54.691875 24.14175 
L 957.535875 24.14175 
" style="fill: none; stroke: #ffffff; stroke-linejoin: miter; stroke-linecap: square"/>
   </g>
   <g id="text_22">
    <!-- Potentially Ephemeral Enterprise Linux 8 and 9 Instances by Distribution -->
    <g transform="translate(54.691875 18.14175)scale(0.144 -0.144)">
     <defs>
      <path id="DejaVuSans-50" d="M 1259 4147 
L 1259 2394 
L 2053 2394 
Q 2494 2394 2734 2622 
Q 2975 2850 2975 3272 
Q 2975 3691 2734 3919 
Q 2494 4147 2053 4147 
L 1259 4147 
z
M 628 4666 
L 2053 4666 
Q 2838 4666 3239 4311 
Q 3641 3956 3641 3272 
Q 3641 2581 3239 2228 
Q 2838 1875 2053 1875 
L 1259 1875 
L 1259 0 
L 628 0 
L 628 4666 
z
" transform="scale(0.015625)"/>
      <path id="DejaVuSans-6f" d="M 1959 3097 
Q 1497 3097 1228 2736 
Q 959 2375 959 1747 
Q 959 1119 1226 758 
Q 1494 397 1959 397 
Q 2419 397 2687 759 
Q 2956 1122 2956 1747 
Q 2956 2369 2687 2733 
Q 2419 3097 1959 3097 
z
M 1959 3584 
Q 2709 3584 3137 3096 
Q 3566 2609 3566 1747 
Q 3566 888 3137 398 
Q 2709 -91 1959 -91 
Q 1206 -91 779 398 
Q 353 888 353 1747 
Q 353 2609 779 3096 
Q 1206 3584 1959 3584 
z
" transform="scale(0.015625)"/>
      <path id="DejaVuSans-69" d="M 603 3500 
L 1178 3500 
L 1178 0 
L 603 0 
L 603 3500 
z
M 603 4863 
L 1178 4863 
L 1178 4134 
L 603 4134 
L 603 4863 
z
" transform="scale(0.015625)"/>
      <path id="DejaVuSans-6c" d="M 603 4863 
L 1178 4863 
L 1178 0 
L 603 0 
L 603 4863 
z
" transform="scale(0.015625)"/>
      <path id="DejaVuSans-79" d="M 2059 -325 
Q 1816 -950 1584 -1140 
Q 1353 -1331 966 -1331 
L 506 -1331 
L 506 -850 
L 844 -850 
Q 1081 -850 1212 -737 
Q 1344 -625 1503 -206 
L 1606 56 
L 191 3500 
L 800 3500 
L 1894 763 
L 2988 3500 
L 3597 3500 
L 2059 -325 
z
" transform="scale(0.015625)"/>
      <path id="DejaVuSans-20" transform="scale(0.015625)"/>
      <path id="DejaVuSans-45" d="M 628 4666 
L 3578 4666 
L 3578 4134 
L 1259 4134 
L 1259 2753 
L 3481 2753 
L 3481 2222 
L 1259 2222 
L 1259 531 
L 3634 531 
L 3634 0 
L 628 0 
L 628 4666 
z
" transform="scale(0.015625)"/>
      <path id="DejaVuSans-70" d="M 1159 525 
L 1159 -1331 
L 581 -1331 
L 581 3500 
L 1159 3500 
L 1159 2969 
Q 1341 3281 1617 3432 
Q 1894 3584 2278 3584 
Q 2916 3584 3314 3078 
Q 3713 2572 3713 1747 
Q 3713 922 3314 415 
Q 2916 -91 2278 -91 
Q 1894 -91 1617 61 
Q 1341 213 1159 525 
z
M 3116 1747 
Q 3116 2381 2855 2742 
Q 2594 3103 2138 3103 
Q 1681 3103 1420 2742 
Q 1159 2381 1159 1747 
Q 1159 1113 1420 752 
Q 1681 391 2138 391 
Q 2594 391 2855 752 
Q 3116 1113 3116 1747 
z
" transform="scale(0.015625)"/>
      <path id="DejaVuSans-68" d="M 3513 2113 
L 3513 0 
L 2938 0 
L 2938 2094 
Q 2938 2591 2744 2837 
Q 2550 3084 2163 3084 
Q 1697 3084 1428 2787 
Q 1159 2491 1159 1978 
L 1159 0 
L 581 0 
L 581 4863 
L 1159 4863 
L 1159 2956 
Q 1366 3272 1645 3428 
Q 1925 3584 2291 3584 
Q 2894 3584 3203 3211 
Q 3513 2838 3513 2113 
z
" transform="scale(0.015625)"/>
      <path id="DejaVuSans-6d" d="M 3328 2828 
Q 3544 3216 3844 3400 
Q 4144 3584 4550 3584 
Q 5097 3584 5394 3201 
Q 5691 2819 5691 2113 
L 5691 0 
L 5113 0 
L 5113 2094 
Q 5113 2597 4934 2840 
Q 4756 3084 4391 3084 
Q 3944 3084 3684 2787 
Q 3425 2491 3425 1978 
L 3425 0 
L 2847 0 
L 2847 2094 
Q 2847 2600 2669 2842 
Q 2491 3084 2119 3084 
Q 1678 3084 1418 2786 
Q 1159 2488 1159 1978 
L 1159 0 
L 581 0 
L 581 3500 
L 1159 3500 
L 1159 2956 
Q 1356 3278 1631 3431 
Q 1906 3584 2284 3584 
Q 2666 3584 2933 3390 
Q 3200 3197 3328 2828 
z
" transform="scale(0.015625)"/>
      <path id="DejaVuSans-72" d="M 2631 2963 
Q 2534 3019 2420 3045 
Q 2306 3072 2169 3072 
Q 1681 3072 1420 2755 
Q 1159 2438 1159 1844 
L 1159 0 
L 581 0 
L 581 3500 
L 1159 3500 
L 1159 2956 
Q 1341 3275 1631 3429 
Q 1922 3584 2338 3584 
Q 2397 3584 2469 3576 
Q 2541 3569 2628 3553 
L 2631 2963 
z
" transform="scale(0.015625)"/>
      <path id="DejaVuSans-4c" d="M 628 4666 
L 1259 4666 
L 1259 531 
L 3531 531 
L 3531 0 
L 628 0 
L 628 4666 
z
" transform="scale(0.015625)"/>
      <path id="DejaVuSans-75" d="M 544 1381 
L 544 3500 
L 1119 3500 
L 1119 1403 
Q 1119 906 1312 657 
Q 1506 409 1894 409 
Q 2359 409 2629 706 
Q 2900 1003 2900 1516 
L 2900 3500 
L 3475 3500 
L 3475 0 
L 2900 0 
L 2900 538 
Q 2691 219 2414 64 
Q 2138 -91 1772 -91 
Q 1169 -91 856 284 
Q 544 659 544 1381 
z
M 1991 3584 
L 1991 3584 
z
" transform="scale(0.015625)"/>
      <path id="DejaVuSans-78" d="M 3513 3500 
L 2247 1797 
L 3578 0 
L 2900 0 
L 1881 1375 
L 863 0 
L 184 0 
L 1544 1831 
L 300 3500 
L 978 3500 
L 1906 2253 
L 2834 3500 
L 3513 3500 
z
" transform="scale(0.015625)"/>
      <path id="DejaVuSans-38" d="M 2034 2216 
Q 1584 2216 1326 1975 
Q 1069 1734 1069 1313 
Q 1069 891 1326 650 
Q 1584 409 2034 409 
Q 2484 409 2743 651 
Q 3003 894 3003 1313 
Q 3003 1734 2745 1975 
Q 2488 2216 2034 2216 
z
M 1403 2484 
Q 997 2584 770 2862 
Q 544 3141 544 3541 
Q 544 4100 942 4425 
Q 1341 4750 2034 4750 
Q 2731 4750 3128 4425 
Q 3525 4100 3525 3541 
Q 3525 3141 3298 2862 
Q 3072 2584 2669 2484 
Q 3125 2378 3379 2068 
Q 3634 1759 3634 1313 
Q 3634 634 3220 271 
Q 2806 -91 2034 -91 
Q 1263 -91 848 271 
Q 434 634 434 1313 
Q 434 1759 690 2068 
Q 947 2378 1403 2484 
z
M 1172 3481 
Q 1172 3119 1398 2916 
Q 1625 2713 2034 2713 
Q 2441 2713 2670 2916 
Q 2900 3119 2900 3481 
Q 2900 3844 2670 4047 
Q 2441 4250 2034 4250 
Q 1625 4250 1398 4047 
Q 1172 3844 1172 3481 
z
" transform="scale(0.015625)"/>
      <path id="DejaVuSans-64" d="M 2906 2969 
L 2906 4863 
L 3481 4863 
L 3481 0 
L 2906 0 
L 2906 525 
Q 2725 213 2448 61 
Q 2172 -91 1784 -91 
Q 1150 -91 751 415 
Q 353 922 353 1747 
Q 353 2572 751 3078 
Q 1150 3584 1784 3584 
Q 2172 3584 2448 3432 
Q 2725 3281 2906 2969 
z
M 947 1747 
Q 947 1113 1208 752 
Q 1469 391 1925 391 
Q 2381 391 2643 752 
Q 2906 1113 2906 1747 
Q 2906 2381 2643 2742 
Q 2381 3103 1925 3103 
Q 1469 3103 1208 2742 
Q 947 2381 947 1747 
z
" transform="scale(0.015625)"/>
      <path id="DejaVuSans-62" d="M 3116 1747 
Q 3116 2381 2855 2742 
Q 2594 3103 2138 3103 
Q 1681 3103 1420 2742 
Q 1159 2381 1159 1747 
Q 1159 1113 1420 752 
Q 1681 391 2138 391 
Q 2594 391 2855 752 
Q 3116 1113 3116 1747 
z
M 1159 2969 
Q 1341 3281 1617 3432 
Q 1894 3584 2278 3584 
Q 2916 3584 3314 3078 
Q 3713 2572 3713 1747 
Q 3713 922 3314 415 
Q 2916 -91 2278 -91 
Q 1894 -91 1617 61 
Q 1341 213 1159 525 
L 1159 0 
L 581 0 
L 581 4863 
L 1159 4863 
L 1159 2969 
z
" transform="scale(0.015625)"/>
     </defs>
     <use xlink:href="#DejaVuSans-50"/>
     <use xlink:href="#DejaVuSans-6f" x="56.677734"/>
     <use xlink:href="#DejaVuSans-74" x="117.859375"/>
     <use xlink:href="#DejaVuSans-65" x="157.068359"/>
     <use xlink:href="#DejaVuSans-6e" x="218.591797"/>
     <use xlink:href="#DejaVuSans-74" x="281.970703"/>
     <use xlink:href="#DejaVuSans-69" x="321.179688"/>
     <use xlink:href="#DejaVuSans-61" x="348.962891"/>
     <use xlink:href="#DejaVuSans-6c" x="410.242188"/>
     <use xlink:href="#DejaVuSans-6c" x="438.025391"/>
     <use xlink:href="#DejaVuSans-79" x="465.808594"/>
     <use xlink:href="#DejaVuSans-20" x="524.988281"/>
     <use xlink:href="#DejaVuSans-45" x="556.775391"/>
     <use xlink:href="#DejaVuSans-70" x="619.958984"/>
     <use xlink:href="#DejaVuSans-68" x="683.435547"/>
     <use xlink:href="#DejaVuSans-65" x="746.814453"/>
     <use xlink:href="#DejaVuSans-6d" x="808.337891"/>
     <use xlink:href="#DejaVuSans-65" x="905.75"/>
     <use xlink:href="#DejaVuSans-72" x="967.273438"/>
     <use xlink:href="#DejaVuSans-61" x="1008.386719"/>
     <use xlink:href="#DejaVuSans-6c" x="1069.666016"/>
     <use xlink:href="#DejaVuSans-20" x="1097.449219"/>
     <use xlink:href="#DejaVuSans-45" x="1129.236328"/>
     <use xlink:href="#DejaVuSans-6e" x="1192.419922"/>
     <use xlink:href="#DejaVuSans-74" x="1255.798828"/>
     <use xlink:href="#DejaVuSans-65" x="1295.007812"/>
     <use xlink:href="#DejaVuSans-72" x="1356.53125"/>
     <use xlink:href="#DejaVuSans-70" x="1397.644531"/>
     <use xlink:href="#DejaVuSans-72" x="1461.121094"/>
     <use xlink:href="#DejaVuSans-69" x="1502.234375"/>
     <use xlink:href="#DejaVuSans-73" x="1530.017578"/>
     <use xlink:href="#DejaVuSans-65" x="1582.117188"/>
     <use xlink:href="#DejaVuSans-20" x="1643.640625"/>
     <use xlink:href="#DejaVuSans-4c" x="1675.427734"/>
     <use xlink:href="#DejaVuSans-69" x="1731.140625"/>
     <use xlink:href="#DejaVuSans-6e" x="1758.923828"/>
     <use xlink:href="#DejaVuSans-75" x="1822.302734"/>
     <use xlink:href="#DejaVuSans-78" x="1885.681641"/>
     <use xlink:href="#DejaVuSans-20" x="1944.861328"/>
     <use xlink:href="#DejaVuSans-38" x="1976.648438"/>
     <use xlink:href="#DejaVuSans-20" x="2040.271484"/>
     <use xlink:href="#DejaVuSans-61" x="2072.058594"/>
     <use xlink:href="#DejaVuSans-6e" x="2133.337891"/>
     <use xlink:href="#DejaVuSans-64" x="2196.716797"/>
     <use xlink:href="#DejaVuSans-20" x="2260.193359"/>
     <use xlink:href="#DejaVuSans-39" x="2291.980469"/>
     <use xlink:href="#DejaVuSans-20" x="2355.603516"/>
     <use xlink:href="#DejaVuSans-49" x="2387.390625"/>
     <use xlink:href="#DejaVuSans-6e" x="2416.882812"/>
     <use xlink:href="#DejaVuSans-73" x="2480.261719"/>
     <use xlink:href="#DejaVuSans-74" x="2532.361328"/>
     <use xlink:href="#DejaVuSans-61" x="2571.570312"/>
     <use xlink:href="#DejaVuSans-6e" x="2632.849609"/>
     <use xlink:href="#DejaVuSans-63" x="2696.228516"/>
     <use xlink:href="#DejaVuSans-65" x="2751.208984"/>
     <use xlink:href="#DejaVuSans-73" x="2812.732422"/>
     <use xlink:href="#DejaVuSans-20" x="2864.832031"/>
     <use xlink:href="#DejaVuSans-62" x="2896.619141"/>
     <use xlink:href="#DejaVuSans-79" x="2960.095703"/>
     <use xlink:href="#DejaVuSans-20" x="3019.275391"/>
     <use xlink:href="#DejaVuSans-44" x="3051.0625"/>
     <use xlink:href="#DejaVuSans-69" x="3128.064453"/>
     <use xlink:href="#DejaVuSans-73" x="3155.847656"/>
     <use xlink:href="#DejaVuSans-74" x="3207.947266"/>
     <use xlink:href="#DejaVuSans-72" x="3247.15625"/>
     <use xlink:href="#DejaVuSans-69" x="3288.269531"/>
     <use xlink:href="#DejaVuSans-62" x="3316.052734"/>
     <use xlink:href="#DejaVuSans-75" x="3379.529297"/>
     <use xlink:href="#DejaVuSans-74" x="3442.908203"/>
     <use xlink:href="#DejaVuSans-69" x="3482.117188"/>
     <use xlink:href="#DejaVuSans-6f" x="3509.900391"/>
     <use xlink:href="#DejaVuSans-6e" x="3571.082031"/>
    </g>
   </g>
   <g id="text_23">
    <!-- 2024-08-15 11:55 UTC -->
    <g transform="translate(794.653875 18.14175)scale(0.144 -0.144)">
     <defs>
      <path id="DejaVuSans-3a" d="M 750 794 
L 1409 794 
L 1409 0 
L 750 0 
L 750 794 
z
M 750 3309 
L 1409 3309 
L 1409 2516 
L 750 2516 
L 750 3309 
z
" transform="scale(0.015625)"/>
      <path id="DejaVuSans-55" d="M 556 4666 
L 1191 4666 
L 1191 1831 
Q 1191 1081 1462 751 
Q 1734 422 2344 422 
Q 2950 422 3222 751 
Q 3494 1081 3494 1831 
L 3494 4666 
L 4128 4666 
L 4128 1753 
Q 4128 841 3676 375 
Q 3225 -91 2344 -91 
Q 1459 -91 1007 375 
Q 556 841 556 1753 
L 556 4666 
z
" transform="scale(0.015625)"/>
      <path id="DejaVuSans-54" d="M -19 4666 
L 3928 4666 
L 3928 4134 
L 2272 4134 
L 2272 0 
L 1638 0 
L 1638 4134 
L -19 4134 
L -19 4666 
z
" transform="scale(0.015625)"/>
      <path id="DejaVuSans-43" d="M 4122 4306 
L 4122 3641 
Q 3803 3938 3442 4084 
Q 3081 4231 2675 4231 
Q 1875 4231 1450 3742 
Q 1025 3253 1025 2328 
Q 1025 1406 1450 917 
Q 1875 428 2675 428 
Q 3081 428 3442 575 
Q 3803 722 4122 1019 
L 4122 359 
Q 3791 134 3420 21 
Q 3050 -91 2638 -91 
Q 1578 -91 968 557 
Q 359 1206 359 2328 
Q 359 3453 968 4101 
Q 1578 4750 2638 4750 
Q 3056 4750 3426 4639 
Q 3797 4528 4122 4306 
z
" transform="scale(0.015625)"/>
     </defs>
     <use xlink:href="#DejaVuSans-32"/>
     <use xlink:href="#DejaVuSans-30" x="63.623047"/>
     <use xlink:href="#DejaVuSans-32" x="127.246094"/>
     <use xlink:href="#DejaVuSans-34" x="190.869141"/>
     <use xlink:href="#DejaVuSans-2d" x="254.492188"/>
     <use xlink:href="#DejaVuSans-30" x="290.576172"/>
     <use xlink:href="#DejaVuSans-38" x="354.199219"/>
     <use xlink:href="#DejaVuSans-2d" x="417.822266"/>
     <use xlink:href="#DejaVuSans-31" x="453.90625"/>
     <use xlink:href="#DejaVuSans-35" x="517.529297"/>
     <use xlink:href="#DejaVuSans-20" x="581.152344"/>
     <use xlink:href="#DejaVuSans-31" x="612.939453"/>
     <use xlink:href="#DejaVuSans-31" x="676.5625"/>
     <use xlink:href="#DejaVuSans-3a" x="740.185547"/>
     <use xlink:href="#DejaVuSans-35" x="773.876953"/>
     <use xlink:href="#DejaVuSans-35" x="837.5"/>
     <use xlink:href="#DejaVuSans-20" x="901.123047"/>
     <use xlink:href="#DejaVuSans-55" x="932.910156"/>
     <use xlink:href="#DejaVuSans-54" x="1006.103516"/>
     <use xlink:href="#DejaVuSans-43" x="1061.3125"/>
    </g>
   </g>
   <g id="legend_1">
    <g id="patch_7">
     <path d="M 61.691875 134.888625 
L 170.660625 134.888625 
Q 172.660625 134.888625 172.660625 132.888625 
L 172.660625 31.14175 
Q 172.660625 29.14175 170.660625 29.14175 
L 61.691875 29.14175 
Q 59.691875 29.14175 59.691875 31.14175 
L 59.691875 132.888625 
Q 59.691875 134.888625 61.691875 134.888625 
z
" style="fill: #e5e5e5; opacity: 0.8; stroke: #cccccc; stroke-width: 0.5; stroke-linejoin: miter"/>
    </g>
    <g id="text_24">
     <!-- Distribution -->
     <g transform="translate(87.0075 40.740187)scale(0.1 -0.1)">
      <use xlink:href="#DejaVuSans-44"/>
      <use xlink:href="#DejaVuSans-69" x="77.001953"/>
      <use xlink:href="#DejaVuSans-73" x="104.785156"/>
      <use xlink:href="#DejaVuSans-74" x="156.884766"/>
      <use xlink:href="#DejaVuSans-72" x="196.09375"/>
      <use xlink:href="#DejaVuSans-69" x="237.207031"/>
      <use xlink:href="#DejaVuSans-62" x="264.990234"/>
      <use xlink:href="#DejaVuSans-75" x="328.466797"/>
      <use xlink:href="#DejaVuSans-74" x="391.845703"/>
      <use xlink:href="#DejaVuSans-69" x="431.054688"/>
      <use xlink:href="#DejaVuSans-6f" x="458.837891"/>
      <use xlink:href="#DejaVuSans-6e" x="520.019531"/>
     </g>
    </g>
    <g id="line2d_51">
     <path d="M 63.691875 51.918312 
L 73.691875 51.918312 
L 83.691875 51.918312 
" style="fill: none; stroke: #4ac1fa; stroke-width: 1.5; stroke-linecap: square"/>
    </g>
    <g id="text_25">
     <!-- AlmaLinux -->
     <g transform="translate(91.691875 55.418312)scale(0.1 -0.1)">
      <defs>
       <path id="DejaVuSans-41" d="M 2188 4044 
L 1331 1722 
L 3047 1722 
L 2188 4044 
z
M 1831 4666 
L 2547 4666 
L 4325 0 
L 3669 0 
L 3244 1197 
L 1141 1197 
L 716 0 
L 50 0 
L 1831 4666 
z
" transform="scale(0.015625)"/>
      </defs>
      <use xlink:href="#DejaVuSans-41"/>
      <use xlink:href="#DejaVuSans-6c" x="68.408203"/>
      <use xlink:href="#DejaVuSans-6d" x="96.191406"/>
      <use xlink:href="#DejaVuSans-61" x="193.603516"/>
      <use xlink:href="#DejaVuSans-4c" x="254.882812"/>
      <use xlink:href="#DejaVuSans-69" x="310.595703"/>
      <use xlink:href="#DejaVuSans-6e" x="338.378906"/>
      <use xlink:href="#DejaVuSans-75" x="401.757812"/>
      <use xlink:href="#DejaVuSans-78" x="465.136719"/>
     </g>
    </g>
    <g id="line2d_52">
     <path d="M 63.691875 66.596437 
L 73.691875 66.596437 
L 83.691875 66.596437 
" style="fill: none; stroke: #e9a942; stroke-width: 1.5; stroke-linecap: square"/>
    </g>
    <g id="text_26">
     <!-- CentOS Legacy -->
     <g transform="translate(91.691875 70.096437)scale(0.1 -0.1)">
      <defs>
       <path id="DejaVuSans-4f" d="M 2522 4238 
Q 1834 4238 1429 3725 
Q 1025 3213 1025 2328 
Q 1025 1447 1429 934 
Q 1834 422 2522 422 
Q 3209 422 3611 934 
Q 4013 1447 4013 2328 
Q 4013 3213 3611 3725 
Q 3209 4238 2522 4238 
z
M 2522 4750 
Q 3503 4750 4090 4092 
Q 4678 3434 4678 2328 
Q 4678 1225 4090 567 
Q 3503 -91 2522 -91 
Q 1538 -91 948 565 
Q 359 1222 359 2328 
Q 359 3434 948 4092 
Q 1538 4750 2522 4750 
z
" transform="scale(0.015625)"/>
       <path id="DejaVuSans-53" d="M 3425 4513 
L 3425 3897 
Q 3066 4069 2747 4153 
Q 2428 4238 2131 4238 
Q 1616 4238 1336 4038 
Q 1056 3838 1056 3469 
Q 1056 3159 1242 3001 
Q 1428 2844 1947 2747 
L 2328 2669 
Q 3034 2534 3370 2195 
Q 3706 1856 3706 1288 
Q 3706 609 3251 259 
Q 2797 -91 1919 -91 
Q 1588 -91 1214 -16 
Q 841 59 441 206 
L 441 856 
Q 825 641 1194 531 
Q 1563 422 1919 422 
Q 2459 422 2753 634 
Q 3047 847 3047 1241 
Q 3047 1584 2836 1778 
Q 2625 1972 2144 2069 
L 1759 2144 
Q 1053 2284 737 2584 
Q 422 2884 422 3419 
Q 422 4038 858 4394 
Q 1294 4750 2059 4750 
Q 2388 4750 2728 4690 
Q 3069 4631 3425 4513 
z
" transform="scale(0.015625)"/>
       <path id="DejaVuSans-67" d="M 2906 1791 
Q 2906 2416 2648 2759 
Q 2391 3103 1925 3103 
Q 1463 3103 1205 2759 
Q 947 2416 947 1791 
Q 947 1169 1205 825 
Q 1463 481 1925 481 
Q 2391 481 2648 825 
Q 2906 1169 2906 1791 
z
M 3481 434 
Q 3481 -459 3084 -895 
Q 2688 -1331 1869 -1331 
Q 1566 -1331 1297 -1286 
Q 1028 -1241 775 -1147 
L 775 -588 
Q 1028 -725 1275 -790 
Q 1522 -856 1778 -856 
Q 2344 -856 2625 -561 
Q 2906 -266 2906 331 
L 2906 616 
Q 2728 306 2450 153 
Q 2172 0 1784 0 
Q 1141 0 747 490 
Q 353 981 353 1791 
Q 353 2603 747 3093 
Q 1141 3584 1784 3584 
Q 2172 3584 2450 3431 
Q 2728 3278 2906 2969 
L 2906 3500 
L 3481 3500 
L 3481 434 
z
" transform="scale(0.015625)"/>
      </defs>
      <use xlink:href="#DejaVuSans-43"/>
      <use xlink:href="#DejaVuSans-65" x="69.824219"/>
      <use xlink:href="#DejaVuSans-6e" x="131.347656"/>
      <use xlink:href="#DejaVuSans-74" x="194.726562"/>
      <use xlink:href="#DejaVuSans-4f" x="233.935547"/>
      <use xlink:href="#DejaVuSans-53" x="312.646484"/>
      <use xlink:href="#DejaVuSans-20" x="376.123047"/>
      <use xlink:href="#DejaVuSans-4c" x="407.910156"/>
      <use xlink:href="#DejaVuSans-65" x="461.873047"/>
      <use xlink:href="#DejaVuSans-67" x="523.396484"/>
      <use xlink:href="#DejaVuSans-61" x="586.873047"/>
      <use xlink:href="#DejaVuSans-63" x="648.152344"/>
      <use xlink:href="#DejaVuSans-79" x="703.132812"/>
     </g>
    </g>
    <g id="line2d_53">
     <path d="M 63.691875 81.274563 
L 73.691875 81.274563 
L 83.691875 81.274563 
" style="fill: none; stroke: #9a5689; stroke-width: 1.5; stroke-linecap: square"/>
    </g>
    <g id="text_27">
     <!-- CentOS Stream -->
     <g transform="translate(91.691875 84.774563)scale(0.1 -0.1)">
      <use xlink:href="#DejaVuSans-43"/>
      <use xlink:href="#DejaVuSans-65" x="69.824219"/>
      <use xlink:href="#DejaVuSans-6e" x="131.347656"/>
      <use xlink:href="#DejaVuSans-74" x="194.726562"/>
      <use xlink:href="#DejaVuSans-4f" x="233.935547"/>
      <use xlink:href="#DejaVuSans-53" x="312.646484"/>
      <use xlink:href="#DejaVuSans-20" x="376.123047"/>
      <use xlink:href="#DejaVuSans-53" x="407.910156"/>
      <use xlink:href="#DejaVuSans-74" x="471.386719"/>
      <use xlink:href="#DejaVuSans-72" x="510.595703"/>
      <use xlink:href="#DejaVuSans-65" x="549.458984"/>
      <use xlink:href="#DejaVuSans-61" x="610.982422"/>
      <use xlink:href="#DejaVuSans-6d" x="672.261719"/>
     </g>
    </g>
    <g id="line2d_54">
     <path d="M 63.691875 95.952687 
L 73.691875 95.952687 
L 83.691875 95.952687 
" style="fill: none; stroke: #be503b; stroke-width: 1.5; stroke-linecap: square"/>
    </g>
    <g id="text_28">
     <!-- Oracle -->
     <g transform="translate(91.691875 99.452687)scale(0.1 -0.1)">
      <use xlink:href="#DejaVuSans-4f"/>
      <use xlink:href="#DejaVuSans-72" x="78.710938"/>
      <use xlink:href="#DejaVuSans-61" x="119.824219"/>
      <use xlink:href="#DejaVuSans-63" x="181.103516"/>
      <use xlink:href="#DejaVuSans-6c" x="236.083984"/>
      <use xlink:href="#DejaVuSans-65" x="263.867188"/>
     </g>
    </g>
    <g id="line2d_55">
     <path d="M 63.691875 110.630812 
L 73.691875 110.630812 
L 83.691875 110.630812 
" style="fill: none; stroke: #e2321d; stroke-width: 1.5; stroke-linecap: square"/>
    </g>
    <g id="text_29">
     <!-- RHEL -->
     <g transform="translate(91.691875 114.130812)scale(0.1 -0.1)">
      <defs>
       <path id="DejaVuSans-52" d="M 2841 2188 
Q 3044 2119 3236 1894 
Q 3428 1669 3622 1275 
L 4263 0 
L 3584 0 
L 2988 1197 
Q 2756 1666 2539 1819 
Q 2322 1972 1947 1972 
L 1259 1972 
L 1259 0 
L 628 0 
L 628 4666 
L 2053 4666 
Q 2853 4666 3247 4331 
Q 3641 3997 3641 3322 
Q 3641 2881 3436 2590 
Q 3231 2300 2841 2188 
z
M 1259 4147 
L 1259 2491 
L 2053 2491 
Q 2509 2491 2742 2702 
Q 2975 2913 2975 3322 
Q 2975 3731 2742 3939 
Q 2509 4147 2053 4147 
L 1259 4147 
z
" transform="scale(0.015625)"/>
       <path id="DejaVuSans-48" d="M 628 4666 
L 1259 4666 
L 1259 2753 
L 3553 2753 
L 3553 4666 
L 4184 4666 
L 4184 0 
L 3553 0 
L 3553 2222 
L 1259 2222 
L 1259 0 
L 628 0 
L 628 4666 
z
" transform="scale(0.015625)"/>
      </defs>
      <use xlink:href="#DejaVuSans-52"/>
      <use xlink:href="#DejaVuSans-48" x="69.482422"/>
      <use xlink:href="#DejaVuSans-45" x="144.677734"/>
      <use xlink:href="#DejaVuSans-4c" x="207.861328"/>
     </g>
    </g>
    <g id="line2d_56">
     <path d="M 63.691875 125.308937 
L 73.691875 125.308937 
L 83.691875 125.308937 
" style="fill: none; stroke: #48b585; stroke-width: 6; stroke-linecap: square"/>
    </g>
    <g id="text_30">
     <!-- Rocky Linux -->
     <g transform="translate(91.691875 128.808937)scale(0.1 -0.1)">
      <use xlink:href="#DejaVuSans-52"/>
      <use xlink:href="#DejaVuSans-6f" x="64.982422"/>
      <use xlink:href="#DejaVuSans-63" x="126.164062"/>
      <use xlink:href="#DejaVuSans-6b" x="181.144531"/>
      <use xlink:href="#DejaVuSans-79" x="235.429688"/>
      <use xlink:href="#DejaVuSans-20" x="294.609375"/>
      <use xlink:href="#DejaVuSans-4c" x="326.396484"/>
      <use xlink:href="#DejaVuSans-69" x="382.109375"/>
      <use xlink:href="#DejaVuSans-6e" x="409.892578"/>
      <use xlink:href="#DejaVuSans-75" x="473.271484"/>
      <use xlink:href="#DejaVuSans-78" x="536.650391"/>
     </g>
    </g>
   </g>
  </g>
 </g>
 <defs>
  <clipPath id="p6d5b23ed6a">
   <rect x="54.691875" y="24.14175" width="902.844" height="543.6"/>
  </clipPath>
 </defs>
</svg>
