<?xml version="1.0" encoding="utf-8" standalone="no"?>
<!DOCTYPE svg PUBLIC "-//W3C//DTD SVG 1.1//EN"
  "http://www.w3.org/Graphics/SVG/1.1/DTD/svg11.dtd">
<svg xmlns:xlink="http://www.w3.org/1999/xlink" width="974.2765pt" height="644.743878pt" viewBox="0 0 974.2765 644.743878" xmlns="http://www.w3.org/2000/svg" version="1.1">
 <metadata>
  <rdf:RDF xmlns:dc="http://purl.org/dc/elements/1.1/" xmlns:cc="http://creativecommons.org/ns#" xmlns:rdf="http://www.w3.org/1999/02/22-rdf-syntax-ns#">
   <cc:Work>
    <dc:type rdf:resource="http://purl.org/dc/dcmitype/StillImage"/>
    <dc:date>2025-12-18T12:11:01.990899</dc:date>
    <dc:format>image/svg+xml</dc:format>
    <dc:creator>
     <cc:Agent>
      <dc:title>Matplotlib v3.6.3, https://matplotlib.org/</dc:title>
     </cc:Agent>
    </dc:creator>
   </cc:Work>
  </rdf:RDF>
 </metadata>
 <defs>
  <style type="text/css">*{stroke-linejoin: round; stroke-linecap: butt}</style>
 </defs>
 <g id="figure_1">
  <g id="patch_1">
   <path d="M 0 644.743878 
L 974.2765 644.743878 
L 974.2765 0 
L 0 0 
z
" style="fill: #ffffff"/>
  </g>
  <g id="axes_1">
   <g id="patch_2">
    <path d="M 64.2325 578.54175 
L 967.0765 578.54175 
L 967.0765 24.14175 
L 64.2325 24.14175 
z
" style="fill: #e5e5e5"/>
   </g>
   <g id="matplotlib.axis_1">
    <g id="xtick_1">
     <g id="line2d_1">
      <path d="M 86.993273 578.54175 
L 86.993273 24.14175 
" clip-path="url(#pceb64b2692)" style="fill: none; stroke: #ffffff; stroke-width: 0.8; stroke-linecap: square"/>
     </g>
     <g id="line2d_2">
      <defs>
       <path id="mb51d2dfef1" d="M 0 0 
L 0 3.5 
" style="stroke: #555555; stroke-width: 0.8"/>
      </defs>
      <g>
       <use xlink:href="#mb51d2dfef1" x="86.993273" y="578.54175" style="fill: #555555; stroke: #555555; stroke-width: 0.8"/>
      </g>
     </g>
     <g id="text_1">
      <!-- 2024-12 -->
      <g style="fill: #555555" transform="translate(74.171991 620.459567) rotate(-45) scale(0.1 -0.1)">
       <defs>
        <path id="DejaVuSans-32" d="M 1228 531 
L 3431 531 
L 3431 0 
L 469 0 
L 469 531 
Q 828 903 1448 1529 
Q 2069 2156 2228 2338 
Q 2531 2678 2651 2914 
Q 2772 3150 2772 3378 
Q 2772 3750 2511 3984 
Q 2250 4219 1831 4219 
Q 1534 4219 1204 4116 
Q 875 4013 500 3803 
L 500 4441 
Q 881 4594 1212 4672 
Q 1544 4750 1819 4750 
Q 2544 4750 2975 4387 
Q 3406 4025 3406 3419 
Q 3406 3131 3298 2873 
Q 3191 2616 2906 2266 
Q 2828 2175 2409 1742 
Q 1991 1309 1228 531 
z
" transform="scale(0.015625)"/>
        <path id="DejaVuSans-30" d="M 2034 4250 
Q 1547 4250 1301 3770 
Q 1056 3291 1056 2328 
Q 1056 1369 1301 889 
Q 1547 409 2034 409 
Q 2525 409 2770 889 
Q 3016 1369 3016 2328 
Q 3016 3291 2770 3770 
Q 2525 4250 2034 4250 
z
M 2034 4750 
Q 2819 4750 3233 4129 
Q 3647 3509 3647 2328 
Q 3647 1150 3233 529 
Q 2819 -91 2034 -91 
Q 1250 -91 836 529 
Q 422 1150 422 2328 
Q 422 3509 836 4129 
Q 1250 4750 2034 4750 
z
" transform="scale(0.015625)"/>
        <path id="DejaVuSans-34" d="M 2419 4116 
L 825 1625 
L 2419 1625 
L 2419 4116 
z
M 2253 4666 
L 3047 4666 
L 3047 1625 
L 3713 1625 
L 3713 1100 
L 3047 1100 
L 3047 0 
L 2419 0 
L 2419 1100 
L 313 1100 
L 313 1709 
L 2253 4666 
z
" transform="scale(0.015625)"/>
        <path id="DejaVuSans-2d" d="M 313 2009 
L 1997 2009 
L 1997 1497 
L 313 1497 
L 313 2009 
z
" transform="scale(0.015625)"/>
        <path id="DejaVuSans-31" d="M 794 531 
L 1825 531 
L 1825 4091 
L 703 3866 
L 703 4441 
L 1819 4666 
L 2450 4666 
L 2450 531 
L 3481 531 
L 3481 0 
L 794 0 
L 794 531 
z
" transform="scale(0.015625)"/>
       </defs>
       <use xlink:href="#DejaVuSans-32"/>
       <use xlink:href="#DejaVuSans-30" x="63.623047"/>
       <use xlink:href="#DejaVuSans-32" x="127.246094"/>
       <use xlink:href="#DejaVuSans-34" x="190.869141"/>
       <use xlink:href="#DejaVuSans-2d" x="254.492188"/>
       <use xlink:href="#DejaVuSans-31" x="290.576172"/>
       <use xlink:href="#DejaVuSans-32" x="354.199219"/>
      </g>
     </g>
    </g>
    <g id="xtick_2">
     <g id="line2d_3">
      <path d="M 165.391492 578.54175 
L 165.391492 24.14175 
" clip-path="url(#pceb64b2692)" style="fill: none; stroke: #ffffff; stroke-width: 0.8; stroke-linecap: square"/>
     </g>
     <g id="line2d_4">
      <g>
       <use xlink:href="#mb51d2dfef1" x="165.391492" y="578.54175" style="fill: #555555; stroke: #555555; stroke-width: 0.8"/>
      </g>
     </g>
     <g id="text_2">
      <!-- 2025-01 -->
      <g style="fill: #555555" transform="translate(152.570209 620.459567) rotate(-45) scale(0.1 -0.1)">
       <defs>
        <path id="DejaVuSans-35" d="M 691 4666 
L 3169 4666 
L 3169 4134 
L 1269 4134 
L 1269 2991 
Q 1406 3038 1543 3061 
Q 1681 3084 1819 3084 
Q 2600 3084 3056 2656 
Q 3513 2228 3513 1497 
Q 3513 744 3044 326 
Q 2575 -91 1722 -91 
Q 1428 -91 1123 -41 
Q 819 9 494 109 
L 494 744 
Q 775 591 1075 516 
Q 1375 441 1709 441 
Q 2250 441 2565 725 
Q 2881 1009 2881 1497 
Q 2881 1984 2565 2268 
Q 2250 2553 1709 2553 
Q 1456 2553 1204 2497 
Q 953 2441 691 2322 
L 691 4666 
z
" transform="scale(0.015625)"/>
       </defs>
       <use xlink:href="#DejaVuSans-32"/>
       <use xlink:href="#DejaVuSans-30" x="63.623047"/>
       <use xlink:href="#DejaVuSans-32" x="127.246094"/>
       <use xlink:href="#DejaVuSans-35" x="190.869141"/>
       <use xlink:href="#DejaVuSans-2d" x="254.492188"/>
       <use xlink:href="#DejaVuSans-30" x="290.576172"/>
       <use xlink:href="#DejaVuSans-31" x="354.199219"/>
      </g>
     </g>
    </g>
    <g id="xtick_3">
     <g id="line2d_5">
      <path d="M 314.601004 578.54175 
L 314.601004 24.14175 
" clip-path="url(#pceb64b2692)" style="fill: none; stroke: #ffffff; stroke-width: 0.8; stroke-linecap: square"/>
     </g>
     <g id="line2d_6">
      <g>
       <use xlink:href="#mb51d2dfef1" x="314.601004" y="578.54175" style="fill: #555555; stroke: #555555; stroke-width: 0.8"/>
      </g>
     </g>
     <g id="text_3">
      <!-- 2025-03 -->
      <g style="fill: #555555" transform="translate(301.779722 620.459567) rotate(-45) scale(0.1 -0.1)">
       <defs>
        <path id="DejaVuSans-33" d="M 2597 2516 
Q 3050 2419 3304 2112 
Q 3559 1806 3559 1356 
Q 3559 666 3084 287 
Q 2609 -91 1734 -91 
Q 1441 -91 1130 -33 
Q 819 25 488 141 
L 488 750 
Q 750 597 1062 519 
Q 1375 441 1716 441 
Q 2309 441 2620 675 
Q 2931 909 2931 1356 
Q 2931 1769 2642 2001 
Q 2353 2234 1838 2234 
L 1294 2234 
L 1294 2753 
L 1863 2753 
Q 2328 2753 2575 2939 
Q 2822 3125 2822 3475 
Q 2822 3834 2567 4026 
Q 2313 4219 1838 4219 
Q 1578 4219 1281 4162 
Q 984 4106 628 3988 
L 628 4550 
Q 988 4650 1302 4700 
Q 1616 4750 1894 4750 
Q 2613 4750 3031 4423 
Q 3450 4097 3450 3541 
Q 3450 3153 3228 2886 
Q 3006 2619 2597 2516 
z
" transform="scale(0.015625)"/>
       </defs>
       <use xlink:href="#DejaVuSans-32"/>
       <use xlink:href="#DejaVuSans-30" x="63.623047"/>
       <use xlink:href="#DejaVuSans-32" x="127.246094"/>
       <use xlink:href="#DejaVuSans-35" x="190.869141"/>
       <use xlink:href="#DejaVuSans-2d" x="254.492188"/>
       <use xlink:href="#DejaVuSans-30" x="290.576172"/>
       <use xlink:href="#DejaVuSans-33" x="354.199219"/>
      </g>
     </g>
    </g>
    <g id="xtick_4">
     <g id="line2d_7">
      <path d="M 468.868466 578.54175 
L 468.868466 24.14175 
" clip-path="url(#pceb64b2692)" style="fill: none; stroke: #ffffff; stroke-width: 0.8; stroke-linecap: square"/>
     </g>
     <g id="line2d_8">
      <g>
       <use xlink:href="#mb51d2dfef1" x="468.868466" y="578.54175" style="fill: #555555; stroke: #555555; stroke-width: 0.8"/>
      </g>
     </g>
     <g id="text_4">
      <!-- 2025-05 -->
      <g style="fill: #555555" transform="translate(456.047184 620.459567) rotate(-45) scale(0.1 -0.1)">
       <use xlink:href="#DejaVuSans-32"/>
       <use xlink:href="#DejaVuSans-30" x="63.623047"/>
       <use xlink:href="#DejaVuSans-32" x="127.246094"/>
       <use xlink:href="#DejaVuSans-35" x="190.869141"/>
       <use xlink:href="#DejaVuSans-2d" x="254.492188"/>
       <use xlink:href="#DejaVuSans-30" x="290.576172"/>
       <use xlink:href="#DejaVuSans-35" x="354.199219"/>
      </g>
     </g>
    </g>
    <g id="xtick_5">
     <g id="line2d_9">
      <path d="M 623.135929 578.54175 
L 623.135929 24.14175 
" clip-path="url(#pceb64b2692)" style="fill: none; stroke: #ffffff; stroke-width: 0.8; stroke-linecap: square"/>
     </g>
     <g id="line2d_10">
      <g>
       <use xlink:href="#mb51d2dfef1" x="623.135929" y="578.54175" style="fill: #555555; stroke: #555555; stroke-width: 0.8"/>
      </g>
     </g>
     <g id="text_5">
      <!-- 2025-07 -->
      <g style="fill: #555555" transform="translate(610.314646 620.459567) rotate(-45) scale(0.1 -0.1)">
       <defs>
        <path id="DejaVuSans-37" d="M 525 4666 
L 3525 4666 
L 3525 4397 
L 1831 0 
L 1172 0 
L 2766 4134 
L 525 4134 
L 525 4666 
z
" transform="scale(0.015625)"/>
       </defs>
       <use xlink:href="#DejaVuSans-32"/>
       <use xlink:href="#DejaVuSans-30" x="63.623047"/>
       <use xlink:href="#DejaVuSans-32" x="127.246094"/>
       <use xlink:href="#DejaVuSans-35" x="190.869141"/>
       <use xlink:href="#DejaVuSans-2d" x="254.492188"/>
       <use xlink:href="#DejaVuSans-30" x="290.576172"/>
       <use xlink:href="#DejaVuSans-37" x="354.199219"/>
      </g>
     </g>
    </g>
    <g id="xtick_6">
     <g id="line2d_11">
      <path d="M 701.534147 578.54175 
L 701.534147 24.14175 
" clip-path="url(#pceb64b2692)" style="fill: none; stroke: #ffffff; stroke-width: 0.8; stroke-linecap: square"/>
     </g>
     <g id="line2d_12">
      <g>
       <use xlink:href="#mb51d2dfef1" x="701.534147" y="578.54175" style="fill: #555555; stroke: #555555; stroke-width: 0.8"/>
      </g>
     </g>
     <g id="text_6">
      <!-- 2025-08 -->
      <g style="fill: #555555" transform="translate(688.712865 620.459567) rotate(-45) scale(0.1 -0.1)">
       <defs>
        <path id="DejaVuSans-38" d="M 2034 2216 
Q 1584 2216 1326 1975 
Q 1069 1734 1069 1313 
Q 1069 891 1326 650 
Q 1584 409 2034 409 
Q 2484 409 2743 651 
Q 3003 894 3003 1313 
Q 3003 1734 2745 1975 
Q 2488 2216 2034 2216 
z
M 1403 2484 
Q 997 2584 770 2862 
Q 544 3141 544 3541 
Q 544 4100 942 4425 
Q 1341 4750 2034 4750 
Q 2731 4750 3128 4425 
Q 3525 4100 3525 3541 
Q 3525 3141 3298 2862 
Q 3072 2584 2669 2484 
Q 3125 2378 3379 2068 
Q 3634 1759 3634 1313 
Q 3634 634 3220 271 
Q 2806 -91 2034 -91 
Q 1263 -91 848 271 
Q 434 634 434 1313 
Q 434 1759 690 2068 
Q 947 2378 1403 2484 
z
M 1172 3481 
Q 1172 3119 1398 2916 
Q 1625 2713 2034 2713 
Q 2441 2713 2670 2916 
Q 2900 3119 2900 3481 
Q 2900 3844 2670 4047 
Q 2441 4250 2034 4250 
Q 1625 4250 1398 4047 
Q 1172 3844 1172 3481 
z
" transform="scale(0.015625)"/>
       </defs>
       <use xlink:href="#DejaVuSans-32"/>
       <use xlink:href="#DejaVuSans-30" x="63.623047"/>
       <use xlink:href="#DejaVuSans-32" x="127.246094"/>
       <use xlink:href="#DejaVuSans-35" x="190.869141"/>
       <use xlink:href="#DejaVuSans-2d" x="254.492188"/>
       <use xlink:href="#DejaVuSans-30" x="290.576172"/>
       <use xlink:href="#DejaVuSans-38" x="354.199219"/>
      </g>
     </g>
    </g>
    <g id="xtick_7">
     <g id="line2d_13">
      <path d="M 855.801609 578.54175 
L 855.801609 24.14175 
" clip-path="url(#pceb64b2692)" style="fill: none; stroke: #ffffff; stroke-width: 0.8; stroke-linecap: square"/>
     </g>
     <g id="line2d_14">
      <g>
       <use xlink:href="#mb51d2dfef1" x="855.801609" y="578.54175" style="fill: #555555; stroke: #555555; stroke-width: 0.8"/>
      </g>
     </g>
     <g id="text_7">
      <!-- 2025-10 -->
      <g style="fill: #555555" transform="translate(842.980327 620.459567) rotate(-45) scale(0.1 -0.1)">
       <use xlink:href="#DejaVuSans-32"/>
       <use xlink:href="#DejaVuSans-30" x="63.623047"/>
       <use xlink:href="#DejaVuSans-32" x="127.246094"/>
       <use xlink:href="#DejaVuSans-35" x="190.869141"/>
       <use xlink:href="#DejaVuSans-2d" x="254.492188"/>
       <use xlink:href="#DejaVuSans-31" x="290.576172"/>
       <use xlink:href="#DejaVuSans-30" x="354.199219"/>
      </g>
     </g>
    </g>
    <g id="text_8">
     <!-- Date -->
     <g style="fill: #555555" transform="translate(501.313563 635.048253) scale(0.12 -0.12)">
      <defs>
       <path id="DejaVuSans-44" d="M 1259 4147 
L 1259 519 
L 2022 519 
Q 2988 519 3436 956 
Q 3884 1394 3884 2338 
Q 3884 3275 3436 3711 
Q 2988 4147 2022 4147 
L 1259 4147 
z
M 628 4666 
L 1925 4666 
Q 3281 4666 3915 4102 
Q 4550 3538 4550 2338 
Q 4550 1131 3912 565 
Q 3275 0 1925 0 
L 628 0 
L 628 4666 
z
" transform="scale(0.015625)"/>
       <path id="DejaVuSans-61" d="M 2194 1759 
Q 1497 1759 1228 1600 
Q 959 1441 959 1056 
Q 959 750 1161 570 
Q 1363 391 1709 391 
Q 2188 391 2477 730 
Q 2766 1069 2766 1631 
L 2766 1759 
L 2194 1759 
z
M 3341 1997 
L 3341 0 
L 2766 0 
L 2766 531 
Q 2569 213 2275 61 
Q 1981 -91 1556 -91 
Q 1019 -91 701 211 
Q 384 513 384 1019 
Q 384 1609 779 1909 
Q 1175 2209 1959 2209 
L 2766 2209 
L 2766 2266 
Q 2766 2663 2505 2880 
Q 2244 3097 1772 3097 
Q 1472 3097 1187 3025 
Q 903 2953 641 2809 
L 641 3341 
Q 956 3463 1253 3523 
Q 1550 3584 1831 3584 
Q 2591 3584 2966 3190 
Q 3341 2797 3341 1997 
z
" transform="scale(0.015625)"/>
       <path id="DejaVuSans-74" d="M 1172 4494 
L 1172 3500 
L 2356 3500 
L 2356 3053 
L 1172 3053 
L 1172 1153 
Q 1172 725 1289 603 
Q 1406 481 1766 481 
L 2356 481 
L 2356 0 
L 1766 0 
Q 1100 0 847 248 
Q 594 497 594 1153 
L 594 3053 
L 172 3053 
L 172 3500 
L 594 3500 
L 594 4494 
L 1172 4494 
z
" transform="scale(0.015625)"/>
       <path id="DejaVuSans-65" d="M 3597 1894 
L 3597 1613 
L 953 1613 
Q 991 1019 1311 708 
Q 1631 397 2203 397 
Q 2534 397 2845 478 
Q 3156 559 3463 722 
L 3463 178 
Q 3153 47 2828 -22 
Q 2503 -91 2169 -91 
Q 1331 -91 842 396 
Q 353 884 353 1716 
Q 353 2575 817 3079 
Q 1281 3584 2069 3584 
Q 2775 3584 3186 3129 
Q 3597 2675 3597 1894 
z
M 3022 2063 
Q 3016 2534 2758 2815 
Q 2500 3097 2075 3097 
Q 1594 3097 1305 2825 
Q 1016 2553 972 2059 
L 3022 2063 
z
" transform="scale(0.015625)"/>
      </defs>
      <use xlink:href="#DejaVuSans-44"/>
      <use xlink:href="#DejaVuSans-61" x="77.001953"/>
      <use xlink:href="#DejaVuSans-74" x="138.28125"/>
      <use xlink:href="#DejaVuSans-65" x="177.490234"/>
     </g>
    </g>
   </g>
   <g id="matplotlib.axis_2">
    <g id="ytick_1">
     <g id="line2d_15">
      <path d="M 64.2325 578.54175 
L 967.0765 578.54175 
" clip-path="url(#pceb64b2692)" style="fill: none; stroke: #ffffff; stroke-width: 0.8; stroke-linecap: square"/>
     </g>
     <g id="line2d_16">
      <defs>
       <path id="m11fb443883" d="M 0 0 
L -3.5 0 
" style="stroke: #555555; stroke-width: 0.8"/>
      </defs>
      <g>
       <use xlink:href="#m11fb443883" x="64.2325" y="578.54175" style="fill: #555555; stroke: #555555; stroke-width: 0.8"/>
      </g>
     </g>
     <g id="text_9">
      <!-- 0k -->
      <g style="fill: #555555" transform="translate(45.079375 582.340969) scale(0.1 -0.1)">
       <defs>
        <path id="DejaVuSans-6b" d="M 581 4863 
L 1159 4863 
L 1159 1991 
L 2875 3500 
L 3609 3500 
L 1753 1863 
L 3688 0 
L 2938 0 
L 1159 1709 
L 1159 0 
L 581 0 
L 581 4863 
z
" transform="scale(0.015625)"/>
       </defs>
       <use xlink:href="#DejaVuSans-30"/>
       <use xlink:href="#DejaVuSans-6b" x="63.623047"/>
      </g>
     </g>
    </g>
    <g id="ytick_2">
     <g id="line2d_17">
      <path d="M 64.2325 471.341901 
L 967.0765 471.341901 
" clip-path="url(#pceb64b2692)" style="fill: none; stroke: #ffffff; stroke-width: 0.8; stroke-linecap: square"/>
     </g>
     <g id="line2d_18">
      <g>
       <use xlink:href="#m11fb443883" x="64.2325" y="471.341901" style="fill: #555555; stroke: #555555; stroke-width: 0.8"/>
      </g>
     </g>
     <g id="text_10">
      <!-- 200k -->
      <g style="fill: #555555" transform="translate(32.354375 475.141119) scale(0.1 -0.1)">
       <use xlink:href="#DejaVuSans-32"/>
       <use xlink:href="#DejaVuSans-30" x="63.623047"/>
       <use xlink:href="#DejaVuSans-30" x="127.246094"/>
       <use xlink:href="#DejaVuSans-6b" x="190.869141"/>
      </g>
     </g>
    </g>
    <g id="ytick_3">
     <g id="line2d_19">
      <path d="M 64.2325 364.142051 
L 967.0765 364.142051 
" clip-path="url(#pceb64b2692)" style="fill: none; stroke: #ffffff; stroke-width: 0.8; stroke-linecap: square"/>
     </g>
     <g id="line2d_20">
      <g>
       <use xlink:href="#m11fb443883" x="64.2325" y="364.142051" style="fill: #555555; stroke: #555555; stroke-width: 0.8"/>
      </g>
     </g>
     <g id="text_11">
      <!-- 400k -->
      <g style="fill: #555555" transform="translate(32.354375 367.94127) scale(0.1 -0.1)">
       <use xlink:href="#DejaVuSans-34"/>
       <use xlink:href="#DejaVuSans-30" x="63.623047"/>
       <use xlink:href="#DejaVuSans-30" x="127.246094"/>
       <use xlink:href="#DejaVuSans-6b" x="190.869141"/>
      </g>
     </g>
    </g>
    <g id="ytick_4">
     <g id="line2d_21">
      <path d="M 64.2325 256.942202 
L 967.0765 256.942202 
" clip-path="url(#pceb64b2692)" style="fill: none; stroke: #ffffff; stroke-width: 0.8; stroke-linecap: square"/>
     </g>
     <g id="line2d_22">
      <g>
       <use xlink:href="#m11fb443883" x="64.2325" y="256.942202" style="fill: #555555; stroke: #555555; stroke-width: 0.8"/>
      </g>
     </g>
     <g id="text_12">
      <!-- 600k -->
      <g style="fill: #555555" transform="translate(32.354375 260.74142) scale(0.1 -0.1)">
       <defs>
        <path id="DejaVuSans-36" d="M 2113 2584 
Q 1688 2584 1439 2293 
Q 1191 2003 1191 1497 
Q 1191 994 1439 701 
Q 1688 409 2113 409 
Q 2538 409 2786 701 
Q 3034 994 3034 1497 
Q 3034 2003 2786 2293 
Q 2538 2584 2113 2584 
z
M 3366 4563 
L 3366 3988 
Q 3128 4100 2886 4159 
Q 2644 4219 2406 4219 
Q 1781 4219 1451 3797 
Q 1122 3375 1075 2522 
Q 1259 2794 1537 2939 
Q 1816 3084 2150 3084 
Q 2853 3084 3261 2657 
Q 3669 2231 3669 1497 
Q 3669 778 3244 343 
Q 2819 -91 2113 -91 
Q 1303 -91 875 529 
Q 447 1150 447 2328 
Q 447 3434 972 4092 
Q 1497 4750 2381 4750 
Q 2619 4750 2861 4703 
Q 3103 4656 3366 4563 
z
" transform="scale(0.015625)"/>
       </defs>
       <use xlink:href="#DejaVuSans-36"/>
       <use xlink:href="#DejaVuSans-30" x="63.623047"/>
       <use xlink:href="#DejaVuSans-30" x="127.246094"/>
       <use xlink:href="#DejaVuSans-6b" x="190.869141"/>
      </g>
     </g>
    </g>
    <g id="ytick_5">
     <g id="line2d_23">
      <path d="M 64.2325 149.742352 
L 967.0765 149.742352 
" clip-path="url(#pceb64b2692)" style="fill: none; stroke: #ffffff; stroke-width: 0.8; stroke-linecap: square"/>
     </g>
     <g id="line2d_24">
      <g>
       <use xlink:href="#m11fb443883" x="64.2325" y="149.742352" style="fill: #555555; stroke: #555555; stroke-width: 0.8"/>
      </g>
     </g>
     <g id="text_13">
      <!-- 800k -->
      <g style="fill: #555555" transform="translate(32.354375 153.541571) scale(0.1 -0.1)">
       <use xlink:href="#DejaVuSans-38"/>
       <use xlink:href="#DejaVuSans-30" x="63.623047"/>
       <use xlink:href="#DejaVuSans-30" x="127.246094"/>
       <use xlink:href="#DejaVuSans-6b" x="190.869141"/>
      </g>
     </g>
    </g>
    <g id="ytick_6">
     <g id="line2d_25">
      <path d="M 64.2325 42.542503 
L 967.0765 42.542503 
" clip-path="url(#pceb64b2692)" style="fill: none; stroke: #ffffff; stroke-width: 0.8; stroke-linecap: square"/>
     </g>
     <g id="line2d_26">
      <g>
       <use xlink:href="#m11fb443883" x="64.2325" y="42.542503" style="fill: #555555; stroke: #555555; stroke-width: 0.8"/>
      </g>
     </g>
     <g id="text_14">
      <!-- 1,000k -->
      <g style="fill: #555555" transform="translate(22.81375 46.341722) scale(0.1 -0.1)">
       <defs>
        <path id="DejaVuSans-2c" d="M 750 794 
L 1409 794 
L 1409 256 
L 897 -744 
L 494 -744 
L 750 256 
L 750 794 
z
" transform="scale(0.015625)"/>
       </defs>
       <use xlink:href="#DejaVuSans-31"/>
       <use xlink:href="#DejaVuSans-2c" x="63.623047"/>
       <use xlink:href="#DejaVuSans-30" x="95.410156"/>
       <use xlink:href="#DejaVuSans-30" x="159.033203"/>
       <use xlink:href="#DejaVuSans-30" x="222.65625"/>
       <use xlink:href="#DejaVuSans-6b" x="286.279297"/>
      </g>
     </g>
    </g>
    <g id="text_15">
     <!-- Instances -->
     <g style="fill: #555555" transform="translate(16.318125 329.988) rotate(-90) scale(0.12 -0.12)">
      <defs>
       <path id="DejaVuSans-49" d="M 628 4666 
L 1259 4666 
L 1259 0 
L 628 0 
L 628 4666 
z
" transform="scale(0.015625)"/>
       <path id="DejaVuSans-6e" d="M 3513 2113 
L 3513 0 
L 2938 0 
L 2938 2094 
Q 2938 2591 2744 2837 
Q 2550 3084 2163 3084 
Q 1697 3084 1428 2787 
Q 1159 2491 1159 1978 
L 1159 0 
L 581 0 
L 581 3500 
L 1159 3500 
L 1159 2956 
Q 1366 3272 1645 3428 
Q 1925 3584 2291 3584 
Q 2894 3584 3203 3211 
Q 3513 2838 3513 2113 
z
" transform="scale(0.015625)"/>
       <path id="DejaVuSans-73" d="M 2834 3397 
L 2834 2853 
Q 2591 2978 2328 3040 
Q 2066 3103 1784 3103 
Q 1356 3103 1142 2972 
Q 928 2841 928 2578 
Q 928 2378 1081 2264 
Q 1234 2150 1697 2047 
L 1894 2003 
Q 2506 1872 2764 1633 
Q 3022 1394 3022 966 
Q 3022 478 2636 193 
Q 2250 -91 1575 -91 
Q 1294 -91 989 -36 
Q 684 19 347 128 
L 347 722 
Q 666 556 975 473 
Q 1284 391 1588 391 
Q 1994 391 2212 530 
Q 2431 669 2431 922 
Q 2431 1156 2273 1281 
Q 2116 1406 1581 1522 
L 1381 1569 
Q 847 1681 609 1914 
Q 372 2147 372 2553 
Q 372 3047 722 3315 
Q 1072 3584 1716 3584 
Q 2034 3584 2315 3537 
Q 2597 3491 2834 3397 
z
" transform="scale(0.015625)"/>
       <path id="DejaVuSans-63" d="M 3122 3366 
L 3122 2828 
Q 2878 2963 2633 3030 
Q 2388 3097 2138 3097 
Q 1578 3097 1268 2742 
Q 959 2388 959 1747 
Q 959 1106 1268 751 
Q 1578 397 2138 397 
Q 2388 397 2633 464 
Q 2878 531 3122 666 
L 3122 134 
Q 2881 22 2623 -34 
Q 2366 -91 2075 -91 
Q 1284 -91 818 406 
Q 353 903 353 1747 
Q 353 2603 823 3093 
Q 1294 3584 2113 3584 
Q 2378 3584 2631 3529 
Q 2884 3475 3122 3366 
z
" transform="scale(0.015625)"/>
      </defs>
      <use xlink:href="#DejaVuSans-49"/>
      <use xlink:href="#DejaVuSans-6e" x="29.492188"/>
      <use xlink:href="#DejaVuSans-73" x="92.871094"/>
      <use xlink:href="#DejaVuSans-74" x="144.970703"/>
      <use xlink:href="#DejaVuSans-61" x="184.179688"/>
      <use xlink:href="#DejaVuSans-6e" x="245.458984"/>
      <use xlink:href="#DejaVuSans-63" x="308.837891"/>
      <use xlink:href="#DejaVuSans-65" x="363.818359"/>
      <use xlink:href="#DejaVuSans-73" x="425.341797"/>
     </g>
    </g>
   </g>
   <g id="line2d_27">
    <path d="M 64.2325 453.768874 
L 73.352136 452.372366 
L 82.471773 450.975858 
L 91.591409 449.579351 
L 100.711045 448.182843 
L 109.830682 446.786335 
L 118.950318 445.389828 
L 128.069955 443.99332 
L 137.189591 442.596812 
L 146.309227 441.200305 
L 155.428864 439.803797 
L 164.5485 438.407289 
L 173.668136 437.010782 
L 182.787773 435.614274 
L 191.907409 434.217766 
L 201.027045 432.821259 
L 210.146682 431.424751 
L 219.266318 430.028243 
L 228.385955 428.631736 
L 237.505591 427.235228 
L 246.625227 425.83872 
L 255.744864 424.442213 
L 264.8645 423.045705 
L 273.984136 421.649197 
L 283.103773 420.25269 
L 292.223409 418.856182 
L 301.343045 417.459674 
L 310.462682 416.063167 
L 319.582318 414.666659 
L 328.701955 413.270151 
L 337.821591 411.873644 
L 346.941227 410.477136 
L 356.060864 409.080628 
L 365.1805 407.684121 
L 374.300136 406.287613 
L 383.419773 404.891105 
L 392.539409 403.494598 
L 401.659045 402.09809 
L 410.778682 400.701582 
L 419.898318 399.305075 
L 429.017955 397.908567 
L 438.137591 396.512059 
L 447.257227 395.115552 
L 456.376864 393.719044 
L 465.4965 392.322536 
L 474.616136 390.926029 
L 483.735773 389.529521 
L 492.855409 388.133013 
L 501.975045 386.736506 
L 511.094682 385.339998 
L 520.214318 383.943491 
L 529.333955 382.546983 
L 538.453591 381.150475 
L 547.573227 379.753968 
L 556.692864 378.35746 
L 565.8125 376.960952 
L 574.932136 375.564445 
L 584.051773 374.167937 
L 593.171409 372.771429 
L 602.291045 371.374922 
L 611.410682 369.978414 
L 620.530318 368.581906 
L 629.649955 367.185399 
L 638.769591 365.788891 
L 647.889227 364.392383 
L 657.008864 362.995876 
L 666.1285 361.599368 
L 675.248136 360.20286 
L 684.367773 358.806353 
L 693.487409 357.409845 
L 702.607045 356.013337 
L 711.726682 354.61683 
L 720.846318 353.220322 
L 729.965955 351.823814 
L 739.085591 350.427307 
L 748.205227 349.030799 
L 757.324864 347.634291 
L 766.4445 346.237784 
L 775.564136 344.841276 
L 784.683773 343.444768 
L 793.803409 342.048261 
L 802.923045 340.651753 
L 812.042682 339.255245 
L 821.162318 337.858738 
L 830.281955 336.46223 
L 839.401591 335.065722 
L 848.521227 333.669215 
L 857.640864 332.272707 
L 866.7605 330.876199 
L 875.880136 329.479692 
L 884.999773 328.083184 
L 894.119409 326.686676 
L 903.239045 325.290169 
L 912.358682 323.893661 
L 921.478318 322.497153 
L 930.597955 321.100646 
L 939.717591 319.704138 
L 948.837227 318.30763 
L 957.956864 316.911123 
L 967.0765 315.514615 
" clip-path="url(#pceb64b2692)" style="fill: none; stroke-dasharray: 3,4.95; stroke-dashoffset: 0; stroke: #4ac1fa; stroke-opacity: 0.9; stroke-width: 3"/>
   </g>
   <g id="line2d_28">
    <path d="M 64.2325 498.598107 
L 73.352136 499.346384 
L 82.471773 500.094661 
L 91.591409 500.842937 
L 100.711045 501.591214 
L 109.830682 502.339491 
L 118.950318 503.087767 
L 128.069955 503.836044 
L 137.189591 504.584321 
L 146.309227 505.332597 
L 155.428864 506.080874 
L 164.5485 506.829151 
L 173.668136 507.577428 
L 182.787773 508.325704 
L 191.907409 509.073981 
L 201.027045 509.822258 
L 210.146682 510.570534 
L 219.266318 511.318811 
L 228.385955 512.067088 
L 237.505591 512.815364 
L 246.625227 513.563641 
L 255.744864 514.311918 
L 264.8645 515.060195 
L 273.984136 515.808471 
L 283.103773 516.556748 
L 292.223409 517.305025 
L 301.343045 518.053301 
L 310.462682 518.801578 
L 319.582318 519.549855 
L 328.701955 520.298131 
L 337.821591 521.046408 
L 346.941227 521.794685 
L 356.060864 522.542961 
L 365.1805 523.291238 
L 374.300136 524.039515 
L 383.419773 524.787792 
L 392.539409 525.536068 
L 401.659045 526.284345 
L 410.778682 527.032622 
L 419.898318 527.780898 
L 429.017955 528.529175 
L 438.137591 529.277452 
L 447.257227 530.025728 
L 456.376864 530.774005 
L 465.4965 531.522282 
L 474.616136 532.270559 
L 483.735773 533.018835 
L 492.855409 533.767112 
L 501.975045 534.515389 
L 511.094682 535.263665 
L 520.214318 536.011942 
L 529.333955 536.760219 
L 538.453591 537.508495 
L 547.573227 538.256772 
L 556.692864 539.005049 
L 565.8125 539.753325 
L 574.932136 540.501602 
L 584.051773 541.249879 
L 593.171409 541.998156 
L 602.291045 542.746432 
L 611.410682 543.494709 
L 620.530318 544.242986 
L 629.649955 544.991262 
L 638.769591 545.739539 
L 647.889227 546.487816 
L 657.008864 547.236092 
L 666.1285 547.984369 
L 675.248136 548.732646 
L 684.367773 549.480923 
L 693.487409 550.229199 
L 702.607045 550.977476 
L 711.726682 551.725753 
L 720.846318 552.474029 
L 729.965955 553.222306 
L 739.085591 553.970583 
L 748.205227 554.718859 
L 757.324864 555.467136 
L 766.4445 556.215413 
L 775.564136 556.963689 
L 784.683773 557.711966 
L 793.803409 558.460243 
L 802.923045 559.20852 
L 812.042682 559.956796 
L 821.162318 560.705073 
L 830.281955 561.45335 
L 839.401591 562.201626 
L 848.521227 562.949903 
L 857.640864 563.69818 
L 866.7605 564.446456 
L 875.880136 565.194733 
L 884.999773 565.94301 
L 894.119409 566.691287 
L 903.239045 567.439563 
L 912.358682 568.18784 
L 921.478318 568.936117 
L 930.597955 569.684393 
L 939.717591 570.43267 
L 948.837227 571.180947 
L 957.956864 571.929223 
L 967.0765 572.6775 
" clip-path="url(#pceb64b2692)" style="fill: none; stroke-dasharray: 3,4.95; stroke-dashoffset: 0; stroke: #e9a942; stroke-opacity: 0.9; stroke-width: 3"/>
   </g>
   <g id="line2d_29">
    <path d="M 64.2325 516.881553 
L 73.352136 516.737362 
L 82.471773 516.593172 
L 91.591409 516.448981 
L 100.711045 516.304791 
L 109.830682 516.1606 
L 118.950318 516.01641 
L 128.069955 515.872219 
L 137.189591 515.728029 
L 146.309227 515.583838 
L 155.428864 515.439648 
L 164.5485 515.295457 
L 173.668136 515.151267 
L 182.787773 515.007076 
L 191.907409 514.862886 
L 201.027045 514.718695 
L 210.146682 514.574505 
L 219.266318 514.430314 
L 228.385955 514.286124 
L 237.505591 514.141933 
L 246.625227 513.997743 
L 255.744864 513.853552 
L 264.8645 513.709362 
L 273.984136 513.565171 
L 283.103773 513.420981 
L 292.223409 513.27679 
L 301.343045 513.1326 
L 310.462682 512.988409 
L 319.582318 512.844219 
L 328.701955 512.700028 
L 337.821591 512.555838 
L 346.941227 512.411647 
L 356.060864 512.267457 
L 365.1805 512.123266 
L 374.300136 511.979076 
L 383.419773 511.834885 
L 392.539409 511.690695 
L 401.659045 511.546504 
L 410.778682 511.402314 
L 419.898318 511.258123 
L 429.017955 511.113933 
L 438.137591 510.969742 
L 447.257227 510.825552 
L 456.376864 510.681361 
L 465.4965 510.537171 
L 474.616136 510.39298 
L 483.735773 510.24879 
L 492.855409 510.104599 
L 501.975045 509.960409 
L 511.094682 509.816218 
L 520.214318 509.672028 
L 529.333955 509.527838 
L 538.453591 509.383647 
L 547.573227 509.239457 
L 556.692864 509.095266 
L 565.8125 508.951076 
L 574.932136 508.806885 
L 584.051773 508.662695 
L 593.171409 508.518504 
L 602.291045 508.374314 
L 611.410682 508.230123 
L 620.530318 508.085933 
L 629.649955 507.941742 
L 638.769591 507.797552 
L 647.889227 507.653361 
L 657.008864 507.509171 
L 666.1285 507.36498 
L 675.248136 507.22079 
L 684.367773 507.076599 
L 693.487409 506.932409 
L 702.607045 506.788218 
L 711.726682 506.644028 
L 720.846318 506.499837 
L 729.965955 506.355647 
L 739.085591 506.211456 
L 748.205227 506.067266 
L 757.324864 505.923075 
L 766.4445 505.778885 
L 775.564136 505.634694 
L 784.683773 505.490504 
L 793.803409 505.346313 
L 802.923045 505.202123 
L 812.042682 505.057932 
L 821.162318 504.913742 
L 830.281955 504.769551 
L 839.401591 504.625361 
L 848.521227 504.48117 
L 857.640864 504.33698 
L 866.7605 504.192789 
L 875.880136 504.048599 
L 884.999773 503.904408 
L 894.119409 503.760218 
L 903.239045 503.616027 
L 912.358682 503.471837 
L 921.478318 503.327646 
L 930.597955 503.183456 
L 939.717591 503.039265 
L 948.837227 502.895075 
L 957.956864 502.750884 
L 967.0765 502.606694 
" clip-path="url(#pceb64b2692)" style="fill: none; stroke-dasharray: 3,4.95; stroke-dashoffset: 0; stroke: #9a5689; stroke-opacity: 0.9; stroke-width: 3"/>
   </g>
   <g id="line2d_30">
    <path d="M 64.2325 550.487945 
L 73.352136 550.295681 
L 82.471773 550.103418 
L 91.591409 549.911155 
L 100.711045 549.718892 
L 109.830682 549.526628 
L 118.950318 549.334365 
L 128.069955 549.142102 
L 137.189591 548.949839 
L 146.309227 548.757575 
L 155.428864 548.565312 
L 164.5485 548.373049 
L 173.668136 548.180786 
L 182.787773 547.988522 
L 191.907409 547.796259 
L 201.027045 547.603996 
L 210.146682 547.411733 
L 219.266318 547.219469 
L 228.385955 547.027206 
L 237.505591 546.834943 
L 246.625227 546.64268 
L 255.744864 546.450416 
L 264.8645 546.258153 
L 273.984136 546.06589 
L 283.103773 545.873627 
L 292.223409 545.681363 
L 301.343045 545.4891 
L 310.462682 545.296837 
L 319.582318 545.104574 
L 328.701955 544.91231 
L 337.821591 544.720047 
L 346.941227 544.527784 
L 356.060864 544.335521 
L 365.1805 544.143257 
L 374.300136 543.950994 
L 383.419773 543.758731 
L 392.539409 543.566468 
L 401.659045 543.374204 
L 410.778682 543.181941 
L 419.898318 542.989678 
L 429.017955 542.797415 
L 438.137591 542.605151 
L 447.257227 542.412888 
L 456.376864 542.220625 
L 465.4965 542.028362 
L 474.616136 541.836098 
L 483.735773 541.643835 
L 492.855409 541.451572 
L 501.975045 541.259309 
L 511.094682 541.067045 
L 520.214318 540.874782 
L 529.333955 540.682519 
L 538.453591 540.490256 
L 547.573227 540.297992 
L 556.692864 540.105729 
L 565.8125 539.913466 
L 574.932136 539.721203 
L 584.051773 539.528939 
L 593.171409 539.336676 
L 602.291045 539.144413 
L 611.410682 538.95215 
L 620.530318 538.759886 
L 629.649955 538.567623 
L 638.769591 538.37536 
L 647.889227 538.183097 
L 657.008864 537.990833 
L 666.1285 537.79857 
L 675.248136 537.606307 
L 684.367773 537.414044 
L 693.487409 537.22178 
L 702.607045 537.029517 
L 711.726682 536.837254 
L 720.846318 536.644991 
L 729.965955 536.452727 
L 739.085591 536.260464 
L 748.205227 536.068201 
L 757.324864 535.875938 
L 766.4445 535.683674 
L 775.564136 535.491411 
L 784.683773 535.299148 
L 793.803409 535.106885 
L 802.923045 534.914621 
L 812.042682 534.722358 
L 821.162318 534.530095 
L 830.281955 534.337832 
L 839.401591 534.145568 
L 848.521227 533.953305 
L 857.640864 533.761042 
L 866.7605 533.568779 
L 875.880136 533.376515 
L 884.999773 533.184252 
L 894.119409 532.991989 
L 903.239045 532.799726 
L 912.358682 532.607462 
L 921.478318 532.415199 
L 930.597955 532.222936 
L 939.717591 532.030673 
L 948.837227 531.838409 
L 957.956864 531.646146 
L 967.0765 531.453883 
" clip-path="url(#pceb64b2692)" style="fill: none; stroke-dasharray: 3,4.95; stroke-dashoffset: 0; stroke: #be503b; stroke-opacity: 0.9; stroke-width: 3"/>
   </g>
   <g id="line2d_31">
    <path d="M 64.2325 493.194077 
L 73.352136 492.841878 
L 82.471773 492.48968 
L 91.591409 492.137481 
L 100.711045 491.785282 
L 109.830682 491.433083 
L 118.950318 491.080884 
L 128.069955 490.728685 
L 137.189591 490.376487 
L 146.309227 490.024288 
L 155.428864 489.672089 
L 164.5485 489.31989 
L 173.668136 488.967691 
L 182.787773 488.615492 
L 191.907409 488.263294 
L 201.027045 487.911095 
L 210.146682 487.558896 
L 219.266318 487.206697 
L 228.385955 486.854498 
L 237.505591 486.502299 
L 246.625227 486.150101 
L 255.744864 485.797902 
L 264.8645 485.445703 
L 273.984136 485.093504 
L 283.103773 484.741305 
L 292.223409 484.389106 
L 301.343045 484.036908 
L 310.462682 483.684709 
L 319.582318 483.33251 
L 328.701955 482.980311 
L 337.821591 482.628112 
L 346.941227 482.275913 
L 356.060864 481.923715 
L 365.1805 481.571516 
L 374.300136 481.219317 
L 383.419773 480.867118 
L 392.539409 480.514919 
L 401.659045 480.162721 
L 410.778682 479.810522 
L 419.898318 479.458323 
L 429.017955 479.106124 
L 438.137591 478.753925 
L 447.257227 478.401726 
L 456.376864 478.049528 
L 465.4965 477.697329 
L 474.616136 477.34513 
L 483.735773 476.992931 
L 492.855409 476.640732 
L 501.975045 476.288533 
L 511.094682 475.936335 
L 520.214318 475.584136 
L 529.333955 475.231937 
L 538.453591 474.879738 
L 547.573227 474.527539 
L 556.692864 474.17534 
L 565.8125 473.823142 
L 574.932136 473.470943 
L 584.051773 473.118744 
L 593.171409 472.766545 
L 602.291045 472.414346 
L 611.410682 472.062147 
L 620.530318 471.709949 
L 629.649955 471.35775 
L 638.769591 471.005551 
L 647.889227 470.653352 
L 657.008864 470.301153 
L 666.1285 469.948954 
L 675.248136 469.596756 
L 684.367773 469.244557 
L 693.487409 468.892358 
L 702.607045 468.540159 
L 711.726682 468.18796 
L 720.846318 467.835761 
L 729.965955 467.483563 
L 739.085591 467.131364 
L 748.205227 466.779165 
L 757.324864 466.426966 
L 766.4445 466.074767 
L 775.564136 465.722568 
L 784.683773 465.37037 
L 793.803409 465.018171 
L 802.923045 464.665972 
L 812.042682 464.313773 
L 821.162318 463.961574 
L 830.281955 463.609376 
L 839.401591 463.257177 
L 848.521227 462.904978 
L 857.640864 462.552779 
L 866.7605 462.20058 
L 875.880136 461.848381 
L 884.999773 461.496183 
L 894.119409 461.143984 
L 903.239045 460.791785 
L 912.358682 460.439586 
L 921.478318 460.087387 
L 930.597955 459.735188 
L 939.717591 459.38299 
L 948.837227 459.030791 
L 957.956864 458.678592 
L 967.0765 458.326393 
" clip-path="url(#pceb64b2692)" style="fill: none; stroke-dasharray: 3,4.95; stroke-dashoffset: 0; stroke: #e2321d; stroke-opacity: 0.9; stroke-width: 3"/>
   </g>
   <g id="line2d_32">
    <path d="M 64.2325 306.886313 
L 73.352136 305.206866 
L 82.471773 303.527418 
L 91.591409 301.847971 
L 100.711045 300.168523 
L 109.830682 298.489076 
L 118.950318 296.809629 
L 128.069955 295.130181 
L 137.189591 293.450734 
L 146.309227 291.771286 
L 155.428864 290.091839 
L 164.5485 288.412391 
L 173.668136 286.732944 
L 182.787773 285.053496 
L 191.907409 283.374049 
L 201.027045 281.694601 
L 210.146682 280.015154 
L 219.266318 278.335707 
L 228.385955 276.656259 
L 237.505591 274.976812 
L 246.625227 273.297364 
L 255.744864 271.617917 
L 264.8645 269.938469 
L 273.984136 268.259022 
L 283.103773 266.579574 
L 292.223409 264.900127 
L 301.343045 263.220679 
L 310.462682 261.541232 
L 319.582318 259.861785 
L 328.701955 258.182337 
L 337.821591 256.50289 
L 346.941227 254.823442 
L 356.060864 253.143995 
L 365.1805 251.464547 
L 374.300136 249.7851 
L 383.419773 248.105652 
L 392.539409 246.426205 
L 401.659045 244.746757 
L 410.778682 243.06731 
L 419.898318 241.387863 
L 429.017955 239.708415 
L 438.137591 238.028968 
L 447.257227 236.34952 
L 456.376864 234.670073 
L 465.4965 232.990625 
L 474.616136 231.311178 
L 483.735773 229.63173 
L 492.855409 227.952283 
L 501.975045 226.272836 
L 511.094682 224.593388 
L 520.214318 222.913941 
L 529.333955 221.234493 
L 538.453591 219.555046 
L 547.573227 217.875598 
L 556.692864 216.196151 
L 565.8125 214.516703 
L 574.932136 212.837256 
L 584.051773 211.157808 
L 593.171409 209.478361 
L 602.291045 207.798914 
L 611.410682 206.119466 
L 620.530318 204.440019 
L 629.649955 202.760571 
L 638.769591 201.081124 
L 647.889227 199.401676 
L 657.008864 197.722229 
L 666.1285 196.042781 
L 675.248136 194.363334 
L 684.367773 192.683886 
L 693.487409 191.004439 
L 702.607045 189.324992 
L 711.726682 187.645544 
L 720.846318 185.966097 
L 729.965955 184.286649 
L 739.085591 182.607202 
L 748.205227 180.927754 
L 757.324864 179.248307 
L 766.4445 177.568859 
L 775.564136 175.889412 
L 784.683773 174.209964 
L 793.803409 172.530517 
L 802.923045 170.85107 
L 812.042682 169.171622 
L 821.162318 167.492175 
L 830.281955 165.812727 
L 839.401591 164.13328 
L 848.521227 162.453832 
L 857.640864 160.774385 
L 866.7605 159.094937 
L 875.880136 157.41549 
L 884.999773 155.736043 
L 894.119409 154.056595 
L 903.239045 152.377148 
L 912.358682 150.6977 
L 921.478318 149.018253 
L 930.597955 147.338805 
L 939.717591 145.659358 
L 948.837227 143.97991 
L 957.956864 142.300463 
L 967.0765 140.621015 
" clip-path="url(#pceb64b2692)" style="fill: none; stroke-dasharray: 3,4.95; stroke-dashoffset: 0; stroke: #48b585; stroke-opacity: 0.9; stroke-width: 3"/>
   </g>
   <g id="line2d_33">
    <path d="M 64.2325 479.693305 
L 81.935324 510.18791 
L 99.638147 506.383387 
L 117.340971 477.834459 
L 135.043794 472.865746 
L 152.746618 468.456081 
L 170.449441 470.304206 
L 188.152265 469.945087 
L 205.855088 469.261687 
L 223.557912 462.094842 
L 241.260735 456.466849 
L 258.963559 471.56434 
L 276.666382 441.832462 
L 294.369206 465.977084 
L 312.072029 457.380728 
L 329.774853 476.473021 
L 347.477676 477.180004 
L 365.1805 475.414423 
L 382.883324 473.873425 
L 400.586147 468.907928 
L 418.288971 298.472495 
L 435.991794 241.858111 
L 453.694618 259.345086 
L 471.397441 245.183986 
L 489.100265 261.424227 
L 506.803088 270.715238 
L 524.505912 273.686282 
L 542.208735 279.032339 
L 559.911559 308.666129 
L 577.614382 304.996142 
L 595.317206 285.842209 
L 613.020029 283.954956 
L 630.722853 287.435735 
L 648.425676 296.112491 
L 666.1285 303.173209 
L 683.831324 260.613797 
L 701.534147 334.723196 
L 719.236971 360.932488 
L 736.939794 377.90544 
L 754.642618 372.231352 
L 772.345441 385.443733 
L 790.048265 373.787358 
L 807.751088 367.658742 
L 825.453912 388.981864 
L 843.156735 364.033779 
L 860.859559 397.676844 
L 878.562382 382.211122 
L 896.265206 392.16838 
L 913.968029 392.788531 
L 931.670853 396.110118 
L 949.373676 389.657759 
L 967.0765 412.450591 
" clip-path="url(#pceb64b2692)" style="fill: none; stroke: #4ac1fa; stroke-width: 1.5; stroke-linecap: square"/>
   </g>
   <g id="line2d_34">
    <path d="M 64.2325 515.159839 
L 81.935324 510.02979 
L 99.638147 519.923264 
L 117.340971 496.438993 
L 135.043794 497.60908 
L 152.746618 494.812772 
L 170.449441 497.10524 
L 188.152265 500.566724 
L 205.855088 505.433597 
L 223.557912 512.632603 
L 241.260735 496.137226 
L 258.963559 523.696699 
L 276.666382 517.857523 
L 294.369206 509.920982 
L 312.072029 518.603098 
L 329.774853 522.418877 
L 347.477676 515.642238 
L 365.1805 518.344747 
L 382.883324 532.74919 
L 400.586147 540.953731 
L 418.288971 540.814371 
L 435.991794 521.499638 
L 453.694618 520.188048 
L 471.397441 481.353831 
L 489.100265 472.555403 
L 506.803088 519.880384 
L 524.505912 557.355308 
L 542.208735 559.554513 
L 559.911559 563.768003 
L 577.614382 561.918269 
L 595.317206 558.970809 
L 613.020029 556.9517 
L 630.722853 558.594002 
L 648.425676 556.955452 
L 666.1285 557.37246 
L 683.831324 555.371575 
L 701.534147 559.413545 
L 719.236971 554.154856 
L 736.939794 557.229884 
L 754.642618 559.104809 
L 772.345441 560.294728 
L 790.048265 561.147502 
L 807.751088 558.382818 
L 825.453912 561.834653 
L 843.156735 560.972767 
L 860.859559 559.678864 
L 878.562382 561.24291 
L 896.265206 561.480894 
L 913.968029 563.606131 
L 931.670853 565.031889 
L 949.373676 559.455889 
L 967.0765 560.993671 
" clip-path="url(#pceb64b2692)" style="fill: none; stroke: #e9a942; stroke-width: 1.5; stroke-linecap: square"/>
   </g>
   <g id="line2d_35">
    <path d="M 64.2325 513.008338 
L 81.935324 531.956983 
L 99.638147 532.360055 
L 117.340971 517.293116 
L 135.043794 516.153582 
L 152.746618 515.240239 
L 170.449441 513.157346 
L 188.152265 506.230092 
L 205.855088 501.848298 
L 223.557912 507.301018 
L 241.260735 507.032482 
L 258.963559 510.555069 
L 276.666382 510.667629 
L 294.369206 502.084137 
L 312.072029 509.345855 
L 329.774853 511.253477 
L 347.477676 513.083914 
L 365.1805 513.395866 
L 382.883324 510.692285 
L 400.586147 513.555593 
L 418.288971 505.410013 
L 435.991794 509.587591 
L 453.694618 512.426243 
L 471.397441 511.011205 
L 489.100265 514.798576 
L 506.803088 518.635258 
L 524.505912 510.038902 
L 542.208735 512.585971 
L 559.911559 529.925546 
L 577.614382 525.305769 
L 595.317206 514.70156 
L 613.020029 508.465744 
L 630.722853 508.325313 
L 648.425676 504.474158 
L 666.1285 509.338887 
L 683.831324 506.561875 
L 701.534147 506.667467 
L 719.236971 503.540447 
L 736.939794 504.281734 
L 754.642618 499.181165 
L 772.345441 500.604243 
L 790.048265 500.236548 
L 807.751088 503.996047 
L 825.453912 507.603322 
L 843.156735 506.059108 
L 860.859559 502.116833 
L 878.562382 491.514232 
L 896.265206 505.867756 
L 913.968029 503.140592 
L 931.670853 506.953691 
L 949.373676 505.514533 
L 967.0765 501.608706 
" clip-path="url(#pceb64b2692)" style="fill: none; stroke: #9a5689; stroke-width: 1.5; stroke-linecap: square"/>
   </g>
   <g id="line2d_36">
    <path d="M 64.2325 546.088068 
L 81.935324 567.433702 
L 99.638147 566.965238 
L 117.340971 555.294391 
L 135.043794 552.157187 
L 152.746618 555.064447 
L 170.449441 552.569906 
L 188.152265 545.278709 
L 205.855088 545.679636 
L 223.557912 548.6748 
L 241.260735 542.794888 
L 258.963559 540.884051 
L 276.666382 540.560843 
L 294.369206 541.78721 
L 312.072029 550.316566 
L 329.774853 547.573857 
L 347.477676 548.093241 
L 365.1805 549.352839 
L 382.883324 535.023435 
L 400.586147 545.049837 
L 418.288971 539.519397 
L 435.991794 538.736302 
L 453.694618 540.836883 
L 471.397441 545.358037 
L 489.100265 539.99322 
L 506.803088 529.432963 
L 524.505912 540.10578 
L 542.208735 538.765782 
L 559.911559 545.184373 
L 577.614382 529.315043 
L 595.317206 517.915411 
L 613.020029 517.907907 
L 630.722853 516.833765 
L 648.425676 525.670248 
L 666.1285 541.902449 
L 683.831324 539.246037 
L 701.534147 536.854409 
L 719.236971 531.717928 
L 736.939794 531.795648 
L 754.642618 532.479047 
L 772.345441 541.242098 
L 790.048265 533.827085 
L 807.751088 542.117921 
L 825.453912 546.185619 
L 843.156735 540.679299 
L 860.859559 540.502955 
L 878.562382 537.866911 
L 896.265206 538.905142 
L 913.968029 531.825128 
L 931.670853 542.834016 
L 949.373676 543.12024 
L 967.0765 535.167619 
" clip-path="url(#pceb64b2692)" style="fill: none; stroke: #be503b; stroke-width: 1.5; stroke-linecap: square"/>
   </g>
   <g id="line2d_37">
    <path d="M 64.2325 488.376493 
L 81.935324 518.970258 
L 99.638147 518.662058 
L 117.340971 495.295171 
L 135.043794 482.93074 
L 152.746618 485.396873 
L 170.449441 483.600739 
L 188.152265 483.736347 
L 205.855088 477.804443 
L 223.557912 475.353319 
L 241.260735 478.701706 
L 258.963559 480.2486 
L 276.666382 479.481585 
L 294.369206 461.913674 
L 312.072029 471.857532 
L 329.774853 480.231448 
L 347.477676 469.737655 
L 365.1805 481.198927 
L 382.883324 477.754596 
L 400.586147 486.830135 
L 418.288971 482.769405 
L 435.991794 473.826793 
L 453.694618 474.706368 
L 471.397441 483.781907 
L 489.100265 478.040283 
L 506.803088 481.657206 
L 524.505912 468.695672 
L 542.208735 473.408714 
L 559.911559 507.057138 
L 577.614382 500.601563 
L 595.317206 483.333812 
L 613.020029 464.501478 
L 630.722853 478.552698 
L 648.425676 475.103007 
L 666.1285 476.756029 
L 683.831324 481.092263 
L 701.534147 479.991856 
L 719.236971 479.915209 
L 736.939794 469.381751 
L 754.642618 462.727321 
L 772.345441 452.734151 
L 790.048265 457.5292 
L 807.751088 449.868699 
L 825.453912 463.566159 
L 843.156735 462.810401 
L 860.859559 456.771297 
L 878.562382 456.129706 
L 896.265206 452.648927 
L 913.968029 451.660544 
L 931.670853 457.836864 
L 949.373676 463.527568 
L 967.0765 460.46594 
" clip-path="url(#pceb64b2692)" style="fill: none; stroke: #e2321d; stroke-width: 1.5; stroke-linecap: square"/>
   </g>
   <g id="line2d_38">
    <path d="M 64.2325 284.094852 
L 81.935324 356.957517 
L 99.638147 347.224843 
L 117.340971 301.382971 
L 135.043794 266.50818 
L 152.746618 279.390386 
L 170.449441 254.305085 
L 188.152265 230.495999 
L 205.855088 186.442757 
L 223.557912 189.603008 
L 241.260735 215.11818 
L 258.963559 202.547926 
L 276.666382 223.379537 
L 294.369206 186.674308 
L 312.072029 235.984095 
L 329.774853 224.371671 
L 347.477676 245.31209 
L 365.1805 285.454682 
L 382.883324 261.262356 
L 400.586147 269.22516 
L 418.288971 262.363834 
L 435.991794 251.756409 
L 453.694618 240.401265 
L 471.397441 287.579919 
L 489.100265 311.239997 
L 506.803088 323.161693 
L 524.505912 320.103817 
L 542.208735 284.687131 
L 559.911559 378.740527 
L 577.614382 332.157368 
L 595.317206 230.057015 
L 613.020029 232.1785 
L 630.722853 234.525641 
L 648.425676 223.629312 
L 666.1285 241.919215 
L 683.831324 208.755333 
L 701.534147 180.470653 
L 719.236971 180.339333 
L 736.939794 161.972783 
L 754.642618 177.509793 
L 772.345441 121.900407 
L 790.048265 126.771033 
L 807.751088 203.333701 
L 825.453912 170.978106 
L 843.156735 217.026338 
L 860.859559 189.082017 
L 878.562382 151.380902 
L 896.265206 57.317322 
L 913.968029 50.2625 
L 931.670853 60.700013 
L 949.373676 93.898199 
L 967.0765 83.254862 
" clip-path="url(#pceb64b2692)" style="fill: none; stroke: #48b585; stroke-width: 6; stroke-linecap: square"/>
   </g>
   <g id="patch_3">
    <path d="M 64.2325 578.54175 
L 64.2325 24.14175 
" style="fill: none; stroke: #ffffff; stroke-linejoin: miter; stroke-linecap: square"/>
   </g>
   <g id="patch_4">
    <path d="M 967.0765 578.54175 
L 967.0765 24.14175 
" style="fill: none; stroke: #ffffff; stroke-linejoin: miter; stroke-linecap: square"/>
   </g>
   <g id="patch_5">
    <path d="M 64.2325 578.54175 
L 967.0765 578.54175 
" style="fill: none; stroke: #ffffff; stroke-linejoin: miter; stroke-linecap: square"/>
   </g>
   <g id="patch_6">
    <path d="M 64.2325 24.14175 
L 967.0765 24.14175 
" style="fill: none; stroke: #ffffff; stroke-linejoin: miter; stroke-linecap: square"/>
   </g>
   <g id="text_16">
    <!-- Potentially Ephemeral Enterprise Linux Instances by Distribution -->
    <g transform="translate(64.2325 18.14175) scale(0.144 -0.144)">
     <defs>
      <path id="DejaVuSans-50" d="M 1259 4147 
L 1259 2394 
L 2053 2394 
Q 2494 2394 2734 2622 
Q 2975 2850 2975 3272 
Q 2975 3691 2734 3919 
Q 2494 4147 2053 4147 
L 1259 4147 
z
M 628 4666 
L 2053 4666 
Q 2838 4666 3239 4311 
Q 3641 3956 3641 3272 
Q 3641 2581 3239 2228 
Q 2838 1875 2053 1875 
L 1259 1875 
L 1259 0 
L 628 0 
L 628 4666 
z
" transform="scale(0.015625)"/>
      <path id="DejaVuSans-6f" d="M 1959 3097 
Q 1497 3097 1228 2736 
Q 959 2375 959 1747 
Q 959 1119 1226 758 
Q 1494 397 1959 397 
Q 2419 397 2687 759 
Q 2956 1122 2956 1747 
Q 2956 2369 2687 2733 
Q 2419 3097 1959 3097 
z
M 1959 3584 
Q 2709 3584 3137 3096 
Q 3566 2609 3566 1747 
Q 3566 888 3137 398 
Q 2709 -91 1959 -91 
Q 1206 -91 779 398 
Q 353 888 353 1747 
Q 353 2609 779 3096 
Q 1206 3584 1959 3584 
z
" transform="scale(0.015625)"/>
      <path id="DejaVuSans-69" d="M 603 3500 
L 1178 3500 
L 1178 0 
L 603 0 
L 603 3500 
z
M 603 4863 
L 1178 4863 
L 1178 4134 
L 603 4134 
L 603 4863 
z
" transform="scale(0.015625)"/>
      <path id="DejaVuSans-6c" d="M 603 4863 
L 1178 4863 
L 1178 0 
L 603 0 
L 603 4863 
z
" transform="scale(0.015625)"/>
      <path id="DejaVuSans-79" d="M 2059 -325 
Q 1816 -950 1584 -1140 
Q 1353 -1331 966 -1331 
L 506 -1331 
L 506 -850 
L 844 -850 
Q 1081 -850 1212 -737 
Q 1344 -625 1503 -206 
L 1606 56 
L 191 3500 
L 800 3500 
L 1894 763 
L 2988 3500 
L 3597 3500 
L 2059 -325 
z
" transform="scale(0.015625)"/>
      <path id="DejaVuSans-20" transform="scale(0.015625)"/>
      <path id="DejaVuSans-45" d="M 628 4666 
L 3578 4666 
L 3578 4134 
L 1259 4134 
L 1259 2753 
L 3481 2753 
L 3481 2222 
L 1259 2222 
L 1259 531 
L 3634 531 
L 3634 0 
L 628 0 
L 628 4666 
z
" transform="scale(0.015625)"/>
      <path id="DejaVuSans-70" d="M 1159 525 
L 1159 -1331 
L 581 -1331 
L 581 3500 
L 1159 3500 
L 1159 2969 
Q 1341 3281 1617 3432 
Q 1894 3584 2278 3584 
Q 2916 3584 3314 3078 
Q 3713 2572 3713 1747 
Q 3713 922 3314 415 
Q 2916 -91 2278 -91 
Q 1894 -91 1617 61 
Q 1341 213 1159 525 
z
M 3116 1747 
Q 3116 2381 2855 2742 
Q 2594 3103 2138 3103 
Q 1681 3103 1420 2742 
Q 1159 2381 1159 1747 
Q 1159 1113 1420 752 
Q 1681 391 2138 391 
Q 2594 391 2855 752 
Q 3116 1113 3116 1747 
z
" transform="scale(0.015625)"/>
      <path id="DejaVuSans-68" d="M 3513 2113 
L 3513 0 
L 2938 0 
L 2938 2094 
Q 2938 2591 2744 2837 
Q 2550 3084 2163 3084 
Q 1697 3084 1428 2787 
Q 1159 2491 1159 1978 
L 1159 0 
L 581 0 
L 581 4863 
L 1159 4863 
L 1159 2956 
Q 1366 3272 1645 3428 
Q 1925 3584 2291 3584 
Q 2894 3584 3203 3211 
Q 3513 2838 3513 2113 
z
" transform="scale(0.015625)"/>
      <path id="DejaVuSans-6d" d="M 3328 2828 
Q 3544 3216 3844 3400 
Q 4144 3584 4550 3584 
Q 5097 3584 5394 3201 
Q 5691 2819 5691 2113 
L 5691 0 
L 5113 0 
L 5113 2094 
Q 5113 2597 4934 2840 
Q 4756 3084 4391 3084 
Q 3944 3084 3684 2787 
Q 3425 2491 3425 1978 
L 3425 0 
L 2847 0 
L 2847 2094 
Q 2847 2600 2669 2842 
Q 2491 3084 2119 3084 
Q 1678 3084 1418 2786 
Q 1159 2488 1159 1978 
L 1159 0 
L 581 0 
L 581 3500 
L 1159 3500 
L 1159 2956 
Q 1356 3278 1631 3431 
Q 1906 3584 2284 3584 
Q 2666 3584 2933 3390 
Q 3200 3197 3328 2828 
z
" transform="scale(0.015625)"/>
      <path id="DejaVuSans-72" d="M 2631 2963 
Q 2534 3019 2420 3045 
Q 2306 3072 2169 3072 
Q 1681 3072 1420 2755 
Q 1159 2438 1159 1844 
L 1159 0 
L 581 0 
L 581 3500 
L 1159 3500 
L 1159 2956 
Q 1341 3275 1631 3429 
Q 1922 3584 2338 3584 
Q 2397 3584 2469 3576 
Q 2541 3569 2628 3553 
L 2631 2963 
z
" transform="scale(0.015625)"/>
      <path id="DejaVuSans-4c" d="M 628 4666 
L 1259 4666 
L 1259 531 
L 3531 531 
L 3531 0 
L 628 0 
L 628 4666 
z
" transform="scale(0.015625)"/>
      <path id="DejaVuSans-75" d="M 544 1381 
L 544 3500 
L 1119 3500 
L 1119 1403 
Q 1119 906 1312 657 
Q 1506 409 1894 409 
Q 2359 409 2629 706 
Q 2900 1003 2900 1516 
L 2900 3500 
L 3475 3500 
L 3475 0 
L 2900 0 
L 2900 538 
Q 2691 219 2414 64 
Q 2138 -91 1772 -91 
Q 1169 -91 856 284 
Q 544 659 544 1381 
z
M 1991 3584 
L 1991 3584 
z
" transform="scale(0.015625)"/>
      <path id="DejaVuSans-78" d="M 3513 3500 
L 2247 1797 
L 3578 0 
L 2900 0 
L 1881 1375 
L 863 0 
L 184 0 
L 1544 1831 
L 300 3500 
L 978 3500 
L 1906 2253 
L 2834 3500 
L 3513 3500 
z
" transform="scale(0.015625)"/>
      <path id="DejaVuSans-62" d="M 3116 1747 
Q 3116 2381 2855 2742 
Q 2594 3103 2138 3103 
Q 1681 3103 1420 2742 
Q 1159 2381 1159 1747 
Q 1159 1113 1420 752 
Q 1681 391 2138 391 
Q 2594 391 2855 752 
Q 3116 1113 3116 1747 
z
M 1159 2969 
Q 1341 3281 1617 3432 
Q 1894 3584 2278 3584 
Q 2916 3584 3314 3078 
Q 3713 2572 3713 1747 
Q 3713 922 3314 415 
Q 2916 -91 2278 -91 
Q 1894 -91 1617 61 
Q 1341 213 1159 525 
L 1159 0 
L 581 0 
L 581 4863 
L 1159 4863 
L 1159 2969 
z
" transform="scale(0.015625)"/>
     </defs>
     <use xlink:href="#DejaVuSans-50"/>
     <use xlink:href="#DejaVuSans-6f" x="56.677734"/>
     <use xlink:href="#DejaVuSans-74" x="117.859375"/>
     <use xlink:href="#DejaVuSans-65" x="157.068359"/>
     <use xlink:href="#DejaVuSans-6e" x="218.591797"/>
     <use xlink:href="#DejaVuSans-74" x="281.970703"/>
     <use xlink:href="#DejaVuSans-69" x="321.179688"/>
     <use xlink:href="#DejaVuSans-61" x="348.962891"/>
     <use xlink:href="#DejaVuSans-6c" x="410.242188"/>
     <use xlink:href="#DejaVuSans-6c" x="438.025391"/>
     <use xlink:href="#DejaVuSans-79" x="465.808594"/>
     <use xlink:href="#DejaVuSans-20" x="524.988281"/>
     <use xlink:href="#DejaVuSans-45" x="556.775391"/>
     <use xlink:href="#DejaVuSans-70" x="619.958984"/>
     <use xlink:href="#DejaVuSans-68" x="683.435547"/>
     <use xlink:href="#DejaVuSans-65" x="746.814453"/>
     <use xlink:href="#DejaVuSans-6d" x="808.337891"/>
     <use xlink:href="#DejaVuSans-65" x="905.75"/>
     <use xlink:href="#DejaVuSans-72" x="967.273438"/>
     <use xlink:href="#DejaVuSans-61" x="1008.386719"/>
     <use xlink:href="#DejaVuSans-6c" x="1069.666016"/>
     <use xlink:href="#DejaVuSans-20" x="1097.449219"/>
     <use xlink:href="#DejaVuSans-45" x="1129.236328"/>
     <use xlink:href="#DejaVuSans-6e" x="1192.419922"/>
     <use xlink:href="#DejaVuSans-74" x="1255.798828"/>
     <use xlink:href="#DejaVuSans-65" x="1295.007812"/>
     <use xlink:href="#DejaVuSans-72" x="1356.53125"/>
     <use xlink:href="#DejaVuSans-70" x="1397.644531"/>
     <use xlink:href="#DejaVuSans-72" x="1461.121094"/>
     <use xlink:href="#DejaVuSans-69" x="1502.234375"/>
     <use xlink:href="#DejaVuSans-73" x="1530.017578"/>
     <use xlink:href="#DejaVuSans-65" x="1582.117188"/>
     <use xlink:href="#DejaVuSans-20" x="1643.640625"/>
     <use xlink:href="#DejaVuSans-4c" x="1675.427734"/>
     <use xlink:href="#DejaVuSans-69" x="1731.140625"/>
     <use xlink:href="#DejaVuSans-6e" x="1758.923828"/>
     <use xlink:href="#DejaVuSans-75" x="1822.302734"/>
     <use xlink:href="#DejaVuSans-78" x="1885.681641"/>
     <use xlink:href="#DejaVuSans-20" x="1944.861328"/>
     <use xlink:href="#DejaVuSans-49" x="1976.648438"/>
     <use xlink:href="#DejaVuSans-6e" x="2006.140625"/>
     <use xlink:href="#DejaVuSans-73" x="2069.519531"/>
     <use xlink:href="#DejaVuSans-74" x="2121.619141"/>
     <use xlink:href="#DejaVuSans-61" x="2160.828125"/>
     <use xlink:href="#DejaVuSans-6e" x="2222.107422"/>
     <use xlink:href="#DejaVuSans-63" x="2285.486328"/>
     <use xlink:href="#DejaVuSans-65" x="2340.466797"/>
     <use xlink:href="#DejaVuSans-73" x="2401.990234"/>
     <use xlink:href="#DejaVuSans-20" x="2454.089844"/>
     <use xlink:href="#DejaVuSans-62" x="2485.876953"/>
     <use xlink:href="#DejaVuSans-79" x="2549.353516"/>
     <use xlink:href="#DejaVuSans-20" x="2608.533203"/>
     <use xlink:href="#DejaVuSans-44" x="2640.320312"/>
     <use xlink:href="#DejaVuSans-69" x="2717.322266"/>
     <use xlink:href="#DejaVuSans-73" x="2745.105469"/>
     <use xlink:href="#DejaVuSans-74" x="2797.205078"/>
     <use xlink:href="#DejaVuSans-72" x="2836.414062"/>
     <use xlink:href="#DejaVuSans-69" x="2877.527344"/>
     <use xlink:href="#DejaVuSans-62" x="2905.310547"/>
     <use xlink:href="#DejaVuSans-75" x="2968.787109"/>
     <use xlink:href="#DejaVuSans-74" x="3032.166016"/>
     <use xlink:href="#DejaVuSans-69" x="3071.375"/>
     <use xlink:href="#DejaVuSans-6f" x="3099.158203"/>
     <use xlink:href="#DejaVuSans-6e" x="3160.339844"/>
    </g>
   </g>
   <g id="text_17">
    <!-- 2025-12-18 12:11 UTC -->
    <g transform="translate(804.1945 18.14175) scale(0.144 -0.144)">
     <defs>
      <path id="DejaVuSans-3a" d="M 750 794 
L 1409 794 
L 1409 0 
L 750 0 
L 750 794 
z
M 750 3309 
L 1409 3309 
L 1409 2516 
L 750 2516 
L 750 3309 
z
" transform="scale(0.015625)"/>
      <path id="DejaVuSans-55" d="M 556 4666 
L 1191 4666 
L 1191 1831 
Q 1191 1081 1462 751 
Q 1734 422 2344 422 
Q 2950 422 3222 751 
Q 3494 1081 3494 1831 
L 3494 4666 
L 4128 4666 
L 4128 1753 
Q 4128 841 3676 375 
Q 3225 -91 2344 -91 
Q 1459 -91 1007 375 
Q 556 841 556 1753 
L 556 4666 
z
" transform="scale(0.015625)"/>
      <path id="DejaVuSans-54" d="M -19 4666 
L 3928 4666 
L 3928 4134 
L 2272 4134 
L 2272 0 
L 1638 0 
L 1638 4134 
L -19 4134 
L -19 4666 
z
" transform="scale(0.015625)"/>
      <path id="DejaVuSans-43" d="M 4122 4306 
L 4122 3641 
Q 3803 3938 3442 4084 
Q 3081 4231 2675 4231 
Q 1875 4231 1450 3742 
Q 1025 3253 1025 2328 
Q 1025 1406 1450 917 
Q 1875 428 2675 428 
Q 3081 428 3442 575 
Q 3803 722 4122 1019 
L 4122 359 
Q 3791 134 3420 21 
Q 3050 -91 2638 -91 
Q 1578 -91 968 557 
Q 359 1206 359 2328 
Q 359 3453 968 4101 
Q 1578 4750 2638 4750 
Q 3056 4750 3426 4639 
Q 3797 4528 4122 4306 
z
" transform="scale(0.015625)"/>
     </defs>
     <use xlink:href="#DejaVuSans-32"/>
     <use xlink:href="#DejaVuSans-30" x="63.623047"/>
     <use xlink:href="#DejaVuSans-32" x="127.246094"/>
     <use xlink:href="#DejaVuSans-35" x="190.869141"/>
     <use xlink:href="#DejaVuSans-2d" x="254.492188"/>
     <use xlink:href="#DejaVuSans-31" x="290.576172"/>
     <use xlink:href="#DejaVuSans-32" x="354.199219"/>
     <use xlink:href="#DejaVuSans-2d" x="417.822266"/>
     <use xlink:href="#DejaVuSans-31" x="453.90625"/>
     <use xlink:href="#DejaVuSans-38" x="517.529297"/>
     <use xlink:href="#DejaVuSans-20" x="581.152344"/>
     <use xlink:href="#DejaVuSans-31" x="612.939453"/>
     <use xlink:href="#DejaVuSans-32" x="676.5625"/>
     <use xlink:href="#DejaVuSans-3a" x="740.185547"/>
     <use xlink:href="#DejaVuSans-31" x="773.876953"/>
     <use xlink:href="#DejaVuSans-31" x="837.5"/>
     <use xlink:href="#DejaVuSans-20" x="901.123047"/>
     <use xlink:href="#DejaVuSans-55" x="932.910156"/>
     <use xlink:href="#DejaVuSans-54" x="1006.103516"/>
     <use xlink:href="#DejaVuSans-43" x="1061.3125"/>
    </g>
   </g>
   <g id="legend_1">
    <g id="patch_7">
     <path d="M 71.2325 134.888625 
L 180.20125 134.888625 
Q 182.20125 134.888625 182.20125 132.888625 
L 182.20125 31.14175 
Q 182.20125 29.14175 180.20125 29.14175 
L 71.2325 29.14175 
Q 69.2325 29.14175 69.2325 31.14175 
L 69.2325 132.888625 
Q 69.2325 134.888625 71.2325 134.888625 
z
" style="fill: #e5e5e5; opacity: 0.8; stroke: #cccccc; stroke-width: 0.5; stroke-linejoin: miter"/>
    </g>
    <g id="text_18">
     <!-- Distribution -->
     <g transform="translate(96.548125 40.740188) scale(0.1 -0.1)">
      <use xlink:href="#DejaVuSans-44"/>
      <use xlink:href="#DejaVuSans-69" x="77.001953"/>
      <use xlink:href="#DejaVuSans-73" x="104.785156"/>
      <use xlink:href="#DejaVuSans-74" x="156.884766"/>
      <use xlink:href="#DejaVuSans-72" x="196.09375"/>
      <use xlink:href="#DejaVuSans-69" x="237.207031"/>
      <use xlink:href="#DejaVuSans-62" x="264.990234"/>
      <use xlink:href="#DejaVuSans-75" x="328.466797"/>
      <use xlink:href="#DejaVuSans-74" x="391.845703"/>
      <use xlink:href="#DejaVuSans-69" x="431.054688"/>
      <use xlink:href="#DejaVuSans-6f" x="458.837891"/>
      <use xlink:href="#DejaVuSans-6e" x="520.019531"/>
     </g>
    </g>
    <g id="line2d_39">
     <path d="M 73.2325 51.918313 
L 83.2325 51.918313 
L 93.2325 51.918313 
" style="fill: none; stroke: #4ac1fa; stroke-width: 1.5; stroke-linecap: square"/>
    </g>
    <g id="text_19">
     <!-- AlmaLinux -->
     <g transform="translate(101.2325 55.418313) scale(0.1 -0.1)">
      <defs>
       <path id="DejaVuSans-41" d="M 2188 4044 
L 1331 1722 
L 3047 1722 
L 2188 4044 
z
M 1831 4666 
L 2547 4666 
L 4325 0 
L 3669 0 
L 3244 1197 
L 1141 1197 
L 716 0 
L 50 0 
L 1831 4666 
z
" transform="scale(0.015625)"/>
      </defs>
      <use xlink:href="#DejaVuSans-41"/>
      <use xlink:href="#DejaVuSans-6c" x="68.408203"/>
      <use xlink:href="#DejaVuSans-6d" x="96.191406"/>
      <use xlink:href="#DejaVuSans-61" x="193.603516"/>
      <use xlink:href="#DejaVuSans-4c" x="254.882812"/>
      <use xlink:href="#DejaVuSans-69" x="310.595703"/>
      <use xlink:href="#DejaVuSans-6e" x="338.378906"/>
      <use xlink:href="#DejaVuSans-75" x="401.757812"/>
      <use xlink:href="#DejaVuSans-78" x="465.136719"/>
     </g>
    </g>
    <g id="line2d_40">
     <path d="M 73.2325 66.596438 
L 83.2325 66.596438 
L 93.2325 66.596438 
" style="fill: none; stroke: #e9a942; stroke-width: 1.5; stroke-linecap: square"/>
    </g>
    <g id="text_20">
     <!-- CentOS Legacy -->
     <g transform="translate(101.2325 70.096438) scale(0.1 -0.1)">
      <defs>
       <path id="DejaVuSans-4f" d="M 2522 4238 
Q 1834 4238 1429 3725 
Q 1025 3213 1025 2328 
Q 1025 1447 1429 934 
Q 1834 422 2522 422 
Q 3209 422 3611 934 
Q 4013 1447 4013 2328 
Q 4013 3213 3611 3725 
Q 3209 4238 2522 4238 
z
M 2522 4750 
Q 3503 4750 4090 4092 
Q 4678 3434 4678 2328 
Q 4678 1225 4090 567 
Q 3503 -91 2522 -91 
Q 1538 -91 948 565 
Q 359 1222 359 2328 
Q 359 3434 948 4092 
Q 1538 4750 2522 4750 
z
" transform="scale(0.015625)"/>
       <path id="DejaVuSans-53" d="M 3425 4513 
L 3425 3897 
Q 3066 4069 2747 4153 
Q 2428 4238 2131 4238 
Q 1616 4238 1336 4038 
Q 1056 3838 1056 3469 
Q 1056 3159 1242 3001 
Q 1428 2844 1947 2747 
L 2328 2669 
Q 3034 2534 3370 2195 
Q 3706 1856 3706 1288 
Q 3706 609 3251 259 
Q 2797 -91 1919 -91 
Q 1588 -91 1214 -16 
Q 841 59 441 206 
L 441 856 
Q 825 641 1194 531 
Q 1563 422 1919 422 
Q 2459 422 2753 634 
Q 3047 847 3047 1241 
Q 3047 1584 2836 1778 
Q 2625 1972 2144 2069 
L 1759 2144 
Q 1053 2284 737 2584 
Q 422 2884 422 3419 
Q 422 4038 858 4394 
Q 1294 4750 2059 4750 
Q 2388 4750 2728 4690 
Q 3069 4631 3425 4513 
z
" transform="scale(0.015625)"/>
       <path id="DejaVuSans-67" d="M 2906 1791 
Q 2906 2416 2648 2759 
Q 2391 3103 1925 3103 
Q 1463 3103 1205 2759 
Q 947 2416 947 1791 
Q 947 1169 1205 825 
Q 1463 481 1925 481 
Q 2391 481 2648 825 
Q 2906 1169 2906 1791 
z
M 3481 434 
Q 3481 -459 3084 -895 
Q 2688 -1331 1869 -1331 
Q 1566 -1331 1297 -1286 
Q 1028 -1241 775 -1147 
L 775 -588 
Q 1028 -725 1275 -790 
Q 1522 -856 1778 -856 
Q 2344 -856 2625 -561 
Q 2906 -266 2906 331 
L 2906 616 
Q 2728 306 2450 153 
Q 2172 0 1784 0 
Q 1141 0 747 490 
Q 353 981 353 1791 
Q 353 2603 747 3093 
Q 1141 3584 1784 3584 
Q 2172 3584 2450 3431 
Q 2728 3278 2906 2969 
L 2906 3500 
L 3481 3500 
L 3481 434 
z
" transform="scale(0.015625)"/>
      </defs>
      <use xlink:href="#DejaVuSans-43"/>
      <use xlink:href="#DejaVuSans-65" x="69.824219"/>
      <use xlink:href="#DejaVuSans-6e" x="131.347656"/>
      <use xlink:href="#DejaVuSans-74" x="194.726562"/>
      <use xlink:href="#DejaVuSans-4f" x="233.935547"/>
      <use xlink:href="#DejaVuSans-53" x="312.646484"/>
      <use xlink:href="#DejaVuSans-20" x="376.123047"/>
      <use xlink:href="#DejaVuSans-4c" x="407.910156"/>
      <use xlink:href="#DejaVuSans-65" x="461.873047"/>
      <use xlink:href="#DejaVuSans-67" x="523.396484"/>
      <use xlink:href="#DejaVuSans-61" x="586.873047"/>
      <use xlink:href="#DejaVuSans-63" x="648.152344"/>
      <use xlink:href="#DejaVuSans-79" x="703.132812"/>
     </g>
    </g>
    <g id="line2d_41">
     <path d="M 73.2325 81.274563 
L 83.2325 81.274563 
L 93.2325 81.274563 
" style="fill: none; stroke: #9a5689; stroke-width: 1.5; stroke-linecap: square"/>
    </g>
    <g id="text_21">
     <!-- CentOS Stream -->
     <g transform="translate(101.2325 84.774563) scale(0.1 -0.1)">
      <use xlink:href="#DejaVuSans-43"/>
      <use xlink:href="#DejaVuSans-65" x="69.824219"/>
      <use xlink:href="#DejaVuSans-6e" x="131.347656"/>
      <use xlink:href="#DejaVuSans-74" x="194.726562"/>
      <use xlink:href="#DejaVuSans-4f" x="233.935547"/>
      <use xlink:href="#DejaVuSans-53" x="312.646484"/>
      <use xlink:href="#DejaVuSans-20" x="376.123047"/>
      <use xlink:href="#DejaVuSans-53" x="407.910156"/>
      <use xlink:href="#DejaVuSans-74" x="471.386719"/>
      <use xlink:href="#DejaVuSans-72" x="510.595703"/>
      <use xlink:href="#DejaVuSans-65" x="549.458984"/>
      <use xlink:href="#DejaVuSans-61" x="610.982422"/>
      <use xlink:href="#DejaVuSans-6d" x="672.261719"/>
     </g>
    </g>
    <g id="line2d_42">
     <path d="M 73.2325 95.952688 
L 83.2325 95.952688 
L 93.2325 95.952688 
" style="fill: none; stroke: #be503b; stroke-width: 1.5; stroke-linecap: square"/>
    </g>
    <g id="text_22">
     <!-- Oracle -->
     <g transform="translate(101.2325 99.452688) scale(0.1 -0.1)">
      <use xlink:href="#DejaVuSans-4f"/>
      <use xlink:href="#DejaVuSans-72" x="78.710938"/>
      <use xlink:href="#DejaVuSans-61" x="119.824219"/>
      <use xlink:href="#DejaVuSans-63" x="181.103516"/>
      <use xlink:href="#DejaVuSans-6c" x="236.083984"/>
      <use xlink:href="#DejaVuSans-65" x="263.867188"/>
     </g>
    </g>
    <g id="line2d_43">
     <path d="M 73.2325 110.630813 
L 83.2325 110.630813 
L 93.2325 110.630813 
" style="fill: none; stroke: #e2321d; stroke-width: 1.5; stroke-linecap: square"/>
    </g>
    <g id="text_23">
     <!-- RHEL -->
     <g transform="translate(101.2325 114.130813) scale(0.1 -0.1)">
      <defs>
       <path id="DejaVuSans-52" d="M 2841 2188 
Q 3044 2119 3236 1894 
Q 3428 1669 3622 1275 
L 4263 0 
L 3584 0 
L 2988 1197 
Q 2756 1666 2539 1819 
Q 2322 1972 1947 1972 
L 1259 1972 
L 1259 0 
L 628 0 
L 628 4666 
L 2053 4666 
Q 2853 4666 3247 4331 
Q 3641 3997 3641 3322 
Q 3641 2881 3436 2590 
Q 3231 2300 2841 2188 
z
M 1259 4147 
L 1259 2491 
L 2053 2491 
Q 2509 2491 2742 2702 
Q 2975 2913 2975 3322 
Q 2975 3731 2742 3939 
Q 2509 4147 2053 4147 
L 1259 4147 
z
" transform="scale(0.015625)"/>
       <path id="DejaVuSans-48" d="M 628 4666 
L 1259 4666 
L 1259 2753 
L 3553 2753 
L 3553 4666 
L 4184 4666 
L 4184 0 
L 3553 0 
L 3553 2222 
L 1259 2222 
L 1259 0 
L 628 0 
L 628 4666 
z
" transform="scale(0.015625)"/>
      </defs>
      <use xlink:href="#DejaVuSans-52"/>
      <use xlink:href="#DejaVuSans-48" x="69.482422"/>
      <use xlink:href="#DejaVuSans-45" x="144.677734"/>
      <use xlink:href="#DejaVuSans-4c" x="207.861328"/>
     </g>
    </g>
    <g id="line2d_44">
     <path d="M 73.2325 125.308938 
L 83.2325 125.308938 
L 93.2325 125.308938 
" style="fill: none; stroke: #48b585; stroke-width: 6; stroke-linecap: square"/>
    </g>
    <g id="text_24">
     <!-- Rocky Linux -->
     <g transform="translate(101.2325 128.808938) scale(0.1 -0.1)">
      <use xlink:href="#DejaVuSans-52"/>
      <use xlink:href="#DejaVuSans-6f" x="64.982422"/>
      <use xlink:href="#DejaVuSans-63" x="126.164062"/>
      <use xlink:href="#DejaVuSans-6b" x="181.144531"/>
      <use xlink:href="#DejaVuSans-79" x="235.429688"/>
      <use xlink:href="#DejaVuSans-20" x="294.609375"/>
      <use xlink:href="#DejaVuSans-4c" x="326.396484"/>
      <use xlink:href="#DejaVuSans-69" x="382.109375"/>
      <use xlink:href="#DejaVuSans-6e" x="409.892578"/>
      <use xlink:href="#DejaVuSans-75" x="473.271484"/>
      <use xlink:href="#DejaVuSans-78" x="536.650391"/>
     </g>
    </g>
   </g>
  </g>
 </g>
 <defs>
  <clipPath id="pceb64b2692">
   <rect x="64.2325" y="24.14175" width="902.844" height="554.4"/>
  </clipPath>
 </defs>
</svg>
