<?xml version="1.0" encoding="utf-8" standalone="no"?>
<!DOCTYPE svg PUBLIC "-//W3C//DTD SVG 1.1//EN"
  "http://www.w3.org/Graphics/SVG/1.1/DTD/svg11.dtd">
<svg xmlns:xlink="http://www.w3.org/1999/xlink" width="962.123375pt" height="644.743878pt" viewBox="0 0 962.123375 644.743878" xmlns="http://www.w3.org/2000/svg" version="1.1">
 <metadata>
  <rdf:RDF xmlns:dc="http://purl.org/dc/elements/1.1/" xmlns:cc="http://creativecommons.org/ns#" xmlns:rdf="http://www.w3.org/1999/02/22-rdf-syntax-ns#">
   <cc:Work>
    <dc:type rdf:resource="http://purl.org/dc/dcmitype/StillImage"/>
    <dc:date>2025-08-07T11:55:38.880979</dc:date>
    <dc:format>image/svg+xml</dc:format>
    <dc:creator>
     <cc:Agent>
      <dc:title>Matplotlib v3.6.3, https://matplotlib.org/</dc:title>
     </cc:Agent>
    </dc:creator>
   </cc:Work>
  </rdf:RDF>
 </metadata>
 <defs>
  <style type="text/css">*{stroke-linejoin: round; stroke-linecap: butt}</style>
 </defs>
 <g id="figure_1">
  <g id="patch_1">
   <path d="M 0 644.743878 
L 962.123375 644.743878 
L 962.123375 0 
L 0 0 
z
" style="fill: #ffffff"/>
  </g>
  <g id="axes_1">
   <g id="patch_2">
    <path d="M 52.079375 578.54175 
L 954.923375 578.54175 
L 954.923375 24.14175 
L 52.079375 24.14175 
z
" style="fill: #e5e5e5"/>
   </g>
   <g id="matplotlib.axis_1">
    <g id="xtick_1">
     <g id="line2d_1">
      <path d="M 72.311173 578.54175 
L 72.311173 24.14175 
" clip-path="url(#pbdb5420484)" style="fill: none; stroke: #ffffff; stroke-width: 0.8; stroke-linecap: square"/>
     </g>
     <g id="line2d_2">
      <defs>
       <path id="maa5590115a" d="M 0 0 
L 0 3.5 
" style="stroke: #555555; stroke-width: 0.8"/>
      </defs>
      <g>
       <use xlink:href="#maa5590115a" x="72.311173" y="578.54175" style="fill: #555555; stroke: #555555; stroke-width: 0.8"/>
      </g>
     </g>
     <g id="text_1">
      <!-- 2024-08 -->
      <g style="fill: #555555" transform="translate(59.489891 620.459567) rotate(-45) scale(0.1 -0.1)">
       <defs>
        <path id="DejaVuSans-32" d="M 1228 531 
L 3431 531 
L 3431 0 
L 469 0 
L 469 531 
Q 828 903 1448 1529 
Q 2069 2156 2228 2338 
Q 2531 2678 2651 2914 
Q 2772 3150 2772 3378 
Q 2772 3750 2511 3984 
Q 2250 4219 1831 4219 
Q 1534 4219 1204 4116 
Q 875 4013 500 3803 
L 500 4441 
Q 881 4594 1212 4672 
Q 1544 4750 1819 4750 
Q 2544 4750 2975 4387 
Q 3406 4025 3406 3419 
Q 3406 3131 3298 2873 
Q 3191 2616 2906 2266 
Q 2828 2175 2409 1742 
Q 1991 1309 1228 531 
z
" transform="scale(0.015625)"/>
        <path id="DejaVuSans-30" d="M 2034 4250 
Q 1547 4250 1301 3770 
Q 1056 3291 1056 2328 
Q 1056 1369 1301 889 
Q 1547 409 2034 409 
Q 2525 409 2770 889 
Q 3016 1369 3016 2328 
Q 3016 3291 2770 3770 
Q 2525 4250 2034 4250 
z
M 2034 4750 
Q 2819 4750 3233 4129 
Q 3647 3509 3647 2328 
Q 3647 1150 3233 529 
Q 2819 -91 2034 -91 
Q 1250 -91 836 529 
Q 422 1150 422 2328 
Q 422 3509 836 4129 
Q 1250 4750 2034 4750 
z
" transform="scale(0.015625)"/>
        <path id="DejaVuSans-34" d="M 2419 4116 
L 825 1625 
L 2419 1625 
L 2419 4116 
z
M 2253 4666 
L 3047 4666 
L 3047 1625 
L 3713 1625 
L 3713 1100 
L 3047 1100 
L 3047 0 
L 2419 0 
L 2419 1100 
L 313 1100 
L 313 1709 
L 2253 4666 
z
" transform="scale(0.015625)"/>
        <path id="DejaVuSans-2d" d="M 313 2009 
L 1997 2009 
L 1997 1497 
L 313 1497 
L 313 2009 
z
" transform="scale(0.015625)"/>
        <path id="DejaVuSans-38" d="M 2034 2216 
Q 1584 2216 1326 1975 
Q 1069 1734 1069 1313 
Q 1069 891 1326 650 
Q 1584 409 2034 409 
Q 2484 409 2743 651 
Q 3003 894 3003 1313 
Q 3003 1734 2745 1975 
Q 2488 2216 2034 2216 
z
M 1403 2484 
Q 997 2584 770 2862 
Q 544 3141 544 3541 
Q 544 4100 942 4425 
Q 1341 4750 2034 4750 
Q 2731 4750 3128 4425 
Q 3525 4100 3525 3541 
Q 3525 3141 3298 2862 
Q 3072 2584 2669 2484 
Q 3125 2378 3379 2068 
Q 3634 1759 3634 1313 
Q 3634 634 3220 271 
Q 2806 -91 2034 -91 
Q 1263 -91 848 271 
Q 434 634 434 1313 
Q 434 1759 690 2068 
Q 947 2378 1403 2484 
z
M 1172 3481 
Q 1172 3119 1398 2916 
Q 1625 2713 2034 2713 
Q 2441 2713 2670 2916 
Q 2900 3119 2900 3481 
Q 2900 3844 2670 4047 
Q 2441 4250 2034 4250 
Q 1625 4250 1398 4047 
Q 1172 3844 1172 3481 
z
" transform="scale(0.015625)"/>
       </defs>
       <use xlink:href="#DejaVuSans-32"/>
       <use xlink:href="#DejaVuSans-30" x="63.623047"/>
       <use xlink:href="#DejaVuSans-32" x="127.246094"/>
       <use xlink:href="#DejaVuSans-34" x="190.869141"/>
       <use xlink:href="#DejaVuSans-2d" x="254.492188"/>
       <use xlink:href="#DejaVuSans-30" x="290.576172"/>
       <use xlink:href="#DejaVuSans-38" x="354.199219"/>
      </g>
     </g>
    </g>
    <g id="xtick_2">
     <g id="line2d_3">
      <path d="M 150.709392 578.54175 
L 150.709392 24.14175 
" clip-path="url(#pbdb5420484)" style="fill: none; stroke: #ffffff; stroke-width: 0.8; stroke-linecap: square"/>
     </g>
     <g id="line2d_4">
      <g>
       <use xlink:href="#maa5590115a" x="150.709392" y="578.54175" style="fill: #555555; stroke: #555555; stroke-width: 0.8"/>
      </g>
     </g>
     <g id="text_2">
      <!-- 2024-09 -->
      <g style="fill: #555555" transform="translate(137.88811 620.459567) rotate(-45) scale(0.1 -0.1)">
       <defs>
        <path id="DejaVuSans-39" d="M 703 97 
L 703 672 
Q 941 559 1184 500 
Q 1428 441 1663 441 
Q 2288 441 2617 861 
Q 2947 1281 2994 2138 
Q 2813 1869 2534 1725 
Q 2256 1581 1919 1581 
Q 1219 1581 811 2004 
Q 403 2428 403 3163 
Q 403 3881 828 4315 
Q 1253 4750 1959 4750 
Q 2769 4750 3195 4129 
Q 3622 3509 3622 2328 
Q 3622 1225 3098 567 
Q 2575 -91 1691 -91 
Q 1453 -91 1209 -44 
Q 966 3 703 97 
z
M 1959 2075 
Q 2384 2075 2632 2365 
Q 2881 2656 2881 3163 
Q 2881 3666 2632 3958 
Q 2384 4250 1959 4250 
Q 1534 4250 1286 3958 
Q 1038 3666 1038 3163 
Q 1038 2656 1286 2365 
Q 1534 2075 1959 2075 
z
" transform="scale(0.015625)"/>
       </defs>
       <use xlink:href="#DejaVuSans-32"/>
       <use xlink:href="#DejaVuSans-30" x="63.623047"/>
       <use xlink:href="#DejaVuSans-32" x="127.246094"/>
       <use xlink:href="#DejaVuSans-34" x="190.869141"/>
       <use xlink:href="#DejaVuSans-2d" x="254.492188"/>
       <use xlink:href="#DejaVuSans-30" x="290.576172"/>
       <use xlink:href="#DejaVuSans-39" x="354.199219"/>
      </g>
     </g>
    </g>
    <g id="xtick_3">
     <g id="line2d_5">
      <path d="M 226.578636 578.54175 
L 226.578636 24.14175 
" clip-path="url(#pbdb5420484)" style="fill: none; stroke: #ffffff; stroke-width: 0.8; stroke-linecap: square"/>
     </g>
     <g id="line2d_6">
      <g>
       <use xlink:href="#maa5590115a" x="226.578636" y="578.54175" style="fill: #555555; stroke: #555555; stroke-width: 0.8"/>
      </g>
     </g>
     <g id="text_3">
      <!-- 2024-10 -->
      <g style="fill: #555555" transform="translate(213.757353 620.459567) rotate(-45) scale(0.1 -0.1)">
       <defs>
        <path id="DejaVuSans-31" d="M 794 531 
L 1825 531 
L 1825 4091 
L 703 3866 
L 703 4441 
L 1819 4666 
L 2450 4666 
L 2450 531 
L 3481 531 
L 3481 0 
L 794 0 
L 794 531 
z
" transform="scale(0.015625)"/>
       </defs>
       <use xlink:href="#DejaVuSans-32"/>
       <use xlink:href="#DejaVuSans-30" x="63.623047"/>
       <use xlink:href="#DejaVuSans-32" x="127.246094"/>
       <use xlink:href="#DejaVuSans-34" x="190.869141"/>
       <use xlink:href="#DejaVuSans-2d" x="254.492188"/>
       <use xlink:href="#DejaVuSans-31" x="290.576172"/>
       <use xlink:href="#DejaVuSans-30" x="354.199219"/>
      </g>
     </g>
    </g>
    <g id="xtick_4">
     <g id="line2d_7">
      <path d="M 304.976854 578.54175 
L 304.976854 24.14175 
" clip-path="url(#pbdb5420484)" style="fill: none; stroke: #ffffff; stroke-width: 0.8; stroke-linecap: square"/>
     </g>
     <g id="line2d_8">
      <g>
       <use xlink:href="#maa5590115a" x="304.976854" y="578.54175" style="fill: #555555; stroke: #555555; stroke-width: 0.8"/>
      </g>
     </g>
     <g id="text_4">
      <!-- 2024-11 -->
      <g style="fill: #555555" transform="translate(292.155572 620.459567) rotate(-45) scale(0.1 -0.1)">
       <use xlink:href="#DejaVuSans-32"/>
       <use xlink:href="#DejaVuSans-30" x="63.623047"/>
       <use xlink:href="#DejaVuSans-32" x="127.246094"/>
       <use xlink:href="#DejaVuSans-34" x="190.869141"/>
       <use xlink:href="#DejaVuSans-2d" x="254.492188"/>
       <use xlink:href="#DejaVuSans-31" x="290.576172"/>
       <use xlink:href="#DejaVuSans-31" x="354.199219"/>
      </g>
     </g>
    </g>
    <g id="xtick_5">
     <g id="line2d_9">
      <path d="M 380.846098 578.54175 
L 380.846098 24.14175 
" clip-path="url(#pbdb5420484)" style="fill: none; stroke: #ffffff; stroke-width: 0.8; stroke-linecap: square"/>
     </g>
     <g id="line2d_10">
      <g>
       <use xlink:href="#maa5590115a" x="380.846098" y="578.54175" style="fill: #555555; stroke: #555555; stroke-width: 0.8"/>
      </g>
     </g>
     <g id="text_5">
      <!-- 2024-12 -->
      <g style="fill: #555555" transform="translate(368.024815 620.459567) rotate(-45) scale(0.1 -0.1)">
       <use xlink:href="#DejaVuSans-32"/>
       <use xlink:href="#DejaVuSans-30" x="63.623047"/>
       <use xlink:href="#DejaVuSans-32" x="127.246094"/>
       <use xlink:href="#DejaVuSans-34" x="190.869141"/>
       <use xlink:href="#DejaVuSans-2d" x="254.492188"/>
       <use xlink:href="#DejaVuSans-31" x="290.576172"/>
       <use xlink:href="#DejaVuSans-32" x="354.199219"/>
      </g>
     </g>
    </g>
    <g id="xtick_6">
     <g id="line2d_11">
      <path d="M 459.244316 578.54175 
L 459.244316 24.14175 
" clip-path="url(#pbdb5420484)" style="fill: none; stroke: #ffffff; stroke-width: 0.8; stroke-linecap: square"/>
     </g>
     <g id="line2d_12">
      <g>
       <use xlink:href="#maa5590115a" x="459.244316" y="578.54175" style="fill: #555555; stroke: #555555; stroke-width: 0.8"/>
      </g>
     </g>
     <g id="text_6">
      <!-- 2025-01 -->
      <g style="fill: #555555" transform="translate(446.423034 620.459567) rotate(-45) scale(0.1 -0.1)">
       <defs>
        <path id="DejaVuSans-35" d="M 691 4666 
L 3169 4666 
L 3169 4134 
L 1269 4134 
L 1269 2991 
Q 1406 3038 1543 3061 
Q 1681 3084 1819 3084 
Q 2600 3084 3056 2656 
Q 3513 2228 3513 1497 
Q 3513 744 3044 326 
Q 2575 -91 1722 -91 
Q 1428 -91 1123 -41 
Q 819 9 494 109 
L 494 744 
Q 775 591 1075 516 
Q 1375 441 1709 441 
Q 2250 441 2565 725 
Q 2881 1009 2881 1497 
Q 2881 1984 2565 2268 
Q 2250 2553 1709 2553 
Q 1456 2553 1204 2497 
Q 953 2441 691 2322 
L 691 4666 
z
" transform="scale(0.015625)"/>
       </defs>
       <use xlink:href="#DejaVuSans-32"/>
       <use xlink:href="#DejaVuSans-30" x="63.623047"/>
       <use xlink:href="#DejaVuSans-32" x="127.246094"/>
       <use xlink:href="#DejaVuSans-35" x="190.869141"/>
       <use xlink:href="#DejaVuSans-2d" x="254.492188"/>
       <use xlink:href="#DejaVuSans-30" x="290.576172"/>
       <use xlink:href="#DejaVuSans-31" x="354.199219"/>
      </g>
     </g>
    </g>
    <g id="xtick_7">
     <g id="line2d_13">
      <path d="M 537.642535 578.54175 
L 537.642535 24.14175 
" clip-path="url(#pbdb5420484)" style="fill: none; stroke: #ffffff; stroke-width: 0.8; stroke-linecap: square"/>
     </g>
     <g id="line2d_14">
      <g>
       <use xlink:href="#maa5590115a" x="537.642535" y="578.54175" style="fill: #555555; stroke: #555555; stroke-width: 0.8"/>
      </g>
     </g>
     <g id="text_7">
      <!-- 2025-02 -->
      <g style="fill: #555555" transform="translate(524.821252 620.459567) rotate(-45) scale(0.1 -0.1)">
       <use xlink:href="#DejaVuSans-32"/>
       <use xlink:href="#DejaVuSans-30" x="63.623047"/>
       <use xlink:href="#DejaVuSans-32" x="127.246094"/>
       <use xlink:href="#DejaVuSans-35" x="190.869141"/>
       <use xlink:href="#DejaVuSans-2d" x="254.492188"/>
       <use xlink:href="#DejaVuSans-30" x="290.576172"/>
       <use xlink:href="#DejaVuSans-32" x="354.199219"/>
      </g>
     </g>
    </g>
    <g id="xtick_8">
     <g id="line2d_15">
      <path d="M 608.453829 578.54175 
L 608.453829 24.14175 
" clip-path="url(#pbdb5420484)" style="fill: none; stroke: #ffffff; stroke-width: 0.8; stroke-linecap: square"/>
     </g>
     <g id="line2d_16">
      <g>
       <use xlink:href="#maa5590115a" x="608.453829" y="578.54175" style="fill: #555555; stroke: #555555; stroke-width: 0.8"/>
      </g>
     </g>
     <g id="text_8">
      <!-- 2025-03 -->
      <g style="fill: #555555" transform="translate(595.632547 620.459567) rotate(-45) scale(0.1 -0.1)">
       <defs>
        <path id="DejaVuSans-33" d="M 2597 2516 
Q 3050 2419 3304 2112 
Q 3559 1806 3559 1356 
Q 3559 666 3084 287 
Q 2609 -91 1734 -91 
Q 1441 -91 1130 -33 
Q 819 25 488 141 
L 488 750 
Q 750 597 1062 519 
Q 1375 441 1716 441 
Q 2309 441 2620 675 
Q 2931 909 2931 1356 
Q 2931 1769 2642 2001 
Q 2353 2234 1838 2234 
L 1294 2234 
L 1294 2753 
L 1863 2753 
Q 2328 2753 2575 2939 
Q 2822 3125 2822 3475 
Q 2822 3834 2567 4026 
Q 2313 4219 1838 4219 
Q 1578 4219 1281 4162 
Q 984 4106 628 3988 
L 628 4550 
Q 988 4650 1302 4700 
Q 1616 4750 1894 4750 
Q 2613 4750 3031 4423 
Q 3450 4097 3450 3541 
Q 3450 3153 3228 2886 
Q 3006 2619 2597 2516 
z
" transform="scale(0.015625)"/>
       </defs>
       <use xlink:href="#DejaVuSans-32"/>
       <use xlink:href="#DejaVuSans-30" x="63.623047"/>
       <use xlink:href="#DejaVuSans-32" x="127.246094"/>
       <use xlink:href="#DejaVuSans-35" x="190.869141"/>
       <use xlink:href="#DejaVuSans-2d" x="254.492188"/>
       <use xlink:href="#DejaVuSans-30" x="290.576172"/>
       <use xlink:href="#DejaVuSans-33" x="354.199219"/>
      </g>
     </g>
    </g>
    <g id="xtick_9">
     <g id="line2d_17">
      <path d="M 686.852047 578.54175 
L 686.852047 24.14175 
" clip-path="url(#pbdb5420484)" style="fill: none; stroke: #ffffff; stroke-width: 0.8; stroke-linecap: square"/>
     </g>
     <g id="line2d_18">
      <g>
       <use xlink:href="#maa5590115a" x="686.852047" y="578.54175" style="fill: #555555; stroke: #555555; stroke-width: 0.8"/>
      </g>
     </g>
     <g id="text_9">
      <!-- 2025-04 -->
      <g style="fill: #555555" transform="translate(674.030765 620.459567) rotate(-45) scale(0.1 -0.1)">
       <use xlink:href="#DejaVuSans-32"/>
       <use xlink:href="#DejaVuSans-30" x="63.623047"/>
       <use xlink:href="#DejaVuSans-32" x="127.246094"/>
       <use xlink:href="#DejaVuSans-35" x="190.869141"/>
       <use xlink:href="#DejaVuSans-2d" x="254.492188"/>
       <use xlink:href="#DejaVuSans-30" x="290.576172"/>
       <use xlink:href="#DejaVuSans-34" x="354.199219"/>
      </g>
     </g>
    </g>
    <g id="xtick_10">
     <g id="line2d_19">
      <path d="M 762.721291 578.54175 
L 762.721291 24.14175 
" clip-path="url(#pbdb5420484)" style="fill: none; stroke: #ffffff; stroke-width: 0.8; stroke-linecap: square"/>
     </g>
     <g id="line2d_20">
      <g>
       <use xlink:href="#maa5590115a" x="762.721291" y="578.54175" style="fill: #555555; stroke: #555555; stroke-width: 0.8"/>
      </g>
     </g>
     <g id="text_10">
      <!-- 2025-05 -->
      <g style="fill: #555555" transform="translate(749.900009 620.459567) rotate(-45) scale(0.1 -0.1)">
       <use xlink:href="#DejaVuSans-32"/>
       <use xlink:href="#DejaVuSans-30" x="63.623047"/>
       <use xlink:href="#DejaVuSans-32" x="127.246094"/>
       <use xlink:href="#DejaVuSans-35" x="190.869141"/>
       <use xlink:href="#DejaVuSans-2d" x="254.492188"/>
       <use xlink:href="#DejaVuSans-30" x="290.576172"/>
       <use xlink:href="#DejaVuSans-35" x="354.199219"/>
      </g>
     </g>
    </g>
    <g id="xtick_11">
     <g id="line2d_21">
      <path d="M 841.119509 578.54175 
L 841.119509 24.14175 
" clip-path="url(#pbdb5420484)" style="fill: none; stroke: #ffffff; stroke-width: 0.8; stroke-linecap: square"/>
     </g>
     <g id="line2d_22">
      <g>
       <use xlink:href="#maa5590115a" x="841.119509" y="578.54175" style="fill: #555555; stroke: #555555; stroke-width: 0.8"/>
      </g>
     </g>
     <g id="text_11">
      <!-- 2025-06 -->
      <g style="fill: #555555" transform="translate(828.298227 620.459567) rotate(-45) scale(0.1 -0.1)">
       <defs>
        <path id="DejaVuSans-36" d="M 2113 2584 
Q 1688 2584 1439 2293 
Q 1191 2003 1191 1497 
Q 1191 994 1439 701 
Q 1688 409 2113 409 
Q 2538 409 2786 701 
Q 3034 994 3034 1497 
Q 3034 2003 2786 2293 
Q 2538 2584 2113 2584 
z
M 3366 4563 
L 3366 3988 
Q 3128 4100 2886 4159 
Q 2644 4219 2406 4219 
Q 1781 4219 1451 3797 
Q 1122 3375 1075 2522 
Q 1259 2794 1537 2939 
Q 1816 3084 2150 3084 
Q 2853 3084 3261 2657 
Q 3669 2231 3669 1497 
Q 3669 778 3244 343 
Q 2819 -91 2113 -91 
Q 1303 -91 875 529 
Q 447 1150 447 2328 
Q 447 3434 972 4092 
Q 1497 4750 2381 4750 
Q 2619 4750 2861 4703 
Q 3103 4656 3366 4563 
z
" transform="scale(0.015625)"/>
       </defs>
       <use xlink:href="#DejaVuSans-32"/>
       <use xlink:href="#DejaVuSans-30" x="63.623047"/>
       <use xlink:href="#DejaVuSans-32" x="127.246094"/>
       <use xlink:href="#DejaVuSans-35" x="190.869141"/>
       <use xlink:href="#DejaVuSans-2d" x="254.492188"/>
       <use xlink:href="#DejaVuSans-30" x="290.576172"/>
       <use xlink:href="#DejaVuSans-36" x="354.199219"/>
      </g>
     </g>
    </g>
    <g id="xtick_12">
     <g id="line2d_23">
      <path d="M 916.988753 578.54175 
L 916.988753 24.14175 
" clip-path="url(#pbdb5420484)" style="fill: none; stroke: #ffffff; stroke-width: 0.8; stroke-linecap: square"/>
     </g>
     <g id="line2d_24">
      <g>
       <use xlink:href="#maa5590115a" x="916.988753" y="578.54175" style="fill: #555555; stroke: #555555; stroke-width: 0.8"/>
      </g>
     </g>
     <g id="text_12">
      <!-- 2025-07 -->
      <g style="fill: #555555" transform="translate(904.167471 620.459567) rotate(-45) scale(0.1 -0.1)">
       <defs>
        <path id="DejaVuSans-37" d="M 525 4666 
L 3525 4666 
L 3525 4397 
L 1831 0 
L 1172 0 
L 2766 4134 
L 525 4134 
L 525 4666 
z
" transform="scale(0.015625)"/>
       </defs>
       <use xlink:href="#DejaVuSans-32"/>
       <use xlink:href="#DejaVuSans-30" x="63.623047"/>
       <use xlink:href="#DejaVuSans-32" x="127.246094"/>
       <use xlink:href="#DejaVuSans-35" x="190.869141"/>
       <use xlink:href="#DejaVuSans-2d" x="254.492188"/>
       <use xlink:href="#DejaVuSans-30" x="290.576172"/>
       <use xlink:href="#DejaVuSans-37" x="354.199219"/>
      </g>
     </g>
    </g>
    <g id="text_13">
     <!-- Date -->
     <g style="fill: #555555" transform="translate(489.160438 635.048253) scale(0.12 -0.12)">
      <defs>
       <path id="DejaVuSans-44" d="M 1259 4147 
L 1259 519 
L 2022 519 
Q 2988 519 3436 956 
Q 3884 1394 3884 2338 
Q 3884 3275 3436 3711 
Q 2988 4147 2022 4147 
L 1259 4147 
z
M 628 4666 
L 1925 4666 
Q 3281 4666 3915 4102 
Q 4550 3538 4550 2338 
Q 4550 1131 3912 565 
Q 3275 0 1925 0 
L 628 0 
L 628 4666 
z
" transform="scale(0.015625)"/>
       <path id="DejaVuSans-61" d="M 2194 1759 
Q 1497 1759 1228 1600 
Q 959 1441 959 1056 
Q 959 750 1161 570 
Q 1363 391 1709 391 
Q 2188 391 2477 730 
Q 2766 1069 2766 1631 
L 2766 1759 
L 2194 1759 
z
M 3341 1997 
L 3341 0 
L 2766 0 
L 2766 531 
Q 2569 213 2275 61 
Q 1981 -91 1556 -91 
Q 1019 -91 701 211 
Q 384 513 384 1019 
Q 384 1609 779 1909 
Q 1175 2209 1959 2209 
L 2766 2209 
L 2766 2266 
Q 2766 2663 2505 2880 
Q 2244 3097 1772 3097 
Q 1472 3097 1187 3025 
Q 903 2953 641 2809 
L 641 3341 
Q 956 3463 1253 3523 
Q 1550 3584 1831 3584 
Q 2591 3584 2966 3190 
Q 3341 2797 3341 1997 
z
" transform="scale(0.015625)"/>
       <path id="DejaVuSans-74" d="M 1172 4494 
L 1172 3500 
L 2356 3500 
L 2356 3053 
L 1172 3053 
L 1172 1153 
Q 1172 725 1289 603 
Q 1406 481 1766 481 
L 2356 481 
L 2356 0 
L 1766 0 
Q 1100 0 847 248 
Q 594 497 594 1153 
L 594 3053 
L 172 3053 
L 172 3500 
L 594 3500 
L 594 4494 
L 1172 4494 
z
" transform="scale(0.015625)"/>
       <path id="DejaVuSans-65" d="M 3597 1894 
L 3597 1613 
L 953 1613 
Q 991 1019 1311 708 
Q 1631 397 2203 397 
Q 2534 397 2845 478 
Q 3156 559 3463 722 
L 3463 178 
Q 3153 47 2828 -22 
Q 2503 -91 2169 -91 
Q 1331 -91 842 396 
Q 353 884 353 1716 
Q 353 2575 817 3079 
Q 1281 3584 2069 3584 
Q 2775 3584 3186 3129 
Q 3597 2675 3597 1894 
z
M 3022 2063 
Q 3016 2534 2758 2815 
Q 2500 3097 2075 3097 
Q 1594 3097 1305 2825 
Q 1016 2553 972 2059 
L 3022 2063 
z
" transform="scale(0.015625)"/>
      </defs>
      <use xlink:href="#DejaVuSans-44"/>
      <use xlink:href="#DejaVuSans-61" x="77.001953"/>
      <use xlink:href="#DejaVuSans-74" x="138.28125"/>
      <use xlink:href="#DejaVuSans-65" x="177.490234"/>
     </g>
    </g>
   </g>
   <g id="matplotlib.axis_2">
    <g id="ytick_1">
     <g id="line2d_25">
      <path d="M 52.079375 578.54175 
L 954.923375 578.54175 
" clip-path="url(#pbdb5420484)" style="fill: none; stroke: #ffffff; stroke-width: 0.8; stroke-linecap: square"/>
     </g>
     <g id="line2d_26">
      <defs>
       <path id="me9b152ae52" d="M 0 0 
L -3.5 0 
" style="stroke: #555555; stroke-width: 0.8"/>
      </defs>
      <g>
       <use xlink:href="#me9b152ae52" x="52.079375" y="578.54175" style="fill: #555555; stroke: #555555; stroke-width: 0.8"/>
      </g>
     </g>
     <g id="text_14">
      <!-- 0.00 -->
      <g style="fill: #555555" transform="translate(22.81375 582.340969) scale(0.1 -0.1)">
       <defs>
        <path id="DejaVuSans-2e" d="M 684 794 
L 1344 794 
L 1344 0 
L 684 0 
L 684 794 
z
" transform="scale(0.015625)"/>
       </defs>
       <use xlink:href="#DejaVuSans-30"/>
       <use xlink:href="#DejaVuSans-2e" x="63.623047"/>
       <use xlink:href="#DejaVuSans-30" x="95.410156"/>
       <use xlink:href="#DejaVuSans-30" x="159.033203"/>
      </g>
     </g>
    </g>
    <g id="ytick_2">
     <g id="line2d_27">
      <path d="M 52.079375 516.07327 
L 954.923375 516.07327 
" clip-path="url(#pbdb5420484)" style="fill: none; stroke: #ffffff; stroke-width: 0.8; stroke-linecap: square"/>
     </g>
     <g id="line2d_28">
      <g>
       <use xlink:href="#me9b152ae52" x="52.079375" y="516.07327" style="fill: #555555; stroke: #555555; stroke-width: 0.8"/>
      </g>
     </g>
     <g id="text_15">
      <!-- 0.05 -->
      <g style="fill: #555555" transform="translate(22.81375 519.872489) scale(0.1 -0.1)">
       <use xlink:href="#DejaVuSans-30"/>
       <use xlink:href="#DejaVuSans-2e" x="63.623047"/>
       <use xlink:href="#DejaVuSans-30" x="95.410156"/>
       <use xlink:href="#DejaVuSans-35" x="159.033203"/>
      </g>
     </g>
    </g>
    <g id="ytick_3">
     <g id="line2d_29">
      <path d="M 52.079375 453.60479 
L 954.923375 453.60479 
" clip-path="url(#pbdb5420484)" style="fill: none; stroke: #ffffff; stroke-width: 0.8; stroke-linecap: square"/>
     </g>
     <g id="line2d_30">
      <g>
       <use xlink:href="#me9b152ae52" x="52.079375" y="453.60479" style="fill: #555555; stroke: #555555; stroke-width: 0.8"/>
      </g>
     </g>
     <g id="text_16">
      <!-- 0.10 -->
      <g style="fill: #555555" transform="translate(22.81375 457.404009) scale(0.1 -0.1)">
       <use xlink:href="#DejaVuSans-30"/>
       <use xlink:href="#DejaVuSans-2e" x="63.623047"/>
       <use xlink:href="#DejaVuSans-31" x="95.410156"/>
       <use xlink:href="#DejaVuSans-30" x="159.033203"/>
      </g>
     </g>
    </g>
    <g id="ytick_4">
     <g id="line2d_31">
      <path d="M 52.079375 391.13631 
L 954.923375 391.13631 
" clip-path="url(#pbdb5420484)" style="fill: none; stroke: #ffffff; stroke-width: 0.8; stroke-linecap: square"/>
     </g>
     <g id="line2d_32">
      <g>
       <use xlink:href="#me9b152ae52" x="52.079375" y="391.13631" style="fill: #555555; stroke: #555555; stroke-width: 0.8"/>
      </g>
     </g>
     <g id="text_17">
      <!-- 0.15 -->
      <g style="fill: #555555" transform="translate(22.81375 394.935529) scale(0.1 -0.1)">
       <use xlink:href="#DejaVuSans-30"/>
       <use xlink:href="#DejaVuSans-2e" x="63.623047"/>
       <use xlink:href="#DejaVuSans-31" x="95.410156"/>
       <use xlink:href="#DejaVuSans-35" x="159.033203"/>
      </g>
     </g>
    </g>
    <g id="ytick_5">
     <g id="line2d_33">
      <path d="M 52.079375 328.66783 
L 954.923375 328.66783 
" clip-path="url(#pbdb5420484)" style="fill: none; stroke: #ffffff; stroke-width: 0.8; stroke-linecap: square"/>
     </g>
     <g id="line2d_34">
      <g>
       <use xlink:href="#me9b152ae52" x="52.079375" y="328.66783" style="fill: #555555; stroke: #555555; stroke-width: 0.8"/>
      </g>
     </g>
     <g id="text_18">
      <!-- 0.20 -->
      <g style="fill: #555555" transform="translate(22.81375 332.467049) scale(0.1 -0.1)">
       <use xlink:href="#DejaVuSans-30"/>
       <use xlink:href="#DejaVuSans-2e" x="63.623047"/>
       <use xlink:href="#DejaVuSans-32" x="95.410156"/>
       <use xlink:href="#DejaVuSans-30" x="159.033203"/>
      </g>
     </g>
    </g>
    <g id="ytick_6">
     <g id="line2d_35">
      <path d="M 52.079375 266.19935 
L 954.923375 266.19935 
" clip-path="url(#pbdb5420484)" style="fill: none; stroke: #ffffff; stroke-width: 0.8; stroke-linecap: square"/>
     </g>
     <g id="line2d_36">
      <g>
       <use xlink:href="#me9b152ae52" x="52.079375" y="266.19935" style="fill: #555555; stroke: #555555; stroke-width: 0.8"/>
      </g>
     </g>
     <g id="text_19">
      <!-- 0.25 -->
      <g style="fill: #555555" transform="translate(22.81375 269.998569) scale(0.1 -0.1)">
       <use xlink:href="#DejaVuSans-30"/>
       <use xlink:href="#DejaVuSans-2e" x="63.623047"/>
       <use xlink:href="#DejaVuSans-32" x="95.410156"/>
       <use xlink:href="#DejaVuSans-35" x="159.033203"/>
      </g>
     </g>
    </g>
    <g id="ytick_7">
     <g id="line2d_37">
      <path d="M 52.079375 203.73087 
L 954.923375 203.73087 
" clip-path="url(#pbdb5420484)" style="fill: none; stroke: #ffffff; stroke-width: 0.8; stroke-linecap: square"/>
     </g>
     <g id="line2d_38">
      <g>
       <use xlink:href="#me9b152ae52" x="52.079375" y="203.73087" style="fill: #555555; stroke: #555555; stroke-width: 0.8"/>
      </g>
     </g>
     <g id="text_20">
      <!-- 0.30 -->
      <g style="fill: #555555" transform="translate(22.81375 207.530089) scale(0.1 -0.1)">
       <use xlink:href="#DejaVuSans-30"/>
       <use xlink:href="#DejaVuSans-2e" x="63.623047"/>
       <use xlink:href="#DejaVuSans-33" x="95.410156"/>
       <use xlink:href="#DejaVuSans-30" x="159.033203"/>
      </g>
     </g>
    </g>
    <g id="ytick_8">
     <g id="line2d_39">
      <path d="M 52.079375 141.26239 
L 954.923375 141.26239 
" clip-path="url(#pbdb5420484)" style="fill: none; stroke: #ffffff; stroke-width: 0.8; stroke-linecap: square"/>
     </g>
     <g id="line2d_40">
      <g>
       <use xlink:href="#me9b152ae52" x="52.079375" y="141.26239" style="fill: #555555; stroke: #555555; stroke-width: 0.8"/>
      </g>
     </g>
     <g id="text_21">
      <!-- 0.35 -->
      <g style="fill: #555555" transform="translate(22.81375 145.061609) scale(0.1 -0.1)">
       <use xlink:href="#DejaVuSans-30"/>
       <use xlink:href="#DejaVuSans-2e" x="63.623047"/>
       <use xlink:href="#DejaVuSans-33" x="95.410156"/>
       <use xlink:href="#DejaVuSans-35" x="159.033203"/>
      </g>
     </g>
    </g>
    <g id="ytick_9">
     <g id="line2d_41">
      <path d="M 52.079375 78.79391 
L 954.923375 78.79391 
" clip-path="url(#pbdb5420484)" style="fill: none; stroke: #ffffff; stroke-width: 0.8; stroke-linecap: square"/>
     </g>
     <g id="line2d_42">
      <g>
       <use xlink:href="#me9b152ae52" x="52.079375" y="78.79391" style="fill: #555555; stroke: #555555; stroke-width: 0.8"/>
      </g>
     </g>
     <g id="text_22">
      <!-- 0.40 -->
      <g style="fill: #555555" transform="translate(22.81375 82.593129) scale(0.1 -0.1)">
       <use xlink:href="#DejaVuSans-30"/>
       <use xlink:href="#DejaVuSans-2e" x="63.623047"/>
       <use xlink:href="#DejaVuSans-34" x="95.410156"/>
       <use xlink:href="#DejaVuSans-30" x="159.033203"/>
      </g>
     </g>
    </g>
    <g id="text_23">
     <!-- Share -->
     <g style="fill: #555555" transform="translate(16.318125 318.653625) rotate(-90) scale(0.12 -0.12)">
      <defs>
       <path id="DejaVuSans-53" d="M 3425 4513 
L 3425 3897 
Q 3066 4069 2747 4153 
Q 2428 4238 2131 4238 
Q 1616 4238 1336 4038 
Q 1056 3838 1056 3469 
Q 1056 3159 1242 3001 
Q 1428 2844 1947 2747 
L 2328 2669 
Q 3034 2534 3370 2195 
Q 3706 1856 3706 1288 
Q 3706 609 3251 259 
Q 2797 -91 1919 -91 
Q 1588 -91 1214 -16 
Q 841 59 441 206 
L 441 856 
Q 825 641 1194 531 
Q 1563 422 1919 422 
Q 2459 422 2753 634 
Q 3047 847 3047 1241 
Q 3047 1584 2836 1778 
Q 2625 1972 2144 2069 
L 1759 2144 
Q 1053 2284 737 2584 
Q 422 2884 422 3419 
Q 422 4038 858 4394 
Q 1294 4750 2059 4750 
Q 2388 4750 2728 4690 
Q 3069 4631 3425 4513 
z
" transform="scale(0.015625)"/>
       <path id="DejaVuSans-68" d="M 3513 2113 
L 3513 0 
L 2938 0 
L 2938 2094 
Q 2938 2591 2744 2837 
Q 2550 3084 2163 3084 
Q 1697 3084 1428 2787 
Q 1159 2491 1159 1978 
L 1159 0 
L 581 0 
L 581 4863 
L 1159 4863 
L 1159 2956 
Q 1366 3272 1645 3428 
Q 1925 3584 2291 3584 
Q 2894 3584 3203 3211 
Q 3513 2838 3513 2113 
z
" transform="scale(0.015625)"/>
       <path id="DejaVuSans-72" d="M 2631 2963 
Q 2534 3019 2420 3045 
Q 2306 3072 2169 3072 
Q 1681 3072 1420 2755 
Q 1159 2438 1159 1844 
L 1159 0 
L 581 0 
L 581 3500 
L 1159 3500 
L 1159 2956 
Q 1341 3275 1631 3429 
Q 1922 3584 2338 3584 
Q 2397 3584 2469 3576 
Q 2541 3569 2628 3553 
L 2631 2963 
z
" transform="scale(0.015625)"/>
      </defs>
      <use xlink:href="#DejaVuSans-53"/>
      <use xlink:href="#DejaVuSans-68" x="63.476562"/>
      <use xlink:href="#DejaVuSans-61" x="126.855469"/>
      <use xlink:href="#DejaVuSans-72" x="188.134766"/>
      <use xlink:href="#DejaVuSans-65" x="226.998047"/>
     </g>
    </g>
   </g>
   <g id="line2d_43">
    <path d="M 52.079375 334.569339 
L 61.199011 334.168567 
L 70.318648 333.767794 
L 79.438284 333.367021 
L 88.55792 332.966248 
L 97.677557 332.565475 
L 106.797193 332.164703 
L 115.91683 331.76393 
L 125.036466 331.363157 
L 134.156102 330.962384 
L 143.275739 330.561611 
L 152.395375 330.160838 
L 161.515011 329.760066 
L 170.634648 329.359293 
L 179.754284 328.95852 
L 188.87392 328.557747 
L 197.993557 328.156974 
L 207.113193 327.756202 
L 216.23283 327.355429 
L 225.352466 326.954656 
L 234.472102 326.553883 
L 243.591739 326.15311 
L 252.711375 325.752338 
L 261.831011 325.351565 
L 270.950648 324.950792 
L 280.070284 324.550019 
L 289.18992 324.149246 
L 298.309557 323.748473 
L 307.429193 323.347701 
L 316.54883 322.946928 
L 325.668466 322.546155 
L 334.788102 322.145382 
L 343.907739 321.744609 
L 353.027375 321.343837 
L 362.147011 320.943064 
L 371.266648 320.542291 
L 380.386284 320.141518 
L 389.50592 319.740745 
L 398.625557 319.339972 
L 407.745193 318.9392 
L 416.86483 318.538427 
L 425.984466 318.137654 
L 435.104102 317.736881 
L 444.223739 317.336108 
L 453.343375 316.935336 
L 462.463011 316.534563 
L 471.582648 316.13379 
L 480.702284 315.733017 
L 489.82192 315.332244 
L 498.941557 314.931472 
L 508.061193 314.530699 
L 517.18083 314.129926 
L 526.300466 313.729153 
L 535.420102 313.32838 
L 544.539739 312.927607 
L 553.659375 312.526835 
L 562.779011 312.126062 
L 571.898648 311.725289 
L 581.018284 311.324516 
L 590.13792 310.923743 
L 599.257557 310.522971 
L 608.377193 310.122198 
L 617.49683 309.721425 
L 626.616466 309.320652 
L 635.736102 308.919879 
L 644.855739 308.519106 
L 653.975375 308.118334 
L 663.095011 307.717561 
L 672.214648 307.316788 
L 681.334284 306.916015 
L 690.45392 306.515242 
L 699.573557 306.11447 
L 708.693193 305.713697 
L 717.81283 305.312924 
L 726.932466 304.912151 
L 736.052102 304.511378 
L 745.171739 304.110606 
L 754.291375 303.709833 
L 763.411011 303.30906 
L 772.530648 302.908287 
L 781.650284 302.507514 
L 790.76992 302.106741 
L 799.889557 301.705969 
L 809.009193 301.305196 
L 818.12883 300.904423 
L 827.248466 300.50365 
L 836.368102 300.102877 
L 845.487739 299.702105 
L 854.607375 299.301332 
L 863.727011 298.900559 
L 872.846648 298.499786 
L 881.966284 298.099013 
L 891.08592 297.69824 
L 900.205557 297.297468 
L 909.325193 296.896695 
L 918.44483 296.495922 
L 927.564466 296.095149 
L 936.684102 295.694376 
L 945.803739 295.293604 
L 954.923375 294.892831 
" clip-path="url(#pbdb5420484)" style="fill: none; stroke-dasharray: 1.5,2.475; stroke-dashoffset: 0; stroke: #4ac1fa; stroke-width: 1.5"/>
   </g>
   <g id="line2d_44">
    <path d="M 52.079375 455.84716 
L 61.199011 456.731221 
L 70.318648 457.615282 
L 79.438284 458.499343 
L 88.55792 459.383404 
L 97.677557 460.267465 
L 106.797193 461.151527 
L 115.91683 462.035588 
L 125.036466 462.919649 
L 134.156102 463.80371 
L 143.275739 464.687771 
L 152.395375 465.571832 
L 161.515011 466.455893 
L 170.634648 467.339954 
L 179.754284 468.224015 
L 188.87392 469.108076 
L 197.993557 469.992137 
L 207.113193 470.876198 
L 216.23283 471.760259 
L 225.352466 472.64432 
L 234.472102 473.528381 
L 243.591739 474.412442 
L 252.711375 475.296503 
L 261.831011 476.180564 
L 270.950648 477.064625 
L 280.070284 477.948686 
L 289.18992 478.832747 
L 298.309557 479.716808 
L 307.429193 480.600869 
L 316.54883 481.48493 
L 325.668466 482.368991 
L 334.788102 483.253053 
L 343.907739 484.137114 
L 353.027375 485.021175 
L 362.147011 485.905236 
L 371.266648 486.789297 
L 380.386284 487.673358 
L 389.50592 488.557419 
L 398.625557 489.44148 
L 407.745193 490.325541 
L 416.86483 491.209602 
L 425.984466 492.093663 
L 435.104102 492.977724 
L 444.223739 493.861785 
L 453.343375 494.745846 
L 462.463011 495.629907 
L 471.582648 496.513968 
L 480.702284 497.398029 
L 489.82192 498.28209 
L 498.941557 499.166151 
L 508.061193 500.050212 
L 517.18083 500.934273 
L 526.300466 501.818334 
L 535.420102 502.702395 
L 544.539739 503.586456 
L 553.659375 504.470518 
L 562.779011 505.354579 
L 571.898648 506.23864 
L 581.018284 507.122701 
L 590.13792 508.006762 
L 599.257557 508.890823 
L 608.377193 509.774884 
L 617.49683 510.658945 
L 626.616466 511.543006 
L 635.736102 512.427067 
L 644.855739 513.311128 
L 653.975375 514.195189 
L 663.095011 515.07925 
L 672.214648 515.963311 
L 681.334284 516.847372 
L 690.45392 517.731433 
L 699.573557 518.615494 
L 708.693193 519.499555 
L 717.81283 520.383616 
L 726.932466 521.267677 
L 736.052102 522.151738 
L 745.171739 523.035799 
L 754.291375 523.91986 
L 763.411011 524.803921 
L 772.530648 525.687982 
L 781.650284 526.572044 
L 790.76992 527.456105 
L 799.889557 528.340166 
L 809.009193 529.224227 
L 818.12883 530.108288 
L 827.248466 530.992349 
L 836.368102 531.87641 
L 845.487739 532.760471 
L 854.607375 533.644532 
L 863.727011 534.528593 
L 872.846648 535.412654 
L 881.966284 536.296715 
L 891.08592 537.180776 
L 900.205557 538.064837 
L 909.325193 538.948898 
L 918.44483 539.832959 
L 927.564466 540.71702 
L 936.684102 541.601081 
L 945.803739 542.485142 
L 954.923375 543.369203 
" clip-path="url(#pbdb5420484)" style="fill: none; stroke-dasharray: 1.5,2.475; stroke-dashoffset: 0; stroke: #e9a942; stroke-width: 1.5"/>
   </g>
   <g id="line2d_45">
    <path d="M 52.079375 488.949755 
L 61.199011 488.837032 
L 70.318648 488.724309 
L 79.438284 488.611587 
L 88.55792 488.498864 
L 97.677557 488.386141 
L 106.797193 488.273419 
L 115.91683 488.160696 
L 125.036466 488.047973 
L 134.156102 487.935251 
L 143.275739 487.822528 
L 152.395375 487.709805 
L 161.515011 487.597083 
L 170.634648 487.48436 
L 179.754284 487.371637 
L 188.87392 487.258914 
L 197.993557 487.146192 
L 207.113193 487.033469 
L 216.23283 486.920746 
L 225.352466 486.808024 
L 234.472102 486.695301 
L 243.591739 486.582578 
L 252.711375 486.469856 
L 261.831011 486.357133 
L 270.950648 486.24441 
L 280.070284 486.131688 
L 289.18992 486.018965 
L 298.309557 485.906242 
L 307.429193 485.793519 
L 316.54883 485.680797 
L 325.668466 485.568074 
L 334.788102 485.455351 
L 343.907739 485.342629 
L 353.027375 485.229906 
L 362.147011 485.117183 
L 371.266648 485.004461 
L 380.386284 484.891738 
L 389.50592 484.779015 
L 398.625557 484.666293 
L 407.745193 484.55357 
L 416.86483 484.440847 
L 425.984466 484.328124 
L 435.104102 484.215402 
L 444.223739 484.102679 
L 453.343375 483.989956 
L 462.463011 483.877234 
L 471.582648 483.764511 
L 480.702284 483.651788 
L 489.82192 483.539066 
L 498.941557 483.426343 
L 508.061193 483.31362 
L 517.18083 483.200898 
L 526.300466 483.088175 
L 535.420102 482.975452 
L 544.539739 482.862729 
L 553.659375 482.750007 
L 562.779011 482.637284 
L 571.898648 482.524561 
L 581.018284 482.411839 
L 590.13792 482.299116 
L 599.257557 482.186393 
L 608.377193 482.073671 
L 617.49683 481.960948 
L 626.616466 481.848225 
L 635.736102 481.735503 
L 644.855739 481.62278 
L 653.975375 481.510057 
L 663.095011 481.397334 
L 672.214648 481.284612 
L 681.334284 481.171889 
L 690.45392 481.059166 
L 699.573557 480.946444 
L 708.693193 480.833721 
L 717.81283 480.720998 
L 726.932466 480.608276 
L 736.052102 480.495553 
L 745.171739 480.38283 
L 754.291375 480.270108 
L 763.411011 480.157385 
L 772.530648 480.044662 
L 781.650284 479.93194 
L 790.76992 479.819217 
L 799.889557 479.706494 
L 809.009193 479.593771 
L 818.12883 479.481049 
L 827.248466 479.368326 
L 836.368102 479.255603 
L 845.487739 479.142881 
L 854.607375 479.030158 
L 863.727011 478.917435 
L 872.846648 478.804713 
L 881.966284 478.69199 
L 891.08592 478.579267 
L 900.205557 478.466545 
L 909.325193 478.353822 
L 918.44483 478.241099 
L 927.564466 478.128376 
L 936.684102 478.015654 
L 945.803739 477.902931 
L 954.923375 477.790208 
" clip-path="url(#pbdb5420484)" style="fill: none; stroke-dasharray: 1.5,2.475; stroke-dashoffset: 0; stroke: #9a5689; stroke-width: 1.5"/>
   </g>
   <g id="line2d_46">
    <path d="M 52.079375 537.118891 
L 61.199011 537.125936 
L 70.318648 537.132982 
L 79.438284 537.140027 
L 88.55792 537.147072 
L 97.677557 537.154117 
L 106.797193 537.161163 
L 115.91683 537.168208 
L 125.036466 537.175253 
L 134.156102 537.182298 
L 143.275739 537.189344 
L 152.395375 537.196389 
L 161.515011 537.203434 
L 170.634648 537.210479 
L 179.754284 537.217525 
L 188.87392 537.22457 
L 197.993557 537.231615 
L 207.113193 537.238661 
L 216.23283 537.245706 
L 225.352466 537.252751 
L 234.472102 537.259796 
L 243.591739 537.266842 
L 252.711375 537.273887 
L 261.831011 537.280932 
L 270.950648 537.287977 
L 280.070284 537.295023 
L 289.18992 537.302068 
L 298.309557 537.309113 
L 307.429193 537.316158 
L 316.54883 537.323204 
L 325.668466 537.330249 
L 334.788102 537.337294 
L 343.907739 537.34434 
L 353.027375 537.351385 
L 362.147011 537.35843 
L 371.266648 537.365475 
L 380.386284 537.372521 
L 389.50592 537.379566 
L 398.625557 537.386611 
L 407.745193 537.393656 
L 416.86483 537.400702 
L 425.984466 537.407747 
L 435.104102 537.414792 
L 444.223739 537.421837 
L 453.343375 537.428883 
L 462.463011 537.435928 
L 471.582648 537.442973 
L 480.702284 537.450018 
L 489.82192 537.457064 
L 498.941557 537.464109 
L 508.061193 537.471154 
L 517.18083 537.4782 
L 526.300466 537.485245 
L 535.420102 537.49229 
L 544.539739 537.499335 
L 553.659375 537.506381 
L 562.779011 537.513426 
L 571.898648 537.520471 
L 581.018284 537.527516 
L 590.13792 537.534562 
L 599.257557 537.541607 
L 608.377193 537.548652 
L 617.49683 537.555697 
L 626.616466 537.562743 
L 635.736102 537.569788 
L 644.855739 537.576833 
L 653.975375 537.583879 
L 663.095011 537.590924 
L 672.214648 537.597969 
L 681.334284 537.605014 
L 690.45392 537.61206 
L 699.573557 537.619105 
L 708.693193 537.62615 
L 717.81283 537.633195 
L 726.932466 537.640241 
L 736.052102 537.647286 
L 745.171739 537.654331 
L 754.291375 537.661376 
L 763.411011 537.668422 
L 772.530648 537.675467 
L 781.650284 537.682512 
L 790.76992 537.689558 
L 799.889557 537.696603 
L 809.009193 537.703648 
L 818.12883 537.710693 
L 827.248466 537.717739 
L 836.368102 537.724784 
L 845.487739 537.731829 
L 854.607375 537.738874 
L 863.727011 537.74592 
L 872.846648 537.752965 
L 881.966284 537.76001 
L 891.08592 537.767055 
L 900.205557 537.774101 
L 909.325193 537.781146 
L 918.44483 537.788191 
L 927.564466 537.795236 
L 936.684102 537.802282 
L 945.803739 537.809327 
L 954.923375 537.816372 
" clip-path="url(#pbdb5420484)" style="fill: none; stroke-dasharray: 1.5,2.475; stroke-dashoffset: 0; stroke: #be503b; stroke-width: 1.5"/>
   </g>
   <g id="line2d_47">
    <path d="M 52.079375 319.947588 
L 61.199011 320.102231 
L 70.318648 320.256874 
L 79.438284 320.411517 
L 88.55792 320.56616 
L 97.677557 320.720803 
L 106.797193 320.875446 
L 115.91683 321.030089 
L 125.036466 321.184732 
L 134.156102 321.339375 
L 143.275739 321.494018 
L 152.395375 321.648662 
L 161.515011 321.803305 
L 170.634648 321.957948 
L 179.754284 322.112591 
L 188.87392 322.267234 
L 197.993557 322.421877 
L 207.113193 322.57652 
L 216.23283 322.731163 
L 225.352466 322.885806 
L 234.472102 323.040449 
L 243.591739 323.195092 
L 252.711375 323.349735 
L 261.831011 323.504378 
L 270.950648 323.659022 
L 280.070284 323.813665 
L 289.18992 323.968308 
L 298.309557 324.122951 
L 307.429193 324.277594 
L 316.54883 324.432237 
L 325.668466 324.58688 
L 334.788102 324.741523 
L 343.907739 324.896166 
L 353.027375 325.050809 
L 362.147011 325.205452 
L 371.266648 325.360095 
L 380.386284 325.514738 
L 389.50592 325.669382 
L 398.625557 325.824025 
L 407.745193 325.978668 
L 416.86483 326.133311 
L 425.984466 326.287954 
L 435.104102 326.442597 
L 444.223739 326.59724 
L 453.343375 326.751883 
L 462.463011 326.906526 
L 471.582648 327.061169 
L 480.702284 327.215812 
L 489.82192 327.370455 
L 498.941557 327.525099 
L 508.061193 327.679742 
L 517.18083 327.834385 
L 526.300466 327.989028 
L 535.420102 328.143671 
L 544.539739 328.298314 
L 553.659375 328.452957 
L 562.779011 328.6076 
L 571.898648 328.762243 
L 581.018284 328.916886 
L 590.13792 329.071529 
L 599.257557 329.226172 
L 608.377193 329.380815 
L 617.49683 329.535459 
L 626.616466 329.690102 
L 635.736102 329.844745 
L 644.855739 329.999388 
L 653.975375 330.154031 
L 663.095011 330.308674 
L 672.214648 330.463317 
L 681.334284 330.61796 
L 690.45392 330.772603 
L 699.573557 330.927246 
L 708.693193 331.081889 
L 717.81283 331.236532 
L 726.932466 331.391175 
L 736.052102 331.545819 
L 745.171739 331.700462 
L 754.291375 331.855105 
L 763.411011 332.009748 
L 772.530648 332.164391 
L 781.650284 332.319034 
L 790.76992 332.473677 
L 799.889557 332.62832 
L 809.009193 332.782963 
L 818.12883 332.937606 
L 827.248466 333.092249 
L 836.368102 333.246892 
L 845.487739 333.401535 
L 854.607375 333.556179 
L 863.727011 333.710822 
L 872.846648 333.865465 
L 881.966284 334.020108 
L 891.08592 334.174751 
L 900.205557 334.329394 
L 909.325193 334.484037 
L 918.44483 334.63868 
L 927.564466 334.793323 
L 936.684102 334.947966 
L 945.803739 335.102609 
L 954.923375 335.257252 
" clip-path="url(#pbdb5420484)" style="fill: none; stroke-dasharray: 1.5,2.475; stroke-dashoffset: 0; stroke: #e2321d; stroke-width: 1.5"/>
   </g>
   <g id="line2d_48">
    <path d="M 52.079375 113.586626 
L 61.199011 113.062386 
L 70.318648 112.538146 
L 79.438284 112.013906 
L 88.55792 111.489665 
L 97.677557 110.965425 
L 106.797193 110.441185 
L 115.91683 109.916944 
L 125.036466 109.392704 
L 134.156102 108.868464 
L 143.275739 108.344224 
L 152.395375 107.819983 
L 161.515011 107.295743 
L 170.634648 106.771503 
L 179.754284 106.247262 
L 188.87392 105.723022 
L 197.993557 105.198782 
L 207.113193 104.674542 
L 216.23283 104.150301 
L 225.352466 103.626061 
L 234.472102 103.101821 
L 243.591739 102.57758 
L 252.711375 102.05334 
L 261.831011 101.5291 
L 270.950648 101.004859 
L 280.070284 100.480619 
L 289.18992 99.956379 
L 298.309557 99.432139 
L 307.429193 98.907898 
L 316.54883 98.383658 
L 325.668466 97.859418 
L 334.788102 97.335177 
L 343.907739 96.810937 
L 353.027375 96.286697 
L 362.147011 95.762457 
L 371.266648 95.238216 
L 380.386284 94.713976 
L 389.50592 94.189736 
L 398.625557 93.665495 
L 407.745193 93.141255 
L 416.86483 92.617015 
L 425.984466 92.092775 
L 435.104102 91.568534 
L 444.223739 91.044294 
L 453.343375 90.520054 
L 462.463011 89.995813 
L 471.582648 89.471573 
L 480.702284 88.947333 
L 489.82192 88.423092 
L 498.941557 87.898852 
L 508.061193 87.374612 
L 517.18083 86.850372 
L 526.300466 86.326131 
L 535.420102 85.801891 
L 544.539739 85.277651 
L 553.659375 84.75341 
L 562.779011 84.22917 
L 571.898648 83.70493 
L 581.018284 83.18069 
L 590.13792 82.656449 
L 599.257557 82.132209 
L 608.377193 81.607969 
L 617.49683 81.083728 
L 626.616466 80.559488 
L 635.736102 80.035248 
L 644.855739 79.511007 
L 653.975375 78.986767 
L 663.095011 78.462527 
L 672.214648 77.938287 
L 681.334284 77.414046 
L 690.45392 76.889806 
L 699.573557 76.365566 
L 708.693193 75.841325 
L 717.81283 75.317085 
L 726.932466 74.792845 
L 736.052102 74.268605 
L 745.171739 73.744364 
L 754.291375 73.220124 
L 763.411011 72.695884 
L 772.530648 72.171643 
L 781.650284 71.647403 
L 790.76992 71.123163 
L 799.889557 70.598923 
L 809.009193 70.074682 
L 818.12883 69.550442 
L 827.248466 69.026202 
L 836.368102 68.501961 
L 845.487739 67.977721 
L 854.607375 67.453481 
L 863.727011 66.92924 
L 872.846648 66.405 
L 881.966284 65.88076 
L 891.08592 65.35652 
L 900.205557 64.832279 
L 909.325193 64.308039 
L 918.44483 63.783799 
L 927.564466 63.259558 
L 936.684102 62.735318 
L 945.803739 62.211078 
L 954.923375 61.686838 
" clip-path="url(#pbdb5420484)" style="fill: none; stroke-dasharray: 1.5,2.475; stroke-dashoffset: 0; stroke: #48b585; stroke-width: 1.5"/>
   </g>
   <g id="line2d_49">
    <path d="M 52.079375 321.833487 
L 69.782199 324.847771 
L 87.485022 331.492646 
L 105.187846 321.241506 
L 122.890669 324.040246 
L 140.593493 325.604047 
L 158.296316 324.629592 
L 175.99914 324.892789 
L 193.701963 325.495059 
L 211.404787 334.4311 
L 229.10761 330.204902 
L 246.810434 328.462466 
L 264.513257 328.075527 
L 282.216081 331.743326 
L 299.918904 325.408401 
L 317.621728 336.565663 
L 335.324551 320.191475 
L 353.027375 331.368529 
L 370.730199 328.395727 
L 388.433022 329.744178 
L 406.135846 316.118701 
L 423.838669 320.343152 
L 441.541493 325.635184 
L 459.244316 319.409664 
L 476.94714 321.105469 
L 494.649963 315.688631 
L 512.352787 313.703665 
L 530.05561 316.059815 
L 547.758434 315.988564 
L 565.461257 315.26923 
L 583.164081 315.95909 
L 600.866904 312.307304 
L 618.569728 305.884592 
L 636.272551 302.786115 
L 653.975375 303.775033 
L 671.678199 313.014339 
L 689.381022 305.607259 
L 707.083846 298.712426 
L 724.786669 309.783686 
L 742.489493 304.293273 
L 760.192316 302.341699 
L 777.89514 300.328315 
L 795.597963 302.797983 
L 813.300787 298.306271 
L 831.00361 310.559923 
L 848.706434 304.096399 
L 866.409257 293.897045 
L 884.112081 285.080279 
L 901.814904 293.767789 
L 919.517728 294.130913 
L 937.220551 291.518584 
L 954.923375 289.077598 
" clip-path="url(#pbdb5420484)" style="fill: none; stroke: #4ac1fa; stroke-width: 1.5; stroke-linecap: square"/>
   </g>
   <g id="line2d_50">
    <path d="M 52.079375 466.953331 
L 69.782199 449.74904 
L 87.485022 452.431834 
L 105.187846 468.021515 
L 122.890669 469.097331 
L 140.593493 467.133023 
L 158.296316 461.090016 
L 175.99914 468.541227 
L 193.701963 485.851383 
L 211.404787 470.566991 
L 229.10761 475.906606 
L 246.810434 476.328018 
L 264.513257 482.465858 
L 282.216081 481.04995 
L 299.918904 487.766081 
L 317.621728 483.113973 
L 335.324551 498.158996 
L 353.027375 485.018215 
L 370.730199 482.463524 
L 388.433022 478.068436 
L 406.135846 490.893001 
L 423.838669 490.9964 
L 441.541493 490.272638 
L 459.244316 493.046147 
L 476.94714 486.434808 
L 494.649963 497.65894 
L 512.352787 495.96568 
L 530.05561 492.978211 
L 547.758434 496.965656 
L 565.461257 496.065814 
L 583.164081 497.704468 
L 600.866904 497.354502 
L 618.569728 497.97687 
L 636.272551 499.259541 
L 653.975375 495.627061 
L 671.678199 496.938312 
L 689.381022 513.977326 
L 707.083846 518.814933 
L 724.786669 527.746287 
L 742.489493 536.355389 
L 760.192316 534.217479 
L 777.89514 536.587707 
L 795.597963 536.891196 
L 813.300787 537.583893 
L 831.00361 540.370178 
L 848.706434 539.837121 
L 866.409257 540.623254 
L 884.112081 543.421489 
L 901.814904 544.414107 
L 919.517728 540.777442 
L 937.220551 540.908598 
L 954.923375 541.185657 
" clip-path="url(#pbdb5420484)" style="fill: none; stroke: #e9a942; stroke-width: 1.5; stroke-linecap: square"/>
   </g>
   <g id="line2d_51">
    <path d="M 52.079375 490.031515 
L 69.782199 492.172806 
L 87.485022 493.638848 
L 105.187846 488.546696 
L 122.890669 490.678349 
L 140.593493 489.746021 
L 158.296316 491.388687 
L 175.99914 490.409411 
L 193.701963 486.462265 
L 211.404787 490.156879 
L 229.10761 490.91275 
L 246.810434 491.118543 
L 264.513257 485.450113 
L 282.216081 486.094126 
L 299.918904 485.053525 
L 317.621728 475.153816 
L 335.324551 476.927242 
L 353.027375 485.846481 
L 370.730199 486.8136 
L 388.433022 486.592304 
L 406.135846 481.314829 
L 423.838669 479.914797 
L 441.541493 479.142313 
L 459.244316 482.250483 
L 476.94714 483.386937 
L 494.649963 482.203008 
L 512.352787 481.452899 
L 530.05561 481.506967 
L 547.758434 484.398867 
L 565.461257 480.773541 
L 583.164081 475.885742 
L 600.866904 478.565861 
L 618.569728 479.613876 
L 636.272551 480.011593 
L 653.975375 481.269802 
L 671.678199 483.673736 
L 689.381022 479.628047 
L 707.083846 479.513473 
L 724.786669 482.359661 
L 742.489493 477.126552 
L 760.192316 475.859033 
L 777.89514 481.523258 
L 795.597963 474.202776 
L 813.300787 480.839381 
L 831.00361 482.508887 
L 848.706434 479.408999 
L 866.409257 481.562226 
L 884.112081 482.175142 
L 901.814904 483.499739 
L 919.517728 482.990635 
L 937.220551 482.81682 
L 954.923375 480.665189 
" clip-path="url(#pbdb5420484)" style="fill: none; stroke: #9a5689; stroke-width: 1.5; stroke-linecap: square"/>
   </g>
   <g id="line2d_52">
    <path d="M 52.079375 533.724832 
L 69.782199 535.868273 
L 87.485022 536.878508 
L 105.187846 535.0464 
L 122.890669 536.148789 
L 140.593493 536.055875 
L 158.296316 536.874992 
L 175.99914 537.358501 
L 193.701963 536.25048 
L 211.404787 537.181964 
L 229.10761 537.974107 
L 246.810434 538.344797 
L 264.513257 537.892064 
L 282.216081 538.308182 
L 299.918904 537.84004 
L 317.621728 538.131854 
L 335.324551 536.588801 
L 353.027375 538.76409 
L 370.730199 539.415296 
L 388.433022 539.601465 
L 406.135846 536.202634 
L 423.838669 536.438188 
L 441.541493 537.525174 
L 459.244316 537.2884 
L 476.94714 538.641964 
L 494.649963 537.719539 
L 512.352787 538.334735 
L 530.05561 538.726241 
L 547.758434 538.455037 
L 565.461257 538.350318 
L 583.164081 538.703111 
L 600.866904 538.051992 
L 618.569728 539.226691 
L 636.272551 538.977776 
L 653.975375 539.344049 
L 671.678199 539.559643 
L 689.381022 538.270705 
L 707.083846 537.54555 
L 724.786669 537.795572 
L 742.489493 538.199143 
L 760.192316 537.922371 
L 777.89514 535.804844 
L 795.597963 536.242885 
L 813.300787 538.054535 
L 831.00361 537.348065 
L 848.706434 535.061993 
L 866.409257 533.882348 
L 884.112081 536.026261 
L 901.814904 536.995352 
L 919.517728 537.242885 
L 937.220551 538.209288 
L 954.923375 537.920249 
" clip-path="url(#pbdb5420484)" style="fill: none; stroke: #be503b; stroke-width: 1.5; stroke-linecap: square"/>
   </g>
   <g id="line2d_53">
    <path d="M 52.079375 320.621585 
L 69.782199 331.097463 
L 87.485022 321.816703 
L 105.187846 323.945305 
L 122.890669 323.822686 
L 140.593493 326.733144 
L 158.296316 329.293944 
L 175.99914 329.349109 
L 193.701963 299.536964 
L 211.404787 311.208967 
L 229.10761 312.549531 
L 246.810434 315.148902 
L 264.513257 310.946837 
L 282.216081 319.048014 
L 299.918904 321.951932 
L 317.621728 328.652387 
L 335.324551 323.499305 
L 353.027375 324.157627 
L 370.730199 323.263937 
L 388.433022 330.103028 
L 406.135846 327.755637 
L 423.838669 329.01529 
L 441.541493 327.902191 
L 459.244316 326.536606 
L 476.94714 334.802178 
L 494.649963 328.689696 
L 512.352787 331.585792 
L 530.05561 333.166101 
L 547.758434 322.380653 
L 565.461257 326.82839 
L 583.164081 328.236418 
L 600.866904 331.823983 
L 618.569728 339.992721 
L 636.272551 338.541509 
L 653.975375 338.738678 
L 671.678199 342.313582 
L 689.381022 335.642123 
L 707.083846 334.616617 
L 724.786669 329.446171 
L 742.489493 325.619536 
L 760.192316 327.125612 
L 777.89514 326.763141 
L 795.597963 328.759773 
L 813.300787 330.32645 
L 831.00361 330.246576 
L 848.706434 326.803059 
L 866.409257 330.861018 
L 884.112081 339.770012 
L 901.814904 340.507712 
L 919.517728 332.035616 
L 937.220551 333.702203 
L 954.923375 328.043427 
" clip-path="url(#pbdb5420484)" style="fill: none; stroke: #e2321d; stroke-width: 1.5; stroke-linecap: square"/>
   </g>
   <g id="line2d_54">
    <path d="M 52.079375 117.519836 
L 69.782199 116.191611 
L 87.485022 113.290043 
L 105.187846 113.768535 
L 122.890669 107.021564 
L 140.593493 105.062806 
L 158.296316 107.015771 
L 175.99914 99.852917 
L 193.701963 118.093957 
L 211.404787 106.456722 
L 229.10761 101.878895 
L 246.810434 99.829071 
L 264.513257 104.988137 
L 282.216081 92.93658 
L 299.918904 91.187324 
L 317.621728 87.127876 
L 335.324551 95.454183 
L 353.027375 83.937993 
L 370.730199 88.804368 
L 388.433022 85.84932 
L 406.135846 99.074435 
L 423.838669 95.027621 
L 441.541493 89.904746 
L 459.244316 91.49989 
L 476.94714 85.833381 
L 494.649963 88.754027 
L 512.352787 89.590295 
L 530.05561 88.497781 
L 547.758434 93.037981 
L 565.461257 93.606882 
L 583.164081 93.926559 
L 600.866904 92.836242 
L 618.569728 87.817146 
L 636.272551 91.041231 
L 653.975375 91.698179 
L 671.678199 74.570897 
L 689.381022 77.491647 
L 707.083846 81.306861 
L 724.786669 63.157294 
L 742.489493 69.731216 
L 760.192316 75.01079 
L 777.89514 70.277473 
L 795.597963 72.00379 
L 813.300787 66.073828 
L 831.00361 48.916624 
L 848.706434 65.430829 
L 866.409257 69.802305 
L 884.112081 63.804341 
L 901.814904 49.886891 
L 919.517728 63.238334 
L 937.220551 63.795492 
L 954.923375 74.197546 
" clip-path="url(#pbdb5420484)" style="fill: none; stroke: #48b585; stroke-width: 6; stroke-linecap: square"/>
   </g>
   <g id="patch_3">
    <path d="M 52.079375 578.54175 
L 52.079375 24.14175 
" style="fill: none; stroke: #ffffff; stroke-linejoin: miter; stroke-linecap: square"/>
   </g>
   <g id="patch_4">
    <path d="M 954.923375 578.54175 
L 954.923375 24.14175 
" style="fill: none; stroke: #ffffff; stroke-linejoin: miter; stroke-linecap: square"/>
   </g>
   <g id="patch_5">
    <path d="M 52.079375 578.54175 
L 954.923375 578.54175 
" style="fill: none; stroke: #ffffff; stroke-linejoin: miter; stroke-linecap: square"/>
   </g>
   <g id="patch_6">
    <path d="M 52.079375 24.14175 
L 954.923375 24.14175 
" style="fill: none; stroke: #ffffff; stroke-linejoin: miter; stroke-linecap: square"/>
   </g>
   <g id="text_24">
    <!-- Enterprise Linux Instances by Distribution Share (System Age &gt; 1 Week) -->
    <g transform="translate(52.079375 18.14175) scale(0.144 -0.144)">
     <defs>
      <path id="DejaVuSans-45" d="M 628 4666 
L 3578 4666 
L 3578 4134 
L 1259 4134 
L 1259 2753 
L 3481 2753 
L 3481 2222 
L 1259 2222 
L 1259 531 
L 3634 531 
L 3634 0 
L 628 0 
L 628 4666 
z
" transform="scale(0.015625)"/>
      <path id="DejaVuSans-6e" d="M 3513 2113 
L 3513 0 
L 2938 0 
L 2938 2094 
Q 2938 2591 2744 2837 
Q 2550 3084 2163 3084 
Q 1697 3084 1428 2787 
Q 1159 2491 1159 1978 
L 1159 0 
L 581 0 
L 581 3500 
L 1159 3500 
L 1159 2956 
Q 1366 3272 1645 3428 
Q 1925 3584 2291 3584 
Q 2894 3584 3203 3211 
Q 3513 2838 3513 2113 
z
" transform="scale(0.015625)"/>
      <path id="DejaVuSans-70" d="M 1159 525 
L 1159 -1331 
L 581 -1331 
L 581 3500 
L 1159 3500 
L 1159 2969 
Q 1341 3281 1617 3432 
Q 1894 3584 2278 3584 
Q 2916 3584 3314 3078 
Q 3713 2572 3713 1747 
Q 3713 922 3314 415 
Q 2916 -91 2278 -91 
Q 1894 -91 1617 61 
Q 1341 213 1159 525 
z
M 3116 1747 
Q 3116 2381 2855 2742 
Q 2594 3103 2138 3103 
Q 1681 3103 1420 2742 
Q 1159 2381 1159 1747 
Q 1159 1113 1420 752 
Q 1681 391 2138 391 
Q 2594 391 2855 752 
Q 3116 1113 3116 1747 
z
" transform="scale(0.015625)"/>
      <path id="DejaVuSans-69" d="M 603 3500 
L 1178 3500 
L 1178 0 
L 603 0 
L 603 3500 
z
M 603 4863 
L 1178 4863 
L 1178 4134 
L 603 4134 
L 603 4863 
z
" transform="scale(0.015625)"/>
      <path id="DejaVuSans-73" d="M 2834 3397 
L 2834 2853 
Q 2591 2978 2328 3040 
Q 2066 3103 1784 3103 
Q 1356 3103 1142 2972 
Q 928 2841 928 2578 
Q 928 2378 1081 2264 
Q 1234 2150 1697 2047 
L 1894 2003 
Q 2506 1872 2764 1633 
Q 3022 1394 3022 966 
Q 3022 478 2636 193 
Q 2250 -91 1575 -91 
Q 1294 -91 989 -36 
Q 684 19 347 128 
L 347 722 
Q 666 556 975 473 
Q 1284 391 1588 391 
Q 1994 391 2212 530 
Q 2431 669 2431 922 
Q 2431 1156 2273 1281 
Q 2116 1406 1581 1522 
L 1381 1569 
Q 847 1681 609 1914 
Q 372 2147 372 2553 
Q 372 3047 722 3315 
Q 1072 3584 1716 3584 
Q 2034 3584 2315 3537 
Q 2597 3491 2834 3397 
z
" transform="scale(0.015625)"/>
      <path id="DejaVuSans-20" transform="scale(0.015625)"/>
      <path id="DejaVuSans-4c" d="M 628 4666 
L 1259 4666 
L 1259 531 
L 3531 531 
L 3531 0 
L 628 0 
L 628 4666 
z
" transform="scale(0.015625)"/>
      <path id="DejaVuSans-75" d="M 544 1381 
L 544 3500 
L 1119 3500 
L 1119 1403 
Q 1119 906 1312 657 
Q 1506 409 1894 409 
Q 2359 409 2629 706 
Q 2900 1003 2900 1516 
L 2900 3500 
L 3475 3500 
L 3475 0 
L 2900 0 
L 2900 538 
Q 2691 219 2414 64 
Q 2138 -91 1772 -91 
Q 1169 -91 856 284 
Q 544 659 544 1381 
z
M 1991 3584 
L 1991 3584 
z
" transform="scale(0.015625)"/>
      <path id="DejaVuSans-78" d="M 3513 3500 
L 2247 1797 
L 3578 0 
L 2900 0 
L 1881 1375 
L 863 0 
L 184 0 
L 1544 1831 
L 300 3500 
L 978 3500 
L 1906 2253 
L 2834 3500 
L 3513 3500 
z
" transform="scale(0.015625)"/>
      <path id="DejaVuSans-49" d="M 628 4666 
L 1259 4666 
L 1259 0 
L 628 0 
L 628 4666 
z
" transform="scale(0.015625)"/>
      <path id="DejaVuSans-63" d="M 3122 3366 
L 3122 2828 
Q 2878 2963 2633 3030 
Q 2388 3097 2138 3097 
Q 1578 3097 1268 2742 
Q 959 2388 959 1747 
Q 959 1106 1268 751 
Q 1578 397 2138 397 
Q 2388 397 2633 464 
Q 2878 531 3122 666 
L 3122 134 
Q 2881 22 2623 -34 
Q 2366 -91 2075 -91 
Q 1284 -91 818 406 
Q 353 903 353 1747 
Q 353 2603 823 3093 
Q 1294 3584 2113 3584 
Q 2378 3584 2631 3529 
Q 2884 3475 3122 3366 
z
" transform="scale(0.015625)"/>
      <path id="DejaVuSans-62" d="M 3116 1747 
Q 3116 2381 2855 2742 
Q 2594 3103 2138 3103 
Q 1681 3103 1420 2742 
Q 1159 2381 1159 1747 
Q 1159 1113 1420 752 
Q 1681 391 2138 391 
Q 2594 391 2855 752 
Q 3116 1113 3116 1747 
z
M 1159 2969 
Q 1341 3281 1617 3432 
Q 1894 3584 2278 3584 
Q 2916 3584 3314 3078 
Q 3713 2572 3713 1747 
Q 3713 922 3314 415 
Q 2916 -91 2278 -91 
Q 1894 -91 1617 61 
Q 1341 213 1159 525 
L 1159 0 
L 581 0 
L 581 4863 
L 1159 4863 
L 1159 2969 
z
" transform="scale(0.015625)"/>
      <path id="DejaVuSans-79" d="M 2059 -325 
Q 1816 -950 1584 -1140 
Q 1353 -1331 966 -1331 
L 506 -1331 
L 506 -850 
L 844 -850 
Q 1081 -850 1212 -737 
Q 1344 -625 1503 -206 
L 1606 56 
L 191 3500 
L 800 3500 
L 1894 763 
L 2988 3500 
L 3597 3500 
L 2059 -325 
z
" transform="scale(0.015625)"/>
      <path id="DejaVuSans-6f" d="M 1959 3097 
Q 1497 3097 1228 2736 
Q 959 2375 959 1747 
Q 959 1119 1226 758 
Q 1494 397 1959 397 
Q 2419 397 2687 759 
Q 2956 1122 2956 1747 
Q 2956 2369 2687 2733 
Q 2419 3097 1959 3097 
z
M 1959 3584 
Q 2709 3584 3137 3096 
Q 3566 2609 3566 1747 
Q 3566 888 3137 398 
Q 2709 -91 1959 -91 
Q 1206 -91 779 398 
Q 353 888 353 1747 
Q 353 2609 779 3096 
Q 1206 3584 1959 3584 
z
" transform="scale(0.015625)"/>
      <path id="DejaVuSans-28" d="M 1984 4856 
Q 1566 4138 1362 3434 
Q 1159 2731 1159 2009 
Q 1159 1288 1364 580 
Q 1569 -128 1984 -844 
L 1484 -844 
Q 1016 -109 783 600 
Q 550 1309 550 2009 
Q 550 2706 781 3412 
Q 1013 4119 1484 4856 
L 1984 4856 
z
" transform="scale(0.015625)"/>
      <path id="DejaVuSans-6d" d="M 3328 2828 
Q 3544 3216 3844 3400 
Q 4144 3584 4550 3584 
Q 5097 3584 5394 3201 
Q 5691 2819 5691 2113 
L 5691 0 
L 5113 0 
L 5113 2094 
Q 5113 2597 4934 2840 
Q 4756 3084 4391 3084 
Q 3944 3084 3684 2787 
Q 3425 2491 3425 1978 
L 3425 0 
L 2847 0 
L 2847 2094 
Q 2847 2600 2669 2842 
Q 2491 3084 2119 3084 
Q 1678 3084 1418 2786 
Q 1159 2488 1159 1978 
L 1159 0 
L 581 0 
L 581 3500 
L 1159 3500 
L 1159 2956 
Q 1356 3278 1631 3431 
Q 1906 3584 2284 3584 
Q 2666 3584 2933 3390 
Q 3200 3197 3328 2828 
z
" transform="scale(0.015625)"/>
      <path id="DejaVuSans-41" d="M 2188 4044 
L 1331 1722 
L 3047 1722 
L 2188 4044 
z
M 1831 4666 
L 2547 4666 
L 4325 0 
L 3669 0 
L 3244 1197 
L 1141 1197 
L 716 0 
L 50 0 
L 1831 4666 
z
" transform="scale(0.015625)"/>
      <path id="DejaVuSans-67" d="M 2906 1791 
Q 2906 2416 2648 2759 
Q 2391 3103 1925 3103 
Q 1463 3103 1205 2759 
Q 947 2416 947 1791 
Q 947 1169 1205 825 
Q 1463 481 1925 481 
Q 2391 481 2648 825 
Q 2906 1169 2906 1791 
z
M 3481 434 
Q 3481 -459 3084 -895 
Q 2688 -1331 1869 -1331 
Q 1566 -1331 1297 -1286 
Q 1028 -1241 775 -1147 
L 775 -588 
Q 1028 -725 1275 -790 
Q 1522 -856 1778 -856 
Q 2344 -856 2625 -561 
Q 2906 -266 2906 331 
L 2906 616 
Q 2728 306 2450 153 
Q 2172 0 1784 0 
Q 1141 0 747 490 
Q 353 981 353 1791 
Q 353 2603 747 3093 
Q 1141 3584 1784 3584 
Q 2172 3584 2450 3431 
Q 2728 3278 2906 2969 
L 2906 3500 
L 3481 3500 
L 3481 434 
z
" transform="scale(0.015625)"/>
      <path id="DejaVuSans-3e" d="M 678 3150 
L 678 3719 
L 4684 2266 
L 4684 1747 
L 678 294 
L 678 863 
L 3897 2003 
L 678 3150 
z
" transform="scale(0.015625)"/>
      <path id="DejaVuSans-57" d="M 213 4666 
L 850 4666 
L 1831 722 
L 2809 4666 
L 3519 4666 
L 4500 722 
L 5478 4666 
L 6119 4666 
L 4947 0 
L 4153 0 
L 3169 4050 
L 2175 0 
L 1381 0 
L 213 4666 
z
" transform="scale(0.015625)"/>
      <path id="DejaVuSans-6b" d="M 581 4863 
L 1159 4863 
L 1159 1991 
L 2875 3500 
L 3609 3500 
L 1753 1863 
L 3688 0 
L 2938 0 
L 1159 1709 
L 1159 0 
L 581 0 
L 581 4863 
z
" transform="scale(0.015625)"/>
      <path id="DejaVuSans-29" d="M 513 4856 
L 1013 4856 
Q 1481 4119 1714 3412 
Q 1947 2706 1947 2009 
Q 1947 1309 1714 600 
Q 1481 -109 1013 -844 
L 513 -844 
Q 928 -128 1133 580 
Q 1338 1288 1338 2009 
Q 1338 2731 1133 3434 
Q 928 4138 513 4856 
z
" transform="scale(0.015625)"/>
     </defs>
     <use xlink:href="#DejaVuSans-45"/>
     <use xlink:href="#DejaVuSans-6e" x="63.183594"/>
     <use xlink:href="#DejaVuSans-74" x="126.5625"/>
     <use xlink:href="#DejaVuSans-65" x="165.771484"/>
     <use xlink:href="#DejaVuSans-72" x="227.294922"/>
     <use xlink:href="#DejaVuSans-70" x="268.408203"/>
     <use xlink:href="#DejaVuSans-72" x="331.884766"/>
     <use xlink:href="#DejaVuSans-69" x="372.998047"/>
     <use xlink:href="#DejaVuSans-73" x="400.78125"/>
     <use xlink:href="#DejaVuSans-65" x="452.880859"/>
     <use xlink:href="#DejaVuSans-20" x="514.404297"/>
     <use xlink:href="#DejaVuSans-4c" x="546.191406"/>
     <use xlink:href="#DejaVuSans-69" x="601.904297"/>
     <use xlink:href="#DejaVuSans-6e" x="629.6875"/>
     <use xlink:href="#DejaVuSans-75" x="693.066406"/>
     <use xlink:href="#DejaVuSans-78" x="756.445312"/>
     <use xlink:href="#DejaVuSans-20" x="815.625"/>
     <use xlink:href="#DejaVuSans-49" x="847.412109"/>
     <use xlink:href="#DejaVuSans-6e" x="876.904297"/>
     <use xlink:href="#DejaVuSans-73" x="940.283203"/>
     <use xlink:href="#DejaVuSans-74" x="992.382812"/>
     <use xlink:href="#DejaVuSans-61" x="1031.591797"/>
     <use xlink:href="#DejaVuSans-6e" x="1092.871094"/>
     <use xlink:href="#DejaVuSans-63" x="1156.25"/>
     <use xlink:href="#DejaVuSans-65" x="1211.230469"/>
     <use xlink:href="#DejaVuSans-73" x="1272.753906"/>
     <use xlink:href="#DejaVuSans-20" x="1324.853516"/>
     <use xlink:href="#DejaVuSans-62" x="1356.640625"/>
     <use xlink:href="#DejaVuSans-79" x="1420.117188"/>
     <use xlink:href="#DejaVuSans-20" x="1479.296875"/>
     <use xlink:href="#DejaVuSans-44" x="1511.083984"/>
     <use xlink:href="#DejaVuSans-69" x="1588.085938"/>
     <use xlink:href="#DejaVuSans-73" x="1615.869141"/>
     <use xlink:href="#DejaVuSans-74" x="1667.96875"/>
     <use xlink:href="#DejaVuSans-72" x="1707.177734"/>
     <use xlink:href="#DejaVuSans-69" x="1748.291016"/>
     <use xlink:href="#DejaVuSans-62" x="1776.074219"/>
     <use xlink:href="#DejaVuSans-75" x="1839.550781"/>
     <use xlink:href="#DejaVuSans-74" x="1902.929688"/>
     <use xlink:href="#DejaVuSans-69" x="1942.138672"/>
     <use xlink:href="#DejaVuSans-6f" x="1969.921875"/>
     <use xlink:href="#DejaVuSans-6e" x="2031.103516"/>
     <use xlink:href="#DejaVuSans-20" x="2094.482422"/>
     <use xlink:href="#DejaVuSans-53" x="2126.269531"/>
     <use xlink:href="#DejaVuSans-68" x="2189.746094"/>
     <use xlink:href="#DejaVuSans-61" x="2253.125"/>
     <use xlink:href="#DejaVuSans-72" x="2314.404297"/>
     <use xlink:href="#DejaVuSans-65" x="2353.267578"/>
     <use xlink:href="#DejaVuSans-20" x="2414.791016"/>
     <use xlink:href="#DejaVuSans-28" x="2446.578125"/>
     <use xlink:href="#DejaVuSans-53" x="2485.591797"/>
     <use xlink:href="#DejaVuSans-79" x="2549.068359"/>
     <use xlink:href="#DejaVuSans-73" x="2608.248047"/>
     <use xlink:href="#DejaVuSans-74" x="2660.347656"/>
     <use xlink:href="#DejaVuSans-65" x="2699.556641"/>
     <use xlink:href="#DejaVuSans-6d" x="2761.080078"/>
     <use xlink:href="#DejaVuSans-20" x="2858.492188"/>
     <use xlink:href="#DejaVuSans-41" x="2890.279297"/>
     <use xlink:href="#DejaVuSans-67" x="2958.6875"/>
     <use xlink:href="#DejaVuSans-65" x="3022.164062"/>
     <use xlink:href="#DejaVuSans-20" x="3083.6875"/>
     <use xlink:href="#DejaVuSans-3e" x="3115.474609"/>
     <use xlink:href="#DejaVuSans-20" x="3199.263672"/>
     <use xlink:href="#DejaVuSans-31" x="3231.050781"/>
     <use xlink:href="#DejaVuSans-20" x="3294.673828"/>
     <use xlink:href="#DejaVuSans-57" x="3326.460938"/>
     <use xlink:href="#DejaVuSans-65" x="3419.462891"/>
     <use xlink:href="#DejaVuSans-65" x="3480.986328"/>
     <use xlink:href="#DejaVuSans-6b" x="3542.509766"/>
     <use xlink:href="#DejaVuSans-29" x="3600.419922"/>
    </g>
   </g>
   <g id="text_25">
    <!-- 2025-08-07 11:55 UTC -->
    <g transform="translate(792.041375 18.14175) scale(0.144 -0.144)">
     <defs>
      <path id="DejaVuSans-3a" d="M 750 794 
L 1409 794 
L 1409 0 
L 750 0 
L 750 794 
z
M 750 3309 
L 1409 3309 
L 1409 2516 
L 750 2516 
L 750 3309 
z
" transform="scale(0.015625)"/>
      <path id="DejaVuSans-55" d="M 556 4666 
L 1191 4666 
L 1191 1831 
Q 1191 1081 1462 751 
Q 1734 422 2344 422 
Q 2950 422 3222 751 
Q 3494 1081 3494 1831 
L 3494 4666 
L 4128 4666 
L 4128 1753 
Q 4128 841 3676 375 
Q 3225 -91 2344 -91 
Q 1459 -91 1007 375 
Q 556 841 556 1753 
L 556 4666 
z
" transform="scale(0.015625)"/>
      <path id="DejaVuSans-54" d="M -19 4666 
L 3928 4666 
L 3928 4134 
L 2272 4134 
L 2272 0 
L 1638 0 
L 1638 4134 
L -19 4134 
L -19 4666 
z
" transform="scale(0.015625)"/>
      <path id="DejaVuSans-43" d="M 4122 4306 
L 4122 3641 
Q 3803 3938 3442 4084 
Q 3081 4231 2675 4231 
Q 1875 4231 1450 3742 
Q 1025 3253 1025 2328 
Q 1025 1406 1450 917 
Q 1875 428 2675 428 
Q 3081 428 3442 575 
Q 3803 722 4122 1019 
L 4122 359 
Q 3791 134 3420 21 
Q 3050 -91 2638 -91 
Q 1578 -91 968 557 
Q 359 1206 359 2328 
Q 359 3453 968 4101 
Q 1578 4750 2638 4750 
Q 3056 4750 3426 4639 
Q 3797 4528 4122 4306 
z
" transform="scale(0.015625)"/>
     </defs>
     <use xlink:href="#DejaVuSans-32"/>
     <use xlink:href="#DejaVuSans-30" x="63.623047"/>
     <use xlink:href="#DejaVuSans-32" x="127.246094"/>
     <use xlink:href="#DejaVuSans-35" x="190.869141"/>
     <use xlink:href="#DejaVuSans-2d" x="254.492188"/>
     <use xlink:href="#DejaVuSans-30" x="290.576172"/>
     <use xlink:href="#DejaVuSans-38" x="354.199219"/>
     <use xlink:href="#DejaVuSans-2d" x="417.822266"/>
     <use xlink:href="#DejaVuSans-30" x="453.90625"/>
     <use xlink:href="#DejaVuSans-37" x="517.529297"/>
     <use xlink:href="#DejaVuSans-20" x="581.152344"/>
     <use xlink:href="#DejaVuSans-31" x="612.939453"/>
     <use xlink:href="#DejaVuSans-31" x="676.5625"/>
     <use xlink:href="#DejaVuSans-3a" x="740.185547"/>
     <use xlink:href="#DejaVuSans-35" x="773.876953"/>
     <use xlink:href="#DejaVuSans-35" x="837.5"/>
     <use xlink:href="#DejaVuSans-20" x="901.123047"/>
     <use xlink:href="#DejaVuSans-55" x="932.910156"/>
     <use xlink:href="#DejaVuSans-54" x="1006.103516"/>
     <use xlink:href="#DejaVuSans-43" x="1061.3125"/>
    </g>
   </g>
   <g id="legend_1">
    <g id="patch_7">
     <path d="M 838.954625 134.888625 
L 947.923375 134.888625 
Q 949.923375 134.888625 949.923375 132.888625 
L 949.923375 31.14175 
Q 949.923375 29.14175 947.923375 29.14175 
L 838.954625 29.14175 
Q 836.954625 29.14175 836.954625 31.14175 
L 836.954625 132.888625 
Q 836.954625 134.888625 838.954625 134.888625 
z
" style="fill: #e5e5e5; opacity: 0.8; stroke: #cccccc; stroke-width: 0.5; stroke-linejoin: miter"/>
    </g>
    <g id="text_26">
     <!-- Distribution -->
     <g transform="translate(864.27025 40.740188) scale(0.1 -0.1)">
      <use xlink:href="#DejaVuSans-44"/>
      <use xlink:href="#DejaVuSans-69" x="77.001953"/>
      <use xlink:href="#DejaVuSans-73" x="104.785156"/>
      <use xlink:href="#DejaVuSans-74" x="156.884766"/>
      <use xlink:href="#DejaVuSans-72" x="196.09375"/>
      <use xlink:href="#DejaVuSans-69" x="237.207031"/>
      <use xlink:href="#DejaVuSans-62" x="264.990234"/>
      <use xlink:href="#DejaVuSans-75" x="328.466797"/>
      <use xlink:href="#DejaVuSans-74" x="391.845703"/>
      <use xlink:href="#DejaVuSans-69" x="431.054688"/>
      <use xlink:href="#DejaVuSans-6f" x="458.837891"/>
      <use xlink:href="#DejaVuSans-6e" x="520.019531"/>
     </g>
    </g>
    <g id="line2d_55">
     <path d="M 840.954625 51.918313 
L 850.954625 51.918313 
L 860.954625 51.918313 
" style="fill: none; stroke: #4ac1fa; stroke-width: 1.5; stroke-linecap: square"/>
    </g>
    <g id="text_27">
     <!-- AlmaLinux -->
     <g transform="translate(868.954625 55.418313) scale(0.1 -0.1)">
      <defs>
       <path id="DejaVuSans-6c" d="M 603 4863 
L 1178 4863 
L 1178 0 
L 603 0 
L 603 4863 
z
" transform="scale(0.015625)"/>
      </defs>
      <use xlink:href="#DejaVuSans-41"/>
      <use xlink:href="#DejaVuSans-6c" x="68.408203"/>
      <use xlink:href="#DejaVuSans-6d" x="96.191406"/>
      <use xlink:href="#DejaVuSans-61" x="193.603516"/>
      <use xlink:href="#DejaVuSans-4c" x="254.882812"/>
      <use xlink:href="#DejaVuSans-69" x="310.595703"/>
      <use xlink:href="#DejaVuSans-6e" x="338.378906"/>
      <use xlink:href="#DejaVuSans-75" x="401.757812"/>
      <use xlink:href="#DejaVuSans-78" x="465.136719"/>
     </g>
    </g>
    <g id="line2d_56">
     <path d="M 840.954625 66.596438 
L 850.954625 66.596438 
L 860.954625 66.596438 
" style="fill: none; stroke: #e9a942; stroke-width: 1.5; stroke-linecap: square"/>
    </g>
    <g id="text_28">
     <!-- CentOS Legacy -->
     <g transform="translate(868.954625 70.096438) scale(0.1 -0.1)">
      <defs>
       <path id="DejaVuSans-4f" d="M 2522 4238 
Q 1834 4238 1429 3725 
Q 1025 3213 1025 2328 
Q 1025 1447 1429 934 
Q 1834 422 2522 422 
Q 3209 422 3611 934 
Q 4013 1447 4013 2328 
Q 4013 3213 3611 3725 
Q 3209 4238 2522 4238 
z
M 2522 4750 
Q 3503 4750 4090 4092 
Q 4678 3434 4678 2328 
Q 4678 1225 4090 567 
Q 3503 -91 2522 -91 
Q 1538 -91 948 565 
Q 359 1222 359 2328 
Q 359 3434 948 4092 
Q 1538 4750 2522 4750 
z
" transform="scale(0.015625)"/>
      </defs>
      <use xlink:href="#DejaVuSans-43"/>
      <use xlink:href="#DejaVuSans-65" x="69.824219"/>
      <use xlink:href="#DejaVuSans-6e" x="131.347656"/>
      <use xlink:href="#DejaVuSans-74" x="194.726562"/>
      <use xlink:href="#DejaVuSans-4f" x="233.935547"/>
      <use xlink:href="#DejaVuSans-53" x="312.646484"/>
      <use xlink:href="#DejaVuSans-20" x="376.123047"/>
      <use xlink:href="#DejaVuSans-4c" x="407.910156"/>
      <use xlink:href="#DejaVuSans-65" x="461.873047"/>
      <use xlink:href="#DejaVuSans-67" x="523.396484"/>
      <use xlink:href="#DejaVuSans-61" x="586.873047"/>
      <use xlink:href="#DejaVuSans-63" x="648.152344"/>
      <use xlink:href="#DejaVuSans-79" x="703.132812"/>
     </g>
    </g>
    <g id="line2d_57">
     <path d="M 840.954625 81.274563 
L 850.954625 81.274563 
L 860.954625 81.274563 
" style="fill: none; stroke: #9a5689; stroke-width: 1.5; stroke-linecap: square"/>
    </g>
    <g id="text_29">
     <!-- CentOS Stream -->
     <g transform="translate(868.954625 84.774563) scale(0.1 -0.1)">
      <use xlink:href="#DejaVuSans-43"/>
      <use xlink:href="#DejaVuSans-65" x="69.824219"/>
      <use xlink:href="#DejaVuSans-6e" x="131.347656"/>
      <use xlink:href="#DejaVuSans-74" x="194.726562"/>
      <use xlink:href="#DejaVuSans-4f" x="233.935547"/>
      <use xlink:href="#DejaVuSans-53" x="312.646484"/>
      <use xlink:href="#DejaVuSans-20" x="376.123047"/>
      <use xlink:href="#DejaVuSans-53" x="407.910156"/>
      <use xlink:href="#DejaVuSans-74" x="471.386719"/>
      <use xlink:href="#DejaVuSans-72" x="510.595703"/>
      <use xlink:href="#DejaVuSans-65" x="549.458984"/>
      <use xlink:href="#DejaVuSans-61" x="610.982422"/>
      <use xlink:href="#DejaVuSans-6d" x="672.261719"/>
     </g>
    </g>
    <g id="line2d_58">
     <path d="M 840.954625 95.952688 
L 850.954625 95.952688 
L 860.954625 95.952688 
" style="fill: none; stroke: #be503b; stroke-width: 1.5; stroke-linecap: square"/>
    </g>
    <g id="text_30">
     <!-- Oracle -->
     <g transform="translate(868.954625 99.452688) scale(0.1 -0.1)">
      <use xlink:href="#DejaVuSans-4f"/>
      <use xlink:href="#DejaVuSans-72" x="78.710938"/>
      <use xlink:href="#DejaVuSans-61" x="119.824219"/>
      <use xlink:href="#DejaVuSans-63" x="181.103516"/>
      <use xlink:href="#DejaVuSans-6c" x="236.083984"/>
      <use xlink:href="#DejaVuSans-65" x="263.867188"/>
     </g>
    </g>
    <g id="line2d_59">
     <path d="M 840.954625 110.630813 
L 850.954625 110.630813 
L 860.954625 110.630813 
" style="fill: none; stroke: #e2321d; stroke-width: 1.5; stroke-linecap: square"/>
    </g>
    <g id="text_31">
     <!-- RHEL -->
     <g transform="translate(868.954625 114.130813) scale(0.1 -0.1)">
      <defs>
       <path id="DejaVuSans-52" d="M 2841 2188 
Q 3044 2119 3236 1894 
Q 3428 1669 3622 1275 
L 4263 0 
L 3584 0 
L 2988 1197 
Q 2756 1666 2539 1819 
Q 2322 1972 1947 1972 
L 1259 1972 
L 1259 0 
L 628 0 
L 628 4666 
L 2053 4666 
Q 2853 4666 3247 4331 
Q 3641 3997 3641 3322 
Q 3641 2881 3436 2590 
Q 3231 2300 2841 2188 
z
M 1259 4147 
L 1259 2491 
L 2053 2491 
Q 2509 2491 2742 2702 
Q 2975 2913 2975 3322 
Q 2975 3731 2742 3939 
Q 2509 4147 2053 4147 
L 1259 4147 
z
" transform="scale(0.015625)"/>
       <path id="DejaVuSans-48" d="M 628 4666 
L 1259 4666 
L 1259 2753 
L 3553 2753 
L 3553 4666 
L 4184 4666 
L 4184 0 
L 3553 0 
L 3553 2222 
L 1259 2222 
L 1259 0 
L 628 0 
L 628 4666 
z
" transform="scale(0.015625)"/>
      </defs>
      <use xlink:href="#DejaVuSans-52"/>
      <use xlink:href="#DejaVuSans-48" x="69.482422"/>
      <use xlink:href="#DejaVuSans-45" x="144.677734"/>
      <use xlink:href="#DejaVuSans-4c" x="207.861328"/>
     </g>
    </g>
    <g id="line2d_60">
     <path d="M 840.954625 125.308938 
L 850.954625 125.308938 
L 860.954625 125.308938 
" style="fill: none; stroke: #48b585; stroke-width: 6; stroke-linecap: square"/>
    </g>
    <g id="text_32">
     <!-- Rocky Linux -->
     <g transform="translate(868.954625 128.808938) scale(0.1 -0.1)">
      <use xlink:href="#DejaVuSans-52"/>
      <use xlink:href="#DejaVuSans-6f" x="64.982422"/>
      <use xlink:href="#DejaVuSans-63" x="126.164062"/>
      <use xlink:href="#DejaVuSans-6b" x="181.144531"/>
      <use xlink:href="#DejaVuSans-79" x="235.429688"/>
      <use xlink:href="#DejaVuSans-20" x="294.609375"/>
      <use xlink:href="#DejaVuSans-4c" x="326.396484"/>
      <use xlink:href="#DejaVuSans-69" x="382.109375"/>
      <use xlink:href="#DejaVuSans-6e" x="409.892578"/>
      <use xlink:href="#DejaVuSans-75" x="473.271484"/>
      <use xlink:href="#DejaVuSans-78" x="536.650391"/>
     </g>
    </g>
   </g>
  </g>
 </g>
 <defs>
  <clipPath id="pbdb5420484">
   <rect x="52.079375" y="24.14175" width="902.844" height="554.4"/>
  </clipPath>
 </defs>
</svg>
