<?xml version="1.0" encoding="utf-8" standalone="no"?>
<!DOCTYPE svg PUBLIC "-//W3C//DTD SVG 1.1//EN"
  "http://www.w3.org/Graphics/SVG/1.1/DTD/svg11.dtd">
<svg xmlns:xlink="http://www.w3.org/1999/xlink" width="964.735875pt" height="633.943878pt" viewBox="0 0 964.735875 633.943878" xmlns="http://www.w3.org/2000/svg" version="1.1">
 <metadata>
  <rdf:RDF xmlns:dc="http://purl.org/dc/elements/1.1/" xmlns:cc="http://creativecommons.org/ns#" xmlns:rdf="http://www.w3.org/1999/02/22-rdf-syntax-ns#">
   <cc:Work>
    <dc:type rdf:resource="http://purl.org/dc/dcmitype/StillImage"/>
    <dc:date>2024-03-14T11:55:19.494948</dc:date>
    <dc:format>image/svg+xml</dc:format>
    <dc:creator>
     <cc:Agent>
      <dc:title>Matplotlib v3.5.1, https://matplotlib.org/</dc:title>
     </cc:Agent>
    </dc:creator>
   </cc:Work>
  </rdf:RDF>
 </metadata>
 <defs>
  <style type="text/css">*{stroke-linejoin: round; stroke-linecap: butt}</style>
 </defs>
 <g id="figure_1">
  <g id="patch_1">
   <path d="M 0 633.943878 
L 964.735875 633.943878 
L 964.735875 0 
L 0 0 
z
" style="fill: #ffffff"/>
  </g>
  <g id="axes_1">
   <g id="patch_2">
    <path d="M 54.691875 567.74175 
L 957.535875 567.74175 
L 957.535875 24.14175 
L 54.691875 24.14175 
z
" style="fill: #e5e5e5"/>
   </g>
   <g id="matplotlib.axis_1">
    <g id="xtick_1">
     <g id="line2d_1">
      <path d="M 82.510598 567.74175 
L 82.510598 24.14175 
" clip-path="url(#p5334d4037b)" style="fill: none; stroke: #ffffff; stroke-width: 0.8; stroke-linecap: square"/>
     </g>
     <g id="line2d_2">
      <defs>
       <path id="mdf46e1fb4d" d="M 0 0 
L 0 3.5 
" style="stroke: #555555; stroke-width: 0.8"/>
      </defs>
      <g>
       <use xlink:href="#mdf46e1fb4d" x="82.510598" y="567.74175" style="fill: #555555; stroke: #555555; stroke-width: 0.8"/>
      </g>
     </g>
     <g id="text_1">
      <!-- 2023-03 -->
      <g style="fill: #555555" transform="translate(69.689315 609.659567)rotate(-45)scale(0.1 -0.1)">
       <defs>
        <path id="DejaVuSans-32" d="M 1228 531 
L 3431 531 
L 3431 0 
L 469 0 
L 469 531 
Q 828 903 1448 1529 
Q 2069 2156 2228 2338 
Q 2531 2678 2651 2914 
Q 2772 3150 2772 3378 
Q 2772 3750 2511 3984 
Q 2250 4219 1831 4219 
Q 1534 4219 1204 4116 
Q 875 4013 500 3803 
L 500 4441 
Q 881 4594 1212 4672 
Q 1544 4750 1819 4750 
Q 2544 4750 2975 4387 
Q 3406 4025 3406 3419 
Q 3406 3131 3298 2873 
Q 3191 2616 2906 2266 
Q 2828 2175 2409 1742 
Q 1991 1309 1228 531 
z
" transform="scale(0.015625)"/>
        <path id="DejaVuSans-30" d="M 2034 4250 
Q 1547 4250 1301 3770 
Q 1056 3291 1056 2328 
Q 1056 1369 1301 889 
Q 1547 409 2034 409 
Q 2525 409 2770 889 
Q 3016 1369 3016 2328 
Q 3016 3291 2770 3770 
Q 2525 4250 2034 4250 
z
M 2034 4750 
Q 2819 4750 3233 4129 
Q 3647 3509 3647 2328 
Q 3647 1150 3233 529 
Q 2819 -91 2034 -91 
Q 1250 -91 836 529 
Q 422 1150 422 2328 
Q 422 3509 836 4129 
Q 1250 4750 2034 4750 
z
" transform="scale(0.015625)"/>
        <path id="DejaVuSans-33" d="M 2597 2516 
Q 3050 2419 3304 2112 
Q 3559 1806 3559 1356 
Q 3559 666 3084 287 
Q 2609 -91 1734 -91 
Q 1441 -91 1130 -33 
Q 819 25 488 141 
L 488 750 
Q 750 597 1062 519 
Q 1375 441 1716 441 
Q 2309 441 2620 675 
Q 2931 909 2931 1356 
Q 2931 1769 2642 2001 
Q 2353 2234 1838 2234 
L 1294 2234 
L 1294 2753 
L 1863 2753 
Q 2328 2753 2575 2939 
Q 2822 3125 2822 3475 
Q 2822 3834 2567 4026 
Q 2313 4219 1838 4219 
Q 1578 4219 1281 4162 
Q 984 4106 628 3988 
L 628 4550 
Q 988 4650 1302 4700 
Q 1616 4750 1894 4750 
Q 2613 4750 3031 4423 
Q 3450 4097 3450 3541 
Q 3450 3153 3228 2886 
Q 3006 2619 2597 2516 
z
" transform="scale(0.015625)"/>
        <path id="DejaVuSans-2d" d="M 313 2009 
L 1997 2009 
L 1997 1497 
L 313 1497 
L 313 2009 
z
" transform="scale(0.015625)"/>
       </defs>
       <use xlink:href="#DejaVuSans-32"/>
       <use xlink:href="#DejaVuSans-30" x="63.623047"/>
       <use xlink:href="#DejaVuSans-32" x="127.246094"/>
       <use xlink:href="#DejaVuSans-33" x="190.869141"/>
       <use xlink:href="#DejaVuSans-2d" x="254.492188"/>
       <use xlink:href="#DejaVuSans-30" x="290.576172"/>
       <use xlink:href="#DejaVuSans-33" x="354.199219"/>
      </g>
     </g>
    </g>
    <g id="xtick_2">
     <g id="line2d_3">
      <path d="M 160.908816 567.74175 
L 160.908816 24.14175 
" clip-path="url(#p5334d4037b)" style="fill: none; stroke: #ffffff; stroke-width: 0.8; stroke-linecap: square"/>
     </g>
     <g id="line2d_4">
      <g>
       <use xlink:href="#mdf46e1fb4d" x="160.908816" y="567.74175" style="fill: #555555; stroke: #555555; stroke-width: 0.8"/>
      </g>
     </g>
     <g id="text_2">
      <!-- 2023-04 -->
      <g style="fill: #555555" transform="translate(148.087534 609.659567)rotate(-45)scale(0.1 -0.1)">
       <defs>
        <path id="DejaVuSans-34" d="M 2419 4116 
L 825 1625 
L 2419 1625 
L 2419 4116 
z
M 2253 4666 
L 3047 4666 
L 3047 1625 
L 3713 1625 
L 3713 1100 
L 3047 1100 
L 3047 0 
L 2419 0 
L 2419 1100 
L 313 1100 
L 313 1709 
L 2253 4666 
z
" transform="scale(0.015625)"/>
       </defs>
       <use xlink:href="#DejaVuSans-32"/>
       <use xlink:href="#DejaVuSans-30" x="63.623047"/>
       <use xlink:href="#DejaVuSans-32" x="127.246094"/>
       <use xlink:href="#DejaVuSans-33" x="190.869141"/>
       <use xlink:href="#DejaVuSans-2d" x="254.492188"/>
       <use xlink:href="#DejaVuSans-30" x="290.576172"/>
       <use xlink:href="#DejaVuSans-34" x="354.199219"/>
      </g>
     </g>
    </g>
    <g id="xtick_3">
     <g id="line2d_5">
      <path d="M 236.77806 567.74175 
L 236.77806 24.14175 
" clip-path="url(#p5334d4037b)" style="fill: none; stroke: #ffffff; stroke-width: 0.8; stroke-linecap: square"/>
     </g>
     <g id="line2d_6">
      <g>
       <use xlink:href="#mdf46e1fb4d" x="236.77806" y="567.74175" style="fill: #555555; stroke: #555555; stroke-width: 0.8"/>
      </g>
     </g>
     <g id="text_3">
      <!-- 2023-05 -->
      <g style="fill: #555555" transform="translate(223.956778 609.659567)rotate(-45)scale(0.1 -0.1)">
       <defs>
        <path id="DejaVuSans-35" d="M 691 4666 
L 3169 4666 
L 3169 4134 
L 1269 4134 
L 1269 2991 
Q 1406 3038 1543 3061 
Q 1681 3084 1819 3084 
Q 2600 3084 3056 2656 
Q 3513 2228 3513 1497 
Q 3513 744 3044 326 
Q 2575 -91 1722 -91 
Q 1428 -91 1123 -41 
Q 819 9 494 109 
L 494 744 
Q 775 591 1075 516 
Q 1375 441 1709 441 
Q 2250 441 2565 725 
Q 2881 1009 2881 1497 
Q 2881 1984 2565 2268 
Q 2250 2553 1709 2553 
Q 1456 2553 1204 2497 
Q 953 2441 691 2322 
L 691 4666 
z
" transform="scale(0.015625)"/>
       </defs>
       <use xlink:href="#DejaVuSans-32"/>
       <use xlink:href="#DejaVuSans-30" x="63.623047"/>
       <use xlink:href="#DejaVuSans-32" x="127.246094"/>
       <use xlink:href="#DejaVuSans-33" x="190.869141"/>
       <use xlink:href="#DejaVuSans-2d" x="254.492188"/>
       <use xlink:href="#DejaVuSans-30" x="290.576172"/>
       <use xlink:href="#DejaVuSans-35" x="354.199219"/>
      </g>
     </g>
    </g>
    <g id="xtick_4">
     <g id="line2d_7">
      <path d="M 315.176278 567.74175 
L 315.176278 24.14175 
" clip-path="url(#p5334d4037b)" style="fill: none; stroke: #ffffff; stroke-width: 0.8; stroke-linecap: square"/>
     </g>
     <g id="line2d_8">
      <g>
       <use xlink:href="#mdf46e1fb4d" x="315.176278" y="567.74175" style="fill: #555555; stroke: #555555; stroke-width: 0.8"/>
      </g>
     </g>
     <g id="text_4">
      <!-- 2023-06 -->
      <g style="fill: #555555" transform="translate(302.354996 609.659567)rotate(-45)scale(0.1 -0.1)">
       <defs>
        <path id="DejaVuSans-36" d="M 2113 2584 
Q 1688 2584 1439 2293 
Q 1191 2003 1191 1497 
Q 1191 994 1439 701 
Q 1688 409 2113 409 
Q 2538 409 2786 701 
Q 3034 994 3034 1497 
Q 3034 2003 2786 2293 
Q 2538 2584 2113 2584 
z
M 3366 4563 
L 3366 3988 
Q 3128 4100 2886 4159 
Q 2644 4219 2406 4219 
Q 1781 4219 1451 3797 
Q 1122 3375 1075 2522 
Q 1259 2794 1537 2939 
Q 1816 3084 2150 3084 
Q 2853 3084 3261 2657 
Q 3669 2231 3669 1497 
Q 3669 778 3244 343 
Q 2819 -91 2113 -91 
Q 1303 -91 875 529 
Q 447 1150 447 2328 
Q 447 3434 972 4092 
Q 1497 4750 2381 4750 
Q 2619 4750 2861 4703 
Q 3103 4656 3366 4563 
z
" transform="scale(0.015625)"/>
       </defs>
       <use xlink:href="#DejaVuSans-32"/>
       <use xlink:href="#DejaVuSans-30" x="63.623047"/>
       <use xlink:href="#DejaVuSans-32" x="127.246094"/>
       <use xlink:href="#DejaVuSans-33" x="190.869141"/>
       <use xlink:href="#DejaVuSans-2d" x="254.492188"/>
       <use xlink:href="#DejaVuSans-30" x="290.576172"/>
       <use xlink:href="#DejaVuSans-36" x="354.199219"/>
      </g>
     </g>
    </g>
    <g id="xtick_5">
     <g id="line2d_9">
      <path d="M 391.045522 567.74175 
L 391.045522 24.14175 
" clip-path="url(#p5334d4037b)" style="fill: none; stroke: #ffffff; stroke-width: 0.8; stroke-linecap: square"/>
     </g>
     <g id="line2d_10">
      <g>
       <use xlink:href="#mdf46e1fb4d" x="391.045522" y="567.74175" style="fill: #555555; stroke: #555555; stroke-width: 0.8"/>
      </g>
     </g>
     <g id="text_5">
      <!-- 2023-07 -->
      <g style="fill: #555555" transform="translate(378.22424 609.659567)rotate(-45)scale(0.1 -0.1)">
       <defs>
        <path id="DejaVuSans-37" d="M 525 4666 
L 3525 4666 
L 3525 4397 
L 1831 0 
L 1172 0 
L 2766 4134 
L 525 4134 
L 525 4666 
z
" transform="scale(0.015625)"/>
       </defs>
       <use xlink:href="#DejaVuSans-32"/>
       <use xlink:href="#DejaVuSans-30" x="63.623047"/>
       <use xlink:href="#DejaVuSans-32" x="127.246094"/>
       <use xlink:href="#DejaVuSans-33" x="190.869141"/>
       <use xlink:href="#DejaVuSans-2d" x="254.492188"/>
       <use xlink:href="#DejaVuSans-30" x="290.576172"/>
       <use xlink:href="#DejaVuSans-37" x="354.199219"/>
      </g>
     </g>
    </g>
    <g id="xtick_6">
     <g id="line2d_11">
      <path d="M 469.443741 567.74175 
L 469.443741 24.14175 
" clip-path="url(#p5334d4037b)" style="fill: none; stroke: #ffffff; stroke-width: 0.8; stroke-linecap: square"/>
     </g>
     <g id="line2d_12">
      <g>
       <use xlink:href="#mdf46e1fb4d" x="469.443741" y="567.74175" style="fill: #555555; stroke: #555555; stroke-width: 0.8"/>
      </g>
     </g>
     <g id="text_6">
      <!-- 2023-08 -->
      <g style="fill: #555555" transform="translate(456.622458 609.659567)rotate(-45)scale(0.1 -0.1)">
       <defs>
        <path id="DejaVuSans-38" d="M 2034 2216 
Q 1584 2216 1326 1975 
Q 1069 1734 1069 1313 
Q 1069 891 1326 650 
Q 1584 409 2034 409 
Q 2484 409 2743 651 
Q 3003 894 3003 1313 
Q 3003 1734 2745 1975 
Q 2488 2216 2034 2216 
z
M 1403 2484 
Q 997 2584 770 2862 
Q 544 3141 544 3541 
Q 544 4100 942 4425 
Q 1341 4750 2034 4750 
Q 2731 4750 3128 4425 
Q 3525 4100 3525 3541 
Q 3525 3141 3298 2862 
Q 3072 2584 2669 2484 
Q 3125 2378 3379 2068 
Q 3634 1759 3634 1313 
Q 3634 634 3220 271 
Q 2806 -91 2034 -91 
Q 1263 -91 848 271 
Q 434 634 434 1313 
Q 434 1759 690 2068 
Q 947 2378 1403 2484 
z
M 1172 3481 
Q 1172 3119 1398 2916 
Q 1625 2713 2034 2713 
Q 2441 2713 2670 2916 
Q 2900 3119 2900 3481 
Q 2900 3844 2670 4047 
Q 2441 4250 2034 4250 
Q 1625 4250 1398 4047 
Q 1172 3844 1172 3481 
z
" transform="scale(0.015625)"/>
       </defs>
       <use xlink:href="#DejaVuSans-32"/>
       <use xlink:href="#DejaVuSans-30" x="63.623047"/>
       <use xlink:href="#DejaVuSans-32" x="127.246094"/>
       <use xlink:href="#DejaVuSans-33" x="190.869141"/>
       <use xlink:href="#DejaVuSans-2d" x="254.492188"/>
       <use xlink:href="#DejaVuSans-30" x="290.576172"/>
       <use xlink:href="#DejaVuSans-38" x="354.199219"/>
      </g>
     </g>
    </g>
    <g id="xtick_7">
     <g id="line2d_13">
      <path d="M 547.841959 567.74175 
L 547.841959 24.14175 
" clip-path="url(#p5334d4037b)" style="fill: none; stroke: #ffffff; stroke-width: 0.8; stroke-linecap: square"/>
     </g>
     <g id="line2d_14">
      <g>
       <use xlink:href="#mdf46e1fb4d" x="547.841959" y="567.74175" style="fill: #555555; stroke: #555555; stroke-width: 0.8"/>
      </g>
     </g>
     <g id="text_7">
      <!-- 2023-09 -->
      <g style="fill: #555555" transform="translate(535.020677 609.659567)rotate(-45)scale(0.1 -0.1)">
       <defs>
        <path id="DejaVuSans-39" d="M 703 97 
L 703 672 
Q 941 559 1184 500 
Q 1428 441 1663 441 
Q 2288 441 2617 861 
Q 2947 1281 2994 2138 
Q 2813 1869 2534 1725 
Q 2256 1581 1919 1581 
Q 1219 1581 811 2004 
Q 403 2428 403 3163 
Q 403 3881 828 4315 
Q 1253 4750 1959 4750 
Q 2769 4750 3195 4129 
Q 3622 3509 3622 2328 
Q 3622 1225 3098 567 
Q 2575 -91 1691 -91 
Q 1453 -91 1209 -44 
Q 966 3 703 97 
z
M 1959 2075 
Q 2384 2075 2632 2365 
Q 2881 2656 2881 3163 
Q 2881 3666 2632 3958 
Q 2384 4250 1959 4250 
Q 1534 4250 1286 3958 
Q 1038 3666 1038 3163 
Q 1038 2656 1286 2365 
Q 1534 2075 1959 2075 
z
" transform="scale(0.015625)"/>
       </defs>
       <use xlink:href="#DejaVuSans-32"/>
       <use xlink:href="#DejaVuSans-30" x="63.623047"/>
       <use xlink:href="#DejaVuSans-32" x="127.246094"/>
       <use xlink:href="#DejaVuSans-33" x="190.869141"/>
       <use xlink:href="#DejaVuSans-2d" x="254.492188"/>
       <use xlink:href="#DejaVuSans-30" x="290.576172"/>
       <use xlink:href="#DejaVuSans-39" x="354.199219"/>
      </g>
     </g>
    </g>
    <g id="xtick_8">
     <g id="line2d_15">
      <path d="M 623.711203 567.74175 
L 623.711203 24.14175 
" clip-path="url(#p5334d4037b)" style="fill: none; stroke: #ffffff; stroke-width: 0.8; stroke-linecap: square"/>
     </g>
     <g id="line2d_16">
      <g>
       <use xlink:href="#mdf46e1fb4d" x="623.711203" y="567.74175" style="fill: #555555; stroke: #555555; stroke-width: 0.8"/>
      </g>
     </g>
     <g id="text_8">
      <!-- 2023-10 -->
      <g style="fill: #555555" transform="translate(610.88992 609.659567)rotate(-45)scale(0.1 -0.1)">
       <defs>
        <path id="DejaVuSans-31" d="M 794 531 
L 1825 531 
L 1825 4091 
L 703 3866 
L 703 4441 
L 1819 4666 
L 2450 4666 
L 2450 531 
L 3481 531 
L 3481 0 
L 794 0 
L 794 531 
z
" transform="scale(0.015625)"/>
       </defs>
       <use xlink:href="#DejaVuSans-32"/>
       <use xlink:href="#DejaVuSans-30" x="63.623047"/>
       <use xlink:href="#DejaVuSans-32" x="127.246094"/>
       <use xlink:href="#DejaVuSans-33" x="190.869141"/>
       <use xlink:href="#DejaVuSans-2d" x="254.492188"/>
       <use xlink:href="#DejaVuSans-31" x="290.576172"/>
       <use xlink:href="#DejaVuSans-30" x="354.199219"/>
      </g>
     </g>
    </g>
    <g id="xtick_9">
     <g id="line2d_17">
      <path d="M 702.109421 567.74175 
L 702.109421 24.14175 
" clip-path="url(#p5334d4037b)" style="fill: none; stroke: #ffffff; stroke-width: 0.8; stroke-linecap: square"/>
     </g>
     <g id="line2d_18">
      <g>
       <use xlink:href="#mdf46e1fb4d" x="702.109421" y="567.74175" style="fill: #555555; stroke: #555555; stroke-width: 0.8"/>
      </g>
     </g>
     <g id="text_9">
      <!-- 2023-11 -->
      <g style="fill: #555555" transform="translate(689.288139 609.659567)rotate(-45)scale(0.1 -0.1)">
       <use xlink:href="#DejaVuSans-32"/>
       <use xlink:href="#DejaVuSans-30" x="63.623047"/>
       <use xlink:href="#DejaVuSans-32" x="127.246094"/>
       <use xlink:href="#DejaVuSans-33" x="190.869141"/>
       <use xlink:href="#DejaVuSans-2d" x="254.492188"/>
       <use xlink:href="#DejaVuSans-31" x="290.576172"/>
       <use xlink:href="#DejaVuSans-31" x="354.199219"/>
      </g>
     </g>
    </g>
    <g id="xtick_10">
     <g id="line2d_19">
      <path d="M 777.978665 567.74175 
L 777.978665 24.14175 
" clip-path="url(#p5334d4037b)" style="fill: none; stroke: #ffffff; stroke-width: 0.8; stroke-linecap: square"/>
     </g>
     <g id="line2d_20">
      <g>
       <use xlink:href="#mdf46e1fb4d" x="777.978665" y="567.74175" style="fill: #555555; stroke: #555555; stroke-width: 0.8"/>
      </g>
     </g>
     <g id="text_10">
      <!-- 2023-12 -->
      <g style="fill: #555555" transform="translate(765.157383 609.659567)rotate(-45)scale(0.1 -0.1)">
       <use xlink:href="#DejaVuSans-32"/>
       <use xlink:href="#DejaVuSans-30" x="63.623047"/>
       <use xlink:href="#DejaVuSans-32" x="127.246094"/>
       <use xlink:href="#DejaVuSans-33" x="190.869141"/>
       <use xlink:href="#DejaVuSans-2d" x="254.492188"/>
       <use xlink:href="#DejaVuSans-31" x="290.576172"/>
       <use xlink:href="#DejaVuSans-32" x="354.199219"/>
      </g>
     </g>
    </g>
    <g id="xtick_11">
     <g id="line2d_21">
      <path d="M 856.376883 567.74175 
L 856.376883 24.14175 
" clip-path="url(#p5334d4037b)" style="fill: none; stroke: #ffffff; stroke-width: 0.8; stroke-linecap: square"/>
     </g>
     <g id="line2d_22">
      <g>
       <use xlink:href="#mdf46e1fb4d" x="856.376883" y="567.74175" style="fill: #555555; stroke: #555555; stroke-width: 0.8"/>
      </g>
     </g>
     <g id="text_11">
      <!-- 2024-01 -->
      <g style="fill: #555555" transform="translate(843.555601 609.659567)rotate(-45)scale(0.1 -0.1)">
       <use xlink:href="#DejaVuSans-32"/>
       <use xlink:href="#DejaVuSans-30" x="63.623047"/>
       <use xlink:href="#DejaVuSans-32" x="127.246094"/>
       <use xlink:href="#DejaVuSans-34" x="190.869141"/>
       <use xlink:href="#DejaVuSans-2d" x="254.492188"/>
       <use xlink:href="#DejaVuSans-30" x="290.576172"/>
       <use xlink:href="#DejaVuSans-31" x="354.199219"/>
      </g>
     </g>
    </g>
    <g id="text_12">
     <!-- Date -->
     <g style="fill: #555555" transform="translate(491.772938 624.248253)scale(0.12 -0.12)">
      <defs>
       <path id="DejaVuSans-44" d="M 1259 4147 
L 1259 519 
L 2022 519 
Q 2988 519 3436 956 
Q 3884 1394 3884 2338 
Q 3884 3275 3436 3711 
Q 2988 4147 2022 4147 
L 1259 4147 
z
M 628 4666 
L 1925 4666 
Q 3281 4666 3915 4102 
Q 4550 3538 4550 2338 
Q 4550 1131 3912 565 
Q 3275 0 1925 0 
L 628 0 
L 628 4666 
z
" transform="scale(0.015625)"/>
       <path id="DejaVuSans-61" d="M 2194 1759 
Q 1497 1759 1228 1600 
Q 959 1441 959 1056 
Q 959 750 1161 570 
Q 1363 391 1709 391 
Q 2188 391 2477 730 
Q 2766 1069 2766 1631 
L 2766 1759 
L 2194 1759 
z
M 3341 1997 
L 3341 0 
L 2766 0 
L 2766 531 
Q 2569 213 2275 61 
Q 1981 -91 1556 -91 
Q 1019 -91 701 211 
Q 384 513 384 1019 
Q 384 1609 779 1909 
Q 1175 2209 1959 2209 
L 2766 2209 
L 2766 2266 
Q 2766 2663 2505 2880 
Q 2244 3097 1772 3097 
Q 1472 3097 1187 3025 
Q 903 2953 641 2809 
L 641 3341 
Q 956 3463 1253 3523 
Q 1550 3584 1831 3584 
Q 2591 3584 2966 3190 
Q 3341 2797 3341 1997 
z
" transform="scale(0.015625)"/>
       <path id="DejaVuSans-74" d="M 1172 4494 
L 1172 3500 
L 2356 3500 
L 2356 3053 
L 1172 3053 
L 1172 1153 
Q 1172 725 1289 603 
Q 1406 481 1766 481 
L 2356 481 
L 2356 0 
L 1766 0 
Q 1100 0 847 248 
Q 594 497 594 1153 
L 594 3053 
L 172 3053 
L 172 3500 
L 594 3500 
L 594 4494 
L 1172 4494 
z
" transform="scale(0.015625)"/>
       <path id="DejaVuSans-65" d="M 3597 1894 
L 3597 1613 
L 953 1613 
Q 991 1019 1311 708 
Q 1631 397 2203 397 
Q 2534 397 2845 478 
Q 3156 559 3463 722 
L 3463 178 
Q 3153 47 2828 -22 
Q 2503 -91 2169 -91 
Q 1331 -91 842 396 
Q 353 884 353 1716 
Q 353 2575 817 3079 
Q 1281 3584 2069 3584 
Q 2775 3584 3186 3129 
Q 3597 2675 3597 1894 
z
M 3022 2063 
Q 3016 2534 2758 2815 
Q 2500 3097 2075 3097 
Q 1594 3097 1305 2825 
Q 1016 2553 972 2059 
L 3022 2063 
z
" transform="scale(0.015625)"/>
      </defs>
      <use xlink:href="#DejaVuSans-44"/>
      <use xlink:href="#DejaVuSans-61" x="77.001953"/>
      <use xlink:href="#DejaVuSans-74" x="138.28125"/>
      <use xlink:href="#DejaVuSans-65" x="177.490234"/>
     </g>
    </g>
   </g>
   <g id="matplotlib.axis_2">
    <g id="ytick_1">
     <g id="line2d_23">
      <path d="M 54.691875 567.74175 
L 957.535875 567.74175 
" clip-path="url(#p5334d4037b)" style="fill: none; stroke: #ffffff; stroke-width: 0.8; stroke-linecap: square"/>
     </g>
     <g id="line2d_24">
      <defs>
       <path id="m2283439588" d="M 0 0 
L -3.5 0 
" style="stroke: #555555; stroke-width: 0.8"/>
      </defs>
      <g>
       <use xlink:href="#m2283439588" x="54.691875" y="567.74175" style="fill: #555555; stroke: #555555; stroke-width: 0.8"/>
      </g>
     </g>
     <g id="text_13">
      <!-- 0k -->
      <g style="fill: #555555" transform="translate(35.53875 571.540969)scale(0.1 -0.1)">
       <defs>
        <path id="DejaVuSans-6b" d="M 581 4863 
L 1159 4863 
L 1159 1991 
L 2875 3500 
L 3609 3500 
L 1753 1863 
L 3688 0 
L 2938 0 
L 1159 1709 
L 1159 0 
L 581 0 
L 581 4863 
z
" transform="scale(0.015625)"/>
       </defs>
       <use xlink:href="#DejaVuSans-30"/>
       <use xlink:href="#DejaVuSans-6b" x="63.623047"/>
      </g>
     </g>
    </g>
    <g id="ytick_2">
     <g id="line2d_25">
      <path d="M 54.691875 471.495172 
L 957.535875 471.495172 
" clip-path="url(#p5334d4037b)" style="fill: none; stroke: #ffffff; stroke-width: 0.8; stroke-linecap: square"/>
     </g>
     <g id="line2d_26">
      <g>
       <use xlink:href="#m2283439588" x="54.691875" y="471.495172" style="fill: #555555; stroke: #555555; stroke-width: 0.8"/>
      </g>
     </g>
     <g id="text_14">
      <!-- 50k -->
      <g style="fill: #555555" transform="translate(29.17625 475.294391)scale(0.1 -0.1)">
       <use xlink:href="#DejaVuSans-35"/>
       <use xlink:href="#DejaVuSans-30" x="63.623047"/>
       <use xlink:href="#DejaVuSans-6b" x="127.246094"/>
      </g>
     </g>
    </g>
    <g id="ytick_3">
     <g id="line2d_27">
      <path d="M 54.691875 375.248594 
L 957.535875 375.248594 
" clip-path="url(#p5334d4037b)" style="fill: none; stroke: #ffffff; stroke-width: 0.8; stroke-linecap: square"/>
     </g>
     <g id="line2d_28">
      <g>
       <use xlink:href="#m2283439588" x="54.691875" y="375.248594" style="fill: #555555; stroke: #555555; stroke-width: 0.8"/>
      </g>
     </g>
     <g id="text_15">
      <!-- 100k -->
      <g style="fill: #555555" transform="translate(22.81375 379.047812)scale(0.1 -0.1)">
       <use xlink:href="#DejaVuSans-31"/>
       <use xlink:href="#DejaVuSans-30" x="63.623047"/>
       <use xlink:href="#DejaVuSans-30" x="127.246094"/>
       <use xlink:href="#DejaVuSans-6b" x="190.869141"/>
      </g>
     </g>
    </g>
    <g id="ytick_4">
     <g id="line2d_29">
      <path d="M 54.691875 279.002015 
L 957.535875 279.002015 
" clip-path="url(#p5334d4037b)" style="fill: none; stroke: #ffffff; stroke-width: 0.8; stroke-linecap: square"/>
     </g>
     <g id="line2d_30">
      <g>
       <use xlink:href="#m2283439588" x="54.691875" y="279.002015" style="fill: #555555; stroke: #555555; stroke-width: 0.8"/>
      </g>
     </g>
     <g id="text_16">
      <!-- 150k -->
      <g style="fill: #555555" transform="translate(22.81375 282.801234)scale(0.1 -0.1)">
       <use xlink:href="#DejaVuSans-31"/>
       <use xlink:href="#DejaVuSans-35" x="63.623047"/>
       <use xlink:href="#DejaVuSans-30" x="127.246094"/>
       <use xlink:href="#DejaVuSans-6b" x="190.869141"/>
      </g>
     </g>
    </g>
    <g id="ytick_5">
     <g id="line2d_31">
      <path d="M 54.691875 182.755437 
L 957.535875 182.755437 
" clip-path="url(#p5334d4037b)" style="fill: none; stroke: #ffffff; stroke-width: 0.8; stroke-linecap: square"/>
     </g>
     <g id="line2d_32">
      <g>
       <use xlink:href="#m2283439588" x="54.691875" y="182.755437" style="fill: #555555; stroke: #555555; stroke-width: 0.8"/>
      </g>
     </g>
     <g id="text_17">
      <!-- 200k -->
      <g style="fill: #555555" transform="translate(22.81375 186.554656)scale(0.1 -0.1)">
       <use xlink:href="#DejaVuSans-32"/>
       <use xlink:href="#DejaVuSans-30" x="63.623047"/>
       <use xlink:href="#DejaVuSans-30" x="127.246094"/>
       <use xlink:href="#DejaVuSans-6b" x="190.869141"/>
      </g>
     </g>
    </g>
    <g id="ytick_6">
     <g id="line2d_33">
      <path d="M 54.691875 86.508859 
L 957.535875 86.508859 
" clip-path="url(#p5334d4037b)" style="fill: none; stroke: #ffffff; stroke-width: 0.8; stroke-linecap: square"/>
     </g>
     <g id="line2d_34">
      <g>
       <use xlink:href="#m2283439588" x="54.691875" y="86.508859" style="fill: #555555; stroke: #555555; stroke-width: 0.8"/>
      </g>
     </g>
     <g id="text_18">
      <!-- 250k -->
      <g style="fill: #555555" transform="translate(22.81375 90.308078)scale(0.1 -0.1)">
       <use xlink:href="#DejaVuSans-32"/>
       <use xlink:href="#DejaVuSans-35" x="63.623047"/>
       <use xlink:href="#DejaVuSans-30" x="127.246094"/>
       <use xlink:href="#DejaVuSans-6b" x="190.869141"/>
      </g>
     </g>
    </g>
    <g id="text_19">
     <!-- Instances -->
     <g style="fill: #555555" transform="translate(16.318125 324.588)rotate(-90)scale(0.12 -0.12)">
      <defs>
       <path id="DejaVuSans-49" d="M 628 4666 
L 1259 4666 
L 1259 0 
L 628 0 
L 628 4666 
z
" transform="scale(0.015625)"/>
       <path id="DejaVuSans-6e" d="M 3513 2113 
L 3513 0 
L 2938 0 
L 2938 2094 
Q 2938 2591 2744 2837 
Q 2550 3084 2163 3084 
Q 1697 3084 1428 2787 
Q 1159 2491 1159 1978 
L 1159 0 
L 581 0 
L 581 3500 
L 1159 3500 
L 1159 2956 
Q 1366 3272 1645 3428 
Q 1925 3584 2291 3584 
Q 2894 3584 3203 3211 
Q 3513 2838 3513 2113 
z
" transform="scale(0.015625)"/>
       <path id="DejaVuSans-73" d="M 2834 3397 
L 2834 2853 
Q 2591 2978 2328 3040 
Q 2066 3103 1784 3103 
Q 1356 3103 1142 2972 
Q 928 2841 928 2578 
Q 928 2378 1081 2264 
Q 1234 2150 1697 2047 
L 1894 2003 
Q 2506 1872 2764 1633 
Q 3022 1394 3022 966 
Q 3022 478 2636 193 
Q 2250 -91 1575 -91 
Q 1294 -91 989 -36 
Q 684 19 347 128 
L 347 722 
Q 666 556 975 473 
Q 1284 391 1588 391 
Q 1994 391 2212 530 
Q 2431 669 2431 922 
Q 2431 1156 2273 1281 
Q 2116 1406 1581 1522 
L 1381 1569 
Q 847 1681 609 1914 
Q 372 2147 372 2553 
Q 372 3047 722 3315 
Q 1072 3584 1716 3584 
Q 2034 3584 2315 3537 
Q 2597 3491 2834 3397 
z
" transform="scale(0.015625)"/>
       <path id="DejaVuSans-63" d="M 3122 3366 
L 3122 2828 
Q 2878 2963 2633 3030 
Q 2388 3097 2138 3097 
Q 1578 3097 1268 2742 
Q 959 2388 959 1747 
Q 959 1106 1268 751 
Q 1578 397 2138 397 
Q 2388 397 2633 464 
Q 2878 531 3122 666 
L 3122 134 
Q 2881 22 2623 -34 
Q 2366 -91 2075 -91 
Q 1284 -91 818 406 
Q 353 903 353 1747 
Q 353 2603 823 3093 
Q 1294 3584 2113 3584 
Q 2378 3584 2631 3529 
Q 2884 3475 3122 3366 
z
" transform="scale(0.015625)"/>
      </defs>
      <use xlink:href="#DejaVuSans-49"/>
      <use xlink:href="#DejaVuSans-6e" x="29.492188"/>
      <use xlink:href="#DejaVuSans-73" x="92.871094"/>
      <use xlink:href="#DejaVuSans-74" x="144.970703"/>
      <use xlink:href="#DejaVuSans-61" x="184.179688"/>
      <use xlink:href="#DejaVuSans-6e" x="245.458984"/>
      <use xlink:href="#DejaVuSans-63" x="308.837891"/>
      <use xlink:href="#DejaVuSans-65" x="363.818359"/>
      <use xlink:href="#DejaVuSans-73" x="425.341797"/>
     </g>
    </g>
   </g>
   <g id="line2d_35">
    <path d="M 54.691875 485.630929 
L 63.811511 484.016898 
L 72.931148 482.402868 
L 82.050784 480.788838 
L 91.17042 479.174808 
L 100.290057 477.560778 
L 109.409693 475.946747 
L 118.52933 474.332717 
L 127.648966 472.718687 
L 136.768602 471.104657 
L 145.888239 469.490627 
L 155.007875 467.876597 
L 164.127511 466.262566 
L 173.247148 464.648536 
L 182.366784 463.034506 
L 191.48642 461.420476 
L 200.606057 459.806446 
L 209.725693 458.192416 
L 218.84533 456.578385 
L 227.964966 454.964355 
L 237.084602 453.350325 
L 246.204239 451.736295 
L 255.323875 450.122265 
L 264.443511 448.508234 
L 273.563148 446.894204 
L 282.682784 445.280174 
L 291.80242 443.666144 
L 300.922057 442.052114 
L 310.041693 440.438084 
L 319.16133 438.824053 
L 328.280966 437.210023 
L 337.400602 435.595993 
L 346.520239 433.981963 
L 355.639875 432.367933 
L 364.759511 430.753903 
L 373.879148 429.139872 
L 382.998784 427.525842 
L 392.11842 425.911812 
L 401.238057 424.297782 
L 410.357693 422.683752 
L 419.47733 421.069722 
L 428.596966 419.455691 
L 437.716602 417.841661 
L 446.836239 416.227631 
L 455.955875 414.613601 
L 465.075511 412.999571 
L 474.195148 411.38554 
L 483.314784 409.77151 
L 492.43442 408.15748 
L 501.554057 406.54345 
L 510.673693 404.92942 
L 519.79333 403.31539 
L 528.912966 401.701359 
L 538.032602 400.087329 
L 547.152239 398.473299 
L 556.271875 396.859269 
L 565.391511 395.245239 
L 574.511148 393.631209 
L 583.630784 392.017178 
L 592.75042 390.403148 
L 601.870057 388.789118 
L 610.989693 387.175088 
L 620.10933 385.561058 
L 629.228966 383.947027 
L 638.348602 382.332997 
L 647.468239 380.718967 
L 656.587875 379.104937 
L 665.707511 377.490907 
L 674.827148 375.876877 
L 683.946784 374.262846 
L 693.06642 372.648816 
L 702.186057 371.034786 
L 711.305693 369.420756 
L 720.42533 367.806726 
L 729.544966 366.192696 
L 738.664602 364.578665 
L 747.784239 362.964635 
L 756.903875 361.350605 
L 766.023511 359.736575 
L 775.143148 358.122545 
L 784.262784 356.508515 
L 793.38242 354.894484 
L 802.502057 353.280454 
L 811.621693 351.666424 
L 820.74133 350.052394 
L 829.860966 348.438364 
L 838.980602 346.824333 
L 848.100239 345.210303 
L 857.219875 343.596273 
L 866.339511 341.982243 
L 875.459148 340.368213 
L 884.578784 338.754183 
L 893.69842 337.140152 
L 902.818057 335.526122 
L 911.937693 333.912092 
L 921.05733 332.298062 
L 930.176966 330.684032 
L 939.296602 329.070002 
L 948.416239 327.455971 
L 957.535875 325.841941 
" clip-path="url(#p5334d4037b)" style="fill: none; stroke-dasharray: 1.5,2.475; stroke-dashoffset: 0; stroke: #4ac1fa; stroke-width: 1.5"/>
   </g>
   <g id="line2d_36">
    <path d="M 54.691875 393.736044 
L 63.811511 394.861891 
L 72.931148 395.987739 
L 82.050784 397.113587 
L 91.17042 398.239434 
L 100.290057 399.365282 
L 109.409693 400.49113 
L 118.52933 401.616978 
L 127.648966 402.742825 
L 136.768602 403.868673 
L 145.888239 404.994521 
L 155.007875 406.120369 
L 164.127511 407.246216 
L 173.247148 408.372064 
L 182.366784 409.497912 
L 191.48642 410.623759 
L 200.606057 411.749607 
L 209.725693 412.875455 
L 218.84533 414.001303 
L 227.964966 415.12715 
L 237.084602 416.252998 
L 246.204239 417.378846 
L 255.323875 418.504693 
L 264.443511 419.630541 
L 273.563148 420.756389 
L 282.682784 421.882237 
L 291.80242 423.008084 
L 300.922057 424.133932 
L 310.041693 425.25978 
L 319.16133 426.385628 
L 328.280966 427.511475 
L 337.400602 428.637323 
L 346.520239 429.763171 
L 355.639875 430.889018 
L 364.759511 432.014866 
L 373.879148 433.140714 
L 382.998784 434.266562 
L 392.11842 435.392409 
L 401.238057 436.518257 
L 410.357693 437.644105 
L 419.47733 438.769953 
L 428.596966 439.8958 
L 437.716602 441.021648 
L 446.836239 442.147496 
L 455.955875 443.273343 
L 465.075511 444.399191 
L 474.195148 445.525039 
L 483.314784 446.650887 
L 492.43442 447.776734 
L 501.554057 448.902582 
L 510.673693 450.02843 
L 519.79333 451.154278 
L 528.912966 452.280125 
L 538.032602 453.405973 
L 547.152239 454.531821 
L 556.271875 455.657668 
L 565.391511 456.783516 
L 574.511148 457.909364 
L 583.630784 459.035212 
L 592.75042 460.161059 
L 601.870057 461.286907 
L 610.989693 462.412755 
L 620.10933 463.538603 
L 629.228966 464.66445 
L 638.348602 465.790298 
L 647.468239 466.916146 
L 656.587875 468.041993 
L 665.707511 469.167841 
L 674.827148 470.293689 
L 683.946784 471.419537 
L 693.06642 472.545384 
L 702.186057 473.671232 
L 711.305693 474.79708 
L 720.42533 475.922927 
L 729.544966 477.048775 
L 738.664602 478.174623 
L 747.784239 479.300471 
L 756.903875 480.426318 
L 766.023511 481.552166 
L 775.143148 482.678014 
L 784.262784 483.803862 
L 793.38242 484.929709 
L 802.502057 486.055557 
L 811.621693 487.181405 
L 820.74133 488.307252 
L 829.860966 489.4331 
L 838.980602 490.558948 
L 848.100239 491.684796 
L 857.219875 492.810643 
L 866.339511 493.936491 
L 875.459148 495.062339 
L 884.578784 496.188187 
L 893.69842 497.314034 
L 902.818057 498.439882 
L 911.937693 499.56573 
L 921.05733 500.691577 
L 930.176966 501.817425 
L 939.296602 502.943273 
L 948.416239 504.069121 
L 957.535875 505.194968 
" clip-path="url(#p5334d4037b)" style="fill: none; stroke-dasharray: 1.5,2.475; stroke-dashoffset: 0; stroke: #e9a942; stroke-width: 1.5"/>
   </g>
   <g id="line2d_37">
    <path d="M 54.691875 453.510701 
L 63.811511 453.378202 
L 72.931148 453.245704 
L 82.050784 453.113206 
L 91.17042 452.980708 
L 100.290057 452.848209 
L 109.409693 452.715711 
L 118.52933 452.583213 
L 127.648966 452.450715 
L 136.768602 452.318216 
L 145.888239 452.185718 
L 155.007875 452.05322 
L 164.127511 451.920721 
L 173.247148 451.788223 
L 182.366784 451.655725 
L 191.48642 451.523227 
L 200.606057 451.390728 
L 209.725693 451.25823 
L 218.84533 451.125732 
L 227.964966 450.993234 
L 237.084602 450.860735 
L 246.204239 450.728237 
L 255.323875 450.595739 
L 264.443511 450.46324 
L 273.563148 450.330742 
L 282.682784 450.198244 
L 291.80242 450.065746 
L 300.922057 449.933247 
L 310.041693 449.800749 
L 319.16133 449.668251 
L 328.280966 449.535753 
L 337.400602 449.403254 
L 346.520239 449.270756 
L 355.639875 449.138258 
L 364.759511 449.005759 
L 373.879148 448.873261 
L 382.998784 448.740763 
L 392.11842 448.608265 
L 401.238057 448.475766 
L 410.357693 448.343268 
L 419.47733 448.21077 
L 428.596966 448.078271 
L 437.716602 447.945773 
L 446.836239 447.813275 
L 455.955875 447.680777 
L 465.075511 447.548278 
L 474.195148 447.41578 
L 483.314784 447.283282 
L 492.43442 447.150784 
L 501.554057 447.018285 
L 510.673693 446.885787 
L 519.79333 446.753289 
L 528.912966 446.62079 
L 538.032602 446.488292 
L 547.152239 446.355794 
L 556.271875 446.223296 
L 565.391511 446.090797 
L 574.511148 445.958299 
L 583.630784 445.825801 
L 592.75042 445.693303 
L 601.870057 445.560804 
L 610.989693 445.428306 
L 620.10933 445.295808 
L 629.228966 445.163309 
L 638.348602 445.030811 
L 647.468239 444.898313 
L 656.587875 444.765815 
L 665.707511 444.633316 
L 674.827148 444.500818 
L 683.946784 444.36832 
L 693.06642 444.235822 
L 702.186057 444.103323 
L 711.305693 443.970825 
L 720.42533 443.838327 
L 729.544966 443.705828 
L 738.664602 443.57333 
L 747.784239 443.440832 
L 756.903875 443.308334 
L 766.023511 443.175835 
L 775.143148 443.043337 
L 784.262784 442.910839 
L 793.38242 442.778341 
L 802.502057 442.645842 
L 811.621693 442.513344 
L 820.74133 442.380846 
L 829.860966 442.248347 
L 838.980602 442.115849 
L 848.100239 441.983351 
L 857.219875 441.850853 
L 866.339511 441.718354 
L 875.459148 441.585856 
L 884.578784 441.453358 
L 893.69842 441.32086 
L 902.818057 441.188361 
L 911.937693 441.055863 
L 921.05733 440.923365 
L 930.176966 440.790866 
L 939.296602 440.658368 
L 948.416239 440.52587 
L 957.535875 440.393372 
" clip-path="url(#p5334d4037b)" style="fill: none; stroke-dasharray: 1.5,2.475; stroke-dashoffset: 0; stroke: #9a5689; stroke-width: 1.5"/>
   </g>
   <g id="line2d_38">
    <path d="M 54.691875 520.923836 
L 63.811511 520.422393 
L 72.931148 519.92095 
L 82.050784 519.419507 
L 91.17042 518.918064 
L 100.290057 518.416621 
L 109.409693 517.915178 
L 118.52933 517.413735 
L 127.648966 516.912292 
L 136.768602 516.410849 
L 145.888239 515.909406 
L 155.007875 515.407963 
L 164.127511 514.90652 
L 173.247148 514.405077 
L 182.366784 513.903634 
L 191.48642 513.402191 
L 200.606057 512.900748 
L 209.725693 512.399305 
L 218.84533 511.897862 
L 227.964966 511.396419 
L 237.084602 510.894976 
L 246.204239 510.393533 
L 255.323875 509.89209 
L 264.443511 509.390647 
L 273.563148 508.889204 
L 282.682784 508.387761 
L 291.80242 507.886318 
L 300.922057 507.384875 
L 310.041693 506.883432 
L 319.16133 506.381989 
L 328.280966 505.880546 
L 337.400602 505.379103 
L 346.520239 504.87766 
L 355.639875 504.376217 
L 364.759511 503.874774 
L 373.879148 503.373331 
L 382.998784 502.871888 
L 392.11842 502.370445 
L 401.238057 501.869002 
L 410.357693 501.367559 
L 419.47733 500.866116 
L 428.596966 500.364673 
L 437.716602 499.86323 
L 446.836239 499.361787 
L 455.955875 498.860344 
L 465.075511 498.358901 
L 474.195148 497.857458 
L 483.314784 497.356015 
L 492.43442 496.854572 
L 501.554057 496.353129 
L 510.673693 495.851686 
L 519.79333 495.350243 
L 528.912966 494.8488 
L 538.032602 494.347357 
L 547.152239 493.845914 
L 556.271875 493.344471 
L 565.391511 492.843028 
L 574.511148 492.341586 
L 583.630784 491.840143 
L 592.75042 491.3387 
L 601.870057 490.837257 
L 610.989693 490.335814 
L 620.10933 489.834371 
L 629.228966 489.332928 
L 638.348602 488.831485 
L 647.468239 488.330042 
L 656.587875 487.828599 
L 665.707511 487.327156 
L 674.827148 486.825713 
L 683.946784 486.32427 
L 693.06642 485.822827 
L 702.186057 485.321384 
L 711.305693 484.819941 
L 720.42533 484.318498 
L 729.544966 483.817055 
L 738.664602 483.315612 
L 747.784239 482.814169 
L 756.903875 482.312726 
L 766.023511 481.811283 
L 775.143148 481.30984 
L 784.262784 480.808397 
L 793.38242 480.306954 
L 802.502057 479.805511 
L 811.621693 479.304068 
L 820.74133 478.802625 
L 829.860966 478.301182 
L 838.980602 477.799739 
L 848.100239 477.298296 
L 857.219875 476.796853 
L 866.339511 476.29541 
L 875.459148 475.793967 
L 884.578784 475.292524 
L 893.69842 474.791081 
L 902.818057 474.289638 
L 911.937693 473.788195 
L 921.05733 473.286752 
L 930.176966 472.785309 
L 939.296602 472.283866 
L 948.416239 471.782423 
L 957.535875 471.28098 
" clip-path="url(#p5334d4037b)" style="fill: none; stroke-dasharray: 1.5,2.475; stroke-dashoffset: 0; stroke: #be503b; stroke-width: 1.5"/>
   </g>
   <g id="line2d_39">
    <path d="M 54.691875 429.373247 
L 63.811511 428.365283 
L 72.931148 427.357318 
L 82.050784 426.349354 
L 91.17042 425.341389 
L 100.290057 424.333425 
L 109.409693 423.32546 
L 118.52933 422.317496 
L 127.648966 421.309531 
L 136.768602 420.301567 
L 145.888239 419.293602 
L 155.007875 418.285638 
L 164.127511 417.277673 
L 173.247148 416.269709 
L 182.366784 415.261745 
L 191.48642 414.25378 
L 200.606057 413.245816 
L 209.725693 412.237851 
L 218.84533 411.229887 
L 227.964966 410.221922 
L 237.084602 409.213958 
L 246.204239 408.205993 
L 255.323875 407.198029 
L 264.443511 406.190064 
L 273.563148 405.1821 
L 282.682784 404.174135 
L 291.80242 403.166171 
L 300.922057 402.158206 
L 310.041693 401.150242 
L 319.16133 400.142278 
L 328.280966 399.134313 
L 337.400602 398.126349 
L 346.520239 397.118384 
L 355.639875 396.11042 
L 364.759511 395.102455 
L 373.879148 394.094491 
L 382.998784 393.086526 
L 392.11842 392.078562 
L 401.238057 391.070597 
L 410.357693 390.062633 
L 419.47733 389.054668 
L 428.596966 388.046704 
L 437.716602 387.03874 
L 446.836239 386.030775 
L 455.955875 385.022811 
L 465.075511 384.014846 
L 474.195148 383.006882 
L 483.314784 381.998917 
L 492.43442 380.990953 
L 501.554057 379.982988 
L 510.673693 378.975024 
L 519.79333 377.967059 
L 528.912966 376.959095 
L 538.032602 375.95113 
L 547.152239 374.943166 
L 556.271875 373.935201 
L 565.391511 372.927237 
L 574.511148 371.919273 
L 583.630784 370.911308 
L 592.75042 369.903344 
L 601.870057 368.895379 
L 610.989693 367.887415 
L 620.10933 366.87945 
L 629.228966 365.871486 
L 638.348602 364.863521 
L 647.468239 363.855557 
L 656.587875 362.847592 
L 665.707511 361.839628 
L 674.827148 360.831663 
L 683.946784 359.823699 
L 693.06642 358.815735 
L 702.186057 357.80777 
L 711.305693 356.799806 
L 720.42533 355.791841 
L 729.544966 354.783877 
L 738.664602 353.775912 
L 747.784239 352.767948 
L 756.903875 351.759983 
L 766.023511 350.752019 
L 775.143148 349.744054 
L 784.262784 348.73609 
L 793.38242 347.728125 
L 802.502057 346.720161 
L 811.621693 345.712196 
L 820.74133 344.704232 
L 829.860966 343.696268 
L 838.980602 342.688303 
L 848.100239 341.680339 
L 857.219875 340.672374 
L 866.339511 339.66441 
L 875.459148 338.656445 
L 884.578784 337.648481 
L 893.69842 336.640516 
L 902.818057 335.632552 
L 911.937693 334.624587 
L 921.05733 333.616623 
L 930.176966 332.608658 
L 939.296602 331.600694 
L 948.416239 330.59273 
L 957.535875 329.584765 
" clip-path="url(#p5334d4037b)" style="fill: none; stroke-dasharray: 1.5,2.475; stroke-dashoffset: 0; stroke: #e2321d; stroke-width: 1.5"/>
   </g>
   <g id="line2d_40">
    <path d="M 54.691875 396.119316 
L 63.811511 393.372566 
L 72.931148 390.625816 
L 82.050784 387.879066 
L 91.17042 385.132316 
L 100.290057 382.385565 
L 109.409693 379.638815 
L 118.52933 376.892065 
L 127.648966 374.145315 
L 136.768602 371.398565 
L 145.888239 368.651815 
L 155.007875 365.905065 
L 164.127511 363.158315 
L 173.247148 360.411565 
L 182.366784 357.664815 
L 191.48642 354.918065 
L 200.606057 352.171315 
L 209.725693 349.424565 
L 218.84533 346.677815 
L 227.964966 343.931065 
L 237.084602 341.184315 
L 246.204239 338.437565 
L 255.323875 335.690815 
L 264.443511 332.944065 
L 273.563148 330.197315 
L 282.682784 327.450565 
L 291.80242 324.703815 
L 300.922057 321.957065 
L 310.041693 319.210315 
L 319.16133 316.463565 
L 328.280966 313.716815 
L 337.400602 310.970065 
L 346.520239 308.223315 
L 355.639875 305.476565 
L 364.759511 302.729815 
L 373.879148 299.983065 
L 382.998784 297.236315 
L 392.11842 294.489565 
L 401.238057 291.742815 
L 410.357693 288.996065 
L 419.47733 286.249315 
L 428.596966 283.502565 
L 437.716602 280.755815 
L 446.836239 278.009065 
L 455.955875 275.262315 
L 465.075511 272.515565 
L 474.195148 269.768815 
L 483.314784 267.022065 
L 492.43442 264.275315 
L 501.554057 261.528565 
L 510.673693 258.781815 
L 519.79333 256.035065 
L 528.912966 253.288315 
L 538.032602 250.541565 
L 547.152239 247.794815 
L 556.271875 245.048065 
L 565.391511 242.301315 
L 574.511148 239.554565 
L 583.630784 236.807815 
L 592.75042 234.061064 
L 601.870057 231.314314 
L 610.989693 228.567564 
L 620.10933 225.820814 
L 629.228966 223.074064 
L 638.348602 220.327314 
L 647.468239 217.580564 
L 656.587875 214.833814 
L 665.707511 212.087064 
L 674.827148 209.340314 
L 683.946784 206.593564 
L 693.06642 203.846814 
L 702.186057 201.100064 
L 711.305693 198.353314 
L 720.42533 195.606564 
L 729.544966 192.859814 
L 738.664602 190.113064 
L 747.784239 187.366314 
L 756.903875 184.619564 
L 766.023511 181.872814 
L 775.143148 179.126064 
L 784.262784 176.379314 
L 793.38242 173.632564 
L 802.502057 170.885814 
L 811.621693 168.139064 
L 820.74133 165.392314 
L 829.860966 162.645564 
L 838.980602 159.898814 
L 848.100239 157.152064 
L 857.219875 154.405314 
L 866.339511 151.658564 
L 875.459148 148.911814 
L 884.578784 146.165064 
L 893.69842 143.418314 
L 902.818057 140.671564 
L 911.937693 137.924814 
L 921.05733 135.178064 
L 930.176966 132.431314 
L 939.296602 129.684564 
L 948.416239 126.937814 
L 957.535875 124.191064 
" clip-path="url(#p5334d4037b)" style="fill: none; stroke-dasharray: 1.5,2.475; stroke-dashoffset: 0; stroke: #48b585; stroke-width: 1.5"/>
   </g>
   <g id="line2d_41">
    <path d="M 54.691875 486.673257 
L 72.394699 493.202625 
L 90.097522 491.466337 
L 107.800346 492.22861 
L 125.503169 492.188186 
L 143.205993 490.365276 
L 160.908816 482.494231 
L 214.017287 477.57988 
L 231.72011 443.780007 
L 249.422934 408.309293 
L 267.125757 447.237184 
L 284.828581 429.966698 
L 302.531404 431.874305 
L 320.234228 427.327617 
L 337.937051 439.281442 
L 355.639875 434.453714 
L 373.342699 438.576917 
L 391.045522 429.947449 
L 408.748346 434.222722 
L 426.451169 435.739568 
L 444.153993 437.851218 
L 461.856816 411.558578 
L 479.55964 433.529747 
L 497.262463 420.164947 
L 514.965287 434.274695 
L 532.66811 426.888733 
L 550.370934 420.255418 
L 568.073757 425.512407 
L 585.776581 414.834811 
L 603.479404 265.034712 
L 656.587875 335.928017 
L 674.290699 336.314928 
L 691.993522 304.053075 
L 709.696346 330.547833 
L 727.399169 281.854764 
L 745.101993 294.721007 
L 762.804816 291.437073 
L 780.50764 379.398746 
L 798.210463 302.166642 
L 815.913287 301.593012 
L 833.61611 355.816409 
L 851.318934 362.184083 
L 869.021757 401.015727 
L 886.724581 376.087864 
L 904.427404 375.044551 
L 922.130228 386.515218 
L 939.833051 386.557567 
L 957.535875 408.363191 
" clip-path="url(#p5334d4037b)" style="fill: none; stroke: #4ac1fa; stroke-width: 1.5; stroke-linecap: square"/>
   </g>
   <g id="line2d_42">
    <path d="M 54.691875 446.759801 
L 72.394699 437.51243 
L 90.097522 454.798315 
L 107.800346 452.857984 
L 125.503169 458.806023 
L 143.205993 449.381558 
L 160.908816 416.401705 
L 214.017287 273.444738 
L 231.72011 299.225346 
L 249.422934 272.68439 
L 267.125757 299.456338 
L 284.828581 297.032849 
L 302.531404 333.881814 
L 320.234228 295.6007 
L 337.937051 400.026313 
L 355.639875 489.878268 
L 373.342699 491.751227 
L 391.045522 491.189147 
L 408.748346 487.670372 
L 426.451169 499.156438 
L 444.153993 490.3903 
L 461.856816 486.963922 
L 479.55964 493.506764 
L 497.262463 504.074639 
L 514.965287 498.707929 
L 532.66811 496.101572 
L 550.370934 489.244966 
L 568.073757 481.903277 
L 585.776581 482.575078 
L 603.479404 481.629936 
L 656.587875 470.14387 
L 674.290699 471.554845 
L 691.993522 489.25459 
L 709.696346 480.559675 
L 727.399169 483.620316 
L 745.101993 488.265176 
L 762.804816 505.953372 
L 780.50764 510.388414 
L 798.210463 502.77531 
L 815.913287 486.88115 
L 833.61611 480.592398 
L 851.318934 486.571236 
L 869.021757 481.177578 
L 886.724581 473.762741 
L 904.427404 485.635719 
L 922.130228 463.013923 
L 939.833051 455.537489 
L 957.535875 454.122664 
" clip-path="url(#p5334d4037b)" style="fill: none; stroke: #e9a942; stroke-width: 1.5; stroke-linecap: square"/>
   </g>
   <g id="line2d_43">
    <path d="M 54.691875 451.71265 
L 72.394699 435.225611 
L 90.097522 456.686673 
L 107.800346 467.252623 
L 125.503169 470.161194 
L 143.205993 444.54998 
L 160.908816 420.519134 
L 214.017287 444.059122 
L 231.72011 446.709753 
L 249.422934 431.214054 
L 267.125757 423.464279 
L 284.828581 465.704978 
L 302.531404 462.9658 
L 320.234228 469.670337 
L 337.937051 478.022615 
L 355.639875 468.5789 
L 373.342699 467.706906 
L 391.045522 469.273801 
L 408.748346 420.92337 
L 426.451169 452.072612 
L 444.153993 466.438377 
L 461.856816 452.655867 
L 479.55964 456.082245 
L 497.262463 456.07262 
L 514.965287 451.703025 
L 532.66811 440.60387 
L 550.370934 445.549019 
L 568.073757 441.745354 
L 585.776581 431.662563 
L 603.479404 437.033122 
L 656.587875 410.109104 
L 674.290699 383.475751 
L 691.993522 421.514324 
L 709.696346 441.319945 
L 727.399169 437.117819 
L 745.101993 440.395977 
L 762.804816 455.216026 
L 780.50764 479.171799 
L 798.210463 465.21412 
L 815.913287 449.358459 
L 833.61611 448.725156 
L 851.318934 438.107234 
L 869.021757 447.300707 
L 886.724581 444.034098 
L 904.427404 445.10821 
L 922.130228 455.443167 
L 939.833051 452.370977 
L 957.535875 408.035953 
" clip-path="url(#p5334d4037b)" style="fill: none; stroke: #9a5689; stroke-width: 1.5; stroke-linecap: square"/>
   </g>
   <g id="line2d_44">
    <path d="M 54.691875 528.249854 
L 72.394699 527.930315 
L 90.097522 521.273902 
L 107.800346 524.007305 
L 125.503169 526.713759 
L 143.205993 510.519309 
L 160.908816 508.068872 
L 214.017287 503.45866 
L 231.72011 518.330682 
L 249.422934 517.277744 
L 267.125757 505.146825 
L 284.828581 511.816713 
L 302.531404 511.62422 
L 320.234228 502.06501 
L 337.937051 504.342204 
L 355.639875 499.185312 
L 373.342699 492.22861 
L 391.045522 500.590512 
L 408.748346 495.962977 
L 426.451169 525.148789 
L 444.153993 501.027472 
L 461.856816 498.773377 
L 479.55964 508.280614 
L 497.262463 494.009171 
L 514.965287 499.80899 
L 532.66811 500.834979 
L 550.370934 476.811833 
L 568.073757 495.810907 
L 585.776581 492.188186 
L 603.479404 487.84939 
L 656.587875 460.459539 
L 674.290699 446.297818 
L 691.993522 474.858027 
L 709.696346 461.962911 
L 727.399169 467.980247 
L 745.101993 471.793536 
L 762.804816 482.315212 
L 780.50764 506.609773 
L 798.210463 487.606849 
L 815.913287 485.593371 
L 833.61611 491.214171 
L 851.318934 463.714598 
L 869.021757 497.368177 
L 886.724581 489.077497 
L 904.427404 487.830141 
L 922.130228 471.535595 
L 939.833051 485.033215 
L 957.535875 470.913842 
" clip-path="url(#p5334d4037b)" style="fill: none; stroke: #be503b; stroke-width: 1.5; stroke-linecap: square"/>
   </g>
   <g id="line2d_45">
    <path d="M 54.691875 424.965726 
L 72.394699 421.650994 
L 90.097522 420.132223 
L 107.800346 426.11106 
L 125.503169 427.173623 
L 143.205993 416.817491 
L 160.908816 414.784763 
L 214.017287 407.267905 
L 231.72011 406.093697 
L 249.422934 417.071582 
L 267.125757 412.422872 
L 284.828581 410.395919 
L 302.531404 408.8348 
L 320.234228 389.225522 
L 337.937051 417.881978 
L 355.639875 397.331408 
L 373.342699 383.974308 
L 391.045522 390.380481 
L 408.748346 387.662477 
L 426.451169 399.350662 
L 444.153993 399.246715 
L 461.856816 364.992558 
L 479.55964 363.24087 
L 497.262463 375.568132 
L 514.965287 387.473834 
L 532.66811 379.910778 
L 550.370934 374.488246 
L 568.073757 381.435324 
L 585.776581 375.77025 
L 603.479404 363.625857 
L 656.587875 352.896288 
L 674.290699 317.516046 
L 691.993522 359.564251 
L 709.696346 344.742278 
L 727.399169 331.822137 
L 745.101993 332.118577 
L 762.804816 361.471858 
L 780.50764 429.695283 
L 798.210463 403.102353 
L 815.913287 363.444913 
L 833.61611 344.39579 
L 851.318934 347.109944 
L 869.021757 333.610399 
L 886.724581 339.260073 
L 904.427404 328.674874 
L 922.130228 324.43425 
L 939.833051 323.935693 
L 957.535875 288.869215 
" clip-path="url(#p5334d4037b)" style="fill: none; stroke: #e2321d; stroke-width: 1.5; stroke-linecap: square"/>
   </g>
   <g id="line2d_46">
    <path d="M 54.691875 351.943447 
L 72.394699 307.439029 
L 90.097522 360.703811 
L 107.800346 370.519037 
L 125.503169 365.135003 
L 143.205993 327.419819 
L 160.908816 367.498819 
L 214.017287 325.69123 
L 231.72011 375.724052 
L 249.422934 342.980966 
L 267.125757 320.846178 
L 284.828581 328.724923 
L 302.531404 332.099328 
L 320.234228 354.690324 
L 337.937051 393.398773 
L 355.639875 343.596944 
L 373.342699 314.88274 
L 391.045522 304.439986 
L 408.748346 291.071336 
L 426.451169 313.225374 
L 444.153993 293.587222 
L 461.856816 308.2552 
L 479.55964 318.364941 
L 497.262463 257.733447 
L 514.965287 256.824879 
L 532.66811 201.423423 
L 550.370934 235.513961 
L 568.073757 263.502466 
L 585.776581 294.135827 
L 603.479404 254.767127 
L 656.587875 139.022917 
L 674.290699 130.79191 
L 691.993522 60.930368 
L 709.696346 187.964302 
L 727.399169 273.764277 
L 745.101993 258.48032 
L 762.804816 223.587086 
L 780.50764 306.301395 
L 798.210463 224.337809 
L 815.913287 208.849809 
L 833.61611 183.498461 
L 851.318934 117.41171 
L 869.021757 96.02957 
L 886.724581 158.347305 
L 904.427404 134.637923 
L 922.130228 70.401032 
L 939.833051 71.504017 
L 957.535875 48.146898 
" clip-path="url(#p5334d4037b)" style="fill: none; stroke: #48b585; stroke-width: 6; stroke-linecap: square"/>
   </g>
   <g id="patch_3">
    <path d="M 54.691875 567.74175 
L 54.691875 24.14175 
" style="fill: none; stroke: #ffffff; stroke-linejoin: miter; stroke-linecap: square"/>
   </g>
   <g id="patch_4">
    <path d="M 957.535875 567.74175 
L 957.535875 24.14175 
" style="fill: none; stroke: #ffffff; stroke-linejoin: miter; stroke-linecap: square"/>
   </g>
   <g id="patch_5">
    <path d="M 54.691875 567.74175 
L 957.535875 567.74175 
" style="fill: none; stroke: #ffffff; stroke-linejoin: miter; stroke-linecap: square"/>
   </g>
   <g id="patch_6">
    <path d="M 54.691875 24.14175 
L 957.535875 24.14175 
" style="fill: none; stroke: #ffffff; stroke-linejoin: miter; stroke-linecap: square"/>
   </g>
   <g id="text_20">
    <!-- Potentially Ephemeral Enterprise Linux 8 and 9 Instances by Distribution -->
    <g transform="translate(54.691875 18.14175)scale(0.144 -0.144)">
     <defs>
      <path id="DejaVuSans-50" d="M 1259 4147 
L 1259 2394 
L 2053 2394 
Q 2494 2394 2734 2622 
Q 2975 2850 2975 3272 
Q 2975 3691 2734 3919 
Q 2494 4147 2053 4147 
L 1259 4147 
z
M 628 4666 
L 2053 4666 
Q 2838 4666 3239 4311 
Q 3641 3956 3641 3272 
Q 3641 2581 3239 2228 
Q 2838 1875 2053 1875 
L 1259 1875 
L 1259 0 
L 628 0 
L 628 4666 
z
" transform="scale(0.015625)"/>
      <path id="DejaVuSans-6f" d="M 1959 3097 
Q 1497 3097 1228 2736 
Q 959 2375 959 1747 
Q 959 1119 1226 758 
Q 1494 397 1959 397 
Q 2419 397 2687 759 
Q 2956 1122 2956 1747 
Q 2956 2369 2687 2733 
Q 2419 3097 1959 3097 
z
M 1959 3584 
Q 2709 3584 3137 3096 
Q 3566 2609 3566 1747 
Q 3566 888 3137 398 
Q 2709 -91 1959 -91 
Q 1206 -91 779 398 
Q 353 888 353 1747 
Q 353 2609 779 3096 
Q 1206 3584 1959 3584 
z
" transform="scale(0.015625)"/>
      <path id="DejaVuSans-69" d="M 603 3500 
L 1178 3500 
L 1178 0 
L 603 0 
L 603 3500 
z
M 603 4863 
L 1178 4863 
L 1178 4134 
L 603 4134 
L 603 4863 
z
" transform="scale(0.015625)"/>
      <path id="DejaVuSans-6c" d="M 603 4863 
L 1178 4863 
L 1178 0 
L 603 0 
L 603 4863 
z
" transform="scale(0.015625)"/>
      <path id="DejaVuSans-79" d="M 2059 -325 
Q 1816 -950 1584 -1140 
Q 1353 -1331 966 -1331 
L 506 -1331 
L 506 -850 
L 844 -850 
Q 1081 -850 1212 -737 
Q 1344 -625 1503 -206 
L 1606 56 
L 191 3500 
L 800 3500 
L 1894 763 
L 2988 3500 
L 3597 3500 
L 2059 -325 
z
" transform="scale(0.015625)"/>
      <path id="DejaVuSans-20" transform="scale(0.015625)"/>
      <path id="DejaVuSans-45" d="M 628 4666 
L 3578 4666 
L 3578 4134 
L 1259 4134 
L 1259 2753 
L 3481 2753 
L 3481 2222 
L 1259 2222 
L 1259 531 
L 3634 531 
L 3634 0 
L 628 0 
L 628 4666 
z
" transform="scale(0.015625)"/>
      <path id="DejaVuSans-70" d="M 1159 525 
L 1159 -1331 
L 581 -1331 
L 581 3500 
L 1159 3500 
L 1159 2969 
Q 1341 3281 1617 3432 
Q 1894 3584 2278 3584 
Q 2916 3584 3314 3078 
Q 3713 2572 3713 1747 
Q 3713 922 3314 415 
Q 2916 -91 2278 -91 
Q 1894 -91 1617 61 
Q 1341 213 1159 525 
z
M 3116 1747 
Q 3116 2381 2855 2742 
Q 2594 3103 2138 3103 
Q 1681 3103 1420 2742 
Q 1159 2381 1159 1747 
Q 1159 1113 1420 752 
Q 1681 391 2138 391 
Q 2594 391 2855 752 
Q 3116 1113 3116 1747 
z
" transform="scale(0.015625)"/>
      <path id="DejaVuSans-68" d="M 3513 2113 
L 3513 0 
L 2938 0 
L 2938 2094 
Q 2938 2591 2744 2837 
Q 2550 3084 2163 3084 
Q 1697 3084 1428 2787 
Q 1159 2491 1159 1978 
L 1159 0 
L 581 0 
L 581 4863 
L 1159 4863 
L 1159 2956 
Q 1366 3272 1645 3428 
Q 1925 3584 2291 3584 
Q 2894 3584 3203 3211 
Q 3513 2838 3513 2113 
z
" transform="scale(0.015625)"/>
      <path id="DejaVuSans-6d" d="M 3328 2828 
Q 3544 3216 3844 3400 
Q 4144 3584 4550 3584 
Q 5097 3584 5394 3201 
Q 5691 2819 5691 2113 
L 5691 0 
L 5113 0 
L 5113 2094 
Q 5113 2597 4934 2840 
Q 4756 3084 4391 3084 
Q 3944 3084 3684 2787 
Q 3425 2491 3425 1978 
L 3425 0 
L 2847 0 
L 2847 2094 
Q 2847 2600 2669 2842 
Q 2491 3084 2119 3084 
Q 1678 3084 1418 2786 
Q 1159 2488 1159 1978 
L 1159 0 
L 581 0 
L 581 3500 
L 1159 3500 
L 1159 2956 
Q 1356 3278 1631 3431 
Q 1906 3584 2284 3584 
Q 2666 3584 2933 3390 
Q 3200 3197 3328 2828 
z
" transform="scale(0.015625)"/>
      <path id="DejaVuSans-72" d="M 2631 2963 
Q 2534 3019 2420 3045 
Q 2306 3072 2169 3072 
Q 1681 3072 1420 2755 
Q 1159 2438 1159 1844 
L 1159 0 
L 581 0 
L 581 3500 
L 1159 3500 
L 1159 2956 
Q 1341 3275 1631 3429 
Q 1922 3584 2338 3584 
Q 2397 3584 2469 3576 
Q 2541 3569 2628 3553 
L 2631 2963 
z
" transform="scale(0.015625)"/>
      <path id="DejaVuSans-4c" d="M 628 4666 
L 1259 4666 
L 1259 531 
L 3531 531 
L 3531 0 
L 628 0 
L 628 4666 
z
" transform="scale(0.015625)"/>
      <path id="DejaVuSans-75" d="M 544 1381 
L 544 3500 
L 1119 3500 
L 1119 1403 
Q 1119 906 1312 657 
Q 1506 409 1894 409 
Q 2359 409 2629 706 
Q 2900 1003 2900 1516 
L 2900 3500 
L 3475 3500 
L 3475 0 
L 2900 0 
L 2900 538 
Q 2691 219 2414 64 
Q 2138 -91 1772 -91 
Q 1169 -91 856 284 
Q 544 659 544 1381 
z
M 1991 3584 
L 1991 3584 
z
" transform="scale(0.015625)"/>
      <path id="DejaVuSans-78" d="M 3513 3500 
L 2247 1797 
L 3578 0 
L 2900 0 
L 1881 1375 
L 863 0 
L 184 0 
L 1544 1831 
L 300 3500 
L 978 3500 
L 1906 2253 
L 2834 3500 
L 3513 3500 
z
" transform="scale(0.015625)"/>
      <path id="DejaVuSans-64" d="M 2906 2969 
L 2906 4863 
L 3481 4863 
L 3481 0 
L 2906 0 
L 2906 525 
Q 2725 213 2448 61 
Q 2172 -91 1784 -91 
Q 1150 -91 751 415 
Q 353 922 353 1747 
Q 353 2572 751 3078 
Q 1150 3584 1784 3584 
Q 2172 3584 2448 3432 
Q 2725 3281 2906 2969 
z
M 947 1747 
Q 947 1113 1208 752 
Q 1469 391 1925 391 
Q 2381 391 2643 752 
Q 2906 1113 2906 1747 
Q 2906 2381 2643 2742 
Q 2381 3103 1925 3103 
Q 1469 3103 1208 2742 
Q 947 2381 947 1747 
z
" transform="scale(0.015625)"/>
      <path id="DejaVuSans-62" d="M 3116 1747 
Q 3116 2381 2855 2742 
Q 2594 3103 2138 3103 
Q 1681 3103 1420 2742 
Q 1159 2381 1159 1747 
Q 1159 1113 1420 752 
Q 1681 391 2138 391 
Q 2594 391 2855 752 
Q 3116 1113 3116 1747 
z
M 1159 2969 
Q 1341 3281 1617 3432 
Q 1894 3584 2278 3584 
Q 2916 3584 3314 3078 
Q 3713 2572 3713 1747 
Q 3713 922 3314 415 
Q 2916 -91 2278 -91 
Q 1894 -91 1617 61 
Q 1341 213 1159 525 
L 1159 0 
L 581 0 
L 581 4863 
L 1159 4863 
L 1159 2969 
z
" transform="scale(0.015625)"/>
     </defs>
     <use xlink:href="#DejaVuSans-50"/>
     <use xlink:href="#DejaVuSans-6f" x="56.677734"/>
     <use xlink:href="#DejaVuSans-74" x="117.859375"/>
     <use xlink:href="#DejaVuSans-65" x="157.068359"/>
     <use xlink:href="#DejaVuSans-6e" x="218.591797"/>
     <use xlink:href="#DejaVuSans-74" x="281.970703"/>
     <use xlink:href="#DejaVuSans-69" x="321.179688"/>
     <use xlink:href="#DejaVuSans-61" x="348.962891"/>
     <use xlink:href="#DejaVuSans-6c" x="410.242188"/>
     <use xlink:href="#DejaVuSans-6c" x="438.025391"/>
     <use xlink:href="#DejaVuSans-79" x="465.808594"/>
     <use xlink:href="#DejaVuSans-20" x="524.988281"/>
     <use xlink:href="#DejaVuSans-45" x="556.775391"/>
     <use xlink:href="#DejaVuSans-70" x="619.958984"/>
     <use xlink:href="#DejaVuSans-68" x="683.435547"/>
     <use xlink:href="#DejaVuSans-65" x="746.814453"/>
     <use xlink:href="#DejaVuSans-6d" x="808.337891"/>
     <use xlink:href="#DejaVuSans-65" x="905.75"/>
     <use xlink:href="#DejaVuSans-72" x="967.273438"/>
     <use xlink:href="#DejaVuSans-61" x="1008.386719"/>
     <use xlink:href="#DejaVuSans-6c" x="1069.666016"/>
     <use xlink:href="#DejaVuSans-20" x="1097.449219"/>
     <use xlink:href="#DejaVuSans-45" x="1129.236328"/>
     <use xlink:href="#DejaVuSans-6e" x="1192.419922"/>
     <use xlink:href="#DejaVuSans-74" x="1255.798828"/>
     <use xlink:href="#DejaVuSans-65" x="1295.007812"/>
     <use xlink:href="#DejaVuSans-72" x="1356.53125"/>
     <use xlink:href="#DejaVuSans-70" x="1397.644531"/>
     <use xlink:href="#DejaVuSans-72" x="1461.121094"/>
     <use xlink:href="#DejaVuSans-69" x="1502.234375"/>
     <use xlink:href="#DejaVuSans-73" x="1530.017578"/>
     <use xlink:href="#DejaVuSans-65" x="1582.117188"/>
     <use xlink:href="#DejaVuSans-20" x="1643.640625"/>
     <use xlink:href="#DejaVuSans-4c" x="1675.427734"/>
     <use xlink:href="#DejaVuSans-69" x="1731.140625"/>
     <use xlink:href="#DejaVuSans-6e" x="1758.923828"/>
     <use xlink:href="#DejaVuSans-75" x="1822.302734"/>
     <use xlink:href="#DejaVuSans-78" x="1885.681641"/>
     <use xlink:href="#DejaVuSans-20" x="1944.861328"/>
     <use xlink:href="#DejaVuSans-38" x="1976.648438"/>
     <use xlink:href="#DejaVuSans-20" x="2040.271484"/>
     <use xlink:href="#DejaVuSans-61" x="2072.058594"/>
     <use xlink:href="#DejaVuSans-6e" x="2133.337891"/>
     <use xlink:href="#DejaVuSans-64" x="2196.716797"/>
     <use xlink:href="#DejaVuSans-20" x="2260.193359"/>
     <use xlink:href="#DejaVuSans-39" x="2291.980469"/>
     <use xlink:href="#DejaVuSans-20" x="2355.603516"/>
     <use xlink:href="#DejaVuSans-49" x="2387.390625"/>
     <use xlink:href="#DejaVuSans-6e" x="2416.882812"/>
     <use xlink:href="#DejaVuSans-73" x="2480.261719"/>
     <use xlink:href="#DejaVuSans-74" x="2532.361328"/>
     <use xlink:href="#DejaVuSans-61" x="2571.570312"/>
     <use xlink:href="#DejaVuSans-6e" x="2632.849609"/>
     <use xlink:href="#DejaVuSans-63" x="2696.228516"/>
     <use xlink:href="#DejaVuSans-65" x="2751.208984"/>
     <use xlink:href="#DejaVuSans-73" x="2812.732422"/>
     <use xlink:href="#DejaVuSans-20" x="2864.832031"/>
     <use xlink:href="#DejaVuSans-62" x="2896.619141"/>
     <use xlink:href="#DejaVuSans-79" x="2960.095703"/>
     <use xlink:href="#DejaVuSans-20" x="3019.275391"/>
     <use xlink:href="#DejaVuSans-44" x="3051.0625"/>
     <use xlink:href="#DejaVuSans-69" x="3128.064453"/>
     <use xlink:href="#DejaVuSans-73" x="3155.847656"/>
     <use xlink:href="#DejaVuSans-74" x="3207.947266"/>
     <use xlink:href="#DejaVuSans-72" x="3247.15625"/>
     <use xlink:href="#DejaVuSans-69" x="3288.269531"/>
     <use xlink:href="#DejaVuSans-62" x="3316.052734"/>
     <use xlink:href="#DejaVuSans-75" x="3379.529297"/>
     <use xlink:href="#DejaVuSans-74" x="3442.908203"/>
     <use xlink:href="#DejaVuSans-69" x="3482.117188"/>
     <use xlink:href="#DejaVuSans-6f" x="3509.900391"/>
     <use xlink:href="#DejaVuSans-6e" x="3571.082031"/>
    </g>
   </g>
   <g id="text_21">
    <!-- 2024-03-14 11:55 UTC -->
    <g transform="translate(794.653875 18.14175)scale(0.144 -0.144)">
     <defs>
      <path id="DejaVuSans-3a" d="M 750 794 
L 1409 794 
L 1409 0 
L 750 0 
L 750 794 
z
M 750 3309 
L 1409 3309 
L 1409 2516 
L 750 2516 
L 750 3309 
z
" transform="scale(0.015625)"/>
      <path id="DejaVuSans-55" d="M 556 4666 
L 1191 4666 
L 1191 1831 
Q 1191 1081 1462 751 
Q 1734 422 2344 422 
Q 2950 422 3222 751 
Q 3494 1081 3494 1831 
L 3494 4666 
L 4128 4666 
L 4128 1753 
Q 4128 841 3676 375 
Q 3225 -91 2344 -91 
Q 1459 -91 1007 375 
Q 556 841 556 1753 
L 556 4666 
z
" transform="scale(0.015625)"/>
      <path id="DejaVuSans-54" d="M -19 4666 
L 3928 4666 
L 3928 4134 
L 2272 4134 
L 2272 0 
L 1638 0 
L 1638 4134 
L -19 4134 
L -19 4666 
z
" transform="scale(0.015625)"/>
      <path id="DejaVuSans-43" d="M 4122 4306 
L 4122 3641 
Q 3803 3938 3442 4084 
Q 3081 4231 2675 4231 
Q 1875 4231 1450 3742 
Q 1025 3253 1025 2328 
Q 1025 1406 1450 917 
Q 1875 428 2675 428 
Q 3081 428 3442 575 
Q 3803 722 4122 1019 
L 4122 359 
Q 3791 134 3420 21 
Q 3050 -91 2638 -91 
Q 1578 -91 968 557 
Q 359 1206 359 2328 
Q 359 3453 968 4101 
Q 1578 4750 2638 4750 
Q 3056 4750 3426 4639 
Q 3797 4528 4122 4306 
z
" transform="scale(0.015625)"/>
     </defs>
     <use xlink:href="#DejaVuSans-32"/>
     <use xlink:href="#DejaVuSans-30" x="63.623047"/>
     <use xlink:href="#DejaVuSans-32" x="127.246094"/>
     <use xlink:href="#DejaVuSans-34" x="190.869141"/>
     <use xlink:href="#DejaVuSans-2d" x="254.492188"/>
     <use xlink:href="#DejaVuSans-30" x="290.576172"/>
     <use xlink:href="#DejaVuSans-33" x="354.199219"/>
     <use xlink:href="#DejaVuSans-2d" x="417.822266"/>
     <use xlink:href="#DejaVuSans-31" x="453.90625"/>
     <use xlink:href="#DejaVuSans-34" x="517.529297"/>
     <use xlink:href="#DejaVuSans-20" x="581.152344"/>
     <use xlink:href="#DejaVuSans-31" x="612.939453"/>
     <use xlink:href="#DejaVuSans-31" x="676.5625"/>
     <use xlink:href="#DejaVuSans-3a" x="740.185547"/>
     <use xlink:href="#DejaVuSans-35" x="773.876953"/>
     <use xlink:href="#DejaVuSans-35" x="837.5"/>
     <use xlink:href="#DejaVuSans-20" x="901.123047"/>
     <use xlink:href="#DejaVuSans-55" x="932.910156"/>
     <use xlink:href="#DejaVuSans-54" x="1006.103516"/>
     <use xlink:href="#DejaVuSans-43" x="1061.3125"/>
    </g>
   </g>
   <g id="legend_1">
    <g id="patch_7">
     <path d="M 61.691875 134.888625 
L 170.660625 134.888625 
Q 172.660625 134.888625 172.660625 132.888625 
L 172.660625 31.14175 
Q 172.660625 29.14175 170.660625 29.14175 
L 61.691875 29.14175 
Q 59.691875 29.14175 59.691875 31.14175 
L 59.691875 132.888625 
Q 59.691875 134.888625 61.691875 134.888625 
z
" style="fill: #e5e5e5; opacity: 0.8; stroke: #cccccc; stroke-width: 0.5; stroke-linejoin: miter"/>
    </g>
    <g id="text_22">
     <!-- Distribution -->
     <g transform="translate(87.0075 40.740187)scale(0.1 -0.1)">
      <use xlink:href="#DejaVuSans-44"/>
      <use xlink:href="#DejaVuSans-69" x="77.001953"/>
      <use xlink:href="#DejaVuSans-73" x="104.785156"/>
      <use xlink:href="#DejaVuSans-74" x="156.884766"/>
      <use xlink:href="#DejaVuSans-72" x="196.09375"/>
      <use xlink:href="#DejaVuSans-69" x="237.207031"/>
      <use xlink:href="#DejaVuSans-62" x="264.990234"/>
      <use xlink:href="#DejaVuSans-75" x="328.466797"/>
      <use xlink:href="#DejaVuSans-74" x="391.845703"/>
      <use xlink:href="#DejaVuSans-69" x="431.054688"/>
      <use xlink:href="#DejaVuSans-6f" x="458.837891"/>
      <use xlink:href="#DejaVuSans-6e" x="520.019531"/>
     </g>
    </g>
    <g id="line2d_47">
     <path d="M 63.691875 51.918312 
L 73.691875 51.918312 
L 83.691875 51.918312 
" style="fill: none; stroke: #4ac1fa; stroke-width: 1.5; stroke-linecap: square"/>
    </g>
    <g id="text_23">
     <!-- AlmaLinux -->
     <g transform="translate(91.691875 55.418312)scale(0.1 -0.1)">
      <defs>
       <path id="DejaVuSans-41" d="M 2188 4044 
L 1331 1722 
L 3047 1722 
L 2188 4044 
z
M 1831 4666 
L 2547 4666 
L 4325 0 
L 3669 0 
L 3244 1197 
L 1141 1197 
L 716 0 
L 50 0 
L 1831 4666 
z
" transform="scale(0.015625)"/>
      </defs>
      <use xlink:href="#DejaVuSans-41"/>
      <use xlink:href="#DejaVuSans-6c" x="68.408203"/>
      <use xlink:href="#DejaVuSans-6d" x="96.191406"/>
      <use xlink:href="#DejaVuSans-61" x="193.603516"/>
      <use xlink:href="#DejaVuSans-4c" x="254.882812"/>
      <use xlink:href="#DejaVuSans-69" x="310.595703"/>
      <use xlink:href="#DejaVuSans-6e" x="338.378906"/>
      <use xlink:href="#DejaVuSans-75" x="401.757812"/>
      <use xlink:href="#DejaVuSans-78" x="465.136719"/>
     </g>
    </g>
    <g id="line2d_48">
     <path d="M 63.691875 66.596437 
L 73.691875 66.596437 
L 83.691875 66.596437 
" style="fill: none; stroke: #e9a942; stroke-width: 1.5; stroke-linecap: square"/>
    </g>
    <g id="text_24">
     <!-- CentOS Legacy -->
     <g transform="translate(91.691875 70.096437)scale(0.1 -0.1)">
      <defs>
       <path id="DejaVuSans-4f" d="M 2522 4238 
Q 1834 4238 1429 3725 
Q 1025 3213 1025 2328 
Q 1025 1447 1429 934 
Q 1834 422 2522 422 
Q 3209 422 3611 934 
Q 4013 1447 4013 2328 
Q 4013 3213 3611 3725 
Q 3209 4238 2522 4238 
z
M 2522 4750 
Q 3503 4750 4090 4092 
Q 4678 3434 4678 2328 
Q 4678 1225 4090 567 
Q 3503 -91 2522 -91 
Q 1538 -91 948 565 
Q 359 1222 359 2328 
Q 359 3434 948 4092 
Q 1538 4750 2522 4750 
z
" transform="scale(0.015625)"/>
       <path id="DejaVuSans-53" d="M 3425 4513 
L 3425 3897 
Q 3066 4069 2747 4153 
Q 2428 4238 2131 4238 
Q 1616 4238 1336 4038 
Q 1056 3838 1056 3469 
Q 1056 3159 1242 3001 
Q 1428 2844 1947 2747 
L 2328 2669 
Q 3034 2534 3370 2195 
Q 3706 1856 3706 1288 
Q 3706 609 3251 259 
Q 2797 -91 1919 -91 
Q 1588 -91 1214 -16 
Q 841 59 441 206 
L 441 856 
Q 825 641 1194 531 
Q 1563 422 1919 422 
Q 2459 422 2753 634 
Q 3047 847 3047 1241 
Q 3047 1584 2836 1778 
Q 2625 1972 2144 2069 
L 1759 2144 
Q 1053 2284 737 2584 
Q 422 2884 422 3419 
Q 422 4038 858 4394 
Q 1294 4750 2059 4750 
Q 2388 4750 2728 4690 
Q 3069 4631 3425 4513 
z
" transform="scale(0.015625)"/>
       <path id="DejaVuSans-67" d="M 2906 1791 
Q 2906 2416 2648 2759 
Q 2391 3103 1925 3103 
Q 1463 3103 1205 2759 
Q 947 2416 947 1791 
Q 947 1169 1205 825 
Q 1463 481 1925 481 
Q 2391 481 2648 825 
Q 2906 1169 2906 1791 
z
M 3481 434 
Q 3481 -459 3084 -895 
Q 2688 -1331 1869 -1331 
Q 1566 -1331 1297 -1286 
Q 1028 -1241 775 -1147 
L 775 -588 
Q 1028 -725 1275 -790 
Q 1522 -856 1778 -856 
Q 2344 -856 2625 -561 
Q 2906 -266 2906 331 
L 2906 616 
Q 2728 306 2450 153 
Q 2172 0 1784 0 
Q 1141 0 747 490 
Q 353 981 353 1791 
Q 353 2603 747 3093 
Q 1141 3584 1784 3584 
Q 2172 3584 2450 3431 
Q 2728 3278 2906 2969 
L 2906 3500 
L 3481 3500 
L 3481 434 
z
" transform="scale(0.015625)"/>
      </defs>
      <use xlink:href="#DejaVuSans-43"/>
      <use xlink:href="#DejaVuSans-65" x="69.824219"/>
      <use xlink:href="#DejaVuSans-6e" x="131.347656"/>
      <use xlink:href="#DejaVuSans-74" x="194.726562"/>
      <use xlink:href="#DejaVuSans-4f" x="233.935547"/>
      <use xlink:href="#DejaVuSans-53" x="312.646484"/>
      <use xlink:href="#DejaVuSans-20" x="376.123047"/>
      <use xlink:href="#DejaVuSans-4c" x="407.910156"/>
      <use xlink:href="#DejaVuSans-65" x="461.873047"/>
      <use xlink:href="#DejaVuSans-67" x="523.396484"/>
      <use xlink:href="#DejaVuSans-61" x="586.873047"/>
      <use xlink:href="#DejaVuSans-63" x="648.152344"/>
      <use xlink:href="#DejaVuSans-79" x="703.132812"/>
     </g>
    </g>
    <g id="line2d_49">
     <path d="M 63.691875 81.274563 
L 73.691875 81.274563 
L 83.691875 81.274563 
" style="fill: none; stroke: #9a5689; stroke-width: 1.5; stroke-linecap: square"/>
    </g>
    <g id="text_25">
     <!-- CentOS Stream -->
     <g transform="translate(91.691875 84.774563)scale(0.1 -0.1)">
      <use xlink:href="#DejaVuSans-43"/>
      <use xlink:href="#DejaVuSans-65" x="69.824219"/>
      <use xlink:href="#DejaVuSans-6e" x="131.347656"/>
      <use xlink:href="#DejaVuSans-74" x="194.726562"/>
      <use xlink:href="#DejaVuSans-4f" x="233.935547"/>
      <use xlink:href="#DejaVuSans-53" x="312.646484"/>
      <use xlink:href="#DejaVuSans-20" x="376.123047"/>
      <use xlink:href="#DejaVuSans-53" x="407.910156"/>
      <use xlink:href="#DejaVuSans-74" x="471.386719"/>
      <use xlink:href="#DejaVuSans-72" x="510.595703"/>
      <use xlink:href="#DejaVuSans-65" x="549.458984"/>
      <use xlink:href="#DejaVuSans-61" x="610.982422"/>
      <use xlink:href="#DejaVuSans-6d" x="672.261719"/>
     </g>
    </g>
    <g id="line2d_50">
     <path d="M 63.691875 95.952687 
L 73.691875 95.952687 
L 83.691875 95.952687 
" style="fill: none; stroke: #be503b; stroke-width: 1.5; stroke-linecap: square"/>
    </g>
    <g id="text_26">
     <!-- Oracle -->
     <g transform="translate(91.691875 99.452687)scale(0.1 -0.1)">
      <use xlink:href="#DejaVuSans-4f"/>
      <use xlink:href="#DejaVuSans-72" x="78.710938"/>
      <use xlink:href="#DejaVuSans-61" x="119.824219"/>
      <use xlink:href="#DejaVuSans-63" x="181.103516"/>
      <use xlink:href="#DejaVuSans-6c" x="236.083984"/>
      <use xlink:href="#DejaVuSans-65" x="263.867188"/>
     </g>
    </g>
    <g id="line2d_51">
     <path d="M 63.691875 110.630812 
L 73.691875 110.630812 
L 83.691875 110.630812 
" style="fill: none; stroke: #e2321d; stroke-width: 1.5; stroke-linecap: square"/>
    </g>
    <g id="text_27">
     <!-- RHEL -->
     <g transform="translate(91.691875 114.130812)scale(0.1 -0.1)">
      <defs>
       <path id="DejaVuSans-52" d="M 2841 2188 
Q 3044 2119 3236 1894 
Q 3428 1669 3622 1275 
L 4263 0 
L 3584 0 
L 2988 1197 
Q 2756 1666 2539 1819 
Q 2322 1972 1947 1972 
L 1259 1972 
L 1259 0 
L 628 0 
L 628 4666 
L 2053 4666 
Q 2853 4666 3247 4331 
Q 3641 3997 3641 3322 
Q 3641 2881 3436 2590 
Q 3231 2300 2841 2188 
z
M 1259 4147 
L 1259 2491 
L 2053 2491 
Q 2509 2491 2742 2702 
Q 2975 2913 2975 3322 
Q 2975 3731 2742 3939 
Q 2509 4147 2053 4147 
L 1259 4147 
z
" transform="scale(0.015625)"/>
       <path id="DejaVuSans-48" d="M 628 4666 
L 1259 4666 
L 1259 2753 
L 3553 2753 
L 3553 4666 
L 4184 4666 
L 4184 0 
L 3553 0 
L 3553 2222 
L 1259 2222 
L 1259 0 
L 628 0 
L 628 4666 
z
" transform="scale(0.015625)"/>
      </defs>
      <use xlink:href="#DejaVuSans-52"/>
      <use xlink:href="#DejaVuSans-48" x="69.482422"/>
      <use xlink:href="#DejaVuSans-45" x="144.677734"/>
      <use xlink:href="#DejaVuSans-4c" x="207.861328"/>
     </g>
    </g>
    <g id="line2d_52">
     <path d="M 63.691875 125.308937 
L 73.691875 125.308937 
L 83.691875 125.308937 
" style="fill: none; stroke: #48b585; stroke-width: 6; stroke-linecap: square"/>
    </g>
    <g id="text_28">
     <!-- Rocky Linux -->
     <g transform="translate(91.691875 128.808937)scale(0.1 -0.1)">
      <use xlink:href="#DejaVuSans-52"/>
      <use xlink:href="#DejaVuSans-6f" x="64.982422"/>
      <use xlink:href="#DejaVuSans-63" x="126.164062"/>
      <use xlink:href="#DejaVuSans-6b" x="181.144531"/>
      <use xlink:href="#DejaVuSans-79" x="235.429688"/>
      <use xlink:href="#DejaVuSans-20" x="294.609375"/>
      <use xlink:href="#DejaVuSans-4c" x="326.396484"/>
      <use xlink:href="#DejaVuSans-69" x="382.109375"/>
      <use xlink:href="#DejaVuSans-6e" x="409.892578"/>
      <use xlink:href="#DejaVuSans-75" x="473.271484"/>
      <use xlink:href="#DejaVuSans-78" x="536.650391"/>
     </g>
    </g>
   </g>
  </g>
 </g>
 <defs>
  <clipPath id="p5334d4037b">
   <rect x="54.691875" y="24.14175" width="902.844" height="543.6"/>
  </clipPath>
 </defs>
</svg>
