<?xml version="1.0" encoding="utf-8" standalone="no"?>
<!DOCTYPE svg PUBLIC "-//W3C//DTD SVG 1.1//EN"
  "http://www.w3.org/Graphics/SVG/1.1/DTD/svg11.dtd">
<svg xmlns:xlink="http://www.w3.org/1999/xlink" width="964.735875pt" height="633.943878pt" viewBox="0 0 964.735875 633.943878" xmlns="http://www.w3.org/2000/svg" version="1.1">
 <metadata>
  <rdf:RDF xmlns:dc="http://purl.org/dc/elements/1.1/" xmlns:cc="http://creativecommons.org/ns#" xmlns:rdf="http://www.w3.org/1999/02/22-rdf-syntax-ns#">
   <cc:Work>
    <dc:type rdf:resource="http://purl.org/dc/dcmitype/StillImage"/>
    <dc:date>2024-04-25T11:54:59.900791</dc:date>
    <dc:format>image/svg+xml</dc:format>
    <dc:creator>
     <cc:Agent>
      <dc:title>Matplotlib v3.5.1, https://matplotlib.org/</dc:title>
     </cc:Agent>
    </dc:creator>
   </cc:Work>
  </rdf:RDF>
 </metadata>
 <defs>
  <style type="text/css">*{stroke-linejoin: round; stroke-linecap: butt}</style>
 </defs>
 <g id="figure_1">
  <g id="patch_1">
   <path d="M 0 633.943878 
L 964.735875 633.943878 
L 964.735875 0 
L 0 0 
z
" style="fill: #ffffff"/>
  </g>
  <g id="axes_1">
   <g id="patch_2">
    <path d="M 54.691875 567.74175 
L 957.535875 567.74175 
L 957.535875 24.14175 
L 54.691875 24.14175 
z
" style="fill: #e5e5e5"/>
   </g>
   <g id="matplotlib.axis_1">
    <g id="xtick_1">
     <g id="line2d_1">
      <path d="M 74.923673 567.74175 
L 74.923673 24.14175 
" clip-path="url(#p70aaf5234f)" style="fill: none; stroke: #ffffff; stroke-width: 0.8; stroke-linecap: square"/>
     </g>
     <g id="line2d_2">
      <defs>
       <path id="me7beaf851a" d="M 0 0 
L 0 3.5 
" style="stroke: #555555; stroke-width: 0.8"/>
      </defs>
      <g>
       <use xlink:href="#me7beaf851a" x="74.923673" y="567.74175" style="fill: #555555; stroke: #555555; stroke-width: 0.8"/>
      </g>
     </g>
     <g id="text_1">
      <!-- 2023-05 -->
      <g style="fill: #555555" transform="translate(62.102391 609.659567)rotate(-45)scale(0.1 -0.1)">
       <defs>
        <path id="DejaVuSans-32" d="M 1228 531 
L 3431 531 
L 3431 0 
L 469 0 
L 469 531 
Q 828 903 1448 1529 
Q 2069 2156 2228 2338 
Q 2531 2678 2651 2914 
Q 2772 3150 2772 3378 
Q 2772 3750 2511 3984 
Q 2250 4219 1831 4219 
Q 1534 4219 1204 4116 
Q 875 4013 500 3803 
L 500 4441 
Q 881 4594 1212 4672 
Q 1544 4750 1819 4750 
Q 2544 4750 2975 4387 
Q 3406 4025 3406 3419 
Q 3406 3131 3298 2873 
Q 3191 2616 2906 2266 
Q 2828 2175 2409 1742 
Q 1991 1309 1228 531 
z
" transform="scale(0.015625)"/>
        <path id="DejaVuSans-30" d="M 2034 4250 
Q 1547 4250 1301 3770 
Q 1056 3291 1056 2328 
Q 1056 1369 1301 889 
Q 1547 409 2034 409 
Q 2525 409 2770 889 
Q 3016 1369 3016 2328 
Q 3016 3291 2770 3770 
Q 2525 4250 2034 4250 
z
M 2034 4750 
Q 2819 4750 3233 4129 
Q 3647 3509 3647 2328 
Q 3647 1150 3233 529 
Q 2819 -91 2034 -91 
Q 1250 -91 836 529 
Q 422 1150 422 2328 
Q 422 3509 836 4129 
Q 1250 4750 2034 4750 
z
" transform="scale(0.015625)"/>
        <path id="DejaVuSans-33" d="M 2597 2516 
Q 3050 2419 3304 2112 
Q 3559 1806 3559 1356 
Q 3559 666 3084 287 
Q 2609 -91 1734 -91 
Q 1441 -91 1130 -33 
Q 819 25 488 141 
L 488 750 
Q 750 597 1062 519 
Q 1375 441 1716 441 
Q 2309 441 2620 675 
Q 2931 909 2931 1356 
Q 2931 1769 2642 2001 
Q 2353 2234 1838 2234 
L 1294 2234 
L 1294 2753 
L 1863 2753 
Q 2328 2753 2575 2939 
Q 2822 3125 2822 3475 
Q 2822 3834 2567 4026 
Q 2313 4219 1838 4219 
Q 1578 4219 1281 4162 
Q 984 4106 628 3988 
L 628 4550 
Q 988 4650 1302 4700 
Q 1616 4750 1894 4750 
Q 2613 4750 3031 4423 
Q 3450 4097 3450 3541 
Q 3450 3153 3228 2886 
Q 3006 2619 2597 2516 
z
" transform="scale(0.015625)"/>
        <path id="DejaVuSans-2d" d="M 313 2009 
L 1997 2009 
L 1997 1497 
L 313 1497 
L 313 2009 
z
" transform="scale(0.015625)"/>
        <path id="DejaVuSans-35" d="M 691 4666 
L 3169 4666 
L 3169 4134 
L 1269 4134 
L 1269 2991 
Q 1406 3038 1543 3061 
Q 1681 3084 1819 3084 
Q 2600 3084 3056 2656 
Q 3513 2228 3513 1497 
Q 3513 744 3044 326 
Q 2575 -91 1722 -91 
Q 1428 -91 1123 -41 
Q 819 9 494 109 
L 494 744 
Q 775 591 1075 516 
Q 1375 441 1709 441 
Q 2250 441 2565 725 
Q 2881 1009 2881 1497 
Q 2881 1984 2565 2268 
Q 2250 2553 1709 2553 
Q 1456 2553 1204 2497 
Q 953 2441 691 2322 
L 691 4666 
z
" transform="scale(0.015625)"/>
       </defs>
       <use xlink:href="#DejaVuSans-32"/>
       <use xlink:href="#DejaVuSans-30" x="63.623047"/>
       <use xlink:href="#DejaVuSans-32" x="127.246094"/>
       <use xlink:href="#DejaVuSans-33" x="190.869141"/>
       <use xlink:href="#DejaVuSans-2d" x="254.492188"/>
       <use xlink:href="#DejaVuSans-30" x="290.576172"/>
       <use xlink:href="#DejaVuSans-35" x="354.199219"/>
      </g>
     </g>
    </g>
    <g id="xtick_2">
     <g id="line2d_3">
      <path d="M 153.321892 567.74175 
L 153.321892 24.14175 
" clip-path="url(#p70aaf5234f)" style="fill: none; stroke: #ffffff; stroke-width: 0.8; stroke-linecap: square"/>
     </g>
     <g id="line2d_4">
      <g>
       <use xlink:href="#me7beaf851a" x="153.321892" y="567.74175" style="fill: #555555; stroke: #555555; stroke-width: 0.8"/>
      </g>
     </g>
     <g id="text_2">
      <!-- 2023-06 -->
      <g style="fill: #555555" transform="translate(140.50061 609.659567)rotate(-45)scale(0.1 -0.1)">
       <defs>
        <path id="DejaVuSans-36" d="M 2113 2584 
Q 1688 2584 1439 2293 
Q 1191 2003 1191 1497 
Q 1191 994 1439 701 
Q 1688 409 2113 409 
Q 2538 409 2786 701 
Q 3034 994 3034 1497 
Q 3034 2003 2786 2293 
Q 2538 2584 2113 2584 
z
M 3366 4563 
L 3366 3988 
Q 3128 4100 2886 4159 
Q 2644 4219 2406 4219 
Q 1781 4219 1451 3797 
Q 1122 3375 1075 2522 
Q 1259 2794 1537 2939 
Q 1816 3084 2150 3084 
Q 2853 3084 3261 2657 
Q 3669 2231 3669 1497 
Q 3669 778 3244 343 
Q 2819 -91 2113 -91 
Q 1303 -91 875 529 
Q 447 1150 447 2328 
Q 447 3434 972 4092 
Q 1497 4750 2381 4750 
Q 2619 4750 2861 4703 
Q 3103 4656 3366 4563 
z
" transform="scale(0.015625)"/>
       </defs>
       <use xlink:href="#DejaVuSans-32"/>
       <use xlink:href="#DejaVuSans-30" x="63.623047"/>
       <use xlink:href="#DejaVuSans-32" x="127.246094"/>
       <use xlink:href="#DejaVuSans-33" x="190.869141"/>
       <use xlink:href="#DejaVuSans-2d" x="254.492188"/>
       <use xlink:href="#DejaVuSans-30" x="290.576172"/>
       <use xlink:href="#DejaVuSans-36" x="354.199219"/>
      </g>
     </g>
    </g>
    <g id="xtick_3">
     <g id="line2d_5">
      <path d="M 229.191136 567.74175 
L 229.191136 24.14175 
" clip-path="url(#p70aaf5234f)" style="fill: none; stroke: #ffffff; stroke-width: 0.8; stroke-linecap: square"/>
     </g>
     <g id="line2d_6">
      <g>
       <use xlink:href="#me7beaf851a" x="229.191136" y="567.74175" style="fill: #555555; stroke: #555555; stroke-width: 0.8"/>
      </g>
     </g>
     <g id="text_3">
      <!-- 2023-07 -->
      <g style="fill: #555555" transform="translate(216.369853 609.659567)rotate(-45)scale(0.1 -0.1)">
       <defs>
        <path id="DejaVuSans-37" d="M 525 4666 
L 3525 4666 
L 3525 4397 
L 1831 0 
L 1172 0 
L 2766 4134 
L 525 4134 
L 525 4666 
z
" transform="scale(0.015625)"/>
       </defs>
       <use xlink:href="#DejaVuSans-32"/>
       <use xlink:href="#DejaVuSans-30" x="63.623047"/>
       <use xlink:href="#DejaVuSans-32" x="127.246094"/>
       <use xlink:href="#DejaVuSans-33" x="190.869141"/>
       <use xlink:href="#DejaVuSans-2d" x="254.492188"/>
       <use xlink:href="#DejaVuSans-30" x="290.576172"/>
       <use xlink:href="#DejaVuSans-37" x="354.199219"/>
      </g>
     </g>
    </g>
    <g id="xtick_4">
     <g id="line2d_7">
      <path d="M 307.589354 567.74175 
L 307.589354 24.14175 
" clip-path="url(#p70aaf5234f)" style="fill: none; stroke: #ffffff; stroke-width: 0.8; stroke-linecap: square"/>
     </g>
     <g id="line2d_8">
      <g>
       <use xlink:href="#me7beaf851a" x="307.589354" y="567.74175" style="fill: #555555; stroke: #555555; stroke-width: 0.8"/>
      </g>
     </g>
     <g id="text_4">
      <!-- 2023-08 -->
      <g style="fill: #555555" transform="translate(294.768072 609.659567)rotate(-45)scale(0.1 -0.1)">
       <defs>
        <path id="DejaVuSans-38" d="M 2034 2216 
Q 1584 2216 1326 1975 
Q 1069 1734 1069 1313 
Q 1069 891 1326 650 
Q 1584 409 2034 409 
Q 2484 409 2743 651 
Q 3003 894 3003 1313 
Q 3003 1734 2745 1975 
Q 2488 2216 2034 2216 
z
M 1403 2484 
Q 997 2584 770 2862 
Q 544 3141 544 3541 
Q 544 4100 942 4425 
Q 1341 4750 2034 4750 
Q 2731 4750 3128 4425 
Q 3525 4100 3525 3541 
Q 3525 3141 3298 2862 
Q 3072 2584 2669 2484 
Q 3125 2378 3379 2068 
Q 3634 1759 3634 1313 
Q 3634 634 3220 271 
Q 2806 -91 2034 -91 
Q 1263 -91 848 271 
Q 434 634 434 1313 
Q 434 1759 690 2068 
Q 947 2378 1403 2484 
z
M 1172 3481 
Q 1172 3119 1398 2916 
Q 1625 2713 2034 2713 
Q 2441 2713 2670 2916 
Q 2900 3119 2900 3481 
Q 2900 3844 2670 4047 
Q 2441 4250 2034 4250 
Q 1625 4250 1398 4047 
Q 1172 3844 1172 3481 
z
" transform="scale(0.015625)"/>
       </defs>
       <use xlink:href="#DejaVuSans-32"/>
       <use xlink:href="#DejaVuSans-30" x="63.623047"/>
       <use xlink:href="#DejaVuSans-32" x="127.246094"/>
       <use xlink:href="#DejaVuSans-33" x="190.869141"/>
       <use xlink:href="#DejaVuSans-2d" x="254.492188"/>
       <use xlink:href="#DejaVuSans-30" x="290.576172"/>
       <use xlink:href="#DejaVuSans-38" x="354.199219"/>
      </g>
     </g>
    </g>
    <g id="xtick_5">
     <g id="line2d_9">
      <path d="M 385.987572 567.74175 
L 385.987572 24.14175 
" clip-path="url(#p70aaf5234f)" style="fill: none; stroke: #ffffff; stroke-width: 0.8; stroke-linecap: square"/>
     </g>
     <g id="line2d_10">
      <g>
       <use xlink:href="#me7beaf851a" x="385.987572" y="567.74175" style="fill: #555555; stroke: #555555; stroke-width: 0.8"/>
      </g>
     </g>
     <g id="text_5">
      <!-- 2023-09 -->
      <g style="fill: #555555" transform="translate(373.16629 609.659567)rotate(-45)scale(0.1 -0.1)">
       <defs>
        <path id="DejaVuSans-39" d="M 703 97 
L 703 672 
Q 941 559 1184 500 
Q 1428 441 1663 441 
Q 2288 441 2617 861 
Q 2947 1281 2994 2138 
Q 2813 1869 2534 1725 
Q 2256 1581 1919 1581 
Q 1219 1581 811 2004 
Q 403 2428 403 3163 
Q 403 3881 828 4315 
Q 1253 4750 1959 4750 
Q 2769 4750 3195 4129 
Q 3622 3509 3622 2328 
Q 3622 1225 3098 567 
Q 2575 -91 1691 -91 
Q 1453 -91 1209 -44 
Q 966 3 703 97 
z
M 1959 2075 
Q 2384 2075 2632 2365 
Q 2881 2656 2881 3163 
Q 2881 3666 2632 3958 
Q 2384 4250 1959 4250 
Q 1534 4250 1286 3958 
Q 1038 3666 1038 3163 
Q 1038 2656 1286 2365 
Q 1534 2075 1959 2075 
z
" transform="scale(0.015625)"/>
       </defs>
       <use xlink:href="#DejaVuSans-32"/>
       <use xlink:href="#DejaVuSans-30" x="63.623047"/>
       <use xlink:href="#DejaVuSans-32" x="127.246094"/>
       <use xlink:href="#DejaVuSans-33" x="190.869141"/>
       <use xlink:href="#DejaVuSans-2d" x="254.492188"/>
       <use xlink:href="#DejaVuSans-30" x="290.576172"/>
       <use xlink:href="#DejaVuSans-39" x="354.199219"/>
      </g>
     </g>
    </g>
    <g id="xtick_6">
     <g id="line2d_11">
      <path d="M 461.856816 567.74175 
L 461.856816 24.14175 
" clip-path="url(#p70aaf5234f)" style="fill: none; stroke: #ffffff; stroke-width: 0.8; stroke-linecap: square"/>
     </g>
     <g id="line2d_12">
      <g>
       <use xlink:href="#me7beaf851a" x="461.856816" y="567.74175" style="fill: #555555; stroke: #555555; stroke-width: 0.8"/>
      </g>
     </g>
     <g id="text_6">
      <!-- 2023-10 -->
      <g style="fill: #555555" transform="translate(449.035534 609.659567)rotate(-45)scale(0.1 -0.1)">
       <defs>
        <path id="DejaVuSans-31" d="M 794 531 
L 1825 531 
L 1825 4091 
L 703 3866 
L 703 4441 
L 1819 4666 
L 2450 4666 
L 2450 531 
L 3481 531 
L 3481 0 
L 794 0 
L 794 531 
z
" transform="scale(0.015625)"/>
       </defs>
       <use xlink:href="#DejaVuSans-32"/>
       <use xlink:href="#DejaVuSans-30" x="63.623047"/>
       <use xlink:href="#DejaVuSans-32" x="127.246094"/>
       <use xlink:href="#DejaVuSans-33" x="190.869141"/>
       <use xlink:href="#DejaVuSans-2d" x="254.492188"/>
       <use xlink:href="#DejaVuSans-31" x="290.576172"/>
       <use xlink:href="#DejaVuSans-30" x="354.199219"/>
      </g>
     </g>
    </g>
    <g id="xtick_7">
     <g id="line2d_13">
      <path d="M 540.255035 567.74175 
L 540.255035 24.14175 
" clip-path="url(#p70aaf5234f)" style="fill: none; stroke: #ffffff; stroke-width: 0.8; stroke-linecap: square"/>
     </g>
     <g id="line2d_14">
      <g>
       <use xlink:href="#me7beaf851a" x="540.255035" y="567.74175" style="fill: #555555; stroke: #555555; stroke-width: 0.8"/>
      </g>
     </g>
     <g id="text_7">
      <!-- 2023-11 -->
      <g style="fill: #555555" transform="translate(527.433752 609.659567)rotate(-45)scale(0.1 -0.1)">
       <use xlink:href="#DejaVuSans-32"/>
       <use xlink:href="#DejaVuSans-30" x="63.623047"/>
       <use xlink:href="#DejaVuSans-32" x="127.246094"/>
       <use xlink:href="#DejaVuSans-33" x="190.869141"/>
       <use xlink:href="#DejaVuSans-2d" x="254.492188"/>
       <use xlink:href="#DejaVuSans-31" x="290.576172"/>
       <use xlink:href="#DejaVuSans-31" x="354.199219"/>
      </g>
     </g>
    </g>
    <g id="xtick_8">
     <g id="line2d_15">
      <path d="M 616.124278 567.74175 
L 616.124278 24.14175 
" clip-path="url(#p70aaf5234f)" style="fill: none; stroke: #ffffff; stroke-width: 0.8; stroke-linecap: square"/>
     </g>
     <g id="line2d_16">
      <g>
       <use xlink:href="#me7beaf851a" x="616.124278" y="567.74175" style="fill: #555555; stroke: #555555; stroke-width: 0.8"/>
      </g>
     </g>
     <g id="text_8">
      <!-- 2023-12 -->
      <g style="fill: #555555" transform="translate(603.302996 609.659567)rotate(-45)scale(0.1 -0.1)">
       <use xlink:href="#DejaVuSans-32"/>
       <use xlink:href="#DejaVuSans-30" x="63.623047"/>
       <use xlink:href="#DejaVuSans-32" x="127.246094"/>
       <use xlink:href="#DejaVuSans-33" x="190.869141"/>
       <use xlink:href="#DejaVuSans-2d" x="254.492188"/>
       <use xlink:href="#DejaVuSans-31" x="290.576172"/>
       <use xlink:href="#DejaVuSans-32" x="354.199219"/>
      </g>
     </g>
    </g>
    <g id="xtick_9">
     <g id="line2d_17">
      <path d="M 694.522497 567.74175 
L 694.522497 24.14175 
" clip-path="url(#p70aaf5234f)" style="fill: none; stroke: #ffffff; stroke-width: 0.8; stroke-linecap: square"/>
     </g>
     <g id="line2d_18">
      <g>
       <use xlink:href="#me7beaf851a" x="694.522497" y="567.74175" style="fill: #555555; stroke: #555555; stroke-width: 0.8"/>
      </g>
     </g>
     <g id="text_9">
      <!-- 2024-01 -->
      <g style="fill: #555555" transform="translate(681.701215 609.659567)rotate(-45)scale(0.1 -0.1)">
       <defs>
        <path id="DejaVuSans-34" d="M 2419 4116 
L 825 1625 
L 2419 1625 
L 2419 4116 
z
M 2253 4666 
L 3047 4666 
L 3047 1625 
L 3713 1625 
L 3713 1100 
L 3047 1100 
L 3047 0 
L 2419 0 
L 2419 1100 
L 313 1100 
L 313 1709 
L 2253 4666 
z
" transform="scale(0.015625)"/>
       </defs>
       <use xlink:href="#DejaVuSans-32"/>
       <use xlink:href="#DejaVuSans-30" x="63.623047"/>
       <use xlink:href="#DejaVuSans-32" x="127.246094"/>
       <use xlink:href="#DejaVuSans-34" x="190.869141"/>
       <use xlink:href="#DejaVuSans-2d" x="254.492188"/>
       <use xlink:href="#DejaVuSans-30" x="290.576172"/>
       <use xlink:href="#DejaVuSans-31" x="354.199219"/>
      </g>
     </g>
    </g>
    <g id="xtick_10">
     <g id="line2d_19">
      <path d="M 772.920715 567.74175 
L 772.920715 24.14175 
" clip-path="url(#p70aaf5234f)" style="fill: none; stroke: #ffffff; stroke-width: 0.8; stroke-linecap: square"/>
     </g>
     <g id="line2d_20">
      <g>
       <use xlink:href="#me7beaf851a" x="772.920715" y="567.74175" style="fill: #555555; stroke: #555555; stroke-width: 0.8"/>
      </g>
     </g>
     <g id="text_10">
      <!-- 2024-02 -->
      <g style="fill: #555555" transform="translate(760.099433 609.659567)rotate(-45)scale(0.1 -0.1)">
       <use xlink:href="#DejaVuSans-32"/>
       <use xlink:href="#DejaVuSans-30" x="63.623047"/>
       <use xlink:href="#DejaVuSans-32" x="127.246094"/>
       <use xlink:href="#DejaVuSans-34" x="190.869141"/>
       <use xlink:href="#DejaVuSans-2d" x="254.492188"/>
       <use xlink:href="#DejaVuSans-30" x="290.576172"/>
       <use xlink:href="#DejaVuSans-32" x="354.199219"/>
      </g>
     </g>
    </g>
    <g id="xtick_11">
     <g id="line2d_21">
      <path d="M 846.260984 567.74175 
L 846.260984 24.14175 
" clip-path="url(#p70aaf5234f)" style="fill: none; stroke: #ffffff; stroke-width: 0.8; stroke-linecap: square"/>
     </g>
     <g id="line2d_22">
      <g>
       <use xlink:href="#me7beaf851a" x="846.260984" y="567.74175" style="fill: #555555; stroke: #555555; stroke-width: 0.8"/>
      </g>
     </g>
     <g id="text_11">
      <!-- 2024-03 -->
      <g style="fill: #555555" transform="translate(833.439702 609.659567)rotate(-45)scale(0.1 -0.1)">
       <use xlink:href="#DejaVuSans-32"/>
       <use xlink:href="#DejaVuSans-30" x="63.623047"/>
       <use xlink:href="#DejaVuSans-32" x="127.246094"/>
       <use xlink:href="#DejaVuSans-34" x="190.869141"/>
       <use xlink:href="#DejaVuSans-2d" x="254.492188"/>
       <use xlink:href="#DejaVuSans-30" x="290.576172"/>
       <use xlink:href="#DejaVuSans-33" x="354.199219"/>
      </g>
     </g>
    </g>
    <g id="xtick_12">
     <g id="line2d_23">
      <path d="M 924.659203 567.74175 
L 924.659203 24.14175 
" clip-path="url(#p70aaf5234f)" style="fill: none; stroke: #ffffff; stroke-width: 0.8; stroke-linecap: square"/>
     </g>
     <g id="line2d_24">
      <g>
       <use xlink:href="#me7beaf851a" x="924.659203" y="567.74175" style="fill: #555555; stroke: #555555; stroke-width: 0.8"/>
      </g>
     </g>
     <g id="text_12">
      <!-- 2024-04 -->
      <g style="fill: #555555" transform="translate(911.83792 609.659567)rotate(-45)scale(0.1 -0.1)">
       <use xlink:href="#DejaVuSans-32"/>
       <use xlink:href="#DejaVuSans-30" x="63.623047"/>
       <use xlink:href="#DejaVuSans-32" x="127.246094"/>
       <use xlink:href="#DejaVuSans-34" x="190.869141"/>
       <use xlink:href="#DejaVuSans-2d" x="254.492188"/>
       <use xlink:href="#DejaVuSans-30" x="290.576172"/>
       <use xlink:href="#DejaVuSans-34" x="354.199219"/>
      </g>
     </g>
    </g>
    <g id="text_13">
     <!-- Date -->
     <g style="fill: #555555" transform="translate(491.772938 624.248253)scale(0.12 -0.12)">
      <defs>
       <path id="DejaVuSans-44" d="M 1259 4147 
L 1259 519 
L 2022 519 
Q 2988 519 3436 956 
Q 3884 1394 3884 2338 
Q 3884 3275 3436 3711 
Q 2988 4147 2022 4147 
L 1259 4147 
z
M 628 4666 
L 1925 4666 
Q 3281 4666 3915 4102 
Q 4550 3538 4550 2338 
Q 4550 1131 3912 565 
Q 3275 0 1925 0 
L 628 0 
L 628 4666 
z
" transform="scale(0.015625)"/>
       <path id="DejaVuSans-61" d="M 2194 1759 
Q 1497 1759 1228 1600 
Q 959 1441 959 1056 
Q 959 750 1161 570 
Q 1363 391 1709 391 
Q 2188 391 2477 730 
Q 2766 1069 2766 1631 
L 2766 1759 
L 2194 1759 
z
M 3341 1997 
L 3341 0 
L 2766 0 
L 2766 531 
Q 2569 213 2275 61 
Q 1981 -91 1556 -91 
Q 1019 -91 701 211 
Q 384 513 384 1019 
Q 384 1609 779 1909 
Q 1175 2209 1959 2209 
L 2766 2209 
L 2766 2266 
Q 2766 2663 2505 2880 
Q 2244 3097 1772 3097 
Q 1472 3097 1187 3025 
Q 903 2953 641 2809 
L 641 3341 
Q 956 3463 1253 3523 
Q 1550 3584 1831 3584 
Q 2591 3584 2966 3190 
Q 3341 2797 3341 1997 
z
" transform="scale(0.015625)"/>
       <path id="DejaVuSans-74" d="M 1172 4494 
L 1172 3500 
L 2356 3500 
L 2356 3053 
L 1172 3053 
L 1172 1153 
Q 1172 725 1289 603 
Q 1406 481 1766 481 
L 2356 481 
L 2356 0 
L 1766 0 
Q 1100 0 847 248 
Q 594 497 594 1153 
L 594 3053 
L 172 3053 
L 172 3500 
L 594 3500 
L 594 4494 
L 1172 4494 
z
" transform="scale(0.015625)"/>
       <path id="DejaVuSans-65" d="M 3597 1894 
L 3597 1613 
L 953 1613 
Q 991 1019 1311 708 
Q 1631 397 2203 397 
Q 2534 397 2845 478 
Q 3156 559 3463 722 
L 3463 178 
Q 3153 47 2828 -22 
Q 2503 -91 2169 -91 
Q 1331 -91 842 396 
Q 353 884 353 1716 
Q 353 2575 817 3079 
Q 1281 3584 2069 3584 
Q 2775 3584 3186 3129 
Q 3597 2675 3597 1894 
z
M 3022 2063 
Q 3016 2534 2758 2815 
Q 2500 3097 2075 3097 
Q 1594 3097 1305 2825 
Q 1016 2553 972 2059 
L 3022 2063 
z
" transform="scale(0.015625)"/>
      </defs>
      <use xlink:href="#DejaVuSans-44"/>
      <use xlink:href="#DejaVuSans-61" x="77.001953"/>
      <use xlink:href="#DejaVuSans-74" x="138.28125"/>
      <use xlink:href="#DejaVuSans-65" x="177.490234"/>
     </g>
    </g>
   </g>
   <g id="matplotlib.axis_2">
    <g id="ytick_1">
     <g id="line2d_25">
      <path d="M 54.691875 567.74175 
L 957.535875 567.74175 
" clip-path="url(#p70aaf5234f)" style="fill: none; stroke: #ffffff; stroke-width: 0.8; stroke-linecap: square"/>
     </g>
     <g id="line2d_26">
      <defs>
       <path id="mbfe9629f98" d="M 0 0 
L -3.5 0 
" style="stroke: #555555; stroke-width: 0.8"/>
      </defs>
      <g>
       <use xlink:href="#mbfe9629f98" x="54.691875" y="567.74175" style="fill: #555555; stroke: #555555; stroke-width: 0.8"/>
      </g>
     </g>
     <g id="text_14">
      <!-- 0k -->
      <g style="fill: #555555" transform="translate(35.53875 571.540969)scale(0.1 -0.1)">
       <defs>
        <path id="DejaVuSans-6b" d="M 581 4863 
L 1159 4863 
L 1159 1991 
L 2875 3500 
L 3609 3500 
L 1753 1863 
L 3688 0 
L 2938 0 
L 1159 1709 
L 1159 0 
L 581 0 
L 581 4863 
z
" transform="scale(0.015625)"/>
       </defs>
       <use xlink:href="#DejaVuSans-30"/>
       <use xlink:href="#DejaVuSans-6b" x="63.623047"/>
      </g>
     </g>
    </g>
    <g id="ytick_2">
     <g id="line2d_27">
      <path d="M 54.691875 484.318115 
L 957.535875 484.318115 
" clip-path="url(#p70aaf5234f)" style="fill: none; stroke: #ffffff; stroke-width: 0.8; stroke-linecap: square"/>
     </g>
     <g id="line2d_28">
      <g>
       <use xlink:href="#mbfe9629f98" x="54.691875" y="484.318115" style="fill: #555555; stroke: #555555; stroke-width: 0.8"/>
      </g>
     </g>
     <g id="text_15">
      <!-- 50k -->
      <g style="fill: #555555" transform="translate(29.17625 488.117334)scale(0.1 -0.1)">
       <use xlink:href="#DejaVuSans-35"/>
       <use xlink:href="#DejaVuSans-30" x="63.623047"/>
       <use xlink:href="#DejaVuSans-6b" x="127.246094"/>
      </g>
     </g>
    </g>
    <g id="ytick_3">
     <g id="line2d_29">
      <path d="M 54.691875 400.89448 
L 957.535875 400.89448 
" clip-path="url(#p70aaf5234f)" style="fill: none; stroke: #ffffff; stroke-width: 0.8; stroke-linecap: square"/>
     </g>
     <g id="line2d_30">
      <g>
       <use xlink:href="#mbfe9629f98" x="54.691875" y="400.89448" style="fill: #555555; stroke: #555555; stroke-width: 0.8"/>
      </g>
     </g>
     <g id="text_16">
      <!-- 100k -->
      <g style="fill: #555555" transform="translate(22.81375 404.693699)scale(0.1 -0.1)">
       <use xlink:href="#DejaVuSans-31"/>
       <use xlink:href="#DejaVuSans-30" x="63.623047"/>
       <use xlink:href="#DejaVuSans-30" x="127.246094"/>
       <use xlink:href="#DejaVuSans-6b" x="190.869141"/>
      </g>
     </g>
    </g>
    <g id="ytick_4">
     <g id="line2d_31">
      <path d="M 54.691875 317.470846 
L 957.535875 317.470846 
" clip-path="url(#p70aaf5234f)" style="fill: none; stroke: #ffffff; stroke-width: 0.8; stroke-linecap: square"/>
     </g>
     <g id="line2d_32">
      <g>
       <use xlink:href="#mbfe9629f98" x="54.691875" y="317.470846" style="fill: #555555; stroke: #555555; stroke-width: 0.8"/>
      </g>
     </g>
     <g id="text_17">
      <!-- 150k -->
      <g style="fill: #555555" transform="translate(22.81375 321.270064)scale(0.1 -0.1)">
       <use xlink:href="#DejaVuSans-31"/>
       <use xlink:href="#DejaVuSans-35" x="63.623047"/>
       <use xlink:href="#DejaVuSans-30" x="127.246094"/>
       <use xlink:href="#DejaVuSans-6b" x="190.869141"/>
      </g>
     </g>
    </g>
    <g id="ytick_5">
     <g id="line2d_33">
      <path d="M 54.691875 234.047211 
L 957.535875 234.047211 
" clip-path="url(#p70aaf5234f)" style="fill: none; stroke: #ffffff; stroke-width: 0.8; stroke-linecap: square"/>
     </g>
     <g id="line2d_34">
      <g>
       <use xlink:href="#mbfe9629f98" x="54.691875" y="234.047211" style="fill: #555555; stroke: #555555; stroke-width: 0.8"/>
      </g>
     </g>
     <g id="text_18">
      <!-- 200k -->
      <g style="fill: #555555" transform="translate(22.81375 237.84643)scale(0.1 -0.1)">
       <use xlink:href="#DejaVuSans-32"/>
       <use xlink:href="#DejaVuSans-30" x="63.623047"/>
       <use xlink:href="#DejaVuSans-30" x="127.246094"/>
       <use xlink:href="#DejaVuSans-6b" x="190.869141"/>
      </g>
     </g>
    </g>
    <g id="ytick_6">
     <g id="line2d_35">
      <path d="M 54.691875 150.623576 
L 957.535875 150.623576 
" clip-path="url(#p70aaf5234f)" style="fill: none; stroke: #ffffff; stroke-width: 0.8; stroke-linecap: square"/>
     </g>
     <g id="line2d_36">
      <g>
       <use xlink:href="#mbfe9629f98" x="54.691875" y="150.623576" style="fill: #555555; stroke: #555555; stroke-width: 0.8"/>
      </g>
     </g>
     <g id="text_19">
      <!-- 250k -->
      <g style="fill: #555555" transform="translate(22.81375 154.422795)scale(0.1 -0.1)">
       <use xlink:href="#DejaVuSans-32"/>
       <use xlink:href="#DejaVuSans-35" x="63.623047"/>
       <use xlink:href="#DejaVuSans-30" x="127.246094"/>
       <use xlink:href="#DejaVuSans-6b" x="190.869141"/>
      </g>
     </g>
    </g>
    <g id="ytick_7">
     <g id="line2d_37">
      <path d="M 54.691875 67.199941 
L 957.535875 67.199941 
" clip-path="url(#p70aaf5234f)" style="fill: none; stroke: #ffffff; stroke-width: 0.8; stroke-linecap: square"/>
     </g>
     <g id="line2d_38">
      <g>
       <use xlink:href="#mbfe9629f98" x="54.691875" y="67.199941" style="fill: #555555; stroke: #555555; stroke-width: 0.8"/>
      </g>
     </g>
     <g id="text_20">
      <!-- 300k -->
      <g style="fill: #555555" transform="translate(22.81375 70.99916)scale(0.1 -0.1)">
       <use xlink:href="#DejaVuSans-33"/>
       <use xlink:href="#DejaVuSans-30" x="63.623047"/>
       <use xlink:href="#DejaVuSans-30" x="127.246094"/>
       <use xlink:href="#DejaVuSans-6b" x="190.869141"/>
      </g>
     </g>
    </g>
    <g id="text_21">
     <!-- Instances -->
     <g style="fill: #555555" transform="translate(16.318125 324.588)rotate(-90)scale(0.12 -0.12)">
      <defs>
       <path id="DejaVuSans-49" d="M 628 4666 
L 1259 4666 
L 1259 0 
L 628 0 
L 628 4666 
z
" transform="scale(0.015625)"/>
       <path id="DejaVuSans-6e" d="M 3513 2113 
L 3513 0 
L 2938 0 
L 2938 2094 
Q 2938 2591 2744 2837 
Q 2550 3084 2163 3084 
Q 1697 3084 1428 2787 
Q 1159 2491 1159 1978 
L 1159 0 
L 581 0 
L 581 3500 
L 1159 3500 
L 1159 2956 
Q 1366 3272 1645 3428 
Q 1925 3584 2291 3584 
Q 2894 3584 3203 3211 
Q 3513 2838 3513 2113 
z
" transform="scale(0.015625)"/>
       <path id="DejaVuSans-73" d="M 2834 3397 
L 2834 2853 
Q 2591 2978 2328 3040 
Q 2066 3103 1784 3103 
Q 1356 3103 1142 2972 
Q 928 2841 928 2578 
Q 928 2378 1081 2264 
Q 1234 2150 1697 2047 
L 1894 2003 
Q 2506 1872 2764 1633 
Q 3022 1394 3022 966 
Q 3022 478 2636 193 
Q 2250 -91 1575 -91 
Q 1294 -91 989 -36 
Q 684 19 347 128 
L 347 722 
Q 666 556 975 473 
Q 1284 391 1588 391 
Q 1994 391 2212 530 
Q 2431 669 2431 922 
Q 2431 1156 2273 1281 
Q 2116 1406 1581 1522 
L 1381 1569 
Q 847 1681 609 1914 
Q 372 2147 372 2553 
Q 372 3047 722 3315 
Q 1072 3584 1716 3584 
Q 2034 3584 2315 3537 
Q 2597 3491 2834 3397 
z
" transform="scale(0.015625)"/>
       <path id="DejaVuSans-63" d="M 3122 3366 
L 3122 2828 
Q 2878 2963 2633 3030 
Q 2388 3097 2138 3097 
Q 1578 3097 1268 2742 
Q 959 2388 959 1747 
Q 959 1106 1268 751 
Q 1578 397 2138 397 
Q 2388 397 2633 464 
Q 2878 531 3122 666 
L 3122 134 
Q 2881 22 2623 -34 
Q 2366 -91 2075 -91 
Q 1284 -91 818 406 
Q 353 903 353 1747 
Q 353 2603 823 3093 
Q 1294 3584 2113 3584 
Q 2378 3584 2631 3529 
Q 2884 3475 3122 3366 
z
" transform="scale(0.015625)"/>
      </defs>
      <use xlink:href="#DejaVuSans-49"/>
      <use xlink:href="#DejaVuSans-6e" x="29.492188"/>
      <use xlink:href="#DejaVuSans-73" x="92.871094"/>
      <use xlink:href="#DejaVuSans-74" x="144.970703"/>
      <use xlink:href="#DejaVuSans-61" x="184.179688"/>
      <use xlink:href="#DejaVuSans-6e" x="245.458984"/>
      <use xlink:href="#DejaVuSans-63" x="308.837891"/>
      <use xlink:href="#DejaVuSans-65" x="363.818359"/>
      <use xlink:href="#DejaVuSans-73" x="425.341797"/>
     </g>
    </g>
   </g>
   <g id="line2d_39">
    <path d="M 54.691875 460.363534 
L 63.811511 459.4848 
L 72.931148 458.606067 
L 82.050784 457.727334 
L 91.17042 456.8486 
L 100.290057 455.969867 
L 109.409693 455.091133 
L 118.52933 454.2124 
L 127.648966 453.333666 
L 136.768602 452.454933 
L 145.888239 451.5762 
L 155.007875 450.697466 
L 164.127511 449.818733 
L 173.247148 448.939999 
L 182.366784 448.061266 
L 191.48642 447.182533 
L 200.606057 446.303799 
L 209.725693 445.425066 
L 218.84533 444.546332 
L 227.964966 443.667599 
L 237.084602 442.788866 
L 246.204239 441.910132 
L 255.323875 441.031399 
L 264.443511 440.152665 
L 273.563148 439.273932 
L 282.682784 438.395198 
L 291.80242 437.516465 
L 300.922057 436.637732 
L 310.041693 435.758998 
L 319.16133 434.880265 
L 328.280966 434.001531 
L 337.400602 433.122798 
L 346.520239 432.244065 
L 355.639875 431.365331 
L 364.759511 430.486598 
L 373.879148 429.607864 
L 382.998784 428.729131 
L 392.11842 427.850398 
L 401.238057 426.971664 
L 410.357693 426.092931 
L 419.47733 425.214197 
L 428.596966 424.335464 
L 437.716602 423.45673 
L 446.836239 422.577997 
L 455.955875 421.699264 
L 465.075511 420.82053 
L 474.195148 419.941797 
L 483.314784 419.063063 
L 492.43442 418.18433 
L 501.554057 417.305597 
L 510.673693 416.426863 
L 519.79333 415.54813 
L 528.912966 414.669396 
L 538.032602 413.790663 
L 547.152239 412.91193 
L 556.271875 412.033196 
L 565.391511 411.154463 
L 574.511148 410.275729 
L 583.630784 409.396996 
L 592.75042 408.518262 
L 601.870057 407.639529 
L 610.989693 406.760796 
L 620.10933 405.882062 
L 629.228966 405.003329 
L 638.348602 404.124595 
L 647.468239 403.245862 
L 656.587875 402.367129 
L 665.707511 401.488395 
L 674.827148 400.609662 
L 683.946784 399.730928 
L 693.06642 398.852195 
L 702.186057 397.973462 
L 711.305693 397.094728 
L 720.42533 396.215995 
L 729.544966 395.337261 
L 738.664602 394.458528 
L 747.784239 393.579794 
L 756.903875 392.701061 
L 766.023511 391.822328 
L 775.143148 390.943594 
L 784.262784 390.064861 
L 793.38242 389.186127 
L 802.502057 388.307394 
L 811.621693 387.428661 
L 820.74133 386.549927 
L 829.860966 385.671194 
L 838.980602 384.79246 
L 848.100239 383.913727 
L 857.219875 383.034994 
L 866.339511 382.15626 
L 875.459148 381.277527 
L 884.578784 380.398793 
L 893.69842 379.52006 
L 902.818057 378.641327 
L 911.937693 377.762593 
L 921.05733 376.88386 
L 930.176966 376.005126 
L 939.296602 375.126393 
L 948.416239 374.247659 
L 957.535875 373.368926 
" clip-path="url(#p70aaf5234f)" style="fill: none; stroke-dasharray: 1.5,2.475; stroke-dashoffset: 0; stroke: #4ac1fa; stroke-width: 1.5"/>
   </g>
   <g id="line2d_40">
    <path d="M 54.691875 415.114506 
L 63.811511 416.096787 
L 72.931148 417.079068 
L 82.050784 418.061349 
L 91.17042 419.043631 
L 100.290057 420.025912 
L 109.409693 421.008193 
L 118.52933 421.990474 
L 127.648966 422.972756 
L 136.768602 423.955037 
L 145.888239 424.937318 
L 155.007875 425.9196 
L 164.127511 426.901881 
L 173.247148 427.884162 
L 182.366784 428.866443 
L 191.48642 429.848725 
L 200.606057 430.831006 
L 209.725693 431.813287 
L 218.84533 432.795568 
L 227.964966 433.77785 
L 237.084602 434.760131 
L 246.204239 435.742412 
L 255.323875 436.724693 
L 264.443511 437.706975 
L 273.563148 438.689256 
L 282.682784 439.671537 
L 291.80242 440.653818 
L 300.922057 441.6361 
L 310.041693 442.618381 
L 319.16133 443.600662 
L 328.280966 444.582944 
L 337.400602 445.565225 
L 346.520239 446.547506 
L 355.639875 447.529787 
L 364.759511 448.512069 
L 373.879148 449.49435 
L 382.998784 450.476631 
L 392.11842 451.458912 
L 401.238057 452.441194 
L 410.357693 453.423475 
L 419.47733 454.405756 
L 428.596966 455.388037 
L 437.716602 456.370319 
L 446.836239 457.3526 
L 455.955875 458.334881 
L 465.075511 459.317162 
L 474.195148 460.299444 
L 483.314784 461.281725 
L 492.43442 462.264006 
L 501.554057 463.246288 
L 510.673693 464.228569 
L 519.79333 465.21085 
L 528.912966 466.193131 
L 538.032602 467.175413 
L 547.152239 468.157694 
L 556.271875 469.139975 
L 565.391511 470.122256 
L 574.511148 471.104538 
L 583.630784 472.086819 
L 592.75042 473.0691 
L 601.870057 474.051381 
L 610.989693 475.033663 
L 620.10933 476.015944 
L 629.228966 476.998225 
L 638.348602 477.980506 
L 647.468239 478.962788 
L 656.587875 479.945069 
L 665.707511 480.92735 
L 674.827148 481.909632 
L 683.946784 482.891913 
L 693.06642 483.874194 
L 702.186057 484.856475 
L 711.305693 485.838757 
L 720.42533 486.821038 
L 729.544966 487.803319 
L 738.664602 488.7856 
L 747.784239 489.767882 
L 756.903875 490.750163 
L 766.023511 491.732444 
L 775.143148 492.714725 
L 784.262784 493.697007 
L 793.38242 494.679288 
L 802.502057 495.661569 
L 811.621693 496.643851 
L 820.74133 497.626132 
L 829.860966 498.608413 
L 838.980602 499.590694 
L 848.100239 500.572976 
L 857.219875 501.555257 
L 866.339511 502.537538 
L 875.459148 503.519819 
L 884.578784 504.502101 
L 893.69842 505.484382 
L 902.818057 506.466663 
L 911.937693 507.448944 
L 921.05733 508.431226 
L 930.176966 509.413507 
L 939.296602 510.395788 
L 948.416239 511.378069 
L 957.535875 512.360351 
" clip-path="url(#p70aaf5234f)" style="fill: none; stroke-dasharray: 1.5,2.475; stroke-dashoffset: 0; stroke: #e9a942; stroke-width: 1.5"/>
   </g>
   <g id="line2d_41">
    <path d="M 54.691875 474.40829 
L 63.811511 474.060796 
L 72.931148 473.713303 
L 82.050784 473.365809 
L 91.17042 473.018316 
L 100.290057 472.670822 
L 109.409693 472.323328 
L 118.52933 471.975835 
L 127.648966 471.628341 
L 136.768602 471.280848 
L 145.888239 470.933354 
L 155.007875 470.58586 
L 164.127511 470.238367 
L 173.247148 469.890873 
L 182.366784 469.54338 
L 191.48642 469.195886 
L 200.606057 468.848392 
L 209.725693 468.500899 
L 218.84533 468.153405 
L 227.964966 467.805912 
L 237.084602 467.458418 
L 246.204239 467.110924 
L 255.323875 466.763431 
L 264.443511 466.415937 
L 273.563148 466.068444 
L 282.682784 465.72095 
L 291.80242 465.373457 
L 300.922057 465.025963 
L 310.041693 464.678469 
L 319.16133 464.330976 
L 328.280966 463.983482 
L 337.400602 463.635989 
L 346.520239 463.288495 
L 355.639875 462.941001 
L 364.759511 462.593508 
L 373.879148 462.246014 
L 382.998784 461.898521 
L 392.11842 461.551027 
L 401.238057 461.203533 
L 410.357693 460.85604 
L 419.47733 460.508546 
L 428.596966 460.161053 
L 437.716602 459.813559 
L 446.836239 459.466065 
L 455.955875 459.118572 
L 465.075511 458.771078 
L 474.195148 458.423585 
L 483.314784 458.076091 
L 492.43442 457.728598 
L 501.554057 457.381104 
L 510.673693 457.03361 
L 519.79333 456.686117 
L 528.912966 456.338623 
L 538.032602 455.99113 
L 547.152239 455.643636 
L 556.271875 455.296142 
L 565.391511 454.948649 
L 574.511148 454.601155 
L 583.630784 454.253662 
L 592.75042 453.906168 
L 601.870057 453.558674 
L 610.989693 453.211181 
L 620.10933 452.863687 
L 629.228966 452.516194 
L 638.348602 452.1687 
L 647.468239 451.821206 
L 656.587875 451.473713 
L 665.707511 451.126219 
L 674.827148 450.778726 
L 683.946784 450.431232 
L 693.06642 450.083738 
L 702.186057 449.736245 
L 711.305693 449.388751 
L 720.42533 449.041258 
L 729.544966 448.693764 
L 738.664602 448.346271 
L 747.784239 447.998777 
L 756.903875 447.651283 
L 766.023511 447.30379 
L 775.143148 446.956296 
L 784.262784 446.608803 
L 793.38242 446.261309 
L 802.502057 445.913815 
L 811.621693 445.566322 
L 820.74133 445.218828 
L 829.860966 444.871335 
L 838.980602 444.523841 
L 848.100239 444.176347 
L 857.219875 443.828854 
L 866.339511 443.48136 
L 875.459148 443.133867 
L 884.578784 442.786373 
L 893.69842 442.438879 
L 902.818057 442.091386 
L 911.937693 441.743892 
L 921.05733 441.396399 
L 930.176966 441.048905 
L 939.296602 440.701412 
L 948.416239 440.353918 
L 957.535875 440.006424 
" clip-path="url(#p70aaf5234f)" style="fill: none; stroke-dasharray: 1.5,2.475; stroke-dashoffset: 0; stroke: #9a5689; stroke-width: 1.5"/>
   </g>
   <g id="line2d_42">
    <path d="M 54.691875 520.635569 
L 63.811511 520.210911 
L 72.931148 519.786254 
L 82.050784 519.361596 
L 91.17042 518.936939 
L 100.290057 518.512281 
L 109.409693 518.087624 
L 118.52933 517.662966 
L 127.648966 517.238309 
L 136.768602 516.813651 
L 145.888239 516.388994 
L 155.007875 515.964336 
L 164.127511 515.539679 
L 173.247148 515.115021 
L 182.366784 514.690364 
L 191.48642 514.265706 
L 200.606057 513.841049 
L 209.725693 513.416391 
L 218.84533 512.991733 
L 227.964966 512.567076 
L 237.084602 512.142418 
L 246.204239 511.717761 
L 255.323875 511.293103 
L 264.443511 510.868446 
L 273.563148 510.443788 
L 282.682784 510.019131 
L 291.80242 509.594473 
L 300.922057 509.169816 
L 310.041693 508.745158 
L 319.16133 508.320501 
L 328.280966 507.895843 
L 337.400602 507.471186 
L 346.520239 507.046528 
L 355.639875 506.621871 
L 364.759511 506.197213 
L 373.879148 505.772555 
L 382.998784 505.347898 
L 392.11842 504.92324 
L 401.238057 504.498583 
L 410.357693 504.073925 
L 419.47733 503.649268 
L 428.596966 503.22461 
L 437.716602 502.799953 
L 446.836239 502.375295 
L 455.955875 501.950638 
L 465.075511 501.52598 
L 474.195148 501.101323 
L 483.314784 500.676665 
L 492.43442 500.252008 
L 501.554057 499.82735 
L 510.673693 499.402693 
L 519.79333 498.978035 
L 528.912966 498.553378 
L 538.032602 498.12872 
L 547.152239 497.704062 
L 556.271875 497.279405 
L 565.391511 496.854747 
L 574.511148 496.43009 
L 583.630784 496.005432 
L 592.75042 495.580775 
L 601.870057 495.156117 
L 610.989693 494.73146 
L 620.10933 494.306802 
L 629.228966 493.882145 
L 638.348602 493.457487 
L 647.468239 493.03283 
L 656.587875 492.608172 
L 665.707511 492.183515 
L 674.827148 491.758857 
L 683.946784 491.3342 
L 693.06642 490.909542 
L 702.186057 490.484885 
L 711.305693 490.060227 
L 720.42533 489.635569 
L 729.544966 489.210912 
L 738.664602 488.786254 
L 747.784239 488.361597 
L 756.903875 487.936939 
L 766.023511 487.512282 
L 775.143148 487.087624 
L 784.262784 486.662967 
L 793.38242 486.238309 
L 802.502057 485.813652 
L 811.621693 485.388994 
L 820.74133 484.964337 
L 829.860966 484.539679 
L 838.980602 484.115022 
L 848.100239 483.690364 
L 857.219875 483.265707 
L 866.339511 482.841049 
L 875.459148 482.416391 
L 884.578784 481.991734 
L 893.69842 481.567076 
L 902.818057 481.142419 
L 911.937693 480.717761 
L 921.05733 480.293104 
L 930.176966 479.868446 
L 939.296602 479.443789 
L 948.416239 479.019131 
L 957.535875 478.594474 
" clip-path="url(#p70aaf5234f)" style="fill: none; stroke-dasharray: 1.5,2.475; stroke-dashoffset: 0; stroke: #be503b; stroke-width: 1.5"/>
   </g>
   <g id="line2d_43">
    <path d="M 54.691875 442.159438 
L 63.811511 441.159434 
L 72.931148 440.159429 
L 82.050784 439.159424 
L 91.17042 438.159419 
L 100.290057 437.159414 
L 109.409693 436.15941 
L 118.52933 435.159405 
L 127.648966 434.1594 
L 136.768602 433.159395 
L 145.888239 432.159391 
L 155.007875 431.159386 
L 164.127511 430.159381 
L 173.247148 429.159376 
L 182.366784 428.159372 
L 191.48642 427.159367 
L 200.606057 426.159362 
L 209.725693 425.159357 
L 218.84533 424.159353 
L 227.964966 423.159348 
L 237.084602 422.159343 
L 246.204239 421.159338 
L 255.323875 420.159334 
L 264.443511 419.159329 
L 273.563148 418.159324 
L 282.682784 417.159319 
L 291.80242 416.159315 
L 300.922057 415.15931 
L 310.041693 414.159305 
L 319.16133 413.1593 
L 328.280966 412.159296 
L 337.400602 411.159291 
L 346.520239 410.159286 
L 355.639875 409.159281 
L 364.759511 408.159277 
L 373.879148 407.159272 
L 382.998784 406.159267 
L 392.11842 405.159262 
L 401.238057 404.159257 
L 410.357693 403.159253 
L 419.47733 402.159248 
L 428.596966 401.159243 
L 437.716602 400.159238 
L 446.836239 399.159234 
L 455.955875 398.159229 
L 465.075511 397.159224 
L 474.195148 396.159219 
L 483.314784 395.159215 
L 492.43442 394.15921 
L 501.554057 393.159205 
L 510.673693 392.1592 
L 519.79333 391.159196 
L 528.912966 390.159191 
L 538.032602 389.159186 
L 547.152239 388.159181 
L 556.271875 387.159177 
L 565.391511 386.159172 
L 574.511148 385.159167 
L 583.630784 384.159162 
L 592.75042 383.159158 
L 601.870057 382.159153 
L 610.989693 381.159148 
L 620.10933 380.159143 
L 629.228966 379.159139 
L 638.348602 378.159134 
L 647.468239 377.159129 
L 656.587875 376.159124 
L 665.707511 375.15912 
L 674.827148 374.159115 
L 683.946784 373.15911 
L 693.06642 372.159105 
L 702.186057 371.1591 
L 711.305693 370.159096 
L 720.42533 369.159091 
L 729.544966 368.159086 
L 738.664602 367.159081 
L 747.784239 366.159077 
L 756.903875 365.159072 
L 766.023511 364.159067 
L 775.143148 363.159062 
L 784.262784 362.159058 
L 793.38242 361.159053 
L 802.502057 360.159048 
L 811.621693 359.159043 
L 820.74133 358.159039 
L 829.860966 357.159034 
L 838.980602 356.159029 
L 848.100239 355.159024 
L 857.219875 354.15902 
L 866.339511 353.159015 
L 875.459148 352.15901 
L 884.578784 351.159005 
L 893.69842 350.159001 
L 902.818057 349.158996 
L 911.937693 348.158991 
L 921.05733 347.158986 
L 930.176966 346.158982 
L 939.296602 345.158977 
L 948.416239 344.158972 
L 957.535875 343.158967 
" clip-path="url(#p70aaf5234f)" style="fill: none; stroke-dasharray: 1.5,2.475; stroke-dashoffset: 0; stroke: #e2321d; stroke-width: 1.5"/>
   </g>
   <g id="line2d_44">
    <path d="M 54.691875 421.528536 
L 63.811511 418.488396 
L 72.931148 415.448255 
L 82.050784 412.408115 
L 91.17042 409.367974 
L 100.290057 406.327834 
L 109.409693 403.287694 
L 118.52933 400.247553 
L 127.648966 397.207413 
L 136.768602 394.167272 
L 145.888239 391.127132 
L 155.007875 388.086991 
L 164.127511 385.046851 
L 173.247148 382.006711 
L 182.366784 378.96657 
L 191.48642 375.92643 
L 200.606057 372.886289 
L 209.725693 369.846149 
L 218.84533 366.806008 
L 227.964966 363.765868 
L 237.084602 360.725727 
L 246.204239 357.685587 
L 255.323875 354.645447 
L 264.443511 351.605306 
L 273.563148 348.565166 
L 282.682784 345.525025 
L 291.80242 342.484885 
L 300.922057 339.444744 
L 310.041693 336.404604 
L 319.16133 333.364464 
L 328.280966 330.324323 
L 337.400602 327.284183 
L 346.520239 324.244042 
L 355.639875 321.203902 
L 364.759511 318.163761 
L 373.879148 315.123621 
L 382.998784 312.083481 
L 392.11842 309.04334 
L 401.238057 306.0032 
L 410.357693 302.963059 
L 419.47733 299.922919 
L 428.596966 296.882778 
L 437.716602 293.842638 
L 446.836239 290.802497 
L 455.955875 287.762357 
L 465.075511 284.722217 
L 474.195148 281.682076 
L 483.314784 278.641936 
L 492.43442 275.601795 
L 501.554057 272.561655 
L 510.673693 269.521514 
L 519.79333 266.481374 
L 528.912966 263.441234 
L 538.032602 260.401093 
L 547.152239 257.360953 
L 556.271875 254.320812 
L 565.391511 251.280672 
L 574.511148 248.240531 
L 583.630784 245.200391 
L 592.75042 242.160251 
L 601.870057 239.12011 
L 610.989693 236.07997 
L 620.10933 233.039829 
L 629.228966 229.999689 
L 638.348602 226.959548 
L 647.468239 223.919408 
L 656.587875 220.879268 
L 665.707511 217.839127 
L 674.827148 214.798987 
L 683.946784 211.758846 
L 693.06642 208.718706 
L 702.186057 205.678565 
L 711.305693 202.638425 
L 720.42533 199.598284 
L 729.544966 196.558144 
L 738.664602 193.518004 
L 747.784239 190.477863 
L 756.903875 187.437723 
L 766.023511 184.397582 
L 775.143148 181.357442 
L 784.262784 178.317301 
L 793.38242 175.277161 
L 802.502057 172.237021 
L 811.621693 169.19688 
L 820.74133 166.15674 
L 829.860966 163.116599 
L 838.980602 160.076459 
L 848.100239 157.036318 
L 857.219875 153.996178 
L 866.339511 150.956038 
L 875.459148 147.915897 
L 884.578784 144.875757 
L 893.69842 141.835616 
L 902.818057 138.795476 
L 911.937693 135.755335 
L 921.05733 132.715195 
L 930.176966 129.675054 
L 939.296602 126.634914 
L 948.416239 123.594774 
L 957.535875 120.554633 
" clip-path="url(#p70aaf5234f)" style="fill: none; stroke-dasharray: 1.5,2.475; stroke-dashoffset: 0; stroke: #48b585; stroke-width: 1.5"/>
   </g>
   <g id="line2d_45">
    <path d="M 54.691875 493.851768 
L 107.800346 489.592157 
L 125.503169 460.295445 
L 143.205993 429.550499 
L 160.908816 463.292022 
L 178.61164 448.322485 
L 196.314463 449.975942 
L 214.017287 446.035009 
L 231.72011 456.396225 
L 249.422934 452.211695 
L 267.125757 455.785564 
L 284.828581 448.305801 
L 302.531404 452.011478 
L 320.234228 453.326235 
L 337.937051 455.156549 
L 355.639875 432.366881 
L 373.342699 451.410828 
L 391.045522 439.826622 
L 408.748346 452.056527 
L 426.451169 445.654597 
L 444.153993 439.905041 
L 461.856816 444.461639 
L 479.55964 435.206621 
L 497.262463 305.364408 
L 550.370934 366.812589 
L 568.073757 367.147952 
L 585.776581 339.184349 
L 603.479404 362.149208 
L 621.182228 319.943522 
L 638.885051 331.095594 
L 656.587875 328.249179 
L 674.290699 404.491708 
L 691.993522 337.549246 
L 709.696346 337.052041 
L 727.399169 384.051249 
L 745.101993 389.570556 
L 762.804816 423.228656 
L 780.50764 401.621935 
L 798.210463 400.717622 
L 815.913287 410.660051 
L 833.61611 410.696758 
L 851.318934 429.597216 
L 869.021757 426.956024 
L 886.724581 415.777257 
L 904.427404 436.090912 
L 922.130228 420.710931 
L 939.833051 423.026771 
L 957.535875 364.369945 
" clip-path="url(#p70aaf5234f)" style="fill: none; stroke: #4ac1fa; stroke-width: 1.5; stroke-linecap: square"/>
   </g>
   <g id="line2d_46">
    <path d="M 54.691875 436.564758 
L 107.800346 312.653965 
L 125.503169 334.99982 
L 143.205993 311.994918 
L 160.908816 335.200037 
L 178.61164 333.099429 
L 196.314463 365.039002 
L 214.017287 331.858086 
L 231.72011 422.371061 
L 249.422934 500.252029 
L 267.125757 501.875453 
L 284.828581 501.388259 
L 302.531404 498.338291 
L 320.234228 508.294068 
L 337.937051 500.695843 
L 355.639875 497.725962 
L 373.342699 503.397101 
L 391.045522 512.557016 
L 408.748346 507.905314 
L 426.451169 505.646202 
L 444.153993 499.703102 
L 461.856816 493.339547 
L 479.55964 493.921844 
L 497.262463 493.102624 
L 550.370934 483.146847 
L 568.073757 484.369838 
L 585.776581 499.711444 
L 603.479404 492.174953 
L 621.182228 494.827825 
L 638.885051 498.853849 
L 656.587875 514.185445 
L 674.290699 518.029606 
L 691.993522 511.430797 
L 709.696346 497.654217 
L 727.399169 492.203317 
L 745.101993 497.385593 
L 762.804816 492.710533 
L 780.50764 486.283576 
L 798.210463 496.574716 
L 815.913287 476.966825 
L 833.61611 470.486477 
L 851.318934 469.260149 
L 869.021757 454.292281 
L 886.724581 467.75185 
L 904.427404 463.353756 
L 922.130228 463.48056 
L 939.833051 457.752693 
L 957.535875 462.297613 
" clip-path="url(#p70aaf5234f)" style="fill: none; stroke: #e9a942; stroke-width: 1.5; stroke-linecap: square"/>
   </g>
   <g id="line2d_47">
    <path d="M 54.691875 440.133621 
L 107.800346 460.537374 
L 125.503169 462.834861 
L 143.205993 449.403656 
L 160.908816 442.686385 
L 178.61164 479.299349 
L 196.314463 476.925113 
L 214.017287 482.736403 
L 231.72011 489.975906 
L 249.422934 481.790379 
L 267.125757 481.034561 
L 284.828581 482.392698 
L 302.531404 440.484001 
L 320.234228 467.483226 
L 337.937051 479.935037 
L 355.639875 467.988773 
L 373.342699 470.958654 
L 391.045522 470.950312 
L 408.748346 467.162879 
L 426.451169 457.542465 
L 444.153993 461.828772 
L 461.856816 458.53187 
L 479.55964 449.79241 
L 497.262463 454.447449 
L 550.370934 431.110521 
L 568.073757 408.025533 
L 585.776581 440.996222 
L 603.479404 458.163137 
L 621.182228 454.520861 
L 638.885051 457.36227 
L 656.587875 470.207842 
L 674.290699 490.971984 
L 691.993522 478.873889 
L 709.696346 465.130679 
L 727.399169 464.581752 
L 745.101993 455.378456 
L 762.804816 463.347082 
L 780.50764 460.515684 
L 798.210463 461.446692 
L 815.913287 470.404721 
L 833.61611 467.741839 
L 851.318934 429.313576 
L 869.021757 398.438489 
L 886.724581 396.553115 
L 904.427404 421.396673 
L 922.130228 435.748875 
L 939.833051 433.599882 
L 957.535875 424.238082 
" clip-path="url(#p70aaf5234f)" style="fill: none; stroke: #9a5689; stroke-width: 1.5; stroke-linecap: square"/>
   </g>
   <g id="line2d_48">
    <path d="M 54.691875 516.019096 
L 107.800346 512.023104 
L 125.503169 524.913724 
L 143.205993 524.00107 
L 160.908816 513.486355 
L 178.61164 519.267613 
L 196.314463 519.100766 
L 214.017287 510.81513 
L 231.72011 512.788933 
L 249.422934 508.319095 
L 267.125757 502.289235 
L 284.828581 509.53708 
L 302.531404 505.526072 
L 320.234228 530.823455 
L 337.937051 509.915823 
L 355.639875 507.962042 
L 373.342699 516.202628 
L 391.045522 503.832572 
L 408.748346 508.85968 
L 426.451169 509.748976 
L 444.153993 488.926437 
L 461.856816 505.394262 
L 479.55964 502.254197 
L 497.262463 498.493459 
L 550.370934 474.752761 
L 568.073757 462.477808 
L 585.776581 487.232937 
L 603.479404 476.055838 
L 621.182228 481.271484 
L 638.885051 484.576729 
L 656.587875 493.6966 
L 674.290699 514.754394 
L 691.993522 498.283232 
L 709.696346 496.538009 
L 727.399169 501.40995 
L 745.101993 477.574149 
L 762.804816 506.744057 
L 780.50764 499.557945 
L 798.210463 498.476775 
L 815.913287 484.353153 
L 833.61611 496.052484 
L 851.318934 483.814236 
L 869.021757 478.543531 
L 886.724581 489.668907 
L 904.427404 486.984335 
L 922.130228 492.084856 
L 939.833051 446.920968 
L 957.535875 471.275664 
" clip-path="url(#p70aaf5234f)" style="fill: none; stroke: #be503b; stroke-width: 1.5; stroke-linecap: square"/>
   </g>
   <g id="line2d_49">
    <path d="M 54.691875 435.163241 
L 107.800346 428.647855 
L 125.503169 427.630087 
L 143.205993 437.145387 
L 160.908816 433.116025 
L 178.61164 431.359123 
L 196.314463 430.005992 
L 214.017287 413.009261 
L 231.72011 437.847814 
L 249.422934 420.035199 
L 267.125757 408.457667 
L 284.828581 414.010344 
L 302.531404 411.654461 
L 320.234228 421.785427 
L 337.937051 421.69533 
L 355.639875 392.004858 
L 373.342699 390.486548 
L 391.045522 401.171447 
L 408.748346 411.490951 
L 426.451169 404.935521 
L 444.153993 400.235434 
L 461.856816 406.256952 
L 479.55964 401.346637 
L 497.262463 390.820242 
L 550.370934 381.520176 
L 568.073757 350.853647 
L 585.776581 387.299765 
L 603.479404 374.452525 
L 621.182228 363.253736 
L 638.885051 363.510681 
L 656.587875 388.953221 
L 674.290699 448.087231 
L 691.993522 425.03728 
L 709.696346 390.663406 
L 727.399169 374.1522 
L 745.101993 376.504747 
L 762.804816 364.803748 
L 780.50764 369.700715 
L 798.210463 360.525784 
L 815.913287 356.850138 
L 833.61611 356.418004 
L 851.318934 326.023437 
L 869.021757 341.675379 
L 886.724581 337.444132 
L 904.427404 349.722423 
L 922.130228 347.408251 
L 939.833051 330.066146 
L 957.535875 323.108615 
" clip-path="url(#p70aaf5234f)" style="fill: none; stroke: #e2321d; stroke-width: 1.5; stroke-linecap: square"/>
   </g>
   <g id="line2d_50">
    <path d="M 54.691875 394.177209 
L 107.800346 357.939651 
L 125.503169 401.306593 
L 143.205993 372.925873 
L 160.908816 353.740105 
L 178.61164 360.569164 
L 196.314463 363.493997 
L 214.017287 383.075192 
L 231.72011 416.62651 
L 249.422934 373.459784 
L 267.125757 348.571177 
L 284.828581 339.519712 
L 302.531404 327.93217 
L 320.234228 347.134622 
L 337.937051 330.112863 
L 355.639875 342.826625 
L 373.342699 351.589444 
L 391.045522 299.035891 
L 408.748346 298.248372 
L 426.451169 250.228059 
L 444.153993 279.776711 
L 461.856816 304.036304 
L 479.55964 330.588378 
L 497.262463 296.464774 
L 550.370934 196.14118 
L 568.073757 189.006791 
L 585.776581 128.452911 
L 603.479404 238.562098 
L 621.182228 312.930932 
L 638.885051 299.683258 
L 656.587875 269.438854 
L 674.290699 341.133125 
L 691.993522 270.089558 
L 709.696346 256.665027 
L 727.399169 234.691241 
L 745.101993 177.409237 
L 762.804816 158.875842 
L 780.50764 212.890977 
L 798.210463 192.340399 
L 815.913287 136.661797 
L 833.61611 137.617832 
L 851.318934 117.372584 
L 869.021757 133.750312 
L 886.724581 48.26945 
L 904.427404 163.971358 
L 922.130228 69.23381 
L 939.833051 126.098696 
L 957.535875 103.86296 
" clip-path="url(#p70aaf5234f)" style="fill: none; stroke: #48b585; stroke-width: 6; stroke-linecap: square"/>
   </g>
   <g id="patch_3">
    <path d="M 54.691875 567.74175 
L 54.691875 24.14175 
" style="fill: none; stroke: #ffffff; stroke-linejoin: miter; stroke-linecap: square"/>
   </g>
   <g id="patch_4">
    <path d="M 957.535875 567.74175 
L 957.535875 24.14175 
" style="fill: none; stroke: #ffffff; stroke-linejoin: miter; stroke-linecap: square"/>
   </g>
   <g id="patch_5">
    <path d="M 54.691875 567.74175 
L 957.535875 567.74175 
" style="fill: none; stroke: #ffffff; stroke-linejoin: miter; stroke-linecap: square"/>
   </g>
   <g id="patch_6">
    <path d="M 54.691875 24.14175 
L 957.535875 24.14175 
" style="fill: none; stroke: #ffffff; stroke-linejoin: miter; stroke-linecap: square"/>
   </g>
   <g id="text_22">
    <!-- Potentially Ephemeral Enterprise Linux 8 and 9 Instances by Distribution -->
    <g transform="translate(54.691875 18.14175)scale(0.144 -0.144)">
     <defs>
      <path id="DejaVuSans-50" d="M 1259 4147 
L 1259 2394 
L 2053 2394 
Q 2494 2394 2734 2622 
Q 2975 2850 2975 3272 
Q 2975 3691 2734 3919 
Q 2494 4147 2053 4147 
L 1259 4147 
z
M 628 4666 
L 2053 4666 
Q 2838 4666 3239 4311 
Q 3641 3956 3641 3272 
Q 3641 2581 3239 2228 
Q 2838 1875 2053 1875 
L 1259 1875 
L 1259 0 
L 628 0 
L 628 4666 
z
" transform="scale(0.015625)"/>
      <path id="DejaVuSans-6f" d="M 1959 3097 
Q 1497 3097 1228 2736 
Q 959 2375 959 1747 
Q 959 1119 1226 758 
Q 1494 397 1959 397 
Q 2419 397 2687 759 
Q 2956 1122 2956 1747 
Q 2956 2369 2687 2733 
Q 2419 3097 1959 3097 
z
M 1959 3584 
Q 2709 3584 3137 3096 
Q 3566 2609 3566 1747 
Q 3566 888 3137 398 
Q 2709 -91 1959 -91 
Q 1206 -91 779 398 
Q 353 888 353 1747 
Q 353 2609 779 3096 
Q 1206 3584 1959 3584 
z
" transform="scale(0.015625)"/>
      <path id="DejaVuSans-69" d="M 603 3500 
L 1178 3500 
L 1178 0 
L 603 0 
L 603 3500 
z
M 603 4863 
L 1178 4863 
L 1178 4134 
L 603 4134 
L 603 4863 
z
" transform="scale(0.015625)"/>
      <path id="DejaVuSans-6c" d="M 603 4863 
L 1178 4863 
L 1178 0 
L 603 0 
L 603 4863 
z
" transform="scale(0.015625)"/>
      <path id="DejaVuSans-79" d="M 2059 -325 
Q 1816 -950 1584 -1140 
Q 1353 -1331 966 -1331 
L 506 -1331 
L 506 -850 
L 844 -850 
Q 1081 -850 1212 -737 
Q 1344 -625 1503 -206 
L 1606 56 
L 191 3500 
L 800 3500 
L 1894 763 
L 2988 3500 
L 3597 3500 
L 2059 -325 
z
" transform="scale(0.015625)"/>
      <path id="DejaVuSans-20" transform="scale(0.015625)"/>
      <path id="DejaVuSans-45" d="M 628 4666 
L 3578 4666 
L 3578 4134 
L 1259 4134 
L 1259 2753 
L 3481 2753 
L 3481 2222 
L 1259 2222 
L 1259 531 
L 3634 531 
L 3634 0 
L 628 0 
L 628 4666 
z
" transform="scale(0.015625)"/>
      <path id="DejaVuSans-70" d="M 1159 525 
L 1159 -1331 
L 581 -1331 
L 581 3500 
L 1159 3500 
L 1159 2969 
Q 1341 3281 1617 3432 
Q 1894 3584 2278 3584 
Q 2916 3584 3314 3078 
Q 3713 2572 3713 1747 
Q 3713 922 3314 415 
Q 2916 -91 2278 -91 
Q 1894 -91 1617 61 
Q 1341 213 1159 525 
z
M 3116 1747 
Q 3116 2381 2855 2742 
Q 2594 3103 2138 3103 
Q 1681 3103 1420 2742 
Q 1159 2381 1159 1747 
Q 1159 1113 1420 752 
Q 1681 391 2138 391 
Q 2594 391 2855 752 
Q 3116 1113 3116 1747 
z
" transform="scale(0.015625)"/>
      <path id="DejaVuSans-68" d="M 3513 2113 
L 3513 0 
L 2938 0 
L 2938 2094 
Q 2938 2591 2744 2837 
Q 2550 3084 2163 3084 
Q 1697 3084 1428 2787 
Q 1159 2491 1159 1978 
L 1159 0 
L 581 0 
L 581 4863 
L 1159 4863 
L 1159 2956 
Q 1366 3272 1645 3428 
Q 1925 3584 2291 3584 
Q 2894 3584 3203 3211 
Q 3513 2838 3513 2113 
z
" transform="scale(0.015625)"/>
      <path id="DejaVuSans-6d" d="M 3328 2828 
Q 3544 3216 3844 3400 
Q 4144 3584 4550 3584 
Q 5097 3584 5394 3201 
Q 5691 2819 5691 2113 
L 5691 0 
L 5113 0 
L 5113 2094 
Q 5113 2597 4934 2840 
Q 4756 3084 4391 3084 
Q 3944 3084 3684 2787 
Q 3425 2491 3425 1978 
L 3425 0 
L 2847 0 
L 2847 2094 
Q 2847 2600 2669 2842 
Q 2491 3084 2119 3084 
Q 1678 3084 1418 2786 
Q 1159 2488 1159 1978 
L 1159 0 
L 581 0 
L 581 3500 
L 1159 3500 
L 1159 2956 
Q 1356 3278 1631 3431 
Q 1906 3584 2284 3584 
Q 2666 3584 2933 3390 
Q 3200 3197 3328 2828 
z
" transform="scale(0.015625)"/>
      <path id="DejaVuSans-72" d="M 2631 2963 
Q 2534 3019 2420 3045 
Q 2306 3072 2169 3072 
Q 1681 3072 1420 2755 
Q 1159 2438 1159 1844 
L 1159 0 
L 581 0 
L 581 3500 
L 1159 3500 
L 1159 2956 
Q 1341 3275 1631 3429 
Q 1922 3584 2338 3584 
Q 2397 3584 2469 3576 
Q 2541 3569 2628 3553 
L 2631 2963 
z
" transform="scale(0.015625)"/>
      <path id="DejaVuSans-4c" d="M 628 4666 
L 1259 4666 
L 1259 531 
L 3531 531 
L 3531 0 
L 628 0 
L 628 4666 
z
" transform="scale(0.015625)"/>
      <path id="DejaVuSans-75" d="M 544 1381 
L 544 3500 
L 1119 3500 
L 1119 1403 
Q 1119 906 1312 657 
Q 1506 409 1894 409 
Q 2359 409 2629 706 
Q 2900 1003 2900 1516 
L 2900 3500 
L 3475 3500 
L 3475 0 
L 2900 0 
L 2900 538 
Q 2691 219 2414 64 
Q 2138 -91 1772 -91 
Q 1169 -91 856 284 
Q 544 659 544 1381 
z
M 1991 3584 
L 1991 3584 
z
" transform="scale(0.015625)"/>
      <path id="DejaVuSans-78" d="M 3513 3500 
L 2247 1797 
L 3578 0 
L 2900 0 
L 1881 1375 
L 863 0 
L 184 0 
L 1544 1831 
L 300 3500 
L 978 3500 
L 1906 2253 
L 2834 3500 
L 3513 3500 
z
" transform="scale(0.015625)"/>
      <path id="DejaVuSans-64" d="M 2906 2969 
L 2906 4863 
L 3481 4863 
L 3481 0 
L 2906 0 
L 2906 525 
Q 2725 213 2448 61 
Q 2172 -91 1784 -91 
Q 1150 -91 751 415 
Q 353 922 353 1747 
Q 353 2572 751 3078 
Q 1150 3584 1784 3584 
Q 2172 3584 2448 3432 
Q 2725 3281 2906 2969 
z
M 947 1747 
Q 947 1113 1208 752 
Q 1469 391 1925 391 
Q 2381 391 2643 752 
Q 2906 1113 2906 1747 
Q 2906 2381 2643 2742 
Q 2381 3103 1925 3103 
Q 1469 3103 1208 2742 
Q 947 2381 947 1747 
z
" transform="scale(0.015625)"/>
      <path id="DejaVuSans-62" d="M 3116 1747 
Q 3116 2381 2855 2742 
Q 2594 3103 2138 3103 
Q 1681 3103 1420 2742 
Q 1159 2381 1159 1747 
Q 1159 1113 1420 752 
Q 1681 391 2138 391 
Q 2594 391 2855 752 
Q 3116 1113 3116 1747 
z
M 1159 2969 
Q 1341 3281 1617 3432 
Q 1894 3584 2278 3584 
Q 2916 3584 3314 3078 
Q 3713 2572 3713 1747 
Q 3713 922 3314 415 
Q 2916 -91 2278 -91 
Q 1894 -91 1617 61 
Q 1341 213 1159 525 
L 1159 0 
L 581 0 
L 581 4863 
L 1159 4863 
L 1159 2969 
z
" transform="scale(0.015625)"/>
     </defs>
     <use xlink:href="#DejaVuSans-50"/>
     <use xlink:href="#DejaVuSans-6f" x="56.677734"/>
     <use xlink:href="#DejaVuSans-74" x="117.859375"/>
     <use xlink:href="#DejaVuSans-65" x="157.068359"/>
     <use xlink:href="#DejaVuSans-6e" x="218.591797"/>
     <use xlink:href="#DejaVuSans-74" x="281.970703"/>
     <use xlink:href="#DejaVuSans-69" x="321.179688"/>
     <use xlink:href="#DejaVuSans-61" x="348.962891"/>
     <use xlink:href="#DejaVuSans-6c" x="410.242188"/>
     <use xlink:href="#DejaVuSans-6c" x="438.025391"/>
     <use xlink:href="#DejaVuSans-79" x="465.808594"/>
     <use xlink:href="#DejaVuSans-20" x="524.988281"/>
     <use xlink:href="#DejaVuSans-45" x="556.775391"/>
     <use xlink:href="#DejaVuSans-70" x="619.958984"/>
     <use xlink:href="#DejaVuSans-68" x="683.435547"/>
     <use xlink:href="#DejaVuSans-65" x="746.814453"/>
     <use xlink:href="#DejaVuSans-6d" x="808.337891"/>
     <use xlink:href="#DejaVuSans-65" x="905.75"/>
     <use xlink:href="#DejaVuSans-72" x="967.273438"/>
     <use xlink:href="#DejaVuSans-61" x="1008.386719"/>
     <use xlink:href="#DejaVuSans-6c" x="1069.666016"/>
     <use xlink:href="#DejaVuSans-20" x="1097.449219"/>
     <use xlink:href="#DejaVuSans-45" x="1129.236328"/>
     <use xlink:href="#DejaVuSans-6e" x="1192.419922"/>
     <use xlink:href="#DejaVuSans-74" x="1255.798828"/>
     <use xlink:href="#DejaVuSans-65" x="1295.007812"/>
     <use xlink:href="#DejaVuSans-72" x="1356.53125"/>
     <use xlink:href="#DejaVuSans-70" x="1397.644531"/>
     <use xlink:href="#DejaVuSans-72" x="1461.121094"/>
     <use xlink:href="#DejaVuSans-69" x="1502.234375"/>
     <use xlink:href="#DejaVuSans-73" x="1530.017578"/>
     <use xlink:href="#DejaVuSans-65" x="1582.117188"/>
     <use xlink:href="#DejaVuSans-20" x="1643.640625"/>
     <use xlink:href="#DejaVuSans-4c" x="1675.427734"/>
     <use xlink:href="#DejaVuSans-69" x="1731.140625"/>
     <use xlink:href="#DejaVuSans-6e" x="1758.923828"/>
     <use xlink:href="#DejaVuSans-75" x="1822.302734"/>
     <use xlink:href="#DejaVuSans-78" x="1885.681641"/>
     <use xlink:href="#DejaVuSans-20" x="1944.861328"/>
     <use xlink:href="#DejaVuSans-38" x="1976.648438"/>
     <use xlink:href="#DejaVuSans-20" x="2040.271484"/>
     <use xlink:href="#DejaVuSans-61" x="2072.058594"/>
     <use xlink:href="#DejaVuSans-6e" x="2133.337891"/>
     <use xlink:href="#DejaVuSans-64" x="2196.716797"/>
     <use xlink:href="#DejaVuSans-20" x="2260.193359"/>
     <use xlink:href="#DejaVuSans-39" x="2291.980469"/>
     <use xlink:href="#DejaVuSans-20" x="2355.603516"/>
     <use xlink:href="#DejaVuSans-49" x="2387.390625"/>
     <use xlink:href="#DejaVuSans-6e" x="2416.882812"/>
     <use xlink:href="#DejaVuSans-73" x="2480.261719"/>
     <use xlink:href="#DejaVuSans-74" x="2532.361328"/>
     <use xlink:href="#DejaVuSans-61" x="2571.570312"/>
     <use xlink:href="#DejaVuSans-6e" x="2632.849609"/>
     <use xlink:href="#DejaVuSans-63" x="2696.228516"/>
     <use xlink:href="#DejaVuSans-65" x="2751.208984"/>
     <use xlink:href="#DejaVuSans-73" x="2812.732422"/>
     <use xlink:href="#DejaVuSans-20" x="2864.832031"/>
     <use xlink:href="#DejaVuSans-62" x="2896.619141"/>
     <use xlink:href="#DejaVuSans-79" x="2960.095703"/>
     <use xlink:href="#DejaVuSans-20" x="3019.275391"/>
     <use xlink:href="#DejaVuSans-44" x="3051.0625"/>
     <use xlink:href="#DejaVuSans-69" x="3128.064453"/>
     <use xlink:href="#DejaVuSans-73" x="3155.847656"/>
     <use xlink:href="#DejaVuSans-74" x="3207.947266"/>
     <use xlink:href="#DejaVuSans-72" x="3247.15625"/>
     <use xlink:href="#DejaVuSans-69" x="3288.269531"/>
     <use xlink:href="#DejaVuSans-62" x="3316.052734"/>
     <use xlink:href="#DejaVuSans-75" x="3379.529297"/>
     <use xlink:href="#DejaVuSans-74" x="3442.908203"/>
     <use xlink:href="#DejaVuSans-69" x="3482.117188"/>
     <use xlink:href="#DejaVuSans-6f" x="3509.900391"/>
     <use xlink:href="#DejaVuSans-6e" x="3571.082031"/>
    </g>
   </g>
   <g id="text_23">
    <!-- 2024-04-25 11:54 UTC -->
    <g transform="translate(794.653875 18.14175)scale(0.144 -0.144)">
     <defs>
      <path id="DejaVuSans-3a" d="M 750 794 
L 1409 794 
L 1409 0 
L 750 0 
L 750 794 
z
M 750 3309 
L 1409 3309 
L 1409 2516 
L 750 2516 
L 750 3309 
z
" transform="scale(0.015625)"/>
      <path id="DejaVuSans-55" d="M 556 4666 
L 1191 4666 
L 1191 1831 
Q 1191 1081 1462 751 
Q 1734 422 2344 422 
Q 2950 422 3222 751 
Q 3494 1081 3494 1831 
L 3494 4666 
L 4128 4666 
L 4128 1753 
Q 4128 841 3676 375 
Q 3225 -91 2344 -91 
Q 1459 -91 1007 375 
Q 556 841 556 1753 
L 556 4666 
z
" transform="scale(0.015625)"/>
      <path id="DejaVuSans-54" d="M -19 4666 
L 3928 4666 
L 3928 4134 
L 2272 4134 
L 2272 0 
L 1638 0 
L 1638 4134 
L -19 4134 
L -19 4666 
z
" transform="scale(0.015625)"/>
      <path id="DejaVuSans-43" d="M 4122 4306 
L 4122 3641 
Q 3803 3938 3442 4084 
Q 3081 4231 2675 4231 
Q 1875 4231 1450 3742 
Q 1025 3253 1025 2328 
Q 1025 1406 1450 917 
Q 1875 428 2675 428 
Q 3081 428 3442 575 
Q 3803 722 4122 1019 
L 4122 359 
Q 3791 134 3420 21 
Q 3050 -91 2638 -91 
Q 1578 -91 968 557 
Q 359 1206 359 2328 
Q 359 3453 968 4101 
Q 1578 4750 2638 4750 
Q 3056 4750 3426 4639 
Q 3797 4528 4122 4306 
z
" transform="scale(0.015625)"/>
     </defs>
     <use xlink:href="#DejaVuSans-32"/>
     <use xlink:href="#DejaVuSans-30" x="63.623047"/>
     <use xlink:href="#DejaVuSans-32" x="127.246094"/>
     <use xlink:href="#DejaVuSans-34" x="190.869141"/>
     <use xlink:href="#DejaVuSans-2d" x="254.492188"/>
     <use xlink:href="#DejaVuSans-30" x="290.576172"/>
     <use xlink:href="#DejaVuSans-34" x="354.199219"/>
     <use xlink:href="#DejaVuSans-2d" x="417.822266"/>
     <use xlink:href="#DejaVuSans-32" x="453.90625"/>
     <use xlink:href="#DejaVuSans-35" x="517.529297"/>
     <use xlink:href="#DejaVuSans-20" x="581.152344"/>
     <use xlink:href="#DejaVuSans-31" x="612.939453"/>
     <use xlink:href="#DejaVuSans-31" x="676.5625"/>
     <use xlink:href="#DejaVuSans-3a" x="740.185547"/>
     <use xlink:href="#DejaVuSans-35" x="773.876953"/>
     <use xlink:href="#DejaVuSans-34" x="837.5"/>
     <use xlink:href="#DejaVuSans-20" x="901.123047"/>
     <use xlink:href="#DejaVuSans-55" x="932.910156"/>
     <use xlink:href="#DejaVuSans-54" x="1006.103516"/>
     <use xlink:href="#DejaVuSans-43" x="1061.3125"/>
    </g>
   </g>
   <g id="legend_1">
    <g id="patch_7">
     <path d="M 61.691875 134.888625 
L 170.660625 134.888625 
Q 172.660625 134.888625 172.660625 132.888625 
L 172.660625 31.14175 
Q 172.660625 29.14175 170.660625 29.14175 
L 61.691875 29.14175 
Q 59.691875 29.14175 59.691875 31.14175 
L 59.691875 132.888625 
Q 59.691875 134.888625 61.691875 134.888625 
z
" style="fill: #e5e5e5; opacity: 0.8; stroke: #cccccc; stroke-width: 0.5; stroke-linejoin: miter"/>
    </g>
    <g id="text_24">
     <!-- Distribution -->
     <g transform="translate(87.0075 40.740187)scale(0.1 -0.1)">
      <use xlink:href="#DejaVuSans-44"/>
      <use xlink:href="#DejaVuSans-69" x="77.001953"/>
      <use xlink:href="#DejaVuSans-73" x="104.785156"/>
      <use xlink:href="#DejaVuSans-74" x="156.884766"/>
      <use xlink:href="#DejaVuSans-72" x="196.09375"/>
      <use xlink:href="#DejaVuSans-69" x="237.207031"/>
      <use xlink:href="#DejaVuSans-62" x="264.990234"/>
      <use xlink:href="#DejaVuSans-75" x="328.466797"/>
      <use xlink:href="#DejaVuSans-74" x="391.845703"/>
      <use xlink:href="#DejaVuSans-69" x="431.054688"/>
      <use xlink:href="#DejaVuSans-6f" x="458.837891"/>
      <use xlink:href="#DejaVuSans-6e" x="520.019531"/>
     </g>
    </g>
    <g id="line2d_51">
     <path d="M 63.691875 51.918312 
L 73.691875 51.918312 
L 83.691875 51.918312 
" style="fill: none; stroke: #4ac1fa; stroke-width: 1.5; stroke-linecap: square"/>
    </g>
    <g id="text_25">
     <!-- AlmaLinux -->
     <g transform="translate(91.691875 55.418312)scale(0.1 -0.1)">
      <defs>
       <path id="DejaVuSans-41" d="M 2188 4044 
L 1331 1722 
L 3047 1722 
L 2188 4044 
z
M 1831 4666 
L 2547 4666 
L 4325 0 
L 3669 0 
L 3244 1197 
L 1141 1197 
L 716 0 
L 50 0 
L 1831 4666 
z
" transform="scale(0.015625)"/>
      </defs>
      <use xlink:href="#DejaVuSans-41"/>
      <use xlink:href="#DejaVuSans-6c" x="68.408203"/>
      <use xlink:href="#DejaVuSans-6d" x="96.191406"/>
      <use xlink:href="#DejaVuSans-61" x="193.603516"/>
      <use xlink:href="#DejaVuSans-4c" x="254.882812"/>
      <use xlink:href="#DejaVuSans-69" x="310.595703"/>
      <use xlink:href="#DejaVuSans-6e" x="338.378906"/>
      <use xlink:href="#DejaVuSans-75" x="401.757812"/>
      <use xlink:href="#DejaVuSans-78" x="465.136719"/>
     </g>
    </g>
    <g id="line2d_52">
     <path d="M 63.691875 66.596437 
L 73.691875 66.596437 
L 83.691875 66.596437 
" style="fill: none; stroke: #e9a942; stroke-width: 1.5; stroke-linecap: square"/>
    </g>
    <g id="text_26">
     <!-- CentOS Legacy -->
     <g transform="translate(91.691875 70.096437)scale(0.1 -0.1)">
      <defs>
       <path id="DejaVuSans-4f" d="M 2522 4238 
Q 1834 4238 1429 3725 
Q 1025 3213 1025 2328 
Q 1025 1447 1429 934 
Q 1834 422 2522 422 
Q 3209 422 3611 934 
Q 4013 1447 4013 2328 
Q 4013 3213 3611 3725 
Q 3209 4238 2522 4238 
z
M 2522 4750 
Q 3503 4750 4090 4092 
Q 4678 3434 4678 2328 
Q 4678 1225 4090 567 
Q 3503 -91 2522 -91 
Q 1538 -91 948 565 
Q 359 1222 359 2328 
Q 359 3434 948 4092 
Q 1538 4750 2522 4750 
z
" transform="scale(0.015625)"/>
       <path id="DejaVuSans-53" d="M 3425 4513 
L 3425 3897 
Q 3066 4069 2747 4153 
Q 2428 4238 2131 4238 
Q 1616 4238 1336 4038 
Q 1056 3838 1056 3469 
Q 1056 3159 1242 3001 
Q 1428 2844 1947 2747 
L 2328 2669 
Q 3034 2534 3370 2195 
Q 3706 1856 3706 1288 
Q 3706 609 3251 259 
Q 2797 -91 1919 -91 
Q 1588 -91 1214 -16 
Q 841 59 441 206 
L 441 856 
Q 825 641 1194 531 
Q 1563 422 1919 422 
Q 2459 422 2753 634 
Q 3047 847 3047 1241 
Q 3047 1584 2836 1778 
Q 2625 1972 2144 2069 
L 1759 2144 
Q 1053 2284 737 2584 
Q 422 2884 422 3419 
Q 422 4038 858 4394 
Q 1294 4750 2059 4750 
Q 2388 4750 2728 4690 
Q 3069 4631 3425 4513 
z
" transform="scale(0.015625)"/>
       <path id="DejaVuSans-67" d="M 2906 1791 
Q 2906 2416 2648 2759 
Q 2391 3103 1925 3103 
Q 1463 3103 1205 2759 
Q 947 2416 947 1791 
Q 947 1169 1205 825 
Q 1463 481 1925 481 
Q 2391 481 2648 825 
Q 2906 1169 2906 1791 
z
M 3481 434 
Q 3481 -459 3084 -895 
Q 2688 -1331 1869 -1331 
Q 1566 -1331 1297 -1286 
Q 1028 -1241 775 -1147 
L 775 -588 
Q 1028 -725 1275 -790 
Q 1522 -856 1778 -856 
Q 2344 -856 2625 -561 
Q 2906 -266 2906 331 
L 2906 616 
Q 2728 306 2450 153 
Q 2172 0 1784 0 
Q 1141 0 747 490 
Q 353 981 353 1791 
Q 353 2603 747 3093 
Q 1141 3584 1784 3584 
Q 2172 3584 2450 3431 
Q 2728 3278 2906 2969 
L 2906 3500 
L 3481 3500 
L 3481 434 
z
" transform="scale(0.015625)"/>
      </defs>
      <use xlink:href="#DejaVuSans-43"/>
      <use xlink:href="#DejaVuSans-65" x="69.824219"/>
      <use xlink:href="#DejaVuSans-6e" x="131.347656"/>
      <use xlink:href="#DejaVuSans-74" x="194.726562"/>
      <use xlink:href="#DejaVuSans-4f" x="233.935547"/>
      <use xlink:href="#DejaVuSans-53" x="312.646484"/>
      <use xlink:href="#DejaVuSans-20" x="376.123047"/>
      <use xlink:href="#DejaVuSans-4c" x="407.910156"/>
      <use xlink:href="#DejaVuSans-65" x="461.873047"/>
      <use xlink:href="#DejaVuSans-67" x="523.396484"/>
      <use xlink:href="#DejaVuSans-61" x="586.873047"/>
      <use xlink:href="#DejaVuSans-63" x="648.152344"/>
      <use xlink:href="#DejaVuSans-79" x="703.132812"/>
     </g>
    </g>
    <g id="line2d_53">
     <path d="M 63.691875 81.274563 
L 73.691875 81.274563 
L 83.691875 81.274563 
" style="fill: none; stroke: #9a5689; stroke-width: 1.5; stroke-linecap: square"/>
    </g>
    <g id="text_27">
     <!-- CentOS Stream -->
     <g transform="translate(91.691875 84.774563)scale(0.1 -0.1)">
      <use xlink:href="#DejaVuSans-43"/>
      <use xlink:href="#DejaVuSans-65" x="69.824219"/>
      <use xlink:href="#DejaVuSans-6e" x="131.347656"/>
      <use xlink:href="#DejaVuSans-74" x="194.726562"/>
      <use xlink:href="#DejaVuSans-4f" x="233.935547"/>
      <use xlink:href="#DejaVuSans-53" x="312.646484"/>
      <use xlink:href="#DejaVuSans-20" x="376.123047"/>
      <use xlink:href="#DejaVuSans-53" x="407.910156"/>
      <use xlink:href="#DejaVuSans-74" x="471.386719"/>
      <use xlink:href="#DejaVuSans-72" x="510.595703"/>
      <use xlink:href="#DejaVuSans-65" x="549.458984"/>
      <use xlink:href="#DejaVuSans-61" x="610.982422"/>
      <use xlink:href="#DejaVuSans-6d" x="672.261719"/>
     </g>
    </g>
    <g id="line2d_54">
     <path d="M 63.691875 95.952687 
L 73.691875 95.952687 
L 83.691875 95.952687 
" style="fill: none; stroke: #be503b; stroke-width: 1.5; stroke-linecap: square"/>
    </g>
    <g id="text_28">
     <!-- Oracle -->
     <g transform="translate(91.691875 99.452687)scale(0.1 -0.1)">
      <use xlink:href="#DejaVuSans-4f"/>
      <use xlink:href="#DejaVuSans-72" x="78.710938"/>
      <use xlink:href="#DejaVuSans-61" x="119.824219"/>
      <use xlink:href="#DejaVuSans-63" x="181.103516"/>
      <use xlink:href="#DejaVuSans-6c" x="236.083984"/>
      <use xlink:href="#DejaVuSans-65" x="263.867188"/>
     </g>
    </g>
    <g id="line2d_55">
     <path d="M 63.691875 110.630812 
L 73.691875 110.630812 
L 83.691875 110.630812 
" style="fill: none; stroke: #e2321d; stroke-width: 1.5; stroke-linecap: square"/>
    </g>
    <g id="text_29">
     <!-- RHEL -->
     <g transform="translate(91.691875 114.130812)scale(0.1 -0.1)">
      <defs>
       <path id="DejaVuSans-52" d="M 2841 2188 
Q 3044 2119 3236 1894 
Q 3428 1669 3622 1275 
L 4263 0 
L 3584 0 
L 2988 1197 
Q 2756 1666 2539 1819 
Q 2322 1972 1947 1972 
L 1259 1972 
L 1259 0 
L 628 0 
L 628 4666 
L 2053 4666 
Q 2853 4666 3247 4331 
Q 3641 3997 3641 3322 
Q 3641 2881 3436 2590 
Q 3231 2300 2841 2188 
z
M 1259 4147 
L 1259 2491 
L 2053 2491 
Q 2509 2491 2742 2702 
Q 2975 2913 2975 3322 
Q 2975 3731 2742 3939 
Q 2509 4147 2053 4147 
L 1259 4147 
z
" transform="scale(0.015625)"/>
       <path id="DejaVuSans-48" d="M 628 4666 
L 1259 4666 
L 1259 2753 
L 3553 2753 
L 3553 4666 
L 4184 4666 
L 4184 0 
L 3553 0 
L 3553 2222 
L 1259 2222 
L 1259 0 
L 628 0 
L 628 4666 
z
" transform="scale(0.015625)"/>
      </defs>
      <use xlink:href="#DejaVuSans-52"/>
      <use xlink:href="#DejaVuSans-48" x="69.482422"/>
      <use xlink:href="#DejaVuSans-45" x="144.677734"/>
      <use xlink:href="#DejaVuSans-4c" x="207.861328"/>
     </g>
    </g>
    <g id="line2d_56">
     <path d="M 63.691875 125.308937 
L 73.691875 125.308937 
L 83.691875 125.308937 
" style="fill: none; stroke: #48b585; stroke-width: 6; stroke-linecap: square"/>
    </g>
    <g id="text_30">
     <!-- Rocky Linux -->
     <g transform="translate(91.691875 128.808937)scale(0.1 -0.1)">
      <use xlink:href="#DejaVuSans-52"/>
      <use xlink:href="#DejaVuSans-6f" x="64.982422"/>
      <use xlink:href="#DejaVuSans-63" x="126.164062"/>
      <use xlink:href="#DejaVuSans-6b" x="181.144531"/>
      <use xlink:href="#DejaVuSans-79" x="235.429688"/>
      <use xlink:href="#DejaVuSans-20" x="294.609375"/>
      <use xlink:href="#DejaVuSans-4c" x="326.396484"/>
      <use xlink:href="#DejaVuSans-69" x="382.109375"/>
      <use xlink:href="#DejaVuSans-6e" x="409.892578"/>
      <use xlink:href="#DejaVuSans-75" x="473.271484"/>
      <use xlink:href="#DejaVuSans-78" x="536.650391"/>
     </g>
    </g>
   </g>
  </g>
 </g>
 <defs>
  <clipPath id="p70aaf5234f">
   <rect x="54.691875" y="24.14175" width="902.844" height="543.6"/>
  </clipPath>
 </defs>
</svg>
