<?xml version="1.0" encoding="utf-8" standalone="no"?>
<!DOCTYPE svg PUBLIC "-//W3C//DTD SVG 1.1//EN"
  "http://www.w3.org/Graphics/SVG/1.1/DTD/svg11.dtd">
<svg xmlns:xlink="http://www.w3.org/1999/xlink" width="964.735875pt" height="633.943878pt" viewBox="0 0 964.735875 633.943878" xmlns="http://www.w3.org/2000/svg" version="1.1">
 <metadata>
  <rdf:RDF xmlns:dc="http://purl.org/dc/elements/1.1/" xmlns:cc="http://creativecommons.org/ns#" xmlns:rdf="http://www.w3.org/1999/02/22-rdf-syntax-ns#">
   <cc:Work>
    <dc:type rdf:resource="http://purl.org/dc/dcmitype/StillImage"/>
    <dc:date>2023-10-26T11:55:23.837705</dc:date>
    <dc:format>image/svg+xml</dc:format>
    <dc:creator>
     <cc:Agent>
      <dc:title>Matplotlib v3.5.1, https://matplotlib.org/</dc:title>
     </cc:Agent>
    </dc:creator>
   </cc:Work>
  </rdf:RDF>
 </metadata>
 <defs>
  <style type="text/css">*{stroke-linejoin: round; stroke-linecap: butt}</style>
 </defs>
 <g id="figure_1">
  <g id="patch_1">
   <path d="M 0 633.943878 
L 964.735875 633.943878 
L 964.735875 0 
L 0 0 
z
" style="fill: #ffffff"/>
  </g>
  <g id="axes_1">
   <g id="patch_2">
    <path d="M 54.691875 567.74175 
L 957.535875 567.74175 
L 957.535875 24.14175 
L 54.691875 24.14175 
z
" style="fill: #e5e5e5"/>
   </g>
   <g id="matplotlib.axis_1">
    <g id="xtick_1">
     <g id="line2d_1">
      <path d="M 77.452648 567.74175 
L 77.452648 24.14175 
" clip-path="url(#peb26639ca6)" style="fill: none; stroke: #ffffff; stroke-width: 0.8; stroke-linecap: square"/>
     </g>
     <g id="line2d_2">
      <defs>
       <path id="m579e8686c1" d="M 0 0 
L 0 3.5 
" style="stroke: #555555; stroke-width: 0.8"/>
      </defs>
      <g>
       <use xlink:href="#m579e8686c1" x="77.452648" y="567.74175" style="fill: #555555; stroke: #555555; stroke-width: 0.8"/>
      </g>
     </g>
     <g id="text_1">
      <!-- 2022-11 -->
      <g style="fill: #555555" transform="translate(64.631366 609.659567)rotate(-45)scale(0.1 -0.1)">
       <defs>
        <path id="DejaVuSans-32" d="M 1228 531 
L 3431 531 
L 3431 0 
L 469 0 
L 469 531 
Q 828 903 1448 1529 
Q 2069 2156 2228 2338 
Q 2531 2678 2651 2914 
Q 2772 3150 2772 3378 
Q 2772 3750 2511 3984 
Q 2250 4219 1831 4219 
Q 1534 4219 1204 4116 
Q 875 4013 500 3803 
L 500 4441 
Q 881 4594 1212 4672 
Q 1544 4750 1819 4750 
Q 2544 4750 2975 4387 
Q 3406 4025 3406 3419 
Q 3406 3131 3298 2873 
Q 3191 2616 2906 2266 
Q 2828 2175 2409 1742 
Q 1991 1309 1228 531 
z
" transform="scale(0.015625)"/>
        <path id="DejaVuSans-30" d="M 2034 4250 
Q 1547 4250 1301 3770 
Q 1056 3291 1056 2328 
Q 1056 1369 1301 889 
Q 1547 409 2034 409 
Q 2525 409 2770 889 
Q 3016 1369 3016 2328 
Q 3016 3291 2770 3770 
Q 2525 4250 2034 4250 
z
M 2034 4750 
Q 2819 4750 3233 4129 
Q 3647 3509 3647 2328 
Q 3647 1150 3233 529 
Q 2819 -91 2034 -91 
Q 1250 -91 836 529 
Q 422 1150 422 2328 
Q 422 3509 836 4129 
Q 1250 4750 2034 4750 
z
" transform="scale(0.015625)"/>
        <path id="DejaVuSans-2d" d="M 313 2009 
L 1997 2009 
L 1997 1497 
L 313 1497 
L 313 2009 
z
" transform="scale(0.015625)"/>
        <path id="DejaVuSans-31" d="M 794 531 
L 1825 531 
L 1825 4091 
L 703 3866 
L 703 4441 
L 1819 4666 
L 2450 4666 
L 2450 531 
L 3481 531 
L 3481 0 
L 794 0 
L 794 531 
z
" transform="scale(0.015625)"/>
       </defs>
       <use xlink:href="#DejaVuSans-32"/>
       <use xlink:href="#DejaVuSans-30" x="63.623047"/>
       <use xlink:href="#DejaVuSans-32" x="127.246094"/>
       <use xlink:href="#DejaVuSans-32" x="190.869141"/>
       <use xlink:href="#DejaVuSans-2d" x="254.492188"/>
       <use xlink:href="#DejaVuSans-31" x="290.576172"/>
       <use xlink:href="#DejaVuSans-31" x="354.199219"/>
      </g>
     </g>
    </g>
    <g id="xtick_2">
     <g id="line2d_3">
      <path d="M 153.321892 567.74175 
L 153.321892 24.14175 
" clip-path="url(#peb26639ca6)" style="fill: none; stroke: #ffffff; stroke-width: 0.8; stroke-linecap: square"/>
     </g>
     <g id="line2d_4">
      <g>
       <use xlink:href="#m579e8686c1" x="153.321892" y="567.74175" style="fill: #555555; stroke: #555555; stroke-width: 0.8"/>
      </g>
     </g>
     <g id="text_2">
      <!-- 2022-12 -->
      <g style="fill: #555555" transform="translate(140.50061 609.659567)rotate(-45)scale(0.1 -0.1)">
       <use xlink:href="#DejaVuSans-32"/>
       <use xlink:href="#DejaVuSans-30" x="63.623047"/>
       <use xlink:href="#DejaVuSans-32" x="127.246094"/>
       <use xlink:href="#DejaVuSans-32" x="190.869141"/>
       <use xlink:href="#DejaVuSans-2d" x="254.492188"/>
       <use xlink:href="#DejaVuSans-31" x="290.576172"/>
       <use xlink:href="#DejaVuSans-32" x="354.199219"/>
      </g>
     </g>
    </g>
    <g id="xtick_3">
     <g id="line2d_5">
      <path d="M 231.72011 567.74175 
L 231.72011 24.14175 
" clip-path="url(#peb26639ca6)" style="fill: none; stroke: #ffffff; stroke-width: 0.8; stroke-linecap: square"/>
     </g>
     <g id="line2d_6">
      <g>
       <use xlink:href="#m579e8686c1" x="231.72011" y="567.74175" style="fill: #555555; stroke: #555555; stroke-width: 0.8"/>
      </g>
     </g>
     <g id="text_3">
      <!-- 2023-01 -->
      <g style="fill: #555555" transform="translate(218.898828 609.659567)rotate(-45)scale(0.1 -0.1)">
       <defs>
        <path id="DejaVuSans-33" d="M 2597 2516 
Q 3050 2419 3304 2112 
Q 3559 1806 3559 1356 
Q 3559 666 3084 287 
Q 2609 -91 1734 -91 
Q 1441 -91 1130 -33 
Q 819 25 488 141 
L 488 750 
Q 750 597 1062 519 
Q 1375 441 1716 441 
Q 2309 441 2620 675 
Q 2931 909 2931 1356 
Q 2931 1769 2642 2001 
Q 2353 2234 1838 2234 
L 1294 2234 
L 1294 2753 
L 1863 2753 
Q 2328 2753 2575 2939 
Q 2822 3125 2822 3475 
Q 2822 3834 2567 4026 
Q 2313 4219 1838 4219 
Q 1578 4219 1281 4162 
Q 984 4106 628 3988 
L 628 4550 
Q 988 4650 1302 4700 
Q 1616 4750 1894 4750 
Q 2613 4750 3031 4423 
Q 3450 4097 3450 3541 
Q 3450 3153 3228 2886 
Q 3006 2619 2597 2516 
z
" transform="scale(0.015625)"/>
       </defs>
       <use xlink:href="#DejaVuSans-32"/>
       <use xlink:href="#DejaVuSans-30" x="63.623047"/>
       <use xlink:href="#DejaVuSans-32" x="127.246094"/>
       <use xlink:href="#DejaVuSans-33" x="190.869141"/>
       <use xlink:href="#DejaVuSans-2d" x="254.492188"/>
       <use xlink:href="#DejaVuSans-30" x="290.576172"/>
       <use xlink:href="#DejaVuSans-31" x="354.199219"/>
      </g>
     </g>
    </g>
    <g id="xtick_4">
     <g id="line2d_7">
      <path d="M 310.118329 567.74175 
L 310.118329 24.14175 
" clip-path="url(#peb26639ca6)" style="fill: none; stroke: #ffffff; stroke-width: 0.8; stroke-linecap: square"/>
     </g>
     <g id="line2d_8">
      <g>
       <use xlink:href="#m579e8686c1" x="310.118329" y="567.74175" style="fill: #555555; stroke: #555555; stroke-width: 0.8"/>
      </g>
     </g>
     <g id="text_4">
      <!-- 2023-02 -->
      <g style="fill: #555555" transform="translate(297.297047 609.659567)rotate(-45)scale(0.1 -0.1)">
       <use xlink:href="#DejaVuSans-32"/>
       <use xlink:href="#DejaVuSans-30" x="63.623047"/>
       <use xlink:href="#DejaVuSans-32" x="127.246094"/>
       <use xlink:href="#DejaVuSans-33" x="190.869141"/>
       <use xlink:href="#DejaVuSans-2d" x="254.492188"/>
       <use xlink:href="#DejaVuSans-30" x="290.576172"/>
       <use xlink:href="#DejaVuSans-32" x="354.199219"/>
      </g>
     </g>
    </g>
    <g id="xtick_5">
     <g id="line2d_9">
      <path d="M 380.929623 567.74175 
L 380.929623 24.14175 
" clip-path="url(#peb26639ca6)" style="fill: none; stroke: #ffffff; stroke-width: 0.8; stroke-linecap: square"/>
     </g>
     <g id="line2d_10">
      <g>
       <use xlink:href="#m579e8686c1" x="380.929623" y="567.74175" style="fill: #555555; stroke: #555555; stroke-width: 0.8"/>
      </g>
     </g>
     <g id="text_5">
      <!-- 2023-03 -->
      <g style="fill: #555555" transform="translate(368.108341 609.659567)rotate(-45)scale(0.1 -0.1)">
       <use xlink:href="#DejaVuSans-32"/>
       <use xlink:href="#DejaVuSans-30" x="63.623047"/>
       <use xlink:href="#DejaVuSans-32" x="127.246094"/>
       <use xlink:href="#DejaVuSans-33" x="190.869141"/>
       <use xlink:href="#DejaVuSans-2d" x="254.492188"/>
       <use xlink:href="#DejaVuSans-30" x="290.576172"/>
       <use xlink:href="#DejaVuSans-33" x="354.199219"/>
      </g>
     </g>
    </g>
    <g id="xtick_6">
     <g id="line2d_11">
      <path d="M 459.327841 567.74175 
L 459.327841 24.14175 
" clip-path="url(#peb26639ca6)" style="fill: none; stroke: #ffffff; stroke-width: 0.8; stroke-linecap: square"/>
     </g>
     <g id="line2d_12">
      <g>
       <use xlink:href="#m579e8686c1" x="459.327841" y="567.74175" style="fill: #555555; stroke: #555555; stroke-width: 0.8"/>
      </g>
     </g>
     <g id="text_6">
      <!-- 2023-04 -->
      <g style="fill: #555555" transform="translate(446.506559 609.659567)rotate(-45)scale(0.1 -0.1)">
       <defs>
        <path id="DejaVuSans-34" d="M 2419 4116 
L 825 1625 
L 2419 1625 
L 2419 4116 
z
M 2253 4666 
L 3047 4666 
L 3047 1625 
L 3713 1625 
L 3713 1100 
L 3047 1100 
L 3047 0 
L 2419 0 
L 2419 1100 
L 313 1100 
L 313 1709 
L 2253 4666 
z
" transform="scale(0.015625)"/>
       </defs>
       <use xlink:href="#DejaVuSans-32"/>
       <use xlink:href="#DejaVuSans-30" x="63.623047"/>
       <use xlink:href="#DejaVuSans-32" x="127.246094"/>
       <use xlink:href="#DejaVuSans-33" x="190.869141"/>
       <use xlink:href="#DejaVuSans-2d" x="254.492188"/>
       <use xlink:href="#DejaVuSans-30" x="290.576172"/>
       <use xlink:href="#DejaVuSans-34" x="354.199219"/>
      </g>
     </g>
    </g>
    <g id="xtick_7">
     <g id="line2d_13">
      <path d="M 535.197085 567.74175 
L 535.197085 24.14175 
" clip-path="url(#peb26639ca6)" style="fill: none; stroke: #ffffff; stroke-width: 0.8; stroke-linecap: square"/>
     </g>
     <g id="line2d_14">
      <g>
       <use xlink:href="#m579e8686c1" x="535.197085" y="567.74175" style="fill: #555555; stroke: #555555; stroke-width: 0.8"/>
      </g>
     </g>
     <g id="text_7">
      <!-- 2023-05 -->
      <g style="fill: #555555" transform="translate(522.375803 609.659567)rotate(-45)scale(0.1 -0.1)">
       <defs>
        <path id="DejaVuSans-35" d="M 691 4666 
L 3169 4666 
L 3169 4134 
L 1269 4134 
L 1269 2991 
Q 1406 3038 1543 3061 
Q 1681 3084 1819 3084 
Q 2600 3084 3056 2656 
Q 3513 2228 3513 1497 
Q 3513 744 3044 326 
Q 2575 -91 1722 -91 
Q 1428 -91 1123 -41 
Q 819 9 494 109 
L 494 744 
Q 775 591 1075 516 
Q 1375 441 1709 441 
Q 2250 441 2565 725 
Q 2881 1009 2881 1497 
Q 2881 1984 2565 2268 
Q 2250 2553 1709 2553 
Q 1456 2553 1204 2497 
Q 953 2441 691 2322 
L 691 4666 
z
" transform="scale(0.015625)"/>
       </defs>
       <use xlink:href="#DejaVuSans-32"/>
       <use xlink:href="#DejaVuSans-30" x="63.623047"/>
       <use xlink:href="#DejaVuSans-32" x="127.246094"/>
       <use xlink:href="#DejaVuSans-33" x="190.869141"/>
       <use xlink:href="#DejaVuSans-2d" x="254.492188"/>
       <use xlink:href="#DejaVuSans-30" x="290.576172"/>
       <use xlink:href="#DejaVuSans-35" x="354.199219"/>
      </g>
     </g>
    </g>
    <g id="xtick_8">
     <g id="line2d_15">
      <path d="M 613.595304 567.74175 
L 613.595304 24.14175 
" clip-path="url(#peb26639ca6)" style="fill: none; stroke: #ffffff; stroke-width: 0.8; stroke-linecap: square"/>
     </g>
     <g id="line2d_16">
      <g>
       <use xlink:href="#m579e8686c1" x="613.595304" y="567.74175" style="fill: #555555; stroke: #555555; stroke-width: 0.8"/>
      </g>
     </g>
     <g id="text_8">
      <!-- 2023-06 -->
      <g style="fill: #555555" transform="translate(600.774021 609.659567)rotate(-45)scale(0.1 -0.1)">
       <defs>
        <path id="DejaVuSans-36" d="M 2113 2584 
Q 1688 2584 1439 2293 
Q 1191 2003 1191 1497 
Q 1191 994 1439 701 
Q 1688 409 2113 409 
Q 2538 409 2786 701 
Q 3034 994 3034 1497 
Q 3034 2003 2786 2293 
Q 2538 2584 2113 2584 
z
M 3366 4563 
L 3366 3988 
Q 3128 4100 2886 4159 
Q 2644 4219 2406 4219 
Q 1781 4219 1451 3797 
Q 1122 3375 1075 2522 
Q 1259 2794 1537 2939 
Q 1816 3084 2150 3084 
Q 2853 3084 3261 2657 
Q 3669 2231 3669 1497 
Q 3669 778 3244 343 
Q 2819 -91 2113 -91 
Q 1303 -91 875 529 
Q 447 1150 447 2328 
Q 447 3434 972 4092 
Q 1497 4750 2381 4750 
Q 2619 4750 2861 4703 
Q 3103 4656 3366 4563 
z
" transform="scale(0.015625)"/>
       </defs>
       <use xlink:href="#DejaVuSans-32"/>
       <use xlink:href="#DejaVuSans-30" x="63.623047"/>
       <use xlink:href="#DejaVuSans-32" x="127.246094"/>
       <use xlink:href="#DejaVuSans-33" x="190.869141"/>
       <use xlink:href="#DejaVuSans-2d" x="254.492188"/>
       <use xlink:href="#DejaVuSans-30" x="290.576172"/>
       <use xlink:href="#DejaVuSans-36" x="354.199219"/>
      </g>
     </g>
    </g>
    <g id="xtick_9">
     <g id="line2d_17">
      <path d="M 689.464547 567.74175 
L 689.464547 24.14175 
" clip-path="url(#peb26639ca6)" style="fill: none; stroke: #ffffff; stroke-width: 0.8; stroke-linecap: square"/>
     </g>
     <g id="line2d_18">
      <g>
       <use xlink:href="#m579e8686c1" x="689.464547" y="567.74175" style="fill: #555555; stroke: #555555; stroke-width: 0.8"/>
      </g>
     </g>
     <g id="text_9">
      <!-- 2023-07 -->
      <g style="fill: #555555" transform="translate(676.643265 609.659567)rotate(-45)scale(0.1 -0.1)">
       <defs>
        <path id="DejaVuSans-37" d="M 525 4666 
L 3525 4666 
L 3525 4397 
L 1831 0 
L 1172 0 
L 2766 4134 
L 525 4134 
L 525 4666 
z
" transform="scale(0.015625)"/>
       </defs>
       <use xlink:href="#DejaVuSans-32"/>
       <use xlink:href="#DejaVuSans-30" x="63.623047"/>
       <use xlink:href="#DejaVuSans-32" x="127.246094"/>
       <use xlink:href="#DejaVuSans-33" x="190.869141"/>
       <use xlink:href="#DejaVuSans-2d" x="254.492188"/>
       <use xlink:href="#DejaVuSans-30" x="290.576172"/>
       <use xlink:href="#DejaVuSans-37" x="354.199219"/>
      </g>
     </g>
    </g>
    <g id="xtick_10">
     <g id="line2d_19">
      <path d="M 767.862766 567.74175 
L 767.862766 24.14175 
" clip-path="url(#peb26639ca6)" style="fill: none; stroke: #ffffff; stroke-width: 0.8; stroke-linecap: square"/>
     </g>
     <g id="line2d_20">
      <g>
       <use xlink:href="#m579e8686c1" x="767.862766" y="567.74175" style="fill: #555555; stroke: #555555; stroke-width: 0.8"/>
      </g>
     </g>
     <g id="text_10">
      <!-- 2023-08 -->
      <g style="fill: #555555" transform="translate(755.041484 609.659567)rotate(-45)scale(0.1 -0.1)">
       <defs>
        <path id="DejaVuSans-38" d="M 2034 2216 
Q 1584 2216 1326 1975 
Q 1069 1734 1069 1313 
Q 1069 891 1326 650 
Q 1584 409 2034 409 
Q 2484 409 2743 651 
Q 3003 894 3003 1313 
Q 3003 1734 2745 1975 
Q 2488 2216 2034 2216 
z
M 1403 2484 
Q 997 2584 770 2862 
Q 544 3141 544 3541 
Q 544 4100 942 4425 
Q 1341 4750 2034 4750 
Q 2731 4750 3128 4425 
Q 3525 4100 3525 3541 
Q 3525 3141 3298 2862 
Q 3072 2584 2669 2484 
Q 3125 2378 3379 2068 
Q 3634 1759 3634 1313 
Q 3634 634 3220 271 
Q 2806 -91 2034 -91 
Q 1263 -91 848 271 
Q 434 634 434 1313 
Q 434 1759 690 2068 
Q 947 2378 1403 2484 
z
M 1172 3481 
Q 1172 3119 1398 2916 
Q 1625 2713 2034 2713 
Q 2441 2713 2670 2916 
Q 2900 3119 2900 3481 
Q 2900 3844 2670 4047 
Q 2441 4250 2034 4250 
Q 1625 4250 1398 4047 
Q 1172 3844 1172 3481 
z
" transform="scale(0.015625)"/>
       </defs>
       <use xlink:href="#DejaVuSans-32"/>
       <use xlink:href="#DejaVuSans-30" x="63.623047"/>
       <use xlink:href="#DejaVuSans-32" x="127.246094"/>
       <use xlink:href="#DejaVuSans-33" x="190.869141"/>
       <use xlink:href="#DejaVuSans-2d" x="254.492188"/>
       <use xlink:href="#DejaVuSans-30" x="290.576172"/>
       <use xlink:href="#DejaVuSans-38" x="354.199219"/>
      </g>
     </g>
    </g>
    <g id="xtick_11">
     <g id="line2d_21">
      <path d="M 846.260984 567.74175 
L 846.260984 24.14175 
" clip-path="url(#peb26639ca6)" style="fill: none; stroke: #ffffff; stroke-width: 0.8; stroke-linecap: square"/>
     </g>
     <g id="line2d_22">
      <g>
       <use xlink:href="#m579e8686c1" x="846.260984" y="567.74175" style="fill: #555555; stroke: #555555; stroke-width: 0.8"/>
      </g>
     </g>
     <g id="text_11">
      <!-- 2023-09 -->
      <g style="fill: #555555" transform="translate(833.439702 609.659567)rotate(-45)scale(0.1 -0.1)">
       <defs>
        <path id="DejaVuSans-39" d="M 703 97 
L 703 672 
Q 941 559 1184 500 
Q 1428 441 1663 441 
Q 2288 441 2617 861 
Q 2947 1281 2994 2138 
Q 2813 1869 2534 1725 
Q 2256 1581 1919 1581 
Q 1219 1581 811 2004 
Q 403 2428 403 3163 
Q 403 3881 828 4315 
Q 1253 4750 1959 4750 
Q 2769 4750 3195 4129 
Q 3622 3509 3622 2328 
Q 3622 1225 3098 567 
Q 2575 -91 1691 -91 
Q 1453 -91 1209 -44 
Q 966 3 703 97 
z
M 1959 2075 
Q 2384 2075 2632 2365 
Q 2881 2656 2881 3163 
Q 2881 3666 2632 3958 
Q 2384 4250 1959 4250 
Q 1534 4250 1286 3958 
Q 1038 3666 1038 3163 
Q 1038 2656 1286 2365 
Q 1534 2075 1959 2075 
z
" transform="scale(0.015625)"/>
       </defs>
       <use xlink:href="#DejaVuSans-32"/>
       <use xlink:href="#DejaVuSans-30" x="63.623047"/>
       <use xlink:href="#DejaVuSans-32" x="127.246094"/>
       <use xlink:href="#DejaVuSans-33" x="190.869141"/>
       <use xlink:href="#DejaVuSans-2d" x="254.492188"/>
       <use xlink:href="#DejaVuSans-30" x="290.576172"/>
       <use xlink:href="#DejaVuSans-39" x="354.199219"/>
      </g>
     </g>
    </g>
    <g id="xtick_12">
     <g id="line2d_23">
      <path d="M 922.130228 567.74175 
L 922.130228 24.14175 
" clip-path="url(#peb26639ca6)" style="fill: none; stroke: #ffffff; stroke-width: 0.8; stroke-linecap: square"/>
     </g>
     <g id="line2d_24">
      <g>
       <use xlink:href="#m579e8686c1" x="922.130228" y="567.74175" style="fill: #555555; stroke: #555555; stroke-width: 0.8"/>
      </g>
     </g>
     <g id="text_12">
      <!-- 2023-10 -->
      <g style="fill: #555555" transform="translate(909.308946 609.659567)rotate(-45)scale(0.1 -0.1)">
       <use xlink:href="#DejaVuSans-32"/>
       <use xlink:href="#DejaVuSans-30" x="63.623047"/>
       <use xlink:href="#DejaVuSans-32" x="127.246094"/>
       <use xlink:href="#DejaVuSans-33" x="190.869141"/>
       <use xlink:href="#DejaVuSans-2d" x="254.492188"/>
       <use xlink:href="#DejaVuSans-31" x="290.576172"/>
       <use xlink:href="#DejaVuSans-30" x="354.199219"/>
      </g>
     </g>
    </g>
    <g id="text_13">
     <!-- Date -->
     <g style="fill: #555555" transform="translate(491.772938 624.248253)scale(0.12 -0.12)">
      <defs>
       <path id="DejaVuSans-44" d="M 1259 4147 
L 1259 519 
L 2022 519 
Q 2988 519 3436 956 
Q 3884 1394 3884 2338 
Q 3884 3275 3436 3711 
Q 2988 4147 2022 4147 
L 1259 4147 
z
M 628 4666 
L 1925 4666 
Q 3281 4666 3915 4102 
Q 4550 3538 4550 2338 
Q 4550 1131 3912 565 
Q 3275 0 1925 0 
L 628 0 
L 628 4666 
z
" transform="scale(0.015625)"/>
       <path id="DejaVuSans-61" d="M 2194 1759 
Q 1497 1759 1228 1600 
Q 959 1441 959 1056 
Q 959 750 1161 570 
Q 1363 391 1709 391 
Q 2188 391 2477 730 
Q 2766 1069 2766 1631 
L 2766 1759 
L 2194 1759 
z
M 3341 1997 
L 3341 0 
L 2766 0 
L 2766 531 
Q 2569 213 2275 61 
Q 1981 -91 1556 -91 
Q 1019 -91 701 211 
Q 384 513 384 1019 
Q 384 1609 779 1909 
Q 1175 2209 1959 2209 
L 2766 2209 
L 2766 2266 
Q 2766 2663 2505 2880 
Q 2244 3097 1772 3097 
Q 1472 3097 1187 3025 
Q 903 2953 641 2809 
L 641 3341 
Q 956 3463 1253 3523 
Q 1550 3584 1831 3584 
Q 2591 3584 2966 3190 
Q 3341 2797 3341 1997 
z
" transform="scale(0.015625)"/>
       <path id="DejaVuSans-74" d="M 1172 4494 
L 1172 3500 
L 2356 3500 
L 2356 3053 
L 1172 3053 
L 1172 1153 
Q 1172 725 1289 603 
Q 1406 481 1766 481 
L 2356 481 
L 2356 0 
L 1766 0 
Q 1100 0 847 248 
Q 594 497 594 1153 
L 594 3053 
L 172 3053 
L 172 3500 
L 594 3500 
L 594 4494 
L 1172 4494 
z
" transform="scale(0.015625)"/>
       <path id="DejaVuSans-65" d="M 3597 1894 
L 3597 1613 
L 953 1613 
Q 991 1019 1311 708 
Q 1631 397 2203 397 
Q 2534 397 2845 478 
Q 3156 559 3463 722 
L 3463 178 
Q 3153 47 2828 -22 
Q 2503 -91 2169 -91 
Q 1331 -91 842 396 
Q 353 884 353 1716 
Q 353 2575 817 3079 
Q 1281 3584 2069 3584 
Q 2775 3584 3186 3129 
Q 3597 2675 3597 1894 
z
M 3022 2063 
Q 3016 2534 2758 2815 
Q 2500 3097 2075 3097 
Q 1594 3097 1305 2825 
Q 1016 2553 972 2059 
L 3022 2063 
z
" transform="scale(0.015625)"/>
      </defs>
      <use xlink:href="#DejaVuSans-44"/>
      <use xlink:href="#DejaVuSans-61" x="77.001953"/>
      <use xlink:href="#DejaVuSans-74" x="138.28125"/>
      <use xlink:href="#DejaVuSans-65" x="177.490234"/>
     </g>
    </g>
   </g>
   <g id="matplotlib.axis_2">
    <g id="ytick_1">
     <g id="line2d_25">
      <path d="M 54.691875 567.74175 
L 957.535875 567.74175 
" clip-path="url(#peb26639ca6)" style="fill: none; stroke: #ffffff; stroke-width: 0.8; stroke-linecap: square"/>
     </g>
     <g id="line2d_26">
      <defs>
       <path id="m47cf1afcc1" d="M 0 0 
L -3.5 0 
" style="stroke: #555555; stroke-width: 0.8"/>
      </defs>
      <g>
       <use xlink:href="#m47cf1afcc1" x="54.691875" y="567.74175" style="fill: #555555; stroke: #555555; stroke-width: 0.8"/>
      </g>
     </g>
     <g id="text_14">
      <!-- 0k -->
      <g style="fill: #555555" transform="translate(35.53875 571.540969)scale(0.1 -0.1)">
       <defs>
        <path id="DejaVuSans-6b" d="M 581 4863 
L 1159 4863 
L 1159 1991 
L 2875 3500 
L 3609 3500 
L 1753 1863 
L 3688 0 
L 2938 0 
L 1159 1709 
L 1159 0 
L 581 0 
L 581 4863 
z
" transform="scale(0.015625)"/>
       </defs>
       <use xlink:href="#DejaVuSans-30"/>
       <use xlink:href="#DejaVuSans-6b" x="63.623047"/>
      </g>
     </g>
    </g>
    <g id="ytick_2">
     <g id="line2d_27">
      <path d="M 54.691875 499.47633 
L 957.535875 499.47633 
" clip-path="url(#peb26639ca6)" style="fill: none; stroke: #ffffff; stroke-width: 0.8; stroke-linecap: square"/>
     </g>
     <g id="line2d_28">
      <g>
       <use xlink:href="#m47cf1afcc1" x="54.691875" y="499.47633" style="fill: #555555; stroke: #555555; stroke-width: 0.8"/>
      </g>
     </g>
     <g id="text_15">
      <!-- 25k -->
      <g style="fill: #555555" transform="translate(29.17625 503.275548)scale(0.1 -0.1)">
       <use xlink:href="#DejaVuSans-32"/>
       <use xlink:href="#DejaVuSans-35" x="63.623047"/>
       <use xlink:href="#DejaVuSans-6b" x="127.246094"/>
      </g>
     </g>
    </g>
    <g id="ytick_3">
     <g id="line2d_29">
      <path d="M 54.691875 431.210909 
L 957.535875 431.210909 
" clip-path="url(#peb26639ca6)" style="fill: none; stroke: #ffffff; stroke-width: 0.8; stroke-linecap: square"/>
     </g>
     <g id="line2d_30">
      <g>
       <use xlink:href="#m47cf1afcc1" x="54.691875" y="431.210909" style="fill: #555555; stroke: #555555; stroke-width: 0.8"/>
      </g>
     </g>
     <g id="text_16">
      <!-- 50k -->
      <g style="fill: #555555" transform="translate(29.17625 435.010128)scale(0.1 -0.1)">
       <use xlink:href="#DejaVuSans-35"/>
       <use xlink:href="#DejaVuSans-30" x="63.623047"/>
       <use xlink:href="#DejaVuSans-6b" x="127.246094"/>
      </g>
     </g>
    </g>
    <g id="ytick_4">
     <g id="line2d_31">
      <path d="M 54.691875 362.945489 
L 957.535875 362.945489 
" clip-path="url(#peb26639ca6)" style="fill: none; stroke: #ffffff; stroke-width: 0.8; stroke-linecap: square"/>
     </g>
     <g id="line2d_32">
      <g>
       <use xlink:href="#m47cf1afcc1" x="54.691875" y="362.945489" style="fill: #555555; stroke: #555555; stroke-width: 0.8"/>
      </g>
     </g>
     <g id="text_17">
      <!-- 75k -->
      <g style="fill: #555555" transform="translate(29.17625 366.744708)scale(0.1 -0.1)">
       <use xlink:href="#DejaVuSans-37"/>
       <use xlink:href="#DejaVuSans-35" x="63.623047"/>
       <use xlink:href="#DejaVuSans-6b" x="127.246094"/>
      </g>
     </g>
    </g>
    <g id="ytick_5">
     <g id="line2d_33">
      <path d="M 54.691875 294.680069 
L 957.535875 294.680069 
" clip-path="url(#peb26639ca6)" style="fill: none; stroke: #ffffff; stroke-width: 0.8; stroke-linecap: square"/>
     </g>
     <g id="line2d_34">
      <g>
       <use xlink:href="#m47cf1afcc1" x="54.691875" y="294.680069" style="fill: #555555; stroke: #555555; stroke-width: 0.8"/>
      </g>
     </g>
     <g id="text_18">
      <!-- 100k -->
      <g style="fill: #555555" transform="translate(22.81375 298.479287)scale(0.1 -0.1)">
       <use xlink:href="#DejaVuSans-31"/>
       <use xlink:href="#DejaVuSans-30" x="63.623047"/>
       <use xlink:href="#DejaVuSans-30" x="127.246094"/>
       <use xlink:href="#DejaVuSans-6b" x="190.869141"/>
      </g>
     </g>
    </g>
    <g id="ytick_6">
     <g id="line2d_35">
      <path d="M 54.691875 226.414648 
L 957.535875 226.414648 
" clip-path="url(#peb26639ca6)" style="fill: none; stroke: #ffffff; stroke-width: 0.8; stroke-linecap: square"/>
     </g>
     <g id="line2d_36">
      <g>
       <use xlink:href="#m47cf1afcc1" x="54.691875" y="226.414648" style="fill: #555555; stroke: #555555; stroke-width: 0.8"/>
      </g>
     </g>
     <g id="text_19">
      <!-- 125k -->
      <g style="fill: #555555" transform="translate(22.81375 230.213867)scale(0.1 -0.1)">
       <use xlink:href="#DejaVuSans-31"/>
       <use xlink:href="#DejaVuSans-32" x="63.623047"/>
       <use xlink:href="#DejaVuSans-35" x="127.246094"/>
       <use xlink:href="#DejaVuSans-6b" x="190.869141"/>
      </g>
     </g>
    </g>
    <g id="ytick_7">
     <g id="line2d_37">
      <path d="M 54.691875 158.149228 
L 957.535875 158.149228 
" clip-path="url(#peb26639ca6)" style="fill: none; stroke: #ffffff; stroke-width: 0.8; stroke-linecap: square"/>
     </g>
     <g id="line2d_38">
      <g>
       <use xlink:href="#m47cf1afcc1" x="54.691875" y="158.149228" style="fill: #555555; stroke: #555555; stroke-width: 0.8"/>
      </g>
     </g>
     <g id="text_20">
      <!-- 150k -->
      <g style="fill: #555555" transform="translate(22.81375 161.948447)scale(0.1 -0.1)">
       <use xlink:href="#DejaVuSans-31"/>
       <use xlink:href="#DejaVuSans-35" x="63.623047"/>
       <use xlink:href="#DejaVuSans-30" x="127.246094"/>
       <use xlink:href="#DejaVuSans-6b" x="190.869141"/>
      </g>
     </g>
    </g>
    <g id="ytick_8">
     <g id="line2d_39">
      <path d="M 54.691875 89.883807 
L 957.535875 89.883807 
" clip-path="url(#peb26639ca6)" style="fill: none; stroke: #ffffff; stroke-width: 0.8; stroke-linecap: square"/>
     </g>
     <g id="line2d_40">
      <g>
       <use xlink:href="#m47cf1afcc1" x="54.691875" y="89.883807" style="fill: #555555; stroke: #555555; stroke-width: 0.8"/>
      </g>
     </g>
     <g id="text_21">
      <!-- 175k -->
      <g style="fill: #555555" transform="translate(22.81375 93.683026)scale(0.1 -0.1)">
       <use xlink:href="#DejaVuSans-31"/>
       <use xlink:href="#DejaVuSans-37" x="63.623047"/>
       <use xlink:href="#DejaVuSans-35" x="127.246094"/>
       <use xlink:href="#DejaVuSans-6b" x="190.869141"/>
      </g>
     </g>
    </g>
    <g id="text_22">
     <!-- Instances -->
     <g style="fill: #555555" transform="translate(16.318125 324.588)rotate(-90)scale(0.12 -0.12)">
      <defs>
       <path id="DejaVuSans-49" d="M 628 4666 
L 1259 4666 
L 1259 0 
L 628 0 
L 628 4666 
z
" transform="scale(0.015625)"/>
       <path id="DejaVuSans-6e" d="M 3513 2113 
L 3513 0 
L 2938 0 
L 2938 2094 
Q 2938 2591 2744 2837 
Q 2550 3084 2163 3084 
Q 1697 3084 1428 2787 
Q 1159 2491 1159 1978 
L 1159 0 
L 581 0 
L 581 3500 
L 1159 3500 
L 1159 2956 
Q 1366 3272 1645 3428 
Q 1925 3584 2291 3584 
Q 2894 3584 3203 3211 
Q 3513 2838 3513 2113 
z
" transform="scale(0.015625)"/>
       <path id="DejaVuSans-73" d="M 2834 3397 
L 2834 2853 
Q 2591 2978 2328 3040 
Q 2066 3103 1784 3103 
Q 1356 3103 1142 2972 
Q 928 2841 928 2578 
Q 928 2378 1081 2264 
Q 1234 2150 1697 2047 
L 1894 2003 
Q 2506 1872 2764 1633 
Q 3022 1394 3022 966 
Q 3022 478 2636 193 
Q 2250 -91 1575 -91 
Q 1294 -91 989 -36 
Q 684 19 347 128 
L 347 722 
Q 666 556 975 473 
Q 1284 391 1588 391 
Q 1994 391 2212 530 
Q 2431 669 2431 922 
Q 2431 1156 2273 1281 
Q 2116 1406 1581 1522 
L 1381 1569 
Q 847 1681 609 1914 
Q 372 2147 372 2553 
Q 372 3047 722 3315 
Q 1072 3584 1716 3584 
Q 2034 3584 2315 3537 
Q 2597 3491 2834 3397 
z
" transform="scale(0.015625)"/>
       <path id="DejaVuSans-63" d="M 3122 3366 
L 3122 2828 
Q 2878 2963 2633 3030 
Q 2388 3097 2138 3097 
Q 1578 3097 1268 2742 
Q 959 2388 959 1747 
Q 959 1106 1268 751 
Q 1578 397 2138 397 
Q 2388 397 2633 464 
Q 2878 531 3122 666 
L 3122 134 
Q 2881 22 2623 -34 
Q 2366 -91 2075 -91 
Q 1284 -91 818 406 
Q 353 903 353 1747 
Q 353 2603 823 3093 
Q 1294 3584 2113 3584 
Q 2378 3584 2631 3529 
Q 2884 3475 3122 3366 
z
" transform="scale(0.015625)"/>
      </defs>
      <use xlink:href="#DejaVuSans-49"/>
      <use xlink:href="#DejaVuSans-6e" x="29.492188"/>
      <use xlink:href="#DejaVuSans-73" x="92.871094"/>
      <use xlink:href="#DejaVuSans-74" x="144.970703"/>
      <use xlink:href="#DejaVuSans-61" x="184.179688"/>
      <use xlink:href="#DejaVuSans-6e" x="245.458984"/>
      <use xlink:href="#DejaVuSans-63" x="308.837891"/>
      <use xlink:href="#DejaVuSans-65" x="363.818359"/>
      <use xlink:href="#DejaVuSans-73" x="425.341797"/>
     </g>
    </g>
   </g>
   <g id="line2d_41">
    <path d="M 54.691875 497.924245 
L 63.811511 496.327205 
L 72.931148 494.730166 
L 82.050784 493.133127 
L 91.17042 491.536087 
L 100.290057 489.939048 
L 109.409693 488.342009 
L 118.52933 486.744969 
L 127.648966 485.14793 
L 136.768602 483.550891 
L 145.888239 481.953852 
L 155.007875 480.356812 
L 164.127511 478.759773 
L 173.247148 477.162734 
L 182.366784 475.565694 
L 191.48642 473.968655 
L 200.606057 472.371616 
L 209.725693 470.774576 
L 218.84533 469.177537 
L 227.964966 467.580498 
L 237.084602 465.983458 
L 246.204239 464.386419 
L 255.323875 462.78938 
L 264.443511 461.192341 
L 273.563148 459.595301 
L 282.682784 457.998262 
L 291.80242 456.401223 
L 300.922057 454.804183 
L 310.041693 453.207144 
L 319.16133 451.610105 
L 328.280966 450.013065 
L 337.400602 448.416026 
L 346.520239 446.818987 
L 355.639875 445.221947 
L 364.759511 443.624908 
L 373.879148 442.027869 
L 382.998784 440.430829 
L 392.11842 438.83379 
L 401.238057 437.236751 
L 410.357693 435.639712 
L 419.47733 434.042672 
L 428.596966 432.445633 
L 437.716602 430.848594 
L 446.836239 429.251554 
L 455.955875 427.654515 
L 465.075511 426.057476 
L 474.195148 424.460436 
L 483.314784 422.863397 
L 492.43442 421.266358 
L 501.554057 419.669318 
L 510.673693 418.072279 
L 519.79333 416.47524 
L 528.912966 414.8782 
L 538.032602 413.281161 
L 547.152239 411.684122 
L 556.271875 410.087083 
L 565.391511 408.490043 
L 574.511148 406.893004 
L 583.630784 405.295965 
L 592.75042 403.698925 
L 601.870057 402.101886 
L 610.989693 400.504847 
L 620.10933 398.907807 
L 629.228966 397.310768 
L 638.348602 395.713729 
L 647.468239 394.116689 
L 656.587875 392.51965 
L 665.707511 390.922611 
L 674.827148 389.325572 
L 683.946784 387.728532 
L 693.06642 386.131493 
L 702.186057 384.534454 
L 711.305693 382.937414 
L 720.42533 381.340375 
L 729.544966 379.743336 
L 738.664602 378.146296 
L 747.784239 376.549257 
L 756.903875 374.952218 
L 766.023511 373.355178 
L 775.143148 371.758139 
L 784.262784 370.1611 
L 793.38242 368.56406 
L 802.502057 366.967021 
L 811.621693 365.369982 
L 820.74133 363.772943 
L 829.860966 362.175903 
L 838.980602 360.578864 
L 848.100239 358.981825 
L 857.219875 357.384785 
L 866.339511 355.787746 
L 875.459148 354.190707 
L 884.578784 352.593667 
L 893.69842 350.996628 
L 902.818057 349.399589 
L 911.937693 347.802549 
L 921.05733 346.20551 
L 930.176966 344.608471 
L 939.296602 343.011432 
L 948.416239 341.414392 
L 957.535875 339.817353 
" clip-path="url(#peb26639ca6)" style="fill: none; stroke-dasharray: 1.5,2.475; stroke-dashoffset: 0; stroke: #4ac1fa; stroke-width: 1.5"/>
   </g>
   <g id="line2d_42">
    <path d="M 54.691875 337.378253 
L 63.811511 338.060299 
L 72.931148 338.742344 
L 82.050784 339.424389 
L 91.17042 340.106434 
L 100.290057 340.78848 
L 109.409693 341.470525 
L 118.52933 342.15257 
L 127.648966 342.834615 
L 136.768602 343.516661 
L 145.888239 344.198706 
L 155.007875 344.880751 
L 164.127511 345.562796 
L 173.247148 346.244842 
L 182.366784 346.926887 
L 191.48642 347.608932 
L 200.606057 348.290977 
L 209.725693 348.973023 
L 218.84533 349.655068 
L 227.964966 350.337113 
L 237.084602 351.019158 
L 246.204239 351.701204 
L 255.323875 352.383249 
L 264.443511 353.065294 
L 273.563148 353.747339 
L 282.682784 354.429385 
L 291.80242 355.11143 
L 300.922057 355.793475 
L 310.041693 356.475521 
L 319.16133 357.157566 
L 328.280966 357.839611 
L 337.400602 358.521656 
L 346.520239 359.203702 
L 355.639875 359.885747 
L 364.759511 360.567792 
L 373.879148 361.249837 
L 382.998784 361.931883 
L 392.11842 362.613928 
L 401.238057 363.295973 
L 410.357693 363.978018 
L 419.47733 364.660064 
L 428.596966 365.342109 
L 437.716602 366.024154 
L 446.836239 366.706199 
L 455.955875 367.388245 
L 465.075511 368.07029 
L 474.195148 368.752335 
L 483.314784 369.43438 
L 492.43442 370.116426 
L 501.554057 370.798471 
L 510.673693 371.480516 
L 519.79333 372.162561 
L 528.912966 372.844607 
L 538.032602 373.526652 
L 547.152239 374.208697 
L 556.271875 374.890742 
L 565.391511 375.572788 
L 574.511148 376.254833 
L 583.630784 376.936878 
L 592.75042 377.618923 
L 601.870057 378.300969 
L 610.989693 378.983014 
L 620.10933 379.665059 
L 629.228966 380.347104 
L 638.348602 381.02915 
L 647.468239 381.711195 
L 656.587875 382.39324 
L 665.707511 383.075285 
L 674.827148 383.757331 
L 683.946784 384.439376 
L 693.06642 385.121421 
L 702.186057 385.803466 
L 711.305693 386.485512 
L 720.42533 387.167557 
L 729.544966 387.849602 
L 738.664602 388.531648 
L 747.784239 389.213693 
L 756.903875 389.895738 
L 766.023511 390.577783 
L 775.143148 391.259829 
L 784.262784 391.941874 
L 793.38242 392.623919 
L 802.502057 393.305964 
L 811.621693 393.98801 
L 820.74133 394.670055 
L 829.860966 395.3521 
L 838.980602 396.034145 
L 848.100239 396.716191 
L 857.219875 397.398236 
L 866.339511 398.080281 
L 875.459148 398.762326 
L 884.578784 399.444372 
L 893.69842 400.126417 
L 902.818057 400.808462 
L 911.937693 401.490507 
L 921.05733 402.172553 
L 930.176966 402.854598 
L 939.296602 403.536643 
L 948.416239 404.218688 
L 957.535875 404.900734 
" clip-path="url(#peb26639ca6)" style="fill: none; stroke-dasharray: 1.5,2.475; stroke-dashoffset: 0; stroke: #e9a942; stroke-width: 1.5"/>
   </g>
   <g id="line2d_43">
    <path d="M 54.691875 426.255883 
L 63.811511 425.942923 
L 72.931148 425.629963 
L 82.050784 425.317004 
L 91.17042 425.004044 
L 100.290057 424.691085 
L 109.409693 424.378125 
L 118.52933 424.065165 
L 127.648966 423.752206 
L 136.768602 423.439246 
L 145.888239 423.126287 
L 155.007875 422.813327 
L 164.127511 422.500367 
L 173.247148 422.187408 
L 182.366784 421.874448 
L 191.48642 421.561489 
L 200.606057 421.248529 
L 209.725693 420.935569 
L 218.84533 420.62261 
L 227.964966 420.30965 
L 237.084602 419.996691 
L 246.204239 419.683731 
L 255.323875 419.370771 
L 264.443511 419.057812 
L 273.563148 418.744852 
L 282.682784 418.431893 
L 291.80242 418.118933 
L 300.922057 417.805973 
L 310.041693 417.493014 
L 319.16133 417.180054 
L 328.280966 416.867095 
L 337.400602 416.554135 
L 346.520239 416.241175 
L 355.639875 415.928216 
L 364.759511 415.615256 
L 373.879148 415.302297 
L 382.998784 414.989337 
L 392.11842 414.676377 
L 401.238057 414.363418 
L 410.357693 414.050458 
L 419.47733 413.737499 
L 428.596966 413.424539 
L 437.716602 413.111579 
L 446.836239 412.79862 
L 455.955875 412.48566 
L 465.075511 412.172701 
L 474.195148 411.859741 
L 483.314784 411.546781 
L 492.43442 411.233822 
L 501.554057 410.920862 
L 510.673693 410.607903 
L 519.79333 410.294943 
L 528.912966 409.981983 
L 538.032602 409.669024 
L 547.152239 409.356064 
L 556.271875 409.043105 
L 565.391511 408.730145 
L 574.511148 408.417185 
L 583.630784 408.104226 
L 592.75042 407.791266 
L 601.870057 407.478307 
L 610.989693 407.165347 
L 620.10933 406.852387 
L 629.228966 406.539428 
L 638.348602 406.226468 
L 647.468239 405.913509 
L 656.587875 405.600549 
L 665.707511 405.287589 
L 674.827148 404.97463 
L 683.946784 404.66167 
L 693.06642 404.348711 
L 702.186057 404.035751 
L 711.305693 403.722791 
L 720.42533 403.409832 
L 729.544966 403.096872 
L 738.664602 402.783913 
L 747.784239 402.470953 
L 756.903875 402.157993 
L 766.023511 401.845034 
L 775.143148 401.532074 
L 784.262784 401.219115 
L 793.38242 400.906155 
L 802.502057 400.593195 
L 811.621693 400.280236 
L 820.74133 399.967276 
L 829.860966 399.654317 
L 838.980602 399.341357 
L 848.100239 399.028397 
L 857.219875 398.715438 
L 866.339511 398.402478 
L 875.459148 398.089519 
L 884.578784 397.776559 
L 893.69842 397.463599 
L 902.818057 397.15064 
L 911.937693 396.83768 
L 921.05733 396.524721 
L 930.176966 396.211761 
L 939.296602 395.898801 
L 948.416239 395.585842 
L 957.535875 395.272882 
" clip-path="url(#peb26639ca6)" style="fill: none; stroke-dasharray: 1.5,2.475; stroke-dashoffset: 0; stroke: #9a5689; stroke-width: 1.5"/>
   </g>
   <g id="line2d_44">
    <path d="M 54.691875 518.536427 
L 63.811511 517.982446 
L 72.931148 517.428464 
L 82.050784 516.874483 
L 91.17042 516.320501 
L 100.290057 515.76652 
L 109.409693 515.212538 
L 118.52933 514.658557 
L 127.648966 514.104576 
L 136.768602 513.550594 
L 145.888239 512.996613 
L 155.007875 512.442631 
L 164.127511 511.88865 
L 173.247148 511.334668 
L 182.366784 510.780687 
L 191.48642 510.226706 
L 200.606057 509.672724 
L 209.725693 509.118743 
L 218.84533 508.564761 
L 227.964966 508.01078 
L 237.084602 507.456798 
L 246.204239 506.902817 
L 255.323875 506.348836 
L 264.443511 505.794854 
L 273.563148 505.240873 
L 282.682784 504.686891 
L 291.80242 504.13291 
L 300.922057 503.578928 
L 310.041693 503.024947 
L 319.16133 502.470965 
L 328.280966 501.916984 
L 337.400602 501.363003 
L 346.520239 500.809021 
L 355.639875 500.25504 
L 364.759511 499.701058 
L 373.879148 499.147077 
L 382.998784 498.593095 
L 392.11842 498.039114 
L 401.238057 497.485133 
L 410.357693 496.931151 
L 419.47733 496.37717 
L 428.596966 495.823188 
L 437.716602 495.269207 
L 446.836239 494.715225 
L 455.955875 494.161244 
L 465.075511 493.607263 
L 474.195148 493.053281 
L 483.314784 492.4993 
L 492.43442 491.945318 
L 501.554057 491.391337 
L 510.673693 490.837355 
L 519.79333 490.283374 
L 528.912966 489.729393 
L 538.032602 489.175411 
L 547.152239 488.62143 
L 556.271875 488.067448 
L 565.391511 487.513467 
L 574.511148 486.959485 
L 583.630784 486.405504 
L 592.75042 485.851523 
L 601.870057 485.297541 
L 610.989693 484.74356 
L 620.10933 484.189578 
L 629.228966 483.635597 
L 638.348602 483.081615 
L 647.468239 482.527634 
L 656.587875 481.973652 
L 665.707511 481.419671 
L 674.827148 480.86569 
L 683.946784 480.311708 
L 693.06642 479.757727 
L 702.186057 479.203745 
L 711.305693 478.649764 
L 720.42533 478.095782 
L 729.544966 477.541801 
L 738.664602 476.98782 
L 747.784239 476.433838 
L 756.903875 475.879857 
L 766.023511 475.325875 
L 775.143148 474.771894 
L 784.262784 474.217912 
L 793.38242 473.663931 
L 802.502057 473.10995 
L 811.621693 472.555968 
L 820.74133 472.001987 
L 829.860966 471.448005 
L 838.980602 470.894024 
L 848.100239 470.340042 
L 857.219875 469.786061 
L 866.339511 469.23208 
L 875.459148 468.678098 
L 884.578784 468.124117 
L 893.69842 467.570135 
L 902.818057 467.016154 
L 911.937693 466.462172 
L 921.05733 465.908191 
L 930.176966 465.35421 
L 939.296602 464.800228 
L 948.416239 464.246247 
L 957.535875 463.692265 
" clip-path="url(#peb26639ca6)" style="fill: none; stroke-dasharray: 1.5,2.475; stroke-dashoffset: 0; stroke: #be503b; stroke-width: 1.5"/>
   </g>
   <g id="line2d_45">
    <path d="M 54.691875 408.655101 
L 63.811511 407.518268 
L 72.931148 406.381434 
L 82.050784 405.244601 
L 91.17042 404.107767 
L 100.290057 402.970934 
L 109.409693 401.8341 
L 118.52933 400.697267 
L 127.648966 399.560433 
L 136.768602 398.4236 
L 145.888239 397.286766 
L 155.007875 396.149933 
L 164.127511 395.013099 
L 173.247148 393.876266 
L 182.366784 392.739432 
L 191.48642 391.602599 
L 200.606057 390.465765 
L 209.725693 389.328932 
L 218.84533 388.192098 
L 227.964966 387.055265 
L 237.084602 385.918431 
L 246.204239 384.781598 
L 255.323875 383.644764 
L 264.443511 382.507931 
L 273.563148 381.371097 
L 282.682784 380.234264 
L 291.80242 379.09743 
L 300.922057 377.960597 
L 310.041693 376.823763 
L 319.16133 375.68693 
L 328.280966 374.550096 
L 337.400602 373.413263 
L 346.520239 372.276429 
L 355.639875 371.139596 
L 364.759511 370.002762 
L 373.879148 368.865929 
L 382.998784 367.729095 
L 392.11842 366.592262 
L 401.238057 365.455428 
L 410.357693 364.318595 
L 419.47733 363.181761 
L 428.596966 362.044928 
L 437.716602 360.908094 
L 446.836239 359.771261 
L 455.955875 358.634427 
L 465.075511 357.497594 
L 474.195148 356.36076 
L 483.314784 355.223927 
L 492.43442 354.087093 
L 501.554057 352.95026 
L 510.673693 351.813426 
L 519.79333 350.676593 
L 528.912966 349.539759 
L 538.032602 348.402926 
L 547.152239 347.266092 
L 556.271875 346.129259 
L 565.391511 344.992425 
L 574.511148 343.855592 
L 583.630784 342.718758 
L 592.75042 341.581924 
L 601.870057 340.445091 
L 610.989693 339.308257 
L 620.10933 338.171424 
L 629.228966 337.03459 
L 638.348602 335.897757 
L 647.468239 334.760923 
L 656.587875 333.62409 
L 665.707511 332.487256 
L 674.827148 331.350423 
L 683.946784 330.213589 
L 693.06642 329.076756 
L 702.186057 327.939922 
L 711.305693 326.803089 
L 720.42533 325.666255 
L 729.544966 324.529422 
L 738.664602 323.392588 
L 747.784239 322.255755 
L 756.903875 321.118921 
L 766.023511 319.982088 
L 775.143148 318.845254 
L 784.262784 317.708421 
L 793.38242 316.571587 
L 802.502057 315.434754 
L 811.621693 314.29792 
L 820.74133 313.161087 
L 829.860966 312.024253 
L 838.980602 310.88742 
L 848.100239 309.750586 
L 857.219875 308.613753 
L 866.339511 307.476919 
L 875.459148 306.340086 
L 884.578784 305.203252 
L 893.69842 304.066419 
L 902.818057 302.929585 
L 911.937693 301.792752 
L 921.05733 300.655918 
L 930.176966 299.519085 
L 939.296602 298.382251 
L 948.416239 297.245418 
L 957.535875 296.108584 
" clip-path="url(#peb26639ca6)" style="fill: none; stroke-dasharray: 1.5,2.475; stroke-dashoffset: 0; stroke: #e2321d; stroke-width: 1.5"/>
   </g>
   <g id="line2d_46">
    <path d="M 54.691875 289.867856 
L 63.811511 288.713742 
L 72.931148 287.559628 
L 82.050784 286.405514 
L 91.17042 285.2514 
L 100.290057 284.097285 
L 109.409693 282.943171 
L 118.52933 281.789057 
L 127.648966 280.634943 
L 136.768602 279.480829 
L 145.888239 278.326715 
L 155.007875 277.1726 
L 164.127511 276.018486 
L 173.247148 274.864372 
L 182.366784 273.710258 
L 191.48642 272.556144 
L 200.606057 271.402029 
L 209.725693 270.247915 
L 218.84533 269.093801 
L 227.964966 267.939687 
L 237.084602 266.785573 
L 246.204239 265.631458 
L 255.323875 264.477344 
L 264.443511 263.32323 
L 273.563148 262.169116 
L 282.682784 261.015002 
L 291.80242 259.860888 
L 300.922057 258.706773 
L 310.041693 257.552659 
L 319.16133 256.398545 
L 328.280966 255.244431 
L 337.400602 254.090317 
L 346.520239 252.936202 
L 355.639875 251.782088 
L 364.759511 250.627974 
L 373.879148 249.47386 
L 382.998784 248.319746 
L 392.11842 247.165631 
L 401.238057 246.011517 
L 410.357693 244.857403 
L 419.47733 243.703289 
L 428.596966 242.549175 
L 437.716602 241.395061 
L 446.836239 240.240946 
L 455.955875 239.086832 
L 465.075511 237.932718 
L 474.195148 236.778604 
L 483.314784 235.62449 
L 492.43442 234.470375 
L 501.554057 233.316261 
L 510.673693 232.162147 
L 519.79333 231.008033 
L 528.912966 229.853919 
L 538.032602 228.699804 
L 547.152239 227.54569 
L 556.271875 226.391576 
L 565.391511 225.237462 
L 574.511148 224.083348 
L 583.630784 222.929234 
L 592.75042 221.775119 
L 601.870057 220.621005 
L 610.989693 219.466891 
L 620.10933 218.312777 
L 629.228966 217.158663 
L 638.348602 216.004548 
L 647.468239 214.850434 
L 656.587875 213.69632 
L 665.707511 212.542206 
L 674.827148 211.388092 
L 683.946784 210.233977 
L 693.06642 209.079863 
L 702.186057 207.925749 
L 711.305693 206.771635 
L 720.42533 205.617521 
L 729.544966 204.463407 
L 738.664602 203.309292 
L 747.784239 202.155178 
L 756.903875 201.001064 
L 766.023511 199.84695 
L 775.143148 198.692836 
L 784.262784 197.538721 
L 793.38242 196.384607 
L 802.502057 195.230493 
L 811.621693 194.076379 
L 820.74133 192.922265 
L 829.860966 191.76815 
L 838.980602 190.614036 
L 848.100239 189.459922 
L 857.219875 188.305808 
L 866.339511 187.151694 
L 875.459148 185.997579 
L 884.578784 184.843465 
L 893.69842 183.689351 
L 902.818057 182.535237 
L 911.937693 181.381123 
L 921.05733 180.227009 
L 930.176966 179.072894 
L 939.296602 177.91878 
L 948.416239 176.764666 
L 957.535875 175.610552 
" clip-path="url(#peb26639ca6)" style="fill: none; stroke-dasharray: 1.5,2.475; stroke-dashoffset: 0; stroke: #48b585; stroke-width: 1.5"/>
   </g>
   <g id="line2d_47">
    <path d="M 54.691875 445.038753 
L 72.394699 453.593775 
L 90.097522 447.720219 
L 107.800346 444.664658 
L 125.503169 439.124237 
L 143.205993 443.495954 
L 160.908816 468.049661 
L 178.61164 469.19652 
L 196.314463 474.679598 
L 214.017287 494.700481 
L 231.72011 493.643732 
L 249.422934 475.015464 
L 267.125757 477.314644 
L 284.828581 472.077321 
L 302.531404 471.381013 
L 320.234228 470.441681 
L 337.937051 473.628311 
L 355.639875 466.616087 
L 373.342699 460.384819 
L 391.045522 466.176458 
L 408.748346 452.741823 
L 426.451169 462.004075 
L 444.153993 459.541059 
L 461.856816 460.622383 
L 479.55964 470.004782 
L 497.262463 457.979146 
L 514.965287 448.266342 
L 568.073757 455.742771 
L 585.776581 391.895488 
L 603.479404 341.578412 
L 621.182228 396.799676 
L 638.885051 372.300582 
L 656.587875 400.546082 
L 674.290699 368.556906 
L 691.993522 385.514037 
L 709.696346 378.66565 
L 727.399169 384.514631 
L 745.101993 372.273276 
L 762.804816 378.337976 
L 780.50764 380.489702 
L 798.210463 383.485189 
L 815.913287 346.187693 
L 833.61611 377.354954 
L 851.318934 358.396281 
L 869.021757 378.411703 
L 886.724581 367.934326 
L 904.427404 360.266754 
L 922.130228 367.773219 
L 939.833051 352.476304 
L 957.535875 138.335872 
" clip-path="url(#peb26639ca6)" style="fill: none; stroke: #4ac1fa; stroke-width: 1.5; stroke-linecap: square"/>
   </g>
   <g id="line2d_48">
    <path d="M 54.691875 489.678876 
L 72.394699 476.804018 
L 90.097522 490.929499 
L 107.800346 494.604909 
L 125.503169 461.599944 
L 143.205993 442.403708 
L 160.908816 344.44556 
L 178.61164 181.233862 
L 196.314463 193.305919 
L 214.017287 171.127849 
L 231.72011 348.858237 
L 249.422934 319.4768 
L 267.125757 331.354983 
L 284.828581 327.851602 
L 302.531404 313.23734 
L 320.234228 356.408392 
L 337.937051 353.12346 
L 355.639875 337.526177 
L 373.342699 357.224847 
L 391.045522 364.567475 
L 408.748346 396.122483 
L 426.451169 383.0046 
L 444.153993 407.525539 
L 461.856816 404.773077 
L 479.55964 424.654698 
L 497.262463 399.841583 
L 514.965287 371.260217 
L 568.073757 204.629787 
L 585.776581 186.837088 
L 603.479404 149.187343 
L 621.182228 187.164762 
L 638.885051 183.726915 
L 656.587875 272.94982 
L 674.290699 181.695337 
L 691.993522 329.828568 
L 709.696346 457.2883 
L 727.399169 459.94519 
L 745.101993 459.14785 
L 762.804816 454.156282 
L 780.50764 470.449873 
L 798.210463 458.014644 
L 815.913287 453.154146 
L 833.61611 462.435513 
L 851.318934 477.426599 
L 869.021757 469.813639 
L 886.724581 466.116384 
L 904.427404 465.261701 
L 922.130228 456.676642 
L 939.833051 457.239149 
L 957.535875 445.587607 
" clip-path="url(#peb26639ca6)" style="fill: none; stroke: #e9a942; stroke-width: 1.5; stroke-linecap: square"/>
   </g>
   <g id="line2d_49">
    <path d="M 54.691875 427.057641 
L 72.394699 426.574322 
L 90.097522 417.904614 
L 107.800346 436.928821 
L 125.503169 441.753821 
L 143.205993 452.345883 
L 160.908816 448.634975 
L 178.61164 424.075808 
L 196.314463 399.60402 
L 214.017287 445.710485 
L 231.72011 430.358957 
L 249.422934 414.133632 
L 267.125757 374.973856 
L 284.828581 406.853807 
L 302.531404 396.155251 
L 320.234228 415.512593 
L 337.937051 413.702194 
L 355.639875 410.818663 
L 373.342699 405.84894 
L 391.045522 427.966936 
L 408.748346 403.14836 
L 426.451169 379.760627 
L 444.153993 410.204274 
L 461.856816 425.19263 
L 479.55964 442.166144 
L 497.262463 392.987735 
L 514.965287 361.257968 
L 568.073757 416.823289 
L 585.776581 396.051487 
L 603.479404 374.070022 
L 621.182228 363.076558 
L 638.885051 422.997214 
L 656.587875 438.870289 
L 674.290699 428.622285 
L 691.993522 440.470431 
L 709.696346 427.074025 
L 727.399169 425.837055 
L 745.101993 428.059777 
L 762.804816 359.472144 
L 780.50764 403.658986 
L 798.210463 424.037579 
L 815.913287 404.486362 
L 833.61611 409.34686 
L 851.318934 409.333207 
L 869.021757 403.134707 
L 886.724581 387.389971 
L 904.427404 396.193479 
L 922.130228 390.79505 
L 939.833051 376.890749 
L 957.535875 382.324676 
" clip-path="url(#peb26639ca6)" style="fill: none; stroke: #9a5689; stroke-width: 1.5; stroke-linecap: square"/>
   </g>
   <g id="line2d_50">
    <path d="M 54.691875 495.869185 
L 72.394699 527.263086 
L 90.097522 525.073132 
L 107.800346 521.692628 
L 125.503169 521.547905 
L 143.205993 513.304173 
L 160.908816 510.827504 
L 178.61164 496.450806 
L 196.314463 520.99086 
L 214.017287 506.261912 
L 231.72011 502.922368 
L 249.422934 498.597071 
L 267.125757 491.445586 
L 284.828581 492.095472 
L 302.531404 474.988158 
L 320.234228 503.678749 
L 337.937051 478.860173 
L 355.639875 509.459465 
L 373.342699 504.962139 
L 391.045522 516.266892 
L 408.748346 511.725877 
L 426.451169 511.267133 
L 444.153993 501.82466 
L 461.856816 505.702136 
L 479.55964 513.255022 
L 497.262463 486.568704 
L 514.965287 483.193662 
L 568.073757 489.493195 
L 585.776581 497.649547 
L 603.479404 496.1559 
L 621.182228 478.947552 
L 638.885051 488.40914 
L 656.587875 500.481197 
L 674.290699 474.575835 
L 691.993522 477.806155 
L 709.696346 470.490832 
L 727.399169 460.622383 
L 745.101993 472.484182 
L 762.804816 465.91978 
L 780.50764 507.321392 
L 798.210463 473.104032 
L 815.913287 469.90648 
L 833.61611 483.392997 
L 851.318934 463.148204 
L 869.021757 471.375552 
L 886.724581 472.830971 
L 904.427404 438.897596 
L 922.130228 465.818747 
L 939.833051 460.682457 
L 957.535875 454.41023 
" clip-path="url(#peb26639ca6)" style="fill: none; stroke: #be503b; stroke-width: 1.5; stroke-linecap: square"/>
   </g>
   <g id="line2d_51">
    <path d="M 54.691875 380.314942 
L 72.394699 376.800639 
L 90.097522 376.205364 
L 107.800346 376.956284 
L 125.503169 386.4561 
L 143.205993 378.496352 
L 160.908816 399.620403 
L 178.61164 390.950695 
L 196.314463 404.713004 
L 214.017287 453.301599 
L 231.72011 434.733405 
L 249.422934 410.744936 
L 267.125757 386.065621 
L 284.828581 375.293338 
L 302.531404 370.738669 
L 320.234228 365.96282 
L 337.937051 361.006751 
L 355.639875 360.468819 
L 373.342699 358.415396 
L 391.045522 374.179246 
L 408.748346 365.20644 
L 426.451169 360.504317 
L 444.153993 358.349861 
L 461.856816 366.831157 
L 479.55964 385.410273 
L 497.262463 353.647739 
L 514.965287 353.448404 
L 568.073757 373.054232 
L 585.776581 338.435472 
L 603.479404 354.00818 
L 621.182228 347.41374 
L 638.885051 344.538401 
L 656.587875 369.436165 
L 674.290699 314.507077 
L 691.993522 355.15777 
L 709.696346 326.005705 
L 727.399169 307.057955 
L 745.101993 316.145447 
L 762.804816 312.289816 
L 780.50764 328.870122 
L 798.210463 328.722668 
L 815.913287 280.131342 
L 833.61611 277.646481 
L 851.318934 295.133351 
L 869.021757 312.022216 
L 886.724581 301.293622 
L 904.427404 296.848178 
L 922.130228 306.918693 
L 939.833051 299.267505 
L 957.535875 278.192604 
" clip-path="url(#peb26639ca6)" style="fill: none; stroke: #e2321d; stroke-width: 1.5; stroke-linecap: square"/>
   </g>
   <g id="line2d_52">
    <path d="M 54.691875 253.245689 
L 72.394699 297.331497 
L 90.097522 301.37281 
L 107.800346 226.551179 
L 125.503169 238.28737 
L 143.205993 216.800146 
L 160.908816 224.249269 
L 178.61164 199.070251 
L 196.314463 206.079745 
L 214.017287 219.047444 
L 231.72011 256.052763 
L 249.422934 229.961719 
L 267.125757 263.351702 
L 284.828581 295.540213 
L 302.531404 329.784878 
L 320.234228 272.365468 
L 337.937051 277.810318 
L 355.639875 295.887001 
L 373.342699 270.672485 
L 391.045522 331.554318 
L 408.748346 261.620491 
L 426.451169 198.48863 
L 444.153993 274.047528 
L 461.856816 287.970943 
L 479.55964 305.411393 
L 497.262463 226.832432 
L 514.965287 287.094415 
L 568.073757 267.322019 
L 585.776581 295.354531 
L 603.479404 248.906739 
L 621.182228 217.507376 
L 638.885051 228.683791 
L 656.587875 277.646481 
L 674.290699 265.517081 
L 691.993522 320.427054 
L 709.696346 249.780536 
L 727.399169 209.047925 
L 745.101993 194.234329 
L 762.804816 175.270195 
L 780.50764 206.696864 
L 798.210463 178.839111 
L 815.913287 199.646411 
L 833.61611 213.987611 
L 851.318934 127.978643 
L 869.021757 126.689791 
L 886.724581 48.099909 
L 904.427404 100.391221 
L 922.130228 140.285533 
L 939.833051 183.355552 
L 957.535875 123.770762 
" clip-path="url(#peb26639ca6)" style="fill: none; stroke: #48b585; stroke-width: 6; stroke-linecap: square"/>
   </g>
   <g id="patch_3">
    <path d="M 54.691875 567.74175 
L 54.691875 24.14175 
" style="fill: none; stroke: #ffffff; stroke-linejoin: miter; stroke-linecap: square"/>
   </g>
   <g id="patch_4">
    <path d="M 957.535875 567.74175 
L 957.535875 24.14175 
" style="fill: none; stroke: #ffffff; stroke-linejoin: miter; stroke-linecap: square"/>
   </g>
   <g id="patch_5">
    <path d="M 54.691875 567.74175 
L 957.535875 567.74175 
" style="fill: none; stroke: #ffffff; stroke-linejoin: miter; stroke-linecap: square"/>
   </g>
   <g id="patch_6">
    <path d="M 54.691875 24.14175 
L 957.535875 24.14175 
" style="fill: none; stroke: #ffffff; stroke-linejoin: miter; stroke-linecap: square"/>
   </g>
   <g id="text_23">
    <!-- Potentially Ephemeral Enterprise Linux 8 and 9 Instances by Distribution -->
    <g transform="translate(54.691875 18.14175)scale(0.144 -0.144)">
     <defs>
      <path id="DejaVuSans-50" d="M 1259 4147 
L 1259 2394 
L 2053 2394 
Q 2494 2394 2734 2622 
Q 2975 2850 2975 3272 
Q 2975 3691 2734 3919 
Q 2494 4147 2053 4147 
L 1259 4147 
z
M 628 4666 
L 2053 4666 
Q 2838 4666 3239 4311 
Q 3641 3956 3641 3272 
Q 3641 2581 3239 2228 
Q 2838 1875 2053 1875 
L 1259 1875 
L 1259 0 
L 628 0 
L 628 4666 
z
" transform="scale(0.015625)"/>
      <path id="DejaVuSans-6f" d="M 1959 3097 
Q 1497 3097 1228 2736 
Q 959 2375 959 1747 
Q 959 1119 1226 758 
Q 1494 397 1959 397 
Q 2419 397 2687 759 
Q 2956 1122 2956 1747 
Q 2956 2369 2687 2733 
Q 2419 3097 1959 3097 
z
M 1959 3584 
Q 2709 3584 3137 3096 
Q 3566 2609 3566 1747 
Q 3566 888 3137 398 
Q 2709 -91 1959 -91 
Q 1206 -91 779 398 
Q 353 888 353 1747 
Q 353 2609 779 3096 
Q 1206 3584 1959 3584 
z
" transform="scale(0.015625)"/>
      <path id="DejaVuSans-69" d="M 603 3500 
L 1178 3500 
L 1178 0 
L 603 0 
L 603 3500 
z
M 603 4863 
L 1178 4863 
L 1178 4134 
L 603 4134 
L 603 4863 
z
" transform="scale(0.015625)"/>
      <path id="DejaVuSans-6c" d="M 603 4863 
L 1178 4863 
L 1178 0 
L 603 0 
L 603 4863 
z
" transform="scale(0.015625)"/>
      <path id="DejaVuSans-79" d="M 2059 -325 
Q 1816 -950 1584 -1140 
Q 1353 -1331 966 -1331 
L 506 -1331 
L 506 -850 
L 844 -850 
Q 1081 -850 1212 -737 
Q 1344 -625 1503 -206 
L 1606 56 
L 191 3500 
L 800 3500 
L 1894 763 
L 2988 3500 
L 3597 3500 
L 2059 -325 
z
" transform="scale(0.015625)"/>
      <path id="DejaVuSans-20" transform="scale(0.015625)"/>
      <path id="DejaVuSans-45" d="M 628 4666 
L 3578 4666 
L 3578 4134 
L 1259 4134 
L 1259 2753 
L 3481 2753 
L 3481 2222 
L 1259 2222 
L 1259 531 
L 3634 531 
L 3634 0 
L 628 0 
L 628 4666 
z
" transform="scale(0.015625)"/>
      <path id="DejaVuSans-70" d="M 1159 525 
L 1159 -1331 
L 581 -1331 
L 581 3500 
L 1159 3500 
L 1159 2969 
Q 1341 3281 1617 3432 
Q 1894 3584 2278 3584 
Q 2916 3584 3314 3078 
Q 3713 2572 3713 1747 
Q 3713 922 3314 415 
Q 2916 -91 2278 -91 
Q 1894 -91 1617 61 
Q 1341 213 1159 525 
z
M 3116 1747 
Q 3116 2381 2855 2742 
Q 2594 3103 2138 3103 
Q 1681 3103 1420 2742 
Q 1159 2381 1159 1747 
Q 1159 1113 1420 752 
Q 1681 391 2138 391 
Q 2594 391 2855 752 
Q 3116 1113 3116 1747 
z
" transform="scale(0.015625)"/>
      <path id="DejaVuSans-68" d="M 3513 2113 
L 3513 0 
L 2938 0 
L 2938 2094 
Q 2938 2591 2744 2837 
Q 2550 3084 2163 3084 
Q 1697 3084 1428 2787 
Q 1159 2491 1159 1978 
L 1159 0 
L 581 0 
L 581 4863 
L 1159 4863 
L 1159 2956 
Q 1366 3272 1645 3428 
Q 1925 3584 2291 3584 
Q 2894 3584 3203 3211 
Q 3513 2838 3513 2113 
z
" transform="scale(0.015625)"/>
      <path id="DejaVuSans-6d" d="M 3328 2828 
Q 3544 3216 3844 3400 
Q 4144 3584 4550 3584 
Q 5097 3584 5394 3201 
Q 5691 2819 5691 2113 
L 5691 0 
L 5113 0 
L 5113 2094 
Q 5113 2597 4934 2840 
Q 4756 3084 4391 3084 
Q 3944 3084 3684 2787 
Q 3425 2491 3425 1978 
L 3425 0 
L 2847 0 
L 2847 2094 
Q 2847 2600 2669 2842 
Q 2491 3084 2119 3084 
Q 1678 3084 1418 2786 
Q 1159 2488 1159 1978 
L 1159 0 
L 581 0 
L 581 3500 
L 1159 3500 
L 1159 2956 
Q 1356 3278 1631 3431 
Q 1906 3584 2284 3584 
Q 2666 3584 2933 3390 
Q 3200 3197 3328 2828 
z
" transform="scale(0.015625)"/>
      <path id="DejaVuSans-72" d="M 2631 2963 
Q 2534 3019 2420 3045 
Q 2306 3072 2169 3072 
Q 1681 3072 1420 2755 
Q 1159 2438 1159 1844 
L 1159 0 
L 581 0 
L 581 3500 
L 1159 3500 
L 1159 2956 
Q 1341 3275 1631 3429 
Q 1922 3584 2338 3584 
Q 2397 3584 2469 3576 
Q 2541 3569 2628 3553 
L 2631 2963 
z
" transform="scale(0.015625)"/>
      <path id="DejaVuSans-4c" d="M 628 4666 
L 1259 4666 
L 1259 531 
L 3531 531 
L 3531 0 
L 628 0 
L 628 4666 
z
" transform="scale(0.015625)"/>
      <path id="DejaVuSans-75" d="M 544 1381 
L 544 3500 
L 1119 3500 
L 1119 1403 
Q 1119 906 1312 657 
Q 1506 409 1894 409 
Q 2359 409 2629 706 
Q 2900 1003 2900 1516 
L 2900 3500 
L 3475 3500 
L 3475 0 
L 2900 0 
L 2900 538 
Q 2691 219 2414 64 
Q 2138 -91 1772 -91 
Q 1169 -91 856 284 
Q 544 659 544 1381 
z
M 1991 3584 
L 1991 3584 
z
" transform="scale(0.015625)"/>
      <path id="DejaVuSans-78" d="M 3513 3500 
L 2247 1797 
L 3578 0 
L 2900 0 
L 1881 1375 
L 863 0 
L 184 0 
L 1544 1831 
L 300 3500 
L 978 3500 
L 1906 2253 
L 2834 3500 
L 3513 3500 
z
" transform="scale(0.015625)"/>
      <path id="DejaVuSans-64" d="M 2906 2969 
L 2906 4863 
L 3481 4863 
L 3481 0 
L 2906 0 
L 2906 525 
Q 2725 213 2448 61 
Q 2172 -91 1784 -91 
Q 1150 -91 751 415 
Q 353 922 353 1747 
Q 353 2572 751 3078 
Q 1150 3584 1784 3584 
Q 2172 3584 2448 3432 
Q 2725 3281 2906 2969 
z
M 947 1747 
Q 947 1113 1208 752 
Q 1469 391 1925 391 
Q 2381 391 2643 752 
Q 2906 1113 2906 1747 
Q 2906 2381 2643 2742 
Q 2381 3103 1925 3103 
Q 1469 3103 1208 2742 
Q 947 2381 947 1747 
z
" transform="scale(0.015625)"/>
      <path id="DejaVuSans-62" d="M 3116 1747 
Q 3116 2381 2855 2742 
Q 2594 3103 2138 3103 
Q 1681 3103 1420 2742 
Q 1159 2381 1159 1747 
Q 1159 1113 1420 752 
Q 1681 391 2138 391 
Q 2594 391 2855 752 
Q 3116 1113 3116 1747 
z
M 1159 2969 
Q 1341 3281 1617 3432 
Q 1894 3584 2278 3584 
Q 2916 3584 3314 3078 
Q 3713 2572 3713 1747 
Q 3713 922 3314 415 
Q 2916 -91 2278 -91 
Q 1894 -91 1617 61 
Q 1341 213 1159 525 
L 1159 0 
L 581 0 
L 581 4863 
L 1159 4863 
L 1159 2969 
z
" transform="scale(0.015625)"/>
     </defs>
     <use xlink:href="#DejaVuSans-50"/>
     <use xlink:href="#DejaVuSans-6f" x="56.677734"/>
     <use xlink:href="#DejaVuSans-74" x="117.859375"/>
     <use xlink:href="#DejaVuSans-65" x="157.068359"/>
     <use xlink:href="#DejaVuSans-6e" x="218.591797"/>
     <use xlink:href="#DejaVuSans-74" x="281.970703"/>
     <use xlink:href="#DejaVuSans-69" x="321.179688"/>
     <use xlink:href="#DejaVuSans-61" x="348.962891"/>
     <use xlink:href="#DejaVuSans-6c" x="410.242188"/>
     <use xlink:href="#DejaVuSans-6c" x="438.025391"/>
     <use xlink:href="#DejaVuSans-79" x="465.808594"/>
     <use xlink:href="#DejaVuSans-20" x="524.988281"/>
     <use xlink:href="#DejaVuSans-45" x="556.775391"/>
     <use xlink:href="#DejaVuSans-70" x="619.958984"/>
     <use xlink:href="#DejaVuSans-68" x="683.435547"/>
     <use xlink:href="#DejaVuSans-65" x="746.814453"/>
     <use xlink:href="#DejaVuSans-6d" x="808.337891"/>
     <use xlink:href="#DejaVuSans-65" x="905.75"/>
     <use xlink:href="#DejaVuSans-72" x="967.273438"/>
     <use xlink:href="#DejaVuSans-61" x="1008.386719"/>
     <use xlink:href="#DejaVuSans-6c" x="1069.666016"/>
     <use xlink:href="#DejaVuSans-20" x="1097.449219"/>
     <use xlink:href="#DejaVuSans-45" x="1129.236328"/>
     <use xlink:href="#DejaVuSans-6e" x="1192.419922"/>
     <use xlink:href="#DejaVuSans-74" x="1255.798828"/>
     <use xlink:href="#DejaVuSans-65" x="1295.007812"/>
     <use xlink:href="#DejaVuSans-72" x="1356.53125"/>
     <use xlink:href="#DejaVuSans-70" x="1397.644531"/>
     <use xlink:href="#DejaVuSans-72" x="1461.121094"/>
     <use xlink:href="#DejaVuSans-69" x="1502.234375"/>
     <use xlink:href="#DejaVuSans-73" x="1530.017578"/>
     <use xlink:href="#DejaVuSans-65" x="1582.117188"/>
     <use xlink:href="#DejaVuSans-20" x="1643.640625"/>
     <use xlink:href="#DejaVuSans-4c" x="1675.427734"/>
     <use xlink:href="#DejaVuSans-69" x="1731.140625"/>
     <use xlink:href="#DejaVuSans-6e" x="1758.923828"/>
     <use xlink:href="#DejaVuSans-75" x="1822.302734"/>
     <use xlink:href="#DejaVuSans-78" x="1885.681641"/>
     <use xlink:href="#DejaVuSans-20" x="1944.861328"/>
     <use xlink:href="#DejaVuSans-38" x="1976.648438"/>
     <use xlink:href="#DejaVuSans-20" x="2040.271484"/>
     <use xlink:href="#DejaVuSans-61" x="2072.058594"/>
     <use xlink:href="#DejaVuSans-6e" x="2133.337891"/>
     <use xlink:href="#DejaVuSans-64" x="2196.716797"/>
     <use xlink:href="#DejaVuSans-20" x="2260.193359"/>
     <use xlink:href="#DejaVuSans-39" x="2291.980469"/>
     <use xlink:href="#DejaVuSans-20" x="2355.603516"/>
     <use xlink:href="#DejaVuSans-49" x="2387.390625"/>
     <use xlink:href="#DejaVuSans-6e" x="2416.882812"/>
     <use xlink:href="#DejaVuSans-73" x="2480.261719"/>
     <use xlink:href="#DejaVuSans-74" x="2532.361328"/>
     <use xlink:href="#DejaVuSans-61" x="2571.570312"/>
     <use xlink:href="#DejaVuSans-6e" x="2632.849609"/>
     <use xlink:href="#DejaVuSans-63" x="2696.228516"/>
     <use xlink:href="#DejaVuSans-65" x="2751.208984"/>
     <use xlink:href="#DejaVuSans-73" x="2812.732422"/>
     <use xlink:href="#DejaVuSans-20" x="2864.832031"/>
     <use xlink:href="#DejaVuSans-62" x="2896.619141"/>
     <use xlink:href="#DejaVuSans-79" x="2960.095703"/>
     <use xlink:href="#DejaVuSans-20" x="3019.275391"/>
     <use xlink:href="#DejaVuSans-44" x="3051.0625"/>
     <use xlink:href="#DejaVuSans-69" x="3128.064453"/>
     <use xlink:href="#DejaVuSans-73" x="3155.847656"/>
     <use xlink:href="#DejaVuSans-74" x="3207.947266"/>
     <use xlink:href="#DejaVuSans-72" x="3247.15625"/>
     <use xlink:href="#DejaVuSans-69" x="3288.269531"/>
     <use xlink:href="#DejaVuSans-62" x="3316.052734"/>
     <use xlink:href="#DejaVuSans-75" x="3379.529297"/>
     <use xlink:href="#DejaVuSans-74" x="3442.908203"/>
     <use xlink:href="#DejaVuSans-69" x="3482.117188"/>
     <use xlink:href="#DejaVuSans-6f" x="3509.900391"/>
     <use xlink:href="#DejaVuSans-6e" x="3571.082031"/>
    </g>
   </g>
   <g id="text_24">
    <!-- 2023-10-26 11:55 UTC -->
    <g transform="translate(794.653875 18.14175)scale(0.144 -0.144)">
     <defs>
      <path id="DejaVuSans-3a" d="M 750 794 
L 1409 794 
L 1409 0 
L 750 0 
L 750 794 
z
M 750 3309 
L 1409 3309 
L 1409 2516 
L 750 2516 
L 750 3309 
z
" transform="scale(0.015625)"/>
      <path id="DejaVuSans-55" d="M 556 4666 
L 1191 4666 
L 1191 1831 
Q 1191 1081 1462 751 
Q 1734 422 2344 422 
Q 2950 422 3222 751 
Q 3494 1081 3494 1831 
L 3494 4666 
L 4128 4666 
L 4128 1753 
Q 4128 841 3676 375 
Q 3225 -91 2344 -91 
Q 1459 -91 1007 375 
Q 556 841 556 1753 
L 556 4666 
z
" transform="scale(0.015625)"/>
      <path id="DejaVuSans-54" d="M -19 4666 
L 3928 4666 
L 3928 4134 
L 2272 4134 
L 2272 0 
L 1638 0 
L 1638 4134 
L -19 4134 
L -19 4666 
z
" transform="scale(0.015625)"/>
      <path id="DejaVuSans-43" d="M 4122 4306 
L 4122 3641 
Q 3803 3938 3442 4084 
Q 3081 4231 2675 4231 
Q 1875 4231 1450 3742 
Q 1025 3253 1025 2328 
Q 1025 1406 1450 917 
Q 1875 428 2675 428 
Q 3081 428 3442 575 
Q 3803 722 4122 1019 
L 4122 359 
Q 3791 134 3420 21 
Q 3050 -91 2638 -91 
Q 1578 -91 968 557 
Q 359 1206 359 2328 
Q 359 3453 968 4101 
Q 1578 4750 2638 4750 
Q 3056 4750 3426 4639 
Q 3797 4528 4122 4306 
z
" transform="scale(0.015625)"/>
     </defs>
     <use xlink:href="#DejaVuSans-32"/>
     <use xlink:href="#DejaVuSans-30" x="63.623047"/>
     <use xlink:href="#DejaVuSans-32" x="127.246094"/>
     <use xlink:href="#DejaVuSans-33" x="190.869141"/>
     <use xlink:href="#DejaVuSans-2d" x="254.492188"/>
     <use xlink:href="#DejaVuSans-31" x="290.576172"/>
     <use xlink:href="#DejaVuSans-30" x="354.199219"/>
     <use xlink:href="#DejaVuSans-2d" x="417.822266"/>
     <use xlink:href="#DejaVuSans-32" x="453.90625"/>
     <use xlink:href="#DejaVuSans-36" x="517.529297"/>
     <use xlink:href="#DejaVuSans-20" x="581.152344"/>
     <use xlink:href="#DejaVuSans-31" x="612.939453"/>
     <use xlink:href="#DejaVuSans-31" x="676.5625"/>
     <use xlink:href="#DejaVuSans-3a" x="740.185547"/>
     <use xlink:href="#DejaVuSans-35" x="773.876953"/>
     <use xlink:href="#DejaVuSans-35" x="837.5"/>
     <use xlink:href="#DejaVuSans-20" x="901.123047"/>
     <use xlink:href="#DejaVuSans-55" x="932.910156"/>
     <use xlink:href="#DejaVuSans-54" x="1006.103516"/>
     <use xlink:href="#DejaVuSans-43" x="1061.3125"/>
    </g>
   </g>
   <g id="legend_1">
    <g id="patch_7">
     <path d="M 61.691875 134.888625 
L 170.660625 134.888625 
Q 172.660625 134.888625 172.660625 132.888625 
L 172.660625 31.14175 
Q 172.660625 29.14175 170.660625 29.14175 
L 61.691875 29.14175 
Q 59.691875 29.14175 59.691875 31.14175 
L 59.691875 132.888625 
Q 59.691875 134.888625 61.691875 134.888625 
z
" style="fill: #e5e5e5; opacity: 0.8; stroke: #cccccc; stroke-width: 0.5; stroke-linejoin: miter"/>
    </g>
    <g id="text_25">
     <!-- Distribution -->
     <g transform="translate(87.0075 40.740187)scale(0.1 -0.1)">
      <use xlink:href="#DejaVuSans-44"/>
      <use xlink:href="#DejaVuSans-69" x="77.001953"/>
      <use xlink:href="#DejaVuSans-73" x="104.785156"/>
      <use xlink:href="#DejaVuSans-74" x="156.884766"/>
      <use xlink:href="#DejaVuSans-72" x="196.09375"/>
      <use xlink:href="#DejaVuSans-69" x="237.207031"/>
      <use xlink:href="#DejaVuSans-62" x="264.990234"/>
      <use xlink:href="#DejaVuSans-75" x="328.466797"/>
      <use xlink:href="#DejaVuSans-74" x="391.845703"/>
      <use xlink:href="#DejaVuSans-69" x="431.054688"/>
      <use xlink:href="#DejaVuSans-6f" x="458.837891"/>
      <use xlink:href="#DejaVuSans-6e" x="520.019531"/>
     </g>
    </g>
    <g id="line2d_53">
     <path d="M 63.691875 51.918312 
L 73.691875 51.918312 
L 83.691875 51.918312 
" style="fill: none; stroke: #4ac1fa; stroke-width: 1.5; stroke-linecap: square"/>
    </g>
    <g id="text_26">
     <!-- AlmaLinux -->
     <g transform="translate(91.691875 55.418312)scale(0.1 -0.1)">
      <defs>
       <path id="DejaVuSans-41" d="M 2188 4044 
L 1331 1722 
L 3047 1722 
L 2188 4044 
z
M 1831 4666 
L 2547 4666 
L 4325 0 
L 3669 0 
L 3244 1197 
L 1141 1197 
L 716 0 
L 50 0 
L 1831 4666 
z
" transform="scale(0.015625)"/>
      </defs>
      <use xlink:href="#DejaVuSans-41"/>
      <use xlink:href="#DejaVuSans-6c" x="68.408203"/>
      <use xlink:href="#DejaVuSans-6d" x="96.191406"/>
      <use xlink:href="#DejaVuSans-61" x="193.603516"/>
      <use xlink:href="#DejaVuSans-4c" x="254.882812"/>
      <use xlink:href="#DejaVuSans-69" x="310.595703"/>
      <use xlink:href="#DejaVuSans-6e" x="338.378906"/>
      <use xlink:href="#DejaVuSans-75" x="401.757812"/>
      <use xlink:href="#DejaVuSans-78" x="465.136719"/>
     </g>
    </g>
    <g id="line2d_54">
     <path d="M 63.691875 66.596437 
L 73.691875 66.596437 
L 83.691875 66.596437 
" style="fill: none; stroke: #e9a942; stroke-width: 1.5; stroke-linecap: square"/>
    </g>
    <g id="text_27">
     <!-- CentOS Legacy -->
     <g transform="translate(91.691875 70.096437)scale(0.1 -0.1)">
      <defs>
       <path id="DejaVuSans-4f" d="M 2522 4238 
Q 1834 4238 1429 3725 
Q 1025 3213 1025 2328 
Q 1025 1447 1429 934 
Q 1834 422 2522 422 
Q 3209 422 3611 934 
Q 4013 1447 4013 2328 
Q 4013 3213 3611 3725 
Q 3209 4238 2522 4238 
z
M 2522 4750 
Q 3503 4750 4090 4092 
Q 4678 3434 4678 2328 
Q 4678 1225 4090 567 
Q 3503 -91 2522 -91 
Q 1538 -91 948 565 
Q 359 1222 359 2328 
Q 359 3434 948 4092 
Q 1538 4750 2522 4750 
z
" transform="scale(0.015625)"/>
       <path id="DejaVuSans-53" d="M 3425 4513 
L 3425 3897 
Q 3066 4069 2747 4153 
Q 2428 4238 2131 4238 
Q 1616 4238 1336 4038 
Q 1056 3838 1056 3469 
Q 1056 3159 1242 3001 
Q 1428 2844 1947 2747 
L 2328 2669 
Q 3034 2534 3370 2195 
Q 3706 1856 3706 1288 
Q 3706 609 3251 259 
Q 2797 -91 1919 -91 
Q 1588 -91 1214 -16 
Q 841 59 441 206 
L 441 856 
Q 825 641 1194 531 
Q 1563 422 1919 422 
Q 2459 422 2753 634 
Q 3047 847 3047 1241 
Q 3047 1584 2836 1778 
Q 2625 1972 2144 2069 
L 1759 2144 
Q 1053 2284 737 2584 
Q 422 2884 422 3419 
Q 422 4038 858 4394 
Q 1294 4750 2059 4750 
Q 2388 4750 2728 4690 
Q 3069 4631 3425 4513 
z
" transform="scale(0.015625)"/>
       <path id="DejaVuSans-67" d="M 2906 1791 
Q 2906 2416 2648 2759 
Q 2391 3103 1925 3103 
Q 1463 3103 1205 2759 
Q 947 2416 947 1791 
Q 947 1169 1205 825 
Q 1463 481 1925 481 
Q 2391 481 2648 825 
Q 2906 1169 2906 1791 
z
M 3481 434 
Q 3481 -459 3084 -895 
Q 2688 -1331 1869 -1331 
Q 1566 -1331 1297 -1286 
Q 1028 -1241 775 -1147 
L 775 -588 
Q 1028 -725 1275 -790 
Q 1522 -856 1778 -856 
Q 2344 -856 2625 -561 
Q 2906 -266 2906 331 
L 2906 616 
Q 2728 306 2450 153 
Q 2172 0 1784 0 
Q 1141 0 747 490 
Q 353 981 353 1791 
Q 353 2603 747 3093 
Q 1141 3584 1784 3584 
Q 2172 3584 2450 3431 
Q 2728 3278 2906 2969 
L 2906 3500 
L 3481 3500 
L 3481 434 
z
" transform="scale(0.015625)"/>
      </defs>
      <use xlink:href="#DejaVuSans-43"/>
      <use xlink:href="#DejaVuSans-65" x="69.824219"/>
      <use xlink:href="#DejaVuSans-6e" x="131.347656"/>
      <use xlink:href="#DejaVuSans-74" x="194.726562"/>
      <use xlink:href="#DejaVuSans-4f" x="233.935547"/>
      <use xlink:href="#DejaVuSans-53" x="312.646484"/>
      <use xlink:href="#DejaVuSans-20" x="376.123047"/>
      <use xlink:href="#DejaVuSans-4c" x="407.910156"/>
      <use xlink:href="#DejaVuSans-65" x="461.873047"/>
      <use xlink:href="#DejaVuSans-67" x="523.396484"/>
      <use xlink:href="#DejaVuSans-61" x="586.873047"/>
      <use xlink:href="#DejaVuSans-63" x="648.152344"/>
      <use xlink:href="#DejaVuSans-79" x="703.132812"/>
     </g>
    </g>
    <g id="line2d_55">
     <path d="M 63.691875 81.274563 
L 73.691875 81.274563 
L 83.691875 81.274563 
" style="fill: none; stroke: #9a5689; stroke-width: 1.5; stroke-linecap: square"/>
    </g>
    <g id="text_28">
     <!-- CentOS Stream -->
     <g transform="translate(91.691875 84.774563)scale(0.1 -0.1)">
      <use xlink:href="#DejaVuSans-43"/>
      <use xlink:href="#DejaVuSans-65" x="69.824219"/>
      <use xlink:href="#DejaVuSans-6e" x="131.347656"/>
      <use xlink:href="#DejaVuSans-74" x="194.726562"/>
      <use xlink:href="#DejaVuSans-4f" x="233.935547"/>
      <use xlink:href="#DejaVuSans-53" x="312.646484"/>
      <use xlink:href="#DejaVuSans-20" x="376.123047"/>
      <use xlink:href="#DejaVuSans-53" x="407.910156"/>
      <use xlink:href="#DejaVuSans-74" x="471.386719"/>
      <use xlink:href="#DejaVuSans-72" x="510.595703"/>
      <use xlink:href="#DejaVuSans-65" x="549.458984"/>
      <use xlink:href="#DejaVuSans-61" x="610.982422"/>
      <use xlink:href="#DejaVuSans-6d" x="672.261719"/>
     </g>
    </g>
    <g id="line2d_56">
     <path d="M 63.691875 95.952687 
L 73.691875 95.952687 
L 83.691875 95.952687 
" style="fill: none; stroke: #be503b; stroke-width: 1.5; stroke-linecap: square"/>
    </g>
    <g id="text_29">
     <!-- Oracle -->
     <g transform="translate(91.691875 99.452687)scale(0.1 -0.1)">
      <use xlink:href="#DejaVuSans-4f"/>
      <use xlink:href="#DejaVuSans-72" x="78.710938"/>
      <use xlink:href="#DejaVuSans-61" x="119.824219"/>
      <use xlink:href="#DejaVuSans-63" x="181.103516"/>
      <use xlink:href="#DejaVuSans-6c" x="236.083984"/>
      <use xlink:href="#DejaVuSans-65" x="263.867188"/>
     </g>
    </g>
    <g id="line2d_57">
     <path d="M 63.691875 110.630812 
L 73.691875 110.630812 
L 83.691875 110.630812 
" style="fill: none; stroke: #e2321d; stroke-width: 1.5; stroke-linecap: square"/>
    </g>
    <g id="text_30">
     <!-- RHEL -->
     <g transform="translate(91.691875 114.130812)scale(0.1 -0.1)">
      <defs>
       <path id="DejaVuSans-52" d="M 2841 2188 
Q 3044 2119 3236 1894 
Q 3428 1669 3622 1275 
L 4263 0 
L 3584 0 
L 2988 1197 
Q 2756 1666 2539 1819 
Q 2322 1972 1947 1972 
L 1259 1972 
L 1259 0 
L 628 0 
L 628 4666 
L 2053 4666 
Q 2853 4666 3247 4331 
Q 3641 3997 3641 3322 
Q 3641 2881 3436 2590 
Q 3231 2300 2841 2188 
z
M 1259 4147 
L 1259 2491 
L 2053 2491 
Q 2509 2491 2742 2702 
Q 2975 2913 2975 3322 
Q 2975 3731 2742 3939 
Q 2509 4147 2053 4147 
L 1259 4147 
z
" transform="scale(0.015625)"/>
       <path id="DejaVuSans-48" d="M 628 4666 
L 1259 4666 
L 1259 2753 
L 3553 2753 
L 3553 4666 
L 4184 4666 
L 4184 0 
L 3553 0 
L 3553 2222 
L 1259 2222 
L 1259 0 
L 628 0 
L 628 4666 
z
" transform="scale(0.015625)"/>
      </defs>
      <use xlink:href="#DejaVuSans-52"/>
      <use xlink:href="#DejaVuSans-48" x="69.482422"/>
      <use xlink:href="#DejaVuSans-45" x="144.677734"/>
      <use xlink:href="#DejaVuSans-4c" x="207.861328"/>
     </g>
    </g>
    <g id="line2d_58">
     <path d="M 63.691875 125.308937 
L 73.691875 125.308937 
L 83.691875 125.308937 
" style="fill: none; stroke: #48b585; stroke-width: 6; stroke-linecap: square"/>
    </g>
    <g id="text_31">
     <!-- Rocky Linux -->
     <g transform="translate(91.691875 128.808937)scale(0.1 -0.1)">
      <use xlink:href="#DejaVuSans-52"/>
      <use xlink:href="#DejaVuSans-6f" x="64.982422"/>
      <use xlink:href="#DejaVuSans-63" x="126.164062"/>
      <use xlink:href="#DejaVuSans-6b" x="181.144531"/>
      <use xlink:href="#DejaVuSans-79" x="235.429688"/>
      <use xlink:href="#DejaVuSans-20" x="294.609375"/>
      <use xlink:href="#DejaVuSans-4c" x="326.396484"/>
      <use xlink:href="#DejaVuSans-69" x="382.109375"/>
      <use xlink:href="#DejaVuSans-6e" x="409.892578"/>
      <use xlink:href="#DejaVuSans-75" x="473.271484"/>
      <use xlink:href="#DejaVuSans-78" x="536.650391"/>
     </g>
    </g>
   </g>
  </g>
 </g>
 <defs>
  <clipPath id="peb26639ca6">
   <rect x="54.691875" y="24.14175" width="902.844" height="543.6"/>
  </clipPath>
 </defs>
</svg>
