<?xml version="1.0" encoding="utf-8" standalone="no"?>
<!DOCTYPE svg PUBLIC "-//W3C//DTD SVG 1.1//EN"
  "http://www.w3.org/Graphics/SVG/1.1/DTD/svg11.dtd">
<svg xmlns:xlink="http://www.w3.org/1999/xlink" width="964.735875pt" height="644.743878pt" viewBox="0 0 964.735875 644.743878" xmlns="http://www.w3.org/2000/svg" version="1.1">
 <metadata>
  <rdf:RDF xmlns:dc="http://purl.org/dc/elements/1.1/" xmlns:cc="http://creativecommons.org/ns#" xmlns:rdf="http://www.w3.org/1999/02/22-rdf-syntax-ns#">
   <cc:Work>
    <dc:type rdf:resource="http://purl.org/dc/dcmitype/StillImage"/>
    <dc:date>2025-10-09T11:55:31.955993</dc:date>
    <dc:format>image/svg+xml</dc:format>
    <dc:creator>
     <cc:Agent>
      <dc:title>Matplotlib v3.6.3, https://matplotlib.org/</dc:title>
     </cc:Agent>
    </dc:creator>
   </cc:Work>
  </rdf:RDF>
 </metadata>
 <defs>
  <style type="text/css">*{stroke-linejoin: round; stroke-linecap: butt}</style>
 </defs>
 <g id="figure_1">
  <g id="patch_1">
   <path d="M 0 644.743878 
L 964.735875 644.743878 
L 964.735875 0 
L 0 0 
z
" style="fill: #ffffff"/>
  </g>
  <g id="axes_1">
   <g id="patch_2">
    <path d="M 54.691875 578.54175 
L 957.535875 578.54175 
L 957.535875 24.14175 
L 54.691875 24.14175 
z
" style="fill: #e5e5e5"/>
   </g>
   <g id="matplotlib.axis_1">
    <g id="xtick_1">
     <g id="line2d_1">
      <path d="M 86.424487 578.54175 
L 86.424487 24.14175 
" clip-path="url(#paa2a46b6ec)" style="fill: none; stroke: #ffffff; stroke-width: 0.8; stroke-linecap: square"/>
     </g>
     <g id="line2d_2">
      <defs>
       <path id="m9cf06cbb6f" d="M 0 0 
L 0 3.5 
" style="stroke: #555555; stroke-width: 0.8"/>
      </defs>
      <g>
       <use xlink:href="#m9cf06cbb6f" x="86.424487" y="578.54175" style="fill: #555555; stroke: #555555; stroke-width: 0.8"/>
      </g>
     </g>
     <g id="text_1">
      <!-- 2021-02 -->
      <g style="fill: #555555" transform="translate(73.603205 620.459567) rotate(-45) scale(0.1 -0.1)">
       <defs>
        <path id="DejaVuSans-32" d="M 1228 531 
L 3431 531 
L 3431 0 
L 469 0 
L 469 531 
Q 828 903 1448 1529 
Q 2069 2156 2228 2338 
Q 2531 2678 2651 2914 
Q 2772 3150 2772 3378 
Q 2772 3750 2511 3984 
Q 2250 4219 1831 4219 
Q 1534 4219 1204 4116 
Q 875 4013 500 3803 
L 500 4441 
Q 881 4594 1212 4672 
Q 1544 4750 1819 4750 
Q 2544 4750 2975 4387 
Q 3406 4025 3406 3419 
Q 3406 3131 3298 2873 
Q 3191 2616 2906 2266 
Q 2828 2175 2409 1742 
Q 1991 1309 1228 531 
z
" transform="scale(0.015625)"/>
        <path id="DejaVuSans-30" d="M 2034 4250 
Q 1547 4250 1301 3770 
Q 1056 3291 1056 2328 
Q 1056 1369 1301 889 
Q 1547 409 2034 409 
Q 2525 409 2770 889 
Q 3016 1369 3016 2328 
Q 3016 3291 2770 3770 
Q 2525 4250 2034 4250 
z
M 2034 4750 
Q 2819 4750 3233 4129 
Q 3647 3509 3647 2328 
Q 3647 1150 3233 529 
Q 2819 -91 2034 -91 
Q 1250 -91 836 529 
Q 422 1150 422 2328 
Q 422 3509 836 4129 
Q 1250 4750 2034 4750 
z
" transform="scale(0.015625)"/>
        <path id="DejaVuSans-31" d="M 794 531 
L 1825 531 
L 1825 4091 
L 703 3866 
L 703 4441 
L 1819 4666 
L 2450 4666 
L 2450 531 
L 3481 531 
L 3481 0 
L 794 0 
L 794 531 
z
" transform="scale(0.015625)"/>
        <path id="DejaVuSans-2d" d="M 313 2009 
L 1997 2009 
L 1997 1497 
L 313 1497 
L 313 2009 
z
" transform="scale(0.015625)"/>
       </defs>
       <use xlink:href="#DejaVuSans-32"/>
       <use xlink:href="#DejaVuSans-30" x="63.623047"/>
       <use xlink:href="#DejaVuSans-32" x="127.246094"/>
       <use xlink:href="#DejaVuSans-31" x="190.869141"/>
       <use xlink:href="#DejaVuSans-2d" x="254.492188"/>
       <use xlink:href="#DejaVuSans-30" x="290.576172"/>
       <use xlink:href="#DejaVuSans-32" x="354.199219"/>
      </g>
     </g>
    </g>
    <g id="xtick_2">
     <g id="line2d_3">
      <path d="M 131.97614 578.54175 
L 131.97614 24.14175 
" clip-path="url(#paa2a46b6ec)" style="fill: none; stroke: #ffffff; stroke-width: 0.8; stroke-linecap: square"/>
     </g>
     <g id="line2d_4">
      <g>
       <use xlink:href="#m9cf06cbb6f" x="131.97614" y="578.54175" style="fill: #555555; stroke: #555555; stroke-width: 0.8"/>
      </g>
     </g>
     <g id="text_2">
      <!-- 2021-05 -->
      <g style="fill: #555555" transform="translate(119.154858 620.459567) rotate(-45) scale(0.1 -0.1)">
       <defs>
        <path id="DejaVuSans-35" d="M 691 4666 
L 3169 4666 
L 3169 4134 
L 1269 4134 
L 1269 2991 
Q 1406 3038 1543 3061 
Q 1681 3084 1819 3084 
Q 2600 3084 3056 2656 
Q 3513 2228 3513 1497 
Q 3513 744 3044 326 
Q 2575 -91 1722 -91 
Q 1428 -91 1123 -41 
Q 819 9 494 109 
L 494 744 
Q 775 591 1075 516 
Q 1375 441 1709 441 
Q 2250 441 2565 725 
Q 2881 1009 2881 1497 
Q 2881 1984 2565 2268 
Q 2250 2553 1709 2553 
Q 1456 2553 1204 2497 
Q 953 2441 691 2322 
L 691 4666 
z
" transform="scale(0.015625)"/>
       </defs>
       <use xlink:href="#DejaVuSans-32"/>
       <use xlink:href="#DejaVuSans-30" x="63.623047"/>
       <use xlink:href="#DejaVuSans-32" x="127.246094"/>
       <use xlink:href="#DejaVuSans-31" x="190.869141"/>
       <use xlink:href="#DejaVuSans-2d" x="254.492188"/>
       <use xlink:href="#DejaVuSans-30" x="290.576172"/>
       <use xlink:href="#DejaVuSans-35" x="354.199219"/>
      </g>
     </g>
    </g>
    <g id="xtick_3">
     <g id="line2d_5">
      <path d="M 179.063242 578.54175 
L 179.063242 24.14175 
" clip-path="url(#paa2a46b6ec)" style="fill: none; stroke: #ffffff; stroke-width: 0.8; stroke-linecap: square"/>
     </g>
     <g id="line2d_6">
      <g>
       <use xlink:href="#m9cf06cbb6f" x="179.063242" y="578.54175" style="fill: #555555; stroke: #555555; stroke-width: 0.8"/>
      </g>
     </g>
     <g id="text_3">
      <!-- 2021-08 -->
      <g style="fill: #555555" transform="translate(166.24196 620.459567) rotate(-45) scale(0.1 -0.1)">
       <defs>
        <path id="DejaVuSans-38" d="M 2034 2216 
Q 1584 2216 1326 1975 
Q 1069 1734 1069 1313 
Q 1069 891 1326 650 
Q 1584 409 2034 409 
Q 2484 409 2743 651 
Q 3003 894 3003 1313 
Q 3003 1734 2745 1975 
Q 2488 2216 2034 2216 
z
M 1403 2484 
Q 997 2584 770 2862 
Q 544 3141 544 3541 
Q 544 4100 942 4425 
Q 1341 4750 2034 4750 
Q 2731 4750 3128 4425 
Q 3525 4100 3525 3541 
Q 3525 3141 3298 2862 
Q 3072 2584 2669 2484 
Q 3125 2378 3379 2068 
Q 3634 1759 3634 1313 
Q 3634 634 3220 271 
Q 2806 -91 2034 -91 
Q 1263 -91 848 271 
Q 434 634 434 1313 
Q 434 1759 690 2068 
Q 947 2378 1403 2484 
z
M 1172 3481 
Q 1172 3119 1398 2916 
Q 1625 2713 2034 2713 
Q 2441 2713 2670 2916 
Q 2900 3119 2900 3481 
Q 2900 3844 2670 4047 
Q 2441 4250 2034 4250 
Q 1625 4250 1398 4047 
Q 1172 3844 1172 3481 
z
" transform="scale(0.015625)"/>
       </defs>
       <use xlink:href="#DejaVuSans-32"/>
       <use xlink:href="#DejaVuSans-30" x="63.623047"/>
       <use xlink:href="#DejaVuSans-32" x="127.246094"/>
       <use xlink:href="#DejaVuSans-31" x="190.869141"/>
       <use xlink:href="#DejaVuSans-2d" x="254.492188"/>
       <use xlink:href="#DejaVuSans-30" x="290.576172"/>
       <use xlink:href="#DejaVuSans-38" x="354.199219"/>
      </g>
     </g>
    </g>
    <g id="xtick_4">
     <g id="line2d_7">
      <path d="M 226.150344 578.54175 
L 226.150344 24.14175 
" clip-path="url(#paa2a46b6ec)" style="fill: none; stroke: #ffffff; stroke-width: 0.8; stroke-linecap: square"/>
     </g>
     <g id="line2d_8">
      <g>
       <use xlink:href="#m9cf06cbb6f" x="226.150344" y="578.54175" style="fill: #555555; stroke: #555555; stroke-width: 0.8"/>
      </g>
     </g>
     <g id="text_4">
      <!-- 2021-11 -->
      <g style="fill: #555555" transform="translate(213.329062 620.459567) rotate(-45) scale(0.1 -0.1)">
       <use xlink:href="#DejaVuSans-32"/>
       <use xlink:href="#DejaVuSans-30" x="63.623047"/>
       <use xlink:href="#DejaVuSans-32" x="127.246094"/>
       <use xlink:href="#DejaVuSans-31" x="190.869141"/>
       <use xlink:href="#DejaVuSans-2d" x="254.492188"/>
       <use xlink:href="#DejaVuSans-31" x="290.576172"/>
       <use xlink:href="#DejaVuSans-31" x="354.199219"/>
      </g>
     </g>
    </g>
    <g id="xtick_5">
     <g id="line2d_9">
      <path d="M 273.237446 578.54175 
L 273.237446 24.14175 
" clip-path="url(#paa2a46b6ec)" style="fill: none; stroke: #ffffff; stroke-width: 0.8; stroke-linecap: square"/>
     </g>
     <g id="line2d_10">
      <g>
       <use xlink:href="#m9cf06cbb6f" x="273.237446" y="578.54175" style="fill: #555555; stroke: #555555; stroke-width: 0.8"/>
      </g>
     </g>
     <g id="text_5">
      <!-- 2022-02 -->
      <g style="fill: #555555" transform="translate(260.416164 620.459567) rotate(-45) scale(0.1 -0.1)">
       <use xlink:href="#DejaVuSans-32"/>
       <use xlink:href="#DejaVuSans-30" x="63.623047"/>
       <use xlink:href="#DejaVuSans-32" x="127.246094"/>
       <use xlink:href="#DejaVuSans-32" x="190.869141"/>
       <use xlink:href="#DejaVuSans-2d" x="254.492188"/>
       <use xlink:href="#DejaVuSans-30" x="290.576172"/>
       <use xlink:href="#DejaVuSans-32" x="354.199219"/>
      </g>
     </g>
    </g>
    <g id="xtick_6">
     <g id="line2d_11">
      <path d="M 318.789099 578.54175 
L 318.789099 24.14175 
" clip-path="url(#paa2a46b6ec)" style="fill: none; stroke: #ffffff; stroke-width: 0.8; stroke-linecap: square"/>
     </g>
     <g id="line2d_12">
      <g>
       <use xlink:href="#m9cf06cbb6f" x="318.789099" y="578.54175" style="fill: #555555; stroke: #555555; stroke-width: 0.8"/>
      </g>
     </g>
     <g id="text_6">
      <!-- 2022-05 -->
      <g style="fill: #555555" transform="translate(305.967817 620.459567) rotate(-45) scale(0.1 -0.1)">
       <use xlink:href="#DejaVuSans-32"/>
       <use xlink:href="#DejaVuSans-30" x="63.623047"/>
       <use xlink:href="#DejaVuSans-32" x="127.246094"/>
       <use xlink:href="#DejaVuSans-32" x="190.869141"/>
       <use xlink:href="#DejaVuSans-2d" x="254.492188"/>
       <use xlink:href="#DejaVuSans-30" x="290.576172"/>
       <use xlink:href="#DejaVuSans-35" x="354.199219"/>
      </g>
     </g>
    </g>
    <g id="xtick_7">
     <g id="line2d_13">
      <path d="M 365.876202 578.54175 
L 365.876202 24.14175 
" clip-path="url(#paa2a46b6ec)" style="fill: none; stroke: #ffffff; stroke-width: 0.8; stroke-linecap: square"/>
     </g>
     <g id="line2d_14">
      <g>
       <use xlink:href="#m9cf06cbb6f" x="365.876202" y="578.54175" style="fill: #555555; stroke: #555555; stroke-width: 0.8"/>
      </g>
     </g>
     <g id="text_7">
      <!-- 2022-08 -->
      <g style="fill: #555555" transform="translate(353.054919 620.459567) rotate(-45) scale(0.1 -0.1)">
       <use xlink:href="#DejaVuSans-32"/>
       <use xlink:href="#DejaVuSans-30" x="63.623047"/>
       <use xlink:href="#DejaVuSans-32" x="127.246094"/>
       <use xlink:href="#DejaVuSans-32" x="190.869141"/>
       <use xlink:href="#DejaVuSans-2d" x="254.492188"/>
       <use xlink:href="#DejaVuSans-30" x="290.576172"/>
       <use xlink:href="#DejaVuSans-38" x="354.199219"/>
      </g>
     </g>
    </g>
    <g id="xtick_8">
     <g id="line2d_15">
      <path d="M 412.963304 578.54175 
L 412.963304 24.14175 
" clip-path="url(#paa2a46b6ec)" style="fill: none; stroke: #ffffff; stroke-width: 0.8; stroke-linecap: square"/>
     </g>
     <g id="line2d_16">
      <g>
       <use xlink:href="#m9cf06cbb6f" x="412.963304" y="578.54175" style="fill: #555555; stroke: #555555; stroke-width: 0.8"/>
      </g>
     </g>
     <g id="text_8">
      <!-- 2022-11 -->
      <g style="fill: #555555" transform="translate(400.142021 620.459567) rotate(-45) scale(0.1 -0.1)">
       <use xlink:href="#DejaVuSans-32"/>
       <use xlink:href="#DejaVuSans-30" x="63.623047"/>
       <use xlink:href="#DejaVuSans-32" x="127.246094"/>
       <use xlink:href="#DejaVuSans-32" x="190.869141"/>
       <use xlink:href="#DejaVuSans-2d" x="254.492188"/>
       <use xlink:href="#DejaVuSans-31" x="290.576172"/>
       <use xlink:href="#DejaVuSans-31" x="354.199219"/>
      </g>
     </g>
    </g>
    <g id="xtick_9">
     <g id="line2d_17">
      <path d="M 460.050406 578.54175 
L 460.050406 24.14175 
" clip-path="url(#paa2a46b6ec)" style="fill: none; stroke: #ffffff; stroke-width: 0.8; stroke-linecap: square"/>
     </g>
     <g id="line2d_18">
      <g>
       <use xlink:href="#m9cf06cbb6f" x="460.050406" y="578.54175" style="fill: #555555; stroke: #555555; stroke-width: 0.8"/>
      </g>
     </g>
     <g id="text_9">
      <!-- 2023-02 -->
      <g style="fill: #555555" transform="translate(447.229123 620.459567) rotate(-45) scale(0.1 -0.1)">
       <defs>
        <path id="DejaVuSans-33" d="M 2597 2516 
Q 3050 2419 3304 2112 
Q 3559 1806 3559 1356 
Q 3559 666 3084 287 
Q 2609 -91 1734 -91 
Q 1441 -91 1130 -33 
Q 819 25 488 141 
L 488 750 
Q 750 597 1062 519 
Q 1375 441 1716 441 
Q 2309 441 2620 675 
Q 2931 909 2931 1356 
Q 2931 1769 2642 2001 
Q 2353 2234 1838 2234 
L 1294 2234 
L 1294 2753 
L 1863 2753 
Q 2328 2753 2575 2939 
Q 2822 3125 2822 3475 
Q 2822 3834 2567 4026 
Q 2313 4219 1838 4219 
Q 1578 4219 1281 4162 
Q 984 4106 628 3988 
L 628 4550 
Q 988 4650 1302 4700 
Q 1616 4750 1894 4750 
Q 2613 4750 3031 4423 
Q 3450 4097 3450 3541 
Q 3450 3153 3228 2886 
Q 3006 2619 2597 2516 
z
" transform="scale(0.015625)"/>
       </defs>
       <use xlink:href="#DejaVuSans-32"/>
       <use xlink:href="#DejaVuSans-30" x="63.623047"/>
       <use xlink:href="#DejaVuSans-32" x="127.246094"/>
       <use xlink:href="#DejaVuSans-33" x="190.869141"/>
       <use xlink:href="#DejaVuSans-2d" x="254.492188"/>
       <use xlink:href="#DejaVuSans-30" x="290.576172"/>
       <use xlink:href="#DejaVuSans-32" x="354.199219"/>
      </g>
     </g>
    </g>
    <g id="xtick_10">
     <g id="line2d_19">
      <path d="M 505.602059 578.54175 
L 505.602059 24.14175 
" clip-path="url(#paa2a46b6ec)" style="fill: none; stroke: #ffffff; stroke-width: 0.8; stroke-linecap: square"/>
     </g>
     <g id="line2d_20">
      <g>
       <use xlink:href="#m9cf06cbb6f" x="505.602059" y="578.54175" style="fill: #555555; stroke: #555555; stroke-width: 0.8"/>
      </g>
     </g>
     <g id="text_10">
      <!-- 2023-05 -->
      <g style="fill: #555555" transform="translate(492.780776 620.459567) rotate(-45) scale(0.1 -0.1)">
       <use xlink:href="#DejaVuSans-32"/>
       <use xlink:href="#DejaVuSans-30" x="63.623047"/>
       <use xlink:href="#DejaVuSans-32" x="127.246094"/>
       <use xlink:href="#DejaVuSans-33" x="190.869141"/>
       <use xlink:href="#DejaVuSans-2d" x="254.492188"/>
       <use xlink:href="#DejaVuSans-30" x="290.576172"/>
       <use xlink:href="#DejaVuSans-35" x="354.199219"/>
      </g>
     </g>
    </g>
    <g id="xtick_11">
     <g id="line2d_21">
      <path d="M 552.689161 578.54175 
L 552.689161 24.14175 
" clip-path="url(#paa2a46b6ec)" style="fill: none; stroke: #ffffff; stroke-width: 0.8; stroke-linecap: square"/>
     </g>
     <g id="line2d_22">
      <g>
       <use xlink:href="#m9cf06cbb6f" x="552.689161" y="578.54175" style="fill: #555555; stroke: #555555; stroke-width: 0.8"/>
      </g>
     </g>
     <g id="text_11">
      <!-- 2023-08 -->
      <g style="fill: #555555" transform="translate(539.867878 620.459567) rotate(-45) scale(0.1 -0.1)">
       <use xlink:href="#DejaVuSans-32"/>
       <use xlink:href="#DejaVuSans-30" x="63.623047"/>
       <use xlink:href="#DejaVuSans-32" x="127.246094"/>
       <use xlink:href="#DejaVuSans-33" x="190.869141"/>
       <use xlink:href="#DejaVuSans-2d" x="254.492188"/>
       <use xlink:href="#DejaVuSans-30" x="290.576172"/>
       <use xlink:href="#DejaVuSans-38" x="354.199219"/>
      </g>
     </g>
    </g>
    <g id="xtick_12">
     <g id="line2d_23">
      <path d="M 599.776263 578.54175 
L 599.776263 24.14175 
" clip-path="url(#paa2a46b6ec)" style="fill: none; stroke: #ffffff; stroke-width: 0.8; stroke-linecap: square"/>
     </g>
     <g id="line2d_24">
      <g>
       <use xlink:href="#m9cf06cbb6f" x="599.776263" y="578.54175" style="fill: #555555; stroke: #555555; stroke-width: 0.8"/>
      </g>
     </g>
     <g id="text_12">
      <!-- 2023-11 -->
      <g style="fill: #555555" transform="translate(586.954981 620.459567) rotate(-45) scale(0.1 -0.1)">
       <use xlink:href="#DejaVuSans-32"/>
       <use xlink:href="#DejaVuSans-30" x="63.623047"/>
       <use xlink:href="#DejaVuSans-32" x="127.246094"/>
       <use xlink:href="#DejaVuSans-33" x="190.869141"/>
       <use xlink:href="#DejaVuSans-2d" x="254.492188"/>
       <use xlink:href="#DejaVuSans-31" x="290.576172"/>
       <use xlink:href="#DejaVuSans-31" x="354.199219"/>
      </g>
     </g>
    </g>
    <g id="xtick_13">
     <g id="line2d_25">
      <path d="M 646.863365 578.54175 
L 646.863365 24.14175 
" clip-path="url(#paa2a46b6ec)" style="fill: none; stroke: #ffffff; stroke-width: 0.8; stroke-linecap: square"/>
     </g>
     <g id="line2d_26">
      <g>
       <use xlink:href="#m9cf06cbb6f" x="646.863365" y="578.54175" style="fill: #555555; stroke: #555555; stroke-width: 0.8"/>
      </g>
     </g>
     <g id="text_13">
      <!-- 2024-02 -->
      <g style="fill: #555555" transform="translate(634.042083 620.459567) rotate(-45) scale(0.1 -0.1)">
       <defs>
        <path id="DejaVuSans-34" d="M 2419 4116 
L 825 1625 
L 2419 1625 
L 2419 4116 
z
M 2253 4666 
L 3047 4666 
L 3047 1625 
L 3713 1625 
L 3713 1100 
L 3047 1100 
L 3047 0 
L 2419 0 
L 2419 1100 
L 313 1100 
L 313 1709 
L 2253 4666 
z
" transform="scale(0.015625)"/>
       </defs>
       <use xlink:href="#DejaVuSans-32"/>
       <use xlink:href="#DejaVuSans-30" x="63.623047"/>
       <use xlink:href="#DejaVuSans-32" x="127.246094"/>
       <use xlink:href="#DejaVuSans-34" x="190.869141"/>
       <use xlink:href="#DejaVuSans-2d" x="254.492188"/>
       <use xlink:href="#DejaVuSans-30" x="290.576172"/>
       <use xlink:href="#DejaVuSans-32" x="354.199219"/>
      </g>
     </g>
    </g>
    <g id="xtick_14">
     <g id="line2d_27">
      <path d="M 692.926834 578.54175 
L 692.926834 24.14175 
" clip-path="url(#paa2a46b6ec)" style="fill: none; stroke: #ffffff; stroke-width: 0.8; stroke-linecap: square"/>
     </g>
     <g id="line2d_28">
      <g>
       <use xlink:href="#m9cf06cbb6f" x="692.926834" y="578.54175" style="fill: #555555; stroke: #555555; stroke-width: 0.8"/>
      </g>
     </g>
     <g id="text_14">
      <!-- 2024-05 -->
      <g style="fill: #555555" transform="translate(680.105552 620.459567) rotate(-45) scale(0.1 -0.1)">
       <use xlink:href="#DejaVuSans-32"/>
       <use xlink:href="#DejaVuSans-30" x="63.623047"/>
       <use xlink:href="#DejaVuSans-32" x="127.246094"/>
       <use xlink:href="#DejaVuSans-34" x="190.869141"/>
       <use xlink:href="#DejaVuSans-2d" x="254.492188"/>
       <use xlink:href="#DejaVuSans-30" x="290.576172"/>
       <use xlink:href="#DejaVuSans-35" x="354.199219"/>
      </g>
     </g>
    </g>
    <g id="xtick_15">
     <g id="line2d_29">
      <path d="M 740.013936 578.54175 
L 740.013936 24.14175 
" clip-path="url(#paa2a46b6ec)" style="fill: none; stroke: #ffffff; stroke-width: 0.8; stroke-linecap: square"/>
     </g>
     <g id="line2d_30">
      <g>
       <use xlink:href="#m9cf06cbb6f" x="740.013936" y="578.54175" style="fill: #555555; stroke: #555555; stroke-width: 0.8"/>
      </g>
     </g>
     <g id="text_15">
      <!-- 2024-08 -->
      <g style="fill: #555555" transform="translate(727.192654 620.459567) rotate(-45) scale(0.1 -0.1)">
       <use xlink:href="#DejaVuSans-32"/>
       <use xlink:href="#DejaVuSans-30" x="63.623047"/>
       <use xlink:href="#DejaVuSans-32" x="127.246094"/>
       <use xlink:href="#DejaVuSans-34" x="190.869141"/>
       <use xlink:href="#DejaVuSans-2d" x="254.492188"/>
       <use xlink:href="#DejaVuSans-30" x="290.576172"/>
       <use xlink:href="#DejaVuSans-38" x="354.199219"/>
      </g>
     </g>
    </g>
    <g id="xtick_16">
     <g id="line2d_31">
      <path d="M 787.101038 578.54175 
L 787.101038 24.14175 
" clip-path="url(#paa2a46b6ec)" style="fill: none; stroke: #ffffff; stroke-width: 0.8; stroke-linecap: square"/>
     </g>
     <g id="line2d_32">
      <g>
       <use xlink:href="#m9cf06cbb6f" x="787.101038" y="578.54175" style="fill: #555555; stroke: #555555; stroke-width: 0.8"/>
      </g>
     </g>
     <g id="text_16">
      <!-- 2024-11 -->
      <g style="fill: #555555" transform="translate(774.279756 620.459567) rotate(-45) scale(0.1 -0.1)">
       <use xlink:href="#DejaVuSans-32"/>
       <use xlink:href="#DejaVuSans-30" x="63.623047"/>
       <use xlink:href="#DejaVuSans-32" x="127.246094"/>
       <use xlink:href="#DejaVuSans-34" x="190.869141"/>
       <use xlink:href="#DejaVuSans-2d" x="254.492188"/>
       <use xlink:href="#DejaVuSans-31" x="290.576172"/>
       <use xlink:href="#DejaVuSans-31" x="354.199219"/>
      </g>
     </g>
    </g>
    <g id="xtick_17">
     <g id="line2d_33">
      <path d="M 834.18814 578.54175 
L 834.18814 24.14175 
" clip-path="url(#paa2a46b6ec)" style="fill: none; stroke: #ffffff; stroke-width: 0.8; stroke-linecap: square"/>
     </g>
     <g id="line2d_34">
      <g>
       <use xlink:href="#m9cf06cbb6f" x="834.18814" y="578.54175" style="fill: #555555; stroke: #555555; stroke-width: 0.8"/>
      </g>
     </g>
     <g id="text_17">
      <!-- 2025-02 -->
      <g style="fill: #555555" transform="translate(821.366858 620.459567) rotate(-45) scale(0.1 -0.1)">
       <use xlink:href="#DejaVuSans-32"/>
       <use xlink:href="#DejaVuSans-30" x="63.623047"/>
       <use xlink:href="#DejaVuSans-32" x="127.246094"/>
       <use xlink:href="#DejaVuSans-35" x="190.869141"/>
       <use xlink:href="#DejaVuSans-2d" x="254.492188"/>
       <use xlink:href="#DejaVuSans-30" x="290.576172"/>
       <use xlink:href="#DejaVuSans-32" x="354.199219"/>
      </g>
     </g>
    </g>
    <g id="xtick_18">
     <g id="line2d_35">
      <path d="M 879.739793 578.54175 
L 879.739793 24.14175 
" clip-path="url(#paa2a46b6ec)" style="fill: none; stroke: #ffffff; stroke-width: 0.8; stroke-linecap: square"/>
     </g>
     <g id="line2d_36">
      <g>
       <use xlink:href="#m9cf06cbb6f" x="879.739793" y="578.54175" style="fill: #555555; stroke: #555555; stroke-width: 0.8"/>
      </g>
     </g>
     <g id="text_18">
      <!-- 2025-05 -->
      <g style="fill: #555555" transform="translate(866.918511 620.459567) rotate(-45) scale(0.1 -0.1)">
       <use xlink:href="#DejaVuSans-32"/>
       <use xlink:href="#DejaVuSans-30" x="63.623047"/>
       <use xlink:href="#DejaVuSans-32" x="127.246094"/>
       <use xlink:href="#DejaVuSans-35" x="190.869141"/>
       <use xlink:href="#DejaVuSans-2d" x="254.492188"/>
       <use xlink:href="#DejaVuSans-30" x="290.576172"/>
       <use xlink:href="#DejaVuSans-35" x="354.199219"/>
      </g>
     </g>
    </g>
    <g id="xtick_19">
     <g id="line2d_37">
      <path d="M 926.826895 578.54175 
L 926.826895 24.14175 
" clip-path="url(#paa2a46b6ec)" style="fill: none; stroke: #ffffff; stroke-width: 0.8; stroke-linecap: square"/>
     </g>
     <g id="line2d_38">
      <g>
       <use xlink:href="#m9cf06cbb6f" x="926.826895" y="578.54175" style="fill: #555555; stroke: #555555; stroke-width: 0.8"/>
      </g>
     </g>
     <g id="text_19">
      <!-- 2025-08 -->
      <g style="fill: #555555" transform="translate(914.005613 620.459567) rotate(-45) scale(0.1 -0.1)">
       <use xlink:href="#DejaVuSans-32"/>
       <use xlink:href="#DejaVuSans-30" x="63.623047"/>
       <use xlink:href="#DejaVuSans-32" x="127.246094"/>
       <use xlink:href="#DejaVuSans-35" x="190.869141"/>
       <use xlink:href="#DejaVuSans-2d" x="254.492188"/>
       <use xlink:href="#DejaVuSans-30" x="290.576172"/>
       <use xlink:href="#DejaVuSans-38" x="354.199219"/>
      </g>
     </g>
    </g>
    <g id="text_20">
     <!-- Date -->
     <g style="fill: #555555" transform="translate(491.772938 635.048253) scale(0.12 -0.12)">
      <defs>
       <path id="DejaVuSans-44" d="M 1259 4147 
L 1259 519 
L 2022 519 
Q 2988 519 3436 956 
Q 3884 1394 3884 2338 
Q 3884 3275 3436 3711 
Q 2988 4147 2022 4147 
L 1259 4147 
z
M 628 4666 
L 1925 4666 
Q 3281 4666 3915 4102 
Q 4550 3538 4550 2338 
Q 4550 1131 3912 565 
Q 3275 0 1925 0 
L 628 0 
L 628 4666 
z
" transform="scale(0.015625)"/>
       <path id="DejaVuSans-61" d="M 2194 1759 
Q 1497 1759 1228 1600 
Q 959 1441 959 1056 
Q 959 750 1161 570 
Q 1363 391 1709 391 
Q 2188 391 2477 730 
Q 2766 1069 2766 1631 
L 2766 1759 
L 2194 1759 
z
M 3341 1997 
L 3341 0 
L 2766 0 
L 2766 531 
Q 2569 213 2275 61 
Q 1981 -91 1556 -91 
Q 1019 -91 701 211 
Q 384 513 384 1019 
Q 384 1609 779 1909 
Q 1175 2209 1959 2209 
L 2766 2209 
L 2766 2266 
Q 2766 2663 2505 2880 
Q 2244 3097 1772 3097 
Q 1472 3097 1187 3025 
Q 903 2953 641 2809 
L 641 3341 
Q 956 3463 1253 3523 
Q 1550 3584 1831 3584 
Q 2591 3584 2966 3190 
Q 3341 2797 3341 1997 
z
" transform="scale(0.015625)"/>
       <path id="DejaVuSans-74" d="M 1172 4494 
L 1172 3500 
L 2356 3500 
L 2356 3053 
L 1172 3053 
L 1172 1153 
Q 1172 725 1289 603 
Q 1406 481 1766 481 
L 2356 481 
L 2356 0 
L 1766 0 
Q 1100 0 847 248 
Q 594 497 594 1153 
L 594 3053 
L 172 3053 
L 172 3500 
L 594 3500 
L 594 4494 
L 1172 4494 
z
" transform="scale(0.015625)"/>
       <path id="DejaVuSans-65" d="M 3597 1894 
L 3597 1613 
L 953 1613 
Q 991 1019 1311 708 
Q 1631 397 2203 397 
Q 2534 397 2845 478 
Q 3156 559 3463 722 
L 3463 178 
Q 3153 47 2828 -22 
Q 2503 -91 2169 -91 
Q 1331 -91 842 396 
Q 353 884 353 1716 
Q 353 2575 817 3079 
Q 1281 3584 2069 3584 
Q 2775 3584 3186 3129 
Q 3597 2675 3597 1894 
z
M 3022 2063 
Q 3016 2534 2758 2815 
Q 2500 3097 2075 3097 
Q 1594 3097 1305 2825 
Q 1016 2553 972 2059 
L 3022 2063 
z
" transform="scale(0.015625)"/>
      </defs>
      <use xlink:href="#DejaVuSans-44"/>
      <use xlink:href="#DejaVuSans-61" x="77.001953"/>
      <use xlink:href="#DejaVuSans-74" x="138.28125"/>
      <use xlink:href="#DejaVuSans-65" x="177.490234"/>
     </g>
    </g>
   </g>
   <g id="matplotlib.axis_2">
    <g id="ytick_1">
     <g id="line2d_39">
      <path d="M 54.691875 578.54175 
L 957.535875 578.54175 
" clip-path="url(#paa2a46b6ec)" style="fill: none; stroke: #ffffff; stroke-width: 0.8; stroke-linecap: square"/>
     </g>
     <g id="line2d_40">
      <defs>
       <path id="mbf63ac25a2" d="M 0 0 
L -3.5 0 
" style="stroke: #555555; stroke-width: 0.8"/>
      </defs>
      <g>
       <use xlink:href="#mbf63ac25a2" x="54.691875" y="578.54175" style="fill: #555555; stroke: #555555; stroke-width: 0.8"/>
      </g>
     </g>
     <g id="text_21">
      <!-- 0k -->
      <g style="fill: #555555" transform="translate(35.53875 582.340969) scale(0.1 -0.1)">
       <defs>
        <path id="DejaVuSans-6b" d="M 581 4863 
L 1159 4863 
L 1159 1991 
L 2875 3500 
L 3609 3500 
L 1753 1863 
L 3688 0 
L 2938 0 
L 1159 1709 
L 1159 0 
L 581 0 
L 581 4863 
z
" transform="scale(0.015625)"/>
       </defs>
       <use xlink:href="#DejaVuSans-30"/>
       <use xlink:href="#DejaVuSans-6b" x="63.623047"/>
      </g>
     </g>
    </g>
    <g id="ytick_2">
     <g id="line2d_41">
      <path d="M 54.691875 514.554243 
L 957.535875 514.554243 
" clip-path="url(#paa2a46b6ec)" style="fill: none; stroke: #ffffff; stroke-width: 0.8; stroke-linecap: square"/>
     </g>
     <g id="line2d_42">
      <g>
       <use xlink:href="#mbf63ac25a2" x="54.691875" y="514.554243" style="fill: #555555; stroke: #555555; stroke-width: 0.8"/>
      </g>
     </g>
     <g id="text_22">
      <!-- 100k -->
      <g style="fill: #555555" transform="translate(22.81375 518.353462) scale(0.1 -0.1)">
       <use xlink:href="#DejaVuSans-31"/>
       <use xlink:href="#DejaVuSans-30" x="63.623047"/>
       <use xlink:href="#DejaVuSans-30" x="127.246094"/>
       <use xlink:href="#DejaVuSans-6b" x="190.869141"/>
      </g>
     </g>
    </g>
    <g id="ytick_3">
     <g id="line2d_43">
      <path d="M 54.691875 450.566737 
L 957.535875 450.566737 
" clip-path="url(#paa2a46b6ec)" style="fill: none; stroke: #ffffff; stroke-width: 0.8; stroke-linecap: square"/>
     </g>
     <g id="line2d_44">
      <g>
       <use xlink:href="#mbf63ac25a2" x="54.691875" y="450.566737" style="fill: #555555; stroke: #555555; stroke-width: 0.8"/>
      </g>
     </g>
     <g id="text_23">
      <!-- 200k -->
      <g style="fill: #555555" transform="translate(22.81375 454.365955) scale(0.1 -0.1)">
       <use xlink:href="#DejaVuSans-32"/>
       <use xlink:href="#DejaVuSans-30" x="63.623047"/>
       <use xlink:href="#DejaVuSans-30" x="127.246094"/>
       <use xlink:href="#DejaVuSans-6b" x="190.869141"/>
      </g>
     </g>
    </g>
    <g id="ytick_4">
     <g id="line2d_45">
      <path d="M 54.691875 386.57923 
L 957.535875 386.57923 
" clip-path="url(#paa2a46b6ec)" style="fill: none; stroke: #ffffff; stroke-width: 0.8; stroke-linecap: square"/>
     </g>
     <g id="line2d_46">
      <g>
       <use xlink:href="#mbf63ac25a2" x="54.691875" y="386.57923" style="fill: #555555; stroke: #555555; stroke-width: 0.8"/>
      </g>
     </g>
     <g id="text_24">
      <!-- 300k -->
      <g style="fill: #555555" transform="translate(22.81375 390.378449) scale(0.1 -0.1)">
       <use xlink:href="#DejaVuSans-33"/>
       <use xlink:href="#DejaVuSans-30" x="63.623047"/>
       <use xlink:href="#DejaVuSans-30" x="127.246094"/>
       <use xlink:href="#DejaVuSans-6b" x="190.869141"/>
      </g>
     </g>
    </g>
    <g id="ytick_5">
     <g id="line2d_47">
      <path d="M 54.691875 322.591723 
L 957.535875 322.591723 
" clip-path="url(#paa2a46b6ec)" style="fill: none; stroke: #ffffff; stroke-width: 0.8; stroke-linecap: square"/>
     </g>
     <g id="line2d_48">
      <g>
       <use xlink:href="#mbf63ac25a2" x="54.691875" y="322.591723" style="fill: #555555; stroke: #555555; stroke-width: 0.8"/>
      </g>
     </g>
     <g id="text_25">
      <!-- 400k -->
      <g style="fill: #555555" transform="translate(22.81375 326.390942) scale(0.1 -0.1)">
       <use xlink:href="#DejaVuSans-34"/>
       <use xlink:href="#DejaVuSans-30" x="63.623047"/>
       <use xlink:href="#DejaVuSans-30" x="127.246094"/>
       <use xlink:href="#DejaVuSans-6b" x="190.869141"/>
      </g>
     </g>
    </g>
    <g id="ytick_6">
     <g id="line2d_49">
      <path d="M 54.691875 258.604216 
L 957.535875 258.604216 
" clip-path="url(#paa2a46b6ec)" style="fill: none; stroke: #ffffff; stroke-width: 0.8; stroke-linecap: square"/>
     </g>
     <g id="line2d_50">
      <g>
       <use xlink:href="#mbf63ac25a2" x="54.691875" y="258.604216" style="fill: #555555; stroke: #555555; stroke-width: 0.8"/>
      </g>
     </g>
     <g id="text_26">
      <!-- 500k -->
      <g style="fill: #555555" transform="translate(22.81375 262.403435) scale(0.1 -0.1)">
       <use xlink:href="#DejaVuSans-35"/>
       <use xlink:href="#DejaVuSans-30" x="63.623047"/>
       <use xlink:href="#DejaVuSans-30" x="127.246094"/>
       <use xlink:href="#DejaVuSans-6b" x="190.869141"/>
      </g>
     </g>
    </g>
    <g id="ytick_7">
     <g id="line2d_51">
      <path d="M 54.691875 194.61671 
L 957.535875 194.61671 
" clip-path="url(#paa2a46b6ec)" style="fill: none; stroke: #ffffff; stroke-width: 0.8; stroke-linecap: square"/>
     </g>
     <g id="line2d_52">
      <g>
       <use xlink:href="#mbf63ac25a2" x="54.691875" y="194.61671" style="fill: #555555; stroke: #555555; stroke-width: 0.8"/>
      </g>
     </g>
     <g id="text_27">
      <!-- 600k -->
      <g style="fill: #555555" transform="translate(22.81375 198.415928) scale(0.1 -0.1)">
       <defs>
        <path id="DejaVuSans-36" d="M 2113 2584 
Q 1688 2584 1439 2293 
Q 1191 2003 1191 1497 
Q 1191 994 1439 701 
Q 1688 409 2113 409 
Q 2538 409 2786 701 
Q 3034 994 3034 1497 
Q 3034 2003 2786 2293 
Q 2538 2584 2113 2584 
z
M 3366 4563 
L 3366 3988 
Q 3128 4100 2886 4159 
Q 2644 4219 2406 4219 
Q 1781 4219 1451 3797 
Q 1122 3375 1075 2522 
Q 1259 2794 1537 2939 
Q 1816 3084 2150 3084 
Q 2853 3084 3261 2657 
Q 3669 2231 3669 1497 
Q 3669 778 3244 343 
Q 2819 -91 2113 -91 
Q 1303 -91 875 529 
Q 447 1150 447 2328 
Q 447 3434 972 4092 
Q 1497 4750 2381 4750 
Q 2619 4750 2861 4703 
Q 3103 4656 3366 4563 
z
" transform="scale(0.015625)"/>
       </defs>
       <use xlink:href="#DejaVuSans-36"/>
       <use xlink:href="#DejaVuSans-30" x="63.623047"/>
       <use xlink:href="#DejaVuSans-30" x="127.246094"/>
       <use xlink:href="#DejaVuSans-6b" x="190.869141"/>
      </g>
     </g>
    </g>
    <g id="ytick_8">
     <g id="line2d_53">
      <path d="M 54.691875 130.629203 
L 957.535875 130.629203 
" clip-path="url(#paa2a46b6ec)" style="fill: none; stroke: #ffffff; stroke-width: 0.8; stroke-linecap: square"/>
     </g>
     <g id="line2d_54">
      <g>
       <use xlink:href="#mbf63ac25a2" x="54.691875" y="130.629203" style="fill: #555555; stroke: #555555; stroke-width: 0.8"/>
      </g>
     </g>
     <g id="text_28">
      <!-- 700k -->
      <g style="fill: #555555" transform="translate(22.81375 134.428422) scale(0.1 -0.1)">
       <defs>
        <path id="DejaVuSans-37" d="M 525 4666 
L 3525 4666 
L 3525 4397 
L 1831 0 
L 1172 0 
L 2766 4134 
L 525 4134 
L 525 4666 
z
" transform="scale(0.015625)"/>
       </defs>
       <use xlink:href="#DejaVuSans-37"/>
       <use xlink:href="#DejaVuSans-30" x="63.623047"/>
       <use xlink:href="#DejaVuSans-30" x="127.246094"/>
       <use xlink:href="#DejaVuSans-6b" x="190.869141"/>
      </g>
     </g>
    </g>
    <g id="ytick_9">
     <g id="line2d_55">
      <path d="M 54.691875 66.641696 
L 957.535875 66.641696 
" clip-path="url(#paa2a46b6ec)" style="fill: none; stroke: #ffffff; stroke-width: 0.8; stroke-linecap: square"/>
     </g>
     <g id="line2d_56">
      <g>
       <use xlink:href="#mbf63ac25a2" x="54.691875" y="66.641696" style="fill: #555555; stroke: #555555; stroke-width: 0.8"/>
      </g>
     </g>
     <g id="text_29">
      <!-- 800k -->
      <g style="fill: #555555" transform="translate(22.81375 70.440915) scale(0.1 -0.1)">
       <use xlink:href="#DejaVuSans-38"/>
       <use xlink:href="#DejaVuSans-30" x="63.623047"/>
       <use xlink:href="#DejaVuSans-30" x="127.246094"/>
       <use xlink:href="#DejaVuSans-6b" x="190.869141"/>
      </g>
     </g>
    </g>
    <g id="text_30">
     <!-- Instances -->
     <g style="fill: #555555" transform="translate(16.318125 329.988) rotate(-90) scale(0.12 -0.12)">
      <defs>
       <path id="DejaVuSans-49" d="M 628 4666 
L 1259 4666 
L 1259 0 
L 628 0 
L 628 4666 
z
" transform="scale(0.015625)"/>
       <path id="DejaVuSans-6e" d="M 3513 2113 
L 3513 0 
L 2938 0 
L 2938 2094 
Q 2938 2591 2744 2837 
Q 2550 3084 2163 3084 
Q 1697 3084 1428 2787 
Q 1159 2491 1159 1978 
L 1159 0 
L 581 0 
L 581 3500 
L 1159 3500 
L 1159 2956 
Q 1366 3272 1645 3428 
Q 1925 3584 2291 3584 
Q 2894 3584 3203 3211 
Q 3513 2838 3513 2113 
z
" transform="scale(0.015625)"/>
       <path id="DejaVuSans-73" d="M 2834 3397 
L 2834 2853 
Q 2591 2978 2328 3040 
Q 2066 3103 1784 3103 
Q 1356 3103 1142 2972 
Q 928 2841 928 2578 
Q 928 2378 1081 2264 
Q 1234 2150 1697 2047 
L 1894 2003 
Q 2506 1872 2764 1633 
Q 3022 1394 3022 966 
Q 3022 478 2636 193 
Q 2250 -91 1575 -91 
Q 1294 -91 989 -36 
Q 684 19 347 128 
L 347 722 
Q 666 556 975 473 
Q 1284 391 1588 391 
Q 1994 391 2212 530 
Q 2431 669 2431 922 
Q 2431 1156 2273 1281 
Q 2116 1406 1581 1522 
L 1381 1569 
Q 847 1681 609 1914 
Q 372 2147 372 2553 
Q 372 3047 722 3315 
Q 1072 3584 1716 3584 
Q 2034 3584 2315 3537 
Q 2597 3491 2834 3397 
z
" transform="scale(0.015625)"/>
       <path id="DejaVuSans-63" d="M 3122 3366 
L 3122 2828 
Q 2878 2963 2633 3030 
Q 2388 3097 2138 3097 
Q 1578 3097 1268 2742 
Q 959 2388 959 1747 
Q 959 1106 1268 751 
Q 1578 397 2138 397 
Q 2388 397 2633 464 
Q 2878 531 3122 666 
L 3122 134 
Q 2881 22 2623 -34 
Q 2366 -91 2075 -91 
Q 1284 -91 818 406 
Q 353 903 353 1747 
Q 353 2603 823 3093 
Q 1294 3584 2113 3584 
Q 2378 3584 2631 3529 
Q 2884 3475 3122 3366 
z
" transform="scale(0.015625)"/>
      </defs>
      <use xlink:href="#DejaVuSans-49"/>
      <use xlink:href="#DejaVuSans-6e" x="29.492188"/>
      <use xlink:href="#DejaVuSans-73" x="92.871094"/>
      <use xlink:href="#DejaVuSans-74" x="144.970703"/>
      <use xlink:href="#DejaVuSans-61" x="184.179688"/>
      <use xlink:href="#DejaVuSans-6e" x="245.458984"/>
      <use xlink:href="#DejaVuSans-63" x="308.837891"/>
      <use xlink:href="#DejaVuSans-65" x="363.818359"/>
      <use xlink:href="#DejaVuSans-73" x="425.341797"/>
     </g>
    </g>
   </g>
   <g id="line2d_57">
    <path d="M 54.691875 630.194547 
L 63.775322 627.728975 
L 72.85877 625.263404 
L 81.942217 622.797832 
L 91.025664 620.33226 
L 100.109112 617.866689 
L 109.192559 615.401117 
L 118.276006 612.935545 
L 127.359454 610.469973 
L 136.442901 608.004402 
L 145.526348 605.53883 
L 154.609796 603.073258 
L 163.693243 600.607686 
L 172.77669 598.142115 
L 181.860138 595.676543 
L 190.943585 593.210971 
L 200.027032 590.7454 
L 209.11048 588.279828 
L 218.193927 585.814256 
L 227.277374 583.348684 
L 236.360822 580.883113 
L 245.444269 578.417541 
L 254.527716 575.951969 
L 263.611164 573.486397 
L 272.694611 571.020826 
L 281.778058 568.555254 
L 290.861506 566.089682 
L 299.944953 563.624111 
L 309.0284 561.158539 
L 318.111848 558.692967 
L 327.195295 556.227395 
L 336.278742 553.761824 
L 345.36219 551.296252 
L 354.445637 548.83068 
L 363.529084 546.365108 
L 372.612532 543.899537 
L 381.695979 541.433965 
L 390.779426 538.968393 
L 399.862874 536.502822 
L 408.946321 534.03725 
L 418.029768 531.571678 
L 427.113216 529.106106 
L 436.196663 526.640535 
L 445.28011 524.174963 
L 454.363558 521.709391 
L 463.447005 519.243819 
L 472.530452 516.778248 
L 481.6139 514.312676 
L 490.697347 511.847104 
L 499.780794 509.381533 
L 508.864242 506.915961 
L 517.947689 504.450389 
L 527.031136 501.984817 
L 536.114584 499.519246 
L 545.198031 497.053674 
L 554.281478 494.588102 
L 563.364926 492.12253 
L 572.448373 489.656959 
L 581.53182 487.191387 
L 590.615267 484.725815 
L 599.698715 482.260244 
L 608.782162 479.794672 
L 617.865609 477.3291 
L 626.949057 474.863528 
L 636.032504 472.397957 
L 645.115951 469.932385 
L 654.199399 467.466813 
L 663.282846 465.001241 
L 672.366293 462.53567 
L 681.449741 460.070098 
L 690.533188 457.604526 
L 699.616635 455.138955 
L 708.700083 452.673383 
L 717.78353 450.207811 
L 726.866977 447.742239 
L 735.950425 445.276668 
L 745.033872 442.811096 
L 754.117319 440.345524 
L 763.200767 437.879952 
L 772.284214 435.414381 
L 781.367661 432.948809 
L 790.451109 430.483237 
L 799.534556 428.017666 
L 808.618003 425.552094 
L 817.701451 423.086522 
L 826.784898 420.62095 
L 835.868345 418.155379 
L 844.951793 415.689807 
L 854.03524 413.224235 
L 863.118687 410.758663 
L 872.202135 408.293092 
L 881.285582 405.82752 
L 890.369029 403.361948 
L 899.452477 400.896377 
L 908.535924 398.430805 
L 917.619371 395.965233 
L 926.702819 393.499661 
L 935.786266 391.03409 
L 944.869713 388.568518 
L 953.953161 386.102946 
" clip-path="url(#paa2a46b6ec)" style="fill: none; stroke-dasharray: 3,4.95; stroke-dashoffset: 0; stroke: #4ac1fa; stroke-opacity: 0.9; stroke-width: 3"/>
   </g>
   <g id="line2d_58">
    <path d="M 54.691875 449.535303 
L 63.775322 450.634156 
L 72.85877 451.733009 
L 81.942217 452.831862 
L 91.025664 453.930716 
L 100.109112 455.029569 
L 109.192559 456.128422 
L 118.276006 457.227276 
L 127.359454 458.326129 
L 136.442901 459.424982 
L 145.526348 460.523835 
L 154.609796 461.622689 
L 163.693243 462.721542 
L 172.77669 463.820395 
L 181.860138 464.919249 
L 190.943585 466.018102 
L 200.027032 467.116955 
L 209.11048 468.215808 
L 218.193927 469.314662 
L 227.277374 470.413515 
L 236.360822 471.512368 
L 245.444269 472.611221 
L 254.527716 473.710075 
L 263.611164 474.808928 
L 272.694611 475.907781 
L 281.778058 477.006635 
L 290.861506 478.105488 
L 299.944953 479.204341 
L 309.0284 480.303194 
L 318.111848 481.402048 
L 327.195295 482.500901 
L 336.278742 483.599754 
L 345.36219 484.698607 
L 354.445637 485.797461 
L 363.529084 486.896314 
L 372.612532 487.995167 
L 381.695979 489.094021 
L 390.779426 490.192874 
L 399.862874 491.291727 
L 408.946321 492.39058 
L 418.029768 493.489434 
L 427.113216 494.588287 
L 436.196663 495.68714 
L 445.28011 496.785993 
L 454.363558 497.884847 
L 463.447005 498.9837 
L 472.530452 500.082553 
L 481.6139 501.181407 
L 490.697347 502.28026 
L 499.780794 503.379113 
L 508.864242 504.477966 
L 517.947689 505.57682 
L 527.031136 506.675673 
L 536.114584 507.774526 
L 545.198031 508.873379 
L 554.281478 509.972233 
L 563.364926 511.071086 
L 572.448373 512.169939 
L 581.53182 513.268793 
L 590.615267 514.367646 
L 599.698715 515.466499 
L 608.782162 516.565352 
L 617.865609 517.664206 
L 626.949057 518.763059 
L 636.032504 519.861912 
L 645.115951 520.960765 
L 654.199399 522.059619 
L 663.282846 523.158472 
L 672.366293 524.257325 
L 681.449741 525.356179 
L 690.533188 526.455032 
L 699.616635 527.553885 
L 708.700083 528.652738 
L 717.78353 529.751592 
L 726.866977 530.850445 
L 735.950425 531.949298 
L 745.033872 533.048151 
L 754.117319 534.147005 
L 763.200767 535.245858 
L 772.284214 536.344711 
L 781.367661 537.443565 
L 790.451109 538.542418 
L 799.534556 539.641271 
L 808.618003 540.740124 
L 817.701451 541.838978 
L 826.784898 542.937831 
L 835.868345 544.036684 
L 844.951793 545.135537 
L 854.03524 546.234391 
L 863.118687 547.333244 
L 872.202135 548.432097 
L 881.285582 549.530951 
L 890.369029 550.629804 
L 899.452477 551.728657 
L 908.535924 552.82751 
L 917.619371 553.926364 
L 926.702819 555.025217 
L 935.786266 556.12407 
L 944.869713 557.222923 
L 953.953161 558.321777 
" clip-path="url(#paa2a46b6ec)" style="fill: none; stroke-dasharray: 3,4.95; stroke-dashoffset: 0; stroke: #e9a942; stroke-opacity: 0.9; stroke-width: 3"/>
   </g>
   <g id="line2d_59">
    <path d="M 54.691875 571.152018 
L 63.775322 570.673743 
L 72.85877 570.195468 
L 81.942217 569.717194 
L 91.025664 569.238919 
L 100.109112 568.760644 
L 109.192559 568.282369 
L 118.276006 567.804095 
L 127.359454 567.32582 
L 136.442901 566.847545 
L 145.526348 566.36927 
L 154.609796 565.890995 
L 163.693243 565.412721 
L 172.77669 564.934446 
L 181.860138 564.456171 
L 190.943585 563.977896 
L 200.027032 563.499621 
L 209.11048 563.021347 
L 218.193927 562.543072 
L 227.277374 562.064797 
L 236.360822 561.586522 
L 245.444269 561.108248 
L 254.527716 560.629973 
L 263.611164 560.151698 
L 272.694611 559.673423 
L 281.778058 559.195148 
L 290.861506 558.716874 
L 299.944953 558.238599 
L 309.0284 557.760324 
L 318.111848 557.282049 
L 327.195295 556.803775 
L 336.278742 556.3255 
L 345.36219 555.847225 
L 354.445637 555.36895 
L 363.529084 554.890675 
L 372.612532 554.412401 
L 381.695979 553.934126 
L 390.779426 553.455851 
L 399.862874 552.977576 
L 408.946321 552.499302 
L 418.029768 552.021027 
L 427.113216 551.542752 
L 436.196663 551.064477 
L 445.28011 550.586202 
L 454.363558 550.107928 
L 463.447005 549.629653 
L 472.530452 549.151378 
L 481.6139 548.673103 
L 490.697347 548.194829 
L 499.780794 547.716554 
L 508.864242 547.238279 
L 517.947689 546.760004 
L 527.031136 546.281729 
L 536.114584 545.803455 
L 545.198031 545.32518 
L 554.281478 544.846905 
L 563.364926 544.36863 
L 572.448373 543.890355 
L 581.53182 543.412081 
L 590.615267 542.933806 
L 599.698715 542.455531 
L 608.782162 541.977256 
L 617.865609 541.498982 
L 626.949057 541.020707 
L 636.032504 540.542432 
L 645.115951 540.064157 
L 654.199399 539.585882 
L 663.282846 539.107608 
L 672.366293 538.629333 
L 681.449741 538.151058 
L 690.533188 537.672783 
L 699.616635 537.194509 
L 708.700083 536.716234 
L 717.78353 536.237959 
L 726.866977 535.759684 
L 735.950425 535.281409 
L 745.033872 534.803135 
L 754.117319 534.32486 
L 763.200767 533.846585 
L 772.284214 533.36831 
L 781.367661 532.890036 
L 790.451109 532.411761 
L 799.534556 531.933486 
L 808.618003 531.455211 
L 817.701451 530.976936 
L 826.784898 530.498662 
L 835.868345 530.020387 
L 844.951793 529.542112 
L 854.03524 529.063837 
L 863.118687 528.585562 
L 872.202135 528.107288 
L 881.285582 527.629013 
L 890.369029 527.150738 
L 899.452477 526.672463 
L 908.535924 526.194189 
L 917.619371 525.715914 
L 926.702819 525.237639 
L 935.786266 524.759364 
L 944.869713 524.281089 
L 953.953161 523.802815 
" clip-path="url(#paa2a46b6ec)" style="fill: none; stroke-dasharray: 3,4.95; stroke-dashoffset: 0; stroke: #9a5689; stroke-opacity: 0.9; stroke-width: 3"/>
   </g>
   <g id="line2d_60">
    <path d="M 54.691875 581.814465 
L 63.775322 581.302904 
L 72.85877 580.791343 
L 81.942217 580.279781 
L 91.025664 579.76822 
L 100.109112 579.256659 
L 109.192559 578.745097 
L 118.276006 578.233536 
L 127.359454 577.721975 
L 136.442901 577.210413 
L 145.526348 576.698852 
L 154.609796 576.187291 
L 163.693243 575.675729 
L 172.77669 575.164168 
L 181.860138 574.652607 
L 190.943585 574.141046 
L 200.027032 573.629484 
L 209.11048 573.117923 
L 218.193927 572.606362 
L 227.277374 572.0948 
L 236.360822 571.583239 
L 245.444269 571.071678 
L 254.527716 570.560116 
L 263.611164 570.048555 
L 272.694611 569.536994 
L 281.778058 569.025432 
L 290.861506 568.513871 
L 299.944953 568.00231 
L 309.0284 567.490749 
L 318.111848 566.979187 
L 327.195295 566.467626 
L 336.278742 565.956065 
L 345.36219 565.444503 
L 354.445637 564.932942 
L 363.529084 564.421381 
L 372.612532 563.909819 
L 381.695979 563.398258 
L 390.779426 562.886697 
L 399.862874 562.375135 
L 408.946321 561.863574 
L 418.029768 561.352013 
L 427.113216 560.840451 
L 436.196663 560.32889 
L 445.28011 559.817329 
L 454.363558 559.305768 
L 463.447005 558.794206 
L 472.530452 558.282645 
L 481.6139 557.771084 
L 490.697347 557.259522 
L 499.780794 556.747961 
L 508.864242 556.2364 
L 517.947689 555.724838 
L 527.031136 555.213277 
L 536.114584 554.701716 
L 545.198031 554.190154 
L 554.281478 553.678593 
L 563.364926 553.167032 
L 572.448373 552.655471 
L 581.53182 552.143909 
L 590.615267 551.632348 
L 599.698715 551.120787 
L 608.782162 550.609225 
L 617.865609 550.097664 
L 626.949057 549.586103 
L 636.032504 549.074541 
L 645.115951 548.56298 
L 654.199399 548.051419 
L 663.282846 547.539857 
L 672.366293 547.028296 
L 681.449741 546.516735 
L 690.533188 546.005174 
L 699.616635 545.493612 
L 708.700083 544.982051 
L 717.78353 544.47049 
L 726.866977 543.958928 
L 735.950425 543.447367 
L 745.033872 542.935806 
L 754.117319 542.424244 
L 763.200767 541.912683 
L 772.284214 541.401122 
L 781.367661 540.88956 
L 790.451109 540.377999 
L 799.534556 539.866438 
L 808.618003 539.354877 
L 817.701451 538.843315 
L 826.784898 538.331754 
L 835.868345 537.820193 
L 844.951793 537.308631 
L 854.03524 536.79707 
L 863.118687 536.285509 
L 872.202135 535.773947 
L 881.285582 535.262386 
L 890.369029 534.750825 
L 899.452477 534.239263 
L 908.535924 533.727702 
L 917.619371 533.216141 
L 926.702819 532.70458 
L 935.786266 532.193018 
L 944.869713 531.681457 
L 953.953161 531.169896 
" clip-path="url(#paa2a46b6ec)" style="fill: none; stroke-dasharray: 3,4.95; stroke-dashoffset: 0; stroke: #be503b; stroke-opacity: 0.9; stroke-width: 3"/>
   </g>
   <g id="line2d_61">
    <path d="M 54.691875 545.539555 
L 63.775322 544.742667 
L 72.85877 543.945779 
L 81.942217 543.14889 
L 91.025664 542.352002 
L 100.109112 541.555114 
L 109.192559 540.758226 
L 118.276006 539.961338 
L 127.359454 539.16445 
L 136.442901 538.367562 
L 145.526348 537.570674 
L 154.609796 536.773786 
L 163.693243 535.976898 
L 172.77669 535.18001 
L 181.860138 534.383122 
L 190.943585 533.586234 
L 200.027032 532.789345 
L 209.11048 531.992457 
L 218.193927 531.195569 
L 227.277374 530.398681 
L 236.360822 529.601793 
L 245.444269 528.804905 
L 254.527716 528.008017 
L 263.611164 527.211129 
L 272.694611 526.414241 
L 281.778058 525.617353 
L 290.861506 524.820465 
L 299.944953 524.023577 
L 309.0284 523.226689 
L 318.111848 522.429801 
L 327.195295 521.632912 
L 336.278742 520.836024 
L 345.36219 520.039136 
L 354.445637 519.242248 
L 363.529084 518.44536 
L 372.612532 517.648472 
L 381.695979 516.851584 
L 390.779426 516.054696 
L 399.862874 515.257808 
L 408.946321 514.46092 
L 418.029768 513.664032 
L 427.113216 512.867144 
L 436.196663 512.070256 
L 445.28011 511.273368 
L 454.363558 510.476479 
L 463.447005 509.679591 
L 472.530452 508.882703 
L 481.6139 508.085815 
L 490.697347 507.288927 
L 499.780794 506.492039 
L 508.864242 505.695151 
L 517.947689 504.898263 
L 527.031136 504.101375 
L 536.114584 503.304487 
L 545.198031 502.507599 
L 554.281478 501.710711 
L 563.364926 500.913823 
L 572.448373 500.116935 
L 581.53182 499.320046 
L 590.615267 498.523158 
L 599.698715 497.72627 
L 608.782162 496.929382 
L 617.865609 496.132494 
L 626.949057 495.335606 
L 636.032504 494.538718 
L 645.115951 493.74183 
L 654.199399 492.944942 
L 663.282846 492.148054 
L 672.366293 491.351166 
L 681.449741 490.554278 
L 690.533188 489.75739 
L 699.616635 488.960502 
L 708.700083 488.163613 
L 717.78353 487.366725 
L 726.866977 486.569837 
L 735.950425 485.772949 
L 745.033872 484.976061 
L 754.117319 484.179173 
L 763.200767 483.382285 
L 772.284214 482.585397 
L 781.367661 481.788509 
L 790.451109 480.991621 
L 799.534556 480.194733 
L 808.618003 479.397845 
L 817.701451 478.600957 
L 826.784898 477.804068 
L 835.868345 477.00718 
L 844.951793 476.210292 
L 854.03524 475.413404 
L 863.118687 474.616516 
L 872.202135 473.819628 
L 881.285582 473.02274 
L 890.369029 472.225852 
L 899.452477 471.428964 
L 908.535924 470.632076 
L 917.619371 469.835188 
L 926.702819 469.0383 
L 935.786266 468.241412 
L 944.869713 467.444524 
L 953.953161 466.647635 
" clip-path="url(#paa2a46b6ec)" style="fill: none; stroke-dasharray: 3,4.95; stroke-dashoffset: 0; stroke: #e2321d; stroke-opacity: 0.9; stroke-width: 3"/>
   </g>
   <g id="line2d_62">
    <path d="M 76.253785 645.743878 
L 81.942217 643.071128 
L 91.025664 638.803205 
L 100.109112 634.535283 
L 109.192559 630.267361 
L 118.276006 625.999438 
L 127.359454 621.731516 
L 136.442901 617.463593 
L 145.526348 613.195671 
L 154.609796 608.927749 
L 163.693243 604.659826 
L 172.77669 600.391904 
L 181.860138 596.123981 
L 190.943585 591.856059 
L 200.027032 587.588137 
L 209.11048 583.320214 
L 218.193927 579.052292 
L 227.277374 574.78437 
L 236.360822 570.516447 
L 245.444269 566.248525 
L 254.527716 561.980602 
L 263.611164 557.71268 
L 272.694611 553.444758 
L 281.778058 549.176835 
L 290.861506 544.908913 
L 299.944953 540.64099 
L 309.0284 536.373068 
L 318.111848 532.105146 
L 327.195295 527.837223 
L 336.278742 523.569301 
L 345.36219 519.301378 
L 354.445637 515.033456 
L 363.529084 510.765534 
L 372.612532 506.497611 
L 381.695979 502.229689 
L 390.779426 497.961766 
L 399.862874 493.693844 
L 408.946321 489.425922 
L 418.029768 485.157999 
L 427.113216 480.890077 
L 436.196663 476.622154 
L 445.28011 472.354232 
L 454.363558 468.08631 
L 463.447005 463.818387 
L 472.530452 459.550465 
L 481.6139 455.282543 
L 490.697347 451.01462 
L 499.780794 446.746698 
L 508.864242 442.478775 
L 517.947689 438.210853 
L 527.031136 433.942931 
L 536.114584 429.675008 
L 545.198031 425.407086 
L 554.281478 421.139163 
L 563.364926 416.871241 
L 572.448373 412.603319 
L 581.53182 408.335396 
L 590.615267 404.067474 
L 599.698715 399.799551 
L 608.782162 395.531629 
L 617.865609 391.263707 
L 626.949057 386.995784 
L 636.032504 382.727862 
L 645.115951 378.459939 
L 654.199399 374.192017 
L 663.282846 369.924095 
L 672.366293 365.656172 
L 681.449741 361.38825 
L 690.533188 357.120327 
L 699.616635 352.852405 
L 708.700083 348.584483 
L 717.78353 344.31656 
L 726.866977 340.048638 
L 735.950425 335.780716 
L 745.033872 331.512793 
L 754.117319 327.244871 
L 763.200767 322.976948 
L 772.284214 318.709026 
L 781.367661 314.441104 
L 790.451109 310.173181 
L 799.534556 305.905259 
L 808.618003 301.637336 
L 817.701451 297.369414 
L 826.784898 293.101492 
L 835.868345 288.833569 
L 844.951793 284.565647 
L 854.03524 280.297724 
L 863.118687 276.029802 
L 872.202135 271.76188 
L 881.285582 267.493957 
L 890.369029 263.226035 
L 899.452477 258.958112 
L 908.535924 254.69019 
L 917.619371 250.422268 
L 926.702819 246.154345 
L 935.786266 241.886423 
L 944.869713 237.618501 
L 953.953161 233.350578 
" clip-path="url(#paa2a46b6ec)" style="fill: none; stroke-dasharray: 3,4.95; stroke-dashoffset: 0; stroke: #48b585; stroke-opacity: 0.9; stroke-width: 3"/>
   </g>
   <g id="line2d_63">
    <path d="M 54.691875 578.54175 
L 61.857304 578.54175 
L 69.022732 578.54175 
L 76.188161 578.54079 
L 83.353589 578.380501 
L 90.519018 578.219253 
L 97.684446 577.713752 
L 104.849875 577.649444 
L 112.015304 577.040603 
L 119.180732 575.583608 
L 126.346161 576.499909 
L 133.511589 576.579253 
L 140.677018 576.362336 
L 147.842446 576.404887 
L 155.007875 576.115344 
L 162.173304 576.060954 
L 169.338732 576.144138 
L 176.504161 576.035359 
L 183.669589 575.839878 
L 190.835018 575.752535 
L 198.000446 575.593526 
L 205.165875 572.383272 
L 212.331304 570.514197 
L 219.496732 567.926863 
L 226.662161 572.199628 
L 233.827589 571.032496 
L 240.993018 570.539472 
L 248.158446 567.097584 
L 255.323875 568.969859 
L 262.489304 565.953488 
L 269.654732 564.260058 
L 276.820161 563.582751 
L 283.985589 564.756282 
L 291.151018 563.991951 
L 298.316446 561.767105 
L 305.481875 564.139122 
L 312.647304 560.303071 
L 319.812732 556.732888 
L 326.978161 557.714456 
L 334.143589 558.234035 
L 341.309018 552.188495 
L 348.474446 556.190594 
L 355.639875 554.884929 
L 362.805304 558.430797 
L 369.970732 563.160753 
L 377.136161 561.891561 
L 384.301589 550.404844 
L 391.467018 551.972857 
L 398.632446 553.629494 
L 405.797875 553.005936 
L 412.963304 551.876556 
L 420.128732 550.3191 
L 427.294161 552.67704 
L 434.459589 556.888058 
L 441.625018 561.784382 
L 448.790446 557.08226 
L 455.955875 556.042783 
L 463.121304 556.114449 
L 470.286732 554.114519 
L 477.452161 552.088675 
L 484.617589 553.475284 
L 491.783018 553.433372 
L 498.948446 551.512467 
M 513.279304 542.952859 
L 520.444732 532.014194 
L 527.610161 533.06039 
L 534.775589 533.852875 
L 541.941018 534.920187 
L 549.106446 533.447514 
L 556.271875 535.013289 
L 563.437304 530.275974 
L 570.602732 531.83023 
L 577.768161 530.617667 
L 584.933589 529.487968 
L 592.099018 477.917556 
L 599.264446 501.483515 
L 606.429875 496.249977 
L 613.595304 491.601925 
L 620.760732 487.239896 
L 627.926161 503.09728 
L 635.091589 499.082384 
L 642.257018 516.665511 
L 649.422446 514.659823 
L 656.587875 518.306471 
L 663.753304 525.055553 
L 670.918732 524.157168 
L 678.084161 522.598113 
L 685.249589 498.510976 
L 692.415018 494.804819 
L 699.580446 505.566558 
L 706.745875 500.109064 
L 713.911304 494.774745 
L 721.076732 481.291618 
L 728.242161 472.00799 
L 735.407589 479.902449 
L 742.573018 476.129426 
L 749.738446 479.562995 
L 756.903875 488.006467 
L 764.069304 480.369878 
L 771.234732 467.515107 
L 778.400161 472.444705 
L 785.565589 474.908864 
L 792.731018 465.391042 
L 799.896446 457.969131 
L 807.061875 462.129919 
L 814.227304 496.171272 
L 821.392732 456.780243 
L 828.558161 449.765293 
L 835.723589 450.125863 
L 842.889018 437.676453 
L 850.054446 434.782938 
L 857.219875 440.852153 
L 864.385304 459.046041 
L 871.550732 456.451668 
L 878.716161 347.85751 
L 885.881589 188.98133 
L 893.047018 193.652738 
L 900.212446 216.272322 
L 907.377875 241.552186 
L 914.543304 243.813184 
L 921.708732 232.932109 
L 928.874161 250.103156 
L 936.039589 247.928541 
L 943.205018 334.247687 
L 950.370446 345.955162 
L 957.535875 340.773773 
" clip-path="url(#paa2a46b6ec)" style="fill: none; stroke: #4ac1fa; stroke-width: 1.5; stroke-linecap: square"/>
   </g>
   <g id="line2d_64">
    <path d="M 54.691875 475.95122 
L 61.857304 505.492333 
L 69.022732 516.547454 
L 76.188161 493.414371 
L 83.353589 482.813561 
L 90.519018 481.762566 
L 97.684446 481.672663 
L 104.849875 469.256527 
L 112.015304 497.71849 
L 119.180732 483.522862 
L 126.346161 465.107578 
L 133.511589 455.071777 
L 140.677018 443.196336 
L 147.842446 433.940543 
L 155.007875 430.992958 
L 162.173304 407.700546 
L 169.338732 404.953242 
L 176.504161 407.929941 
L 183.669589 402.649372 
L 190.835018 408.906711 
L 198.000446 395.024301 
L 205.165875 360.987427 
L 212.331304 347.228833 
L 219.496732 338.441748 
L 226.662161 328.622546 
L 233.827589 292.152866 
L 240.993018 274.269318 
L 248.158446 276.037293 
L 255.323875 295.851984 
L 262.489304 273.379892 
L 269.654732 389.24239 
L 276.820161 466.604565 
L 283.985589 438.754643 
L 291.151018 563.499887 
L 298.316446 562.351631 
L 305.481875 562.416898 
L 312.647304 561.444928 
L 319.812732 563.850218 
L 326.978161 563.360394 
L 334.143589 563.056453 
L 341.309018 563.887331 
L 348.474446 564.101369 
L 355.639875 561.920675 
L 362.805304 562.876968 
L 369.970732 563.359434 
L 377.136161 563.898849 
L 384.301589 564.079294 
L 391.467018 562.841135 
L 398.632446 564.218467 
L 405.797875 561.938912 
L 412.963304 560.402572 
L 420.128732 561.198256 
L 427.294161 550.415402 
L 434.459589 537.41602 
L 441.625018 530.906251 
L 448.790446 521.756677 
L 455.955875 520.61514 
L 463.121304 528.634374 
L 470.286732 526.902552 
L 477.452161 532.671026 
L 484.617589 538.124681 
L 491.783018 541.341333 
L 498.948446 533.715622 
M 513.279304 484.998094 
L 520.444732 484.910111 
L 527.610161 494.678764 
L 534.775589 505.434424 
L 541.941018 552.970103 
L 549.106446 552.509713 
L 556.271875 554.286006 
L 563.437304 552.7775 
L 570.602732 556.485896 
L 577.768161 553.587902 
L 584.933589 550.119459 
L 592.099018 549.916939 
L 599.264446 546.098804 
L 606.429875 549.509658 
L 613.595304 550.069869 
L 620.760732 555.062494 
L 627.926161 558.211319 
L 635.091589 550.617282 
L 642.257018 550.663033 
L 649.422446 549.275144 
L 656.587875 542.48607 
L 663.753304 537.902965 
L 670.918732 539.351322 
L 678.084161 537.458251 
L 685.249589 538.965157 
L 692.415018 535.043043 
L 699.580446 522.271776 
L 706.745875 518.434126 
L 713.911304 525.503785 
L 721.076732 511.365746 
L 728.242161 524.905502 
L 735.407589 517.376412 
L 742.573018 518.05212 
L 749.738446 518.468999 
L 756.903875 520.249771 
L 764.069304 514.023467 
L 771.234732 506.766004 
L 778.400161 515.532292 
L 785.565589 516.117458 
L 792.731018 512.599745 
L 799.896446 509.34694 
L 807.061875 506.769843 
L 814.227304 506.517412 
L 821.392732 486.6077 
L 828.558161 485.844329 
L 835.723589 494.280442 
L 842.889018 497.437905 
L 850.054446 517.582772 
L 857.219875 509.783335 
L 864.385304 514.208071 
L 871.550732 522.09901 
L 878.716161 538.965797 
L 885.881589 516.323818 
L 893.047018 463.270176 
L 900.212446 536.291439 
L 907.377875 562.621338 
L 914.543304 561.272162 
L 921.708732 558.36297 
L 928.874161 557.869306 
L 936.039589 558.10638 
L 943.205018 557.669665 
L 950.370446 562.016017 
L 957.535875 563.164272 
" clip-path="url(#paa2a46b6ec)" style="fill: none; stroke: #e9a942; stroke-width: 1.5; stroke-linecap: square"/>
   </g>
   <g id="line2d_65">
    <path d="M 54.691875 576.80001 
L 61.857304 576.163334 
L 69.022732 576.728344 
L 76.188161 576.073432 
L 83.353589 575.750295 
L 90.519018 575.511622 
L 97.684446 575.441235 
L 104.849875 575.089304 
L 112.015304 575.472269 
L 119.180732 575.038754 
L 126.346161 574.775445 
L 133.511589 575.166089 
L 140.677018 575.238715 
L 147.842446 575.143693 
L 155.007875 574.756569 
L 162.173304 573.757404 
L 169.338732 572.937404 
L 176.504161 571.609344 
L 183.669589 569.866644 
L 190.835018 569.816734 
L 198.000446 564.492013 
L 205.165875 566.163687 
L 212.331304 565.088057 
L 219.496732 565.451826 
L 226.662161 565.867425 
L 233.827589 570.08836 
L 240.993018 568.918349 
L 248.158446 569.229648 
L 255.323875 571.776671 
L 262.489304 569.126628 
L 269.654732 555.217344 
L 276.820161 536.925235 
L 283.985589 556.090454 
L 291.151018 543.25072 
L 298.316446 554.333677 
L 305.481875 552.760544 
L 312.647304 551.536463 
L 319.812732 554.840778 
L 326.978161 554.819662 
L 334.143589 555.607348 
L 341.309018 554.261051 
L 348.474446 554.744476 
L 355.639875 555.49313 
L 362.805304 551.342581 
L 369.970732 555.704289 
L 377.136161 552.793497 
L 384.301589 548.805796 
L 391.467018 542.419523 
L 398.632446 546.83914 
L 405.797875 545.317837 
L 412.963304 544.629011 
L 420.128732 548.591118 
L 427.294161 550.188246 
L 434.459589 542.314903 
L 441.625018 548.183837 
L 448.790446 537.957994 
L 455.955875 539.586796 
L 463.121304 542.657236 
L 470.286732 541.186803 
L 477.452161 541.450752 
L 484.617589 538.058454 
L 491.783018 545.621138 
L 498.948446 533.596925 
M 513.279304 537.868411 
L 520.444732 531.869902 
L 527.610161 544.167981 
L 534.775589 547.329604 
L 541.941018 545.433654 
L 549.106446 537.77339 
L 556.271875 542.479351 
L 563.437304 540.855028 
L 570.602732 540.695059 
L 577.768161 537.101201 
L 584.933589 534.982895 
L 592.099018 535.092313 
L 599.264446 526.142381 
L 606.429875 523.611355 
L 613.595304 535.818891 
L 620.760732 538.673374 
L 627.926161 546.779951 
L 635.091589 539.084174 
L 642.257018 536.977385 
L 649.422446 537.598064 
L 656.587875 540.701458 
L 663.753304 519.532791 
L 670.918732 517.653158 
L 678.084161 527.509154 
L 685.249589 523.727492 
L 692.415018 526.0432 
L 699.580446 535.293554 
L 706.745875 543.427966 
L 713.911304 541.807162 
L 721.076732 544.040326 
L 728.242161 537.236855 
L 735.407589 534.03204 
L 742.573018 535.330667 
L 749.738446 533.88199 
L 756.903875 537.758993 
L 764.069304 535.615731 
L 771.234732 538.520444 
L 778.400161 537.51872 
L 785.565589 539.674779 
L 792.731018 538.518524 
L 799.896446 538.156995 
L 807.061875 536.867007 
L 814.227304 549.191001 
L 821.392732 539.296932 
L 828.558161 537.090643 
L 835.723589 527.859485 
L 842.889018 530.497051 
L 850.054446 535.303152 
L 857.219875 530.633024 
L 864.385304 536.466765 
L 871.550732 536.110674 
L 878.716161 532.944893 
L 885.881589 532.994803 
L 893.047018 532.744612 
L 900.212446 533.021038 
L 907.377875 538.032859 
L 914.543304 537.041693 
L 921.708732 527.729591 
L 928.874161 533.646516 
L 936.039589 535.608692 
L 943.205018 528.725556 
L 950.370446 525.657036 
L 957.535875 525.375171 
" clip-path="url(#paa2a46b6ec)" style="fill: none; stroke: #9a5689; stroke-width: 1.5; stroke-linecap: square"/>
   </g>
   <g id="line2d_66">
    <path d="M 54.691875 577.881399 
L 61.857304 577.579378 
L 69.022732 577.705433 
L 76.188161 577.426448 
L 83.353589 577.300072 
L 90.519018 577.151301 
L 97.684446 577.095632 
L 104.849875 577.189054 
L 112.015304 577.296553 
L 119.180732 577.168898 
L 126.346161 577.072597 
L 133.511589 577.26296 
L 140.677018 577.344224 
L 147.842446 576.59461 
L 155.007875 574.874306 
L 162.173304 574.492941 
L 169.338732 574.472465 
L 176.504161 575.176967 
L 183.669589 574.972207 
L 190.835018 575.337896 
L 198.000446 575.00804 
L 205.165875 575.505863 
L 212.331304 575.127377 
L 219.496732 575.025637 
L 226.662161 575.429718 
L 233.827589 574.165324 
L 240.993018 573.550724 
L 248.158446 573.812113 
L 255.323875 574.097178 
L 262.489304 572.943483 
L 269.654732 571.854096 
L 276.820161 571.52648 
L 283.985589 562.935837 
L 291.151018 564.681096 
L 298.316446 559.063313 
L 305.481875 564.136243 
L 312.647304 557.104016 
L 319.812732 556.539006 
L 326.978161 557.442829 
L 334.143589 561.346707 
L 341.309018 554.406302 
L 348.474446 557.734932 
L 355.639875 562.527597 
L 362.805304 566.105138 
L 369.970732 558.485826 
L 377.136161 564.904733 
L 384.301589 575.253432 
L 391.467018 573.968563 
L 398.632446 568.955462 
L 405.797875 560.620449 
L 412.963304 568.851162 
L 420.128732 567.777772 
L 427.294161 564.322766 
L 434.459589 564.735806 
L 441.625018 563.754237 
L 448.790446 561.500917 
L 455.955875 558.810882 
L 463.121304 560.621729 
L 470.286732 564.357319 
L 477.452161 565.797038 
L 484.617589 564.20151 
L 491.783018 564.453621 
L 498.948446 559.112903 
M 513.279304 559.64496 
L 520.444732 559.750539 
L 527.610161 559.919466 
L 534.775589 557.088339 
L 541.941018 554.596345 
L 549.106446 555.450578 
L 556.271875 560.374097 
L 563.437304 557.195838 
L 570.602732 554.995947 
L 577.768161 552.308152 
L 584.933589 554.028776 
L 592.099018 551.984375 
L 599.264446 542.879593 
L 606.429875 542.918945 
L 613.595304 544.37946 
L 620.760732 548.395956 
L 627.926161 555.062174 
L 635.091589 552.168659 
L 642.257018 549.55509 
L 649.422446 552.185296 
L 656.587875 548.804836 
L 663.753304 545.344072 
L 670.918732 548.085296 
L 678.084161 540.866226 
L 685.249589 544.757946 
L 692.415018 541.745094 
L 699.580446 540.682582 
L 706.745875 543.947224 
L 713.911304 542.749058 
L 721.076732 545.990026 
L 728.242161 543.701832 
L 735.407589 543.108668 
L 742.573018 544.554146 
L 749.738446 543.945305 
L 756.903875 542.469113 
L 764.069304 541.97289 
L 771.234732 544.89296 
L 778.400161 546.035137 
L 785.565589 538.13236 
L 792.731018 542.812726 
L 799.896446 535.256761 
L 807.061875 543.068036 
L 814.227304 565.346886 
L 821.392732 549.337212 
L 828.558161 549.492702 
L 835.723589 539.893936 
L 842.889018 539.959523 
L 850.054446 533.895747 
L 857.219875 540.210354 
L 864.385304 542.38177 
L 871.550732 535.660202 
L 878.716161 535.993577 
L 885.881589 532.707819 
L 893.047018 536.095317 
L 900.212446 526.770098 
L 907.377875 535.449684 
L 914.543304 513.477653 
L 921.708732 506.382719 
L 928.874161 525.721983 
L 936.039589 530.725166 
L 943.205018 523.1756 
L 950.370446 529.226259 
L 957.535875 525.575451 
" clip-path="url(#paa2a46b6ec)" style="fill: none; stroke: #be503b; stroke-width: 1.5; stroke-linecap: square"/>
   </g>
   <g id="line2d_67">
    <path d="M 54.691875 567.585169 
L 61.857304 569.288837 
L 69.022732 570.882765 
L 76.188161 565.368642 
L 83.353589 564.292372 
L 90.519018 561.205935 
L 97.684446 556.667941 
L 104.849875 555.002986 
L 112.015304 547.622347 
L 119.180732 535.147663 
L 126.346161 519.58942 
L 133.511589 520.652893 
L 140.677018 513.875336 
L 147.842446 526.036161 
L 155.007875 515.514696 
L 162.173304 509.45124 
L 169.338732 506.380479 
L 176.504161 505.031942 
L 183.669589 503.346192 
L 190.835018 504.483889 
L 198.000446 489.000193 
L 205.165875 481.208754 
L 212.331304 474.936059 
L 219.496732 479.139718 
L 226.662161 479.648738 
L 233.827589 474.860873 
L 240.993018 485.009612 
L 248.158446 520.525877 
L 255.323875 515.03255 
L 262.489304 511.052527 
L 269.654732 518.038363 
L 276.820161 515.528453 
L 283.985589 517.024801 
L 291.151018 516.354532 
L 298.316446 509.790373 
L 305.481875 511.849491 
L 312.647304 518.577458 
L 319.812732 540.626593 
L 326.978161 541.489144 
L 334.143589 543.370697 
L 341.309018 540.835512 
L 348.474446 545.000459 
L 355.639875 542.769214 
L 362.805304 541.166647 
L 369.970732 543.000209 
L 377.136161 538.998111 
L 384.301589 538.586031 
L 391.467018 538.330401 
L 398.632446 538.615465 
L 405.797875 533.956215 
L 412.963304 534.425244 
L 420.128732 535.665001 
L 427.294161 535.856964 
L 434.459589 539.240303 
L 441.625018 549.764649 
L 448.790446 538.860538 
L 455.955875 532.910979 
L 463.121304 530.677495 
L 470.286732 529.73016 
L 477.452161 530.04018 
L 484.617589 529.726641 
L 491.783018 531.638268 
L 498.948446 528.034491 
M 513.279304 525.002763 
L 520.444732 527.68416 
L 527.610161 525.978253 
L 534.775589 523.963286 
L 541.941018 519.674844 
L 549.106446 519.132549 
L 556.271875 522.548842 
L 563.437304 510.853846 
L 570.602732 516.639276 
L 577.768161 515.202757 
L 584.933589 515.669226 
L 592.099018 510.690678 
L 599.264446 507.124014 
L 606.429875 502.351826 
L 613.595304 502.266082 
L 620.760732 505.09593 
L 627.926161 528.233173 
L 635.091589 507.464428 
L 642.257018 502.956828 
L 649.422446 500.831803 
L 656.587875 497.579957 
L 663.753304 488.841824 
L 670.918732 492.574855 
L 678.084161 490.716338 
L 685.249589 485.681161 
L 692.415018 492.806809 
L 699.580446 490.215955 
L 706.745875 487.332998 
L 713.911304 427.958671 
L 721.076732 484.341582 
L 728.242161 486.24905 
L 735.407589 479.112203 
L 742.573018 475.379492 
L 749.738446 477.455567 
L 756.903875 475.025321 
L 764.069304 471.384112 
L 771.234732 475.702629 
L 778.400161 458.760017 
L 785.565589 469.918798 
L 792.731018 463.782716 
L 799.896446 469.360827 
L 807.061875 474.554053 
L 814.227304 509.988095 
L 821.392732 475.923066 
L 828.558161 470.084206 
L 835.723589 465.430395 
L 842.889018 461.172026 
L 850.054446 464.78828 
L 857.219875 449.338176 
L 864.385304 458.708187 
L 871.550732 464.94025 
L 878.716161 470.288966 
L 885.881589 458.789451 
L 893.047018 467.667078 
L 900.212446 461.158589 
L 907.377875 478.315879 
L 914.543304 480.180475 
L 921.708732 457.329896 
L 928.874161 461.732556 
L 936.039589 467.444721 
L 943.205018 460.264683 
L 950.370446 440.384405 
L 957.535875 439.627432 
" clip-path="url(#paa2a46b6ec)" style="fill: none; stroke: #e2321d; stroke-width: 1.5; stroke-linecap: square"/>
   </g>
   <g id="line2d_68">
    <path d="M 54.691875 578.54175 
L 61.857304 578.54175 
L 69.022732 578.54175 
L 76.188161 578.54175 
L 83.353589 578.54175 
L 90.519018 578.54175 
L 97.684446 578.54175 
L 104.849875 578.54175 
L 112.015304 578.54175 
L 119.180732 578.54175 
L 126.346161 578.413455 
L 133.511589 576.393369 
L 140.677018 577.811972 
L 147.842446 577.837567 
L 155.007875 576.720026 
L 162.173304 574.633713 
L 169.338732 574.59916 
L 176.504161 574.747611 
L 183.669589 574.353128 
L 190.835018 573.913214 
L 198.000446 573.761243 
L 205.165875 573.190795 
L 212.331304 571.991029 
L 219.496732 571.573511 
L 226.662161 570.736554 
L 233.827589 569.416812 
L 240.993018 564.09785 
L 248.158446 565.374721 
L 255.323875 565.963406 
L 262.489304 564.259739 
L 269.654732 559.5413 
L 276.820161 553.246849 
L 283.985589 552.2688 
L 291.151018 547.885336 
L 298.316446 545.024774 
L 305.481875 548.958086 
L 312.647304 547.234583 
L 319.812732 541.695504 
L 326.978161 538.879094 
L 334.143589 515.174602 
L 341.309018 504.097725 
L 348.474446 510.62669 
L 355.639875 522.281375 
L 362.805304 521.084168 
L 369.970732 503.853293 
L 377.136161 502.815735 
L 384.301589 501.690515 
L 391.467018 492.146138 
L 398.632446 498.133449 
L 405.797875 505.55568 
L 412.963304 518.751824 
L 420.128732 506.797998 
L 427.294161 500.923945 
L 434.459589 505.461939 
L 441.625018 509.512668 
L 448.790446 503.30076 
L 455.955875 518.768141 
L 463.121304 509.96314 
L 470.286732 511.882765 
L 477.452161 511.262086 
L 484.617589 500.866356 
L 491.783018 512.087205 
L 498.948446 505.316687 
M 513.279304 506.396476 
L 520.444732 500.149056 
L 527.610161 499.649953 
L 534.775589 514.154001 
L 541.941018 499.260269 
L 549.106446 488.794473 
L 556.271875 490.672826 
L 563.437304 493.964983 
L 570.602732 475.3395 
L 577.768161 462.438339 
L 584.933589 482.499702 
L 592.099018 474.504463 
L 599.264446 436.029415 
L 606.429875 421.681816 
L 613.595304 466.558814 
L 620.760732 469.939274 
L 627.926161 478.012258 
L 635.091589 455.027306 
L 642.257018 425.291671 
L 649.422446 438.51245 
L 656.587875 413.401833 
L 663.753304 408.96142 
L 670.918732 401.505596 
L 678.084161 398.263349 
L 685.249589 408.458158 
L 692.415018 431.942853 
L 699.580446 422.94205 
L 706.745875 419.774029 
L 713.911304 415.342574 
L 721.076732 411.7276 
L 728.242161 390.941258 
L 735.407589 368.126513 
L 742.573018 366.305108 
L 749.738446 359.758546 
L 756.903875 356.655472 
L 764.069304 325.626971 
L 771.234732 286.428224 
L 778.400161 275.48604 
L 785.565589 256.916866 
L 792.731018 275.724714 
L 799.896446 293.653693 
L 807.061875 255.314299 
L 814.227304 325.594977 
L 821.392732 253.554322 
L 828.558161 236.309369 
L 835.723589 180.379809 
L 842.889018 167.822581 
L 850.054446 168.651859 
L 857.219875 167.388746 
L 864.385304 190.092153 
L 871.550732 232.477797 
L 878.716161 222.998688 
L 885.881589 200.032932 
L 893.047018 262.12225 
L 900.212446 287.199913 
L 907.377875 299.327465 
L 914.543304 235.131679 
L 921.708732 179.40336 
L 928.874161 178.875463 
L 936.039589 133.100081 
L 943.205018 105.230322 
L 950.370446 81.365541 
L 957.535875 54.224281 
" clip-path="url(#paa2a46b6ec)" style="fill: none; stroke: #48b585; stroke-width: 6; stroke-linecap: square"/>
   </g>
   <g id="patch_3">
    <path d="M 54.691875 578.54175 
L 54.691875 24.14175 
" style="fill: none; stroke: #ffffff; stroke-linejoin: miter; stroke-linecap: square"/>
   </g>
   <g id="patch_4">
    <path d="M 957.535875 578.54175 
L 957.535875 24.14175 
" style="fill: none; stroke: #ffffff; stroke-linejoin: miter; stroke-linecap: square"/>
   </g>
   <g id="patch_5">
    <path d="M 54.691875 578.54175 
L 957.535875 578.54175 
" style="fill: none; stroke: #ffffff; stroke-linejoin: miter; stroke-linecap: square"/>
   </g>
   <g id="patch_6">
    <path d="M 54.691875 24.14175 
L 957.535875 24.14175 
" style="fill: none; stroke: #ffffff; stroke-linejoin: miter; stroke-linecap: square"/>
   </g>
   <g id="text_31">
    <!-- Potentially Ephemeral Enterprise Linux Instances by Distribution (2 Week Resample) -->
    <g transform="translate(54.691875 18.14175) scale(0.144 -0.144)">
     <defs>
      <path id="DejaVuSans-50" d="M 1259 4147 
L 1259 2394 
L 2053 2394 
Q 2494 2394 2734 2622 
Q 2975 2850 2975 3272 
Q 2975 3691 2734 3919 
Q 2494 4147 2053 4147 
L 1259 4147 
z
M 628 4666 
L 2053 4666 
Q 2838 4666 3239 4311 
Q 3641 3956 3641 3272 
Q 3641 2581 3239 2228 
Q 2838 1875 2053 1875 
L 1259 1875 
L 1259 0 
L 628 0 
L 628 4666 
z
" transform="scale(0.015625)"/>
      <path id="DejaVuSans-6f" d="M 1959 3097 
Q 1497 3097 1228 2736 
Q 959 2375 959 1747 
Q 959 1119 1226 758 
Q 1494 397 1959 397 
Q 2419 397 2687 759 
Q 2956 1122 2956 1747 
Q 2956 2369 2687 2733 
Q 2419 3097 1959 3097 
z
M 1959 3584 
Q 2709 3584 3137 3096 
Q 3566 2609 3566 1747 
Q 3566 888 3137 398 
Q 2709 -91 1959 -91 
Q 1206 -91 779 398 
Q 353 888 353 1747 
Q 353 2609 779 3096 
Q 1206 3584 1959 3584 
z
" transform="scale(0.015625)"/>
      <path id="DejaVuSans-69" d="M 603 3500 
L 1178 3500 
L 1178 0 
L 603 0 
L 603 3500 
z
M 603 4863 
L 1178 4863 
L 1178 4134 
L 603 4134 
L 603 4863 
z
" transform="scale(0.015625)"/>
      <path id="DejaVuSans-6c" d="M 603 4863 
L 1178 4863 
L 1178 0 
L 603 0 
L 603 4863 
z
" transform="scale(0.015625)"/>
      <path id="DejaVuSans-79" d="M 2059 -325 
Q 1816 -950 1584 -1140 
Q 1353 -1331 966 -1331 
L 506 -1331 
L 506 -850 
L 844 -850 
Q 1081 -850 1212 -737 
Q 1344 -625 1503 -206 
L 1606 56 
L 191 3500 
L 800 3500 
L 1894 763 
L 2988 3500 
L 3597 3500 
L 2059 -325 
z
" transform="scale(0.015625)"/>
      <path id="DejaVuSans-20" transform="scale(0.015625)"/>
      <path id="DejaVuSans-45" d="M 628 4666 
L 3578 4666 
L 3578 4134 
L 1259 4134 
L 1259 2753 
L 3481 2753 
L 3481 2222 
L 1259 2222 
L 1259 531 
L 3634 531 
L 3634 0 
L 628 0 
L 628 4666 
z
" transform="scale(0.015625)"/>
      <path id="DejaVuSans-70" d="M 1159 525 
L 1159 -1331 
L 581 -1331 
L 581 3500 
L 1159 3500 
L 1159 2969 
Q 1341 3281 1617 3432 
Q 1894 3584 2278 3584 
Q 2916 3584 3314 3078 
Q 3713 2572 3713 1747 
Q 3713 922 3314 415 
Q 2916 -91 2278 -91 
Q 1894 -91 1617 61 
Q 1341 213 1159 525 
z
M 3116 1747 
Q 3116 2381 2855 2742 
Q 2594 3103 2138 3103 
Q 1681 3103 1420 2742 
Q 1159 2381 1159 1747 
Q 1159 1113 1420 752 
Q 1681 391 2138 391 
Q 2594 391 2855 752 
Q 3116 1113 3116 1747 
z
" transform="scale(0.015625)"/>
      <path id="DejaVuSans-68" d="M 3513 2113 
L 3513 0 
L 2938 0 
L 2938 2094 
Q 2938 2591 2744 2837 
Q 2550 3084 2163 3084 
Q 1697 3084 1428 2787 
Q 1159 2491 1159 1978 
L 1159 0 
L 581 0 
L 581 4863 
L 1159 4863 
L 1159 2956 
Q 1366 3272 1645 3428 
Q 1925 3584 2291 3584 
Q 2894 3584 3203 3211 
Q 3513 2838 3513 2113 
z
" transform="scale(0.015625)"/>
      <path id="DejaVuSans-6d" d="M 3328 2828 
Q 3544 3216 3844 3400 
Q 4144 3584 4550 3584 
Q 5097 3584 5394 3201 
Q 5691 2819 5691 2113 
L 5691 0 
L 5113 0 
L 5113 2094 
Q 5113 2597 4934 2840 
Q 4756 3084 4391 3084 
Q 3944 3084 3684 2787 
Q 3425 2491 3425 1978 
L 3425 0 
L 2847 0 
L 2847 2094 
Q 2847 2600 2669 2842 
Q 2491 3084 2119 3084 
Q 1678 3084 1418 2786 
Q 1159 2488 1159 1978 
L 1159 0 
L 581 0 
L 581 3500 
L 1159 3500 
L 1159 2956 
Q 1356 3278 1631 3431 
Q 1906 3584 2284 3584 
Q 2666 3584 2933 3390 
Q 3200 3197 3328 2828 
z
" transform="scale(0.015625)"/>
      <path id="DejaVuSans-72" d="M 2631 2963 
Q 2534 3019 2420 3045 
Q 2306 3072 2169 3072 
Q 1681 3072 1420 2755 
Q 1159 2438 1159 1844 
L 1159 0 
L 581 0 
L 581 3500 
L 1159 3500 
L 1159 2956 
Q 1341 3275 1631 3429 
Q 1922 3584 2338 3584 
Q 2397 3584 2469 3576 
Q 2541 3569 2628 3553 
L 2631 2963 
z
" transform="scale(0.015625)"/>
      <path id="DejaVuSans-4c" d="M 628 4666 
L 1259 4666 
L 1259 531 
L 3531 531 
L 3531 0 
L 628 0 
L 628 4666 
z
" transform="scale(0.015625)"/>
      <path id="DejaVuSans-75" d="M 544 1381 
L 544 3500 
L 1119 3500 
L 1119 1403 
Q 1119 906 1312 657 
Q 1506 409 1894 409 
Q 2359 409 2629 706 
Q 2900 1003 2900 1516 
L 2900 3500 
L 3475 3500 
L 3475 0 
L 2900 0 
L 2900 538 
Q 2691 219 2414 64 
Q 2138 -91 1772 -91 
Q 1169 -91 856 284 
Q 544 659 544 1381 
z
M 1991 3584 
L 1991 3584 
z
" transform="scale(0.015625)"/>
      <path id="DejaVuSans-78" d="M 3513 3500 
L 2247 1797 
L 3578 0 
L 2900 0 
L 1881 1375 
L 863 0 
L 184 0 
L 1544 1831 
L 300 3500 
L 978 3500 
L 1906 2253 
L 2834 3500 
L 3513 3500 
z
" transform="scale(0.015625)"/>
      <path id="DejaVuSans-62" d="M 3116 1747 
Q 3116 2381 2855 2742 
Q 2594 3103 2138 3103 
Q 1681 3103 1420 2742 
Q 1159 2381 1159 1747 
Q 1159 1113 1420 752 
Q 1681 391 2138 391 
Q 2594 391 2855 752 
Q 3116 1113 3116 1747 
z
M 1159 2969 
Q 1341 3281 1617 3432 
Q 1894 3584 2278 3584 
Q 2916 3584 3314 3078 
Q 3713 2572 3713 1747 
Q 3713 922 3314 415 
Q 2916 -91 2278 -91 
Q 1894 -91 1617 61 
Q 1341 213 1159 525 
L 1159 0 
L 581 0 
L 581 4863 
L 1159 4863 
L 1159 2969 
z
" transform="scale(0.015625)"/>
      <path id="DejaVuSans-28" d="M 1984 4856 
Q 1566 4138 1362 3434 
Q 1159 2731 1159 2009 
Q 1159 1288 1364 580 
Q 1569 -128 1984 -844 
L 1484 -844 
Q 1016 -109 783 600 
Q 550 1309 550 2009 
Q 550 2706 781 3412 
Q 1013 4119 1484 4856 
L 1984 4856 
z
" transform="scale(0.015625)"/>
      <path id="DejaVuSans-57" d="M 213 4666 
L 850 4666 
L 1831 722 
L 2809 4666 
L 3519 4666 
L 4500 722 
L 5478 4666 
L 6119 4666 
L 4947 0 
L 4153 0 
L 3169 4050 
L 2175 0 
L 1381 0 
L 213 4666 
z
" transform="scale(0.015625)"/>
      <path id="DejaVuSans-52" d="M 2841 2188 
Q 3044 2119 3236 1894 
Q 3428 1669 3622 1275 
L 4263 0 
L 3584 0 
L 2988 1197 
Q 2756 1666 2539 1819 
Q 2322 1972 1947 1972 
L 1259 1972 
L 1259 0 
L 628 0 
L 628 4666 
L 2053 4666 
Q 2853 4666 3247 4331 
Q 3641 3997 3641 3322 
Q 3641 2881 3436 2590 
Q 3231 2300 2841 2188 
z
M 1259 4147 
L 1259 2491 
L 2053 2491 
Q 2509 2491 2742 2702 
Q 2975 2913 2975 3322 
Q 2975 3731 2742 3939 
Q 2509 4147 2053 4147 
L 1259 4147 
z
" transform="scale(0.015625)"/>
      <path id="DejaVuSans-29" d="M 513 4856 
L 1013 4856 
Q 1481 4119 1714 3412 
Q 1947 2706 1947 2009 
Q 1947 1309 1714 600 
Q 1481 -109 1013 -844 
L 513 -844 
Q 928 -128 1133 580 
Q 1338 1288 1338 2009 
Q 1338 2731 1133 3434 
Q 928 4138 513 4856 
z
" transform="scale(0.015625)"/>
     </defs>
     <use xlink:href="#DejaVuSans-50"/>
     <use xlink:href="#DejaVuSans-6f" x="56.677734"/>
     <use xlink:href="#DejaVuSans-74" x="117.859375"/>
     <use xlink:href="#DejaVuSans-65" x="157.068359"/>
     <use xlink:href="#DejaVuSans-6e" x="218.591797"/>
     <use xlink:href="#DejaVuSans-74" x="281.970703"/>
     <use xlink:href="#DejaVuSans-69" x="321.179688"/>
     <use xlink:href="#DejaVuSans-61" x="348.962891"/>
     <use xlink:href="#DejaVuSans-6c" x="410.242188"/>
     <use xlink:href="#DejaVuSans-6c" x="438.025391"/>
     <use xlink:href="#DejaVuSans-79" x="465.808594"/>
     <use xlink:href="#DejaVuSans-20" x="524.988281"/>
     <use xlink:href="#DejaVuSans-45" x="556.775391"/>
     <use xlink:href="#DejaVuSans-70" x="619.958984"/>
     <use xlink:href="#DejaVuSans-68" x="683.435547"/>
     <use xlink:href="#DejaVuSans-65" x="746.814453"/>
     <use xlink:href="#DejaVuSans-6d" x="808.337891"/>
     <use xlink:href="#DejaVuSans-65" x="905.75"/>
     <use xlink:href="#DejaVuSans-72" x="967.273438"/>
     <use xlink:href="#DejaVuSans-61" x="1008.386719"/>
     <use xlink:href="#DejaVuSans-6c" x="1069.666016"/>
     <use xlink:href="#DejaVuSans-20" x="1097.449219"/>
     <use xlink:href="#DejaVuSans-45" x="1129.236328"/>
     <use xlink:href="#DejaVuSans-6e" x="1192.419922"/>
     <use xlink:href="#DejaVuSans-74" x="1255.798828"/>
     <use xlink:href="#DejaVuSans-65" x="1295.007812"/>
     <use xlink:href="#DejaVuSans-72" x="1356.53125"/>
     <use xlink:href="#DejaVuSans-70" x="1397.644531"/>
     <use xlink:href="#DejaVuSans-72" x="1461.121094"/>
     <use xlink:href="#DejaVuSans-69" x="1502.234375"/>
     <use xlink:href="#DejaVuSans-73" x="1530.017578"/>
     <use xlink:href="#DejaVuSans-65" x="1582.117188"/>
     <use xlink:href="#DejaVuSans-20" x="1643.640625"/>
     <use xlink:href="#DejaVuSans-4c" x="1675.427734"/>
     <use xlink:href="#DejaVuSans-69" x="1731.140625"/>
     <use xlink:href="#DejaVuSans-6e" x="1758.923828"/>
     <use xlink:href="#DejaVuSans-75" x="1822.302734"/>
     <use xlink:href="#DejaVuSans-78" x="1885.681641"/>
     <use xlink:href="#DejaVuSans-20" x="1944.861328"/>
     <use xlink:href="#DejaVuSans-49" x="1976.648438"/>
     <use xlink:href="#DejaVuSans-6e" x="2006.140625"/>
     <use xlink:href="#DejaVuSans-73" x="2069.519531"/>
     <use xlink:href="#DejaVuSans-74" x="2121.619141"/>
     <use xlink:href="#DejaVuSans-61" x="2160.828125"/>
     <use xlink:href="#DejaVuSans-6e" x="2222.107422"/>
     <use xlink:href="#DejaVuSans-63" x="2285.486328"/>
     <use xlink:href="#DejaVuSans-65" x="2340.466797"/>
     <use xlink:href="#DejaVuSans-73" x="2401.990234"/>
     <use xlink:href="#DejaVuSans-20" x="2454.089844"/>
     <use xlink:href="#DejaVuSans-62" x="2485.876953"/>
     <use xlink:href="#DejaVuSans-79" x="2549.353516"/>
     <use xlink:href="#DejaVuSans-20" x="2608.533203"/>
     <use xlink:href="#DejaVuSans-44" x="2640.320312"/>
     <use xlink:href="#DejaVuSans-69" x="2717.322266"/>
     <use xlink:href="#DejaVuSans-73" x="2745.105469"/>
     <use xlink:href="#DejaVuSans-74" x="2797.205078"/>
     <use xlink:href="#DejaVuSans-72" x="2836.414062"/>
     <use xlink:href="#DejaVuSans-69" x="2877.527344"/>
     <use xlink:href="#DejaVuSans-62" x="2905.310547"/>
     <use xlink:href="#DejaVuSans-75" x="2968.787109"/>
     <use xlink:href="#DejaVuSans-74" x="3032.166016"/>
     <use xlink:href="#DejaVuSans-69" x="3071.375"/>
     <use xlink:href="#DejaVuSans-6f" x="3099.158203"/>
     <use xlink:href="#DejaVuSans-6e" x="3160.339844"/>
     <use xlink:href="#DejaVuSans-20" x="3223.71875"/>
     <use xlink:href="#DejaVuSans-28" x="3255.505859"/>
     <use xlink:href="#DejaVuSans-32" x="3294.519531"/>
     <use xlink:href="#DejaVuSans-20" x="3358.142578"/>
     <use xlink:href="#DejaVuSans-57" x="3389.929688"/>
     <use xlink:href="#DejaVuSans-65" x="3482.931641"/>
     <use xlink:href="#DejaVuSans-65" x="3544.455078"/>
     <use xlink:href="#DejaVuSans-6b" x="3605.978516"/>
     <use xlink:href="#DejaVuSans-20" x="3663.888672"/>
     <use xlink:href="#DejaVuSans-52" x="3695.675781"/>
     <use xlink:href="#DejaVuSans-65" x="3760.658203"/>
     <use xlink:href="#DejaVuSans-73" x="3822.181641"/>
     <use xlink:href="#DejaVuSans-61" x="3874.28125"/>
     <use xlink:href="#DejaVuSans-6d" x="3935.560547"/>
     <use xlink:href="#DejaVuSans-70" x="4032.972656"/>
     <use xlink:href="#DejaVuSans-6c" x="4096.449219"/>
     <use xlink:href="#DejaVuSans-65" x="4124.232422"/>
     <use xlink:href="#DejaVuSans-29" x="4185.755859"/>
    </g>
   </g>
   <g id="text_32">
    <!-- 2025-10-09 11:55 UTC -->
    <g transform="translate(794.653875 18.14175) scale(0.144 -0.144)">
     <defs>
      <path id="DejaVuSans-39" d="M 703 97 
L 703 672 
Q 941 559 1184 500 
Q 1428 441 1663 441 
Q 2288 441 2617 861 
Q 2947 1281 2994 2138 
Q 2813 1869 2534 1725 
Q 2256 1581 1919 1581 
Q 1219 1581 811 2004 
Q 403 2428 403 3163 
Q 403 3881 828 4315 
Q 1253 4750 1959 4750 
Q 2769 4750 3195 4129 
Q 3622 3509 3622 2328 
Q 3622 1225 3098 567 
Q 2575 -91 1691 -91 
Q 1453 -91 1209 -44 
Q 966 3 703 97 
z
M 1959 2075 
Q 2384 2075 2632 2365 
Q 2881 2656 2881 3163 
Q 2881 3666 2632 3958 
Q 2384 4250 1959 4250 
Q 1534 4250 1286 3958 
Q 1038 3666 1038 3163 
Q 1038 2656 1286 2365 
Q 1534 2075 1959 2075 
z
" transform="scale(0.015625)"/>
      <path id="DejaVuSans-3a" d="M 750 794 
L 1409 794 
L 1409 0 
L 750 0 
L 750 794 
z
M 750 3309 
L 1409 3309 
L 1409 2516 
L 750 2516 
L 750 3309 
z
" transform="scale(0.015625)"/>
      <path id="DejaVuSans-55" d="M 556 4666 
L 1191 4666 
L 1191 1831 
Q 1191 1081 1462 751 
Q 1734 422 2344 422 
Q 2950 422 3222 751 
Q 3494 1081 3494 1831 
L 3494 4666 
L 4128 4666 
L 4128 1753 
Q 4128 841 3676 375 
Q 3225 -91 2344 -91 
Q 1459 -91 1007 375 
Q 556 841 556 1753 
L 556 4666 
z
" transform="scale(0.015625)"/>
      <path id="DejaVuSans-54" d="M -19 4666 
L 3928 4666 
L 3928 4134 
L 2272 4134 
L 2272 0 
L 1638 0 
L 1638 4134 
L -19 4134 
L -19 4666 
z
" transform="scale(0.015625)"/>
      <path id="DejaVuSans-43" d="M 4122 4306 
L 4122 3641 
Q 3803 3938 3442 4084 
Q 3081 4231 2675 4231 
Q 1875 4231 1450 3742 
Q 1025 3253 1025 2328 
Q 1025 1406 1450 917 
Q 1875 428 2675 428 
Q 3081 428 3442 575 
Q 3803 722 4122 1019 
L 4122 359 
Q 3791 134 3420 21 
Q 3050 -91 2638 -91 
Q 1578 -91 968 557 
Q 359 1206 359 2328 
Q 359 3453 968 4101 
Q 1578 4750 2638 4750 
Q 3056 4750 3426 4639 
Q 3797 4528 4122 4306 
z
" transform="scale(0.015625)"/>
     </defs>
     <use xlink:href="#DejaVuSans-32"/>
     <use xlink:href="#DejaVuSans-30" x="63.623047"/>
     <use xlink:href="#DejaVuSans-32" x="127.246094"/>
     <use xlink:href="#DejaVuSans-35" x="190.869141"/>
     <use xlink:href="#DejaVuSans-2d" x="254.492188"/>
     <use xlink:href="#DejaVuSans-31" x="290.576172"/>
     <use xlink:href="#DejaVuSans-30" x="354.199219"/>
     <use xlink:href="#DejaVuSans-2d" x="417.822266"/>
     <use xlink:href="#DejaVuSans-30" x="453.90625"/>
     <use xlink:href="#DejaVuSans-39" x="517.529297"/>
     <use xlink:href="#DejaVuSans-20" x="581.152344"/>
     <use xlink:href="#DejaVuSans-31" x="612.939453"/>
     <use xlink:href="#DejaVuSans-31" x="676.5625"/>
     <use xlink:href="#DejaVuSans-3a" x="740.185547"/>
     <use xlink:href="#DejaVuSans-35" x="773.876953"/>
     <use xlink:href="#DejaVuSans-35" x="837.5"/>
     <use xlink:href="#DejaVuSans-20" x="901.123047"/>
     <use xlink:href="#DejaVuSans-55" x="932.910156"/>
     <use xlink:href="#DejaVuSans-54" x="1006.103516"/>
     <use xlink:href="#DejaVuSans-43" x="1061.3125"/>
    </g>
   </g>
   <g id="legend_1">
    <g id="patch_7">
     <path d="M 61.691875 134.888625 
L 170.660625 134.888625 
Q 172.660625 134.888625 172.660625 132.888625 
L 172.660625 31.14175 
Q 172.660625 29.14175 170.660625 29.14175 
L 61.691875 29.14175 
Q 59.691875 29.14175 59.691875 31.14175 
L 59.691875 132.888625 
Q 59.691875 134.888625 61.691875 134.888625 
z
" style="fill: #e5e5e5; opacity: 0.8; stroke: #cccccc; stroke-width: 0.5; stroke-linejoin: miter"/>
    </g>
    <g id="text_33">
     <!-- Distribution -->
     <g transform="translate(87.0075 40.740188) scale(0.1 -0.1)">
      <use xlink:href="#DejaVuSans-44"/>
      <use xlink:href="#DejaVuSans-69" x="77.001953"/>
      <use xlink:href="#DejaVuSans-73" x="104.785156"/>
      <use xlink:href="#DejaVuSans-74" x="156.884766"/>
      <use xlink:href="#DejaVuSans-72" x="196.09375"/>
      <use xlink:href="#DejaVuSans-69" x="237.207031"/>
      <use xlink:href="#DejaVuSans-62" x="264.990234"/>
      <use xlink:href="#DejaVuSans-75" x="328.466797"/>
      <use xlink:href="#DejaVuSans-74" x="391.845703"/>
      <use xlink:href="#DejaVuSans-69" x="431.054688"/>
      <use xlink:href="#DejaVuSans-6f" x="458.837891"/>
      <use xlink:href="#DejaVuSans-6e" x="520.019531"/>
     </g>
    </g>
    <g id="line2d_69">
     <path d="M 63.691875 51.918313 
L 73.691875 51.918313 
L 83.691875 51.918313 
" style="fill: none; stroke: #4ac1fa; stroke-width: 1.5; stroke-linecap: square"/>
    </g>
    <g id="text_34">
     <!-- AlmaLinux -->
     <g transform="translate(91.691875 55.418313) scale(0.1 -0.1)">
      <defs>
       <path id="DejaVuSans-41" d="M 2188 4044 
L 1331 1722 
L 3047 1722 
L 2188 4044 
z
M 1831 4666 
L 2547 4666 
L 4325 0 
L 3669 0 
L 3244 1197 
L 1141 1197 
L 716 0 
L 50 0 
L 1831 4666 
z
" transform="scale(0.015625)"/>
      </defs>
      <use xlink:href="#DejaVuSans-41"/>
      <use xlink:href="#DejaVuSans-6c" x="68.408203"/>
      <use xlink:href="#DejaVuSans-6d" x="96.191406"/>
      <use xlink:href="#DejaVuSans-61" x="193.603516"/>
      <use xlink:href="#DejaVuSans-4c" x="254.882812"/>
      <use xlink:href="#DejaVuSans-69" x="310.595703"/>
      <use xlink:href="#DejaVuSans-6e" x="338.378906"/>
      <use xlink:href="#DejaVuSans-75" x="401.757812"/>
      <use xlink:href="#DejaVuSans-78" x="465.136719"/>
     </g>
    </g>
    <g id="line2d_70">
     <path d="M 63.691875 66.596438 
L 73.691875 66.596438 
L 83.691875 66.596438 
" style="fill: none; stroke: #e9a942; stroke-width: 1.5; stroke-linecap: square"/>
    </g>
    <g id="text_35">
     <!-- CentOS Legacy -->
     <g transform="translate(91.691875 70.096438) scale(0.1 -0.1)">
      <defs>
       <path id="DejaVuSans-4f" d="M 2522 4238 
Q 1834 4238 1429 3725 
Q 1025 3213 1025 2328 
Q 1025 1447 1429 934 
Q 1834 422 2522 422 
Q 3209 422 3611 934 
Q 4013 1447 4013 2328 
Q 4013 3213 3611 3725 
Q 3209 4238 2522 4238 
z
M 2522 4750 
Q 3503 4750 4090 4092 
Q 4678 3434 4678 2328 
Q 4678 1225 4090 567 
Q 3503 -91 2522 -91 
Q 1538 -91 948 565 
Q 359 1222 359 2328 
Q 359 3434 948 4092 
Q 1538 4750 2522 4750 
z
" transform="scale(0.015625)"/>
       <path id="DejaVuSans-53" d="M 3425 4513 
L 3425 3897 
Q 3066 4069 2747 4153 
Q 2428 4238 2131 4238 
Q 1616 4238 1336 4038 
Q 1056 3838 1056 3469 
Q 1056 3159 1242 3001 
Q 1428 2844 1947 2747 
L 2328 2669 
Q 3034 2534 3370 2195 
Q 3706 1856 3706 1288 
Q 3706 609 3251 259 
Q 2797 -91 1919 -91 
Q 1588 -91 1214 -16 
Q 841 59 441 206 
L 441 856 
Q 825 641 1194 531 
Q 1563 422 1919 422 
Q 2459 422 2753 634 
Q 3047 847 3047 1241 
Q 3047 1584 2836 1778 
Q 2625 1972 2144 2069 
L 1759 2144 
Q 1053 2284 737 2584 
Q 422 2884 422 3419 
Q 422 4038 858 4394 
Q 1294 4750 2059 4750 
Q 2388 4750 2728 4690 
Q 3069 4631 3425 4513 
z
" transform="scale(0.015625)"/>
       <path id="DejaVuSans-67" d="M 2906 1791 
Q 2906 2416 2648 2759 
Q 2391 3103 1925 3103 
Q 1463 3103 1205 2759 
Q 947 2416 947 1791 
Q 947 1169 1205 825 
Q 1463 481 1925 481 
Q 2391 481 2648 825 
Q 2906 1169 2906 1791 
z
M 3481 434 
Q 3481 -459 3084 -895 
Q 2688 -1331 1869 -1331 
Q 1566 -1331 1297 -1286 
Q 1028 -1241 775 -1147 
L 775 -588 
Q 1028 -725 1275 -790 
Q 1522 -856 1778 -856 
Q 2344 -856 2625 -561 
Q 2906 -266 2906 331 
L 2906 616 
Q 2728 306 2450 153 
Q 2172 0 1784 0 
Q 1141 0 747 490 
Q 353 981 353 1791 
Q 353 2603 747 3093 
Q 1141 3584 1784 3584 
Q 2172 3584 2450 3431 
Q 2728 3278 2906 2969 
L 2906 3500 
L 3481 3500 
L 3481 434 
z
" transform="scale(0.015625)"/>
      </defs>
      <use xlink:href="#DejaVuSans-43"/>
      <use xlink:href="#DejaVuSans-65" x="69.824219"/>
      <use xlink:href="#DejaVuSans-6e" x="131.347656"/>
      <use xlink:href="#DejaVuSans-74" x="194.726562"/>
      <use xlink:href="#DejaVuSans-4f" x="233.935547"/>
      <use xlink:href="#DejaVuSans-53" x="312.646484"/>
      <use xlink:href="#DejaVuSans-20" x="376.123047"/>
      <use xlink:href="#DejaVuSans-4c" x="407.910156"/>
      <use xlink:href="#DejaVuSans-65" x="461.873047"/>
      <use xlink:href="#DejaVuSans-67" x="523.396484"/>
      <use xlink:href="#DejaVuSans-61" x="586.873047"/>
      <use xlink:href="#DejaVuSans-63" x="648.152344"/>
      <use xlink:href="#DejaVuSans-79" x="703.132812"/>
     </g>
    </g>
    <g id="line2d_71">
     <path d="M 63.691875 81.274563 
L 73.691875 81.274563 
L 83.691875 81.274563 
" style="fill: none; stroke: #9a5689; stroke-width: 1.5; stroke-linecap: square"/>
    </g>
    <g id="text_36">
     <!-- CentOS Stream -->
     <g transform="translate(91.691875 84.774563) scale(0.1 -0.1)">
      <use xlink:href="#DejaVuSans-43"/>
      <use xlink:href="#DejaVuSans-65" x="69.824219"/>
      <use xlink:href="#DejaVuSans-6e" x="131.347656"/>
      <use xlink:href="#DejaVuSans-74" x="194.726562"/>
      <use xlink:href="#DejaVuSans-4f" x="233.935547"/>
      <use xlink:href="#DejaVuSans-53" x="312.646484"/>
      <use xlink:href="#DejaVuSans-20" x="376.123047"/>
      <use xlink:href="#DejaVuSans-53" x="407.910156"/>
      <use xlink:href="#DejaVuSans-74" x="471.386719"/>
      <use xlink:href="#DejaVuSans-72" x="510.595703"/>
      <use xlink:href="#DejaVuSans-65" x="549.458984"/>
      <use xlink:href="#DejaVuSans-61" x="610.982422"/>
      <use xlink:href="#DejaVuSans-6d" x="672.261719"/>
     </g>
    </g>
    <g id="line2d_72">
     <path d="M 63.691875 95.952688 
L 73.691875 95.952688 
L 83.691875 95.952688 
" style="fill: none; stroke: #be503b; stroke-width: 1.5; stroke-linecap: square"/>
    </g>
    <g id="text_37">
     <!-- Oracle -->
     <g transform="translate(91.691875 99.452688) scale(0.1 -0.1)">
      <use xlink:href="#DejaVuSans-4f"/>
      <use xlink:href="#DejaVuSans-72" x="78.710938"/>
      <use xlink:href="#DejaVuSans-61" x="119.824219"/>
      <use xlink:href="#DejaVuSans-63" x="181.103516"/>
      <use xlink:href="#DejaVuSans-6c" x="236.083984"/>
      <use xlink:href="#DejaVuSans-65" x="263.867188"/>
     </g>
    </g>
    <g id="line2d_73">
     <path d="M 63.691875 110.630813 
L 73.691875 110.630813 
L 83.691875 110.630813 
" style="fill: none; stroke: #e2321d; stroke-width: 1.5; stroke-linecap: square"/>
    </g>
    <g id="text_38">
     <!-- RHEL -->
     <g transform="translate(91.691875 114.130813) scale(0.1 -0.1)">
      <defs>
       <path id="DejaVuSans-48" d="M 628 4666 
L 1259 4666 
L 1259 2753 
L 3553 2753 
L 3553 4666 
L 4184 4666 
L 4184 0 
L 3553 0 
L 3553 2222 
L 1259 2222 
L 1259 0 
L 628 0 
L 628 4666 
z
" transform="scale(0.015625)"/>
      </defs>
      <use xlink:href="#DejaVuSans-52"/>
      <use xlink:href="#DejaVuSans-48" x="69.482422"/>
      <use xlink:href="#DejaVuSans-45" x="144.677734"/>
      <use xlink:href="#DejaVuSans-4c" x="207.861328"/>
     </g>
    </g>
    <g id="line2d_74">
     <path d="M 63.691875 125.308938 
L 73.691875 125.308938 
L 83.691875 125.308938 
" style="fill: none; stroke: #48b585; stroke-width: 6; stroke-linecap: square"/>
    </g>
    <g id="text_39">
     <!-- Rocky Linux -->
     <g transform="translate(91.691875 128.808938) scale(0.1 -0.1)">
      <use xlink:href="#DejaVuSans-52"/>
      <use xlink:href="#DejaVuSans-6f" x="64.982422"/>
      <use xlink:href="#DejaVuSans-63" x="126.164062"/>
      <use xlink:href="#DejaVuSans-6b" x="181.144531"/>
      <use xlink:href="#DejaVuSans-79" x="235.429688"/>
      <use xlink:href="#DejaVuSans-20" x="294.609375"/>
      <use xlink:href="#DejaVuSans-4c" x="326.396484"/>
      <use xlink:href="#DejaVuSans-69" x="382.109375"/>
      <use xlink:href="#DejaVuSans-6e" x="409.892578"/>
      <use xlink:href="#DejaVuSans-75" x="473.271484"/>
      <use xlink:href="#DejaVuSans-78" x="536.650391"/>
     </g>
    </g>
   </g>
  </g>
 </g>
 <defs>
  <clipPath id="paa2a46b6ec">
   <rect x="54.691875" y="24.14175" width="902.844" height="554.4"/>
  </clipPath>
 </defs>
</svg>
