<?xml version="1.0" encoding="utf-8" standalone="no"?>
<!DOCTYPE svg PUBLIC "-//W3C//DTD SVG 1.1//EN"
  "http://www.w3.org/Graphics/SVG/1.1/DTD/svg11.dtd">
<svg xmlns:xlink="http://www.w3.org/1999/xlink" width="974.2765pt" height="633.943878pt" viewBox="0 0 974.2765 633.943878" xmlns="http://www.w3.org/2000/svg" version="1.1">
 <metadata>
  <rdf:RDF xmlns:dc="http://purl.org/dc/elements/1.1/" xmlns:cc="http://creativecommons.org/ns#" xmlns:rdf="http://www.w3.org/1999/02/22-rdf-syntax-ns#">
   <cc:Work>
    <dc:type rdf:resource="http://purl.org/dc/dcmitype/StillImage"/>
    <dc:date>2024-11-28T11:54:48.492177</dc:date>
    <dc:format>image/svg+xml</dc:format>
    <dc:creator>
     <cc:Agent>
      <dc:title>Matplotlib v3.5.1, https://matplotlib.org/</dc:title>
     </cc:Agent>
    </dc:creator>
   </cc:Work>
  </rdf:RDF>
 </metadata>
 <defs>
  <style type="text/css">*{stroke-linejoin: round; stroke-linecap: butt}</style>
 </defs>
 <g id="figure_1">
  <g id="patch_1">
   <path d="M 0 633.943878 
L 974.2765 633.943878 
L 974.2765 0 
L 0 0 
z
" style="fill: #ffffff"/>
  </g>
  <g id="axes_1">
   <g id="patch_2">
    <path d="M 64.2325 567.74175 
L 967.0765 567.74175 
L 967.0765 24.14175 
L 64.2325 24.14175 
z
" style="fill: #e5e5e5"/>
   </g>
   <g id="matplotlib.axis_1">
    <g id="xtick_1">
     <g id="line2d_1">
      <path d="M 108.084923 567.74175 
L 108.084923 24.14175 
" clip-path="url(#p5367c19139)" style="fill: none; stroke: #ffffff; stroke-width: 0.8; stroke-linecap: square"/>
     </g>
     <g id="line2d_2">
      <defs>
       <path id="m6d9da8ab42" d="M 0 0 
L 0 3.5 
" style="stroke: #555555; stroke-width: 0.8"/>
      </defs>
      <g>
       <use xlink:href="#m6d9da8ab42" x="108.084923" y="567.74175" style="fill: #555555; stroke: #555555; stroke-width: 0.8"/>
      </g>
     </g>
     <g id="text_1">
      <!-- 2023-12 -->
      <g style="fill: #555555" transform="translate(95.263641 609.659567)rotate(-45)scale(0.1 -0.1)">
       <defs>
        <path id="DejaVuSans-32" d="M 1228 531 
L 3431 531 
L 3431 0 
L 469 0 
L 469 531 
Q 828 903 1448 1529 
Q 2069 2156 2228 2338 
Q 2531 2678 2651 2914 
Q 2772 3150 2772 3378 
Q 2772 3750 2511 3984 
Q 2250 4219 1831 4219 
Q 1534 4219 1204 4116 
Q 875 4013 500 3803 
L 500 4441 
Q 881 4594 1212 4672 
Q 1544 4750 1819 4750 
Q 2544 4750 2975 4387 
Q 3406 4025 3406 3419 
Q 3406 3131 3298 2873 
Q 3191 2616 2906 2266 
Q 2828 2175 2409 1742 
Q 1991 1309 1228 531 
z
" transform="scale(0.015625)"/>
        <path id="DejaVuSans-30" d="M 2034 4250 
Q 1547 4250 1301 3770 
Q 1056 3291 1056 2328 
Q 1056 1369 1301 889 
Q 1547 409 2034 409 
Q 2525 409 2770 889 
Q 3016 1369 3016 2328 
Q 3016 3291 2770 3770 
Q 2525 4250 2034 4250 
z
M 2034 4750 
Q 2819 4750 3233 4129 
Q 3647 3509 3647 2328 
Q 3647 1150 3233 529 
Q 2819 -91 2034 -91 
Q 1250 -91 836 529 
Q 422 1150 422 2328 
Q 422 3509 836 4129 
Q 1250 4750 2034 4750 
z
" transform="scale(0.015625)"/>
        <path id="DejaVuSans-33" d="M 2597 2516 
Q 3050 2419 3304 2112 
Q 3559 1806 3559 1356 
Q 3559 666 3084 287 
Q 2609 -91 1734 -91 
Q 1441 -91 1130 -33 
Q 819 25 488 141 
L 488 750 
Q 750 597 1062 519 
Q 1375 441 1716 441 
Q 2309 441 2620 675 
Q 2931 909 2931 1356 
Q 2931 1769 2642 2001 
Q 2353 2234 1838 2234 
L 1294 2234 
L 1294 2753 
L 1863 2753 
Q 2328 2753 2575 2939 
Q 2822 3125 2822 3475 
Q 2822 3834 2567 4026 
Q 2313 4219 1838 4219 
Q 1578 4219 1281 4162 
Q 984 4106 628 3988 
L 628 4550 
Q 988 4650 1302 4700 
Q 1616 4750 1894 4750 
Q 2613 4750 3031 4423 
Q 3450 4097 3450 3541 
Q 3450 3153 3228 2886 
Q 3006 2619 2597 2516 
z
" transform="scale(0.015625)"/>
        <path id="DejaVuSans-2d" d="M 313 2009 
L 1997 2009 
L 1997 1497 
L 313 1497 
L 313 2009 
z
" transform="scale(0.015625)"/>
        <path id="DejaVuSans-31" d="M 794 531 
L 1825 531 
L 1825 4091 
L 703 3866 
L 703 4441 
L 1819 4666 
L 2450 4666 
L 2450 531 
L 3481 531 
L 3481 0 
L 794 0 
L 794 531 
z
" transform="scale(0.015625)"/>
       </defs>
       <use xlink:href="#DejaVuSans-32"/>
       <use xlink:href="#DejaVuSans-30" x="63.623047"/>
       <use xlink:href="#DejaVuSans-32" x="127.246094"/>
       <use xlink:href="#DejaVuSans-33" x="190.869141"/>
       <use xlink:href="#DejaVuSans-2d" x="254.492188"/>
       <use xlink:href="#DejaVuSans-31" x="290.576172"/>
       <use xlink:href="#DejaVuSans-32" x="354.199219"/>
      </g>
     </g>
    </g>
    <g id="xtick_2">
     <g id="line2d_3">
      <path d="M 188.051106 567.74175 
L 188.051106 24.14175 
" clip-path="url(#p5367c19139)" style="fill: none; stroke: #ffffff; stroke-width: 0.8; stroke-linecap: square"/>
     </g>
     <g id="line2d_4">
      <g>
       <use xlink:href="#m6d9da8ab42" x="188.051106" y="567.74175" style="fill: #555555; stroke: #555555; stroke-width: 0.8"/>
      </g>
     </g>
     <g id="text_2">
      <!-- 2024-01 -->
      <g style="fill: #555555" transform="translate(175.229823 609.659567)rotate(-45)scale(0.1 -0.1)">
       <defs>
        <path id="DejaVuSans-34" d="M 2419 4116 
L 825 1625 
L 2419 1625 
L 2419 4116 
z
M 2253 4666 
L 3047 4666 
L 3047 1625 
L 3713 1625 
L 3713 1100 
L 3047 1100 
L 3047 0 
L 2419 0 
L 2419 1100 
L 313 1100 
L 313 1709 
L 2253 4666 
z
" transform="scale(0.015625)"/>
       </defs>
       <use xlink:href="#DejaVuSans-32"/>
       <use xlink:href="#DejaVuSans-30" x="63.623047"/>
       <use xlink:href="#DejaVuSans-32" x="127.246094"/>
       <use xlink:href="#DejaVuSans-34" x="190.869141"/>
       <use xlink:href="#DejaVuSans-2d" x="254.492188"/>
       <use xlink:href="#DejaVuSans-30" x="290.576172"/>
       <use xlink:href="#DejaVuSans-31" x="354.199219"/>
      </g>
     </g>
    </g>
    <g id="xtick_3">
     <g id="line2d_5">
      <path d="M 268.017289 567.74175 
L 268.017289 24.14175 
" clip-path="url(#p5367c19139)" style="fill: none; stroke: #ffffff; stroke-width: 0.8; stroke-linecap: square"/>
     </g>
     <g id="line2d_6">
      <g>
       <use xlink:href="#m6d9da8ab42" x="268.017289" y="567.74175" style="fill: #555555; stroke: #555555; stroke-width: 0.8"/>
      </g>
     </g>
     <g id="text_3">
      <!-- 2024-02 -->
      <g style="fill: #555555" transform="translate(255.196006 609.659567)rotate(-45)scale(0.1 -0.1)">
       <use xlink:href="#DejaVuSans-32"/>
       <use xlink:href="#DejaVuSans-30" x="63.623047"/>
       <use xlink:href="#DejaVuSans-32" x="127.246094"/>
       <use xlink:href="#DejaVuSans-34" x="190.869141"/>
       <use xlink:href="#DejaVuSans-2d" x="254.492188"/>
       <use xlink:href="#DejaVuSans-30" x="290.576172"/>
       <use xlink:href="#DejaVuSans-32" x="354.199219"/>
      </g>
     </g>
    </g>
    <g id="xtick_4">
     <g id="line2d_7">
      <path d="M 342.824363 567.74175 
L 342.824363 24.14175 
" clip-path="url(#p5367c19139)" style="fill: none; stroke: #ffffff; stroke-width: 0.8; stroke-linecap: square"/>
     </g>
     <g id="line2d_8">
      <g>
       <use xlink:href="#m6d9da8ab42" x="342.824363" y="567.74175" style="fill: #555555; stroke: #555555; stroke-width: 0.8"/>
      </g>
     </g>
     <g id="text_4">
      <!-- 2024-03 -->
      <g style="fill: #555555" transform="translate(330.003081 609.659567)rotate(-45)scale(0.1 -0.1)">
       <use xlink:href="#DejaVuSans-32"/>
       <use xlink:href="#DejaVuSans-30" x="63.623047"/>
       <use xlink:href="#DejaVuSans-32" x="127.246094"/>
       <use xlink:href="#DejaVuSans-34" x="190.869141"/>
       <use xlink:href="#DejaVuSans-2d" x="254.492188"/>
       <use xlink:href="#DejaVuSans-30" x="290.576172"/>
       <use xlink:href="#DejaVuSans-33" x="354.199219"/>
      </g>
     </g>
    </g>
    <g id="xtick_5">
     <g id="line2d_9">
      <path d="M 422.790546 567.74175 
L 422.790546 24.14175 
" clip-path="url(#p5367c19139)" style="fill: none; stroke: #ffffff; stroke-width: 0.8; stroke-linecap: square"/>
     </g>
     <g id="line2d_10">
      <g>
       <use xlink:href="#m6d9da8ab42" x="422.790546" y="567.74175" style="fill: #555555; stroke: #555555; stroke-width: 0.8"/>
      </g>
     </g>
     <g id="text_5">
      <!-- 2024-04 -->
      <g style="fill: #555555" transform="translate(409.969263 609.659567)rotate(-45)scale(0.1 -0.1)">
       <use xlink:href="#DejaVuSans-32"/>
       <use xlink:href="#DejaVuSans-30" x="63.623047"/>
       <use xlink:href="#DejaVuSans-32" x="127.246094"/>
       <use xlink:href="#DejaVuSans-34" x="190.869141"/>
       <use xlink:href="#DejaVuSans-2d" x="254.492188"/>
       <use xlink:href="#DejaVuSans-30" x="290.576172"/>
       <use xlink:href="#DejaVuSans-34" x="354.199219"/>
      </g>
     </g>
    </g>
    <g id="xtick_6">
     <g id="line2d_11">
      <path d="M 500.177174 567.74175 
L 500.177174 24.14175 
" clip-path="url(#p5367c19139)" style="fill: none; stroke: #ffffff; stroke-width: 0.8; stroke-linecap: square"/>
     </g>
     <g id="line2d_12">
      <g>
       <use xlink:href="#m6d9da8ab42" x="500.177174" y="567.74175" style="fill: #555555; stroke: #555555; stroke-width: 0.8"/>
      </g>
     </g>
     <g id="text_6">
      <!-- 2024-05 -->
      <g style="fill: #555555" transform="translate(487.355892 609.659567)rotate(-45)scale(0.1 -0.1)">
       <defs>
        <path id="DejaVuSans-35" d="M 691 4666 
L 3169 4666 
L 3169 4134 
L 1269 4134 
L 1269 2991 
Q 1406 3038 1543 3061 
Q 1681 3084 1819 3084 
Q 2600 3084 3056 2656 
Q 3513 2228 3513 1497 
Q 3513 744 3044 326 
Q 2575 -91 1722 -91 
Q 1428 -91 1123 -41 
Q 819 9 494 109 
L 494 744 
Q 775 591 1075 516 
Q 1375 441 1709 441 
Q 2250 441 2565 725 
Q 2881 1009 2881 1497 
Q 2881 1984 2565 2268 
Q 2250 2553 1709 2553 
Q 1456 2553 1204 2497 
Q 953 2441 691 2322 
L 691 4666 
z
" transform="scale(0.015625)"/>
       </defs>
       <use xlink:href="#DejaVuSans-32"/>
       <use xlink:href="#DejaVuSans-30" x="63.623047"/>
       <use xlink:href="#DejaVuSans-32" x="127.246094"/>
       <use xlink:href="#DejaVuSans-34" x="190.869141"/>
       <use xlink:href="#DejaVuSans-2d" x="254.492188"/>
       <use xlink:href="#DejaVuSans-30" x="290.576172"/>
       <use xlink:href="#DejaVuSans-35" x="354.199219"/>
      </g>
     </g>
    </g>
    <g id="xtick_7">
     <g id="line2d_13">
      <path d="M 580.143357 567.74175 
L 580.143357 24.14175 
" clip-path="url(#p5367c19139)" style="fill: none; stroke: #ffffff; stroke-width: 0.8; stroke-linecap: square"/>
     </g>
     <g id="line2d_14">
      <g>
       <use xlink:href="#m6d9da8ab42" x="580.143357" y="567.74175" style="fill: #555555; stroke: #555555; stroke-width: 0.8"/>
      </g>
     </g>
     <g id="text_7">
      <!-- 2024-06 -->
      <g style="fill: #555555" transform="translate(567.322075 609.659567)rotate(-45)scale(0.1 -0.1)">
       <defs>
        <path id="DejaVuSans-36" d="M 2113 2584 
Q 1688 2584 1439 2293 
Q 1191 2003 1191 1497 
Q 1191 994 1439 701 
Q 1688 409 2113 409 
Q 2538 409 2786 701 
Q 3034 994 3034 1497 
Q 3034 2003 2786 2293 
Q 2538 2584 2113 2584 
z
M 3366 4563 
L 3366 3988 
Q 3128 4100 2886 4159 
Q 2644 4219 2406 4219 
Q 1781 4219 1451 3797 
Q 1122 3375 1075 2522 
Q 1259 2794 1537 2939 
Q 1816 3084 2150 3084 
Q 2853 3084 3261 2657 
Q 3669 2231 3669 1497 
Q 3669 778 3244 343 
Q 2819 -91 2113 -91 
Q 1303 -91 875 529 
Q 447 1150 447 2328 
Q 447 3434 972 4092 
Q 1497 4750 2381 4750 
Q 2619 4750 2861 4703 
Q 3103 4656 3366 4563 
z
" transform="scale(0.015625)"/>
       </defs>
       <use xlink:href="#DejaVuSans-32"/>
       <use xlink:href="#DejaVuSans-30" x="63.623047"/>
       <use xlink:href="#DejaVuSans-32" x="127.246094"/>
       <use xlink:href="#DejaVuSans-34" x="190.869141"/>
       <use xlink:href="#DejaVuSans-2d" x="254.492188"/>
       <use xlink:href="#DejaVuSans-30" x="290.576172"/>
       <use xlink:href="#DejaVuSans-36" x="354.199219"/>
      </g>
     </g>
    </g>
    <g id="xtick_8">
     <g id="line2d_15">
      <path d="M 657.529986 567.74175 
L 657.529986 24.14175 
" clip-path="url(#p5367c19139)" style="fill: none; stroke: #ffffff; stroke-width: 0.8; stroke-linecap: square"/>
     </g>
     <g id="line2d_16">
      <g>
       <use xlink:href="#m6d9da8ab42" x="657.529986" y="567.74175" style="fill: #555555; stroke: #555555; stroke-width: 0.8"/>
      </g>
     </g>
     <g id="text_8">
      <!-- 2024-07 -->
      <g style="fill: #555555" transform="translate(644.708703 609.659567)rotate(-45)scale(0.1 -0.1)">
       <defs>
        <path id="DejaVuSans-37" d="M 525 4666 
L 3525 4666 
L 3525 4397 
L 1831 0 
L 1172 0 
L 2766 4134 
L 525 4134 
L 525 4666 
z
" transform="scale(0.015625)"/>
       </defs>
       <use xlink:href="#DejaVuSans-32"/>
       <use xlink:href="#DejaVuSans-30" x="63.623047"/>
       <use xlink:href="#DejaVuSans-32" x="127.246094"/>
       <use xlink:href="#DejaVuSans-34" x="190.869141"/>
       <use xlink:href="#DejaVuSans-2d" x="254.492188"/>
       <use xlink:href="#DejaVuSans-30" x="290.576172"/>
       <use xlink:href="#DejaVuSans-37" x="354.199219"/>
      </g>
     </g>
    </g>
    <g id="xtick_9">
     <g id="line2d_17">
      <path d="M 737.496169 567.74175 
L 737.496169 24.14175 
" clip-path="url(#p5367c19139)" style="fill: none; stroke: #ffffff; stroke-width: 0.8; stroke-linecap: square"/>
     </g>
     <g id="line2d_18">
      <g>
       <use xlink:href="#m6d9da8ab42" x="737.496169" y="567.74175" style="fill: #555555; stroke: #555555; stroke-width: 0.8"/>
      </g>
     </g>
     <g id="text_9">
      <!-- 2024-08 -->
      <g style="fill: #555555" transform="translate(724.674886 609.659567)rotate(-45)scale(0.1 -0.1)">
       <defs>
        <path id="DejaVuSans-38" d="M 2034 2216 
Q 1584 2216 1326 1975 
Q 1069 1734 1069 1313 
Q 1069 891 1326 650 
Q 1584 409 2034 409 
Q 2484 409 2743 651 
Q 3003 894 3003 1313 
Q 3003 1734 2745 1975 
Q 2488 2216 2034 2216 
z
M 1403 2484 
Q 997 2584 770 2862 
Q 544 3141 544 3541 
Q 544 4100 942 4425 
Q 1341 4750 2034 4750 
Q 2731 4750 3128 4425 
Q 3525 4100 3525 3541 
Q 3525 3141 3298 2862 
Q 3072 2584 2669 2484 
Q 3125 2378 3379 2068 
Q 3634 1759 3634 1313 
Q 3634 634 3220 271 
Q 2806 -91 2034 -91 
Q 1263 -91 848 271 
Q 434 634 434 1313 
Q 434 1759 690 2068 
Q 947 2378 1403 2484 
z
M 1172 3481 
Q 1172 3119 1398 2916 
Q 1625 2713 2034 2713 
Q 2441 2713 2670 2916 
Q 2900 3119 2900 3481 
Q 2900 3844 2670 4047 
Q 2441 4250 2034 4250 
Q 1625 4250 1398 4047 
Q 1172 3844 1172 3481 
z
" transform="scale(0.015625)"/>
       </defs>
       <use xlink:href="#DejaVuSans-32"/>
       <use xlink:href="#DejaVuSans-30" x="63.623047"/>
       <use xlink:href="#DejaVuSans-32" x="127.246094"/>
       <use xlink:href="#DejaVuSans-34" x="190.869141"/>
       <use xlink:href="#DejaVuSans-2d" x="254.492188"/>
       <use xlink:href="#DejaVuSans-30" x="290.576172"/>
       <use xlink:href="#DejaVuSans-38" x="354.199219"/>
      </g>
     </g>
    </g>
    <g id="xtick_10">
     <g id="line2d_19">
      <path d="M 817.462351 567.74175 
L 817.462351 24.14175 
" clip-path="url(#p5367c19139)" style="fill: none; stroke: #ffffff; stroke-width: 0.8; stroke-linecap: square"/>
     </g>
     <g id="line2d_20">
      <g>
       <use xlink:href="#m6d9da8ab42" x="817.462351" y="567.74175" style="fill: #555555; stroke: #555555; stroke-width: 0.8"/>
      </g>
     </g>
     <g id="text_10">
      <!-- 2024-09 -->
      <g style="fill: #555555" transform="translate(804.641069 609.659567)rotate(-45)scale(0.1 -0.1)">
       <defs>
        <path id="DejaVuSans-39" d="M 703 97 
L 703 672 
Q 941 559 1184 500 
Q 1428 441 1663 441 
Q 2288 441 2617 861 
Q 2947 1281 2994 2138 
Q 2813 1869 2534 1725 
Q 2256 1581 1919 1581 
Q 1219 1581 811 2004 
Q 403 2428 403 3163 
Q 403 3881 828 4315 
Q 1253 4750 1959 4750 
Q 2769 4750 3195 4129 
Q 3622 3509 3622 2328 
Q 3622 1225 3098 567 
Q 2575 -91 1691 -91 
Q 1453 -91 1209 -44 
Q 966 3 703 97 
z
M 1959 2075 
Q 2384 2075 2632 2365 
Q 2881 2656 2881 3163 
Q 2881 3666 2632 3958 
Q 2384 4250 1959 4250 
Q 1534 4250 1286 3958 
Q 1038 3666 1038 3163 
Q 1038 2656 1286 2365 
Q 1534 2075 1959 2075 
z
" transform="scale(0.015625)"/>
       </defs>
       <use xlink:href="#DejaVuSans-32"/>
       <use xlink:href="#DejaVuSans-30" x="63.623047"/>
       <use xlink:href="#DejaVuSans-32" x="127.246094"/>
       <use xlink:href="#DejaVuSans-34" x="190.869141"/>
       <use xlink:href="#DejaVuSans-2d" x="254.492188"/>
       <use xlink:href="#DejaVuSans-30" x="290.576172"/>
       <use xlink:href="#DejaVuSans-39" x="354.199219"/>
      </g>
     </g>
    </g>
    <g id="xtick_11">
     <g id="line2d_21">
      <path d="M 894.84898 567.74175 
L 894.84898 24.14175 
" clip-path="url(#p5367c19139)" style="fill: none; stroke: #ffffff; stroke-width: 0.8; stroke-linecap: square"/>
     </g>
     <g id="line2d_22">
      <g>
       <use xlink:href="#m6d9da8ab42" x="894.84898" y="567.74175" style="fill: #555555; stroke: #555555; stroke-width: 0.8"/>
      </g>
     </g>
     <g id="text_11">
      <!-- 2024-10 -->
      <g style="fill: #555555" transform="translate(882.027698 609.659567)rotate(-45)scale(0.1 -0.1)">
       <use xlink:href="#DejaVuSans-32"/>
       <use xlink:href="#DejaVuSans-30" x="63.623047"/>
       <use xlink:href="#DejaVuSans-32" x="127.246094"/>
       <use xlink:href="#DejaVuSans-34" x="190.869141"/>
       <use xlink:href="#DejaVuSans-2d" x="254.492188"/>
       <use xlink:href="#DejaVuSans-31" x="290.576172"/>
       <use xlink:href="#DejaVuSans-30" x="354.199219"/>
      </g>
     </g>
    </g>
    <g id="text_12">
     <!-- Date -->
     <g style="fill: #555555" transform="translate(501.313563 624.248253)scale(0.12 -0.12)">
      <defs>
       <path id="DejaVuSans-44" d="M 1259 4147 
L 1259 519 
L 2022 519 
Q 2988 519 3436 956 
Q 3884 1394 3884 2338 
Q 3884 3275 3436 3711 
Q 2988 4147 2022 4147 
L 1259 4147 
z
M 628 4666 
L 1925 4666 
Q 3281 4666 3915 4102 
Q 4550 3538 4550 2338 
Q 4550 1131 3912 565 
Q 3275 0 1925 0 
L 628 0 
L 628 4666 
z
" transform="scale(0.015625)"/>
       <path id="DejaVuSans-61" d="M 2194 1759 
Q 1497 1759 1228 1600 
Q 959 1441 959 1056 
Q 959 750 1161 570 
Q 1363 391 1709 391 
Q 2188 391 2477 730 
Q 2766 1069 2766 1631 
L 2766 1759 
L 2194 1759 
z
M 3341 1997 
L 3341 0 
L 2766 0 
L 2766 531 
Q 2569 213 2275 61 
Q 1981 -91 1556 -91 
Q 1019 -91 701 211 
Q 384 513 384 1019 
Q 384 1609 779 1909 
Q 1175 2209 1959 2209 
L 2766 2209 
L 2766 2266 
Q 2766 2663 2505 2880 
Q 2244 3097 1772 3097 
Q 1472 3097 1187 3025 
Q 903 2953 641 2809 
L 641 3341 
Q 956 3463 1253 3523 
Q 1550 3584 1831 3584 
Q 2591 3584 2966 3190 
Q 3341 2797 3341 1997 
z
" transform="scale(0.015625)"/>
       <path id="DejaVuSans-74" d="M 1172 4494 
L 1172 3500 
L 2356 3500 
L 2356 3053 
L 1172 3053 
L 1172 1153 
Q 1172 725 1289 603 
Q 1406 481 1766 481 
L 2356 481 
L 2356 0 
L 1766 0 
Q 1100 0 847 248 
Q 594 497 594 1153 
L 594 3053 
L 172 3053 
L 172 3500 
L 594 3500 
L 594 4494 
L 1172 4494 
z
" transform="scale(0.015625)"/>
       <path id="DejaVuSans-65" d="M 3597 1894 
L 3597 1613 
L 953 1613 
Q 991 1019 1311 708 
Q 1631 397 2203 397 
Q 2534 397 2845 478 
Q 3156 559 3463 722 
L 3463 178 
Q 3153 47 2828 -22 
Q 2503 -91 2169 -91 
Q 1331 -91 842 396 
Q 353 884 353 1716 
Q 353 2575 817 3079 
Q 1281 3584 2069 3584 
Q 2775 3584 3186 3129 
Q 3597 2675 3597 1894 
z
M 3022 2063 
Q 3016 2534 2758 2815 
Q 2500 3097 2075 3097 
Q 1594 3097 1305 2825 
Q 1016 2553 972 2059 
L 3022 2063 
z
" transform="scale(0.015625)"/>
      </defs>
      <use xlink:href="#DejaVuSans-44"/>
      <use xlink:href="#DejaVuSans-61" x="77.001953"/>
      <use xlink:href="#DejaVuSans-74" x="138.28125"/>
      <use xlink:href="#DejaVuSans-65" x="177.490234"/>
     </g>
    </g>
   </g>
   <g id="matplotlib.axis_2">
    <g id="ytick_1">
     <g id="line2d_23">
      <path d="M 64.2325 567.74175 
L 967.0765 567.74175 
" clip-path="url(#p5367c19139)" style="fill: none; stroke: #ffffff; stroke-width: 0.8; stroke-linecap: square"/>
     </g>
     <g id="line2d_24">
      <defs>
       <path id="m5f10ca9231" d="M 0 0 
L -3.5 0 
" style="stroke: #555555; stroke-width: 0.8"/>
      </defs>
      <g>
       <use xlink:href="#m5f10ca9231" x="64.2325" y="567.74175" style="fill: #555555; stroke: #555555; stroke-width: 0.8"/>
      </g>
     </g>
     <g id="text_13">
      <!-- 0k -->
      <g style="fill: #555555" transform="translate(45.079375 571.540969)scale(0.1 -0.1)">
       <defs>
        <path id="DejaVuSans-6b" d="M 581 4863 
L 1159 4863 
L 1159 1991 
L 2875 3500 
L 3609 3500 
L 1753 1863 
L 3688 0 
L 2938 0 
L 1159 1709 
L 1159 0 
L 581 0 
L 581 4863 
z
" transform="scale(0.015625)"/>
       </defs>
       <use xlink:href="#DejaVuSans-30"/>
       <use xlink:href="#DejaVuSans-6b" x="63.623047"/>
      </g>
     </g>
    </g>
    <g id="ytick_2">
     <g id="line2d_25">
      <path d="M 64.2325 492.816622 
L 967.0765 492.816622 
" clip-path="url(#p5367c19139)" style="fill: none; stroke: #ffffff; stroke-width: 0.8; stroke-linecap: square"/>
     </g>
     <g id="line2d_26">
      <g>
       <use xlink:href="#m5f10ca9231" x="64.2325" y="492.816622" style="fill: #555555; stroke: #555555; stroke-width: 0.8"/>
      </g>
     </g>
     <g id="text_14">
      <!-- 200k -->
      <g style="fill: #555555" transform="translate(32.354375 496.615841)scale(0.1 -0.1)">
       <use xlink:href="#DejaVuSans-32"/>
       <use xlink:href="#DejaVuSans-30" x="63.623047"/>
       <use xlink:href="#DejaVuSans-30" x="127.246094"/>
       <use xlink:href="#DejaVuSans-6b" x="190.869141"/>
      </g>
     </g>
    </g>
    <g id="ytick_3">
     <g id="line2d_27">
      <path d="M 64.2325 417.891494 
L 967.0765 417.891494 
" clip-path="url(#p5367c19139)" style="fill: none; stroke: #ffffff; stroke-width: 0.8; stroke-linecap: square"/>
     </g>
     <g id="line2d_28">
      <g>
       <use xlink:href="#m5f10ca9231" x="64.2325" y="417.891494" style="fill: #555555; stroke: #555555; stroke-width: 0.8"/>
      </g>
     </g>
     <g id="text_15">
      <!-- 400k -->
      <g style="fill: #555555" transform="translate(32.354375 421.690712)scale(0.1 -0.1)">
       <use xlink:href="#DejaVuSans-34"/>
       <use xlink:href="#DejaVuSans-30" x="63.623047"/>
       <use xlink:href="#DejaVuSans-30" x="127.246094"/>
       <use xlink:href="#DejaVuSans-6b" x="190.869141"/>
      </g>
     </g>
    </g>
    <g id="ytick_4">
     <g id="line2d_29">
      <path d="M 64.2325 342.966366 
L 967.0765 342.966366 
" clip-path="url(#p5367c19139)" style="fill: none; stroke: #ffffff; stroke-width: 0.8; stroke-linecap: square"/>
     </g>
     <g id="line2d_30">
      <g>
       <use xlink:href="#m5f10ca9231" x="64.2325" y="342.966366" style="fill: #555555; stroke: #555555; stroke-width: 0.8"/>
      </g>
     </g>
     <g id="text_16">
      <!-- 600k -->
      <g style="fill: #555555" transform="translate(32.354375 346.765584)scale(0.1 -0.1)">
       <use xlink:href="#DejaVuSans-36"/>
       <use xlink:href="#DejaVuSans-30" x="63.623047"/>
       <use xlink:href="#DejaVuSans-30" x="127.246094"/>
       <use xlink:href="#DejaVuSans-6b" x="190.869141"/>
      </g>
     </g>
    </g>
    <g id="ytick_5">
     <g id="line2d_31">
      <path d="M 64.2325 268.041237 
L 967.0765 268.041237 
" clip-path="url(#p5367c19139)" style="fill: none; stroke: #ffffff; stroke-width: 0.8; stroke-linecap: square"/>
     </g>
     <g id="line2d_32">
      <g>
       <use xlink:href="#m5f10ca9231" x="64.2325" y="268.041237" style="fill: #555555; stroke: #555555; stroke-width: 0.8"/>
      </g>
     </g>
     <g id="text_17">
      <!-- 800k -->
      <g style="fill: #555555" transform="translate(32.354375 271.840456)scale(0.1 -0.1)">
       <use xlink:href="#DejaVuSans-38"/>
       <use xlink:href="#DejaVuSans-30" x="63.623047"/>
       <use xlink:href="#DejaVuSans-30" x="127.246094"/>
       <use xlink:href="#DejaVuSans-6b" x="190.869141"/>
      </g>
     </g>
    </g>
    <g id="ytick_6">
     <g id="line2d_33">
      <path d="M 64.2325 193.116109 
L 967.0765 193.116109 
" clip-path="url(#p5367c19139)" style="fill: none; stroke: #ffffff; stroke-width: 0.8; stroke-linecap: square"/>
     </g>
     <g id="line2d_34">
      <g>
       <use xlink:href="#m5f10ca9231" x="64.2325" y="193.116109" style="fill: #555555; stroke: #555555; stroke-width: 0.8"/>
      </g>
     </g>
     <g id="text_18">
      <!-- 1,000k -->
      <g style="fill: #555555" transform="translate(22.81375 196.915328)scale(0.1 -0.1)">
       <defs>
        <path id="DejaVuSans-2c" d="M 750 794 
L 1409 794 
L 1409 256 
L 897 -744 
L 494 -744 
L 750 256 
L 750 794 
z
" transform="scale(0.015625)"/>
       </defs>
       <use xlink:href="#DejaVuSans-31"/>
       <use xlink:href="#DejaVuSans-2c" x="63.623047"/>
       <use xlink:href="#DejaVuSans-30" x="95.410156"/>
       <use xlink:href="#DejaVuSans-30" x="159.033203"/>
       <use xlink:href="#DejaVuSans-30" x="222.65625"/>
       <use xlink:href="#DejaVuSans-6b" x="286.279297"/>
      </g>
     </g>
    </g>
    <g id="ytick_7">
     <g id="line2d_35">
      <path d="M 64.2325 118.190981 
L 967.0765 118.190981 
" clip-path="url(#p5367c19139)" style="fill: none; stroke: #ffffff; stroke-width: 0.8; stroke-linecap: square"/>
     </g>
     <g id="line2d_36">
      <g>
       <use xlink:href="#m5f10ca9231" x="64.2325" y="118.190981" style="fill: #555555; stroke: #555555; stroke-width: 0.8"/>
      </g>
     </g>
     <g id="text_19">
      <!-- 1,200k -->
      <g style="fill: #555555" transform="translate(22.81375 121.9902)scale(0.1 -0.1)">
       <use xlink:href="#DejaVuSans-31"/>
       <use xlink:href="#DejaVuSans-2c" x="63.623047"/>
       <use xlink:href="#DejaVuSans-32" x="95.410156"/>
       <use xlink:href="#DejaVuSans-30" x="159.033203"/>
       <use xlink:href="#DejaVuSans-30" x="222.65625"/>
       <use xlink:href="#DejaVuSans-6b" x="286.279297"/>
      </g>
     </g>
    </g>
    <g id="ytick_8">
     <g id="line2d_37">
      <path d="M 64.2325 43.265853 
L 967.0765 43.265853 
" clip-path="url(#p5367c19139)" style="fill: none; stroke: #ffffff; stroke-width: 0.8; stroke-linecap: square"/>
     </g>
     <g id="line2d_38">
      <g>
       <use xlink:href="#m5f10ca9231" x="64.2325" y="43.265853" style="fill: #555555; stroke: #555555; stroke-width: 0.8"/>
      </g>
     </g>
     <g id="text_20">
      <!-- 1,400k -->
      <g style="fill: #555555" transform="translate(22.81375 47.065072)scale(0.1 -0.1)">
       <use xlink:href="#DejaVuSans-31"/>
       <use xlink:href="#DejaVuSans-2c" x="63.623047"/>
       <use xlink:href="#DejaVuSans-34" x="95.410156"/>
       <use xlink:href="#DejaVuSans-30" x="159.033203"/>
       <use xlink:href="#DejaVuSans-30" x="222.65625"/>
       <use xlink:href="#DejaVuSans-6b" x="286.279297"/>
      </g>
     </g>
    </g>
    <g id="text_21">
     <!-- Instances -->
     <g style="fill: #555555" transform="translate(16.318125 324.588)rotate(-90)scale(0.12 -0.12)">
      <defs>
       <path id="DejaVuSans-49" d="M 628 4666 
L 1259 4666 
L 1259 0 
L 628 0 
L 628 4666 
z
" transform="scale(0.015625)"/>
       <path id="DejaVuSans-6e" d="M 3513 2113 
L 3513 0 
L 2938 0 
L 2938 2094 
Q 2938 2591 2744 2837 
Q 2550 3084 2163 3084 
Q 1697 3084 1428 2787 
Q 1159 2491 1159 1978 
L 1159 0 
L 581 0 
L 581 3500 
L 1159 3500 
L 1159 2956 
Q 1366 3272 1645 3428 
Q 1925 3584 2291 3584 
Q 2894 3584 3203 3211 
Q 3513 2838 3513 2113 
z
" transform="scale(0.015625)"/>
       <path id="DejaVuSans-73" d="M 2834 3397 
L 2834 2853 
Q 2591 2978 2328 3040 
Q 2066 3103 1784 3103 
Q 1356 3103 1142 2972 
Q 928 2841 928 2578 
Q 928 2378 1081 2264 
Q 1234 2150 1697 2047 
L 1894 2003 
Q 2506 1872 2764 1633 
Q 3022 1394 3022 966 
Q 3022 478 2636 193 
Q 2250 -91 1575 -91 
Q 1294 -91 989 -36 
Q 684 19 347 128 
L 347 722 
Q 666 556 975 473 
Q 1284 391 1588 391 
Q 1994 391 2212 530 
Q 2431 669 2431 922 
Q 2431 1156 2273 1281 
Q 2116 1406 1581 1522 
L 1381 1569 
Q 847 1681 609 1914 
Q 372 2147 372 2553 
Q 372 3047 722 3315 
Q 1072 3584 1716 3584 
Q 2034 3584 2315 3537 
Q 2597 3491 2834 3397 
z
" transform="scale(0.015625)"/>
       <path id="DejaVuSans-63" d="M 3122 3366 
L 3122 2828 
Q 2878 2963 2633 3030 
Q 2388 3097 2138 3097 
Q 1578 3097 1268 2742 
Q 959 2388 959 1747 
Q 959 1106 1268 751 
Q 1578 397 2138 397 
Q 2388 397 2633 464 
Q 2878 531 3122 666 
L 3122 134 
Q 2881 22 2623 -34 
Q 2366 -91 2075 -91 
Q 1284 -91 818 406 
Q 353 903 353 1747 
Q 353 2603 823 3093 
Q 1294 3584 2113 3584 
Q 2378 3584 2631 3529 
Q 2884 3475 3122 3366 
z
" transform="scale(0.015625)"/>
      </defs>
      <use xlink:href="#DejaVuSans-49"/>
      <use xlink:href="#DejaVuSans-6e" x="29.492188"/>
      <use xlink:href="#DejaVuSans-73" x="92.871094"/>
      <use xlink:href="#DejaVuSans-74" x="144.970703"/>
      <use xlink:href="#DejaVuSans-61" x="184.179688"/>
      <use xlink:href="#DejaVuSans-6e" x="245.458984"/>
      <use xlink:href="#DejaVuSans-63" x="308.837891"/>
      <use xlink:href="#DejaVuSans-65" x="363.818359"/>
      <use xlink:href="#DejaVuSans-73" x="425.341797"/>
     </g>
    </g>
   </g>
   <g id="line2d_39">
    <path d="M 64.2325 438.64867 
L 73.352136 437.270921 
L 82.471773 435.893172 
L 91.591409 434.515422 
L 100.711045 433.137673 
L 109.830682 431.759924 
L 118.950318 430.382174 
L 128.069955 429.004425 
L 137.189591 427.626676 
L 146.309227 426.248926 
L 155.428864 424.871177 
L 164.5485 423.493428 
L 173.668136 422.115678 
L 182.787773 420.737929 
L 191.907409 419.36018 
L 201.027045 417.98243 
L 210.146682 416.604681 
L 219.266318 415.226932 
L 228.385955 413.849182 
L 237.505591 412.471433 
L 246.625227 411.093684 
L 255.744864 409.715934 
L 264.8645 408.338185 
L 273.984136 406.960435 
L 283.103773 405.582686 
L 292.223409 404.204937 
L 301.343045 402.827187 
L 310.462682 401.449438 
L 319.582318 400.071689 
L 328.701955 398.693939 
L 337.821591 397.31619 
L 346.941227 395.938441 
L 356.060864 394.560691 
L 365.1805 393.182942 
L 374.300136 391.805193 
L 383.419773 390.427443 
L 392.539409 389.049694 
L 401.659045 387.671945 
L 410.778682 386.294195 
L 419.898318 384.916446 
L 429.017955 383.538697 
L 438.137591 382.160947 
L 447.257227 380.783198 
L 456.376864 379.405449 
L 465.4965 378.027699 
L 474.616136 376.64995 
L 483.735773 375.272201 
L 492.855409 373.894451 
L 501.975045 372.516702 
L 511.094682 371.138953 
L 520.214318 369.761203 
L 529.333955 368.383454 
L 538.453591 367.005704 
L 547.573227 365.627955 
L 556.692864 364.250206 
L 565.8125 362.872456 
L 574.932136 361.494707 
L 584.051773 360.116958 
L 593.171409 358.739208 
L 602.291045 357.361459 
L 611.410682 355.98371 
L 620.530318 354.60596 
L 629.649955 353.228211 
L 638.769591 351.850462 
L 647.889227 350.472712 
L 657.008864 349.094963 
L 666.1285 347.717214 
L 675.248136 346.339464 
L 684.367773 344.961715 
L 693.487409 343.583966 
L 702.607045 342.206216 
L 711.726682 340.828467 
L 720.846318 339.450718 
L 729.965955 338.072968 
L 739.085591 336.695219 
L 748.205227 335.31747 
L 757.324864 333.93972 
L 766.4445 332.561971 
L 775.564136 331.184222 
L 784.683773 329.806472 
L 793.803409 328.428723 
L 802.923045 327.050973 
L 812.042682 325.673224 
L 821.162318 324.295475 
L 830.281955 322.917725 
L 839.401591 321.539976 
L 848.521227 320.162227 
L 857.640864 318.784477 
L 866.7605 317.406728 
L 875.880136 316.028979 
L 884.999773 314.651229 
L 894.119409 313.27348 
L 903.239045 311.895731 
L 912.358682 310.517981 
L 921.478318 309.140232 
L 930.597955 307.762483 
L 939.717591 306.384733 
L 948.837227 305.006984 
L 957.956864 303.629235 
L 967.0765 302.251485 
" clip-path="url(#p5367c19139)" style="fill: none; stroke-dasharray: 1.5,2.475; stroke-dashoffset: 0; stroke: #4ac1fa; stroke-width: 1.5"/>
   </g>
   <g id="line2d_40">
    <path d="M 64.2325 408.075525 
L 73.352136 408.665159 
L 82.471773 409.254794 
L 91.591409 409.844428 
L 100.711045 410.434063 
L 109.830682 411.023697 
L 118.950318 411.613332 
L 128.069955 412.202966 
L 137.189591 412.792601 
L 146.309227 413.382235 
L 155.428864 413.97187 
L 164.5485 414.561504 
L 173.668136 415.151138 
L 182.787773 415.740773 
L 191.907409 416.330407 
L 201.027045 416.920042 
L 210.146682 417.509676 
L 219.266318 418.099311 
L 228.385955 418.688945 
L 237.505591 419.27858 
L 246.625227 419.868214 
L 255.744864 420.457849 
L 264.8645 421.047483 
L 273.984136 421.637118 
L 283.103773 422.226752 
L 292.223409 422.816386 
L 301.343045 423.406021 
L 310.462682 423.995655 
L 319.582318 424.58529 
L 328.701955 425.174924 
L 337.821591 425.764559 
L 346.941227 426.354193 
L 356.060864 426.943828 
L 365.1805 427.533462 
L 374.300136 428.123097 
L 383.419773 428.712731 
L 392.539409 429.302365 
L 401.659045 429.892 
L 410.778682 430.481634 
L 419.898318 431.071269 
L 429.017955 431.660903 
L 438.137591 432.250538 
L 447.257227 432.840172 
L 456.376864 433.429807 
L 465.4965 434.019441 
L 474.616136 434.609076 
L 483.735773 435.19871 
L 492.855409 435.788345 
L 501.975045 436.377979 
L 511.094682 436.967613 
L 520.214318 437.557248 
L 529.333955 438.146882 
L 538.453591 438.736517 
L 547.573227 439.326151 
L 556.692864 439.915786 
L 565.8125 440.50542 
L 574.932136 441.095055 
L 584.051773 441.684689 
L 593.171409 442.274324 
L 602.291045 442.863958 
L 611.410682 443.453592 
L 620.530318 444.043227 
L 629.649955 444.632861 
L 638.769591 445.222496 
L 647.889227 445.81213 
L 657.008864 446.401765 
L 666.1285 446.991399 
L 675.248136 447.581034 
L 684.367773 448.170668 
L 693.487409 448.760303 
L 702.607045 449.349937 
L 711.726682 449.939571 
L 720.846318 450.529206 
L 729.965955 451.11884 
L 739.085591 451.708475 
L 748.205227 452.298109 
L 757.324864 452.887744 
L 766.4445 453.477378 
L 775.564136 454.067013 
L 784.683773 454.656647 
L 793.803409 455.246282 
L 802.923045 455.835916 
L 812.042682 456.425551 
L 821.162318 457.015185 
L 830.281955 457.604819 
L 839.401591 458.194454 
L 848.521227 458.784088 
L 857.640864 459.373723 
L 866.7605 459.963357 
L 875.880136 460.552992 
L 884.999773 461.142626 
L 894.119409 461.732261 
L 903.239045 462.321895 
L 912.358682 462.91153 
L 921.478318 463.501164 
L 930.597955 464.090798 
L 939.717591 464.680433 
L 948.837227 465.270067 
L 957.956864 465.859702 
L 967.0765 466.449336 
" clip-path="url(#p5367c19139)" style="fill: none; stroke-dasharray: 1.5,2.475; stroke-dashoffset: 0; stroke: #e9a942; stroke-width: 1.5"/>
   </g>
   <g id="line2d_41">
    <path d="M 64.2325 430.857726 
L 73.352136 431.419874 
L 82.471773 431.982023 
L 91.591409 432.544171 
L 100.711045 433.106319 
L 109.830682 433.668467 
L 118.950318 434.230615 
L 128.069955 434.792763 
L 137.189591 435.354912 
L 146.309227 435.91706 
L 155.428864 436.479208 
L 164.5485 437.041356 
L 173.668136 437.603504 
L 182.787773 438.165652 
L 191.907409 438.727801 
L 201.027045 439.289949 
L 210.146682 439.852097 
L 219.266318 440.414245 
L 228.385955 440.976393 
L 237.505591 441.538542 
L 246.625227 442.10069 
L 255.744864 442.662838 
L 264.8645 443.224986 
L 273.984136 443.787134 
L 283.103773 444.349282 
L 292.223409 444.911431 
L 301.343045 445.473579 
L 310.462682 446.035727 
L 319.582318 446.597875 
L 328.701955 447.160023 
L 337.821591 447.722172 
L 346.941227 448.28432 
L 356.060864 448.846468 
L 365.1805 449.408616 
L 374.300136 449.970764 
L 383.419773 450.532912 
L 392.539409 451.095061 
L 401.659045 451.657209 
L 410.778682 452.219357 
L 419.898318 452.781505 
L 429.017955 453.343653 
L 438.137591 453.905801 
L 447.257227 454.46795 
L 456.376864 455.030098 
L 465.4965 455.592246 
L 474.616136 456.154394 
L 483.735773 456.716542 
L 492.855409 457.278691 
L 501.975045 457.840839 
L 511.094682 458.402987 
L 520.214318 458.965135 
L 529.333955 459.527283 
L 538.453591 460.089431 
L 547.573227 460.65158 
L 556.692864 461.213728 
L 565.8125 461.775876 
L 574.932136 462.338024 
L 584.051773 462.900172 
L 593.171409 463.462321 
L 602.291045 464.024469 
L 611.410682 464.586617 
L 620.530318 465.148765 
L 629.649955 465.710913 
L 638.769591 466.273061 
L 647.889227 466.83521 
L 657.008864 467.397358 
L 666.1285 467.959506 
L 675.248136 468.521654 
L 684.367773 469.083802 
L 693.487409 469.645951 
L 702.607045 470.208099 
L 711.726682 470.770247 
L 720.846318 471.332395 
L 729.965955 471.894543 
L 739.085591 472.456691 
L 748.205227 473.01884 
L 757.324864 473.580988 
L 766.4445 474.143136 
L 775.564136 474.705284 
L 784.683773 475.267432 
L 793.803409 475.82958 
L 802.923045 476.391729 
L 812.042682 476.953877 
L 821.162318 477.516025 
L 830.281955 478.078173 
L 839.401591 478.640321 
L 848.521227 479.20247 
L 857.640864 479.764618 
L 866.7605 480.326766 
L 875.880136 480.888914 
L 884.999773 481.451062 
L 894.119409 482.01321 
L 903.239045 482.575359 
L 912.358682 483.137507 
L 921.478318 483.699655 
L 930.597955 484.261803 
L 939.717591 484.823951 
L 948.837227 485.3861 
L 957.956864 485.948248 
L 967.0765 486.510396 
" clip-path="url(#p5367c19139)" style="fill: none; stroke-dasharray: 1.5,2.475; stroke-dashoffset: 0; stroke: #9a5689; stroke-width: 1.5"/>
   </g>
   <g id="line2d_42">
    <path d="M 64.2325 539.152712 
L 73.352136 539.005106 
L 82.471773 538.8575 
L 91.591409 538.709895 
L 100.711045 538.562289 
L 109.830682 538.414683 
L 118.950318 538.267077 
L 128.069955 538.119471 
L 137.189591 537.971865 
L 146.309227 537.82426 
L 155.428864 537.676654 
L 164.5485 537.529048 
L 173.668136 537.381442 
L 182.787773 537.233836 
L 191.907409 537.08623 
L 201.027045 536.938624 
L 210.146682 536.791019 
L 219.266318 536.643413 
L 228.385955 536.495807 
L 237.505591 536.348201 
L 246.625227 536.200595 
L 255.744864 536.052989 
L 264.8645 535.905384 
L 273.984136 535.757778 
L 283.103773 535.610172 
L 292.223409 535.462566 
L 301.343045 535.31496 
L 310.462682 535.167354 
L 319.582318 535.019749 
L 328.701955 534.872143 
L 337.821591 534.724537 
L 346.941227 534.576931 
L 356.060864 534.429325 
L 365.1805 534.281719 
L 374.300136 534.134113 
L 383.419773 533.986508 
L 392.539409 533.838902 
L 401.659045 533.691296 
L 410.778682 533.54369 
L 419.898318 533.396084 
L 429.017955 533.248478 
L 438.137591 533.100873 
L 447.257227 532.953267 
L 456.376864 532.805661 
L 465.4965 532.658055 
L 474.616136 532.510449 
L 483.735773 532.362843 
L 492.855409 532.215238 
L 501.975045 532.067632 
L 511.094682 531.920026 
L 520.214318 531.77242 
L 529.333955 531.624814 
L 538.453591 531.477208 
L 547.573227 531.329602 
L 556.692864 531.181997 
L 565.8125 531.034391 
L 574.932136 530.886785 
L 584.051773 530.739179 
L 593.171409 530.591573 
L 602.291045 530.443967 
L 611.410682 530.296362 
L 620.530318 530.148756 
L 629.649955 530.00115 
L 638.769591 529.853544 
L 647.889227 529.705938 
L 657.008864 529.558332 
L 666.1285 529.410727 
L 675.248136 529.263121 
L 684.367773 529.115515 
L 693.487409 528.967909 
L 702.607045 528.820303 
L 711.726682 528.672697 
L 720.846318 528.525092 
L 729.965955 528.377486 
L 739.085591 528.22988 
L 748.205227 528.082274 
L 757.324864 527.934668 
L 766.4445 527.787062 
L 775.564136 527.639456 
L 784.683773 527.491851 
L 793.803409 527.344245 
L 802.923045 527.196639 
L 812.042682 527.049033 
L 821.162318 526.901427 
L 830.281955 526.753821 
L 839.401591 526.606216 
L 848.521227 526.45861 
L 857.640864 526.311004 
L 866.7605 526.163398 
L 875.880136 526.015792 
L 884.999773 525.868186 
L 894.119409 525.720581 
L 903.239045 525.572975 
L 912.358682 525.425369 
L 921.478318 525.277763 
L 930.597955 525.130157 
L 939.717591 524.982551 
L 948.837227 524.834945 
L 957.956864 524.68734 
L 967.0765 524.539734 
" clip-path="url(#p5367c19139)" style="fill: none; stroke-dasharray: 1.5,2.475; stroke-dashoffset: 0; stroke: #be503b; stroke-width: 1.5"/>
   </g>
   <g id="line2d_43">
    <path d="M 64.2325 434.617244 
L 73.352136 433.224615 
L 82.471773 431.831986 
L 91.591409 430.439357 
L 100.711045 429.046728 
L 109.830682 427.6541 
L 118.950318 426.261471 
L 128.069955 424.868842 
L 137.189591 423.476213 
L 146.309227 422.083584 
L 155.428864 420.690955 
L 164.5485 419.298326 
L 173.668136 417.905697 
L 182.787773 416.513069 
L 191.907409 415.12044 
L 201.027045 413.727811 
L 210.146682 412.335182 
L 219.266318 410.942553 
L 228.385955 409.549924 
L 237.505591 408.157295 
L 246.625227 406.764666 
L 255.744864 405.372037 
L 264.8645 403.979409 
L 273.984136 402.58678 
L 283.103773 401.194151 
L 292.223409 399.801522 
L 301.343045 398.408893 
L 310.462682 397.016264 
L 319.582318 395.623635 
L 328.701955 394.231006 
L 337.821591 392.838378 
L 346.941227 391.445749 
L 356.060864 390.05312 
L 365.1805 388.660491 
L 374.300136 387.267862 
L 383.419773 385.875233 
L 392.539409 384.482604 
L 401.659045 383.089975 
L 410.778682 381.697347 
L 419.898318 380.304718 
L 429.017955 378.912089 
L 438.137591 377.51946 
L 447.257227 376.126831 
L 456.376864 374.734202 
L 465.4965 373.341573 
L 474.616136 371.948944 
L 483.735773 370.556316 
L 492.855409 369.163687 
L 501.975045 367.771058 
L 511.094682 366.378429 
L 520.214318 364.9858 
L 529.333955 363.593171 
L 538.453591 362.200542 
L 547.573227 360.807913 
L 556.692864 359.415285 
L 565.8125 358.022656 
L 574.932136 356.630027 
L 584.051773 355.237398 
L 593.171409 353.844769 
L 602.291045 352.45214 
L 611.410682 351.059511 
L 620.530318 349.666882 
L 629.649955 348.274253 
L 638.769591 346.881625 
L 647.889227 345.488996 
L 657.008864 344.096367 
L 666.1285 342.703738 
L 675.248136 341.311109 
L 684.367773 339.91848 
L 693.487409 338.525851 
L 702.607045 337.133222 
L 711.726682 335.740594 
L 720.846318 334.347965 
L 729.965955 332.955336 
L 739.085591 331.562707 
L 748.205227 330.170078 
L 757.324864 328.777449 
L 766.4445 327.38482 
L 775.564136 325.992191 
L 784.683773 324.599563 
L 793.803409 323.206934 
L 802.923045 321.814305 
L 812.042682 320.421676 
L 821.162318 319.029047 
L 830.281955 317.636418 
L 839.401591 316.243789 
L 848.521227 314.85116 
L 857.640864 313.458532 
L 866.7605 312.065903 
L 875.880136 310.673274 
L 884.999773 309.280645 
L 894.119409 307.888016 
L 903.239045 306.495387 
L 912.358682 305.102758 
L 921.478318 303.710129 
L 930.597955 302.317501 
L 939.717591 300.924872 
L 948.837227 299.532243 
L 957.956864 298.139614 
L 967.0765 296.746985 
" clip-path="url(#p5367c19139)" style="fill: none; stroke-dasharray: 1.5,2.475; stroke-dashoffset: 0; stroke: #e2321d; stroke-width: 1.5"/>
   </g>
   <g id="line2d_44">
    <path d="M 64.2325 341.047619 
L 73.352136 338.190532 
L 82.471773 335.333445 
L 91.591409 332.476359 
L 100.711045 329.619272 
L 109.830682 326.762185 
L 118.950318 323.905098 
L 128.069955 321.048011 
L 137.189591 318.190924 
L 146.309227 315.333837 
L 155.428864 312.47675 
L 164.5485 309.619663 
L 173.668136 306.762576 
L 182.787773 303.905489 
L 191.907409 301.048402 
L 201.027045 298.191315 
L 210.146682 295.334228 
L 219.266318 292.477141 
L 228.385955 289.620054 
L 237.505591 286.762967 
L 246.625227 283.90588 
L 255.744864 281.048793 
L 264.8645 278.191706 
L 273.984136 275.334619 
L 283.103773 272.477532 
L 292.223409 269.620445 
L 301.343045 266.763358 
L 310.462682 263.906271 
L 319.582318 261.049184 
L 328.701955 258.192097 
L 337.821591 255.33501 
L 346.941227 252.477923 
L 356.060864 249.620836 
L 365.1805 246.763749 
L 374.300136 243.906662 
L 383.419773 241.049575 
L 392.539409 238.192488 
L 401.659045 235.335401 
L 410.778682 232.478314 
L 419.898318 229.621227 
L 429.017955 226.76414 
L 438.137591 223.907053 
L 447.257227 221.049966 
L 456.376864 218.192879 
L 465.4965 215.335792 
L 474.616136 212.478705 
L 483.735773 209.621618 
L 492.855409 206.764531 
L 501.975045 203.907444 
L 511.094682 201.050358 
L 520.214318 198.193271 
L 529.333955 195.336184 
L 538.453591 192.479097 
L 547.573227 189.62201 
L 556.692864 186.764923 
L 565.8125 183.907836 
L 574.932136 181.050749 
L 584.051773 178.193662 
L 593.171409 175.336575 
L 602.291045 172.479488 
L 611.410682 169.622401 
L 620.530318 166.765314 
L 629.649955 163.908227 
L 638.769591 161.05114 
L 647.889227 158.194053 
L 657.008864 155.336966 
L 666.1285 152.479879 
L 675.248136 149.622792 
L 684.367773 146.765705 
L 693.487409 143.908618 
L 702.607045 141.051531 
L 711.726682 138.194444 
L 720.846318 135.337357 
L 729.965955 132.48027 
L 739.085591 129.623183 
L 748.205227 126.766096 
L 757.324864 123.909009 
L 766.4445 121.051922 
L 775.564136 118.194835 
L 784.683773 115.337748 
L 793.803409 112.480661 
L 802.923045 109.623574 
L 812.042682 106.766487 
L 821.162318 103.9094 
L 830.281955 101.052313 
L 839.401591 98.195226 
L 848.521227 95.338139 
L 857.640864 92.481052 
L 866.7605 89.623965 
L 875.880136 86.766878 
L 884.999773 83.909791 
L 894.119409 81.052704 
L 903.239045 78.195617 
L 912.358682 75.33853 
L 921.478318 72.481443 
L 930.597955 69.624357 
L 939.717591 66.76727 
L 948.837227 63.910183 
L 957.956864 61.053096 
L 967.0765 58.196009 
" clip-path="url(#p5367c19139)" style="fill: none; stroke-dasharray: 1.5,2.475; stroke-dashoffset: 0; stroke: #48b585; stroke-width: 1.5"/>
   </g>
   <g id="line2d_45">
    <path d="M 64.2325 430.172471 
L 82.28938 430.404739 
L 100.34626 425.944072 
L 118.40314 427.589802 
L 136.46002 427.553089 
L 154.5169 422.945568 
L 172.57378 423.637876 
L 190.63066 422.787851 
L 208.68754 424.507757 
L 226.74442 410.264865 
L 244.8013 406.61676 
L 262.85818 407.259243 
L 280.91506 404.027348 
L 298.97194 401.637236 
L 317.02882 396.725145 
L 335.0857 386.245367 
L 353.14258 388.937802 
L 371.19946 389.082033 
L 389.25634 386.504983 
L 407.31322 387.998615 
L 425.3701 392.219897 
L 443.42698 387.777961 
L 461.48386 389.492997 
L 479.54074 385.731381 
L 497.59762 382.311423 
L 515.6545 381.329155 
L 533.71138 378.344887 
L 551.76826 377.233748 
L 569.82514 364.10237 
L 587.88202 361.533562 
L 605.9389 365.920428 
L 623.99578 363.549422 
L 642.05266 355.066024 
L 660.10954 352.244344 
L 678.16642 347.877333 
L 696.2233 341.237094 
L 714.28018 342.296535 
L 732.33706 333.672653 
L 750.39394 329.380567 
L 768.45082 325.284035 
L 786.5077 323.643924 
L 804.56458 320.589227 
L 822.62146 315.638549 
L 840.67834 312.608577 
L 858.73522 319.295644 
L 876.7921 319.443247 
L 894.84898 310.262671 
L 912.90586 303.422007 
L 930.96274 307.810372 
L 949.01962 304.659021 
L 967.0765 298.132293 
" clip-path="url(#p5367c19139)" style="fill: none; stroke: #4ac1fa; stroke-width: 1.5; stroke-linecap: square"/>
   </g>
   <g id="line2d_46">
    <path d="M 64.2325 438.286488 
L 82.28938 402.972402 
L 100.34626 383.897214 
L 118.40314 442.790238 
L 136.46002 463.852066 
L 154.5169 469.027894 
L 172.57378 451.924735 
L 190.63066 417.416468 
L 208.68754 413.906226 
L 226.74442 422.472416 
L 244.8013 454.426859 
L 262.85818 387.213775 
L 280.91506 399.425072 
L 298.97194 390.179686 
L 317.02882 405.867509 
L 335.0857 379.030077 
L 353.14258 348.539671 
L 371.19946 379.874858 
L 389.25634 391.080286 
L 407.31322 446.909247 
L 425.3701 436.091557 
L 443.42698 425.556334 
L 461.48386 447.97618 
L 479.54074 446.966939 
L 497.59762 443.211691 
L 515.6545 429.112656 
L 533.71138 425.526364 
L 551.76826 426.25576 
L 569.82514 442.058219 
L 587.88202 430.27924 
L 605.9389 450.087196 
L 623.99578 453.186848 
L 642.05266 456.682106 
L 660.10954 460.813103 
L 678.16642 456.469693 
L 696.2233 464.224444 
L 714.28018 469.743054 
L 732.33706 448.911995 
L 750.39394 446.066714 
L 768.45082 463.596946 
L 786.5077 462.771271 
L 804.56458 458.881158 
L 822.62146 451.126782 
L 840.67834 457.097565 
L 858.73522 476.736565 
L 876.7921 457.914624 
L 894.84898 461.328213 
L 912.90586 459.707582 
L 930.96274 468.035136 
L 949.01962 463.817226 
L 967.0765 471.057615 
" clip-path="url(#p5367c19139)" style="fill: none; stroke: #e9a942; stroke-width: 1.5; stroke-linecap: square"/>
   </g>
   <g id="line2d_47">
    <path d="M 64.2325 450.035872 
L 82.28938 446.108672 
L 100.34626 435.51276 
L 118.40314 446.60018 
L 136.46002 458.134904 
L 154.5169 453.387648 
L 172.57378 446.774756 
L 190.63066 444.737542 
L 208.68754 446.802478 
L 226.74442 443.892761 
L 244.8013 441.06696 
L 262.85818 443.755273 
L 280.91506 440.035241 
L 298.97194 441.438963 
L 317.02882 437.48404 
L 335.0857 417.298836 
L 353.14258 418.016619 
L 371.19946 435.81321 
L 389.25634 433.732914 
L 407.31322 402.336288 
L 425.3701 423.676463 
L 443.42698 425.315075 
L 461.48386 436.027496 
L 479.54074 427.558334 
L 497.59762 428.622271 
L 515.6545 423.344545 
L 533.71138 430.148121 
L 551.76826 478.256796 
L 569.82514 502.721349 
L 587.88202 501.150169 
L 605.9389 496.550516 
L 623.99578 495.356958 
L 642.05266 492.987451 
L 660.10954 489.897913 
L 678.16642 486.902407 
L 696.2233 483.881426 
L 714.28018 490.010676 
L 732.33706 488.054006 
L 750.39394 485.825733 
L 768.45082 482.938118 
L 786.5077 483.471211 
L 804.56458 480.978826 
L 822.62146 481.212218 
L 840.67834 479.095958 
L 858.73522 477.339713 
L 876.7921 477.844708 
L 894.84898 476.892035 
L 912.90586 475.34558 
L 930.96274 471.138535 
L 949.01962 469.200596 
L 967.0765 468.175995 
" clip-path="url(#p5367c19139)" style="fill: none; stroke: #9a5689; stroke-width: 1.5; stroke-linecap: square"/>
   </g>
   <g id="line2d_48">
    <path d="M 64.2325 538.652069 
L 82.28938 538.449771 
L 100.34626 538.103617 
L 118.40314 538.234736 
L 136.46002 538.873847 
L 154.5169 537.959761 
L 172.57378 537.72 
L 190.63066 537.377593 
L 208.68754 537.454391 
L 226.74442 535.858111 
L 244.8013 535.034309 
L 262.85818 535.641952 
L 280.91506 535.132836 
L 298.97194 534.970997 
L 317.02882 534.884459 
L 335.0857 533.78231 
L 353.14258 533.886456 
L 371.19946 533.849743 
L 389.25634 532.95701 
L 407.31322 533.119598 
L 425.3701 532.85174 
L 443.42698 533.577015 
L 461.48386 533.535057 
L 479.54074 532.926665 
L 497.59762 533.145821 
L 515.6545 532.717624 
L 533.71138 532.613853 
L 551.76826 534.801292 
L 569.82514 532.689153 
L 587.88202 531.848867 
L 605.9389 531.186529 
L 623.99578 530.14994 
L 642.05266 529.334005 
L 660.10954 529.03468 
L 678.16642 528.678785 
L 696.2233 528.44427 
L 714.28018 528.382831 
L 732.33706 528.369344 
L 750.39394 527.543669 
L 768.45082 526.755457 
L 786.5077 527.081756 
L 804.56458 526.22761 
L 822.62146 526.37184 
L 840.67834 526.31752 
L 858.73522 526.219368 
L 876.7921 525.672414 
L 894.84898 525.680656 
L 912.90586 525.255831 
L 930.96274 525.555906 
L 949.01962 524.853483 
L 967.0765 524.39082 
" clip-path="url(#p5367c19139)" style="fill: none; stroke: #be503b; stroke-width: 1.5; stroke-linecap: square"/>
   </g>
   <g id="line2d_49">
    <path d="M 64.2325 414.898609 
L 82.28938 416.911098 
L 100.34626 414.238894 
L 118.40314 417.89037 
L 136.46002 427.590926 
L 154.5169 416.412472 
L 172.57378 413.110896 
L 190.63066 410.204176 
L 208.68754 410.556324 
L 226.74442 407.51736 
L 244.8013 404.968782 
L 262.85818 405.415336 
L 280.91506 403.890235 
L 298.97194 402.971278 
L 317.02882 400.760987 
L 335.0857 391.083283 
L 353.14258 389.83016 
L 371.19946 391.659832 
L 389.25634 387.847641 
L 407.31322 386.461526 
L 425.3701 383.426684 
L 443.42698 380.717017 
L 461.48386 382.575909 
L 479.54074 379.312171 
L 497.59762 377.124731 
L 515.6545 375.163566 
L 533.71138 371.038563 
L 551.76826 380.092516 
L 569.82514 369.846879 
L 587.88202 362.772823 
L 605.9389 361.375095 
L 623.99578 362.033312 
L 642.05266 354.867098 
L 660.10954 351.814649 
L 678.16642 345.477107 
L 696.2233 340.330125 
L 714.28018 341.232223 
L 732.33706 339.438891 
L 750.39394 320.04527 
L 768.45082 327.832239 
L 786.5077 323.435632 
L 804.56458 321.693249 
L 822.62146 320.27042 
L 840.67834 317.092096 
L 858.73522 293.810611 
L 876.7921 295.82385 
L 894.84898 291.958088 
L 912.90586 289.351068 
L 930.96274 290.035509 
L 949.01962 291.127542 
L 967.0765 294.45272 
" clip-path="url(#p5367c19139)" style="fill: none; stroke: #e2321d; stroke-width: 1.5; stroke-linecap: square"/>
   </g>
   <g id="line2d_50">
    <path d="M 64.2325 334.354471 
L 82.28938 314.370066 
L 100.34626 301.645532 
L 118.40314 310.875184 
L 136.46002 323.942501 
L 154.5169 314.109327 
L 172.57378 307.749682 
L 190.63066 304.878551 
L 208.68754 325.146922 
L 226.74442 324.147796 
L 244.8013 309.06312 
L 262.85818 288.746047 
L 280.91506 296.491432 
L 298.97194 289.469449 
L 317.02882 256.999521 
L 335.0857 253.994649 
L 353.14258 238.880378 
L 371.19946 243.969292 
L 389.25634 207.224136 
L 407.31322 217.799818 
L 425.3701 216.033458 
L 443.42698 210.527585 
L 461.48386 203.710522 
L 479.54074 205.365993 
L 497.59762 209.958903 
L 515.6545 207.184426 
L 533.71138 192.355619 
L 551.76826 191.554295 
L 569.82514 183.164179 
L 587.88202 124.546505 
L 605.9389 157.956369 
L 623.99578 171.462373 
L 642.05266 152.316755 
L 660.10954 170.963746 
L 678.16642 187.823024 
L 696.2233 159.284417 
L 714.28018 162.865089 
L 732.33706 141.157406 
L 750.39394 118.851446 
L 768.45082 129.779276 
L 786.5077 115.496673 
L 804.56458 105.092196 
L 822.62146 99.575084 
L 840.67834 86.251897 
L 858.73522 115.665255 
L 876.7921 87.557842 
L 894.84898 73.531109 
L 912.90586 61.769363 
L 930.96274 76.292475 
L 949.01962 50.095278 
L 967.0765 48.666082 
" clip-path="url(#p5367c19139)" style="fill: none; stroke: #48b585; stroke-width: 6; stroke-linecap: square"/>
   </g>
   <g id="patch_3">
    <path d="M 64.2325 567.74175 
L 64.2325 24.14175 
" style="fill: none; stroke: #ffffff; stroke-linejoin: miter; stroke-linecap: square"/>
   </g>
   <g id="patch_4">
    <path d="M 967.0765 567.74175 
L 967.0765 24.14175 
" style="fill: none; stroke: #ffffff; stroke-linejoin: miter; stroke-linecap: square"/>
   </g>
   <g id="patch_5">
    <path d="M 64.2325 567.74175 
L 967.0765 567.74175 
" style="fill: none; stroke: #ffffff; stroke-linejoin: miter; stroke-linecap: square"/>
   </g>
   <g id="patch_6">
    <path d="M 64.2325 24.14175 
L 967.0765 24.14175 
" style="fill: none; stroke: #ffffff; stroke-linejoin: miter; stroke-linecap: square"/>
   </g>
   <g id="text_22">
    <!-- Enterprise Linux 8 and 9 Instances by Distribution (System Age &gt; 1 Week) -->
    <g transform="translate(64.2325 18.14175)scale(0.144 -0.144)">
     <defs>
      <path id="DejaVuSans-45" d="M 628 4666 
L 3578 4666 
L 3578 4134 
L 1259 4134 
L 1259 2753 
L 3481 2753 
L 3481 2222 
L 1259 2222 
L 1259 531 
L 3634 531 
L 3634 0 
L 628 0 
L 628 4666 
z
" transform="scale(0.015625)"/>
      <path id="DejaVuSans-72" d="M 2631 2963 
Q 2534 3019 2420 3045 
Q 2306 3072 2169 3072 
Q 1681 3072 1420 2755 
Q 1159 2438 1159 1844 
L 1159 0 
L 581 0 
L 581 3500 
L 1159 3500 
L 1159 2956 
Q 1341 3275 1631 3429 
Q 1922 3584 2338 3584 
Q 2397 3584 2469 3576 
Q 2541 3569 2628 3553 
L 2631 2963 
z
" transform="scale(0.015625)"/>
      <path id="DejaVuSans-70" d="M 1159 525 
L 1159 -1331 
L 581 -1331 
L 581 3500 
L 1159 3500 
L 1159 2969 
Q 1341 3281 1617 3432 
Q 1894 3584 2278 3584 
Q 2916 3584 3314 3078 
Q 3713 2572 3713 1747 
Q 3713 922 3314 415 
Q 2916 -91 2278 -91 
Q 1894 -91 1617 61 
Q 1341 213 1159 525 
z
M 3116 1747 
Q 3116 2381 2855 2742 
Q 2594 3103 2138 3103 
Q 1681 3103 1420 2742 
Q 1159 2381 1159 1747 
Q 1159 1113 1420 752 
Q 1681 391 2138 391 
Q 2594 391 2855 752 
Q 3116 1113 3116 1747 
z
" transform="scale(0.015625)"/>
      <path id="DejaVuSans-69" d="M 603 3500 
L 1178 3500 
L 1178 0 
L 603 0 
L 603 3500 
z
M 603 4863 
L 1178 4863 
L 1178 4134 
L 603 4134 
L 603 4863 
z
" transform="scale(0.015625)"/>
      <path id="DejaVuSans-20" transform="scale(0.015625)"/>
      <path id="DejaVuSans-4c" d="M 628 4666 
L 1259 4666 
L 1259 531 
L 3531 531 
L 3531 0 
L 628 0 
L 628 4666 
z
" transform="scale(0.015625)"/>
      <path id="DejaVuSans-75" d="M 544 1381 
L 544 3500 
L 1119 3500 
L 1119 1403 
Q 1119 906 1312 657 
Q 1506 409 1894 409 
Q 2359 409 2629 706 
Q 2900 1003 2900 1516 
L 2900 3500 
L 3475 3500 
L 3475 0 
L 2900 0 
L 2900 538 
Q 2691 219 2414 64 
Q 2138 -91 1772 -91 
Q 1169 -91 856 284 
Q 544 659 544 1381 
z
M 1991 3584 
L 1991 3584 
z
" transform="scale(0.015625)"/>
      <path id="DejaVuSans-78" d="M 3513 3500 
L 2247 1797 
L 3578 0 
L 2900 0 
L 1881 1375 
L 863 0 
L 184 0 
L 1544 1831 
L 300 3500 
L 978 3500 
L 1906 2253 
L 2834 3500 
L 3513 3500 
z
" transform="scale(0.015625)"/>
      <path id="DejaVuSans-64" d="M 2906 2969 
L 2906 4863 
L 3481 4863 
L 3481 0 
L 2906 0 
L 2906 525 
Q 2725 213 2448 61 
Q 2172 -91 1784 -91 
Q 1150 -91 751 415 
Q 353 922 353 1747 
Q 353 2572 751 3078 
Q 1150 3584 1784 3584 
Q 2172 3584 2448 3432 
Q 2725 3281 2906 2969 
z
M 947 1747 
Q 947 1113 1208 752 
Q 1469 391 1925 391 
Q 2381 391 2643 752 
Q 2906 1113 2906 1747 
Q 2906 2381 2643 2742 
Q 2381 3103 1925 3103 
Q 1469 3103 1208 2742 
Q 947 2381 947 1747 
z
" transform="scale(0.015625)"/>
      <path id="DejaVuSans-62" d="M 3116 1747 
Q 3116 2381 2855 2742 
Q 2594 3103 2138 3103 
Q 1681 3103 1420 2742 
Q 1159 2381 1159 1747 
Q 1159 1113 1420 752 
Q 1681 391 2138 391 
Q 2594 391 2855 752 
Q 3116 1113 3116 1747 
z
M 1159 2969 
Q 1341 3281 1617 3432 
Q 1894 3584 2278 3584 
Q 2916 3584 3314 3078 
Q 3713 2572 3713 1747 
Q 3713 922 3314 415 
Q 2916 -91 2278 -91 
Q 1894 -91 1617 61 
Q 1341 213 1159 525 
L 1159 0 
L 581 0 
L 581 4863 
L 1159 4863 
L 1159 2969 
z
" transform="scale(0.015625)"/>
      <path id="DejaVuSans-79" d="M 2059 -325 
Q 1816 -950 1584 -1140 
Q 1353 -1331 966 -1331 
L 506 -1331 
L 506 -850 
L 844 -850 
Q 1081 -850 1212 -737 
Q 1344 -625 1503 -206 
L 1606 56 
L 191 3500 
L 800 3500 
L 1894 763 
L 2988 3500 
L 3597 3500 
L 2059 -325 
z
" transform="scale(0.015625)"/>
      <path id="DejaVuSans-6f" d="M 1959 3097 
Q 1497 3097 1228 2736 
Q 959 2375 959 1747 
Q 959 1119 1226 758 
Q 1494 397 1959 397 
Q 2419 397 2687 759 
Q 2956 1122 2956 1747 
Q 2956 2369 2687 2733 
Q 2419 3097 1959 3097 
z
M 1959 3584 
Q 2709 3584 3137 3096 
Q 3566 2609 3566 1747 
Q 3566 888 3137 398 
Q 2709 -91 1959 -91 
Q 1206 -91 779 398 
Q 353 888 353 1747 
Q 353 2609 779 3096 
Q 1206 3584 1959 3584 
z
" transform="scale(0.015625)"/>
      <path id="DejaVuSans-28" d="M 1984 4856 
Q 1566 4138 1362 3434 
Q 1159 2731 1159 2009 
Q 1159 1288 1364 580 
Q 1569 -128 1984 -844 
L 1484 -844 
Q 1016 -109 783 600 
Q 550 1309 550 2009 
Q 550 2706 781 3412 
Q 1013 4119 1484 4856 
L 1984 4856 
z
" transform="scale(0.015625)"/>
      <path id="DejaVuSans-53" d="M 3425 4513 
L 3425 3897 
Q 3066 4069 2747 4153 
Q 2428 4238 2131 4238 
Q 1616 4238 1336 4038 
Q 1056 3838 1056 3469 
Q 1056 3159 1242 3001 
Q 1428 2844 1947 2747 
L 2328 2669 
Q 3034 2534 3370 2195 
Q 3706 1856 3706 1288 
Q 3706 609 3251 259 
Q 2797 -91 1919 -91 
Q 1588 -91 1214 -16 
Q 841 59 441 206 
L 441 856 
Q 825 641 1194 531 
Q 1563 422 1919 422 
Q 2459 422 2753 634 
Q 3047 847 3047 1241 
Q 3047 1584 2836 1778 
Q 2625 1972 2144 2069 
L 1759 2144 
Q 1053 2284 737 2584 
Q 422 2884 422 3419 
Q 422 4038 858 4394 
Q 1294 4750 2059 4750 
Q 2388 4750 2728 4690 
Q 3069 4631 3425 4513 
z
" transform="scale(0.015625)"/>
      <path id="DejaVuSans-6d" d="M 3328 2828 
Q 3544 3216 3844 3400 
Q 4144 3584 4550 3584 
Q 5097 3584 5394 3201 
Q 5691 2819 5691 2113 
L 5691 0 
L 5113 0 
L 5113 2094 
Q 5113 2597 4934 2840 
Q 4756 3084 4391 3084 
Q 3944 3084 3684 2787 
Q 3425 2491 3425 1978 
L 3425 0 
L 2847 0 
L 2847 2094 
Q 2847 2600 2669 2842 
Q 2491 3084 2119 3084 
Q 1678 3084 1418 2786 
Q 1159 2488 1159 1978 
L 1159 0 
L 581 0 
L 581 3500 
L 1159 3500 
L 1159 2956 
Q 1356 3278 1631 3431 
Q 1906 3584 2284 3584 
Q 2666 3584 2933 3390 
Q 3200 3197 3328 2828 
z
" transform="scale(0.015625)"/>
      <path id="DejaVuSans-41" d="M 2188 4044 
L 1331 1722 
L 3047 1722 
L 2188 4044 
z
M 1831 4666 
L 2547 4666 
L 4325 0 
L 3669 0 
L 3244 1197 
L 1141 1197 
L 716 0 
L 50 0 
L 1831 4666 
z
" transform="scale(0.015625)"/>
      <path id="DejaVuSans-67" d="M 2906 1791 
Q 2906 2416 2648 2759 
Q 2391 3103 1925 3103 
Q 1463 3103 1205 2759 
Q 947 2416 947 1791 
Q 947 1169 1205 825 
Q 1463 481 1925 481 
Q 2391 481 2648 825 
Q 2906 1169 2906 1791 
z
M 3481 434 
Q 3481 -459 3084 -895 
Q 2688 -1331 1869 -1331 
Q 1566 -1331 1297 -1286 
Q 1028 -1241 775 -1147 
L 775 -588 
Q 1028 -725 1275 -790 
Q 1522 -856 1778 -856 
Q 2344 -856 2625 -561 
Q 2906 -266 2906 331 
L 2906 616 
Q 2728 306 2450 153 
Q 2172 0 1784 0 
Q 1141 0 747 490 
Q 353 981 353 1791 
Q 353 2603 747 3093 
Q 1141 3584 1784 3584 
Q 2172 3584 2450 3431 
Q 2728 3278 2906 2969 
L 2906 3500 
L 3481 3500 
L 3481 434 
z
" transform="scale(0.015625)"/>
      <path id="DejaVuSans-3e" d="M 678 3150 
L 678 3719 
L 4684 2266 
L 4684 1747 
L 678 294 
L 678 863 
L 3897 2003 
L 678 3150 
z
" transform="scale(0.015625)"/>
      <path id="DejaVuSans-57" d="M 213 4666 
L 850 4666 
L 1831 722 
L 2809 4666 
L 3519 4666 
L 4500 722 
L 5478 4666 
L 6119 4666 
L 4947 0 
L 4153 0 
L 3169 4050 
L 2175 0 
L 1381 0 
L 213 4666 
z
" transform="scale(0.015625)"/>
      <path id="DejaVuSans-29" d="M 513 4856 
L 1013 4856 
Q 1481 4119 1714 3412 
Q 1947 2706 1947 2009 
Q 1947 1309 1714 600 
Q 1481 -109 1013 -844 
L 513 -844 
Q 928 -128 1133 580 
Q 1338 1288 1338 2009 
Q 1338 2731 1133 3434 
Q 928 4138 513 4856 
z
" transform="scale(0.015625)"/>
     </defs>
     <use xlink:href="#DejaVuSans-45"/>
     <use xlink:href="#DejaVuSans-6e" x="63.183594"/>
     <use xlink:href="#DejaVuSans-74" x="126.5625"/>
     <use xlink:href="#DejaVuSans-65" x="165.771484"/>
     <use xlink:href="#DejaVuSans-72" x="227.294922"/>
     <use xlink:href="#DejaVuSans-70" x="268.408203"/>
     <use xlink:href="#DejaVuSans-72" x="331.884766"/>
     <use xlink:href="#DejaVuSans-69" x="372.998047"/>
     <use xlink:href="#DejaVuSans-73" x="400.78125"/>
     <use xlink:href="#DejaVuSans-65" x="452.880859"/>
     <use xlink:href="#DejaVuSans-20" x="514.404297"/>
     <use xlink:href="#DejaVuSans-4c" x="546.191406"/>
     <use xlink:href="#DejaVuSans-69" x="601.904297"/>
     <use xlink:href="#DejaVuSans-6e" x="629.6875"/>
     <use xlink:href="#DejaVuSans-75" x="693.066406"/>
     <use xlink:href="#DejaVuSans-78" x="756.445312"/>
     <use xlink:href="#DejaVuSans-20" x="815.625"/>
     <use xlink:href="#DejaVuSans-38" x="847.412109"/>
     <use xlink:href="#DejaVuSans-20" x="911.035156"/>
     <use xlink:href="#DejaVuSans-61" x="942.822266"/>
     <use xlink:href="#DejaVuSans-6e" x="1004.101562"/>
     <use xlink:href="#DejaVuSans-64" x="1067.480469"/>
     <use xlink:href="#DejaVuSans-20" x="1130.957031"/>
     <use xlink:href="#DejaVuSans-39" x="1162.744141"/>
     <use xlink:href="#DejaVuSans-20" x="1226.367188"/>
     <use xlink:href="#DejaVuSans-49" x="1258.154297"/>
     <use xlink:href="#DejaVuSans-6e" x="1287.646484"/>
     <use xlink:href="#DejaVuSans-73" x="1351.025391"/>
     <use xlink:href="#DejaVuSans-74" x="1403.125"/>
     <use xlink:href="#DejaVuSans-61" x="1442.333984"/>
     <use xlink:href="#DejaVuSans-6e" x="1503.613281"/>
     <use xlink:href="#DejaVuSans-63" x="1566.992188"/>
     <use xlink:href="#DejaVuSans-65" x="1621.972656"/>
     <use xlink:href="#DejaVuSans-73" x="1683.496094"/>
     <use xlink:href="#DejaVuSans-20" x="1735.595703"/>
     <use xlink:href="#DejaVuSans-62" x="1767.382812"/>
     <use xlink:href="#DejaVuSans-79" x="1830.859375"/>
     <use xlink:href="#DejaVuSans-20" x="1890.039062"/>
     <use xlink:href="#DejaVuSans-44" x="1921.826172"/>
     <use xlink:href="#DejaVuSans-69" x="1998.828125"/>
     <use xlink:href="#DejaVuSans-73" x="2026.611328"/>
     <use xlink:href="#DejaVuSans-74" x="2078.710938"/>
     <use xlink:href="#DejaVuSans-72" x="2117.919922"/>
     <use xlink:href="#DejaVuSans-69" x="2159.033203"/>
     <use xlink:href="#DejaVuSans-62" x="2186.816406"/>
     <use xlink:href="#DejaVuSans-75" x="2250.292969"/>
     <use xlink:href="#DejaVuSans-74" x="2313.671875"/>
     <use xlink:href="#DejaVuSans-69" x="2352.880859"/>
     <use xlink:href="#DejaVuSans-6f" x="2380.664062"/>
     <use xlink:href="#DejaVuSans-6e" x="2441.845703"/>
     <use xlink:href="#DejaVuSans-20" x="2505.224609"/>
     <use xlink:href="#DejaVuSans-28" x="2537.011719"/>
     <use xlink:href="#DejaVuSans-53" x="2576.025391"/>
     <use xlink:href="#DejaVuSans-79" x="2639.501953"/>
     <use xlink:href="#DejaVuSans-73" x="2698.681641"/>
     <use xlink:href="#DejaVuSans-74" x="2750.78125"/>
     <use xlink:href="#DejaVuSans-65" x="2789.990234"/>
     <use xlink:href="#DejaVuSans-6d" x="2851.513672"/>
     <use xlink:href="#DejaVuSans-20" x="2948.925781"/>
     <use xlink:href="#DejaVuSans-41" x="2980.712891"/>
     <use xlink:href="#DejaVuSans-67" x="3049.121094"/>
     <use xlink:href="#DejaVuSans-65" x="3112.597656"/>
     <use xlink:href="#DejaVuSans-20" x="3174.121094"/>
     <use xlink:href="#DejaVuSans-3e" x="3205.908203"/>
     <use xlink:href="#DejaVuSans-20" x="3289.697266"/>
     <use xlink:href="#DejaVuSans-31" x="3321.484375"/>
     <use xlink:href="#DejaVuSans-20" x="3385.107422"/>
     <use xlink:href="#DejaVuSans-57" x="3416.894531"/>
     <use xlink:href="#DejaVuSans-65" x="3509.896484"/>
     <use xlink:href="#DejaVuSans-65" x="3571.419922"/>
     <use xlink:href="#DejaVuSans-6b" x="3632.943359"/>
     <use xlink:href="#DejaVuSans-29" x="3690.853516"/>
    </g>
   </g>
   <g id="text_23">
    <!-- 2024-11-28 11:54 UTC -->
    <g transform="translate(804.1945 18.14175)scale(0.144 -0.144)">
     <defs>
      <path id="DejaVuSans-3a" d="M 750 794 
L 1409 794 
L 1409 0 
L 750 0 
L 750 794 
z
M 750 3309 
L 1409 3309 
L 1409 2516 
L 750 2516 
L 750 3309 
z
" transform="scale(0.015625)"/>
      <path id="DejaVuSans-55" d="M 556 4666 
L 1191 4666 
L 1191 1831 
Q 1191 1081 1462 751 
Q 1734 422 2344 422 
Q 2950 422 3222 751 
Q 3494 1081 3494 1831 
L 3494 4666 
L 4128 4666 
L 4128 1753 
Q 4128 841 3676 375 
Q 3225 -91 2344 -91 
Q 1459 -91 1007 375 
Q 556 841 556 1753 
L 556 4666 
z
" transform="scale(0.015625)"/>
      <path id="DejaVuSans-54" d="M -19 4666 
L 3928 4666 
L 3928 4134 
L 2272 4134 
L 2272 0 
L 1638 0 
L 1638 4134 
L -19 4134 
L -19 4666 
z
" transform="scale(0.015625)"/>
      <path id="DejaVuSans-43" d="M 4122 4306 
L 4122 3641 
Q 3803 3938 3442 4084 
Q 3081 4231 2675 4231 
Q 1875 4231 1450 3742 
Q 1025 3253 1025 2328 
Q 1025 1406 1450 917 
Q 1875 428 2675 428 
Q 3081 428 3442 575 
Q 3803 722 4122 1019 
L 4122 359 
Q 3791 134 3420 21 
Q 3050 -91 2638 -91 
Q 1578 -91 968 557 
Q 359 1206 359 2328 
Q 359 3453 968 4101 
Q 1578 4750 2638 4750 
Q 3056 4750 3426 4639 
Q 3797 4528 4122 4306 
z
" transform="scale(0.015625)"/>
     </defs>
     <use xlink:href="#DejaVuSans-32"/>
     <use xlink:href="#DejaVuSans-30" x="63.623047"/>
     <use xlink:href="#DejaVuSans-32" x="127.246094"/>
     <use xlink:href="#DejaVuSans-34" x="190.869141"/>
     <use xlink:href="#DejaVuSans-2d" x="254.492188"/>
     <use xlink:href="#DejaVuSans-31" x="290.576172"/>
     <use xlink:href="#DejaVuSans-31" x="354.199219"/>
     <use xlink:href="#DejaVuSans-2d" x="417.822266"/>
     <use xlink:href="#DejaVuSans-32" x="453.90625"/>
     <use xlink:href="#DejaVuSans-38" x="517.529297"/>
     <use xlink:href="#DejaVuSans-20" x="581.152344"/>
     <use xlink:href="#DejaVuSans-31" x="612.939453"/>
     <use xlink:href="#DejaVuSans-31" x="676.5625"/>
     <use xlink:href="#DejaVuSans-3a" x="740.185547"/>
     <use xlink:href="#DejaVuSans-35" x="773.876953"/>
     <use xlink:href="#DejaVuSans-34" x="837.5"/>
     <use xlink:href="#DejaVuSans-20" x="901.123047"/>
     <use xlink:href="#DejaVuSans-55" x="932.910156"/>
     <use xlink:href="#DejaVuSans-54" x="1006.103516"/>
     <use xlink:href="#DejaVuSans-43" x="1061.3125"/>
    </g>
   </g>
   <g id="legend_1">
    <g id="patch_7">
     <path d="M 71.2325 134.888625 
L 180.20125 134.888625 
Q 182.20125 134.888625 182.20125 132.888625 
L 182.20125 31.14175 
Q 182.20125 29.14175 180.20125 29.14175 
L 71.2325 29.14175 
Q 69.2325 29.14175 69.2325 31.14175 
L 69.2325 132.888625 
Q 69.2325 134.888625 71.2325 134.888625 
z
" style="fill: #e5e5e5; opacity: 0.8; stroke: #cccccc; stroke-width: 0.5; stroke-linejoin: miter"/>
    </g>
    <g id="text_24">
     <!-- Distribution -->
     <g transform="translate(96.548125 40.740187)scale(0.1 -0.1)">
      <use xlink:href="#DejaVuSans-44"/>
      <use xlink:href="#DejaVuSans-69" x="77.001953"/>
      <use xlink:href="#DejaVuSans-73" x="104.785156"/>
      <use xlink:href="#DejaVuSans-74" x="156.884766"/>
      <use xlink:href="#DejaVuSans-72" x="196.09375"/>
      <use xlink:href="#DejaVuSans-69" x="237.207031"/>
      <use xlink:href="#DejaVuSans-62" x="264.990234"/>
      <use xlink:href="#DejaVuSans-75" x="328.466797"/>
      <use xlink:href="#DejaVuSans-74" x="391.845703"/>
      <use xlink:href="#DejaVuSans-69" x="431.054688"/>
      <use xlink:href="#DejaVuSans-6f" x="458.837891"/>
      <use xlink:href="#DejaVuSans-6e" x="520.019531"/>
     </g>
    </g>
    <g id="line2d_51">
     <path d="M 73.2325 51.918312 
L 83.2325 51.918312 
L 93.2325 51.918312 
" style="fill: none; stroke: #4ac1fa; stroke-width: 1.5; stroke-linecap: square"/>
    </g>
    <g id="text_25">
     <!-- AlmaLinux -->
     <g transform="translate(101.2325 55.418312)scale(0.1 -0.1)">
      <defs>
       <path id="DejaVuSans-6c" d="M 603 4863 
L 1178 4863 
L 1178 0 
L 603 0 
L 603 4863 
z
" transform="scale(0.015625)"/>
      </defs>
      <use xlink:href="#DejaVuSans-41"/>
      <use xlink:href="#DejaVuSans-6c" x="68.408203"/>
      <use xlink:href="#DejaVuSans-6d" x="96.191406"/>
      <use xlink:href="#DejaVuSans-61" x="193.603516"/>
      <use xlink:href="#DejaVuSans-4c" x="254.882812"/>
      <use xlink:href="#DejaVuSans-69" x="310.595703"/>
      <use xlink:href="#DejaVuSans-6e" x="338.378906"/>
      <use xlink:href="#DejaVuSans-75" x="401.757812"/>
      <use xlink:href="#DejaVuSans-78" x="465.136719"/>
     </g>
    </g>
    <g id="line2d_52">
     <path d="M 73.2325 66.596437 
L 83.2325 66.596437 
L 93.2325 66.596437 
" style="fill: none; stroke: #e9a942; stroke-width: 1.5; stroke-linecap: square"/>
    </g>
    <g id="text_26">
     <!-- CentOS Legacy -->
     <g transform="translate(101.2325 70.096437)scale(0.1 -0.1)">
      <defs>
       <path id="DejaVuSans-4f" d="M 2522 4238 
Q 1834 4238 1429 3725 
Q 1025 3213 1025 2328 
Q 1025 1447 1429 934 
Q 1834 422 2522 422 
Q 3209 422 3611 934 
Q 4013 1447 4013 2328 
Q 4013 3213 3611 3725 
Q 3209 4238 2522 4238 
z
M 2522 4750 
Q 3503 4750 4090 4092 
Q 4678 3434 4678 2328 
Q 4678 1225 4090 567 
Q 3503 -91 2522 -91 
Q 1538 -91 948 565 
Q 359 1222 359 2328 
Q 359 3434 948 4092 
Q 1538 4750 2522 4750 
z
" transform="scale(0.015625)"/>
      </defs>
      <use xlink:href="#DejaVuSans-43"/>
      <use xlink:href="#DejaVuSans-65" x="69.824219"/>
      <use xlink:href="#DejaVuSans-6e" x="131.347656"/>
      <use xlink:href="#DejaVuSans-74" x="194.726562"/>
      <use xlink:href="#DejaVuSans-4f" x="233.935547"/>
      <use xlink:href="#DejaVuSans-53" x="312.646484"/>
      <use xlink:href="#DejaVuSans-20" x="376.123047"/>
      <use xlink:href="#DejaVuSans-4c" x="407.910156"/>
      <use xlink:href="#DejaVuSans-65" x="461.873047"/>
      <use xlink:href="#DejaVuSans-67" x="523.396484"/>
      <use xlink:href="#DejaVuSans-61" x="586.873047"/>
      <use xlink:href="#DejaVuSans-63" x="648.152344"/>
      <use xlink:href="#DejaVuSans-79" x="703.132812"/>
     </g>
    </g>
    <g id="line2d_53">
     <path d="M 73.2325 81.274563 
L 83.2325 81.274563 
L 93.2325 81.274563 
" style="fill: none; stroke: #9a5689; stroke-width: 1.5; stroke-linecap: square"/>
    </g>
    <g id="text_27">
     <!-- CentOS Stream -->
     <g transform="translate(101.2325 84.774563)scale(0.1 -0.1)">
      <use xlink:href="#DejaVuSans-43"/>
      <use xlink:href="#DejaVuSans-65" x="69.824219"/>
      <use xlink:href="#DejaVuSans-6e" x="131.347656"/>
      <use xlink:href="#DejaVuSans-74" x="194.726562"/>
      <use xlink:href="#DejaVuSans-4f" x="233.935547"/>
      <use xlink:href="#DejaVuSans-53" x="312.646484"/>
      <use xlink:href="#DejaVuSans-20" x="376.123047"/>
      <use xlink:href="#DejaVuSans-53" x="407.910156"/>
      <use xlink:href="#DejaVuSans-74" x="471.386719"/>
      <use xlink:href="#DejaVuSans-72" x="510.595703"/>
      <use xlink:href="#DejaVuSans-65" x="549.458984"/>
      <use xlink:href="#DejaVuSans-61" x="610.982422"/>
      <use xlink:href="#DejaVuSans-6d" x="672.261719"/>
     </g>
    </g>
    <g id="line2d_54">
     <path d="M 73.2325 95.952687 
L 83.2325 95.952687 
L 93.2325 95.952687 
" style="fill: none; stroke: #be503b; stroke-width: 1.5; stroke-linecap: square"/>
    </g>
    <g id="text_28">
     <!-- Oracle -->
     <g transform="translate(101.2325 99.452687)scale(0.1 -0.1)">
      <use xlink:href="#DejaVuSans-4f"/>
      <use xlink:href="#DejaVuSans-72" x="78.710938"/>
      <use xlink:href="#DejaVuSans-61" x="119.824219"/>
      <use xlink:href="#DejaVuSans-63" x="181.103516"/>
      <use xlink:href="#DejaVuSans-6c" x="236.083984"/>
      <use xlink:href="#DejaVuSans-65" x="263.867188"/>
     </g>
    </g>
    <g id="line2d_55">
     <path d="M 73.2325 110.630812 
L 83.2325 110.630812 
L 93.2325 110.630812 
" style="fill: none; stroke: #e2321d; stroke-width: 1.5; stroke-linecap: square"/>
    </g>
    <g id="text_29">
     <!-- RHEL -->
     <g transform="translate(101.2325 114.130812)scale(0.1 -0.1)">
      <defs>
       <path id="DejaVuSans-52" d="M 2841 2188 
Q 3044 2119 3236 1894 
Q 3428 1669 3622 1275 
L 4263 0 
L 3584 0 
L 2988 1197 
Q 2756 1666 2539 1819 
Q 2322 1972 1947 1972 
L 1259 1972 
L 1259 0 
L 628 0 
L 628 4666 
L 2053 4666 
Q 2853 4666 3247 4331 
Q 3641 3997 3641 3322 
Q 3641 2881 3436 2590 
Q 3231 2300 2841 2188 
z
M 1259 4147 
L 1259 2491 
L 2053 2491 
Q 2509 2491 2742 2702 
Q 2975 2913 2975 3322 
Q 2975 3731 2742 3939 
Q 2509 4147 2053 4147 
L 1259 4147 
z
" transform="scale(0.015625)"/>
       <path id="DejaVuSans-48" d="M 628 4666 
L 1259 4666 
L 1259 2753 
L 3553 2753 
L 3553 4666 
L 4184 4666 
L 4184 0 
L 3553 0 
L 3553 2222 
L 1259 2222 
L 1259 0 
L 628 0 
L 628 4666 
z
" transform="scale(0.015625)"/>
      </defs>
      <use xlink:href="#DejaVuSans-52"/>
      <use xlink:href="#DejaVuSans-48" x="69.482422"/>
      <use xlink:href="#DejaVuSans-45" x="144.677734"/>
      <use xlink:href="#DejaVuSans-4c" x="207.861328"/>
     </g>
    </g>
    <g id="line2d_56">
     <path d="M 73.2325 125.308937 
L 83.2325 125.308937 
L 93.2325 125.308937 
" style="fill: none; stroke: #48b585; stroke-width: 6; stroke-linecap: square"/>
    </g>
    <g id="text_30">
     <!-- Rocky Linux -->
     <g transform="translate(101.2325 128.808937)scale(0.1 -0.1)">
      <use xlink:href="#DejaVuSans-52"/>
      <use xlink:href="#DejaVuSans-6f" x="64.982422"/>
      <use xlink:href="#DejaVuSans-63" x="126.164062"/>
      <use xlink:href="#DejaVuSans-6b" x="181.144531"/>
      <use xlink:href="#DejaVuSans-79" x="235.429688"/>
      <use xlink:href="#DejaVuSans-20" x="294.609375"/>
      <use xlink:href="#DejaVuSans-4c" x="326.396484"/>
      <use xlink:href="#DejaVuSans-69" x="382.109375"/>
      <use xlink:href="#DejaVuSans-6e" x="409.892578"/>
      <use xlink:href="#DejaVuSans-75" x="473.271484"/>
      <use xlink:href="#DejaVuSans-78" x="536.650391"/>
     </g>
    </g>
   </g>
  </g>
 </g>
 <defs>
  <clipPath id="p5367c19139">
   <rect x="64.2325" y="24.14175" width="902.844" height="543.6"/>
  </clipPath>
 </defs>
</svg>
