<?xml version="1.0" encoding="utf-8" standalone="no"?>
<!DOCTYPE svg PUBLIC "-//W3C//DTD SVG 1.1//EN"
  "http://www.w3.org/Graphics/SVG/1.1/DTD/svg11.dtd">
<svg xmlns:xlink="http://www.w3.org/1999/xlink" width="964.735875pt" height="633.943878pt" viewBox="0 0 964.735875 633.943878" xmlns="http://www.w3.org/2000/svg" version="1.1">
 <metadata>
  <rdf:RDF xmlns:dc="http://purl.org/dc/elements/1.1/" xmlns:cc="http://creativecommons.org/ns#" xmlns:rdf="http://www.w3.org/1999/02/22-rdf-syntax-ns#">
   <cc:Work>
    <dc:type rdf:resource="http://purl.org/dc/dcmitype/StillImage"/>
    <dc:date>2023-12-14T11:55:25.650732</dc:date>
    <dc:format>image/svg+xml</dc:format>
    <dc:creator>
     <cc:Agent>
      <dc:title>Matplotlib v3.5.1, https://matplotlib.org/</dc:title>
     </cc:Agent>
    </dc:creator>
   </cc:Work>
  </rdf:RDF>
 </metadata>
 <defs>
  <style type="text/css">*{stroke-linejoin: round; stroke-linecap: butt}</style>
 </defs>
 <g id="figure_1">
  <g id="patch_1">
   <path d="M 0 633.943878 
L 964.735875 633.943878 
L 964.735875 0 
L 0 0 
z
" style="fill: #ffffff"/>
  </g>
  <g id="axes_1">
   <g id="patch_2">
    <path d="M 54.691875 567.74175 
L 957.535875 567.74175 
L 957.535875 24.14175 
L 54.691875 24.14175 
z
" style="fill: #e5e5e5"/>
   </g>
   <g id="matplotlib.axis_1">
    <g id="xtick_1">
     <g id="line2d_1">
      <path d="M 77.452648 567.74175 
L 77.452648 24.14175 
" clip-path="url(#pca087422d7)" style="fill: none; stroke: #ffffff; stroke-width: 0.8; stroke-linecap: square"/>
     </g>
     <g id="line2d_2">
      <defs>
       <path id="mcade5ccc85" d="M 0 0 
L 0 3.5 
" style="stroke: #555555; stroke-width: 0.8"/>
      </defs>
      <g>
       <use xlink:href="#mcade5ccc85" x="77.452648" y="567.74175" style="fill: #555555; stroke: #555555; stroke-width: 0.8"/>
      </g>
     </g>
     <g id="text_1">
      <!-- 2022-12 -->
      <g style="fill: #555555" transform="translate(64.631366 609.659567)rotate(-45)scale(0.1 -0.1)">
       <defs>
        <path id="DejaVuSans-32" d="M 1228 531 
L 3431 531 
L 3431 0 
L 469 0 
L 469 531 
Q 828 903 1448 1529 
Q 2069 2156 2228 2338 
Q 2531 2678 2651 2914 
Q 2772 3150 2772 3378 
Q 2772 3750 2511 3984 
Q 2250 4219 1831 4219 
Q 1534 4219 1204 4116 
Q 875 4013 500 3803 
L 500 4441 
Q 881 4594 1212 4672 
Q 1544 4750 1819 4750 
Q 2544 4750 2975 4387 
Q 3406 4025 3406 3419 
Q 3406 3131 3298 2873 
Q 3191 2616 2906 2266 
Q 2828 2175 2409 1742 
Q 1991 1309 1228 531 
z
" transform="scale(0.015625)"/>
        <path id="DejaVuSans-30" d="M 2034 4250 
Q 1547 4250 1301 3770 
Q 1056 3291 1056 2328 
Q 1056 1369 1301 889 
Q 1547 409 2034 409 
Q 2525 409 2770 889 
Q 3016 1369 3016 2328 
Q 3016 3291 2770 3770 
Q 2525 4250 2034 4250 
z
M 2034 4750 
Q 2819 4750 3233 4129 
Q 3647 3509 3647 2328 
Q 3647 1150 3233 529 
Q 2819 -91 2034 -91 
Q 1250 -91 836 529 
Q 422 1150 422 2328 
Q 422 3509 836 4129 
Q 1250 4750 2034 4750 
z
" transform="scale(0.015625)"/>
        <path id="DejaVuSans-2d" d="M 313 2009 
L 1997 2009 
L 1997 1497 
L 313 1497 
L 313 2009 
z
" transform="scale(0.015625)"/>
        <path id="DejaVuSans-31" d="M 794 531 
L 1825 531 
L 1825 4091 
L 703 3866 
L 703 4441 
L 1819 4666 
L 2450 4666 
L 2450 531 
L 3481 531 
L 3481 0 
L 794 0 
L 794 531 
z
" transform="scale(0.015625)"/>
       </defs>
       <use xlink:href="#DejaVuSans-32"/>
       <use xlink:href="#DejaVuSans-30" x="63.623047"/>
       <use xlink:href="#DejaVuSans-32" x="127.246094"/>
       <use xlink:href="#DejaVuSans-32" x="190.869141"/>
       <use xlink:href="#DejaVuSans-2d" x="254.492188"/>
       <use xlink:href="#DejaVuSans-31" x="290.576172"/>
       <use xlink:href="#DejaVuSans-32" x="354.199219"/>
      </g>
     </g>
    </g>
    <g id="xtick_2">
     <g id="line2d_3">
      <path d="M 155.850867 567.74175 
L 155.850867 24.14175 
" clip-path="url(#pca087422d7)" style="fill: none; stroke: #ffffff; stroke-width: 0.8; stroke-linecap: square"/>
     </g>
     <g id="line2d_4">
      <g>
       <use xlink:href="#mcade5ccc85" x="155.850867" y="567.74175" style="fill: #555555; stroke: #555555; stroke-width: 0.8"/>
      </g>
     </g>
     <g id="text_2">
      <!-- 2023-01 -->
      <g style="fill: #555555" transform="translate(143.029584 609.659567)rotate(-45)scale(0.1 -0.1)">
       <defs>
        <path id="DejaVuSans-33" d="M 2597 2516 
Q 3050 2419 3304 2112 
Q 3559 1806 3559 1356 
Q 3559 666 3084 287 
Q 2609 -91 1734 -91 
Q 1441 -91 1130 -33 
Q 819 25 488 141 
L 488 750 
Q 750 597 1062 519 
Q 1375 441 1716 441 
Q 2309 441 2620 675 
Q 2931 909 2931 1356 
Q 2931 1769 2642 2001 
Q 2353 2234 1838 2234 
L 1294 2234 
L 1294 2753 
L 1863 2753 
Q 2328 2753 2575 2939 
Q 2822 3125 2822 3475 
Q 2822 3834 2567 4026 
Q 2313 4219 1838 4219 
Q 1578 4219 1281 4162 
Q 984 4106 628 3988 
L 628 4550 
Q 988 4650 1302 4700 
Q 1616 4750 1894 4750 
Q 2613 4750 3031 4423 
Q 3450 4097 3450 3541 
Q 3450 3153 3228 2886 
Q 3006 2619 2597 2516 
z
" transform="scale(0.015625)"/>
       </defs>
       <use xlink:href="#DejaVuSans-32"/>
       <use xlink:href="#DejaVuSans-30" x="63.623047"/>
       <use xlink:href="#DejaVuSans-32" x="127.246094"/>
       <use xlink:href="#DejaVuSans-33" x="190.869141"/>
       <use xlink:href="#DejaVuSans-2d" x="254.492188"/>
       <use xlink:href="#DejaVuSans-30" x="290.576172"/>
       <use xlink:href="#DejaVuSans-31" x="354.199219"/>
      </g>
     </g>
    </g>
    <g id="xtick_3">
     <g id="line2d_5">
      <path d="M 234.249085 567.74175 
L 234.249085 24.14175 
" clip-path="url(#pca087422d7)" style="fill: none; stroke: #ffffff; stroke-width: 0.8; stroke-linecap: square"/>
     </g>
     <g id="line2d_6">
      <g>
       <use xlink:href="#mcade5ccc85" x="234.249085" y="567.74175" style="fill: #555555; stroke: #555555; stroke-width: 0.8"/>
      </g>
     </g>
     <g id="text_3">
      <!-- 2023-02 -->
      <g style="fill: #555555" transform="translate(221.427803 609.659567)rotate(-45)scale(0.1 -0.1)">
       <use xlink:href="#DejaVuSans-32"/>
       <use xlink:href="#DejaVuSans-30" x="63.623047"/>
       <use xlink:href="#DejaVuSans-32" x="127.246094"/>
       <use xlink:href="#DejaVuSans-33" x="190.869141"/>
       <use xlink:href="#DejaVuSans-2d" x="254.492188"/>
       <use xlink:href="#DejaVuSans-30" x="290.576172"/>
       <use xlink:href="#DejaVuSans-32" x="354.199219"/>
      </g>
     </g>
    </g>
    <g id="xtick_4">
     <g id="line2d_7">
      <path d="M 305.060379 567.74175 
L 305.060379 24.14175 
" clip-path="url(#pca087422d7)" style="fill: none; stroke: #ffffff; stroke-width: 0.8; stroke-linecap: square"/>
     </g>
     <g id="line2d_8">
      <g>
       <use xlink:href="#mcade5ccc85" x="305.060379" y="567.74175" style="fill: #555555; stroke: #555555; stroke-width: 0.8"/>
      </g>
     </g>
     <g id="text_4">
      <!-- 2023-03 -->
      <g style="fill: #555555" transform="translate(292.239097 609.659567)rotate(-45)scale(0.1 -0.1)">
       <use xlink:href="#DejaVuSans-32"/>
       <use xlink:href="#DejaVuSans-30" x="63.623047"/>
       <use xlink:href="#DejaVuSans-32" x="127.246094"/>
       <use xlink:href="#DejaVuSans-33" x="190.869141"/>
       <use xlink:href="#DejaVuSans-2d" x="254.492188"/>
       <use xlink:href="#DejaVuSans-30" x="290.576172"/>
       <use xlink:href="#DejaVuSans-33" x="354.199219"/>
      </g>
     </g>
    </g>
    <g id="xtick_5">
     <g id="line2d_9">
      <path d="M 383.458598 567.74175 
L 383.458598 24.14175 
" clip-path="url(#pca087422d7)" style="fill: none; stroke: #ffffff; stroke-width: 0.8; stroke-linecap: square"/>
     </g>
     <g id="line2d_10">
      <g>
       <use xlink:href="#mcade5ccc85" x="383.458598" y="567.74175" style="fill: #555555; stroke: #555555; stroke-width: 0.8"/>
      </g>
     </g>
     <g id="text_5">
      <!-- 2023-04 -->
      <g style="fill: #555555" transform="translate(370.637315 609.659567)rotate(-45)scale(0.1 -0.1)">
       <defs>
        <path id="DejaVuSans-34" d="M 2419 4116 
L 825 1625 
L 2419 1625 
L 2419 4116 
z
M 2253 4666 
L 3047 4666 
L 3047 1625 
L 3713 1625 
L 3713 1100 
L 3047 1100 
L 3047 0 
L 2419 0 
L 2419 1100 
L 313 1100 
L 313 1709 
L 2253 4666 
z
" transform="scale(0.015625)"/>
       </defs>
       <use xlink:href="#DejaVuSans-32"/>
       <use xlink:href="#DejaVuSans-30" x="63.623047"/>
       <use xlink:href="#DejaVuSans-32" x="127.246094"/>
       <use xlink:href="#DejaVuSans-33" x="190.869141"/>
       <use xlink:href="#DejaVuSans-2d" x="254.492188"/>
       <use xlink:href="#DejaVuSans-30" x="290.576172"/>
       <use xlink:href="#DejaVuSans-34" x="354.199219"/>
      </g>
     </g>
    </g>
    <g id="xtick_6">
     <g id="line2d_11">
      <path d="M 459.327841 567.74175 
L 459.327841 24.14175 
" clip-path="url(#pca087422d7)" style="fill: none; stroke: #ffffff; stroke-width: 0.8; stroke-linecap: square"/>
     </g>
     <g id="line2d_12">
      <g>
       <use xlink:href="#mcade5ccc85" x="459.327841" y="567.74175" style="fill: #555555; stroke: #555555; stroke-width: 0.8"/>
      </g>
     </g>
     <g id="text_6">
      <!-- 2023-05 -->
      <g style="fill: #555555" transform="translate(446.506559 609.659567)rotate(-45)scale(0.1 -0.1)">
       <defs>
        <path id="DejaVuSans-35" d="M 691 4666 
L 3169 4666 
L 3169 4134 
L 1269 4134 
L 1269 2991 
Q 1406 3038 1543 3061 
Q 1681 3084 1819 3084 
Q 2600 3084 3056 2656 
Q 3513 2228 3513 1497 
Q 3513 744 3044 326 
Q 2575 -91 1722 -91 
Q 1428 -91 1123 -41 
Q 819 9 494 109 
L 494 744 
Q 775 591 1075 516 
Q 1375 441 1709 441 
Q 2250 441 2565 725 
Q 2881 1009 2881 1497 
Q 2881 1984 2565 2268 
Q 2250 2553 1709 2553 
Q 1456 2553 1204 2497 
Q 953 2441 691 2322 
L 691 4666 
z
" transform="scale(0.015625)"/>
       </defs>
       <use xlink:href="#DejaVuSans-32"/>
       <use xlink:href="#DejaVuSans-30" x="63.623047"/>
       <use xlink:href="#DejaVuSans-32" x="127.246094"/>
       <use xlink:href="#DejaVuSans-33" x="190.869141"/>
       <use xlink:href="#DejaVuSans-2d" x="254.492188"/>
       <use xlink:href="#DejaVuSans-30" x="290.576172"/>
       <use xlink:href="#DejaVuSans-35" x="354.199219"/>
      </g>
     </g>
    </g>
    <g id="xtick_7">
     <g id="line2d_13">
      <path d="M 537.72606 567.74175 
L 537.72606 24.14175 
" clip-path="url(#pca087422d7)" style="fill: none; stroke: #ffffff; stroke-width: 0.8; stroke-linecap: square"/>
     </g>
     <g id="line2d_14">
      <g>
       <use xlink:href="#mcade5ccc85" x="537.72606" y="567.74175" style="fill: #555555; stroke: #555555; stroke-width: 0.8"/>
      </g>
     </g>
     <g id="text_7">
      <!-- 2023-06 -->
      <g style="fill: #555555" transform="translate(524.904778 609.659567)rotate(-45)scale(0.1 -0.1)">
       <defs>
        <path id="DejaVuSans-36" d="M 2113 2584 
Q 1688 2584 1439 2293 
Q 1191 2003 1191 1497 
Q 1191 994 1439 701 
Q 1688 409 2113 409 
Q 2538 409 2786 701 
Q 3034 994 3034 1497 
Q 3034 2003 2786 2293 
Q 2538 2584 2113 2584 
z
M 3366 4563 
L 3366 3988 
Q 3128 4100 2886 4159 
Q 2644 4219 2406 4219 
Q 1781 4219 1451 3797 
Q 1122 3375 1075 2522 
Q 1259 2794 1537 2939 
Q 1816 3084 2150 3084 
Q 2853 3084 3261 2657 
Q 3669 2231 3669 1497 
Q 3669 778 3244 343 
Q 2819 -91 2113 -91 
Q 1303 -91 875 529 
Q 447 1150 447 2328 
Q 447 3434 972 4092 
Q 1497 4750 2381 4750 
Q 2619 4750 2861 4703 
Q 3103 4656 3366 4563 
z
" transform="scale(0.015625)"/>
       </defs>
       <use xlink:href="#DejaVuSans-32"/>
       <use xlink:href="#DejaVuSans-30" x="63.623047"/>
       <use xlink:href="#DejaVuSans-32" x="127.246094"/>
       <use xlink:href="#DejaVuSans-33" x="190.869141"/>
       <use xlink:href="#DejaVuSans-2d" x="254.492188"/>
       <use xlink:href="#DejaVuSans-30" x="290.576172"/>
       <use xlink:href="#DejaVuSans-36" x="354.199219"/>
      </g>
     </g>
    </g>
    <g id="xtick_8">
     <g id="line2d_15">
      <path d="M 613.595304 567.74175 
L 613.595304 24.14175 
" clip-path="url(#pca087422d7)" style="fill: none; stroke: #ffffff; stroke-width: 0.8; stroke-linecap: square"/>
     </g>
     <g id="line2d_16">
      <g>
       <use xlink:href="#mcade5ccc85" x="613.595304" y="567.74175" style="fill: #555555; stroke: #555555; stroke-width: 0.8"/>
      </g>
     </g>
     <g id="text_8">
      <!-- 2023-07 -->
      <g style="fill: #555555" transform="translate(600.774021 609.659567)rotate(-45)scale(0.1 -0.1)">
       <defs>
        <path id="DejaVuSans-37" d="M 525 4666 
L 3525 4666 
L 3525 4397 
L 1831 0 
L 1172 0 
L 2766 4134 
L 525 4134 
L 525 4666 
z
" transform="scale(0.015625)"/>
       </defs>
       <use xlink:href="#DejaVuSans-32"/>
       <use xlink:href="#DejaVuSans-30" x="63.623047"/>
       <use xlink:href="#DejaVuSans-32" x="127.246094"/>
       <use xlink:href="#DejaVuSans-33" x="190.869141"/>
       <use xlink:href="#DejaVuSans-2d" x="254.492188"/>
       <use xlink:href="#DejaVuSans-30" x="290.576172"/>
       <use xlink:href="#DejaVuSans-37" x="354.199219"/>
      </g>
     </g>
    </g>
    <g id="xtick_9">
     <g id="line2d_17">
      <path d="M 691.993522 567.74175 
L 691.993522 24.14175 
" clip-path="url(#pca087422d7)" style="fill: none; stroke: #ffffff; stroke-width: 0.8; stroke-linecap: square"/>
     </g>
     <g id="line2d_18">
      <g>
       <use xlink:href="#mcade5ccc85" x="691.993522" y="567.74175" style="fill: #555555; stroke: #555555; stroke-width: 0.8"/>
      </g>
     </g>
     <g id="text_9">
      <!-- 2023-08 -->
      <g style="fill: #555555" transform="translate(679.17224 609.659567)rotate(-45)scale(0.1 -0.1)">
       <defs>
        <path id="DejaVuSans-38" d="M 2034 2216 
Q 1584 2216 1326 1975 
Q 1069 1734 1069 1313 
Q 1069 891 1326 650 
Q 1584 409 2034 409 
Q 2484 409 2743 651 
Q 3003 894 3003 1313 
Q 3003 1734 2745 1975 
Q 2488 2216 2034 2216 
z
M 1403 2484 
Q 997 2584 770 2862 
Q 544 3141 544 3541 
Q 544 4100 942 4425 
Q 1341 4750 2034 4750 
Q 2731 4750 3128 4425 
Q 3525 4100 3525 3541 
Q 3525 3141 3298 2862 
Q 3072 2584 2669 2484 
Q 3125 2378 3379 2068 
Q 3634 1759 3634 1313 
Q 3634 634 3220 271 
Q 2806 -91 2034 -91 
Q 1263 -91 848 271 
Q 434 634 434 1313 
Q 434 1759 690 2068 
Q 947 2378 1403 2484 
z
M 1172 3481 
Q 1172 3119 1398 2916 
Q 1625 2713 2034 2713 
Q 2441 2713 2670 2916 
Q 2900 3119 2900 3481 
Q 2900 3844 2670 4047 
Q 2441 4250 2034 4250 
Q 1625 4250 1398 4047 
Q 1172 3844 1172 3481 
z
" transform="scale(0.015625)"/>
       </defs>
       <use xlink:href="#DejaVuSans-32"/>
       <use xlink:href="#DejaVuSans-30" x="63.623047"/>
       <use xlink:href="#DejaVuSans-32" x="127.246094"/>
       <use xlink:href="#DejaVuSans-33" x="190.869141"/>
       <use xlink:href="#DejaVuSans-2d" x="254.492188"/>
       <use xlink:href="#DejaVuSans-30" x="290.576172"/>
       <use xlink:href="#DejaVuSans-38" x="354.199219"/>
      </g>
     </g>
    </g>
    <g id="xtick_10">
     <g id="line2d_19">
      <path d="M 770.391741 567.74175 
L 770.391741 24.14175 
" clip-path="url(#pca087422d7)" style="fill: none; stroke: #ffffff; stroke-width: 0.8; stroke-linecap: square"/>
     </g>
     <g id="line2d_20">
      <g>
       <use xlink:href="#mcade5ccc85" x="770.391741" y="567.74175" style="fill: #555555; stroke: #555555; stroke-width: 0.8"/>
      </g>
     </g>
     <g id="text_10">
      <!-- 2023-09 -->
      <g style="fill: #555555" transform="translate(757.570458 609.659567)rotate(-45)scale(0.1 -0.1)">
       <defs>
        <path id="DejaVuSans-39" d="M 703 97 
L 703 672 
Q 941 559 1184 500 
Q 1428 441 1663 441 
Q 2288 441 2617 861 
Q 2947 1281 2994 2138 
Q 2813 1869 2534 1725 
Q 2256 1581 1919 1581 
Q 1219 1581 811 2004 
Q 403 2428 403 3163 
Q 403 3881 828 4315 
Q 1253 4750 1959 4750 
Q 2769 4750 3195 4129 
Q 3622 3509 3622 2328 
Q 3622 1225 3098 567 
Q 2575 -91 1691 -91 
Q 1453 -91 1209 -44 
Q 966 3 703 97 
z
M 1959 2075 
Q 2384 2075 2632 2365 
Q 2881 2656 2881 3163 
Q 2881 3666 2632 3958 
Q 2384 4250 1959 4250 
Q 1534 4250 1286 3958 
Q 1038 3666 1038 3163 
Q 1038 2656 1286 2365 
Q 1534 2075 1959 2075 
z
" transform="scale(0.015625)"/>
       </defs>
       <use xlink:href="#DejaVuSans-32"/>
       <use xlink:href="#DejaVuSans-30" x="63.623047"/>
       <use xlink:href="#DejaVuSans-32" x="127.246094"/>
       <use xlink:href="#DejaVuSans-33" x="190.869141"/>
       <use xlink:href="#DejaVuSans-2d" x="254.492188"/>
       <use xlink:href="#DejaVuSans-30" x="290.576172"/>
       <use xlink:href="#DejaVuSans-39" x="354.199219"/>
      </g>
     </g>
    </g>
    <g id="xtick_11">
     <g id="line2d_21">
      <path d="M 846.260984 567.74175 
L 846.260984 24.14175 
" clip-path="url(#pca087422d7)" style="fill: none; stroke: #ffffff; stroke-width: 0.8; stroke-linecap: square"/>
     </g>
     <g id="line2d_22">
      <g>
       <use xlink:href="#mcade5ccc85" x="846.260984" y="567.74175" style="fill: #555555; stroke: #555555; stroke-width: 0.8"/>
      </g>
     </g>
     <g id="text_11">
      <!-- 2023-10 -->
      <g style="fill: #555555" transform="translate(833.439702 609.659567)rotate(-45)scale(0.1 -0.1)">
       <use xlink:href="#DejaVuSans-32"/>
       <use xlink:href="#DejaVuSans-30" x="63.623047"/>
       <use xlink:href="#DejaVuSans-32" x="127.246094"/>
       <use xlink:href="#DejaVuSans-33" x="190.869141"/>
       <use xlink:href="#DejaVuSans-2d" x="254.492188"/>
       <use xlink:href="#DejaVuSans-31" x="290.576172"/>
       <use xlink:href="#DejaVuSans-30" x="354.199219"/>
      </g>
     </g>
    </g>
    <g id="xtick_12">
     <g id="line2d_23">
      <path d="M 924.659203 567.74175 
L 924.659203 24.14175 
" clip-path="url(#pca087422d7)" style="fill: none; stroke: #ffffff; stroke-width: 0.8; stroke-linecap: square"/>
     </g>
     <g id="line2d_24">
      <g>
       <use xlink:href="#mcade5ccc85" x="924.659203" y="567.74175" style="fill: #555555; stroke: #555555; stroke-width: 0.8"/>
      </g>
     </g>
     <g id="text_12">
      <!-- 2023-11 -->
      <g style="fill: #555555" transform="translate(911.83792 609.659567)rotate(-45)scale(0.1 -0.1)">
       <use xlink:href="#DejaVuSans-32"/>
       <use xlink:href="#DejaVuSans-30" x="63.623047"/>
       <use xlink:href="#DejaVuSans-32" x="127.246094"/>
       <use xlink:href="#DejaVuSans-33" x="190.869141"/>
       <use xlink:href="#DejaVuSans-2d" x="254.492188"/>
       <use xlink:href="#DejaVuSans-31" x="290.576172"/>
       <use xlink:href="#DejaVuSans-31" x="354.199219"/>
      </g>
     </g>
    </g>
    <g id="text_13">
     <!-- Date -->
     <g style="fill: #555555" transform="translate(491.772938 624.248253)scale(0.12 -0.12)">
      <defs>
       <path id="DejaVuSans-44" d="M 1259 4147 
L 1259 519 
L 2022 519 
Q 2988 519 3436 956 
Q 3884 1394 3884 2338 
Q 3884 3275 3436 3711 
Q 2988 4147 2022 4147 
L 1259 4147 
z
M 628 4666 
L 1925 4666 
Q 3281 4666 3915 4102 
Q 4550 3538 4550 2338 
Q 4550 1131 3912 565 
Q 3275 0 1925 0 
L 628 0 
L 628 4666 
z
" transform="scale(0.015625)"/>
       <path id="DejaVuSans-61" d="M 2194 1759 
Q 1497 1759 1228 1600 
Q 959 1441 959 1056 
Q 959 750 1161 570 
Q 1363 391 1709 391 
Q 2188 391 2477 730 
Q 2766 1069 2766 1631 
L 2766 1759 
L 2194 1759 
z
M 3341 1997 
L 3341 0 
L 2766 0 
L 2766 531 
Q 2569 213 2275 61 
Q 1981 -91 1556 -91 
Q 1019 -91 701 211 
Q 384 513 384 1019 
Q 384 1609 779 1909 
Q 1175 2209 1959 2209 
L 2766 2209 
L 2766 2266 
Q 2766 2663 2505 2880 
Q 2244 3097 1772 3097 
Q 1472 3097 1187 3025 
Q 903 2953 641 2809 
L 641 3341 
Q 956 3463 1253 3523 
Q 1550 3584 1831 3584 
Q 2591 3584 2966 3190 
Q 3341 2797 3341 1997 
z
" transform="scale(0.015625)"/>
       <path id="DejaVuSans-74" d="M 1172 4494 
L 1172 3500 
L 2356 3500 
L 2356 3053 
L 1172 3053 
L 1172 1153 
Q 1172 725 1289 603 
Q 1406 481 1766 481 
L 2356 481 
L 2356 0 
L 1766 0 
Q 1100 0 847 248 
Q 594 497 594 1153 
L 594 3053 
L 172 3053 
L 172 3500 
L 594 3500 
L 594 4494 
L 1172 4494 
z
" transform="scale(0.015625)"/>
       <path id="DejaVuSans-65" d="M 3597 1894 
L 3597 1613 
L 953 1613 
Q 991 1019 1311 708 
Q 1631 397 2203 397 
Q 2534 397 2845 478 
Q 3156 559 3463 722 
L 3463 178 
Q 3153 47 2828 -22 
Q 2503 -91 2169 -91 
Q 1331 -91 842 396 
Q 353 884 353 1716 
Q 353 2575 817 3079 
Q 1281 3584 2069 3584 
Q 2775 3584 3186 3129 
Q 3597 2675 3597 1894 
z
M 3022 2063 
Q 3016 2534 2758 2815 
Q 2500 3097 2075 3097 
Q 1594 3097 1305 2825 
Q 1016 2553 972 2059 
L 3022 2063 
z
" transform="scale(0.015625)"/>
      </defs>
      <use xlink:href="#DejaVuSans-44"/>
      <use xlink:href="#DejaVuSans-61" x="77.001953"/>
      <use xlink:href="#DejaVuSans-74" x="138.28125"/>
      <use xlink:href="#DejaVuSans-65" x="177.490234"/>
     </g>
    </g>
   </g>
   <g id="matplotlib.axis_2">
    <g id="ytick_1">
     <g id="line2d_25">
      <path d="M 54.691875 567.74175 
L 957.535875 567.74175 
" clip-path="url(#pca087422d7)" style="fill: none; stroke: #ffffff; stroke-width: 0.8; stroke-linecap: square"/>
     </g>
     <g id="line2d_26">
      <defs>
       <path id="m969c28f082" d="M 0 0 
L -3.5 0 
" style="stroke: #555555; stroke-width: 0.8"/>
      </defs>
      <g>
       <use xlink:href="#m969c28f082" x="54.691875" y="567.74175" style="fill: #555555; stroke: #555555; stroke-width: 0.8"/>
      </g>
     </g>
     <g id="text_14">
      <!-- 0k -->
      <g style="fill: #555555" transform="translate(35.53875 571.540969)scale(0.1 -0.1)">
       <defs>
        <path id="DejaVuSans-6b" d="M 581 4863 
L 1159 4863 
L 1159 1991 
L 2875 3500 
L 3609 3500 
L 1753 1863 
L 3688 0 
L 2938 0 
L 1159 1709 
L 1159 0 
L 581 0 
L 581 4863 
z
" transform="scale(0.015625)"/>
       </defs>
       <use xlink:href="#DejaVuSans-30"/>
       <use xlink:href="#DejaVuSans-6b" x="63.623047"/>
      </g>
     </g>
    </g>
    <g id="ytick_2">
     <g id="line2d_27">
      <path d="M 54.691875 469.119254 
L 957.535875 469.119254 
" clip-path="url(#pca087422d7)" style="fill: none; stroke: #ffffff; stroke-width: 0.8; stroke-linecap: square"/>
     </g>
     <g id="line2d_28">
      <g>
       <use xlink:href="#m969c28f082" x="54.691875" y="469.119254" style="fill: #555555; stroke: #555555; stroke-width: 0.8"/>
      </g>
     </g>
     <g id="text_15">
      <!-- 50k -->
      <g style="fill: #555555" transform="translate(29.17625 472.918472)scale(0.1 -0.1)">
       <use xlink:href="#DejaVuSans-35"/>
       <use xlink:href="#DejaVuSans-30" x="63.623047"/>
       <use xlink:href="#DejaVuSans-6b" x="127.246094"/>
      </g>
     </g>
    </g>
    <g id="ytick_3">
     <g id="line2d_29">
      <path d="M 54.691875 370.496757 
L 957.535875 370.496757 
" clip-path="url(#pca087422d7)" style="fill: none; stroke: #ffffff; stroke-width: 0.8; stroke-linecap: square"/>
     </g>
     <g id="line2d_30">
      <g>
       <use xlink:href="#m969c28f082" x="54.691875" y="370.496757" style="fill: #555555; stroke: #555555; stroke-width: 0.8"/>
      </g>
     </g>
     <g id="text_16">
      <!-- 100k -->
      <g style="fill: #555555" transform="translate(22.81375 374.295976)scale(0.1 -0.1)">
       <use xlink:href="#DejaVuSans-31"/>
       <use xlink:href="#DejaVuSans-30" x="63.623047"/>
       <use xlink:href="#DejaVuSans-30" x="127.246094"/>
       <use xlink:href="#DejaVuSans-6b" x="190.869141"/>
      </g>
     </g>
    </g>
    <g id="ytick_4">
     <g id="line2d_31">
      <path d="M 54.691875 271.874261 
L 957.535875 271.874261 
" clip-path="url(#pca087422d7)" style="fill: none; stroke: #ffffff; stroke-width: 0.8; stroke-linecap: square"/>
     </g>
     <g id="line2d_32">
      <g>
       <use xlink:href="#m969c28f082" x="54.691875" y="271.874261" style="fill: #555555; stroke: #555555; stroke-width: 0.8"/>
      </g>
     </g>
     <g id="text_17">
      <!-- 150k -->
      <g style="fill: #555555" transform="translate(22.81375 275.67348)scale(0.1 -0.1)">
       <use xlink:href="#DejaVuSans-31"/>
       <use xlink:href="#DejaVuSans-35" x="63.623047"/>
       <use xlink:href="#DejaVuSans-30" x="127.246094"/>
       <use xlink:href="#DejaVuSans-6b" x="190.869141"/>
      </g>
     </g>
    </g>
    <g id="ytick_5">
     <g id="line2d_33">
      <path d="M 54.691875 173.251765 
L 957.535875 173.251765 
" clip-path="url(#pca087422d7)" style="fill: none; stroke: #ffffff; stroke-width: 0.8; stroke-linecap: square"/>
     </g>
     <g id="line2d_34">
      <g>
       <use xlink:href="#m969c28f082" x="54.691875" y="173.251765" style="fill: #555555; stroke: #555555; stroke-width: 0.8"/>
      </g>
     </g>
     <g id="text_18">
      <!-- 200k -->
      <g style="fill: #555555" transform="translate(22.81375 177.050984)scale(0.1 -0.1)">
       <use xlink:href="#DejaVuSans-32"/>
       <use xlink:href="#DejaVuSans-30" x="63.623047"/>
       <use xlink:href="#DejaVuSans-30" x="127.246094"/>
       <use xlink:href="#DejaVuSans-6b" x="190.869141"/>
      </g>
     </g>
    </g>
    <g id="ytick_6">
     <g id="line2d_35">
      <path d="M 54.691875 74.629269 
L 957.535875 74.629269 
" clip-path="url(#pca087422d7)" style="fill: none; stroke: #ffffff; stroke-width: 0.8; stroke-linecap: square"/>
     </g>
     <g id="line2d_36">
      <g>
       <use xlink:href="#m969c28f082" x="54.691875" y="74.629269" style="fill: #555555; stroke: #555555; stroke-width: 0.8"/>
      </g>
     </g>
     <g id="text_19">
      <!-- 250k -->
      <g style="fill: #555555" transform="translate(22.81375 78.428487)scale(0.1 -0.1)">
       <use xlink:href="#DejaVuSans-32"/>
       <use xlink:href="#DejaVuSans-35" x="63.623047"/>
       <use xlink:href="#DejaVuSans-30" x="127.246094"/>
       <use xlink:href="#DejaVuSans-6b" x="190.869141"/>
      </g>
     </g>
    </g>
    <g id="text_20">
     <!-- Instances -->
     <g style="fill: #555555" transform="translate(16.318125 324.588)rotate(-90)scale(0.12 -0.12)">
      <defs>
       <path id="DejaVuSans-49" d="M 628 4666 
L 1259 4666 
L 1259 0 
L 628 0 
L 628 4666 
z
" transform="scale(0.015625)"/>
       <path id="DejaVuSans-6e" d="M 3513 2113 
L 3513 0 
L 2938 0 
L 2938 2094 
Q 2938 2591 2744 2837 
Q 2550 3084 2163 3084 
Q 1697 3084 1428 2787 
Q 1159 2491 1159 1978 
L 1159 0 
L 581 0 
L 581 3500 
L 1159 3500 
L 1159 2956 
Q 1366 3272 1645 3428 
Q 1925 3584 2291 3584 
Q 2894 3584 3203 3211 
Q 3513 2838 3513 2113 
z
" transform="scale(0.015625)"/>
       <path id="DejaVuSans-73" d="M 2834 3397 
L 2834 2853 
Q 2591 2978 2328 3040 
Q 2066 3103 1784 3103 
Q 1356 3103 1142 2972 
Q 928 2841 928 2578 
Q 928 2378 1081 2264 
Q 1234 2150 1697 2047 
L 1894 2003 
Q 2506 1872 2764 1633 
Q 3022 1394 3022 966 
Q 3022 478 2636 193 
Q 2250 -91 1575 -91 
Q 1294 -91 989 -36 
Q 684 19 347 128 
L 347 722 
Q 666 556 975 473 
Q 1284 391 1588 391 
Q 1994 391 2212 530 
Q 2431 669 2431 922 
Q 2431 1156 2273 1281 
Q 2116 1406 1581 1522 
L 1381 1569 
Q 847 1681 609 1914 
Q 372 2147 372 2553 
Q 372 3047 722 3315 
Q 1072 3584 1716 3584 
Q 2034 3584 2315 3537 
Q 2597 3491 2834 3397 
z
" transform="scale(0.015625)"/>
       <path id="DejaVuSans-63" d="M 3122 3366 
L 3122 2828 
Q 2878 2963 2633 3030 
Q 2388 3097 2138 3097 
Q 1578 3097 1268 2742 
Q 959 2388 959 1747 
Q 959 1106 1268 751 
Q 1578 397 2138 397 
Q 2388 397 2633 464 
Q 2878 531 3122 666 
L 3122 134 
Q 2881 22 2623 -34 
Q 2366 -91 2075 -91 
Q 1284 -91 818 406 
Q 353 903 353 1747 
Q 353 2603 823 3093 
Q 1294 3584 2113 3584 
Q 2378 3584 2631 3529 
Q 2884 3475 3122 3366 
z
" transform="scale(0.015625)"/>
      </defs>
      <use xlink:href="#DejaVuSans-49"/>
      <use xlink:href="#DejaVuSans-6e" x="29.492188"/>
      <use xlink:href="#DejaVuSans-73" x="92.871094"/>
      <use xlink:href="#DejaVuSans-74" x="144.970703"/>
      <use xlink:href="#DejaVuSans-61" x="184.179688"/>
      <use xlink:href="#DejaVuSans-6e" x="245.458984"/>
      <use xlink:href="#DejaVuSans-63" x="308.837891"/>
      <use xlink:href="#DejaVuSans-65" x="363.818359"/>
      <use xlink:href="#DejaVuSans-73" x="425.341797"/>
     </g>
    </g>
   </g>
   <g id="line2d_37">
    <path d="M 54.691875 533.565627 
L 63.811511 531.660933 
L 72.931148 529.756239 
L 82.050784 527.851545 
L 91.17042 525.946852 
L 100.290057 524.042158 
L 109.409693 522.137464 
L 118.52933 520.23277 
L 127.648966 518.328076 
L 136.768602 516.423383 
L 145.888239 514.518689 
L 155.007875 512.613995 
L 164.127511 510.709301 
L 173.247148 508.804608 
L 182.366784 506.899914 
L 191.48642 504.99522 
L 200.606057 503.090526 
L 209.725693 501.185832 
L 218.84533 499.281139 
L 227.964966 497.376445 
L 237.084602 495.471751 
L 246.204239 493.567057 
L 255.323875 491.662363 
L 264.443511 489.75767 
L 273.563148 487.852976 
L 282.682784 485.948282 
L 291.80242 484.043588 
L 300.922057 482.138894 
L 310.041693 480.234201 
L 319.16133 478.329507 
L 328.280966 476.424813 
L 337.400602 474.520119 
L 346.520239 472.615426 
L 355.639875 470.710732 
L 364.759511 468.806038 
L 373.879148 466.901344 
L 382.998784 464.99665 
L 392.11842 463.091957 
L 401.238057 461.187263 
L 410.357693 459.282569 
L 419.47733 457.377875 
L 428.596966 455.473181 
L 437.716602 453.568488 
L 446.836239 451.663794 
L 455.955875 449.7591 
L 465.075511 447.854406 
L 474.195148 445.949712 
L 483.314784 444.045019 
L 492.43442 442.140325 
L 501.554057 440.235631 
L 510.673693 438.330937 
L 519.79333 436.426244 
L 528.912966 434.52155 
L 538.032602 432.616856 
L 547.152239 430.712162 
L 556.271875 428.807468 
L 565.391511 426.902775 
L 574.511148 424.998081 
L 583.630784 423.093387 
L 592.75042 421.188693 
L 601.870057 419.283999 
L 610.989693 417.379306 
L 620.10933 415.474612 
L 629.228966 413.569918 
L 638.348602 411.665224 
L 647.468239 409.76053 
L 656.587875 407.855837 
L 665.707511 405.951143 
L 674.827148 404.046449 
L 683.946784 402.141755 
L 693.06642 400.237062 
L 702.186057 398.332368 
L 711.305693 396.427674 
L 720.42533 394.52298 
L 729.544966 392.618286 
L 738.664602 390.713593 
L 747.784239 388.808899 
L 756.903875 386.904205 
L 766.023511 384.999511 
L 775.143148 383.094817 
L 784.262784 381.190124 
L 793.38242 379.28543 
L 802.502057 377.380736 
L 811.621693 375.476042 
L 820.74133 373.571349 
L 829.860966 371.666655 
L 838.980602 369.761961 
L 848.100239 367.857267 
L 857.219875 365.952573 
L 866.339511 364.04788 
L 875.459148 362.143186 
L 884.578784 360.238492 
L 893.69842 358.333798 
L 902.818057 356.429104 
L 911.937693 354.524411 
L 921.05733 352.619717 
L 930.176966 350.715023 
L 939.296602 348.810329 
L 948.416239 346.905635 
L 957.535875 345.000942 
" clip-path="url(#pca087422d7)" style="fill: none; stroke-dasharray: 1.5,2.475; stroke-dashoffset: 0; stroke: #4ac1fa; stroke-width: 1.5"/>
   </g>
   <g id="line2d_38">
    <path d="M 54.691875 352.844706 
L 63.811511 354.257481 
L 72.931148 355.670256 
L 82.050784 357.08303 
L 91.17042 358.495805 
L 100.290057 359.908579 
L 109.409693 361.321354 
L 118.52933 362.734128 
L 127.648966 364.146903 
L 136.768602 365.559677 
L 145.888239 366.972452 
L 155.007875 368.385226 
L 164.127511 369.798001 
L 173.247148 371.210775 
L 182.366784 372.62355 
L 191.48642 374.036324 
L 200.606057 375.449099 
L 209.725693 376.861874 
L 218.84533 378.274648 
L 227.964966 379.687423 
L 237.084602 381.100197 
L 246.204239 382.512972 
L 255.323875 383.925746 
L 264.443511 385.338521 
L 273.563148 386.751295 
L 282.682784 388.16407 
L 291.80242 389.576844 
L 300.922057 390.989619 
L 310.041693 392.402393 
L 319.16133 393.815168 
L 328.280966 395.227942 
L 337.400602 396.640717 
L 346.520239 398.053492 
L 355.639875 399.466266 
L 364.759511 400.879041 
L 373.879148 402.291815 
L 382.998784 403.70459 
L 392.11842 405.117364 
L 401.238057 406.530139 
L 410.357693 407.942913 
L 419.47733 409.355688 
L 428.596966 410.768462 
L 437.716602 412.181237 
L 446.836239 413.594011 
L 455.955875 415.006786 
L 465.075511 416.41956 
L 474.195148 417.832335 
L 483.314784 419.24511 
L 492.43442 420.657884 
L 501.554057 422.070659 
L 510.673693 423.483433 
L 519.79333 424.896208 
L 528.912966 426.308982 
L 538.032602 427.721757 
L 547.152239 429.134531 
L 556.271875 430.547306 
L 565.391511 431.96008 
L 574.511148 433.372855 
L 583.630784 434.785629 
L 592.75042 436.198404 
L 601.870057 437.611178 
L 610.989693 439.023953 
L 620.10933 440.436728 
L 629.228966 441.849502 
L 638.348602 443.262277 
L 647.468239 444.675051 
L 656.587875 446.087826 
L 665.707511 447.5006 
L 674.827148 448.913375 
L 683.946784 450.326149 
L 693.06642 451.738924 
L 702.186057 453.151698 
L 711.305693 454.564473 
L 720.42533 455.977247 
L 729.544966 457.390022 
L 738.664602 458.802797 
L 747.784239 460.215571 
L 756.903875 461.628346 
L 766.023511 463.04112 
L 775.143148 464.453895 
L 784.262784 465.866669 
L 793.38242 467.279444 
L 802.502057 468.692218 
L 811.621693 470.104993 
L 820.74133 471.517767 
L 829.860966 472.930542 
L 838.980602 474.343316 
L 848.100239 475.756091 
L 857.219875 477.168865 
L 866.339511 478.58164 
L 875.459148 479.994415 
L 884.578784 481.407189 
L 893.69842 482.819964 
L 902.818057 484.232738 
L 911.937693 485.645513 
L 921.05733 487.058287 
L 930.176966 488.471062 
L 939.296602 489.883836 
L 948.416239 491.296611 
L 957.535875 492.709385 
" clip-path="url(#pca087422d7)" style="fill: none; stroke-dasharray: 1.5,2.475; stroke-dashoffset: 0; stroke: #e9a942; stroke-width: 1.5"/>
   </g>
   <g id="line2d_39">
    <path d="M 54.691875 462.016781 
L 63.811511 461.715428 
L 72.931148 461.414076 
L 82.050784 461.112724 
L 91.17042 460.811371 
L 100.290057 460.510019 
L 109.409693 460.208667 
L 118.52933 459.907314 
L 127.648966 459.605962 
L 136.768602 459.30461 
L 145.888239 459.003257 
L 155.007875 458.701905 
L 164.127511 458.400553 
L 173.247148 458.0992 
L 182.366784 457.797848 
L 191.48642 457.496496 
L 200.606057 457.195143 
L 209.725693 456.893791 
L 218.84533 456.592439 
L 227.964966 456.291087 
L 237.084602 455.989734 
L 246.204239 455.688382 
L 255.323875 455.38703 
L 264.443511 455.085677 
L 273.563148 454.784325 
L 282.682784 454.482973 
L 291.80242 454.18162 
L 300.922057 453.880268 
L 310.041693 453.578916 
L 319.16133 453.277563 
L 328.280966 452.976211 
L 337.400602 452.674859 
L 346.520239 452.373506 
L 355.639875 452.072154 
L 364.759511 451.770802 
L 373.879148 451.469449 
L 382.998784 451.168097 
L 392.11842 450.866745 
L 401.238057 450.565392 
L 410.357693 450.26404 
L 419.47733 449.962688 
L 428.596966 449.661335 
L 437.716602 449.359983 
L 446.836239 449.058631 
L 455.955875 448.757278 
L 465.075511 448.455926 
L 474.195148 448.154574 
L 483.314784 447.853221 
L 492.43442 447.551869 
L 501.554057 447.250517 
L 510.673693 446.949164 
L 519.79333 446.647812 
L 528.912966 446.34646 
L 538.032602 446.045107 
L 547.152239 445.743755 
L 556.271875 445.442403 
L 565.391511 445.141051 
L 574.511148 444.839698 
L 583.630784 444.538346 
L 592.75042 444.236994 
L 601.870057 443.935641 
L 610.989693 443.634289 
L 620.10933 443.332937 
L 629.228966 443.031584 
L 638.348602 442.730232 
L 647.468239 442.42888 
L 656.587875 442.127527 
L 665.707511 441.826175 
L 674.827148 441.524823 
L 683.946784 441.22347 
L 693.06642 440.922118 
L 702.186057 440.620766 
L 711.305693 440.319413 
L 720.42533 440.018061 
L 729.544966 439.716709 
L 738.664602 439.415356 
L 747.784239 439.114004 
L 756.903875 438.812652 
L 766.023511 438.511299 
L 775.143148 438.209947 
L 784.262784 437.908595 
L 793.38242 437.607242 
L 802.502057 437.30589 
L 811.621693 437.004538 
L 820.74133 436.703185 
L 829.860966 436.401833 
L 838.980602 436.100481 
L 848.100239 435.799128 
L 857.219875 435.497776 
L 866.339511 435.196424 
L 875.459148 434.895071 
L 884.578784 434.593719 
L 893.69842 434.292367 
L 902.818057 433.991015 
L 911.937693 433.689662 
L 921.05733 433.38831 
L 930.176966 433.086958 
L 939.296602 432.785605 
L 948.416239 432.484253 
L 957.535875 432.182901 
" clip-path="url(#pca087422d7)" style="fill: none; stroke-dasharray: 1.5,2.475; stroke-dashoffset: 0; stroke: #9a5689; stroke-width: 1.5"/>
   </g>
   <g id="line2d_40">
    <path d="M 54.691875 531.22496 
L 63.811511 530.66694 
L 72.931148 530.10892 
L 82.050784 529.5509 
L 91.17042 528.99288 
L 100.290057 528.43486 
L 109.409693 527.876841 
L 118.52933 527.318821 
L 127.648966 526.760801 
L 136.768602 526.202781 
L 145.888239 525.644761 
L 155.007875 525.086741 
L 164.127511 524.528721 
L 173.247148 523.970701 
L 182.366784 523.412681 
L 191.48642 522.854661 
L 200.606057 522.296641 
L 209.725693 521.738621 
L 218.84533 521.180601 
L 227.964966 520.622581 
L 237.084602 520.064561 
L 246.204239 519.506541 
L 255.323875 518.948521 
L 264.443511 518.390501 
L 273.563148 517.832481 
L 282.682784 517.274461 
L 291.80242 516.716441 
L 300.922057 516.158421 
L 310.041693 515.600401 
L 319.16133 515.042381 
L 328.280966 514.484361 
L 337.400602 513.926341 
L 346.520239 513.368322 
L 355.639875 512.810302 
L 364.759511 512.252282 
L 373.879148 511.694262 
L 382.998784 511.136242 
L 392.11842 510.578222 
L 401.238057 510.020202 
L 410.357693 509.462182 
L 419.47733 508.904162 
L 428.596966 508.346142 
L 437.716602 507.788122 
L 446.836239 507.230102 
L 455.955875 506.672082 
L 465.075511 506.114062 
L 474.195148 505.556042 
L 483.314784 504.998022 
L 492.43442 504.440002 
L 501.554057 503.881982 
L 510.673693 503.323962 
L 519.79333 502.765942 
L 528.912966 502.207922 
L 538.032602 501.649902 
L 547.152239 501.091882 
L 556.271875 500.533862 
L 565.391511 499.975842 
L 574.511148 499.417823 
L 583.630784 498.859803 
L 592.75042 498.301783 
L 601.870057 497.743763 
L 610.989693 497.185743 
L 620.10933 496.627723 
L 629.228966 496.069703 
L 638.348602 495.511683 
L 647.468239 494.953663 
L 656.587875 494.395643 
L 665.707511 493.837623 
L 674.827148 493.279603 
L 683.946784 492.721583 
L 693.06642 492.163563 
L 702.186057 491.605543 
L 711.305693 491.047523 
L 720.42533 490.489503 
L 729.544966 489.931483 
L 738.664602 489.373463 
L 747.784239 488.815443 
L 756.903875 488.257423 
L 766.023511 487.699403 
L 775.143148 487.141383 
L 784.262784 486.583363 
L 793.38242 486.025343 
L 802.502057 485.467323 
L 811.621693 484.909304 
L 820.74133 484.351284 
L 829.860966 483.793264 
L 838.980602 483.235244 
L 848.100239 482.677224 
L 857.219875 482.119204 
L 866.339511 481.561184 
L 875.459148 481.003164 
L 884.578784 480.445144 
L 893.69842 479.887124 
L 902.818057 479.329104 
L 911.937693 478.771084 
L 921.05733 478.213064 
L 930.176966 477.655044 
L 939.296602 477.097024 
L 948.416239 476.539004 
L 957.535875 475.980984 
" clip-path="url(#pca087422d7)" style="fill: none; stroke-dasharray: 1.5,2.475; stroke-dashoffset: 0; stroke: #be503b; stroke-width: 1.5"/>
   </g>
   <g id="line2d_41">
    <path d="M 54.691875 455.674991 
L 63.811511 454.541008 
L 72.931148 453.407025 
L 82.050784 452.273043 
L 91.17042 451.13906 
L 100.290057 450.005077 
L 109.409693 448.871094 
L 118.52933 447.737112 
L 127.648966 446.603129 
L 136.768602 445.469146 
L 145.888239 444.335163 
L 155.007875 443.201181 
L 164.127511 442.067198 
L 173.247148 440.933215 
L 182.366784 439.799233 
L 191.48642 438.66525 
L 200.606057 437.531267 
L 209.725693 436.397284 
L 218.84533 435.263302 
L 227.964966 434.129319 
L 237.084602 432.995336 
L 246.204239 431.861353 
L 255.323875 430.727371 
L 264.443511 429.593388 
L 273.563148 428.459405 
L 282.682784 427.325422 
L 291.80242 426.19144 
L 300.922057 425.057457 
L 310.041693 423.923474 
L 319.16133 422.789492 
L 328.280966 421.655509 
L 337.400602 420.521526 
L 346.520239 419.387543 
L 355.639875 418.253561 
L 364.759511 417.119578 
L 373.879148 415.985595 
L 382.998784 414.851612 
L 392.11842 413.71763 
L 401.238057 412.583647 
L 410.357693 411.449664 
L 419.47733 410.315681 
L 428.596966 409.181699 
L 437.716602 408.047716 
L 446.836239 406.913733 
L 455.955875 405.779751 
L 465.075511 404.645768 
L 474.195148 403.511785 
L 483.314784 402.377802 
L 492.43442 401.24382 
L 501.554057 400.109837 
L 510.673693 398.975854 
L 519.79333 397.841871 
L 528.912966 396.707889 
L 538.032602 395.573906 
L 547.152239 394.439923 
L 556.271875 393.305941 
L 565.391511 392.171958 
L 574.511148 391.037975 
L 583.630784 389.903992 
L 592.75042 388.77001 
L 601.870057 387.636027 
L 610.989693 386.502044 
L 620.10933 385.368061 
L 629.228966 384.234079 
L 638.348602 383.100096 
L 647.468239 381.966113 
L 656.587875 380.83213 
L 665.707511 379.698148 
L 674.827148 378.564165 
L 683.946784 377.430182 
L 693.06642 376.2962 
L 702.186057 375.162217 
L 711.305693 374.028234 
L 720.42533 372.894251 
L 729.544966 371.760269 
L 738.664602 370.626286 
L 747.784239 369.492303 
L 756.903875 368.35832 
L 766.023511 367.224338 
L 775.143148 366.090355 
L 784.262784 364.956372 
L 793.38242 363.822389 
L 802.502057 362.688407 
L 811.621693 361.554424 
L 820.74133 360.420441 
L 829.860966 359.286459 
L 838.980602 358.152476 
L 848.100239 357.018493 
L 857.219875 355.88451 
L 866.339511 354.750528 
L 875.459148 353.616545 
L 884.578784 352.482562 
L 893.69842 351.348579 
L 902.818057 350.214597 
L 911.937693 349.080614 
L 921.05733 347.946631 
L 930.176966 346.812649 
L 939.296602 345.678666 
L 948.416239 344.544683 
L 957.535875 343.4107 
" clip-path="url(#pca087422d7)" style="fill: none; stroke-dasharray: 1.5,2.475; stroke-dashoffset: 0; stroke: #e2321d; stroke-width: 1.5"/>
   </g>
   <g id="line2d_42">
    <path d="M 54.691875 390.931599 
L 63.811511 389.154073 
L 72.931148 387.376548 
L 82.050784 385.599022 
L 91.17042 383.821496 
L 100.290057 382.04397 
L 109.409693 380.266445 
L 118.52933 378.488919 
L 127.648966 376.711393 
L 136.768602 374.933867 
L 145.888239 373.156342 
L 155.007875 371.378816 
L 164.127511 369.60129 
L 173.247148 367.823765 
L 182.366784 366.046239 
L 191.48642 364.268713 
L 200.606057 362.491187 
L 209.725693 360.713662 
L 218.84533 358.936136 
L 227.964966 357.15861 
L 237.084602 355.381084 
L 246.204239 353.603559 
L 255.323875 351.826033 
L 264.443511 350.048507 
L 273.563148 348.270981 
L 282.682784 346.493456 
L 291.80242 344.71593 
L 300.922057 342.938404 
L 310.041693 341.160879 
L 319.16133 339.383353 
L 328.280966 337.605827 
L 337.400602 335.828301 
L 346.520239 334.050776 
L 355.639875 332.27325 
L 364.759511 330.495724 
L 373.879148 328.718198 
L 382.998784 326.940673 
L 392.11842 325.163147 
L 401.238057 323.385621 
L 410.357693 321.608095 
L 419.47733 319.83057 
L 428.596966 318.053044 
L 437.716602 316.275518 
L 446.836239 314.497993 
L 455.955875 312.720467 
L 465.075511 310.942941 
L 474.195148 309.165415 
L 483.314784 307.38789 
L 492.43442 305.610364 
L 501.554057 303.832838 
L 510.673693 302.055312 
L 519.79333 300.277787 
L 528.912966 298.500261 
L 538.032602 296.722735 
L 547.152239 294.945209 
L 556.271875 293.167684 
L 565.391511 291.390158 
L 574.511148 289.612632 
L 583.630784 287.835107 
L 592.75042 286.057581 
L 601.870057 284.280055 
L 610.989693 282.502529 
L 620.10933 280.725004 
L 629.228966 278.947478 
L 638.348602 277.169952 
L 647.468239 275.392426 
L 656.587875 273.614901 
L 665.707511 271.837375 
L 674.827148 270.059849 
L 683.946784 268.282323 
L 693.06642 266.504798 
L 702.186057 264.727272 
L 711.305693 262.949746 
L 720.42533 261.17222 
L 729.544966 259.394695 
L 738.664602 257.617169 
L 747.784239 255.839643 
L 756.903875 254.062118 
L 766.023511 252.284592 
L 775.143148 250.507066 
L 784.262784 248.72954 
L 793.38242 246.952015 
L 802.502057 245.174489 
L 811.621693 243.396963 
L 820.74133 241.619437 
L 829.860966 239.841912 
L 838.980602 238.064386 
L 848.100239 236.28686 
L 857.219875 234.509334 
L 866.339511 232.731809 
L 875.459148 230.954283 
L 884.578784 229.176757 
L 893.69842 227.399232 
L 902.818057 225.621706 
L 911.937693 223.84418 
L 921.05733 222.066654 
L 930.176966 220.289129 
L 939.296602 218.511603 
L 948.416239 216.734077 
L 957.535875 214.956551 
" clip-path="url(#pca087422d7)" style="fill: none; stroke-dasharray: 1.5,2.475; stroke-dashoffset: 0; stroke: #48b585; stroke-width: 1.5"/>
   </g>
   <g id="line2d_43">
    <path d="M 54.691875 496.558005 
L 72.394699 500.518684 
L 90.097522 514.980687 
L 107.800346 514.217349 
L 125.503169 500.761295 
L 143.205993 502.422098 
L 160.908816 498.638939 
L 178.61164 498.135965 
L 196.314463 497.457442 
L 214.017287 499.759291 
L 231.72011 494.694039 
L 249.422934 490.192909 
L 267.125757 494.376475 
L 284.828581 484.672021 
L 302.531404 491.362572 
L 320.234228 489.583422 
L 337.937051 490.364512 
L 355.639875 497.14185 
L 373.342699 488.45518 
L 391.045522 481.439176 
L 444.153993 486.839744 
L 461.856816 440.71992 
L 479.55964 404.373585 
L 497.262463 444.26244 
L 514.965287 426.565619 
L 532.66811 446.968641 
L 550.370934 423.86139 
L 568.073757 436.110304 
L 585.776581 431.1634 
L 603.479404 435.388388 
L 621.182228 426.545895 
L 638.885051 430.926706 
L 656.587875 432.480996 
L 674.290699 434.644774 
L 691.993522 407.70308 
L 709.696346 430.216624 
L 727.399169 415.119492 
L 745.101993 429.656448 
L 762.804816 422.147331 
L 780.50764 416.614609 
L 798.210463 422.00137 
L 815.913287 411.06019 
L 833.61611 257.562165 
L 886.724581 330.217358 
L 904.427404 330.601985 
L 922.130228 297.543725 
L 939.833051 324.692525 
L 957.535875 274.797432 
" clip-path="url(#pca087422d7)" style="fill: none; stroke: #4ac1fa; stroke-width: 1.5; stroke-linecap: square"/>
   </g>
   <g id="line2d_44">
    <path d="M 54.691875 288.549353 
L 72.394699 297.269554 
L 90.097522 281.249316 
L 107.800346 409.632136 
L 125.503169 388.408575 
L 143.205993 396.988732 
L 160.908816 394.458079 
L 178.61164 383.901527 
L 196.314463 415.08596 
L 214.017287 412.713103 
L 231.72011 401.446469 
L 249.422934 415.675723 
L 267.125757 420.979641 
L 284.828581 443.773272 
L 302.531404 434.297623 
L 320.234228 452.010223 
L 337.937051 450.021994 
L 355.639875 464.383401 
L 373.342699 446.459749 
L 391.045522 425.814116 
L 444.153993 305.449304 
L 461.856816 292.59682 
L 479.55964 265.400681 
L 497.262463 292.833514 
L 514.965287 290.3502 
L 532.66811 354.800001 
L 550.370934 288.882697 
L 568.073757 395.886133 
L 585.776581 487.956151 
L 603.479404 489.875344 
L 621.182228 489.299389 
L 638.885051 485.69375 
L 656.587875 497.463359 
L 674.290699 488.480822 
L 691.993522 484.969861 
L 709.696346 491.674219 
L 727.399169 495.636871 
L 745.101993 491.076566 
L 762.804816 488.319081 
L 780.50764 487.307214 
L 798.210463 479.78429 
L 815.913287 480.472676 
L 833.61611 479.504203 
L 886.724581 467.744456 
L 904.427404 469.1804 
L 922.130228 487.317077 
L 939.833051 478.40752 
L 957.535875 481.543716 
" clip-path="url(#pca087422d7)" style="fill: none; stroke: #e9a942; stroke-width: 1.5; stroke-linecap: square"/>
   </g>
   <g id="line2d_45">
    <path d="M 54.691875 463.965242 
L 72.394699 446.288146 
L 90.097522 479.592963 
L 107.800346 468.503849 
L 125.503169 456.783552 
L 143.205993 428.496648 
L 160.908816 451.525 
L 178.61164 443.796942 
L 196.314463 457.779639 
L 214.017287 456.471905 
L 231.72011 454.388998 
L 249.422934 450.799139 
L 267.125757 466.775983 
L 284.828581 448.848386 
L 302.531404 431.954352 
L 320.234228 453.945196 
L 337.937051 464.771974 
L 355.639875 477.032723 
L 373.342699 441.5089 
L 391.045522 418.589032 
L 444.153993 458.726415 
L 461.856816 443.721988 
L 479.55964 427.843767 
L 497.262463 419.902683 
L 514.965287 463.186124 
L 532.66811 474.651976 
L 550.370934 467.249371 
L 568.073757 475.807831 
L 585.776581 466.130992 
L 603.479404 465.237472 
L 621.182228 466.843047 
L 638.885051 417.299049 
L 656.587875 449.217234 
L 674.290699 463.937628 
L 691.993522 449.814886 
L 709.696346 453.325847 
L 727.399169 451.769584 
L 745.101993 447.351296 
L 762.804816 436.080717 
L 780.50764 442.532601 
L 798.210463 438.63504 
L 815.913287 428.303347 
L 833.61611 433.806483 
L 886.724581 406.223743 
L 904.427404 378.927008 
L 922.130228 417.904591 
L 939.833051 438.199129 
L 957.535875 433.893271 
" clip-path="url(#pca087422d7)" style="fill: none; stroke: #9a5689; stroke-width: 1.5; stroke-linecap: square"/>
   </g>
   <g id="line2d_46">
    <path d="M 54.691875 516.245027 
L 72.394699 533.971435 
L 90.097522 523.33204 
L 107.800346 520.919734 
L 125.503169 517.795373 
L 143.205993 512.629527 
L 160.908816 513.09897 
L 178.61164 500.741571 
L 196.314463 521.466102 
L 214.017287 503.538505 
L 231.72011 525.641779 
L 249.422934 522.393154 
L 267.125757 530.559096 
L 284.828581 527.278912 
L 302.531404 526.947541 
L 320.234228 520.126809 
L 337.937051 522.927688 
L 355.639875 528.383484 
L 373.342699 509.106731 
L 391.045522 506.668783 
L 444.153993 511.219225 
L 461.856816 517.110933 
L 479.55964 516.032003 
L 497.262463 503.601623 
L 514.965287 510.436162 
L 532.66811 519.156363 
L 550.370934 500.443731 
L 568.073757 502.777139 
L 585.776581 497.492946 
L 603.479404 490.364512 
L 621.182228 498.932834 
L 638.885051 494.191065 
L 656.587875 524.097351 
L 674.290699 499.38058 
L 691.993522 497.070842 
L 709.696346 506.812772 
L 727.399169 492.078571 
L 745.101993 498.043259 
L 762.804816 499.070906 
L 780.50764 474.56716 
L 798.210463 494.035241 
L 815.913287 490.32309 
L 833.61611 485.877188 
L 886.724581 457.817116 
L 904.427404 443.299884 
L 922.130228 472.565124 
L 939.833051 459.351682 
L 957.535875 465.51756 
" clip-path="url(#pca087422d7)" style="fill: none; stroke: #be503b; stroke-width: 1.5; stroke-linecap: square"/>
   </g>
   <g id="line2d_47">
    <path d="M 54.691875 440.037452 
L 72.394699 449.9786 
L 90.097522 485.076374 
L 107.800346 471.663714 
L 125.503169 454.335742 
L 143.205993 436.508739 
L 160.908816 428.727424 
L 178.61164 425.437378 
L 196.314463 421.987563 
L 214.017287 418.407566 
L 231.72011 418.018994 
L 249.422934 416.535711 
L 267.125757 427.922665 
L 284.828581 421.441194 
L 302.531404 418.044635 
L 320.234228 416.488372 
L 337.937051 422.614802 
L 355.639875 436.035351 
L 373.342699 413.091814 
L 391.045522 412.947825 
L 444.153993 427.110015 
L 461.856816 402.103295 
L 479.55964 413.352177 
L 497.262463 408.58871 
L 514.965287 406.511721 
L 532.66811 424.496519 
L 550.370934 384.818716 
L 568.073757 414.182578 
L 585.776581 393.124703 
L 603.479404 379.437873 
L 621.182228 386.002186 
L 638.885051 383.217087 
L 656.587875 395.193803 
L 674.290699 395.087291 
L 691.993522 359.987544 
L 709.696346 358.192615 
L 727.399169 368.591371 
L 745.101993 380.842257 
L 762.804816 373.181262 
L 780.50764 369.71764 
L 798.210463 376.836212 
L 815.913287 371.031291 
L 833.61611 358.587105 
L 886.724581 347.598586 
L 904.427404 311.339039 
L 922.130228 354.425235 
L 939.833051 339.237371 
L 957.535875 325.998287 
" clip-path="url(#pca087422d7)" style="fill: none; stroke: #e2321d; stroke-width: 1.5; stroke-linecap: square"/>
   </g>
   <g id="line2d_48">
    <path d="M 54.691875 301.433396 
L 72.394699 306.496675 
L 90.097522 315.863839 
L 107.800346 342.594481 
L 125.503169 323.747722 
L 143.205993 347.866839 
L 160.908816 371.118079 
L 178.61164 395.854574 
L 196.314463 354.377897 
L 214.017287 358.310962 
L 231.72011 371.36858 
L 249.422934 353.154978 
L 267.125757 397.132721 
L 284.828581 346.616306 
L 302.531404 301.013264 
L 320.234228 355.592926 
L 337.937051 365.650448 
L 355.639875 378.248486 
L 373.342699 321.487294 
L 391.045522 365.017292 
L 444.153993 350.734782 
L 461.856816 370.983953 
L 479.55964 337.432579 
L 497.262463 314.751378 
L 514.965287 322.824615 
L 532.66811 358.192615 
L 550.370934 349.430992 
L 568.073757 389.094988 
L 585.776581 338.063763 
L 603.479404 308.640728 
L 621.182228 297.940187 
L 638.885051 284.241522 
L 656.587875 306.942448 
L 674.290699 286.819514 
L 691.993522 301.849583 
L 709.696346 312.20889 
L 727.399169 246.966164 
L 745.101993 245.753107 
L 762.804816 189.303562 
L 780.50764 227.312672 
L 798.210463 255.992094 
L 815.913287 287.381663 
L 833.61611 247.041117 
L 886.724581 128.4594 
L 904.427404 120.005479 
L 922.130228 48.419354 
L 939.833051 178.589214 
L 957.535875 266.507225 
" clip-path="url(#pca087422d7)" style="fill: none; stroke: #48b585; stroke-width: 6; stroke-linecap: square"/>
   </g>
   <g id="patch_3">
    <path d="M 54.691875 567.74175 
L 54.691875 24.14175 
" style="fill: none; stroke: #ffffff; stroke-linejoin: miter; stroke-linecap: square"/>
   </g>
   <g id="patch_4">
    <path d="M 957.535875 567.74175 
L 957.535875 24.14175 
" style="fill: none; stroke: #ffffff; stroke-linejoin: miter; stroke-linecap: square"/>
   </g>
   <g id="patch_5">
    <path d="M 54.691875 567.74175 
L 957.535875 567.74175 
" style="fill: none; stroke: #ffffff; stroke-linejoin: miter; stroke-linecap: square"/>
   </g>
   <g id="patch_6">
    <path d="M 54.691875 24.14175 
L 957.535875 24.14175 
" style="fill: none; stroke: #ffffff; stroke-linejoin: miter; stroke-linecap: square"/>
   </g>
   <g id="text_21">
    <!-- Potentially Ephemeral Enterprise Linux 8 and 9 Instances by Distribution -->
    <g transform="translate(54.691875 18.14175)scale(0.144 -0.144)">
     <defs>
      <path id="DejaVuSans-50" d="M 1259 4147 
L 1259 2394 
L 2053 2394 
Q 2494 2394 2734 2622 
Q 2975 2850 2975 3272 
Q 2975 3691 2734 3919 
Q 2494 4147 2053 4147 
L 1259 4147 
z
M 628 4666 
L 2053 4666 
Q 2838 4666 3239 4311 
Q 3641 3956 3641 3272 
Q 3641 2581 3239 2228 
Q 2838 1875 2053 1875 
L 1259 1875 
L 1259 0 
L 628 0 
L 628 4666 
z
" transform="scale(0.015625)"/>
      <path id="DejaVuSans-6f" d="M 1959 3097 
Q 1497 3097 1228 2736 
Q 959 2375 959 1747 
Q 959 1119 1226 758 
Q 1494 397 1959 397 
Q 2419 397 2687 759 
Q 2956 1122 2956 1747 
Q 2956 2369 2687 2733 
Q 2419 3097 1959 3097 
z
M 1959 3584 
Q 2709 3584 3137 3096 
Q 3566 2609 3566 1747 
Q 3566 888 3137 398 
Q 2709 -91 1959 -91 
Q 1206 -91 779 398 
Q 353 888 353 1747 
Q 353 2609 779 3096 
Q 1206 3584 1959 3584 
z
" transform="scale(0.015625)"/>
      <path id="DejaVuSans-69" d="M 603 3500 
L 1178 3500 
L 1178 0 
L 603 0 
L 603 3500 
z
M 603 4863 
L 1178 4863 
L 1178 4134 
L 603 4134 
L 603 4863 
z
" transform="scale(0.015625)"/>
      <path id="DejaVuSans-6c" d="M 603 4863 
L 1178 4863 
L 1178 0 
L 603 0 
L 603 4863 
z
" transform="scale(0.015625)"/>
      <path id="DejaVuSans-79" d="M 2059 -325 
Q 1816 -950 1584 -1140 
Q 1353 -1331 966 -1331 
L 506 -1331 
L 506 -850 
L 844 -850 
Q 1081 -850 1212 -737 
Q 1344 -625 1503 -206 
L 1606 56 
L 191 3500 
L 800 3500 
L 1894 763 
L 2988 3500 
L 3597 3500 
L 2059 -325 
z
" transform="scale(0.015625)"/>
      <path id="DejaVuSans-20" transform="scale(0.015625)"/>
      <path id="DejaVuSans-45" d="M 628 4666 
L 3578 4666 
L 3578 4134 
L 1259 4134 
L 1259 2753 
L 3481 2753 
L 3481 2222 
L 1259 2222 
L 1259 531 
L 3634 531 
L 3634 0 
L 628 0 
L 628 4666 
z
" transform="scale(0.015625)"/>
      <path id="DejaVuSans-70" d="M 1159 525 
L 1159 -1331 
L 581 -1331 
L 581 3500 
L 1159 3500 
L 1159 2969 
Q 1341 3281 1617 3432 
Q 1894 3584 2278 3584 
Q 2916 3584 3314 3078 
Q 3713 2572 3713 1747 
Q 3713 922 3314 415 
Q 2916 -91 2278 -91 
Q 1894 -91 1617 61 
Q 1341 213 1159 525 
z
M 3116 1747 
Q 3116 2381 2855 2742 
Q 2594 3103 2138 3103 
Q 1681 3103 1420 2742 
Q 1159 2381 1159 1747 
Q 1159 1113 1420 752 
Q 1681 391 2138 391 
Q 2594 391 2855 752 
Q 3116 1113 3116 1747 
z
" transform="scale(0.015625)"/>
      <path id="DejaVuSans-68" d="M 3513 2113 
L 3513 0 
L 2938 0 
L 2938 2094 
Q 2938 2591 2744 2837 
Q 2550 3084 2163 3084 
Q 1697 3084 1428 2787 
Q 1159 2491 1159 1978 
L 1159 0 
L 581 0 
L 581 4863 
L 1159 4863 
L 1159 2956 
Q 1366 3272 1645 3428 
Q 1925 3584 2291 3584 
Q 2894 3584 3203 3211 
Q 3513 2838 3513 2113 
z
" transform="scale(0.015625)"/>
      <path id="DejaVuSans-6d" d="M 3328 2828 
Q 3544 3216 3844 3400 
Q 4144 3584 4550 3584 
Q 5097 3584 5394 3201 
Q 5691 2819 5691 2113 
L 5691 0 
L 5113 0 
L 5113 2094 
Q 5113 2597 4934 2840 
Q 4756 3084 4391 3084 
Q 3944 3084 3684 2787 
Q 3425 2491 3425 1978 
L 3425 0 
L 2847 0 
L 2847 2094 
Q 2847 2600 2669 2842 
Q 2491 3084 2119 3084 
Q 1678 3084 1418 2786 
Q 1159 2488 1159 1978 
L 1159 0 
L 581 0 
L 581 3500 
L 1159 3500 
L 1159 2956 
Q 1356 3278 1631 3431 
Q 1906 3584 2284 3584 
Q 2666 3584 2933 3390 
Q 3200 3197 3328 2828 
z
" transform="scale(0.015625)"/>
      <path id="DejaVuSans-72" d="M 2631 2963 
Q 2534 3019 2420 3045 
Q 2306 3072 2169 3072 
Q 1681 3072 1420 2755 
Q 1159 2438 1159 1844 
L 1159 0 
L 581 0 
L 581 3500 
L 1159 3500 
L 1159 2956 
Q 1341 3275 1631 3429 
Q 1922 3584 2338 3584 
Q 2397 3584 2469 3576 
Q 2541 3569 2628 3553 
L 2631 2963 
z
" transform="scale(0.015625)"/>
      <path id="DejaVuSans-4c" d="M 628 4666 
L 1259 4666 
L 1259 531 
L 3531 531 
L 3531 0 
L 628 0 
L 628 4666 
z
" transform="scale(0.015625)"/>
      <path id="DejaVuSans-75" d="M 544 1381 
L 544 3500 
L 1119 3500 
L 1119 1403 
Q 1119 906 1312 657 
Q 1506 409 1894 409 
Q 2359 409 2629 706 
Q 2900 1003 2900 1516 
L 2900 3500 
L 3475 3500 
L 3475 0 
L 2900 0 
L 2900 538 
Q 2691 219 2414 64 
Q 2138 -91 1772 -91 
Q 1169 -91 856 284 
Q 544 659 544 1381 
z
M 1991 3584 
L 1991 3584 
z
" transform="scale(0.015625)"/>
      <path id="DejaVuSans-78" d="M 3513 3500 
L 2247 1797 
L 3578 0 
L 2900 0 
L 1881 1375 
L 863 0 
L 184 0 
L 1544 1831 
L 300 3500 
L 978 3500 
L 1906 2253 
L 2834 3500 
L 3513 3500 
z
" transform="scale(0.015625)"/>
      <path id="DejaVuSans-64" d="M 2906 2969 
L 2906 4863 
L 3481 4863 
L 3481 0 
L 2906 0 
L 2906 525 
Q 2725 213 2448 61 
Q 2172 -91 1784 -91 
Q 1150 -91 751 415 
Q 353 922 353 1747 
Q 353 2572 751 3078 
Q 1150 3584 1784 3584 
Q 2172 3584 2448 3432 
Q 2725 3281 2906 2969 
z
M 947 1747 
Q 947 1113 1208 752 
Q 1469 391 1925 391 
Q 2381 391 2643 752 
Q 2906 1113 2906 1747 
Q 2906 2381 2643 2742 
Q 2381 3103 1925 3103 
Q 1469 3103 1208 2742 
Q 947 2381 947 1747 
z
" transform="scale(0.015625)"/>
      <path id="DejaVuSans-62" d="M 3116 1747 
Q 3116 2381 2855 2742 
Q 2594 3103 2138 3103 
Q 1681 3103 1420 2742 
Q 1159 2381 1159 1747 
Q 1159 1113 1420 752 
Q 1681 391 2138 391 
Q 2594 391 2855 752 
Q 3116 1113 3116 1747 
z
M 1159 2969 
Q 1341 3281 1617 3432 
Q 1894 3584 2278 3584 
Q 2916 3584 3314 3078 
Q 3713 2572 3713 1747 
Q 3713 922 3314 415 
Q 2916 -91 2278 -91 
Q 1894 -91 1617 61 
Q 1341 213 1159 525 
L 1159 0 
L 581 0 
L 581 4863 
L 1159 4863 
L 1159 2969 
z
" transform="scale(0.015625)"/>
     </defs>
     <use xlink:href="#DejaVuSans-50"/>
     <use xlink:href="#DejaVuSans-6f" x="56.677734"/>
     <use xlink:href="#DejaVuSans-74" x="117.859375"/>
     <use xlink:href="#DejaVuSans-65" x="157.068359"/>
     <use xlink:href="#DejaVuSans-6e" x="218.591797"/>
     <use xlink:href="#DejaVuSans-74" x="281.970703"/>
     <use xlink:href="#DejaVuSans-69" x="321.179688"/>
     <use xlink:href="#DejaVuSans-61" x="348.962891"/>
     <use xlink:href="#DejaVuSans-6c" x="410.242188"/>
     <use xlink:href="#DejaVuSans-6c" x="438.025391"/>
     <use xlink:href="#DejaVuSans-79" x="465.808594"/>
     <use xlink:href="#DejaVuSans-20" x="524.988281"/>
     <use xlink:href="#DejaVuSans-45" x="556.775391"/>
     <use xlink:href="#DejaVuSans-70" x="619.958984"/>
     <use xlink:href="#DejaVuSans-68" x="683.435547"/>
     <use xlink:href="#DejaVuSans-65" x="746.814453"/>
     <use xlink:href="#DejaVuSans-6d" x="808.337891"/>
     <use xlink:href="#DejaVuSans-65" x="905.75"/>
     <use xlink:href="#DejaVuSans-72" x="967.273438"/>
     <use xlink:href="#DejaVuSans-61" x="1008.386719"/>
     <use xlink:href="#DejaVuSans-6c" x="1069.666016"/>
     <use xlink:href="#DejaVuSans-20" x="1097.449219"/>
     <use xlink:href="#DejaVuSans-45" x="1129.236328"/>
     <use xlink:href="#DejaVuSans-6e" x="1192.419922"/>
     <use xlink:href="#DejaVuSans-74" x="1255.798828"/>
     <use xlink:href="#DejaVuSans-65" x="1295.007812"/>
     <use xlink:href="#DejaVuSans-72" x="1356.53125"/>
     <use xlink:href="#DejaVuSans-70" x="1397.644531"/>
     <use xlink:href="#DejaVuSans-72" x="1461.121094"/>
     <use xlink:href="#DejaVuSans-69" x="1502.234375"/>
     <use xlink:href="#DejaVuSans-73" x="1530.017578"/>
     <use xlink:href="#DejaVuSans-65" x="1582.117188"/>
     <use xlink:href="#DejaVuSans-20" x="1643.640625"/>
     <use xlink:href="#DejaVuSans-4c" x="1675.427734"/>
     <use xlink:href="#DejaVuSans-69" x="1731.140625"/>
     <use xlink:href="#DejaVuSans-6e" x="1758.923828"/>
     <use xlink:href="#DejaVuSans-75" x="1822.302734"/>
     <use xlink:href="#DejaVuSans-78" x="1885.681641"/>
     <use xlink:href="#DejaVuSans-20" x="1944.861328"/>
     <use xlink:href="#DejaVuSans-38" x="1976.648438"/>
     <use xlink:href="#DejaVuSans-20" x="2040.271484"/>
     <use xlink:href="#DejaVuSans-61" x="2072.058594"/>
     <use xlink:href="#DejaVuSans-6e" x="2133.337891"/>
     <use xlink:href="#DejaVuSans-64" x="2196.716797"/>
     <use xlink:href="#DejaVuSans-20" x="2260.193359"/>
     <use xlink:href="#DejaVuSans-39" x="2291.980469"/>
     <use xlink:href="#DejaVuSans-20" x="2355.603516"/>
     <use xlink:href="#DejaVuSans-49" x="2387.390625"/>
     <use xlink:href="#DejaVuSans-6e" x="2416.882812"/>
     <use xlink:href="#DejaVuSans-73" x="2480.261719"/>
     <use xlink:href="#DejaVuSans-74" x="2532.361328"/>
     <use xlink:href="#DejaVuSans-61" x="2571.570312"/>
     <use xlink:href="#DejaVuSans-6e" x="2632.849609"/>
     <use xlink:href="#DejaVuSans-63" x="2696.228516"/>
     <use xlink:href="#DejaVuSans-65" x="2751.208984"/>
     <use xlink:href="#DejaVuSans-73" x="2812.732422"/>
     <use xlink:href="#DejaVuSans-20" x="2864.832031"/>
     <use xlink:href="#DejaVuSans-62" x="2896.619141"/>
     <use xlink:href="#DejaVuSans-79" x="2960.095703"/>
     <use xlink:href="#DejaVuSans-20" x="3019.275391"/>
     <use xlink:href="#DejaVuSans-44" x="3051.0625"/>
     <use xlink:href="#DejaVuSans-69" x="3128.064453"/>
     <use xlink:href="#DejaVuSans-73" x="3155.847656"/>
     <use xlink:href="#DejaVuSans-74" x="3207.947266"/>
     <use xlink:href="#DejaVuSans-72" x="3247.15625"/>
     <use xlink:href="#DejaVuSans-69" x="3288.269531"/>
     <use xlink:href="#DejaVuSans-62" x="3316.052734"/>
     <use xlink:href="#DejaVuSans-75" x="3379.529297"/>
     <use xlink:href="#DejaVuSans-74" x="3442.908203"/>
     <use xlink:href="#DejaVuSans-69" x="3482.117188"/>
     <use xlink:href="#DejaVuSans-6f" x="3509.900391"/>
     <use xlink:href="#DejaVuSans-6e" x="3571.082031"/>
    </g>
   </g>
   <g id="text_22">
    <!-- 2023-12-14 11:55 UTC -->
    <g transform="translate(794.653875 18.14175)scale(0.144 -0.144)">
     <defs>
      <path id="DejaVuSans-3a" d="M 750 794 
L 1409 794 
L 1409 0 
L 750 0 
L 750 794 
z
M 750 3309 
L 1409 3309 
L 1409 2516 
L 750 2516 
L 750 3309 
z
" transform="scale(0.015625)"/>
      <path id="DejaVuSans-55" d="M 556 4666 
L 1191 4666 
L 1191 1831 
Q 1191 1081 1462 751 
Q 1734 422 2344 422 
Q 2950 422 3222 751 
Q 3494 1081 3494 1831 
L 3494 4666 
L 4128 4666 
L 4128 1753 
Q 4128 841 3676 375 
Q 3225 -91 2344 -91 
Q 1459 -91 1007 375 
Q 556 841 556 1753 
L 556 4666 
z
" transform="scale(0.015625)"/>
      <path id="DejaVuSans-54" d="M -19 4666 
L 3928 4666 
L 3928 4134 
L 2272 4134 
L 2272 0 
L 1638 0 
L 1638 4134 
L -19 4134 
L -19 4666 
z
" transform="scale(0.015625)"/>
      <path id="DejaVuSans-43" d="M 4122 4306 
L 4122 3641 
Q 3803 3938 3442 4084 
Q 3081 4231 2675 4231 
Q 1875 4231 1450 3742 
Q 1025 3253 1025 2328 
Q 1025 1406 1450 917 
Q 1875 428 2675 428 
Q 3081 428 3442 575 
Q 3803 722 4122 1019 
L 4122 359 
Q 3791 134 3420 21 
Q 3050 -91 2638 -91 
Q 1578 -91 968 557 
Q 359 1206 359 2328 
Q 359 3453 968 4101 
Q 1578 4750 2638 4750 
Q 3056 4750 3426 4639 
Q 3797 4528 4122 4306 
z
" transform="scale(0.015625)"/>
     </defs>
     <use xlink:href="#DejaVuSans-32"/>
     <use xlink:href="#DejaVuSans-30" x="63.623047"/>
     <use xlink:href="#DejaVuSans-32" x="127.246094"/>
     <use xlink:href="#DejaVuSans-33" x="190.869141"/>
     <use xlink:href="#DejaVuSans-2d" x="254.492188"/>
     <use xlink:href="#DejaVuSans-31" x="290.576172"/>
     <use xlink:href="#DejaVuSans-32" x="354.199219"/>
     <use xlink:href="#DejaVuSans-2d" x="417.822266"/>
     <use xlink:href="#DejaVuSans-31" x="453.90625"/>
     <use xlink:href="#DejaVuSans-34" x="517.529297"/>
     <use xlink:href="#DejaVuSans-20" x="581.152344"/>
     <use xlink:href="#DejaVuSans-31" x="612.939453"/>
     <use xlink:href="#DejaVuSans-31" x="676.5625"/>
     <use xlink:href="#DejaVuSans-3a" x="740.185547"/>
     <use xlink:href="#DejaVuSans-35" x="773.876953"/>
     <use xlink:href="#DejaVuSans-35" x="837.5"/>
     <use xlink:href="#DejaVuSans-20" x="901.123047"/>
     <use xlink:href="#DejaVuSans-55" x="932.910156"/>
     <use xlink:href="#DejaVuSans-54" x="1006.103516"/>
     <use xlink:href="#DejaVuSans-43" x="1061.3125"/>
    </g>
   </g>
   <g id="legend_1">
    <g id="patch_7">
     <path d="M 61.691875 134.888625 
L 170.660625 134.888625 
Q 172.660625 134.888625 172.660625 132.888625 
L 172.660625 31.14175 
Q 172.660625 29.14175 170.660625 29.14175 
L 61.691875 29.14175 
Q 59.691875 29.14175 59.691875 31.14175 
L 59.691875 132.888625 
Q 59.691875 134.888625 61.691875 134.888625 
z
" style="fill: #e5e5e5; opacity: 0.8; stroke: #cccccc; stroke-width: 0.5; stroke-linejoin: miter"/>
    </g>
    <g id="text_23">
     <!-- Distribution -->
     <g transform="translate(87.0075 40.740187)scale(0.1 -0.1)">
      <use xlink:href="#DejaVuSans-44"/>
      <use xlink:href="#DejaVuSans-69" x="77.001953"/>
      <use xlink:href="#DejaVuSans-73" x="104.785156"/>
      <use xlink:href="#DejaVuSans-74" x="156.884766"/>
      <use xlink:href="#DejaVuSans-72" x="196.09375"/>
      <use xlink:href="#DejaVuSans-69" x="237.207031"/>
      <use xlink:href="#DejaVuSans-62" x="264.990234"/>
      <use xlink:href="#DejaVuSans-75" x="328.466797"/>
      <use xlink:href="#DejaVuSans-74" x="391.845703"/>
      <use xlink:href="#DejaVuSans-69" x="431.054688"/>
      <use xlink:href="#DejaVuSans-6f" x="458.837891"/>
      <use xlink:href="#DejaVuSans-6e" x="520.019531"/>
     </g>
    </g>
    <g id="line2d_49">
     <path d="M 63.691875 51.918312 
L 73.691875 51.918312 
L 83.691875 51.918312 
" style="fill: none; stroke: #4ac1fa; stroke-width: 1.5; stroke-linecap: square"/>
    </g>
    <g id="text_24">
     <!-- AlmaLinux -->
     <g transform="translate(91.691875 55.418312)scale(0.1 -0.1)">
      <defs>
       <path id="DejaVuSans-41" d="M 2188 4044 
L 1331 1722 
L 3047 1722 
L 2188 4044 
z
M 1831 4666 
L 2547 4666 
L 4325 0 
L 3669 0 
L 3244 1197 
L 1141 1197 
L 716 0 
L 50 0 
L 1831 4666 
z
" transform="scale(0.015625)"/>
      </defs>
      <use xlink:href="#DejaVuSans-41"/>
      <use xlink:href="#DejaVuSans-6c" x="68.408203"/>
      <use xlink:href="#DejaVuSans-6d" x="96.191406"/>
      <use xlink:href="#DejaVuSans-61" x="193.603516"/>
      <use xlink:href="#DejaVuSans-4c" x="254.882812"/>
      <use xlink:href="#DejaVuSans-69" x="310.595703"/>
      <use xlink:href="#DejaVuSans-6e" x="338.378906"/>
      <use xlink:href="#DejaVuSans-75" x="401.757812"/>
      <use xlink:href="#DejaVuSans-78" x="465.136719"/>
     </g>
    </g>
    <g id="line2d_50">
     <path d="M 63.691875 66.596437 
L 73.691875 66.596437 
L 83.691875 66.596437 
" style="fill: none; stroke: #e9a942; stroke-width: 1.5; stroke-linecap: square"/>
    </g>
    <g id="text_25">
     <!-- CentOS Legacy -->
     <g transform="translate(91.691875 70.096437)scale(0.1 -0.1)">
      <defs>
       <path id="DejaVuSans-4f" d="M 2522 4238 
Q 1834 4238 1429 3725 
Q 1025 3213 1025 2328 
Q 1025 1447 1429 934 
Q 1834 422 2522 422 
Q 3209 422 3611 934 
Q 4013 1447 4013 2328 
Q 4013 3213 3611 3725 
Q 3209 4238 2522 4238 
z
M 2522 4750 
Q 3503 4750 4090 4092 
Q 4678 3434 4678 2328 
Q 4678 1225 4090 567 
Q 3503 -91 2522 -91 
Q 1538 -91 948 565 
Q 359 1222 359 2328 
Q 359 3434 948 4092 
Q 1538 4750 2522 4750 
z
" transform="scale(0.015625)"/>
       <path id="DejaVuSans-53" d="M 3425 4513 
L 3425 3897 
Q 3066 4069 2747 4153 
Q 2428 4238 2131 4238 
Q 1616 4238 1336 4038 
Q 1056 3838 1056 3469 
Q 1056 3159 1242 3001 
Q 1428 2844 1947 2747 
L 2328 2669 
Q 3034 2534 3370 2195 
Q 3706 1856 3706 1288 
Q 3706 609 3251 259 
Q 2797 -91 1919 -91 
Q 1588 -91 1214 -16 
Q 841 59 441 206 
L 441 856 
Q 825 641 1194 531 
Q 1563 422 1919 422 
Q 2459 422 2753 634 
Q 3047 847 3047 1241 
Q 3047 1584 2836 1778 
Q 2625 1972 2144 2069 
L 1759 2144 
Q 1053 2284 737 2584 
Q 422 2884 422 3419 
Q 422 4038 858 4394 
Q 1294 4750 2059 4750 
Q 2388 4750 2728 4690 
Q 3069 4631 3425 4513 
z
" transform="scale(0.015625)"/>
       <path id="DejaVuSans-67" d="M 2906 1791 
Q 2906 2416 2648 2759 
Q 2391 3103 1925 3103 
Q 1463 3103 1205 2759 
Q 947 2416 947 1791 
Q 947 1169 1205 825 
Q 1463 481 1925 481 
Q 2391 481 2648 825 
Q 2906 1169 2906 1791 
z
M 3481 434 
Q 3481 -459 3084 -895 
Q 2688 -1331 1869 -1331 
Q 1566 -1331 1297 -1286 
Q 1028 -1241 775 -1147 
L 775 -588 
Q 1028 -725 1275 -790 
Q 1522 -856 1778 -856 
Q 2344 -856 2625 -561 
Q 2906 -266 2906 331 
L 2906 616 
Q 2728 306 2450 153 
Q 2172 0 1784 0 
Q 1141 0 747 490 
Q 353 981 353 1791 
Q 353 2603 747 3093 
Q 1141 3584 1784 3584 
Q 2172 3584 2450 3431 
Q 2728 3278 2906 2969 
L 2906 3500 
L 3481 3500 
L 3481 434 
z
" transform="scale(0.015625)"/>
      </defs>
      <use xlink:href="#DejaVuSans-43"/>
      <use xlink:href="#DejaVuSans-65" x="69.824219"/>
      <use xlink:href="#DejaVuSans-6e" x="131.347656"/>
      <use xlink:href="#DejaVuSans-74" x="194.726562"/>
      <use xlink:href="#DejaVuSans-4f" x="233.935547"/>
      <use xlink:href="#DejaVuSans-53" x="312.646484"/>
      <use xlink:href="#DejaVuSans-20" x="376.123047"/>
      <use xlink:href="#DejaVuSans-4c" x="407.910156"/>
      <use xlink:href="#DejaVuSans-65" x="461.873047"/>
      <use xlink:href="#DejaVuSans-67" x="523.396484"/>
      <use xlink:href="#DejaVuSans-61" x="586.873047"/>
      <use xlink:href="#DejaVuSans-63" x="648.152344"/>
      <use xlink:href="#DejaVuSans-79" x="703.132812"/>
     </g>
    </g>
    <g id="line2d_51">
     <path d="M 63.691875 81.274563 
L 73.691875 81.274563 
L 83.691875 81.274563 
" style="fill: none; stroke: #9a5689; stroke-width: 1.5; stroke-linecap: square"/>
    </g>
    <g id="text_26">
     <!-- CentOS Stream -->
     <g transform="translate(91.691875 84.774563)scale(0.1 -0.1)">
      <use xlink:href="#DejaVuSans-43"/>
      <use xlink:href="#DejaVuSans-65" x="69.824219"/>
      <use xlink:href="#DejaVuSans-6e" x="131.347656"/>
      <use xlink:href="#DejaVuSans-74" x="194.726562"/>
      <use xlink:href="#DejaVuSans-4f" x="233.935547"/>
      <use xlink:href="#DejaVuSans-53" x="312.646484"/>
      <use xlink:href="#DejaVuSans-20" x="376.123047"/>
      <use xlink:href="#DejaVuSans-53" x="407.910156"/>
      <use xlink:href="#DejaVuSans-74" x="471.386719"/>
      <use xlink:href="#DejaVuSans-72" x="510.595703"/>
      <use xlink:href="#DejaVuSans-65" x="549.458984"/>
      <use xlink:href="#DejaVuSans-61" x="610.982422"/>
      <use xlink:href="#DejaVuSans-6d" x="672.261719"/>
     </g>
    </g>
    <g id="line2d_52">
     <path d="M 63.691875 95.952687 
L 73.691875 95.952687 
L 83.691875 95.952687 
" style="fill: none; stroke: #be503b; stroke-width: 1.5; stroke-linecap: square"/>
    </g>
    <g id="text_27">
     <!-- Oracle -->
     <g transform="translate(91.691875 99.452687)scale(0.1 -0.1)">
      <use xlink:href="#DejaVuSans-4f"/>
      <use xlink:href="#DejaVuSans-72" x="78.710938"/>
      <use xlink:href="#DejaVuSans-61" x="119.824219"/>
      <use xlink:href="#DejaVuSans-63" x="181.103516"/>
      <use xlink:href="#DejaVuSans-6c" x="236.083984"/>
      <use xlink:href="#DejaVuSans-65" x="263.867188"/>
     </g>
    </g>
    <g id="line2d_53">
     <path d="M 63.691875 110.630812 
L 73.691875 110.630812 
L 83.691875 110.630812 
" style="fill: none; stroke: #e2321d; stroke-width: 1.5; stroke-linecap: square"/>
    </g>
    <g id="text_28">
     <!-- RHEL -->
     <g transform="translate(91.691875 114.130812)scale(0.1 -0.1)">
      <defs>
       <path id="DejaVuSans-52" d="M 2841 2188 
Q 3044 2119 3236 1894 
Q 3428 1669 3622 1275 
L 4263 0 
L 3584 0 
L 2988 1197 
Q 2756 1666 2539 1819 
Q 2322 1972 1947 1972 
L 1259 1972 
L 1259 0 
L 628 0 
L 628 4666 
L 2053 4666 
Q 2853 4666 3247 4331 
Q 3641 3997 3641 3322 
Q 3641 2881 3436 2590 
Q 3231 2300 2841 2188 
z
M 1259 4147 
L 1259 2491 
L 2053 2491 
Q 2509 2491 2742 2702 
Q 2975 2913 2975 3322 
Q 2975 3731 2742 3939 
Q 2509 4147 2053 4147 
L 1259 4147 
z
" transform="scale(0.015625)"/>
       <path id="DejaVuSans-48" d="M 628 4666 
L 1259 4666 
L 1259 2753 
L 3553 2753 
L 3553 4666 
L 4184 4666 
L 4184 0 
L 3553 0 
L 3553 2222 
L 1259 2222 
L 1259 0 
L 628 0 
L 628 4666 
z
" transform="scale(0.015625)"/>
      </defs>
      <use xlink:href="#DejaVuSans-52"/>
      <use xlink:href="#DejaVuSans-48" x="69.482422"/>
      <use xlink:href="#DejaVuSans-45" x="144.677734"/>
      <use xlink:href="#DejaVuSans-4c" x="207.861328"/>
     </g>
    </g>
    <g id="line2d_54">
     <path d="M 63.691875 125.308937 
L 73.691875 125.308937 
L 83.691875 125.308937 
" style="fill: none; stroke: #48b585; stroke-width: 6; stroke-linecap: square"/>
    </g>
    <g id="text_29">
     <!-- Rocky Linux -->
     <g transform="translate(91.691875 128.808937)scale(0.1 -0.1)">
      <use xlink:href="#DejaVuSans-52"/>
      <use xlink:href="#DejaVuSans-6f" x="64.982422"/>
      <use xlink:href="#DejaVuSans-63" x="126.164062"/>
      <use xlink:href="#DejaVuSans-6b" x="181.144531"/>
      <use xlink:href="#DejaVuSans-79" x="235.429688"/>
      <use xlink:href="#DejaVuSans-20" x="294.609375"/>
      <use xlink:href="#DejaVuSans-4c" x="326.396484"/>
      <use xlink:href="#DejaVuSans-69" x="382.109375"/>
      <use xlink:href="#DejaVuSans-6e" x="409.892578"/>
      <use xlink:href="#DejaVuSans-75" x="473.271484"/>
      <use xlink:href="#DejaVuSans-78" x="536.650391"/>
     </g>
    </g>
   </g>
  </g>
 </g>
 <defs>
  <clipPath id="pca087422d7">
   <rect x="54.691875" y="24.14175" width="902.844" height="543.6"/>
  </clipPath>
 </defs>
</svg>
