<?xml version="1.0" encoding="utf-8" standalone="no"?>
<!DOCTYPE svg PUBLIC "-//W3C//DTD SVG 1.1//EN"
  "http://www.w3.org/Graphics/SVG/1.1/DTD/svg11.dtd">
<svg xmlns:xlink="http://www.w3.org/1999/xlink" width="974.2765pt" height="644.743878pt" viewBox="0 0 974.2765 644.743878" xmlns="http://www.w3.org/2000/svg" version="1.1">
 <metadata>
  <rdf:RDF xmlns:dc="http://purl.org/dc/elements/1.1/" xmlns:cc="http://creativecommons.org/ns#" xmlns:rdf="http://www.w3.org/1999/02/22-rdf-syntax-ns#">
   <cc:Work>
    <dc:type rdf:resource="http://purl.org/dc/dcmitype/StillImage"/>
    <dc:date>2025-08-29T09:13:26.344072</dc:date>
    <dc:format>image/svg+xml</dc:format>
    <dc:creator>
     <cc:Agent>
      <dc:title>Matplotlib v3.6.3, https://matplotlib.org/</dc:title>
     </cc:Agent>
    </dc:creator>
   </cc:Work>
  </rdf:RDF>
 </metadata>
 <defs>
  <style type="text/css">*{stroke-linejoin: round; stroke-linecap: butt}</style>
 </defs>
 <g id="figure_1">
  <g id="patch_1">
   <path d="M 0 644.743878 
L 974.2765 644.743878 
L 974.2765 0 
L 0 0 
z
" style="fill: #ffffff"/>
  </g>
  <g id="axes_1">
   <g id="patch_2">
    <path d="M 64.2325 578.54175 
L 967.0765 578.54175 
L 967.0765 24.14175 
L 64.2325 24.14175 
z
" style="fill: #e5e5e5"/>
   </g>
   <g id="matplotlib.axis_1">
    <g id="xtick_1">
     <g id="line2d_1">
      <path d="M 71.048395 578.54175 
L 71.048395 24.14175 
" clip-path="url(#p46bf9cb311)" style="fill: none; stroke: #ffffff; stroke-width: 0.8; stroke-linecap: square"/>
     </g>
     <g id="line2d_2">
      <defs>
       <path id="m8d5b52ec3f" d="M 0 0 
L 0 3.5 
" style="stroke: #555555; stroke-width: 0.8"/>
      </defs>
      <g>
       <use xlink:href="#m8d5b52ec3f" x="71.048395" y="578.54175" style="fill: #555555; stroke: #555555; stroke-width: 0.8"/>
      </g>
     </g>
     <g id="text_1">
      <!-- 2020-12 -->
      <g style="fill: #555555" transform="translate(58.227113 620.459567) rotate(-45) scale(0.1 -0.1)">
       <defs>
        <path id="DejaVuSans-32" d="M 1228 531 
L 3431 531 
L 3431 0 
L 469 0 
L 469 531 
Q 828 903 1448 1529 
Q 2069 2156 2228 2338 
Q 2531 2678 2651 2914 
Q 2772 3150 2772 3378 
Q 2772 3750 2511 3984 
Q 2250 4219 1831 4219 
Q 1534 4219 1204 4116 
Q 875 4013 500 3803 
L 500 4441 
Q 881 4594 1212 4672 
Q 1544 4750 1819 4750 
Q 2544 4750 2975 4387 
Q 3406 4025 3406 3419 
Q 3406 3131 3298 2873 
Q 3191 2616 2906 2266 
Q 2828 2175 2409 1742 
Q 1991 1309 1228 531 
z
" transform="scale(0.015625)"/>
        <path id="DejaVuSans-30" d="M 2034 4250 
Q 1547 4250 1301 3770 
Q 1056 3291 1056 2328 
Q 1056 1369 1301 889 
Q 1547 409 2034 409 
Q 2525 409 2770 889 
Q 3016 1369 3016 2328 
Q 3016 3291 2770 3770 
Q 2525 4250 2034 4250 
z
M 2034 4750 
Q 2819 4750 3233 4129 
Q 3647 3509 3647 2328 
Q 3647 1150 3233 529 
Q 2819 -91 2034 -91 
Q 1250 -91 836 529 
Q 422 1150 422 2328 
Q 422 3509 836 4129 
Q 1250 4750 2034 4750 
z
" transform="scale(0.015625)"/>
        <path id="DejaVuSans-2d" d="M 313 2009 
L 1997 2009 
L 1997 1497 
L 313 1497 
L 313 2009 
z
" transform="scale(0.015625)"/>
        <path id="DejaVuSans-31" d="M 794 531 
L 1825 531 
L 1825 4091 
L 703 3866 
L 703 4441 
L 1819 4666 
L 2450 4666 
L 2450 531 
L 3481 531 
L 3481 0 
L 794 0 
L 794 531 
z
" transform="scale(0.015625)"/>
       </defs>
       <use xlink:href="#DejaVuSans-32"/>
       <use xlink:href="#DejaVuSans-30" x="63.623047"/>
       <use xlink:href="#DejaVuSans-32" x="127.246094"/>
       <use xlink:href="#DejaVuSans-30" x="190.869141"/>
       <use xlink:href="#DejaVuSans-2d" x="254.492188"/>
       <use xlink:href="#DejaVuSans-31" x="290.576172"/>
       <use xlink:href="#DejaVuSans-32" x="354.199219"/>
      </g>
     </g>
    </g>
    <g id="xtick_2">
     <g id="line2d_3">
      <path d="M 118.235364 578.54175 
L 118.235364 24.14175 
" clip-path="url(#p46bf9cb311)" style="fill: none; stroke: #ffffff; stroke-width: 0.8; stroke-linecap: square"/>
     </g>
     <g id="line2d_4">
      <g>
       <use xlink:href="#m8d5b52ec3f" x="118.235364" y="578.54175" style="fill: #555555; stroke: #555555; stroke-width: 0.8"/>
      </g>
     </g>
     <g id="text_2">
      <!-- 2021-03 -->
      <g style="fill: #555555" transform="translate(105.414082 620.459567) rotate(-45) scale(0.1 -0.1)">
       <defs>
        <path id="DejaVuSans-33" d="M 2597 2516 
Q 3050 2419 3304 2112 
Q 3559 1806 3559 1356 
Q 3559 666 3084 287 
Q 2609 -91 1734 -91 
Q 1441 -91 1130 -33 
Q 819 25 488 141 
L 488 750 
Q 750 597 1062 519 
Q 1375 441 1716 441 
Q 2309 441 2620 675 
Q 2931 909 2931 1356 
Q 2931 1769 2642 2001 
Q 2353 2234 1838 2234 
L 1294 2234 
L 1294 2753 
L 1863 2753 
Q 2328 2753 2575 2939 
Q 2822 3125 2822 3475 
Q 2822 3834 2567 4026 
Q 2313 4219 1838 4219 
Q 1578 4219 1281 4162 
Q 984 4106 628 3988 
L 628 4550 
Q 988 4650 1302 4700 
Q 1616 4750 1894 4750 
Q 2613 4750 3031 4423 
Q 3450 4097 3450 3541 
Q 3450 3153 3228 2886 
Q 3006 2619 2597 2516 
z
" transform="scale(0.015625)"/>
       </defs>
       <use xlink:href="#DejaVuSans-32"/>
       <use xlink:href="#DejaVuSans-30" x="63.623047"/>
       <use xlink:href="#DejaVuSans-32" x="127.246094"/>
       <use xlink:href="#DejaVuSans-31" x="190.869141"/>
       <use xlink:href="#DejaVuSans-2d" x="254.492188"/>
       <use xlink:href="#DejaVuSans-30" x="290.576172"/>
       <use xlink:href="#DejaVuSans-33" x="354.199219"/>
      </g>
     </g>
    </g>
    <g id="xtick_3">
     <g id="line2d_5">
      <path d="M 166.470932 578.54175 
L 166.470932 24.14175 
" clip-path="url(#p46bf9cb311)" style="fill: none; stroke: #ffffff; stroke-width: 0.8; stroke-linecap: square"/>
     </g>
     <g id="line2d_6">
      <g>
       <use xlink:href="#m8d5b52ec3f" x="166.470932" y="578.54175" style="fill: #555555; stroke: #555555; stroke-width: 0.8"/>
      </g>
     </g>
     <g id="text_3">
      <!-- 2021-06 -->
      <g style="fill: #555555" transform="translate(153.64965 620.459567) rotate(-45) scale(0.1 -0.1)">
       <defs>
        <path id="DejaVuSans-36" d="M 2113 2584 
Q 1688 2584 1439 2293 
Q 1191 2003 1191 1497 
Q 1191 994 1439 701 
Q 1688 409 2113 409 
Q 2538 409 2786 701 
Q 3034 994 3034 1497 
Q 3034 2003 2786 2293 
Q 2538 2584 2113 2584 
z
M 3366 4563 
L 3366 3988 
Q 3128 4100 2886 4159 
Q 2644 4219 2406 4219 
Q 1781 4219 1451 3797 
Q 1122 3375 1075 2522 
Q 1259 2794 1537 2939 
Q 1816 3084 2150 3084 
Q 2853 3084 3261 2657 
Q 3669 2231 3669 1497 
Q 3669 778 3244 343 
Q 2819 -91 2113 -91 
Q 1303 -91 875 529 
Q 447 1150 447 2328 
Q 447 3434 972 4092 
Q 1497 4750 2381 4750 
Q 2619 4750 2861 4703 
Q 3103 4656 3366 4563 
z
" transform="scale(0.015625)"/>
       </defs>
       <use xlink:href="#DejaVuSans-32"/>
       <use xlink:href="#DejaVuSans-30" x="63.623047"/>
       <use xlink:href="#DejaVuSans-32" x="127.246094"/>
       <use xlink:href="#DejaVuSans-31" x="190.869141"/>
       <use xlink:href="#DejaVuSans-2d" x="254.492188"/>
       <use xlink:href="#DejaVuSans-30" x="290.576172"/>
       <use xlink:href="#DejaVuSans-36" x="354.199219"/>
      </g>
     </g>
    </g>
    <g id="xtick_4">
     <g id="line2d_7">
      <path d="M 214.7065 578.54175 
L 214.7065 24.14175 
" clip-path="url(#p46bf9cb311)" style="fill: none; stroke: #ffffff; stroke-width: 0.8; stroke-linecap: square"/>
     </g>
     <g id="line2d_8">
      <g>
       <use xlink:href="#m8d5b52ec3f" x="214.7065" y="578.54175" style="fill: #555555; stroke: #555555; stroke-width: 0.8"/>
      </g>
     </g>
     <g id="text_4">
      <!-- 2021-09 -->
      <g style="fill: #555555" transform="translate(201.885218 620.459567) rotate(-45) scale(0.1 -0.1)">
       <defs>
        <path id="DejaVuSans-39" d="M 703 97 
L 703 672 
Q 941 559 1184 500 
Q 1428 441 1663 441 
Q 2288 441 2617 861 
Q 2947 1281 2994 2138 
Q 2813 1869 2534 1725 
Q 2256 1581 1919 1581 
Q 1219 1581 811 2004 
Q 403 2428 403 3163 
Q 403 3881 828 4315 
Q 1253 4750 1959 4750 
Q 2769 4750 3195 4129 
Q 3622 3509 3622 2328 
Q 3622 1225 3098 567 
Q 2575 -91 1691 -91 
Q 1453 -91 1209 -44 
Q 966 3 703 97 
z
M 1959 2075 
Q 2384 2075 2632 2365 
Q 2881 2656 2881 3163 
Q 2881 3666 2632 3958 
Q 2384 4250 1959 4250 
Q 1534 4250 1286 3958 
Q 1038 3666 1038 3163 
Q 1038 2656 1286 2365 
Q 1534 2075 1959 2075 
z
" transform="scale(0.015625)"/>
       </defs>
       <use xlink:href="#DejaVuSans-32"/>
       <use xlink:href="#DejaVuSans-30" x="63.623047"/>
       <use xlink:href="#DejaVuSans-32" x="127.246094"/>
       <use xlink:href="#DejaVuSans-31" x="190.869141"/>
       <use xlink:href="#DejaVuSans-2d" x="254.492188"/>
       <use xlink:href="#DejaVuSans-30" x="290.576172"/>
       <use xlink:href="#DejaVuSans-39" x="354.199219"/>
      </g>
     </g>
    </g>
    <g id="xtick_5">
     <g id="line2d_9">
      <path d="M 262.417768 578.54175 
L 262.417768 24.14175 
" clip-path="url(#p46bf9cb311)" style="fill: none; stroke: #ffffff; stroke-width: 0.8; stroke-linecap: square"/>
     </g>
     <g id="line2d_10">
      <g>
       <use xlink:href="#m8d5b52ec3f" x="262.417768" y="578.54175" style="fill: #555555; stroke: #555555; stroke-width: 0.8"/>
      </g>
     </g>
     <g id="text_5">
      <!-- 2021-12 -->
      <g style="fill: #555555" transform="translate(249.596486 620.459567) rotate(-45) scale(0.1 -0.1)">
       <use xlink:href="#DejaVuSans-32"/>
       <use xlink:href="#DejaVuSans-30" x="63.623047"/>
       <use xlink:href="#DejaVuSans-32" x="127.246094"/>
       <use xlink:href="#DejaVuSans-31" x="190.869141"/>
       <use xlink:href="#DejaVuSans-2d" x="254.492188"/>
       <use xlink:href="#DejaVuSans-31" x="290.576172"/>
       <use xlink:href="#DejaVuSans-32" x="354.199219"/>
      </g>
     </g>
    </g>
    <g id="xtick_6">
     <g id="line2d_11">
      <path d="M 309.604737 578.54175 
L 309.604737 24.14175 
" clip-path="url(#p46bf9cb311)" style="fill: none; stroke: #ffffff; stroke-width: 0.8; stroke-linecap: square"/>
     </g>
     <g id="line2d_12">
      <g>
       <use xlink:href="#m8d5b52ec3f" x="309.604737" y="578.54175" style="fill: #555555; stroke: #555555; stroke-width: 0.8"/>
      </g>
     </g>
     <g id="text_6">
      <!-- 2022-03 -->
      <g style="fill: #555555" transform="translate(296.783455 620.459567) rotate(-45) scale(0.1 -0.1)">
       <use xlink:href="#DejaVuSans-32"/>
       <use xlink:href="#DejaVuSans-30" x="63.623047"/>
       <use xlink:href="#DejaVuSans-32" x="127.246094"/>
       <use xlink:href="#DejaVuSans-32" x="190.869141"/>
       <use xlink:href="#DejaVuSans-2d" x="254.492188"/>
       <use xlink:href="#DejaVuSans-30" x="290.576172"/>
       <use xlink:href="#DejaVuSans-33" x="354.199219"/>
      </g>
     </g>
    </g>
    <g id="xtick_7">
     <g id="line2d_13">
      <path d="M 357.840305 578.54175 
L 357.840305 24.14175 
" clip-path="url(#p46bf9cb311)" style="fill: none; stroke: #ffffff; stroke-width: 0.8; stroke-linecap: square"/>
     </g>
     <g id="line2d_14">
      <g>
       <use xlink:href="#m8d5b52ec3f" x="357.840305" y="578.54175" style="fill: #555555; stroke: #555555; stroke-width: 0.8"/>
      </g>
     </g>
     <g id="text_7">
      <!-- 2022-06 -->
      <g style="fill: #555555" transform="translate(345.019023 620.459567) rotate(-45) scale(0.1 -0.1)">
       <use xlink:href="#DejaVuSans-32"/>
       <use xlink:href="#DejaVuSans-30" x="63.623047"/>
       <use xlink:href="#DejaVuSans-32" x="127.246094"/>
       <use xlink:href="#DejaVuSans-32" x="190.869141"/>
       <use xlink:href="#DejaVuSans-2d" x="254.492188"/>
       <use xlink:href="#DejaVuSans-30" x="290.576172"/>
       <use xlink:href="#DejaVuSans-36" x="354.199219"/>
      </g>
     </g>
    </g>
    <g id="xtick_8">
     <g id="line2d_15">
      <path d="M 406.075873 578.54175 
L 406.075873 24.14175 
" clip-path="url(#p46bf9cb311)" style="fill: none; stroke: #ffffff; stroke-width: 0.8; stroke-linecap: square"/>
     </g>
     <g id="line2d_16">
      <g>
       <use xlink:href="#m8d5b52ec3f" x="406.075873" y="578.54175" style="fill: #555555; stroke: #555555; stroke-width: 0.8"/>
      </g>
     </g>
     <g id="text_8">
      <!-- 2022-09 -->
      <g style="fill: #555555" transform="translate(393.254591 620.459567) rotate(-45) scale(0.1 -0.1)">
       <use xlink:href="#DejaVuSans-32"/>
       <use xlink:href="#DejaVuSans-30" x="63.623047"/>
       <use xlink:href="#DejaVuSans-32" x="127.246094"/>
       <use xlink:href="#DejaVuSans-32" x="190.869141"/>
       <use xlink:href="#DejaVuSans-2d" x="254.492188"/>
       <use xlink:href="#DejaVuSans-30" x="290.576172"/>
       <use xlink:href="#DejaVuSans-39" x="354.199219"/>
      </g>
     </g>
    </g>
    <g id="xtick_9">
     <g id="line2d_17">
      <path d="M 453.787141 578.54175 
L 453.787141 24.14175 
" clip-path="url(#p46bf9cb311)" style="fill: none; stroke: #ffffff; stroke-width: 0.8; stroke-linecap: square"/>
     </g>
     <g id="line2d_18">
      <g>
       <use xlink:href="#m8d5b52ec3f" x="453.787141" y="578.54175" style="fill: #555555; stroke: #555555; stroke-width: 0.8"/>
      </g>
     </g>
     <g id="text_9">
      <!-- 2022-12 -->
      <g style="fill: #555555" transform="translate(440.965859 620.459567) rotate(-45) scale(0.1 -0.1)">
       <use xlink:href="#DejaVuSans-32"/>
       <use xlink:href="#DejaVuSans-30" x="63.623047"/>
       <use xlink:href="#DejaVuSans-32" x="127.246094"/>
       <use xlink:href="#DejaVuSans-32" x="190.869141"/>
       <use xlink:href="#DejaVuSans-2d" x="254.492188"/>
       <use xlink:href="#DejaVuSans-31" x="290.576172"/>
       <use xlink:href="#DejaVuSans-32" x="354.199219"/>
      </g>
     </g>
    </g>
    <g id="xtick_10">
     <g id="line2d_19">
      <path d="M 500.97411 578.54175 
L 500.97411 24.14175 
" clip-path="url(#p46bf9cb311)" style="fill: none; stroke: #ffffff; stroke-width: 0.8; stroke-linecap: square"/>
     </g>
     <g id="line2d_20">
      <g>
       <use xlink:href="#m8d5b52ec3f" x="500.97411" y="578.54175" style="fill: #555555; stroke: #555555; stroke-width: 0.8"/>
      </g>
     </g>
     <g id="text_10">
      <!-- 2023-03 -->
      <g style="fill: #555555" transform="translate(488.152828 620.459567) rotate(-45) scale(0.1 -0.1)">
       <use xlink:href="#DejaVuSans-32"/>
       <use xlink:href="#DejaVuSans-30" x="63.623047"/>
       <use xlink:href="#DejaVuSans-32" x="127.246094"/>
       <use xlink:href="#DejaVuSans-33" x="190.869141"/>
       <use xlink:href="#DejaVuSans-2d" x="254.492188"/>
       <use xlink:href="#DejaVuSans-30" x="290.576172"/>
       <use xlink:href="#DejaVuSans-33" x="354.199219"/>
      </g>
     </g>
    </g>
    <g id="xtick_11">
     <g id="line2d_21">
      <path d="M 549.209678 578.54175 
L 549.209678 24.14175 
" clip-path="url(#p46bf9cb311)" style="fill: none; stroke: #ffffff; stroke-width: 0.8; stroke-linecap: square"/>
     </g>
     <g id="line2d_22">
      <g>
       <use xlink:href="#m8d5b52ec3f" x="549.209678" y="578.54175" style="fill: #555555; stroke: #555555; stroke-width: 0.8"/>
      </g>
     </g>
     <g id="text_11">
      <!-- 2023-06 -->
      <g style="fill: #555555" transform="translate(536.388395 620.459567) rotate(-45) scale(0.1 -0.1)">
       <use xlink:href="#DejaVuSans-32"/>
       <use xlink:href="#DejaVuSans-30" x="63.623047"/>
       <use xlink:href="#DejaVuSans-32" x="127.246094"/>
       <use xlink:href="#DejaVuSans-33" x="190.869141"/>
       <use xlink:href="#DejaVuSans-2d" x="254.492188"/>
       <use xlink:href="#DejaVuSans-30" x="290.576172"/>
       <use xlink:href="#DejaVuSans-36" x="354.199219"/>
      </g>
     </g>
    </g>
    <g id="xtick_12">
     <g id="line2d_23">
      <path d="M 597.445246 578.54175 
L 597.445246 24.14175 
" clip-path="url(#p46bf9cb311)" style="fill: none; stroke: #ffffff; stroke-width: 0.8; stroke-linecap: square"/>
     </g>
     <g id="line2d_24">
      <g>
       <use xlink:href="#m8d5b52ec3f" x="597.445246" y="578.54175" style="fill: #555555; stroke: #555555; stroke-width: 0.8"/>
      </g>
     </g>
     <g id="text_12">
      <!-- 2023-09 -->
      <g style="fill: #555555" transform="translate(584.623963 620.459567) rotate(-45) scale(0.1 -0.1)">
       <use xlink:href="#DejaVuSans-32"/>
       <use xlink:href="#DejaVuSans-30" x="63.623047"/>
       <use xlink:href="#DejaVuSans-32" x="127.246094"/>
       <use xlink:href="#DejaVuSans-33" x="190.869141"/>
       <use xlink:href="#DejaVuSans-2d" x="254.492188"/>
       <use xlink:href="#DejaVuSans-30" x="290.576172"/>
       <use xlink:href="#DejaVuSans-39" x="354.199219"/>
      </g>
     </g>
    </g>
    <g id="xtick_13">
     <g id="line2d_25">
      <path d="M 645.156514 578.54175 
L 645.156514 24.14175 
" clip-path="url(#p46bf9cb311)" style="fill: none; stroke: #ffffff; stroke-width: 0.8; stroke-linecap: square"/>
     </g>
     <g id="line2d_26">
      <g>
       <use xlink:href="#m8d5b52ec3f" x="645.156514" y="578.54175" style="fill: #555555; stroke: #555555; stroke-width: 0.8"/>
      </g>
     </g>
     <g id="text_13">
      <!-- 2023-12 -->
      <g style="fill: #555555" transform="translate(632.335232 620.459567) rotate(-45) scale(0.1 -0.1)">
       <use xlink:href="#DejaVuSans-32"/>
       <use xlink:href="#DejaVuSans-30" x="63.623047"/>
       <use xlink:href="#DejaVuSans-32" x="127.246094"/>
       <use xlink:href="#DejaVuSans-33" x="190.869141"/>
       <use xlink:href="#DejaVuSans-2d" x="254.492188"/>
       <use xlink:href="#DejaVuSans-31" x="290.576172"/>
       <use xlink:href="#DejaVuSans-32" x="354.199219"/>
      </g>
     </g>
    </g>
    <g id="xtick_14">
     <g id="line2d_27">
      <path d="M 692.867782 578.54175 
L 692.867782 24.14175 
" clip-path="url(#p46bf9cb311)" style="fill: none; stroke: #ffffff; stroke-width: 0.8; stroke-linecap: square"/>
     </g>
     <g id="line2d_28">
      <g>
       <use xlink:href="#m8d5b52ec3f" x="692.867782" y="578.54175" style="fill: #555555; stroke: #555555; stroke-width: 0.8"/>
      </g>
     </g>
     <g id="text_14">
      <!-- 2024-03 -->
      <g style="fill: #555555" transform="translate(680.0465 620.459567) rotate(-45) scale(0.1 -0.1)">
       <defs>
        <path id="DejaVuSans-34" d="M 2419 4116 
L 825 1625 
L 2419 1625 
L 2419 4116 
z
M 2253 4666 
L 3047 4666 
L 3047 1625 
L 3713 1625 
L 3713 1100 
L 3047 1100 
L 3047 0 
L 2419 0 
L 2419 1100 
L 313 1100 
L 313 1709 
L 2253 4666 
z
" transform="scale(0.015625)"/>
       </defs>
       <use xlink:href="#DejaVuSans-32"/>
       <use xlink:href="#DejaVuSans-30" x="63.623047"/>
       <use xlink:href="#DejaVuSans-32" x="127.246094"/>
       <use xlink:href="#DejaVuSans-34" x="190.869141"/>
       <use xlink:href="#DejaVuSans-2d" x="254.492188"/>
       <use xlink:href="#DejaVuSans-30" x="290.576172"/>
       <use xlink:href="#DejaVuSans-33" x="354.199219"/>
      </g>
     </g>
    </g>
    <g id="xtick_15">
     <g id="line2d_29">
      <path d="M 741.10335 578.54175 
L 741.10335 24.14175 
" clip-path="url(#p46bf9cb311)" style="fill: none; stroke: #ffffff; stroke-width: 0.8; stroke-linecap: square"/>
     </g>
     <g id="line2d_30">
      <g>
       <use xlink:href="#m8d5b52ec3f" x="741.10335" y="578.54175" style="fill: #555555; stroke: #555555; stroke-width: 0.8"/>
      </g>
     </g>
     <g id="text_15">
      <!-- 2024-06 -->
      <g style="fill: #555555" transform="translate(728.282068 620.459567) rotate(-45) scale(0.1 -0.1)">
       <use xlink:href="#DejaVuSans-32"/>
       <use xlink:href="#DejaVuSans-30" x="63.623047"/>
       <use xlink:href="#DejaVuSans-32" x="127.246094"/>
       <use xlink:href="#DejaVuSans-34" x="190.869141"/>
       <use xlink:href="#DejaVuSans-2d" x="254.492188"/>
       <use xlink:href="#DejaVuSans-30" x="290.576172"/>
       <use xlink:href="#DejaVuSans-36" x="354.199219"/>
      </g>
     </g>
    </g>
    <g id="xtick_16">
     <g id="line2d_31">
      <path d="M 789.338918 578.54175 
L 789.338918 24.14175 
" clip-path="url(#p46bf9cb311)" style="fill: none; stroke: #ffffff; stroke-width: 0.8; stroke-linecap: square"/>
     </g>
     <g id="line2d_32">
      <g>
       <use xlink:href="#m8d5b52ec3f" x="789.338918" y="578.54175" style="fill: #555555; stroke: #555555; stroke-width: 0.8"/>
      </g>
     </g>
     <g id="text_16">
      <!-- 2024-09 -->
      <g style="fill: #555555" transform="translate(776.517636 620.459567) rotate(-45) scale(0.1 -0.1)">
       <use xlink:href="#DejaVuSans-32"/>
       <use xlink:href="#DejaVuSans-30" x="63.623047"/>
       <use xlink:href="#DejaVuSans-32" x="127.246094"/>
       <use xlink:href="#DejaVuSans-34" x="190.869141"/>
       <use xlink:href="#DejaVuSans-2d" x="254.492188"/>
       <use xlink:href="#DejaVuSans-30" x="290.576172"/>
       <use xlink:href="#DejaVuSans-39" x="354.199219"/>
      </g>
     </g>
    </g>
    <g id="xtick_17">
     <g id="line2d_33">
      <path d="M 837.050186 578.54175 
L 837.050186 24.14175 
" clip-path="url(#p46bf9cb311)" style="fill: none; stroke: #ffffff; stroke-width: 0.8; stroke-linecap: square"/>
     </g>
     <g id="line2d_34">
      <g>
       <use xlink:href="#m8d5b52ec3f" x="837.050186" y="578.54175" style="fill: #555555; stroke: #555555; stroke-width: 0.8"/>
      </g>
     </g>
     <g id="text_17">
      <!-- 2024-12 -->
      <g style="fill: #555555" transform="translate(824.228904 620.459567) rotate(-45) scale(0.1 -0.1)">
       <use xlink:href="#DejaVuSans-32"/>
       <use xlink:href="#DejaVuSans-30" x="63.623047"/>
       <use xlink:href="#DejaVuSans-32" x="127.246094"/>
       <use xlink:href="#DejaVuSans-34" x="190.869141"/>
       <use xlink:href="#DejaVuSans-2d" x="254.492188"/>
       <use xlink:href="#DejaVuSans-31" x="290.576172"/>
       <use xlink:href="#DejaVuSans-32" x="354.199219"/>
      </g>
     </g>
    </g>
    <g id="xtick_18">
     <g id="line2d_35">
      <path d="M 884.237155 578.54175 
L 884.237155 24.14175 
" clip-path="url(#p46bf9cb311)" style="fill: none; stroke: #ffffff; stroke-width: 0.8; stroke-linecap: square"/>
     </g>
     <g id="line2d_36">
      <g>
       <use xlink:href="#m8d5b52ec3f" x="884.237155" y="578.54175" style="fill: #555555; stroke: #555555; stroke-width: 0.8"/>
      </g>
     </g>
     <g id="text_18">
      <!-- 2025-03 -->
      <g style="fill: #555555" transform="translate(871.415873 620.459567) rotate(-45) scale(0.1 -0.1)">
       <defs>
        <path id="DejaVuSans-35" d="M 691 4666 
L 3169 4666 
L 3169 4134 
L 1269 4134 
L 1269 2991 
Q 1406 3038 1543 3061 
Q 1681 3084 1819 3084 
Q 2600 3084 3056 2656 
Q 3513 2228 3513 1497 
Q 3513 744 3044 326 
Q 2575 -91 1722 -91 
Q 1428 -91 1123 -41 
Q 819 9 494 109 
L 494 744 
Q 775 591 1075 516 
Q 1375 441 1709 441 
Q 2250 441 2565 725 
Q 2881 1009 2881 1497 
Q 2881 1984 2565 2268 
Q 2250 2553 1709 2553 
Q 1456 2553 1204 2497 
Q 953 2441 691 2322 
L 691 4666 
z
" transform="scale(0.015625)"/>
       </defs>
       <use xlink:href="#DejaVuSans-32"/>
       <use xlink:href="#DejaVuSans-30" x="63.623047"/>
       <use xlink:href="#DejaVuSans-32" x="127.246094"/>
       <use xlink:href="#DejaVuSans-35" x="190.869141"/>
       <use xlink:href="#DejaVuSans-2d" x="254.492188"/>
       <use xlink:href="#DejaVuSans-30" x="290.576172"/>
       <use xlink:href="#DejaVuSans-33" x="354.199219"/>
      </g>
     </g>
    </g>
    <g id="xtick_19">
     <g id="line2d_37">
      <path d="M 932.472723 578.54175 
L 932.472723 24.14175 
" clip-path="url(#p46bf9cb311)" style="fill: none; stroke: #ffffff; stroke-width: 0.8; stroke-linecap: square"/>
     </g>
     <g id="line2d_38">
      <g>
       <use xlink:href="#m8d5b52ec3f" x="932.472723" y="578.54175" style="fill: #555555; stroke: #555555; stroke-width: 0.8"/>
      </g>
     </g>
     <g id="text_19">
      <!-- 2025-06 -->
      <g style="fill: #555555" transform="translate(919.651441 620.459567) rotate(-45) scale(0.1 -0.1)">
       <use xlink:href="#DejaVuSans-32"/>
       <use xlink:href="#DejaVuSans-30" x="63.623047"/>
       <use xlink:href="#DejaVuSans-32" x="127.246094"/>
       <use xlink:href="#DejaVuSans-35" x="190.869141"/>
       <use xlink:href="#DejaVuSans-2d" x="254.492188"/>
       <use xlink:href="#DejaVuSans-30" x="290.576172"/>
       <use xlink:href="#DejaVuSans-36" x="354.199219"/>
      </g>
     </g>
    </g>
    <g id="text_20">
     <!-- Date -->
     <g style="fill: #555555" transform="translate(501.313563 635.048253) scale(0.12 -0.12)">
      <defs>
       <path id="DejaVuSans-44" d="M 1259 4147 
L 1259 519 
L 2022 519 
Q 2988 519 3436 956 
Q 3884 1394 3884 2338 
Q 3884 3275 3436 3711 
Q 2988 4147 2022 4147 
L 1259 4147 
z
M 628 4666 
L 1925 4666 
Q 3281 4666 3915 4102 
Q 4550 3538 4550 2338 
Q 4550 1131 3912 565 
Q 3275 0 1925 0 
L 628 0 
L 628 4666 
z
" transform="scale(0.015625)"/>
       <path id="DejaVuSans-61" d="M 2194 1759 
Q 1497 1759 1228 1600 
Q 959 1441 959 1056 
Q 959 750 1161 570 
Q 1363 391 1709 391 
Q 2188 391 2477 730 
Q 2766 1069 2766 1631 
L 2766 1759 
L 2194 1759 
z
M 3341 1997 
L 3341 0 
L 2766 0 
L 2766 531 
Q 2569 213 2275 61 
Q 1981 -91 1556 -91 
Q 1019 -91 701 211 
Q 384 513 384 1019 
Q 384 1609 779 1909 
Q 1175 2209 1959 2209 
L 2766 2209 
L 2766 2266 
Q 2766 2663 2505 2880 
Q 2244 3097 1772 3097 
Q 1472 3097 1187 3025 
Q 903 2953 641 2809 
L 641 3341 
Q 956 3463 1253 3523 
Q 1550 3584 1831 3584 
Q 2591 3584 2966 3190 
Q 3341 2797 3341 1997 
z
" transform="scale(0.015625)"/>
       <path id="DejaVuSans-74" d="M 1172 4494 
L 1172 3500 
L 2356 3500 
L 2356 3053 
L 1172 3053 
L 1172 1153 
Q 1172 725 1289 603 
Q 1406 481 1766 481 
L 2356 481 
L 2356 0 
L 1766 0 
Q 1100 0 847 248 
Q 594 497 594 1153 
L 594 3053 
L 172 3053 
L 172 3500 
L 594 3500 
L 594 4494 
L 1172 4494 
z
" transform="scale(0.015625)"/>
       <path id="DejaVuSans-65" d="M 3597 1894 
L 3597 1613 
L 953 1613 
Q 991 1019 1311 708 
Q 1631 397 2203 397 
Q 2534 397 2845 478 
Q 3156 559 3463 722 
L 3463 178 
Q 3153 47 2828 -22 
Q 2503 -91 2169 -91 
Q 1331 -91 842 396 
Q 353 884 353 1716 
Q 353 2575 817 3079 
Q 1281 3584 2069 3584 
Q 2775 3584 3186 3129 
Q 3597 2675 3597 1894 
z
M 3022 2063 
Q 3016 2534 2758 2815 
Q 2500 3097 2075 3097 
Q 1594 3097 1305 2825 
Q 1016 2553 972 2059 
L 3022 2063 
z
" transform="scale(0.015625)"/>
      </defs>
      <use xlink:href="#DejaVuSans-44"/>
      <use xlink:href="#DejaVuSans-61" x="77.001953"/>
      <use xlink:href="#DejaVuSans-74" x="138.28125"/>
      <use xlink:href="#DejaVuSans-65" x="177.490234"/>
     </g>
    </g>
   </g>
   <g id="matplotlib.axis_2">
    <g id="ytick_1">
     <g id="line2d_39">
      <path d="M 64.2325 578.54175 
L 967.0765 578.54175 
" clip-path="url(#p46bf9cb311)" style="fill: none; stroke: #ffffff; stroke-width: 0.8; stroke-linecap: square"/>
     </g>
     <g id="line2d_40">
      <defs>
       <path id="m03feafbcbd" d="M 0 0 
L -3.5 0 
" style="stroke: #555555; stroke-width: 0.8"/>
      </defs>
      <g>
       <use xlink:href="#m03feafbcbd" x="64.2325" y="578.54175" style="fill: #555555; stroke: #555555; stroke-width: 0.8"/>
      </g>
     </g>
     <g id="text_21">
      <!-- 0k -->
      <g style="fill: #555555" transform="translate(45.079375 582.340969) scale(0.1 -0.1)">
       <defs>
        <path id="DejaVuSans-6b" d="M 581 4863 
L 1159 4863 
L 1159 1991 
L 2875 3500 
L 3609 3500 
L 1753 1863 
L 3688 0 
L 2938 0 
L 1159 1709 
L 1159 0 
L 581 0 
L 581 4863 
z
" transform="scale(0.015625)"/>
       </defs>
       <use xlink:href="#DejaVuSans-30"/>
       <use xlink:href="#DejaVuSans-6b" x="63.623047"/>
      </g>
     </g>
    </g>
    <g id="ytick_2">
     <g id="line2d_41">
      <path d="M 64.2325 507.761612 
L 967.0765 507.761612 
" clip-path="url(#p46bf9cb311)" style="fill: none; stroke: #ffffff; stroke-width: 0.8; stroke-linecap: square"/>
     </g>
     <g id="line2d_42">
      <g>
       <use xlink:href="#m03feafbcbd" x="64.2325" y="507.761612" style="fill: #555555; stroke: #555555; stroke-width: 0.8"/>
      </g>
     </g>
     <g id="text_22">
      <!-- 250k -->
      <g style="fill: #555555" transform="translate(32.354375 511.560831) scale(0.1 -0.1)">
       <use xlink:href="#DejaVuSans-32"/>
       <use xlink:href="#DejaVuSans-35" x="63.623047"/>
       <use xlink:href="#DejaVuSans-30" x="127.246094"/>
       <use xlink:href="#DejaVuSans-6b" x="190.869141"/>
      </g>
     </g>
    </g>
    <g id="ytick_3">
     <g id="line2d_43">
      <path d="M 64.2325 436.981475 
L 967.0765 436.981475 
" clip-path="url(#p46bf9cb311)" style="fill: none; stroke: #ffffff; stroke-width: 0.8; stroke-linecap: square"/>
     </g>
     <g id="line2d_44">
      <g>
       <use xlink:href="#m03feafbcbd" x="64.2325" y="436.981475" style="fill: #555555; stroke: #555555; stroke-width: 0.8"/>
      </g>
     </g>
     <g id="text_23">
      <!-- 500k -->
      <g style="fill: #555555" transform="translate(32.354375 440.780693) scale(0.1 -0.1)">
       <use xlink:href="#DejaVuSans-35"/>
       <use xlink:href="#DejaVuSans-30" x="63.623047"/>
       <use xlink:href="#DejaVuSans-30" x="127.246094"/>
       <use xlink:href="#DejaVuSans-6b" x="190.869141"/>
      </g>
     </g>
    </g>
    <g id="ytick_4">
     <g id="line2d_45">
      <path d="M 64.2325 366.201337 
L 967.0765 366.201337 
" clip-path="url(#p46bf9cb311)" style="fill: none; stroke: #ffffff; stroke-width: 0.8; stroke-linecap: square"/>
     </g>
     <g id="line2d_46">
      <g>
       <use xlink:href="#m03feafbcbd" x="64.2325" y="366.201337" style="fill: #555555; stroke: #555555; stroke-width: 0.8"/>
      </g>
     </g>
     <g id="text_24">
      <!-- 750k -->
      <g style="fill: #555555" transform="translate(32.354375 370.000556) scale(0.1 -0.1)">
       <defs>
        <path id="DejaVuSans-37" d="M 525 4666 
L 3525 4666 
L 3525 4397 
L 1831 0 
L 1172 0 
L 2766 4134 
L 525 4134 
L 525 4666 
z
" transform="scale(0.015625)"/>
       </defs>
       <use xlink:href="#DejaVuSans-37"/>
       <use xlink:href="#DejaVuSans-35" x="63.623047"/>
       <use xlink:href="#DejaVuSans-30" x="127.246094"/>
       <use xlink:href="#DejaVuSans-6b" x="190.869141"/>
      </g>
     </g>
    </g>
    <g id="ytick_5">
     <g id="line2d_47">
      <path d="M 64.2325 295.421199 
L 967.0765 295.421199 
" clip-path="url(#p46bf9cb311)" style="fill: none; stroke: #ffffff; stroke-width: 0.8; stroke-linecap: square"/>
     </g>
     <g id="line2d_48">
      <g>
       <use xlink:href="#m03feafbcbd" x="64.2325" y="295.421199" style="fill: #555555; stroke: #555555; stroke-width: 0.8"/>
      </g>
     </g>
     <g id="text_25">
      <!-- 1,000k -->
      <g style="fill: #555555" transform="translate(22.81375 299.220418) scale(0.1 -0.1)">
       <defs>
        <path id="DejaVuSans-2c" d="M 750 794 
L 1409 794 
L 1409 256 
L 897 -744 
L 494 -744 
L 750 256 
L 750 794 
z
" transform="scale(0.015625)"/>
       </defs>
       <use xlink:href="#DejaVuSans-31"/>
       <use xlink:href="#DejaVuSans-2c" x="63.623047"/>
       <use xlink:href="#DejaVuSans-30" x="95.410156"/>
       <use xlink:href="#DejaVuSans-30" x="159.033203"/>
       <use xlink:href="#DejaVuSans-30" x="222.65625"/>
       <use xlink:href="#DejaVuSans-6b" x="286.279297"/>
      </g>
     </g>
    </g>
    <g id="ytick_6">
     <g id="line2d_49">
      <path d="M 64.2325 224.641061 
L 967.0765 224.641061 
" clip-path="url(#p46bf9cb311)" style="fill: none; stroke: #ffffff; stroke-width: 0.8; stroke-linecap: square"/>
     </g>
     <g id="line2d_50">
      <g>
       <use xlink:href="#m03feafbcbd" x="64.2325" y="224.641061" style="fill: #555555; stroke: #555555; stroke-width: 0.8"/>
      </g>
     </g>
     <g id="text_26">
      <!-- 1,250k -->
      <g style="fill: #555555" transform="translate(22.81375 228.44028) scale(0.1 -0.1)">
       <use xlink:href="#DejaVuSans-31"/>
       <use xlink:href="#DejaVuSans-2c" x="63.623047"/>
       <use xlink:href="#DejaVuSans-32" x="95.410156"/>
       <use xlink:href="#DejaVuSans-35" x="159.033203"/>
       <use xlink:href="#DejaVuSans-30" x="222.65625"/>
       <use xlink:href="#DejaVuSans-6b" x="286.279297"/>
      </g>
     </g>
    </g>
    <g id="ytick_7">
     <g id="line2d_51">
      <path d="M 64.2325 153.860924 
L 967.0765 153.860924 
" clip-path="url(#p46bf9cb311)" style="fill: none; stroke: #ffffff; stroke-width: 0.8; stroke-linecap: square"/>
     </g>
     <g id="line2d_52">
      <g>
       <use xlink:href="#m03feafbcbd" x="64.2325" y="153.860924" style="fill: #555555; stroke: #555555; stroke-width: 0.8"/>
      </g>
     </g>
     <g id="text_27">
      <!-- 1,500k -->
      <g style="fill: #555555" transform="translate(22.81375 157.660142) scale(0.1 -0.1)">
       <use xlink:href="#DejaVuSans-31"/>
       <use xlink:href="#DejaVuSans-2c" x="63.623047"/>
       <use xlink:href="#DejaVuSans-35" x="95.410156"/>
       <use xlink:href="#DejaVuSans-30" x="159.033203"/>
       <use xlink:href="#DejaVuSans-30" x="222.65625"/>
       <use xlink:href="#DejaVuSans-6b" x="286.279297"/>
      </g>
     </g>
    </g>
    <g id="ytick_8">
     <g id="line2d_53">
      <path d="M 64.2325 83.080786 
L 967.0765 83.080786 
" clip-path="url(#p46bf9cb311)" style="fill: none; stroke: #ffffff; stroke-width: 0.8; stroke-linecap: square"/>
     </g>
     <g id="line2d_54">
      <g>
       <use xlink:href="#m03feafbcbd" x="64.2325" y="83.080786" style="fill: #555555; stroke: #555555; stroke-width: 0.8"/>
      </g>
     </g>
     <g id="text_28">
      <!-- 1,750k -->
      <g style="fill: #555555" transform="translate(22.81375 86.880005) scale(0.1 -0.1)">
       <use xlink:href="#DejaVuSans-31"/>
       <use xlink:href="#DejaVuSans-2c" x="63.623047"/>
       <use xlink:href="#DejaVuSans-37" x="95.410156"/>
       <use xlink:href="#DejaVuSans-35" x="159.033203"/>
       <use xlink:href="#DejaVuSans-30" x="222.65625"/>
       <use xlink:href="#DejaVuSans-6b" x="286.279297"/>
      </g>
     </g>
    </g>
    <g id="text_29">
     <!-- Instances -->
     <g style="fill: #555555" transform="translate(16.318125 329.988) rotate(-90) scale(0.12 -0.12)">
      <defs>
       <path id="DejaVuSans-49" d="M 628 4666 
L 1259 4666 
L 1259 0 
L 628 0 
L 628 4666 
z
" transform="scale(0.015625)"/>
       <path id="DejaVuSans-6e" d="M 3513 2113 
L 3513 0 
L 2938 0 
L 2938 2094 
Q 2938 2591 2744 2837 
Q 2550 3084 2163 3084 
Q 1697 3084 1428 2787 
Q 1159 2491 1159 1978 
L 1159 0 
L 581 0 
L 581 3500 
L 1159 3500 
L 1159 2956 
Q 1366 3272 1645 3428 
Q 1925 3584 2291 3584 
Q 2894 3584 3203 3211 
Q 3513 2838 3513 2113 
z
" transform="scale(0.015625)"/>
       <path id="DejaVuSans-73" d="M 2834 3397 
L 2834 2853 
Q 2591 2978 2328 3040 
Q 2066 3103 1784 3103 
Q 1356 3103 1142 2972 
Q 928 2841 928 2578 
Q 928 2378 1081 2264 
Q 1234 2150 1697 2047 
L 1894 2003 
Q 2506 1872 2764 1633 
Q 3022 1394 3022 966 
Q 3022 478 2636 193 
Q 2250 -91 1575 -91 
Q 1294 -91 989 -36 
Q 684 19 347 128 
L 347 722 
Q 666 556 975 473 
Q 1284 391 1588 391 
Q 1994 391 2212 530 
Q 2431 669 2431 922 
Q 2431 1156 2273 1281 
Q 2116 1406 1581 1522 
L 1381 1569 
Q 847 1681 609 1914 
Q 372 2147 372 2553 
Q 372 3047 722 3315 
Q 1072 3584 1716 3584 
Q 2034 3584 2315 3537 
Q 2597 3491 2834 3397 
z
" transform="scale(0.015625)"/>
       <path id="DejaVuSans-63" d="M 3122 3366 
L 3122 2828 
Q 2878 2963 2633 3030 
Q 2388 3097 2138 3097 
Q 1578 3097 1268 2742 
Q 959 2388 959 1747 
Q 959 1106 1268 751 
Q 1578 397 2138 397 
Q 2388 397 2633 464 
Q 2878 531 3122 666 
L 3122 134 
Q 2881 22 2623 -34 
Q 2366 -91 2075 -91 
Q 1284 -91 818 406 
Q 353 903 353 1747 
Q 353 2603 823 3093 
Q 1294 3584 2113 3584 
Q 2378 3584 2631 3529 
Q 2884 3475 3122 3366 
z
" transform="scale(0.015625)"/>
      </defs>
      <use xlink:href="#DejaVuSans-49"/>
      <use xlink:href="#DejaVuSans-6e" x="29.492188"/>
      <use xlink:href="#DejaVuSans-73" x="92.871094"/>
      <use xlink:href="#DejaVuSans-74" x="144.970703"/>
      <use xlink:href="#DejaVuSans-61" x="184.179688"/>
      <use xlink:href="#DejaVuSans-6e" x="245.458984"/>
      <use xlink:href="#DejaVuSans-63" x="308.837891"/>
      <use xlink:href="#DejaVuSans-65" x="363.818359"/>
      <use xlink:href="#DejaVuSans-73" x="425.341797"/>
     </g>
    </g>
   </g>
   <g id="line2d_55">
    <path d="M 64.2325 577.757733 
L 73.315065 577.899586 
L 82.397629 577.980878 
L 91.480194 578.001608 
L 100.562759 577.961776 
L 109.645323 577.861383 
L 118.727888 577.700428 
L 127.810453 577.478911 
L 136.893017 577.196833 
L 145.975582 576.854193 
L 155.058147 576.450992 
L 164.140711 575.987229 
L 173.223276 575.462904 
L 182.305841 574.878018 
L 191.388405 574.23257 
L 200.47097 573.52656 
L 209.553535 572.759989 
L 218.636099 571.932856 
L 227.718664 571.045162 
L 236.801229 570.096906 
L 245.883793 569.088088 
L 254.966358 568.018709 
L 264.048923 566.888768 
L 273.131487 565.698266 
L 282.214052 564.447202 
L 291.296617 563.135576 
L 300.379181 561.763389 
L 309.461746 560.33064 
L 318.544311 558.837329 
L 327.626875 557.283457 
L 336.70944 555.669023 
L 345.792005 553.994028 
L 354.874569 552.258471 
L 363.957134 550.462352 
L 373.039699 548.605672 
L 382.122263 546.68843 
L 391.204828 544.710626 
L 400.287393 542.672261 
L 409.369958 540.573334 
L 418.452522 538.413846 
L 427.535087 536.193796 
L 436.617652 533.913184 
L 445.700216 531.572011 
L 454.782781 529.170276 
L 463.865346 526.70798 
L 472.94791 524.185122 
L 482.030475 521.601702 
L 491.11304 518.957721 
L 500.195604 516.253178 
L 509.278169 513.488073 
L 518.360734 510.662407 
L 527.443298 507.776179 
L 536.525863 504.82939 
L 545.608428 501.822039 
L 554.690992 498.754126 
L 563.773557 495.625652 
L 572.856122 492.436616 
L 581.938686 489.187018 
L 591.021251 485.876859 
L 600.103816 482.506138 
L 609.18638 479.074856 
L 618.268945 475.583012 
L 627.35151 472.030606 
L 636.434074 468.417639 
L 645.516639 464.74411 
L 654.599204 461.01002 
L 663.681768 457.215368 
L 672.764333 453.360154 
L 681.846898 449.444379 
L 690.929462 445.468042 
L 700.012027 441.431143 
L 709.094592 437.333683 
L 718.177156 433.175661 
L 727.259721 428.957078 
L 736.342286 424.677933 
L 745.42485 420.338226 
L 754.507415 415.937958 
L 763.58998 411.477128 
L 772.672544 406.955736 
L 781.755109 402.373783 
L 790.837674 397.731268 
L 799.920238 393.028192 
L 809.002803 388.264554 
L 818.085368 383.440354 
L 827.167932 378.555593 
L 836.250497 373.61027 
L 845.333062 368.604386 
L 854.415626 363.53794 
L 863.498191 358.410932 
L 872.580756 353.223363 
L 881.66332 347.975232 
L 890.745885 342.666539 
L 899.82845 337.297285 
L 908.911014 331.867469 
L 917.993579 326.377092 
L 927.076144 320.826152 
L 936.158708 315.214652 
L 945.241273 309.54259 
L 954.323838 303.809966 
L 963.406402 298.01678 
" clip-path="url(#p46bf9cb311)" style="fill: none; stroke-dasharray: 3,4.95; stroke-dashoffset: 0; stroke: #4ac1fa; stroke-opacity: 0.9; stroke-width: 3"/>
   </g>
   <g id="line2d_56">
    <path d="M 64.2325 592.590654 
L 73.315065 590.071877 
L 82.397629 587.58503 
L 91.480194 585.130113 
L 100.562759 582.707127 
L 109.645323 580.31607 
L 118.727888 577.956943 
L 127.810453 575.629747 
L 136.893017 573.334481 
L 145.975582 571.071144 
L 155.058147 568.839738 
L 164.140711 566.640262 
L 173.223276 564.472716 
L 182.305841 562.337101 
L 191.388405 560.233415 
L 200.47097 558.161659 
L 209.553535 556.121834 
L 218.636099 554.113939 
L 227.718664 552.137973 
L 236.801229 550.193938 
L 245.883793 548.281833 
L 254.966358 546.401658 
L 264.048923 544.553414 
L 273.131487 542.737099 
L 282.214052 540.952714 
L 291.296617 539.20026 
L 300.379181 537.479736 
L 309.461746 535.791141 
L 318.544311 534.134477 
L 327.626875 532.509743 
L 336.70944 530.916939 
L 345.792005 529.356066 
L 354.874569 527.827122 
L 363.957134 526.330108 
L 373.039699 524.865025 
L 382.122263 523.431872 
L 391.204828 522.030648 
L 400.287393 520.661355 
L 409.369958 519.323992 
L 418.452522 518.018559 
L 427.535087 516.745057 
L 436.617652 515.503484 
L 445.700216 514.293841 
L 454.782781 513.116129 
L 463.865346 511.970347 
L 472.94791 510.856494 
L 482.030475 509.774572 
L 491.11304 508.72458 
L 500.195604 507.706518 
L 509.278169 506.720387 
L 518.360734 505.766185 
L 527.443298 504.843913 
L 536.525863 503.953572 
L 545.608428 503.09516 
L 554.690992 502.268679 
L 563.773557 501.474128 
L 572.856122 500.711507 
L 581.938686 499.980816 
L 591.021251 499.282055 
L 600.103816 498.615225 
L 609.18638 497.980324 
L 618.268945 497.377354 
L 627.35151 496.806313 
L 636.434074 496.267203 
L 645.516639 495.760023 
L 654.599204 495.284773 
L 663.681768 494.841453 
L 672.764333 494.430063 
L 681.846898 494.050604 
L 690.929462 493.703074 
L 700.012027 493.387475 
L 709.094592 493.103805 
L 718.177156 492.852066 
L 727.259721 492.632257 
L 736.342286 492.444378 
L 745.42485 492.288429 
L 754.507415 492.16441 
L 763.58998 492.072321 
L 772.672544 492.012163 
L 781.755109 491.983934 
L 790.837674 491.987636 
L 799.920238 492.023268 
L 809.002803 492.09083 
L 818.085368 492.190322 
L 827.167932 492.321744 
L 836.250497 492.485096 
L 845.333062 492.680378 
L 854.415626 492.907591 
L 863.498191 493.166733 
L 872.580756 493.457806 
L 881.66332 493.780808 
L 890.745885 494.135741 
L 899.82845 494.522604 
L 908.911014 494.941397 
L 917.993579 495.392121 
L 927.076144 495.874774 
L 936.158708 496.389357 
L 945.241273 496.935871 
L 954.323838 497.514314 
L 963.406402 498.124688 
" clip-path="url(#p46bf9cb311)" style="fill: none; stroke-dasharray: 3,4.95; stroke-dashoffset: 0; stroke: #9a5689; stroke-opacity: 0.9; stroke-width: 3"/>
   </g>
   <g id="line2d_57">
    <path d="M 64.2325 577.933597 
L 73.315065 577.592356 
L 82.397629 577.250189 
L 91.480194 576.907097 
L 100.562759 576.56308 
L 109.645323 576.218138 
L 118.727888 575.872271 
L 127.810453 575.525479 
L 136.893017 575.177761 
L 145.975582 574.829118 
L 155.058147 574.479551 
L 164.140711 574.129058 
L 173.223276 573.77764 
L 182.305841 573.425297 
L 191.388405 573.072028 
L 200.47097 572.717835 
L 209.553535 572.362716 
L 218.636099 572.006673 
L 227.718664 571.649704 
L 236.801229 571.29181 
L 245.883793 570.932991 
L 254.966358 570.573247 
L 264.048923 570.212577 
L 273.131487 569.850983 
L 282.214052 569.488463 
L 291.296617 569.125019 
L 300.379181 568.760649 
L 309.461746 568.395354 
L 318.544311 568.029133 
L 327.626875 567.661988 
L 336.70944 567.293918 
L 345.792005 566.924922 
L 354.874569 566.555001 
L 363.957134 566.184156 
L 373.039699 565.812385 
L 382.122263 565.439688 
L 391.204828 565.066067 
L 400.287393 564.691521 
L 409.369958 564.316049 
L 418.452522 563.939653 
L 427.535087 563.562331 
L 436.617652 563.184084 
L 445.700216 562.804912 
L 454.782781 562.424815 
L 463.865346 562.043792 
L 472.94791 561.661845 
L 482.030475 561.278972 
L 491.11304 560.895175 
L 500.195604 560.510452 
L 509.278169 560.124804 
L 518.360734 559.738231 
L 527.443298 559.350732 
L 536.525863 558.962309 
L 545.608428 558.572961 
L 554.690992 558.182687 
L 563.773557 557.791488 
L 572.856122 557.399364 
L 581.938686 557.006315 
L 591.021251 556.612341 
L 600.103816 556.217442 
L 609.18638 555.821617 
L 618.268945 555.424867 
L 627.35151 555.027193 
L 636.434074 554.628593 
L 645.516639 554.229068 
L 654.599204 553.828618 
L 663.681768 553.427242 
L 672.764333 553.024942 
L 681.846898 552.621716 
L 690.929462 552.217566 
L 700.012027 551.81249 
L 709.094592 551.406489 
L 718.177156 550.999563 
L 727.259721 550.591712 
L 736.342286 550.182935 
L 745.42485 549.773234 
L 754.507415 549.362607 
L 763.58998 548.951055 
L 772.672544 548.538578 
L 781.755109 548.125176 
L 790.837674 547.710849 
L 799.920238 547.295597 
L 809.002803 546.879419 
L 818.085368 546.462317 
L 827.167932 546.044289 
L 836.250497 545.625336 
L 845.333062 545.205458 
L 854.415626 544.784655 
L 863.498191 544.362927 
L 872.580756 543.940274 
L 881.66332 543.516695 
L 890.745885 543.092191 
L 899.82845 542.666763 
L 908.911014 542.240409 
L 917.993579 541.81313 
L 927.076144 541.384925 
L 936.158708 540.955796 
L 945.241273 540.525742 
L 954.323838 540.094762 
L 963.406402 539.662857 
" clip-path="url(#p46bf9cb311)" style="fill: none; stroke-dasharray: 3,4.95; stroke-dashoffset: 0; stroke: #be503b; stroke-opacity: 0.9; stroke-width: 3"/>
   </g>
   <g id="line2d_58">
    <path d="M 64.2325 573.523626 
L 73.315065 572.348322 
L 82.397629 571.14788 
L 91.480194 569.922302 
L 100.562759 568.671585 
L 109.645323 567.395732 
L 118.727888 566.094741 
L 127.810453 564.768612 
L 136.893017 563.417347 
L 145.975582 562.040944 
L 155.058147 560.639403 
L 164.140711 559.212726 
L 173.223276 557.76091 
L 182.305841 556.283958 
L 191.388405 554.781868 
L 200.47097 553.254641 
L 209.553535 551.702276 
L 218.636099 550.124774 
L 227.718664 548.522135 
L 236.801229 546.894358 
L 245.883793 545.241444 
L 254.966358 543.563393 
L 264.048923 541.860204 
L 273.131487 540.131878 
L 282.214052 538.378415 
L 291.296617 536.599814 
L 300.379181 534.796076 
L 309.461746 532.9672 
L 318.544311 531.113187 
L 327.626875 529.234037 
L 336.70944 527.329749 
L 345.792005 525.400324 
L 354.874569 523.445762 
L 363.957134 521.466062 
L 373.039699 519.461225 
L 382.122263 517.431251 
L 391.204828 515.376139 
L 400.287393 513.29589 
L 409.369958 511.190503 
L 418.452522 509.059979 
L 427.535087 506.904318 
L 436.617652 504.723519 
L 445.700216 502.517584 
L 454.782781 500.28651 
L 463.865346 498.030299 
L 472.94791 495.748951 
L 482.030475 493.442466 
L 491.11304 491.110843 
L 500.195604 488.754083 
L 509.278169 486.372186 
L 518.360734 483.965151 
L 527.443298 481.532979 
L 536.525863 479.075669 
L 545.608428 476.593222 
L 554.690992 474.085638 
L 563.773557 471.552916 
L 572.856122 468.995057 
L 581.938686 466.412061 
L 591.021251 463.803927 
L 600.103816 461.170656 
L 609.18638 458.512247 
L 618.268945 455.828701 
L 627.35151 453.120018 
L 636.434074 450.386198 
L 645.516639 447.62724 
L 654.599204 444.843145 
L 663.681768 442.033912 
L 672.764333 439.199542 
L 681.846898 436.340035 
L 690.929462 433.45539 
L 700.012027 430.545608 
L 709.094592 427.610688 
L 718.177156 424.650631 
L 727.259721 421.665437 
L 736.342286 418.655106 
L 745.42485 415.619637 
L 754.507415 412.559031 
L 763.58998 409.473287 
L 772.672544 406.362406 
L 781.755109 403.226388 
L 790.837674 400.065232 
L 799.920238 396.878939 
L 809.002803 393.667508 
L 818.085368 390.430941 
L 827.167932 387.169236 
L 836.250497 383.882393 
L 845.333062 380.570413 
L 854.415626 377.233296 
L 863.498191 373.871041 
L 872.580756 370.483649 
L 881.66332 367.07112 
L 890.745885 363.633453 
L 899.82845 360.170649 
L 908.911014 356.682708 
L 917.993579 353.169629 
L 927.076144 349.631413 
L 936.158708 346.06806 
L 945.241273 342.479569 
L 954.323838 338.865941 
L 963.406402 335.227175 
" clip-path="url(#p46bf9cb311)" style="fill: none; stroke-dasharray: 3,4.95; stroke-dashoffset: 0; stroke: #e2321d; stroke-opacity: 0.9; stroke-width: 3"/>
   </g>
   <g id="line2d_59">
    <path d="M 64.2325 575.666988 
L 73.315065 576.489097 
L 82.397629 577.186314 
L 91.480194 577.758641 
L 100.562759 578.206077 
L 109.645323 578.528623 
L 118.727888 578.726277 
L 127.810453 578.799041 
L 136.893017 578.746914 
L 145.975582 578.569897 
L 155.058147 578.267988 
L 164.140711 577.841189 
L 173.223276 577.289499 
L 182.305841 576.612919 
L 191.388405 575.811448 
L 200.47097 574.885086 
L 209.553535 573.833833 
L 218.636099 572.657689 
L 227.718664 571.356655 
L 236.801229 569.93073 
L 245.883793 568.379914 
L 254.966358 566.704208 
L 264.048923 564.903611 
L 273.131487 562.978123 
L 282.214052 560.927744 
L 291.296617 558.752475 
L 300.379181 556.452315 
L 309.461746 554.027264 
L 318.544311 551.477322 
L 327.626875 548.80249 
L 336.70944 546.002767 
L 345.792005 543.078153 
L 354.874569 540.028648 
L 363.957134 536.854253 
L 373.039699 533.554967 
L 382.122263 530.13079 
L 391.204828 526.581723 
L 400.287393 522.907765 
L 409.369958 519.108916 
L 418.452522 515.185176 
L 427.535087 511.136546 
L 436.617652 506.963024 
L 445.700216 502.664613 
L 454.782781 498.24131 
L 463.865346 493.693116 
L 472.94791 489.020032 
L 482.030475 484.222058 
L 491.11304 479.299192 
L 500.195604 474.251436 
L 509.278169 469.078789 
L 518.360734 463.781251 
L 527.443298 458.358822 
L 536.525863 452.811503 
L 545.608428 447.139293 
L 554.690992 441.342192 
L 563.773557 435.420201 
L 572.856122 429.373318 
L 581.938686 423.201545 
L 591.021251 416.904882 
L 600.103816 410.483327 
L 609.18638 403.936882 
L 618.268945 397.265546 
L 627.35151 390.46932 
L 636.434074 383.548202 
L 645.516639 376.502194 
L 654.599204 369.331295 
L 663.681768 362.035506 
L 672.764333 354.614825 
L 681.846898 347.069254 
L 690.929462 339.398792 
L 700.012027 331.60344 
L 709.094592 323.683197 
L 718.177156 315.638062 
L 727.259721 307.468038 
L 736.342286 299.173122 
L 745.42485 290.753316 
L 754.507415 282.208619 
L 763.58998 273.539031 
L 772.672544 264.744553 
L 781.755109 255.825184 
L 790.837674 246.780924 
L 799.920238 237.611773 
L 809.002803 228.317732 
L 818.085368 218.8988 
L 827.167932 209.354977 
L 836.250497 199.686263 
L 845.333062 189.892659 
L 854.415626 179.974164 
L 863.498191 169.930778 
L 872.580756 159.762501 
L 881.66332 149.469334 
L 890.745885 139.051276 
L 899.82845 128.508327 
L 908.911014 117.840488 
L 917.993579 107.047758 
L 927.076144 96.130137 
L 936.158708 85.087625 
L 945.241273 73.920223 
L 954.323838 62.627929 
L 963.406402 51.210745 
" clip-path="url(#p46bf9cb311)" style="fill: none; stroke-dasharray: 3,4.95; stroke-dashoffset: 0; stroke: #48b585; stroke-opacity: 0.9; stroke-width: 3"/>
   </g>
   <g id="line2d_60">
    <path d="M 64.2325 578.54175 
L 71.572695 578.54175 
L 78.91289 578.54175 
L 86.253085 578.541608 
L 93.59328 578.541325 
L 100.933476 578.521507 
L 108.273671 578.464883 
L 115.613866 578.378673 
L 122.954061 578.165766 
L 130.294256 578.1761 
L 137.634451 577.809034 
L 144.974646 577.521242 
L 152.314841 577.419035 
L 159.655037 576.578734 
L 166.995232 575.974838 
L 174.335427 575.905898 
L 181.675622 575.49424 
L 189.015817 575.113868 
L 196.356012 574.58061 
L 203.696207 573.31761 
L 211.036402 572.797517 
L 218.376598 572.646755 
L 225.716793 572.369722 
L 233.056988 571.650171 
L 240.397183 570.924958 
L 247.737378 570.839172 
L 255.077573 569.033288 
L 262.417768 568.515743 
L 269.757963 567.4866 
L 277.098159 566.157632 
L 284.438354 564.757743 
L 291.778549 562.722389 
L 299.118744 560.283306 
L 306.458939 559.6804 
L 313.799134 558.479403 
L 321.139329 555.592989 
L 328.479524 554.729613 
L 335.81972 554.294457 
L 343.159915 552.716909 
L 350.50011 550.399567 
L 357.840305 550.358939 
L 365.1805 547.108716 
L 372.520695 546.59018 
L 379.86089 545.017587 
L 387.201085 541.146905 
L 394.54128 539.837472 
L 401.881476 539.519811 
L 409.221671 538.601792 
L 416.561866 538.01276 
L 423.902061 534.725872 
L 431.242256 531.43134 
L 438.582451 530.809041 
L 445.922646 527.943719 
L 453.262841 527.427449 
L 460.603037 527.394182 
L 467.943232 526.169827 
L 475.283427 521.856769 
L 482.623622 520.427576 
L 489.963817 519.509558 
L 497.304012 517.088736 
L 504.644207 515.591028 
L 511.984402 513.881971 
L 519.324598 511.356819 
M 534.004988 511.048925 
L 541.345183 506.479359 
L 548.685378 502.17168 
L 556.025573 499.261342 
L 563.365768 497.768306 
L 570.705963 496.120969 
L 578.046159 495.496264 
L 585.386354 495.117307 
L 592.726549 492.776891 
L 600.066744 487.166291 
L 607.406939 485.65287 
L 614.747134 483.948626 
L 622.087329 478.926634 
L 629.427524 475.579582 
L 636.76772 474.662555 
L 644.107915 472.00108 
L 651.44811 470.854159 
L 658.788305 469.315115 
L 666.1285 464.911742 
L 673.468695 457.015509 
L 680.80889 453.91265 
L 688.149085 445.337211 
L 695.48928 443.466492 
L 702.829476 442.137808 
L 710.169671 444.213931 
L 717.509866 442.41017 
L 724.850061 438.032984 
L 732.190256 434.986607 
L 739.530451 423.672119 
L 746.870646 425.120847 
L 754.210841 416.747415 
L 761.551037 409.871691 
L 768.891232 404.904482 
L 776.231427 396.854091 
L 783.571622 392.912345 
L 790.911817 386.871685 
L 798.252012 390.836222 
L 805.592207 381.368954 
L 812.932402 380.909733 
L 820.272598 377.294425 
L 827.612793 373.214941 
L 834.952988 368.688551 
L 842.293183 375.158422 
L 849.633378 364.165558 
L 856.973573 357.526806 
L 864.313768 351.720428 
L 871.653963 351.181084 
L 878.994159 347.592531 
L 886.334354 333.567163 
L 893.674549 331.956774 
L 901.014744 329.229049 
L 908.354939 337.912073 
L 915.695134 325.659465 
L 923.035329 319.008822 
L 930.375524 325.581182 
L 937.71572 336.680357 
L 945.055915 329.597955 
L 952.39611 300.834464 
L 959.736305 311.345456 
L 967.0765 308.844794 
" clip-path="url(#p46bf9cb311)" style="fill: none; stroke: #4ac1fa; stroke-width: 1.5; stroke-linecap: square"/>
   </g>
   <g id="line2d_61">
    <path d="M 64.2325 578.05365 
L 71.572695 577.424698 
L 78.91289 576.657724 
L 86.253085 576.256826 
L 93.59328 575.568135 
L 100.933476 574.97613 
L 108.273671 574.284183 
L 115.613866 573.738751 
L 122.954061 573.349461 
L 130.294256 573.319875 
L 137.634451 572.268082 
L 144.974646 571.713732 
L 152.314841 572.637837 
L 159.655037 570.678643 
L 166.995232 570.165062 
L 174.335427 569.481609 
L 181.675622 569.023803 
L 189.015817 568.259236 
L 196.356012 567.388924 
L 203.696207 566.742418 
L 211.036402 566.051462 
L 218.376598 564.625242 
L 225.716793 563.314253 
L 233.056988 562.707101 
L 240.397183 561.869205 
L 247.737378 561.554517 
L 255.077573 560.052846 
L 262.417768 559.656194 
L 269.757963 559.106374 
L 277.098159 557.633864 
L 284.438354 556.2109 
L 291.778549 545.020985 
L 299.118744 541.055598 
L 306.458939 545.163677 
L 313.799134 532.903 
L 321.139329 532.143105 
L 328.479524 529.02439 
L 335.81972 529.222292 
L 343.159915 526.213569 
L 350.50011 523.177951 
L 357.840305 523.901041 
L 365.1805 523.675252 
L 372.520695 523.2241 
L 379.86089 526.592102 
L 387.201085 524.049113 
L 394.54128 520.690171 
L 401.881476 521.330165 
L 409.221671 519.771444 
L 416.561866 513.487584 
L 423.902061 509.302071 
L 431.242256 502.075419 
L 438.582451 504.731939 
L 445.922646 502.791289 
L 453.262841 504.409748 
L 460.603037 505.639765 
L 467.943232 504.621522 
L 475.283427 499.062026 
L 482.623622 497.166533 
L 489.963817 498.848694 
L 497.304012 503.125372 
L 504.644207 506.744643 
L 511.984402 508.190965 
L 519.324598 507.831118 
M 534.004988 508.782828 
L 541.345183 497.014922 
L 548.685378 504.59958 
L 556.025573 504.119691 
L 563.365768 503.920233 
L 570.705963 504.261959 
L 578.046159 503.954066 
L 585.386354 500.266562 
L 592.726549 495.228149 
L 600.066744 499.42626 
L 607.406939 497.435073 
L 614.747134 496.026265 
L 622.087329 489.289412 
L 629.427524 484.21306 
L 636.76772 488.102429 
L 644.107915 482.800289 
L 651.44811 493.913337 
L 658.788305 486.352036 
L 666.1285 486.043293 
L 673.468695 483.824053 
L 680.80889 482.558929 
L 688.149085 472.473042 
L 695.48928 472.112913 
L 702.829476 465.401682 
L 710.169671 470.284662 
L 717.509866 475.799425 
L 724.850061 471.408934 
L 732.190256 492.735272 
L 739.530451 528.80936 
L 746.870646 524.288491 
L 754.210841 520.879295 
L 761.551037 516.306474 
L 768.891232 519.057698 
L 776.231427 515.542756 
L 783.571622 513.911982 
L 790.911817 512.346183 
L 798.252012 510.409073 
L 805.592207 509.294427 
L 812.932402 504.797482 
L 820.272598 498.458696 
L 827.612793 499.681069 
L 834.952988 501.287919 
L 842.293183 502.01922 
L 849.633378 496.613174 
L 856.973573 497.194562 
L 864.313768 495.039873 
L 871.653963 495.555153 
L 878.994159 490.03869 
L 886.334354 490.336675 
L 893.674549 490.847566 
L 901.014744 489.272142 
L 908.354939 490.943402 
L 915.695134 487.46739 
L 923.035329 484.25836 
L 930.375524 487.522881 
L 937.71572 497.459846 
L 945.055915 495.154113 
L 952.39611 485.280708 
L 959.736305 483.02268 
L 967.0765 476.133366 
" clip-path="url(#p46bf9cb311)" style="fill: none; stroke: #9a5689; stroke-width: 1.5; stroke-linecap: square"/>
   </g>
   <g id="line2d_62">
    <path d="M 64.2325 578.307892 
L 71.572695 578.187849 
L 78.91289 577.962344 
L 86.253085 577.741793 
L 93.59328 577.492364 
L 100.933476 577.17994 
L 108.273671 576.947498 
L 115.613866 576.657441 
L 122.954061 576.486012 
L 130.294256 576.393573 
L 137.634451 575.982199 
L 144.974646 575.754428 
L 152.314841 576.055244 
L 159.655037 575.362306 
L 166.995232 575.138924 
L 174.335427 574.927575 
L 181.675622 574.680977 
L 189.015817 574.386814 
L 196.356012 574.160884 
L 203.696207 573.952083 
L 211.036402 573.706476 
L 218.376598 573.357954 
L 225.716793 573.083327 
L 233.056988 572.868439 
L 240.397183 572.634581 
L 247.737378 572.54738 
L 255.077573 571.925506 
L 262.417768 571.617471 
L 269.757963 571.447598 
L 277.098159 571.008195 
L 284.438354 570.624708 
L 291.778549 570.214608 
L 299.118744 569.828573 
L 306.458939 564.863347 
L 313.799134 562.040635 
L 321.139329 563.744454 
L 328.479524 560.238431 
L 335.81972 559.849565 
L 343.159915 560.005706 
L 350.50011 561.076751 
L 357.840305 558.434387 
L 365.1805 559.030922 
L 372.520695 560.733467 
L 379.86089 562.287799 
L 387.201085 559.718197 
L 394.54128 561.903038 
L 401.881476 565.704498 
L 409.221671 565.442045 
L 416.561866 565.28647 
L 423.902061 564.899728 
L 431.242256 564.657943 
L 438.582451 564.344104 
L 445.922646 564.24671 
L 453.262841 563.794425 
L 460.603037 563.594401 
L 467.943232 564.062257 
L 475.283427 562.606593 
L 482.623622 562.242925 
L 489.963817 561.954 
L 497.304012 561.353784 
L 504.644207 561.262903 
L 511.984402 561.39144 
L 519.324598 560.88975 
M 534.004988 560.441995 
L 541.345183 559.916806 
L 548.685378 559.852962 
L 556.025573 559.259966 
L 563.365768 558.868128 
L 570.705963 558.853405 
L 578.046159 558.402536 
L 585.386354 558.131023 
L 592.726549 557.479988 
L 600.066744 556.958904 
L 607.406939 557.009583 
L 614.747134 557.204087 
L 622.087329 556.786767 
L 629.427524 556.58929 
L 636.76772 556.480997 
L 644.107915 556.192497 
L 651.44811 556.37964 
L 658.788305 555.723649 
L 666.1285 555.049114 
L 673.468695 554.052955 
L 680.80889 553.836651 
L 688.149085 553.293626 
L 695.48928 552.94199 
L 702.829476 552.314878 
L 710.169671 552.447944 
L 717.509866 552.460402 
L 724.850061 552.23433 
L 732.190256 552.820673 
L 739.530451 551.73349 
L 746.870646 550.523716 
L 754.210841 549.402275 
L 761.551037 548.931587 
L 768.891232 548.791443 
L 776.231427 547.864506 
L 783.571622 547.490504 
L 790.911817 547.256221 
L 798.252012 546.954839 
L 805.592207 546.593861 
L 812.932402 546.394685 
L 820.272598 545.565992 
L 827.612793 545.350395 
L 834.952988 545.707269 
L 842.293183 545.552119 
L 849.633378 544.09787 
L 856.973573 544.251888 
L 864.313768 544.120944 
L 871.653963 543.830463 
L 878.994159 543.460283 
L 886.334354 543.306548 
L 893.674549 542.856953 
L 901.014744 541.888822 
L 908.354939 542.62083 
L 915.695134 540.516678 
L 923.035329 539.905987 
L 930.375524 539.048557 
L 937.71572 541.883301 
L 945.055915 542.316476 
L 952.39611 539.544301 
L 959.736305 537.362574 
L 967.0765 537.073083 
" clip-path="url(#p46bf9cb311)" style="fill: none; stroke: #be503b; stroke-width: 1.5; stroke-linecap: square"/>
   </g>
   <g id="line2d_63">
    <path d="M 64.2325 576.094173 
L 71.572695 575.22924 
L 78.91289 574.271018 
L 86.253085 573.321715 
L 93.59328 572.399308 
L 100.933476 571.075436 
L 108.273671 569.362982 
L 115.613866 567.50656 
L 122.954061 567.001473 
L 130.294256 565.995546 
L 137.634451 563.665039 
L 144.974646 562.432474 
L 152.314841 564.046686 
L 159.655037 559.50345 
L 166.995232 557.912171 
L 174.335427 557.382594 
L 181.675622 557.997107 
L 189.015817 556.431592 
L 196.356012 554.281999 
L 203.696207 553.301836 
L 211.036402 551.985892 
L 218.376598 550.644608 
L 225.716793 548.515825 
L 233.056988 545.175427 
L 240.397183 543.973297 
L 247.737378 544.174313 
L 255.077573 540.871287 
L 262.417768 541.118451 
L 269.757963 540.758463 
L 277.098159 538.114117 
L 284.438354 538.153612 
L 291.778549 536.065882 
L 299.118744 534.093522 
L 306.458939 535.356381 
L 313.799134 533.234959 
L 321.139329 531.564123 
L 328.479524 529.574635 
L 335.81972 531.283126 
L 343.159915 531.956953 
L 350.50011 528.441304 
L 357.840305 526.401278 
L 365.1805 525.73184 
L 372.520695 524.774326 
L 379.86089 523.126848 
L 387.201085 520.401246 
L 394.54128 509.736944 
L 401.881476 468.548991 
L 409.221671 503.141651 
L 416.561866 505.709271 
L 423.902061 504.348877 
L 431.242256 503.667123 
L 438.582451 500.023078 
L 445.922646 498.629842 
L 453.262841 498.05992 
L 460.603037 502.146199 
L 467.943232 496.52201 
L 475.283427 482.886358 
L 482.623622 480.75262 
L 489.963817 480.007446 
L 497.304012 479.335318 
L 504.644207 480.972038 
L 511.984402 483.728783 
L 519.324598 476.89128 
M 534.004988 476.961211 
L 541.345183 479.891508 
L 548.685378 471.781803 
L 556.025573 481.451078 
L 563.365768 467.798439 
L 570.705963 463.343537 
L 578.046159 470.548247 
L 585.386354 470.26725 
L 592.726549 464.109095 
L 600.066744 470.167025 
L 607.406939 470.82981 
L 614.747134 469.7909 
L 622.087329 466.918925 
L 629.427524 467.676838 
L 636.76772 463.792141 
L 644.107915 463.912892 
L 651.44811 468.399787 
L 658.788305 460.582262 
L 666.1285 458.601692 
L 673.468695 455.696026 
L 680.80889 454.364935 
L 688.149085 448.69035 
L 695.48928 444.777765 
L 702.829476 442.064338 
L 710.169671 438.2231 
L 717.509866 437.370765 
L 724.850061 433.743283 
L 732.190256 433.306004 
L 739.530451 426.311086 
L 746.870646 422.830402 
L 754.210841 416.509877 
L 761.551037 408.621997 
L 768.891232 406.681205 
L 776.231427 394.28916 
L 783.571622 393.250391 
L 790.911817 390.315422 
L 798.252012 372.280218 
L 805.592207 369.134607 
L 812.932402 369.078974 
L 820.272598 372.653654 
L 827.612793 371.488613 
L 834.952988 366.68066 
L 842.293183 383.081692 
L 849.633378 368.099943 
L 856.973573 368.870456 
L 864.313768 366.769135 
L 871.653963 358.953026 
L 878.994159 361.464022 
L 886.334354 364.774126 
L 893.674549 361.268244 
L 901.014744 358.986717 
L 908.354939 356.089262 
L 915.695134 349.024979 
L 923.035329 346.095389 
L 930.375524 345.362673 
L 937.71572 374.145275 
L 945.055915 366.227525 
L 952.39611 339.929448 
L 959.736305 355.118017 
L 967.0765 343.504128 
" clip-path="url(#p46bf9cb311)" style="fill: none; stroke: #e2321d; stroke-width: 1.5; stroke-linecap: square"/>
   </g>
   <g id="line2d_64">
    <path d="M 64.2325 578.54175 
L 71.572695 578.54175 
L 78.91289 578.54175 
L 86.253085 578.54175 
L 93.59328 578.54175 
L 100.933476 578.54175 
L 108.273671 578.54175 
L 115.613866 578.54175 
L 122.954061 578.54175 
L 130.294256 578.54175 
L 137.634451 578.54175 
L 144.974646 578.531982 
L 152.314841 578.420433 
L 159.655037 578.353758 
L 166.995232 578.31582 
L 174.335427 578.044873 
L 181.675622 577.249305 
L 189.015817 576.558915 
L 196.356012 575.847009 
L 203.696207 575.067436 
L 211.036402 574.253748 
L 218.376598 573.39292 
L 225.716793 572.35684 
L 233.056988 571.308728 
L 240.397183 570.25835 
L 247.737378 569.255537 
L 255.077573 566.686926 
L 262.417768 565.748382 
L 269.757963 564.291585 
L 277.098159 562.173843 
L 284.438354 560.287269 
L 291.778549 557.583751 
L 299.118744 555.101916 
L 306.458939 553.303393 
L 313.799134 549.793689 
L 321.139329 547.236403 
L 328.479524 543.586837 
L 335.81972 541.555589 
L 343.159915 540.803196 
L 350.50011 538.658558 
L 357.840305 535.949944 
L 365.1805 533.311685 
L 372.520695 525.167439 
L 379.86089 521.140899 
L 387.201085 524.649753 
L 394.54128 520.860468 
L 401.881476 514.126445 
L 409.221671 507.814273 
L 416.561866 506.368942 
L 423.902061 501.822451 
L 431.242256 494.89081 
L 438.582451 498.022973 
L 445.922646 497.462819 
L 453.262841 493.889696 
L 460.603037 493.282403 
L 467.943232 493.436137 
L 475.283427 482.699073 
L 482.623622 485.499702 
L 489.963817 478.804467 
L 497.304012 475.892147 
L 504.644207 478.642097 
L 511.984402 477.957229 
L 519.324598 473.19231 
M 534.004988 469.946757 
L 541.345183 466.891037 
L 548.685378 465.476425 
L 556.025573 457.950657 
L 563.365768 459.782871 
L 570.705963 456.155814 
L 578.046159 452.739398 
L 585.386354 446.205825 
L 592.726549 442.449665 
L 600.066744 436.115267 
L 607.406939 425.251649 
L 614.747134 423.974067 
L 622.087329 415.039632 
L 629.427524 415.84058 
L 636.76772 394.609511 
L 644.107915 380.929126 
L 651.44811 390.576601 
L 658.788305 380.969754 
L 666.1285 394.824966 
L 673.468695 375.370054 
L 680.80889 370.892927 
L 688.149085 342.565159 
L 695.48928 331.93016 
L 702.829476 310.079482 
L 710.169671 310.660304 
L 717.509866 304.053403 
L 724.850061 307.101621 
L 732.190256 294.543667 
L 739.530451 265.750165 
L 746.870646 273.953017 
L 754.210841 271.633552 
L 761.551037 280.637069 
L 768.891232 264.356504 
L 776.231427 243.425544 
L 783.571622 232.829332 
L 790.911817 219.693813 
L 798.252012 226.267306 
L 805.592207 200.601295 
L 812.932402 197.233435 
L 820.272598 180.59444 
L 827.612793 180.99548 
L 834.952988 165.337074 
L 842.293183 202.303699 
L 849.633378 170.05641 
L 856.973573 161.149296 
L 864.313768 157.426261 
L 871.653963 158.93954 
L 878.994159 154.764503 
L 886.334354 141.564856 
L 893.674549 126.213211 
L 901.014744 128.341428 
L 908.354939 124.856922 
L 915.695134 117.033452 
L 923.035329 102.874876 
L 930.375524 92.393612 
L 937.71572 149.833251 
L 945.055915 122.512117 
L 952.39611 87.608167 
L 959.736305 90.122702 
L 967.0765 63.125317 
" clip-path="url(#p46bf9cb311)" style="fill: none; stroke: #48b585; stroke-width: 6; stroke-linecap: square"/>
   </g>
   <g id="patch_3">
    <path d="M 64.2325 578.54175 
L 64.2325 24.14175 
" style="fill: none; stroke: #ffffff; stroke-linejoin: miter; stroke-linecap: square"/>
   </g>
   <g id="patch_4">
    <path d="M 967.0765 578.54175 
L 967.0765 24.14175 
" style="fill: none; stroke: #ffffff; stroke-linejoin: miter; stroke-linecap: square"/>
   </g>
   <g id="patch_5">
    <path d="M 64.2325 578.54175 
L 967.0765 578.54175 
" style="fill: none; stroke: #ffffff; stroke-linejoin: miter; stroke-linecap: square"/>
   </g>
   <g id="patch_6">
    <path d="M 64.2325 24.14175 
L 967.0765 24.14175 
" style="fill: none; stroke: #ffffff; stroke-linejoin: miter; stroke-linecap: square"/>
   </g>
   <g id="text_30">
    <!-- Enterprise Linux Instances by Distribution (System Age &gt; 1 Week, 2 Week Resample) -->
    <g transform="translate(64.2325 18.14175) scale(0.144 -0.144)">
     <defs>
      <path id="DejaVuSans-45" d="M 628 4666 
L 3578 4666 
L 3578 4134 
L 1259 4134 
L 1259 2753 
L 3481 2753 
L 3481 2222 
L 1259 2222 
L 1259 531 
L 3634 531 
L 3634 0 
L 628 0 
L 628 4666 
z
" transform="scale(0.015625)"/>
      <path id="DejaVuSans-72" d="M 2631 2963 
Q 2534 3019 2420 3045 
Q 2306 3072 2169 3072 
Q 1681 3072 1420 2755 
Q 1159 2438 1159 1844 
L 1159 0 
L 581 0 
L 581 3500 
L 1159 3500 
L 1159 2956 
Q 1341 3275 1631 3429 
Q 1922 3584 2338 3584 
Q 2397 3584 2469 3576 
Q 2541 3569 2628 3553 
L 2631 2963 
z
" transform="scale(0.015625)"/>
      <path id="DejaVuSans-70" d="M 1159 525 
L 1159 -1331 
L 581 -1331 
L 581 3500 
L 1159 3500 
L 1159 2969 
Q 1341 3281 1617 3432 
Q 1894 3584 2278 3584 
Q 2916 3584 3314 3078 
Q 3713 2572 3713 1747 
Q 3713 922 3314 415 
Q 2916 -91 2278 -91 
Q 1894 -91 1617 61 
Q 1341 213 1159 525 
z
M 3116 1747 
Q 3116 2381 2855 2742 
Q 2594 3103 2138 3103 
Q 1681 3103 1420 2742 
Q 1159 2381 1159 1747 
Q 1159 1113 1420 752 
Q 1681 391 2138 391 
Q 2594 391 2855 752 
Q 3116 1113 3116 1747 
z
" transform="scale(0.015625)"/>
      <path id="DejaVuSans-69" d="M 603 3500 
L 1178 3500 
L 1178 0 
L 603 0 
L 603 3500 
z
M 603 4863 
L 1178 4863 
L 1178 4134 
L 603 4134 
L 603 4863 
z
" transform="scale(0.015625)"/>
      <path id="DejaVuSans-20" transform="scale(0.015625)"/>
      <path id="DejaVuSans-4c" d="M 628 4666 
L 1259 4666 
L 1259 531 
L 3531 531 
L 3531 0 
L 628 0 
L 628 4666 
z
" transform="scale(0.015625)"/>
      <path id="DejaVuSans-75" d="M 544 1381 
L 544 3500 
L 1119 3500 
L 1119 1403 
Q 1119 906 1312 657 
Q 1506 409 1894 409 
Q 2359 409 2629 706 
Q 2900 1003 2900 1516 
L 2900 3500 
L 3475 3500 
L 3475 0 
L 2900 0 
L 2900 538 
Q 2691 219 2414 64 
Q 2138 -91 1772 -91 
Q 1169 -91 856 284 
Q 544 659 544 1381 
z
M 1991 3584 
L 1991 3584 
z
" transform="scale(0.015625)"/>
      <path id="DejaVuSans-78" d="M 3513 3500 
L 2247 1797 
L 3578 0 
L 2900 0 
L 1881 1375 
L 863 0 
L 184 0 
L 1544 1831 
L 300 3500 
L 978 3500 
L 1906 2253 
L 2834 3500 
L 3513 3500 
z
" transform="scale(0.015625)"/>
      <path id="DejaVuSans-62" d="M 3116 1747 
Q 3116 2381 2855 2742 
Q 2594 3103 2138 3103 
Q 1681 3103 1420 2742 
Q 1159 2381 1159 1747 
Q 1159 1113 1420 752 
Q 1681 391 2138 391 
Q 2594 391 2855 752 
Q 3116 1113 3116 1747 
z
M 1159 2969 
Q 1341 3281 1617 3432 
Q 1894 3584 2278 3584 
Q 2916 3584 3314 3078 
Q 3713 2572 3713 1747 
Q 3713 922 3314 415 
Q 2916 -91 2278 -91 
Q 1894 -91 1617 61 
Q 1341 213 1159 525 
L 1159 0 
L 581 0 
L 581 4863 
L 1159 4863 
L 1159 2969 
z
" transform="scale(0.015625)"/>
      <path id="DejaVuSans-79" d="M 2059 -325 
Q 1816 -950 1584 -1140 
Q 1353 -1331 966 -1331 
L 506 -1331 
L 506 -850 
L 844 -850 
Q 1081 -850 1212 -737 
Q 1344 -625 1503 -206 
L 1606 56 
L 191 3500 
L 800 3500 
L 1894 763 
L 2988 3500 
L 3597 3500 
L 2059 -325 
z
" transform="scale(0.015625)"/>
      <path id="DejaVuSans-6f" d="M 1959 3097 
Q 1497 3097 1228 2736 
Q 959 2375 959 1747 
Q 959 1119 1226 758 
Q 1494 397 1959 397 
Q 2419 397 2687 759 
Q 2956 1122 2956 1747 
Q 2956 2369 2687 2733 
Q 2419 3097 1959 3097 
z
M 1959 3584 
Q 2709 3584 3137 3096 
Q 3566 2609 3566 1747 
Q 3566 888 3137 398 
Q 2709 -91 1959 -91 
Q 1206 -91 779 398 
Q 353 888 353 1747 
Q 353 2609 779 3096 
Q 1206 3584 1959 3584 
z
" transform="scale(0.015625)"/>
      <path id="DejaVuSans-28" d="M 1984 4856 
Q 1566 4138 1362 3434 
Q 1159 2731 1159 2009 
Q 1159 1288 1364 580 
Q 1569 -128 1984 -844 
L 1484 -844 
Q 1016 -109 783 600 
Q 550 1309 550 2009 
Q 550 2706 781 3412 
Q 1013 4119 1484 4856 
L 1984 4856 
z
" transform="scale(0.015625)"/>
      <path id="DejaVuSans-53" d="M 3425 4513 
L 3425 3897 
Q 3066 4069 2747 4153 
Q 2428 4238 2131 4238 
Q 1616 4238 1336 4038 
Q 1056 3838 1056 3469 
Q 1056 3159 1242 3001 
Q 1428 2844 1947 2747 
L 2328 2669 
Q 3034 2534 3370 2195 
Q 3706 1856 3706 1288 
Q 3706 609 3251 259 
Q 2797 -91 1919 -91 
Q 1588 -91 1214 -16 
Q 841 59 441 206 
L 441 856 
Q 825 641 1194 531 
Q 1563 422 1919 422 
Q 2459 422 2753 634 
Q 3047 847 3047 1241 
Q 3047 1584 2836 1778 
Q 2625 1972 2144 2069 
L 1759 2144 
Q 1053 2284 737 2584 
Q 422 2884 422 3419 
Q 422 4038 858 4394 
Q 1294 4750 2059 4750 
Q 2388 4750 2728 4690 
Q 3069 4631 3425 4513 
z
" transform="scale(0.015625)"/>
      <path id="DejaVuSans-6d" d="M 3328 2828 
Q 3544 3216 3844 3400 
Q 4144 3584 4550 3584 
Q 5097 3584 5394 3201 
Q 5691 2819 5691 2113 
L 5691 0 
L 5113 0 
L 5113 2094 
Q 5113 2597 4934 2840 
Q 4756 3084 4391 3084 
Q 3944 3084 3684 2787 
Q 3425 2491 3425 1978 
L 3425 0 
L 2847 0 
L 2847 2094 
Q 2847 2600 2669 2842 
Q 2491 3084 2119 3084 
Q 1678 3084 1418 2786 
Q 1159 2488 1159 1978 
L 1159 0 
L 581 0 
L 581 3500 
L 1159 3500 
L 1159 2956 
Q 1356 3278 1631 3431 
Q 1906 3584 2284 3584 
Q 2666 3584 2933 3390 
Q 3200 3197 3328 2828 
z
" transform="scale(0.015625)"/>
      <path id="DejaVuSans-41" d="M 2188 4044 
L 1331 1722 
L 3047 1722 
L 2188 4044 
z
M 1831 4666 
L 2547 4666 
L 4325 0 
L 3669 0 
L 3244 1197 
L 1141 1197 
L 716 0 
L 50 0 
L 1831 4666 
z
" transform="scale(0.015625)"/>
      <path id="DejaVuSans-67" d="M 2906 1791 
Q 2906 2416 2648 2759 
Q 2391 3103 1925 3103 
Q 1463 3103 1205 2759 
Q 947 2416 947 1791 
Q 947 1169 1205 825 
Q 1463 481 1925 481 
Q 2391 481 2648 825 
Q 2906 1169 2906 1791 
z
M 3481 434 
Q 3481 -459 3084 -895 
Q 2688 -1331 1869 -1331 
Q 1566 -1331 1297 -1286 
Q 1028 -1241 775 -1147 
L 775 -588 
Q 1028 -725 1275 -790 
Q 1522 -856 1778 -856 
Q 2344 -856 2625 -561 
Q 2906 -266 2906 331 
L 2906 616 
Q 2728 306 2450 153 
Q 2172 0 1784 0 
Q 1141 0 747 490 
Q 353 981 353 1791 
Q 353 2603 747 3093 
Q 1141 3584 1784 3584 
Q 2172 3584 2450 3431 
Q 2728 3278 2906 2969 
L 2906 3500 
L 3481 3500 
L 3481 434 
z
" transform="scale(0.015625)"/>
      <path id="DejaVuSans-3e" d="M 678 3150 
L 678 3719 
L 4684 2266 
L 4684 1747 
L 678 294 
L 678 863 
L 3897 2003 
L 678 3150 
z
" transform="scale(0.015625)"/>
      <path id="DejaVuSans-57" d="M 213 4666 
L 850 4666 
L 1831 722 
L 2809 4666 
L 3519 4666 
L 4500 722 
L 5478 4666 
L 6119 4666 
L 4947 0 
L 4153 0 
L 3169 4050 
L 2175 0 
L 1381 0 
L 213 4666 
z
" transform="scale(0.015625)"/>
      <path id="DejaVuSans-52" d="M 2841 2188 
Q 3044 2119 3236 1894 
Q 3428 1669 3622 1275 
L 4263 0 
L 3584 0 
L 2988 1197 
Q 2756 1666 2539 1819 
Q 2322 1972 1947 1972 
L 1259 1972 
L 1259 0 
L 628 0 
L 628 4666 
L 2053 4666 
Q 2853 4666 3247 4331 
Q 3641 3997 3641 3322 
Q 3641 2881 3436 2590 
Q 3231 2300 2841 2188 
z
M 1259 4147 
L 1259 2491 
L 2053 2491 
Q 2509 2491 2742 2702 
Q 2975 2913 2975 3322 
Q 2975 3731 2742 3939 
Q 2509 4147 2053 4147 
L 1259 4147 
z
" transform="scale(0.015625)"/>
      <path id="DejaVuSans-6c" d="M 603 4863 
L 1178 4863 
L 1178 0 
L 603 0 
L 603 4863 
z
" transform="scale(0.015625)"/>
      <path id="DejaVuSans-29" d="M 513 4856 
L 1013 4856 
Q 1481 4119 1714 3412 
Q 1947 2706 1947 2009 
Q 1947 1309 1714 600 
Q 1481 -109 1013 -844 
L 513 -844 
Q 928 -128 1133 580 
Q 1338 1288 1338 2009 
Q 1338 2731 1133 3434 
Q 928 4138 513 4856 
z
" transform="scale(0.015625)"/>
     </defs>
     <use xlink:href="#DejaVuSans-45"/>
     <use xlink:href="#DejaVuSans-6e" x="63.183594"/>
     <use xlink:href="#DejaVuSans-74" x="126.5625"/>
     <use xlink:href="#DejaVuSans-65" x="165.771484"/>
     <use xlink:href="#DejaVuSans-72" x="227.294922"/>
     <use xlink:href="#DejaVuSans-70" x="268.408203"/>
     <use xlink:href="#DejaVuSans-72" x="331.884766"/>
     <use xlink:href="#DejaVuSans-69" x="372.998047"/>
     <use xlink:href="#DejaVuSans-73" x="400.78125"/>
     <use xlink:href="#DejaVuSans-65" x="452.880859"/>
     <use xlink:href="#DejaVuSans-20" x="514.404297"/>
     <use xlink:href="#DejaVuSans-4c" x="546.191406"/>
     <use xlink:href="#DejaVuSans-69" x="601.904297"/>
     <use xlink:href="#DejaVuSans-6e" x="629.6875"/>
     <use xlink:href="#DejaVuSans-75" x="693.066406"/>
     <use xlink:href="#DejaVuSans-78" x="756.445312"/>
     <use xlink:href="#DejaVuSans-20" x="815.625"/>
     <use xlink:href="#DejaVuSans-49" x="847.412109"/>
     <use xlink:href="#DejaVuSans-6e" x="876.904297"/>
     <use xlink:href="#DejaVuSans-73" x="940.283203"/>
     <use xlink:href="#DejaVuSans-74" x="992.382812"/>
     <use xlink:href="#DejaVuSans-61" x="1031.591797"/>
     <use xlink:href="#DejaVuSans-6e" x="1092.871094"/>
     <use xlink:href="#DejaVuSans-63" x="1156.25"/>
     <use xlink:href="#DejaVuSans-65" x="1211.230469"/>
     <use xlink:href="#DejaVuSans-73" x="1272.753906"/>
     <use xlink:href="#DejaVuSans-20" x="1324.853516"/>
     <use xlink:href="#DejaVuSans-62" x="1356.640625"/>
     <use xlink:href="#DejaVuSans-79" x="1420.117188"/>
     <use xlink:href="#DejaVuSans-20" x="1479.296875"/>
     <use xlink:href="#DejaVuSans-44" x="1511.083984"/>
     <use xlink:href="#DejaVuSans-69" x="1588.085938"/>
     <use xlink:href="#DejaVuSans-73" x="1615.869141"/>
     <use xlink:href="#DejaVuSans-74" x="1667.96875"/>
     <use xlink:href="#DejaVuSans-72" x="1707.177734"/>
     <use xlink:href="#DejaVuSans-69" x="1748.291016"/>
     <use xlink:href="#DejaVuSans-62" x="1776.074219"/>
     <use xlink:href="#DejaVuSans-75" x="1839.550781"/>
     <use xlink:href="#DejaVuSans-74" x="1902.929688"/>
     <use xlink:href="#DejaVuSans-69" x="1942.138672"/>
     <use xlink:href="#DejaVuSans-6f" x="1969.921875"/>
     <use xlink:href="#DejaVuSans-6e" x="2031.103516"/>
     <use xlink:href="#DejaVuSans-20" x="2094.482422"/>
     <use xlink:href="#DejaVuSans-28" x="2126.269531"/>
     <use xlink:href="#DejaVuSans-53" x="2165.283203"/>
     <use xlink:href="#DejaVuSans-79" x="2228.759766"/>
     <use xlink:href="#DejaVuSans-73" x="2287.939453"/>
     <use xlink:href="#DejaVuSans-74" x="2340.039062"/>
     <use xlink:href="#DejaVuSans-65" x="2379.248047"/>
     <use xlink:href="#DejaVuSans-6d" x="2440.771484"/>
     <use xlink:href="#DejaVuSans-20" x="2538.183594"/>
     <use xlink:href="#DejaVuSans-41" x="2569.970703"/>
     <use xlink:href="#DejaVuSans-67" x="2638.378906"/>
     <use xlink:href="#DejaVuSans-65" x="2701.855469"/>
     <use xlink:href="#DejaVuSans-20" x="2763.378906"/>
     <use xlink:href="#DejaVuSans-3e" x="2795.166016"/>
     <use xlink:href="#DejaVuSans-20" x="2878.955078"/>
     <use xlink:href="#DejaVuSans-31" x="2910.742188"/>
     <use xlink:href="#DejaVuSans-20" x="2974.365234"/>
     <use xlink:href="#DejaVuSans-57" x="3006.152344"/>
     <use xlink:href="#DejaVuSans-65" x="3099.154297"/>
     <use xlink:href="#DejaVuSans-65" x="3160.677734"/>
     <use xlink:href="#DejaVuSans-6b" x="3222.201172"/>
     <use xlink:href="#DejaVuSans-2c" x="3280.111328"/>
     <use xlink:href="#DejaVuSans-20" x="3311.898438"/>
     <use xlink:href="#DejaVuSans-32" x="3343.685547"/>
     <use xlink:href="#DejaVuSans-20" x="3407.308594"/>
     <use xlink:href="#DejaVuSans-57" x="3439.095703"/>
     <use xlink:href="#DejaVuSans-65" x="3532.097656"/>
     <use xlink:href="#DejaVuSans-65" x="3593.621094"/>
     <use xlink:href="#DejaVuSans-6b" x="3655.144531"/>
     <use xlink:href="#DejaVuSans-20" x="3713.054688"/>
     <use xlink:href="#DejaVuSans-52" x="3744.841797"/>
     <use xlink:href="#DejaVuSans-65" x="3809.824219"/>
     <use xlink:href="#DejaVuSans-73" x="3871.347656"/>
     <use xlink:href="#DejaVuSans-61" x="3923.447266"/>
     <use xlink:href="#DejaVuSans-6d" x="3984.726562"/>
     <use xlink:href="#DejaVuSans-70" x="4082.138672"/>
     <use xlink:href="#DejaVuSans-6c" x="4145.615234"/>
     <use xlink:href="#DejaVuSans-65" x="4173.398438"/>
     <use xlink:href="#DejaVuSans-29" x="4234.921875"/>
    </g>
   </g>
   <g id="text_31">
    <!-- 2025-08-29 09:13 UTC -->
    <g transform="translate(804.1945 18.14175) scale(0.144 -0.144)">
     <defs>
      <path id="DejaVuSans-38" d="M 2034 2216 
Q 1584 2216 1326 1975 
Q 1069 1734 1069 1313 
Q 1069 891 1326 650 
Q 1584 409 2034 409 
Q 2484 409 2743 651 
Q 3003 894 3003 1313 
Q 3003 1734 2745 1975 
Q 2488 2216 2034 2216 
z
M 1403 2484 
Q 997 2584 770 2862 
Q 544 3141 544 3541 
Q 544 4100 942 4425 
Q 1341 4750 2034 4750 
Q 2731 4750 3128 4425 
Q 3525 4100 3525 3541 
Q 3525 3141 3298 2862 
Q 3072 2584 2669 2484 
Q 3125 2378 3379 2068 
Q 3634 1759 3634 1313 
Q 3634 634 3220 271 
Q 2806 -91 2034 -91 
Q 1263 -91 848 271 
Q 434 634 434 1313 
Q 434 1759 690 2068 
Q 947 2378 1403 2484 
z
M 1172 3481 
Q 1172 3119 1398 2916 
Q 1625 2713 2034 2713 
Q 2441 2713 2670 2916 
Q 2900 3119 2900 3481 
Q 2900 3844 2670 4047 
Q 2441 4250 2034 4250 
Q 1625 4250 1398 4047 
Q 1172 3844 1172 3481 
z
" transform="scale(0.015625)"/>
      <path id="DejaVuSans-3a" d="M 750 794 
L 1409 794 
L 1409 0 
L 750 0 
L 750 794 
z
M 750 3309 
L 1409 3309 
L 1409 2516 
L 750 2516 
L 750 3309 
z
" transform="scale(0.015625)"/>
      <path id="DejaVuSans-55" d="M 556 4666 
L 1191 4666 
L 1191 1831 
Q 1191 1081 1462 751 
Q 1734 422 2344 422 
Q 2950 422 3222 751 
Q 3494 1081 3494 1831 
L 3494 4666 
L 4128 4666 
L 4128 1753 
Q 4128 841 3676 375 
Q 3225 -91 2344 -91 
Q 1459 -91 1007 375 
Q 556 841 556 1753 
L 556 4666 
z
" transform="scale(0.015625)"/>
      <path id="DejaVuSans-54" d="M -19 4666 
L 3928 4666 
L 3928 4134 
L 2272 4134 
L 2272 0 
L 1638 0 
L 1638 4134 
L -19 4134 
L -19 4666 
z
" transform="scale(0.015625)"/>
      <path id="DejaVuSans-43" d="M 4122 4306 
L 4122 3641 
Q 3803 3938 3442 4084 
Q 3081 4231 2675 4231 
Q 1875 4231 1450 3742 
Q 1025 3253 1025 2328 
Q 1025 1406 1450 917 
Q 1875 428 2675 428 
Q 3081 428 3442 575 
Q 3803 722 4122 1019 
L 4122 359 
Q 3791 134 3420 21 
Q 3050 -91 2638 -91 
Q 1578 -91 968 557 
Q 359 1206 359 2328 
Q 359 3453 968 4101 
Q 1578 4750 2638 4750 
Q 3056 4750 3426 4639 
Q 3797 4528 4122 4306 
z
" transform="scale(0.015625)"/>
     </defs>
     <use xlink:href="#DejaVuSans-32"/>
     <use xlink:href="#DejaVuSans-30" x="63.623047"/>
     <use xlink:href="#DejaVuSans-32" x="127.246094"/>
     <use xlink:href="#DejaVuSans-35" x="190.869141"/>
     <use xlink:href="#DejaVuSans-2d" x="254.492188"/>
     <use xlink:href="#DejaVuSans-30" x="290.576172"/>
     <use xlink:href="#DejaVuSans-38" x="354.199219"/>
     <use xlink:href="#DejaVuSans-2d" x="417.822266"/>
     <use xlink:href="#DejaVuSans-32" x="453.90625"/>
     <use xlink:href="#DejaVuSans-39" x="517.529297"/>
     <use xlink:href="#DejaVuSans-20" x="581.152344"/>
     <use xlink:href="#DejaVuSans-30" x="612.939453"/>
     <use xlink:href="#DejaVuSans-39" x="676.5625"/>
     <use xlink:href="#DejaVuSans-3a" x="740.185547"/>
     <use xlink:href="#DejaVuSans-31" x="773.876953"/>
     <use xlink:href="#DejaVuSans-33" x="837.5"/>
     <use xlink:href="#DejaVuSans-20" x="901.123047"/>
     <use xlink:href="#DejaVuSans-55" x="932.910156"/>
     <use xlink:href="#DejaVuSans-54" x="1006.103516"/>
     <use xlink:href="#DejaVuSans-43" x="1061.3125"/>
    </g>
   </g>
   <g id="legend_1">
    <g id="patch_7">
     <path d="M 71.2325 120.2105 
L 180.20125 120.2105 
Q 182.20125 120.2105 182.20125 118.2105 
L 182.20125 31.14175 
Q 182.20125 29.14175 180.20125 29.14175 
L 71.2325 29.14175 
Q 69.2325 29.14175 69.2325 31.14175 
L 69.2325 118.2105 
Q 69.2325 120.2105 71.2325 120.2105 
z
" style="fill: #e5e5e5; opacity: 0.8; stroke: #cccccc; stroke-width: 0.5; stroke-linejoin: miter"/>
    </g>
    <g id="text_32">
     <!-- Distribution -->
     <g transform="translate(96.548125 40.740188) scale(0.1 -0.1)">
      <use xlink:href="#DejaVuSans-44"/>
      <use xlink:href="#DejaVuSans-69" x="77.001953"/>
      <use xlink:href="#DejaVuSans-73" x="104.785156"/>
      <use xlink:href="#DejaVuSans-74" x="156.884766"/>
      <use xlink:href="#DejaVuSans-72" x="196.09375"/>
      <use xlink:href="#DejaVuSans-69" x="237.207031"/>
      <use xlink:href="#DejaVuSans-62" x="264.990234"/>
      <use xlink:href="#DejaVuSans-75" x="328.466797"/>
      <use xlink:href="#DejaVuSans-74" x="391.845703"/>
      <use xlink:href="#DejaVuSans-69" x="431.054688"/>
      <use xlink:href="#DejaVuSans-6f" x="458.837891"/>
      <use xlink:href="#DejaVuSans-6e" x="520.019531"/>
     </g>
    </g>
    <g id="line2d_65">
     <path d="M 73.2325 51.918313 
L 83.2325 51.918313 
L 93.2325 51.918313 
" style="fill: none; stroke: #4ac1fa; stroke-width: 1.5; stroke-linecap: square"/>
    </g>
    <g id="text_33">
     <!-- AlmaLinux -->
     <g transform="translate(101.2325 55.418313) scale(0.1 -0.1)">
      <use xlink:href="#DejaVuSans-41"/>
      <use xlink:href="#DejaVuSans-6c" x="68.408203"/>
      <use xlink:href="#DejaVuSans-6d" x="96.191406"/>
      <use xlink:href="#DejaVuSans-61" x="193.603516"/>
      <use xlink:href="#DejaVuSans-4c" x="254.882812"/>
      <use xlink:href="#DejaVuSans-69" x="310.595703"/>
      <use xlink:href="#DejaVuSans-6e" x="338.378906"/>
      <use xlink:href="#DejaVuSans-75" x="401.757812"/>
      <use xlink:href="#DejaVuSans-78" x="465.136719"/>
     </g>
    </g>
    <g id="line2d_66">
     <path d="M 73.2325 66.596438 
L 83.2325 66.596438 
L 93.2325 66.596438 
" style="fill: none; stroke: #9a5689; stroke-width: 1.5; stroke-linecap: square"/>
    </g>
    <g id="text_34">
     <!-- CentOS Stream -->
     <g transform="translate(101.2325 70.096438) scale(0.1 -0.1)">
      <defs>
       <path id="DejaVuSans-4f" d="M 2522 4238 
Q 1834 4238 1429 3725 
Q 1025 3213 1025 2328 
Q 1025 1447 1429 934 
Q 1834 422 2522 422 
Q 3209 422 3611 934 
Q 4013 1447 4013 2328 
Q 4013 3213 3611 3725 
Q 3209 4238 2522 4238 
z
M 2522 4750 
Q 3503 4750 4090 4092 
Q 4678 3434 4678 2328 
Q 4678 1225 4090 567 
Q 3503 -91 2522 -91 
Q 1538 -91 948 565 
Q 359 1222 359 2328 
Q 359 3434 948 4092 
Q 1538 4750 2522 4750 
z
" transform="scale(0.015625)"/>
      </defs>
      <use xlink:href="#DejaVuSans-43"/>
      <use xlink:href="#DejaVuSans-65" x="69.824219"/>
      <use xlink:href="#DejaVuSans-6e" x="131.347656"/>
      <use xlink:href="#DejaVuSans-74" x="194.726562"/>
      <use xlink:href="#DejaVuSans-4f" x="233.935547"/>
      <use xlink:href="#DejaVuSans-53" x="312.646484"/>
      <use xlink:href="#DejaVuSans-20" x="376.123047"/>
      <use xlink:href="#DejaVuSans-53" x="407.910156"/>
      <use xlink:href="#DejaVuSans-74" x="471.386719"/>
      <use xlink:href="#DejaVuSans-72" x="510.595703"/>
      <use xlink:href="#DejaVuSans-65" x="549.458984"/>
      <use xlink:href="#DejaVuSans-61" x="610.982422"/>
      <use xlink:href="#DejaVuSans-6d" x="672.261719"/>
     </g>
    </g>
    <g id="line2d_67">
     <path d="M 73.2325 81.274563 
L 83.2325 81.274563 
L 93.2325 81.274563 
" style="fill: none; stroke: #be503b; stroke-width: 1.5; stroke-linecap: square"/>
    </g>
    <g id="text_35">
     <!-- Oracle -->
     <g transform="translate(101.2325 84.774563) scale(0.1 -0.1)">
      <use xlink:href="#DejaVuSans-4f"/>
      <use xlink:href="#DejaVuSans-72" x="78.710938"/>
      <use xlink:href="#DejaVuSans-61" x="119.824219"/>
      <use xlink:href="#DejaVuSans-63" x="181.103516"/>
      <use xlink:href="#DejaVuSans-6c" x="236.083984"/>
      <use xlink:href="#DejaVuSans-65" x="263.867188"/>
     </g>
    </g>
    <g id="line2d_68">
     <path d="M 73.2325 95.952688 
L 83.2325 95.952688 
L 93.2325 95.952688 
" style="fill: none; stroke: #e2321d; stroke-width: 1.5; stroke-linecap: square"/>
    </g>
    <g id="text_36">
     <!-- RHEL -->
     <g transform="translate(101.2325 99.452688) scale(0.1 -0.1)">
      <defs>
       <path id="DejaVuSans-48" d="M 628 4666 
L 1259 4666 
L 1259 2753 
L 3553 2753 
L 3553 4666 
L 4184 4666 
L 4184 0 
L 3553 0 
L 3553 2222 
L 1259 2222 
L 1259 0 
L 628 0 
L 628 4666 
z
" transform="scale(0.015625)"/>
      </defs>
      <use xlink:href="#DejaVuSans-52"/>
      <use xlink:href="#DejaVuSans-48" x="69.482422"/>
      <use xlink:href="#DejaVuSans-45" x="144.677734"/>
      <use xlink:href="#DejaVuSans-4c" x="207.861328"/>
     </g>
    </g>
    <g id="line2d_69">
     <path d="M 73.2325 110.630813 
L 83.2325 110.630813 
L 93.2325 110.630813 
" style="fill: none; stroke: #48b585; stroke-width: 6; stroke-linecap: square"/>
    </g>
    <g id="text_37">
     <!-- Rocky Linux -->
     <g transform="translate(101.2325 114.130813) scale(0.1 -0.1)">
      <use xlink:href="#DejaVuSans-52"/>
      <use xlink:href="#DejaVuSans-6f" x="64.982422"/>
      <use xlink:href="#DejaVuSans-63" x="126.164062"/>
      <use xlink:href="#DejaVuSans-6b" x="181.144531"/>
      <use xlink:href="#DejaVuSans-79" x="235.429688"/>
      <use xlink:href="#DejaVuSans-20" x="294.609375"/>
      <use xlink:href="#DejaVuSans-4c" x="326.396484"/>
      <use xlink:href="#DejaVuSans-69" x="382.109375"/>
      <use xlink:href="#DejaVuSans-6e" x="409.892578"/>
      <use xlink:href="#DejaVuSans-75" x="473.271484"/>
      <use xlink:href="#DejaVuSans-78" x="536.650391"/>
     </g>
    </g>
   </g>
  </g>
 </g>
 <defs>
  <clipPath id="p46bf9cb311">
   <rect x="64.2325" y="24.14175" width="902.844" height="554.4"/>
  </clipPath>
 </defs>
</svg>
