<?xml version="1.0" encoding="utf-8" standalone="no"?>
<!DOCTYPE svg PUBLIC "-//W3C//DTD SVG 1.1//EN"
  "http://www.w3.org/Graphics/SVG/1.1/DTD/svg11.dtd">
<svg xmlns:xlink="http://www.w3.org/1999/xlink" width="962.123375pt" height="644.743878pt" viewBox="0 0 962.123375 644.743878" xmlns="http://www.w3.org/2000/svg" version="1.1">
 <metadata>
  <rdf:RDF xmlns:dc="http://purl.org/dc/elements/1.1/" xmlns:cc="http://creativecommons.org/ns#" xmlns:rdf="http://www.w3.org/1999/02/22-rdf-syntax-ns#">
   <cc:Work>
    <dc:type rdf:resource="http://purl.org/dc/dcmitype/StillImage"/>
    <dc:date>2025-07-10T11:54:53.063468</dc:date>
    <dc:format>image/svg+xml</dc:format>
    <dc:creator>
     <cc:Agent>
      <dc:title>Matplotlib v3.6.3, https://matplotlib.org/</dc:title>
     </cc:Agent>
    </dc:creator>
   </cc:Work>
  </rdf:RDF>
 </metadata>
 <defs>
  <style type="text/css">*{stroke-linejoin: round; stroke-linecap: butt}</style>
 </defs>
 <g id="figure_1">
  <g id="patch_1">
   <path d="M 0 644.743878 
L 962.123375 644.743878 
L 962.123375 0 
L 0 0 
z
" style="fill: #ffffff"/>
  </g>
  <g id="axes_1">
   <g id="patch_2">
    <path d="M 52.079375 578.54175 
L 954.923375 578.54175 
L 954.923375 24.14175 
L 52.079375 24.14175 
z
" style="fill: #e5e5e5"/>
   </g>
   <g id="matplotlib.axis_1">
    <g id="xtick_1">
     <g id="line2d_1">
      <path d="M 74.840148 578.54175 
L 74.840148 24.14175 
" clip-path="url(#p46d127d7ee)" style="fill: none; stroke: #ffffff; stroke-width: 0.8; stroke-linecap: square"/>
     </g>
     <g id="line2d_2">
      <defs>
       <path id="m7fd22f064d" d="M 0 0 
L 0 3.5 
" style="stroke: #555555; stroke-width: 0.8"/>
      </defs>
      <g>
       <use xlink:href="#m7fd22f064d" x="74.840148" y="578.54175" style="fill: #555555; stroke: #555555; stroke-width: 0.8"/>
      </g>
     </g>
     <g id="text_1">
      <!-- 2024-07 -->
      <g style="fill: #555555" transform="translate(62.018866 620.459567) rotate(-45) scale(0.1 -0.1)">
       <defs>
        <path id="DejaVuSans-32" d="M 1228 531 
L 3431 531 
L 3431 0 
L 469 0 
L 469 531 
Q 828 903 1448 1529 
Q 2069 2156 2228 2338 
Q 2531 2678 2651 2914 
Q 2772 3150 2772 3378 
Q 2772 3750 2511 3984 
Q 2250 4219 1831 4219 
Q 1534 4219 1204 4116 
Q 875 4013 500 3803 
L 500 4441 
Q 881 4594 1212 4672 
Q 1544 4750 1819 4750 
Q 2544 4750 2975 4387 
Q 3406 4025 3406 3419 
Q 3406 3131 3298 2873 
Q 3191 2616 2906 2266 
Q 2828 2175 2409 1742 
Q 1991 1309 1228 531 
z
" transform="scale(0.015625)"/>
        <path id="DejaVuSans-30" d="M 2034 4250 
Q 1547 4250 1301 3770 
Q 1056 3291 1056 2328 
Q 1056 1369 1301 889 
Q 1547 409 2034 409 
Q 2525 409 2770 889 
Q 3016 1369 3016 2328 
Q 3016 3291 2770 3770 
Q 2525 4250 2034 4250 
z
M 2034 4750 
Q 2819 4750 3233 4129 
Q 3647 3509 3647 2328 
Q 3647 1150 3233 529 
Q 2819 -91 2034 -91 
Q 1250 -91 836 529 
Q 422 1150 422 2328 
Q 422 3509 836 4129 
Q 1250 4750 2034 4750 
z
" transform="scale(0.015625)"/>
        <path id="DejaVuSans-34" d="M 2419 4116 
L 825 1625 
L 2419 1625 
L 2419 4116 
z
M 2253 4666 
L 3047 4666 
L 3047 1625 
L 3713 1625 
L 3713 1100 
L 3047 1100 
L 3047 0 
L 2419 0 
L 2419 1100 
L 313 1100 
L 313 1709 
L 2253 4666 
z
" transform="scale(0.015625)"/>
        <path id="DejaVuSans-2d" d="M 313 2009 
L 1997 2009 
L 1997 1497 
L 313 1497 
L 313 2009 
z
" transform="scale(0.015625)"/>
        <path id="DejaVuSans-37" d="M 525 4666 
L 3525 4666 
L 3525 4397 
L 1831 0 
L 1172 0 
L 2766 4134 
L 525 4134 
L 525 4666 
z
" transform="scale(0.015625)"/>
       </defs>
       <use xlink:href="#DejaVuSans-32"/>
       <use xlink:href="#DejaVuSans-30" x="63.623047"/>
       <use xlink:href="#DejaVuSans-32" x="127.246094"/>
       <use xlink:href="#DejaVuSans-34" x="190.869141"/>
       <use xlink:href="#DejaVuSans-2d" x="254.492188"/>
       <use xlink:href="#DejaVuSans-30" x="290.576172"/>
       <use xlink:href="#DejaVuSans-37" x="354.199219"/>
      </g>
     </g>
    </g>
    <g id="xtick_2">
     <g id="line2d_3">
      <path d="M 153.238367 578.54175 
L 153.238367 24.14175 
" clip-path="url(#p46d127d7ee)" style="fill: none; stroke: #ffffff; stroke-width: 0.8; stroke-linecap: square"/>
     </g>
     <g id="line2d_4">
      <g>
       <use xlink:href="#m7fd22f064d" x="153.238367" y="578.54175" style="fill: #555555; stroke: #555555; stroke-width: 0.8"/>
      </g>
     </g>
     <g id="text_2">
      <!-- 2024-08 -->
      <g style="fill: #555555" transform="translate(140.417084 620.459567) rotate(-45) scale(0.1 -0.1)">
       <defs>
        <path id="DejaVuSans-38" d="M 2034 2216 
Q 1584 2216 1326 1975 
Q 1069 1734 1069 1313 
Q 1069 891 1326 650 
Q 1584 409 2034 409 
Q 2484 409 2743 651 
Q 3003 894 3003 1313 
Q 3003 1734 2745 1975 
Q 2488 2216 2034 2216 
z
M 1403 2484 
Q 997 2584 770 2862 
Q 544 3141 544 3541 
Q 544 4100 942 4425 
Q 1341 4750 2034 4750 
Q 2731 4750 3128 4425 
Q 3525 4100 3525 3541 
Q 3525 3141 3298 2862 
Q 3072 2584 2669 2484 
Q 3125 2378 3379 2068 
Q 3634 1759 3634 1313 
Q 3634 634 3220 271 
Q 2806 -91 2034 -91 
Q 1263 -91 848 271 
Q 434 634 434 1313 
Q 434 1759 690 2068 
Q 947 2378 1403 2484 
z
M 1172 3481 
Q 1172 3119 1398 2916 
Q 1625 2713 2034 2713 
Q 2441 2713 2670 2916 
Q 2900 3119 2900 3481 
Q 2900 3844 2670 4047 
Q 2441 4250 2034 4250 
Q 1625 4250 1398 4047 
Q 1172 3844 1172 3481 
z
" transform="scale(0.015625)"/>
       </defs>
       <use xlink:href="#DejaVuSans-32"/>
       <use xlink:href="#DejaVuSans-30" x="63.623047"/>
       <use xlink:href="#DejaVuSans-32" x="127.246094"/>
       <use xlink:href="#DejaVuSans-34" x="190.869141"/>
       <use xlink:href="#DejaVuSans-2d" x="254.492188"/>
       <use xlink:href="#DejaVuSans-30" x="290.576172"/>
       <use xlink:href="#DejaVuSans-38" x="354.199219"/>
      </g>
     </g>
    </g>
    <g id="xtick_3">
     <g id="line2d_5">
      <path d="M 231.636585 578.54175 
L 231.636585 24.14175 
" clip-path="url(#p46d127d7ee)" style="fill: none; stroke: #ffffff; stroke-width: 0.8; stroke-linecap: square"/>
     </g>
     <g id="line2d_6">
      <g>
       <use xlink:href="#m7fd22f064d" x="231.636585" y="578.54175" style="fill: #555555; stroke: #555555; stroke-width: 0.8"/>
      </g>
     </g>
     <g id="text_3">
      <!-- 2024-09 -->
      <g style="fill: #555555" transform="translate(218.815303 620.459567) rotate(-45) scale(0.1 -0.1)">
       <defs>
        <path id="DejaVuSans-39" d="M 703 97 
L 703 672 
Q 941 559 1184 500 
Q 1428 441 1663 441 
Q 2288 441 2617 861 
Q 2947 1281 2994 2138 
Q 2813 1869 2534 1725 
Q 2256 1581 1919 1581 
Q 1219 1581 811 2004 
Q 403 2428 403 3163 
Q 403 3881 828 4315 
Q 1253 4750 1959 4750 
Q 2769 4750 3195 4129 
Q 3622 3509 3622 2328 
Q 3622 1225 3098 567 
Q 2575 -91 1691 -91 
Q 1453 -91 1209 -44 
Q 966 3 703 97 
z
M 1959 2075 
Q 2384 2075 2632 2365 
Q 2881 2656 2881 3163 
Q 2881 3666 2632 3958 
Q 2384 4250 1959 4250 
Q 1534 4250 1286 3958 
Q 1038 3666 1038 3163 
Q 1038 2656 1286 2365 
Q 1534 2075 1959 2075 
z
" transform="scale(0.015625)"/>
       </defs>
       <use xlink:href="#DejaVuSans-32"/>
       <use xlink:href="#DejaVuSans-30" x="63.623047"/>
       <use xlink:href="#DejaVuSans-32" x="127.246094"/>
       <use xlink:href="#DejaVuSans-34" x="190.869141"/>
       <use xlink:href="#DejaVuSans-2d" x="254.492188"/>
       <use xlink:href="#DejaVuSans-30" x="290.576172"/>
       <use xlink:href="#DejaVuSans-39" x="354.199219"/>
      </g>
     </g>
    </g>
    <g id="xtick_4">
     <g id="line2d_7">
      <path d="M 307.505829 578.54175 
L 307.505829 24.14175 
" clip-path="url(#p46d127d7ee)" style="fill: none; stroke: #ffffff; stroke-width: 0.8; stroke-linecap: square"/>
     </g>
     <g id="line2d_8">
      <g>
       <use xlink:href="#m7fd22f064d" x="307.505829" y="578.54175" style="fill: #555555; stroke: #555555; stroke-width: 0.8"/>
      </g>
     </g>
     <g id="text_4">
      <!-- 2024-10 -->
      <g style="fill: #555555" transform="translate(294.684547 620.459567) rotate(-45) scale(0.1 -0.1)">
       <defs>
        <path id="DejaVuSans-31" d="M 794 531 
L 1825 531 
L 1825 4091 
L 703 3866 
L 703 4441 
L 1819 4666 
L 2450 4666 
L 2450 531 
L 3481 531 
L 3481 0 
L 794 0 
L 794 531 
z
" transform="scale(0.015625)"/>
       </defs>
       <use xlink:href="#DejaVuSans-32"/>
       <use xlink:href="#DejaVuSans-30" x="63.623047"/>
       <use xlink:href="#DejaVuSans-32" x="127.246094"/>
       <use xlink:href="#DejaVuSans-34" x="190.869141"/>
       <use xlink:href="#DejaVuSans-2d" x="254.492188"/>
       <use xlink:href="#DejaVuSans-31" x="290.576172"/>
       <use xlink:href="#DejaVuSans-30" x="354.199219"/>
      </g>
     </g>
    </g>
    <g id="xtick_5">
     <g id="line2d_9">
      <path d="M 385.904047 578.54175 
L 385.904047 24.14175 
" clip-path="url(#p46d127d7ee)" style="fill: none; stroke: #ffffff; stroke-width: 0.8; stroke-linecap: square"/>
     </g>
     <g id="line2d_10">
      <g>
       <use xlink:href="#m7fd22f064d" x="385.904047" y="578.54175" style="fill: #555555; stroke: #555555; stroke-width: 0.8"/>
      </g>
     </g>
     <g id="text_5">
      <!-- 2024-11 -->
      <g style="fill: #555555" transform="translate(373.082765 620.459567) rotate(-45) scale(0.1 -0.1)">
       <use xlink:href="#DejaVuSans-32"/>
       <use xlink:href="#DejaVuSans-30" x="63.623047"/>
       <use xlink:href="#DejaVuSans-32" x="127.246094"/>
       <use xlink:href="#DejaVuSans-34" x="190.869141"/>
       <use xlink:href="#DejaVuSans-2d" x="254.492188"/>
       <use xlink:href="#DejaVuSans-31" x="290.576172"/>
       <use xlink:href="#DejaVuSans-31" x="354.199219"/>
      </g>
     </g>
    </g>
    <g id="xtick_6">
     <g id="line2d_11">
      <path d="M 461.773291 578.54175 
L 461.773291 24.14175 
" clip-path="url(#p46d127d7ee)" style="fill: none; stroke: #ffffff; stroke-width: 0.8; stroke-linecap: square"/>
     </g>
     <g id="line2d_12">
      <g>
       <use xlink:href="#m7fd22f064d" x="461.773291" y="578.54175" style="fill: #555555; stroke: #555555; stroke-width: 0.8"/>
      </g>
     </g>
     <g id="text_6">
      <!-- 2024-12 -->
      <g style="fill: #555555" transform="translate(448.952009 620.459567) rotate(-45) scale(0.1 -0.1)">
       <use xlink:href="#DejaVuSans-32"/>
       <use xlink:href="#DejaVuSans-30" x="63.623047"/>
       <use xlink:href="#DejaVuSans-32" x="127.246094"/>
       <use xlink:href="#DejaVuSans-34" x="190.869141"/>
       <use xlink:href="#DejaVuSans-2d" x="254.492188"/>
       <use xlink:href="#DejaVuSans-31" x="290.576172"/>
       <use xlink:href="#DejaVuSans-32" x="354.199219"/>
      </g>
     </g>
    </g>
    <g id="xtick_7">
     <g id="line2d_13">
      <path d="M 540.171509 578.54175 
L 540.171509 24.14175 
" clip-path="url(#p46d127d7ee)" style="fill: none; stroke: #ffffff; stroke-width: 0.8; stroke-linecap: square"/>
     </g>
     <g id="line2d_14">
      <g>
       <use xlink:href="#m7fd22f064d" x="540.171509" y="578.54175" style="fill: #555555; stroke: #555555; stroke-width: 0.8"/>
      </g>
     </g>
     <g id="text_7">
      <!-- 2025-01 -->
      <g style="fill: #555555" transform="translate(527.350227 620.459567) rotate(-45) scale(0.1 -0.1)">
       <defs>
        <path id="DejaVuSans-35" d="M 691 4666 
L 3169 4666 
L 3169 4134 
L 1269 4134 
L 1269 2991 
Q 1406 3038 1543 3061 
Q 1681 3084 1819 3084 
Q 2600 3084 3056 2656 
Q 3513 2228 3513 1497 
Q 3513 744 3044 326 
Q 2575 -91 1722 -91 
Q 1428 -91 1123 -41 
Q 819 9 494 109 
L 494 744 
Q 775 591 1075 516 
Q 1375 441 1709 441 
Q 2250 441 2565 725 
Q 2881 1009 2881 1497 
Q 2881 1984 2565 2268 
Q 2250 2553 1709 2553 
Q 1456 2553 1204 2497 
Q 953 2441 691 2322 
L 691 4666 
z
" transform="scale(0.015625)"/>
       </defs>
       <use xlink:href="#DejaVuSans-32"/>
       <use xlink:href="#DejaVuSans-30" x="63.623047"/>
       <use xlink:href="#DejaVuSans-32" x="127.246094"/>
       <use xlink:href="#DejaVuSans-35" x="190.869141"/>
       <use xlink:href="#DejaVuSans-2d" x="254.492188"/>
       <use xlink:href="#DejaVuSans-30" x="290.576172"/>
       <use xlink:href="#DejaVuSans-31" x="354.199219"/>
      </g>
     </g>
    </g>
    <g id="xtick_8">
     <g id="line2d_15">
      <path d="M 618.569728 578.54175 
L 618.569728 24.14175 
" clip-path="url(#p46d127d7ee)" style="fill: none; stroke: #ffffff; stroke-width: 0.8; stroke-linecap: square"/>
     </g>
     <g id="line2d_16">
      <g>
       <use xlink:href="#m7fd22f064d" x="618.569728" y="578.54175" style="fill: #555555; stroke: #555555; stroke-width: 0.8"/>
      </g>
     </g>
     <g id="text_8">
      <!-- 2025-02 -->
      <g style="fill: #555555" transform="translate(605.748446 620.459567) rotate(-45) scale(0.1 -0.1)">
       <use xlink:href="#DejaVuSans-32"/>
       <use xlink:href="#DejaVuSans-30" x="63.623047"/>
       <use xlink:href="#DejaVuSans-32" x="127.246094"/>
       <use xlink:href="#DejaVuSans-35" x="190.869141"/>
       <use xlink:href="#DejaVuSans-2d" x="254.492188"/>
       <use xlink:href="#DejaVuSans-30" x="290.576172"/>
       <use xlink:href="#DejaVuSans-32" x="354.199219"/>
      </g>
     </g>
    </g>
    <g id="xtick_9">
     <g id="line2d_17">
      <path d="M 689.381022 578.54175 
L 689.381022 24.14175 
" clip-path="url(#p46d127d7ee)" style="fill: none; stroke: #ffffff; stroke-width: 0.8; stroke-linecap: square"/>
     </g>
     <g id="line2d_18">
      <g>
       <use xlink:href="#m7fd22f064d" x="689.381022" y="578.54175" style="fill: #555555; stroke: #555555; stroke-width: 0.8"/>
      </g>
     </g>
     <g id="text_9">
      <!-- 2025-03 -->
      <g style="fill: #555555" transform="translate(676.55974 620.459567) rotate(-45) scale(0.1 -0.1)">
       <defs>
        <path id="DejaVuSans-33" d="M 2597 2516 
Q 3050 2419 3304 2112 
Q 3559 1806 3559 1356 
Q 3559 666 3084 287 
Q 2609 -91 1734 -91 
Q 1441 -91 1130 -33 
Q 819 25 488 141 
L 488 750 
Q 750 597 1062 519 
Q 1375 441 1716 441 
Q 2309 441 2620 675 
Q 2931 909 2931 1356 
Q 2931 1769 2642 2001 
Q 2353 2234 1838 2234 
L 1294 2234 
L 1294 2753 
L 1863 2753 
Q 2328 2753 2575 2939 
Q 2822 3125 2822 3475 
Q 2822 3834 2567 4026 
Q 2313 4219 1838 4219 
Q 1578 4219 1281 4162 
Q 984 4106 628 3988 
L 628 4550 
Q 988 4650 1302 4700 
Q 1616 4750 1894 4750 
Q 2613 4750 3031 4423 
Q 3450 4097 3450 3541 
Q 3450 3153 3228 2886 
Q 3006 2619 2597 2516 
z
" transform="scale(0.015625)"/>
       </defs>
       <use xlink:href="#DejaVuSans-32"/>
       <use xlink:href="#DejaVuSans-30" x="63.623047"/>
       <use xlink:href="#DejaVuSans-32" x="127.246094"/>
       <use xlink:href="#DejaVuSans-35" x="190.869141"/>
       <use xlink:href="#DejaVuSans-2d" x="254.492188"/>
       <use xlink:href="#DejaVuSans-30" x="290.576172"/>
       <use xlink:href="#DejaVuSans-33" x="354.199219"/>
      </g>
     </g>
    </g>
    <g id="xtick_10">
     <g id="line2d_19">
      <path d="M 767.779241 578.54175 
L 767.779241 24.14175 
" clip-path="url(#p46d127d7ee)" style="fill: none; stroke: #ffffff; stroke-width: 0.8; stroke-linecap: square"/>
     </g>
     <g id="line2d_20">
      <g>
       <use xlink:href="#m7fd22f064d" x="767.779241" y="578.54175" style="fill: #555555; stroke: #555555; stroke-width: 0.8"/>
      </g>
     </g>
     <g id="text_10">
      <!-- 2025-04 -->
      <g style="fill: #555555" transform="translate(754.957958 620.459567) rotate(-45) scale(0.1 -0.1)">
       <use xlink:href="#DejaVuSans-32"/>
       <use xlink:href="#DejaVuSans-30" x="63.623047"/>
       <use xlink:href="#DejaVuSans-32" x="127.246094"/>
       <use xlink:href="#DejaVuSans-35" x="190.869141"/>
       <use xlink:href="#DejaVuSans-2d" x="254.492188"/>
       <use xlink:href="#DejaVuSans-30" x="290.576172"/>
       <use xlink:href="#DejaVuSans-34" x="354.199219"/>
      </g>
     </g>
    </g>
    <g id="xtick_11">
     <g id="line2d_21">
      <path d="M 843.648484 578.54175 
L 843.648484 24.14175 
" clip-path="url(#p46d127d7ee)" style="fill: none; stroke: #ffffff; stroke-width: 0.8; stroke-linecap: square"/>
     </g>
     <g id="line2d_22">
      <g>
       <use xlink:href="#m7fd22f064d" x="843.648484" y="578.54175" style="fill: #555555; stroke: #555555; stroke-width: 0.8"/>
      </g>
     </g>
     <g id="text_11">
      <!-- 2025-05 -->
      <g style="fill: #555555" transform="translate(830.827202 620.459567) rotate(-45) scale(0.1 -0.1)">
       <use xlink:href="#DejaVuSans-32"/>
       <use xlink:href="#DejaVuSans-30" x="63.623047"/>
       <use xlink:href="#DejaVuSans-32" x="127.246094"/>
       <use xlink:href="#DejaVuSans-35" x="190.869141"/>
       <use xlink:href="#DejaVuSans-2d" x="254.492188"/>
       <use xlink:href="#DejaVuSans-30" x="290.576172"/>
       <use xlink:href="#DejaVuSans-35" x="354.199219"/>
      </g>
     </g>
    </g>
    <g id="xtick_12">
     <g id="line2d_23">
      <path d="M 922.046703 578.54175 
L 922.046703 24.14175 
" clip-path="url(#p46d127d7ee)" style="fill: none; stroke: #ffffff; stroke-width: 0.8; stroke-linecap: square"/>
     </g>
     <g id="line2d_24">
      <g>
       <use xlink:href="#m7fd22f064d" x="922.046703" y="578.54175" style="fill: #555555; stroke: #555555; stroke-width: 0.8"/>
      </g>
     </g>
     <g id="text_12">
      <!-- 2025-06 -->
      <g style="fill: #555555" transform="translate(909.22542 620.459567) rotate(-45) scale(0.1 -0.1)">
       <defs>
        <path id="DejaVuSans-36" d="M 2113 2584 
Q 1688 2584 1439 2293 
Q 1191 2003 1191 1497 
Q 1191 994 1439 701 
Q 1688 409 2113 409 
Q 2538 409 2786 701 
Q 3034 994 3034 1497 
Q 3034 2003 2786 2293 
Q 2538 2584 2113 2584 
z
M 3366 4563 
L 3366 3988 
Q 3128 4100 2886 4159 
Q 2644 4219 2406 4219 
Q 1781 4219 1451 3797 
Q 1122 3375 1075 2522 
Q 1259 2794 1537 2939 
Q 1816 3084 2150 3084 
Q 2853 3084 3261 2657 
Q 3669 2231 3669 1497 
Q 3669 778 3244 343 
Q 2819 -91 2113 -91 
Q 1303 -91 875 529 
Q 447 1150 447 2328 
Q 447 3434 972 4092 
Q 1497 4750 2381 4750 
Q 2619 4750 2861 4703 
Q 3103 4656 3366 4563 
z
" transform="scale(0.015625)"/>
       </defs>
       <use xlink:href="#DejaVuSans-32"/>
       <use xlink:href="#DejaVuSans-30" x="63.623047"/>
       <use xlink:href="#DejaVuSans-32" x="127.246094"/>
       <use xlink:href="#DejaVuSans-35" x="190.869141"/>
       <use xlink:href="#DejaVuSans-2d" x="254.492188"/>
       <use xlink:href="#DejaVuSans-30" x="290.576172"/>
       <use xlink:href="#DejaVuSans-36" x="354.199219"/>
      </g>
     </g>
    </g>
    <g id="text_13">
     <!-- Date -->
     <g style="fill: #555555" transform="translate(489.160438 635.048253) scale(0.12 -0.12)">
      <defs>
       <path id="DejaVuSans-44" d="M 1259 4147 
L 1259 519 
L 2022 519 
Q 2988 519 3436 956 
Q 3884 1394 3884 2338 
Q 3884 3275 3436 3711 
Q 2988 4147 2022 4147 
L 1259 4147 
z
M 628 4666 
L 1925 4666 
Q 3281 4666 3915 4102 
Q 4550 3538 4550 2338 
Q 4550 1131 3912 565 
Q 3275 0 1925 0 
L 628 0 
L 628 4666 
z
" transform="scale(0.015625)"/>
       <path id="DejaVuSans-61" d="M 2194 1759 
Q 1497 1759 1228 1600 
Q 959 1441 959 1056 
Q 959 750 1161 570 
Q 1363 391 1709 391 
Q 2188 391 2477 730 
Q 2766 1069 2766 1631 
L 2766 1759 
L 2194 1759 
z
M 3341 1997 
L 3341 0 
L 2766 0 
L 2766 531 
Q 2569 213 2275 61 
Q 1981 -91 1556 -91 
Q 1019 -91 701 211 
Q 384 513 384 1019 
Q 384 1609 779 1909 
Q 1175 2209 1959 2209 
L 2766 2209 
L 2766 2266 
Q 2766 2663 2505 2880 
Q 2244 3097 1772 3097 
Q 1472 3097 1187 3025 
Q 903 2953 641 2809 
L 641 3341 
Q 956 3463 1253 3523 
Q 1550 3584 1831 3584 
Q 2591 3584 2966 3190 
Q 3341 2797 3341 1997 
z
" transform="scale(0.015625)"/>
       <path id="DejaVuSans-74" d="M 1172 4494 
L 1172 3500 
L 2356 3500 
L 2356 3053 
L 1172 3053 
L 1172 1153 
Q 1172 725 1289 603 
Q 1406 481 1766 481 
L 2356 481 
L 2356 0 
L 1766 0 
Q 1100 0 847 248 
Q 594 497 594 1153 
L 594 3053 
L 172 3053 
L 172 3500 
L 594 3500 
L 594 4494 
L 1172 4494 
z
" transform="scale(0.015625)"/>
       <path id="DejaVuSans-65" d="M 3597 1894 
L 3597 1613 
L 953 1613 
Q 991 1019 1311 708 
Q 1631 397 2203 397 
Q 2534 397 2845 478 
Q 3156 559 3463 722 
L 3463 178 
Q 3153 47 2828 -22 
Q 2503 -91 2169 -91 
Q 1331 -91 842 396 
Q 353 884 353 1716 
Q 353 2575 817 3079 
Q 1281 3584 2069 3584 
Q 2775 3584 3186 3129 
Q 3597 2675 3597 1894 
z
M 3022 2063 
Q 3016 2534 2758 2815 
Q 2500 3097 2075 3097 
Q 1594 3097 1305 2825 
Q 1016 2553 972 2059 
L 3022 2063 
z
" transform="scale(0.015625)"/>
      </defs>
      <use xlink:href="#DejaVuSans-44"/>
      <use xlink:href="#DejaVuSans-61" x="77.001953"/>
      <use xlink:href="#DejaVuSans-74" x="138.28125"/>
      <use xlink:href="#DejaVuSans-65" x="177.490234"/>
     </g>
    </g>
   </g>
   <g id="matplotlib.axis_2">
    <g id="ytick_1">
     <g id="line2d_25">
      <path d="M 52.079375 578.54175 
L 954.923375 578.54175 
" clip-path="url(#p46d127d7ee)" style="fill: none; stroke: #ffffff; stroke-width: 0.8; stroke-linecap: square"/>
     </g>
     <g id="line2d_26">
      <defs>
       <path id="m877c9398ba" d="M 0 0 
L -3.5 0 
" style="stroke: #555555; stroke-width: 0.8"/>
      </defs>
      <g>
       <use xlink:href="#m877c9398ba" x="52.079375" y="578.54175" style="fill: #555555; stroke: #555555; stroke-width: 0.8"/>
      </g>
     </g>
     <g id="text_14">
      <!-- 0.00 -->
      <g style="fill: #555555" transform="translate(22.81375 582.340969) scale(0.1 -0.1)">
       <defs>
        <path id="DejaVuSans-2e" d="M 684 794 
L 1344 794 
L 1344 0 
L 684 0 
L 684 794 
z
" transform="scale(0.015625)"/>
       </defs>
       <use xlink:href="#DejaVuSans-30"/>
       <use xlink:href="#DejaVuSans-2e" x="63.623047"/>
       <use xlink:href="#DejaVuSans-30" x="95.410156"/>
       <use xlink:href="#DejaVuSans-30" x="159.033203"/>
      </g>
     </g>
    </g>
    <g id="ytick_2">
     <g id="line2d_27">
      <path d="M 52.079375 516.067677 
L 954.923375 516.067677 
" clip-path="url(#p46d127d7ee)" style="fill: none; stroke: #ffffff; stroke-width: 0.8; stroke-linecap: square"/>
     </g>
     <g id="line2d_28">
      <g>
       <use xlink:href="#m877c9398ba" x="52.079375" y="516.067677" style="fill: #555555; stroke: #555555; stroke-width: 0.8"/>
      </g>
     </g>
     <g id="text_15">
      <!-- 0.05 -->
      <g style="fill: #555555" transform="translate(22.81375 519.866896) scale(0.1 -0.1)">
       <use xlink:href="#DejaVuSans-30"/>
       <use xlink:href="#DejaVuSans-2e" x="63.623047"/>
       <use xlink:href="#DejaVuSans-30" x="95.410156"/>
       <use xlink:href="#DejaVuSans-35" x="159.033203"/>
      </g>
     </g>
    </g>
    <g id="ytick_3">
     <g id="line2d_29">
      <path d="M 52.079375 453.593604 
L 954.923375 453.593604 
" clip-path="url(#p46d127d7ee)" style="fill: none; stroke: #ffffff; stroke-width: 0.8; stroke-linecap: square"/>
     </g>
     <g id="line2d_30">
      <g>
       <use xlink:href="#m877c9398ba" x="52.079375" y="453.593604" style="fill: #555555; stroke: #555555; stroke-width: 0.8"/>
      </g>
     </g>
     <g id="text_16">
      <!-- 0.10 -->
      <g style="fill: #555555" transform="translate(22.81375 457.392823) scale(0.1 -0.1)">
       <use xlink:href="#DejaVuSans-30"/>
       <use xlink:href="#DejaVuSans-2e" x="63.623047"/>
       <use xlink:href="#DejaVuSans-31" x="95.410156"/>
       <use xlink:href="#DejaVuSans-30" x="159.033203"/>
      </g>
     </g>
    </g>
    <g id="ytick_4">
     <g id="line2d_31">
      <path d="M 52.079375 391.119532 
L 954.923375 391.119532 
" clip-path="url(#p46d127d7ee)" style="fill: none; stroke: #ffffff; stroke-width: 0.8; stroke-linecap: square"/>
     </g>
     <g id="line2d_32">
      <g>
       <use xlink:href="#m877c9398ba" x="52.079375" y="391.119532" style="fill: #555555; stroke: #555555; stroke-width: 0.8"/>
      </g>
     </g>
     <g id="text_17">
      <!-- 0.15 -->
      <g style="fill: #555555" transform="translate(22.81375 394.91875) scale(0.1 -0.1)">
       <use xlink:href="#DejaVuSans-30"/>
       <use xlink:href="#DejaVuSans-2e" x="63.623047"/>
       <use xlink:href="#DejaVuSans-31" x="95.410156"/>
       <use xlink:href="#DejaVuSans-35" x="159.033203"/>
      </g>
     </g>
    </g>
    <g id="ytick_5">
     <g id="line2d_33">
      <path d="M 52.079375 328.645459 
L 954.923375 328.645459 
" clip-path="url(#p46d127d7ee)" style="fill: none; stroke: #ffffff; stroke-width: 0.8; stroke-linecap: square"/>
     </g>
     <g id="line2d_34">
      <g>
       <use xlink:href="#m877c9398ba" x="52.079375" y="328.645459" style="fill: #555555; stroke: #555555; stroke-width: 0.8"/>
      </g>
     </g>
     <g id="text_18">
      <!-- 0.20 -->
      <g style="fill: #555555" transform="translate(22.81375 332.444678) scale(0.1 -0.1)">
       <use xlink:href="#DejaVuSans-30"/>
       <use xlink:href="#DejaVuSans-2e" x="63.623047"/>
       <use xlink:href="#DejaVuSans-32" x="95.410156"/>
       <use xlink:href="#DejaVuSans-30" x="159.033203"/>
      </g>
     </g>
    </g>
    <g id="ytick_6">
     <g id="line2d_35">
      <path d="M 52.079375 266.171386 
L 954.923375 266.171386 
" clip-path="url(#p46d127d7ee)" style="fill: none; stroke: #ffffff; stroke-width: 0.8; stroke-linecap: square"/>
     </g>
     <g id="line2d_36">
      <g>
       <use xlink:href="#m877c9398ba" x="52.079375" y="266.171386" style="fill: #555555; stroke: #555555; stroke-width: 0.8"/>
      </g>
     </g>
     <g id="text_19">
      <!-- 0.25 -->
      <g style="fill: #555555" transform="translate(22.81375 269.970605) scale(0.1 -0.1)">
       <use xlink:href="#DejaVuSans-30"/>
       <use xlink:href="#DejaVuSans-2e" x="63.623047"/>
       <use xlink:href="#DejaVuSans-32" x="95.410156"/>
       <use xlink:href="#DejaVuSans-35" x="159.033203"/>
      </g>
     </g>
    </g>
    <g id="ytick_7">
     <g id="line2d_37">
      <path d="M 52.079375 203.697313 
L 954.923375 203.697313 
" clip-path="url(#p46d127d7ee)" style="fill: none; stroke: #ffffff; stroke-width: 0.8; stroke-linecap: square"/>
     </g>
     <g id="line2d_38">
      <g>
       <use xlink:href="#m877c9398ba" x="52.079375" y="203.697313" style="fill: #555555; stroke: #555555; stroke-width: 0.8"/>
      </g>
     </g>
     <g id="text_20">
      <!-- 0.30 -->
      <g style="fill: #555555" transform="translate(22.81375 207.496532) scale(0.1 -0.1)">
       <use xlink:href="#DejaVuSans-30"/>
       <use xlink:href="#DejaVuSans-2e" x="63.623047"/>
       <use xlink:href="#DejaVuSans-33" x="95.410156"/>
       <use xlink:href="#DejaVuSans-30" x="159.033203"/>
      </g>
     </g>
    </g>
    <g id="ytick_8">
     <g id="line2d_39">
      <path d="M 52.079375 141.22324 
L 954.923375 141.22324 
" clip-path="url(#p46d127d7ee)" style="fill: none; stroke: #ffffff; stroke-width: 0.8; stroke-linecap: square"/>
     </g>
     <g id="line2d_40">
      <g>
       <use xlink:href="#m877c9398ba" x="52.079375" y="141.22324" style="fill: #555555; stroke: #555555; stroke-width: 0.8"/>
      </g>
     </g>
     <g id="text_21">
      <!-- 0.35 -->
      <g style="fill: #555555" transform="translate(22.81375 145.022459) scale(0.1 -0.1)">
       <use xlink:href="#DejaVuSans-30"/>
       <use xlink:href="#DejaVuSans-2e" x="63.623047"/>
       <use xlink:href="#DejaVuSans-33" x="95.410156"/>
       <use xlink:href="#DejaVuSans-35" x="159.033203"/>
      </g>
     </g>
    </g>
    <g id="ytick_9">
     <g id="line2d_41">
      <path d="M 52.079375 78.749168 
L 954.923375 78.749168 
" clip-path="url(#p46d127d7ee)" style="fill: none; stroke: #ffffff; stroke-width: 0.8; stroke-linecap: square"/>
     </g>
     <g id="line2d_42">
      <g>
       <use xlink:href="#m877c9398ba" x="52.079375" y="78.749168" style="fill: #555555; stroke: #555555; stroke-width: 0.8"/>
      </g>
     </g>
     <g id="text_22">
      <!-- 0.40 -->
      <g style="fill: #555555" transform="translate(22.81375 82.548386) scale(0.1 -0.1)">
       <use xlink:href="#DejaVuSans-30"/>
       <use xlink:href="#DejaVuSans-2e" x="63.623047"/>
       <use xlink:href="#DejaVuSans-34" x="95.410156"/>
       <use xlink:href="#DejaVuSans-30" x="159.033203"/>
      </g>
     </g>
    </g>
    <g id="text_23">
     <!-- Share -->
     <g style="fill: #555555" transform="translate(16.318125 318.653625) rotate(-90) scale(0.12 -0.12)">
      <defs>
       <path id="DejaVuSans-53" d="M 3425 4513 
L 3425 3897 
Q 3066 4069 2747 4153 
Q 2428 4238 2131 4238 
Q 1616 4238 1336 4038 
Q 1056 3838 1056 3469 
Q 1056 3159 1242 3001 
Q 1428 2844 1947 2747 
L 2328 2669 
Q 3034 2534 3370 2195 
Q 3706 1856 3706 1288 
Q 3706 609 3251 259 
Q 2797 -91 1919 -91 
Q 1588 -91 1214 -16 
Q 841 59 441 206 
L 441 856 
Q 825 641 1194 531 
Q 1563 422 1919 422 
Q 2459 422 2753 634 
Q 3047 847 3047 1241 
Q 3047 1584 2836 1778 
Q 2625 1972 2144 2069 
L 1759 2144 
Q 1053 2284 737 2584 
Q 422 2884 422 3419 
Q 422 4038 858 4394 
Q 1294 4750 2059 4750 
Q 2388 4750 2728 4690 
Q 3069 4631 3425 4513 
z
" transform="scale(0.015625)"/>
       <path id="DejaVuSans-68" d="M 3513 2113 
L 3513 0 
L 2938 0 
L 2938 2094 
Q 2938 2591 2744 2837 
Q 2550 3084 2163 3084 
Q 1697 3084 1428 2787 
Q 1159 2491 1159 1978 
L 1159 0 
L 581 0 
L 581 4863 
L 1159 4863 
L 1159 2956 
Q 1366 3272 1645 3428 
Q 1925 3584 2291 3584 
Q 2894 3584 3203 3211 
Q 3513 2838 3513 2113 
z
" transform="scale(0.015625)"/>
       <path id="DejaVuSans-72" d="M 2631 2963 
Q 2534 3019 2420 3045 
Q 2306 3072 2169 3072 
Q 1681 3072 1420 2755 
Q 1159 2438 1159 1844 
L 1159 0 
L 581 0 
L 581 3500 
L 1159 3500 
L 1159 2956 
Q 1341 3275 1631 3429 
Q 1922 3584 2338 3584 
Q 2397 3584 2469 3576 
Q 2541 3569 2628 3553 
L 2631 2963 
z
" transform="scale(0.015625)"/>
      </defs>
      <use xlink:href="#DejaVuSans-53"/>
      <use xlink:href="#DejaVuSans-68" x="63.476562"/>
      <use xlink:href="#DejaVuSans-61" x="126.855469"/>
      <use xlink:href="#DejaVuSans-72" x="188.134766"/>
      <use xlink:href="#DejaVuSans-65" x="226.998047"/>
     </g>
    </g>
   </g>
   <g id="line2d_43">
    <path d="M 52.079375 334.52534 
L 61.199011 334.180398 
L 70.318648 333.835457 
L 79.438284 333.490515 
L 88.55792 333.145574 
L 97.677557 332.800632 
L 106.797193 332.455691 
L 115.91683 332.11075 
L 125.036466 331.765808 
L 134.156102 331.420867 
L 143.275739 331.075925 
L 152.395375 330.730984 
L 161.515011 330.386042 
L 170.634648 330.041101 
L 179.754284 329.696159 
L 188.87392 329.351218 
L 197.993557 329.006276 
L 207.113193 328.661335 
L 216.23283 328.316393 
L 225.352466 327.971452 
L 234.472102 327.626511 
L 243.591739 327.281569 
L 252.711375 326.936628 
L 261.831011 326.591686 
L 270.950648 326.246745 
L 280.070284 325.901803 
L 289.18992 325.556862 
L 298.309557 325.21192 
L 307.429193 324.866979 
L 316.54883 324.522037 
L 325.668466 324.177096 
L 334.788102 323.832155 
L 343.907739 323.487213 
L 353.027375 323.142272 
L 362.147011 322.79733 
L 371.266648 322.452389 
L 380.386284 322.107447 
L 389.50592 321.762506 
L 398.625557 321.417564 
L 407.745193 321.072623 
L 416.86483 320.727681 
L 425.984466 320.38274 
L 435.104102 320.037798 
L 444.223739 319.692857 
L 453.343375 319.347916 
L 462.463011 319.002974 
L 471.582648 318.658033 
L 480.702284 318.313091 
L 489.82192 317.96815 
L 498.941557 317.623208 
L 508.061193 317.278267 
L 517.18083 316.933325 
L 526.300466 316.588384 
L 535.420102 316.243442 
L 544.539739 315.898501 
L 553.659375 315.553559 
L 562.779011 315.208618 
L 571.898648 314.863677 
L 581.018284 314.518735 
L 590.13792 314.173794 
L 599.257557 313.828852 
L 608.377193 313.483911 
L 617.49683 313.138969 
L 626.616466 312.794028 
L 635.736102 312.449086 
L 644.855739 312.104145 
L 653.975375 311.759203 
L 663.095011 311.414262 
L 672.214648 311.069321 
L 681.334284 310.724379 
L 690.45392 310.379438 
L 699.573557 310.034496 
L 708.693193 309.689555 
L 717.81283 309.344613 
L 726.932466 308.999672 
L 736.052102 308.65473 
L 745.171739 308.309789 
L 754.291375 307.964847 
L 763.411011 307.619906 
L 772.530648 307.274964 
L 781.650284 306.930023 
L 790.76992 306.585082 
L 799.889557 306.24014 
L 809.009193 305.895199 
L 818.12883 305.550257 
L 827.248466 305.205316 
L 836.368102 304.860374 
L 845.487739 304.515433 
L 854.607375 304.170491 
L 863.727011 303.82555 
L 872.846648 303.480608 
L 881.966284 303.135667 
L 891.08592 302.790725 
L 900.205557 302.445784 
L 909.325193 302.100843 
L 918.44483 301.755901 
L 927.564466 301.41096 
L 936.684102 301.066018 
L 945.803739 300.721077 
L 954.923375 300.376135 
" clip-path="url(#p46d127d7ee)" style="fill: none; stroke-dasharray: 1.5,2.475; stroke-dashoffset: 0; stroke: #4ac1fa; stroke-width: 1.5"/>
   </g>
   <g id="line2d_44">
    <path d="M 52.079375 449.909405 
L 61.199011 450.777393 
L 70.318648 451.64538 
L 79.438284 452.513367 
L 88.55792 453.381355 
L 97.677557 454.249342 
L 106.797193 455.117329 
L 115.91683 455.985317 
L 125.036466 456.853304 
L 134.156102 457.721291 
L 143.275739 458.589278 
L 152.395375 459.457266 
L 161.515011 460.325253 
L 170.634648 461.19324 
L 179.754284 462.061228 
L 188.87392 462.929215 
L 197.993557 463.797202 
L 207.113193 464.66519 
L 216.23283 465.533177 
L 225.352466 466.401164 
L 234.472102 467.269152 
L 243.591739 468.137139 
L 252.711375 469.005126 
L 261.831011 469.873113 
L 270.950648 470.741101 
L 280.070284 471.609088 
L 289.18992 472.477075 
L 298.309557 473.345063 
L 307.429193 474.21305 
L 316.54883 475.081037 
L 325.668466 475.949025 
L 334.788102 476.817012 
L 343.907739 477.684999 
L 353.027375 478.552987 
L 362.147011 479.420974 
L 371.266648 480.288961 
L 380.386284 481.156948 
L 389.50592 482.024936 
L 398.625557 482.892923 
L 407.745193 483.76091 
L 416.86483 484.628898 
L 425.984466 485.496885 
L 435.104102 486.364872 
L 444.223739 487.23286 
L 453.343375 488.100847 
L 462.463011 488.968834 
L 471.582648 489.836822 
L 480.702284 490.704809 
L 489.82192 491.572796 
L 498.941557 492.440783 
L 508.061193 493.308771 
L 517.18083 494.176758 
L 526.300466 495.044745 
L 535.420102 495.912733 
L 544.539739 496.78072 
L 553.659375 497.648707 
L 562.779011 498.516695 
L 571.898648 499.384682 
L 581.018284 500.252669 
L 590.13792 501.120657 
L 599.257557 501.988644 
L 608.377193 502.856631 
L 617.49683 503.724618 
L 626.616466 504.592606 
L 635.736102 505.460593 
L 644.855739 506.32858 
L 653.975375 507.196568 
L 663.095011 508.064555 
L 672.214648 508.932542 
L 681.334284 509.80053 
L 690.45392 510.668517 
L 699.573557 511.536504 
L 708.693193 512.404491 
L 717.81283 513.272479 
L 726.932466 514.140466 
L 736.052102 515.008453 
L 745.171739 515.876441 
L 754.291375 516.744428 
L 763.411011 517.612415 
L 772.530648 518.480403 
L 781.650284 519.34839 
L 790.76992 520.216377 
L 799.889557 521.084365 
L 809.009193 521.952352 
L 818.12883 522.820339 
L 827.248466 523.688326 
L 836.368102 524.556314 
L 845.487739 525.424301 
L 854.607375 526.292288 
L 863.727011 527.160276 
L 872.846648 528.028263 
L 881.966284 528.89625 
L 891.08592 529.764238 
L 900.205557 530.632225 
L 909.325193 531.500212 
L 918.44483 532.3682 
L 927.564466 533.236187 
L 936.684102 534.104174 
L 945.803739 534.972161 
L 954.923375 535.840149 
" clip-path="url(#p46d127d7ee)" style="fill: none; stroke-dasharray: 1.5,2.475; stroke-dashoffset: 0; stroke: #e9a942; stroke-width: 1.5"/>
   </g>
   <g id="line2d_45">
    <path d="M 52.079375 490.01792 
L 61.199011 489.891338 
L 70.318648 489.764757 
L 79.438284 489.638176 
L 88.55792 489.511594 
L 97.677557 489.385013 
L 106.797193 489.258432 
L 115.91683 489.131851 
L 125.036466 489.005269 
L 134.156102 488.878688 
L 143.275739 488.752107 
L 152.395375 488.625526 
L 161.515011 488.498944 
L 170.634648 488.372363 
L 179.754284 488.245782 
L 188.87392 488.119201 
L 197.993557 487.992619 
L 207.113193 487.866038 
L 216.23283 487.739457 
L 225.352466 487.612875 
L 234.472102 487.486294 
L 243.591739 487.359713 
L 252.711375 487.233132 
L 261.831011 487.10655 
L 270.950648 486.979969 
L 280.070284 486.853388 
L 289.18992 486.726807 
L 298.309557 486.600225 
L 307.429193 486.473644 
L 316.54883 486.347063 
L 325.668466 486.220482 
L 334.788102 486.0939 
L 343.907739 485.967319 
L 353.027375 485.840738 
L 362.147011 485.714156 
L 371.266648 485.587575 
L 380.386284 485.460994 
L 389.50592 485.334413 
L 398.625557 485.207831 
L 407.745193 485.08125 
L 416.86483 484.954669 
L 425.984466 484.828088 
L 435.104102 484.701506 
L 444.223739 484.574925 
L 453.343375 484.448344 
L 462.463011 484.321763 
L 471.582648 484.195181 
L 480.702284 484.0686 
L 489.82192 483.942019 
L 498.941557 483.815438 
L 508.061193 483.688856 
L 517.18083 483.562275 
L 526.300466 483.435694 
L 535.420102 483.309112 
L 544.539739 483.182531 
L 553.659375 483.05595 
L 562.779011 482.929369 
L 571.898648 482.802787 
L 581.018284 482.676206 
L 590.13792 482.549625 
L 599.257557 482.423044 
L 608.377193 482.296462 
L 617.49683 482.169881 
L 626.616466 482.0433 
L 635.736102 481.916719 
L 644.855739 481.790137 
L 653.975375 481.663556 
L 663.095011 481.536975 
L 672.214648 481.410393 
L 681.334284 481.283812 
L 690.45392 481.157231 
L 699.573557 481.03065 
L 708.693193 480.904068 
L 717.81283 480.777487 
L 726.932466 480.650906 
L 736.052102 480.524325 
L 745.171739 480.397743 
L 754.291375 480.271162 
L 763.411011 480.144581 
L 772.530648 480.018 
L 781.650284 479.891418 
L 790.76992 479.764837 
L 799.889557 479.638256 
L 809.009193 479.511674 
L 818.12883 479.385093 
L 827.248466 479.258512 
L 836.368102 479.131931 
L 845.487739 479.005349 
L 854.607375 478.878768 
L 863.727011 478.752187 
L 872.846648 478.625606 
L 881.966284 478.499024 
L 891.08592 478.372443 
L 900.205557 478.245862 
L 909.325193 478.119281 
L 918.44483 477.992699 
L 927.564466 477.866118 
L 936.684102 477.739537 
L 945.803739 477.612955 
L 954.923375 477.486374 
" clip-path="url(#p46d127d7ee)" style="fill: none; stroke-dasharray: 1.5,2.475; stroke-dashoffset: 0; stroke: #9a5689; stroke-width: 1.5"/>
   </g>
   <g id="line2d_46">
    <path d="M 52.079375 536.13578 
L 61.199011 536.156959 
L 70.318648 536.178138 
L 79.438284 536.199317 
L 88.55792 536.220495 
L 97.677557 536.241674 
L 106.797193 536.262853 
L 115.91683 536.284031 
L 125.036466 536.30521 
L 134.156102 536.326389 
L 143.275739 536.347567 
L 152.395375 536.368746 
L 161.515011 536.389925 
L 170.634648 536.411103 
L 179.754284 536.432282 
L 188.87392 536.453461 
L 197.993557 536.47464 
L 207.113193 536.495818 
L 216.23283 536.516997 
L 225.352466 536.538176 
L 234.472102 536.559354 
L 243.591739 536.580533 
L 252.711375 536.601712 
L 261.831011 536.62289 
L 270.950648 536.644069 
L 280.070284 536.665248 
L 289.18992 536.686427 
L 298.309557 536.707605 
L 307.429193 536.728784 
L 316.54883 536.749963 
L 325.668466 536.771141 
L 334.788102 536.79232 
L 343.907739 536.813499 
L 353.027375 536.834677 
L 362.147011 536.855856 
L 371.266648 536.877035 
L 380.386284 536.898214 
L 389.50592 536.919392 
L 398.625557 536.940571 
L 407.745193 536.96175 
L 416.86483 536.982928 
L 425.984466 537.004107 
L 435.104102 537.025286 
L 444.223739 537.046464 
L 453.343375 537.067643 
L 462.463011 537.088822 
L 471.582648 537.110001 
L 480.702284 537.131179 
L 489.82192 537.152358 
L 498.941557 537.173537 
L 508.061193 537.194715 
L 517.18083 537.215894 
L 526.300466 537.237073 
L 535.420102 537.258251 
L 544.539739 537.27943 
L 553.659375 537.300609 
L 562.779011 537.321787 
L 571.898648 537.342966 
L 581.018284 537.364145 
L 590.13792 537.385324 
L 599.257557 537.406502 
L 608.377193 537.427681 
L 617.49683 537.44886 
L 626.616466 537.470038 
L 635.736102 537.491217 
L 644.855739 537.512396 
L 653.975375 537.533574 
L 663.095011 537.554753 
L 672.214648 537.575932 
L 681.334284 537.597111 
L 690.45392 537.618289 
L 699.573557 537.639468 
L 708.693193 537.660647 
L 717.81283 537.681825 
L 726.932466 537.703004 
L 736.052102 537.724183 
L 745.171739 537.745361 
L 754.291375 537.76654 
L 763.411011 537.787719 
L 772.530648 537.808898 
L 781.650284 537.830076 
L 790.76992 537.851255 
L 799.889557 537.872434 
L 809.009193 537.893612 
L 818.12883 537.914791 
L 827.248466 537.93597 
L 836.368102 537.957148 
L 845.487739 537.978327 
L 854.607375 537.999506 
L 863.727011 538.020685 
L 872.846648 538.041863 
L 881.966284 538.063042 
L 891.08592 538.084221 
L 900.205557 538.105399 
L 909.325193 538.126578 
L 918.44483 538.147757 
L 927.564466 538.168935 
L 936.684102 538.190114 
L 945.803739 538.211293 
L 954.923375 538.232471 
" clip-path="url(#p46d127d7ee)" style="fill: none; stroke-dasharray: 1.5,2.475; stroke-dashoffset: 0; stroke: #be503b; stroke-width: 1.5"/>
   </g>
   <g id="line2d_47">
    <path d="M 52.079375 320.652753 
L 61.199011 320.78194 
L 70.318648 320.911128 
L 79.438284 321.040316 
L 88.55792 321.169504 
L 97.677557 321.298692 
L 106.797193 321.427879 
L 115.91683 321.557067 
L 125.036466 321.686255 
L 134.156102 321.815443 
L 143.275739 321.944631 
L 152.395375 322.073818 
L 161.515011 322.203006 
L 170.634648 322.332194 
L 179.754284 322.461382 
L 188.87392 322.59057 
L 197.993557 322.719757 
L 207.113193 322.848945 
L 216.23283 322.978133 
L 225.352466 323.107321 
L 234.472102 323.236509 
L 243.591739 323.365696 
L 252.711375 323.494884 
L 261.831011 323.624072 
L 270.950648 323.75326 
L 280.070284 323.882448 
L 289.18992 324.011635 
L 298.309557 324.140823 
L 307.429193 324.270011 
L 316.54883 324.399199 
L 325.668466 324.528387 
L 334.788102 324.657574 
L 343.907739 324.786762 
L 353.027375 324.91595 
L 362.147011 325.045138 
L 371.266648 325.174326 
L 380.386284 325.303513 
L 389.50592 325.432701 
L 398.625557 325.561889 
L 407.745193 325.691077 
L 416.86483 325.820265 
L 425.984466 325.949452 
L 435.104102 326.07864 
L 444.223739 326.207828 
L 453.343375 326.337016 
L 462.463011 326.466204 
L 471.582648 326.595391 
L 480.702284 326.724579 
L 489.82192 326.853767 
L 498.941557 326.982955 
L 508.061193 327.112143 
L 517.18083 327.24133 
L 526.300466 327.370518 
L 535.420102 327.499706 
L 544.539739 327.628894 
L 553.659375 327.758082 
L 562.779011 327.887269 
L 571.898648 328.016457 
L 581.018284 328.145645 
L 590.13792 328.274833 
L 599.257557 328.404021 
L 608.377193 328.533208 
L 617.49683 328.662396 
L 626.616466 328.791584 
L 635.736102 328.920772 
L 644.855739 329.04996 
L 653.975375 329.179147 
L 663.095011 329.308335 
L 672.214648 329.437523 
L 681.334284 329.566711 
L 690.45392 329.695899 
L 699.573557 329.825086 
L 708.693193 329.954274 
L 717.81283 330.083462 
L 726.932466 330.21265 
L 736.052102 330.341838 
L 745.171739 330.471025 
L 754.291375 330.600213 
L 763.411011 330.729401 
L 772.530648 330.858589 
L 781.650284 330.987777 
L 790.76992 331.116964 
L 799.889557 331.246152 
L 809.009193 331.37534 
L 818.12883 331.504528 
L 827.248466 331.633716 
L 836.368102 331.762903 
L 845.487739 331.892091 
L 854.607375 332.021279 
L 863.727011 332.150467 
L 872.846648 332.279655 
L 881.966284 332.408842 
L 891.08592 332.53803 
L 900.205557 332.667218 
L 909.325193 332.796406 
L 918.44483 332.925594 
L 927.564466 333.054781 
L 936.684102 333.183969 
L 945.803739 333.313157 
L 954.923375 333.442345 
" clip-path="url(#p46d127d7ee)" style="fill: none; stroke-dasharray: 1.5,2.475; stroke-dashoffset: 0; stroke: #e2321d; stroke-width: 1.5"/>
   </g>
   <g id="line2d_48">
    <path d="M 52.079375 118.538863 
L 61.199011 118.002031 
L 70.318648 117.4652 
L 79.438284 116.928368 
L 88.55792 116.391536 
L 97.677557 115.854705 
L 106.797193 115.317873 
L 115.91683 114.781042 
L 125.036466 114.24421 
L 134.156102 113.707378 
L 143.275739 113.170547 
L 152.395375 112.633715 
L 161.515011 112.096884 
L 170.634648 111.560052 
L 179.754284 111.02322 
L 188.87392 110.486389 
L 197.993557 109.949557 
L 207.113193 109.412725 
L 216.23283 108.875894 
L 225.352466 108.339062 
L 234.472102 107.802231 
L 243.591739 107.265399 
L 252.711375 106.728567 
L 261.831011 106.191736 
L 270.950648 105.654904 
L 280.070284 105.118073 
L 289.18992 104.581241 
L 298.309557 104.044409 
L 307.429193 103.507578 
L 316.54883 102.970746 
L 325.668466 102.433914 
L 334.788102 101.897083 
L 343.907739 101.360251 
L 353.027375 100.82342 
L 362.147011 100.286588 
L 371.266648 99.749756 
L 380.386284 99.212925 
L 389.50592 98.676093 
L 398.625557 98.139261 
L 407.745193 97.60243 
L 416.86483 97.065598 
L 425.984466 96.528767 
L 435.104102 95.991935 
L 444.223739 95.455103 
L 453.343375 94.918272 
L 462.463011 94.38144 
L 471.582648 93.844609 
L 480.702284 93.307777 
L 489.82192 92.770945 
L 498.941557 92.234114 
L 508.061193 91.697282 
L 517.18083 91.16045 
L 526.300466 90.623619 
L 535.420102 90.086787 
L 544.539739 89.549956 
L 553.659375 89.013124 
L 562.779011 88.476292 
L 571.898648 87.939461 
L 581.018284 87.402629 
L 590.13792 86.865797 
L 599.257557 86.328966 
L 608.377193 85.792134 
L 617.49683 85.255303 
L 626.616466 84.718471 
L 635.736102 84.181639 
L 644.855739 83.644808 
L 653.975375 83.107976 
L 663.095011 82.571145 
L 672.214648 82.034313 
L 681.334284 81.497481 
L 690.45392 80.96065 
L 699.573557 80.423818 
L 708.693193 79.886986 
L 717.81283 79.350155 
L 726.932466 78.813323 
L 736.052102 78.276492 
L 745.171739 77.73966 
L 754.291375 77.202828 
L 763.411011 76.665997 
L 772.530648 76.129165 
L 781.650284 75.592333 
L 790.76992 75.055502 
L 799.889557 74.51867 
L 809.009193 73.981839 
L 818.12883 73.445007 
L 827.248466 72.908175 
L 836.368102 72.371344 
L 845.487739 71.834512 
L 854.607375 71.297681 
L 863.727011 70.760849 
L 872.846648 70.224017 
L 881.966284 69.687186 
L 891.08592 69.150354 
L 900.205557 68.613522 
L 909.325193 68.076691 
L 918.44483 67.539859 
L 927.564466 67.003028 
L 936.684102 66.466196 
L 945.803739 65.929364 
L 954.923375 65.392533 
" clip-path="url(#p46d127d7ee)" style="fill: none; stroke-dasharray: 1.5,2.475; stroke-dashoffset: 0; stroke: #48b585; stroke-width: 1.5"/>
   </g>
   <g id="line2d_49">
    <path d="M 52.079375 334.498941 
L 69.782199 328.294385 
L 87.485022 323.717006 
L 105.187846 324.53209 
L 122.890669 321.810504 
L 140.593493 324.825057 
L 158.296316 331.470528 
L 175.99914 321.21847 
L 193.701963 324.01746 
L 211.404787 325.581401 
L 229.10761 324.606859 
L 246.810434 324.87008 
L 264.513257 325.472404 
L 282.216081 334.409245 
L 299.918904 330.182668 
L 317.621728 328.440077 
L 335.324551 328.053103 
L 353.027375 331.72123 
L 370.730199 325.385738 
L 388.433022 336.543998 
L 406.135846 320.168345 
L 423.838669 331.3464 
L 441.541493 328.373332 
L 459.244316 329.721904 
L 476.94714 316.095206 
L 494.649963 320.320035 
L 512.352787 325.612542 
L 530.05561 319.386464 
L 547.758434 321.082421 
L 565.461257 315.665097 
L 583.164081 313.679954 
L 600.866904 316.036315 
L 618.569728 315.965058 
L 636.272551 315.24566 
L 653.975375 315.935581 
L 671.678199 312.283468 
L 689.381022 305.860181 
L 707.083846 302.761427 
L 724.786669 303.750434 
L 742.489493 312.990566 
L 760.192316 305.582823 
L 777.89514 298.687373 
L 795.597963 309.759624 
L 813.300787 304.26872 
L 831.00361 302.316971 
L 848.706434 300.303406 
L 866.409257 302.773296 
L 884.112081 298.281181 
L 901.814904 310.535931 
L 919.517728 304.071828 
L 937.220551 293.871561 
L 954.923375 285.054005 
" clip-path="url(#p46d127d7ee)" style="fill: none; stroke: #4ac1fa; stroke-width: 1.5; stroke-linecap: square"/>
   </g>
   <g id="line2d_50">
    <path d="M 52.079375 451.102158 
L 69.782199 454.370361 
L 87.485022 449.576482 
L 105.187846 462.454089 
L 122.890669 466.943341 
L 140.593493 449.737509 
L 158.296316 452.420544 
L 175.99914 468.01162 
L 193.701963 469.087532 
L 211.404787 467.123048 
L 229.10761 461.0795 
L 246.810434 468.531379 
L 264.513257 485.843084 
L 282.216081 470.557324 
L 299.918904 475.897417 
L 317.621728 476.318867 
L 335.324551 482.457256 
L 353.027375 481.041222 
L 370.730199 487.757954 
L 388.433022 483.105429 
L 406.135846 498.151799 
L 423.838669 485.009842 
L 441.541493 482.454922 
L 459.244316 478.059441 
L 476.94714 490.885154 
L 494.649963 490.988563 
L 512.352787 490.264736 
L 530.05561 493.038493 
L 547.758434 486.426562 
L 565.461257 497.651698 
L 583.164081 495.958287 
L 600.866904 492.97055 
L 618.569728 496.958353 
L 636.272551 496.05843 
L 653.975375 497.69723 
L 671.678199 497.347233 
L 689.381022 497.969657 
L 707.083846 499.252443 
L 724.786669 495.619638 
L 742.489493 496.931006 
L 760.192316 513.971546 
L 777.89514 518.809585 
L 795.597963 527.741739 
L 813.300787 536.351612 
L 831.00361 534.21351 
L 848.706434 536.583951 
L 866.409257 536.887467 
L 884.112081 537.580226 
L 901.814904 540.36676 
L 919.517728 539.833655 
L 937.220551 540.619859 
L 954.923375 543.418344 
" clip-path="url(#p46d127d7ee)" style="fill: none; stroke: #e9a942; stroke-width: 1.5; stroke-linecap: square"/>
   </g>
   <g id="line2d_51">
    <path d="M 52.079375 492.762101 
L 69.782199 488.145233 
L 87.485022 484.848258 
L 105.187846 484.498065 
L 122.890669 490.02359 
L 140.593493 492.165073 
L 158.296316 493.631246 
L 175.99914 488.538639 
L 193.701963 490.670483 
L 211.404787 489.738071 
L 229.10761 491.380885 
L 246.810434 490.401521 
L 264.513257 486.454021 
L 282.216081 490.148965 
L 299.918904 490.904904 
L 317.621728 491.110716 
L 335.324551 485.441778 
L 353.027375 486.085849 
L 370.730199 485.045155 
L 388.433022 475.14456 
L 406.135846 476.918145 
L 423.838669 485.838182 
L 441.541493 486.805388 
L 459.244316 486.584072 
L 476.94714 481.306124 
L 494.649963 479.905967 
L 512.352787 479.133414 
L 530.05561 482.241862 
L 547.758434 483.378418 
L 565.461257 482.194383 
L 583.164081 481.444207 
L 600.866904 481.498279 
L 618.569728 484.390438 
L 636.272551 480.764788 
L 653.975375 475.876552 
L 671.678199 478.55691 
L 689.381022 479.605019 
L 707.083846 480.002772 
L 724.786669 481.261093 
L 742.489493 483.665242 
L 760.192316 479.619191 
L 777.89514 479.504607 
L 795.597963 482.351049 
L 813.300787 477.117472 
L 831.00361 475.84984 
L 848.706434 481.514572 
L 866.409257 474.193435 
L 884.112081 480.830634 
L 901.814904 482.500289 
L 919.517728 479.400123 
L 937.220551 481.553544 
L 954.923375 482.166514 
" clip-path="url(#p46d127d7ee)" style="fill: none; stroke: #9a5689; stroke-width: 1.5; stroke-linecap: square"/>
   </g>
   <g id="line2d_52">
    <path d="M 52.079375 534.46933 
L 69.782199 533.592984 
L 87.485022 533.267439 
L 105.187846 534.472282 
L 122.890669 533.720819 
L 140.593493 535.864452 
L 158.296316 536.874777 
L 175.99914 535.042506 
L 193.701963 536.144994 
L 211.404787 536.052071 
L 229.10761 536.871262 
L 246.810434 537.354814 
L 264.513257 536.246693 
L 282.216081 537.178261 
L 299.918904 537.970475 
L 317.621728 538.341198 
L 335.324551 537.888424 
L 353.027375 538.30458 
L 370.730199 537.836396 
L 388.433022 538.128236 
L 406.135846 536.585045 
L 423.838669 538.760528 
L 441.541493 539.411793 
L 459.244316 539.597979 
L 476.94714 536.198844 
L 494.649963 536.434419 
L 512.352787 537.521502 
L 530.05561 537.284707 
L 547.758434 538.638392 
L 565.461257 537.715884 
L 583.164081 538.331136 
L 600.866904 538.722676 
L 618.569728 538.451448 
L 636.272551 538.34672 
L 653.975375 538.699544 
L 671.678199 538.048367 
L 689.381022 539.223171 
L 707.083846 538.974234 
L 724.786669 539.34054 
L 742.489493 539.556153 
L 760.192316 538.267099 
L 777.89514 537.541879 
L 795.597963 537.791924 
L 813.300787 538.195531 
L 831.00361 537.918734 
L 848.706434 535.801018 
L 866.409257 536.239098 
L 884.112081 538.05091 
L 901.814904 537.344377 
L 919.517728 535.0581 
L 937.220551 533.878349 
L 954.923375 536.022454 
" clip-path="url(#p46d127d7ee)" style="fill: none; stroke: #be503b; stroke-width: 1.5; stroke-linecap: square"/>
   </g>
   <g id="line2d_53">
    <path d="M 52.079375 334.270675 
L 69.782199 327.795399 
L 87.485022 320.935123 
L 105.187846 323.514986 
L 122.890669 320.598493 
L 140.593493 331.075309 
L 158.296316 321.793719 
L 175.99914 323.922511 
L 193.701963 323.799881 
L 211.404787 326.7106 
L 229.10761 329.271629 
L 246.810434 329.326799 
L 264.513257 299.511985 
L 282.216081 311.185033 
L 299.918904 312.525717 
L 317.621728 315.125321 
L 335.324551 310.922879 
L 353.027375 319.024782 
L 370.730199 321.928959 
L 388.433022 328.630014 
L 406.135846 323.476471 
L 423.838669 324.134852 
L 441.541493 323.241082 
L 459.244316 330.080786 
L 476.94714 327.733184 
L 494.649963 328.99295 
L 512.352787 327.879751 
L 530.05561 326.514044 
L 547.758434 334.780356 
L 565.461257 328.667327 
L 583.164081 331.563682 
L 600.866904 333.144133 
L 618.569728 322.357719 
L 636.272551 326.805854 
L 653.975375 328.214008 
L 671.678199 331.801895 
L 689.381022 339.971364 
L 707.083846 338.520022 
L 724.786669 338.717209 
L 742.489493 342.292432 
L 760.192316 335.620376 
L 777.89514 334.594779 
L 795.597963 329.423869 
L 813.300787 325.596892 
L 831.00361 327.103102 
L 848.706434 326.7406 
L 866.409257 328.73741 
L 884.112081 330.304228 
L 901.814904 330.224346 
L 919.517728 326.780521 
L 937.220551 330.838844 
L 954.923375 339.748634 
" clip-path="url(#p46d127d7ee)" style="fill: none; stroke: #e2321d; stroke-width: 1.5; stroke-linecap: square"/>
   </g>
   <g id="line2d_54">
    <path d="M 52.079375 101.846618 
L 69.782199 117.781447 
L 87.485022 138.212689 
L 105.187846 120.484464 
L 122.890669 117.478561 
L 140.593493 116.150216 
L 158.296316 113.24839 
L 175.99914 113.726924 
L 193.701963 106.979349 
L 211.404787 105.020416 
L 229.10761 106.973556 
L 246.810434 99.81006 
L 264.513257 118.052733 
L 282.216081 106.414456 
L 299.918904 101.83622 
L 317.621728 99.786212 
L 335.324551 104.945739 
L 353.027375 92.893104 
L 370.730199 91.143691 
L 388.433022 87.08388 
L 406.135846 95.410932 
L 423.838669 83.893711 
L 441.541493 88.760522 
L 459.244316 85.80521 
L 476.94714 99.031508 
L 494.649963 94.984332 
L 512.352787 89.860998 
L 530.05561 91.456286 
L 547.758434 85.789269 
L 565.461257 88.710176 
L 583.164081 89.546519 
L 600.866904 88.453908 
L 618.569728 92.994514 
L 636.272551 93.563466 
L 653.975375 93.883171 
L 671.678199 92.792757 
L 689.381022 87.773212 
L 707.083846 90.997585 
L 724.786669 91.654592 
L 742.489493 74.525777 
L 760.192316 77.446788 
L 777.89514 81.262343 
L 795.597963 63.111152 
L 813.300787 69.685662 
L 831.00361 74.965709 
L 848.706434 70.231968 
L 866.409257 71.95844 
L 884.112081 66.027946 
L 901.814904 48.869207 
L 919.517728 65.384891 
L 937.220551 69.756757 
L 954.923375 63.758257 
" clip-path="url(#p46d127d7ee)" style="fill: none; stroke: #48b585; stroke-width: 6; stroke-linecap: square"/>
   </g>
   <g id="patch_3">
    <path d="M 52.079375 578.54175 
L 52.079375 24.14175 
" style="fill: none; stroke: #ffffff; stroke-linejoin: miter; stroke-linecap: square"/>
   </g>
   <g id="patch_4">
    <path d="M 954.923375 578.54175 
L 954.923375 24.14175 
" style="fill: none; stroke: #ffffff; stroke-linejoin: miter; stroke-linecap: square"/>
   </g>
   <g id="patch_5">
    <path d="M 52.079375 578.54175 
L 954.923375 578.54175 
" style="fill: none; stroke: #ffffff; stroke-linejoin: miter; stroke-linecap: square"/>
   </g>
   <g id="patch_6">
    <path d="M 52.079375 24.14175 
L 954.923375 24.14175 
" style="fill: none; stroke: #ffffff; stroke-linejoin: miter; stroke-linecap: square"/>
   </g>
   <g id="text_24">
    <!-- Enterprise Linux Instances by Distribution Share (System Age &gt; 1 Week) -->
    <g transform="translate(52.079375 18.14175) scale(0.144 -0.144)">
     <defs>
      <path id="DejaVuSans-45" d="M 628 4666 
L 3578 4666 
L 3578 4134 
L 1259 4134 
L 1259 2753 
L 3481 2753 
L 3481 2222 
L 1259 2222 
L 1259 531 
L 3634 531 
L 3634 0 
L 628 0 
L 628 4666 
z
" transform="scale(0.015625)"/>
      <path id="DejaVuSans-6e" d="M 3513 2113 
L 3513 0 
L 2938 0 
L 2938 2094 
Q 2938 2591 2744 2837 
Q 2550 3084 2163 3084 
Q 1697 3084 1428 2787 
Q 1159 2491 1159 1978 
L 1159 0 
L 581 0 
L 581 3500 
L 1159 3500 
L 1159 2956 
Q 1366 3272 1645 3428 
Q 1925 3584 2291 3584 
Q 2894 3584 3203 3211 
Q 3513 2838 3513 2113 
z
" transform="scale(0.015625)"/>
      <path id="DejaVuSans-70" d="M 1159 525 
L 1159 -1331 
L 581 -1331 
L 581 3500 
L 1159 3500 
L 1159 2969 
Q 1341 3281 1617 3432 
Q 1894 3584 2278 3584 
Q 2916 3584 3314 3078 
Q 3713 2572 3713 1747 
Q 3713 922 3314 415 
Q 2916 -91 2278 -91 
Q 1894 -91 1617 61 
Q 1341 213 1159 525 
z
M 3116 1747 
Q 3116 2381 2855 2742 
Q 2594 3103 2138 3103 
Q 1681 3103 1420 2742 
Q 1159 2381 1159 1747 
Q 1159 1113 1420 752 
Q 1681 391 2138 391 
Q 2594 391 2855 752 
Q 3116 1113 3116 1747 
z
" transform="scale(0.015625)"/>
      <path id="DejaVuSans-69" d="M 603 3500 
L 1178 3500 
L 1178 0 
L 603 0 
L 603 3500 
z
M 603 4863 
L 1178 4863 
L 1178 4134 
L 603 4134 
L 603 4863 
z
" transform="scale(0.015625)"/>
      <path id="DejaVuSans-73" d="M 2834 3397 
L 2834 2853 
Q 2591 2978 2328 3040 
Q 2066 3103 1784 3103 
Q 1356 3103 1142 2972 
Q 928 2841 928 2578 
Q 928 2378 1081 2264 
Q 1234 2150 1697 2047 
L 1894 2003 
Q 2506 1872 2764 1633 
Q 3022 1394 3022 966 
Q 3022 478 2636 193 
Q 2250 -91 1575 -91 
Q 1294 -91 989 -36 
Q 684 19 347 128 
L 347 722 
Q 666 556 975 473 
Q 1284 391 1588 391 
Q 1994 391 2212 530 
Q 2431 669 2431 922 
Q 2431 1156 2273 1281 
Q 2116 1406 1581 1522 
L 1381 1569 
Q 847 1681 609 1914 
Q 372 2147 372 2553 
Q 372 3047 722 3315 
Q 1072 3584 1716 3584 
Q 2034 3584 2315 3537 
Q 2597 3491 2834 3397 
z
" transform="scale(0.015625)"/>
      <path id="DejaVuSans-20" transform="scale(0.015625)"/>
      <path id="DejaVuSans-4c" d="M 628 4666 
L 1259 4666 
L 1259 531 
L 3531 531 
L 3531 0 
L 628 0 
L 628 4666 
z
" transform="scale(0.015625)"/>
      <path id="DejaVuSans-75" d="M 544 1381 
L 544 3500 
L 1119 3500 
L 1119 1403 
Q 1119 906 1312 657 
Q 1506 409 1894 409 
Q 2359 409 2629 706 
Q 2900 1003 2900 1516 
L 2900 3500 
L 3475 3500 
L 3475 0 
L 2900 0 
L 2900 538 
Q 2691 219 2414 64 
Q 2138 -91 1772 -91 
Q 1169 -91 856 284 
Q 544 659 544 1381 
z
M 1991 3584 
L 1991 3584 
z
" transform="scale(0.015625)"/>
      <path id="DejaVuSans-78" d="M 3513 3500 
L 2247 1797 
L 3578 0 
L 2900 0 
L 1881 1375 
L 863 0 
L 184 0 
L 1544 1831 
L 300 3500 
L 978 3500 
L 1906 2253 
L 2834 3500 
L 3513 3500 
z
" transform="scale(0.015625)"/>
      <path id="DejaVuSans-49" d="M 628 4666 
L 1259 4666 
L 1259 0 
L 628 0 
L 628 4666 
z
" transform="scale(0.015625)"/>
      <path id="DejaVuSans-63" d="M 3122 3366 
L 3122 2828 
Q 2878 2963 2633 3030 
Q 2388 3097 2138 3097 
Q 1578 3097 1268 2742 
Q 959 2388 959 1747 
Q 959 1106 1268 751 
Q 1578 397 2138 397 
Q 2388 397 2633 464 
Q 2878 531 3122 666 
L 3122 134 
Q 2881 22 2623 -34 
Q 2366 -91 2075 -91 
Q 1284 -91 818 406 
Q 353 903 353 1747 
Q 353 2603 823 3093 
Q 1294 3584 2113 3584 
Q 2378 3584 2631 3529 
Q 2884 3475 3122 3366 
z
" transform="scale(0.015625)"/>
      <path id="DejaVuSans-62" d="M 3116 1747 
Q 3116 2381 2855 2742 
Q 2594 3103 2138 3103 
Q 1681 3103 1420 2742 
Q 1159 2381 1159 1747 
Q 1159 1113 1420 752 
Q 1681 391 2138 391 
Q 2594 391 2855 752 
Q 3116 1113 3116 1747 
z
M 1159 2969 
Q 1341 3281 1617 3432 
Q 1894 3584 2278 3584 
Q 2916 3584 3314 3078 
Q 3713 2572 3713 1747 
Q 3713 922 3314 415 
Q 2916 -91 2278 -91 
Q 1894 -91 1617 61 
Q 1341 213 1159 525 
L 1159 0 
L 581 0 
L 581 4863 
L 1159 4863 
L 1159 2969 
z
" transform="scale(0.015625)"/>
      <path id="DejaVuSans-79" d="M 2059 -325 
Q 1816 -950 1584 -1140 
Q 1353 -1331 966 -1331 
L 506 -1331 
L 506 -850 
L 844 -850 
Q 1081 -850 1212 -737 
Q 1344 -625 1503 -206 
L 1606 56 
L 191 3500 
L 800 3500 
L 1894 763 
L 2988 3500 
L 3597 3500 
L 2059 -325 
z
" transform="scale(0.015625)"/>
      <path id="DejaVuSans-6f" d="M 1959 3097 
Q 1497 3097 1228 2736 
Q 959 2375 959 1747 
Q 959 1119 1226 758 
Q 1494 397 1959 397 
Q 2419 397 2687 759 
Q 2956 1122 2956 1747 
Q 2956 2369 2687 2733 
Q 2419 3097 1959 3097 
z
M 1959 3584 
Q 2709 3584 3137 3096 
Q 3566 2609 3566 1747 
Q 3566 888 3137 398 
Q 2709 -91 1959 -91 
Q 1206 -91 779 398 
Q 353 888 353 1747 
Q 353 2609 779 3096 
Q 1206 3584 1959 3584 
z
" transform="scale(0.015625)"/>
      <path id="DejaVuSans-28" d="M 1984 4856 
Q 1566 4138 1362 3434 
Q 1159 2731 1159 2009 
Q 1159 1288 1364 580 
Q 1569 -128 1984 -844 
L 1484 -844 
Q 1016 -109 783 600 
Q 550 1309 550 2009 
Q 550 2706 781 3412 
Q 1013 4119 1484 4856 
L 1984 4856 
z
" transform="scale(0.015625)"/>
      <path id="DejaVuSans-6d" d="M 3328 2828 
Q 3544 3216 3844 3400 
Q 4144 3584 4550 3584 
Q 5097 3584 5394 3201 
Q 5691 2819 5691 2113 
L 5691 0 
L 5113 0 
L 5113 2094 
Q 5113 2597 4934 2840 
Q 4756 3084 4391 3084 
Q 3944 3084 3684 2787 
Q 3425 2491 3425 1978 
L 3425 0 
L 2847 0 
L 2847 2094 
Q 2847 2600 2669 2842 
Q 2491 3084 2119 3084 
Q 1678 3084 1418 2786 
Q 1159 2488 1159 1978 
L 1159 0 
L 581 0 
L 581 3500 
L 1159 3500 
L 1159 2956 
Q 1356 3278 1631 3431 
Q 1906 3584 2284 3584 
Q 2666 3584 2933 3390 
Q 3200 3197 3328 2828 
z
" transform="scale(0.015625)"/>
      <path id="DejaVuSans-41" d="M 2188 4044 
L 1331 1722 
L 3047 1722 
L 2188 4044 
z
M 1831 4666 
L 2547 4666 
L 4325 0 
L 3669 0 
L 3244 1197 
L 1141 1197 
L 716 0 
L 50 0 
L 1831 4666 
z
" transform="scale(0.015625)"/>
      <path id="DejaVuSans-67" d="M 2906 1791 
Q 2906 2416 2648 2759 
Q 2391 3103 1925 3103 
Q 1463 3103 1205 2759 
Q 947 2416 947 1791 
Q 947 1169 1205 825 
Q 1463 481 1925 481 
Q 2391 481 2648 825 
Q 2906 1169 2906 1791 
z
M 3481 434 
Q 3481 -459 3084 -895 
Q 2688 -1331 1869 -1331 
Q 1566 -1331 1297 -1286 
Q 1028 -1241 775 -1147 
L 775 -588 
Q 1028 -725 1275 -790 
Q 1522 -856 1778 -856 
Q 2344 -856 2625 -561 
Q 2906 -266 2906 331 
L 2906 616 
Q 2728 306 2450 153 
Q 2172 0 1784 0 
Q 1141 0 747 490 
Q 353 981 353 1791 
Q 353 2603 747 3093 
Q 1141 3584 1784 3584 
Q 2172 3584 2450 3431 
Q 2728 3278 2906 2969 
L 2906 3500 
L 3481 3500 
L 3481 434 
z
" transform="scale(0.015625)"/>
      <path id="DejaVuSans-3e" d="M 678 3150 
L 678 3719 
L 4684 2266 
L 4684 1747 
L 678 294 
L 678 863 
L 3897 2003 
L 678 3150 
z
" transform="scale(0.015625)"/>
      <path id="DejaVuSans-57" d="M 213 4666 
L 850 4666 
L 1831 722 
L 2809 4666 
L 3519 4666 
L 4500 722 
L 5478 4666 
L 6119 4666 
L 4947 0 
L 4153 0 
L 3169 4050 
L 2175 0 
L 1381 0 
L 213 4666 
z
" transform="scale(0.015625)"/>
      <path id="DejaVuSans-6b" d="M 581 4863 
L 1159 4863 
L 1159 1991 
L 2875 3500 
L 3609 3500 
L 1753 1863 
L 3688 0 
L 2938 0 
L 1159 1709 
L 1159 0 
L 581 0 
L 581 4863 
z
" transform="scale(0.015625)"/>
      <path id="DejaVuSans-29" d="M 513 4856 
L 1013 4856 
Q 1481 4119 1714 3412 
Q 1947 2706 1947 2009 
Q 1947 1309 1714 600 
Q 1481 -109 1013 -844 
L 513 -844 
Q 928 -128 1133 580 
Q 1338 1288 1338 2009 
Q 1338 2731 1133 3434 
Q 928 4138 513 4856 
z
" transform="scale(0.015625)"/>
     </defs>
     <use xlink:href="#DejaVuSans-45"/>
     <use xlink:href="#DejaVuSans-6e" x="63.183594"/>
     <use xlink:href="#DejaVuSans-74" x="126.5625"/>
     <use xlink:href="#DejaVuSans-65" x="165.771484"/>
     <use xlink:href="#DejaVuSans-72" x="227.294922"/>
     <use xlink:href="#DejaVuSans-70" x="268.408203"/>
     <use xlink:href="#DejaVuSans-72" x="331.884766"/>
     <use xlink:href="#DejaVuSans-69" x="372.998047"/>
     <use xlink:href="#DejaVuSans-73" x="400.78125"/>
     <use xlink:href="#DejaVuSans-65" x="452.880859"/>
     <use xlink:href="#DejaVuSans-20" x="514.404297"/>
     <use xlink:href="#DejaVuSans-4c" x="546.191406"/>
     <use xlink:href="#DejaVuSans-69" x="601.904297"/>
     <use xlink:href="#DejaVuSans-6e" x="629.6875"/>
     <use xlink:href="#DejaVuSans-75" x="693.066406"/>
     <use xlink:href="#DejaVuSans-78" x="756.445312"/>
     <use xlink:href="#DejaVuSans-20" x="815.625"/>
     <use xlink:href="#DejaVuSans-49" x="847.412109"/>
     <use xlink:href="#DejaVuSans-6e" x="876.904297"/>
     <use xlink:href="#DejaVuSans-73" x="940.283203"/>
     <use xlink:href="#DejaVuSans-74" x="992.382812"/>
     <use xlink:href="#DejaVuSans-61" x="1031.591797"/>
     <use xlink:href="#DejaVuSans-6e" x="1092.871094"/>
     <use xlink:href="#DejaVuSans-63" x="1156.25"/>
     <use xlink:href="#DejaVuSans-65" x="1211.230469"/>
     <use xlink:href="#DejaVuSans-73" x="1272.753906"/>
     <use xlink:href="#DejaVuSans-20" x="1324.853516"/>
     <use xlink:href="#DejaVuSans-62" x="1356.640625"/>
     <use xlink:href="#DejaVuSans-79" x="1420.117188"/>
     <use xlink:href="#DejaVuSans-20" x="1479.296875"/>
     <use xlink:href="#DejaVuSans-44" x="1511.083984"/>
     <use xlink:href="#DejaVuSans-69" x="1588.085938"/>
     <use xlink:href="#DejaVuSans-73" x="1615.869141"/>
     <use xlink:href="#DejaVuSans-74" x="1667.96875"/>
     <use xlink:href="#DejaVuSans-72" x="1707.177734"/>
     <use xlink:href="#DejaVuSans-69" x="1748.291016"/>
     <use xlink:href="#DejaVuSans-62" x="1776.074219"/>
     <use xlink:href="#DejaVuSans-75" x="1839.550781"/>
     <use xlink:href="#DejaVuSans-74" x="1902.929688"/>
     <use xlink:href="#DejaVuSans-69" x="1942.138672"/>
     <use xlink:href="#DejaVuSans-6f" x="1969.921875"/>
     <use xlink:href="#DejaVuSans-6e" x="2031.103516"/>
     <use xlink:href="#DejaVuSans-20" x="2094.482422"/>
     <use xlink:href="#DejaVuSans-53" x="2126.269531"/>
     <use xlink:href="#DejaVuSans-68" x="2189.746094"/>
     <use xlink:href="#DejaVuSans-61" x="2253.125"/>
     <use xlink:href="#DejaVuSans-72" x="2314.404297"/>
     <use xlink:href="#DejaVuSans-65" x="2353.267578"/>
     <use xlink:href="#DejaVuSans-20" x="2414.791016"/>
     <use xlink:href="#DejaVuSans-28" x="2446.578125"/>
     <use xlink:href="#DejaVuSans-53" x="2485.591797"/>
     <use xlink:href="#DejaVuSans-79" x="2549.068359"/>
     <use xlink:href="#DejaVuSans-73" x="2608.248047"/>
     <use xlink:href="#DejaVuSans-74" x="2660.347656"/>
     <use xlink:href="#DejaVuSans-65" x="2699.556641"/>
     <use xlink:href="#DejaVuSans-6d" x="2761.080078"/>
     <use xlink:href="#DejaVuSans-20" x="2858.492188"/>
     <use xlink:href="#DejaVuSans-41" x="2890.279297"/>
     <use xlink:href="#DejaVuSans-67" x="2958.6875"/>
     <use xlink:href="#DejaVuSans-65" x="3022.164062"/>
     <use xlink:href="#DejaVuSans-20" x="3083.6875"/>
     <use xlink:href="#DejaVuSans-3e" x="3115.474609"/>
     <use xlink:href="#DejaVuSans-20" x="3199.263672"/>
     <use xlink:href="#DejaVuSans-31" x="3231.050781"/>
     <use xlink:href="#DejaVuSans-20" x="3294.673828"/>
     <use xlink:href="#DejaVuSans-57" x="3326.460938"/>
     <use xlink:href="#DejaVuSans-65" x="3419.462891"/>
     <use xlink:href="#DejaVuSans-65" x="3480.986328"/>
     <use xlink:href="#DejaVuSans-6b" x="3542.509766"/>
     <use xlink:href="#DejaVuSans-29" x="3600.419922"/>
    </g>
   </g>
   <g id="text_25">
    <!-- 2025-07-10 11:54 UTC -->
    <g transform="translate(792.041375 18.14175) scale(0.144 -0.144)">
     <defs>
      <path id="DejaVuSans-3a" d="M 750 794 
L 1409 794 
L 1409 0 
L 750 0 
L 750 794 
z
M 750 3309 
L 1409 3309 
L 1409 2516 
L 750 2516 
L 750 3309 
z
" transform="scale(0.015625)"/>
      <path id="DejaVuSans-55" d="M 556 4666 
L 1191 4666 
L 1191 1831 
Q 1191 1081 1462 751 
Q 1734 422 2344 422 
Q 2950 422 3222 751 
Q 3494 1081 3494 1831 
L 3494 4666 
L 4128 4666 
L 4128 1753 
Q 4128 841 3676 375 
Q 3225 -91 2344 -91 
Q 1459 -91 1007 375 
Q 556 841 556 1753 
L 556 4666 
z
" transform="scale(0.015625)"/>
      <path id="DejaVuSans-54" d="M -19 4666 
L 3928 4666 
L 3928 4134 
L 2272 4134 
L 2272 0 
L 1638 0 
L 1638 4134 
L -19 4134 
L -19 4666 
z
" transform="scale(0.015625)"/>
      <path id="DejaVuSans-43" d="M 4122 4306 
L 4122 3641 
Q 3803 3938 3442 4084 
Q 3081 4231 2675 4231 
Q 1875 4231 1450 3742 
Q 1025 3253 1025 2328 
Q 1025 1406 1450 917 
Q 1875 428 2675 428 
Q 3081 428 3442 575 
Q 3803 722 4122 1019 
L 4122 359 
Q 3791 134 3420 21 
Q 3050 -91 2638 -91 
Q 1578 -91 968 557 
Q 359 1206 359 2328 
Q 359 3453 968 4101 
Q 1578 4750 2638 4750 
Q 3056 4750 3426 4639 
Q 3797 4528 4122 4306 
z
" transform="scale(0.015625)"/>
     </defs>
     <use xlink:href="#DejaVuSans-32"/>
     <use xlink:href="#DejaVuSans-30" x="63.623047"/>
     <use xlink:href="#DejaVuSans-32" x="127.246094"/>
     <use xlink:href="#DejaVuSans-35" x="190.869141"/>
     <use xlink:href="#DejaVuSans-2d" x="254.492188"/>
     <use xlink:href="#DejaVuSans-30" x="290.576172"/>
     <use xlink:href="#DejaVuSans-37" x="354.199219"/>
     <use xlink:href="#DejaVuSans-2d" x="417.822266"/>
     <use xlink:href="#DejaVuSans-31" x="453.90625"/>
     <use xlink:href="#DejaVuSans-30" x="517.529297"/>
     <use xlink:href="#DejaVuSans-20" x="581.152344"/>
     <use xlink:href="#DejaVuSans-31" x="612.939453"/>
     <use xlink:href="#DejaVuSans-31" x="676.5625"/>
     <use xlink:href="#DejaVuSans-3a" x="740.185547"/>
     <use xlink:href="#DejaVuSans-35" x="773.876953"/>
     <use xlink:href="#DejaVuSans-34" x="837.5"/>
     <use xlink:href="#DejaVuSans-20" x="901.123047"/>
     <use xlink:href="#DejaVuSans-55" x="932.910156"/>
     <use xlink:href="#DejaVuSans-54" x="1006.103516"/>
     <use xlink:href="#DejaVuSans-43" x="1061.3125"/>
    </g>
   </g>
   <g id="legend_1">
    <g id="patch_7">
     <path d="M 59.079375 134.888625 
L 168.048125 134.888625 
Q 170.048125 134.888625 170.048125 132.888625 
L 170.048125 31.14175 
Q 170.048125 29.14175 168.048125 29.14175 
L 59.079375 29.14175 
Q 57.079375 29.14175 57.079375 31.14175 
L 57.079375 132.888625 
Q 57.079375 134.888625 59.079375 134.888625 
z
" style="fill: #e5e5e5; opacity: 0.8; stroke: #cccccc; stroke-width: 0.5; stroke-linejoin: miter"/>
    </g>
    <g id="text_26">
     <!-- Distribution -->
     <g transform="translate(84.395 40.740188) scale(0.1 -0.1)">
      <use xlink:href="#DejaVuSans-44"/>
      <use xlink:href="#DejaVuSans-69" x="77.001953"/>
      <use xlink:href="#DejaVuSans-73" x="104.785156"/>
      <use xlink:href="#DejaVuSans-74" x="156.884766"/>
      <use xlink:href="#DejaVuSans-72" x="196.09375"/>
      <use xlink:href="#DejaVuSans-69" x="237.207031"/>
      <use xlink:href="#DejaVuSans-62" x="264.990234"/>
      <use xlink:href="#DejaVuSans-75" x="328.466797"/>
      <use xlink:href="#DejaVuSans-74" x="391.845703"/>
      <use xlink:href="#DejaVuSans-69" x="431.054688"/>
      <use xlink:href="#DejaVuSans-6f" x="458.837891"/>
      <use xlink:href="#DejaVuSans-6e" x="520.019531"/>
     </g>
    </g>
    <g id="line2d_55">
     <path d="M 61.079375 51.918313 
L 71.079375 51.918313 
L 81.079375 51.918313 
" style="fill: none; stroke: #4ac1fa; stroke-width: 1.5; stroke-linecap: square"/>
    </g>
    <g id="text_27">
     <!-- AlmaLinux -->
     <g transform="translate(89.079375 55.418313) scale(0.1 -0.1)">
      <defs>
       <path id="DejaVuSans-6c" d="M 603 4863 
L 1178 4863 
L 1178 0 
L 603 0 
L 603 4863 
z
" transform="scale(0.015625)"/>
      </defs>
      <use xlink:href="#DejaVuSans-41"/>
      <use xlink:href="#DejaVuSans-6c" x="68.408203"/>
      <use xlink:href="#DejaVuSans-6d" x="96.191406"/>
      <use xlink:href="#DejaVuSans-61" x="193.603516"/>
      <use xlink:href="#DejaVuSans-4c" x="254.882812"/>
      <use xlink:href="#DejaVuSans-69" x="310.595703"/>
      <use xlink:href="#DejaVuSans-6e" x="338.378906"/>
      <use xlink:href="#DejaVuSans-75" x="401.757812"/>
      <use xlink:href="#DejaVuSans-78" x="465.136719"/>
     </g>
    </g>
    <g id="line2d_56">
     <path d="M 61.079375 66.596438 
L 71.079375 66.596438 
L 81.079375 66.596438 
" style="fill: none; stroke: #e9a942; stroke-width: 1.5; stroke-linecap: square"/>
    </g>
    <g id="text_28">
     <!-- CentOS Legacy -->
     <g transform="translate(89.079375 70.096438) scale(0.1 -0.1)">
      <defs>
       <path id="DejaVuSans-4f" d="M 2522 4238 
Q 1834 4238 1429 3725 
Q 1025 3213 1025 2328 
Q 1025 1447 1429 934 
Q 1834 422 2522 422 
Q 3209 422 3611 934 
Q 4013 1447 4013 2328 
Q 4013 3213 3611 3725 
Q 3209 4238 2522 4238 
z
M 2522 4750 
Q 3503 4750 4090 4092 
Q 4678 3434 4678 2328 
Q 4678 1225 4090 567 
Q 3503 -91 2522 -91 
Q 1538 -91 948 565 
Q 359 1222 359 2328 
Q 359 3434 948 4092 
Q 1538 4750 2522 4750 
z
" transform="scale(0.015625)"/>
      </defs>
      <use xlink:href="#DejaVuSans-43"/>
      <use xlink:href="#DejaVuSans-65" x="69.824219"/>
      <use xlink:href="#DejaVuSans-6e" x="131.347656"/>
      <use xlink:href="#DejaVuSans-74" x="194.726562"/>
      <use xlink:href="#DejaVuSans-4f" x="233.935547"/>
      <use xlink:href="#DejaVuSans-53" x="312.646484"/>
      <use xlink:href="#DejaVuSans-20" x="376.123047"/>
      <use xlink:href="#DejaVuSans-4c" x="407.910156"/>
      <use xlink:href="#DejaVuSans-65" x="461.873047"/>
      <use xlink:href="#DejaVuSans-67" x="523.396484"/>
      <use xlink:href="#DejaVuSans-61" x="586.873047"/>
      <use xlink:href="#DejaVuSans-63" x="648.152344"/>
      <use xlink:href="#DejaVuSans-79" x="703.132812"/>
     </g>
    </g>
    <g id="line2d_57">
     <path d="M 61.079375 81.274563 
L 71.079375 81.274563 
L 81.079375 81.274563 
" style="fill: none; stroke: #9a5689; stroke-width: 1.5; stroke-linecap: square"/>
    </g>
    <g id="text_29">
     <!-- CentOS Stream -->
     <g transform="translate(89.079375 84.774563) scale(0.1 -0.1)">
      <use xlink:href="#DejaVuSans-43"/>
      <use xlink:href="#DejaVuSans-65" x="69.824219"/>
      <use xlink:href="#DejaVuSans-6e" x="131.347656"/>
      <use xlink:href="#DejaVuSans-74" x="194.726562"/>
      <use xlink:href="#DejaVuSans-4f" x="233.935547"/>
      <use xlink:href="#DejaVuSans-53" x="312.646484"/>
      <use xlink:href="#DejaVuSans-20" x="376.123047"/>
      <use xlink:href="#DejaVuSans-53" x="407.910156"/>
      <use xlink:href="#DejaVuSans-74" x="471.386719"/>
      <use xlink:href="#DejaVuSans-72" x="510.595703"/>
      <use xlink:href="#DejaVuSans-65" x="549.458984"/>
      <use xlink:href="#DejaVuSans-61" x="610.982422"/>
      <use xlink:href="#DejaVuSans-6d" x="672.261719"/>
     </g>
    </g>
    <g id="line2d_58">
     <path d="M 61.079375 95.952688 
L 71.079375 95.952688 
L 81.079375 95.952688 
" style="fill: none; stroke: #be503b; stroke-width: 1.5; stroke-linecap: square"/>
    </g>
    <g id="text_30">
     <!-- Oracle -->
     <g transform="translate(89.079375 99.452688) scale(0.1 -0.1)">
      <use xlink:href="#DejaVuSans-4f"/>
      <use xlink:href="#DejaVuSans-72" x="78.710938"/>
      <use xlink:href="#DejaVuSans-61" x="119.824219"/>
      <use xlink:href="#DejaVuSans-63" x="181.103516"/>
      <use xlink:href="#DejaVuSans-6c" x="236.083984"/>
      <use xlink:href="#DejaVuSans-65" x="263.867188"/>
     </g>
    </g>
    <g id="line2d_59">
     <path d="M 61.079375 110.630813 
L 71.079375 110.630813 
L 81.079375 110.630813 
" style="fill: none; stroke: #e2321d; stroke-width: 1.5; stroke-linecap: square"/>
    </g>
    <g id="text_31">
     <!-- RHEL -->
     <g transform="translate(89.079375 114.130813) scale(0.1 -0.1)">
      <defs>
       <path id="DejaVuSans-52" d="M 2841 2188 
Q 3044 2119 3236 1894 
Q 3428 1669 3622 1275 
L 4263 0 
L 3584 0 
L 2988 1197 
Q 2756 1666 2539 1819 
Q 2322 1972 1947 1972 
L 1259 1972 
L 1259 0 
L 628 0 
L 628 4666 
L 2053 4666 
Q 2853 4666 3247 4331 
Q 3641 3997 3641 3322 
Q 3641 2881 3436 2590 
Q 3231 2300 2841 2188 
z
M 1259 4147 
L 1259 2491 
L 2053 2491 
Q 2509 2491 2742 2702 
Q 2975 2913 2975 3322 
Q 2975 3731 2742 3939 
Q 2509 4147 2053 4147 
L 1259 4147 
z
" transform="scale(0.015625)"/>
       <path id="DejaVuSans-48" d="M 628 4666 
L 1259 4666 
L 1259 2753 
L 3553 2753 
L 3553 4666 
L 4184 4666 
L 4184 0 
L 3553 0 
L 3553 2222 
L 1259 2222 
L 1259 0 
L 628 0 
L 628 4666 
z
" transform="scale(0.015625)"/>
      </defs>
      <use xlink:href="#DejaVuSans-52"/>
      <use xlink:href="#DejaVuSans-48" x="69.482422"/>
      <use xlink:href="#DejaVuSans-45" x="144.677734"/>
      <use xlink:href="#DejaVuSans-4c" x="207.861328"/>
     </g>
    </g>
    <g id="line2d_60">
     <path d="M 61.079375 125.308938 
L 71.079375 125.308938 
L 81.079375 125.308938 
" style="fill: none; stroke: #48b585; stroke-width: 6; stroke-linecap: square"/>
    </g>
    <g id="text_32">
     <!-- Rocky Linux -->
     <g transform="translate(89.079375 128.808938) scale(0.1 -0.1)">
      <use xlink:href="#DejaVuSans-52"/>
      <use xlink:href="#DejaVuSans-6f" x="64.982422"/>
      <use xlink:href="#DejaVuSans-63" x="126.164062"/>
      <use xlink:href="#DejaVuSans-6b" x="181.144531"/>
      <use xlink:href="#DejaVuSans-79" x="235.429688"/>
      <use xlink:href="#DejaVuSans-20" x="294.609375"/>
      <use xlink:href="#DejaVuSans-4c" x="326.396484"/>
      <use xlink:href="#DejaVuSans-69" x="382.109375"/>
      <use xlink:href="#DejaVuSans-6e" x="409.892578"/>
      <use xlink:href="#DejaVuSans-75" x="473.271484"/>
      <use xlink:href="#DejaVuSans-78" x="536.650391"/>
     </g>
    </g>
   </g>
  </g>
 </g>
 <defs>
  <clipPath id="p46d127d7ee">
   <rect x="52.079375" y="24.14175" width="902.844" height="554.4"/>
  </clipPath>
 </defs>
</svg>
