<?xml version="1.0" encoding="utf-8" standalone="no"?>
<!DOCTYPE svg PUBLIC "-//W3C//DTD SVG 1.1//EN"
  "http://www.w3.org/Graphics/SVG/1.1/DTD/svg11.dtd">
<svg xmlns:xlink="http://www.w3.org/1999/xlink" width="990.587803pt" height="644.743878pt" viewBox="0 0 990.587803 644.743878" xmlns="http://www.w3.org/2000/svg" version="1.1">
 <metadata>
  <rdf:RDF xmlns:dc="http://purl.org/dc/elements/1.1/" xmlns:cc="http://creativecommons.org/ns#" xmlns:rdf="http://www.w3.org/1999/02/22-rdf-syntax-ns#">
   <cc:Work>
    <dc:type rdf:resource="http://purl.org/dc/dcmitype/StillImage"/>
    <dc:date>2026-03-12T12:01:43.905444</dc:date>
    <dc:format>image/svg+xml</dc:format>
    <dc:creator>
     <cc:Agent>
      <dc:title>Matplotlib v3.6.3, https://matplotlib.org/</dc:title>
     </cc:Agent>
    </dc:creator>
   </cc:Work>
  </rdf:RDF>
 </metadata>
 <defs>
  <style type="text/css">*{stroke-linejoin: round; stroke-linecap: butt}</style>
 </defs>
 <g id="figure_1">
  <g id="patch_1">
   <path d="M 0 644.743878 
L 990.587803 644.743878 
L 990.587803 0 
L 0 0 
z
" style="fill: #ffffff"/>
  </g>
  <g id="axes_1">
   <g id="patch_2">
    <path d="M 64.2325 578.54175 
L 967.0765 578.54175 
L 967.0765 24.14175 
L 64.2325 24.14175 
z
" style="fill: #e5e5e5"/>
   </g>
   <g id="matplotlib.axis_1">
    <g id="xtick_1">
     <g id="line2d_1">
      <path d="M 105.655999 578.54175 
L 105.655999 24.14175 
" clip-path="url(#pf1206b3f2f)" style="fill: none; stroke: #ffffff; stroke-width: 0.8; stroke-linecap: square"/>
     </g>
     <g id="line2d_2">
      <defs>
       <path id="mba173a6c90" d="M 0 0 
L 0 3.5 
" style="stroke: #555555; stroke-width: 0.8"/>
      </defs>
      <g>
       <use xlink:href="#mba173a6c90" x="105.655999" y="578.54175" style="fill: #555555; stroke: #555555; stroke-width: 0.8"/>
      </g>
     </g>
     <g id="text_1">
      <!-- 2021-03 -->
      <g style="fill: #555555" transform="translate(92.834717 620.459567) rotate(-45) scale(0.1 -0.1)">
       <defs>
        <path id="DejaVuSans-32" d="M 1228 531 
L 3431 531 
L 3431 0 
L 469 0 
L 469 531 
Q 828 903 1448 1529 
Q 2069 2156 2228 2338 
Q 2531 2678 2651 2914 
Q 2772 3150 2772 3378 
Q 2772 3750 2511 3984 
Q 2250 4219 1831 4219 
Q 1534 4219 1204 4116 
Q 875 4013 500 3803 
L 500 4441 
Q 881 4594 1212 4672 
Q 1544 4750 1819 4750 
Q 2544 4750 2975 4387 
Q 3406 4025 3406 3419 
Q 3406 3131 3298 2873 
Q 3191 2616 2906 2266 
Q 2828 2175 2409 1742 
Q 1991 1309 1228 531 
z
" transform="scale(0.015625)"/>
        <path id="DejaVuSans-30" d="M 2034 4250 
Q 1547 4250 1301 3770 
Q 1056 3291 1056 2328 
Q 1056 1369 1301 889 
Q 1547 409 2034 409 
Q 2525 409 2770 889 
Q 3016 1369 3016 2328 
Q 3016 3291 2770 3770 
Q 2525 4250 2034 4250 
z
M 2034 4750 
Q 2819 4750 3233 4129 
Q 3647 3509 3647 2328 
Q 3647 1150 3233 529 
Q 2819 -91 2034 -91 
Q 1250 -91 836 529 
Q 422 1150 422 2328 
Q 422 3509 836 4129 
Q 1250 4750 2034 4750 
z
" transform="scale(0.015625)"/>
        <path id="DejaVuSans-31" d="M 794 531 
L 1825 531 
L 1825 4091 
L 703 3866 
L 703 4441 
L 1819 4666 
L 2450 4666 
L 2450 531 
L 3481 531 
L 3481 0 
L 794 0 
L 794 531 
z
" transform="scale(0.015625)"/>
        <path id="DejaVuSans-2d" d="M 313 2009 
L 1997 2009 
L 1997 1497 
L 313 1497 
L 313 2009 
z
" transform="scale(0.015625)"/>
        <path id="DejaVuSans-33" d="M 2597 2516 
Q 3050 2419 3304 2112 
Q 3559 1806 3559 1356 
Q 3559 666 3084 287 
Q 2609 -91 1734 -91 
Q 1441 -91 1130 -33 
Q 819 25 488 141 
L 488 750 
Q 750 597 1062 519 
Q 1375 441 1716 441 
Q 2309 441 2620 675 
Q 2931 909 2931 1356 
Q 2931 1769 2642 2001 
Q 2353 2234 1838 2234 
L 1294 2234 
L 1294 2753 
L 1863 2753 
Q 2328 2753 2575 2939 
Q 2822 3125 2822 3475 
Q 2822 3834 2567 4026 
Q 2313 4219 1838 4219 
Q 1578 4219 1281 4162 
Q 984 4106 628 3988 
L 628 4550 
Q 988 4650 1302 4700 
Q 1616 4750 1894 4750 
Q 2613 4750 3031 4423 
Q 3450 4097 3450 3541 
Q 3450 3153 3228 2886 
Q 3006 2619 2597 2516 
z
" transform="scale(0.015625)"/>
       </defs>
       <use xlink:href="#DejaVuSans-32"/>
       <use xlink:href="#DejaVuSans-30" x="63.623047"/>
       <use xlink:href="#DejaVuSans-32" x="127.246094"/>
       <use xlink:href="#DejaVuSans-31" x="190.869141"/>
       <use xlink:href="#DejaVuSans-2d" x="254.492188"/>
       <use xlink:href="#DejaVuSans-30" x="290.576172"/>
       <use xlink:href="#DejaVuSans-33" x="354.199219"/>
      </g>
     </g>
    </g>
    <g id="xtick_2">
     <g id="line2d_3">
      <path d="M 148.962385 578.54175 
L 148.962385 24.14175 
" clip-path="url(#pf1206b3f2f)" style="fill: none; stroke: #ffffff; stroke-width: 0.8; stroke-linecap: square"/>
     </g>
     <g id="line2d_4">
      <g>
       <use xlink:href="#mba173a6c90" x="148.962385" y="578.54175" style="fill: #555555; stroke: #555555; stroke-width: 0.8"/>
      </g>
     </g>
     <g id="text_2">
      <!-- 2021-06 -->
      <g style="fill: #555555" transform="translate(136.141103 620.459567) rotate(-45) scale(0.1 -0.1)">
       <defs>
        <path id="DejaVuSans-36" d="M 2113 2584 
Q 1688 2584 1439 2293 
Q 1191 2003 1191 1497 
Q 1191 994 1439 701 
Q 1688 409 2113 409 
Q 2538 409 2786 701 
Q 3034 994 3034 1497 
Q 3034 2003 2786 2293 
Q 2538 2584 2113 2584 
z
M 3366 4563 
L 3366 3988 
Q 3128 4100 2886 4159 
Q 2644 4219 2406 4219 
Q 1781 4219 1451 3797 
Q 1122 3375 1075 2522 
Q 1259 2794 1537 2939 
Q 1816 3084 2150 3084 
Q 2853 3084 3261 2657 
Q 3669 2231 3669 1497 
Q 3669 778 3244 343 
Q 2819 -91 2113 -91 
Q 1303 -91 875 529 
Q 447 1150 447 2328 
Q 447 3434 972 4092 
Q 1497 4750 2381 4750 
Q 2619 4750 2861 4703 
Q 3103 4656 3366 4563 
z
" transform="scale(0.015625)"/>
       </defs>
       <use xlink:href="#DejaVuSans-32"/>
       <use xlink:href="#DejaVuSans-30" x="63.623047"/>
       <use xlink:href="#DejaVuSans-32" x="127.246094"/>
       <use xlink:href="#DejaVuSans-31" x="190.869141"/>
       <use xlink:href="#DejaVuSans-2d" x="254.492188"/>
       <use xlink:href="#DejaVuSans-30" x="290.576172"/>
       <use xlink:href="#DejaVuSans-36" x="354.199219"/>
      </g>
     </g>
    </g>
    <g id="xtick_3">
     <g id="line2d_5">
      <path d="M 192.268771 578.54175 
L 192.268771 24.14175 
" clip-path="url(#pf1206b3f2f)" style="fill: none; stroke: #ffffff; stroke-width: 0.8; stroke-linecap: square"/>
     </g>
     <g id="line2d_6">
      <g>
       <use xlink:href="#mba173a6c90" x="192.268771" y="578.54175" style="fill: #555555; stroke: #555555; stroke-width: 0.8"/>
      </g>
     </g>
     <g id="text_3">
      <!-- 2021-09 -->
      <g style="fill: #555555" transform="translate(179.447489 620.459567) rotate(-45) scale(0.1 -0.1)">
       <defs>
        <path id="DejaVuSans-39" d="M 703 97 
L 703 672 
Q 941 559 1184 500 
Q 1428 441 1663 441 
Q 2288 441 2617 861 
Q 2947 1281 2994 2138 
Q 2813 1869 2534 1725 
Q 2256 1581 1919 1581 
Q 1219 1581 811 2004 
Q 403 2428 403 3163 
Q 403 3881 828 4315 
Q 1253 4750 1959 4750 
Q 2769 4750 3195 4129 
Q 3622 3509 3622 2328 
Q 3622 1225 3098 567 
Q 2575 -91 1691 -91 
Q 1453 -91 1209 -44 
Q 966 3 703 97 
z
M 1959 2075 
Q 2384 2075 2632 2365 
Q 2881 2656 2881 3163 
Q 2881 3666 2632 3958 
Q 2384 4250 1959 4250 
Q 1534 4250 1286 3958 
Q 1038 3666 1038 3163 
Q 1038 2656 1286 2365 
Q 1534 2075 1959 2075 
z
" transform="scale(0.015625)"/>
       </defs>
       <use xlink:href="#DejaVuSans-32"/>
       <use xlink:href="#DejaVuSans-30" x="63.623047"/>
       <use xlink:href="#DejaVuSans-32" x="127.246094"/>
       <use xlink:href="#DejaVuSans-31" x="190.869141"/>
       <use xlink:href="#DejaVuSans-2d" x="254.492188"/>
       <use xlink:href="#DejaVuSans-30" x="290.576172"/>
       <use xlink:href="#DejaVuSans-39" x="354.199219"/>
      </g>
     </g>
    </g>
    <g id="xtick_4">
     <g id="line2d_7">
      <path d="M 235.104435 578.54175 
L 235.104435 24.14175 
" clip-path="url(#pf1206b3f2f)" style="fill: none; stroke: #ffffff; stroke-width: 0.8; stroke-linecap: square"/>
     </g>
     <g id="line2d_8">
      <g>
       <use xlink:href="#mba173a6c90" x="235.104435" y="578.54175" style="fill: #555555; stroke: #555555; stroke-width: 0.8"/>
      </g>
     </g>
     <g id="text_4">
      <!-- 2021-12 -->
      <g style="fill: #555555" transform="translate(222.283153 620.459567) rotate(-45) scale(0.1 -0.1)">
       <use xlink:href="#DejaVuSans-32"/>
       <use xlink:href="#DejaVuSans-30" x="63.623047"/>
       <use xlink:href="#DejaVuSans-32" x="127.246094"/>
       <use xlink:href="#DejaVuSans-31" x="190.869141"/>
       <use xlink:href="#DejaVuSans-2d" x="254.492188"/>
       <use xlink:href="#DejaVuSans-31" x="290.576172"/>
       <use xlink:href="#DejaVuSans-32" x="354.199219"/>
      </g>
     </g>
    </g>
    <g id="xtick_5">
     <g id="line2d_9">
      <path d="M 277.469378 578.54175 
L 277.469378 24.14175 
" clip-path="url(#pf1206b3f2f)" style="fill: none; stroke: #ffffff; stroke-width: 0.8; stroke-linecap: square"/>
     </g>
     <g id="line2d_10">
      <g>
       <use xlink:href="#mba173a6c90" x="277.469378" y="578.54175" style="fill: #555555; stroke: #555555; stroke-width: 0.8"/>
      </g>
     </g>
     <g id="text_5">
      <!-- 2022-03 -->
      <g style="fill: #555555" transform="translate(264.648096 620.459567) rotate(-45) scale(0.1 -0.1)">
       <use xlink:href="#DejaVuSans-32"/>
       <use xlink:href="#DejaVuSans-30" x="63.623047"/>
       <use xlink:href="#DejaVuSans-32" x="127.246094"/>
       <use xlink:href="#DejaVuSans-32" x="190.869141"/>
       <use xlink:href="#DejaVuSans-2d" x="254.492188"/>
       <use xlink:href="#DejaVuSans-30" x="290.576172"/>
       <use xlink:href="#DejaVuSans-33" x="354.199219"/>
      </g>
     </g>
    </g>
    <g id="xtick_6">
     <g id="line2d_11">
      <path d="M 320.775764 578.54175 
L 320.775764 24.14175 
" clip-path="url(#pf1206b3f2f)" style="fill: none; stroke: #ffffff; stroke-width: 0.8; stroke-linecap: square"/>
     </g>
     <g id="line2d_12">
      <g>
       <use xlink:href="#mba173a6c90" x="320.775764" y="578.54175" style="fill: #555555; stroke: #555555; stroke-width: 0.8"/>
      </g>
     </g>
     <g id="text_6">
      <!-- 2022-06 -->
      <g style="fill: #555555" transform="translate(307.954482 620.459567) rotate(-45) scale(0.1 -0.1)">
       <use xlink:href="#DejaVuSans-32"/>
       <use xlink:href="#DejaVuSans-30" x="63.623047"/>
       <use xlink:href="#DejaVuSans-32" x="127.246094"/>
       <use xlink:href="#DejaVuSans-32" x="190.869141"/>
       <use xlink:href="#DejaVuSans-2d" x="254.492188"/>
       <use xlink:href="#DejaVuSans-30" x="290.576172"/>
       <use xlink:href="#DejaVuSans-36" x="354.199219"/>
      </g>
     </g>
    </g>
    <g id="xtick_7">
     <g id="line2d_13">
      <path d="M 364.08215 578.54175 
L 364.08215 24.14175 
" clip-path="url(#pf1206b3f2f)" style="fill: none; stroke: #ffffff; stroke-width: 0.8; stroke-linecap: square"/>
     </g>
     <g id="line2d_14">
      <g>
       <use xlink:href="#mba173a6c90" x="364.08215" y="578.54175" style="fill: #555555; stroke: #555555; stroke-width: 0.8"/>
      </g>
     </g>
     <g id="text_7">
      <!-- 2022-09 -->
      <g style="fill: #555555" transform="translate(351.260867 620.459567) rotate(-45) scale(0.1 -0.1)">
       <use xlink:href="#DejaVuSans-32"/>
       <use xlink:href="#DejaVuSans-30" x="63.623047"/>
       <use xlink:href="#DejaVuSans-32" x="127.246094"/>
       <use xlink:href="#DejaVuSans-32" x="190.869141"/>
       <use xlink:href="#DejaVuSans-2d" x="254.492188"/>
       <use xlink:href="#DejaVuSans-30" x="290.576172"/>
       <use xlink:href="#DejaVuSans-39" x="354.199219"/>
      </g>
     </g>
    </g>
    <g id="xtick_8">
     <g id="line2d_15">
      <path d="M 406.917814 578.54175 
L 406.917814 24.14175 
" clip-path="url(#pf1206b3f2f)" style="fill: none; stroke: #ffffff; stroke-width: 0.8; stroke-linecap: square"/>
     </g>
     <g id="line2d_16">
      <g>
       <use xlink:href="#mba173a6c90" x="406.917814" y="578.54175" style="fill: #555555; stroke: #555555; stroke-width: 0.8"/>
      </g>
     </g>
     <g id="text_8">
      <!-- 2022-12 -->
      <g style="fill: #555555" transform="translate(394.096532 620.459567) rotate(-45) scale(0.1 -0.1)">
       <use xlink:href="#DejaVuSans-32"/>
       <use xlink:href="#DejaVuSans-30" x="63.623047"/>
       <use xlink:href="#DejaVuSans-32" x="127.246094"/>
       <use xlink:href="#DejaVuSans-32" x="190.869141"/>
       <use xlink:href="#DejaVuSans-2d" x="254.492188"/>
       <use xlink:href="#DejaVuSans-31" x="290.576172"/>
       <use xlink:href="#DejaVuSans-32" x="354.199219"/>
      </g>
     </g>
    </g>
    <g id="xtick_9">
     <g id="line2d_17">
      <path d="M 449.282757 578.54175 
L 449.282757 24.14175 
" clip-path="url(#pf1206b3f2f)" style="fill: none; stroke: #ffffff; stroke-width: 0.8; stroke-linecap: square"/>
     </g>
     <g id="line2d_18">
      <g>
       <use xlink:href="#mba173a6c90" x="449.282757" y="578.54175" style="fill: #555555; stroke: #555555; stroke-width: 0.8"/>
      </g>
     </g>
     <g id="text_9">
      <!-- 2023-03 -->
      <g style="fill: #555555" transform="translate(436.461474 620.459567) rotate(-45) scale(0.1 -0.1)">
       <use xlink:href="#DejaVuSans-32"/>
       <use xlink:href="#DejaVuSans-30" x="63.623047"/>
       <use xlink:href="#DejaVuSans-32" x="127.246094"/>
       <use xlink:href="#DejaVuSans-33" x="190.869141"/>
       <use xlink:href="#DejaVuSans-2d" x="254.492188"/>
       <use xlink:href="#DejaVuSans-30" x="290.576172"/>
       <use xlink:href="#DejaVuSans-33" x="354.199219"/>
      </g>
     </g>
    </g>
    <g id="xtick_10">
     <g id="line2d_19">
      <path d="M 492.589142 578.54175 
L 492.589142 24.14175 
" clip-path="url(#pf1206b3f2f)" style="fill: none; stroke: #ffffff; stroke-width: 0.8; stroke-linecap: square"/>
     </g>
     <g id="line2d_20">
      <g>
       <use xlink:href="#mba173a6c90" x="492.589142" y="578.54175" style="fill: #555555; stroke: #555555; stroke-width: 0.8"/>
      </g>
     </g>
     <g id="text_10">
      <!-- 2023-06 -->
      <g style="fill: #555555" transform="translate(479.76786 620.459567) rotate(-45) scale(0.1 -0.1)">
       <use xlink:href="#DejaVuSans-32"/>
       <use xlink:href="#DejaVuSans-30" x="63.623047"/>
       <use xlink:href="#DejaVuSans-32" x="127.246094"/>
       <use xlink:href="#DejaVuSans-33" x="190.869141"/>
       <use xlink:href="#DejaVuSans-2d" x="254.492188"/>
       <use xlink:href="#DejaVuSans-30" x="290.576172"/>
       <use xlink:href="#DejaVuSans-36" x="354.199219"/>
      </g>
     </g>
    </g>
    <g id="xtick_11">
     <g id="line2d_21">
      <path d="M 535.895528 578.54175 
L 535.895528 24.14175 
" clip-path="url(#pf1206b3f2f)" style="fill: none; stroke: #ffffff; stroke-width: 0.8; stroke-linecap: square"/>
     </g>
     <g id="line2d_22">
      <g>
       <use xlink:href="#mba173a6c90" x="535.895528" y="578.54175" style="fill: #555555; stroke: #555555; stroke-width: 0.8"/>
      </g>
     </g>
     <g id="text_11">
      <!-- 2023-09 -->
      <g style="fill: #555555" transform="translate(523.074246 620.459567) rotate(-45) scale(0.1 -0.1)">
       <use xlink:href="#DejaVuSans-32"/>
       <use xlink:href="#DejaVuSans-30" x="63.623047"/>
       <use xlink:href="#DejaVuSans-32" x="127.246094"/>
       <use xlink:href="#DejaVuSans-33" x="190.869141"/>
       <use xlink:href="#DejaVuSans-2d" x="254.492188"/>
       <use xlink:href="#DejaVuSans-30" x="290.576172"/>
       <use xlink:href="#DejaVuSans-39" x="354.199219"/>
      </g>
     </g>
    </g>
    <g id="xtick_12">
     <g id="line2d_23">
      <path d="M 578.731192 578.54175 
L 578.731192 24.14175 
" clip-path="url(#pf1206b3f2f)" style="fill: none; stroke: #ffffff; stroke-width: 0.8; stroke-linecap: square"/>
     </g>
     <g id="line2d_24">
      <g>
       <use xlink:href="#mba173a6c90" x="578.731192" y="578.54175" style="fill: #555555; stroke: #555555; stroke-width: 0.8"/>
      </g>
     </g>
     <g id="text_12">
      <!-- 2023-12 -->
      <g style="fill: #555555" transform="translate(565.90991 620.459567) rotate(-45) scale(0.1 -0.1)">
       <use xlink:href="#DejaVuSans-32"/>
       <use xlink:href="#DejaVuSans-30" x="63.623047"/>
       <use xlink:href="#DejaVuSans-32" x="127.246094"/>
       <use xlink:href="#DejaVuSans-33" x="190.869141"/>
       <use xlink:href="#DejaVuSans-2d" x="254.492188"/>
       <use xlink:href="#DejaVuSans-31" x="290.576172"/>
       <use xlink:href="#DejaVuSans-32" x="354.199219"/>
      </g>
     </g>
    </g>
    <g id="xtick_13">
     <g id="line2d_25">
      <path d="M 621.566857 578.54175 
L 621.566857 24.14175 
" clip-path="url(#pf1206b3f2f)" style="fill: none; stroke: #ffffff; stroke-width: 0.8; stroke-linecap: square"/>
     </g>
     <g id="line2d_26">
      <g>
       <use xlink:href="#mba173a6c90" x="621.566857" y="578.54175" style="fill: #555555; stroke: #555555; stroke-width: 0.8"/>
      </g>
     </g>
     <g id="text_13">
      <!-- 2024-03 -->
      <g style="fill: #555555" transform="translate(608.745574 620.459567) rotate(-45) scale(0.1 -0.1)">
       <defs>
        <path id="DejaVuSans-34" d="M 2419 4116 
L 825 1625 
L 2419 1625 
L 2419 4116 
z
M 2253 4666 
L 3047 4666 
L 3047 1625 
L 3713 1625 
L 3713 1100 
L 3047 1100 
L 3047 0 
L 2419 0 
L 2419 1100 
L 313 1100 
L 313 1709 
L 2253 4666 
z
" transform="scale(0.015625)"/>
       </defs>
       <use xlink:href="#DejaVuSans-32"/>
       <use xlink:href="#DejaVuSans-30" x="63.623047"/>
       <use xlink:href="#DejaVuSans-32" x="127.246094"/>
       <use xlink:href="#DejaVuSans-34" x="190.869141"/>
       <use xlink:href="#DejaVuSans-2d" x="254.492188"/>
       <use xlink:href="#DejaVuSans-30" x="290.576172"/>
       <use xlink:href="#DejaVuSans-33" x="354.199219"/>
      </g>
     </g>
    </g>
    <g id="xtick_14">
     <g id="line2d_27">
      <path d="M 664.873242 578.54175 
L 664.873242 24.14175 
" clip-path="url(#pf1206b3f2f)" style="fill: none; stroke: #ffffff; stroke-width: 0.8; stroke-linecap: square"/>
     </g>
     <g id="line2d_28">
      <g>
       <use xlink:href="#mba173a6c90" x="664.873242" y="578.54175" style="fill: #555555; stroke: #555555; stroke-width: 0.8"/>
      </g>
     </g>
     <g id="text_14">
      <!-- 2024-06 -->
      <g style="fill: #555555" transform="translate(652.05196 620.459567) rotate(-45) scale(0.1 -0.1)">
       <use xlink:href="#DejaVuSans-32"/>
       <use xlink:href="#DejaVuSans-30" x="63.623047"/>
       <use xlink:href="#DejaVuSans-32" x="127.246094"/>
       <use xlink:href="#DejaVuSans-34" x="190.869141"/>
       <use xlink:href="#DejaVuSans-2d" x="254.492188"/>
       <use xlink:href="#DejaVuSans-30" x="290.576172"/>
       <use xlink:href="#DejaVuSans-36" x="354.199219"/>
      </g>
     </g>
    </g>
    <g id="xtick_15">
     <g id="line2d_29">
      <path d="M 708.179628 578.54175 
L 708.179628 24.14175 
" clip-path="url(#pf1206b3f2f)" style="fill: none; stroke: #ffffff; stroke-width: 0.8; stroke-linecap: square"/>
     </g>
     <g id="line2d_30">
      <g>
       <use xlink:href="#mba173a6c90" x="708.179628" y="578.54175" style="fill: #555555; stroke: #555555; stroke-width: 0.8"/>
      </g>
     </g>
     <g id="text_15">
      <!-- 2024-09 -->
      <g style="fill: #555555" transform="translate(695.358346 620.459567) rotate(-45) scale(0.1 -0.1)">
       <use xlink:href="#DejaVuSans-32"/>
       <use xlink:href="#DejaVuSans-30" x="63.623047"/>
       <use xlink:href="#DejaVuSans-32" x="127.246094"/>
       <use xlink:href="#DejaVuSans-34" x="190.869141"/>
       <use xlink:href="#DejaVuSans-2d" x="254.492188"/>
       <use xlink:href="#DejaVuSans-30" x="290.576172"/>
       <use xlink:href="#DejaVuSans-39" x="354.199219"/>
      </g>
     </g>
    </g>
    <g id="xtick_16">
     <g id="line2d_31">
      <path d="M 751.015292 578.54175 
L 751.015292 24.14175 
" clip-path="url(#pf1206b3f2f)" style="fill: none; stroke: #ffffff; stroke-width: 0.8; stroke-linecap: square"/>
     </g>
     <g id="line2d_32">
      <g>
       <use xlink:href="#mba173a6c90" x="751.015292" y="578.54175" style="fill: #555555; stroke: #555555; stroke-width: 0.8"/>
      </g>
     </g>
     <g id="text_16">
      <!-- 2024-12 -->
      <g style="fill: #555555" transform="translate(738.19401 620.459567) rotate(-45) scale(0.1 -0.1)">
       <use xlink:href="#DejaVuSans-32"/>
       <use xlink:href="#DejaVuSans-30" x="63.623047"/>
       <use xlink:href="#DejaVuSans-32" x="127.246094"/>
       <use xlink:href="#DejaVuSans-34" x="190.869141"/>
       <use xlink:href="#DejaVuSans-2d" x="254.492188"/>
       <use xlink:href="#DejaVuSans-31" x="290.576172"/>
       <use xlink:href="#DejaVuSans-32" x="354.199219"/>
      </g>
     </g>
    </g>
    <g id="xtick_17">
     <g id="line2d_33">
      <path d="M 793.380235 578.54175 
L 793.380235 24.14175 
" clip-path="url(#pf1206b3f2f)" style="fill: none; stroke: #ffffff; stroke-width: 0.8; stroke-linecap: square"/>
     </g>
     <g id="line2d_34">
      <g>
       <use xlink:href="#mba173a6c90" x="793.380235" y="578.54175" style="fill: #555555; stroke: #555555; stroke-width: 0.8"/>
      </g>
     </g>
     <g id="text_17">
      <!-- 2025-03 -->
      <g style="fill: #555555" transform="translate(780.558953 620.459567) rotate(-45) scale(0.1 -0.1)">
       <defs>
        <path id="DejaVuSans-35" d="M 691 4666 
L 3169 4666 
L 3169 4134 
L 1269 4134 
L 1269 2991 
Q 1406 3038 1543 3061 
Q 1681 3084 1819 3084 
Q 2600 3084 3056 2656 
Q 3513 2228 3513 1497 
Q 3513 744 3044 326 
Q 2575 -91 1722 -91 
Q 1428 -91 1123 -41 
Q 819 9 494 109 
L 494 744 
Q 775 591 1075 516 
Q 1375 441 1709 441 
Q 2250 441 2565 725 
Q 2881 1009 2881 1497 
Q 2881 1984 2565 2268 
Q 2250 2553 1709 2553 
Q 1456 2553 1204 2497 
Q 953 2441 691 2322 
L 691 4666 
z
" transform="scale(0.015625)"/>
       </defs>
       <use xlink:href="#DejaVuSans-32"/>
       <use xlink:href="#DejaVuSans-30" x="63.623047"/>
       <use xlink:href="#DejaVuSans-32" x="127.246094"/>
       <use xlink:href="#DejaVuSans-35" x="190.869141"/>
       <use xlink:href="#DejaVuSans-2d" x="254.492188"/>
       <use xlink:href="#DejaVuSans-30" x="290.576172"/>
       <use xlink:href="#DejaVuSans-33" x="354.199219"/>
      </g>
     </g>
    </g>
    <g id="xtick_18">
     <g id="line2d_35">
      <path d="M 836.686621 578.54175 
L 836.686621 24.14175 
" clip-path="url(#pf1206b3f2f)" style="fill: none; stroke: #ffffff; stroke-width: 0.8; stroke-linecap: square"/>
     </g>
     <g id="line2d_36">
      <g>
       <use xlink:href="#mba173a6c90" x="836.686621" y="578.54175" style="fill: #555555; stroke: #555555; stroke-width: 0.8"/>
      </g>
     </g>
     <g id="text_18">
      <!-- 2025-06 -->
      <g style="fill: #555555" transform="translate(823.865339 620.459567) rotate(-45) scale(0.1 -0.1)">
       <use xlink:href="#DejaVuSans-32"/>
       <use xlink:href="#DejaVuSans-30" x="63.623047"/>
       <use xlink:href="#DejaVuSans-32" x="127.246094"/>
       <use xlink:href="#DejaVuSans-35" x="190.869141"/>
       <use xlink:href="#DejaVuSans-2d" x="254.492188"/>
       <use xlink:href="#DejaVuSans-30" x="290.576172"/>
       <use xlink:href="#DejaVuSans-36" x="354.199219"/>
      </g>
     </g>
    </g>
    <g id="xtick_19">
     <g id="line2d_37">
      <path d="M 879.993007 578.54175 
L 879.993007 24.14175 
" clip-path="url(#pf1206b3f2f)" style="fill: none; stroke: #ffffff; stroke-width: 0.8; stroke-linecap: square"/>
     </g>
     <g id="line2d_38">
      <g>
       <use xlink:href="#mba173a6c90" x="879.993007" y="578.54175" style="fill: #555555; stroke: #555555; stroke-width: 0.8"/>
      </g>
     </g>
     <g id="text_19">
      <!-- 2025-09 -->
      <g style="fill: #555555" transform="translate(867.171725 620.459567) rotate(-45) scale(0.1 -0.1)">
       <use xlink:href="#DejaVuSans-32"/>
       <use xlink:href="#DejaVuSans-30" x="63.623047"/>
       <use xlink:href="#DejaVuSans-32" x="127.246094"/>
       <use xlink:href="#DejaVuSans-35" x="190.869141"/>
       <use xlink:href="#DejaVuSans-2d" x="254.492188"/>
       <use xlink:href="#DejaVuSans-30" x="290.576172"/>
       <use xlink:href="#DejaVuSans-39" x="354.199219"/>
      </g>
     </g>
    </g>
    <g id="xtick_20">
     <g id="line2d_39">
      <path d="M 922.828671 578.54175 
L 922.828671 24.14175 
" clip-path="url(#pf1206b3f2f)" style="fill: none; stroke: #ffffff; stroke-width: 0.8; stroke-linecap: square"/>
     </g>
     <g id="line2d_40">
      <g>
       <use xlink:href="#mba173a6c90" x="922.828671" y="578.54175" style="fill: #555555; stroke: #555555; stroke-width: 0.8"/>
      </g>
     </g>
     <g id="text_20">
      <!-- 2025-12 -->
      <g style="fill: #555555" transform="translate(910.007389 620.459567) rotate(-45) scale(0.1 -0.1)">
       <use xlink:href="#DejaVuSans-32"/>
       <use xlink:href="#DejaVuSans-30" x="63.623047"/>
       <use xlink:href="#DejaVuSans-32" x="127.246094"/>
       <use xlink:href="#DejaVuSans-35" x="190.869141"/>
       <use xlink:href="#DejaVuSans-2d" x="254.492188"/>
       <use xlink:href="#DejaVuSans-31" x="290.576172"/>
       <use xlink:href="#DejaVuSans-32" x="354.199219"/>
      </g>
     </g>
    </g>
    <g id="xtick_21">
     <g id="line2d_41">
      <path d="M 965.193614 578.54175 
L 965.193614 24.14175 
" clip-path="url(#pf1206b3f2f)" style="fill: none; stroke: #ffffff; stroke-width: 0.8; stroke-linecap: square"/>
     </g>
     <g id="line2d_42">
      <g>
       <use xlink:href="#mba173a6c90" x="965.193614" y="578.54175" style="fill: #555555; stroke: #555555; stroke-width: 0.8"/>
      </g>
     </g>
     <g id="text_21">
      <!-- 2026-03 -->
      <g style="fill: #555555" transform="translate(952.372331 620.459567) rotate(-45) scale(0.1 -0.1)">
       <use xlink:href="#DejaVuSans-32"/>
       <use xlink:href="#DejaVuSans-30" x="63.623047"/>
       <use xlink:href="#DejaVuSans-32" x="127.246094"/>
       <use xlink:href="#DejaVuSans-36" x="190.869141"/>
       <use xlink:href="#DejaVuSans-2d" x="254.492188"/>
       <use xlink:href="#DejaVuSans-30" x="290.576172"/>
       <use xlink:href="#DejaVuSans-33" x="354.199219"/>
      </g>
     </g>
    </g>
    <g id="text_22">
     <!-- Date -->
     <g style="fill: #555555" transform="translate(501.313563 635.048253) scale(0.12 -0.12)">
      <defs>
       <path id="DejaVuSans-44" d="M 1259 4147 
L 1259 519 
L 2022 519 
Q 2988 519 3436 956 
Q 3884 1394 3884 2338 
Q 3884 3275 3436 3711 
Q 2988 4147 2022 4147 
L 1259 4147 
z
M 628 4666 
L 1925 4666 
Q 3281 4666 3915 4102 
Q 4550 3538 4550 2338 
Q 4550 1131 3912 565 
Q 3275 0 1925 0 
L 628 0 
L 628 4666 
z
" transform="scale(0.015625)"/>
       <path id="DejaVuSans-61" d="M 2194 1759 
Q 1497 1759 1228 1600 
Q 959 1441 959 1056 
Q 959 750 1161 570 
Q 1363 391 1709 391 
Q 2188 391 2477 730 
Q 2766 1069 2766 1631 
L 2766 1759 
L 2194 1759 
z
M 3341 1997 
L 3341 0 
L 2766 0 
L 2766 531 
Q 2569 213 2275 61 
Q 1981 -91 1556 -91 
Q 1019 -91 701 211 
Q 384 513 384 1019 
Q 384 1609 779 1909 
Q 1175 2209 1959 2209 
L 2766 2209 
L 2766 2266 
Q 2766 2663 2505 2880 
Q 2244 3097 1772 3097 
Q 1472 3097 1187 3025 
Q 903 2953 641 2809 
L 641 3341 
Q 956 3463 1253 3523 
Q 1550 3584 1831 3584 
Q 2591 3584 2966 3190 
Q 3341 2797 3341 1997 
z
" transform="scale(0.015625)"/>
       <path id="DejaVuSans-74" d="M 1172 4494 
L 1172 3500 
L 2356 3500 
L 2356 3053 
L 1172 3053 
L 1172 1153 
Q 1172 725 1289 603 
Q 1406 481 1766 481 
L 2356 481 
L 2356 0 
L 1766 0 
Q 1100 0 847 248 
Q 594 497 594 1153 
L 594 3053 
L 172 3053 
L 172 3500 
L 594 3500 
L 594 4494 
L 1172 4494 
z
" transform="scale(0.015625)"/>
       <path id="DejaVuSans-65" d="M 3597 1894 
L 3597 1613 
L 953 1613 
Q 991 1019 1311 708 
Q 1631 397 2203 397 
Q 2534 397 2845 478 
Q 3156 559 3463 722 
L 3463 178 
Q 3153 47 2828 -22 
Q 2503 -91 2169 -91 
Q 1331 -91 842 396 
Q 353 884 353 1716 
Q 353 2575 817 3079 
Q 1281 3584 2069 3584 
Q 2775 3584 3186 3129 
Q 3597 2675 3597 1894 
z
M 3022 2063 
Q 3016 2534 2758 2815 
Q 2500 3097 2075 3097 
Q 1594 3097 1305 2825 
Q 1016 2553 972 2059 
L 3022 2063 
z
" transform="scale(0.015625)"/>
      </defs>
      <use xlink:href="#DejaVuSans-44"/>
      <use xlink:href="#DejaVuSans-61" x="77.001953"/>
      <use xlink:href="#DejaVuSans-74" x="138.28125"/>
      <use xlink:href="#DejaVuSans-65" x="177.490234"/>
     </g>
    </g>
   </g>
   <g id="matplotlib.axis_2">
    <g id="ytick_1">
     <g id="line2d_43">
      <path d="M 64.2325 578.54175 
L 967.0765 578.54175 
" clip-path="url(#pf1206b3f2f)" style="fill: none; stroke: #ffffff; stroke-width: 0.8; stroke-linecap: square"/>
     </g>
     <g id="line2d_44">
      <defs>
       <path id="mdfef2520b7" d="M 0 0 
L -3.5 0 
" style="stroke: #555555; stroke-width: 0.8"/>
      </defs>
      <g>
       <use xlink:href="#mdfef2520b7" x="64.2325" y="578.54175" style="fill: #555555; stroke: #555555; stroke-width: 0.8"/>
      </g>
     </g>
     <g id="text_23">
      <!-- 0k -->
      <g style="fill: #555555" transform="translate(45.079375 582.340969) scale(0.1 -0.1)">
       <defs>
        <path id="DejaVuSans-6b" d="M 581 4863 
L 1159 4863 
L 1159 1991 
L 2875 3500 
L 3609 3500 
L 1753 1863 
L 3688 0 
L 2938 0 
L 1159 1709 
L 1159 0 
L 581 0 
L 581 4863 
z
" transform="scale(0.015625)"/>
       </defs>
       <use xlink:href="#DejaVuSans-30"/>
       <use xlink:href="#DejaVuSans-6b" x="63.623047"/>
      </g>
     </g>
    </g>
    <g id="ytick_2">
     <g id="line2d_45">
      <path d="M 64.2325 471.368493 
L 967.0765 471.368493 
" clip-path="url(#pf1206b3f2f)" style="fill: none; stroke: #ffffff; stroke-width: 0.8; stroke-linecap: square"/>
     </g>
     <g id="line2d_46">
      <g>
       <use xlink:href="#mdfef2520b7" x="64.2325" y="471.368493" style="fill: #555555; stroke: #555555; stroke-width: 0.8"/>
      </g>
     </g>
     <g id="text_24">
      <!-- 200k -->
      <g style="fill: #555555" transform="translate(32.354375 475.167712) scale(0.1 -0.1)">
       <use xlink:href="#DejaVuSans-32"/>
       <use xlink:href="#DejaVuSans-30" x="63.623047"/>
       <use xlink:href="#DejaVuSans-30" x="127.246094"/>
       <use xlink:href="#DejaVuSans-6b" x="190.869141"/>
      </g>
     </g>
    </g>
    <g id="ytick_3">
     <g id="line2d_47">
      <path d="M 64.2325 364.195236 
L 967.0765 364.195236 
" clip-path="url(#pf1206b3f2f)" style="fill: none; stroke: #ffffff; stroke-width: 0.8; stroke-linecap: square"/>
     </g>
     <g id="line2d_48">
      <g>
       <use xlink:href="#mdfef2520b7" x="64.2325" y="364.195236" style="fill: #555555; stroke: #555555; stroke-width: 0.8"/>
      </g>
     </g>
     <g id="text_25">
      <!-- 400k -->
      <g style="fill: #555555" transform="translate(32.354375 367.994454) scale(0.1 -0.1)">
       <use xlink:href="#DejaVuSans-34"/>
       <use xlink:href="#DejaVuSans-30" x="63.623047"/>
       <use xlink:href="#DejaVuSans-30" x="127.246094"/>
       <use xlink:href="#DejaVuSans-6b" x="190.869141"/>
      </g>
     </g>
    </g>
    <g id="ytick_4">
     <g id="line2d_49">
      <path d="M 64.2325 257.021979 
L 967.0765 257.021979 
" clip-path="url(#pf1206b3f2f)" style="fill: none; stroke: #ffffff; stroke-width: 0.8; stroke-linecap: square"/>
     </g>
     <g id="line2d_50">
      <g>
       <use xlink:href="#mdfef2520b7" x="64.2325" y="257.021979" style="fill: #555555; stroke: #555555; stroke-width: 0.8"/>
      </g>
     </g>
     <g id="text_26">
      <!-- 600k -->
      <g style="fill: #555555" transform="translate(32.354375 260.821197) scale(0.1 -0.1)">
       <use xlink:href="#DejaVuSans-36"/>
       <use xlink:href="#DejaVuSans-30" x="63.623047"/>
       <use xlink:href="#DejaVuSans-30" x="127.246094"/>
       <use xlink:href="#DejaVuSans-6b" x="190.869141"/>
      </g>
     </g>
    </g>
    <g id="ytick_5">
     <g id="line2d_51">
      <path d="M 64.2325 149.848721 
L 967.0765 149.848721 
" clip-path="url(#pf1206b3f2f)" style="fill: none; stroke: #ffffff; stroke-width: 0.8; stroke-linecap: square"/>
     </g>
     <g id="line2d_52">
      <g>
       <use xlink:href="#mdfef2520b7" x="64.2325" y="149.848721" style="fill: #555555; stroke: #555555; stroke-width: 0.8"/>
      </g>
     </g>
     <g id="text_27">
      <!-- 800k -->
      <g style="fill: #555555" transform="translate(32.354375 153.64794) scale(0.1 -0.1)">
       <defs>
        <path id="DejaVuSans-38" d="M 2034 2216 
Q 1584 2216 1326 1975 
Q 1069 1734 1069 1313 
Q 1069 891 1326 650 
Q 1584 409 2034 409 
Q 2484 409 2743 651 
Q 3003 894 3003 1313 
Q 3003 1734 2745 1975 
Q 2488 2216 2034 2216 
z
M 1403 2484 
Q 997 2584 770 2862 
Q 544 3141 544 3541 
Q 544 4100 942 4425 
Q 1341 4750 2034 4750 
Q 2731 4750 3128 4425 
Q 3525 4100 3525 3541 
Q 3525 3141 3298 2862 
Q 3072 2584 2669 2484 
Q 3125 2378 3379 2068 
Q 3634 1759 3634 1313 
Q 3634 634 3220 271 
Q 2806 -91 2034 -91 
Q 1263 -91 848 271 
Q 434 634 434 1313 
Q 434 1759 690 2068 
Q 947 2378 1403 2484 
z
M 1172 3481 
Q 1172 3119 1398 2916 
Q 1625 2713 2034 2713 
Q 2441 2713 2670 2916 
Q 2900 3119 2900 3481 
Q 2900 3844 2670 4047 
Q 2441 4250 2034 4250 
Q 1625 4250 1398 4047 
Q 1172 3844 1172 3481 
z
" transform="scale(0.015625)"/>
       </defs>
       <use xlink:href="#DejaVuSans-38"/>
       <use xlink:href="#DejaVuSans-30" x="63.623047"/>
       <use xlink:href="#DejaVuSans-30" x="127.246094"/>
       <use xlink:href="#DejaVuSans-6b" x="190.869141"/>
      </g>
     </g>
    </g>
    <g id="ytick_6">
     <g id="line2d_53">
      <path d="M 64.2325 42.675464 
L 967.0765 42.675464 
" clip-path="url(#pf1206b3f2f)" style="fill: none; stroke: #ffffff; stroke-width: 0.8; stroke-linecap: square"/>
     </g>
     <g id="line2d_54">
      <g>
       <use xlink:href="#mdfef2520b7" x="64.2325" y="42.675464" style="fill: #555555; stroke: #555555; stroke-width: 0.8"/>
      </g>
     </g>
     <g id="text_28">
      <!-- 1,000k -->
      <g style="fill: #555555" transform="translate(22.81375 46.474683) scale(0.1 -0.1)">
       <defs>
        <path id="DejaVuSans-2c" d="M 750 794 
L 1409 794 
L 1409 256 
L 897 -744 
L 494 -744 
L 750 256 
L 750 794 
z
" transform="scale(0.015625)"/>
       </defs>
       <use xlink:href="#DejaVuSans-31"/>
       <use xlink:href="#DejaVuSans-2c" x="63.623047"/>
       <use xlink:href="#DejaVuSans-30" x="95.410156"/>
       <use xlink:href="#DejaVuSans-30" x="159.033203"/>
       <use xlink:href="#DejaVuSans-30" x="222.65625"/>
       <use xlink:href="#DejaVuSans-6b" x="286.279297"/>
      </g>
     </g>
    </g>
    <g id="text_29">
     <!-- Instances -->
     <g style="fill: #555555" transform="translate(16.318125 329.988) rotate(-90) scale(0.12 -0.12)">
      <defs>
       <path id="DejaVuSans-49" d="M 628 4666 
L 1259 4666 
L 1259 0 
L 628 0 
L 628 4666 
z
" transform="scale(0.015625)"/>
       <path id="DejaVuSans-6e" d="M 3513 2113 
L 3513 0 
L 2938 0 
L 2938 2094 
Q 2938 2591 2744 2837 
Q 2550 3084 2163 3084 
Q 1697 3084 1428 2787 
Q 1159 2491 1159 1978 
L 1159 0 
L 581 0 
L 581 3500 
L 1159 3500 
L 1159 2956 
Q 1366 3272 1645 3428 
Q 1925 3584 2291 3584 
Q 2894 3584 3203 3211 
Q 3513 2838 3513 2113 
z
" transform="scale(0.015625)"/>
       <path id="DejaVuSans-73" d="M 2834 3397 
L 2834 2853 
Q 2591 2978 2328 3040 
Q 2066 3103 1784 3103 
Q 1356 3103 1142 2972 
Q 928 2841 928 2578 
Q 928 2378 1081 2264 
Q 1234 2150 1697 2047 
L 1894 2003 
Q 2506 1872 2764 1633 
Q 3022 1394 3022 966 
Q 3022 478 2636 193 
Q 2250 -91 1575 -91 
Q 1294 -91 989 -36 
Q 684 19 347 128 
L 347 722 
Q 666 556 975 473 
Q 1284 391 1588 391 
Q 1994 391 2212 530 
Q 2431 669 2431 922 
Q 2431 1156 2273 1281 
Q 2116 1406 1581 1522 
L 1381 1569 
Q 847 1681 609 1914 
Q 372 2147 372 2553 
Q 372 3047 722 3315 
Q 1072 3584 1716 3584 
Q 2034 3584 2315 3537 
Q 2597 3491 2834 3397 
z
" transform="scale(0.015625)"/>
       <path id="DejaVuSans-63" d="M 3122 3366 
L 3122 2828 
Q 2878 2963 2633 3030 
Q 2388 3097 2138 3097 
Q 1578 3097 1268 2742 
Q 959 2388 959 1747 
Q 959 1106 1268 751 
Q 1578 397 2138 397 
Q 2388 397 2633 464 
Q 2878 531 3122 666 
L 3122 134 
Q 2881 22 2623 -34 
Q 2366 -91 2075 -91 
Q 1284 -91 818 406 
Q 353 903 353 1747 
Q 353 2603 823 3093 
Q 1294 3584 2113 3584 
Q 2378 3584 2631 3529 
Q 2884 3475 3122 3366 
z
" transform="scale(0.015625)"/>
      </defs>
      <use xlink:href="#DejaVuSans-49"/>
      <use xlink:href="#DejaVuSans-6e" x="29.492188"/>
      <use xlink:href="#DejaVuSans-73" x="92.871094"/>
      <use xlink:href="#DejaVuSans-74" x="144.970703"/>
      <use xlink:href="#DejaVuSans-61" x="184.179688"/>
      <use xlink:href="#DejaVuSans-6e" x="245.458984"/>
      <use xlink:href="#DejaVuSans-63" x="308.837891"/>
      <use xlink:href="#DejaVuSans-65" x="363.818359"/>
      <use xlink:href="#DejaVuSans-73" x="425.341797"/>
     </g>
    </g>
   </g>
   <g id="line2d_55">
    <path d="M 64.2325 615.125482 
L 73.318853 612.923845 
L 82.405206 610.722208 
L 91.491559 608.52057 
L 100.577912 606.318933 
L 109.664265 604.117295 
L 118.750618 601.915658 
L 127.836971 599.714021 
L 136.923324 597.512383 
L 146.009677 595.310746 
L 155.09603 593.109108 
L 164.182383 590.907471 
L 173.268736 588.705834 
L 182.355089 586.504196 
L 191.441442 584.302559 
L 200.527795 582.100922 
L 209.614148 579.899284 
L 218.700501 577.697647 
L 227.786854 575.496009 
L 236.873207 573.294372 
L 245.95956 571.092735 
L 255.045913 568.891097 
L 264.132266 566.68946 
L 273.218619 564.487822 
L 282.304972 562.286185 
L 291.391325 560.084548 
L 300.477679 557.88291 
L 309.564032 555.681273 
L 318.650385 553.479635 
L 327.736738 551.277998 
L 336.823091 549.076361 
L 345.909444 546.874723 
L 354.995797 544.673086 
L 364.08215 542.471448 
L 373.168503 540.269811 
L 382.254856 538.068174 
L 391.341209 535.866536 
L 400.427562 533.664899 
L 409.513915 531.463262 
L 418.600268 529.261624 
L 427.686621 527.059987 
L 436.772974 524.858349 
L 445.859327 522.656712 
L 454.94568 520.455075 
L 464.032033 518.253437 
L 473.118386 516.0518 
L 482.204739 513.850162 
L 491.291092 511.648525 
L 500.377445 509.446888 
L 509.463798 507.24525 
L 518.550151 505.043613 
L 527.636504 502.841975 
L 536.722857 500.640338 
L 545.80921 498.438701 
L 554.895563 496.237063 
L 563.981916 494.035426 
L 573.068269 491.833789 
L 582.154622 489.632151 
L 591.240975 487.430514 
L 600.327328 485.228876 
L 609.413681 483.027239 
L 618.500034 480.825602 
L 627.586387 478.623964 
L 636.67274 476.422327 
L 645.759093 474.220689 
L 654.845446 472.019052 
L 663.931799 469.817415 
L 673.018152 467.615777 
L 682.104505 465.41414 
L 691.190858 463.212502 
L 700.277211 461.010865 
L 709.363564 458.809228 
L 718.449917 456.60759 
L 727.53627 454.405953 
L 736.622623 452.204316 
L 745.708976 450.002678 
L 754.795329 447.801041 
L 763.881682 445.599403 
L 772.968036 443.397766 
L 782.054389 441.196129 
L 791.140742 438.994491 
L 800.227095 436.792854 
L 809.313448 434.591216 
L 818.399801 432.389579 
L 827.486154 430.187942 
L 836.572507 427.986304 
L 845.65886 425.784667 
L 854.745213 423.583029 
L 863.831566 421.381392 
L 872.917919 419.179755 
L 882.004272 416.978117 
L 891.090625 414.77648 
L 900.176978 412.574842 
L 909.263331 410.373205 
L 918.349684 408.171568 
L 927.436037 405.96993 
L 936.52239 403.768293 
L 945.608743 401.566656 
L 954.695096 399.365018 
L 963.781449 397.163381 
" clip-path="url(#pf1206b3f2f)" style="fill: none; stroke-dasharray: 3,4.95; stroke-dashoffset: 0; stroke: #4ac1fa; stroke-opacity: 0.9; stroke-width: 3"/>
   </g>
   <g id="line2d_56">
    <path d="M 64.2325 358.452051 
L 73.318853 360.885314 
L 82.405206 363.318578 
L 91.491559 365.751841 
L 100.577912 368.185105 
L 109.664265 370.618368 
L 118.750618 373.051632 
L 127.836971 375.484895 
L 136.923324 377.918159 
L 146.009677 380.351422 
L 155.09603 382.784686 
L 164.182383 385.217949 
L 173.268736 387.651213 
L 182.355089 390.084476 
L 191.441442 392.51774 
L 200.527795 394.951003 
L 209.614148 397.384267 
L 218.700501 399.81753 
L 227.786854 402.250794 
L 236.873207 404.684057 
L 245.95956 407.11732 
L 255.045913 409.550584 
L 264.132266 411.983847 
L 273.218619 414.417111 
L 282.304972 416.850374 
L 291.391325 419.283638 
L 300.477679 421.716901 
L 309.564032 424.150165 
L 318.650385 426.583428 
L 327.736738 429.016692 
L 336.823091 431.449955 
L 345.909444 433.883219 
L 354.995797 436.316482 
L 364.08215 438.749746 
L 373.168503 441.183009 
L 382.254856 443.616273 
L 391.341209 446.049536 
L 400.427562 448.4828 
L 409.513915 450.916063 
L 418.600268 453.349327 
L 427.686621 455.78259 
L 436.772974 458.215854 
L 445.859327 460.649117 
L 454.94568 463.08238 
L 464.032033 465.515644 
L 473.118386 467.948907 
L 482.204739 470.382171 
L 491.291092 472.815434 
L 500.377445 475.248698 
L 509.463798 477.681961 
L 518.550151 480.115225 
L 527.636504 482.548488 
L 536.722857 484.981752 
L 545.80921 487.415015 
L 554.895563 489.848279 
L 563.981916 492.281542 
L 573.068269 494.714806 
L 582.154622 497.148069 
L 591.240975 499.581333 
L 600.327328 502.014596 
L 609.413681 504.44786 
L 618.500034 506.881123 
L 627.586387 509.314387 
L 636.67274 511.74765 
L 645.759093 514.180913 
L 654.845446 516.614177 
L 663.931799 519.04744 
L 673.018152 521.480704 
L 682.104505 523.913967 
L 691.190858 526.347231 
L 700.277211 528.780494 
L 709.363564 531.213758 
L 718.449917 533.647021 
L 727.53627 536.080285 
L 736.622623 538.513548 
L 745.708976 540.946812 
L 754.795329 543.380075 
L 763.881682 545.813339 
L 772.968036 548.246602 
L 782.054389 550.679866 
L 791.140742 553.113129 
L 800.227095 555.546393 
L 809.313448 557.979656 
L 818.399801 560.41292 
L 827.486154 562.846183 
L 836.572507 565.279446 
L 845.65886 567.71271 
L 854.745213 570.145973 
L 863.831566 572.579237 
L 872.917919 575.0125 
L 882.004272 577.445764 
L 891.090625 579.879027 
L 900.176978 582.312291 
L 909.263331 584.745554 
L 918.349684 587.178818 
L 927.436037 589.612081 
L 936.52239 592.045345 
L 945.608743 594.478608 
L 954.695096 596.911872 
L 963.781449 599.345135 
" clip-path="url(#pf1206b3f2f)" style="fill: none; stroke-dasharray: 3,4.95; stroke-dashoffset: 0; stroke: #e9a942; stroke-opacity: 0.9; stroke-width: 3"/>
   </g>
   <g id="line2d_57">
    <path d="M 64.2325 555.046978 
L 73.318853 554.412141 
L 82.405206 553.777304 
L 91.491559 553.142467 
L 100.577912 552.50763 
L 109.664265 551.872792 
L 118.750618 551.237955 
L 127.836971 550.603118 
L 136.923324 549.968281 
L 146.009677 549.333443 
L 155.09603 548.698606 
L 164.182383 548.063769 
L 173.268736 547.428932 
L 182.355089 546.794095 
L 191.441442 546.159257 
L 200.527795 545.52442 
L 209.614148 544.889583 
L 218.700501 544.254746 
L 227.786854 543.619908 
L 236.873207 542.985071 
L 245.95956 542.350234 
L 255.045913 541.715397 
L 264.132266 541.080559 
L 273.218619 540.445722 
L 282.304972 539.810885 
L 291.391325 539.176048 
L 300.477679 538.541211 
L 309.564032 537.906373 
L 318.650385 537.271536 
L 327.736738 536.636699 
L 336.823091 536.001862 
L 345.909444 535.367024 
L 354.995797 534.732187 
L 364.08215 534.09735 
L 373.168503 533.462513 
L 382.254856 532.827676 
L 391.341209 532.192838 
L 400.427562 531.558001 
L 409.513915 530.923164 
L 418.600268 530.288327 
L 427.686621 529.653489 
L 436.772974 529.018652 
L 445.859327 528.383815 
L 454.94568 527.748978 
L 464.032033 527.11414 
L 473.118386 526.479303 
L 482.204739 525.844466 
L 491.291092 525.209629 
L 500.377445 524.574792 
L 509.463798 523.939954 
L 518.550151 523.305117 
L 527.636504 522.67028 
L 536.722857 522.035443 
L 545.80921 521.400605 
L 554.895563 520.765768 
L 563.981916 520.130931 
L 573.068269 519.496094 
L 582.154622 518.861257 
L 591.240975 518.226419 
L 600.327328 517.591582 
L 609.413681 516.956745 
L 618.500034 516.321908 
L 627.586387 515.68707 
L 636.67274 515.052233 
L 645.759093 514.417396 
L 654.845446 513.782559 
L 663.931799 513.147721 
L 673.018152 512.512884 
L 682.104505 511.878047 
L 691.190858 511.24321 
L 700.277211 510.608373 
L 709.363564 509.973535 
L 718.449917 509.338698 
L 727.53627 508.703861 
L 736.622623 508.069024 
L 745.708976 507.434186 
L 754.795329 506.799349 
L 763.881682 506.164512 
L 772.968036 505.529675 
L 782.054389 504.894838 
L 791.140742 504.26 
L 800.227095 503.625163 
L 809.313448 502.990326 
L 818.399801 502.355489 
L 827.486154 501.720651 
L 836.572507 501.085814 
L 845.65886 500.450977 
L 854.745213 499.81614 
L 863.831566 499.181303 
L 872.917919 498.546465 
L 882.004272 497.911628 
L 891.090625 497.276791 
L 900.176978 496.641954 
L 909.263331 496.007116 
L 918.349684 495.372279 
L 927.436037 494.737442 
L 936.52239 494.102605 
L 945.608743 493.467767 
L 954.695096 492.83293 
L 963.781449 492.198093 
" clip-path="url(#pf1206b3f2f)" style="fill: none; stroke-dasharray: 3,4.95; stroke-dashoffset: 0; stroke: #9a5689; stroke-opacity: 0.9; stroke-width: 3"/>
   </g>
   <g id="line2d_58">
    <path d="M 64.2325 573.481995 
L 73.318853 573.098615 
L 82.405206 572.715236 
L 91.491559 572.331857 
L 100.577912 571.948477 
L 109.664265 571.565098 
L 118.750618 571.181719 
L 127.836971 570.798339 
L 136.923324 570.41496 
L 146.009677 570.031581 
L 155.09603 569.648201 
L 164.182383 569.264822 
L 173.268736 568.881443 
L 182.355089 568.498063 
L 191.441442 568.114684 
L 200.527795 567.731305 
L 209.614148 567.347925 
L 218.700501 566.964546 
L 227.786854 566.581167 
L 236.873207 566.197788 
L 245.95956 565.814408 
L 255.045913 565.431029 
L 264.132266 565.04765 
L 273.218619 564.66427 
L 282.304972 564.280891 
L 291.391325 563.897512 
L 300.477679 563.514132 
L 309.564032 563.130753 
L 318.650385 562.747374 
L 327.736738 562.363994 
L 336.823091 561.980615 
L 345.909444 561.597236 
L 354.995797 561.213856 
L 364.08215 560.830477 
L 373.168503 560.447098 
L 382.254856 560.063718 
L 391.341209 559.680339 
L 400.427562 559.29696 
L 409.513915 558.91358 
L 418.600268 558.530201 
L 427.686621 558.146822 
L 436.772974 557.763442 
L 445.859327 557.380063 
L 454.94568 556.996684 
L 464.032033 556.613304 
L 473.118386 556.229925 
L 482.204739 555.846546 
L 491.291092 555.463167 
L 500.377445 555.079787 
L 509.463798 554.696408 
L 518.550151 554.313029 
L 527.636504 553.929649 
L 536.722857 553.54627 
L 545.80921 553.162891 
L 554.895563 552.779511 
L 563.981916 552.396132 
L 573.068269 552.012753 
L 582.154622 551.629373 
L 591.240975 551.245994 
L 600.327328 550.862615 
L 609.413681 550.479235 
L 618.500034 550.095856 
L 627.586387 549.712477 
L 636.67274 549.329097 
L 645.759093 548.945718 
L 654.845446 548.562339 
L 663.931799 548.178959 
L 673.018152 547.79558 
L 682.104505 547.412201 
L 691.190858 547.028821 
L 700.277211 546.645442 
L 709.363564 546.262063 
L 718.449917 545.878683 
L 727.53627 545.495304 
L 736.622623 545.111925 
L 745.708976 544.728545 
L 754.795329 544.345166 
L 763.881682 543.961787 
L 772.968036 543.578408 
L 782.054389 543.195028 
L 791.140742 542.811649 
L 800.227095 542.42827 
L 809.313448 542.04489 
L 818.399801 541.661511 
L 827.486154 541.278132 
L 836.572507 540.894752 
L 845.65886 540.511373 
L 854.745213 540.127994 
L 863.831566 539.744614 
L 872.917919 539.361235 
L 882.004272 538.977856 
L 891.090625 538.594476 
L 900.176978 538.211097 
L 909.263331 537.827718 
L 918.349684 537.444338 
L 927.436037 537.060959 
L 936.52239 536.67758 
L 945.608743 536.2942 
L 954.695096 535.910821 
L 963.781449 535.527442 
" clip-path="url(#pf1206b3f2f)" style="fill: none; stroke-dasharray: 3,4.95; stroke-dashoffset: 0; stroke: #be503b; stroke-opacity: 0.9; stroke-width: 3"/>
   </g>
   <g id="line2d_59">
    <path d="M 64.2325 505.525903 
L 73.318853 505.274607 
L 82.405206 505.023312 
L 91.491559 504.772017 
L 100.577912 504.520721 
L 109.664265 504.269426 
L 118.750618 504.01813 
L 127.836971 503.766835 
L 136.923324 503.51554 
L 146.009677 503.264244 
L 155.09603 503.012949 
L 164.182383 502.761653 
L 173.268736 502.510358 
L 182.355089 502.259062 
L 191.441442 502.007767 
L 200.527795 501.756472 
L 209.614148 501.505176 
L 218.700501 501.253881 
L 227.786854 501.002585 
L 236.873207 500.75129 
L 245.95956 500.499995 
L 255.045913 500.248699 
L 264.132266 499.997404 
L 273.218619 499.746108 
L 282.304972 499.494813 
L 291.391325 499.243517 
L 300.477679 498.992222 
L 309.564032 498.740927 
L 318.650385 498.489631 
L 327.736738 498.238336 
L 336.823091 497.98704 
L 345.909444 497.735745 
L 354.995797 497.484449 
L 364.08215 497.233154 
L 373.168503 496.981859 
L 382.254856 496.730563 
L 391.341209 496.479268 
L 400.427562 496.227972 
L 409.513915 495.976677 
L 418.600268 495.725382 
L 427.686621 495.474086 
L 436.772974 495.222791 
L 445.859327 494.971495 
L 454.94568 494.7202 
L 464.032033 494.468904 
L 473.118386 494.217609 
L 482.204739 493.966314 
L 491.291092 493.715018 
L 500.377445 493.463723 
L 509.463798 493.212427 
L 518.550151 492.961132 
L 527.636504 492.709836 
L 536.722857 492.458541 
L 545.80921 492.207246 
L 554.895563 491.95595 
L 563.981916 491.704655 
L 573.068269 491.453359 
L 582.154622 491.202064 
L 591.240975 490.950769 
L 600.327328 490.699473 
L 609.413681 490.448178 
L 618.500034 490.196882 
L 627.586387 489.945587 
L 636.67274 489.694291 
L 645.759093 489.442996 
L 654.845446 489.191701 
L 663.931799 488.940405 
L 673.018152 488.68911 
L 682.104505 488.437814 
L 691.190858 488.186519 
L 700.277211 487.935223 
L 709.363564 487.683928 
L 718.449917 487.432633 
L 727.53627 487.181337 
L 736.622623 486.930042 
L 745.708976 486.678746 
L 754.795329 486.427451 
L 763.881682 486.176156 
L 772.968036 485.92486 
L 782.054389 485.673565 
L 791.140742 485.422269 
L 800.227095 485.170974 
L 809.313448 484.919678 
L 818.399801 484.668383 
L 827.486154 484.417088 
L 836.572507 484.165792 
L 845.65886 483.914497 
L 854.745213 483.663201 
L 863.831566 483.411906 
L 872.917919 483.16061 
L 882.004272 482.909315 
L 891.090625 482.65802 
L 900.176978 482.406724 
L 909.263331 482.155429 
L 918.349684 481.904133 
L 927.436037 481.652838 
L 936.52239 481.401543 
L 945.608743 481.150247 
L 954.695096 480.898952 
L 963.781449 480.647656 
" clip-path="url(#pf1206b3f2f)" style="fill: none; stroke-dasharray: 3,4.95; stroke-dashoffset: 0; stroke: #e2321d; stroke-opacity: 0.9; stroke-width: 3"/>
   </g>
   <g id="line2d_60">
    <path d="M 71.715475 645.743878 
L 73.318853 644.941896 
L 82.405206 640.397061 
L 91.491559 635.852226 
L 100.577912 631.307391 
L 109.664265 626.762557 
L 118.750618 622.217722 
L 127.836971 617.672887 
L 136.923324 613.128052 
L 146.009677 608.583217 
L 155.09603 604.038382 
L 164.182383 599.493547 
L 173.268736 594.948712 
L 182.355089 590.403877 
L 191.441442 585.859043 
L 200.527795 581.314208 
L 209.614148 576.769373 
L 218.700501 572.224538 
L 227.786854 567.679703 
L 236.873207 563.134868 
L 245.95956 558.590033 
L 255.045913 554.045198 
L 264.132266 549.500364 
L 273.218619 544.955529 
L 282.304972 540.410694 
L 291.391325 535.865859 
L 300.477679 531.321024 
L 309.564032 526.776189 
L 318.650385 522.231354 
L 327.736738 517.686519 
L 336.823091 513.141684 
L 345.909444 508.59685 
L 354.995797 504.052015 
L 364.08215 499.50718 
L 373.168503 494.962345 
L 382.254856 490.41751 
L 391.341209 485.872675 
L 400.427562 481.32784 
L 409.513915 476.783005 
L 418.600268 472.238171 
L 427.686621 467.693336 
L 436.772974 463.148501 
L 445.859327 458.603666 
L 454.94568 454.058831 
L 464.032033 449.513996 
L 473.118386 444.969161 
L 482.204739 440.424326 
L 491.291092 435.879491 
L 500.377445 431.334657 
L 509.463798 426.789822 
L 518.550151 422.244987 
L 527.636504 417.700152 
L 536.722857 413.155317 
L 545.80921 408.610482 
L 554.895563 404.065647 
L 563.981916 399.520812 
L 573.068269 394.975977 
L 582.154622 390.431143 
L 591.240975 385.886308 
L 600.327328 381.341473 
L 609.413681 376.796638 
L 618.500034 372.251803 
L 627.586387 367.706968 
L 636.67274 363.162133 
L 645.759093 358.617298 
L 654.845446 354.072464 
L 663.931799 349.527629 
L 673.018152 344.982794 
L 682.104505 340.437959 
L 691.190858 335.893124 
L 700.277211 331.348289 
L 709.363564 326.803454 
L 718.449917 322.258619 
L 727.53627 317.713784 
L 736.622623 313.16895 
L 745.708976 308.624115 
L 754.795329 304.07928 
L 763.881682 299.534445 
L 772.968036 294.98961 
L 782.054389 290.444775 
L 791.140742 285.89994 
L 800.227095 281.355105 
L 809.313448 276.810271 
L 818.399801 272.265436 
L 827.486154 267.720601 
L 836.572507 263.175766 
L 845.65886 258.630931 
L 854.745213 254.086096 
L 863.831566 249.541261 
L 872.917919 244.996426 
L 882.004272 240.451591 
L 891.090625 235.906757 
L 900.176978 231.361922 
L 909.263331 226.817087 
L 918.349684 222.272252 
L 927.436037 217.727417 
L 936.52239 213.182582 
L 945.608743 208.637747 
L 954.695096 204.092912 
L 963.781449 199.548078 
" clip-path="url(#pf1206b3f2f)" style="fill: none; stroke-dasharray: 3,4.95; stroke-dashoffset: 0; stroke: #48b585; stroke-opacity: 0.9; stroke-width: 3"/>
   </g>
   <g id="line2d_61">
    <path d="M 64.2325 578.54175 
L 84.002807 578.539874 
L 97.183011 577.998114 
L 103.773113 577.192171 
L 110.363215 576.695155 
L 116.953318 575.947085 
L 123.54342 573.459862 
L 130.133522 574.957876 
L 136.723624 575.404253 
L 143.313726 575.351202 
L 156.493931 574.479348 
L 163.084033 574.420938 
L 176.264237 574.537489 
L 182.854339 573.979652 
L 189.444442 572.121536 
L 196.034544 571.727674 
L 202.624646 568.728699 
L 209.214748 568.519175 
L 215.80485 566.086074 
L 222.394953 569.078887 
L 228.985055 566.003015 
L 235.575157 562.527922 
L 242.165259 561.386795 
L 248.755361 565.163312 
L 255.345464 561.070366 
L 261.935566 558.026377 
L 268.525668 554.154207 
L 275.11577 554.551284 
L 281.705872 553.677822 
L 288.295974 551.473268 
L 294.886077 555.243088 
L 301.476179 551.986628 
L 308.066281 544.619003 
L 314.656383 542.694707 
L 321.246485 543.015691 
L 327.836588 541.635299 
L 334.42669 549.733846 
L 341.016792 546.957791 
L 347.606894 545.428429 
L 354.196996 549.959446 
L 360.787099 548.609331 
L 367.377201 539.043582 
L 373.967303 542.439902 
L 380.557405 540.826409 
L 387.147507 539.61428 
L 393.737609 542.132851 
L 400.327712 542.134459 
L 406.917814 546.657974 
L 413.507916 553.250737 
L 420.098018 559.217072 
L 426.68812 552.905907 
L 433.278223 551.917234 
L 439.868325 553.092924 
L 446.458427 555.667226 
L 453.048529 554.007916 
L 459.638631 555.458238 
L 466.228734 555.728047 
L 472.818836 554.365607 
M 485.99904 547.284402 
L 492.589142 538.331952 
L 499.179245 538.857368 
L 512.359449 540.898483 
L 518.949551 539.454859 
L 525.539653 540.902234 
L 532.129755 536.921284 
L 538.719858 538.10394 
L 545.30996 537.029261 
L 551.900062 536.169463 
L 558.490164 492.911389 
L 565.080266 512.623766 
L 571.670369 508.165627 
L 578.260471 503.998195 
L 584.850573 500.750845 
L 591.440675 514.536541 
L 598.030777 510.816289 
L 604.62088 525.402302 
L 611.210982 523.906967 
L 617.801084 526.646047 
L 624.391186 532.42215 
L 630.981288 531.736509 
L 637.571391 530.515002 
L 644.161493 510.42082 
L 650.751595 507.285467 
L 657.341697 515.997313 
L 663.931799 511.32831 
L 670.521901 506.875261 
L 677.112004 495.521594 
L 683.702106 487.835128 
L 690.292208 494.222118 
L 696.88231 491.239486 
L 703.472412 493.958472 
L 710.062515 501.078527 
L 716.652617 494.885253 
L 723.242719 484.126933 
L 729.832821 488.169776 
L 736.422923 490.169629 
L 743.013026 482.337408 
L 749.603128 476.168247 
L 756.19323 479.203126 
L 762.783332 508.303077 
L 769.373434 475.375701 
L 775.963536 469.407222 
L 782.553639 469.630411 
L 789.143741 459.31043 
L 795.733843 456.728626 
L 802.323945 461.707895 
L 808.914047 476.851745 
L 815.50415 474.669697 
L 822.094252 383.738547 
L 828.684354 250.682948 
L 835.274456 253.384786 
L 841.864558 272.276752 
L 848.454661 293.919855 
L 855.044763 295.489408 
L 861.634865 285.76799 
L 868.224967 299.712034 
L 874.815069 297.738171 
L 881.405172 369.470839 
L 887.995274 378.887082 
L 894.585376 370.774602 
L 901.175478 376.557939 
L 907.76558 389.990767 
L 914.355682 392.524611 
L 920.945785 392.929994 
L 927.535887 415.718243 
L 934.125989 452.504928 
L 940.716091 421.913393 
L 947.306193 401.472506 
L 953.896296 399.352619 
L 960.486398 403.924362 
L 967.0765 410.372977 
L 967.0765 410.372977 
" clip-path="url(#pf1206b3f2f)" style="fill: none; stroke: #4ac1fa; stroke-width: 1.5; stroke-linecap: square"/>
   </g>
   <g id="line2d_62">
    <path d="M 64.2325 413.266119 
L 70.822602 451.672192 
L 77.412704 467.086117 
L 84.002807 430.566294 
L 90.592909 439.420681 
L 97.183011 408.896933 
L 103.773113 414.977676 
L 110.363215 402.919077 
L 116.953318 443.601242 
L 123.54342 422.489718 
L 130.133522 392.633659 
L 136.723624 368.551561 
L 143.313726 341.752084 
L 149.903828 328.219049 
L 156.493931 325.282502 
L 163.084033 285.392883 
L 169.674135 285.303661 
L 176.264237 288.414633 
L 182.854339 275.003508 
L 189.444442 285.211492 
L 196.034544 257.060829 
L 202.624646 219.81973 
L 209.214748 217.094314 
L 215.80485 201.383786 
L 222.394953 198.813771 
L 228.985055 129.380505 
L 235.575157 121.361802 
L 242.165259 124.665149 
L 248.755361 141.203055 
L 255.345464 119.357662 
L 261.935566 292.171324 
L 268.525668 385.872099 
L 275.11577 293.099444 
L 281.705872 479.192141 
L 288.295974 513.102295 
L 294.886077 522.924992 
L 301.476179 509.097498 
L 308.066281 512.304658 
L 314.656383 510.81361 
L 321.246485 516.10395 
L 327.836588 495.13845 
L 334.42669 509.196634 
L 341.016792 521.882464 
L 347.606894 548.835735 
L 354.196996 549.215128 
L 360.787099 550.071978 
L 367.377201 550.022678 
L 373.967303 549.022752 
L 380.557405 551.210158 
L 387.147507 548.710074 
L 393.737609 548.539668 
L 400.327712 553.07926 
L 406.917814 545.971529 
L 413.507916 535.65262 
L 420.098018 532.191192 
L 426.68812 523.469164 
L 433.278223 522.233724 
L 439.868325 527.129399 
L 446.458427 526.242004 
L 453.048529 531.080073 
L 459.638631 535.338335 
L 466.228734 538.291494 
L 472.818836 530.774629 
M 485.99904 492.084012 
L 492.589142 492.255221 
L 499.179245 500.993057 
L 505.769347 509.208959 
L 512.359449 550.224432 
L 518.949551 549.761711 
L 525.539653 551.043236 
L 532.129755 549.11117 
L 538.719858 552.862502 
L 545.30996 550.208624 
L 551.900062 547.218758 
L 558.490164 545.798712 
L 565.080266 540.682261 
L 571.670369 543.871201 
L 578.260471 546.066645 
L 584.850573 549.493778 
L 591.440675 552.699866 
L 598.030777 545.126468 
L 604.62088 545.932679 
L 611.210982 545.832472 
L 617.801084 538.680265 
L 624.391186 532.527448 
L 630.981288 534.660732 
L 637.571391 534.846141 
L 644.161493 535.525084 
L 650.751595 533.370634 
L 657.341697 522.388322 
L 663.931799 519.318076 
L 670.521901 528.015454 
L 677.112004 515.866293 
L 683.702106 527.13449 
L 690.292208 521.890502 
L 703.472412 522.647145 
L 710.062515 523.708964 
L 716.652617 518.870628 
L 723.242719 513.22742 
L 729.832821 520.794924 
L 736.422923 521.846561 
L 743.013026 517.256866 
L 749.603128 515.427955 
L 756.19323 513.864833 
L 762.783332 514.992295 
L 769.373434 497.044258 
L 775.963536 495.979492 
L 782.553639 503.018899 
L 789.143741 504.40331 
L 795.733843 520.79144 
L 802.323945 514.277986 
L 808.914047 519.04532 
L 815.50415 525.560114 
L 822.094252 540.893392 
L 828.684354 520.858156 
L 835.274456 476.979817 
L 841.864558 538.62775 
L 848.454661 561.665445 
L 855.044763 560.449029 
L 861.634865 557.778003 
L 868.224967 557.169259 
L 874.815069 557.397806 
L 881.405172 555.698038 
L 887.995274 559.704442 
L 894.585376 559.769818 
L 901.175478 561.407961 
L 907.76558 560.465373 
L 914.355682 562.547481 
L 920.945785 562.247932 
L 927.535887 559.542343 
L 934.125989 557.574642 
L 940.716091 563.135594 
L 947.306193 565.010322 
L 953.896296 564.712649 
L 960.486398 564.078451 
L 967.0765 564.632269 
L 967.0765 564.632269 
" clip-path="url(#pf1206b3f2f)" style="fill: none; stroke: #e9a942; stroke-width: 1.5; stroke-linecap: square"/>
   </g>
   <g id="line2d_63">
    <path d="M 64.2325 575.595021 
L 70.822602 574.577679 
L 77.412704 575.451409 
L 84.002807 574.410221 
L 90.592909 573.765038 
L 97.183011 573.37332 
L 103.773113 573.457451 
L 110.363215 572.930426 
L 116.953318 573.500588 
L 123.54342 572.729208 
L 130.133522 572.102245 
L 136.723624 572.832363 
L 143.313726 572.971956 
L 149.903828 572.601672 
L 156.493931 570.404353 
L 163.084033 563.033512 
L 169.674135 563.176856 
L 176.264237 560.425718 
L 182.854339 558.490437 
L 189.444442 558.930384 
L 196.034544 549.076606 
L 202.624646 550.955354 
L 209.214748 547.744979 
L 215.80485 549.700623 
L 222.394953 550.892389 
L 228.985055 558.993884 
L 235.575157 556.973132 
L 242.165259 557.600631 
L 248.755361 562.112893 
L 255.345464 556.255339 
L 261.935566 522.6517 
L 268.525668 489.629208 
L 275.11577 521.791903 
L 281.705872 501.586529 
L 288.295974 520.120804 
L 294.886077 523.399502 
L 301.476179 521.814409 
L 308.066281 528.031798 
L 314.656383 529.135682 
L 321.246485 530.793117 
L 327.836588 530.066482 
L 334.42669 531.005052 
L 341.016792 531.717486 
L 347.606894 524.695494 
L 354.196996 530.761233 
L 360.787099 523.409147 
L 367.377201 520.547353 
L 373.967303 507.634851 
L 380.557405 507.101396 
L 387.147507 497.870832 
L 393.737609 491.883866 
L 400.327712 505.055191 
L 406.917814 508.041306 
L 413.507916 500.433076 
L 420.098018 514.312281 
L 426.68812 503.569234 
L 433.278223 510.649099 
L 439.868325 514.984257 
L 446.458427 512.391468 
L 453.048529 514.554493 
L 459.638631 510.911138 
L 466.228734 523.36735 
L 472.818836 510.583991 
M 485.99904 518.207493 
L 492.589142 512.372981 
L 499.179245 524.512228 
L 505.769347 527.847192 
L 512.359449 526.2128 
L 518.949551 518.407371 
L 525.539653 522.862028 
L 532.129755 519.900563 
L 538.719858 519.464635 
L 545.30996 513.64218 
L 551.900062 508.922002 
L 558.490164 509.033462 
L 565.080266 504.286759 
L 571.670369 501.650833 
L 578.260471 510.10064 
L 584.850573 515.200479 
L 591.440675 528.022956 
L 598.030777 516.420379 
L 604.62088 512.575538 
L 611.210982 512.902953 
L 617.801084 513.930744 
L 624.391186 495.705128 
L 630.981288 494.427623 
L 637.571391 503.788403 
L 644.161493 499.295432 
L 650.751595 500.515332 
L 657.341697 508.056846 
L 663.931799 520.152956 
L 670.521901 521.301049 
L 677.112004 520.146525 
L 683.702106 511.555517 
L 690.292208 501.934306 
L 696.88231 506.262498 
L 703.472412 506.288755 
L 710.062515 511.259183 
L 716.652617 509.853874 
L 723.242719 513.12373 
L 729.832821 510.787621 
L 736.422923 514.576463 
L 743.013026 514.907629 
L 749.603128 514.021842 
L 756.19323 513.268414 
L 762.783332 532.170025 
L 769.373434 516.738684 
L 775.963536 514.214753 
L 782.553639 504.057676 
L 789.143741 507.184456 
L 795.733843 510.6282 
L 802.323945 505.733062 
L 808.914047 512.18516 
L 815.50415 512.060571 
L 822.094252 509.499934 
L 828.684354 511.02367 
L 835.274456 512.921172 
L 841.864558 514.353007 
L 848.454661 521.269969 
L 855.044763 520.018185 
L 861.634865 508.412929 
L 868.224967 506.924293 
L 874.815069 506.632513 
L 881.405172 503.929604 
L 887.995274 499.912214 
L 894.585376 502.135256 
L 901.175478 506.849003 
L 907.76558 496.835806 
L 914.355682 504.52254 
L 920.945785 506.252048 
L 927.535887 494.553016 
L 934.125989 517.647513 
L 940.716091 493.926856 
L 947.306193 495.215346 
L 953.896296 497.394982 
L 960.486398 501.959224 
L 967.0765 499.514334 
L 967.0765 499.514334 
" clip-path="url(#pf1206b3f2f)" style="fill: none; stroke: #9a5689; stroke-width: 1.5; stroke-linecap: square"/>
   </g>
   <g id="line2d_64">
    <path d="M 64.2325 577.449655 
L 70.822602 576.880565 
L 77.412704 577.115542 
L 84.002807 576.702121 
L 97.183011 576.25119 
L 103.773113 576.173757 
L 116.953318 576.523678 
L 130.133522 576.068459 
L 136.723624 576.381941 
L 143.313726 576.555562 
L 149.903828 575.278056 
L 156.493931 572.437161 
L 163.084033 571.859497 
L 169.674135 571.823326 
L 176.264237 573.006787 
L 182.854339 572.619624 
L 189.444442 573.29937 
L 196.034544 572.670531 
L 202.624646 573.498177 
L 209.214748 572.839865 
L 215.80485 572.667584 
L 222.394953 573.28383 
L 228.985055 571.233874 
L 235.575157 570.216799 
L 248.755361 571.235213 
L 255.345464 569.352179 
L 261.935566 567.090555 
L 268.525668 566.731793 
L 275.11577 550.025358 
L 281.705872 547.019684 
L 288.295974 534.06592 
L 294.886077 545.587849 
L 301.476179 528.056448 
L 308.066281 527.285872 
L 314.656383 529.102191 
L 321.246485 538.702503 
L 327.836588 523.35824 
L 334.42669 531.599863 
L 341.016792 542.506886 
L 347.606894 550.941689 
L 354.196996 533.385102 
L 360.787099 548.605044 
L 367.377201 573.186838 
L 373.967303 571.416604 
L 380.557405 567.956247 
L 387.147507 559.869489 
L 393.737609 569.040573 
L 400.327712 568.699494 
L 406.917814 565.72758 
L 413.507916 566.252728 
L 420.098018 565.588522 
L 433.278223 561.339103 
L 439.868325 562.873556 
L 446.458427 566.141536 
L 453.048529 567.281324 
L 459.638631 566.062228 
L 466.228734 566.320516 
L 472.818836 561.70108 
M 485.99904 562.225961 
L 499.179245 562.523099 
L 505.769347 560.18833 
L 512.359449 558.090413 
L 518.949551 558.843037 
L 525.539653 562.947773 
L 532.129755 560.302469 
L 538.719858 558.441941 
L 545.30996 556.170672 
L 551.900062 557.610009 
L 558.490164 555.875678 
L 565.080266 548.180102 
L 571.670369 548.203948 
L 578.260471 549.420901 
L 584.850573 552.728535 
L 591.440675 558.418363 
L 598.030777 555.796906 
L 604.62088 553.688004 
L 611.210982 555.960613 
L 624.391186 550.21827 
L 630.981288 552.531068 
L 637.571391 546.46399 
L 644.161493 549.717235 
L 650.751595 547.290564 
L 657.341697 546.40183 
L 663.931799 549.091075 
L 670.521901 547.855635 
L 677.112004 550.790039 
L 683.702106 548.969969 
L 690.292208 548.463307 
L 696.88231 549.684815 
L 703.472412 549.079286 
L 710.062515 548.003802 
L 716.652617 547.570018 
L 723.242719 549.976862 
L 729.832821 551.054757 
L 736.422923 544.359911 
L 743.013026 548.279773 
L 749.603128 541.930829 
L 756.19323 548.28674 
L 762.783332 567.202284 
L 769.373434 553.731945 
L 775.963536 553.82331 
L 782.553639 545.487374 
L 789.143741 545.742982 
L 795.733843 540.731829 
L 802.323945 546.059947 
L 808.914047 547.841167 
L 815.50415 542.197155 
L 822.094252 542.293611 
L 828.684354 539.796206 
L 835.274456 542.684525 
L 841.864558 534.78023 
L 848.454661 541.984148 
L 855.044763 523.628852 
L 861.634865 517.38601 
L 868.224967 533.797451 
L 874.815069 538.060267 
L 881.405172 531.768393 
L 887.995274 536.870912 
L 894.585376 537.982567 
L 901.175478 543.441169 
L 907.76558 539.194696 
L 914.355682 535.375845 
L 920.945785 542.98595 
L 927.535887 531.534488 
L 934.125989 556.901058 
L 940.716091 531.938799 
L 947.306193 527.669552 
L 953.896296 521.661151 
L 960.486398 521.211827 
L 967.0765 532.241831 
L 967.0765 532.241831 
" clip-path="url(#pf1206b3f2f)" style="fill: none; stroke: #be503b; stroke-width: 1.5; stroke-linecap: square"/>
   </g>
   <g id="line2d_65">
    <path d="M 64.2325 559.114454 
L 70.822602 562.376808 
L 77.412704 565.158757 
L 84.002807 554.826184 
L 90.592909 553.372111 
L 97.183011 548.19725 
L 103.773113 540.493368 
L 110.363215 539.494245 
L 116.953318 526.05713 
L 123.54342 505.800045 
L 130.133522 479.92333 
L 136.723624 481.223074 
L 143.313726 469.317197 
L 149.903828 487.719381 
L 156.493931 470.508695 
L 163.084033 460.180944 
L 169.674135 455.66252 
L 176.264237 452.189303 
L 182.854339 445.031469 
L 189.444442 445.563584 
L 196.034544 424.841099 
L 202.624646 418.544134 
L 209.214748 408.15583 
L 215.80485 413.353733 
L 222.394953 412.715784 
L 228.985055 404.542752 
L 235.575157 419.439567 
L 242.165259 482.207996 
L 248.755361 474.430165 
L 255.345464 464.51262 
L 261.935566 474.846533 
L 268.525668 468.740873 
L 275.11577 472.618401 
L 281.705872 473.023248 
L 288.295974 464.123313 
L 294.886077 461.077181 
L 301.476179 472.139872 
L 308.066281 511.155225 
L 314.656383 511.94268 
L 321.246485 518.512937 
L 327.836588 514.843325 
L 334.42669 519.955757 
L 341.016792 519.073453 
L 347.606894 516.416092 
L 354.196996 517.282052 
L 360.787099 513.651022 
L 367.377201 515.987399 
L 373.967303 515.158414 
L 380.557405 518.193293 
L 387.147507 511.270436 
L 393.737609 524.764889 
L 400.327712 532.562279 
L 406.917814 532.751708 
L 413.507916 536.80634 
L 420.098018 546.915994 
L 426.68812 537.430892 
L 433.278223 533.46575 
L 439.868325 532.283897 
L 446.458427 531.358456 
L 453.048529 531.932636 
L 459.638631 531.656397 
L 466.228734 534.003492 
L 472.818836 531.009339 
M 485.99904 528.487284 
L 492.589142 531.402933 
L 499.179245 530.082558 
L 505.769347 527.927572 
L 512.359449 523.793631 
L 518.949551 524.081124 
L 525.539653 527.386883 
L 532.129755 517.251508 
L 538.719858 522.536221 
L 545.30996 520.931569 
L 551.900062 520.786886 
L 558.490164 517.237575 
L 565.080266 514.289239 
L 571.670369 510.915693 
L 578.260471 509.554324 
L 584.850573 511.119054 
L 591.440675 533.051257 
L 598.030777 514.729989 
L 604.62088 509.20226 
L 611.210982 506.64457 
L 617.801084 504.662937 
L 624.391186 498.651321 
L 630.981288 501.215709 
L 637.571391 500.238289 
L 644.161493 496.421046 
L 650.751595 501.840529 
L 663.931799 497.222969 
L 670.521901 447.756617 
L 677.112004 494.695556 
L 683.702106 496.700232 
L 690.292208 491.08864 
L 696.88231 487.570946 
L 703.472412 488.79808 
L 710.062515 486.64738 
L 716.652617 483.897315 
L 723.242719 486.522791 
L 729.832821 471.499244 
L 736.422923 480.743206 
L 743.013026 477.637593 
L 749.603128 482.668037 
L 756.19323 487.966147 
L 762.783332 518.830974 
L 769.373434 489.13514 
L 775.963536 484.522135 
L 789.143741 477.052694 
L 795.733843 479.889571 
L 802.323945 466.913301 
L 808.914047 475.01024 
L 815.50415 479.501335 
L 822.094252 484.823024 
L 828.684354 474.292447 
L 835.274456 480.935314 
L 841.864558 475.20208 
L 848.454661 490.254832 
L 855.044763 491.989163 
L 861.634865 471.553635 
L 868.224967 475.954972 
L 874.815069 480.56637 
L 881.405172 474.674252 
L 887.995274 457.760704 
L 894.585376 453.729918 
L 901.175478 463.216895 
L 907.76558 456.480788 
L 914.355682 452.186087 
L 920.945785 460.711452 
L 927.535887 461.89652 
L 934.125989 488.639195 
L 940.716091 466.56204 
L 947.306193 443.243551 
L 953.896296 430.526908 
L 960.486398 435.699625 
L 967.0765 444.822749 
L 967.0765 444.822749 
" clip-path="url(#pf1206b3f2f)" style="fill: none; stroke: #e2321d; stroke-width: 1.5; stroke-linecap: square"/>
   </g>
   <g id="line2d_66">
    <path d="M 64.2325 578.54175 
L 123.54342 578.54175 
L 130.133522 578.323652 
L 136.723624 574.946623 
L 143.313726 577.344089 
L 149.903828 577.379992 
L 156.493931 575.480078 
L 163.084033 571.980335 
L 169.674135 572.034994 
L 176.264237 572.264612 
L 182.854339 571.492697 
L 189.444442 570.585743 
L 196.034544 570.193489 
L 202.624646 569.45962 
L 209.214748 567.625082 
L 215.80485 567.259621 
L 222.394953 565.899861 
L 228.985055 563.548479 
L 235.575157 557.598756 
L 242.165259 559.217876 
L 248.755361 559.830371 
L 255.345464 554.113214 
L 261.935566 545.962687 
L 268.525668 535.767295 
L 275.11577 533.30499 
L 281.705872 528.14165 
L 288.295974 518.3077 
L 294.886077 526.946936 
L 301.476179 519.502146 
L 308.066281 514.276914 
L 314.656383 506.709678 
L 321.246485 486.857708 
L 327.836588 462.470433 
L 334.42669 475.795552 
L 341.016792 493.505665 
L 347.606894 492.963636 
L 354.196996 469.237889 
L 360.787099 470.086969 
L 367.377201 472.182742 
L 373.967303 453.427958 
L 380.557405 463.744187 
L 387.147507 466.662783 
L 393.737609 498.540933 
L 400.327712 508.194296 
L 406.917814 506.989132 
L 413.507916 512.116033 
L 420.098018 516.518978 
L 426.68812 510.041695 
L 433.278223 520.949789 
L 439.868325 512.222938 
L 446.458427 514.679617 
L 453.048529 514.873065 
L 459.638631 507.016998 
L 466.228734 515.370617 
L 472.818836 509.471533 
M 485.99904 510.528797 
L 492.589142 505.962413 
L 499.179245 506.019482 
L 505.769347 520.607102 
L 512.359449 506.693602 
L 518.949551 498.493508 
L 525.539653 499.001242 
L 532.129755 502.468029 
L 538.719858 486.411331 
L 545.30996 471.658397 
L 551.900062 489.206142 
L 558.490164 474.979696 
L 565.080266 430.865576 
L 571.670369 421.490059 
L 578.260471 458.595316 
L 584.850573 455.889459 
L 591.440675 460.337685 
L 598.030777 442.618731 
L 604.62088 422.780961 
L 611.210982 438.883743 
L 617.801084 402.335787 
L 624.391186 395.342732 
L 630.981288 391.822894 
L 637.571391 384.077483 
L 644.161493 403.047685 
L 650.751595 443.451467 
L 657.341697 442.712775 
L 663.931799 438.856682 
L 670.521901 433.434518 
L 677.112004 431.52737 
L 683.702106 414.040178 
L 690.292208 396.178951 
L 696.88231 393.2416 
L 703.472412 386.94785 
L 710.062515 384.793132 
L 716.652617 359.540433 
L 723.242719 327.686666 
L 729.832821 319.173358 
L 736.422923 303.197844 
L 743.013026 319.585975 
L 749.603128 332.68871 
L 756.19323 294.336492 
L 762.783332 352.147354 
L 769.373434 284.018654 
L 775.963536 266.925055 
L 782.553639 208.561179 
L 789.143741 202.453911 
L 795.733843 213.054418 
L 802.323945 211.420294 
L 808.914047 234.92714 
L 815.50415 273.434223 
L 822.094252 265.872078 
L 828.684354 246.161309 
L 835.274456 299.4792 
L 841.864558 321.696484 
L 848.454661 331.775057 
L 855.044763 281.180974 
L 861.634865 233.4377 
L 868.224967 232.860036 
L 874.815069 194.708232 
L 881.405172 171.257115 
L 887.995274 149.811479 
L 894.585376 165.154938 
L 901.175478 194.097612 
L 907.76558 170.332746 
L 914.355682 53.920082 
L 920.945785 77.423446 
L 927.535887 68.582456 
L 934.125989 162.260188 
L 940.716091 89.19616 
L 947.306193 110.292412 
L 953.896296 152.279143 
L 960.486398 129.250557 
L 967.0765 125.332303 
L 967.0765 125.332303 
" clip-path="url(#pf1206b3f2f)" style="fill: none; stroke: #48b585; stroke-width: 6; stroke-linecap: square"/>
   </g>
   <g id="patch_3">
    <path d="M 64.2325 578.54175 
L 64.2325 24.14175 
" style="fill: none; stroke: #ffffff; stroke-linejoin: miter; stroke-linecap: square"/>
   </g>
   <g id="patch_4">
    <path d="M 967.0765 578.54175 
L 967.0765 24.14175 
" style="fill: none; stroke: #ffffff; stroke-linejoin: miter; stroke-linecap: square"/>
   </g>
   <g id="patch_5">
    <path d="M 64.2325 578.54175 
L 967.0765 578.54175 
" style="fill: none; stroke: #ffffff; stroke-linejoin: miter; stroke-linecap: square"/>
   </g>
   <g id="patch_6">
    <path d="M 64.2325 24.14175 
L 967.0765 24.14175 
" style="fill: none; stroke: #ffffff; stroke-linejoin: miter; stroke-linecap: square"/>
   </g>
   <g id="text_30">
    <!-- Potentially Ephemeral Enterprise Linux Instances by Distribution (2 Week Resample) -->
    <g transform="translate(64.2325 18.14175) scale(0.144 -0.144)">
     <defs>
      <path id="DejaVuSans-50" d="M 1259 4147 
L 1259 2394 
L 2053 2394 
Q 2494 2394 2734 2622 
Q 2975 2850 2975 3272 
Q 2975 3691 2734 3919 
Q 2494 4147 2053 4147 
L 1259 4147 
z
M 628 4666 
L 2053 4666 
Q 2838 4666 3239 4311 
Q 3641 3956 3641 3272 
Q 3641 2581 3239 2228 
Q 2838 1875 2053 1875 
L 1259 1875 
L 1259 0 
L 628 0 
L 628 4666 
z
" transform="scale(0.015625)"/>
      <path id="DejaVuSans-6f" d="M 1959 3097 
Q 1497 3097 1228 2736 
Q 959 2375 959 1747 
Q 959 1119 1226 758 
Q 1494 397 1959 397 
Q 2419 397 2687 759 
Q 2956 1122 2956 1747 
Q 2956 2369 2687 2733 
Q 2419 3097 1959 3097 
z
M 1959 3584 
Q 2709 3584 3137 3096 
Q 3566 2609 3566 1747 
Q 3566 888 3137 398 
Q 2709 -91 1959 -91 
Q 1206 -91 779 398 
Q 353 888 353 1747 
Q 353 2609 779 3096 
Q 1206 3584 1959 3584 
z
" transform="scale(0.015625)"/>
      <path id="DejaVuSans-69" d="M 603 3500 
L 1178 3500 
L 1178 0 
L 603 0 
L 603 3500 
z
M 603 4863 
L 1178 4863 
L 1178 4134 
L 603 4134 
L 603 4863 
z
" transform="scale(0.015625)"/>
      <path id="DejaVuSans-6c" d="M 603 4863 
L 1178 4863 
L 1178 0 
L 603 0 
L 603 4863 
z
" transform="scale(0.015625)"/>
      <path id="DejaVuSans-79" d="M 2059 -325 
Q 1816 -950 1584 -1140 
Q 1353 -1331 966 -1331 
L 506 -1331 
L 506 -850 
L 844 -850 
Q 1081 -850 1212 -737 
Q 1344 -625 1503 -206 
L 1606 56 
L 191 3500 
L 800 3500 
L 1894 763 
L 2988 3500 
L 3597 3500 
L 2059 -325 
z
" transform="scale(0.015625)"/>
      <path id="DejaVuSans-20" transform="scale(0.015625)"/>
      <path id="DejaVuSans-45" d="M 628 4666 
L 3578 4666 
L 3578 4134 
L 1259 4134 
L 1259 2753 
L 3481 2753 
L 3481 2222 
L 1259 2222 
L 1259 531 
L 3634 531 
L 3634 0 
L 628 0 
L 628 4666 
z
" transform="scale(0.015625)"/>
      <path id="DejaVuSans-70" d="M 1159 525 
L 1159 -1331 
L 581 -1331 
L 581 3500 
L 1159 3500 
L 1159 2969 
Q 1341 3281 1617 3432 
Q 1894 3584 2278 3584 
Q 2916 3584 3314 3078 
Q 3713 2572 3713 1747 
Q 3713 922 3314 415 
Q 2916 -91 2278 -91 
Q 1894 -91 1617 61 
Q 1341 213 1159 525 
z
M 3116 1747 
Q 3116 2381 2855 2742 
Q 2594 3103 2138 3103 
Q 1681 3103 1420 2742 
Q 1159 2381 1159 1747 
Q 1159 1113 1420 752 
Q 1681 391 2138 391 
Q 2594 391 2855 752 
Q 3116 1113 3116 1747 
z
" transform="scale(0.015625)"/>
      <path id="DejaVuSans-68" d="M 3513 2113 
L 3513 0 
L 2938 0 
L 2938 2094 
Q 2938 2591 2744 2837 
Q 2550 3084 2163 3084 
Q 1697 3084 1428 2787 
Q 1159 2491 1159 1978 
L 1159 0 
L 581 0 
L 581 4863 
L 1159 4863 
L 1159 2956 
Q 1366 3272 1645 3428 
Q 1925 3584 2291 3584 
Q 2894 3584 3203 3211 
Q 3513 2838 3513 2113 
z
" transform="scale(0.015625)"/>
      <path id="DejaVuSans-6d" d="M 3328 2828 
Q 3544 3216 3844 3400 
Q 4144 3584 4550 3584 
Q 5097 3584 5394 3201 
Q 5691 2819 5691 2113 
L 5691 0 
L 5113 0 
L 5113 2094 
Q 5113 2597 4934 2840 
Q 4756 3084 4391 3084 
Q 3944 3084 3684 2787 
Q 3425 2491 3425 1978 
L 3425 0 
L 2847 0 
L 2847 2094 
Q 2847 2600 2669 2842 
Q 2491 3084 2119 3084 
Q 1678 3084 1418 2786 
Q 1159 2488 1159 1978 
L 1159 0 
L 581 0 
L 581 3500 
L 1159 3500 
L 1159 2956 
Q 1356 3278 1631 3431 
Q 1906 3584 2284 3584 
Q 2666 3584 2933 3390 
Q 3200 3197 3328 2828 
z
" transform="scale(0.015625)"/>
      <path id="DejaVuSans-72" d="M 2631 2963 
Q 2534 3019 2420 3045 
Q 2306 3072 2169 3072 
Q 1681 3072 1420 2755 
Q 1159 2438 1159 1844 
L 1159 0 
L 581 0 
L 581 3500 
L 1159 3500 
L 1159 2956 
Q 1341 3275 1631 3429 
Q 1922 3584 2338 3584 
Q 2397 3584 2469 3576 
Q 2541 3569 2628 3553 
L 2631 2963 
z
" transform="scale(0.015625)"/>
      <path id="DejaVuSans-4c" d="M 628 4666 
L 1259 4666 
L 1259 531 
L 3531 531 
L 3531 0 
L 628 0 
L 628 4666 
z
" transform="scale(0.015625)"/>
      <path id="DejaVuSans-75" d="M 544 1381 
L 544 3500 
L 1119 3500 
L 1119 1403 
Q 1119 906 1312 657 
Q 1506 409 1894 409 
Q 2359 409 2629 706 
Q 2900 1003 2900 1516 
L 2900 3500 
L 3475 3500 
L 3475 0 
L 2900 0 
L 2900 538 
Q 2691 219 2414 64 
Q 2138 -91 1772 -91 
Q 1169 -91 856 284 
Q 544 659 544 1381 
z
M 1991 3584 
L 1991 3584 
z
" transform="scale(0.015625)"/>
      <path id="DejaVuSans-78" d="M 3513 3500 
L 2247 1797 
L 3578 0 
L 2900 0 
L 1881 1375 
L 863 0 
L 184 0 
L 1544 1831 
L 300 3500 
L 978 3500 
L 1906 2253 
L 2834 3500 
L 3513 3500 
z
" transform="scale(0.015625)"/>
      <path id="DejaVuSans-62" d="M 3116 1747 
Q 3116 2381 2855 2742 
Q 2594 3103 2138 3103 
Q 1681 3103 1420 2742 
Q 1159 2381 1159 1747 
Q 1159 1113 1420 752 
Q 1681 391 2138 391 
Q 2594 391 2855 752 
Q 3116 1113 3116 1747 
z
M 1159 2969 
Q 1341 3281 1617 3432 
Q 1894 3584 2278 3584 
Q 2916 3584 3314 3078 
Q 3713 2572 3713 1747 
Q 3713 922 3314 415 
Q 2916 -91 2278 -91 
Q 1894 -91 1617 61 
Q 1341 213 1159 525 
L 1159 0 
L 581 0 
L 581 4863 
L 1159 4863 
L 1159 2969 
z
" transform="scale(0.015625)"/>
      <path id="DejaVuSans-28" d="M 1984 4856 
Q 1566 4138 1362 3434 
Q 1159 2731 1159 2009 
Q 1159 1288 1364 580 
Q 1569 -128 1984 -844 
L 1484 -844 
Q 1016 -109 783 600 
Q 550 1309 550 2009 
Q 550 2706 781 3412 
Q 1013 4119 1484 4856 
L 1984 4856 
z
" transform="scale(0.015625)"/>
      <path id="DejaVuSans-57" d="M 213 4666 
L 850 4666 
L 1831 722 
L 2809 4666 
L 3519 4666 
L 4500 722 
L 5478 4666 
L 6119 4666 
L 4947 0 
L 4153 0 
L 3169 4050 
L 2175 0 
L 1381 0 
L 213 4666 
z
" transform="scale(0.015625)"/>
      <path id="DejaVuSans-52" d="M 2841 2188 
Q 3044 2119 3236 1894 
Q 3428 1669 3622 1275 
L 4263 0 
L 3584 0 
L 2988 1197 
Q 2756 1666 2539 1819 
Q 2322 1972 1947 1972 
L 1259 1972 
L 1259 0 
L 628 0 
L 628 4666 
L 2053 4666 
Q 2853 4666 3247 4331 
Q 3641 3997 3641 3322 
Q 3641 2881 3436 2590 
Q 3231 2300 2841 2188 
z
M 1259 4147 
L 1259 2491 
L 2053 2491 
Q 2509 2491 2742 2702 
Q 2975 2913 2975 3322 
Q 2975 3731 2742 3939 
Q 2509 4147 2053 4147 
L 1259 4147 
z
" transform="scale(0.015625)"/>
      <path id="DejaVuSans-29" d="M 513 4856 
L 1013 4856 
Q 1481 4119 1714 3412 
Q 1947 2706 1947 2009 
Q 1947 1309 1714 600 
Q 1481 -109 1013 -844 
L 513 -844 
Q 928 -128 1133 580 
Q 1338 1288 1338 2009 
Q 1338 2731 1133 3434 
Q 928 4138 513 4856 
z
" transform="scale(0.015625)"/>
     </defs>
     <use xlink:href="#DejaVuSans-50"/>
     <use xlink:href="#DejaVuSans-6f" x="56.677734"/>
     <use xlink:href="#DejaVuSans-74" x="117.859375"/>
     <use xlink:href="#DejaVuSans-65" x="157.068359"/>
     <use xlink:href="#DejaVuSans-6e" x="218.591797"/>
     <use xlink:href="#DejaVuSans-74" x="281.970703"/>
     <use xlink:href="#DejaVuSans-69" x="321.179688"/>
     <use xlink:href="#DejaVuSans-61" x="348.962891"/>
     <use xlink:href="#DejaVuSans-6c" x="410.242188"/>
     <use xlink:href="#DejaVuSans-6c" x="438.025391"/>
     <use xlink:href="#DejaVuSans-79" x="465.808594"/>
     <use xlink:href="#DejaVuSans-20" x="524.988281"/>
     <use xlink:href="#DejaVuSans-45" x="556.775391"/>
     <use xlink:href="#DejaVuSans-70" x="619.958984"/>
     <use xlink:href="#DejaVuSans-68" x="683.435547"/>
     <use xlink:href="#DejaVuSans-65" x="746.814453"/>
     <use xlink:href="#DejaVuSans-6d" x="808.337891"/>
     <use xlink:href="#DejaVuSans-65" x="905.75"/>
     <use xlink:href="#DejaVuSans-72" x="967.273438"/>
     <use xlink:href="#DejaVuSans-61" x="1008.386719"/>
     <use xlink:href="#DejaVuSans-6c" x="1069.666016"/>
     <use xlink:href="#DejaVuSans-20" x="1097.449219"/>
     <use xlink:href="#DejaVuSans-45" x="1129.236328"/>
     <use xlink:href="#DejaVuSans-6e" x="1192.419922"/>
     <use xlink:href="#DejaVuSans-74" x="1255.798828"/>
     <use xlink:href="#DejaVuSans-65" x="1295.007812"/>
     <use xlink:href="#DejaVuSans-72" x="1356.53125"/>
     <use xlink:href="#DejaVuSans-70" x="1397.644531"/>
     <use xlink:href="#DejaVuSans-72" x="1461.121094"/>
     <use xlink:href="#DejaVuSans-69" x="1502.234375"/>
     <use xlink:href="#DejaVuSans-73" x="1530.017578"/>
     <use xlink:href="#DejaVuSans-65" x="1582.117188"/>
     <use xlink:href="#DejaVuSans-20" x="1643.640625"/>
     <use xlink:href="#DejaVuSans-4c" x="1675.427734"/>
     <use xlink:href="#DejaVuSans-69" x="1731.140625"/>
     <use xlink:href="#DejaVuSans-6e" x="1758.923828"/>
     <use xlink:href="#DejaVuSans-75" x="1822.302734"/>
     <use xlink:href="#DejaVuSans-78" x="1885.681641"/>
     <use xlink:href="#DejaVuSans-20" x="1944.861328"/>
     <use xlink:href="#DejaVuSans-49" x="1976.648438"/>
     <use xlink:href="#DejaVuSans-6e" x="2006.140625"/>
     <use xlink:href="#DejaVuSans-73" x="2069.519531"/>
     <use xlink:href="#DejaVuSans-74" x="2121.619141"/>
     <use xlink:href="#DejaVuSans-61" x="2160.828125"/>
     <use xlink:href="#DejaVuSans-6e" x="2222.107422"/>
     <use xlink:href="#DejaVuSans-63" x="2285.486328"/>
     <use xlink:href="#DejaVuSans-65" x="2340.466797"/>
     <use xlink:href="#DejaVuSans-73" x="2401.990234"/>
     <use xlink:href="#DejaVuSans-20" x="2454.089844"/>
     <use xlink:href="#DejaVuSans-62" x="2485.876953"/>
     <use xlink:href="#DejaVuSans-79" x="2549.353516"/>
     <use xlink:href="#DejaVuSans-20" x="2608.533203"/>
     <use xlink:href="#DejaVuSans-44" x="2640.320312"/>
     <use xlink:href="#DejaVuSans-69" x="2717.322266"/>
     <use xlink:href="#DejaVuSans-73" x="2745.105469"/>
     <use xlink:href="#DejaVuSans-74" x="2797.205078"/>
     <use xlink:href="#DejaVuSans-72" x="2836.414062"/>
     <use xlink:href="#DejaVuSans-69" x="2877.527344"/>
     <use xlink:href="#DejaVuSans-62" x="2905.310547"/>
     <use xlink:href="#DejaVuSans-75" x="2968.787109"/>
     <use xlink:href="#DejaVuSans-74" x="3032.166016"/>
     <use xlink:href="#DejaVuSans-69" x="3071.375"/>
     <use xlink:href="#DejaVuSans-6f" x="3099.158203"/>
     <use xlink:href="#DejaVuSans-6e" x="3160.339844"/>
     <use xlink:href="#DejaVuSans-20" x="3223.71875"/>
     <use xlink:href="#DejaVuSans-28" x="3255.505859"/>
     <use xlink:href="#DejaVuSans-32" x="3294.519531"/>
     <use xlink:href="#DejaVuSans-20" x="3358.142578"/>
     <use xlink:href="#DejaVuSans-57" x="3389.929688"/>
     <use xlink:href="#DejaVuSans-65" x="3482.931641"/>
     <use xlink:href="#DejaVuSans-65" x="3544.455078"/>
     <use xlink:href="#DejaVuSans-6b" x="3605.978516"/>
     <use xlink:href="#DejaVuSans-20" x="3663.888672"/>
     <use xlink:href="#DejaVuSans-52" x="3695.675781"/>
     <use xlink:href="#DejaVuSans-65" x="3760.658203"/>
     <use xlink:href="#DejaVuSans-73" x="3822.181641"/>
     <use xlink:href="#DejaVuSans-61" x="3874.28125"/>
     <use xlink:href="#DejaVuSans-6d" x="3935.560547"/>
     <use xlink:href="#DejaVuSans-70" x="4032.972656"/>
     <use xlink:href="#DejaVuSans-6c" x="4096.449219"/>
     <use xlink:href="#DejaVuSans-65" x="4124.232422"/>
     <use xlink:href="#DejaVuSans-29" x="4185.755859"/>
    </g>
   </g>
   <g id="text_31">
    <!-- 2026-03-12 12:01 UTC -->
    <g transform="translate(804.1945 18.14175) scale(0.144 -0.144)">
     <defs>
      <path id="DejaVuSans-3a" d="M 750 794 
L 1409 794 
L 1409 0 
L 750 0 
L 750 794 
z
M 750 3309 
L 1409 3309 
L 1409 2516 
L 750 2516 
L 750 3309 
z
" transform="scale(0.015625)"/>
      <path id="DejaVuSans-55" d="M 556 4666 
L 1191 4666 
L 1191 1831 
Q 1191 1081 1462 751 
Q 1734 422 2344 422 
Q 2950 422 3222 751 
Q 3494 1081 3494 1831 
L 3494 4666 
L 4128 4666 
L 4128 1753 
Q 4128 841 3676 375 
Q 3225 -91 2344 -91 
Q 1459 -91 1007 375 
Q 556 841 556 1753 
L 556 4666 
z
" transform="scale(0.015625)"/>
      <path id="DejaVuSans-54" d="M -19 4666 
L 3928 4666 
L 3928 4134 
L 2272 4134 
L 2272 0 
L 1638 0 
L 1638 4134 
L -19 4134 
L -19 4666 
z
" transform="scale(0.015625)"/>
      <path id="DejaVuSans-43" d="M 4122 4306 
L 4122 3641 
Q 3803 3938 3442 4084 
Q 3081 4231 2675 4231 
Q 1875 4231 1450 3742 
Q 1025 3253 1025 2328 
Q 1025 1406 1450 917 
Q 1875 428 2675 428 
Q 3081 428 3442 575 
Q 3803 722 4122 1019 
L 4122 359 
Q 3791 134 3420 21 
Q 3050 -91 2638 -91 
Q 1578 -91 968 557 
Q 359 1206 359 2328 
Q 359 3453 968 4101 
Q 1578 4750 2638 4750 
Q 3056 4750 3426 4639 
Q 3797 4528 4122 4306 
z
" transform="scale(0.015625)"/>
     </defs>
     <use xlink:href="#DejaVuSans-32"/>
     <use xlink:href="#DejaVuSans-30" x="63.623047"/>
     <use xlink:href="#DejaVuSans-32" x="127.246094"/>
     <use xlink:href="#DejaVuSans-36" x="190.869141"/>
     <use xlink:href="#DejaVuSans-2d" x="254.492188"/>
     <use xlink:href="#DejaVuSans-30" x="290.576172"/>
     <use xlink:href="#DejaVuSans-33" x="354.199219"/>
     <use xlink:href="#DejaVuSans-2d" x="417.822266"/>
     <use xlink:href="#DejaVuSans-31" x="453.90625"/>
     <use xlink:href="#DejaVuSans-32" x="517.529297"/>
     <use xlink:href="#DejaVuSans-20" x="581.152344"/>
     <use xlink:href="#DejaVuSans-31" x="612.939453"/>
     <use xlink:href="#DejaVuSans-32" x="676.5625"/>
     <use xlink:href="#DejaVuSans-3a" x="740.185547"/>
     <use xlink:href="#DejaVuSans-30" x="773.876953"/>
     <use xlink:href="#DejaVuSans-31" x="837.5"/>
     <use xlink:href="#DejaVuSans-20" x="901.123047"/>
     <use xlink:href="#DejaVuSans-55" x="932.910156"/>
     <use xlink:href="#DejaVuSans-54" x="1006.103516"/>
     <use xlink:href="#DejaVuSans-43" x="1061.3125"/>
    </g>
   </g>
   <g id="legend_1">
    <g id="patch_7">
     <path d="M 71.2325 134.888625 
L 180.20125 134.888625 
Q 182.20125 134.888625 182.20125 132.888625 
L 182.20125 31.14175 
Q 182.20125 29.14175 180.20125 29.14175 
L 71.2325 29.14175 
Q 69.2325 29.14175 69.2325 31.14175 
L 69.2325 132.888625 
Q 69.2325 134.888625 71.2325 134.888625 
z
" style="fill: #e5e5e5; opacity: 0.8; stroke: #cccccc; stroke-width: 0.5; stroke-linejoin: miter"/>
    </g>
    <g id="text_32">
     <!-- Distribution -->
     <g transform="translate(96.548125 40.740188) scale(0.1 -0.1)">
      <use xlink:href="#DejaVuSans-44"/>
      <use xlink:href="#DejaVuSans-69" x="77.001953"/>
      <use xlink:href="#DejaVuSans-73" x="104.785156"/>
      <use xlink:href="#DejaVuSans-74" x="156.884766"/>
      <use xlink:href="#DejaVuSans-72" x="196.09375"/>
      <use xlink:href="#DejaVuSans-69" x="237.207031"/>
      <use xlink:href="#DejaVuSans-62" x="264.990234"/>
      <use xlink:href="#DejaVuSans-75" x="328.466797"/>
      <use xlink:href="#DejaVuSans-74" x="391.845703"/>
      <use xlink:href="#DejaVuSans-69" x="431.054688"/>
      <use xlink:href="#DejaVuSans-6f" x="458.837891"/>
      <use xlink:href="#DejaVuSans-6e" x="520.019531"/>
     </g>
    </g>
    <g id="line2d_67">
     <path d="M 73.2325 51.918313 
L 83.2325 51.918313 
L 93.2325 51.918313 
" style="fill: none; stroke: #4ac1fa; stroke-width: 1.5; stroke-linecap: square"/>
    </g>
    <g id="text_33">
     <!-- AlmaLinux -->
     <g transform="translate(101.2325 55.418313) scale(0.1 -0.1)">
      <defs>
       <path id="DejaVuSans-41" d="M 2188 4044 
L 1331 1722 
L 3047 1722 
L 2188 4044 
z
M 1831 4666 
L 2547 4666 
L 4325 0 
L 3669 0 
L 3244 1197 
L 1141 1197 
L 716 0 
L 50 0 
L 1831 4666 
z
" transform="scale(0.015625)"/>
      </defs>
      <use xlink:href="#DejaVuSans-41"/>
      <use xlink:href="#DejaVuSans-6c" x="68.408203"/>
      <use xlink:href="#DejaVuSans-6d" x="96.191406"/>
      <use xlink:href="#DejaVuSans-61" x="193.603516"/>
      <use xlink:href="#DejaVuSans-4c" x="254.882812"/>
      <use xlink:href="#DejaVuSans-69" x="310.595703"/>
      <use xlink:href="#DejaVuSans-6e" x="338.378906"/>
      <use xlink:href="#DejaVuSans-75" x="401.757812"/>
      <use xlink:href="#DejaVuSans-78" x="465.136719"/>
     </g>
    </g>
    <g id="line2d_68">
     <path d="M 73.2325 66.596438 
L 83.2325 66.596438 
L 93.2325 66.596438 
" style="fill: none; stroke: #e9a942; stroke-width: 1.5; stroke-linecap: square"/>
    </g>
    <g id="text_34">
     <!-- CentOS Legacy -->
     <g transform="translate(101.2325 70.096438) scale(0.1 -0.1)">
      <defs>
       <path id="DejaVuSans-4f" d="M 2522 4238 
Q 1834 4238 1429 3725 
Q 1025 3213 1025 2328 
Q 1025 1447 1429 934 
Q 1834 422 2522 422 
Q 3209 422 3611 934 
Q 4013 1447 4013 2328 
Q 4013 3213 3611 3725 
Q 3209 4238 2522 4238 
z
M 2522 4750 
Q 3503 4750 4090 4092 
Q 4678 3434 4678 2328 
Q 4678 1225 4090 567 
Q 3503 -91 2522 -91 
Q 1538 -91 948 565 
Q 359 1222 359 2328 
Q 359 3434 948 4092 
Q 1538 4750 2522 4750 
z
" transform="scale(0.015625)"/>
       <path id="DejaVuSans-53" d="M 3425 4513 
L 3425 3897 
Q 3066 4069 2747 4153 
Q 2428 4238 2131 4238 
Q 1616 4238 1336 4038 
Q 1056 3838 1056 3469 
Q 1056 3159 1242 3001 
Q 1428 2844 1947 2747 
L 2328 2669 
Q 3034 2534 3370 2195 
Q 3706 1856 3706 1288 
Q 3706 609 3251 259 
Q 2797 -91 1919 -91 
Q 1588 -91 1214 -16 
Q 841 59 441 206 
L 441 856 
Q 825 641 1194 531 
Q 1563 422 1919 422 
Q 2459 422 2753 634 
Q 3047 847 3047 1241 
Q 3047 1584 2836 1778 
Q 2625 1972 2144 2069 
L 1759 2144 
Q 1053 2284 737 2584 
Q 422 2884 422 3419 
Q 422 4038 858 4394 
Q 1294 4750 2059 4750 
Q 2388 4750 2728 4690 
Q 3069 4631 3425 4513 
z
" transform="scale(0.015625)"/>
       <path id="DejaVuSans-67" d="M 2906 1791 
Q 2906 2416 2648 2759 
Q 2391 3103 1925 3103 
Q 1463 3103 1205 2759 
Q 947 2416 947 1791 
Q 947 1169 1205 825 
Q 1463 481 1925 481 
Q 2391 481 2648 825 
Q 2906 1169 2906 1791 
z
M 3481 434 
Q 3481 -459 3084 -895 
Q 2688 -1331 1869 -1331 
Q 1566 -1331 1297 -1286 
Q 1028 -1241 775 -1147 
L 775 -588 
Q 1028 -725 1275 -790 
Q 1522 -856 1778 -856 
Q 2344 -856 2625 -561 
Q 2906 -266 2906 331 
L 2906 616 
Q 2728 306 2450 153 
Q 2172 0 1784 0 
Q 1141 0 747 490 
Q 353 981 353 1791 
Q 353 2603 747 3093 
Q 1141 3584 1784 3584 
Q 2172 3584 2450 3431 
Q 2728 3278 2906 2969 
L 2906 3500 
L 3481 3500 
L 3481 434 
z
" transform="scale(0.015625)"/>
      </defs>
      <use xlink:href="#DejaVuSans-43"/>
      <use xlink:href="#DejaVuSans-65" x="69.824219"/>
      <use xlink:href="#DejaVuSans-6e" x="131.347656"/>
      <use xlink:href="#DejaVuSans-74" x="194.726562"/>
      <use xlink:href="#DejaVuSans-4f" x="233.935547"/>
      <use xlink:href="#DejaVuSans-53" x="312.646484"/>
      <use xlink:href="#DejaVuSans-20" x="376.123047"/>
      <use xlink:href="#DejaVuSans-4c" x="407.910156"/>
      <use xlink:href="#DejaVuSans-65" x="461.873047"/>
      <use xlink:href="#DejaVuSans-67" x="523.396484"/>
      <use xlink:href="#DejaVuSans-61" x="586.873047"/>
      <use xlink:href="#DejaVuSans-63" x="648.152344"/>
      <use xlink:href="#DejaVuSans-79" x="703.132812"/>
     </g>
    </g>
    <g id="line2d_69">
     <path d="M 73.2325 81.274563 
L 83.2325 81.274563 
L 93.2325 81.274563 
" style="fill: none; stroke: #9a5689; stroke-width: 1.5; stroke-linecap: square"/>
    </g>
    <g id="text_35">
     <!-- CentOS Stream -->
     <g transform="translate(101.2325 84.774563) scale(0.1 -0.1)">
      <use xlink:href="#DejaVuSans-43"/>
      <use xlink:href="#DejaVuSans-65" x="69.824219"/>
      <use xlink:href="#DejaVuSans-6e" x="131.347656"/>
      <use xlink:href="#DejaVuSans-74" x="194.726562"/>
      <use xlink:href="#DejaVuSans-4f" x="233.935547"/>
      <use xlink:href="#DejaVuSans-53" x="312.646484"/>
      <use xlink:href="#DejaVuSans-20" x="376.123047"/>
      <use xlink:href="#DejaVuSans-53" x="407.910156"/>
      <use xlink:href="#DejaVuSans-74" x="471.386719"/>
      <use xlink:href="#DejaVuSans-72" x="510.595703"/>
      <use xlink:href="#DejaVuSans-65" x="549.458984"/>
      <use xlink:href="#DejaVuSans-61" x="610.982422"/>
      <use xlink:href="#DejaVuSans-6d" x="672.261719"/>
     </g>
    </g>
    <g id="line2d_70">
     <path d="M 73.2325 95.952688 
L 83.2325 95.952688 
L 93.2325 95.952688 
" style="fill: none; stroke: #be503b; stroke-width: 1.5; stroke-linecap: square"/>
    </g>
    <g id="text_36">
     <!-- Oracle -->
     <g transform="translate(101.2325 99.452688) scale(0.1 -0.1)">
      <use xlink:href="#DejaVuSans-4f"/>
      <use xlink:href="#DejaVuSans-72" x="78.710938"/>
      <use xlink:href="#DejaVuSans-61" x="119.824219"/>
      <use xlink:href="#DejaVuSans-63" x="181.103516"/>
      <use xlink:href="#DejaVuSans-6c" x="236.083984"/>
      <use xlink:href="#DejaVuSans-65" x="263.867188"/>
     </g>
    </g>
    <g id="line2d_71">
     <path d="M 73.2325 110.630813 
L 83.2325 110.630813 
L 93.2325 110.630813 
" style="fill: none; stroke: #e2321d; stroke-width: 1.5; stroke-linecap: square"/>
    </g>
    <g id="text_37">
     <!-- RHEL -->
     <g transform="translate(101.2325 114.130813) scale(0.1 -0.1)">
      <defs>
       <path id="DejaVuSans-48" d="M 628 4666 
L 1259 4666 
L 1259 2753 
L 3553 2753 
L 3553 4666 
L 4184 4666 
L 4184 0 
L 3553 0 
L 3553 2222 
L 1259 2222 
L 1259 0 
L 628 0 
L 628 4666 
z
" transform="scale(0.015625)"/>
      </defs>
      <use xlink:href="#DejaVuSans-52"/>
      <use xlink:href="#DejaVuSans-48" x="69.482422"/>
      <use xlink:href="#DejaVuSans-45" x="144.677734"/>
      <use xlink:href="#DejaVuSans-4c" x="207.861328"/>
     </g>
    </g>
    <g id="line2d_72">
     <path d="M 73.2325 125.308938 
L 83.2325 125.308938 
L 93.2325 125.308938 
" style="fill: none; stroke: #48b585; stroke-width: 6; stroke-linecap: square"/>
    </g>
    <g id="text_38">
     <!-- Rocky Linux -->
     <g transform="translate(101.2325 128.808938) scale(0.1 -0.1)">
      <use xlink:href="#DejaVuSans-52"/>
      <use xlink:href="#DejaVuSans-6f" x="64.982422"/>
      <use xlink:href="#DejaVuSans-63" x="126.164062"/>
      <use xlink:href="#DejaVuSans-6b" x="181.144531"/>
      <use xlink:href="#DejaVuSans-79" x="235.429688"/>
      <use xlink:href="#DejaVuSans-20" x="294.609375"/>
      <use xlink:href="#DejaVuSans-4c" x="326.396484"/>
      <use xlink:href="#DejaVuSans-69" x="382.109375"/>
      <use xlink:href="#DejaVuSans-6e" x="409.892578"/>
      <use xlink:href="#DejaVuSans-75" x="473.271484"/>
      <use xlink:href="#DejaVuSans-78" x="536.650391"/>
     </g>
    </g>
   </g>
  </g>
 </g>
 <defs>
  <clipPath id="pf1206b3f2f">
   <rect x="64.2325" y="24.14175" width="902.844" height="554.4"/>
  </clipPath>
 </defs>
</svg>
