<?xml version="1.0" encoding="utf-8" standalone="no"?>
<!DOCTYPE svg PUBLIC "-//W3C//DTD SVG 1.1//EN"
  "http://www.w3.org/Graphics/SVG/1.1/DTD/svg11.dtd">
<svg xmlns:xlink="http://www.w3.org/1999/xlink" width="962.123375pt" height="633.943878pt" viewBox="0 0 962.123375 633.943878" xmlns="http://www.w3.org/2000/svg" version="1.1">
 <metadata>
  <rdf:RDF xmlns:dc="http://purl.org/dc/elements/1.1/" xmlns:cc="http://creativecommons.org/ns#" xmlns:rdf="http://www.w3.org/1999/02/22-rdf-syntax-ns#">
   <cc:Work>
    <dc:type rdf:resource="http://purl.org/dc/dcmitype/StillImage"/>
    <dc:date>2023-12-28T11:54:45.718599</dc:date>
    <dc:format>image/svg+xml</dc:format>
    <dc:creator>
     <cc:Agent>
      <dc:title>Matplotlib v3.5.1, https://matplotlib.org/</dc:title>
     </cc:Agent>
    </dc:creator>
   </cc:Work>
  </rdf:RDF>
 </metadata>
 <defs>
  <style type="text/css">*{stroke-linejoin: round; stroke-linecap: butt}</style>
 </defs>
 <g id="figure_1">
  <g id="patch_1">
   <path d="M 0 633.943878 
L 962.123375 633.943878 
L 962.123375 0 
L 0 0 
z
" style="fill: #ffffff"/>
  </g>
  <g id="axes_1">
   <g id="patch_2">
    <path d="M 52.079375 567.74175 
L 954.923375 567.74175 
L 954.923375 24.14175 
L 52.079375 24.14175 
z
" style="fill: #e5e5e5"/>
   </g>
   <g id="matplotlib.axis_1">
    <g id="xtick_1">
     <g id="line2d_1">
      <path d="M 72.311173 567.74175 
L 72.311173 24.14175 
" clip-path="url(#pfc6b9da87d)" style="fill: none; stroke: #ffffff; stroke-width: 0.8; stroke-linecap: square"/>
     </g>
     <g id="line2d_2">
      <defs>
       <path id="m12199e6299" d="M 0 0 
L 0 3.5 
" style="stroke: #555555; stroke-width: 0.8"/>
      </defs>
      <g>
       <use xlink:href="#m12199e6299" x="72.311173" y="567.74175" style="fill: #555555; stroke: #555555; stroke-width: 0.8"/>
      </g>
     </g>
     <g id="text_1">
      <!-- 2023-01 -->
      <g style="fill: #555555" transform="translate(59.489891 609.659567)rotate(-45)scale(0.1 -0.1)">
       <defs>
        <path id="DejaVuSans-32" d="M 1228 531 
L 3431 531 
L 3431 0 
L 469 0 
L 469 531 
Q 828 903 1448 1529 
Q 2069 2156 2228 2338 
Q 2531 2678 2651 2914 
Q 2772 3150 2772 3378 
Q 2772 3750 2511 3984 
Q 2250 4219 1831 4219 
Q 1534 4219 1204 4116 
Q 875 4013 500 3803 
L 500 4441 
Q 881 4594 1212 4672 
Q 1544 4750 1819 4750 
Q 2544 4750 2975 4387 
Q 3406 4025 3406 3419 
Q 3406 3131 3298 2873 
Q 3191 2616 2906 2266 
Q 2828 2175 2409 1742 
Q 1991 1309 1228 531 
z
" transform="scale(0.015625)"/>
        <path id="DejaVuSans-30" d="M 2034 4250 
Q 1547 4250 1301 3770 
Q 1056 3291 1056 2328 
Q 1056 1369 1301 889 
Q 1547 409 2034 409 
Q 2525 409 2770 889 
Q 3016 1369 3016 2328 
Q 3016 3291 2770 3770 
Q 2525 4250 2034 4250 
z
M 2034 4750 
Q 2819 4750 3233 4129 
Q 3647 3509 3647 2328 
Q 3647 1150 3233 529 
Q 2819 -91 2034 -91 
Q 1250 -91 836 529 
Q 422 1150 422 2328 
Q 422 3509 836 4129 
Q 1250 4750 2034 4750 
z
" transform="scale(0.015625)"/>
        <path id="DejaVuSans-33" d="M 2597 2516 
Q 3050 2419 3304 2112 
Q 3559 1806 3559 1356 
Q 3559 666 3084 287 
Q 2609 -91 1734 -91 
Q 1441 -91 1130 -33 
Q 819 25 488 141 
L 488 750 
Q 750 597 1062 519 
Q 1375 441 1716 441 
Q 2309 441 2620 675 
Q 2931 909 2931 1356 
Q 2931 1769 2642 2001 
Q 2353 2234 1838 2234 
L 1294 2234 
L 1294 2753 
L 1863 2753 
Q 2328 2753 2575 2939 
Q 2822 3125 2822 3475 
Q 2822 3834 2567 4026 
Q 2313 4219 1838 4219 
Q 1578 4219 1281 4162 
Q 984 4106 628 3988 
L 628 4550 
Q 988 4650 1302 4700 
Q 1616 4750 1894 4750 
Q 2613 4750 3031 4423 
Q 3450 4097 3450 3541 
Q 3450 3153 3228 2886 
Q 3006 2619 2597 2516 
z
" transform="scale(0.015625)"/>
        <path id="DejaVuSans-2d" d="M 313 2009 
L 1997 2009 
L 1997 1497 
L 313 1497 
L 313 2009 
z
" transform="scale(0.015625)"/>
        <path id="DejaVuSans-31" d="M 794 531 
L 1825 531 
L 1825 4091 
L 703 3866 
L 703 4441 
L 1819 4666 
L 2450 4666 
L 2450 531 
L 3481 531 
L 3481 0 
L 794 0 
L 794 531 
z
" transform="scale(0.015625)"/>
       </defs>
       <use xlink:href="#DejaVuSans-32"/>
       <use xlink:href="#DejaVuSans-30" x="63.623047"/>
       <use xlink:href="#DejaVuSans-32" x="127.246094"/>
       <use xlink:href="#DejaVuSans-33" x="190.869141"/>
       <use xlink:href="#DejaVuSans-2d" x="254.492188"/>
       <use xlink:href="#DejaVuSans-30" x="290.576172"/>
       <use xlink:href="#DejaVuSans-31" x="354.199219"/>
      </g>
     </g>
    </g>
    <g id="xtick_2">
     <g id="line2d_3">
      <path d="M 150.709392 567.74175 
L 150.709392 24.14175 
" clip-path="url(#pfc6b9da87d)" style="fill: none; stroke: #ffffff; stroke-width: 0.8; stroke-linecap: square"/>
     </g>
     <g id="line2d_4">
      <g>
       <use xlink:href="#m12199e6299" x="150.709392" y="567.74175" style="fill: #555555; stroke: #555555; stroke-width: 0.8"/>
      </g>
     </g>
     <g id="text_2">
      <!-- 2023-02 -->
      <g style="fill: #555555" transform="translate(137.88811 609.659567)rotate(-45)scale(0.1 -0.1)">
       <use xlink:href="#DejaVuSans-32"/>
       <use xlink:href="#DejaVuSans-30" x="63.623047"/>
       <use xlink:href="#DejaVuSans-32" x="127.246094"/>
       <use xlink:href="#DejaVuSans-33" x="190.869141"/>
       <use xlink:href="#DejaVuSans-2d" x="254.492188"/>
       <use xlink:href="#DejaVuSans-30" x="290.576172"/>
       <use xlink:href="#DejaVuSans-32" x="354.199219"/>
      </g>
     </g>
    </g>
    <g id="xtick_3">
     <g id="line2d_5">
      <path d="M 221.520686 567.74175 
L 221.520686 24.14175 
" clip-path="url(#pfc6b9da87d)" style="fill: none; stroke: #ffffff; stroke-width: 0.8; stroke-linecap: square"/>
     </g>
     <g id="line2d_6">
      <g>
       <use xlink:href="#m12199e6299" x="221.520686" y="567.74175" style="fill: #555555; stroke: #555555; stroke-width: 0.8"/>
      </g>
     </g>
     <g id="text_3">
      <!-- 2023-03 -->
      <g style="fill: #555555" transform="translate(208.699404 609.659567)rotate(-45)scale(0.1 -0.1)">
       <use xlink:href="#DejaVuSans-32"/>
       <use xlink:href="#DejaVuSans-30" x="63.623047"/>
       <use xlink:href="#DejaVuSans-32" x="127.246094"/>
       <use xlink:href="#DejaVuSans-33" x="190.869141"/>
       <use xlink:href="#DejaVuSans-2d" x="254.492188"/>
       <use xlink:href="#DejaVuSans-30" x="290.576172"/>
       <use xlink:href="#DejaVuSans-33" x="354.199219"/>
      </g>
     </g>
    </g>
    <g id="xtick_4">
     <g id="line2d_7">
      <path d="M 299.918904 567.74175 
L 299.918904 24.14175 
" clip-path="url(#pfc6b9da87d)" style="fill: none; stroke: #ffffff; stroke-width: 0.8; stroke-linecap: square"/>
     </g>
     <g id="line2d_8">
      <g>
       <use xlink:href="#m12199e6299" x="299.918904" y="567.74175" style="fill: #555555; stroke: #555555; stroke-width: 0.8"/>
      </g>
     </g>
     <g id="text_4">
      <!-- 2023-04 -->
      <g style="fill: #555555" transform="translate(287.097622 609.659567)rotate(-45)scale(0.1 -0.1)">
       <defs>
        <path id="DejaVuSans-34" d="M 2419 4116 
L 825 1625 
L 2419 1625 
L 2419 4116 
z
M 2253 4666 
L 3047 4666 
L 3047 1625 
L 3713 1625 
L 3713 1100 
L 3047 1100 
L 3047 0 
L 2419 0 
L 2419 1100 
L 313 1100 
L 313 1709 
L 2253 4666 
z
" transform="scale(0.015625)"/>
       </defs>
       <use xlink:href="#DejaVuSans-32"/>
       <use xlink:href="#DejaVuSans-30" x="63.623047"/>
       <use xlink:href="#DejaVuSans-32" x="127.246094"/>
       <use xlink:href="#DejaVuSans-33" x="190.869141"/>
       <use xlink:href="#DejaVuSans-2d" x="254.492188"/>
       <use xlink:href="#DejaVuSans-30" x="290.576172"/>
       <use xlink:href="#DejaVuSans-34" x="354.199219"/>
      </g>
     </g>
    </g>
    <g id="xtick_5">
     <g id="line2d_9">
      <path d="M 375.788148 567.74175 
L 375.788148 24.14175 
" clip-path="url(#pfc6b9da87d)" style="fill: none; stroke: #ffffff; stroke-width: 0.8; stroke-linecap: square"/>
     </g>
     <g id="line2d_10">
      <g>
       <use xlink:href="#m12199e6299" x="375.788148" y="567.74175" style="fill: #555555; stroke: #555555; stroke-width: 0.8"/>
      </g>
     </g>
     <g id="text_5">
      <!-- 2023-05 -->
      <g style="fill: #555555" transform="translate(362.966866 609.659567)rotate(-45)scale(0.1 -0.1)">
       <defs>
        <path id="DejaVuSans-35" d="M 691 4666 
L 3169 4666 
L 3169 4134 
L 1269 4134 
L 1269 2991 
Q 1406 3038 1543 3061 
Q 1681 3084 1819 3084 
Q 2600 3084 3056 2656 
Q 3513 2228 3513 1497 
Q 3513 744 3044 326 
Q 2575 -91 1722 -91 
Q 1428 -91 1123 -41 
Q 819 9 494 109 
L 494 744 
Q 775 591 1075 516 
Q 1375 441 1709 441 
Q 2250 441 2565 725 
Q 2881 1009 2881 1497 
Q 2881 1984 2565 2268 
Q 2250 2553 1709 2553 
Q 1456 2553 1204 2497 
Q 953 2441 691 2322 
L 691 4666 
z
" transform="scale(0.015625)"/>
       </defs>
       <use xlink:href="#DejaVuSans-32"/>
       <use xlink:href="#DejaVuSans-30" x="63.623047"/>
       <use xlink:href="#DejaVuSans-32" x="127.246094"/>
       <use xlink:href="#DejaVuSans-33" x="190.869141"/>
       <use xlink:href="#DejaVuSans-2d" x="254.492188"/>
       <use xlink:href="#DejaVuSans-30" x="290.576172"/>
       <use xlink:href="#DejaVuSans-35" x="354.199219"/>
      </g>
     </g>
    </g>
    <g id="xtick_6">
     <g id="line2d_11">
      <path d="M 454.186367 567.74175 
L 454.186367 24.14175 
" clip-path="url(#pfc6b9da87d)" style="fill: none; stroke: #ffffff; stroke-width: 0.8; stroke-linecap: square"/>
     </g>
     <g id="line2d_12">
      <g>
       <use xlink:href="#m12199e6299" x="454.186367" y="567.74175" style="fill: #555555; stroke: #555555; stroke-width: 0.8"/>
      </g>
     </g>
     <g id="text_6">
      <!-- 2023-06 -->
      <g style="fill: #555555" transform="translate(441.365084 609.659567)rotate(-45)scale(0.1 -0.1)">
       <defs>
        <path id="DejaVuSans-36" d="M 2113 2584 
Q 1688 2584 1439 2293 
Q 1191 2003 1191 1497 
Q 1191 994 1439 701 
Q 1688 409 2113 409 
Q 2538 409 2786 701 
Q 3034 994 3034 1497 
Q 3034 2003 2786 2293 
Q 2538 2584 2113 2584 
z
M 3366 4563 
L 3366 3988 
Q 3128 4100 2886 4159 
Q 2644 4219 2406 4219 
Q 1781 4219 1451 3797 
Q 1122 3375 1075 2522 
Q 1259 2794 1537 2939 
Q 1816 3084 2150 3084 
Q 2853 3084 3261 2657 
Q 3669 2231 3669 1497 
Q 3669 778 3244 343 
Q 2819 -91 2113 -91 
Q 1303 -91 875 529 
Q 447 1150 447 2328 
Q 447 3434 972 4092 
Q 1497 4750 2381 4750 
Q 2619 4750 2861 4703 
Q 3103 4656 3366 4563 
z
" transform="scale(0.015625)"/>
       </defs>
       <use xlink:href="#DejaVuSans-32"/>
       <use xlink:href="#DejaVuSans-30" x="63.623047"/>
       <use xlink:href="#DejaVuSans-32" x="127.246094"/>
       <use xlink:href="#DejaVuSans-33" x="190.869141"/>
       <use xlink:href="#DejaVuSans-2d" x="254.492188"/>
       <use xlink:href="#DejaVuSans-30" x="290.576172"/>
       <use xlink:href="#DejaVuSans-36" x="354.199219"/>
      </g>
     </g>
    </g>
    <g id="xtick_7">
     <g id="line2d_13">
      <path d="M 530.05561 567.74175 
L 530.05561 24.14175 
" clip-path="url(#pfc6b9da87d)" style="fill: none; stroke: #ffffff; stroke-width: 0.8; stroke-linecap: square"/>
     </g>
     <g id="line2d_14">
      <g>
       <use xlink:href="#m12199e6299" x="530.05561" y="567.74175" style="fill: #555555; stroke: #555555; stroke-width: 0.8"/>
      </g>
     </g>
     <g id="text_7">
      <!-- 2023-07 -->
      <g style="fill: #555555" transform="translate(517.234328 609.659567)rotate(-45)scale(0.1 -0.1)">
       <defs>
        <path id="DejaVuSans-37" d="M 525 4666 
L 3525 4666 
L 3525 4397 
L 1831 0 
L 1172 0 
L 2766 4134 
L 525 4134 
L 525 4666 
z
" transform="scale(0.015625)"/>
       </defs>
       <use xlink:href="#DejaVuSans-32"/>
       <use xlink:href="#DejaVuSans-30" x="63.623047"/>
       <use xlink:href="#DejaVuSans-32" x="127.246094"/>
       <use xlink:href="#DejaVuSans-33" x="190.869141"/>
       <use xlink:href="#DejaVuSans-2d" x="254.492188"/>
       <use xlink:href="#DejaVuSans-30" x="290.576172"/>
       <use xlink:href="#DejaVuSans-37" x="354.199219"/>
      </g>
     </g>
    </g>
    <g id="xtick_8">
     <g id="line2d_15">
      <path d="M 608.453829 567.74175 
L 608.453829 24.14175 
" clip-path="url(#pfc6b9da87d)" style="fill: none; stroke: #ffffff; stroke-width: 0.8; stroke-linecap: square"/>
     </g>
     <g id="line2d_16">
      <g>
       <use xlink:href="#m12199e6299" x="608.453829" y="567.74175" style="fill: #555555; stroke: #555555; stroke-width: 0.8"/>
      </g>
     </g>
     <g id="text_8">
      <!-- 2023-08 -->
      <g style="fill: #555555" transform="translate(595.632547 609.659567)rotate(-45)scale(0.1 -0.1)">
       <defs>
        <path id="DejaVuSans-38" d="M 2034 2216 
Q 1584 2216 1326 1975 
Q 1069 1734 1069 1313 
Q 1069 891 1326 650 
Q 1584 409 2034 409 
Q 2484 409 2743 651 
Q 3003 894 3003 1313 
Q 3003 1734 2745 1975 
Q 2488 2216 2034 2216 
z
M 1403 2484 
Q 997 2584 770 2862 
Q 544 3141 544 3541 
Q 544 4100 942 4425 
Q 1341 4750 2034 4750 
Q 2731 4750 3128 4425 
Q 3525 4100 3525 3541 
Q 3525 3141 3298 2862 
Q 3072 2584 2669 2484 
Q 3125 2378 3379 2068 
Q 3634 1759 3634 1313 
Q 3634 634 3220 271 
Q 2806 -91 2034 -91 
Q 1263 -91 848 271 
Q 434 634 434 1313 
Q 434 1759 690 2068 
Q 947 2378 1403 2484 
z
M 1172 3481 
Q 1172 3119 1398 2916 
Q 1625 2713 2034 2713 
Q 2441 2713 2670 2916 
Q 2900 3119 2900 3481 
Q 2900 3844 2670 4047 
Q 2441 4250 2034 4250 
Q 1625 4250 1398 4047 
Q 1172 3844 1172 3481 
z
" transform="scale(0.015625)"/>
       </defs>
       <use xlink:href="#DejaVuSans-32"/>
       <use xlink:href="#DejaVuSans-30" x="63.623047"/>
       <use xlink:href="#DejaVuSans-32" x="127.246094"/>
       <use xlink:href="#DejaVuSans-33" x="190.869141"/>
       <use xlink:href="#DejaVuSans-2d" x="254.492188"/>
       <use xlink:href="#DejaVuSans-30" x="290.576172"/>
       <use xlink:href="#DejaVuSans-38" x="354.199219"/>
      </g>
     </g>
    </g>
    <g id="xtick_9">
     <g id="line2d_17">
      <path d="M 686.852047 567.74175 
L 686.852047 24.14175 
" clip-path="url(#pfc6b9da87d)" style="fill: none; stroke: #ffffff; stroke-width: 0.8; stroke-linecap: square"/>
     </g>
     <g id="line2d_18">
      <g>
       <use xlink:href="#m12199e6299" x="686.852047" y="567.74175" style="fill: #555555; stroke: #555555; stroke-width: 0.8"/>
      </g>
     </g>
     <g id="text_9">
      <!-- 2023-09 -->
      <g style="fill: #555555" transform="translate(674.030765 609.659567)rotate(-45)scale(0.1 -0.1)">
       <defs>
        <path id="DejaVuSans-39" d="M 703 97 
L 703 672 
Q 941 559 1184 500 
Q 1428 441 1663 441 
Q 2288 441 2617 861 
Q 2947 1281 2994 2138 
Q 2813 1869 2534 1725 
Q 2256 1581 1919 1581 
Q 1219 1581 811 2004 
Q 403 2428 403 3163 
Q 403 3881 828 4315 
Q 1253 4750 1959 4750 
Q 2769 4750 3195 4129 
Q 3622 3509 3622 2328 
Q 3622 1225 3098 567 
Q 2575 -91 1691 -91 
Q 1453 -91 1209 -44 
Q 966 3 703 97 
z
M 1959 2075 
Q 2384 2075 2632 2365 
Q 2881 2656 2881 3163 
Q 2881 3666 2632 3958 
Q 2384 4250 1959 4250 
Q 1534 4250 1286 3958 
Q 1038 3666 1038 3163 
Q 1038 2656 1286 2365 
Q 1534 2075 1959 2075 
z
" transform="scale(0.015625)"/>
       </defs>
       <use xlink:href="#DejaVuSans-32"/>
       <use xlink:href="#DejaVuSans-30" x="63.623047"/>
       <use xlink:href="#DejaVuSans-32" x="127.246094"/>
       <use xlink:href="#DejaVuSans-33" x="190.869141"/>
       <use xlink:href="#DejaVuSans-2d" x="254.492188"/>
       <use xlink:href="#DejaVuSans-30" x="290.576172"/>
       <use xlink:href="#DejaVuSans-39" x="354.199219"/>
      </g>
     </g>
    </g>
    <g id="xtick_10">
     <g id="line2d_19">
      <path d="M 762.721291 567.74175 
L 762.721291 24.14175 
" clip-path="url(#pfc6b9da87d)" style="fill: none; stroke: #ffffff; stroke-width: 0.8; stroke-linecap: square"/>
     </g>
     <g id="line2d_20">
      <g>
       <use xlink:href="#m12199e6299" x="762.721291" y="567.74175" style="fill: #555555; stroke: #555555; stroke-width: 0.8"/>
      </g>
     </g>
     <g id="text_10">
      <!-- 2023-10 -->
      <g style="fill: #555555" transform="translate(749.900009 609.659567)rotate(-45)scale(0.1 -0.1)">
       <use xlink:href="#DejaVuSans-32"/>
       <use xlink:href="#DejaVuSans-30" x="63.623047"/>
       <use xlink:href="#DejaVuSans-32" x="127.246094"/>
       <use xlink:href="#DejaVuSans-33" x="190.869141"/>
       <use xlink:href="#DejaVuSans-2d" x="254.492188"/>
       <use xlink:href="#DejaVuSans-31" x="290.576172"/>
       <use xlink:href="#DejaVuSans-30" x="354.199219"/>
      </g>
     </g>
    </g>
    <g id="xtick_11">
     <g id="line2d_21">
      <path d="M 841.119509 567.74175 
L 841.119509 24.14175 
" clip-path="url(#pfc6b9da87d)" style="fill: none; stroke: #ffffff; stroke-width: 0.8; stroke-linecap: square"/>
     </g>
     <g id="line2d_22">
      <g>
       <use xlink:href="#m12199e6299" x="841.119509" y="567.74175" style="fill: #555555; stroke: #555555; stroke-width: 0.8"/>
      </g>
     </g>
     <g id="text_11">
      <!-- 2023-11 -->
      <g style="fill: #555555" transform="translate(828.298227 609.659567)rotate(-45)scale(0.1 -0.1)">
       <use xlink:href="#DejaVuSans-32"/>
       <use xlink:href="#DejaVuSans-30" x="63.623047"/>
       <use xlink:href="#DejaVuSans-32" x="127.246094"/>
       <use xlink:href="#DejaVuSans-33" x="190.869141"/>
       <use xlink:href="#DejaVuSans-2d" x="254.492188"/>
       <use xlink:href="#DejaVuSans-31" x="290.576172"/>
       <use xlink:href="#DejaVuSans-31" x="354.199219"/>
      </g>
     </g>
    </g>
    <g id="xtick_12">
     <g id="line2d_23">
      <path d="M 916.988753 567.74175 
L 916.988753 24.14175 
" clip-path="url(#pfc6b9da87d)" style="fill: none; stroke: #ffffff; stroke-width: 0.8; stroke-linecap: square"/>
     </g>
     <g id="line2d_24">
      <g>
       <use xlink:href="#m12199e6299" x="916.988753" y="567.74175" style="fill: #555555; stroke: #555555; stroke-width: 0.8"/>
      </g>
     </g>
     <g id="text_12">
      <!-- 2023-12 -->
      <g style="fill: #555555" transform="translate(904.167471 609.659567)rotate(-45)scale(0.1 -0.1)">
       <use xlink:href="#DejaVuSans-32"/>
       <use xlink:href="#DejaVuSans-30" x="63.623047"/>
       <use xlink:href="#DejaVuSans-32" x="127.246094"/>
       <use xlink:href="#DejaVuSans-33" x="190.869141"/>
       <use xlink:href="#DejaVuSans-2d" x="254.492188"/>
       <use xlink:href="#DejaVuSans-31" x="290.576172"/>
       <use xlink:href="#DejaVuSans-32" x="354.199219"/>
      </g>
     </g>
    </g>
    <g id="text_13">
     <!-- Date -->
     <g style="fill: #555555" transform="translate(489.160438 624.248253)scale(0.12 -0.12)">
      <defs>
       <path id="DejaVuSans-44" d="M 1259 4147 
L 1259 519 
L 2022 519 
Q 2988 519 3436 956 
Q 3884 1394 3884 2338 
Q 3884 3275 3436 3711 
Q 2988 4147 2022 4147 
L 1259 4147 
z
M 628 4666 
L 1925 4666 
Q 3281 4666 3915 4102 
Q 4550 3538 4550 2338 
Q 4550 1131 3912 565 
Q 3275 0 1925 0 
L 628 0 
L 628 4666 
z
" transform="scale(0.015625)"/>
       <path id="DejaVuSans-61" d="M 2194 1759 
Q 1497 1759 1228 1600 
Q 959 1441 959 1056 
Q 959 750 1161 570 
Q 1363 391 1709 391 
Q 2188 391 2477 730 
Q 2766 1069 2766 1631 
L 2766 1759 
L 2194 1759 
z
M 3341 1997 
L 3341 0 
L 2766 0 
L 2766 531 
Q 2569 213 2275 61 
Q 1981 -91 1556 -91 
Q 1019 -91 701 211 
Q 384 513 384 1019 
Q 384 1609 779 1909 
Q 1175 2209 1959 2209 
L 2766 2209 
L 2766 2266 
Q 2766 2663 2505 2880 
Q 2244 3097 1772 3097 
Q 1472 3097 1187 3025 
Q 903 2953 641 2809 
L 641 3341 
Q 956 3463 1253 3523 
Q 1550 3584 1831 3584 
Q 2591 3584 2966 3190 
Q 3341 2797 3341 1997 
z
" transform="scale(0.015625)"/>
       <path id="DejaVuSans-74" d="M 1172 4494 
L 1172 3500 
L 2356 3500 
L 2356 3053 
L 1172 3053 
L 1172 1153 
Q 1172 725 1289 603 
Q 1406 481 1766 481 
L 2356 481 
L 2356 0 
L 1766 0 
Q 1100 0 847 248 
Q 594 497 594 1153 
L 594 3053 
L 172 3053 
L 172 3500 
L 594 3500 
L 594 4494 
L 1172 4494 
z
" transform="scale(0.015625)"/>
       <path id="DejaVuSans-65" d="M 3597 1894 
L 3597 1613 
L 953 1613 
Q 991 1019 1311 708 
Q 1631 397 2203 397 
Q 2534 397 2845 478 
Q 3156 559 3463 722 
L 3463 178 
Q 3153 47 2828 -22 
Q 2503 -91 2169 -91 
Q 1331 -91 842 396 
Q 353 884 353 1716 
Q 353 2575 817 3079 
Q 1281 3584 2069 3584 
Q 2775 3584 3186 3129 
Q 3597 2675 3597 1894 
z
M 3022 2063 
Q 3016 2534 2758 2815 
Q 2500 3097 2075 3097 
Q 1594 3097 1305 2825 
Q 1016 2553 972 2059 
L 3022 2063 
z
" transform="scale(0.015625)"/>
      </defs>
      <use xlink:href="#DejaVuSans-44"/>
      <use xlink:href="#DejaVuSans-61" x="77.001953"/>
      <use xlink:href="#DejaVuSans-74" x="138.28125"/>
      <use xlink:href="#DejaVuSans-65" x="177.490234"/>
     </g>
    </g>
   </g>
   <g id="matplotlib.axis_2">
    <g id="ytick_1">
     <g id="line2d_25">
      <path d="M 52.079375 567.74175 
L 954.923375 567.74175 
" clip-path="url(#pfc6b9da87d)" style="fill: none; stroke: #ffffff; stroke-width: 0.8; stroke-linecap: square"/>
     </g>
     <g id="line2d_26">
      <defs>
       <path id="mf9c9a10037" d="M 0 0 
L -3.5 0 
" style="stroke: #555555; stroke-width: 0.8"/>
      </defs>
      <g>
       <use xlink:href="#mf9c9a10037" x="52.079375" y="567.74175" style="fill: #555555; stroke: #555555; stroke-width: 0.8"/>
      </g>
     </g>
     <g id="text_14">
      <!-- 0.00 -->
      <g style="fill: #555555" transform="translate(22.81375 571.540969)scale(0.1 -0.1)">
       <defs>
        <path id="DejaVuSans-2e" d="M 684 794 
L 1344 794 
L 1344 0 
L 684 0 
L 684 794 
z
" transform="scale(0.015625)"/>
       </defs>
       <use xlink:href="#DejaVuSans-30"/>
       <use xlink:href="#DejaVuSans-2e" x="63.623047"/>
       <use xlink:href="#DejaVuSans-30" x="95.410156"/>
       <use xlink:href="#DejaVuSans-30" x="159.033203"/>
      </g>
     </g>
    </g>
    <g id="ytick_2">
     <g id="line2d_27">
      <path d="M 52.079375 485.773208 
L 954.923375 485.773208 
" clip-path="url(#pfc6b9da87d)" style="fill: none; stroke: #ffffff; stroke-width: 0.8; stroke-linecap: square"/>
     </g>
     <g id="line2d_28">
      <g>
       <use xlink:href="#mf9c9a10037" x="52.079375" y="485.773208" style="fill: #555555; stroke: #555555; stroke-width: 0.8"/>
      </g>
     </g>
     <g id="text_15">
      <!-- 0.05 -->
      <g style="fill: #555555" transform="translate(22.81375 489.572427)scale(0.1 -0.1)">
       <use xlink:href="#DejaVuSans-30"/>
       <use xlink:href="#DejaVuSans-2e" x="63.623047"/>
       <use xlink:href="#DejaVuSans-30" x="95.410156"/>
       <use xlink:href="#DejaVuSans-35" x="159.033203"/>
      </g>
     </g>
    </g>
    <g id="ytick_3">
     <g id="line2d_29">
      <path d="M 52.079375 403.804667 
L 954.923375 403.804667 
" clip-path="url(#pfc6b9da87d)" style="fill: none; stroke: #ffffff; stroke-width: 0.8; stroke-linecap: square"/>
     </g>
     <g id="line2d_30">
      <g>
       <use xlink:href="#mf9c9a10037" x="52.079375" y="403.804667" style="fill: #555555; stroke: #555555; stroke-width: 0.8"/>
      </g>
     </g>
     <g id="text_16">
      <!-- 0.10 -->
      <g style="fill: #555555" transform="translate(22.81375 407.603885)scale(0.1 -0.1)">
       <use xlink:href="#DejaVuSans-30"/>
       <use xlink:href="#DejaVuSans-2e" x="63.623047"/>
       <use xlink:href="#DejaVuSans-31" x="95.410156"/>
       <use xlink:href="#DejaVuSans-30" x="159.033203"/>
      </g>
     </g>
    </g>
    <g id="ytick_4">
     <g id="line2d_31">
      <path d="M 52.079375 321.836125 
L 954.923375 321.836125 
" clip-path="url(#pfc6b9da87d)" style="fill: none; stroke: #ffffff; stroke-width: 0.8; stroke-linecap: square"/>
     </g>
     <g id="line2d_32">
      <g>
       <use xlink:href="#mf9c9a10037" x="52.079375" y="321.836125" style="fill: #555555; stroke: #555555; stroke-width: 0.8"/>
      </g>
     </g>
     <g id="text_17">
      <!-- 0.15 -->
      <g style="fill: #555555" transform="translate(22.81375 325.635344)scale(0.1 -0.1)">
       <use xlink:href="#DejaVuSans-30"/>
       <use xlink:href="#DejaVuSans-2e" x="63.623047"/>
       <use xlink:href="#DejaVuSans-31" x="95.410156"/>
       <use xlink:href="#DejaVuSans-35" x="159.033203"/>
      </g>
     </g>
    </g>
    <g id="ytick_5">
     <g id="line2d_33">
      <path d="M 52.079375 239.867583 
L 954.923375 239.867583 
" clip-path="url(#pfc6b9da87d)" style="fill: none; stroke: #ffffff; stroke-width: 0.8; stroke-linecap: square"/>
     </g>
     <g id="line2d_34">
      <g>
       <use xlink:href="#mf9c9a10037" x="52.079375" y="239.867583" style="fill: #555555; stroke: #555555; stroke-width: 0.8"/>
      </g>
     </g>
     <g id="text_18">
      <!-- 0.20 -->
      <g style="fill: #555555" transform="translate(22.81375 243.666802)scale(0.1 -0.1)">
       <use xlink:href="#DejaVuSans-30"/>
       <use xlink:href="#DejaVuSans-2e" x="63.623047"/>
       <use xlink:href="#DejaVuSans-32" x="95.410156"/>
       <use xlink:href="#DejaVuSans-30" x="159.033203"/>
      </g>
     </g>
    </g>
    <g id="ytick_6">
     <g id="line2d_35">
      <path d="M 52.079375 157.899041 
L 954.923375 157.899041 
" clip-path="url(#pfc6b9da87d)" style="fill: none; stroke: #ffffff; stroke-width: 0.8; stroke-linecap: square"/>
     </g>
     <g id="line2d_36">
      <g>
       <use xlink:href="#mf9c9a10037" x="52.079375" y="157.899041" style="fill: #555555; stroke: #555555; stroke-width: 0.8"/>
      </g>
     </g>
     <g id="text_19">
      <!-- 0.25 -->
      <g style="fill: #555555" transform="translate(22.81375 161.69826)scale(0.1 -0.1)">
       <use xlink:href="#DejaVuSans-30"/>
       <use xlink:href="#DejaVuSans-2e" x="63.623047"/>
       <use xlink:href="#DejaVuSans-32" x="95.410156"/>
       <use xlink:href="#DejaVuSans-35" x="159.033203"/>
      </g>
     </g>
    </g>
    <g id="ytick_7">
     <g id="line2d_37">
      <path d="M 52.079375 75.9305 
L 954.923375 75.9305 
" clip-path="url(#pfc6b9da87d)" style="fill: none; stroke: #ffffff; stroke-width: 0.8; stroke-linecap: square"/>
     </g>
     <g id="line2d_38">
      <g>
       <use xlink:href="#mf9c9a10037" x="52.079375" y="75.9305" style="fill: #555555; stroke: #555555; stroke-width: 0.8"/>
      </g>
     </g>
     <g id="text_20">
      <!-- 0.30 -->
      <g style="fill: #555555" transform="translate(22.81375 79.729718)scale(0.1 -0.1)">
       <use xlink:href="#DejaVuSans-30"/>
       <use xlink:href="#DejaVuSans-2e" x="63.623047"/>
       <use xlink:href="#DejaVuSans-33" x="95.410156"/>
       <use xlink:href="#DejaVuSans-30" x="159.033203"/>
      </g>
     </g>
    </g>
    <g id="text_21">
     <!-- Share -->
     <g style="fill: #555555" transform="translate(16.318125 313.253625)rotate(-90)scale(0.12 -0.12)">
      <defs>
       <path id="DejaVuSans-53" d="M 3425 4513 
L 3425 3897 
Q 3066 4069 2747 4153 
Q 2428 4238 2131 4238 
Q 1616 4238 1336 4038 
Q 1056 3838 1056 3469 
Q 1056 3159 1242 3001 
Q 1428 2844 1947 2747 
L 2328 2669 
Q 3034 2534 3370 2195 
Q 3706 1856 3706 1288 
Q 3706 609 3251 259 
Q 2797 -91 1919 -91 
Q 1588 -91 1214 -16 
Q 841 59 441 206 
L 441 856 
Q 825 641 1194 531 
Q 1563 422 1919 422 
Q 2459 422 2753 634 
Q 3047 847 3047 1241 
Q 3047 1584 2836 1778 
Q 2625 1972 2144 2069 
L 1759 2144 
Q 1053 2284 737 2584 
Q 422 2884 422 3419 
Q 422 4038 858 4394 
Q 1294 4750 2059 4750 
Q 2388 4750 2728 4690 
Q 3069 4631 3425 4513 
z
" transform="scale(0.015625)"/>
       <path id="DejaVuSans-68" d="M 3513 2113 
L 3513 0 
L 2938 0 
L 2938 2094 
Q 2938 2591 2744 2837 
Q 2550 3084 2163 3084 
Q 1697 3084 1428 2787 
Q 1159 2491 1159 1978 
L 1159 0 
L 581 0 
L 581 4863 
L 1159 4863 
L 1159 2956 
Q 1366 3272 1645 3428 
Q 1925 3584 2291 3584 
Q 2894 3584 3203 3211 
Q 3513 2838 3513 2113 
z
" transform="scale(0.015625)"/>
       <path id="DejaVuSans-72" d="M 2631 2963 
Q 2534 3019 2420 3045 
Q 2306 3072 2169 3072 
Q 1681 3072 1420 2755 
Q 1159 2438 1159 1844 
L 1159 0 
L 581 0 
L 581 3500 
L 1159 3500 
L 1159 2956 
Q 1341 3275 1631 3429 
Q 1922 3584 2338 3584 
Q 2397 3584 2469 3576 
Q 2541 3569 2628 3553 
L 2631 2963 
z
" transform="scale(0.015625)"/>
      </defs>
      <use xlink:href="#DejaVuSans-53"/>
      <use xlink:href="#DejaVuSans-68" x="63.476562"/>
      <use xlink:href="#DejaVuSans-61" x="126.855469"/>
      <use xlink:href="#DejaVuSans-72" x="188.134766"/>
      <use xlink:href="#DejaVuSans-65" x="226.998047"/>
     </g>
    </g>
   </g>
   <g id="line2d_39">
    <path d="M 52.079375 373.079652 
L 61.199011 372.12768 
L 70.318648 371.175707 
L 79.438284 370.223734 
L 88.55792 369.271762 
L 97.677557 368.319789 
L 106.797193 367.367816 
L 115.91683 366.415843 
L 125.036466 365.463871 
L 134.156102 364.511898 
L 143.275739 363.559925 
L 152.395375 362.607953 
L 161.515011 361.65598 
L 170.634648 360.704007 
L 179.754284 359.752034 
L 188.87392 358.800062 
L 197.993557 357.848089 
L 207.113193 356.896116 
L 216.23283 355.944143 
L 225.352466 354.992171 
L 234.472102 354.040198 
L 243.591739 353.088225 
L 252.711375 352.136253 
L 261.831011 351.18428 
L 270.950648 350.232307 
L 280.070284 349.280334 
L 289.18992 348.328362 
L 298.309557 347.376389 
L 307.429193 346.424416 
L 316.54883 345.472444 
L 325.668466 344.520471 
L 334.788102 343.568498 
L 343.907739 342.616525 
L 353.027375 341.664553 
L 362.147011 340.71258 
L 371.266648 339.760607 
L 380.386284 338.808634 
L 389.50592 337.856662 
L 398.625557 336.904689 
L 407.745193 335.952716 
L 416.86483 335.000744 
L 425.984466 334.048771 
L 435.104102 333.096798 
L 444.223739 332.144825 
L 453.343375 331.192853 
L 462.463011 330.24088 
L 471.582648 329.288907 
L 480.702284 328.336935 
L 489.82192 327.384962 
L 498.941557 326.432989 
L 508.061193 325.481016 
L 517.18083 324.529044 
L 526.300466 323.577071 
L 535.420102 322.625098 
L 544.539739 321.673125 
L 553.659375 320.721153 
L 562.779011 319.76918 
L 571.898648 318.817207 
L 581.018284 317.865235 
L 590.13792 316.913262 
L 599.257557 315.961289 
L 608.377193 315.009316 
L 617.49683 314.057344 
L 626.616466 313.105371 
L 635.736102 312.153398 
L 644.855739 311.201426 
L 653.975375 310.249453 
L 663.095011 309.29748 
L 672.214648 308.345507 
L 681.334284 307.393535 
L 690.45392 306.441562 
L 699.573557 305.489589 
L 708.693193 304.537616 
L 717.81283 303.585644 
L 726.932466 302.633671 
L 736.052102 301.681698 
L 745.171739 300.729726 
L 754.291375 299.777753 
L 763.411011 298.82578 
L 772.530648 297.873807 
L 781.650284 296.921835 
L 790.76992 295.969862 
L 799.889557 295.017889 
L 809.009193 294.065917 
L 818.12883 293.113944 
L 827.248466 292.161971 
L 836.368102 291.209998 
L 845.487739 290.258026 
L 854.607375 289.306053 
L 863.727011 288.35408 
L 872.846648 287.402107 
L 881.966284 286.450135 
L 891.08592 285.498162 
L 900.205557 284.546189 
L 909.325193 283.594217 
L 918.44483 282.642244 
L 927.564466 281.690271 
L 936.684102 280.738298 
L 945.803739 279.786326 
L 954.923375 278.834353 
" clip-path="url(#pfc6b9da87d)" style="fill: none; stroke-dasharray: 1.5,2.475; stroke-dashoffset: 0; stroke: #4ac1fa; stroke-width: 1.5"/>
   </g>
   <g id="line2d_40">
    <path d="M 52.079375 105.067544 
L 61.199011 107.344866 
L 70.318648 109.622188 
L 79.438284 111.899511 
L 88.55792 114.176833 
L 97.677557 116.454155 
L 106.797193 118.731478 
L 115.91683 121.0088 
L 125.036466 123.286122 
L 134.156102 125.563444 
L 143.275739 127.840767 
L 152.395375 130.118089 
L 161.515011 132.395411 
L 170.634648 134.672734 
L 179.754284 136.950056 
L 188.87392 139.227378 
L 197.993557 141.5047 
L 207.113193 143.782023 
L 216.23283 146.059345 
L 225.352466 148.336667 
L 234.472102 150.613989 
L 243.591739 152.891312 
L 252.711375 155.168634 
L 261.831011 157.445956 
L 270.950648 159.723279 
L 280.070284 162.000601 
L 289.18992 164.277923 
L 298.309557 166.555245 
L 307.429193 168.832568 
L 316.54883 171.10989 
L 325.668466 173.387212 
L 334.788102 175.664535 
L 343.907739 177.941857 
L 353.027375 180.219179 
L 362.147011 182.496501 
L 371.266648 184.773824 
L 380.386284 187.051146 
L 389.50592 189.328468 
L 398.625557 191.60579 
L 407.745193 193.883113 
L 416.86483 196.160435 
L 425.984466 198.437757 
L 435.104102 200.71508 
L 444.223739 202.992402 
L 453.343375 205.269724 
L 462.463011 207.547046 
L 471.582648 209.824369 
L 480.702284 212.101691 
L 489.82192 214.379013 
L 498.941557 216.656335 
L 508.061193 218.933658 
L 517.18083 221.21098 
L 526.300466 223.488302 
L 535.420102 225.765625 
L 544.539739 228.042947 
L 553.659375 230.320269 
L 562.779011 232.597591 
L 571.898648 234.874914 
L 581.018284 237.152236 
L 590.13792 239.429558 
L 599.257557 241.706881 
L 608.377193 243.984203 
L 617.49683 246.261525 
L 626.616466 248.538847 
L 635.736102 250.81617 
L 644.855739 253.093492 
L 653.975375 255.370814 
L 663.095011 257.648136 
L 672.214648 259.925459 
L 681.334284 262.202781 
L 690.45392 264.480103 
L 699.573557 266.757426 
L 708.693193 269.034748 
L 717.81283 271.31207 
L 726.932466 273.589392 
L 736.052102 275.866715 
L 745.171739 278.144037 
L 754.291375 280.421359 
L 763.411011 282.698681 
L 772.530648 284.976004 
L 781.650284 287.253326 
L 790.76992 289.530648 
L 799.889557 291.807971 
L 809.009193 294.085293 
L 818.12883 296.362615 
L 827.248466 298.639937 
L 836.368102 300.91726 
L 845.487739 303.194582 
L 854.607375 305.471904 
L 863.727011 307.749227 
L 872.846648 310.026549 
L 881.966284 312.303871 
L 891.08592 314.581193 
L 900.205557 316.858516 
L 909.325193 319.135838 
L 918.44483 321.41316 
L 927.564466 323.690482 
L 936.684102 325.967805 
L 945.803739 328.245127 
L 954.923375 330.522449 
" clip-path="url(#pfc6b9da87d)" style="fill: none; stroke-dasharray: 1.5,2.475; stroke-dashoffset: 0; stroke: #e9a942; stroke-width: 1.5"/>
   </g>
   <g id="line2d_41">
    <path d="M 52.079375 300.579659 
L 61.199011 300.927728 
L 70.318648 301.275797 
L 79.438284 301.623866 
L 88.55792 301.971935 
L 97.677557 302.320004 
L 106.797193 302.668072 
L 115.91683 303.016141 
L 125.036466 303.36421 
L 134.156102 303.712279 
L 143.275739 304.060348 
L 152.395375 304.408417 
L 161.515011 304.756486 
L 170.634648 305.104555 
L 179.754284 305.452624 
L 188.87392 305.800693 
L 197.993557 306.148762 
L 207.113193 306.496831 
L 216.23283 306.8449 
L 225.352466 307.192968 
L 234.472102 307.541037 
L 243.591739 307.889106 
L 252.711375 308.237175 
L 261.831011 308.585244 
L 270.950648 308.933313 
L 280.070284 309.281382 
L 289.18992 309.629451 
L 298.309557 309.97752 
L 307.429193 310.325589 
L 316.54883 310.673658 
L 325.668466 311.021727 
L 334.788102 311.369796 
L 343.907739 311.717865 
L 353.027375 312.065933 
L 362.147011 312.414002 
L 371.266648 312.762071 
L 380.386284 313.11014 
L 389.50592 313.458209 
L 398.625557 313.806278 
L 407.745193 314.154347 
L 416.86483 314.502416 
L 425.984466 314.850485 
L 435.104102 315.198554 
L 444.223739 315.546623 
L 453.343375 315.894692 
L 462.463011 316.242761 
L 471.582648 316.59083 
L 480.702284 316.938898 
L 489.82192 317.286967 
L 498.941557 317.635036 
L 508.061193 317.983105 
L 517.18083 318.331174 
L 526.300466 318.679243 
L 535.420102 319.027312 
L 544.539739 319.375381 
L 553.659375 319.72345 
L 562.779011 320.071519 
L 571.898648 320.419588 
L 581.018284 320.767657 
L 590.13792 321.115726 
L 599.257557 321.463795 
L 608.377193 321.811863 
L 617.49683 322.159932 
L 626.616466 322.508001 
L 635.736102 322.85607 
L 644.855739 323.204139 
L 653.975375 323.552208 
L 663.095011 323.900277 
L 672.214648 324.248346 
L 681.334284 324.596415 
L 690.45392 324.944484 
L 699.573557 325.292553 
L 708.693193 325.640622 
L 717.81283 325.988691 
L 726.932466 326.33676 
L 736.052102 326.684828 
L 745.171739 327.032897 
L 754.291375 327.380966 
L 763.411011 327.729035 
L 772.530648 328.077104 
L 781.650284 328.425173 
L 790.76992 328.773242 
L 799.889557 329.121311 
L 809.009193 329.46938 
L 818.12883 329.817449 
L 827.248466 330.165518 
L 836.368102 330.513587 
L 845.487739 330.861656 
L 854.607375 331.209725 
L 863.727011 331.557793 
L 872.846648 331.905862 
L 881.966284 332.253931 
L 891.08592 332.602 
L 900.205557 332.950069 
L 909.325193 333.298138 
L 918.44483 333.646207 
L 927.564466 333.994276 
L 936.684102 334.342345 
L 945.803739 334.690414 
L 954.923375 335.038483 
" clip-path="url(#pfc6b9da87d)" style="fill: none; stroke-dasharray: 1.5,2.475; stroke-dashoffset: 0; stroke: #9a5689; stroke-width: 1.5"/>
   </g>
   <g id="line2d_42">
    <path d="M 52.079375 510.264367 
L 61.199011 510.211915 
L 70.318648 510.159463 
L 79.438284 510.107011 
L 88.55792 510.054559 
L 97.677557 510.002107 
L 106.797193 509.949655 
L 115.91683 509.897204 
L 125.036466 509.844752 
L 134.156102 509.7923 
L 143.275739 509.739848 
L 152.395375 509.687396 
L 161.515011 509.634944 
L 170.634648 509.582492 
L 179.754284 509.53004 
L 188.87392 509.477588 
L 197.993557 509.425136 
L 207.113193 509.372684 
L 216.23283 509.320232 
L 225.352466 509.26778 
L 234.472102 509.215328 
L 243.591739 509.162876 
L 252.711375 509.110424 
L 261.831011 509.057972 
L 270.950648 509.00552 
L 280.070284 508.953068 
L 289.18992 508.900616 
L 298.309557 508.848164 
L 307.429193 508.795712 
L 316.54883 508.74326 
L 325.668466 508.690808 
L 334.788102 508.638356 
L 343.907739 508.585904 
L 353.027375 508.533453 
L 362.147011 508.481001 
L 371.266648 508.428549 
L 380.386284 508.376097 
L 389.50592 508.323645 
L 398.625557 508.271193 
L 407.745193 508.218741 
L 416.86483 508.166289 
L 425.984466 508.113837 
L 435.104102 508.061385 
L 444.223739 508.008933 
L 453.343375 507.956481 
L 462.463011 507.904029 
L 471.582648 507.851577 
L 480.702284 507.799125 
L 489.82192 507.746673 
L 498.941557 507.694221 
L 508.061193 507.641769 
L 517.18083 507.589317 
L 526.300466 507.536865 
L 535.420102 507.484413 
L 544.539739 507.431961 
L 553.659375 507.379509 
L 562.779011 507.327057 
L 571.898648 507.274605 
L 581.018284 507.222153 
L 590.13792 507.169702 
L 599.257557 507.11725 
L 608.377193 507.064798 
L 617.49683 507.012346 
L 626.616466 506.959894 
L 635.736102 506.907442 
L 644.855739 506.85499 
L 653.975375 506.802538 
L 663.095011 506.750086 
L 672.214648 506.697634 
L 681.334284 506.645182 
L 690.45392 506.59273 
L 699.573557 506.540278 
L 708.693193 506.487826 
L 717.81283 506.435374 
L 726.932466 506.382922 
L 736.052102 506.33047 
L 745.171739 506.278018 
L 754.291375 506.225566 
L 763.411011 506.173114 
L 772.530648 506.120662 
L 781.650284 506.06821 
L 790.76992 506.015758 
L 799.889557 505.963306 
L 809.009193 505.910854 
L 818.12883 505.858402 
L 827.248466 505.805951 
L 836.368102 505.753499 
L 845.487739 505.701047 
L 854.607375 505.648595 
L 863.727011 505.596143 
L 872.846648 505.543691 
L 881.966284 505.491239 
L 891.08592 505.438787 
L 900.205557 505.386335 
L 909.325193 505.333883 
L 918.44483 505.281431 
L 927.564466 505.228979 
L 936.684102 505.176527 
L 945.803739 505.124075 
L 954.923375 505.071623 
" clip-path="url(#pfc6b9da87d)" style="fill: none; stroke-dasharray: 1.5,2.475; stroke-dashoffset: 0; stroke: #be503b; stroke-width: 1.5"/>
   </g>
   <g id="line2d_43">
    <path d="M 52.079375 234.774442 
L 61.199011 234.898187 
L 70.318648 235.021931 
L 79.438284 235.145676 
L 88.55792 235.26942 
L 97.677557 235.393165 
L 106.797193 235.51691 
L 115.91683 235.640654 
L 125.036466 235.764399 
L 134.156102 235.888144 
L 143.275739 236.011888 
L 152.395375 236.135633 
L 161.515011 236.259378 
L 170.634648 236.383122 
L 179.754284 236.506867 
L 188.87392 236.630611 
L 197.993557 236.754356 
L 207.113193 236.878101 
L 216.23283 237.001845 
L 225.352466 237.12559 
L 234.472102 237.249335 
L 243.591739 237.373079 
L 252.711375 237.496824 
L 261.831011 237.620569 
L 270.950648 237.744313 
L 280.070284 237.868058 
L 289.18992 237.991803 
L 298.309557 238.115547 
L 307.429193 238.239292 
L 316.54883 238.363036 
L 325.668466 238.486781 
L 334.788102 238.610526 
L 343.907739 238.73427 
L 353.027375 238.858015 
L 362.147011 238.98176 
L 371.266648 239.105504 
L 380.386284 239.229249 
L 389.50592 239.352994 
L 398.625557 239.476738 
L 407.745193 239.600483 
L 416.86483 239.724228 
L 425.984466 239.847972 
L 435.104102 239.971717 
L 444.223739 240.095461 
L 453.343375 240.219206 
L 462.463011 240.342951 
L 471.582648 240.466695 
L 480.702284 240.59044 
L 489.82192 240.714185 
L 498.941557 240.837929 
L 508.061193 240.961674 
L 517.18083 241.085419 
L 526.300466 241.209163 
L 535.420102 241.332908 
L 544.539739 241.456653 
L 553.659375 241.580397 
L 562.779011 241.704142 
L 571.898648 241.827886 
L 581.018284 241.951631 
L 590.13792 242.075376 
L 599.257557 242.19912 
L 608.377193 242.322865 
L 617.49683 242.44661 
L 626.616466 242.570354 
L 635.736102 242.694099 
L 644.855739 242.817844 
L 653.975375 242.941588 
L 663.095011 243.065333 
L 672.214648 243.189077 
L 681.334284 243.312822 
L 690.45392 243.436567 
L 699.573557 243.560311 
L 708.693193 243.684056 
L 717.81283 243.807801 
L 726.932466 243.931545 
L 736.052102 244.05529 
L 745.171739 244.179035 
L 754.291375 244.302779 
L 763.411011 244.426524 
L 772.530648 244.550269 
L 781.650284 244.674013 
L 790.76992 244.797758 
L 799.889557 244.921502 
L 809.009193 245.045247 
L 818.12883 245.168992 
L 827.248466 245.292736 
L 836.368102 245.416481 
L 845.487739 245.540226 
L 854.607375 245.66397 
L 863.727011 245.787715 
L 872.846648 245.91146 
L 881.966284 246.035204 
L 891.08592 246.158949 
L 900.205557 246.282694 
L 909.325193 246.406438 
L 918.44483 246.530183 
L 927.564466 246.653927 
L 936.684102 246.777672 
L 945.803739 246.901417 
L 954.923375 247.025161 
" clip-path="url(#pfc6b9da87d)" style="fill: none; stroke-dasharray: 1.5,2.475; stroke-dashoffset: 0; stroke: #e2321d; stroke-width: 1.5"/>
   </g>
   <g id="line2d_44">
    <path d="M 52.079375 262.061332 
L 61.199011 260.418212 
L 70.318648 258.775091 
L 79.438284 257.131971 
L 88.55792 255.488851 
L 97.677557 253.84573 
L 106.797193 252.20261 
L 115.91683 250.55949 
L 125.036466 248.916369 
L 134.156102 247.273249 
L 143.275739 245.630129 
L 152.395375 243.987008 
L 161.515011 242.343888 
L 170.634648 240.700767 
L 179.754284 239.057647 
L 188.87392 237.414527 
L 197.993557 235.771406 
L 207.113193 234.128286 
L 216.23283 232.485166 
L 225.352466 230.842045 
L 234.472102 229.198925 
L 243.591739 227.555804 
L 252.711375 225.912684 
L 261.831011 224.269564 
L 270.950648 222.626443 
L 280.070284 220.983323 
L 289.18992 219.340203 
L 298.309557 217.697082 
L 307.429193 216.053962 
L 316.54883 214.410842 
L 325.668466 212.767721 
L 334.788102 211.124601 
L 343.907739 209.48148 
L 353.027375 207.83836 
L 362.147011 206.19524 
L 371.266648 204.552119 
L 380.386284 202.908999 
L 389.50592 201.265879 
L 398.625557 199.622758 
L 407.745193 197.979638 
L 416.86483 196.336517 
L 425.984466 194.693397 
L 435.104102 193.050277 
L 444.223739 191.407156 
L 453.343375 189.764036 
L 462.463011 188.120916 
L 471.582648 186.477795 
L 480.702284 184.834675 
L 489.82192 183.191554 
L 498.941557 181.548434 
L 508.061193 179.905314 
L 517.18083 178.262193 
L 526.300466 176.619073 
L 535.420102 174.975953 
L 544.539739 173.332832 
L 553.659375 171.689712 
L 562.779011 170.046592 
L 571.898648 168.403471 
L 581.018284 166.760351 
L 590.13792 165.11723 
L 599.257557 163.47411 
L 608.377193 161.83099 
L 617.49683 160.187869 
L 626.616466 158.544749 
L 635.736102 156.901629 
L 644.855739 155.258508 
L 653.975375 153.615388 
L 663.095011 151.972267 
L 672.214648 150.329147 
L 681.334284 148.686027 
L 690.45392 147.042906 
L 699.573557 145.399786 
L 708.693193 143.756666 
L 717.81283 142.113545 
L 726.932466 140.470425 
L 736.052102 138.827305 
L 745.171739 137.184184 
L 754.291375 135.541064 
L 763.411011 133.897943 
L 772.530648 132.254823 
L 781.650284 130.611703 
L 790.76992 128.968582 
L 799.889557 127.325462 
L 809.009193 125.682342 
L 818.12883 124.039221 
L 827.248466 122.396101 
L 836.368102 120.75298 
L 845.487739 119.10986 
L 854.607375 117.46674 
L 863.727011 115.823619 
L 872.846648 114.180499 
L 881.966284 112.537379 
L 891.08592 110.894258 
L 900.205557 109.251138 
L 909.325193 107.608018 
L 918.44483 105.964897 
L 927.564466 104.321777 
L 936.684102 102.678656 
L 945.803739 101.035536 
L 954.923375 99.392416 
" clip-path="url(#pfc6b9da87d)" style="fill: none; stroke-dasharray: 1.5,2.475; stroke-dashoffset: 0; stroke: #48b585; stroke-width: 1.5"/>
   </g>
   <g id="line2d_45">
    <path d="M 52.079375 365.573698 
L 69.782199 362.749787 
L 87.485022 363.090737 
L 105.187846 369.655231 
L 122.890669 375.356843 
L 140.593493 375.926261 
L 158.296316 369.68188 
L 175.99914 371.901766 
L 193.701963 375.770327 
L 211.404787 373.969521 
L 229.10761 361.778809 
L 246.810434 369.702831 
L 264.513257 369.703109 
L 282.216081 352.566929 
L 299.918904 342.095561 
L 317.621728 328.272691 
L 335.324551 351.16102 
L 353.027375 347.450724 
L 406.135846 335.143166 
L 423.838669 356.505176 
L 441.541493 341.490754 
L 459.244316 329.237342 
L 476.94714 314.628741 
L 494.649963 306.864013 
L 512.352787 295.042997 
L 530.05561 287.486065 
L 547.758434 301.491686 
L 565.461257 303.15239 
L 583.164081 304.527508 
L 600.866904 294.431261 
L 618.569728 296.354882 
L 636.272551 310.418017 
L 653.975375 309.266487 
L 671.678199 292.490442 
L 689.381022 309.036528 
L 707.083846 301.555975 
L 724.786669 301.890169 
L 742.489493 293.301922 
L 760.192316 286.830814 
L 777.89514 293.248784 
L 795.597963 294.047713 
L 848.706434 298.707963 
L 866.409257 303.331263 
L 884.112081 290.570138 
L 901.814904 290.725232 
L 919.517728 309.471011 
L 937.220551 315.612273 
L 954.923375 293.322528 
" clip-path="url(#pfc6b9da87d)" style="fill: none; stroke: #4ac1fa; stroke-width: 1.5; stroke-linecap: square"/>
   </g>
   <g id="line2d_46">
    <path d="M 52.079375 128.912087 
L 69.782199 170.432845 
L 87.485022 152.043227 
L 105.187846 112.113619 
L 122.890669 114.034648 
L 140.593493 108.615504 
L 158.296316 137.085884 
L 175.99914 108.453614 
L 193.701963 103.499318 
L 211.404787 100.958922 
L 229.10761 136.437785 
L 246.810434 86.450365 
L 264.513257 47.517971 
L 282.216081 146.878837 
L 299.918904 155.448749 
L 317.621728 231.757938 
L 335.324551 108.932427 
L 353.027375 150.544598 
L 406.135846 177.366959 
L 423.838669 104.879138 
L 441.541493 149.059364 
L 459.244316 218.112155 
L 476.94714 242.754587 
L 494.649963 259.938682 
L 512.352787 294.680677 
L 530.05561 336.455305 
L 547.758434 289.554583 
L 565.461257 275.04836 
L 583.164081 284.502077 
L 600.866904 319.081917 
L 618.569728 267.528887 
L 636.272551 257.670218 
L 653.975375 285.893595 
L 671.678199 326.27821 
L 689.381022 324.187155 
L 707.083846 279.473614 
L 724.786669 246.177384 
L 742.489493 282.894822 
L 760.192316 333.862733 
L 777.89514 307.907171 
L 795.597963 292.363487 
L 848.706434 268.417502 
L 866.409257 232.507803 
L 884.112081 271.309013 
L 901.814904 307.06403 
L 919.517728 257.882805 
L 937.220551 240.849043 
L 954.923375 323.085165 
" clip-path="url(#pfc6b9da87d)" style="fill: none; stroke: #e9a942; stroke-width: 1.5; stroke-linecap: square"/>
   </g>
   <g id="line2d_47">
    <path d="M 52.079375 283.135731 
L 69.782199 272.609143 
L 87.485022 274.166005 
L 105.187846 292.626588 
L 122.890669 299.42701 
L 140.593493 297.379381 
L 158.296316 285.63321 
L 175.99914 298.187366 
L 193.701963 300.723429 
L 211.404787 314.157675 
L 229.10761 313.53686 
L 246.810434 328.650606 
L 264.513257 340.786212 
L 282.216081 323.48894 
L 299.918904 319.598039 
L 317.621728 314.587449 
L 335.324551 342.003898 
L 353.027375 335.200685 
L 406.135846 331.733355 
L 423.838669 346.432495 
L 441.541493 320.571888 
L 459.244316 289.32598 
L 476.94714 321.548617 
L 494.649963 318.28267 
L 512.352787 309.42409 
L 530.05561 307.067139 
L 547.758434 322.72389 
L 565.461257 322.35766 
L 583.164081 328.896571 
L 600.866904 323.100873 
L 618.569728 329.865078 
L 636.272551 331.01642 
L 653.975375 322.113406 
L 671.678199 312.673518 
L 689.381022 298.691685 
L 707.083846 323.969562 
L 724.786669 337.465241 
L 742.489493 328.475625 
L 760.192316 320.029206 
L 777.89514 330.406553 
L 795.597963 328.992937 
L 848.706434 326.647973 
L 866.409257 322.876299 
L 884.112081 316.486063 
L 901.814904 330.723189 
L 919.517728 339.003226 
L 937.220551 332.626291 
L 954.923375 330.54508 
" clip-path="url(#pfc6b9da87d)" style="fill: none; stroke: #9a5689; stroke-width: 1.5; stroke-linecap: square"/>
   </g>
   <g id="line2d_48">
    <path d="M 52.079375 509.310144 
L 69.782199 507.332196 
L 87.485022 510.954944 
L 105.187846 513.171142 
L 122.890669 513.812521 
L 140.593493 513.667753 
L 158.296316 512.631715 
L 175.99914 512.386874 
L 193.701963 514.210526 
L 211.404787 512.87314 
L 229.10761 510.491825 
L 246.810434 512.004758 
L 264.513257 513.570531 
L 282.216081 508.480633 
L 299.918904 507.168186 
L 317.621728 504.603265 
L 335.324551 511.165229 
L 353.027375 508.841326 
L 406.135846 506.868172 
L 423.838669 509.859937 
L 441.541493 507.03359 
L 459.244316 508.27808 
L 476.94714 505.439208 
L 494.649963 504.155369 
L 512.352787 500.72906 
L 530.05561 500.293154 
L 547.758434 503.391408 
L 565.461257 502.801748 
L 583.164081 504.787277 
L 600.866904 502.535495 
L 618.569728 502.536233 
L 636.272551 504.757713 
L 653.975375 503.339267 
L 671.678199 501.594422 
L 689.381022 502.696661 
L 707.083846 505.3956 
L 724.786669 504.216066 
L 742.489493 504.350841 
L 760.192316 501.944697 
L 777.89514 504.767222 
L 795.597963 506.00374 
L 848.706434 508.994225 
L 866.409257 510.621059 
L 884.112081 509.406124 
L 901.814904 509.165284 
L 919.517728 512.656373 
L 937.220551 515.042389 
L 954.923375 509.966657 
" clip-path="url(#pfc6b9da87d)" style="fill: none; stroke: #be503b; stroke-width: 1.5; stroke-linecap: square"/>
   </g>
   <g id="line2d_49">
    <path d="M 52.079375 274.122957 
L 69.782199 251.520062 
L 87.485022 252.38772 
L 105.187846 252.638445 
L 122.890669 240.417743 
L 140.593493 246.690245 
L 158.296316 233.403852 
L 175.99914 239.239584 
L 193.701963 244.959904 
L 211.404787 246.699408 
L 229.10761 238.069648 
L 246.810434 250.976707 
L 264.513257 260.334502 
L 282.216081 234.724853 
L 299.918904 249.545774 
L 317.621728 209.991557 
L 335.324551 240.454052 
L 353.027375 231.234258 
L 406.135846 226.852164 
L 423.838669 252.292573 
L 441.541493 266.920494 
L 459.244316 232.545146 
L 476.94714 214.963412 
L 494.649963 212.492142 
L 512.352787 233.373798 
L 530.05561 224.948039 
L 547.758434 204.267149 
L 565.461257 203.428264 
L 583.164081 197.328541 
L 600.866904 188.331382 
L 618.569728 233.524648 
L 636.272551 215.250241 
L 653.975375 219.239821 
L 671.678199 223.896068 
L 689.381022 198.580772 
L 707.083846 239.986322 
L 724.786669 254.821059 
L 742.489493 241.061179 
L 760.192316 241.032012 
L 777.89514 250.380246 
L 795.597963 253.084003 
L 848.706434 266.313339 
L 866.409257 280.118583 
L 884.112081 272.2685 
L 901.814904 259.969004 
L 919.517728 284.095385 
L 937.220551 294.799376 
L 954.923375 274.330921 
" clip-path="url(#pfc6b9da87d)" style="fill: none; stroke: #e2321d; stroke-width: 1.5; stroke-linecap: square"/>
   </g>
   <g id="line2d_50">
    <path d="M 52.079375 227.86816 
L 69.782199 222.706324 
L 87.485022 235.067974 
L 105.187846 245.95168 
L 122.890669 242.404701 
L 140.593493 243.473913 
L 158.296316 248.06418 
L 175.99914 256.723669 
L 193.701963 245.987165 
L 211.404787 237.717733 
L 229.10761 226.025297 
L 246.810434 238.378881 
L 264.513257 255.799417 
L 282.216081 223.777078 
L 299.918904 216.669248 
L 317.621728 202.51942 
L 335.324551 234.554371 
L 353.027375 215.150674 
L 406.135846 211.466016 
L 423.838669 218.021428 
L 441.541493 203.579681 
L 459.244316 211.505682 
L 476.94714 191.036275 
L 494.649963 188.487244 
L 512.352787 157.879128 
L 530.05561 136.359108 
L 547.758434 170.028527 
L 565.461257 184.929187 
L 583.164081 172.26857 
L 600.866904 166.65946 
L 618.569728 163.137199 
L 636.272551 171.713647 
L 653.975375 152.50121 
L 671.678199 136.478903 
L 689.381022 160.313954 
L 707.083846 142.553587 
L 724.786669 148.748011 
L 742.489493 144.494549 
L 760.192316 111.432121 
L 777.89514 107.770422 
L 795.597963 120.518407 
L 848.706434 126.13907 
L 866.409257 144.947578 
L 884.112081 134.818375 
L 901.814904 97.781219 
L 919.517728 91.260635 
L 937.220551 94.597893 
L 954.923375 64.793882 
" clip-path="url(#pfc6b9da87d)" style="fill: none; stroke: #48b585; stroke-width: 6; stroke-linecap: square"/>
   </g>
   <g id="patch_3">
    <path d="M 52.079375 567.74175 
L 52.079375 24.14175 
" style="fill: none; stroke: #ffffff; stroke-linejoin: miter; stroke-linecap: square"/>
   </g>
   <g id="patch_4">
    <path d="M 954.923375 567.74175 
L 954.923375 24.14175 
" style="fill: none; stroke: #ffffff; stroke-linejoin: miter; stroke-linecap: square"/>
   </g>
   <g id="patch_5">
    <path d="M 52.079375 567.74175 
L 954.923375 567.74175 
" style="fill: none; stroke: #ffffff; stroke-linejoin: miter; stroke-linecap: square"/>
   </g>
   <g id="patch_6">
    <path d="M 52.079375 24.14175 
L 954.923375 24.14175 
" style="fill: none; stroke: #ffffff; stroke-linejoin: miter; stroke-linecap: square"/>
   </g>
   <g id="text_22">
    <!-- Enterprise Linux 8 and 9 Instances by Distribution Share (System Age &gt; 1 Week) -->
    <g transform="translate(52.079375 18.14175)scale(0.144 -0.144)">
     <defs>
      <path id="DejaVuSans-45" d="M 628 4666 
L 3578 4666 
L 3578 4134 
L 1259 4134 
L 1259 2753 
L 3481 2753 
L 3481 2222 
L 1259 2222 
L 1259 531 
L 3634 531 
L 3634 0 
L 628 0 
L 628 4666 
z
" transform="scale(0.015625)"/>
      <path id="DejaVuSans-6e" d="M 3513 2113 
L 3513 0 
L 2938 0 
L 2938 2094 
Q 2938 2591 2744 2837 
Q 2550 3084 2163 3084 
Q 1697 3084 1428 2787 
Q 1159 2491 1159 1978 
L 1159 0 
L 581 0 
L 581 3500 
L 1159 3500 
L 1159 2956 
Q 1366 3272 1645 3428 
Q 1925 3584 2291 3584 
Q 2894 3584 3203 3211 
Q 3513 2838 3513 2113 
z
" transform="scale(0.015625)"/>
      <path id="DejaVuSans-70" d="M 1159 525 
L 1159 -1331 
L 581 -1331 
L 581 3500 
L 1159 3500 
L 1159 2969 
Q 1341 3281 1617 3432 
Q 1894 3584 2278 3584 
Q 2916 3584 3314 3078 
Q 3713 2572 3713 1747 
Q 3713 922 3314 415 
Q 2916 -91 2278 -91 
Q 1894 -91 1617 61 
Q 1341 213 1159 525 
z
M 3116 1747 
Q 3116 2381 2855 2742 
Q 2594 3103 2138 3103 
Q 1681 3103 1420 2742 
Q 1159 2381 1159 1747 
Q 1159 1113 1420 752 
Q 1681 391 2138 391 
Q 2594 391 2855 752 
Q 3116 1113 3116 1747 
z
" transform="scale(0.015625)"/>
      <path id="DejaVuSans-69" d="M 603 3500 
L 1178 3500 
L 1178 0 
L 603 0 
L 603 3500 
z
M 603 4863 
L 1178 4863 
L 1178 4134 
L 603 4134 
L 603 4863 
z
" transform="scale(0.015625)"/>
      <path id="DejaVuSans-73" d="M 2834 3397 
L 2834 2853 
Q 2591 2978 2328 3040 
Q 2066 3103 1784 3103 
Q 1356 3103 1142 2972 
Q 928 2841 928 2578 
Q 928 2378 1081 2264 
Q 1234 2150 1697 2047 
L 1894 2003 
Q 2506 1872 2764 1633 
Q 3022 1394 3022 966 
Q 3022 478 2636 193 
Q 2250 -91 1575 -91 
Q 1294 -91 989 -36 
Q 684 19 347 128 
L 347 722 
Q 666 556 975 473 
Q 1284 391 1588 391 
Q 1994 391 2212 530 
Q 2431 669 2431 922 
Q 2431 1156 2273 1281 
Q 2116 1406 1581 1522 
L 1381 1569 
Q 847 1681 609 1914 
Q 372 2147 372 2553 
Q 372 3047 722 3315 
Q 1072 3584 1716 3584 
Q 2034 3584 2315 3537 
Q 2597 3491 2834 3397 
z
" transform="scale(0.015625)"/>
      <path id="DejaVuSans-20" transform="scale(0.015625)"/>
      <path id="DejaVuSans-4c" d="M 628 4666 
L 1259 4666 
L 1259 531 
L 3531 531 
L 3531 0 
L 628 0 
L 628 4666 
z
" transform="scale(0.015625)"/>
      <path id="DejaVuSans-75" d="M 544 1381 
L 544 3500 
L 1119 3500 
L 1119 1403 
Q 1119 906 1312 657 
Q 1506 409 1894 409 
Q 2359 409 2629 706 
Q 2900 1003 2900 1516 
L 2900 3500 
L 3475 3500 
L 3475 0 
L 2900 0 
L 2900 538 
Q 2691 219 2414 64 
Q 2138 -91 1772 -91 
Q 1169 -91 856 284 
Q 544 659 544 1381 
z
M 1991 3584 
L 1991 3584 
z
" transform="scale(0.015625)"/>
      <path id="DejaVuSans-78" d="M 3513 3500 
L 2247 1797 
L 3578 0 
L 2900 0 
L 1881 1375 
L 863 0 
L 184 0 
L 1544 1831 
L 300 3500 
L 978 3500 
L 1906 2253 
L 2834 3500 
L 3513 3500 
z
" transform="scale(0.015625)"/>
      <path id="DejaVuSans-64" d="M 2906 2969 
L 2906 4863 
L 3481 4863 
L 3481 0 
L 2906 0 
L 2906 525 
Q 2725 213 2448 61 
Q 2172 -91 1784 -91 
Q 1150 -91 751 415 
Q 353 922 353 1747 
Q 353 2572 751 3078 
Q 1150 3584 1784 3584 
Q 2172 3584 2448 3432 
Q 2725 3281 2906 2969 
z
M 947 1747 
Q 947 1113 1208 752 
Q 1469 391 1925 391 
Q 2381 391 2643 752 
Q 2906 1113 2906 1747 
Q 2906 2381 2643 2742 
Q 2381 3103 1925 3103 
Q 1469 3103 1208 2742 
Q 947 2381 947 1747 
z
" transform="scale(0.015625)"/>
      <path id="DejaVuSans-49" d="M 628 4666 
L 1259 4666 
L 1259 0 
L 628 0 
L 628 4666 
z
" transform="scale(0.015625)"/>
      <path id="DejaVuSans-63" d="M 3122 3366 
L 3122 2828 
Q 2878 2963 2633 3030 
Q 2388 3097 2138 3097 
Q 1578 3097 1268 2742 
Q 959 2388 959 1747 
Q 959 1106 1268 751 
Q 1578 397 2138 397 
Q 2388 397 2633 464 
Q 2878 531 3122 666 
L 3122 134 
Q 2881 22 2623 -34 
Q 2366 -91 2075 -91 
Q 1284 -91 818 406 
Q 353 903 353 1747 
Q 353 2603 823 3093 
Q 1294 3584 2113 3584 
Q 2378 3584 2631 3529 
Q 2884 3475 3122 3366 
z
" transform="scale(0.015625)"/>
      <path id="DejaVuSans-62" d="M 3116 1747 
Q 3116 2381 2855 2742 
Q 2594 3103 2138 3103 
Q 1681 3103 1420 2742 
Q 1159 2381 1159 1747 
Q 1159 1113 1420 752 
Q 1681 391 2138 391 
Q 2594 391 2855 752 
Q 3116 1113 3116 1747 
z
M 1159 2969 
Q 1341 3281 1617 3432 
Q 1894 3584 2278 3584 
Q 2916 3584 3314 3078 
Q 3713 2572 3713 1747 
Q 3713 922 3314 415 
Q 2916 -91 2278 -91 
Q 1894 -91 1617 61 
Q 1341 213 1159 525 
L 1159 0 
L 581 0 
L 581 4863 
L 1159 4863 
L 1159 2969 
z
" transform="scale(0.015625)"/>
      <path id="DejaVuSans-79" d="M 2059 -325 
Q 1816 -950 1584 -1140 
Q 1353 -1331 966 -1331 
L 506 -1331 
L 506 -850 
L 844 -850 
Q 1081 -850 1212 -737 
Q 1344 -625 1503 -206 
L 1606 56 
L 191 3500 
L 800 3500 
L 1894 763 
L 2988 3500 
L 3597 3500 
L 2059 -325 
z
" transform="scale(0.015625)"/>
      <path id="DejaVuSans-6f" d="M 1959 3097 
Q 1497 3097 1228 2736 
Q 959 2375 959 1747 
Q 959 1119 1226 758 
Q 1494 397 1959 397 
Q 2419 397 2687 759 
Q 2956 1122 2956 1747 
Q 2956 2369 2687 2733 
Q 2419 3097 1959 3097 
z
M 1959 3584 
Q 2709 3584 3137 3096 
Q 3566 2609 3566 1747 
Q 3566 888 3137 398 
Q 2709 -91 1959 -91 
Q 1206 -91 779 398 
Q 353 888 353 1747 
Q 353 2609 779 3096 
Q 1206 3584 1959 3584 
z
" transform="scale(0.015625)"/>
      <path id="DejaVuSans-28" d="M 1984 4856 
Q 1566 4138 1362 3434 
Q 1159 2731 1159 2009 
Q 1159 1288 1364 580 
Q 1569 -128 1984 -844 
L 1484 -844 
Q 1016 -109 783 600 
Q 550 1309 550 2009 
Q 550 2706 781 3412 
Q 1013 4119 1484 4856 
L 1984 4856 
z
" transform="scale(0.015625)"/>
      <path id="DejaVuSans-6d" d="M 3328 2828 
Q 3544 3216 3844 3400 
Q 4144 3584 4550 3584 
Q 5097 3584 5394 3201 
Q 5691 2819 5691 2113 
L 5691 0 
L 5113 0 
L 5113 2094 
Q 5113 2597 4934 2840 
Q 4756 3084 4391 3084 
Q 3944 3084 3684 2787 
Q 3425 2491 3425 1978 
L 3425 0 
L 2847 0 
L 2847 2094 
Q 2847 2600 2669 2842 
Q 2491 3084 2119 3084 
Q 1678 3084 1418 2786 
Q 1159 2488 1159 1978 
L 1159 0 
L 581 0 
L 581 3500 
L 1159 3500 
L 1159 2956 
Q 1356 3278 1631 3431 
Q 1906 3584 2284 3584 
Q 2666 3584 2933 3390 
Q 3200 3197 3328 2828 
z
" transform="scale(0.015625)"/>
      <path id="DejaVuSans-41" d="M 2188 4044 
L 1331 1722 
L 3047 1722 
L 2188 4044 
z
M 1831 4666 
L 2547 4666 
L 4325 0 
L 3669 0 
L 3244 1197 
L 1141 1197 
L 716 0 
L 50 0 
L 1831 4666 
z
" transform="scale(0.015625)"/>
      <path id="DejaVuSans-67" d="M 2906 1791 
Q 2906 2416 2648 2759 
Q 2391 3103 1925 3103 
Q 1463 3103 1205 2759 
Q 947 2416 947 1791 
Q 947 1169 1205 825 
Q 1463 481 1925 481 
Q 2391 481 2648 825 
Q 2906 1169 2906 1791 
z
M 3481 434 
Q 3481 -459 3084 -895 
Q 2688 -1331 1869 -1331 
Q 1566 -1331 1297 -1286 
Q 1028 -1241 775 -1147 
L 775 -588 
Q 1028 -725 1275 -790 
Q 1522 -856 1778 -856 
Q 2344 -856 2625 -561 
Q 2906 -266 2906 331 
L 2906 616 
Q 2728 306 2450 153 
Q 2172 0 1784 0 
Q 1141 0 747 490 
Q 353 981 353 1791 
Q 353 2603 747 3093 
Q 1141 3584 1784 3584 
Q 2172 3584 2450 3431 
Q 2728 3278 2906 2969 
L 2906 3500 
L 3481 3500 
L 3481 434 
z
" transform="scale(0.015625)"/>
      <path id="DejaVuSans-3e" d="M 678 3150 
L 678 3719 
L 4684 2266 
L 4684 1747 
L 678 294 
L 678 863 
L 3897 2003 
L 678 3150 
z
" transform="scale(0.015625)"/>
      <path id="DejaVuSans-57" d="M 213 4666 
L 850 4666 
L 1831 722 
L 2809 4666 
L 3519 4666 
L 4500 722 
L 5478 4666 
L 6119 4666 
L 4947 0 
L 4153 0 
L 3169 4050 
L 2175 0 
L 1381 0 
L 213 4666 
z
" transform="scale(0.015625)"/>
      <path id="DejaVuSans-6b" d="M 581 4863 
L 1159 4863 
L 1159 1991 
L 2875 3500 
L 3609 3500 
L 1753 1863 
L 3688 0 
L 2938 0 
L 1159 1709 
L 1159 0 
L 581 0 
L 581 4863 
z
" transform="scale(0.015625)"/>
      <path id="DejaVuSans-29" d="M 513 4856 
L 1013 4856 
Q 1481 4119 1714 3412 
Q 1947 2706 1947 2009 
Q 1947 1309 1714 600 
Q 1481 -109 1013 -844 
L 513 -844 
Q 928 -128 1133 580 
Q 1338 1288 1338 2009 
Q 1338 2731 1133 3434 
Q 928 4138 513 4856 
z
" transform="scale(0.015625)"/>
     </defs>
     <use xlink:href="#DejaVuSans-45"/>
     <use xlink:href="#DejaVuSans-6e" x="63.183594"/>
     <use xlink:href="#DejaVuSans-74" x="126.5625"/>
     <use xlink:href="#DejaVuSans-65" x="165.771484"/>
     <use xlink:href="#DejaVuSans-72" x="227.294922"/>
     <use xlink:href="#DejaVuSans-70" x="268.408203"/>
     <use xlink:href="#DejaVuSans-72" x="331.884766"/>
     <use xlink:href="#DejaVuSans-69" x="372.998047"/>
     <use xlink:href="#DejaVuSans-73" x="400.78125"/>
     <use xlink:href="#DejaVuSans-65" x="452.880859"/>
     <use xlink:href="#DejaVuSans-20" x="514.404297"/>
     <use xlink:href="#DejaVuSans-4c" x="546.191406"/>
     <use xlink:href="#DejaVuSans-69" x="601.904297"/>
     <use xlink:href="#DejaVuSans-6e" x="629.6875"/>
     <use xlink:href="#DejaVuSans-75" x="693.066406"/>
     <use xlink:href="#DejaVuSans-78" x="756.445312"/>
     <use xlink:href="#DejaVuSans-20" x="815.625"/>
     <use xlink:href="#DejaVuSans-38" x="847.412109"/>
     <use xlink:href="#DejaVuSans-20" x="911.035156"/>
     <use xlink:href="#DejaVuSans-61" x="942.822266"/>
     <use xlink:href="#DejaVuSans-6e" x="1004.101562"/>
     <use xlink:href="#DejaVuSans-64" x="1067.480469"/>
     <use xlink:href="#DejaVuSans-20" x="1130.957031"/>
     <use xlink:href="#DejaVuSans-39" x="1162.744141"/>
     <use xlink:href="#DejaVuSans-20" x="1226.367188"/>
     <use xlink:href="#DejaVuSans-49" x="1258.154297"/>
     <use xlink:href="#DejaVuSans-6e" x="1287.646484"/>
     <use xlink:href="#DejaVuSans-73" x="1351.025391"/>
     <use xlink:href="#DejaVuSans-74" x="1403.125"/>
     <use xlink:href="#DejaVuSans-61" x="1442.333984"/>
     <use xlink:href="#DejaVuSans-6e" x="1503.613281"/>
     <use xlink:href="#DejaVuSans-63" x="1566.992188"/>
     <use xlink:href="#DejaVuSans-65" x="1621.972656"/>
     <use xlink:href="#DejaVuSans-73" x="1683.496094"/>
     <use xlink:href="#DejaVuSans-20" x="1735.595703"/>
     <use xlink:href="#DejaVuSans-62" x="1767.382812"/>
     <use xlink:href="#DejaVuSans-79" x="1830.859375"/>
     <use xlink:href="#DejaVuSans-20" x="1890.039062"/>
     <use xlink:href="#DejaVuSans-44" x="1921.826172"/>
     <use xlink:href="#DejaVuSans-69" x="1998.828125"/>
     <use xlink:href="#DejaVuSans-73" x="2026.611328"/>
     <use xlink:href="#DejaVuSans-74" x="2078.710938"/>
     <use xlink:href="#DejaVuSans-72" x="2117.919922"/>
     <use xlink:href="#DejaVuSans-69" x="2159.033203"/>
     <use xlink:href="#DejaVuSans-62" x="2186.816406"/>
     <use xlink:href="#DejaVuSans-75" x="2250.292969"/>
     <use xlink:href="#DejaVuSans-74" x="2313.671875"/>
     <use xlink:href="#DejaVuSans-69" x="2352.880859"/>
     <use xlink:href="#DejaVuSans-6f" x="2380.664062"/>
     <use xlink:href="#DejaVuSans-6e" x="2441.845703"/>
     <use xlink:href="#DejaVuSans-20" x="2505.224609"/>
     <use xlink:href="#DejaVuSans-53" x="2537.011719"/>
     <use xlink:href="#DejaVuSans-68" x="2600.488281"/>
     <use xlink:href="#DejaVuSans-61" x="2663.867188"/>
     <use xlink:href="#DejaVuSans-72" x="2725.146484"/>
     <use xlink:href="#DejaVuSans-65" x="2764.009766"/>
     <use xlink:href="#DejaVuSans-20" x="2825.533203"/>
     <use xlink:href="#DejaVuSans-28" x="2857.320312"/>
     <use xlink:href="#DejaVuSans-53" x="2896.333984"/>
     <use xlink:href="#DejaVuSans-79" x="2959.810547"/>
     <use xlink:href="#DejaVuSans-73" x="3018.990234"/>
     <use xlink:href="#DejaVuSans-74" x="3071.089844"/>
     <use xlink:href="#DejaVuSans-65" x="3110.298828"/>
     <use xlink:href="#DejaVuSans-6d" x="3171.822266"/>
     <use xlink:href="#DejaVuSans-20" x="3269.234375"/>
     <use xlink:href="#DejaVuSans-41" x="3301.021484"/>
     <use xlink:href="#DejaVuSans-67" x="3369.429688"/>
     <use xlink:href="#DejaVuSans-65" x="3432.90625"/>
     <use xlink:href="#DejaVuSans-20" x="3494.429688"/>
     <use xlink:href="#DejaVuSans-3e" x="3526.216797"/>
     <use xlink:href="#DejaVuSans-20" x="3610.005859"/>
     <use xlink:href="#DejaVuSans-31" x="3641.792969"/>
     <use xlink:href="#DejaVuSans-20" x="3705.416016"/>
     <use xlink:href="#DejaVuSans-57" x="3737.203125"/>
     <use xlink:href="#DejaVuSans-65" x="3830.205078"/>
     <use xlink:href="#DejaVuSans-65" x="3891.728516"/>
     <use xlink:href="#DejaVuSans-6b" x="3953.251953"/>
     <use xlink:href="#DejaVuSans-29" x="4011.162109"/>
    </g>
   </g>
   <g id="text_23">
    <!-- 2023-12-28 11:54 UTC -->
    <g transform="translate(792.041375 18.14175)scale(0.144 -0.144)">
     <defs>
      <path id="DejaVuSans-3a" d="M 750 794 
L 1409 794 
L 1409 0 
L 750 0 
L 750 794 
z
M 750 3309 
L 1409 3309 
L 1409 2516 
L 750 2516 
L 750 3309 
z
" transform="scale(0.015625)"/>
      <path id="DejaVuSans-55" d="M 556 4666 
L 1191 4666 
L 1191 1831 
Q 1191 1081 1462 751 
Q 1734 422 2344 422 
Q 2950 422 3222 751 
Q 3494 1081 3494 1831 
L 3494 4666 
L 4128 4666 
L 4128 1753 
Q 4128 841 3676 375 
Q 3225 -91 2344 -91 
Q 1459 -91 1007 375 
Q 556 841 556 1753 
L 556 4666 
z
" transform="scale(0.015625)"/>
      <path id="DejaVuSans-54" d="M -19 4666 
L 3928 4666 
L 3928 4134 
L 2272 4134 
L 2272 0 
L 1638 0 
L 1638 4134 
L -19 4134 
L -19 4666 
z
" transform="scale(0.015625)"/>
      <path id="DejaVuSans-43" d="M 4122 4306 
L 4122 3641 
Q 3803 3938 3442 4084 
Q 3081 4231 2675 4231 
Q 1875 4231 1450 3742 
Q 1025 3253 1025 2328 
Q 1025 1406 1450 917 
Q 1875 428 2675 428 
Q 3081 428 3442 575 
Q 3803 722 4122 1019 
L 4122 359 
Q 3791 134 3420 21 
Q 3050 -91 2638 -91 
Q 1578 -91 968 557 
Q 359 1206 359 2328 
Q 359 3453 968 4101 
Q 1578 4750 2638 4750 
Q 3056 4750 3426 4639 
Q 3797 4528 4122 4306 
z
" transform="scale(0.015625)"/>
     </defs>
     <use xlink:href="#DejaVuSans-32"/>
     <use xlink:href="#DejaVuSans-30" x="63.623047"/>
     <use xlink:href="#DejaVuSans-32" x="127.246094"/>
     <use xlink:href="#DejaVuSans-33" x="190.869141"/>
     <use xlink:href="#DejaVuSans-2d" x="254.492188"/>
     <use xlink:href="#DejaVuSans-31" x="290.576172"/>
     <use xlink:href="#DejaVuSans-32" x="354.199219"/>
     <use xlink:href="#DejaVuSans-2d" x="417.822266"/>
     <use xlink:href="#DejaVuSans-32" x="453.90625"/>
     <use xlink:href="#DejaVuSans-38" x="517.529297"/>
     <use xlink:href="#DejaVuSans-20" x="581.152344"/>
     <use xlink:href="#DejaVuSans-31" x="612.939453"/>
     <use xlink:href="#DejaVuSans-31" x="676.5625"/>
     <use xlink:href="#DejaVuSans-3a" x="740.185547"/>
     <use xlink:href="#DejaVuSans-35" x="773.876953"/>
     <use xlink:href="#DejaVuSans-34" x="837.5"/>
     <use xlink:href="#DejaVuSans-20" x="901.123047"/>
     <use xlink:href="#DejaVuSans-55" x="932.910156"/>
     <use xlink:href="#DejaVuSans-54" x="1006.103516"/>
     <use xlink:href="#DejaVuSans-43" x="1061.3125"/>
    </g>
   </g>
   <g id="legend_1">
    <g id="patch_7">
     <path d="M 449.017 134.888625 
L 557.98575 134.888625 
Q 559.98575 134.888625 559.98575 132.888625 
L 559.98575 31.14175 
Q 559.98575 29.14175 557.98575 29.14175 
L 449.017 29.14175 
Q 447.017 29.14175 447.017 31.14175 
L 447.017 132.888625 
Q 447.017 134.888625 449.017 134.888625 
z
" style="fill: #e5e5e5; opacity: 0.8; stroke: #cccccc; stroke-width: 0.5; stroke-linejoin: miter"/>
    </g>
    <g id="text_24">
     <!-- Distribution -->
     <g transform="translate(474.332625 40.740187)scale(0.1 -0.1)">
      <use xlink:href="#DejaVuSans-44"/>
      <use xlink:href="#DejaVuSans-69" x="77.001953"/>
      <use xlink:href="#DejaVuSans-73" x="104.785156"/>
      <use xlink:href="#DejaVuSans-74" x="156.884766"/>
      <use xlink:href="#DejaVuSans-72" x="196.09375"/>
      <use xlink:href="#DejaVuSans-69" x="237.207031"/>
      <use xlink:href="#DejaVuSans-62" x="264.990234"/>
      <use xlink:href="#DejaVuSans-75" x="328.466797"/>
      <use xlink:href="#DejaVuSans-74" x="391.845703"/>
      <use xlink:href="#DejaVuSans-69" x="431.054688"/>
      <use xlink:href="#DejaVuSans-6f" x="458.837891"/>
      <use xlink:href="#DejaVuSans-6e" x="520.019531"/>
     </g>
    </g>
    <g id="line2d_51">
     <path d="M 451.017 51.918312 
L 461.017 51.918312 
L 471.017 51.918312 
" style="fill: none; stroke: #4ac1fa; stroke-width: 1.5; stroke-linecap: square"/>
    </g>
    <g id="text_25">
     <!-- AlmaLinux -->
     <g transform="translate(479.017 55.418312)scale(0.1 -0.1)">
      <defs>
       <path id="DejaVuSans-6c" d="M 603 4863 
L 1178 4863 
L 1178 0 
L 603 0 
L 603 4863 
z
" transform="scale(0.015625)"/>
      </defs>
      <use xlink:href="#DejaVuSans-41"/>
      <use xlink:href="#DejaVuSans-6c" x="68.408203"/>
      <use xlink:href="#DejaVuSans-6d" x="96.191406"/>
      <use xlink:href="#DejaVuSans-61" x="193.603516"/>
      <use xlink:href="#DejaVuSans-4c" x="254.882812"/>
      <use xlink:href="#DejaVuSans-69" x="310.595703"/>
      <use xlink:href="#DejaVuSans-6e" x="338.378906"/>
      <use xlink:href="#DejaVuSans-75" x="401.757812"/>
      <use xlink:href="#DejaVuSans-78" x="465.136719"/>
     </g>
    </g>
    <g id="line2d_52">
     <path d="M 451.017 66.596437 
L 461.017 66.596437 
L 471.017 66.596437 
" style="fill: none; stroke: #e9a942; stroke-width: 1.5; stroke-linecap: square"/>
    </g>
    <g id="text_26">
     <!-- CentOS Legacy -->
     <g transform="translate(479.017 70.096437)scale(0.1 -0.1)">
      <defs>
       <path id="DejaVuSans-4f" d="M 2522 4238 
Q 1834 4238 1429 3725 
Q 1025 3213 1025 2328 
Q 1025 1447 1429 934 
Q 1834 422 2522 422 
Q 3209 422 3611 934 
Q 4013 1447 4013 2328 
Q 4013 3213 3611 3725 
Q 3209 4238 2522 4238 
z
M 2522 4750 
Q 3503 4750 4090 4092 
Q 4678 3434 4678 2328 
Q 4678 1225 4090 567 
Q 3503 -91 2522 -91 
Q 1538 -91 948 565 
Q 359 1222 359 2328 
Q 359 3434 948 4092 
Q 1538 4750 2522 4750 
z
" transform="scale(0.015625)"/>
      </defs>
      <use xlink:href="#DejaVuSans-43"/>
      <use xlink:href="#DejaVuSans-65" x="69.824219"/>
      <use xlink:href="#DejaVuSans-6e" x="131.347656"/>
      <use xlink:href="#DejaVuSans-74" x="194.726562"/>
      <use xlink:href="#DejaVuSans-4f" x="233.935547"/>
      <use xlink:href="#DejaVuSans-53" x="312.646484"/>
      <use xlink:href="#DejaVuSans-20" x="376.123047"/>
      <use xlink:href="#DejaVuSans-4c" x="407.910156"/>
      <use xlink:href="#DejaVuSans-65" x="461.873047"/>
      <use xlink:href="#DejaVuSans-67" x="523.396484"/>
      <use xlink:href="#DejaVuSans-61" x="586.873047"/>
      <use xlink:href="#DejaVuSans-63" x="648.152344"/>
      <use xlink:href="#DejaVuSans-79" x="703.132812"/>
     </g>
    </g>
    <g id="line2d_53">
     <path d="M 451.017 81.274563 
L 461.017 81.274563 
L 471.017 81.274563 
" style="fill: none; stroke: #9a5689; stroke-width: 1.5; stroke-linecap: square"/>
    </g>
    <g id="text_27">
     <!-- CentOS Stream -->
     <g transform="translate(479.017 84.774563)scale(0.1 -0.1)">
      <use xlink:href="#DejaVuSans-43"/>
      <use xlink:href="#DejaVuSans-65" x="69.824219"/>
      <use xlink:href="#DejaVuSans-6e" x="131.347656"/>
      <use xlink:href="#DejaVuSans-74" x="194.726562"/>
      <use xlink:href="#DejaVuSans-4f" x="233.935547"/>
      <use xlink:href="#DejaVuSans-53" x="312.646484"/>
      <use xlink:href="#DejaVuSans-20" x="376.123047"/>
      <use xlink:href="#DejaVuSans-53" x="407.910156"/>
      <use xlink:href="#DejaVuSans-74" x="471.386719"/>
      <use xlink:href="#DejaVuSans-72" x="510.595703"/>
      <use xlink:href="#DejaVuSans-65" x="549.458984"/>
      <use xlink:href="#DejaVuSans-61" x="610.982422"/>
      <use xlink:href="#DejaVuSans-6d" x="672.261719"/>
     </g>
    </g>
    <g id="line2d_54">
     <path d="M 451.017 95.952687 
L 461.017 95.952687 
L 471.017 95.952687 
" style="fill: none; stroke: #be503b; stroke-width: 1.5; stroke-linecap: square"/>
    </g>
    <g id="text_28">
     <!-- Oracle -->
     <g transform="translate(479.017 99.452687)scale(0.1 -0.1)">
      <use xlink:href="#DejaVuSans-4f"/>
      <use xlink:href="#DejaVuSans-72" x="78.710938"/>
      <use xlink:href="#DejaVuSans-61" x="119.824219"/>
      <use xlink:href="#DejaVuSans-63" x="181.103516"/>
      <use xlink:href="#DejaVuSans-6c" x="236.083984"/>
      <use xlink:href="#DejaVuSans-65" x="263.867188"/>
     </g>
    </g>
    <g id="line2d_55">
     <path d="M 451.017 110.630812 
L 461.017 110.630812 
L 471.017 110.630812 
" style="fill: none; stroke: #e2321d; stroke-width: 1.5; stroke-linecap: square"/>
    </g>
    <g id="text_29">
     <!-- RHEL -->
     <g transform="translate(479.017 114.130812)scale(0.1 -0.1)">
      <defs>
       <path id="DejaVuSans-52" d="M 2841 2188 
Q 3044 2119 3236 1894 
Q 3428 1669 3622 1275 
L 4263 0 
L 3584 0 
L 2988 1197 
Q 2756 1666 2539 1819 
Q 2322 1972 1947 1972 
L 1259 1972 
L 1259 0 
L 628 0 
L 628 4666 
L 2053 4666 
Q 2853 4666 3247 4331 
Q 3641 3997 3641 3322 
Q 3641 2881 3436 2590 
Q 3231 2300 2841 2188 
z
M 1259 4147 
L 1259 2491 
L 2053 2491 
Q 2509 2491 2742 2702 
Q 2975 2913 2975 3322 
Q 2975 3731 2742 3939 
Q 2509 4147 2053 4147 
L 1259 4147 
z
" transform="scale(0.015625)"/>
       <path id="DejaVuSans-48" d="M 628 4666 
L 1259 4666 
L 1259 2753 
L 3553 2753 
L 3553 4666 
L 4184 4666 
L 4184 0 
L 3553 0 
L 3553 2222 
L 1259 2222 
L 1259 0 
L 628 0 
L 628 4666 
z
" transform="scale(0.015625)"/>
      </defs>
      <use xlink:href="#DejaVuSans-52"/>
      <use xlink:href="#DejaVuSans-48" x="69.482422"/>
      <use xlink:href="#DejaVuSans-45" x="144.677734"/>
      <use xlink:href="#DejaVuSans-4c" x="207.861328"/>
     </g>
    </g>
    <g id="line2d_56">
     <path d="M 451.017 125.308937 
L 461.017 125.308937 
L 471.017 125.308937 
" style="fill: none; stroke: #48b585; stroke-width: 6; stroke-linecap: square"/>
    </g>
    <g id="text_30">
     <!-- Rocky Linux -->
     <g transform="translate(479.017 128.808937)scale(0.1 -0.1)">
      <use xlink:href="#DejaVuSans-52"/>
      <use xlink:href="#DejaVuSans-6f" x="64.982422"/>
      <use xlink:href="#DejaVuSans-63" x="126.164062"/>
      <use xlink:href="#DejaVuSans-6b" x="181.144531"/>
      <use xlink:href="#DejaVuSans-79" x="235.429688"/>
      <use xlink:href="#DejaVuSans-20" x="294.609375"/>
      <use xlink:href="#DejaVuSans-4c" x="326.396484"/>
      <use xlink:href="#DejaVuSans-69" x="382.109375"/>
      <use xlink:href="#DejaVuSans-6e" x="409.892578"/>
      <use xlink:href="#DejaVuSans-75" x="473.271484"/>
      <use xlink:href="#DejaVuSans-78" x="536.650391"/>
     </g>
    </g>
   </g>
  </g>
 </g>
 <defs>
  <clipPath id="pfc6b9da87d">
   <rect x="52.079375" y="24.14175" width="902.844" height="543.6"/>
  </clipPath>
 </defs>
</svg>
