<?xml version="1.0" encoding="utf-8" standalone="no"?>
<!DOCTYPE svg PUBLIC "-//W3C//DTD SVG 1.1//EN"
  "http://www.w3.org/Graphics/SVG/1.1/DTD/svg11.dtd">
<svg xmlns:xlink="http://www.w3.org/1999/xlink" width="977.770955pt" height="644.743878pt" viewBox="0 0 977.770955 644.743878" xmlns="http://www.w3.org/2000/svg" version="1.1">
 <metadata>
  <rdf:RDF xmlns:dc="http://purl.org/dc/elements/1.1/" xmlns:cc="http://creativecommons.org/ns#" xmlns:rdf="http://www.w3.org/1999/02/22-rdf-syntax-ns#">
   <cc:Work>
    <dc:type rdf:resource="http://purl.org/dc/dcmitype/StillImage"/>
    <dc:date>2025-02-06T11:54:54.607613</dc:date>
    <dc:format>image/svg+xml</dc:format>
    <dc:creator>
     <cc:Agent>
      <dc:title>Matplotlib v3.6.3, https://matplotlib.org/</dc:title>
     </cc:Agent>
    </dc:creator>
   </cc:Work>
  </rdf:RDF>
 </metadata>
 <defs>
  <style type="text/css">*{stroke-linejoin: round; stroke-linecap: butt}</style>
 </defs>
 <g id="figure_1">
  <g id="patch_1">
   <path d="M 0 644.743878 
L 977.770955 644.743878 
L 977.770955 0 
L 0 0 
z
" style="fill: #ffffff"/>
  </g>
  <g id="axes_1">
   <g id="patch_2">
    <path d="M 54.691875 578.54175 
L 957.535875 578.54175 
L 957.535875 24.14175 
L 54.691875 24.14175 
z
" style="fill: #e5e5e5"/>
   </g>
   <g id="matplotlib.axis_1">
    <g id="xtick_1">
     <g id="line2d_1">
      <path d="M 88.226081 578.54175 
L 88.226081 24.14175 
" clip-path="url(#pf432051dcd)" style="fill: none; stroke: #ffffff; stroke-width: 0.8; stroke-linecap: square"/>
     </g>
     <g id="line2d_2">
      <defs>
       <path id="m28d58f720b" d="M 0 0 
L 0 3.5 
" style="stroke: #555555; stroke-width: 0.8"/>
      </defs>
      <g>
       <use xlink:href="#m28d58f720b" x="88.226081" y="578.54175" style="fill: #555555; stroke: #555555; stroke-width: 0.8"/>
      </g>
     </g>
     <g id="text_1">
      <!-- 2024-02 -->
      <g style="fill: #555555" transform="translate(75.404798 620.459567) rotate(-45) scale(0.1 -0.1)">
       <defs>
        <path id="DejaVuSans-32" d="M 1228 531 
L 3431 531 
L 3431 0 
L 469 0 
L 469 531 
Q 828 903 1448 1529 
Q 2069 2156 2228 2338 
Q 2531 2678 2651 2914 
Q 2772 3150 2772 3378 
Q 2772 3750 2511 3984 
Q 2250 4219 1831 4219 
Q 1534 4219 1204 4116 
Q 875 4013 500 3803 
L 500 4441 
Q 881 4594 1212 4672 
Q 1544 4750 1819 4750 
Q 2544 4750 2975 4387 
Q 3406 4025 3406 3419 
Q 3406 3131 3298 2873 
Q 3191 2616 2906 2266 
Q 2828 2175 2409 1742 
Q 1991 1309 1228 531 
z
" transform="scale(0.015625)"/>
        <path id="DejaVuSans-30" d="M 2034 4250 
Q 1547 4250 1301 3770 
Q 1056 3291 1056 2328 
Q 1056 1369 1301 889 
Q 1547 409 2034 409 
Q 2525 409 2770 889 
Q 3016 1369 3016 2328 
Q 3016 3291 2770 3770 
Q 2525 4250 2034 4250 
z
M 2034 4750 
Q 2819 4750 3233 4129 
Q 3647 3509 3647 2328 
Q 3647 1150 3233 529 
Q 2819 -91 2034 -91 
Q 1250 -91 836 529 
Q 422 1150 422 2328 
Q 422 3509 836 4129 
Q 1250 4750 2034 4750 
z
" transform="scale(0.015625)"/>
        <path id="DejaVuSans-34" d="M 2419 4116 
L 825 1625 
L 2419 1625 
L 2419 4116 
z
M 2253 4666 
L 3047 4666 
L 3047 1625 
L 3713 1625 
L 3713 1100 
L 3047 1100 
L 3047 0 
L 2419 0 
L 2419 1100 
L 313 1100 
L 313 1709 
L 2253 4666 
z
" transform="scale(0.015625)"/>
        <path id="DejaVuSans-2d" d="M 313 2009 
L 1997 2009 
L 1997 1497 
L 313 1497 
L 313 2009 
z
" transform="scale(0.015625)"/>
       </defs>
       <use xlink:href="#DejaVuSans-32"/>
       <use xlink:href="#DejaVuSans-30" x="63.623047"/>
       <use xlink:href="#DejaVuSans-32" x="127.246094"/>
       <use xlink:href="#DejaVuSans-34" x="190.869141"/>
       <use xlink:href="#DejaVuSans-2d" x="254.492188"/>
       <use xlink:href="#DejaVuSans-30" x="290.576172"/>
       <use xlink:href="#DejaVuSans-32" x="354.199219"/>
      </g>
     </g>
    </g>
    <g id="xtick_2">
     <g id="line2d_3">
      <path d="M 163.033155 578.54175 
L 163.033155 24.14175 
" clip-path="url(#pf432051dcd)" style="fill: none; stroke: #ffffff; stroke-width: 0.8; stroke-linecap: square"/>
     </g>
     <g id="line2d_4">
      <g>
       <use xlink:href="#m28d58f720b" x="163.033155" y="578.54175" style="fill: #555555; stroke: #555555; stroke-width: 0.8"/>
      </g>
     </g>
     <g id="text_2">
      <!-- 2024-03 -->
      <g style="fill: #555555" transform="translate(150.211873 620.459567) rotate(-45) scale(0.1 -0.1)">
       <defs>
        <path id="DejaVuSans-33" d="M 2597 2516 
Q 3050 2419 3304 2112 
Q 3559 1806 3559 1356 
Q 3559 666 3084 287 
Q 2609 -91 1734 -91 
Q 1441 -91 1130 -33 
Q 819 25 488 141 
L 488 750 
Q 750 597 1062 519 
Q 1375 441 1716 441 
Q 2309 441 2620 675 
Q 2931 909 2931 1356 
Q 2931 1769 2642 2001 
Q 2353 2234 1838 2234 
L 1294 2234 
L 1294 2753 
L 1863 2753 
Q 2328 2753 2575 2939 
Q 2822 3125 2822 3475 
Q 2822 3834 2567 4026 
Q 2313 4219 1838 4219 
Q 1578 4219 1281 4162 
Q 984 4106 628 3988 
L 628 4550 
Q 988 4650 1302 4700 
Q 1616 4750 1894 4750 
Q 2613 4750 3031 4423 
Q 3450 4097 3450 3541 
Q 3450 3153 3228 2886 
Q 3006 2619 2597 2516 
z
" transform="scale(0.015625)"/>
       </defs>
       <use xlink:href="#DejaVuSans-32"/>
       <use xlink:href="#DejaVuSans-30" x="63.623047"/>
       <use xlink:href="#DejaVuSans-32" x="127.246094"/>
       <use xlink:href="#DejaVuSans-34" x="190.869141"/>
       <use xlink:href="#DejaVuSans-2d" x="254.492188"/>
       <use xlink:href="#DejaVuSans-30" x="290.576172"/>
       <use xlink:href="#DejaVuSans-33" x="354.199219"/>
      </g>
     </g>
    </g>
    <g id="xtick_3">
     <g id="line2d_5">
      <path d="M 242.999338 578.54175 
L 242.999338 24.14175 
" clip-path="url(#pf432051dcd)" style="fill: none; stroke: #ffffff; stroke-width: 0.8; stroke-linecap: square"/>
     </g>
     <g id="line2d_6">
      <g>
       <use xlink:href="#m28d58f720b" x="242.999338" y="578.54175" style="fill: #555555; stroke: #555555; stroke-width: 0.8"/>
      </g>
     </g>
     <g id="text_3">
      <!-- 2024-04 -->
      <g style="fill: #555555" transform="translate(230.178056 620.459567) rotate(-45) scale(0.1 -0.1)">
       <use xlink:href="#DejaVuSans-32"/>
       <use xlink:href="#DejaVuSans-30" x="63.623047"/>
       <use xlink:href="#DejaVuSans-32" x="127.246094"/>
       <use xlink:href="#DejaVuSans-34" x="190.869141"/>
       <use xlink:href="#DejaVuSans-2d" x="254.492188"/>
       <use xlink:href="#DejaVuSans-30" x="290.576172"/>
       <use xlink:href="#DejaVuSans-34" x="354.199219"/>
      </g>
     </g>
    </g>
    <g id="xtick_4">
     <g id="line2d_7">
      <path d="M 320.385966 578.54175 
L 320.385966 24.14175 
" clip-path="url(#pf432051dcd)" style="fill: none; stroke: #ffffff; stroke-width: 0.8; stroke-linecap: square"/>
     </g>
     <g id="line2d_8">
      <g>
       <use xlink:href="#m28d58f720b" x="320.385966" y="578.54175" style="fill: #555555; stroke: #555555; stroke-width: 0.8"/>
      </g>
     </g>
     <g id="text_4">
      <!-- 2024-05 -->
      <g style="fill: #555555" transform="translate(307.564684 620.459567) rotate(-45) scale(0.1 -0.1)">
       <defs>
        <path id="DejaVuSans-35" d="M 691 4666 
L 3169 4666 
L 3169 4134 
L 1269 4134 
L 1269 2991 
Q 1406 3038 1543 3061 
Q 1681 3084 1819 3084 
Q 2600 3084 3056 2656 
Q 3513 2228 3513 1497 
Q 3513 744 3044 326 
Q 2575 -91 1722 -91 
Q 1428 -91 1123 -41 
Q 819 9 494 109 
L 494 744 
Q 775 591 1075 516 
Q 1375 441 1709 441 
Q 2250 441 2565 725 
Q 2881 1009 2881 1497 
Q 2881 1984 2565 2268 
Q 2250 2553 1709 2553 
Q 1456 2553 1204 2497 
Q 953 2441 691 2322 
L 691 4666 
z
" transform="scale(0.015625)"/>
       </defs>
       <use xlink:href="#DejaVuSans-32"/>
       <use xlink:href="#DejaVuSans-30" x="63.623047"/>
       <use xlink:href="#DejaVuSans-32" x="127.246094"/>
       <use xlink:href="#DejaVuSans-34" x="190.869141"/>
       <use xlink:href="#DejaVuSans-2d" x="254.492188"/>
       <use xlink:href="#DejaVuSans-30" x="290.576172"/>
       <use xlink:href="#DejaVuSans-35" x="354.199219"/>
      </g>
     </g>
    </g>
    <g id="xtick_5">
     <g id="line2d_9">
      <path d="M 400.352149 578.54175 
L 400.352149 24.14175 
" clip-path="url(#pf432051dcd)" style="fill: none; stroke: #ffffff; stroke-width: 0.8; stroke-linecap: square"/>
     </g>
     <g id="line2d_10">
      <g>
       <use xlink:href="#m28d58f720b" x="400.352149" y="578.54175" style="fill: #555555; stroke: #555555; stroke-width: 0.8"/>
      </g>
     </g>
     <g id="text_5">
      <!-- 2024-06 -->
      <g style="fill: #555555" transform="translate(387.530867 620.459567) rotate(-45) scale(0.1 -0.1)">
       <defs>
        <path id="DejaVuSans-36" d="M 2113 2584 
Q 1688 2584 1439 2293 
Q 1191 2003 1191 1497 
Q 1191 994 1439 701 
Q 1688 409 2113 409 
Q 2538 409 2786 701 
Q 3034 994 3034 1497 
Q 3034 2003 2786 2293 
Q 2538 2584 2113 2584 
z
M 3366 4563 
L 3366 3988 
Q 3128 4100 2886 4159 
Q 2644 4219 2406 4219 
Q 1781 4219 1451 3797 
Q 1122 3375 1075 2522 
Q 1259 2794 1537 2939 
Q 1816 3084 2150 3084 
Q 2853 3084 3261 2657 
Q 3669 2231 3669 1497 
Q 3669 778 3244 343 
Q 2819 -91 2113 -91 
Q 1303 -91 875 529 
Q 447 1150 447 2328 
Q 447 3434 972 4092 
Q 1497 4750 2381 4750 
Q 2619 4750 2861 4703 
Q 3103 4656 3366 4563 
z
" transform="scale(0.015625)"/>
       </defs>
       <use xlink:href="#DejaVuSans-32"/>
       <use xlink:href="#DejaVuSans-30" x="63.623047"/>
       <use xlink:href="#DejaVuSans-32" x="127.246094"/>
       <use xlink:href="#DejaVuSans-34" x="190.869141"/>
       <use xlink:href="#DejaVuSans-2d" x="254.492188"/>
       <use xlink:href="#DejaVuSans-30" x="290.576172"/>
       <use xlink:href="#DejaVuSans-36" x="354.199219"/>
      </g>
     </g>
    </g>
    <g id="xtick_6">
     <g id="line2d_11">
      <path d="M 477.738778 578.54175 
L 477.738778 24.14175 
" clip-path="url(#pf432051dcd)" style="fill: none; stroke: #ffffff; stroke-width: 0.8; stroke-linecap: square"/>
     </g>
     <g id="line2d_12">
      <g>
       <use xlink:href="#m28d58f720b" x="477.738778" y="578.54175" style="fill: #555555; stroke: #555555; stroke-width: 0.8"/>
      </g>
     </g>
     <g id="text_6">
      <!-- 2024-07 -->
      <g style="fill: #555555" transform="translate(464.917496 620.459567) rotate(-45) scale(0.1 -0.1)">
       <defs>
        <path id="DejaVuSans-37" d="M 525 4666 
L 3525 4666 
L 3525 4397 
L 1831 0 
L 1172 0 
L 2766 4134 
L 525 4134 
L 525 4666 
z
" transform="scale(0.015625)"/>
       </defs>
       <use xlink:href="#DejaVuSans-32"/>
       <use xlink:href="#DejaVuSans-30" x="63.623047"/>
       <use xlink:href="#DejaVuSans-32" x="127.246094"/>
       <use xlink:href="#DejaVuSans-34" x="190.869141"/>
       <use xlink:href="#DejaVuSans-2d" x="254.492188"/>
       <use xlink:href="#DejaVuSans-30" x="290.576172"/>
       <use xlink:href="#DejaVuSans-37" x="354.199219"/>
      </g>
     </g>
    </g>
    <g id="xtick_7">
     <g id="line2d_13">
      <path d="M 557.704961 578.54175 
L 557.704961 24.14175 
" clip-path="url(#pf432051dcd)" style="fill: none; stroke: #ffffff; stroke-width: 0.8; stroke-linecap: square"/>
     </g>
     <g id="line2d_14">
      <g>
       <use xlink:href="#m28d58f720b" x="557.704961" y="578.54175" style="fill: #555555; stroke: #555555; stroke-width: 0.8"/>
      </g>
     </g>
     <g id="text_7">
      <!-- 2024-08 -->
      <g style="fill: #555555" transform="translate(544.883678 620.459567) rotate(-45) scale(0.1 -0.1)">
       <defs>
        <path id="DejaVuSans-38" d="M 2034 2216 
Q 1584 2216 1326 1975 
Q 1069 1734 1069 1313 
Q 1069 891 1326 650 
Q 1584 409 2034 409 
Q 2484 409 2743 651 
Q 3003 894 3003 1313 
Q 3003 1734 2745 1975 
Q 2488 2216 2034 2216 
z
M 1403 2484 
Q 997 2584 770 2862 
Q 544 3141 544 3541 
Q 544 4100 942 4425 
Q 1341 4750 2034 4750 
Q 2731 4750 3128 4425 
Q 3525 4100 3525 3541 
Q 3525 3141 3298 2862 
Q 3072 2584 2669 2484 
Q 3125 2378 3379 2068 
Q 3634 1759 3634 1313 
Q 3634 634 3220 271 
Q 2806 -91 2034 -91 
Q 1263 -91 848 271 
Q 434 634 434 1313 
Q 434 1759 690 2068 
Q 947 2378 1403 2484 
z
M 1172 3481 
Q 1172 3119 1398 2916 
Q 1625 2713 2034 2713 
Q 2441 2713 2670 2916 
Q 2900 3119 2900 3481 
Q 2900 3844 2670 4047 
Q 2441 4250 2034 4250 
Q 1625 4250 1398 4047 
Q 1172 3844 1172 3481 
z
" transform="scale(0.015625)"/>
       </defs>
       <use xlink:href="#DejaVuSans-32"/>
       <use xlink:href="#DejaVuSans-30" x="63.623047"/>
       <use xlink:href="#DejaVuSans-32" x="127.246094"/>
       <use xlink:href="#DejaVuSans-34" x="190.869141"/>
       <use xlink:href="#DejaVuSans-2d" x="254.492188"/>
       <use xlink:href="#DejaVuSans-30" x="290.576172"/>
       <use xlink:href="#DejaVuSans-38" x="354.199219"/>
      </g>
     </g>
    </g>
    <g id="xtick_8">
     <g id="line2d_15">
      <path d="M 637.671144 578.54175 
L 637.671144 24.14175 
" clip-path="url(#pf432051dcd)" style="fill: none; stroke: #ffffff; stroke-width: 0.8; stroke-linecap: square"/>
     </g>
     <g id="line2d_16">
      <g>
       <use xlink:href="#m28d58f720b" x="637.671144" y="578.54175" style="fill: #555555; stroke: #555555; stroke-width: 0.8"/>
      </g>
     </g>
     <g id="text_8">
      <!-- 2024-09 -->
      <g style="fill: #555555" transform="translate(624.849861 620.459567) rotate(-45) scale(0.1 -0.1)">
       <defs>
        <path id="DejaVuSans-39" d="M 703 97 
L 703 672 
Q 941 559 1184 500 
Q 1428 441 1663 441 
Q 2288 441 2617 861 
Q 2947 1281 2994 2138 
Q 2813 1869 2534 1725 
Q 2256 1581 1919 1581 
Q 1219 1581 811 2004 
Q 403 2428 403 3163 
Q 403 3881 828 4315 
Q 1253 4750 1959 4750 
Q 2769 4750 3195 4129 
Q 3622 3509 3622 2328 
Q 3622 1225 3098 567 
Q 2575 -91 1691 -91 
Q 1453 -91 1209 -44 
Q 966 3 703 97 
z
M 1959 2075 
Q 2384 2075 2632 2365 
Q 2881 2656 2881 3163 
Q 2881 3666 2632 3958 
Q 2384 4250 1959 4250 
Q 1534 4250 1286 3958 
Q 1038 3666 1038 3163 
Q 1038 2656 1286 2365 
Q 1534 2075 1959 2075 
z
" transform="scale(0.015625)"/>
       </defs>
       <use xlink:href="#DejaVuSans-32"/>
       <use xlink:href="#DejaVuSans-30" x="63.623047"/>
       <use xlink:href="#DejaVuSans-32" x="127.246094"/>
       <use xlink:href="#DejaVuSans-34" x="190.869141"/>
       <use xlink:href="#DejaVuSans-2d" x="254.492188"/>
       <use xlink:href="#DejaVuSans-30" x="290.576172"/>
       <use xlink:href="#DejaVuSans-39" x="354.199219"/>
      </g>
     </g>
    </g>
    <g id="xtick_9">
     <g id="line2d_17">
      <path d="M 715.057772 578.54175 
L 715.057772 24.14175 
" clip-path="url(#pf432051dcd)" style="fill: none; stroke: #ffffff; stroke-width: 0.8; stroke-linecap: square"/>
     </g>
     <g id="line2d_18">
      <g>
       <use xlink:href="#m28d58f720b" x="715.057772" y="578.54175" style="fill: #555555; stroke: #555555; stroke-width: 0.8"/>
      </g>
     </g>
     <g id="text_9">
      <!-- 2024-10 -->
      <g style="fill: #555555" transform="translate(702.23649 620.459567) rotate(-45) scale(0.1 -0.1)">
       <defs>
        <path id="DejaVuSans-31" d="M 794 531 
L 1825 531 
L 1825 4091 
L 703 3866 
L 703 4441 
L 1819 4666 
L 2450 4666 
L 2450 531 
L 3481 531 
L 3481 0 
L 794 0 
L 794 531 
z
" transform="scale(0.015625)"/>
       </defs>
       <use xlink:href="#DejaVuSans-32"/>
       <use xlink:href="#DejaVuSans-30" x="63.623047"/>
       <use xlink:href="#DejaVuSans-32" x="127.246094"/>
       <use xlink:href="#DejaVuSans-34" x="190.869141"/>
       <use xlink:href="#DejaVuSans-2d" x="254.492188"/>
       <use xlink:href="#DejaVuSans-31" x="290.576172"/>
       <use xlink:href="#DejaVuSans-30" x="354.199219"/>
      </g>
     </g>
    </g>
    <g id="xtick_10">
     <g id="line2d_19">
      <path d="M 795.023955 578.54175 
L 795.023955 24.14175 
" clip-path="url(#pf432051dcd)" style="fill: none; stroke: #ffffff; stroke-width: 0.8; stroke-linecap: square"/>
     </g>
     <g id="line2d_20">
      <g>
       <use xlink:href="#m28d58f720b" x="795.023955" y="578.54175" style="fill: #555555; stroke: #555555; stroke-width: 0.8"/>
      </g>
     </g>
     <g id="text_10">
      <!-- 2024-11 -->
      <g style="fill: #555555" transform="translate(782.202673 620.459567) rotate(-45) scale(0.1 -0.1)">
       <use xlink:href="#DejaVuSans-32"/>
       <use xlink:href="#DejaVuSans-30" x="63.623047"/>
       <use xlink:href="#DejaVuSans-32" x="127.246094"/>
       <use xlink:href="#DejaVuSans-34" x="190.869141"/>
       <use xlink:href="#DejaVuSans-2d" x="254.492188"/>
       <use xlink:href="#DejaVuSans-31" x="290.576172"/>
       <use xlink:href="#DejaVuSans-31" x="354.199219"/>
      </g>
     </g>
    </g>
    <g id="xtick_11">
     <g id="line2d_21">
      <path d="M 872.410584 578.54175 
L 872.410584 24.14175 
" clip-path="url(#pf432051dcd)" style="fill: none; stroke: #ffffff; stroke-width: 0.8; stroke-linecap: square"/>
     </g>
     <g id="line2d_22">
      <g>
       <use xlink:href="#m28d58f720b" x="872.410584" y="578.54175" style="fill: #555555; stroke: #555555; stroke-width: 0.8"/>
      </g>
     </g>
     <g id="text_11">
      <!-- 2024-12 -->
      <g style="fill: #555555" transform="translate(859.589301 620.459567) rotate(-45) scale(0.1 -0.1)">
       <use xlink:href="#DejaVuSans-32"/>
       <use xlink:href="#DejaVuSans-30" x="63.623047"/>
       <use xlink:href="#DejaVuSans-32" x="127.246094"/>
       <use xlink:href="#DejaVuSans-34" x="190.869141"/>
       <use xlink:href="#DejaVuSans-2d" x="254.492188"/>
       <use xlink:href="#DejaVuSans-31" x="290.576172"/>
       <use xlink:href="#DejaVuSans-32" x="354.199219"/>
      </g>
     </g>
    </g>
    <g id="xtick_12">
     <g id="line2d_23">
      <path d="M 952.376766 578.54175 
L 952.376766 24.14175 
" clip-path="url(#pf432051dcd)" style="fill: none; stroke: #ffffff; stroke-width: 0.8; stroke-linecap: square"/>
     </g>
     <g id="line2d_24">
      <g>
       <use xlink:href="#m28d58f720b" x="952.376766" y="578.54175" style="fill: #555555; stroke: #555555; stroke-width: 0.8"/>
      </g>
     </g>
     <g id="text_12">
      <!-- 2025-01 -->
      <g style="fill: #555555" transform="translate(939.555484 620.459567) rotate(-45) scale(0.1 -0.1)">
       <use xlink:href="#DejaVuSans-32"/>
       <use xlink:href="#DejaVuSans-30" x="63.623047"/>
       <use xlink:href="#DejaVuSans-32" x="127.246094"/>
       <use xlink:href="#DejaVuSans-35" x="190.869141"/>
       <use xlink:href="#DejaVuSans-2d" x="254.492188"/>
       <use xlink:href="#DejaVuSans-30" x="290.576172"/>
       <use xlink:href="#DejaVuSans-31" x="354.199219"/>
      </g>
     </g>
    </g>
    <g id="text_13">
     <!-- Date -->
     <g style="fill: #555555" transform="translate(491.772938 635.048253) scale(0.12 -0.12)">
      <defs>
       <path id="DejaVuSans-44" d="M 1259 4147 
L 1259 519 
L 2022 519 
Q 2988 519 3436 956 
Q 3884 1394 3884 2338 
Q 3884 3275 3436 3711 
Q 2988 4147 2022 4147 
L 1259 4147 
z
M 628 4666 
L 1925 4666 
Q 3281 4666 3915 4102 
Q 4550 3538 4550 2338 
Q 4550 1131 3912 565 
Q 3275 0 1925 0 
L 628 0 
L 628 4666 
z
" transform="scale(0.015625)"/>
       <path id="DejaVuSans-61" d="M 2194 1759 
Q 1497 1759 1228 1600 
Q 959 1441 959 1056 
Q 959 750 1161 570 
Q 1363 391 1709 391 
Q 2188 391 2477 730 
Q 2766 1069 2766 1631 
L 2766 1759 
L 2194 1759 
z
M 3341 1997 
L 3341 0 
L 2766 0 
L 2766 531 
Q 2569 213 2275 61 
Q 1981 -91 1556 -91 
Q 1019 -91 701 211 
Q 384 513 384 1019 
Q 384 1609 779 1909 
Q 1175 2209 1959 2209 
L 2766 2209 
L 2766 2266 
Q 2766 2663 2505 2880 
Q 2244 3097 1772 3097 
Q 1472 3097 1187 3025 
Q 903 2953 641 2809 
L 641 3341 
Q 956 3463 1253 3523 
Q 1550 3584 1831 3584 
Q 2591 3584 2966 3190 
Q 3341 2797 3341 1997 
z
" transform="scale(0.015625)"/>
       <path id="DejaVuSans-74" d="M 1172 4494 
L 1172 3500 
L 2356 3500 
L 2356 3053 
L 1172 3053 
L 1172 1153 
Q 1172 725 1289 603 
Q 1406 481 1766 481 
L 2356 481 
L 2356 0 
L 1766 0 
Q 1100 0 847 248 
Q 594 497 594 1153 
L 594 3053 
L 172 3053 
L 172 3500 
L 594 3500 
L 594 4494 
L 1172 4494 
z
" transform="scale(0.015625)"/>
       <path id="DejaVuSans-65" d="M 3597 1894 
L 3597 1613 
L 953 1613 
Q 991 1019 1311 708 
Q 1631 397 2203 397 
Q 2534 397 2845 478 
Q 3156 559 3463 722 
L 3463 178 
Q 3153 47 2828 -22 
Q 2503 -91 2169 -91 
Q 1331 -91 842 396 
Q 353 884 353 1716 
Q 353 2575 817 3079 
Q 1281 3584 2069 3584 
Q 2775 3584 3186 3129 
Q 3597 2675 3597 1894 
z
M 3022 2063 
Q 3016 2534 2758 2815 
Q 2500 3097 2075 3097 
Q 1594 3097 1305 2825 
Q 1016 2553 972 2059 
L 3022 2063 
z
" transform="scale(0.015625)"/>
      </defs>
      <use xlink:href="#DejaVuSans-44"/>
      <use xlink:href="#DejaVuSans-61" x="77.001953"/>
      <use xlink:href="#DejaVuSans-74" x="138.28125"/>
      <use xlink:href="#DejaVuSans-65" x="177.490234"/>
     </g>
    </g>
   </g>
   <g id="matplotlib.axis_2">
    <g id="ytick_1">
     <g id="line2d_25">
      <path d="M 54.691875 578.54175 
L 957.535875 578.54175 
" clip-path="url(#pf432051dcd)" style="fill: none; stroke: #ffffff; stroke-width: 0.8; stroke-linecap: square"/>
     </g>
     <g id="line2d_26">
      <defs>
       <path id="m493f7d7574" d="M 0 0 
L -3.5 0 
" style="stroke: #555555; stroke-width: 0.8"/>
      </defs>
      <g>
       <use xlink:href="#m493f7d7574" x="54.691875" y="578.54175" style="fill: #555555; stroke: #555555; stroke-width: 0.8"/>
      </g>
     </g>
     <g id="text_14">
      <!-- 0k -->
      <g style="fill: #555555" transform="translate(35.53875 582.340969) scale(0.1 -0.1)">
       <defs>
        <path id="DejaVuSans-6b" d="M 581 4863 
L 1159 4863 
L 1159 1991 
L 2875 3500 
L 3609 3500 
L 1753 1863 
L 3688 0 
L 2938 0 
L 1159 1709 
L 1159 0 
L 581 0 
L 581 4863 
z
" transform="scale(0.015625)"/>
       </defs>
       <use xlink:href="#DejaVuSans-30"/>
       <use xlink:href="#DejaVuSans-6b" x="63.623047"/>
      </g>
     </g>
    </g>
    <g id="ytick_2">
     <g id="line2d_27">
      <path d="M 54.691875 480.359086 
L 957.535875 480.359086 
" clip-path="url(#pf432051dcd)" style="fill: none; stroke: #ffffff; stroke-width: 0.8; stroke-linecap: square"/>
     </g>
     <g id="line2d_28">
      <g>
       <use xlink:href="#m493f7d7574" x="54.691875" y="480.359086" style="fill: #555555; stroke: #555555; stroke-width: 0.8"/>
      </g>
     </g>
     <g id="text_15">
      <!-- 100k -->
      <g style="fill: #555555" transform="translate(22.81375 484.158304) scale(0.1 -0.1)">
       <use xlink:href="#DejaVuSans-31"/>
       <use xlink:href="#DejaVuSans-30" x="63.623047"/>
       <use xlink:href="#DejaVuSans-30" x="127.246094"/>
       <use xlink:href="#DejaVuSans-6b" x="190.869141"/>
      </g>
     </g>
    </g>
    <g id="ytick_3">
     <g id="line2d_29">
      <path d="M 54.691875 382.176421 
L 957.535875 382.176421 
" clip-path="url(#pf432051dcd)" style="fill: none; stroke: #ffffff; stroke-width: 0.8; stroke-linecap: square"/>
     </g>
     <g id="line2d_30">
      <g>
       <use xlink:href="#m493f7d7574" x="54.691875" y="382.176421" style="fill: #555555; stroke: #555555; stroke-width: 0.8"/>
      </g>
     </g>
     <g id="text_16">
      <!-- 200k -->
      <g style="fill: #555555" transform="translate(22.81375 385.97564) scale(0.1 -0.1)">
       <use xlink:href="#DejaVuSans-32"/>
       <use xlink:href="#DejaVuSans-30" x="63.623047"/>
       <use xlink:href="#DejaVuSans-30" x="127.246094"/>
       <use xlink:href="#DejaVuSans-6b" x="190.869141"/>
      </g>
     </g>
    </g>
    <g id="ytick_4">
     <g id="line2d_31">
      <path d="M 54.691875 283.993757 
L 957.535875 283.993757 
" clip-path="url(#pf432051dcd)" style="fill: none; stroke: #ffffff; stroke-width: 0.8; stroke-linecap: square"/>
     </g>
     <g id="line2d_32">
      <g>
       <use xlink:href="#m493f7d7574" x="54.691875" y="283.993757" style="fill: #555555; stroke: #555555; stroke-width: 0.8"/>
      </g>
     </g>
     <g id="text_17">
      <!-- 300k -->
      <g style="fill: #555555" transform="translate(22.81375 287.792976) scale(0.1 -0.1)">
       <use xlink:href="#DejaVuSans-33"/>
       <use xlink:href="#DejaVuSans-30" x="63.623047"/>
       <use xlink:href="#DejaVuSans-30" x="127.246094"/>
       <use xlink:href="#DejaVuSans-6b" x="190.869141"/>
      </g>
     </g>
    </g>
    <g id="ytick_5">
     <g id="line2d_33">
      <path d="M 54.691875 185.811092 
L 957.535875 185.811092 
" clip-path="url(#pf432051dcd)" style="fill: none; stroke: #ffffff; stroke-width: 0.8; stroke-linecap: square"/>
     </g>
     <g id="line2d_34">
      <g>
       <use xlink:href="#m493f7d7574" x="54.691875" y="185.811092" style="fill: #555555; stroke: #555555; stroke-width: 0.8"/>
      </g>
     </g>
     <g id="text_18">
      <!-- 400k -->
      <g style="fill: #555555" transform="translate(22.81375 189.610311) scale(0.1 -0.1)">
       <use xlink:href="#DejaVuSans-34"/>
       <use xlink:href="#DejaVuSans-30" x="63.623047"/>
       <use xlink:href="#DejaVuSans-30" x="127.246094"/>
       <use xlink:href="#DejaVuSans-6b" x="190.869141"/>
      </g>
     </g>
    </g>
    <g id="ytick_6">
     <g id="line2d_35">
      <path d="M 54.691875 87.628428 
L 957.535875 87.628428 
" clip-path="url(#pf432051dcd)" style="fill: none; stroke: #ffffff; stroke-width: 0.8; stroke-linecap: square"/>
     </g>
     <g id="line2d_36">
      <g>
       <use xlink:href="#m493f7d7574" x="54.691875" y="87.628428" style="fill: #555555; stroke: #555555; stroke-width: 0.8"/>
      </g>
     </g>
     <g id="text_19">
      <!-- 500k -->
      <g style="fill: #555555" transform="translate(22.81375 91.427647) scale(0.1 -0.1)">
       <use xlink:href="#DejaVuSans-35"/>
       <use xlink:href="#DejaVuSans-30" x="63.623047"/>
       <use xlink:href="#DejaVuSans-30" x="127.246094"/>
       <use xlink:href="#DejaVuSans-6b" x="190.869141"/>
      </g>
     </g>
    </g>
    <g id="text_20">
     <!-- Instances -->
     <g style="fill: #555555" transform="translate(16.318125 329.988) rotate(-90) scale(0.12 -0.12)">
      <defs>
       <path id="DejaVuSans-49" d="M 628 4666 
L 1259 4666 
L 1259 0 
L 628 0 
L 628 4666 
z
" transform="scale(0.015625)"/>
       <path id="DejaVuSans-6e" d="M 3513 2113 
L 3513 0 
L 2938 0 
L 2938 2094 
Q 2938 2591 2744 2837 
Q 2550 3084 2163 3084 
Q 1697 3084 1428 2787 
Q 1159 2491 1159 1978 
L 1159 0 
L 581 0 
L 581 3500 
L 1159 3500 
L 1159 2956 
Q 1366 3272 1645 3428 
Q 1925 3584 2291 3584 
Q 2894 3584 3203 3211 
Q 3513 2838 3513 2113 
z
" transform="scale(0.015625)"/>
       <path id="DejaVuSans-73" d="M 2834 3397 
L 2834 2853 
Q 2591 2978 2328 3040 
Q 2066 3103 1784 3103 
Q 1356 3103 1142 2972 
Q 928 2841 928 2578 
Q 928 2378 1081 2264 
Q 1234 2150 1697 2047 
L 1894 2003 
Q 2506 1872 2764 1633 
Q 3022 1394 3022 966 
Q 3022 478 2636 193 
Q 2250 -91 1575 -91 
Q 1294 -91 989 -36 
Q 684 19 347 128 
L 347 722 
Q 666 556 975 473 
Q 1284 391 1588 391 
Q 1994 391 2212 530 
Q 2431 669 2431 922 
Q 2431 1156 2273 1281 
Q 2116 1406 1581 1522 
L 1381 1569 
Q 847 1681 609 1914 
Q 372 2147 372 2553 
Q 372 3047 722 3315 
Q 1072 3584 1716 3584 
Q 2034 3584 2315 3537 
Q 2597 3491 2834 3397 
z
" transform="scale(0.015625)"/>
       <path id="DejaVuSans-63" d="M 3122 3366 
L 3122 2828 
Q 2878 2963 2633 3030 
Q 2388 3097 2138 3097 
Q 1578 3097 1268 2742 
Q 959 2388 959 1747 
Q 959 1106 1268 751 
Q 1578 397 2138 397 
Q 2388 397 2633 464 
Q 2878 531 3122 666 
L 3122 134 
Q 2881 22 2623 -34 
Q 2366 -91 2075 -91 
Q 1284 -91 818 406 
Q 353 903 353 1747 
Q 353 2603 823 3093 
Q 1294 3584 2113 3584 
Q 2378 3584 2631 3529 
Q 2884 3475 3122 3366 
z
" transform="scale(0.015625)"/>
      </defs>
      <use xlink:href="#DejaVuSans-49"/>
      <use xlink:href="#DejaVuSans-6e" x="29.492188"/>
      <use xlink:href="#DejaVuSans-73" x="92.871094"/>
      <use xlink:href="#DejaVuSans-74" x="144.970703"/>
      <use xlink:href="#DejaVuSans-61" x="184.179688"/>
      <use xlink:href="#DejaVuSans-6e" x="245.458984"/>
      <use xlink:href="#DejaVuSans-63" x="308.837891"/>
      <use xlink:href="#DejaVuSans-65" x="363.818359"/>
      <use xlink:href="#DejaVuSans-73" x="425.341797"/>
     </g>
    </g>
   </g>
   <g id="line2d_37">
    <path d="M 54.691875 487.056333 
L 63.811511 486.085014 
L 72.931148 485.113695 
L 82.050784 484.142376 
L 91.17042 483.171057 
L 100.290057 482.199738 
L 109.409693 481.228418 
L 118.52933 480.257099 
L 127.648966 479.28578 
L 136.768602 478.314461 
L 145.888239 477.343142 
L 155.007875 476.371823 
L 164.127511 475.400504 
L 173.247148 474.429184 
L 182.366784 473.457865 
L 191.48642 472.486546 
L 200.606057 471.515227 
L 209.725693 470.543908 
L 218.84533 469.572589 
L 227.964966 468.60127 
L 237.084602 467.62995 
L 246.204239 466.658631 
L 255.323875 465.687312 
L 264.443511 464.715993 
L 273.563148 463.744674 
L 282.682784 462.773355 
L 291.80242 461.802036 
L 300.922057 460.830716 
L 310.041693 459.859397 
L 319.16133 458.888078 
L 328.280966 457.916759 
L 337.400602 456.94544 
L 346.520239 455.974121 
L 355.639875 455.002802 
L 364.759511 454.031483 
L 373.879148 453.060163 
L 382.998784 452.088844 
L 392.11842 451.117525 
L 401.238057 450.146206 
L 410.357693 449.174887 
L 419.47733 448.203568 
L 428.596966 447.232249 
L 437.716602 446.260929 
L 446.836239 445.28961 
L 455.955875 444.318291 
L 465.075511 443.346972 
L 474.195148 442.375653 
L 483.314784 441.404334 
L 492.43442 440.433015 
L 501.554057 439.461695 
L 510.673693 438.490376 
L 519.79333 437.519057 
L 528.912966 436.547738 
L 538.032602 435.576419 
L 547.152239 434.6051 
L 556.271875 433.633781 
L 565.391511 432.662462 
L 574.511148 431.691142 
L 583.630784 430.719823 
L 592.75042 429.748504 
L 601.870057 428.777185 
L 610.989693 427.805866 
L 620.10933 426.834547 
L 629.228966 425.863228 
L 638.348602 424.891908 
L 647.468239 423.920589 
L 656.587875 422.94927 
L 665.707511 421.977951 
L 674.827148 421.006632 
L 683.946784 420.035313 
L 693.06642 419.063994 
L 702.186057 418.092674 
L 711.305693 417.121355 
L 720.42533 416.150036 
L 729.544966 415.178717 
L 738.664602 414.207398 
L 747.784239 413.236079 
L 756.903875 412.26476 
L 766.023511 411.29344 
L 775.143148 410.322121 
L 784.262784 409.350802 
L 793.38242 408.379483 
L 802.502057 407.408164 
L 811.621693 406.436845 
L 820.74133 405.465526 
L 829.860966 404.494207 
L 838.980602 403.522887 
L 848.100239 402.551568 
L 857.219875 401.580249 
L 866.339511 400.60893 
L 875.459148 399.637611 
L 884.578784 398.666292 
L 893.69842 397.694973 
L 902.818057 396.723653 
L 911.937693 395.752334 
L 921.05733 394.781015 
L 930.176966 393.809696 
L 939.296602 392.838377 
L 948.416239 391.867058 
L 957.535875 390.895739 
" clip-path="url(#pf432051dcd)" style="fill: none; stroke-dasharray: 1.5,2.475; stroke-dashoffset: 0; stroke: #4ac1fa; stroke-width: 1.5"/>
   </g>
   <g id="line2d_38">
    <path d="M 54.691875 524.669487 
L 63.811511 523.960015 
L 72.931148 523.250544 
L 82.050784 522.541072 
L 91.17042 521.8316 
L 100.290057 521.122129 
L 109.409693 520.412657 
L 118.52933 519.703185 
L 127.648966 518.993714 
L 136.768602 518.284242 
L 145.888239 517.57477 
L 155.007875 516.865298 
L 164.127511 516.155827 
L 173.247148 515.446355 
L 182.366784 514.736883 
L 191.48642 514.027412 
L 200.606057 513.31794 
L 209.725693 512.608468 
L 218.84533 511.898997 
L 227.964966 511.189525 
L 237.084602 510.480053 
L 246.204239 509.770582 
L 255.323875 509.06111 
L 264.443511 508.351638 
L 273.563148 507.642167 
L 282.682784 506.932695 
L 291.80242 506.223223 
L 300.922057 505.513752 
L 310.041693 504.80428 
L 319.16133 504.094808 
L 328.280966 503.385336 
L 337.400602 502.675865 
L 346.520239 501.966393 
L 355.639875 501.256921 
L 364.759511 500.54745 
L 373.879148 499.837978 
L 382.998784 499.128506 
L 392.11842 498.419035 
L 401.238057 497.709563 
L 410.357693 497.000091 
L 419.47733 496.29062 
L 428.596966 495.581148 
L 437.716602 494.871676 
L 446.836239 494.162205 
L 455.955875 493.452733 
L 465.075511 492.743261 
L 474.195148 492.03379 
L 483.314784 491.324318 
L 492.43442 490.614846 
L 501.554057 489.905374 
L 510.673693 489.195903 
L 519.79333 488.486431 
L 528.912966 487.776959 
L 538.032602 487.067488 
L 547.152239 486.358016 
L 556.271875 485.648544 
L 565.391511 484.939073 
L 574.511148 484.229601 
L 583.630784 483.520129 
L 592.75042 482.810658 
L 601.870057 482.101186 
L 610.989693 481.391714 
L 620.10933 480.682243 
L 629.228966 479.972771 
L 638.348602 479.263299 
L 647.468239 478.553828 
L 656.587875 477.844356 
L 665.707511 477.134884 
L 674.827148 476.425412 
L 683.946784 475.715941 
L 693.06642 475.006469 
L 702.186057 474.296997 
L 711.305693 473.587526 
L 720.42533 472.878054 
L 729.544966 472.168582 
L 738.664602 471.459111 
L 747.784239 470.749639 
L 756.903875 470.040167 
L 766.023511 469.330696 
L 775.143148 468.621224 
L 784.262784 467.911752 
L 793.38242 467.202281 
L 802.502057 466.492809 
L 811.621693 465.783337 
L 820.74133 465.073866 
L 829.860966 464.364394 
L 838.980602 463.654922 
L 848.100239 462.94545 
L 857.219875 462.235979 
L 866.339511 461.526507 
L 875.459148 460.817035 
L 884.578784 460.107564 
L 893.69842 459.398092 
L 902.818057 458.68862 
L 911.937693 457.979149 
L 921.05733 457.269677 
L 930.176966 456.560205 
L 939.296602 455.850734 
L 948.416239 455.141262 
L 957.535875 454.43179 
" clip-path="url(#pf432051dcd)" style="fill: none; stroke-dasharray: 1.5,2.475; stroke-dashoffset: 0; stroke: #e9a942; stroke-width: 1.5"/>
   </g>
   <g id="line2d_39">
    <path d="M 54.691875 502.877491 
L 63.811511 503.074993 
L 72.931148 503.272495 
L 82.050784 503.469997 
L 91.17042 503.667498 
L 100.290057 503.865 
L 109.409693 504.062502 
L 118.52933 504.260004 
L 127.648966 504.457505 
L 136.768602 504.655007 
L 145.888239 504.852509 
L 155.007875 505.050011 
L 164.127511 505.247512 
L 173.247148 505.445014 
L 182.366784 505.642516 
L 191.48642 505.840018 
L 200.606057 506.037519 
L 209.725693 506.235021 
L 218.84533 506.432523 
L 227.964966 506.630025 
L 237.084602 506.827526 
L 246.204239 507.025028 
L 255.323875 507.22253 
L 264.443511 507.420032 
L 273.563148 507.617533 
L 282.682784 507.815035 
L 291.80242 508.012537 
L 300.922057 508.210039 
L 310.041693 508.40754 
L 319.16133 508.605042 
L 328.280966 508.802544 
L 337.400602 509.000046 
L 346.520239 509.197547 
L 355.639875 509.395049 
L 364.759511 509.592551 
L 373.879148 509.790053 
L 382.998784 509.987554 
L 392.11842 510.185056 
L 401.238057 510.382558 
L 410.357693 510.58006 
L 419.47733 510.777561 
L 428.596966 510.975063 
L 437.716602 511.172565 
L 446.836239 511.370067 
L 455.955875 511.567568 
L 465.075511 511.76507 
L 474.195148 511.962572 
L 483.314784 512.160074 
L 492.43442 512.357575 
L 501.554057 512.555077 
L 510.673693 512.752579 
L 519.79333 512.950081 
L 528.912966 513.147583 
L 538.032602 513.345084 
L 547.152239 513.542586 
L 556.271875 513.740088 
L 565.391511 513.93759 
L 574.511148 514.135091 
L 583.630784 514.332593 
L 592.75042 514.530095 
L 601.870057 514.727597 
L 610.989693 514.925098 
L 620.10933 515.1226 
L 629.228966 515.320102 
L 638.348602 515.517604 
L 647.468239 515.715105 
L 656.587875 515.912607 
L 665.707511 516.110109 
L 674.827148 516.307611 
L 683.946784 516.505112 
L 693.06642 516.702614 
L 702.186057 516.900116 
L 711.305693 517.097618 
L 720.42533 517.295119 
L 729.544966 517.492621 
L 738.664602 517.690123 
L 747.784239 517.887625 
L 756.903875 518.085126 
L 766.023511 518.282628 
L 775.143148 518.48013 
L 784.262784 518.677632 
L 793.38242 518.875133 
L 802.502057 519.072635 
L 811.621693 519.270137 
L 820.74133 519.467639 
L 829.860966 519.66514 
L 838.980602 519.862642 
L 848.100239 520.060144 
L 857.219875 520.257646 
L 866.339511 520.455147 
L 875.459148 520.652649 
L 884.578784 520.850151 
L 893.69842 521.047653 
L 902.818057 521.245154 
L 911.937693 521.442656 
L 921.05733 521.640158 
L 930.176966 521.83766 
L 939.296602 522.035161 
L 948.416239 522.232663 
L 957.535875 522.430165 
" clip-path="url(#pf432051dcd)" style="fill: none; stroke-dasharray: 1.5,2.475; stroke-dashoffset: 0; stroke: #9a5689; stroke-width: 1.5"/>
   </g>
   <g id="line2d_40">
    <path d="M 54.691875 526.264767 
L 63.811511 526.278422 
L 72.931148 526.292076 
L 82.050784 526.30573 
L 91.17042 526.319385 
L 100.290057 526.333039 
L 109.409693 526.346693 
L 118.52933 526.360348 
L 127.648966 526.374002 
L 136.768602 526.387656 
L 145.888239 526.401311 
L 155.007875 526.414965 
L 164.127511 526.428619 
L 173.247148 526.442274 
L 182.366784 526.455928 
L 191.48642 526.469582 
L 200.606057 526.483237 
L 209.725693 526.496891 
L 218.84533 526.510545 
L 227.964966 526.5242 
L 237.084602 526.537854 
L 246.204239 526.551508 
L 255.323875 526.565163 
L 264.443511 526.578817 
L 273.563148 526.592471 
L 282.682784 526.606126 
L 291.80242 526.61978 
L 300.922057 526.633434 
L 310.041693 526.647089 
L 319.16133 526.660743 
L 328.280966 526.674397 
L 337.400602 526.688052 
L 346.520239 526.701706 
L 355.639875 526.715361 
L 364.759511 526.729015 
L 373.879148 526.742669 
L 382.998784 526.756324 
L 392.11842 526.769978 
L 401.238057 526.783632 
L 410.357693 526.797287 
L 419.47733 526.810941 
L 428.596966 526.824595 
L 437.716602 526.83825 
L 446.836239 526.851904 
L 455.955875 526.865558 
L 465.075511 526.879213 
L 474.195148 526.892867 
L 483.314784 526.906521 
L 492.43442 526.920176 
L 501.554057 526.93383 
L 510.673693 526.947484 
L 519.79333 526.961139 
L 528.912966 526.974793 
L 538.032602 526.988447 
L 547.152239 527.002102 
L 556.271875 527.015756 
L 565.391511 527.02941 
L 574.511148 527.043065 
L 583.630784 527.056719 
L 592.75042 527.070373 
L 601.870057 527.084028 
L 610.989693 527.097682 
L 620.10933 527.111336 
L 629.228966 527.124991 
L 638.348602 527.138645 
L 647.468239 527.152299 
L 656.587875 527.165954 
L 665.707511 527.179608 
L 674.827148 527.193262 
L 683.946784 527.206917 
L 693.06642 527.220571 
L 702.186057 527.234225 
L 711.305693 527.24788 
L 720.42533 527.261534 
L 729.544966 527.275189 
L 738.664602 527.288843 
L 747.784239 527.302497 
L 756.903875 527.316152 
L 766.023511 527.329806 
L 775.143148 527.34346 
L 784.262784 527.357115 
L 793.38242 527.370769 
L 802.502057 527.384423 
L 811.621693 527.398078 
L 820.74133 527.411732 
L 829.860966 527.425386 
L 838.980602 527.439041 
L 848.100239 527.452695 
L 857.219875 527.466349 
L 866.339511 527.480004 
L 875.459148 527.493658 
L 884.578784 527.507312 
L 893.69842 527.520967 
L 902.818057 527.534621 
L 911.937693 527.548275 
L 921.05733 527.56193 
L 930.176966 527.575584 
L 939.296602 527.589238 
L 948.416239 527.602893 
L 957.535875 527.616547 
" clip-path="url(#pf432051dcd)" style="fill: none; stroke-dasharray: 1.5,2.475; stroke-dashoffset: 0; stroke: #be503b; stroke-width: 1.5"/>
   </g>
   <g id="line2d_41">
    <path d="M 54.691875 442.961886 
L 63.811511 442.64278 
L 72.931148 442.323675 
L 82.050784 442.004569 
L 91.17042 441.685464 
L 100.290057 441.366358 
L 109.409693 441.047253 
L 118.52933 440.728147 
L 127.648966 440.409042 
L 136.768602 440.089936 
L 145.888239 439.77083 
L 155.007875 439.451725 
L 164.127511 439.132619 
L 173.247148 438.813514 
L 182.366784 438.494408 
L 191.48642 438.175303 
L 200.606057 437.856197 
L 209.725693 437.537092 
L 218.84533 437.217986 
L 227.964966 436.898881 
L 237.084602 436.579775 
L 246.204239 436.26067 
L 255.323875 435.941564 
L 264.443511 435.622459 
L 273.563148 435.303353 
L 282.682784 434.984248 
L 291.80242 434.665142 
L 300.922057 434.346037 
L 310.041693 434.026931 
L 319.16133 433.707826 
L 328.280966 433.38872 
L 337.400602 433.069615 
L 346.520239 432.750509 
L 355.639875 432.431404 
L 364.759511 432.112298 
L 373.879148 431.793193 
L 382.998784 431.474087 
L 392.11842 431.154982 
L 401.238057 430.835876 
L 410.357693 430.516771 
L 419.47733 430.197665 
L 428.596966 429.87856 
L 437.716602 429.559454 
L 446.836239 429.240349 
L 455.955875 428.921243 
L 465.075511 428.602138 
L 474.195148 428.283032 
L 483.314784 427.963927 
L 492.43442 427.644821 
L 501.554057 427.325716 
L 510.673693 427.00661 
L 519.79333 426.687505 
L 528.912966 426.368399 
L 538.032602 426.049294 
L 547.152239 425.730188 
L 556.271875 425.411083 
L 565.391511 425.091977 
L 574.511148 424.772872 
L 583.630784 424.453766 
L 592.75042 424.134661 
L 601.870057 423.815555 
L 610.989693 423.49645 
L 620.10933 423.177344 
L 629.228966 422.858239 
L 638.348602 422.539133 
L 647.468239 422.220028 
L 656.587875 421.900922 
L 665.707511 421.581817 
L 674.827148 421.262711 
L 683.946784 420.943606 
L 693.06642 420.6245 
L 702.186057 420.305395 
L 711.305693 419.986289 
L 720.42533 419.667184 
L 729.544966 419.348078 
L 738.664602 419.028973 
L 747.784239 418.709867 
L 756.903875 418.390762 
L 766.023511 418.071656 
L 775.143148 417.752551 
L 784.262784 417.433445 
L 793.38242 417.11434 
L 802.502057 416.795234 
L 811.621693 416.476129 
L 820.74133 416.157023 
L 829.860966 415.837918 
L 838.980602 415.518812 
L 848.100239 415.199707 
L 857.219875 414.880601 
L 866.339511 414.561495 
L 875.459148 414.24239 
L 884.578784 413.923284 
L 893.69842 413.604179 
L 902.818057 413.285073 
L 911.937693 412.965968 
L 921.05733 412.646862 
L 930.176966 412.327757 
L 939.296602 412.008651 
L 948.416239 411.689546 
L 957.535875 411.37044 
" clip-path="url(#pf432051dcd)" style="fill: none; stroke-dasharray: 1.5,2.475; stroke-dashoffset: 0; stroke: #e2321d; stroke-width: 1.5"/>
   </g>
   <g id="line2d_42">
    <path d="M 54.691875 386.513091 
L 63.811511 383.503019 
L 72.931148 380.492946 
L 82.050784 377.482874 
L 91.17042 374.472801 
L 100.290057 371.462729 
L 109.409693 368.452657 
L 118.52933 365.442584 
L 127.648966 362.432512 
L 136.768602 359.422439 
L 145.888239 356.412367 
L 155.007875 353.402295 
L 164.127511 350.392222 
L 173.247148 347.38215 
L 182.366784 344.372077 
L 191.48642 341.362005 
L 200.606057 338.351933 
L 209.725693 335.34186 
L 218.84533 332.331788 
L 227.964966 329.321715 
L 237.084602 326.311643 
L 246.204239 323.301571 
L 255.323875 320.291498 
L 264.443511 317.281426 
L 273.563148 314.271353 
L 282.682784 311.261281 
L 291.80242 308.251209 
L 300.922057 305.241136 
L 310.041693 302.231064 
L 319.16133 299.220991 
L 328.280966 296.210919 
L 337.400602 293.200847 
L 346.520239 290.190774 
L 355.639875 287.180702 
L 364.759511 284.170629 
L 373.879148 281.160557 
L 382.998784 278.150485 
L 392.11842 275.140412 
L 401.238057 272.13034 
L 410.357693 269.120267 
L 419.47733 266.110195 
L 428.596966 263.100122 
L 437.716602 260.09005 
L 446.836239 257.079978 
L 455.955875 254.069905 
L 465.075511 251.059833 
L 474.195148 248.04976 
L 483.314784 245.039688 
L 492.43442 242.029616 
L 501.554057 239.019543 
L 510.673693 236.009471 
L 519.79333 232.999398 
L 528.912966 229.989326 
L 538.032602 226.979254 
L 547.152239 223.969181 
L 556.271875 220.959109 
L 565.391511 217.949036 
L 574.511148 214.938964 
L 583.630784 211.928892 
L 592.75042 208.918819 
L 601.870057 205.908747 
L 610.989693 202.898674 
L 620.10933 199.888602 
L 629.228966 196.87853 
L 638.348602 193.868457 
L 647.468239 190.858385 
L 656.587875 187.848312 
L 665.707511 184.83824 
L 674.827148 181.828168 
L 683.946784 178.818095 
L 693.06642 175.808023 
L 702.186057 172.79795 
L 711.305693 169.787878 
L 720.42533 166.777806 
L 729.544966 163.767733 
L 738.664602 160.757661 
L 747.784239 157.747588 
L 756.903875 154.737516 
L 766.023511 151.727444 
L 775.143148 148.717371 
L 784.262784 145.707299 
L 793.38242 142.697226 
L 802.502057 139.687154 
L 811.621693 136.677082 
L 820.74133 133.667009 
L 829.860966 130.656937 
L 838.980602 127.646864 
L 848.100239 124.636792 
L 857.219875 121.62672 
L 866.339511 118.616647 
L 875.459148 115.606575 
L 884.578784 112.596502 
L 893.69842 109.58643 
L 902.818057 106.576358 
L 911.937693 103.566285 
L 921.05733 100.556213 
L 930.176966 97.54614 
L 939.296602 94.536068 
L 948.416239 91.525996 
L 957.535875 88.515923 
" clip-path="url(#pf432051dcd)" style="fill: none; stroke-dasharray: 1.5,2.475; stroke-dashoffset: 0; stroke: #48b585; stroke-width: 1.5"/>
   </g>
   <g id="line2d_43">
    <path d="M 54.691875 480.787162 
L 72.748755 480.255012 
L 90.805635 486.105717 
L 108.862515 486.127317 
L 126.919395 497.249449 
L 144.976275 495.695218 
L 163.033155 489.116979 
L 181.090035 501.070719 
L 199.146915 492.020241 
L 217.203795 493.383016 
L 235.260675 458.865919 
L 253.317555 452.618556 
L 271.374435 448.355464 
L 289.431315 451.75553 
L 307.488195 482.837216 
L 325.545075 450.299481 
L 343.601955 452.264116 
L 361.658835 464.124582 
L 379.715715 450.51941 
L 397.772595 449.499292 
L 415.829475 429.422901 
L 433.886355 429.218681 
L 451.943235 416.478499 
L 470.000115 413.67342 
L 488.056995 419.803946 
L 506.113875 434.574546 
L 524.170755 408.211518 
L 542.227635 434.588291 
L 560.284515 419.794127 
L 578.341395 433.542646 
L 596.398275 439.433606 
L 614.455155 439.814554 
L 632.512035 433.575046 
L 650.568915 422.237894 
L 668.625795 422.288949 
L 686.682675 394.075178 
L 704.739555 412.201662 
L 722.796435 419.29045 
L 740.853315 432.321253 
L 758.910195 406.732887 
L 776.967075 418.105385 
L 795.023955 391.740395 
L 813.080835 392.067343 
L 831.137715 395.002023 
L 849.194595 398.980384 
L 867.251475 400.857637 
L 885.308355 456.19535 
L 903.365235 448.109026 
L 921.422115 396.359889 
L 939.478995 387.061009 
L 957.535875 379.06894 
" clip-path="url(#pf432051dcd)" style="fill: none; stroke: #4ac1fa; stroke-width: 1.5; stroke-linecap: square"/>
   </g>
   <g id="line2d_44">
    <path d="M 54.691875 530.60701 
L 72.748755 536.662916 
L 90.805635 525.12449 
L 108.862515 521.311075 
L 126.919395 520.589432 
L 144.976275 511.781466 
L 163.033155 519.701861 
L 181.090035 517.113766 
L 199.146915 517.188385 
L 217.203795 513.817774 
L 235.260675 516.49227 
L 253.317555 519.138293 
L 271.374435 511.43979 
L 289.431315 512.15456 
L 307.488195 500.497332 
L 325.545075 483.904462 
L 343.601955 478.17354 
L 361.658835 494.451243 
L 379.715715 496.178277 
L 397.772595 498.14193 
L 415.829475 471.271298 
L 433.886355 479.661989 
L 451.943235 493.037413 
L 470.000115 499.446777 
L 488.056995 484.925561 
L 506.113875 484.453303 
L 524.170755 479.609952 
L 542.227635 491.84253 
L 560.284515 471.701338 
L 578.341395 501.030464 
L 596.398275 493.134614 
L 614.455155 485.062035 
L 632.512035 483.981044 
L 650.568915 475.108277 
L 668.625795 465.458884 
L 686.682675 471.358681 
L 704.739555 476.242286 
L 722.796435 487.477329 
L 740.853315 481.775861 
L 758.910195 483.739515 
L 776.967075 478.253067 
L 795.023955 476.467125 
L 813.080835 472.109778 
L 831.137715 472.628183 
L 849.194595 466.064672 
L 867.251475 470.764676 
L 885.308355 459.344068 
L 903.365235 476.710618 
L 921.422115 435.949103 
L 939.478995 439.006511 
L 957.535875 434.995749 
" clip-path="url(#pf432051dcd)" style="fill: none; stroke: #e9a942; stroke-width: 1.5; stroke-linecap: square"/>
   </g>
   <g id="line2d_45">
    <path d="M 54.691875 515.443679 
L 72.748755 515.991538 
L 90.805635 521.262965 
L 108.862515 519.69597 
L 126.919395 497.082539 
L 144.976275 478.913837 
L 163.033155 477.804373 
L 181.090035 492.423771 
L 199.146915 500.869444 
L 217.203795 499.604851 
L 235.260675 494.095822 
L 253.317555 494.773283 
L 271.374435 500.766352 
L 289.431315 495.209214 
L 307.488195 505.637194 
L 325.545075 518.725925 
L 343.601955 515.345496 
L 361.658835 533.980566 
L 379.715715 526.825995 
L 397.772595 517.526133 
L 415.829475 526.821086 
L 433.886355 524.384192 
L 451.943235 517.797117 
L 470.000115 512.529617 
L 488.056995 508.20958 
L 506.113875 512.282197 
L 524.170755 509.889486 
L 542.227635 514.587526 
L 560.284515 512.764274 
L 578.341395 507.267027 
L 596.398275 517.641007 
L 614.455155 514.288069 
L 632.512035 513.951302 
L 650.568915 511.400517 
L 668.625795 518.251703 
L 686.682675 516.01412 
L 704.739555 514.550217 
L 722.796435 516.641507 
L 740.853315 518.694507 
L 758.910195 519.113747 
L 776.967075 516.586525 
L 795.023955 517.673407 
L 813.080835 518.592397 
L 831.137715 514.558071 
L 849.194595 516.507979 
L 867.251475 512.683764 
L 885.308355 533.825437 
L 903.365235 533.186268 
L 921.422115 519.671424 
L 939.478995 516.977292 
L 957.535875 516.02492 
" clip-path="url(#pf432051dcd)" style="fill: none; stroke: #9a5689; stroke-width: 1.5; stroke-linecap: square"/>
   </g>
   <g id="line2d_46">
    <path d="M 54.691875 538.418422 
L 72.748755 537.782199 
L 90.805635 529.471036 
L 108.862515 536.355605 
L 126.919395 529.153906 
L 144.976275 526.052316 
L 163.033155 532.599136 
L 181.090035 531.019377 
L 199.146915 534.020821 
L 217.203795 507.443755 
L 235.260675 521.775479 
L 253.317555 531.632037 
L 271.374435 518.042574 
L 289.431315 526.11908 
L 307.488195 523.577131 
L 325.545075 517.323877 
L 343.601955 533.91282 
L 361.658835 517.006747 
L 379.715715 525.451438 
L 397.772595 521.791188 
L 415.829475 521.27082 
L 433.886355 535.91771 
L 451.943235 530.407699 
L 470.000115 519.758807 
L 488.056995 521.009654 
L 506.113875 527.336545 
L 524.170755 526.215299 
L 542.227635 526.566793 
L 560.284515 521.784315 
L 578.341395 529.12936 
L 596.398275 522.442139 
L 614.455155 523.941389 
L 632.512035 526.146571 
L 650.568915 518.714143 
L 668.625795 529.526018 
L 686.682675 524.295828 
L 704.739555 529.788166 
L 722.796435 527.538801 
L 740.853315 518.71218 
L 758.910195 514.362688 
L 776.967075 522.219265 
L 795.023955 525.218745 
L 813.080835 510.298907 
L 831.137715 513.951302 
L 849.194595 527.964914 
L 867.251475 520.256593 
L 885.308355 558.812925 
L 903.365235 557.77808 
L 921.422115 536.54117 
L 939.478995 530.91923 
L 957.535875 536.198512 
" clip-path="url(#pf432051dcd)" style="fill: none; stroke: #be503b; stroke-width: 1.5; stroke-linecap: square"/>
   </g>
   <g id="line2d_47">
    <path d="M 54.691875 462.002855 
L 72.748755 456.60379 
L 90.805635 454.440826 
L 108.862515 454.186533 
L 126.919395 436.300597 
L 144.976275 445.511113 
L 163.033155 443.0212 
L 181.090035 450.246462 
L 199.146915 448.884669 
L 217.203795 438.679563 
L 235.260675 434.585346 
L 253.317555 437.526898 
L 271.374435 453.064305 
L 289.431315 440.915182 
L 307.488195 440.907327 
L 325.545075 445.121327 
L 343.601955 439.195022 
L 361.658835 437.986393 
L 379.715715 417.751928 
L 397.772595 277.221117 
L 415.829475 428.494093 
L 433.886355 439.507243 
L 451.943235 437.694791 
L 470.000115 436.160196 
L 488.056995 432.801367 
L 506.113875 419.152013 
L 524.170755 433.777302 
L 542.227635 406.721106 
L 560.284515 424.664969 
L 578.341395 422.204512 
L 596.398275 422.37535 
L 614.455155 417.036176 
L 632.512035 415.470163 
L 650.568915 412.767194 
L 668.625795 422.504951 
L 686.682675 418.985102 
L 704.739555 405.746152 
L 722.796435 383.750289 
L 740.853315 413.970913 
L 758.910195 409.769677 
L 776.967075 403.348531 
L 795.023955 401.561606 
L 813.080835 404.649451 
L 831.137715 417.378834 
L 849.194595 419.213868 
L 867.251475 418.751427 
L 885.308355 472.789202 
L 903.365235 473.916339 
L 921.422115 432.773875 
L 939.478995 409.392656 
L 957.535875 413.992514 
" clip-path="url(#pf432051dcd)" style="fill: none; stroke: #e2321d; stroke-width: 1.5; stroke-linecap: square"/>
   </g>
   <g id="line2d_48">
    <path d="M 54.691875 369.726859 
L 72.748755 357.633701 
L 90.805635 324.869164 
L 108.862515 325.43175 
L 126.919395 313.518266 
L 144.976275 323.155876 
L 163.033155 272.853952 
L 181.090035 340.939702 
L 199.146915 285.190604 
L 217.203795 318.653219 
L 235.260675 305.568416 
L 253.317555 329.561313 
L 271.374435 362.46527 
L 289.431315 344.734462 
L 307.488195 348.030454 
L 325.545075 331.547549 
L 343.601955 339.060486 
L 361.658835 330.795469 
L 379.715715 324.409669 
L 397.772595 331.847006 
L 415.829475 320.45978 
L 433.886355 324.703235 
L 451.943235 297.827694 
L 470.000115 283.546044 
L 488.056995 235.729123 
L 506.113875 275.630557 
L 524.170755 264.951229 
L 542.227635 240.818912 
L 560.284515 277.933923 
L 578.341395 207.746082 
L 596.398275 247.904755 
L 614.455155 228.252513 
L 632.512035 197.589085 
L 650.568915 183.347689 
L 668.625795 144.088369 
L 686.682675 116.555005 
L 704.739555 113.622288 
L 722.796435 113.441632 
L 740.853315 71.676691 
L 758.910195 98.402012 
L 776.967075 123.122443 
L 795.023955 104.67392 
L 813.080835 134.329994 
L 831.137715 148.486953 
L 849.194595 92.824255 
L 867.251475 72.336478 
L 885.308355 197.677449 
L 903.365235 183.161142 
L 921.422115 110.157422 
L 939.478995 49.602282 
L 957.535875 72.647717 
" clip-path="url(#pf432051dcd)" style="fill: none; stroke: #48b585; stroke-width: 6; stroke-linecap: square"/>
   </g>
   <g id="patch_3">
    <path d="M 54.691875 578.54175 
L 54.691875 24.14175 
" style="fill: none; stroke: #ffffff; stroke-linejoin: miter; stroke-linecap: square"/>
   </g>
   <g id="patch_4">
    <path d="M 957.535875 578.54175 
L 957.535875 24.14175 
" style="fill: none; stroke: #ffffff; stroke-linejoin: miter; stroke-linecap: square"/>
   </g>
   <g id="patch_5">
    <path d="M 54.691875 578.54175 
L 957.535875 578.54175 
" style="fill: none; stroke: #ffffff; stroke-linejoin: miter; stroke-linecap: square"/>
   </g>
   <g id="patch_6">
    <path d="M 54.691875 24.14175 
L 957.535875 24.14175 
" style="fill: none; stroke: #ffffff; stroke-linejoin: miter; stroke-linecap: square"/>
   </g>
   <g id="text_21">
    <!-- Potentially Ephemeral Enterprise Linux Instances by Distribution -->
    <g transform="translate(54.691875 18.14175) scale(0.144 -0.144)">
     <defs>
      <path id="DejaVuSans-50" d="M 1259 4147 
L 1259 2394 
L 2053 2394 
Q 2494 2394 2734 2622 
Q 2975 2850 2975 3272 
Q 2975 3691 2734 3919 
Q 2494 4147 2053 4147 
L 1259 4147 
z
M 628 4666 
L 2053 4666 
Q 2838 4666 3239 4311 
Q 3641 3956 3641 3272 
Q 3641 2581 3239 2228 
Q 2838 1875 2053 1875 
L 1259 1875 
L 1259 0 
L 628 0 
L 628 4666 
z
" transform="scale(0.015625)"/>
      <path id="DejaVuSans-6f" d="M 1959 3097 
Q 1497 3097 1228 2736 
Q 959 2375 959 1747 
Q 959 1119 1226 758 
Q 1494 397 1959 397 
Q 2419 397 2687 759 
Q 2956 1122 2956 1747 
Q 2956 2369 2687 2733 
Q 2419 3097 1959 3097 
z
M 1959 3584 
Q 2709 3584 3137 3096 
Q 3566 2609 3566 1747 
Q 3566 888 3137 398 
Q 2709 -91 1959 -91 
Q 1206 -91 779 398 
Q 353 888 353 1747 
Q 353 2609 779 3096 
Q 1206 3584 1959 3584 
z
" transform="scale(0.015625)"/>
      <path id="DejaVuSans-69" d="M 603 3500 
L 1178 3500 
L 1178 0 
L 603 0 
L 603 3500 
z
M 603 4863 
L 1178 4863 
L 1178 4134 
L 603 4134 
L 603 4863 
z
" transform="scale(0.015625)"/>
      <path id="DejaVuSans-6c" d="M 603 4863 
L 1178 4863 
L 1178 0 
L 603 0 
L 603 4863 
z
" transform="scale(0.015625)"/>
      <path id="DejaVuSans-79" d="M 2059 -325 
Q 1816 -950 1584 -1140 
Q 1353 -1331 966 -1331 
L 506 -1331 
L 506 -850 
L 844 -850 
Q 1081 -850 1212 -737 
Q 1344 -625 1503 -206 
L 1606 56 
L 191 3500 
L 800 3500 
L 1894 763 
L 2988 3500 
L 3597 3500 
L 2059 -325 
z
" transform="scale(0.015625)"/>
      <path id="DejaVuSans-20" transform="scale(0.015625)"/>
      <path id="DejaVuSans-45" d="M 628 4666 
L 3578 4666 
L 3578 4134 
L 1259 4134 
L 1259 2753 
L 3481 2753 
L 3481 2222 
L 1259 2222 
L 1259 531 
L 3634 531 
L 3634 0 
L 628 0 
L 628 4666 
z
" transform="scale(0.015625)"/>
      <path id="DejaVuSans-70" d="M 1159 525 
L 1159 -1331 
L 581 -1331 
L 581 3500 
L 1159 3500 
L 1159 2969 
Q 1341 3281 1617 3432 
Q 1894 3584 2278 3584 
Q 2916 3584 3314 3078 
Q 3713 2572 3713 1747 
Q 3713 922 3314 415 
Q 2916 -91 2278 -91 
Q 1894 -91 1617 61 
Q 1341 213 1159 525 
z
M 3116 1747 
Q 3116 2381 2855 2742 
Q 2594 3103 2138 3103 
Q 1681 3103 1420 2742 
Q 1159 2381 1159 1747 
Q 1159 1113 1420 752 
Q 1681 391 2138 391 
Q 2594 391 2855 752 
Q 3116 1113 3116 1747 
z
" transform="scale(0.015625)"/>
      <path id="DejaVuSans-68" d="M 3513 2113 
L 3513 0 
L 2938 0 
L 2938 2094 
Q 2938 2591 2744 2837 
Q 2550 3084 2163 3084 
Q 1697 3084 1428 2787 
Q 1159 2491 1159 1978 
L 1159 0 
L 581 0 
L 581 4863 
L 1159 4863 
L 1159 2956 
Q 1366 3272 1645 3428 
Q 1925 3584 2291 3584 
Q 2894 3584 3203 3211 
Q 3513 2838 3513 2113 
z
" transform="scale(0.015625)"/>
      <path id="DejaVuSans-6d" d="M 3328 2828 
Q 3544 3216 3844 3400 
Q 4144 3584 4550 3584 
Q 5097 3584 5394 3201 
Q 5691 2819 5691 2113 
L 5691 0 
L 5113 0 
L 5113 2094 
Q 5113 2597 4934 2840 
Q 4756 3084 4391 3084 
Q 3944 3084 3684 2787 
Q 3425 2491 3425 1978 
L 3425 0 
L 2847 0 
L 2847 2094 
Q 2847 2600 2669 2842 
Q 2491 3084 2119 3084 
Q 1678 3084 1418 2786 
Q 1159 2488 1159 1978 
L 1159 0 
L 581 0 
L 581 3500 
L 1159 3500 
L 1159 2956 
Q 1356 3278 1631 3431 
Q 1906 3584 2284 3584 
Q 2666 3584 2933 3390 
Q 3200 3197 3328 2828 
z
" transform="scale(0.015625)"/>
      <path id="DejaVuSans-72" d="M 2631 2963 
Q 2534 3019 2420 3045 
Q 2306 3072 2169 3072 
Q 1681 3072 1420 2755 
Q 1159 2438 1159 1844 
L 1159 0 
L 581 0 
L 581 3500 
L 1159 3500 
L 1159 2956 
Q 1341 3275 1631 3429 
Q 1922 3584 2338 3584 
Q 2397 3584 2469 3576 
Q 2541 3569 2628 3553 
L 2631 2963 
z
" transform="scale(0.015625)"/>
      <path id="DejaVuSans-4c" d="M 628 4666 
L 1259 4666 
L 1259 531 
L 3531 531 
L 3531 0 
L 628 0 
L 628 4666 
z
" transform="scale(0.015625)"/>
      <path id="DejaVuSans-75" d="M 544 1381 
L 544 3500 
L 1119 3500 
L 1119 1403 
Q 1119 906 1312 657 
Q 1506 409 1894 409 
Q 2359 409 2629 706 
Q 2900 1003 2900 1516 
L 2900 3500 
L 3475 3500 
L 3475 0 
L 2900 0 
L 2900 538 
Q 2691 219 2414 64 
Q 2138 -91 1772 -91 
Q 1169 -91 856 284 
Q 544 659 544 1381 
z
M 1991 3584 
L 1991 3584 
z
" transform="scale(0.015625)"/>
      <path id="DejaVuSans-78" d="M 3513 3500 
L 2247 1797 
L 3578 0 
L 2900 0 
L 1881 1375 
L 863 0 
L 184 0 
L 1544 1831 
L 300 3500 
L 978 3500 
L 1906 2253 
L 2834 3500 
L 3513 3500 
z
" transform="scale(0.015625)"/>
      <path id="DejaVuSans-62" d="M 3116 1747 
Q 3116 2381 2855 2742 
Q 2594 3103 2138 3103 
Q 1681 3103 1420 2742 
Q 1159 2381 1159 1747 
Q 1159 1113 1420 752 
Q 1681 391 2138 391 
Q 2594 391 2855 752 
Q 3116 1113 3116 1747 
z
M 1159 2969 
Q 1341 3281 1617 3432 
Q 1894 3584 2278 3584 
Q 2916 3584 3314 3078 
Q 3713 2572 3713 1747 
Q 3713 922 3314 415 
Q 2916 -91 2278 -91 
Q 1894 -91 1617 61 
Q 1341 213 1159 525 
L 1159 0 
L 581 0 
L 581 4863 
L 1159 4863 
L 1159 2969 
z
" transform="scale(0.015625)"/>
     </defs>
     <use xlink:href="#DejaVuSans-50"/>
     <use xlink:href="#DejaVuSans-6f" x="56.677734"/>
     <use xlink:href="#DejaVuSans-74" x="117.859375"/>
     <use xlink:href="#DejaVuSans-65" x="157.068359"/>
     <use xlink:href="#DejaVuSans-6e" x="218.591797"/>
     <use xlink:href="#DejaVuSans-74" x="281.970703"/>
     <use xlink:href="#DejaVuSans-69" x="321.179688"/>
     <use xlink:href="#DejaVuSans-61" x="348.962891"/>
     <use xlink:href="#DejaVuSans-6c" x="410.242188"/>
     <use xlink:href="#DejaVuSans-6c" x="438.025391"/>
     <use xlink:href="#DejaVuSans-79" x="465.808594"/>
     <use xlink:href="#DejaVuSans-20" x="524.988281"/>
     <use xlink:href="#DejaVuSans-45" x="556.775391"/>
     <use xlink:href="#DejaVuSans-70" x="619.958984"/>
     <use xlink:href="#DejaVuSans-68" x="683.435547"/>
     <use xlink:href="#DejaVuSans-65" x="746.814453"/>
     <use xlink:href="#DejaVuSans-6d" x="808.337891"/>
     <use xlink:href="#DejaVuSans-65" x="905.75"/>
     <use xlink:href="#DejaVuSans-72" x="967.273438"/>
     <use xlink:href="#DejaVuSans-61" x="1008.386719"/>
     <use xlink:href="#DejaVuSans-6c" x="1069.666016"/>
     <use xlink:href="#DejaVuSans-20" x="1097.449219"/>
     <use xlink:href="#DejaVuSans-45" x="1129.236328"/>
     <use xlink:href="#DejaVuSans-6e" x="1192.419922"/>
     <use xlink:href="#DejaVuSans-74" x="1255.798828"/>
     <use xlink:href="#DejaVuSans-65" x="1295.007812"/>
     <use xlink:href="#DejaVuSans-72" x="1356.53125"/>
     <use xlink:href="#DejaVuSans-70" x="1397.644531"/>
     <use xlink:href="#DejaVuSans-72" x="1461.121094"/>
     <use xlink:href="#DejaVuSans-69" x="1502.234375"/>
     <use xlink:href="#DejaVuSans-73" x="1530.017578"/>
     <use xlink:href="#DejaVuSans-65" x="1582.117188"/>
     <use xlink:href="#DejaVuSans-20" x="1643.640625"/>
     <use xlink:href="#DejaVuSans-4c" x="1675.427734"/>
     <use xlink:href="#DejaVuSans-69" x="1731.140625"/>
     <use xlink:href="#DejaVuSans-6e" x="1758.923828"/>
     <use xlink:href="#DejaVuSans-75" x="1822.302734"/>
     <use xlink:href="#DejaVuSans-78" x="1885.681641"/>
     <use xlink:href="#DejaVuSans-20" x="1944.861328"/>
     <use xlink:href="#DejaVuSans-49" x="1976.648438"/>
     <use xlink:href="#DejaVuSans-6e" x="2006.140625"/>
     <use xlink:href="#DejaVuSans-73" x="2069.519531"/>
     <use xlink:href="#DejaVuSans-74" x="2121.619141"/>
     <use xlink:href="#DejaVuSans-61" x="2160.828125"/>
     <use xlink:href="#DejaVuSans-6e" x="2222.107422"/>
     <use xlink:href="#DejaVuSans-63" x="2285.486328"/>
     <use xlink:href="#DejaVuSans-65" x="2340.466797"/>
     <use xlink:href="#DejaVuSans-73" x="2401.990234"/>
     <use xlink:href="#DejaVuSans-20" x="2454.089844"/>
     <use xlink:href="#DejaVuSans-62" x="2485.876953"/>
     <use xlink:href="#DejaVuSans-79" x="2549.353516"/>
     <use xlink:href="#DejaVuSans-20" x="2608.533203"/>
     <use xlink:href="#DejaVuSans-44" x="2640.320312"/>
     <use xlink:href="#DejaVuSans-69" x="2717.322266"/>
     <use xlink:href="#DejaVuSans-73" x="2745.105469"/>
     <use xlink:href="#DejaVuSans-74" x="2797.205078"/>
     <use xlink:href="#DejaVuSans-72" x="2836.414062"/>
     <use xlink:href="#DejaVuSans-69" x="2877.527344"/>
     <use xlink:href="#DejaVuSans-62" x="2905.310547"/>
     <use xlink:href="#DejaVuSans-75" x="2968.787109"/>
     <use xlink:href="#DejaVuSans-74" x="3032.166016"/>
     <use xlink:href="#DejaVuSans-69" x="3071.375"/>
     <use xlink:href="#DejaVuSans-6f" x="3099.158203"/>
     <use xlink:href="#DejaVuSans-6e" x="3160.339844"/>
    </g>
   </g>
   <g id="text_22">
    <!-- 2025-02-06 11:54 UTC -->
    <g transform="translate(794.653875 18.14175) scale(0.144 -0.144)">
     <defs>
      <path id="DejaVuSans-3a" d="M 750 794 
L 1409 794 
L 1409 0 
L 750 0 
L 750 794 
z
M 750 3309 
L 1409 3309 
L 1409 2516 
L 750 2516 
L 750 3309 
z
" transform="scale(0.015625)"/>
      <path id="DejaVuSans-55" d="M 556 4666 
L 1191 4666 
L 1191 1831 
Q 1191 1081 1462 751 
Q 1734 422 2344 422 
Q 2950 422 3222 751 
Q 3494 1081 3494 1831 
L 3494 4666 
L 4128 4666 
L 4128 1753 
Q 4128 841 3676 375 
Q 3225 -91 2344 -91 
Q 1459 -91 1007 375 
Q 556 841 556 1753 
L 556 4666 
z
" transform="scale(0.015625)"/>
      <path id="DejaVuSans-54" d="M -19 4666 
L 3928 4666 
L 3928 4134 
L 2272 4134 
L 2272 0 
L 1638 0 
L 1638 4134 
L -19 4134 
L -19 4666 
z
" transform="scale(0.015625)"/>
      <path id="DejaVuSans-43" d="M 4122 4306 
L 4122 3641 
Q 3803 3938 3442 4084 
Q 3081 4231 2675 4231 
Q 1875 4231 1450 3742 
Q 1025 3253 1025 2328 
Q 1025 1406 1450 917 
Q 1875 428 2675 428 
Q 3081 428 3442 575 
Q 3803 722 4122 1019 
L 4122 359 
Q 3791 134 3420 21 
Q 3050 -91 2638 -91 
Q 1578 -91 968 557 
Q 359 1206 359 2328 
Q 359 3453 968 4101 
Q 1578 4750 2638 4750 
Q 3056 4750 3426 4639 
Q 3797 4528 4122 4306 
z
" transform="scale(0.015625)"/>
     </defs>
     <use xlink:href="#DejaVuSans-32"/>
     <use xlink:href="#DejaVuSans-30" x="63.623047"/>
     <use xlink:href="#DejaVuSans-32" x="127.246094"/>
     <use xlink:href="#DejaVuSans-35" x="190.869141"/>
     <use xlink:href="#DejaVuSans-2d" x="254.492188"/>
     <use xlink:href="#DejaVuSans-30" x="290.576172"/>
     <use xlink:href="#DejaVuSans-32" x="354.199219"/>
     <use xlink:href="#DejaVuSans-2d" x="417.822266"/>
     <use xlink:href="#DejaVuSans-30" x="453.90625"/>
     <use xlink:href="#DejaVuSans-36" x="517.529297"/>
     <use xlink:href="#DejaVuSans-20" x="581.152344"/>
     <use xlink:href="#DejaVuSans-31" x="612.939453"/>
     <use xlink:href="#DejaVuSans-31" x="676.5625"/>
     <use xlink:href="#DejaVuSans-3a" x="740.185547"/>
     <use xlink:href="#DejaVuSans-35" x="773.876953"/>
     <use xlink:href="#DejaVuSans-34" x="837.5"/>
     <use xlink:href="#DejaVuSans-20" x="901.123047"/>
     <use xlink:href="#DejaVuSans-55" x="932.910156"/>
     <use xlink:href="#DejaVuSans-54" x="1006.103516"/>
     <use xlink:href="#DejaVuSans-43" x="1061.3125"/>
    </g>
   </g>
   <g id="legend_1">
    <g id="patch_7">
     <path d="M 61.691875 134.888625 
L 170.660625 134.888625 
Q 172.660625 134.888625 172.660625 132.888625 
L 172.660625 31.14175 
Q 172.660625 29.14175 170.660625 29.14175 
L 61.691875 29.14175 
Q 59.691875 29.14175 59.691875 31.14175 
L 59.691875 132.888625 
Q 59.691875 134.888625 61.691875 134.888625 
z
" style="fill: #e5e5e5; opacity: 0.8; stroke: #cccccc; stroke-width: 0.5; stroke-linejoin: miter"/>
    </g>
    <g id="text_23">
     <!-- Distribution -->
     <g transform="translate(87.0075 40.740188) scale(0.1 -0.1)">
      <use xlink:href="#DejaVuSans-44"/>
      <use xlink:href="#DejaVuSans-69" x="77.001953"/>
      <use xlink:href="#DejaVuSans-73" x="104.785156"/>
      <use xlink:href="#DejaVuSans-74" x="156.884766"/>
      <use xlink:href="#DejaVuSans-72" x="196.09375"/>
      <use xlink:href="#DejaVuSans-69" x="237.207031"/>
      <use xlink:href="#DejaVuSans-62" x="264.990234"/>
      <use xlink:href="#DejaVuSans-75" x="328.466797"/>
      <use xlink:href="#DejaVuSans-74" x="391.845703"/>
      <use xlink:href="#DejaVuSans-69" x="431.054688"/>
      <use xlink:href="#DejaVuSans-6f" x="458.837891"/>
      <use xlink:href="#DejaVuSans-6e" x="520.019531"/>
     </g>
    </g>
    <g id="line2d_49">
     <path d="M 63.691875 51.918313 
L 73.691875 51.918313 
L 83.691875 51.918313 
" style="fill: none; stroke: #4ac1fa; stroke-width: 1.5; stroke-linecap: square"/>
    </g>
    <g id="text_24">
     <!-- AlmaLinux -->
     <g transform="translate(91.691875 55.418313) scale(0.1 -0.1)">
      <defs>
       <path id="DejaVuSans-41" d="M 2188 4044 
L 1331 1722 
L 3047 1722 
L 2188 4044 
z
M 1831 4666 
L 2547 4666 
L 4325 0 
L 3669 0 
L 3244 1197 
L 1141 1197 
L 716 0 
L 50 0 
L 1831 4666 
z
" transform="scale(0.015625)"/>
      </defs>
      <use xlink:href="#DejaVuSans-41"/>
      <use xlink:href="#DejaVuSans-6c" x="68.408203"/>
      <use xlink:href="#DejaVuSans-6d" x="96.191406"/>
      <use xlink:href="#DejaVuSans-61" x="193.603516"/>
      <use xlink:href="#DejaVuSans-4c" x="254.882812"/>
      <use xlink:href="#DejaVuSans-69" x="310.595703"/>
      <use xlink:href="#DejaVuSans-6e" x="338.378906"/>
      <use xlink:href="#DejaVuSans-75" x="401.757812"/>
      <use xlink:href="#DejaVuSans-78" x="465.136719"/>
     </g>
    </g>
    <g id="line2d_50">
     <path d="M 63.691875 66.596438 
L 73.691875 66.596438 
L 83.691875 66.596438 
" style="fill: none; stroke: #e9a942; stroke-width: 1.5; stroke-linecap: square"/>
    </g>
    <g id="text_25">
     <!-- CentOS Legacy -->
     <g transform="translate(91.691875 70.096438) scale(0.1 -0.1)">
      <defs>
       <path id="DejaVuSans-4f" d="M 2522 4238 
Q 1834 4238 1429 3725 
Q 1025 3213 1025 2328 
Q 1025 1447 1429 934 
Q 1834 422 2522 422 
Q 3209 422 3611 934 
Q 4013 1447 4013 2328 
Q 4013 3213 3611 3725 
Q 3209 4238 2522 4238 
z
M 2522 4750 
Q 3503 4750 4090 4092 
Q 4678 3434 4678 2328 
Q 4678 1225 4090 567 
Q 3503 -91 2522 -91 
Q 1538 -91 948 565 
Q 359 1222 359 2328 
Q 359 3434 948 4092 
Q 1538 4750 2522 4750 
z
" transform="scale(0.015625)"/>
       <path id="DejaVuSans-53" d="M 3425 4513 
L 3425 3897 
Q 3066 4069 2747 4153 
Q 2428 4238 2131 4238 
Q 1616 4238 1336 4038 
Q 1056 3838 1056 3469 
Q 1056 3159 1242 3001 
Q 1428 2844 1947 2747 
L 2328 2669 
Q 3034 2534 3370 2195 
Q 3706 1856 3706 1288 
Q 3706 609 3251 259 
Q 2797 -91 1919 -91 
Q 1588 -91 1214 -16 
Q 841 59 441 206 
L 441 856 
Q 825 641 1194 531 
Q 1563 422 1919 422 
Q 2459 422 2753 634 
Q 3047 847 3047 1241 
Q 3047 1584 2836 1778 
Q 2625 1972 2144 2069 
L 1759 2144 
Q 1053 2284 737 2584 
Q 422 2884 422 3419 
Q 422 4038 858 4394 
Q 1294 4750 2059 4750 
Q 2388 4750 2728 4690 
Q 3069 4631 3425 4513 
z
" transform="scale(0.015625)"/>
       <path id="DejaVuSans-67" d="M 2906 1791 
Q 2906 2416 2648 2759 
Q 2391 3103 1925 3103 
Q 1463 3103 1205 2759 
Q 947 2416 947 1791 
Q 947 1169 1205 825 
Q 1463 481 1925 481 
Q 2391 481 2648 825 
Q 2906 1169 2906 1791 
z
M 3481 434 
Q 3481 -459 3084 -895 
Q 2688 -1331 1869 -1331 
Q 1566 -1331 1297 -1286 
Q 1028 -1241 775 -1147 
L 775 -588 
Q 1028 -725 1275 -790 
Q 1522 -856 1778 -856 
Q 2344 -856 2625 -561 
Q 2906 -266 2906 331 
L 2906 616 
Q 2728 306 2450 153 
Q 2172 0 1784 0 
Q 1141 0 747 490 
Q 353 981 353 1791 
Q 353 2603 747 3093 
Q 1141 3584 1784 3584 
Q 2172 3584 2450 3431 
Q 2728 3278 2906 2969 
L 2906 3500 
L 3481 3500 
L 3481 434 
z
" transform="scale(0.015625)"/>
      </defs>
      <use xlink:href="#DejaVuSans-43"/>
      <use xlink:href="#DejaVuSans-65" x="69.824219"/>
      <use xlink:href="#DejaVuSans-6e" x="131.347656"/>
      <use xlink:href="#DejaVuSans-74" x="194.726562"/>
      <use xlink:href="#DejaVuSans-4f" x="233.935547"/>
      <use xlink:href="#DejaVuSans-53" x="312.646484"/>
      <use xlink:href="#DejaVuSans-20" x="376.123047"/>
      <use xlink:href="#DejaVuSans-4c" x="407.910156"/>
      <use xlink:href="#DejaVuSans-65" x="461.873047"/>
      <use xlink:href="#DejaVuSans-67" x="523.396484"/>
      <use xlink:href="#DejaVuSans-61" x="586.873047"/>
      <use xlink:href="#DejaVuSans-63" x="648.152344"/>
      <use xlink:href="#DejaVuSans-79" x="703.132812"/>
     </g>
    </g>
    <g id="line2d_51">
     <path d="M 63.691875 81.274563 
L 73.691875 81.274563 
L 83.691875 81.274563 
" style="fill: none; stroke: #9a5689; stroke-width: 1.5; stroke-linecap: square"/>
    </g>
    <g id="text_26">
     <!-- CentOS Stream -->
     <g transform="translate(91.691875 84.774563) scale(0.1 -0.1)">
      <use xlink:href="#DejaVuSans-43"/>
      <use xlink:href="#DejaVuSans-65" x="69.824219"/>
      <use xlink:href="#DejaVuSans-6e" x="131.347656"/>
      <use xlink:href="#DejaVuSans-74" x="194.726562"/>
      <use xlink:href="#DejaVuSans-4f" x="233.935547"/>
      <use xlink:href="#DejaVuSans-53" x="312.646484"/>
      <use xlink:href="#DejaVuSans-20" x="376.123047"/>
      <use xlink:href="#DejaVuSans-53" x="407.910156"/>
      <use xlink:href="#DejaVuSans-74" x="471.386719"/>
      <use xlink:href="#DejaVuSans-72" x="510.595703"/>
      <use xlink:href="#DejaVuSans-65" x="549.458984"/>
      <use xlink:href="#DejaVuSans-61" x="610.982422"/>
      <use xlink:href="#DejaVuSans-6d" x="672.261719"/>
     </g>
    </g>
    <g id="line2d_52">
     <path d="M 63.691875 95.952688 
L 73.691875 95.952688 
L 83.691875 95.952688 
" style="fill: none; stroke: #be503b; stroke-width: 1.5; stroke-linecap: square"/>
    </g>
    <g id="text_27">
     <!-- Oracle -->
     <g transform="translate(91.691875 99.452688) scale(0.1 -0.1)">
      <use xlink:href="#DejaVuSans-4f"/>
      <use xlink:href="#DejaVuSans-72" x="78.710938"/>
      <use xlink:href="#DejaVuSans-61" x="119.824219"/>
      <use xlink:href="#DejaVuSans-63" x="181.103516"/>
      <use xlink:href="#DejaVuSans-6c" x="236.083984"/>
      <use xlink:href="#DejaVuSans-65" x="263.867188"/>
     </g>
    </g>
    <g id="line2d_53">
     <path d="M 63.691875 110.630813 
L 73.691875 110.630813 
L 83.691875 110.630813 
" style="fill: none; stroke: #e2321d; stroke-width: 1.5; stroke-linecap: square"/>
    </g>
    <g id="text_28">
     <!-- RHEL -->
     <g transform="translate(91.691875 114.130813) scale(0.1 -0.1)">
      <defs>
       <path id="DejaVuSans-52" d="M 2841 2188 
Q 3044 2119 3236 1894 
Q 3428 1669 3622 1275 
L 4263 0 
L 3584 0 
L 2988 1197 
Q 2756 1666 2539 1819 
Q 2322 1972 1947 1972 
L 1259 1972 
L 1259 0 
L 628 0 
L 628 4666 
L 2053 4666 
Q 2853 4666 3247 4331 
Q 3641 3997 3641 3322 
Q 3641 2881 3436 2590 
Q 3231 2300 2841 2188 
z
M 1259 4147 
L 1259 2491 
L 2053 2491 
Q 2509 2491 2742 2702 
Q 2975 2913 2975 3322 
Q 2975 3731 2742 3939 
Q 2509 4147 2053 4147 
L 1259 4147 
z
" transform="scale(0.015625)"/>
       <path id="DejaVuSans-48" d="M 628 4666 
L 1259 4666 
L 1259 2753 
L 3553 2753 
L 3553 4666 
L 4184 4666 
L 4184 0 
L 3553 0 
L 3553 2222 
L 1259 2222 
L 1259 0 
L 628 0 
L 628 4666 
z
" transform="scale(0.015625)"/>
      </defs>
      <use xlink:href="#DejaVuSans-52"/>
      <use xlink:href="#DejaVuSans-48" x="69.482422"/>
      <use xlink:href="#DejaVuSans-45" x="144.677734"/>
      <use xlink:href="#DejaVuSans-4c" x="207.861328"/>
     </g>
    </g>
    <g id="line2d_54">
     <path d="M 63.691875 125.308938 
L 73.691875 125.308938 
L 83.691875 125.308938 
" style="fill: none; stroke: #48b585; stroke-width: 6; stroke-linecap: square"/>
    </g>
    <g id="text_29">
     <!-- Rocky Linux -->
     <g transform="translate(91.691875 128.808938) scale(0.1 -0.1)">
      <use xlink:href="#DejaVuSans-52"/>
      <use xlink:href="#DejaVuSans-6f" x="64.982422"/>
      <use xlink:href="#DejaVuSans-63" x="126.164062"/>
      <use xlink:href="#DejaVuSans-6b" x="181.144531"/>
      <use xlink:href="#DejaVuSans-79" x="235.429688"/>
      <use xlink:href="#DejaVuSans-20" x="294.609375"/>
      <use xlink:href="#DejaVuSans-4c" x="326.396484"/>
      <use xlink:href="#DejaVuSans-69" x="382.109375"/>
      <use xlink:href="#DejaVuSans-6e" x="409.892578"/>
      <use xlink:href="#DejaVuSans-75" x="473.271484"/>
      <use xlink:href="#DejaVuSans-78" x="536.650391"/>
     </g>
    </g>
   </g>
  </g>
 </g>
 <defs>
  <clipPath id="pf432051dcd">
   <rect x="54.691875" y="24.14175" width="902.844" height="554.4"/>
  </clipPath>
 </defs>
</svg>
