<?xml version="1.0" encoding="utf-8" standalone="no"?>
<!DOCTYPE svg PUBLIC "-//W3C//DTD SVG 1.1//EN"
  "http://www.w3.org/Graphics/SVG/1.1/DTD/svg11.dtd">
<svg xmlns:xlink="http://www.w3.org/1999/xlink" width="964.735875pt" height="644.743878pt" viewBox="0 0 964.735875 644.743878" xmlns="http://www.w3.org/2000/svg" version="1.1">
 <metadata>
  <rdf:RDF xmlns:dc="http://purl.org/dc/elements/1.1/" xmlns:cc="http://creativecommons.org/ns#" xmlns:rdf="http://www.w3.org/1999/02/22-rdf-syntax-ns#">
   <cc:Work>
    <dc:type rdf:resource="http://purl.org/dc/dcmitype/StillImage"/>
    <dc:date>2025-10-30T11:55:06.559575</dc:date>
    <dc:format>image/svg+xml</dc:format>
    <dc:creator>
     <cc:Agent>
      <dc:title>Matplotlib v3.6.3, https://matplotlib.org/</dc:title>
     </cc:Agent>
    </dc:creator>
   </cc:Work>
  </rdf:RDF>
 </metadata>
 <defs>
  <style type="text/css">*{stroke-linejoin: round; stroke-linecap: butt}</style>
 </defs>
 <g id="figure_1">
  <g id="patch_1">
   <path d="M 0 644.743878 
L 964.735875 644.743878 
L 964.735875 0 
L 0 0 
z
" style="fill: #ffffff"/>
  </g>
  <g id="axes_1">
   <g id="patch_2">
    <path d="M 54.691875 578.54175 
L 957.535875 578.54175 
L 957.535875 24.14175 
L 54.691875 24.14175 
z
" style="fill: #e5e5e5"/>
   </g>
   <g id="matplotlib.axis_1">
    <g id="xtick_1">
     <g id="line2d_1">
      <path d="M 79.573403 578.54175 
L 79.573403 24.14175 
" clip-path="url(#p392e617b38)" style="fill: none; stroke: #ffffff; stroke-width: 0.8; stroke-linecap: square"/>
     </g>
     <g id="line2d_2">
      <defs>
       <path id="mdac3f8b2f3" d="M 0 0 
L 0 3.5 
" style="stroke: #555555; stroke-width: 0.8"/>
      </defs>
      <g>
       <use xlink:href="#mdac3f8b2f3" x="79.573403" y="578.54175" style="fill: #555555; stroke: #555555; stroke-width: 0.8"/>
      </g>
     </g>
     <g id="text_1">
      <!-- 2021-01 -->
      <g style="fill: #555555" transform="translate(66.75212 620.459567) rotate(-45) scale(0.1 -0.1)">
       <defs>
        <path id="DejaVuSans-32" d="M 1228 531 
L 3431 531 
L 3431 0 
L 469 0 
L 469 531 
Q 828 903 1448 1529 
Q 2069 2156 2228 2338 
Q 2531 2678 2651 2914 
Q 2772 3150 2772 3378 
Q 2772 3750 2511 3984 
Q 2250 4219 1831 4219 
Q 1534 4219 1204 4116 
Q 875 4013 500 3803 
L 500 4441 
Q 881 4594 1212 4672 
Q 1544 4750 1819 4750 
Q 2544 4750 2975 4387 
Q 3406 4025 3406 3419 
Q 3406 3131 3298 2873 
Q 3191 2616 2906 2266 
Q 2828 2175 2409 1742 
Q 1991 1309 1228 531 
z
" transform="scale(0.015625)"/>
        <path id="DejaVuSans-30" d="M 2034 4250 
Q 1547 4250 1301 3770 
Q 1056 3291 1056 2328 
Q 1056 1369 1301 889 
Q 1547 409 2034 409 
Q 2525 409 2770 889 
Q 3016 1369 3016 2328 
Q 3016 3291 2770 3770 
Q 2525 4250 2034 4250 
z
M 2034 4750 
Q 2819 4750 3233 4129 
Q 3647 3509 3647 2328 
Q 3647 1150 3233 529 
Q 2819 -91 2034 -91 
Q 1250 -91 836 529 
Q 422 1150 422 2328 
Q 422 3509 836 4129 
Q 1250 4750 2034 4750 
z
" transform="scale(0.015625)"/>
        <path id="DejaVuSans-31" d="M 794 531 
L 1825 531 
L 1825 4091 
L 703 3866 
L 703 4441 
L 1819 4666 
L 2450 4666 
L 2450 531 
L 3481 531 
L 3481 0 
L 794 0 
L 794 531 
z
" transform="scale(0.015625)"/>
        <path id="DejaVuSans-2d" d="M 313 2009 
L 1997 2009 
L 1997 1497 
L 313 1497 
L 313 2009 
z
" transform="scale(0.015625)"/>
       </defs>
       <use xlink:href="#DejaVuSans-32"/>
       <use xlink:href="#DejaVuSans-30" x="63.623047"/>
       <use xlink:href="#DejaVuSans-32" x="127.246094"/>
       <use xlink:href="#DejaVuSans-31" x="190.869141"/>
       <use xlink:href="#DejaVuSans-2d" x="254.492188"/>
       <use xlink:href="#DejaVuSans-30" x="290.576172"/>
       <use xlink:href="#DejaVuSans-31" x="354.199219"/>
      </g>
     </g>
    </g>
    <g id="xtick_2">
     <g id="line2d_3">
      <path d="M 171.482719 578.54175 
L 171.482719 24.14175 
" clip-path="url(#p392e617b38)" style="fill: none; stroke: #ffffff; stroke-width: 0.8; stroke-linecap: square"/>
     </g>
     <g id="line2d_4">
      <g>
       <use xlink:href="#mdac3f8b2f3" x="171.482719" y="578.54175" style="fill: #555555; stroke: #555555; stroke-width: 0.8"/>
      </g>
     </g>
     <g id="text_2">
      <!-- 2021-07 -->
      <g style="fill: #555555" transform="translate(158.661436 620.459567) rotate(-45) scale(0.1 -0.1)">
       <defs>
        <path id="DejaVuSans-37" d="M 525 4666 
L 3525 4666 
L 3525 4397 
L 1831 0 
L 1172 0 
L 2766 4134 
L 525 4134 
L 525 4666 
z
" transform="scale(0.015625)"/>
       </defs>
       <use xlink:href="#DejaVuSans-32"/>
       <use xlink:href="#DejaVuSans-30" x="63.623047"/>
       <use xlink:href="#DejaVuSans-32" x="127.246094"/>
       <use xlink:href="#DejaVuSans-31" x="190.869141"/>
       <use xlink:href="#DejaVuSans-2d" x="254.492188"/>
       <use xlink:href="#DejaVuSans-30" x="290.576172"/>
       <use xlink:href="#DejaVuSans-37" x="354.199219"/>
      </g>
     </g>
    </g>
    <g id="xtick_3">
     <g id="line2d_5">
      <path d="M 218.199056 578.54175 
L 218.199056 24.14175 
" clip-path="url(#p392e617b38)" style="fill: none; stroke: #ffffff; stroke-width: 0.8; stroke-linecap: square"/>
     </g>
     <g id="line2d_6">
      <g>
       <use xlink:href="#mdac3f8b2f3" x="218.199056" y="578.54175" style="fill: #555555; stroke: #555555; stroke-width: 0.8"/>
      </g>
     </g>
     <g id="text_3">
      <!-- 2021-10 -->
      <g style="fill: #555555" transform="translate(205.377774 620.459567) rotate(-45) scale(0.1 -0.1)">
       <use xlink:href="#DejaVuSans-32"/>
       <use xlink:href="#DejaVuSans-30" x="63.623047"/>
       <use xlink:href="#DejaVuSans-32" x="127.246094"/>
       <use xlink:href="#DejaVuSans-31" x="190.869141"/>
       <use xlink:href="#DejaVuSans-2d" x="254.492188"/>
       <use xlink:href="#DejaVuSans-31" x="290.576172"/>
       <use xlink:href="#DejaVuSans-30" x="354.199219"/>
      </g>
     </g>
    </g>
    <g id="xtick_4">
     <g id="line2d_7">
      <path d="M 264.915394 578.54175 
L 264.915394 24.14175 
" clip-path="url(#p392e617b38)" style="fill: none; stroke: #ffffff; stroke-width: 0.8; stroke-linecap: square"/>
     </g>
     <g id="line2d_8">
      <g>
       <use xlink:href="#mdac3f8b2f3" x="264.915394" y="578.54175" style="fill: #555555; stroke: #555555; stroke-width: 0.8"/>
      </g>
     </g>
     <g id="text_4">
      <!-- 2022-01 -->
      <g style="fill: #555555" transform="translate(252.094111 620.459567) rotate(-45) scale(0.1 -0.1)">
       <use xlink:href="#DejaVuSans-32"/>
       <use xlink:href="#DejaVuSans-30" x="63.623047"/>
       <use xlink:href="#DejaVuSans-32" x="127.246094"/>
       <use xlink:href="#DejaVuSans-32" x="190.869141"/>
       <use xlink:href="#DejaVuSans-2d" x="254.492188"/>
       <use xlink:href="#DejaVuSans-30" x="290.576172"/>
       <use xlink:href="#DejaVuSans-31" x="354.199219"/>
      </g>
     </g>
    </g>
    <g id="xtick_5">
     <g id="line2d_9">
      <path d="M 356.82471 578.54175 
L 356.82471 24.14175 
" clip-path="url(#p392e617b38)" style="fill: none; stroke: #ffffff; stroke-width: 0.8; stroke-linecap: square"/>
     </g>
     <g id="line2d_10">
      <g>
       <use xlink:href="#mdac3f8b2f3" x="356.82471" y="578.54175" style="fill: #555555; stroke: #555555; stroke-width: 0.8"/>
      </g>
     </g>
     <g id="text_5">
      <!-- 2022-07 -->
      <g style="fill: #555555" transform="translate(344.003427 620.459567) rotate(-45) scale(0.1 -0.1)">
       <use xlink:href="#DejaVuSans-32"/>
       <use xlink:href="#DejaVuSans-30" x="63.623047"/>
       <use xlink:href="#DejaVuSans-32" x="127.246094"/>
       <use xlink:href="#DejaVuSans-32" x="190.869141"/>
       <use xlink:href="#DejaVuSans-2d" x="254.492188"/>
       <use xlink:href="#DejaVuSans-30" x="290.576172"/>
       <use xlink:href="#DejaVuSans-37" x="354.199219"/>
      </g>
     </g>
    </g>
    <g id="xtick_6">
     <g id="line2d_11">
      <path d="M 403.541047 578.54175 
L 403.541047 24.14175 
" clip-path="url(#p392e617b38)" style="fill: none; stroke: #ffffff; stroke-width: 0.8; stroke-linecap: square"/>
     </g>
     <g id="line2d_12">
      <g>
       <use xlink:href="#mdac3f8b2f3" x="403.541047" y="578.54175" style="fill: #555555; stroke: #555555; stroke-width: 0.8"/>
      </g>
     </g>
     <g id="text_6">
      <!-- 2022-10 -->
      <g style="fill: #555555" transform="translate(390.719765 620.459567) rotate(-45) scale(0.1 -0.1)">
       <use xlink:href="#DejaVuSans-32"/>
       <use xlink:href="#DejaVuSans-30" x="63.623047"/>
       <use xlink:href="#DejaVuSans-32" x="127.246094"/>
       <use xlink:href="#DejaVuSans-32" x="190.869141"/>
       <use xlink:href="#DejaVuSans-2d" x="254.492188"/>
       <use xlink:href="#DejaVuSans-31" x="290.576172"/>
       <use xlink:href="#DejaVuSans-30" x="354.199219"/>
      </g>
     </g>
    </g>
    <g id="xtick_7">
     <g id="line2d_13">
      <path d="M 450.257385 578.54175 
L 450.257385 24.14175 
" clip-path="url(#p392e617b38)" style="fill: none; stroke: #ffffff; stroke-width: 0.8; stroke-linecap: square"/>
     </g>
     <g id="line2d_14">
      <g>
       <use xlink:href="#mdac3f8b2f3" x="450.257385" y="578.54175" style="fill: #555555; stroke: #555555; stroke-width: 0.8"/>
      </g>
     </g>
     <g id="text_7">
      <!-- 2023-01 -->
      <g style="fill: #555555" transform="translate(437.436102 620.459567) rotate(-45) scale(0.1 -0.1)">
       <defs>
        <path id="DejaVuSans-33" d="M 2597 2516 
Q 3050 2419 3304 2112 
Q 3559 1806 3559 1356 
Q 3559 666 3084 287 
Q 2609 -91 1734 -91 
Q 1441 -91 1130 -33 
Q 819 25 488 141 
L 488 750 
Q 750 597 1062 519 
Q 1375 441 1716 441 
Q 2309 441 2620 675 
Q 2931 909 2931 1356 
Q 2931 1769 2642 2001 
Q 2353 2234 1838 2234 
L 1294 2234 
L 1294 2753 
L 1863 2753 
Q 2328 2753 2575 2939 
Q 2822 3125 2822 3475 
Q 2822 3834 2567 4026 
Q 2313 4219 1838 4219 
Q 1578 4219 1281 4162 
Q 984 4106 628 3988 
L 628 4550 
Q 988 4650 1302 4700 
Q 1616 4750 1894 4750 
Q 2613 4750 3031 4423 
Q 3450 4097 3450 3541 
Q 3450 3153 3228 2886 
Q 3006 2619 2597 2516 
z
" transform="scale(0.015625)"/>
       </defs>
       <use xlink:href="#DejaVuSans-32"/>
       <use xlink:href="#DejaVuSans-30" x="63.623047"/>
       <use xlink:href="#DejaVuSans-32" x="127.246094"/>
       <use xlink:href="#DejaVuSans-33" x="190.869141"/>
       <use xlink:href="#DejaVuSans-2d" x="254.492188"/>
       <use xlink:href="#DejaVuSans-30" x="290.576172"/>
       <use xlink:href="#DejaVuSans-31" x="354.199219"/>
      </g>
     </g>
    </g>
    <g id="xtick_8">
     <g id="line2d_15">
      <path d="M 542.166701 578.54175 
L 542.166701 24.14175 
" clip-path="url(#p392e617b38)" style="fill: none; stroke: #ffffff; stroke-width: 0.8; stroke-linecap: square"/>
     </g>
     <g id="line2d_16">
      <g>
       <use xlink:href="#mdac3f8b2f3" x="542.166701" y="578.54175" style="fill: #555555; stroke: #555555; stroke-width: 0.8"/>
      </g>
     </g>
     <g id="text_8">
      <!-- 2023-07 -->
      <g style="fill: #555555" transform="translate(529.345418 620.459567) rotate(-45) scale(0.1 -0.1)">
       <use xlink:href="#DejaVuSans-32"/>
       <use xlink:href="#DejaVuSans-30" x="63.623047"/>
       <use xlink:href="#DejaVuSans-32" x="127.246094"/>
       <use xlink:href="#DejaVuSans-33" x="190.869141"/>
       <use xlink:href="#DejaVuSans-2d" x="254.492188"/>
       <use xlink:href="#DejaVuSans-30" x="290.576172"/>
       <use xlink:href="#DejaVuSans-37" x="354.199219"/>
      </g>
     </g>
    </g>
    <g id="xtick_9">
     <g id="line2d_17">
      <path d="M 588.883038 578.54175 
L 588.883038 24.14175 
" clip-path="url(#p392e617b38)" style="fill: none; stroke: #ffffff; stroke-width: 0.8; stroke-linecap: square"/>
     </g>
     <g id="line2d_18">
      <g>
       <use xlink:href="#mdac3f8b2f3" x="588.883038" y="578.54175" style="fill: #555555; stroke: #555555; stroke-width: 0.8"/>
      </g>
     </g>
     <g id="text_9">
      <!-- 2023-10 -->
      <g style="fill: #555555" transform="translate(576.061756 620.459567) rotate(-45) scale(0.1 -0.1)">
       <use xlink:href="#DejaVuSans-32"/>
       <use xlink:href="#DejaVuSans-30" x="63.623047"/>
       <use xlink:href="#DejaVuSans-32" x="127.246094"/>
       <use xlink:href="#DejaVuSans-33" x="190.869141"/>
       <use xlink:href="#DejaVuSans-2d" x="254.492188"/>
       <use xlink:href="#DejaVuSans-31" x="290.576172"/>
       <use xlink:href="#DejaVuSans-30" x="354.199219"/>
      </g>
     </g>
    </g>
    <g id="xtick_10">
     <g id="line2d_19">
      <path d="M 635.599376 578.54175 
L 635.599376 24.14175 
" clip-path="url(#p392e617b38)" style="fill: none; stroke: #ffffff; stroke-width: 0.8; stroke-linecap: square"/>
     </g>
     <g id="line2d_20">
      <g>
       <use xlink:href="#mdac3f8b2f3" x="635.599376" y="578.54175" style="fill: #555555; stroke: #555555; stroke-width: 0.8"/>
      </g>
     </g>
     <g id="text_10">
      <!-- 2024-01 -->
      <g style="fill: #555555" transform="translate(622.778093 620.459567) rotate(-45) scale(0.1 -0.1)">
       <defs>
        <path id="DejaVuSans-34" d="M 2419 4116 
L 825 1625 
L 2419 1625 
L 2419 4116 
z
M 2253 4666 
L 3047 4666 
L 3047 1625 
L 3713 1625 
L 3713 1100 
L 3047 1100 
L 3047 0 
L 2419 0 
L 2419 1100 
L 313 1100 
L 313 1709 
L 2253 4666 
z
" transform="scale(0.015625)"/>
       </defs>
       <use xlink:href="#DejaVuSans-32"/>
       <use xlink:href="#DejaVuSans-30" x="63.623047"/>
       <use xlink:href="#DejaVuSans-32" x="127.246094"/>
       <use xlink:href="#DejaVuSans-34" x="190.869141"/>
       <use xlink:href="#DejaVuSans-2d" x="254.492188"/>
       <use xlink:href="#DejaVuSans-30" x="290.576172"/>
       <use xlink:href="#DejaVuSans-31" x="354.199219"/>
      </g>
     </g>
    </g>
    <g id="xtick_11">
     <g id="line2d_21">
      <path d="M 728.016478 578.54175 
L 728.016478 24.14175 
" clip-path="url(#p392e617b38)" style="fill: none; stroke: #ffffff; stroke-width: 0.8; stroke-linecap: square"/>
     </g>
     <g id="line2d_22">
      <g>
       <use xlink:href="#mdac3f8b2f3" x="728.016478" y="578.54175" style="fill: #555555; stroke: #555555; stroke-width: 0.8"/>
      </g>
     </g>
     <g id="text_11">
      <!-- 2024-07 -->
      <g style="fill: #555555" transform="translate(715.195196 620.459567) rotate(-45) scale(0.1 -0.1)">
       <use xlink:href="#DejaVuSans-32"/>
       <use xlink:href="#DejaVuSans-30" x="63.623047"/>
       <use xlink:href="#DejaVuSans-32" x="127.246094"/>
       <use xlink:href="#DejaVuSans-34" x="190.869141"/>
       <use xlink:href="#DejaVuSans-2d" x="254.492188"/>
       <use xlink:href="#DejaVuSans-30" x="290.576172"/>
       <use xlink:href="#DejaVuSans-37" x="354.199219"/>
      </g>
     </g>
    </g>
    <g id="xtick_12">
     <g id="line2d_23">
      <path d="M 774.732815 578.54175 
L 774.732815 24.14175 
" clip-path="url(#p392e617b38)" style="fill: none; stroke: #ffffff; stroke-width: 0.8; stroke-linecap: square"/>
     </g>
     <g id="line2d_24">
      <g>
       <use xlink:href="#mdac3f8b2f3" x="774.732815" y="578.54175" style="fill: #555555; stroke: #555555; stroke-width: 0.8"/>
      </g>
     </g>
     <g id="text_12">
      <!-- 2024-10 -->
      <g style="fill: #555555" transform="translate(761.911533 620.459567) rotate(-45) scale(0.1 -0.1)">
       <use xlink:href="#DejaVuSans-32"/>
       <use xlink:href="#DejaVuSans-30" x="63.623047"/>
       <use xlink:href="#DejaVuSans-32" x="127.246094"/>
       <use xlink:href="#DejaVuSans-34" x="190.869141"/>
       <use xlink:href="#DejaVuSans-2d" x="254.492188"/>
       <use xlink:href="#DejaVuSans-31" x="290.576172"/>
       <use xlink:href="#DejaVuSans-30" x="354.199219"/>
      </g>
     </g>
    </g>
    <g id="xtick_13">
     <g id="line2d_25">
      <path d="M 821.449153 578.54175 
L 821.449153 24.14175 
" clip-path="url(#p392e617b38)" style="fill: none; stroke: #ffffff; stroke-width: 0.8; stroke-linecap: square"/>
     </g>
     <g id="line2d_26">
      <g>
       <use xlink:href="#mdac3f8b2f3" x="821.449153" y="578.54175" style="fill: #555555; stroke: #555555; stroke-width: 0.8"/>
      </g>
     </g>
     <g id="text_13">
      <!-- 2025-01 -->
      <g style="fill: #555555" transform="translate(808.627871 620.459567) rotate(-45) scale(0.1 -0.1)">
       <defs>
        <path id="DejaVuSans-35" d="M 691 4666 
L 3169 4666 
L 3169 4134 
L 1269 4134 
L 1269 2991 
Q 1406 3038 1543 3061 
Q 1681 3084 1819 3084 
Q 2600 3084 3056 2656 
Q 3513 2228 3513 1497 
Q 3513 744 3044 326 
Q 2575 -91 1722 -91 
Q 1428 -91 1123 -41 
Q 819 9 494 109 
L 494 744 
Q 775 591 1075 516 
Q 1375 441 1709 441 
Q 2250 441 2565 725 
Q 2881 1009 2881 1497 
Q 2881 1984 2565 2268 
Q 2250 2553 1709 2553 
Q 1456 2553 1204 2497 
Q 953 2441 691 2322 
L 691 4666 
z
" transform="scale(0.015625)"/>
       </defs>
       <use xlink:href="#DejaVuSans-32"/>
       <use xlink:href="#DejaVuSans-30" x="63.623047"/>
       <use xlink:href="#DejaVuSans-32" x="127.246094"/>
       <use xlink:href="#DejaVuSans-35" x="190.869141"/>
       <use xlink:href="#DejaVuSans-2d" x="254.492188"/>
       <use xlink:href="#DejaVuSans-30" x="290.576172"/>
       <use xlink:href="#DejaVuSans-31" x="354.199219"/>
      </g>
     </g>
    </g>
    <g id="xtick_14">
     <g id="line2d_27">
      <path d="M 913.358469 578.54175 
L 913.358469 24.14175 
" clip-path="url(#p392e617b38)" style="fill: none; stroke: #ffffff; stroke-width: 0.8; stroke-linecap: square"/>
     </g>
     <g id="line2d_28">
      <g>
       <use xlink:href="#mdac3f8b2f3" x="913.358469" y="578.54175" style="fill: #555555; stroke: #555555; stroke-width: 0.8"/>
      </g>
     </g>
     <g id="text_14">
      <!-- 2025-07 -->
      <g style="fill: #555555" transform="translate(900.537187 620.459567) rotate(-45) scale(0.1 -0.1)">
       <use xlink:href="#DejaVuSans-32"/>
       <use xlink:href="#DejaVuSans-30" x="63.623047"/>
       <use xlink:href="#DejaVuSans-32" x="127.246094"/>
       <use xlink:href="#DejaVuSans-35" x="190.869141"/>
       <use xlink:href="#DejaVuSans-2d" x="254.492188"/>
       <use xlink:href="#DejaVuSans-30" x="290.576172"/>
       <use xlink:href="#DejaVuSans-37" x="354.199219"/>
      </g>
     </g>
    </g>
    <g id="text_15">
     <!-- Date -->
     <g style="fill: #555555" transform="translate(491.772938 635.048253) scale(0.12 -0.12)">
      <defs>
       <path id="DejaVuSans-44" d="M 1259 4147 
L 1259 519 
L 2022 519 
Q 2988 519 3436 956 
Q 3884 1394 3884 2338 
Q 3884 3275 3436 3711 
Q 2988 4147 2022 4147 
L 1259 4147 
z
M 628 4666 
L 1925 4666 
Q 3281 4666 3915 4102 
Q 4550 3538 4550 2338 
Q 4550 1131 3912 565 
Q 3275 0 1925 0 
L 628 0 
L 628 4666 
z
" transform="scale(0.015625)"/>
       <path id="DejaVuSans-61" d="M 2194 1759 
Q 1497 1759 1228 1600 
Q 959 1441 959 1056 
Q 959 750 1161 570 
Q 1363 391 1709 391 
Q 2188 391 2477 730 
Q 2766 1069 2766 1631 
L 2766 1759 
L 2194 1759 
z
M 3341 1997 
L 3341 0 
L 2766 0 
L 2766 531 
Q 2569 213 2275 61 
Q 1981 -91 1556 -91 
Q 1019 -91 701 211 
Q 384 513 384 1019 
Q 384 1609 779 1909 
Q 1175 2209 1959 2209 
L 2766 2209 
L 2766 2266 
Q 2766 2663 2505 2880 
Q 2244 3097 1772 3097 
Q 1472 3097 1187 3025 
Q 903 2953 641 2809 
L 641 3341 
Q 956 3463 1253 3523 
Q 1550 3584 1831 3584 
Q 2591 3584 2966 3190 
Q 3341 2797 3341 1997 
z
" transform="scale(0.015625)"/>
       <path id="DejaVuSans-74" d="M 1172 4494 
L 1172 3500 
L 2356 3500 
L 2356 3053 
L 1172 3053 
L 1172 1153 
Q 1172 725 1289 603 
Q 1406 481 1766 481 
L 2356 481 
L 2356 0 
L 1766 0 
Q 1100 0 847 248 
Q 594 497 594 1153 
L 594 3053 
L 172 3053 
L 172 3500 
L 594 3500 
L 594 4494 
L 1172 4494 
z
" transform="scale(0.015625)"/>
       <path id="DejaVuSans-65" d="M 3597 1894 
L 3597 1613 
L 953 1613 
Q 991 1019 1311 708 
Q 1631 397 2203 397 
Q 2534 397 2845 478 
Q 3156 559 3463 722 
L 3463 178 
Q 3153 47 2828 -22 
Q 2503 -91 2169 -91 
Q 1331 -91 842 396 
Q 353 884 353 1716 
Q 353 2575 817 3079 
Q 1281 3584 2069 3584 
Q 2775 3584 3186 3129 
Q 3597 2675 3597 1894 
z
M 3022 2063 
Q 3016 2534 2758 2815 
Q 2500 3097 2075 3097 
Q 1594 3097 1305 2825 
Q 1016 2553 972 2059 
L 3022 2063 
z
" transform="scale(0.015625)"/>
      </defs>
      <use xlink:href="#DejaVuSans-44"/>
      <use xlink:href="#DejaVuSans-61" x="77.001953"/>
      <use xlink:href="#DejaVuSans-74" x="138.28125"/>
      <use xlink:href="#DejaVuSans-65" x="177.490234"/>
     </g>
    </g>
   </g>
   <g id="matplotlib.axis_2">
    <g id="ytick_1">
     <g id="line2d_29">
      <path d="M 54.691875 578.54175 
L 957.535875 578.54175 
" clip-path="url(#p392e617b38)" style="fill: none; stroke: #ffffff; stroke-width: 0.8; stroke-linecap: square"/>
     </g>
     <g id="line2d_30">
      <defs>
       <path id="m3164e9ae21" d="M 0 0 
L -3.5 0 
" style="stroke: #555555; stroke-width: 0.8"/>
      </defs>
      <g>
       <use xlink:href="#m3164e9ae21" x="54.691875" y="578.54175" style="fill: #555555; stroke: #555555; stroke-width: 0.8"/>
      </g>
     </g>
     <g id="text_16">
      <!-- 0k -->
      <g style="fill: #555555" transform="translate(35.53875 582.340969) scale(0.1 -0.1)">
       <defs>
        <path id="DejaVuSans-6b" d="M 581 4863 
L 1159 4863 
L 1159 1991 
L 2875 3500 
L 3609 3500 
L 1753 1863 
L 3688 0 
L 2938 0 
L 1159 1709 
L 1159 0 
L 581 0 
L 581 4863 
z
" transform="scale(0.015625)"/>
       </defs>
       <use xlink:href="#DejaVuSans-30"/>
       <use xlink:href="#DejaVuSans-6b" x="63.623047"/>
      </g>
     </g>
    </g>
    <g id="ytick_2">
     <g id="line2d_31">
      <path d="M 54.691875 511.100267 
L 957.535875 511.100267 
" clip-path="url(#p392e617b38)" style="fill: none; stroke: #ffffff; stroke-width: 0.8; stroke-linecap: square"/>
     </g>
     <g id="line2d_32">
      <g>
       <use xlink:href="#m3164e9ae21" x="54.691875" y="511.100267" style="fill: #555555; stroke: #555555; stroke-width: 0.8"/>
      </g>
     </g>
     <g id="text_17">
      <!-- 100k -->
      <g style="fill: #555555" transform="translate(22.81375 514.899485) scale(0.1 -0.1)">
       <use xlink:href="#DejaVuSans-31"/>
       <use xlink:href="#DejaVuSans-30" x="63.623047"/>
       <use xlink:href="#DejaVuSans-30" x="127.246094"/>
       <use xlink:href="#DejaVuSans-6b" x="190.869141"/>
      </g>
     </g>
    </g>
    <g id="ytick_3">
     <g id="line2d_33">
      <path d="M 54.691875 443.658783 
L 957.535875 443.658783 
" clip-path="url(#p392e617b38)" style="fill: none; stroke: #ffffff; stroke-width: 0.8; stroke-linecap: square"/>
     </g>
     <g id="line2d_34">
      <g>
       <use xlink:href="#m3164e9ae21" x="54.691875" y="443.658783" style="fill: #555555; stroke: #555555; stroke-width: 0.8"/>
      </g>
     </g>
     <g id="text_18">
      <!-- 200k -->
      <g style="fill: #555555" transform="translate(22.81375 447.458002) scale(0.1 -0.1)">
       <use xlink:href="#DejaVuSans-32"/>
       <use xlink:href="#DejaVuSans-30" x="63.623047"/>
       <use xlink:href="#DejaVuSans-30" x="127.246094"/>
       <use xlink:href="#DejaVuSans-6b" x="190.869141"/>
      </g>
     </g>
    </g>
    <g id="ytick_4">
     <g id="line2d_35">
      <path d="M 54.691875 376.2173 
L 957.535875 376.2173 
" clip-path="url(#p392e617b38)" style="fill: none; stroke: #ffffff; stroke-width: 0.8; stroke-linecap: square"/>
     </g>
     <g id="line2d_36">
      <g>
       <use xlink:href="#m3164e9ae21" x="54.691875" y="376.2173" style="fill: #555555; stroke: #555555; stroke-width: 0.8"/>
      </g>
     </g>
     <g id="text_19">
      <!-- 300k -->
      <g style="fill: #555555" transform="translate(22.81375 380.016518) scale(0.1 -0.1)">
       <use xlink:href="#DejaVuSans-33"/>
       <use xlink:href="#DejaVuSans-30" x="63.623047"/>
       <use xlink:href="#DejaVuSans-30" x="127.246094"/>
       <use xlink:href="#DejaVuSans-6b" x="190.869141"/>
      </g>
     </g>
    </g>
    <g id="ytick_5">
     <g id="line2d_37">
      <path d="M 54.691875 308.775816 
L 957.535875 308.775816 
" clip-path="url(#p392e617b38)" style="fill: none; stroke: #ffffff; stroke-width: 0.8; stroke-linecap: square"/>
     </g>
     <g id="line2d_38">
      <g>
       <use xlink:href="#m3164e9ae21" x="54.691875" y="308.775816" style="fill: #555555; stroke: #555555; stroke-width: 0.8"/>
      </g>
     </g>
     <g id="text_20">
      <!-- 400k -->
      <g style="fill: #555555" transform="translate(22.81375 312.575035) scale(0.1 -0.1)">
       <use xlink:href="#DejaVuSans-34"/>
       <use xlink:href="#DejaVuSans-30" x="63.623047"/>
       <use xlink:href="#DejaVuSans-30" x="127.246094"/>
       <use xlink:href="#DejaVuSans-6b" x="190.869141"/>
      </g>
     </g>
    </g>
    <g id="ytick_6">
     <g id="line2d_39">
      <path d="M 54.691875 241.334333 
L 957.535875 241.334333 
" clip-path="url(#p392e617b38)" style="fill: none; stroke: #ffffff; stroke-width: 0.8; stroke-linecap: square"/>
     </g>
     <g id="line2d_40">
      <g>
       <use xlink:href="#m3164e9ae21" x="54.691875" y="241.334333" style="fill: #555555; stroke: #555555; stroke-width: 0.8"/>
      </g>
     </g>
     <g id="text_21">
      <!-- 500k -->
      <g style="fill: #555555" transform="translate(22.81375 245.133551) scale(0.1 -0.1)">
       <use xlink:href="#DejaVuSans-35"/>
       <use xlink:href="#DejaVuSans-30" x="63.623047"/>
       <use xlink:href="#DejaVuSans-30" x="127.246094"/>
       <use xlink:href="#DejaVuSans-6b" x="190.869141"/>
      </g>
     </g>
    </g>
    <g id="ytick_7">
     <g id="line2d_41">
      <path d="M 54.691875 173.892849 
L 957.535875 173.892849 
" clip-path="url(#p392e617b38)" style="fill: none; stroke: #ffffff; stroke-width: 0.8; stroke-linecap: square"/>
     </g>
     <g id="line2d_42">
      <g>
       <use xlink:href="#m3164e9ae21" x="54.691875" y="173.892849" style="fill: #555555; stroke: #555555; stroke-width: 0.8"/>
      </g>
     </g>
     <g id="text_22">
      <!-- 600k -->
      <g style="fill: #555555" transform="translate(22.81375 177.692068) scale(0.1 -0.1)">
       <defs>
        <path id="DejaVuSans-36" d="M 2113 2584 
Q 1688 2584 1439 2293 
Q 1191 2003 1191 1497 
Q 1191 994 1439 701 
Q 1688 409 2113 409 
Q 2538 409 2786 701 
Q 3034 994 3034 1497 
Q 3034 2003 2786 2293 
Q 2538 2584 2113 2584 
z
M 3366 4563 
L 3366 3988 
Q 3128 4100 2886 4159 
Q 2644 4219 2406 4219 
Q 1781 4219 1451 3797 
Q 1122 3375 1075 2522 
Q 1259 2794 1537 2939 
Q 1816 3084 2150 3084 
Q 2853 3084 3261 2657 
Q 3669 2231 3669 1497 
Q 3669 778 3244 343 
Q 2819 -91 2113 -91 
Q 1303 -91 875 529 
Q 447 1150 447 2328 
Q 447 3434 972 4092 
Q 1497 4750 2381 4750 
Q 2619 4750 2861 4703 
Q 3103 4656 3366 4563 
z
" transform="scale(0.015625)"/>
       </defs>
       <use xlink:href="#DejaVuSans-36"/>
       <use xlink:href="#DejaVuSans-30" x="63.623047"/>
       <use xlink:href="#DejaVuSans-30" x="127.246094"/>
       <use xlink:href="#DejaVuSans-6b" x="190.869141"/>
      </g>
     </g>
    </g>
    <g id="ytick_8">
     <g id="line2d_43">
      <path d="M 54.691875 106.451366 
L 957.535875 106.451366 
" clip-path="url(#p392e617b38)" style="fill: none; stroke: #ffffff; stroke-width: 0.8; stroke-linecap: square"/>
     </g>
     <g id="line2d_44">
      <g>
       <use xlink:href="#m3164e9ae21" x="54.691875" y="106.451366" style="fill: #555555; stroke: #555555; stroke-width: 0.8"/>
      </g>
     </g>
     <g id="text_23">
      <!-- 700k -->
      <g style="fill: #555555" transform="translate(22.81375 110.250584) scale(0.1 -0.1)">
       <use xlink:href="#DejaVuSans-37"/>
       <use xlink:href="#DejaVuSans-30" x="63.623047"/>
       <use xlink:href="#DejaVuSans-30" x="127.246094"/>
       <use xlink:href="#DejaVuSans-6b" x="190.869141"/>
      </g>
     </g>
    </g>
    <g id="ytick_9">
     <g id="line2d_45">
      <path d="M 54.691875 39.009882 
L 957.535875 39.009882 
" clip-path="url(#p392e617b38)" style="fill: none; stroke: #ffffff; stroke-width: 0.8; stroke-linecap: square"/>
     </g>
     <g id="line2d_46">
      <g>
       <use xlink:href="#m3164e9ae21" x="54.691875" y="39.009882" style="fill: #555555; stroke: #555555; stroke-width: 0.8"/>
      </g>
     </g>
     <g id="text_24">
      <!-- 800k -->
      <g style="fill: #555555" transform="translate(22.81375 42.809101) scale(0.1 -0.1)">
       <defs>
        <path id="DejaVuSans-38" d="M 2034 2216 
Q 1584 2216 1326 1975 
Q 1069 1734 1069 1313 
Q 1069 891 1326 650 
Q 1584 409 2034 409 
Q 2484 409 2743 651 
Q 3003 894 3003 1313 
Q 3003 1734 2745 1975 
Q 2488 2216 2034 2216 
z
M 1403 2484 
Q 997 2584 770 2862 
Q 544 3141 544 3541 
Q 544 4100 942 4425 
Q 1341 4750 2034 4750 
Q 2731 4750 3128 4425 
Q 3525 4100 3525 3541 
Q 3525 3141 3298 2862 
Q 3072 2584 2669 2484 
Q 3125 2378 3379 2068 
Q 3634 1759 3634 1313 
Q 3634 634 3220 271 
Q 2806 -91 2034 -91 
Q 1263 -91 848 271 
Q 434 634 434 1313 
Q 434 1759 690 2068 
Q 947 2378 1403 2484 
z
M 1172 3481 
Q 1172 3119 1398 2916 
Q 1625 2713 2034 2713 
Q 2441 2713 2670 2916 
Q 2900 3119 2900 3481 
Q 2900 3844 2670 4047 
Q 2441 4250 2034 4250 
Q 1625 4250 1398 4047 
Q 1172 3844 1172 3481 
z
" transform="scale(0.015625)"/>
       </defs>
       <use xlink:href="#DejaVuSans-38"/>
       <use xlink:href="#DejaVuSans-30" x="63.623047"/>
       <use xlink:href="#DejaVuSans-30" x="127.246094"/>
       <use xlink:href="#DejaVuSans-6b" x="190.869141"/>
      </g>
     </g>
    </g>
    <g id="text_25">
     <!-- Instances -->
     <g style="fill: #555555" transform="translate(16.318125 329.988) rotate(-90) scale(0.12 -0.12)">
      <defs>
       <path id="DejaVuSans-49" d="M 628 4666 
L 1259 4666 
L 1259 0 
L 628 0 
L 628 4666 
z
" transform="scale(0.015625)"/>
       <path id="DejaVuSans-6e" d="M 3513 2113 
L 3513 0 
L 2938 0 
L 2938 2094 
Q 2938 2591 2744 2837 
Q 2550 3084 2163 3084 
Q 1697 3084 1428 2787 
Q 1159 2491 1159 1978 
L 1159 0 
L 581 0 
L 581 3500 
L 1159 3500 
L 1159 2956 
Q 1366 3272 1645 3428 
Q 1925 3584 2291 3584 
Q 2894 3584 3203 3211 
Q 3513 2838 3513 2113 
z
" transform="scale(0.015625)"/>
       <path id="DejaVuSans-73" d="M 2834 3397 
L 2834 2853 
Q 2591 2978 2328 3040 
Q 2066 3103 1784 3103 
Q 1356 3103 1142 2972 
Q 928 2841 928 2578 
Q 928 2378 1081 2264 
Q 1234 2150 1697 2047 
L 1894 2003 
Q 2506 1872 2764 1633 
Q 3022 1394 3022 966 
Q 3022 478 2636 193 
Q 2250 -91 1575 -91 
Q 1294 -91 989 -36 
Q 684 19 347 128 
L 347 722 
Q 666 556 975 473 
Q 1284 391 1588 391 
Q 1994 391 2212 530 
Q 2431 669 2431 922 
Q 2431 1156 2273 1281 
Q 2116 1406 1581 1522 
L 1381 1569 
Q 847 1681 609 1914 
Q 372 2147 372 2553 
Q 372 3047 722 3315 
Q 1072 3584 1716 3584 
Q 2034 3584 2315 3537 
Q 2597 3491 2834 3397 
z
" transform="scale(0.015625)"/>
       <path id="DejaVuSans-63" d="M 3122 3366 
L 3122 2828 
Q 2878 2963 2633 3030 
Q 2388 3097 2138 3097 
Q 1578 3097 1268 2742 
Q 959 2388 959 1747 
Q 959 1106 1268 751 
Q 1578 397 2138 397 
Q 2388 397 2633 464 
Q 2878 531 3122 666 
L 3122 134 
Q 2881 22 2623 -34 
Q 2366 -91 2075 -91 
Q 1284 -91 818 406 
Q 353 903 353 1747 
Q 353 2603 823 3093 
Q 1294 3584 2113 3584 
Q 2378 3584 2631 3529 
Q 2884 3475 3122 3366 
z
" transform="scale(0.015625)"/>
      </defs>
      <use xlink:href="#DejaVuSans-49"/>
      <use xlink:href="#DejaVuSans-6e" x="29.492188"/>
      <use xlink:href="#DejaVuSans-73" x="92.871094"/>
      <use xlink:href="#DejaVuSans-74" x="144.970703"/>
      <use xlink:href="#DejaVuSans-61" x="184.179688"/>
      <use xlink:href="#DejaVuSans-6e" x="245.458984"/>
      <use xlink:href="#DejaVuSans-63" x="308.837891"/>
      <use xlink:href="#DejaVuSans-65" x="363.818359"/>
      <use xlink:href="#DejaVuSans-73" x="425.341797"/>
     </g>
    </g>
   </g>
   <g id="line2d_47">
    <path d="M 54.691875 634.036288 
L 63.811511 631.374093 
L 72.931148 628.711898 
L 82.050784 626.049702 
L 91.17042 623.387507 
L 100.290057 620.725312 
L 109.409693 618.063117 
L 118.52933 615.400922 
L 127.648966 612.738726 
L 136.768602 610.076531 
L 145.888239 607.414336 
L 155.007875 604.752141 
L 164.127511 602.089945 
L 173.247148 599.42775 
L 182.366784 596.765555 
L 191.48642 594.10336 
L 200.606057 591.441165 
L 209.725693 588.778969 
L 218.84533 586.116774 
L 227.964966 583.454579 
L 237.084602 580.792384 
L 246.204239 578.130189 
L 255.323875 575.467993 
L 264.443511 572.805798 
L 273.563148 570.143603 
L 282.682784 567.481408 
L 291.80242 564.819213 
L 300.922057 562.157017 
L 310.041693 559.494822 
L 319.16133 556.832627 
L 328.280966 554.170432 
L 337.400602 551.508236 
L 346.520239 548.846041 
L 355.639875 546.183846 
L 364.759511 543.521651 
L 373.879148 540.859456 
L 382.998784 538.19726 
L 392.11842 535.535065 
L 401.238057 532.87287 
L 410.357693 530.210675 
L 419.47733 527.54848 
L 428.596966 524.886284 
L 437.716602 522.224089 
L 446.836239 519.561894 
L 455.955875 516.899699 
L 465.075511 514.237504 
L 474.195148 511.575308 
L 483.314784 508.913113 
L 492.43442 506.250918 
L 501.554057 503.588723 
L 510.673693 500.926527 
L 519.79333 498.264332 
L 528.912966 495.602137 
L 538.032602 492.939942 
L 547.152239 490.277747 
L 556.271875 487.615551 
L 565.391511 484.953356 
L 574.511148 482.291161 
L 583.630784 479.628966 
L 592.75042 476.966771 
L 601.870057 474.304575 
L 610.989693 471.64238 
L 620.10933 468.980185 
L 629.228966 466.31799 
L 638.348602 463.655794 
L 647.468239 460.993599 
L 656.587875 458.331404 
L 665.707511 455.669209 
L 674.827148 453.007014 
L 683.946784 450.344818 
L 693.06642 447.682623 
L 702.186057 445.020428 
L 711.305693 442.358233 
L 720.42533 439.696038 
L 729.544966 437.033842 
L 738.664602 434.371647 
L 747.784239 431.709452 
L 756.903875 429.047257 
L 766.023511 426.385062 
L 775.143148 423.722866 
L 784.262784 421.060671 
L 793.38242 418.398476 
L 802.502057 415.736281 
L 811.621693 413.074085 
L 820.74133 410.41189 
L 829.860966 407.749695 
L 838.980602 405.0875 
L 848.100239 402.425305 
L 857.219875 399.763109 
L 866.339511 397.100914 
L 875.459148 394.438719 
L 884.578784 391.776524 
L 893.69842 389.114329 
L 902.818057 386.452133 
L 911.937693 383.789938 
L 921.05733 381.127743 
L 930.176966 378.465548 
L 939.296602 375.803353 
L 948.416239 373.141157 
L 957.535875 370.478962 
" clip-path="url(#p392e617b38)" style="fill: none; stroke-dasharray: 3,4.95; stroke-dashoffset: 0; stroke: #4ac1fa; stroke-opacity: 0.9; stroke-width: 3"/>
   </g>
   <g id="line2d_48">
    <path d="M 54.691875 442.483967 
L 63.811511 443.65868 
L 72.931148 444.833394 
L 82.050784 446.008107 
L 91.17042 447.182821 
L 100.290057 448.357534 
L 109.409693 449.532247 
L 118.52933 450.706961 
L 127.648966 451.881674 
L 136.768602 453.056388 
L 145.888239 454.231101 
L 155.007875 455.405814 
L 164.127511 456.580528 
L 173.247148 457.755241 
L 182.366784 458.929955 
L 191.48642 460.104668 
L 200.606057 461.279381 
L 209.725693 462.454095 
L 218.84533 463.628808 
L 227.964966 464.803522 
L 237.084602 465.978235 
L 246.204239 467.152948 
L 255.323875 468.327662 
L 264.443511 469.502375 
L 273.563148 470.677089 
L 282.682784 471.851802 
L 291.80242 473.026516 
L 300.922057 474.201229 
L 310.041693 475.375942 
L 319.16133 476.550656 
L 328.280966 477.725369 
L 337.400602 478.900083 
L 346.520239 480.074796 
L 355.639875 481.249509 
L 364.759511 482.424223 
L 373.879148 483.598936 
L 382.998784 484.77365 
L 392.11842 485.948363 
L 401.238057 487.123076 
L 410.357693 488.29779 
L 419.47733 489.472503 
L 428.596966 490.647217 
L 437.716602 491.82193 
L 446.836239 492.996643 
L 455.955875 494.171357 
L 465.075511 495.34607 
L 474.195148 496.520784 
L 483.314784 497.695497 
L 492.43442 498.87021 
L 501.554057 500.044924 
L 510.673693 501.219637 
L 519.79333 502.394351 
L 528.912966 503.569064 
L 538.032602 504.743778 
L 547.152239 505.918491 
L 556.271875 507.093204 
L 565.391511 508.267918 
L 574.511148 509.442631 
L 583.630784 510.617345 
L 592.75042 511.792058 
L 601.870057 512.966771 
L 610.989693 514.141485 
L 620.10933 515.316198 
L 629.228966 516.490912 
L 638.348602 517.665625 
L 647.468239 518.840338 
L 656.587875 520.015052 
L 665.707511 521.189765 
L 674.827148 522.364479 
L 683.946784 523.539192 
L 693.06642 524.713905 
L 702.186057 525.888619 
L 711.305693 527.063332 
L 720.42533 528.238046 
L 729.544966 529.412759 
L 738.664602 530.587472 
L 747.784239 531.762186 
L 756.903875 532.936899 
L 766.023511 534.111613 
L 775.143148 535.286326 
L 784.262784 536.46104 
L 793.38242 537.635753 
L 802.502057 538.810466 
L 811.621693 539.98518 
L 820.74133 541.159893 
L 829.860966 542.334607 
L 838.980602 543.50932 
L 848.100239 544.684033 
L 857.219875 545.858747 
L 866.339511 547.03346 
L 875.459148 548.208174 
L 884.578784 549.382887 
L 893.69842 550.5576 
L 902.818057 551.732314 
L 911.937693 552.907027 
L 921.05733 554.081741 
L 930.176966 555.256454 
L 939.296602 556.431167 
L 948.416239 557.605881 
L 957.535875 558.780594 
" clip-path="url(#p392e617b38)" style="fill: none; stroke-dasharray: 3,4.95; stroke-dashoffset: 0; stroke: #e9a942; stroke-opacity: 0.9; stroke-width: 3"/>
   </g>
   <g id="line2d_49">
    <path d="M 54.691875 570.607271 
L 63.811511 570.101649 
L 72.931148 569.596027 
L 82.050784 569.090404 
L 91.17042 568.584782 
L 100.290057 568.079159 
L 109.409693 567.573537 
L 118.52933 567.067914 
L 127.648966 566.562292 
L 136.768602 566.056669 
L 145.888239 565.551047 
L 155.007875 565.045424 
L 164.127511 564.539802 
L 173.247148 564.034179 
L 182.366784 563.528557 
L 191.48642 563.022934 
L 200.606057 562.517312 
L 209.725693 562.011689 
L 218.84533 561.506067 
L 227.964966 561.000444 
L 237.084602 560.494822 
L 246.204239 559.989199 
L 255.323875 559.483577 
L 264.443511 558.977954 
L 273.563148 558.472332 
L 282.682784 557.966709 
L 291.80242 557.461087 
L 300.922057 556.955464 
L 310.041693 556.449842 
L 319.16133 555.944219 
L 328.280966 555.438597 
L 337.400602 554.932974 
L 346.520239 554.427352 
L 355.639875 553.921729 
L 364.759511 553.416107 
L 373.879148 552.910484 
L 382.998784 552.404862 
L 392.11842 551.899239 
L 401.238057 551.393617 
L 410.357693 550.887994 
L 419.47733 550.382372 
L 428.596966 549.876749 
L 437.716602 549.371127 
L 446.836239 548.865504 
L 455.955875 548.359882 
L 465.075511 547.854259 
L 474.195148 547.348637 
L 483.314784 546.843014 
L 492.43442 546.337392 
L 501.554057 545.831769 
L 510.673693 545.326147 
L 519.79333 544.820524 
L 528.912966 544.314902 
L 538.032602 543.809279 
L 547.152239 543.303657 
L 556.271875 542.798034 
L 565.391511 542.292412 
L 574.511148 541.786789 
L 583.630784 541.281167 
L 592.75042 540.775544 
L 601.870057 540.269922 
L 610.989693 539.764299 
L 620.10933 539.258677 
L 629.228966 538.753054 
L 638.348602 538.247432 
L 647.468239 537.741809 
L 656.587875 537.236187 
L 665.707511 536.730564 
L 674.827148 536.224942 
L 683.946784 535.719319 
L 693.06642 535.213697 
L 702.186057 534.708074 
L 711.305693 534.202452 
L 720.42533 533.696829 
L 729.544966 533.191207 
L 738.664602 532.685585 
L 747.784239 532.179962 
L 756.903875 531.67434 
L 766.023511 531.168717 
L 775.143148 530.663095 
L 784.262784 530.157472 
L 793.38242 529.65185 
L 802.502057 529.146227 
L 811.621693 528.640605 
L 820.74133 528.134982 
L 829.860966 527.62936 
L 838.980602 527.123737 
L 848.100239 526.618115 
L 857.219875 526.112492 
L 866.339511 525.60687 
L 875.459148 525.101247 
L 884.578784 524.595625 
L 893.69842 524.090002 
L 902.818057 523.58438 
L 911.937693 523.078757 
L 921.05733 522.573135 
L 930.176966 522.067512 
L 939.296602 521.56189 
L 948.416239 521.056267 
L 957.535875 520.550645 
" clip-path="url(#p392e617b38)" style="fill: none; stroke-dasharray: 3,4.95; stroke-dashoffset: 0; stroke: #9a5689; stroke-opacity: 0.9; stroke-width: 3"/>
   </g>
   <g id="line2d_50">
    <path d="M 54.691875 581.852161 
L 63.811511 581.310827 
L 72.931148 580.769493 
L 82.050784 580.228159 
L 91.17042 579.686825 
L 100.290057 579.14549 
L 109.409693 578.604156 
L 118.52933 578.062822 
L 127.648966 577.521488 
L 136.768602 576.980154 
L 145.888239 576.438819 
L 155.007875 575.897485 
L 164.127511 575.356151 
L 173.247148 574.814817 
L 182.366784 574.273483 
L 191.48642 573.732149 
L 200.606057 573.190814 
L 209.725693 572.64948 
L 218.84533 572.108146 
L 227.964966 571.566812 
L 237.084602 571.025478 
L 246.204239 570.484144 
L 255.323875 569.942809 
L 264.443511 569.401475 
L 273.563148 568.860141 
L 282.682784 568.318807 
L 291.80242 567.777473 
L 300.922057 567.236139 
L 310.041693 566.694804 
L 319.16133 566.15347 
L 328.280966 565.612136 
L 337.400602 565.070802 
L 346.520239 564.529468 
L 355.639875 563.988134 
L 364.759511 563.446799 
L 373.879148 562.905465 
L 382.998784 562.364131 
L 392.11842 561.822797 
L 401.238057 561.281463 
L 410.357693 560.740129 
L 419.47733 560.198794 
L 428.596966 559.65746 
L 437.716602 559.116126 
L 446.836239 558.574792 
L 455.955875 558.033458 
L 465.075511 557.492124 
L 474.195148 556.950789 
L 483.314784 556.409455 
L 492.43442 555.868121 
L 501.554057 555.326787 
L 510.673693 554.785453 
L 519.79333 554.244119 
L 528.912966 553.702784 
L 538.032602 553.16145 
L 547.152239 552.620116 
L 556.271875 552.078782 
L 565.391511 551.537448 
L 574.511148 550.996114 
L 583.630784 550.454779 
L 592.75042 549.913445 
L 601.870057 549.372111 
L 610.989693 548.830777 
L 620.10933 548.289443 
L 629.228966 547.748109 
L 638.348602 547.206774 
L 647.468239 546.66544 
L 656.587875 546.124106 
L 665.707511 545.582772 
L 674.827148 545.041438 
L 683.946784 544.500104 
L 693.06642 543.958769 
L 702.186057 543.417435 
L 711.305693 542.876101 
L 720.42533 542.334767 
L 729.544966 541.793433 
L 738.664602 541.252099 
L 747.784239 540.710764 
L 756.903875 540.16943 
L 766.023511 539.628096 
L 775.143148 539.086762 
L 784.262784 538.545428 
L 793.38242 538.004094 
L 802.502057 537.462759 
L 811.621693 536.921425 
L 820.74133 536.380091 
L 829.860966 535.838757 
L 838.980602 535.297423 
L 848.100239 534.756089 
L 857.219875 534.214754 
L 866.339511 533.67342 
L 875.459148 533.132086 
L 884.578784 532.590752 
L 893.69842 532.049418 
L 902.818057 531.508084 
L 911.937693 530.966749 
L 921.05733 530.425415 
L 930.176966 529.884081 
L 939.296602 529.342747 
L 948.416239 528.801413 
L 957.535875 528.260079 
" clip-path="url(#p392e617b38)" style="fill: none; stroke-dasharray: 3,4.95; stroke-dashoffset: 0; stroke: #be503b; stroke-opacity: 0.9; stroke-width: 3"/>
   </g>
   <g id="line2d_51">
    <path d="M 54.691875 544.346498 
L 63.811511 543.478402 
L 72.931148 542.610306 
L 82.050784 541.742211 
L 91.17042 540.874115 
L 100.290057 540.006019 
L 109.409693 539.137924 
L 118.52933 538.269828 
L 127.648966 537.401732 
L 136.768602 536.533637 
L 145.888239 535.665541 
L 155.007875 534.797445 
L 164.127511 533.92935 
L 173.247148 533.061254 
L 182.366784 532.193158 
L 191.48642 531.325063 
L 200.606057 530.456967 
L 209.725693 529.588871 
L 218.84533 528.720776 
L 227.964966 527.85268 
L 237.084602 526.984584 
L 246.204239 526.116488 
L 255.323875 525.248393 
L 264.443511 524.380297 
L 273.563148 523.512201 
L 282.682784 522.644106 
L 291.80242 521.77601 
L 300.922057 520.907914 
L 310.041693 520.039819 
L 319.16133 519.171723 
L 328.280966 518.303627 
L 337.400602 517.435532 
L 346.520239 516.567436 
L 355.639875 515.69934 
L 364.759511 514.831245 
L 373.879148 513.963149 
L 382.998784 513.095053 
L 392.11842 512.226958 
L 401.238057 511.358862 
L 410.357693 510.490766 
L 419.47733 509.622671 
L 428.596966 508.754575 
L 437.716602 507.886479 
L 446.836239 507.018384 
L 455.955875 506.150288 
L 465.075511 505.282192 
L 474.195148 504.414096 
L 483.314784 503.546001 
L 492.43442 502.677905 
L 501.554057 501.809809 
L 510.673693 500.941714 
L 519.79333 500.073618 
L 528.912966 499.205522 
L 538.032602 498.337427 
L 547.152239 497.469331 
L 556.271875 496.601235 
L 565.391511 495.73314 
L 574.511148 494.865044 
L 583.630784 493.996948 
L 592.75042 493.128853 
L 601.870057 492.260757 
L 610.989693 491.392661 
L 620.10933 490.524566 
L 629.228966 489.65647 
L 638.348602 488.788374 
L 647.468239 487.920279 
L 656.587875 487.052183 
L 665.707511 486.184087 
L 674.827148 485.315992 
L 683.946784 484.447896 
L 693.06642 483.5798 
L 702.186057 482.711705 
L 711.305693 481.843609 
L 720.42533 480.975513 
L 729.544966 480.107417 
L 738.664602 479.239322 
L 747.784239 478.371226 
L 756.903875 477.50313 
L 766.023511 476.635035 
L 775.143148 475.766939 
L 784.262784 474.898843 
L 793.38242 474.030748 
L 802.502057 473.162652 
L 811.621693 472.294556 
L 820.74133 471.426461 
L 829.860966 470.558365 
L 838.980602 469.690269 
L 848.100239 468.822174 
L 857.219875 467.954078 
L 866.339511 467.085982 
L 875.459148 466.217887 
L 884.578784 465.349791 
L 893.69842 464.481695 
L 902.818057 463.6136 
L 911.937693 462.745504 
L 921.05733 461.877408 
L 930.176966 461.009313 
L 939.296602 460.141217 
L 948.416239 459.273121 
L 957.535875 458.405026 
" clip-path="url(#p392e617b38)" style="fill: none; stroke-dasharray: 3,4.95; stroke-dashoffset: 0; stroke: #e2321d; stroke-opacity: 0.9; stroke-width: 3"/>
   </g>
   <g id="line2d_52">
    <path d="M 87.298489 645.743878 
L 91.17042 643.782214 
L 100.290057 639.161867 
L 109.409693 634.541521 
L 118.52933 629.921175 
L 127.648966 625.300828 
L 136.768602 620.680482 
L 145.888239 616.060136 
L 155.007875 611.43979 
L 164.127511 606.819443 
L 173.247148 602.199097 
L 182.366784 597.578751 
L 191.48642 592.958404 
L 200.606057 588.338058 
L 209.725693 583.717712 
L 218.84533 579.097365 
L 227.964966 574.477019 
L 237.084602 569.856673 
L 246.204239 565.236326 
L 255.323875 560.61598 
L 264.443511 555.995634 
L 273.563148 551.375288 
L 282.682784 546.754941 
L 291.80242 542.134595 
L 300.922057 537.514249 
L 310.041693 532.893902 
L 319.16133 528.273556 
L 328.280966 523.65321 
L 337.400602 519.032863 
L 346.520239 514.412517 
L 355.639875 509.792171 
L 364.759511 505.171824 
L 373.879148 500.551478 
L 382.998784 495.931132 
L 392.11842 491.310786 
L 401.238057 486.690439 
L 410.357693 482.070093 
L 419.47733 477.449747 
L 428.596966 472.8294 
L 437.716602 468.209054 
L 446.836239 463.588708 
L 455.955875 458.968361 
L 465.075511 454.348015 
L 474.195148 449.727669 
L 483.314784 445.107323 
L 492.43442 440.486976 
L 501.554057 435.86663 
L 510.673693 431.246284 
L 519.79333 426.625937 
L 528.912966 422.005591 
L 538.032602 417.385245 
L 547.152239 412.764898 
L 556.271875 408.144552 
L 565.391511 403.524206 
L 574.511148 398.903859 
L 583.630784 394.283513 
L 592.75042 389.663167 
L 601.870057 385.042821 
L 610.989693 380.422474 
L 620.10933 375.802128 
L 629.228966 371.181782 
L 638.348602 366.561435 
L 647.468239 361.941089 
L 656.587875 357.320743 
L 665.707511 352.700396 
L 674.827148 348.08005 
L 683.946784 343.459704 
L 693.06642 338.839357 
L 702.186057 334.219011 
L 711.305693 329.598665 
L 720.42533 324.978319 
L 729.544966 320.357972 
L 738.664602 315.737626 
L 747.784239 311.11728 
L 756.903875 306.496933 
L 766.023511 301.876587 
L 775.143148 297.256241 
L 784.262784 292.635894 
L 793.38242 288.015548 
L 802.502057 283.395202 
L 811.621693 278.774855 
L 820.74133 274.154509 
L 829.860966 269.534163 
L 838.980602 264.913817 
L 848.100239 260.29347 
L 857.219875 255.673124 
L 866.339511 251.052778 
L 875.459148 246.432431 
L 884.578784 241.812085 
L 893.69842 237.191739 
L 902.818057 232.571392 
L 911.937693 227.951046 
L 921.05733 223.3307 
L 930.176966 218.710353 
L 939.296602 214.090007 
L 948.416239 209.469661 
L 957.535875 204.849315 
" clip-path="url(#p392e617b38)" style="fill: none; stroke-dasharray: 3,4.95; stroke-dashoffset: 0; stroke: #48b585; stroke-opacity: 0.9; stroke-width: 3"/>
   </g>
   <g id="line2d_53">
    <path d="M 54.691875 578.54175 
L 76.018899 578.540738 
L 90.236914 578.201845 
L 97.345922 577.669057 
L 104.45493 577.601279 
L 111.563938 576.959573 
L 118.672946 575.42393 
L 125.781954 576.389692 
L 132.890962 576.47332 
L 139.999969 576.244693 
L 147.108977 576.289542 
L 154.217985 575.984369 
L 161.326993 575.927044 
L 168.436001 576.014718 
L 189.763025 575.601976 
L 196.872032 575.434384 
L 203.98104 572.050844 
L 211.090048 570.080879 
L 218.199056 567.353882 
L 225.308064 571.857287 
L 232.417072 570.627155 
L 239.52608 570.107518 
L 246.635088 566.479841 
L 253.744095 568.453178 
L 260.853103 565.273987 
L 267.962111 563.489148 
L 275.071119 562.77528 
L 282.180127 564.012157 
L 289.289135 563.206568 
L 296.398143 560.861628 
L 303.507151 563.361684 
L 310.616158 559.318567 
L 317.725166 555.555669 
L 324.834174 556.590222 
L 331.943182 557.137846 
L 339.05219 550.765975 
L 346.161198 554.984103 
L 353.270206 553.607959 
L 360.379214 557.345229 
L 367.488221 562.330503 
L 374.597229 560.992802 
L 381.706237 548.886044 
L 395.924253 552.284757 
L 403.033261 551.62754 
L 410.142269 550.437198 
L 417.251277 548.795672 
L 424.360284 551.280891 
L 431.469292 555.719215 
L 438.5783 560.879837 
L 445.687308 555.9239 
L 452.796316 554.828313 
L 459.905324 554.903847 
L 474.12334 550.660766 
L 481.232347 552.122223 
L 488.341355 552.078049 
L 495.450363 550.053456 
M 509.668379 541.031809 
L 516.777387 529.502687 
L 523.886395 530.605355 
L 530.995403 531.440618 
L 538.10441 532.565542 
L 545.213418 531.013376 
L 552.322426 532.663669 
L 559.431434 527.670639 
L 566.540442 529.308793 
L 580.758458 526.840097 
L 587.867466 472.485971 
L 594.976473 497.323995 
L 602.085481 491.807956 
L 609.194489 486.909006 
L 616.303497 482.31152 
L 623.412505 499.024869 
L 630.521513 494.793253 
L 637.630521 513.325498 
L 644.739529 511.211545 
L 651.848536 515.055035 
L 658.957544 522.168426 
L 666.066552 521.221547 
L 673.17556 519.578335 
L 680.284568 494.191001 
L 687.393576 490.28479 
L 694.502584 501.627436 
L 708.720599 490.253092 
L 715.829607 476.04216 
L 722.938615 466.257413 
L 730.047623 474.578006 
L 737.156631 470.601318 
L 744.265639 474.220228 
L 751.374647 483.119469 
L 758.483655 475.070666 
L 765.592662 461.522009 
L 772.70167 466.717701 
L 779.810678 469.314872 
L 786.919686 459.283289 
L 794.028694 451.460751 
L 801.137702 455.846134 
L 808.24671 491.725003 
L 815.355718 450.207688 
L 822.464725 442.814078 
L 829.573733 443.194111 
L 836.682741 430.072696 
L 843.791749 427.022992 
L 850.900757 433.419817 
L 858.009765 452.595791 
L 865.118773 449.861376 
L 872.227781 335.405423 
L 879.336788 167.953278 
L 886.445796 172.876843 
L 893.554804 196.717408 
L 900.663812 223.361852 
L 907.77282 225.744896 
L 914.881828 214.276472 
L 921.990836 232.374394 
L 929.099844 230.082395 
L 936.208851 321.060957 
L 943.317859 333.400388 
L 950.426867 324.212834 
L 957.535875 331.01532 
L 957.535875 331.01532 
" clip-path="url(#p392e617b38)" style="fill: none; stroke: #4ac1fa; stroke-width: 1.5; stroke-linecap: square"/>
   </g>
   <g id="line2d_54">
    <path d="M 54.691875 470.413494 
L 61.800883 501.549204 
L 68.909891 513.201069 
L 76.018899 488.819286 
L 83.127906 477.646256 
L 90.236914 476.538529 
L 97.345922 476.443774 
L 104.45493 463.357429 
L 111.563938 493.355738 
L 118.672946 478.393845 
L 125.781954 458.984523 
L 132.890962 448.407001 
L 139.999969 435.890536 
L 147.108977 426.135125 
L 154.217985 423.028433 
L 161.326993 398.478722 
L 168.436001 395.583122 
L 175.545009 398.720499 
L 182.654017 393.154891 
L 189.763025 399.749994 
L 196.872032 385.118227 
L 203.98104 349.244078 
L 211.090048 334.74281 
L 218.199056 325.481409 
L 225.308064 315.132176 
L 232.417072 276.693902 
L 239.52608 257.845019 
L 246.635088 259.708428 
L 253.744095 280.592695 
L 260.853103 256.907583 
L 267.962111 379.024214 
L 275.071119 460.562316 
L 282.180127 431.209085 
L 289.289135 562.687943 
L 296.398143 561.477706 
L 303.507151 561.546496 
L 310.616158 560.52206 
L 317.725166 563.057185 
L 324.834174 562.540921 
L 331.943182 562.220574 
L 339.05219 563.096301 
L 346.161198 563.321893 
L 353.270206 561.023487 
L 360.379214 562.0314 
L 374.597229 563.108441 
L 381.706237 563.298626 
L 388.815245 561.993633 
L 395.924253 563.445311 
L 403.033261 561.042708 
L 410.142269 559.423438 
L 417.251277 560.262073 
L 424.360284 548.897172 
L 431.469292 535.196097 
L 438.5783 528.334938 
L 445.687308 518.69148 
L 452.796316 517.488324 
L 459.905324 525.940428 
L 467.014332 524.115124 
L 474.12334 530.194974 
L 481.232347 535.943011 
L 488.341355 539.333295 
L 495.450363 531.295956 
M 509.668379 479.948708 
L 516.777387 479.855976 
L 523.886395 490.15193 
L 530.995403 501.488169 
L 538.10441 551.589773 
L 545.213418 551.104531 
L 552.322426 552.976707 
L 559.431434 551.386774 
L 566.540442 555.295345 
L 573.64945 552.24092 
L 580.758458 548.585255 
L 587.867466 548.371802 
L 594.976473 544.347569 
L 602.085481 547.942537 
L 609.194489 548.532988 
L 616.303497 553.795109 
L 623.412505 557.113905 
L 630.521513 549.109949 
L 637.630521 549.15817 
L 644.739529 547.695364 
L 651.848536 540.539823 
L 658.957544 535.709327 
L 666.066552 537.235865 
L 673.17556 535.240608 
L 680.284568 536.828855 
L 687.393576 532.69503 
L 694.502584 519.234384 
L 701.611592 515.189581 
L 708.720599 522.640853 
L 715.829607 507.739657 
L 722.938615 522.010275 
L 730.047623 514.074773 
L 737.156631 514.786955 
L 744.265639 515.226336 
L 751.374647 517.103233 
L 758.483655 510.540839 
L 765.592662 502.891626 
L 772.70167 512.13111 
L 779.810678 512.747862 
L 786.919686 509.040266 
L 794.028694 505.611879 
L 801.137702 502.895673 
L 808.24671 502.629616 
L 815.355718 481.645199 
L 822.464725 480.840622 
L 829.573733 489.732107 
L 836.682741 493.060007 
L 843.791749 514.292272 
L 850.900757 506.07183 
L 858.009765 510.735408 
L 865.118773 519.052292 
L 872.227781 536.82953 
L 879.336788 512.965361 
L 886.445796 457.047941 
L 893.554804 534.010813 
L 900.663812 561.761972 
L 907.77282 560.339968 
L 914.881828 557.273741 
L 921.990836 556.75343 
L 929.099844 557.003301 
L 936.208851 556.543013 
L 943.317859 561.123975 
L 950.426867 561.406892 
L 957.535875 562.734815 
L 957.535875 562.734815 
" clip-path="url(#p392e617b38)" style="fill: none; stroke: #e9a942; stroke-width: 1.5; stroke-linecap: square"/>
   </g>
   <g id="line2d_55">
    <path d="M 54.691875 576.705993 
L 61.800883 576.03495 
L 68.909891 576.630458 
L 76.018899 575.940195 
L 90.236914 575.348059 
L 97.345922 575.273873 
L 104.45493 574.902945 
L 111.563938 575.306582 
L 118.672946 574.849666 
L 125.781954 574.572144 
L 132.890962 574.983875 
L 139.999969 575.060421 
L 147.108977 574.96027 
L 154.217985 574.552249 
L 161.326993 573.49915 
L 168.436001 572.634888 
L 175.545009 571.23514 
L 182.654017 569.398371 
L 189.763025 569.345767 
L 196.872032 563.733623 
L 203.98104 565.495532 
L 211.090048 564.361841 
L 225.308064 565.183278 
L 232.417072 569.632056 
L 239.52608 568.398888 
L 246.635088 568.726991 
L 253.744095 571.411499 
L 260.853103 568.61841 
L 267.962111 553.958318 
L 275.071119 534.678821 
L 282.180127 554.878557 
L 289.289135 541.345749 
L 296.398143 553.026951 
L 303.507151 551.368902 
L 310.616158 550.078746 
L 317.725166 553.561425 
L 324.834174 553.539169 
L 331.943182 554.369373 
L 339.05219 552.950405 
L 346.161198 553.459925 
L 353.270206 554.24899 
L 360.379214 549.874399 
L 367.488221 554.471547 
L 374.597229 551.403634 
L 381.706237 547.200681 
L 388.815245 540.469684 
L 395.924253 545.127867 
L 403.033261 543.524446 
L 410.142269 542.798438 
L 417.251277 546.974415 
L 424.360284 548.657754 
L 431.469292 540.359417 
L 438.5783 546.54515 
L 445.687308 535.767326 
L 452.796316 537.484049 
L 459.905324 540.720229 
L 467.014332 539.170424 
L 474.12334 539.44862 
L 481.232347 535.873209 
L 488.341355 543.844118 
L 495.450363 531.170852 
M 509.668379 535.672908 
L 516.777387 529.350606 
L 523.886395 542.312522 
L 530.995403 545.644806 
L 538.10441 543.646515 
L 545.213418 535.572758 
L 552.322426 540.532742 
L 559.431434 538.820739 
L 566.540442 538.652136 
L 573.64945 534.864285 
L 580.758458 532.631635 
L 587.867466 532.746959 
L 594.976473 523.313919 
L 602.085481 520.646271 
L 609.194489 533.512758 
L 616.303497 536.521322 
L 623.412505 545.065484 
L 630.521513 536.954296 
L 637.630521 534.733786 
L 644.739529 535.387968 
L 651.848536 538.65888 
L 658.957544 516.347551 
L 666.066552 514.366458 
L 673.17556 524.754469 
L 680.284568 520.768678 
L 687.393576 523.209385 
L 694.502584 532.959063 
L 701.611592 541.532562 
L 708.720599 539.824269 
L 715.829607 542.177977 
L 722.938615 535.007261 
L 730.047623 531.629454 
L 737.156631 532.998179 
L 744.265639 531.471304 
L 751.374647 535.557583 
L 758.483655 533.298631 
L 765.592662 536.360137 
L 772.70167 535.304341 
L 779.810678 537.576781 
L 786.919686 536.358114 
L 794.028694 535.977069 
L 801.137702 534.617449 
L 808.24671 547.606679 
L 815.355718 537.178539 
L 822.464725 534.853157 
L 829.573733 525.123711 
L 836.682741 527.903649 
L 843.791749 532.969179 
L 850.900757 528.046962 
L 858.009765 534.195603 
L 865.118773 533.820291 
L 872.227781 530.483623 
L 879.336788 530.536228 
L 886.445796 530.272531 
L 893.554804 530.563879 
L 900.663812 535.846233 
L 907.77282 534.801564 
L 914.881828 524.986805 
L 921.990836 531.223119 
L 929.099844 533.291212 
L 936.208851 526.036532 
L 943.317859 522.802376 
L 950.426867 523.850416 
L 957.535875 527.65243 
L 957.535875 527.65243 
" clip-path="url(#p392e617b38)" style="fill: none; stroke: #9a5689; stroke-width: 1.5; stroke-linecap: square"/>
   </g>
   <g id="line2d_56">
    <path d="M 54.691875 577.845754 
L 61.800883 577.52743 
L 68.909891 577.66029 
L 76.018899 577.366245 
L 97.345922 577.017572 
L 111.563938 577.229339 
L 125.781954 576.993294 
L 132.890962 577.193932 
L 139.999969 577.279583 
L 147.108977 576.489506 
L 154.217985 574.676341 
L 161.326993 574.27439 
L 168.436001 574.252809 
L 175.545009 574.99534 
L 182.654017 574.779527 
L 189.763025 575.164955 
L 196.872032 574.817294 
L 203.98104 575.341989 
L 211.090048 574.943072 
L 218.199056 574.83584 
L 225.308064 575.261733 
L 232.417072 573.92909 
L 239.52608 573.281314 
L 253.744095 573.857265 
L 267.962111 571.493103 
L 275.071119 571.147803 
L 282.180127 562.093447 
L 289.289135 563.932913 
L 296.398143 558.011888 
L 303.507151 563.358649 
L 310.616158 555.94683 
L 317.725166 555.351321 
L 324.834174 556.303932 
L 331.943182 560.418537 
L 339.05219 553.103497 
L 346.161198 556.611803 
L 353.270206 561.66317 
L 360.379214 565.433823 
L 367.488221 557.403229 
L 374.597229 564.168621 
L 381.706237 575.075932 
L 388.815245 573.721707 
L 395.924253 568.438004 
L 403.033261 559.653077 
L 410.142269 568.328075 
L 417.251277 567.196744 
L 424.360284 563.555241 
L 431.469292 563.990576 
L 438.5783 562.956023 
L 445.687308 560.581071 
L 452.796316 557.745831 
L 459.905324 559.654425 
L 467.014332 563.591659 
L 474.12334 565.109093 
L 481.232347 563.427439 
L 488.341355 563.693159 
L 495.450363 558.064155 
M 509.668379 558.624931 
L 523.886395 558.914255 
L 530.995403 555.930307 
L 538.10441 553.303798 
L 545.213418 554.204142 
L 552.322426 559.393427 
L 559.431434 556.043608 
L 566.540442 553.72497 
L 573.64945 550.892091 
L 580.758458 552.705592 
L 587.867466 550.550837 
L 594.976473 540.954588 
L 602.085481 540.996065 
L 609.194489 542.535416 
L 616.303497 546.768718 
L 623.412505 553.794772 
L 630.521513 550.745068 
L 637.630521 547.990421 
L 644.739529 550.762603 
L 658.957544 543.552097 
L 666.066552 546.44129 
L 673.17556 538.832542 
L 680.284568 542.934333 
L 687.393576 539.758851 
L 694.502584 538.638985 
L 701.611592 542.079849 
L 708.720599 540.817007 
L 715.829607 544.232919 
L 722.938615 541.821211 
L 730.047623 541.196029 
L 737.156631 542.719532 
L 744.265639 542.077826 
L 751.374647 540.521951 
L 758.483655 539.998942 
L 765.592662 543.076634 
L 772.70167 544.280465 
L 779.810678 535.951104 
L 786.919686 540.884112 
L 794.028694 532.920284 
L 801.137702 541.153203 
L 808.24671 564.634642 
L 815.355718 547.760783 
L 822.464725 547.924665 
L 829.573733 537.807768 
L 836.682741 537.876896 
L 843.791749 531.485804 
L 850.900757 538.141267 
L 858.009765 540.429893 
L 865.118773 533.345503 
L 872.227781 533.696873 
L 879.336788 530.233753 
L 886.445796 533.804105 
L 893.554804 523.97552 
L 900.663812 533.12362 
L 907.77282 509.965564 
L 914.881828 502.487652 
L 921.990836 522.870829 
L 929.099844 528.144078 
L 936.208851 520.186995 
L 943.317859 526.564261 
L 950.426867 527.937033 
L 957.535875 534.845401 
L 957.535875 534.845401 
" clip-path="url(#p392e617b38)" style="fill: none; stroke: #be503b; stroke-width: 1.5; stroke-linecap: square"/>
   </g>
   <g id="line2d_57">
    <path d="M 54.691875 566.993745 
L 61.800883 568.789374 
L 68.909891 570.469342 
L 76.018899 564.657572 
L 83.127906 563.523206 
L 90.236914 560.270166 
L 97.345922 555.487216 
L 104.45493 553.732389 
L 111.563938 545.953351 
L 118.672946 532.805296 
L 125.781954 516.407237 
L 132.890962 517.528114 
L 139.999969 510.384712 
L 147.108977 523.201966 
L 154.217985 512.112563 
L 161.326993 505.721808 
L 168.436001 502.485291 
L 175.545009 501.063962 
L 182.654017 499.287216 
L 189.763025 500.486326 
L 196.872032 484.166836 
L 203.98104 475.954823 
L 211.090048 469.343535 
L 218.199056 473.774103 
L 225.308064 474.3106 
L 232.417072 469.264291 
L 239.52608 479.960848 
L 246.635088 517.394243 
L 253.744095 511.604392 
L 260.853103 507.409531 
L 267.962111 514.772455 
L 275.071119 512.127063 
L 282.180127 513.704182 
L 289.289135 512.997733 
L 296.398143 506.079248 
L 303.507151 508.249515 
L 310.616158 515.34065 
L 317.725166 538.579973 
L 324.834174 539.489085 
L 331.943182 541.472201 
L 339.05219 538.80017 
L 346.161198 543.189936 
L 353.270206 540.838251 
L 360.379214 539.149179 
L 367.488221 541.081715 
L 374.597229 536.863588 
L 381.706237 536.429264 
L 388.815245 536.159836 
L 395.924253 536.460288 
L 403.033261 531.549536 
L 410.142269 532.043882 
L 417.251277 533.350561 
L 424.360284 533.552885 
L 431.469292 537.118854 
L 438.5783 548.211292 
L 445.687308 536.718588 
L 452.796316 530.447879 
L 459.905324 528.093834 
L 467.014332 527.095363 
L 474.12334 527.422117 
L 481.232347 527.091654 
L 488.341355 529.106468 
L 495.450363 525.308164 
M 509.668379 522.112786 
L 516.777387 524.938922 
L 523.886395 523.140932 
L 530.995403 521.017199 
L 538.10441 516.497271 
L 545.213418 515.925705 
L 552.322426 519.526405 
L 559.431434 507.200126 
L 566.540442 513.297847 
L 573.64945 511.783786 
L 580.758458 512.275434 
L 587.867466 507.02815 
L 594.976473 503.268961 
L 602.085481 498.239176 
L 609.194489 498.148804 
L 616.303497 501.131404 
L 623.412505 525.51757 
L 630.521513 503.62775 
L 637.630521 498.876835 
L 644.739529 496.637103 
L 651.848536 493.209727 
L 658.957544 483.999918 
L 666.066552 487.934454 
L 673.17556 485.975616 
L 680.284568 480.668646 
L 687.393576 488.17893 
L 694.502584 485.448224 
L 701.611592 482.409648 
L 708.720599 419.830358 
L 715.829607 479.256758 
L 722.938615 481.267189 
L 730.047623 473.745103 
L 737.156631 469.810904 
L 744.265639 471.999043 
L 751.374647 469.437616 
L 758.483655 465.599858 
L 765.592662 470.151484 
L 772.70167 452.294328 
L 779.810678 464.055448 
L 786.919686 457.588147 
L 794.028694 463.467358 
L 801.137702 468.940909 
L 808.24671 506.287642 
L 815.355718 470.38382 
L 822.464725 464.229784 
L 829.573733 459.324765 
L 836.682741 454.836535 
L 843.791749 458.64799 
L 850.900757 442.363907 
L 858.009765 452.2397 
L 865.118773 458.808163 
L 872.227781 464.445597 
L 879.336788 452.325351 
L 886.445796 461.682182 
L 893.554804 454.822372 
L 900.663812 472.905794 
L 907.77282 474.871039 
L 914.881828 450.787011 
L 921.990836 455.427322 
L 929.099844 461.447823 
L 936.208851 453.880214 
L 943.317859 432.92682 
L 950.426867 427.401002 
L 957.535875 439.80113 
L 957.535875 439.80113 
" clip-path="url(#p392e617b38)" style="fill: none; stroke: #e2321d; stroke-width: 1.5; stroke-linecap: square"/>
   </g>
   <g id="line2d_58">
    <path d="M 54.691875 578.54175 
L 118.672946 578.54175 
L 125.781954 578.40653 
L 132.890962 576.277402 
L 139.999969 577.77258 
L 147.108977 577.799556 
L 154.217985 576.621691 
L 161.326993 574.422761 
L 168.436001 574.386343 
L 175.545009 574.542807 
L 189.763025 573.66337 
L 196.872032 573.503197 
L 203.98104 572.901956 
L 211.090048 571.637428 
L 218.199056 571.197372 
L 225.308064 570.315238 
L 232.417072 568.924257 
L 239.52608 563.318184 
L 246.635088 564.663979 
L 253.744095 565.28444 
L 260.853103 563.488811 
L 267.962111 558.515676 
L 275.071119 551.881457 
L 282.180127 550.850614 
L 289.289135 546.230535 
L 296.398143 543.215564 
L 303.507151 547.361192 
L 310.616158 545.544655 
L 317.725166 539.706583 
L 324.834174 536.738146 
L 331.943182 511.754112 
L 339.05219 500.079316 
L 346.161198 506.960708 
L 353.270206 519.2445 
L 360.379214 517.98267 
L 367.488221 499.82169 
L 381.706237 497.542168 
L 388.815245 487.482596 
L 395.924253 493.793096 
L 403.033261 501.615971 
L 410.142269 515.524428 
L 417.251277 502.925347 
L 424.360284 496.734219 
L 431.469292 501.517169 
L 438.5783 505.786552 
L 445.687308 499.239333 
L 452.796316 515.541625 
L 459.905324 506.26134 
L 467.014332 508.284585 
L 474.12334 507.630402 
L 481.232347 496.673522 
L 488.341355 508.50006 
L 495.450363 501.364077 
M 509.668379 502.502152 
L 516.777387 495.917503 
L 523.886395 495.391459 
L 530.995403 510.67842 
L 538.10441 494.98074 
L 545.213418 483.950011 
L 552.322426 485.929756 
L 559.431434 489.39962 
L 566.540442 469.768753 
L 573.64945 456.171201 
L 580.758458 477.315455 
L 587.867466 468.888642 
L 594.976473 428.336752 
L 602.085481 413.214686 
L 609.194489 460.514096 
L 616.303497 464.077029 
L 623.412505 472.585784 
L 630.521513 448.360129 
L 637.630521 417.019397 
L 644.739529 430.953819 
L 651.848536 404.487758 
L 658.957544 399.807656 
L 666.066552 391.949374 
L 673.17556 388.532114 
L 680.284568 399.277229 
L 687.393576 424.029602 
L 694.502584 414.542946 
L 701.611592 411.203918 
L 708.720599 406.533258 
L 715.829607 402.723151 
L 722.938615 380.814785 
L 730.047623 356.768525 
L 737.156631 354.848803 
L 744.265639 347.948865 
L 751.374647 344.67829 
L 758.483655 311.974903 
L 765.592662 270.66025 
L 772.70167 259.127419 
L 779.810678 239.555901 
L 786.919686 259.378976 
L 794.028694 278.275742 
L 801.137702 237.866829 
L 808.24671 311.941182 
L 815.355718 236.011851 
L 822.464725 217.836034 
L 829.573733 158.887456 
L 836.682741 145.652402 
L 843.791749 146.526444 
L 850.900757 145.195149 
L 858.009765 169.124062 
L 865.118773 213.797638 
L 872.227781 203.806856 
L 879.336788 179.601433 
L 886.445796 245.042265 
L 893.554804 271.473594 
L 900.663812 284.255779 
L 907.77282 216.594773 
L 914.881828 157.858299 
L 921.990836 157.301907 
L 929.099844 109.055619 
L 936.208851 79.68148 
L 943.317859 54.528505 
L 950.426867 73.605003 
L 957.535875 110.413553 
L 957.535875 110.413553 
" clip-path="url(#p392e617b38)" style="fill: none; stroke: #48b585; stroke-width: 6; stroke-linecap: square"/>
   </g>
   <g id="patch_3">
    <path d="M 54.691875 578.54175 
L 54.691875 24.14175 
" style="fill: none; stroke: #ffffff; stroke-linejoin: miter; stroke-linecap: square"/>
   </g>
   <g id="patch_4">
    <path d="M 957.535875 578.54175 
L 957.535875 24.14175 
" style="fill: none; stroke: #ffffff; stroke-linejoin: miter; stroke-linecap: square"/>
   </g>
   <g id="patch_5">
    <path d="M 54.691875 578.54175 
L 957.535875 578.54175 
" style="fill: none; stroke: #ffffff; stroke-linejoin: miter; stroke-linecap: square"/>
   </g>
   <g id="patch_6">
    <path d="M 54.691875 24.14175 
L 957.535875 24.14175 
" style="fill: none; stroke: #ffffff; stroke-linejoin: miter; stroke-linecap: square"/>
   </g>
   <g id="text_26">
    <!-- Potentially Ephemeral Enterprise Linux Instances by Distribution (2 Week Resample) -->
    <g transform="translate(54.691875 18.14175) scale(0.144 -0.144)">
     <defs>
      <path id="DejaVuSans-50" d="M 1259 4147 
L 1259 2394 
L 2053 2394 
Q 2494 2394 2734 2622 
Q 2975 2850 2975 3272 
Q 2975 3691 2734 3919 
Q 2494 4147 2053 4147 
L 1259 4147 
z
M 628 4666 
L 2053 4666 
Q 2838 4666 3239 4311 
Q 3641 3956 3641 3272 
Q 3641 2581 3239 2228 
Q 2838 1875 2053 1875 
L 1259 1875 
L 1259 0 
L 628 0 
L 628 4666 
z
" transform="scale(0.015625)"/>
      <path id="DejaVuSans-6f" d="M 1959 3097 
Q 1497 3097 1228 2736 
Q 959 2375 959 1747 
Q 959 1119 1226 758 
Q 1494 397 1959 397 
Q 2419 397 2687 759 
Q 2956 1122 2956 1747 
Q 2956 2369 2687 2733 
Q 2419 3097 1959 3097 
z
M 1959 3584 
Q 2709 3584 3137 3096 
Q 3566 2609 3566 1747 
Q 3566 888 3137 398 
Q 2709 -91 1959 -91 
Q 1206 -91 779 398 
Q 353 888 353 1747 
Q 353 2609 779 3096 
Q 1206 3584 1959 3584 
z
" transform="scale(0.015625)"/>
      <path id="DejaVuSans-69" d="M 603 3500 
L 1178 3500 
L 1178 0 
L 603 0 
L 603 3500 
z
M 603 4863 
L 1178 4863 
L 1178 4134 
L 603 4134 
L 603 4863 
z
" transform="scale(0.015625)"/>
      <path id="DejaVuSans-6c" d="M 603 4863 
L 1178 4863 
L 1178 0 
L 603 0 
L 603 4863 
z
" transform="scale(0.015625)"/>
      <path id="DejaVuSans-79" d="M 2059 -325 
Q 1816 -950 1584 -1140 
Q 1353 -1331 966 -1331 
L 506 -1331 
L 506 -850 
L 844 -850 
Q 1081 -850 1212 -737 
Q 1344 -625 1503 -206 
L 1606 56 
L 191 3500 
L 800 3500 
L 1894 763 
L 2988 3500 
L 3597 3500 
L 2059 -325 
z
" transform="scale(0.015625)"/>
      <path id="DejaVuSans-20" transform="scale(0.015625)"/>
      <path id="DejaVuSans-45" d="M 628 4666 
L 3578 4666 
L 3578 4134 
L 1259 4134 
L 1259 2753 
L 3481 2753 
L 3481 2222 
L 1259 2222 
L 1259 531 
L 3634 531 
L 3634 0 
L 628 0 
L 628 4666 
z
" transform="scale(0.015625)"/>
      <path id="DejaVuSans-70" d="M 1159 525 
L 1159 -1331 
L 581 -1331 
L 581 3500 
L 1159 3500 
L 1159 2969 
Q 1341 3281 1617 3432 
Q 1894 3584 2278 3584 
Q 2916 3584 3314 3078 
Q 3713 2572 3713 1747 
Q 3713 922 3314 415 
Q 2916 -91 2278 -91 
Q 1894 -91 1617 61 
Q 1341 213 1159 525 
z
M 3116 1747 
Q 3116 2381 2855 2742 
Q 2594 3103 2138 3103 
Q 1681 3103 1420 2742 
Q 1159 2381 1159 1747 
Q 1159 1113 1420 752 
Q 1681 391 2138 391 
Q 2594 391 2855 752 
Q 3116 1113 3116 1747 
z
" transform="scale(0.015625)"/>
      <path id="DejaVuSans-68" d="M 3513 2113 
L 3513 0 
L 2938 0 
L 2938 2094 
Q 2938 2591 2744 2837 
Q 2550 3084 2163 3084 
Q 1697 3084 1428 2787 
Q 1159 2491 1159 1978 
L 1159 0 
L 581 0 
L 581 4863 
L 1159 4863 
L 1159 2956 
Q 1366 3272 1645 3428 
Q 1925 3584 2291 3584 
Q 2894 3584 3203 3211 
Q 3513 2838 3513 2113 
z
" transform="scale(0.015625)"/>
      <path id="DejaVuSans-6d" d="M 3328 2828 
Q 3544 3216 3844 3400 
Q 4144 3584 4550 3584 
Q 5097 3584 5394 3201 
Q 5691 2819 5691 2113 
L 5691 0 
L 5113 0 
L 5113 2094 
Q 5113 2597 4934 2840 
Q 4756 3084 4391 3084 
Q 3944 3084 3684 2787 
Q 3425 2491 3425 1978 
L 3425 0 
L 2847 0 
L 2847 2094 
Q 2847 2600 2669 2842 
Q 2491 3084 2119 3084 
Q 1678 3084 1418 2786 
Q 1159 2488 1159 1978 
L 1159 0 
L 581 0 
L 581 3500 
L 1159 3500 
L 1159 2956 
Q 1356 3278 1631 3431 
Q 1906 3584 2284 3584 
Q 2666 3584 2933 3390 
Q 3200 3197 3328 2828 
z
" transform="scale(0.015625)"/>
      <path id="DejaVuSans-72" d="M 2631 2963 
Q 2534 3019 2420 3045 
Q 2306 3072 2169 3072 
Q 1681 3072 1420 2755 
Q 1159 2438 1159 1844 
L 1159 0 
L 581 0 
L 581 3500 
L 1159 3500 
L 1159 2956 
Q 1341 3275 1631 3429 
Q 1922 3584 2338 3584 
Q 2397 3584 2469 3576 
Q 2541 3569 2628 3553 
L 2631 2963 
z
" transform="scale(0.015625)"/>
      <path id="DejaVuSans-4c" d="M 628 4666 
L 1259 4666 
L 1259 531 
L 3531 531 
L 3531 0 
L 628 0 
L 628 4666 
z
" transform="scale(0.015625)"/>
      <path id="DejaVuSans-75" d="M 544 1381 
L 544 3500 
L 1119 3500 
L 1119 1403 
Q 1119 906 1312 657 
Q 1506 409 1894 409 
Q 2359 409 2629 706 
Q 2900 1003 2900 1516 
L 2900 3500 
L 3475 3500 
L 3475 0 
L 2900 0 
L 2900 538 
Q 2691 219 2414 64 
Q 2138 -91 1772 -91 
Q 1169 -91 856 284 
Q 544 659 544 1381 
z
M 1991 3584 
L 1991 3584 
z
" transform="scale(0.015625)"/>
      <path id="DejaVuSans-78" d="M 3513 3500 
L 2247 1797 
L 3578 0 
L 2900 0 
L 1881 1375 
L 863 0 
L 184 0 
L 1544 1831 
L 300 3500 
L 978 3500 
L 1906 2253 
L 2834 3500 
L 3513 3500 
z
" transform="scale(0.015625)"/>
      <path id="DejaVuSans-62" d="M 3116 1747 
Q 3116 2381 2855 2742 
Q 2594 3103 2138 3103 
Q 1681 3103 1420 2742 
Q 1159 2381 1159 1747 
Q 1159 1113 1420 752 
Q 1681 391 2138 391 
Q 2594 391 2855 752 
Q 3116 1113 3116 1747 
z
M 1159 2969 
Q 1341 3281 1617 3432 
Q 1894 3584 2278 3584 
Q 2916 3584 3314 3078 
Q 3713 2572 3713 1747 
Q 3713 922 3314 415 
Q 2916 -91 2278 -91 
Q 1894 -91 1617 61 
Q 1341 213 1159 525 
L 1159 0 
L 581 0 
L 581 4863 
L 1159 4863 
L 1159 2969 
z
" transform="scale(0.015625)"/>
      <path id="DejaVuSans-28" d="M 1984 4856 
Q 1566 4138 1362 3434 
Q 1159 2731 1159 2009 
Q 1159 1288 1364 580 
Q 1569 -128 1984 -844 
L 1484 -844 
Q 1016 -109 783 600 
Q 550 1309 550 2009 
Q 550 2706 781 3412 
Q 1013 4119 1484 4856 
L 1984 4856 
z
" transform="scale(0.015625)"/>
      <path id="DejaVuSans-57" d="M 213 4666 
L 850 4666 
L 1831 722 
L 2809 4666 
L 3519 4666 
L 4500 722 
L 5478 4666 
L 6119 4666 
L 4947 0 
L 4153 0 
L 3169 4050 
L 2175 0 
L 1381 0 
L 213 4666 
z
" transform="scale(0.015625)"/>
      <path id="DejaVuSans-52" d="M 2841 2188 
Q 3044 2119 3236 1894 
Q 3428 1669 3622 1275 
L 4263 0 
L 3584 0 
L 2988 1197 
Q 2756 1666 2539 1819 
Q 2322 1972 1947 1972 
L 1259 1972 
L 1259 0 
L 628 0 
L 628 4666 
L 2053 4666 
Q 2853 4666 3247 4331 
Q 3641 3997 3641 3322 
Q 3641 2881 3436 2590 
Q 3231 2300 2841 2188 
z
M 1259 4147 
L 1259 2491 
L 2053 2491 
Q 2509 2491 2742 2702 
Q 2975 2913 2975 3322 
Q 2975 3731 2742 3939 
Q 2509 4147 2053 4147 
L 1259 4147 
z
" transform="scale(0.015625)"/>
      <path id="DejaVuSans-29" d="M 513 4856 
L 1013 4856 
Q 1481 4119 1714 3412 
Q 1947 2706 1947 2009 
Q 1947 1309 1714 600 
Q 1481 -109 1013 -844 
L 513 -844 
Q 928 -128 1133 580 
Q 1338 1288 1338 2009 
Q 1338 2731 1133 3434 
Q 928 4138 513 4856 
z
" transform="scale(0.015625)"/>
     </defs>
     <use xlink:href="#DejaVuSans-50"/>
     <use xlink:href="#DejaVuSans-6f" x="56.677734"/>
     <use xlink:href="#DejaVuSans-74" x="117.859375"/>
     <use xlink:href="#DejaVuSans-65" x="157.068359"/>
     <use xlink:href="#DejaVuSans-6e" x="218.591797"/>
     <use xlink:href="#DejaVuSans-74" x="281.970703"/>
     <use xlink:href="#DejaVuSans-69" x="321.179688"/>
     <use xlink:href="#DejaVuSans-61" x="348.962891"/>
     <use xlink:href="#DejaVuSans-6c" x="410.242188"/>
     <use xlink:href="#DejaVuSans-6c" x="438.025391"/>
     <use xlink:href="#DejaVuSans-79" x="465.808594"/>
     <use xlink:href="#DejaVuSans-20" x="524.988281"/>
     <use xlink:href="#DejaVuSans-45" x="556.775391"/>
     <use xlink:href="#DejaVuSans-70" x="619.958984"/>
     <use xlink:href="#DejaVuSans-68" x="683.435547"/>
     <use xlink:href="#DejaVuSans-65" x="746.814453"/>
     <use xlink:href="#DejaVuSans-6d" x="808.337891"/>
     <use xlink:href="#DejaVuSans-65" x="905.75"/>
     <use xlink:href="#DejaVuSans-72" x="967.273438"/>
     <use xlink:href="#DejaVuSans-61" x="1008.386719"/>
     <use xlink:href="#DejaVuSans-6c" x="1069.666016"/>
     <use xlink:href="#DejaVuSans-20" x="1097.449219"/>
     <use xlink:href="#DejaVuSans-45" x="1129.236328"/>
     <use xlink:href="#DejaVuSans-6e" x="1192.419922"/>
     <use xlink:href="#DejaVuSans-74" x="1255.798828"/>
     <use xlink:href="#DejaVuSans-65" x="1295.007812"/>
     <use xlink:href="#DejaVuSans-72" x="1356.53125"/>
     <use xlink:href="#DejaVuSans-70" x="1397.644531"/>
     <use xlink:href="#DejaVuSans-72" x="1461.121094"/>
     <use xlink:href="#DejaVuSans-69" x="1502.234375"/>
     <use xlink:href="#DejaVuSans-73" x="1530.017578"/>
     <use xlink:href="#DejaVuSans-65" x="1582.117188"/>
     <use xlink:href="#DejaVuSans-20" x="1643.640625"/>
     <use xlink:href="#DejaVuSans-4c" x="1675.427734"/>
     <use xlink:href="#DejaVuSans-69" x="1731.140625"/>
     <use xlink:href="#DejaVuSans-6e" x="1758.923828"/>
     <use xlink:href="#DejaVuSans-75" x="1822.302734"/>
     <use xlink:href="#DejaVuSans-78" x="1885.681641"/>
     <use xlink:href="#DejaVuSans-20" x="1944.861328"/>
     <use xlink:href="#DejaVuSans-49" x="1976.648438"/>
     <use xlink:href="#DejaVuSans-6e" x="2006.140625"/>
     <use xlink:href="#DejaVuSans-73" x="2069.519531"/>
     <use xlink:href="#DejaVuSans-74" x="2121.619141"/>
     <use xlink:href="#DejaVuSans-61" x="2160.828125"/>
     <use xlink:href="#DejaVuSans-6e" x="2222.107422"/>
     <use xlink:href="#DejaVuSans-63" x="2285.486328"/>
     <use xlink:href="#DejaVuSans-65" x="2340.466797"/>
     <use xlink:href="#DejaVuSans-73" x="2401.990234"/>
     <use xlink:href="#DejaVuSans-20" x="2454.089844"/>
     <use xlink:href="#DejaVuSans-62" x="2485.876953"/>
     <use xlink:href="#DejaVuSans-79" x="2549.353516"/>
     <use xlink:href="#DejaVuSans-20" x="2608.533203"/>
     <use xlink:href="#DejaVuSans-44" x="2640.320312"/>
     <use xlink:href="#DejaVuSans-69" x="2717.322266"/>
     <use xlink:href="#DejaVuSans-73" x="2745.105469"/>
     <use xlink:href="#DejaVuSans-74" x="2797.205078"/>
     <use xlink:href="#DejaVuSans-72" x="2836.414062"/>
     <use xlink:href="#DejaVuSans-69" x="2877.527344"/>
     <use xlink:href="#DejaVuSans-62" x="2905.310547"/>
     <use xlink:href="#DejaVuSans-75" x="2968.787109"/>
     <use xlink:href="#DejaVuSans-74" x="3032.166016"/>
     <use xlink:href="#DejaVuSans-69" x="3071.375"/>
     <use xlink:href="#DejaVuSans-6f" x="3099.158203"/>
     <use xlink:href="#DejaVuSans-6e" x="3160.339844"/>
     <use xlink:href="#DejaVuSans-20" x="3223.71875"/>
     <use xlink:href="#DejaVuSans-28" x="3255.505859"/>
     <use xlink:href="#DejaVuSans-32" x="3294.519531"/>
     <use xlink:href="#DejaVuSans-20" x="3358.142578"/>
     <use xlink:href="#DejaVuSans-57" x="3389.929688"/>
     <use xlink:href="#DejaVuSans-65" x="3482.931641"/>
     <use xlink:href="#DejaVuSans-65" x="3544.455078"/>
     <use xlink:href="#DejaVuSans-6b" x="3605.978516"/>
     <use xlink:href="#DejaVuSans-20" x="3663.888672"/>
     <use xlink:href="#DejaVuSans-52" x="3695.675781"/>
     <use xlink:href="#DejaVuSans-65" x="3760.658203"/>
     <use xlink:href="#DejaVuSans-73" x="3822.181641"/>
     <use xlink:href="#DejaVuSans-61" x="3874.28125"/>
     <use xlink:href="#DejaVuSans-6d" x="3935.560547"/>
     <use xlink:href="#DejaVuSans-70" x="4032.972656"/>
     <use xlink:href="#DejaVuSans-6c" x="4096.449219"/>
     <use xlink:href="#DejaVuSans-65" x="4124.232422"/>
     <use xlink:href="#DejaVuSans-29" x="4185.755859"/>
    </g>
   </g>
   <g id="text_27">
    <!-- 2025-10-30 11:55 UTC -->
    <g transform="translate(794.653875 18.14175) scale(0.144 -0.144)">
     <defs>
      <path id="DejaVuSans-3a" d="M 750 794 
L 1409 794 
L 1409 0 
L 750 0 
L 750 794 
z
M 750 3309 
L 1409 3309 
L 1409 2516 
L 750 2516 
L 750 3309 
z
" transform="scale(0.015625)"/>
      <path id="DejaVuSans-55" d="M 556 4666 
L 1191 4666 
L 1191 1831 
Q 1191 1081 1462 751 
Q 1734 422 2344 422 
Q 2950 422 3222 751 
Q 3494 1081 3494 1831 
L 3494 4666 
L 4128 4666 
L 4128 1753 
Q 4128 841 3676 375 
Q 3225 -91 2344 -91 
Q 1459 -91 1007 375 
Q 556 841 556 1753 
L 556 4666 
z
" transform="scale(0.015625)"/>
      <path id="DejaVuSans-54" d="M -19 4666 
L 3928 4666 
L 3928 4134 
L 2272 4134 
L 2272 0 
L 1638 0 
L 1638 4134 
L -19 4134 
L -19 4666 
z
" transform="scale(0.015625)"/>
      <path id="DejaVuSans-43" d="M 4122 4306 
L 4122 3641 
Q 3803 3938 3442 4084 
Q 3081 4231 2675 4231 
Q 1875 4231 1450 3742 
Q 1025 3253 1025 2328 
Q 1025 1406 1450 917 
Q 1875 428 2675 428 
Q 3081 428 3442 575 
Q 3803 722 4122 1019 
L 4122 359 
Q 3791 134 3420 21 
Q 3050 -91 2638 -91 
Q 1578 -91 968 557 
Q 359 1206 359 2328 
Q 359 3453 968 4101 
Q 1578 4750 2638 4750 
Q 3056 4750 3426 4639 
Q 3797 4528 4122 4306 
z
" transform="scale(0.015625)"/>
     </defs>
     <use xlink:href="#DejaVuSans-32"/>
     <use xlink:href="#DejaVuSans-30" x="63.623047"/>
     <use xlink:href="#DejaVuSans-32" x="127.246094"/>
     <use xlink:href="#DejaVuSans-35" x="190.869141"/>
     <use xlink:href="#DejaVuSans-2d" x="254.492188"/>
     <use xlink:href="#DejaVuSans-31" x="290.576172"/>
     <use xlink:href="#DejaVuSans-30" x="354.199219"/>
     <use xlink:href="#DejaVuSans-2d" x="417.822266"/>
     <use xlink:href="#DejaVuSans-33" x="453.90625"/>
     <use xlink:href="#DejaVuSans-30" x="517.529297"/>
     <use xlink:href="#DejaVuSans-20" x="581.152344"/>
     <use xlink:href="#DejaVuSans-31" x="612.939453"/>
     <use xlink:href="#DejaVuSans-31" x="676.5625"/>
     <use xlink:href="#DejaVuSans-3a" x="740.185547"/>
     <use xlink:href="#DejaVuSans-35" x="773.876953"/>
     <use xlink:href="#DejaVuSans-35" x="837.5"/>
     <use xlink:href="#DejaVuSans-20" x="901.123047"/>
     <use xlink:href="#DejaVuSans-55" x="932.910156"/>
     <use xlink:href="#DejaVuSans-54" x="1006.103516"/>
     <use xlink:href="#DejaVuSans-43" x="1061.3125"/>
    </g>
   </g>
   <g id="legend_1">
    <g id="patch_7">
     <path d="M 61.691875 134.888625 
L 170.660625 134.888625 
Q 172.660625 134.888625 172.660625 132.888625 
L 172.660625 31.14175 
Q 172.660625 29.14175 170.660625 29.14175 
L 61.691875 29.14175 
Q 59.691875 29.14175 59.691875 31.14175 
L 59.691875 132.888625 
Q 59.691875 134.888625 61.691875 134.888625 
z
" style="fill: #e5e5e5; opacity: 0.8; stroke: #cccccc; stroke-width: 0.5; stroke-linejoin: miter"/>
    </g>
    <g id="text_28">
     <!-- Distribution -->
     <g transform="translate(87.0075 40.740188) scale(0.1 -0.1)">
      <use xlink:href="#DejaVuSans-44"/>
      <use xlink:href="#DejaVuSans-69" x="77.001953"/>
      <use xlink:href="#DejaVuSans-73" x="104.785156"/>
      <use xlink:href="#DejaVuSans-74" x="156.884766"/>
      <use xlink:href="#DejaVuSans-72" x="196.09375"/>
      <use xlink:href="#DejaVuSans-69" x="237.207031"/>
      <use xlink:href="#DejaVuSans-62" x="264.990234"/>
      <use xlink:href="#DejaVuSans-75" x="328.466797"/>
      <use xlink:href="#DejaVuSans-74" x="391.845703"/>
      <use xlink:href="#DejaVuSans-69" x="431.054688"/>
      <use xlink:href="#DejaVuSans-6f" x="458.837891"/>
      <use xlink:href="#DejaVuSans-6e" x="520.019531"/>
     </g>
    </g>
    <g id="line2d_59">
     <path d="M 63.691875 51.918313 
L 73.691875 51.918313 
L 83.691875 51.918313 
" style="fill: none; stroke: #4ac1fa; stroke-width: 1.5; stroke-linecap: square"/>
    </g>
    <g id="text_29">
     <!-- AlmaLinux -->
     <g transform="translate(91.691875 55.418313) scale(0.1 -0.1)">
      <defs>
       <path id="DejaVuSans-41" d="M 2188 4044 
L 1331 1722 
L 3047 1722 
L 2188 4044 
z
M 1831 4666 
L 2547 4666 
L 4325 0 
L 3669 0 
L 3244 1197 
L 1141 1197 
L 716 0 
L 50 0 
L 1831 4666 
z
" transform="scale(0.015625)"/>
      </defs>
      <use xlink:href="#DejaVuSans-41"/>
      <use xlink:href="#DejaVuSans-6c" x="68.408203"/>
      <use xlink:href="#DejaVuSans-6d" x="96.191406"/>
      <use xlink:href="#DejaVuSans-61" x="193.603516"/>
      <use xlink:href="#DejaVuSans-4c" x="254.882812"/>
      <use xlink:href="#DejaVuSans-69" x="310.595703"/>
      <use xlink:href="#DejaVuSans-6e" x="338.378906"/>
      <use xlink:href="#DejaVuSans-75" x="401.757812"/>
      <use xlink:href="#DejaVuSans-78" x="465.136719"/>
     </g>
    </g>
    <g id="line2d_60">
     <path d="M 63.691875 66.596438 
L 73.691875 66.596438 
L 83.691875 66.596438 
" style="fill: none; stroke: #e9a942; stroke-width: 1.5; stroke-linecap: square"/>
    </g>
    <g id="text_30">
     <!-- CentOS Legacy -->
     <g transform="translate(91.691875 70.096438) scale(0.1 -0.1)">
      <defs>
       <path id="DejaVuSans-4f" d="M 2522 4238 
Q 1834 4238 1429 3725 
Q 1025 3213 1025 2328 
Q 1025 1447 1429 934 
Q 1834 422 2522 422 
Q 3209 422 3611 934 
Q 4013 1447 4013 2328 
Q 4013 3213 3611 3725 
Q 3209 4238 2522 4238 
z
M 2522 4750 
Q 3503 4750 4090 4092 
Q 4678 3434 4678 2328 
Q 4678 1225 4090 567 
Q 3503 -91 2522 -91 
Q 1538 -91 948 565 
Q 359 1222 359 2328 
Q 359 3434 948 4092 
Q 1538 4750 2522 4750 
z
" transform="scale(0.015625)"/>
       <path id="DejaVuSans-53" d="M 3425 4513 
L 3425 3897 
Q 3066 4069 2747 4153 
Q 2428 4238 2131 4238 
Q 1616 4238 1336 4038 
Q 1056 3838 1056 3469 
Q 1056 3159 1242 3001 
Q 1428 2844 1947 2747 
L 2328 2669 
Q 3034 2534 3370 2195 
Q 3706 1856 3706 1288 
Q 3706 609 3251 259 
Q 2797 -91 1919 -91 
Q 1588 -91 1214 -16 
Q 841 59 441 206 
L 441 856 
Q 825 641 1194 531 
Q 1563 422 1919 422 
Q 2459 422 2753 634 
Q 3047 847 3047 1241 
Q 3047 1584 2836 1778 
Q 2625 1972 2144 2069 
L 1759 2144 
Q 1053 2284 737 2584 
Q 422 2884 422 3419 
Q 422 4038 858 4394 
Q 1294 4750 2059 4750 
Q 2388 4750 2728 4690 
Q 3069 4631 3425 4513 
z
" transform="scale(0.015625)"/>
       <path id="DejaVuSans-67" d="M 2906 1791 
Q 2906 2416 2648 2759 
Q 2391 3103 1925 3103 
Q 1463 3103 1205 2759 
Q 947 2416 947 1791 
Q 947 1169 1205 825 
Q 1463 481 1925 481 
Q 2391 481 2648 825 
Q 2906 1169 2906 1791 
z
M 3481 434 
Q 3481 -459 3084 -895 
Q 2688 -1331 1869 -1331 
Q 1566 -1331 1297 -1286 
Q 1028 -1241 775 -1147 
L 775 -588 
Q 1028 -725 1275 -790 
Q 1522 -856 1778 -856 
Q 2344 -856 2625 -561 
Q 2906 -266 2906 331 
L 2906 616 
Q 2728 306 2450 153 
Q 2172 0 1784 0 
Q 1141 0 747 490 
Q 353 981 353 1791 
Q 353 2603 747 3093 
Q 1141 3584 1784 3584 
Q 2172 3584 2450 3431 
Q 2728 3278 2906 2969 
L 2906 3500 
L 3481 3500 
L 3481 434 
z
" transform="scale(0.015625)"/>
      </defs>
      <use xlink:href="#DejaVuSans-43"/>
      <use xlink:href="#DejaVuSans-65" x="69.824219"/>
      <use xlink:href="#DejaVuSans-6e" x="131.347656"/>
      <use xlink:href="#DejaVuSans-74" x="194.726562"/>
      <use xlink:href="#DejaVuSans-4f" x="233.935547"/>
      <use xlink:href="#DejaVuSans-53" x="312.646484"/>
      <use xlink:href="#DejaVuSans-20" x="376.123047"/>
      <use xlink:href="#DejaVuSans-4c" x="407.910156"/>
      <use xlink:href="#DejaVuSans-65" x="461.873047"/>
      <use xlink:href="#DejaVuSans-67" x="523.396484"/>
      <use xlink:href="#DejaVuSans-61" x="586.873047"/>
      <use xlink:href="#DejaVuSans-63" x="648.152344"/>
      <use xlink:href="#DejaVuSans-79" x="703.132812"/>
     </g>
    </g>
    <g id="line2d_61">
     <path d="M 63.691875 81.274563 
L 73.691875 81.274563 
L 83.691875 81.274563 
" style="fill: none; stroke: #9a5689; stroke-width: 1.5; stroke-linecap: square"/>
    </g>
    <g id="text_31">
     <!-- CentOS Stream -->
     <g transform="translate(91.691875 84.774563) scale(0.1 -0.1)">
      <use xlink:href="#DejaVuSans-43"/>
      <use xlink:href="#DejaVuSans-65" x="69.824219"/>
      <use xlink:href="#DejaVuSans-6e" x="131.347656"/>
      <use xlink:href="#DejaVuSans-74" x="194.726562"/>
      <use xlink:href="#DejaVuSans-4f" x="233.935547"/>
      <use xlink:href="#DejaVuSans-53" x="312.646484"/>
      <use xlink:href="#DejaVuSans-20" x="376.123047"/>
      <use xlink:href="#DejaVuSans-53" x="407.910156"/>
      <use xlink:href="#DejaVuSans-74" x="471.386719"/>
      <use xlink:href="#DejaVuSans-72" x="510.595703"/>
      <use xlink:href="#DejaVuSans-65" x="549.458984"/>
      <use xlink:href="#DejaVuSans-61" x="610.982422"/>
      <use xlink:href="#DejaVuSans-6d" x="672.261719"/>
     </g>
    </g>
    <g id="line2d_62">
     <path d="M 63.691875 95.952688 
L 73.691875 95.952688 
L 83.691875 95.952688 
" style="fill: none; stroke: #be503b; stroke-width: 1.5; stroke-linecap: square"/>
    </g>
    <g id="text_32">
     <!-- Oracle -->
     <g transform="translate(91.691875 99.452688) scale(0.1 -0.1)">
      <use xlink:href="#DejaVuSans-4f"/>
      <use xlink:href="#DejaVuSans-72" x="78.710938"/>
      <use xlink:href="#DejaVuSans-61" x="119.824219"/>
      <use xlink:href="#DejaVuSans-63" x="181.103516"/>
      <use xlink:href="#DejaVuSans-6c" x="236.083984"/>
      <use xlink:href="#DejaVuSans-65" x="263.867188"/>
     </g>
    </g>
    <g id="line2d_63">
     <path d="M 63.691875 110.630813 
L 73.691875 110.630813 
L 83.691875 110.630813 
" style="fill: none; stroke: #e2321d; stroke-width: 1.5; stroke-linecap: square"/>
    </g>
    <g id="text_33">
     <!-- RHEL -->
     <g transform="translate(91.691875 114.130813) scale(0.1 -0.1)">
      <defs>
       <path id="DejaVuSans-48" d="M 628 4666 
L 1259 4666 
L 1259 2753 
L 3553 2753 
L 3553 4666 
L 4184 4666 
L 4184 0 
L 3553 0 
L 3553 2222 
L 1259 2222 
L 1259 0 
L 628 0 
L 628 4666 
z
" transform="scale(0.015625)"/>
      </defs>
      <use xlink:href="#DejaVuSans-52"/>
      <use xlink:href="#DejaVuSans-48" x="69.482422"/>
      <use xlink:href="#DejaVuSans-45" x="144.677734"/>
      <use xlink:href="#DejaVuSans-4c" x="207.861328"/>
     </g>
    </g>
    <g id="line2d_64">
     <path d="M 63.691875 125.308938 
L 73.691875 125.308938 
L 83.691875 125.308938 
" style="fill: none; stroke: #48b585; stroke-width: 6; stroke-linecap: square"/>
    </g>
    <g id="text_34">
     <!-- Rocky Linux -->
     <g transform="translate(91.691875 128.808938) scale(0.1 -0.1)">
      <use xlink:href="#DejaVuSans-52"/>
      <use xlink:href="#DejaVuSans-6f" x="64.982422"/>
      <use xlink:href="#DejaVuSans-63" x="126.164062"/>
      <use xlink:href="#DejaVuSans-6b" x="181.144531"/>
      <use xlink:href="#DejaVuSans-79" x="235.429688"/>
      <use xlink:href="#DejaVuSans-20" x="294.609375"/>
      <use xlink:href="#DejaVuSans-4c" x="326.396484"/>
      <use xlink:href="#DejaVuSans-69" x="382.109375"/>
      <use xlink:href="#DejaVuSans-6e" x="409.892578"/>
      <use xlink:href="#DejaVuSans-75" x="473.271484"/>
      <use xlink:href="#DejaVuSans-78" x="536.650391"/>
     </g>
    </g>
   </g>
  </g>
 </g>
 <defs>
  <clipPath id="p392e617b38">
   <rect x="54.691875" y="24.14175" width="902.844" height="554.4"/>
  </clipPath>
 </defs>
</svg>
