<?xml version="1.0" encoding="utf-8" standalone="no"?>
<!DOCTYPE svg PUBLIC "-//W3C//DTD SVG 1.1//EN"
  "http://www.w3.org/Graphics/SVG/1.1/DTD/svg11.dtd">
<svg xmlns:xlink="http://www.w3.org/1999/xlink" width="964.735875pt" height="633.943878pt" viewBox="0 0 964.735875 633.943878" xmlns="http://www.w3.org/2000/svg" version="1.1">
 <metadata>
  <rdf:RDF xmlns:dc="http://purl.org/dc/elements/1.1/" xmlns:cc="http://creativecommons.org/ns#" xmlns:rdf="http://www.w3.org/1999/02/22-rdf-syntax-ns#">
   <cc:Work>
    <dc:type rdf:resource="http://purl.org/dc/dcmitype/StillImage"/>
    <dc:date>2023-11-12T14:12:36.407761</dc:date>
    <dc:format>image/svg+xml</dc:format>
    <dc:creator>
     <cc:Agent>
      <dc:title>Matplotlib v3.5.1, https://matplotlib.org/</dc:title>
     </cc:Agent>
    </dc:creator>
   </cc:Work>
  </rdf:RDF>
 </metadata>
 <defs>
  <style type="text/css">*{stroke-linejoin: round; stroke-linecap: butt}</style>
 </defs>
 <g id="figure_1">
  <g id="patch_1">
   <path d="M 0 633.943878 
L 964.735875 633.943878 
L 964.735875 0 
L 0 0 
z
" style="fill: #ffffff"/>
  </g>
  <g id="axes_1">
   <g id="patch_2">
    <path d="M 54.691875 567.74175 
L 957.535875 567.74175 
L 957.535875 24.14175 
L 54.691875 24.14175 
z
" style="fill: #e5e5e5"/>
   </g>
   <g id="matplotlib.axis_1">
    <g id="xtick_1">
     <g id="line2d_1">
      <path d="M 72.394699 567.74175 
L 72.394699 24.14175 
" clip-path="url(#pf7e5a6b280)" style="fill: none; stroke: #ffffff; stroke-width: 0.8; stroke-linecap: square"/>
     </g>
     <g id="line2d_2">
      <defs>
       <path id="m139c9a4365" d="M 0 0 
L 0 3.5 
" style="stroke: #555555; stroke-width: 0.8"/>
      </defs>
      <g>
       <use xlink:href="#m139c9a4365" x="72.394699" y="567.74175" style="fill: #555555; stroke: #555555; stroke-width: 0.8"/>
      </g>
     </g>
     <g id="text_1">
      <!-- 2022-11 -->
      <g style="fill: #555555" transform="translate(59.573416 609.659567)rotate(-45)scale(0.1 -0.1)">
       <defs>
        <path id="DejaVuSans-32" d="M 1228 531 
L 3431 531 
L 3431 0 
L 469 0 
L 469 531 
Q 828 903 1448 1529 
Q 2069 2156 2228 2338 
Q 2531 2678 2651 2914 
Q 2772 3150 2772 3378 
Q 2772 3750 2511 3984 
Q 2250 4219 1831 4219 
Q 1534 4219 1204 4116 
Q 875 4013 500 3803 
L 500 4441 
Q 881 4594 1212 4672 
Q 1544 4750 1819 4750 
Q 2544 4750 2975 4387 
Q 3406 4025 3406 3419 
Q 3406 3131 3298 2873 
Q 3191 2616 2906 2266 
Q 2828 2175 2409 1742 
Q 1991 1309 1228 531 
z
" transform="scale(0.015625)"/>
        <path id="DejaVuSans-30" d="M 2034 4250 
Q 1547 4250 1301 3770 
Q 1056 3291 1056 2328 
Q 1056 1369 1301 889 
Q 1547 409 2034 409 
Q 2525 409 2770 889 
Q 3016 1369 3016 2328 
Q 3016 3291 2770 3770 
Q 2525 4250 2034 4250 
z
M 2034 4750 
Q 2819 4750 3233 4129 
Q 3647 3509 3647 2328 
Q 3647 1150 3233 529 
Q 2819 -91 2034 -91 
Q 1250 -91 836 529 
Q 422 1150 422 2328 
Q 422 3509 836 4129 
Q 1250 4750 2034 4750 
z
" transform="scale(0.015625)"/>
        <path id="DejaVuSans-2d" d="M 313 2009 
L 1997 2009 
L 1997 1497 
L 313 1497 
L 313 2009 
z
" transform="scale(0.015625)"/>
        <path id="DejaVuSans-31" d="M 794 531 
L 1825 531 
L 1825 4091 
L 703 3866 
L 703 4441 
L 1819 4666 
L 2450 4666 
L 2450 531 
L 3481 531 
L 3481 0 
L 794 0 
L 794 531 
z
" transform="scale(0.015625)"/>
       </defs>
       <use xlink:href="#DejaVuSans-32"/>
       <use xlink:href="#DejaVuSans-30" x="63.623047"/>
       <use xlink:href="#DejaVuSans-32" x="127.246094"/>
       <use xlink:href="#DejaVuSans-32" x="190.869141"/>
       <use xlink:href="#DejaVuSans-2d" x="254.492188"/>
       <use xlink:href="#DejaVuSans-31" x="290.576172"/>
       <use xlink:href="#DejaVuSans-31" x="354.199219"/>
      </g>
     </g>
    </g>
    <g id="xtick_2">
     <g id="line2d_3">
      <path d="M 148.263942 567.74175 
L 148.263942 24.14175 
" clip-path="url(#pf7e5a6b280)" style="fill: none; stroke: #ffffff; stroke-width: 0.8; stroke-linecap: square"/>
     </g>
     <g id="line2d_4">
      <g>
       <use xlink:href="#m139c9a4365" x="148.263942" y="567.74175" style="fill: #555555; stroke: #555555; stroke-width: 0.8"/>
      </g>
     </g>
     <g id="text_2">
      <!-- 2022-12 -->
      <g style="fill: #555555" transform="translate(135.44266 609.659567)rotate(-45)scale(0.1 -0.1)">
       <use xlink:href="#DejaVuSans-32"/>
       <use xlink:href="#DejaVuSans-30" x="63.623047"/>
       <use xlink:href="#DejaVuSans-32" x="127.246094"/>
       <use xlink:href="#DejaVuSans-32" x="190.869141"/>
       <use xlink:href="#DejaVuSans-2d" x="254.492188"/>
       <use xlink:href="#DejaVuSans-31" x="290.576172"/>
       <use xlink:href="#DejaVuSans-32" x="354.199219"/>
      </g>
     </g>
    </g>
    <g id="xtick_3">
     <g id="line2d_5">
      <path d="M 226.662161 567.74175 
L 226.662161 24.14175 
" clip-path="url(#pf7e5a6b280)" style="fill: none; stroke: #ffffff; stroke-width: 0.8; stroke-linecap: square"/>
     </g>
     <g id="line2d_6">
      <g>
       <use xlink:href="#m139c9a4365" x="226.662161" y="567.74175" style="fill: #555555; stroke: #555555; stroke-width: 0.8"/>
      </g>
     </g>
     <g id="text_3">
      <!-- 2023-01 -->
      <g style="fill: #555555" transform="translate(213.840878 609.659567)rotate(-45)scale(0.1 -0.1)">
       <defs>
        <path id="DejaVuSans-33" d="M 2597 2516 
Q 3050 2419 3304 2112 
Q 3559 1806 3559 1356 
Q 3559 666 3084 287 
Q 2609 -91 1734 -91 
Q 1441 -91 1130 -33 
Q 819 25 488 141 
L 488 750 
Q 750 597 1062 519 
Q 1375 441 1716 441 
Q 2309 441 2620 675 
Q 2931 909 2931 1356 
Q 2931 1769 2642 2001 
Q 2353 2234 1838 2234 
L 1294 2234 
L 1294 2753 
L 1863 2753 
Q 2328 2753 2575 2939 
Q 2822 3125 2822 3475 
Q 2822 3834 2567 4026 
Q 2313 4219 1838 4219 
Q 1578 4219 1281 4162 
Q 984 4106 628 3988 
L 628 4550 
Q 988 4650 1302 4700 
Q 1616 4750 1894 4750 
Q 2613 4750 3031 4423 
Q 3450 4097 3450 3541 
Q 3450 3153 3228 2886 
Q 3006 2619 2597 2516 
z
" transform="scale(0.015625)"/>
       </defs>
       <use xlink:href="#DejaVuSans-32"/>
       <use xlink:href="#DejaVuSans-30" x="63.623047"/>
       <use xlink:href="#DejaVuSans-32" x="127.246094"/>
       <use xlink:href="#DejaVuSans-33" x="190.869141"/>
       <use xlink:href="#DejaVuSans-2d" x="254.492188"/>
       <use xlink:href="#DejaVuSans-30" x="290.576172"/>
       <use xlink:href="#DejaVuSans-31" x="354.199219"/>
      </g>
     </g>
    </g>
    <g id="xtick_4">
     <g id="line2d_7">
      <path d="M 305.060379 567.74175 
L 305.060379 24.14175 
" clip-path="url(#pf7e5a6b280)" style="fill: none; stroke: #ffffff; stroke-width: 0.8; stroke-linecap: square"/>
     </g>
     <g id="line2d_8">
      <g>
       <use xlink:href="#m139c9a4365" x="305.060379" y="567.74175" style="fill: #555555; stroke: #555555; stroke-width: 0.8"/>
      </g>
     </g>
     <g id="text_4">
      <!-- 2023-02 -->
      <g style="fill: #555555" transform="translate(292.239097 609.659567)rotate(-45)scale(0.1 -0.1)">
       <use xlink:href="#DejaVuSans-32"/>
       <use xlink:href="#DejaVuSans-30" x="63.623047"/>
       <use xlink:href="#DejaVuSans-32" x="127.246094"/>
       <use xlink:href="#DejaVuSans-33" x="190.869141"/>
       <use xlink:href="#DejaVuSans-2d" x="254.492188"/>
       <use xlink:href="#DejaVuSans-30" x="290.576172"/>
       <use xlink:href="#DejaVuSans-32" x="354.199219"/>
      </g>
     </g>
    </g>
    <g id="xtick_5">
     <g id="line2d_9">
      <path d="M 375.871673 567.74175 
L 375.871673 24.14175 
" clip-path="url(#pf7e5a6b280)" style="fill: none; stroke: #ffffff; stroke-width: 0.8; stroke-linecap: square"/>
     </g>
     <g id="line2d_10">
      <g>
       <use xlink:href="#m139c9a4365" x="375.871673" y="567.74175" style="fill: #555555; stroke: #555555; stroke-width: 0.8"/>
      </g>
     </g>
     <g id="text_5">
      <!-- 2023-03 -->
      <g style="fill: #555555" transform="translate(363.050391 609.659567)rotate(-45)scale(0.1 -0.1)">
       <use xlink:href="#DejaVuSans-32"/>
       <use xlink:href="#DejaVuSans-30" x="63.623047"/>
       <use xlink:href="#DejaVuSans-32" x="127.246094"/>
       <use xlink:href="#DejaVuSans-33" x="190.869141"/>
       <use xlink:href="#DejaVuSans-2d" x="254.492188"/>
       <use xlink:href="#DejaVuSans-30" x="290.576172"/>
       <use xlink:href="#DejaVuSans-33" x="354.199219"/>
      </g>
     </g>
    </g>
    <g id="xtick_6">
     <g id="line2d_11">
      <path d="M 454.269892 567.74175 
L 454.269892 24.14175 
" clip-path="url(#pf7e5a6b280)" style="fill: none; stroke: #ffffff; stroke-width: 0.8; stroke-linecap: square"/>
     </g>
     <g id="line2d_12">
      <g>
       <use xlink:href="#m139c9a4365" x="454.269892" y="567.74175" style="fill: #555555; stroke: #555555; stroke-width: 0.8"/>
      </g>
     </g>
     <g id="text_6">
      <!-- 2023-04 -->
      <g style="fill: #555555" transform="translate(441.44861 609.659567)rotate(-45)scale(0.1 -0.1)">
       <defs>
        <path id="DejaVuSans-34" d="M 2419 4116 
L 825 1625 
L 2419 1625 
L 2419 4116 
z
M 2253 4666 
L 3047 4666 
L 3047 1625 
L 3713 1625 
L 3713 1100 
L 3047 1100 
L 3047 0 
L 2419 0 
L 2419 1100 
L 313 1100 
L 313 1709 
L 2253 4666 
z
" transform="scale(0.015625)"/>
       </defs>
       <use xlink:href="#DejaVuSans-32"/>
       <use xlink:href="#DejaVuSans-30" x="63.623047"/>
       <use xlink:href="#DejaVuSans-32" x="127.246094"/>
       <use xlink:href="#DejaVuSans-33" x="190.869141"/>
       <use xlink:href="#DejaVuSans-2d" x="254.492188"/>
       <use xlink:href="#DejaVuSans-30" x="290.576172"/>
       <use xlink:href="#DejaVuSans-34" x="354.199219"/>
      </g>
     </g>
    </g>
    <g id="xtick_7">
     <g id="line2d_13">
      <path d="M 530.139136 567.74175 
L 530.139136 24.14175 
" clip-path="url(#pf7e5a6b280)" style="fill: none; stroke: #ffffff; stroke-width: 0.8; stroke-linecap: square"/>
     </g>
     <g id="line2d_14">
      <g>
       <use xlink:href="#m139c9a4365" x="530.139136" y="567.74175" style="fill: #555555; stroke: #555555; stroke-width: 0.8"/>
      </g>
     </g>
     <g id="text_7">
      <!-- 2023-05 -->
      <g style="fill: #555555" transform="translate(517.317853 609.659567)rotate(-45)scale(0.1 -0.1)">
       <defs>
        <path id="DejaVuSans-35" d="M 691 4666 
L 3169 4666 
L 3169 4134 
L 1269 4134 
L 1269 2991 
Q 1406 3038 1543 3061 
Q 1681 3084 1819 3084 
Q 2600 3084 3056 2656 
Q 3513 2228 3513 1497 
Q 3513 744 3044 326 
Q 2575 -91 1722 -91 
Q 1428 -91 1123 -41 
Q 819 9 494 109 
L 494 744 
Q 775 591 1075 516 
Q 1375 441 1709 441 
Q 2250 441 2565 725 
Q 2881 1009 2881 1497 
Q 2881 1984 2565 2268 
Q 2250 2553 1709 2553 
Q 1456 2553 1204 2497 
Q 953 2441 691 2322 
L 691 4666 
z
" transform="scale(0.015625)"/>
       </defs>
       <use xlink:href="#DejaVuSans-32"/>
       <use xlink:href="#DejaVuSans-30" x="63.623047"/>
       <use xlink:href="#DejaVuSans-32" x="127.246094"/>
       <use xlink:href="#DejaVuSans-33" x="190.869141"/>
       <use xlink:href="#DejaVuSans-2d" x="254.492188"/>
       <use xlink:href="#DejaVuSans-30" x="290.576172"/>
       <use xlink:href="#DejaVuSans-35" x="354.199219"/>
      </g>
     </g>
    </g>
    <g id="xtick_8">
     <g id="line2d_15">
      <path d="M 608.537354 567.74175 
L 608.537354 24.14175 
" clip-path="url(#pf7e5a6b280)" style="fill: none; stroke: #ffffff; stroke-width: 0.8; stroke-linecap: square"/>
     </g>
     <g id="line2d_16">
      <g>
       <use xlink:href="#m139c9a4365" x="608.537354" y="567.74175" style="fill: #555555; stroke: #555555; stroke-width: 0.8"/>
      </g>
     </g>
     <g id="text_8">
      <!-- 2023-06 -->
      <g style="fill: #555555" transform="translate(595.716072 609.659567)rotate(-45)scale(0.1 -0.1)">
       <defs>
        <path id="DejaVuSans-36" d="M 2113 2584 
Q 1688 2584 1439 2293 
Q 1191 2003 1191 1497 
Q 1191 994 1439 701 
Q 1688 409 2113 409 
Q 2538 409 2786 701 
Q 3034 994 3034 1497 
Q 3034 2003 2786 2293 
Q 2538 2584 2113 2584 
z
M 3366 4563 
L 3366 3988 
Q 3128 4100 2886 4159 
Q 2644 4219 2406 4219 
Q 1781 4219 1451 3797 
Q 1122 3375 1075 2522 
Q 1259 2794 1537 2939 
Q 1816 3084 2150 3084 
Q 2853 3084 3261 2657 
Q 3669 2231 3669 1497 
Q 3669 778 3244 343 
Q 2819 -91 2113 -91 
Q 1303 -91 875 529 
Q 447 1150 447 2328 
Q 447 3434 972 4092 
Q 1497 4750 2381 4750 
Q 2619 4750 2861 4703 
Q 3103 4656 3366 4563 
z
" transform="scale(0.015625)"/>
       </defs>
       <use xlink:href="#DejaVuSans-32"/>
       <use xlink:href="#DejaVuSans-30" x="63.623047"/>
       <use xlink:href="#DejaVuSans-32" x="127.246094"/>
       <use xlink:href="#DejaVuSans-33" x="190.869141"/>
       <use xlink:href="#DejaVuSans-2d" x="254.492188"/>
       <use xlink:href="#DejaVuSans-30" x="290.576172"/>
       <use xlink:href="#DejaVuSans-36" x="354.199219"/>
      </g>
     </g>
    </g>
    <g id="xtick_9">
     <g id="line2d_17">
      <path d="M 684.406598 567.74175 
L 684.406598 24.14175 
" clip-path="url(#pf7e5a6b280)" style="fill: none; stroke: #ffffff; stroke-width: 0.8; stroke-linecap: square"/>
     </g>
     <g id="line2d_18">
      <g>
       <use xlink:href="#m139c9a4365" x="684.406598" y="567.74175" style="fill: #555555; stroke: #555555; stroke-width: 0.8"/>
      </g>
     </g>
     <g id="text_9">
      <!-- 2023-07 -->
      <g style="fill: #555555" transform="translate(671.585315 609.659567)rotate(-45)scale(0.1 -0.1)">
       <defs>
        <path id="DejaVuSans-37" d="M 525 4666 
L 3525 4666 
L 3525 4397 
L 1831 0 
L 1172 0 
L 2766 4134 
L 525 4134 
L 525 4666 
z
" transform="scale(0.015625)"/>
       </defs>
       <use xlink:href="#DejaVuSans-32"/>
       <use xlink:href="#DejaVuSans-30" x="63.623047"/>
       <use xlink:href="#DejaVuSans-32" x="127.246094"/>
       <use xlink:href="#DejaVuSans-33" x="190.869141"/>
       <use xlink:href="#DejaVuSans-2d" x="254.492188"/>
       <use xlink:href="#DejaVuSans-30" x="290.576172"/>
       <use xlink:href="#DejaVuSans-37" x="354.199219"/>
      </g>
     </g>
    </g>
    <g id="xtick_10">
     <g id="line2d_19">
      <path d="M 762.804816 567.74175 
L 762.804816 24.14175 
" clip-path="url(#pf7e5a6b280)" style="fill: none; stroke: #ffffff; stroke-width: 0.8; stroke-linecap: square"/>
     </g>
     <g id="line2d_20">
      <g>
       <use xlink:href="#m139c9a4365" x="762.804816" y="567.74175" style="fill: #555555; stroke: #555555; stroke-width: 0.8"/>
      </g>
     </g>
     <g id="text_10">
      <!-- 2023-08 -->
      <g style="fill: #555555" transform="translate(749.983534 609.659567)rotate(-45)scale(0.1 -0.1)">
       <defs>
        <path id="DejaVuSans-38" d="M 2034 2216 
Q 1584 2216 1326 1975 
Q 1069 1734 1069 1313 
Q 1069 891 1326 650 
Q 1584 409 2034 409 
Q 2484 409 2743 651 
Q 3003 894 3003 1313 
Q 3003 1734 2745 1975 
Q 2488 2216 2034 2216 
z
M 1403 2484 
Q 997 2584 770 2862 
Q 544 3141 544 3541 
Q 544 4100 942 4425 
Q 1341 4750 2034 4750 
Q 2731 4750 3128 4425 
Q 3525 4100 3525 3541 
Q 3525 3141 3298 2862 
Q 3072 2584 2669 2484 
Q 3125 2378 3379 2068 
Q 3634 1759 3634 1313 
Q 3634 634 3220 271 
Q 2806 -91 2034 -91 
Q 1263 -91 848 271 
Q 434 634 434 1313 
Q 434 1759 690 2068 
Q 947 2378 1403 2484 
z
M 1172 3481 
Q 1172 3119 1398 2916 
Q 1625 2713 2034 2713 
Q 2441 2713 2670 2916 
Q 2900 3119 2900 3481 
Q 2900 3844 2670 4047 
Q 2441 4250 2034 4250 
Q 1625 4250 1398 4047 
Q 1172 3844 1172 3481 
z
" transform="scale(0.015625)"/>
       </defs>
       <use xlink:href="#DejaVuSans-32"/>
       <use xlink:href="#DejaVuSans-30" x="63.623047"/>
       <use xlink:href="#DejaVuSans-32" x="127.246094"/>
       <use xlink:href="#DejaVuSans-33" x="190.869141"/>
       <use xlink:href="#DejaVuSans-2d" x="254.492188"/>
       <use xlink:href="#DejaVuSans-30" x="290.576172"/>
       <use xlink:href="#DejaVuSans-38" x="354.199219"/>
      </g>
     </g>
    </g>
    <g id="xtick_11">
     <g id="line2d_21">
      <path d="M 841.203035 567.74175 
L 841.203035 24.14175 
" clip-path="url(#pf7e5a6b280)" style="fill: none; stroke: #ffffff; stroke-width: 0.8; stroke-linecap: square"/>
     </g>
     <g id="line2d_22">
      <g>
       <use xlink:href="#m139c9a4365" x="841.203035" y="567.74175" style="fill: #555555; stroke: #555555; stroke-width: 0.8"/>
      </g>
     </g>
     <g id="text_11">
      <!-- 2023-09 -->
      <g style="fill: #555555" transform="translate(828.381752 609.659567)rotate(-45)scale(0.1 -0.1)">
       <defs>
        <path id="DejaVuSans-39" d="M 703 97 
L 703 672 
Q 941 559 1184 500 
Q 1428 441 1663 441 
Q 2288 441 2617 861 
Q 2947 1281 2994 2138 
Q 2813 1869 2534 1725 
Q 2256 1581 1919 1581 
Q 1219 1581 811 2004 
Q 403 2428 403 3163 
Q 403 3881 828 4315 
Q 1253 4750 1959 4750 
Q 2769 4750 3195 4129 
Q 3622 3509 3622 2328 
Q 3622 1225 3098 567 
Q 2575 -91 1691 -91 
Q 1453 -91 1209 -44 
Q 966 3 703 97 
z
M 1959 2075 
Q 2384 2075 2632 2365 
Q 2881 2656 2881 3163 
Q 2881 3666 2632 3958 
Q 2384 4250 1959 4250 
Q 1534 4250 1286 3958 
Q 1038 3666 1038 3163 
Q 1038 2656 1286 2365 
Q 1534 2075 1959 2075 
z
" transform="scale(0.015625)"/>
       </defs>
       <use xlink:href="#DejaVuSans-32"/>
       <use xlink:href="#DejaVuSans-30" x="63.623047"/>
       <use xlink:href="#DejaVuSans-32" x="127.246094"/>
       <use xlink:href="#DejaVuSans-33" x="190.869141"/>
       <use xlink:href="#DejaVuSans-2d" x="254.492188"/>
       <use xlink:href="#DejaVuSans-30" x="290.576172"/>
       <use xlink:href="#DejaVuSans-39" x="354.199219"/>
      </g>
     </g>
    </g>
    <g id="xtick_12">
     <g id="line2d_23">
      <path d="M 917.072278 567.74175 
L 917.072278 24.14175 
" clip-path="url(#pf7e5a6b280)" style="fill: none; stroke: #ffffff; stroke-width: 0.8; stroke-linecap: square"/>
     </g>
     <g id="line2d_24">
      <g>
       <use xlink:href="#m139c9a4365" x="917.072278" y="567.74175" style="fill: #555555; stroke: #555555; stroke-width: 0.8"/>
      </g>
     </g>
     <g id="text_12">
      <!-- 2023-10 -->
      <g style="fill: #555555" transform="translate(904.250996 609.659567)rotate(-45)scale(0.1 -0.1)">
       <use xlink:href="#DejaVuSans-32"/>
       <use xlink:href="#DejaVuSans-30" x="63.623047"/>
       <use xlink:href="#DejaVuSans-32" x="127.246094"/>
       <use xlink:href="#DejaVuSans-33" x="190.869141"/>
       <use xlink:href="#DejaVuSans-2d" x="254.492188"/>
       <use xlink:href="#DejaVuSans-31" x="290.576172"/>
       <use xlink:href="#DejaVuSans-30" x="354.199219"/>
      </g>
     </g>
    </g>
    <g id="text_13">
     <!-- Date -->
     <g style="fill: #555555" transform="translate(491.772938 624.248253)scale(0.12 -0.12)">
      <defs>
       <path id="DejaVuSans-44" d="M 1259 4147 
L 1259 519 
L 2022 519 
Q 2988 519 3436 956 
Q 3884 1394 3884 2338 
Q 3884 3275 3436 3711 
Q 2988 4147 2022 4147 
L 1259 4147 
z
M 628 4666 
L 1925 4666 
Q 3281 4666 3915 4102 
Q 4550 3538 4550 2338 
Q 4550 1131 3912 565 
Q 3275 0 1925 0 
L 628 0 
L 628 4666 
z
" transform="scale(0.015625)"/>
       <path id="DejaVuSans-61" d="M 2194 1759 
Q 1497 1759 1228 1600 
Q 959 1441 959 1056 
Q 959 750 1161 570 
Q 1363 391 1709 391 
Q 2188 391 2477 730 
Q 2766 1069 2766 1631 
L 2766 1759 
L 2194 1759 
z
M 3341 1997 
L 3341 0 
L 2766 0 
L 2766 531 
Q 2569 213 2275 61 
Q 1981 -91 1556 -91 
Q 1019 -91 701 211 
Q 384 513 384 1019 
Q 384 1609 779 1909 
Q 1175 2209 1959 2209 
L 2766 2209 
L 2766 2266 
Q 2766 2663 2505 2880 
Q 2244 3097 1772 3097 
Q 1472 3097 1187 3025 
Q 903 2953 641 2809 
L 641 3341 
Q 956 3463 1253 3523 
Q 1550 3584 1831 3584 
Q 2591 3584 2966 3190 
Q 3341 2797 3341 1997 
z
" transform="scale(0.015625)"/>
       <path id="DejaVuSans-74" d="M 1172 4494 
L 1172 3500 
L 2356 3500 
L 2356 3053 
L 1172 3053 
L 1172 1153 
Q 1172 725 1289 603 
Q 1406 481 1766 481 
L 2356 481 
L 2356 0 
L 1766 0 
Q 1100 0 847 248 
Q 594 497 594 1153 
L 594 3053 
L 172 3053 
L 172 3500 
L 594 3500 
L 594 4494 
L 1172 4494 
z
" transform="scale(0.015625)"/>
       <path id="DejaVuSans-65" d="M 3597 1894 
L 3597 1613 
L 953 1613 
Q 991 1019 1311 708 
Q 1631 397 2203 397 
Q 2534 397 2845 478 
Q 3156 559 3463 722 
L 3463 178 
Q 3153 47 2828 -22 
Q 2503 -91 2169 -91 
Q 1331 -91 842 396 
Q 353 884 353 1716 
Q 353 2575 817 3079 
Q 1281 3584 2069 3584 
Q 2775 3584 3186 3129 
Q 3597 2675 3597 1894 
z
M 3022 2063 
Q 3016 2534 2758 2815 
Q 2500 3097 2075 3097 
Q 1594 3097 1305 2825 
Q 1016 2553 972 2059 
L 3022 2063 
z
" transform="scale(0.015625)"/>
      </defs>
      <use xlink:href="#DejaVuSans-44"/>
      <use xlink:href="#DejaVuSans-61" x="77.001953"/>
      <use xlink:href="#DejaVuSans-74" x="138.28125"/>
      <use xlink:href="#DejaVuSans-65" x="177.490234"/>
     </g>
    </g>
   </g>
   <g id="matplotlib.axis_2">
    <g id="ytick_1">
     <g id="line2d_25">
      <path d="M 54.691875 567.74175 
L 957.535875 567.74175 
" clip-path="url(#pf7e5a6b280)" style="fill: none; stroke: #ffffff; stroke-width: 0.8; stroke-linecap: square"/>
     </g>
     <g id="line2d_26">
      <defs>
       <path id="m3d59f530ea" d="M 0 0 
L -3.5 0 
" style="stroke: #555555; stroke-width: 0.8"/>
      </defs>
      <g>
       <use xlink:href="#m3d59f530ea" x="54.691875" y="567.74175" style="fill: #555555; stroke: #555555; stroke-width: 0.8"/>
      </g>
     </g>
     <g id="text_14">
      <!-- 0k -->
      <g style="fill: #555555" transform="translate(35.53875 571.540969)scale(0.1 -0.1)">
       <defs>
        <path id="DejaVuSans-6b" d="M 581 4863 
L 1159 4863 
L 1159 1991 
L 2875 3500 
L 3609 3500 
L 1753 1863 
L 3688 0 
L 2938 0 
L 1159 1709 
L 1159 0 
L 581 0 
L 581 4863 
z
" transform="scale(0.015625)"/>
       </defs>
       <use xlink:href="#DejaVuSans-30"/>
       <use xlink:href="#DejaVuSans-6b" x="63.623047"/>
      </g>
     </g>
    </g>
    <g id="ytick_2">
     <g id="line2d_27">
      <path d="M 54.691875 500.206148 
L 957.535875 500.206148 
" clip-path="url(#pf7e5a6b280)" style="fill: none; stroke: #ffffff; stroke-width: 0.8; stroke-linecap: square"/>
     </g>
     <g id="line2d_28">
      <g>
       <use xlink:href="#m3d59f530ea" x="54.691875" y="500.206148" style="fill: #555555; stroke: #555555; stroke-width: 0.8"/>
      </g>
     </g>
     <g id="text_15">
      <!-- 25k -->
      <g style="fill: #555555" transform="translate(29.17625 504.005367)scale(0.1 -0.1)">
       <use xlink:href="#DejaVuSans-32"/>
       <use xlink:href="#DejaVuSans-35" x="63.623047"/>
       <use xlink:href="#DejaVuSans-6b" x="127.246094"/>
      </g>
     </g>
    </g>
    <g id="ytick_3">
     <g id="line2d_29">
      <path d="M 54.691875 432.670547 
L 957.535875 432.670547 
" clip-path="url(#pf7e5a6b280)" style="fill: none; stroke: #ffffff; stroke-width: 0.8; stroke-linecap: square"/>
     </g>
     <g id="line2d_30">
      <g>
       <use xlink:href="#m3d59f530ea" x="54.691875" y="432.670547" style="fill: #555555; stroke: #555555; stroke-width: 0.8"/>
      </g>
     </g>
     <g id="text_16">
      <!-- 50k -->
      <g style="fill: #555555" transform="translate(29.17625 436.469766)scale(0.1 -0.1)">
       <use xlink:href="#DejaVuSans-35"/>
       <use xlink:href="#DejaVuSans-30" x="63.623047"/>
       <use xlink:href="#DejaVuSans-6b" x="127.246094"/>
      </g>
     </g>
    </g>
    <g id="ytick_4">
     <g id="line2d_31">
      <path d="M 54.691875 365.134945 
L 957.535875 365.134945 
" clip-path="url(#pf7e5a6b280)" style="fill: none; stroke: #ffffff; stroke-width: 0.8; stroke-linecap: square"/>
     </g>
     <g id="line2d_32">
      <g>
       <use xlink:href="#m3d59f530ea" x="54.691875" y="365.134945" style="fill: #555555; stroke: #555555; stroke-width: 0.8"/>
      </g>
     </g>
     <g id="text_17">
      <!-- 75k -->
      <g style="fill: #555555" transform="translate(29.17625 368.934164)scale(0.1 -0.1)">
       <use xlink:href="#DejaVuSans-37"/>
       <use xlink:href="#DejaVuSans-35" x="63.623047"/>
       <use xlink:href="#DejaVuSans-6b" x="127.246094"/>
      </g>
     </g>
    </g>
    <g id="ytick_5">
     <g id="line2d_33">
      <path d="M 54.691875 297.599344 
L 957.535875 297.599344 
" clip-path="url(#pf7e5a6b280)" style="fill: none; stroke: #ffffff; stroke-width: 0.8; stroke-linecap: square"/>
     </g>
     <g id="line2d_34">
      <g>
       <use xlink:href="#m3d59f530ea" x="54.691875" y="297.599344" style="fill: #555555; stroke: #555555; stroke-width: 0.8"/>
      </g>
     </g>
     <g id="text_18">
      <!-- 100k -->
      <g style="fill: #555555" transform="translate(22.81375 301.398563)scale(0.1 -0.1)">
       <use xlink:href="#DejaVuSans-31"/>
       <use xlink:href="#DejaVuSans-30" x="63.623047"/>
       <use xlink:href="#DejaVuSans-30" x="127.246094"/>
       <use xlink:href="#DejaVuSans-6b" x="190.869141"/>
      </g>
     </g>
    </g>
    <g id="ytick_6">
     <g id="line2d_35">
      <path d="M 54.691875 230.063742 
L 957.535875 230.063742 
" clip-path="url(#pf7e5a6b280)" style="fill: none; stroke: #ffffff; stroke-width: 0.8; stroke-linecap: square"/>
     </g>
     <g id="line2d_36">
      <g>
       <use xlink:href="#m3d59f530ea" x="54.691875" y="230.063742" style="fill: #555555; stroke: #555555; stroke-width: 0.8"/>
      </g>
     </g>
     <g id="text_19">
      <!-- 125k -->
      <g style="fill: #555555" transform="translate(22.81375 233.862961)scale(0.1 -0.1)">
       <use xlink:href="#DejaVuSans-31"/>
       <use xlink:href="#DejaVuSans-32" x="63.623047"/>
       <use xlink:href="#DejaVuSans-35" x="127.246094"/>
       <use xlink:href="#DejaVuSans-6b" x="190.869141"/>
      </g>
     </g>
    </g>
    <g id="ytick_7">
     <g id="line2d_37">
      <path d="M 54.691875 162.528141 
L 957.535875 162.528141 
" clip-path="url(#pf7e5a6b280)" style="fill: none; stroke: #ffffff; stroke-width: 0.8; stroke-linecap: square"/>
     </g>
     <g id="line2d_38">
      <g>
       <use xlink:href="#m3d59f530ea" x="54.691875" y="162.528141" style="fill: #555555; stroke: #555555; stroke-width: 0.8"/>
      </g>
     </g>
     <g id="text_20">
      <!-- 150k -->
      <g style="fill: #555555" transform="translate(22.81375 166.327359)scale(0.1 -0.1)">
       <use xlink:href="#DejaVuSans-31"/>
       <use xlink:href="#DejaVuSans-35" x="63.623047"/>
       <use xlink:href="#DejaVuSans-30" x="127.246094"/>
       <use xlink:href="#DejaVuSans-6b" x="190.869141"/>
      </g>
     </g>
    </g>
    <g id="ytick_8">
     <g id="line2d_39">
      <path d="M 54.691875 94.992539 
L 957.535875 94.992539 
" clip-path="url(#pf7e5a6b280)" style="fill: none; stroke: #ffffff; stroke-width: 0.8; stroke-linecap: square"/>
     </g>
     <g id="line2d_40">
      <g>
       <use xlink:href="#m3d59f530ea" x="54.691875" y="94.992539" style="fill: #555555; stroke: #555555; stroke-width: 0.8"/>
      </g>
     </g>
     <g id="text_21">
      <!-- 175k -->
      <g style="fill: #555555" transform="translate(22.81375 98.791758)scale(0.1 -0.1)">
       <use xlink:href="#DejaVuSans-31"/>
       <use xlink:href="#DejaVuSans-37" x="63.623047"/>
       <use xlink:href="#DejaVuSans-35" x="127.246094"/>
       <use xlink:href="#DejaVuSans-6b" x="190.869141"/>
      </g>
     </g>
    </g>
    <g id="ytick_9">
     <g id="line2d_41">
      <path d="M 54.691875 27.456938 
L 957.535875 27.456938 
" clip-path="url(#pf7e5a6b280)" style="fill: none; stroke: #ffffff; stroke-width: 0.8; stroke-linecap: square"/>
     </g>
     <g id="line2d_42">
      <g>
       <use xlink:href="#m3d59f530ea" x="54.691875" y="27.456938" style="fill: #555555; stroke: #555555; stroke-width: 0.8"/>
      </g>
     </g>
     <g id="text_22">
      <!-- 200k -->
      <g style="fill: #555555" transform="translate(22.81375 31.256156)scale(0.1 -0.1)">
       <use xlink:href="#DejaVuSans-32"/>
       <use xlink:href="#DejaVuSans-30" x="63.623047"/>
       <use xlink:href="#DejaVuSans-30" x="127.246094"/>
       <use xlink:href="#DejaVuSans-6b" x="190.869141"/>
      </g>
     </g>
    </g>
    <g id="text_23">
     <!-- Instances -->
     <g style="fill: #555555" transform="translate(16.318125 324.588)rotate(-90)scale(0.12 -0.12)">
      <defs>
       <path id="DejaVuSans-49" d="M 628 4666 
L 1259 4666 
L 1259 0 
L 628 0 
L 628 4666 
z
" transform="scale(0.015625)"/>
       <path id="DejaVuSans-6e" d="M 3513 2113 
L 3513 0 
L 2938 0 
L 2938 2094 
Q 2938 2591 2744 2837 
Q 2550 3084 2163 3084 
Q 1697 3084 1428 2787 
Q 1159 2491 1159 1978 
L 1159 0 
L 581 0 
L 581 3500 
L 1159 3500 
L 1159 2956 
Q 1366 3272 1645 3428 
Q 1925 3584 2291 3584 
Q 2894 3584 3203 3211 
Q 3513 2838 3513 2113 
z
" transform="scale(0.015625)"/>
       <path id="DejaVuSans-73" d="M 2834 3397 
L 2834 2853 
Q 2591 2978 2328 3040 
Q 2066 3103 1784 3103 
Q 1356 3103 1142 2972 
Q 928 2841 928 2578 
Q 928 2378 1081 2264 
Q 1234 2150 1697 2047 
L 1894 2003 
Q 2506 1872 2764 1633 
Q 3022 1394 3022 966 
Q 3022 478 2636 193 
Q 2250 -91 1575 -91 
Q 1294 -91 989 -36 
Q 684 19 347 128 
L 347 722 
Q 666 556 975 473 
Q 1284 391 1588 391 
Q 1994 391 2212 530 
Q 2431 669 2431 922 
Q 2431 1156 2273 1281 
Q 2116 1406 1581 1522 
L 1381 1569 
Q 847 1681 609 1914 
Q 372 2147 372 2553 
Q 372 3047 722 3315 
Q 1072 3584 1716 3584 
Q 2034 3584 2315 3537 
Q 2597 3491 2834 3397 
z
" transform="scale(0.015625)"/>
       <path id="DejaVuSans-63" d="M 3122 3366 
L 3122 2828 
Q 2878 2963 2633 3030 
Q 2388 3097 2138 3097 
Q 1578 3097 1268 2742 
Q 959 2388 959 1747 
Q 959 1106 1268 751 
Q 1578 397 2138 397 
Q 2388 397 2633 464 
Q 2878 531 3122 666 
L 3122 134 
Q 2881 22 2623 -34 
Q 2366 -91 2075 -91 
Q 1284 -91 818 406 
Q 353 903 353 1747 
Q 353 2603 823 3093 
Q 1294 3584 2113 3584 
Q 2378 3584 2631 3529 
Q 2884 3475 3122 3366 
z
" transform="scale(0.015625)"/>
      </defs>
      <use xlink:href="#DejaVuSans-49"/>
      <use xlink:href="#DejaVuSans-6e" x="29.492188"/>
      <use xlink:href="#DejaVuSans-73" x="92.871094"/>
      <use xlink:href="#DejaVuSans-74" x="144.970703"/>
      <use xlink:href="#DejaVuSans-61" x="184.179688"/>
      <use xlink:href="#DejaVuSans-6e" x="245.458984"/>
      <use xlink:href="#DejaVuSans-63" x="308.837891"/>
      <use xlink:href="#DejaVuSans-65" x="363.818359"/>
      <use xlink:href="#DejaVuSans-73" x="425.341797"/>
     </g>
    </g>
   </g>
   <g id="line2d_43">
    <path d="M 54.691875 490.363299 
L 63.811511 488.973704 
L 72.931148 487.584109 
L 82.050784 486.194514 
L 91.17042 484.804919 
L 100.290057 483.415323 
L 109.409693 482.025728 
L 118.52933 480.636133 
L 127.648966 479.246538 
L 136.768602 477.856943 
L 145.888239 476.467347 
L 155.007875 475.077752 
L 164.127511 473.688157 
L 173.247148 472.298562 
L 182.366784 470.908967 
L 191.48642 469.519372 
L 200.606057 468.129776 
L 209.725693 466.740181 
L 218.84533 465.350586 
L 227.964966 463.960991 
L 237.084602 462.571396 
L 246.204239 461.1818 
L 255.323875 459.792205 
L 264.443511 458.40261 
L 273.563148 457.013015 
L 282.682784 455.62342 
L 291.80242 454.233825 
L 300.922057 452.844229 
L 310.041693 451.454634 
L 319.16133 450.065039 
L 328.280966 448.675444 
L 337.400602 447.285849 
L 346.520239 445.896253 
L 355.639875 444.506658 
L 364.759511 443.117063 
L 373.879148 441.727468 
L 382.998784 440.337873 
L 392.11842 438.948277 
L 401.238057 437.558682 
L 410.357693 436.169087 
L 419.47733 434.779492 
L 428.596966 433.389897 
L 437.716602 432.000302 
L 446.836239 430.610706 
L 455.955875 429.221111 
L 465.075511 427.831516 
L 474.195148 426.441921 
L 483.314784 425.052326 
L 492.43442 423.66273 
L 501.554057 422.273135 
L 510.673693 420.88354 
L 519.79333 419.493945 
L 528.912966 418.10435 
L 538.032602 416.714754 
L 547.152239 415.325159 
L 556.271875 413.935564 
L 565.391511 412.545969 
L 574.511148 411.156374 
L 583.630784 409.766779 
L 592.75042 408.377183 
L 601.870057 406.987588 
L 610.989693 405.597993 
L 620.10933 404.208398 
L 629.228966 402.818803 
L 638.348602 401.429207 
L 647.468239 400.039612 
L 656.587875 398.650017 
L 665.707511 397.260422 
L 674.827148 395.870827 
L 683.946784 394.481231 
L 693.06642 393.091636 
L 702.186057 391.702041 
L 711.305693 390.312446 
L 720.42533 388.922851 
L 729.544966 387.533256 
L 738.664602 386.14366 
L 747.784239 384.754065 
L 756.903875 383.36447 
L 766.023511 381.974875 
L 775.143148 380.58528 
L 784.262784 379.195684 
L 793.38242 377.806089 
L 802.502057 376.416494 
L 811.621693 375.026899 
L 820.74133 373.637304 
L 829.860966 372.247708 
L 838.980602 370.858113 
L 848.100239 369.468518 
L 857.219875 368.078923 
L 866.339511 366.689328 
L 875.459148 365.299733 
L 884.578784 363.910137 
L 893.69842 362.520542 
L 902.818057 361.130947 
L 911.937693 359.741352 
L 921.05733 358.351757 
L 930.176966 356.962161 
L 939.296602 355.572566 
L 948.416239 354.182971 
L 957.535875 352.793376 
" clip-path="url(#pf7e5a6b280)" style="fill: none; stroke-dasharray: 1.5,2.475; stroke-dashoffset: 0; stroke: #4ac1fa; stroke-width: 1.5"/>
   </g>
   <g id="line2d_44">
    <path d="M 54.691875 312.021316 
L 63.811511 313.279085 
L 72.931148 314.536854 
L 82.050784 315.794623 
L 91.17042 317.052392 
L 100.290057 318.310161 
L 109.409693 319.567931 
L 118.52933 320.8257 
L 127.648966 322.083469 
L 136.768602 323.341238 
L 145.888239 324.599007 
L 155.007875 325.856776 
L 164.127511 327.114545 
L 173.247148 328.372314 
L 182.366784 329.630083 
L 191.48642 330.887852 
L 200.606057 332.145622 
L 209.725693 333.403391 
L 218.84533 334.66116 
L 227.964966 335.918929 
L 237.084602 337.176698 
L 246.204239 338.434467 
L 255.323875 339.692236 
L 264.443511 340.950005 
L 273.563148 342.207774 
L 282.682784 343.465544 
L 291.80242 344.723313 
L 300.922057 345.981082 
L 310.041693 347.238851 
L 319.16133 348.49662 
L 328.280966 349.754389 
L 337.400602 351.012158 
L 346.520239 352.269927 
L 355.639875 353.527696 
L 364.759511 354.785466 
L 373.879148 356.043235 
L 382.998784 357.301004 
L 392.11842 358.558773 
L 401.238057 359.816542 
L 410.357693 361.074311 
L 419.47733 362.33208 
L 428.596966 363.589849 
L 437.716602 364.847618 
L 446.836239 366.105387 
L 455.955875 367.363157 
L 465.075511 368.620926 
L 474.195148 369.878695 
L 483.314784 371.136464 
L 492.43442 372.394233 
L 501.554057 373.652002 
L 510.673693 374.909771 
L 519.79333 376.16754 
L 528.912966 377.425309 
L 538.032602 378.683079 
L 547.152239 379.940848 
L 556.271875 381.198617 
L 565.391511 382.456386 
L 574.511148 383.714155 
L 583.630784 384.971924 
L 592.75042 386.229693 
L 601.870057 387.487462 
L 610.989693 388.745231 
L 620.10933 390.003 
L 629.228966 391.26077 
L 638.348602 392.518539 
L 647.468239 393.776308 
L 656.587875 395.034077 
L 665.707511 396.291846 
L 674.827148 397.549615 
L 683.946784 398.807384 
L 693.06642 400.065153 
L 702.186057 401.322922 
L 711.305693 402.580692 
L 720.42533 403.838461 
L 729.544966 405.09623 
L 738.664602 406.353999 
L 747.784239 407.611768 
L 756.903875 408.869537 
L 766.023511 410.127306 
L 775.143148 411.385075 
L 784.262784 412.642844 
L 793.38242 413.900614 
L 802.502057 415.158383 
L 811.621693 416.416152 
L 820.74133 417.673921 
L 829.860966 418.93169 
L 838.980602 420.189459 
L 848.100239 421.447228 
L 857.219875 422.704997 
L 866.339511 423.962766 
L 875.459148 425.220535 
L 884.578784 426.478305 
L 893.69842 427.736074 
L 902.818057 428.993843 
L 911.937693 430.251612 
L 921.05733 431.509381 
L 930.176966 432.76715 
L 939.296602 434.024919 
L 948.416239 435.282688 
L 957.535875 436.540457 
" clip-path="url(#pf7e5a6b280)" style="fill: none; stroke-dasharray: 1.5,2.475; stroke-dashoffset: 0; stroke: #e9a942; stroke-width: 1.5"/>
   </g>
   <g id="line2d_45">
    <path d="M 54.691875 417.609609 
L 63.811511 417.581552 
L 72.931148 417.553496 
L 82.050784 417.52544 
L 91.17042 417.497383 
L 100.290057 417.469327 
L 109.409693 417.441271 
L 118.52933 417.413214 
L 127.648966 417.385158 
L 136.768602 417.357102 
L 145.888239 417.329045 
L 155.007875 417.300989 
L 164.127511 417.272932 
L 173.247148 417.244876 
L 182.366784 417.21682 
L 191.48642 417.188763 
L 200.606057 417.160707 
L 209.725693 417.132651 
L 218.84533 417.104594 
L 227.964966 417.076538 
L 237.084602 417.048482 
L 246.204239 417.020425 
L 255.323875 416.992369 
L 264.443511 416.964313 
L 273.563148 416.936256 
L 282.682784 416.9082 
L 291.80242 416.880144 
L 300.922057 416.852087 
L 310.041693 416.824031 
L 319.16133 416.795975 
L 328.280966 416.767918 
L 337.400602 416.739862 
L 346.520239 416.711805 
L 355.639875 416.683749 
L 364.759511 416.655693 
L 373.879148 416.627636 
L 382.998784 416.59958 
L 392.11842 416.571524 
L 401.238057 416.543467 
L 410.357693 416.515411 
L 419.47733 416.487355 
L 428.596966 416.459298 
L 437.716602 416.431242 
L 446.836239 416.403186 
L 455.955875 416.375129 
L 465.075511 416.347073 
L 474.195148 416.319017 
L 483.314784 416.29096 
L 492.43442 416.262904 
L 501.554057 416.234848 
L 510.673693 416.206791 
L 519.79333 416.178735 
L 528.912966 416.150679 
L 538.032602 416.122622 
L 547.152239 416.094566 
L 556.271875 416.066509 
L 565.391511 416.038453 
L 574.511148 416.010397 
L 583.630784 415.98234 
L 592.75042 415.954284 
L 601.870057 415.926228 
L 610.989693 415.898171 
L 620.10933 415.870115 
L 629.228966 415.842059 
L 638.348602 415.814002 
L 647.468239 415.785946 
L 656.587875 415.75789 
L 665.707511 415.729833 
L 674.827148 415.701777 
L 683.946784 415.673721 
L 693.06642 415.645664 
L 702.186057 415.617608 
L 711.305693 415.589552 
L 720.42533 415.561495 
L 729.544966 415.533439 
L 738.664602 415.505383 
L 747.784239 415.477326 
L 756.903875 415.44927 
L 766.023511 415.421213 
L 775.143148 415.393157 
L 784.262784 415.365101 
L 793.38242 415.337044 
L 802.502057 415.308988 
L 811.621693 415.280932 
L 820.74133 415.252875 
L 829.860966 415.224819 
L 838.980602 415.196763 
L 848.100239 415.168706 
L 857.219875 415.14065 
L 866.339511 415.112594 
L 875.459148 415.084537 
L 884.578784 415.056481 
L 893.69842 415.028425 
L 902.818057 415.000368 
L 911.937693 414.972312 
L 921.05733 414.944256 
L 930.176966 414.916199 
L 939.296602 414.888143 
L 948.416239 414.860086 
L 957.535875 414.83203 
" clip-path="url(#pf7e5a6b280)" style="fill: none; stroke-dasharray: 1.5,2.475; stroke-dashoffset: 0; stroke: #9a5689; stroke-width: 1.5"/>
   </g>
   <g id="line2d_46">
    <path d="M 54.691875 512.877801 
L 63.811511 512.476162 
L 72.931148 512.074524 
L 82.050784 511.672885 
L 91.17042 511.271247 
L 100.290057 510.869608 
L 109.409693 510.46797 
L 118.52933 510.066331 
L 127.648966 509.664693 
L 136.768602 509.263054 
L 145.888239 508.861416 
L 155.007875 508.459777 
L 164.127511 508.058139 
L 173.247148 507.6565 
L 182.366784 507.254862 
L 191.48642 506.853224 
L 200.606057 506.451585 
L 209.725693 506.049947 
L 218.84533 505.648308 
L 227.964966 505.24667 
L 237.084602 504.845031 
L 246.204239 504.443393 
L 255.323875 504.041754 
L 264.443511 503.640116 
L 273.563148 503.238477 
L 282.682784 502.836839 
L 291.80242 502.4352 
L 300.922057 502.033562 
L 310.041693 501.631923 
L 319.16133 501.230285 
L 328.280966 500.828646 
L 337.400602 500.427008 
L 346.520239 500.025369 
L 355.639875 499.623731 
L 364.759511 499.222092 
L 373.879148 498.820454 
L 382.998784 498.418815 
L 392.11842 498.017177 
L 401.238057 497.615538 
L 410.357693 497.2139 
L 419.47733 496.812262 
L 428.596966 496.410623 
L 437.716602 496.008985 
L 446.836239 495.607346 
L 455.955875 495.205708 
L 465.075511 494.804069 
L 474.195148 494.402431 
L 483.314784 494.000792 
L 492.43442 493.599154 
L 501.554057 493.197515 
L 510.673693 492.795877 
L 519.79333 492.394238 
L 528.912966 491.9926 
L 538.032602 491.590961 
L 547.152239 491.189323 
L 556.271875 490.787684 
L 565.391511 490.386046 
L 574.511148 489.984407 
L 583.630784 489.582769 
L 592.75042 489.18113 
L 601.870057 488.779492 
L 610.989693 488.377853 
L 620.10933 487.976215 
L 629.228966 487.574577 
L 638.348602 487.172938 
L 647.468239 486.7713 
L 656.587875 486.369661 
L 665.707511 485.968023 
L 674.827148 485.566384 
L 683.946784 485.164746 
L 693.06642 484.763107 
L 702.186057 484.361469 
L 711.305693 483.95983 
L 720.42533 483.558192 
L 729.544966 483.156553 
L 738.664602 482.754915 
L 747.784239 482.353276 
L 756.903875 481.951638 
L 766.023511 481.549999 
L 775.143148 481.148361 
L 784.262784 480.746722 
L 793.38242 480.345084 
L 802.502057 479.943445 
L 811.621693 479.541807 
L 820.74133 479.140168 
L 829.860966 478.73853 
L 838.980602 478.336891 
L 848.100239 477.935253 
L 857.219875 477.533615 
L 866.339511 477.131976 
L 875.459148 476.730338 
L 884.578784 476.328699 
L 893.69842 475.927061 
L 902.818057 475.525422 
L 911.937693 475.123784 
L 921.05733 474.722145 
L 930.176966 474.320507 
L 939.296602 473.918868 
L 948.416239 473.51723 
L 957.535875 473.115591 
" clip-path="url(#pf7e5a6b280)" style="fill: none; stroke-dasharray: 1.5,2.475; stroke-dashoffset: 0; stroke: #be503b; stroke-width: 1.5"/>
   </g>
   <g id="line2d_47">
    <path d="M 54.691875 396.429243 
L 63.811511 395.682411 
L 72.931148 394.935578 
L 82.050784 394.188746 
L 91.17042 393.441914 
L 100.290057 392.695081 
L 109.409693 391.948249 
L 118.52933 391.201416 
L 127.648966 390.454584 
L 136.768602 389.707751 
L 145.888239 388.960919 
L 155.007875 388.214086 
L 164.127511 387.467254 
L 173.247148 386.720421 
L 182.366784 385.973589 
L 191.48642 385.226756 
L 200.606057 384.479924 
L 209.725693 383.733091 
L 218.84533 382.986259 
L 227.964966 382.239427 
L 237.084602 381.492594 
L 246.204239 380.745762 
L 255.323875 379.998929 
L 264.443511 379.252097 
L 273.563148 378.505264 
L 282.682784 377.758432 
L 291.80242 377.011599 
L 300.922057 376.264767 
L 310.041693 375.517934 
L 319.16133 374.771102 
L 328.280966 374.024269 
L 337.400602 373.277437 
L 346.520239 372.530604 
L 355.639875 371.783772 
L 364.759511 371.03694 
L 373.879148 370.290107 
L 382.998784 369.543275 
L 392.11842 368.796442 
L 401.238057 368.04961 
L 410.357693 367.302777 
L 419.47733 366.555945 
L 428.596966 365.809112 
L 437.716602 365.06228 
L 446.836239 364.315447 
L 455.955875 363.568615 
L 465.075511 362.821782 
L 474.195148 362.07495 
L 483.314784 361.328118 
L 492.43442 360.581285 
L 501.554057 359.834453 
L 510.673693 359.08762 
L 519.79333 358.340788 
L 528.912966 357.593955 
L 538.032602 356.847123 
L 547.152239 356.10029 
L 556.271875 355.353458 
L 565.391511 354.606625 
L 574.511148 353.859793 
L 583.630784 353.11296 
L 592.75042 352.366128 
L 601.870057 351.619295 
L 610.989693 350.872463 
L 620.10933 350.125631 
L 629.228966 349.378798 
L 638.348602 348.631966 
L 647.468239 347.885133 
L 656.587875 347.138301 
L 665.707511 346.391468 
L 674.827148 345.644636 
L 683.946784 344.897803 
L 693.06642 344.150971 
L 702.186057 343.404138 
L 711.305693 342.657306 
L 720.42533 341.910473 
L 729.544966 341.163641 
L 738.664602 340.416808 
L 747.784239 339.669976 
L 756.903875 338.923144 
L 766.023511 338.176311 
L 775.143148 337.429479 
L 784.262784 336.682646 
L 793.38242 335.935814 
L 802.502057 335.188981 
L 811.621693 334.442149 
L 820.74133 333.695316 
L 829.860966 332.948484 
L 838.980602 332.201651 
L 848.100239 331.454819 
L 857.219875 330.707986 
L 866.339511 329.961154 
L 875.459148 329.214321 
L 884.578784 328.467489 
L 893.69842 327.720657 
L 902.818057 326.973824 
L 911.937693 326.226992 
L 921.05733 325.480159 
L 930.176966 324.733327 
L 939.296602 323.986494 
L 948.416239 323.239662 
L 957.535875 322.492829 
" clip-path="url(#pf7e5a6b280)" style="fill: none; stroke-dasharray: 1.5,2.475; stroke-dashoffset: 0; stroke: #e2321d; stroke-width: 1.5"/>
   </g>
   <g id="line2d_48">
    <path d="M 54.691875 270.802968 
L 63.811511 270.254759 
L 72.931148 269.706549 
L 82.050784 269.15834 
L 91.17042 268.61013 
L 100.290057 268.061921 
L 109.409693 267.513712 
L 118.52933 266.965502 
L 127.648966 266.417293 
L 136.768602 265.869083 
L 145.888239 265.320874 
L 155.007875 264.772664 
L 164.127511 264.224455 
L 173.247148 263.676245 
L 182.366784 263.128036 
L 191.48642 262.579827 
L 200.606057 262.031617 
L 209.725693 261.483408 
L 218.84533 260.935198 
L 227.964966 260.386989 
L 237.084602 259.838779 
L 246.204239 259.29057 
L 255.323875 258.742361 
L 264.443511 258.194151 
L 273.563148 257.645942 
L 282.682784 257.097732 
L 291.80242 256.549523 
L 300.922057 256.001313 
L 310.041693 255.453104 
L 319.16133 254.904894 
L 328.280966 254.356685 
L 337.400602 253.808476 
L 346.520239 253.260266 
L 355.639875 252.712057 
L 364.759511 252.163847 
L 373.879148 251.615638 
L 382.998784 251.067428 
L 392.11842 250.519219 
L 401.238057 249.97101 
L 410.357693 249.4228 
L 419.47733 248.874591 
L 428.596966 248.326381 
L 437.716602 247.778172 
L 446.836239 247.229962 
L 455.955875 246.681753 
L 465.075511 246.133544 
L 474.195148 245.585334 
L 483.314784 245.037125 
L 492.43442 244.488915 
L 501.554057 243.940706 
L 510.673693 243.392496 
L 519.79333 242.844287 
L 528.912966 242.296077 
L 538.032602 241.747868 
L 547.152239 241.199659 
L 556.271875 240.651449 
L 565.391511 240.10324 
L 574.511148 239.55503 
L 583.630784 239.006821 
L 592.75042 238.458611 
L 601.870057 237.910402 
L 610.989693 237.362193 
L 620.10933 236.813983 
L 629.228966 236.265774 
L 638.348602 235.717564 
L 647.468239 235.169355 
L 656.587875 234.621145 
L 665.707511 234.072936 
L 674.827148 233.524726 
L 683.946784 232.976517 
L 693.06642 232.428308 
L 702.186057 231.880098 
L 711.305693 231.331889 
L 720.42533 230.783679 
L 729.544966 230.23547 
L 738.664602 229.68726 
L 747.784239 229.139051 
L 756.903875 228.590842 
L 766.023511 228.042632 
L 775.143148 227.494423 
L 784.262784 226.946213 
L 793.38242 226.398004 
L 802.502057 225.849794 
L 811.621693 225.301585 
L 820.74133 224.753375 
L 829.860966 224.205166 
L 838.980602 223.656957 
L 848.100239 223.108747 
L 857.219875 222.560538 
L 866.339511 222.012328 
L 875.459148 221.464119 
L 884.578784 220.915909 
L 893.69842 220.3677 
L 902.818057 219.819491 
L 911.937693 219.271281 
L 921.05733 218.723072 
L 930.176966 218.174862 
L 939.296602 217.626653 
L 948.416239 217.078443 
L 957.535875 216.530234 
" clip-path="url(#pf7e5a6b280)" style="fill: none; stroke-dasharray: 1.5,2.475; stroke-dashoffset: 0; stroke: #48b585; stroke-width: 1.5"/>
   </g>
   <g id="line2d_49">
    <path d="M 54.691875 449.003357 
L 72.394699 445.980463 
L 90.097522 440.499274 
L 107.800346 444.824254 
L 125.503169 469.115459 
L 143.205993 470.250057 
L 160.908816 475.674517 
L 178.61164 495.481358 
L 196.314463 494.435907 
L 214.017287 476.006792 
L 231.72011 478.281391 
L 249.422934 473.100059 
L 267.125757 472.411196 
L 284.828581 471.481906 
L 302.531404 474.634468 
L 320.234228 467.697211 
L 337.937051 461.532562 
L 355.639875 467.262282 
L 373.342699 453.971276 
L 391.045522 463.134506 
L 408.748346 460.697822 
L 426.451169 461.767585 
L 444.153993 471.049679 
L 461.856816 459.152607 
L 479.55964 449.543642 
L 532.66811 456.940141 
L 550.370934 393.775443 
L 568.073757 343.996302 
L 585.776581 398.627201 
L 603.479404 374.390024 
L 621.182228 402.333555 
L 638.885051 370.686372 
L 656.587875 387.462215 
L 674.290699 380.687044 
L 691.993522 386.473494 
L 709.696346 374.36301 
L 727.399169 380.362873 
L 745.101993 382.491595 
L 762.804816 385.455057 
L 780.50764 348.556306 
L 798.210463 379.39036 
L 815.913287 358.71366 
L 833.61611 378.623156 
L 851.318934 368.338834 
L 869.021757 360.76134 
L 886.724581 368.138929 
L 904.427404 353.15413 
L 922.130228 142.926608 
L 939.833051 419.617266 
L 957.535875 535.662339 
" clip-path="url(#pf7e5a6b280)" style="fill: none; stroke: #4ac1fa; stroke-width: 1.5; stroke-linecap: square"/>
   </g>
   <g id="line2d_50">
    <path d="M 54.691875 491.750691 
L 72.394699 495.386808 
L 90.097522 462.734695 
L 107.800346 443.743684 
L 125.503169 346.832797 
L 143.205993 185.36598 
L 160.908816 197.308976 
L 178.61164 175.368009 
L 196.314463 351.198299 
L 214.017287 322.130976 
L 231.72011 333.88217 
L 249.422934 330.416243 
L 267.125757 315.958222 
L 284.828581 358.667736 
L 302.531404 355.417923 
L 320.234228 339.987389 
L 337.937051 359.475462 
L 355.639875 366.739591 
L 373.342699 397.957248 
L 391.045522 384.979607 
L 408.748346 409.238395 
L 426.451169 406.515359 
L 444.153993 426.184428 
L 461.856816 401.636587 
L 479.55964 373.360782 
L 532.66811 208.511781 
L 550.370934 190.909302 
L 568.073757 153.662067 
L 585.776581 191.233473 
L 603.479404 187.83238 
L 621.182228 276.101411 
L 638.885051 185.82252 
L 656.587875 332.372074 
L 674.290699 458.469147 
L 691.993522 461.097632 
L 709.696346 460.308816 
L 727.399169 455.370613 
L 745.101993 471.490011 
L 762.804816 459.187725 
L 780.50764 454.379191 
L 798.210463 463.561331 
L 815.913287 468.988492 
L 833.61611 462.7428 
L 851.318934 458.966209 
L 869.021757 457.580378 
L 886.724581 447.277147 
L 904.427404 448.219944 
L 922.130228 446.893545 
L 939.833051 526.337023 
L 957.535875 554.491265 
" clip-path="url(#pf7e5a6b280)" style="fill: none; stroke: #e9a942; stroke-width: 1.5; stroke-linecap: square"/>
   </g>
   <g id="line2d_51">
    <path d="M 54.691875 419.506507 
L 72.394699 438.327329 
L 90.097522 443.100745 
L 107.800346 453.579569 
L 125.503169 449.908334 
L 143.205993 425.611726 
L 160.908816 401.401563 
L 178.61164 447.015109 
L 196.314463 431.827703 
L 214.017287 415.775841 
L 231.72011 377.034718 
L 249.422934 408.573844 
L 267.125757 397.989665 
L 284.828581 417.14006 
L 302.531404 415.349016 
L 320.234228 412.496312 
L 337.937051 407.57972 
L 355.639875 429.461255 
L 373.342699 404.908012 
L 391.045522 381.770315 
L 408.748346 411.888492 
L 426.451169 426.716608 
L 444.153993 443.50866 
L 461.856816 394.856013 
L 479.55964 363.465465 
L 532.66811 418.436744 
L 550.370934 397.887011 
L 568.073757 376.140547 
L 585.776581 365.264614 
L 603.479404 424.544663 
L 621.182228 440.248041 
L 638.885051 430.109597 
L 656.587875 441.831076 
L 674.290699 428.577889 
L 691.993522 427.354144 
L 709.696346 429.553104 
L 727.399169 361.698734 
L 745.101993 405.413178 
L 762.804816 425.573906 
L 780.50764 406.23171 
L 798.210463 411.040244 
L 815.913287 408.908821 
L 833.61611 402.857631 
L 851.318934 387.421694 
L 869.021757 396.258052 
L 886.724581 390.920038 
L 904.427404 376.769979 
L 922.130228 384.306952 
L 939.833051 499.471361 
L 957.535875 555.428659 
" clip-path="url(#pf7e5a6b280)" style="fill: none; stroke: #9a5689; stroke-width: 1.5; stroke-linecap: square"/>
   </g>
   <g id="line2d_52">
    <path d="M 54.691875 525.529298 
L 72.394699 522.184935 
L 90.097522 522.041759 
L 107.800346 513.88616 
L 125.503169 511.435968 
L 143.205993 497.212971 
L 160.908816 521.490669 
L 178.61164 506.919187 
L 196.314463 503.615346 
L 214.017287 499.33629 
L 231.72011 492.26126 
L 249.422934 492.904199 
L 267.125757 475.979777 
L 284.828581 504.36364 
L 302.531404 479.810397 
L 320.234228 510.082555 
L 337.937051 505.633309 
L 355.639875 516.817205 
L 373.342699 512.324737 
L 391.045522 511.870898 
L 408.748346 502.529373 
L 426.451169 506.365395 
L 444.153993 513.837534 
L 461.856816 487.436517 
L 479.55964 484.097557 
L 532.66811 490.329742 
L 550.370934 498.398896 
L 568.073757 496.921217 
L 585.776581 479.896842 
L 603.479404 489.257277 
L 621.182228 501.200273 
L 638.885051 475.571862 
L 656.587875 478.767647 
L 674.290699 471.530532 
L 691.993522 461.767585 
L 709.696346 473.502572 
L 727.399169 467.008348 
L 745.101993 507.96734 
L 762.804816 474.115795 
L 780.50764 470.952427 
L 798.210463 484.294761 
L 815.913287 464.115123 
L 833.61611 472.284229 
L 851.318934 473.691671 
L 869.021757 440.13188 
L 886.724581 466.794936 
L 904.427404 461.710856 
L 922.130228 455.621846 
L 939.833051 523.349248 
L 957.535875 550.684958 
" clip-path="url(#pf7e5a6b280)" style="fill: none; stroke: #be503b; stroke-width: 1.5; stroke-linecap: square"/>
   </g>
   <g id="line2d_53">
    <path d="M 54.691875 378.253061 
L 72.394699 378.995952 
L 90.097522 388.394207 
L 107.800346 380.519555 
L 125.503169 401.417772 
L 143.205993 392.840751 
L 160.908816 406.455928 
L 178.61164 454.525068 
L 196.314463 436.155384 
L 214.017287 412.423374 
L 231.72011 388.007903 
L 249.422934 377.350785 
L 267.125757 372.84481 
L 284.828581 368.120019 
L 302.531404 363.216934 
L 320.234228 362.684754 
L 337.937051 360.653283 
L 355.639875 376.248604 
L 373.342699 367.371724 
L 391.045522 362.719872 
L 408.748346 360.588449 
L 426.451169 368.979072 
L 444.153993 387.359561 
L 461.856816 355.936596 
L 479.55964 355.739392 
L 532.66811 375.135617 
L 550.370934 340.886963 
L 568.073757 356.293184 
L 585.776581 349.769245 
L 603.479404 346.924646 
L 621.182228 371.55623 
L 638.885051 317.214384 
L 656.587875 357.430484 
L 674.290699 328.590081 
L 691.993522 309.844899 
L 709.696346 318.835238 
L 727.399169 315.020828 
L 745.101993 331.423874 
L 762.804816 331.277998 
L 780.50764 283.206156 
L 798.210463 280.747861 
L 815.913287 294.989768 
L 833.61611 311.768313 
L 851.318934 301.275982 
L 869.021757 296.532281 
L 886.724581 306.281721 
L 904.427404 298.33143 
L 922.130228 281.288145 
L 939.833051 456.259382 
L 957.535875 554.364298 
" clip-path="url(#pf7e5a6b280)" style="fill: none; stroke: #e2321d; stroke-width: 1.5; stroke-linecap: square"/>
   </g>
   <g id="line2d_54">
    <path d="M 54.691875 304.220534 
L 72.394699 230.198813 
L 90.097522 241.809534 
L 107.800346 220.552028 
L 125.503169 227.921513 
L 143.205993 203.011682 
L 160.908816 209.946237 
L 178.61164 222.7753 
L 196.314463 259.384999 
L 214.017287 233.572892 
L 231.72011 266.605906 
L 249.422934 298.450292 
L 267.125757 332.328852 
L 284.828581 275.523306 
L 302.531404 280.909946 
L 320.234228 298.793373 
L 337.937051 273.848423 
L 355.639875 334.079374 
L 373.342699 264.893203 
L 391.045522 202.436278 
L 408.748346 277.187384 
L 426.451169 290.961945 
L 444.153993 308.21594 
L 461.856816 230.47706 
L 479.55964 290.094788 
L 532.66811 270.533776 
L 550.370934 298.266596 
L 568.073757 252.315372 
L 585.776581 221.251697 
L 603.479404 232.308626 
L 621.182228 280.747861 
L 638.885051 268.748135 
L 656.587875 323.071071 
L 674.290699 253.179828 
L 691.993522 212.882685 
L 709.696346 198.22746 
L 727.399169 179.46607 
L 745.101993 210.556759 
L 762.804816 182.996831 
L 780.50764 203.581682 
L 798.210463 217.769561 
L 815.913287 128.414558 
L 833.61611 126.753182 
L 851.318934 49.441127 
L 869.021757 101.497568 
L 886.724581 140.776274 
L 904.427404 183.766737 
L 922.130228 128.517212 
L 939.833051 417.904563 
L 957.535875 522.155219 
" clip-path="url(#pf7e5a6b280)" style="fill: none; stroke: #48b585; stroke-width: 6; stroke-linecap: square"/>
   </g>
   <g id="patch_3">
    <path d="M 54.691875 567.74175 
L 54.691875 24.14175 
" style="fill: none; stroke: #ffffff; stroke-linejoin: miter; stroke-linecap: square"/>
   </g>
   <g id="patch_4">
    <path d="M 957.535875 567.74175 
L 957.535875 24.14175 
" style="fill: none; stroke: #ffffff; stroke-linejoin: miter; stroke-linecap: square"/>
   </g>
   <g id="patch_5">
    <path d="M 54.691875 567.74175 
L 957.535875 567.74175 
" style="fill: none; stroke: #ffffff; stroke-linejoin: miter; stroke-linecap: square"/>
   </g>
   <g id="patch_6">
    <path d="M 54.691875 24.14175 
L 957.535875 24.14175 
" style="fill: none; stroke: #ffffff; stroke-linejoin: miter; stroke-linecap: square"/>
   </g>
   <g id="text_24">
    <!-- Potentially Ephemeral Enterprise Linux 8 and 9 Instances by Distribution -->
    <g transform="translate(54.691875 18.14175)scale(0.144 -0.144)">
     <defs>
      <path id="DejaVuSans-50" d="M 1259 4147 
L 1259 2394 
L 2053 2394 
Q 2494 2394 2734 2622 
Q 2975 2850 2975 3272 
Q 2975 3691 2734 3919 
Q 2494 4147 2053 4147 
L 1259 4147 
z
M 628 4666 
L 2053 4666 
Q 2838 4666 3239 4311 
Q 3641 3956 3641 3272 
Q 3641 2581 3239 2228 
Q 2838 1875 2053 1875 
L 1259 1875 
L 1259 0 
L 628 0 
L 628 4666 
z
" transform="scale(0.015625)"/>
      <path id="DejaVuSans-6f" d="M 1959 3097 
Q 1497 3097 1228 2736 
Q 959 2375 959 1747 
Q 959 1119 1226 758 
Q 1494 397 1959 397 
Q 2419 397 2687 759 
Q 2956 1122 2956 1747 
Q 2956 2369 2687 2733 
Q 2419 3097 1959 3097 
z
M 1959 3584 
Q 2709 3584 3137 3096 
Q 3566 2609 3566 1747 
Q 3566 888 3137 398 
Q 2709 -91 1959 -91 
Q 1206 -91 779 398 
Q 353 888 353 1747 
Q 353 2609 779 3096 
Q 1206 3584 1959 3584 
z
" transform="scale(0.015625)"/>
      <path id="DejaVuSans-69" d="M 603 3500 
L 1178 3500 
L 1178 0 
L 603 0 
L 603 3500 
z
M 603 4863 
L 1178 4863 
L 1178 4134 
L 603 4134 
L 603 4863 
z
" transform="scale(0.015625)"/>
      <path id="DejaVuSans-6c" d="M 603 4863 
L 1178 4863 
L 1178 0 
L 603 0 
L 603 4863 
z
" transform="scale(0.015625)"/>
      <path id="DejaVuSans-79" d="M 2059 -325 
Q 1816 -950 1584 -1140 
Q 1353 -1331 966 -1331 
L 506 -1331 
L 506 -850 
L 844 -850 
Q 1081 -850 1212 -737 
Q 1344 -625 1503 -206 
L 1606 56 
L 191 3500 
L 800 3500 
L 1894 763 
L 2988 3500 
L 3597 3500 
L 2059 -325 
z
" transform="scale(0.015625)"/>
      <path id="DejaVuSans-20" transform="scale(0.015625)"/>
      <path id="DejaVuSans-45" d="M 628 4666 
L 3578 4666 
L 3578 4134 
L 1259 4134 
L 1259 2753 
L 3481 2753 
L 3481 2222 
L 1259 2222 
L 1259 531 
L 3634 531 
L 3634 0 
L 628 0 
L 628 4666 
z
" transform="scale(0.015625)"/>
      <path id="DejaVuSans-70" d="M 1159 525 
L 1159 -1331 
L 581 -1331 
L 581 3500 
L 1159 3500 
L 1159 2969 
Q 1341 3281 1617 3432 
Q 1894 3584 2278 3584 
Q 2916 3584 3314 3078 
Q 3713 2572 3713 1747 
Q 3713 922 3314 415 
Q 2916 -91 2278 -91 
Q 1894 -91 1617 61 
Q 1341 213 1159 525 
z
M 3116 1747 
Q 3116 2381 2855 2742 
Q 2594 3103 2138 3103 
Q 1681 3103 1420 2742 
Q 1159 2381 1159 1747 
Q 1159 1113 1420 752 
Q 1681 391 2138 391 
Q 2594 391 2855 752 
Q 3116 1113 3116 1747 
z
" transform="scale(0.015625)"/>
      <path id="DejaVuSans-68" d="M 3513 2113 
L 3513 0 
L 2938 0 
L 2938 2094 
Q 2938 2591 2744 2837 
Q 2550 3084 2163 3084 
Q 1697 3084 1428 2787 
Q 1159 2491 1159 1978 
L 1159 0 
L 581 0 
L 581 4863 
L 1159 4863 
L 1159 2956 
Q 1366 3272 1645 3428 
Q 1925 3584 2291 3584 
Q 2894 3584 3203 3211 
Q 3513 2838 3513 2113 
z
" transform="scale(0.015625)"/>
      <path id="DejaVuSans-6d" d="M 3328 2828 
Q 3544 3216 3844 3400 
Q 4144 3584 4550 3584 
Q 5097 3584 5394 3201 
Q 5691 2819 5691 2113 
L 5691 0 
L 5113 0 
L 5113 2094 
Q 5113 2597 4934 2840 
Q 4756 3084 4391 3084 
Q 3944 3084 3684 2787 
Q 3425 2491 3425 1978 
L 3425 0 
L 2847 0 
L 2847 2094 
Q 2847 2600 2669 2842 
Q 2491 3084 2119 3084 
Q 1678 3084 1418 2786 
Q 1159 2488 1159 1978 
L 1159 0 
L 581 0 
L 581 3500 
L 1159 3500 
L 1159 2956 
Q 1356 3278 1631 3431 
Q 1906 3584 2284 3584 
Q 2666 3584 2933 3390 
Q 3200 3197 3328 2828 
z
" transform="scale(0.015625)"/>
      <path id="DejaVuSans-72" d="M 2631 2963 
Q 2534 3019 2420 3045 
Q 2306 3072 2169 3072 
Q 1681 3072 1420 2755 
Q 1159 2438 1159 1844 
L 1159 0 
L 581 0 
L 581 3500 
L 1159 3500 
L 1159 2956 
Q 1341 3275 1631 3429 
Q 1922 3584 2338 3584 
Q 2397 3584 2469 3576 
Q 2541 3569 2628 3553 
L 2631 2963 
z
" transform="scale(0.015625)"/>
      <path id="DejaVuSans-4c" d="M 628 4666 
L 1259 4666 
L 1259 531 
L 3531 531 
L 3531 0 
L 628 0 
L 628 4666 
z
" transform="scale(0.015625)"/>
      <path id="DejaVuSans-75" d="M 544 1381 
L 544 3500 
L 1119 3500 
L 1119 1403 
Q 1119 906 1312 657 
Q 1506 409 1894 409 
Q 2359 409 2629 706 
Q 2900 1003 2900 1516 
L 2900 3500 
L 3475 3500 
L 3475 0 
L 2900 0 
L 2900 538 
Q 2691 219 2414 64 
Q 2138 -91 1772 -91 
Q 1169 -91 856 284 
Q 544 659 544 1381 
z
M 1991 3584 
L 1991 3584 
z
" transform="scale(0.015625)"/>
      <path id="DejaVuSans-78" d="M 3513 3500 
L 2247 1797 
L 3578 0 
L 2900 0 
L 1881 1375 
L 863 0 
L 184 0 
L 1544 1831 
L 300 3500 
L 978 3500 
L 1906 2253 
L 2834 3500 
L 3513 3500 
z
" transform="scale(0.015625)"/>
      <path id="DejaVuSans-64" d="M 2906 2969 
L 2906 4863 
L 3481 4863 
L 3481 0 
L 2906 0 
L 2906 525 
Q 2725 213 2448 61 
Q 2172 -91 1784 -91 
Q 1150 -91 751 415 
Q 353 922 353 1747 
Q 353 2572 751 3078 
Q 1150 3584 1784 3584 
Q 2172 3584 2448 3432 
Q 2725 3281 2906 2969 
z
M 947 1747 
Q 947 1113 1208 752 
Q 1469 391 1925 391 
Q 2381 391 2643 752 
Q 2906 1113 2906 1747 
Q 2906 2381 2643 2742 
Q 2381 3103 1925 3103 
Q 1469 3103 1208 2742 
Q 947 2381 947 1747 
z
" transform="scale(0.015625)"/>
      <path id="DejaVuSans-62" d="M 3116 1747 
Q 3116 2381 2855 2742 
Q 2594 3103 2138 3103 
Q 1681 3103 1420 2742 
Q 1159 2381 1159 1747 
Q 1159 1113 1420 752 
Q 1681 391 2138 391 
Q 2594 391 2855 752 
Q 3116 1113 3116 1747 
z
M 1159 2969 
Q 1341 3281 1617 3432 
Q 1894 3584 2278 3584 
Q 2916 3584 3314 3078 
Q 3713 2572 3713 1747 
Q 3713 922 3314 415 
Q 2916 -91 2278 -91 
Q 1894 -91 1617 61 
Q 1341 213 1159 525 
L 1159 0 
L 581 0 
L 581 4863 
L 1159 4863 
L 1159 2969 
z
" transform="scale(0.015625)"/>
     </defs>
     <use xlink:href="#DejaVuSans-50"/>
     <use xlink:href="#DejaVuSans-6f" x="56.677734"/>
     <use xlink:href="#DejaVuSans-74" x="117.859375"/>
     <use xlink:href="#DejaVuSans-65" x="157.068359"/>
     <use xlink:href="#DejaVuSans-6e" x="218.591797"/>
     <use xlink:href="#DejaVuSans-74" x="281.970703"/>
     <use xlink:href="#DejaVuSans-69" x="321.179688"/>
     <use xlink:href="#DejaVuSans-61" x="348.962891"/>
     <use xlink:href="#DejaVuSans-6c" x="410.242188"/>
     <use xlink:href="#DejaVuSans-6c" x="438.025391"/>
     <use xlink:href="#DejaVuSans-79" x="465.808594"/>
     <use xlink:href="#DejaVuSans-20" x="524.988281"/>
     <use xlink:href="#DejaVuSans-45" x="556.775391"/>
     <use xlink:href="#DejaVuSans-70" x="619.958984"/>
     <use xlink:href="#DejaVuSans-68" x="683.435547"/>
     <use xlink:href="#DejaVuSans-65" x="746.814453"/>
     <use xlink:href="#DejaVuSans-6d" x="808.337891"/>
     <use xlink:href="#DejaVuSans-65" x="905.75"/>
     <use xlink:href="#DejaVuSans-72" x="967.273438"/>
     <use xlink:href="#DejaVuSans-61" x="1008.386719"/>
     <use xlink:href="#DejaVuSans-6c" x="1069.666016"/>
     <use xlink:href="#DejaVuSans-20" x="1097.449219"/>
     <use xlink:href="#DejaVuSans-45" x="1129.236328"/>
     <use xlink:href="#DejaVuSans-6e" x="1192.419922"/>
     <use xlink:href="#DejaVuSans-74" x="1255.798828"/>
     <use xlink:href="#DejaVuSans-65" x="1295.007812"/>
     <use xlink:href="#DejaVuSans-72" x="1356.53125"/>
     <use xlink:href="#DejaVuSans-70" x="1397.644531"/>
     <use xlink:href="#DejaVuSans-72" x="1461.121094"/>
     <use xlink:href="#DejaVuSans-69" x="1502.234375"/>
     <use xlink:href="#DejaVuSans-73" x="1530.017578"/>
     <use xlink:href="#DejaVuSans-65" x="1582.117188"/>
     <use xlink:href="#DejaVuSans-20" x="1643.640625"/>
     <use xlink:href="#DejaVuSans-4c" x="1675.427734"/>
     <use xlink:href="#DejaVuSans-69" x="1731.140625"/>
     <use xlink:href="#DejaVuSans-6e" x="1758.923828"/>
     <use xlink:href="#DejaVuSans-75" x="1822.302734"/>
     <use xlink:href="#DejaVuSans-78" x="1885.681641"/>
     <use xlink:href="#DejaVuSans-20" x="1944.861328"/>
     <use xlink:href="#DejaVuSans-38" x="1976.648438"/>
     <use xlink:href="#DejaVuSans-20" x="2040.271484"/>
     <use xlink:href="#DejaVuSans-61" x="2072.058594"/>
     <use xlink:href="#DejaVuSans-6e" x="2133.337891"/>
     <use xlink:href="#DejaVuSans-64" x="2196.716797"/>
     <use xlink:href="#DejaVuSans-20" x="2260.193359"/>
     <use xlink:href="#DejaVuSans-39" x="2291.980469"/>
     <use xlink:href="#DejaVuSans-20" x="2355.603516"/>
     <use xlink:href="#DejaVuSans-49" x="2387.390625"/>
     <use xlink:href="#DejaVuSans-6e" x="2416.882812"/>
     <use xlink:href="#DejaVuSans-73" x="2480.261719"/>
     <use xlink:href="#DejaVuSans-74" x="2532.361328"/>
     <use xlink:href="#DejaVuSans-61" x="2571.570312"/>
     <use xlink:href="#DejaVuSans-6e" x="2632.849609"/>
     <use xlink:href="#DejaVuSans-63" x="2696.228516"/>
     <use xlink:href="#DejaVuSans-65" x="2751.208984"/>
     <use xlink:href="#DejaVuSans-73" x="2812.732422"/>
     <use xlink:href="#DejaVuSans-20" x="2864.832031"/>
     <use xlink:href="#DejaVuSans-62" x="2896.619141"/>
     <use xlink:href="#DejaVuSans-79" x="2960.095703"/>
     <use xlink:href="#DejaVuSans-20" x="3019.275391"/>
     <use xlink:href="#DejaVuSans-44" x="3051.0625"/>
     <use xlink:href="#DejaVuSans-69" x="3128.064453"/>
     <use xlink:href="#DejaVuSans-73" x="3155.847656"/>
     <use xlink:href="#DejaVuSans-74" x="3207.947266"/>
     <use xlink:href="#DejaVuSans-72" x="3247.15625"/>
     <use xlink:href="#DejaVuSans-69" x="3288.269531"/>
     <use xlink:href="#DejaVuSans-62" x="3316.052734"/>
     <use xlink:href="#DejaVuSans-75" x="3379.529297"/>
     <use xlink:href="#DejaVuSans-74" x="3442.908203"/>
     <use xlink:href="#DejaVuSans-69" x="3482.117188"/>
     <use xlink:href="#DejaVuSans-6f" x="3509.900391"/>
     <use xlink:href="#DejaVuSans-6e" x="3571.082031"/>
    </g>
   </g>
   <g id="text_25">
    <!-- 2023-11-12 14:12 UTC -->
    <g transform="translate(794.653875 18.14175)scale(0.144 -0.144)">
     <defs>
      <path id="DejaVuSans-3a" d="M 750 794 
L 1409 794 
L 1409 0 
L 750 0 
L 750 794 
z
M 750 3309 
L 1409 3309 
L 1409 2516 
L 750 2516 
L 750 3309 
z
" transform="scale(0.015625)"/>
      <path id="DejaVuSans-55" d="M 556 4666 
L 1191 4666 
L 1191 1831 
Q 1191 1081 1462 751 
Q 1734 422 2344 422 
Q 2950 422 3222 751 
Q 3494 1081 3494 1831 
L 3494 4666 
L 4128 4666 
L 4128 1753 
Q 4128 841 3676 375 
Q 3225 -91 2344 -91 
Q 1459 -91 1007 375 
Q 556 841 556 1753 
L 556 4666 
z
" transform="scale(0.015625)"/>
      <path id="DejaVuSans-54" d="M -19 4666 
L 3928 4666 
L 3928 4134 
L 2272 4134 
L 2272 0 
L 1638 0 
L 1638 4134 
L -19 4134 
L -19 4666 
z
" transform="scale(0.015625)"/>
      <path id="DejaVuSans-43" d="M 4122 4306 
L 4122 3641 
Q 3803 3938 3442 4084 
Q 3081 4231 2675 4231 
Q 1875 4231 1450 3742 
Q 1025 3253 1025 2328 
Q 1025 1406 1450 917 
Q 1875 428 2675 428 
Q 3081 428 3442 575 
Q 3803 722 4122 1019 
L 4122 359 
Q 3791 134 3420 21 
Q 3050 -91 2638 -91 
Q 1578 -91 968 557 
Q 359 1206 359 2328 
Q 359 3453 968 4101 
Q 1578 4750 2638 4750 
Q 3056 4750 3426 4639 
Q 3797 4528 4122 4306 
z
" transform="scale(0.015625)"/>
     </defs>
     <use xlink:href="#DejaVuSans-32"/>
     <use xlink:href="#DejaVuSans-30" x="63.623047"/>
     <use xlink:href="#DejaVuSans-32" x="127.246094"/>
     <use xlink:href="#DejaVuSans-33" x="190.869141"/>
     <use xlink:href="#DejaVuSans-2d" x="254.492188"/>
     <use xlink:href="#DejaVuSans-31" x="290.576172"/>
     <use xlink:href="#DejaVuSans-31" x="354.199219"/>
     <use xlink:href="#DejaVuSans-2d" x="417.822266"/>
     <use xlink:href="#DejaVuSans-31" x="453.90625"/>
     <use xlink:href="#DejaVuSans-32" x="517.529297"/>
     <use xlink:href="#DejaVuSans-20" x="581.152344"/>
     <use xlink:href="#DejaVuSans-31" x="612.939453"/>
     <use xlink:href="#DejaVuSans-34" x="676.5625"/>
     <use xlink:href="#DejaVuSans-3a" x="740.185547"/>
     <use xlink:href="#DejaVuSans-31" x="773.876953"/>
     <use xlink:href="#DejaVuSans-32" x="837.5"/>
     <use xlink:href="#DejaVuSans-20" x="901.123047"/>
     <use xlink:href="#DejaVuSans-55" x="932.910156"/>
     <use xlink:href="#DejaVuSans-54" x="1006.103516"/>
     <use xlink:href="#DejaVuSans-43" x="1061.3125"/>
    </g>
   </g>
   <g id="legend_1">
    <g id="patch_7">
     <path d="M 61.691875 134.888625 
L 170.660625 134.888625 
Q 172.660625 134.888625 172.660625 132.888625 
L 172.660625 31.14175 
Q 172.660625 29.14175 170.660625 29.14175 
L 61.691875 29.14175 
Q 59.691875 29.14175 59.691875 31.14175 
L 59.691875 132.888625 
Q 59.691875 134.888625 61.691875 134.888625 
z
" style="fill: #e5e5e5; opacity: 0.8; stroke: #cccccc; stroke-width: 0.5; stroke-linejoin: miter"/>
    </g>
    <g id="text_26">
     <!-- Distribution -->
     <g transform="translate(87.0075 40.740187)scale(0.1 -0.1)">
      <use xlink:href="#DejaVuSans-44"/>
      <use xlink:href="#DejaVuSans-69" x="77.001953"/>
      <use xlink:href="#DejaVuSans-73" x="104.785156"/>
      <use xlink:href="#DejaVuSans-74" x="156.884766"/>
      <use xlink:href="#DejaVuSans-72" x="196.09375"/>
      <use xlink:href="#DejaVuSans-69" x="237.207031"/>
      <use xlink:href="#DejaVuSans-62" x="264.990234"/>
      <use xlink:href="#DejaVuSans-75" x="328.466797"/>
      <use xlink:href="#DejaVuSans-74" x="391.845703"/>
      <use xlink:href="#DejaVuSans-69" x="431.054688"/>
      <use xlink:href="#DejaVuSans-6f" x="458.837891"/>
      <use xlink:href="#DejaVuSans-6e" x="520.019531"/>
     </g>
    </g>
    <g id="line2d_55">
     <path d="M 63.691875 51.918312 
L 73.691875 51.918312 
L 83.691875 51.918312 
" style="fill: none; stroke: #4ac1fa; stroke-width: 1.5; stroke-linecap: square"/>
    </g>
    <g id="text_27">
     <!-- AlmaLinux -->
     <g transform="translate(91.691875 55.418312)scale(0.1 -0.1)">
      <defs>
       <path id="DejaVuSans-41" d="M 2188 4044 
L 1331 1722 
L 3047 1722 
L 2188 4044 
z
M 1831 4666 
L 2547 4666 
L 4325 0 
L 3669 0 
L 3244 1197 
L 1141 1197 
L 716 0 
L 50 0 
L 1831 4666 
z
" transform="scale(0.015625)"/>
      </defs>
      <use xlink:href="#DejaVuSans-41"/>
      <use xlink:href="#DejaVuSans-6c" x="68.408203"/>
      <use xlink:href="#DejaVuSans-6d" x="96.191406"/>
      <use xlink:href="#DejaVuSans-61" x="193.603516"/>
      <use xlink:href="#DejaVuSans-4c" x="254.882812"/>
      <use xlink:href="#DejaVuSans-69" x="310.595703"/>
      <use xlink:href="#DejaVuSans-6e" x="338.378906"/>
      <use xlink:href="#DejaVuSans-75" x="401.757812"/>
      <use xlink:href="#DejaVuSans-78" x="465.136719"/>
     </g>
    </g>
    <g id="line2d_56">
     <path d="M 63.691875 66.596437 
L 73.691875 66.596437 
L 83.691875 66.596437 
" style="fill: none; stroke: #e9a942; stroke-width: 1.5; stroke-linecap: square"/>
    </g>
    <g id="text_28">
     <!-- CentOS Legacy -->
     <g transform="translate(91.691875 70.096437)scale(0.1 -0.1)">
      <defs>
       <path id="DejaVuSans-4f" d="M 2522 4238 
Q 1834 4238 1429 3725 
Q 1025 3213 1025 2328 
Q 1025 1447 1429 934 
Q 1834 422 2522 422 
Q 3209 422 3611 934 
Q 4013 1447 4013 2328 
Q 4013 3213 3611 3725 
Q 3209 4238 2522 4238 
z
M 2522 4750 
Q 3503 4750 4090 4092 
Q 4678 3434 4678 2328 
Q 4678 1225 4090 567 
Q 3503 -91 2522 -91 
Q 1538 -91 948 565 
Q 359 1222 359 2328 
Q 359 3434 948 4092 
Q 1538 4750 2522 4750 
z
" transform="scale(0.015625)"/>
       <path id="DejaVuSans-53" d="M 3425 4513 
L 3425 3897 
Q 3066 4069 2747 4153 
Q 2428 4238 2131 4238 
Q 1616 4238 1336 4038 
Q 1056 3838 1056 3469 
Q 1056 3159 1242 3001 
Q 1428 2844 1947 2747 
L 2328 2669 
Q 3034 2534 3370 2195 
Q 3706 1856 3706 1288 
Q 3706 609 3251 259 
Q 2797 -91 1919 -91 
Q 1588 -91 1214 -16 
Q 841 59 441 206 
L 441 856 
Q 825 641 1194 531 
Q 1563 422 1919 422 
Q 2459 422 2753 634 
Q 3047 847 3047 1241 
Q 3047 1584 2836 1778 
Q 2625 1972 2144 2069 
L 1759 2144 
Q 1053 2284 737 2584 
Q 422 2884 422 3419 
Q 422 4038 858 4394 
Q 1294 4750 2059 4750 
Q 2388 4750 2728 4690 
Q 3069 4631 3425 4513 
z
" transform="scale(0.015625)"/>
       <path id="DejaVuSans-67" d="M 2906 1791 
Q 2906 2416 2648 2759 
Q 2391 3103 1925 3103 
Q 1463 3103 1205 2759 
Q 947 2416 947 1791 
Q 947 1169 1205 825 
Q 1463 481 1925 481 
Q 2391 481 2648 825 
Q 2906 1169 2906 1791 
z
M 3481 434 
Q 3481 -459 3084 -895 
Q 2688 -1331 1869 -1331 
Q 1566 -1331 1297 -1286 
Q 1028 -1241 775 -1147 
L 775 -588 
Q 1028 -725 1275 -790 
Q 1522 -856 1778 -856 
Q 2344 -856 2625 -561 
Q 2906 -266 2906 331 
L 2906 616 
Q 2728 306 2450 153 
Q 2172 0 1784 0 
Q 1141 0 747 490 
Q 353 981 353 1791 
Q 353 2603 747 3093 
Q 1141 3584 1784 3584 
Q 2172 3584 2450 3431 
Q 2728 3278 2906 2969 
L 2906 3500 
L 3481 3500 
L 3481 434 
z
" transform="scale(0.015625)"/>
      </defs>
      <use xlink:href="#DejaVuSans-43"/>
      <use xlink:href="#DejaVuSans-65" x="69.824219"/>
      <use xlink:href="#DejaVuSans-6e" x="131.347656"/>
      <use xlink:href="#DejaVuSans-74" x="194.726562"/>
      <use xlink:href="#DejaVuSans-4f" x="233.935547"/>
      <use xlink:href="#DejaVuSans-53" x="312.646484"/>
      <use xlink:href="#DejaVuSans-20" x="376.123047"/>
      <use xlink:href="#DejaVuSans-4c" x="407.910156"/>
      <use xlink:href="#DejaVuSans-65" x="461.873047"/>
      <use xlink:href="#DejaVuSans-67" x="523.396484"/>
      <use xlink:href="#DejaVuSans-61" x="586.873047"/>
      <use xlink:href="#DejaVuSans-63" x="648.152344"/>
      <use xlink:href="#DejaVuSans-79" x="703.132812"/>
     </g>
    </g>
    <g id="line2d_57">
     <path d="M 63.691875 81.274563 
L 73.691875 81.274563 
L 83.691875 81.274563 
" style="fill: none; stroke: #9a5689; stroke-width: 1.5; stroke-linecap: square"/>
    </g>
    <g id="text_29">
     <!-- CentOS Stream -->
     <g transform="translate(91.691875 84.774563)scale(0.1 -0.1)">
      <use xlink:href="#DejaVuSans-43"/>
      <use xlink:href="#DejaVuSans-65" x="69.824219"/>
      <use xlink:href="#DejaVuSans-6e" x="131.347656"/>
      <use xlink:href="#DejaVuSans-74" x="194.726562"/>
      <use xlink:href="#DejaVuSans-4f" x="233.935547"/>
      <use xlink:href="#DejaVuSans-53" x="312.646484"/>
      <use xlink:href="#DejaVuSans-20" x="376.123047"/>
      <use xlink:href="#DejaVuSans-53" x="407.910156"/>
      <use xlink:href="#DejaVuSans-74" x="471.386719"/>
      <use xlink:href="#DejaVuSans-72" x="510.595703"/>
      <use xlink:href="#DejaVuSans-65" x="549.458984"/>
      <use xlink:href="#DejaVuSans-61" x="610.982422"/>
      <use xlink:href="#DejaVuSans-6d" x="672.261719"/>
     </g>
    </g>
    <g id="line2d_58">
     <path d="M 63.691875 95.952687 
L 73.691875 95.952687 
L 83.691875 95.952687 
" style="fill: none; stroke: #be503b; stroke-width: 1.5; stroke-linecap: square"/>
    </g>
    <g id="text_30">
     <!-- Oracle -->
     <g transform="translate(91.691875 99.452687)scale(0.1 -0.1)">
      <use xlink:href="#DejaVuSans-4f"/>
      <use xlink:href="#DejaVuSans-72" x="78.710938"/>
      <use xlink:href="#DejaVuSans-61" x="119.824219"/>
      <use xlink:href="#DejaVuSans-63" x="181.103516"/>
      <use xlink:href="#DejaVuSans-6c" x="236.083984"/>
      <use xlink:href="#DejaVuSans-65" x="263.867188"/>
     </g>
    </g>
    <g id="line2d_59">
     <path d="M 63.691875 110.630812 
L 73.691875 110.630812 
L 83.691875 110.630812 
" style="fill: none; stroke: #e2321d; stroke-width: 1.5; stroke-linecap: square"/>
    </g>
    <g id="text_31">
     <!-- RHEL -->
     <g transform="translate(91.691875 114.130812)scale(0.1 -0.1)">
      <defs>
       <path id="DejaVuSans-52" d="M 2841 2188 
Q 3044 2119 3236 1894 
Q 3428 1669 3622 1275 
L 4263 0 
L 3584 0 
L 2988 1197 
Q 2756 1666 2539 1819 
Q 2322 1972 1947 1972 
L 1259 1972 
L 1259 0 
L 628 0 
L 628 4666 
L 2053 4666 
Q 2853 4666 3247 4331 
Q 3641 3997 3641 3322 
Q 3641 2881 3436 2590 
Q 3231 2300 2841 2188 
z
M 1259 4147 
L 1259 2491 
L 2053 2491 
Q 2509 2491 2742 2702 
Q 2975 2913 2975 3322 
Q 2975 3731 2742 3939 
Q 2509 4147 2053 4147 
L 1259 4147 
z
" transform="scale(0.015625)"/>
       <path id="DejaVuSans-48" d="M 628 4666 
L 1259 4666 
L 1259 2753 
L 3553 2753 
L 3553 4666 
L 4184 4666 
L 4184 0 
L 3553 0 
L 3553 2222 
L 1259 2222 
L 1259 0 
L 628 0 
L 628 4666 
z
" transform="scale(0.015625)"/>
      </defs>
      <use xlink:href="#DejaVuSans-52"/>
      <use xlink:href="#DejaVuSans-48" x="69.482422"/>
      <use xlink:href="#DejaVuSans-45" x="144.677734"/>
      <use xlink:href="#DejaVuSans-4c" x="207.861328"/>
     </g>
    </g>
    <g id="line2d_60">
     <path d="M 63.691875 125.308937 
L 73.691875 125.308937 
L 83.691875 125.308937 
" style="fill: none; stroke: #48b585; stroke-width: 6; stroke-linecap: square"/>
    </g>
    <g id="text_32">
     <!-- Rocky Linux -->
     <g transform="translate(91.691875 128.808937)scale(0.1 -0.1)">
      <use xlink:href="#DejaVuSans-52"/>
      <use xlink:href="#DejaVuSans-6f" x="64.982422"/>
      <use xlink:href="#DejaVuSans-63" x="126.164062"/>
      <use xlink:href="#DejaVuSans-6b" x="181.144531"/>
      <use xlink:href="#DejaVuSans-79" x="235.429688"/>
      <use xlink:href="#DejaVuSans-20" x="294.609375"/>
      <use xlink:href="#DejaVuSans-4c" x="326.396484"/>
      <use xlink:href="#DejaVuSans-69" x="382.109375"/>
      <use xlink:href="#DejaVuSans-6e" x="409.892578"/>
      <use xlink:href="#DejaVuSans-75" x="473.271484"/>
      <use xlink:href="#DejaVuSans-78" x="536.650391"/>
     </g>
    </g>
   </g>
  </g>
 </g>
 <defs>
  <clipPath id="pf7e5a6b280">
   <rect x="54.691875" y="24.14175" width="902.844" height="543.6"/>
  </clipPath>
 </defs>
</svg>
