<?xml version="1.0" encoding="utf-8" standalone="no"?>
<!DOCTYPE svg PUBLIC "-//W3C//DTD SVG 1.1//EN"
  "http://www.w3.org/Graphics/SVG/1.1/DTD/svg11.dtd">
<svg xmlns:xlink="http://www.w3.org/1999/xlink" width="974.2765pt" height="644.743878pt" viewBox="0 0 974.2765 644.743878" xmlns="http://www.w3.org/2000/svg" version="1.1">
 <metadata>
  <rdf:RDF xmlns:dc="http://purl.org/dc/elements/1.1/" xmlns:cc="http://creativecommons.org/ns#" xmlns:rdf="http://www.w3.org/1999/02/22-rdf-syntax-ns#">
   <cc:Work>
    <dc:type rdf:resource="http://purl.org/dc/dcmitype/StillImage"/>
    <dc:date>2026-05-28T14:55:57.971555</dc:date>
    <dc:format>image/svg+xml</dc:format>
    <dc:creator>
     <cc:Agent>
      <dc:title>Matplotlib v3.6.3, https://matplotlib.org/</dc:title>
     </cc:Agent>
    </dc:creator>
   </cc:Work>
  </rdf:RDF>
 </metadata>
 <defs>
  <style type="text/css">*{stroke-linejoin: round; stroke-linecap: butt}</style>
 </defs>
 <g id="figure_1">
  <g id="patch_1">
   <path d="M 0 644.743878 
L 974.2765 644.743878 
L 974.2765 0 
L 0 0 
z
" style="fill: #ffffff"/>
  </g>
  <g id="axes_1">
   <g id="patch_2">
    <path d="M 64.2325 578.54175 
L 967.0765 578.54175 
L 967.0765 24.14175 
L 64.2325 24.14175 
z
" style="fill: #e5e5e5"/>
   </g>
   <g id="matplotlib.axis_1">
    <g id="xtick_1">
     <g id="line2d_1">
      <path d="M 81.935324 578.54175 
L 81.935324 24.14175 
" clip-path="url(#p219158ea79)" style="fill: none; stroke: #ffffff; stroke-width: 0.8; stroke-linecap: square"/>
     </g>
     <g id="line2d_2">
      <defs>
       <path id="m874108219d" d="M 0 0 
L 0 3.5 
" style="stroke: #555555; stroke-width: 0.8"/>
      </defs>
      <g>
       <use xlink:href="#m874108219d" x="81.935324" y="578.54175" style="fill: #555555; stroke: #555555; stroke-width: 0.8"/>
      </g>
     </g>
     <g id="text_1">
      <!-- 2025-06 -->
      <g style="fill: #555555" transform="translate(69.114041 620.459567) rotate(-45) scale(0.1 -0.1)">
       <defs>
        <path id="DejaVuSans-32" d="M 1228 531 
L 3431 531 
L 3431 0 
L 469 0 
L 469 531 
Q 828 903 1448 1529 
Q 2069 2156 2228 2338 
Q 2531 2678 2651 2914 
Q 2772 3150 2772 3378 
Q 2772 3750 2511 3984 
Q 2250 4219 1831 4219 
Q 1534 4219 1204 4116 
Q 875 4013 500 3803 
L 500 4441 
Q 881 4594 1212 4672 
Q 1544 4750 1819 4750 
Q 2544 4750 2975 4387 
Q 3406 4025 3406 3419 
Q 3406 3131 3298 2873 
Q 3191 2616 2906 2266 
Q 2828 2175 2409 1742 
Q 1991 1309 1228 531 
z
" transform="scale(0.015625)"/>
        <path id="DejaVuSans-30" d="M 2034 4250 
Q 1547 4250 1301 3770 
Q 1056 3291 1056 2328 
Q 1056 1369 1301 889 
Q 1547 409 2034 409 
Q 2525 409 2770 889 
Q 3016 1369 3016 2328 
Q 3016 3291 2770 3770 
Q 2525 4250 2034 4250 
z
M 2034 4750 
Q 2819 4750 3233 4129 
Q 3647 3509 3647 2328 
Q 3647 1150 3233 529 
Q 2819 -91 2034 -91 
Q 1250 -91 836 529 
Q 422 1150 422 2328 
Q 422 3509 836 4129 
Q 1250 4750 2034 4750 
z
" transform="scale(0.015625)"/>
        <path id="DejaVuSans-35" d="M 691 4666 
L 3169 4666 
L 3169 4134 
L 1269 4134 
L 1269 2991 
Q 1406 3038 1543 3061 
Q 1681 3084 1819 3084 
Q 2600 3084 3056 2656 
Q 3513 2228 3513 1497 
Q 3513 744 3044 326 
Q 2575 -91 1722 -91 
Q 1428 -91 1123 -41 
Q 819 9 494 109 
L 494 744 
Q 775 591 1075 516 
Q 1375 441 1709 441 
Q 2250 441 2565 725 
Q 2881 1009 2881 1497 
Q 2881 1984 2565 2268 
Q 2250 2553 1709 2553 
Q 1456 2553 1204 2497 
Q 953 2441 691 2322 
L 691 4666 
z
" transform="scale(0.015625)"/>
        <path id="DejaVuSans-2d" d="M 313 2009 
L 1997 2009 
L 1997 1497 
L 313 1497 
L 313 2009 
z
" transform="scale(0.015625)"/>
        <path id="DejaVuSans-36" d="M 2113 2584 
Q 1688 2584 1439 2293 
Q 1191 2003 1191 1497 
Q 1191 994 1439 701 
Q 1688 409 2113 409 
Q 2538 409 2786 701 
Q 3034 994 3034 1497 
Q 3034 2003 2786 2293 
Q 2538 2584 2113 2584 
z
M 3366 4563 
L 3366 3988 
Q 3128 4100 2886 4159 
Q 2644 4219 2406 4219 
Q 1781 4219 1451 3797 
Q 1122 3375 1075 2522 
Q 1259 2794 1537 2939 
Q 1816 3084 2150 3084 
Q 2853 3084 3261 2657 
Q 3669 2231 3669 1497 
Q 3669 778 3244 343 
Q 2819 -91 2113 -91 
Q 1303 -91 875 529 
Q 447 1150 447 2328 
Q 447 3434 972 4092 
Q 1497 4750 2381 4750 
Q 2619 4750 2861 4703 
Q 3103 4656 3366 4563 
z
" transform="scale(0.015625)"/>
       </defs>
       <use xlink:href="#DejaVuSans-32"/>
       <use xlink:href="#DejaVuSans-30" x="63.623047"/>
       <use xlink:href="#DejaVuSans-32" x="127.246094"/>
       <use xlink:href="#DejaVuSans-35" x="190.869141"/>
       <use xlink:href="#DejaVuSans-2d" x="254.492188"/>
       <use xlink:href="#DejaVuSans-30" x="290.576172"/>
       <use xlink:href="#DejaVuSans-36" x="354.199219"/>
      </g>
     </g>
    </g>
    <g id="xtick_2">
     <g id="line2d_3">
      <path d="M 157.804567 578.54175 
L 157.804567 24.14175 
" clip-path="url(#p219158ea79)" style="fill: none; stroke: #ffffff; stroke-width: 0.8; stroke-linecap: square"/>
     </g>
     <g id="line2d_4">
      <g>
       <use xlink:href="#m874108219d" x="157.804567" y="578.54175" style="fill: #555555; stroke: #555555; stroke-width: 0.8"/>
      </g>
     </g>
     <g id="text_2">
      <!-- 2025-07 -->
      <g style="fill: #555555" transform="translate(144.983285 620.459567) rotate(-45) scale(0.1 -0.1)">
       <defs>
        <path id="DejaVuSans-37" d="M 525 4666 
L 3525 4666 
L 3525 4397 
L 1831 0 
L 1172 0 
L 2766 4134 
L 525 4134 
L 525 4666 
z
" transform="scale(0.015625)"/>
       </defs>
       <use xlink:href="#DejaVuSans-32"/>
       <use xlink:href="#DejaVuSans-30" x="63.623047"/>
       <use xlink:href="#DejaVuSans-32" x="127.246094"/>
       <use xlink:href="#DejaVuSans-35" x="190.869141"/>
       <use xlink:href="#DejaVuSans-2d" x="254.492188"/>
       <use xlink:href="#DejaVuSans-30" x="290.576172"/>
       <use xlink:href="#DejaVuSans-37" x="354.199219"/>
      </g>
     </g>
    </g>
    <g id="xtick_3">
     <g id="line2d_5">
      <path d="M 236.202786 578.54175 
L 236.202786 24.14175 
" clip-path="url(#p219158ea79)" style="fill: none; stroke: #ffffff; stroke-width: 0.8; stroke-linecap: square"/>
     </g>
     <g id="line2d_6">
      <g>
       <use xlink:href="#m874108219d" x="236.202786" y="578.54175" style="fill: #555555; stroke: #555555; stroke-width: 0.8"/>
      </g>
     </g>
     <g id="text_3">
      <!-- 2025-08 -->
      <g style="fill: #555555" transform="translate(223.381503 620.459567) rotate(-45) scale(0.1 -0.1)">
       <defs>
        <path id="DejaVuSans-38" d="M 2034 2216 
Q 1584 2216 1326 1975 
Q 1069 1734 1069 1313 
Q 1069 891 1326 650 
Q 1584 409 2034 409 
Q 2484 409 2743 651 
Q 3003 894 3003 1313 
Q 3003 1734 2745 1975 
Q 2488 2216 2034 2216 
z
M 1403 2484 
Q 997 2584 770 2862 
Q 544 3141 544 3541 
Q 544 4100 942 4425 
Q 1341 4750 2034 4750 
Q 2731 4750 3128 4425 
Q 3525 4100 3525 3541 
Q 3525 3141 3298 2862 
Q 3072 2584 2669 2484 
Q 3125 2378 3379 2068 
Q 3634 1759 3634 1313 
Q 3634 634 3220 271 
Q 2806 -91 2034 -91 
Q 1263 -91 848 271 
Q 434 634 434 1313 
Q 434 1759 690 2068 
Q 947 2378 1403 2484 
z
M 1172 3481 
Q 1172 3119 1398 2916 
Q 1625 2713 2034 2713 
Q 2441 2713 2670 2916 
Q 2900 3119 2900 3481 
Q 2900 3844 2670 4047 
Q 2441 4250 2034 4250 
Q 1625 4250 1398 4047 
Q 1172 3844 1172 3481 
z
" transform="scale(0.015625)"/>
       </defs>
       <use xlink:href="#DejaVuSans-32"/>
       <use xlink:href="#DejaVuSans-30" x="63.623047"/>
       <use xlink:href="#DejaVuSans-32" x="127.246094"/>
       <use xlink:href="#DejaVuSans-35" x="190.869141"/>
       <use xlink:href="#DejaVuSans-2d" x="254.492188"/>
       <use xlink:href="#DejaVuSans-30" x="290.576172"/>
       <use xlink:href="#DejaVuSans-38" x="354.199219"/>
      </g>
     </g>
    </g>
    <g id="xtick_4">
     <g id="line2d_7">
      <path d="M 314.601004 578.54175 
L 314.601004 24.14175 
" clip-path="url(#p219158ea79)" style="fill: none; stroke: #ffffff; stroke-width: 0.8; stroke-linecap: square"/>
     </g>
     <g id="line2d_8">
      <g>
       <use xlink:href="#m874108219d" x="314.601004" y="578.54175" style="fill: #555555; stroke: #555555; stroke-width: 0.8"/>
      </g>
     </g>
     <g id="text_4">
      <!-- 2025-09 -->
      <g style="fill: #555555" transform="translate(301.779722 620.459567) rotate(-45) scale(0.1 -0.1)">
       <defs>
        <path id="DejaVuSans-39" d="M 703 97 
L 703 672 
Q 941 559 1184 500 
Q 1428 441 1663 441 
Q 2288 441 2617 861 
Q 2947 1281 2994 2138 
Q 2813 1869 2534 1725 
Q 2256 1581 1919 1581 
Q 1219 1581 811 2004 
Q 403 2428 403 3163 
Q 403 3881 828 4315 
Q 1253 4750 1959 4750 
Q 2769 4750 3195 4129 
Q 3622 3509 3622 2328 
Q 3622 1225 3098 567 
Q 2575 -91 1691 -91 
Q 1453 -91 1209 -44 
Q 966 3 703 97 
z
M 1959 2075 
Q 2384 2075 2632 2365 
Q 2881 2656 2881 3163 
Q 2881 3666 2632 3958 
Q 2384 4250 1959 4250 
Q 1534 4250 1286 3958 
Q 1038 3666 1038 3163 
Q 1038 2656 1286 2365 
Q 1534 2075 1959 2075 
z
" transform="scale(0.015625)"/>
       </defs>
       <use xlink:href="#DejaVuSans-32"/>
       <use xlink:href="#DejaVuSans-30" x="63.623047"/>
       <use xlink:href="#DejaVuSans-32" x="127.246094"/>
       <use xlink:href="#DejaVuSans-35" x="190.869141"/>
       <use xlink:href="#DejaVuSans-2d" x="254.492188"/>
       <use xlink:href="#DejaVuSans-30" x="290.576172"/>
       <use xlink:href="#DejaVuSans-39" x="354.199219"/>
      </g>
     </g>
    </g>
    <g id="xtick_5">
     <g id="line2d_9">
      <path d="M 390.470248 578.54175 
L 390.470248 24.14175 
" clip-path="url(#p219158ea79)" style="fill: none; stroke: #ffffff; stroke-width: 0.8; stroke-linecap: square"/>
     </g>
     <g id="line2d_10">
      <g>
       <use xlink:href="#m874108219d" x="390.470248" y="578.54175" style="fill: #555555; stroke: #555555; stroke-width: 0.8"/>
      </g>
     </g>
     <g id="text_5">
      <!-- 2025-10 -->
      <g style="fill: #555555" transform="translate(377.648966 620.459567) rotate(-45) scale(0.1 -0.1)">
       <defs>
        <path id="DejaVuSans-31" d="M 794 531 
L 1825 531 
L 1825 4091 
L 703 3866 
L 703 4441 
L 1819 4666 
L 2450 4666 
L 2450 531 
L 3481 531 
L 3481 0 
L 794 0 
L 794 531 
z
" transform="scale(0.015625)"/>
       </defs>
       <use xlink:href="#DejaVuSans-32"/>
       <use xlink:href="#DejaVuSans-30" x="63.623047"/>
       <use xlink:href="#DejaVuSans-32" x="127.246094"/>
       <use xlink:href="#DejaVuSans-35" x="190.869141"/>
       <use xlink:href="#DejaVuSans-2d" x="254.492188"/>
       <use xlink:href="#DejaVuSans-31" x="290.576172"/>
       <use xlink:href="#DejaVuSans-30" x="354.199219"/>
      </g>
     </g>
    </g>
    <g id="xtick_6">
     <g id="line2d_11">
      <path d="M 468.868466 578.54175 
L 468.868466 24.14175 
" clip-path="url(#p219158ea79)" style="fill: none; stroke: #ffffff; stroke-width: 0.8; stroke-linecap: square"/>
     </g>
     <g id="line2d_12">
      <g>
       <use xlink:href="#m874108219d" x="468.868466" y="578.54175" style="fill: #555555; stroke: #555555; stroke-width: 0.8"/>
      </g>
     </g>
     <g id="text_6">
      <!-- 2025-11 -->
      <g style="fill: #555555" transform="translate(456.047184 620.459567) rotate(-45) scale(0.1 -0.1)">
       <use xlink:href="#DejaVuSans-32"/>
       <use xlink:href="#DejaVuSans-30" x="63.623047"/>
       <use xlink:href="#DejaVuSans-32" x="127.246094"/>
       <use xlink:href="#DejaVuSans-35" x="190.869141"/>
       <use xlink:href="#DejaVuSans-2d" x="254.492188"/>
       <use xlink:href="#DejaVuSans-31" x="290.576172"/>
       <use xlink:href="#DejaVuSans-31" x="354.199219"/>
      </g>
     </g>
    </g>
    <g id="xtick_7">
     <g id="line2d_13">
      <path d="M 544.73771 578.54175 
L 544.73771 24.14175 
" clip-path="url(#p219158ea79)" style="fill: none; stroke: #ffffff; stroke-width: 0.8; stroke-linecap: square"/>
     </g>
     <g id="line2d_14">
      <g>
       <use xlink:href="#m874108219d" x="544.73771" y="578.54175" style="fill: #555555; stroke: #555555; stroke-width: 0.8"/>
      </g>
     </g>
     <g id="text_7">
      <!-- 2025-12 -->
      <g style="fill: #555555" transform="translate(531.916428 620.459567) rotate(-45) scale(0.1 -0.1)">
       <use xlink:href="#DejaVuSans-32"/>
       <use xlink:href="#DejaVuSans-30" x="63.623047"/>
       <use xlink:href="#DejaVuSans-32" x="127.246094"/>
       <use xlink:href="#DejaVuSans-35" x="190.869141"/>
       <use xlink:href="#DejaVuSans-2d" x="254.492188"/>
       <use xlink:href="#DejaVuSans-31" x="290.576172"/>
       <use xlink:href="#DejaVuSans-32" x="354.199219"/>
      </g>
     </g>
    </g>
    <g id="xtick_8">
     <g id="line2d_15">
      <path d="M 623.135929 578.54175 
L 623.135929 24.14175 
" clip-path="url(#p219158ea79)" style="fill: none; stroke: #ffffff; stroke-width: 0.8; stroke-linecap: square"/>
     </g>
     <g id="line2d_16">
      <g>
       <use xlink:href="#m874108219d" x="623.135929" y="578.54175" style="fill: #555555; stroke: #555555; stroke-width: 0.8"/>
      </g>
     </g>
     <g id="text_8">
      <!-- 2026-01 -->
      <g style="fill: #555555" transform="translate(610.314646 620.459567) rotate(-45) scale(0.1 -0.1)">
       <use xlink:href="#DejaVuSans-32"/>
       <use xlink:href="#DejaVuSans-30" x="63.623047"/>
       <use xlink:href="#DejaVuSans-32" x="127.246094"/>
       <use xlink:href="#DejaVuSans-36" x="190.869141"/>
       <use xlink:href="#DejaVuSans-2d" x="254.492188"/>
       <use xlink:href="#DejaVuSans-30" x="290.576172"/>
       <use xlink:href="#DejaVuSans-31" x="354.199219"/>
      </g>
     </g>
    </g>
    <g id="xtick_9">
     <g id="line2d_17">
      <path d="M 701.534147 578.54175 
L 701.534147 24.14175 
" clip-path="url(#p219158ea79)" style="fill: none; stroke: #ffffff; stroke-width: 0.8; stroke-linecap: square"/>
     </g>
     <g id="line2d_18">
      <g>
       <use xlink:href="#m874108219d" x="701.534147" y="578.54175" style="fill: #555555; stroke: #555555; stroke-width: 0.8"/>
      </g>
     </g>
     <g id="text_9">
      <!-- 2026-02 -->
      <g style="fill: #555555" transform="translate(688.712865 620.459567) rotate(-45) scale(0.1 -0.1)">
       <use xlink:href="#DejaVuSans-32"/>
       <use xlink:href="#DejaVuSans-30" x="63.623047"/>
       <use xlink:href="#DejaVuSans-32" x="127.246094"/>
       <use xlink:href="#DejaVuSans-36" x="190.869141"/>
       <use xlink:href="#DejaVuSans-2d" x="254.492188"/>
       <use xlink:href="#DejaVuSans-30" x="290.576172"/>
       <use xlink:href="#DejaVuSans-32" x="354.199219"/>
      </g>
     </g>
    </g>
    <g id="xtick_10">
     <g id="line2d_19">
      <path d="M 772.345441 578.54175 
L 772.345441 24.14175 
" clip-path="url(#p219158ea79)" style="fill: none; stroke: #ffffff; stroke-width: 0.8; stroke-linecap: square"/>
     </g>
     <g id="line2d_20">
      <g>
       <use xlink:href="#m874108219d" x="772.345441" y="578.54175" style="fill: #555555; stroke: #555555; stroke-width: 0.8"/>
      </g>
     </g>
     <g id="text_10">
      <!-- 2026-03 -->
      <g style="fill: #555555" transform="translate(759.524159 620.459567) rotate(-45) scale(0.1 -0.1)">
       <defs>
        <path id="DejaVuSans-33" d="M 2597 2516 
Q 3050 2419 3304 2112 
Q 3559 1806 3559 1356 
Q 3559 666 3084 287 
Q 2609 -91 1734 -91 
Q 1441 -91 1130 -33 
Q 819 25 488 141 
L 488 750 
Q 750 597 1062 519 
Q 1375 441 1716 441 
Q 2309 441 2620 675 
Q 2931 909 2931 1356 
Q 2931 1769 2642 2001 
Q 2353 2234 1838 2234 
L 1294 2234 
L 1294 2753 
L 1863 2753 
Q 2328 2753 2575 2939 
Q 2822 3125 2822 3475 
Q 2822 3834 2567 4026 
Q 2313 4219 1838 4219 
Q 1578 4219 1281 4162 
Q 984 4106 628 3988 
L 628 4550 
Q 988 4650 1302 4700 
Q 1616 4750 1894 4750 
Q 2613 4750 3031 4423 
Q 3450 4097 3450 3541 
Q 3450 3153 3228 2886 
Q 3006 2619 2597 2516 
z
" transform="scale(0.015625)"/>
       </defs>
       <use xlink:href="#DejaVuSans-32"/>
       <use xlink:href="#DejaVuSans-30" x="63.623047"/>
       <use xlink:href="#DejaVuSans-32" x="127.246094"/>
       <use xlink:href="#DejaVuSans-36" x="190.869141"/>
       <use xlink:href="#DejaVuSans-2d" x="254.492188"/>
       <use xlink:href="#DejaVuSans-30" x="290.576172"/>
       <use xlink:href="#DejaVuSans-33" x="354.199219"/>
      </g>
     </g>
    </g>
    <g id="xtick_11">
     <g id="line2d_21">
      <path d="M 850.74366 578.54175 
L 850.74366 24.14175 
" clip-path="url(#p219158ea79)" style="fill: none; stroke: #ffffff; stroke-width: 0.8; stroke-linecap: square"/>
     </g>
     <g id="line2d_22">
      <g>
       <use xlink:href="#m874108219d" x="850.74366" y="578.54175" style="fill: #555555; stroke: #555555; stroke-width: 0.8"/>
      </g>
     </g>
     <g id="text_11">
      <!-- 2026-04 -->
      <g style="fill: #555555" transform="translate(837.922377 620.459567) rotate(-45) scale(0.1 -0.1)">
       <defs>
        <path id="DejaVuSans-34" d="M 2419 4116 
L 825 1625 
L 2419 1625 
L 2419 4116 
z
M 2253 4666 
L 3047 4666 
L 3047 1625 
L 3713 1625 
L 3713 1100 
L 3047 1100 
L 3047 0 
L 2419 0 
L 2419 1100 
L 313 1100 
L 313 1709 
L 2253 4666 
z
" transform="scale(0.015625)"/>
       </defs>
       <use xlink:href="#DejaVuSans-32"/>
       <use xlink:href="#DejaVuSans-30" x="63.623047"/>
       <use xlink:href="#DejaVuSans-32" x="127.246094"/>
       <use xlink:href="#DejaVuSans-36" x="190.869141"/>
       <use xlink:href="#DejaVuSans-2d" x="254.492188"/>
       <use xlink:href="#DejaVuSans-30" x="290.576172"/>
       <use xlink:href="#DejaVuSans-34" x="354.199219"/>
      </g>
     </g>
    </g>
    <g id="xtick_12">
     <g id="line2d_23">
      <path d="M 926.612903 578.54175 
L 926.612903 24.14175 
" clip-path="url(#p219158ea79)" style="fill: none; stroke: #ffffff; stroke-width: 0.8; stroke-linecap: square"/>
     </g>
     <g id="line2d_24">
      <g>
       <use xlink:href="#m874108219d" x="926.612903" y="578.54175" style="fill: #555555; stroke: #555555; stroke-width: 0.8"/>
      </g>
     </g>
     <g id="text_12">
      <!-- 2026-05 -->
      <g style="fill: #555555" transform="translate(913.791621 620.459567) rotate(-45) scale(0.1 -0.1)">
       <use xlink:href="#DejaVuSans-32"/>
       <use xlink:href="#DejaVuSans-30" x="63.623047"/>
       <use xlink:href="#DejaVuSans-32" x="127.246094"/>
       <use xlink:href="#DejaVuSans-36" x="190.869141"/>
       <use xlink:href="#DejaVuSans-2d" x="254.492188"/>
       <use xlink:href="#DejaVuSans-30" x="290.576172"/>
       <use xlink:href="#DejaVuSans-35" x="354.199219"/>
      </g>
     </g>
    </g>
    <g id="text_13">
     <!-- Date -->
     <g style="fill: #555555" transform="translate(501.313563 635.048253) scale(0.12 -0.12)">
      <defs>
       <path id="DejaVuSans-44" d="M 1259 4147 
L 1259 519 
L 2022 519 
Q 2988 519 3436 956 
Q 3884 1394 3884 2338 
Q 3884 3275 3436 3711 
Q 2988 4147 2022 4147 
L 1259 4147 
z
M 628 4666 
L 1925 4666 
Q 3281 4666 3915 4102 
Q 4550 3538 4550 2338 
Q 4550 1131 3912 565 
Q 3275 0 1925 0 
L 628 0 
L 628 4666 
z
" transform="scale(0.015625)"/>
       <path id="DejaVuSans-61" d="M 2194 1759 
Q 1497 1759 1228 1600 
Q 959 1441 959 1056 
Q 959 750 1161 570 
Q 1363 391 1709 391 
Q 2188 391 2477 730 
Q 2766 1069 2766 1631 
L 2766 1759 
L 2194 1759 
z
M 3341 1997 
L 3341 0 
L 2766 0 
L 2766 531 
Q 2569 213 2275 61 
Q 1981 -91 1556 -91 
Q 1019 -91 701 211 
Q 384 513 384 1019 
Q 384 1609 779 1909 
Q 1175 2209 1959 2209 
L 2766 2209 
L 2766 2266 
Q 2766 2663 2505 2880 
Q 2244 3097 1772 3097 
Q 1472 3097 1187 3025 
Q 903 2953 641 2809 
L 641 3341 
Q 956 3463 1253 3523 
Q 1550 3584 1831 3584 
Q 2591 3584 2966 3190 
Q 3341 2797 3341 1997 
z
" transform="scale(0.015625)"/>
       <path id="DejaVuSans-74" d="M 1172 4494 
L 1172 3500 
L 2356 3500 
L 2356 3053 
L 1172 3053 
L 1172 1153 
Q 1172 725 1289 603 
Q 1406 481 1766 481 
L 2356 481 
L 2356 0 
L 1766 0 
Q 1100 0 847 248 
Q 594 497 594 1153 
L 594 3053 
L 172 3053 
L 172 3500 
L 594 3500 
L 594 4494 
L 1172 4494 
z
" transform="scale(0.015625)"/>
       <path id="DejaVuSans-65" d="M 3597 1894 
L 3597 1613 
L 953 1613 
Q 991 1019 1311 708 
Q 1631 397 2203 397 
Q 2534 397 2845 478 
Q 3156 559 3463 722 
L 3463 178 
Q 3153 47 2828 -22 
Q 2503 -91 2169 -91 
Q 1331 -91 842 396 
Q 353 884 353 1716 
Q 353 2575 817 3079 
Q 1281 3584 2069 3584 
Q 2775 3584 3186 3129 
Q 3597 2675 3597 1894 
z
M 3022 2063 
Q 3016 2534 2758 2815 
Q 2500 3097 2075 3097 
Q 1594 3097 1305 2825 
Q 1016 2553 972 2059 
L 3022 2063 
z
" transform="scale(0.015625)"/>
      </defs>
      <use xlink:href="#DejaVuSans-44"/>
      <use xlink:href="#DejaVuSans-61" x="77.001953"/>
      <use xlink:href="#DejaVuSans-74" x="138.28125"/>
      <use xlink:href="#DejaVuSans-65" x="177.490234"/>
     </g>
    </g>
   </g>
   <g id="matplotlib.axis_2">
    <g id="ytick_1">
     <g id="line2d_25">
      <path d="M 64.2325 578.54175 
L 967.0765 578.54175 
" clip-path="url(#p219158ea79)" style="fill: none; stroke: #ffffff; stroke-width: 0.8; stroke-linecap: square"/>
     </g>
     <g id="line2d_26">
      <defs>
       <path id="mf299f9cc0a" d="M 0 0 
L -3.5 0 
" style="stroke: #555555; stroke-width: 0.8"/>
      </defs>
      <g>
       <use xlink:href="#mf299f9cc0a" x="64.2325" y="578.54175" style="fill: #555555; stroke: #555555; stroke-width: 0.8"/>
      </g>
     </g>
     <g id="text_14">
      <!-- 0k -->
      <g style="fill: #555555" transform="translate(45.079375 582.340969) scale(0.1 -0.1)">
       <defs>
        <path id="DejaVuSans-6b" d="M 581 4863 
L 1159 4863 
L 1159 1991 
L 2875 3500 
L 3609 3500 
L 1753 1863 
L 3688 0 
L 2938 0 
L 1159 1709 
L 1159 0 
L 581 0 
L 581 4863 
z
" transform="scale(0.015625)"/>
       </defs>
       <use xlink:href="#DejaVuSans-30"/>
       <use xlink:href="#DejaVuSans-6b" x="63.623047"/>
      </g>
     </g>
    </g>
    <g id="ytick_2">
     <g id="line2d_27">
      <path d="M 64.2325 467.330797 
L 967.0765 467.330797 
" clip-path="url(#p219158ea79)" style="fill: none; stroke: #ffffff; stroke-width: 0.8; stroke-linecap: square"/>
     </g>
     <g id="line2d_28">
      <g>
       <use xlink:href="#mf299f9cc0a" x="64.2325" y="467.330797" style="fill: #555555; stroke: #555555; stroke-width: 0.8"/>
      </g>
     </g>
     <g id="text_15">
      <!-- 500k -->
      <g style="fill: #555555" transform="translate(32.354375 471.130016) scale(0.1 -0.1)">
       <use xlink:href="#DejaVuSans-35"/>
       <use xlink:href="#DejaVuSans-30" x="63.623047"/>
       <use xlink:href="#DejaVuSans-30" x="127.246094"/>
       <use xlink:href="#DejaVuSans-6b" x="190.869141"/>
      </g>
     </g>
    </g>
    <g id="ytick_3">
     <g id="line2d_29">
      <path d="M 64.2325 356.119845 
L 967.0765 356.119845 
" clip-path="url(#p219158ea79)" style="fill: none; stroke: #ffffff; stroke-width: 0.8; stroke-linecap: square"/>
     </g>
     <g id="line2d_30">
      <g>
       <use xlink:href="#mf299f9cc0a" x="64.2325" y="356.119845" style="fill: #555555; stroke: #555555; stroke-width: 0.8"/>
      </g>
     </g>
     <g id="text_16">
      <!-- 1,000k -->
      <g style="fill: #555555" transform="translate(22.81375 359.919063) scale(0.1 -0.1)">
       <defs>
        <path id="DejaVuSans-2c" d="M 750 794 
L 1409 794 
L 1409 256 
L 897 -744 
L 494 -744 
L 750 256 
L 750 794 
z
" transform="scale(0.015625)"/>
       </defs>
       <use xlink:href="#DejaVuSans-31"/>
       <use xlink:href="#DejaVuSans-2c" x="63.623047"/>
       <use xlink:href="#DejaVuSans-30" x="95.410156"/>
       <use xlink:href="#DejaVuSans-30" x="159.033203"/>
       <use xlink:href="#DejaVuSans-30" x="222.65625"/>
       <use xlink:href="#DejaVuSans-6b" x="286.279297"/>
      </g>
     </g>
    </g>
    <g id="ytick_4">
     <g id="line2d_31">
      <path d="M 64.2325 244.908892 
L 967.0765 244.908892 
" clip-path="url(#p219158ea79)" style="fill: none; stroke: #ffffff; stroke-width: 0.8; stroke-linecap: square"/>
     </g>
     <g id="line2d_32">
      <g>
       <use xlink:href="#mf299f9cc0a" x="64.2325" y="244.908892" style="fill: #555555; stroke: #555555; stroke-width: 0.8"/>
      </g>
     </g>
     <g id="text_17">
      <!-- 1,500k -->
      <g style="fill: #555555" transform="translate(22.81375 248.708111) scale(0.1 -0.1)">
       <use xlink:href="#DejaVuSans-31"/>
       <use xlink:href="#DejaVuSans-2c" x="63.623047"/>
       <use xlink:href="#DejaVuSans-35" x="95.410156"/>
       <use xlink:href="#DejaVuSans-30" x="159.033203"/>
       <use xlink:href="#DejaVuSans-30" x="222.65625"/>
       <use xlink:href="#DejaVuSans-6b" x="286.279297"/>
      </g>
     </g>
    </g>
    <g id="ytick_5">
     <g id="line2d_33">
      <path d="M 64.2325 133.697939 
L 967.0765 133.697939 
" clip-path="url(#p219158ea79)" style="fill: none; stroke: #ffffff; stroke-width: 0.8; stroke-linecap: square"/>
     </g>
     <g id="line2d_34">
      <g>
       <use xlink:href="#mf299f9cc0a" x="64.2325" y="133.697939" style="fill: #555555; stroke: #555555; stroke-width: 0.8"/>
      </g>
     </g>
     <g id="text_18">
      <!-- 2,000k -->
      <g style="fill: #555555" transform="translate(22.81375 137.497158) scale(0.1 -0.1)">
       <use xlink:href="#DejaVuSans-32"/>
       <use xlink:href="#DejaVuSans-2c" x="63.623047"/>
       <use xlink:href="#DejaVuSans-30" x="95.410156"/>
       <use xlink:href="#DejaVuSans-30" x="159.033203"/>
       <use xlink:href="#DejaVuSans-30" x="222.65625"/>
       <use xlink:href="#DejaVuSans-6b" x="286.279297"/>
      </g>
     </g>
    </g>
    <g id="text_19">
     <!-- Instances -->
     <g style="fill: #555555" transform="translate(16.318125 329.988) rotate(-90) scale(0.12 -0.12)">
      <defs>
       <path id="DejaVuSans-49" d="M 628 4666 
L 1259 4666 
L 1259 0 
L 628 0 
L 628 4666 
z
" transform="scale(0.015625)"/>
       <path id="DejaVuSans-6e" d="M 3513 2113 
L 3513 0 
L 2938 0 
L 2938 2094 
Q 2938 2591 2744 2837 
Q 2550 3084 2163 3084 
Q 1697 3084 1428 2787 
Q 1159 2491 1159 1978 
L 1159 0 
L 581 0 
L 581 3500 
L 1159 3500 
L 1159 2956 
Q 1366 3272 1645 3428 
Q 1925 3584 2291 3584 
Q 2894 3584 3203 3211 
Q 3513 2838 3513 2113 
z
" transform="scale(0.015625)"/>
       <path id="DejaVuSans-73" d="M 2834 3397 
L 2834 2853 
Q 2591 2978 2328 3040 
Q 2066 3103 1784 3103 
Q 1356 3103 1142 2972 
Q 928 2841 928 2578 
Q 928 2378 1081 2264 
Q 1234 2150 1697 2047 
L 1894 2003 
Q 2506 1872 2764 1633 
Q 3022 1394 3022 966 
Q 3022 478 2636 193 
Q 2250 -91 1575 -91 
Q 1294 -91 989 -36 
Q 684 19 347 128 
L 347 722 
Q 666 556 975 473 
Q 1284 391 1588 391 
Q 1994 391 2212 530 
Q 2431 669 2431 922 
Q 2431 1156 2273 1281 
Q 2116 1406 1581 1522 
L 1381 1569 
Q 847 1681 609 1914 
Q 372 2147 372 2553 
Q 372 3047 722 3315 
Q 1072 3584 1716 3584 
Q 2034 3584 2315 3537 
Q 2597 3491 2834 3397 
z
" transform="scale(0.015625)"/>
       <path id="DejaVuSans-63" d="M 3122 3366 
L 3122 2828 
Q 2878 2963 2633 3030 
Q 2388 3097 2138 3097 
Q 1578 3097 1268 2742 
Q 959 2388 959 1747 
Q 959 1106 1268 751 
Q 1578 397 2138 397 
Q 2388 397 2633 464 
Q 2878 531 3122 666 
L 3122 134 
Q 2881 22 2623 -34 
Q 2366 -91 2075 -91 
Q 1284 -91 818 406 
Q 353 903 353 1747 
Q 353 2603 823 3093 
Q 1294 3584 2113 3584 
Q 2378 3584 2631 3529 
Q 2884 3475 3122 3366 
z
" transform="scale(0.015625)"/>
      </defs>
      <use xlink:href="#DejaVuSans-49"/>
      <use xlink:href="#DejaVuSans-6e" x="29.492188"/>
      <use xlink:href="#DejaVuSans-73" x="92.871094"/>
      <use xlink:href="#DejaVuSans-74" x="144.970703"/>
      <use xlink:href="#DejaVuSans-61" x="184.179688"/>
      <use xlink:href="#DejaVuSans-6e" x="245.458984"/>
      <use xlink:href="#DejaVuSans-63" x="308.837891"/>
      <use xlink:href="#DejaVuSans-65" x="363.818359"/>
      <use xlink:href="#DejaVuSans-73" x="425.341797"/>
     </g>
    </g>
   </g>
   <g id="line2d_35">
    <path d="M 64.2325 369.49599 
L 73.352136 368.756064 
L 82.471773 368.016138 
L 91.591409 367.276212 
L 100.711045 366.536286 
L 109.830682 365.79636 
L 118.950318 365.056434 
L 128.069955 364.316507 
L 137.189591 363.576581 
L 146.309227 362.836655 
L 155.428864 362.096729 
L 164.5485 361.356803 
L 173.668136 360.616877 
L 182.787773 359.876951 
L 191.907409 359.137025 
L 201.027045 358.397099 
L 210.146682 357.657173 
L 219.266318 356.917247 
L 228.385955 356.177321 
L 237.505591 355.437395 
L 246.625227 354.697469 
L 255.744864 353.957543 
L 264.8645 353.217617 
L 273.984136 352.477691 
L 283.103773 351.737765 
L 292.223409 350.997839 
L 301.343045 350.257913 
L 310.462682 349.517987 
L 319.582318 348.778061 
L 328.701955 348.038135 
L 337.821591 347.298209 
L 346.941227 346.558283 
L 356.060864 345.818357 
L 365.1805 345.07843 
L 374.300136 344.338504 
L 383.419773 343.598578 
L 392.539409 342.858652 
L 401.659045 342.118726 
L 410.778682 341.3788 
L 419.898318 340.638874 
L 429.017955 339.898948 
L 438.137591 339.159022 
L 447.257227 338.419096 
L 456.376864 337.67917 
L 465.4965 336.939244 
L 474.616136 336.199318 
L 483.735773 335.459392 
L 492.855409 334.719466 
L 501.975045 333.97954 
L 511.094682 333.239614 
L 520.214318 332.499688 
L 529.333955 331.759762 
L 538.453591 331.019836 
L 547.573227 330.27991 
L 556.692864 329.539984 
L 565.8125 328.800058 
L 574.932136 328.060132 
L 584.051773 327.320206 
L 593.171409 326.58028 
L 602.291045 325.840354 
L 611.410682 325.100427 
L 620.530318 324.360501 
L 629.649955 323.620575 
L 638.769591 322.880649 
L 647.889227 322.140723 
L 657.008864 321.400797 
L 666.1285 320.660871 
L 675.248136 319.920945 
L 684.367773 319.181019 
L 693.487409 318.441093 
L 702.607045 317.701167 
L 711.726682 316.961241 
L 720.846318 316.221315 
L 729.965955 315.481389 
L 739.085591 314.741463 
L 748.205227 314.001537 
L 757.324864 313.261611 
L 766.4445 312.521685 
L 775.564136 311.781759 
L 784.683773 311.041833 
L 793.803409 310.301907 
L 802.923045 309.561981 
L 812.042682 308.822055 
L 821.162318 308.082129 
L 830.281955 307.342203 
L 839.401591 306.602277 
L 848.521227 305.86235 
L 857.640864 305.122424 
L 866.7605 304.382498 
L 875.880136 303.642572 
L 884.999773 302.902646 
L 894.119409 302.16272 
L 903.239045 301.422794 
L 912.358682 300.682868 
L 921.478318 299.942942 
L 930.597955 299.203016 
L 939.717591 298.46309 
L 948.837227 297.723164 
L 957.956864 296.983238 
L 967.0765 296.243312 
" clip-path="url(#p219158ea79)" style="fill: none; stroke-dasharray: 3,4.95; stroke-dashoffset: 0; stroke: #4ac1fa; stroke-opacity: 0.9; stroke-width: 3"/>
   </g>
   <g id="line2d_36">
    <path d="M 64.2325 533.924777 
L 73.352136 533.974361 
L 82.471773 534.023945 
L 91.591409 534.073529 
L 100.711045 534.123113 
L 109.830682 534.172697 
L 118.950318 534.22228 
L 128.069955 534.271864 
L 137.189591 534.321448 
L 146.309227 534.371032 
L 155.428864 534.420616 
L 164.5485 534.4702 
L 173.668136 534.519784 
L 182.787773 534.569368 
L 191.907409 534.618952 
L 201.027045 534.668535 
L 210.146682 534.718119 
L 219.266318 534.767703 
L 228.385955 534.817287 
L 237.505591 534.866871 
L 246.625227 534.916455 
L 255.744864 534.966039 
L 264.8645 535.015623 
L 273.984136 535.065207 
L 283.103773 535.114791 
L 292.223409 535.164374 
L 301.343045 535.213958 
L 310.462682 535.263542 
L 319.582318 535.313126 
L 328.701955 535.36271 
L 337.821591 535.412294 
L 346.941227 535.461878 
L 356.060864 535.511462 
L 365.1805 535.561046 
L 374.300136 535.610629 
L 383.419773 535.660213 
L 392.539409 535.709797 
L 401.659045 535.759381 
L 410.778682 535.808965 
L 419.898318 535.858549 
L 429.017955 535.908133 
L 438.137591 535.957717 
L 447.257227 536.007301 
L 456.376864 536.056885 
L 465.4965 536.106468 
L 474.616136 536.156052 
L 483.735773 536.205636 
L 492.855409 536.25522 
L 501.975045 536.304804 
L 511.094682 536.354388 
L 520.214318 536.403972 
L 529.333955 536.453556 
L 538.453591 536.50314 
L 547.573227 536.552724 
L 556.692864 536.602307 
L 565.8125 536.651891 
L 574.932136 536.701475 
L 584.051773 536.751059 
L 593.171409 536.800643 
L 602.291045 536.850227 
L 611.410682 536.899811 
L 620.530318 536.949395 
L 629.649955 536.998979 
L 638.769591 537.048562 
L 647.889227 537.098146 
L 657.008864 537.14773 
L 666.1285 537.197314 
L 675.248136 537.246898 
L 684.367773 537.296482 
L 693.487409 537.346066 
L 702.607045 537.39565 
L 711.726682 537.445234 
L 720.846318 537.494818 
L 729.965955 537.544401 
L 739.085591 537.593985 
L 748.205227 537.643569 
L 757.324864 537.693153 
L 766.4445 537.742737 
L 775.564136 537.792321 
L 784.683773 537.841905 
L 793.803409 537.891489 
L 802.923045 537.941073 
L 812.042682 537.990656 
L 821.162318 538.04024 
L 830.281955 538.089824 
L 839.401591 538.139408 
L 848.521227 538.188992 
L 857.640864 538.238576 
L 866.7605 538.28816 
L 875.880136 538.337744 
L 884.999773 538.387328 
L 894.119409 538.436912 
L 903.239045 538.486495 
L 912.358682 538.536079 
L 921.478318 538.585663 
L 930.597955 538.635247 
L 939.717591 538.684831 
L 948.837227 538.734415 
L 957.956864 538.783999 
L 967.0765 538.833583 
" clip-path="url(#p219158ea79)" style="fill: none; stroke-dasharray: 3,4.95; stroke-dashoffset: 0; stroke: #e9a942; stroke-opacity: 0.9; stroke-width: 3"/>
   </g>
   <g id="line2d_37">
    <path d="M 64.2325 450.58576 
L 73.352136 450.257237 
L 82.471773 449.928713 
L 91.591409 449.600189 
L 100.711045 449.271666 
L 109.830682 448.943142 
L 118.950318 448.614618 
L 128.069955 448.286095 
L 137.189591 447.957571 
L 146.309227 447.629047 
L 155.428864 447.300524 
L 164.5485 446.972 
L 173.668136 446.643476 
L 182.787773 446.314953 
L 191.907409 445.986429 
L 201.027045 445.657906 
L 210.146682 445.329382 
L 219.266318 445.000858 
L 228.385955 444.672335 
L 237.505591 444.343811 
L 246.625227 444.015287 
L 255.744864 443.686764 
L 264.8645 443.35824 
L 273.984136 443.029716 
L 283.103773 442.701193 
L 292.223409 442.372669 
L 301.343045 442.044146 
L 310.462682 441.715622 
L 319.582318 441.387098 
L 328.701955 441.058575 
L 337.821591 440.730051 
L 346.941227 440.401527 
L 356.060864 440.073004 
L 365.1805 439.74448 
L 374.300136 439.415956 
L 383.419773 439.087433 
L 392.539409 438.758909 
L 401.659045 438.430385 
L 410.778682 438.101862 
L 419.898318 437.773338 
L 429.017955 437.444815 
L 438.137591 437.116291 
L 447.257227 436.787767 
L 456.376864 436.459244 
L 465.4965 436.13072 
L 474.616136 435.802196 
L 483.735773 435.473673 
L 492.855409 435.145149 
L 501.975045 434.816625 
L 511.094682 434.488102 
L 520.214318 434.159578 
L 529.333955 433.831055 
L 538.453591 433.502531 
L 547.573227 433.174007 
L 556.692864 432.845484 
L 565.8125 432.51696 
L 574.932136 432.188436 
L 584.051773 431.859913 
L 593.171409 431.531389 
L 602.291045 431.202865 
L 611.410682 430.874342 
L 620.530318 430.545818 
L 629.649955 430.217294 
L 638.769591 429.888771 
L 647.889227 429.560247 
L 657.008864 429.231724 
L 666.1285 428.9032 
L 675.248136 428.574676 
L 684.367773 428.246153 
L 693.487409 427.917629 
L 702.607045 427.589105 
L 711.726682 427.260582 
L 720.846318 426.932058 
L 729.965955 426.603534 
L 739.085591 426.275011 
L 748.205227 425.946487 
L 757.324864 425.617964 
L 766.4445 425.28944 
L 775.564136 424.960916 
L 784.683773 424.632393 
L 793.803409 424.303869 
L 802.923045 423.975345 
L 812.042682 423.646822 
L 821.162318 423.318298 
L 830.281955 422.989774 
L 839.401591 422.661251 
L 848.521227 422.332727 
L 857.640864 422.004203 
L 866.7605 421.67568 
L 875.880136 421.347156 
L 884.999773 421.018633 
L 894.119409 420.690109 
L 903.239045 420.361585 
L 912.358682 420.033062 
L 921.478318 419.704538 
L 930.597955 419.376014 
L 939.717591 419.047491 
L 948.837227 418.718967 
L 957.956864 418.390443 
L 967.0765 418.06192 
" clip-path="url(#p219158ea79)" style="fill: none; stroke-dasharray: 3,4.95; stroke-dashoffset: 0; stroke: #9a5689; stroke-opacity: 0.9; stroke-width: 3"/>
   </g>
   <g id="line2d_38">
    <path d="M 64.2325 544.07777 
L 73.352136 544.036006 
L 82.471773 543.994242 
L 91.591409 543.952479 
L 100.711045 543.910715 
L 109.830682 543.868952 
L 118.950318 543.827188 
L 128.069955 543.785425 
L 137.189591 543.743661 
L 146.309227 543.701898 
L 155.428864 543.660134 
L 164.5485 543.618371 
L 173.668136 543.576607 
L 182.787773 543.534844 
L 191.907409 543.49308 
L 201.027045 543.451317 
L 210.146682 543.409553 
L 219.266318 543.36779 
L 228.385955 543.326026 
L 237.505591 543.284262 
L 246.625227 543.242499 
L 255.744864 543.200735 
L 264.8645 543.158972 
L 273.984136 543.117208 
L 283.103773 543.075445 
L 292.223409 543.033681 
L 301.343045 542.991918 
L 310.462682 542.950154 
L 319.582318 542.908391 
L 328.701955 542.866627 
L 337.821591 542.824864 
L 346.941227 542.7831 
L 356.060864 542.741337 
L 365.1805 542.699573 
L 374.300136 542.65781 
L 383.419773 542.616046 
L 392.539409 542.574282 
L 401.659045 542.532519 
L 410.778682 542.490755 
L 419.898318 542.448992 
L 429.017955 542.407228 
L 438.137591 542.365465 
L 447.257227 542.323701 
L 456.376864 542.281938 
L 465.4965 542.240174 
L 474.616136 542.198411 
L 483.735773 542.156647 
L 492.855409 542.114884 
L 501.975045 542.07312 
L 511.094682 542.031357 
L 520.214318 541.989593 
L 529.333955 541.947829 
L 538.453591 541.906066 
L 547.573227 541.864302 
L 556.692864 541.822539 
L 565.8125 541.780775 
L 574.932136 541.739012 
L 584.051773 541.697248 
L 593.171409 541.655485 
L 602.291045 541.613721 
L 611.410682 541.571958 
L 620.530318 541.530194 
L 629.649955 541.488431 
L 638.769591 541.446667 
L 647.889227 541.404904 
L 657.008864 541.36314 
L 666.1285 541.321377 
L 675.248136 541.279613 
L 684.367773 541.237849 
L 693.487409 541.196086 
L 702.607045 541.154322 
L 711.726682 541.112559 
L 720.846318 541.070795 
L 729.965955 541.029032 
L 739.085591 540.987268 
L 748.205227 540.945505 
L 757.324864 540.903741 
L 766.4445 540.861978 
L 775.564136 540.820214 
L 784.683773 540.778451 
L 793.803409 540.736687 
L 802.923045 540.694924 
L 812.042682 540.65316 
L 821.162318 540.611397 
L 830.281955 540.569633 
L 839.401591 540.527869 
L 848.521227 540.486106 
L 857.640864 540.444342 
L 866.7605 540.402579 
L 875.880136 540.360815 
L 884.999773 540.319052 
L 894.119409 540.277288 
L 903.239045 540.235525 
L 912.358682 540.193761 
L 921.478318 540.151998 
L 930.597955 540.110234 
L 939.717591 540.068471 
L 948.837227 540.026707 
L 957.956864 539.984944 
L 967.0765 539.94318 
" clip-path="url(#p219158ea79)" style="fill: none; stroke-dasharray: 3,4.95; stroke-dashoffset: 0; stroke: #be503b; stroke-opacity: 0.9; stroke-width: 3"/>
   </g>
   <g id="line2d_39">
    <path d="M 64.2325 394.833097 
L 73.352136 394.449248 
L 82.471773 394.0654 
L 91.591409 393.681551 
L 100.711045 393.297703 
L 109.830682 392.913854 
L 118.950318 392.530006 
L 128.069955 392.146157 
L 137.189591 391.762309 
L 146.309227 391.37846 
L 155.428864 390.994611 
L 164.5485 390.610763 
L 173.668136 390.226914 
L 182.787773 389.843066 
L 191.907409 389.459217 
L 201.027045 389.075369 
L 210.146682 388.69152 
L 219.266318 388.307672 
L 228.385955 387.923823 
L 237.505591 387.539974 
L 246.625227 387.156126 
L 255.744864 386.772277 
L 264.8645 386.388429 
L 273.984136 386.00458 
L 283.103773 385.620732 
L 292.223409 385.236883 
L 301.343045 384.853035 
L 310.462682 384.469186 
L 319.582318 384.085337 
L 328.701955 383.701489 
L 337.821591 383.31764 
L 346.941227 382.933792 
L 356.060864 382.549943 
L 365.1805 382.166095 
L 374.300136 381.782246 
L 383.419773 381.398397 
L 392.539409 381.014549 
L 401.659045 380.6307 
L 410.778682 380.246852 
L 419.898318 379.863003 
L 429.017955 379.479155 
L 438.137591 379.095306 
L 447.257227 378.711458 
L 456.376864 378.327609 
L 465.4965 377.94376 
L 474.616136 377.559912 
L 483.735773 377.176063 
L 492.855409 376.792215 
L 501.975045 376.408366 
L 511.094682 376.024518 
L 520.214318 375.640669 
L 529.333955 375.256821 
L 538.453591 374.872972 
L 547.573227 374.489123 
L 556.692864 374.105275 
L 565.8125 373.721426 
L 574.932136 373.337578 
L 584.051773 372.953729 
L 593.171409 372.569881 
L 602.291045 372.186032 
L 611.410682 371.802184 
L 620.530318 371.418335 
L 629.649955 371.034486 
L 638.769591 370.650638 
L 647.889227 370.266789 
L 657.008864 369.882941 
L 666.1285 369.499092 
L 675.248136 369.115244 
L 684.367773 368.731395 
L 693.487409 368.347547 
L 702.607045 367.963698 
L 711.726682 367.579849 
L 720.846318 367.196001 
L 729.965955 366.812152 
L 739.085591 366.428304 
L 748.205227 366.044455 
L 757.324864 365.660607 
L 766.4445 365.276758 
L 775.564136 364.89291 
L 784.683773 364.509061 
L 793.803409 364.125212 
L 802.923045 363.741364 
L 812.042682 363.357515 
L 821.162318 362.973667 
L 830.281955 362.589818 
L 839.401591 362.20597 
L 848.521227 361.822121 
L 857.640864 361.438272 
L 866.7605 361.054424 
L 875.880136 360.670575 
L 884.999773 360.286727 
L 894.119409 359.902878 
L 903.239045 359.51903 
L 912.358682 359.135181 
L 921.478318 358.751333 
L 930.597955 358.367484 
L 939.717591 357.983635 
L 948.837227 357.599787 
L 957.956864 357.215938 
L 967.0765 356.83209 
" clip-path="url(#p219158ea79)" style="fill: none; stroke-dasharray: 3,4.95; stroke-dashoffset: 0; stroke: #e2321d; stroke-opacity: 0.9; stroke-width: 3"/>
   </g>
   <g id="line2d_40">
    <path d="M 64.2325 203.398901 
L 73.352136 202.200416 
L 82.471773 201.001931 
L 91.591409 199.803446 
L 100.711045 198.604961 
L 109.830682 197.406476 
L 118.950318 196.207992 
L 128.069955 195.009507 
L 137.189591 193.811022 
L 146.309227 192.612537 
L 155.428864 191.414052 
L 164.5485 190.215567 
L 173.668136 189.017082 
L 182.787773 187.818597 
L 191.907409 186.620113 
L 201.027045 185.421628 
L 210.146682 184.223143 
L 219.266318 183.024658 
L 228.385955 181.826173 
L 237.505591 180.627688 
L 246.625227 179.429203 
L 255.744864 178.230719 
L 264.8645 177.032234 
L 273.984136 175.833749 
L 283.103773 174.635264 
L 292.223409 173.436779 
L 301.343045 172.238294 
L 310.462682 171.039809 
L 319.582318 169.841324 
L 328.701955 168.64284 
L 337.821591 167.444355 
L 346.941227 166.24587 
L 356.060864 165.047385 
L 365.1805 163.8489 
L 374.300136 162.650415 
L 383.419773 161.45193 
L 392.539409 160.253446 
L 401.659045 159.054961 
L 410.778682 157.856476 
L 419.898318 156.657991 
L 429.017955 155.459506 
L 438.137591 154.261021 
L 447.257227 153.062536 
L 456.376864 151.864051 
L 465.4965 150.665567 
L 474.616136 149.467082 
L 483.735773 148.268597 
L 492.855409 147.070112 
L 501.975045 145.871627 
L 511.094682 144.673142 
L 520.214318 143.474657 
L 529.333955 142.276172 
L 538.453591 141.077688 
L 547.573227 139.879203 
L 556.692864 138.680718 
L 565.8125 137.482233 
L 574.932136 136.283748 
L 584.051773 135.085263 
L 593.171409 133.886778 
L 602.291045 132.688294 
L 611.410682 131.489809 
L 620.530318 130.291324 
L 629.649955 129.092839 
L 638.769591 127.894354 
L 647.889227 126.695869 
L 657.008864 125.497384 
L 666.1285 124.298899 
L 675.248136 123.100415 
L 684.367773 121.90193 
L 693.487409 120.703445 
L 702.607045 119.50496 
L 711.726682 118.306475 
L 720.846318 117.10799 
L 729.965955 115.909505 
L 739.085591 114.711021 
L 748.205227 113.512536 
L 757.324864 112.314051 
L 766.4445 111.115566 
L 775.564136 109.917081 
L 784.683773 108.718596 
L 793.803409 107.520111 
L 802.923045 106.321626 
L 812.042682 105.123142 
L 821.162318 103.924657 
L 830.281955 102.726172 
L 839.401591 101.527687 
L 848.521227 100.329202 
L 857.640864 99.130717 
L 866.7605 97.932232 
L 875.880136 96.733748 
L 884.999773 95.535263 
L 894.119409 94.336778 
L 903.239045 93.138293 
L 912.358682 91.939808 
L 921.478318 90.741323 
L 930.597955 89.542838 
L 939.717591 88.344353 
L 948.837227 87.145869 
L 957.956864 85.947384 
L 967.0765 84.748899 
" clip-path="url(#p219158ea79)" style="fill: none; stroke-dasharray: 3,4.95; stroke-dashoffset: 0; stroke: #48b585; stroke-opacity: 0.9; stroke-width: 3"/>
   </g>
   <g id="line2d_41">
    <path d="M 64.2325 367.495835 
L 81.935324 360.989327 
L 99.638147 374.019247 
L 117.340971 364.986694 
L 135.043794 356.343379 
L 152.746618 401.749031 
L 170.449441 394.392649 
L 188.152265 352.263049 
L 205.855088 349.872236 
L 223.557912 348.836862 
L 241.260735 365.471574 
L 258.963559 350.419616 
L 276.666382 355.493727 
L 294.369206 349.048163 
L 312.072029 348.347756 
L 329.774853 337.978892 
L 347.477676 338.802298 
L 365.1805 333.876542 
L 382.883324 333.254428 
L 400.586147 334.813605 
L 418.288971 338.498469 
L 435.991794 339.687982 
L 453.694618 322.771461 
L 471.397441 323.780144 
L 489.100265 343.936907 
L 506.803088 345.821043 
L 524.505912 323.265238 
L 542.208735 318.85817 
L 559.911559 343.003847 
L 577.614382 311.064507 
L 595.317206 324.931178 
L 613.020029 328.540418 
L 630.722853 316.515178 
L 648.425676 328.350025 
L 666.1285 322.483647 
L 683.831324 319.975618 
L 701.534147 317.366609 
L 719.236971 315.894398 
L 736.939794 317.122612 
L 754.642618 317.340808 
L 772.345441 312.637029 
L 790.048265 310.143457 
L 807.751088 307.874087 
L 825.453912 318.513861 
L 843.156735 307.624085 
L 860.859559 310.296261 
L 878.562382 302.348682 
L 896.265206 302.465231 
L 913.968029 300.087763 
L 931.670853 304.147853 
L 949.373676 299.275033 
L 967.0765 296.145335 
" clip-path="url(#p219158ea79)" style="fill: none; stroke: #4ac1fa; stroke-width: 1.5; stroke-linecap: square"/>
   </g>
   <g id="line2d_42">
    <path d="M 64.2325 521.883106 
L 81.935324 522.213625 
L 99.638147 531.609838 
L 117.340971 534.767562 
L 135.043794 535.462408 
L 152.746618 547.846637 
L 170.449441 546.479855 
L 188.152265 534.914138 
L 205.855088 535.122103 
L 223.557912 535.545371 
L 241.260735 540.574108 
L 258.963559 535.429935 
L 276.666382 535.798043 
L 294.369206 535.837411 
L 312.072029 536.000447 
L 329.774853 534.598077 
L 347.477676 535.198171 
L 365.1805 534.916362 
L 382.883324 535.340298 
L 400.586147 534.692606 
L 418.288971 535.116097 
L 435.991794 535.58563 
L 453.694618 535.412586 
L 471.397441 534.779795 
L 489.100265 537.046719 
L 506.803088 542.984495 
L 524.505912 534.979975 
L 542.208735 535.31383 
L 559.911559 538.371687 
L 577.614382 536.645248 
L 595.317206 536.454187 
L 613.020029 535.723531 
L 630.722853 534.878773 
L 648.425676 534.707508 
L 666.1285 534.929708 
L 683.831324 535.216409 
L 701.534147 535.864324 
L 719.236971 535.496661 
L 736.939794 535.717526 
L 754.642618 534.593628 
L 772.345441 535.877003 
L 790.048265 536.728656 
L 807.751088 537.875908 
L 825.453912 540.22802 
L 843.156735 539.584331 
L 860.859559 539.764048 
L 878.562382 539.172183 
L 896.265206 539.568316 
L 913.968029 539.735355 
L 931.670853 539.46667 
L 949.373676 539.327211 
L 967.0765 540.341233 
" clip-path="url(#p219158ea79)" style="fill: none; stroke: #e9a942; stroke-width: 1.5; stroke-linecap: square"/>
   </g>
   <g id="line2d_43">
    <path d="M 64.2325 442.860607 
L 81.935324 446.236304 
L 99.638147 450.320637 
L 117.340971 443.893756 
L 135.043794 445.709386 
L 152.746618 477.151392 
L 170.449441 470.875535 
L 188.152265 444.491404 
L 205.855088 443.379294 
L 223.557912 440.015386 
L 241.260735 444.141089 
L 258.963559 435.389455 
L 276.666382 432.983072 
L 294.369206 434.132771 
L 312.072029 439.20488 
L 329.774853 433.215281 
L 347.477676 432.269098 
L 365.1805 437.957093 
L 382.883324 441.695116 
L 400.586147 439.875705 
L 418.288971 432.923908 
L 435.991794 441.535639 
L 453.694618 433.617419 
L 471.397441 435.421706 
L 489.100265 442.329463 
L 506.803088 446.474295 
L 524.505912 432.417453 
L 542.208735 427.411181 
L 559.911559 441.787198 
L 577.614382 430.349597 
L 595.317206 436.601432 
L 613.020029 432.036889 
L 630.722853 429.735268 
L 648.425676 428.730365 
L 666.1285 422.769458 
L 683.831324 425.824201 
L 701.534147 425.426066 
L 719.236971 422.140449 
L 736.939794 425.734787 
L 754.642618 426.951213 
L 772.345441 428.307096 
L 790.048265 426.911844 
L 807.751088 426.896052 
L 825.453912 431.062237 
L 843.156735 426.511262 
L 860.859559 422.880224 
L 878.562382 418.044105 
L 896.265206 418.580809 
L 913.968029 419.791007 
L 931.670853 416.842359 
L 949.373676 421.105742 
L 967.0765 411.891693 
" clip-path="url(#p219158ea79)" style="fill: none; stroke: #9a5689; stroke-width: 1.5; stroke-linecap: square"/>
   </g>
   <g id="line2d_44">
    <path d="M 64.2325 543.448022 
L 81.935324 544.300565 
L 99.638147 544.436465 
L 117.340971 542.157085 
L 135.043794 541.087236 
L 152.746618 551.011256 
L 170.449441 549.757686 
L 188.152265 543.214924 
L 205.855088 543.860837 
L 223.557912 543.854831 
L 241.260735 543.762082 
L 258.963559 540.857029 
L 276.666382 541.897519 
L 294.369206 540.575443 
L 312.072029 539.119691 
L 329.774853 539.79452 
L 347.477676 541.323003 
L 365.1805 542.532311 
L 382.883324 542.228927 
L 400.586147 541.602142 
L 418.288971 541.932216 
L 435.991794 542.206908 
L 453.694618 541.766067 
L 471.397441 541.349694 
L 489.100265 544.097716 
L 506.803088 543.423778 
L 524.505912 541.809662 
L 542.208735 540.96824 
L 559.911559 546.194932 
L 577.614382 541.324782 
L 595.317206 542.413982 
L 613.020029 542.852821 
L 630.722853 541.357923 
L 648.425676 541.432434 
L 666.1285 540.695551 
L 683.831324 540.787633 
L 701.534147 540.32722 
L 719.236971 540.42731 
L 736.939794 541.288083 
L 754.642618 539.705328 
L 772.345441 541.230698 
L 790.048265 540.879494 
L 807.751088 541.487818 
L 825.453912 544.556128 
L 843.156735 540.902181 
L 860.859559 539.97913 
L 878.562382 539.501367 
L 896.265206 539.685755 
L 913.968029 539.859689 
L 931.670853 540.121257 
L 949.373676 538.746912 
L 967.0765 540.410406 
" clip-path="url(#p219158ea79)" style="fill: none; stroke: #be503b; stroke-width: 1.5; stroke-linecap: square"/>
   </g>
   <g id="line2d_45">
    <path d="M 64.2325 384.978197 
L 81.935324 382.90478 
L 99.638147 386.842315 
L 117.340971 380.330691 
L 135.043794 382.311803 
L 152.746618 432.731291 
L 170.449441 421.962956 
L 188.152265 379.485933 
L 205.855088 380.610276 
L 223.557912 376.464999 
L 241.260735 397.881559 
L 258.963559 383.929478 
L 276.666382 381.221714 
L 294.369206 381.94503 
L 312.072029 381.199694 
L 329.774853 378.843801 
L 347.477676 373.622447 
L 365.1805 377.832671 
L 382.883324 383.727296 
L 400.586147 379.466582 
L 418.288971 375.085538 
L 435.991794 374.933624 
L 453.694618 376.482348 
L 471.397441 371.630881 
L 489.100265 384.426591 
L 506.803088 383.414571 
L 524.505912 377.299526 
L 542.208735 373.909816 
L 559.911559 395.781229 
L 577.614382 375.560409 
L 595.317206 389.593897 
L 613.020029 388.574092 
L 630.722853 372.468077 
L 648.425676 373.56306 
L 666.1285 370.0806 
L 683.831324 369.37708 
L 701.534147 365.866817 
L 719.236971 368.62218 
L 736.939794 368.422668 
L 754.642618 368.472045 
L 772.345441 366.854593 
L 790.048265 360.176598 
L 807.751088 357.248858 
L 825.453912 366.62105 
L 843.156735 355.921222 
L 860.859559 351.880706 
L 878.562382 350.874469 
L 896.265206 353.294642 
L 913.968029 357.852289 
L 931.670853 355.038652 
L 949.373676 356.074248 
L 967.0765 359.598968 
" clip-path="url(#p219158ea79)" style="fill: none; stroke: #e2321d; stroke-width: 1.5; stroke-linecap: square"/>
   </g>
   <g id="line2d_46">
    <path d="M 64.2325 176.836445 
L 81.935324 165.556096 
L 99.638147 160.673713 
L 117.340971 164.144607 
L 135.043794 165.427981 
L 152.746618 256.72817 
L 170.449441 222.952514 
L 188.152265 149.857558 
L 205.855088 148.557502 
L 223.557912 157.353176 
L 241.260735 170.435588 
L 258.963559 141.82012 
L 276.666382 137.719105 
L 294.369206 160.7093 
L 312.072029 188.878367 
L 329.774853 153.120932 
L 347.477676 169.947594 
L 365.1805 167.218922 
L 382.883324 163.408168 
L 400.586147 170.632209 
L 418.288971 164.524726 
L 435.991794 171.099295 
L 453.694618 170.95739 
L 471.397441 162.197303 
L 489.100265 179.216582 
L 506.803088 206.99263 
L 524.505912 193.649095 
L 542.208735 185.929943 
L 559.911559 204.251947 
L 577.614382 137.905939 
L 595.317206 174.510357 
L 613.020029 196.585954 
L 630.722853 168.690688 
L 648.425676 169.315249 
L 666.1285 149.81641 
L 683.831324 129.409645 
L 701.534147 135.502893 
L 719.236971 130.098041 
L 736.939794 104.897416 
L 754.642618 107.692148 
L 772.345441 89.761161 
L 790.048265 93.046555 
L 807.751088 62.987124 
L 825.453912 97.344858 
L 843.156735 62.282047 
L 860.859559 56.96683 
L 878.562382 52.764168 
L 896.265206 49.230774 
L 913.968029 71.742095 
L 931.670853 74.278372 
L 949.373676 78.886732 
L 967.0765 67.330357 
" clip-path="url(#p219158ea79)" style="fill: none; stroke: #48b585; stroke-width: 6; stroke-linecap: square"/>
   </g>
   <g id="patch_3">
    <path d="M 64.2325 578.54175 
L 64.2325 24.14175 
" style="fill: none; stroke: #ffffff; stroke-linejoin: miter; stroke-linecap: square"/>
   </g>
   <g id="patch_4">
    <path d="M 967.0765 578.54175 
L 967.0765 24.14175 
" style="fill: none; stroke: #ffffff; stroke-linejoin: miter; stroke-linecap: square"/>
   </g>
   <g id="patch_5">
    <path d="M 64.2325 578.54175 
L 967.0765 578.54175 
" style="fill: none; stroke: #ffffff; stroke-linejoin: miter; stroke-linecap: square"/>
   </g>
   <g id="patch_6">
    <path d="M 64.2325 24.14175 
L 967.0765 24.14175 
" style="fill: none; stroke: #ffffff; stroke-linejoin: miter; stroke-linecap: square"/>
   </g>
   <g id="text_20">
    <!-- Enterprise Linux Instances by Distribution (System Age &gt; 1 Week) -->
    <g transform="translate(64.2325 18.14175) scale(0.144 -0.144)">
     <defs>
      <path id="DejaVuSans-45" d="M 628 4666 
L 3578 4666 
L 3578 4134 
L 1259 4134 
L 1259 2753 
L 3481 2753 
L 3481 2222 
L 1259 2222 
L 1259 531 
L 3634 531 
L 3634 0 
L 628 0 
L 628 4666 
z
" transform="scale(0.015625)"/>
      <path id="DejaVuSans-72" d="M 2631 2963 
Q 2534 3019 2420 3045 
Q 2306 3072 2169 3072 
Q 1681 3072 1420 2755 
Q 1159 2438 1159 1844 
L 1159 0 
L 581 0 
L 581 3500 
L 1159 3500 
L 1159 2956 
Q 1341 3275 1631 3429 
Q 1922 3584 2338 3584 
Q 2397 3584 2469 3576 
Q 2541 3569 2628 3553 
L 2631 2963 
z
" transform="scale(0.015625)"/>
      <path id="DejaVuSans-70" d="M 1159 525 
L 1159 -1331 
L 581 -1331 
L 581 3500 
L 1159 3500 
L 1159 2969 
Q 1341 3281 1617 3432 
Q 1894 3584 2278 3584 
Q 2916 3584 3314 3078 
Q 3713 2572 3713 1747 
Q 3713 922 3314 415 
Q 2916 -91 2278 -91 
Q 1894 -91 1617 61 
Q 1341 213 1159 525 
z
M 3116 1747 
Q 3116 2381 2855 2742 
Q 2594 3103 2138 3103 
Q 1681 3103 1420 2742 
Q 1159 2381 1159 1747 
Q 1159 1113 1420 752 
Q 1681 391 2138 391 
Q 2594 391 2855 752 
Q 3116 1113 3116 1747 
z
" transform="scale(0.015625)"/>
      <path id="DejaVuSans-69" d="M 603 3500 
L 1178 3500 
L 1178 0 
L 603 0 
L 603 3500 
z
M 603 4863 
L 1178 4863 
L 1178 4134 
L 603 4134 
L 603 4863 
z
" transform="scale(0.015625)"/>
      <path id="DejaVuSans-20" transform="scale(0.015625)"/>
      <path id="DejaVuSans-4c" d="M 628 4666 
L 1259 4666 
L 1259 531 
L 3531 531 
L 3531 0 
L 628 0 
L 628 4666 
z
" transform="scale(0.015625)"/>
      <path id="DejaVuSans-75" d="M 544 1381 
L 544 3500 
L 1119 3500 
L 1119 1403 
Q 1119 906 1312 657 
Q 1506 409 1894 409 
Q 2359 409 2629 706 
Q 2900 1003 2900 1516 
L 2900 3500 
L 3475 3500 
L 3475 0 
L 2900 0 
L 2900 538 
Q 2691 219 2414 64 
Q 2138 -91 1772 -91 
Q 1169 -91 856 284 
Q 544 659 544 1381 
z
M 1991 3584 
L 1991 3584 
z
" transform="scale(0.015625)"/>
      <path id="DejaVuSans-78" d="M 3513 3500 
L 2247 1797 
L 3578 0 
L 2900 0 
L 1881 1375 
L 863 0 
L 184 0 
L 1544 1831 
L 300 3500 
L 978 3500 
L 1906 2253 
L 2834 3500 
L 3513 3500 
z
" transform="scale(0.015625)"/>
      <path id="DejaVuSans-62" d="M 3116 1747 
Q 3116 2381 2855 2742 
Q 2594 3103 2138 3103 
Q 1681 3103 1420 2742 
Q 1159 2381 1159 1747 
Q 1159 1113 1420 752 
Q 1681 391 2138 391 
Q 2594 391 2855 752 
Q 3116 1113 3116 1747 
z
M 1159 2969 
Q 1341 3281 1617 3432 
Q 1894 3584 2278 3584 
Q 2916 3584 3314 3078 
Q 3713 2572 3713 1747 
Q 3713 922 3314 415 
Q 2916 -91 2278 -91 
Q 1894 -91 1617 61 
Q 1341 213 1159 525 
L 1159 0 
L 581 0 
L 581 4863 
L 1159 4863 
L 1159 2969 
z
" transform="scale(0.015625)"/>
      <path id="DejaVuSans-79" d="M 2059 -325 
Q 1816 -950 1584 -1140 
Q 1353 -1331 966 -1331 
L 506 -1331 
L 506 -850 
L 844 -850 
Q 1081 -850 1212 -737 
Q 1344 -625 1503 -206 
L 1606 56 
L 191 3500 
L 800 3500 
L 1894 763 
L 2988 3500 
L 3597 3500 
L 2059 -325 
z
" transform="scale(0.015625)"/>
      <path id="DejaVuSans-6f" d="M 1959 3097 
Q 1497 3097 1228 2736 
Q 959 2375 959 1747 
Q 959 1119 1226 758 
Q 1494 397 1959 397 
Q 2419 397 2687 759 
Q 2956 1122 2956 1747 
Q 2956 2369 2687 2733 
Q 2419 3097 1959 3097 
z
M 1959 3584 
Q 2709 3584 3137 3096 
Q 3566 2609 3566 1747 
Q 3566 888 3137 398 
Q 2709 -91 1959 -91 
Q 1206 -91 779 398 
Q 353 888 353 1747 
Q 353 2609 779 3096 
Q 1206 3584 1959 3584 
z
" transform="scale(0.015625)"/>
      <path id="DejaVuSans-28" d="M 1984 4856 
Q 1566 4138 1362 3434 
Q 1159 2731 1159 2009 
Q 1159 1288 1364 580 
Q 1569 -128 1984 -844 
L 1484 -844 
Q 1016 -109 783 600 
Q 550 1309 550 2009 
Q 550 2706 781 3412 
Q 1013 4119 1484 4856 
L 1984 4856 
z
" transform="scale(0.015625)"/>
      <path id="DejaVuSans-53" d="M 3425 4513 
L 3425 3897 
Q 3066 4069 2747 4153 
Q 2428 4238 2131 4238 
Q 1616 4238 1336 4038 
Q 1056 3838 1056 3469 
Q 1056 3159 1242 3001 
Q 1428 2844 1947 2747 
L 2328 2669 
Q 3034 2534 3370 2195 
Q 3706 1856 3706 1288 
Q 3706 609 3251 259 
Q 2797 -91 1919 -91 
Q 1588 -91 1214 -16 
Q 841 59 441 206 
L 441 856 
Q 825 641 1194 531 
Q 1563 422 1919 422 
Q 2459 422 2753 634 
Q 3047 847 3047 1241 
Q 3047 1584 2836 1778 
Q 2625 1972 2144 2069 
L 1759 2144 
Q 1053 2284 737 2584 
Q 422 2884 422 3419 
Q 422 4038 858 4394 
Q 1294 4750 2059 4750 
Q 2388 4750 2728 4690 
Q 3069 4631 3425 4513 
z
" transform="scale(0.015625)"/>
      <path id="DejaVuSans-6d" d="M 3328 2828 
Q 3544 3216 3844 3400 
Q 4144 3584 4550 3584 
Q 5097 3584 5394 3201 
Q 5691 2819 5691 2113 
L 5691 0 
L 5113 0 
L 5113 2094 
Q 5113 2597 4934 2840 
Q 4756 3084 4391 3084 
Q 3944 3084 3684 2787 
Q 3425 2491 3425 1978 
L 3425 0 
L 2847 0 
L 2847 2094 
Q 2847 2600 2669 2842 
Q 2491 3084 2119 3084 
Q 1678 3084 1418 2786 
Q 1159 2488 1159 1978 
L 1159 0 
L 581 0 
L 581 3500 
L 1159 3500 
L 1159 2956 
Q 1356 3278 1631 3431 
Q 1906 3584 2284 3584 
Q 2666 3584 2933 3390 
Q 3200 3197 3328 2828 
z
" transform="scale(0.015625)"/>
      <path id="DejaVuSans-41" d="M 2188 4044 
L 1331 1722 
L 3047 1722 
L 2188 4044 
z
M 1831 4666 
L 2547 4666 
L 4325 0 
L 3669 0 
L 3244 1197 
L 1141 1197 
L 716 0 
L 50 0 
L 1831 4666 
z
" transform="scale(0.015625)"/>
      <path id="DejaVuSans-67" d="M 2906 1791 
Q 2906 2416 2648 2759 
Q 2391 3103 1925 3103 
Q 1463 3103 1205 2759 
Q 947 2416 947 1791 
Q 947 1169 1205 825 
Q 1463 481 1925 481 
Q 2391 481 2648 825 
Q 2906 1169 2906 1791 
z
M 3481 434 
Q 3481 -459 3084 -895 
Q 2688 -1331 1869 -1331 
Q 1566 -1331 1297 -1286 
Q 1028 -1241 775 -1147 
L 775 -588 
Q 1028 -725 1275 -790 
Q 1522 -856 1778 -856 
Q 2344 -856 2625 -561 
Q 2906 -266 2906 331 
L 2906 616 
Q 2728 306 2450 153 
Q 2172 0 1784 0 
Q 1141 0 747 490 
Q 353 981 353 1791 
Q 353 2603 747 3093 
Q 1141 3584 1784 3584 
Q 2172 3584 2450 3431 
Q 2728 3278 2906 2969 
L 2906 3500 
L 3481 3500 
L 3481 434 
z
" transform="scale(0.015625)"/>
      <path id="DejaVuSans-3e" d="M 678 3150 
L 678 3719 
L 4684 2266 
L 4684 1747 
L 678 294 
L 678 863 
L 3897 2003 
L 678 3150 
z
" transform="scale(0.015625)"/>
      <path id="DejaVuSans-57" d="M 213 4666 
L 850 4666 
L 1831 722 
L 2809 4666 
L 3519 4666 
L 4500 722 
L 5478 4666 
L 6119 4666 
L 4947 0 
L 4153 0 
L 3169 4050 
L 2175 0 
L 1381 0 
L 213 4666 
z
" transform="scale(0.015625)"/>
      <path id="DejaVuSans-29" d="M 513 4856 
L 1013 4856 
Q 1481 4119 1714 3412 
Q 1947 2706 1947 2009 
Q 1947 1309 1714 600 
Q 1481 -109 1013 -844 
L 513 -844 
Q 928 -128 1133 580 
Q 1338 1288 1338 2009 
Q 1338 2731 1133 3434 
Q 928 4138 513 4856 
z
" transform="scale(0.015625)"/>
     </defs>
     <use xlink:href="#DejaVuSans-45"/>
     <use xlink:href="#DejaVuSans-6e" x="63.183594"/>
     <use xlink:href="#DejaVuSans-74" x="126.5625"/>
     <use xlink:href="#DejaVuSans-65" x="165.771484"/>
     <use xlink:href="#DejaVuSans-72" x="227.294922"/>
     <use xlink:href="#DejaVuSans-70" x="268.408203"/>
     <use xlink:href="#DejaVuSans-72" x="331.884766"/>
     <use xlink:href="#DejaVuSans-69" x="372.998047"/>
     <use xlink:href="#DejaVuSans-73" x="400.78125"/>
     <use xlink:href="#DejaVuSans-65" x="452.880859"/>
     <use xlink:href="#DejaVuSans-20" x="514.404297"/>
     <use xlink:href="#DejaVuSans-4c" x="546.191406"/>
     <use xlink:href="#DejaVuSans-69" x="601.904297"/>
     <use xlink:href="#DejaVuSans-6e" x="629.6875"/>
     <use xlink:href="#DejaVuSans-75" x="693.066406"/>
     <use xlink:href="#DejaVuSans-78" x="756.445312"/>
     <use xlink:href="#DejaVuSans-20" x="815.625"/>
     <use xlink:href="#DejaVuSans-49" x="847.412109"/>
     <use xlink:href="#DejaVuSans-6e" x="876.904297"/>
     <use xlink:href="#DejaVuSans-73" x="940.283203"/>
     <use xlink:href="#DejaVuSans-74" x="992.382812"/>
     <use xlink:href="#DejaVuSans-61" x="1031.591797"/>
     <use xlink:href="#DejaVuSans-6e" x="1092.871094"/>
     <use xlink:href="#DejaVuSans-63" x="1156.25"/>
     <use xlink:href="#DejaVuSans-65" x="1211.230469"/>
     <use xlink:href="#DejaVuSans-73" x="1272.753906"/>
     <use xlink:href="#DejaVuSans-20" x="1324.853516"/>
     <use xlink:href="#DejaVuSans-62" x="1356.640625"/>
     <use xlink:href="#DejaVuSans-79" x="1420.117188"/>
     <use xlink:href="#DejaVuSans-20" x="1479.296875"/>
     <use xlink:href="#DejaVuSans-44" x="1511.083984"/>
     <use xlink:href="#DejaVuSans-69" x="1588.085938"/>
     <use xlink:href="#DejaVuSans-73" x="1615.869141"/>
     <use xlink:href="#DejaVuSans-74" x="1667.96875"/>
     <use xlink:href="#DejaVuSans-72" x="1707.177734"/>
     <use xlink:href="#DejaVuSans-69" x="1748.291016"/>
     <use xlink:href="#DejaVuSans-62" x="1776.074219"/>
     <use xlink:href="#DejaVuSans-75" x="1839.550781"/>
     <use xlink:href="#DejaVuSans-74" x="1902.929688"/>
     <use xlink:href="#DejaVuSans-69" x="1942.138672"/>
     <use xlink:href="#DejaVuSans-6f" x="1969.921875"/>
     <use xlink:href="#DejaVuSans-6e" x="2031.103516"/>
     <use xlink:href="#DejaVuSans-20" x="2094.482422"/>
     <use xlink:href="#DejaVuSans-28" x="2126.269531"/>
     <use xlink:href="#DejaVuSans-53" x="2165.283203"/>
     <use xlink:href="#DejaVuSans-79" x="2228.759766"/>
     <use xlink:href="#DejaVuSans-73" x="2287.939453"/>
     <use xlink:href="#DejaVuSans-74" x="2340.039062"/>
     <use xlink:href="#DejaVuSans-65" x="2379.248047"/>
     <use xlink:href="#DejaVuSans-6d" x="2440.771484"/>
     <use xlink:href="#DejaVuSans-20" x="2538.183594"/>
     <use xlink:href="#DejaVuSans-41" x="2569.970703"/>
     <use xlink:href="#DejaVuSans-67" x="2638.378906"/>
     <use xlink:href="#DejaVuSans-65" x="2701.855469"/>
     <use xlink:href="#DejaVuSans-20" x="2763.378906"/>
     <use xlink:href="#DejaVuSans-3e" x="2795.166016"/>
     <use xlink:href="#DejaVuSans-20" x="2878.955078"/>
     <use xlink:href="#DejaVuSans-31" x="2910.742188"/>
     <use xlink:href="#DejaVuSans-20" x="2974.365234"/>
     <use xlink:href="#DejaVuSans-57" x="3006.152344"/>
     <use xlink:href="#DejaVuSans-65" x="3099.154297"/>
     <use xlink:href="#DejaVuSans-65" x="3160.677734"/>
     <use xlink:href="#DejaVuSans-6b" x="3222.201172"/>
     <use xlink:href="#DejaVuSans-29" x="3280.111328"/>
    </g>
   </g>
   <g id="text_21">
    <!-- 2026-05-28 14:55 UTC -->
    <g transform="translate(804.1945 18.14175) scale(0.144 -0.144)">
     <defs>
      <path id="DejaVuSans-3a" d="M 750 794 
L 1409 794 
L 1409 0 
L 750 0 
L 750 794 
z
M 750 3309 
L 1409 3309 
L 1409 2516 
L 750 2516 
L 750 3309 
z
" transform="scale(0.015625)"/>
      <path id="DejaVuSans-55" d="M 556 4666 
L 1191 4666 
L 1191 1831 
Q 1191 1081 1462 751 
Q 1734 422 2344 422 
Q 2950 422 3222 751 
Q 3494 1081 3494 1831 
L 3494 4666 
L 4128 4666 
L 4128 1753 
Q 4128 841 3676 375 
Q 3225 -91 2344 -91 
Q 1459 -91 1007 375 
Q 556 841 556 1753 
L 556 4666 
z
" transform="scale(0.015625)"/>
      <path id="DejaVuSans-54" d="M -19 4666 
L 3928 4666 
L 3928 4134 
L 2272 4134 
L 2272 0 
L 1638 0 
L 1638 4134 
L -19 4134 
L -19 4666 
z
" transform="scale(0.015625)"/>
      <path id="DejaVuSans-43" d="M 4122 4306 
L 4122 3641 
Q 3803 3938 3442 4084 
Q 3081 4231 2675 4231 
Q 1875 4231 1450 3742 
Q 1025 3253 1025 2328 
Q 1025 1406 1450 917 
Q 1875 428 2675 428 
Q 3081 428 3442 575 
Q 3803 722 4122 1019 
L 4122 359 
Q 3791 134 3420 21 
Q 3050 -91 2638 -91 
Q 1578 -91 968 557 
Q 359 1206 359 2328 
Q 359 3453 968 4101 
Q 1578 4750 2638 4750 
Q 3056 4750 3426 4639 
Q 3797 4528 4122 4306 
z
" transform="scale(0.015625)"/>
     </defs>
     <use xlink:href="#DejaVuSans-32"/>
     <use xlink:href="#DejaVuSans-30" x="63.623047"/>
     <use xlink:href="#DejaVuSans-32" x="127.246094"/>
     <use xlink:href="#DejaVuSans-36" x="190.869141"/>
     <use xlink:href="#DejaVuSans-2d" x="254.492188"/>
     <use xlink:href="#DejaVuSans-30" x="290.576172"/>
     <use xlink:href="#DejaVuSans-35" x="354.199219"/>
     <use xlink:href="#DejaVuSans-2d" x="417.822266"/>
     <use xlink:href="#DejaVuSans-32" x="453.90625"/>
     <use xlink:href="#DejaVuSans-38" x="517.529297"/>
     <use xlink:href="#DejaVuSans-20" x="581.152344"/>
     <use xlink:href="#DejaVuSans-31" x="612.939453"/>
     <use xlink:href="#DejaVuSans-34" x="676.5625"/>
     <use xlink:href="#DejaVuSans-3a" x="740.185547"/>
     <use xlink:href="#DejaVuSans-35" x="773.876953"/>
     <use xlink:href="#DejaVuSans-35" x="837.5"/>
     <use xlink:href="#DejaVuSans-20" x="901.123047"/>
     <use xlink:href="#DejaVuSans-55" x="932.910156"/>
     <use xlink:href="#DejaVuSans-54" x="1006.103516"/>
     <use xlink:href="#DejaVuSans-43" x="1061.3125"/>
    </g>
   </g>
   <g id="legend_1">
    <g id="patch_7">
     <path d="M 71.2325 134.888625 
L 180.20125 134.888625 
Q 182.20125 134.888625 182.20125 132.888625 
L 182.20125 31.14175 
Q 182.20125 29.14175 180.20125 29.14175 
L 71.2325 29.14175 
Q 69.2325 29.14175 69.2325 31.14175 
L 69.2325 132.888625 
Q 69.2325 134.888625 71.2325 134.888625 
z
" style="fill: #e5e5e5; opacity: 0.8; stroke: #cccccc; stroke-width: 0.5; stroke-linejoin: miter"/>
    </g>
    <g id="text_22">
     <!-- Distribution -->
     <g transform="translate(96.548125 40.740188) scale(0.1 -0.1)">
      <use xlink:href="#DejaVuSans-44"/>
      <use xlink:href="#DejaVuSans-69" x="77.001953"/>
      <use xlink:href="#DejaVuSans-73" x="104.785156"/>
      <use xlink:href="#DejaVuSans-74" x="156.884766"/>
      <use xlink:href="#DejaVuSans-72" x="196.09375"/>
      <use xlink:href="#DejaVuSans-69" x="237.207031"/>
      <use xlink:href="#DejaVuSans-62" x="264.990234"/>
      <use xlink:href="#DejaVuSans-75" x="328.466797"/>
      <use xlink:href="#DejaVuSans-74" x="391.845703"/>
      <use xlink:href="#DejaVuSans-69" x="431.054688"/>
      <use xlink:href="#DejaVuSans-6f" x="458.837891"/>
      <use xlink:href="#DejaVuSans-6e" x="520.019531"/>
     </g>
    </g>
    <g id="line2d_47">
     <path d="M 73.2325 51.918313 
L 83.2325 51.918313 
L 93.2325 51.918313 
" style="fill: none; stroke: #4ac1fa; stroke-width: 1.5; stroke-linecap: square"/>
    </g>
    <g id="text_23">
     <!-- AlmaLinux -->
     <g transform="translate(101.2325 55.418313) scale(0.1 -0.1)">
      <defs>
       <path id="DejaVuSans-6c" d="M 603 4863 
L 1178 4863 
L 1178 0 
L 603 0 
L 603 4863 
z
" transform="scale(0.015625)"/>
      </defs>
      <use xlink:href="#DejaVuSans-41"/>
      <use xlink:href="#DejaVuSans-6c" x="68.408203"/>
      <use xlink:href="#DejaVuSans-6d" x="96.191406"/>
      <use xlink:href="#DejaVuSans-61" x="193.603516"/>
      <use xlink:href="#DejaVuSans-4c" x="254.882812"/>
      <use xlink:href="#DejaVuSans-69" x="310.595703"/>
      <use xlink:href="#DejaVuSans-6e" x="338.378906"/>
      <use xlink:href="#DejaVuSans-75" x="401.757812"/>
      <use xlink:href="#DejaVuSans-78" x="465.136719"/>
     </g>
    </g>
    <g id="line2d_48">
     <path d="M 73.2325 66.596438 
L 83.2325 66.596438 
L 93.2325 66.596438 
" style="fill: none; stroke: #e9a942; stroke-width: 1.5; stroke-linecap: square"/>
    </g>
    <g id="text_24">
     <!-- CentOS Legacy -->
     <g transform="translate(101.2325 70.096438) scale(0.1 -0.1)">
      <defs>
       <path id="DejaVuSans-4f" d="M 2522 4238 
Q 1834 4238 1429 3725 
Q 1025 3213 1025 2328 
Q 1025 1447 1429 934 
Q 1834 422 2522 422 
Q 3209 422 3611 934 
Q 4013 1447 4013 2328 
Q 4013 3213 3611 3725 
Q 3209 4238 2522 4238 
z
M 2522 4750 
Q 3503 4750 4090 4092 
Q 4678 3434 4678 2328 
Q 4678 1225 4090 567 
Q 3503 -91 2522 -91 
Q 1538 -91 948 565 
Q 359 1222 359 2328 
Q 359 3434 948 4092 
Q 1538 4750 2522 4750 
z
" transform="scale(0.015625)"/>
      </defs>
      <use xlink:href="#DejaVuSans-43"/>
      <use xlink:href="#DejaVuSans-65" x="69.824219"/>
      <use xlink:href="#DejaVuSans-6e" x="131.347656"/>
      <use xlink:href="#DejaVuSans-74" x="194.726562"/>
      <use xlink:href="#DejaVuSans-4f" x="233.935547"/>
      <use xlink:href="#DejaVuSans-53" x="312.646484"/>
      <use xlink:href="#DejaVuSans-20" x="376.123047"/>
      <use xlink:href="#DejaVuSans-4c" x="407.910156"/>
      <use xlink:href="#DejaVuSans-65" x="461.873047"/>
      <use xlink:href="#DejaVuSans-67" x="523.396484"/>
      <use xlink:href="#DejaVuSans-61" x="586.873047"/>
      <use xlink:href="#DejaVuSans-63" x="648.152344"/>
      <use xlink:href="#DejaVuSans-79" x="703.132812"/>
     </g>
    </g>
    <g id="line2d_49">
     <path d="M 73.2325 81.274563 
L 83.2325 81.274563 
L 93.2325 81.274563 
" style="fill: none; stroke: #9a5689; stroke-width: 1.5; stroke-linecap: square"/>
    </g>
    <g id="text_25">
     <!-- CentOS Stream -->
     <g transform="translate(101.2325 84.774563) scale(0.1 -0.1)">
      <use xlink:href="#DejaVuSans-43"/>
      <use xlink:href="#DejaVuSans-65" x="69.824219"/>
      <use xlink:href="#DejaVuSans-6e" x="131.347656"/>
      <use xlink:href="#DejaVuSans-74" x="194.726562"/>
      <use xlink:href="#DejaVuSans-4f" x="233.935547"/>
      <use xlink:href="#DejaVuSans-53" x="312.646484"/>
      <use xlink:href="#DejaVuSans-20" x="376.123047"/>
      <use xlink:href="#DejaVuSans-53" x="407.910156"/>
      <use xlink:href="#DejaVuSans-74" x="471.386719"/>
      <use xlink:href="#DejaVuSans-72" x="510.595703"/>
      <use xlink:href="#DejaVuSans-65" x="549.458984"/>
      <use xlink:href="#DejaVuSans-61" x="610.982422"/>
      <use xlink:href="#DejaVuSans-6d" x="672.261719"/>
     </g>
    </g>
    <g id="line2d_50">
     <path d="M 73.2325 95.952688 
L 83.2325 95.952688 
L 93.2325 95.952688 
" style="fill: none; stroke: #be503b; stroke-width: 1.5; stroke-linecap: square"/>
    </g>
    <g id="text_26">
     <!-- Oracle -->
     <g transform="translate(101.2325 99.452688) scale(0.1 -0.1)">
      <use xlink:href="#DejaVuSans-4f"/>
      <use xlink:href="#DejaVuSans-72" x="78.710938"/>
      <use xlink:href="#DejaVuSans-61" x="119.824219"/>
      <use xlink:href="#DejaVuSans-63" x="181.103516"/>
      <use xlink:href="#DejaVuSans-6c" x="236.083984"/>
      <use xlink:href="#DejaVuSans-65" x="263.867188"/>
     </g>
    </g>
    <g id="line2d_51">
     <path d="M 73.2325 110.630813 
L 83.2325 110.630813 
L 93.2325 110.630813 
" style="fill: none; stroke: #e2321d; stroke-width: 1.5; stroke-linecap: square"/>
    </g>
    <g id="text_27">
     <!-- RHEL -->
     <g transform="translate(101.2325 114.130813) scale(0.1 -0.1)">
      <defs>
       <path id="DejaVuSans-52" d="M 2841 2188 
Q 3044 2119 3236 1894 
Q 3428 1669 3622 1275 
L 4263 0 
L 3584 0 
L 2988 1197 
Q 2756 1666 2539 1819 
Q 2322 1972 1947 1972 
L 1259 1972 
L 1259 0 
L 628 0 
L 628 4666 
L 2053 4666 
Q 2853 4666 3247 4331 
Q 3641 3997 3641 3322 
Q 3641 2881 3436 2590 
Q 3231 2300 2841 2188 
z
M 1259 4147 
L 1259 2491 
L 2053 2491 
Q 2509 2491 2742 2702 
Q 2975 2913 2975 3322 
Q 2975 3731 2742 3939 
Q 2509 4147 2053 4147 
L 1259 4147 
z
" transform="scale(0.015625)"/>
       <path id="DejaVuSans-48" d="M 628 4666 
L 1259 4666 
L 1259 2753 
L 3553 2753 
L 3553 4666 
L 4184 4666 
L 4184 0 
L 3553 0 
L 3553 2222 
L 1259 2222 
L 1259 0 
L 628 0 
L 628 4666 
z
" transform="scale(0.015625)"/>
      </defs>
      <use xlink:href="#DejaVuSans-52"/>
      <use xlink:href="#DejaVuSans-48" x="69.482422"/>
      <use xlink:href="#DejaVuSans-45" x="144.677734"/>
      <use xlink:href="#DejaVuSans-4c" x="207.861328"/>
     </g>
    </g>
    <g id="line2d_52">
     <path d="M 73.2325 125.308938 
L 83.2325 125.308938 
L 93.2325 125.308938 
" style="fill: none; stroke: #48b585; stroke-width: 6; stroke-linecap: square"/>
    </g>
    <g id="text_28">
     <!-- Rocky Linux -->
     <g transform="translate(101.2325 128.808938) scale(0.1 -0.1)">
      <use xlink:href="#DejaVuSans-52"/>
      <use xlink:href="#DejaVuSans-6f" x="64.982422"/>
      <use xlink:href="#DejaVuSans-63" x="126.164062"/>
      <use xlink:href="#DejaVuSans-6b" x="181.144531"/>
      <use xlink:href="#DejaVuSans-79" x="235.429688"/>
      <use xlink:href="#DejaVuSans-20" x="294.609375"/>
      <use xlink:href="#DejaVuSans-4c" x="326.396484"/>
      <use xlink:href="#DejaVuSans-69" x="382.109375"/>
      <use xlink:href="#DejaVuSans-6e" x="409.892578"/>
      <use xlink:href="#DejaVuSans-75" x="473.271484"/>
      <use xlink:href="#DejaVuSans-78" x="536.650391"/>
     </g>
    </g>
   </g>
  </g>
 </g>
 <defs>
  <clipPath id="p219158ea79">
   <rect x="64.2325" y="24.14175" width="902.844" height="554.4"/>
  </clipPath>
 </defs>
</svg>
