<?xml version="1.0" encoding="utf-8" standalone="no"?>
<!DOCTYPE svg PUBLIC "-//W3C//DTD SVG 1.1//EN"
  "http://www.w3.org/Graphics/SVG/1.1/DTD/svg11.dtd">
<svg xmlns:xlink="http://www.w3.org/1999/xlink" width="978.918683pt" height="644.743878pt" viewBox="0 0 978.918683 644.743878" xmlns="http://www.w3.org/2000/svg" version="1.1">
 <metadata>
  <rdf:RDF xmlns:dc="http://purl.org/dc/elements/1.1/" xmlns:cc="http://creativecommons.org/ns#" xmlns:rdf="http://www.w3.org/1999/02/22-rdf-syntax-ns#">
   <cc:Work>
    <dc:type rdf:resource="http://purl.org/dc/dcmitype/StillImage"/>
    <dc:date>2026-04-02T12:39:44.334058</dc:date>
    <dc:format>image/svg+xml</dc:format>
    <dc:creator>
     <cc:Agent>
      <dc:title>Matplotlib v3.6.3, https://matplotlib.org/</dc:title>
     </cc:Agent>
    </dc:creator>
   </cc:Work>
  </rdf:RDF>
 </metadata>
 <defs>
  <style type="text/css">*{stroke-linejoin: round; stroke-linecap: butt}</style>
 </defs>
 <g id="figure_1">
  <g id="patch_1">
   <path d="M 0 644.743878 
L 978.918683 644.743878 
L 978.918683 0 
L 0 0 
z
" style="fill: #ffffff"/>
  </g>
  <g id="axes_1">
   <g id="patch_2">
    <path d="M 64.2325 578.54175 
L 967.0765 578.54175 
L 967.0765 24.14175 
L 64.2325 24.14175 
z
" style="fill: #e5e5e5"/>
   </g>
   <g id="matplotlib.axis_1">
    <g id="xtick_1">
     <g id="line2d_1">
      <path d="M 100.215413 578.54175 
L 100.215413 24.14175 
" clip-path="url(#p2e754b5ff6)" style="fill: none; stroke: #ffffff; stroke-width: 0.8; stroke-linecap: square"/>
     </g>
     <g id="line2d_2">
      <defs>
       <path id="mab36e683ce" d="M 0 0 
L 0 3.5 
" style="stroke: #555555; stroke-width: 0.8"/>
      </defs>
      <g>
       <use xlink:href="#mab36e683ce" x="100.215413" y="578.54175" style="fill: #555555; stroke: #555555; stroke-width: 0.8"/>
      </g>
     </g>
     <g id="text_1">
      <!-- 2021-02 -->
      <g style="fill: #555555" transform="translate(87.394131 620.459567) rotate(-45) scale(0.1 -0.1)">
       <defs>
        <path id="DejaVuSans-32" d="M 1228 531 
L 3431 531 
L 3431 0 
L 469 0 
L 469 531 
Q 828 903 1448 1529 
Q 2069 2156 2228 2338 
Q 2531 2678 2651 2914 
Q 2772 3150 2772 3378 
Q 2772 3750 2511 3984 
Q 2250 4219 1831 4219 
Q 1534 4219 1204 4116 
Q 875 4013 500 3803 
L 500 4441 
Q 881 4594 1212 4672 
Q 1544 4750 1819 4750 
Q 2544 4750 2975 4387 
Q 3406 4025 3406 3419 
Q 3406 3131 3298 2873 
Q 3191 2616 2906 2266 
Q 2828 2175 2409 1742 
Q 1991 1309 1228 531 
z
" transform="scale(0.015625)"/>
        <path id="DejaVuSans-30" d="M 2034 4250 
Q 1547 4250 1301 3770 
Q 1056 3291 1056 2328 
Q 1056 1369 1301 889 
Q 1547 409 2034 409 
Q 2525 409 2770 889 
Q 3016 1369 3016 2328 
Q 3016 3291 2770 3770 
Q 2525 4250 2034 4250 
z
M 2034 4750 
Q 2819 4750 3233 4129 
Q 3647 3509 3647 2328 
Q 3647 1150 3233 529 
Q 2819 -91 2034 -91 
Q 1250 -91 836 529 
Q 422 1150 422 2328 
Q 422 3509 836 4129 
Q 1250 4750 2034 4750 
z
" transform="scale(0.015625)"/>
        <path id="DejaVuSans-31" d="M 794 531 
L 1825 531 
L 1825 4091 
L 703 3866 
L 703 4441 
L 1819 4666 
L 2450 4666 
L 2450 531 
L 3481 531 
L 3481 0 
L 794 0 
L 794 531 
z
" transform="scale(0.015625)"/>
        <path id="DejaVuSans-2d" d="M 313 2009 
L 1997 2009 
L 1997 1497 
L 313 1497 
L 313 2009 
z
" transform="scale(0.015625)"/>
       </defs>
       <use xlink:href="#DejaVuSans-32"/>
       <use xlink:href="#DejaVuSans-30" x="63.623047"/>
       <use xlink:href="#DejaVuSans-32" x="127.246094"/>
       <use xlink:href="#DejaVuSans-31" x="190.869141"/>
       <use xlink:href="#DejaVuSans-2d" x="254.492188"/>
       <use xlink:href="#DejaVuSans-30" x="290.576172"/>
       <use xlink:href="#DejaVuSans-32" x="354.199219"/>
      </g>
     </g>
    </g>
    <g id="xtick_2">
     <g id="line2d_3">
      <path d="M 141.806053 578.54175 
L 141.806053 24.14175 
" clip-path="url(#p2e754b5ff6)" style="fill: none; stroke: #ffffff; stroke-width: 0.8; stroke-linecap: square"/>
     </g>
     <g id="line2d_4">
      <g>
       <use xlink:href="#mab36e683ce" x="141.806053" y="578.54175" style="fill: #555555; stroke: #555555; stroke-width: 0.8"/>
      </g>
     </g>
     <g id="text_2">
      <!-- 2021-05 -->
      <g style="fill: #555555" transform="translate(128.984771 620.459567) rotate(-45) scale(0.1 -0.1)">
       <defs>
        <path id="DejaVuSans-35" d="M 691 4666 
L 3169 4666 
L 3169 4134 
L 1269 4134 
L 1269 2991 
Q 1406 3038 1543 3061 
Q 1681 3084 1819 3084 
Q 2600 3084 3056 2656 
Q 3513 2228 3513 1497 
Q 3513 744 3044 326 
Q 2575 -91 1722 -91 
Q 1428 -91 1123 -41 
Q 819 9 494 109 
L 494 744 
Q 775 591 1075 516 
Q 1375 441 1709 441 
Q 2250 441 2565 725 
Q 2881 1009 2881 1497 
Q 2881 1984 2565 2268 
Q 2250 2553 1709 2553 
Q 1456 2553 1204 2497 
Q 953 2441 691 2322 
L 691 4666 
z
" transform="scale(0.015625)"/>
       </defs>
       <use xlink:href="#DejaVuSans-32"/>
       <use xlink:href="#DejaVuSans-30" x="63.623047"/>
       <use xlink:href="#DejaVuSans-32" x="127.246094"/>
       <use xlink:href="#DejaVuSans-31" x="190.869141"/>
       <use xlink:href="#DejaVuSans-2d" x="254.492188"/>
       <use xlink:href="#DejaVuSans-30" x="290.576172"/>
       <use xlink:href="#DejaVuSans-35" x="354.199219"/>
      </g>
     </g>
    </g>
    <g id="xtick_3">
     <g id="line2d_5">
      <path d="M 184.798624 578.54175 
L 184.798624 24.14175 
" clip-path="url(#p2e754b5ff6)" style="fill: none; stroke: #ffffff; stroke-width: 0.8; stroke-linecap: square"/>
     </g>
     <g id="line2d_6">
      <g>
       <use xlink:href="#mab36e683ce" x="184.798624" y="578.54175" style="fill: #555555; stroke: #555555; stroke-width: 0.8"/>
      </g>
     </g>
     <g id="text_3">
      <!-- 2021-08 -->
      <g style="fill: #555555" transform="translate(171.977342 620.459567) rotate(-45) scale(0.1 -0.1)">
       <defs>
        <path id="DejaVuSans-38" d="M 2034 2216 
Q 1584 2216 1326 1975 
Q 1069 1734 1069 1313 
Q 1069 891 1326 650 
Q 1584 409 2034 409 
Q 2484 409 2743 651 
Q 3003 894 3003 1313 
Q 3003 1734 2745 1975 
Q 2488 2216 2034 2216 
z
M 1403 2484 
Q 997 2584 770 2862 
Q 544 3141 544 3541 
Q 544 4100 942 4425 
Q 1341 4750 2034 4750 
Q 2731 4750 3128 4425 
Q 3525 4100 3525 3541 
Q 3525 3141 3298 2862 
Q 3072 2584 2669 2484 
Q 3125 2378 3379 2068 
Q 3634 1759 3634 1313 
Q 3634 634 3220 271 
Q 2806 -91 2034 -91 
Q 1263 -91 848 271 
Q 434 634 434 1313 
Q 434 1759 690 2068 
Q 947 2378 1403 2484 
z
M 1172 3481 
Q 1172 3119 1398 2916 
Q 1625 2713 2034 2713 
Q 2441 2713 2670 2916 
Q 2900 3119 2900 3481 
Q 2900 3844 2670 4047 
Q 2441 4250 2034 4250 
Q 1625 4250 1398 4047 
Q 1172 3844 1172 3481 
z
" transform="scale(0.015625)"/>
       </defs>
       <use xlink:href="#DejaVuSans-32"/>
       <use xlink:href="#DejaVuSans-30" x="63.623047"/>
       <use xlink:href="#DejaVuSans-32" x="127.246094"/>
       <use xlink:href="#DejaVuSans-31" x="190.869141"/>
       <use xlink:href="#DejaVuSans-2d" x="254.492188"/>
       <use xlink:href="#DejaVuSans-30" x="290.576172"/>
       <use xlink:href="#DejaVuSans-38" x="354.199219"/>
      </g>
     </g>
    </g>
    <g id="xtick_4">
     <g id="line2d_7">
      <path d="M 227.791196 578.54175 
L 227.791196 24.14175 
" clip-path="url(#p2e754b5ff6)" style="fill: none; stroke: #ffffff; stroke-width: 0.8; stroke-linecap: square"/>
     </g>
     <g id="line2d_8">
      <g>
       <use xlink:href="#mab36e683ce" x="227.791196" y="578.54175" style="fill: #555555; stroke: #555555; stroke-width: 0.8"/>
      </g>
     </g>
     <g id="text_4">
      <!-- 2021-11 -->
      <g style="fill: #555555" transform="translate(214.969913 620.459567) rotate(-45) scale(0.1 -0.1)">
       <use xlink:href="#DejaVuSans-32"/>
       <use xlink:href="#DejaVuSans-30" x="63.623047"/>
       <use xlink:href="#DejaVuSans-32" x="127.246094"/>
       <use xlink:href="#DejaVuSans-31" x="190.869141"/>
       <use xlink:href="#DejaVuSans-2d" x="254.492188"/>
       <use xlink:href="#DejaVuSans-31" x="290.576172"/>
       <use xlink:href="#DejaVuSans-31" x="354.199219"/>
      </g>
     </g>
    </g>
    <g id="xtick_5">
     <g id="line2d_9">
      <path d="M 270.783767 578.54175 
L 270.783767 24.14175 
" clip-path="url(#p2e754b5ff6)" style="fill: none; stroke: #ffffff; stroke-width: 0.8; stroke-linecap: square"/>
     </g>
     <g id="line2d_10">
      <g>
       <use xlink:href="#mab36e683ce" x="270.783767" y="578.54175" style="fill: #555555; stroke: #555555; stroke-width: 0.8"/>
      </g>
     </g>
     <g id="text_5">
      <!-- 2022-02 -->
      <g style="fill: #555555" transform="translate(257.962485 620.459567) rotate(-45) scale(0.1 -0.1)">
       <use xlink:href="#DejaVuSans-32"/>
       <use xlink:href="#DejaVuSans-30" x="63.623047"/>
       <use xlink:href="#DejaVuSans-32" x="127.246094"/>
       <use xlink:href="#DejaVuSans-32" x="190.869141"/>
       <use xlink:href="#DejaVuSans-2d" x="254.492188"/>
       <use xlink:href="#DejaVuSans-30" x="290.576172"/>
       <use xlink:href="#DejaVuSans-32" x="354.199219"/>
      </g>
     </g>
    </g>
    <g id="xtick_6">
     <g id="line2d_11">
      <path d="M 312.374407 578.54175 
L 312.374407 24.14175 
" clip-path="url(#p2e754b5ff6)" style="fill: none; stroke: #ffffff; stroke-width: 0.8; stroke-linecap: square"/>
     </g>
     <g id="line2d_12">
      <g>
       <use xlink:href="#mab36e683ce" x="312.374407" y="578.54175" style="fill: #555555; stroke: #555555; stroke-width: 0.8"/>
      </g>
     </g>
     <g id="text_6">
      <!-- 2022-05 -->
      <g style="fill: #555555" transform="translate(299.553125 620.459567) rotate(-45) scale(0.1 -0.1)">
       <use xlink:href="#DejaVuSans-32"/>
       <use xlink:href="#DejaVuSans-30" x="63.623047"/>
       <use xlink:href="#DejaVuSans-32" x="127.246094"/>
       <use xlink:href="#DejaVuSans-32" x="190.869141"/>
       <use xlink:href="#DejaVuSans-2d" x="254.492188"/>
       <use xlink:href="#DejaVuSans-30" x="290.576172"/>
       <use xlink:href="#DejaVuSans-35" x="354.199219"/>
      </g>
     </g>
    </g>
    <g id="xtick_7">
     <g id="line2d_13">
      <path d="M 355.366978 578.54175 
L 355.366978 24.14175 
" clip-path="url(#p2e754b5ff6)" style="fill: none; stroke: #ffffff; stroke-width: 0.8; stroke-linecap: square"/>
     </g>
     <g id="line2d_14">
      <g>
       <use xlink:href="#mab36e683ce" x="355.366978" y="578.54175" style="fill: #555555; stroke: #555555; stroke-width: 0.8"/>
      </g>
     </g>
     <g id="text_7">
      <!-- 2022-08 -->
      <g style="fill: #555555" transform="translate(342.545696 620.459567) rotate(-45) scale(0.1 -0.1)">
       <use xlink:href="#DejaVuSans-32"/>
       <use xlink:href="#DejaVuSans-30" x="63.623047"/>
       <use xlink:href="#DejaVuSans-32" x="127.246094"/>
       <use xlink:href="#DejaVuSans-32" x="190.869141"/>
       <use xlink:href="#DejaVuSans-2d" x="254.492188"/>
       <use xlink:href="#DejaVuSans-30" x="290.576172"/>
       <use xlink:href="#DejaVuSans-38" x="354.199219"/>
      </g>
     </g>
    </g>
    <g id="xtick_8">
     <g id="line2d_15">
      <path d="M 398.35955 578.54175 
L 398.35955 24.14175 
" clip-path="url(#p2e754b5ff6)" style="fill: none; stroke: #ffffff; stroke-width: 0.8; stroke-linecap: square"/>
     </g>
     <g id="line2d_16">
      <g>
       <use xlink:href="#mab36e683ce" x="398.35955" y="578.54175" style="fill: #555555; stroke: #555555; stroke-width: 0.8"/>
      </g>
     </g>
     <g id="text_8">
      <!-- 2022-11 -->
      <g style="fill: #555555" transform="translate(385.538267 620.459567) rotate(-45) scale(0.1 -0.1)">
       <use xlink:href="#DejaVuSans-32"/>
       <use xlink:href="#DejaVuSans-30" x="63.623047"/>
       <use xlink:href="#DejaVuSans-32" x="127.246094"/>
       <use xlink:href="#DejaVuSans-32" x="190.869141"/>
       <use xlink:href="#DejaVuSans-2d" x="254.492188"/>
       <use xlink:href="#DejaVuSans-31" x="290.576172"/>
       <use xlink:href="#DejaVuSans-31" x="354.199219"/>
      </g>
     </g>
    </g>
    <g id="xtick_9">
     <g id="line2d_17">
      <path d="M 441.352121 578.54175 
L 441.352121 24.14175 
" clip-path="url(#p2e754b5ff6)" style="fill: none; stroke: #ffffff; stroke-width: 0.8; stroke-linecap: square"/>
     </g>
     <g id="line2d_18">
      <g>
       <use xlink:href="#mab36e683ce" x="441.352121" y="578.54175" style="fill: #555555; stroke: #555555; stroke-width: 0.8"/>
      </g>
     </g>
     <g id="text_9">
      <!-- 2023-02 -->
      <g style="fill: #555555" transform="translate(428.530839 620.459567) rotate(-45) scale(0.1 -0.1)">
       <defs>
        <path id="DejaVuSans-33" d="M 2597 2516 
Q 3050 2419 3304 2112 
Q 3559 1806 3559 1356 
Q 3559 666 3084 287 
Q 2609 -91 1734 -91 
Q 1441 -91 1130 -33 
Q 819 25 488 141 
L 488 750 
Q 750 597 1062 519 
Q 1375 441 1716 441 
Q 2309 441 2620 675 
Q 2931 909 2931 1356 
Q 2931 1769 2642 2001 
Q 2353 2234 1838 2234 
L 1294 2234 
L 1294 2753 
L 1863 2753 
Q 2328 2753 2575 2939 
Q 2822 3125 2822 3475 
Q 2822 3834 2567 4026 
Q 2313 4219 1838 4219 
Q 1578 4219 1281 4162 
Q 984 4106 628 3988 
L 628 4550 
Q 988 4650 1302 4700 
Q 1616 4750 1894 4750 
Q 2613 4750 3031 4423 
Q 3450 4097 3450 3541 
Q 3450 3153 3228 2886 
Q 3006 2619 2597 2516 
z
" transform="scale(0.015625)"/>
       </defs>
       <use xlink:href="#DejaVuSans-32"/>
       <use xlink:href="#DejaVuSans-30" x="63.623047"/>
       <use xlink:href="#DejaVuSans-32" x="127.246094"/>
       <use xlink:href="#DejaVuSans-33" x="190.869141"/>
       <use xlink:href="#DejaVuSans-2d" x="254.492188"/>
       <use xlink:href="#DejaVuSans-30" x="290.576172"/>
       <use xlink:href="#DejaVuSans-32" x="354.199219"/>
      </g>
     </g>
    </g>
    <g id="xtick_10">
     <g id="line2d_19">
      <path d="M 482.942761 578.54175 
L 482.942761 24.14175 
" clip-path="url(#p2e754b5ff6)" style="fill: none; stroke: #ffffff; stroke-width: 0.8; stroke-linecap: square"/>
     </g>
     <g id="line2d_20">
      <g>
       <use xlink:href="#mab36e683ce" x="482.942761" y="578.54175" style="fill: #555555; stroke: #555555; stroke-width: 0.8"/>
      </g>
     </g>
     <g id="text_10">
      <!-- 2023-05 -->
      <g style="fill: #555555" transform="translate(470.121479 620.459567) rotate(-45) scale(0.1 -0.1)">
       <use xlink:href="#DejaVuSans-32"/>
       <use xlink:href="#DejaVuSans-30" x="63.623047"/>
       <use xlink:href="#DejaVuSans-32" x="127.246094"/>
       <use xlink:href="#DejaVuSans-33" x="190.869141"/>
       <use xlink:href="#DejaVuSans-2d" x="254.492188"/>
       <use xlink:href="#DejaVuSans-30" x="290.576172"/>
       <use xlink:href="#DejaVuSans-35" x="354.199219"/>
      </g>
     </g>
    </g>
    <g id="xtick_11">
     <g id="line2d_21">
      <path d="M 525.935332 578.54175 
L 525.935332 24.14175 
" clip-path="url(#p2e754b5ff6)" style="fill: none; stroke: #ffffff; stroke-width: 0.8; stroke-linecap: square"/>
     </g>
     <g id="line2d_22">
      <g>
       <use xlink:href="#mab36e683ce" x="525.935332" y="578.54175" style="fill: #555555; stroke: #555555; stroke-width: 0.8"/>
      </g>
     </g>
     <g id="text_11">
      <!-- 2023-08 -->
      <g style="fill: #555555" transform="translate(513.11405 620.459567) rotate(-45) scale(0.1 -0.1)">
       <use xlink:href="#DejaVuSans-32"/>
       <use xlink:href="#DejaVuSans-30" x="63.623047"/>
       <use xlink:href="#DejaVuSans-32" x="127.246094"/>
       <use xlink:href="#DejaVuSans-33" x="190.869141"/>
       <use xlink:href="#DejaVuSans-2d" x="254.492188"/>
       <use xlink:href="#DejaVuSans-30" x="290.576172"/>
       <use xlink:href="#DejaVuSans-38" x="354.199219"/>
      </g>
     </g>
    </g>
    <g id="xtick_12">
     <g id="line2d_23">
      <path d="M 568.927904 578.54175 
L 568.927904 24.14175 
" clip-path="url(#p2e754b5ff6)" style="fill: none; stroke: #ffffff; stroke-width: 0.8; stroke-linecap: square"/>
     </g>
     <g id="line2d_24">
      <g>
       <use xlink:href="#mab36e683ce" x="568.927904" y="578.54175" style="fill: #555555; stroke: #555555; stroke-width: 0.8"/>
      </g>
     </g>
     <g id="text_12">
      <!-- 2023-11 -->
      <g style="fill: #555555" transform="translate(556.106621 620.459567) rotate(-45) scale(0.1 -0.1)">
       <use xlink:href="#DejaVuSans-32"/>
       <use xlink:href="#DejaVuSans-30" x="63.623047"/>
       <use xlink:href="#DejaVuSans-32" x="127.246094"/>
       <use xlink:href="#DejaVuSans-33" x="190.869141"/>
       <use xlink:href="#DejaVuSans-2d" x="254.492188"/>
       <use xlink:href="#DejaVuSans-31" x="290.576172"/>
       <use xlink:href="#DejaVuSans-31" x="354.199219"/>
      </g>
     </g>
    </g>
    <g id="xtick_13">
     <g id="line2d_25">
      <path d="M 611.920475 578.54175 
L 611.920475 24.14175 
" clip-path="url(#p2e754b5ff6)" style="fill: none; stroke: #ffffff; stroke-width: 0.8; stroke-linecap: square"/>
     </g>
     <g id="line2d_26">
      <g>
       <use xlink:href="#mab36e683ce" x="611.920475" y="578.54175" style="fill: #555555; stroke: #555555; stroke-width: 0.8"/>
      </g>
     </g>
     <g id="text_13">
      <!-- 2024-02 -->
      <g style="fill: #555555" transform="translate(599.099193 620.459567) rotate(-45) scale(0.1 -0.1)">
       <defs>
        <path id="DejaVuSans-34" d="M 2419 4116 
L 825 1625 
L 2419 1625 
L 2419 4116 
z
M 2253 4666 
L 3047 4666 
L 3047 1625 
L 3713 1625 
L 3713 1100 
L 3047 1100 
L 3047 0 
L 2419 0 
L 2419 1100 
L 313 1100 
L 313 1709 
L 2253 4666 
z
" transform="scale(0.015625)"/>
       </defs>
       <use xlink:href="#DejaVuSans-32"/>
       <use xlink:href="#DejaVuSans-30" x="63.623047"/>
       <use xlink:href="#DejaVuSans-32" x="127.246094"/>
       <use xlink:href="#DejaVuSans-34" x="190.869141"/>
       <use xlink:href="#DejaVuSans-2d" x="254.492188"/>
       <use xlink:href="#DejaVuSans-30" x="290.576172"/>
       <use xlink:href="#DejaVuSans-32" x="354.199219"/>
      </g>
     </g>
    </g>
    <g id="xtick_14">
     <g id="line2d_27">
      <path d="M 653.978425 578.54175 
L 653.978425 24.14175 
" clip-path="url(#p2e754b5ff6)" style="fill: none; stroke: #ffffff; stroke-width: 0.8; stroke-linecap: square"/>
     </g>
     <g id="line2d_28">
      <g>
       <use xlink:href="#mab36e683ce" x="653.978425" y="578.54175" style="fill: #555555; stroke: #555555; stroke-width: 0.8"/>
      </g>
     </g>
     <g id="text_14">
      <!-- 2024-05 -->
      <g style="fill: #555555" transform="translate(641.157143 620.459567) rotate(-45) scale(0.1 -0.1)">
       <use xlink:href="#DejaVuSans-32"/>
       <use xlink:href="#DejaVuSans-30" x="63.623047"/>
       <use xlink:href="#DejaVuSans-32" x="127.246094"/>
       <use xlink:href="#DejaVuSans-34" x="190.869141"/>
       <use xlink:href="#DejaVuSans-2d" x="254.492188"/>
       <use xlink:href="#DejaVuSans-30" x="290.576172"/>
       <use xlink:href="#DejaVuSans-35" x="354.199219"/>
      </g>
     </g>
    </g>
    <g id="xtick_15">
     <g id="line2d_29">
      <path d="M 696.970997 578.54175 
L 696.970997 24.14175 
" clip-path="url(#p2e754b5ff6)" style="fill: none; stroke: #ffffff; stroke-width: 0.8; stroke-linecap: square"/>
     </g>
     <g id="line2d_30">
      <g>
       <use xlink:href="#mab36e683ce" x="696.970997" y="578.54175" style="fill: #555555; stroke: #555555; stroke-width: 0.8"/>
      </g>
     </g>
     <g id="text_15">
      <!-- 2024-08 -->
      <g style="fill: #555555" transform="translate(684.149715 620.459567) rotate(-45) scale(0.1 -0.1)">
       <use xlink:href="#DejaVuSans-32"/>
       <use xlink:href="#DejaVuSans-30" x="63.623047"/>
       <use xlink:href="#DejaVuSans-32" x="127.246094"/>
       <use xlink:href="#DejaVuSans-34" x="190.869141"/>
       <use xlink:href="#DejaVuSans-2d" x="254.492188"/>
       <use xlink:href="#DejaVuSans-30" x="290.576172"/>
       <use xlink:href="#DejaVuSans-38" x="354.199219"/>
      </g>
     </g>
    </g>
    <g id="xtick_16">
     <g id="line2d_31">
      <path d="M 739.963568 578.54175 
L 739.963568 24.14175 
" clip-path="url(#p2e754b5ff6)" style="fill: none; stroke: #ffffff; stroke-width: 0.8; stroke-linecap: square"/>
     </g>
     <g id="line2d_32">
      <g>
       <use xlink:href="#mab36e683ce" x="739.963568" y="578.54175" style="fill: #555555; stroke: #555555; stroke-width: 0.8"/>
      </g>
     </g>
     <g id="text_16">
      <!-- 2024-11 -->
      <g style="fill: #555555" transform="translate(727.142286 620.459567) rotate(-45) scale(0.1 -0.1)">
       <use xlink:href="#DejaVuSans-32"/>
       <use xlink:href="#DejaVuSans-30" x="63.623047"/>
       <use xlink:href="#DejaVuSans-32" x="127.246094"/>
       <use xlink:href="#DejaVuSans-34" x="190.869141"/>
       <use xlink:href="#DejaVuSans-2d" x="254.492188"/>
       <use xlink:href="#DejaVuSans-31" x="290.576172"/>
       <use xlink:href="#DejaVuSans-31" x="354.199219"/>
      </g>
     </g>
    </g>
    <g id="xtick_17">
     <g id="line2d_33">
      <path d="M 782.95614 578.54175 
L 782.95614 24.14175 
" clip-path="url(#p2e754b5ff6)" style="fill: none; stroke: #ffffff; stroke-width: 0.8; stroke-linecap: square"/>
     </g>
     <g id="line2d_34">
      <g>
       <use xlink:href="#mab36e683ce" x="782.95614" y="578.54175" style="fill: #555555; stroke: #555555; stroke-width: 0.8"/>
      </g>
     </g>
     <g id="text_17">
      <!-- 2025-02 -->
      <g style="fill: #555555" transform="translate(770.134857 620.459567) rotate(-45) scale(0.1 -0.1)">
       <use xlink:href="#DejaVuSans-32"/>
       <use xlink:href="#DejaVuSans-30" x="63.623047"/>
       <use xlink:href="#DejaVuSans-32" x="127.246094"/>
       <use xlink:href="#DejaVuSans-35" x="190.869141"/>
       <use xlink:href="#DejaVuSans-2d" x="254.492188"/>
       <use xlink:href="#DejaVuSans-30" x="290.576172"/>
       <use xlink:href="#DejaVuSans-32" x="354.199219"/>
      </g>
     </g>
    </g>
    <g id="xtick_18">
     <g id="line2d_35">
      <path d="M 824.54678 578.54175 
L 824.54678 24.14175 
" clip-path="url(#p2e754b5ff6)" style="fill: none; stroke: #ffffff; stroke-width: 0.8; stroke-linecap: square"/>
     </g>
     <g id="line2d_36">
      <g>
       <use xlink:href="#mab36e683ce" x="824.54678" y="578.54175" style="fill: #555555; stroke: #555555; stroke-width: 0.8"/>
      </g>
     </g>
     <g id="text_18">
      <!-- 2025-05 -->
      <g style="fill: #555555" transform="translate(811.725497 620.459567) rotate(-45) scale(0.1 -0.1)">
       <use xlink:href="#DejaVuSans-32"/>
       <use xlink:href="#DejaVuSans-30" x="63.623047"/>
       <use xlink:href="#DejaVuSans-32" x="127.246094"/>
       <use xlink:href="#DejaVuSans-35" x="190.869141"/>
       <use xlink:href="#DejaVuSans-2d" x="254.492188"/>
       <use xlink:href="#DejaVuSans-30" x="290.576172"/>
       <use xlink:href="#DejaVuSans-35" x="354.199219"/>
      </g>
     </g>
    </g>
    <g id="xtick_19">
     <g id="line2d_37">
      <path d="M 867.539351 578.54175 
L 867.539351 24.14175 
" clip-path="url(#p2e754b5ff6)" style="fill: none; stroke: #ffffff; stroke-width: 0.8; stroke-linecap: square"/>
     </g>
     <g id="line2d_38">
      <g>
       <use xlink:href="#mab36e683ce" x="867.539351" y="578.54175" style="fill: #555555; stroke: #555555; stroke-width: 0.8"/>
      </g>
     </g>
     <g id="text_19">
      <!-- 2025-08 -->
      <g style="fill: #555555" transform="translate(854.718069 620.459567) rotate(-45) scale(0.1 -0.1)">
       <use xlink:href="#DejaVuSans-32"/>
       <use xlink:href="#DejaVuSans-30" x="63.623047"/>
       <use xlink:href="#DejaVuSans-32" x="127.246094"/>
       <use xlink:href="#DejaVuSans-35" x="190.869141"/>
       <use xlink:href="#DejaVuSans-2d" x="254.492188"/>
       <use xlink:href="#DejaVuSans-30" x="290.576172"/>
       <use xlink:href="#DejaVuSans-38" x="354.199219"/>
      </g>
     </g>
    </g>
    <g id="xtick_20">
     <g id="line2d_39">
      <path d="M 910.531922 578.54175 
L 910.531922 24.14175 
" clip-path="url(#p2e754b5ff6)" style="fill: none; stroke: #ffffff; stroke-width: 0.8; stroke-linecap: square"/>
     </g>
     <g id="line2d_40">
      <g>
       <use xlink:href="#mab36e683ce" x="910.531922" y="578.54175" style="fill: #555555; stroke: #555555; stroke-width: 0.8"/>
      </g>
     </g>
     <g id="text_20">
      <!-- 2025-11 -->
      <g style="fill: #555555" transform="translate(897.71064 620.459567) rotate(-45) scale(0.1 -0.1)">
       <use xlink:href="#DejaVuSans-32"/>
       <use xlink:href="#DejaVuSans-30" x="63.623047"/>
       <use xlink:href="#DejaVuSans-32" x="127.246094"/>
       <use xlink:href="#DejaVuSans-35" x="190.869141"/>
       <use xlink:href="#DejaVuSans-2d" x="254.492188"/>
       <use xlink:href="#DejaVuSans-31" x="290.576172"/>
       <use xlink:href="#DejaVuSans-31" x="354.199219"/>
      </g>
     </g>
    </g>
    <g id="xtick_21">
     <g id="line2d_41">
      <path d="M 953.524494 578.54175 
L 953.524494 24.14175 
" clip-path="url(#p2e754b5ff6)" style="fill: none; stroke: #ffffff; stroke-width: 0.8; stroke-linecap: square"/>
     </g>
     <g id="line2d_42">
      <g>
       <use xlink:href="#mab36e683ce" x="953.524494" y="578.54175" style="fill: #555555; stroke: #555555; stroke-width: 0.8"/>
      </g>
     </g>
     <g id="text_21">
      <!-- 2026-02 -->
      <g style="fill: #555555" transform="translate(940.703212 620.459567) rotate(-45) scale(0.1 -0.1)">
       <defs>
        <path id="DejaVuSans-36" d="M 2113 2584 
Q 1688 2584 1439 2293 
Q 1191 2003 1191 1497 
Q 1191 994 1439 701 
Q 1688 409 2113 409 
Q 2538 409 2786 701 
Q 3034 994 3034 1497 
Q 3034 2003 2786 2293 
Q 2538 2584 2113 2584 
z
M 3366 4563 
L 3366 3988 
Q 3128 4100 2886 4159 
Q 2644 4219 2406 4219 
Q 1781 4219 1451 3797 
Q 1122 3375 1075 2522 
Q 1259 2794 1537 2939 
Q 1816 3084 2150 3084 
Q 2853 3084 3261 2657 
Q 3669 2231 3669 1497 
Q 3669 778 3244 343 
Q 2819 -91 2113 -91 
Q 1303 -91 875 529 
Q 447 1150 447 2328 
Q 447 3434 972 4092 
Q 1497 4750 2381 4750 
Q 2619 4750 2861 4703 
Q 3103 4656 3366 4563 
z
" transform="scale(0.015625)"/>
       </defs>
       <use xlink:href="#DejaVuSans-32"/>
       <use xlink:href="#DejaVuSans-30" x="63.623047"/>
       <use xlink:href="#DejaVuSans-32" x="127.246094"/>
       <use xlink:href="#DejaVuSans-36" x="190.869141"/>
       <use xlink:href="#DejaVuSans-2d" x="254.492188"/>
       <use xlink:href="#DejaVuSans-30" x="290.576172"/>
       <use xlink:href="#DejaVuSans-32" x="354.199219"/>
      </g>
     </g>
    </g>
    <g id="text_22">
     <!-- Date -->
     <g style="fill: #555555" transform="translate(501.313563 635.048253) scale(0.12 -0.12)">
      <defs>
       <path id="DejaVuSans-44" d="M 1259 4147 
L 1259 519 
L 2022 519 
Q 2988 519 3436 956 
Q 3884 1394 3884 2338 
Q 3884 3275 3436 3711 
Q 2988 4147 2022 4147 
L 1259 4147 
z
M 628 4666 
L 1925 4666 
Q 3281 4666 3915 4102 
Q 4550 3538 4550 2338 
Q 4550 1131 3912 565 
Q 3275 0 1925 0 
L 628 0 
L 628 4666 
z
" transform="scale(0.015625)"/>
       <path id="DejaVuSans-61" d="M 2194 1759 
Q 1497 1759 1228 1600 
Q 959 1441 959 1056 
Q 959 750 1161 570 
Q 1363 391 1709 391 
Q 2188 391 2477 730 
Q 2766 1069 2766 1631 
L 2766 1759 
L 2194 1759 
z
M 3341 1997 
L 3341 0 
L 2766 0 
L 2766 531 
Q 2569 213 2275 61 
Q 1981 -91 1556 -91 
Q 1019 -91 701 211 
Q 384 513 384 1019 
Q 384 1609 779 1909 
Q 1175 2209 1959 2209 
L 2766 2209 
L 2766 2266 
Q 2766 2663 2505 2880 
Q 2244 3097 1772 3097 
Q 1472 3097 1187 3025 
Q 903 2953 641 2809 
L 641 3341 
Q 956 3463 1253 3523 
Q 1550 3584 1831 3584 
Q 2591 3584 2966 3190 
Q 3341 2797 3341 1997 
z
" transform="scale(0.015625)"/>
       <path id="DejaVuSans-74" d="M 1172 4494 
L 1172 3500 
L 2356 3500 
L 2356 3053 
L 1172 3053 
L 1172 1153 
Q 1172 725 1289 603 
Q 1406 481 1766 481 
L 2356 481 
L 2356 0 
L 1766 0 
Q 1100 0 847 248 
Q 594 497 594 1153 
L 594 3053 
L 172 3053 
L 172 3500 
L 594 3500 
L 594 4494 
L 1172 4494 
z
" transform="scale(0.015625)"/>
       <path id="DejaVuSans-65" d="M 3597 1894 
L 3597 1613 
L 953 1613 
Q 991 1019 1311 708 
Q 1631 397 2203 397 
Q 2534 397 2845 478 
Q 3156 559 3463 722 
L 3463 178 
Q 3153 47 2828 -22 
Q 2503 -91 2169 -91 
Q 1331 -91 842 396 
Q 353 884 353 1716 
Q 353 2575 817 3079 
Q 1281 3584 2069 3584 
Q 2775 3584 3186 3129 
Q 3597 2675 3597 1894 
z
M 3022 2063 
Q 3016 2534 2758 2815 
Q 2500 3097 2075 3097 
Q 1594 3097 1305 2825 
Q 1016 2553 972 2059 
L 3022 2063 
z
" transform="scale(0.015625)"/>
      </defs>
      <use xlink:href="#DejaVuSans-44"/>
      <use xlink:href="#DejaVuSans-61" x="77.001953"/>
      <use xlink:href="#DejaVuSans-74" x="138.28125"/>
      <use xlink:href="#DejaVuSans-65" x="177.490234"/>
     </g>
    </g>
   </g>
   <g id="matplotlib.axis_2">
    <g id="ytick_1">
     <g id="line2d_43">
      <path d="M 64.2325 578.54175 
L 967.0765 578.54175 
" clip-path="url(#p2e754b5ff6)" style="fill: none; stroke: #ffffff; stroke-width: 0.8; stroke-linecap: square"/>
     </g>
     <g id="line2d_44">
      <defs>
       <path id="m2f75f95b93" d="M 0 0 
L -3.5 0 
" style="stroke: #555555; stroke-width: 0.8"/>
      </defs>
      <g>
       <use xlink:href="#m2f75f95b93" x="64.2325" y="578.54175" style="fill: #555555; stroke: #555555; stroke-width: 0.8"/>
      </g>
     </g>
     <g id="text_23">
      <!-- 0k -->
      <g style="fill: #555555" transform="translate(45.079375 582.340969) scale(0.1 -0.1)">
       <defs>
        <path id="DejaVuSans-6b" d="M 581 4863 
L 1159 4863 
L 1159 1991 
L 2875 3500 
L 3609 3500 
L 1753 1863 
L 3688 0 
L 2938 0 
L 1159 1709 
L 1159 0 
L 581 0 
L 581 4863 
z
" transform="scale(0.015625)"/>
       </defs>
       <use xlink:href="#DejaVuSans-30"/>
       <use xlink:href="#DejaVuSans-6b" x="63.623047"/>
      </g>
     </g>
    </g>
    <g id="ytick_2">
     <g id="line2d_45">
      <path d="M 64.2325 460.917966 
L 967.0765 460.917966 
" clip-path="url(#p2e754b5ff6)" style="fill: none; stroke: #ffffff; stroke-width: 0.8; stroke-linecap: square"/>
     </g>
     <g id="line2d_46">
      <g>
       <use xlink:href="#m2f75f95b93" x="64.2325" y="460.917966" style="fill: #555555; stroke: #555555; stroke-width: 0.8"/>
      </g>
     </g>
     <g id="text_24">
      <!-- 500k -->
      <g style="fill: #555555" transform="translate(32.354375 464.717185) scale(0.1 -0.1)">
       <use xlink:href="#DejaVuSans-35"/>
       <use xlink:href="#DejaVuSans-30" x="63.623047"/>
       <use xlink:href="#DejaVuSans-30" x="127.246094"/>
       <use xlink:href="#DejaVuSans-6b" x="190.869141"/>
      </g>
     </g>
    </g>
    <g id="ytick_3">
     <g id="line2d_47">
      <path d="M 64.2325 343.294182 
L 967.0765 343.294182 
" clip-path="url(#p2e754b5ff6)" style="fill: none; stroke: #ffffff; stroke-width: 0.8; stroke-linecap: square"/>
     </g>
     <g id="line2d_48">
      <g>
       <use xlink:href="#m2f75f95b93" x="64.2325" y="343.294182" style="fill: #555555; stroke: #555555; stroke-width: 0.8"/>
      </g>
     </g>
     <g id="text_25">
      <!-- 1,000k -->
      <g style="fill: #555555" transform="translate(22.81375 347.093401) scale(0.1 -0.1)">
       <defs>
        <path id="DejaVuSans-2c" d="M 750 794 
L 1409 794 
L 1409 256 
L 897 -744 
L 494 -744 
L 750 256 
L 750 794 
z
" transform="scale(0.015625)"/>
       </defs>
       <use xlink:href="#DejaVuSans-31"/>
       <use xlink:href="#DejaVuSans-2c" x="63.623047"/>
       <use xlink:href="#DejaVuSans-30" x="95.410156"/>
       <use xlink:href="#DejaVuSans-30" x="159.033203"/>
       <use xlink:href="#DejaVuSans-30" x="222.65625"/>
       <use xlink:href="#DejaVuSans-6b" x="286.279297"/>
      </g>
     </g>
    </g>
    <g id="ytick_4">
     <g id="line2d_49">
      <path d="M 64.2325 225.670398 
L 967.0765 225.670398 
" clip-path="url(#p2e754b5ff6)" style="fill: none; stroke: #ffffff; stroke-width: 0.8; stroke-linecap: square"/>
     </g>
     <g id="line2d_50">
      <g>
       <use xlink:href="#m2f75f95b93" x="64.2325" y="225.670398" style="fill: #555555; stroke: #555555; stroke-width: 0.8"/>
      </g>
     </g>
     <g id="text_26">
      <!-- 1,500k -->
      <g style="fill: #555555" transform="translate(22.81375 229.469617) scale(0.1 -0.1)">
       <use xlink:href="#DejaVuSans-31"/>
       <use xlink:href="#DejaVuSans-2c" x="63.623047"/>
       <use xlink:href="#DejaVuSans-35" x="95.410156"/>
       <use xlink:href="#DejaVuSans-30" x="159.033203"/>
       <use xlink:href="#DejaVuSans-30" x="222.65625"/>
       <use xlink:href="#DejaVuSans-6b" x="286.279297"/>
      </g>
     </g>
    </g>
    <g id="ytick_5">
     <g id="line2d_51">
      <path d="M 64.2325 108.046615 
L 967.0765 108.046615 
" clip-path="url(#p2e754b5ff6)" style="fill: none; stroke: #ffffff; stroke-width: 0.8; stroke-linecap: square"/>
     </g>
     <g id="line2d_52">
      <g>
       <use xlink:href="#m2f75f95b93" x="64.2325" y="108.046615" style="fill: #555555; stroke: #555555; stroke-width: 0.8"/>
      </g>
     </g>
     <g id="text_27">
      <!-- 2,000k -->
      <g style="fill: #555555" transform="translate(22.81375 111.845833) scale(0.1 -0.1)">
       <use xlink:href="#DejaVuSans-32"/>
       <use xlink:href="#DejaVuSans-2c" x="63.623047"/>
       <use xlink:href="#DejaVuSans-30" x="95.410156"/>
       <use xlink:href="#DejaVuSans-30" x="159.033203"/>
       <use xlink:href="#DejaVuSans-30" x="222.65625"/>
       <use xlink:href="#DejaVuSans-6b" x="286.279297"/>
      </g>
     </g>
    </g>
    <g id="text_28">
     <!-- Instances -->
     <g style="fill: #555555" transform="translate(16.318125 329.988) rotate(-90) scale(0.12 -0.12)">
      <defs>
       <path id="DejaVuSans-49" d="M 628 4666 
L 1259 4666 
L 1259 0 
L 628 0 
L 628 4666 
z
" transform="scale(0.015625)"/>
       <path id="DejaVuSans-6e" d="M 3513 2113 
L 3513 0 
L 2938 0 
L 2938 2094 
Q 2938 2591 2744 2837 
Q 2550 3084 2163 3084 
Q 1697 3084 1428 2787 
Q 1159 2491 1159 1978 
L 1159 0 
L 581 0 
L 581 3500 
L 1159 3500 
L 1159 2956 
Q 1366 3272 1645 3428 
Q 1925 3584 2291 3584 
Q 2894 3584 3203 3211 
Q 3513 2838 3513 2113 
z
" transform="scale(0.015625)"/>
       <path id="DejaVuSans-73" d="M 2834 3397 
L 2834 2853 
Q 2591 2978 2328 3040 
Q 2066 3103 1784 3103 
Q 1356 3103 1142 2972 
Q 928 2841 928 2578 
Q 928 2378 1081 2264 
Q 1234 2150 1697 2047 
L 1894 2003 
Q 2506 1872 2764 1633 
Q 3022 1394 3022 966 
Q 3022 478 2636 193 
Q 2250 -91 1575 -91 
Q 1294 -91 989 -36 
Q 684 19 347 128 
L 347 722 
Q 666 556 975 473 
Q 1284 391 1588 391 
Q 1994 391 2212 530 
Q 2431 669 2431 922 
Q 2431 1156 2273 1281 
Q 2116 1406 1581 1522 
L 1381 1569 
Q 847 1681 609 1914 
Q 372 2147 372 2553 
Q 372 3047 722 3315 
Q 1072 3584 1716 3584 
Q 2034 3584 2315 3537 
Q 2597 3491 2834 3397 
z
" transform="scale(0.015625)"/>
       <path id="DejaVuSans-63" d="M 3122 3366 
L 3122 2828 
Q 2878 2963 2633 3030 
Q 2388 3097 2138 3097 
Q 1578 3097 1268 2742 
Q 959 2388 959 1747 
Q 959 1106 1268 751 
Q 1578 397 2138 397 
Q 2388 397 2633 464 
Q 2878 531 3122 666 
L 3122 134 
Q 2881 22 2623 -34 
Q 2366 -91 2075 -91 
Q 1284 -91 818 406 
Q 353 903 353 1747 
Q 353 2603 823 3093 
Q 1294 3584 2113 3584 
Q 2378 3584 2631 3529 
Q 2884 3475 3122 3366 
z
" transform="scale(0.015625)"/>
      </defs>
      <use xlink:href="#DejaVuSans-49"/>
      <use xlink:href="#DejaVuSans-6e" x="29.492188"/>
      <use xlink:href="#DejaVuSans-73" x="92.871094"/>
      <use xlink:href="#DejaVuSans-74" x="144.970703"/>
      <use xlink:href="#DejaVuSans-61" x="184.179688"/>
      <use xlink:href="#DejaVuSans-6e" x="245.458984"/>
      <use xlink:href="#DejaVuSans-63" x="308.837891"/>
      <use xlink:href="#DejaVuSans-65" x="363.818359"/>
      <use xlink:href="#DejaVuSans-73" x="425.341797"/>
     </g>
    </g>
   </g>
   <g id="line2d_53">
    <path d="M 64.2325 580.145792 
L 73.352136 579.353715 
L 82.471773 578.517377 
L 91.591409 577.636778 
L 100.711045 576.711917 
L 109.830682 575.742794 
L 118.950318 574.72941 
L 128.069955 573.671764 
L 137.189591 572.569856 
L 146.309227 571.423687 
L 155.428864 570.233257 
L 164.5485 568.998564 
L 173.668136 567.71961 
L 182.787773 566.396395 
L 191.907409 565.028918 
L 201.027045 563.617179 
L 210.146682 562.161179 
L 219.266318 560.660917 
L 228.385955 559.116393 
L 237.505591 557.527608 
L 246.625227 555.894561 
L 255.744864 554.217253 
L 264.8645 552.495683 
L 273.984136 550.729851 
L 283.103773 548.919758 
L 292.223409 547.065403 
L 301.343045 545.166787 
L 310.462682 543.223909 
L 319.582318 541.236769 
L 328.701955 539.205368 
L 337.821591 537.129705 
L 346.941227 535.009781 
L 356.060864 532.845595 
L 365.1805 530.637147 
L 374.300136 528.384438 
L 383.419773 526.087467 
L 392.539409 523.746235 
L 401.659045 521.360741 
L 410.778682 518.930985 
L 419.898318 516.456968 
L 429.017955 513.938689 
L 438.137591 511.376149 
L 447.257227 508.769347 
L 456.376864 506.118283 
L 465.4965 503.422958 
L 474.616136 500.683371 
L 483.735773 497.899522 
L 492.855409 495.071412 
L 501.975045 492.199041 
L 511.094682 489.282407 
L 520.214318 486.321512 
L 529.333955 483.316356 
L 538.453591 480.266938 
L 547.573227 477.173258 
L 556.692864 474.035317 
L 565.8125 470.853114 
L 574.932136 467.626649 
L 584.051773 464.355923 
L 593.171409 461.040936 
L 602.291045 457.681686 
L 611.410682 454.278175 
L 620.530318 450.830403 
L 629.649955 447.338369 
L 638.769591 443.802073 
L 647.889227 440.221516 
L 657.008864 436.596697 
L 666.1285 432.927616 
L 675.248136 429.214274 
L 684.367773 425.45667 
L 693.487409 421.654805 
L 702.607045 417.808678 
L 711.726682 413.918289 
L 720.846318 409.983639 
L 729.965955 406.004727 
L 739.085591 401.981554 
L 748.205227 397.914119 
L 757.324864 393.802422 
L 766.4445 389.646464 
L 775.564136 385.446244 
L 784.683773 381.201763 
L 793.803409 376.91302 
L 802.923045 372.580015 
L 812.042682 368.202749 
L 821.162318 363.781221 
L 830.281955 359.315432 
L 839.401591 354.805381 
L 848.521227 350.251068 
L 857.640864 345.652494 
L 866.7605 341.009658 
L 875.880136 336.322561 
L 884.999773 331.591202 
L 894.119409 326.815581 
L 903.239045 321.995699 
L 912.358682 317.131555 
L 921.478318 312.223149 
L 930.597955 307.270482 
L 939.717591 302.273554 
L 948.837227 297.232363 
L 957.956864 292.146911 
L 967.0765 287.017198 
" clip-path="url(#p2e754b5ff6)" style="fill: none; stroke-dasharray: 3,4.95; stroke-dashoffset: 0; stroke: #4ac1fa; stroke-opacity: 0.9; stroke-width: 3"/>
   </g>
   <g id="line2d_54">
    <path d="M 64.2325 587.950389 
L 73.352136 583.289679 
L 82.471773 578.697072 
L 91.591409 574.172568 
L 100.711045 569.716169 
L 109.830682 565.327873 
L 118.950318 561.007681 
L 128.069955 556.755592 
L 137.189591 552.571608 
L 146.309227 548.455727 
L 155.428864 544.40795 
L 164.5485 540.428276 
L 173.668136 536.516706 
L 182.787773 532.67324 
L 191.907409 528.897878 
L 201.027045 525.190619 
L 210.146682 521.551465 
L 219.266318 517.980414 
L 228.385955 514.477466 
L 237.505591 511.042623 
L 246.625227 507.675883 
L 255.744864 504.377246 
L 264.8645 501.146714 
L 273.984136 497.984285 
L 283.103773 494.88996 
L 292.223409 491.863739 
L 301.343045 488.905622 
L 310.462682 486.015608 
L 319.582318 483.193698 
L 328.701955 480.439891 
L 337.821591 477.754189 
L 346.941227 475.13659 
L 356.060864 472.587095 
L 365.1805 470.105703 
L 374.300136 467.692416 
L 383.419773 465.347232 
L 392.539409 463.070152 
L 401.659045 460.861175 
L 410.778682 458.720302 
L 419.898318 456.647533 
L 429.017955 454.642868 
L 438.137591 452.706307 
L 447.257227 450.837849 
L 456.376864 449.037495 
L 465.4965 447.305244 
L 474.616136 445.641098 
L 483.735773 444.045055 
L 492.855409 442.517115 
L 501.975045 441.05728 
L 511.094682 439.665548 
L 520.214318 438.34192 
L 529.333955 437.086396 
L 538.453591 435.898976 
L 547.573227 434.779659 
L 556.692864 433.728446 
L 565.8125 432.745336 
L 574.932136 431.830331 
L 584.051773 430.983429 
L 593.171409 430.204631 
L 602.291045 429.493936 
L 611.410682 428.851346 
L 620.530318 428.276859 
L 629.649955 427.770475 
L 638.769591 427.332196 
L 647.889227 426.96202 
L 657.008864 426.659948 
L 666.1285 426.42598 
L 675.248136 426.260115 
L 684.367773 426.162354 
L 693.487409 426.132697 
L 702.607045 426.171144 
L 711.726682 426.277694 
L 720.846318 426.452348 
L 729.965955 426.695106 
L 739.085591 427.005968 
L 748.205227 427.384933 
L 757.324864 427.832002 
L 766.4445 428.347175 
L 775.564136 428.930451 
L 784.683773 429.581831 
L 793.803409 430.301315 
L 802.923045 431.088903 
L 812.042682 431.944594 
L 821.162318 432.868389 
L 830.281955 433.860288 
L 839.401591 434.920291 
L 848.521227 436.048397 
L 857.640864 437.244607 
L 866.7605 438.508921 
L 875.880136 439.841338 
L 884.999773 441.24186 
L 894.119409 442.710485 
L 903.239045 444.247213 
L 912.358682 445.852046 
L 921.478318 447.524982 
L 930.597955 449.266022 
L 939.717591 451.075165 
L 948.837227 452.952413 
L 957.956864 454.897764 
L 967.0765 456.911219 
" clip-path="url(#p2e754b5ff6)" style="fill: none; stroke-dasharray: 3,4.95; stroke-dashoffset: 0; stroke: #9a5689; stroke-opacity: 0.9; stroke-width: 3"/>
   </g>
   <g id="line2d_55">
    <path d="M 64.2325 576.199967 
L 73.352136 575.635047 
L 82.471773 575.074258 
L 91.591409 574.5176 
L 100.711045 573.965071 
L 109.830682 573.416672 
L 118.950318 572.872404 
L 128.069955 572.332266 
L 137.189591 571.796258 
L 146.309227 571.26438 
L 155.428864 570.736632 
L 164.5485 570.213014 
L 173.668136 569.693527 
L 182.787773 569.178169 
L 191.907409 568.666942 
L 201.027045 568.159845 
L 210.146682 567.656878 
L 219.266318 567.158042 
L 228.385955 566.663335 
L 237.505591 566.172758 
L 246.625227 565.686312 
L 255.744864 565.203996 
L 264.8645 564.72581 
L 273.984136 564.251754 
L 283.103773 563.781828 
L 292.223409 563.316033 
L 301.343045 562.854367 
L 310.462682 562.396832 
L 319.582318 561.943427 
L 328.701955 561.494152 
L 337.821591 561.049007 
L 346.941227 560.607992 
L 356.060864 560.171108 
L 365.1805 559.738353 
L 374.300136 559.309729 
L 383.419773 558.885235 
L 392.539409 558.464871 
L 401.659045 558.048637 
L 410.778682 557.636534 
L 419.898318 557.22856 
L 429.017955 556.824717 
L 438.137591 556.425003 
L 447.257227 556.02942 
L 456.376864 555.637967 
L 465.4965 555.250645 
L 474.616136 554.867452 
L 483.735773 554.488389 
L 492.855409 554.113457 
L 501.975045 553.742655 
L 511.094682 553.375983 
L 520.214318 553.013441 
L 529.333955 552.655029 
L 538.453591 552.300747 
L 547.573227 551.950596 
L 556.692864 551.604575 
L 565.8125 551.262684 
L 574.932136 550.924923 
L 584.051773 550.591292 
L 593.171409 550.261791 
L 602.291045 549.93642 
L 611.410682 549.61518 
L 620.530318 549.29807 
L 629.649955 548.985089 
L 638.769591 548.676239 
L 647.889227 548.37152 
L 657.008864 548.07093 
L 666.1285 547.77447 
L 675.248136 547.482141 
L 684.367773 547.193942 
L 693.487409 546.909873 
L 702.607045 546.629934 
L 711.726682 546.354125 
L 720.846318 546.082446 
L 729.965955 545.814898 
L 739.085591 545.551479 
L 748.205227 545.292191 
L 757.324864 545.037033 
L 766.4445 544.786005 
L 775.564136 544.539107 
L 784.683773 544.296339 
L 793.803409 544.057702 
L 802.923045 543.823195 
L 812.042682 543.592817 
L 821.162318 543.36657 
L 830.281955 543.144453 
L 839.401591 542.926467 
L 848.521227 542.71261 
L 857.640864 542.502884 
L 866.7605 542.297287 
L 875.880136 542.095821 
L 884.999773 541.898485 
L 894.119409 541.705279 
L 903.239045 541.516203 
L 912.358682 541.331258 
L 921.478318 541.150442 
L 930.597955 540.973757 
L 939.717591 540.801202 
L 948.837227 540.632777 
L 957.956864 540.468482 
L 967.0765 540.308317 
" clip-path="url(#p2e754b5ff6)" style="fill: none; stroke-dasharray: 3,4.95; stroke-dashoffset: 0; stroke: #be503b; stroke-opacity: 0.9; stroke-width: 3"/>
   </g>
   <g id="line2d_56">
    <path d="M 64.2325 564.432269 
L 73.352136 562.035996 
L 82.471773 559.645612 
L 91.591409 557.261116 
L 100.711045 554.882509 
L 109.830682 552.50979 
L 118.950318 550.142961 
L 128.069955 547.782019 
L 137.189591 545.426967 
L 146.309227 543.077802 
L 155.428864 540.734527 
L 164.5485 538.39714 
L 173.668136 536.065642 
L 182.787773 533.740032 
L 191.907409 531.420311 
L 201.027045 529.106478 
L 210.146682 526.798534 
L 219.266318 524.496479 
L 228.385955 522.200312 
L 237.505591 519.910034 
L 246.625227 517.625645 
L 255.744864 515.347144 
L 264.8645 513.074532 
L 273.984136 510.807808 
L 283.103773 508.546973 
L 292.223409 506.292026 
L 301.343045 504.042969 
L 310.462682 501.799799 
L 319.582318 499.562519 
L 328.701955 497.331127 
L 337.821591 495.105623 
L 346.941227 492.886008 
L 356.060864 490.672282 
L 365.1805 488.464444 
L 374.300136 486.262495 
L 383.419773 484.066435 
L 392.539409 481.876263 
L 401.659045 479.69198 
L 410.778682 477.513585 
L 419.898318 475.341079 
L 429.017955 473.174461 
L 438.137591 471.013733 
L 447.257227 468.858892 
L 456.376864 466.709941 
L 465.4965 464.566878 
L 474.616136 462.429703 
L 483.735773 460.298417 
L 492.855409 458.17302 
L 501.975045 456.053512 
L 511.094682 453.939892 
L 520.214318 451.83216 
L 529.333955 449.730317 
L 538.453591 447.634363 
L 547.573227 445.544297 
L 556.692864 443.46012 
L 565.8125 441.381832 
L 574.932136 439.309432 
L 584.051773 437.242921 
L 593.171409 435.182298 
L 602.291045 433.127564 
L 611.410682 431.078719 
L 620.530318 429.035762 
L 629.649955 426.998694 
L 638.769591 424.967514 
L 647.889227 422.942223 
L 657.008864 420.922821 
L 666.1285 418.909307 
L 675.248136 416.901682 
L 684.367773 414.899945 
L 693.487409 412.904097 
L 702.607045 410.914138 
L 711.726682 408.930067 
L 720.846318 406.951885 
L 729.965955 404.979592 
L 739.085591 403.013187 
L 748.205227 401.05267 
L 757.324864 399.098042 
L 766.4445 397.149303 
L 775.564136 395.206453 
L 784.683773 393.269491 
L 793.803409 391.338417 
L 802.923045 389.413233 
L 812.042682 387.493936 
L 821.162318 385.580529 
L 830.281955 383.67301 
L 839.401591 381.77138 
L 848.521227 379.875638 
L 857.640864 377.985785 
L 866.7605 376.10182 
L 875.880136 374.223744 
L 884.999773 372.351557 
L 894.119409 370.485258 
L 903.239045 368.624848 
L 912.358682 366.770327 
L 921.478318 364.921694 
L 930.597955 363.078949 
L 939.717591 361.242094 
L 948.837227 359.411126 
L 957.956864 357.586048 
L 967.0765 355.766858 
" clip-path="url(#p2e754b5ff6)" style="fill: none; stroke-dasharray: 3,4.95; stroke-dashoffset: 0; stroke: #e2321d; stroke-opacity: 0.9; stroke-width: 3"/>
   </g>
   <g id="line2d_57">
    <path d="M 64.2325 597.14918 
L 73.352136 595.073955 
L 82.471773 592.93002 
L 91.591409 590.717373 
L 100.711045 588.436015 
L 109.830682 586.085946 
L 118.950318 583.667166 
L 128.069955 581.179674 
L 137.189591 578.623471 
L 146.309227 575.998558 
L 155.428864 573.304933 
L 164.5485 570.542596 
L 173.668136 567.711549 
L 182.787773 564.81179 
L 191.907409 561.843321 
L 201.027045 558.80614 
L 210.146682 555.700248 
L 219.266318 552.525644 
L 228.385955 549.28233 
L 237.505591 545.970304 
L 246.625227 542.589567 
L 255.744864 539.140119 
L 264.8645 535.62196 
L 273.984136 532.03509 
L 283.103773 528.379508 
L 292.223409 524.655216 
L 301.343045 520.862212 
L 310.462682 517.000497 
L 319.582318 513.07007 
L 328.701955 509.070933 
L 337.821591 505.003084 
L 346.941227 500.866525 
L 356.060864 496.661254 
L 365.1805 492.387272 
L 374.300136 488.044578 
L 383.419773 483.633174 
L 392.539409 479.153058 
L 401.659045 474.604231 
L 410.778682 469.986693 
L 419.898318 465.300444 
L 429.017955 460.545483 
L 438.137591 455.721812 
L 447.257227 450.829429 
L 456.376864 445.868335 
L 465.4965 440.83853 
L 474.616136 435.740014 
L 483.735773 430.572786 
L 492.855409 425.336848 
L 501.975045 420.032198 
L 511.094682 414.658837 
L 520.214318 409.216765 
L 529.333955 403.705981 
L 538.453591 398.126487 
L 547.573227 392.478281 
L 556.692864 386.761364 
L 565.8125 380.975736 
L 574.932136 375.121397 
L 584.051773 369.198346 
L 593.171409 363.206585 
L 602.291045 357.146112 
L 611.410682 351.016928 
L 620.530318 344.819033 
L 629.649955 338.552426 
L 638.769591 332.217109 
L 647.889227 325.81308 
L 657.008864 319.34034 
L 666.1285 312.798889 
L 675.248136 306.188727 
L 684.367773 299.509853 
L 693.487409 292.762269 
L 702.607045 285.945973 
L 711.726682 279.060966 
L 720.846318 272.107248 
L 729.965955 265.084819 
L 739.085591 257.993678 
L 748.205227 250.833826 
L 757.324864 243.605263 
L 766.4445 236.307989 
L 775.564136 228.942004 
L 784.683773 221.507308 
L 793.803409 214.0039 
L 802.923045 206.431781 
L 812.042682 198.790952 
L 821.162318 191.08141 
L 830.281955 183.303158 
L 839.401591 175.456195 
L 848.521227 167.54052 
L 857.640864 159.556134 
L 866.7605 151.503037 
L 875.880136 143.381229 
L 884.999773 135.19071 
L 894.119409 126.931479 
L 903.239045 118.603537 
L 912.358682 110.206884 
L 921.478318 101.74152 
L 930.597955 93.207445 
L 939.717591 84.604659 
L 948.837227 75.933161 
L 957.956864 67.192952 
L 967.0765 58.384032 
" clip-path="url(#p2e754b5ff6)" style="fill: none; stroke-dasharray: 3,4.95; stroke-dashoffset: 0; stroke: #48b585; stroke-opacity: 0.9; stroke-width: 3"/>
   </g>
   <g id="line2d_58">
    <path d="M 64.2325 578.54175 
L 96.944239 578.509286 
L 110.028935 578.221225 
L 116.571283 578.006562 
L 123.11363 577.916815 
L 129.655978 577.121913 
L 136.198326 576.680589 
L 142.740674 576.494743 
L 149.283022 575.283571 
L 155.82537 574.379515 
L 162.367717 574.087337 
L 168.910065 573.471812 
L 175.452413 572.609512 
L 181.994761 572.064091 
L 188.537109 570.482051 
L 195.079457 569.612458 
L 201.621804 569.012459 
L 208.164152 566.800191 
L 214.7065 564.933737 
L 221.248848 565.139696 
L 227.791196 565.117112 
L 234.333543 562.94119 
L 240.875891 561.674029 
L 253.960587 556.711011 
L 260.502935 554.383236 
L 267.045283 551.586848 
L 273.58763 548.017555 
L 280.129978 546.789798 
L 286.672326 544.859003 
L 293.214674 539.974676 
L 299.757022 538.460269 
L 306.29937 537.390599 
L 312.841717 535.730457 
L 319.384065 532.185864 
L 325.926413 531.157479 
L 332.468761 524.384937 
L 339.011109 524.841552 
L 345.553457 523.020266 
L 352.095804 518.065599 
L 365.1805 514.41738 
L 371.722848 511.896232 
L 378.265196 512.177941 
L 384.807543 508.730388 
L 391.349891 508.282947 
L 397.892239 513.848434 
L 404.434587 512.009739 
L 410.976935 512.864275 
L 417.519283 514.181897 
L 424.06163 513.753511 
L 430.603978 509.724897 
L 437.146326 509.036562 
L 443.688674 509.225819 
L 450.231022 507.516981 
L 456.77337 507.085772 
L 463.315717 506.246056 
L 469.858065 504.288678 
M 482.942761 506.018101 
L 489.485109 502.801796 
L 496.027457 499.295901 
L 502.569804 497.156207 
L 509.112152 496.342133 
L 515.6545 495.245997 
L 522.196848 495.183068 
L 528.739196 494.893949 
L 535.281543 493.169937 
L 541.823891 488.394176 
L 554.908587 485.826214 
L 561.450935 481.831004 
L 567.993283 479.125657 
L 574.53563 478.558358 
L 581.077978 476.458656 
L 587.620326 476.040033 
L 594.162674 474.479753 
L 600.705022 471.364252 
L 607.24737 464.606648 
L 613.789717 462.406142 
L 620.332065 455.202626 
L 626.874413 453.585064 
L 633.416761 452.550563 
L 639.959109 454.332799 
L 646.501457 453.017412 
L 653.043804 449.401421 
L 659.586152 447.232204 
L 666.1285 437.796071 
L 672.670848 438.967839 
L 679.213196 432.192239 
L 685.755543 426.666861 
L 692.297891 422.56779 
L 698.840239 415.818184 
L 705.382587 412.527659 
L 711.924935 407.590754 
L 718.467283 410.976201 
L 725.00963 403.155043 
L 731.551978 402.949319 
L 738.094326 400.006843 
L 744.636674 396.649389 
L 751.179022 392.868373 
L 757.72137 398.618294 
L 764.263717 389.294021 
L 770.806065 383.801343 
L 777.348413 379.064869 
L 783.890761 378.687532 
L 790.433109 375.565561 
L 796.975457 363.930334 
L 803.517804 362.628239 
L 810.060152 360.339515 
L 816.6025 367.853205 
L 823.144848 357.411977 
L 829.687196 351.885306 
L 836.229543 357.449028 
L 842.771891 367.542561 
L 849.314239 361.494463 
L 855.856587 336.138775 
L 862.398935 345.225212 
L 868.941283 339.223341 
L 875.48363 329.590541 
L 882.025978 322.373146 
L 888.568326 319.934805 
L 895.110674 325.285746 
L 901.653022 308.556233 
L 908.19537 331.405123 
L 914.737717 306.214461 
L 921.280065 312.531328 
L 927.822413 312.215744 
L 934.364761 307.664409 
L 940.907109 306.392073 
L 947.449457 301.527741 
L 953.991804 302.163615 
L 960.534152 295.985308 
L 967.0765 297.893048 
L 967.0765 297.893048 
" clip-path="url(#p2e754b5ff6)" style="fill: none; stroke: #4ac1fa; stroke-width: 1.5; stroke-linecap: square"/>
   </g>
   <g id="line2d_59">
    <path d="M 64.2325 577.708974 
L 70.774848 576.641773 
L 77.317196 575.348852 
L 83.859543 574.669693 
L 90.401891 573.516274 
L 96.944239 572.512472 
L 103.486587 571.219434 
L 110.028935 570.354429 
L 116.571283 569.699029 
L 123.11363 569.683738 
L 129.655978 567.948082 
L 136.198326 567.005327 
L 142.740674 568.605128 
L 149.283022 565.217798 
L 155.82537 564.337149 
L 162.367717 562.645484 
L 168.910065 559.541863 
L 181.994761 554.180335 
L 188.537109 551.906785 
L 195.079457 550.423432 
L 208.164152 544.190194 
L 214.7065 542.236934 
L 221.248848 539.913864 
L 227.791196 538.92453 
L 234.333543 535.628947 
L 240.875891 534.693721 
L 247.418239 533.499604 
L 253.960587 530.020645 
L 260.502935 526.987834 
L 267.045283 487.69902 
L 273.58763 489.024169 
L 280.129978 490.958375 
L 286.672326 466.778454 
L 293.214674 464.876242 
L 299.757022 457.471942 
L 306.29937 460.54357 
L 319.384065 445.341637 
L 325.926413 448.39562 
L 332.468761 450.019182 
L 339.011109 450.795263 
L 345.553457 457.551221 
L 352.095804 451.781186 
L 358.638152 444.85538 
L 365.1805 445.873061 
L 371.722848 441.56015 
L 378.265196 433.807919 
L 384.807543 428.757389 
L 391.349891 421.902863 
L 397.892239 430.418354 
L 404.434587 430.059014 
L 410.976935 433.623367 
L 417.519283 437.543768 
L 424.06163 438.921613 
L 430.603978 434.445204 
L 437.146326 434.101155 
L 443.688674 434.900879 
L 450.231022 439.258252 
L 456.77337 442.34023 
L 463.315717 445.953163 
L 469.858065 442.901649 
M 482.942761 445.982804 
L 489.485109 430.686889 
L 496.027457 442.954462 
L 502.569804 443.55893 
L 509.112152 443.306627 
L 515.6545 444.277377 
L 522.196848 443.760302 
L 528.739196 438.970544 
L 535.281543 433.165458 
L 541.823891 436.986113 
L 548.366239 433.986707 
L 554.908587 431.618587 
L 561.450935 425.850552 
L 567.993283 418.104791 
L 574.53563 422.333954 
L 581.077978 415.711735 
L 587.620326 430.449289 
L 594.162674 416.950666 
L 600.705022 417.798969 
L 607.24737 414.50715 
L 613.789717 415.989092 
L 620.332065 399.324389 
L 626.874413 398.295181 
L 633.416761 385.501713 
L 639.959109 394.235161 
L 646.501457 403.390526 
L 653.043804 395.280131 
L 659.586152 432.405726 
L 666.1285 497.852775 
L 672.670848 490.634439 
L 679.213196 492.909048 
L 685.755543 486.499492 
L 692.297891 486.588063 
L 698.840239 482.135768 
L 705.382587 479.29186 
L 711.924935 476.238582 
L 718.467283 474.807218 
L 725.00963 474.167462 
L 731.551978 465.51635 
L 738.094326 450.580012 
L 751.179022 459.88323 
L 757.72137 462.453074 
L 764.263717 455.179219 
L 770.806065 455.244971 
L 777.348413 452.330371 
L 783.890761 451.81859 
L 790.433109 445.244597 
L 796.975457 446.260866 
L 803.517804 445.792606 
L 810.060152 444.917015 
L 816.6025 446.443654 
L 829.687196 436.821911 
L 836.229543 439.528199 
L 842.771891 454.677319 
L 849.314239 450.714338 
L 855.856587 433.80639 
L 862.398935 431.762912 
L 868.941283 425.197623 
L 875.48363 428.002715 
L 882.025978 426.842474 
L 888.568326 432.841875 
L 895.110674 429.081207 
L 901.653022 426.214715 
L 908.19537 436.666883 
L 914.737717 421.343915 
L 921.280065 427.852862 
L 927.822413 426.002757 
L 934.364761 420.623116 
L 940.907109 415.402502 
L 947.449457 414.859315 
L 953.991804 417.566662 
L 967.0765 420.354816 
L 967.0765 420.354816 
" clip-path="url(#p2e754b5ff6)" style="fill: none; stroke: #9a5689; stroke-width: 1.5; stroke-linecap: square"/>
   </g>
   <g id="line2d_60">
    <path d="M 64.2325 578.14724 
L 70.774848 577.943163 
L 90.401891 576.778922 
L 96.944239 576.254438 
L 116.571283 575.060556 
L 123.11363 574.93564 
L 129.655978 574.259186 
L 136.198326 573.862794 
L 142.740674 574.38469 
L 149.283022 573.19916 
L 168.910065 572.054916 
L 175.452413 571.541018 
L 195.079457 570.393362 
L 208.164152 569.362508 
L 221.248848 568.620184 
L 227.791196 568.506677 
L 234.333543 567.427243 
L 240.875891 566.909346 
L 247.418239 566.626814 
L 253.960587 565.833324 
L 273.58763 563.937346 
L 280.129978 559.81969 
L 286.672326 556.828752 
L 293.214674 558.026633 
L 299.757022 554.948889 
L 306.29937 554.261613 
L 312.841717 554.344656 
L 319.384065 554.717876 
L 325.926413 552.046405 
L 332.468761 551.839975 
L 345.553457 554.694234 
L 352.095804 552.547717 
L 358.638152 554.211153 
L 365.1805 556.969901 
L 371.722848 556.60809 
L 378.265196 555.20672 
L 384.807543 553.274632 
L 397.892239 556.46306 
L 404.434587 557.053414 
L 410.976935 556.892269 
L 417.519283 557.063059 
L 424.06163 558.096266 
L 430.603978 556.688427 
L 437.146326 556.549984 
L 443.688674 556.522931 
L 450.231022 556.059493 
L 456.77337 556.244986 
L 463.315717 556.646553 
L 469.858065 556.268863 
M 482.942761 556.17053 
L 489.485109 555.680744 
L 496.027457 555.787311 
L 502.569804 555.23742 
L 509.112152 554.917013 
L 515.6545 555.065337 
L 522.196848 555.025462 
L 528.739196 554.866082 
L 541.823891 553.800999 
L 548.366239 554.076709 
L 554.908587 554.467455 
L 561.450935 554.379943 
L 567.993283 553.816878 
L 574.53563 554.052596 
L 581.077978 554.127993 
L 587.620326 554.42464 
L 594.162674 553.81182 
L 600.705022 553.400842 
L 607.24737 552.550187 
L 613.789717 552.354814 
L 620.332065 551.960304 
L 626.874413 551.6853 
L 633.416761 551.106238 
L 646.501457 551.460285 
L 653.043804 551.324547 
L 659.586152 552.112156 
L 666.1285 551.275969 
L 672.670848 550.153838 
L 679.213196 549.243665 
L 685.755543 548.897263 
L 692.297891 548.811162 
L 698.840239 548.066957 
L 705.382587 547.745138 
L 711.924935 547.576818 
L 725.00963 547.023987 
L 731.551978 546.936475 
L 738.094326 546.242024 
L 744.636674 546.096758 
L 751.179022 546.444454 
L 757.72137 546.45904 
L 764.263717 545.14577 
L 770.806065 545.309973 
L 777.348413 545.290683 
L 783.890761 545.016266 
L 790.433109 544.528833 
L 796.975457 544.578588 
L 803.517804 544.274178 
L 810.060152 543.507035 
L 816.6025 544.266062 
L 823.144848 542.376318 
L 836.229543 541.26442 
L 842.771891 544.175609 
L 849.314239 544.637871 
L 855.856587 541.857832 
L 862.398935 540.220274 
L 868.941283 539.085322 
L 875.48363 537.203342 
L 882.025978 539.816354 
L 888.568326 539.803533 
L 895.110674 539.966442 
L 901.653022 539.425255 
L 908.19537 541.755147 
L 914.737717 539.246584 
L 921.280065 541.754206 
L 927.822413 540.562795 
L 934.364761 539.253171 
L 940.907109 538.561896 
L 947.449457 538.176561 
L 953.991804 538.302889 
L 960.534152 538.893478 
L 967.0765 540.973772 
L 967.0765 540.973772 
" clip-path="url(#p2e754b5ff6)" style="fill: none; stroke: #be503b; stroke-width: 1.5; stroke-linecap: square"/>
   </g>
   <g id="line2d_61">
    <path d="M 64.2325 574.347756 
L 90.401891 568.153217 
L 96.944239 565.817091 
L 103.486587 563.065518 
L 110.028935 559.899086 
L 116.571283 559.217691 
L 123.11363 557.793385 
L 129.655978 554.301135 
L 136.198326 552.17979 
L 142.740674 554.823267 
L 149.283022 548.114359 
L 155.82537 545.519696 
L 162.367717 544.405799 
L 168.910065 544.437675 
L 175.452413 541.799138 
L 181.994761 538.597889 
L 195.079457 534.317089 
L 201.621804 531.590452 
L 208.164152 527.94435 
L 214.7065 522.903701 
L 221.248848 520.962908 
L 227.791196 520.958556 
L 234.333543 514.848471 
L 240.875891 514.854823 
L 247.418239 515.022907 
L 253.960587 510.712701 
L 260.502935 510.091177 
L 267.045283 507.176107 
L 273.58763 503.851706 
L 280.129978 505.125219 
L 286.672326 500.904642 
L 293.214674 498.623917 
L 299.757022 495.380088 
L 306.29937 498.280455 
L 312.841717 499.164516 
L 319.384065 493.439296 
L 325.926413 490.114307 
L 339.011109 487.852754 
L 345.553457 485.528979 
L 352.095804 480.675351 
L 358.638152 463.607552 
L 365.1805 395.922357 
L 371.722848 452.309317 
L 378.265196 453.159266 
L 384.807543 453.725507 
L 391.349891 460.357606 
L 397.892239 462.649035 
L 404.434587 466.387119 
L 410.976935 468.941202 
L 417.519283 476.887983 
L 424.06163 474.536683 
L 430.603978 459.668213 
L 437.146326 458.644534 
L 443.688674 459.635279 
L 450.231022 463.46111 
L 456.77337 466.3356 
L 463.315717 465.221468 
L 469.858065 457.764708 
M 482.942761 464.274831 
L 489.485109 466.571083 
L 496.027457 457.224462 
L 502.569804 471.428239 
L 509.112152 454.983729 
L 515.6545 451.195772 
L 522.196848 461.400106 
L 528.739196 464.873183 
L 535.281543 455.488923 
L 541.823891 464.280477 
L 548.366239 467.142382 
L 554.908587 466.408644 
L 561.450935 464.876712 
L 567.993283 465.524819 
L 574.53563 462.522237 
L 581.077978 464.024998 
L 587.620326 469.244319 
L 594.162674 461.703575 
L 600.705022 461.003243 
L 607.24737 458.459747 
L 613.789717 457.279039 
L 620.332065 452.111826 
L 626.874413 448.77778 
L 633.416761 446.372139 
L 639.959109 443.609862 
L 646.501457 443.251697 
L 653.043804 439.049235 
L 659.586152 439.544431 
L 666.1285 435.155417 
L 672.670848 432.211882 
L 679.213196 426.950923 
L 685.755543 421.044915 
L 692.297891 419.475226 
L 698.840239 409.42839 
L 705.382587 408.461758 
L 711.924935 405.296149 
L 718.467283 391.192587 
L 725.00963 389.112292 
L 731.551978 389.289434 
L 738.094326 392.13687 
L 744.636674 391.648849 
L 751.179022 387.63235 
L 757.72137 402.5394 
L 764.263717 389.297785 
L 770.806065 390.146205 
L 777.348413 388.96938 
L 783.890761 376.879537 
L 790.433109 385.033805 
L 796.975457 387.650464 
L 803.517804 385.104497 
L 810.060152 383.282034 
L 816.6025 381.112817 
L 823.144848 375.1033 
L 829.687196 372.720124 
L 836.229543 372.344669 
L 842.771891 397.659895 
L 849.314239 390.470847 
L 855.856587 367.004667 
L 862.398935 380.085726 
L 868.941283 370.22603 
L 875.48363 368.574356 
L 882.025978 364.032549 
L 888.568326 370.24038 
L 895.110674 363.27317 
L 901.653022 362.265252 
L 908.19537 372.698011 
L 914.737717 363.902575 
L 921.280065 374.549174 
L 927.822413 378.159166 
L 934.364761 361.164176 
L 940.907109 357.687922 
L 947.449457 355.060325 
L 953.991804 356.332543 
L 960.534152 351.116399 
L 967.0765 349.444612 
L 967.0765 349.444612 
" clip-path="url(#p2e754b5ff6)" style="fill: none; stroke: #e2321d; stroke-width: 1.5; stroke-linecap: square"/>
   </g>
   <g id="line2d_62">
    <path d="M 64.2325 578.54175 
L 136.198326 578.526341 
L 149.283022 578.227224 
L 155.82537 578.166295 
L 162.367717 577.716266 
L 168.910065 576.37559 
L 181.994761 573.951835 
L 188.537109 572.557287 
L 195.079457 571.289773 
L 201.621804 569.845824 
L 208.164152 567.894916 
L 214.7065 566.254064 
L 221.248848 564.322093 
L 227.791196 562.885907 
L 234.333543 558.526887 
L 240.875891 556.87839 
L 247.418239 554.08259 
L 253.960587 550.821235 
L 260.502935 547.728553 
L 267.045283 543.250028 
L 273.58763 538.913709 
L 280.129978 535.498385 
L 286.672326 529.710354 
L 293.214674 525.591169 
L 299.757022 520.363733 
L 306.29937 516.136099 
L 312.841717 513.844199 
L 319.384065 510.080003 
L 325.926413 505.462916 
L 332.468761 500.205251 
L 339.011109 488.425347 
L 345.553457 482.356783 
L 352.095804 487.914742 
L 358.638152 481.953921 
L 365.1805 470.746374 
L 371.722848 461.656291 
L 378.265196 459.748315 
L 384.807543 453.089398 
L 391.349891 445.739087 
L 397.892239 458.906364 
L 404.434587 462.210416 
L 410.976935 460.079073 
L 417.519283 461.570778 
L 424.06163 464.251189 
L 430.603978 454.916095 
L 437.146326 458.500092 
L 443.688674 453.973105 
L 450.231022 452.066776 
L 456.77337 456.746086 
L 463.315717 458.298955 
L 469.858065 454.070615 
M 482.942761 453.774674 
L 489.485109 450.838314 
L 496.027457 450.683756 
L 502.569804 444.840559 
L 509.112152 448.099797 
L 515.6545 445.053576 
L 522.196848 444.176455 
L 528.739196 438.358548 
L 535.281543 436.427283 
L 541.823891 430.823333 
L 548.366239 420.957285 
L 554.908587 421.350501 
L 561.450935 414.280606 
L 567.993283 412.556477 
L 574.53563 397.322433 
L 581.077978 387.400514 
L 587.620326 398.595122 
L 594.162674 386.703475 
L 600.705022 396.545998 
L 607.24737 378.682709 
L 613.789717 381.421697 
L 620.332065 357.615466 
L 626.874413 345.729347 
L 633.416761 326.285548 
L 639.959109 328.546159 
L 646.501457 323.63419 
L 653.043804 326.716639 
L 659.586152 316.447965 
L 666.1285 293.353594 
L 672.670848 301.145817 
L 679.213196 299.22055 
L 685.755543 307.036533 
L 692.297891 293.505211 
L 698.840239 276.348253 
L 705.382587 267.904277 
L 711.924935 253.157783 
L 718.467283 254.057252 
L 725.00963 225.025938 
L 731.551978 222.466797 
L 738.094326 208.435103 
L 744.636674 209.758723 
L 751.179022 198.119262 
L 757.72137 231.619221 
L 764.263717 209.246825 
L 770.806065 202.026724 
L 777.348413 202.849855 
L 783.890761 202.616607 
L 790.433109 195.356867 
L 803.517804 171.006156 
L 810.060152 173.574589 
L 816.6025 171.592511 
L 823.144848 162.044165 
L 829.687196 147.707237 
L 836.229543 138.413429 
L 842.771891 189.888773 
L 849.314239 163.792995 
L 855.856587 128.414467 
L 862.398935 131.76992 
L 868.941283 124.457603 
L 875.48363 147.499278 
L 882.025978 144.943549 
L 888.568326 143.290347 
L 895.110674 144.127828 
L 901.653022 142.821969 
L 908.19537 170.878887 
L 914.737717 167.37264 
L 921.280065 147.583144 
L 927.822413 162.886704 
L 934.364761 145.387461 
L 940.907109 114.302788 
L 947.449457 107.097391 
L 953.991804 79.063291 
L 960.534152 63.313701 
L 967.0765 51.427818 
L 967.0765 51.427818 
" clip-path="url(#p2e754b5ff6)" style="fill: none; stroke: #48b585; stroke-width: 6; stroke-linecap: square"/>
   </g>
   <g id="patch_3">
    <path d="M 64.2325 578.54175 
L 64.2325 24.14175 
" style="fill: none; stroke: #ffffff; stroke-linejoin: miter; stroke-linecap: square"/>
   </g>
   <g id="patch_4">
    <path d="M 967.0765 578.54175 
L 967.0765 24.14175 
" style="fill: none; stroke: #ffffff; stroke-linejoin: miter; stroke-linecap: square"/>
   </g>
   <g id="patch_5">
    <path d="M 64.2325 578.54175 
L 967.0765 578.54175 
" style="fill: none; stroke: #ffffff; stroke-linejoin: miter; stroke-linecap: square"/>
   </g>
   <g id="patch_6">
    <path d="M 64.2325 24.14175 
L 967.0765 24.14175 
" style="fill: none; stroke: #ffffff; stroke-linejoin: miter; stroke-linecap: square"/>
   </g>
   <g id="text_29">
    <!-- Enterprise Linux Instances by Distribution (System Age &gt; 1 Week, 2 Week Resample) -->
    <g transform="translate(64.2325 18.14175) scale(0.144 -0.144)">
     <defs>
      <path id="DejaVuSans-45" d="M 628 4666 
L 3578 4666 
L 3578 4134 
L 1259 4134 
L 1259 2753 
L 3481 2753 
L 3481 2222 
L 1259 2222 
L 1259 531 
L 3634 531 
L 3634 0 
L 628 0 
L 628 4666 
z
" transform="scale(0.015625)"/>
      <path id="DejaVuSans-72" d="M 2631 2963 
Q 2534 3019 2420 3045 
Q 2306 3072 2169 3072 
Q 1681 3072 1420 2755 
Q 1159 2438 1159 1844 
L 1159 0 
L 581 0 
L 581 3500 
L 1159 3500 
L 1159 2956 
Q 1341 3275 1631 3429 
Q 1922 3584 2338 3584 
Q 2397 3584 2469 3576 
Q 2541 3569 2628 3553 
L 2631 2963 
z
" transform="scale(0.015625)"/>
      <path id="DejaVuSans-70" d="M 1159 525 
L 1159 -1331 
L 581 -1331 
L 581 3500 
L 1159 3500 
L 1159 2969 
Q 1341 3281 1617 3432 
Q 1894 3584 2278 3584 
Q 2916 3584 3314 3078 
Q 3713 2572 3713 1747 
Q 3713 922 3314 415 
Q 2916 -91 2278 -91 
Q 1894 -91 1617 61 
Q 1341 213 1159 525 
z
M 3116 1747 
Q 3116 2381 2855 2742 
Q 2594 3103 2138 3103 
Q 1681 3103 1420 2742 
Q 1159 2381 1159 1747 
Q 1159 1113 1420 752 
Q 1681 391 2138 391 
Q 2594 391 2855 752 
Q 3116 1113 3116 1747 
z
" transform="scale(0.015625)"/>
      <path id="DejaVuSans-69" d="M 603 3500 
L 1178 3500 
L 1178 0 
L 603 0 
L 603 3500 
z
M 603 4863 
L 1178 4863 
L 1178 4134 
L 603 4134 
L 603 4863 
z
" transform="scale(0.015625)"/>
      <path id="DejaVuSans-20" transform="scale(0.015625)"/>
      <path id="DejaVuSans-4c" d="M 628 4666 
L 1259 4666 
L 1259 531 
L 3531 531 
L 3531 0 
L 628 0 
L 628 4666 
z
" transform="scale(0.015625)"/>
      <path id="DejaVuSans-75" d="M 544 1381 
L 544 3500 
L 1119 3500 
L 1119 1403 
Q 1119 906 1312 657 
Q 1506 409 1894 409 
Q 2359 409 2629 706 
Q 2900 1003 2900 1516 
L 2900 3500 
L 3475 3500 
L 3475 0 
L 2900 0 
L 2900 538 
Q 2691 219 2414 64 
Q 2138 -91 1772 -91 
Q 1169 -91 856 284 
Q 544 659 544 1381 
z
M 1991 3584 
L 1991 3584 
z
" transform="scale(0.015625)"/>
      <path id="DejaVuSans-78" d="M 3513 3500 
L 2247 1797 
L 3578 0 
L 2900 0 
L 1881 1375 
L 863 0 
L 184 0 
L 1544 1831 
L 300 3500 
L 978 3500 
L 1906 2253 
L 2834 3500 
L 3513 3500 
z
" transform="scale(0.015625)"/>
      <path id="DejaVuSans-62" d="M 3116 1747 
Q 3116 2381 2855 2742 
Q 2594 3103 2138 3103 
Q 1681 3103 1420 2742 
Q 1159 2381 1159 1747 
Q 1159 1113 1420 752 
Q 1681 391 2138 391 
Q 2594 391 2855 752 
Q 3116 1113 3116 1747 
z
M 1159 2969 
Q 1341 3281 1617 3432 
Q 1894 3584 2278 3584 
Q 2916 3584 3314 3078 
Q 3713 2572 3713 1747 
Q 3713 922 3314 415 
Q 2916 -91 2278 -91 
Q 1894 -91 1617 61 
Q 1341 213 1159 525 
L 1159 0 
L 581 0 
L 581 4863 
L 1159 4863 
L 1159 2969 
z
" transform="scale(0.015625)"/>
      <path id="DejaVuSans-79" d="M 2059 -325 
Q 1816 -950 1584 -1140 
Q 1353 -1331 966 -1331 
L 506 -1331 
L 506 -850 
L 844 -850 
Q 1081 -850 1212 -737 
Q 1344 -625 1503 -206 
L 1606 56 
L 191 3500 
L 800 3500 
L 1894 763 
L 2988 3500 
L 3597 3500 
L 2059 -325 
z
" transform="scale(0.015625)"/>
      <path id="DejaVuSans-6f" d="M 1959 3097 
Q 1497 3097 1228 2736 
Q 959 2375 959 1747 
Q 959 1119 1226 758 
Q 1494 397 1959 397 
Q 2419 397 2687 759 
Q 2956 1122 2956 1747 
Q 2956 2369 2687 2733 
Q 2419 3097 1959 3097 
z
M 1959 3584 
Q 2709 3584 3137 3096 
Q 3566 2609 3566 1747 
Q 3566 888 3137 398 
Q 2709 -91 1959 -91 
Q 1206 -91 779 398 
Q 353 888 353 1747 
Q 353 2609 779 3096 
Q 1206 3584 1959 3584 
z
" transform="scale(0.015625)"/>
      <path id="DejaVuSans-28" d="M 1984 4856 
Q 1566 4138 1362 3434 
Q 1159 2731 1159 2009 
Q 1159 1288 1364 580 
Q 1569 -128 1984 -844 
L 1484 -844 
Q 1016 -109 783 600 
Q 550 1309 550 2009 
Q 550 2706 781 3412 
Q 1013 4119 1484 4856 
L 1984 4856 
z
" transform="scale(0.015625)"/>
      <path id="DejaVuSans-53" d="M 3425 4513 
L 3425 3897 
Q 3066 4069 2747 4153 
Q 2428 4238 2131 4238 
Q 1616 4238 1336 4038 
Q 1056 3838 1056 3469 
Q 1056 3159 1242 3001 
Q 1428 2844 1947 2747 
L 2328 2669 
Q 3034 2534 3370 2195 
Q 3706 1856 3706 1288 
Q 3706 609 3251 259 
Q 2797 -91 1919 -91 
Q 1588 -91 1214 -16 
Q 841 59 441 206 
L 441 856 
Q 825 641 1194 531 
Q 1563 422 1919 422 
Q 2459 422 2753 634 
Q 3047 847 3047 1241 
Q 3047 1584 2836 1778 
Q 2625 1972 2144 2069 
L 1759 2144 
Q 1053 2284 737 2584 
Q 422 2884 422 3419 
Q 422 4038 858 4394 
Q 1294 4750 2059 4750 
Q 2388 4750 2728 4690 
Q 3069 4631 3425 4513 
z
" transform="scale(0.015625)"/>
      <path id="DejaVuSans-6d" d="M 3328 2828 
Q 3544 3216 3844 3400 
Q 4144 3584 4550 3584 
Q 5097 3584 5394 3201 
Q 5691 2819 5691 2113 
L 5691 0 
L 5113 0 
L 5113 2094 
Q 5113 2597 4934 2840 
Q 4756 3084 4391 3084 
Q 3944 3084 3684 2787 
Q 3425 2491 3425 1978 
L 3425 0 
L 2847 0 
L 2847 2094 
Q 2847 2600 2669 2842 
Q 2491 3084 2119 3084 
Q 1678 3084 1418 2786 
Q 1159 2488 1159 1978 
L 1159 0 
L 581 0 
L 581 3500 
L 1159 3500 
L 1159 2956 
Q 1356 3278 1631 3431 
Q 1906 3584 2284 3584 
Q 2666 3584 2933 3390 
Q 3200 3197 3328 2828 
z
" transform="scale(0.015625)"/>
      <path id="DejaVuSans-41" d="M 2188 4044 
L 1331 1722 
L 3047 1722 
L 2188 4044 
z
M 1831 4666 
L 2547 4666 
L 4325 0 
L 3669 0 
L 3244 1197 
L 1141 1197 
L 716 0 
L 50 0 
L 1831 4666 
z
" transform="scale(0.015625)"/>
      <path id="DejaVuSans-67" d="M 2906 1791 
Q 2906 2416 2648 2759 
Q 2391 3103 1925 3103 
Q 1463 3103 1205 2759 
Q 947 2416 947 1791 
Q 947 1169 1205 825 
Q 1463 481 1925 481 
Q 2391 481 2648 825 
Q 2906 1169 2906 1791 
z
M 3481 434 
Q 3481 -459 3084 -895 
Q 2688 -1331 1869 -1331 
Q 1566 -1331 1297 -1286 
Q 1028 -1241 775 -1147 
L 775 -588 
Q 1028 -725 1275 -790 
Q 1522 -856 1778 -856 
Q 2344 -856 2625 -561 
Q 2906 -266 2906 331 
L 2906 616 
Q 2728 306 2450 153 
Q 2172 0 1784 0 
Q 1141 0 747 490 
Q 353 981 353 1791 
Q 353 2603 747 3093 
Q 1141 3584 1784 3584 
Q 2172 3584 2450 3431 
Q 2728 3278 2906 2969 
L 2906 3500 
L 3481 3500 
L 3481 434 
z
" transform="scale(0.015625)"/>
      <path id="DejaVuSans-3e" d="M 678 3150 
L 678 3719 
L 4684 2266 
L 4684 1747 
L 678 294 
L 678 863 
L 3897 2003 
L 678 3150 
z
" transform="scale(0.015625)"/>
      <path id="DejaVuSans-57" d="M 213 4666 
L 850 4666 
L 1831 722 
L 2809 4666 
L 3519 4666 
L 4500 722 
L 5478 4666 
L 6119 4666 
L 4947 0 
L 4153 0 
L 3169 4050 
L 2175 0 
L 1381 0 
L 213 4666 
z
" transform="scale(0.015625)"/>
      <path id="DejaVuSans-52" d="M 2841 2188 
Q 3044 2119 3236 1894 
Q 3428 1669 3622 1275 
L 4263 0 
L 3584 0 
L 2988 1197 
Q 2756 1666 2539 1819 
Q 2322 1972 1947 1972 
L 1259 1972 
L 1259 0 
L 628 0 
L 628 4666 
L 2053 4666 
Q 2853 4666 3247 4331 
Q 3641 3997 3641 3322 
Q 3641 2881 3436 2590 
Q 3231 2300 2841 2188 
z
M 1259 4147 
L 1259 2491 
L 2053 2491 
Q 2509 2491 2742 2702 
Q 2975 2913 2975 3322 
Q 2975 3731 2742 3939 
Q 2509 4147 2053 4147 
L 1259 4147 
z
" transform="scale(0.015625)"/>
      <path id="DejaVuSans-6c" d="M 603 4863 
L 1178 4863 
L 1178 0 
L 603 0 
L 603 4863 
z
" transform="scale(0.015625)"/>
      <path id="DejaVuSans-29" d="M 513 4856 
L 1013 4856 
Q 1481 4119 1714 3412 
Q 1947 2706 1947 2009 
Q 1947 1309 1714 600 
Q 1481 -109 1013 -844 
L 513 -844 
Q 928 -128 1133 580 
Q 1338 1288 1338 2009 
Q 1338 2731 1133 3434 
Q 928 4138 513 4856 
z
" transform="scale(0.015625)"/>
     </defs>
     <use xlink:href="#DejaVuSans-45"/>
     <use xlink:href="#DejaVuSans-6e" x="63.183594"/>
     <use xlink:href="#DejaVuSans-74" x="126.5625"/>
     <use xlink:href="#DejaVuSans-65" x="165.771484"/>
     <use xlink:href="#DejaVuSans-72" x="227.294922"/>
     <use xlink:href="#DejaVuSans-70" x="268.408203"/>
     <use xlink:href="#DejaVuSans-72" x="331.884766"/>
     <use xlink:href="#DejaVuSans-69" x="372.998047"/>
     <use xlink:href="#DejaVuSans-73" x="400.78125"/>
     <use xlink:href="#DejaVuSans-65" x="452.880859"/>
     <use xlink:href="#DejaVuSans-20" x="514.404297"/>
     <use xlink:href="#DejaVuSans-4c" x="546.191406"/>
     <use xlink:href="#DejaVuSans-69" x="601.904297"/>
     <use xlink:href="#DejaVuSans-6e" x="629.6875"/>
     <use xlink:href="#DejaVuSans-75" x="693.066406"/>
     <use xlink:href="#DejaVuSans-78" x="756.445312"/>
     <use xlink:href="#DejaVuSans-20" x="815.625"/>
     <use xlink:href="#DejaVuSans-49" x="847.412109"/>
     <use xlink:href="#DejaVuSans-6e" x="876.904297"/>
     <use xlink:href="#DejaVuSans-73" x="940.283203"/>
     <use xlink:href="#DejaVuSans-74" x="992.382812"/>
     <use xlink:href="#DejaVuSans-61" x="1031.591797"/>
     <use xlink:href="#DejaVuSans-6e" x="1092.871094"/>
     <use xlink:href="#DejaVuSans-63" x="1156.25"/>
     <use xlink:href="#DejaVuSans-65" x="1211.230469"/>
     <use xlink:href="#DejaVuSans-73" x="1272.753906"/>
     <use xlink:href="#DejaVuSans-20" x="1324.853516"/>
     <use xlink:href="#DejaVuSans-62" x="1356.640625"/>
     <use xlink:href="#DejaVuSans-79" x="1420.117188"/>
     <use xlink:href="#DejaVuSans-20" x="1479.296875"/>
     <use xlink:href="#DejaVuSans-44" x="1511.083984"/>
     <use xlink:href="#DejaVuSans-69" x="1588.085938"/>
     <use xlink:href="#DejaVuSans-73" x="1615.869141"/>
     <use xlink:href="#DejaVuSans-74" x="1667.96875"/>
     <use xlink:href="#DejaVuSans-72" x="1707.177734"/>
     <use xlink:href="#DejaVuSans-69" x="1748.291016"/>
     <use xlink:href="#DejaVuSans-62" x="1776.074219"/>
     <use xlink:href="#DejaVuSans-75" x="1839.550781"/>
     <use xlink:href="#DejaVuSans-74" x="1902.929688"/>
     <use xlink:href="#DejaVuSans-69" x="1942.138672"/>
     <use xlink:href="#DejaVuSans-6f" x="1969.921875"/>
     <use xlink:href="#DejaVuSans-6e" x="2031.103516"/>
     <use xlink:href="#DejaVuSans-20" x="2094.482422"/>
     <use xlink:href="#DejaVuSans-28" x="2126.269531"/>
     <use xlink:href="#DejaVuSans-53" x="2165.283203"/>
     <use xlink:href="#DejaVuSans-79" x="2228.759766"/>
     <use xlink:href="#DejaVuSans-73" x="2287.939453"/>
     <use xlink:href="#DejaVuSans-74" x="2340.039062"/>
     <use xlink:href="#DejaVuSans-65" x="2379.248047"/>
     <use xlink:href="#DejaVuSans-6d" x="2440.771484"/>
     <use xlink:href="#DejaVuSans-20" x="2538.183594"/>
     <use xlink:href="#DejaVuSans-41" x="2569.970703"/>
     <use xlink:href="#DejaVuSans-67" x="2638.378906"/>
     <use xlink:href="#DejaVuSans-65" x="2701.855469"/>
     <use xlink:href="#DejaVuSans-20" x="2763.378906"/>
     <use xlink:href="#DejaVuSans-3e" x="2795.166016"/>
     <use xlink:href="#DejaVuSans-20" x="2878.955078"/>
     <use xlink:href="#DejaVuSans-31" x="2910.742188"/>
     <use xlink:href="#DejaVuSans-20" x="2974.365234"/>
     <use xlink:href="#DejaVuSans-57" x="3006.152344"/>
     <use xlink:href="#DejaVuSans-65" x="3099.154297"/>
     <use xlink:href="#DejaVuSans-65" x="3160.677734"/>
     <use xlink:href="#DejaVuSans-6b" x="3222.201172"/>
     <use xlink:href="#DejaVuSans-2c" x="3280.111328"/>
     <use xlink:href="#DejaVuSans-20" x="3311.898438"/>
     <use xlink:href="#DejaVuSans-32" x="3343.685547"/>
     <use xlink:href="#DejaVuSans-20" x="3407.308594"/>
     <use xlink:href="#DejaVuSans-57" x="3439.095703"/>
     <use xlink:href="#DejaVuSans-65" x="3532.097656"/>
     <use xlink:href="#DejaVuSans-65" x="3593.621094"/>
     <use xlink:href="#DejaVuSans-6b" x="3655.144531"/>
     <use xlink:href="#DejaVuSans-20" x="3713.054688"/>
     <use xlink:href="#DejaVuSans-52" x="3744.841797"/>
     <use xlink:href="#DejaVuSans-65" x="3809.824219"/>
     <use xlink:href="#DejaVuSans-73" x="3871.347656"/>
     <use xlink:href="#DejaVuSans-61" x="3923.447266"/>
     <use xlink:href="#DejaVuSans-6d" x="3984.726562"/>
     <use xlink:href="#DejaVuSans-70" x="4082.138672"/>
     <use xlink:href="#DejaVuSans-6c" x="4145.615234"/>
     <use xlink:href="#DejaVuSans-65" x="4173.398438"/>
     <use xlink:href="#DejaVuSans-29" x="4234.921875"/>
    </g>
   </g>
   <g id="text_30">
    <!-- 2026-04-02 12:39 UTC -->
    <g transform="translate(804.1945 18.14175) scale(0.144 -0.144)">
     <defs>
      <path id="DejaVuSans-3a" d="M 750 794 
L 1409 794 
L 1409 0 
L 750 0 
L 750 794 
z
M 750 3309 
L 1409 3309 
L 1409 2516 
L 750 2516 
L 750 3309 
z
" transform="scale(0.015625)"/>
      <path id="DejaVuSans-39" d="M 703 97 
L 703 672 
Q 941 559 1184 500 
Q 1428 441 1663 441 
Q 2288 441 2617 861 
Q 2947 1281 2994 2138 
Q 2813 1869 2534 1725 
Q 2256 1581 1919 1581 
Q 1219 1581 811 2004 
Q 403 2428 403 3163 
Q 403 3881 828 4315 
Q 1253 4750 1959 4750 
Q 2769 4750 3195 4129 
Q 3622 3509 3622 2328 
Q 3622 1225 3098 567 
Q 2575 -91 1691 -91 
Q 1453 -91 1209 -44 
Q 966 3 703 97 
z
M 1959 2075 
Q 2384 2075 2632 2365 
Q 2881 2656 2881 3163 
Q 2881 3666 2632 3958 
Q 2384 4250 1959 4250 
Q 1534 4250 1286 3958 
Q 1038 3666 1038 3163 
Q 1038 2656 1286 2365 
Q 1534 2075 1959 2075 
z
" transform="scale(0.015625)"/>
      <path id="DejaVuSans-55" d="M 556 4666 
L 1191 4666 
L 1191 1831 
Q 1191 1081 1462 751 
Q 1734 422 2344 422 
Q 2950 422 3222 751 
Q 3494 1081 3494 1831 
L 3494 4666 
L 4128 4666 
L 4128 1753 
Q 4128 841 3676 375 
Q 3225 -91 2344 -91 
Q 1459 -91 1007 375 
Q 556 841 556 1753 
L 556 4666 
z
" transform="scale(0.015625)"/>
      <path id="DejaVuSans-54" d="M -19 4666 
L 3928 4666 
L 3928 4134 
L 2272 4134 
L 2272 0 
L 1638 0 
L 1638 4134 
L -19 4134 
L -19 4666 
z
" transform="scale(0.015625)"/>
      <path id="DejaVuSans-43" d="M 4122 4306 
L 4122 3641 
Q 3803 3938 3442 4084 
Q 3081 4231 2675 4231 
Q 1875 4231 1450 3742 
Q 1025 3253 1025 2328 
Q 1025 1406 1450 917 
Q 1875 428 2675 428 
Q 3081 428 3442 575 
Q 3803 722 4122 1019 
L 4122 359 
Q 3791 134 3420 21 
Q 3050 -91 2638 -91 
Q 1578 -91 968 557 
Q 359 1206 359 2328 
Q 359 3453 968 4101 
Q 1578 4750 2638 4750 
Q 3056 4750 3426 4639 
Q 3797 4528 4122 4306 
z
" transform="scale(0.015625)"/>
     </defs>
     <use xlink:href="#DejaVuSans-32"/>
     <use xlink:href="#DejaVuSans-30" x="63.623047"/>
     <use xlink:href="#DejaVuSans-32" x="127.246094"/>
     <use xlink:href="#DejaVuSans-36" x="190.869141"/>
     <use xlink:href="#DejaVuSans-2d" x="254.492188"/>
     <use xlink:href="#DejaVuSans-30" x="290.576172"/>
     <use xlink:href="#DejaVuSans-34" x="354.199219"/>
     <use xlink:href="#DejaVuSans-2d" x="417.822266"/>
     <use xlink:href="#DejaVuSans-30" x="453.90625"/>
     <use xlink:href="#DejaVuSans-32" x="517.529297"/>
     <use xlink:href="#DejaVuSans-20" x="581.152344"/>
     <use xlink:href="#DejaVuSans-31" x="612.939453"/>
     <use xlink:href="#DejaVuSans-32" x="676.5625"/>
     <use xlink:href="#DejaVuSans-3a" x="740.185547"/>
     <use xlink:href="#DejaVuSans-33" x="773.876953"/>
     <use xlink:href="#DejaVuSans-39" x="837.5"/>
     <use xlink:href="#DejaVuSans-20" x="901.123047"/>
     <use xlink:href="#DejaVuSans-55" x="932.910156"/>
     <use xlink:href="#DejaVuSans-54" x="1006.103516"/>
     <use xlink:href="#DejaVuSans-43" x="1061.3125"/>
    </g>
   </g>
   <g id="legend_1">
    <g id="patch_7">
     <path d="M 71.2325 120.2105 
L 180.20125 120.2105 
Q 182.20125 120.2105 182.20125 118.2105 
L 182.20125 31.14175 
Q 182.20125 29.14175 180.20125 29.14175 
L 71.2325 29.14175 
Q 69.2325 29.14175 69.2325 31.14175 
L 69.2325 118.2105 
Q 69.2325 120.2105 71.2325 120.2105 
z
" style="fill: #e5e5e5; opacity: 0.8; stroke: #cccccc; stroke-width: 0.5; stroke-linejoin: miter"/>
    </g>
    <g id="text_31">
     <!-- Distribution -->
     <g transform="translate(96.548125 40.740188) scale(0.1 -0.1)">
      <use xlink:href="#DejaVuSans-44"/>
      <use xlink:href="#DejaVuSans-69" x="77.001953"/>
      <use xlink:href="#DejaVuSans-73" x="104.785156"/>
      <use xlink:href="#DejaVuSans-74" x="156.884766"/>
      <use xlink:href="#DejaVuSans-72" x="196.09375"/>
      <use xlink:href="#DejaVuSans-69" x="237.207031"/>
      <use xlink:href="#DejaVuSans-62" x="264.990234"/>
      <use xlink:href="#DejaVuSans-75" x="328.466797"/>
      <use xlink:href="#DejaVuSans-74" x="391.845703"/>
      <use xlink:href="#DejaVuSans-69" x="431.054688"/>
      <use xlink:href="#DejaVuSans-6f" x="458.837891"/>
      <use xlink:href="#DejaVuSans-6e" x="520.019531"/>
     </g>
    </g>
    <g id="line2d_63">
     <path d="M 73.2325 51.918313 
L 83.2325 51.918313 
L 93.2325 51.918313 
" style="fill: none; stroke: #4ac1fa; stroke-width: 1.5; stroke-linecap: square"/>
    </g>
    <g id="text_32">
     <!-- AlmaLinux -->
     <g transform="translate(101.2325 55.418313) scale(0.1 -0.1)">
      <use xlink:href="#DejaVuSans-41"/>
      <use xlink:href="#DejaVuSans-6c" x="68.408203"/>
      <use xlink:href="#DejaVuSans-6d" x="96.191406"/>
      <use xlink:href="#DejaVuSans-61" x="193.603516"/>
      <use xlink:href="#DejaVuSans-4c" x="254.882812"/>
      <use xlink:href="#DejaVuSans-69" x="310.595703"/>
      <use xlink:href="#DejaVuSans-6e" x="338.378906"/>
      <use xlink:href="#DejaVuSans-75" x="401.757812"/>
      <use xlink:href="#DejaVuSans-78" x="465.136719"/>
     </g>
    </g>
    <g id="line2d_64">
     <path d="M 73.2325 66.596438 
L 83.2325 66.596438 
L 93.2325 66.596438 
" style="fill: none; stroke: #9a5689; stroke-width: 1.5; stroke-linecap: square"/>
    </g>
    <g id="text_33">
     <!-- CentOS Stream -->
     <g transform="translate(101.2325 70.096438) scale(0.1 -0.1)">
      <defs>
       <path id="DejaVuSans-4f" d="M 2522 4238 
Q 1834 4238 1429 3725 
Q 1025 3213 1025 2328 
Q 1025 1447 1429 934 
Q 1834 422 2522 422 
Q 3209 422 3611 934 
Q 4013 1447 4013 2328 
Q 4013 3213 3611 3725 
Q 3209 4238 2522 4238 
z
M 2522 4750 
Q 3503 4750 4090 4092 
Q 4678 3434 4678 2328 
Q 4678 1225 4090 567 
Q 3503 -91 2522 -91 
Q 1538 -91 948 565 
Q 359 1222 359 2328 
Q 359 3434 948 4092 
Q 1538 4750 2522 4750 
z
" transform="scale(0.015625)"/>
      </defs>
      <use xlink:href="#DejaVuSans-43"/>
      <use xlink:href="#DejaVuSans-65" x="69.824219"/>
      <use xlink:href="#DejaVuSans-6e" x="131.347656"/>
      <use xlink:href="#DejaVuSans-74" x="194.726562"/>
      <use xlink:href="#DejaVuSans-4f" x="233.935547"/>
      <use xlink:href="#DejaVuSans-53" x="312.646484"/>
      <use xlink:href="#DejaVuSans-20" x="376.123047"/>
      <use xlink:href="#DejaVuSans-53" x="407.910156"/>
      <use xlink:href="#DejaVuSans-74" x="471.386719"/>
      <use xlink:href="#DejaVuSans-72" x="510.595703"/>
      <use xlink:href="#DejaVuSans-65" x="549.458984"/>
      <use xlink:href="#DejaVuSans-61" x="610.982422"/>
      <use xlink:href="#DejaVuSans-6d" x="672.261719"/>
     </g>
    </g>
    <g id="line2d_65">
     <path d="M 73.2325 81.274563 
L 83.2325 81.274563 
L 93.2325 81.274563 
" style="fill: none; stroke: #be503b; stroke-width: 1.5; stroke-linecap: square"/>
    </g>
    <g id="text_34">
     <!-- Oracle -->
     <g transform="translate(101.2325 84.774563) scale(0.1 -0.1)">
      <use xlink:href="#DejaVuSans-4f"/>
      <use xlink:href="#DejaVuSans-72" x="78.710938"/>
      <use xlink:href="#DejaVuSans-61" x="119.824219"/>
      <use xlink:href="#DejaVuSans-63" x="181.103516"/>
      <use xlink:href="#DejaVuSans-6c" x="236.083984"/>
      <use xlink:href="#DejaVuSans-65" x="263.867188"/>
     </g>
    </g>
    <g id="line2d_66">
     <path d="M 73.2325 95.952688 
L 83.2325 95.952688 
L 93.2325 95.952688 
" style="fill: none; stroke: #e2321d; stroke-width: 1.5; stroke-linecap: square"/>
    </g>
    <g id="text_35">
     <!-- RHEL -->
     <g transform="translate(101.2325 99.452688) scale(0.1 -0.1)">
      <defs>
       <path id="DejaVuSans-48" d="M 628 4666 
L 1259 4666 
L 1259 2753 
L 3553 2753 
L 3553 4666 
L 4184 4666 
L 4184 0 
L 3553 0 
L 3553 2222 
L 1259 2222 
L 1259 0 
L 628 0 
L 628 4666 
z
" transform="scale(0.015625)"/>
      </defs>
      <use xlink:href="#DejaVuSans-52"/>
      <use xlink:href="#DejaVuSans-48" x="69.482422"/>
      <use xlink:href="#DejaVuSans-45" x="144.677734"/>
      <use xlink:href="#DejaVuSans-4c" x="207.861328"/>
     </g>
    </g>
    <g id="line2d_67">
     <path d="M 73.2325 110.630813 
L 83.2325 110.630813 
L 93.2325 110.630813 
" style="fill: none; stroke: #48b585; stroke-width: 6; stroke-linecap: square"/>
    </g>
    <g id="text_36">
     <!-- Rocky Linux -->
     <g transform="translate(101.2325 114.130813) scale(0.1 -0.1)">
      <use xlink:href="#DejaVuSans-52"/>
      <use xlink:href="#DejaVuSans-6f" x="64.982422"/>
      <use xlink:href="#DejaVuSans-63" x="126.164062"/>
      <use xlink:href="#DejaVuSans-6b" x="181.144531"/>
      <use xlink:href="#DejaVuSans-79" x="235.429688"/>
      <use xlink:href="#DejaVuSans-20" x="294.609375"/>
      <use xlink:href="#DejaVuSans-4c" x="326.396484"/>
      <use xlink:href="#DejaVuSans-69" x="382.109375"/>
      <use xlink:href="#DejaVuSans-6e" x="409.892578"/>
      <use xlink:href="#DejaVuSans-75" x="473.271484"/>
      <use xlink:href="#DejaVuSans-78" x="536.650391"/>
     </g>
    </g>
   </g>
  </g>
 </g>
 <defs>
  <clipPath id="p2e754b5ff6">
   <rect x="64.2325" y="24.14175" width="902.844" height="554.4"/>
  </clipPath>
 </defs>
</svg>
