<?xml version="1.0" encoding="utf-8" standalone="no"?>
<!DOCTYPE svg PUBLIC "-//W3C//DTD SVG 1.1//EN"
  "http://www.w3.org/Graphics/SVG/1.1/DTD/svg11.dtd">
<svg xmlns:xlink="http://www.w3.org/1999/xlink" width="964.735875pt" height="633.943878pt" viewBox="0 0 964.735875 633.943878" xmlns="http://www.w3.org/2000/svg" version="1.1">
 <metadata>
  <rdf:RDF xmlns:dc="http://purl.org/dc/elements/1.1/" xmlns:cc="http://creativecommons.org/ns#" xmlns:rdf="http://www.w3.org/1999/02/22-rdf-syntax-ns#">
   <cc:Work>
    <dc:type rdf:resource="http://purl.org/dc/dcmitype/StillImage"/>
    <dc:date>2024-06-27T11:58:56.740809</dc:date>
    <dc:format>image/svg+xml</dc:format>
    <dc:creator>
     <cc:Agent>
      <dc:title>Matplotlib v3.5.1, https://matplotlib.org/</dc:title>
     </cc:Agent>
    </dc:creator>
   </cc:Work>
  </rdf:RDF>
 </metadata>
 <defs>
  <style type="text/css">*{stroke-linejoin: round; stroke-linecap: butt}</style>
 </defs>
 <g id="figure_1">
  <g id="patch_1">
   <path d="M 0 633.943878 
L 964.735875 633.943878 
L 964.735875 0 
L 0 0 
z
" style="fill: #ffffff"/>
  </g>
  <g id="axes_1">
   <g id="patch_2">
    <path d="M 54.691875 567.74175 
L 957.535875 567.74175 
L 957.535875 24.14175 
L 54.691875 24.14175 
z
" style="fill: #e5e5e5"/>
   </g>
   <g id="matplotlib.axis_1">
    <g id="xtick_1">
     <g id="line2d_1">
      <path d="M 98.544298 567.74175 
L 98.544298 24.14175 
" clip-path="url(#pf70b8378b5)" style="fill: none; stroke: #ffffff; stroke-width: 0.8; stroke-linecap: square"/>
     </g>
     <g id="line2d_2">
      <defs>
       <path id="md6a13c76f9" d="M 0 0 
L 0 3.5 
" style="stroke: #555555; stroke-width: 0.8"/>
      </defs>
      <g>
       <use xlink:href="#md6a13c76f9" x="98.544298" y="567.74175" style="fill: #555555; stroke: #555555; stroke-width: 0.8"/>
      </g>
     </g>
     <g id="text_1">
      <!-- 2023-07 -->
      <g style="fill: #555555" transform="translate(85.723016 609.659567)rotate(-45)scale(0.1 -0.1)">
       <defs>
        <path id="DejaVuSans-32" d="M 1228 531 
L 3431 531 
L 3431 0 
L 469 0 
L 469 531 
Q 828 903 1448 1529 
Q 2069 2156 2228 2338 
Q 2531 2678 2651 2914 
Q 2772 3150 2772 3378 
Q 2772 3750 2511 3984 
Q 2250 4219 1831 4219 
Q 1534 4219 1204 4116 
Q 875 4013 500 3803 
L 500 4441 
Q 881 4594 1212 4672 
Q 1544 4750 1819 4750 
Q 2544 4750 2975 4387 
Q 3406 4025 3406 3419 
Q 3406 3131 3298 2873 
Q 3191 2616 2906 2266 
Q 2828 2175 2409 1742 
Q 1991 1309 1228 531 
z
" transform="scale(0.015625)"/>
        <path id="DejaVuSans-30" d="M 2034 4250 
Q 1547 4250 1301 3770 
Q 1056 3291 1056 2328 
Q 1056 1369 1301 889 
Q 1547 409 2034 409 
Q 2525 409 2770 889 
Q 3016 1369 3016 2328 
Q 3016 3291 2770 3770 
Q 2525 4250 2034 4250 
z
M 2034 4750 
Q 2819 4750 3233 4129 
Q 3647 3509 3647 2328 
Q 3647 1150 3233 529 
Q 2819 -91 2034 -91 
Q 1250 -91 836 529 
Q 422 1150 422 2328 
Q 422 3509 836 4129 
Q 1250 4750 2034 4750 
z
" transform="scale(0.015625)"/>
        <path id="DejaVuSans-33" d="M 2597 2516 
Q 3050 2419 3304 2112 
Q 3559 1806 3559 1356 
Q 3559 666 3084 287 
Q 2609 -91 1734 -91 
Q 1441 -91 1130 -33 
Q 819 25 488 141 
L 488 750 
Q 750 597 1062 519 
Q 1375 441 1716 441 
Q 2309 441 2620 675 
Q 2931 909 2931 1356 
Q 2931 1769 2642 2001 
Q 2353 2234 1838 2234 
L 1294 2234 
L 1294 2753 
L 1863 2753 
Q 2328 2753 2575 2939 
Q 2822 3125 2822 3475 
Q 2822 3834 2567 4026 
Q 2313 4219 1838 4219 
Q 1578 4219 1281 4162 
Q 984 4106 628 3988 
L 628 4550 
Q 988 4650 1302 4700 
Q 1616 4750 1894 4750 
Q 2613 4750 3031 4423 
Q 3450 4097 3450 3541 
Q 3450 3153 3228 2886 
Q 3006 2619 2597 2516 
z
" transform="scale(0.015625)"/>
        <path id="DejaVuSans-2d" d="M 313 2009 
L 1997 2009 
L 1997 1497 
L 313 1497 
L 313 2009 
z
" transform="scale(0.015625)"/>
        <path id="DejaVuSans-37" d="M 525 4666 
L 3525 4666 
L 3525 4397 
L 1831 0 
L 1172 0 
L 2766 4134 
L 525 4134 
L 525 4666 
z
" transform="scale(0.015625)"/>
       </defs>
       <use xlink:href="#DejaVuSans-32"/>
       <use xlink:href="#DejaVuSans-30" x="63.623047"/>
       <use xlink:href="#DejaVuSans-32" x="127.246094"/>
       <use xlink:href="#DejaVuSans-33" x="190.869141"/>
       <use xlink:href="#DejaVuSans-2d" x="254.492188"/>
       <use xlink:href="#DejaVuSans-30" x="290.576172"/>
       <use xlink:href="#DejaVuSans-37" x="354.199219"/>
      </g>
     </g>
    </g>
    <g id="xtick_2">
     <g id="line2d_3">
      <path d="M 178.510481 567.74175 
L 178.510481 24.14175 
" clip-path="url(#pf70b8378b5)" style="fill: none; stroke: #ffffff; stroke-width: 0.8; stroke-linecap: square"/>
     </g>
     <g id="line2d_4">
      <g>
       <use xlink:href="#md6a13c76f9" x="178.510481" y="567.74175" style="fill: #555555; stroke: #555555; stroke-width: 0.8"/>
      </g>
     </g>
     <g id="text_2">
      <!-- 2023-08 -->
      <g style="fill: #555555" transform="translate(165.689198 609.659567)rotate(-45)scale(0.1 -0.1)">
       <defs>
        <path id="DejaVuSans-38" d="M 2034 2216 
Q 1584 2216 1326 1975 
Q 1069 1734 1069 1313 
Q 1069 891 1326 650 
Q 1584 409 2034 409 
Q 2484 409 2743 651 
Q 3003 894 3003 1313 
Q 3003 1734 2745 1975 
Q 2488 2216 2034 2216 
z
M 1403 2484 
Q 997 2584 770 2862 
Q 544 3141 544 3541 
Q 544 4100 942 4425 
Q 1341 4750 2034 4750 
Q 2731 4750 3128 4425 
Q 3525 4100 3525 3541 
Q 3525 3141 3298 2862 
Q 3072 2584 2669 2484 
Q 3125 2378 3379 2068 
Q 3634 1759 3634 1313 
Q 3634 634 3220 271 
Q 2806 -91 2034 -91 
Q 1263 -91 848 271 
Q 434 634 434 1313 
Q 434 1759 690 2068 
Q 947 2378 1403 2484 
z
M 1172 3481 
Q 1172 3119 1398 2916 
Q 1625 2713 2034 2713 
Q 2441 2713 2670 2916 
Q 2900 3119 2900 3481 
Q 2900 3844 2670 4047 
Q 2441 4250 2034 4250 
Q 1625 4250 1398 4047 
Q 1172 3844 1172 3481 
z
" transform="scale(0.015625)"/>
       </defs>
       <use xlink:href="#DejaVuSans-32"/>
       <use xlink:href="#DejaVuSans-30" x="63.623047"/>
       <use xlink:href="#DejaVuSans-32" x="127.246094"/>
       <use xlink:href="#DejaVuSans-33" x="190.869141"/>
       <use xlink:href="#DejaVuSans-2d" x="254.492188"/>
       <use xlink:href="#DejaVuSans-30" x="290.576172"/>
       <use xlink:href="#DejaVuSans-38" x="354.199219"/>
      </g>
     </g>
    </g>
    <g id="xtick_3">
     <g id="line2d_5">
      <path d="M 258.476664 567.74175 
L 258.476664 24.14175 
" clip-path="url(#pf70b8378b5)" style="fill: none; stroke: #ffffff; stroke-width: 0.8; stroke-linecap: square"/>
     </g>
     <g id="line2d_6">
      <g>
       <use xlink:href="#md6a13c76f9" x="258.476664" y="567.74175" style="fill: #555555; stroke: #555555; stroke-width: 0.8"/>
      </g>
     </g>
     <g id="text_3">
      <!-- 2023-09 -->
      <g style="fill: #555555" transform="translate(245.655381 609.659567)rotate(-45)scale(0.1 -0.1)">
       <defs>
        <path id="DejaVuSans-39" d="M 703 97 
L 703 672 
Q 941 559 1184 500 
Q 1428 441 1663 441 
Q 2288 441 2617 861 
Q 2947 1281 2994 2138 
Q 2813 1869 2534 1725 
Q 2256 1581 1919 1581 
Q 1219 1581 811 2004 
Q 403 2428 403 3163 
Q 403 3881 828 4315 
Q 1253 4750 1959 4750 
Q 2769 4750 3195 4129 
Q 3622 3509 3622 2328 
Q 3622 1225 3098 567 
Q 2575 -91 1691 -91 
Q 1453 -91 1209 -44 
Q 966 3 703 97 
z
M 1959 2075 
Q 2384 2075 2632 2365 
Q 2881 2656 2881 3163 
Q 2881 3666 2632 3958 
Q 2384 4250 1959 4250 
Q 1534 4250 1286 3958 
Q 1038 3666 1038 3163 
Q 1038 2656 1286 2365 
Q 1534 2075 1959 2075 
z
" transform="scale(0.015625)"/>
       </defs>
       <use xlink:href="#DejaVuSans-32"/>
       <use xlink:href="#DejaVuSans-30" x="63.623047"/>
       <use xlink:href="#DejaVuSans-32" x="127.246094"/>
       <use xlink:href="#DejaVuSans-33" x="190.869141"/>
       <use xlink:href="#DejaVuSans-2d" x="254.492188"/>
       <use xlink:href="#DejaVuSans-30" x="290.576172"/>
       <use xlink:href="#DejaVuSans-39" x="354.199219"/>
      </g>
     </g>
    </g>
    <g id="xtick_4">
     <g id="line2d_7">
      <path d="M 335.863292 567.74175 
L 335.863292 24.14175 
" clip-path="url(#pf70b8378b5)" style="fill: none; stroke: #ffffff; stroke-width: 0.8; stroke-linecap: square"/>
     </g>
     <g id="line2d_8">
      <g>
       <use xlink:href="#md6a13c76f9" x="335.863292" y="567.74175" style="fill: #555555; stroke: #555555; stroke-width: 0.8"/>
      </g>
     </g>
     <g id="text_4">
      <!-- 2023-10 -->
      <g style="fill: #555555" transform="translate(323.04201 609.659567)rotate(-45)scale(0.1 -0.1)">
       <defs>
        <path id="DejaVuSans-31" d="M 794 531 
L 1825 531 
L 1825 4091 
L 703 3866 
L 703 4441 
L 1819 4666 
L 2450 4666 
L 2450 531 
L 3481 531 
L 3481 0 
L 794 0 
L 794 531 
z
" transform="scale(0.015625)"/>
       </defs>
       <use xlink:href="#DejaVuSans-32"/>
       <use xlink:href="#DejaVuSans-30" x="63.623047"/>
       <use xlink:href="#DejaVuSans-32" x="127.246094"/>
       <use xlink:href="#DejaVuSans-33" x="190.869141"/>
       <use xlink:href="#DejaVuSans-2d" x="254.492188"/>
       <use xlink:href="#DejaVuSans-31" x="290.576172"/>
       <use xlink:href="#DejaVuSans-30" x="354.199219"/>
      </g>
     </g>
    </g>
    <g id="xtick_5">
     <g id="line2d_9">
      <path d="M 415.829475 567.74175 
L 415.829475 24.14175 
" clip-path="url(#pf70b8378b5)" style="fill: none; stroke: #ffffff; stroke-width: 0.8; stroke-linecap: square"/>
     </g>
     <g id="line2d_10">
      <g>
       <use xlink:href="#md6a13c76f9" x="415.829475" y="567.74175" style="fill: #555555; stroke: #555555; stroke-width: 0.8"/>
      </g>
     </g>
     <g id="text_5">
      <!-- 2023-11 -->
      <g style="fill: #555555" transform="translate(403.008193 609.659567)rotate(-45)scale(0.1 -0.1)">
       <use xlink:href="#DejaVuSans-32"/>
       <use xlink:href="#DejaVuSans-30" x="63.623047"/>
       <use xlink:href="#DejaVuSans-32" x="127.246094"/>
       <use xlink:href="#DejaVuSans-33" x="190.869141"/>
       <use xlink:href="#DejaVuSans-2d" x="254.492188"/>
       <use xlink:href="#DejaVuSans-31" x="290.576172"/>
       <use xlink:href="#DejaVuSans-31" x="354.199219"/>
      </g>
     </g>
    </g>
    <g id="xtick_6">
     <g id="line2d_11">
      <path d="M 493.216104 567.74175 
L 493.216104 24.14175 
" clip-path="url(#pf70b8378b5)" style="fill: none; stroke: #ffffff; stroke-width: 0.8; stroke-linecap: square"/>
     </g>
     <g id="line2d_12">
      <g>
       <use xlink:href="#md6a13c76f9" x="493.216104" y="567.74175" style="fill: #555555; stroke: #555555; stroke-width: 0.8"/>
      </g>
     </g>
     <g id="text_6">
      <!-- 2023-12 -->
      <g style="fill: #555555" transform="translate(480.394821 609.659567)rotate(-45)scale(0.1 -0.1)">
       <use xlink:href="#DejaVuSans-32"/>
       <use xlink:href="#DejaVuSans-30" x="63.623047"/>
       <use xlink:href="#DejaVuSans-32" x="127.246094"/>
       <use xlink:href="#DejaVuSans-33" x="190.869141"/>
       <use xlink:href="#DejaVuSans-2d" x="254.492188"/>
       <use xlink:href="#DejaVuSans-31" x="290.576172"/>
       <use xlink:href="#DejaVuSans-32" x="354.199219"/>
      </g>
     </g>
    </g>
    <g id="xtick_7">
     <g id="line2d_13">
      <path d="M 573.182286 567.74175 
L 573.182286 24.14175 
" clip-path="url(#pf70b8378b5)" style="fill: none; stroke: #ffffff; stroke-width: 0.8; stroke-linecap: square"/>
     </g>
     <g id="line2d_14">
      <g>
       <use xlink:href="#md6a13c76f9" x="573.182286" y="567.74175" style="fill: #555555; stroke: #555555; stroke-width: 0.8"/>
      </g>
     </g>
     <g id="text_7">
      <!-- 2024-01 -->
      <g style="fill: #555555" transform="translate(560.361004 609.659567)rotate(-45)scale(0.1 -0.1)">
       <defs>
        <path id="DejaVuSans-34" d="M 2419 4116 
L 825 1625 
L 2419 1625 
L 2419 4116 
z
M 2253 4666 
L 3047 4666 
L 3047 1625 
L 3713 1625 
L 3713 1100 
L 3047 1100 
L 3047 0 
L 2419 0 
L 2419 1100 
L 313 1100 
L 313 1709 
L 2253 4666 
z
" transform="scale(0.015625)"/>
       </defs>
       <use xlink:href="#DejaVuSans-32"/>
       <use xlink:href="#DejaVuSans-30" x="63.623047"/>
       <use xlink:href="#DejaVuSans-32" x="127.246094"/>
       <use xlink:href="#DejaVuSans-34" x="190.869141"/>
       <use xlink:href="#DejaVuSans-2d" x="254.492188"/>
       <use xlink:href="#DejaVuSans-30" x="290.576172"/>
       <use xlink:href="#DejaVuSans-31" x="354.199219"/>
      </g>
     </g>
    </g>
    <g id="xtick_8">
     <g id="line2d_15">
      <path d="M 653.148469 567.74175 
L 653.148469 24.14175 
" clip-path="url(#pf70b8378b5)" style="fill: none; stroke: #ffffff; stroke-width: 0.8; stroke-linecap: square"/>
     </g>
     <g id="line2d_16">
      <g>
       <use xlink:href="#md6a13c76f9" x="653.148469" y="567.74175" style="fill: #555555; stroke: #555555; stroke-width: 0.8"/>
      </g>
     </g>
     <g id="text_8">
      <!-- 2024-02 -->
      <g style="fill: #555555" transform="translate(640.327187 609.659567)rotate(-45)scale(0.1 -0.1)">
       <use xlink:href="#DejaVuSans-32"/>
       <use xlink:href="#DejaVuSans-30" x="63.623047"/>
       <use xlink:href="#DejaVuSans-32" x="127.246094"/>
       <use xlink:href="#DejaVuSans-34" x="190.869141"/>
       <use xlink:href="#DejaVuSans-2d" x="254.492188"/>
       <use xlink:href="#DejaVuSans-30" x="290.576172"/>
       <use xlink:href="#DejaVuSans-32" x="354.199219"/>
      </g>
     </g>
    </g>
    <g id="xtick_9">
     <g id="line2d_17">
      <path d="M 727.955544 567.74175 
L 727.955544 24.14175 
" clip-path="url(#pf70b8378b5)" style="fill: none; stroke: #ffffff; stroke-width: 0.8; stroke-linecap: square"/>
     </g>
     <g id="line2d_18">
      <g>
       <use xlink:href="#md6a13c76f9" x="727.955544" y="567.74175" style="fill: #555555; stroke: #555555; stroke-width: 0.8"/>
      </g>
     </g>
     <g id="text_9">
      <!-- 2024-03 -->
      <g style="fill: #555555" transform="translate(715.134261 609.659567)rotate(-45)scale(0.1 -0.1)">
       <use xlink:href="#DejaVuSans-32"/>
       <use xlink:href="#DejaVuSans-30" x="63.623047"/>
       <use xlink:href="#DejaVuSans-32" x="127.246094"/>
       <use xlink:href="#DejaVuSans-34" x="190.869141"/>
       <use xlink:href="#DejaVuSans-2d" x="254.492188"/>
       <use xlink:href="#DejaVuSans-30" x="290.576172"/>
       <use xlink:href="#DejaVuSans-33" x="354.199219"/>
      </g>
     </g>
    </g>
    <g id="xtick_10">
     <g id="line2d_19">
      <path d="M 807.921726 567.74175 
L 807.921726 24.14175 
" clip-path="url(#pf70b8378b5)" style="fill: none; stroke: #ffffff; stroke-width: 0.8; stroke-linecap: square"/>
     </g>
     <g id="line2d_20">
      <g>
       <use xlink:href="#md6a13c76f9" x="807.921726" y="567.74175" style="fill: #555555; stroke: #555555; stroke-width: 0.8"/>
      </g>
     </g>
     <g id="text_10">
      <!-- 2024-04 -->
      <g style="fill: #555555" transform="translate(795.100444 609.659567)rotate(-45)scale(0.1 -0.1)">
       <use xlink:href="#DejaVuSans-32"/>
       <use xlink:href="#DejaVuSans-30" x="63.623047"/>
       <use xlink:href="#DejaVuSans-32" x="127.246094"/>
       <use xlink:href="#DejaVuSans-34" x="190.869141"/>
       <use xlink:href="#DejaVuSans-2d" x="254.492188"/>
       <use xlink:href="#DejaVuSans-30" x="290.576172"/>
       <use xlink:href="#DejaVuSans-34" x="354.199219"/>
      </g>
     </g>
    </g>
    <g id="xtick_11">
     <g id="line2d_21">
      <path d="M 885.308355 567.74175 
L 885.308355 24.14175 
" clip-path="url(#pf70b8378b5)" style="fill: none; stroke: #ffffff; stroke-width: 0.8; stroke-linecap: square"/>
     </g>
     <g id="line2d_22">
      <g>
       <use xlink:href="#md6a13c76f9" x="885.308355" y="567.74175" style="fill: #555555; stroke: #555555; stroke-width: 0.8"/>
      </g>
     </g>
     <g id="text_11">
      <!-- 2024-05 -->
      <g style="fill: #555555" transform="translate(872.487073 609.659567)rotate(-45)scale(0.1 -0.1)">
       <defs>
        <path id="DejaVuSans-35" d="M 691 4666 
L 3169 4666 
L 3169 4134 
L 1269 4134 
L 1269 2991 
Q 1406 3038 1543 3061 
Q 1681 3084 1819 3084 
Q 2600 3084 3056 2656 
Q 3513 2228 3513 1497 
Q 3513 744 3044 326 
Q 2575 -91 1722 -91 
Q 1428 -91 1123 -41 
Q 819 9 494 109 
L 494 744 
Q 775 591 1075 516 
Q 1375 441 1709 441 
Q 2250 441 2565 725 
Q 2881 1009 2881 1497 
Q 2881 1984 2565 2268 
Q 2250 2553 1709 2553 
Q 1456 2553 1204 2497 
Q 953 2441 691 2322 
L 691 4666 
z
" transform="scale(0.015625)"/>
       </defs>
       <use xlink:href="#DejaVuSans-32"/>
       <use xlink:href="#DejaVuSans-30" x="63.623047"/>
       <use xlink:href="#DejaVuSans-32" x="127.246094"/>
       <use xlink:href="#DejaVuSans-34" x="190.869141"/>
       <use xlink:href="#DejaVuSans-2d" x="254.492188"/>
       <use xlink:href="#DejaVuSans-30" x="290.576172"/>
       <use xlink:href="#DejaVuSans-35" x="354.199219"/>
      </g>
     </g>
    </g>
    <g id="text_12">
     <!-- Date -->
     <g style="fill: #555555" transform="translate(491.772938 624.248253)scale(0.12 -0.12)">
      <defs>
       <path id="DejaVuSans-44" d="M 1259 4147 
L 1259 519 
L 2022 519 
Q 2988 519 3436 956 
Q 3884 1394 3884 2338 
Q 3884 3275 3436 3711 
Q 2988 4147 2022 4147 
L 1259 4147 
z
M 628 4666 
L 1925 4666 
Q 3281 4666 3915 4102 
Q 4550 3538 4550 2338 
Q 4550 1131 3912 565 
Q 3275 0 1925 0 
L 628 0 
L 628 4666 
z
" transform="scale(0.015625)"/>
       <path id="DejaVuSans-61" d="M 2194 1759 
Q 1497 1759 1228 1600 
Q 959 1441 959 1056 
Q 959 750 1161 570 
Q 1363 391 1709 391 
Q 2188 391 2477 730 
Q 2766 1069 2766 1631 
L 2766 1759 
L 2194 1759 
z
M 3341 1997 
L 3341 0 
L 2766 0 
L 2766 531 
Q 2569 213 2275 61 
Q 1981 -91 1556 -91 
Q 1019 -91 701 211 
Q 384 513 384 1019 
Q 384 1609 779 1909 
Q 1175 2209 1959 2209 
L 2766 2209 
L 2766 2266 
Q 2766 2663 2505 2880 
Q 2244 3097 1772 3097 
Q 1472 3097 1187 3025 
Q 903 2953 641 2809 
L 641 3341 
Q 956 3463 1253 3523 
Q 1550 3584 1831 3584 
Q 2591 3584 2966 3190 
Q 3341 2797 3341 1997 
z
" transform="scale(0.015625)"/>
       <path id="DejaVuSans-74" d="M 1172 4494 
L 1172 3500 
L 2356 3500 
L 2356 3053 
L 1172 3053 
L 1172 1153 
Q 1172 725 1289 603 
Q 1406 481 1766 481 
L 2356 481 
L 2356 0 
L 1766 0 
Q 1100 0 847 248 
Q 594 497 594 1153 
L 594 3053 
L 172 3053 
L 172 3500 
L 594 3500 
L 594 4494 
L 1172 4494 
z
" transform="scale(0.015625)"/>
       <path id="DejaVuSans-65" d="M 3597 1894 
L 3597 1613 
L 953 1613 
Q 991 1019 1311 708 
Q 1631 397 2203 397 
Q 2534 397 2845 478 
Q 3156 559 3463 722 
L 3463 178 
Q 3153 47 2828 -22 
Q 2503 -91 2169 -91 
Q 1331 -91 842 396 
Q 353 884 353 1716 
Q 353 2575 817 3079 
Q 1281 3584 2069 3584 
Q 2775 3584 3186 3129 
Q 3597 2675 3597 1894 
z
M 3022 2063 
Q 3016 2534 2758 2815 
Q 2500 3097 2075 3097 
Q 1594 3097 1305 2825 
Q 1016 2553 972 2059 
L 3022 2063 
z
" transform="scale(0.015625)"/>
      </defs>
      <use xlink:href="#DejaVuSans-44"/>
      <use xlink:href="#DejaVuSans-61" x="77.001953"/>
      <use xlink:href="#DejaVuSans-74" x="138.28125"/>
      <use xlink:href="#DejaVuSans-65" x="177.490234"/>
     </g>
    </g>
   </g>
   <g id="matplotlib.axis_2">
    <g id="ytick_1">
     <g id="line2d_23">
      <path d="M 54.691875 567.74175 
L 957.535875 567.74175 
" clip-path="url(#pf70b8378b5)" style="fill: none; stroke: #ffffff; stroke-width: 0.8; stroke-linecap: square"/>
     </g>
     <g id="line2d_24">
      <defs>
       <path id="m3fe64e7caf" d="M 0 0 
L -3.5 0 
" style="stroke: #555555; stroke-width: 0.8"/>
      </defs>
      <g>
       <use xlink:href="#m3fe64e7caf" x="54.691875" y="567.74175" style="fill: #555555; stroke: #555555; stroke-width: 0.8"/>
      </g>
     </g>
     <g id="text_13">
      <!-- 0k -->
      <g style="fill: #555555" transform="translate(35.53875 571.540969)scale(0.1 -0.1)">
       <defs>
        <path id="DejaVuSans-6b" d="M 581 4863 
L 1159 4863 
L 1159 1991 
L 2875 3500 
L 3609 3500 
L 1753 1863 
L 3688 0 
L 2938 0 
L 1159 1709 
L 1159 0 
L 581 0 
L 581 4863 
z
" transform="scale(0.015625)"/>
       </defs>
       <use xlink:href="#DejaVuSans-30"/>
       <use xlink:href="#DejaVuSans-6b" x="63.623047"/>
      </g>
     </g>
    </g>
    <g id="ytick_2">
     <g id="line2d_25">
      <path d="M 54.691875 484.318115 
L 957.535875 484.318115 
" clip-path="url(#pf70b8378b5)" style="fill: none; stroke: #ffffff; stroke-width: 0.8; stroke-linecap: square"/>
     </g>
     <g id="line2d_26">
      <g>
       <use xlink:href="#m3fe64e7caf" x="54.691875" y="484.318115" style="fill: #555555; stroke: #555555; stroke-width: 0.8"/>
      </g>
     </g>
     <g id="text_14">
      <!-- 50k -->
      <g style="fill: #555555" transform="translate(29.17625 488.117334)scale(0.1 -0.1)">
       <use xlink:href="#DejaVuSans-35"/>
       <use xlink:href="#DejaVuSans-30" x="63.623047"/>
       <use xlink:href="#DejaVuSans-6b" x="127.246094"/>
      </g>
     </g>
    </g>
    <g id="ytick_3">
     <g id="line2d_27">
      <path d="M 54.691875 400.89448 
L 957.535875 400.89448 
" clip-path="url(#pf70b8378b5)" style="fill: none; stroke: #ffffff; stroke-width: 0.8; stroke-linecap: square"/>
     </g>
     <g id="line2d_28">
      <g>
       <use xlink:href="#m3fe64e7caf" x="54.691875" y="400.89448" style="fill: #555555; stroke: #555555; stroke-width: 0.8"/>
      </g>
     </g>
     <g id="text_15">
      <!-- 100k -->
      <g style="fill: #555555" transform="translate(22.81375 404.693699)scale(0.1 -0.1)">
       <use xlink:href="#DejaVuSans-31"/>
       <use xlink:href="#DejaVuSans-30" x="63.623047"/>
       <use xlink:href="#DejaVuSans-30" x="127.246094"/>
       <use xlink:href="#DejaVuSans-6b" x="190.869141"/>
      </g>
     </g>
    </g>
    <g id="ytick_4">
     <g id="line2d_29">
      <path d="M 54.691875 317.470846 
L 957.535875 317.470846 
" clip-path="url(#pf70b8378b5)" style="fill: none; stroke: #ffffff; stroke-width: 0.8; stroke-linecap: square"/>
     </g>
     <g id="line2d_30">
      <g>
       <use xlink:href="#m3fe64e7caf" x="54.691875" y="317.470846" style="fill: #555555; stroke: #555555; stroke-width: 0.8"/>
      </g>
     </g>
     <g id="text_16">
      <!-- 150k -->
      <g style="fill: #555555" transform="translate(22.81375 321.270064)scale(0.1 -0.1)">
       <use xlink:href="#DejaVuSans-31"/>
       <use xlink:href="#DejaVuSans-35" x="63.623047"/>
       <use xlink:href="#DejaVuSans-30" x="127.246094"/>
       <use xlink:href="#DejaVuSans-6b" x="190.869141"/>
      </g>
     </g>
    </g>
    <g id="ytick_5">
     <g id="line2d_31">
      <path d="M 54.691875 234.047211 
L 957.535875 234.047211 
" clip-path="url(#pf70b8378b5)" style="fill: none; stroke: #ffffff; stroke-width: 0.8; stroke-linecap: square"/>
     </g>
     <g id="line2d_32">
      <g>
       <use xlink:href="#m3fe64e7caf" x="54.691875" y="234.047211" style="fill: #555555; stroke: #555555; stroke-width: 0.8"/>
      </g>
     </g>
     <g id="text_17">
      <!-- 200k -->
      <g style="fill: #555555" transform="translate(22.81375 237.84643)scale(0.1 -0.1)">
       <use xlink:href="#DejaVuSans-32"/>
       <use xlink:href="#DejaVuSans-30" x="63.623047"/>
       <use xlink:href="#DejaVuSans-30" x="127.246094"/>
       <use xlink:href="#DejaVuSans-6b" x="190.869141"/>
      </g>
     </g>
    </g>
    <g id="ytick_6">
     <g id="line2d_33">
      <path d="M 54.691875 150.623576 
L 957.535875 150.623576 
" clip-path="url(#pf70b8378b5)" style="fill: none; stroke: #ffffff; stroke-width: 0.8; stroke-linecap: square"/>
     </g>
     <g id="line2d_34">
      <g>
       <use xlink:href="#m3fe64e7caf" x="54.691875" y="150.623576" style="fill: #555555; stroke: #555555; stroke-width: 0.8"/>
      </g>
     </g>
     <g id="text_18">
      <!-- 250k -->
      <g style="fill: #555555" transform="translate(22.81375 154.422795)scale(0.1 -0.1)">
       <use xlink:href="#DejaVuSans-32"/>
       <use xlink:href="#DejaVuSans-35" x="63.623047"/>
       <use xlink:href="#DejaVuSans-30" x="127.246094"/>
       <use xlink:href="#DejaVuSans-6b" x="190.869141"/>
      </g>
     </g>
    </g>
    <g id="ytick_7">
     <g id="line2d_35">
      <path d="M 54.691875 67.199941 
L 957.535875 67.199941 
" clip-path="url(#pf70b8378b5)" style="fill: none; stroke: #ffffff; stroke-width: 0.8; stroke-linecap: square"/>
     </g>
     <g id="line2d_36">
      <g>
       <use xlink:href="#m3fe64e7caf" x="54.691875" y="67.199941" style="fill: #555555; stroke: #555555; stroke-width: 0.8"/>
      </g>
     </g>
     <g id="text_19">
      <!-- 300k -->
      <g style="fill: #555555" transform="translate(22.81375 70.99916)scale(0.1 -0.1)">
       <use xlink:href="#DejaVuSans-33"/>
       <use xlink:href="#DejaVuSans-30" x="63.623047"/>
       <use xlink:href="#DejaVuSans-30" x="127.246094"/>
       <use xlink:href="#DejaVuSans-6b" x="190.869141"/>
      </g>
     </g>
    </g>
    <g id="text_20">
     <!-- Instances -->
     <g style="fill: #555555" transform="translate(16.318125 324.588)rotate(-90)scale(0.12 -0.12)">
      <defs>
       <path id="DejaVuSans-49" d="M 628 4666 
L 1259 4666 
L 1259 0 
L 628 0 
L 628 4666 
z
" transform="scale(0.015625)"/>
       <path id="DejaVuSans-6e" d="M 3513 2113 
L 3513 0 
L 2938 0 
L 2938 2094 
Q 2938 2591 2744 2837 
Q 2550 3084 2163 3084 
Q 1697 3084 1428 2787 
Q 1159 2491 1159 1978 
L 1159 0 
L 581 0 
L 581 3500 
L 1159 3500 
L 1159 2956 
Q 1366 3272 1645 3428 
Q 1925 3584 2291 3584 
Q 2894 3584 3203 3211 
Q 3513 2838 3513 2113 
z
" transform="scale(0.015625)"/>
       <path id="DejaVuSans-73" d="M 2834 3397 
L 2834 2853 
Q 2591 2978 2328 3040 
Q 2066 3103 1784 3103 
Q 1356 3103 1142 2972 
Q 928 2841 928 2578 
Q 928 2378 1081 2264 
Q 1234 2150 1697 2047 
L 1894 2003 
Q 2506 1872 2764 1633 
Q 3022 1394 3022 966 
Q 3022 478 2636 193 
Q 2250 -91 1575 -91 
Q 1294 -91 989 -36 
Q 684 19 347 128 
L 347 722 
Q 666 556 975 473 
Q 1284 391 1588 391 
Q 1994 391 2212 530 
Q 2431 669 2431 922 
Q 2431 1156 2273 1281 
Q 2116 1406 1581 1522 
L 1381 1569 
Q 847 1681 609 1914 
Q 372 2147 372 2553 
Q 372 3047 722 3315 
Q 1072 3584 1716 3584 
Q 2034 3584 2315 3537 
Q 2597 3491 2834 3397 
z
" transform="scale(0.015625)"/>
       <path id="DejaVuSans-63" d="M 3122 3366 
L 3122 2828 
Q 2878 2963 2633 3030 
Q 2388 3097 2138 3097 
Q 1578 3097 1268 2742 
Q 959 2388 959 1747 
Q 959 1106 1268 751 
Q 1578 397 2138 397 
Q 2388 397 2633 464 
Q 2878 531 3122 666 
L 3122 134 
Q 2881 22 2623 -34 
Q 2366 -91 2075 -91 
Q 1284 -91 818 406 
Q 353 903 353 1747 
Q 353 2603 823 3093 
Q 1294 3584 2113 3584 
Q 2378 3584 2631 3529 
Q 2884 3475 3122 3366 
z
" transform="scale(0.015625)"/>
      </defs>
      <use xlink:href="#DejaVuSans-49"/>
      <use xlink:href="#DejaVuSans-6e" x="29.492188"/>
      <use xlink:href="#DejaVuSans-73" x="92.871094"/>
      <use xlink:href="#DejaVuSans-74" x="144.970703"/>
      <use xlink:href="#DejaVuSans-61" x="184.179688"/>
      <use xlink:href="#DejaVuSans-6e" x="245.458984"/>
      <use xlink:href="#DejaVuSans-63" x="308.837891"/>
      <use xlink:href="#DejaVuSans-65" x="363.818359"/>
      <use xlink:href="#DejaVuSans-73" x="425.341797"/>
     </g>
    </g>
   </g>
   <g id="line2d_37">
    <path d="M 54.691875 439.402057 
L 63.811511 438.60768 
L 72.931148 437.813302 
L 82.050784 437.018924 
L 91.17042 436.224546 
L 100.290057 435.430168 
L 109.409693 434.63579 
L 118.52933 433.841412 
L 127.648966 433.047034 
L 136.768602 432.252656 
L 145.888239 431.458278 
L 155.007875 430.6639 
L 164.127511 429.869522 
L 173.247148 429.075145 
L 182.366784 428.280767 
L 191.48642 427.486389 
L 200.606057 426.692011 
L 209.725693 425.897633 
L 218.84533 425.103255 
L 227.964966 424.308877 
L 237.084602 423.514499 
L 246.204239 422.720121 
L 255.323875 421.925743 
L 264.443511 421.131365 
L 273.563148 420.336987 
L 282.682784 419.54261 
L 291.80242 418.748232 
L 300.922057 417.953854 
L 310.041693 417.159476 
L 319.16133 416.365098 
L 328.280966 415.57072 
L 337.400602 414.776342 
L 346.520239 413.981964 
L 355.639875 413.187586 
L 364.759511 412.393208 
L 373.879148 411.59883 
L 382.998784 410.804453 
L 392.11842 410.010075 
L 401.238057 409.215697 
L 410.357693 408.421319 
L 419.47733 407.626941 
L 428.596966 406.832563 
L 437.716602 406.038185 
L 446.836239 405.243807 
L 455.955875 404.449429 
L 465.075511 403.655051 
L 474.195148 402.860673 
L 483.314784 402.066295 
L 492.43442 401.271918 
L 501.554057 400.47754 
L 510.673693 399.683162 
L 519.79333 398.888784 
L 528.912966 398.094406 
L 538.032602 397.300028 
L 547.152239 396.50565 
L 556.271875 395.711272 
L 565.391511 394.916894 
L 574.511148 394.122516 
L 583.630784 393.328138 
L 592.75042 392.53376 
L 601.870057 391.739383 
L 610.989693 390.945005 
L 620.10933 390.150627 
L 629.228966 389.356249 
L 638.348602 388.561871 
L 647.468239 387.767493 
L 656.587875 386.973115 
L 665.707511 386.178737 
L 674.827148 385.384359 
L 683.946784 384.589981 
L 693.06642 383.795603 
L 702.186057 383.001225 
L 711.305693 382.206848 
L 720.42533 381.41247 
L 729.544966 380.618092 
L 738.664602 379.823714 
L 747.784239 379.029336 
L 756.903875 378.234958 
L 766.023511 377.44058 
L 775.143148 376.646202 
L 784.262784 375.851824 
L 793.38242 375.057446 
L 802.502057 374.263068 
L 811.621693 373.46869 
L 820.74133 372.674313 
L 829.860966 371.879935 
L 838.980602 371.085557 
L 848.100239 370.291179 
L 857.219875 369.496801 
L 866.339511 368.702423 
L 875.459148 367.908045 
L 884.578784 367.113667 
L 893.69842 366.319289 
L 902.818057 365.524911 
L 911.937693 364.730533 
L 921.05733 363.936155 
L 930.176966 363.141778 
L 939.296602 362.3474 
L 948.416239 361.553022 
L 957.535875 360.758644 
" clip-path="url(#pf70b8378b5)" style="fill: none; stroke-dasharray: 1.5,2.475; stroke-dashoffset: 0; stroke: #4ac1fa; stroke-width: 1.5"/>
   </g>
   <g id="line2d_38">
    <path d="M 54.691875 500.168982 
L 63.811511 499.7114 
L 72.931148 499.253817 
L 82.050784 498.796235 
L 91.17042 498.338653 
L 100.290057 497.88107 
L 109.409693 497.423488 
L 118.52933 496.965906 
L 127.648966 496.508323 
L 136.768602 496.050741 
L 145.888239 495.593159 
L 155.007875 495.135576 
L 164.127511 494.677994 
L 173.247148 494.220412 
L 182.366784 493.762829 
L 191.48642 493.305247 
L 200.606057 492.847665 
L 209.725693 492.390082 
L 218.84533 491.9325 
L 227.964966 491.474918 
L 237.084602 491.017335 
L 246.204239 490.559753 
L 255.323875 490.102171 
L 264.443511 489.644588 
L 273.563148 489.187006 
L 282.682784 488.729424 
L 291.80242 488.271841 
L 300.922057 487.814259 
L 310.041693 487.356677 
L 319.16133 486.899094 
L 328.280966 486.441512 
L 337.400602 485.98393 
L 346.520239 485.526347 
L 355.639875 485.068765 
L 364.759511 484.611183 
L 373.879148 484.1536 
L 382.998784 483.696018 
L 392.11842 483.238435 
L 401.238057 482.780853 
L 410.357693 482.323271 
L 419.47733 481.865688 
L 428.596966 481.408106 
L 437.716602 480.950524 
L 446.836239 480.492941 
L 455.955875 480.035359 
L 465.075511 479.577777 
L 474.195148 479.120194 
L 483.314784 478.662612 
L 492.43442 478.20503 
L 501.554057 477.747447 
L 510.673693 477.289865 
L 519.79333 476.832283 
L 528.912966 476.3747 
L 538.032602 475.917118 
L 547.152239 475.459536 
L 556.271875 475.001953 
L 565.391511 474.544371 
L 574.511148 474.086789 
L 583.630784 473.629206 
L 592.75042 473.171624 
L 601.870057 472.714042 
L 610.989693 472.256459 
L 620.10933 471.798877 
L 629.228966 471.341295 
L 638.348602 470.883712 
L 647.468239 470.42613 
L 656.587875 469.968548 
L 665.707511 469.510965 
L 674.827148 469.053383 
L 683.946784 468.595801 
L 693.06642 468.138218 
L 702.186057 467.680636 
L 711.305693 467.223054 
L 720.42533 466.765471 
L 729.544966 466.307889 
L 738.664602 465.850307 
L 747.784239 465.392724 
L 756.903875 464.935142 
L 766.023511 464.47756 
L 775.143148 464.019977 
L 784.262784 463.562395 
L 793.38242 463.104813 
L 802.502057 462.64723 
L 811.621693 462.189648 
L 820.74133 461.732066 
L 829.860966 461.274483 
L 838.980602 460.816901 
L 848.100239 460.359319 
L 857.219875 459.901736 
L 866.339511 459.444154 
L 875.459148 458.986572 
L 884.578784 458.528989 
L 893.69842 458.071407 
L 902.818057 457.613825 
L 911.937693 457.156242 
L 921.05733 456.69866 
L 930.176966 456.241077 
L 939.296602 455.783495 
L 948.416239 455.325913 
L 957.535875 454.86833 
" clip-path="url(#pf70b8378b5)" style="fill: none; stroke-dasharray: 1.5,2.475; stroke-dashoffset: 0; stroke: #e9a942; stroke-width: 1.5"/>
   </g>
   <g id="line2d_39">
    <path d="M 54.691875 471.699798 
L 63.811511 471.381728 
L 72.931148 471.063658 
L 82.050784 470.745589 
L 91.17042 470.427519 
L 100.290057 470.109449 
L 109.409693 469.791379 
L 118.52933 469.473309 
L 127.648966 469.155239 
L 136.768602 468.837169 
L 145.888239 468.519099 
L 155.007875 468.201029 
L 164.127511 467.882959 
L 173.247148 467.564889 
L 182.366784 467.246819 
L 191.48642 466.928749 
L 200.606057 466.610679 
L 209.725693 466.292609 
L 218.84533 465.974539 
L 227.964966 465.656469 
L 237.084602 465.338399 
L 246.204239 465.020329 
L 255.323875 464.702259 
L 264.443511 464.384189 
L 273.563148 464.066119 
L 282.682784 463.748049 
L 291.80242 463.429979 
L 300.922057 463.111909 
L 310.041693 462.793839 
L 319.16133 462.475769 
L 328.280966 462.157699 
L 337.400602 461.839629 
L 346.520239 461.521559 
L 355.639875 461.203489 
L 364.759511 460.885419 
L 373.879148 460.567349 
L 382.998784 460.24928 
L 392.11842 459.93121 
L 401.238057 459.61314 
L 410.357693 459.29507 
L 419.47733 458.977 
L 428.596966 458.65893 
L 437.716602 458.34086 
L 446.836239 458.02279 
L 455.955875 457.70472 
L 465.075511 457.38665 
L 474.195148 457.06858 
L 483.314784 456.75051 
L 492.43442 456.43244 
L 501.554057 456.11437 
L 510.673693 455.7963 
L 519.79333 455.47823 
L 528.912966 455.16016 
L 538.032602 454.84209 
L 547.152239 454.52402 
L 556.271875 454.20595 
L 565.391511 453.88788 
L 574.511148 453.56981 
L 583.630784 453.25174 
L 592.75042 452.93367 
L 601.870057 452.6156 
L 610.989693 452.29753 
L 620.10933 451.97946 
L 629.228966 451.66139 
L 638.348602 451.34332 
L 647.468239 451.02525 
L 656.587875 450.70718 
L 665.707511 450.38911 
L 674.827148 450.07104 
L 683.946784 449.75297 
L 693.06642 449.434901 
L 702.186057 449.116831 
L 711.305693 448.798761 
L 720.42533 448.480691 
L 729.544966 448.162621 
L 738.664602 447.844551 
L 747.784239 447.526481 
L 756.903875 447.208411 
L 766.023511 446.890341 
L 775.143148 446.572271 
L 784.262784 446.254201 
L 793.38242 445.936131 
L 802.502057 445.618061 
L 811.621693 445.299991 
L 820.74133 444.981921 
L 829.860966 444.663851 
L 838.980602 444.345781 
L 848.100239 444.027711 
L 857.219875 443.709641 
L 866.339511 443.391571 
L 875.459148 443.073501 
L 884.578784 442.755431 
L 893.69842 442.437361 
L 902.818057 442.119291 
L 911.937693 441.801221 
L 921.05733 441.483151 
L 930.176966 441.165081 
L 939.296602 440.847011 
L 948.416239 440.528941 
L 957.535875 440.210871 
" clip-path="url(#pf70b8378b5)" style="fill: none; stroke-dasharray: 1.5,2.475; stroke-dashoffset: 0; stroke: #9a5689; stroke-width: 1.5"/>
   </g>
   <g id="line2d_40">
    <path d="M 54.691875 512.201038 
L 63.811511 511.801558 
L 72.931148 511.402079 
L 82.050784 511.002599 
L 91.17042 510.603119 
L 100.290057 510.203639 
L 109.409693 509.80416 
L 118.52933 509.40468 
L 127.648966 509.0052 
L 136.768602 508.60572 
L 145.888239 508.206241 
L 155.007875 507.806761 
L 164.127511 507.407281 
L 173.247148 507.007802 
L 182.366784 506.608322 
L 191.48642 506.208842 
L 200.606057 505.809362 
L 209.725693 505.409883 
L 218.84533 505.010403 
L 227.964966 504.610923 
L 237.084602 504.211443 
L 246.204239 503.811964 
L 255.323875 503.412484 
L 264.443511 503.013004 
L 273.563148 502.613524 
L 282.682784 502.214045 
L 291.80242 501.814565 
L 300.922057 501.415085 
L 310.041693 501.015605 
L 319.16133 500.616126 
L 328.280966 500.216646 
L 337.400602 499.817166 
L 346.520239 499.417687 
L 355.639875 499.018207 
L 364.759511 498.618727 
L 373.879148 498.219247 
L 382.998784 497.819768 
L 392.11842 497.420288 
L 401.238057 497.020808 
L 410.357693 496.621328 
L 419.47733 496.221849 
L 428.596966 495.822369 
L 437.716602 495.422889 
L 446.836239 495.023409 
L 455.955875 494.62393 
L 465.075511 494.22445 
L 474.195148 493.82497 
L 483.314784 493.425491 
L 492.43442 493.026011 
L 501.554057 492.626531 
L 510.673693 492.227051 
L 519.79333 491.827572 
L 528.912966 491.428092 
L 538.032602 491.028612 
L 547.152239 490.629132 
L 556.271875 490.229653 
L 565.391511 489.830173 
L 574.511148 489.430693 
L 583.630784 489.031213 
L 592.75042 488.631734 
L 601.870057 488.232254 
L 610.989693 487.832774 
L 620.10933 487.433294 
L 629.228966 487.033815 
L 638.348602 486.634335 
L 647.468239 486.234855 
L 656.587875 485.835376 
L 665.707511 485.435896 
L 674.827148 485.036416 
L 683.946784 484.636936 
L 693.06642 484.237457 
L 702.186057 483.837977 
L 711.305693 483.438497 
L 720.42533 483.039017 
L 729.544966 482.639538 
L 738.664602 482.240058 
L 747.784239 481.840578 
L 756.903875 481.441098 
L 766.023511 481.041619 
L 775.143148 480.642139 
L 784.262784 480.242659 
L 793.38242 479.84318 
L 802.502057 479.4437 
L 811.621693 479.04422 
L 820.74133 478.64474 
L 829.860966 478.245261 
L 838.980602 477.845781 
L 848.100239 477.446301 
L 857.219875 477.046821 
L 866.339511 476.647342 
L 875.459148 476.247862 
L 884.578784 475.848382 
L 893.69842 475.448902 
L 902.818057 475.049423 
L 911.937693 474.649943 
L 921.05733 474.250463 
L 930.176966 473.850983 
L 939.296602 473.451504 
L 948.416239 473.052024 
L 957.535875 472.652544 
" clip-path="url(#pf70b8378b5)" style="fill: none; stroke-dasharray: 1.5,2.475; stroke-dashoffset: 0; stroke: #be503b; stroke-width: 1.5"/>
   </g>
   <g id="line2d_41">
    <path d="M 54.691875 426.653208 
L 63.811511 425.624759 
L 72.931148 424.596311 
L 82.050784 423.567863 
L 91.17042 422.539414 
L 100.290057 421.510966 
L 109.409693 420.482518 
L 118.52933 419.45407 
L 127.648966 418.425621 
L 136.768602 417.397173 
L 145.888239 416.368725 
L 155.007875 415.340276 
L 164.127511 414.311828 
L 173.247148 413.28338 
L 182.366784 412.254931 
L 191.48642 411.226483 
L 200.606057 410.198035 
L 209.725693 409.169586 
L 218.84533 408.141138 
L 227.964966 407.11269 
L 237.084602 406.084242 
L 246.204239 405.055793 
L 255.323875 404.027345 
L 264.443511 402.998897 
L 273.563148 401.970448 
L 282.682784 400.942 
L 291.80242 399.913552 
L 300.922057 398.885103 
L 310.041693 397.856655 
L 319.16133 396.828207 
L 328.280966 395.799758 
L 337.400602 394.77131 
L 346.520239 393.742862 
L 355.639875 392.714414 
L 364.759511 391.685965 
L 373.879148 390.657517 
L 382.998784 389.629069 
L 392.11842 388.60062 
L 401.238057 387.572172 
L 410.357693 386.543724 
L 419.47733 385.515275 
L 428.596966 384.486827 
L 437.716602 383.458379 
L 446.836239 382.42993 
L 455.955875 381.401482 
L 465.075511 380.373034 
L 474.195148 379.344586 
L 483.314784 378.316137 
L 492.43442 377.287689 
L 501.554057 376.259241 
L 510.673693 375.230792 
L 519.79333 374.202344 
L 528.912966 373.173896 
L 538.032602 372.145447 
L 547.152239 371.116999 
L 556.271875 370.088551 
L 565.391511 369.060102 
L 574.511148 368.031654 
L 583.630784 367.003206 
L 592.75042 365.974758 
L 601.870057 364.946309 
L 610.989693 363.917861 
L 620.10933 362.889413 
L 629.228966 361.860964 
L 638.348602 360.832516 
L 647.468239 359.804068 
L 656.587875 358.775619 
L 665.707511 357.747171 
L 674.827148 356.718723 
L 683.946784 355.690274 
L 693.06642 354.661826 
L 702.186057 353.633378 
L 711.305693 352.60493 
L 720.42533 351.576481 
L 729.544966 350.548033 
L 738.664602 349.519585 
L 747.784239 348.491136 
L 756.903875 347.462688 
L 766.023511 346.43424 
L 775.143148 345.405791 
L 784.262784 344.377343 
L 793.38242 343.348895 
L 802.502057 342.320446 
L 811.621693 341.291998 
L 820.74133 340.26355 
L 829.860966 339.235102 
L 838.980602 338.206653 
L 848.100239 337.178205 
L 857.219875 336.149757 
L 866.339511 335.121308 
L 875.459148 334.09286 
L 884.578784 333.064412 
L 893.69842 332.035963 
L 902.818057 331.007515 
L 911.937693 329.979067 
L 921.05733 328.950618 
L 930.176966 327.92217 
L 939.296602 326.893722 
L 948.416239 325.865274 
L 957.535875 324.836825 
" clip-path="url(#pf70b8378b5)" style="fill: none; stroke-dasharray: 1.5,2.475; stroke-dashoffset: 0; stroke: #e2321d; stroke-width: 1.5"/>
   </g>
   <g id="line2d_42">
    <path d="M 54.691875 366.750719 
L 63.811511 364.081536 
L 72.931148 361.412353 
L 82.050784 358.74317 
L 91.17042 356.073986 
L 100.290057 353.404803 
L 109.409693 350.73562 
L 118.52933 348.066437 
L 127.648966 345.397253 
L 136.768602 342.72807 
L 145.888239 340.058887 
L 155.007875 337.389704 
L 164.127511 334.72052 
L 173.247148 332.051337 
L 182.366784 329.382154 
L 191.48642 326.712971 
L 200.606057 324.043788 
L 209.725693 321.374604 
L 218.84533 318.705421 
L 227.964966 316.036238 
L 237.084602 313.367055 
L 246.204239 310.697871 
L 255.323875 308.028688 
L 264.443511 305.359505 
L 273.563148 302.690322 
L 282.682784 300.021138 
L 291.80242 297.351955 
L 300.922057 294.682772 
L 310.041693 292.013589 
L 319.16133 289.344405 
L 328.280966 286.675222 
L 337.400602 284.006039 
L 346.520239 281.336856 
L 355.639875 278.667673 
L 364.759511 275.998489 
L 373.879148 273.329306 
L 382.998784 270.660123 
L 392.11842 267.99094 
L 401.238057 265.321756 
L 410.357693 262.652573 
L 419.47733 259.98339 
L 428.596966 257.314207 
L 437.716602 254.645023 
L 446.836239 251.97584 
L 455.955875 249.306657 
L 465.075511 246.637474 
L 474.195148 243.96829 
L 483.314784 241.299107 
L 492.43442 238.629924 
L 501.554057 235.960741 
L 510.673693 233.291558 
L 519.79333 230.622374 
L 528.912966 227.953191 
L 538.032602 225.284008 
L 547.152239 222.614825 
L 556.271875 219.945641 
L 565.391511 217.276458 
L 574.511148 214.607275 
L 583.630784 211.938092 
L 592.75042 209.268908 
L 601.870057 206.599725 
L 610.989693 203.930542 
L 620.10933 201.261359 
L 629.228966 198.592175 
L 638.348602 195.922992 
L 647.468239 193.253809 
L 656.587875 190.584626 
L 665.707511 187.915443 
L 674.827148 185.246259 
L 683.946784 182.577076 
L 693.06642 179.907893 
L 702.186057 177.23871 
L 711.305693 174.569526 
L 720.42533 171.900343 
L 729.544966 169.23116 
L 738.664602 166.561977 
L 747.784239 163.892793 
L 756.903875 161.22361 
L 766.023511 158.554427 
L 775.143148 155.885244 
L 784.262784 153.21606 
L 793.38242 150.546877 
L 802.502057 147.877694 
L 811.621693 145.208511 
L 820.74133 142.539328 
L 829.860966 139.870144 
L 838.980602 137.200961 
L 848.100239 134.531778 
L 857.219875 131.862595 
L 866.339511 129.193411 
L 875.459148 126.524228 
L 884.578784 123.855045 
L 893.69842 121.185862 
L 902.818057 118.516678 
L 911.937693 115.847495 
L 921.05733 113.178312 
L 930.176966 110.509129 
L 939.296602 107.839945 
L 948.416239 105.170762 
L 957.535875 102.501579 
" clip-path="url(#pf70b8378b5)" style="fill: none; stroke-dasharray: 1.5,2.475; stroke-dashoffset: 0; stroke: #48b585; stroke-width: 1.5"/>
   </g>
   <g id="line2d_43">
    <path d="M 54.691875 446.035009 
L 72.748755 456.396225 
L 90.805635 452.211695 
L 108.862515 455.785564 
L 126.919395 448.305801 
L 144.976275 452.011478 
L 163.033155 453.326235 
L 181.090035 455.156549 
L 199.146915 432.366881 
L 217.203795 451.410828 
L 235.260675 439.826622 
L 253.317555 452.056527 
L 271.374435 445.654597 
L 289.431315 439.905041 
L 307.488195 444.461639 
L 325.545075 435.206621 
L 343.601955 305.364408 
L 397.772595 366.812589 
L 415.829475 367.147952 
L 433.886355 339.184349 
L 451.943235 362.149208 
L 470.000115 319.943522 
L 488.056995 331.095594 
L 506.113875 328.249179 
L 524.170755 404.491708 
L 542.227635 337.549246 
L 560.284515 337.052041 
L 578.341395 384.051249 
L 596.398275 389.570556 
L 614.455155 423.228656 
L 632.512035 401.621935 
L 650.568915 400.717622 
L 668.625795 410.660051 
L 686.682675 410.696758 
L 704.739555 429.597216 
L 722.796435 426.956024 
L 740.853315 415.777257 
L 758.910195 436.090912 
L 776.967075 420.710931 
L 795.023955 423.026771 
L 813.080835 364.369945 
L 831.137715 353.753453 
L 849.194595 346.508944 
L 867.251475 352.286865 
L 885.308355 405.105706 
L 903.365235 349.81252 
L 921.422115 353.151134 
L 939.478995 373.306284 
L 957.535875 350.186258 
" clip-path="url(#pf70b8378b5)" style="fill: none; stroke: #4ac1fa; stroke-width: 1.5; stroke-linecap: square"/>
   </g>
   <g id="line2d_44">
    <path d="M 54.691875 331.858086 
L 72.748755 422.371061 
L 90.805635 500.252029 
L 108.862515 501.875453 
L 126.919395 501.388259 
L 144.976275 498.338291 
L 163.033155 508.294068 
L 181.090035 500.695843 
L 199.146915 497.725962 
L 217.203795 503.397101 
L 235.260675 512.557016 
L 253.317555 507.905314 
L 271.374435 505.646202 
L 289.431315 499.703102 
L 307.488195 493.339547 
L 325.545075 493.921844 
L 343.601955 493.102624 
L 397.772595 483.146847 
L 415.829475 484.369838 
L 433.886355 499.711444 
L 451.943235 492.174953 
L 470.000115 494.827825 
L 488.056995 498.853849 
L 506.113875 514.185445 
L 524.170755 518.029606 
L 542.227635 511.430797 
L 560.284515 497.654217 
L 578.341395 492.203317 
L 596.398275 497.385593 
L 614.455155 492.710533 
L 632.512035 486.283576 
L 650.568915 496.574716 
L 668.625795 476.966825 
L 686.682675 470.486477 
L 704.739555 469.260149 
L 722.796435 454.292281 
L 740.853315 467.75185 
L 758.910195 463.353756 
L 776.967075 463.48056 
L 795.023955 457.752693 
L 813.080835 462.297613 
L 831.137715 466.794147 
L 849.194595 453.711652 
L 867.251475 454.9263 
L 885.308355 435.116524 
L 903.365235 406.919335 
L 921.422115 397.18046 
L 939.478995 424.842069 
L 957.535875 427.776913 
" clip-path="url(#pf70b8378b5)" style="fill: none; stroke: #e9a942; stroke-width: 1.5; stroke-linecap: square"/>
   </g>
   <g id="line2d_45">
    <path d="M 54.691875 482.736403 
L 72.748755 489.975906 
L 90.805635 481.790379 
L 108.862515 481.034561 
L 126.919395 482.392698 
L 144.976275 440.484001 
L 163.033155 467.483226 
L 181.090035 479.935037 
L 199.146915 467.988773 
L 217.203795 470.958654 
L 235.260675 470.950312 
L 253.317555 467.162879 
L 271.374435 457.542465 
L 289.431315 461.828772 
L 307.488195 458.53187 
L 325.545075 449.79241 
L 343.601955 454.447449 
L 397.772595 431.110521 
L 415.829475 408.025533 
L 433.886355 440.996222 
L 451.943235 458.163137 
L 470.000115 454.520861 
L 488.056995 457.36227 
L 506.113875 470.207842 
L 524.170755 490.971984 
L 542.227635 478.873889 
L 560.284515 465.130679 
L 578.341395 464.581752 
L 596.398275 455.378456 
L 614.455155 463.347082 
L 632.512035 460.515684 
L 650.568915 461.446692 
L 668.625795 470.404721 
L 686.682675 467.741839 
L 704.739555 429.313576 
L 722.796435 398.438489 
L 740.853315 396.553115 
L 758.910195 421.396673 
L 776.967075 435.748875 
L 795.023955 433.599882 
L 813.080835 424.238082 
L 831.137715 425.389328 
L 849.194595 435.573685 
L 867.251475 426.13013 
L 885.308355 443.850978 
L 903.365235 466.093388 
L 921.422115 460.348836 
L 939.478995 492.016448 
L 957.535875 479.858288 
" clip-path="url(#pf70b8378b5)" style="fill: none; stroke: #9a5689; stroke-width: 1.5; stroke-linecap: square"/>
   </g>
   <g id="line2d_46">
    <path d="M 54.691875 510.81513 
L 72.748755 512.788933 
L 90.805635 508.319095 
L 108.862515 502.289235 
L 126.919395 509.53708 
L 144.976275 505.526072 
L 163.033155 530.823455 
L 181.090035 509.915823 
L 199.146915 507.962042 
L 217.203795 516.202628 
L 235.260675 503.832572 
L 253.317555 508.85968 
L 271.374435 509.748976 
L 289.431315 488.926437 
L 307.488195 505.394262 
L 325.545075 502.254197 
L 343.601955 498.493459 
L 397.772595 474.752761 
L 415.829475 462.477808 
L 433.886355 487.232937 
L 451.943235 476.055838 
L 470.000115 481.271484 
L 488.056995 484.576729 
L 506.113875 493.6966 
L 524.170755 514.754394 
L 542.227635 498.283232 
L 560.284515 496.538009 
L 578.341395 501.40995 
L 596.398275 477.574149 
L 614.455155 506.744057 
L 632.512035 499.557945 
L 650.568915 498.476775 
L 668.625795 484.353153 
L 686.682675 496.052484 
L 704.739555 483.814236 
L 722.796435 478.543531 
L 740.853315 489.668907 
L 758.910195 486.984335 
L 776.967075 492.084856 
L 795.023955 446.920968 
L 813.080835 471.275664 
L 831.137715 488.025462 
L 849.194595 464.932131 
L 867.251475 478.656987 
L 885.308355 474.337312 
L 903.365235 463.710809 
L 921.422115 491.901324 
L 939.478995 463.171892 
L 957.535875 477.522426 
" clip-path="url(#pf70b8378b5)" style="fill: none; stroke: #be503b; stroke-width: 1.5; stroke-linecap: square"/>
   </g>
   <g id="line2d_47">
    <path d="M 54.691875 413.009261 
L 72.748755 437.847814 
L 90.805635 420.035199 
L 108.862515 408.457667 
L 126.919395 414.010344 
L 144.976275 411.654461 
L 163.033155 421.785427 
L 181.090035 421.69533 
L 199.146915 392.004858 
L 217.203795 390.486548 
L 235.260675 401.171447 
L 253.317555 411.490951 
L 271.374435 404.935521 
L 289.431315 400.235434 
L 307.488195 406.256952 
L 325.545075 401.346637 
L 343.601955 390.820242 
L 397.772595 381.520176 
L 415.829475 350.853647 
L 433.886355 387.299765 
L 451.943235 374.452525 
L 470.000115 363.253736 
L 488.056995 363.510681 
L 506.113875 388.953221 
L 524.170755 448.087231 
L 542.227635 425.03728 
L 560.284515 390.663406 
L 578.341395 374.1522 
L 596.398275 376.504747 
L 614.455155 364.803748 
L 632.512035 369.700715 
L 650.568915 360.525784 
L 668.625795 356.850138 
L 686.682675 356.418004 
L 704.739555 326.023437 
L 722.796435 341.675379 
L 740.853315 337.444132 
L 758.910195 349.722423 
L 776.967075 347.408251 
L 795.023955 330.066146 
L 813.080835 323.108615 
L 831.137715 328.107359 
L 849.194595 354.51094 
L 867.251475 333.865258 
L 885.308355 333.851911 
L 903.365235 341.012995 
L 921.422115 330.942094 
L 939.478995 328.888204 
L 957.535875 294.502651 
" clip-path="url(#pf70b8378b5)" style="fill: none; stroke: #e2321d; stroke-width: 1.5; stroke-linecap: square"/>
   </g>
   <g id="line2d_48">
    <path d="M 54.691875 383.075192 
L 72.748755 416.62651 
L 90.805635 373.459784 
L 108.862515 348.571177 
L 126.919395 339.519712 
L 144.976275 327.93217 
L 163.033155 347.134622 
L 181.090035 330.112863 
L 199.146915 342.826625 
L 217.203795 351.589444 
L 235.260675 299.035891 
L 253.317555 298.248372 
L 271.374435 250.228059 
L 289.431315 279.776711 
L 307.488195 304.036304 
L 325.545075 330.588378 
L 343.601955 296.464774 
L 397.772595 196.14118 
L 415.829475 189.006791 
L 433.886355 128.452911 
L 451.943235 238.562098 
L 470.000115 312.930932 
L 488.056995 299.683258 
L 506.113875 269.438854 
L 524.170755 341.133125 
L 542.227635 270.089558 
L 560.284515 256.665027 
L 578.341395 234.691241 
L 596.398275 177.409237 
L 614.455155 158.875842 
L 632.512035 212.890977 
L 650.568915 192.340399 
L 668.625795 136.661797 
L 686.682675 137.617832 
L 704.739555 117.372584 
L 722.796435 133.750312 
L 740.853315 48.26945 
L 758.910195 163.971358 
L 776.967075 69.23381 
L 795.023955 126.098696 
L 813.080835 103.86296 
L 831.137715 144.635428 
L 849.194595 200.550953 
L 867.251475 170.420005 
L 885.308355 176.021068 
L 903.365235 148.010748 
L 921.422115 160.777901 
L 939.478995 146.732698 
L 957.535875 135.880951 
" clip-path="url(#pf70b8378b5)" style="fill: none; stroke: #48b585; stroke-width: 6; stroke-linecap: square"/>
   </g>
   <g id="patch_3">
    <path d="M 54.691875 567.74175 
L 54.691875 24.14175 
" style="fill: none; stroke: #ffffff; stroke-linejoin: miter; stroke-linecap: square"/>
   </g>
   <g id="patch_4">
    <path d="M 957.535875 567.74175 
L 957.535875 24.14175 
" style="fill: none; stroke: #ffffff; stroke-linejoin: miter; stroke-linecap: square"/>
   </g>
   <g id="patch_5">
    <path d="M 54.691875 567.74175 
L 957.535875 567.74175 
" style="fill: none; stroke: #ffffff; stroke-linejoin: miter; stroke-linecap: square"/>
   </g>
   <g id="patch_6">
    <path d="M 54.691875 24.14175 
L 957.535875 24.14175 
" style="fill: none; stroke: #ffffff; stroke-linejoin: miter; stroke-linecap: square"/>
   </g>
   <g id="text_21">
    <!-- Potentially Ephemeral Enterprise Linux 8 and 9 Instances by Distribution -->
    <g transform="translate(54.691875 18.14175)scale(0.144 -0.144)">
     <defs>
      <path id="DejaVuSans-50" d="M 1259 4147 
L 1259 2394 
L 2053 2394 
Q 2494 2394 2734 2622 
Q 2975 2850 2975 3272 
Q 2975 3691 2734 3919 
Q 2494 4147 2053 4147 
L 1259 4147 
z
M 628 4666 
L 2053 4666 
Q 2838 4666 3239 4311 
Q 3641 3956 3641 3272 
Q 3641 2581 3239 2228 
Q 2838 1875 2053 1875 
L 1259 1875 
L 1259 0 
L 628 0 
L 628 4666 
z
" transform="scale(0.015625)"/>
      <path id="DejaVuSans-6f" d="M 1959 3097 
Q 1497 3097 1228 2736 
Q 959 2375 959 1747 
Q 959 1119 1226 758 
Q 1494 397 1959 397 
Q 2419 397 2687 759 
Q 2956 1122 2956 1747 
Q 2956 2369 2687 2733 
Q 2419 3097 1959 3097 
z
M 1959 3584 
Q 2709 3584 3137 3096 
Q 3566 2609 3566 1747 
Q 3566 888 3137 398 
Q 2709 -91 1959 -91 
Q 1206 -91 779 398 
Q 353 888 353 1747 
Q 353 2609 779 3096 
Q 1206 3584 1959 3584 
z
" transform="scale(0.015625)"/>
      <path id="DejaVuSans-69" d="M 603 3500 
L 1178 3500 
L 1178 0 
L 603 0 
L 603 3500 
z
M 603 4863 
L 1178 4863 
L 1178 4134 
L 603 4134 
L 603 4863 
z
" transform="scale(0.015625)"/>
      <path id="DejaVuSans-6c" d="M 603 4863 
L 1178 4863 
L 1178 0 
L 603 0 
L 603 4863 
z
" transform="scale(0.015625)"/>
      <path id="DejaVuSans-79" d="M 2059 -325 
Q 1816 -950 1584 -1140 
Q 1353 -1331 966 -1331 
L 506 -1331 
L 506 -850 
L 844 -850 
Q 1081 -850 1212 -737 
Q 1344 -625 1503 -206 
L 1606 56 
L 191 3500 
L 800 3500 
L 1894 763 
L 2988 3500 
L 3597 3500 
L 2059 -325 
z
" transform="scale(0.015625)"/>
      <path id="DejaVuSans-20" transform="scale(0.015625)"/>
      <path id="DejaVuSans-45" d="M 628 4666 
L 3578 4666 
L 3578 4134 
L 1259 4134 
L 1259 2753 
L 3481 2753 
L 3481 2222 
L 1259 2222 
L 1259 531 
L 3634 531 
L 3634 0 
L 628 0 
L 628 4666 
z
" transform="scale(0.015625)"/>
      <path id="DejaVuSans-70" d="M 1159 525 
L 1159 -1331 
L 581 -1331 
L 581 3500 
L 1159 3500 
L 1159 2969 
Q 1341 3281 1617 3432 
Q 1894 3584 2278 3584 
Q 2916 3584 3314 3078 
Q 3713 2572 3713 1747 
Q 3713 922 3314 415 
Q 2916 -91 2278 -91 
Q 1894 -91 1617 61 
Q 1341 213 1159 525 
z
M 3116 1747 
Q 3116 2381 2855 2742 
Q 2594 3103 2138 3103 
Q 1681 3103 1420 2742 
Q 1159 2381 1159 1747 
Q 1159 1113 1420 752 
Q 1681 391 2138 391 
Q 2594 391 2855 752 
Q 3116 1113 3116 1747 
z
" transform="scale(0.015625)"/>
      <path id="DejaVuSans-68" d="M 3513 2113 
L 3513 0 
L 2938 0 
L 2938 2094 
Q 2938 2591 2744 2837 
Q 2550 3084 2163 3084 
Q 1697 3084 1428 2787 
Q 1159 2491 1159 1978 
L 1159 0 
L 581 0 
L 581 4863 
L 1159 4863 
L 1159 2956 
Q 1366 3272 1645 3428 
Q 1925 3584 2291 3584 
Q 2894 3584 3203 3211 
Q 3513 2838 3513 2113 
z
" transform="scale(0.015625)"/>
      <path id="DejaVuSans-6d" d="M 3328 2828 
Q 3544 3216 3844 3400 
Q 4144 3584 4550 3584 
Q 5097 3584 5394 3201 
Q 5691 2819 5691 2113 
L 5691 0 
L 5113 0 
L 5113 2094 
Q 5113 2597 4934 2840 
Q 4756 3084 4391 3084 
Q 3944 3084 3684 2787 
Q 3425 2491 3425 1978 
L 3425 0 
L 2847 0 
L 2847 2094 
Q 2847 2600 2669 2842 
Q 2491 3084 2119 3084 
Q 1678 3084 1418 2786 
Q 1159 2488 1159 1978 
L 1159 0 
L 581 0 
L 581 3500 
L 1159 3500 
L 1159 2956 
Q 1356 3278 1631 3431 
Q 1906 3584 2284 3584 
Q 2666 3584 2933 3390 
Q 3200 3197 3328 2828 
z
" transform="scale(0.015625)"/>
      <path id="DejaVuSans-72" d="M 2631 2963 
Q 2534 3019 2420 3045 
Q 2306 3072 2169 3072 
Q 1681 3072 1420 2755 
Q 1159 2438 1159 1844 
L 1159 0 
L 581 0 
L 581 3500 
L 1159 3500 
L 1159 2956 
Q 1341 3275 1631 3429 
Q 1922 3584 2338 3584 
Q 2397 3584 2469 3576 
Q 2541 3569 2628 3553 
L 2631 2963 
z
" transform="scale(0.015625)"/>
      <path id="DejaVuSans-4c" d="M 628 4666 
L 1259 4666 
L 1259 531 
L 3531 531 
L 3531 0 
L 628 0 
L 628 4666 
z
" transform="scale(0.015625)"/>
      <path id="DejaVuSans-75" d="M 544 1381 
L 544 3500 
L 1119 3500 
L 1119 1403 
Q 1119 906 1312 657 
Q 1506 409 1894 409 
Q 2359 409 2629 706 
Q 2900 1003 2900 1516 
L 2900 3500 
L 3475 3500 
L 3475 0 
L 2900 0 
L 2900 538 
Q 2691 219 2414 64 
Q 2138 -91 1772 -91 
Q 1169 -91 856 284 
Q 544 659 544 1381 
z
M 1991 3584 
L 1991 3584 
z
" transform="scale(0.015625)"/>
      <path id="DejaVuSans-78" d="M 3513 3500 
L 2247 1797 
L 3578 0 
L 2900 0 
L 1881 1375 
L 863 0 
L 184 0 
L 1544 1831 
L 300 3500 
L 978 3500 
L 1906 2253 
L 2834 3500 
L 3513 3500 
z
" transform="scale(0.015625)"/>
      <path id="DejaVuSans-64" d="M 2906 2969 
L 2906 4863 
L 3481 4863 
L 3481 0 
L 2906 0 
L 2906 525 
Q 2725 213 2448 61 
Q 2172 -91 1784 -91 
Q 1150 -91 751 415 
Q 353 922 353 1747 
Q 353 2572 751 3078 
Q 1150 3584 1784 3584 
Q 2172 3584 2448 3432 
Q 2725 3281 2906 2969 
z
M 947 1747 
Q 947 1113 1208 752 
Q 1469 391 1925 391 
Q 2381 391 2643 752 
Q 2906 1113 2906 1747 
Q 2906 2381 2643 2742 
Q 2381 3103 1925 3103 
Q 1469 3103 1208 2742 
Q 947 2381 947 1747 
z
" transform="scale(0.015625)"/>
      <path id="DejaVuSans-62" d="M 3116 1747 
Q 3116 2381 2855 2742 
Q 2594 3103 2138 3103 
Q 1681 3103 1420 2742 
Q 1159 2381 1159 1747 
Q 1159 1113 1420 752 
Q 1681 391 2138 391 
Q 2594 391 2855 752 
Q 3116 1113 3116 1747 
z
M 1159 2969 
Q 1341 3281 1617 3432 
Q 1894 3584 2278 3584 
Q 2916 3584 3314 3078 
Q 3713 2572 3713 1747 
Q 3713 922 3314 415 
Q 2916 -91 2278 -91 
Q 1894 -91 1617 61 
Q 1341 213 1159 525 
L 1159 0 
L 581 0 
L 581 4863 
L 1159 4863 
L 1159 2969 
z
" transform="scale(0.015625)"/>
     </defs>
     <use xlink:href="#DejaVuSans-50"/>
     <use xlink:href="#DejaVuSans-6f" x="56.677734"/>
     <use xlink:href="#DejaVuSans-74" x="117.859375"/>
     <use xlink:href="#DejaVuSans-65" x="157.068359"/>
     <use xlink:href="#DejaVuSans-6e" x="218.591797"/>
     <use xlink:href="#DejaVuSans-74" x="281.970703"/>
     <use xlink:href="#DejaVuSans-69" x="321.179688"/>
     <use xlink:href="#DejaVuSans-61" x="348.962891"/>
     <use xlink:href="#DejaVuSans-6c" x="410.242188"/>
     <use xlink:href="#DejaVuSans-6c" x="438.025391"/>
     <use xlink:href="#DejaVuSans-79" x="465.808594"/>
     <use xlink:href="#DejaVuSans-20" x="524.988281"/>
     <use xlink:href="#DejaVuSans-45" x="556.775391"/>
     <use xlink:href="#DejaVuSans-70" x="619.958984"/>
     <use xlink:href="#DejaVuSans-68" x="683.435547"/>
     <use xlink:href="#DejaVuSans-65" x="746.814453"/>
     <use xlink:href="#DejaVuSans-6d" x="808.337891"/>
     <use xlink:href="#DejaVuSans-65" x="905.75"/>
     <use xlink:href="#DejaVuSans-72" x="967.273438"/>
     <use xlink:href="#DejaVuSans-61" x="1008.386719"/>
     <use xlink:href="#DejaVuSans-6c" x="1069.666016"/>
     <use xlink:href="#DejaVuSans-20" x="1097.449219"/>
     <use xlink:href="#DejaVuSans-45" x="1129.236328"/>
     <use xlink:href="#DejaVuSans-6e" x="1192.419922"/>
     <use xlink:href="#DejaVuSans-74" x="1255.798828"/>
     <use xlink:href="#DejaVuSans-65" x="1295.007812"/>
     <use xlink:href="#DejaVuSans-72" x="1356.53125"/>
     <use xlink:href="#DejaVuSans-70" x="1397.644531"/>
     <use xlink:href="#DejaVuSans-72" x="1461.121094"/>
     <use xlink:href="#DejaVuSans-69" x="1502.234375"/>
     <use xlink:href="#DejaVuSans-73" x="1530.017578"/>
     <use xlink:href="#DejaVuSans-65" x="1582.117188"/>
     <use xlink:href="#DejaVuSans-20" x="1643.640625"/>
     <use xlink:href="#DejaVuSans-4c" x="1675.427734"/>
     <use xlink:href="#DejaVuSans-69" x="1731.140625"/>
     <use xlink:href="#DejaVuSans-6e" x="1758.923828"/>
     <use xlink:href="#DejaVuSans-75" x="1822.302734"/>
     <use xlink:href="#DejaVuSans-78" x="1885.681641"/>
     <use xlink:href="#DejaVuSans-20" x="1944.861328"/>
     <use xlink:href="#DejaVuSans-38" x="1976.648438"/>
     <use xlink:href="#DejaVuSans-20" x="2040.271484"/>
     <use xlink:href="#DejaVuSans-61" x="2072.058594"/>
     <use xlink:href="#DejaVuSans-6e" x="2133.337891"/>
     <use xlink:href="#DejaVuSans-64" x="2196.716797"/>
     <use xlink:href="#DejaVuSans-20" x="2260.193359"/>
     <use xlink:href="#DejaVuSans-39" x="2291.980469"/>
     <use xlink:href="#DejaVuSans-20" x="2355.603516"/>
     <use xlink:href="#DejaVuSans-49" x="2387.390625"/>
     <use xlink:href="#DejaVuSans-6e" x="2416.882812"/>
     <use xlink:href="#DejaVuSans-73" x="2480.261719"/>
     <use xlink:href="#DejaVuSans-74" x="2532.361328"/>
     <use xlink:href="#DejaVuSans-61" x="2571.570312"/>
     <use xlink:href="#DejaVuSans-6e" x="2632.849609"/>
     <use xlink:href="#DejaVuSans-63" x="2696.228516"/>
     <use xlink:href="#DejaVuSans-65" x="2751.208984"/>
     <use xlink:href="#DejaVuSans-73" x="2812.732422"/>
     <use xlink:href="#DejaVuSans-20" x="2864.832031"/>
     <use xlink:href="#DejaVuSans-62" x="2896.619141"/>
     <use xlink:href="#DejaVuSans-79" x="2960.095703"/>
     <use xlink:href="#DejaVuSans-20" x="3019.275391"/>
     <use xlink:href="#DejaVuSans-44" x="3051.0625"/>
     <use xlink:href="#DejaVuSans-69" x="3128.064453"/>
     <use xlink:href="#DejaVuSans-73" x="3155.847656"/>
     <use xlink:href="#DejaVuSans-74" x="3207.947266"/>
     <use xlink:href="#DejaVuSans-72" x="3247.15625"/>
     <use xlink:href="#DejaVuSans-69" x="3288.269531"/>
     <use xlink:href="#DejaVuSans-62" x="3316.052734"/>
     <use xlink:href="#DejaVuSans-75" x="3379.529297"/>
     <use xlink:href="#DejaVuSans-74" x="3442.908203"/>
     <use xlink:href="#DejaVuSans-69" x="3482.117188"/>
     <use xlink:href="#DejaVuSans-6f" x="3509.900391"/>
     <use xlink:href="#DejaVuSans-6e" x="3571.082031"/>
    </g>
   </g>
   <g id="text_22">
    <!-- 2024-06-27 11:58 UTC -->
    <g transform="translate(794.653875 18.14175)scale(0.144 -0.144)">
     <defs>
      <path id="DejaVuSans-36" d="M 2113 2584 
Q 1688 2584 1439 2293 
Q 1191 2003 1191 1497 
Q 1191 994 1439 701 
Q 1688 409 2113 409 
Q 2538 409 2786 701 
Q 3034 994 3034 1497 
Q 3034 2003 2786 2293 
Q 2538 2584 2113 2584 
z
M 3366 4563 
L 3366 3988 
Q 3128 4100 2886 4159 
Q 2644 4219 2406 4219 
Q 1781 4219 1451 3797 
Q 1122 3375 1075 2522 
Q 1259 2794 1537 2939 
Q 1816 3084 2150 3084 
Q 2853 3084 3261 2657 
Q 3669 2231 3669 1497 
Q 3669 778 3244 343 
Q 2819 -91 2113 -91 
Q 1303 -91 875 529 
Q 447 1150 447 2328 
Q 447 3434 972 4092 
Q 1497 4750 2381 4750 
Q 2619 4750 2861 4703 
Q 3103 4656 3366 4563 
z
" transform="scale(0.015625)"/>
      <path id="DejaVuSans-3a" d="M 750 794 
L 1409 794 
L 1409 0 
L 750 0 
L 750 794 
z
M 750 3309 
L 1409 3309 
L 1409 2516 
L 750 2516 
L 750 3309 
z
" transform="scale(0.015625)"/>
      <path id="DejaVuSans-55" d="M 556 4666 
L 1191 4666 
L 1191 1831 
Q 1191 1081 1462 751 
Q 1734 422 2344 422 
Q 2950 422 3222 751 
Q 3494 1081 3494 1831 
L 3494 4666 
L 4128 4666 
L 4128 1753 
Q 4128 841 3676 375 
Q 3225 -91 2344 -91 
Q 1459 -91 1007 375 
Q 556 841 556 1753 
L 556 4666 
z
" transform="scale(0.015625)"/>
      <path id="DejaVuSans-54" d="M -19 4666 
L 3928 4666 
L 3928 4134 
L 2272 4134 
L 2272 0 
L 1638 0 
L 1638 4134 
L -19 4134 
L -19 4666 
z
" transform="scale(0.015625)"/>
      <path id="DejaVuSans-43" d="M 4122 4306 
L 4122 3641 
Q 3803 3938 3442 4084 
Q 3081 4231 2675 4231 
Q 1875 4231 1450 3742 
Q 1025 3253 1025 2328 
Q 1025 1406 1450 917 
Q 1875 428 2675 428 
Q 3081 428 3442 575 
Q 3803 722 4122 1019 
L 4122 359 
Q 3791 134 3420 21 
Q 3050 -91 2638 -91 
Q 1578 -91 968 557 
Q 359 1206 359 2328 
Q 359 3453 968 4101 
Q 1578 4750 2638 4750 
Q 3056 4750 3426 4639 
Q 3797 4528 4122 4306 
z
" transform="scale(0.015625)"/>
     </defs>
     <use xlink:href="#DejaVuSans-32"/>
     <use xlink:href="#DejaVuSans-30" x="63.623047"/>
     <use xlink:href="#DejaVuSans-32" x="127.246094"/>
     <use xlink:href="#DejaVuSans-34" x="190.869141"/>
     <use xlink:href="#DejaVuSans-2d" x="254.492188"/>
     <use xlink:href="#DejaVuSans-30" x="290.576172"/>
     <use xlink:href="#DejaVuSans-36" x="354.199219"/>
     <use xlink:href="#DejaVuSans-2d" x="417.822266"/>
     <use xlink:href="#DejaVuSans-32" x="453.90625"/>
     <use xlink:href="#DejaVuSans-37" x="517.529297"/>
     <use xlink:href="#DejaVuSans-20" x="581.152344"/>
     <use xlink:href="#DejaVuSans-31" x="612.939453"/>
     <use xlink:href="#DejaVuSans-31" x="676.5625"/>
     <use xlink:href="#DejaVuSans-3a" x="740.185547"/>
     <use xlink:href="#DejaVuSans-35" x="773.876953"/>
     <use xlink:href="#DejaVuSans-38" x="837.5"/>
     <use xlink:href="#DejaVuSans-20" x="901.123047"/>
     <use xlink:href="#DejaVuSans-55" x="932.910156"/>
     <use xlink:href="#DejaVuSans-54" x="1006.103516"/>
     <use xlink:href="#DejaVuSans-43" x="1061.3125"/>
    </g>
   </g>
   <g id="legend_1">
    <g id="patch_7">
     <path d="M 61.691875 134.888625 
L 170.660625 134.888625 
Q 172.660625 134.888625 172.660625 132.888625 
L 172.660625 31.14175 
Q 172.660625 29.14175 170.660625 29.14175 
L 61.691875 29.14175 
Q 59.691875 29.14175 59.691875 31.14175 
L 59.691875 132.888625 
Q 59.691875 134.888625 61.691875 134.888625 
z
" style="fill: #e5e5e5; opacity: 0.8; stroke: #cccccc; stroke-width: 0.5; stroke-linejoin: miter"/>
    </g>
    <g id="text_23">
     <!-- Distribution -->
     <g transform="translate(87.0075 40.740187)scale(0.1 -0.1)">
      <use xlink:href="#DejaVuSans-44"/>
      <use xlink:href="#DejaVuSans-69" x="77.001953"/>
      <use xlink:href="#DejaVuSans-73" x="104.785156"/>
      <use xlink:href="#DejaVuSans-74" x="156.884766"/>
      <use xlink:href="#DejaVuSans-72" x="196.09375"/>
      <use xlink:href="#DejaVuSans-69" x="237.207031"/>
      <use xlink:href="#DejaVuSans-62" x="264.990234"/>
      <use xlink:href="#DejaVuSans-75" x="328.466797"/>
      <use xlink:href="#DejaVuSans-74" x="391.845703"/>
      <use xlink:href="#DejaVuSans-69" x="431.054688"/>
      <use xlink:href="#DejaVuSans-6f" x="458.837891"/>
      <use xlink:href="#DejaVuSans-6e" x="520.019531"/>
     </g>
    </g>
    <g id="line2d_49">
     <path d="M 63.691875 51.918312 
L 73.691875 51.918312 
L 83.691875 51.918312 
" style="fill: none; stroke: #4ac1fa; stroke-width: 1.5; stroke-linecap: square"/>
    </g>
    <g id="text_24">
     <!-- AlmaLinux -->
     <g transform="translate(91.691875 55.418312)scale(0.1 -0.1)">
      <defs>
       <path id="DejaVuSans-41" d="M 2188 4044 
L 1331 1722 
L 3047 1722 
L 2188 4044 
z
M 1831 4666 
L 2547 4666 
L 4325 0 
L 3669 0 
L 3244 1197 
L 1141 1197 
L 716 0 
L 50 0 
L 1831 4666 
z
" transform="scale(0.015625)"/>
      </defs>
      <use xlink:href="#DejaVuSans-41"/>
      <use xlink:href="#DejaVuSans-6c" x="68.408203"/>
      <use xlink:href="#DejaVuSans-6d" x="96.191406"/>
      <use xlink:href="#DejaVuSans-61" x="193.603516"/>
      <use xlink:href="#DejaVuSans-4c" x="254.882812"/>
      <use xlink:href="#DejaVuSans-69" x="310.595703"/>
      <use xlink:href="#DejaVuSans-6e" x="338.378906"/>
      <use xlink:href="#DejaVuSans-75" x="401.757812"/>
      <use xlink:href="#DejaVuSans-78" x="465.136719"/>
     </g>
    </g>
    <g id="line2d_50">
     <path d="M 63.691875 66.596437 
L 73.691875 66.596437 
L 83.691875 66.596437 
" style="fill: none; stroke: #e9a942; stroke-width: 1.5; stroke-linecap: square"/>
    </g>
    <g id="text_25">
     <!-- CentOS Legacy -->
     <g transform="translate(91.691875 70.096437)scale(0.1 -0.1)">
      <defs>
       <path id="DejaVuSans-4f" d="M 2522 4238 
Q 1834 4238 1429 3725 
Q 1025 3213 1025 2328 
Q 1025 1447 1429 934 
Q 1834 422 2522 422 
Q 3209 422 3611 934 
Q 4013 1447 4013 2328 
Q 4013 3213 3611 3725 
Q 3209 4238 2522 4238 
z
M 2522 4750 
Q 3503 4750 4090 4092 
Q 4678 3434 4678 2328 
Q 4678 1225 4090 567 
Q 3503 -91 2522 -91 
Q 1538 -91 948 565 
Q 359 1222 359 2328 
Q 359 3434 948 4092 
Q 1538 4750 2522 4750 
z
" transform="scale(0.015625)"/>
       <path id="DejaVuSans-53" d="M 3425 4513 
L 3425 3897 
Q 3066 4069 2747 4153 
Q 2428 4238 2131 4238 
Q 1616 4238 1336 4038 
Q 1056 3838 1056 3469 
Q 1056 3159 1242 3001 
Q 1428 2844 1947 2747 
L 2328 2669 
Q 3034 2534 3370 2195 
Q 3706 1856 3706 1288 
Q 3706 609 3251 259 
Q 2797 -91 1919 -91 
Q 1588 -91 1214 -16 
Q 841 59 441 206 
L 441 856 
Q 825 641 1194 531 
Q 1563 422 1919 422 
Q 2459 422 2753 634 
Q 3047 847 3047 1241 
Q 3047 1584 2836 1778 
Q 2625 1972 2144 2069 
L 1759 2144 
Q 1053 2284 737 2584 
Q 422 2884 422 3419 
Q 422 4038 858 4394 
Q 1294 4750 2059 4750 
Q 2388 4750 2728 4690 
Q 3069 4631 3425 4513 
z
" transform="scale(0.015625)"/>
       <path id="DejaVuSans-67" d="M 2906 1791 
Q 2906 2416 2648 2759 
Q 2391 3103 1925 3103 
Q 1463 3103 1205 2759 
Q 947 2416 947 1791 
Q 947 1169 1205 825 
Q 1463 481 1925 481 
Q 2391 481 2648 825 
Q 2906 1169 2906 1791 
z
M 3481 434 
Q 3481 -459 3084 -895 
Q 2688 -1331 1869 -1331 
Q 1566 -1331 1297 -1286 
Q 1028 -1241 775 -1147 
L 775 -588 
Q 1028 -725 1275 -790 
Q 1522 -856 1778 -856 
Q 2344 -856 2625 -561 
Q 2906 -266 2906 331 
L 2906 616 
Q 2728 306 2450 153 
Q 2172 0 1784 0 
Q 1141 0 747 490 
Q 353 981 353 1791 
Q 353 2603 747 3093 
Q 1141 3584 1784 3584 
Q 2172 3584 2450 3431 
Q 2728 3278 2906 2969 
L 2906 3500 
L 3481 3500 
L 3481 434 
z
" transform="scale(0.015625)"/>
      </defs>
      <use xlink:href="#DejaVuSans-43"/>
      <use xlink:href="#DejaVuSans-65" x="69.824219"/>
      <use xlink:href="#DejaVuSans-6e" x="131.347656"/>
      <use xlink:href="#DejaVuSans-74" x="194.726562"/>
      <use xlink:href="#DejaVuSans-4f" x="233.935547"/>
      <use xlink:href="#DejaVuSans-53" x="312.646484"/>
      <use xlink:href="#DejaVuSans-20" x="376.123047"/>
      <use xlink:href="#DejaVuSans-4c" x="407.910156"/>
      <use xlink:href="#DejaVuSans-65" x="461.873047"/>
      <use xlink:href="#DejaVuSans-67" x="523.396484"/>
      <use xlink:href="#DejaVuSans-61" x="586.873047"/>
      <use xlink:href="#DejaVuSans-63" x="648.152344"/>
      <use xlink:href="#DejaVuSans-79" x="703.132812"/>
     </g>
    </g>
    <g id="line2d_51">
     <path d="M 63.691875 81.274563 
L 73.691875 81.274563 
L 83.691875 81.274563 
" style="fill: none; stroke: #9a5689; stroke-width: 1.5; stroke-linecap: square"/>
    </g>
    <g id="text_26">
     <!-- CentOS Stream -->
     <g transform="translate(91.691875 84.774563)scale(0.1 -0.1)">
      <use xlink:href="#DejaVuSans-43"/>
      <use xlink:href="#DejaVuSans-65" x="69.824219"/>
      <use xlink:href="#DejaVuSans-6e" x="131.347656"/>
      <use xlink:href="#DejaVuSans-74" x="194.726562"/>
      <use xlink:href="#DejaVuSans-4f" x="233.935547"/>
      <use xlink:href="#DejaVuSans-53" x="312.646484"/>
      <use xlink:href="#DejaVuSans-20" x="376.123047"/>
      <use xlink:href="#DejaVuSans-53" x="407.910156"/>
      <use xlink:href="#DejaVuSans-74" x="471.386719"/>
      <use xlink:href="#DejaVuSans-72" x="510.595703"/>
      <use xlink:href="#DejaVuSans-65" x="549.458984"/>
      <use xlink:href="#DejaVuSans-61" x="610.982422"/>
      <use xlink:href="#DejaVuSans-6d" x="672.261719"/>
     </g>
    </g>
    <g id="line2d_52">
     <path d="M 63.691875 95.952687 
L 73.691875 95.952687 
L 83.691875 95.952687 
" style="fill: none; stroke: #be503b; stroke-width: 1.5; stroke-linecap: square"/>
    </g>
    <g id="text_27">
     <!-- Oracle -->
     <g transform="translate(91.691875 99.452687)scale(0.1 -0.1)">
      <use xlink:href="#DejaVuSans-4f"/>
      <use xlink:href="#DejaVuSans-72" x="78.710938"/>
      <use xlink:href="#DejaVuSans-61" x="119.824219"/>
      <use xlink:href="#DejaVuSans-63" x="181.103516"/>
      <use xlink:href="#DejaVuSans-6c" x="236.083984"/>
      <use xlink:href="#DejaVuSans-65" x="263.867188"/>
     </g>
    </g>
    <g id="line2d_53">
     <path d="M 63.691875 110.630812 
L 73.691875 110.630812 
L 83.691875 110.630812 
" style="fill: none; stroke: #e2321d; stroke-width: 1.5; stroke-linecap: square"/>
    </g>
    <g id="text_28">
     <!-- RHEL -->
     <g transform="translate(91.691875 114.130812)scale(0.1 -0.1)">
      <defs>
       <path id="DejaVuSans-52" d="M 2841 2188 
Q 3044 2119 3236 1894 
Q 3428 1669 3622 1275 
L 4263 0 
L 3584 0 
L 2988 1197 
Q 2756 1666 2539 1819 
Q 2322 1972 1947 1972 
L 1259 1972 
L 1259 0 
L 628 0 
L 628 4666 
L 2053 4666 
Q 2853 4666 3247 4331 
Q 3641 3997 3641 3322 
Q 3641 2881 3436 2590 
Q 3231 2300 2841 2188 
z
M 1259 4147 
L 1259 2491 
L 2053 2491 
Q 2509 2491 2742 2702 
Q 2975 2913 2975 3322 
Q 2975 3731 2742 3939 
Q 2509 4147 2053 4147 
L 1259 4147 
z
" transform="scale(0.015625)"/>
       <path id="DejaVuSans-48" d="M 628 4666 
L 1259 4666 
L 1259 2753 
L 3553 2753 
L 3553 4666 
L 4184 4666 
L 4184 0 
L 3553 0 
L 3553 2222 
L 1259 2222 
L 1259 0 
L 628 0 
L 628 4666 
z
" transform="scale(0.015625)"/>
      </defs>
      <use xlink:href="#DejaVuSans-52"/>
      <use xlink:href="#DejaVuSans-48" x="69.482422"/>
      <use xlink:href="#DejaVuSans-45" x="144.677734"/>
      <use xlink:href="#DejaVuSans-4c" x="207.861328"/>
     </g>
    </g>
    <g id="line2d_54">
     <path d="M 63.691875 125.308937 
L 73.691875 125.308937 
L 83.691875 125.308937 
" style="fill: none; stroke: #48b585; stroke-width: 6; stroke-linecap: square"/>
    </g>
    <g id="text_29">
     <!-- Rocky Linux -->
     <g transform="translate(91.691875 128.808937)scale(0.1 -0.1)">
      <use xlink:href="#DejaVuSans-52"/>
      <use xlink:href="#DejaVuSans-6f" x="64.982422"/>
      <use xlink:href="#DejaVuSans-63" x="126.164062"/>
      <use xlink:href="#DejaVuSans-6b" x="181.144531"/>
      <use xlink:href="#DejaVuSans-79" x="235.429688"/>
      <use xlink:href="#DejaVuSans-20" x="294.609375"/>
      <use xlink:href="#DejaVuSans-4c" x="326.396484"/>
      <use xlink:href="#DejaVuSans-69" x="382.109375"/>
      <use xlink:href="#DejaVuSans-6e" x="409.892578"/>
      <use xlink:href="#DejaVuSans-75" x="473.271484"/>
      <use xlink:href="#DejaVuSans-78" x="536.650391"/>
     </g>
    </g>
   </g>
  </g>
 </g>
 <defs>
  <clipPath id="pf70b8378b5">
   <rect x="54.691875" y="24.14175" width="902.844" height="543.6"/>
  </clipPath>
 </defs>
</svg>
