<?xml version="1.0" encoding="utf-8" standalone="no"?>
<!DOCTYPE svg PUBLIC "-//W3C//DTD SVG 1.1//EN"
  "http://www.w3.org/Graphics/SVG/1.1/DTD/svg11.dtd">
<svg xmlns:xlink="http://www.w3.org/1999/xlink" width="964.735875pt" height="633.943878pt" viewBox="0 0 964.735875 633.943878" xmlns="http://www.w3.org/2000/svg" version="1.1">
 <metadata>
  <rdf:RDF xmlns:dc="http://purl.org/dc/elements/1.1/" xmlns:cc="http://creativecommons.org/ns#" xmlns:rdf="http://www.w3.org/1999/02/22-rdf-syntax-ns#">
   <cc:Work>
    <dc:type rdf:resource="http://purl.org/dc/dcmitype/StillImage"/>
    <dc:date>2024-08-22T11:55:36.943819</dc:date>
    <dc:format>image/svg+xml</dc:format>
    <dc:creator>
     <cc:Agent>
      <dc:title>Matplotlib v3.5.1, https://matplotlib.org/</dc:title>
     </cc:Agent>
    </dc:creator>
   </cc:Work>
  </rdf:RDF>
 </metadata>
 <defs>
  <style type="text/css">*{stroke-linejoin: round; stroke-linecap: butt}</style>
 </defs>
 <g id="figure_1">
  <g id="patch_1">
   <path d="M 0 633.943878 
L 964.735875 633.943878 
L 964.735875 0 
L 0 0 
z
" style="fill: #ffffff"/>
  </g>
  <g id="axes_1">
   <g id="patch_2">
    <path d="M 54.691875 567.74175 
L 957.535875 567.74175 
L 957.535875 24.14175 
L 54.691875 24.14175 
z
" style="fill: #e5e5e5"/>
   </g>
   <g id="matplotlib.axis_1">
    <g id="xtick_1">
     <g id="line2d_1">
      <path d="M 95.964744 567.74175 
L 95.964744 24.14175 
" clip-path="url(#pdffaeaedc1)" style="fill: none; stroke: #ffffff; stroke-width: 0.8; stroke-linecap: square"/>
     </g>
     <g id="line2d_2">
      <defs>
       <path id="ma8f738465e" d="M 0 0 
L 0 3.5 
" style="stroke: #555555; stroke-width: 0.8"/>
      </defs>
      <g>
       <use xlink:href="#ma8f738465e" x="95.964744" y="567.74175" style="fill: #555555; stroke: #555555; stroke-width: 0.8"/>
      </g>
     </g>
     <g id="text_1">
      <!-- 2023-09 -->
      <g style="fill: #555555" transform="translate(83.143461 609.659567)rotate(-45)scale(0.1 -0.1)">
       <defs>
        <path id="DejaVuSans-32" d="M 1228 531 
L 3431 531 
L 3431 0 
L 469 0 
L 469 531 
Q 828 903 1448 1529 
Q 2069 2156 2228 2338 
Q 2531 2678 2651 2914 
Q 2772 3150 2772 3378 
Q 2772 3750 2511 3984 
Q 2250 4219 1831 4219 
Q 1534 4219 1204 4116 
Q 875 4013 500 3803 
L 500 4441 
Q 881 4594 1212 4672 
Q 1544 4750 1819 4750 
Q 2544 4750 2975 4387 
Q 3406 4025 3406 3419 
Q 3406 3131 3298 2873 
Q 3191 2616 2906 2266 
Q 2828 2175 2409 1742 
Q 1991 1309 1228 531 
z
" transform="scale(0.015625)"/>
        <path id="DejaVuSans-30" d="M 2034 4250 
Q 1547 4250 1301 3770 
Q 1056 3291 1056 2328 
Q 1056 1369 1301 889 
Q 1547 409 2034 409 
Q 2525 409 2770 889 
Q 3016 1369 3016 2328 
Q 3016 3291 2770 3770 
Q 2525 4250 2034 4250 
z
M 2034 4750 
Q 2819 4750 3233 4129 
Q 3647 3509 3647 2328 
Q 3647 1150 3233 529 
Q 2819 -91 2034 -91 
Q 1250 -91 836 529 
Q 422 1150 422 2328 
Q 422 3509 836 4129 
Q 1250 4750 2034 4750 
z
" transform="scale(0.015625)"/>
        <path id="DejaVuSans-33" d="M 2597 2516 
Q 3050 2419 3304 2112 
Q 3559 1806 3559 1356 
Q 3559 666 3084 287 
Q 2609 -91 1734 -91 
Q 1441 -91 1130 -33 
Q 819 25 488 141 
L 488 750 
Q 750 597 1062 519 
Q 1375 441 1716 441 
Q 2309 441 2620 675 
Q 2931 909 2931 1356 
Q 2931 1769 2642 2001 
Q 2353 2234 1838 2234 
L 1294 2234 
L 1294 2753 
L 1863 2753 
Q 2328 2753 2575 2939 
Q 2822 3125 2822 3475 
Q 2822 3834 2567 4026 
Q 2313 4219 1838 4219 
Q 1578 4219 1281 4162 
Q 984 4106 628 3988 
L 628 4550 
Q 988 4650 1302 4700 
Q 1616 4750 1894 4750 
Q 2613 4750 3031 4423 
Q 3450 4097 3450 3541 
Q 3450 3153 3228 2886 
Q 3006 2619 2597 2516 
z
" transform="scale(0.015625)"/>
        <path id="DejaVuSans-2d" d="M 313 2009 
L 1997 2009 
L 1997 1497 
L 313 1497 
L 313 2009 
z
" transform="scale(0.015625)"/>
        <path id="DejaVuSans-39" d="M 703 97 
L 703 672 
Q 941 559 1184 500 
Q 1428 441 1663 441 
Q 2288 441 2617 861 
Q 2947 1281 2994 2138 
Q 2813 1869 2534 1725 
Q 2256 1581 1919 1581 
Q 1219 1581 811 2004 
Q 403 2428 403 3163 
Q 403 3881 828 4315 
Q 1253 4750 1959 4750 
Q 2769 4750 3195 4129 
Q 3622 3509 3622 2328 
Q 3622 1225 3098 567 
Q 2575 -91 1691 -91 
Q 1453 -91 1209 -44 
Q 966 3 703 97 
z
M 1959 2075 
Q 2384 2075 2632 2365 
Q 2881 2656 2881 3163 
Q 2881 3666 2632 3958 
Q 2384 4250 1959 4250 
Q 1534 4250 1286 3958 
Q 1038 3666 1038 3163 
Q 1038 2656 1286 2365 
Q 1534 2075 1959 2075 
z
" transform="scale(0.015625)"/>
       </defs>
       <use xlink:href="#DejaVuSans-32"/>
       <use xlink:href="#DejaVuSans-30" x="63.623047"/>
       <use xlink:href="#DejaVuSans-32" x="127.246094"/>
       <use xlink:href="#DejaVuSans-33" x="190.869141"/>
       <use xlink:href="#DejaVuSans-2d" x="254.492188"/>
       <use xlink:href="#DejaVuSans-30" x="290.576172"/>
       <use xlink:href="#DejaVuSans-39" x="354.199219"/>
      </g>
     </g>
    </g>
    <g id="xtick_2">
     <g id="line2d_3">
      <path d="M 173.351372 567.74175 
L 173.351372 24.14175 
" clip-path="url(#pdffaeaedc1)" style="fill: none; stroke: #ffffff; stroke-width: 0.8; stroke-linecap: square"/>
     </g>
     <g id="line2d_4">
      <g>
       <use xlink:href="#ma8f738465e" x="173.351372" y="567.74175" style="fill: #555555; stroke: #555555; stroke-width: 0.8"/>
      </g>
     </g>
     <g id="text_2">
      <!-- 2023-10 -->
      <g style="fill: #555555" transform="translate(160.53009 609.659567)rotate(-45)scale(0.1 -0.1)">
       <defs>
        <path id="DejaVuSans-31" d="M 794 531 
L 1825 531 
L 1825 4091 
L 703 3866 
L 703 4441 
L 1819 4666 
L 2450 4666 
L 2450 531 
L 3481 531 
L 3481 0 
L 794 0 
L 794 531 
z
" transform="scale(0.015625)"/>
       </defs>
       <use xlink:href="#DejaVuSans-32"/>
       <use xlink:href="#DejaVuSans-30" x="63.623047"/>
       <use xlink:href="#DejaVuSans-32" x="127.246094"/>
       <use xlink:href="#DejaVuSans-33" x="190.869141"/>
       <use xlink:href="#DejaVuSans-2d" x="254.492188"/>
       <use xlink:href="#DejaVuSans-31" x="290.576172"/>
       <use xlink:href="#DejaVuSans-30" x="354.199219"/>
      </g>
     </g>
    </g>
    <g id="xtick_3">
     <g id="line2d_5">
      <path d="M 253.317555 567.74175 
L 253.317555 24.14175 
" clip-path="url(#pdffaeaedc1)" style="fill: none; stroke: #ffffff; stroke-width: 0.8; stroke-linecap: square"/>
     </g>
     <g id="line2d_6">
      <g>
       <use xlink:href="#ma8f738465e" x="253.317555" y="567.74175" style="fill: #555555; stroke: #555555; stroke-width: 0.8"/>
      </g>
     </g>
     <g id="text_3">
      <!-- 2023-11 -->
      <g style="fill: #555555" transform="translate(240.496273 609.659567)rotate(-45)scale(0.1 -0.1)">
       <use xlink:href="#DejaVuSans-32"/>
       <use xlink:href="#DejaVuSans-30" x="63.623047"/>
       <use xlink:href="#DejaVuSans-32" x="127.246094"/>
       <use xlink:href="#DejaVuSans-33" x="190.869141"/>
       <use xlink:href="#DejaVuSans-2d" x="254.492188"/>
       <use xlink:href="#DejaVuSans-31" x="290.576172"/>
       <use xlink:href="#DejaVuSans-31" x="354.199219"/>
      </g>
     </g>
    </g>
    <g id="xtick_4">
     <g id="line2d_7">
      <path d="M 330.704184 567.74175 
L 330.704184 24.14175 
" clip-path="url(#pdffaeaedc1)" style="fill: none; stroke: #ffffff; stroke-width: 0.8; stroke-linecap: square"/>
     </g>
     <g id="line2d_8">
      <g>
       <use xlink:href="#ma8f738465e" x="330.704184" y="567.74175" style="fill: #555555; stroke: #555555; stroke-width: 0.8"/>
      </g>
     </g>
     <g id="text_4">
      <!-- 2023-12 -->
      <g style="fill: #555555" transform="translate(317.882901 609.659567)rotate(-45)scale(0.1 -0.1)">
       <use xlink:href="#DejaVuSans-32"/>
       <use xlink:href="#DejaVuSans-30" x="63.623047"/>
       <use xlink:href="#DejaVuSans-32" x="127.246094"/>
       <use xlink:href="#DejaVuSans-33" x="190.869141"/>
       <use xlink:href="#DejaVuSans-2d" x="254.492188"/>
       <use xlink:href="#DejaVuSans-31" x="290.576172"/>
       <use xlink:href="#DejaVuSans-32" x="354.199219"/>
      </g>
     </g>
    </g>
    <g id="xtick_5">
     <g id="line2d_9">
      <path d="M 410.670366 567.74175 
L 410.670366 24.14175 
" clip-path="url(#pdffaeaedc1)" style="fill: none; stroke: #ffffff; stroke-width: 0.8; stroke-linecap: square"/>
     </g>
     <g id="line2d_10">
      <g>
       <use xlink:href="#ma8f738465e" x="410.670366" y="567.74175" style="fill: #555555; stroke: #555555; stroke-width: 0.8"/>
      </g>
     </g>
     <g id="text_5">
      <!-- 2024-01 -->
      <g style="fill: #555555" transform="translate(397.849084 609.659567)rotate(-45)scale(0.1 -0.1)">
       <defs>
        <path id="DejaVuSans-34" d="M 2419 4116 
L 825 1625 
L 2419 1625 
L 2419 4116 
z
M 2253 4666 
L 3047 4666 
L 3047 1625 
L 3713 1625 
L 3713 1100 
L 3047 1100 
L 3047 0 
L 2419 0 
L 2419 1100 
L 313 1100 
L 313 1709 
L 2253 4666 
z
" transform="scale(0.015625)"/>
       </defs>
       <use xlink:href="#DejaVuSans-32"/>
       <use xlink:href="#DejaVuSans-30" x="63.623047"/>
       <use xlink:href="#DejaVuSans-32" x="127.246094"/>
       <use xlink:href="#DejaVuSans-34" x="190.869141"/>
       <use xlink:href="#DejaVuSans-2d" x="254.492188"/>
       <use xlink:href="#DejaVuSans-30" x="290.576172"/>
       <use xlink:href="#DejaVuSans-31" x="354.199219"/>
      </g>
     </g>
    </g>
    <g id="xtick_6">
     <g id="line2d_11">
      <path d="M 490.636549 567.74175 
L 490.636549 24.14175 
" clip-path="url(#pdffaeaedc1)" style="fill: none; stroke: #ffffff; stroke-width: 0.8; stroke-linecap: square"/>
     </g>
     <g id="line2d_12">
      <g>
       <use xlink:href="#ma8f738465e" x="490.636549" y="567.74175" style="fill: #555555; stroke: #555555; stroke-width: 0.8"/>
      </g>
     </g>
     <g id="text_6">
      <!-- 2024-02 -->
      <g style="fill: #555555" transform="translate(477.815267 609.659567)rotate(-45)scale(0.1 -0.1)">
       <use xlink:href="#DejaVuSans-32"/>
       <use xlink:href="#DejaVuSans-30" x="63.623047"/>
       <use xlink:href="#DejaVuSans-32" x="127.246094"/>
       <use xlink:href="#DejaVuSans-34" x="190.869141"/>
       <use xlink:href="#DejaVuSans-2d" x="254.492188"/>
       <use xlink:href="#DejaVuSans-30" x="290.576172"/>
       <use xlink:href="#DejaVuSans-32" x="354.199219"/>
      </g>
     </g>
    </g>
    <g id="xtick_7">
     <g id="line2d_13">
      <path d="M 565.443624 567.74175 
L 565.443624 24.14175 
" clip-path="url(#pdffaeaedc1)" style="fill: none; stroke: #ffffff; stroke-width: 0.8; stroke-linecap: square"/>
     </g>
     <g id="line2d_14">
      <g>
       <use xlink:href="#ma8f738465e" x="565.443624" y="567.74175" style="fill: #555555; stroke: #555555; stroke-width: 0.8"/>
      </g>
     </g>
     <g id="text_7">
      <!-- 2024-03 -->
      <g style="fill: #555555" transform="translate(552.622341 609.659567)rotate(-45)scale(0.1 -0.1)">
       <use xlink:href="#DejaVuSans-32"/>
       <use xlink:href="#DejaVuSans-30" x="63.623047"/>
       <use xlink:href="#DejaVuSans-32" x="127.246094"/>
       <use xlink:href="#DejaVuSans-34" x="190.869141"/>
       <use xlink:href="#DejaVuSans-2d" x="254.492188"/>
       <use xlink:href="#DejaVuSans-30" x="290.576172"/>
       <use xlink:href="#DejaVuSans-33" x="354.199219"/>
      </g>
     </g>
    </g>
    <g id="xtick_8">
     <g id="line2d_15">
      <path d="M 645.409806 567.74175 
L 645.409806 24.14175 
" clip-path="url(#pdffaeaedc1)" style="fill: none; stroke: #ffffff; stroke-width: 0.8; stroke-linecap: square"/>
     </g>
     <g id="line2d_16">
      <g>
       <use xlink:href="#ma8f738465e" x="645.409806" y="567.74175" style="fill: #555555; stroke: #555555; stroke-width: 0.8"/>
      </g>
     </g>
     <g id="text_8">
      <!-- 2024-04 -->
      <g style="fill: #555555" transform="translate(632.588524 609.659567)rotate(-45)scale(0.1 -0.1)">
       <use xlink:href="#DejaVuSans-32"/>
       <use xlink:href="#DejaVuSans-30" x="63.623047"/>
       <use xlink:href="#DejaVuSans-32" x="127.246094"/>
       <use xlink:href="#DejaVuSans-34" x="190.869141"/>
       <use xlink:href="#DejaVuSans-2d" x="254.492188"/>
       <use xlink:href="#DejaVuSans-30" x="290.576172"/>
       <use xlink:href="#DejaVuSans-34" x="354.199219"/>
      </g>
     </g>
    </g>
    <g id="xtick_9">
     <g id="line2d_17">
      <path d="M 722.796435 567.74175 
L 722.796435 24.14175 
" clip-path="url(#pdffaeaedc1)" style="fill: none; stroke: #ffffff; stroke-width: 0.8; stroke-linecap: square"/>
     </g>
     <g id="line2d_18">
      <g>
       <use xlink:href="#ma8f738465e" x="722.796435" y="567.74175" style="fill: #555555; stroke: #555555; stroke-width: 0.8"/>
      </g>
     </g>
     <g id="text_9">
      <!-- 2024-05 -->
      <g style="fill: #555555" transform="translate(709.975153 609.659567)rotate(-45)scale(0.1 -0.1)">
       <defs>
        <path id="DejaVuSans-35" d="M 691 4666 
L 3169 4666 
L 3169 4134 
L 1269 4134 
L 1269 2991 
Q 1406 3038 1543 3061 
Q 1681 3084 1819 3084 
Q 2600 3084 3056 2656 
Q 3513 2228 3513 1497 
Q 3513 744 3044 326 
Q 2575 -91 1722 -91 
Q 1428 -91 1123 -41 
Q 819 9 494 109 
L 494 744 
Q 775 591 1075 516 
Q 1375 441 1709 441 
Q 2250 441 2565 725 
Q 2881 1009 2881 1497 
Q 2881 1984 2565 2268 
Q 2250 2553 1709 2553 
Q 1456 2553 1204 2497 
Q 953 2441 691 2322 
L 691 4666 
z
" transform="scale(0.015625)"/>
       </defs>
       <use xlink:href="#DejaVuSans-32"/>
       <use xlink:href="#DejaVuSans-30" x="63.623047"/>
       <use xlink:href="#DejaVuSans-32" x="127.246094"/>
       <use xlink:href="#DejaVuSans-34" x="190.869141"/>
       <use xlink:href="#DejaVuSans-2d" x="254.492188"/>
       <use xlink:href="#DejaVuSans-30" x="290.576172"/>
       <use xlink:href="#DejaVuSans-35" x="354.199219"/>
      </g>
     </g>
    </g>
    <g id="xtick_10">
     <g id="line2d_19">
      <path d="M 802.762618 567.74175 
L 802.762618 24.14175 
" clip-path="url(#pdffaeaedc1)" style="fill: none; stroke: #ffffff; stroke-width: 0.8; stroke-linecap: square"/>
     </g>
     <g id="line2d_20">
      <g>
       <use xlink:href="#ma8f738465e" x="802.762618" y="567.74175" style="fill: #555555; stroke: #555555; stroke-width: 0.8"/>
      </g>
     </g>
     <g id="text_10">
      <!-- 2024-06 -->
      <g style="fill: #555555" transform="translate(789.941336 609.659567)rotate(-45)scale(0.1 -0.1)">
       <defs>
        <path id="DejaVuSans-36" d="M 2113 2584 
Q 1688 2584 1439 2293 
Q 1191 2003 1191 1497 
Q 1191 994 1439 701 
Q 1688 409 2113 409 
Q 2538 409 2786 701 
Q 3034 994 3034 1497 
Q 3034 2003 2786 2293 
Q 2538 2584 2113 2584 
z
M 3366 4563 
L 3366 3988 
Q 3128 4100 2886 4159 
Q 2644 4219 2406 4219 
Q 1781 4219 1451 3797 
Q 1122 3375 1075 2522 
Q 1259 2794 1537 2939 
Q 1816 3084 2150 3084 
Q 2853 3084 3261 2657 
Q 3669 2231 3669 1497 
Q 3669 778 3244 343 
Q 2819 -91 2113 -91 
Q 1303 -91 875 529 
Q 447 1150 447 2328 
Q 447 3434 972 4092 
Q 1497 4750 2381 4750 
Q 2619 4750 2861 4703 
Q 3103 4656 3366 4563 
z
" transform="scale(0.015625)"/>
       </defs>
       <use xlink:href="#DejaVuSans-32"/>
       <use xlink:href="#DejaVuSans-30" x="63.623047"/>
       <use xlink:href="#DejaVuSans-32" x="127.246094"/>
       <use xlink:href="#DejaVuSans-34" x="190.869141"/>
       <use xlink:href="#DejaVuSans-2d" x="254.492188"/>
       <use xlink:href="#DejaVuSans-30" x="290.576172"/>
       <use xlink:href="#DejaVuSans-36" x="354.199219"/>
      </g>
     </g>
    </g>
    <g id="xtick_11">
     <g id="line2d_21">
      <path d="M 880.149246 567.74175 
L 880.149246 24.14175 
" clip-path="url(#pdffaeaedc1)" style="fill: none; stroke: #ffffff; stroke-width: 0.8; stroke-linecap: square"/>
     </g>
     <g id="line2d_22">
      <g>
       <use xlink:href="#ma8f738465e" x="880.149246" y="567.74175" style="fill: #555555; stroke: #555555; stroke-width: 0.8"/>
      </g>
     </g>
     <g id="text_11">
      <!-- 2024-07 -->
      <g style="fill: #555555" transform="translate(867.327964 609.659567)rotate(-45)scale(0.1 -0.1)">
       <defs>
        <path id="DejaVuSans-37" d="M 525 4666 
L 3525 4666 
L 3525 4397 
L 1831 0 
L 1172 0 
L 2766 4134 
L 525 4134 
L 525 4666 
z
" transform="scale(0.015625)"/>
       </defs>
       <use xlink:href="#DejaVuSans-32"/>
       <use xlink:href="#DejaVuSans-30" x="63.623047"/>
       <use xlink:href="#DejaVuSans-32" x="127.246094"/>
       <use xlink:href="#DejaVuSans-34" x="190.869141"/>
       <use xlink:href="#DejaVuSans-2d" x="254.492188"/>
       <use xlink:href="#DejaVuSans-30" x="290.576172"/>
       <use xlink:href="#DejaVuSans-37" x="354.199219"/>
      </g>
     </g>
    </g>
    <g id="text_12">
     <!-- Date -->
     <g style="fill: #555555" transform="translate(491.772938 624.248253)scale(0.12 -0.12)">
      <defs>
       <path id="DejaVuSans-44" d="M 1259 4147 
L 1259 519 
L 2022 519 
Q 2988 519 3436 956 
Q 3884 1394 3884 2338 
Q 3884 3275 3436 3711 
Q 2988 4147 2022 4147 
L 1259 4147 
z
M 628 4666 
L 1925 4666 
Q 3281 4666 3915 4102 
Q 4550 3538 4550 2338 
Q 4550 1131 3912 565 
Q 3275 0 1925 0 
L 628 0 
L 628 4666 
z
" transform="scale(0.015625)"/>
       <path id="DejaVuSans-61" d="M 2194 1759 
Q 1497 1759 1228 1600 
Q 959 1441 959 1056 
Q 959 750 1161 570 
Q 1363 391 1709 391 
Q 2188 391 2477 730 
Q 2766 1069 2766 1631 
L 2766 1759 
L 2194 1759 
z
M 3341 1997 
L 3341 0 
L 2766 0 
L 2766 531 
Q 2569 213 2275 61 
Q 1981 -91 1556 -91 
Q 1019 -91 701 211 
Q 384 513 384 1019 
Q 384 1609 779 1909 
Q 1175 2209 1959 2209 
L 2766 2209 
L 2766 2266 
Q 2766 2663 2505 2880 
Q 2244 3097 1772 3097 
Q 1472 3097 1187 3025 
Q 903 2953 641 2809 
L 641 3341 
Q 956 3463 1253 3523 
Q 1550 3584 1831 3584 
Q 2591 3584 2966 3190 
Q 3341 2797 3341 1997 
z
" transform="scale(0.015625)"/>
       <path id="DejaVuSans-74" d="M 1172 4494 
L 1172 3500 
L 2356 3500 
L 2356 3053 
L 1172 3053 
L 1172 1153 
Q 1172 725 1289 603 
Q 1406 481 1766 481 
L 2356 481 
L 2356 0 
L 1766 0 
Q 1100 0 847 248 
Q 594 497 594 1153 
L 594 3053 
L 172 3053 
L 172 3500 
L 594 3500 
L 594 4494 
L 1172 4494 
z
" transform="scale(0.015625)"/>
       <path id="DejaVuSans-65" d="M 3597 1894 
L 3597 1613 
L 953 1613 
Q 991 1019 1311 708 
Q 1631 397 2203 397 
Q 2534 397 2845 478 
Q 3156 559 3463 722 
L 3463 178 
Q 3153 47 2828 -22 
Q 2503 -91 2169 -91 
Q 1331 -91 842 396 
Q 353 884 353 1716 
Q 353 2575 817 3079 
Q 1281 3584 2069 3584 
Q 2775 3584 3186 3129 
Q 3597 2675 3597 1894 
z
M 3022 2063 
Q 3016 2534 2758 2815 
Q 2500 3097 2075 3097 
Q 1594 3097 1305 2825 
Q 1016 2553 972 2059 
L 3022 2063 
z
" transform="scale(0.015625)"/>
      </defs>
      <use xlink:href="#DejaVuSans-44"/>
      <use xlink:href="#DejaVuSans-61" x="77.001953"/>
      <use xlink:href="#DejaVuSans-74" x="138.28125"/>
      <use xlink:href="#DejaVuSans-65" x="177.490234"/>
     </g>
    </g>
   </g>
   <g id="matplotlib.axis_2">
    <g id="ytick_1">
     <g id="line2d_23">
      <path d="M 54.691875 567.74175 
L 957.535875 567.74175 
" clip-path="url(#pdffaeaedc1)" style="fill: none; stroke: #ffffff; stroke-width: 0.8; stroke-linecap: square"/>
     </g>
     <g id="line2d_24">
      <defs>
       <path id="m914f960253" d="M 0 0 
L -3.5 0 
" style="stroke: #555555; stroke-width: 0.8"/>
      </defs>
      <g>
       <use xlink:href="#m914f960253" x="54.691875" y="567.74175" style="fill: #555555; stroke: #555555; stroke-width: 0.8"/>
      </g>
     </g>
     <g id="text_13">
      <!-- 0k -->
      <g style="fill: #555555" transform="translate(35.53875 571.540969)scale(0.1 -0.1)">
       <defs>
        <path id="DejaVuSans-6b" d="M 581 4863 
L 1159 4863 
L 1159 1991 
L 2875 3500 
L 3609 3500 
L 1753 1863 
L 3688 0 
L 2938 0 
L 1159 1709 
L 1159 0 
L 581 0 
L 581 4863 
z
" transform="scale(0.015625)"/>
       </defs>
       <use xlink:href="#DejaVuSans-30"/>
       <use xlink:href="#DejaVuSans-6b" x="63.623047"/>
      </g>
     </g>
    </g>
    <g id="ytick_2">
     <g id="line2d_25">
      <path d="M 54.691875 493.340269 
L 957.535875 493.340269 
" clip-path="url(#pdffaeaedc1)" style="fill: none; stroke: #ffffff; stroke-width: 0.8; stroke-linecap: square"/>
     </g>
     <g id="line2d_26">
      <g>
       <use xlink:href="#m914f960253" x="54.691875" y="493.340269" style="fill: #555555; stroke: #555555; stroke-width: 0.8"/>
      </g>
     </g>
     <g id="text_14">
      <!-- 50k -->
      <g style="fill: #555555" transform="translate(29.17625 497.139488)scale(0.1 -0.1)">
       <use xlink:href="#DejaVuSans-35"/>
       <use xlink:href="#DejaVuSans-30" x="63.623047"/>
       <use xlink:href="#DejaVuSans-6b" x="127.246094"/>
      </g>
     </g>
    </g>
    <g id="ytick_3">
     <g id="line2d_27">
      <path d="M 54.691875 418.938788 
L 957.535875 418.938788 
" clip-path="url(#pdffaeaedc1)" style="fill: none; stroke: #ffffff; stroke-width: 0.8; stroke-linecap: square"/>
     </g>
     <g id="line2d_28">
      <g>
       <use xlink:href="#m914f960253" x="54.691875" y="418.938788" style="fill: #555555; stroke: #555555; stroke-width: 0.8"/>
      </g>
     </g>
     <g id="text_15">
      <!-- 100k -->
      <g style="fill: #555555" transform="translate(22.81375 422.738007)scale(0.1 -0.1)">
       <use xlink:href="#DejaVuSans-31"/>
       <use xlink:href="#DejaVuSans-30" x="63.623047"/>
       <use xlink:href="#DejaVuSans-30" x="127.246094"/>
       <use xlink:href="#DejaVuSans-6b" x="190.869141"/>
      </g>
     </g>
    </g>
    <g id="ytick_4">
     <g id="line2d_29">
      <path d="M 54.691875 344.537307 
L 957.535875 344.537307 
" clip-path="url(#pdffaeaedc1)" style="fill: none; stroke: #ffffff; stroke-width: 0.8; stroke-linecap: square"/>
     </g>
     <g id="line2d_30">
      <g>
       <use xlink:href="#m914f960253" x="54.691875" y="344.537307" style="fill: #555555; stroke: #555555; stroke-width: 0.8"/>
      </g>
     </g>
     <g id="text_16">
      <!-- 150k -->
      <g style="fill: #555555" transform="translate(22.81375 348.336526)scale(0.1 -0.1)">
       <use xlink:href="#DejaVuSans-31"/>
       <use xlink:href="#DejaVuSans-35" x="63.623047"/>
       <use xlink:href="#DejaVuSans-30" x="127.246094"/>
       <use xlink:href="#DejaVuSans-6b" x="190.869141"/>
      </g>
     </g>
    </g>
    <g id="ytick_5">
     <g id="line2d_31">
      <path d="M 54.691875 270.135826 
L 957.535875 270.135826 
" clip-path="url(#pdffaeaedc1)" style="fill: none; stroke: #ffffff; stroke-width: 0.8; stroke-linecap: square"/>
     </g>
     <g id="line2d_32">
      <g>
       <use xlink:href="#m914f960253" x="54.691875" y="270.135826" style="fill: #555555; stroke: #555555; stroke-width: 0.8"/>
      </g>
     </g>
     <g id="text_17">
      <!-- 200k -->
      <g style="fill: #555555" transform="translate(22.81375 273.935044)scale(0.1 -0.1)">
       <use xlink:href="#DejaVuSans-32"/>
       <use xlink:href="#DejaVuSans-30" x="63.623047"/>
       <use xlink:href="#DejaVuSans-30" x="127.246094"/>
       <use xlink:href="#DejaVuSans-6b" x="190.869141"/>
      </g>
     </g>
    </g>
    <g id="ytick_6">
     <g id="line2d_33">
      <path d="M 54.691875 195.734345 
L 957.535875 195.734345 
" clip-path="url(#pdffaeaedc1)" style="fill: none; stroke: #ffffff; stroke-width: 0.8; stroke-linecap: square"/>
     </g>
     <g id="line2d_34">
      <g>
       <use xlink:href="#m914f960253" x="54.691875" y="195.734345" style="fill: #555555; stroke: #555555; stroke-width: 0.8"/>
      </g>
     </g>
     <g id="text_18">
      <!-- 250k -->
      <g style="fill: #555555" transform="translate(22.81375 199.533563)scale(0.1 -0.1)">
       <use xlink:href="#DejaVuSans-32"/>
       <use xlink:href="#DejaVuSans-35" x="63.623047"/>
       <use xlink:href="#DejaVuSans-30" x="127.246094"/>
       <use xlink:href="#DejaVuSans-6b" x="190.869141"/>
      </g>
     </g>
    </g>
    <g id="ytick_7">
     <g id="line2d_35">
      <path d="M 54.691875 121.332864 
L 957.535875 121.332864 
" clip-path="url(#pdffaeaedc1)" style="fill: none; stroke: #ffffff; stroke-width: 0.8; stroke-linecap: square"/>
     </g>
     <g id="line2d_36">
      <g>
       <use xlink:href="#m914f960253" x="54.691875" y="121.332864" style="fill: #555555; stroke: #555555; stroke-width: 0.8"/>
      </g>
     </g>
     <g id="text_19">
      <!-- 300k -->
      <g style="fill: #555555" transform="translate(22.81375 125.132082)scale(0.1 -0.1)">
       <use xlink:href="#DejaVuSans-33"/>
       <use xlink:href="#DejaVuSans-30" x="63.623047"/>
       <use xlink:href="#DejaVuSans-30" x="127.246094"/>
       <use xlink:href="#DejaVuSans-6b" x="190.869141"/>
      </g>
     </g>
    </g>
    <g id="ytick_8">
     <g id="line2d_37">
      <path d="M 54.691875 46.931382 
L 957.535875 46.931382 
" clip-path="url(#pdffaeaedc1)" style="fill: none; stroke: #ffffff; stroke-width: 0.8; stroke-linecap: square"/>
     </g>
     <g id="line2d_38">
      <g>
       <use xlink:href="#m914f960253" x="54.691875" y="46.931382" style="fill: #555555; stroke: #555555; stroke-width: 0.8"/>
      </g>
     </g>
     <g id="text_20">
      <!-- 350k -->
      <g style="fill: #555555" transform="translate(22.81375 50.730601)scale(0.1 -0.1)">
       <use xlink:href="#DejaVuSans-33"/>
       <use xlink:href="#DejaVuSans-35" x="63.623047"/>
       <use xlink:href="#DejaVuSans-30" x="127.246094"/>
       <use xlink:href="#DejaVuSans-6b" x="190.869141"/>
      </g>
     </g>
    </g>
    <g id="text_21">
     <!-- Instances -->
     <g style="fill: #555555" transform="translate(16.318125 324.588)rotate(-90)scale(0.12 -0.12)">
      <defs>
       <path id="DejaVuSans-49" d="M 628 4666 
L 1259 4666 
L 1259 0 
L 628 0 
L 628 4666 
z
" transform="scale(0.015625)"/>
       <path id="DejaVuSans-6e" d="M 3513 2113 
L 3513 0 
L 2938 0 
L 2938 2094 
Q 2938 2591 2744 2837 
Q 2550 3084 2163 3084 
Q 1697 3084 1428 2787 
Q 1159 2491 1159 1978 
L 1159 0 
L 581 0 
L 581 3500 
L 1159 3500 
L 1159 2956 
Q 1366 3272 1645 3428 
Q 1925 3584 2291 3584 
Q 2894 3584 3203 3211 
Q 3513 2838 3513 2113 
z
" transform="scale(0.015625)"/>
       <path id="DejaVuSans-73" d="M 2834 3397 
L 2834 2853 
Q 2591 2978 2328 3040 
Q 2066 3103 1784 3103 
Q 1356 3103 1142 2972 
Q 928 2841 928 2578 
Q 928 2378 1081 2264 
Q 1234 2150 1697 2047 
L 1894 2003 
Q 2506 1872 2764 1633 
Q 3022 1394 3022 966 
Q 3022 478 2636 193 
Q 2250 -91 1575 -91 
Q 1294 -91 989 -36 
Q 684 19 347 128 
L 347 722 
Q 666 556 975 473 
Q 1284 391 1588 391 
Q 1994 391 2212 530 
Q 2431 669 2431 922 
Q 2431 1156 2273 1281 
Q 2116 1406 1581 1522 
L 1381 1569 
Q 847 1681 609 1914 
Q 372 2147 372 2553 
Q 372 3047 722 3315 
Q 1072 3584 1716 3584 
Q 2034 3584 2315 3537 
Q 2597 3491 2834 3397 
z
" transform="scale(0.015625)"/>
       <path id="DejaVuSans-63" d="M 3122 3366 
L 3122 2828 
Q 2878 2963 2633 3030 
Q 2388 3097 2138 3097 
Q 1578 3097 1268 2742 
Q 959 2388 959 1747 
Q 959 1106 1268 751 
Q 1578 397 2138 397 
Q 2388 397 2633 464 
Q 2878 531 3122 666 
L 3122 134 
Q 2881 22 2623 -34 
Q 2366 -91 2075 -91 
Q 1284 -91 818 406 
Q 353 903 353 1747 
Q 353 2603 823 3093 
Q 1294 3584 2113 3584 
Q 2378 3584 2631 3529 
Q 2884 3475 3122 3366 
z
" transform="scale(0.015625)"/>
      </defs>
      <use xlink:href="#DejaVuSans-49"/>
      <use xlink:href="#DejaVuSans-6e" x="29.492188"/>
      <use xlink:href="#DejaVuSans-73" x="92.871094"/>
      <use xlink:href="#DejaVuSans-74" x="144.970703"/>
      <use xlink:href="#DejaVuSans-61" x="184.179688"/>
      <use xlink:href="#DejaVuSans-6e" x="245.458984"/>
      <use xlink:href="#DejaVuSans-63" x="308.837891"/>
      <use xlink:href="#DejaVuSans-65" x="363.818359"/>
      <use xlink:href="#DejaVuSans-73" x="425.341797"/>
     </g>
    </g>
   </g>
   <g id="line2d_39">
    <path d="M 54.691875 440.371616 
L 63.811511 439.50941 
L 72.931148 438.647204 
L 82.050784 437.784998 
L 91.17042 436.922791 
L 100.290057 436.060585 
L 109.409693 435.198379 
L 118.52933 434.336172 
L 127.648966 433.473966 
L 136.768602 432.61176 
L 145.888239 431.749554 
L 155.007875 430.887347 
L 164.127511 430.025141 
L 173.247148 429.162935 
L 182.366784 428.300729 
L 191.48642 427.438522 
L 200.606057 426.576316 
L 209.725693 425.71411 
L 218.84533 424.851904 
L 227.964966 423.989697 
L 237.084602 423.127491 
L 246.204239 422.265285 
L 255.323875 421.403079 
L 264.443511 420.540872 
L 273.563148 419.678666 
L 282.682784 418.81646 
L 291.80242 417.954254 
L 300.922057 417.092047 
L 310.041693 416.229841 
L 319.16133 415.367635 
L 328.280966 414.505428 
L 337.400602 413.643222 
L 346.520239 412.781016 
L 355.639875 411.91881 
L 364.759511 411.056603 
L 373.879148 410.194397 
L 382.998784 409.332191 
L 392.11842 408.469985 
L 401.238057 407.607778 
L 410.357693 406.745572 
L 419.47733 405.883366 
L 428.596966 405.02116 
L 437.716602 404.158953 
L 446.836239 403.296747 
L 455.955875 402.434541 
L 465.075511 401.572335 
L 474.195148 400.710128 
L 483.314784 399.847922 
L 492.43442 398.985716 
L 501.554057 398.123509 
L 510.673693 397.261303 
L 519.79333 396.399097 
L 528.912966 395.536891 
L 538.032602 394.674684 
L 547.152239 393.812478 
L 556.271875 392.950272 
L 565.391511 392.088066 
L 574.511148 391.225859 
L 583.630784 390.363653 
L 592.75042 389.501447 
L 601.870057 388.639241 
L 610.989693 387.777034 
L 620.10933 386.914828 
L 629.228966 386.052622 
L 638.348602 385.190416 
L 647.468239 384.328209 
L 656.587875 383.466003 
L 665.707511 382.603797 
L 674.827148 381.741591 
L 683.946784 380.879384 
L 693.06642 380.017178 
L 702.186057 379.154972 
L 711.305693 378.292765 
L 720.42533 377.430559 
L 729.544966 376.568353 
L 738.664602 375.706147 
L 747.784239 374.84394 
L 756.903875 373.981734 
L 766.023511 373.119528 
L 775.143148 372.257322 
L 784.262784 371.395115 
L 793.38242 370.532909 
L 802.502057 369.670703 
L 811.621693 368.808497 
L 820.74133 367.94629 
L 829.860966 367.084084 
L 838.980602 366.221878 
L 848.100239 365.359672 
L 857.219875 364.497465 
L 866.339511 363.635259 
L 875.459148 362.773053 
L 884.578784 361.910847 
L 893.69842 361.04864 
L 902.818057 360.186434 
L 911.937693 359.324228 
L 921.05733 358.462021 
L 930.176966 357.599815 
L 939.296602 356.737609 
L 948.416239 355.875403 
L 957.535875 355.013196 
" clip-path="url(#pdffaeaedc1)" style="fill: none; stroke-dasharray: 1.5,2.475; stroke-dashoffset: 0; stroke: #4ac1fa; stroke-width: 1.5"/>
   </g>
   <g id="line2d_40">
    <path d="M 54.691875 529.035372 
L 63.811511 528.036673 
L 72.931148 527.037974 
L 82.050784 526.039274 
L 91.17042 525.040575 
L 100.290057 524.041876 
L 109.409693 523.043176 
L 118.52933 522.044477 
L 127.648966 521.045778 
L 136.768602 520.047079 
L 145.888239 519.048379 
L 155.007875 518.04968 
L 164.127511 517.050981 
L 173.247148 516.052282 
L 182.366784 515.053582 
L 191.48642 514.054883 
L 200.606057 513.056184 
L 209.725693 512.057485 
L 218.84533 511.058785 
L 227.964966 510.060086 
L 237.084602 509.061387 
L 246.204239 508.062688 
L 255.323875 507.063988 
L 264.443511 506.065289 
L 273.563148 505.06659 
L 282.682784 504.067891 
L 291.80242 503.069191 
L 300.922057 502.070492 
L 310.041693 501.071793 
L 319.16133 500.073093 
L 328.280966 499.074394 
L 337.400602 498.075695 
L 346.520239 497.076996 
L 355.639875 496.078296 
L 364.759511 495.079597 
L 373.879148 494.080898 
L 382.998784 493.082199 
L 392.11842 492.083499 
L 401.238057 491.0848 
L 410.357693 490.086101 
L 419.47733 489.087402 
L 428.596966 488.088702 
L 437.716602 487.090003 
L 446.836239 486.091304 
L 455.955875 485.092605 
L 465.075511 484.093905 
L 474.195148 483.095206 
L 483.314784 482.096507 
L 492.43442 481.097807 
L 501.554057 480.099108 
L 510.673693 479.100409 
L 519.79333 478.10171 
L 528.912966 477.10301 
L 538.032602 476.104311 
L 547.152239 475.105612 
L 556.271875 474.106913 
L 565.391511 473.108213 
L 574.511148 472.109514 
L 583.630784 471.110815 
L 592.75042 470.112116 
L 601.870057 469.113416 
L 610.989693 468.114717 
L 620.10933 467.116018 
L 629.228966 466.117319 
L 638.348602 465.118619 
L 647.468239 464.11992 
L 656.587875 463.121221 
L 665.707511 462.122522 
L 674.827148 461.123822 
L 683.946784 460.125123 
L 693.06642 459.126424 
L 702.186057 458.127724 
L 711.305693 457.129025 
L 720.42533 456.130326 
L 729.544966 455.131627 
L 738.664602 454.132927 
L 747.784239 453.134228 
L 756.903875 452.135529 
L 766.023511 451.13683 
L 775.143148 450.13813 
L 784.262784 449.139431 
L 793.38242 448.140732 
L 802.502057 447.142033 
L 811.621693 446.143333 
L 820.74133 445.144634 
L 829.860966 444.145935 
L 838.980602 443.147236 
L 848.100239 442.148536 
L 857.219875 441.149837 
L 866.339511 440.151138 
L 875.459148 439.152439 
L 884.578784 438.153739 
L 893.69842 437.15504 
L 902.818057 436.156341 
L 911.937693 435.157641 
L 921.05733 434.158942 
L 930.176966 433.160243 
L 939.296602 432.161544 
L 948.416239 431.162844 
L 957.535875 430.164145 
" clip-path="url(#pdffaeaedc1)" style="fill: none; stroke-dasharray: 1.5,2.475; stroke-dashoffset: 0; stroke: #e9a942; stroke-width: 1.5"/>
   </g>
   <g id="line2d_41">
    <path d="M 54.691875 468.21297 
L 63.811511 468.166213 
L 72.931148 468.119456 
L 82.050784 468.072699 
L 91.17042 468.025943 
L 100.290057 467.979186 
L 109.409693 467.932429 
L 118.52933 467.885672 
L 127.648966 467.838915 
L 136.768602 467.792158 
L 145.888239 467.745401 
L 155.007875 467.698644 
L 164.127511 467.651887 
L 173.247148 467.60513 
L 182.366784 467.558373 
L 191.48642 467.511616 
L 200.606057 467.46486 
L 209.725693 467.418103 
L 218.84533 467.371346 
L 227.964966 467.324589 
L 237.084602 467.277832 
L 246.204239 467.231075 
L 255.323875 467.184318 
L 264.443511 467.137561 
L 273.563148 467.090804 
L 282.682784 467.044047 
L 291.80242 466.99729 
L 300.922057 466.950534 
L 310.041693 466.903777 
L 319.16133 466.85702 
L 328.280966 466.810263 
L 337.400602 466.763506 
L 346.520239 466.716749 
L 355.639875 466.669992 
L 364.759511 466.623235 
L 373.879148 466.576478 
L 382.998784 466.529721 
L 392.11842 466.482964 
L 401.238057 466.436207 
L 410.357693 466.389451 
L 419.47733 466.342694 
L 428.596966 466.295937 
L 437.716602 466.24918 
L 446.836239 466.202423 
L 455.955875 466.155666 
L 465.075511 466.108909 
L 474.195148 466.062152 
L 483.314784 466.015395 
L 492.43442 465.968638 
L 501.554057 465.921881 
L 510.673693 465.875124 
L 519.79333 465.828368 
L 528.912966 465.781611 
L 538.032602 465.734854 
L 547.152239 465.688097 
L 556.271875 465.64134 
L 565.391511 465.594583 
L 574.511148 465.547826 
L 583.630784 465.501069 
L 592.75042 465.454312 
L 601.870057 465.407555 
L 610.989693 465.360798 
L 620.10933 465.314042 
L 629.228966 465.267285 
L 638.348602 465.220528 
L 647.468239 465.173771 
L 656.587875 465.127014 
L 665.707511 465.080257 
L 674.827148 465.0335 
L 683.946784 464.986743 
L 693.06642 464.939986 
L 702.186057 464.893229 
L 711.305693 464.846472 
L 720.42533 464.799715 
L 729.544966 464.752959 
L 738.664602 464.706202 
L 747.784239 464.659445 
L 756.903875 464.612688 
L 766.023511 464.565931 
L 775.143148 464.519174 
L 784.262784 464.472417 
L 793.38242 464.42566 
L 802.502057 464.378903 
L 811.621693 464.332146 
L 820.74133 464.285389 
L 829.860966 464.238632 
L 838.980602 464.191876 
L 848.100239 464.145119 
L 857.219875 464.098362 
L 866.339511 464.051605 
L 875.459148 464.004848 
L 884.578784 463.958091 
L 893.69842 463.911334 
L 902.818057 463.864577 
L 911.937693 463.81782 
L 921.05733 463.771063 
L 930.176966 463.724306 
L 939.296602 463.67755 
L 948.416239 463.630793 
L 957.535875 463.584036 
" clip-path="url(#pdffaeaedc1)" style="fill: none; stroke-dasharray: 1.5,2.475; stroke-dashoffset: 0; stroke: #9a5689; stroke-width: 1.5"/>
   </g>
   <g id="line2d_42">
    <path d="M 54.691875 509.601427 
L 63.811511 509.322552 
L 72.931148 509.043676 
L 82.050784 508.7648 
L 91.17042 508.485924 
L 100.290057 508.207049 
L 109.409693 507.928173 
L 118.52933 507.649297 
L 127.648966 507.370421 
L 136.768602 507.091546 
L 145.888239 506.81267 
L 155.007875 506.533794 
L 164.127511 506.254918 
L 173.247148 505.976043 
L 182.366784 505.697167 
L 191.48642 505.418291 
L 200.606057 505.139416 
L 209.725693 504.86054 
L 218.84533 504.581664 
L 227.964966 504.302788 
L 237.084602 504.023913 
L 246.204239 503.745037 
L 255.323875 503.466161 
L 264.443511 503.187285 
L 273.563148 502.90841 
L 282.682784 502.629534 
L 291.80242 502.350658 
L 300.922057 502.071783 
L 310.041693 501.792907 
L 319.16133 501.514031 
L 328.280966 501.235155 
L 337.400602 500.95628 
L 346.520239 500.677404 
L 355.639875 500.398528 
L 364.759511 500.119652 
L 373.879148 499.840777 
L 382.998784 499.561901 
L 392.11842 499.283025 
L 401.238057 499.004149 
L 410.357693 498.725274 
L 419.47733 498.446398 
L 428.596966 498.167522 
L 437.716602 497.888647 
L 446.836239 497.609771 
L 455.955875 497.330895 
L 465.075511 497.052019 
L 474.195148 496.773144 
L 483.314784 496.494268 
L 492.43442 496.215392 
L 501.554057 495.936516 
L 510.673693 495.657641 
L 519.79333 495.378765 
L 528.912966 495.099889 
L 538.032602 494.821014 
L 547.152239 494.542138 
L 556.271875 494.263262 
L 565.391511 493.984386 
L 574.511148 493.705511 
L 583.630784 493.426635 
L 592.75042 493.147759 
L 601.870057 492.868883 
L 610.989693 492.590008 
L 620.10933 492.311132 
L 629.228966 492.032256 
L 638.348602 491.75338 
L 647.468239 491.474505 
L 656.587875 491.195629 
L 665.707511 490.916753 
L 674.827148 490.637878 
L 683.946784 490.359002 
L 693.06642 490.080126 
L 702.186057 489.80125 
L 711.305693 489.522375 
L 720.42533 489.243499 
L 729.544966 488.964623 
L 738.664602 488.685747 
L 747.784239 488.406872 
L 756.903875 488.127996 
L 766.023511 487.84912 
L 775.143148 487.570244 
L 784.262784 487.291369 
L 793.38242 487.012493 
L 802.502057 486.733617 
L 811.621693 486.454742 
L 820.74133 486.175866 
L 829.860966 485.89699 
L 838.980602 485.618114 
L 848.100239 485.339239 
L 857.219875 485.060363 
L 866.339511 484.781487 
L 875.459148 484.502611 
L 884.578784 484.223736 
L 893.69842 483.94486 
L 902.818057 483.665984 
L 911.937693 483.387109 
L 921.05733 483.108233 
L 930.176966 482.829357 
L 939.296602 482.550481 
L 948.416239 482.271606 
L 957.535875 481.99273 
" clip-path="url(#pdffaeaedc1)" style="fill: none; stroke-dasharray: 1.5,2.475; stroke-dashoffset: 0; stroke: #be503b; stroke-width: 1.5"/>
   </g>
   <g id="line2d_43">
    <path d="M 54.691875 432.376985 
L 63.811511 431.280715 
L 72.931148 430.184444 
L 82.050784 429.088174 
L 91.17042 427.991904 
L 100.290057 426.895633 
L 109.409693 425.799363 
L 118.52933 424.703093 
L 127.648966 423.606822 
L 136.768602 422.510552 
L 145.888239 421.414282 
L 155.007875 420.318012 
L 164.127511 419.221741 
L 173.247148 418.125471 
L 182.366784 417.029201 
L 191.48642 415.93293 
L 200.606057 414.83666 
L 209.725693 413.74039 
L 218.84533 412.64412 
L 227.964966 411.547849 
L 237.084602 410.451579 
L 246.204239 409.355309 
L 255.323875 408.259038 
L 264.443511 407.162768 
L 273.563148 406.066498 
L 282.682784 404.970227 
L 291.80242 403.873957 
L 300.922057 402.777687 
L 310.041693 401.681417 
L 319.16133 400.585146 
L 328.280966 399.488876 
L 337.400602 398.392606 
L 346.520239 397.296335 
L 355.639875 396.200065 
L 364.759511 395.103795 
L 373.879148 394.007525 
L 382.998784 392.911254 
L 392.11842 391.814984 
L 401.238057 390.718714 
L 410.357693 389.622443 
L 419.47733 388.526173 
L 428.596966 387.429903 
L 437.716602 386.333632 
L 446.836239 385.237362 
L 455.955875 384.141092 
L 465.075511 383.044822 
L 474.195148 381.948551 
L 483.314784 380.852281 
L 492.43442 379.756011 
L 501.554057 378.65974 
L 510.673693 377.56347 
L 519.79333 376.4672 
L 528.912966 375.370929 
L 538.032602 374.274659 
L 547.152239 373.178389 
L 556.271875 372.082119 
L 565.391511 370.985848 
L 574.511148 369.889578 
L 583.630784 368.793308 
L 592.75042 367.697037 
L 601.870057 366.600767 
L 610.989693 365.504497 
L 620.10933 364.408227 
L 629.228966 363.311956 
L 638.348602 362.215686 
L 647.468239 361.119416 
L 656.587875 360.023145 
L 665.707511 358.926875 
L 674.827148 357.830605 
L 683.946784 356.734334 
L 693.06642 355.638064 
L 702.186057 354.541794 
L 711.305693 353.445524 
L 720.42533 352.349253 
L 729.544966 351.252983 
L 738.664602 350.156713 
L 747.784239 349.060442 
L 756.903875 347.964172 
L 766.023511 346.867902 
L 775.143148 345.771632 
L 784.262784 344.675361 
L 793.38242 343.579091 
L 802.502057 342.482821 
L 811.621693 341.38655 
L 820.74133 340.29028 
L 829.860966 339.19401 
L 838.980602 338.097739 
L 848.100239 337.001469 
L 857.219875 335.905199 
L 866.339511 334.808929 
L 875.459148 333.712658 
L 884.578784 332.616388 
L 893.69842 331.520118 
L 902.818057 330.423847 
L 911.937693 329.327577 
L 921.05733 328.231307 
L 930.176966 327.135037 
L 939.296602 326.038766 
L 948.416239 324.942496 
L 957.535875 323.846226 
" clip-path="url(#pdffaeaedc1)" style="fill: none; stroke-dasharray: 1.5,2.475; stroke-dashoffset: 0; stroke: #e2321d; stroke-width: 1.5"/>
   </g>
   <g id="line2d_44">
    <path d="M 54.691875 344.532231 
L 63.811511 342.251179 
L 72.931148 339.970127 
L 82.050784 337.689074 
L 91.17042 335.408022 
L 100.290057 333.12697 
L 109.409693 330.845917 
L 118.52933 328.564865 
L 127.648966 326.283812 
L 136.768602 324.00276 
L 145.888239 321.721708 
L 155.007875 319.440655 
L 164.127511 317.159603 
L 173.247148 314.878551 
L 182.366784 312.597498 
L 191.48642 310.316446 
L 200.606057 308.035393 
L 209.725693 305.754341 
L 218.84533 303.473289 
L 227.964966 301.192236 
L 237.084602 298.911184 
L 246.204239 296.630132 
L 255.323875 294.349079 
L 264.443511 292.068027 
L 273.563148 289.786974 
L 282.682784 287.505922 
L 291.80242 285.22487 
L 300.922057 282.943817 
L 310.041693 280.662765 
L 319.16133 278.381713 
L 328.280966 276.10066 
L 337.400602 273.819608 
L 346.520239 271.538555 
L 355.639875 269.257503 
L 364.759511 266.976451 
L 373.879148 264.695398 
L 382.998784 262.414346 
L 392.11842 260.133294 
L 401.238057 257.852241 
L 410.357693 255.571189 
L 419.47733 253.290136 
L 428.596966 251.009084 
L 437.716602 248.728032 
L 446.836239 246.446979 
L 455.955875 244.165927 
L 465.075511 241.884875 
L 474.195148 239.603822 
L 483.314784 237.32277 
L 492.43442 235.041717 
L 501.554057 232.760665 
L 510.673693 230.479613 
L 519.79333 228.19856 
L 528.912966 225.917508 
L 538.032602 223.636456 
L 547.152239 221.355403 
L 556.271875 219.074351 
L 565.391511 216.793298 
L 574.511148 214.512246 
L 583.630784 212.231194 
L 592.75042 209.950141 
L 601.870057 207.669089 
L 610.989693 205.388037 
L 620.10933 203.106984 
L 629.228966 200.825932 
L 638.348602 198.544879 
L 647.468239 196.263827 
L 656.587875 193.982775 
L 665.707511 191.701722 
L 674.827148 189.42067 
L 683.946784 187.139618 
L 693.06642 184.858565 
L 702.186057 182.577513 
L 711.305693 180.29646 
L 720.42533 178.015408 
L 729.544966 175.734356 
L 738.664602 173.453303 
L 747.784239 171.172251 
L 756.903875 168.891199 
L 766.023511 166.610146 
L 775.143148 164.329094 
L 784.262784 162.048041 
L 793.38242 159.766989 
L 802.502057 157.485937 
L 811.621693 155.204884 
L 820.74133 152.923832 
L 829.860966 150.64278 
L 838.980602 148.361727 
L 848.100239 146.080675 
L 857.219875 143.799622 
L 866.339511 141.51857 
L 875.459148 139.237518 
L 884.578784 136.956465 
L 893.69842 134.675413 
L 902.818057 132.394361 
L 911.937693 130.113308 
L 921.05733 127.832256 
L 930.176966 125.551203 
L 939.296602 123.270151 
L 948.416239 120.989099 
L 957.535875 118.708046 
" clip-path="url(#pdffaeaedc1)" style="fill: none; stroke-dasharray: 1.5,2.475; stroke-dashoffset: 0; stroke: #48b585; stroke-width: 1.5"/>
   </g>
   <g id="line2d_45">
    <path d="M 54.691875 447.007491 
L 72.748755 463.991861 
L 90.805635 453.660471 
L 108.862515 464.567728 
L 126.919395 458.858159 
L 144.976275 453.730408 
L 163.033155 457.794217 
L 181.090035 449.540117 
L 199.146915 333.740164 
L 253.317555 388.542807 
L 271.374435 388.841901 
L 289.431315 363.902524 
L 307.488195 384.383764 
L 325.545075 346.742567 
L 343.601955 356.688557 
L 361.658835 354.149978 
L 379.715715 422.14698 
L 397.772595 362.444255 
L 415.829475 362.000822 
L 433.886355 403.917129 
L 451.943235 408.839531 
L 470.000115 438.857552 
L 488.056995 419.587569 
L 506.113875 418.781057 
L 524.170755 427.648225 
L 542.227635 427.680962 
L 560.284515 444.537361 
L 578.341395 442.181811 
L 596.398275 432.212012 
L 614.455155 450.328773 
L 632.512035 436.612116 
L 650.568915 438.677501 
L 668.625795 386.364331 
L 686.682675 376.895999 
L 704.739555 370.434974 
L 722.796435 375.588021 
L 740.853315 422.694575 
L 758.910195 373.381273 
L 776.967075 376.35882 
L 795.023955 394.334218 
L 813.080835 373.714592 
L 831.137715 372.168529 
L 849.194595 341.741299 
L 867.251475 341.431789 
L 885.308355 322.123117 
L 903.365235 317.871816 
L 921.422115 327.163073 
L 939.478995 349.548991 
L 957.535875 309.593907 
" clip-path="url(#pdffaeaedc1)" style="fill: none; stroke: #4ac1fa; stroke-width: 1.5; stroke-linecap: square"/>
   </g>
   <g id="line2d_46">
    <path d="M 54.691875 505.298075 
L 72.748755 510.355888 
L 90.805635 518.52517 
L 108.862515 514.376544 
L 126.919395 512.361752 
L 144.976275 507.06139 
L 163.033155 501.386045 
L 181.090035 501.905367 
L 199.146915 501.174745 
L 253.317555 492.295672 
L 271.374435 493.386398 
L 289.431315 507.06883 
L 307.488195 500.3474 
L 325.545075 502.713368 
L 343.601955 506.303983 
L 361.658835 519.977487 
L 379.715715 523.405907 
L 397.772595 517.52075 
L 415.829475 505.23409 
L 433.886355 500.372697 
L 451.943235 504.994517 
L 470.000115 500.825058 
L 488.056995 495.093168 
L 506.113875 504.271335 
L 524.170755 486.78401 
L 542.227635 481.004503 
L 560.284515 479.910802 
L 578.341395 466.561688 
L 596.398275 478.565623 
L 614.455155 474.643177 
L 632.512035 474.756267 
L 650.568915 469.647861 
L 668.625795 473.701254 
L 686.682675 477.711494 
L 704.739555 466.043854 
L 722.796435 467.127139 
L 740.853315 449.459763 
L 758.910195 424.312063 
L 776.967075 415.626434 
L 795.023955 440.296477 
L 813.080835 442.913921 
L 831.137715 445.88998 
L 849.194595 405.165586 
L 867.251475 417.882287 
L 885.308355 438.153714 
L 903.365235 447.867572 
L 921.422115 425.859614 
L 939.478995 425.143871 
L 957.535875 417.803421 
" clip-path="url(#pdffaeaedc1)" style="fill: none; stroke: #e9a942; stroke-width: 1.5; stroke-linecap: square"/>
   </g>
   <g id="line2d_47">
    <path d="M 54.691875 478.776923 
L 72.748755 481.425616 
L 90.805635 481.418176 
L 108.862515 478.040348 
L 126.919395 469.46037 
L 144.976275 473.283118 
L 163.033155 470.342771 
L 181.090035 462.548472 
L 199.146915 466.700075 
L 253.317555 445.887004 
L 271.374435 425.298626 
L 289.431315 454.70358 
L 307.488195 470.013917 
L 325.545075 466.765548 
L 343.601955 469.299662 
L 361.658835 480.756002 
L 379.715715 499.274531 
L 397.772595 488.484828 
L 415.829475 476.227928 
L 433.886355 475.738367 
L 451.943235 467.530395 
L 470.000115 474.637225 
L 488.056995 472.112038 
L 506.113875 472.942359 
L 524.170755 480.93159 
L 542.227635 478.556695 
L 560.284515 444.284396 
L 578.341395 416.748408 
L 596.398275 415.066935 
L 614.455155 437.223696 
L 632.512035 450.023727 
L 650.568915 448.107144 
L 668.625795 439.75781 
L 686.682675 440.784551 
L 704.739555 449.867484 
L 722.796435 441.445236 
L 740.853315 457.249598 
L 758.910195 477.086521 
L 776.967075 471.963235 
L 795.023955 500.206038 
L 813.080835 489.362766 
L 831.137715 475.268149 
L 849.194595 489.355326 
L 867.251475 485.662036 
L 885.308355 475.678845 
L 903.365235 467.695566 
L 921.422115 461.148236 
L 939.478995 467.320583 
L 957.535875 463.694255 
" clip-path="url(#pdffaeaedc1)" style="fill: none; stroke: #9a5689; stroke-width: 1.5; stroke-linecap: square"/>
   </g>
   <g id="line2d_48">
    <path d="M 54.691875 514.427137 
L 72.748755 521.776515 
L 90.805635 510.744263 
L 108.862515 515.227697 
L 126.919395 516.020816 
L 144.976275 497.450207 
L 163.033155 512.137059 
L 181.090035 509.336587 
L 199.146915 505.982569 
L 253.317555 484.809395 
L 271.374435 473.861961 
L 289.431315 495.939857 
L 307.488195 485.971546 
L 325.545075 490.623127 
L 343.601955 493.570914 
L 361.658835 501.704483 
L 379.715715 520.484905 
L 397.772595 505.795077 
L 415.829475 504.238598 
L 433.886355 508.583644 
L 451.943235 487.325653 
L 470.000115 513.340875 
L 488.056995 506.931931 
L 506.113875 505.967688 
L 524.170755 493.371518 
L 542.227635 503.805581 
L 560.284515 492.890884 
L 578.341395 488.190198 
L 596.398275 498.11238 
L 614.455155 495.71814 
L 632.512035 500.267047 
L 650.568915 459.987573 
L 668.625795 481.708341 
L 686.682675 496.646671 
L 704.739555 476.050853 
L 722.796435 488.291384 
L 740.853315 484.438876 
L 758.910195 474.961615 
L 776.967075 500.103364 
L 795.023955 474.480982 
L 813.080835 487.279524 
L 831.137715 481.73215 
L 849.194595 480.943494 
L 867.251475 503.14192 
L 885.308355 494.791098 
L 903.365235 478.651929 
L 921.422115 480.547678 
L 939.478995 490.136541 
L 957.535875 488.437211 
" clip-path="url(#pdffaeaedc1)" style="fill: none; stroke: #be503b; stroke-width: 1.5; stroke-linecap: square"/>
   </g>
   <g id="line2d_49">
    <path d="M 54.691875 411.010566 
L 72.748755 409.656459 
L 90.805635 419.185801 
L 108.862515 428.389264 
L 126.919395 422.542796 
L 144.976275 418.351016 
L 163.033155 423.721315 
L 181.090035 419.342044 
L 199.146915 409.954065 
L 253.317555 401.659788 
L 271.374435 374.309803 
L 289.431315 406.814322 
L 307.488195 395.356494 
L 325.545075 385.36884 
L 343.601955 385.597996 
L 361.658835 408.28896 
L 379.715715 461.027706 
L 397.772595 440.470576 
L 415.829475 409.81419 
L 433.886355 395.088649 
L 451.943235 397.186771 
L 470.000115 386.751219 
L 488.056995 391.118586 
L 506.113875 382.935911 
L 524.170755 379.657782 
L 542.227635 379.272382 
L 560.284515 352.164947 
L 578.341395 366.124152 
L 596.398275 362.350509 
L 614.455155 373.300919 
L 632.512035 371.237022 
L 650.568915 355.770442 
L 668.625795 349.565359 
L 686.682675 354.023496 
L 704.739555 377.571564 
L 722.796435 359.158686 
L 740.853315 359.146782 
L 758.910195 365.533405 
L 776.967075 356.551658 
L 795.023955 354.719893 
L 813.080835 324.053091 
L 831.137715 111.068435 
L 849.194595 340.333623 
L 867.251475 357.024851 
L 885.308355 354.277949 
L 903.365235 351.952158 
L 921.422115 346.861609 
L 939.478995 326.175021 
L 957.535875 348.34071 
" clip-path="url(#pdffaeaedc1)" style="fill: none; stroke: #e2321d; stroke-width: 1.5; stroke-linecap: square"/>
   </g>
   <g id="line2d_50">
    <path d="M 54.691875 367.150893 
L 72.748755 374.966025 
L 90.805635 328.096067 
L 108.862515 327.393718 
L 126.919395 284.566737 
L 144.976275 310.919742 
L 163.033155 332.555692 
L 181.090035 356.236196 
L 199.146915 325.803014 
L 253.317555 236.329281 
L 271.374435 229.966466 
L 289.431315 175.961407 
L 307.488195 274.162434 
L 325.545075 340.488378 
L 343.601955 328.673423 
L 361.658835 301.69991 
L 379.715715 365.640543 
L 397.772595 302.280242 
L 415.829475 290.307555 
L 433.886355 270.710205 
L 451.943235 219.623172 
L 470.000115 203.094139 
L 488.056995 251.26761 
L 506.113875 232.939549 
L 524.170755 183.282513 
L 542.227635 184.135154 
L 560.284515 166.079402 
L 578.341395 180.685901 
L 596.398275 104.449679 
L 614.455155 207.638582 
L 632.512035 123.146772 
L 650.568915 173.861797 
L 668.625795 154.030826 
L 686.682675 190.393806 
L 704.739555 240.262143 
L 722.796435 213.389816 
L 740.853315 218.385132 
L 758.910195 193.40409 
L 776.967075 204.790493 
L 795.023955 192.26426 
L 813.080835 182.586115 
L 831.137715 193.857939 
L 849.194595 176.599772 
L 867.251475 183.031036 
L 885.308355 142.299201 
L 903.365235 120.654322 
L 921.422115 48.184303 
L 939.478995 108.657827 
L 957.535875 92.472529 
" clip-path="url(#pdffaeaedc1)" style="fill: none; stroke: #48b585; stroke-width: 6; stroke-linecap: square"/>
   </g>
   <g id="patch_3">
    <path d="M 54.691875 567.74175 
L 54.691875 24.14175 
" style="fill: none; stroke: #ffffff; stroke-linejoin: miter; stroke-linecap: square"/>
   </g>
   <g id="patch_4">
    <path d="M 957.535875 567.74175 
L 957.535875 24.14175 
" style="fill: none; stroke: #ffffff; stroke-linejoin: miter; stroke-linecap: square"/>
   </g>
   <g id="patch_5">
    <path d="M 54.691875 567.74175 
L 957.535875 567.74175 
" style="fill: none; stroke: #ffffff; stroke-linejoin: miter; stroke-linecap: square"/>
   </g>
   <g id="patch_6">
    <path d="M 54.691875 24.14175 
L 957.535875 24.14175 
" style="fill: none; stroke: #ffffff; stroke-linejoin: miter; stroke-linecap: square"/>
   </g>
   <g id="text_22">
    <!-- Potentially Ephemeral Enterprise Linux 8 and 9 Instances by Distribution -->
    <g transform="translate(54.691875 18.14175)scale(0.144 -0.144)">
     <defs>
      <path id="DejaVuSans-50" d="M 1259 4147 
L 1259 2394 
L 2053 2394 
Q 2494 2394 2734 2622 
Q 2975 2850 2975 3272 
Q 2975 3691 2734 3919 
Q 2494 4147 2053 4147 
L 1259 4147 
z
M 628 4666 
L 2053 4666 
Q 2838 4666 3239 4311 
Q 3641 3956 3641 3272 
Q 3641 2581 3239 2228 
Q 2838 1875 2053 1875 
L 1259 1875 
L 1259 0 
L 628 0 
L 628 4666 
z
" transform="scale(0.015625)"/>
      <path id="DejaVuSans-6f" d="M 1959 3097 
Q 1497 3097 1228 2736 
Q 959 2375 959 1747 
Q 959 1119 1226 758 
Q 1494 397 1959 397 
Q 2419 397 2687 759 
Q 2956 1122 2956 1747 
Q 2956 2369 2687 2733 
Q 2419 3097 1959 3097 
z
M 1959 3584 
Q 2709 3584 3137 3096 
Q 3566 2609 3566 1747 
Q 3566 888 3137 398 
Q 2709 -91 1959 -91 
Q 1206 -91 779 398 
Q 353 888 353 1747 
Q 353 2609 779 3096 
Q 1206 3584 1959 3584 
z
" transform="scale(0.015625)"/>
      <path id="DejaVuSans-69" d="M 603 3500 
L 1178 3500 
L 1178 0 
L 603 0 
L 603 3500 
z
M 603 4863 
L 1178 4863 
L 1178 4134 
L 603 4134 
L 603 4863 
z
" transform="scale(0.015625)"/>
      <path id="DejaVuSans-6c" d="M 603 4863 
L 1178 4863 
L 1178 0 
L 603 0 
L 603 4863 
z
" transform="scale(0.015625)"/>
      <path id="DejaVuSans-79" d="M 2059 -325 
Q 1816 -950 1584 -1140 
Q 1353 -1331 966 -1331 
L 506 -1331 
L 506 -850 
L 844 -850 
Q 1081 -850 1212 -737 
Q 1344 -625 1503 -206 
L 1606 56 
L 191 3500 
L 800 3500 
L 1894 763 
L 2988 3500 
L 3597 3500 
L 2059 -325 
z
" transform="scale(0.015625)"/>
      <path id="DejaVuSans-20" transform="scale(0.015625)"/>
      <path id="DejaVuSans-45" d="M 628 4666 
L 3578 4666 
L 3578 4134 
L 1259 4134 
L 1259 2753 
L 3481 2753 
L 3481 2222 
L 1259 2222 
L 1259 531 
L 3634 531 
L 3634 0 
L 628 0 
L 628 4666 
z
" transform="scale(0.015625)"/>
      <path id="DejaVuSans-70" d="M 1159 525 
L 1159 -1331 
L 581 -1331 
L 581 3500 
L 1159 3500 
L 1159 2969 
Q 1341 3281 1617 3432 
Q 1894 3584 2278 3584 
Q 2916 3584 3314 3078 
Q 3713 2572 3713 1747 
Q 3713 922 3314 415 
Q 2916 -91 2278 -91 
Q 1894 -91 1617 61 
Q 1341 213 1159 525 
z
M 3116 1747 
Q 3116 2381 2855 2742 
Q 2594 3103 2138 3103 
Q 1681 3103 1420 2742 
Q 1159 2381 1159 1747 
Q 1159 1113 1420 752 
Q 1681 391 2138 391 
Q 2594 391 2855 752 
Q 3116 1113 3116 1747 
z
" transform="scale(0.015625)"/>
      <path id="DejaVuSans-68" d="M 3513 2113 
L 3513 0 
L 2938 0 
L 2938 2094 
Q 2938 2591 2744 2837 
Q 2550 3084 2163 3084 
Q 1697 3084 1428 2787 
Q 1159 2491 1159 1978 
L 1159 0 
L 581 0 
L 581 4863 
L 1159 4863 
L 1159 2956 
Q 1366 3272 1645 3428 
Q 1925 3584 2291 3584 
Q 2894 3584 3203 3211 
Q 3513 2838 3513 2113 
z
" transform="scale(0.015625)"/>
      <path id="DejaVuSans-6d" d="M 3328 2828 
Q 3544 3216 3844 3400 
Q 4144 3584 4550 3584 
Q 5097 3584 5394 3201 
Q 5691 2819 5691 2113 
L 5691 0 
L 5113 0 
L 5113 2094 
Q 5113 2597 4934 2840 
Q 4756 3084 4391 3084 
Q 3944 3084 3684 2787 
Q 3425 2491 3425 1978 
L 3425 0 
L 2847 0 
L 2847 2094 
Q 2847 2600 2669 2842 
Q 2491 3084 2119 3084 
Q 1678 3084 1418 2786 
Q 1159 2488 1159 1978 
L 1159 0 
L 581 0 
L 581 3500 
L 1159 3500 
L 1159 2956 
Q 1356 3278 1631 3431 
Q 1906 3584 2284 3584 
Q 2666 3584 2933 3390 
Q 3200 3197 3328 2828 
z
" transform="scale(0.015625)"/>
      <path id="DejaVuSans-72" d="M 2631 2963 
Q 2534 3019 2420 3045 
Q 2306 3072 2169 3072 
Q 1681 3072 1420 2755 
Q 1159 2438 1159 1844 
L 1159 0 
L 581 0 
L 581 3500 
L 1159 3500 
L 1159 2956 
Q 1341 3275 1631 3429 
Q 1922 3584 2338 3584 
Q 2397 3584 2469 3576 
Q 2541 3569 2628 3553 
L 2631 2963 
z
" transform="scale(0.015625)"/>
      <path id="DejaVuSans-4c" d="M 628 4666 
L 1259 4666 
L 1259 531 
L 3531 531 
L 3531 0 
L 628 0 
L 628 4666 
z
" transform="scale(0.015625)"/>
      <path id="DejaVuSans-75" d="M 544 1381 
L 544 3500 
L 1119 3500 
L 1119 1403 
Q 1119 906 1312 657 
Q 1506 409 1894 409 
Q 2359 409 2629 706 
Q 2900 1003 2900 1516 
L 2900 3500 
L 3475 3500 
L 3475 0 
L 2900 0 
L 2900 538 
Q 2691 219 2414 64 
Q 2138 -91 1772 -91 
Q 1169 -91 856 284 
Q 544 659 544 1381 
z
M 1991 3584 
L 1991 3584 
z
" transform="scale(0.015625)"/>
      <path id="DejaVuSans-78" d="M 3513 3500 
L 2247 1797 
L 3578 0 
L 2900 0 
L 1881 1375 
L 863 0 
L 184 0 
L 1544 1831 
L 300 3500 
L 978 3500 
L 1906 2253 
L 2834 3500 
L 3513 3500 
z
" transform="scale(0.015625)"/>
      <path id="DejaVuSans-38" d="M 2034 2216 
Q 1584 2216 1326 1975 
Q 1069 1734 1069 1313 
Q 1069 891 1326 650 
Q 1584 409 2034 409 
Q 2484 409 2743 651 
Q 3003 894 3003 1313 
Q 3003 1734 2745 1975 
Q 2488 2216 2034 2216 
z
M 1403 2484 
Q 997 2584 770 2862 
Q 544 3141 544 3541 
Q 544 4100 942 4425 
Q 1341 4750 2034 4750 
Q 2731 4750 3128 4425 
Q 3525 4100 3525 3541 
Q 3525 3141 3298 2862 
Q 3072 2584 2669 2484 
Q 3125 2378 3379 2068 
Q 3634 1759 3634 1313 
Q 3634 634 3220 271 
Q 2806 -91 2034 -91 
Q 1263 -91 848 271 
Q 434 634 434 1313 
Q 434 1759 690 2068 
Q 947 2378 1403 2484 
z
M 1172 3481 
Q 1172 3119 1398 2916 
Q 1625 2713 2034 2713 
Q 2441 2713 2670 2916 
Q 2900 3119 2900 3481 
Q 2900 3844 2670 4047 
Q 2441 4250 2034 4250 
Q 1625 4250 1398 4047 
Q 1172 3844 1172 3481 
z
" transform="scale(0.015625)"/>
      <path id="DejaVuSans-64" d="M 2906 2969 
L 2906 4863 
L 3481 4863 
L 3481 0 
L 2906 0 
L 2906 525 
Q 2725 213 2448 61 
Q 2172 -91 1784 -91 
Q 1150 -91 751 415 
Q 353 922 353 1747 
Q 353 2572 751 3078 
Q 1150 3584 1784 3584 
Q 2172 3584 2448 3432 
Q 2725 3281 2906 2969 
z
M 947 1747 
Q 947 1113 1208 752 
Q 1469 391 1925 391 
Q 2381 391 2643 752 
Q 2906 1113 2906 1747 
Q 2906 2381 2643 2742 
Q 2381 3103 1925 3103 
Q 1469 3103 1208 2742 
Q 947 2381 947 1747 
z
" transform="scale(0.015625)"/>
      <path id="DejaVuSans-62" d="M 3116 1747 
Q 3116 2381 2855 2742 
Q 2594 3103 2138 3103 
Q 1681 3103 1420 2742 
Q 1159 2381 1159 1747 
Q 1159 1113 1420 752 
Q 1681 391 2138 391 
Q 2594 391 2855 752 
Q 3116 1113 3116 1747 
z
M 1159 2969 
Q 1341 3281 1617 3432 
Q 1894 3584 2278 3584 
Q 2916 3584 3314 3078 
Q 3713 2572 3713 1747 
Q 3713 922 3314 415 
Q 2916 -91 2278 -91 
Q 1894 -91 1617 61 
Q 1341 213 1159 525 
L 1159 0 
L 581 0 
L 581 4863 
L 1159 4863 
L 1159 2969 
z
" transform="scale(0.015625)"/>
     </defs>
     <use xlink:href="#DejaVuSans-50"/>
     <use xlink:href="#DejaVuSans-6f" x="56.677734"/>
     <use xlink:href="#DejaVuSans-74" x="117.859375"/>
     <use xlink:href="#DejaVuSans-65" x="157.068359"/>
     <use xlink:href="#DejaVuSans-6e" x="218.591797"/>
     <use xlink:href="#DejaVuSans-74" x="281.970703"/>
     <use xlink:href="#DejaVuSans-69" x="321.179688"/>
     <use xlink:href="#DejaVuSans-61" x="348.962891"/>
     <use xlink:href="#DejaVuSans-6c" x="410.242188"/>
     <use xlink:href="#DejaVuSans-6c" x="438.025391"/>
     <use xlink:href="#DejaVuSans-79" x="465.808594"/>
     <use xlink:href="#DejaVuSans-20" x="524.988281"/>
     <use xlink:href="#DejaVuSans-45" x="556.775391"/>
     <use xlink:href="#DejaVuSans-70" x="619.958984"/>
     <use xlink:href="#DejaVuSans-68" x="683.435547"/>
     <use xlink:href="#DejaVuSans-65" x="746.814453"/>
     <use xlink:href="#DejaVuSans-6d" x="808.337891"/>
     <use xlink:href="#DejaVuSans-65" x="905.75"/>
     <use xlink:href="#DejaVuSans-72" x="967.273438"/>
     <use xlink:href="#DejaVuSans-61" x="1008.386719"/>
     <use xlink:href="#DejaVuSans-6c" x="1069.666016"/>
     <use xlink:href="#DejaVuSans-20" x="1097.449219"/>
     <use xlink:href="#DejaVuSans-45" x="1129.236328"/>
     <use xlink:href="#DejaVuSans-6e" x="1192.419922"/>
     <use xlink:href="#DejaVuSans-74" x="1255.798828"/>
     <use xlink:href="#DejaVuSans-65" x="1295.007812"/>
     <use xlink:href="#DejaVuSans-72" x="1356.53125"/>
     <use xlink:href="#DejaVuSans-70" x="1397.644531"/>
     <use xlink:href="#DejaVuSans-72" x="1461.121094"/>
     <use xlink:href="#DejaVuSans-69" x="1502.234375"/>
     <use xlink:href="#DejaVuSans-73" x="1530.017578"/>
     <use xlink:href="#DejaVuSans-65" x="1582.117188"/>
     <use xlink:href="#DejaVuSans-20" x="1643.640625"/>
     <use xlink:href="#DejaVuSans-4c" x="1675.427734"/>
     <use xlink:href="#DejaVuSans-69" x="1731.140625"/>
     <use xlink:href="#DejaVuSans-6e" x="1758.923828"/>
     <use xlink:href="#DejaVuSans-75" x="1822.302734"/>
     <use xlink:href="#DejaVuSans-78" x="1885.681641"/>
     <use xlink:href="#DejaVuSans-20" x="1944.861328"/>
     <use xlink:href="#DejaVuSans-38" x="1976.648438"/>
     <use xlink:href="#DejaVuSans-20" x="2040.271484"/>
     <use xlink:href="#DejaVuSans-61" x="2072.058594"/>
     <use xlink:href="#DejaVuSans-6e" x="2133.337891"/>
     <use xlink:href="#DejaVuSans-64" x="2196.716797"/>
     <use xlink:href="#DejaVuSans-20" x="2260.193359"/>
     <use xlink:href="#DejaVuSans-39" x="2291.980469"/>
     <use xlink:href="#DejaVuSans-20" x="2355.603516"/>
     <use xlink:href="#DejaVuSans-49" x="2387.390625"/>
     <use xlink:href="#DejaVuSans-6e" x="2416.882812"/>
     <use xlink:href="#DejaVuSans-73" x="2480.261719"/>
     <use xlink:href="#DejaVuSans-74" x="2532.361328"/>
     <use xlink:href="#DejaVuSans-61" x="2571.570312"/>
     <use xlink:href="#DejaVuSans-6e" x="2632.849609"/>
     <use xlink:href="#DejaVuSans-63" x="2696.228516"/>
     <use xlink:href="#DejaVuSans-65" x="2751.208984"/>
     <use xlink:href="#DejaVuSans-73" x="2812.732422"/>
     <use xlink:href="#DejaVuSans-20" x="2864.832031"/>
     <use xlink:href="#DejaVuSans-62" x="2896.619141"/>
     <use xlink:href="#DejaVuSans-79" x="2960.095703"/>
     <use xlink:href="#DejaVuSans-20" x="3019.275391"/>
     <use xlink:href="#DejaVuSans-44" x="3051.0625"/>
     <use xlink:href="#DejaVuSans-69" x="3128.064453"/>
     <use xlink:href="#DejaVuSans-73" x="3155.847656"/>
     <use xlink:href="#DejaVuSans-74" x="3207.947266"/>
     <use xlink:href="#DejaVuSans-72" x="3247.15625"/>
     <use xlink:href="#DejaVuSans-69" x="3288.269531"/>
     <use xlink:href="#DejaVuSans-62" x="3316.052734"/>
     <use xlink:href="#DejaVuSans-75" x="3379.529297"/>
     <use xlink:href="#DejaVuSans-74" x="3442.908203"/>
     <use xlink:href="#DejaVuSans-69" x="3482.117188"/>
     <use xlink:href="#DejaVuSans-6f" x="3509.900391"/>
     <use xlink:href="#DejaVuSans-6e" x="3571.082031"/>
    </g>
   </g>
   <g id="text_23">
    <!-- 2024-08-22 11:55 UTC -->
    <g transform="translate(794.653875 18.14175)scale(0.144 -0.144)">
     <defs>
      <path id="DejaVuSans-3a" d="M 750 794 
L 1409 794 
L 1409 0 
L 750 0 
L 750 794 
z
M 750 3309 
L 1409 3309 
L 1409 2516 
L 750 2516 
L 750 3309 
z
" transform="scale(0.015625)"/>
      <path id="DejaVuSans-55" d="M 556 4666 
L 1191 4666 
L 1191 1831 
Q 1191 1081 1462 751 
Q 1734 422 2344 422 
Q 2950 422 3222 751 
Q 3494 1081 3494 1831 
L 3494 4666 
L 4128 4666 
L 4128 1753 
Q 4128 841 3676 375 
Q 3225 -91 2344 -91 
Q 1459 -91 1007 375 
Q 556 841 556 1753 
L 556 4666 
z
" transform="scale(0.015625)"/>
      <path id="DejaVuSans-54" d="M -19 4666 
L 3928 4666 
L 3928 4134 
L 2272 4134 
L 2272 0 
L 1638 0 
L 1638 4134 
L -19 4134 
L -19 4666 
z
" transform="scale(0.015625)"/>
      <path id="DejaVuSans-43" d="M 4122 4306 
L 4122 3641 
Q 3803 3938 3442 4084 
Q 3081 4231 2675 4231 
Q 1875 4231 1450 3742 
Q 1025 3253 1025 2328 
Q 1025 1406 1450 917 
Q 1875 428 2675 428 
Q 3081 428 3442 575 
Q 3803 722 4122 1019 
L 4122 359 
Q 3791 134 3420 21 
Q 3050 -91 2638 -91 
Q 1578 -91 968 557 
Q 359 1206 359 2328 
Q 359 3453 968 4101 
Q 1578 4750 2638 4750 
Q 3056 4750 3426 4639 
Q 3797 4528 4122 4306 
z
" transform="scale(0.015625)"/>
     </defs>
     <use xlink:href="#DejaVuSans-32"/>
     <use xlink:href="#DejaVuSans-30" x="63.623047"/>
     <use xlink:href="#DejaVuSans-32" x="127.246094"/>
     <use xlink:href="#DejaVuSans-34" x="190.869141"/>
     <use xlink:href="#DejaVuSans-2d" x="254.492188"/>
     <use xlink:href="#DejaVuSans-30" x="290.576172"/>
     <use xlink:href="#DejaVuSans-38" x="354.199219"/>
     <use xlink:href="#DejaVuSans-2d" x="417.822266"/>
     <use xlink:href="#DejaVuSans-32" x="453.90625"/>
     <use xlink:href="#DejaVuSans-32" x="517.529297"/>
     <use xlink:href="#DejaVuSans-20" x="581.152344"/>
     <use xlink:href="#DejaVuSans-31" x="612.939453"/>
     <use xlink:href="#DejaVuSans-31" x="676.5625"/>
     <use xlink:href="#DejaVuSans-3a" x="740.185547"/>
     <use xlink:href="#DejaVuSans-35" x="773.876953"/>
     <use xlink:href="#DejaVuSans-35" x="837.5"/>
     <use xlink:href="#DejaVuSans-20" x="901.123047"/>
     <use xlink:href="#DejaVuSans-55" x="932.910156"/>
     <use xlink:href="#DejaVuSans-54" x="1006.103516"/>
     <use xlink:href="#DejaVuSans-43" x="1061.3125"/>
    </g>
   </g>
   <g id="legend_1">
    <g id="patch_7">
     <path d="M 61.691875 134.888625 
L 170.660625 134.888625 
Q 172.660625 134.888625 172.660625 132.888625 
L 172.660625 31.14175 
Q 172.660625 29.14175 170.660625 29.14175 
L 61.691875 29.14175 
Q 59.691875 29.14175 59.691875 31.14175 
L 59.691875 132.888625 
Q 59.691875 134.888625 61.691875 134.888625 
z
" style="fill: #e5e5e5; opacity: 0.8; stroke: #cccccc; stroke-width: 0.5; stroke-linejoin: miter"/>
    </g>
    <g id="text_24">
     <!-- Distribution -->
     <g transform="translate(87.0075 40.740187)scale(0.1 -0.1)">
      <use xlink:href="#DejaVuSans-44"/>
      <use xlink:href="#DejaVuSans-69" x="77.001953"/>
      <use xlink:href="#DejaVuSans-73" x="104.785156"/>
      <use xlink:href="#DejaVuSans-74" x="156.884766"/>
      <use xlink:href="#DejaVuSans-72" x="196.09375"/>
      <use xlink:href="#DejaVuSans-69" x="237.207031"/>
      <use xlink:href="#DejaVuSans-62" x="264.990234"/>
      <use xlink:href="#DejaVuSans-75" x="328.466797"/>
      <use xlink:href="#DejaVuSans-74" x="391.845703"/>
      <use xlink:href="#DejaVuSans-69" x="431.054688"/>
      <use xlink:href="#DejaVuSans-6f" x="458.837891"/>
      <use xlink:href="#DejaVuSans-6e" x="520.019531"/>
     </g>
    </g>
    <g id="line2d_51">
     <path d="M 63.691875 51.918312 
L 73.691875 51.918312 
L 83.691875 51.918312 
" style="fill: none; stroke: #4ac1fa; stroke-width: 1.5; stroke-linecap: square"/>
    </g>
    <g id="text_25">
     <!-- AlmaLinux -->
     <g transform="translate(91.691875 55.418312)scale(0.1 -0.1)">
      <defs>
       <path id="DejaVuSans-41" d="M 2188 4044 
L 1331 1722 
L 3047 1722 
L 2188 4044 
z
M 1831 4666 
L 2547 4666 
L 4325 0 
L 3669 0 
L 3244 1197 
L 1141 1197 
L 716 0 
L 50 0 
L 1831 4666 
z
" transform="scale(0.015625)"/>
      </defs>
      <use xlink:href="#DejaVuSans-41"/>
      <use xlink:href="#DejaVuSans-6c" x="68.408203"/>
      <use xlink:href="#DejaVuSans-6d" x="96.191406"/>
      <use xlink:href="#DejaVuSans-61" x="193.603516"/>
      <use xlink:href="#DejaVuSans-4c" x="254.882812"/>
      <use xlink:href="#DejaVuSans-69" x="310.595703"/>
      <use xlink:href="#DejaVuSans-6e" x="338.378906"/>
      <use xlink:href="#DejaVuSans-75" x="401.757812"/>
      <use xlink:href="#DejaVuSans-78" x="465.136719"/>
     </g>
    </g>
    <g id="line2d_52">
     <path d="M 63.691875 66.596437 
L 73.691875 66.596437 
L 83.691875 66.596437 
" style="fill: none; stroke: #e9a942; stroke-width: 1.5; stroke-linecap: square"/>
    </g>
    <g id="text_26">
     <!-- CentOS Legacy -->
     <g transform="translate(91.691875 70.096437)scale(0.1 -0.1)">
      <defs>
       <path id="DejaVuSans-4f" d="M 2522 4238 
Q 1834 4238 1429 3725 
Q 1025 3213 1025 2328 
Q 1025 1447 1429 934 
Q 1834 422 2522 422 
Q 3209 422 3611 934 
Q 4013 1447 4013 2328 
Q 4013 3213 3611 3725 
Q 3209 4238 2522 4238 
z
M 2522 4750 
Q 3503 4750 4090 4092 
Q 4678 3434 4678 2328 
Q 4678 1225 4090 567 
Q 3503 -91 2522 -91 
Q 1538 -91 948 565 
Q 359 1222 359 2328 
Q 359 3434 948 4092 
Q 1538 4750 2522 4750 
z
" transform="scale(0.015625)"/>
       <path id="DejaVuSans-53" d="M 3425 4513 
L 3425 3897 
Q 3066 4069 2747 4153 
Q 2428 4238 2131 4238 
Q 1616 4238 1336 4038 
Q 1056 3838 1056 3469 
Q 1056 3159 1242 3001 
Q 1428 2844 1947 2747 
L 2328 2669 
Q 3034 2534 3370 2195 
Q 3706 1856 3706 1288 
Q 3706 609 3251 259 
Q 2797 -91 1919 -91 
Q 1588 -91 1214 -16 
Q 841 59 441 206 
L 441 856 
Q 825 641 1194 531 
Q 1563 422 1919 422 
Q 2459 422 2753 634 
Q 3047 847 3047 1241 
Q 3047 1584 2836 1778 
Q 2625 1972 2144 2069 
L 1759 2144 
Q 1053 2284 737 2584 
Q 422 2884 422 3419 
Q 422 4038 858 4394 
Q 1294 4750 2059 4750 
Q 2388 4750 2728 4690 
Q 3069 4631 3425 4513 
z
" transform="scale(0.015625)"/>
       <path id="DejaVuSans-67" d="M 2906 1791 
Q 2906 2416 2648 2759 
Q 2391 3103 1925 3103 
Q 1463 3103 1205 2759 
Q 947 2416 947 1791 
Q 947 1169 1205 825 
Q 1463 481 1925 481 
Q 2391 481 2648 825 
Q 2906 1169 2906 1791 
z
M 3481 434 
Q 3481 -459 3084 -895 
Q 2688 -1331 1869 -1331 
Q 1566 -1331 1297 -1286 
Q 1028 -1241 775 -1147 
L 775 -588 
Q 1028 -725 1275 -790 
Q 1522 -856 1778 -856 
Q 2344 -856 2625 -561 
Q 2906 -266 2906 331 
L 2906 616 
Q 2728 306 2450 153 
Q 2172 0 1784 0 
Q 1141 0 747 490 
Q 353 981 353 1791 
Q 353 2603 747 3093 
Q 1141 3584 1784 3584 
Q 2172 3584 2450 3431 
Q 2728 3278 2906 2969 
L 2906 3500 
L 3481 3500 
L 3481 434 
z
" transform="scale(0.015625)"/>
      </defs>
      <use xlink:href="#DejaVuSans-43"/>
      <use xlink:href="#DejaVuSans-65" x="69.824219"/>
      <use xlink:href="#DejaVuSans-6e" x="131.347656"/>
      <use xlink:href="#DejaVuSans-74" x="194.726562"/>
      <use xlink:href="#DejaVuSans-4f" x="233.935547"/>
      <use xlink:href="#DejaVuSans-53" x="312.646484"/>
      <use xlink:href="#DejaVuSans-20" x="376.123047"/>
      <use xlink:href="#DejaVuSans-4c" x="407.910156"/>
      <use xlink:href="#DejaVuSans-65" x="461.873047"/>
      <use xlink:href="#DejaVuSans-67" x="523.396484"/>
      <use xlink:href="#DejaVuSans-61" x="586.873047"/>
      <use xlink:href="#DejaVuSans-63" x="648.152344"/>
      <use xlink:href="#DejaVuSans-79" x="703.132812"/>
     </g>
    </g>
    <g id="line2d_53">
     <path d="M 63.691875 81.274563 
L 73.691875 81.274563 
L 83.691875 81.274563 
" style="fill: none; stroke: #9a5689; stroke-width: 1.5; stroke-linecap: square"/>
    </g>
    <g id="text_27">
     <!-- CentOS Stream -->
     <g transform="translate(91.691875 84.774563)scale(0.1 -0.1)">
      <use xlink:href="#DejaVuSans-43"/>
      <use xlink:href="#DejaVuSans-65" x="69.824219"/>
      <use xlink:href="#DejaVuSans-6e" x="131.347656"/>
      <use xlink:href="#DejaVuSans-74" x="194.726562"/>
      <use xlink:href="#DejaVuSans-4f" x="233.935547"/>
      <use xlink:href="#DejaVuSans-53" x="312.646484"/>
      <use xlink:href="#DejaVuSans-20" x="376.123047"/>
      <use xlink:href="#DejaVuSans-53" x="407.910156"/>
      <use xlink:href="#DejaVuSans-74" x="471.386719"/>
      <use xlink:href="#DejaVuSans-72" x="510.595703"/>
      <use xlink:href="#DejaVuSans-65" x="549.458984"/>
      <use xlink:href="#DejaVuSans-61" x="610.982422"/>
      <use xlink:href="#DejaVuSans-6d" x="672.261719"/>
     </g>
    </g>
    <g id="line2d_54">
     <path d="M 63.691875 95.952687 
L 73.691875 95.952687 
L 83.691875 95.952687 
" style="fill: none; stroke: #be503b; stroke-width: 1.5; stroke-linecap: square"/>
    </g>
    <g id="text_28">
     <!-- Oracle -->
     <g transform="translate(91.691875 99.452687)scale(0.1 -0.1)">
      <use xlink:href="#DejaVuSans-4f"/>
      <use xlink:href="#DejaVuSans-72" x="78.710938"/>
      <use xlink:href="#DejaVuSans-61" x="119.824219"/>
      <use xlink:href="#DejaVuSans-63" x="181.103516"/>
      <use xlink:href="#DejaVuSans-6c" x="236.083984"/>
      <use xlink:href="#DejaVuSans-65" x="263.867188"/>
     </g>
    </g>
    <g id="line2d_55">
     <path d="M 63.691875 110.630812 
L 73.691875 110.630812 
L 83.691875 110.630812 
" style="fill: none; stroke: #e2321d; stroke-width: 1.5; stroke-linecap: square"/>
    </g>
    <g id="text_29">
     <!-- RHEL -->
     <g transform="translate(91.691875 114.130812)scale(0.1 -0.1)">
      <defs>
       <path id="DejaVuSans-52" d="M 2841 2188 
Q 3044 2119 3236 1894 
Q 3428 1669 3622 1275 
L 4263 0 
L 3584 0 
L 2988 1197 
Q 2756 1666 2539 1819 
Q 2322 1972 1947 1972 
L 1259 1972 
L 1259 0 
L 628 0 
L 628 4666 
L 2053 4666 
Q 2853 4666 3247 4331 
Q 3641 3997 3641 3322 
Q 3641 2881 3436 2590 
Q 3231 2300 2841 2188 
z
M 1259 4147 
L 1259 2491 
L 2053 2491 
Q 2509 2491 2742 2702 
Q 2975 2913 2975 3322 
Q 2975 3731 2742 3939 
Q 2509 4147 2053 4147 
L 1259 4147 
z
" transform="scale(0.015625)"/>
       <path id="DejaVuSans-48" d="M 628 4666 
L 1259 4666 
L 1259 2753 
L 3553 2753 
L 3553 4666 
L 4184 4666 
L 4184 0 
L 3553 0 
L 3553 2222 
L 1259 2222 
L 1259 0 
L 628 0 
L 628 4666 
z
" transform="scale(0.015625)"/>
      </defs>
      <use xlink:href="#DejaVuSans-52"/>
      <use xlink:href="#DejaVuSans-48" x="69.482422"/>
      <use xlink:href="#DejaVuSans-45" x="144.677734"/>
      <use xlink:href="#DejaVuSans-4c" x="207.861328"/>
     </g>
    </g>
    <g id="line2d_56">
     <path d="M 63.691875 125.308937 
L 73.691875 125.308937 
L 83.691875 125.308937 
" style="fill: none; stroke: #48b585; stroke-width: 6; stroke-linecap: square"/>
    </g>
    <g id="text_30">
     <!-- Rocky Linux -->
     <g transform="translate(91.691875 128.808937)scale(0.1 -0.1)">
      <use xlink:href="#DejaVuSans-52"/>
      <use xlink:href="#DejaVuSans-6f" x="64.982422"/>
      <use xlink:href="#DejaVuSans-63" x="126.164062"/>
      <use xlink:href="#DejaVuSans-6b" x="181.144531"/>
      <use xlink:href="#DejaVuSans-79" x="235.429688"/>
      <use xlink:href="#DejaVuSans-20" x="294.609375"/>
      <use xlink:href="#DejaVuSans-4c" x="326.396484"/>
      <use xlink:href="#DejaVuSans-69" x="382.109375"/>
      <use xlink:href="#DejaVuSans-6e" x="409.892578"/>
      <use xlink:href="#DejaVuSans-75" x="473.271484"/>
      <use xlink:href="#DejaVuSans-78" x="536.650391"/>
     </g>
    </g>
   </g>
  </g>
 </g>
 <defs>
  <clipPath id="pdffaeaedc1">
   <rect x="54.691875" y="24.14175" width="902.844" height="543.6"/>
  </clipPath>
 </defs>
</svg>
