<?xml version="1.0" encoding="utf-8" standalone="no"?>
<!DOCTYPE svg PUBLIC "-//W3C//DTD SVG 1.1//EN"
  "http://www.w3.org/Graphics/SVG/1.1/DTD/svg11.dtd">
<svg xmlns:xlink="http://www.w3.org/1999/xlink" width="964.735875pt" height="633.943878pt" viewBox="0 0 964.735875 633.943878" xmlns="http://www.w3.org/2000/svg" version="1.1">
 <metadata>
  <rdf:RDF xmlns:dc="http://purl.org/dc/elements/1.1/" xmlns:cc="http://creativecommons.org/ns#" xmlns:rdf="http://www.w3.org/1999/02/22-rdf-syntax-ns#">
   <cc:Work>
    <dc:type rdf:resource="http://purl.org/dc/dcmitype/StillImage"/>
    <dc:date>2024-02-22T11:55:07.822772</dc:date>
    <dc:format>image/svg+xml</dc:format>
    <dc:creator>
     <cc:Agent>
      <dc:title>Matplotlib v3.5.1, https://matplotlib.org/</dc:title>
     </cc:Agent>
    </dc:creator>
   </cc:Work>
  </rdf:RDF>
 </metadata>
 <defs>
  <style type="text/css">*{stroke-linejoin: round; stroke-linecap: butt}</style>
 </defs>
 <g id="figure_1">
  <g id="patch_1">
   <path d="M 0 633.943878 
L 964.735875 633.943878 
L 964.735875 0 
L 0 0 
z
" style="fill: #ffffff"/>
  </g>
  <g id="axes_1">
   <g id="patch_2">
    <path d="M 54.691875 567.74175 
L 957.535875 567.74175 
L 957.535875 24.14175 
L 54.691875 24.14175 
z
" style="fill: #e5e5e5"/>
   </g>
   <g id="matplotlib.axis_1">
    <g id="xtick_1">
     <g id="line2d_1">
      <path d="M 67.336749 567.74175 
L 67.336749 24.14175 
" clip-path="url(#p371321346c)" style="fill: none; stroke: #ffffff; stroke-width: 0.8; stroke-linecap: square"/>
     </g>
     <g id="line2d_2">
      <defs>
       <path id="m863e50eef7" d="M 0 0 
L 0 3.5 
" style="stroke: #555555; stroke-width: 0.8"/>
      </defs>
      <g>
       <use xlink:href="#m863e50eef7" x="67.336749" y="567.74175" style="fill: #555555; stroke: #555555; stroke-width: 0.8"/>
      </g>
     </g>
     <g id="text_1">
      <!-- 2023-03 -->
      <g style="fill: #555555" transform="translate(54.515467 609.659567)rotate(-45)scale(0.1 -0.1)">
       <defs>
        <path id="DejaVuSans-32" d="M 1228 531 
L 3431 531 
L 3431 0 
L 469 0 
L 469 531 
Q 828 903 1448 1529 
Q 2069 2156 2228 2338 
Q 2531 2678 2651 2914 
Q 2772 3150 2772 3378 
Q 2772 3750 2511 3984 
Q 2250 4219 1831 4219 
Q 1534 4219 1204 4116 
Q 875 4013 500 3803 
L 500 4441 
Q 881 4594 1212 4672 
Q 1544 4750 1819 4750 
Q 2544 4750 2975 4387 
Q 3406 4025 3406 3419 
Q 3406 3131 3298 2873 
Q 3191 2616 2906 2266 
Q 2828 2175 2409 1742 
Q 1991 1309 1228 531 
z
" transform="scale(0.015625)"/>
        <path id="DejaVuSans-30" d="M 2034 4250 
Q 1547 4250 1301 3770 
Q 1056 3291 1056 2328 
Q 1056 1369 1301 889 
Q 1547 409 2034 409 
Q 2525 409 2770 889 
Q 3016 1369 3016 2328 
Q 3016 3291 2770 3770 
Q 2525 4250 2034 4250 
z
M 2034 4750 
Q 2819 4750 3233 4129 
Q 3647 3509 3647 2328 
Q 3647 1150 3233 529 
Q 2819 -91 2034 -91 
Q 1250 -91 836 529 
Q 422 1150 422 2328 
Q 422 3509 836 4129 
Q 1250 4750 2034 4750 
z
" transform="scale(0.015625)"/>
        <path id="DejaVuSans-33" d="M 2597 2516 
Q 3050 2419 3304 2112 
Q 3559 1806 3559 1356 
Q 3559 666 3084 287 
Q 2609 -91 1734 -91 
Q 1441 -91 1130 -33 
Q 819 25 488 141 
L 488 750 
Q 750 597 1062 519 
Q 1375 441 1716 441 
Q 2309 441 2620 675 
Q 2931 909 2931 1356 
Q 2931 1769 2642 2001 
Q 2353 2234 1838 2234 
L 1294 2234 
L 1294 2753 
L 1863 2753 
Q 2328 2753 2575 2939 
Q 2822 3125 2822 3475 
Q 2822 3834 2567 4026 
Q 2313 4219 1838 4219 
Q 1578 4219 1281 4162 
Q 984 4106 628 3988 
L 628 4550 
Q 988 4650 1302 4700 
Q 1616 4750 1894 4750 
Q 2613 4750 3031 4423 
Q 3450 4097 3450 3541 
Q 3450 3153 3228 2886 
Q 3006 2619 2597 2516 
z
" transform="scale(0.015625)"/>
        <path id="DejaVuSans-2d" d="M 313 2009 
L 1997 2009 
L 1997 1497 
L 313 1497 
L 313 2009 
z
" transform="scale(0.015625)"/>
       </defs>
       <use xlink:href="#DejaVuSans-32"/>
       <use xlink:href="#DejaVuSans-30" x="63.623047"/>
       <use xlink:href="#DejaVuSans-32" x="127.246094"/>
       <use xlink:href="#DejaVuSans-33" x="190.869141"/>
       <use xlink:href="#DejaVuSans-2d" x="254.492188"/>
       <use xlink:href="#DejaVuSans-30" x="290.576172"/>
       <use xlink:href="#DejaVuSans-33" x="354.199219"/>
      </g>
     </g>
    </g>
    <g id="xtick_2">
     <g id="line2d_3">
      <path d="M 145.734967 567.74175 
L 145.734967 24.14175 
" clip-path="url(#p371321346c)" style="fill: none; stroke: #ffffff; stroke-width: 0.8; stroke-linecap: square"/>
     </g>
     <g id="line2d_4">
      <g>
       <use xlink:href="#m863e50eef7" x="145.734967" y="567.74175" style="fill: #555555; stroke: #555555; stroke-width: 0.8"/>
      </g>
     </g>
     <g id="text_2">
      <!-- 2023-04 -->
      <g style="fill: #555555" transform="translate(132.913685 609.659567)rotate(-45)scale(0.1 -0.1)">
       <defs>
        <path id="DejaVuSans-34" d="M 2419 4116 
L 825 1625 
L 2419 1625 
L 2419 4116 
z
M 2253 4666 
L 3047 4666 
L 3047 1625 
L 3713 1625 
L 3713 1100 
L 3047 1100 
L 3047 0 
L 2419 0 
L 2419 1100 
L 313 1100 
L 313 1709 
L 2253 4666 
z
" transform="scale(0.015625)"/>
       </defs>
       <use xlink:href="#DejaVuSans-32"/>
       <use xlink:href="#DejaVuSans-30" x="63.623047"/>
       <use xlink:href="#DejaVuSans-32" x="127.246094"/>
       <use xlink:href="#DejaVuSans-33" x="190.869141"/>
       <use xlink:href="#DejaVuSans-2d" x="254.492188"/>
       <use xlink:href="#DejaVuSans-30" x="290.576172"/>
       <use xlink:href="#DejaVuSans-34" x="354.199219"/>
      </g>
     </g>
    </g>
    <g id="xtick_3">
     <g id="line2d_5">
      <path d="M 221.604211 567.74175 
L 221.604211 24.14175 
" clip-path="url(#p371321346c)" style="fill: none; stroke: #ffffff; stroke-width: 0.8; stroke-linecap: square"/>
     </g>
     <g id="line2d_6">
      <g>
       <use xlink:href="#m863e50eef7" x="221.604211" y="567.74175" style="fill: #555555; stroke: #555555; stroke-width: 0.8"/>
      </g>
     </g>
     <g id="text_3">
      <!-- 2023-05 -->
      <g style="fill: #555555" transform="translate(208.782929 609.659567)rotate(-45)scale(0.1 -0.1)">
       <defs>
        <path id="DejaVuSans-35" d="M 691 4666 
L 3169 4666 
L 3169 4134 
L 1269 4134 
L 1269 2991 
Q 1406 3038 1543 3061 
Q 1681 3084 1819 3084 
Q 2600 3084 3056 2656 
Q 3513 2228 3513 1497 
Q 3513 744 3044 326 
Q 2575 -91 1722 -91 
Q 1428 -91 1123 -41 
Q 819 9 494 109 
L 494 744 
Q 775 591 1075 516 
Q 1375 441 1709 441 
Q 2250 441 2565 725 
Q 2881 1009 2881 1497 
Q 2881 1984 2565 2268 
Q 2250 2553 1709 2553 
Q 1456 2553 1204 2497 
Q 953 2441 691 2322 
L 691 4666 
z
" transform="scale(0.015625)"/>
       </defs>
       <use xlink:href="#DejaVuSans-32"/>
       <use xlink:href="#DejaVuSans-30" x="63.623047"/>
       <use xlink:href="#DejaVuSans-32" x="127.246094"/>
       <use xlink:href="#DejaVuSans-33" x="190.869141"/>
       <use xlink:href="#DejaVuSans-2d" x="254.492188"/>
       <use xlink:href="#DejaVuSans-30" x="290.576172"/>
       <use xlink:href="#DejaVuSans-35" x="354.199219"/>
      </g>
     </g>
    </g>
    <g id="xtick_4">
     <g id="line2d_7">
      <path d="M 300.00243 567.74175 
L 300.00243 24.14175 
" clip-path="url(#p371321346c)" style="fill: none; stroke: #ffffff; stroke-width: 0.8; stroke-linecap: square"/>
     </g>
     <g id="line2d_8">
      <g>
       <use xlink:href="#m863e50eef7" x="300.00243" y="567.74175" style="fill: #555555; stroke: #555555; stroke-width: 0.8"/>
      </g>
     </g>
     <g id="text_4">
      <!-- 2023-06 -->
      <g style="fill: #555555" transform="translate(287.181147 609.659567)rotate(-45)scale(0.1 -0.1)">
       <defs>
        <path id="DejaVuSans-36" d="M 2113 2584 
Q 1688 2584 1439 2293 
Q 1191 2003 1191 1497 
Q 1191 994 1439 701 
Q 1688 409 2113 409 
Q 2538 409 2786 701 
Q 3034 994 3034 1497 
Q 3034 2003 2786 2293 
Q 2538 2584 2113 2584 
z
M 3366 4563 
L 3366 3988 
Q 3128 4100 2886 4159 
Q 2644 4219 2406 4219 
Q 1781 4219 1451 3797 
Q 1122 3375 1075 2522 
Q 1259 2794 1537 2939 
Q 1816 3084 2150 3084 
Q 2853 3084 3261 2657 
Q 3669 2231 3669 1497 
Q 3669 778 3244 343 
Q 2819 -91 2113 -91 
Q 1303 -91 875 529 
Q 447 1150 447 2328 
Q 447 3434 972 4092 
Q 1497 4750 2381 4750 
Q 2619 4750 2861 4703 
Q 3103 4656 3366 4563 
z
" transform="scale(0.015625)"/>
       </defs>
       <use xlink:href="#DejaVuSans-32"/>
       <use xlink:href="#DejaVuSans-30" x="63.623047"/>
       <use xlink:href="#DejaVuSans-32" x="127.246094"/>
       <use xlink:href="#DejaVuSans-33" x="190.869141"/>
       <use xlink:href="#DejaVuSans-2d" x="254.492188"/>
       <use xlink:href="#DejaVuSans-30" x="290.576172"/>
       <use xlink:href="#DejaVuSans-36" x="354.199219"/>
      </g>
     </g>
    </g>
    <g id="xtick_5">
     <g id="line2d_9">
      <path d="M 375.871673 567.74175 
L 375.871673 24.14175 
" clip-path="url(#p371321346c)" style="fill: none; stroke: #ffffff; stroke-width: 0.8; stroke-linecap: square"/>
     </g>
     <g id="line2d_10">
      <g>
       <use xlink:href="#m863e50eef7" x="375.871673" y="567.74175" style="fill: #555555; stroke: #555555; stroke-width: 0.8"/>
      </g>
     </g>
     <g id="text_5">
      <!-- 2023-07 -->
      <g style="fill: #555555" transform="translate(363.050391 609.659567)rotate(-45)scale(0.1 -0.1)">
       <defs>
        <path id="DejaVuSans-37" d="M 525 4666 
L 3525 4666 
L 3525 4397 
L 1831 0 
L 1172 0 
L 2766 4134 
L 525 4134 
L 525 4666 
z
" transform="scale(0.015625)"/>
       </defs>
       <use xlink:href="#DejaVuSans-32"/>
       <use xlink:href="#DejaVuSans-30" x="63.623047"/>
       <use xlink:href="#DejaVuSans-32" x="127.246094"/>
       <use xlink:href="#DejaVuSans-33" x="190.869141"/>
       <use xlink:href="#DejaVuSans-2d" x="254.492188"/>
       <use xlink:href="#DejaVuSans-30" x="290.576172"/>
       <use xlink:href="#DejaVuSans-37" x="354.199219"/>
      </g>
     </g>
    </g>
    <g id="xtick_6">
     <g id="line2d_11">
      <path d="M 454.269892 567.74175 
L 454.269892 24.14175 
" clip-path="url(#p371321346c)" style="fill: none; stroke: #ffffff; stroke-width: 0.8; stroke-linecap: square"/>
     </g>
     <g id="line2d_12">
      <g>
       <use xlink:href="#m863e50eef7" x="454.269892" y="567.74175" style="fill: #555555; stroke: #555555; stroke-width: 0.8"/>
      </g>
     </g>
     <g id="text_6">
      <!-- 2023-08 -->
      <g style="fill: #555555" transform="translate(441.44861 609.659567)rotate(-45)scale(0.1 -0.1)">
       <defs>
        <path id="DejaVuSans-38" d="M 2034 2216 
Q 1584 2216 1326 1975 
Q 1069 1734 1069 1313 
Q 1069 891 1326 650 
Q 1584 409 2034 409 
Q 2484 409 2743 651 
Q 3003 894 3003 1313 
Q 3003 1734 2745 1975 
Q 2488 2216 2034 2216 
z
M 1403 2484 
Q 997 2584 770 2862 
Q 544 3141 544 3541 
Q 544 4100 942 4425 
Q 1341 4750 2034 4750 
Q 2731 4750 3128 4425 
Q 3525 4100 3525 3541 
Q 3525 3141 3298 2862 
Q 3072 2584 2669 2484 
Q 3125 2378 3379 2068 
Q 3634 1759 3634 1313 
Q 3634 634 3220 271 
Q 2806 -91 2034 -91 
Q 1263 -91 848 271 
Q 434 634 434 1313 
Q 434 1759 690 2068 
Q 947 2378 1403 2484 
z
M 1172 3481 
Q 1172 3119 1398 2916 
Q 1625 2713 2034 2713 
Q 2441 2713 2670 2916 
Q 2900 3119 2900 3481 
Q 2900 3844 2670 4047 
Q 2441 4250 2034 4250 
Q 1625 4250 1398 4047 
Q 1172 3844 1172 3481 
z
" transform="scale(0.015625)"/>
       </defs>
       <use xlink:href="#DejaVuSans-32"/>
       <use xlink:href="#DejaVuSans-30" x="63.623047"/>
       <use xlink:href="#DejaVuSans-32" x="127.246094"/>
       <use xlink:href="#DejaVuSans-33" x="190.869141"/>
       <use xlink:href="#DejaVuSans-2d" x="254.492188"/>
       <use xlink:href="#DejaVuSans-30" x="290.576172"/>
       <use xlink:href="#DejaVuSans-38" x="354.199219"/>
      </g>
     </g>
    </g>
    <g id="xtick_7">
     <g id="line2d_13">
      <path d="M 532.66811 567.74175 
L 532.66811 24.14175 
" clip-path="url(#p371321346c)" style="fill: none; stroke: #ffffff; stroke-width: 0.8; stroke-linecap: square"/>
     </g>
     <g id="line2d_14">
      <g>
       <use xlink:href="#m863e50eef7" x="532.66811" y="567.74175" style="fill: #555555; stroke: #555555; stroke-width: 0.8"/>
      </g>
     </g>
     <g id="text_7">
      <!-- 2023-09 -->
      <g style="fill: #555555" transform="translate(519.846828 609.659567)rotate(-45)scale(0.1 -0.1)">
       <defs>
        <path id="DejaVuSans-39" d="M 703 97 
L 703 672 
Q 941 559 1184 500 
Q 1428 441 1663 441 
Q 2288 441 2617 861 
Q 2947 1281 2994 2138 
Q 2813 1869 2534 1725 
Q 2256 1581 1919 1581 
Q 1219 1581 811 2004 
Q 403 2428 403 3163 
Q 403 3881 828 4315 
Q 1253 4750 1959 4750 
Q 2769 4750 3195 4129 
Q 3622 3509 3622 2328 
Q 3622 1225 3098 567 
Q 2575 -91 1691 -91 
Q 1453 -91 1209 -44 
Q 966 3 703 97 
z
M 1959 2075 
Q 2384 2075 2632 2365 
Q 2881 2656 2881 3163 
Q 2881 3666 2632 3958 
Q 2384 4250 1959 4250 
Q 1534 4250 1286 3958 
Q 1038 3666 1038 3163 
Q 1038 2656 1286 2365 
Q 1534 2075 1959 2075 
z
" transform="scale(0.015625)"/>
       </defs>
       <use xlink:href="#DejaVuSans-32"/>
       <use xlink:href="#DejaVuSans-30" x="63.623047"/>
       <use xlink:href="#DejaVuSans-32" x="127.246094"/>
       <use xlink:href="#DejaVuSans-33" x="190.869141"/>
       <use xlink:href="#DejaVuSans-2d" x="254.492188"/>
       <use xlink:href="#DejaVuSans-30" x="290.576172"/>
       <use xlink:href="#DejaVuSans-39" x="354.199219"/>
      </g>
     </g>
    </g>
    <g id="xtick_8">
     <g id="line2d_15">
      <path d="M 608.537354 567.74175 
L 608.537354 24.14175 
" clip-path="url(#p371321346c)" style="fill: none; stroke: #ffffff; stroke-width: 0.8; stroke-linecap: square"/>
     </g>
     <g id="line2d_16">
      <g>
       <use xlink:href="#m863e50eef7" x="608.537354" y="567.74175" style="fill: #555555; stroke: #555555; stroke-width: 0.8"/>
      </g>
     </g>
     <g id="text_8">
      <!-- 2023-10 -->
      <g style="fill: #555555" transform="translate(595.716072 609.659567)rotate(-45)scale(0.1 -0.1)">
       <defs>
        <path id="DejaVuSans-31" d="M 794 531 
L 1825 531 
L 1825 4091 
L 703 3866 
L 703 4441 
L 1819 4666 
L 2450 4666 
L 2450 531 
L 3481 531 
L 3481 0 
L 794 0 
L 794 531 
z
" transform="scale(0.015625)"/>
       </defs>
       <use xlink:href="#DejaVuSans-32"/>
       <use xlink:href="#DejaVuSans-30" x="63.623047"/>
       <use xlink:href="#DejaVuSans-32" x="127.246094"/>
       <use xlink:href="#DejaVuSans-33" x="190.869141"/>
       <use xlink:href="#DejaVuSans-2d" x="254.492188"/>
       <use xlink:href="#DejaVuSans-31" x="290.576172"/>
       <use xlink:href="#DejaVuSans-30" x="354.199219"/>
      </g>
     </g>
    </g>
    <g id="xtick_9">
     <g id="line2d_17">
      <path d="M 686.935572 567.74175 
L 686.935572 24.14175 
" clip-path="url(#p371321346c)" style="fill: none; stroke: #ffffff; stroke-width: 0.8; stroke-linecap: square"/>
     </g>
     <g id="line2d_18">
      <g>
       <use xlink:href="#m863e50eef7" x="686.935572" y="567.74175" style="fill: #555555; stroke: #555555; stroke-width: 0.8"/>
      </g>
     </g>
     <g id="text_9">
      <!-- 2023-11 -->
      <g style="fill: #555555" transform="translate(674.11429 609.659567)rotate(-45)scale(0.1 -0.1)">
       <use xlink:href="#DejaVuSans-32"/>
       <use xlink:href="#DejaVuSans-30" x="63.623047"/>
       <use xlink:href="#DejaVuSans-32" x="127.246094"/>
       <use xlink:href="#DejaVuSans-33" x="190.869141"/>
       <use xlink:href="#DejaVuSans-2d" x="254.492188"/>
       <use xlink:href="#DejaVuSans-31" x="290.576172"/>
       <use xlink:href="#DejaVuSans-31" x="354.199219"/>
      </g>
     </g>
    </g>
    <g id="xtick_10">
     <g id="line2d_19">
      <path d="M 762.804816 567.74175 
L 762.804816 24.14175 
" clip-path="url(#p371321346c)" style="fill: none; stroke: #ffffff; stroke-width: 0.8; stroke-linecap: square"/>
     </g>
     <g id="line2d_20">
      <g>
       <use xlink:href="#m863e50eef7" x="762.804816" y="567.74175" style="fill: #555555; stroke: #555555; stroke-width: 0.8"/>
      </g>
     </g>
     <g id="text_10">
      <!-- 2023-12 -->
      <g style="fill: #555555" transform="translate(749.983534 609.659567)rotate(-45)scale(0.1 -0.1)">
       <use xlink:href="#DejaVuSans-32"/>
       <use xlink:href="#DejaVuSans-30" x="63.623047"/>
       <use xlink:href="#DejaVuSans-32" x="127.246094"/>
       <use xlink:href="#DejaVuSans-33" x="190.869141"/>
       <use xlink:href="#DejaVuSans-2d" x="254.492188"/>
       <use xlink:href="#DejaVuSans-31" x="290.576172"/>
       <use xlink:href="#DejaVuSans-32" x="354.199219"/>
      </g>
     </g>
    </g>
    <g id="xtick_11">
     <g id="line2d_21">
      <path d="M 841.203035 567.74175 
L 841.203035 24.14175 
" clip-path="url(#p371321346c)" style="fill: none; stroke: #ffffff; stroke-width: 0.8; stroke-linecap: square"/>
     </g>
     <g id="line2d_22">
      <g>
       <use xlink:href="#m863e50eef7" x="841.203035" y="567.74175" style="fill: #555555; stroke: #555555; stroke-width: 0.8"/>
      </g>
     </g>
     <g id="text_11">
      <!-- 2024-01 -->
      <g style="fill: #555555" transform="translate(828.381752 609.659567)rotate(-45)scale(0.1 -0.1)">
       <use xlink:href="#DejaVuSans-32"/>
       <use xlink:href="#DejaVuSans-30" x="63.623047"/>
       <use xlink:href="#DejaVuSans-32" x="127.246094"/>
       <use xlink:href="#DejaVuSans-34" x="190.869141"/>
       <use xlink:href="#DejaVuSans-2d" x="254.492188"/>
       <use xlink:href="#DejaVuSans-30" x="290.576172"/>
       <use xlink:href="#DejaVuSans-31" x="354.199219"/>
      </g>
     </g>
    </g>
    <g id="xtick_12">
     <g id="line2d_23">
      <path d="M 919.601253 567.74175 
L 919.601253 24.14175 
" clip-path="url(#p371321346c)" style="fill: none; stroke: #ffffff; stroke-width: 0.8; stroke-linecap: square"/>
     </g>
     <g id="line2d_24">
      <g>
       <use xlink:href="#m863e50eef7" x="919.601253" y="567.74175" style="fill: #555555; stroke: #555555; stroke-width: 0.8"/>
      </g>
     </g>
     <g id="text_12">
      <!-- 2024-02 -->
      <g style="fill: #555555" transform="translate(906.779971 609.659567)rotate(-45)scale(0.1 -0.1)">
       <use xlink:href="#DejaVuSans-32"/>
       <use xlink:href="#DejaVuSans-30" x="63.623047"/>
       <use xlink:href="#DejaVuSans-32" x="127.246094"/>
       <use xlink:href="#DejaVuSans-34" x="190.869141"/>
       <use xlink:href="#DejaVuSans-2d" x="254.492188"/>
       <use xlink:href="#DejaVuSans-30" x="290.576172"/>
       <use xlink:href="#DejaVuSans-32" x="354.199219"/>
      </g>
     </g>
    </g>
    <g id="text_13">
     <!-- Date -->
     <g style="fill: #555555" transform="translate(491.772938 624.248253)scale(0.12 -0.12)">
      <defs>
       <path id="DejaVuSans-44" d="M 1259 4147 
L 1259 519 
L 2022 519 
Q 2988 519 3436 956 
Q 3884 1394 3884 2338 
Q 3884 3275 3436 3711 
Q 2988 4147 2022 4147 
L 1259 4147 
z
M 628 4666 
L 1925 4666 
Q 3281 4666 3915 4102 
Q 4550 3538 4550 2338 
Q 4550 1131 3912 565 
Q 3275 0 1925 0 
L 628 0 
L 628 4666 
z
" transform="scale(0.015625)"/>
       <path id="DejaVuSans-61" d="M 2194 1759 
Q 1497 1759 1228 1600 
Q 959 1441 959 1056 
Q 959 750 1161 570 
Q 1363 391 1709 391 
Q 2188 391 2477 730 
Q 2766 1069 2766 1631 
L 2766 1759 
L 2194 1759 
z
M 3341 1997 
L 3341 0 
L 2766 0 
L 2766 531 
Q 2569 213 2275 61 
Q 1981 -91 1556 -91 
Q 1019 -91 701 211 
Q 384 513 384 1019 
Q 384 1609 779 1909 
Q 1175 2209 1959 2209 
L 2766 2209 
L 2766 2266 
Q 2766 2663 2505 2880 
Q 2244 3097 1772 3097 
Q 1472 3097 1187 3025 
Q 903 2953 641 2809 
L 641 3341 
Q 956 3463 1253 3523 
Q 1550 3584 1831 3584 
Q 2591 3584 2966 3190 
Q 3341 2797 3341 1997 
z
" transform="scale(0.015625)"/>
       <path id="DejaVuSans-74" d="M 1172 4494 
L 1172 3500 
L 2356 3500 
L 2356 3053 
L 1172 3053 
L 1172 1153 
Q 1172 725 1289 603 
Q 1406 481 1766 481 
L 2356 481 
L 2356 0 
L 1766 0 
Q 1100 0 847 248 
Q 594 497 594 1153 
L 594 3053 
L 172 3053 
L 172 3500 
L 594 3500 
L 594 4494 
L 1172 4494 
z
" transform="scale(0.015625)"/>
       <path id="DejaVuSans-65" d="M 3597 1894 
L 3597 1613 
L 953 1613 
Q 991 1019 1311 708 
Q 1631 397 2203 397 
Q 2534 397 2845 478 
Q 3156 559 3463 722 
L 3463 178 
Q 3153 47 2828 -22 
Q 2503 -91 2169 -91 
Q 1331 -91 842 396 
Q 353 884 353 1716 
Q 353 2575 817 3079 
Q 1281 3584 2069 3584 
Q 2775 3584 3186 3129 
Q 3597 2675 3597 1894 
z
M 3022 2063 
Q 3016 2534 2758 2815 
Q 2500 3097 2075 3097 
Q 1594 3097 1305 2825 
Q 1016 2553 972 2059 
L 3022 2063 
z
" transform="scale(0.015625)"/>
      </defs>
      <use xlink:href="#DejaVuSans-44"/>
      <use xlink:href="#DejaVuSans-61" x="77.001953"/>
      <use xlink:href="#DejaVuSans-74" x="138.28125"/>
      <use xlink:href="#DejaVuSans-65" x="177.490234"/>
     </g>
    </g>
   </g>
   <g id="matplotlib.axis_2">
    <g id="ytick_1">
     <g id="line2d_25">
      <path d="M 54.691875 567.74175 
L 957.535875 567.74175 
" clip-path="url(#p371321346c)" style="fill: none; stroke: #ffffff; stroke-width: 0.8; stroke-linecap: square"/>
     </g>
     <g id="line2d_26">
      <defs>
       <path id="m371b44fca9" d="M 0 0 
L -3.5 0 
" style="stroke: #555555; stroke-width: 0.8"/>
      </defs>
      <g>
       <use xlink:href="#m371b44fca9" x="54.691875" y="567.74175" style="fill: #555555; stroke: #555555; stroke-width: 0.8"/>
      </g>
     </g>
     <g id="text_14">
      <!-- 0k -->
      <g style="fill: #555555" transform="translate(35.53875 571.540969)scale(0.1 -0.1)">
       <defs>
        <path id="DejaVuSans-6b" d="M 581 4863 
L 1159 4863 
L 1159 1991 
L 2875 3500 
L 3609 3500 
L 1753 1863 
L 3688 0 
L 2938 0 
L 1159 1709 
L 1159 0 
L 581 0 
L 581 4863 
z
" transform="scale(0.015625)"/>
       </defs>
       <use xlink:href="#DejaVuSans-30"/>
       <use xlink:href="#DejaVuSans-6b" x="63.623047"/>
      </g>
     </g>
    </g>
    <g id="ytick_2">
     <g id="line2d_27">
      <path d="M 54.691875 469.07991 
L 957.535875 469.07991 
" clip-path="url(#p371321346c)" style="fill: none; stroke: #ffffff; stroke-width: 0.8; stroke-linecap: square"/>
     </g>
     <g id="line2d_28">
      <g>
       <use xlink:href="#m371b44fca9" x="54.691875" y="469.07991" style="fill: #555555; stroke: #555555; stroke-width: 0.8"/>
      </g>
     </g>
     <g id="text_15">
      <!-- 50k -->
      <g style="fill: #555555" transform="translate(29.17625 472.879129)scale(0.1 -0.1)">
       <use xlink:href="#DejaVuSans-35"/>
       <use xlink:href="#DejaVuSans-30" x="63.623047"/>
       <use xlink:href="#DejaVuSans-6b" x="127.246094"/>
      </g>
     </g>
    </g>
    <g id="ytick_3">
     <g id="line2d_29">
      <path d="M 54.691875 370.41807 
L 957.535875 370.41807 
" clip-path="url(#p371321346c)" style="fill: none; stroke: #ffffff; stroke-width: 0.8; stroke-linecap: square"/>
     </g>
     <g id="line2d_30">
      <g>
       <use xlink:href="#m371b44fca9" x="54.691875" y="370.41807" style="fill: #555555; stroke: #555555; stroke-width: 0.8"/>
      </g>
     </g>
     <g id="text_16">
      <!-- 100k -->
      <g style="fill: #555555" transform="translate(22.81375 374.217289)scale(0.1 -0.1)">
       <use xlink:href="#DejaVuSans-31"/>
       <use xlink:href="#DejaVuSans-30" x="63.623047"/>
       <use xlink:href="#DejaVuSans-30" x="127.246094"/>
       <use xlink:href="#DejaVuSans-6b" x="190.869141"/>
      </g>
     </g>
    </g>
    <g id="ytick_4">
     <g id="line2d_31">
      <path d="M 54.691875 271.756231 
L 957.535875 271.756231 
" clip-path="url(#p371321346c)" style="fill: none; stroke: #ffffff; stroke-width: 0.8; stroke-linecap: square"/>
     </g>
     <g id="line2d_32">
      <g>
       <use xlink:href="#m371b44fca9" x="54.691875" y="271.756231" style="fill: #555555; stroke: #555555; stroke-width: 0.8"/>
      </g>
     </g>
     <g id="text_17">
      <!-- 150k -->
      <g style="fill: #555555" transform="translate(22.81375 275.555449)scale(0.1 -0.1)">
       <use xlink:href="#DejaVuSans-31"/>
       <use xlink:href="#DejaVuSans-35" x="63.623047"/>
       <use xlink:href="#DejaVuSans-30" x="127.246094"/>
       <use xlink:href="#DejaVuSans-6b" x="190.869141"/>
      </g>
     </g>
    </g>
    <g id="ytick_5">
     <g id="line2d_33">
      <path d="M 54.691875 173.094391 
L 957.535875 173.094391 
" clip-path="url(#p371321346c)" style="fill: none; stroke: #ffffff; stroke-width: 0.8; stroke-linecap: square"/>
     </g>
     <g id="line2d_34">
      <g>
       <use xlink:href="#m371b44fca9" x="54.691875" y="173.094391" style="fill: #555555; stroke: #555555; stroke-width: 0.8"/>
      </g>
     </g>
     <g id="text_18">
      <!-- 200k -->
      <g style="fill: #555555" transform="translate(22.81375 176.89361)scale(0.1 -0.1)">
       <use xlink:href="#DejaVuSans-32"/>
       <use xlink:href="#DejaVuSans-30" x="63.623047"/>
       <use xlink:href="#DejaVuSans-30" x="127.246094"/>
       <use xlink:href="#DejaVuSans-6b" x="190.869141"/>
      </g>
     </g>
    </g>
    <g id="ytick_6">
     <g id="line2d_35">
      <path d="M 54.691875 74.432551 
L 957.535875 74.432551 
" clip-path="url(#p371321346c)" style="fill: none; stroke: #ffffff; stroke-width: 0.8; stroke-linecap: square"/>
     </g>
     <g id="line2d_36">
      <g>
       <use xlink:href="#m371b44fca9" x="54.691875" y="74.432551" style="fill: #555555; stroke: #555555; stroke-width: 0.8"/>
      </g>
     </g>
     <g id="text_19">
      <!-- 250k -->
      <g style="fill: #555555" transform="translate(22.81375 78.23177)scale(0.1 -0.1)">
       <use xlink:href="#DejaVuSans-32"/>
       <use xlink:href="#DejaVuSans-35" x="63.623047"/>
       <use xlink:href="#DejaVuSans-30" x="127.246094"/>
       <use xlink:href="#DejaVuSans-6b" x="190.869141"/>
      </g>
     </g>
    </g>
    <g id="text_20">
     <!-- Instances -->
     <g style="fill: #555555" transform="translate(16.318125 324.588)rotate(-90)scale(0.12 -0.12)">
      <defs>
       <path id="DejaVuSans-49" d="M 628 4666 
L 1259 4666 
L 1259 0 
L 628 0 
L 628 4666 
z
" transform="scale(0.015625)"/>
       <path id="DejaVuSans-6e" d="M 3513 2113 
L 3513 0 
L 2938 0 
L 2938 2094 
Q 2938 2591 2744 2837 
Q 2550 3084 2163 3084 
Q 1697 3084 1428 2787 
Q 1159 2491 1159 1978 
L 1159 0 
L 581 0 
L 581 3500 
L 1159 3500 
L 1159 2956 
Q 1366 3272 1645 3428 
Q 1925 3584 2291 3584 
Q 2894 3584 3203 3211 
Q 3513 2838 3513 2113 
z
" transform="scale(0.015625)"/>
       <path id="DejaVuSans-73" d="M 2834 3397 
L 2834 2853 
Q 2591 2978 2328 3040 
Q 2066 3103 1784 3103 
Q 1356 3103 1142 2972 
Q 928 2841 928 2578 
Q 928 2378 1081 2264 
Q 1234 2150 1697 2047 
L 1894 2003 
Q 2506 1872 2764 1633 
Q 3022 1394 3022 966 
Q 3022 478 2636 193 
Q 2250 -91 1575 -91 
Q 1294 -91 989 -36 
Q 684 19 347 128 
L 347 722 
Q 666 556 975 473 
Q 1284 391 1588 391 
Q 1994 391 2212 530 
Q 2431 669 2431 922 
Q 2431 1156 2273 1281 
Q 2116 1406 1581 1522 
L 1381 1569 
Q 847 1681 609 1914 
Q 372 2147 372 2553 
Q 372 3047 722 3315 
Q 1072 3584 1716 3584 
Q 2034 3584 2315 3537 
Q 2597 3491 2834 3397 
z
" transform="scale(0.015625)"/>
       <path id="DejaVuSans-63" d="M 3122 3366 
L 3122 2828 
Q 2878 2963 2633 3030 
Q 2388 3097 2138 3097 
Q 1578 3097 1268 2742 
Q 959 2388 959 1747 
Q 959 1106 1268 751 
Q 1578 397 2138 397 
Q 2388 397 2633 464 
Q 2878 531 3122 666 
L 3122 134 
Q 2881 22 2623 -34 
Q 2366 -91 2075 -91 
Q 1284 -91 818 406 
Q 353 903 353 1747 
Q 353 2603 823 3093 
Q 1294 3584 2113 3584 
Q 2378 3584 2631 3529 
Q 2884 3475 3122 3366 
z
" transform="scale(0.015625)"/>
      </defs>
      <use xlink:href="#DejaVuSans-49"/>
      <use xlink:href="#DejaVuSans-6e" x="29.492188"/>
      <use xlink:href="#DejaVuSans-73" x="92.871094"/>
      <use xlink:href="#DejaVuSans-74" x="144.970703"/>
      <use xlink:href="#DejaVuSans-61" x="184.179688"/>
      <use xlink:href="#DejaVuSans-6e" x="245.458984"/>
      <use xlink:href="#DejaVuSans-63" x="308.837891"/>
      <use xlink:href="#DejaVuSans-65" x="363.818359"/>
      <use xlink:href="#DejaVuSans-73" x="425.341797"/>
     </g>
    </g>
   </g>
   <g id="line2d_37">
    <path d="M 54.691875 501.967685 
L 63.811511 500.055395 
L 72.931148 498.143105 
L 82.050784 496.230816 
L 91.17042 494.318526 
L 100.290057 492.406236 
L 109.409693 490.493947 
L 118.52933 488.581657 
L 127.648966 486.669367 
L 136.768602 484.757077 
L 145.888239 482.844788 
L 155.007875 480.932498 
L 164.127511 479.020208 
L 173.247148 477.107919 
L 182.366784 475.195629 
L 191.48642 473.283339 
L 200.606057 471.371049 
L 209.725693 469.45876 
L 218.84533 467.54647 
L 227.964966 465.63418 
L 237.084602 463.72189 
L 246.204239 461.809601 
L 255.323875 459.897311 
L 264.443511 457.985021 
L 273.563148 456.072732 
L 282.682784 454.160442 
L 291.80242 452.248152 
L 300.922057 450.335862 
L 310.041693 448.423573 
L 319.16133 446.511283 
L 328.280966 444.598993 
L 337.400602 442.686704 
L 346.520239 440.774414 
L 355.639875 438.862124 
L 364.759511 436.949834 
L 373.879148 435.037545 
L 382.998784 433.125255 
L 392.11842 431.212965 
L 401.238057 429.300675 
L 410.357693 427.388386 
L 419.47733 425.476096 
L 428.596966 423.563806 
L 437.716602 421.651517 
L 446.836239 419.739227 
L 455.955875 417.826937 
L 465.075511 415.914647 
L 474.195148 414.002358 
L 483.314784 412.090068 
L 492.43442 410.177778 
L 501.554057 408.265488 
L 510.673693 406.353199 
L 519.79333 404.440909 
L 528.912966 402.528619 
L 538.032602 400.61633 
L 547.152239 398.70404 
L 556.271875 396.79175 
L 565.391511 394.87946 
L 574.511148 392.967171 
L 583.630784 391.054881 
L 592.75042 389.142591 
L 601.870057 387.230302 
L 610.989693 385.318012 
L 620.10933 383.405722 
L 629.228966 381.493432 
L 638.348602 379.581143 
L 647.468239 377.668853 
L 656.587875 375.756563 
L 665.707511 373.844273 
L 674.827148 371.931984 
L 683.946784 370.019694 
L 693.06642 368.107404 
L 702.186057 366.195115 
L 711.305693 364.282825 
L 720.42533 362.370535 
L 729.544966 360.458245 
L 738.664602 358.545956 
L 747.784239 356.633666 
L 756.903875 354.721376 
L 766.023511 352.809086 
L 775.143148 350.896797 
L 784.262784 348.984507 
L 793.38242 347.072217 
L 802.502057 345.159928 
L 811.621693 343.247638 
L 820.74133 341.335348 
L 829.860966 339.423058 
L 838.980602 337.510769 
L 848.100239 335.598479 
L 857.219875 333.686189 
L 866.339511 331.7739 
L 875.459148 329.86161 
L 884.578784 327.94932 
L 893.69842 326.03703 
L 902.818057 324.124741 
L 911.937693 322.212451 
L 921.05733 320.300161 
L 930.176966 318.387871 
L 939.296602 316.475582 
L 948.416239 314.563292 
L 957.535875 312.651002 
" clip-path="url(#p371321346c)" style="fill: none; stroke-dasharray: 1.5,2.475; stroke-dashoffset: 0; stroke: #4ac1fa; stroke-width: 1.5"/>
   </g>
   <g id="line2d_38">
    <path d="M 54.691875 382.225641 
L 63.811511 383.476281 
L 72.931148 384.726921 
L 82.050784 385.97756 
L 91.17042 387.2282 
L 100.290057 388.47884 
L 109.409693 389.72948 
L 118.52933 390.98012 
L 127.648966 392.230759 
L 136.768602 393.481399 
L 145.888239 394.732039 
L 155.007875 395.982679 
L 164.127511 397.233319 
L 173.247148 398.483958 
L 182.366784 399.734598 
L 191.48642 400.985238 
L 200.606057 402.235878 
L 209.725693 403.486517 
L 218.84533 404.737157 
L 227.964966 405.987797 
L 237.084602 407.238437 
L 246.204239 408.489077 
L 255.323875 409.739716 
L 264.443511 410.990356 
L 273.563148 412.240996 
L 282.682784 413.491636 
L 291.80242 414.742275 
L 300.922057 415.992915 
L 310.041693 417.243555 
L 319.16133 418.494195 
L 328.280966 419.744835 
L 337.400602 420.995474 
L 346.520239 422.246114 
L 355.639875 423.496754 
L 364.759511 424.747394 
L 373.879148 425.998033 
L 382.998784 427.248673 
L 392.11842 428.499313 
L 401.238057 429.749953 
L 410.357693 431.000593 
L 419.47733 432.251232 
L 428.596966 433.501872 
L 437.716602 434.752512 
L 446.836239 436.003152 
L 455.955875 437.253792 
L 465.075511 438.504431 
L 474.195148 439.755071 
L 483.314784 441.005711 
L 492.43442 442.256351 
L 501.554057 443.50699 
L 510.673693 444.75763 
L 519.79333 446.00827 
L 528.912966 447.25891 
L 538.032602 448.50955 
L 547.152239 449.760189 
L 556.271875 451.010829 
L 565.391511 452.261469 
L 574.511148 453.512109 
L 583.630784 454.762748 
L 592.75042 456.013388 
L 601.870057 457.264028 
L 610.989693 458.514668 
L 620.10933 459.765308 
L 629.228966 461.015947 
L 638.348602 462.266587 
L 647.468239 463.517227 
L 656.587875 464.767867 
L 665.707511 466.018506 
L 674.827148 467.269146 
L 683.946784 468.519786 
L 693.06642 469.770426 
L 702.186057 471.021066 
L 711.305693 472.271705 
L 720.42533 473.522345 
L 729.544966 474.772985 
L 738.664602 476.023625 
L 747.784239 477.274264 
L 756.903875 478.524904 
L 766.023511 479.775544 
L 775.143148 481.026184 
L 784.262784 482.276824 
L 793.38242 483.527463 
L 802.502057 484.778103 
L 811.621693 486.028743 
L 820.74133 487.279383 
L 829.860966 488.530023 
L 838.980602 489.780662 
L 848.100239 491.031302 
L 857.219875 492.281942 
L 866.339511 493.532582 
L 875.459148 494.783221 
L 884.578784 496.033861 
L 893.69842 497.284501 
L 902.818057 498.535141 
L 911.937693 499.785781 
L 921.05733 501.03642 
L 930.176966 502.28706 
L 939.296602 503.5377 
L 948.416239 504.78834 
L 957.535875 506.038979 
" clip-path="url(#p371321346c)" style="fill: none; stroke-dasharray: 1.5,2.475; stroke-dashoffset: 0; stroke: #e9a942; stroke-width: 1.5"/>
   </g>
   <g id="line2d_39">
    <path d="M 54.691875 451.790964 
L 63.811511 451.654587 
L 72.931148 451.51821 
L 82.050784 451.381834 
L 91.17042 451.245457 
L 100.290057 451.109081 
L 109.409693 450.972704 
L 118.52933 450.836327 
L 127.648966 450.699951 
L 136.768602 450.563574 
L 145.888239 450.427197 
L 155.007875 450.290821 
L 164.127511 450.154444 
L 173.247148 450.018067 
L 182.366784 449.881691 
L 191.48642 449.745314 
L 200.606057 449.608938 
L 209.725693 449.472561 
L 218.84533 449.336184 
L 227.964966 449.199808 
L 237.084602 449.063431 
L 246.204239 448.927054 
L 255.323875 448.790678 
L 264.443511 448.654301 
L 273.563148 448.517924 
L 282.682784 448.381548 
L 291.80242 448.245171 
L 300.922057 448.108795 
L 310.041693 447.972418 
L 319.16133 447.836041 
L 328.280966 447.699665 
L 337.400602 447.563288 
L 346.520239 447.426911 
L 355.639875 447.290535 
L 364.759511 447.154158 
L 373.879148 447.017781 
L 382.998784 446.881405 
L 392.11842 446.745028 
L 401.238057 446.608652 
L 410.357693 446.472275 
L 419.47733 446.335898 
L 428.596966 446.199522 
L 437.716602 446.063145 
L 446.836239 445.926768 
L 455.955875 445.790392 
L 465.075511 445.654015 
L 474.195148 445.517638 
L 483.314784 445.381262 
L 492.43442 445.244885 
L 501.554057 445.108509 
L 510.673693 444.972132 
L 519.79333 444.835755 
L 528.912966 444.699379 
L 538.032602 444.563002 
L 547.152239 444.426625 
L 556.271875 444.290249 
L 565.391511 444.153872 
L 574.511148 444.017495 
L 583.630784 443.881119 
L 592.75042 443.744742 
L 601.870057 443.608365 
L 610.989693 443.471989 
L 620.10933 443.335612 
L 629.228966 443.199236 
L 638.348602 443.062859 
L 647.468239 442.926482 
L 656.587875 442.790106 
L 665.707511 442.653729 
L 674.827148 442.517352 
L 683.946784 442.380976 
L 693.06642 442.244599 
L 702.186057 442.108222 
L 711.305693 441.971846 
L 720.42533 441.835469 
L 729.544966 441.699093 
L 738.664602 441.562716 
L 747.784239 441.426339 
L 756.903875 441.289963 
L 766.023511 441.153586 
L 775.143148 441.017209 
L 784.262784 440.880833 
L 793.38242 440.744456 
L 802.502057 440.608079 
L 811.621693 440.471703 
L 820.74133 440.335326 
L 829.860966 440.19895 
L 838.980602 440.062573 
L 848.100239 439.926196 
L 857.219875 439.78982 
L 866.339511 439.653443 
L 875.459148 439.517066 
L 884.578784 439.38069 
L 893.69842 439.244313 
L 902.818057 439.107936 
L 911.937693 438.97156 
L 921.05733 438.835183 
L 930.176966 438.698807 
L 939.296602 438.56243 
L 948.416239 438.426053 
L 957.535875 438.289677 
" clip-path="url(#p371321346c)" style="fill: none; stroke-dasharray: 1.5,2.475; stroke-dashoffset: 0; stroke: #9a5689; stroke-width: 1.5"/>
   </g>
   <g id="line2d_40">
    <path d="M 54.691875 524.169305 
L 63.811511 523.627269 
L 72.931148 523.085234 
L 82.050784 522.543199 
L 91.17042 522.001164 
L 100.290057 521.459129 
L 109.409693 520.917094 
L 118.52933 520.375058 
L 127.648966 519.833023 
L 136.768602 519.290988 
L 145.888239 518.748953 
L 155.007875 518.206918 
L 164.127511 517.664883 
L 173.247148 517.122847 
L 182.366784 516.580812 
L 191.48642 516.038777 
L 200.606057 515.496742 
L 209.725693 514.954707 
L 218.84533 514.412672 
L 227.964966 513.870636 
L 237.084602 513.328601 
L 246.204239 512.786566 
L 255.323875 512.244531 
L 264.443511 511.702496 
L 273.563148 511.160461 
L 282.682784 510.618425 
L 291.80242 510.07639 
L 300.922057 509.534355 
L 310.041693 508.99232 
L 319.16133 508.450285 
L 328.280966 507.90825 
L 337.400602 507.366214 
L 346.520239 506.824179 
L 355.639875 506.282144 
L 364.759511 505.740109 
L 373.879148 505.198074 
L 382.998784 504.656039 
L 392.11842 504.114003 
L 401.238057 503.571968 
L 410.357693 503.029933 
L 419.47733 502.487898 
L 428.596966 501.945863 
L 437.716602 501.403828 
L 446.836239 500.861792 
L 455.955875 500.319757 
L 465.075511 499.777722 
L 474.195148 499.235687 
L 483.314784 498.693652 
L 492.43442 498.151617 
L 501.554057 497.609581 
L 510.673693 497.067546 
L 519.79333 496.525511 
L 528.912966 495.983476 
L 538.032602 495.441441 
L 547.152239 494.899406 
L 556.271875 494.35737 
L 565.391511 493.815335 
L 574.511148 493.2733 
L 583.630784 492.731265 
L 592.75042 492.18923 
L 601.870057 491.647195 
L 610.989693 491.105159 
L 620.10933 490.563124 
L 629.228966 490.021089 
L 638.348602 489.479054 
L 647.468239 488.937019 
L 656.587875 488.394984 
L 665.707511 487.852948 
L 674.827148 487.310913 
L 683.946784 486.768878 
L 693.06642 486.226843 
L 702.186057 485.684808 
L 711.305693 485.142773 
L 720.42533 484.600737 
L 729.544966 484.058702 
L 738.664602 483.516667 
L 747.784239 482.974632 
L 756.903875 482.432597 
L 766.023511 481.890562 
L 775.143148 481.348526 
L 784.262784 480.806491 
L 793.38242 480.264456 
L 802.502057 479.722421 
L 811.621693 479.180386 
L 820.74133 478.638351 
L 829.860966 478.096315 
L 838.980602 477.55428 
L 848.100239 477.012245 
L 857.219875 476.47021 
L 866.339511 475.928175 
L 875.459148 475.38614 
L 884.578784 474.844104 
L 893.69842 474.302069 
L 902.818057 473.760034 
L 911.937693 473.217999 
L 921.05733 472.675964 
L 930.176966 472.133928 
L 939.296602 471.591893 
L 948.416239 471.049858 
L 957.535875 470.507823 
" clip-path="url(#p371321346c)" style="fill: none; stroke-dasharray: 1.5,2.475; stroke-dashoffset: 0; stroke: #be503b; stroke-width: 1.5"/>
   </g>
   <g id="line2d_41">
    <path d="M 54.691875 426.176954 
L 63.811511 425.266457 
L 72.931148 424.35596 
L 82.050784 423.445462 
L 91.17042 422.534965 
L 100.290057 421.624468 
L 109.409693 420.713971 
L 118.52933 419.803474 
L 127.648966 418.892976 
L 136.768602 417.982479 
L 145.888239 417.071982 
L 155.007875 416.161485 
L 164.127511 415.250988 
L 173.247148 414.34049 
L 182.366784 413.429993 
L 191.48642 412.519496 
L 200.606057 411.608999 
L 209.725693 410.698502 
L 218.84533 409.788004 
L 227.964966 408.877507 
L 237.084602 407.96701 
L 246.204239 407.056513 
L 255.323875 406.146016 
L 264.443511 405.235518 
L 273.563148 404.325021 
L 282.682784 403.414524 
L 291.80242 402.504027 
L 300.922057 401.593529 
L 310.041693 400.683032 
L 319.16133 399.772535 
L 328.280966 398.862038 
L 337.400602 397.951541 
L 346.520239 397.041043 
L 355.639875 396.130546 
L 364.759511 395.220049 
L 373.879148 394.309552 
L 382.998784 393.399055 
L 392.11842 392.488557 
L 401.238057 391.57806 
L 410.357693 390.667563 
L 419.47733 389.757066 
L 428.596966 388.846569 
L 437.716602 387.936071 
L 446.836239 387.025574 
L 455.955875 386.115077 
L 465.075511 385.20458 
L 474.195148 384.294083 
L 483.314784 383.383585 
L 492.43442 382.473088 
L 501.554057 381.562591 
L 510.673693 380.652094 
L 519.79333 379.741597 
L 528.912966 378.831099 
L 538.032602 377.920602 
L 547.152239 377.010105 
L 556.271875 376.099608 
L 565.391511 375.18911 
L 574.511148 374.278613 
L 583.630784 373.368116 
L 592.75042 372.457619 
L 601.870057 371.547122 
L 610.989693 370.636624 
L 620.10933 369.726127 
L 629.228966 368.81563 
L 638.348602 367.905133 
L 647.468239 366.994636 
L 656.587875 366.084138 
L 665.707511 365.173641 
L 674.827148 364.263144 
L 683.946784 363.352647 
L 693.06642 362.44215 
L 702.186057 361.531652 
L 711.305693 360.621155 
L 720.42533 359.710658 
L 729.544966 358.800161 
L 738.664602 357.889664 
L 747.784239 356.979166 
L 756.903875 356.068669 
L 766.023511 355.158172 
L 775.143148 354.247675 
L 784.262784 353.337178 
L 793.38242 352.42668 
L 802.502057 351.516183 
L 811.621693 350.605686 
L 820.74133 349.695189 
L 829.860966 348.784691 
L 838.980602 347.874194 
L 848.100239 346.963697 
L 857.219875 346.0532 
L 866.339511 345.142703 
L 875.459148 344.232205 
L 884.578784 343.321708 
L 893.69842 342.411211 
L 902.818057 341.500714 
L 911.937693 340.590217 
L 921.05733 339.679719 
L 930.176966 338.769222 
L 939.296602 337.858725 
L 948.416239 336.948228 
L 957.535875 336.037731 
" clip-path="url(#p371321346c)" style="fill: none; stroke-dasharray: 1.5,2.475; stroke-dashoffset: 0; stroke: #e2321d; stroke-width: 1.5"/>
   </g>
   <g id="line2d_42">
    <path d="M 54.691875 390.881216 
L 63.811511 388.451859 
L 72.931148 386.022502 
L 82.050784 383.593144 
L 91.17042 381.163787 
L 100.290057 378.73443 
L 109.409693 376.305072 
L 118.52933 373.875715 
L 127.648966 371.446357 
L 136.768602 369.017 
L 145.888239 366.587643 
L 155.007875 364.158285 
L 164.127511 361.728928 
L 173.247148 359.299571 
L 182.366784 356.870213 
L 191.48642 354.440856 
L 200.606057 352.011499 
L 209.725693 349.582141 
L 218.84533 347.152784 
L 227.964966 344.723426 
L 237.084602 342.294069 
L 246.204239 339.864712 
L 255.323875 337.435354 
L 264.443511 335.005997 
L 273.563148 332.57664 
L 282.682784 330.147282 
L 291.80242 327.717925 
L 300.922057 325.288567 
L 310.041693 322.85921 
L 319.16133 320.429853 
L 328.280966 318.000495 
L 337.400602 315.571138 
L 346.520239 313.141781 
L 355.639875 310.712423 
L 364.759511 308.283066 
L 373.879148 305.853709 
L 382.998784 303.424351 
L 392.11842 300.994994 
L 401.238057 298.565636 
L 410.357693 296.136279 
L 419.47733 293.706922 
L 428.596966 291.277564 
L 437.716602 288.848207 
L 446.836239 286.41885 
L 455.955875 283.989492 
L 465.075511 281.560135 
L 474.195148 279.130778 
L 483.314784 276.70142 
L 492.43442 274.272063 
L 501.554057 271.842705 
L 510.673693 269.413348 
L 519.79333 266.983991 
L 528.912966 264.554633 
L 538.032602 262.125276 
L 547.152239 259.695919 
L 556.271875 257.266561 
L 565.391511 254.837204 
L 574.511148 252.407847 
L 583.630784 249.978489 
L 592.75042 247.549132 
L 601.870057 245.119774 
L 610.989693 242.690417 
L 620.10933 240.26106 
L 629.228966 237.831702 
L 638.348602 235.402345 
L 647.468239 232.972988 
L 656.587875 230.54363 
L 665.707511 228.114273 
L 674.827148 225.684915 
L 683.946784 223.255558 
L 693.06642 220.826201 
L 702.186057 218.396843 
L 711.305693 215.967486 
L 720.42533 213.538129 
L 729.544966 211.108771 
L 738.664602 208.679414 
L 747.784239 206.250057 
L 756.903875 203.820699 
L 766.023511 201.391342 
L 775.143148 198.961984 
L 784.262784 196.532627 
L 793.38242 194.10327 
L 802.502057 191.673912 
L 811.621693 189.244555 
L 820.74133 186.815198 
L 829.860966 184.38584 
L 838.980602 181.956483 
L 848.100239 179.527126 
L 857.219875 177.097768 
L 866.339511 174.668411 
L 875.459148 172.239053 
L 884.578784 169.809696 
L 893.69842 167.380339 
L 902.818057 164.950981 
L 911.937693 162.521624 
L 921.05733 160.092267 
L 930.176966 157.662909 
L 939.296602 155.233552 
L 948.416239 152.804194 
L 957.535875 150.374837 
" clip-path="url(#p371321346c)" style="fill: none; stroke-dasharray: 1.5,2.475; stroke-dashoffset: 0; stroke: #48b585; stroke-width: 1.5"/>
   </g>
   <g id="line2d_43">
    <path d="M 54.691875 494.664898 
L 72.394699 490.161972 
L 90.097522 487.693453 
L 107.800346 484.638882 
L 125.503169 491.332102 
L 143.205993 489.552242 
L 160.908816 490.333644 
L 178.61164 490.292206 
L 196.314463 488.423551 
L 214.017287 480.354985 
L 267.125757 475.317312 
L 284.828581 440.669247 
L 302.531404 404.308412 
L 320.234228 444.21318 
L 337.937051 426.5093 
L 355.639875 428.464777 
L 373.342699 423.803992 
L 391.045522 436.057792 
L 408.748346 431.108915 
L 426.451169 435.335588 
L 444.153993 426.489567 
L 461.856816 430.872126 
L 479.55964 432.427037 
L 497.262463 434.591677 
L 514.965287 407.639236 
L 532.66811 430.161761 
L 550.370934 416.461578 
L 568.073757 430.925403 
L 585.776581 423.354094 
L 603.479404 416.55432 
L 621.182228 421.94323 
L 638.885051 410.997685 
L 656.587875 257.438424 
L 709.696346 330.110762 
L 727.399169 330.507383 
L 745.101993 297.435934 
L 762.804816 324.595565 
L 780.50764 274.680567 
L 798.210463 287.869682 
L 815.913287 284.50334 
L 833.61611 374.672369 
L 851.318934 295.502162 
L 869.021757 294.914138 
L 886.724581 350.498245 
L 904.427404 357.025712 
L 922.130228 396.831818 
L 939.833051 371.278402 
L 957.535875 370.208907 
" clip-path="url(#p371321346c)" style="fill: none; stroke: #4ac1fa; stroke-width: 1.5; stroke-linecap: square"/>
   </g>
   <g id="line2d_44">
    <path d="M 54.691875 401.380129 
L 72.394699 415.615059 
L 90.097522 408.84883 
L 107.800346 443.723817 
L 125.503169 434.244388 
L 143.205993 451.964054 
L 160.908816 449.975032 
L 178.61164 456.072333 
L 196.314463 446.411366 
L 214.017287 412.6039 
L 267.125757 266.059496 
L 284.828581 292.487056 
L 302.531404 265.280067 
L 320.234228 292.723845 
L 337.937051 290.23954 
L 355.639875 328.013212 
L 373.342699 288.771451 
L 391.045522 395.817574 
L 408.748346 487.924322 
L 426.451169 489.844281 
L 444.153993 489.268096 
L 461.856816 485.661019 
L 479.55964 497.435323 
L 497.262463 488.449203 
L 514.965287 484.936841 
L 532.66811 491.643873 
L 550.370934 502.476943 
L 568.073757 496.975559 
L 585.776581 494.303796 
L 603.479404 487.275127 
L 621.182228 479.749202 
L 638.885051 480.437861 
L 656.587875 479.469002 
L 709.696346 467.694698 
L 727.399169 469.141081 
L 745.101993 487.284993 
L 762.804816 478.371882 
L 780.50764 481.509329 
L 798.210463 486.270749 
L 815.913287 504.402822 
L 833.61611 508.94916 
L 851.318934 501.145008 
L 869.021757 484.851992 
L 886.724581 478.405427 
L 904.427404 484.534301 
L 922.130228 479.005291 
L 939.833051 471.404383 
L 957.535875 483.575308 
" clip-path="url(#p371321346c)" style="fill: none; stroke: #e9a942; stroke-width: 1.5; stroke-linecap: square"/>
   </g>
   <g id="line2d_45">
    <path d="M 54.691875 454.341805 
L 72.394699 450.752487 
L 90.097522 457.921256 
L 107.800346 448.800956 
L 125.503169 431.900182 
L 143.205993 453.8998 
L 160.908816 464.730896 
L 178.61164 467.712457 
L 196.314463 441.458542 
L 214.017287 416.824653 
L 267.125757 440.955366 
L 284.828581 443.672513 
L 302.531404 427.787957 
L 320.234228 419.843706 
L 337.937051 463.144414 
L 355.639875 460.336498 
L 373.342699 467.209282 
L 391.045522 475.771156 
L 408.748346 466.090456 
L 426.451169 465.19658 
L 444.153993 466.802795 
L 461.856816 417.239033 
L 479.55964 449.169951 
L 497.262463 463.896217 
L 514.965287 449.767842 
L 532.66811 453.280203 
L 550.370934 453.270337 
L 568.073757 448.791089 
L 585.776581 437.413406 
L 603.479404 442.482651 
L 621.182228 438.583536 
L 638.885051 428.247721 
L 656.587875 433.753052 
L 709.696346 406.153389 
L 727.399169 378.851684 
L 745.101993 417.844817 
L 762.804816 438.14745 
L 780.50764 433.839874 
L 798.210463 437.200297 
L 815.913287 452.392247 
L 833.61611 476.949179 
L 851.318934 462.641239 
L 869.021757 446.387687 
L 886.724581 445.738492 
L 904.427404 434.854118 
L 922.130228 444.278297 
L 939.833051 440.929714 
L 957.535875 442.03078 
" clip-path="url(#p371321346c)" style="fill: none; stroke: #9a5689; stroke-width: 1.5; stroke-linecap: square"/>
   </g>
   <g id="line2d_46">
    <path d="M 54.691875 525.624984 
L 72.394699 522.375063 
L 90.097522 529.620788 
L 107.800346 527.258824 
L 125.503169 526.931267 
L 143.205993 520.107814 
L 160.908816 522.90981 
L 178.61164 525.684181 
L 196.314463 509.08334 
L 214.017287 506.571409 
L 267.125757 501.845507 
L 284.828581 517.090735 
L 302.531404 516.011374 
L 320.234228 503.576036 
L 337.937051 510.413301 
L 355.639875 510.215978 
L 373.342699 500.416884 
L 391.045522 502.751223 
L 408.748346 497.464922 
L 426.451169 490.333644 
L 444.153993 498.905384 
L 461.856816 494.161723 
L 479.55964 524.079939 
L 497.262463 499.353309 
L 514.965287 497.042649 
L 532.66811 506.788465 
L 550.370934 492.158888 
L 568.073757 498.10425 
L 585.776581 499.155985 
L 603.479404 474.52999 
L 621.182228 494.005837 
L 638.885051 490.292206 
L 656.587875 485.84453 
L 709.696346 457.767344 
L 727.399169 443.250241 
L 745.101993 472.527155 
L 762.804816 459.308442 
L 780.50764 465.47678 
L 798.210463 469.385762 
L 815.913287 480.171474 
L 833.61611 505.075696 
L 851.318934 485.595902 
L 869.021757 483.531896 
L 886.724581 489.293748 
L 904.427404 461.104087 
L 922.130228 495.602186 
L 939.833051 487.103455 
L 957.535875 485.824798 
" clip-path="url(#p371321346c)" style="fill: none; stroke: #be503b; stroke-width: 1.5; stroke-linecap: square"/>
   </g>
   <g id="line2d_47">
    <path d="M 54.691875 417.959265 
L 72.394699 416.47539 
L 90.097522 414.963891 
L 107.800346 421.38283 
L 125.503169 417.984917 
L 143.205993 416.428033 
L 160.908816 422.556906 
L 178.61164 423.646133 
L 196.314463 413.030119 
L 214.017287 410.946381 
L 267.125757 403.240891 
L 284.828581 402.037217 
L 302.531404 413.290586 
L 320.234228 408.525219 
L 337.937051 406.447401 
L 355.639875 404.847106 
L 373.342699 384.745743 
L 391.045522 414.121319 
L 408.748346 393.055043 
L 426.451169 379.362753 
L 444.153993 385.929685 
L 461.856816 383.143474 
L 479.55964 395.124968 
L 497.262463 395.018414 
L 514.965287 359.904665 
L 532.66811 358.109019 
L 550.370934 370.745628 
L 568.073757 382.950097 
L 585.776581 375.19725 
L 603.479404 369.638642 
L 621.182228 376.760053 
L 638.885051 370.952818 
L 656.587875 358.503667 
L 709.696346 347.504845 
L 727.399169 311.236752 
L 745.101993 354.340137 
L 762.804816 339.146214 
L 780.50764 325.901848 
L 798.210463 326.205727 
L 815.913287 356.295615 
L 833.61611 426.231073 
L 851.318934 398.970807 
L 869.021757 358.318182 
L 886.724581 338.791031 
L 904.427404 341.573295 
L 922.130228 327.734985 
L 939.833051 333.526435 
L 957.535875 322.675606 
" clip-path="url(#p371321346c)" style="fill: none; stroke: #e2321d; stroke-width: 1.5; stroke-linecap: square"/>
   </g>
   <g id="line2d_48">
    <path d="M 54.691875 371.290241 
L 72.394699 353.069372 
L 90.097522 374.003442 
L 107.800346 346.528092 
L 125.503169 300.906858 
L 143.205993 355.508293 
L 160.908816 365.569828 
L 178.61164 360.050684 
L 196.314463 321.389056 
L 214.017287 362.473819 
L 267.125757 319.617089 
L 284.828581 370.90546 
L 302.531404 337.340702 
L 320.234228 314.650452 
L 337.937051 322.72691 
L 355.639875 326.185994 
L 373.342699 349.343901 
L 391.045522 389.02372 
L 408.748346 337.972138 
L 426.451169 308.537364 
L 444.153993 297.832555 
L 461.856816 284.128425 
L 479.55964 306.838408 
L 497.262463 286.707446 
L 514.965287 301.74351 
L 532.66811 312.10695 
L 550.370934 249.953937 
L 568.073757 249.022569 
L 585.776581 192.230841 
L 603.479404 227.176865 
L 621.182228 255.867728 
L 638.885051 287.269818 
L 656.587875 246.913179 
L 709.696346 128.264424 
L 727.399169 119.826863 
L 745.101993 48.21218 
L 762.804816 178.43397 
L 780.50764 266.387053 
L 798.210463 250.719553 
L 815.913287 214.95069 
L 833.61611 299.740675 
L 851.318934 215.720252 
L 869.021757 199.843589 
L 886.724581 173.85606 
L 904.427404 106.110894 
L 922.130228 84.19218 
L 939.833051 148.073748 
L 957.535875 123.769391 
" clip-path="url(#p371321346c)" style="fill: none; stroke: #48b585; stroke-width: 6; stroke-linecap: square"/>
   </g>
   <g id="patch_3">
    <path d="M 54.691875 567.74175 
L 54.691875 24.14175 
" style="fill: none; stroke: #ffffff; stroke-linejoin: miter; stroke-linecap: square"/>
   </g>
   <g id="patch_4">
    <path d="M 957.535875 567.74175 
L 957.535875 24.14175 
" style="fill: none; stroke: #ffffff; stroke-linejoin: miter; stroke-linecap: square"/>
   </g>
   <g id="patch_5">
    <path d="M 54.691875 567.74175 
L 957.535875 567.74175 
" style="fill: none; stroke: #ffffff; stroke-linejoin: miter; stroke-linecap: square"/>
   </g>
   <g id="patch_6">
    <path d="M 54.691875 24.14175 
L 957.535875 24.14175 
" style="fill: none; stroke: #ffffff; stroke-linejoin: miter; stroke-linecap: square"/>
   </g>
   <g id="text_21">
    <!-- Potentially Ephemeral Enterprise Linux 8 and 9 Instances by Distribution -->
    <g transform="translate(54.691875 18.14175)scale(0.144 -0.144)">
     <defs>
      <path id="DejaVuSans-50" d="M 1259 4147 
L 1259 2394 
L 2053 2394 
Q 2494 2394 2734 2622 
Q 2975 2850 2975 3272 
Q 2975 3691 2734 3919 
Q 2494 4147 2053 4147 
L 1259 4147 
z
M 628 4666 
L 2053 4666 
Q 2838 4666 3239 4311 
Q 3641 3956 3641 3272 
Q 3641 2581 3239 2228 
Q 2838 1875 2053 1875 
L 1259 1875 
L 1259 0 
L 628 0 
L 628 4666 
z
" transform="scale(0.015625)"/>
      <path id="DejaVuSans-6f" d="M 1959 3097 
Q 1497 3097 1228 2736 
Q 959 2375 959 1747 
Q 959 1119 1226 758 
Q 1494 397 1959 397 
Q 2419 397 2687 759 
Q 2956 1122 2956 1747 
Q 2956 2369 2687 2733 
Q 2419 3097 1959 3097 
z
M 1959 3584 
Q 2709 3584 3137 3096 
Q 3566 2609 3566 1747 
Q 3566 888 3137 398 
Q 2709 -91 1959 -91 
Q 1206 -91 779 398 
Q 353 888 353 1747 
Q 353 2609 779 3096 
Q 1206 3584 1959 3584 
z
" transform="scale(0.015625)"/>
      <path id="DejaVuSans-69" d="M 603 3500 
L 1178 3500 
L 1178 0 
L 603 0 
L 603 3500 
z
M 603 4863 
L 1178 4863 
L 1178 4134 
L 603 4134 
L 603 4863 
z
" transform="scale(0.015625)"/>
      <path id="DejaVuSans-6c" d="M 603 4863 
L 1178 4863 
L 1178 0 
L 603 0 
L 603 4863 
z
" transform="scale(0.015625)"/>
      <path id="DejaVuSans-79" d="M 2059 -325 
Q 1816 -950 1584 -1140 
Q 1353 -1331 966 -1331 
L 506 -1331 
L 506 -850 
L 844 -850 
Q 1081 -850 1212 -737 
Q 1344 -625 1503 -206 
L 1606 56 
L 191 3500 
L 800 3500 
L 1894 763 
L 2988 3500 
L 3597 3500 
L 2059 -325 
z
" transform="scale(0.015625)"/>
      <path id="DejaVuSans-20" transform="scale(0.015625)"/>
      <path id="DejaVuSans-45" d="M 628 4666 
L 3578 4666 
L 3578 4134 
L 1259 4134 
L 1259 2753 
L 3481 2753 
L 3481 2222 
L 1259 2222 
L 1259 531 
L 3634 531 
L 3634 0 
L 628 0 
L 628 4666 
z
" transform="scale(0.015625)"/>
      <path id="DejaVuSans-70" d="M 1159 525 
L 1159 -1331 
L 581 -1331 
L 581 3500 
L 1159 3500 
L 1159 2969 
Q 1341 3281 1617 3432 
Q 1894 3584 2278 3584 
Q 2916 3584 3314 3078 
Q 3713 2572 3713 1747 
Q 3713 922 3314 415 
Q 2916 -91 2278 -91 
Q 1894 -91 1617 61 
Q 1341 213 1159 525 
z
M 3116 1747 
Q 3116 2381 2855 2742 
Q 2594 3103 2138 3103 
Q 1681 3103 1420 2742 
Q 1159 2381 1159 1747 
Q 1159 1113 1420 752 
Q 1681 391 2138 391 
Q 2594 391 2855 752 
Q 3116 1113 3116 1747 
z
" transform="scale(0.015625)"/>
      <path id="DejaVuSans-68" d="M 3513 2113 
L 3513 0 
L 2938 0 
L 2938 2094 
Q 2938 2591 2744 2837 
Q 2550 3084 2163 3084 
Q 1697 3084 1428 2787 
Q 1159 2491 1159 1978 
L 1159 0 
L 581 0 
L 581 4863 
L 1159 4863 
L 1159 2956 
Q 1366 3272 1645 3428 
Q 1925 3584 2291 3584 
Q 2894 3584 3203 3211 
Q 3513 2838 3513 2113 
z
" transform="scale(0.015625)"/>
      <path id="DejaVuSans-6d" d="M 3328 2828 
Q 3544 3216 3844 3400 
Q 4144 3584 4550 3584 
Q 5097 3584 5394 3201 
Q 5691 2819 5691 2113 
L 5691 0 
L 5113 0 
L 5113 2094 
Q 5113 2597 4934 2840 
Q 4756 3084 4391 3084 
Q 3944 3084 3684 2787 
Q 3425 2491 3425 1978 
L 3425 0 
L 2847 0 
L 2847 2094 
Q 2847 2600 2669 2842 
Q 2491 3084 2119 3084 
Q 1678 3084 1418 2786 
Q 1159 2488 1159 1978 
L 1159 0 
L 581 0 
L 581 3500 
L 1159 3500 
L 1159 2956 
Q 1356 3278 1631 3431 
Q 1906 3584 2284 3584 
Q 2666 3584 2933 3390 
Q 3200 3197 3328 2828 
z
" transform="scale(0.015625)"/>
      <path id="DejaVuSans-72" d="M 2631 2963 
Q 2534 3019 2420 3045 
Q 2306 3072 2169 3072 
Q 1681 3072 1420 2755 
Q 1159 2438 1159 1844 
L 1159 0 
L 581 0 
L 581 3500 
L 1159 3500 
L 1159 2956 
Q 1341 3275 1631 3429 
Q 1922 3584 2338 3584 
Q 2397 3584 2469 3576 
Q 2541 3569 2628 3553 
L 2631 2963 
z
" transform="scale(0.015625)"/>
      <path id="DejaVuSans-4c" d="M 628 4666 
L 1259 4666 
L 1259 531 
L 3531 531 
L 3531 0 
L 628 0 
L 628 4666 
z
" transform="scale(0.015625)"/>
      <path id="DejaVuSans-75" d="M 544 1381 
L 544 3500 
L 1119 3500 
L 1119 1403 
Q 1119 906 1312 657 
Q 1506 409 1894 409 
Q 2359 409 2629 706 
Q 2900 1003 2900 1516 
L 2900 3500 
L 3475 3500 
L 3475 0 
L 2900 0 
L 2900 538 
Q 2691 219 2414 64 
Q 2138 -91 1772 -91 
Q 1169 -91 856 284 
Q 544 659 544 1381 
z
M 1991 3584 
L 1991 3584 
z
" transform="scale(0.015625)"/>
      <path id="DejaVuSans-78" d="M 3513 3500 
L 2247 1797 
L 3578 0 
L 2900 0 
L 1881 1375 
L 863 0 
L 184 0 
L 1544 1831 
L 300 3500 
L 978 3500 
L 1906 2253 
L 2834 3500 
L 3513 3500 
z
" transform="scale(0.015625)"/>
      <path id="DejaVuSans-64" d="M 2906 2969 
L 2906 4863 
L 3481 4863 
L 3481 0 
L 2906 0 
L 2906 525 
Q 2725 213 2448 61 
Q 2172 -91 1784 -91 
Q 1150 -91 751 415 
Q 353 922 353 1747 
Q 353 2572 751 3078 
Q 1150 3584 1784 3584 
Q 2172 3584 2448 3432 
Q 2725 3281 2906 2969 
z
M 947 1747 
Q 947 1113 1208 752 
Q 1469 391 1925 391 
Q 2381 391 2643 752 
Q 2906 1113 2906 1747 
Q 2906 2381 2643 2742 
Q 2381 3103 1925 3103 
Q 1469 3103 1208 2742 
Q 947 2381 947 1747 
z
" transform="scale(0.015625)"/>
      <path id="DejaVuSans-62" d="M 3116 1747 
Q 3116 2381 2855 2742 
Q 2594 3103 2138 3103 
Q 1681 3103 1420 2742 
Q 1159 2381 1159 1747 
Q 1159 1113 1420 752 
Q 1681 391 2138 391 
Q 2594 391 2855 752 
Q 3116 1113 3116 1747 
z
M 1159 2969 
Q 1341 3281 1617 3432 
Q 1894 3584 2278 3584 
Q 2916 3584 3314 3078 
Q 3713 2572 3713 1747 
Q 3713 922 3314 415 
Q 2916 -91 2278 -91 
Q 1894 -91 1617 61 
Q 1341 213 1159 525 
L 1159 0 
L 581 0 
L 581 4863 
L 1159 4863 
L 1159 2969 
z
" transform="scale(0.015625)"/>
     </defs>
     <use xlink:href="#DejaVuSans-50"/>
     <use xlink:href="#DejaVuSans-6f" x="56.677734"/>
     <use xlink:href="#DejaVuSans-74" x="117.859375"/>
     <use xlink:href="#DejaVuSans-65" x="157.068359"/>
     <use xlink:href="#DejaVuSans-6e" x="218.591797"/>
     <use xlink:href="#DejaVuSans-74" x="281.970703"/>
     <use xlink:href="#DejaVuSans-69" x="321.179688"/>
     <use xlink:href="#DejaVuSans-61" x="348.962891"/>
     <use xlink:href="#DejaVuSans-6c" x="410.242188"/>
     <use xlink:href="#DejaVuSans-6c" x="438.025391"/>
     <use xlink:href="#DejaVuSans-79" x="465.808594"/>
     <use xlink:href="#DejaVuSans-20" x="524.988281"/>
     <use xlink:href="#DejaVuSans-45" x="556.775391"/>
     <use xlink:href="#DejaVuSans-70" x="619.958984"/>
     <use xlink:href="#DejaVuSans-68" x="683.435547"/>
     <use xlink:href="#DejaVuSans-65" x="746.814453"/>
     <use xlink:href="#DejaVuSans-6d" x="808.337891"/>
     <use xlink:href="#DejaVuSans-65" x="905.75"/>
     <use xlink:href="#DejaVuSans-72" x="967.273438"/>
     <use xlink:href="#DejaVuSans-61" x="1008.386719"/>
     <use xlink:href="#DejaVuSans-6c" x="1069.666016"/>
     <use xlink:href="#DejaVuSans-20" x="1097.449219"/>
     <use xlink:href="#DejaVuSans-45" x="1129.236328"/>
     <use xlink:href="#DejaVuSans-6e" x="1192.419922"/>
     <use xlink:href="#DejaVuSans-74" x="1255.798828"/>
     <use xlink:href="#DejaVuSans-65" x="1295.007812"/>
     <use xlink:href="#DejaVuSans-72" x="1356.53125"/>
     <use xlink:href="#DejaVuSans-70" x="1397.644531"/>
     <use xlink:href="#DejaVuSans-72" x="1461.121094"/>
     <use xlink:href="#DejaVuSans-69" x="1502.234375"/>
     <use xlink:href="#DejaVuSans-73" x="1530.017578"/>
     <use xlink:href="#DejaVuSans-65" x="1582.117188"/>
     <use xlink:href="#DejaVuSans-20" x="1643.640625"/>
     <use xlink:href="#DejaVuSans-4c" x="1675.427734"/>
     <use xlink:href="#DejaVuSans-69" x="1731.140625"/>
     <use xlink:href="#DejaVuSans-6e" x="1758.923828"/>
     <use xlink:href="#DejaVuSans-75" x="1822.302734"/>
     <use xlink:href="#DejaVuSans-78" x="1885.681641"/>
     <use xlink:href="#DejaVuSans-20" x="1944.861328"/>
     <use xlink:href="#DejaVuSans-38" x="1976.648438"/>
     <use xlink:href="#DejaVuSans-20" x="2040.271484"/>
     <use xlink:href="#DejaVuSans-61" x="2072.058594"/>
     <use xlink:href="#DejaVuSans-6e" x="2133.337891"/>
     <use xlink:href="#DejaVuSans-64" x="2196.716797"/>
     <use xlink:href="#DejaVuSans-20" x="2260.193359"/>
     <use xlink:href="#DejaVuSans-39" x="2291.980469"/>
     <use xlink:href="#DejaVuSans-20" x="2355.603516"/>
     <use xlink:href="#DejaVuSans-49" x="2387.390625"/>
     <use xlink:href="#DejaVuSans-6e" x="2416.882812"/>
     <use xlink:href="#DejaVuSans-73" x="2480.261719"/>
     <use xlink:href="#DejaVuSans-74" x="2532.361328"/>
     <use xlink:href="#DejaVuSans-61" x="2571.570312"/>
     <use xlink:href="#DejaVuSans-6e" x="2632.849609"/>
     <use xlink:href="#DejaVuSans-63" x="2696.228516"/>
     <use xlink:href="#DejaVuSans-65" x="2751.208984"/>
     <use xlink:href="#DejaVuSans-73" x="2812.732422"/>
     <use xlink:href="#DejaVuSans-20" x="2864.832031"/>
     <use xlink:href="#DejaVuSans-62" x="2896.619141"/>
     <use xlink:href="#DejaVuSans-79" x="2960.095703"/>
     <use xlink:href="#DejaVuSans-20" x="3019.275391"/>
     <use xlink:href="#DejaVuSans-44" x="3051.0625"/>
     <use xlink:href="#DejaVuSans-69" x="3128.064453"/>
     <use xlink:href="#DejaVuSans-73" x="3155.847656"/>
     <use xlink:href="#DejaVuSans-74" x="3207.947266"/>
     <use xlink:href="#DejaVuSans-72" x="3247.15625"/>
     <use xlink:href="#DejaVuSans-69" x="3288.269531"/>
     <use xlink:href="#DejaVuSans-62" x="3316.052734"/>
     <use xlink:href="#DejaVuSans-75" x="3379.529297"/>
     <use xlink:href="#DejaVuSans-74" x="3442.908203"/>
     <use xlink:href="#DejaVuSans-69" x="3482.117188"/>
     <use xlink:href="#DejaVuSans-6f" x="3509.900391"/>
     <use xlink:href="#DejaVuSans-6e" x="3571.082031"/>
    </g>
   </g>
   <g id="text_22">
    <!-- 2024-02-22 11:55 UTC -->
    <g transform="translate(794.653875 18.14175)scale(0.144 -0.144)">
     <defs>
      <path id="DejaVuSans-3a" d="M 750 794 
L 1409 794 
L 1409 0 
L 750 0 
L 750 794 
z
M 750 3309 
L 1409 3309 
L 1409 2516 
L 750 2516 
L 750 3309 
z
" transform="scale(0.015625)"/>
      <path id="DejaVuSans-55" d="M 556 4666 
L 1191 4666 
L 1191 1831 
Q 1191 1081 1462 751 
Q 1734 422 2344 422 
Q 2950 422 3222 751 
Q 3494 1081 3494 1831 
L 3494 4666 
L 4128 4666 
L 4128 1753 
Q 4128 841 3676 375 
Q 3225 -91 2344 -91 
Q 1459 -91 1007 375 
Q 556 841 556 1753 
L 556 4666 
z
" transform="scale(0.015625)"/>
      <path id="DejaVuSans-54" d="M -19 4666 
L 3928 4666 
L 3928 4134 
L 2272 4134 
L 2272 0 
L 1638 0 
L 1638 4134 
L -19 4134 
L -19 4666 
z
" transform="scale(0.015625)"/>
      <path id="DejaVuSans-43" d="M 4122 4306 
L 4122 3641 
Q 3803 3938 3442 4084 
Q 3081 4231 2675 4231 
Q 1875 4231 1450 3742 
Q 1025 3253 1025 2328 
Q 1025 1406 1450 917 
Q 1875 428 2675 428 
Q 3081 428 3442 575 
Q 3803 722 4122 1019 
L 4122 359 
Q 3791 134 3420 21 
Q 3050 -91 2638 -91 
Q 1578 -91 968 557 
Q 359 1206 359 2328 
Q 359 3453 968 4101 
Q 1578 4750 2638 4750 
Q 3056 4750 3426 4639 
Q 3797 4528 4122 4306 
z
" transform="scale(0.015625)"/>
     </defs>
     <use xlink:href="#DejaVuSans-32"/>
     <use xlink:href="#DejaVuSans-30" x="63.623047"/>
     <use xlink:href="#DejaVuSans-32" x="127.246094"/>
     <use xlink:href="#DejaVuSans-34" x="190.869141"/>
     <use xlink:href="#DejaVuSans-2d" x="254.492188"/>
     <use xlink:href="#DejaVuSans-30" x="290.576172"/>
     <use xlink:href="#DejaVuSans-32" x="354.199219"/>
     <use xlink:href="#DejaVuSans-2d" x="417.822266"/>
     <use xlink:href="#DejaVuSans-32" x="453.90625"/>
     <use xlink:href="#DejaVuSans-32" x="517.529297"/>
     <use xlink:href="#DejaVuSans-20" x="581.152344"/>
     <use xlink:href="#DejaVuSans-31" x="612.939453"/>
     <use xlink:href="#DejaVuSans-31" x="676.5625"/>
     <use xlink:href="#DejaVuSans-3a" x="740.185547"/>
     <use xlink:href="#DejaVuSans-35" x="773.876953"/>
     <use xlink:href="#DejaVuSans-35" x="837.5"/>
     <use xlink:href="#DejaVuSans-20" x="901.123047"/>
     <use xlink:href="#DejaVuSans-55" x="932.910156"/>
     <use xlink:href="#DejaVuSans-54" x="1006.103516"/>
     <use xlink:href="#DejaVuSans-43" x="1061.3125"/>
    </g>
   </g>
   <g id="legend_1">
    <g id="patch_7">
     <path d="M 61.691875 134.888625 
L 170.660625 134.888625 
Q 172.660625 134.888625 172.660625 132.888625 
L 172.660625 31.14175 
Q 172.660625 29.14175 170.660625 29.14175 
L 61.691875 29.14175 
Q 59.691875 29.14175 59.691875 31.14175 
L 59.691875 132.888625 
Q 59.691875 134.888625 61.691875 134.888625 
z
" style="fill: #e5e5e5; opacity: 0.8; stroke: #cccccc; stroke-width: 0.5; stroke-linejoin: miter"/>
    </g>
    <g id="text_23">
     <!-- Distribution -->
     <g transform="translate(87.0075 40.740187)scale(0.1 -0.1)">
      <use xlink:href="#DejaVuSans-44"/>
      <use xlink:href="#DejaVuSans-69" x="77.001953"/>
      <use xlink:href="#DejaVuSans-73" x="104.785156"/>
      <use xlink:href="#DejaVuSans-74" x="156.884766"/>
      <use xlink:href="#DejaVuSans-72" x="196.09375"/>
      <use xlink:href="#DejaVuSans-69" x="237.207031"/>
      <use xlink:href="#DejaVuSans-62" x="264.990234"/>
      <use xlink:href="#DejaVuSans-75" x="328.466797"/>
      <use xlink:href="#DejaVuSans-74" x="391.845703"/>
      <use xlink:href="#DejaVuSans-69" x="431.054688"/>
      <use xlink:href="#DejaVuSans-6f" x="458.837891"/>
      <use xlink:href="#DejaVuSans-6e" x="520.019531"/>
     </g>
    </g>
    <g id="line2d_49">
     <path d="M 63.691875 51.918312 
L 73.691875 51.918312 
L 83.691875 51.918312 
" style="fill: none; stroke: #4ac1fa; stroke-width: 1.5; stroke-linecap: square"/>
    </g>
    <g id="text_24">
     <!-- AlmaLinux -->
     <g transform="translate(91.691875 55.418312)scale(0.1 -0.1)">
      <defs>
       <path id="DejaVuSans-41" d="M 2188 4044 
L 1331 1722 
L 3047 1722 
L 2188 4044 
z
M 1831 4666 
L 2547 4666 
L 4325 0 
L 3669 0 
L 3244 1197 
L 1141 1197 
L 716 0 
L 50 0 
L 1831 4666 
z
" transform="scale(0.015625)"/>
      </defs>
      <use xlink:href="#DejaVuSans-41"/>
      <use xlink:href="#DejaVuSans-6c" x="68.408203"/>
      <use xlink:href="#DejaVuSans-6d" x="96.191406"/>
      <use xlink:href="#DejaVuSans-61" x="193.603516"/>
      <use xlink:href="#DejaVuSans-4c" x="254.882812"/>
      <use xlink:href="#DejaVuSans-69" x="310.595703"/>
      <use xlink:href="#DejaVuSans-6e" x="338.378906"/>
      <use xlink:href="#DejaVuSans-75" x="401.757812"/>
      <use xlink:href="#DejaVuSans-78" x="465.136719"/>
     </g>
    </g>
    <g id="line2d_50">
     <path d="M 63.691875 66.596437 
L 73.691875 66.596437 
L 83.691875 66.596437 
" style="fill: none; stroke: #e9a942; stroke-width: 1.5; stroke-linecap: square"/>
    </g>
    <g id="text_25">
     <!-- CentOS Legacy -->
     <g transform="translate(91.691875 70.096437)scale(0.1 -0.1)">
      <defs>
       <path id="DejaVuSans-4f" d="M 2522 4238 
Q 1834 4238 1429 3725 
Q 1025 3213 1025 2328 
Q 1025 1447 1429 934 
Q 1834 422 2522 422 
Q 3209 422 3611 934 
Q 4013 1447 4013 2328 
Q 4013 3213 3611 3725 
Q 3209 4238 2522 4238 
z
M 2522 4750 
Q 3503 4750 4090 4092 
Q 4678 3434 4678 2328 
Q 4678 1225 4090 567 
Q 3503 -91 2522 -91 
Q 1538 -91 948 565 
Q 359 1222 359 2328 
Q 359 3434 948 4092 
Q 1538 4750 2522 4750 
z
" transform="scale(0.015625)"/>
       <path id="DejaVuSans-53" d="M 3425 4513 
L 3425 3897 
Q 3066 4069 2747 4153 
Q 2428 4238 2131 4238 
Q 1616 4238 1336 4038 
Q 1056 3838 1056 3469 
Q 1056 3159 1242 3001 
Q 1428 2844 1947 2747 
L 2328 2669 
Q 3034 2534 3370 2195 
Q 3706 1856 3706 1288 
Q 3706 609 3251 259 
Q 2797 -91 1919 -91 
Q 1588 -91 1214 -16 
Q 841 59 441 206 
L 441 856 
Q 825 641 1194 531 
Q 1563 422 1919 422 
Q 2459 422 2753 634 
Q 3047 847 3047 1241 
Q 3047 1584 2836 1778 
Q 2625 1972 2144 2069 
L 1759 2144 
Q 1053 2284 737 2584 
Q 422 2884 422 3419 
Q 422 4038 858 4394 
Q 1294 4750 2059 4750 
Q 2388 4750 2728 4690 
Q 3069 4631 3425 4513 
z
" transform="scale(0.015625)"/>
       <path id="DejaVuSans-67" d="M 2906 1791 
Q 2906 2416 2648 2759 
Q 2391 3103 1925 3103 
Q 1463 3103 1205 2759 
Q 947 2416 947 1791 
Q 947 1169 1205 825 
Q 1463 481 1925 481 
Q 2391 481 2648 825 
Q 2906 1169 2906 1791 
z
M 3481 434 
Q 3481 -459 3084 -895 
Q 2688 -1331 1869 -1331 
Q 1566 -1331 1297 -1286 
Q 1028 -1241 775 -1147 
L 775 -588 
Q 1028 -725 1275 -790 
Q 1522 -856 1778 -856 
Q 2344 -856 2625 -561 
Q 2906 -266 2906 331 
L 2906 616 
Q 2728 306 2450 153 
Q 2172 0 1784 0 
Q 1141 0 747 490 
Q 353 981 353 1791 
Q 353 2603 747 3093 
Q 1141 3584 1784 3584 
Q 2172 3584 2450 3431 
Q 2728 3278 2906 2969 
L 2906 3500 
L 3481 3500 
L 3481 434 
z
" transform="scale(0.015625)"/>
      </defs>
      <use xlink:href="#DejaVuSans-43"/>
      <use xlink:href="#DejaVuSans-65" x="69.824219"/>
      <use xlink:href="#DejaVuSans-6e" x="131.347656"/>
      <use xlink:href="#DejaVuSans-74" x="194.726562"/>
      <use xlink:href="#DejaVuSans-4f" x="233.935547"/>
      <use xlink:href="#DejaVuSans-53" x="312.646484"/>
      <use xlink:href="#DejaVuSans-20" x="376.123047"/>
      <use xlink:href="#DejaVuSans-4c" x="407.910156"/>
      <use xlink:href="#DejaVuSans-65" x="461.873047"/>
      <use xlink:href="#DejaVuSans-67" x="523.396484"/>
      <use xlink:href="#DejaVuSans-61" x="586.873047"/>
      <use xlink:href="#DejaVuSans-63" x="648.152344"/>
      <use xlink:href="#DejaVuSans-79" x="703.132812"/>
     </g>
    </g>
    <g id="line2d_51">
     <path d="M 63.691875 81.274563 
L 73.691875 81.274563 
L 83.691875 81.274563 
" style="fill: none; stroke: #9a5689; stroke-width: 1.5; stroke-linecap: square"/>
    </g>
    <g id="text_26">
     <!-- CentOS Stream -->
     <g transform="translate(91.691875 84.774563)scale(0.1 -0.1)">
      <use xlink:href="#DejaVuSans-43"/>
      <use xlink:href="#DejaVuSans-65" x="69.824219"/>
      <use xlink:href="#DejaVuSans-6e" x="131.347656"/>
      <use xlink:href="#DejaVuSans-74" x="194.726562"/>
      <use xlink:href="#DejaVuSans-4f" x="233.935547"/>
      <use xlink:href="#DejaVuSans-53" x="312.646484"/>
      <use xlink:href="#DejaVuSans-20" x="376.123047"/>
      <use xlink:href="#DejaVuSans-53" x="407.910156"/>
      <use xlink:href="#DejaVuSans-74" x="471.386719"/>
      <use xlink:href="#DejaVuSans-72" x="510.595703"/>
      <use xlink:href="#DejaVuSans-65" x="549.458984"/>
      <use xlink:href="#DejaVuSans-61" x="610.982422"/>
      <use xlink:href="#DejaVuSans-6d" x="672.261719"/>
     </g>
    </g>
    <g id="line2d_52">
     <path d="M 63.691875 95.952687 
L 73.691875 95.952687 
L 83.691875 95.952687 
" style="fill: none; stroke: #be503b; stroke-width: 1.5; stroke-linecap: square"/>
    </g>
    <g id="text_27">
     <!-- Oracle -->
     <g transform="translate(91.691875 99.452687)scale(0.1 -0.1)">
      <use xlink:href="#DejaVuSans-4f"/>
      <use xlink:href="#DejaVuSans-72" x="78.710938"/>
      <use xlink:href="#DejaVuSans-61" x="119.824219"/>
      <use xlink:href="#DejaVuSans-63" x="181.103516"/>
      <use xlink:href="#DejaVuSans-6c" x="236.083984"/>
      <use xlink:href="#DejaVuSans-65" x="263.867188"/>
     </g>
    </g>
    <g id="line2d_53">
     <path d="M 63.691875 110.630812 
L 73.691875 110.630812 
L 83.691875 110.630812 
" style="fill: none; stroke: #e2321d; stroke-width: 1.5; stroke-linecap: square"/>
    </g>
    <g id="text_28">
     <!-- RHEL -->
     <g transform="translate(91.691875 114.130812)scale(0.1 -0.1)">
      <defs>
       <path id="DejaVuSans-52" d="M 2841 2188 
Q 3044 2119 3236 1894 
Q 3428 1669 3622 1275 
L 4263 0 
L 3584 0 
L 2988 1197 
Q 2756 1666 2539 1819 
Q 2322 1972 1947 1972 
L 1259 1972 
L 1259 0 
L 628 0 
L 628 4666 
L 2053 4666 
Q 2853 4666 3247 4331 
Q 3641 3997 3641 3322 
Q 3641 2881 3436 2590 
Q 3231 2300 2841 2188 
z
M 1259 4147 
L 1259 2491 
L 2053 2491 
Q 2509 2491 2742 2702 
Q 2975 2913 2975 3322 
Q 2975 3731 2742 3939 
Q 2509 4147 2053 4147 
L 1259 4147 
z
" transform="scale(0.015625)"/>
       <path id="DejaVuSans-48" d="M 628 4666 
L 1259 4666 
L 1259 2753 
L 3553 2753 
L 3553 4666 
L 4184 4666 
L 4184 0 
L 3553 0 
L 3553 2222 
L 1259 2222 
L 1259 0 
L 628 0 
L 628 4666 
z
" transform="scale(0.015625)"/>
      </defs>
      <use xlink:href="#DejaVuSans-52"/>
      <use xlink:href="#DejaVuSans-48" x="69.482422"/>
      <use xlink:href="#DejaVuSans-45" x="144.677734"/>
      <use xlink:href="#DejaVuSans-4c" x="207.861328"/>
     </g>
    </g>
    <g id="line2d_54">
     <path d="M 63.691875 125.308937 
L 73.691875 125.308937 
L 83.691875 125.308937 
" style="fill: none; stroke: #48b585; stroke-width: 6; stroke-linecap: square"/>
    </g>
    <g id="text_29">
     <!-- Rocky Linux -->
     <g transform="translate(91.691875 128.808937)scale(0.1 -0.1)">
      <use xlink:href="#DejaVuSans-52"/>
      <use xlink:href="#DejaVuSans-6f" x="64.982422"/>
      <use xlink:href="#DejaVuSans-63" x="126.164062"/>
      <use xlink:href="#DejaVuSans-6b" x="181.144531"/>
      <use xlink:href="#DejaVuSans-79" x="235.429688"/>
      <use xlink:href="#DejaVuSans-20" x="294.609375"/>
      <use xlink:href="#DejaVuSans-4c" x="326.396484"/>
      <use xlink:href="#DejaVuSans-69" x="382.109375"/>
      <use xlink:href="#DejaVuSans-6e" x="409.892578"/>
      <use xlink:href="#DejaVuSans-75" x="473.271484"/>
      <use xlink:href="#DejaVuSans-78" x="536.650391"/>
     </g>
    </g>
   </g>
  </g>
 </g>
 <defs>
  <clipPath id="p371321346c">
   <rect x="54.691875" y="24.14175" width="902.844" height="543.6"/>
  </clipPath>
 </defs>
</svg>
