<?xml version="1.0" encoding="utf-8" standalone="no"?>
<!DOCTYPE svg PUBLIC "-//W3C//DTD SVG 1.1//EN"
  "http://www.w3.org/Graphics/SVG/1.1/DTD/svg11.dtd">
<svg xmlns:xlink="http://www.w3.org/1999/xlink" width="975.158455pt" height="633.943878pt" viewBox="0 0 975.158455 633.943878" xmlns="http://www.w3.org/2000/svg" version="1.1">
 <metadata>
  <rdf:RDF xmlns:dc="http://purl.org/dc/elements/1.1/" xmlns:cc="http://creativecommons.org/ns#" xmlns:rdf="http://www.w3.org/1999/02/22-rdf-syntax-ns#">
   <cc:Work>
    <dc:type rdf:resource="http://purl.org/dc/dcmitype/StillImage"/>
    <dc:date>2023-11-02T11:54:53.469523</dc:date>
    <dc:format>image/svg+xml</dc:format>
    <dc:creator>
     <cc:Agent>
      <dc:title>Matplotlib v3.5.1, https://matplotlib.org/</dc:title>
     </cc:Agent>
    </dc:creator>
   </cc:Work>
  </rdf:RDF>
 </metadata>
 <defs>
  <style type="text/css">*{stroke-linejoin: round; stroke-linecap: butt}</style>
 </defs>
 <g id="figure_1">
  <g id="patch_1">
   <path d="M 0 633.943878 
L 975.158455 633.943878 
L 975.158455 0 
L 0 0 
z
" style="fill: #ffffff"/>
  </g>
  <g id="axes_1">
   <g id="patch_2">
    <path d="M 52.079375 567.74175 
L 954.923375 567.74175 
L 954.923375 24.14175 
L 52.079375 24.14175 
z
" style="fill: #e5e5e5"/>
   </g>
   <g id="matplotlib.axis_1">
    <g id="xtick_1">
     <g id="line2d_1">
      <path d="M 88.193135 567.74175 
L 88.193135 24.14175 
" clip-path="url(#p1764d6be61)" style="fill: none; stroke: #ffffff; stroke-width: 0.8; stroke-linecap: square"/>
     </g>
     <g id="line2d_2">
      <defs>
       <path id="m270997df5a" d="M 0 0 
L 0 3.5 
" style="stroke: #555555; stroke-width: 0.8"/>
      </defs>
      <g>
       <use xlink:href="#m270997df5a" x="88.193135" y="567.74175" style="fill: #555555; stroke: #555555; stroke-width: 0.8"/>
      </g>
     </g>
     <g id="text_1">
      <!-- 2022-11 -->
      <g style="fill: #555555" transform="translate(75.371853 609.659567)rotate(-45)scale(0.1 -0.1)">
       <defs>
        <path id="DejaVuSans-32" d="M 1228 531 
L 3431 531 
L 3431 0 
L 469 0 
L 469 531 
Q 828 903 1448 1529 
Q 2069 2156 2228 2338 
Q 2531 2678 2651 2914 
Q 2772 3150 2772 3378 
Q 2772 3750 2511 3984 
Q 2250 4219 1831 4219 
Q 1534 4219 1204 4116 
Q 875 4013 500 3803 
L 500 4441 
Q 881 4594 1212 4672 
Q 1544 4750 1819 4750 
Q 2544 4750 2975 4387 
Q 3406 4025 3406 3419 
Q 3406 3131 3298 2873 
Q 3191 2616 2906 2266 
Q 2828 2175 2409 1742 
Q 1991 1309 1228 531 
z
" transform="scale(0.015625)"/>
        <path id="DejaVuSans-30" d="M 2034 4250 
Q 1547 4250 1301 3770 
Q 1056 3291 1056 2328 
Q 1056 1369 1301 889 
Q 1547 409 2034 409 
Q 2525 409 2770 889 
Q 3016 1369 3016 2328 
Q 3016 3291 2770 3770 
Q 2525 4250 2034 4250 
z
M 2034 4750 
Q 2819 4750 3233 4129 
Q 3647 3509 3647 2328 
Q 3647 1150 3233 529 
Q 2819 -91 2034 -91 
Q 1250 -91 836 529 
Q 422 1150 422 2328 
Q 422 3509 836 4129 
Q 1250 4750 2034 4750 
z
" transform="scale(0.015625)"/>
        <path id="DejaVuSans-2d" d="M 313 2009 
L 1997 2009 
L 1997 1497 
L 313 1497 
L 313 2009 
z
" transform="scale(0.015625)"/>
        <path id="DejaVuSans-31" d="M 794 531 
L 1825 531 
L 1825 4091 
L 703 3866 
L 703 4441 
L 1819 4666 
L 2450 4666 
L 2450 531 
L 3481 531 
L 3481 0 
L 794 0 
L 794 531 
z
" transform="scale(0.015625)"/>
       </defs>
       <use xlink:href="#DejaVuSans-32"/>
       <use xlink:href="#DejaVuSans-30" x="63.623047"/>
       <use xlink:href="#DejaVuSans-32" x="127.246094"/>
       <use xlink:href="#DejaVuSans-32" x="190.869141"/>
       <use xlink:href="#DejaVuSans-2d" x="254.492188"/>
       <use xlink:href="#DejaVuSans-31" x="290.576172"/>
       <use xlink:href="#DejaVuSans-31" x="354.199219"/>
      </g>
     </g>
    </g>
    <g id="xtick_2">
     <g id="line2d_3">
      <path d="M 165.579764 567.74175 
L 165.579764 24.14175 
" clip-path="url(#p1764d6be61)" style="fill: none; stroke: #ffffff; stroke-width: 0.8; stroke-linecap: square"/>
     </g>
     <g id="line2d_4">
      <g>
       <use xlink:href="#m270997df5a" x="165.579764" y="567.74175" style="fill: #555555; stroke: #555555; stroke-width: 0.8"/>
      </g>
     </g>
     <g id="text_2">
      <!-- 2022-12 -->
      <g style="fill: #555555" transform="translate(152.758481 609.659567)rotate(-45)scale(0.1 -0.1)">
       <use xlink:href="#DejaVuSans-32"/>
       <use xlink:href="#DejaVuSans-30" x="63.623047"/>
       <use xlink:href="#DejaVuSans-32" x="127.246094"/>
       <use xlink:href="#DejaVuSans-32" x="190.869141"/>
       <use xlink:href="#DejaVuSans-2d" x="254.492188"/>
       <use xlink:href="#DejaVuSans-31" x="290.576172"/>
       <use xlink:href="#DejaVuSans-32" x="354.199219"/>
      </g>
     </g>
    </g>
    <g id="xtick_3">
     <g id="line2d_5">
      <path d="M 245.545946 567.74175 
L 245.545946 24.14175 
" clip-path="url(#p1764d6be61)" style="fill: none; stroke: #ffffff; stroke-width: 0.8; stroke-linecap: square"/>
     </g>
     <g id="line2d_6">
      <g>
       <use xlink:href="#m270997df5a" x="245.545946" y="567.74175" style="fill: #555555; stroke: #555555; stroke-width: 0.8"/>
      </g>
     </g>
     <g id="text_3">
      <!-- 2023-01 -->
      <g style="fill: #555555" transform="translate(232.724664 609.659567)rotate(-45)scale(0.1 -0.1)">
       <defs>
        <path id="DejaVuSans-33" d="M 2597 2516 
Q 3050 2419 3304 2112 
Q 3559 1806 3559 1356 
Q 3559 666 3084 287 
Q 2609 -91 1734 -91 
Q 1441 -91 1130 -33 
Q 819 25 488 141 
L 488 750 
Q 750 597 1062 519 
Q 1375 441 1716 441 
Q 2309 441 2620 675 
Q 2931 909 2931 1356 
Q 2931 1769 2642 2001 
Q 2353 2234 1838 2234 
L 1294 2234 
L 1294 2753 
L 1863 2753 
Q 2328 2753 2575 2939 
Q 2822 3125 2822 3475 
Q 2822 3834 2567 4026 
Q 2313 4219 1838 4219 
Q 1578 4219 1281 4162 
Q 984 4106 628 3988 
L 628 4550 
Q 988 4650 1302 4700 
Q 1616 4750 1894 4750 
Q 2613 4750 3031 4423 
Q 3450 4097 3450 3541 
Q 3450 3153 3228 2886 
Q 3006 2619 2597 2516 
z
" transform="scale(0.015625)"/>
       </defs>
       <use xlink:href="#DejaVuSans-32"/>
       <use xlink:href="#DejaVuSans-30" x="63.623047"/>
       <use xlink:href="#DejaVuSans-32" x="127.246094"/>
       <use xlink:href="#DejaVuSans-33" x="190.869141"/>
       <use xlink:href="#DejaVuSans-2d" x="254.492188"/>
       <use xlink:href="#DejaVuSans-30" x="290.576172"/>
       <use xlink:href="#DejaVuSans-31" x="354.199219"/>
      </g>
     </g>
    </g>
    <g id="xtick_4">
     <g id="line2d_7">
      <path d="M 325.512129 567.74175 
L 325.512129 24.14175 
" clip-path="url(#p1764d6be61)" style="fill: none; stroke: #ffffff; stroke-width: 0.8; stroke-linecap: square"/>
     </g>
     <g id="line2d_8">
      <g>
       <use xlink:href="#m270997df5a" x="325.512129" y="567.74175" style="fill: #555555; stroke: #555555; stroke-width: 0.8"/>
      </g>
     </g>
     <g id="text_4">
      <!-- 2023-02 -->
      <g style="fill: #555555" transform="translate(312.690847 609.659567)rotate(-45)scale(0.1 -0.1)">
       <use xlink:href="#DejaVuSans-32"/>
       <use xlink:href="#DejaVuSans-30" x="63.623047"/>
       <use xlink:href="#DejaVuSans-32" x="127.246094"/>
       <use xlink:href="#DejaVuSans-33" x="190.869141"/>
       <use xlink:href="#DejaVuSans-2d" x="254.492188"/>
       <use xlink:href="#DejaVuSans-30" x="290.576172"/>
       <use xlink:href="#DejaVuSans-32" x="354.199219"/>
      </g>
     </g>
    </g>
    <g id="xtick_5">
     <g id="line2d_9">
      <path d="M 397.739649 567.74175 
L 397.739649 24.14175 
" clip-path="url(#p1764d6be61)" style="fill: none; stroke: #ffffff; stroke-width: 0.8; stroke-linecap: square"/>
     </g>
     <g id="line2d_10">
      <g>
       <use xlink:href="#m270997df5a" x="397.739649" y="567.74175" style="fill: #555555; stroke: #555555; stroke-width: 0.8"/>
      </g>
     </g>
     <g id="text_5">
      <!-- 2023-03 -->
      <g style="fill: #555555" transform="translate(384.918367 609.659567)rotate(-45)scale(0.1 -0.1)">
       <use xlink:href="#DejaVuSans-32"/>
       <use xlink:href="#DejaVuSans-30" x="63.623047"/>
       <use xlink:href="#DejaVuSans-32" x="127.246094"/>
       <use xlink:href="#DejaVuSans-33" x="190.869141"/>
       <use xlink:href="#DejaVuSans-2d" x="254.492188"/>
       <use xlink:href="#DejaVuSans-30" x="290.576172"/>
       <use xlink:href="#DejaVuSans-33" x="354.199219"/>
      </g>
     </g>
    </g>
    <g id="xtick_6">
     <g id="line2d_11">
      <path d="M 477.705832 567.74175 
L 477.705832 24.14175 
" clip-path="url(#p1764d6be61)" style="fill: none; stroke: #ffffff; stroke-width: 0.8; stroke-linecap: square"/>
     </g>
     <g id="line2d_12">
      <g>
       <use xlink:href="#m270997df5a" x="477.705832" y="567.74175" style="fill: #555555; stroke: #555555; stroke-width: 0.8"/>
      </g>
     </g>
     <g id="text_6">
      <!-- 2023-04 -->
      <g style="fill: #555555" transform="translate(464.88455 609.659567)rotate(-45)scale(0.1 -0.1)">
       <defs>
        <path id="DejaVuSans-34" d="M 2419 4116 
L 825 1625 
L 2419 1625 
L 2419 4116 
z
M 2253 4666 
L 3047 4666 
L 3047 1625 
L 3713 1625 
L 3713 1100 
L 3047 1100 
L 3047 0 
L 2419 0 
L 2419 1100 
L 313 1100 
L 313 1709 
L 2253 4666 
z
" transform="scale(0.015625)"/>
       </defs>
       <use xlink:href="#DejaVuSans-32"/>
       <use xlink:href="#DejaVuSans-30" x="63.623047"/>
       <use xlink:href="#DejaVuSans-32" x="127.246094"/>
       <use xlink:href="#DejaVuSans-33" x="190.869141"/>
       <use xlink:href="#DejaVuSans-2d" x="254.492188"/>
       <use xlink:href="#DejaVuSans-30" x="290.576172"/>
       <use xlink:href="#DejaVuSans-34" x="354.199219"/>
      </g>
     </g>
    </g>
    <g id="xtick_7">
     <g id="line2d_13">
      <path d="M 555.092461 567.74175 
L 555.092461 24.14175 
" clip-path="url(#p1764d6be61)" style="fill: none; stroke: #ffffff; stroke-width: 0.8; stroke-linecap: square"/>
     </g>
     <g id="line2d_14">
      <g>
       <use xlink:href="#m270997df5a" x="555.092461" y="567.74175" style="fill: #555555; stroke: #555555; stroke-width: 0.8"/>
      </g>
     </g>
     <g id="text_7">
      <!-- 2023-05 -->
      <g style="fill: #555555" transform="translate(542.271178 609.659567)rotate(-45)scale(0.1 -0.1)">
       <defs>
        <path id="DejaVuSans-35" d="M 691 4666 
L 3169 4666 
L 3169 4134 
L 1269 4134 
L 1269 2991 
Q 1406 3038 1543 3061 
Q 1681 3084 1819 3084 
Q 2600 3084 3056 2656 
Q 3513 2228 3513 1497 
Q 3513 744 3044 326 
Q 2575 -91 1722 -91 
Q 1428 -91 1123 -41 
Q 819 9 494 109 
L 494 744 
Q 775 591 1075 516 
Q 1375 441 1709 441 
Q 2250 441 2565 725 
Q 2881 1009 2881 1497 
Q 2881 1984 2565 2268 
Q 2250 2553 1709 2553 
Q 1456 2553 1204 2497 
Q 953 2441 691 2322 
L 691 4666 
z
" transform="scale(0.015625)"/>
       </defs>
       <use xlink:href="#DejaVuSans-32"/>
       <use xlink:href="#DejaVuSans-30" x="63.623047"/>
       <use xlink:href="#DejaVuSans-32" x="127.246094"/>
       <use xlink:href="#DejaVuSans-33" x="190.869141"/>
       <use xlink:href="#DejaVuSans-2d" x="254.492188"/>
       <use xlink:href="#DejaVuSans-30" x="290.576172"/>
       <use xlink:href="#DejaVuSans-35" x="354.199219"/>
      </g>
     </g>
    </g>
    <g id="xtick_8">
     <g id="line2d_15">
      <path d="M 635.058644 567.74175 
L 635.058644 24.14175 
" clip-path="url(#p1764d6be61)" style="fill: none; stroke: #ffffff; stroke-width: 0.8; stroke-linecap: square"/>
     </g>
     <g id="line2d_16">
      <g>
       <use xlink:href="#m270997df5a" x="635.058644" y="567.74175" style="fill: #555555; stroke: #555555; stroke-width: 0.8"/>
      </g>
     </g>
     <g id="text_8">
      <!-- 2023-06 -->
      <g style="fill: #555555" transform="translate(622.237361 609.659567)rotate(-45)scale(0.1 -0.1)">
       <defs>
        <path id="DejaVuSans-36" d="M 2113 2584 
Q 1688 2584 1439 2293 
Q 1191 2003 1191 1497 
Q 1191 994 1439 701 
Q 1688 409 2113 409 
Q 2538 409 2786 701 
Q 3034 994 3034 1497 
Q 3034 2003 2786 2293 
Q 2538 2584 2113 2584 
z
M 3366 4563 
L 3366 3988 
Q 3128 4100 2886 4159 
Q 2644 4219 2406 4219 
Q 1781 4219 1451 3797 
Q 1122 3375 1075 2522 
Q 1259 2794 1537 2939 
Q 1816 3084 2150 3084 
Q 2853 3084 3261 2657 
Q 3669 2231 3669 1497 
Q 3669 778 3244 343 
Q 2819 -91 2113 -91 
Q 1303 -91 875 529 
Q 447 1150 447 2328 
Q 447 3434 972 4092 
Q 1497 4750 2381 4750 
Q 2619 4750 2861 4703 
Q 3103 4656 3366 4563 
z
" transform="scale(0.015625)"/>
       </defs>
       <use xlink:href="#DejaVuSans-32"/>
       <use xlink:href="#DejaVuSans-30" x="63.623047"/>
       <use xlink:href="#DejaVuSans-32" x="127.246094"/>
       <use xlink:href="#DejaVuSans-33" x="190.869141"/>
       <use xlink:href="#DejaVuSans-2d" x="254.492188"/>
       <use xlink:href="#DejaVuSans-30" x="290.576172"/>
       <use xlink:href="#DejaVuSans-36" x="354.199219"/>
      </g>
     </g>
    </g>
    <g id="xtick_9">
     <g id="line2d_17">
      <path d="M 712.445272 567.74175 
L 712.445272 24.14175 
" clip-path="url(#p1764d6be61)" style="fill: none; stroke: #ffffff; stroke-width: 0.8; stroke-linecap: square"/>
     </g>
     <g id="line2d_18">
      <g>
       <use xlink:href="#m270997df5a" x="712.445272" y="567.74175" style="fill: #555555; stroke: #555555; stroke-width: 0.8"/>
      </g>
     </g>
     <g id="text_9">
      <!-- 2023-07 -->
      <g style="fill: #555555" transform="translate(699.62399 609.659567)rotate(-45)scale(0.1 -0.1)">
       <defs>
        <path id="DejaVuSans-37" d="M 525 4666 
L 3525 4666 
L 3525 4397 
L 1831 0 
L 1172 0 
L 2766 4134 
L 525 4134 
L 525 4666 
z
" transform="scale(0.015625)"/>
       </defs>
       <use xlink:href="#DejaVuSans-32"/>
       <use xlink:href="#DejaVuSans-30" x="63.623047"/>
       <use xlink:href="#DejaVuSans-32" x="127.246094"/>
       <use xlink:href="#DejaVuSans-33" x="190.869141"/>
       <use xlink:href="#DejaVuSans-2d" x="254.492188"/>
       <use xlink:href="#DejaVuSans-30" x="290.576172"/>
       <use xlink:href="#DejaVuSans-37" x="354.199219"/>
      </g>
     </g>
    </g>
    <g id="xtick_10">
     <g id="line2d_19">
      <path d="M 792.411455 567.74175 
L 792.411455 24.14175 
" clip-path="url(#p1764d6be61)" style="fill: none; stroke: #ffffff; stroke-width: 0.8; stroke-linecap: square"/>
     </g>
     <g id="line2d_20">
      <g>
       <use xlink:href="#m270997df5a" x="792.411455" y="567.74175" style="fill: #555555; stroke: #555555; stroke-width: 0.8"/>
      </g>
     </g>
     <g id="text_10">
      <!-- 2023-08 -->
      <g style="fill: #555555" transform="translate(779.590173 609.659567)rotate(-45)scale(0.1 -0.1)">
       <defs>
        <path id="DejaVuSans-38" d="M 2034 2216 
Q 1584 2216 1326 1975 
Q 1069 1734 1069 1313 
Q 1069 891 1326 650 
Q 1584 409 2034 409 
Q 2484 409 2743 651 
Q 3003 894 3003 1313 
Q 3003 1734 2745 1975 
Q 2488 2216 2034 2216 
z
M 1403 2484 
Q 997 2584 770 2862 
Q 544 3141 544 3541 
Q 544 4100 942 4425 
Q 1341 4750 2034 4750 
Q 2731 4750 3128 4425 
Q 3525 4100 3525 3541 
Q 3525 3141 3298 2862 
Q 3072 2584 2669 2484 
Q 3125 2378 3379 2068 
Q 3634 1759 3634 1313 
Q 3634 634 3220 271 
Q 2806 -91 2034 -91 
Q 1263 -91 848 271 
Q 434 634 434 1313 
Q 434 1759 690 2068 
Q 947 2378 1403 2484 
z
M 1172 3481 
Q 1172 3119 1398 2916 
Q 1625 2713 2034 2713 
Q 2441 2713 2670 2916 
Q 2900 3119 2900 3481 
Q 2900 3844 2670 4047 
Q 2441 4250 2034 4250 
Q 1625 4250 1398 4047 
Q 1172 3844 1172 3481 
z
" transform="scale(0.015625)"/>
       </defs>
       <use xlink:href="#DejaVuSans-32"/>
       <use xlink:href="#DejaVuSans-30" x="63.623047"/>
       <use xlink:href="#DejaVuSans-32" x="127.246094"/>
       <use xlink:href="#DejaVuSans-33" x="190.869141"/>
       <use xlink:href="#DejaVuSans-2d" x="254.492188"/>
       <use xlink:href="#DejaVuSans-30" x="290.576172"/>
       <use xlink:href="#DejaVuSans-38" x="354.199219"/>
      </g>
     </g>
    </g>
    <g id="xtick_11">
     <g id="line2d_21">
      <path d="M 872.377638 567.74175 
L 872.377638 24.14175 
" clip-path="url(#p1764d6be61)" style="fill: none; stroke: #ffffff; stroke-width: 0.8; stroke-linecap: square"/>
     </g>
     <g id="line2d_22">
      <g>
       <use xlink:href="#m270997df5a" x="872.377638" y="567.74175" style="fill: #555555; stroke: #555555; stroke-width: 0.8"/>
      </g>
     </g>
     <g id="text_11">
      <!-- 2023-09 -->
      <g style="fill: #555555" transform="translate(859.556356 609.659567)rotate(-45)scale(0.1 -0.1)">
       <defs>
        <path id="DejaVuSans-39" d="M 703 97 
L 703 672 
Q 941 559 1184 500 
Q 1428 441 1663 441 
Q 2288 441 2617 861 
Q 2947 1281 2994 2138 
Q 2813 1869 2534 1725 
Q 2256 1581 1919 1581 
Q 1219 1581 811 2004 
Q 403 2428 403 3163 
Q 403 3881 828 4315 
Q 1253 4750 1959 4750 
Q 2769 4750 3195 4129 
Q 3622 3509 3622 2328 
Q 3622 1225 3098 567 
Q 2575 -91 1691 -91 
Q 1453 -91 1209 -44 
Q 966 3 703 97 
z
M 1959 2075 
Q 2384 2075 2632 2365 
Q 2881 2656 2881 3163 
Q 2881 3666 2632 3958 
Q 2384 4250 1959 4250 
Q 1534 4250 1286 3958 
Q 1038 3666 1038 3163 
Q 1038 2656 1286 2365 
Q 1534 2075 1959 2075 
z
" transform="scale(0.015625)"/>
       </defs>
       <use xlink:href="#DejaVuSans-32"/>
       <use xlink:href="#DejaVuSans-30" x="63.623047"/>
       <use xlink:href="#DejaVuSans-32" x="127.246094"/>
       <use xlink:href="#DejaVuSans-33" x="190.869141"/>
       <use xlink:href="#DejaVuSans-2d" x="254.492188"/>
       <use xlink:href="#DejaVuSans-30" x="290.576172"/>
       <use xlink:href="#DejaVuSans-39" x="354.199219"/>
      </g>
     </g>
    </g>
    <g id="xtick_12">
     <g id="line2d_23">
      <path d="M 949.764266 567.74175 
L 949.764266 24.14175 
" clip-path="url(#p1764d6be61)" style="fill: none; stroke: #ffffff; stroke-width: 0.8; stroke-linecap: square"/>
     </g>
     <g id="line2d_24">
      <g>
       <use xlink:href="#m270997df5a" x="949.764266" y="567.74175" style="fill: #555555; stroke: #555555; stroke-width: 0.8"/>
      </g>
     </g>
     <g id="text_12">
      <!-- 2023-10 -->
      <g style="fill: #555555" transform="translate(936.942984 609.659567)rotate(-45)scale(0.1 -0.1)">
       <use xlink:href="#DejaVuSans-32"/>
       <use xlink:href="#DejaVuSans-30" x="63.623047"/>
       <use xlink:href="#DejaVuSans-32" x="127.246094"/>
       <use xlink:href="#DejaVuSans-33" x="190.869141"/>
       <use xlink:href="#DejaVuSans-2d" x="254.492188"/>
       <use xlink:href="#DejaVuSans-31" x="290.576172"/>
       <use xlink:href="#DejaVuSans-30" x="354.199219"/>
      </g>
     </g>
    </g>
    <g id="text_13">
     <!-- Date -->
     <g style="fill: #555555" transform="translate(489.160438 624.248253)scale(0.12 -0.12)">
      <defs>
       <path id="DejaVuSans-44" d="M 1259 4147 
L 1259 519 
L 2022 519 
Q 2988 519 3436 956 
Q 3884 1394 3884 2338 
Q 3884 3275 3436 3711 
Q 2988 4147 2022 4147 
L 1259 4147 
z
M 628 4666 
L 1925 4666 
Q 3281 4666 3915 4102 
Q 4550 3538 4550 2338 
Q 4550 1131 3912 565 
Q 3275 0 1925 0 
L 628 0 
L 628 4666 
z
" transform="scale(0.015625)"/>
       <path id="DejaVuSans-61" d="M 2194 1759 
Q 1497 1759 1228 1600 
Q 959 1441 959 1056 
Q 959 750 1161 570 
Q 1363 391 1709 391 
Q 2188 391 2477 730 
Q 2766 1069 2766 1631 
L 2766 1759 
L 2194 1759 
z
M 3341 1997 
L 3341 0 
L 2766 0 
L 2766 531 
Q 2569 213 2275 61 
Q 1981 -91 1556 -91 
Q 1019 -91 701 211 
Q 384 513 384 1019 
Q 384 1609 779 1909 
Q 1175 2209 1959 2209 
L 2766 2209 
L 2766 2266 
Q 2766 2663 2505 2880 
Q 2244 3097 1772 3097 
Q 1472 3097 1187 3025 
Q 903 2953 641 2809 
L 641 3341 
Q 956 3463 1253 3523 
Q 1550 3584 1831 3584 
Q 2591 3584 2966 3190 
Q 3341 2797 3341 1997 
z
" transform="scale(0.015625)"/>
       <path id="DejaVuSans-74" d="M 1172 4494 
L 1172 3500 
L 2356 3500 
L 2356 3053 
L 1172 3053 
L 1172 1153 
Q 1172 725 1289 603 
Q 1406 481 1766 481 
L 2356 481 
L 2356 0 
L 1766 0 
Q 1100 0 847 248 
Q 594 497 594 1153 
L 594 3053 
L 172 3053 
L 172 3500 
L 594 3500 
L 594 4494 
L 1172 4494 
z
" transform="scale(0.015625)"/>
       <path id="DejaVuSans-65" d="M 3597 1894 
L 3597 1613 
L 953 1613 
Q 991 1019 1311 708 
Q 1631 397 2203 397 
Q 2534 397 2845 478 
Q 3156 559 3463 722 
L 3463 178 
Q 3153 47 2828 -22 
Q 2503 -91 2169 -91 
Q 1331 -91 842 396 
Q 353 884 353 1716 
Q 353 2575 817 3079 
Q 1281 3584 2069 3584 
Q 2775 3584 3186 3129 
Q 3597 2675 3597 1894 
z
M 3022 2063 
Q 3016 2534 2758 2815 
Q 2500 3097 2075 3097 
Q 1594 3097 1305 2825 
Q 1016 2553 972 2059 
L 3022 2063 
z
" transform="scale(0.015625)"/>
      </defs>
      <use xlink:href="#DejaVuSans-44"/>
      <use xlink:href="#DejaVuSans-61" x="77.001953"/>
      <use xlink:href="#DejaVuSans-74" x="138.28125"/>
      <use xlink:href="#DejaVuSans-65" x="177.490234"/>
     </g>
    </g>
   </g>
   <g id="matplotlib.axis_2">
    <g id="ytick_1">
     <g id="line2d_25">
      <path d="M 52.079375 567.74175 
L 954.923375 567.74175 
" clip-path="url(#p1764d6be61)" style="fill: none; stroke: #ffffff; stroke-width: 0.8; stroke-linecap: square"/>
     </g>
     <g id="line2d_26">
      <defs>
       <path id="me91576b24b" d="M 0 0 
L -3.5 0 
" style="stroke: #555555; stroke-width: 0.8"/>
      </defs>
      <g>
       <use xlink:href="#me91576b24b" x="52.079375" y="567.74175" style="fill: #555555; stroke: #555555; stroke-width: 0.8"/>
      </g>
     </g>
     <g id="text_14">
      <!-- 0.00 -->
      <g style="fill: #555555" transform="translate(22.81375 571.540969)scale(0.1 -0.1)">
       <defs>
        <path id="DejaVuSans-2e" d="M 684 794 
L 1344 794 
L 1344 0 
L 684 0 
L 684 794 
z
" transform="scale(0.015625)"/>
       </defs>
       <use xlink:href="#DejaVuSans-30"/>
       <use xlink:href="#DejaVuSans-2e" x="63.623047"/>
       <use xlink:href="#DejaVuSans-30" x="95.410156"/>
       <use xlink:href="#DejaVuSans-30" x="159.033203"/>
      </g>
     </g>
    </g>
    <g id="ytick_2">
     <g id="line2d_27">
      <path d="M 52.079375 489.229785 
L 954.923375 489.229785 
" clip-path="url(#p1764d6be61)" style="fill: none; stroke: #ffffff; stroke-width: 0.8; stroke-linecap: square"/>
     </g>
     <g id="line2d_28">
      <g>
       <use xlink:href="#me91576b24b" x="52.079375" y="489.229785" style="fill: #555555; stroke: #555555; stroke-width: 0.8"/>
      </g>
     </g>
     <g id="text_15">
      <!-- 0.05 -->
      <g style="fill: #555555" transform="translate(22.81375 493.029004)scale(0.1 -0.1)">
       <use xlink:href="#DejaVuSans-30"/>
       <use xlink:href="#DejaVuSans-2e" x="63.623047"/>
       <use xlink:href="#DejaVuSans-30" x="95.410156"/>
       <use xlink:href="#DejaVuSans-35" x="159.033203"/>
      </g>
     </g>
    </g>
    <g id="ytick_3">
     <g id="line2d_29">
      <path d="M 52.079375 410.71782 
L 954.923375 410.71782 
" clip-path="url(#p1764d6be61)" style="fill: none; stroke: #ffffff; stroke-width: 0.8; stroke-linecap: square"/>
     </g>
     <g id="line2d_30">
      <g>
       <use xlink:href="#me91576b24b" x="52.079375" y="410.71782" style="fill: #555555; stroke: #555555; stroke-width: 0.8"/>
      </g>
     </g>
     <g id="text_16">
      <!-- 0.10 -->
      <g style="fill: #555555" transform="translate(22.81375 414.517038)scale(0.1 -0.1)">
       <use xlink:href="#DejaVuSans-30"/>
       <use xlink:href="#DejaVuSans-2e" x="63.623047"/>
       <use xlink:href="#DejaVuSans-31" x="95.410156"/>
       <use xlink:href="#DejaVuSans-30" x="159.033203"/>
      </g>
     </g>
    </g>
    <g id="ytick_4">
     <g id="line2d_31">
      <path d="M 52.079375 332.205854 
L 954.923375 332.205854 
" clip-path="url(#p1764d6be61)" style="fill: none; stroke: #ffffff; stroke-width: 0.8; stroke-linecap: square"/>
     </g>
     <g id="line2d_32">
      <g>
       <use xlink:href="#me91576b24b" x="52.079375" y="332.205854" style="fill: #555555; stroke: #555555; stroke-width: 0.8"/>
      </g>
     </g>
     <g id="text_17">
      <!-- 0.15 -->
      <g style="fill: #555555" transform="translate(22.81375 336.005073)scale(0.1 -0.1)">
       <use xlink:href="#DejaVuSans-30"/>
       <use xlink:href="#DejaVuSans-2e" x="63.623047"/>
       <use xlink:href="#DejaVuSans-31" x="95.410156"/>
       <use xlink:href="#DejaVuSans-35" x="159.033203"/>
      </g>
     </g>
    </g>
    <g id="ytick_5">
     <g id="line2d_33">
      <path d="M 52.079375 253.693889 
L 954.923375 253.693889 
" clip-path="url(#p1764d6be61)" style="fill: none; stroke: #ffffff; stroke-width: 0.8; stroke-linecap: square"/>
     </g>
     <g id="line2d_34">
      <g>
       <use xlink:href="#me91576b24b" x="52.079375" y="253.693889" style="fill: #555555; stroke: #555555; stroke-width: 0.8"/>
      </g>
     </g>
     <g id="text_18">
      <!-- 0.20 -->
      <g style="fill: #555555" transform="translate(22.81375 257.493108)scale(0.1 -0.1)">
       <use xlink:href="#DejaVuSans-30"/>
       <use xlink:href="#DejaVuSans-2e" x="63.623047"/>
       <use xlink:href="#DejaVuSans-32" x="95.410156"/>
       <use xlink:href="#DejaVuSans-30" x="159.033203"/>
      </g>
     </g>
    </g>
    <g id="ytick_6">
     <g id="line2d_35">
      <path d="M 52.079375 175.181924 
L 954.923375 175.181924 
" clip-path="url(#p1764d6be61)" style="fill: none; stroke: #ffffff; stroke-width: 0.8; stroke-linecap: square"/>
     </g>
     <g id="line2d_36">
      <g>
       <use xlink:href="#me91576b24b" x="52.079375" y="175.181924" style="fill: #555555; stroke: #555555; stroke-width: 0.8"/>
      </g>
     </g>
     <g id="text_19">
      <!-- 0.25 -->
      <g style="fill: #555555" transform="translate(22.81375 178.981143)scale(0.1 -0.1)">
       <use xlink:href="#DejaVuSans-30"/>
       <use xlink:href="#DejaVuSans-2e" x="63.623047"/>
       <use xlink:href="#DejaVuSans-32" x="95.410156"/>
       <use xlink:href="#DejaVuSans-35" x="159.033203"/>
      </g>
     </g>
    </g>
    <g id="ytick_7">
     <g id="line2d_37">
      <path d="M 52.079375 96.669959 
L 954.923375 96.669959 
" clip-path="url(#p1764d6be61)" style="fill: none; stroke: #ffffff; stroke-width: 0.8; stroke-linecap: square"/>
     </g>
     <g id="line2d_38">
      <g>
       <use xlink:href="#me91576b24b" x="52.079375" y="96.669959" style="fill: #555555; stroke: #555555; stroke-width: 0.8"/>
      </g>
     </g>
     <g id="text_20">
      <!-- 0.30 -->
      <g style="fill: #555555" transform="translate(22.81375 100.469178)scale(0.1 -0.1)">
       <use xlink:href="#DejaVuSans-30"/>
       <use xlink:href="#DejaVuSans-2e" x="63.623047"/>
       <use xlink:href="#DejaVuSans-33" x="95.410156"/>
       <use xlink:href="#DejaVuSans-30" x="159.033203"/>
      </g>
     </g>
    </g>
    <g id="text_21">
     <!-- Share -->
     <g style="fill: #555555" transform="translate(16.318125 313.253625)rotate(-90)scale(0.12 -0.12)">
      <defs>
       <path id="DejaVuSans-53" d="M 3425 4513 
L 3425 3897 
Q 3066 4069 2747 4153 
Q 2428 4238 2131 4238 
Q 1616 4238 1336 4038 
Q 1056 3838 1056 3469 
Q 1056 3159 1242 3001 
Q 1428 2844 1947 2747 
L 2328 2669 
Q 3034 2534 3370 2195 
Q 3706 1856 3706 1288 
Q 3706 609 3251 259 
Q 2797 -91 1919 -91 
Q 1588 -91 1214 -16 
Q 841 59 441 206 
L 441 856 
Q 825 641 1194 531 
Q 1563 422 1919 422 
Q 2459 422 2753 634 
Q 3047 847 3047 1241 
Q 3047 1584 2836 1778 
Q 2625 1972 2144 2069 
L 1759 2144 
Q 1053 2284 737 2584 
Q 422 2884 422 3419 
Q 422 4038 858 4394 
Q 1294 4750 2059 4750 
Q 2388 4750 2728 4690 
Q 3069 4631 3425 4513 
z
" transform="scale(0.015625)"/>
       <path id="DejaVuSans-68" d="M 3513 2113 
L 3513 0 
L 2938 0 
L 2938 2094 
Q 2938 2591 2744 2837 
Q 2550 3084 2163 3084 
Q 1697 3084 1428 2787 
Q 1159 2491 1159 1978 
L 1159 0 
L 581 0 
L 581 4863 
L 1159 4863 
L 1159 2956 
Q 1366 3272 1645 3428 
Q 1925 3584 2291 3584 
Q 2894 3584 3203 3211 
Q 3513 2838 3513 2113 
z
" transform="scale(0.015625)"/>
       <path id="DejaVuSans-72" d="M 2631 2963 
Q 2534 3019 2420 3045 
Q 2306 3072 2169 3072 
Q 1681 3072 1420 2755 
Q 1159 2438 1159 1844 
L 1159 0 
L 581 0 
L 581 3500 
L 1159 3500 
L 1159 2956 
Q 1341 3275 1631 3429 
Q 1922 3584 2338 3584 
Q 2397 3584 2469 3576 
Q 2541 3569 2628 3553 
L 2631 2963 
z
" transform="scale(0.015625)"/>
      </defs>
      <use xlink:href="#DejaVuSans-53"/>
      <use xlink:href="#DejaVuSans-68" x="63.476562"/>
      <use xlink:href="#DejaVuSans-61" x="126.855469"/>
      <use xlink:href="#DejaVuSans-72" x="188.134766"/>
      <use xlink:href="#DejaVuSans-65" x="226.998047"/>
     </g>
    </g>
   </g>
   <g id="line2d_39">
    <path d="M 52.079375 401.86621 
L 61.199011 400.802957 
L 70.318648 399.739704 
L 79.438284 398.676451 
L 88.55792 397.613197 
L 97.677557 396.549944 
L 106.797193 395.486691 
L 115.91683 394.423438 
L 125.036466 393.360185 
L 134.156102 392.296931 
L 143.275739 391.233678 
L 152.395375 390.170425 
L 161.515011 389.107172 
L 170.634648 388.043919 
L 179.754284 386.980665 
L 188.87392 385.917412 
L 197.993557 384.854159 
L 207.113193 383.790906 
L 216.23283 382.727652 
L 225.352466 381.664399 
L 234.472102 380.601146 
L 243.591739 379.537893 
L 252.711375 378.47464 
L 261.831011 377.411386 
L 270.950648 376.348133 
L 280.070284 375.28488 
L 289.18992 374.221627 
L 298.309557 373.158374 
L 307.429193 372.09512 
L 316.54883 371.031867 
L 325.668466 369.968614 
L 334.788102 368.905361 
L 343.907739 367.842108 
L 353.027375 366.778854 
L 362.147011 365.715601 
L 371.266648 364.652348 
L 380.386284 363.589095 
L 389.50592 362.525842 
L 398.625557 361.462588 
L 407.745193 360.399335 
L 416.86483 359.336082 
L 425.984466 358.272829 
L 435.104102 357.209575 
L 444.223739 356.146322 
L 453.343375 355.083069 
L 462.463011 354.019816 
L 471.582648 352.956563 
L 480.702284 351.893309 
L 489.82192 350.830056 
L 498.941557 349.766803 
L 508.061193 348.70355 
L 517.18083 347.640297 
L 526.300466 346.577043 
L 535.420102 345.51379 
L 544.539739 344.450537 
L 553.659375 343.387284 
L 562.779011 342.324031 
L 571.898648 341.260777 
L 581.018284 340.197524 
L 590.13792 339.134271 
L 599.257557 338.071018 
L 608.377193 337.007765 
L 617.49683 335.944511 
L 626.616466 334.881258 
L 635.736102 333.818005 
L 644.855739 332.754752 
L 653.975375 331.691498 
L 663.095011 330.628245 
L 672.214648 329.564992 
L 681.334284 328.501739 
L 690.45392 327.438486 
L 699.573557 326.375232 
L 708.693193 325.311979 
L 717.81283 324.248726 
L 726.932466 323.185473 
L 736.052102 322.12222 
L 745.171739 321.058966 
L 754.291375 319.995713 
L 763.411011 318.93246 
L 772.530648 317.869207 
L 781.650284 316.805954 
L 790.76992 315.7427 
L 799.889557 314.679447 
L 809.009193 313.616194 
L 818.12883 312.552941 
L 827.248466 311.489688 
L 836.368102 310.426434 
L 845.487739 309.363181 
L 854.607375 308.299928 
L 863.727011 307.236675 
L 872.846648 306.173421 
L 881.966284 305.110168 
L 891.08592 304.046915 
L 900.205557 302.983662 
L 909.325193 301.920409 
L 918.44483 300.857155 
L 927.564466 299.793902 
L 936.684102 298.730649 
L 945.803739 297.667396 
L 954.923375 296.604143 
" clip-path="url(#p1764d6be61)" style="fill: none; stroke-dasharray: 1.5,2.475; stroke-dashoffset: 0; stroke: #4ac1fa; stroke-width: 1.5"/>
   </g>
   <g id="line2d_40">
    <path d="M 52.079375 71.386873 
L 61.199011 74.023324 
L 70.318648 76.659775 
L 79.438284 79.296226 
L 88.55792 81.932677 
L 97.677557 84.569128 
L 106.797193 87.205579 
L 115.91683 89.842029 
L 125.036466 92.47848 
L 134.156102 95.114931 
L 143.275739 97.751382 
L 152.395375 100.387833 
L 161.515011 103.024284 
L 170.634648 105.660735 
L 179.754284 108.297185 
L 188.87392 110.933636 
L 197.993557 113.570087 
L 207.113193 116.206538 
L 216.23283 118.842989 
L 225.352466 121.47944 
L 234.472102 124.11589 
L 243.591739 126.752341 
L 252.711375 129.388792 
L 261.831011 132.025243 
L 270.950648 134.661694 
L 280.070284 137.298145 
L 289.18992 139.934596 
L 298.309557 142.571046 
L 307.429193 145.207497 
L 316.54883 147.843948 
L 325.668466 150.480399 
L 334.788102 153.11685 
L 343.907739 155.753301 
L 353.027375 158.389752 
L 362.147011 161.026202 
L 371.266648 163.662653 
L 380.386284 166.299104 
L 389.50592 168.935555 
L 398.625557 171.572006 
L 407.745193 174.208457 
L 416.86483 176.844907 
L 425.984466 179.481358 
L 435.104102 182.117809 
L 444.223739 184.75426 
L 453.343375 187.390711 
L 462.463011 190.027162 
L 471.582648 192.663613 
L 480.702284 195.300063 
L 489.82192 197.936514 
L 498.941557 200.572965 
L 508.061193 203.209416 
L 517.18083 205.845867 
L 526.300466 208.482318 
L 535.420102 211.118769 
L 544.539739 213.755219 
L 553.659375 216.39167 
L 562.779011 219.028121 
L 571.898648 221.664572 
L 581.018284 224.301023 
L 590.13792 226.937474 
L 599.257557 229.573925 
L 608.377193 232.210375 
L 617.49683 234.846826 
L 626.616466 237.483277 
L 635.736102 240.119728 
L 644.855739 242.756179 
L 653.975375 245.39263 
L 663.095011 248.02908 
L 672.214648 250.665531 
L 681.334284 253.301982 
L 690.45392 255.938433 
L 699.573557 258.574884 
L 708.693193 261.211335 
L 717.81283 263.847786 
L 726.932466 266.484236 
L 736.052102 269.120687 
L 745.171739 271.757138 
L 754.291375 274.393589 
L 763.411011 277.03004 
L 772.530648 279.666491 
L 781.650284 282.302942 
L 790.76992 284.939392 
L 799.889557 287.575843 
L 809.009193 290.212294 
L 818.12883 292.848745 
L 827.248466 295.485196 
L 836.368102 298.121647 
L 845.487739 300.758097 
L 854.607375 303.394548 
L 863.727011 306.030999 
L 872.846648 308.66745 
L 881.966284 311.303901 
L 891.08592 313.940352 
L 900.205557 316.576803 
L 909.325193 319.213253 
L 918.44483 321.849704 
L 927.564466 324.486155 
L 936.684102 327.122606 
L 945.803739 329.759057 
L 954.923375 332.395508 
" clip-path="url(#p1764d6be61)" style="fill: none; stroke-dasharray: 1.5,2.475; stroke-dashoffset: 0; stroke: #e9a942; stroke-width: 1.5"/>
   </g>
   <g id="line2d_41">
    <path d="M 52.079375 299.475399 
L 61.199011 299.930678 
L 70.318648 300.385958 
L 79.438284 300.841238 
L 88.55792 301.296518 
L 97.677557 301.751797 
L 106.797193 302.207077 
L 115.91683 302.662357 
L 125.036466 303.117636 
L 134.156102 303.572916 
L 143.275739 304.028196 
L 152.395375 304.483475 
L 161.515011 304.938755 
L 170.634648 305.394035 
L 179.754284 305.849315 
L 188.87392 306.304594 
L 197.993557 306.759874 
L 207.113193 307.215154 
L 216.23283 307.670433 
L 225.352466 308.125713 
L 234.472102 308.580993 
L 243.591739 309.036272 
L 252.711375 309.491552 
L 261.831011 309.946832 
L 270.950648 310.402111 
L 280.070284 310.857391 
L 289.18992 311.312671 
L 298.309557 311.767951 
L 307.429193 312.22323 
L 316.54883 312.67851 
L 325.668466 313.13379 
L 334.788102 313.589069 
L 343.907739 314.044349 
L 353.027375 314.499629 
L 362.147011 314.954908 
L 371.266648 315.410188 
L 380.386284 315.865468 
L 389.50592 316.320748 
L 398.625557 316.776027 
L 407.745193 317.231307 
L 416.86483 317.686587 
L 425.984466 318.141866 
L 435.104102 318.597146 
L 444.223739 319.052426 
L 453.343375 319.507705 
L 462.463011 319.962985 
L 471.582648 320.418265 
L 480.702284 320.873545 
L 489.82192 321.328824 
L 498.941557 321.784104 
L 508.061193 322.239384 
L 517.18083 322.694663 
L 526.300466 323.149943 
L 535.420102 323.605223 
L 544.539739 324.060502 
L 553.659375 324.515782 
L 562.779011 324.971062 
L 571.898648 325.426342 
L 581.018284 325.881621 
L 590.13792 326.336901 
L 599.257557 326.792181 
L 608.377193 327.24746 
L 617.49683 327.70274 
L 626.616466 328.15802 
L 635.736102 328.613299 
L 644.855739 329.068579 
L 653.975375 329.523859 
L 663.095011 329.979139 
L 672.214648 330.434418 
L 681.334284 330.889698 
L 690.45392 331.344978 
L 699.573557 331.800257 
L 708.693193 332.255537 
L 717.81283 332.710817 
L 726.932466 333.166096 
L 736.052102 333.621376 
L 745.171739 334.076656 
L 754.291375 334.531936 
L 763.411011 334.987215 
L 772.530648 335.442495 
L 781.650284 335.897775 
L 790.76992 336.353054 
L 799.889557 336.808334 
L 809.009193 337.263614 
L 818.12883 337.718893 
L 827.248466 338.174173 
L 836.368102 338.629453 
L 845.487739 339.084732 
L 854.607375 339.540012 
L 863.727011 339.995292 
L 872.846648 340.450572 
L 881.966284 340.905851 
L 891.08592 341.361131 
L 900.205557 341.816411 
L 909.325193 342.27169 
L 918.44483 342.72697 
L 927.564466 343.18225 
L 936.684102 343.637529 
L 945.803739 344.092809 
L 954.923375 344.548089 
" clip-path="url(#p1764d6be61)" style="fill: none; stroke-dasharray: 1.5,2.475; stroke-dashoffset: 0; stroke: #9a5689; stroke-width: 1.5"/>
   </g>
   <g id="line2d_42">
    <path d="M 52.079375 517.318304 
L 61.199011 517.184986 
L 70.318648 517.051669 
L 79.438284 516.918351 
L 88.55792 516.785033 
L 97.677557 516.651715 
L 106.797193 516.518398 
L 115.91683 516.38508 
L 125.036466 516.251762 
L 134.156102 516.118445 
L 143.275739 515.985127 
L 152.395375 515.851809 
L 161.515011 515.718491 
L 170.634648 515.585174 
L 179.754284 515.451856 
L 188.87392 515.318538 
L 197.993557 515.185221 
L 207.113193 515.051903 
L 216.23283 514.918585 
L 225.352466 514.785267 
L 234.472102 514.65195 
L 243.591739 514.518632 
L 252.711375 514.385314 
L 261.831011 514.251997 
L 270.950648 514.118679 
L 280.070284 513.985361 
L 289.18992 513.852043 
L 298.309557 513.718726 
L 307.429193 513.585408 
L 316.54883 513.45209 
L 325.668466 513.318773 
L 334.788102 513.185455 
L 343.907739 513.052137 
L 353.027375 512.918819 
L 362.147011 512.785502 
L 371.266648 512.652184 
L 380.386284 512.518866 
L 389.50592 512.385549 
L 398.625557 512.252231 
L 407.745193 512.118913 
L 416.86483 511.985595 
L 425.984466 511.852278 
L 435.104102 511.71896 
L 444.223739 511.585642 
L 453.343375 511.452325 
L 462.463011 511.319007 
L 471.582648 511.185689 
L 480.702284 511.052371 
L 489.82192 510.919054 
L 498.941557 510.785736 
L 508.061193 510.652418 
L 517.18083 510.5191 
L 526.300466 510.385783 
L 535.420102 510.252465 
L 544.539739 510.119147 
L 553.659375 509.98583 
L 562.779011 509.852512 
L 571.898648 509.719194 
L 581.018284 509.585876 
L 590.13792 509.452559 
L 599.257557 509.319241 
L 608.377193 509.185923 
L 617.49683 509.052606 
L 626.616466 508.919288 
L 635.736102 508.78597 
L 644.855739 508.652652 
L 653.975375 508.519335 
L 663.095011 508.386017 
L 672.214648 508.252699 
L 681.334284 508.119382 
L 690.45392 507.986064 
L 699.573557 507.852746 
L 708.693193 507.719428 
L 717.81283 507.586111 
L 726.932466 507.452793 
L 736.052102 507.319475 
L 745.171739 507.186158 
L 754.291375 507.05284 
L 763.411011 506.919522 
L 772.530648 506.786204 
L 781.650284 506.652887 
L 790.76992 506.519569 
L 799.889557 506.386251 
L 809.009193 506.252934 
L 818.12883 506.119616 
L 827.248466 505.986298 
L 836.368102 505.85298 
L 845.487739 505.719663 
L 854.607375 505.586345 
L 863.727011 505.453027 
L 872.846648 505.31971 
L 881.966284 505.186392 
L 891.08592 505.053074 
L 900.205557 504.919756 
L 909.325193 504.786439 
L 918.44483 504.653121 
L 927.564466 504.519803 
L 936.684102 504.386486 
L 945.803739 504.253168 
L 954.923375 504.11985 
" clip-path="url(#p1764d6be61)" style="fill: none; stroke-dasharray: 1.5,2.475; stroke-dashoffset: 0; stroke: #be503b; stroke-width: 1.5"/>
   </g>
   <g id="line2d_43">
    <path d="M 52.079375 277.246327 
L 61.199011 276.780832 
L 70.318648 276.315338 
L 79.438284 275.849843 
L 88.55792 275.384349 
L 97.677557 274.918854 
L 106.797193 274.45336 
L 115.91683 273.987865 
L 125.036466 273.522371 
L 134.156102 273.056876 
L 143.275739 272.591382 
L 152.395375 272.125887 
L 161.515011 271.660392 
L 170.634648 271.194898 
L 179.754284 270.729403 
L 188.87392 270.263909 
L 197.993557 269.798414 
L 207.113193 269.33292 
L 216.23283 268.867425 
L 225.352466 268.401931 
L 234.472102 267.936436 
L 243.591739 267.470942 
L 252.711375 267.005447 
L 261.831011 266.539953 
L 270.950648 266.074458 
L 280.070284 265.608964 
L 289.18992 265.143469 
L 298.309557 264.677974 
L 307.429193 264.21248 
L 316.54883 263.746985 
L 325.668466 263.281491 
L 334.788102 262.815996 
L 343.907739 262.350502 
L 353.027375 261.885007 
L 362.147011 261.419513 
L 371.266648 260.954018 
L 380.386284 260.488524 
L 389.50592 260.023029 
L 398.625557 259.557535 
L 407.745193 259.09204 
L 416.86483 258.626545 
L 425.984466 258.161051 
L 435.104102 257.695556 
L 444.223739 257.230062 
L 453.343375 256.764567 
L 462.463011 256.299073 
L 471.582648 255.833578 
L 480.702284 255.368084 
L 489.82192 254.902589 
L 498.941557 254.437095 
L 508.061193 253.9716 
L 517.18083 253.506106 
L 526.300466 253.040611 
L 535.420102 252.575117 
L 544.539739 252.109622 
L 553.659375 251.644127 
L 562.779011 251.178633 
L 571.898648 250.713138 
L 581.018284 250.247644 
L 590.13792 249.782149 
L 599.257557 249.316655 
L 608.377193 248.85116 
L 617.49683 248.385666 
L 626.616466 247.920171 
L 635.736102 247.454677 
L 644.855739 246.989182 
L 653.975375 246.523688 
L 663.095011 246.058193 
L 672.214648 245.592698 
L 681.334284 245.127204 
L 690.45392 244.661709 
L 699.573557 244.196215 
L 708.693193 243.73072 
L 717.81283 243.265226 
L 726.932466 242.799731 
L 736.052102 242.334237 
L 745.171739 241.868742 
L 754.291375 241.403248 
L 763.411011 240.937753 
L 772.530648 240.472259 
L 781.650284 240.006764 
L 790.76992 239.54127 
L 799.889557 239.075775 
L 809.009193 238.61028 
L 818.12883 238.144786 
L 827.248466 237.679291 
L 836.368102 237.213797 
L 845.487739 236.748302 
L 854.607375 236.282808 
L 863.727011 235.817313 
L 872.846648 235.351819 
L 881.966284 234.886324 
L 891.08592 234.42083 
L 900.205557 233.955335 
L 909.325193 233.489841 
L 918.44483 233.024346 
L 927.564466 232.558851 
L 936.684102 232.093357 
L 945.803739 231.627862 
L 954.923375 231.162368 
" clip-path="url(#p1764d6be61)" style="fill: none; stroke-dasharray: 1.5,2.475; stroke-dashoffset: 0; stroke: #e2321d; stroke-width: 1.5"/>
   </g>
   <g id="line2d_44">
    <path d="M 52.079375 285.972988 
L 61.199011 284.629688 
L 70.318648 283.286388 
L 79.438284 281.943089 
L 88.55792 280.599789 
L 97.677557 279.256489 
L 106.797193 277.913189 
L 115.91683 276.569889 
L 125.036466 275.22659 
L 134.156102 273.88329 
L 143.275739 272.53999 
L 152.395375 271.19669 
L 161.515011 269.85339 
L 170.634648 268.51009 
L 179.754284 267.166791 
L 188.87392 265.823491 
L 197.993557 264.480191 
L 207.113193 263.136891 
L 216.23283 261.793591 
L 225.352466 260.450291 
L 234.472102 259.106992 
L 243.591739 257.763692 
L 252.711375 256.420392 
L 261.831011 255.077092 
L 270.950648 253.733792 
L 280.070284 252.390493 
L 289.18992 251.047193 
L 298.309557 249.703893 
L 307.429193 248.360593 
L 316.54883 247.017293 
L 325.668466 245.673993 
L 334.788102 244.330694 
L 343.907739 242.987394 
L 353.027375 241.644094 
L 362.147011 240.300794 
L 371.266648 238.957494 
L 380.386284 237.614195 
L 389.50592 236.270895 
L 398.625557 234.927595 
L 407.745193 233.584295 
L 416.86483 232.240995 
L 425.984466 230.897695 
L 435.104102 229.554396 
L 444.223739 228.211096 
L 453.343375 226.867796 
L 462.463011 225.524496 
L 471.582648 224.181196 
L 480.702284 222.837897 
L 489.82192 221.494597 
L 498.941557 220.151297 
L 508.061193 218.807997 
L 517.18083 217.464697 
L 526.300466 216.121397 
L 535.420102 214.778098 
L 544.539739 213.434798 
L 553.659375 212.091498 
L 562.779011 210.748198 
L 571.898648 209.404898 
L 581.018284 208.061598 
L 590.13792 206.718299 
L 599.257557 205.374999 
L 608.377193 204.031699 
L 617.49683 202.688399 
L 626.616466 201.345099 
L 635.736102 200.0018 
L 644.855739 198.6585 
L 653.975375 197.3152 
L 663.095011 195.9719 
L 672.214648 194.6286 
L 681.334284 193.2853 
L 690.45392 191.942001 
L 699.573557 190.598701 
L 708.693193 189.255401 
L 717.81283 187.912101 
L 726.932466 186.568801 
L 736.052102 185.225502 
L 745.171739 183.882202 
L 754.291375 182.538902 
L 763.411011 181.195602 
L 772.530648 179.852302 
L 781.650284 178.509002 
L 790.76992 177.165703 
L 799.889557 175.822403 
L 809.009193 174.479103 
L 818.12883 173.135803 
L 827.248466 171.792503 
L 836.368102 170.449203 
L 845.487739 169.105904 
L 854.607375 167.762604 
L 863.727011 166.419304 
L 872.846648 165.076004 
L 881.966284 163.732704 
L 891.08592 162.389405 
L 900.205557 161.046105 
L 909.325193 159.702805 
L 918.44483 158.359505 
L 927.564466 157.016205 
L 936.684102 155.672905 
L 945.803739 154.329606 
L 954.923375 152.986306 
" clip-path="url(#p1764d6be61)" style="fill: none; stroke-dasharray: 1.5,2.475; stroke-dashoffset: 0; stroke: #48b585; stroke-width: 1.5"/>
   </g>
   <g id="line2d_45">
    <path d="M 52.079375 394.364862 
L 70.136255 395.775649 
L 88.193135 401.470597 
L 106.250015 396.695046 
L 124.306895 390.858011 
L 142.363775 385.992137 
L 160.420655 386.386268 
L 178.477535 374.546288 
L 196.534415 374.099034 
L 214.591295 371.394206 
L 232.648175 371.720778 
L 250.705055 378.00845 
L 268.761935 383.469628 
L 286.818815 384.015034 
L 304.875695 378.033976 
L 322.932575 380.16025 
L 340.989455 383.865676 
L 359.046335 382.140809 
L 377.103215 370.464174 
L 395.160095 378.054043 
L 413.216975 378.054309 
L 431.273855 361.640755 
L 449.330735 351.61096 
L 467.387615 338.370994 
L 485.444495 360.294132 
L 503.501375 356.740298 
L 557.672015 344.951744 
L 575.728895 365.412927 
L 593.785775 351.031657 
L 611.842655 339.294965 
L 629.899535 325.302403 
L 647.956415 317.86511 
L 666.013295 306.54258 
L 684.070175 299.304321 
L 702.127055 312.719331 
L 720.183935 314.310004 
L 738.240815 315.627135 
L 756.297695 305.956642 
L 774.354575 307.799144 
L 792.411455 321.269243 
L 810.468335 320.166272 
L 828.525215 304.097666 
L 846.582095 319.95704 
L 864.638975 312.587719 
L 882.695855 312.968983 
L 900.752735 304.704414 
L 918.809615 298.513219 
L 936.866495 304.641219 
L 954.923375 305.589267 
" clip-path="url(#p1764d6be61)" style="fill: none; stroke: #4ac1fa; stroke-width: 1.5; stroke-linecap: square"/>
   </g>
   <g id="line2d_46">
    <path d="M 52.079375 123.54586 
L 70.136255 88.497413 
L 88.193135 47.714993 
L 106.250015 80.519465 
L 124.306895 71.160895 
L 142.363775 92.405998 
L 160.420655 111.88334 
L 178.477535 174.204583 
L 196.534415 147.417337 
L 214.591295 187.187183 
L 232.648175 169.573047 
L 250.705055 131.327252 
L 268.761935 133.167273 
L 286.818815 127.976651 
L 304.875695 155.246448 
L 322.932575 127.821588 
L 340.989455 123.076213 
L 359.046335 120.642944 
L 377.103215 154.625679 
L 395.160095 106.746206 
L 413.216975 69.455574 
L 431.273855 164.626437 
L 449.330735 172.83496 
L 467.387615 245.926224 
L 485.444495 128.28021 
L 503.501375 168.137615 
L 557.672015 193.828889 
L 575.728895 124.397846 
L 593.785775 166.715012 
L 611.842655 232.855878 
L 629.899535 256.45915 
L 647.956415 272.918599 
L 666.013295 306.195539 
L 684.070175 346.208551 
L 702.127055 301.28561 
L 720.183935 287.391109 
L 738.240815 296.446167 
L 756.297695 329.56779 
L 774.354575 280.188729 
L 792.411455 270.745795 
L 810.468335 297.779005 
L 828.525215 336.460619 
L 846.582095 336.282406 
L 864.638975 292.405483 
L 882.695855 259.66745 
L 900.752735 295.64004 
L 918.809615 345.478337 
L 936.866495 320.112366 
L 954.923375 303.976064 
" clip-path="url(#p1764d6be61)" style="fill: none; stroke: #e9a942; stroke-width: 1.5; stroke-linecap: square"/>
   </g>
   <g id="line2d_47">
    <path d="M 52.079375 281.851052 
L 70.136255 294.987159 
L 88.193135 316.146788 
L 106.250015 299.09821 
L 124.306895 303.207635 
L 142.363775 302.433154 
L 160.420655 300.695026 
L 178.477535 293.036965 
L 196.534415 295.137439 
L 214.591295 285.054753 
L 232.648175 286.545962 
L 250.705055 304.228071 
L 268.761935 310.741722 
L 286.818815 308.78044 
L 304.875695 297.529601 
L 322.932575 309.554353 
L 340.989455 311.983471 
L 359.046335 324.851202 
L 377.103215 324.256566 
L 395.160095 338.732972 
L 413.216975 350.356825 
L 431.273855 333.788971 
L 449.330735 330.062148 
L 467.387615 325.262852 
L 485.444495 351.523161 
L 503.501375 345.006837 
L 557.672015 341.685722 
L 575.728895 355.765007 
L 593.785775 330.99493 
L 611.842655 301.066647 
L 629.899535 331.930471 
L 647.956415 328.802248 
L 666.013295 320.31723 
L 684.070175 318.05967 
L 702.127055 333.056183 
L 720.183935 332.705396 
L 738.240815 338.968565 
L 756.297695 333.417268 
L 774.354575 339.89623 
L 792.411455 340.999021 
L 810.468335 332.471443 
L 828.525215 323.429631 
L 846.582095 310.966199 
L 864.638975 335.57261 
L 882.695855 348.729081 
L 900.752735 339.823223 
L 918.809615 331.59934 
L 936.866495 341.700769 
L 954.923375 339.060867 
" clip-path="url(#p1764d6be61)" style="fill: none; stroke: #9a5689; stroke-width: 1.5; stroke-linecap: square"/>
   </g>
   <g id="line2d_48">
    <path d="M 52.079375 517.049762 
L 70.136255 517.055527 
L 88.193135 519.179861 
L 106.250015 516.243106 
L 124.306895 517.784095 
L 142.363775 516.504027 
L 160.420655 515.684581 
L 178.477535 511.910385 
L 196.534415 511.774178 
L 214.591295 509.87964 
L 232.648175 513.349618 
L 250.705055 515.47236 
L 268.761935 516.086692 
L 286.818815 515.948029 
L 304.875695 514.95568 
L 322.932575 514.721164 
L 340.989455 516.467913 
L 359.046335 515.186925 
L 377.103215 512.906028 
L 395.160095 514.355162 
L 413.216975 515.854907 
L 431.273855 510.979647 
L 449.330735 509.722546 
L 467.387615 507.265787 
L 485.444495 513.551035 
L 503.501375 511.325131 
L 557.672015 509.435183 
L 575.728895 512.300787 
L 593.785775 509.593626 
L 611.842655 510.785636 
L 629.899535 508.066478 
L 647.956415 506.836778 
L 666.013295 503.554955 
L 684.070175 503.137431 
L 702.127055 506.105033 
L 720.183935 505.540239 
L 738.240815 507.442039 
L 756.297695 505.285214 
L 774.354575 505.28592 
L 792.411455 507.413722 
L 810.468335 506.055091 
L 828.525215 504.383825 
L 846.582095 504.639469 
L 864.638975 507.28119 
L 882.695855 506.194853 
L 900.752735 506.283218 
L 918.809615 503.917467 
L 936.866495 506.667541 
L 954.923375 508.607204 
" clip-path="url(#p1764d6be61)" style="fill: none; stroke: #be503b; stroke-width: 1.5; stroke-linecap: square"/>
   </g>
   <g id="line2d_49">
    <path d="M 52.079375 278.944428 
L 70.136255 304.483068 
L 88.193135 285.244117 
L 106.250015 288.497859 
L 124.306895 286.860989 
L 142.363775 284.205395 
L 160.420655 276.315584 
L 178.477535 263.128294 
L 196.534415 286.50473 
L 214.591295 264.854988 
L 232.648175 265.686058 
L 250.705055 265.926209 
L 268.761935 254.220849 
L 286.818815 260.228843 
L 304.875695 247.502731 
L 322.932575 253.092373 
L 340.989455 258.571469 
L 359.046335 260.237619 
L 377.103215 251.971773 
L 395.160095 264.334547 
L 413.216975 273.297728 
L 431.273855 248.768026 
L 449.330735 262.963955 
L 467.387615 225.077722 
L 485.444495 254.255627 
L 503.501375 245.424627 
L 557.672015 241.227325 
L 575.728895 265.594923 
L 593.785775 279.605991 
L 611.842655 246.680236 
L 629.899535 229.839915 
L 647.956415 227.472859 
L 666.013295 247.473944 
L 684.070175 239.403496 
L 702.127055 219.59471 
L 720.183935 218.7912 
L 738.240815 212.9487 
L 756.297695 204.330946 
L 774.354575 247.618432 
L 792.411455 230.11465 
L 810.468335 233.935991 
L 828.525215 238.395886 
L 846.582095 211.55769 
L 864.638975 252.269097 
L 882.695855 266.705022 
L 900.752735 253.111185 
L 918.809615 253.006912 
L 936.866495 262.146367 
L 954.923375 266.352979 
" clip-path="url(#p1764d6be61)" style="fill: none; stroke: #e2321d; stroke-width: 1.5; stroke-linecap: square"/>
   </g>
   <g id="line2d_50">
    <path d="M 52.079375 258.550907 
L 70.136255 252.289138 
L 88.193135 282.803801 
L 106.250015 273.005674 
L 124.306895 283.748473 
L 142.363775 274.4374 
L 160.420655 264.706468 
L 178.477535 240.119004 
L 196.534415 242.200477 
L 214.591295 237.256313 
L 232.648175 249.096677 
L 250.705055 259.521423 
L 268.761935 256.124018 
L 286.818815 257.148142 
L 304.875695 261.54484 
L 322.932575 269.839162 
L 340.989455 259.555411 
L 359.046335 251.634697 
L 377.103215 240.435326 
L 395.160095 252.267965 
L 413.216975 268.953885 
L 431.273855 238.281913 
L 449.330735 231.473818 
L 467.387615 217.920681 
L 485.444495 248.604733 
L 503.501375 230.019281 
L 557.672015 226.490004 
L 575.728895 232.768976 
L 593.785775 218.936232 
L 611.842655 226.527997 
L 629.899535 206.921776 
L 647.956415 204.480236 
L 666.013295 175.162851 
L 684.070175 154.55032 
L 702.127055 186.799915 
L 720.183935 201.07222 
L 738.240815 188.945496 
L 756.297695 183.57292 
L 774.354575 180.19919 
L 792.411455 188.413974 
L 810.468335 170.011717 
L 828.525215 154.665064 
L 846.582095 177.372491 
L 864.638975 160.112114 
L 882.695855 166.303611 
L 900.752735 162.146918 
L 918.809615 129.753376 
L 936.866495 126.357264 
L 954.923375 139.377614 
" clip-path="url(#p1764d6be61)" style="fill: none; stroke: #48b585; stroke-width: 6; stroke-linecap: square"/>
   </g>
   <g id="patch_3">
    <path d="M 52.079375 567.74175 
L 52.079375 24.14175 
" style="fill: none; stroke: #ffffff; stroke-linejoin: miter; stroke-linecap: square"/>
   </g>
   <g id="patch_4">
    <path d="M 954.923375 567.74175 
L 954.923375 24.14175 
" style="fill: none; stroke: #ffffff; stroke-linejoin: miter; stroke-linecap: square"/>
   </g>
   <g id="patch_5">
    <path d="M 52.079375 567.74175 
L 954.923375 567.74175 
" style="fill: none; stroke: #ffffff; stroke-linejoin: miter; stroke-linecap: square"/>
   </g>
   <g id="patch_6">
    <path d="M 52.079375 24.14175 
L 954.923375 24.14175 
" style="fill: none; stroke: #ffffff; stroke-linejoin: miter; stroke-linecap: square"/>
   </g>
   <g id="text_22">
    <!-- Enterprise Linux 8 and 9 Instances by Distribution Share (System Age &gt; 1 Week) -->
    <g transform="translate(52.079375 18.14175)scale(0.144 -0.144)">
     <defs>
      <path id="DejaVuSans-45" d="M 628 4666 
L 3578 4666 
L 3578 4134 
L 1259 4134 
L 1259 2753 
L 3481 2753 
L 3481 2222 
L 1259 2222 
L 1259 531 
L 3634 531 
L 3634 0 
L 628 0 
L 628 4666 
z
" transform="scale(0.015625)"/>
      <path id="DejaVuSans-6e" d="M 3513 2113 
L 3513 0 
L 2938 0 
L 2938 2094 
Q 2938 2591 2744 2837 
Q 2550 3084 2163 3084 
Q 1697 3084 1428 2787 
Q 1159 2491 1159 1978 
L 1159 0 
L 581 0 
L 581 3500 
L 1159 3500 
L 1159 2956 
Q 1366 3272 1645 3428 
Q 1925 3584 2291 3584 
Q 2894 3584 3203 3211 
Q 3513 2838 3513 2113 
z
" transform="scale(0.015625)"/>
      <path id="DejaVuSans-70" d="M 1159 525 
L 1159 -1331 
L 581 -1331 
L 581 3500 
L 1159 3500 
L 1159 2969 
Q 1341 3281 1617 3432 
Q 1894 3584 2278 3584 
Q 2916 3584 3314 3078 
Q 3713 2572 3713 1747 
Q 3713 922 3314 415 
Q 2916 -91 2278 -91 
Q 1894 -91 1617 61 
Q 1341 213 1159 525 
z
M 3116 1747 
Q 3116 2381 2855 2742 
Q 2594 3103 2138 3103 
Q 1681 3103 1420 2742 
Q 1159 2381 1159 1747 
Q 1159 1113 1420 752 
Q 1681 391 2138 391 
Q 2594 391 2855 752 
Q 3116 1113 3116 1747 
z
" transform="scale(0.015625)"/>
      <path id="DejaVuSans-69" d="M 603 3500 
L 1178 3500 
L 1178 0 
L 603 0 
L 603 3500 
z
M 603 4863 
L 1178 4863 
L 1178 4134 
L 603 4134 
L 603 4863 
z
" transform="scale(0.015625)"/>
      <path id="DejaVuSans-73" d="M 2834 3397 
L 2834 2853 
Q 2591 2978 2328 3040 
Q 2066 3103 1784 3103 
Q 1356 3103 1142 2972 
Q 928 2841 928 2578 
Q 928 2378 1081 2264 
Q 1234 2150 1697 2047 
L 1894 2003 
Q 2506 1872 2764 1633 
Q 3022 1394 3022 966 
Q 3022 478 2636 193 
Q 2250 -91 1575 -91 
Q 1294 -91 989 -36 
Q 684 19 347 128 
L 347 722 
Q 666 556 975 473 
Q 1284 391 1588 391 
Q 1994 391 2212 530 
Q 2431 669 2431 922 
Q 2431 1156 2273 1281 
Q 2116 1406 1581 1522 
L 1381 1569 
Q 847 1681 609 1914 
Q 372 2147 372 2553 
Q 372 3047 722 3315 
Q 1072 3584 1716 3584 
Q 2034 3584 2315 3537 
Q 2597 3491 2834 3397 
z
" transform="scale(0.015625)"/>
      <path id="DejaVuSans-20" transform="scale(0.015625)"/>
      <path id="DejaVuSans-4c" d="M 628 4666 
L 1259 4666 
L 1259 531 
L 3531 531 
L 3531 0 
L 628 0 
L 628 4666 
z
" transform="scale(0.015625)"/>
      <path id="DejaVuSans-75" d="M 544 1381 
L 544 3500 
L 1119 3500 
L 1119 1403 
Q 1119 906 1312 657 
Q 1506 409 1894 409 
Q 2359 409 2629 706 
Q 2900 1003 2900 1516 
L 2900 3500 
L 3475 3500 
L 3475 0 
L 2900 0 
L 2900 538 
Q 2691 219 2414 64 
Q 2138 -91 1772 -91 
Q 1169 -91 856 284 
Q 544 659 544 1381 
z
M 1991 3584 
L 1991 3584 
z
" transform="scale(0.015625)"/>
      <path id="DejaVuSans-78" d="M 3513 3500 
L 2247 1797 
L 3578 0 
L 2900 0 
L 1881 1375 
L 863 0 
L 184 0 
L 1544 1831 
L 300 3500 
L 978 3500 
L 1906 2253 
L 2834 3500 
L 3513 3500 
z
" transform="scale(0.015625)"/>
      <path id="DejaVuSans-64" d="M 2906 2969 
L 2906 4863 
L 3481 4863 
L 3481 0 
L 2906 0 
L 2906 525 
Q 2725 213 2448 61 
Q 2172 -91 1784 -91 
Q 1150 -91 751 415 
Q 353 922 353 1747 
Q 353 2572 751 3078 
Q 1150 3584 1784 3584 
Q 2172 3584 2448 3432 
Q 2725 3281 2906 2969 
z
M 947 1747 
Q 947 1113 1208 752 
Q 1469 391 1925 391 
Q 2381 391 2643 752 
Q 2906 1113 2906 1747 
Q 2906 2381 2643 2742 
Q 2381 3103 1925 3103 
Q 1469 3103 1208 2742 
Q 947 2381 947 1747 
z
" transform="scale(0.015625)"/>
      <path id="DejaVuSans-49" d="M 628 4666 
L 1259 4666 
L 1259 0 
L 628 0 
L 628 4666 
z
" transform="scale(0.015625)"/>
      <path id="DejaVuSans-63" d="M 3122 3366 
L 3122 2828 
Q 2878 2963 2633 3030 
Q 2388 3097 2138 3097 
Q 1578 3097 1268 2742 
Q 959 2388 959 1747 
Q 959 1106 1268 751 
Q 1578 397 2138 397 
Q 2388 397 2633 464 
Q 2878 531 3122 666 
L 3122 134 
Q 2881 22 2623 -34 
Q 2366 -91 2075 -91 
Q 1284 -91 818 406 
Q 353 903 353 1747 
Q 353 2603 823 3093 
Q 1294 3584 2113 3584 
Q 2378 3584 2631 3529 
Q 2884 3475 3122 3366 
z
" transform="scale(0.015625)"/>
      <path id="DejaVuSans-62" d="M 3116 1747 
Q 3116 2381 2855 2742 
Q 2594 3103 2138 3103 
Q 1681 3103 1420 2742 
Q 1159 2381 1159 1747 
Q 1159 1113 1420 752 
Q 1681 391 2138 391 
Q 2594 391 2855 752 
Q 3116 1113 3116 1747 
z
M 1159 2969 
Q 1341 3281 1617 3432 
Q 1894 3584 2278 3584 
Q 2916 3584 3314 3078 
Q 3713 2572 3713 1747 
Q 3713 922 3314 415 
Q 2916 -91 2278 -91 
Q 1894 -91 1617 61 
Q 1341 213 1159 525 
L 1159 0 
L 581 0 
L 581 4863 
L 1159 4863 
L 1159 2969 
z
" transform="scale(0.015625)"/>
      <path id="DejaVuSans-79" d="M 2059 -325 
Q 1816 -950 1584 -1140 
Q 1353 -1331 966 -1331 
L 506 -1331 
L 506 -850 
L 844 -850 
Q 1081 -850 1212 -737 
Q 1344 -625 1503 -206 
L 1606 56 
L 191 3500 
L 800 3500 
L 1894 763 
L 2988 3500 
L 3597 3500 
L 2059 -325 
z
" transform="scale(0.015625)"/>
      <path id="DejaVuSans-6f" d="M 1959 3097 
Q 1497 3097 1228 2736 
Q 959 2375 959 1747 
Q 959 1119 1226 758 
Q 1494 397 1959 397 
Q 2419 397 2687 759 
Q 2956 1122 2956 1747 
Q 2956 2369 2687 2733 
Q 2419 3097 1959 3097 
z
M 1959 3584 
Q 2709 3584 3137 3096 
Q 3566 2609 3566 1747 
Q 3566 888 3137 398 
Q 2709 -91 1959 -91 
Q 1206 -91 779 398 
Q 353 888 353 1747 
Q 353 2609 779 3096 
Q 1206 3584 1959 3584 
z
" transform="scale(0.015625)"/>
      <path id="DejaVuSans-28" d="M 1984 4856 
Q 1566 4138 1362 3434 
Q 1159 2731 1159 2009 
Q 1159 1288 1364 580 
Q 1569 -128 1984 -844 
L 1484 -844 
Q 1016 -109 783 600 
Q 550 1309 550 2009 
Q 550 2706 781 3412 
Q 1013 4119 1484 4856 
L 1984 4856 
z
" transform="scale(0.015625)"/>
      <path id="DejaVuSans-6d" d="M 3328 2828 
Q 3544 3216 3844 3400 
Q 4144 3584 4550 3584 
Q 5097 3584 5394 3201 
Q 5691 2819 5691 2113 
L 5691 0 
L 5113 0 
L 5113 2094 
Q 5113 2597 4934 2840 
Q 4756 3084 4391 3084 
Q 3944 3084 3684 2787 
Q 3425 2491 3425 1978 
L 3425 0 
L 2847 0 
L 2847 2094 
Q 2847 2600 2669 2842 
Q 2491 3084 2119 3084 
Q 1678 3084 1418 2786 
Q 1159 2488 1159 1978 
L 1159 0 
L 581 0 
L 581 3500 
L 1159 3500 
L 1159 2956 
Q 1356 3278 1631 3431 
Q 1906 3584 2284 3584 
Q 2666 3584 2933 3390 
Q 3200 3197 3328 2828 
z
" transform="scale(0.015625)"/>
      <path id="DejaVuSans-41" d="M 2188 4044 
L 1331 1722 
L 3047 1722 
L 2188 4044 
z
M 1831 4666 
L 2547 4666 
L 4325 0 
L 3669 0 
L 3244 1197 
L 1141 1197 
L 716 0 
L 50 0 
L 1831 4666 
z
" transform="scale(0.015625)"/>
      <path id="DejaVuSans-67" d="M 2906 1791 
Q 2906 2416 2648 2759 
Q 2391 3103 1925 3103 
Q 1463 3103 1205 2759 
Q 947 2416 947 1791 
Q 947 1169 1205 825 
Q 1463 481 1925 481 
Q 2391 481 2648 825 
Q 2906 1169 2906 1791 
z
M 3481 434 
Q 3481 -459 3084 -895 
Q 2688 -1331 1869 -1331 
Q 1566 -1331 1297 -1286 
Q 1028 -1241 775 -1147 
L 775 -588 
Q 1028 -725 1275 -790 
Q 1522 -856 1778 -856 
Q 2344 -856 2625 -561 
Q 2906 -266 2906 331 
L 2906 616 
Q 2728 306 2450 153 
Q 2172 0 1784 0 
Q 1141 0 747 490 
Q 353 981 353 1791 
Q 353 2603 747 3093 
Q 1141 3584 1784 3584 
Q 2172 3584 2450 3431 
Q 2728 3278 2906 2969 
L 2906 3500 
L 3481 3500 
L 3481 434 
z
" transform="scale(0.015625)"/>
      <path id="DejaVuSans-3e" d="M 678 3150 
L 678 3719 
L 4684 2266 
L 4684 1747 
L 678 294 
L 678 863 
L 3897 2003 
L 678 3150 
z
" transform="scale(0.015625)"/>
      <path id="DejaVuSans-57" d="M 213 4666 
L 850 4666 
L 1831 722 
L 2809 4666 
L 3519 4666 
L 4500 722 
L 5478 4666 
L 6119 4666 
L 4947 0 
L 4153 0 
L 3169 4050 
L 2175 0 
L 1381 0 
L 213 4666 
z
" transform="scale(0.015625)"/>
      <path id="DejaVuSans-6b" d="M 581 4863 
L 1159 4863 
L 1159 1991 
L 2875 3500 
L 3609 3500 
L 1753 1863 
L 3688 0 
L 2938 0 
L 1159 1709 
L 1159 0 
L 581 0 
L 581 4863 
z
" transform="scale(0.015625)"/>
      <path id="DejaVuSans-29" d="M 513 4856 
L 1013 4856 
Q 1481 4119 1714 3412 
Q 1947 2706 1947 2009 
Q 1947 1309 1714 600 
Q 1481 -109 1013 -844 
L 513 -844 
Q 928 -128 1133 580 
Q 1338 1288 1338 2009 
Q 1338 2731 1133 3434 
Q 928 4138 513 4856 
z
" transform="scale(0.015625)"/>
     </defs>
     <use xlink:href="#DejaVuSans-45"/>
     <use xlink:href="#DejaVuSans-6e" x="63.183594"/>
     <use xlink:href="#DejaVuSans-74" x="126.5625"/>
     <use xlink:href="#DejaVuSans-65" x="165.771484"/>
     <use xlink:href="#DejaVuSans-72" x="227.294922"/>
     <use xlink:href="#DejaVuSans-70" x="268.408203"/>
     <use xlink:href="#DejaVuSans-72" x="331.884766"/>
     <use xlink:href="#DejaVuSans-69" x="372.998047"/>
     <use xlink:href="#DejaVuSans-73" x="400.78125"/>
     <use xlink:href="#DejaVuSans-65" x="452.880859"/>
     <use xlink:href="#DejaVuSans-20" x="514.404297"/>
     <use xlink:href="#DejaVuSans-4c" x="546.191406"/>
     <use xlink:href="#DejaVuSans-69" x="601.904297"/>
     <use xlink:href="#DejaVuSans-6e" x="629.6875"/>
     <use xlink:href="#DejaVuSans-75" x="693.066406"/>
     <use xlink:href="#DejaVuSans-78" x="756.445312"/>
     <use xlink:href="#DejaVuSans-20" x="815.625"/>
     <use xlink:href="#DejaVuSans-38" x="847.412109"/>
     <use xlink:href="#DejaVuSans-20" x="911.035156"/>
     <use xlink:href="#DejaVuSans-61" x="942.822266"/>
     <use xlink:href="#DejaVuSans-6e" x="1004.101562"/>
     <use xlink:href="#DejaVuSans-64" x="1067.480469"/>
     <use xlink:href="#DejaVuSans-20" x="1130.957031"/>
     <use xlink:href="#DejaVuSans-39" x="1162.744141"/>
     <use xlink:href="#DejaVuSans-20" x="1226.367188"/>
     <use xlink:href="#DejaVuSans-49" x="1258.154297"/>
     <use xlink:href="#DejaVuSans-6e" x="1287.646484"/>
     <use xlink:href="#DejaVuSans-73" x="1351.025391"/>
     <use xlink:href="#DejaVuSans-74" x="1403.125"/>
     <use xlink:href="#DejaVuSans-61" x="1442.333984"/>
     <use xlink:href="#DejaVuSans-6e" x="1503.613281"/>
     <use xlink:href="#DejaVuSans-63" x="1566.992188"/>
     <use xlink:href="#DejaVuSans-65" x="1621.972656"/>
     <use xlink:href="#DejaVuSans-73" x="1683.496094"/>
     <use xlink:href="#DejaVuSans-20" x="1735.595703"/>
     <use xlink:href="#DejaVuSans-62" x="1767.382812"/>
     <use xlink:href="#DejaVuSans-79" x="1830.859375"/>
     <use xlink:href="#DejaVuSans-20" x="1890.039062"/>
     <use xlink:href="#DejaVuSans-44" x="1921.826172"/>
     <use xlink:href="#DejaVuSans-69" x="1998.828125"/>
     <use xlink:href="#DejaVuSans-73" x="2026.611328"/>
     <use xlink:href="#DejaVuSans-74" x="2078.710938"/>
     <use xlink:href="#DejaVuSans-72" x="2117.919922"/>
     <use xlink:href="#DejaVuSans-69" x="2159.033203"/>
     <use xlink:href="#DejaVuSans-62" x="2186.816406"/>
     <use xlink:href="#DejaVuSans-75" x="2250.292969"/>
     <use xlink:href="#DejaVuSans-74" x="2313.671875"/>
     <use xlink:href="#DejaVuSans-69" x="2352.880859"/>
     <use xlink:href="#DejaVuSans-6f" x="2380.664062"/>
     <use xlink:href="#DejaVuSans-6e" x="2441.845703"/>
     <use xlink:href="#DejaVuSans-20" x="2505.224609"/>
     <use xlink:href="#DejaVuSans-53" x="2537.011719"/>
     <use xlink:href="#DejaVuSans-68" x="2600.488281"/>
     <use xlink:href="#DejaVuSans-61" x="2663.867188"/>
     <use xlink:href="#DejaVuSans-72" x="2725.146484"/>
     <use xlink:href="#DejaVuSans-65" x="2764.009766"/>
     <use xlink:href="#DejaVuSans-20" x="2825.533203"/>
     <use xlink:href="#DejaVuSans-28" x="2857.320312"/>
     <use xlink:href="#DejaVuSans-53" x="2896.333984"/>
     <use xlink:href="#DejaVuSans-79" x="2959.810547"/>
     <use xlink:href="#DejaVuSans-73" x="3018.990234"/>
     <use xlink:href="#DejaVuSans-74" x="3071.089844"/>
     <use xlink:href="#DejaVuSans-65" x="3110.298828"/>
     <use xlink:href="#DejaVuSans-6d" x="3171.822266"/>
     <use xlink:href="#DejaVuSans-20" x="3269.234375"/>
     <use xlink:href="#DejaVuSans-41" x="3301.021484"/>
     <use xlink:href="#DejaVuSans-67" x="3369.429688"/>
     <use xlink:href="#DejaVuSans-65" x="3432.90625"/>
     <use xlink:href="#DejaVuSans-20" x="3494.429688"/>
     <use xlink:href="#DejaVuSans-3e" x="3526.216797"/>
     <use xlink:href="#DejaVuSans-20" x="3610.005859"/>
     <use xlink:href="#DejaVuSans-31" x="3641.792969"/>
     <use xlink:href="#DejaVuSans-20" x="3705.416016"/>
     <use xlink:href="#DejaVuSans-57" x="3737.203125"/>
     <use xlink:href="#DejaVuSans-65" x="3830.205078"/>
     <use xlink:href="#DejaVuSans-65" x="3891.728516"/>
     <use xlink:href="#DejaVuSans-6b" x="3953.251953"/>
     <use xlink:href="#DejaVuSans-29" x="4011.162109"/>
    </g>
   </g>
   <g id="text_23">
    <!-- 2023-11-02 11:54 UTC -->
    <g transform="translate(792.041375 18.14175)scale(0.144 -0.144)">
     <defs>
      <path id="DejaVuSans-3a" d="M 750 794 
L 1409 794 
L 1409 0 
L 750 0 
L 750 794 
z
M 750 3309 
L 1409 3309 
L 1409 2516 
L 750 2516 
L 750 3309 
z
" transform="scale(0.015625)"/>
      <path id="DejaVuSans-55" d="M 556 4666 
L 1191 4666 
L 1191 1831 
Q 1191 1081 1462 751 
Q 1734 422 2344 422 
Q 2950 422 3222 751 
Q 3494 1081 3494 1831 
L 3494 4666 
L 4128 4666 
L 4128 1753 
Q 4128 841 3676 375 
Q 3225 -91 2344 -91 
Q 1459 -91 1007 375 
Q 556 841 556 1753 
L 556 4666 
z
" transform="scale(0.015625)"/>
      <path id="DejaVuSans-54" d="M -19 4666 
L 3928 4666 
L 3928 4134 
L 2272 4134 
L 2272 0 
L 1638 0 
L 1638 4134 
L -19 4134 
L -19 4666 
z
" transform="scale(0.015625)"/>
      <path id="DejaVuSans-43" d="M 4122 4306 
L 4122 3641 
Q 3803 3938 3442 4084 
Q 3081 4231 2675 4231 
Q 1875 4231 1450 3742 
Q 1025 3253 1025 2328 
Q 1025 1406 1450 917 
Q 1875 428 2675 428 
Q 3081 428 3442 575 
Q 3803 722 4122 1019 
L 4122 359 
Q 3791 134 3420 21 
Q 3050 -91 2638 -91 
Q 1578 -91 968 557 
Q 359 1206 359 2328 
Q 359 3453 968 4101 
Q 1578 4750 2638 4750 
Q 3056 4750 3426 4639 
Q 3797 4528 4122 4306 
z
" transform="scale(0.015625)"/>
     </defs>
     <use xlink:href="#DejaVuSans-32"/>
     <use xlink:href="#DejaVuSans-30" x="63.623047"/>
     <use xlink:href="#DejaVuSans-32" x="127.246094"/>
     <use xlink:href="#DejaVuSans-33" x="190.869141"/>
     <use xlink:href="#DejaVuSans-2d" x="254.492188"/>
     <use xlink:href="#DejaVuSans-31" x="290.576172"/>
     <use xlink:href="#DejaVuSans-31" x="354.199219"/>
     <use xlink:href="#DejaVuSans-2d" x="417.822266"/>
     <use xlink:href="#DejaVuSans-30" x="453.90625"/>
     <use xlink:href="#DejaVuSans-32" x="517.529297"/>
     <use xlink:href="#DejaVuSans-20" x="581.152344"/>
     <use xlink:href="#DejaVuSans-31" x="612.939453"/>
     <use xlink:href="#DejaVuSans-31" x="676.5625"/>
     <use xlink:href="#DejaVuSans-3a" x="740.185547"/>
     <use xlink:href="#DejaVuSans-35" x="773.876953"/>
     <use xlink:href="#DejaVuSans-34" x="837.5"/>
     <use xlink:href="#DejaVuSans-20" x="901.123047"/>
     <use xlink:href="#DejaVuSans-55" x="932.910156"/>
     <use xlink:href="#DejaVuSans-54" x="1006.103516"/>
     <use xlink:href="#DejaVuSans-43" x="1061.3125"/>
    </g>
   </g>
   <g id="legend_1">
    <g id="patch_7">
     <path d="M 449.017 134.888625 
L 557.98575 134.888625 
Q 559.98575 134.888625 559.98575 132.888625 
L 559.98575 31.14175 
Q 559.98575 29.14175 557.98575 29.14175 
L 449.017 29.14175 
Q 447.017 29.14175 447.017 31.14175 
L 447.017 132.888625 
Q 447.017 134.888625 449.017 134.888625 
z
" style="fill: #e5e5e5; opacity: 0.8; stroke: #cccccc; stroke-width: 0.5; stroke-linejoin: miter"/>
    </g>
    <g id="text_24">
     <!-- Distribution -->
     <g transform="translate(474.332625 40.740187)scale(0.1 -0.1)">
      <use xlink:href="#DejaVuSans-44"/>
      <use xlink:href="#DejaVuSans-69" x="77.001953"/>
      <use xlink:href="#DejaVuSans-73" x="104.785156"/>
      <use xlink:href="#DejaVuSans-74" x="156.884766"/>
      <use xlink:href="#DejaVuSans-72" x="196.09375"/>
      <use xlink:href="#DejaVuSans-69" x="237.207031"/>
      <use xlink:href="#DejaVuSans-62" x="264.990234"/>
      <use xlink:href="#DejaVuSans-75" x="328.466797"/>
      <use xlink:href="#DejaVuSans-74" x="391.845703"/>
      <use xlink:href="#DejaVuSans-69" x="431.054688"/>
      <use xlink:href="#DejaVuSans-6f" x="458.837891"/>
      <use xlink:href="#DejaVuSans-6e" x="520.019531"/>
     </g>
    </g>
    <g id="line2d_51">
     <path d="M 451.017 51.918312 
L 461.017 51.918312 
L 471.017 51.918312 
" style="fill: none; stroke: #4ac1fa; stroke-width: 1.5; stroke-linecap: square"/>
    </g>
    <g id="text_25">
     <!-- AlmaLinux -->
     <g transform="translate(479.017 55.418312)scale(0.1 -0.1)">
      <defs>
       <path id="DejaVuSans-6c" d="M 603 4863 
L 1178 4863 
L 1178 0 
L 603 0 
L 603 4863 
z
" transform="scale(0.015625)"/>
      </defs>
      <use xlink:href="#DejaVuSans-41"/>
      <use xlink:href="#DejaVuSans-6c" x="68.408203"/>
      <use xlink:href="#DejaVuSans-6d" x="96.191406"/>
      <use xlink:href="#DejaVuSans-61" x="193.603516"/>
      <use xlink:href="#DejaVuSans-4c" x="254.882812"/>
      <use xlink:href="#DejaVuSans-69" x="310.595703"/>
      <use xlink:href="#DejaVuSans-6e" x="338.378906"/>
      <use xlink:href="#DejaVuSans-75" x="401.757812"/>
      <use xlink:href="#DejaVuSans-78" x="465.136719"/>
     </g>
    </g>
    <g id="line2d_52">
     <path d="M 451.017 66.596437 
L 461.017 66.596437 
L 471.017 66.596437 
" style="fill: none; stroke: #e9a942; stroke-width: 1.5; stroke-linecap: square"/>
    </g>
    <g id="text_26">
     <!-- CentOS Legacy -->
     <g transform="translate(479.017 70.096437)scale(0.1 -0.1)">
      <defs>
       <path id="DejaVuSans-4f" d="M 2522 4238 
Q 1834 4238 1429 3725 
Q 1025 3213 1025 2328 
Q 1025 1447 1429 934 
Q 1834 422 2522 422 
Q 3209 422 3611 934 
Q 4013 1447 4013 2328 
Q 4013 3213 3611 3725 
Q 3209 4238 2522 4238 
z
M 2522 4750 
Q 3503 4750 4090 4092 
Q 4678 3434 4678 2328 
Q 4678 1225 4090 567 
Q 3503 -91 2522 -91 
Q 1538 -91 948 565 
Q 359 1222 359 2328 
Q 359 3434 948 4092 
Q 1538 4750 2522 4750 
z
" transform="scale(0.015625)"/>
      </defs>
      <use xlink:href="#DejaVuSans-43"/>
      <use xlink:href="#DejaVuSans-65" x="69.824219"/>
      <use xlink:href="#DejaVuSans-6e" x="131.347656"/>
      <use xlink:href="#DejaVuSans-74" x="194.726562"/>
      <use xlink:href="#DejaVuSans-4f" x="233.935547"/>
      <use xlink:href="#DejaVuSans-53" x="312.646484"/>
      <use xlink:href="#DejaVuSans-20" x="376.123047"/>
      <use xlink:href="#DejaVuSans-4c" x="407.910156"/>
      <use xlink:href="#DejaVuSans-65" x="461.873047"/>
      <use xlink:href="#DejaVuSans-67" x="523.396484"/>
      <use xlink:href="#DejaVuSans-61" x="586.873047"/>
      <use xlink:href="#DejaVuSans-63" x="648.152344"/>
      <use xlink:href="#DejaVuSans-79" x="703.132812"/>
     </g>
    </g>
    <g id="line2d_53">
     <path d="M 451.017 81.274563 
L 461.017 81.274563 
L 471.017 81.274563 
" style="fill: none; stroke: #9a5689; stroke-width: 1.5; stroke-linecap: square"/>
    </g>
    <g id="text_27">
     <!-- CentOS Stream -->
     <g transform="translate(479.017 84.774563)scale(0.1 -0.1)">
      <use xlink:href="#DejaVuSans-43"/>
      <use xlink:href="#DejaVuSans-65" x="69.824219"/>
      <use xlink:href="#DejaVuSans-6e" x="131.347656"/>
      <use xlink:href="#DejaVuSans-74" x="194.726562"/>
      <use xlink:href="#DejaVuSans-4f" x="233.935547"/>
      <use xlink:href="#DejaVuSans-53" x="312.646484"/>
      <use xlink:href="#DejaVuSans-20" x="376.123047"/>
      <use xlink:href="#DejaVuSans-53" x="407.910156"/>
      <use xlink:href="#DejaVuSans-74" x="471.386719"/>
      <use xlink:href="#DejaVuSans-72" x="510.595703"/>
      <use xlink:href="#DejaVuSans-65" x="549.458984"/>
      <use xlink:href="#DejaVuSans-61" x="610.982422"/>
      <use xlink:href="#DejaVuSans-6d" x="672.261719"/>
     </g>
    </g>
    <g id="line2d_54">
     <path d="M 451.017 95.952687 
L 461.017 95.952687 
L 471.017 95.952687 
" style="fill: none; stroke: #be503b; stroke-width: 1.5; stroke-linecap: square"/>
    </g>
    <g id="text_28">
     <!-- Oracle -->
     <g transform="translate(479.017 99.452687)scale(0.1 -0.1)">
      <use xlink:href="#DejaVuSans-4f"/>
      <use xlink:href="#DejaVuSans-72" x="78.710938"/>
      <use xlink:href="#DejaVuSans-61" x="119.824219"/>
      <use xlink:href="#DejaVuSans-63" x="181.103516"/>
      <use xlink:href="#DejaVuSans-6c" x="236.083984"/>
      <use xlink:href="#DejaVuSans-65" x="263.867188"/>
     </g>
    </g>
    <g id="line2d_55">
     <path d="M 451.017 110.630812 
L 461.017 110.630812 
L 471.017 110.630812 
" style="fill: none; stroke: #e2321d; stroke-width: 1.5; stroke-linecap: square"/>
    </g>
    <g id="text_29">
     <!-- RHEL -->
     <g transform="translate(479.017 114.130812)scale(0.1 -0.1)">
      <defs>
       <path id="DejaVuSans-52" d="M 2841 2188 
Q 3044 2119 3236 1894 
Q 3428 1669 3622 1275 
L 4263 0 
L 3584 0 
L 2988 1197 
Q 2756 1666 2539 1819 
Q 2322 1972 1947 1972 
L 1259 1972 
L 1259 0 
L 628 0 
L 628 4666 
L 2053 4666 
Q 2853 4666 3247 4331 
Q 3641 3997 3641 3322 
Q 3641 2881 3436 2590 
Q 3231 2300 2841 2188 
z
M 1259 4147 
L 1259 2491 
L 2053 2491 
Q 2509 2491 2742 2702 
Q 2975 2913 2975 3322 
Q 2975 3731 2742 3939 
Q 2509 4147 2053 4147 
L 1259 4147 
z
" transform="scale(0.015625)"/>
       <path id="DejaVuSans-48" d="M 628 4666 
L 1259 4666 
L 1259 2753 
L 3553 2753 
L 3553 4666 
L 4184 4666 
L 4184 0 
L 3553 0 
L 3553 2222 
L 1259 2222 
L 1259 0 
L 628 0 
L 628 4666 
z
" transform="scale(0.015625)"/>
      </defs>
      <use xlink:href="#DejaVuSans-52"/>
      <use xlink:href="#DejaVuSans-48" x="69.482422"/>
      <use xlink:href="#DejaVuSans-45" x="144.677734"/>
      <use xlink:href="#DejaVuSans-4c" x="207.861328"/>
     </g>
    </g>
    <g id="line2d_56">
     <path d="M 451.017 125.308937 
L 461.017 125.308937 
L 471.017 125.308937 
" style="fill: none; stroke: #48b585; stroke-width: 6; stroke-linecap: square"/>
    </g>
    <g id="text_30">
     <!-- Rocky Linux -->
     <g transform="translate(479.017 128.808937)scale(0.1 -0.1)">
      <use xlink:href="#DejaVuSans-52"/>
      <use xlink:href="#DejaVuSans-6f" x="64.982422"/>
      <use xlink:href="#DejaVuSans-63" x="126.164062"/>
      <use xlink:href="#DejaVuSans-6b" x="181.144531"/>
      <use xlink:href="#DejaVuSans-79" x="235.429688"/>
      <use xlink:href="#DejaVuSans-20" x="294.609375"/>
      <use xlink:href="#DejaVuSans-4c" x="326.396484"/>
      <use xlink:href="#DejaVuSans-69" x="382.109375"/>
      <use xlink:href="#DejaVuSans-6e" x="409.892578"/>
      <use xlink:href="#DejaVuSans-75" x="473.271484"/>
      <use xlink:href="#DejaVuSans-78" x="536.650391"/>
     </g>
    </g>
   </g>
  </g>
 </g>
 <defs>
  <clipPath id="p1764d6be61">
   <rect x="52.079375" y="24.14175" width="902.844" height="543.6"/>
  </clipPath>
 </defs>
</svg>
