<?xml version="1.0" encoding="utf-8" standalone="no"?>
<!DOCTYPE svg PUBLIC "-//W3C//DTD SVG 1.1//EN"
  "http://www.w3.org/Graphics/SVG/1.1/DTD/svg11.dtd">
<svg xmlns:xlink="http://www.w3.org/1999/xlink" width="962.123375pt" height="644.743878pt" viewBox="0 0 962.123375 644.743878" xmlns="http://www.w3.org/2000/svg" version="1.1">
 <metadata>
  <rdf:RDF xmlns:dc="http://purl.org/dc/elements/1.1/" xmlns:cc="http://creativecommons.org/ns#" xmlns:rdf="http://www.w3.org/1999/02/22-rdf-syntax-ns#">
   <cc:Work>
    <dc:type rdf:resource="http://purl.org/dc/dcmitype/StillImage"/>
    <dc:date>2025-04-10T11:54:46.397109</dc:date>
    <dc:format>image/svg+xml</dc:format>
    <dc:creator>
     <cc:Agent>
      <dc:title>Matplotlib v3.6.3, https://matplotlib.org/</dc:title>
     </cc:Agent>
    </dc:creator>
   </cc:Work>
  </rdf:RDF>
 </metadata>
 <defs>
  <style type="text/css">*{stroke-linejoin: round; stroke-linecap: butt}</style>
 </defs>
 <g id="figure_1">
  <g id="patch_1">
   <path d="M 0 644.743878 
L 962.123375 644.743878 
L 962.123375 0 
L 0 0 
z
" style="fill: #ffffff"/>
  </g>
  <g id="axes_1">
   <g id="patch_2">
    <path d="M 52.079375 578.54175 
L 954.923375 578.54175 
L 954.923375 24.14175 
L 52.079375 24.14175 
z
" style="fill: #e5e5e5"/>
   </g>
   <g id="matplotlib.axis_1">
    <g id="xtick_1">
     <g id="line2d_1">
      <path d="M 69.782199 578.54175 
L 69.782199 24.14175 
" clip-path="url(#p62e55e4d63)" style="fill: none; stroke: #ffffff; stroke-width: 0.8; stroke-linecap: square"/>
     </g>
     <g id="line2d_2">
      <defs>
       <path id="m3a1b0e3fad" d="M 0 0 
L 0 3.5 
" style="stroke: #555555; stroke-width: 0.8"/>
      </defs>
      <g>
       <use xlink:href="#m3a1b0e3fad" x="69.782199" y="578.54175" style="fill: #555555; stroke: #555555; stroke-width: 0.8"/>
      </g>
     </g>
     <g id="text_1">
      <!-- 2024-04 -->
      <g style="fill: #555555" transform="translate(56.960916 620.459567) rotate(-45) scale(0.1 -0.1)">
       <defs>
        <path id="DejaVuSans-32" d="M 1228 531 
L 3431 531 
L 3431 0 
L 469 0 
L 469 531 
Q 828 903 1448 1529 
Q 2069 2156 2228 2338 
Q 2531 2678 2651 2914 
Q 2772 3150 2772 3378 
Q 2772 3750 2511 3984 
Q 2250 4219 1831 4219 
Q 1534 4219 1204 4116 
Q 875 4013 500 3803 
L 500 4441 
Q 881 4594 1212 4672 
Q 1544 4750 1819 4750 
Q 2544 4750 2975 4387 
Q 3406 4025 3406 3419 
Q 3406 3131 3298 2873 
Q 3191 2616 2906 2266 
Q 2828 2175 2409 1742 
Q 1991 1309 1228 531 
z
" transform="scale(0.015625)"/>
        <path id="DejaVuSans-30" d="M 2034 4250 
Q 1547 4250 1301 3770 
Q 1056 3291 1056 2328 
Q 1056 1369 1301 889 
Q 1547 409 2034 409 
Q 2525 409 2770 889 
Q 3016 1369 3016 2328 
Q 3016 3291 2770 3770 
Q 2525 4250 2034 4250 
z
M 2034 4750 
Q 2819 4750 3233 4129 
Q 3647 3509 3647 2328 
Q 3647 1150 3233 529 
Q 2819 -91 2034 -91 
Q 1250 -91 836 529 
Q 422 1150 422 2328 
Q 422 3509 836 4129 
Q 1250 4750 2034 4750 
z
" transform="scale(0.015625)"/>
        <path id="DejaVuSans-34" d="M 2419 4116 
L 825 1625 
L 2419 1625 
L 2419 4116 
z
M 2253 4666 
L 3047 4666 
L 3047 1625 
L 3713 1625 
L 3713 1100 
L 3047 1100 
L 3047 0 
L 2419 0 
L 2419 1100 
L 313 1100 
L 313 1709 
L 2253 4666 
z
" transform="scale(0.015625)"/>
        <path id="DejaVuSans-2d" d="M 313 2009 
L 1997 2009 
L 1997 1497 
L 313 1497 
L 313 2009 
z
" transform="scale(0.015625)"/>
       </defs>
       <use xlink:href="#DejaVuSans-32"/>
       <use xlink:href="#DejaVuSans-30" x="63.623047"/>
       <use xlink:href="#DejaVuSans-32" x="127.246094"/>
       <use xlink:href="#DejaVuSans-34" x="190.869141"/>
       <use xlink:href="#DejaVuSans-2d" x="254.492188"/>
       <use xlink:href="#DejaVuSans-30" x="290.576172"/>
       <use xlink:href="#DejaVuSans-34" x="354.199219"/>
      </g>
     </g>
    </g>
    <g id="xtick_2">
     <g id="line2d_3">
      <path d="M 145.651442 578.54175 
L 145.651442 24.14175 
" clip-path="url(#p62e55e4d63)" style="fill: none; stroke: #ffffff; stroke-width: 0.8; stroke-linecap: square"/>
     </g>
     <g id="line2d_4">
      <g>
       <use xlink:href="#m3a1b0e3fad" x="145.651442" y="578.54175" style="fill: #555555; stroke: #555555; stroke-width: 0.8"/>
      </g>
     </g>
     <g id="text_2">
      <!-- 2024-05 -->
      <g style="fill: #555555" transform="translate(132.83016 620.459567) rotate(-45) scale(0.1 -0.1)">
       <defs>
        <path id="DejaVuSans-35" d="M 691 4666 
L 3169 4666 
L 3169 4134 
L 1269 4134 
L 1269 2991 
Q 1406 3038 1543 3061 
Q 1681 3084 1819 3084 
Q 2600 3084 3056 2656 
Q 3513 2228 3513 1497 
Q 3513 744 3044 326 
Q 2575 -91 1722 -91 
Q 1428 -91 1123 -41 
Q 819 9 494 109 
L 494 744 
Q 775 591 1075 516 
Q 1375 441 1709 441 
Q 2250 441 2565 725 
Q 2881 1009 2881 1497 
Q 2881 1984 2565 2268 
Q 2250 2553 1709 2553 
Q 1456 2553 1204 2497 
Q 953 2441 691 2322 
L 691 4666 
z
" transform="scale(0.015625)"/>
       </defs>
       <use xlink:href="#DejaVuSans-32"/>
       <use xlink:href="#DejaVuSans-30" x="63.623047"/>
       <use xlink:href="#DejaVuSans-32" x="127.246094"/>
       <use xlink:href="#DejaVuSans-34" x="190.869141"/>
       <use xlink:href="#DejaVuSans-2d" x="254.492188"/>
       <use xlink:href="#DejaVuSans-30" x="290.576172"/>
       <use xlink:href="#DejaVuSans-35" x="354.199219"/>
      </g>
     </g>
    </g>
    <g id="xtick_3">
     <g id="line2d_5">
      <path d="M 224.049661 578.54175 
L 224.049661 24.14175 
" clip-path="url(#p62e55e4d63)" style="fill: none; stroke: #ffffff; stroke-width: 0.8; stroke-linecap: square"/>
     </g>
     <g id="line2d_6">
      <g>
       <use xlink:href="#m3a1b0e3fad" x="224.049661" y="578.54175" style="fill: #555555; stroke: #555555; stroke-width: 0.8"/>
      </g>
     </g>
     <g id="text_3">
      <!-- 2024-06 -->
      <g style="fill: #555555" transform="translate(211.228378 620.459567) rotate(-45) scale(0.1 -0.1)">
       <defs>
        <path id="DejaVuSans-36" d="M 2113 2584 
Q 1688 2584 1439 2293 
Q 1191 2003 1191 1497 
Q 1191 994 1439 701 
Q 1688 409 2113 409 
Q 2538 409 2786 701 
Q 3034 994 3034 1497 
Q 3034 2003 2786 2293 
Q 2538 2584 2113 2584 
z
M 3366 4563 
L 3366 3988 
Q 3128 4100 2886 4159 
Q 2644 4219 2406 4219 
Q 1781 4219 1451 3797 
Q 1122 3375 1075 2522 
Q 1259 2794 1537 2939 
Q 1816 3084 2150 3084 
Q 2853 3084 3261 2657 
Q 3669 2231 3669 1497 
Q 3669 778 3244 343 
Q 2819 -91 2113 -91 
Q 1303 -91 875 529 
Q 447 1150 447 2328 
Q 447 3434 972 4092 
Q 1497 4750 2381 4750 
Q 2619 4750 2861 4703 
Q 3103 4656 3366 4563 
z
" transform="scale(0.015625)"/>
       </defs>
       <use xlink:href="#DejaVuSans-32"/>
       <use xlink:href="#DejaVuSans-30" x="63.623047"/>
       <use xlink:href="#DejaVuSans-32" x="127.246094"/>
       <use xlink:href="#DejaVuSans-34" x="190.869141"/>
       <use xlink:href="#DejaVuSans-2d" x="254.492188"/>
       <use xlink:href="#DejaVuSans-30" x="290.576172"/>
       <use xlink:href="#DejaVuSans-36" x="354.199219"/>
      </g>
     </g>
    </g>
    <g id="xtick_4">
     <g id="line2d_7">
      <path d="M 299.918904 578.54175 
L 299.918904 24.14175 
" clip-path="url(#p62e55e4d63)" style="fill: none; stroke: #ffffff; stroke-width: 0.8; stroke-linecap: square"/>
     </g>
     <g id="line2d_8">
      <g>
       <use xlink:href="#m3a1b0e3fad" x="299.918904" y="578.54175" style="fill: #555555; stroke: #555555; stroke-width: 0.8"/>
      </g>
     </g>
     <g id="text_4">
      <!-- 2024-07 -->
      <g style="fill: #555555" transform="translate(287.097622 620.459567) rotate(-45) scale(0.1 -0.1)">
       <defs>
        <path id="DejaVuSans-37" d="M 525 4666 
L 3525 4666 
L 3525 4397 
L 1831 0 
L 1172 0 
L 2766 4134 
L 525 4134 
L 525 4666 
z
" transform="scale(0.015625)"/>
       </defs>
       <use xlink:href="#DejaVuSans-32"/>
       <use xlink:href="#DejaVuSans-30" x="63.623047"/>
       <use xlink:href="#DejaVuSans-32" x="127.246094"/>
       <use xlink:href="#DejaVuSans-34" x="190.869141"/>
       <use xlink:href="#DejaVuSans-2d" x="254.492188"/>
       <use xlink:href="#DejaVuSans-30" x="290.576172"/>
       <use xlink:href="#DejaVuSans-37" x="354.199219"/>
      </g>
     </g>
    </g>
    <g id="xtick_5">
     <g id="line2d_9">
      <path d="M 378.317123 578.54175 
L 378.317123 24.14175 
" clip-path="url(#p62e55e4d63)" style="fill: none; stroke: #ffffff; stroke-width: 0.8; stroke-linecap: square"/>
     </g>
     <g id="line2d_10">
      <g>
       <use xlink:href="#m3a1b0e3fad" x="378.317123" y="578.54175" style="fill: #555555; stroke: #555555; stroke-width: 0.8"/>
      </g>
     </g>
     <g id="text_5">
      <!-- 2024-08 -->
      <g style="fill: #555555" transform="translate(365.495841 620.459567) rotate(-45) scale(0.1 -0.1)">
       <defs>
        <path id="DejaVuSans-38" d="M 2034 2216 
Q 1584 2216 1326 1975 
Q 1069 1734 1069 1313 
Q 1069 891 1326 650 
Q 1584 409 2034 409 
Q 2484 409 2743 651 
Q 3003 894 3003 1313 
Q 3003 1734 2745 1975 
Q 2488 2216 2034 2216 
z
M 1403 2484 
Q 997 2584 770 2862 
Q 544 3141 544 3541 
Q 544 4100 942 4425 
Q 1341 4750 2034 4750 
Q 2731 4750 3128 4425 
Q 3525 4100 3525 3541 
Q 3525 3141 3298 2862 
Q 3072 2584 2669 2484 
Q 3125 2378 3379 2068 
Q 3634 1759 3634 1313 
Q 3634 634 3220 271 
Q 2806 -91 2034 -91 
Q 1263 -91 848 271 
Q 434 634 434 1313 
Q 434 1759 690 2068 
Q 947 2378 1403 2484 
z
M 1172 3481 
Q 1172 3119 1398 2916 
Q 1625 2713 2034 2713 
Q 2441 2713 2670 2916 
Q 2900 3119 2900 3481 
Q 2900 3844 2670 4047 
Q 2441 4250 2034 4250 
Q 1625 4250 1398 4047 
Q 1172 3844 1172 3481 
z
" transform="scale(0.015625)"/>
       </defs>
       <use xlink:href="#DejaVuSans-32"/>
       <use xlink:href="#DejaVuSans-30" x="63.623047"/>
       <use xlink:href="#DejaVuSans-32" x="127.246094"/>
       <use xlink:href="#DejaVuSans-34" x="190.869141"/>
       <use xlink:href="#DejaVuSans-2d" x="254.492188"/>
       <use xlink:href="#DejaVuSans-30" x="290.576172"/>
       <use xlink:href="#DejaVuSans-38" x="354.199219"/>
      </g>
     </g>
    </g>
    <g id="xtick_6">
     <g id="line2d_11">
      <path d="M 456.715341 578.54175 
L 456.715341 24.14175 
" clip-path="url(#p62e55e4d63)" style="fill: none; stroke: #ffffff; stroke-width: 0.8; stroke-linecap: square"/>
     </g>
     <g id="line2d_12">
      <g>
       <use xlink:href="#m3a1b0e3fad" x="456.715341" y="578.54175" style="fill: #555555; stroke: #555555; stroke-width: 0.8"/>
      </g>
     </g>
     <g id="text_6">
      <!-- 2024-09 -->
      <g style="fill: #555555" transform="translate(443.894059 620.459567) rotate(-45) scale(0.1 -0.1)">
       <defs>
        <path id="DejaVuSans-39" d="M 703 97 
L 703 672 
Q 941 559 1184 500 
Q 1428 441 1663 441 
Q 2288 441 2617 861 
Q 2947 1281 2994 2138 
Q 2813 1869 2534 1725 
Q 2256 1581 1919 1581 
Q 1219 1581 811 2004 
Q 403 2428 403 3163 
Q 403 3881 828 4315 
Q 1253 4750 1959 4750 
Q 2769 4750 3195 4129 
Q 3622 3509 3622 2328 
Q 3622 1225 3098 567 
Q 2575 -91 1691 -91 
Q 1453 -91 1209 -44 
Q 966 3 703 97 
z
M 1959 2075 
Q 2384 2075 2632 2365 
Q 2881 2656 2881 3163 
Q 2881 3666 2632 3958 
Q 2384 4250 1959 4250 
Q 1534 4250 1286 3958 
Q 1038 3666 1038 3163 
Q 1038 2656 1286 2365 
Q 1534 2075 1959 2075 
z
" transform="scale(0.015625)"/>
       </defs>
       <use xlink:href="#DejaVuSans-32"/>
       <use xlink:href="#DejaVuSans-30" x="63.623047"/>
       <use xlink:href="#DejaVuSans-32" x="127.246094"/>
       <use xlink:href="#DejaVuSans-34" x="190.869141"/>
       <use xlink:href="#DejaVuSans-2d" x="254.492188"/>
       <use xlink:href="#DejaVuSans-30" x="290.576172"/>
       <use xlink:href="#DejaVuSans-39" x="354.199219"/>
      </g>
     </g>
    </g>
    <g id="xtick_7">
     <g id="line2d_13">
      <path d="M 532.584585 578.54175 
L 532.584585 24.14175 
" clip-path="url(#p62e55e4d63)" style="fill: none; stroke: #ffffff; stroke-width: 0.8; stroke-linecap: square"/>
     </g>
     <g id="line2d_14">
      <g>
       <use xlink:href="#m3a1b0e3fad" x="532.584585" y="578.54175" style="fill: #555555; stroke: #555555; stroke-width: 0.8"/>
      </g>
     </g>
     <g id="text_7">
      <!-- 2024-10 -->
      <g style="fill: #555555" transform="translate(519.763303 620.459567) rotate(-45) scale(0.1 -0.1)">
       <defs>
        <path id="DejaVuSans-31" d="M 794 531 
L 1825 531 
L 1825 4091 
L 703 3866 
L 703 4441 
L 1819 4666 
L 2450 4666 
L 2450 531 
L 3481 531 
L 3481 0 
L 794 0 
L 794 531 
z
" transform="scale(0.015625)"/>
       </defs>
       <use xlink:href="#DejaVuSans-32"/>
       <use xlink:href="#DejaVuSans-30" x="63.623047"/>
       <use xlink:href="#DejaVuSans-32" x="127.246094"/>
       <use xlink:href="#DejaVuSans-34" x="190.869141"/>
       <use xlink:href="#DejaVuSans-2d" x="254.492188"/>
       <use xlink:href="#DejaVuSans-31" x="290.576172"/>
       <use xlink:href="#DejaVuSans-30" x="354.199219"/>
      </g>
     </g>
    </g>
    <g id="xtick_8">
     <g id="line2d_15">
      <path d="M 610.982804 578.54175 
L 610.982804 24.14175 
" clip-path="url(#p62e55e4d63)" style="fill: none; stroke: #ffffff; stroke-width: 0.8; stroke-linecap: square"/>
     </g>
     <g id="line2d_16">
      <g>
       <use xlink:href="#m3a1b0e3fad" x="610.982804" y="578.54175" style="fill: #555555; stroke: #555555; stroke-width: 0.8"/>
      </g>
     </g>
     <g id="text_8">
      <!-- 2024-11 -->
      <g style="fill: #555555" transform="translate(598.161521 620.459567) rotate(-45) scale(0.1 -0.1)">
       <use xlink:href="#DejaVuSans-32"/>
       <use xlink:href="#DejaVuSans-30" x="63.623047"/>
       <use xlink:href="#DejaVuSans-32" x="127.246094"/>
       <use xlink:href="#DejaVuSans-34" x="190.869141"/>
       <use xlink:href="#DejaVuSans-2d" x="254.492188"/>
       <use xlink:href="#DejaVuSans-31" x="290.576172"/>
       <use xlink:href="#DejaVuSans-31" x="354.199219"/>
      </g>
     </g>
    </g>
    <g id="xtick_9">
     <g id="line2d_17">
      <path d="M 686.852047 578.54175 
L 686.852047 24.14175 
" clip-path="url(#p62e55e4d63)" style="fill: none; stroke: #ffffff; stroke-width: 0.8; stroke-linecap: square"/>
     </g>
     <g id="line2d_18">
      <g>
       <use xlink:href="#m3a1b0e3fad" x="686.852047" y="578.54175" style="fill: #555555; stroke: #555555; stroke-width: 0.8"/>
      </g>
     </g>
     <g id="text_9">
      <!-- 2024-12 -->
      <g style="fill: #555555" transform="translate(674.030765 620.459567) rotate(-45) scale(0.1 -0.1)">
       <use xlink:href="#DejaVuSans-32"/>
       <use xlink:href="#DejaVuSans-30" x="63.623047"/>
       <use xlink:href="#DejaVuSans-32" x="127.246094"/>
       <use xlink:href="#DejaVuSans-34" x="190.869141"/>
       <use xlink:href="#DejaVuSans-2d" x="254.492188"/>
       <use xlink:href="#DejaVuSans-31" x="290.576172"/>
       <use xlink:href="#DejaVuSans-32" x="354.199219"/>
      </g>
     </g>
    </g>
    <g id="xtick_10">
     <g id="line2d_19">
      <path d="M 765.250266 578.54175 
L 765.250266 24.14175 
" clip-path="url(#p62e55e4d63)" style="fill: none; stroke: #ffffff; stroke-width: 0.8; stroke-linecap: square"/>
     </g>
     <g id="line2d_20">
      <g>
       <use xlink:href="#m3a1b0e3fad" x="765.250266" y="578.54175" style="fill: #555555; stroke: #555555; stroke-width: 0.8"/>
      </g>
     </g>
     <g id="text_10">
      <!-- 2025-01 -->
      <g style="fill: #555555" transform="translate(752.428984 620.459567) rotate(-45) scale(0.1 -0.1)">
       <use xlink:href="#DejaVuSans-32"/>
       <use xlink:href="#DejaVuSans-30" x="63.623047"/>
       <use xlink:href="#DejaVuSans-32" x="127.246094"/>
       <use xlink:href="#DejaVuSans-35" x="190.869141"/>
       <use xlink:href="#DejaVuSans-2d" x="254.492188"/>
       <use xlink:href="#DejaVuSans-30" x="290.576172"/>
       <use xlink:href="#DejaVuSans-31" x="354.199219"/>
      </g>
     </g>
    </g>
    <g id="xtick_11">
     <g id="line2d_21">
      <path d="M 843.648484 578.54175 
L 843.648484 24.14175 
" clip-path="url(#p62e55e4d63)" style="fill: none; stroke: #ffffff; stroke-width: 0.8; stroke-linecap: square"/>
     </g>
     <g id="line2d_22">
      <g>
       <use xlink:href="#m3a1b0e3fad" x="843.648484" y="578.54175" style="fill: #555555; stroke: #555555; stroke-width: 0.8"/>
      </g>
     </g>
     <g id="text_11">
      <!-- 2025-02 -->
      <g style="fill: #555555" transform="translate(830.827202 620.459567) rotate(-45) scale(0.1 -0.1)">
       <use xlink:href="#DejaVuSans-32"/>
       <use xlink:href="#DejaVuSans-30" x="63.623047"/>
       <use xlink:href="#DejaVuSans-32" x="127.246094"/>
       <use xlink:href="#DejaVuSans-35" x="190.869141"/>
       <use xlink:href="#DejaVuSans-2d" x="254.492188"/>
       <use xlink:href="#DejaVuSans-30" x="290.576172"/>
       <use xlink:href="#DejaVuSans-32" x="354.199219"/>
      </g>
     </g>
    </g>
    <g id="xtick_12">
     <g id="line2d_23">
      <path d="M 914.459778 578.54175 
L 914.459778 24.14175 
" clip-path="url(#p62e55e4d63)" style="fill: none; stroke: #ffffff; stroke-width: 0.8; stroke-linecap: square"/>
     </g>
     <g id="line2d_24">
      <g>
       <use xlink:href="#m3a1b0e3fad" x="914.459778" y="578.54175" style="fill: #555555; stroke: #555555; stroke-width: 0.8"/>
      </g>
     </g>
     <g id="text_12">
      <!-- 2025-03 -->
      <g style="fill: #555555" transform="translate(901.638496 620.459567) rotate(-45) scale(0.1 -0.1)">
       <defs>
        <path id="DejaVuSans-33" d="M 2597 2516 
Q 3050 2419 3304 2112 
Q 3559 1806 3559 1356 
Q 3559 666 3084 287 
Q 2609 -91 1734 -91 
Q 1441 -91 1130 -33 
Q 819 25 488 141 
L 488 750 
Q 750 597 1062 519 
Q 1375 441 1716 441 
Q 2309 441 2620 675 
Q 2931 909 2931 1356 
Q 2931 1769 2642 2001 
Q 2353 2234 1838 2234 
L 1294 2234 
L 1294 2753 
L 1863 2753 
Q 2328 2753 2575 2939 
Q 2822 3125 2822 3475 
Q 2822 3834 2567 4026 
Q 2313 4219 1838 4219 
Q 1578 4219 1281 4162 
Q 984 4106 628 3988 
L 628 4550 
Q 988 4650 1302 4700 
Q 1616 4750 1894 4750 
Q 2613 4750 3031 4423 
Q 3450 4097 3450 3541 
Q 3450 3153 3228 2886 
Q 3006 2619 2597 2516 
z
" transform="scale(0.015625)"/>
       </defs>
       <use xlink:href="#DejaVuSans-32"/>
       <use xlink:href="#DejaVuSans-30" x="63.623047"/>
       <use xlink:href="#DejaVuSans-32" x="127.246094"/>
       <use xlink:href="#DejaVuSans-35" x="190.869141"/>
       <use xlink:href="#DejaVuSans-2d" x="254.492188"/>
       <use xlink:href="#DejaVuSans-30" x="290.576172"/>
       <use xlink:href="#DejaVuSans-33" x="354.199219"/>
      </g>
     </g>
    </g>
    <g id="text_13">
     <!-- Date -->
     <g style="fill: #555555" transform="translate(489.160438 635.048253) scale(0.12 -0.12)">
      <defs>
       <path id="DejaVuSans-44" d="M 1259 4147 
L 1259 519 
L 2022 519 
Q 2988 519 3436 956 
Q 3884 1394 3884 2338 
Q 3884 3275 3436 3711 
Q 2988 4147 2022 4147 
L 1259 4147 
z
M 628 4666 
L 1925 4666 
Q 3281 4666 3915 4102 
Q 4550 3538 4550 2338 
Q 4550 1131 3912 565 
Q 3275 0 1925 0 
L 628 0 
L 628 4666 
z
" transform="scale(0.015625)"/>
       <path id="DejaVuSans-61" d="M 2194 1759 
Q 1497 1759 1228 1600 
Q 959 1441 959 1056 
Q 959 750 1161 570 
Q 1363 391 1709 391 
Q 2188 391 2477 730 
Q 2766 1069 2766 1631 
L 2766 1759 
L 2194 1759 
z
M 3341 1997 
L 3341 0 
L 2766 0 
L 2766 531 
Q 2569 213 2275 61 
Q 1981 -91 1556 -91 
Q 1019 -91 701 211 
Q 384 513 384 1019 
Q 384 1609 779 1909 
Q 1175 2209 1959 2209 
L 2766 2209 
L 2766 2266 
Q 2766 2663 2505 2880 
Q 2244 3097 1772 3097 
Q 1472 3097 1187 3025 
Q 903 2953 641 2809 
L 641 3341 
Q 956 3463 1253 3523 
Q 1550 3584 1831 3584 
Q 2591 3584 2966 3190 
Q 3341 2797 3341 1997 
z
" transform="scale(0.015625)"/>
       <path id="DejaVuSans-74" d="M 1172 4494 
L 1172 3500 
L 2356 3500 
L 2356 3053 
L 1172 3053 
L 1172 1153 
Q 1172 725 1289 603 
Q 1406 481 1766 481 
L 2356 481 
L 2356 0 
L 1766 0 
Q 1100 0 847 248 
Q 594 497 594 1153 
L 594 3053 
L 172 3053 
L 172 3500 
L 594 3500 
L 594 4494 
L 1172 4494 
z
" transform="scale(0.015625)"/>
       <path id="DejaVuSans-65" d="M 3597 1894 
L 3597 1613 
L 953 1613 
Q 991 1019 1311 708 
Q 1631 397 2203 397 
Q 2534 397 2845 478 
Q 3156 559 3463 722 
L 3463 178 
Q 3153 47 2828 -22 
Q 2503 -91 2169 -91 
Q 1331 -91 842 396 
Q 353 884 353 1716 
Q 353 2575 817 3079 
Q 1281 3584 2069 3584 
Q 2775 3584 3186 3129 
Q 3597 2675 3597 1894 
z
M 3022 2063 
Q 3016 2534 2758 2815 
Q 2500 3097 2075 3097 
Q 1594 3097 1305 2825 
Q 1016 2553 972 2059 
L 3022 2063 
z
" transform="scale(0.015625)"/>
      </defs>
      <use xlink:href="#DejaVuSans-44"/>
      <use xlink:href="#DejaVuSans-61" x="77.001953"/>
      <use xlink:href="#DejaVuSans-74" x="138.28125"/>
      <use xlink:href="#DejaVuSans-65" x="177.490234"/>
     </g>
    </g>
   </g>
   <g id="matplotlib.axis_2">
    <g id="ytick_1">
     <g id="line2d_25">
      <path d="M 52.079375 578.54175 
L 954.923375 578.54175 
" clip-path="url(#p62e55e4d63)" style="fill: none; stroke: #ffffff; stroke-width: 0.8; stroke-linecap: square"/>
     </g>
     <g id="line2d_26">
      <defs>
       <path id="m5d71c2af7d" d="M 0 0 
L -3.5 0 
" style="stroke: #555555; stroke-width: 0.8"/>
      </defs>
      <g>
       <use xlink:href="#m5d71c2af7d" x="52.079375" y="578.54175" style="fill: #555555; stroke: #555555; stroke-width: 0.8"/>
      </g>
     </g>
     <g id="text_14">
      <!-- 0.00 -->
      <g style="fill: #555555" transform="translate(22.81375 582.340969) scale(0.1 -0.1)">
       <defs>
        <path id="DejaVuSans-2e" d="M 684 794 
L 1344 794 
L 1344 0 
L 684 0 
L 684 794 
z
" transform="scale(0.015625)"/>
       </defs>
       <use xlink:href="#DejaVuSans-30"/>
       <use xlink:href="#DejaVuSans-2e" x="63.623047"/>
       <use xlink:href="#DejaVuSans-30" x="95.410156"/>
       <use xlink:href="#DejaVuSans-30" x="159.033203"/>
      </g>
     </g>
    </g>
    <g id="ytick_2">
     <g id="line2d_27">
      <path d="M 52.079375 512.466567 
L 954.923375 512.466567 
" clip-path="url(#p62e55e4d63)" style="fill: none; stroke: #ffffff; stroke-width: 0.8; stroke-linecap: square"/>
     </g>
     <g id="line2d_28">
      <g>
       <use xlink:href="#m5d71c2af7d" x="52.079375" y="512.466567" style="fill: #555555; stroke: #555555; stroke-width: 0.8"/>
      </g>
     </g>
     <g id="text_15">
      <!-- 0.05 -->
      <g style="fill: #555555" transform="translate(22.81375 516.265785) scale(0.1 -0.1)">
       <use xlink:href="#DejaVuSans-30"/>
       <use xlink:href="#DejaVuSans-2e" x="63.623047"/>
       <use xlink:href="#DejaVuSans-30" x="95.410156"/>
       <use xlink:href="#DejaVuSans-35" x="159.033203"/>
      </g>
     </g>
    </g>
    <g id="ytick_3">
     <g id="line2d_29">
      <path d="M 52.079375 446.391383 
L 954.923375 446.391383 
" clip-path="url(#p62e55e4d63)" style="fill: none; stroke: #ffffff; stroke-width: 0.8; stroke-linecap: square"/>
     </g>
     <g id="line2d_30">
      <g>
       <use xlink:href="#m5d71c2af7d" x="52.079375" y="446.391383" style="fill: #555555; stroke: #555555; stroke-width: 0.8"/>
      </g>
     </g>
     <g id="text_16">
      <!-- 0.10 -->
      <g style="fill: #555555" transform="translate(22.81375 450.190602) scale(0.1 -0.1)">
       <use xlink:href="#DejaVuSans-30"/>
       <use xlink:href="#DejaVuSans-2e" x="63.623047"/>
       <use xlink:href="#DejaVuSans-31" x="95.410156"/>
       <use xlink:href="#DejaVuSans-30" x="159.033203"/>
      </g>
     </g>
    </g>
    <g id="ytick_4">
     <g id="line2d_31">
      <path d="M 52.079375 380.3162 
L 954.923375 380.3162 
" clip-path="url(#p62e55e4d63)" style="fill: none; stroke: #ffffff; stroke-width: 0.8; stroke-linecap: square"/>
     </g>
     <g id="line2d_32">
      <g>
       <use xlink:href="#m5d71c2af7d" x="52.079375" y="380.3162" style="fill: #555555; stroke: #555555; stroke-width: 0.8"/>
      </g>
     </g>
     <g id="text_17">
      <!-- 0.15 -->
      <g style="fill: #555555" transform="translate(22.81375 384.115418) scale(0.1 -0.1)">
       <use xlink:href="#DejaVuSans-30"/>
       <use xlink:href="#DejaVuSans-2e" x="63.623047"/>
       <use xlink:href="#DejaVuSans-31" x="95.410156"/>
       <use xlink:href="#DejaVuSans-35" x="159.033203"/>
      </g>
     </g>
    </g>
    <g id="ytick_5">
     <g id="line2d_33">
      <path d="M 52.079375 314.241016 
L 954.923375 314.241016 
" clip-path="url(#p62e55e4d63)" style="fill: none; stroke: #ffffff; stroke-width: 0.8; stroke-linecap: square"/>
     </g>
     <g id="line2d_34">
      <g>
       <use xlink:href="#m5d71c2af7d" x="52.079375" y="314.241016" style="fill: #555555; stroke: #555555; stroke-width: 0.8"/>
      </g>
     </g>
     <g id="text_18">
      <!-- 0.20 -->
      <g style="fill: #555555" transform="translate(22.81375 318.040235) scale(0.1 -0.1)">
       <use xlink:href="#DejaVuSans-30"/>
       <use xlink:href="#DejaVuSans-2e" x="63.623047"/>
       <use xlink:href="#DejaVuSans-32" x="95.410156"/>
       <use xlink:href="#DejaVuSans-30" x="159.033203"/>
      </g>
     </g>
    </g>
    <g id="ytick_6">
     <g id="line2d_35">
      <path d="M 52.079375 248.165833 
L 954.923375 248.165833 
" clip-path="url(#p62e55e4d63)" style="fill: none; stroke: #ffffff; stroke-width: 0.8; stroke-linecap: square"/>
     </g>
     <g id="line2d_36">
      <g>
       <use xlink:href="#m5d71c2af7d" x="52.079375" y="248.165833" style="fill: #555555; stroke: #555555; stroke-width: 0.8"/>
      </g>
     </g>
     <g id="text_19">
      <!-- 0.25 -->
      <g style="fill: #555555" transform="translate(22.81375 251.965051) scale(0.1 -0.1)">
       <use xlink:href="#DejaVuSans-30"/>
       <use xlink:href="#DejaVuSans-2e" x="63.623047"/>
       <use xlink:href="#DejaVuSans-32" x="95.410156"/>
       <use xlink:href="#DejaVuSans-35" x="159.033203"/>
      </g>
     </g>
    </g>
    <g id="ytick_7">
     <g id="line2d_37">
      <path d="M 52.079375 182.090649 
L 954.923375 182.090649 
" clip-path="url(#p62e55e4d63)" style="fill: none; stroke: #ffffff; stroke-width: 0.8; stroke-linecap: square"/>
     </g>
     <g id="line2d_38">
      <g>
       <use xlink:href="#m5d71c2af7d" x="52.079375" y="182.090649" style="fill: #555555; stroke: #555555; stroke-width: 0.8"/>
      </g>
     </g>
     <g id="text_20">
      <!-- 0.30 -->
      <g style="fill: #555555" transform="translate(22.81375 185.889868) scale(0.1 -0.1)">
       <use xlink:href="#DejaVuSans-30"/>
       <use xlink:href="#DejaVuSans-2e" x="63.623047"/>
       <use xlink:href="#DejaVuSans-33" x="95.410156"/>
       <use xlink:href="#DejaVuSans-30" x="159.033203"/>
      </g>
     </g>
    </g>
    <g id="ytick_8">
     <g id="line2d_39">
      <path d="M 52.079375 116.015466 
L 954.923375 116.015466 
" clip-path="url(#p62e55e4d63)" style="fill: none; stroke: #ffffff; stroke-width: 0.8; stroke-linecap: square"/>
     </g>
     <g id="line2d_40">
      <g>
       <use xlink:href="#m5d71c2af7d" x="52.079375" y="116.015466" style="fill: #555555; stroke: #555555; stroke-width: 0.8"/>
      </g>
     </g>
     <g id="text_21">
      <!-- 0.35 -->
      <g style="fill: #555555" transform="translate(22.81375 119.814684) scale(0.1 -0.1)">
       <use xlink:href="#DejaVuSans-30"/>
       <use xlink:href="#DejaVuSans-2e" x="63.623047"/>
       <use xlink:href="#DejaVuSans-33" x="95.410156"/>
       <use xlink:href="#DejaVuSans-35" x="159.033203"/>
      </g>
     </g>
    </g>
    <g id="ytick_9">
     <g id="line2d_41">
      <path d="M 52.079375 49.940282 
L 954.923375 49.940282 
" clip-path="url(#p62e55e4d63)" style="fill: none; stroke: #ffffff; stroke-width: 0.8; stroke-linecap: square"/>
     </g>
     <g id="line2d_42">
      <g>
       <use xlink:href="#m5d71c2af7d" x="52.079375" y="49.940282" style="fill: #555555; stroke: #555555; stroke-width: 0.8"/>
      </g>
     </g>
     <g id="text_22">
      <!-- 0.40 -->
      <g style="fill: #555555" transform="translate(22.81375 53.739501) scale(0.1 -0.1)">
       <use xlink:href="#DejaVuSans-30"/>
       <use xlink:href="#DejaVuSans-2e" x="63.623047"/>
       <use xlink:href="#DejaVuSans-34" x="95.410156"/>
       <use xlink:href="#DejaVuSans-30" x="159.033203"/>
      </g>
     </g>
    </g>
    <g id="text_23">
     <!-- Share -->
     <g style="fill: #555555" transform="translate(16.318125 318.653625) rotate(-90) scale(0.12 -0.12)">
      <defs>
       <path id="DejaVuSans-53" d="M 3425 4513 
L 3425 3897 
Q 3066 4069 2747 4153 
Q 2428 4238 2131 4238 
Q 1616 4238 1336 4038 
Q 1056 3838 1056 3469 
Q 1056 3159 1242 3001 
Q 1428 2844 1947 2747 
L 2328 2669 
Q 3034 2534 3370 2195 
Q 3706 1856 3706 1288 
Q 3706 609 3251 259 
Q 2797 -91 1919 -91 
Q 1588 -91 1214 -16 
Q 841 59 441 206 
L 441 856 
Q 825 641 1194 531 
Q 1563 422 1919 422 
Q 2459 422 2753 634 
Q 3047 847 3047 1241 
Q 3047 1584 2836 1778 
Q 2625 1972 2144 2069 
L 1759 2144 
Q 1053 2284 737 2584 
Q 422 2884 422 3419 
Q 422 4038 858 4394 
Q 1294 4750 2059 4750 
Q 2388 4750 2728 4690 
Q 3069 4631 3425 4513 
z
" transform="scale(0.015625)"/>
       <path id="DejaVuSans-68" d="M 3513 2113 
L 3513 0 
L 2938 0 
L 2938 2094 
Q 2938 2591 2744 2837 
Q 2550 3084 2163 3084 
Q 1697 3084 1428 2787 
Q 1159 2491 1159 1978 
L 1159 0 
L 581 0 
L 581 4863 
L 1159 4863 
L 1159 2956 
Q 1366 3272 1645 3428 
Q 1925 3584 2291 3584 
Q 2894 3584 3203 3211 
Q 3513 2838 3513 2113 
z
" transform="scale(0.015625)"/>
       <path id="DejaVuSans-72" d="M 2631 2963 
Q 2534 3019 2420 3045 
Q 2306 3072 2169 3072 
Q 1681 3072 1420 2755 
Q 1159 2438 1159 1844 
L 1159 0 
L 581 0 
L 581 3500 
L 1159 3500 
L 1159 2956 
Q 1341 3275 1631 3429 
Q 1922 3584 2338 3584 
Q 2397 3584 2469 3576 
Q 2541 3569 2628 3553 
L 2631 2963 
z
" transform="scale(0.015625)"/>
      </defs>
      <use xlink:href="#DejaVuSans-53"/>
      <use xlink:href="#DejaVuSans-68" x="63.476562"/>
      <use xlink:href="#DejaVuSans-61" x="126.855469"/>
      <use xlink:href="#DejaVuSans-72" x="188.134766"/>
      <use xlink:href="#DejaVuSans-65" x="226.998047"/>
     </g>
    </g>
   </g>
   <g id="line2d_43">
    <path d="M 52.079375 342.168372 
L 61.199011 341.647342 
L 70.318648 341.126313 
L 79.438284 340.605283 
L 88.55792 340.084253 
L 97.677557 339.563224 
L 106.797193 339.042194 
L 115.91683 338.521165 
L 125.036466 338.000135 
L 134.156102 337.479105 
L 143.275739 336.958076 
L 152.395375 336.437046 
L 161.515011 335.916016 
L 170.634648 335.394987 
L 179.754284 334.873957 
L 188.87392 334.352927 
L 197.993557 333.831898 
L 207.113193 333.310868 
L 216.23283 332.789839 
L 225.352466 332.268809 
L 234.472102 331.747779 
L 243.591739 331.22675 
L 252.711375 330.70572 
L 261.831011 330.18469 
L 270.950648 329.663661 
L 280.070284 329.142631 
L 289.18992 328.621601 
L 298.309557 328.100572 
L 307.429193 327.579542 
L 316.54883 327.058513 
L 325.668466 326.537483 
L 334.788102 326.016453 
L 343.907739 325.495424 
L 353.027375 324.974394 
L 362.147011 324.453364 
L 371.266648 323.932335 
L 380.386284 323.411305 
L 389.50592 322.890275 
L 398.625557 322.369246 
L 407.745193 321.848216 
L 416.86483 321.327186 
L 425.984466 320.806157 
L 435.104102 320.285127 
L 444.223739 319.764098 
L 453.343375 319.243068 
L 462.463011 318.722038 
L 471.582648 318.201009 
L 480.702284 317.679979 
L 489.82192 317.158949 
L 498.941557 316.63792 
L 508.061193 316.11689 
L 517.18083 315.59586 
L 526.300466 315.074831 
L 535.420102 314.553801 
L 544.539739 314.032772 
L 553.659375 313.511742 
L 562.779011 312.990712 
L 571.898648 312.469683 
L 581.018284 311.948653 
L 590.13792 311.427623 
L 599.257557 310.906594 
L 608.377193 310.385564 
L 617.49683 309.864534 
L 626.616466 309.343505 
L 635.736102 308.822475 
L 644.855739 308.301446 
L 653.975375 307.780416 
L 663.095011 307.259386 
L 672.214648 306.738357 
L 681.334284 306.217327 
L 690.45392 305.696297 
L 699.573557 305.175268 
L 708.693193 304.654238 
L 717.81283 304.133208 
L 726.932466 303.612179 
L 736.052102 303.091149 
L 745.171739 302.57012 
L 754.291375 302.04909 
L 763.411011 301.52806 
L 772.530648 301.007031 
L 781.650284 300.486001 
L 790.76992 299.964971 
L 799.889557 299.443942 
L 809.009193 298.922912 
L 818.12883 298.401882 
L 827.248466 297.880853 
L 836.368102 297.359823 
L 845.487739 296.838794 
L 854.607375 296.317764 
L 863.727011 295.796734 
L 872.846648 295.275705 
L 881.966284 294.754675 
L 891.08592 294.233645 
L 900.205557 293.712616 
L 909.325193 293.191586 
L 918.44483 292.670556 
L 927.564466 292.149527 
L 936.684102 291.628497 
L 945.803739 291.107468 
L 954.923375 290.586438 
" clip-path="url(#p62e55e4d63)" style="fill: none; stroke-dasharray: 1.5,2.475; stroke-dashoffset: 0; stroke: #4ac1fa; stroke-width: 1.5"/>
   </g>
   <g id="line2d_44">
    <path d="M 52.079375 414.113152 
L 61.199011 415.045622 
L 70.318648 415.978093 
L 79.438284 416.910563 
L 88.55792 417.843033 
L 97.677557 418.775504 
L 106.797193 419.707974 
L 115.91683 420.640444 
L 125.036466 421.572915 
L 134.156102 422.505385 
L 143.275739 423.437855 
L 152.395375 424.370326 
L 161.515011 425.302796 
L 170.634648 426.235266 
L 179.754284 427.167736 
L 188.87392 428.100207 
L 197.993557 429.032677 
L 207.113193 429.965147 
L 216.23283 430.897618 
L 225.352466 431.830088 
L 234.472102 432.762558 
L 243.591739 433.695029 
L 252.711375 434.627499 
L 261.831011 435.559969 
L 270.950648 436.492439 
L 280.070284 437.42491 
L 289.18992 438.35738 
L 298.309557 439.28985 
L 307.429193 440.222321 
L 316.54883 441.154791 
L 325.668466 442.087261 
L 334.788102 443.019732 
L 343.907739 443.952202 
L 353.027375 444.884672 
L 362.147011 445.817143 
L 371.266648 446.749613 
L 380.386284 447.682083 
L 389.50592 448.614553 
L 398.625557 449.547024 
L 407.745193 450.479494 
L 416.86483 451.411964 
L 425.984466 452.344435 
L 435.104102 453.276905 
L 444.223739 454.209375 
L 453.343375 455.141846 
L 462.463011 456.074316 
L 471.582648 457.006786 
L 480.702284 457.939257 
L 489.82192 458.871727 
L 498.941557 459.804197 
L 508.061193 460.736667 
L 517.18083 461.669138 
L 526.300466 462.601608 
L 535.420102 463.534078 
L 544.539739 464.466549 
L 553.659375 465.399019 
L 562.779011 466.331489 
L 571.898648 467.26396 
L 581.018284 468.19643 
L 590.13792 469.1289 
L 599.257557 470.06137 
L 608.377193 470.993841 
L 617.49683 471.926311 
L 626.616466 472.858781 
L 635.736102 473.791252 
L 644.855739 474.723722 
L 653.975375 475.656192 
L 663.095011 476.588663 
L 672.214648 477.521133 
L 681.334284 478.453603 
L 690.45392 479.386074 
L 699.573557 480.318544 
L 708.693193 481.251014 
L 717.81283 482.183484 
L 726.932466 483.115955 
L 736.052102 484.048425 
L 745.171739 484.980895 
L 754.291375 485.913366 
L 763.411011 486.845836 
L 772.530648 487.778306 
L 781.650284 488.710777 
L 790.76992 489.643247 
L 799.889557 490.575717 
L 809.009193 491.508187 
L 818.12883 492.440658 
L 827.248466 493.373128 
L 836.368102 494.305598 
L 845.487739 495.238069 
L 854.607375 496.170539 
L 863.727011 497.103009 
L 872.846648 498.03548 
L 881.966284 498.96795 
L 891.08592 499.90042 
L 900.205557 500.832891 
L 909.325193 501.765361 
L 918.44483 502.697831 
L 927.564466 503.630301 
L 936.684102 504.562772 
L 945.803739 505.495242 
L 954.923375 506.427712 
" clip-path="url(#p62e55e4d63)" style="fill: none; stroke-dasharray: 1.5,2.475; stroke-dashoffset: 0; stroke: #e9a942; stroke-width: 1.5"/>
   </g>
   <g id="line2d_45">
    <path d="M 52.079375 442.096465 
L 61.199011 442.621312 
L 70.318648 443.146159 
L 79.438284 443.671006 
L 88.55792 444.195853 
L 97.677557 444.720699 
L 106.797193 445.245546 
L 115.91683 445.770393 
L 125.036466 446.29524 
L 134.156102 446.820087 
L 143.275739 447.344934 
L 152.395375 447.869781 
L 161.515011 448.394627 
L 170.634648 448.919474 
L 179.754284 449.444321 
L 188.87392 449.969168 
L 197.993557 450.494015 
L 207.113193 451.018862 
L 216.23283 451.543709 
L 225.352466 452.068555 
L 234.472102 452.593402 
L 243.591739 453.118249 
L 252.711375 453.643096 
L 261.831011 454.167943 
L 270.950648 454.69279 
L 280.070284 455.217637 
L 289.18992 455.742483 
L 298.309557 456.26733 
L 307.429193 456.792177 
L 316.54883 457.317024 
L 325.668466 457.841871 
L 334.788102 458.366718 
L 343.907739 458.891565 
L 353.027375 459.416411 
L 362.147011 459.941258 
L 371.266648 460.466105 
L 380.386284 460.990952 
L 389.50592 461.515799 
L 398.625557 462.040646 
L 407.745193 462.565493 
L 416.86483 463.090339 
L 425.984466 463.615186 
L 435.104102 464.140033 
L 444.223739 464.66488 
L 453.343375 465.189727 
L 462.463011 465.714574 
L 471.582648 466.239421 
L 480.702284 466.764268 
L 489.82192 467.289114 
L 498.941557 467.813961 
L 508.061193 468.338808 
L 517.18083 468.863655 
L 526.300466 469.388502 
L 535.420102 469.913349 
L 544.539739 470.438196 
L 553.659375 470.963042 
L 562.779011 471.487889 
L 571.898648 472.012736 
L 581.018284 472.537583 
L 590.13792 473.06243 
L 599.257557 473.587277 
L 608.377193 474.112124 
L 617.49683 474.63697 
L 626.616466 475.161817 
L 635.736102 475.686664 
L 644.855739 476.211511 
L 653.975375 476.736358 
L 663.095011 477.261205 
L 672.214648 477.786052 
L 681.334284 478.310898 
L 690.45392 478.835745 
L 699.573557 479.360592 
L 708.693193 479.885439 
L 717.81283 480.410286 
L 726.932466 480.935133 
L 736.052102 481.45998 
L 745.171739 481.984826 
L 754.291375 482.509673 
L 763.411011 483.03452 
L 772.530648 483.559367 
L 781.650284 484.084214 
L 790.76992 484.609061 
L 799.889557 485.133908 
L 809.009193 485.658754 
L 818.12883 486.183601 
L 827.248466 486.708448 
L 836.368102 487.233295 
L 845.487739 487.758142 
L 854.607375 488.282989 
L 863.727011 488.807836 
L 872.846648 489.332682 
L 881.966284 489.857529 
L 891.08592 490.382376 
L 900.205557 490.907223 
L 909.325193 491.43207 
L 918.44483 491.956917 
L 927.564466 492.481764 
L 936.684102 493.00661 
L 945.803739 493.531457 
L 954.923375 494.056304 
" clip-path="url(#p62e55e4d63)" style="fill: none; stroke-dasharray: 1.5,2.475; stroke-dashoffset: 0; stroke: #9a5689; stroke-width: 1.5"/>
   </g>
   <g id="line2d_46">
    <path d="M 52.079375 533.53871 
L 61.199011 533.565017 
L 70.318648 533.591323 
L 79.438284 533.61763 
L 88.55792 533.643936 
L 97.677557 533.670243 
L 106.797193 533.69655 
L 115.91683 533.722856 
L 125.036466 533.749163 
L 134.156102 533.775469 
L 143.275739 533.801776 
L 152.395375 533.828083 
L 161.515011 533.854389 
L 170.634648 533.880696 
L 179.754284 533.907002 
L 188.87392 533.933309 
L 197.993557 533.959615 
L 207.113193 533.985922 
L 216.23283 534.012229 
L 225.352466 534.038535 
L 234.472102 534.064842 
L 243.591739 534.091148 
L 252.711375 534.117455 
L 261.831011 534.143762 
L 270.950648 534.170068 
L 280.070284 534.196375 
L 289.18992 534.222681 
L 298.309557 534.248988 
L 307.429193 534.275294 
L 316.54883 534.301601 
L 325.668466 534.327908 
L 334.788102 534.354214 
L 343.907739 534.380521 
L 353.027375 534.406827 
L 362.147011 534.433134 
L 371.266648 534.459441 
L 380.386284 534.485747 
L 389.50592 534.512054 
L 398.625557 534.53836 
L 407.745193 534.564667 
L 416.86483 534.590973 
L 425.984466 534.61728 
L 435.104102 534.643587 
L 444.223739 534.669893 
L 453.343375 534.6962 
L 462.463011 534.722506 
L 471.582648 534.748813 
L 480.702284 534.77512 
L 489.82192 534.801426 
L 498.941557 534.827733 
L 508.061193 534.854039 
L 517.18083 534.880346 
L 526.300466 534.906652 
L 535.420102 534.932959 
L 544.539739 534.959266 
L 553.659375 534.985572 
L 562.779011 535.011879 
L 571.898648 535.038185 
L 581.018284 535.064492 
L 590.13792 535.090799 
L 599.257557 535.117105 
L 608.377193 535.143412 
L 617.49683 535.169718 
L 626.616466 535.196025 
L 635.736102 535.222331 
L 644.855739 535.248638 
L 653.975375 535.274945 
L 663.095011 535.301251 
L 672.214648 535.327558 
L 681.334284 535.353864 
L 690.45392 535.380171 
L 699.573557 535.406478 
L 708.693193 535.432784 
L 717.81283 535.459091 
L 726.932466 535.485397 
L 736.052102 535.511704 
L 745.171739 535.53801 
L 754.291375 535.564317 
L 763.411011 535.590624 
L 772.530648 535.61693 
L 781.650284 535.643237 
L 790.76992 535.669543 
L 799.889557 535.69585 
L 809.009193 535.722157 
L 818.12883 535.748463 
L 827.248466 535.77477 
L 836.368102 535.801076 
L 845.487739 535.827383 
L 854.607375 535.853689 
L 863.727011 535.879996 
L 872.846648 535.906303 
L 881.966284 535.932609 
L 891.08592 535.958916 
L 900.205557 535.985222 
L 909.325193 536.011529 
L 918.44483 536.037836 
L 927.564466 536.064142 
L 936.684102 536.090449 
L 945.803739 536.116755 
L 954.923375 536.143062 
" clip-path="url(#p62e55e4d63)" style="fill: none; stroke-dasharray: 1.5,2.475; stroke-dashoffset: 0; stroke: #be503b; stroke-width: 1.5"/>
   </g>
   <g id="line2d_47">
    <path d="M 52.079375 329.796535 
L 61.199011 329.552495 
L 70.318648 329.308456 
L 79.438284 329.064417 
L 88.55792 328.820378 
L 97.677557 328.576339 
L 106.797193 328.3323 
L 115.91683 328.088261 
L 125.036466 327.844222 
L 134.156102 327.600183 
L 143.275739 327.356143 
L 152.395375 327.112104 
L 161.515011 326.868065 
L 170.634648 326.624026 
L 179.754284 326.379987 
L 188.87392 326.135948 
L 197.993557 325.891909 
L 207.113193 325.64787 
L 216.23283 325.403831 
L 225.352466 325.159791 
L 234.472102 324.915752 
L 243.591739 324.671713 
L 252.711375 324.427674 
L 261.831011 324.183635 
L 270.950648 323.939596 
L 280.070284 323.695557 
L 289.18992 323.451518 
L 298.309557 323.207479 
L 307.429193 322.963439 
L 316.54883 322.7194 
L 325.668466 322.475361 
L 334.788102 322.231322 
L 343.907739 321.987283 
L 353.027375 321.743244 
L 362.147011 321.499205 
L 371.266648 321.255166 
L 380.386284 321.011127 
L 389.50592 320.767087 
L 398.625557 320.523048 
L 407.745193 320.279009 
L 416.86483 320.03497 
L 425.984466 319.790931 
L 435.104102 319.546892 
L 444.223739 319.302853 
L 453.343375 319.058814 
L 462.463011 318.814775 
L 471.582648 318.570735 
L 480.702284 318.326696 
L 489.82192 318.082657 
L 498.941557 317.838618 
L 508.061193 317.594579 
L 517.18083 317.35054 
L 526.300466 317.106501 
L 535.420102 316.862462 
L 544.539739 316.618423 
L 553.659375 316.374383 
L 562.779011 316.130344 
L 571.898648 315.886305 
L 581.018284 315.642266 
L 590.13792 315.398227 
L 599.257557 315.154188 
L 608.377193 314.910149 
L 617.49683 314.66611 
L 626.616466 314.422071 
L 635.736102 314.178031 
L 644.855739 313.933992 
L 653.975375 313.689953 
L 663.095011 313.445914 
L 672.214648 313.201875 
L 681.334284 312.957836 
L 690.45392 312.713797 
L 699.573557 312.469758 
L 708.693193 312.225719 
L 717.81283 311.981679 
L 726.932466 311.73764 
L 736.052102 311.493601 
L 745.171739 311.249562 
L 754.291375 311.005523 
L 763.411011 310.761484 
L 772.530648 310.517445 
L 781.650284 310.273406 
L 790.76992 310.029367 
L 799.889557 309.785327 
L 809.009193 309.541288 
L 818.12883 309.297249 
L 827.248466 309.05321 
L 836.368102 308.809171 
L 845.487739 308.565132 
L 854.607375 308.321093 
L 863.727011 308.077054 
L 872.846648 307.833015 
L 881.966284 307.588975 
L 891.08592 307.344936 
L 900.205557 307.100897 
L 909.325193 306.856858 
L 918.44483 306.612819 
L 927.564466 306.36878 
L 936.684102 306.124741 
L 945.803739 305.880702 
L 954.923375 305.636663 
" clip-path="url(#p62e55e4d63)" style="fill: none; stroke-dasharray: 1.5,2.475; stroke-dashoffset: 0; stroke: #e2321d; stroke-width: 1.5"/>
   </g>
   <g id="line2d_48">
    <path d="M 52.079375 114.219248 
L 61.199011 113.556229 
L 70.318648 112.89321 
L 79.438284 112.230191 
L 88.55792 111.567173 
L 97.677557 110.904154 
L 106.797193 110.241135 
L 115.91683 109.578116 
L 125.036466 108.915098 
L 134.156102 108.252079 
L 143.275739 107.58906 
L 152.395375 106.926041 
L 161.515011 106.263023 
L 170.634648 105.600004 
L 179.754284 104.936985 
L 188.87392 104.273966 
L 197.993557 103.610947 
L 207.113193 102.947929 
L 216.23283 102.28491 
L 225.352466 101.621891 
L 234.472102 100.958872 
L 243.591739 100.295854 
L 252.711375 99.632835 
L 261.831011 98.969816 
L 270.950648 98.306797 
L 280.070284 97.643779 
L 289.18992 96.98076 
L 298.309557 96.317741 
L 307.429193 95.654722 
L 316.54883 94.991704 
L 325.668466 94.328685 
L 334.788102 93.665666 
L 343.907739 93.002647 
L 353.027375 92.339628 
L 362.147011 91.67661 
L 371.266648 91.013591 
L 380.386284 90.350572 
L 389.50592 89.687553 
L 398.625557 89.024535 
L 407.745193 88.361516 
L 416.86483 87.698497 
L 425.984466 87.035478 
L 435.104102 86.37246 
L 444.223739 85.709441 
L 453.343375 85.046422 
L 462.463011 84.383403 
L 471.582648 83.720385 
L 480.702284 83.057366 
L 489.82192 82.394347 
L 498.941557 81.731328 
L 508.061193 81.06831 
L 517.18083 80.405291 
L 526.300466 79.742272 
L 535.420102 79.079253 
L 544.539739 78.416234 
L 553.659375 77.753216 
L 562.779011 77.090197 
L 571.898648 76.427178 
L 581.018284 75.764159 
L 590.13792 75.101141 
L 599.257557 74.438122 
L 608.377193 73.775103 
L 617.49683 73.112084 
L 626.616466 72.449066 
L 635.736102 71.786047 
L 644.855739 71.123028 
L 653.975375 70.460009 
L 663.095011 69.796991 
L 672.214648 69.133972 
L 681.334284 68.470953 
L 690.45392 67.807934 
L 699.573557 67.144916 
L 708.693193 66.481897 
L 717.81283 65.818878 
L 726.932466 65.155859 
L 736.052102 64.49284 
L 745.171739 63.829822 
L 754.291375 63.166803 
L 763.411011 62.503784 
L 772.530648 61.840765 
L 781.650284 61.177747 
L 790.76992 60.514728 
L 799.889557 59.851709 
L 809.009193 59.18869 
L 818.12883 58.525672 
L 827.248466 57.862653 
L 836.368102 57.199634 
L 845.487739 56.536615 
L 854.607375 55.873597 
L 863.727011 55.210578 
L 872.846648 54.547559 
L 881.966284 53.88454 
L 891.08592 53.221522 
L 900.205557 52.558503 
L 909.325193 51.895484 
L 918.44483 51.232465 
L 927.564466 50.569446 
L 936.684102 49.906428 
L 945.803739 49.243409 
L 954.923375 48.58039 
" clip-path="url(#p62e55e4d63)" style="fill: none; stroke-dasharray: 1.5,2.475; stroke-dashoffset: 0; stroke: #48b585; stroke-width: 1.5"/>
   </g>
   <g id="line2d_49">
    <path d="M 52.079375 352.433198 
L 69.782199 355.785247 
L 87.485022 354.701286 
L 105.187846 350.354464 
L 122.890669 349.039896 
L 140.593493 345.692909 
L 158.296316 350.085852 
L 175.99914 350.460887 
L 193.701963 336.132843 
L 211.404787 318.094203 
L 229.10761 334.533527 
L 246.810434 328.359092 
L 264.513257 322.515938 
L 282.216081 320.431902 
L 299.918904 313.869706 
L 317.621728 309.028479 
L 335.324551 309.890546 
L 353.027375 307.012083 
L 370.730199 310.2004 
L 388.433022 317.228927 
L 406.135846 306.385923 
L 423.838669 309.346252 
L 441.541493 311.000341 
L 459.244316 309.969625 
L 476.94714 310.248018 
L 494.649963 310.885061 
L 512.352787 320.337036 
L 530.05561 315.866833 
L 547.758434 314.023795 
L 565.461257 313.614516 
L 583.164081 317.49408 
L 600.866904 310.793399 
L 618.569728 322.594841 
L 636.272551 305.275267 
L 653.975375 317.097644 
L 671.678199 313.953203 
L 689.381022 315.379509 
L 707.083846 300.967346 
L 724.786669 305.435701 
L 742.489493 311.033276 
L 760.192316 304.448317 
L 777.89514 306.242032 
L 795.597963 300.512445 
L 813.300787 298.412875 
L 831.00361 300.90506 
L 848.706434 300.829695 
L 866.409257 300.06883 
L 884.112081 300.798519 
L 901.814904 296.935893 
L 919.517728 290.142357 
L 937.220551 286.864985 
L 954.923375 287.911 
" clip-path="url(#p62e55e4d63)" style="fill: none; stroke: #4ac1fa; stroke-width: 1.5; stroke-linecap: square"/>
   </g>
   <g id="line2d_50">
    <path d="M 52.079375 426.540048 
L 69.782199 411.4632 
L 87.485022 401.690342 
L 105.187846 425.222415 
L 122.890669 426.253486 
L 140.593493 422.166683 
L 158.296316 408.646394 
L 175.99914 407.279104 
L 193.701963 398.510131 
L 211.404787 417.79697 
L 229.10761 415.880979 
L 246.810434 432.694281 
L 264.513257 434.907501 
L 282.216081 443.756326 
L 299.918904 447.212913 
L 317.621728 442.142707 
L 335.324551 455.762601 
L 353.027375 460.510621 
L 370.730199 442.313016 
L 388.433022 445.150705 
L 406.135846 461.640478 
L 423.838669 462.778407 
L 441.541493 460.700687 
L 459.244316 454.308779 
L 476.94714 462.190196 
L 494.649963 480.499777 
L 512.352787 464.33292 
L 530.05561 469.980825 
L 547.758434 470.426568 
L 565.461257 476.918784 
L 583.164081 475.421127 
L 600.866904 482.525023 
L 618.569728 477.604319 
L 636.272551 493.517987 
L 653.975375 479.618505 
L 671.678199 476.916316 
L 689.381022 472.267471 
L 707.083846 485.83248 
L 724.786669 485.941849 
L 742.489493 485.1763 
L 760.192316 488.109941 
L 777.89514 481.116887 
L 795.597963 492.98906 
L 813.300787 491.198037 
L 831.00361 488.038082 
L 848.706434 492.255748 
L 866.409257 491.303953 
L 884.112081 493.037216 
L 901.814904 492.667045 
L 919.517728 493.325346 
L 937.220551 494.682074 
L 954.923375 490.839868 
" clip-path="url(#p62e55e4d63)" style="fill: none; stroke: #e9a942; stroke-width: 1.5; stroke-linecap: square"/>
   </g>
   <g id="line2d_51">
    <path d="M 52.079375 370.469327 
L 69.782199 395.707083 
L 87.485022 401.390262 
L 105.187846 409.926162 
L 122.890669 401.780645 
L 140.593493 403.846434 
L 158.296316 401.577349 
L 175.99914 412.844846 
L 193.701963 464.67803 
L 211.404787 495.382963 
L 229.10761 499.743263 
L 246.810434 490.291351 
L 264.513257 487.782341 
L 282.216081 487.817618 
L 299.918904 482.934625 
L 317.621728 479.447608 
L 335.324551 479.077229 
L 353.027375 484.921255 
L 370.730199 487.186176 
L 388.433022 488.736862 
L 406.135846 483.350708 
L 423.838669 485.605435 
L 441.541493 484.619278 
L 459.244316 486.356786 
L 476.94714 485.32097 
L 494.649963 481.145929 
L 512.352787 485.053857 
L 530.05561 485.853369 
L 547.758434 486.071045 
L 565.461257 480.075339 
L 583.164081 480.756535 
L 600.866904 479.655854 
L 618.569728 469.184572 
L 636.272551 471.060389 
L 653.975375 480.494592 
L 671.678199 481.517549 
L 689.381022 481.283476 
L 707.083846 475.701299 
L 724.786669 474.220434 
L 742.489493 473.40335 
L 760.192316 476.690975 
L 777.89514 477.893044 
L 795.597963 476.640759 
L 813.300787 475.847341 
L 831.00361 475.90453 
L 848.706434 478.963398 
L 866.409257 475.128759 
L 884.112081 469.958757 
L 901.814904 472.793615 
L 919.517728 473.902139 
L 937.220551 474.322819 
L 954.923375 475.653672 
" clip-path="url(#p62e55e4d63)" style="fill: none; stroke: #9a5689; stroke-width: 1.5; stroke-linecap: square"/>
   </g>
   <g id="line2d_52">
    <path d="M 52.079375 534.988683 
L 69.782199 534.262497 
L 87.485022 536.047368 
L 105.187846 534.751641 
L 122.890669 534.642457 
L 140.593493 535.0989 
L 158.296316 535.618319 
L 175.99914 536.239037 
L 193.701963 536.627183 
L 211.404787 533.710721 
L 229.10761 536.069341 
L 246.810434 533.227002 
L 264.513257 531.407395 
L 282.216081 531.928922 
L 299.918904 531.002062 
L 317.621728 530.657751 
L 335.324551 531.932044 
L 353.027375 531.137265 
L 370.730199 533.404461 
L 388.433022 534.473023 
L 406.135846 532.535136 
L 423.838669 533.701173 
L 441.541493 533.602894 
L 459.244316 534.469305 
L 476.94714 534.98073 
L 494.649963 533.808735 
L 512.352787 534.794 
L 530.05561 535.631878 
L 547.758434 536.023971 
L 565.461257 535.545098 
L 583.164081 535.985242 
L 600.866904 535.49007 
L 618.569728 535.798733 
L 636.272551 534.16659 
L 653.975375 536.467472 
L 671.678199 537.156276 
L 689.381022 537.353194 
L 707.083846 533.758127 
L 724.786669 534.007281 
L 742.489493 535.157026 
L 760.192316 534.906581 
L 777.89514 536.338295 
L 795.597963 535.362612 
L 813.300787 536.013328 
L 831.00361 536.427438 
L 848.706434 536.140576 
L 866.409257 536.029811 
L 884.112081 536.402972 
L 901.814904 535.71426 
L 919.517728 536.956782 
L 937.220551 536.693495 
L 954.923375 537.080916 
" clip-path="url(#p62e55e4d63)" style="fill: none; stroke: #be503b; stroke-width: 1.5; stroke-linecap: square"/>
   </g>
   <g id="line2d_53">
    <path d="M 52.079375 350.499611 
L 69.782199 344.625694 
L 87.485022 345.918824 
L 105.187846 341.499471 
L 122.890669 340.945738 
L 140.593493 339.179869 
L 158.296316 342.529683 
L 175.99914 341.662258 
L 193.701963 339.770438 
L 211.404787 325.441227 
L 229.10761 335.999958 
L 246.810434 322.724586 
L 264.513257 320.614969 
L 282.216081 320.190479 
L 299.918904 313.341957 
L 317.621728 306.086243 
L 335.324551 308.814814 
L 353.027375 305.73021 
L 370.730199 316.810927 
L 388.433022 306.99433 
L 406.135846 309.24583 
L 423.838669 309.116131 
L 441.541493 312.194628 
L 459.244316 314.90328 
L 476.94714 314.961629 
L 494.649963 283.42824 
L 512.352787 295.774142 
L 530.05561 297.192105 
L 547.758434 299.941555 
L 565.461257 295.496877 
L 583.164081 304.065787 
L 600.866904 307.137366 
L 618.569728 314.224681 
L 636.272551 308.774079 
L 653.975375 309.47041 
L 671.678199 308.525122 
L 689.381022 315.759078 
L 707.083846 313.276156 
L 724.786669 314.608537 
L 742.489493 313.431172 
L 760.192316 311.986743 
L 777.89514 320.729539 
L 795.597963 314.264144 
L 813.300787 317.32745 
L 831.00361 318.999001 
L 848.706434 307.59084 
L 866.409257 312.295373 
L 884.112081 313.784696 
L 901.814904 317.579394 
L 919.517728 326.219765 
L 937.220551 324.684765 
L 954.923375 324.893319 
" clip-path="url(#p62e55e4d63)" style="fill: none; stroke: #e2321d; stroke-width: 1.5; stroke-linecap: square"/>
   </g>
   <g id="line2d_54">
    <path d="M 52.079375 138.330981 
L 69.782199 132.185311 
L 87.485022 134.235788 
L 105.187846 112.522793 
L 122.890669 121.612244 
L 140.593493 129.266151 
L 158.296316 136.664702 
L 175.99914 126.483614 
L 193.701963 99.867949 
L 211.404787 86.680673 
L 229.10761 54.10436 
L 246.810434 70.561748 
L 264.513257 81.668286 
L 282.216081 74.369109 
L 299.918904 91.222448 
L 317.621728 112.831381 
L 335.324551 94.081271 
L 353.027375 90.902103 
L 370.730199 89.49719 
L 388.433022 86.428097 
L 406.135846 86.934215 
L 423.838669 79.797698 
L 441.541493 77.725849 
L 459.244316 79.791571 
L 476.94714 72.21516 
L 494.649963 91.509372 
L 512.352787 79.200244 
L 530.05561 74.358111 
L 547.758434 72.189937 
L 565.461257 77.646868 
L 583.164081 64.899499 
L 600.866904 63.049247 
L 618.569728 58.755421 
L 636.272551 67.562459 
L 653.975375 55.381366 
L 671.678199 60.528707 
L 689.381022 57.403046 
L 707.083846 71.391731 
L 724.786669 67.111269 
L 742.489493 61.692617 
L 760.192316 63.37986 
L 777.89514 57.386187 
L 795.597963 60.47546 
L 813.300787 61.360011 
L 831.00361 60.20442 
L 848.706434 65.006755 
L 866.409257 65.608501 
L 884.112081 65.946635 
L 901.814904 64.793367 
L 919.517728 59.484487 
L 937.220551 62.894719 
L 954.923375 63.589597 
" clip-path="url(#p62e55e4d63)" style="fill: none; stroke: #48b585; stroke-width: 6; stroke-linecap: square"/>
   </g>
   <g id="patch_3">
    <path d="M 52.079375 578.54175 
L 52.079375 24.14175 
" style="fill: none; stroke: #ffffff; stroke-linejoin: miter; stroke-linecap: square"/>
   </g>
   <g id="patch_4">
    <path d="M 954.923375 578.54175 
L 954.923375 24.14175 
" style="fill: none; stroke: #ffffff; stroke-linejoin: miter; stroke-linecap: square"/>
   </g>
   <g id="patch_5">
    <path d="M 52.079375 578.54175 
L 954.923375 578.54175 
" style="fill: none; stroke: #ffffff; stroke-linejoin: miter; stroke-linecap: square"/>
   </g>
   <g id="patch_6">
    <path d="M 52.079375 24.14175 
L 954.923375 24.14175 
" style="fill: none; stroke: #ffffff; stroke-linejoin: miter; stroke-linecap: square"/>
   </g>
   <g id="text_24">
    <!-- Enterprise Linux Instances by Distribution Share (System Age &gt; 1 Week) -->
    <g transform="translate(52.079375 18.14175) scale(0.144 -0.144)">
     <defs>
      <path id="DejaVuSans-45" d="M 628 4666 
L 3578 4666 
L 3578 4134 
L 1259 4134 
L 1259 2753 
L 3481 2753 
L 3481 2222 
L 1259 2222 
L 1259 531 
L 3634 531 
L 3634 0 
L 628 0 
L 628 4666 
z
" transform="scale(0.015625)"/>
      <path id="DejaVuSans-6e" d="M 3513 2113 
L 3513 0 
L 2938 0 
L 2938 2094 
Q 2938 2591 2744 2837 
Q 2550 3084 2163 3084 
Q 1697 3084 1428 2787 
Q 1159 2491 1159 1978 
L 1159 0 
L 581 0 
L 581 3500 
L 1159 3500 
L 1159 2956 
Q 1366 3272 1645 3428 
Q 1925 3584 2291 3584 
Q 2894 3584 3203 3211 
Q 3513 2838 3513 2113 
z
" transform="scale(0.015625)"/>
      <path id="DejaVuSans-70" d="M 1159 525 
L 1159 -1331 
L 581 -1331 
L 581 3500 
L 1159 3500 
L 1159 2969 
Q 1341 3281 1617 3432 
Q 1894 3584 2278 3584 
Q 2916 3584 3314 3078 
Q 3713 2572 3713 1747 
Q 3713 922 3314 415 
Q 2916 -91 2278 -91 
Q 1894 -91 1617 61 
Q 1341 213 1159 525 
z
M 3116 1747 
Q 3116 2381 2855 2742 
Q 2594 3103 2138 3103 
Q 1681 3103 1420 2742 
Q 1159 2381 1159 1747 
Q 1159 1113 1420 752 
Q 1681 391 2138 391 
Q 2594 391 2855 752 
Q 3116 1113 3116 1747 
z
" transform="scale(0.015625)"/>
      <path id="DejaVuSans-69" d="M 603 3500 
L 1178 3500 
L 1178 0 
L 603 0 
L 603 3500 
z
M 603 4863 
L 1178 4863 
L 1178 4134 
L 603 4134 
L 603 4863 
z
" transform="scale(0.015625)"/>
      <path id="DejaVuSans-73" d="M 2834 3397 
L 2834 2853 
Q 2591 2978 2328 3040 
Q 2066 3103 1784 3103 
Q 1356 3103 1142 2972 
Q 928 2841 928 2578 
Q 928 2378 1081 2264 
Q 1234 2150 1697 2047 
L 1894 2003 
Q 2506 1872 2764 1633 
Q 3022 1394 3022 966 
Q 3022 478 2636 193 
Q 2250 -91 1575 -91 
Q 1294 -91 989 -36 
Q 684 19 347 128 
L 347 722 
Q 666 556 975 473 
Q 1284 391 1588 391 
Q 1994 391 2212 530 
Q 2431 669 2431 922 
Q 2431 1156 2273 1281 
Q 2116 1406 1581 1522 
L 1381 1569 
Q 847 1681 609 1914 
Q 372 2147 372 2553 
Q 372 3047 722 3315 
Q 1072 3584 1716 3584 
Q 2034 3584 2315 3537 
Q 2597 3491 2834 3397 
z
" transform="scale(0.015625)"/>
      <path id="DejaVuSans-20" transform="scale(0.015625)"/>
      <path id="DejaVuSans-4c" d="M 628 4666 
L 1259 4666 
L 1259 531 
L 3531 531 
L 3531 0 
L 628 0 
L 628 4666 
z
" transform="scale(0.015625)"/>
      <path id="DejaVuSans-75" d="M 544 1381 
L 544 3500 
L 1119 3500 
L 1119 1403 
Q 1119 906 1312 657 
Q 1506 409 1894 409 
Q 2359 409 2629 706 
Q 2900 1003 2900 1516 
L 2900 3500 
L 3475 3500 
L 3475 0 
L 2900 0 
L 2900 538 
Q 2691 219 2414 64 
Q 2138 -91 1772 -91 
Q 1169 -91 856 284 
Q 544 659 544 1381 
z
M 1991 3584 
L 1991 3584 
z
" transform="scale(0.015625)"/>
      <path id="DejaVuSans-78" d="M 3513 3500 
L 2247 1797 
L 3578 0 
L 2900 0 
L 1881 1375 
L 863 0 
L 184 0 
L 1544 1831 
L 300 3500 
L 978 3500 
L 1906 2253 
L 2834 3500 
L 3513 3500 
z
" transform="scale(0.015625)"/>
      <path id="DejaVuSans-49" d="M 628 4666 
L 1259 4666 
L 1259 0 
L 628 0 
L 628 4666 
z
" transform="scale(0.015625)"/>
      <path id="DejaVuSans-63" d="M 3122 3366 
L 3122 2828 
Q 2878 2963 2633 3030 
Q 2388 3097 2138 3097 
Q 1578 3097 1268 2742 
Q 959 2388 959 1747 
Q 959 1106 1268 751 
Q 1578 397 2138 397 
Q 2388 397 2633 464 
Q 2878 531 3122 666 
L 3122 134 
Q 2881 22 2623 -34 
Q 2366 -91 2075 -91 
Q 1284 -91 818 406 
Q 353 903 353 1747 
Q 353 2603 823 3093 
Q 1294 3584 2113 3584 
Q 2378 3584 2631 3529 
Q 2884 3475 3122 3366 
z
" transform="scale(0.015625)"/>
      <path id="DejaVuSans-62" d="M 3116 1747 
Q 3116 2381 2855 2742 
Q 2594 3103 2138 3103 
Q 1681 3103 1420 2742 
Q 1159 2381 1159 1747 
Q 1159 1113 1420 752 
Q 1681 391 2138 391 
Q 2594 391 2855 752 
Q 3116 1113 3116 1747 
z
M 1159 2969 
Q 1341 3281 1617 3432 
Q 1894 3584 2278 3584 
Q 2916 3584 3314 3078 
Q 3713 2572 3713 1747 
Q 3713 922 3314 415 
Q 2916 -91 2278 -91 
Q 1894 -91 1617 61 
Q 1341 213 1159 525 
L 1159 0 
L 581 0 
L 581 4863 
L 1159 4863 
L 1159 2969 
z
" transform="scale(0.015625)"/>
      <path id="DejaVuSans-79" d="M 2059 -325 
Q 1816 -950 1584 -1140 
Q 1353 -1331 966 -1331 
L 506 -1331 
L 506 -850 
L 844 -850 
Q 1081 -850 1212 -737 
Q 1344 -625 1503 -206 
L 1606 56 
L 191 3500 
L 800 3500 
L 1894 763 
L 2988 3500 
L 3597 3500 
L 2059 -325 
z
" transform="scale(0.015625)"/>
      <path id="DejaVuSans-6f" d="M 1959 3097 
Q 1497 3097 1228 2736 
Q 959 2375 959 1747 
Q 959 1119 1226 758 
Q 1494 397 1959 397 
Q 2419 397 2687 759 
Q 2956 1122 2956 1747 
Q 2956 2369 2687 2733 
Q 2419 3097 1959 3097 
z
M 1959 3584 
Q 2709 3584 3137 3096 
Q 3566 2609 3566 1747 
Q 3566 888 3137 398 
Q 2709 -91 1959 -91 
Q 1206 -91 779 398 
Q 353 888 353 1747 
Q 353 2609 779 3096 
Q 1206 3584 1959 3584 
z
" transform="scale(0.015625)"/>
      <path id="DejaVuSans-28" d="M 1984 4856 
Q 1566 4138 1362 3434 
Q 1159 2731 1159 2009 
Q 1159 1288 1364 580 
Q 1569 -128 1984 -844 
L 1484 -844 
Q 1016 -109 783 600 
Q 550 1309 550 2009 
Q 550 2706 781 3412 
Q 1013 4119 1484 4856 
L 1984 4856 
z
" transform="scale(0.015625)"/>
      <path id="DejaVuSans-6d" d="M 3328 2828 
Q 3544 3216 3844 3400 
Q 4144 3584 4550 3584 
Q 5097 3584 5394 3201 
Q 5691 2819 5691 2113 
L 5691 0 
L 5113 0 
L 5113 2094 
Q 5113 2597 4934 2840 
Q 4756 3084 4391 3084 
Q 3944 3084 3684 2787 
Q 3425 2491 3425 1978 
L 3425 0 
L 2847 0 
L 2847 2094 
Q 2847 2600 2669 2842 
Q 2491 3084 2119 3084 
Q 1678 3084 1418 2786 
Q 1159 2488 1159 1978 
L 1159 0 
L 581 0 
L 581 3500 
L 1159 3500 
L 1159 2956 
Q 1356 3278 1631 3431 
Q 1906 3584 2284 3584 
Q 2666 3584 2933 3390 
Q 3200 3197 3328 2828 
z
" transform="scale(0.015625)"/>
      <path id="DejaVuSans-41" d="M 2188 4044 
L 1331 1722 
L 3047 1722 
L 2188 4044 
z
M 1831 4666 
L 2547 4666 
L 4325 0 
L 3669 0 
L 3244 1197 
L 1141 1197 
L 716 0 
L 50 0 
L 1831 4666 
z
" transform="scale(0.015625)"/>
      <path id="DejaVuSans-67" d="M 2906 1791 
Q 2906 2416 2648 2759 
Q 2391 3103 1925 3103 
Q 1463 3103 1205 2759 
Q 947 2416 947 1791 
Q 947 1169 1205 825 
Q 1463 481 1925 481 
Q 2391 481 2648 825 
Q 2906 1169 2906 1791 
z
M 3481 434 
Q 3481 -459 3084 -895 
Q 2688 -1331 1869 -1331 
Q 1566 -1331 1297 -1286 
Q 1028 -1241 775 -1147 
L 775 -588 
Q 1028 -725 1275 -790 
Q 1522 -856 1778 -856 
Q 2344 -856 2625 -561 
Q 2906 -266 2906 331 
L 2906 616 
Q 2728 306 2450 153 
Q 2172 0 1784 0 
Q 1141 0 747 490 
Q 353 981 353 1791 
Q 353 2603 747 3093 
Q 1141 3584 1784 3584 
Q 2172 3584 2450 3431 
Q 2728 3278 2906 2969 
L 2906 3500 
L 3481 3500 
L 3481 434 
z
" transform="scale(0.015625)"/>
      <path id="DejaVuSans-3e" d="M 678 3150 
L 678 3719 
L 4684 2266 
L 4684 1747 
L 678 294 
L 678 863 
L 3897 2003 
L 678 3150 
z
" transform="scale(0.015625)"/>
      <path id="DejaVuSans-57" d="M 213 4666 
L 850 4666 
L 1831 722 
L 2809 4666 
L 3519 4666 
L 4500 722 
L 5478 4666 
L 6119 4666 
L 4947 0 
L 4153 0 
L 3169 4050 
L 2175 0 
L 1381 0 
L 213 4666 
z
" transform="scale(0.015625)"/>
      <path id="DejaVuSans-6b" d="M 581 4863 
L 1159 4863 
L 1159 1991 
L 2875 3500 
L 3609 3500 
L 1753 1863 
L 3688 0 
L 2938 0 
L 1159 1709 
L 1159 0 
L 581 0 
L 581 4863 
z
" transform="scale(0.015625)"/>
      <path id="DejaVuSans-29" d="M 513 4856 
L 1013 4856 
Q 1481 4119 1714 3412 
Q 1947 2706 1947 2009 
Q 1947 1309 1714 600 
Q 1481 -109 1013 -844 
L 513 -844 
Q 928 -128 1133 580 
Q 1338 1288 1338 2009 
Q 1338 2731 1133 3434 
Q 928 4138 513 4856 
z
" transform="scale(0.015625)"/>
     </defs>
     <use xlink:href="#DejaVuSans-45"/>
     <use xlink:href="#DejaVuSans-6e" x="63.183594"/>
     <use xlink:href="#DejaVuSans-74" x="126.5625"/>
     <use xlink:href="#DejaVuSans-65" x="165.771484"/>
     <use xlink:href="#DejaVuSans-72" x="227.294922"/>
     <use xlink:href="#DejaVuSans-70" x="268.408203"/>
     <use xlink:href="#DejaVuSans-72" x="331.884766"/>
     <use xlink:href="#DejaVuSans-69" x="372.998047"/>
     <use xlink:href="#DejaVuSans-73" x="400.78125"/>
     <use xlink:href="#DejaVuSans-65" x="452.880859"/>
     <use xlink:href="#DejaVuSans-20" x="514.404297"/>
     <use xlink:href="#DejaVuSans-4c" x="546.191406"/>
     <use xlink:href="#DejaVuSans-69" x="601.904297"/>
     <use xlink:href="#DejaVuSans-6e" x="629.6875"/>
     <use xlink:href="#DejaVuSans-75" x="693.066406"/>
     <use xlink:href="#DejaVuSans-78" x="756.445312"/>
     <use xlink:href="#DejaVuSans-20" x="815.625"/>
     <use xlink:href="#DejaVuSans-49" x="847.412109"/>
     <use xlink:href="#DejaVuSans-6e" x="876.904297"/>
     <use xlink:href="#DejaVuSans-73" x="940.283203"/>
     <use xlink:href="#DejaVuSans-74" x="992.382812"/>
     <use xlink:href="#DejaVuSans-61" x="1031.591797"/>
     <use xlink:href="#DejaVuSans-6e" x="1092.871094"/>
     <use xlink:href="#DejaVuSans-63" x="1156.25"/>
     <use xlink:href="#DejaVuSans-65" x="1211.230469"/>
     <use xlink:href="#DejaVuSans-73" x="1272.753906"/>
     <use xlink:href="#DejaVuSans-20" x="1324.853516"/>
     <use xlink:href="#DejaVuSans-62" x="1356.640625"/>
     <use xlink:href="#DejaVuSans-79" x="1420.117188"/>
     <use xlink:href="#DejaVuSans-20" x="1479.296875"/>
     <use xlink:href="#DejaVuSans-44" x="1511.083984"/>
     <use xlink:href="#DejaVuSans-69" x="1588.085938"/>
     <use xlink:href="#DejaVuSans-73" x="1615.869141"/>
     <use xlink:href="#DejaVuSans-74" x="1667.96875"/>
     <use xlink:href="#DejaVuSans-72" x="1707.177734"/>
     <use xlink:href="#DejaVuSans-69" x="1748.291016"/>
     <use xlink:href="#DejaVuSans-62" x="1776.074219"/>
     <use xlink:href="#DejaVuSans-75" x="1839.550781"/>
     <use xlink:href="#DejaVuSans-74" x="1902.929688"/>
     <use xlink:href="#DejaVuSans-69" x="1942.138672"/>
     <use xlink:href="#DejaVuSans-6f" x="1969.921875"/>
     <use xlink:href="#DejaVuSans-6e" x="2031.103516"/>
     <use xlink:href="#DejaVuSans-20" x="2094.482422"/>
     <use xlink:href="#DejaVuSans-53" x="2126.269531"/>
     <use xlink:href="#DejaVuSans-68" x="2189.746094"/>
     <use xlink:href="#DejaVuSans-61" x="2253.125"/>
     <use xlink:href="#DejaVuSans-72" x="2314.404297"/>
     <use xlink:href="#DejaVuSans-65" x="2353.267578"/>
     <use xlink:href="#DejaVuSans-20" x="2414.791016"/>
     <use xlink:href="#DejaVuSans-28" x="2446.578125"/>
     <use xlink:href="#DejaVuSans-53" x="2485.591797"/>
     <use xlink:href="#DejaVuSans-79" x="2549.068359"/>
     <use xlink:href="#DejaVuSans-73" x="2608.248047"/>
     <use xlink:href="#DejaVuSans-74" x="2660.347656"/>
     <use xlink:href="#DejaVuSans-65" x="2699.556641"/>
     <use xlink:href="#DejaVuSans-6d" x="2761.080078"/>
     <use xlink:href="#DejaVuSans-20" x="2858.492188"/>
     <use xlink:href="#DejaVuSans-41" x="2890.279297"/>
     <use xlink:href="#DejaVuSans-67" x="2958.6875"/>
     <use xlink:href="#DejaVuSans-65" x="3022.164062"/>
     <use xlink:href="#DejaVuSans-20" x="3083.6875"/>
     <use xlink:href="#DejaVuSans-3e" x="3115.474609"/>
     <use xlink:href="#DejaVuSans-20" x="3199.263672"/>
     <use xlink:href="#DejaVuSans-31" x="3231.050781"/>
     <use xlink:href="#DejaVuSans-20" x="3294.673828"/>
     <use xlink:href="#DejaVuSans-57" x="3326.460938"/>
     <use xlink:href="#DejaVuSans-65" x="3419.462891"/>
     <use xlink:href="#DejaVuSans-65" x="3480.986328"/>
     <use xlink:href="#DejaVuSans-6b" x="3542.509766"/>
     <use xlink:href="#DejaVuSans-29" x="3600.419922"/>
    </g>
   </g>
   <g id="text_25">
    <!-- 2025-04-10 11:54 UTC -->
    <g transform="translate(792.041375 18.14175) scale(0.144 -0.144)">
     <defs>
      <path id="DejaVuSans-3a" d="M 750 794 
L 1409 794 
L 1409 0 
L 750 0 
L 750 794 
z
M 750 3309 
L 1409 3309 
L 1409 2516 
L 750 2516 
L 750 3309 
z
" transform="scale(0.015625)"/>
      <path id="DejaVuSans-55" d="M 556 4666 
L 1191 4666 
L 1191 1831 
Q 1191 1081 1462 751 
Q 1734 422 2344 422 
Q 2950 422 3222 751 
Q 3494 1081 3494 1831 
L 3494 4666 
L 4128 4666 
L 4128 1753 
Q 4128 841 3676 375 
Q 3225 -91 2344 -91 
Q 1459 -91 1007 375 
Q 556 841 556 1753 
L 556 4666 
z
" transform="scale(0.015625)"/>
      <path id="DejaVuSans-54" d="M -19 4666 
L 3928 4666 
L 3928 4134 
L 2272 4134 
L 2272 0 
L 1638 0 
L 1638 4134 
L -19 4134 
L -19 4666 
z
" transform="scale(0.015625)"/>
      <path id="DejaVuSans-43" d="M 4122 4306 
L 4122 3641 
Q 3803 3938 3442 4084 
Q 3081 4231 2675 4231 
Q 1875 4231 1450 3742 
Q 1025 3253 1025 2328 
Q 1025 1406 1450 917 
Q 1875 428 2675 428 
Q 3081 428 3442 575 
Q 3803 722 4122 1019 
L 4122 359 
Q 3791 134 3420 21 
Q 3050 -91 2638 -91 
Q 1578 -91 968 557 
Q 359 1206 359 2328 
Q 359 3453 968 4101 
Q 1578 4750 2638 4750 
Q 3056 4750 3426 4639 
Q 3797 4528 4122 4306 
z
" transform="scale(0.015625)"/>
     </defs>
     <use xlink:href="#DejaVuSans-32"/>
     <use xlink:href="#DejaVuSans-30" x="63.623047"/>
     <use xlink:href="#DejaVuSans-32" x="127.246094"/>
     <use xlink:href="#DejaVuSans-35" x="190.869141"/>
     <use xlink:href="#DejaVuSans-2d" x="254.492188"/>
     <use xlink:href="#DejaVuSans-30" x="290.576172"/>
     <use xlink:href="#DejaVuSans-34" x="354.199219"/>
     <use xlink:href="#DejaVuSans-2d" x="417.822266"/>
     <use xlink:href="#DejaVuSans-31" x="453.90625"/>
     <use xlink:href="#DejaVuSans-30" x="517.529297"/>
     <use xlink:href="#DejaVuSans-20" x="581.152344"/>
     <use xlink:href="#DejaVuSans-31" x="612.939453"/>
     <use xlink:href="#DejaVuSans-31" x="676.5625"/>
     <use xlink:href="#DejaVuSans-3a" x="740.185547"/>
     <use xlink:href="#DejaVuSans-35" x="773.876953"/>
     <use xlink:href="#DejaVuSans-34" x="837.5"/>
     <use xlink:href="#DejaVuSans-20" x="901.123047"/>
     <use xlink:href="#DejaVuSans-55" x="932.910156"/>
     <use xlink:href="#DejaVuSans-54" x="1006.103516"/>
     <use xlink:href="#DejaVuSans-43" x="1061.3125"/>
    </g>
   </g>
   <g id="legend_1">
    <g id="patch_7">
     <path d="M 59.079375 134.888625 
L 168.048125 134.888625 
Q 170.048125 134.888625 170.048125 132.888625 
L 170.048125 31.14175 
Q 170.048125 29.14175 168.048125 29.14175 
L 59.079375 29.14175 
Q 57.079375 29.14175 57.079375 31.14175 
L 57.079375 132.888625 
Q 57.079375 134.888625 59.079375 134.888625 
z
" style="fill: #e5e5e5; opacity: 0.8; stroke: #cccccc; stroke-width: 0.5; stroke-linejoin: miter"/>
    </g>
    <g id="text_26">
     <!-- Distribution -->
     <g transform="translate(84.395 40.740188) scale(0.1 -0.1)">
      <use xlink:href="#DejaVuSans-44"/>
      <use xlink:href="#DejaVuSans-69" x="77.001953"/>
      <use xlink:href="#DejaVuSans-73" x="104.785156"/>
      <use xlink:href="#DejaVuSans-74" x="156.884766"/>
      <use xlink:href="#DejaVuSans-72" x="196.09375"/>
      <use xlink:href="#DejaVuSans-69" x="237.207031"/>
      <use xlink:href="#DejaVuSans-62" x="264.990234"/>
      <use xlink:href="#DejaVuSans-75" x="328.466797"/>
      <use xlink:href="#DejaVuSans-74" x="391.845703"/>
      <use xlink:href="#DejaVuSans-69" x="431.054688"/>
      <use xlink:href="#DejaVuSans-6f" x="458.837891"/>
      <use xlink:href="#DejaVuSans-6e" x="520.019531"/>
     </g>
    </g>
    <g id="line2d_55">
     <path d="M 61.079375 51.918313 
L 71.079375 51.918313 
L 81.079375 51.918313 
" style="fill: none; stroke: #4ac1fa; stroke-width: 1.5; stroke-linecap: square"/>
    </g>
    <g id="text_27">
     <!-- AlmaLinux -->
     <g transform="translate(89.079375 55.418313) scale(0.1 -0.1)">
      <defs>
       <path id="DejaVuSans-6c" d="M 603 4863 
L 1178 4863 
L 1178 0 
L 603 0 
L 603 4863 
z
" transform="scale(0.015625)"/>
      </defs>
      <use xlink:href="#DejaVuSans-41"/>
      <use xlink:href="#DejaVuSans-6c" x="68.408203"/>
      <use xlink:href="#DejaVuSans-6d" x="96.191406"/>
      <use xlink:href="#DejaVuSans-61" x="193.603516"/>
      <use xlink:href="#DejaVuSans-4c" x="254.882812"/>
      <use xlink:href="#DejaVuSans-69" x="310.595703"/>
      <use xlink:href="#DejaVuSans-6e" x="338.378906"/>
      <use xlink:href="#DejaVuSans-75" x="401.757812"/>
      <use xlink:href="#DejaVuSans-78" x="465.136719"/>
     </g>
    </g>
    <g id="line2d_56">
     <path d="M 61.079375 66.596438 
L 71.079375 66.596438 
L 81.079375 66.596438 
" style="fill: none; stroke: #e9a942; stroke-width: 1.5; stroke-linecap: square"/>
    </g>
    <g id="text_28">
     <!-- CentOS Legacy -->
     <g transform="translate(89.079375 70.096438) scale(0.1 -0.1)">
      <defs>
       <path id="DejaVuSans-4f" d="M 2522 4238 
Q 1834 4238 1429 3725 
Q 1025 3213 1025 2328 
Q 1025 1447 1429 934 
Q 1834 422 2522 422 
Q 3209 422 3611 934 
Q 4013 1447 4013 2328 
Q 4013 3213 3611 3725 
Q 3209 4238 2522 4238 
z
M 2522 4750 
Q 3503 4750 4090 4092 
Q 4678 3434 4678 2328 
Q 4678 1225 4090 567 
Q 3503 -91 2522 -91 
Q 1538 -91 948 565 
Q 359 1222 359 2328 
Q 359 3434 948 4092 
Q 1538 4750 2522 4750 
z
" transform="scale(0.015625)"/>
      </defs>
      <use xlink:href="#DejaVuSans-43"/>
      <use xlink:href="#DejaVuSans-65" x="69.824219"/>
      <use xlink:href="#DejaVuSans-6e" x="131.347656"/>
      <use xlink:href="#DejaVuSans-74" x="194.726562"/>
      <use xlink:href="#DejaVuSans-4f" x="233.935547"/>
      <use xlink:href="#DejaVuSans-53" x="312.646484"/>
      <use xlink:href="#DejaVuSans-20" x="376.123047"/>
      <use xlink:href="#DejaVuSans-4c" x="407.910156"/>
      <use xlink:href="#DejaVuSans-65" x="461.873047"/>
      <use xlink:href="#DejaVuSans-67" x="523.396484"/>
      <use xlink:href="#DejaVuSans-61" x="586.873047"/>
      <use xlink:href="#DejaVuSans-63" x="648.152344"/>
      <use xlink:href="#DejaVuSans-79" x="703.132812"/>
     </g>
    </g>
    <g id="line2d_57">
     <path d="M 61.079375 81.274563 
L 71.079375 81.274563 
L 81.079375 81.274563 
" style="fill: none; stroke: #9a5689; stroke-width: 1.5; stroke-linecap: square"/>
    </g>
    <g id="text_29">
     <!-- CentOS Stream -->
     <g transform="translate(89.079375 84.774563) scale(0.1 -0.1)">
      <use xlink:href="#DejaVuSans-43"/>
      <use xlink:href="#DejaVuSans-65" x="69.824219"/>
      <use xlink:href="#DejaVuSans-6e" x="131.347656"/>
      <use xlink:href="#DejaVuSans-74" x="194.726562"/>
      <use xlink:href="#DejaVuSans-4f" x="233.935547"/>
      <use xlink:href="#DejaVuSans-53" x="312.646484"/>
      <use xlink:href="#DejaVuSans-20" x="376.123047"/>
      <use xlink:href="#DejaVuSans-53" x="407.910156"/>
      <use xlink:href="#DejaVuSans-74" x="471.386719"/>
      <use xlink:href="#DejaVuSans-72" x="510.595703"/>
      <use xlink:href="#DejaVuSans-65" x="549.458984"/>
      <use xlink:href="#DejaVuSans-61" x="610.982422"/>
      <use xlink:href="#DejaVuSans-6d" x="672.261719"/>
     </g>
    </g>
    <g id="line2d_58">
     <path d="M 61.079375 95.952688 
L 71.079375 95.952688 
L 81.079375 95.952688 
" style="fill: none; stroke: #be503b; stroke-width: 1.5; stroke-linecap: square"/>
    </g>
    <g id="text_30">
     <!-- Oracle -->
     <g transform="translate(89.079375 99.452688) scale(0.1 -0.1)">
      <use xlink:href="#DejaVuSans-4f"/>
      <use xlink:href="#DejaVuSans-72" x="78.710938"/>
      <use xlink:href="#DejaVuSans-61" x="119.824219"/>
      <use xlink:href="#DejaVuSans-63" x="181.103516"/>
      <use xlink:href="#DejaVuSans-6c" x="236.083984"/>
      <use xlink:href="#DejaVuSans-65" x="263.867188"/>
     </g>
    </g>
    <g id="line2d_59">
     <path d="M 61.079375 110.630813 
L 71.079375 110.630813 
L 81.079375 110.630813 
" style="fill: none; stroke: #e2321d; stroke-width: 1.5; stroke-linecap: square"/>
    </g>
    <g id="text_31">
     <!-- RHEL -->
     <g transform="translate(89.079375 114.130813) scale(0.1 -0.1)">
      <defs>
       <path id="DejaVuSans-52" d="M 2841 2188 
Q 3044 2119 3236 1894 
Q 3428 1669 3622 1275 
L 4263 0 
L 3584 0 
L 2988 1197 
Q 2756 1666 2539 1819 
Q 2322 1972 1947 1972 
L 1259 1972 
L 1259 0 
L 628 0 
L 628 4666 
L 2053 4666 
Q 2853 4666 3247 4331 
Q 3641 3997 3641 3322 
Q 3641 2881 3436 2590 
Q 3231 2300 2841 2188 
z
M 1259 4147 
L 1259 2491 
L 2053 2491 
Q 2509 2491 2742 2702 
Q 2975 2913 2975 3322 
Q 2975 3731 2742 3939 
Q 2509 4147 2053 4147 
L 1259 4147 
z
" transform="scale(0.015625)"/>
       <path id="DejaVuSans-48" d="M 628 4666 
L 1259 4666 
L 1259 2753 
L 3553 2753 
L 3553 4666 
L 4184 4666 
L 4184 0 
L 3553 0 
L 3553 2222 
L 1259 2222 
L 1259 0 
L 628 0 
L 628 4666 
z
" transform="scale(0.015625)"/>
      </defs>
      <use xlink:href="#DejaVuSans-52"/>
      <use xlink:href="#DejaVuSans-48" x="69.482422"/>
      <use xlink:href="#DejaVuSans-45" x="144.677734"/>
      <use xlink:href="#DejaVuSans-4c" x="207.861328"/>
     </g>
    </g>
    <g id="line2d_60">
     <path d="M 61.079375 125.308938 
L 71.079375 125.308938 
L 81.079375 125.308938 
" style="fill: none; stroke: #48b585; stroke-width: 6; stroke-linecap: square"/>
    </g>
    <g id="text_32">
     <!-- Rocky Linux -->
     <g transform="translate(89.079375 128.808938) scale(0.1 -0.1)">
      <use xlink:href="#DejaVuSans-52"/>
      <use xlink:href="#DejaVuSans-6f" x="64.982422"/>
      <use xlink:href="#DejaVuSans-63" x="126.164062"/>
      <use xlink:href="#DejaVuSans-6b" x="181.144531"/>
      <use xlink:href="#DejaVuSans-79" x="235.429688"/>
      <use xlink:href="#DejaVuSans-20" x="294.609375"/>
      <use xlink:href="#DejaVuSans-4c" x="326.396484"/>
      <use xlink:href="#DejaVuSans-69" x="382.109375"/>
      <use xlink:href="#DejaVuSans-6e" x="409.892578"/>
      <use xlink:href="#DejaVuSans-75" x="473.271484"/>
      <use xlink:href="#DejaVuSans-78" x="536.650391"/>
     </g>
    </g>
   </g>
  </g>
 </g>
 <defs>
  <clipPath id="p62e55e4d63">
   <rect x="52.079375" y="24.14175" width="902.844" height="554.4"/>
  </clipPath>
 </defs>
</svg>
