<?xml version="1.0" encoding="utf-8" standalone="no"?>
<!DOCTYPE svg PUBLIC "-//W3C//DTD SVG 1.1//EN"
  "http://www.w3.org/Graphics/SVG/1.1/DTD/svg11.dtd">
<svg xmlns:xlink="http://www.w3.org/1999/xlink" width="966.80785pt" height="633.943878pt" viewBox="0 0 966.80785 633.943878" xmlns="http://www.w3.org/2000/svg" version="1.1">
 <metadata>
  <rdf:RDF xmlns:dc="http://purl.org/dc/elements/1.1/" xmlns:cc="http://creativecommons.org/ns#" xmlns:rdf="http://www.w3.org/1999/02/22-rdf-syntax-ns#">
   <cc:Work>
    <dc:type rdf:resource="http://purl.org/dc/dcmitype/StillImage"/>
    <dc:date>2024-01-04T11:54:43.262794</dc:date>
    <dc:format>image/svg+xml</dc:format>
    <dc:creator>
     <cc:Agent>
      <dc:title>Matplotlib v3.5.1, https://matplotlib.org/</dc:title>
     </cc:Agent>
    </dc:creator>
   </cc:Work>
  </rdf:RDF>
 </metadata>
 <defs>
  <style type="text/css">*{stroke-linejoin: round; stroke-linecap: butt}</style>
 </defs>
 <g id="figure_1">
  <g id="patch_1">
   <path d="M 0 633.943878 
L 966.80785 633.943878 
L 966.80785 0 
L 0 0 
z
" style="fill: #ffffff"/>
  </g>
  <g id="axes_1">
   <g id="patch_2">
    <path d="M 54.691875 567.74175 
L 957.535875 567.74175 
L 957.535875 24.14175 
L 54.691875 24.14175 
z
" style="fill: #e5e5e5"/>
   </g>
   <g id="matplotlib.axis_1">
    <g id="xtick_1">
     <g id="line2d_1">
      <path d="M 58.722429 567.74175 
L 58.722429 24.14175 
" clip-path="url(#p57d1612f2c)" style="fill: none; stroke: #ffffff; stroke-width: 0.8; stroke-linecap: square"/>
     </g>
     <g id="line2d_2">
      <defs>
       <path id="m4ca19807e6" d="M 0 0 
L 0 3.5 
" style="stroke: #555555; stroke-width: 0.8"/>
      </defs>
      <g>
       <use xlink:href="#m4ca19807e6" x="58.722429" y="567.74175" style="fill: #555555; stroke: #555555; stroke-width: 0.8"/>
      </g>
     </g>
     <g id="text_1">
      <!-- 2020-12 -->
      <g style="fill: #555555" transform="translate(45.901146 609.659567)rotate(-45)scale(0.1 -0.1)">
       <defs>
        <path id="DejaVuSans-32" d="M 1228 531 
L 3431 531 
L 3431 0 
L 469 0 
L 469 531 
Q 828 903 1448 1529 
Q 2069 2156 2228 2338 
Q 2531 2678 2651 2914 
Q 2772 3150 2772 3378 
Q 2772 3750 2511 3984 
Q 2250 4219 1831 4219 
Q 1534 4219 1204 4116 
Q 875 4013 500 3803 
L 500 4441 
Q 881 4594 1212 4672 
Q 1544 4750 1819 4750 
Q 2544 4750 2975 4387 
Q 3406 4025 3406 3419 
Q 3406 3131 3298 2873 
Q 3191 2616 2906 2266 
Q 2828 2175 2409 1742 
Q 1991 1309 1228 531 
z
" transform="scale(0.015625)"/>
        <path id="DejaVuSans-30" d="M 2034 4250 
Q 1547 4250 1301 3770 
Q 1056 3291 1056 2328 
Q 1056 1369 1301 889 
Q 1547 409 2034 409 
Q 2525 409 2770 889 
Q 3016 1369 3016 2328 
Q 3016 3291 2770 3770 
Q 2525 4250 2034 4250 
z
M 2034 4750 
Q 2819 4750 3233 4129 
Q 3647 3509 3647 2328 
Q 3647 1150 3233 529 
Q 2819 -91 2034 -91 
Q 1250 -91 836 529 
Q 422 1150 422 2328 
Q 422 3509 836 4129 
Q 1250 4750 2034 4750 
z
" transform="scale(0.015625)"/>
        <path id="DejaVuSans-2d" d="M 313 2009 
L 1997 2009 
L 1997 1497 
L 313 1497 
L 313 2009 
z
" transform="scale(0.015625)"/>
        <path id="DejaVuSans-31" d="M 794 531 
L 1825 531 
L 1825 4091 
L 703 3866 
L 703 4441 
L 1819 4666 
L 2450 4666 
L 2450 531 
L 3481 531 
L 3481 0 
L 794 0 
L 794 531 
z
" transform="scale(0.015625)"/>
       </defs>
       <use xlink:href="#DejaVuSans-32"/>
       <use xlink:href="#DejaVuSans-30" x="63.623047"/>
       <use xlink:href="#DejaVuSans-32" x="127.246094"/>
       <use xlink:href="#DejaVuSans-30" x="190.869141"/>
       <use xlink:href="#DejaVuSans-2d" x="254.492188"/>
       <use xlink:href="#DejaVuSans-31" x="290.576172"/>
       <use xlink:href="#DejaVuSans-32" x="354.199219"/>
      </g>
     </g>
    </g>
    <g id="xtick_2">
     <g id="line2d_3">
      <path d="M 83.711861 567.74175 
L 83.711861 24.14175 
" clip-path="url(#p57d1612f2c)" style="fill: none; stroke: #ffffff; stroke-width: 0.8; stroke-linecap: square"/>
     </g>
     <g id="line2d_4">
      <g>
       <use xlink:href="#m4ca19807e6" x="83.711861" y="567.74175" style="fill: #555555; stroke: #555555; stroke-width: 0.8"/>
      </g>
     </g>
     <g id="text_2">
      <!-- 2021-01 -->
      <g style="fill: #555555" transform="translate(70.890578 609.659567)rotate(-45)scale(0.1 -0.1)">
       <use xlink:href="#DejaVuSans-32"/>
       <use xlink:href="#DejaVuSans-30" x="63.623047"/>
       <use xlink:href="#DejaVuSans-32" x="127.246094"/>
       <use xlink:href="#DejaVuSans-31" x="190.869141"/>
       <use xlink:href="#DejaVuSans-2d" x="254.492188"/>
       <use xlink:href="#DejaVuSans-30" x="290.576172"/>
       <use xlink:href="#DejaVuSans-31" x="354.199219"/>
      </g>
     </g>
    </g>
    <g id="xtick_3">
     <g id="line2d_5">
      <path d="M 108.701293 567.74175 
L 108.701293 24.14175 
" clip-path="url(#p57d1612f2c)" style="fill: none; stroke: #ffffff; stroke-width: 0.8; stroke-linecap: square"/>
     </g>
     <g id="line2d_6">
      <g>
       <use xlink:href="#m4ca19807e6" x="108.701293" y="567.74175" style="fill: #555555; stroke: #555555; stroke-width: 0.8"/>
      </g>
     </g>
     <g id="text_3">
      <!-- 2021-02 -->
      <g style="fill: #555555" transform="translate(95.880011 609.659567)rotate(-45)scale(0.1 -0.1)">
       <use xlink:href="#DejaVuSans-32"/>
       <use xlink:href="#DejaVuSans-30" x="63.623047"/>
       <use xlink:href="#DejaVuSans-32" x="127.246094"/>
       <use xlink:href="#DejaVuSans-31" x="190.869141"/>
       <use xlink:href="#DejaVuSans-2d" x="254.492188"/>
       <use xlink:href="#DejaVuSans-30" x="290.576172"/>
       <use xlink:href="#DejaVuSans-32" x="354.199219"/>
      </g>
     </g>
    </g>
    <g id="xtick_4">
     <g id="line2d_7">
      <path d="M 131.272393 567.74175 
L 131.272393 24.14175 
" clip-path="url(#p57d1612f2c)" style="fill: none; stroke: #ffffff; stroke-width: 0.8; stroke-linecap: square"/>
     </g>
     <g id="line2d_8">
      <g>
       <use xlink:href="#m4ca19807e6" x="131.272393" y="567.74175" style="fill: #555555; stroke: #555555; stroke-width: 0.8"/>
      </g>
     </g>
     <g id="text_4">
      <!-- 2021-03 -->
      <g style="fill: #555555" transform="translate(118.451111 609.659567)rotate(-45)scale(0.1 -0.1)">
       <defs>
        <path id="DejaVuSans-33" d="M 2597 2516 
Q 3050 2419 3304 2112 
Q 3559 1806 3559 1356 
Q 3559 666 3084 287 
Q 2609 -91 1734 -91 
Q 1441 -91 1130 -33 
Q 819 25 488 141 
L 488 750 
Q 750 597 1062 519 
Q 1375 441 1716 441 
Q 2309 441 2620 675 
Q 2931 909 2931 1356 
Q 2931 1769 2642 2001 
Q 2353 2234 1838 2234 
L 1294 2234 
L 1294 2753 
L 1863 2753 
Q 2328 2753 2575 2939 
Q 2822 3125 2822 3475 
Q 2822 3834 2567 4026 
Q 2313 4219 1838 4219 
Q 1578 4219 1281 4162 
Q 984 4106 628 3988 
L 628 4550 
Q 988 4650 1302 4700 
Q 1616 4750 1894 4750 
Q 2613 4750 3031 4423 
Q 3450 4097 3450 3541 
Q 3450 3153 3228 2886 
Q 3006 2619 2597 2516 
z
" transform="scale(0.015625)"/>
       </defs>
       <use xlink:href="#DejaVuSans-32"/>
       <use xlink:href="#DejaVuSans-30" x="63.623047"/>
       <use xlink:href="#DejaVuSans-32" x="127.246094"/>
       <use xlink:href="#DejaVuSans-31" x="190.869141"/>
       <use xlink:href="#DejaVuSans-2d" x="254.492188"/>
       <use xlink:href="#DejaVuSans-30" x="290.576172"/>
       <use xlink:href="#DejaVuSans-33" x="354.199219"/>
      </g>
     </g>
    </g>
    <g id="xtick_5">
     <g id="line2d_9">
      <path d="M 156.261825 567.74175 
L 156.261825 24.14175 
" clip-path="url(#p57d1612f2c)" style="fill: none; stroke: #ffffff; stroke-width: 0.8; stroke-linecap: square"/>
     </g>
     <g id="line2d_10">
      <g>
       <use xlink:href="#m4ca19807e6" x="156.261825" y="567.74175" style="fill: #555555; stroke: #555555; stroke-width: 0.8"/>
      </g>
     </g>
     <g id="text_5">
      <!-- 2021-04 -->
      <g style="fill: #555555" transform="translate(143.440543 609.659567)rotate(-45)scale(0.1 -0.1)">
       <defs>
        <path id="DejaVuSans-34" d="M 2419 4116 
L 825 1625 
L 2419 1625 
L 2419 4116 
z
M 2253 4666 
L 3047 4666 
L 3047 1625 
L 3713 1625 
L 3713 1100 
L 3047 1100 
L 3047 0 
L 2419 0 
L 2419 1100 
L 313 1100 
L 313 1709 
L 2253 4666 
z
" transform="scale(0.015625)"/>
       </defs>
       <use xlink:href="#DejaVuSans-32"/>
       <use xlink:href="#DejaVuSans-30" x="63.623047"/>
       <use xlink:href="#DejaVuSans-32" x="127.246094"/>
       <use xlink:href="#DejaVuSans-31" x="190.869141"/>
       <use xlink:href="#DejaVuSans-2d" x="254.492188"/>
       <use xlink:href="#DejaVuSans-30" x="290.576172"/>
       <use xlink:href="#DejaVuSans-34" x="354.199219"/>
      </g>
     </g>
    </g>
    <g id="xtick_6">
     <g id="line2d_11">
      <path d="M 180.445146 567.74175 
L 180.445146 24.14175 
" clip-path="url(#p57d1612f2c)" style="fill: none; stroke: #ffffff; stroke-width: 0.8; stroke-linecap: square"/>
     </g>
     <g id="line2d_12">
      <g>
       <use xlink:href="#m4ca19807e6" x="180.445146" y="567.74175" style="fill: #555555; stroke: #555555; stroke-width: 0.8"/>
      </g>
     </g>
     <g id="text_6">
      <!-- 2021-05 -->
      <g style="fill: #555555" transform="translate(167.623864 609.659567)rotate(-45)scale(0.1 -0.1)">
       <defs>
        <path id="DejaVuSans-35" d="M 691 4666 
L 3169 4666 
L 3169 4134 
L 1269 4134 
L 1269 2991 
Q 1406 3038 1543 3061 
Q 1681 3084 1819 3084 
Q 2600 3084 3056 2656 
Q 3513 2228 3513 1497 
Q 3513 744 3044 326 
Q 2575 -91 1722 -91 
Q 1428 -91 1123 -41 
Q 819 9 494 109 
L 494 744 
Q 775 591 1075 516 
Q 1375 441 1709 441 
Q 2250 441 2565 725 
Q 2881 1009 2881 1497 
Q 2881 1984 2565 2268 
Q 2250 2553 1709 2553 
Q 1456 2553 1204 2497 
Q 953 2441 691 2322 
L 691 4666 
z
" transform="scale(0.015625)"/>
       </defs>
       <use xlink:href="#DejaVuSans-32"/>
       <use xlink:href="#DejaVuSans-30" x="63.623047"/>
       <use xlink:href="#DejaVuSans-32" x="127.246094"/>
       <use xlink:href="#DejaVuSans-31" x="190.869141"/>
       <use xlink:href="#DejaVuSans-2d" x="254.492188"/>
       <use xlink:href="#DejaVuSans-30" x="290.576172"/>
       <use xlink:href="#DejaVuSans-35" x="354.199219"/>
      </g>
     </g>
    </g>
    <g id="xtick_7">
     <g id="line2d_13">
      <path d="M 205.434579 567.74175 
L 205.434579 24.14175 
" clip-path="url(#p57d1612f2c)" style="fill: none; stroke: #ffffff; stroke-width: 0.8; stroke-linecap: square"/>
     </g>
     <g id="line2d_14">
      <g>
       <use xlink:href="#m4ca19807e6" x="205.434579" y="567.74175" style="fill: #555555; stroke: #555555; stroke-width: 0.8"/>
      </g>
     </g>
     <g id="text_7">
      <!-- 2021-06 -->
      <g style="fill: #555555" transform="translate(192.613296 609.659567)rotate(-45)scale(0.1 -0.1)">
       <defs>
        <path id="DejaVuSans-36" d="M 2113 2584 
Q 1688 2584 1439 2293 
Q 1191 2003 1191 1497 
Q 1191 994 1439 701 
Q 1688 409 2113 409 
Q 2538 409 2786 701 
Q 3034 994 3034 1497 
Q 3034 2003 2786 2293 
Q 2538 2584 2113 2584 
z
M 3366 4563 
L 3366 3988 
Q 3128 4100 2886 4159 
Q 2644 4219 2406 4219 
Q 1781 4219 1451 3797 
Q 1122 3375 1075 2522 
Q 1259 2794 1537 2939 
Q 1816 3084 2150 3084 
Q 2853 3084 3261 2657 
Q 3669 2231 3669 1497 
Q 3669 778 3244 343 
Q 2819 -91 2113 -91 
Q 1303 -91 875 529 
Q 447 1150 447 2328 
Q 447 3434 972 4092 
Q 1497 4750 2381 4750 
Q 2619 4750 2861 4703 
Q 3103 4656 3366 4563 
z
" transform="scale(0.015625)"/>
       </defs>
       <use xlink:href="#DejaVuSans-32"/>
       <use xlink:href="#DejaVuSans-30" x="63.623047"/>
       <use xlink:href="#DejaVuSans-32" x="127.246094"/>
       <use xlink:href="#DejaVuSans-31" x="190.869141"/>
       <use xlink:href="#DejaVuSans-2d" x="254.492188"/>
       <use xlink:href="#DejaVuSans-30" x="290.576172"/>
       <use xlink:href="#DejaVuSans-36" x="354.199219"/>
      </g>
     </g>
    </g>
    <g id="xtick_8">
     <g id="line2d_15">
      <path d="M 229.6179 567.74175 
L 229.6179 24.14175 
" clip-path="url(#p57d1612f2c)" style="fill: none; stroke: #ffffff; stroke-width: 0.8; stroke-linecap: square"/>
     </g>
     <g id="line2d_16">
      <g>
       <use xlink:href="#m4ca19807e6" x="229.6179" y="567.74175" style="fill: #555555; stroke: #555555; stroke-width: 0.8"/>
      </g>
     </g>
     <g id="text_8">
      <!-- 2021-07 -->
      <g style="fill: #555555" transform="translate(216.796618 609.659567)rotate(-45)scale(0.1 -0.1)">
       <defs>
        <path id="DejaVuSans-37" d="M 525 4666 
L 3525 4666 
L 3525 4397 
L 1831 0 
L 1172 0 
L 2766 4134 
L 525 4134 
L 525 4666 
z
" transform="scale(0.015625)"/>
       </defs>
       <use xlink:href="#DejaVuSans-32"/>
       <use xlink:href="#DejaVuSans-30" x="63.623047"/>
       <use xlink:href="#DejaVuSans-32" x="127.246094"/>
       <use xlink:href="#DejaVuSans-31" x="190.869141"/>
       <use xlink:href="#DejaVuSans-2d" x="254.492188"/>
       <use xlink:href="#DejaVuSans-30" x="290.576172"/>
       <use xlink:href="#DejaVuSans-37" x="354.199219"/>
      </g>
     </g>
    </g>
    <g id="xtick_9">
     <g id="line2d_17">
      <path d="M 254.607332 567.74175 
L 254.607332 24.14175 
" clip-path="url(#p57d1612f2c)" style="fill: none; stroke: #ffffff; stroke-width: 0.8; stroke-linecap: square"/>
     </g>
     <g id="line2d_18">
      <g>
       <use xlink:href="#m4ca19807e6" x="254.607332" y="567.74175" style="fill: #555555; stroke: #555555; stroke-width: 0.8"/>
      </g>
     </g>
     <g id="text_9">
      <!-- 2021-08 -->
      <g style="fill: #555555" transform="translate(241.78605 609.659567)rotate(-45)scale(0.1 -0.1)">
       <defs>
        <path id="DejaVuSans-38" d="M 2034 2216 
Q 1584 2216 1326 1975 
Q 1069 1734 1069 1313 
Q 1069 891 1326 650 
Q 1584 409 2034 409 
Q 2484 409 2743 651 
Q 3003 894 3003 1313 
Q 3003 1734 2745 1975 
Q 2488 2216 2034 2216 
z
M 1403 2484 
Q 997 2584 770 2862 
Q 544 3141 544 3541 
Q 544 4100 942 4425 
Q 1341 4750 2034 4750 
Q 2731 4750 3128 4425 
Q 3525 4100 3525 3541 
Q 3525 3141 3298 2862 
Q 3072 2584 2669 2484 
Q 3125 2378 3379 2068 
Q 3634 1759 3634 1313 
Q 3634 634 3220 271 
Q 2806 -91 2034 -91 
Q 1263 -91 848 271 
Q 434 634 434 1313 
Q 434 1759 690 2068 
Q 947 2378 1403 2484 
z
M 1172 3481 
Q 1172 3119 1398 2916 
Q 1625 2713 2034 2713 
Q 2441 2713 2670 2916 
Q 2900 3119 2900 3481 
Q 2900 3844 2670 4047 
Q 2441 4250 2034 4250 
Q 1625 4250 1398 4047 
Q 1172 3844 1172 3481 
z
" transform="scale(0.015625)"/>
       </defs>
       <use xlink:href="#DejaVuSans-32"/>
       <use xlink:href="#DejaVuSans-30" x="63.623047"/>
       <use xlink:href="#DejaVuSans-32" x="127.246094"/>
       <use xlink:href="#DejaVuSans-31" x="190.869141"/>
       <use xlink:href="#DejaVuSans-2d" x="254.492188"/>
       <use xlink:href="#DejaVuSans-30" x="290.576172"/>
       <use xlink:href="#DejaVuSans-38" x="354.199219"/>
      </g>
     </g>
    </g>
    <g id="xtick_10">
     <g id="line2d_19">
      <path d="M 279.596764 567.74175 
L 279.596764 24.14175 
" clip-path="url(#p57d1612f2c)" style="fill: none; stroke: #ffffff; stroke-width: 0.8; stroke-linecap: square"/>
     </g>
     <g id="line2d_20">
      <g>
       <use xlink:href="#m4ca19807e6" x="279.596764" y="567.74175" style="fill: #555555; stroke: #555555; stroke-width: 0.8"/>
      </g>
     </g>
     <g id="text_10">
      <!-- 2021-09 -->
      <g style="fill: #555555" transform="translate(266.775482 609.659567)rotate(-45)scale(0.1 -0.1)">
       <defs>
        <path id="DejaVuSans-39" d="M 703 97 
L 703 672 
Q 941 559 1184 500 
Q 1428 441 1663 441 
Q 2288 441 2617 861 
Q 2947 1281 2994 2138 
Q 2813 1869 2534 1725 
Q 2256 1581 1919 1581 
Q 1219 1581 811 2004 
Q 403 2428 403 3163 
Q 403 3881 828 4315 
Q 1253 4750 1959 4750 
Q 2769 4750 3195 4129 
Q 3622 3509 3622 2328 
Q 3622 1225 3098 567 
Q 2575 -91 1691 -91 
Q 1453 -91 1209 -44 
Q 966 3 703 97 
z
M 1959 2075 
Q 2384 2075 2632 2365 
Q 2881 2656 2881 3163 
Q 2881 3666 2632 3958 
Q 2384 4250 1959 4250 
Q 1534 4250 1286 3958 
Q 1038 3666 1038 3163 
Q 1038 2656 1286 2365 
Q 1534 2075 1959 2075 
z
" transform="scale(0.015625)"/>
       </defs>
       <use xlink:href="#DejaVuSans-32"/>
       <use xlink:href="#DejaVuSans-30" x="63.623047"/>
       <use xlink:href="#DejaVuSans-32" x="127.246094"/>
       <use xlink:href="#DejaVuSans-31" x="190.869141"/>
       <use xlink:href="#DejaVuSans-2d" x="254.492188"/>
       <use xlink:href="#DejaVuSans-30" x="290.576172"/>
       <use xlink:href="#DejaVuSans-39" x="354.199219"/>
      </g>
     </g>
    </g>
    <g id="xtick_11">
     <g id="line2d_21">
      <path d="M 303.780086 567.74175 
L 303.780086 24.14175 
" clip-path="url(#p57d1612f2c)" style="fill: none; stroke: #ffffff; stroke-width: 0.8; stroke-linecap: square"/>
     </g>
     <g id="line2d_22">
      <g>
       <use xlink:href="#m4ca19807e6" x="303.780086" y="567.74175" style="fill: #555555; stroke: #555555; stroke-width: 0.8"/>
      </g>
     </g>
     <g id="text_11">
      <!-- 2021-10 -->
      <g style="fill: #555555" transform="translate(290.958803 609.659567)rotate(-45)scale(0.1 -0.1)">
       <use xlink:href="#DejaVuSans-32"/>
       <use xlink:href="#DejaVuSans-30" x="63.623047"/>
       <use xlink:href="#DejaVuSans-32" x="127.246094"/>
       <use xlink:href="#DejaVuSans-31" x="190.869141"/>
       <use xlink:href="#DejaVuSans-2d" x="254.492188"/>
       <use xlink:href="#DejaVuSans-31" x="290.576172"/>
       <use xlink:href="#DejaVuSans-30" x="354.199219"/>
      </g>
     </g>
    </g>
    <g id="xtick_12">
     <g id="line2d_23">
      <path d="M 328.769518 567.74175 
L 328.769518 24.14175 
" clip-path="url(#p57d1612f2c)" style="fill: none; stroke: #ffffff; stroke-width: 0.8; stroke-linecap: square"/>
     </g>
     <g id="line2d_24">
      <g>
       <use xlink:href="#m4ca19807e6" x="328.769518" y="567.74175" style="fill: #555555; stroke: #555555; stroke-width: 0.8"/>
      </g>
     </g>
     <g id="text_12">
      <!-- 2021-11 -->
      <g style="fill: #555555" transform="translate(315.948236 609.659567)rotate(-45)scale(0.1 -0.1)">
       <use xlink:href="#DejaVuSans-32"/>
       <use xlink:href="#DejaVuSans-30" x="63.623047"/>
       <use xlink:href="#DejaVuSans-32" x="127.246094"/>
       <use xlink:href="#DejaVuSans-31" x="190.869141"/>
       <use xlink:href="#DejaVuSans-2d" x="254.492188"/>
       <use xlink:href="#DejaVuSans-31" x="290.576172"/>
       <use xlink:href="#DejaVuSans-31" x="354.199219"/>
      </g>
     </g>
    </g>
    <g id="xtick_13">
     <g id="line2d_25">
      <path d="M 352.952839 567.74175 
L 352.952839 24.14175 
" clip-path="url(#p57d1612f2c)" style="fill: none; stroke: #ffffff; stroke-width: 0.8; stroke-linecap: square"/>
     </g>
     <g id="line2d_26">
      <g>
       <use xlink:href="#m4ca19807e6" x="352.952839" y="567.74175" style="fill: #555555; stroke: #555555; stroke-width: 0.8"/>
      </g>
     </g>
     <g id="text_13">
      <!-- 2021-12 -->
      <g style="fill: #555555" transform="translate(340.131557 609.659567)rotate(-45)scale(0.1 -0.1)">
       <use xlink:href="#DejaVuSans-32"/>
       <use xlink:href="#DejaVuSans-30" x="63.623047"/>
       <use xlink:href="#DejaVuSans-32" x="127.246094"/>
       <use xlink:href="#DejaVuSans-31" x="190.869141"/>
       <use xlink:href="#DejaVuSans-2d" x="254.492188"/>
       <use xlink:href="#DejaVuSans-31" x="290.576172"/>
       <use xlink:href="#DejaVuSans-32" x="354.199219"/>
      </g>
     </g>
    </g>
    <g id="xtick_14">
     <g id="line2d_27">
      <path d="M 377.942271 567.74175 
L 377.942271 24.14175 
" clip-path="url(#p57d1612f2c)" style="fill: none; stroke: #ffffff; stroke-width: 0.8; stroke-linecap: square"/>
     </g>
     <g id="line2d_28">
      <g>
       <use xlink:href="#m4ca19807e6" x="377.942271" y="567.74175" style="fill: #555555; stroke: #555555; stroke-width: 0.8"/>
      </g>
     </g>
     <g id="text_14">
      <!-- 2022-01 -->
      <g style="fill: #555555" transform="translate(365.120989 609.659567)rotate(-45)scale(0.1 -0.1)">
       <use xlink:href="#DejaVuSans-32"/>
       <use xlink:href="#DejaVuSans-30" x="63.623047"/>
       <use xlink:href="#DejaVuSans-32" x="127.246094"/>
       <use xlink:href="#DejaVuSans-32" x="190.869141"/>
       <use xlink:href="#DejaVuSans-2d" x="254.492188"/>
       <use xlink:href="#DejaVuSans-30" x="290.576172"/>
       <use xlink:href="#DejaVuSans-31" x="354.199219"/>
      </g>
     </g>
    </g>
    <g id="xtick_15">
     <g id="line2d_29">
      <path d="M 402.931704 567.74175 
L 402.931704 24.14175 
" clip-path="url(#p57d1612f2c)" style="fill: none; stroke: #ffffff; stroke-width: 0.8; stroke-linecap: square"/>
     </g>
     <g id="line2d_30">
      <g>
       <use xlink:href="#m4ca19807e6" x="402.931704" y="567.74175" style="fill: #555555; stroke: #555555; stroke-width: 0.8"/>
      </g>
     </g>
     <g id="text_15">
      <!-- 2022-02 -->
      <g style="fill: #555555" transform="translate(390.110421 609.659567)rotate(-45)scale(0.1 -0.1)">
       <use xlink:href="#DejaVuSans-32"/>
       <use xlink:href="#DejaVuSans-30" x="63.623047"/>
       <use xlink:href="#DejaVuSans-32" x="127.246094"/>
       <use xlink:href="#DejaVuSans-32" x="190.869141"/>
       <use xlink:href="#DejaVuSans-2d" x="254.492188"/>
       <use xlink:href="#DejaVuSans-30" x="290.576172"/>
       <use xlink:href="#DejaVuSans-32" x="354.199219"/>
      </g>
     </g>
    </g>
    <g id="xtick_16">
     <g id="line2d_31">
      <path d="M 425.502804 567.74175 
L 425.502804 24.14175 
" clip-path="url(#p57d1612f2c)" style="fill: none; stroke: #ffffff; stroke-width: 0.8; stroke-linecap: square"/>
     </g>
     <g id="line2d_32">
      <g>
       <use xlink:href="#m4ca19807e6" x="425.502804" y="567.74175" style="fill: #555555; stroke: #555555; stroke-width: 0.8"/>
      </g>
     </g>
     <g id="text_16">
      <!-- 2022-03 -->
      <g style="fill: #555555" transform="translate(412.681521 609.659567)rotate(-45)scale(0.1 -0.1)">
       <use xlink:href="#DejaVuSans-32"/>
       <use xlink:href="#DejaVuSans-30" x="63.623047"/>
       <use xlink:href="#DejaVuSans-32" x="127.246094"/>
       <use xlink:href="#DejaVuSans-32" x="190.869141"/>
       <use xlink:href="#DejaVuSans-2d" x="254.492188"/>
       <use xlink:href="#DejaVuSans-30" x="290.576172"/>
       <use xlink:href="#DejaVuSans-33" x="354.199219"/>
      </g>
     </g>
    </g>
    <g id="xtick_17">
     <g id="line2d_33">
      <path d="M 450.492236 567.74175 
L 450.492236 24.14175 
" clip-path="url(#p57d1612f2c)" style="fill: none; stroke: #ffffff; stroke-width: 0.8; stroke-linecap: square"/>
     </g>
     <g id="line2d_34">
      <g>
       <use xlink:href="#m4ca19807e6" x="450.492236" y="567.74175" style="fill: #555555; stroke: #555555; stroke-width: 0.8"/>
      </g>
     </g>
     <g id="text_17">
      <!-- 2022-04 -->
      <g style="fill: #555555" transform="translate(437.670953 609.659567)rotate(-45)scale(0.1 -0.1)">
       <use xlink:href="#DejaVuSans-32"/>
       <use xlink:href="#DejaVuSans-30" x="63.623047"/>
       <use xlink:href="#DejaVuSans-32" x="127.246094"/>
       <use xlink:href="#DejaVuSans-32" x="190.869141"/>
       <use xlink:href="#DejaVuSans-2d" x="254.492188"/>
       <use xlink:href="#DejaVuSans-30" x="290.576172"/>
       <use xlink:href="#DejaVuSans-34" x="354.199219"/>
      </g>
     </g>
    </g>
    <g id="xtick_18">
     <g id="line2d_35">
      <path d="M 474.675557 567.74175 
L 474.675557 24.14175 
" clip-path="url(#p57d1612f2c)" style="fill: none; stroke: #ffffff; stroke-width: 0.8; stroke-linecap: square"/>
     </g>
     <g id="line2d_36">
      <g>
       <use xlink:href="#m4ca19807e6" x="474.675557" y="567.74175" style="fill: #555555; stroke: #555555; stroke-width: 0.8"/>
      </g>
     </g>
     <g id="text_18">
      <!-- 2022-05 -->
      <g style="fill: #555555" transform="translate(461.854275 609.659567)rotate(-45)scale(0.1 -0.1)">
       <use xlink:href="#DejaVuSans-32"/>
       <use xlink:href="#DejaVuSans-30" x="63.623047"/>
       <use xlink:href="#DejaVuSans-32" x="127.246094"/>
       <use xlink:href="#DejaVuSans-32" x="190.869141"/>
       <use xlink:href="#DejaVuSans-2d" x="254.492188"/>
       <use xlink:href="#DejaVuSans-30" x="290.576172"/>
       <use xlink:href="#DejaVuSans-35" x="354.199219"/>
      </g>
     </g>
    </g>
    <g id="xtick_19">
     <g id="line2d_37">
      <path d="M 499.664989 567.74175 
L 499.664989 24.14175 
" clip-path="url(#p57d1612f2c)" style="fill: none; stroke: #ffffff; stroke-width: 0.8; stroke-linecap: square"/>
     </g>
     <g id="line2d_38">
      <g>
       <use xlink:href="#m4ca19807e6" x="499.664989" y="567.74175" style="fill: #555555; stroke: #555555; stroke-width: 0.8"/>
      </g>
     </g>
     <g id="text_19">
      <!-- 2022-06 -->
      <g style="fill: #555555" transform="translate(486.843707 609.659567)rotate(-45)scale(0.1 -0.1)">
       <use xlink:href="#DejaVuSans-32"/>
       <use xlink:href="#DejaVuSans-30" x="63.623047"/>
       <use xlink:href="#DejaVuSans-32" x="127.246094"/>
       <use xlink:href="#DejaVuSans-32" x="190.869141"/>
       <use xlink:href="#DejaVuSans-2d" x="254.492188"/>
       <use xlink:href="#DejaVuSans-30" x="290.576172"/>
       <use xlink:href="#DejaVuSans-36" x="354.199219"/>
      </g>
     </g>
    </g>
    <g id="xtick_20">
     <g id="line2d_39">
      <path d="M 523.848311 567.74175 
L 523.848311 24.14175 
" clip-path="url(#p57d1612f2c)" style="fill: none; stroke: #ffffff; stroke-width: 0.8; stroke-linecap: square"/>
     </g>
     <g id="line2d_40">
      <g>
       <use xlink:href="#m4ca19807e6" x="523.848311" y="567.74175" style="fill: #555555; stroke: #555555; stroke-width: 0.8"/>
      </g>
     </g>
     <g id="text_20">
      <!-- 2022-07 -->
      <g style="fill: #555555" transform="translate(511.027028 609.659567)rotate(-45)scale(0.1 -0.1)">
       <use xlink:href="#DejaVuSans-32"/>
       <use xlink:href="#DejaVuSans-30" x="63.623047"/>
       <use xlink:href="#DejaVuSans-32" x="127.246094"/>
       <use xlink:href="#DejaVuSans-32" x="190.869141"/>
       <use xlink:href="#DejaVuSans-2d" x="254.492188"/>
       <use xlink:href="#DejaVuSans-30" x="290.576172"/>
       <use xlink:href="#DejaVuSans-37" x="354.199219"/>
      </g>
     </g>
    </g>
    <g id="xtick_21">
     <g id="line2d_41">
      <path d="M 548.837743 567.74175 
L 548.837743 24.14175 
" clip-path="url(#p57d1612f2c)" style="fill: none; stroke: #ffffff; stroke-width: 0.8; stroke-linecap: square"/>
     </g>
     <g id="line2d_42">
      <g>
       <use xlink:href="#m4ca19807e6" x="548.837743" y="567.74175" style="fill: #555555; stroke: #555555; stroke-width: 0.8"/>
      </g>
     </g>
     <g id="text_21">
      <!-- 2022-08 -->
      <g style="fill: #555555" transform="translate(536.016461 609.659567)rotate(-45)scale(0.1 -0.1)">
       <use xlink:href="#DejaVuSans-32"/>
       <use xlink:href="#DejaVuSans-30" x="63.623047"/>
       <use xlink:href="#DejaVuSans-32" x="127.246094"/>
       <use xlink:href="#DejaVuSans-32" x="190.869141"/>
       <use xlink:href="#DejaVuSans-2d" x="254.492188"/>
       <use xlink:href="#DejaVuSans-30" x="290.576172"/>
       <use xlink:href="#DejaVuSans-38" x="354.199219"/>
      </g>
     </g>
    </g>
    <g id="xtick_22">
     <g id="line2d_43">
      <path d="M 573.827175 567.74175 
L 573.827175 24.14175 
" clip-path="url(#p57d1612f2c)" style="fill: none; stroke: #ffffff; stroke-width: 0.8; stroke-linecap: square"/>
     </g>
     <g id="line2d_44">
      <g>
       <use xlink:href="#m4ca19807e6" x="573.827175" y="567.74175" style="fill: #555555; stroke: #555555; stroke-width: 0.8"/>
      </g>
     </g>
     <g id="text_22">
      <!-- 2022-09 -->
      <g style="fill: #555555" transform="translate(561.005893 609.659567)rotate(-45)scale(0.1 -0.1)">
       <use xlink:href="#DejaVuSans-32"/>
       <use xlink:href="#DejaVuSans-30" x="63.623047"/>
       <use xlink:href="#DejaVuSans-32" x="127.246094"/>
       <use xlink:href="#DejaVuSans-32" x="190.869141"/>
       <use xlink:href="#DejaVuSans-2d" x="254.492188"/>
       <use xlink:href="#DejaVuSans-30" x="290.576172"/>
       <use xlink:href="#DejaVuSans-39" x="354.199219"/>
      </g>
     </g>
    </g>
    <g id="xtick_23">
     <g id="line2d_45">
      <path d="M 598.010496 567.74175 
L 598.010496 24.14175 
" clip-path="url(#p57d1612f2c)" style="fill: none; stroke: #ffffff; stroke-width: 0.8; stroke-linecap: square"/>
     </g>
     <g id="line2d_46">
      <g>
       <use xlink:href="#m4ca19807e6" x="598.010496" y="567.74175" style="fill: #555555; stroke: #555555; stroke-width: 0.8"/>
      </g>
     </g>
     <g id="text_23">
      <!-- 2022-10 -->
      <g style="fill: #555555" transform="translate(585.189214 609.659567)rotate(-45)scale(0.1 -0.1)">
       <use xlink:href="#DejaVuSans-32"/>
       <use xlink:href="#DejaVuSans-30" x="63.623047"/>
       <use xlink:href="#DejaVuSans-32" x="127.246094"/>
       <use xlink:href="#DejaVuSans-32" x="190.869141"/>
       <use xlink:href="#DejaVuSans-2d" x="254.492188"/>
       <use xlink:href="#DejaVuSans-31" x="290.576172"/>
       <use xlink:href="#DejaVuSans-30" x="354.199219"/>
      </g>
     </g>
    </g>
    <g id="xtick_24">
     <g id="line2d_47">
      <path d="M 622.999929 567.74175 
L 622.999929 24.14175 
" clip-path="url(#p57d1612f2c)" style="fill: none; stroke: #ffffff; stroke-width: 0.8; stroke-linecap: square"/>
     </g>
     <g id="line2d_48">
      <g>
       <use xlink:href="#m4ca19807e6" x="622.999929" y="567.74175" style="fill: #555555; stroke: #555555; stroke-width: 0.8"/>
      </g>
     </g>
     <g id="text_24">
      <!-- 2022-11 -->
      <g style="fill: #555555" transform="translate(610.178646 609.659567)rotate(-45)scale(0.1 -0.1)">
       <use xlink:href="#DejaVuSans-32"/>
       <use xlink:href="#DejaVuSans-30" x="63.623047"/>
       <use xlink:href="#DejaVuSans-32" x="127.246094"/>
       <use xlink:href="#DejaVuSans-32" x="190.869141"/>
       <use xlink:href="#DejaVuSans-2d" x="254.492188"/>
       <use xlink:href="#DejaVuSans-31" x="290.576172"/>
       <use xlink:href="#DejaVuSans-31" x="354.199219"/>
      </g>
     </g>
    </g>
    <g id="xtick_25">
     <g id="line2d_49">
      <path d="M 647.18325 567.74175 
L 647.18325 24.14175 
" clip-path="url(#p57d1612f2c)" style="fill: none; stroke: #ffffff; stroke-width: 0.8; stroke-linecap: square"/>
     </g>
     <g id="line2d_50">
      <g>
       <use xlink:href="#m4ca19807e6" x="647.18325" y="567.74175" style="fill: #555555; stroke: #555555; stroke-width: 0.8"/>
      </g>
     </g>
     <g id="text_25">
      <!-- 2022-12 -->
      <g style="fill: #555555" transform="translate(634.361968 609.659567)rotate(-45)scale(0.1 -0.1)">
       <use xlink:href="#DejaVuSans-32"/>
       <use xlink:href="#DejaVuSans-30" x="63.623047"/>
       <use xlink:href="#DejaVuSans-32" x="127.246094"/>
       <use xlink:href="#DejaVuSans-32" x="190.869141"/>
       <use xlink:href="#DejaVuSans-2d" x="254.492188"/>
       <use xlink:href="#DejaVuSans-31" x="290.576172"/>
       <use xlink:href="#DejaVuSans-32" x="354.199219"/>
      </g>
     </g>
    </g>
    <g id="xtick_26">
     <g id="line2d_51">
      <path d="M 672.172682 567.74175 
L 672.172682 24.14175 
" clip-path="url(#p57d1612f2c)" style="fill: none; stroke: #ffffff; stroke-width: 0.8; stroke-linecap: square"/>
     </g>
     <g id="line2d_52">
      <g>
       <use xlink:href="#m4ca19807e6" x="672.172682" y="567.74175" style="fill: #555555; stroke: #555555; stroke-width: 0.8"/>
      </g>
     </g>
     <g id="text_26">
      <!-- 2023-01 -->
      <g style="fill: #555555" transform="translate(659.3514 609.659567)rotate(-45)scale(0.1 -0.1)">
       <use xlink:href="#DejaVuSans-32"/>
       <use xlink:href="#DejaVuSans-30" x="63.623047"/>
       <use xlink:href="#DejaVuSans-32" x="127.246094"/>
       <use xlink:href="#DejaVuSans-33" x="190.869141"/>
       <use xlink:href="#DejaVuSans-2d" x="254.492188"/>
       <use xlink:href="#DejaVuSans-30" x="290.576172"/>
       <use xlink:href="#DejaVuSans-31" x="354.199219"/>
      </g>
     </g>
    </g>
    <g id="xtick_27">
     <g id="line2d_53">
      <path d="M 697.162114 567.74175 
L 697.162114 24.14175 
" clip-path="url(#p57d1612f2c)" style="fill: none; stroke: #ffffff; stroke-width: 0.8; stroke-linecap: square"/>
     </g>
     <g id="line2d_54">
      <g>
       <use xlink:href="#m4ca19807e6" x="697.162114" y="567.74175" style="fill: #555555; stroke: #555555; stroke-width: 0.8"/>
      </g>
     </g>
     <g id="text_27">
      <!-- 2023-02 -->
      <g style="fill: #555555" transform="translate(684.340832 609.659567)rotate(-45)scale(0.1 -0.1)">
       <use xlink:href="#DejaVuSans-32"/>
       <use xlink:href="#DejaVuSans-30" x="63.623047"/>
       <use xlink:href="#DejaVuSans-32" x="127.246094"/>
       <use xlink:href="#DejaVuSans-33" x="190.869141"/>
       <use xlink:href="#DejaVuSans-2d" x="254.492188"/>
       <use xlink:href="#DejaVuSans-30" x="290.576172"/>
       <use xlink:href="#DejaVuSans-32" x="354.199219"/>
      </g>
     </g>
    </g>
    <g id="xtick_28">
     <g id="line2d_55">
      <path d="M 719.733214 567.74175 
L 719.733214 24.14175 
" clip-path="url(#p57d1612f2c)" style="fill: none; stroke: #ffffff; stroke-width: 0.8; stroke-linecap: square"/>
     </g>
     <g id="line2d_56">
      <g>
       <use xlink:href="#m4ca19807e6" x="719.733214" y="567.74175" style="fill: #555555; stroke: #555555; stroke-width: 0.8"/>
      </g>
     </g>
     <g id="text_28">
      <!-- 2023-03 -->
      <g style="fill: #555555" transform="translate(706.911932 609.659567)rotate(-45)scale(0.1 -0.1)">
       <use xlink:href="#DejaVuSans-32"/>
       <use xlink:href="#DejaVuSans-30" x="63.623047"/>
       <use xlink:href="#DejaVuSans-32" x="127.246094"/>
       <use xlink:href="#DejaVuSans-33" x="190.869141"/>
       <use xlink:href="#DejaVuSans-2d" x="254.492188"/>
       <use xlink:href="#DejaVuSans-30" x="290.576172"/>
       <use xlink:href="#DejaVuSans-33" x="354.199219"/>
      </g>
     </g>
    </g>
    <g id="xtick_29">
     <g id="line2d_57">
      <path d="M 744.722646 567.74175 
L 744.722646 24.14175 
" clip-path="url(#p57d1612f2c)" style="fill: none; stroke: #ffffff; stroke-width: 0.8; stroke-linecap: square"/>
     </g>
     <g id="line2d_58">
      <g>
       <use xlink:href="#m4ca19807e6" x="744.722646" y="567.74175" style="fill: #555555; stroke: #555555; stroke-width: 0.8"/>
      </g>
     </g>
     <g id="text_29">
      <!-- 2023-04 -->
      <g style="fill: #555555" transform="translate(731.901364 609.659567)rotate(-45)scale(0.1 -0.1)">
       <use xlink:href="#DejaVuSans-32"/>
       <use xlink:href="#DejaVuSans-30" x="63.623047"/>
       <use xlink:href="#DejaVuSans-32" x="127.246094"/>
       <use xlink:href="#DejaVuSans-33" x="190.869141"/>
       <use xlink:href="#DejaVuSans-2d" x="254.492188"/>
       <use xlink:href="#DejaVuSans-30" x="290.576172"/>
       <use xlink:href="#DejaVuSans-34" x="354.199219"/>
      </g>
     </g>
    </g>
    <g id="xtick_30">
     <g id="line2d_59">
      <path d="M 768.905968 567.74175 
L 768.905968 24.14175 
" clip-path="url(#p57d1612f2c)" style="fill: none; stroke: #ffffff; stroke-width: 0.8; stroke-linecap: square"/>
     </g>
     <g id="line2d_60">
      <g>
       <use xlink:href="#m4ca19807e6" x="768.905968" y="567.74175" style="fill: #555555; stroke: #555555; stroke-width: 0.8"/>
      </g>
     </g>
     <g id="text_30">
      <!-- 2023-05 -->
      <g style="fill: #555555" transform="translate(756.084686 609.659567)rotate(-45)scale(0.1 -0.1)">
       <use xlink:href="#DejaVuSans-32"/>
       <use xlink:href="#DejaVuSans-30" x="63.623047"/>
       <use xlink:href="#DejaVuSans-32" x="127.246094"/>
       <use xlink:href="#DejaVuSans-33" x="190.869141"/>
       <use xlink:href="#DejaVuSans-2d" x="254.492188"/>
       <use xlink:href="#DejaVuSans-30" x="290.576172"/>
       <use xlink:href="#DejaVuSans-35" x="354.199219"/>
      </g>
     </g>
    </g>
    <g id="xtick_31">
     <g id="line2d_61">
      <path d="M 793.8954 567.74175 
L 793.8954 24.14175 
" clip-path="url(#p57d1612f2c)" style="fill: none; stroke: #ffffff; stroke-width: 0.8; stroke-linecap: square"/>
     </g>
     <g id="line2d_62">
      <g>
       <use xlink:href="#m4ca19807e6" x="793.8954" y="567.74175" style="fill: #555555; stroke: #555555; stroke-width: 0.8"/>
      </g>
     </g>
     <g id="text_31">
      <!-- 2023-06 -->
      <g style="fill: #555555" transform="translate(781.074118 609.659567)rotate(-45)scale(0.1 -0.1)">
       <use xlink:href="#DejaVuSans-32"/>
       <use xlink:href="#DejaVuSans-30" x="63.623047"/>
       <use xlink:href="#DejaVuSans-32" x="127.246094"/>
       <use xlink:href="#DejaVuSans-33" x="190.869141"/>
       <use xlink:href="#DejaVuSans-2d" x="254.492188"/>
       <use xlink:href="#DejaVuSans-30" x="290.576172"/>
       <use xlink:href="#DejaVuSans-36" x="354.199219"/>
      </g>
     </g>
    </g>
    <g id="xtick_32">
     <g id="line2d_63">
      <path d="M 818.078721 567.74175 
L 818.078721 24.14175 
" clip-path="url(#p57d1612f2c)" style="fill: none; stroke: #ffffff; stroke-width: 0.8; stroke-linecap: square"/>
     </g>
     <g id="line2d_64">
      <g>
       <use xlink:href="#m4ca19807e6" x="818.078721" y="567.74175" style="fill: #555555; stroke: #555555; stroke-width: 0.8"/>
      </g>
     </g>
     <g id="text_32">
      <!-- 2023-07 -->
      <g style="fill: #555555" transform="translate(805.257439 609.659567)rotate(-45)scale(0.1 -0.1)">
       <use xlink:href="#DejaVuSans-32"/>
       <use xlink:href="#DejaVuSans-30" x="63.623047"/>
       <use xlink:href="#DejaVuSans-32" x="127.246094"/>
       <use xlink:href="#DejaVuSans-33" x="190.869141"/>
       <use xlink:href="#DejaVuSans-2d" x="254.492188"/>
       <use xlink:href="#DejaVuSans-30" x="290.576172"/>
       <use xlink:href="#DejaVuSans-37" x="354.199219"/>
      </g>
     </g>
    </g>
    <g id="xtick_33">
     <g id="line2d_65">
      <path d="M 843.068154 567.74175 
L 843.068154 24.14175 
" clip-path="url(#p57d1612f2c)" style="fill: none; stroke: #ffffff; stroke-width: 0.8; stroke-linecap: square"/>
     </g>
     <g id="line2d_66">
      <g>
       <use xlink:href="#m4ca19807e6" x="843.068154" y="567.74175" style="fill: #555555; stroke: #555555; stroke-width: 0.8"/>
      </g>
     </g>
     <g id="text_33">
      <!-- 2023-08 -->
      <g style="fill: #555555" transform="translate(830.246871 609.659567)rotate(-45)scale(0.1 -0.1)">
       <use xlink:href="#DejaVuSans-32"/>
       <use xlink:href="#DejaVuSans-30" x="63.623047"/>
       <use xlink:href="#DejaVuSans-32" x="127.246094"/>
       <use xlink:href="#DejaVuSans-33" x="190.869141"/>
       <use xlink:href="#DejaVuSans-2d" x="254.492188"/>
       <use xlink:href="#DejaVuSans-30" x="290.576172"/>
       <use xlink:href="#DejaVuSans-38" x="354.199219"/>
      </g>
     </g>
    </g>
    <g id="xtick_34">
     <g id="line2d_67">
      <path d="M 868.057586 567.74175 
L 868.057586 24.14175 
" clip-path="url(#p57d1612f2c)" style="fill: none; stroke: #ffffff; stroke-width: 0.8; stroke-linecap: square"/>
     </g>
     <g id="line2d_68">
      <g>
       <use xlink:href="#m4ca19807e6" x="868.057586" y="567.74175" style="fill: #555555; stroke: #555555; stroke-width: 0.8"/>
      </g>
     </g>
     <g id="text_34">
      <!-- 2023-09 -->
      <g style="fill: #555555" transform="translate(855.236303 609.659567)rotate(-45)scale(0.1 -0.1)">
       <use xlink:href="#DejaVuSans-32"/>
       <use xlink:href="#DejaVuSans-30" x="63.623047"/>
       <use xlink:href="#DejaVuSans-32" x="127.246094"/>
       <use xlink:href="#DejaVuSans-33" x="190.869141"/>
       <use xlink:href="#DejaVuSans-2d" x="254.492188"/>
       <use xlink:href="#DejaVuSans-30" x="290.576172"/>
       <use xlink:href="#DejaVuSans-39" x="354.199219"/>
      </g>
     </g>
    </g>
    <g id="xtick_35">
     <g id="line2d_69">
      <path d="M 892.240907 567.74175 
L 892.240907 24.14175 
" clip-path="url(#p57d1612f2c)" style="fill: none; stroke: #ffffff; stroke-width: 0.8; stroke-linecap: square"/>
     </g>
     <g id="line2d_70">
      <g>
       <use xlink:href="#m4ca19807e6" x="892.240907" y="567.74175" style="fill: #555555; stroke: #555555; stroke-width: 0.8"/>
      </g>
     </g>
     <g id="text_35">
      <!-- 2023-10 -->
      <g style="fill: #555555" transform="translate(879.419625 609.659567)rotate(-45)scale(0.1 -0.1)">
       <use xlink:href="#DejaVuSans-32"/>
       <use xlink:href="#DejaVuSans-30" x="63.623047"/>
       <use xlink:href="#DejaVuSans-32" x="127.246094"/>
       <use xlink:href="#DejaVuSans-33" x="190.869141"/>
       <use xlink:href="#DejaVuSans-2d" x="254.492188"/>
       <use xlink:href="#DejaVuSans-31" x="290.576172"/>
       <use xlink:href="#DejaVuSans-30" x="354.199219"/>
      </g>
     </g>
    </g>
    <g id="xtick_36">
     <g id="line2d_71">
      <path d="M 917.230339 567.74175 
L 917.230339 24.14175 
" clip-path="url(#p57d1612f2c)" style="fill: none; stroke: #ffffff; stroke-width: 0.8; stroke-linecap: square"/>
     </g>
     <g id="line2d_72">
      <g>
       <use xlink:href="#m4ca19807e6" x="917.230339" y="567.74175" style="fill: #555555; stroke: #555555; stroke-width: 0.8"/>
      </g>
     </g>
     <g id="text_36">
      <!-- 2023-11 -->
      <g style="fill: #555555" transform="translate(904.409057 609.659567)rotate(-45)scale(0.1 -0.1)">
       <use xlink:href="#DejaVuSans-32"/>
       <use xlink:href="#DejaVuSans-30" x="63.623047"/>
       <use xlink:href="#DejaVuSans-32" x="127.246094"/>
       <use xlink:href="#DejaVuSans-33" x="190.869141"/>
       <use xlink:href="#DejaVuSans-2d" x="254.492188"/>
       <use xlink:href="#DejaVuSans-31" x="290.576172"/>
       <use xlink:href="#DejaVuSans-31" x="354.199219"/>
      </g>
     </g>
    </g>
    <g id="xtick_37">
     <g id="line2d_73">
      <path d="M 941.413661 567.74175 
L 941.413661 24.14175 
" clip-path="url(#p57d1612f2c)" style="fill: none; stroke: #ffffff; stroke-width: 0.8; stroke-linecap: square"/>
     </g>
     <g id="line2d_74">
      <g>
       <use xlink:href="#m4ca19807e6" x="941.413661" y="567.74175" style="fill: #555555; stroke: #555555; stroke-width: 0.8"/>
      </g>
     </g>
     <g id="text_37">
      <!-- 2023-12 -->
      <g style="fill: #555555" transform="translate(928.592378 609.659567)rotate(-45)scale(0.1 -0.1)">
       <use xlink:href="#DejaVuSans-32"/>
       <use xlink:href="#DejaVuSans-30" x="63.623047"/>
       <use xlink:href="#DejaVuSans-32" x="127.246094"/>
       <use xlink:href="#DejaVuSans-33" x="190.869141"/>
       <use xlink:href="#DejaVuSans-2d" x="254.492188"/>
       <use xlink:href="#DejaVuSans-31" x="290.576172"/>
       <use xlink:href="#DejaVuSans-32" x="354.199219"/>
      </g>
     </g>
    </g>
    <g id="text_38">
     <!-- Date -->
     <g style="fill: #555555" transform="translate(491.772938 624.248253)scale(0.12 -0.12)">
      <defs>
       <path id="DejaVuSans-44" d="M 1259 4147 
L 1259 519 
L 2022 519 
Q 2988 519 3436 956 
Q 3884 1394 3884 2338 
Q 3884 3275 3436 3711 
Q 2988 4147 2022 4147 
L 1259 4147 
z
M 628 4666 
L 1925 4666 
Q 3281 4666 3915 4102 
Q 4550 3538 4550 2338 
Q 4550 1131 3912 565 
Q 3275 0 1925 0 
L 628 0 
L 628 4666 
z
" transform="scale(0.015625)"/>
       <path id="DejaVuSans-61" d="M 2194 1759 
Q 1497 1759 1228 1600 
Q 959 1441 959 1056 
Q 959 750 1161 570 
Q 1363 391 1709 391 
Q 2188 391 2477 730 
Q 2766 1069 2766 1631 
L 2766 1759 
L 2194 1759 
z
M 3341 1997 
L 3341 0 
L 2766 0 
L 2766 531 
Q 2569 213 2275 61 
Q 1981 -91 1556 -91 
Q 1019 -91 701 211 
Q 384 513 384 1019 
Q 384 1609 779 1909 
Q 1175 2209 1959 2209 
L 2766 2209 
L 2766 2266 
Q 2766 2663 2505 2880 
Q 2244 3097 1772 3097 
Q 1472 3097 1187 3025 
Q 903 2953 641 2809 
L 641 3341 
Q 956 3463 1253 3523 
Q 1550 3584 1831 3584 
Q 2591 3584 2966 3190 
Q 3341 2797 3341 1997 
z
" transform="scale(0.015625)"/>
       <path id="DejaVuSans-74" d="M 1172 4494 
L 1172 3500 
L 2356 3500 
L 2356 3053 
L 1172 3053 
L 1172 1153 
Q 1172 725 1289 603 
Q 1406 481 1766 481 
L 2356 481 
L 2356 0 
L 1766 0 
Q 1100 0 847 248 
Q 594 497 594 1153 
L 594 3053 
L 172 3053 
L 172 3500 
L 594 3500 
L 594 4494 
L 1172 4494 
z
" transform="scale(0.015625)"/>
       <path id="DejaVuSans-65" d="M 3597 1894 
L 3597 1613 
L 953 1613 
Q 991 1019 1311 708 
Q 1631 397 2203 397 
Q 2534 397 2845 478 
Q 3156 559 3463 722 
L 3463 178 
Q 3153 47 2828 -22 
Q 2503 -91 2169 -91 
Q 1331 -91 842 396 
Q 353 884 353 1716 
Q 353 2575 817 3079 
Q 1281 3584 2069 3584 
Q 2775 3584 3186 3129 
Q 3597 2675 3597 1894 
z
M 3022 2063 
Q 3016 2534 2758 2815 
Q 2500 3097 2075 3097 
Q 1594 3097 1305 2825 
Q 1016 2553 972 2059 
L 3022 2063 
z
" transform="scale(0.015625)"/>
      </defs>
      <use xlink:href="#DejaVuSans-44"/>
      <use xlink:href="#DejaVuSans-61" x="77.001953"/>
      <use xlink:href="#DejaVuSans-74" x="138.28125"/>
      <use xlink:href="#DejaVuSans-65" x="177.490234"/>
     </g>
    </g>
   </g>
   <g id="matplotlib.axis_2">
    <g id="ytick_1">
     <g id="line2d_75">
      <path d="M 54.691875 567.74175 
L 957.535875 567.74175 
" clip-path="url(#p57d1612f2c)" style="fill: none; stroke: #ffffff; stroke-width: 0.8; stroke-linecap: square"/>
     </g>
     <g id="line2d_76">
      <defs>
       <path id="m5e96e31ce6" d="M 0 0 
L -3.5 0 
" style="stroke: #555555; stroke-width: 0.8"/>
      </defs>
      <g>
       <use xlink:href="#m5e96e31ce6" x="54.691875" y="567.74175" style="fill: #555555; stroke: #555555; stroke-width: 0.8"/>
      </g>
     </g>
     <g id="text_39">
      <!-- 0k -->
      <g style="fill: #555555" transform="translate(35.53875 571.540969)scale(0.1 -0.1)">
       <defs>
        <path id="DejaVuSans-6b" d="M 581 4863 
L 1159 4863 
L 1159 1991 
L 2875 3500 
L 3609 3500 
L 1753 1863 
L 3688 0 
L 2938 0 
L 1159 1709 
L 1159 0 
L 581 0 
L 581 4863 
z
" transform="scale(0.015625)"/>
       </defs>
       <use xlink:href="#DejaVuSans-30"/>
       <use xlink:href="#DejaVuSans-6b" x="63.623047"/>
      </g>
     </g>
    </g>
    <g id="ytick_2">
     <g id="line2d_77">
      <path d="M 54.691875 463.946359 
L 957.535875 463.946359 
" clip-path="url(#p57d1612f2c)" style="fill: none; stroke: #ffffff; stroke-width: 0.8; stroke-linecap: square"/>
     </g>
     <g id="line2d_78">
      <g>
       <use xlink:href="#m5e96e31ce6" x="54.691875" y="463.946359" style="fill: #555555; stroke: #555555; stroke-width: 0.8"/>
      </g>
     </g>
     <g id="text_40">
      <!-- 100k -->
      <g style="fill: #555555" transform="translate(22.81375 467.745577)scale(0.1 -0.1)">
       <use xlink:href="#DejaVuSans-31"/>
       <use xlink:href="#DejaVuSans-30" x="63.623047"/>
       <use xlink:href="#DejaVuSans-30" x="127.246094"/>
       <use xlink:href="#DejaVuSans-6b" x="190.869141"/>
      </g>
     </g>
    </g>
    <g id="ytick_3">
     <g id="line2d_79">
      <path d="M 54.691875 360.150967 
L 957.535875 360.150967 
" clip-path="url(#p57d1612f2c)" style="fill: none; stroke: #ffffff; stroke-width: 0.8; stroke-linecap: square"/>
     </g>
     <g id="line2d_80">
      <g>
       <use xlink:href="#m5e96e31ce6" x="54.691875" y="360.150967" style="fill: #555555; stroke: #555555; stroke-width: 0.8"/>
      </g>
     </g>
     <g id="text_41">
      <!-- 200k -->
      <g style="fill: #555555" transform="translate(22.81375 363.950186)scale(0.1 -0.1)">
       <use xlink:href="#DejaVuSans-32"/>
       <use xlink:href="#DejaVuSans-30" x="63.623047"/>
       <use xlink:href="#DejaVuSans-30" x="127.246094"/>
       <use xlink:href="#DejaVuSans-6b" x="190.869141"/>
      </g>
     </g>
    </g>
    <g id="ytick_4">
     <g id="line2d_81">
      <path d="M 54.691875 256.355576 
L 957.535875 256.355576 
" clip-path="url(#p57d1612f2c)" style="fill: none; stroke: #ffffff; stroke-width: 0.8; stroke-linecap: square"/>
     </g>
     <g id="line2d_82">
      <g>
       <use xlink:href="#m5e96e31ce6" x="54.691875" y="256.355576" style="fill: #555555; stroke: #555555; stroke-width: 0.8"/>
      </g>
     </g>
     <g id="text_42">
      <!-- 300k -->
      <g style="fill: #555555" transform="translate(22.81375 260.154795)scale(0.1 -0.1)">
       <use xlink:href="#DejaVuSans-33"/>
       <use xlink:href="#DejaVuSans-30" x="63.623047"/>
       <use xlink:href="#DejaVuSans-30" x="127.246094"/>
       <use xlink:href="#DejaVuSans-6b" x="190.869141"/>
      </g>
     </g>
    </g>
    <g id="ytick_5">
     <g id="line2d_83">
      <path d="M 54.691875 152.560185 
L 957.535875 152.560185 
" clip-path="url(#p57d1612f2c)" style="fill: none; stroke: #ffffff; stroke-width: 0.8; stroke-linecap: square"/>
     </g>
     <g id="line2d_84">
      <g>
       <use xlink:href="#m5e96e31ce6" x="54.691875" y="152.560185" style="fill: #555555; stroke: #555555; stroke-width: 0.8"/>
      </g>
     </g>
     <g id="text_43">
      <!-- 400k -->
      <g style="fill: #555555" transform="translate(22.81375 156.359403)scale(0.1 -0.1)">
       <use xlink:href="#DejaVuSans-34"/>
       <use xlink:href="#DejaVuSans-30" x="63.623047"/>
       <use xlink:href="#DejaVuSans-30" x="127.246094"/>
       <use xlink:href="#DejaVuSans-6b" x="190.869141"/>
      </g>
     </g>
    </g>
    <g id="ytick_6">
     <g id="line2d_85">
      <path d="M 54.691875 48.764793 
L 957.535875 48.764793 
" clip-path="url(#p57d1612f2c)" style="fill: none; stroke: #ffffff; stroke-width: 0.8; stroke-linecap: square"/>
     </g>
     <g id="line2d_86">
      <g>
       <use xlink:href="#m5e96e31ce6" x="54.691875" y="48.764793" style="fill: #555555; stroke: #555555; stroke-width: 0.8"/>
      </g>
     </g>
     <g id="text_44">
      <!-- 500k -->
      <g style="fill: #555555" transform="translate(22.81375 52.564012)scale(0.1 -0.1)">
       <use xlink:href="#DejaVuSans-35"/>
       <use xlink:href="#DejaVuSans-30" x="63.623047"/>
       <use xlink:href="#DejaVuSans-30" x="127.246094"/>
       <use xlink:href="#DejaVuSans-6b" x="190.869141"/>
      </g>
     </g>
    </g>
    <g id="text_45">
     <!-- Instances -->
     <g style="fill: #555555" transform="translate(16.318125 324.588)rotate(-90)scale(0.12 -0.12)">
      <defs>
       <path id="DejaVuSans-49" d="M 628 4666 
L 1259 4666 
L 1259 0 
L 628 0 
L 628 4666 
z
" transform="scale(0.015625)"/>
       <path id="DejaVuSans-6e" d="M 3513 2113 
L 3513 0 
L 2938 0 
L 2938 2094 
Q 2938 2591 2744 2837 
Q 2550 3084 2163 3084 
Q 1697 3084 1428 2787 
Q 1159 2491 1159 1978 
L 1159 0 
L 581 0 
L 581 3500 
L 1159 3500 
L 1159 2956 
Q 1366 3272 1645 3428 
Q 1925 3584 2291 3584 
Q 2894 3584 3203 3211 
Q 3513 2838 3513 2113 
z
" transform="scale(0.015625)"/>
       <path id="DejaVuSans-73" d="M 2834 3397 
L 2834 2853 
Q 2591 2978 2328 3040 
Q 2066 3103 1784 3103 
Q 1356 3103 1142 2972 
Q 928 2841 928 2578 
Q 928 2378 1081 2264 
Q 1234 2150 1697 2047 
L 1894 2003 
Q 2506 1872 2764 1633 
Q 3022 1394 3022 966 
Q 3022 478 2636 193 
Q 2250 -91 1575 -91 
Q 1294 -91 989 -36 
Q 684 19 347 128 
L 347 722 
Q 666 556 975 473 
Q 1284 391 1588 391 
Q 1994 391 2212 530 
Q 2431 669 2431 922 
Q 2431 1156 2273 1281 
Q 2116 1406 1581 1522 
L 1381 1569 
Q 847 1681 609 1914 
Q 372 2147 372 2553 
Q 372 3047 722 3315 
Q 1072 3584 1716 3584 
Q 2034 3584 2315 3537 
Q 2597 3491 2834 3397 
z
" transform="scale(0.015625)"/>
       <path id="DejaVuSans-63" d="M 3122 3366 
L 3122 2828 
Q 2878 2963 2633 3030 
Q 2388 3097 2138 3097 
Q 1578 3097 1268 2742 
Q 959 2388 959 1747 
Q 959 1106 1268 751 
Q 1578 397 2138 397 
Q 2388 397 2633 464 
Q 2878 531 3122 666 
L 3122 134 
Q 2881 22 2623 -34 
Q 2366 -91 2075 -91 
Q 1284 -91 818 406 
Q 353 903 353 1747 
Q 353 2603 823 3093 
Q 1294 3584 2113 3584 
Q 2378 3584 2631 3529 
Q 2884 3475 3122 3366 
z
" transform="scale(0.015625)"/>
      </defs>
      <use xlink:href="#DejaVuSans-49"/>
      <use xlink:href="#DejaVuSans-6e" x="29.492188"/>
      <use xlink:href="#DejaVuSans-73" x="92.871094"/>
      <use xlink:href="#DejaVuSans-74" x="144.970703"/>
      <use xlink:href="#DejaVuSans-61" x="184.179688"/>
      <use xlink:href="#DejaVuSans-6e" x="245.458984"/>
      <use xlink:href="#DejaVuSans-63" x="308.837891"/>
      <use xlink:href="#DejaVuSans-65" x="363.818359"/>
      <use xlink:href="#DejaVuSans-73" x="425.341797"/>
     </g>
    </g>
   </g>
   <g id="line2d_87">
    <path d="M 54.691875 567.74175 
L 65.977425 567.74175 
L 77.262975 567.74175 
L 88.548525 567.740193 
L 99.834075 567.480186 
L 111.119625 567.217583 
L 122.405175 566.3976 
L 133.690725 566.293285 
L 144.976275 565.410506 
L 156.261825 562.939656 
L 167.547375 564.42393 
L 178.832925 564.550561 
L 190.118475 564.202846 
L 201.404025 564.009787 
L 212.689575 563.79493 
L 223.975125 563.709299 
L 235.260675 563.844233 
L 246.546225 563.665705 
L 257.831775 563.344458 
L 269.117325 563.207448 
L 280.402875 562.954188 
L 291.688425 553.245167 
L 302.973975 547.199085 
L 314.259525 541.947557 
L 325.545075 550.661699 
L 336.830625 548.52559 
L 348.116175 554.644848 
L 359.401725 548.707751 
L 370.687275 551.769196 
L 381.972825 546.580465 
L 393.258375 544.732388 
L 404.543925 543.129787 
L 415.829475 546.17203 
L 427.115025 544.175006 
L 438.400575 538.708103 
L 449.686125 543.142242 
L 460.971675 536.06184 
L 472.257225 529.642614 
L 483.542775 536.118408 
L 494.828325 533.206947 
L 506.113875 521.524776 
L 517.399425 528.312995 
L 528.684975 525.839551 
L 539.970525 532.951611 
L 551.256075 542.97098 
L 562.541625 539.298699 
L 573.827175 519.467551 
L 585.112725 521.678912 
L 596.398275 527.688146 
L 607.683825 524.567538 
L 618.969375 523.235843 
L 630.254925 519.905049 
L 641.540475 525.18045 
L 652.826025 531.325137 
L 664.111575 539.776677 
L 675.397125 532.93189 
L 686.682675 531.245733 
L 697.968225 531.361984 
L 709.253775 528.117859 
L 720.539325 526.581688 
L 731.824875 527.080943 
L 743.110425 528.807061 
L 754.395975 524.173116 
M 776.967075 513.034313 
L 788.252625 492.268488 
L 799.538175 498.819534 
L 810.823725 495.251049 
L 822.109275 496.982356 
L 833.394825 494.593505 
L 844.680375 497.133378 
L 855.965925 489.448886 
L 867.251475 491.25285 
L 878.537025 489.670489 
L 889.822575 488.170646 
L 901.108125 404.517269 
L 912.393675 442.750302 
L 923.679225 434.254649 
L 934.964775 426.714952 
L 946.250325 419.63922 
L 957.535875 466.184187 
" clip-path="url(#p57d1612f2c)" style="fill: none; stroke: #4ac1fa; stroke-width: 1.5; stroke-linecap: square"/>
   </g>
   <g id="line2d_88">
    <path d="M 54.691875 399.952348 
L 65.977425 448.918343 
L 77.262975 466.931514 
L 88.548525 429.230433 
L 99.834075 411.254628 
L 111.119625 409.10295 
L 122.405175 408.924422 
L 133.690725 388.687434 
L 144.976275 441.412379 
L 156.261825 412.454503 
L 167.547375 381.503236 
L 178.832925 364.169406 
L 190.118475 346.004174 
L 201.404025 307.733776 
L 212.689575 327.436217 
L 223.975125 288.970683 
L 235.260675 284.150944 
L 246.546225 288.376454 
L 257.831775 280.930173 
L 269.117325 290.894011 
L 280.402875 268.451372 
L 291.688425 212.342697 
L 302.973975 190.19328 
L 314.259525 173.713166 
L 325.545075 146.014328 
L 336.830625 125.079317 
L 348.116175 57.816789 
L 359.401725 63.219859 
L 370.687275 96.971525 
L 381.972825 50.027464 
L 393.258375 261.531852 
L 404.543925 386.912533 
L 415.829475 352.827165 
L 427.115025 543.854279 
L 438.400575 541.092283 
L 449.686125 541.072043 
L 460.971675 539.71907 
L 472.257225 543.791482 
L 483.542775 545.339072 
L 494.828325 541.826636 
L 506.113875 543.157812 
L 517.399425 543.496704 
L 528.684975 539.815081 
L 539.970525 541.432732 
L 551.256075 544.05149 
L 562.541625 543.140166 
L 573.827175 543.285999 
L 585.112725 541.187775 
L 596.398275 544.638453 
L 607.683825 539.199574 
L 618.969375 535.859439 
L 630.254925 533.668318 
L 641.540475 501.480848 
L 652.826025 423.117923 
L 664.111575 450.76123 
L 675.397125 475.629568 
L 686.682675 473.777858 
L 697.968225 486.786016 
L 709.253775 483.976793 
L 720.539325 496.509049 
L 731.824875 502.180429 
L 743.110425 509.573256 
L 754.395975 498.487908 
M 776.967075 426.335061 
L 788.252625 415.86003 
L 799.538175 438.728749 
L 810.823725 449.152921 
L 822.109275 526.261479 
L 833.394825 525.514671 
L 844.680375 528.396031 
L 855.965925 525.949055 
L 867.251475 528.598432 
L 878.537025 525.681263 
L 889.822575 521.637394 
L 901.108125 521.308882 
L 912.393675 515.1206 
L 923.679225 520.648224 
L 934.964775 521.556953 
L 946.250325 529.655588 
L 957.535875 536.815913 
" clip-path="url(#p57d1612f2c)" style="fill: none; stroke: #e9a942; stroke-width: 1.5; stroke-linecap: square"/>
   </g>
   <g id="line2d_89">
    <path d="M 54.691875 564.909174 
L 65.977425 563.834372 
L 77.262975 564.778911 
L 88.548525 563.717603 
L 99.834075 563.20174 
L 111.119625 562.669788 
L 122.405175 562.647472 
L 133.690725 562.037674 
L 144.976275 562.883088 
L 156.261825 561.976954 
L 167.547375 561.581494 
L 178.832925 562.165862 
L 190.118475 562.296125 
L 201.404025 561.802059 
L 212.689575 561.494305 
L 223.975125 559.857452 
L 235.260675 558.594781 
L 246.546225 556.406255 
L 257.831775 553.548768 
L 269.117325 553.508807 
L 280.402875 544.869917 
L 291.688425 547.492826 
L 302.973975 545.834695 
L 314.259525 546.438784 
L 325.545075 547.025747 
L 336.830625 554.963499 
L 348.116175 552.016229 
L 359.401725 552.397677 
L 370.687275 556.683389 
L 381.972825 552.338514 
L 393.258375 530.379042 
L 404.543925 500.101407 
L 415.829475 533.182555 
L 427.115025 512.215367 
L 438.400575 527.80803 
L 449.686125 525.015415 
L 460.971675 523.137238 
L 472.257225 529.069144 
L 483.542775 532.532796 
L 494.828325 529.866293 
L 506.113875 527.440075 
L 517.399425 528.13291 
L 528.684975 529.711119 
L 539.970525 522.842978 
L 551.256075 532.437824 
L 562.541625 525.287359 
L 573.827175 519.046142 
L 585.112725 508.65778 
L 596.398275 519.186266 
L 607.683825 513.453646 
L 618.969375 512.433857 
L 630.254925 518.934562 
L 641.540475 523.172528 
L 652.826025 508.480809 
L 664.111575 518.437901 
L 675.397125 501.910042 
L 686.682675 504.552154 
L 697.968225 509.532776 
L 709.253775 507.148076 
L 720.539325 509.893984 
L 731.824875 502.073001 
L 743.110425 516.782365 
L 754.395975 495.284263 
M 776.967075 506.427217 
L 788.252625 492.03443 
L 799.538175 515.738702 
L 810.823725 517.111915 
L 822.109275 514.036458 
L 833.394825 501.610592 
L 844.680375 509.244224 
L 855.965925 506.609378 
L 867.251475 505.551703 
L 878.537025 500.1559 
L 889.822575 497.084075 
L 901.108125 497.261565 
L 912.393675 482.746818 
L 923.679225 478.638077 
L 934.964775 498.440162 
L 946.250325 503.070475 
L 957.535875 519.983415 
" clip-path="url(#p57d1612f2c)" style="fill: none; stroke: #9a5689; stroke-width: 1.5; stroke-linecap: square"/>
   </g>
   <g id="line2d_90">
    <path d="M 54.691875 566.670582 
L 65.977425 566.177034 
L 77.262975 566.372689 
L 88.548525 565.926888 
L 99.834075 565.723968 
L 111.119625 565.477454 
L 122.405175 565.389227 
L 133.690725 565.543883 
L 144.976275 565.782612 
L 156.261825 565.500808 
L 167.547375 565.34252 
L 178.832925 565.66169 
L 190.118475 565.792473 
L 201.404025 564.333628 
L 212.689575 561.78597 
L 223.975125 561.158527 
L 235.260675 561.12168 
L 246.546225 562.271733 
L 257.831775 561.941145 
L 269.117325 562.533816 
L 280.402875 561.997713 
L 291.688425 562.803684 
L 302.973975 562.164824 
L 314.259525 562.024181 
L 325.545075 562.680687 
L 336.830625 561.05058 
L 348.116175 559.626507 
L 359.401725 559.966437 
L 370.687275 560.495794 
L 381.972825 558.578174 
L 393.258375 557.238694 
L 404.543925 556.48514 
L 415.829475 544.602643 
L 427.115025 547.041835 
L 438.400575 536.067029 
L 449.686125 544.274131 
L 460.971675 532.899194 
L 472.257225 532.400976 
L 483.542775 537.073845 
L 494.828325 539.783942 
L 506.113875 528.525256 
L 517.399425 533.931958 
L 528.684975 541.709866 
L 539.970525 547.472586 
L 551.256075 537.790552 
L 562.541625 545.455842 
L 573.827175 562.339719 
L 585.112725 560.24928 
L 596.398275 552.699722 
L 607.683825 538.512449 
L 618.969375 551.938902 
L 630.254925 550.210189 
L 641.540475 546.578389 
L 652.826025 545.306895 
L 664.111575 543.737509 
L 675.397125 540.09948 
L 686.682675 535.735922 
L 697.968225 538.673332 
L 709.253775 544.732907 
L 720.539325 547.312222 
L 731.824875 544.480165 
L 743.110425 545.594927 
L 754.395975 536.245039 
M 776.967075 539.548327 
L 788.252625 537.260157 
L 799.538175 539.880472 
L 810.823725 532.94175 
L 822.109275 528.899439 
L 833.394825 530.285107 
L 844.680375 538.271644 
L 855.965925 533.116126 
L 867.251475 529.495224 
L 878.537025 525.158134 
L 889.822575 527.978774 
L 901.108125 524.662511 
L 912.393675 509.896578 
L 923.679225 509.957299 
L 934.964775 512.326429 
L 946.250325 518.841665 
L 957.535875 534.77841 
" clip-path="url(#p57d1612f2c)" style="fill: none; stroke: #be503b; stroke-width: 1.5; stroke-linecap: square"/>
   </g>
   <g id="line2d_91">
    <path d="M 54.691875 549.902436 
L 65.977425 552.704912 
L 77.262975 555.244785 
L 88.548525 546.159574 
L 99.834075 543.948732 
L 111.119625 539.454911 
L 122.405175 532.031465 
L 133.690725 529.370151 
L 144.976275 520.406381 
L 156.261825 497.1832 
L 167.547375 471.81872 
L 178.832925 473.608153 
L 190.118475 461.32293 
L 201.404025 474.687625 
L 212.689575 464.928782 
L 223.975125 453.880801 
L 235.260675 449.047568 
L 246.546225 447.413829 
L 257.831775 445.33325 
L 269.117325 447.293945 
L 280.402875 422.054539 
L 291.688425 409.212973 
L 302.973975 399.072163 
L 314.259525 405.966772 
L 325.545075 406.844881 
L 336.830625 410.288293 
L 348.116175 415.321851 
L 359.401725 473.113049 
L 370.687275 461.983069 
L 381.972825 455.018398 
L 393.258375 472.024235 
L 404.543925 466.017596 
L 415.829475 473.574419 
L 427.115025 471.13419 
L 438.400575 455.289304 
L 449.686125 458.838587 
L 460.971675 469.691434 
L 472.257225 505.992315 
L 483.542775 513.423546 
L 494.828325 509.740885 
L 506.113875 505.482679 
L 517.399425 512.364833 
L 528.684975 508.66297 
L 539.970525 506.107528 
L 551.256075 513.213879 
L 562.541625 502.334046 
L 573.827175 501.840499 
L 585.112725 501.623048 
L 596.398275 507.636953 
L 607.683825 494.376573 
L 618.969375 495.048648 
L 630.254925 497.026469 
L 641.540475 499.82116 
L 652.826025 503.156106 
L 664.111575 520.712058 
L 675.397125 503.374076 
L 686.682675 493.723181 
L 697.968225 490.100202 
L 709.253775 488.563512 
L 720.539325 492.459991 
L 731.824875 488.557803 
L 743.110425 494.903334 
L 754.395975 486.323088 
M 776.967075 487.158122 
L 788.252625 485.244654 
L 799.538175 487.630391 
L 810.823725 479.208952 
L 822.109275 472.252585 
L 833.394825 471.372919 
L 844.680375 476.914555 
L 855.965925 457.943871 
L 867.251475 466.167061 
L 878.537025 464.44769 
L 889.822575 465.754993 
L 901.108125 457.679193 
L 912.393675 451.896752 
L 923.679225 444.152578 
L 934.964775 444.013492 
L 946.250325 448.603843 
L 957.535875 493.304885 
" clip-path="url(#p57d1612f2c)" style="fill: none; stroke: #e2321d; stroke-width: 1.5; stroke-linecap: square"/>
   </g>
   <g id="line2d_92">
    <path d="M 54.691875 567.74175 
L 65.977425 567.74175 
L 77.262975 567.74175 
L 88.548525 567.74175 
L 99.834075 567.74175 
L 111.119625 567.74175 
L 122.405175 567.74175 
L 133.690725 567.74175 
L 144.976275 567.74175 
L 156.261825 567.74175 
L 167.547375 567.53364 
L 178.832925 564.253706 
L 190.118475 566.557445 
L 201.404025 566.517483 
L 212.689575 564.7841 
L 223.975125 561.38532 
L 235.260675 561.322005 
L 246.546225 561.545165 
L 257.831775 560.893849 
L 269.117325 560.204129 
L 280.402875 559.93478 
L 291.688425 559.010482 
L 302.973975 557.049787 
L 314.259525 556.394838 
L 325.545075 554.994119 
L 336.830625 553.836281 
L 348.116175 544.248701 
L 359.401725 546.295546 
L 370.687275 547.2624 
L 381.972825 544.490025 
L 393.258375 537.811311 
L 404.543925 526.683926 
L 415.829475 527.11312 
L 427.115025 519.137482 
L 438.400575 512.780014 
L 449.686125 519.024345 
L 460.971675 515.313141 
L 472.257225 501.423761 
L 483.542775 506.686706 
L 494.828325 449.701998 
L 506.113875 414.637839 
L 517.399425 425.245209 
L 528.684975 460.233598 
L 539.970525 457.617435 
L 551.256075 434.081311 
L 562.541625 425.884589 
L 573.827175 424.412251 
L 585.112725 400.227925 
L 596.398275 423.909881 
L 607.683825 434.841093 
L 618.969375 465.722298 
L 630.254925 440.279971 
L 641.540475 435.758644 
L 652.826025 428.935654 
L 664.111575 442.230287 
L 675.397125 445.691863 
L 686.682675 470.781804 
L 697.968225 456.499039 
L 709.253775 459.612901 
L 720.539325 464.671369 
L 731.824875 441.742968 
L 743.110425 464.710812 
L 754.395975 449.60962 
M 776.967075 458.874916 
L 788.252625 440.579421 
L 799.538175 448.165826 
L 810.823725 463.297118 
L 822.109275 439.137703 
L 833.394825 422.160929 
L 844.680375 425.207843 
L 855.965925 430.548116 
L 867.251475 398.62221 
L 878.537025 378.598522 
L 889.822575 411.950057 
L 901.108125 398.980823 
L 912.393675 336.580072 
L 923.679225 313.296171 
L 934.964775 386.092031 
L 946.250325 391.575541 
L 957.535875 426.768925 
" clip-path="url(#p57d1612f2c)" style="fill: none; stroke: #48b585; stroke-width: 6; stroke-linecap: square"/>
   </g>
   <g id="patch_3">
    <path d="M 54.691875 567.74175 
L 54.691875 24.14175 
" style="fill: none; stroke: #ffffff; stroke-linejoin: miter; stroke-linecap: square"/>
   </g>
   <g id="patch_4">
    <path d="M 957.535875 567.74175 
L 957.535875 24.14175 
" style="fill: none; stroke: #ffffff; stroke-linejoin: miter; stroke-linecap: square"/>
   </g>
   <g id="patch_5">
    <path d="M 54.691875 567.74175 
L 957.535875 567.74175 
" style="fill: none; stroke: #ffffff; stroke-linejoin: miter; stroke-linecap: square"/>
   </g>
   <g id="patch_6">
    <path d="M 54.691875 24.14175 
L 957.535875 24.14175 
" style="fill: none; stroke: #ffffff; stroke-linejoin: miter; stroke-linecap: square"/>
   </g>
   <g id="text_46">
    <!-- Potentially Ephemeral Enterprise Linux 8 and 9 Instances by Distribution (2 Week Resample) -->
    <g transform="translate(54.691875 18.14175)scale(0.144 -0.144)">
     <defs>
      <path id="DejaVuSans-50" d="M 1259 4147 
L 1259 2394 
L 2053 2394 
Q 2494 2394 2734 2622 
Q 2975 2850 2975 3272 
Q 2975 3691 2734 3919 
Q 2494 4147 2053 4147 
L 1259 4147 
z
M 628 4666 
L 2053 4666 
Q 2838 4666 3239 4311 
Q 3641 3956 3641 3272 
Q 3641 2581 3239 2228 
Q 2838 1875 2053 1875 
L 1259 1875 
L 1259 0 
L 628 0 
L 628 4666 
z
" transform="scale(0.015625)"/>
      <path id="DejaVuSans-6f" d="M 1959 3097 
Q 1497 3097 1228 2736 
Q 959 2375 959 1747 
Q 959 1119 1226 758 
Q 1494 397 1959 397 
Q 2419 397 2687 759 
Q 2956 1122 2956 1747 
Q 2956 2369 2687 2733 
Q 2419 3097 1959 3097 
z
M 1959 3584 
Q 2709 3584 3137 3096 
Q 3566 2609 3566 1747 
Q 3566 888 3137 398 
Q 2709 -91 1959 -91 
Q 1206 -91 779 398 
Q 353 888 353 1747 
Q 353 2609 779 3096 
Q 1206 3584 1959 3584 
z
" transform="scale(0.015625)"/>
      <path id="DejaVuSans-69" d="M 603 3500 
L 1178 3500 
L 1178 0 
L 603 0 
L 603 3500 
z
M 603 4863 
L 1178 4863 
L 1178 4134 
L 603 4134 
L 603 4863 
z
" transform="scale(0.015625)"/>
      <path id="DejaVuSans-6c" d="M 603 4863 
L 1178 4863 
L 1178 0 
L 603 0 
L 603 4863 
z
" transform="scale(0.015625)"/>
      <path id="DejaVuSans-79" d="M 2059 -325 
Q 1816 -950 1584 -1140 
Q 1353 -1331 966 -1331 
L 506 -1331 
L 506 -850 
L 844 -850 
Q 1081 -850 1212 -737 
Q 1344 -625 1503 -206 
L 1606 56 
L 191 3500 
L 800 3500 
L 1894 763 
L 2988 3500 
L 3597 3500 
L 2059 -325 
z
" transform="scale(0.015625)"/>
      <path id="DejaVuSans-20" transform="scale(0.015625)"/>
      <path id="DejaVuSans-45" d="M 628 4666 
L 3578 4666 
L 3578 4134 
L 1259 4134 
L 1259 2753 
L 3481 2753 
L 3481 2222 
L 1259 2222 
L 1259 531 
L 3634 531 
L 3634 0 
L 628 0 
L 628 4666 
z
" transform="scale(0.015625)"/>
      <path id="DejaVuSans-70" d="M 1159 525 
L 1159 -1331 
L 581 -1331 
L 581 3500 
L 1159 3500 
L 1159 2969 
Q 1341 3281 1617 3432 
Q 1894 3584 2278 3584 
Q 2916 3584 3314 3078 
Q 3713 2572 3713 1747 
Q 3713 922 3314 415 
Q 2916 -91 2278 -91 
Q 1894 -91 1617 61 
Q 1341 213 1159 525 
z
M 3116 1747 
Q 3116 2381 2855 2742 
Q 2594 3103 2138 3103 
Q 1681 3103 1420 2742 
Q 1159 2381 1159 1747 
Q 1159 1113 1420 752 
Q 1681 391 2138 391 
Q 2594 391 2855 752 
Q 3116 1113 3116 1747 
z
" transform="scale(0.015625)"/>
      <path id="DejaVuSans-68" d="M 3513 2113 
L 3513 0 
L 2938 0 
L 2938 2094 
Q 2938 2591 2744 2837 
Q 2550 3084 2163 3084 
Q 1697 3084 1428 2787 
Q 1159 2491 1159 1978 
L 1159 0 
L 581 0 
L 581 4863 
L 1159 4863 
L 1159 2956 
Q 1366 3272 1645 3428 
Q 1925 3584 2291 3584 
Q 2894 3584 3203 3211 
Q 3513 2838 3513 2113 
z
" transform="scale(0.015625)"/>
      <path id="DejaVuSans-6d" d="M 3328 2828 
Q 3544 3216 3844 3400 
Q 4144 3584 4550 3584 
Q 5097 3584 5394 3201 
Q 5691 2819 5691 2113 
L 5691 0 
L 5113 0 
L 5113 2094 
Q 5113 2597 4934 2840 
Q 4756 3084 4391 3084 
Q 3944 3084 3684 2787 
Q 3425 2491 3425 1978 
L 3425 0 
L 2847 0 
L 2847 2094 
Q 2847 2600 2669 2842 
Q 2491 3084 2119 3084 
Q 1678 3084 1418 2786 
Q 1159 2488 1159 1978 
L 1159 0 
L 581 0 
L 581 3500 
L 1159 3500 
L 1159 2956 
Q 1356 3278 1631 3431 
Q 1906 3584 2284 3584 
Q 2666 3584 2933 3390 
Q 3200 3197 3328 2828 
z
" transform="scale(0.015625)"/>
      <path id="DejaVuSans-72" d="M 2631 2963 
Q 2534 3019 2420 3045 
Q 2306 3072 2169 3072 
Q 1681 3072 1420 2755 
Q 1159 2438 1159 1844 
L 1159 0 
L 581 0 
L 581 3500 
L 1159 3500 
L 1159 2956 
Q 1341 3275 1631 3429 
Q 1922 3584 2338 3584 
Q 2397 3584 2469 3576 
Q 2541 3569 2628 3553 
L 2631 2963 
z
" transform="scale(0.015625)"/>
      <path id="DejaVuSans-4c" d="M 628 4666 
L 1259 4666 
L 1259 531 
L 3531 531 
L 3531 0 
L 628 0 
L 628 4666 
z
" transform="scale(0.015625)"/>
      <path id="DejaVuSans-75" d="M 544 1381 
L 544 3500 
L 1119 3500 
L 1119 1403 
Q 1119 906 1312 657 
Q 1506 409 1894 409 
Q 2359 409 2629 706 
Q 2900 1003 2900 1516 
L 2900 3500 
L 3475 3500 
L 3475 0 
L 2900 0 
L 2900 538 
Q 2691 219 2414 64 
Q 2138 -91 1772 -91 
Q 1169 -91 856 284 
Q 544 659 544 1381 
z
M 1991 3584 
L 1991 3584 
z
" transform="scale(0.015625)"/>
      <path id="DejaVuSans-78" d="M 3513 3500 
L 2247 1797 
L 3578 0 
L 2900 0 
L 1881 1375 
L 863 0 
L 184 0 
L 1544 1831 
L 300 3500 
L 978 3500 
L 1906 2253 
L 2834 3500 
L 3513 3500 
z
" transform="scale(0.015625)"/>
      <path id="DejaVuSans-64" d="M 2906 2969 
L 2906 4863 
L 3481 4863 
L 3481 0 
L 2906 0 
L 2906 525 
Q 2725 213 2448 61 
Q 2172 -91 1784 -91 
Q 1150 -91 751 415 
Q 353 922 353 1747 
Q 353 2572 751 3078 
Q 1150 3584 1784 3584 
Q 2172 3584 2448 3432 
Q 2725 3281 2906 2969 
z
M 947 1747 
Q 947 1113 1208 752 
Q 1469 391 1925 391 
Q 2381 391 2643 752 
Q 2906 1113 2906 1747 
Q 2906 2381 2643 2742 
Q 2381 3103 1925 3103 
Q 1469 3103 1208 2742 
Q 947 2381 947 1747 
z
" transform="scale(0.015625)"/>
      <path id="DejaVuSans-62" d="M 3116 1747 
Q 3116 2381 2855 2742 
Q 2594 3103 2138 3103 
Q 1681 3103 1420 2742 
Q 1159 2381 1159 1747 
Q 1159 1113 1420 752 
Q 1681 391 2138 391 
Q 2594 391 2855 752 
Q 3116 1113 3116 1747 
z
M 1159 2969 
Q 1341 3281 1617 3432 
Q 1894 3584 2278 3584 
Q 2916 3584 3314 3078 
Q 3713 2572 3713 1747 
Q 3713 922 3314 415 
Q 2916 -91 2278 -91 
Q 1894 -91 1617 61 
Q 1341 213 1159 525 
L 1159 0 
L 581 0 
L 581 4863 
L 1159 4863 
L 1159 2969 
z
" transform="scale(0.015625)"/>
      <path id="DejaVuSans-28" d="M 1984 4856 
Q 1566 4138 1362 3434 
Q 1159 2731 1159 2009 
Q 1159 1288 1364 580 
Q 1569 -128 1984 -844 
L 1484 -844 
Q 1016 -109 783 600 
Q 550 1309 550 2009 
Q 550 2706 781 3412 
Q 1013 4119 1484 4856 
L 1984 4856 
z
" transform="scale(0.015625)"/>
      <path id="DejaVuSans-57" d="M 213 4666 
L 850 4666 
L 1831 722 
L 2809 4666 
L 3519 4666 
L 4500 722 
L 5478 4666 
L 6119 4666 
L 4947 0 
L 4153 0 
L 3169 4050 
L 2175 0 
L 1381 0 
L 213 4666 
z
" transform="scale(0.015625)"/>
      <path id="DejaVuSans-52" d="M 2841 2188 
Q 3044 2119 3236 1894 
Q 3428 1669 3622 1275 
L 4263 0 
L 3584 0 
L 2988 1197 
Q 2756 1666 2539 1819 
Q 2322 1972 1947 1972 
L 1259 1972 
L 1259 0 
L 628 0 
L 628 4666 
L 2053 4666 
Q 2853 4666 3247 4331 
Q 3641 3997 3641 3322 
Q 3641 2881 3436 2590 
Q 3231 2300 2841 2188 
z
M 1259 4147 
L 1259 2491 
L 2053 2491 
Q 2509 2491 2742 2702 
Q 2975 2913 2975 3322 
Q 2975 3731 2742 3939 
Q 2509 4147 2053 4147 
L 1259 4147 
z
" transform="scale(0.015625)"/>
      <path id="DejaVuSans-29" d="M 513 4856 
L 1013 4856 
Q 1481 4119 1714 3412 
Q 1947 2706 1947 2009 
Q 1947 1309 1714 600 
Q 1481 -109 1013 -844 
L 513 -844 
Q 928 -128 1133 580 
Q 1338 1288 1338 2009 
Q 1338 2731 1133 3434 
Q 928 4138 513 4856 
z
" transform="scale(0.015625)"/>
     </defs>
     <use xlink:href="#DejaVuSans-50"/>
     <use xlink:href="#DejaVuSans-6f" x="56.677734"/>
     <use xlink:href="#DejaVuSans-74" x="117.859375"/>
     <use xlink:href="#DejaVuSans-65" x="157.068359"/>
     <use xlink:href="#DejaVuSans-6e" x="218.591797"/>
     <use xlink:href="#DejaVuSans-74" x="281.970703"/>
     <use xlink:href="#DejaVuSans-69" x="321.179688"/>
     <use xlink:href="#DejaVuSans-61" x="348.962891"/>
     <use xlink:href="#DejaVuSans-6c" x="410.242188"/>
     <use xlink:href="#DejaVuSans-6c" x="438.025391"/>
     <use xlink:href="#DejaVuSans-79" x="465.808594"/>
     <use xlink:href="#DejaVuSans-20" x="524.988281"/>
     <use xlink:href="#DejaVuSans-45" x="556.775391"/>
     <use xlink:href="#DejaVuSans-70" x="619.958984"/>
     <use xlink:href="#DejaVuSans-68" x="683.435547"/>
     <use xlink:href="#DejaVuSans-65" x="746.814453"/>
     <use xlink:href="#DejaVuSans-6d" x="808.337891"/>
     <use xlink:href="#DejaVuSans-65" x="905.75"/>
     <use xlink:href="#DejaVuSans-72" x="967.273438"/>
     <use xlink:href="#DejaVuSans-61" x="1008.386719"/>
     <use xlink:href="#DejaVuSans-6c" x="1069.666016"/>
     <use xlink:href="#DejaVuSans-20" x="1097.449219"/>
     <use xlink:href="#DejaVuSans-45" x="1129.236328"/>
     <use xlink:href="#DejaVuSans-6e" x="1192.419922"/>
     <use xlink:href="#DejaVuSans-74" x="1255.798828"/>
     <use xlink:href="#DejaVuSans-65" x="1295.007812"/>
     <use xlink:href="#DejaVuSans-72" x="1356.53125"/>
     <use xlink:href="#DejaVuSans-70" x="1397.644531"/>
     <use xlink:href="#DejaVuSans-72" x="1461.121094"/>
     <use xlink:href="#DejaVuSans-69" x="1502.234375"/>
     <use xlink:href="#DejaVuSans-73" x="1530.017578"/>
     <use xlink:href="#DejaVuSans-65" x="1582.117188"/>
     <use xlink:href="#DejaVuSans-20" x="1643.640625"/>
     <use xlink:href="#DejaVuSans-4c" x="1675.427734"/>
     <use xlink:href="#DejaVuSans-69" x="1731.140625"/>
     <use xlink:href="#DejaVuSans-6e" x="1758.923828"/>
     <use xlink:href="#DejaVuSans-75" x="1822.302734"/>
     <use xlink:href="#DejaVuSans-78" x="1885.681641"/>
     <use xlink:href="#DejaVuSans-20" x="1944.861328"/>
     <use xlink:href="#DejaVuSans-38" x="1976.648438"/>
     <use xlink:href="#DejaVuSans-20" x="2040.271484"/>
     <use xlink:href="#DejaVuSans-61" x="2072.058594"/>
     <use xlink:href="#DejaVuSans-6e" x="2133.337891"/>
     <use xlink:href="#DejaVuSans-64" x="2196.716797"/>
     <use xlink:href="#DejaVuSans-20" x="2260.193359"/>
     <use xlink:href="#DejaVuSans-39" x="2291.980469"/>
     <use xlink:href="#DejaVuSans-20" x="2355.603516"/>
     <use xlink:href="#DejaVuSans-49" x="2387.390625"/>
     <use xlink:href="#DejaVuSans-6e" x="2416.882812"/>
     <use xlink:href="#DejaVuSans-73" x="2480.261719"/>
     <use xlink:href="#DejaVuSans-74" x="2532.361328"/>
     <use xlink:href="#DejaVuSans-61" x="2571.570312"/>
     <use xlink:href="#DejaVuSans-6e" x="2632.849609"/>
     <use xlink:href="#DejaVuSans-63" x="2696.228516"/>
     <use xlink:href="#DejaVuSans-65" x="2751.208984"/>
     <use xlink:href="#DejaVuSans-73" x="2812.732422"/>
     <use xlink:href="#DejaVuSans-20" x="2864.832031"/>
     <use xlink:href="#DejaVuSans-62" x="2896.619141"/>
     <use xlink:href="#DejaVuSans-79" x="2960.095703"/>
     <use xlink:href="#DejaVuSans-20" x="3019.275391"/>
     <use xlink:href="#DejaVuSans-44" x="3051.0625"/>
     <use xlink:href="#DejaVuSans-69" x="3128.064453"/>
     <use xlink:href="#DejaVuSans-73" x="3155.847656"/>
     <use xlink:href="#DejaVuSans-74" x="3207.947266"/>
     <use xlink:href="#DejaVuSans-72" x="3247.15625"/>
     <use xlink:href="#DejaVuSans-69" x="3288.269531"/>
     <use xlink:href="#DejaVuSans-62" x="3316.052734"/>
     <use xlink:href="#DejaVuSans-75" x="3379.529297"/>
     <use xlink:href="#DejaVuSans-74" x="3442.908203"/>
     <use xlink:href="#DejaVuSans-69" x="3482.117188"/>
     <use xlink:href="#DejaVuSans-6f" x="3509.900391"/>
     <use xlink:href="#DejaVuSans-6e" x="3571.082031"/>
     <use xlink:href="#DejaVuSans-20" x="3634.460938"/>
     <use xlink:href="#DejaVuSans-28" x="3666.248047"/>
     <use xlink:href="#DejaVuSans-32" x="3705.261719"/>
     <use xlink:href="#DejaVuSans-20" x="3768.884766"/>
     <use xlink:href="#DejaVuSans-57" x="3800.671875"/>
     <use xlink:href="#DejaVuSans-65" x="3893.673828"/>
     <use xlink:href="#DejaVuSans-65" x="3955.197266"/>
     <use xlink:href="#DejaVuSans-6b" x="4016.720703"/>
     <use xlink:href="#DejaVuSans-20" x="4074.630859"/>
     <use xlink:href="#DejaVuSans-52" x="4106.417969"/>
     <use xlink:href="#DejaVuSans-65" x="4171.400391"/>
     <use xlink:href="#DejaVuSans-73" x="4232.923828"/>
     <use xlink:href="#DejaVuSans-61" x="4285.023438"/>
     <use xlink:href="#DejaVuSans-6d" x="4346.302734"/>
     <use xlink:href="#DejaVuSans-70" x="4443.714844"/>
     <use xlink:href="#DejaVuSans-6c" x="4507.191406"/>
     <use xlink:href="#DejaVuSans-65" x="4534.974609"/>
     <use xlink:href="#DejaVuSans-29" x="4596.498047"/>
    </g>
   </g>
   <g id="text_47">
    <!-- 2024-01-04 11:54 UTC -->
    <g transform="translate(794.653875 18.14175)scale(0.144 -0.144)">
     <defs>
      <path id="DejaVuSans-3a" d="M 750 794 
L 1409 794 
L 1409 0 
L 750 0 
L 750 794 
z
M 750 3309 
L 1409 3309 
L 1409 2516 
L 750 2516 
L 750 3309 
z
" transform="scale(0.015625)"/>
      <path id="DejaVuSans-55" d="M 556 4666 
L 1191 4666 
L 1191 1831 
Q 1191 1081 1462 751 
Q 1734 422 2344 422 
Q 2950 422 3222 751 
Q 3494 1081 3494 1831 
L 3494 4666 
L 4128 4666 
L 4128 1753 
Q 4128 841 3676 375 
Q 3225 -91 2344 -91 
Q 1459 -91 1007 375 
Q 556 841 556 1753 
L 556 4666 
z
" transform="scale(0.015625)"/>
      <path id="DejaVuSans-54" d="M -19 4666 
L 3928 4666 
L 3928 4134 
L 2272 4134 
L 2272 0 
L 1638 0 
L 1638 4134 
L -19 4134 
L -19 4666 
z
" transform="scale(0.015625)"/>
      <path id="DejaVuSans-43" d="M 4122 4306 
L 4122 3641 
Q 3803 3938 3442 4084 
Q 3081 4231 2675 4231 
Q 1875 4231 1450 3742 
Q 1025 3253 1025 2328 
Q 1025 1406 1450 917 
Q 1875 428 2675 428 
Q 3081 428 3442 575 
Q 3803 722 4122 1019 
L 4122 359 
Q 3791 134 3420 21 
Q 3050 -91 2638 -91 
Q 1578 -91 968 557 
Q 359 1206 359 2328 
Q 359 3453 968 4101 
Q 1578 4750 2638 4750 
Q 3056 4750 3426 4639 
Q 3797 4528 4122 4306 
z
" transform="scale(0.015625)"/>
     </defs>
     <use xlink:href="#DejaVuSans-32"/>
     <use xlink:href="#DejaVuSans-30" x="63.623047"/>
     <use xlink:href="#DejaVuSans-32" x="127.246094"/>
     <use xlink:href="#DejaVuSans-34" x="190.869141"/>
     <use xlink:href="#DejaVuSans-2d" x="254.492188"/>
     <use xlink:href="#DejaVuSans-30" x="290.576172"/>
     <use xlink:href="#DejaVuSans-31" x="354.199219"/>
     <use xlink:href="#DejaVuSans-2d" x="417.822266"/>
     <use xlink:href="#DejaVuSans-30" x="453.90625"/>
     <use xlink:href="#DejaVuSans-34" x="517.529297"/>
     <use xlink:href="#DejaVuSans-20" x="581.152344"/>
     <use xlink:href="#DejaVuSans-31" x="612.939453"/>
     <use xlink:href="#DejaVuSans-31" x="676.5625"/>
     <use xlink:href="#DejaVuSans-3a" x="740.185547"/>
     <use xlink:href="#DejaVuSans-35" x="773.876953"/>
     <use xlink:href="#DejaVuSans-34" x="837.5"/>
     <use xlink:href="#DejaVuSans-20" x="901.123047"/>
     <use xlink:href="#DejaVuSans-55" x="932.910156"/>
     <use xlink:href="#DejaVuSans-54" x="1006.103516"/>
     <use xlink:href="#DejaVuSans-43" x="1061.3125"/>
    </g>
   </g>
   <g id="legend_1">
    <g id="patch_7">
     <path d="M 841.567125 134.888625 
L 950.535875 134.888625 
Q 952.535875 134.888625 952.535875 132.888625 
L 952.535875 31.14175 
Q 952.535875 29.14175 950.535875 29.14175 
L 841.567125 29.14175 
Q 839.567125 29.14175 839.567125 31.14175 
L 839.567125 132.888625 
Q 839.567125 134.888625 841.567125 134.888625 
z
" style="fill: #e5e5e5; opacity: 0.8; stroke: #cccccc; stroke-width: 0.5; stroke-linejoin: miter"/>
    </g>
    <g id="text_48">
     <!-- Distribution -->
     <g transform="translate(866.88275 40.740187)scale(0.1 -0.1)">
      <use xlink:href="#DejaVuSans-44"/>
      <use xlink:href="#DejaVuSans-69" x="77.001953"/>
      <use xlink:href="#DejaVuSans-73" x="104.785156"/>
      <use xlink:href="#DejaVuSans-74" x="156.884766"/>
      <use xlink:href="#DejaVuSans-72" x="196.09375"/>
      <use xlink:href="#DejaVuSans-69" x="237.207031"/>
      <use xlink:href="#DejaVuSans-62" x="264.990234"/>
      <use xlink:href="#DejaVuSans-75" x="328.466797"/>
      <use xlink:href="#DejaVuSans-74" x="391.845703"/>
      <use xlink:href="#DejaVuSans-69" x="431.054688"/>
      <use xlink:href="#DejaVuSans-6f" x="458.837891"/>
      <use xlink:href="#DejaVuSans-6e" x="520.019531"/>
     </g>
    </g>
    <g id="line2d_93">
     <path d="M 843.567125 51.918312 
L 853.567125 51.918312 
L 863.567125 51.918312 
" style="fill: none; stroke: #4ac1fa; stroke-width: 1.5; stroke-linecap: square"/>
    </g>
    <g id="text_49">
     <!-- AlmaLinux -->
     <g transform="translate(871.567125 55.418312)scale(0.1 -0.1)">
      <defs>
       <path id="DejaVuSans-41" d="M 2188 4044 
L 1331 1722 
L 3047 1722 
L 2188 4044 
z
M 1831 4666 
L 2547 4666 
L 4325 0 
L 3669 0 
L 3244 1197 
L 1141 1197 
L 716 0 
L 50 0 
L 1831 4666 
z
" transform="scale(0.015625)"/>
      </defs>
      <use xlink:href="#DejaVuSans-41"/>
      <use xlink:href="#DejaVuSans-6c" x="68.408203"/>
      <use xlink:href="#DejaVuSans-6d" x="96.191406"/>
      <use xlink:href="#DejaVuSans-61" x="193.603516"/>
      <use xlink:href="#DejaVuSans-4c" x="254.882812"/>
      <use xlink:href="#DejaVuSans-69" x="310.595703"/>
      <use xlink:href="#DejaVuSans-6e" x="338.378906"/>
      <use xlink:href="#DejaVuSans-75" x="401.757812"/>
      <use xlink:href="#DejaVuSans-78" x="465.136719"/>
     </g>
    </g>
    <g id="line2d_94">
     <path d="M 843.567125 66.596437 
L 853.567125 66.596437 
L 863.567125 66.596437 
" style="fill: none; stroke: #e9a942; stroke-width: 1.5; stroke-linecap: square"/>
    </g>
    <g id="text_50">
     <!-- CentOS Legacy -->
     <g transform="translate(871.567125 70.096437)scale(0.1 -0.1)">
      <defs>
       <path id="DejaVuSans-4f" d="M 2522 4238 
Q 1834 4238 1429 3725 
Q 1025 3213 1025 2328 
Q 1025 1447 1429 934 
Q 1834 422 2522 422 
Q 3209 422 3611 934 
Q 4013 1447 4013 2328 
Q 4013 3213 3611 3725 
Q 3209 4238 2522 4238 
z
M 2522 4750 
Q 3503 4750 4090 4092 
Q 4678 3434 4678 2328 
Q 4678 1225 4090 567 
Q 3503 -91 2522 -91 
Q 1538 -91 948 565 
Q 359 1222 359 2328 
Q 359 3434 948 4092 
Q 1538 4750 2522 4750 
z
" transform="scale(0.015625)"/>
       <path id="DejaVuSans-53" d="M 3425 4513 
L 3425 3897 
Q 3066 4069 2747 4153 
Q 2428 4238 2131 4238 
Q 1616 4238 1336 4038 
Q 1056 3838 1056 3469 
Q 1056 3159 1242 3001 
Q 1428 2844 1947 2747 
L 2328 2669 
Q 3034 2534 3370 2195 
Q 3706 1856 3706 1288 
Q 3706 609 3251 259 
Q 2797 -91 1919 -91 
Q 1588 -91 1214 -16 
Q 841 59 441 206 
L 441 856 
Q 825 641 1194 531 
Q 1563 422 1919 422 
Q 2459 422 2753 634 
Q 3047 847 3047 1241 
Q 3047 1584 2836 1778 
Q 2625 1972 2144 2069 
L 1759 2144 
Q 1053 2284 737 2584 
Q 422 2884 422 3419 
Q 422 4038 858 4394 
Q 1294 4750 2059 4750 
Q 2388 4750 2728 4690 
Q 3069 4631 3425 4513 
z
" transform="scale(0.015625)"/>
       <path id="DejaVuSans-67" d="M 2906 1791 
Q 2906 2416 2648 2759 
Q 2391 3103 1925 3103 
Q 1463 3103 1205 2759 
Q 947 2416 947 1791 
Q 947 1169 1205 825 
Q 1463 481 1925 481 
Q 2391 481 2648 825 
Q 2906 1169 2906 1791 
z
M 3481 434 
Q 3481 -459 3084 -895 
Q 2688 -1331 1869 -1331 
Q 1566 -1331 1297 -1286 
Q 1028 -1241 775 -1147 
L 775 -588 
Q 1028 -725 1275 -790 
Q 1522 -856 1778 -856 
Q 2344 -856 2625 -561 
Q 2906 -266 2906 331 
L 2906 616 
Q 2728 306 2450 153 
Q 2172 0 1784 0 
Q 1141 0 747 490 
Q 353 981 353 1791 
Q 353 2603 747 3093 
Q 1141 3584 1784 3584 
Q 2172 3584 2450 3431 
Q 2728 3278 2906 2969 
L 2906 3500 
L 3481 3500 
L 3481 434 
z
" transform="scale(0.015625)"/>
      </defs>
      <use xlink:href="#DejaVuSans-43"/>
      <use xlink:href="#DejaVuSans-65" x="69.824219"/>
      <use xlink:href="#DejaVuSans-6e" x="131.347656"/>
      <use xlink:href="#DejaVuSans-74" x="194.726562"/>
      <use xlink:href="#DejaVuSans-4f" x="233.935547"/>
      <use xlink:href="#DejaVuSans-53" x="312.646484"/>
      <use xlink:href="#DejaVuSans-20" x="376.123047"/>
      <use xlink:href="#DejaVuSans-4c" x="407.910156"/>
      <use xlink:href="#DejaVuSans-65" x="461.873047"/>
      <use xlink:href="#DejaVuSans-67" x="523.396484"/>
      <use xlink:href="#DejaVuSans-61" x="586.873047"/>
      <use xlink:href="#DejaVuSans-63" x="648.152344"/>
      <use xlink:href="#DejaVuSans-79" x="703.132812"/>
     </g>
    </g>
    <g id="line2d_95">
     <path d="M 843.567125 81.274563 
L 853.567125 81.274563 
L 863.567125 81.274563 
" style="fill: none; stroke: #9a5689; stroke-width: 1.5; stroke-linecap: square"/>
    </g>
    <g id="text_51">
     <!-- CentOS Stream -->
     <g transform="translate(871.567125 84.774563)scale(0.1 -0.1)">
      <use xlink:href="#DejaVuSans-43"/>
      <use xlink:href="#DejaVuSans-65" x="69.824219"/>
      <use xlink:href="#DejaVuSans-6e" x="131.347656"/>
      <use xlink:href="#DejaVuSans-74" x="194.726562"/>
      <use xlink:href="#DejaVuSans-4f" x="233.935547"/>
      <use xlink:href="#DejaVuSans-53" x="312.646484"/>
      <use xlink:href="#DejaVuSans-20" x="376.123047"/>
      <use xlink:href="#DejaVuSans-53" x="407.910156"/>
      <use xlink:href="#DejaVuSans-74" x="471.386719"/>
      <use xlink:href="#DejaVuSans-72" x="510.595703"/>
      <use xlink:href="#DejaVuSans-65" x="549.458984"/>
      <use xlink:href="#DejaVuSans-61" x="610.982422"/>
      <use xlink:href="#DejaVuSans-6d" x="672.261719"/>
     </g>
    </g>
    <g id="line2d_96">
     <path d="M 843.567125 95.952687 
L 853.567125 95.952687 
L 863.567125 95.952687 
" style="fill: none; stroke: #be503b; stroke-width: 1.5; stroke-linecap: square"/>
    </g>
    <g id="text_52">
     <!-- Oracle -->
     <g transform="translate(871.567125 99.452687)scale(0.1 -0.1)">
      <use xlink:href="#DejaVuSans-4f"/>
      <use xlink:href="#DejaVuSans-72" x="78.710938"/>
      <use xlink:href="#DejaVuSans-61" x="119.824219"/>
      <use xlink:href="#DejaVuSans-63" x="181.103516"/>
      <use xlink:href="#DejaVuSans-6c" x="236.083984"/>
      <use xlink:href="#DejaVuSans-65" x="263.867188"/>
     </g>
    </g>
    <g id="line2d_97">
     <path d="M 843.567125 110.630812 
L 853.567125 110.630812 
L 863.567125 110.630812 
" style="fill: none; stroke: #e2321d; stroke-width: 1.5; stroke-linecap: square"/>
    </g>
    <g id="text_53">
     <!-- RHEL -->
     <g transform="translate(871.567125 114.130812)scale(0.1 -0.1)">
      <defs>
       <path id="DejaVuSans-48" d="M 628 4666 
L 1259 4666 
L 1259 2753 
L 3553 2753 
L 3553 4666 
L 4184 4666 
L 4184 0 
L 3553 0 
L 3553 2222 
L 1259 2222 
L 1259 0 
L 628 0 
L 628 4666 
z
" transform="scale(0.015625)"/>
      </defs>
      <use xlink:href="#DejaVuSans-52"/>
      <use xlink:href="#DejaVuSans-48" x="69.482422"/>
      <use xlink:href="#DejaVuSans-45" x="144.677734"/>
      <use xlink:href="#DejaVuSans-4c" x="207.861328"/>
     </g>
    </g>
    <g id="line2d_98">
     <path d="M 843.567125 125.308937 
L 853.567125 125.308937 
L 863.567125 125.308937 
" style="fill: none; stroke: #48b585; stroke-width: 6; stroke-linecap: square"/>
    </g>
    <g id="text_54">
     <!-- Rocky Linux -->
     <g transform="translate(871.567125 128.808937)scale(0.1 -0.1)">
      <use xlink:href="#DejaVuSans-52"/>
      <use xlink:href="#DejaVuSans-6f" x="64.982422"/>
      <use xlink:href="#DejaVuSans-63" x="126.164062"/>
      <use xlink:href="#DejaVuSans-6b" x="181.144531"/>
      <use xlink:href="#DejaVuSans-79" x="235.429688"/>
      <use xlink:href="#DejaVuSans-20" x="294.609375"/>
      <use xlink:href="#DejaVuSans-4c" x="326.396484"/>
      <use xlink:href="#DejaVuSans-69" x="382.109375"/>
      <use xlink:href="#DejaVuSans-6e" x="409.892578"/>
      <use xlink:href="#DejaVuSans-75" x="473.271484"/>
      <use xlink:href="#DejaVuSans-78" x="536.650391"/>
     </g>
    </g>
   </g>
  </g>
 </g>
 <defs>
  <clipPath id="p57d1612f2c">
   <rect x="54.691875" y="24.14175" width="902.844" height="543.6"/>
  </clipPath>
 </defs>
</svg>
