<?xml version="1.0" encoding="utf-8" standalone="no"?>
<!DOCTYPE svg PUBLIC "-//W3C//DTD SVG 1.1//EN"
  "http://www.w3.org/Graphics/SVG/1.1/DTD/svg11.dtd">
<svg xmlns:xlink="http://www.w3.org/1999/xlink" width="964.735875pt" height="633.943878pt" viewBox="0 0 964.735875 633.943878" xmlns="http://www.w3.org/2000/svg" version="1.1">
 <metadata>
  <rdf:RDF xmlns:dc="http://purl.org/dc/elements/1.1/" xmlns:cc="http://creativecommons.org/ns#" xmlns:rdf="http://www.w3.org/1999/02/22-rdf-syntax-ns#">
   <cc:Work>
    <dc:type rdf:resource="http://purl.org/dc/dcmitype/StillImage"/>
    <dc:date>2023-08-31T11:49:59.614911</dc:date>
    <dc:format>image/svg+xml</dc:format>
    <dc:creator>
     <cc:Agent>
      <dc:title>Matplotlib v3.5.1, https://matplotlib.org/</dc:title>
     </cc:Agent>
    </dc:creator>
   </cc:Work>
  </rdf:RDF>
 </metadata>
 <defs>
  <style type="text/css">*{stroke-linejoin: round; stroke-linecap: butt}</style>
 </defs>
 <g id="figure_1">
  <g id="patch_1">
   <path d="M 0 633.943878 
L 964.735875 633.943878 
L 964.735875 0 
L 0 0 
z
" style="fill: #ffffff"/>
  </g>
  <g id="axes_1">
   <g id="patch_2">
    <path d="M 54.691875 567.74175 
L 957.535875 567.74175 
L 957.535875 24.14175 
L 54.691875 24.14175 
z
" style="fill: #e5e5e5"/>
   </g>
   <g id="matplotlib.axis_1">
    <g id="xtick_1">
     <g id="line2d_1">
      <path d="M 72.394699 567.74175 
L 72.394699 24.14175 
" clip-path="url(#pab561edccc)" style="fill: none; stroke: #ffffff; stroke-width: 0.8; stroke-linecap: square"/>
     </g>
     <g id="line2d_2">
      <defs>
       <path id="m3f15732953" d="M 0 0 
L 0 3.5 
" style="stroke: #555555; stroke-width: 0.8"/>
      </defs>
      <g>
       <use xlink:href="#m3f15732953" x="72.394699" y="567.74175" style="fill: #555555; stroke: #555555; stroke-width: 0.8"/>
      </g>
     </g>
     <g id="text_1">
      <!-- 2022-09 -->
      <g style="fill: #555555" transform="translate(59.573416 609.659567)rotate(-45)scale(0.1 -0.1)">
       <defs>
        <path id="DejaVuSans-32" d="M 1228 531 
L 3431 531 
L 3431 0 
L 469 0 
L 469 531 
Q 828 903 1448 1529 
Q 2069 2156 2228 2338 
Q 2531 2678 2651 2914 
Q 2772 3150 2772 3378 
Q 2772 3750 2511 3984 
Q 2250 4219 1831 4219 
Q 1534 4219 1204 4116 
Q 875 4013 500 3803 
L 500 4441 
Q 881 4594 1212 4672 
Q 1544 4750 1819 4750 
Q 2544 4750 2975 4387 
Q 3406 4025 3406 3419 
Q 3406 3131 3298 2873 
Q 3191 2616 2906 2266 
Q 2828 2175 2409 1742 
Q 1991 1309 1228 531 
z
" transform="scale(0.015625)"/>
        <path id="DejaVuSans-30" d="M 2034 4250 
Q 1547 4250 1301 3770 
Q 1056 3291 1056 2328 
Q 1056 1369 1301 889 
Q 1547 409 2034 409 
Q 2525 409 2770 889 
Q 3016 1369 3016 2328 
Q 3016 3291 2770 3770 
Q 2525 4250 2034 4250 
z
M 2034 4750 
Q 2819 4750 3233 4129 
Q 3647 3509 3647 2328 
Q 3647 1150 3233 529 
Q 2819 -91 2034 -91 
Q 1250 -91 836 529 
Q 422 1150 422 2328 
Q 422 3509 836 4129 
Q 1250 4750 2034 4750 
z
" transform="scale(0.015625)"/>
        <path id="DejaVuSans-2d" d="M 313 2009 
L 1997 2009 
L 1997 1497 
L 313 1497 
L 313 2009 
z
" transform="scale(0.015625)"/>
        <path id="DejaVuSans-39" d="M 703 97 
L 703 672 
Q 941 559 1184 500 
Q 1428 441 1663 441 
Q 2288 441 2617 861 
Q 2947 1281 2994 2138 
Q 2813 1869 2534 1725 
Q 2256 1581 1919 1581 
Q 1219 1581 811 2004 
Q 403 2428 403 3163 
Q 403 3881 828 4315 
Q 1253 4750 1959 4750 
Q 2769 4750 3195 4129 
Q 3622 3509 3622 2328 
Q 3622 1225 3098 567 
Q 2575 -91 1691 -91 
Q 1453 -91 1209 -44 
Q 966 3 703 97 
z
M 1959 2075 
Q 2384 2075 2632 2365 
Q 2881 2656 2881 3163 
Q 2881 3666 2632 3958 
Q 2384 4250 1959 4250 
Q 1534 4250 1286 3958 
Q 1038 3666 1038 3163 
Q 1038 2656 1286 2365 
Q 1534 2075 1959 2075 
z
" transform="scale(0.015625)"/>
       </defs>
       <use xlink:href="#DejaVuSans-32"/>
       <use xlink:href="#DejaVuSans-30" x="63.623047"/>
       <use xlink:href="#DejaVuSans-32" x="127.246094"/>
       <use xlink:href="#DejaVuSans-32" x="190.869141"/>
       <use xlink:href="#DejaVuSans-2d" x="254.492188"/>
       <use xlink:href="#DejaVuSans-30" x="290.576172"/>
       <use xlink:href="#DejaVuSans-39" x="354.199219"/>
      </g>
     </g>
    </g>
    <g id="xtick_2">
     <g id="line2d_3">
      <path d="M 148.263942 567.74175 
L 148.263942 24.14175 
" clip-path="url(#pab561edccc)" style="fill: none; stroke: #ffffff; stroke-width: 0.8; stroke-linecap: square"/>
     </g>
     <g id="line2d_4">
      <g>
       <use xlink:href="#m3f15732953" x="148.263942" y="567.74175" style="fill: #555555; stroke: #555555; stroke-width: 0.8"/>
      </g>
     </g>
     <g id="text_2">
      <!-- 2022-10 -->
      <g style="fill: #555555" transform="translate(135.44266 609.659567)rotate(-45)scale(0.1 -0.1)">
       <defs>
        <path id="DejaVuSans-31" d="M 794 531 
L 1825 531 
L 1825 4091 
L 703 3866 
L 703 4441 
L 1819 4666 
L 2450 4666 
L 2450 531 
L 3481 531 
L 3481 0 
L 794 0 
L 794 531 
z
" transform="scale(0.015625)"/>
       </defs>
       <use xlink:href="#DejaVuSans-32"/>
       <use xlink:href="#DejaVuSans-30" x="63.623047"/>
       <use xlink:href="#DejaVuSans-32" x="127.246094"/>
       <use xlink:href="#DejaVuSans-32" x="190.869141"/>
       <use xlink:href="#DejaVuSans-2d" x="254.492188"/>
       <use xlink:href="#DejaVuSans-31" x="290.576172"/>
       <use xlink:href="#DejaVuSans-30" x="354.199219"/>
      </g>
     </g>
    </g>
    <g id="xtick_3">
     <g id="line2d_5">
      <path d="M 226.662161 567.74175 
L 226.662161 24.14175 
" clip-path="url(#pab561edccc)" style="fill: none; stroke: #ffffff; stroke-width: 0.8; stroke-linecap: square"/>
     </g>
     <g id="line2d_6">
      <g>
       <use xlink:href="#m3f15732953" x="226.662161" y="567.74175" style="fill: #555555; stroke: #555555; stroke-width: 0.8"/>
      </g>
     </g>
     <g id="text_3">
      <!-- 2022-11 -->
      <g style="fill: #555555" transform="translate(213.840878 609.659567)rotate(-45)scale(0.1 -0.1)">
       <use xlink:href="#DejaVuSans-32"/>
       <use xlink:href="#DejaVuSans-30" x="63.623047"/>
       <use xlink:href="#DejaVuSans-32" x="127.246094"/>
       <use xlink:href="#DejaVuSans-32" x="190.869141"/>
       <use xlink:href="#DejaVuSans-2d" x="254.492188"/>
       <use xlink:href="#DejaVuSans-31" x="290.576172"/>
       <use xlink:href="#DejaVuSans-31" x="354.199219"/>
      </g>
     </g>
    </g>
    <g id="xtick_4">
     <g id="line2d_7">
      <path d="M 302.531404 567.74175 
L 302.531404 24.14175 
" clip-path="url(#pab561edccc)" style="fill: none; stroke: #ffffff; stroke-width: 0.8; stroke-linecap: square"/>
     </g>
     <g id="line2d_8">
      <g>
       <use xlink:href="#m3f15732953" x="302.531404" y="567.74175" style="fill: #555555; stroke: #555555; stroke-width: 0.8"/>
      </g>
     </g>
     <g id="text_4">
      <!-- 2022-12 -->
      <g style="fill: #555555" transform="translate(289.710122 609.659567)rotate(-45)scale(0.1 -0.1)">
       <use xlink:href="#DejaVuSans-32"/>
       <use xlink:href="#DejaVuSans-30" x="63.623047"/>
       <use xlink:href="#DejaVuSans-32" x="127.246094"/>
       <use xlink:href="#DejaVuSans-32" x="190.869141"/>
       <use xlink:href="#DejaVuSans-2d" x="254.492188"/>
       <use xlink:href="#DejaVuSans-31" x="290.576172"/>
       <use xlink:href="#DejaVuSans-32" x="354.199219"/>
      </g>
     </g>
    </g>
    <g id="xtick_5">
     <g id="line2d_9">
      <path d="M 380.929623 567.74175 
L 380.929623 24.14175 
" clip-path="url(#pab561edccc)" style="fill: none; stroke: #ffffff; stroke-width: 0.8; stroke-linecap: square"/>
     </g>
     <g id="line2d_10">
      <g>
       <use xlink:href="#m3f15732953" x="380.929623" y="567.74175" style="fill: #555555; stroke: #555555; stroke-width: 0.8"/>
      </g>
     </g>
     <g id="text_5">
      <!-- 2023-01 -->
      <g style="fill: #555555" transform="translate(368.108341 609.659567)rotate(-45)scale(0.1 -0.1)">
       <defs>
        <path id="DejaVuSans-33" d="M 2597 2516 
Q 3050 2419 3304 2112 
Q 3559 1806 3559 1356 
Q 3559 666 3084 287 
Q 2609 -91 1734 -91 
Q 1441 -91 1130 -33 
Q 819 25 488 141 
L 488 750 
Q 750 597 1062 519 
Q 1375 441 1716 441 
Q 2309 441 2620 675 
Q 2931 909 2931 1356 
Q 2931 1769 2642 2001 
Q 2353 2234 1838 2234 
L 1294 2234 
L 1294 2753 
L 1863 2753 
Q 2328 2753 2575 2939 
Q 2822 3125 2822 3475 
Q 2822 3834 2567 4026 
Q 2313 4219 1838 4219 
Q 1578 4219 1281 4162 
Q 984 4106 628 3988 
L 628 4550 
Q 988 4650 1302 4700 
Q 1616 4750 1894 4750 
Q 2613 4750 3031 4423 
Q 3450 4097 3450 3541 
Q 3450 3153 3228 2886 
Q 3006 2619 2597 2516 
z
" transform="scale(0.015625)"/>
       </defs>
       <use xlink:href="#DejaVuSans-32"/>
       <use xlink:href="#DejaVuSans-30" x="63.623047"/>
       <use xlink:href="#DejaVuSans-32" x="127.246094"/>
       <use xlink:href="#DejaVuSans-33" x="190.869141"/>
       <use xlink:href="#DejaVuSans-2d" x="254.492188"/>
       <use xlink:href="#DejaVuSans-30" x="290.576172"/>
       <use xlink:href="#DejaVuSans-31" x="354.199219"/>
      </g>
     </g>
    </g>
    <g id="xtick_6">
     <g id="line2d_11">
      <path d="M 459.327841 567.74175 
L 459.327841 24.14175 
" clip-path="url(#pab561edccc)" style="fill: none; stroke: #ffffff; stroke-width: 0.8; stroke-linecap: square"/>
     </g>
     <g id="line2d_12">
      <g>
       <use xlink:href="#m3f15732953" x="459.327841" y="567.74175" style="fill: #555555; stroke: #555555; stroke-width: 0.8"/>
      </g>
     </g>
     <g id="text_6">
      <!-- 2023-02 -->
      <g style="fill: #555555" transform="translate(446.506559 609.659567)rotate(-45)scale(0.1 -0.1)">
       <use xlink:href="#DejaVuSans-32"/>
       <use xlink:href="#DejaVuSans-30" x="63.623047"/>
       <use xlink:href="#DejaVuSans-32" x="127.246094"/>
       <use xlink:href="#DejaVuSans-33" x="190.869141"/>
       <use xlink:href="#DejaVuSans-2d" x="254.492188"/>
       <use xlink:href="#DejaVuSans-30" x="290.576172"/>
       <use xlink:href="#DejaVuSans-32" x="354.199219"/>
      </g>
     </g>
    </g>
    <g id="xtick_7">
     <g id="line2d_13">
      <path d="M 530.139136 567.74175 
L 530.139136 24.14175 
" clip-path="url(#pab561edccc)" style="fill: none; stroke: #ffffff; stroke-width: 0.8; stroke-linecap: square"/>
     </g>
     <g id="line2d_14">
      <g>
       <use xlink:href="#m3f15732953" x="530.139136" y="567.74175" style="fill: #555555; stroke: #555555; stroke-width: 0.8"/>
      </g>
     </g>
     <g id="text_7">
      <!-- 2023-03 -->
      <g style="fill: #555555" transform="translate(517.317853 609.659567)rotate(-45)scale(0.1 -0.1)">
       <use xlink:href="#DejaVuSans-32"/>
       <use xlink:href="#DejaVuSans-30" x="63.623047"/>
       <use xlink:href="#DejaVuSans-32" x="127.246094"/>
       <use xlink:href="#DejaVuSans-33" x="190.869141"/>
       <use xlink:href="#DejaVuSans-2d" x="254.492188"/>
       <use xlink:href="#DejaVuSans-30" x="290.576172"/>
       <use xlink:href="#DejaVuSans-33" x="354.199219"/>
      </g>
     </g>
    </g>
    <g id="xtick_8">
     <g id="line2d_15">
      <path d="M 608.537354 567.74175 
L 608.537354 24.14175 
" clip-path="url(#pab561edccc)" style="fill: none; stroke: #ffffff; stroke-width: 0.8; stroke-linecap: square"/>
     </g>
     <g id="line2d_16">
      <g>
       <use xlink:href="#m3f15732953" x="608.537354" y="567.74175" style="fill: #555555; stroke: #555555; stroke-width: 0.8"/>
      </g>
     </g>
     <g id="text_8">
      <!-- 2023-04 -->
      <g style="fill: #555555" transform="translate(595.716072 609.659567)rotate(-45)scale(0.1 -0.1)">
       <defs>
        <path id="DejaVuSans-34" d="M 2419 4116 
L 825 1625 
L 2419 1625 
L 2419 4116 
z
M 2253 4666 
L 3047 4666 
L 3047 1625 
L 3713 1625 
L 3713 1100 
L 3047 1100 
L 3047 0 
L 2419 0 
L 2419 1100 
L 313 1100 
L 313 1709 
L 2253 4666 
z
" transform="scale(0.015625)"/>
       </defs>
       <use xlink:href="#DejaVuSans-32"/>
       <use xlink:href="#DejaVuSans-30" x="63.623047"/>
       <use xlink:href="#DejaVuSans-32" x="127.246094"/>
       <use xlink:href="#DejaVuSans-33" x="190.869141"/>
       <use xlink:href="#DejaVuSans-2d" x="254.492188"/>
       <use xlink:href="#DejaVuSans-30" x="290.576172"/>
       <use xlink:href="#DejaVuSans-34" x="354.199219"/>
      </g>
     </g>
    </g>
    <g id="xtick_9">
     <g id="line2d_17">
      <path d="M 684.406598 567.74175 
L 684.406598 24.14175 
" clip-path="url(#pab561edccc)" style="fill: none; stroke: #ffffff; stroke-width: 0.8; stroke-linecap: square"/>
     </g>
     <g id="line2d_18">
      <g>
       <use xlink:href="#m3f15732953" x="684.406598" y="567.74175" style="fill: #555555; stroke: #555555; stroke-width: 0.8"/>
      </g>
     </g>
     <g id="text_9">
      <!-- 2023-05 -->
      <g style="fill: #555555" transform="translate(671.585315 609.659567)rotate(-45)scale(0.1 -0.1)">
       <defs>
        <path id="DejaVuSans-35" d="M 691 4666 
L 3169 4666 
L 3169 4134 
L 1269 4134 
L 1269 2991 
Q 1406 3038 1543 3061 
Q 1681 3084 1819 3084 
Q 2600 3084 3056 2656 
Q 3513 2228 3513 1497 
Q 3513 744 3044 326 
Q 2575 -91 1722 -91 
Q 1428 -91 1123 -41 
Q 819 9 494 109 
L 494 744 
Q 775 591 1075 516 
Q 1375 441 1709 441 
Q 2250 441 2565 725 
Q 2881 1009 2881 1497 
Q 2881 1984 2565 2268 
Q 2250 2553 1709 2553 
Q 1456 2553 1204 2497 
Q 953 2441 691 2322 
L 691 4666 
z
" transform="scale(0.015625)"/>
       </defs>
       <use xlink:href="#DejaVuSans-32"/>
       <use xlink:href="#DejaVuSans-30" x="63.623047"/>
       <use xlink:href="#DejaVuSans-32" x="127.246094"/>
       <use xlink:href="#DejaVuSans-33" x="190.869141"/>
       <use xlink:href="#DejaVuSans-2d" x="254.492188"/>
       <use xlink:href="#DejaVuSans-30" x="290.576172"/>
       <use xlink:href="#DejaVuSans-35" x="354.199219"/>
      </g>
     </g>
    </g>
    <g id="xtick_10">
     <g id="line2d_19">
      <path d="M 762.804816 567.74175 
L 762.804816 24.14175 
" clip-path="url(#pab561edccc)" style="fill: none; stroke: #ffffff; stroke-width: 0.8; stroke-linecap: square"/>
     </g>
     <g id="line2d_20">
      <g>
       <use xlink:href="#m3f15732953" x="762.804816" y="567.74175" style="fill: #555555; stroke: #555555; stroke-width: 0.8"/>
      </g>
     </g>
     <g id="text_10">
      <!-- 2023-06 -->
      <g style="fill: #555555" transform="translate(749.983534 609.659567)rotate(-45)scale(0.1 -0.1)">
       <defs>
        <path id="DejaVuSans-36" d="M 2113 2584 
Q 1688 2584 1439 2293 
Q 1191 2003 1191 1497 
Q 1191 994 1439 701 
Q 1688 409 2113 409 
Q 2538 409 2786 701 
Q 3034 994 3034 1497 
Q 3034 2003 2786 2293 
Q 2538 2584 2113 2584 
z
M 3366 4563 
L 3366 3988 
Q 3128 4100 2886 4159 
Q 2644 4219 2406 4219 
Q 1781 4219 1451 3797 
Q 1122 3375 1075 2522 
Q 1259 2794 1537 2939 
Q 1816 3084 2150 3084 
Q 2853 3084 3261 2657 
Q 3669 2231 3669 1497 
Q 3669 778 3244 343 
Q 2819 -91 2113 -91 
Q 1303 -91 875 529 
Q 447 1150 447 2328 
Q 447 3434 972 4092 
Q 1497 4750 2381 4750 
Q 2619 4750 2861 4703 
Q 3103 4656 3366 4563 
z
" transform="scale(0.015625)"/>
       </defs>
       <use xlink:href="#DejaVuSans-32"/>
       <use xlink:href="#DejaVuSans-30" x="63.623047"/>
       <use xlink:href="#DejaVuSans-32" x="127.246094"/>
       <use xlink:href="#DejaVuSans-33" x="190.869141"/>
       <use xlink:href="#DejaVuSans-2d" x="254.492188"/>
       <use xlink:href="#DejaVuSans-30" x="290.576172"/>
       <use xlink:href="#DejaVuSans-36" x="354.199219"/>
      </g>
     </g>
    </g>
    <g id="xtick_11">
     <g id="line2d_21">
      <path d="M 838.67406 567.74175 
L 838.67406 24.14175 
" clip-path="url(#pab561edccc)" style="fill: none; stroke: #ffffff; stroke-width: 0.8; stroke-linecap: square"/>
     </g>
     <g id="line2d_22">
      <g>
       <use xlink:href="#m3f15732953" x="838.67406" y="567.74175" style="fill: #555555; stroke: #555555; stroke-width: 0.8"/>
      </g>
     </g>
     <g id="text_11">
      <!-- 2023-07 -->
      <g style="fill: #555555" transform="translate(825.852778 609.659567)rotate(-45)scale(0.1 -0.1)">
       <defs>
        <path id="DejaVuSans-37" d="M 525 4666 
L 3525 4666 
L 3525 4397 
L 1831 0 
L 1172 0 
L 2766 4134 
L 525 4134 
L 525 4666 
z
" transform="scale(0.015625)"/>
       </defs>
       <use xlink:href="#DejaVuSans-32"/>
       <use xlink:href="#DejaVuSans-30" x="63.623047"/>
       <use xlink:href="#DejaVuSans-32" x="127.246094"/>
       <use xlink:href="#DejaVuSans-33" x="190.869141"/>
       <use xlink:href="#DejaVuSans-2d" x="254.492188"/>
       <use xlink:href="#DejaVuSans-30" x="290.576172"/>
       <use xlink:href="#DejaVuSans-37" x="354.199219"/>
      </g>
     </g>
    </g>
    <g id="xtick_12">
     <g id="line2d_23">
      <path d="M 917.072278 567.74175 
L 917.072278 24.14175 
" clip-path="url(#pab561edccc)" style="fill: none; stroke: #ffffff; stroke-width: 0.8; stroke-linecap: square"/>
     </g>
     <g id="line2d_24">
      <g>
       <use xlink:href="#m3f15732953" x="917.072278" y="567.74175" style="fill: #555555; stroke: #555555; stroke-width: 0.8"/>
      </g>
     </g>
     <g id="text_12">
      <!-- 2023-08 -->
      <g style="fill: #555555" transform="translate(904.250996 609.659567)rotate(-45)scale(0.1 -0.1)">
       <defs>
        <path id="DejaVuSans-38" d="M 2034 2216 
Q 1584 2216 1326 1975 
Q 1069 1734 1069 1313 
Q 1069 891 1326 650 
Q 1584 409 2034 409 
Q 2484 409 2743 651 
Q 3003 894 3003 1313 
Q 3003 1734 2745 1975 
Q 2488 2216 2034 2216 
z
M 1403 2484 
Q 997 2584 770 2862 
Q 544 3141 544 3541 
Q 544 4100 942 4425 
Q 1341 4750 2034 4750 
Q 2731 4750 3128 4425 
Q 3525 4100 3525 3541 
Q 3525 3141 3298 2862 
Q 3072 2584 2669 2484 
Q 3125 2378 3379 2068 
Q 3634 1759 3634 1313 
Q 3634 634 3220 271 
Q 2806 -91 2034 -91 
Q 1263 -91 848 271 
Q 434 634 434 1313 
Q 434 1759 690 2068 
Q 947 2378 1403 2484 
z
M 1172 3481 
Q 1172 3119 1398 2916 
Q 1625 2713 2034 2713 
Q 2441 2713 2670 2916 
Q 2900 3119 2900 3481 
Q 2900 3844 2670 4047 
Q 2441 4250 2034 4250 
Q 1625 4250 1398 4047 
Q 1172 3844 1172 3481 
z
" transform="scale(0.015625)"/>
       </defs>
       <use xlink:href="#DejaVuSans-32"/>
       <use xlink:href="#DejaVuSans-30" x="63.623047"/>
       <use xlink:href="#DejaVuSans-32" x="127.246094"/>
       <use xlink:href="#DejaVuSans-33" x="190.869141"/>
       <use xlink:href="#DejaVuSans-2d" x="254.492188"/>
       <use xlink:href="#DejaVuSans-30" x="290.576172"/>
       <use xlink:href="#DejaVuSans-38" x="354.199219"/>
      </g>
     </g>
    </g>
    <g id="text_13">
     <!-- Date -->
     <g style="fill: #555555" transform="translate(491.772938 624.248253)scale(0.12 -0.12)">
      <defs>
       <path id="DejaVuSans-44" d="M 1259 4147 
L 1259 519 
L 2022 519 
Q 2988 519 3436 956 
Q 3884 1394 3884 2338 
Q 3884 3275 3436 3711 
Q 2988 4147 2022 4147 
L 1259 4147 
z
M 628 4666 
L 1925 4666 
Q 3281 4666 3915 4102 
Q 4550 3538 4550 2338 
Q 4550 1131 3912 565 
Q 3275 0 1925 0 
L 628 0 
L 628 4666 
z
" transform="scale(0.015625)"/>
       <path id="DejaVuSans-61" d="M 2194 1759 
Q 1497 1759 1228 1600 
Q 959 1441 959 1056 
Q 959 750 1161 570 
Q 1363 391 1709 391 
Q 2188 391 2477 730 
Q 2766 1069 2766 1631 
L 2766 1759 
L 2194 1759 
z
M 3341 1997 
L 3341 0 
L 2766 0 
L 2766 531 
Q 2569 213 2275 61 
Q 1981 -91 1556 -91 
Q 1019 -91 701 211 
Q 384 513 384 1019 
Q 384 1609 779 1909 
Q 1175 2209 1959 2209 
L 2766 2209 
L 2766 2266 
Q 2766 2663 2505 2880 
Q 2244 3097 1772 3097 
Q 1472 3097 1187 3025 
Q 903 2953 641 2809 
L 641 3341 
Q 956 3463 1253 3523 
Q 1550 3584 1831 3584 
Q 2591 3584 2966 3190 
Q 3341 2797 3341 1997 
z
" transform="scale(0.015625)"/>
       <path id="DejaVuSans-74" d="M 1172 4494 
L 1172 3500 
L 2356 3500 
L 2356 3053 
L 1172 3053 
L 1172 1153 
Q 1172 725 1289 603 
Q 1406 481 1766 481 
L 2356 481 
L 2356 0 
L 1766 0 
Q 1100 0 847 248 
Q 594 497 594 1153 
L 594 3053 
L 172 3053 
L 172 3500 
L 594 3500 
L 594 4494 
L 1172 4494 
z
" transform="scale(0.015625)"/>
       <path id="DejaVuSans-65" d="M 3597 1894 
L 3597 1613 
L 953 1613 
Q 991 1019 1311 708 
Q 1631 397 2203 397 
Q 2534 397 2845 478 
Q 3156 559 3463 722 
L 3463 178 
Q 3153 47 2828 -22 
Q 2503 -91 2169 -91 
Q 1331 -91 842 396 
Q 353 884 353 1716 
Q 353 2575 817 3079 
Q 1281 3584 2069 3584 
Q 2775 3584 3186 3129 
Q 3597 2675 3597 1894 
z
M 3022 2063 
Q 3016 2534 2758 2815 
Q 2500 3097 2075 3097 
Q 1594 3097 1305 2825 
Q 1016 2553 972 2059 
L 3022 2063 
z
" transform="scale(0.015625)"/>
      </defs>
      <use xlink:href="#DejaVuSans-44"/>
      <use xlink:href="#DejaVuSans-61" x="77.001953"/>
      <use xlink:href="#DejaVuSans-74" x="138.28125"/>
      <use xlink:href="#DejaVuSans-65" x="177.490234"/>
     </g>
    </g>
   </g>
   <g id="matplotlib.axis_2">
    <g id="ytick_1">
     <g id="line2d_25">
      <path d="M 54.691875 567.74175 
L 957.535875 567.74175 
" clip-path="url(#pab561edccc)" style="fill: none; stroke: #ffffff; stroke-width: 0.8; stroke-linecap: square"/>
     </g>
     <g id="line2d_26">
      <defs>
       <path id="m6ddba5daf6" d="M 0 0 
L -3.5 0 
" style="stroke: #555555; stroke-width: 0.8"/>
      </defs>
      <g>
       <use xlink:href="#m6ddba5daf6" x="54.691875" y="567.74175" style="fill: #555555; stroke: #555555; stroke-width: 0.8"/>
      </g>
     </g>
     <g id="text_14">
      <!-- 0k -->
      <g style="fill: #555555" transform="translate(35.53875 571.540969)scale(0.1 -0.1)">
       <defs>
        <path id="DejaVuSans-6b" d="M 581 4863 
L 1159 4863 
L 1159 1991 
L 2875 3500 
L 3609 3500 
L 1753 1863 
L 3688 0 
L 2938 0 
L 1159 1709 
L 1159 0 
L 581 0 
L 581 4863 
z
" transform="scale(0.015625)"/>
       </defs>
       <use xlink:href="#DejaVuSans-30"/>
       <use xlink:href="#DejaVuSans-6b" x="63.623047"/>
      </g>
     </g>
    </g>
    <g id="ytick_2">
     <g id="line2d_27">
      <path d="M 54.691875 504.306071 
L 957.535875 504.306071 
" clip-path="url(#pab561edccc)" style="fill: none; stroke: #ffffff; stroke-width: 0.8; stroke-linecap: square"/>
     </g>
     <g id="line2d_28">
      <g>
       <use xlink:href="#m6ddba5daf6" x="54.691875" y="504.306071" style="fill: #555555; stroke: #555555; stroke-width: 0.8"/>
      </g>
     </g>
     <g id="text_15">
      <!-- 20k -->
      <g style="fill: #555555" transform="translate(29.17625 508.10529)scale(0.1 -0.1)">
       <use xlink:href="#DejaVuSans-32"/>
       <use xlink:href="#DejaVuSans-30" x="63.623047"/>
       <use xlink:href="#DejaVuSans-6b" x="127.246094"/>
      </g>
     </g>
    </g>
    <g id="ytick_3">
     <g id="line2d_29">
      <path d="M 54.691875 440.870392 
L 957.535875 440.870392 
" clip-path="url(#pab561edccc)" style="fill: none; stroke: #ffffff; stroke-width: 0.8; stroke-linecap: square"/>
     </g>
     <g id="line2d_30">
      <g>
       <use xlink:href="#m6ddba5daf6" x="54.691875" y="440.870392" style="fill: #555555; stroke: #555555; stroke-width: 0.8"/>
      </g>
     </g>
     <g id="text_16">
      <!-- 40k -->
      <g style="fill: #555555" transform="translate(29.17625 444.66961)scale(0.1 -0.1)">
       <use xlink:href="#DejaVuSans-34"/>
       <use xlink:href="#DejaVuSans-30" x="63.623047"/>
       <use xlink:href="#DejaVuSans-6b" x="127.246094"/>
      </g>
     </g>
    </g>
    <g id="ytick_4">
     <g id="line2d_31">
      <path d="M 54.691875 377.434712 
L 957.535875 377.434712 
" clip-path="url(#pab561edccc)" style="fill: none; stroke: #ffffff; stroke-width: 0.8; stroke-linecap: square"/>
     </g>
     <g id="line2d_32">
      <g>
       <use xlink:href="#m6ddba5daf6" x="54.691875" y="377.434712" style="fill: #555555; stroke: #555555; stroke-width: 0.8"/>
      </g>
     </g>
     <g id="text_17">
      <!-- 60k -->
      <g style="fill: #555555" transform="translate(29.17625 381.233931)scale(0.1 -0.1)">
       <use xlink:href="#DejaVuSans-36"/>
       <use xlink:href="#DejaVuSans-30" x="63.623047"/>
       <use xlink:href="#DejaVuSans-6b" x="127.246094"/>
      </g>
     </g>
    </g>
    <g id="ytick_5">
     <g id="line2d_33">
      <path d="M 54.691875 313.999033 
L 957.535875 313.999033 
" clip-path="url(#pab561edccc)" style="fill: none; stroke: #ffffff; stroke-width: 0.8; stroke-linecap: square"/>
     </g>
     <g id="line2d_34">
      <g>
       <use xlink:href="#m6ddba5daf6" x="54.691875" y="313.999033" style="fill: #555555; stroke: #555555; stroke-width: 0.8"/>
      </g>
     </g>
     <g id="text_18">
      <!-- 80k -->
      <g style="fill: #555555" transform="translate(29.17625 317.798252)scale(0.1 -0.1)">
       <use xlink:href="#DejaVuSans-38"/>
       <use xlink:href="#DejaVuSans-30" x="63.623047"/>
       <use xlink:href="#DejaVuSans-6b" x="127.246094"/>
      </g>
     </g>
    </g>
    <g id="ytick_6">
     <g id="line2d_35">
      <path d="M 54.691875 250.563354 
L 957.535875 250.563354 
" clip-path="url(#pab561edccc)" style="fill: none; stroke: #ffffff; stroke-width: 0.8; stroke-linecap: square"/>
     </g>
     <g id="line2d_36">
      <g>
       <use xlink:href="#m6ddba5daf6" x="54.691875" y="250.563354" style="fill: #555555; stroke: #555555; stroke-width: 0.8"/>
      </g>
     </g>
     <g id="text_19">
      <!-- 100k -->
      <g style="fill: #555555" transform="translate(22.81375 254.362573)scale(0.1 -0.1)">
       <use xlink:href="#DejaVuSans-31"/>
       <use xlink:href="#DejaVuSans-30" x="63.623047"/>
       <use xlink:href="#DejaVuSans-30" x="127.246094"/>
       <use xlink:href="#DejaVuSans-6b" x="190.869141"/>
      </g>
     </g>
    </g>
    <g id="ytick_7">
     <g id="line2d_37">
      <path d="M 54.691875 187.127675 
L 957.535875 187.127675 
" clip-path="url(#pab561edccc)" style="fill: none; stroke: #ffffff; stroke-width: 0.8; stroke-linecap: square"/>
     </g>
     <g id="line2d_38">
      <g>
       <use xlink:href="#m6ddba5daf6" x="54.691875" y="187.127675" style="fill: #555555; stroke: #555555; stroke-width: 0.8"/>
      </g>
     </g>
     <g id="text_20">
      <!-- 120k -->
      <g style="fill: #555555" transform="translate(22.81375 190.926894)scale(0.1 -0.1)">
       <use xlink:href="#DejaVuSans-31"/>
       <use xlink:href="#DejaVuSans-32" x="63.623047"/>
       <use xlink:href="#DejaVuSans-30" x="127.246094"/>
       <use xlink:href="#DejaVuSans-6b" x="190.869141"/>
      </g>
     </g>
    </g>
    <g id="ytick_8">
     <g id="line2d_39">
      <path d="M 54.691875 123.691996 
L 957.535875 123.691996 
" clip-path="url(#pab561edccc)" style="fill: none; stroke: #ffffff; stroke-width: 0.8; stroke-linecap: square"/>
     </g>
     <g id="line2d_40">
      <g>
       <use xlink:href="#m6ddba5daf6" x="54.691875" y="123.691996" style="fill: #555555; stroke: #555555; stroke-width: 0.8"/>
      </g>
     </g>
     <g id="text_21">
      <!-- 140k -->
      <g style="fill: #555555" transform="translate(22.81375 127.491214)scale(0.1 -0.1)">
       <use xlink:href="#DejaVuSans-31"/>
       <use xlink:href="#DejaVuSans-34" x="63.623047"/>
       <use xlink:href="#DejaVuSans-30" x="127.246094"/>
       <use xlink:href="#DejaVuSans-6b" x="190.869141"/>
      </g>
     </g>
    </g>
    <g id="ytick_9">
     <g id="line2d_41">
      <path d="M 54.691875 60.256317 
L 957.535875 60.256317 
" clip-path="url(#pab561edccc)" style="fill: none; stroke: #ffffff; stroke-width: 0.8; stroke-linecap: square"/>
     </g>
     <g id="line2d_42">
      <g>
       <use xlink:href="#m6ddba5daf6" x="54.691875" y="60.256317" style="fill: #555555; stroke: #555555; stroke-width: 0.8"/>
      </g>
     </g>
     <g id="text_22">
      <!-- 160k -->
      <g style="fill: #555555" transform="translate(22.81375 64.055535)scale(0.1 -0.1)">
       <use xlink:href="#DejaVuSans-31"/>
       <use xlink:href="#DejaVuSans-36" x="63.623047"/>
       <use xlink:href="#DejaVuSans-30" x="127.246094"/>
       <use xlink:href="#DejaVuSans-6b" x="190.869141"/>
      </g>
     </g>
    </g>
    <g id="text_23">
     <!-- Instances -->
     <g style="fill: #555555" transform="translate(16.318125 324.588)rotate(-90)scale(0.12 -0.12)">
      <defs>
       <path id="DejaVuSans-49" d="M 628 4666 
L 1259 4666 
L 1259 0 
L 628 0 
L 628 4666 
z
" transform="scale(0.015625)"/>
       <path id="DejaVuSans-6e" d="M 3513 2113 
L 3513 0 
L 2938 0 
L 2938 2094 
Q 2938 2591 2744 2837 
Q 2550 3084 2163 3084 
Q 1697 3084 1428 2787 
Q 1159 2491 1159 1978 
L 1159 0 
L 581 0 
L 581 3500 
L 1159 3500 
L 1159 2956 
Q 1366 3272 1645 3428 
Q 1925 3584 2291 3584 
Q 2894 3584 3203 3211 
Q 3513 2838 3513 2113 
z
" transform="scale(0.015625)"/>
       <path id="DejaVuSans-73" d="M 2834 3397 
L 2834 2853 
Q 2591 2978 2328 3040 
Q 2066 3103 1784 3103 
Q 1356 3103 1142 2972 
Q 928 2841 928 2578 
Q 928 2378 1081 2264 
Q 1234 2150 1697 2047 
L 1894 2003 
Q 2506 1872 2764 1633 
Q 3022 1394 3022 966 
Q 3022 478 2636 193 
Q 2250 -91 1575 -91 
Q 1294 -91 989 -36 
Q 684 19 347 128 
L 347 722 
Q 666 556 975 473 
Q 1284 391 1588 391 
Q 1994 391 2212 530 
Q 2431 669 2431 922 
Q 2431 1156 2273 1281 
Q 2116 1406 1581 1522 
L 1381 1569 
Q 847 1681 609 1914 
Q 372 2147 372 2553 
Q 372 3047 722 3315 
Q 1072 3584 1716 3584 
Q 2034 3584 2315 3537 
Q 2597 3491 2834 3397 
z
" transform="scale(0.015625)"/>
       <path id="DejaVuSans-63" d="M 3122 3366 
L 3122 2828 
Q 2878 2963 2633 3030 
Q 2388 3097 2138 3097 
Q 1578 3097 1268 2742 
Q 959 2388 959 1747 
Q 959 1106 1268 751 
Q 1578 397 2138 397 
Q 2388 397 2633 464 
Q 2878 531 3122 666 
L 3122 134 
Q 2881 22 2623 -34 
Q 2366 -91 2075 -91 
Q 1284 -91 818 406 
Q 353 903 353 1747 
Q 353 2603 823 3093 
Q 1294 3584 2113 3584 
Q 2378 3584 2631 3529 
Q 2884 3475 3122 3366 
z
" transform="scale(0.015625)"/>
      </defs>
      <use xlink:href="#DejaVuSans-49"/>
      <use xlink:href="#DejaVuSans-6e" x="29.492188"/>
      <use xlink:href="#DejaVuSans-73" x="92.871094"/>
      <use xlink:href="#DejaVuSans-74" x="144.970703"/>
      <use xlink:href="#DejaVuSans-61" x="184.179688"/>
      <use xlink:href="#DejaVuSans-6e" x="245.458984"/>
      <use xlink:href="#DejaVuSans-63" x="308.837891"/>
      <use xlink:href="#DejaVuSans-65" x="363.818359"/>
      <use xlink:href="#DejaVuSans-73" x="425.341797"/>
     </g>
    </g>
   </g>
   <g id="line2d_43">
    <path d="M 54.691875 473.607184 
L 63.811511 472.452225 
L 72.931148 471.297265 
L 82.050784 470.142305 
L 91.17042 468.987346 
L 100.290057 467.832386 
L 109.409693 466.677426 
L 118.52933 465.522466 
L 127.648966 464.367507 
L 136.768602 463.212547 
L 145.888239 462.057587 
L 155.007875 460.902628 
L 164.127511 459.747668 
L 173.247148 458.592708 
L 182.366784 457.437748 
L 191.48642 456.282789 
L 200.606057 455.127829 
L 209.725693 453.972869 
L 218.84533 452.81791 
L 227.964966 451.66295 
L 237.084602 450.50799 
L 246.204239 449.35303 
L 255.323875 448.198071 
L 264.443511 447.043111 
L 273.563148 445.888151 
L 282.682784 444.733192 
L 291.80242 443.578232 
L 300.922057 442.423272 
L 310.041693 441.268312 
L 319.16133 440.113353 
L 328.280966 438.958393 
L 337.400602 437.803433 
L 346.520239 436.648474 
L 355.639875 435.493514 
L 364.759511 434.338554 
L 373.879148 433.183595 
L 382.998784 432.028635 
L 392.11842 430.873675 
L 401.238057 429.718715 
L 410.357693 428.563756 
L 419.47733 427.408796 
L 428.596966 426.253836 
L 437.716602 425.098877 
L 446.836239 423.943917 
L 455.955875 422.788957 
L 465.075511 421.633997 
L 474.195148 420.479038 
L 483.314784 419.324078 
L 492.43442 418.169118 
L 501.554057 417.014159 
L 510.673693 415.859199 
L 519.79333 414.704239 
L 528.912966 413.549279 
L 538.032602 412.39432 
L 547.152239 411.23936 
L 556.271875 410.0844 
L 565.391511 408.929441 
L 574.511148 407.774481 
L 583.630784 406.619521 
L 592.75042 405.464561 
L 601.870057 404.309602 
L 610.989693 403.154642 
L 620.10933 401.999682 
L 629.228966 400.844723 
L 638.348602 399.689763 
L 647.468239 398.534803 
L 656.587875 397.379844 
L 665.707511 396.224884 
L 674.827148 395.069924 
L 683.946784 393.914964 
L 693.06642 392.760005 
L 702.186057 391.605045 
L 711.305693 390.450085 
L 720.42533 389.295126 
L 729.544966 388.140166 
L 738.664602 386.985206 
L 747.784239 385.830246 
L 756.903875 384.675287 
L 766.023511 383.520327 
L 775.143148 382.365367 
L 784.262784 381.210408 
L 793.38242 380.055448 
L 802.502057 378.900488 
L 811.621693 377.745528 
L 820.74133 376.590569 
L 829.860966 375.435609 
L 838.980602 374.280649 
L 848.100239 373.12569 
L 857.219875 371.97073 
L 866.339511 370.81577 
L 875.459148 369.66081 
L 884.578784 368.505851 
L 893.69842 367.350891 
L 902.818057 366.195931 
L 911.937693 365.040972 
L 921.05733 363.886012 
L 930.176966 362.731052 
L 939.296602 361.576093 
L 948.416239 360.421133 
L 957.535875 359.266173 
" clip-path="url(#pab561edccc)" style="fill: none; stroke-dasharray: 1.5,2.475; stroke-dashoffset: 0; stroke: #4ac1fa; stroke-width: 1.5"/>
   </g>
   <g id="line2d_44">
    <path d="M 54.691875 410.307023 
L 63.811511 409.945812 
L 72.931148 409.584601 
L 82.050784 409.22339 
L 91.17042 408.862179 
L 100.290057 408.500968 
L 109.409693 408.139757 
L 118.52933 407.778546 
L 127.648966 407.417335 
L 136.768602 407.056124 
L 145.888239 406.694913 
L 155.007875 406.333702 
L 164.127511 405.972492 
L 173.247148 405.611281 
L 182.366784 405.25007 
L 191.48642 404.888859 
L 200.606057 404.527648 
L 209.725693 404.166437 
L 218.84533 403.805226 
L 227.964966 403.444015 
L 237.084602 403.082804 
L 246.204239 402.721593 
L 255.323875 402.360382 
L 264.443511 401.999171 
L 273.563148 401.63796 
L 282.682784 401.276749 
L 291.80242 400.915538 
L 300.922057 400.554327 
L 310.041693 400.193116 
L 319.16133 399.831905 
L 328.280966 399.470694 
L 337.400602 399.109483 
L 346.520239 398.748272 
L 355.639875 398.387061 
L 364.759511 398.02585 
L 373.879148 397.664639 
L 382.998784 397.303428 
L 392.11842 396.942217 
L 401.238057 396.581006 
L 410.357693 396.219795 
L 419.47733 395.858584 
L 428.596966 395.497374 
L 437.716602 395.136163 
L 446.836239 394.774952 
L 455.955875 394.413741 
L 465.075511 394.05253 
L 474.195148 393.691319 
L 483.314784 393.330108 
L 492.43442 392.968897 
L 501.554057 392.607686 
L 510.673693 392.246475 
L 519.79333 391.885264 
L 528.912966 391.524053 
L 538.032602 391.162842 
L 547.152239 390.801631 
L 556.271875 390.44042 
L 565.391511 390.079209 
L 574.511148 389.717998 
L 583.630784 389.356787 
L 592.75042 388.995576 
L 601.870057 388.634365 
L 610.989693 388.273154 
L 620.10933 387.911943 
L 629.228966 387.550732 
L 638.348602 387.189521 
L 647.468239 386.82831 
L 656.587875 386.467099 
L 665.707511 386.105888 
L 674.827148 385.744677 
L 683.946784 385.383466 
L 693.06642 385.022256 
L 702.186057 384.661045 
L 711.305693 384.299834 
L 720.42533 383.938623 
L 729.544966 383.577412 
L 738.664602 383.216201 
L 747.784239 382.85499 
L 756.903875 382.493779 
L 766.023511 382.132568 
L 775.143148 381.771357 
L 784.262784 381.410146 
L 793.38242 381.048935 
L 802.502057 380.687724 
L 811.621693 380.326513 
L 820.74133 379.965302 
L 829.860966 379.604091 
L 838.980602 379.24288 
L 848.100239 378.881669 
L 857.219875 378.520458 
L 866.339511 378.159247 
L 875.459148 377.798036 
L 884.578784 377.436825 
L 893.69842 377.075614 
L 902.818057 376.714403 
L 911.937693 376.353192 
L 921.05733 375.991981 
L 930.176966 375.63077 
L 939.296602 375.269559 
L 948.416239 374.908348 
L 957.535875 374.547138 
" clip-path="url(#pab561edccc)" style="fill: none; stroke-dasharray: 1.5,2.475; stroke-dashoffset: 0; stroke: #9a5689; stroke-width: 1.5"/>
   </g>
   <g id="line2d_45">
    <path d="M 54.691875 526.298627 
L 63.811511 525.594135 
L 72.931148 524.889643 
L 82.050784 524.185151 
L 91.17042 523.480659 
L 100.290057 522.776167 
L 109.409693 522.071675 
L 118.52933 521.367183 
L 127.648966 520.662691 
L 136.768602 519.958198 
L 145.888239 519.253706 
L 155.007875 518.549214 
L 164.127511 517.844722 
L 173.247148 517.14023 
L 182.366784 516.435738 
L 191.48642 515.731246 
L 200.606057 515.026754 
L 209.725693 514.322262 
L 218.84533 513.61777 
L 227.964966 512.913278 
L 237.084602 512.208786 
L 246.204239 511.504294 
L 255.323875 510.799801 
L 264.443511 510.095309 
L 273.563148 509.390817 
L 282.682784 508.686325 
L 291.80242 507.981833 
L 300.922057 507.277341 
L 310.041693 506.572849 
L 319.16133 505.868357 
L 328.280966 505.163865 
L 337.400602 504.459373 
L 346.520239 503.754881 
L 355.639875 503.050389 
L 364.759511 502.345897 
L 373.879148 501.641404 
L 382.998784 500.936912 
L 392.11842 500.23242 
L 401.238057 499.527928 
L 410.357693 498.823436 
L 419.47733 498.118944 
L 428.596966 497.414452 
L 437.716602 496.70996 
L 446.836239 496.005468 
L 455.955875 495.300976 
L 465.075511 494.596484 
L 474.195148 493.891992 
L 483.314784 493.187499 
L 492.43442 492.483007 
L 501.554057 491.778515 
L 510.673693 491.074023 
L 519.79333 490.369531 
L 528.912966 489.665039 
L 538.032602 488.960547 
L 547.152239 488.256055 
L 556.271875 487.551563 
L 565.391511 486.847071 
L 574.511148 486.142579 
L 583.630784 485.438087 
L 592.75042 484.733595 
L 601.870057 484.029102 
L 610.989693 483.32461 
L 620.10933 482.620118 
L 629.228966 481.915626 
L 638.348602 481.211134 
L 647.468239 480.506642 
L 656.587875 479.80215 
L 665.707511 479.097658 
L 674.827148 478.393166 
L 683.946784 477.688674 
L 693.06642 476.984182 
L 702.186057 476.27969 
L 711.305693 475.575198 
L 720.42533 474.870705 
L 729.544966 474.166213 
L 738.664602 473.461721 
L 747.784239 472.757229 
L 756.903875 472.052737 
L 766.023511 471.348245 
L 775.143148 470.643753 
L 784.262784 469.939261 
L 793.38242 469.234769 
L 802.502057 468.530277 
L 811.621693 467.825785 
L 820.74133 467.121293 
L 829.860966 466.416801 
L 838.980602 465.712308 
L 848.100239 465.007816 
L 857.219875 464.303324 
L 866.339511 463.598832 
L 875.459148 462.89434 
L 884.578784 462.189848 
L 893.69842 461.485356 
L 902.818057 460.780864 
L 911.937693 460.076372 
L 921.05733 459.37188 
L 930.176966 458.667388 
L 939.296602 457.962896 
L 948.416239 457.258404 
L 957.535875 456.553911 
" clip-path="url(#pab561edccc)" style="fill: none; stroke-dasharray: 1.5,2.475; stroke-dashoffset: 0; stroke: #be503b; stroke-width: 1.5"/>
   </g>
   <g id="line2d_46">
    <path d="M 54.691875 385.286973 
L 63.811511 384.278879 
L 72.931148 383.270786 
L 82.050784 382.262693 
L 91.17042 381.254599 
L 100.290057 380.246506 
L 109.409693 379.238413 
L 118.52933 378.230319 
L 127.648966 377.222226 
L 136.768602 376.214132 
L 145.888239 375.206039 
L 155.007875 374.197946 
L 164.127511 373.189852 
L 173.247148 372.181759 
L 182.366784 371.173665 
L 191.48642 370.165572 
L 200.606057 369.157479 
L 209.725693 368.149385 
L 218.84533 367.141292 
L 227.964966 366.133199 
L 237.084602 365.125105 
L 246.204239 364.117012 
L 255.323875 363.108918 
L 264.443511 362.100825 
L 273.563148 361.092732 
L 282.682784 360.084638 
L 291.80242 359.076545 
L 300.922057 358.068452 
L 310.041693 357.060358 
L 319.16133 356.052265 
L 328.280966 355.044171 
L 337.400602 354.036078 
L 346.520239 353.027985 
L 355.639875 352.019891 
L 364.759511 351.011798 
L 373.879148 350.003704 
L 382.998784 348.995611 
L 392.11842 347.987518 
L 401.238057 346.979424 
L 410.357693 345.971331 
L 419.47733 344.963238 
L 428.596966 343.955144 
L 437.716602 342.947051 
L 446.836239 341.938957 
L 455.955875 340.930864 
L 465.075511 339.922771 
L 474.195148 338.914677 
L 483.314784 337.906584 
L 492.43442 336.898491 
L 501.554057 335.890397 
L 510.673693 334.882304 
L 519.79333 333.87421 
L 528.912966 332.866117 
L 538.032602 331.858024 
L 547.152239 330.84993 
L 556.271875 329.841837 
L 565.391511 328.833744 
L 574.511148 327.82565 
L 583.630784 326.817557 
L 592.75042 325.809463 
L 601.870057 324.80137 
L 610.989693 323.793277 
L 620.10933 322.785183 
L 629.228966 321.77709 
L 638.348602 320.768996 
L 647.468239 319.760903 
L 656.587875 318.75281 
L 665.707511 317.744716 
L 674.827148 316.736623 
L 683.946784 315.72853 
L 693.06642 314.720436 
L 702.186057 313.712343 
L 711.305693 312.704249 
L 720.42533 311.696156 
L 729.544966 310.688063 
L 738.664602 309.679969 
L 747.784239 308.671876 
L 756.903875 307.663783 
L 766.023511 306.655689 
L 775.143148 305.647596 
L 784.262784 304.639502 
L 793.38242 303.631409 
L 802.502057 302.623316 
L 811.621693 301.615222 
L 820.74133 300.607129 
L 829.860966 299.599035 
L 838.980602 298.590942 
L 848.100239 297.582849 
L 857.219875 296.574755 
L 866.339511 295.566662 
L 875.459148 294.558569 
L 884.578784 293.550475 
L 893.69842 292.542382 
L 902.818057 291.534288 
L 911.937693 290.526195 
L 921.05733 289.518102 
L 930.176966 288.510008 
L 939.296602 287.501915 
L 948.416239 286.493822 
L 957.535875 285.485728 
" clip-path="url(#pab561edccc)" style="fill: none; stroke-dasharray: 1.5,2.475; stroke-dashoffset: 0; stroke: #e2321d; stroke-width: 1.5"/>
   </g>
   <g id="line2d_47">
    <path d="M 54.691875 164.843164 
L 63.811511 165.283195 
L 72.931148 165.723226 
L 82.050784 166.163257 
L 91.17042 166.603288 
L 100.290057 167.043319 
L 109.409693 167.483351 
L 118.52933 167.923382 
L 127.648966 168.363413 
L 136.768602 168.803444 
L 145.888239 169.243475 
L 155.007875 169.683506 
L 164.127511 170.123537 
L 173.247148 170.563568 
L 182.366784 171.003599 
L 191.48642 171.44363 
L 200.606057 171.883661 
L 209.725693 172.323692 
L 218.84533 172.763723 
L 227.964966 173.203754 
L 237.084602 173.643785 
L 246.204239 174.083816 
L 255.323875 174.523847 
L 264.443511 174.963878 
L 273.563148 175.403909 
L 282.682784 175.84394 
L 291.80242 176.283971 
L 300.922057 176.724002 
L 310.041693 177.164033 
L 319.16133 177.604064 
L 328.280966 178.044095 
L 337.400602 178.484126 
L 346.520239 178.924157 
L 355.639875 179.364188 
L 364.759511 179.804219 
L 373.879148 180.24425 
L 382.998784 180.684281 
L 392.11842 181.124312 
L 401.238057 181.564343 
L 410.357693 182.004374 
L 419.47733 182.444405 
L 428.596966 182.884436 
L 437.716602 183.324467 
L 446.836239 183.764498 
L 455.955875 184.204529 
L 465.075511 184.64456 
L 474.195148 185.084591 
L 483.314784 185.524622 
L 492.43442 185.964653 
L 501.554057 186.404684 
L 510.673693 186.844715 
L 519.79333 187.284746 
L 528.912966 187.724778 
L 538.032602 188.164809 
L 547.152239 188.60484 
L 556.271875 189.044871 
L 565.391511 189.484902 
L 574.511148 189.924933 
L 583.630784 190.364964 
L 592.75042 190.804995 
L 601.870057 191.245026 
L 610.989693 191.685057 
L 620.10933 192.125088 
L 629.228966 192.565119 
L 638.348602 193.00515 
L 647.468239 193.445181 
L 656.587875 193.885212 
L 665.707511 194.325243 
L 674.827148 194.765274 
L 683.946784 195.205305 
L 693.06642 195.645336 
L 702.186057 196.085367 
L 711.305693 196.525398 
L 720.42533 196.965429 
L 729.544966 197.40546 
L 738.664602 197.845491 
L 747.784239 198.285522 
L 756.903875 198.725553 
L 766.023511 199.165584 
L 775.143148 199.605615 
L 784.262784 200.045646 
L 793.38242 200.485677 
L 802.502057 200.925708 
L 811.621693 201.365739 
L 820.74133 201.80577 
L 829.860966 202.245801 
L 838.980602 202.685832 
L 848.100239 203.125863 
L 857.219875 203.565894 
L 866.339511 204.005925 
L 875.459148 204.445956 
L 884.578784 204.885987 
L 893.69842 205.326018 
L 902.818057 205.766049 
L 911.937693 206.20608 
L 921.05733 206.646111 
L 930.176966 207.086142 
L 939.296602 207.526173 
L 948.416239 207.966205 
L 957.535875 208.406236 
" clip-path="url(#pab561edccc)" style="fill: none; stroke-dasharray: 1.5,2.475; stroke-dashoffset: 0; stroke: #48b585; stroke-width: 1.5"/>
   </g>
   <g id="line2d_48">
    <path d="M 54.691875 483.334235 
L 72.394699 427.729691 
L 90.097522 412.720809 
L 107.800346 428.24352 
L 125.503169 425.721951 
L 143.205993 442.710026 
L 160.908816 447.981531 
L 178.61164 446.405155 
L 196.314463 425.214466 
L 214.017287 435.151665 
L 231.72011 428.329158 
L 249.422934 424.779932 
L 267.125757 418.344382 
L 284.828581 423.422408 
L 302.531404 451.943089 
L 320.234228 453.275239 
L 337.937051 459.644181 
L 355.639875 482.899701 
L 373.342699 481.67222 
L 391.045522 460.03431 
L 408.748346 462.704952 
L 426.451169 456.621471 
L 444.153993 455.812666 
L 461.856816 454.721572 
L 479.55964 458.423044 
L 497.262463 450.277903 
L 514.965287 443.039892 
L 532.66811 449.767246 
L 550.370934 434.162069 
L 568.073757 444.92076 
L 585.776581 442.059811 
L 603.479404 443.315837 
L 621.182228 454.214087 
L 638.885051 440.24555 
L 656.587875 428.963515 
L 709.696346 437.647859 
L 727.399169 363.485207 
L 745.101993 305.038744 
L 762.804816 369.181731 
L 780.50764 340.724485 
L 798.210463 373.533418 
L 815.913287 336.375969 
L 833.61611 356.072747 
L 851.318934 348.117913 
L 869.021757 354.911875 
L 886.724581 340.692767 
L 904.427404 347.737299 
L 922.130228 350.236665 
L 939.833051 353.716112 
L 957.535875 310.392715 
" clip-path="url(#pab561edccc)" style="fill: none; stroke: #4ac1fa; stroke-width: 1.5; stroke-linecap: square"/>
   </g>
   <g id="line2d_49">
    <path d="M 54.691875 443.461739 
L 72.394699 417.386503 
L 90.097522 420.488508 
L 107.800346 361.49967 
L 125.503169 412.885742 
L 143.205993 411.883458 
L 160.908816 426.847935 
L 178.61164 399.367599 
L 196.314463 404.328269 
L 214.017287 403.766863 
L 231.72011 393.696449 
L 249.422934 415.794268 
L 267.125757 421.39881 
L 284.828581 433.70216 
L 302.531404 429.391705 
L 320.234228 400.864681 
L 337.937051 372.439153 
L 355.639875 425.994725 
L 373.342699 408.162955 
L 391.045522 389.316215 
L 408.748346 343.829661 
L 426.451169 380.860239 
L 444.153993 368.43319 
L 461.856816 390.917966 
L 479.55964 388.815073 
L 497.262463 385.465669 
L 514.965287 379.693023 
L 532.66811 405.384473 
L 550.370934 376.556128 
L 568.073757 349.389799 
L 585.776581 384.752018 
L 603.479404 402.16194 
L 621.182228 421.877749 
L 638.885051 364.75392 
L 656.587875 327.897791 
L 709.696346 392.440422 
L 727.399169 368.312662 
L 745.101993 342.779801 
L 762.804816 330.010199 
L 780.50764 399.611826 
L 798.210463 418.049406 
L 815.913287 406.145701 
L 833.61611 419.908071 
L 851.318934 404.347299 
L 869.021757 402.910481 
L 886.724581 405.492313 
L 904.427404 325.823444 
L 922.130228 377.149252 
L 939.833051 400.820276 
L 957.535875 378.110302 
" clip-path="url(#pab561edccc)" style="fill: none; stroke: #9a5689; stroke-width: 1.5; stroke-linecap: square"/>
   </g>
   <g id="line2d_50">
    <path d="M 54.691875 524.89412 
L 72.394699 550.315969 
L 90.097522 552.152432 
L 107.800346 550.779049 
L 125.503169 538.913406 
L 143.205993 523.615892 
L 160.908816 519.936622 
L 178.61164 472.588231 
L 196.314463 484.257224 
L 214.017287 520.723225 
L 231.72011 518.179454 
L 249.422934 514.252785 
L 267.125757 514.084681 
L 284.828581 504.509065 
L 302.531404 501.632257 
L 320.234228 484.932814 
L 337.937051 513.437637 
L 355.639875 496.329034 
L 373.342699 492.449942 
L 391.045522 487.425837 
L 408.748346 479.118934 
L 426.451169 479.873819 
L 444.153993 460.002592 
L 461.856816 493.328527 
L 479.55964 464.500182 
L 497.262463 500.043193 
L 514.965287 494.819265 
L 532.66811 507.950451 
L 550.370934 502.675774 
L 568.073757 502.142914 
L 585.776581 491.174885 
L 603.479404 495.678818 
L 621.182228 504.451973 
L 638.885051 473.454128 
L 656.587875 469.533803 
L 709.696346 476.851109 
L 727.399169 486.325228 
L 745.101993 484.590262 
L 762.804816 464.601679 
L 780.50764 475.591911 
L 798.210463 489.614368 
L 815.913287 459.523653 
L 833.61611 463.275874 
L 851.318934 454.778664 
L 869.021757 443.315837 
L 886.724581 457.094067 
L 904.427404 449.469098 
L 922.130228 497.559686 
L 939.833051 457.814062 
L 957.535875 454.099903 
" clip-path="url(#pab561edccc)" style="fill: none; stroke: #be503b; stroke-width: 1.5; stroke-linecap: square"/>
   </g>
   <g id="line2d_51">
    <path d="M 54.691875 365.477087 
L 72.394699 374.475438 
L 90.097522 358.245419 
L 107.800346 370.171327 
L 125.503169 361.220553 
L 143.205993 375.442832 
L 160.908816 392.70368 
L 178.61164 337.07059 
L 196.314463 350.033671 
L 214.017287 345.951585 
L 231.72011 345.260136 
L 249.422934 346.132377 
L 267.125757 357.167013 
L 284.828581 347.921263 
L 302.531404 372.458183 
L 320.234228 362.387769 
L 337.937051 378.37356 
L 355.639875 434.812284 
L 373.342699 413.244153 
L 391.045522 385.380031 
L 408.748346 356.713448 
L 426.451169 344.20076 
L 444.153993 338.910224 
L 461.856816 333.362774 
L 479.55964 327.605986 
L 497.262463 326.981145 
L 514.965287 324.595963 
L 532.66811 342.906672 
L 550.370934 332.48419 
L 568.073757 327.022378 
L 585.776581 324.519841 
L 603.479404 334.371402 
L 621.182228 355.95222 
L 638.885051 319.058029 
L 656.587875 318.826488 
L 709.696346 341.599897 
L 727.399169 301.38802 
L 745.101993 319.476704 
L 762.804816 311.816846 
L 780.50764 308.476957 
L 798.210463 337.397284 
L 815.913287 273.593677 
L 833.61611 320.812025 
L 851.318934 286.95006 
L 869.021757 264.941051 
L 886.724581 275.496748 
L 904.427404 271.018189 
L 922.130228 290.277261 
L 939.833051 290.105985 
L 957.535875 233.664089 
" clip-path="url(#pab561edccc)" style="fill: none; stroke: #e2321d; stroke-width: 1.5; stroke-linecap: square"/>
   </g>
   <g id="line2d_52">
    <path d="M 54.691875 127.263424 
L 72.394699 174.465913 
L 90.097522 85.043808 
L 107.800346 62.419473 
L 125.503169 49.285116 
L 143.205993 106.852995 
L 160.908816 149.58644 
L 178.61164 120.812016 
L 196.314463 202.434704 
L 214.017287 253.643156 
L 231.72011 258.337397 
L 249.422934 171.427344 
L 267.125757 185.059672 
L 284.828581 160.100904 
L 302.531404 168.75353 
L 320.234228 139.506511 
L 337.937051 147.64848 
L 355.639875 162.711282 
L 373.342699 205.695298 
L 391.045522 175.388902 
L 408.748346 214.173477 
L 426.451169 251.562466 
L 444.153993 291.339809 
L 461.856816 224.643536 
L 479.55964 230.968073 
L 497.262463 251.965283 
L 514.965287 222.67703 
L 532.66811 293.395125 
L 550.370934 212.162566 
L 568.073757 138.830921 
L 585.776581 226.597354 
L 603.479404 242.770281 
L 621.182228 263.028465 
L 638.885051 171.754038 
L 656.587875 241.752138 
L 709.696346 218.785251 
L 727.399169 251.346785 
L 745.101993 197.39474 
L 762.804816 160.922396 
L 780.50764 173.904508 
L 798.210463 230.777766 
L 815.913287 216.688701 
L 833.61611 280.470105 
L 851.318934 198.40971 
L 869.021757 151.096209 
L 886.724581 133.889281 
L 904.427404 111.861242 
L 922.130228 148.365303 
L 939.833051 116.006763 
L 957.535875 140.175757 
" clip-path="url(#pab561edccc)" style="fill: none; stroke: #48b585; stroke-width: 6; stroke-linecap: square"/>
   </g>
   <g id="patch_3">
    <path d="M 54.691875 567.74175 
L 54.691875 24.14175 
" style="fill: none; stroke: #ffffff; stroke-linejoin: miter; stroke-linecap: square"/>
   </g>
   <g id="patch_4">
    <path d="M 957.535875 567.74175 
L 957.535875 24.14175 
" style="fill: none; stroke: #ffffff; stroke-linejoin: miter; stroke-linecap: square"/>
   </g>
   <g id="patch_5">
    <path d="M 54.691875 567.74175 
L 957.535875 567.74175 
" style="fill: none; stroke: #ffffff; stroke-linejoin: miter; stroke-linecap: square"/>
   </g>
   <g id="patch_6">
    <path d="M 54.691875 24.14175 
L 957.535875 24.14175 
" style="fill: none; stroke: #ffffff; stroke-linejoin: miter; stroke-linecap: square"/>
   </g>
   <g id="text_24">
    <!-- Potentially Ephemeral Enterprise Linux 8 and 9 Instances by Distribution -->
    <g transform="translate(244.4355 18.14175)scale(0.144 -0.144)">
     <defs>
      <path id="DejaVuSans-50" d="M 1259 4147 
L 1259 2394 
L 2053 2394 
Q 2494 2394 2734 2622 
Q 2975 2850 2975 3272 
Q 2975 3691 2734 3919 
Q 2494 4147 2053 4147 
L 1259 4147 
z
M 628 4666 
L 2053 4666 
Q 2838 4666 3239 4311 
Q 3641 3956 3641 3272 
Q 3641 2581 3239 2228 
Q 2838 1875 2053 1875 
L 1259 1875 
L 1259 0 
L 628 0 
L 628 4666 
z
" transform="scale(0.015625)"/>
      <path id="DejaVuSans-6f" d="M 1959 3097 
Q 1497 3097 1228 2736 
Q 959 2375 959 1747 
Q 959 1119 1226 758 
Q 1494 397 1959 397 
Q 2419 397 2687 759 
Q 2956 1122 2956 1747 
Q 2956 2369 2687 2733 
Q 2419 3097 1959 3097 
z
M 1959 3584 
Q 2709 3584 3137 3096 
Q 3566 2609 3566 1747 
Q 3566 888 3137 398 
Q 2709 -91 1959 -91 
Q 1206 -91 779 398 
Q 353 888 353 1747 
Q 353 2609 779 3096 
Q 1206 3584 1959 3584 
z
" transform="scale(0.015625)"/>
      <path id="DejaVuSans-69" d="M 603 3500 
L 1178 3500 
L 1178 0 
L 603 0 
L 603 3500 
z
M 603 4863 
L 1178 4863 
L 1178 4134 
L 603 4134 
L 603 4863 
z
" transform="scale(0.015625)"/>
      <path id="DejaVuSans-6c" d="M 603 4863 
L 1178 4863 
L 1178 0 
L 603 0 
L 603 4863 
z
" transform="scale(0.015625)"/>
      <path id="DejaVuSans-79" d="M 2059 -325 
Q 1816 -950 1584 -1140 
Q 1353 -1331 966 -1331 
L 506 -1331 
L 506 -850 
L 844 -850 
Q 1081 -850 1212 -737 
Q 1344 -625 1503 -206 
L 1606 56 
L 191 3500 
L 800 3500 
L 1894 763 
L 2988 3500 
L 3597 3500 
L 2059 -325 
z
" transform="scale(0.015625)"/>
      <path id="DejaVuSans-20" transform="scale(0.015625)"/>
      <path id="DejaVuSans-45" d="M 628 4666 
L 3578 4666 
L 3578 4134 
L 1259 4134 
L 1259 2753 
L 3481 2753 
L 3481 2222 
L 1259 2222 
L 1259 531 
L 3634 531 
L 3634 0 
L 628 0 
L 628 4666 
z
" transform="scale(0.015625)"/>
      <path id="DejaVuSans-70" d="M 1159 525 
L 1159 -1331 
L 581 -1331 
L 581 3500 
L 1159 3500 
L 1159 2969 
Q 1341 3281 1617 3432 
Q 1894 3584 2278 3584 
Q 2916 3584 3314 3078 
Q 3713 2572 3713 1747 
Q 3713 922 3314 415 
Q 2916 -91 2278 -91 
Q 1894 -91 1617 61 
Q 1341 213 1159 525 
z
M 3116 1747 
Q 3116 2381 2855 2742 
Q 2594 3103 2138 3103 
Q 1681 3103 1420 2742 
Q 1159 2381 1159 1747 
Q 1159 1113 1420 752 
Q 1681 391 2138 391 
Q 2594 391 2855 752 
Q 3116 1113 3116 1747 
z
" transform="scale(0.015625)"/>
      <path id="DejaVuSans-68" d="M 3513 2113 
L 3513 0 
L 2938 0 
L 2938 2094 
Q 2938 2591 2744 2837 
Q 2550 3084 2163 3084 
Q 1697 3084 1428 2787 
Q 1159 2491 1159 1978 
L 1159 0 
L 581 0 
L 581 4863 
L 1159 4863 
L 1159 2956 
Q 1366 3272 1645 3428 
Q 1925 3584 2291 3584 
Q 2894 3584 3203 3211 
Q 3513 2838 3513 2113 
z
" transform="scale(0.015625)"/>
      <path id="DejaVuSans-6d" d="M 3328 2828 
Q 3544 3216 3844 3400 
Q 4144 3584 4550 3584 
Q 5097 3584 5394 3201 
Q 5691 2819 5691 2113 
L 5691 0 
L 5113 0 
L 5113 2094 
Q 5113 2597 4934 2840 
Q 4756 3084 4391 3084 
Q 3944 3084 3684 2787 
Q 3425 2491 3425 1978 
L 3425 0 
L 2847 0 
L 2847 2094 
Q 2847 2600 2669 2842 
Q 2491 3084 2119 3084 
Q 1678 3084 1418 2786 
Q 1159 2488 1159 1978 
L 1159 0 
L 581 0 
L 581 3500 
L 1159 3500 
L 1159 2956 
Q 1356 3278 1631 3431 
Q 1906 3584 2284 3584 
Q 2666 3584 2933 3390 
Q 3200 3197 3328 2828 
z
" transform="scale(0.015625)"/>
      <path id="DejaVuSans-72" d="M 2631 2963 
Q 2534 3019 2420 3045 
Q 2306 3072 2169 3072 
Q 1681 3072 1420 2755 
Q 1159 2438 1159 1844 
L 1159 0 
L 581 0 
L 581 3500 
L 1159 3500 
L 1159 2956 
Q 1341 3275 1631 3429 
Q 1922 3584 2338 3584 
Q 2397 3584 2469 3576 
Q 2541 3569 2628 3553 
L 2631 2963 
z
" transform="scale(0.015625)"/>
      <path id="DejaVuSans-4c" d="M 628 4666 
L 1259 4666 
L 1259 531 
L 3531 531 
L 3531 0 
L 628 0 
L 628 4666 
z
" transform="scale(0.015625)"/>
      <path id="DejaVuSans-75" d="M 544 1381 
L 544 3500 
L 1119 3500 
L 1119 1403 
Q 1119 906 1312 657 
Q 1506 409 1894 409 
Q 2359 409 2629 706 
Q 2900 1003 2900 1516 
L 2900 3500 
L 3475 3500 
L 3475 0 
L 2900 0 
L 2900 538 
Q 2691 219 2414 64 
Q 2138 -91 1772 -91 
Q 1169 -91 856 284 
Q 544 659 544 1381 
z
M 1991 3584 
L 1991 3584 
z
" transform="scale(0.015625)"/>
      <path id="DejaVuSans-78" d="M 3513 3500 
L 2247 1797 
L 3578 0 
L 2900 0 
L 1881 1375 
L 863 0 
L 184 0 
L 1544 1831 
L 300 3500 
L 978 3500 
L 1906 2253 
L 2834 3500 
L 3513 3500 
z
" transform="scale(0.015625)"/>
      <path id="DejaVuSans-64" d="M 2906 2969 
L 2906 4863 
L 3481 4863 
L 3481 0 
L 2906 0 
L 2906 525 
Q 2725 213 2448 61 
Q 2172 -91 1784 -91 
Q 1150 -91 751 415 
Q 353 922 353 1747 
Q 353 2572 751 3078 
Q 1150 3584 1784 3584 
Q 2172 3584 2448 3432 
Q 2725 3281 2906 2969 
z
M 947 1747 
Q 947 1113 1208 752 
Q 1469 391 1925 391 
Q 2381 391 2643 752 
Q 2906 1113 2906 1747 
Q 2906 2381 2643 2742 
Q 2381 3103 1925 3103 
Q 1469 3103 1208 2742 
Q 947 2381 947 1747 
z
" transform="scale(0.015625)"/>
      <path id="DejaVuSans-62" d="M 3116 1747 
Q 3116 2381 2855 2742 
Q 2594 3103 2138 3103 
Q 1681 3103 1420 2742 
Q 1159 2381 1159 1747 
Q 1159 1113 1420 752 
Q 1681 391 2138 391 
Q 2594 391 2855 752 
Q 3116 1113 3116 1747 
z
M 1159 2969 
Q 1341 3281 1617 3432 
Q 1894 3584 2278 3584 
Q 2916 3584 3314 3078 
Q 3713 2572 3713 1747 
Q 3713 922 3314 415 
Q 2916 -91 2278 -91 
Q 1894 -91 1617 61 
Q 1341 213 1159 525 
L 1159 0 
L 581 0 
L 581 4863 
L 1159 4863 
L 1159 2969 
z
" transform="scale(0.015625)"/>
     </defs>
     <use xlink:href="#DejaVuSans-50"/>
     <use xlink:href="#DejaVuSans-6f" x="56.677734"/>
     <use xlink:href="#DejaVuSans-74" x="117.859375"/>
     <use xlink:href="#DejaVuSans-65" x="157.068359"/>
     <use xlink:href="#DejaVuSans-6e" x="218.591797"/>
     <use xlink:href="#DejaVuSans-74" x="281.970703"/>
     <use xlink:href="#DejaVuSans-69" x="321.179688"/>
     <use xlink:href="#DejaVuSans-61" x="348.962891"/>
     <use xlink:href="#DejaVuSans-6c" x="410.242188"/>
     <use xlink:href="#DejaVuSans-6c" x="438.025391"/>
     <use xlink:href="#DejaVuSans-79" x="465.808594"/>
     <use xlink:href="#DejaVuSans-20" x="524.988281"/>
     <use xlink:href="#DejaVuSans-45" x="556.775391"/>
     <use xlink:href="#DejaVuSans-70" x="619.958984"/>
     <use xlink:href="#DejaVuSans-68" x="683.435547"/>
     <use xlink:href="#DejaVuSans-65" x="746.814453"/>
     <use xlink:href="#DejaVuSans-6d" x="808.337891"/>
     <use xlink:href="#DejaVuSans-65" x="905.75"/>
     <use xlink:href="#DejaVuSans-72" x="967.273438"/>
     <use xlink:href="#DejaVuSans-61" x="1008.386719"/>
     <use xlink:href="#DejaVuSans-6c" x="1069.666016"/>
     <use xlink:href="#DejaVuSans-20" x="1097.449219"/>
     <use xlink:href="#DejaVuSans-45" x="1129.236328"/>
     <use xlink:href="#DejaVuSans-6e" x="1192.419922"/>
     <use xlink:href="#DejaVuSans-74" x="1255.798828"/>
     <use xlink:href="#DejaVuSans-65" x="1295.007812"/>
     <use xlink:href="#DejaVuSans-72" x="1356.53125"/>
     <use xlink:href="#DejaVuSans-70" x="1397.644531"/>
     <use xlink:href="#DejaVuSans-72" x="1461.121094"/>
     <use xlink:href="#DejaVuSans-69" x="1502.234375"/>
     <use xlink:href="#DejaVuSans-73" x="1530.017578"/>
     <use xlink:href="#DejaVuSans-65" x="1582.117188"/>
     <use xlink:href="#DejaVuSans-20" x="1643.640625"/>
     <use xlink:href="#DejaVuSans-4c" x="1675.427734"/>
     <use xlink:href="#DejaVuSans-69" x="1731.140625"/>
     <use xlink:href="#DejaVuSans-6e" x="1758.923828"/>
     <use xlink:href="#DejaVuSans-75" x="1822.302734"/>
     <use xlink:href="#DejaVuSans-78" x="1885.681641"/>
     <use xlink:href="#DejaVuSans-20" x="1944.861328"/>
     <use xlink:href="#DejaVuSans-38" x="1976.648438"/>
     <use xlink:href="#DejaVuSans-20" x="2040.271484"/>
     <use xlink:href="#DejaVuSans-61" x="2072.058594"/>
     <use xlink:href="#DejaVuSans-6e" x="2133.337891"/>
     <use xlink:href="#DejaVuSans-64" x="2196.716797"/>
     <use xlink:href="#DejaVuSans-20" x="2260.193359"/>
     <use xlink:href="#DejaVuSans-39" x="2291.980469"/>
     <use xlink:href="#DejaVuSans-20" x="2355.603516"/>
     <use xlink:href="#DejaVuSans-49" x="2387.390625"/>
     <use xlink:href="#DejaVuSans-6e" x="2416.882812"/>
     <use xlink:href="#DejaVuSans-73" x="2480.261719"/>
     <use xlink:href="#DejaVuSans-74" x="2532.361328"/>
     <use xlink:href="#DejaVuSans-61" x="2571.570312"/>
     <use xlink:href="#DejaVuSans-6e" x="2632.849609"/>
     <use xlink:href="#DejaVuSans-63" x="2696.228516"/>
     <use xlink:href="#DejaVuSans-65" x="2751.208984"/>
     <use xlink:href="#DejaVuSans-73" x="2812.732422"/>
     <use xlink:href="#DejaVuSans-20" x="2864.832031"/>
     <use xlink:href="#DejaVuSans-62" x="2896.619141"/>
     <use xlink:href="#DejaVuSans-79" x="2960.095703"/>
     <use xlink:href="#DejaVuSans-20" x="3019.275391"/>
     <use xlink:href="#DejaVuSans-44" x="3051.0625"/>
     <use xlink:href="#DejaVuSans-69" x="3128.064453"/>
     <use xlink:href="#DejaVuSans-73" x="3155.847656"/>
     <use xlink:href="#DejaVuSans-74" x="3207.947266"/>
     <use xlink:href="#DejaVuSans-72" x="3247.15625"/>
     <use xlink:href="#DejaVuSans-69" x="3288.269531"/>
     <use xlink:href="#DejaVuSans-62" x="3316.052734"/>
     <use xlink:href="#DejaVuSans-75" x="3379.529297"/>
     <use xlink:href="#DejaVuSans-74" x="3442.908203"/>
     <use xlink:href="#DejaVuSans-69" x="3482.117188"/>
     <use xlink:href="#DejaVuSans-6f" x="3509.900391"/>
     <use xlink:href="#DejaVuSans-6e" x="3571.082031"/>
    </g>
   </g>
   <g id="legend_1">
    <g id="patch_7">
     <path d="M 61.691875 120.2105 
L 170.660625 120.2105 
Q 172.660625 120.2105 172.660625 118.2105 
L 172.660625 31.14175 
Q 172.660625 29.14175 170.660625 29.14175 
L 61.691875 29.14175 
Q 59.691875 29.14175 59.691875 31.14175 
L 59.691875 118.2105 
Q 59.691875 120.2105 61.691875 120.2105 
z
" style="fill: #e5e5e5; opacity: 0.8; stroke: #cccccc; stroke-width: 0.5; stroke-linejoin: miter"/>
    </g>
    <g id="text_25">
     <!-- Distribution -->
     <g transform="translate(87.0075 40.740187)scale(0.1 -0.1)">
      <use xlink:href="#DejaVuSans-44"/>
      <use xlink:href="#DejaVuSans-69" x="77.001953"/>
      <use xlink:href="#DejaVuSans-73" x="104.785156"/>
      <use xlink:href="#DejaVuSans-74" x="156.884766"/>
      <use xlink:href="#DejaVuSans-72" x="196.09375"/>
      <use xlink:href="#DejaVuSans-69" x="237.207031"/>
      <use xlink:href="#DejaVuSans-62" x="264.990234"/>
      <use xlink:href="#DejaVuSans-75" x="328.466797"/>
      <use xlink:href="#DejaVuSans-74" x="391.845703"/>
      <use xlink:href="#DejaVuSans-69" x="431.054688"/>
      <use xlink:href="#DejaVuSans-6f" x="458.837891"/>
      <use xlink:href="#DejaVuSans-6e" x="520.019531"/>
     </g>
    </g>
    <g id="line2d_53">
     <path d="M 63.691875 51.918312 
L 73.691875 51.918312 
L 83.691875 51.918312 
" style="fill: none; stroke: #4ac1fa; stroke-width: 1.5; stroke-linecap: square"/>
    </g>
    <g id="text_26">
     <!-- AlmaLinux -->
     <g transform="translate(91.691875 55.418312)scale(0.1 -0.1)">
      <defs>
       <path id="DejaVuSans-41" d="M 2188 4044 
L 1331 1722 
L 3047 1722 
L 2188 4044 
z
M 1831 4666 
L 2547 4666 
L 4325 0 
L 3669 0 
L 3244 1197 
L 1141 1197 
L 716 0 
L 50 0 
L 1831 4666 
z
" transform="scale(0.015625)"/>
      </defs>
      <use xlink:href="#DejaVuSans-41"/>
      <use xlink:href="#DejaVuSans-6c" x="68.408203"/>
      <use xlink:href="#DejaVuSans-6d" x="96.191406"/>
      <use xlink:href="#DejaVuSans-61" x="193.603516"/>
      <use xlink:href="#DejaVuSans-4c" x="254.882812"/>
      <use xlink:href="#DejaVuSans-69" x="310.595703"/>
      <use xlink:href="#DejaVuSans-6e" x="338.378906"/>
      <use xlink:href="#DejaVuSans-75" x="401.757812"/>
      <use xlink:href="#DejaVuSans-78" x="465.136719"/>
     </g>
    </g>
    <g id="line2d_54">
     <path d="M 63.691875 66.596437 
L 73.691875 66.596437 
L 83.691875 66.596437 
" style="fill: none; stroke: #9a5689; stroke-width: 1.5; stroke-linecap: square"/>
    </g>
    <g id="text_27">
     <!-- CentOS Stream -->
     <g transform="translate(91.691875 70.096437)scale(0.1 -0.1)">
      <defs>
       <path id="DejaVuSans-43" d="M 4122 4306 
L 4122 3641 
Q 3803 3938 3442 4084 
Q 3081 4231 2675 4231 
Q 1875 4231 1450 3742 
Q 1025 3253 1025 2328 
Q 1025 1406 1450 917 
Q 1875 428 2675 428 
Q 3081 428 3442 575 
Q 3803 722 4122 1019 
L 4122 359 
Q 3791 134 3420 21 
Q 3050 -91 2638 -91 
Q 1578 -91 968 557 
Q 359 1206 359 2328 
Q 359 3453 968 4101 
Q 1578 4750 2638 4750 
Q 3056 4750 3426 4639 
Q 3797 4528 4122 4306 
z
" transform="scale(0.015625)"/>
       <path id="DejaVuSans-4f" d="M 2522 4238 
Q 1834 4238 1429 3725 
Q 1025 3213 1025 2328 
Q 1025 1447 1429 934 
Q 1834 422 2522 422 
Q 3209 422 3611 934 
Q 4013 1447 4013 2328 
Q 4013 3213 3611 3725 
Q 3209 4238 2522 4238 
z
M 2522 4750 
Q 3503 4750 4090 4092 
Q 4678 3434 4678 2328 
Q 4678 1225 4090 567 
Q 3503 -91 2522 -91 
Q 1538 -91 948 565 
Q 359 1222 359 2328 
Q 359 3434 948 4092 
Q 1538 4750 2522 4750 
z
" transform="scale(0.015625)"/>
       <path id="DejaVuSans-53" d="M 3425 4513 
L 3425 3897 
Q 3066 4069 2747 4153 
Q 2428 4238 2131 4238 
Q 1616 4238 1336 4038 
Q 1056 3838 1056 3469 
Q 1056 3159 1242 3001 
Q 1428 2844 1947 2747 
L 2328 2669 
Q 3034 2534 3370 2195 
Q 3706 1856 3706 1288 
Q 3706 609 3251 259 
Q 2797 -91 1919 -91 
Q 1588 -91 1214 -16 
Q 841 59 441 206 
L 441 856 
Q 825 641 1194 531 
Q 1563 422 1919 422 
Q 2459 422 2753 634 
Q 3047 847 3047 1241 
Q 3047 1584 2836 1778 
Q 2625 1972 2144 2069 
L 1759 2144 
Q 1053 2284 737 2584 
Q 422 2884 422 3419 
Q 422 4038 858 4394 
Q 1294 4750 2059 4750 
Q 2388 4750 2728 4690 
Q 3069 4631 3425 4513 
z
" transform="scale(0.015625)"/>
      </defs>
      <use xlink:href="#DejaVuSans-43"/>
      <use xlink:href="#DejaVuSans-65" x="69.824219"/>
      <use xlink:href="#DejaVuSans-6e" x="131.347656"/>
      <use xlink:href="#DejaVuSans-74" x="194.726562"/>
      <use xlink:href="#DejaVuSans-4f" x="233.935547"/>
      <use xlink:href="#DejaVuSans-53" x="312.646484"/>
      <use xlink:href="#DejaVuSans-20" x="376.123047"/>
      <use xlink:href="#DejaVuSans-53" x="407.910156"/>
      <use xlink:href="#DejaVuSans-74" x="471.386719"/>
      <use xlink:href="#DejaVuSans-72" x="510.595703"/>
      <use xlink:href="#DejaVuSans-65" x="549.458984"/>
      <use xlink:href="#DejaVuSans-61" x="610.982422"/>
      <use xlink:href="#DejaVuSans-6d" x="672.261719"/>
     </g>
    </g>
    <g id="line2d_55">
     <path d="M 63.691875 81.274563 
L 73.691875 81.274563 
L 83.691875 81.274563 
" style="fill: none; stroke: #be503b; stroke-width: 1.5; stroke-linecap: square"/>
    </g>
    <g id="text_28">
     <!-- Oracle -->
     <g transform="translate(91.691875 84.774563)scale(0.1 -0.1)">
      <use xlink:href="#DejaVuSans-4f"/>
      <use xlink:href="#DejaVuSans-72" x="78.710938"/>
      <use xlink:href="#DejaVuSans-61" x="119.824219"/>
      <use xlink:href="#DejaVuSans-63" x="181.103516"/>
      <use xlink:href="#DejaVuSans-6c" x="236.083984"/>
      <use xlink:href="#DejaVuSans-65" x="263.867188"/>
     </g>
    </g>
    <g id="line2d_56">
     <path d="M 63.691875 95.952687 
L 73.691875 95.952687 
L 83.691875 95.952687 
" style="fill: none; stroke: #e2321d; stroke-width: 1.5; stroke-linecap: square"/>
    </g>
    <g id="text_29">
     <!-- RHEL -->
     <g transform="translate(91.691875 99.452687)scale(0.1 -0.1)">
      <defs>
       <path id="DejaVuSans-52" d="M 2841 2188 
Q 3044 2119 3236 1894 
Q 3428 1669 3622 1275 
L 4263 0 
L 3584 0 
L 2988 1197 
Q 2756 1666 2539 1819 
Q 2322 1972 1947 1972 
L 1259 1972 
L 1259 0 
L 628 0 
L 628 4666 
L 2053 4666 
Q 2853 4666 3247 4331 
Q 3641 3997 3641 3322 
Q 3641 2881 3436 2590 
Q 3231 2300 2841 2188 
z
M 1259 4147 
L 1259 2491 
L 2053 2491 
Q 2509 2491 2742 2702 
Q 2975 2913 2975 3322 
Q 2975 3731 2742 3939 
Q 2509 4147 2053 4147 
L 1259 4147 
z
" transform="scale(0.015625)"/>
       <path id="DejaVuSans-48" d="M 628 4666 
L 1259 4666 
L 1259 2753 
L 3553 2753 
L 3553 4666 
L 4184 4666 
L 4184 0 
L 3553 0 
L 3553 2222 
L 1259 2222 
L 1259 0 
L 628 0 
L 628 4666 
z
" transform="scale(0.015625)"/>
      </defs>
      <use xlink:href="#DejaVuSans-52"/>
      <use xlink:href="#DejaVuSans-48" x="69.482422"/>
      <use xlink:href="#DejaVuSans-45" x="144.677734"/>
      <use xlink:href="#DejaVuSans-4c" x="207.861328"/>
     </g>
    </g>
    <g id="line2d_57">
     <path d="M 63.691875 110.630812 
L 73.691875 110.630812 
L 83.691875 110.630812 
" style="fill: none; stroke: #48b585; stroke-width: 6; stroke-linecap: square"/>
    </g>
    <g id="text_30">
     <!-- Rocky Linux -->
     <g transform="translate(91.691875 114.130812)scale(0.1 -0.1)">
      <use xlink:href="#DejaVuSans-52"/>
      <use xlink:href="#DejaVuSans-6f" x="64.982422"/>
      <use xlink:href="#DejaVuSans-63" x="126.164062"/>
      <use xlink:href="#DejaVuSans-6b" x="181.144531"/>
      <use xlink:href="#DejaVuSans-79" x="235.429688"/>
      <use xlink:href="#DejaVuSans-20" x="294.609375"/>
      <use xlink:href="#DejaVuSans-4c" x="326.396484"/>
      <use xlink:href="#DejaVuSans-69" x="382.109375"/>
      <use xlink:href="#DejaVuSans-6e" x="409.892578"/>
      <use xlink:href="#DejaVuSans-75" x="473.271484"/>
      <use xlink:href="#DejaVuSans-78" x="536.650391"/>
     </g>
    </g>
   </g>
  </g>
 </g>
 <defs>
  <clipPath id="pab561edccc">
   <rect x="54.691875" y="24.14175" width="902.844" height="543.6"/>
  </clipPath>
 </defs>
</svg>
