<?xml version="1.0" encoding="utf-8" standalone="no"?>
<!DOCTYPE svg PUBLIC "-//W3C//DTD SVG 1.1//EN"
  "http://www.w3.org/Graphics/SVG/1.1/DTD/svg11.dtd">
<svg xmlns:xlink="http://www.w3.org/1999/xlink" width="982.930064pt" height="633.943878pt" viewBox="0 0 982.930064 633.943878" xmlns="http://www.w3.org/2000/svg" version="1.1">
 <metadata>
  <rdf:RDF xmlns:dc="http://purl.org/dc/elements/1.1/" xmlns:cc="http://creativecommons.org/ns#" xmlns:rdf="http://www.w3.org/1999/02/22-rdf-syntax-ns#">
   <cc:Work>
    <dc:type rdf:resource="http://purl.org/dc/dcmitype/StillImage"/>
    <dc:date>2024-05-30T11:55:17.729706</dc:date>
    <dc:format>image/svg+xml</dc:format>
    <dc:creator>
     <cc:Agent>
      <dc:title>Matplotlib v3.5.1, https://matplotlib.org/</dc:title>
     </cc:Agent>
    </dc:creator>
   </cc:Work>
  </rdf:RDF>
 </metadata>
 <defs>
  <style type="text/css">*{stroke-linejoin: round; stroke-linecap: butt}</style>
 </defs>
 <g id="figure_1">
  <g id="patch_1">
   <path d="M 0 633.943878 
L 982.930064 633.943878 
L 982.930064 0 
L 0 0 
z
" style="fill: #ffffff"/>
  </g>
  <g id="axes_1">
   <g id="patch_2">
    <path d="M 54.691875 567.74175 
L 957.535875 567.74175 
L 957.535875 24.14175 
L 54.691875 24.14175 
z
" style="fill: #e5e5e5"/>
   </g>
   <g id="matplotlib.axis_1">
    <g id="xtick_1">
     <g id="line2d_1">
      <path d="M 93.385189 567.74175 
L 93.385189 24.14175 
" clip-path="url(#p3415a817fe)" style="fill: none; stroke: #ffffff; stroke-width: 0.8; stroke-linecap: square"/>
     </g>
     <g id="line2d_2">
      <defs>
       <path id="m88ef486830" d="M 0 0 
L 0 3.5 
" style="stroke: #555555; stroke-width: 0.8"/>
      </defs>
      <g>
       <use xlink:href="#m88ef486830" x="93.385189" y="567.74175" style="fill: #555555; stroke: #555555; stroke-width: 0.8"/>
      </g>
     </g>
     <g id="text_1">
      <!-- 2023-06 -->
      <g style="fill: #555555" transform="translate(80.563907 609.659567)rotate(-45)scale(0.1 -0.1)">
       <defs>
        <path id="DejaVuSans-32" d="M 1228 531 
L 3431 531 
L 3431 0 
L 469 0 
L 469 531 
Q 828 903 1448 1529 
Q 2069 2156 2228 2338 
Q 2531 2678 2651 2914 
Q 2772 3150 2772 3378 
Q 2772 3750 2511 3984 
Q 2250 4219 1831 4219 
Q 1534 4219 1204 4116 
Q 875 4013 500 3803 
L 500 4441 
Q 881 4594 1212 4672 
Q 1544 4750 1819 4750 
Q 2544 4750 2975 4387 
Q 3406 4025 3406 3419 
Q 3406 3131 3298 2873 
Q 3191 2616 2906 2266 
Q 2828 2175 2409 1742 
Q 1991 1309 1228 531 
z
" transform="scale(0.015625)"/>
        <path id="DejaVuSans-30" d="M 2034 4250 
Q 1547 4250 1301 3770 
Q 1056 3291 1056 2328 
Q 1056 1369 1301 889 
Q 1547 409 2034 409 
Q 2525 409 2770 889 
Q 3016 1369 3016 2328 
Q 3016 3291 2770 3770 
Q 2525 4250 2034 4250 
z
M 2034 4750 
Q 2819 4750 3233 4129 
Q 3647 3509 3647 2328 
Q 3647 1150 3233 529 
Q 2819 -91 2034 -91 
Q 1250 -91 836 529 
Q 422 1150 422 2328 
Q 422 3509 836 4129 
Q 1250 4750 2034 4750 
z
" transform="scale(0.015625)"/>
        <path id="DejaVuSans-33" d="M 2597 2516 
Q 3050 2419 3304 2112 
Q 3559 1806 3559 1356 
Q 3559 666 3084 287 
Q 2609 -91 1734 -91 
Q 1441 -91 1130 -33 
Q 819 25 488 141 
L 488 750 
Q 750 597 1062 519 
Q 1375 441 1716 441 
Q 2309 441 2620 675 
Q 2931 909 2931 1356 
Q 2931 1769 2642 2001 
Q 2353 2234 1838 2234 
L 1294 2234 
L 1294 2753 
L 1863 2753 
Q 2328 2753 2575 2939 
Q 2822 3125 2822 3475 
Q 2822 3834 2567 4026 
Q 2313 4219 1838 4219 
Q 1578 4219 1281 4162 
Q 984 4106 628 3988 
L 628 4550 
Q 988 4650 1302 4700 
Q 1616 4750 1894 4750 
Q 2613 4750 3031 4423 
Q 3450 4097 3450 3541 
Q 3450 3153 3228 2886 
Q 3006 2619 2597 2516 
z
" transform="scale(0.015625)"/>
        <path id="DejaVuSans-2d" d="M 313 2009 
L 1997 2009 
L 1997 1497 
L 313 1497 
L 313 2009 
z
" transform="scale(0.015625)"/>
        <path id="DejaVuSans-36" d="M 2113 2584 
Q 1688 2584 1439 2293 
Q 1191 2003 1191 1497 
Q 1191 994 1439 701 
Q 1688 409 2113 409 
Q 2538 409 2786 701 
Q 3034 994 3034 1497 
Q 3034 2003 2786 2293 
Q 2538 2584 2113 2584 
z
M 3366 4563 
L 3366 3988 
Q 3128 4100 2886 4159 
Q 2644 4219 2406 4219 
Q 1781 4219 1451 3797 
Q 1122 3375 1075 2522 
Q 1259 2794 1537 2939 
Q 1816 3084 2150 3084 
Q 2853 3084 3261 2657 
Q 3669 2231 3669 1497 
Q 3669 778 3244 343 
Q 2819 -91 2113 -91 
Q 1303 -91 875 529 
Q 447 1150 447 2328 
Q 447 3434 972 4092 
Q 1497 4750 2381 4750 
Q 2619 4750 2861 4703 
Q 3103 4656 3366 4563 
z
" transform="scale(0.015625)"/>
       </defs>
       <use xlink:href="#DejaVuSans-32"/>
       <use xlink:href="#DejaVuSans-30" x="63.623047"/>
       <use xlink:href="#DejaVuSans-32" x="127.246094"/>
       <use xlink:href="#DejaVuSans-33" x="190.869141"/>
       <use xlink:href="#DejaVuSans-2d" x="254.492188"/>
       <use xlink:href="#DejaVuSans-30" x="290.576172"/>
       <use xlink:href="#DejaVuSans-36" x="354.199219"/>
      </g>
     </g>
    </g>
    <g id="xtick_2">
     <g id="line2d_3">
      <path d="M 170.771818 567.74175 
L 170.771818 24.14175 
" clip-path="url(#p3415a817fe)" style="fill: none; stroke: #ffffff; stroke-width: 0.8; stroke-linecap: square"/>
     </g>
     <g id="line2d_4">
      <g>
       <use xlink:href="#m88ef486830" x="170.771818" y="567.74175" style="fill: #555555; stroke: #555555; stroke-width: 0.8"/>
      </g>
     </g>
     <g id="text_2">
      <!-- 2023-07 -->
      <g style="fill: #555555" transform="translate(157.950536 609.659567)rotate(-45)scale(0.1 -0.1)">
       <defs>
        <path id="DejaVuSans-37" d="M 525 4666 
L 3525 4666 
L 3525 4397 
L 1831 0 
L 1172 0 
L 2766 4134 
L 525 4134 
L 525 4666 
z
" transform="scale(0.015625)"/>
       </defs>
       <use xlink:href="#DejaVuSans-32"/>
       <use xlink:href="#DejaVuSans-30" x="63.623047"/>
       <use xlink:href="#DejaVuSans-32" x="127.246094"/>
       <use xlink:href="#DejaVuSans-33" x="190.869141"/>
       <use xlink:href="#DejaVuSans-2d" x="254.492188"/>
       <use xlink:href="#DejaVuSans-30" x="290.576172"/>
       <use xlink:href="#DejaVuSans-37" x="354.199219"/>
      </g>
     </g>
    </g>
    <g id="xtick_3">
     <g id="line2d_5">
      <path d="M 250.738001 567.74175 
L 250.738001 24.14175 
" clip-path="url(#p3415a817fe)" style="fill: none; stroke: #ffffff; stroke-width: 0.8; stroke-linecap: square"/>
     </g>
     <g id="line2d_6">
      <g>
       <use xlink:href="#m88ef486830" x="250.738001" y="567.74175" style="fill: #555555; stroke: #555555; stroke-width: 0.8"/>
      </g>
     </g>
     <g id="text_3">
      <!-- 2023-08 -->
      <g style="fill: #555555" transform="translate(237.916718 609.659567)rotate(-45)scale(0.1 -0.1)">
       <defs>
        <path id="DejaVuSans-38" d="M 2034 2216 
Q 1584 2216 1326 1975 
Q 1069 1734 1069 1313 
Q 1069 891 1326 650 
Q 1584 409 2034 409 
Q 2484 409 2743 651 
Q 3003 894 3003 1313 
Q 3003 1734 2745 1975 
Q 2488 2216 2034 2216 
z
M 1403 2484 
Q 997 2584 770 2862 
Q 544 3141 544 3541 
Q 544 4100 942 4425 
Q 1341 4750 2034 4750 
Q 2731 4750 3128 4425 
Q 3525 4100 3525 3541 
Q 3525 3141 3298 2862 
Q 3072 2584 2669 2484 
Q 3125 2378 3379 2068 
Q 3634 1759 3634 1313 
Q 3634 634 3220 271 
Q 2806 -91 2034 -91 
Q 1263 -91 848 271 
Q 434 634 434 1313 
Q 434 1759 690 2068 
Q 947 2378 1403 2484 
z
M 1172 3481 
Q 1172 3119 1398 2916 
Q 1625 2713 2034 2713 
Q 2441 2713 2670 2916 
Q 2900 3119 2900 3481 
Q 2900 3844 2670 4047 
Q 2441 4250 2034 4250 
Q 1625 4250 1398 4047 
Q 1172 3844 1172 3481 
z
" transform="scale(0.015625)"/>
       </defs>
       <use xlink:href="#DejaVuSans-32"/>
       <use xlink:href="#DejaVuSans-30" x="63.623047"/>
       <use xlink:href="#DejaVuSans-32" x="127.246094"/>
       <use xlink:href="#DejaVuSans-33" x="190.869141"/>
       <use xlink:href="#DejaVuSans-2d" x="254.492188"/>
       <use xlink:href="#DejaVuSans-30" x="290.576172"/>
       <use xlink:href="#DejaVuSans-38" x="354.199219"/>
      </g>
     </g>
    </g>
    <g id="xtick_4">
     <g id="line2d_7">
      <path d="M 330.704184 567.74175 
L 330.704184 24.14175 
" clip-path="url(#p3415a817fe)" style="fill: none; stroke: #ffffff; stroke-width: 0.8; stroke-linecap: square"/>
     </g>
     <g id="line2d_8">
      <g>
       <use xlink:href="#m88ef486830" x="330.704184" y="567.74175" style="fill: #555555; stroke: #555555; stroke-width: 0.8"/>
      </g>
     </g>
     <g id="text_4">
      <!-- 2023-09 -->
      <g style="fill: #555555" transform="translate(317.882901 609.659567)rotate(-45)scale(0.1 -0.1)">
       <defs>
        <path id="DejaVuSans-39" d="M 703 97 
L 703 672 
Q 941 559 1184 500 
Q 1428 441 1663 441 
Q 2288 441 2617 861 
Q 2947 1281 2994 2138 
Q 2813 1869 2534 1725 
Q 2256 1581 1919 1581 
Q 1219 1581 811 2004 
Q 403 2428 403 3163 
Q 403 3881 828 4315 
Q 1253 4750 1959 4750 
Q 2769 4750 3195 4129 
Q 3622 3509 3622 2328 
Q 3622 1225 3098 567 
Q 2575 -91 1691 -91 
Q 1453 -91 1209 -44 
Q 966 3 703 97 
z
M 1959 2075 
Q 2384 2075 2632 2365 
Q 2881 2656 2881 3163 
Q 2881 3666 2632 3958 
Q 2384 4250 1959 4250 
Q 1534 4250 1286 3958 
Q 1038 3666 1038 3163 
Q 1038 2656 1286 2365 
Q 1534 2075 1959 2075 
z
" transform="scale(0.015625)"/>
       </defs>
       <use xlink:href="#DejaVuSans-32"/>
       <use xlink:href="#DejaVuSans-30" x="63.623047"/>
       <use xlink:href="#DejaVuSans-32" x="127.246094"/>
       <use xlink:href="#DejaVuSans-33" x="190.869141"/>
       <use xlink:href="#DejaVuSans-2d" x="254.492188"/>
       <use xlink:href="#DejaVuSans-30" x="290.576172"/>
       <use xlink:href="#DejaVuSans-39" x="354.199219"/>
      </g>
     </g>
    </g>
    <g id="xtick_5">
     <g id="line2d_9">
      <path d="M 408.090812 567.74175 
L 408.090812 24.14175 
" clip-path="url(#p3415a817fe)" style="fill: none; stroke: #ffffff; stroke-width: 0.8; stroke-linecap: square"/>
     </g>
     <g id="line2d_10">
      <g>
       <use xlink:href="#m88ef486830" x="408.090812" y="567.74175" style="fill: #555555; stroke: #555555; stroke-width: 0.8"/>
      </g>
     </g>
     <g id="text_5">
      <!-- 2023-10 -->
      <g style="fill: #555555" transform="translate(395.26953 609.659567)rotate(-45)scale(0.1 -0.1)">
       <defs>
        <path id="DejaVuSans-31" d="M 794 531 
L 1825 531 
L 1825 4091 
L 703 3866 
L 703 4441 
L 1819 4666 
L 2450 4666 
L 2450 531 
L 3481 531 
L 3481 0 
L 794 0 
L 794 531 
z
" transform="scale(0.015625)"/>
       </defs>
       <use xlink:href="#DejaVuSans-32"/>
       <use xlink:href="#DejaVuSans-30" x="63.623047"/>
       <use xlink:href="#DejaVuSans-32" x="127.246094"/>
       <use xlink:href="#DejaVuSans-33" x="190.869141"/>
       <use xlink:href="#DejaVuSans-2d" x="254.492188"/>
       <use xlink:href="#DejaVuSans-31" x="290.576172"/>
       <use xlink:href="#DejaVuSans-30" x="354.199219"/>
      </g>
     </g>
    </g>
    <g id="xtick_6">
     <g id="line2d_11">
      <path d="M 488.056995 567.74175 
L 488.056995 24.14175 
" clip-path="url(#p3415a817fe)" style="fill: none; stroke: #ffffff; stroke-width: 0.8; stroke-linecap: square"/>
     </g>
     <g id="line2d_12">
      <g>
       <use xlink:href="#m88ef486830" x="488.056995" y="567.74175" style="fill: #555555; stroke: #555555; stroke-width: 0.8"/>
      </g>
     </g>
     <g id="text_6">
      <!-- 2023-11 -->
      <g style="fill: #555555" transform="translate(475.235713 609.659567)rotate(-45)scale(0.1 -0.1)">
       <use xlink:href="#DejaVuSans-32"/>
       <use xlink:href="#DejaVuSans-30" x="63.623047"/>
       <use xlink:href="#DejaVuSans-32" x="127.246094"/>
       <use xlink:href="#DejaVuSans-33" x="190.869141"/>
       <use xlink:href="#DejaVuSans-2d" x="254.492188"/>
       <use xlink:href="#DejaVuSans-31" x="290.576172"/>
       <use xlink:href="#DejaVuSans-31" x="354.199219"/>
      </g>
     </g>
    </g>
    <g id="xtick_7">
     <g id="line2d_13">
      <path d="M 565.443624 567.74175 
L 565.443624 24.14175 
" clip-path="url(#p3415a817fe)" style="fill: none; stroke: #ffffff; stroke-width: 0.8; stroke-linecap: square"/>
     </g>
     <g id="line2d_14">
      <g>
       <use xlink:href="#m88ef486830" x="565.443624" y="567.74175" style="fill: #555555; stroke: #555555; stroke-width: 0.8"/>
      </g>
     </g>
     <g id="text_7">
      <!-- 2023-12 -->
      <g style="fill: #555555" transform="translate(552.622341 609.659567)rotate(-45)scale(0.1 -0.1)">
       <use xlink:href="#DejaVuSans-32"/>
       <use xlink:href="#DejaVuSans-30" x="63.623047"/>
       <use xlink:href="#DejaVuSans-32" x="127.246094"/>
       <use xlink:href="#DejaVuSans-33" x="190.869141"/>
       <use xlink:href="#DejaVuSans-2d" x="254.492188"/>
       <use xlink:href="#DejaVuSans-31" x="290.576172"/>
       <use xlink:href="#DejaVuSans-32" x="354.199219"/>
      </g>
     </g>
    </g>
    <g id="xtick_8">
     <g id="line2d_15">
      <path d="M 645.409806 567.74175 
L 645.409806 24.14175 
" clip-path="url(#p3415a817fe)" style="fill: none; stroke: #ffffff; stroke-width: 0.8; stroke-linecap: square"/>
     </g>
     <g id="line2d_16">
      <g>
       <use xlink:href="#m88ef486830" x="645.409806" y="567.74175" style="fill: #555555; stroke: #555555; stroke-width: 0.8"/>
      </g>
     </g>
     <g id="text_8">
      <!-- 2024-01 -->
      <g style="fill: #555555" transform="translate(632.588524 609.659567)rotate(-45)scale(0.1 -0.1)">
       <defs>
        <path id="DejaVuSans-34" d="M 2419 4116 
L 825 1625 
L 2419 1625 
L 2419 4116 
z
M 2253 4666 
L 3047 4666 
L 3047 1625 
L 3713 1625 
L 3713 1100 
L 3047 1100 
L 3047 0 
L 2419 0 
L 2419 1100 
L 313 1100 
L 313 1709 
L 2253 4666 
z
" transform="scale(0.015625)"/>
       </defs>
       <use xlink:href="#DejaVuSans-32"/>
       <use xlink:href="#DejaVuSans-30" x="63.623047"/>
       <use xlink:href="#DejaVuSans-32" x="127.246094"/>
       <use xlink:href="#DejaVuSans-34" x="190.869141"/>
       <use xlink:href="#DejaVuSans-2d" x="254.492188"/>
       <use xlink:href="#DejaVuSans-30" x="290.576172"/>
       <use xlink:href="#DejaVuSans-31" x="354.199219"/>
      </g>
     </g>
    </g>
    <g id="xtick_9">
     <g id="line2d_17">
      <path d="M 725.375989 567.74175 
L 725.375989 24.14175 
" clip-path="url(#p3415a817fe)" style="fill: none; stroke: #ffffff; stroke-width: 0.8; stroke-linecap: square"/>
     </g>
     <g id="line2d_18">
      <g>
       <use xlink:href="#m88ef486830" x="725.375989" y="567.74175" style="fill: #555555; stroke: #555555; stroke-width: 0.8"/>
      </g>
     </g>
     <g id="text_9">
      <!-- 2024-02 -->
      <g style="fill: #555555" transform="translate(712.554707 609.659567)rotate(-45)scale(0.1 -0.1)">
       <use xlink:href="#DejaVuSans-32"/>
       <use xlink:href="#DejaVuSans-30" x="63.623047"/>
       <use xlink:href="#DejaVuSans-32" x="127.246094"/>
       <use xlink:href="#DejaVuSans-34" x="190.869141"/>
       <use xlink:href="#DejaVuSans-2d" x="254.492188"/>
       <use xlink:href="#DejaVuSans-30" x="290.576172"/>
       <use xlink:href="#DejaVuSans-32" x="354.199219"/>
      </g>
     </g>
    </g>
    <g id="xtick_10">
     <g id="line2d_19">
      <path d="M 800.183064 567.74175 
L 800.183064 24.14175 
" clip-path="url(#p3415a817fe)" style="fill: none; stroke: #ffffff; stroke-width: 0.8; stroke-linecap: square"/>
     </g>
     <g id="line2d_20">
      <g>
       <use xlink:href="#m88ef486830" x="800.183064" y="567.74175" style="fill: #555555; stroke: #555555; stroke-width: 0.8"/>
      </g>
     </g>
     <g id="text_10">
      <!-- 2024-03 -->
      <g style="fill: #555555" transform="translate(787.361781 609.659567)rotate(-45)scale(0.1 -0.1)">
       <use xlink:href="#DejaVuSans-32"/>
       <use xlink:href="#DejaVuSans-30" x="63.623047"/>
       <use xlink:href="#DejaVuSans-32" x="127.246094"/>
       <use xlink:href="#DejaVuSans-34" x="190.869141"/>
       <use xlink:href="#DejaVuSans-2d" x="254.492188"/>
       <use xlink:href="#DejaVuSans-30" x="290.576172"/>
       <use xlink:href="#DejaVuSans-33" x="354.199219"/>
      </g>
     </g>
    </g>
    <g id="xtick_11">
     <g id="line2d_21">
      <path d="M 880.149246 567.74175 
L 880.149246 24.14175 
" clip-path="url(#p3415a817fe)" style="fill: none; stroke: #ffffff; stroke-width: 0.8; stroke-linecap: square"/>
     </g>
     <g id="line2d_22">
      <g>
       <use xlink:href="#m88ef486830" x="880.149246" y="567.74175" style="fill: #555555; stroke: #555555; stroke-width: 0.8"/>
      </g>
     </g>
     <g id="text_11">
      <!-- 2024-04 -->
      <g style="fill: #555555" transform="translate(867.327964 609.659567)rotate(-45)scale(0.1 -0.1)">
       <use xlink:href="#DejaVuSans-32"/>
       <use xlink:href="#DejaVuSans-30" x="63.623047"/>
       <use xlink:href="#DejaVuSans-32" x="127.246094"/>
       <use xlink:href="#DejaVuSans-34" x="190.869141"/>
       <use xlink:href="#DejaVuSans-2d" x="254.492188"/>
       <use xlink:href="#DejaVuSans-30" x="290.576172"/>
       <use xlink:href="#DejaVuSans-34" x="354.199219"/>
      </g>
     </g>
    </g>
    <g id="xtick_12">
     <g id="line2d_23">
      <path d="M 957.535875 567.74175 
L 957.535875 24.14175 
" clip-path="url(#p3415a817fe)" style="fill: none; stroke: #ffffff; stroke-width: 0.8; stroke-linecap: square"/>
     </g>
     <g id="line2d_24">
      <g>
       <use xlink:href="#m88ef486830" x="957.535875" y="567.74175" style="fill: #555555; stroke: #555555; stroke-width: 0.8"/>
      </g>
     </g>
     <g id="text_12">
      <!-- 2024-05 -->
      <g style="fill: #555555" transform="translate(944.714593 609.659567)rotate(-45)scale(0.1 -0.1)">
       <defs>
        <path id="DejaVuSans-35" d="M 691 4666 
L 3169 4666 
L 3169 4134 
L 1269 4134 
L 1269 2991 
Q 1406 3038 1543 3061 
Q 1681 3084 1819 3084 
Q 2600 3084 3056 2656 
Q 3513 2228 3513 1497 
Q 3513 744 3044 326 
Q 2575 -91 1722 -91 
Q 1428 -91 1123 -41 
Q 819 9 494 109 
L 494 744 
Q 775 591 1075 516 
Q 1375 441 1709 441 
Q 2250 441 2565 725 
Q 2881 1009 2881 1497 
Q 2881 1984 2565 2268 
Q 2250 2553 1709 2553 
Q 1456 2553 1204 2497 
Q 953 2441 691 2322 
L 691 4666 
z
" transform="scale(0.015625)"/>
       </defs>
       <use xlink:href="#DejaVuSans-32"/>
       <use xlink:href="#DejaVuSans-30" x="63.623047"/>
       <use xlink:href="#DejaVuSans-32" x="127.246094"/>
       <use xlink:href="#DejaVuSans-34" x="190.869141"/>
       <use xlink:href="#DejaVuSans-2d" x="254.492188"/>
       <use xlink:href="#DejaVuSans-30" x="290.576172"/>
       <use xlink:href="#DejaVuSans-35" x="354.199219"/>
      </g>
     </g>
    </g>
    <g id="text_13">
     <!-- Date -->
     <g style="fill: #555555" transform="translate(491.772938 624.248253)scale(0.12 -0.12)">
      <defs>
       <path id="DejaVuSans-44" d="M 1259 4147 
L 1259 519 
L 2022 519 
Q 2988 519 3436 956 
Q 3884 1394 3884 2338 
Q 3884 3275 3436 3711 
Q 2988 4147 2022 4147 
L 1259 4147 
z
M 628 4666 
L 1925 4666 
Q 3281 4666 3915 4102 
Q 4550 3538 4550 2338 
Q 4550 1131 3912 565 
Q 3275 0 1925 0 
L 628 0 
L 628 4666 
z
" transform="scale(0.015625)"/>
       <path id="DejaVuSans-61" d="M 2194 1759 
Q 1497 1759 1228 1600 
Q 959 1441 959 1056 
Q 959 750 1161 570 
Q 1363 391 1709 391 
Q 2188 391 2477 730 
Q 2766 1069 2766 1631 
L 2766 1759 
L 2194 1759 
z
M 3341 1997 
L 3341 0 
L 2766 0 
L 2766 531 
Q 2569 213 2275 61 
Q 1981 -91 1556 -91 
Q 1019 -91 701 211 
Q 384 513 384 1019 
Q 384 1609 779 1909 
Q 1175 2209 1959 2209 
L 2766 2209 
L 2766 2266 
Q 2766 2663 2505 2880 
Q 2244 3097 1772 3097 
Q 1472 3097 1187 3025 
Q 903 2953 641 2809 
L 641 3341 
Q 956 3463 1253 3523 
Q 1550 3584 1831 3584 
Q 2591 3584 2966 3190 
Q 3341 2797 3341 1997 
z
" transform="scale(0.015625)"/>
       <path id="DejaVuSans-74" d="M 1172 4494 
L 1172 3500 
L 2356 3500 
L 2356 3053 
L 1172 3053 
L 1172 1153 
Q 1172 725 1289 603 
Q 1406 481 1766 481 
L 2356 481 
L 2356 0 
L 1766 0 
Q 1100 0 847 248 
Q 594 497 594 1153 
L 594 3053 
L 172 3053 
L 172 3500 
L 594 3500 
L 594 4494 
L 1172 4494 
z
" transform="scale(0.015625)"/>
       <path id="DejaVuSans-65" d="M 3597 1894 
L 3597 1613 
L 953 1613 
Q 991 1019 1311 708 
Q 1631 397 2203 397 
Q 2534 397 2845 478 
Q 3156 559 3463 722 
L 3463 178 
Q 3153 47 2828 -22 
Q 2503 -91 2169 -91 
Q 1331 -91 842 396 
Q 353 884 353 1716 
Q 353 2575 817 3079 
Q 1281 3584 2069 3584 
Q 2775 3584 3186 3129 
Q 3597 2675 3597 1894 
z
M 3022 2063 
Q 3016 2534 2758 2815 
Q 2500 3097 2075 3097 
Q 1594 3097 1305 2825 
Q 1016 2553 972 2059 
L 3022 2063 
z
" transform="scale(0.015625)"/>
      </defs>
      <use xlink:href="#DejaVuSans-44"/>
      <use xlink:href="#DejaVuSans-61" x="77.001953"/>
      <use xlink:href="#DejaVuSans-74" x="138.28125"/>
      <use xlink:href="#DejaVuSans-65" x="177.490234"/>
     </g>
    </g>
   </g>
   <g id="matplotlib.axis_2">
    <g id="ytick_1">
     <g id="line2d_25">
      <path d="M 54.691875 567.74175 
L 957.535875 567.74175 
" clip-path="url(#p3415a817fe)" style="fill: none; stroke: #ffffff; stroke-width: 0.8; stroke-linecap: square"/>
     </g>
     <g id="line2d_26">
      <defs>
       <path id="mb3575e40c4" d="M 0 0 
L -3.5 0 
" style="stroke: #555555; stroke-width: 0.8"/>
      </defs>
      <g>
       <use xlink:href="#mb3575e40c4" x="54.691875" y="567.74175" style="fill: #555555; stroke: #555555; stroke-width: 0.8"/>
      </g>
     </g>
     <g id="text_14">
      <!-- 0k -->
      <g style="fill: #555555" transform="translate(35.53875 571.540969)scale(0.1 -0.1)">
       <defs>
        <path id="DejaVuSans-6b" d="M 581 4863 
L 1159 4863 
L 1159 1991 
L 2875 3500 
L 3609 3500 
L 1753 1863 
L 3688 0 
L 2938 0 
L 1159 1709 
L 1159 0 
L 581 0 
L 581 4863 
z
" transform="scale(0.015625)"/>
       </defs>
       <use xlink:href="#DejaVuSans-30"/>
       <use xlink:href="#DejaVuSans-6b" x="63.623047"/>
      </g>
     </g>
    </g>
    <g id="ytick_2">
     <g id="line2d_27">
      <path d="M 54.691875 484.318115 
L 957.535875 484.318115 
" clip-path="url(#p3415a817fe)" style="fill: none; stroke: #ffffff; stroke-width: 0.8; stroke-linecap: square"/>
     </g>
     <g id="line2d_28">
      <g>
       <use xlink:href="#mb3575e40c4" x="54.691875" y="484.318115" style="fill: #555555; stroke: #555555; stroke-width: 0.8"/>
      </g>
     </g>
     <g id="text_15">
      <!-- 50k -->
      <g style="fill: #555555" transform="translate(29.17625 488.117334)scale(0.1 -0.1)">
       <use xlink:href="#DejaVuSans-35"/>
       <use xlink:href="#DejaVuSans-30" x="63.623047"/>
       <use xlink:href="#DejaVuSans-6b" x="127.246094"/>
      </g>
     </g>
    </g>
    <g id="ytick_3">
     <g id="line2d_29">
      <path d="M 54.691875 400.89448 
L 957.535875 400.89448 
" clip-path="url(#p3415a817fe)" style="fill: none; stroke: #ffffff; stroke-width: 0.8; stroke-linecap: square"/>
     </g>
     <g id="line2d_30">
      <g>
       <use xlink:href="#mb3575e40c4" x="54.691875" y="400.89448" style="fill: #555555; stroke: #555555; stroke-width: 0.8"/>
      </g>
     </g>
     <g id="text_16">
      <!-- 100k -->
      <g style="fill: #555555" transform="translate(22.81375 404.693699)scale(0.1 -0.1)">
       <use xlink:href="#DejaVuSans-31"/>
       <use xlink:href="#DejaVuSans-30" x="63.623047"/>
       <use xlink:href="#DejaVuSans-30" x="127.246094"/>
       <use xlink:href="#DejaVuSans-6b" x="190.869141"/>
      </g>
     </g>
    </g>
    <g id="ytick_4">
     <g id="line2d_31">
      <path d="M 54.691875 317.470846 
L 957.535875 317.470846 
" clip-path="url(#p3415a817fe)" style="fill: none; stroke: #ffffff; stroke-width: 0.8; stroke-linecap: square"/>
     </g>
     <g id="line2d_32">
      <g>
       <use xlink:href="#mb3575e40c4" x="54.691875" y="317.470846" style="fill: #555555; stroke: #555555; stroke-width: 0.8"/>
      </g>
     </g>
     <g id="text_17">
      <!-- 150k -->
      <g style="fill: #555555" transform="translate(22.81375 321.270064)scale(0.1 -0.1)">
       <use xlink:href="#DejaVuSans-31"/>
       <use xlink:href="#DejaVuSans-35" x="63.623047"/>
       <use xlink:href="#DejaVuSans-30" x="127.246094"/>
       <use xlink:href="#DejaVuSans-6b" x="190.869141"/>
      </g>
     </g>
    </g>
    <g id="ytick_5">
     <g id="line2d_33">
      <path d="M 54.691875 234.047211 
L 957.535875 234.047211 
" clip-path="url(#p3415a817fe)" style="fill: none; stroke: #ffffff; stroke-width: 0.8; stroke-linecap: square"/>
     </g>
     <g id="line2d_34">
      <g>
       <use xlink:href="#mb3575e40c4" x="54.691875" y="234.047211" style="fill: #555555; stroke: #555555; stroke-width: 0.8"/>
      </g>
     </g>
     <g id="text_18">
      <!-- 200k -->
      <g style="fill: #555555" transform="translate(22.81375 237.84643)scale(0.1 -0.1)">
       <use xlink:href="#DejaVuSans-32"/>
       <use xlink:href="#DejaVuSans-30" x="63.623047"/>
       <use xlink:href="#DejaVuSans-30" x="127.246094"/>
       <use xlink:href="#DejaVuSans-6b" x="190.869141"/>
      </g>
     </g>
    </g>
    <g id="ytick_6">
     <g id="line2d_35">
      <path d="M 54.691875 150.623576 
L 957.535875 150.623576 
" clip-path="url(#p3415a817fe)" style="fill: none; stroke: #ffffff; stroke-width: 0.8; stroke-linecap: square"/>
     </g>
     <g id="line2d_36">
      <g>
       <use xlink:href="#mb3575e40c4" x="54.691875" y="150.623576" style="fill: #555555; stroke: #555555; stroke-width: 0.8"/>
      </g>
     </g>
     <g id="text_19">
      <!-- 250k -->
      <g style="fill: #555555" transform="translate(22.81375 154.422795)scale(0.1 -0.1)">
       <use xlink:href="#DejaVuSans-32"/>
       <use xlink:href="#DejaVuSans-35" x="63.623047"/>
       <use xlink:href="#DejaVuSans-30" x="127.246094"/>
       <use xlink:href="#DejaVuSans-6b" x="190.869141"/>
      </g>
     </g>
    </g>
    <g id="ytick_7">
     <g id="line2d_37">
      <path d="M 54.691875 67.199941 
L 957.535875 67.199941 
" clip-path="url(#p3415a817fe)" style="fill: none; stroke: #ffffff; stroke-width: 0.8; stroke-linecap: square"/>
     </g>
     <g id="line2d_38">
      <g>
       <use xlink:href="#mb3575e40c4" x="54.691875" y="67.199941" style="fill: #555555; stroke: #555555; stroke-width: 0.8"/>
      </g>
     </g>
     <g id="text_20">
      <!-- 300k -->
      <g style="fill: #555555" transform="translate(22.81375 70.99916)scale(0.1 -0.1)">
       <use xlink:href="#DejaVuSans-33"/>
       <use xlink:href="#DejaVuSans-30" x="63.623047"/>
       <use xlink:href="#DejaVuSans-30" x="127.246094"/>
       <use xlink:href="#DejaVuSans-6b" x="190.869141"/>
      </g>
     </g>
    </g>
    <g id="text_21">
     <!-- Instances -->
     <g style="fill: #555555" transform="translate(16.318125 324.588)rotate(-90)scale(0.12 -0.12)">
      <defs>
       <path id="DejaVuSans-49" d="M 628 4666 
L 1259 4666 
L 1259 0 
L 628 0 
L 628 4666 
z
" transform="scale(0.015625)"/>
       <path id="DejaVuSans-6e" d="M 3513 2113 
L 3513 0 
L 2938 0 
L 2938 2094 
Q 2938 2591 2744 2837 
Q 2550 3084 2163 3084 
Q 1697 3084 1428 2787 
Q 1159 2491 1159 1978 
L 1159 0 
L 581 0 
L 581 3500 
L 1159 3500 
L 1159 2956 
Q 1366 3272 1645 3428 
Q 1925 3584 2291 3584 
Q 2894 3584 3203 3211 
Q 3513 2838 3513 2113 
z
" transform="scale(0.015625)"/>
       <path id="DejaVuSans-73" d="M 2834 3397 
L 2834 2853 
Q 2591 2978 2328 3040 
Q 2066 3103 1784 3103 
Q 1356 3103 1142 2972 
Q 928 2841 928 2578 
Q 928 2378 1081 2264 
Q 1234 2150 1697 2047 
L 1894 2003 
Q 2506 1872 2764 1633 
Q 3022 1394 3022 966 
Q 3022 478 2636 193 
Q 2250 -91 1575 -91 
Q 1294 -91 989 -36 
Q 684 19 347 128 
L 347 722 
Q 666 556 975 473 
Q 1284 391 1588 391 
Q 1994 391 2212 530 
Q 2431 669 2431 922 
Q 2431 1156 2273 1281 
Q 2116 1406 1581 1522 
L 1381 1569 
Q 847 1681 609 1914 
Q 372 2147 372 2553 
Q 372 3047 722 3315 
Q 1072 3584 1716 3584 
Q 2034 3584 2315 3537 
Q 2597 3491 2834 3397 
z
" transform="scale(0.015625)"/>
       <path id="DejaVuSans-63" d="M 3122 3366 
L 3122 2828 
Q 2878 2963 2633 3030 
Q 2388 3097 2138 3097 
Q 1578 3097 1268 2742 
Q 959 2388 959 1747 
Q 959 1106 1268 751 
Q 1578 397 2138 397 
Q 2388 397 2633 464 
Q 2878 531 3122 666 
L 3122 134 
Q 2881 22 2623 -34 
Q 2366 -91 2075 -91 
Q 1284 -91 818 406 
Q 353 903 353 1747 
Q 353 2603 823 3093 
Q 1294 3584 2113 3584 
Q 2378 3584 2631 3529 
Q 2884 3475 3122 3366 
z
" transform="scale(0.015625)"/>
      </defs>
      <use xlink:href="#DejaVuSans-49"/>
      <use xlink:href="#DejaVuSans-6e" x="29.492188"/>
      <use xlink:href="#DejaVuSans-73" x="92.871094"/>
      <use xlink:href="#DejaVuSans-74" x="144.970703"/>
      <use xlink:href="#DejaVuSans-61" x="184.179688"/>
      <use xlink:href="#DejaVuSans-6e" x="245.458984"/>
      <use xlink:href="#DejaVuSans-63" x="308.837891"/>
      <use xlink:href="#DejaVuSans-65" x="363.818359"/>
      <use xlink:href="#DejaVuSans-73" x="425.341797"/>
     </g>
    </g>
   </g>
   <g id="line2d_39">
    <path d="M 54.691875 445.896086 
L 63.811511 445.115603 
L 72.931148 444.335119 
L 82.050784 443.554636 
L 91.17042 442.774153 
L 100.290057 441.99367 
L 109.409693 441.213187 
L 118.52933 440.432704 
L 127.648966 439.652221 
L 136.768602 438.871738 
L 145.888239 438.091254 
L 155.007875 437.310771 
L 164.127511 436.530288 
L 173.247148 435.749805 
L 182.366784 434.969322 
L 191.48642 434.188839 
L 200.606057 433.408356 
L 209.725693 432.627873 
L 218.84533 431.84739 
L 227.964966 431.066906 
L 237.084602 430.286423 
L 246.204239 429.50594 
L 255.323875 428.725457 
L 264.443511 427.944974 
L 273.563148 427.164491 
L 282.682784 426.384008 
L 291.80242 425.603525 
L 300.922057 424.823042 
L 310.041693 424.042558 
L 319.16133 423.262075 
L 328.280966 422.481592 
L 337.400602 421.701109 
L 346.520239 420.920626 
L 355.639875 420.140143 
L 364.759511 419.35966 
L 373.879148 418.579177 
L 382.998784 417.798694 
L 392.11842 417.01821 
L 401.238057 416.237727 
L 410.357693 415.457244 
L 419.47733 414.676761 
L 428.596966 413.896278 
L 437.716602 413.115795 
L 446.836239 412.335312 
L 455.955875 411.554829 
L 465.075511 410.774346 
L 474.195148 409.993862 
L 483.314784 409.213379 
L 492.43442 408.432896 
L 501.554057 407.652413 
L 510.673693 406.87193 
L 519.79333 406.091447 
L 528.912966 405.310964 
L 538.032602 404.530481 
L 547.152239 403.749998 
L 556.271875 402.969514 
L 565.391511 402.189031 
L 574.511148 401.408548 
L 583.630784 400.628065 
L 592.75042 399.847582 
L 601.870057 399.067099 
L 610.989693 398.286616 
L 620.10933 397.506133 
L 629.228966 396.725649 
L 638.348602 395.945166 
L 647.468239 395.164683 
L 656.587875 394.3842 
L 665.707511 393.603717 
L 674.827148 392.823234 
L 683.946784 392.042751 
L 693.06642 391.262268 
L 702.186057 390.481785 
L 711.305693 389.701301 
L 720.42533 388.920818 
L 729.544966 388.140335 
L 738.664602 387.359852 
L 747.784239 386.579369 
L 756.903875 385.798886 
L 766.023511 385.018403 
L 775.143148 384.23792 
L 784.262784 383.457437 
L 793.38242 382.676953 
L 802.502057 381.89647 
L 811.621693 381.115987 
L 820.74133 380.335504 
L 829.860966 379.555021 
L 838.980602 378.774538 
L 848.100239 377.994055 
L 857.219875 377.213572 
L 866.339511 376.433089 
L 875.459148 375.652605 
L 884.578784 374.872122 
L 893.69842 374.091639 
L 902.818057 373.311156 
L 911.937693 372.530673 
L 921.05733 371.75019 
L 930.176966 370.969707 
L 939.296602 370.189224 
L 948.416239 369.408741 
L 957.535875 368.628257 
" clip-path="url(#p3415a817fe)" style="fill: none; stroke-dasharray: 1.5,2.475; stroke-dashoffset: 0; stroke: #4ac1fa; stroke-width: 1.5"/>
   </g>
   <g id="line2d_40">
    <path d="M 54.691875 447.269222 
L 63.811511 447.743628 
L 72.931148 448.218034 
L 82.050784 448.69244 
L 91.17042 449.166846 
L 100.290057 449.641252 
L 109.409693 450.115658 
L 118.52933 450.590063 
L 127.648966 451.064469 
L 136.768602 451.538875 
L 145.888239 452.013281 
L 155.007875 452.487687 
L 164.127511 452.962093 
L 173.247148 453.436499 
L 182.366784 453.910904 
L 191.48642 454.38531 
L 200.606057 454.859716 
L 209.725693 455.334122 
L 218.84533 455.808528 
L 227.964966 456.282934 
L 237.084602 456.75734 
L 246.204239 457.231745 
L 255.323875 457.706151 
L 264.443511 458.180557 
L 273.563148 458.654963 
L 282.682784 459.129369 
L 291.80242 459.603775 
L 300.922057 460.078181 
L 310.041693 460.552586 
L 319.16133 461.026992 
L 328.280966 461.501398 
L 337.400602 461.975804 
L 346.520239 462.45021 
L 355.639875 462.924616 
L 364.759511 463.399022 
L 373.879148 463.873427 
L 382.998784 464.347833 
L 392.11842 464.822239 
L 401.238057 465.296645 
L 410.357693 465.771051 
L 419.47733 466.245457 
L 428.596966 466.719863 
L 437.716602 467.194268 
L 446.836239 467.668674 
L 455.955875 468.14308 
L 465.075511 468.617486 
L 474.195148 469.091892 
L 483.314784 469.566298 
L 492.43442 470.040704 
L 501.554057 470.515109 
L 510.673693 470.989515 
L 519.79333 471.463921 
L 528.912966 471.938327 
L 538.032602 472.412733 
L 547.152239 472.887139 
L 556.271875 473.361545 
L 565.391511 473.83595 
L 574.511148 474.310356 
L 583.630784 474.784762 
L 592.75042 475.259168 
L 601.870057 475.733574 
L 610.989693 476.20798 
L 620.10933 476.682386 
L 629.228966 477.156791 
L 638.348602 477.631197 
L 647.468239 478.105603 
L 656.587875 478.580009 
L 665.707511 479.054415 
L 674.827148 479.528821 
L 683.946784 480.003227 
L 693.06642 480.477632 
L 702.186057 480.952038 
L 711.305693 481.426444 
L 720.42533 481.90085 
L 729.544966 482.375256 
L 738.664602 482.849662 
L 747.784239 483.324068 
L 756.903875 483.798473 
L 766.023511 484.272879 
L 775.143148 484.747285 
L 784.262784 485.221691 
L 793.38242 485.696097 
L 802.502057 486.170503 
L 811.621693 486.644909 
L 820.74133 487.119314 
L 829.860966 487.59372 
L 838.980602 488.068126 
L 848.100239 488.542532 
L 857.219875 489.016938 
L 866.339511 489.491344 
L 875.459148 489.96575 
L 884.578784 490.440155 
L 893.69842 490.914561 
L 902.818057 491.388967 
L 911.937693 491.863373 
L 921.05733 492.337779 
L 930.176966 492.812185 
L 939.296602 493.286591 
L 948.416239 493.760996 
L 957.535875 494.235402 
" clip-path="url(#p3415a817fe)" style="fill: none; stroke-dasharray: 1.5,2.475; stroke-dashoffset: 0; stroke: #e9a942; stroke-width: 1.5"/>
   </g>
   <g id="line2d_41">
    <path d="M 54.691875 476.450822 
L 63.811511 476.014753 
L 72.931148 475.578685 
L 82.050784 475.142616 
L 91.17042 474.706548 
L 100.290057 474.270479 
L 109.409693 473.834411 
L 118.52933 473.398342 
L 127.648966 472.962274 
L 136.768602 472.526205 
L 145.888239 472.090137 
L 155.007875 471.654068 
L 164.127511 471.218 
L 173.247148 470.781931 
L 182.366784 470.345863 
L 191.48642 469.909795 
L 200.606057 469.473726 
L 209.725693 469.037658 
L 218.84533 468.601589 
L 227.964966 468.165521 
L 237.084602 467.729452 
L 246.204239 467.293384 
L 255.323875 466.857315 
L 264.443511 466.421247 
L 273.563148 465.985178 
L 282.682784 465.54911 
L 291.80242 465.113041 
L 300.922057 464.676973 
L 310.041693 464.240904 
L 319.16133 463.804836 
L 328.280966 463.368767 
L 337.400602 462.932699 
L 346.520239 462.496631 
L 355.639875 462.060562 
L 364.759511 461.624494 
L 373.879148 461.188425 
L 382.998784 460.752357 
L 392.11842 460.316288 
L 401.238057 459.88022 
L 410.357693 459.444151 
L 419.47733 459.008083 
L 428.596966 458.572014 
L 437.716602 458.135946 
L 446.836239 457.699877 
L 455.955875 457.263809 
L 465.075511 456.82774 
L 474.195148 456.391672 
L 483.314784 455.955603 
L 492.43442 455.519535 
L 501.554057 455.083467 
L 510.673693 454.647398 
L 519.79333 454.21133 
L 528.912966 453.775261 
L 538.032602 453.339193 
L 547.152239 452.903124 
L 556.271875 452.467056 
L 565.391511 452.030987 
L 574.511148 451.594919 
L 583.630784 451.15885 
L 592.75042 450.722782 
L 601.870057 450.286713 
L 610.989693 449.850645 
L 620.10933 449.414576 
L 629.228966 448.978508 
L 638.348602 448.542439 
L 647.468239 448.106371 
L 656.587875 447.670303 
L 665.707511 447.234234 
L 674.827148 446.798166 
L 683.946784 446.362097 
L 693.06642 445.926029 
L 702.186057 445.48996 
L 711.305693 445.053892 
L 720.42533 444.617823 
L 729.544966 444.181755 
L 738.664602 443.745686 
L 747.784239 443.309618 
L 756.903875 442.873549 
L 766.023511 442.437481 
L 775.143148 442.001412 
L 784.262784 441.565344 
L 793.38242 441.129275 
L 802.502057 440.693207 
L 811.621693 440.257139 
L 820.74133 439.82107 
L 829.860966 439.385002 
L 838.980602 438.948933 
L 848.100239 438.512865 
L 857.219875 438.076796 
L 866.339511 437.640728 
L 875.459148 437.204659 
L 884.578784 436.768591 
L 893.69842 436.332522 
L 902.818057 435.896454 
L 911.937693 435.460385 
L 921.05733 435.024317 
L 930.176966 434.588248 
L 939.296602 434.15218 
L 948.416239 433.716111 
L 957.535875 433.280043 
" clip-path="url(#p3415a817fe)" style="fill: none; stroke-dasharray: 1.5,2.475; stroke-dashoffset: 0; stroke: #9a5689; stroke-width: 1.5"/>
   </g>
   <g id="line2d_42">
    <path d="M 54.691875 516.852331 
L 63.811511 516.430431 
L 72.931148 516.00853 
L 82.050784 515.58663 
L 91.17042 515.16473 
L 100.290057 514.74283 
L 109.409693 514.320929 
L 118.52933 513.899029 
L 127.648966 513.477129 
L 136.768602 513.055229 
L 145.888239 512.633328 
L 155.007875 512.211428 
L 164.127511 511.789528 
L 173.247148 511.367627 
L 182.366784 510.945727 
L 191.48642 510.523827 
L 200.606057 510.101927 
L 209.725693 509.680026 
L 218.84533 509.258126 
L 227.964966 508.836226 
L 237.084602 508.414326 
L 246.204239 507.992425 
L 255.323875 507.570525 
L 264.443511 507.148625 
L 273.563148 506.726724 
L 282.682784 506.304824 
L 291.80242 505.882924 
L 300.922057 505.461024 
L 310.041693 505.039123 
L 319.16133 504.617223 
L 328.280966 504.195323 
L 337.400602 503.773423 
L 346.520239 503.351522 
L 355.639875 502.929622 
L 364.759511 502.507722 
L 373.879148 502.085821 
L 382.998784 501.663921 
L 392.11842 501.242021 
L 401.238057 500.820121 
L 410.357693 500.39822 
L 419.47733 499.97632 
L 428.596966 499.55442 
L 437.716602 499.13252 
L 446.836239 498.710619 
L 455.955875 498.288719 
L 465.075511 497.866819 
L 474.195148 497.444918 
L 483.314784 497.023018 
L 492.43442 496.601118 
L 501.554057 496.179218 
L 510.673693 495.757317 
L 519.79333 495.335417 
L 528.912966 494.913517 
L 538.032602 494.491617 
L 547.152239 494.069716 
L 556.271875 493.647816 
L 565.391511 493.225916 
L 574.511148 492.804016 
L 583.630784 492.382115 
L 592.75042 491.960215 
L 601.870057 491.538315 
L 610.989693 491.116414 
L 620.10933 490.694514 
L 629.228966 490.272614 
L 638.348602 489.850714 
L 647.468239 489.428813 
L 656.587875 489.006913 
L 665.707511 488.585013 
L 674.827148 488.163113 
L 683.946784 487.741212 
L 693.06642 487.319312 
L 702.186057 486.897412 
L 711.305693 486.475511 
L 720.42533 486.053611 
L 729.544966 485.631711 
L 738.664602 485.209811 
L 747.784239 484.78791 
L 756.903875 484.36601 
L 766.023511 483.94411 
L 775.143148 483.52221 
L 784.262784 483.100309 
L 793.38242 482.678409 
L 802.502057 482.256509 
L 811.621693 481.834608 
L 820.74133 481.412708 
L 829.860966 480.990808 
L 838.980602 480.568908 
L 848.100239 480.147007 
L 857.219875 479.725107 
L 866.339511 479.303207 
L 875.459148 478.881307 
L 884.578784 478.459406 
L 893.69842 478.037506 
L 902.818057 477.615606 
L 911.937693 477.193705 
L 921.05733 476.771805 
L 930.176966 476.349905 
L 939.296602 475.928005 
L 948.416239 475.506104 
L 957.535875 475.084204 
" clip-path="url(#p3415a817fe)" style="fill: none; stroke-dasharray: 1.5,2.475; stroke-dashoffset: 0; stroke: #be503b; stroke-width: 1.5"/>
   </g>
   <g id="line2d_43">
    <path d="M 54.691875 434.32817 
L 63.811511 433.317725 
L 72.931148 432.30728 
L 82.050784 431.296835 
L 91.17042 430.28639 
L 100.290057 429.275945 
L 109.409693 428.2655 
L 118.52933 427.255055 
L 127.648966 426.244611 
L 136.768602 425.234166 
L 145.888239 424.223721 
L 155.007875 423.213276 
L 164.127511 422.202831 
L 173.247148 421.192386 
L 182.366784 420.181941 
L 191.48642 419.171496 
L 200.606057 418.161052 
L 209.725693 417.150607 
L 218.84533 416.140162 
L 227.964966 415.129717 
L 237.084602 414.119272 
L 246.204239 413.108827 
L 255.323875 412.098382 
L 264.443511 411.087937 
L 273.563148 410.077492 
L 282.682784 409.067048 
L 291.80242 408.056603 
L 300.922057 407.046158 
L 310.041693 406.035713 
L 319.16133 405.025268 
L 328.280966 404.014823 
L 337.400602 403.004378 
L 346.520239 401.993933 
L 355.639875 400.983488 
L 364.759511 399.973044 
L 373.879148 398.962599 
L 382.998784 397.952154 
L 392.11842 396.941709 
L 401.238057 395.931264 
L 410.357693 394.920819 
L 419.47733 393.910374 
L 428.596966 392.899929 
L 437.716602 391.889484 
L 446.836239 390.87904 
L 455.955875 389.868595 
L 465.075511 388.85815 
L 474.195148 387.847705 
L 483.314784 386.83726 
L 492.43442 385.826815 
L 501.554057 384.81637 
L 510.673693 383.805925 
L 519.79333 382.79548 
L 528.912966 381.785036 
L 538.032602 380.774591 
L 547.152239 379.764146 
L 556.271875 378.753701 
L 565.391511 377.743256 
L 574.511148 376.732811 
L 583.630784 375.722366 
L 592.75042 374.711921 
L 601.870057 373.701476 
L 610.989693 372.691032 
L 620.10933 371.680587 
L 629.228966 370.670142 
L 638.348602 369.659697 
L 647.468239 368.649252 
L 656.587875 367.638807 
L 665.707511 366.628362 
L 674.827148 365.617917 
L 683.946784 364.607472 
L 693.06642 363.597028 
L 702.186057 362.586583 
L 711.305693 361.576138 
L 720.42533 360.565693 
L 729.544966 359.555248 
L 738.664602 358.544803 
L 747.784239 357.534358 
L 756.903875 356.523913 
L 766.023511 355.513468 
L 775.143148 354.503024 
L 784.262784 353.492579 
L 793.38242 352.482134 
L 802.502057 351.471689 
L 811.621693 350.461244 
L 820.74133 349.450799 
L 829.860966 348.440354 
L 838.980602 347.429909 
L 848.100239 346.419464 
L 857.219875 345.40902 
L 866.339511 344.398575 
L 875.459148 343.38813 
L 884.578784 342.377685 
L 893.69842 341.36724 
L 902.818057 340.356795 
L 911.937693 339.34635 
L 921.05733 338.335905 
L 930.176966 337.32546 
L 939.296602 336.315016 
L 948.416239 335.304571 
L 957.535875 334.294126 
" clip-path="url(#p3415a817fe)" style="fill: none; stroke-dasharray: 1.5,2.475; stroke-dashoffset: 0; stroke: #e2321d; stroke-width: 1.5"/>
   </g>
   <g id="line2d_44">
    <path d="M 54.691875 389.004337 
L 63.811511 386.223083 
L 72.931148 383.441829 
L 82.050784 380.660576 
L 91.17042 377.879322 
L 100.290057 375.098068 
L 109.409693 372.316815 
L 118.52933 369.535561 
L 127.648966 366.754307 
L 136.768602 363.973053 
L 145.888239 361.1918 
L 155.007875 358.410546 
L 164.127511 355.629292 
L 173.247148 352.848038 
L 182.366784 350.066785 
L 191.48642 347.285531 
L 200.606057 344.504277 
L 209.725693 341.723023 
L 218.84533 338.94177 
L 227.964966 336.160516 
L 237.084602 333.379262 
L 246.204239 330.598009 
L 255.323875 327.816755 
L 264.443511 325.035501 
L 273.563148 322.254247 
L 282.682784 319.472994 
L 291.80242 316.69174 
L 300.922057 313.910486 
L 310.041693 311.129232 
L 319.16133 308.347979 
L 328.280966 305.566725 
L 337.400602 302.785471 
L 346.520239 300.004218 
L 355.639875 297.222964 
L 364.759511 294.44171 
L 373.879148 291.660456 
L 382.998784 288.879203 
L 392.11842 286.097949 
L 401.238057 283.316695 
L 410.357693 280.535441 
L 419.47733 277.754188 
L 428.596966 274.972934 
L 437.716602 272.19168 
L 446.836239 269.410426 
L 455.955875 266.629173 
L 465.075511 263.847919 
L 474.195148 261.066665 
L 483.314784 258.285412 
L 492.43442 255.504158 
L 501.554057 252.722904 
L 510.673693 249.94165 
L 519.79333 247.160397 
L 528.912966 244.379143 
L 538.032602 241.597889 
L 547.152239 238.816635 
L 556.271875 236.035382 
L 565.391511 233.254128 
L 574.511148 230.472874 
L 583.630784 227.69162 
L 592.75042 224.910367 
L 601.870057 222.129113 
L 610.989693 219.347859 
L 620.10933 216.566606 
L 629.228966 213.785352 
L 638.348602 211.004098 
L 647.468239 208.222844 
L 656.587875 205.441591 
L 665.707511 202.660337 
L 674.827148 199.879083 
L 683.946784 197.097829 
L 693.06642 194.316576 
L 702.186057 191.535322 
L 711.305693 188.754068 
L 720.42533 185.972815 
L 729.544966 183.191561 
L 738.664602 180.410307 
L 747.784239 177.629053 
L 756.903875 174.8478 
L 766.023511 172.066546 
L 775.143148 169.285292 
L 784.262784 166.504038 
L 793.38242 163.722785 
L 802.502057 160.941531 
L 811.621693 158.160277 
L 820.74133 155.379023 
L 829.860966 152.59777 
L 838.980602 149.816516 
L 848.100239 147.035262 
L 857.219875 144.254009 
L 866.339511 141.472755 
L 875.459148 138.691501 
L 884.578784 135.910247 
L 893.69842 133.128994 
L 902.818057 130.34774 
L 911.937693 127.566486 
L 921.05733 124.785232 
L 930.176966 122.003979 
L 939.296602 119.222725 
L 948.416239 116.441471 
L 957.535875 113.660217 
" clip-path="url(#p3415a817fe)" style="fill: none; stroke-dasharray: 1.5,2.475; stroke-dashoffset: 0; stroke: #48b585; stroke-width: 1.5"/>
   </g>
   <g id="line2d_45">
    <path d="M 54.691875 429.550499 
L 72.748755 463.292022 
L 90.805635 448.322485 
L 108.862515 449.975942 
L 126.919395 446.035009 
L 144.976275 456.396225 
L 163.033155 452.211695 
L 181.090035 455.785564 
L 199.146915 448.305801 
L 217.203795 452.011478 
L 235.260675 453.326235 
L 253.317555 455.156549 
L 271.374435 432.366881 
L 289.431315 451.410828 
L 307.488195 439.826622 
L 325.545075 452.056527 
L 343.601955 445.654597 
L 361.658835 439.905041 
L 379.715715 444.461639 
L 397.772595 435.206621 
L 415.829475 305.364408 
L 470.000115 366.812589 
L 488.056995 367.147952 
L 506.113875 339.184349 
L 524.170755 362.149208 
L 542.227635 319.943522 
L 560.284515 331.095594 
L 578.341395 328.249179 
L 596.398275 404.491708 
L 614.455155 337.549246 
L 632.512035 337.052041 
L 650.568915 384.051249 
L 668.625795 389.570556 
L 686.682675 423.228656 
L 704.739555 401.621935 
L 722.796435 400.717622 
L 740.853315 410.660051 
L 758.910195 410.696758 
L 776.967075 429.597216 
L 795.023955 426.956024 
L 813.080835 415.777257 
L 831.137715 436.090912 
L 849.194595 420.710931 
L 867.251475 423.026771 
L 885.308355 364.369945 
L 903.365235 353.753453 
L 921.422115 346.508944 
L 939.478995 352.286865 
L 957.535875 405.105706 
" clip-path="url(#p3415a817fe)" style="fill: none; stroke: #4ac1fa; stroke-width: 1.5; stroke-linecap: square"/>
   </g>
   <g id="line2d_46">
    <path d="M 54.691875 311.994918 
L 72.748755 335.200037 
L 90.805635 333.099429 
L 108.862515 365.039002 
L 126.919395 331.858086 
L 144.976275 422.371061 
L 163.033155 500.252029 
L 181.090035 501.875453 
L 199.146915 501.388259 
L 217.203795 498.338291 
L 235.260675 508.294068 
L 253.317555 500.695843 
L 271.374435 497.725962 
L 289.431315 503.397101 
L 307.488195 512.557016 
L 325.545075 507.905314 
L 343.601955 505.646202 
L 361.658835 499.703102 
L 379.715715 493.339547 
L 397.772595 493.921844 
L 415.829475 493.102624 
L 470.000115 483.146847 
L 488.056995 484.369838 
L 506.113875 499.711444 
L 524.170755 492.174953 
L 542.227635 494.827825 
L 560.284515 498.853849 
L 578.341395 514.185445 
L 596.398275 518.029606 
L 614.455155 511.430797 
L 632.512035 497.654217 
L 650.568915 492.203317 
L 668.625795 497.385593 
L 686.682675 492.710533 
L 704.739555 486.283576 
L 722.796435 496.574716 
L 740.853315 476.966825 
L 758.910195 470.486477 
L 776.967075 469.260149 
L 795.023955 454.292281 
L 813.080835 467.75185 
L 831.137715 463.353756 
L 849.194595 463.48056 
L 867.251475 457.752693 
L 885.308355 462.297613 
L 903.365235 466.794147 
L 921.422115 453.711652 
L 939.478995 454.9263 
L 957.535875 435.116524 
" clip-path="url(#p3415a817fe)" style="fill: none; stroke: #e9a942; stroke-width: 1.5; stroke-linecap: square"/>
   </g>
   <g id="line2d_47">
    <path d="M 54.691875 449.403656 
L 72.748755 442.686385 
L 90.805635 479.299349 
L 108.862515 476.925113 
L 126.919395 482.736403 
L 144.976275 489.975906 
L 163.033155 481.790379 
L 181.090035 481.034561 
L 199.146915 482.392698 
L 217.203795 440.484001 
L 235.260675 467.483226 
L 253.317555 479.935037 
L 271.374435 467.988773 
L 289.431315 470.958654 
L 307.488195 470.950312 
L 325.545075 467.162879 
L 343.601955 457.542465 
L 361.658835 461.828772 
L 379.715715 458.53187 
L 397.772595 449.79241 
L 415.829475 454.447449 
L 470.000115 431.110521 
L 488.056995 408.025533 
L 506.113875 440.996222 
L 524.170755 458.163137 
L 542.227635 454.520861 
L 560.284515 457.36227 
L 578.341395 470.207842 
L 596.398275 490.971984 
L 614.455155 478.873889 
L 632.512035 465.130679 
L 650.568915 464.581752 
L 668.625795 455.378456 
L 686.682675 463.347082 
L 704.739555 460.515684 
L 722.796435 461.446692 
L 740.853315 470.404721 
L 758.910195 467.741839 
L 776.967075 429.313576 
L 795.023955 398.438489 
L 813.080835 396.553115 
L 831.137715 421.396673 
L 849.194595 435.748875 
L 867.251475 433.599882 
L 885.308355 424.238082 
L 903.365235 425.389328 
L 921.422115 435.573685 
L 939.478995 426.13013 
L 957.535875 443.850978 
" clip-path="url(#p3415a817fe)" style="fill: none; stroke: #9a5689; stroke-width: 1.5; stroke-linecap: square"/>
   </g>
   <g id="line2d_48">
    <path d="M 54.691875 524.00107 
L 72.748755 513.486355 
L 90.805635 519.267613 
L 108.862515 519.100766 
L 126.919395 510.81513 
L 144.976275 512.788933 
L 163.033155 508.319095 
L 181.090035 502.289235 
L 199.146915 509.53708 
L 217.203795 505.526072 
L 235.260675 530.823455 
L 253.317555 509.915823 
L 271.374435 507.962042 
L 289.431315 516.202628 
L 307.488195 503.832572 
L 325.545075 508.85968 
L 343.601955 509.748976 
L 361.658835 488.926437 
L 379.715715 505.394262 
L 397.772595 502.254197 
L 415.829475 498.493459 
L 470.000115 474.752761 
L 488.056995 462.477808 
L 506.113875 487.232937 
L 524.170755 476.055838 
L 542.227635 481.271484 
L 560.284515 484.576729 
L 578.341395 493.6966 
L 596.398275 514.754394 
L 614.455155 498.283232 
L 632.512035 496.538009 
L 650.568915 501.40995 
L 668.625795 477.574149 
L 686.682675 506.744057 
L 704.739555 499.557945 
L 722.796435 498.476775 
L 740.853315 484.353153 
L 758.910195 496.052484 
L 776.967075 483.814236 
L 795.023955 478.543531 
L 813.080835 489.668907 
L 831.137715 486.984335 
L 849.194595 492.084856 
L 867.251475 446.920968 
L 885.308355 471.275664 
L 903.365235 488.025462 
L 921.422115 464.932131 
L 939.478995 478.656987 
L 957.535875 474.337312 
" clip-path="url(#p3415a817fe)" style="fill: none; stroke: #be503b; stroke-width: 1.5; stroke-linecap: square"/>
   </g>
   <g id="line2d_49">
    <path d="M 54.691875 437.145387 
L 72.748755 433.116025 
L 90.805635 431.359123 
L 108.862515 430.005992 
L 126.919395 413.009261 
L 144.976275 437.847814 
L 163.033155 420.035199 
L 181.090035 408.457667 
L 199.146915 414.010344 
L 217.203795 411.654461 
L 235.260675 421.785427 
L 253.317555 421.69533 
L 271.374435 392.004858 
L 289.431315 390.486548 
L 307.488195 401.171447 
L 325.545075 411.490951 
L 343.601955 404.935521 
L 361.658835 400.235434 
L 379.715715 406.256952 
L 397.772595 401.346637 
L 415.829475 390.820242 
L 470.000115 381.520176 
L 488.056995 350.853647 
L 506.113875 387.299765 
L 524.170755 374.452525 
L 542.227635 363.253736 
L 560.284515 363.510681 
L 578.341395 388.953221 
L 596.398275 448.087231 
L 614.455155 425.03728 
L 632.512035 390.663406 
L 650.568915 374.1522 
L 668.625795 376.504747 
L 686.682675 364.803748 
L 704.739555 369.700715 
L 722.796435 360.525784 
L 740.853315 356.850138 
L 758.910195 356.418004 
L 776.967075 326.023437 
L 795.023955 341.675379 
L 813.080835 337.444132 
L 831.137715 349.722423 
L 849.194595 347.408251 
L 867.251475 330.066146 
L 885.308355 323.108615 
L 903.365235 328.107359 
L 921.422115 354.51094 
L 939.478995 333.865258 
L 957.535875 333.851911 
" clip-path="url(#p3415a817fe)" style="fill: none; stroke: #e2321d; stroke-width: 1.5; stroke-linecap: square"/>
   </g>
   <g id="line2d_50">
    <path d="M 54.691875 372.925873 
L 72.748755 353.740105 
L 90.805635 360.569164 
L 108.862515 363.493997 
L 126.919395 383.075192 
L 144.976275 416.62651 
L 163.033155 373.459784 
L 181.090035 348.571177 
L 199.146915 339.519712 
L 217.203795 327.93217 
L 235.260675 347.134622 
L 253.317555 330.112863 
L 271.374435 342.826625 
L 289.431315 351.589444 
L 307.488195 299.035891 
L 325.545075 298.248372 
L 343.601955 250.228059 
L 361.658835 279.776711 
L 379.715715 304.036304 
L 397.772595 330.588378 
L 415.829475 296.464774 
L 470.000115 196.14118 
L 488.056995 189.006791 
L 506.113875 128.452911 
L 524.170755 238.562098 
L 542.227635 312.930932 
L 560.284515 299.683258 
L 578.341395 269.438854 
L 596.398275 341.133125 
L 614.455155 270.089558 
L 632.512035 256.665027 
L 650.568915 234.691241 
L 668.625795 177.409237 
L 686.682675 158.875842 
L 704.739555 212.890977 
L 722.796435 192.340399 
L 740.853315 136.661797 
L 758.910195 137.617832 
L 776.967075 117.372584 
L 795.023955 133.750312 
L 813.080835 48.26945 
L 831.137715 163.971358 
L 849.194595 69.23381 
L 867.251475 126.098696 
L 885.308355 103.86296 
L 903.365235 144.635428 
L 921.422115 200.550953 
L 939.478995 170.420005 
L 957.535875 176.021068 
" clip-path="url(#p3415a817fe)" style="fill: none; stroke: #48b585; stroke-width: 6; stroke-linecap: square"/>
   </g>
   <g id="patch_3">
    <path d="M 54.691875 567.74175 
L 54.691875 24.14175 
" style="fill: none; stroke: #ffffff; stroke-linejoin: miter; stroke-linecap: square"/>
   </g>
   <g id="patch_4">
    <path d="M 957.535875 567.74175 
L 957.535875 24.14175 
" style="fill: none; stroke: #ffffff; stroke-linejoin: miter; stroke-linecap: square"/>
   </g>
   <g id="patch_5">
    <path d="M 54.691875 567.74175 
L 957.535875 567.74175 
" style="fill: none; stroke: #ffffff; stroke-linejoin: miter; stroke-linecap: square"/>
   </g>
   <g id="patch_6">
    <path d="M 54.691875 24.14175 
L 957.535875 24.14175 
" style="fill: none; stroke: #ffffff; stroke-linejoin: miter; stroke-linecap: square"/>
   </g>
   <g id="text_22">
    <!-- Potentially Ephemeral Enterprise Linux 8 and 9 Instances by Distribution -->
    <g transform="translate(54.691875 18.14175)scale(0.144 -0.144)">
     <defs>
      <path id="DejaVuSans-50" d="M 1259 4147 
L 1259 2394 
L 2053 2394 
Q 2494 2394 2734 2622 
Q 2975 2850 2975 3272 
Q 2975 3691 2734 3919 
Q 2494 4147 2053 4147 
L 1259 4147 
z
M 628 4666 
L 2053 4666 
Q 2838 4666 3239 4311 
Q 3641 3956 3641 3272 
Q 3641 2581 3239 2228 
Q 2838 1875 2053 1875 
L 1259 1875 
L 1259 0 
L 628 0 
L 628 4666 
z
" transform="scale(0.015625)"/>
      <path id="DejaVuSans-6f" d="M 1959 3097 
Q 1497 3097 1228 2736 
Q 959 2375 959 1747 
Q 959 1119 1226 758 
Q 1494 397 1959 397 
Q 2419 397 2687 759 
Q 2956 1122 2956 1747 
Q 2956 2369 2687 2733 
Q 2419 3097 1959 3097 
z
M 1959 3584 
Q 2709 3584 3137 3096 
Q 3566 2609 3566 1747 
Q 3566 888 3137 398 
Q 2709 -91 1959 -91 
Q 1206 -91 779 398 
Q 353 888 353 1747 
Q 353 2609 779 3096 
Q 1206 3584 1959 3584 
z
" transform="scale(0.015625)"/>
      <path id="DejaVuSans-69" d="M 603 3500 
L 1178 3500 
L 1178 0 
L 603 0 
L 603 3500 
z
M 603 4863 
L 1178 4863 
L 1178 4134 
L 603 4134 
L 603 4863 
z
" transform="scale(0.015625)"/>
      <path id="DejaVuSans-6c" d="M 603 4863 
L 1178 4863 
L 1178 0 
L 603 0 
L 603 4863 
z
" transform="scale(0.015625)"/>
      <path id="DejaVuSans-79" d="M 2059 -325 
Q 1816 -950 1584 -1140 
Q 1353 -1331 966 -1331 
L 506 -1331 
L 506 -850 
L 844 -850 
Q 1081 -850 1212 -737 
Q 1344 -625 1503 -206 
L 1606 56 
L 191 3500 
L 800 3500 
L 1894 763 
L 2988 3500 
L 3597 3500 
L 2059 -325 
z
" transform="scale(0.015625)"/>
      <path id="DejaVuSans-20" transform="scale(0.015625)"/>
      <path id="DejaVuSans-45" d="M 628 4666 
L 3578 4666 
L 3578 4134 
L 1259 4134 
L 1259 2753 
L 3481 2753 
L 3481 2222 
L 1259 2222 
L 1259 531 
L 3634 531 
L 3634 0 
L 628 0 
L 628 4666 
z
" transform="scale(0.015625)"/>
      <path id="DejaVuSans-70" d="M 1159 525 
L 1159 -1331 
L 581 -1331 
L 581 3500 
L 1159 3500 
L 1159 2969 
Q 1341 3281 1617 3432 
Q 1894 3584 2278 3584 
Q 2916 3584 3314 3078 
Q 3713 2572 3713 1747 
Q 3713 922 3314 415 
Q 2916 -91 2278 -91 
Q 1894 -91 1617 61 
Q 1341 213 1159 525 
z
M 3116 1747 
Q 3116 2381 2855 2742 
Q 2594 3103 2138 3103 
Q 1681 3103 1420 2742 
Q 1159 2381 1159 1747 
Q 1159 1113 1420 752 
Q 1681 391 2138 391 
Q 2594 391 2855 752 
Q 3116 1113 3116 1747 
z
" transform="scale(0.015625)"/>
      <path id="DejaVuSans-68" d="M 3513 2113 
L 3513 0 
L 2938 0 
L 2938 2094 
Q 2938 2591 2744 2837 
Q 2550 3084 2163 3084 
Q 1697 3084 1428 2787 
Q 1159 2491 1159 1978 
L 1159 0 
L 581 0 
L 581 4863 
L 1159 4863 
L 1159 2956 
Q 1366 3272 1645 3428 
Q 1925 3584 2291 3584 
Q 2894 3584 3203 3211 
Q 3513 2838 3513 2113 
z
" transform="scale(0.015625)"/>
      <path id="DejaVuSans-6d" d="M 3328 2828 
Q 3544 3216 3844 3400 
Q 4144 3584 4550 3584 
Q 5097 3584 5394 3201 
Q 5691 2819 5691 2113 
L 5691 0 
L 5113 0 
L 5113 2094 
Q 5113 2597 4934 2840 
Q 4756 3084 4391 3084 
Q 3944 3084 3684 2787 
Q 3425 2491 3425 1978 
L 3425 0 
L 2847 0 
L 2847 2094 
Q 2847 2600 2669 2842 
Q 2491 3084 2119 3084 
Q 1678 3084 1418 2786 
Q 1159 2488 1159 1978 
L 1159 0 
L 581 0 
L 581 3500 
L 1159 3500 
L 1159 2956 
Q 1356 3278 1631 3431 
Q 1906 3584 2284 3584 
Q 2666 3584 2933 3390 
Q 3200 3197 3328 2828 
z
" transform="scale(0.015625)"/>
      <path id="DejaVuSans-72" d="M 2631 2963 
Q 2534 3019 2420 3045 
Q 2306 3072 2169 3072 
Q 1681 3072 1420 2755 
Q 1159 2438 1159 1844 
L 1159 0 
L 581 0 
L 581 3500 
L 1159 3500 
L 1159 2956 
Q 1341 3275 1631 3429 
Q 1922 3584 2338 3584 
Q 2397 3584 2469 3576 
Q 2541 3569 2628 3553 
L 2631 2963 
z
" transform="scale(0.015625)"/>
      <path id="DejaVuSans-4c" d="M 628 4666 
L 1259 4666 
L 1259 531 
L 3531 531 
L 3531 0 
L 628 0 
L 628 4666 
z
" transform="scale(0.015625)"/>
      <path id="DejaVuSans-75" d="M 544 1381 
L 544 3500 
L 1119 3500 
L 1119 1403 
Q 1119 906 1312 657 
Q 1506 409 1894 409 
Q 2359 409 2629 706 
Q 2900 1003 2900 1516 
L 2900 3500 
L 3475 3500 
L 3475 0 
L 2900 0 
L 2900 538 
Q 2691 219 2414 64 
Q 2138 -91 1772 -91 
Q 1169 -91 856 284 
Q 544 659 544 1381 
z
M 1991 3584 
L 1991 3584 
z
" transform="scale(0.015625)"/>
      <path id="DejaVuSans-78" d="M 3513 3500 
L 2247 1797 
L 3578 0 
L 2900 0 
L 1881 1375 
L 863 0 
L 184 0 
L 1544 1831 
L 300 3500 
L 978 3500 
L 1906 2253 
L 2834 3500 
L 3513 3500 
z
" transform="scale(0.015625)"/>
      <path id="DejaVuSans-64" d="M 2906 2969 
L 2906 4863 
L 3481 4863 
L 3481 0 
L 2906 0 
L 2906 525 
Q 2725 213 2448 61 
Q 2172 -91 1784 -91 
Q 1150 -91 751 415 
Q 353 922 353 1747 
Q 353 2572 751 3078 
Q 1150 3584 1784 3584 
Q 2172 3584 2448 3432 
Q 2725 3281 2906 2969 
z
M 947 1747 
Q 947 1113 1208 752 
Q 1469 391 1925 391 
Q 2381 391 2643 752 
Q 2906 1113 2906 1747 
Q 2906 2381 2643 2742 
Q 2381 3103 1925 3103 
Q 1469 3103 1208 2742 
Q 947 2381 947 1747 
z
" transform="scale(0.015625)"/>
      <path id="DejaVuSans-62" d="M 3116 1747 
Q 3116 2381 2855 2742 
Q 2594 3103 2138 3103 
Q 1681 3103 1420 2742 
Q 1159 2381 1159 1747 
Q 1159 1113 1420 752 
Q 1681 391 2138 391 
Q 2594 391 2855 752 
Q 3116 1113 3116 1747 
z
M 1159 2969 
Q 1341 3281 1617 3432 
Q 1894 3584 2278 3584 
Q 2916 3584 3314 3078 
Q 3713 2572 3713 1747 
Q 3713 922 3314 415 
Q 2916 -91 2278 -91 
Q 1894 -91 1617 61 
Q 1341 213 1159 525 
L 1159 0 
L 581 0 
L 581 4863 
L 1159 4863 
L 1159 2969 
z
" transform="scale(0.015625)"/>
     </defs>
     <use xlink:href="#DejaVuSans-50"/>
     <use xlink:href="#DejaVuSans-6f" x="56.677734"/>
     <use xlink:href="#DejaVuSans-74" x="117.859375"/>
     <use xlink:href="#DejaVuSans-65" x="157.068359"/>
     <use xlink:href="#DejaVuSans-6e" x="218.591797"/>
     <use xlink:href="#DejaVuSans-74" x="281.970703"/>
     <use xlink:href="#DejaVuSans-69" x="321.179688"/>
     <use xlink:href="#DejaVuSans-61" x="348.962891"/>
     <use xlink:href="#DejaVuSans-6c" x="410.242188"/>
     <use xlink:href="#DejaVuSans-6c" x="438.025391"/>
     <use xlink:href="#DejaVuSans-79" x="465.808594"/>
     <use xlink:href="#DejaVuSans-20" x="524.988281"/>
     <use xlink:href="#DejaVuSans-45" x="556.775391"/>
     <use xlink:href="#DejaVuSans-70" x="619.958984"/>
     <use xlink:href="#DejaVuSans-68" x="683.435547"/>
     <use xlink:href="#DejaVuSans-65" x="746.814453"/>
     <use xlink:href="#DejaVuSans-6d" x="808.337891"/>
     <use xlink:href="#DejaVuSans-65" x="905.75"/>
     <use xlink:href="#DejaVuSans-72" x="967.273438"/>
     <use xlink:href="#DejaVuSans-61" x="1008.386719"/>
     <use xlink:href="#DejaVuSans-6c" x="1069.666016"/>
     <use xlink:href="#DejaVuSans-20" x="1097.449219"/>
     <use xlink:href="#DejaVuSans-45" x="1129.236328"/>
     <use xlink:href="#DejaVuSans-6e" x="1192.419922"/>
     <use xlink:href="#DejaVuSans-74" x="1255.798828"/>
     <use xlink:href="#DejaVuSans-65" x="1295.007812"/>
     <use xlink:href="#DejaVuSans-72" x="1356.53125"/>
     <use xlink:href="#DejaVuSans-70" x="1397.644531"/>
     <use xlink:href="#DejaVuSans-72" x="1461.121094"/>
     <use xlink:href="#DejaVuSans-69" x="1502.234375"/>
     <use xlink:href="#DejaVuSans-73" x="1530.017578"/>
     <use xlink:href="#DejaVuSans-65" x="1582.117188"/>
     <use xlink:href="#DejaVuSans-20" x="1643.640625"/>
     <use xlink:href="#DejaVuSans-4c" x="1675.427734"/>
     <use xlink:href="#DejaVuSans-69" x="1731.140625"/>
     <use xlink:href="#DejaVuSans-6e" x="1758.923828"/>
     <use xlink:href="#DejaVuSans-75" x="1822.302734"/>
     <use xlink:href="#DejaVuSans-78" x="1885.681641"/>
     <use xlink:href="#DejaVuSans-20" x="1944.861328"/>
     <use xlink:href="#DejaVuSans-38" x="1976.648438"/>
     <use xlink:href="#DejaVuSans-20" x="2040.271484"/>
     <use xlink:href="#DejaVuSans-61" x="2072.058594"/>
     <use xlink:href="#DejaVuSans-6e" x="2133.337891"/>
     <use xlink:href="#DejaVuSans-64" x="2196.716797"/>
     <use xlink:href="#DejaVuSans-20" x="2260.193359"/>
     <use xlink:href="#DejaVuSans-39" x="2291.980469"/>
     <use xlink:href="#DejaVuSans-20" x="2355.603516"/>
     <use xlink:href="#DejaVuSans-49" x="2387.390625"/>
     <use xlink:href="#DejaVuSans-6e" x="2416.882812"/>
     <use xlink:href="#DejaVuSans-73" x="2480.261719"/>
     <use xlink:href="#DejaVuSans-74" x="2532.361328"/>
     <use xlink:href="#DejaVuSans-61" x="2571.570312"/>
     <use xlink:href="#DejaVuSans-6e" x="2632.849609"/>
     <use xlink:href="#DejaVuSans-63" x="2696.228516"/>
     <use xlink:href="#DejaVuSans-65" x="2751.208984"/>
     <use xlink:href="#DejaVuSans-73" x="2812.732422"/>
     <use xlink:href="#DejaVuSans-20" x="2864.832031"/>
     <use xlink:href="#DejaVuSans-62" x="2896.619141"/>
     <use xlink:href="#DejaVuSans-79" x="2960.095703"/>
     <use xlink:href="#DejaVuSans-20" x="3019.275391"/>
     <use xlink:href="#DejaVuSans-44" x="3051.0625"/>
     <use xlink:href="#DejaVuSans-69" x="3128.064453"/>
     <use xlink:href="#DejaVuSans-73" x="3155.847656"/>
     <use xlink:href="#DejaVuSans-74" x="3207.947266"/>
     <use xlink:href="#DejaVuSans-72" x="3247.15625"/>
     <use xlink:href="#DejaVuSans-69" x="3288.269531"/>
     <use xlink:href="#DejaVuSans-62" x="3316.052734"/>
     <use xlink:href="#DejaVuSans-75" x="3379.529297"/>
     <use xlink:href="#DejaVuSans-74" x="3442.908203"/>
     <use xlink:href="#DejaVuSans-69" x="3482.117188"/>
     <use xlink:href="#DejaVuSans-6f" x="3509.900391"/>
     <use xlink:href="#DejaVuSans-6e" x="3571.082031"/>
    </g>
   </g>
   <g id="text_23">
    <!-- 2024-05-30 11:55 UTC -->
    <g transform="translate(794.653875 18.14175)scale(0.144 -0.144)">
     <defs>
      <path id="DejaVuSans-3a" d="M 750 794 
L 1409 794 
L 1409 0 
L 750 0 
L 750 794 
z
M 750 3309 
L 1409 3309 
L 1409 2516 
L 750 2516 
L 750 3309 
z
" transform="scale(0.015625)"/>
      <path id="DejaVuSans-55" d="M 556 4666 
L 1191 4666 
L 1191 1831 
Q 1191 1081 1462 751 
Q 1734 422 2344 422 
Q 2950 422 3222 751 
Q 3494 1081 3494 1831 
L 3494 4666 
L 4128 4666 
L 4128 1753 
Q 4128 841 3676 375 
Q 3225 -91 2344 -91 
Q 1459 -91 1007 375 
Q 556 841 556 1753 
L 556 4666 
z
" transform="scale(0.015625)"/>
      <path id="DejaVuSans-54" d="M -19 4666 
L 3928 4666 
L 3928 4134 
L 2272 4134 
L 2272 0 
L 1638 0 
L 1638 4134 
L -19 4134 
L -19 4666 
z
" transform="scale(0.015625)"/>
      <path id="DejaVuSans-43" d="M 4122 4306 
L 4122 3641 
Q 3803 3938 3442 4084 
Q 3081 4231 2675 4231 
Q 1875 4231 1450 3742 
Q 1025 3253 1025 2328 
Q 1025 1406 1450 917 
Q 1875 428 2675 428 
Q 3081 428 3442 575 
Q 3803 722 4122 1019 
L 4122 359 
Q 3791 134 3420 21 
Q 3050 -91 2638 -91 
Q 1578 -91 968 557 
Q 359 1206 359 2328 
Q 359 3453 968 4101 
Q 1578 4750 2638 4750 
Q 3056 4750 3426 4639 
Q 3797 4528 4122 4306 
z
" transform="scale(0.015625)"/>
     </defs>
     <use xlink:href="#DejaVuSans-32"/>
     <use xlink:href="#DejaVuSans-30" x="63.623047"/>
     <use xlink:href="#DejaVuSans-32" x="127.246094"/>
     <use xlink:href="#DejaVuSans-34" x="190.869141"/>
     <use xlink:href="#DejaVuSans-2d" x="254.492188"/>
     <use xlink:href="#DejaVuSans-30" x="290.576172"/>
     <use xlink:href="#DejaVuSans-35" x="354.199219"/>
     <use xlink:href="#DejaVuSans-2d" x="417.822266"/>
     <use xlink:href="#DejaVuSans-33" x="453.90625"/>
     <use xlink:href="#DejaVuSans-30" x="517.529297"/>
     <use xlink:href="#DejaVuSans-20" x="581.152344"/>
     <use xlink:href="#DejaVuSans-31" x="612.939453"/>
     <use xlink:href="#DejaVuSans-31" x="676.5625"/>
     <use xlink:href="#DejaVuSans-3a" x="740.185547"/>
     <use xlink:href="#DejaVuSans-35" x="773.876953"/>
     <use xlink:href="#DejaVuSans-35" x="837.5"/>
     <use xlink:href="#DejaVuSans-20" x="901.123047"/>
     <use xlink:href="#DejaVuSans-55" x="932.910156"/>
     <use xlink:href="#DejaVuSans-54" x="1006.103516"/>
     <use xlink:href="#DejaVuSans-43" x="1061.3125"/>
    </g>
   </g>
   <g id="legend_1">
    <g id="patch_7">
     <path d="M 61.691875 134.888625 
L 170.660625 134.888625 
Q 172.660625 134.888625 172.660625 132.888625 
L 172.660625 31.14175 
Q 172.660625 29.14175 170.660625 29.14175 
L 61.691875 29.14175 
Q 59.691875 29.14175 59.691875 31.14175 
L 59.691875 132.888625 
Q 59.691875 134.888625 61.691875 134.888625 
z
" style="fill: #e5e5e5; opacity: 0.8; stroke: #cccccc; stroke-width: 0.5; stroke-linejoin: miter"/>
    </g>
    <g id="text_24">
     <!-- Distribution -->
     <g transform="translate(87.0075 40.740187)scale(0.1 -0.1)">
      <use xlink:href="#DejaVuSans-44"/>
      <use xlink:href="#DejaVuSans-69" x="77.001953"/>
      <use xlink:href="#DejaVuSans-73" x="104.785156"/>
      <use xlink:href="#DejaVuSans-74" x="156.884766"/>
      <use xlink:href="#DejaVuSans-72" x="196.09375"/>
      <use xlink:href="#DejaVuSans-69" x="237.207031"/>
      <use xlink:href="#DejaVuSans-62" x="264.990234"/>
      <use xlink:href="#DejaVuSans-75" x="328.466797"/>
      <use xlink:href="#DejaVuSans-74" x="391.845703"/>
      <use xlink:href="#DejaVuSans-69" x="431.054688"/>
      <use xlink:href="#DejaVuSans-6f" x="458.837891"/>
      <use xlink:href="#DejaVuSans-6e" x="520.019531"/>
     </g>
    </g>
    <g id="line2d_51">
     <path d="M 63.691875 51.918312 
L 73.691875 51.918312 
L 83.691875 51.918312 
" style="fill: none; stroke: #4ac1fa; stroke-width: 1.5; stroke-linecap: square"/>
    </g>
    <g id="text_25">
     <!-- AlmaLinux -->
     <g transform="translate(91.691875 55.418312)scale(0.1 -0.1)">
      <defs>
       <path id="DejaVuSans-41" d="M 2188 4044 
L 1331 1722 
L 3047 1722 
L 2188 4044 
z
M 1831 4666 
L 2547 4666 
L 4325 0 
L 3669 0 
L 3244 1197 
L 1141 1197 
L 716 0 
L 50 0 
L 1831 4666 
z
" transform="scale(0.015625)"/>
      </defs>
      <use xlink:href="#DejaVuSans-41"/>
      <use xlink:href="#DejaVuSans-6c" x="68.408203"/>
      <use xlink:href="#DejaVuSans-6d" x="96.191406"/>
      <use xlink:href="#DejaVuSans-61" x="193.603516"/>
      <use xlink:href="#DejaVuSans-4c" x="254.882812"/>
      <use xlink:href="#DejaVuSans-69" x="310.595703"/>
      <use xlink:href="#DejaVuSans-6e" x="338.378906"/>
      <use xlink:href="#DejaVuSans-75" x="401.757812"/>
      <use xlink:href="#DejaVuSans-78" x="465.136719"/>
     </g>
    </g>
    <g id="line2d_52">
     <path d="M 63.691875 66.596437 
L 73.691875 66.596437 
L 83.691875 66.596437 
" style="fill: none; stroke: #e9a942; stroke-width: 1.5; stroke-linecap: square"/>
    </g>
    <g id="text_26">
     <!-- CentOS Legacy -->
     <g transform="translate(91.691875 70.096437)scale(0.1 -0.1)">
      <defs>
       <path id="DejaVuSans-4f" d="M 2522 4238 
Q 1834 4238 1429 3725 
Q 1025 3213 1025 2328 
Q 1025 1447 1429 934 
Q 1834 422 2522 422 
Q 3209 422 3611 934 
Q 4013 1447 4013 2328 
Q 4013 3213 3611 3725 
Q 3209 4238 2522 4238 
z
M 2522 4750 
Q 3503 4750 4090 4092 
Q 4678 3434 4678 2328 
Q 4678 1225 4090 567 
Q 3503 -91 2522 -91 
Q 1538 -91 948 565 
Q 359 1222 359 2328 
Q 359 3434 948 4092 
Q 1538 4750 2522 4750 
z
" transform="scale(0.015625)"/>
       <path id="DejaVuSans-53" d="M 3425 4513 
L 3425 3897 
Q 3066 4069 2747 4153 
Q 2428 4238 2131 4238 
Q 1616 4238 1336 4038 
Q 1056 3838 1056 3469 
Q 1056 3159 1242 3001 
Q 1428 2844 1947 2747 
L 2328 2669 
Q 3034 2534 3370 2195 
Q 3706 1856 3706 1288 
Q 3706 609 3251 259 
Q 2797 -91 1919 -91 
Q 1588 -91 1214 -16 
Q 841 59 441 206 
L 441 856 
Q 825 641 1194 531 
Q 1563 422 1919 422 
Q 2459 422 2753 634 
Q 3047 847 3047 1241 
Q 3047 1584 2836 1778 
Q 2625 1972 2144 2069 
L 1759 2144 
Q 1053 2284 737 2584 
Q 422 2884 422 3419 
Q 422 4038 858 4394 
Q 1294 4750 2059 4750 
Q 2388 4750 2728 4690 
Q 3069 4631 3425 4513 
z
" transform="scale(0.015625)"/>
       <path id="DejaVuSans-67" d="M 2906 1791 
Q 2906 2416 2648 2759 
Q 2391 3103 1925 3103 
Q 1463 3103 1205 2759 
Q 947 2416 947 1791 
Q 947 1169 1205 825 
Q 1463 481 1925 481 
Q 2391 481 2648 825 
Q 2906 1169 2906 1791 
z
M 3481 434 
Q 3481 -459 3084 -895 
Q 2688 -1331 1869 -1331 
Q 1566 -1331 1297 -1286 
Q 1028 -1241 775 -1147 
L 775 -588 
Q 1028 -725 1275 -790 
Q 1522 -856 1778 -856 
Q 2344 -856 2625 -561 
Q 2906 -266 2906 331 
L 2906 616 
Q 2728 306 2450 153 
Q 2172 0 1784 0 
Q 1141 0 747 490 
Q 353 981 353 1791 
Q 353 2603 747 3093 
Q 1141 3584 1784 3584 
Q 2172 3584 2450 3431 
Q 2728 3278 2906 2969 
L 2906 3500 
L 3481 3500 
L 3481 434 
z
" transform="scale(0.015625)"/>
      </defs>
      <use xlink:href="#DejaVuSans-43"/>
      <use xlink:href="#DejaVuSans-65" x="69.824219"/>
      <use xlink:href="#DejaVuSans-6e" x="131.347656"/>
      <use xlink:href="#DejaVuSans-74" x="194.726562"/>
      <use xlink:href="#DejaVuSans-4f" x="233.935547"/>
      <use xlink:href="#DejaVuSans-53" x="312.646484"/>
      <use xlink:href="#DejaVuSans-20" x="376.123047"/>
      <use xlink:href="#DejaVuSans-4c" x="407.910156"/>
      <use xlink:href="#DejaVuSans-65" x="461.873047"/>
      <use xlink:href="#DejaVuSans-67" x="523.396484"/>
      <use xlink:href="#DejaVuSans-61" x="586.873047"/>
      <use xlink:href="#DejaVuSans-63" x="648.152344"/>
      <use xlink:href="#DejaVuSans-79" x="703.132812"/>
     </g>
    </g>
    <g id="line2d_53">
     <path d="M 63.691875 81.274563 
L 73.691875 81.274563 
L 83.691875 81.274563 
" style="fill: none; stroke: #9a5689; stroke-width: 1.5; stroke-linecap: square"/>
    </g>
    <g id="text_27">
     <!-- CentOS Stream -->
     <g transform="translate(91.691875 84.774563)scale(0.1 -0.1)">
      <use xlink:href="#DejaVuSans-43"/>
      <use xlink:href="#DejaVuSans-65" x="69.824219"/>
      <use xlink:href="#DejaVuSans-6e" x="131.347656"/>
      <use xlink:href="#DejaVuSans-74" x="194.726562"/>
      <use xlink:href="#DejaVuSans-4f" x="233.935547"/>
      <use xlink:href="#DejaVuSans-53" x="312.646484"/>
      <use xlink:href="#DejaVuSans-20" x="376.123047"/>
      <use xlink:href="#DejaVuSans-53" x="407.910156"/>
      <use xlink:href="#DejaVuSans-74" x="471.386719"/>
      <use xlink:href="#DejaVuSans-72" x="510.595703"/>
      <use xlink:href="#DejaVuSans-65" x="549.458984"/>
      <use xlink:href="#DejaVuSans-61" x="610.982422"/>
      <use xlink:href="#DejaVuSans-6d" x="672.261719"/>
     </g>
    </g>
    <g id="line2d_54">
     <path d="M 63.691875 95.952687 
L 73.691875 95.952687 
L 83.691875 95.952687 
" style="fill: none; stroke: #be503b; stroke-width: 1.5; stroke-linecap: square"/>
    </g>
    <g id="text_28">
     <!-- Oracle -->
     <g transform="translate(91.691875 99.452687)scale(0.1 -0.1)">
      <use xlink:href="#DejaVuSans-4f"/>
      <use xlink:href="#DejaVuSans-72" x="78.710938"/>
      <use xlink:href="#DejaVuSans-61" x="119.824219"/>
      <use xlink:href="#DejaVuSans-63" x="181.103516"/>
      <use xlink:href="#DejaVuSans-6c" x="236.083984"/>
      <use xlink:href="#DejaVuSans-65" x="263.867188"/>
     </g>
    </g>
    <g id="line2d_55">
     <path d="M 63.691875 110.630812 
L 73.691875 110.630812 
L 83.691875 110.630812 
" style="fill: none; stroke: #e2321d; stroke-width: 1.5; stroke-linecap: square"/>
    </g>
    <g id="text_29">
     <!-- RHEL -->
     <g transform="translate(91.691875 114.130812)scale(0.1 -0.1)">
      <defs>
       <path id="DejaVuSans-52" d="M 2841 2188 
Q 3044 2119 3236 1894 
Q 3428 1669 3622 1275 
L 4263 0 
L 3584 0 
L 2988 1197 
Q 2756 1666 2539 1819 
Q 2322 1972 1947 1972 
L 1259 1972 
L 1259 0 
L 628 0 
L 628 4666 
L 2053 4666 
Q 2853 4666 3247 4331 
Q 3641 3997 3641 3322 
Q 3641 2881 3436 2590 
Q 3231 2300 2841 2188 
z
M 1259 4147 
L 1259 2491 
L 2053 2491 
Q 2509 2491 2742 2702 
Q 2975 2913 2975 3322 
Q 2975 3731 2742 3939 
Q 2509 4147 2053 4147 
L 1259 4147 
z
" transform="scale(0.015625)"/>
       <path id="DejaVuSans-48" d="M 628 4666 
L 1259 4666 
L 1259 2753 
L 3553 2753 
L 3553 4666 
L 4184 4666 
L 4184 0 
L 3553 0 
L 3553 2222 
L 1259 2222 
L 1259 0 
L 628 0 
L 628 4666 
z
" transform="scale(0.015625)"/>
      </defs>
      <use xlink:href="#DejaVuSans-52"/>
      <use xlink:href="#DejaVuSans-48" x="69.482422"/>
      <use xlink:href="#DejaVuSans-45" x="144.677734"/>
      <use xlink:href="#DejaVuSans-4c" x="207.861328"/>
     </g>
    </g>
    <g id="line2d_56">
     <path d="M 63.691875 125.308937 
L 73.691875 125.308937 
L 83.691875 125.308937 
" style="fill: none; stroke: #48b585; stroke-width: 6; stroke-linecap: square"/>
    </g>
    <g id="text_30">
     <!-- Rocky Linux -->
     <g transform="translate(91.691875 128.808937)scale(0.1 -0.1)">
      <use xlink:href="#DejaVuSans-52"/>
      <use xlink:href="#DejaVuSans-6f" x="64.982422"/>
      <use xlink:href="#DejaVuSans-63" x="126.164062"/>
      <use xlink:href="#DejaVuSans-6b" x="181.144531"/>
      <use xlink:href="#DejaVuSans-79" x="235.429688"/>
      <use xlink:href="#DejaVuSans-20" x="294.609375"/>
      <use xlink:href="#DejaVuSans-4c" x="326.396484"/>
      <use xlink:href="#DejaVuSans-69" x="382.109375"/>
      <use xlink:href="#DejaVuSans-6e" x="409.892578"/>
      <use xlink:href="#DejaVuSans-75" x="473.271484"/>
      <use xlink:href="#DejaVuSans-78" x="536.650391"/>
     </g>
    </g>
   </g>
  </g>
 </g>
 <defs>
  <clipPath id="p3415a817fe">
   <rect x="54.691875" y="24.14175" width="902.844" height="543.6"/>
  </clipPath>
 </defs>
</svg>
