<?xml version="1.0" encoding="utf-8" standalone="no"?>
<!DOCTYPE svg PUBLIC "-//W3C//DTD SVG 1.1//EN"
  "http://www.w3.org/Graphics/SVG/1.1/DTD/svg11.dtd">
<svg xmlns:xlink="http://www.w3.org/1999/xlink" width="970.191524pt" height="633.943878pt" viewBox="0 0 970.191524 633.943878" xmlns="http://www.w3.org/2000/svg" version="1.1">
 <metadata>
  <rdf:RDF xmlns:dc="http://purl.org/dc/elements/1.1/" xmlns:cc="http://creativecommons.org/ns#" xmlns:rdf="http://www.w3.org/1999/02/22-rdf-syntax-ns#">
   <cc:Work>
    <dc:type rdf:resource="http://purl.org/dc/dcmitype/StillImage"/>
    <dc:date>2024-01-25T11:54:45.692997</dc:date>
    <dc:format>image/svg+xml</dc:format>
    <dc:creator>
     <cc:Agent>
      <dc:title>Matplotlib v3.5.1, https://matplotlib.org/</dc:title>
     </cc:Agent>
    </dc:creator>
   </cc:Work>
  </rdf:RDF>
 </metadata>
 <defs>
  <style type="text/css">*{stroke-linejoin: round; stroke-linecap: butt}</style>
 </defs>
 <g id="figure_1">
  <g id="patch_1">
   <path d="M 0 633.943878 
L 970.191524 633.943878 
L 970.191524 0 
L 0 0 
z
" style="fill: #ffffff"/>
  </g>
  <g id="axes_1">
   <g id="patch_2">
    <path d="M 54.691875 567.74175 
L 957.535875 567.74175 
L 957.535875 24.14175 
L 54.691875 24.14175 
z
" style="fill: #e5e5e5"/>
   </g>
   <g id="matplotlib.axis_1">
    <g id="xtick_1">
     <g id="line2d_1">
      <path d="M 73.003526 567.74175 
L 73.003526 24.14175 
" clip-path="url(#pf83a74000b)" style="fill: none; stroke: #ffffff; stroke-width: 0.8; stroke-linecap: square"/>
     </g>
     <g id="line2d_2">
      <defs>
       <path id="md95e448490" d="M 0 0 
L 0 3.5 
" style="stroke: #555555; stroke-width: 0.8"/>
      </defs>
      <g>
       <use xlink:href="#md95e448490" x="73.003526" y="567.74175" style="fill: #555555; stroke: #555555; stroke-width: 0.8"/>
      </g>
     </g>
     <g id="text_1">
      <!-- 2021-01 -->
      <g style="fill: #555555" transform="translate(60.182244 609.659567)rotate(-45)scale(0.1 -0.1)">
       <defs>
        <path id="DejaVuSans-32" d="M 1228 531 
L 3431 531 
L 3431 0 
L 469 0 
L 469 531 
Q 828 903 1448 1529 
Q 2069 2156 2228 2338 
Q 2531 2678 2651 2914 
Q 2772 3150 2772 3378 
Q 2772 3750 2511 3984 
Q 2250 4219 1831 4219 
Q 1534 4219 1204 4116 
Q 875 4013 500 3803 
L 500 4441 
Q 881 4594 1212 4672 
Q 1544 4750 1819 4750 
Q 2544 4750 2975 4387 
Q 3406 4025 3406 3419 
Q 3406 3131 3298 2873 
Q 3191 2616 2906 2266 
Q 2828 2175 2409 1742 
Q 1991 1309 1228 531 
z
" transform="scale(0.015625)"/>
        <path id="DejaVuSans-30" d="M 2034 4250 
Q 1547 4250 1301 3770 
Q 1056 3291 1056 2328 
Q 1056 1369 1301 889 
Q 1547 409 2034 409 
Q 2525 409 2770 889 
Q 3016 1369 3016 2328 
Q 3016 3291 2770 3770 
Q 2525 4250 2034 4250 
z
M 2034 4750 
Q 2819 4750 3233 4129 
Q 3647 3509 3647 2328 
Q 3647 1150 3233 529 
Q 2819 -91 2034 -91 
Q 1250 -91 836 529 
Q 422 1150 422 2328 
Q 422 3509 836 4129 
Q 1250 4750 2034 4750 
z
" transform="scale(0.015625)"/>
        <path id="DejaVuSans-31" d="M 794 531 
L 1825 531 
L 1825 4091 
L 703 3866 
L 703 4441 
L 1819 4666 
L 2450 4666 
L 2450 531 
L 3481 531 
L 3481 0 
L 794 0 
L 794 531 
z
" transform="scale(0.015625)"/>
        <path id="DejaVuSans-2d" d="M 313 2009 
L 1997 2009 
L 1997 1497 
L 313 1497 
L 313 2009 
z
" transform="scale(0.015625)"/>
       </defs>
       <use xlink:href="#DejaVuSans-32"/>
       <use xlink:href="#DejaVuSans-30" x="63.623047"/>
       <use xlink:href="#DejaVuSans-32" x="127.246094"/>
       <use xlink:href="#DejaVuSans-31" x="190.869141"/>
       <use xlink:href="#DejaVuSans-2d" x="254.492188"/>
       <use xlink:href="#DejaVuSans-30" x="290.576172"/>
       <use xlink:href="#DejaVuSans-31" x="354.199219"/>
      </g>
     </g>
    </g>
    <g id="xtick_2">
     <g id="line2d_3">
      <path d="M 97.684446 567.74175 
L 97.684446 24.14175 
" clip-path="url(#pf83a74000b)" style="fill: none; stroke: #ffffff; stroke-width: 0.8; stroke-linecap: square"/>
     </g>
     <g id="line2d_4">
      <g>
       <use xlink:href="#md95e448490" x="97.684446" y="567.74175" style="fill: #555555; stroke: #555555; stroke-width: 0.8"/>
      </g>
     </g>
     <g id="text_2">
      <!-- 2021-02 -->
      <g style="fill: #555555" transform="translate(84.863164 609.659567)rotate(-45)scale(0.1 -0.1)">
       <use xlink:href="#DejaVuSans-32"/>
       <use xlink:href="#DejaVuSans-30" x="63.623047"/>
       <use xlink:href="#DejaVuSans-32" x="127.246094"/>
       <use xlink:href="#DejaVuSans-31" x="190.869141"/>
       <use xlink:href="#DejaVuSans-2d" x="254.492188"/>
       <use xlink:href="#DejaVuSans-30" x="290.576172"/>
       <use xlink:href="#DejaVuSans-32" x="354.199219"/>
      </g>
     </g>
    </g>
    <g id="xtick_3">
     <g id="line2d_5">
      <path d="M 119.976891 567.74175 
L 119.976891 24.14175 
" clip-path="url(#pf83a74000b)" style="fill: none; stroke: #ffffff; stroke-width: 0.8; stroke-linecap: square"/>
     </g>
     <g id="line2d_6">
      <g>
       <use xlink:href="#md95e448490" x="119.976891" y="567.74175" style="fill: #555555; stroke: #555555; stroke-width: 0.8"/>
      </g>
     </g>
     <g id="text_3">
      <!-- 2021-03 -->
      <g style="fill: #555555" transform="translate(107.155609 609.659567)rotate(-45)scale(0.1 -0.1)">
       <defs>
        <path id="DejaVuSans-33" d="M 2597 2516 
Q 3050 2419 3304 2112 
Q 3559 1806 3559 1356 
Q 3559 666 3084 287 
Q 2609 -91 1734 -91 
Q 1441 -91 1130 -33 
Q 819 25 488 141 
L 488 750 
Q 750 597 1062 519 
Q 1375 441 1716 441 
Q 2309 441 2620 675 
Q 2931 909 2931 1356 
Q 2931 1769 2642 2001 
Q 2353 2234 1838 2234 
L 1294 2234 
L 1294 2753 
L 1863 2753 
Q 2328 2753 2575 2939 
Q 2822 3125 2822 3475 
Q 2822 3834 2567 4026 
Q 2313 4219 1838 4219 
Q 1578 4219 1281 4162 
Q 984 4106 628 3988 
L 628 4550 
Q 988 4650 1302 4700 
Q 1616 4750 1894 4750 
Q 2613 4750 3031 4423 
Q 3450 4097 3450 3541 
Q 3450 3153 3228 2886 
Q 3006 2619 2597 2516 
z
" transform="scale(0.015625)"/>
       </defs>
       <use xlink:href="#DejaVuSans-32"/>
       <use xlink:href="#DejaVuSans-30" x="63.623047"/>
       <use xlink:href="#DejaVuSans-32" x="127.246094"/>
       <use xlink:href="#DejaVuSans-31" x="190.869141"/>
       <use xlink:href="#DejaVuSans-2d" x="254.492188"/>
       <use xlink:href="#DejaVuSans-30" x="290.576172"/>
       <use xlink:href="#DejaVuSans-33" x="354.199219"/>
      </g>
     </g>
    </g>
    <g id="xtick_4">
     <g id="line2d_7">
      <path d="M 144.657812 567.74175 
L 144.657812 24.14175 
" clip-path="url(#pf83a74000b)" style="fill: none; stroke: #ffffff; stroke-width: 0.8; stroke-linecap: square"/>
     </g>
     <g id="line2d_8">
      <g>
       <use xlink:href="#md95e448490" x="144.657812" y="567.74175" style="fill: #555555; stroke: #555555; stroke-width: 0.8"/>
      </g>
     </g>
     <g id="text_4">
      <!-- 2021-04 -->
      <g style="fill: #555555" transform="translate(131.836529 609.659567)rotate(-45)scale(0.1 -0.1)">
       <defs>
        <path id="DejaVuSans-34" d="M 2419 4116 
L 825 1625 
L 2419 1625 
L 2419 4116 
z
M 2253 4666 
L 3047 4666 
L 3047 1625 
L 3713 1625 
L 3713 1100 
L 3047 1100 
L 3047 0 
L 2419 0 
L 2419 1100 
L 313 1100 
L 313 1709 
L 2253 4666 
z
" transform="scale(0.015625)"/>
       </defs>
       <use xlink:href="#DejaVuSans-32"/>
       <use xlink:href="#DejaVuSans-30" x="63.623047"/>
       <use xlink:href="#DejaVuSans-32" x="127.246094"/>
       <use xlink:href="#DejaVuSans-31" x="190.869141"/>
       <use xlink:href="#DejaVuSans-2d" x="254.492188"/>
       <use xlink:href="#DejaVuSans-30" x="290.576172"/>
       <use xlink:href="#DejaVuSans-34" x="354.199219"/>
      </g>
     </g>
    </g>
    <g id="xtick_5">
     <g id="line2d_9">
      <path d="M 168.542573 567.74175 
L 168.542573 24.14175 
" clip-path="url(#pf83a74000b)" style="fill: none; stroke: #ffffff; stroke-width: 0.8; stroke-linecap: square"/>
     </g>
     <g id="line2d_10">
      <g>
       <use xlink:href="#md95e448490" x="168.542573" y="567.74175" style="fill: #555555; stroke: #555555; stroke-width: 0.8"/>
      </g>
     </g>
     <g id="text_5">
      <!-- 2021-05 -->
      <g style="fill: #555555" transform="translate(155.721291 609.659567)rotate(-45)scale(0.1 -0.1)">
       <defs>
        <path id="DejaVuSans-35" d="M 691 4666 
L 3169 4666 
L 3169 4134 
L 1269 4134 
L 1269 2991 
Q 1406 3038 1543 3061 
Q 1681 3084 1819 3084 
Q 2600 3084 3056 2656 
Q 3513 2228 3513 1497 
Q 3513 744 3044 326 
Q 2575 -91 1722 -91 
Q 1428 -91 1123 -41 
Q 819 9 494 109 
L 494 744 
Q 775 591 1075 516 
Q 1375 441 1709 441 
Q 2250 441 2565 725 
Q 2881 1009 2881 1497 
Q 2881 1984 2565 2268 
Q 2250 2553 1709 2553 
Q 1456 2553 1204 2497 
Q 953 2441 691 2322 
L 691 4666 
z
" transform="scale(0.015625)"/>
       </defs>
       <use xlink:href="#DejaVuSans-32"/>
       <use xlink:href="#DejaVuSans-30" x="63.623047"/>
       <use xlink:href="#DejaVuSans-32" x="127.246094"/>
       <use xlink:href="#DejaVuSans-31" x="190.869141"/>
       <use xlink:href="#DejaVuSans-2d" x="254.492188"/>
       <use xlink:href="#DejaVuSans-30" x="290.576172"/>
       <use xlink:href="#DejaVuSans-35" x="354.199219"/>
      </g>
     </g>
    </g>
    <g id="xtick_6">
     <g id="line2d_11">
      <path d="M 193.223494 567.74175 
L 193.223494 24.14175 
" clip-path="url(#pf83a74000b)" style="fill: none; stroke: #ffffff; stroke-width: 0.8; stroke-linecap: square"/>
     </g>
     <g id="line2d_12">
      <g>
       <use xlink:href="#md95e448490" x="193.223494" y="567.74175" style="fill: #555555; stroke: #555555; stroke-width: 0.8"/>
      </g>
     </g>
     <g id="text_6">
      <!-- 2021-06 -->
      <g style="fill: #555555" transform="translate(180.402212 609.659567)rotate(-45)scale(0.1 -0.1)">
       <defs>
        <path id="DejaVuSans-36" d="M 2113 2584 
Q 1688 2584 1439 2293 
Q 1191 2003 1191 1497 
Q 1191 994 1439 701 
Q 1688 409 2113 409 
Q 2538 409 2786 701 
Q 3034 994 3034 1497 
Q 3034 2003 2786 2293 
Q 2538 2584 2113 2584 
z
M 3366 4563 
L 3366 3988 
Q 3128 4100 2886 4159 
Q 2644 4219 2406 4219 
Q 1781 4219 1451 3797 
Q 1122 3375 1075 2522 
Q 1259 2794 1537 2939 
Q 1816 3084 2150 3084 
Q 2853 3084 3261 2657 
Q 3669 2231 3669 1497 
Q 3669 778 3244 343 
Q 2819 -91 2113 -91 
Q 1303 -91 875 529 
Q 447 1150 447 2328 
Q 447 3434 972 4092 
Q 1497 4750 2381 4750 
Q 2619 4750 2861 4703 
Q 3103 4656 3366 4563 
z
" transform="scale(0.015625)"/>
       </defs>
       <use xlink:href="#DejaVuSans-32"/>
       <use xlink:href="#DejaVuSans-30" x="63.623047"/>
       <use xlink:href="#DejaVuSans-32" x="127.246094"/>
       <use xlink:href="#DejaVuSans-31" x="190.869141"/>
       <use xlink:href="#DejaVuSans-2d" x="254.492188"/>
       <use xlink:href="#DejaVuSans-30" x="290.576172"/>
       <use xlink:href="#DejaVuSans-36" x="354.199219"/>
      </g>
     </g>
    </g>
    <g id="xtick_7">
     <g id="line2d_13">
      <path d="M 217.108256 567.74175 
L 217.108256 24.14175 
" clip-path="url(#pf83a74000b)" style="fill: none; stroke: #ffffff; stroke-width: 0.8; stroke-linecap: square"/>
     </g>
     <g id="line2d_14">
      <g>
       <use xlink:href="#md95e448490" x="217.108256" y="567.74175" style="fill: #555555; stroke: #555555; stroke-width: 0.8"/>
      </g>
     </g>
     <g id="text_7">
      <!-- 2021-07 -->
      <g style="fill: #555555" transform="translate(204.286974 609.659567)rotate(-45)scale(0.1 -0.1)">
       <defs>
        <path id="DejaVuSans-37" d="M 525 4666 
L 3525 4666 
L 3525 4397 
L 1831 0 
L 1172 0 
L 2766 4134 
L 525 4134 
L 525 4666 
z
" transform="scale(0.015625)"/>
       </defs>
       <use xlink:href="#DejaVuSans-32"/>
       <use xlink:href="#DejaVuSans-30" x="63.623047"/>
       <use xlink:href="#DejaVuSans-32" x="127.246094"/>
       <use xlink:href="#DejaVuSans-31" x="190.869141"/>
       <use xlink:href="#DejaVuSans-2d" x="254.492188"/>
       <use xlink:href="#DejaVuSans-30" x="290.576172"/>
       <use xlink:href="#DejaVuSans-37" x="354.199219"/>
      </g>
     </g>
    </g>
    <g id="xtick_8">
     <g id="line2d_15">
      <path d="M 241.789177 567.74175 
L 241.789177 24.14175 
" clip-path="url(#pf83a74000b)" style="fill: none; stroke: #ffffff; stroke-width: 0.8; stroke-linecap: square"/>
     </g>
     <g id="line2d_16">
      <g>
       <use xlink:href="#md95e448490" x="241.789177" y="567.74175" style="fill: #555555; stroke: #555555; stroke-width: 0.8"/>
      </g>
     </g>
     <g id="text_8">
      <!-- 2021-08 -->
      <g style="fill: #555555" transform="translate(228.967894 609.659567)rotate(-45)scale(0.1 -0.1)">
       <defs>
        <path id="DejaVuSans-38" d="M 2034 2216 
Q 1584 2216 1326 1975 
Q 1069 1734 1069 1313 
Q 1069 891 1326 650 
Q 1584 409 2034 409 
Q 2484 409 2743 651 
Q 3003 894 3003 1313 
Q 3003 1734 2745 1975 
Q 2488 2216 2034 2216 
z
M 1403 2484 
Q 997 2584 770 2862 
Q 544 3141 544 3541 
Q 544 4100 942 4425 
Q 1341 4750 2034 4750 
Q 2731 4750 3128 4425 
Q 3525 4100 3525 3541 
Q 3525 3141 3298 2862 
Q 3072 2584 2669 2484 
Q 3125 2378 3379 2068 
Q 3634 1759 3634 1313 
Q 3634 634 3220 271 
Q 2806 -91 2034 -91 
Q 1263 -91 848 271 
Q 434 634 434 1313 
Q 434 1759 690 2068 
Q 947 2378 1403 2484 
z
M 1172 3481 
Q 1172 3119 1398 2916 
Q 1625 2713 2034 2713 
Q 2441 2713 2670 2916 
Q 2900 3119 2900 3481 
Q 2900 3844 2670 4047 
Q 2441 4250 2034 4250 
Q 1625 4250 1398 4047 
Q 1172 3844 1172 3481 
z
" transform="scale(0.015625)"/>
       </defs>
       <use xlink:href="#DejaVuSans-32"/>
       <use xlink:href="#DejaVuSans-30" x="63.623047"/>
       <use xlink:href="#DejaVuSans-32" x="127.246094"/>
       <use xlink:href="#DejaVuSans-31" x="190.869141"/>
       <use xlink:href="#DejaVuSans-2d" x="254.492188"/>
       <use xlink:href="#DejaVuSans-30" x="290.576172"/>
       <use xlink:href="#DejaVuSans-38" x="354.199219"/>
      </g>
     </g>
    </g>
    <g id="xtick_9">
     <g id="line2d_17">
      <path d="M 266.470097 567.74175 
L 266.470097 24.14175 
" clip-path="url(#pf83a74000b)" style="fill: none; stroke: #ffffff; stroke-width: 0.8; stroke-linecap: square"/>
     </g>
     <g id="line2d_18">
      <g>
       <use xlink:href="#md95e448490" x="266.470097" y="567.74175" style="fill: #555555; stroke: #555555; stroke-width: 0.8"/>
      </g>
     </g>
     <g id="text_9">
      <!-- 2021-09 -->
      <g style="fill: #555555" transform="translate(253.648815 609.659567)rotate(-45)scale(0.1 -0.1)">
       <defs>
        <path id="DejaVuSans-39" d="M 703 97 
L 703 672 
Q 941 559 1184 500 
Q 1428 441 1663 441 
Q 2288 441 2617 861 
Q 2947 1281 2994 2138 
Q 2813 1869 2534 1725 
Q 2256 1581 1919 1581 
Q 1219 1581 811 2004 
Q 403 2428 403 3163 
Q 403 3881 828 4315 
Q 1253 4750 1959 4750 
Q 2769 4750 3195 4129 
Q 3622 3509 3622 2328 
Q 3622 1225 3098 567 
Q 2575 -91 1691 -91 
Q 1453 -91 1209 -44 
Q 966 3 703 97 
z
M 1959 2075 
Q 2384 2075 2632 2365 
Q 2881 2656 2881 3163 
Q 2881 3666 2632 3958 
Q 2384 4250 1959 4250 
Q 1534 4250 1286 3958 
Q 1038 3666 1038 3163 
Q 1038 2656 1286 2365 
Q 1534 2075 1959 2075 
z
" transform="scale(0.015625)"/>
       </defs>
       <use xlink:href="#DejaVuSans-32"/>
       <use xlink:href="#DejaVuSans-30" x="63.623047"/>
       <use xlink:href="#DejaVuSans-32" x="127.246094"/>
       <use xlink:href="#DejaVuSans-31" x="190.869141"/>
       <use xlink:href="#DejaVuSans-2d" x="254.492188"/>
       <use xlink:href="#DejaVuSans-30" x="290.576172"/>
       <use xlink:href="#DejaVuSans-39" x="354.199219"/>
      </g>
     </g>
    </g>
    <g id="xtick_10">
     <g id="line2d_19">
      <path d="M 290.354859 567.74175 
L 290.354859 24.14175 
" clip-path="url(#pf83a74000b)" style="fill: none; stroke: #ffffff; stroke-width: 0.8; stroke-linecap: square"/>
     </g>
     <g id="line2d_20">
      <g>
       <use xlink:href="#md95e448490" x="290.354859" y="567.74175" style="fill: #555555; stroke: #555555; stroke-width: 0.8"/>
      </g>
     </g>
     <g id="text_10">
      <!-- 2021-10 -->
      <g style="fill: #555555" transform="translate(277.533577 609.659567)rotate(-45)scale(0.1 -0.1)">
       <use xlink:href="#DejaVuSans-32"/>
       <use xlink:href="#DejaVuSans-30" x="63.623047"/>
       <use xlink:href="#DejaVuSans-32" x="127.246094"/>
       <use xlink:href="#DejaVuSans-31" x="190.869141"/>
       <use xlink:href="#DejaVuSans-2d" x="254.492188"/>
       <use xlink:href="#DejaVuSans-31" x="290.576172"/>
       <use xlink:href="#DejaVuSans-30" x="354.199219"/>
      </g>
     </g>
    </g>
    <g id="xtick_11">
     <g id="line2d_21">
      <path d="M 315.03578 567.74175 
L 315.03578 24.14175 
" clip-path="url(#pf83a74000b)" style="fill: none; stroke: #ffffff; stroke-width: 0.8; stroke-linecap: square"/>
     </g>
     <g id="line2d_22">
      <g>
       <use xlink:href="#md95e448490" x="315.03578" y="567.74175" style="fill: #555555; stroke: #555555; stroke-width: 0.8"/>
      </g>
     </g>
     <g id="text_11">
      <!-- 2021-11 -->
      <g style="fill: #555555" transform="translate(302.214498 609.659567)rotate(-45)scale(0.1 -0.1)">
       <use xlink:href="#DejaVuSans-32"/>
       <use xlink:href="#DejaVuSans-30" x="63.623047"/>
       <use xlink:href="#DejaVuSans-32" x="127.246094"/>
       <use xlink:href="#DejaVuSans-31" x="190.869141"/>
       <use xlink:href="#DejaVuSans-2d" x="254.492188"/>
       <use xlink:href="#DejaVuSans-31" x="290.576172"/>
       <use xlink:href="#DejaVuSans-31" x="354.199219"/>
      </g>
     </g>
    </g>
    <g id="xtick_12">
     <g id="line2d_23">
      <path d="M 338.920542 567.74175 
L 338.920542 24.14175 
" clip-path="url(#pf83a74000b)" style="fill: none; stroke: #ffffff; stroke-width: 0.8; stroke-linecap: square"/>
     </g>
     <g id="line2d_24">
      <g>
       <use xlink:href="#md95e448490" x="338.920542" y="567.74175" style="fill: #555555; stroke: #555555; stroke-width: 0.8"/>
      </g>
     </g>
     <g id="text_12">
      <!-- 2021-12 -->
      <g style="fill: #555555" transform="translate(326.099259 609.659567)rotate(-45)scale(0.1 -0.1)">
       <use xlink:href="#DejaVuSans-32"/>
       <use xlink:href="#DejaVuSans-30" x="63.623047"/>
       <use xlink:href="#DejaVuSans-32" x="127.246094"/>
       <use xlink:href="#DejaVuSans-31" x="190.869141"/>
       <use xlink:href="#DejaVuSans-2d" x="254.492188"/>
       <use xlink:href="#DejaVuSans-31" x="290.576172"/>
       <use xlink:href="#DejaVuSans-32" x="354.199219"/>
      </g>
     </g>
    </g>
    <g id="xtick_13">
     <g id="line2d_25">
      <path d="M 363.601462 567.74175 
L 363.601462 24.14175 
" clip-path="url(#pf83a74000b)" style="fill: none; stroke: #ffffff; stroke-width: 0.8; stroke-linecap: square"/>
     </g>
     <g id="line2d_26">
      <g>
       <use xlink:href="#md95e448490" x="363.601462" y="567.74175" style="fill: #555555; stroke: #555555; stroke-width: 0.8"/>
      </g>
     </g>
     <g id="text_13">
      <!-- 2022-01 -->
      <g style="fill: #555555" transform="translate(350.78018 609.659567)rotate(-45)scale(0.1 -0.1)">
       <use xlink:href="#DejaVuSans-32"/>
       <use xlink:href="#DejaVuSans-30" x="63.623047"/>
       <use xlink:href="#DejaVuSans-32" x="127.246094"/>
       <use xlink:href="#DejaVuSans-32" x="190.869141"/>
       <use xlink:href="#DejaVuSans-2d" x="254.492188"/>
       <use xlink:href="#DejaVuSans-30" x="290.576172"/>
       <use xlink:href="#DejaVuSans-31" x="354.199219"/>
      </g>
     </g>
    </g>
    <g id="xtick_14">
     <g id="line2d_27">
      <path d="M 388.282383 567.74175 
L 388.282383 24.14175 
" clip-path="url(#pf83a74000b)" style="fill: none; stroke: #ffffff; stroke-width: 0.8; stroke-linecap: square"/>
     </g>
     <g id="line2d_28">
      <g>
       <use xlink:href="#md95e448490" x="388.282383" y="567.74175" style="fill: #555555; stroke: #555555; stroke-width: 0.8"/>
      </g>
     </g>
     <g id="text_14">
      <!-- 2022-02 -->
      <g style="fill: #555555" transform="translate(375.461101 609.659567)rotate(-45)scale(0.1 -0.1)">
       <use xlink:href="#DejaVuSans-32"/>
       <use xlink:href="#DejaVuSans-30" x="63.623047"/>
       <use xlink:href="#DejaVuSans-32" x="127.246094"/>
       <use xlink:href="#DejaVuSans-32" x="190.869141"/>
       <use xlink:href="#DejaVuSans-2d" x="254.492188"/>
       <use xlink:href="#DejaVuSans-30" x="290.576172"/>
       <use xlink:href="#DejaVuSans-32" x="354.199219"/>
      </g>
     </g>
    </g>
    <g id="xtick_15">
     <g id="line2d_29">
      <path d="M 410.574827 567.74175 
L 410.574827 24.14175 
" clip-path="url(#pf83a74000b)" style="fill: none; stroke: #ffffff; stroke-width: 0.8; stroke-linecap: square"/>
     </g>
     <g id="line2d_30">
      <g>
       <use xlink:href="#md95e448490" x="410.574827" y="567.74175" style="fill: #555555; stroke: #555555; stroke-width: 0.8"/>
      </g>
     </g>
     <g id="text_15">
      <!-- 2022-03 -->
      <g style="fill: #555555" transform="translate(397.753545 609.659567)rotate(-45)scale(0.1 -0.1)">
       <use xlink:href="#DejaVuSans-32"/>
       <use xlink:href="#DejaVuSans-30" x="63.623047"/>
       <use xlink:href="#DejaVuSans-32" x="127.246094"/>
       <use xlink:href="#DejaVuSans-32" x="190.869141"/>
       <use xlink:href="#DejaVuSans-2d" x="254.492188"/>
       <use xlink:href="#DejaVuSans-30" x="290.576172"/>
       <use xlink:href="#DejaVuSans-33" x="354.199219"/>
      </g>
     </g>
    </g>
    <g id="xtick_16">
     <g id="line2d_31">
      <path d="M 435.255748 567.74175 
L 435.255748 24.14175 
" clip-path="url(#pf83a74000b)" style="fill: none; stroke: #ffffff; stroke-width: 0.8; stroke-linecap: square"/>
     </g>
     <g id="line2d_32">
      <g>
       <use xlink:href="#md95e448490" x="435.255748" y="567.74175" style="fill: #555555; stroke: #555555; stroke-width: 0.8"/>
      </g>
     </g>
     <g id="text_16">
      <!-- 2022-04 -->
      <g style="fill: #555555" transform="translate(422.434466 609.659567)rotate(-45)scale(0.1 -0.1)">
       <use xlink:href="#DejaVuSans-32"/>
       <use xlink:href="#DejaVuSans-30" x="63.623047"/>
       <use xlink:href="#DejaVuSans-32" x="127.246094"/>
       <use xlink:href="#DejaVuSans-32" x="190.869141"/>
       <use xlink:href="#DejaVuSans-2d" x="254.492188"/>
       <use xlink:href="#DejaVuSans-30" x="290.576172"/>
       <use xlink:href="#DejaVuSans-34" x="354.199219"/>
      </g>
     </g>
    </g>
    <g id="xtick_17">
     <g id="line2d_33">
      <path d="M 459.14051 567.74175 
L 459.14051 24.14175 
" clip-path="url(#pf83a74000b)" style="fill: none; stroke: #ffffff; stroke-width: 0.8; stroke-linecap: square"/>
     </g>
     <g id="line2d_34">
      <g>
       <use xlink:href="#md95e448490" x="459.14051" y="567.74175" style="fill: #555555; stroke: #555555; stroke-width: 0.8"/>
      </g>
     </g>
     <g id="text_17">
      <!-- 2022-05 -->
      <g style="fill: #555555" transform="translate(446.319228 609.659567)rotate(-45)scale(0.1 -0.1)">
       <use xlink:href="#DejaVuSans-32"/>
       <use xlink:href="#DejaVuSans-30" x="63.623047"/>
       <use xlink:href="#DejaVuSans-32" x="127.246094"/>
       <use xlink:href="#DejaVuSans-32" x="190.869141"/>
       <use xlink:href="#DejaVuSans-2d" x="254.492188"/>
       <use xlink:href="#DejaVuSans-30" x="290.576172"/>
       <use xlink:href="#DejaVuSans-35" x="354.199219"/>
      </g>
     </g>
    </g>
    <g id="xtick_18">
     <g id="line2d_35">
      <path d="M 483.821431 567.74175 
L 483.821431 24.14175 
" clip-path="url(#pf83a74000b)" style="fill: none; stroke: #ffffff; stroke-width: 0.8; stroke-linecap: square"/>
     </g>
     <g id="line2d_36">
      <g>
       <use xlink:href="#md95e448490" x="483.821431" y="567.74175" style="fill: #555555; stroke: #555555; stroke-width: 0.8"/>
      </g>
     </g>
     <g id="text_18">
      <!-- 2022-06 -->
      <g style="fill: #555555" transform="translate(471.000148 609.659567)rotate(-45)scale(0.1 -0.1)">
       <use xlink:href="#DejaVuSans-32"/>
       <use xlink:href="#DejaVuSans-30" x="63.623047"/>
       <use xlink:href="#DejaVuSans-32" x="127.246094"/>
       <use xlink:href="#DejaVuSans-32" x="190.869141"/>
       <use xlink:href="#DejaVuSans-2d" x="254.492188"/>
       <use xlink:href="#DejaVuSans-30" x="290.576172"/>
       <use xlink:href="#DejaVuSans-36" x="354.199219"/>
      </g>
     </g>
    </g>
    <g id="xtick_19">
     <g id="line2d_37">
      <path d="M 507.706192 567.74175 
L 507.706192 24.14175 
" clip-path="url(#pf83a74000b)" style="fill: none; stroke: #ffffff; stroke-width: 0.8; stroke-linecap: square"/>
     </g>
     <g id="line2d_38">
      <g>
       <use xlink:href="#md95e448490" x="507.706192" y="567.74175" style="fill: #555555; stroke: #555555; stroke-width: 0.8"/>
      </g>
     </g>
     <g id="text_19">
      <!-- 2022-07 -->
      <g style="fill: #555555" transform="translate(494.88491 609.659567)rotate(-45)scale(0.1 -0.1)">
       <use xlink:href="#DejaVuSans-32"/>
       <use xlink:href="#DejaVuSans-30" x="63.623047"/>
       <use xlink:href="#DejaVuSans-32" x="127.246094"/>
       <use xlink:href="#DejaVuSans-32" x="190.869141"/>
       <use xlink:href="#DejaVuSans-2d" x="254.492188"/>
       <use xlink:href="#DejaVuSans-30" x="290.576172"/>
       <use xlink:href="#DejaVuSans-37" x="354.199219"/>
      </g>
     </g>
    </g>
    <g id="xtick_20">
     <g id="line2d_39">
      <path d="M 532.387113 567.74175 
L 532.387113 24.14175 
" clip-path="url(#pf83a74000b)" style="fill: none; stroke: #ffffff; stroke-width: 0.8; stroke-linecap: square"/>
     </g>
     <g id="line2d_40">
      <g>
       <use xlink:href="#md95e448490" x="532.387113" y="567.74175" style="fill: #555555; stroke: #555555; stroke-width: 0.8"/>
      </g>
     </g>
     <g id="text_20">
      <!-- 2022-08 -->
      <g style="fill: #555555" transform="translate(519.565831 609.659567)rotate(-45)scale(0.1 -0.1)">
       <use xlink:href="#DejaVuSans-32"/>
       <use xlink:href="#DejaVuSans-30" x="63.623047"/>
       <use xlink:href="#DejaVuSans-32" x="127.246094"/>
       <use xlink:href="#DejaVuSans-32" x="190.869141"/>
       <use xlink:href="#DejaVuSans-2d" x="254.492188"/>
       <use xlink:href="#DejaVuSans-30" x="290.576172"/>
       <use xlink:href="#DejaVuSans-38" x="354.199219"/>
      </g>
     </g>
    </g>
    <g id="xtick_21">
     <g id="line2d_41">
      <path d="M 557.068034 567.74175 
L 557.068034 24.14175 
" clip-path="url(#pf83a74000b)" style="fill: none; stroke: #ffffff; stroke-width: 0.8; stroke-linecap: square"/>
     </g>
     <g id="line2d_42">
      <g>
       <use xlink:href="#md95e448490" x="557.068034" y="567.74175" style="fill: #555555; stroke: #555555; stroke-width: 0.8"/>
      </g>
     </g>
     <g id="text_21">
      <!-- 2022-09 -->
      <g style="fill: #555555" transform="translate(544.246751 609.659567)rotate(-45)scale(0.1 -0.1)">
       <use xlink:href="#DejaVuSans-32"/>
       <use xlink:href="#DejaVuSans-30" x="63.623047"/>
       <use xlink:href="#DejaVuSans-32" x="127.246094"/>
       <use xlink:href="#DejaVuSans-32" x="190.869141"/>
       <use xlink:href="#DejaVuSans-2d" x="254.492188"/>
       <use xlink:href="#DejaVuSans-30" x="290.576172"/>
       <use xlink:href="#DejaVuSans-39" x="354.199219"/>
      </g>
     </g>
    </g>
    <g id="xtick_22">
     <g id="line2d_43">
      <path d="M 580.952796 567.74175 
L 580.952796 24.14175 
" clip-path="url(#pf83a74000b)" style="fill: none; stroke: #ffffff; stroke-width: 0.8; stroke-linecap: square"/>
     </g>
     <g id="line2d_44">
      <g>
       <use xlink:href="#md95e448490" x="580.952796" y="567.74175" style="fill: #555555; stroke: #555555; stroke-width: 0.8"/>
      </g>
     </g>
     <g id="text_22">
      <!-- 2022-10 -->
      <g style="fill: #555555" transform="translate(568.131513 609.659567)rotate(-45)scale(0.1 -0.1)">
       <use xlink:href="#DejaVuSans-32"/>
       <use xlink:href="#DejaVuSans-30" x="63.623047"/>
       <use xlink:href="#DejaVuSans-32" x="127.246094"/>
       <use xlink:href="#DejaVuSans-32" x="190.869141"/>
       <use xlink:href="#DejaVuSans-2d" x="254.492188"/>
       <use xlink:href="#DejaVuSans-31" x="290.576172"/>
       <use xlink:href="#DejaVuSans-30" x="354.199219"/>
      </g>
     </g>
    </g>
    <g id="xtick_23">
     <g id="line2d_45">
      <path d="M 605.633716 567.74175 
L 605.633716 24.14175 
" clip-path="url(#pf83a74000b)" style="fill: none; stroke: #ffffff; stroke-width: 0.8; stroke-linecap: square"/>
     </g>
     <g id="line2d_46">
      <g>
       <use xlink:href="#md95e448490" x="605.633716" y="567.74175" style="fill: #555555; stroke: #555555; stroke-width: 0.8"/>
      </g>
     </g>
     <g id="text_23">
      <!-- 2022-11 -->
      <g style="fill: #555555" transform="translate(592.812434 609.659567)rotate(-45)scale(0.1 -0.1)">
       <use xlink:href="#DejaVuSans-32"/>
       <use xlink:href="#DejaVuSans-30" x="63.623047"/>
       <use xlink:href="#DejaVuSans-32" x="127.246094"/>
       <use xlink:href="#DejaVuSans-32" x="190.869141"/>
       <use xlink:href="#DejaVuSans-2d" x="254.492188"/>
       <use xlink:href="#DejaVuSans-31" x="290.576172"/>
       <use xlink:href="#DejaVuSans-31" x="354.199219"/>
      </g>
     </g>
    </g>
    <g id="xtick_24">
     <g id="line2d_47">
      <path d="M 629.518478 567.74175 
L 629.518478 24.14175 
" clip-path="url(#pf83a74000b)" style="fill: none; stroke: #ffffff; stroke-width: 0.8; stroke-linecap: square"/>
     </g>
     <g id="line2d_48">
      <g>
       <use xlink:href="#md95e448490" x="629.518478" y="567.74175" style="fill: #555555; stroke: #555555; stroke-width: 0.8"/>
      </g>
     </g>
     <g id="text_24">
      <!-- 2022-12 -->
      <g style="fill: #555555" transform="translate(616.697196 609.659567)rotate(-45)scale(0.1 -0.1)">
       <use xlink:href="#DejaVuSans-32"/>
       <use xlink:href="#DejaVuSans-30" x="63.623047"/>
       <use xlink:href="#DejaVuSans-32" x="127.246094"/>
       <use xlink:href="#DejaVuSans-32" x="190.869141"/>
       <use xlink:href="#DejaVuSans-2d" x="254.492188"/>
       <use xlink:href="#DejaVuSans-31" x="290.576172"/>
       <use xlink:href="#DejaVuSans-32" x="354.199219"/>
      </g>
     </g>
    </g>
    <g id="xtick_25">
     <g id="line2d_49">
      <path d="M 654.199399 567.74175 
L 654.199399 24.14175 
" clip-path="url(#pf83a74000b)" style="fill: none; stroke: #ffffff; stroke-width: 0.8; stroke-linecap: square"/>
     </g>
     <g id="line2d_50">
      <g>
       <use xlink:href="#md95e448490" x="654.199399" y="567.74175" style="fill: #555555; stroke: #555555; stroke-width: 0.8"/>
      </g>
     </g>
     <g id="text_25">
      <!-- 2023-01 -->
      <g style="fill: #555555" transform="translate(641.378117 609.659567)rotate(-45)scale(0.1 -0.1)">
       <use xlink:href="#DejaVuSans-32"/>
       <use xlink:href="#DejaVuSans-30" x="63.623047"/>
       <use xlink:href="#DejaVuSans-32" x="127.246094"/>
       <use xlink:href="#DejaVuSans-33" x="190.869141"/>
       <use xlink:href="#DejaVuSans-2d" x="254.492188"/>
       <use xlink:href="#DejaVuSans-30" x="290.576172"/>
       <use xlink:href="#DejaVuSans-31" x="354.199219"/>
      </g>
     </g>
    </g>
    <g id="xtick_26">
     <g id="line2d_51">
      <path d="M 678.880319 567.74175 
L 678.880319 24.14175 
" clip-path="url(#pf83a74000b)" style="fill: none; stroke: #ffffff; stroke-width: 0.8; stroke-linecap: square"/>
     </g>
     <g id="line2d_52">
      <g>
       <use xlink:href="#md95e448490" x="678.880319" y="567.74175" style="fill: #555555; stroke: #555555; stroke-width: 0.8"/>
      </g>
     </g>
     <g id="text_26">
      <!-- 2023-02 -->
      <g style="fill: #555555" transform="translate(666.059037 609.659567)rotate(-45)scale(0.1 -0.1)">
       <use xlink:href="#DejaVuSans-32"/>
       <use xlink:href="#DejaVuSans-30" x="63.623047"/>
       <use xlink:href="#DejaVuSans-32" x="127.246094"/>
       <use xlink:href="#DejaVuSans-33" x="190.869141"/>
       <use xlink:href="#DejaVuSans-2d" x="254.492188"/>
       <use xlink:href="#DejaVuSans-30" x="290.576172"/>
       <use xlink:href="#DejaVuSans-32" x="354.199219"/>
      </g>
     </g>
    </g>
    <g id="xtick_27">
     <g id="line2d_53">
      <path d="M 701.172764 567.74175 
L 701.172764 24.14175 
" clip-path="url(#pf83a74000b)" style="fill: none; stroke: #ffffff; stroke-width: 0.8; stroke-linecap: square"/>
     </g>
     <g id="line2d_54">
      <g>
       <use xlink:href="#md95e448490" x="701.172764" y="567.74175" style="fill: #555555; stroke: #555555; stroke-width: 0.8"/>
      </g>
     </g>
     <g id="text_27">
      <!-- 2023-03 -->
      <g style="fill: #555555" transform="translate(688.351482 609.659567)rotate(-45)scale(0.1 -0.1)">
       <use xlink:href="#DejaVuSans-32"/>
       <use xlink:href="#DejaVuSans-30" x="63.623047"/>
       <use xlink:href="#DejaVuSans-32" x="127.246094"/>
       <use xlink:href="#DejaVuSans-33" x="190.869141"/>
       <use xlink:href="#DejaVuSans-2d" x="254.492188"/>
       <use xlink:href="#DejaVuSans-30" x="290.576172"/>
       <use xlink:href="#DejaVuSans-33" x="354.199219"/>
      </g>
     </g>
    </g>
    <g id="xtick_28">
     <g id="line2d_55">
      <path d="M 725.853685 567.74175 
L 725.853685 24.14175 
" clip-path="url(#pf83a74000b)" style="fill: none; stroke: #ffffff; stroke-width: 0.8; stroke-linecap: square"/>
     </g>
     <g id="line2d_56">
      <g>
       <use xlink:href="#md95e448490" x="725.853685" y="567.74175" style="fill: #555555; stroke: #555555; stroke-width: 0.8"/>
      </g>
     </g>
     <g id="text_28">
      <!-- 2023-04 -->
      <g style="fill: #555555" transform="translate(713.032402 609.659567)rotate(-45)scale(0.1 -0.1)">
       <use xlink:href="#DejaVuSans-32"/>
       <use xlink:href="#DejaVuSans-30" x="63.623047"/>
       <use xlink:href="#DejaVuSans-32" x="127.246094"/>
       <use xlink:href="#DejaVuSans-33" x="190.869141"/>
       <use xlink:href="#DejaVuSans-2d" x="254.492188"/>
       <use xlink:href="#DejaVuSans-30" x="290.576172"/>
       <use xlink:href="#DejaVuSans-34" x="354.199219"/>
      </g>
     </g>
    </g>
    <g id="xtick_29">
     <g id="line2d_57">
      <path d="M 749.738446 567.74175 
L 749.738446 24.14175 
" clip-path="url(#pf83a74000b)" style="fill: none; stroke: #ffffff; stroke-width: 0.8; stroke-linecap: square"/>
     </g>
     <g id="line2d_58">
      <g>
       <use xlink:href="#md95e448490" x="749.738446" y="567.74175" style="fill: #555555; stroke: #555555; stroke-width: 0.8"/>
      </g>
     </g>
     <g id="text_29">
      <!-- 2023-05 -->
      <g style="fill: #555555" transform="translate(736.917164 609.659567)rotate(-45)scale(0.1 -0.1)">
       <use xlink:href="#DejaVuSans-32"/>
       <use xlink:href="#DejaVuSans-30" x="63.623047"/>
       <use xlink:href="#DejaVuSans-32" x="127.246094"/>
       <use xlink:href="#DejaVuSans-33" x="190.869141"/>
       <use xlink:href="#DejaVuSans-2d" x="254.492188"/>
       <use xlink:href="#DejaVuSans-30" x="290.576172"/>
       <use xlink:href="#DejaVuSans-35" x="354.199219"/>
      </g>
     </g>
    </g>
    <g id="xtick_30">
     <g id="line2d_59">
      <path d="M 774.419367 567.74175 
L 774.419367 24.14175 
" clip-path="url(#pf83a74000b)" style="fill: none; stroke: #ffffff; stroke-width: 0.8; stroke-linecap: square"/>
     </g>
     <g id="line2d_60">
      <g>
       <use xlink:href="#md95e448490" x="774.419367" y="567.74175" style="fill: #555555; stroke: #555555; stroke-width: 0.8"/>
      </g>
     </g>
     <g id="text_30">
      <!-- 2023-06 -->
      <g style="fill: #555555" transform="translate(761.598085 609.659567)rotate(-45)scale(0.1 -0.1)">
       <use xlink:href="#DejaVuSans-32"/>
       <use xlink:href="#DejaVuSans-30" x="63.623047"/>
       <use xlink:href="#DejaVuSans-32" x="127.246094"/>
       <use xlink:href="#DejaVuSans-33" x="190.869141"/>
       <use xlink:href="#DejaVuSans-2d" x="254.492188"/>
       <use xlink:href="#DejaVuSans-30" x="290.576172"/>
       <use xlink:href="#DejaVuSans-36" x="354.199219"/>
      </g>
     </g>
    </g>
    <g id="xtick_31">
     <g id="line2d_61">
      <path d="M 798.304129 567.74175 
L 798.304129 24.14175 
" clip-path="url(#pf83a74000b)" style="fill: none; stroke: #ffffff; stroke-width: 0.8; stroke-linecap: square"/>
     </g>
     <g id="line2d_62">
      <g>
       <use xlink:href="#md95e448490" x="798.304129" y="567.74175" style="fill: #555555; stroke: #555555; stroke-width: 0.8"/>
      </g>
     </g>
     <g id="text_31">
      <!-- 2023-07 -->
      <g style="fill: #555555" transform="translate(785.482847 609.659567)rotate(-45)scale(0.1 -0.1)">
       <use xlink:href="#DejaVuSans-32"/>
       <use xlink:href="#DejaVuSans-30" x="63.623047"/>
       <use xlink:href="#DejaVuSans-32" x="127.246094"/>
       <use xlink:href="#DejaVuSans-33" x="190.869141"/>
       <use xlink:href="#DejaVuSans-2d" x="254.492188"/>
       <use xlink:href="#DejaVuSans-30" x="290.576172"/>
       <use xlink:href="#DejaVuSans-37" x="354.199219"/>
      </g>
     </g>
    </g>
    <g id="xtick_32">
     <g id="line2d_63">
      <path d="M 822.98505 567.74175 
L 822.98505 24.14175 
" clip-path="url(#pf83a74000b)" style="fill: none; stroke: #ffffff; stroke-width: 0.8; stroke-linecap: square"/>
     </g>
     <g id="line2d_64">
      <g>
       <use xlink:href="#md95e448490" x="822.98505" y="567.74175" style="fill: #555555; stroke: #555555; stroke-width: 0.8"/>
      </g>
     </g>
     <g id="text_32">
      <!-- 2023-08 -->
      <g style="fill: #555555" transform="translate(810.163767 609.659567)rotate(-45)scale(0.1 -0.1)">
       <use xlink:href="#DejaVuSans-32"/>
       <use xlink:href="#DejaVuSans-30" x="63.623047"/>
       <use xlink:href="#DejaVuSans-32" x="127.246094"/>
       <use xlink:href="#DejaVuSans-33" x="190.869141"/>
       <use xlink:href="#DejaVuSans-2d" x="254.492188"/>
       <use xlink:href="#DejaVuSans-30" x="290.576172"/>
       <use xlink:href="#DejaVuSans-38" x="354.199219"/>
      </g>
     </g>
    </g>
    <g id="xtick_33">
     <g id="line2d_65">
      <path d="M 847.66597 567.74175 
L 847.66597 24.14175 
" clip-path="url(#pf83a74000b)" style="fill: none; stroke: #ffffff; stroke-width: 0.8; stroke-linecap: square"/>
     </g>
     <g id="line2d_66">
      <g>
       <use xlink:href="#md95e448490" x="847.66597" y="567.74175" style="fill: #555555; stroke: #555555; stroke-width: 0.8"/>
      </g>
     </g>
     <g id="text_33">
      <!-- 2023-09 -->
      <g style="fill: #555555" transform="translate(834.844688 609.659567)rotate(-45)scale(0.1 -0.1)">
       <use xlink:href="#DejaVuSans-32"/>
       <use xlink:href="#DejaVuSans-30" x="63.623047"/>
       <use xlink:href="#DejaVuSans-32" x="127.246094"/>
       <use xlink:href="#DejaVuSans-33" x="190.869141"/>
       <use xlink:href="#DejaVuSans-2d" x="254.492188"/>
       <use xlink:href="#DejaVuSans-30" x="290.576172"/>
       <use xlink:href="#DejaVuSans-39" x="354.199219"/>
      </g>
     </g>
    </g>
    <g id="xtick_34">
     <g id="line2d_67">
      <path d="M 871.550732 567.74175 
L 871.550732 24.14175 
" clip-path="url(#pf83a74000b)" style="fill: none; stroke: #ffffff; stroke-width: 0.8; stroke-linecap: square"/>
     </g>
     <g id="line2d_68">
      <g>
       <use xlink:href="#md95e448490" x="871.550732" y="567.74175" style="fill: #555555; stroke: #555555; stroke-width: 0.8"/>
      </g>
     </g>
     <g id="text_34">
      <!-- 2023-10 -->
      <g style="fill: #555555" transform="translate(858.72945 609.659567)rotate(-45)scale(0.1 -0.1)">
       <use xlink:href="#DejaVuSans-32"/>
       <use xlink:href="#DejaVuSans-30" x="63.623047"/>
       <use xlink:href="#DejaVuSans-32" x="127.246094"/>
       <use xlink:href="#DejaVuSans-33" x="190.869141"/>
       <use xlink:href="#DejaVuSans-2d" x="254.492188"/>
       <use xlink:href="#DejaVuSans-31" x="290.576172"/>
       <use xlink:href="#DejaVuSans-30" x="354.199219"/>
      </g>
     </g>
    </g>
    <g id="xtick_35">
     <g id="line2d_69">
      <path d="M 896.231653 567.74175 
L 896.231653 24.14175 
" clip-path="url(#pf83a74000b)" style="fill: none; stroke: #ffffff; stroke-width: 0.8; stroke-linecap: square"/>
     </g>
     <g id="line2d_70">
      <g>
       <use xlink:href="#md95e448490" x="896.231653" y="567.74175" style="fill: #555555; stroke: #555555; stroke-width: 0.8"/>
      </g>
     </g>
     <g id="text_35">
      <!-- 2023-11 -->
      <g style="fill: #555555" transform="translate(883.410371 609.659567)rotate(-45)scale(0.1 -0.1)">
       <use xlink:href="#DejaVuSans-32"/>
       <use xlink:href="#DejaVuSans-30" x="63.623047"/>
       <use xlink:href="#DejaVuSans-32" x="127.246094"/>
       <use xlink:href="#DejaVuSans-33" x="190.869141"/>
       <use xlink:href="#DejaVuSans-2d" x="254.492188"/>
       <use xlink:href="#DejaVuSans-31" x="290.576172"/>
       <use xlink:href="#DejaVuSans-31" x="354.199219"/>
      </g>
     </g>
    </g>
    <g id="xtick_36">
     <g id="line2d_71">
      <path d="M 920.116415 567.74175 
L 920.116415 24.14175 
" clip-path="url(#pf83a74000b)" style="fill: none; stroke: #ffffff; stroke-width: 0.8; stroke-linecap: square"/>
     </g>
     <g id="line2d_72">
      <g>
       <use xlink:href="#md95e448490" x="920.116415" y="567.74175" style="fill: #555555; stroke: #555555; stroke-width: 0.8"/>
      </g>
     </g>
     <g id="text_36">
      <!-- 2023-12 -->
      <g style="fill: #555555" transform="translate(907.295132 609.659567)rotate(-45)scale(0.1 -0.1)">
       <use xlink:href="#DejaVuSans-32"/>
       <use xlink:href="#DejaVuSans-30" x="63.623047"/>
       <use xlink:href="#DejaVuSans-32" x="127.246094"/>
       <use xlink:href="#DejaVuSans-33" x="190.869141"/>
       <use xlink:href="#DejaVuSans-2d" x="254.492188"/>
       <use xlink:href="#DejaVuSans-31" x="290.576172"/>
       <use xlink:href="#DejaVuSans-32" x="354.199219"/>
      </g>
     </g>
    </g>
    <g id="xtick_37">
     <g id="line2d_73">
      <path d="M 944.797335 567.74175 
L 944.797335 24.14175 
" clip-path="url(#pf83a74000b)" style="fill: none; stroke: #ffffff; stroke-width: 0.8; stroke-linecap: square"/>
     </g>
     <g id="line2d_74">
      <g>
       <use xlink:href="#md95e448490" x="944.797335" y="567.74175" style="fill: #555555; stroke: #555555; stroke-width: 0.8"/>
      </g>
     </g>
     <g id="text_37">
      <!-- 2024-01 -->
      <g style="fill: #555555" transform="translate(931.976053 609.659567)rotate(-45)scale(0.1 -0.1)">
       <use xlink:href="#DejaVuSans-32"/>
       <use xlink:href="#DejaVuSans-30" x="63.623047"/>
       <use xlink:href="#DejaVuSans-32" x="127.246094"/>
       <use xlink:href="#DejaVuSans-34" x="190.869141"/>
       <use xlink:href="#DejaVuSans-2d" x="254.492188"/>
       <use xlink:href="#DejaVuSans-30" x="290.576172"/>
       <use xlink:href="#DejaVuSans-31" x="354.199219"/>
      </g>
     </g>
    </g>
    <g id="text_38">
     <!-- Date -->
     <g style="fill: #555555" transform="translate(491.772938 624.248253)scale(0.12 -0.12)">
      <defs>
       <path id="DejaVuSans-44" d="M 1259 4147 
L 1259 519 
L 2022 519 
Q 2988 519 3436 956 
Q 3884 1394 3884 2338 
Q 3884 3275 3436 3711 
Q 2988 4147 2022 4147 
L 1259 4147 
z
M 628 4666 
L 1925 4666 
Q 3281 4666 3915 4102 
Q 4550 3538 4550 2338 
Q 4550 1131 3912 565 
Q 3275 0 1925 0 
L 628 0 
L 628 4666 
z
" transform="scale(0.015625)"/>
       <path id="DejaVuSans-61" d="M 2194 1759 
Q 1497 1759 1228 1600 
Q 959 1441 959 1056 
Q 959 750 1161 570 
Q 1363 391 1709 391 
Q 2188 391 2477 730 
Q 2766 1069 2766 1631 
L 2766 1759 
L 2194 1759 
z
M 3341 1997 
L 3341 0 
L 2766 0 
L 2766 531 
Q 2569 213 2275 61 
Q 1981 -91 1556 -91 
Q 1019 -91 701 211 
Q 384 513 384 1019 
Q 384 1609 779 1909 
Q 1175 2209 1959 2209 
L 2766 2209 
L 2766 2266 
Q 2766 2663 2505 2880 
Q 2244 3097 1772 3097 
Q 1472 3097 1187 3025 
Q 903 2953 641 2809 
L 641 3341 
Q 956 3463 1253 3523 
Q 1550 3584 1831 3584 
Q 2591 3584 2966 3190 
Q 3341 2797 3341 1997 
z
" transform="scale(0.015625)"/>
       <path id="DejaVuSans-74" d="M 1172 4494 
L 1172 3500 
L 2356 3500 
L 2356 3053 
L 1172 3053 
L 1172 1153 
Q 1172 725 1289 603 
Q 1406 481 1766 481 
L 2356 481 
L 2356 0 
L 1766 0 
Q 1100 0 847 248 
Q 594 497 594 1153 
L 594 3053 
L 172 3053 
L 172 3500 
L 594 3500 
L 594 4494 
L 1172 4494 
z
" transform="scale(0.015625)"/>
       <path id="DejaVuSans-65" d="M 3597 1894 
L 3597 1613 
L 953 1613 
Q 991 1019 1311 708 
Q 1631 397 2203 397 
Q 2534 397 2845 478 
Q 3156 559 3463 722 
L 3463 178 
Q 3153 47 2828 -22 
Q 2503 -91 2169 -91 
Q 1331 -91 842 396 
Q 353 884 353 1716 
Q 353 2575 817 3079 
Q 1281 3584 2069 3584 
Q 2775 3584 3186 3129 
Q 3597 2675 3597 1894 
z
M 3022 2063 
Q 3016 2534 2758 2815 
Q 2500 3097 2075 3097 
Q 1594 3097 1305 2825 
Q 1016 2553 972 2059 
L 3022 2063 
z
" transform="scale(0.015625)"/>
      </defs>
      <use xlink:href="#DejaVuSans-44"/>
      <use xlink:href="#DejaVuSans-61" x="77.001953"/>
      <use xlink:href="#DejaVuSans-74" x="138.28125"/>
      <use xlink:href="#DejaVuSans-65" x="177.490234"/>
     </g>
    </g>
   </g>
   <g id="matplotlib.axis_2">
    <g id="ytick_1">
     <g id="line2d_75">
      <path d="M 54.691875 567.74175 
L 957.535875 567.74175 
" clip-path="url(#pf83a74000b)" style="fill: none; stroke: #ffffff; stroke-width: 0.8; stroke-linecap: square"/>
     </g>
     <g id="line2d_76">
      <defs>
       <path id="m2916ee5f4c" d="M 0 0 
L -3.5 0 
" style="stroke: #555555; stroke-width: 0.8"/>
      </defs>
      <g>
       <use xlink:href="#m2916ee5f4c" x="54.691875" y="567.74175" style="fill: #555555; stroke: #555555; stroke-width: 0.8"/>
      </g>
     </g>
     <g id="text_39">
      <!-- 0k -->
      <g style="fill: #555555" transform="translate(35.53875 571.540969)scale(0.1 -0.1)">
       <defs>
        <path id="DejaVuSans-6b" d="M 581 4863 
L 1159 4863 
L 1159 1991 
L 2875 3500 
L 3609 3500 
L 1753 1863 
L 3688 0 
L 2938 0 
L 1159 1709 
L 1159 0 
L 581 0 
L 581 4863 
z
" transform="scale(0.015625)"/>
       </defs>
       <use xlink:href="#DejaVuSans-30"/>
       <use xlink:href="#DejaVuSans-6b" x="63.623047"/>
      </g>
     </g>
    </g>
    <g id="ytick_2">
     <g id="line2d_77">
      <path d="M 54.691875 493.757064 
L 957.535875 493.757064 
" clip-path="url(#pf83a74000b)" style="fill: none; stroke: #ffffff; stroke-width: 0.8; stroke-linecap: square"/>
     </g>
     <g id="line2d_78">
      <g>
       <use xlink:href="#m2916ee5f4c" x="54.691875" y="493.757064" style="fill: #555555; stroke: #555555; stroke-width: 0.8"/>
      </g>
     </g>
     <g id="text_40">
      <!-- 100k -->
      <g style="fill: #555555" transform="translate(22.81375 497.556283)scale(0.1 -0.1)">
       <use xlink:href="#DejaVuSans-31"/>
       <use xlink:href="#DejaVuSans-30" x="63.623047"/>
       <use xlink:href="#DejaVuSans-30" x="127.246094"/>
       <use xlink:href="#DejaVuSans-6b" x="190.869141"/>
      </g>
     </g>
    </g>
    <g id="ytick_3">
     <g id="line2d_79">
      <path d="M 54.691875 419.772378 
L 957.535875 419.772378 
" clip-path="url(#pf83a74000b)" style="fill: none; stroke: #ffffff; stroke-width: 0.8; stroke-linecap: square"/>
     </g>
     <g id="line2d_80">
      <g>
       <use xlink:href="#m2916ee5f4c" x="54.691875" y="419.772378" style="fill: #555555; stroke: #555555; stroke-width: 0.8"/>
      </g>
     </g>
     <g id="text_41">
      <!-- 200k -->
      <g style="fill: #555555" transform="translate(22.81375 423.571596)scale(0.1 -0.1)">
       <use xlink:href="#DejaVuSans-32"/>
       <use xlink:href="#DejaVuSans-30" x="63.623047"/>
       <use xlink:href="#DejaVuSans-30" x="127.246094"/>
       <use xlink:href="#DejaVuSans-6b" x="190.869141"/>
      </g>
     </g>
    </g>
    <g id="ytick_4">
     <g id="line2d_81">
      <path d="M 54.691875 345.787692 
L 957.535875 345.787692 
" clip-path="url(#pf83a74000b)" style="fill: none; stroke: #ffffff; stroke-width: 0.8; stroke-linecap: square"/>
     </g>
     <g id="line2d_82">
      <g>
       <use xlink:href="#m2916ee5f4c" x="54.691875" y="345.787692" style="fill: #555555; stroke: #555555; stroke-width: 0.8"/>
      </g>
     </g>
     <g id="text_42">
      <!-- 300k -->
      <g style="fill: #555555" transform="translate(22.81375 349.58691)scale(0.1 -0.1)">
       <use xlink:href="#DejaVuSans-33"/>
       <use xlink:href="#DejaVuSans-30" x="63.623047"/>
       <use xlink:href="#DejaVuSans-30" x="127.246094"/>
       <use xlink:href="#DejaVuSans-6b" x="190.869141"/>
      </g>
     </g>
    </g>
    <g id="ytick_5">
     <g id="line2d_83">
      <path d="M 54.691875 271.803005 
L 957.535875 271.803005 
" clip-path="url(#pf83a74000b)" style="fill: none; stroke: #ffffff; stroke-width: 0.8; stroke-linecap: square"/>
     </g>
     <g id="line2d_84">
      <g>
       <use xlink:href="#m2916ee5f4c" x="54.691875" y="271.803005" style="fill: #555555; stroke: #555555; stroke-width: 0.8"/>
      </g>
     </g>
     <g id="text_43">
      <!-- 400k -->
      <g style="fill: #555555" transform="translate(22.81375 275.602224)scale(0.1 -0.1)">
       <use xlink:href="#DejaVuSans-34"/>
       <use xlink:href="#DejaVuSans-30" x="63.623047"/>
       <use xlink:href="#DejaVuSans-30" x="127.246094"/>
       <use xlink:href="#DejaVuSans-6b" x="190.869141"/>
      </g>
     </g>
    </g>
    <g id="ytick_6">
     <g id="line2d_85">
      <path d="M 54.691875 197.818319 
L 957.535875 197.818319 
" clip-path="url(#pf83a74000b)" style="fill: none; stroke: #ffffff; stroke-width: 0.8; stroke-linecap: square"/>
     </g>
     <g id="line2d_86">
      <g>
       <use xlink:href="#m2916ee5f4c" x="54.691875" y="197.818319" style="fill: #555555; stroke: #555555; stroke-width: 0.8"/>
      </g>
     </g>
     <g id="text_44">
      <!-- 500k -->
      <g style="fill: #555555" transform="translate(22.81375 201.617538)scale(0.1 -0.1)">
       <use xlink:href="#DejaVuSans-35"/>
       <use xlink:href="#DejaVuSans-30" x="63.623047"/>
       <use xlink:href="#DejaVuSans-30" x="127.246094"/>
       <use xlink:href="#DejaVuSans-6b" x="190.869141"/>
      </g>
     </g>
    </g>
    <g id="ytick_7">
     <g id="line2d_87">
      <path d="M 54.691875 123.833633 
L 957.535875 123.833633 
" clip-path="url(#pf83a74000b)" style="fill: none; stroke: #ffffff; stroke-width: 0.8; stroke-linecap: square"/>
     </g>
     <g id="line2d_88">
      <g>
       <use xlink:href="#m2916ee5f4c" x="54.691875" y="123.833633" style="fill: #555555; stroke: #555555; stroke-width: 0.8"/>
      </g>
     </g>
     <g id="text_45">
      <!-- 600k -->
      <g style="fill: #555555" transform="translate(22.81375 127.632852)scale(0.1 -0.1)">
       <use xlink:href="#DejaVuSans-36"/>
       <use xlink:href="#DejaVuSans-30" x="63.623047"/>
       <use xlink:href="#DejaVuSans-30" x="127.246094"/>
       <use xlink:href="#DejaVuSans-6b" x="190.869141"/>
      </g>
     </g>
    </g>
    <g id="ytick_8">
     <g id="line2d_89">
      <path d="M 54.691875 49.848947 
L 957.535875 49.848947 
" clip-path="url(#pf83a74000b)" style="fill: none; stroke: #ffffff; stroke-width: 0.8; stroke-linecap: square"/>
     </g>
     <g id="line2d_90">
      <g>
       <use xlink:href="#m2916ee5f4c" x="54.691875" y="49.848947" style="fill: #555555; stroke: #555555; stroke-width: 0.8"/>
      </g>
     </g>
     <g id="text_46">
      <!-- 700k -->
      <g style="fill: #555555" transform="translate(22.81375 53.648166)scale(0.1 -0.1)">
       <use xlink:href="#DejaVuSans-37"/>
       <use xlink:href="#DejaVuSans-30" x="63.623047"/>
       <use xlink:href="#DejaVuSans-30" x="127.246094"/>
       <use xlink:href="#DejaVuSans-6b" x="190.869141"/>
      </g>
     </g>
    </g>
    <g id="text_47">
     <!-- Instances -->
     <g style="fill: #555555" transform="translate(16.318125 324.588)rotate(-90)scale(0.12 -0.12)">
      <defs>
       <path id="DejaVuSans-49" d="M 628 4666 
L 1259 4666 
L 1259 0 
L 628 0 
L 628 4666 
z
" transform="scale(0.015625)"/>
       <path id="DejaVuSans-6e" d="M 3513 2113 
L 3513 0 
L 2938 0 
L 2938 2094 
Q 2938 2591 2744 2837 
Q 2550 3084 2163 3084 
Q 1697 3084 1428 2787 
Q 1159 2491 1159 1978 
L 1159 0 
L 581 0 
L 581 3500 
L 1159 3500 
L 1159 2956 
Q 1366 3272 1645 3428 
Q 1925 3584 2291 3584 
Q 2894 3584 3203 3211 
Q 3513 2838 3513 2113 
z
" transform="scale(0.015625)"/>
       <path id="DejaVuSans-73" d="M 2834 3397 
L 2834 2853 
Q 2591 2978 2328 3040 
Q 2066 3103 1784 3103 
Q 1356 3103 1142 2972 
Q 928 2841 928 2578 
Q 928 2378 1081 2264 
Q 1234 2150 1697 2047 
L 1894 2003 
Q 2506 1872 2764 1633 
Q 3022 1394 3022 966 
Q 3022 478 2636 193 
Q 2250 -91 1575 -91 
Q 1294 -91 989 -36 
Q 684 19 347 128 
L 347 722 
Q 666 556 975 473 
Q 1284 391 1588 391 
Q 1994 391 2212 530 
Q 2431 669 2431 922 
Q 2431 1156 2273 1281 
Q 2116 1406 1581 1522 
L 1381 1569 
Q 847 1681 609 1914 
Q 372 2147 372 2553 
Q 372 3047 722 3315 
Q 1072 3584 1716 3584 
Q 2034 3584 2315 3537 
Q 2597 3491 2834 3397 
z
" transform="scale(0.015625)"/>
       <path id="DejaVuSans-63" d="M 3122 3366 
L 3122 2828 
Q 2878 2963 2633 3030 
Q 2388 3097 2138 3097 
Q 1578 3097 1268 2742 
Q 959 2388 959 1747 
Q 959 1106 1268 751 
Q 1578 397 2138 397 
Q 2388 397 2633 464 
Q 2878 531 3122 666 
L 3122 134 
Q 2881 22 2623 -34 
Q 2366 -91 2075 -91 
Q 1284 -91 818 406 
Q 353 903 353 1747 
Q 353 2603 823 3093 
Q 1294 3584 2113 3584 
Q 2378 3584 2631 3529 
Q 2884 3475 3122 3366 
z
" transform="scale(0.015625)"/>
      </defs>
      <use xlink:href="#DejaVuSans-49"/>
      <use xlink:href="#DejaVuSans-6e" x="29.492188"/>
      <use xlink:href="#DejaVuSans-73" x="92.871094"/>
      <use xlink:href="#DejaVuSans-74" x="144.970703"/>
      <use xlink:href="#DejaVuSans-61" x="184.179688"/>
      <use xlink:href="#DejaVuSans-6e" x="245.458984"/>
      <use xlink:href="#DejaVuSans-63" x="308.837891"/>
      <use xlink:href="#DejaVuSans-65" x="363.818359"/>
      <use xlink:href="#DejaVuSans-73" x="425.341797"/>
     </g>
    </g>
   </g>
   <g id="line2d_91">
    <path d="M 54.691875 573.939565 
L 63.811511 573.578125 
L 72.931148 573.162247 
L 82.050784 572.691931 
L 91.17042 572.167177 
L 100.290057 571.587985 
L 109.409693 570.954354 
L 118.52933 570.266285 
L 127.648966 569.523778 
L 136.768602 568.726833 
L 145.888239 567.875449 
L 155.007875 566.969627 
L 164.127511 566.009367 
L 173.247148 564.994669 
L 182.366784 563.925532 
L 191.48642 562.801957 
L 200.606057 561.623944 
L 209.725693 560.391493 
L 218.84533 559.104604 
L 227.964966 557.763276 
L 237.084602 556.36751 
L 246.204239 554.917306 
L 255.323875 553.412664 
L 264.443511 551.853583 
L 273.563148 550.240064 
L 282.682784 548.572107 
L 291.80242 546.849712 
L 300.922057 545.072878 
L 310.041693 543.241606 
L 319.16133 541.355896 
L 328.280966 539.415748 
L 337.400602 537.421162 
L 346.520239 535.372137 
L 355.639875 533.268674 
L 364.759511 531.110773 
L 373.879148 528.898433 
L 382.998784 526.631656 
L 392.11842 524.31044 
L 401.238057 521.934786 
L 410.357693 519.504693 
L 419.47733 517.020163 
L 428.596966 514.481194 
L 437.716602 511.887787 
L 446.836239 509.239942 
L 455.955875 506.537658 
L 465.075511 503.780937 
L 474.195148 500.969777 
L 483.314784 498.104178 
L 492.43442 495.184142 
L 501.554057 492.209667 
L 510.673693 489.180754 
L 519.79333 486.097403 
L 528.912966 482.959614 
L 538.032602 479.767386 
L 547.152239 476.520721 
L 556.271875 473.219616 
L 565.391511 469.864074 
L 574.511148 466.454094 
L 583.630784 462.989675 
L 592.75042 459.470818 
L 601.870057 455.897523 
L 610.989693 452.269789 
L 620.10933 448.587618 
L 629.228966 444.851008 
L 638.348602 441.05996 
L 647.468239 437.214473 
L 656.587875 433.314549 
L 665.707511 429.360186 
L 674.827148 425.351385 
L 683.946784 421.288146 
L 693.06642 417.170468 
L 702.186057 412.998352 
L 711.305693 408.771798 
L 720.42533 404.490806 
L 729.544966 400.155376 
L 738.664602 395.765507 
L 747.784239 391.3212 
L 756.903875 386.822455 
L 766.023511 382.269271 
L 775.143148 377.66165 
L 784.262784 372.99959 
L 793.38242 368.283092 
L 802.502057 363.512156 
L 811.621693 358.686781 
L 820.74133 353.806968 
L 829.860966 348.872717 
L 838.980602 343.884028 
L 848.100239 338.840901 
L 857.219875 333.743335 
L 866.339511 328.591331 
L 875.459148 323.384889 
L 884.578784 318.124008 
L 893.69842 312.80869 
L 902.818057 307.438933 
L 911.937693 302.014738 
L 921.05733 296.536105 
L 930.176966 291.003033 
L 939.296602 285.415523 
L 948.416239 279.773575 
L 957.535875 274.077189 
" clip-path="url(#pf83a74000b)" style="fill: none; stroke-dasharray: 1.5,2.475; stroke-dashoffset: 0; stroke: #4ac1fa; stroke-width: 1.5"/>
   </g>
   <g id="line2d_92">
    <path d="M 54.691875 595.369422 
L 63.811511 591.765626 
L 72.931148 588.179352 
L 82.050784 584.610599 
L 91.17042 581.059367 
L 100.290057 577.525657 
L 109.409693 574.009468 
L 118.52933 570.510801 
L 127.648966 567.029655 
L 136.768602 563.566031 
L 145.888239 560.119928 
L 155.007875 556.691346 
L 164.127511 553.280286 
L 173.247148 549.886747 
L 182.366784 546.51073 
L 191.48642 543.152234 
L 200.606057 539.811259 
L 209.725693 536.487806 
L 218.84533 533.181874 
L 227.964966 529.893464 
L 237.084602 526.622575 
L 246.204239 523.369208 
L 255.323875 520.133362 
L 264.443511 516.915037 
L 273.563148 513.714234 
L 282.682784 510.530952 
L 291.80242 507.365192 
L 300.922057 504.216953 
L 310.041693 501.086235 
L 319.16133 497.973039 
L 328.280966 494.877365 
L 337.400602 491.799211 
L 346.520239 488.73858 
L 355.639875 485.695469 
L 364.759511 482.66988 
L 373.879148 479.661812 
L 382.998784 476.671266 
L 392.11842 473.698241 
L 401.238057 470.742738 
L 410.357693 467.804756 
L 419.47733 464.884296 
L 428.596966 461.981357 
L 437.716602 459.095939 
L 446.836239 456.228043 
L 455.955875 453.377668 
L 465.075511 450.544814 
L 474.195148 447.729482 
L 483.314784 444.931672 
L 492.43442 442.151382 
L 501.554057 439.388615 
L 510.673693 436.643368 
L 519.79333 433.915643 
L 528.912966 431.20544 
L 538.032602 428.512758 
L 547.152239 425.837597 
L 556.271875 423.179958 
L 565.391511 420.53984 
L 574.511148 417.917244 
L 583.630784 415.312169 
L 592.75042 412.724615 
L 601.870057 410.154583 
L 610.989693 407.602072 
L 620.10933 405.067083 
L 629.228966 402.549615 
L 638.348602 400.049668 
L 647.468239 397.567243 
L 656.587875 395.102339 
L 665.707511 392.654957 
L 674.827148 390.225096 
L 683.946784 387.812757 
L 693.06642 385.417939 
L 702.186057 383.040642 
L 711.305693 380.680867 
L 720.42533 378.338613 
L 729.544966 376.013881 
L 738.664602 373.70667 
L 747.784239 371.416981 
L 756.903875 369.144813 
L 766.023511 366.890166 
L 775.143148 364.653041 
L 784.262784 362.433437 
L 793.38242 360.231354 
L 802.502057 358.046793 
L 811.621693 355.879754 
L 820.74133 353.730236 
L 829.860966 351.598239 
L 838.980602 349.483764 
L 848.100239 347.38681 
L 857.219875 345.307377 
L 866.339511 343.245466 
L 875.459148 341.201076 
L 884.578784 339.174208 
L 893.69842 337.164861 
L 902.818057 335.173036 
L 911.937693 333.198732 
L 921.05733 331.241949 
L 930.176966 329.302688 
L 939.296602 327.380948 
L 948.416239 325.47673 
L 957.535875 323.590033 
" clip-path="url(#pf83a74000b)" style="fill: none; stroke-dasharray: 1.5,2.475; stroke-dashoffset: 0; stroke: #9a5689; stroke-width: 1.5"/>
   </g>
   <g id="line2d_93">
    <path d="M 54.691875 571.819188 
L 63.811511 570.847848 
L 72.931148 569.883719 
L 82.050784 568.926802 
L 91.17042 567.977097 
L 100.290057 567.034604 
L 109.409693 566.099322 
L 118.52933 565.171252 
L 127.648966 564.250394 
L 136.768602 563.336748 
L 145.888239 562.430313 
L 155.007875 561.53109 
L 164.127511 560.639078 
L 173.247148 559.754279 
L 182.366784 558.876691 
L 191.48642 558.006315 
L 200.606057 557.14315 
L 209.725693 556.287198 
L 218.84533 555.438456 
L 227.964966 554.596927 
L 237.084602 553.76261 
L 246.204239 552.935504 
L 255.323875 552.11561 
L 264.443511 551.302927 
L 273.563148 550.497456 
L 282.682784 549.699197 
L 291.80242 548.90815 
L 300.922057 548.124314 
L 310.041693 547.347691 
L 319.16133 546.578278 
L 328.280966 545.816078 
L 337.400602 545.061089 
L 346.520239 544.313312 
L 355.639875 543.572747 
L 364.759511 542.839393 
L 373.879148 542.113252 
L 382.998784 541.394321 
L 392.11842 540.682603 
L 401.238057 539.978096 
L 410.357693 539.280801 
L 419.47733 538.590718 
L 428.596966 537.907847 
L 437.716602 537.232187 
L 446.836239 536.563739 
L 455.955875 535.902502 
L 465.075511 535.248478 
L 474.195148 534.601665 
L 483.314784 533.962063 
L 492.43442 533.329674 
L 501.554057 532.704496 
L 510.673693 532.08653 
L 519.79333 531.475775 
L 528.912966 530.872233 
L 538.032602 530.275902 
L 547.152239 529.686783 
L 556.271875 529.104875 
L 565.391511 528.530179 
L 574.511148 527.962695 
L 583.630784 527.402423 
L 592.75042 526.849362 
L 601.870057 526.303513 
L 610.989693 525.764876 
L 620.10933 525.233451 
L 629.228966 524.709237 
L 638.348602 524.192235 
L 647.468239 523.682444 
L 656.587875 523.179866 
L 665.707511 522.684499 
L 674.827148 522.196344 
L 683.946784 521.7154 
L 693.06642 521.241669 
L 702.186057 520.775149 
L 711.305693 520.31584 
L 720.42533 519.863744 
L 729.544966 519.418859 
L 738.664602 518.981186 
L 747.784239 518.550724 
L 756.903875 518.127474 
L 766.023511 517.711436 
L 775.143148 517.30261 
L 784.262784 516.900995 
L 793.38242 516.506593 
L 802.502057 516.119401 
L 811.621693 515.739422 
L 820.74133 515.366654 
L 829.860966 515.001098 
L 838.980602 514.642754 
L 848.100239 514.291621 
L 857.219875 513.947701 
L 866.339511 513.610991 
L 875.459148 513.281494 
L 884.578784 512.959208 
L 893.69842 512.644134 
L 902.818057 512.336272 
L 911.937693 512.035621 
L 921.05733 511.742183 
L 930.176966 511.455956 
L 939.296602 511.17694 
L 948.416239 510.905136 
L 957.535875 510.640545 
" clip-path="url(#pf83a74000b)" style="fill: none; stroke-dasharray: 1.5,2.475; stroke-dashoffset: 0; stroke: #be503b; stroke-width: 1.5"/>
   </g>
   <g id="line2d_94">
    <path d="M 54.691875 572.04559 
L 63.811511 568.794563 
L 72.931148 565.541977 
L 82.050784 562.287831 
L 91.17042 559.032126 
L 100.290057 555.774862 
L 109.409693 552.516038 
L 118.52933 549.255655 
L 127.648966 545.993712 
L 136.768602 542.73021 
L 145.888239 539.465149 
L 155.007875 536.198529 
L 164.127511 532.930349 
L 173.247148 529.660609 
L 182.366784 526.389311 
L 191.48642 523.116453 
L 200.606057 519.842035 
L 209.725693 516.566059 
L 218.84533 513.288523 
L 227.964966 510.009427 
L 237.084602 506.728772 
L 246.204239 503.446558 
L 255.323875 500.162785 
L 264.443511 496.877452 
L 273.563148 493.590559 
L 282.682784 490.302108 
L 291.80242 487.012097 
L 300.922057 483.720526 
L 310.041693 480.427397 
L 319.16133 477.132708 
L 328.280966 473.836459 
L 337.400602 470.538651 
L 346.520239 467.239284 
L 355.639875 463.938358 
L 364.759511 460.635872 
L 373.879148 457.331826 
L 382.998784 454.026222 
L 392.11842 450.719058 
L 401.238057 447.410334 
L 410.357693 444.100052 
L 419.47733 440.78821 
L 428.596966 437.474808 
L 437.716602 434.159847 
L 446.836239 430.843327 
L 455.955875 427.525248 
L 465.075511 424.205609 
L 474.195148 420.88441 
L 483.314784 417.561653 
L 492.43442 414.237336 
L 501.554057 410.911459 
L 510.673693 407.584024 
L 519.79333 404.255029 
L 528.912966 400.924474 
L 538.032602 397.59236 
L 547.152239 394.258687 
L 556.271875 390.923455 
L 565.391511 387.586663 
L 574.511148 384.248312 
L 583.630784 380.908401 
L 592.75042 377.566931 
L 601.870057 374.223902 
L 610.989693 370.879313 
L 620.10933 367.533165 
L 629.228966 364.185457 
L 638.348602 360.836191 
L 647.468239 357.485364 
L 656.587875 354.132979 
L 665.707511 350.779034 
L 674.827148 347.42353 
L 683.946784 344.066466 
L 693.06642 340.707843 
L 702.186057 337.347661 
L 711.305693 333.985919 
L 720.42533 330.622618 
L 729.544966 327.257758 
L 738.664602 323.891338 
L 747.784239 320.523359 
L 756.903875 317.15382 
L 766.023511 313.782722 
L 775.143148 310.410065 
L 784.262784 307.035848 
L 793.38242 303.660073 
L 802.502057 300.282737 
L 811.621693 296.903842 
L 820.74133 293.523388 
L 829.860966 290.141375 
L 838.980602 286.757802 
L 848.100239 283.37267 
L 857.219875 279.985979 
L 866.339511 276.597728 
L 875.459148 273.207917 
L 884.578784 269.816548 
L 893.69842 266.423619 
L 902.818057 263.029131 
L 911.937693 259.633083 
L 921.05733 256.235476 
L 930.176966 252.836309 
L 939.296602 249.435584 
L 948.416239 246.033298 
L 957.535875 242.629454 
" clip-path="url(#pf83a74000b)" style="fill: none; stroke-dasharray: 1.5,2.475; stroke-dashoffset: 0; stroke: #e2321d; stroke-width: 1.5"/>
   </g>
   <g id="line2d_95">
    <path d="M 54.691875 576.693943 
L 63.811511 576.642111 
L 72.931148 576.488121 
L 82.050784 576.23197 
L 91.17042 575.873661 
L 100.290057 575.413192 
L 109.409693 574.850563 
L 118.52933 574.185775 
L 127.648966 573.418827 
L 136.768602 572.54972 
L 145.888239 571.578454 
L 155.007875 570.505028 
L 164.127511 569.329443 
L 173.247148 568.051698 
L 182.366784 566.671794 
L 191.48642 565.18973 
L 200.606057 563.605507 
L 209.725693 561.919124 
L 218.84533 560.130582 
L 227.964966 558.239881 
L 237.084602 556.24702 
L 246.204239 554.152 
L 255.323875 551.95482 
L 264.443511 549.65548 
L 273.563148 547.253982 
L 282.682784 544.750323 
L 291.80242 542.144506 
L 300.922057 539.436529 
L 310.041693 536.626392 
L 319.16133 533.714096 
L 328.280966 530.69964 
L 337.400602 527.583025 
L 346.520239 524.364251 
L 355.639875 521.043317 
L 364.759511 517.620224 
L 373.879148 514.094971 
L 382.998784 510.467559 
L 392.11842 506.737987 
L 401.238057 502.906256 
L 410.357693 498.972366 
L 419.47733 494.936316 
L 428.596966 490.798106 
L 437.716602 486.557737 
L 446.836239 482.215209 
L 455.955875 477.770521 
L 465.075511 473.223674 
L 474.195148 468.574667 
L 483.314784 463.823501 
L 492.43442 458.970175 
L 501.554057 454.01469 
L 510.673693 448.957045 
L 519.79333 443.797241 
L 528.912966 438.535278 
L 538.032602 433.171155 
L 547.152239 427.704872 
L 556.271875 422.136431 
L 565.391511 416.465829 
L 574.511148 410.693068 
L 583.630784 404.818148 
L 592.75042 398.841069 
L 601.870057 392.761829 
L 610.989693 386.580431 
L 620.10933 380.296873 
L 629.228966 373.911155 
L 638.348602 367.423278 
L 647.468239 360.833242 
L 656.587875 354.141046 
L 665.707511 347.346691 
L 674.827148 340.450176 
L 683.946784 333.451502 
L 693.06642 326.350668 
L 702.186057 319.147675 
L 711.305693 311.842523 
L 720.42533 304.435211 
L 729.544966 296.925739 
L 738.664602 289.314108 
L 747.784239 281.600318 
L 756.903875 273.784368 
L 766.023511 265.866259 
L 775.143148 257.84599 
L 784.262784 249.723562 
L 793.38242 241.498974 
L 802.502057 233.172227 
L 811.621693 224.743321 
L 820.74133 216.212254 
L 829.860966 207.579029 
L 838.980602 198.843644 
L 848.100239 190.0061 
L 857.219875 181.066396 
L 866.339511 172.024533 
L 875.459148 162.88051 
L 884.578784 153.634328 
L 893.69842 144.285986 
L 902.818057 134.835485 
L 911.937693 125.282824 
L 921.05733 115.628004 
L 930.176966 105.871025 
L 939.296602 96.011886 
L 948.416239 86.050588 
L 957.535875 75.98713 
" clip-path="url(#pf83a74000b)" style="fill: none; stroke-dasharray: 1.5,2.475; stroke-dashoffset: 0; stroke: #48b585; stroke-width: 1.5"/>
   </g>
   <g id="line2d_96">
    <path d="M 54.691875 567.74175 
L 65.838097 567.74175 
L 76.984319 567.74175 
L 88.130542 567.74138 
L 99.276764 567.74064 
L 110.422986 567.688851 
L 121.569208 567.540882 
L 132.715431 567.315598 
L 143.861653 566.759233 
L 155.007875 566.786238 
L 166.154097 565.827026 
L 177.300319 565.074972 
L 188.446542 564.807887 
L 199.592764 562.612022 
L 210.738986 561.033928 
L 221.885208 560.853776 
L 233.031431 559.778038 
L 244.177653 558.784054 
L 255.323875 557.390553 
L 266.470097 554.090096 
L 277.616319 552.730997 
L 288.762542 552.337029 
L 299.908764 551.613088 
L 311.054986 549.732768 
L 322.201208 547.83765 
L 333.347431 547.613476 
L 344.493653 542.894363 
L 355.639875 541.541923 
L 366.786097 538.85258 
L 377.932319 535.379739 
L 389.078542 531.721566 
L 400.224764 526.402807 
L 411.370986 520.029026 
L 422.517208 518.453522 
L 433.663431 515.315092 
L 444.809653 507.772353 
L 455.955875 505.51619 
L 467.102097 504.379045 
L 478.248319 500.256619 
L 489.394542 494.200972 
L 500.540764 494.094804 
L 511.686986 485.601362 
L 522.833208 484.246332 
L 533.979431 480.136853 
L 545.125653 470.022037 
L 556.271875 466.600245 
L 567.418097 465.770137 
L 578.564319 463.371183 
L 589.710542 461.831932 
L 600.856764 453.24268 
L 612.002986 444.633452 
L 623.149208 443.007268 
L 634.295431 435.519648 
L 645.441653 434.170537 
L 656.587875 434.083605 
L 667.734097 430.884138 
L 678.880319 419.613311 
L 690.026542 415.878564 
L 701.172764 413.47961 
L 712.318986 407.15355 
L 723.465208 403.23976 
L 734.611431 398.773674 
L 745.757653 392.17498 
M 768.050097 391.370397 
L 779.196319 379.429268 
L 790.342542 368.172498 
L 801.488764 360.567242 
L 812.634986 356.66566 
L 823.781208 352.360861 
L 834.927431 350.728389 
L 846.073653 349.738104 
L 857.219875 343.62216 
L 868.366097 328.960615 
L 879.512319 325.005763 
L 890.658542 320.552255 
L 901.804764 307.428851 
L 912.950986 298.682382 
L 924.097208 296.286018 
L 935.243431 289.331087 
L 946.389653 286.333968 
L 957.535875 282.31216 
" clip-path="url(#pf83a74000b)" style="fill: none; stroke: #4ac1fa; stroke-width: 1.5; stroke-linecap: square"/>
   </g>
   <g id="line2d_97">
    <path d="M 54.691875 566.466254 
L 65.838097 564.822684 
L 76.984319 562.818439 
L 88.130542 561.770816 
L 99.276764 559.971138 
L 110.422986 558.424119 
L 121.569208 556.615933 
L 132.715431 555.190618 
L 143.861653 554.173328 
L 155.007875 554.096014 
L 166.154097 551.347483 
L 177.300319 549.898863 
L 188.446542 552.313723 
L 199.592764 547.193983 
L 210.738986 545.851901 
L 221.885208 544.065911 
L 233.031431 542.869578 
L 244.177653 540.871622 
L 255.323875 538.597333 
L 266.470097 536.907892 
L 277.616319 535.102296 
L 288.762542 531.375317 
L 299.908764 527.949456 
L 311.054986 526.362855 
L 322.201208 524.173278 
L 333.347431 523.350938 
L 344.493653 519.426791 
L 355.639875 518.390265 
L 366.786097 516.953483 
L 377.932319 513.105539 
L 389.078542 509.387069 
L 400.224764 480.145731 
L 411.370986 469.783436 
L 422.517208 480.518614 
L 433.663431 448.479176 
L 444.809653 446.493427 
L 455.955875 438.343644 
L 467.102097 438.860797 
L 478.248319 430.998444 
L 489.394542 423.065806 
L 500.540764 424.955375 
L 511.686986 424.365347 
L 522.833208 423.186401 
L 533.979431 431.987619 
L 545.125653 425.342315 
L 556.271875 416.564772 
L 567.418097 418.237195 
L 578.564319 414.163969 
L 589.710542 397.743067 
L 600.856764 386.805541 
L 612.002986 367.92095 
L 623.149208 374.862933 
L 634.295431 369.791653 
L 645.441653 374.020988 
L 656.587875 377.235252 
L 667.734097 374.574393 
L 678.880319 360.04639 
L 690.026542 355.093115 
L 701.172764 359.488916 
L 712.318986 370.664672 
L 723.465208 380.122505 
L 734.611431 383.902012 
L 745.757653 382.961667 
M 768.050097 385.448662 
L 779.196319 354.696927 
L 790.342542 374.517055 
L 801.488764 373.263015 
L 812.634986 372.741792 
L 823.781208 373.634788 
L 834.927431 372.830204 
L 846.073653 363.194069 
L 857.219875 350.027754 
L 868.366097 360.998203 
L 879.512319 355.79486 
L 890.658542 352.113382 
L 901.804764 334.508726 
L 912.950986 321.243272 
L 924.097208 331.406918 
L 935.243431 317.551436 
L 946.389653 346.591905 
L 957.535875 326.832815 
" clip-path="url(#pf83a74000b)" style="fill: none; stroke: #9a5689; stroke-width: 1.5; stroke-linecap: square"/>
   </g>
   <g id="line2d_98">
    <path d="M 54.691875 567.130636 
L 65.838097 566.816941 
L 76.984319 566.227653 
L 88.130542 565.651313 
L 99.276764 564.999508 
L 110.422986 564.183087 
L 121.569208 563.575672 
L 132.715431 562.817699 
L 143.861653 562.369722 
L 155.007875 562.128162 
L 166.154097 561.053164 
L 177.300319 560.457958 
L 188.446542 561.244045 
L 199.592764 559.43327 
L 210.738986 558.849531 
L 221.885208 558.297235 
L 233.031431 557.652828 
L 244.177653 556.884127 
L 255.323875 556.29373 
L 266.470097 555.748093 
L 277.616319 555.106275 
L 288.762542 554.195524 
L 299.908764 553.477872 
L 311.054986 552.916329 
L 322.201208 552.305215 
L 333.347431 552.077342 
L 344.493653 550.452269 
L 355.639875 549.647315 
L 366.786097 549.203407 
L 377.932319 548.055165 
L 389.078542 547.053042 
L 400.224764 545.981374 
L 411.370986 544.972593 
L 422.517208 531.997529 
L 433.663431 524.621255 
L 444.809653 529.073654 
L 455.955875 519.91176 
L 467.102097 518.895581 
L 478.248319 519.303606 
L 489.394542 522.102447 
L 500.540764 515.197456 
L 511.686986 516.756313 
L 522.833208 521.205382 
L 533.979431 525.267142 
L 545.125653 518.552292 
L 556.271875 524.26169 
L 567.418097 534.195614 
L 578.564319 533.509776 
L 589.710542 533.10323 
L 600.856764 532.092599 
L 612.002986 531.46077 
L 623.149208 530.640649 
L 634.295431 530.386142 
L 645.441653 529.204237 
L 656.587875 528.681535 
L 667.734097 529.904132 
L 678.880319 526.100209 
L 690.026542 525.149876 
L 701.172764 524.394862 
L 712.318986 522.826387 
L 723.465208 522.588896 
L 734.611431 522.924787 
L 745.757653 521.613778 
M 768.050097 520.44371 
L 779.196319 519.071294 
L 790.342542 518.904459 
L 801.488764 517.354849 
L 812.634986 516.330901 
L 823.781208 516.292429 
L 834.927431 515.114223 
L 846.073653 514.40471 
L 857.219875 512.703432 
L 868.366097 511.341744 
L 879.512319 511.474177 
L 890.658542 511.982451 
L 901.804764 510.891917 
L 912.950986 510.375874 
L 924.097208 510.092883 
L 935.243431 509.338979 
L 946.389653 509.828017 
L 957.535875 508.113792 
" clip-path="url(#pf83a74000b)" style="fill: none; stroke: #be503b; stroke-width: 1.5; stroke-linecap: square"/>
   </g>
   <g id="line2d_99">
    <path d="M 54.691875 561.345774 
L 65.838097 559.085542 
L 76.984319 556.58153 
L 88.130542 554.100823 
L 99.276764 551.690402 
L 110.422986 548.230878 
L 121.569208 543.755915 
L 132.715431 538.904739 
L 143.861653 537.584852 
L 155.007875 534.956176 
L 166.154097 528.866127 
L 177.300319 525.645203 
L 188.446542 529.86344 
L 199.592764 517.991118 
L 210.738986 513.832808 
L 221.885208 512.448925 
L 233.031431 514.054762 
L 244.177653 509.963779 
L 255.323875 504.346492 
L 266.470097 501.785142 
L 277.616319 498.346334 
L 288.762542 494.841309 
L 299.908764 489.278401 
L 311.054986 480.549318 
L 322.201208 477.407928 
L 333.347431 477.933219 
L 344.493653 469.301796 
L 355.639875 469.947682 
L 366.786097 469.006967 
L 377.932319 462.096797 
L 389.078542 462.200006 
L 400.224764 456.744375 
L 411.370986 451.590232 
L 422.517208 454.890319 
L 433.663431 449.346646 
L 444.809653 444.98044 
L 455.955875 439.781536 
L 467.102097 444.246142 
L 478.248319 446.006977 
L 489.394542 436.819929 
L 500.540764 431.488963 
L 511.686986 429.739595 
L 522.833208 427.237433 
L 533.979431 422.932264 
L 545.125653 415.809758 
L 556.271875 387.941946 
L 567.418097 280.310135 
L 578.564319 370.707214 
L 589.710542 377.416885 
L 600.856764 373.861921 
L 612.002986 372.080369 
L 623.149208 362.5578 
L 634.295431 358.917014 
L 645.441653 357.427702 
L 656.587875 368.105912 
L 667.734097 353.408854 
L 678.880319 317.77635 
L 690.026542 312.200494 
L 701.172764 310.253217 
L 712.318986 308.49682 
L 723.465208 312.773875 
L 734.611431 319.977764 
L 745.757653 302.110092 
M 768.050097 302.292834 
L 779.196319 309.950249 
L 790.342542 288.758076 
L 801.488764 314.025696 
L 812.634986 278.348801 
L 823.781208 266.70731 
L 834.927431 285.534563 
L 846.073653 284.800265 
L 857.219875 268.707856 
L 868.366097 284.538359 
L 879.512319 286.270341 
L 890.658542 283.555473 
L 901.804764 276.050466 
L 912.950986 278.031036 
L 924.097208 267.879598 
L 935.243431 268.195142 
L 946.389653 279.920235 
L 957.535875 259.491584 
" clip-path="url(#pf83a74000b)" style="fill: none; stroke: #e2321d; stroke-width: 1.5; stroke-linecap: square"/>
   </g>
   <g id="line2d_100">
    <path d="M 54.691875 567.74175 
L 65.838097 567.74175 
L 76.984319 567.74175 
L 88.130542 567.74175 
L 99.276764 567.74175 
L 110.422986 567.74175 
L 121.569208 567.74175 
L 132.715431 567.74175 
L 143.861653 567.74175 
L 155.007875 567.74175 
L 166.154097 567.74175 
L 177.300319 567.716225 
L 188.446542 567.424726 
L 199.592764 567.250492 
L 210.738986 567.151352 
L 221.885208 566.443319 
L 233.031431 564.364349 
L 244.177653 562.560233 
L 255.323875 560.699888 
L 266.470097 558.662719 
L 277.616319 556.536399 
L 288.762542 554.286895 
L 299.908764 551.579425 
L 311.054986 548.840512 
L 322.201208 546.09568 
L 333.347431 543.475143 
L 344.493653 536.762882 
L 355.639875 534.31029 
L 366.786097 530.503408 
L 377.932319 524.969353 
L 389.078542 520.039384 
L 400.224764 512.974586 
L 411.370986 506.489088 
L 422.517208 501.789211 
L 433.663431 492.6177 
L 444.809653 485.935033 
L 455.955875 476.398037 
L 467.102097 471.090006 
L 478.248319 469.123863 
L 489.394542 463.519523 
L 500.540764 456.441408 
L 511.686986 449.547145 
L 522.833208 428.26471 
L 533.979431 417.742608 
L 545.125653 426.9119 
L 556.271875 417.00979 
L 567.418097 399.412532 
L 578.564319 382.917646 
L 589.710542 379.140728 
L 600.856764 367.259897 
L 612.002986 349.146226 
L 623.149208 357.331152 
L 634.295431 355.867365 
L 645.441653 346.530128 
L 656.587875 344.943156 
L 667.734097 345.344893 
L 678.880319 317.286941 
L 690.026542 324.605506 
L 701.172764 307.109607 
L 712.318986 299.499173 
L 723.465208 306.685305 
L 734.611431 304.895616 
L 745.757653 292.443993 
M 768.050097 283.962759 
L 779.196319 275.977591 
L 790.342542 272.280946 
L 801.488764 252.614707 
L 812.634986 257.402626 
L 823.781208 247.924448 
L 834.927431 238.996716 
L 846.073653 221.92327 
L 857.219875 212.107722 
L 868.366097 195.554758 
L 879.512319 167.166094 
L 890.658542 163.827535 
L 901.804764 140.480188 
L 912.950986 142.573214 
L 924.097208 87.092468 
L 935.243431 51.343068 
L 946.389653 76.553719 
L 957.535875 51.449236 
" clip-path="url(#pf83a74000b)" style="fill: none; stroke: #48b585; stroke-width: 6; stroke-linecap: square"/>
   </g>
   <g id="patch_3">
    <path d="M 54.691875 567.74175 
L 54.691875 24.14175 
" style="fill: none; stroke: #ffffff; stroke-linejoin: miter; stroke-linecap: square"/>
   </g>
   <g id="patch_4">
    <path d="M 957.535875 567.74175 
L 957.535875 24.14175 
" style="fill: none; stroke: #ffffff; stroke-linejoin: miter; stroke-linecap: square"/>
   </g>
   <g id="patch_5">
    <path d="M 54.691875 567.74175 
L 957.535875 567.74175 
" style="fill: none; stroke: #ffffff; stroke-linejoin: miter; stroke-linecap: square"/>
   </g>
   <g id="patch_6">
    <path d="M 54.691875 24.14175 
L 957.535875 24.14175 
" style="fill: none; stroke: #ffffff; stroke-linejoin: miter; stroke-linecap: square"/>
   </g>
   <g id="text_48">
    <!-- Enterprise Linux 8 and 9 Instances by Distribution (System Age &gt; 1 Week, 2 Week Resample) -->
    <g transform="translate(54.691875 18.14175)scale(0.144 -0.144)">
     <defs>
      <path id="DejaVuSans-45" d="M 628 4666 
L 3578 4666 
L 3578 4134 
L 1259 4134 
L 1259 2753 
L 3481 2753 
L 3481 2222 
L 1259 2222 
L 1259 531 
L 3634 531 
L 3634 0 
L 628 0 
L 628 4666 
z
" transform="scale(0.015625)"/>
      <path id="DejaVuSans-72" d="M 2631 2963 
Q 2534 3019 2420 3045 
Q 2306 3072 2169 3072 
Q 1681 3072 1420 2755 
Q 1159 2438 1159 1844 
L 1159 0 
L 581 0 
L 581 3500 
L 1159 3500 
L 1159 2956 
Q 1341 3275 1631 3429 
Q 1922 3584 2338 3584 
Q 2397 3584 2469 3576 
Q 2541 3569 2628 3553 
L 2631 2963 
z
" transform="scale(0.015625)"/>
      <path id="DejaVuSans-70" d="M 1159 525 
L 1159 -1331 
L 581 -1331 
L 581 3500 
L 1159 3500 
L 1159 2969 
Q 1341 3281 1617 3432 
Q 1894 3584 2278 3584 
Q 2916 3584 3314 3078 
Q 3713 2572 3713 1747 
Q 3713 922 3314 415 
Q 2916 -91 2278 -91 
Q 1894 -91 1617 61 
Q 1341 213 1159 525 
z
M 3116 1747 
Q 3116 2381 2855 2742 
Q 2594 3103 2138 3103 
Q 1681 3103 1420 2742 
Q 1159 2381 1159 1747 
Q 1159 1113 1420 752 
Q 1681 391 2138 391 
Q 2594 391 2855 752 
Q 3116 1113 3116 1747 
z
" transform="scale(0.015625)"/>
      <path id="DejaVuSans-69" d="M 603 3500 
L 1178 3500 
L 1178 0 
L 603 0 
L 603 3500 
z
M 603 4863 
L 1178 4863 
L 1178 4134 
L 603 4134 
L 603 4863 
z
" transform="scale(0.015625)"/>
      <path id="DejaVuSans-20" transform="scale(0.015625)"/>
      <path id="DejaVuSans-4c" d="M 628 4666 
L 1259 4666 
L 1259 531 
L 3531 531 
L 3531 0 
L 628 0 
L 628 4666 
z
" transform="scale(0.015625)"/>
      <path id="DejaVuSans-75" d="M 544 1381 
L 544 3500 
L 1119 3500 
L 1119 1403 
Q 1119 906 1312 657 
Q 1506 409 1894 409 
Q 2359 409 2629 706 
Q 2900 1003 2900 1516 
L 2900 3500 
L 3475 3500 
L 3475 0 
L 2900 0 
L 2900 538 
Q 2691 219 2414 64 
Q 2138 -91 1772 -91 
Q 1169 -91 856 284 
Q 544 659 544 1381 
z
M 1991 3584 
L 1991 3584 
z
" transform="scale(0.015625)"/>
      <path id="DejaVuSans-78" d="M 3513 3500 
L 2247 1797 
L 3578 0 
L 2900 0 
L 1881 1375 
L 863 0 
L 184 0 
L 1544 1831 
L 300 3500 
L 978 3500 
L 1906 2253 
L 2834 3500 
L 3513 3500 
z
" transform="scale(0.015625)"/>
      <path id="DejaVuSans-64" d="M 2906 2969 
L 2906 4863 
L 3481 4863 
L 3481 0 
L 2906 0 
L 2906 525 
Q 2725 213 2448 61 
Q 2172 -91 1784 -91 
Q 1150 -91 751 415 
Q 353 922 353 1747 
Q 353 2572 751 3078 
Q 1150 3584 1784 3584 
Q 2172 3584 2448 3432 
Q 2725 3281 2906 2969 
z
M 947 1747 
Q 947 1113 1208 752 
Q 1469 391 1925 391 
Q 2381 391 2643 752 
Q 2906 1113 2906 1747 
Q 2906 2381 2643 2742 
Q 2381 3103 1925 3103 
Q 1469 3103 1208 2742 
Q 947 2381 947 1747 
z
" transform="scale(0.015625)"/>
      <path id="DejaVuSans-62" d="M 3116 1747 
Q 3116 2381 2855 2742 
Q 2594 3103 2138 3103 
Q 1681 3103 1420 2742 
Q 1159 2381 1159 1747 
Q 1159 1113 1420 752 
Q 1681 391 2138 391 
Q 2594 391 2855 752 
Q 3116 1113 3116 1747 
z
M 1159 2969 
Q 1341 3281 1617 3432 
Q 1894 3584 2278 3584 
Q 2916 3584 3314 3078 
Q 3713 2572 3713 1747 
Q 3713 922 3314 415 
Q 2916 -91 2278 -91 
Q 1894 -91 1617 61 
Q 1341 213 1159 525 
L 1159 0 
L 581 0 
L 581 4863 
L 1159 4863 
L 1159 2969 
z
" transform="scale(0.015625)"/>
      <path id="DejaVuSans-79" d="M 2059 -325 
Q 1816 -950 1584 -1140 
Q 1353 -1331 966 -1331 
L 506 -1331 
L 506 -850 
L 844 -850 
Q 1081 -850 1212 -737 
Q 1344 -625 1503 -206 
L 1606 56 
L 191 3500 
L 800 3500 
L 1894 763 
L 2988 3500 
L 3597 3500 
L 2059 -325 
z
" transform="scale(0.015625)"/>
      <path id="DejaVuSans-6f" d="M 1959 3097 
Q 1497 3097 1228 2736 
Q 959 2375 959 1747 
Q 959 1119 1226 758 
Q 1494 397 1959 397 
Q 2419 397 2687 759 
Q 2956 1122 2956 1747 
Q 2956 2369 2687 2733 
Q 2419 3097 1959 3097 
z
M 1959 3584 
Q 2709 3584 3137 3096 
Q 3566 2609 3566 1747 
Q 3566 888 3137 398 
Q 2709 -91 1959 -91 
Q 1206 -91 779 398 
Q 353 888 353 1747 
Q 353 2609 779 3096 
Q 1206 3584 1959 3584 
z
" transform="scale(0.015625)"/>
      <path id="DejaVuSans-28" d="M 1984 4856 
Q 1566 4138 1362 3434 
Q 1159 2731 1159 2009 
Q 1159 1288 1364 580 
Q 1569 -128 1984 -844 
L 1484 -844 
Q 1016 -109 783 600 
Q 550 1309 550 2009 
Q 550 2706 781 3412 
Q 1013 4119 1484 4856 
L 1984 4856 
z
" transform="scale(0.015625)"/>
      <path id="DejaVuSans-53" d="M 3425 4513 
L 3425 3897 
Q 3066 4069 2747 4153 
Q 2428 4238 2131 4238 
Q 1616 4238 1336 4038 
Q 1056 3838 1056 3469 
Q 1056 3159 1242 3001 
Q 1428 2844 1947 2747 
L 2328 2669 
Q 3034 2534 3370 2195 
Q 3706 1856 3706 1288 
Q 3706 609 3251 259 
Q 2797 -91 1919 -91 
Q 1588 -91 1214 -16 
Q 841 59 441 206 
L 441 856 
Q 825 641 1194 531 
Q 1563 422 1919 422 
Q 2459 422 2753 634 
Q 3047 847 3047 1241 
Q 3047 1584 2836 1778 
Q 2625 1972 2144 2069 
L 1759 2144 
Q 1053 2284 737 2584 
Q 422 2884 422 3419 
Q 422 4038 858 4394 
Q 1294 4750 2059 4750 
Q 2388 4750 2728 4690 
Q 3069 4631 3425 4513 
z
" transform="scale(0.015625)"/>
      <path id="DejaVuSans-6d" d="M 3328 2828 
Q 3544 3216 3844 3400 
Q 4144 3584 4550 3584 
Q 5097 3584 5394 3201 
Q 5691 2819 5691 2113 
L 5691 0 
L 5113 0 
L 5113 2094 
Q 5113 2597 4934 2840 
Q 4756 3084 4391 3084 
Q 3944 3084 3684 2787 
Q 3425 2491 3425 1978 
L 3425 0 
L 2847 0 
L 2847 2094 
Q 2847 2600 2669 2842 
Q 2491 3084 2119 3084 
Q 1678 3084 1418 2786 
Q 1159 2488 1159 1978 
L 1159 0 
L 581 0 
L 581 3500 
L 1159 3500 
L 1159 2956 
Q 1356 3278 1631 3431 
Q 1906 3584 2284 3584 
Q 2666 3584 2933 3390 
Q 3200 3197 3328 2828 
z
" transform="scale(0.015625)"/>
      <path id="DejaVuSans-41" d="M 2188 4044 
L 1331 1722 
L 3047 1722 
L 2188 4044 
z
M 1831 4666 
L 2547 4666 
L 4325 0 
L 3669 0 
L 3244 1197 
L 1141 1197 
L 716 0 
L 50 0 
L 1831 4666 
z
" transform="scale(0.015625)"/>
      <path id="DejaVuSans-67" d="M 2906 1791 
Q 2906 2416 2648 2759 
Q 2391 3103 1925 3103 
Q 1463 3103 1205 2759 
Q 947 2416 947 1791 
Q 947 1169 1205 825 
Q 1463 481 1925 481 
Q 2391 481 2648 825 
Q 2906 1169 2906 1791 
z
M 3481 434 
Q 3481 -459 3084 -895 
Q 2688 -1331 1869 -1331 
Q 1566 -1331 1297 -1286 
Q 1028 -1241 775 -1147 
L 775 -588 
Q 1028 -725 1275 -790 
Q 1522 -856 1778 -856 
Q 2344 -856 2625 -561 
Q 2906 -266 2906 331 
L 2906 616 
Q 2728 306 2450 153 
Q 2172 0 1784 0 
Q 1141 0 747 490 
Q 353 981 353 1791 
Q 353 2603 747 3093 
Q 1141 3584 1784 3584 
Q 2172 3584 2450 3431 
Q 2728 3278 2906 2969 
L 2906 3500 
L 3481 3500 
L 3481 434 
z
" transform="scale(0.015625)"/>
      <path id="DejaVuSans-3e" d="M 678 3150 
L 678 3719 
L 4684 2266 
L 4684 1747 
L 678 294 
L 678 863 
L 3897 2003 
L 678 3150 
z
" transform="scale(0.015625)"/>
      <path id="DejaVuSans-57" d="M 213 4666 
L 850 4666 
L 1831 722 
L 2809 4666 
L 3519 4666 
L 4500 722 
L 5478 4666 
L 6119 4666 
L 4947 0 
L 4153 0 
L 3169 4050 
L 2175 0 
L 1381 0 
L 213 4666 
z
" transform="scale(0.015625)"/>
      <path id="DejaVuSans-2c" d="M 750 794 
L 1409 794 
L 1409 256 
L 897 -744 
L 494 -744 
L 750 256 
L 750 794 
z
" transform="scale(0.015625)"/>
      <path id="DejaVuSans-52" d="M 2841 2188 
Q 3044 2119 3236 1894 
Q 3428 1669 3622 1275 
L 4263 0 
L 3584 0 
L 2988 1197 
Q 2756 1666 2539 1819 
Q 2322 1972 1947 1972 
L 1259 1972 
L 1259 0 
L 628 0 
L 628 4666 
L 2053 4666 
Q 2853 4666 3247 4331 
Q 3641 3997 3641 3322 
Q 3641 2881 3436 2590 
Q 3231 2300 2841 2188 
z
M 1259 4147 
L 1259 2491 
L 2053 2491 
Q 2509 2491 2742 2702 
Q 2975 2913 2975 3322 
Q 2975 3731 2742 3939 
Q 2509 4147 2053 4147 
L 1259 4147 
z
" transform="scale(0.015625)"/>
      <path id="DejaVuSans-6c" d="M 603 4863 
L 1178 4863 
L 1178 0 
L 603 0 
L 603 4863 
z
" transform="scale(0.015625)"/>
      <path id="DejaVuSans-29" d="M 513 4856 
L 1013 4856 
Q 1481 4119 1714 3412 
Q 1947 2706 1947 2009 
Q 1947 1309 1714 600 
Q 1481 -109 1013 -844 
L 513 -844 
Q 928 -128 1133 580 
Q 1338 1288 1338 2009 
Q 1338 2731 1133 3434 
Q 928 4138 513 4856 
z
" transform="scale(0.015625)"/>
     </defs>
     <use xlink:href="#DejaVuSans-45"/>
     <use xlink:href="#DejaVuSans-6e" x="63.183594"/>
     <use xlink:href="#DejaVuSans-74" x="126.5625"/>
     <use xlink:href="#DejaVuSans-65" x="165.771484"/>
     <use xlink:href="#DejaVuSans-72" x="227.294922"/>
     <use xlink:href="#DejaVuSans-70" x="268.408203"/>
     <use xlink:href="#DejaVuSans-72" x="331.884766"/>
     <use xlink:href="#DejaVuSans-69" x="372.998047"/>
     <use xlink:href="#DejaVuSans-73" x="400.78125"/>
     <use xlink:href="#DejaVuSans-65" x="452.880859"/>
     <use xlink:href="#DejaVuSans-20" x="514.404297"/>
     <use xlink:href="#DejaVuSans-4c" x="546.191406"/>
     <use xlink:href="#DejaVuSans-69" x="601.904297"/>
     <use xlink:href="#DejaVuSans-6e" x="629.6875"/>
     <use xlink:href="#DejaVuSans-75" x="693.066406"/>
     <use xlink:href="#DejaVuSans-78" x="756.445312"/>
     <use xlink:href="#DejaVuSans-20" x="815.625"/>
     <use xlink:href="#DejaVuSans-38" x="847.412109"/>
     <use xlink:href="#DejaVuSans-20" x="911.035156"/>
     <use xlink:href="#DejaVuSans-61" x="942.822266"/>
     <use xlink:href="#DejaVuSans-6e" x="1004.101562"/>
     <use xlink:href="#DejaVuSans-64" x="1067.480469"/>
     <use xlink:href="#DejaVuSans-20" x="1130.957031"/>
     <use xlink:href="#DejaVuSans-39" x="1162.744141"/>
     <use xlink:href="#DejaVuSans-20" x="1226.367188"/>
     <use xlink:href="#DejaVuSans-49" x="1258.154297"/>
     <use xlink:href="#DejaVuSans-6e" x="1287.646484"/>
     <use xlink:href="#DejaVuSans-73" x="1351.025391"/>
     <use xlink:href="#DejaVuSans-74" x="1403.125"/>
     <use xlink:href="#DejaVuSans-61" x="1442.333984"/>
     <use xlink:href="#DejaVuSans-6e" x="1503.613281"/>
     <use xlink:href="#DejaVuSans-63" x="1566.992188"/>
     <use xlink:href="#DejaVuSans-65" x="1621.972656"/>
     <use xlink:href="#DejaVuSans-73" x="1683.496094"/>
     <use xlink:href="#DejaVuSans-20" x="1735.595703"/>
     <use xlink:href="#DejaVuSans-62" x="1767.382812"/>
     <use xlink:href="#DejaVuSans-79" x="1830.859375"/>
     <use xlink:href="#DejaVuSans-20" x="1890.039062"/>
     <use xlink:href="#DejaVuSans-44" x="1921.826172"/>
     <use xlink:href="#DejaVuSans-69" x="1998.828125"/>
     <use xlink:href="#DejaVuSans-73" x="2026.611328"/>
     <use xlink:href="#DejaVuSans-74" x="2078.710938"/>
     <use xlink:href="#DejaVuSans-72" x="2117.919922"/>
     <use xlink:href="#DejaVuSans-69" x="2159.033203"/>
     <use xlink:href="#DejaVuSans-62" x="2186.816406"/>
     <use xlink:href="#DejaVuSans-75" x="2250.292969"/>
     <use xlink:href="#DejaVuSans-74" x="2313.671875"/>
     <use xlink:href="#DejaVuSans-69" x="2352.880859"/>
     <use xlink:href="#DejaVuSans-6f" x="2380.664062"/>
     <use xlink:href="#DejaVuSans-6e" x="2441.845703"/>
     <use xlink:href="#DejaVuSans-20" x="2505.224609"/>
     <use xlink:href="#DejaVuSans-28" x="2537.011719"/>
     <use xlink:href="#DejaVuSans-53" x="2576.025391"/>
     <use xlink:href="#DejaVuSans-79" x="2639.501953"/>
     <use xlink:href="#DejaVuSans-73" x="2698.681641"/>
     <use xlink:href="#DejaVuSans-74" x="2750.78125"/>
     <use xlink:href="#DejaVuSans-65" x="2789.990234"/>
     <use xlink:href="#DejaVuSans-6d" x="2851.513672"/>
     <use xlink:href="#DejaVuSans-20" x="2948.925781"/>
     <use xlink:href="#DejaVuSans-41" x="2980.712891"/>
     <use xlink:href="#DejaVuSans-67" x="3049.121094"/>
     <use xlink:href="#DejaVuSans-65" x="3112.597656"/>
     <use xlink:href="#DejaVuSans-20" x="3174.121094"/>
     <use xlink:href="#DejaVuSans-3e" x="3205.908203"/>
     <use xlink:href="#DejaVuSans-20" x="3289.697266"/>
     <use xlink:href="#DejaVuSans-31" x="3321.484375"/>
     <use xlink:href="#DejaVuSans-20" x="3385.107422"/>
     <use xlink:href="#DejaVuSans-57" x="3416.894531"/>
     <use xlink:href="#DejaVuSans-65" x="3509.896484"/>
     <use xlink:href="#DejaVuSans-65" x="3571.419922"/>
     <use xlink:href="#DejaVuSans-6b" x="3632.943359"/>
     <use xlink:href="#DejaVuSans-2c" x="3690.853516"/>
     <use xlink:href="#DejaVuSans-20" x="3722.640625"/>
     <use xlink:href="#DejaVuSans-32" x="3754.427734"/>
     <use xlink:href="#DejaVuSans-20" x="3818.050781"/>
     <use xlink:href="#DejaVuSans-57" x="3849.837891"/>
     <use xlink:href="#DejaVuSans-65" x="3942.839844"/>
     <use xlink:href="#DejaVuSans-65" x="4004.363281"/>
     <use xlink:href="#DejaVuSans-6b" x="4065.886719"/>
     <use xlink:href="#DejaVuSans-20" x="4123.796875"/>
     <use xlink:href="#DejaVuSans-52" x="4155.583984"/>
     <use xlink:href="#DejaVuSans-65" x="4220.566406"/>
     <use xlink:href="#DejaVuSans-73" x="4282.089844"/>
     <use xlink:href="#DejaVuSans-61" x="4334.189453"/>
     <use xlink:href="#DejaVuSans-6d" x="4395.46875"/>
     <use xlink:href="#DejaVuSans-70" x="4492.880859"/>
     <use xlink:href="#DejaVuSans-6c" x="4556.357422"/>
     <use xlink:href="#DejaVuSans-65" x="4584.140625"/>
     <use xlink:href="#DejaVuSans-29" x="4645.664062"/>
    </g>
   </g>
   <g id="text_49">
    <!-- 2024-01-25 11:54 UTC -->
    <g transform="translate(794.653875 18.14175)scale(0.144 -0.144)">
     <defs>
      <path id="DejaVuSans-3a" d="M 750 794 
L 1409 794 
L 1409 0 
L 750 0 
L 750 794 
z
M 750 3309 
L 1409 3309 
L 1409 2516 
L 750 2516 
L 750 3309 
z
" transform="scale(0.015625)"/>
      <path id="DejaVuSans-55" d="M 556 4666 
L 1191 4666 
L 1191 1831 
Q 1191 1081 1462 751 
Q 1734 422 2344 422 
Q 2950 422 3222 751 
Q 3494 1081 3494 1831 
L 3494 4666 
L 4128 4666 
L 4128 1753 
Q 4128 841 3676 375 
Q 3225 -91 2344 -91 
Q 1459 -91 1007 375 
Q 556 841 556 1753 
L 556 4666 
z
" transform="scale(0.015625)"/>
      <path id="DejaVuSans-54" d="M -19 4666 
L 3928 4666 
L 3928 4134 
L 2272 4134 
L 2272 0 
L 1638 0 
L 1638 4134 
L -19 4134 
L -19 4666 
z
" transform="scale(0.015625)"/>
      <path id="DejaVuSans-43" d="M 4122 4306 
L 4122 3641 
Q 3803 3938 3442 4084 
Q 3081 4231 2675 4231 
Q 1875 4231 1450 3742 
Q 1025 3253 1025 2328 
Q 1025 1406 1450 917 
Q 1875 428 2675 428 
Q 3081 428 3442 575 
Q 3803 722 4122 1019 
L 4122 359 
Q 3791 134 3420 21 
Q 3050 -91 2638 -91 
Q 1578 -91 968 557 
Q 359 1206 359 2328 
Q 359 3453 968 4101 
Q 1578 4750 2638 4750 
Q 3056 4750 3426 4639 
Q 3797 4528 4122 4306 
z
" transform="scale(0.015625)"/>
     </defs>
     <use xlink:href="#DejaVuSans-32"/>
     <use xlink:href="#DejaVuSans-30" x="63.623047"/>
     <use xlink:href="#DejaVuSans-32" x="127.246094"/>
     <use xlink:href="#DejaVuSans-34" x="190.869141"/>
     <use xlink:href="#DejaVuSans-2d" x="254.492188"/>
     <use xlink:href="#DejaVuSans-30" x="290.576172"/>
     <use xlink:href="#DejaVuSans-31" x="354.199219"/>
     <use xlink:href="#DejaVuSans-2d" x="417.822266"/>
     <use xlink:href="#DejaVuSans-32" x="453.90625"/>
     <use xlink:href="#DejaVuSans-35" x="517.529297"/>
     <use xlink:href="#DejaVuSans-20" x="581.152344"/>
     <use xlink:href="#DejaVuSans-31" x="612.939453"/>
     <use xlink:href="#DejaVuSans-31" x="676.5625"/>
     <use xlink:href="#DejaVuSans-3a" x="740.185547"/>
     <use xlink:href="#DejaVuSans-35" x="773.876953"/>
     <use xlink:href="#DejaVuSans-34" x="837.5"/>
     <use xlink:href="#DejaVuSans-20" x="901.123047"/>
     <use xlink:href="#DejaVuSans-55" x="932.910156"/>
     <use xlink:href="#DejaVuSans-54" x="1006.103516"/>
     <use xlink:href="#DejaVuSans-43" x="1061.3125"/>
    </g>
   </g>
   <g id="legend_1">
    <g id="patch_7">
     <path d="M 61.691875 120.2105 
L 170.660625 120.2105 
Q 172.660625 120.2105 172.660625 118.2105 
L 172.660625 31.14175 
Q 172.660625 29.14175 170.660625 29.14175 
L 61.691875 29.14175 
Q 59.691875 29.14175 59.691875 31.14175 
L 59.691875 118.2105 
Q 59.691875 120.2105 61.691875 120.2105 
z
" style="fill: #e5e5e5; opacity: 0.8; stroke: #cccccc; stroke-width: 0.5; stroke-linejoin: miter"/>
    </g>
    <g id="text_50">
     <!-- Distribution -->
     <g transform="translate(87.0075 40.740187)scale(0.1 -0.1)">
      <use xlink:href="#DejaVuSans-44"/>
      <use xlink:href="#DejaVuSans-69" x="77.001953"/>
      <use xlink:href="#DejaVuSans-73" x="104.785156"/>
      <use xlink:href="#DejaVuSans-74" x="156.884766"/>
      <use xlink:href="#DejaVuSans-72" x="196.09375"/>
      <use xlink:href="#DejaVuSans-69" x="237.207031"/>
      <use xlink:href="#DejaVuSans-62" x="264.990234"/>
      <use xlink:href="#DejaVuSans-75" x="328.466797"/>
      <use xlink:href="#DejaVuSans-74" x="391.845703"/>
      <use xlink:href="#DejaVuSans-69" x="431.054688"/>
      <use xlink:href="#DejaVuSans-6f" x="458.837891"/>
      <use xlink:href="#DejaVuSans-6e" x="520.019531"/>
     </g>
    </g>
    <g id="line2d_101">
     <path d="M 63.691875 51.918312 
L 73.691875 51.918312 
L 83.691875 51.918312 
" style="fill: none; stroke: #4ac1fa; stroke-width: 1.5; stroke-linecap: square"/>
    </g>
    <g id="text_51">
     <!-- AlmaLinux -->
     <g transform="translate(91.691875 55.418312)scale(0.1 -0.1)">
      <use xlink:href="#DejaVuSans-41"/>
      <use xlink:href="#DejaVuSans-6c" x="68.408203"/>
      <use xlink:href="#DejaVuSans-6d" x="96.191406"/>
      <use xlink:href="#DejaVuSans-61" x="193.603516"/>
      <use xlink:href="#DejaVuSans-4c" x="254.882812"/>
      <use xlink:href="#DejaVuSans-69" x="310.595703"/>
      <use xlink:href="#DejaVuSans-6e" x="338.378906"/>
      <use xlink:href="#DejaVuSans-75" x="401.757812"/>
      <use xlink:href="#DejaVuSans-78" x="465.136719"/>
     </g>
    </g>
    <g id="line2d_102">
     <path d="M 63.691875 66.596437 
L 73.691875 66.596437 
L 83.691875 66.596437 
" style="fill: none; stroke: #9a5689; stroke-width: 1.5; stroke-linecap: square"/>
    </g>
    <g id="text_52">
     <!-- CentOS Stream -->
     <g transform="translate(91.691875 70.096437)scale(0.1 -0.1)">
      <defs>
       <path id="DejaVuSans-4f" d="M 2522 4238 
Q 1834 4238 1429 3725 
Q 1025 3213 1025 2328 
Q 1025 1447 1429 934 
Q 1834 422 2522 422 
Q 3209 422 3611 934 
Q 4013 1447 4013 2328 
Q 4013 3213 3611 3725 
Q 3209 4238 2522 4238 
z
M 2522 4750 
Q 3503 4750 4090 4092 
Q 4678 3434 4678 2328 
Q 4678 1225 4090 567 
Q 3503 -91 2522 -91 
Q 1538 -91 948 565 
Q 359 1222 359 2328 
Q 359 3434 948 4092 
Q 1538 4750 2522 4750 
z
" transform="scale(0.015625)"/>
      </defs>
      <use xlink:href="#DejaVuSans-43"/>
      <use xlink:href="#DejaVuSans-65" x="69.824219"/>
      <use xlink:href="#DejaVuSans-6e" x="131.347656"/>
      <use xlink:href="#DejaVuSans-74" x="194.726562"/>
      <use xlink:href="#DejaVuSans-4f" x="233.935547"/>
      <use xlink:href="#DejaVuSans-53" x="312.646484"/>
      <use xlink:href="#DejaVuSans-20" x="376.123047"/>
      <use xlink:href="#DejaVuSans-53" x="407.910156"/>
      <use xlink:href="#DejaVuSans-74" x="471.386719"/>
      <use xlink:href="#DejaVuSans-72" x="510.595703"/>
      <use xlink:href="#DejaVuSans-65" x="549.458984"/>
      <use xlink:href="#DejaVuSans-61" x="610.982422"/>
      <use xlink:href="#DejaVuSans-6d" x="672.261719"/>
     </g>
    </g>
    <g id="line2d_103">
     <path d="M 63.691875 81.274563 
L 73.691875 81.274563 
L 83.691875 81.274563 
" style="fill: none; stroke: #be503b; stroke-width: 1.5; stroke-linecap: square"/>
    </g>
    <g id="text_53">
     <!-- Oracle -->
     <g transform="translate(91.691875 84.774563)scale(0.1 -0.1)">
      <use xlink:href="#DejaVuSans-4f"/>
      <use xlink:href="#DejaVuSans-72" x="78.710938"/>
      <use xlink:href="#DejaVuSans-61" x="119.824219"/>
      <use xlink:href="#DejaVuSans-63" x="181.103516"/>
      <use xlink:href="#DejaVuSans-6c" x="236.083984"/>
      <use xlink:href="#DejaVuSans-65" x="263.867188"/>
     </g>
    </g>
    <g id="line2d_104">
     <path d="M 63.691875 95.952687 
L 73.691875 95.952687 
L 83.691875 95.952687 
" style="fill: none; stroke: #e2321d; stroke-width: 1.5; stroke-linecap: square"/>
    </g>
    <g id="text_54">
     <!-- RHEL -->
     <g transform="translate(91.691875 99.452687)scale(0.1 -0.1)">
      <defs>
       <path id="DejaVuSans-48" d="M 628 4666 
L 1259 4666 
L 1259 2753 
L 3553 2753 
L 3553 4666 
L 4184 4666 
L 4184 0 
L 3553 0 
L 3553 2222 
L 1259 2222 
L 1259 0 
L 628 0 
L 628 4666 
z
" transform="scale(0.015625)"/>
      </defs>
      <use xlink:href="#DejaVuSans-52"/>
      <use xlink:href="#DejaVuSans-48" x="69.482422"/>
      <use xlink:href="#DejaVuSans-45" x="144.677734"/>
      <use xlink:href="#DejaVuSans-4c" x="207.861328"/>
     </g>
    </g>
    <g id="line2d_105">
     <path d="M 63.691875 110.630812 
L 73.691875 110.630812 
L 83.691875 110.630812 
" style="fill: none; stroke: #48b585; stroke-width: 6; stroke-linecap: square"/>
    </g>
    <g id="text_55">
     <!-- Rocky Linux -->
     <g transform="translate(91.691875 114.130812)scale(0.1 -0.1)">
      <use xlink:href="#DejaVuSans-52"/>
      <use xlink:href="#DejaVuSans-6f" x="64.982422"/>
      <use xlink:href="#DejaVuSans-63" x="126.164062"/>
      <use xlink:href="#DejaVuSans-6b" x="181.144531"/>
      <use xlink:href="#DejaVuSans-79" x="235.429688"/>
      <use xlink:href="#DejaVuSans-20" x="294.609375"/>
      <use xlink:href="#DejaVuSans-4c" x="326.396484"/>
      <use xlink:href="#DejaVuSans-69" x="382.109375"/>
      <use xlink:href="#DejaVuSans-6e" x="409.892578"/>
      <use xlink:href="#DejaVuSans-75" x="473.271484"/>
      <use xlink:href="#DejaVuSans-78" x="536.650391"/>
     </g>
    </g>
   </g>
  </g>
 </g>
 <defs>
  <clipPath id="pf83a74000b">
   <rect x="54.691875" y="24.14175" width="902.844" height="543.6"/>
  </clipPath>
 </defs>
</svg>
