<?xml version="1.0" encoding="utf-8" standalone="no"?>
<!DOCTYPE svg PUBLIC "-//W3C//DTD SVG 1.1//EN"
  "http://www.w3.org/Graphics/SVG/1.1/DTD/svg11.dtd">
<svg xmlns:xlink="http://www.w3.org/1999/xlink" width="962.123375pt" height="644.743878pt" viewBox="0 0 962.123375 644.743878" xmlns="http://www.w3.org/2000/svg" version="1.1">
 <metadata>
  <rdf:RDF xmlns:dc="http://purl.org/dc/elements/1.1/" xmlns:cc="http://creativecommons.org/ns#" xmlns:rdf="http://www.w3.org/1999/02/22-rdf-syntax-ns#">
   <cc:Work>
    <dc:type rdf:resource="http://purl.org/dc/dcmitype/StillImage"/>
    <dc:date>2025-09-11T11:56:30.819938</dc:date>
    <dc:format>image/svg+xml</dc:format>
    <dc:creator>
     <cc:Agent>
      <dc:title>Matplotlib v3.6.3, https://matplotlib.org/</dc:title>
     </cc:Agent>
    </dc:creator>
   </cc:Work>
  </rdf:RDF>
 </metadata>
 <defs>
  <style type="text/css">*{stroke-linejoin: round; stroke-linecap: butt}</style>
 </defs>
 <g id="figure_1">
  <g id="patch_1">
   <path d="M 0 644.743878 
L 962.123375 644.743878 
L 962.123375 0 
L 0 0 
z
" style="fill: #ffffff"/>
  </g>
  <g id="axes_1">
   <g id="patch_2">
    <path d="M 52.079375 578.54175 
L 954.923375 578.54175 
L 954.923375 24.14175 
L 52.079375 24.14175 
z
" style="fill: #e5e5e5"/>
   </g>
   <g id="matplotlib.axis_1">
    <g id="xtick_1">
     <g id="line2d_1">
      <path d="M 69.782199 578.54175 
L 69.782199 24.14175 
" clip-path="url(#p29d214ec7c)" style="fill: none; stroke: #ffffff; stroke-width: 0.8; stroke-linecap: square"/>
     </g>
     <g id="line2d_2">
      <defs>
       <path id="m3ada141b42" d="M 0 0 
L 0 3.5 
" style="stroke: #555555; stroke-width: 0.8"/>
      </defs>
      <g>
       <use xlink:href="#m3ada141b42" x="69.782199" y="578.54175" style="fill: #555555; stroke: #555555; stroke-width: 0.8"/>
      </g>
     </g>
     <g id="text_1">
      <!-- 2024-09 -->
      <g style="fill: #555555" transform="translate(56.960916 620.459567) rotate(-45) scale(0.1 -0.1)">
       <defs>
        <path id="DejaVuSans-32" d="M 1228 531 
L 3431 531 
L 3431 0 
L 469 0 
L 469 531 
Q 828 903 1448 1529 
Q 2069 2156 2228 2338 
Q 2531 2678 2651 2914 
Q 2772 3150 2772 3378 
Q 2772 3750 2511 3984 
Q 2250 4219 1831 4219 
Q 1534 4219 1204 4116 
Q 875 4013 500 3803 
L 500 4441 
Q 881 4594 1212 4672 
Q 1544 4750 1819 4750 
Q 2544 4750 2975 4387 
Q 3406 4025 3406 3419 
Q 3406 3131 3298 2873 
Q 3191 2616 2906 2266 
Q 2828 2175 2409 1742 
Q 1991 1309 1228 531 
z
" transform="scale(0.015625)"/>
        <path id="DejaVuSans-30" d="M 2034 4250 
Q 1547 4250 1301 3770 
Q 1056 3291 1056 2328 
Q 1056 1369 1301 889 
Q 1547 409 2034 409 
Q 2525 409 2770 889 
Q 3016 1369 3016 2328 
Q 3016 3291 2770 3770 
Q 2525 4250 2034 4250 
z
M 2034 4750 
Q 2819 4750 3233 4129 
Q 3647 3509 3647 2328 
Q 3647 1150 3233 529 
Q 2819 -91 2034 -91 
Q 1250 -91 836 529 
Q 422 1150 422 2328 
Q 422 3509 836 4129 
Q 1250 4750 2034 4750 
z
" transform="scale(0.015625)"/>
        <path id="DejaVuSans-34" d="M 2419 4116 
L 825 1625 
L 2419 1625 
L 2419 4116 
z
M 2253 4666 
L 3047 4666 
L 3047 1625 
L 3713 1625 
L 3713 1100 
L 3047 1100 
L 3047 0 
L 2419 0 
L 2419 1100 
L 313 1100 
L 313 1709 
L 2253 4666 
z
" transform="scale(0.015625)"/>
        <path id="DejaVuSans-2d" d="M 313 2009 
L 1997 2009 
L 1997 1497 
L 313 1497 
L 313 2009 
z
" transform="scale(0.015625)"/>
        <path id="DejaVuSans-39" d="M 703 97 
L 703 672 
Q 941 559 1184 500 
Q 1428 441 1663 441 
Q 2288 441 2617 861 
Q 2947 1281 2994 2138 
Q 2813 1869 2534 1725 
Q 2256 1581 1919 1581 
Q 1219 1581 811 2004 
Q 403 2428 403 3163 
Q 403 3881 828 4315 
Q 1253 4750 1959 4750 
Q 2769 4750 3195 4129 
Q 3622 3509 3622 2328 
Q 3622 1225 3098 567 
Q 2575 -91 1691 -91 
Q 1453 -91 1209 -44 
Q 966 3 703 97 
z
M 1959 2075 
Q 2384 2075 2632 2365 
Q 2881 2656 2881 3163 
Q 2881 3666 2632 3958 
Q 2384 4250 1959 4250 
Q 1534 4250 1286 3958 
Q 1038 3666 1038 3163 
Q 1038 2656 1286 2365 
Q 1534 2075 1959 2075 
z
" transform="scale(0.015625)"/>
       </defs>
       <use xlink:href="#DejaVuSans-32"/>
       <use xlink:href="#DejaVuSans-30" x="63.623047"/>
       <use xlink:href="#DejaVuSans-32" x="127.246094"/>
       <use xlink:href="#DejaVuSans-34" x="190.869141"/>
       <use xlink:href="#DejaVuSans-2d" x="254.492188"/>
       <use xlink:href="#DejaVuSans-30" x="290.576172"/>
       <use xlink:href="#DejaVuSans-39" x="354.199219"/>
      </g>
     </g>
    </g>
    <g id="xtick_2">
     <g id="line2d_3">
      <path d="M 145.651442 578.54175 
L 145.651442 24.14175 
" clip-path="url(#p29d214ec7c)" style="fill: none; stroke: #ffffff; stroke-width: 0.8; stroke-linecap: square"/>
     </g>
     <g id="line2d_4">
      <g>
       <use xlink:href="#m3ada141b42" x="145.651442" y="578.54175" style="fill: #555555; stroke: #555555; stroke-width: 0.8"/>
      </g>
     </g>
     <g id="text_2">
      <!-- 2024-10 -->
      <g style="fill: #555555" transform="translate(132.83016 620.459567) rotate(-45) scale(0.1 -0.1)">
       <defs>
        <path id="DejaVuSans-31" d="M 794 531 
L 1825 531 
L 1825 4091 
L 703 3866 
L 703 4441 
L 1819 4666 
L 2450 4666 
L 2450 531 
L 3481 531 
L 3481 0 
L 794 0 
L 794 531 
z
" transform="scale(0.015625)"/>
       </defs>
       <use xlink:href="#DejaVuSans-32"/>
       <use xlink:href="#DejaVuSans-30" x="63.623047"/>
       <use xlink:href="#DejaVuSans-32" x="127.246094"/>
       <use xlink:href="#DejaVuSans-34" x="190.869141"/>
       <use xlink:href="#DejaVuSans-2d" x="254.492188"/>
       <use xlink:href="#DejaVuSans-31" x="290.576172"/>
       <use xlink:href="#DejaVuSans-30" x="354.199219"/>
      </g>
     </g>
    </g>
    <g id="xtick_3">
     <g id="line2d_5">
      <path d="M 224.049661 578.54175 
L 224.049661 24.14175 
" clip-path="url(#p29d214ec7c)" style="fill: none; stroke: #ffffff; stroke-width: 0.8; stroke-linecap: square"/>
     </g>
     <g id="line2d_6">
      <g>
       <use xlink:href="#m3ada141b42" x="224.049661" y="578.54175" style="fill: #555555; stroke: #555555; stroke-width: 0.8"/>
      </g>
     </g>
     <g id="text_3">
      <!-- 2024-11 -->
      <g style="fill: #555555" transform="translate(211.228378 620.459567) rotate(-45) scale(0.1 -0.1)">
       <use xlink:href="#DejaVuSans-32"/>
       <use xlink:href="#DejaVuSans-30" x="63.623047"/>
       <use xlink:href="#DejaVuSans-32" x="127.246094"/>
       <use xlink:href="#DejaVuSans-34" x="190.869141"/>
       <use xlink:href="#DejaVuSans-2d" x="254.492188"/>
       <use xlink:href="#DejaVuSans-31" x="290.576172"/>
       <use xlink:href="#DejaVuSans-31" x="354.199219"/>
      </g>
     </g>
    </g>
    <g id="xtick_4">
     <g id="line2d_7">
      <path d="M 299.918904 578.54175 
L 299.918904 24.14175 
" clip-path="url(#p29d214ec7c)" style="fill: none; stroke: #ffffff; stroke-width: 0.8; stroke-linecap: square"/>
     </g>
     <g id="line2d_8">
      <g>
       <use xlink:href="#m3ada141b42" x="299.918904" y="578.54175" style="fill: #555555; stroke: #555555; stroke-width: 0.8"/>
      </g>
     </g>
     <g id="text_4">
      <!-- 2024-12 -->
      <g style="fill: #555555" transform="translate(287.097622 620.459567) rotate(-45) scale(0.1 -0.1)">
       <use xlink:href="#DejaVuSans-32"/>
       <use xlink:href="#DejaVuSans-30" x="63.623047"/>
       <use xlink:href="#DejaVuSans-32" x="127.246094"/>
       <use xlink:href="#DejaVuSans-34" x="190.869141"/>
       <use xlink:href="#DejaVuSans-2d" x="254.492188"/>
       <use xlink:href="#DejaVuSans-31" x="290.576172"/>
       <use xlink:href="#DejaVuSans-32" x="354.199219"/>
      </g>
     </g>
    </g>
    <g id="xtick_5">
     <g id="line2d_9">
      <path d="M 378.317123 578.54175 
L 378.317123 24.14175 
" clip-path="url(#p29d214ec7c)" style="fill: none; stroke: #ffffff; stroke-width: 0.8; stroke-linecap: square"/>
     </g>
     <g id="line2d_10">
      <g>
       <use xlink:href="#m3ada141b42" x="378.317123" y="578.54175" style="fill: #555555; stroke: #555555; stroke-width: 0.8"/>
      </g>
     </g>
     <g id="text_5">
      <!-- 2025-01 -->
      <g style="fill: #555555" transform="translate(365.495841 620.459567) rotate(-45) scale(0.1 -0.1)">
       <defs>
        <path id="DejaVuSans-35" d="M 691 4666 
L 3169 4666 
L 3169 4134 
L 1269 4134 
L 1269 2991 
Q 1406 3038 1543 3061 
Q 1681 3084 1819 3084 
Q 2600 3084 3056 2656 
Q 3513 2228 3513 1497 
Q 3513 744 3044 326 
Q 2575 -91 1722 -91 
Q 1428 -91 1123 -41 
Q 819 9 494 109 
L 494 744 
Q 775 591 1075 516 
Q 1375 441 1709 441 
Q 2250 441 2565 725 
Q 2881 1009 2881 1497 
Q 2881 1984 2565 2268 
Q 2250 2553 1709 2553 
Q 1456 2553 1204 2497 
Q 953 2441 691 2322 
L 691 4666 
z
" transform="scale(0.015625)"/>
       </defs>
       <use xlink:href="#DejaVuSans-32"/>
       <use xlink:href="#DejaVuSans-30" x="63.623047"/>
       <use xlink:href="#DejaVuSans-32" x="127.246094"/>
       <use xlink:href="#DejaVuSans-35" x="190.869141"/>
       <use xlink:href="#DejaVuSans-2d" x="254.492188"/>
       <use xlink:href="#DejaVuSans-30" x="290.576172"/>
       <use xlink:href="#DejaVuSans-31" x="354.199219"/>
      </g>
     </g>
    </g>
    <g id="xtick_6">
     <g id="line2d_11">
      <path d="M 456.715341 578.54175 
L 456.715341 24.14175 
" clip-path="url(#p29d214ec7c)" style="fill: none; stroke: #ffffff; stroke-width: 0.8; stroke-linecap: square"/>
     </g>
     <g id="line2d_12">
      <g>
       <use xlink:href="#m3ada141b42" x="456.715341" y="578.54175" style="fill: #555555; stroke: #555555; stroke-width: 0.8"/>
      </g>
     </g>
     <g id="text_6">
      <!-- 2025-02 -->
      <g style="fill: #555555" transform="translate(443.894059 620.459567) rotate(-45) scale(0.1 -0.1)">
       <use xlink:href="#DejaVuSans-32"/>
       <use xlink:href="#DejaVuSans-30" x="63.623047"/>
       <use xlink:href="#DejaVuSans-32" x="127.246094"/>
       <use xlink:href="#DejaVuSans-35" x="190.869141"/>
       <use xlink:href="#DejaVuSans-2d" x="254.492188"/>
       <use xlink:href="#DejaVuSans-30" x="290.576172"/>
       <use xlink:href="#DejaVuSans-32" x="354.199219"/>
      </g>
     </g>
    </g>
    <g id="xtick_7">
     <g id="line2d_13">
      <path d="M 527.526636 578.54175 
L 527.526636 24.14175 
" clip-path="url(#p29d214ec7c)" style="fill: none; stroke: #ffffff; stroke-width: 0.8; stroke-linecap: square"/>
     </g>
     <g id="line2d_14">
      <g>
       <use xlink:href="#m3ada141b42" x="527.526636" y="578.54175" style="fill: #555555; stroke: #555555; stroke-width: 0.8"/>
      </g>
     </g>
     <g id="text_7">
      <!-- 2025-03 -->
      <g style="fill: #555555" transform="translate(514.705353 620.459567) rotate(-45) scale(0.1 -0.1)">
       <defs>
        <path id="DejaVuSans-33" d="M 2597 2516 
Q 3050 2419 3304 2112 
Q 3559 1806 3559 1356 
Q 3559 666 3084 287 
Q 2609 -91 1734 -91 
Q 1441 -91 1130 -33 
Q 819 25 488 141 
L 488 750 
Q 750 597 1062 519 
Q 1375 441 1716 441 
Q 2309 441 2620 675 
Q 2931 909 2931 1356 
Q 2931 1769 2642 2001 
Q 2353 2234 1838 2234 
L 1294 2234 
L 1294 2753 
L 1863 2753 
Q 2328 2753 2575 2939 
Q 2822 3125 2822 3475 
Q 2822 3834 2567 4026 
Q 2313 4219 1838 4219 
Q 1578 4219 1281 4162 
Q 984 4106 628 3988 
L 628 4550 
Q 988 4650 1302 4700 
Q 1616 4750 1894 4750 
Q 2613 4750 3031 4423 
Q 3450 4097 3450 3541 
Q 3450 3153 3228 2886 
Q 3006 2619 2597 2516 
z
" transform="scale(0.015625)"/>
       </defs>
       <use xlink:href="#DejaVuSans-32"/>
       <use xlink:href="#DejaVuSans-30" x="63.623047"/>
       <use xlink:href="#DejaVuSans-32" x="127.246094"/>
       <use xlink:href="#DejaVuSans-35" x="190.869141"/>
       <use xlink:href="#DejaVuSans-2d" x="254.492188"/>
       <use xlink:href="#DejaVuSans-30" x="290.576172"/>
       <use xlink:href="#DejaVuSans-33" x="354.199219"/>
      </g>
     </g>
    </g>
    <g id="xtick_8">
     <g id="line2d_15">
      <path d="M 605.924854 578.54175 
L 605.924854 24.14175 
" clip-path="url(#p29d214ec7c)" style="fill: none; stroke: #ffffff; stroke-width: 0.8; stroke-linecap: square"/>
     </g>
     <g id="line2d_16">
      <g>
       <use xlink:href="#m3ada141b42" x="605.924854" y="578.54175" style="fill: #555555; stroke: #555555; stroke-width: 0.8"/>
      </g>
     </g>
     <g id="text_8">
      <!-- 2025-04 -->
      <g style="fill: #555555" transform="translate(593.103572 620.459567) rotate(-45) scale(0.1 -0.1)">
       <use xlink:href="#DejaVuSans-32"/>
       <use xlink:href="#DejaVuSans-30" x="63.623047"/>
       <use xlink:href="#DejaVuSans-32" x="127.246094"/>
       <use xlink:href="#DejaVuSans-35" x="190.869141"/>
       <use xlink:href="#DejaVuSans-2d" x="254.492188"/>
       <use xlink:href="#DejaVuSans-30" x="290.576172"/>
       <use xlink:href="#DejaVuSans-34" x="354.199219"/>
      </g>
     </g>
    </g>
    <g id="xtick_9">
     <g id="line2d_17">
      <path d="M 681.794098 578.54175 
L 681.794098 24.14175 
" clip-path="url(#p29d214ec7c)" style="fill: none; stroke: #ffffff; stroke-width: 0.8; stroke-linecap: square"/>
     </g>
     <g id="line2d_18">
      <g>
       <use xlink:href="#m3ada141b42" x="681.794098" y="578.54175" style="fill: #555555; stroke: #555555; stroke-width: 0.8"/>
      </g>
     </g>
     <g id="text_9">
      <!-- 2025-05 -->
      <g style="fill: #555555" transform="translate(668.972815 620.459567) rotate(-45) scale(0.1 -0.1)">
       <use xlink:href="#DejaVuSans-32"/>
       <use xlink:href="#DejaVuSans-30" x="63.623047"/>
       <use xlink:href="#DejaVuSans-32" x="127.246094"/>
       <use xlink:href="#DejaVuSans-35" x="190.869141"/>
       <use xlink:href="#DejaVuSans-2d" x="254.492188"/>
       <use xlink:href="#DejaVuSans-30" x="290.576172"/>
       <use xlink:href="#DejaVuSans-35" x="354.199219"/>
      </g>
     </g>
    </g>
    <g id="xtick_10">
     <g id="line2d_19">
      <path d="M 760.192316 578.54175 
L 760.192316 24.14175 
" clip-path="url(#p29d214ec7c)" style="fill: none; stroke: #ffffff; stroke-width: 0.8; stroke-linecap: square"/>
     </g>
     <g id="line2d_20">
      <g>
       <use xlink:href="#m3ada141b42" x="760.192316" y="578.54175" style="fill: #555555; stroke: #555555; stroke-width: 0.8"/>
      </g>
     </g>
     <g id="text_10">
      <!-- 2025-06 -->
      <g style="fill: #555555" transform="translate(747.371034 620.459567) rotate(-45) scale(0.1 -0.1)">
       <defs>
        <path id="DejaVuSans-36" d="M 2113 2584 
Q 1688 2584 1439 2293 
Q 1191 2003 1191 1497 
Q 1191 994 1439 701 
Q 1688 409 2113 409 
Q 2538 409 2786 701 
Q 3034 994 3034 1497 
Q 3034 2003 2786 2293 
Q 2538 2584 2113 2584 
z
M 3366 4563 
L 3366 3988 
Q 3128 4100 2886 4159 
Q 2644 4219 2406 4219 
Q 1781 4219 1451 3797 
Q 1122 3375 1075 2522 
Q 1259 2794 1537 2939 
Q 1816 3084 2150 3084 
Q 2853 3084 3261 2657 
Q 3669 2231 3669 1497 
Q 3669 778 3244 343 
Q 2819 -91 2113 -91 
Q 1303 -91 875 529 
Q 447 1150 447 2328 
Q 447 3434 972 4092 
Q 1497 4750 2381 4750 
Q 2619 4750 2861 4703 
Q 3103 4656 3366 4563 
z
" transform="scale(0.015625)"/>
       </defs>
       <use xlink:href="#DejaVuSans-32"/>
       <use xlink:href="#DejaVuSans-30" x="63.623047"/>
       <use xlink:href="#DejaVuSans-32" x="127.246094"/>
       <use xlink:href="#DejaVuSans-35" x="190.869141"/>
       <use xlink:href="#DejaVuSans-2d" x="254.492188"/>
       <use xlink:href="#DejaVuSans-30" x="290.576172"/>
       <use xlink:href="#DejaVuSans-36" x="354.199219"/>
      </g>
     </g>
    </g>
    <g id="xtick_11">
     <g id="line2d_21">
      <path d="M 836.06156 578.54175 
L 836.06156 24.14175 
" clip-path="url(#p29d214ec7c)" style="fill: none; stroke: #ffffff; stroke-width: 0.8; stroke-linecap: square"/>
     </g>
     <g id="line2d_22">
      <g>
       <use xlink:href="#m3ada141b42" x="836.06156" y="578.54175" style="fill: #555555; stroke: #555555; stroke-width: 0.8"/>
      </g>
     </g>
     <g id="text_11">
      <!-- 2025-07 -->
      <g style="fill: #555555" transform="translate(823.240278 620.459567) rotate(-45) scale(0.1 -0.1)">
       <defs>
        <path id="DejaVuSans-37" d="M 525 4666 
L 3525 4666 
L 3525 4397 
L 1831 0 
L 1172 0 
L 2766 4134 
L 525 4134 
L 525 4666 
z
" transform="scale(0.015625)"/>
       </defs>
       <use xlink:href="#DejaVuSans-32"/>
       <use xlink:href="#DejaVuSans-30" x="63.623047"/>
       <use xlink:href="#DejaVuSans-32" x="127.246094"/>
       <use xlink:href="#DejaVuSans-35" x="190.869141"/>
       <use xlink:href="#DejaVuSans-2d" x="254.492188"/>
       <use xlink:href="#DejaVuSans-30" x="290.576172"/>
       <use xlink:href="#DejaVuSans-37" x="354.199219"/>
      </g>
     </g>
    </g>
    <g id="xtick_12">
     <g id="line2d_23">
      <path d="M 914.459778 578.54175 
L 914.459778 24.14175 
" clip-path="url(#p29d214ec7c)" style="fill: none; stroke: #ffffff; stroke-width: 0.8; stroke-linecap: square"/>
     </g>
     <g id="line2d_24">
      <g>
       <use xlink:href="#m3ada141b42" x="914.459778" y="578.54175" style="fill: #555555; stroke: #555555; stroke-width: 0.8"/>
      </g>
     </g>
     <g id="text_12">
      <!-- 2025-08 -->
      <g style="fill: #555555" transform="translate(901.638496 620.459567) rotate(-45) scale(0.1 -0.1)">
       <defs>
        <path id="DejaVuSans-38" d="M 2034 2216 
Q 1584 2216 1326 1975 
Q 1069 1734 1069 1313 
Q 1069 891 1326 650 
Q 1584 409 2034 409 
Q 2484 409 2743 651 
Q 3003 894 3003 1313 
Q 3003 1734 2745 1975 
Q 2488 2216 2034 2216 
z
M 1403 2484 
Q 997 2584 770 2862 
Q 544 3141 544 3541 
Q 544 4100 942 4425 
Q 1341 4750 2034 4750 
Q 2731 4750 3128 4425 
Q 3525 4100 3525 3541 
Q 3525 3141 3298 2862 
Q 3072 2584 2669 2484 
Q 3125 2378 3379 2068 
Q 3634 1759 3634 1313 
Q 3634 634 3220 271 
Q 2806 -91 2034 -91 
Q 1263 -91 848 271 
Q 434 634 434 1313 
Q 434 1759 690 2068 
Q 947 2378 1403 2484 
z
M 1172 3481 
Q 1172 3119 1398 2916 
Q 1625 2713 2034 2713 
Q 2441 2713 2670 2916 
Q 2900 3119 2900 3481 
Q 2900 3844 2670 4047 
Q 2441 4250 2034 4250 
Q 1625 4250 1398 4047 
Q 1172 3844 1172 3481 
z
" transform="scale(0.015625)"/>
       </defs>
       <use xlink:href="#DejaVuSans-32"/>
       <use xlink:href="#DejaVuSans-30" x="63.623047"/>
       <use xlink:href="#DejaVuSans-32" x="127.246094"/>
       <use xlink:href="#DejaVuSans-35" x="190.869141"/>
       <use xlink:href="#DejaVuSans-2d" x="254.492188"/>
       <use xlink:href="#DejaVuSans-30" x="290.576172"/>
       <use xlink:href="#DejaVuSans-38" x="354.199219"/>
      </g>
     </g>
    </g>
    <g id="text_13">
     <!-- Date -->
     <g style="fill: #555555" transform="translate(489.160438 635.048253) scale(0.12 -0.12)">
      <defs>
       <path id="DejaVuSans-44" d="M 1259 4147 
L 1259 519 
L 2022 519 
Q 2988 519 3436 956 
Q 3884 1394 3884 2338 
Q 3884 3275 3436 3711 
Q 2988 4147 2022 4147 
L 1259 4147 
z
M 628 4666 
L 1925 4666 
Q 3281 4666 3915 4102 
Q 4550 3538 4550 2338 
Q 4550 1131 3912 565 
Q 3275 0 1925 0 
L 628 0 
L 628 4666 
z
" transform="scale(0.015625)"/>
       <path id="DejaVuSans-61" d="M 2194 1759 
Q 1497 1759 1228 1600 
Q 959 1441 959 1056 
Q 959 750 1161 570 
Q 1363 391 1709 391 
Q 2188 391 2477 730 
Q 2766 1069 2766 1631 
L 2766 1759 
L 2194 1759 
z
M 3341 1997 
L 3341 0 
L 2766 0 
L 2766 531 
Q 2569 213 2275 61 
Q 1981 -91 1556 -91 
Q 1019 -91 701 211 
Q 384 513 384 1019 
Q 384 1609 779 1909 
Q 1175 2209 1959 2209 
L 2766 2209 
L 2766 2266 
Q 2766 2663 2505 2880 
Q 2244 3097 1772 3097 
Q 1472 3097 1187 3025 
Q 903 2953 641 2809 
L 641 3341 
Q 956 3463 1253 3523 
Q 1550 3584 1831 3584 
Q 2591 3584 2966 3190 
Q 3341 2797 3341 1997 
z
" transform="scale(0.015625)"/>
       <path id="DejaVuSans-74" d="M 1172 4494 
L 1172 3500 
L 2356 3500 
L 2356 3053 
L 1172 3053 
L 1172 1153 
Q 1172 725 1289 603 
Q 1406 481 1766 481 
L 2356 481 
L 2356 0 
L 1766 0 
Q 1100 0 847 248 
Q 594 497 594 1153 
L 594 3053 
L 172 3053 
L 172 3500 
L 594 3500 
L 594 4494 
L 1172 4494 
z
" transform="scale(0.015625)"/>
       <path id="DejaVuSans-65" d="M 3597 1894 
L 3597 1613 
L 953 1613 
Q 991 1019 1311 708 
Q 1631 397 2203 397 
Q 2534 397 2845 478 
Q 3156 559 3463 722 
L 3463 178 
Q 3153 47 2828 -22 
Q 2503 -91 2169 -91 
Q 1331 -91 842 396 
Q 353 884 353 1716 
Q 353 2575 817 3079 
Q 1281 3584 2069 3584 
Q 2775 3584 3186 3129 
Q 3597 2675 3597 1894 
z
M 3022 2063 
Q 3016 2534 2758 2815 
Q 2500 3097 2075 3097 
Q 1594 3097 1305 2825 
Q 1016 2553 972 2059 
L 3022 2063 
z
" transform="scale(0.015625)"/>
      </defs>
      <use xlink:href="#DejaVuSans-44"/>
      <use xlink:href="#DejaVuSans-61" x="77.001953"/>
      <use xlink:href="#DejaVuSans-74" x="138.28125"/>
      <use xlink:href="#DejaVuSans-65" x="177.490234"/>
     </g>
    </g>
   </g>
   <g id="matplotlib.axis_2">
    <g id="ytick_1">
     <g id="line2d_25">
      <path d="M 52.079375 578.54175 
L 954.923375 578.54175 
" clip-path="url(#p29d214ec7c)" style="fill: none; stroke: #ffffff; stroke-width: 0.8; stroke-linecap: square"/>
     </g>
     <g id="line2d_26">
      <defs>
       <path id="m5edfa3154d" d="M 0 0 
L -3.5 0 
" style="stroke: #555555; stroke-width: 0.8"/>
      </defs>
      <g>
       <use xlink:href="#m5edfa3154d" x="52.079375" y="578.54175" style="fill: #555555; stroke: #555555; stroke-width: 0.8"/>
      </g>
     </g>
     <g id="text_14">
      <!-- 0.00 -->
      <g style="fill: #555555" transform="translate(22.81375 582.340969) scale(0.1 -0.1)">
       <defs>
        <path id="DejaVuSans-2e" d="M 684 794 
L 1344 794 
L 1344 0 
L 684 0 
L 684 794 
z
" transform="scale(0.015625)"/>
       </defs>
       <use xlink:href="#DejaVuSans-30"/>
       <use xlink:href="#DejaVuSans-2e" x="63.623047"/>
       <use xlink:href="#DejaVuSans-30" x="95.410156"/>
       <use xlink:href="#DejaVuSans-30" x="159.033203"/>
      </g>
     </g>
    </g>
    <g id="ytick_2">
     <g id="line2d_27">
      <path d="M 52.079375 516.104564 
L 954.923375 516.104564 
" clip-path="url(#p29d214ec7c)" style="fill: none; stroke: #ffffff; stroke-width: 0.8; stroke-linecap: square"/>
     </g>
     <g id="line2d_28">
      <g>
       <use xlink:href="#m5edfa3154d" x="52.079375" y="516.104564" style="fill: #555555; stroke: #555555; stroke-width: 0.8"/>
      </g>
     </g>
     <g id="text_15">
      <!-- 0.05 -->
      <g style="fill: #555555" transform="translate(22.81375 519.903783) scale(0.1 -0.1)">
       <use xlink:href="#DejaVuSans-30"/>
       <use xlink:href="#DejaVuSans-2e" x="63.623047"/>
       <use xlink:href="#DejaVuSans-30" x="95.410156"/>
       <use xlink:href="#DejaVuSans-35" x="159.033203"/>
      </g>
     </g>
    </g>
    <g id="ytick_3">
     <g id="line2d_29">
      <path d="M 52.079375 453.667378 
L 954.923375 453.667378 
" clip-path="url(#p29d214ec7c)" style="fill: none; stroke: #ffffff; stroke-width: 0.8; stroke-linecap: square"/>
     </g>
     <g id="line2d_30">
      <g>
       <use xlink:href="#m5edfa3154d" x="52.079375" y="453.667378" style="fill: #555555; stroke: #555555; stroke-width: 0.8"/>
      </g>
     </g>
     <g id="text_16">
      <!-- 0.10 -->
      <g style="fill: #555555" transform="translate(22.81375 457.466596) scale(0.1 -0.1)">
       <use xlink:href="#DejaVuSans-30"/>
       <use xlink:href="#DejaVuSans-2e" x="63.623047"/>
       <use xlink:href="#DejaVuSans-31" x="95.410156"/>
       <use xlink:href="#DejaVuSans-30" x="159.033203"/>
      </g>
     </g>
    </g>
    <g id="ytick_4">
     <g id="line2d_31">
      <path d="M 52.079375 391.230192 
L 954.923375 391.230192 
" clip-path="url(#p29d214ec7c)" style="fill: none; stroke: #ffffff; stroke-width: 0.8; stroke-linecap: square"/>
     </g>
     <g id="line2d_32">
      <g>
       <use xlink:href="#m5edfa3154d" x="52.079375" y="391.230192" style="fill: #555555; stroke: #555555; stroke-width: 0.8"/>
      </g>
     </g>
     <g id="text_17">
      <!-- 0.15 -->
      <g style="fill: #555555" transform="translate(22.81375 395.02941) scale(0.1 -0.1)">
       <use xlink:href="#DejaVuSans-30"/>
       <use xlink:href="#DejaVuSans-2e" x="63.623047"/>
       <use xlink:href="#DejaVuSans-31" x="95.410156"/>
       <use xlink:href="#DejaVuSans-35" x="159.033203"/>
      </g>
     </g>
    </g>
    <g id="ytick_5">
     <g id="line2d_33">
      <path d="M 52.079375 328.793005 
L 954.923375 328.793005 
" clip-path="url(#p29d214ec7c)" style="fill: none; stroke: #ffffff; stroke-width: 0.8; stroke-linecap: square"/>
     </g>
     <g id="line2d_34">
      <g>
       <use xlink:href="#m5edfa3154d" x="52.079375" y="328.793005" style="fill: #555555; stroke: #555555; stroke-width: 0.8"/>
      </g>
     </g>
     <g id="text_18">
      <!-- 0.20 -->
      <g style="fill: #555555" transform="translate(22.81375 332.592224) scale(0.1 -0.1)">
       <use xlink:href="#DejaVuSans-30"/>
       <use xlink:href="#DejaVuSans-2e" x="63.623047"/>
       <use xlink:href="#DejaVuSans-32" x="95.410156"/>
       <use xlink:href="#DejaVuSans-30" x="159.033203"/>
      </g>
     </g>
    </g>
    <g id="ytick_6">
     <g id="line2d_35">
      <path d="M 52.079375 266.355819 
L 954.923375 266.355819 
" clip-path="url(#p29d214ec7c)" style="fill: none; stroke: #ffffff; stroke-width: 0.8; stroke-linecap: square"/>
     </g>
     <g id="line2d_36">
      <g>
       <use xlink:href="#m5edfa3154d" x="52.079375" y="266.355819" style="fill: #555555; stroke: #555555; stroke-width: 0.8"/>
      </g>
     </g>
     <g id="text_19">
      <!-- 0.25 -->
      <g style="fill: #555555" transform="translate(22.81375 270.155038) scale(0.1 -0.1)">
       <use xlink:href="#DejaVuSans-30"/>
       <use xlink:href="#DejaVuSans-2e" x="63.623047"/>
       <use xlink:href="#DejaVuSans-32" x="95.410156"/>
       <use xlink:href="#DejaVuSans-35" x="159.033203"/>
      </g>
     </g>
    </g>
    <g id="ytick_7">
     <g id="line2d_37">
      <path d="M 52.079375 203.918633 
L 954.923375 203.918633 
" clip-path="url(#p29d214ec7c)" style="fill: none; stroke: #ffffff; stroke-width: 0.8; stroke-linecap: square"/>
     </g>
     <g id="line2d_38">
      <g>
       <use xlink:href="#m5edfa3154d" x="52.079375" y="203.918633" style="fill: #555555; stroke: #555555; stroke-width: 0.8"/>
      </g>
     </g>
     <g id="text_20">
      <!-- 0.30 -->
      <g style="fill: #555555" transform="translate(22.81375 207.717852) scale(0.1 -0.1)">
       <use xlink:href="#DejaVuSans-30"/>
       <use xlink:href="#DejaVuSans-2e" x="63.623047"/>
       <use xlink:href="#DejaVuSans-33" x="95.410156"/>
       <use xlink:href="#DejaVuSans-30" x="159.033203"/>
      </g>
     </g>
    </g>
    <g id="ytick_8">
     <g id="line2d_39">
      <path d="M 52.079375 141.481447 
L 954.923375 141.481447 
" clip-path="url(#p29d214ec7c)" style="fill: none; stroke: #ffffff; stroke-width: 0.8; stroke-linecap: square"/>
     </g>
     <g id="line2d_40">
      <g>
       <use xlink:href="#m5edfa3154d" x="52.079375" y="141.481447" style="fill: #555555; stroke: #555555; stroke-width: 0.8"/>
      </g>
     </g>
     <g id="text_21">
      <!-- 0.35 -->
      <g style="fill: #555555" transform="translate(22.81375 145.280666) scale(0.1 -0.1)">
       <use xlink:href="#DejaVuSans-30"/>
       <use xlink:href="#DejaVuSans-2e" x="63.623047"/>
       <use xlink:href="#DejaVuSans-33" x="95.410156"/>
       <use xlink:href="#DejaVuSans-35" x="159.033203"/>
      </g>
     </g>
    </g>
    <g id="ytick_9">
     <g id="line2d_41">
      <path d="M 52.079375 79.044261 
L 954.923375 79.044261 
" clip-path="url(#p29d214ec7c)" style="fill: none; stroke: #ffffff; stroke-width: 0.8; stroke-linecap: square"/>
     </g>
     <g id="line2d_42">
      <g>
       <use xlink:href="#m5edfa3154d" x="52.079375" y="79.044261" style="fill: #555555; stroke: #555555; stroke-width: 0.8"/>
      </g>
     </g>
     <g id="text_22">
      <!-- 0.40 -->
      <g style="fill: #555555" transform="translate(22.81375 82.84348) scale(0.1 -0.1)">
       <use xlink:href="#DejaVuSans-30"/>
       <use xlink:href="#DejaVuSans-2e" x="63.623047"/>
       <use xlink:href="#DejaVuSans-34" x="95.410156"/>
       <use xlink:href="#DejaVuSans-30" x="159.033203"/>
      </g>
     </g>
    </g>
    <g id="text_23">
     <!-- Share -->
     <g style="fill: #555555" transform="translate(16.318125 318.653625) rotate(-90) scale(0.12 -0.12)">
      <defs>
       <path id="DejaVuSans-53" d="M 3425 4513 
L 3425 3897 
Q 3066 4069 2747 4153 
Q 2428 4238 2131 4238 
Q 1616 4238 1336 4038 
Q 1056 3838 1056 3469 
Q 1056 3159 1242 3001 
Q 1428 2844 1947 2747 
L 2328 2669 
Q 3034 2534 3370 2195 
Q 3706 1856 3706 1288 
Q 3706 609 3251 259 
Q 2797 -91 1919 -91 
Q 1588 -91 1214 -16 
Q 841 59 441 206 
L 441 856 
Q 825 641 1194 531 
Q 1563 422 1919 422 
Q 2459 422 2753 634 
Q 3047 847 3047 1241 
Q 3047 1584 2836 1778 
Q 2625 1972 2144 2069 
L 1759 2144 
Q 1053 2284 737 2584 
Q 422 2884 422 3419 
Q 422 4038 858 4394 
Q 1294 4750 2059 4750 
Q 2388 4750 2728 4690 
Q 3069 4631 3425 4513 
z
" transform="scale(0.015625)"/>
       <path id="DejaVuSans-68" d="M 3513 2113 
L 3513 0 
L 2938 0 
L 2938 2094 
Q 2938 2591 2744 2837 
Q 2550 3084 2163 3084 
Q 1697 3084 1428 2787 
Q 1159 2491 1159 1978 
L 1159 0 
L 581 0 
L 581 4863 
L 1159 4863 
L 1159 2956 
Q 1366 3272 1645 3428 
Q 1925 3584 2291 3584 
Q 2894 3584 3203 3211 
Q 3513 2838 3513 2113 
z
" transform="scale(0.015625)"/>
       <path id="DejaVuSans-72" d="M 2631 2963 
Q 2534 3019 2420 3045 
Q 2306 3072 2169 3072 
Q 1681 3072 1420 2755 
Q 1159 2438 1159 1844 
L 1159 0 
L 581 0 
L 581 3500 
L 1159 3500 
L 1159 2956 
Q 1341 3275 1631 3429 
Q 1922 3584 2338 3584 
Q 2397 3584 2469 3576 
Q 2541 3569 2628 3553 
L 2631 2963 
z
" transform="scale(0.015625)"/>
      </defs>
      <use xlink:href="#DejaVuSans-53"/>
      <use xlink:href="#DejaVuSans-68" x="63.476562"/>
      <use xlink:href="#DejaVuSans-61" x="126.855469"/>
      <use xlink:href="#DejaVuSans-72" x="188.134766"/>
      <use xlink:href="#DejaVuSans-65" x="226.998047"/>
     </g>
    </g>
   </g>
   <g id="line2d_43">
    <path d="M 52.079375 334.071504 
L 61.199011 333.623129 
L 70.318648 333.174754 
L 79.438284 332.726379 
L 88.55792 332.278004 
L 97.677557 331.829629 
L 106.797193 331.381254 
L 115.91683 330.932879 
L 125.036466 330.484504 
L 134.156102 330.036128 
L 143.275739 329.587753 
L 152.395375 329.139378 
L 161.515011 328.691003 
L 170.634648 328.242628 
L 179.754284 327.794253 
L 188.87392 327.345878 
L 197.993557 326.897503 
L 207.113193 326.449128 
L 216.23283 326.000753 
L 225.352466 325.552378 
L 234.472102 325.104003 
L 243.591739 324.655628 
L 252.711375 324.207252 
L 261.831011 323.758877 
L 270.950648 323.310502 
L 280.070284 322.862127 
L 289.18992 322.413752 
L 298.309557 321.965377 
L 307.429193 321.517002 
L 316.54883 321.068627 
L 325.668466 320.620252 
L 334.788102 320.171877 
L 343.907739 319.723502 
L 353.027375 319.275127 
L 362.147011 318.826751 
L 371.266648 318.378376 
L 380.386284 317.930001 
L 389.50592 317.481626 
L 398.625557 317.033251 
L 407.745193 316.584876 
L 416.86483 316.136501 
L 425.984466 315.688126 
L 435.104102 315.239751 
L 444.223739 314.791376 
L 453.343375 314.343001 
L 462.463011 313.894626 
L 471.582648 313.446251 
L 480.702284 312.997875 
L 489.82192 312.5495 
L 498.941557 312.101125 
L 508.061193 311.65275 
L 517.18083 311.204375 
L 526.300466 310.756 
L 535.420102 310.307625 
L 544.539739 309.85925 
L 553.659375 309.410875 
L 562.779011 308.9625 
L 571.898648 308.514125 
L 581.018284 308.06575 
L 590.13792 307.617374 
L 599.257557 307.168999 
L 608.377193 306.720624 
L 617.49683 306.272249 
L 626.616466 305.823874 
L 635.736102 305.375499 
L 644.855739 304.927124 
L 653.975375 304.478749 
L 663.095011 304.030374 
L 672.214648 303.581999 
L 681.334284 303.133624 
L 690.45392 302.685249 
L 699.573557 302.236874 
L 708.693193 301.788498 
L 717.81283 301.340123 
L 726.932466 300.891748 
L 736.052102 300.443373 
L 745.171739 299.994998 
L 754.291375 299.546623 
L 763.411011 299.098248 
L 772.530648 298.649873 
L 781.650284 298.201498 
L 790.76992 297.753123 
L 799.889557 297.304748 
L 809.009193 296.856373 
L 818.12883 296.407997 
L 827.248466 295.959622 
L 836.368102 295.511247 
L 845.487739 295.062872 
L 854.607375 294.614497 
L 863.727011 294.166122 
L 872.846648 293.717747 
L 881.966284 293.269372 
L 891.08592 292.820997 
L 900.205557 292.372622 
L 909.325193 291.924247 
L 918.44483 291.475872 
L 927.564466 291.027497 
L 936.684102 290.579121 
L 945.803739 290.130746 
L 954.923375 289.682371 
" clip-path="url(#p29d214ec7c)" style="fill: none; stroke-dasharray: 1.5,2.475; stroke-dashoffset: 0; stroke: #4ac1fa; stroke-width: 1.5"/>
   </g>
   <g id="line2d_44">
    <path d="M 52.079375 464.807193 
L 61.199011 465.667583 
L 70.318648 466.527972 
L 79.438284 467.388362 
L 88.55792 468.248752 
L 97.677557 469.109142 
L 106.797193 469.969532 
L 115.91683 470.829922 
L 125.036466 471.690311 
L 134.156102 472.550701 
L 143.275739 473.411091 
L 152.395375 474.271481 
L 161.515011 475.131871 
L 170.634648 475.992261 
L 179.754284 476.852651 
L 188.87392 477.71304 
L 197.993557 478.57343 
L 207.113193 479.43382 
L 216.23283 480.29421 
L 225.352466 481.1546 
L 234.472102 482.01499 
L 243.591739 482.875379 
L 252.711375 483.735769 
L 261.831011 484.596159 
L 270.950648 485.456549 
L 280.070284 486.316939 
L 289.18992 487.177329 
L 298.309557 488.037719 
L 307.429193 488.898108 
L 316.54883 489.758498 
L 325.668466 490.618888 
L 334.788102 491.479278 
L 343.907739 492.339668 
L 353.027375 493.200058 
L 362.147011 494.060447 
L 371.266648 494.920837 
L 380.386284 495.781227 
L 389.50592 496.641617 
L 398.625557 497.502007 
L 407.745193 498.362397 
L 416.86483 499.222786 
L 425.984466 500.083176 
L 435.104102 500.943566 
L 444.223739 501.803956 
L 453.343375 502.664346 
L 462.463011 503.524736 
L 471.582648 504.385126 
L 480.702284 505.245515 
L 489.82192 506.105905 
L 498.941557 506.966295 
L 508.061193 507.826685 
L 517.18083 508.687075 
L 526.300466 509.547465 
L 535.420102 510.407854 
L 544.539739 511.268244 
L 553.659375 512.128634 
L 562.779011 512.989024 
L 571.898648 513.849414 
L 581.018284 514.709804 
L 590.13792 515.570194 
L 599.257557 516.430583 
L 608.377193 517.290973 
L 617.49683 518.151363 
L 626.616466 519.011753 
L 635.736102 519.872143 
L 644.855739 520.732533 
L 653.975375 521.592922 
L 663.095011 522.453312 
L 672.214648 523.313702 
L 681.334284 524.174092 
L 690.45392 525.034482 
L 699.573557 525.894872 
L 708.693193 526.755261 
L 717.81283 527.615651 
L 726.932466 528.476041 
L 736.052102 529.336431 
L 745.171739 530.196821 
L 754.291375 531.057211 
L 763.411011 531.917601 
L 772.530648 532.77799 
L 781.650284 533.63838 
L 790.76992 534.49877 
L 799.889557 535.35916 
L 809.009193 536.21955 
L 818.12883 537.07994 
L 827.248466 537.940329 
L 836.368102 538.800719 
L 845.487739 539.661109 
L 854.607375 540.521499 
L 863.727011 541.381889 
L 872.846648 542.242279 
L 881.966284 543.102669 
L 891.08592 543.963058 
L 900.205557 544.823448 
L 909.325193 545.683838 
L 918.44483 546.544228 
L 927.564466 547.404618 
L 936.684102 548.265008 
L 945.803739 549.125397 
L 954.923375 549.985787 
" clip-path="url(#p29d214ec7c)" style="fill: none; stroke-dasharray: 1.5,2.475; stroke-dashoffset: 0; stroke: #e9a942; stroke-width: 1.5"/>
   </g>
   <g id="line2d_45">
    <path d="M 52.079375 487.135402 
L 61.199011 487.030409 
L 70.318648 486.925415 
L 79.438284 486.820422 
L 88.55792 486.715428 
L 97.677557 486.610435 
L 106.797193 486.505441 
L 115.91683 486.400448 
L 125.036466 486.295454 
L 134.156102 486.190461 
L 143.275739 486.085468 
L 152.395375 485.980474 
L 161.515011 485.875481 
L 170.634648 485.770487 
L 179.754284 485.665494 
L 188.87392 485.5605 
L 197.993557 485.455507 
L 207.113193 485.350513 
L 216.23283 485.24552 
L 225.352466 485.140526 
L 234.472102 485.035533 
L 243.591739 484.930539 
L 252.711375 484.825546 
L 261.831011 484.720553 
L 270.950648 484.615559 
L 280.070284 484.510566 
L 289.18992 484.405572 
L 298.309557 484.300579 
L 307.429193 484.195585 
L 316.54883 484.090592 
L 325.668466 483.985598 
L 334.788102 483.880605 
L 343.907739 483.775611 
L 353.027375 483.670618 
L 362.147011 483.565624 
L 371.266648 483.460631 
L 380.386284 483.355637 
L 389.50592 483.250644 
L 398.625557 483.145651 
L 407.745193 483.040657 
L 416.86483 482.935664 
L 425.984466 482.83067 
L 435.104102 482.725677 
L 444.223739 482.620683 
L 453.343375 482.51569 
L 462.463011 482.410696 
L 471.582648 482.305703 
L 480.702284 482.200709 
L 489.82192 482.095716 
L 498.941557 481.990722 
L 508.061193 481.885729 
L 517.18083 481.780736 
L 526.300466 481.675742 
L 535.420102 481.570749 
L 544.539739 481.465755 
L 553.659375 481.360762 
L 562.779011 481.255768 
L 571.898648 481.150775 
L 581.018284 481.045781 
L 590.13792 480.940788 
L 599.257557 480.835794 
L 608.377193 480.730801 
L 617.49683 480.625807 
L 626.616466 480.520814 
L 635.736102 480.41582 
L 644.855739 480.310827 
L 653.975375 480.205834 
L 663.095011 480.10084 
L 672.214648 479.995847 
L 681.334284 479.890853 
L 690.45392 479.78586 
L 699.573557 479.680866 
L 708.693193 479.575873 
L 717.81283 479.470879 
L 726.932466 479.365886 
L 736.052102 479.260892 
L 745.171739 479.155899 
L 754.291375 479.050905 
L 763.411011 478.945912 
L 772.530648 478.840919 
L 781.650284 478.735925 
L 790.76992 478.630932 
L 799.889557 478.525938 
L 809.009193 478.420945 
L 818.12883 478.315951 
L 827.248466 478.210958 
L 836.368102 478.105964 
L 845.487739 478.000971 
L 854.607375 477.895977 
L 863.727011 477.790984 
L 872.846648 477.68599 
L 881.966284 477.580997 
L 891.08592 477.476003 
L 900.205557 477.37101 
L 909.325193 477.266017 
L 918.44483 477.161023 
L 927.564466 477.05603 
L 936.684102 476.951036 
L 945.803739 476.846043 
L 954.923375 476.741049 
" clip-path="url(#p29d214ec7c)" style="fill: none; stroke-dasharray: 1.5,2.475; stroke-dashoffset: 0; stroke: #9a5689; stroke-width: 1.5"/>
   </g>
   <g id="line2d_46">
    <path d="M 52.079375 538.483916 
L 61.199011 538.461102 
L 70.318648 538.438287 
L 79.438284 538.415473 
L 88.55792 538.392658 
L 97.677557 538.369844 
L 106.797193 538.347029 
L 115.91683 538.324214 
L 125.036466 538.3014 
L 134.156102 538.278585 
L 143.275739 538.255771 
L 152.395375 538.232956 
L 161.515011 538.210142 
L 170.634648 538.187327 
L 179.754284 538.164513 
L 188.87392 538.141698 
L 197.993557 538.118884 
L 207.113193 538.096069 
L 216.23283 538.073255 
L 225.352466 538.05044 
L 234.472102 538.027626 
L 243.591739 538.004811 
L 252.711375 537.981997 
L 261.831011 537.959182 
L 270.950648 537.936368 
L 280.070284 537.913553 
L 289.18992 537.890739 
L 298.309557 537.867924 
L 307.429193 537.84511 
L 316.54883 537.822295 
L 325.668466 537.799481 
L 334.788102 537.776666 
L 343.907739 537.753852 
L 353.027375 537.731037 
L 362.147011 537.708223 
L 371.266648 537.685408 
L 380.386284 537.662594 
L 389.50592 537.639779 
L 398.625557 537.616965 
L 407.745193 537.59415 
L 416.86483 537.571336 
L 425.984466 537.548521 
L 435.104102 537.525707 
L 444.223739 537.502892 
L 453.343375 537.480078 
L 462.463011 537.457263 
L 471.582648 537.434449 
L 480.702284 537.411634 
L 489.82192 537.38882 
L 498.941557 537.366005 
L 508.061193 537.34319 
L 517.18083 537.320376 
L 526.300466 537.297561 
L 535.420102 537.274747 
L 544.539739 537.251932 
L 553.659375 537.229118 
L 562.779011 537.206303 
L 571.898648 537.183489 
L 581.018284 537.160674 
L 590.13792 537.13786 
L 599.257557 537.115045 
L 608.377193 537.092231 
L 617.49683 537.069416 
L 626.616466 537.046602 
L 635.736102 537.023787 
L 644.855739 537.000973 
L 653.975375 536.978158 
L 663.095011 536.955344 
L 672.214648 536.932529 
L 681.334284 536.909715 
L 690.45392 536.8869 
L 699.573557 536.864086 
L 708.693193 536.841271 
L 717.81283 536.818457 
L 726.932466 536.795642 
L 736.052102 536.772828 
L 745.171739 536.750013 
L 754.291375 536.727199 
L 763.411011 536.704384 
L 772.530648 536.68157 
L 781.650284 536.658755 
L 790.76992 536.635941 
L 799.889557 536.613126 
L 809.009193 536.590312 
L 818.12883 536.567497 
L 827.248466 536.544683 
L 836.368102 536.521868 
L 845.487739 536.499054 
L 854.607375 536.476239 
L 863.727011 536.453425 
L 872.846648 536.43061 
L 881.966284 536.407796 
L 891.08592 536.384981 
L 900.205557 536.362166 
L 909.325193 536.339352 
L 918.44483 536.316537 
L 927.564466 536.293723 
L 936.684102 536.270908 
L 945.803739 536.248094 
L 954.923375 536.225279 
" clip-path="url(#p29d214ec7c)" style="fill: none; stroke-dasharray: 1.5,2.475; stroke-dashoffset: 0; stroke: #be503b; stroke-width: 1.5"/>
   </g>
   <g id="line2d_47">
    <path d="M 52.079375 319.915102 
L 61.199011 320.098644 
L 70.318648 320.282186 
L 79.438284 320.465728 
L 88.55792 320.64927 
L 97.677557 320.832812 
L 106.797193 321.016354 
L 115.91683 321.199896 
L 125.036466 321.383438 
L 134.156102 321.566981 
L 143.275739 321.750523 
L 152.395375 321.934065 
L 161.515011 322.117607 
L 170.634648 322.301149 
L 179.754284 322.484691 
L 188.87392 322.668233 
L 197.993557 322.851775 
L 207.113193 323.035317 
L 216.23283 323.218859 
L 225.352466 323.402402 
L 234.472102 323.585944 
L 243.591739 323.769486 
L 252.711375 323.953028 
L 261.831011 324.13657 
L 270.950648 324.320112 
L 280.070284 324.503654 
L 289.18992 324.687196 
L 298.309557 324.870738 
L 307.429193 325.05428 
L 316.54883 325.237822 
L 325.668466 325.421365 
L 334.788102 325.604907 
L 343.907739 325.788449 
L 353.027375 325.971991 
L 362.147011 326.155533 
L 371.266648 326.339075 
L 380.386284 326.522617 
L 389.50592 326.706159 
L 398.625557 326.889701 
L 407.745193 327.073243 
L 416.86483 327.256786 
L 425.984466 327.440328 
L 435.104102 327.62387 
L 444.223739 327.807412 
L 453.343375 327.990954 
L 462.463011 328.174496 
L 471.582648 328.358038 
L 480.702284 328.54158 
L 489.82192 328.725122 
L 498.941557 328.908664 
L 508.061193 329.092207 
L 517.18083 329.275749 
L 526.300466 329.459291 
L 535.420102 329.642833 
L 544.539739 329.826375 
L 553.659375 330.009917 
L 562.779011 330.193459 
L 571.898648 330.377001 
L 581.018284 330.560543 
L 590.13792 330.744085 
L 599.257557 330.927627 
L 608.377193 331.11117 
L 617.49683 331.294712 
L 626.616466 331.478254 
L 635.736102 331.661796 
L 644.855739 331.845338 
L 653.975375 332.02888 
L 663.095011 332.212422 
L 672.214648 332.395964 
L 681.334284 332.579506 
L 690.45392 332.763048 
L 699.573557 332.946591 
L 708.693193 333.130133 
L 717.81283 333.313675 
L 726.932466 333.497217 
L 736.052102 333.680759 
L 745.171739 333.864301 
L 754.291375 334.047843 
L 763.411011 334.231385 
L 772.530648 334.414927 
L 781.650284 334.598469 
L 790.76992 334.782012 
L 799.889557 334.965554 
L 809.009193 335.149096 
L 818.12883 335.332638 
L 827.248466 335.51618 
L 836.368102 335.699722 
L 845.487739 335.883264 
L 854.607375 336.066806 
L 863.727011 336.250348 
L 872.846648 336.43389 
L 881.966284 336.617433 
L 891.08592 336.800975 
L 900.205557 336.984517 
L 909.325193 337.168059 
L 918.44483 337.351601 
L 927.564466 337.535143 
L 936.684102 337.718685 
L 945.803739 337.902227 
L 954.923375 338.085769 
" clip-path="url(#p29d214ec7c)" style="fill: none; stroke-dasharray: 1.5,2.475; stroke-dashoffset: 0; stroke: #e2321d; stroke-width: 1.5"/>
   </g>
   <g id="line2d_48">
    <path d="M 52.079375 106.208717 
L 61.199011 105.749946 
L 70.318648 105.291176 
L 79.438284 104.832405 
L 88.55792 104.373634 
L 97.677557 103.914863 
L 106.797193 103.456093 
L 115.91683 102.997322 
L 125.036466 102.538551 
L 134.156102 102.079781 
L 143.275739 101.62101 
L 152.395375 101.162239 
L 161.515011 100.703468 
L 170.634648 100.244698 
L 179.754284 99.785927 
L 188.87392 99.327156 
L 197.993557 98.868386 
L 207.113193 98.409615 
L 216.23283 97.950844 
L 225.352466 97.492073 
L 234.472102 97.033303 
L 243.591739 96.574532 
L 252.711375 96.115761 
L 261.831011 95.656991 
L 270.950648 95.19822 
L 280.070284 94.739449 
L 289.18992 94.280679 
L 298.309557 93.821908 
L 307.429193 93.363137 
L 316.54883 92.904366 
L 325.668466 92.445596 
L 334.788102 91.986825 
L 343.907739 91.528054 
L 353.027375 91.069284 
L 362.147011 90.610513 
L 371.266648 90.151742 
L 380.386284 89.692971 
L 389.50592 89.234201 
L 398.625557 88.77543 
L 407.745193 88.316659 
L 416.86483 87.857889 
L 425.984466 87.399118 
L 435.104102 86.940347 
L 444.223739 86.481576 
L 453.343375 86.022806 
L 462.463011 85.564035 
L 471.582648 85.105264 
L 480.702284 84.646494 
L 489.82192 84.187723 
L 498.941557 83.728952 
L 508.061193 83.270182 
L 517.18083 82.811411 
L 526.300466 82.35264 
L 535.420102 81.893869 
L 544.539739 81.435099 
L 553.659375 80.976328 
L 562.779011 80.517557 
L 571.898648 80.058787 
L 581.018284 79.600016 
L 590.13792 79.141245 
L 599.257557 78.682474 
L 608.377193 78.223704 
L 617.49683 77.764933 
L 626.616466 77.306162 
L 635.736102 76.847392 
L 644.855739 76.388621 
L 653.975375 75.92985 
L 663.095011 75.471079 
L 672.214648 75.012309 
L 681.334284 74.553538 
L 690.45392 74.094767 
L 699.573557 73.635997 
L 708.693193 73.177226 
L 717.81283 72.718455 
L 726.932466 72.259685 
L 736.052102 71.800914 
L 745.171739 71.342143 
L 754.291375 70.883372 
L 763.411011 70.424602 
L 772.530648 69.965831 
L 781.650284 69.50706 
L 790.76992 69.04829 
L 799.889557 68.589519 
L 809.009193 68.130748 
L 818.12883 67.671977 
L 827.248466 67.213207 
L 836.368102 66.754436 
L 845.487739 66.295665 
L 854.607375 65.836895 
L 863.727011 65.378124 
L 872.846648 64.919353 
L 881.966284 64.460582 
L 891.08592 64.001812 
L 900.205557 63.543041 
L 909.325193 63.08427 
L 918.44483 62.6255 
L 927.564466 62.166729 
L 936.684102 61.707958 
L 945.803739 61.249188 
L 954.923375 60.790417 
" clip-path="url(#p29d214ec7c)" style="fill: none; stroke-dasharray: 1.5,2.475; stroke-dashoffset: 0; stroke: #48b585; stroke-width: 1.5"/>
   </g>
   <g id="line2d_49">
    <path d="M 52.079375 325.730757 
L 69.782199 324.75679 
L 87.485022 325.019855 
L 105.187846 325.621824 
L 122.890669 334.553388 
L 140.593493 330.329307 
L 158.296316 328.587744 
L 175.99914 328.201 
L 193.701963 331.866961 
L 211.404787 325.535209 
L 229.10761 336.686882 
L 246.810434 320.320897 
L 264.513257 331.492352 
L 282.216081 328.521039 
L 299.918904 329.868815 
L 317.621728 316.250163 
L 335.324551 320.472498 
L 353.027375 325.761879 
L 370.730199 319.539477 
L 388.433022 321.234433 
L 406.135846 315.820308 
L 423.838669 313.836337 
L 441.541493 316.191306 
L 459.244316 316.120091 
L 476.94714 315.401118 
L 494.649963 316.090632 
L 512.352787 312.440676 
L 530.05561 306.021181 
L 547.758434 302.924256 
L 565.461257 303.912679 
L 583.164081 313.147356 
L 600.866904 305.743987 
L 618.569728 298.852607 
L 636.272551 309.918321 
L 653.975375 304.430659 
L 671.678199 302.480062 
L 689.381022 300.467687 
L 707.083846 302.936118 
L 724.786669 298.446656 
L 742.489493 310.69417 
L 760.192316 304.233884 
L 777.89514 294.039639 
L 795.597963 285.227289 
L 813.300787 293.910448 
L 831.00361 294.27339 
L 848.706434 291.662369 
L 866.409257 289.222606 
L 884.112081 293.61424 
L 901.814904 296.073986 
L 919.517728 304.220438 
L 937.220551 291.628831 
L 954.923375 283.266165 
" clip-path="url(#p29d214ec7c)" style="fill: none; stroke: #4ac1fa; stroke-width: 1.5; stroke-linecap: square"/>
   </g>
   <g id="line2d_50">
    <path d="M 52.079375 467.188833 
L 69.782199 461.148854 
L 87.485022 468.596332 
L 105.187846 485.897816 
L 122.890669 470.621081 
L 140.593493 475.958021 
L 158.296316 476.379223 
L 175.99914 482.513988 
L 193.701963 481.098789 
L 211.404787 487.811556 
L 229.10761 483.161778 
L 246.810434 498.199264 
L 264.513257 485.065066 
L 282.216081 482.511655 
L 299.918904 478.118768 
L 317.621728 490.936909 
L 335.324551 491.040257 
L 353.027375 490.316857 
L 370.730199 493.088976 
L 388.433022 486.480949 
L 406.135846 497.699458 
L 423.838669 496.007047 
L 441.541493 493.021074 
L 459.244316 497.006522 
L 476.94714 496.107131 
L 494.649963 497.744964 
L 512.352787 497.395173 
L 530.05561 498.01723 
L 547.758434 499.299258 
L 565.461257 495.668598 
L 583.164081 496.979191 
L 600.866904 514.00967 
L 618.569728 518.844853 
L 636.272551 527.771733 
L 653.975375 536.376523 
L 671.678199 534.239683 
L 689.381022 536.608724 
L 707.083846 536.912061 
L 724.786669 537.604411 
L 742.489493 540.3893 
L 760.192316 539.85651 
L 777.89514 540.64225 
L 795.597963 543.439082 
L 813.300787 544.431204 
L 831.00361 540.79636 
L 848.706434 540.927451 
L 866.409257 541.204371 
L 884.112081 543.654485 
L 901.814904 541.704158 
L 919.517728 542.224925 
L 937.220551 541.397827 
L 954.923375 540.50128 
" clip-path="url(#p29d214ec7c)" style="fill: none; stroke: #e9a942; stroke-width: 1.5; stroke-linecap: square"/>
   </g>
   <g id="line2d_51">
    <path d="M 52.079375 489.790504 
L 69.782199 491.432347 
L 87.485022 490.453562 
L 105.187846 486.508392 
L 122.890669 490.201155 
L 140.593493 490.956648 
L 158.296316 491.162338 
L 175.99914 485.496747 
L 193.701963 486.140438 
L 211.404787 485.100358 
L 229.10761 475.205609 
L 246.810434 476.978146 
L 264.513257 485.892917 
L 282.216081 486.859552 
L 299.918904 486.638366 
L 317.621728 481.363535 
L 335.324551 479.964205 
L 353.027375 479.192108 
L 370.730199 482.298721 
L 388.433022 483.434606 
L 406.135846 482.25127 
L 423.838669 481.501536 
L 441.541493 481.555577 
L 459.244316 484.446028 
L 476.94714 480.822518 
L 494.649963 475.937168 
L 512.352787 478.615944 
L 530.05561 479.663434 
L 547.758434 480.060952 
L 565.461257 481.318531 
L 583.164081 483.72126 
L 600.866904 479.677598 
L 618.569728 479.563081 
L 636.272551 482.407843 
L 653.975375 477.177357 
L 671.678199 475.910473 
L 689.381022 481.57186 
L 707.083846 474.255045 
L 724.786669 480.888326 
L 742.489493 482.556995 
L 760.192316 479.45866 
L 777.89514 481.610809 
L 795.597963 482.223417 
L 813.300787 483.54735 
L 831.00361 483.038502 
L 848.706434 482.864774 
L 866.409257 480.714221 
L 884.112081 477.276524 
L 901.814904 477.01445 
L 919.517728 474.377422 
L 937.220551 474.175008 
L 954.923375 475.51355 
" clip-path="url(#p29d214ec7c)" style="fill: none; stroke: #9a5689; stroke-width: 1.5; stroke-linecap: square"/>
   </g>
   <g id="line2d_52">
    <path d="M 52.079375 536.077158 
L 69.782199 536.895865 
L 87.485022 537.379132 
L 105.187846 536.271666 
L 122.890669 537.202684 
L 140.593493 537.994429 
L 158.296316 538.364934 
L 175.99914 537.912427 
L 193.701963 538.328338 
L 211.404787 537.860429 
L 229.10761 538.152097 
L 246.810434 536.609818 
L 264.513257 538.784017 
L 282.216081 539.434896 
L 299.918904 539.620972 
L 317.621728 536.223844 
L 335.324551 536.45928 
L 353.027375 537.545721 
L 370.730199 537.309066 
L 388.433022 538.661952 
L 406.135846 537.739989 
L 423.838669 538.354877 
L 441.541493 538.746186 
L 459.244316 538.475119 
L 476.94714 538.370452 
L 494.649963 538.723068 
L 512.352787 538.072275 
L 530.05561 539.246386 
L 547.758434 538.997595 
L 565.461257 539.363685 
L 583.164081 539.579171 
L 600.866904 538.290879 
L 618.569728 537.566087 
L 636.272551 537.815984 
L 653.975375 538.219353 
L 671.678199 537.942719 
L 689.381022 535.826254 
L 707.083846 536.264075 
L 724.786669 538.074817 
L 742.489493 537.368701 
L 760.192316 535.083775 
L 777.89514 533.90472 
L 795.597963 536.047559 
L 813.300787 537.016165 
L 831.00361 537.263574 
L 848.706434 538.229493 
L 866.409257 537.940599 
L 884.112081 534.866653 
L 901.814904 534.789691 
L 919.517728 536.362041 
L 937.220551 533.981041 
L 954.923375 530.827373 
" clip-path="url(#p29d214ec7c)" style="fill: none; stroke: #be503b; stroke-width: 1.5; stroke-linecap: square"/>
   </g>
   <g id="line2d_53">
    <path d="M 52.079375 326.859289 
L 69.782199 329.418806 
L 87.485022 329.473943 
L 105.187846 299.676733 
L 122.890669 311.342889 
L 140.593493 312.682781 
L 158.296316 315.28085 
L 175.99914 311.080889 
L 193.701963 319.178009 
L 211.404787 322.080472 
L 229.10761 328.77757 
L 246.810434 323.62707 
L 264.513257 324.285062 
L 282.216081 323.391819 
L 299.918904 330.227485 
L 317.621728 327.881269 
L 335.324551 329.140291 
L 353.027375 328.02775 
L 370.730199 326.662849 
L 388.433022 334.924281 
L 406.135846 328.81486 
L 423.838669 331.709505 
L 441.541493 333.289023 
L 459.244316 322.508978 
L 476.94714 326.954487 
L 494.649963 328.36181 
L 512.352787 331.947578 
L 530.05561 340.112223 
L 547.758434 338.661738 
L 565.461257 338.858809 
L 583.164081 342.431922 
L 600.866904 335.763804 
L 618.569728 334.738813 
L 636.272551 329.570956 
L 653.975375 325.746239 
L 671.678199 327.25156 
L 689.381022 326.889271 
L 707.083846 328.884903 
L 724.786669 330.450795 
L 742.489493 330.37096 
L 760.192316 326.929169 
L 777.89514 330.985095 
L 795.597963 339.889625 
L 813.300787 340.626956 
L 831.00361 332.159105 
L 848.706434 333.824856 
L 866.409257 328.168916 
L 884.112081 340.823407 
L 901.814904 341.855659 
L 919.517728 339.474059 
L 937.220551 336.662454 
L 954.923375 329.285003 
" clip-path="url(#p29d214ec7c)" style="fill: none; stroke: #e2321d; stroke-width: 1.5; stroke-linecap: square"/>
   </g>
   <g id="line2d_54">
    <path d="M 52.079375 105.299998 
L 69.782199 107.251984 
L 87.485022 100.092719 
L 105.187846 118.324621 
L 122.890669 106.693215 
L 140.593493 102.117682 
L 158.296316 100.068885 
L 175.99914 105.225365 
L 193.701963 93.179846 
L 211.404787 91.431466 
L 229.10761 87.374052 
L 246.810434 95.696188 
L 264.513257 84.185767 
L 282.216081 89.049704 
L 299.918904 86.096137 
L 317.621728 99.314626 
L 335.324551 95.26984 
L 353.027375 90.149531 
L 370.730199 91.743876 
L 388.433022 86.080206 
L 406.135846 88.999388 
L 423.838669 89.835237 
L 441.541493 88.743271 
L 459.244316 93.281197 
L 476.94714 93.849812 
L 494.649963 94.169329 
L 512.352787 93.079558 
L 530.05561 88.062977 
L 547.758434 91.285446 
L 565.461257 91.942066 
L 583.164081 74.823364 
L 600.866904 77.74265 
L 618.569728 81.555953 
L 636.272551 63.415478 
L 653.975375 69.986107 
L 671.678199 75.263036 
L 689.381022 70.53209 
L 707.083846 72.257543 
L 724.786669 66.330551 
L 742.489493 49.181942 
L 760.192316 65.687875 
L 777.89514 70.05716 
L 795.597963 64.062201 
L 813.300787 50.151723 
L 831.00361 63.496478 
L 848.706434 64.053356 
L 866.409257 74.4502 
L 884.112081 60.535907 
L 901.814904 59.590538 
L 919.517728 54.287735 
L 937.220551 73.482725 
L 954.923375 93.138878 
" clip-path="url(#p29d214ec7c)" style="fill: none; stroke: #48b585; stroke-width: 6; stroke-linecap: square"/>
   </g>
   <g id="patch_3">
    <path d="M 52.079375 578.54175 
L 52.079375 24.14175 
" style="fill: none; stroke: #ffffff; stroke-linejoin: miter; stroke-linecap: square"/>
   </g>
   <g id="patch_4">
    <path d="M 954.923375 578.54175 
L 954.923375 24.14175 
" style="fill: none; stroke: #ffffff; stroke-linejoin: miter; stroke-linecap: square"/>
   </g>
   <g id="patch_5">
    <path d="M 52.079375 578.54175 
L 954.923375 578.54175 
" style="fill: none; stroke: #ffffff; stroke-linejoin: miter; stroke-linecap: square"/>
   </g>
   <g id="patch_6">
    <path d="M 52.079375 24.14175 
L 954.923375 24.14175 
" style="fill: none; stroke: #ffffff; stroke-linejoin: miter; stroke-linecap: square"/>
   </g>
   <g id="text_24">
    <!-- Enterprise Linux Instances by Distribution Share (System Age &gt; 1 Week) -->
    <g transform="translate(52.079375 18.14175) scale(0.144 -0.144)">
     <defs>
      <path id="DejaVuSans-45" d="M 628 4666 
L 3578 4666 
L 3578 4134 
L 1259 4134 
L 1259 2753 
L 3481 2753 
L 3481 2222 
L 1259 2222 
L 1259 531 
L 3634 531 
L 3634 0 
L 628 0 
L 628 4666 
z
" transform="scale(0.015625)"/>
      <path id="DejaVuSans-6e" d="M 3513 2113 
L 3513 0 
L 2938 0 
L 2938 2094 
Q 2938 2591 2744 2837 
Q 2550 3084 2163 3084 
Q 1697 3084 1428 2787 
Q 1159 2491 1159 1978 
L 1159 0 
L 581 0 
L 581 3500 
L 1159 3500 
L 1159 2956 
Q 1366 3272 1645 3428 
Q 1925 3584 2291 3584 
Q 2894 3584 3203 3211 
Q 3513 2838 3513 2113 
z
" transform="scale(0.015625)"/>
      <path id="DejaVuSans-70" d="M 1159 525 
L 1159 -1331 
L 581 -1331 
L 581 3500 
L 1159 3500 
L 1159 2969 
Q 1341 3281 1617 3432 
Q 1894 3584 2278 3584 
Q 2916 3584 3314 3078 
Q 3713 2572 3713 1747 
Q 3713 922 3314 415 
Q 2916 -91 2278 -91 
Q 1894 -91 1617 61 
Q 1341 213 1159 525 
z
M 3116 1747 
Q 3116 2381 2855 2742 
Q 2594 3103 2138 3103 
Q 1681 3103 1420 2742 
Q 1159 2381 1159 1747 
Q 1159 1113 1420 752 
Q 1681 391 2138 391 
Q 2594 391 2855 752 
Q 3116 1113 3116 1747 
z
" transform="scale(0.015625)"/>
      <path id="DejaVuSans-69" d="M 603 3500 
L 1178 3500 
L 1178 0 
L 603 0 
L 603 3500 
z
M 603 4863 
L 1178 4863 
L 1178 4134 
L 603 4134 
L 603 4863 
z
" transform="scale(0.015625)"/>
      <path id="DejaVuSans-73" d="M 2834 3397 
L 2834 2853 
Q 2591 2978 2328 3040 
Q 2066 3103 1784 3103 
Q 1356 3103 1142 2972 
Q 928 2841 928 2578 
Q 928 2378 1081 2264 
Q 1234 2150 1697 2047 
L 1894 2003 
Q 2506 1872 2764 1633 
Q 3022 1394 3022 966 
Q 3022 478 2636 193 
Q 2250 -91 1575 -91 
Q 1294 -91 989 -36 
Q 684 19 347 128 
L 347 722 
Q 666 556 975 473 
Q 1284 391 1588 391 
Q 1994 391 2212 530 
Q 2431 669 2431 922 
Q 2431 1156 2273 1281 
Q 2116 1406 1581 1522 
L 1381 1569 
Q 847 1681 609 1914 
Q 372 2147 372 2553 
Q 372 3047 722 3315 
Q 1072 3584 1716 3584 
Q 2034 3584 2315 3537 
Q 2597 3491 2834 3397 
z
" transform="scale(0.015625)"/>
      <path id="DejaVuSans-20" transform="scale(0.015625)"/>
      <path id="DejaVuSans-4c" d="M 628 4666 
L 1259 4666 
L 1259 531 
L 3531 531 
L 3531 0 
L 628 0 
L 628 4666 
z
" transform="scale(0.015625)"/>
      <path id="DejaVuSans-75" d="M 544 1381 
L 544 3500 
L 1119 3500 
L 1119 1403 
Q 1119 906 1312 657 
Q 1506 409 1894 409 
Q 2359 409 2629 706 
Q 2900 1003 2900 1516 
L 2900 3500 
L 3475 3500 
L 3475 0 
L 2900 0 
L 2900 538 
Q 2691 219 2414 64 
Q 2138 -91 1772 -91 
Q 1169 -91 856 284 
Q 544 659 544 1381 
z
M 1991 3584 
L 1991 3584 
z
" transform="scale(0.015625)"/>
      <path id="DejaVuSans-78" d="M 3513 3500 
L 2247 1797 
L 3578 0 
L 2900 0 
L 1881 1375 
L 863 0 
L 184 0 
L 1544 1831 
L 300 3500 
L 978 3500 
L 1906 2253 
L 2834 3500 
L 3513 3500 
z
" transform="scale(0.015625)"/>
      <path id="DejaVuSans-49" d="M 628 4666 
L 1259 4666 
L 1259 0 
L 628 0 
L 628 4666 
z
" transform="scale(0.015625)"/>
      <path id="DejaVuSans-63" d="M 3122 3366 
L 3122 2828 
Q 2878 2963 2633 3030 
Q 2388 3097 2138 3097 
Q 1578 3097 1268 2742 
Q 959 2388 959 1747 
Q 959 1106 1268 751 
Q 1578 397 2138 397 
Q 2388 397 2633 464 
Q 2878 531 3122 666 
L 3122 134 
Q 2881 22 2623 -34 
Q 2366 -91 2075 -91 
Q 1284 -91 818 406 
Q 353 903 353 1747 
Q 353 2603 823 3093 
Q 1294 3584 2113 3584 
Q 2378 3584 2631 3529 
Q 2884 3475 3122 3366 
z
" transform="scale(0.015625)"/>
      <path id="DejaVuSans-62" d="M 3116 1747 
Q 3116 2381 2855 2742 
Q 2594 3103 2138 3103 
Q 1681 3103 1420 2742 
Q 1159 2381 1159 1747 
Q 1159 1113 1420 752 
Q 1681 391 2138 391 
Q 2594 391 2855 752 
Q 3116 1113 3116 1747 
z
M 1159 2969 
Q 1341 3281 1617 3432 
Q 1894 3584 2278 3584 
Q 2916 3584 3314 3078 
Q 3713 2572 3713 1747 
Q 3713 922 3314 415 
Q 2916 -91 2278 -91 
Q 1894 -91 1617 61 
Q 1341 213 1159 525 
L 1159 0 
L 581 0 
L 581 4863 
L 1159 4863 
L 1159 2969 
z
" transform="scale(0.015625)"/>
      <path id="DejaVuSans-79" d="M 2059 -325 
Q 1816 -950 1584 -1140 
Q 1353 -1331 966 -1331 
L 506 -1331 
L 506 -850 
L 844 -850 
Q 1081 -850 1212 -737 
Q 1344 -625 1503 -206 
L 1606 56 
L 191 3500 
L 800 3500 
L 1894 763 
L 2988 3500 
L 3597 3500 
L 2059 -325 
z
" transform="scale(0.015625)"/>
      <path id="DejaVuSans-6f" d="M 1959 3097 
Q 1497 3097 1228 2736 
Q 959 2375 959 1747 
Q 959 1119 1226 758 
Q 1494 397 1959 397 
Q 2419 397 2687 759 
Q 2956 1122 2956 1747 
Q 2956 2369 2687 2733 
Q 2419 3097 1959 3097 
z
M 1959 3584 
Q 2709 3584 3137 3096 
Q 3566 2609 3566 1747 
Q 3566 888 3137 398 
Q 2709 -91 1959 -91 
Q 1206 -91 779 398 
Q 353 888 353 1747 
Q 353 2609 779 3096 
Q 1206 3584 1959 3584 
z
" transform="scale(0.015625)"/>
      <path id="DejaVuSans-28" d="M 1984 4856 
Q 1566 4138 1362 3434 
Q 1159 2731 1159 2009 
Q 1159 1288 1364 580 
Q 1569 -128 1984 -844 
L 1484 -844 
Q 1016 -109 783 600 
Q 550 1309 550 2009 
Q 550 2706 781 3412 
Q 1013 4119 1484 4856 
L 1984 4856 
z
" transform="scale(0.015625)"/>
      <path id="DejaVuSans-6d" d="M 3328 2828 
Q 3544 3216 3844 3400 
Q 4144 3584 4550 3584 
Q 5097 3584 5394 3201 
Q 5691 2819 5691 2113 
L 5691 0 
L 5113 0 
L 5113 2094 
Q 5113 2597 4934 2840 
Q 4756 3084 4391 3084 
Q 3944 3084 3684 2787 
Q 3425 2491 3425 1978 
L 3425 0 
L 2847 0 
L 2847 2094 
Q 2847 2600 2669 2842 
Q 2491 3084 2119 3084 
Q 1678 3084 1418 2786 
Q 1159 2488 1159 1978 
L 1159 0 
L 581 0 
L 581 3500 
L 1159 3500 
L 1159 2956 
Q 1356 3278 1631 3431 
Q 1906 3584 2284 3584 
Q 2666 3584 2933 3390 
Q 3200 3197 3328 2828 
z
" transform="scale(0.015625)"/>
      <path id="DejaVuSans-41" d="M 2188 4044 
L 1331 1722 
L 3047 1722 
L 2188 4044 
z
M 1831 4666 
L 2547 4666 
L 4325 0 
L 3669 0 
L 3244 1197 
L 1141 1197 
L 716 0 
L 50 0 
L 1831 4666 
z
" transform="scale(0.015625)"/>
      <path id="DejaVuSans-67" d="M 2906 1791 
Q 2906 2416 2648 2759 
Q 2391 3103 1925 3103 
Q 1463 3103 1205 2759 
Q 947 2416 947 1791 
Q 947 1169 1205 825 
Q 1463 481 1925 481 
Q 2391 481 2648 825 
Q 2906 1169 2906 1791 
z
M 3481 434 
Q 3481 -459 3084 -895 
Q 2688 -1331 1869 -1331 
Q 1566 -1331 1297 -1286 
Q 1028 -1241 775 -1147 
L 775 -588 
Q 1028 -725 1275 -790 
Q 1522 -856 1778 -856 
Q 2344 -856 2625 -561 
Q 2906 -266 2906 331 
L 2906 616 
Q 2728 306 2450 153 
Q 2172 0 1784 0 
Q 1141 0 747 490 
Q 353 981 353 1791 
Q 353 2603 747 3093 
Q 1141 3584 1784 3584 
Q 2172 3584 2450 3431 
Q 2728 3278 2906 2969 
L 2906 3500 
L 3481 3500 
L 3481 434 
z
" transform="scale(0.015625)"/>
      <path id="DejaVuSans-3e" d="M 678 3150 
L 678 3719 
L 4684 2266 
L 4684 1747 
L 678 294 
L 678 863 
L 3897 2003 
L 678 3150 
z
" transform="scale(0.015625)"/>
      <path id="DejaVuSans-57" d="M 213 4666 
L 850 4666 
L 1831 722 
L 2809 4666 
L 3519 4666 
L 4500 722 
L 5478 4666 
L 6119 4666 
L 4947 0 
L 4153 0 
L 3169 4050 
L 2175 0 
L 1381 0 
L 213 4666 
z
" transform="scale(0.015625)"/>
      <path id="DejaVuSans-6b" d="M 581 4863 
L 1159 4863 
L 1159 1991 
L 2875 3500 
L 3609 3500 
L 1753 1863 
L 3688 0 
L 2938 0 
L 1159 1709 
L 1159 0 
L 581 0 
L 581 4863 
z
" transform="scale(0.015625)"/>
      <path id="DejaVuSans-29" d="M 513 4856 
L 1013 4856 
Q 1481 4119 1714 3412 
Q 1947 2706 1947 2009 
Q 1947 1309 1714 600 
Q 1481 -109 1013 -844 
L 513 -844 
Q 928 -128 1133 580 
Q 1338 1288 1338 2009 
Q 1338 2731 1133 3434 
Q 928 4138 513 4856 
z
" transform="scale(0.015625)"/>
     </defs>
     <use xlink:href="#DejaVuSans-45"/>
     <use xlink:href="#DejaVuSans-6e" x="63.183594"/>
     <use xlink:href="#DejaVuSans-74" x="126.5625"/>
     <use xlink:href="#DejaVuSans-65" x="165.771484"/>
     <use xlink:href="#DejaVuSans-72" x="227.294922"/>
     <use xlink:href="#DejaVuSans-70" x="268.408203"/>
     <use xlink:href="#DejaVuSans-72" x="331.884766"/>
     <use xlink:href="#DejaVuSans-69" x="372.998047"/>
     <use xlink:href="#DejaVuSans-73" x="400.78125"/>
     <use xlink:href="#DejaVuSans-65" x="452.880859"/>
     <use xlink:href="#DejaVuSans-20" x="514.404297"/>
     <use xlink:href="#DejaVuSans-4c" x="546.191406"/>
     <use xlink:href="#DejaVuSans-69" x="601.904297"/>
     <use xlink:href="#DejaVuSans-6e" x="629.6875"/>
     <use xlink:href="#DejaVuSans-75" x="693.066406"/>
     <use xlink:href="#DejaVuSans-78" x="756.445312"/>
     <use xlink:href="#DejaVuSans-20" x="815.625"/>
     <use xlink:href="#DejaVuSans-49" x="847.412109"/>
     <use xlink:href="#DejaVuSans-6e" x="876.904297"/>
     <use xlink:href="#DejaVuSans-73" x="940.283203"/>
     <use xlink:href="#DejaVuSans-74" x="992.382812"/>
     <use xlink:href="#DejaVuSans-61" x="1031.591797"/>
     <use xlink:href="#DejaVuSans-6e" x="1092.871094"/>
     <use xlink:href="#DejaVuSans-63" x="1156.25"/>
     <use xlink:href="#DejaVuSans-65" x="1211.230469"/>
     <use xlink:href="#DejaVuSans-73" x="1272.753906"/>
     <use xlink:href="#DejaVuSans-20" x="1324.853516"/>
     <use xlink:href="#DejaVuSans-62" x="1356.640625"/>
     <use xlink:href="#DejaVuSans-79" x="1420.117188"/>
     <use xlink:href="#DejaVuSans-20" x="1479.296875"/>
     <use xlink:href="#DejaVuSans-44" x="1511.083984"/>
     <use xlink:href="#DejaVuSans-69" x="1588.085938"/>
     <use xlink:href="#DejaVuSans-73" x="1615.869141"/>
     <use xlink:href="#DejaVuSans-74" x="1667.96875"/>
     <use xlink:href="#DejaVuSans-72" x="1707.177734"/>
     <use xlink:href="#DejaVuSans-69" x="1748.291016"/>
     <use xlink:href="#DejaVuSans-62" x="1776.074219"/>
     <use xlink:href="#DejaVuSans-75" x="1839.550781"/>
     <use xlink:href="#DejaVuSans-74" x="1902.929688"/>
     <use xlink:href="#DejaVuSans-69" x="1942.138672"/>
     <use xlink:href="#DejaVuSans-6f" x="1969.921875"/>
     <use xlink:href="#DejaVuSans-6e" x="2031.103516"/>
     <use xlink:href="#DejaVuSans-20" x="2094.482422"/>
     <use xlink:href="#DejaVuSans-53" x="2126.269531"/>
     <use xlink:href="#DejaVuSans-68" x="2189.746094"/>
     <use xlink:href="#DejaVuSans-61" x="2253.125"/>
     <use xlink:href="#DejaVuSans-72" x="2314.404297"/>
     <use xlink:href="#DejaVuSans-65" x="2353.267578"/>
     <use xlink:href="#DejaVuSans-20" x="2414.791016"/>
     <use xlink:href="#DejaVuSans-28" x="2446.578125"/>
     <use xlink:href="#DejaVuSans-53" x="2485.591797"/>
     <use xlink:href="#DejaVuSans-79" x="2549.068359"/>
     <use xlink:href="#DejaVuSans-73" x="2608.248047"/>
     <use xlink:href="#DejaVuSans-74" x="2660.347656"/>
     <use xlink:href="#DejaVuSans-65" x="2699.556641"/>
     <use xlink:href="#DejaVuSans-6d" x="2761.080078"/>
     <use xlink:href="#DejaVuSans-20" x="2858.492188"/>
     <use xlink:href="#DejaVuSans-41" x="2890.279297"/>
     <use xlink:href="#DejaVuSans-67" x="2958.6875"/>
     <use xlink:href="#DejaVuSans-65" x="3022.164062"/>
     <use xlink:href="#DejaVuSans-20" x="3083.6875"/>
     <use xlink:href="#DejaVuSans-3e" x="3115.474609"/>
     <use xlink:href="#DejaVuSans-20" x="3199.263672"/>
     <use xlink:href="#DejaVuSans-31" x="3231.050781"/>
     <use xlink:href="#DejaVuSans-20" x="3294.673828"/>
     <use xlink:href="#DejaVuSans-57" x="3326.460938"/>
     <use xlink:href="#DejaVuSans-65" x="3419.462891"/>
     <use xlink:href="#DejaVuSans-65" x="3480.986328"/>
     <use xlink:href="#DejaVuSans-6b" x="3542.509766"/>
     <use xlink:href="#DejaVuSans-29" x="3600.419922"/>
    </g>
   </g>
   <g id="text_25">
    <!-- 2025-09-11 11:56 UTC -->
    <g transform="translate(792.041375 18.14175) scale(0.144 -0.144)">
     <defs>
      <path id="DejaVuSans-3a" d="M 750 794 
L 1409 794 
L 1409 0 
L 750 0 
L 750 794 
z
M 750 3309 
L 1409 3309 
L 1409 2516 
L 750 2516 
L 750 3309 
z
" transform="scale(0.015625)"/>
      <path id="DejaVuSans-55" d="M 556 4666 
L 1191 4666 
L 1191 1831 
Q 1191 1081 1462 751 
Q 1734 422 2344 422 
Q 2950 422 3222 751 
Q 3494 1081 3494 1831 
L 3494 4666 
L 4128 4666 
L 4128 1753 
Q 4128 841 3676 375 
Q 3225 -91 2344 -91 
Q 1459 -91 1007 375 
Q 556 841 556 1753 
L 556 4666 
z
" transform="scale(0.015625)"/>
      <path id="DejaVuSans-54" d="M -19 4666 
L 3928 4666 
L 3928 4134 
L 2272 4134 
L 2272 0 
L 1638 0 
L 1638 4134 
L -19 4134 
L -19 4666 
z
" transform="scale(0.015625)"/>
      <path id="DejaVuSans-43" d="M 4122 4306 
L 4122 3641 
Q 3803 3938 3442 4084 
Q 3081 4231 2675 4231 
Q 1875 4231 1450 3742 
Q 1025 3253 1025 2328 
Q 1025 1406 1450 917 
Q 1875 428 2675 428 
Q 3081 428 3442 575 
Q 3803 722 4122 1019 
L 4122 359 
Q 3791 134 3420 21 
Q 3050 -91 2638 -91 
Q 1578 -91 968 557 
Q 359 1206 359 2328 
Q 359 3453 968 4101 
Q 1578 4750 2638 4750 
Q 3056 4750 3426 4639 
Q 3797 4528 4122 4306 
z
" transform="scale(0.015625)"/>
     </defs>
     <use xlink:href="#DejaVuSans-32"/>
     <use xlink:href="#DejaVuSans-30" x="63.623047"/>
     <use xlink:href="#DejaVuSans-32" x="127.246094"/>
     <use xlink:href="#DejaVuSans-35" x="190.869141"/>
     <use xlink:href="#DejaVuSans-2d" x="254.492188"/>
     <use xlink:href="#DejaVuSans-30" x="290.576172"/>
     <use xlink:href="#DejaVuSans-39" x="354.199219"/>
     <use xlink:href="#DejaVuSans-2d" x="417.822266"/>
     <use xlink:href="#DejaVuSans-31" x="453.90625"/>
     <use xlink:href="#DejaVuSans-31" x="517.529297"/>
     <use xlink:href="#DejaVuSans-20" x="581.152344"/>
     <use xlink:href="#DejaVuSans-31" x="612.939453"/>
     <use xlink:href="#DejaVuSans-31" x="676.5625"/>
     <use xlink:href="#DejaVuSans-3a" x="740.185547"/>
     <use xlink:href="#DejaVuSans-35" x="773.876953"/>
     <use xlink:href="#DejaVuSans-36" x="837.5"/>
     <use xlink:href="#DejaVuSans-20" x="901.123047"/>
     <use xlink:href="#DejaVuSans-55" x="932.910156"/>
     <use xlink:href="#DejaVuSans-54" x="1006.103516"/>
     <use xlink:href="#DejaVuSans-43" x="1061.3125"/>
    </g>
   </g>
   <g id="legend_1">
    <g id="patch_7">
     <path d="M 838.954625 134.888625 
L 947.923375 134.888625 
Q 949.923375 134.888625 949.923375 132.888625 
L 949.923375 31.14175 
Q 949.923375 29.14175 947.923375 29.14175 
L 838.954625 29.14175 
Q 836.954625 29.14175 836.954625 31.14175 
L 836.954625 132.888625 
Q 836.954625 134.888625 838.954625 134.888625 
z
" style="fill: #e5e5e5; opacity: 0.8; stroke: #cccccc; stroke-width: 0.5; stroke-linejoin: miter"/>
    </g>
    <g id="text_26">
     <!-- Distribution -->
     <g transform="translate(864.27025 40.740188) scale(0.1 -0.1)">
      <use xlink:href="#DejaVuSans-44"/>
      <use xlink:href="#DejaVuSans-69" x="77.001953"/>
      <use xlink:href="#DejaVuSans-73" x="104.785156"/>
      <use xlink:href="#DejaVuSans-74" x="156.884766"/>
      <use xlink:href="#DejaVuSans-72" x="196.09375"/>
      <use xlink:href="#DejaVuSans-69" x="237.207031"/>
      <use xlink:href="#DejaVuSans-62" x="264.990234"/>
      <use xlink:href="#DejaVuSans-75" x="328.466797"/>
      <use xlink:href="#DejaVuSans-74" x="391.845703"/>
      <use xlink:href="#DejaVuSans-69" x="431.054688"/>
      <use xlink:href="#DejaVuSans-6f" x="458.837891"/>
      <use xlink:href="#DejaVuSans-6e" x="520.019531"/>
     </g>
    </g>
    <g id="line2d_55">
     <path d="M 840.954625 51.918313 
L 850.954625 51.918313 
L 860.954625 51.918313 
" style="fill: none; stroke: #4ac1fa; stroke-width: 1.5; stroke-linecap: square"/>
    </g>
    <g id="text_27">
     <!-- AlmaLinux -->
     <g transform="translate(868.954625 55.418313) scale(0.1 -0.1)">
      <defs>
       <path id="DejaVuSans-6c" d="M 603 4863 
L 1178 4863 
L 1178 0 
L 603 0 
L 603 4863 
z
" transform="scale(0.015625)"/>
      </defs>
      <use xlink:href="#DejaVuSans-41"/>
      <use xlink:href="#DejaVuSans-6c" x="68.408203"/>
      <use xlink:href="#DejaVuSans-6d" x="96.191406"/>
      <use xlink:href="#DejaVuSans-61" x="193.603516"/>
      <use xlink:href="#DejaVuSans-4c" x="254.882812"/>
      <use xlink:href="#DejaVuSans-69" x="310.595703"/>
      <use xlink:href="#DejaVuSans-6e" x="338.378906"/>
      <use xlink:href="#DejaVuSans-75" x="401.757812"/>
      <use xlink:href="#DejaVuSans-78" x="465.136719"/>
     </g>
    </g>
    <g id="line2d_56">
     <path d="M 840.954625 66.596438 
L 850.954625 66.596438 
L 860.954625 66.596438 
" style="fill: none; stroke: #e9a942; stroke-width: 1.5; stroke-linecap: square"/>
    </g>
    <g id="text_28">
     <!-- CentOS Legacy -->
     <g transform="translate(868.954625 70.096438) scale(0.1 -0.1)">
      <defs>
       <path id="DejaVuSans-4f" d="M 2522 4238 
Q 1834 4238 1429 3725 
Q 1025 3213 1025 2328 
Q 1025 1447 1429 934 
Q 1834 422 2522 422 
Q 3209 422 3611 934 
Q 4013 1447 4013 2328 
Q 4013 3213 3611 3725 
Q 3209 4238 2522 4238 
z
M 2522 4750 
Q 3503 4750 4090 4092 
Q 4678 3434 4678 2328 
Q 4678 1225 4090 567 
Q 3503 -91 2522 -91 
Q 1538 -91 948 565 
Q 359 1222 359 2328 
Q 359 3434 948 4092 
Q 1538 4750 2522 4750 
z
" transform="scale(0.015625)"/>
      </defs>
      <use xlink:href="#DejaVuSans-43"/>
      <use xlink:href="#DejaVuSans-65" x="69.824219"/>
      <use xlink:href="#DejaVuSans-6e" x="131.347656"/>
      <use xlink:href="#DejaVuSans-74" x="194.726562"/>
      <use xlink:href="#DejaVuSans-4f" x="233.935547"/>
      <use xlink:href="#DejaVuSans-53" x="312.646484"/>
      <use xlink:href="#DejaVuSans-20" x="376.123047"/>
      <use xlink:href="#DejaVuSans-4c" x="407.910156"/>
      <use xlink:href="#DejaVuSans-65" x="461.873047"/>
      <use xlink:href="#DejaVuSans-67" x="523.396484"/>
      <use xlink:href="#DejaVuSans-61" x="586.873047"/>
      <use xlink:href="#DejaVuSans-63" x="648.152344"/>
      <use xlink:href="#DejaVuSans-79" x="703.132812"/>
     </g>
    </g>
    <g id="line2d_57">
     <path d="M 840.954625 81.274563 
L 850.954625 81.274563 
L 860.954625 81.274563 
" style="fill: none; stroke: #9a5689; stroke-width: 1.5; stroke-linecap: square"/>
    </g>
    <g id="text_29">
     <!-- CentOS Stream -->
     <g transform="translate(868.954625 84.774563) scale(0.1 -0.1)">
      <use xlink:href="#DejaVuSans-43"/>
      <use xlink:href="#DejaVuSans-65" x="69.824219"/>
      <use xlink:href="#DejaVuSans-6e" x="131.347656"/>
      <use xlink:href="#DejaVuSans-74" x="194.726562"/>
      <use xlink:href="#DejaVuSans-4f" x="233.935547"/>
      <use xlink:href="#DejaVuSans-53" x="312.646484"/>
      <use xlink:href="#DejaVuSans-20" x="376.123047"/>
      <use xlink:href="#DejaVuSans-53" x="407.910156"/>
      <use xlink:href="#DejaVuSans-74" x="471.386719"/>
      <use xlink:href="#DejaVuSans-72" x="510.595703"/>
      <use xlink:href="#DejaVuSans-65" x="549.458984"/>
      <use xlink:href="#DejaVuSans-61" x="610.982422"/>
      <use xlink:href="#DejaVuSans-6d" x="672.261719"/>
     </g>
    </g>
    <g id="line2d_58">
     <path d="M 840.954625 95.952688 
L 850.954625 95.952688 
L 860.954625 95.952688 
" style="fill: none; stroke: #be503b; stroke-width: 1.5; stroke-linecap: square"/>
    </g>
    <g id="text_30">
     <!-- Oracle -->
     <g transform="translate(868.954625 99.452688) scale(0.1 -0.1)">
      <use xlink:href="#DejaVuSans-4f"/>
      <use xlink:href="#DejaVuSans-72" x="78.710938"/>
      <use xlink:href="#DejaVuSans-61" x="119.824219"/>
      <use xlink:href="#DejaVuSans-63" x="181.103516"/>
      <use xlink:href="#DejaVuSans-6c" x="236.083984"/>
      <use xlink:href="#DejaVuSans-65" x="263.867188"/>
     </g>
    </g>
    <g id="line2d_59">
     <path d="M 840.954625 110.630813 
L 850.954625 110.630813 
L 860.954625 110.630813 
" style="fill: none; stroke: #e2321d; stroke-width: 1.5; stroke-linecap: square"/>
    </g>
    <g id="text_31">
     <!-- RHEL -->
     <g transform="translate(868.954625 114.130813) scale(0.1 -0.1)">
      <defs>
       <path id="DejaVuSans-52" d="M 2841 2188 
Q 3044 2119 3236 1894 
Q 3428 1669 3622 1275 
L 4263 0 
L 3584 0 
L 2988 1197 
Q 2756 1666 2539 1819 
Q 2322 1972 1947 1972 
L 1259 1972 
L 1259 0 
L 628 0 
L 628 4666 
L 2053 4666 
Q 2853 4666 3247 4331 
Q 3641 3997 3641 3322 
Q 3641 2881 3436 2590 
Q 3231 2300 2841 2188 
z
M 1259 4147 
L 1259 2491 
L 2053 2491 
Q 2509 2491 2742 2702 
Q 2975 2913 2975 3322 
Q 2975 3731 2742 3939 
Q 2509 4147 2053 4147 
L 1259 4147 
z
" transform="scale(0.015625)"/>
       <path id="DejaVuSans-48" d="M 628 4666 
L 1259 4666 
L 1259 2753 
L 3553 2753 
L 3553 4666 
L 4184 4666 
L 4184 0 
L 3553 0 
L 3553 2222 
L 1259 2222 
L 1259 0 
L 628 0 
L 628 4666 
z
" transform="scale(0.015625)"/>
      </defs>
      <use xlink:href="#DejaVuSans-52"/>
      <use xlink:href="#DejaVuSans-48" x="69.482422"/>
      <use xlink:href="#DejaVuSans-45" x="144.677734"/>
      <use xlink:href="#DejaVuSans-4c" x="207.861328"/>
     </g>
    </g>
    <g id="line2d_60">
     <path d="M 840.954625 125.308938 
L 850.954625 125.308938 
L 860.954625 125.308938 
" style="fill: none; stroke: #48b585; stroke-width: 6; stroke-linecap: square"/>
    </g>
    <g id="text_32">
     <!-- Rocky Linux -->
     <g transform="translate(868.954625 128.808938) scale(0.1 -0.1)">
      <use xlink:href="#DejaVuSans-52"/>
      <use xlink:href="#DejaVuSans-6f" x="64.982422"/>
      <use xlink:href="#DejaVuSans-63" x="126.164062"/>
      <use xlink:href="#DejaVuSans-6b" x="181.144531"/>
      <use xlink:href="#DejaVuSans-79" x="235.429688"/>
      <use xlink:href="#DejaVuSans-20" x="294.609375"/>
      <use xlink:href="#DejaVuSans-4c" x="326.396484"/>
      <use xlink:href="#DejaVuSans-69" x="382.109375"/>
      <use xlink:href="#DejaVuSans-6e" x="409.892578"/>
      <use xlink:href="#DejaVuSans-75" x="473.271484"/>
      <use xlink:href="#DejaVuSans-78" x="536.650391"/>
     </g>
    </g>
   </g>
  </g>
 </g>
 <defs>
  <clipPath id="p29d214ec7c">
   <rect x="52.079375" y="24.14175" width="902.844" height="554.4"/>
  </clipPath>
 </defs>
</svg>
