<?xml version="1.0" encoding="utf-8" standalone="no"?>
<!DOCTYPE svg PUBLIC "-//W3C//DTD SVG 1.1//EN"
  "http://www.w3.org/Graphics/SVG/1.1/DTD/svg11.dtd">
<svg xmlns:xlink="http://www.w3.org/1999/xlink" width="964.735875pt" height="633.943878pt" viewBox="0 0 964.735875 633.943878" xmlns="http://www.w3.org/2000/svg" version="1.1">
 <metadata>
  <rdf:RDF xmlns:dc="http://purl.org/dc/elements/1.1/" xmlns:cc="http://creativecommons.org/ns#" xmlns:rdf="http://www.w3.org/1999/02/22-rdf-syntax-ns#">
   <cc:Work>
    <dc:type rdf:resource="http://purl.org/dc/dcmitype/StillImage"/>
    <dc:date>2023-10-19T12:17:37.102902</dc:date>
    <dc:format>image/svg+xml</dc:format>
    <dc:creator>
     <cc:Agent>
      <dc:title>Matplotlib v3.5.1, https://matplotlib.org/</dc:title>
     </cc:Agent>
    </dc:creator>
   </cc:Work>
  </rdf:RDF>
 </metadata>
 <defs>
  <style type="text/css">*{stroke-linejoin: round; stroke-linecap: butt}</style>
 </defs>
 <g id="figure_1">
  <g id="patch_1">
   <path d="M 0 633.943878 
L 964.735875 633.943878 
L 964.735875 0 
L 0 0 
z
" style="fill: #ffffff"/>
  </g>
  <g id="axes_1">
   <g id="patch_2">
    <path d="M 54.691875 567.74175 
L 957.535875 567.74175 
L 957.535875 24.14175 
L 54.691875 24.14175 
z
" style="fill: #e5e5e5"/>
   </g>
   <g id="matplotlib.axis_1">
    <g id="xtick_1">
     <g id="line2d_1">
      <path d="M 77.452648 567.74175 
L 77.452648 24.14175 
" clip-path="url(#p3148f593d6)" style="fill: none; stroke: #ffffff; stroke-width: 0.8; stroke-linecap: square"/>
     </g>
     <g id="line2d_2">
      <defs>
       <path id="m0ab5120f91" d="M 0 0 
L 0 3.5 
" style="stroke: #555555; stroke-width: 0.8"/>
      </defs>
      <g>
       <use xlink:href="#m0ab5120f91" x="77.452648" y="567.74175" style="fill: #555555; stroke: #555555; stroke-width: 0.8"/>
      </g>
     </g>
     <g id="text_1">
      <!-- 2022-11 -->
      <g style="fill: #555555" transform="translate(64.631366 609.659567)rotate(-45)scale(0.1 -0.1)">
       <defs>
        <path id="DejaVuSans-32" d="M 1228 531 
L 3431 531 
L 3431 0 
L 469 0 
L 469 531 
Q 828 903 1448 1529 
Q 2069 2156 2228 2338 
Q 2531 2678 2651 2914 
Q 2772 3150 2772 3378 
Q 2772 3750 2511 3984 
Q 2250 4219 1831 4219 
Q 1534 4219 1204 4116 
Q 875 4013 500 3803 
L 500 4441 
Q 881 4594 1212 4672 
Q 1544 4750 1819 4750 
Q 2544 4750 2975 4387 
Q 3406 4025 3406 3419 
Q 3406 3131 3298 2873 
Q 3191 2616 2906 2266 
Q 2828 2175 2409 1742 
Q 1991 1309 1228 531 
z
" transform="scale(0.015625)"/>
        <path id="DejaVuSans-30" d="M 2034 4250 
Q 1547 4250 1301 3770 
Q 1056 3291 1056 2328 
Q 1056 1369 1301 889 
Q 1547 409 2034 409 
Q 2525 409 2770 889 
Q 3016 1369 3016 2328 
Q 3016 3291 2770 3770 
Q 2525 4250 2034 4250 
z
M 2034 4750 
Q 2819 4750 3233 4129 
Q 3647 3509 3647 2328 
Q 3647 1150 3233 529 
Q 2819 -91 2034 -91 
Q 1250 -91 836 529 
Q 422 1150 422 2328 
Q 422 3509 836 4129 
Q 1250 4750 2034 4750 
z
" transform="scale(0.015625)"/>
        <path id="DejaVuSans-2d" d="M 313 2009 
L 1997 2009 
L 1997 1497 
L 313 1497 
L 313 2009 
z
" transform="scale(0.015625)"/>
        <path id="DejaVuSans-31" d="M 794 531 
L 1825 531 
L 1825 4091 
L 703 3866 
L 703 4441 
L 1819 4666 
L 2450 4666 
L 2450 531 
L 3481 531 
L 3481 0 
L 794 0 
L 794 531 
z
" transform="scale(0.015625)"/>
       </defs>
       <use xlink:href="#DejaVuSans-32"/>
       <use xlink:href="#DejaVuSans-30" x="63.623047"/>
       <use xlink:href="#DejaVuSans-32" x="127.246094"/>
       <use xlink:href="#DejaVuSans-32" x="190.869141"/>
       <use xlink:href="#DejaVuSans-2d" x="254.492188"/>
       <use xlink:href="#DejaVuSans-31" x="290.576172"/>
       <use xlink:href="#DejaVuSans-31" x="354.199219"/>
      </g>
     </g>
    </g>
    <g id="xtick_2">
     <g id="line2d_3">
      <path d="M 153.321892 567.74175 
L 153.321892 24.14175 
" clip-path="url(#p3148f593d6)" style="fill: none; stroke: #ffffff; stroke-width: 0.8; stroke-linecap: square"/>
     </g>
     <g id="line2d_4">
      <g>
       <use xlink:href="#m0ab5120f91" x="153.321892" y="567.74175" style="fill: #555555; stroke: #555555; stroke-width: 0.8"/>
      </g>
     </g>
     <g id="text_2">
      <!-- 2022-12 -->
      <g style="fill: #555555" transform="translate(140.50061 609.659567)rotate(-45)scale(0.1 -0.1)">
       <use xlink:href="#DejaVuSans-32"/>
       <use xlink:href="#DejaVuSans-30" x="63.623047"/>
       <use xlink:href="#DejaVuSans-32" x="127.246094"/>
       <use xlink:href="#DejaVuSans-32" x="190.869141"/>
       <use xlink:href="#DejaVuSans-2d" x="254.492188"/>
       <use xlink:href="#DejaVuSans-31" x="290.576172"/>
       <use xlink:href="#DejaVuSans-32" x="354.199219"/>
      </g>
     </g>
    </g>
    <g id="xtick_3">
     <g id="line2d_5">
      <path d="M 231.72011 567.74175 
L 231.72011 24.14175 
" clip-path="url(#p3148f593d6)" style="fill: none; stroke: #ffffff; stroke-width: 0.8; stroke-linecap: square"/>
     </g>
     <g id="line2d_6">
      <g>
       <use xlink:href="#m0ab5120f91" x="231.72011" y="567.74175" style="fill: #555555; stroke: #555555; stroke-width: 0.8"/>
      </g>
     </g>
     <g id="text_3">
      <!-- 2023-01 -->
      <g style="fill: #555555" transform="translate(218.898828 609.659567)rotate(-45)scale(0.1 -0.1)">
       <defs>
        <path id="DejaVuSans-33" d="M 2597 2516 
Q 3050 2419 3304 2112 
Q 3559 1806 3559 1356 
Q 3559 666 3084 287 
Q 2609 -91 1734 -91 
Q 1441 -91 1130 -33 
Q 819 25 488 141 
L 488 750 
Q 750 597 1062 519 
Q 1375 441 1716 441 
Q 2309 441 2620 675 
Q 2931 909 2931 1356 
Q 2931 1769 2642 2001 
Q 2353 2234 1838 2234 
L 1294 2234 
L 1294 2753 
L 1863 2753 
Q 2328 2753 2575 2939 
Q 2822 3125 2822 3475 
Q 2822 3834 2567 4026 
Q 2313 4219 1838 4219 
Q 1578 4219 1281 4162 
Q 984 4106 628 3988 
L 628 4550 
Q 988 4650 1302 4700 
Q 1616 4750 1894 4750 
Q 2613 4750 3031 4423 
Q 3450 4097 3450 3541 
Q 3450 3153 3228 2886 
Q 3006 2619 2597 2516 
z
" transform="scale(0.015625)"/>
       </defs>
       <use xlink:href="#DejaVuSans-32"/>
       <use xlink:href="#DejaVuSans-30" x="63.623047"/>
       <use xlink:href="#DejaVuSans-32" x="127.246094"/>
       <use xlink:href="#DejaVuSans-33" x="190.869141"/>
       <use xlink:href="#DejaVuSans-2d" x="254.492188"/>
       <use xlink:href="#DejaVuSans-30" x="290.576172"/>
       <use xlink:href="#DejaVuSans-31" x="354.199219"/>
      </g>
     </g>
    </g>
    <g id="xtick_4">
     <g id="line2d_7">
      <path d="M 310.118329 567.74175 
L 310.118329 24.14175 
" clip-path="url(#p3148f593d6)" style="fill: none; stroke: #ffffff; stroke-width: 0.8; stroke-linecap: square"/>
     </g>
     <g id="line2d_8">
      <g>
       <use xlink:href="#m0ab5120f91" x="310.118329" y="567.74175" style="fill: #555555; stroke: #555555; stroke-width: 0.8"/>
      </g>
     </g>
     <g id="text_4">
      <!-- 2023-02 -->
      <g style="fill: #555555" transform="translate(297.297047 609.659567)rotate(-45)scale(0.1 -0.1)">
       <use xlink:href="#DejaVuSans-32"/>
       <use xlink:href="#DejaVuSans-30" x="63.623047"/>
       <use xlink:href="#DejaVuSans-32" x="127.246094"/>
       <use xlink:href="#DejaVuSans-33" x="190.869141"/>
       <use xlink:href="#DejaVuSans-2d" x="254.492188"/>
       <use xlink:href="#DejaVuSans-30" x="290.576172"/>
       <use xlink:href="#DejaVuSans-32" x="354.199219"/>
      </g>
     </g>
    </g>
    <g id="xtick_5">
     <g id="line2d_9">
      <path d="M 380.929623 567.74175 
L 380.929623 24.14175 
" clip-path="url(#p3148f593d6)" style="fill: none; stroke: #ffffff; stroke-width: 0.8; stroke-linecap: square"/>
     </g>
     <g id="line2d_10">
      <g>
       <use xlink:href="#m0ab5120f91" x="380.929623" y="567.74175" style="fill: #555555; stroke: #555555; stroke-width: 0.8"/>
      </g>
     </g>
     <g id="text_5">
      <!-- 2023-03 -->
      <g style="fill: #555555" transform="translate(368.108341 609.659567)rotate(-45)scale(0.1 -0.1)">
       <use xlink:href="#DejaVuSans-32"/>
       <use xlink:href="#DejaVuSans-30" x="63.623047"/>
       <use xlink:href="#DejaVuSans-32" x="127.246094"/>
       <use xlink:href="#DejaVuSans-33" x="190.869141"/>
       <use xlink:href="#DejaVuSans-2d" x="254.492188"/>
       <use xlink:href="#DejaVuSans-30" x="290.576172"/>
       <use xlink:href="#DejaVuSans-33" x="354.199219"/>
      </g>
     </g>
    </g>
    <g id="xtick_6">
     <g id="line2d_11">
      <path d="M 459.327841 567.74175 
L 459.327841 24.14175 
" clip-path="url(#p3148f593d6)" style="fill: none; stroke: #ffffff; stroke-width: 0.8; stroke-linecap: square"/>
     </g>
     <g id="line2d_12">
      <g>
       <use xlink:href="#m0ab5120f91" x="459.327841" y="567.74175" style="fill: #555555; stroke: #555555; stroke-width: 0.8"/>
      </g>
     </g>
     <g id="text_6">
      <!-- 2023-04 -->
      <g style="fill: #555555" transform="translate(446.506559 609.659567)rotate(-45)scale(0.1 -0.1)">
       <defs>
        <path id="DejaVuSans-34" d="M 2419 4116 
L 825 1625 
L 2419 1625 
L 2419 4116 
z
M 2253 4666 
L 3047 4666 
L 3047 1625 
L 3713 1625 
L 3713 1100 
L 3047 1100 
L 3047 0 
L 2419 0 
L 2419 1100 
L 313 1100 
L 313 1709 
L 2253 4666 
z
" transform="scale(0.015625)"/>
       </defs>
       <use xlink:href="#DejaVuSans-32"/>
       <use xlink:href="#DejaVuSans-30" x="63.623047"/>
       <use xlink:href="#DejaVuSans-32" x="127.246094"/>
       <use xlink:href="#DejaVuSans-33" x="190.869141"/>
       <use xlink:href="#DejaVuSans-2d" x="254.492188"/>
       <use xlink:href="#DejaVuSans-30" x="290.576172"/>
       <use xlink:href="#DejaVuSans-34" x="354.199219"/>
      </g>
     </g>
    </g>
    <g id="xtick_7">
     <g id="line2d_13">
      <path d="M 535.197085 567.74175 
L 535.197085 24.14175 
" clip-path="url(#p3148f593d6)" style="fill: none; stroke: #ffffff; stroke-width: 0.8; stroke-linecap: square"/>
     </g>
     <g id="line2d_14">
      <g>
       <use xlink:href="#m0ab5120f91" x="535.197085" y="567.74175" style="fill: #555555; stroke: #555555; stroke-width: 0.8"/>
      </g>
     </g>
     <g id="text_7">
      <!-- 2023-05 -->
      <g style="fill: #555555" transform="translate(522.375803 609.659567)rotate(-45)scale(0.1 -0.1)">
       <defs>
        <path id="DejaVuSans-35" d="M 691 4666 
L 3169 4666 
L 3169 4134 
L 1269 4134 
L 1269 2991 
Q 1406 3038 1543 3061 
Q 1681 3084 1819 3084 
Q 2600 3084 3056 2656 
Q 3513 2228 3513 1497 
Q 3513 744 3044 326 
Q 2575 -91 1722 -91 
Q 1428 -91 1123 -41 
Q 819 9 494 109 
L 494 744 
Q 775 591 1075 516 
Q 1375 441 1709 441 
Q 2250 441 2565 725 
Q 2881 1009 2881 1497 
Q 2881 1984 2565 2268 
Q 2250 2553 1709 2553 
Q 1456 2553 1204 2497 
Q 953 2441 691 2322 
L 691 4666 
z
" transform="scale(0.015625)"/>
       </defs>
       <use xlink:href="#DejaVuSans-32"/>
       <use xlink:href="#DejaVuSans-30" x="63.623047"/>
       <use xlink:href="#DejaVuSans-32" x="127.246094"/>
       <use xlink:href="#DejaVuSans-33" x="190.869141"/>
       <use xlink:href="#DejaVuSans-2d" x="254.492188"/>
       <use xlink:href="#DejaVuSans-30" x="290.576172"/>
       <use xlink:href="#DejaVuSans-35" x="354.199219"/>
      </g>
     </g>
    </g>
    <g id="xtick_8">
     <g id="line2d_15">
      <path d="M 613.595304 567.74175 
L 613.595304 24.14175 
" clip-path="url(#p3148f593d6)" style="fill: none; stroke: #ffffff; stroke-width: 0.8; stroke-linecap: square"/>
     </g>
     <g id="line2d_16">
      <g>
       <use xlink:href="#m0ab5120f91" x="613.595304" y="567.74175" style="fill: #555555; stroke: #555555; stroke-width: 0.8"/>
      </g>
     </g>
     <g id="text_8">
      <!-- 2023-06 -->
      <g style="fill: #555555" transform="translate(600.774021 609.659567)rotate(-45)scale(0.1 -0.1)">
       <defs>
        <path id="DejaVuSans-36" d="M 2113 2584 
Q 1688 2584 1439 2293 
Q 1191 2003 1191 1497 
Q 1191 994 1439 701 
Q 1688 409 2113 409 
Q 2538 409 2786 701 
Q 3034 994 3034 1497 
Q 3034 2003 2786 2293 
Q 2538 2584 2113 2584 
z
M 3366 4563 
L 3366 3988 
Q 3128 4100 2886 4159 
Q 2644 4219 2406 4219 
Q 1781 4219 1451 3797 
Q 1122 3375 1075 2522 
Q 1259 2794 1537 2939 
Q 1816 3084 2150 3084 
Q 2853 3084 3261 2657 
Q 3669 2231 3669 1497 
Q 3669 778 3244 343 
Q 2819 -91 2113 -91 
Q 1303 -91 875 529 
Q 447 1150 447 2328 
Q 447 3434 972 4092 
Q 1497 4750 2381 4750 
Q 2619 4750 2861 4703 
Q 3103 4656 3366 4563 
z
" transform="scale(0.015625)"/>
       </defs>
       <use xlink:href="#DejaVuSans-32"/>
       <use xlink:href="#DejaVuSans-30" x="63.623047"/>
       <use xlink:href="#DejaVuSans-32" x="127.246094"/>
       <use xlink:href="#DejaVuSans-33" x="190.869141"/>
       <use xlink:href="#DejaVuSans-2d" x="254.492188"/>
       <use xlink:href="#DejaVuSans-30" x="290.576172"/>
       <use xlink:href="#DejaVuSans-36" x="354.199219"/>
      </g>
     </g>
    </g>
    <g id="xtick_9">
     <g id="line2d_17">
      <path d="M 689.464547 567.74175 
L 689.464547 24.14175 
" clip-path="url(#p3148f593d6)" style="fill: none; stroke: #ffffff; stroke-width: 0.8; stroke-linecap: square"/>
     </g>
     <g id="line2d_18">
      <g>
       <use xlink:href="#m0ab5120f91" x="689.464547" y="567.74175" style="fill: #555555; stroke: #555555; stroke-width: 0.8"/>
      </g>
     </g>
     <g id="text_9">
      <!-- 2023-07 -->
      <g style="fill: #555555" transform="translate(676.643265 609.659567)rotate(-45)scale(0.1 -0.1)">
       <defs>
        <path id="DejaVuSans-37" d="M 525 4666 
L 3525 4666 
L 3525 4397 
L 1831 0 
L 1172 0 
L 2766 4134 
L 525 4134 
L 525 4666 
z
" transform="scale(0.015625)"/>
       </defs>
       <use xlink:href="#DejaVuSans-32"/>
       <use xlink:href="#DejaVuSans-30" x="63.623047"/>
       <use xlink:href="#DejaVuSans-32" x="127.246094"/>
       <use xlink:href="#DejaVuSans-33" x="190.869141"/>
       <use xlink:href="#DejaVuSans-2d" x="254.492188"/>
       <use xlink:href="#DejaVuSans-30" x="290.576172"/>
       <use xlink:href="#DejaVuSans-37" x="354.199219"/>
      </g>
     </g>
    </g>
    <g id="xtick_10">
     <g id="line2d_19">
      <path d="M 767.862766 567.74175 
L 767.862766 24.14175 
" clip-path="url(#p3148f593d6)" style="fill: none; stroke: #ffffff; stroke-width: 0.8; stroke-linecap: square"/>
     </g>
     <g id="line2d_20">
      <g>
       <use xlink:href="#m0ab5120f91" x="767.862766" y="567.74175" style="fill: #555555; stroke: #555555; stroke-width: 0.8"/>
      </g>
     </g>
     <g id="text_10">
      <!-- 2023-08 -->
      <g style="fill: #555555" transform="translate(755.041484 609.659567)rotate(-45)scale(0.1 -0.1)">
       <defs>
        <path id="DejaVuSans-38" d="M 2034 2216 
Q 1584 2216 1326 1975 
Q 1069 1734 1069 1313 
Q 1069 891 1326 650 
Q 1584 409 2034 409 
Q 2484 409 2743 651 
Q 3003 894 3003 1313 
Q 3003 1734 2745 1975 
Q 2488 2216 2034 2216 
z
M 1403 2484 
Q 997 2584 770 2862 
Q 544 3141 544 3541 
Q 544 4100 942 4425 
Q 1341 4750 2034 4750 
Q 2731 4750 3128 4425 
Q 3525 4100 3525 3541 
Q 3525 3141 3298 2862 
Q 3072 2584 2669 2484 
Q 3125 2378 3379 2068 
Q 3634 1759 3634 1313 
Q 3634 634 3220 271 
Q 2806 -91 2034 -91 
Q 1263 -91 848 271 
Q 434 634 434 1313 
Q 434 1759 690 2068 
Q 947 2378 1403 2484 
z
M 1172 3481 
Q 1172 3119 1398 2916 
Q 1625 2713 2034 2713 
Q 2441 2713 2670 2916 
Q 2900 3119 2900 3481 
Q 2900 3844 2670 4047 
Q 2441 4250 2034 4250 
Q 1625 4250 1398 4047 
Q 1172 3844 1172 3481 
z
" transform="scale(0.015625)"/>
       </defs>
       <use xlink:href="#DejaVuSans-32"/>
       <use xlink:href="#DejaVuSans-30" x="63.623047"/>
       <use xlink:href="#DejaVuSans-32" x="127.246094"/>
       <use xlink:href="#DejaVuSans-33" x="190.869141"/>
       <use xlink:href="#DejaVuSans-2d" x="254.492188"/>
       <use xlink:href="#DejaVuSans-30" x="290.576172"/>
       <use xlink:href="#DejaVuSans-38" x="354.199219"/>
      </g>
     </g>
    </g>
    <g id="xtick_11">
     <g id="line2d_21">
      <path d="M 846.260984 567.74175 
L 846.260984 24.14175 
" clip-path="url(#p3148f593d6)" style="fill: none; stroke: #ffffff; stroke-width: 0.8; stroke-linecap: square"/>
     </g>
     <g id="line2d_22">
      <g>
       <use xlink:href="#m0ab5120f91" x="846.260984" y="567.74175" style="fill: #555555; stroke: #555555; stroke-width: 0.8"/>
      </g>
     </g>
     <g id="text_11">
      <!-- 2023-09 -->
      <g style="fill: #555555" transform="translate(833.439702 609.659567)rotate(-45)scale(0.1 -0.1)">
       <defs>
        <path id="DejaVuSans-39" d="M 703 97 
L 703 672 
Q 941 559 1184 500 
Q 1428 441 1663 441 
Q 2288 441 2617 861 
Q 2947 1281 2994 2138 
Q 2813 1869 2534 1725 
Q 2256 1581 1919 1581 
Q 1219 1581 811 2004 
Q 403 2428 403 3163 
Q 403 3881 828 4315 
Q 1253 4750 1959 4750 
Q 2769 4750 3195 4129 
Q 3622 3509 3622 2328 
Q 3622 1225 3098 567 
Q 2575 -91 1691 -91 
Q 1453 -91 1209 -44 
Q 966 3 703 97 
z
M 1959 2075 
Q 2384 2075 2632 2365 
Q 2881 2656 2881 3163 
Q 2881 3666 2632 3958 
Q 2384 4250 1959 4250 
Q 1534 4250 1286 3958 
Q 1038 3666 1038 3163 
Q 1038 2656 1286 2365 
Q 1534 2075 1959 2075 
z
" transform="scale(0.015625)"/>
       </defs>
       <use xlink:href="#DejaVuSans-32"/>
       <use xlink:href="#DejaVuSans-30" x="63.623047"/>
       <use xlink:href="#DejaVuSans-32" x="127.246094"/>
       <use xlink:href="#DejaVuSans-33" x="190.869141"/>
       <use xlink:href="#DejaVuSans-2d" x="254.492188"/>
       <use xlink:href="#DejaVuSans-30" x="290.576172"/>
       <use xlink:href="#DejaVuSans-39" x="354.199219"/>
      </g>
     </g>
    </g>
    <g id="xtick_12">
     <g id="line2d_23">
      <path d="M 922.130228 567.74175 
L 922.130228 24.14175 
" clip-path="url(#p3148f593d6)" style="fill: none; stroke: #ffffff; stroke-width: 0.8; stroke-linecap: square"/>
     </g>
     <g id="line2d_24">
      <g>
       <use xlink:href="#m0ab5120f91" x="922.130228" y="567.74175" style="fill: #555555; stroke: #555555; stroke-width: 0.8"/>
      </g>
     </g>
     <g id="text_12">
      <!-- 2023-10 -->
      <g style="fill: #555555" transform="translate(909.308946 609.659567)rotate(-45)scale(0.1 -0.1)">
       <use xlink:href="#DejaVuSans-32"/>
       <use xlink:href="#DejaVuSans-30" x="63.623047"/>
       <use xlink:href="#DejaVuSans-32" x="127.246094"/>
       <use xlink:href="#DejaVuSans-33" x="190.869141"/>
       <use xlink:href="#DejaVuSans-2d" x="254.492188"/>
       <use xlink:href="#DejaVuSans-31" x="290.576172"/>
       <use xlink:href="#DejaVuSans-30" x="354.199219"/>
      </g>
     </g>
    </g>
    <g id="text_13">
     <!-- Date -->
     <g style="fill: #555555" transform="translate(491.772938 624.248253)scale(0.12 -0.12)">
      <defs>
       <path id="DejaVuSans-44" d="M 1259 4147 
L 1259 519 
L 2022 519 
Q 2988 519 3436 956 
Q 3884 1394 3884 2338 
Q 3884 3275 3436 3711 
Q 2988 4147 2022 4147 
L 1259 4147 
z
M 628 4666 
L 1925 4666 
Q 3281 4666 3915 4102 
Q 4550 3538 4550 2338 
Q 4550 1131 3912 565 
Q 3275 0 1925 0 
L 628 0 
L 628 4666 
z
" transform="scale(0.015625)"/>
       <path id="DejaVuSans-61" d="M 2194 1759 
Q 1497 1759 1228 1600 
Q 959 1441 959 1056 
Q 959 750 1161 570 
Q 1363 391 1709 391 
Q 2188 391 2477 730 
Q 2766 1069 2766 1631 
L 2766 1759 
L 2194 1759 
z
M 3341 1997 
L 3341 0 
L 2766 0 
L 2766 531 
Q 2569 213 2275 61 
Q 1981 -91 1556 -91 
Q 1019 -91 701 211 
Q 384 513 384 1019 
Q 384 1609 779 1909 
Q 1175 2209 1959 2209 
L 2766 2209 
L 2766 2266 
Q 2766 2663 2505 2880 
Q 2244 3097 1772 3097 
Q 1472 3097 1187 3025 
Q 903 2953 641 2809 
L 641 3341 
Q 956 3463 1253 3523 
Q 1550 3584 1831 3584 
Q 2591 3584 2966 3190 
Q 3341 2797 3341 1997 
z
" transform="scale(0.015625)"/>
       <path id="DejaVuSans-74" d="M 1172 4494 
L 1172 3500 
L 2356 3500 
L 2356 3053 
L 1172 3053 
L 1172 1153 
Q 1172 725 1289 603 
Q 1406 481 1766 481 
L 2356 481 
L 2356 0 
L 1766 0 
Q 1100 0 847 248 
Q 594 497 594 1153 
L 594 3053 
L 172 3053 
L 172 3500 
L 594 3500 
L 594 4494 
L 1172 4494 
z
" transform="scale(0.015625)"/>
       <path id="DejaVuSans-65" d="M 3597 1894 
L 3597 1613 
L 953 1613 
Q 991 1019 1311 708 
Q 1631 397 2203 397 
Q 2534 397 2845 478 
Q 3156 559 3463 722 
L 3463 178 
Q 3153 47 2828 -22 
Q 2503 -91 2169 -91 
Q 1331 -91 842 396 
Q 353 884 353 1716 
Q 353 2575 817 3079 
Q 1281 3584 2069 3584 
Q 2775 3584 3186 3129 
Q 3597 2675 3597 1894 
z
M 3022 2063 
Q 3016 2534 2758 2815 
Q 2500 3097 2075 3097 
Q 1594 3097 1305 2825 
Q 1016 2553 972 2059 
L 3022 2063 
z
" transform="scale(0.015625)"/>
      </defs>
      <use xlink:href="#DejaVuSans-44"/>
      <use xlink:href="#DejaVuSans-61" x="77.001953"/>
      <use xlink:href="#DejaVuSans-74" x="138.28125"/>
      <use xlink:href="#DejaVuSans-65" x="177.490234"/>
     </g>
    </g>
   </g>
   <g id="matplotlib.axis_2">
    <g id="ytick_1">
     <g id="line2d_25">
      <path d="M 54.691875 567.74175 
L 957.535875 567.74175 
" clip-path="url(#p3148f593d6)" style="fill: none; stroke: #ffffff; stroke-width: 0.8; stroke-linecap: square"/>
     </g>
     <g id="line2d_26">
      <defs>
       <path id="mc512ff2dcb" d="M 0 0 
L -3.5 0 
" style="stroke: #555555; stroke-width: 0.8"/>
      </defs>
      <g>
       <use xlink:href="#mc512ff2dcb" x="54.691875" y="567.74175" style="fill: #555555; stroke: #555555; stroke-width: 0.8"/>
      </g>
     </g>
     <g id="text_14">
      <!-- 0k -->
      <g style="fill: #555555" transform="translate(35.53875 571.540969)scale(0.1 -0.1)">
       <defs>
        <path id="DejaVuSans-6b" d="M 581 4863 
L 1159 4863 
L 1159 1991 
L 2875 3500 
L 3609 3500 
L 1753 1863 
L 3688 0 
L 2938 0 
L 1159 1709 
L 1159 0 
L 581 0 
L 581 4863 
z
" transform="scale(0.015625)"/>
       </defs>
       <use xlink:href="#DejaVuSans-30"/>
       <use xlink:href="#DejaVuSans-6b" x="63.623047"/>
      </g>
     </g>
    </g>
    <g id="ytick_2">
     <g id="line2d_27">
      <path d="M 54.691875 499.47633 
L 957.535875 499.47633 
" clip-path="url(#p3148f593d6)" style="fill: none; stroke: #ffffff; stroke-width: 0.8; stroke-linecap: square"/>
     </g>
     <g id="line2d_28">
      <g>
       <use xlink:href="#mc512ff2dcb" x="54.691875" y="499.47633" style="fill: #555555; stroke: #555555; stroke-width: 0.8"/>
      </g>
     </g>
     <g id="text_15">
      <!-- 25k -->
      <g style="fill: #555555" transform="translate(29.17625 503.275548)scale(0.1 -0.1)">
       <use xlink:href="#DejaVuSans-32"/>
       <use xlink:href="#DejaVuSans-35" x="63.623047"/>
       <use xlink:href="#DejaVuSans-6b" x="127.246094"/>
      </g>
     </g>
    </g>
    <g id="ytick_3">
     <g id="line2d_29">
      <path d="M 54.691875 431.210909 
L 957.535875 431.210909 
" clip-path="url(#p3148f593d6)" style="fill: none; stroke: #ffffff; stroke-width: 0.8; stroke-linecap: square"/>
     </g>
     <g id="line2d_30">
      <g>
       <use xlink:href="#mc512ff2dcb" x="54.691875" y="431.210909" style="fill: #555555; stroke: #555555; stroke-width: 0.8"/>
      </g>
     </g>
     <g id="text_16">
      <!-- 50k -->
      <g style="fill: #555555" transform="translate(29.17625 435.010128)scale(0.1 -0.1)">
       <use xlink:href="#DejaVuSans-35"/>
       <use xlink:href="#DejaVuSans-30" x="63.623047"/>
       <use xlink:href="#DejaVuSans-6b" x="127.246094"/>
      </g>
     </g>
    </g>
    <g id="ytick_4">
     <g id="line2d_31">
      <path d="M 54.691875 362.945489 
L 957.535875 362.945489 
" clip-path="url(#p3148f593d6)" style="fill: none; stroke: #ffffff; stroke-width: 0.8; stroke-linecap: square"/>
     </g>
     <g id="line2d_32">
      <g>
       <use xlink:href="#mc512ff2dcb" x="54.691875" y="362.945489" style="fill: #555555; stroke: #555555; stroke-width: 0.8"/>
      </g>
     </g>
     <g id="text_17">
      <!-- 75k -->
      <g style="fill: #555555" transform="translate(29.17625 366.744708)scale(0.1 -0.1)">
       <use xlink:href="#DejaVuSans-37"/>
       <use xlink:href="#DejaVuSans-35" x="63.623047"/>
       <use xlink:href="#DejaVuSans-6b" x="127.246094"/>
      </g>
     </g>
    </g>
    <g id="ytick_5">
     <g id="line2d_33">
      <path d="M 54.691875 294.680069 
L 957.535875 294.680069 
" clip-path="url(#p3148f593d6)" style="fill: none; stroke: #ffffff; stroke-width: 0.8; stroke-linecap: square"/>
     </g>
     <g id="line2d_34">
      <g>
       <use xlink:href="#mc512ff2dcb" x="54.691875" y="294.680069" style="fill: #555555; stroke: #555555; stroke-width: 0.8"/>
      </g>
     </g>
     <g id="text_18">
      <!-- 100k -->
      <g style="fill: #555555" transform="translate(22.81375 298.479287)scale(0.1 -0.1)">
       <use xlink:href="#DejaVuSans-31"/>
       <use xlink:href="#DejaVuSans-30" x="63.623047"/>
       <use xlink:href="#DejaVuSans-30" x="127.246094"/>
       <use xlink:href="#DejaVuSans-6b" x="190.869141"/>
      </g>
     </g>
    </g>
    <g id="ytick_6">
     <g id="line2d_35">
      <path d="M 54.691875 226.414648 
L 957.535875 226.414648 
" clip-path="url(#p3148f593d6)" style="fill: none; stroke: #ffffff; stroke-width: 0.8; stroke-linecap: square"/>
     </g>
     <g id="line2d_36">
      <g>
       <use xlink:href="#mc512ff2dcb" x="54.691875" y="226.414648" style="fill: #555555; stroke: #555555; stroke-width: 0.8"/>
      </g>
     </g>
     <g id="text_19">
      <!-- 125k -->
      <g style="fill: #555555" transform="translate(22.81375 230.213867)scale(0.1 -0.1)">
       <use xlink:href="#DejaVuSans-31"/>
       <use xlink:href="#DejaVuSans-32" x="63.623047"/>
       <use xlink:href="#DejaVuSans-35" x="127.246094"/>
       <use xlink:href="#DejaVuSans-6b" x="190.869141"/>
      </g>
     </g>
    </g>
    <g id="ytick_7">
     <g id="line2d_37">
      <path d="M 54.691875 158.149228 
L 957.535875 158.149228 
" clip-path="url(#p3148f593d6)" style="fill: none; stroke: #ffffff; stroke-width: 0.8; stroke-linecap: square"/>
     </g>
     <g id="line2d_38">
      <g>
       <use xlink:href="#mc512ff2dcb" x="54.691875" y="158.149228" style="fill: #555555; stroke: #555555; stroke-width: 0.8"/>
      </g>
     </g>
     <g id="text_20">
      <!-- 150k -->
      <g style="fill: #555555" transform="translate(22.81375 161.948447)scale(0.1 -0.1)">
       <use xlink:href="#DejaVuSans-31"/>
       <use xlink:href="#DejaVuSans-35" x="63.623047"/>
       <use xlink:href="#DejaVuSans-30" x="127.246094"/>
       <use xlink:href="#DejaVuSans-6b" x="190.869141"/>
      </g>
     </g>
    </g>
    <g id="ytick_8">
     <g id="line2d_39">
      <path d="M 54.691875 89.883807 
L 957.535875 89.883807 
" clip-path="url(#p3148f593d6)" style="fill: none; stroke: #ffffff; stroke-width: 0.8; stroke-linecap: square"/>
     </g>
     <g id="line2d_40">
      <g>
       <use xlink:href="#mc512ff2dcb" x="54.691875" y="89.883807" style="fill: #555555; stroke: #555555; stroke-width: 0.8"/>
      </g>
     </g>
     <g id="text_21">
      <!-- 175k -->
      <g style="fill: #555555" transform="translate(22.81375 93.683026)scale(0.1 -0.1)">
       <use xlink:href="#DejaVuSans-31"/>
       <use xlink:href="#DejaVuSans-37" x="63.623047"/>
       <use xlink:href="#DejaVuSans-35" x="127.246094"/>
       <use xlink:href="#DejaVuSans-6b" x="190.869141"/>
      </g>
     </g>
    </g>
    <g id="text_22">
     <!-- Instances -->
     <g style="fill: #555555" transform="translate(16.318125 324.588)rotate(-90)scale(0.12 -0.12)">
      <defs>
       <path id="DejaVuSans-49" d="M 628 4666 
L 1259 4666 
L 1259 0 
L 628 0 
L 628 4666 
z
" transform="scale(0.015625)"/>
       <path id="DejaVuSans-6e" d="M 3513 2113 
L 3513 0 
L 2938 0 
L 2938 2094 
Q 2938 2591 2744 2837 
Q 2550 3084 2163 3084 
Q 1697 3084 1428 2787 
Q 1159 2491 1159 1978 
L 1159 0 
L 581 0 
L 581 3500 
L 1159 3500 
L 1159 2956 
Q 1366 3272 1645 3428 
Q 1925 3584 2291 3584 
Q 2894 3584 3203 3211 
Q 3513 2838 3513 2113 
z
" transform="scale(0.015625)"/>
       <path id="DejaVuSans-73" d="M 2834 3397 
L 2834 2853 
Q 2591 2978 2328 3040 
Q 2066 3103 1784 3103 
Q 1356 3103 1142 2972 
Q 928 2841 928 2578 
Q 928 2378 1081 2264 
Q 1234 2150 1697 2047 
L 1894 2003 
Q 2506 1872 2764 1633 
Q 3022 1394 3022 966 
Q 3022 478 2636 193 
Q 2250 -91 1575 -91 
Q 1294 -91 989 -36 
Q 684 19 347 128 
L 347 722 
Q 666 556 975 473 
Q 1284 391 1588 391 
Q 1994 391 2212 530 
Q 2431 669 2431 922 
Q 2431 1156 2273 1281 
Q 2116 1406 1581 1522 
L 1381 1569 
Q 847 1681 609 1914 
Q 372 2147 372 2553 
Q 372 3047 722 3315 
Q 1072 3584 1716 3584 
Q 2034 3584 2315 3537 
Q 2597 3491 2834 3397 
z
" transform="scale(0.015625)"/>
       <path id="DejaVuSans-63" d="M 3122 3366 
L 3122 2828 
Q 2878 2963 2633 3030 
Q 2388 3097 2138 3097 
Q 1578 3097 1268 2742 
Q 959 2388 959 1747 
Q 959 1106 1268 751 
Q 1578 397 2138 397 
Q 2388 397 2633 464 
Q 2878 531 3122 666 
L 3122 134 
Q 2881 22 2623 -34 
Q 2366 -91 2075 -91 
Q 1284 -91 818 406 
Q 353 903 353 1747 
Q 353 2603 823 3093 
Q 1294 3584 2113 3584 
Q 2378 3584 2631 3529 
Q 2884 3475 3122 3366 
z
" transform="scale(0.015625)"/>
      </defs>
      <use xlink:href="#DejaVuSans-49"/>
      <use xlink:href="#DejaVuSans-6e" x="29.492188"/>
      <use xlink:href="#DejaVuSans-73" x="92.871094"/>
      <use xlink:href="#DejaVuSans-74" x="144.970703"/>
      <use xlink:href="#DejaVuSans-61" x="184.179688"/>
      <use xlink:href="#DejaVuSans-6e" x="245.458984"/>
      <use xlink:href="#DejaVuSans-63" x="308.837891"/>
      <use xlink:href="#DejaVuSans-65" x="363.818359"/>
      <use xlink:href="#DejaVuSans-73" x="425.341797"/>
     </g>
    </g>
   </g>
   <g id="line2d_41">
    <path d="M 54.691875 490.579426 
L 63.811511 489.260864 
L 72.931148 487.942301 
L 82.050784 486.623739 
L 91.17042 485.305176 
L 100.290057 483.986614 
L 109.409693 482.668051 
L 118.52933 481.349489 
L 127.648966 480.030927 
L 136.768602 478.712364 
L 145.888239 477.393802 
L 155.007875 476.075239 
L 164.127511 474.756677 
L 173.247148 473.438114 
L 182.366784 472.119552 
L 191.48642 470.800989 
L 200.606057 469.482427 
L 209.725693 468.163864 
L 218.84533 466.845302 
L 227.964966 465.52674 
L 237.084602 464.208177 
L 246.204239 462.889615 
L 255.323875 461.571052 
L 264.443511 460.25249 
L 273.563148 458.933927 
L 282.682784 457.615365 
L 291.80242 456.296802 
L 300.922057 454.97824 
L 310.041693 453.659677 
L 319.16133 452.341115 
L 328.280966 451.022553 
L 337.400602 449.70399 
L 346.520239 448.385428 
L 355.639875 447.066865 
L 364.759511 445.748303 
L 373.879148 444.42974 
L 382.998784 443.111178 
L 392.11842 441.792615 
L 401.238057 440.474053 
L 410.357693 439.15549 
L 419.47733 437.836928 
L 428.596966 436.518366 
L 437.716602 435.199803 
L 446.836239 433.881241 
L 455.955875 432.562678 
L 465.075511 431.244116 
L 474.195148 429.925553 
L 483.314784 428.606991 
L 492.43442 427.288428 
L 501.554057 425.969866 
L 510.673693 424.651304 
L 519.79333 423.332741 
L 528.912966 422.014179 
L 538.032602 420.695616 
L 547.152239 419.377054 
L 556.271875 418.058491 
L 565.391511 416.739929 
L 574.511148 415.421366 
L 583.630784 414.102804 
L 592.75042 412.784241 
L 601.870057 411.465679 
L 610.989693 410.147117 
L 620.10933 408.828554 
L 629.228966 407.509992 
L 638.348602 406.191429 
L 647.468239 404.872867 
L 656.587875 403.554304 
L 665.707511 402.235742 
L 674.827148 400.917179 
L 683.946784 399.598617 
L 693.06642 398.280054 
L 702.186057 396.961492 
L 711.305693 395.64293 
L 720.42533 394.324367 
L 729.544966 393.005805 
L 738.664602 391.687242 
L 747.784239 390.36868 
L 756.903875 389.050117 
L 766.023511 387.731555 
L 775.143148 386.412992 
L 784.262784 385.09443 
L 793.38242 383.775867 
L 802.502057 382.457305 
L 811.621693 381.138743 
L 820.74133 379.82018 
L 829.860966 378.501618 
L 838.980602 377.183055 
L 848.100239 375.864493 
L 857.219875 374.54593 
L 866.339511 373.227368 
L 875.459148 371.908805 
L 884.578784 370.590243 
L 893.69842 369.27168 
L 902.818057 367.953118 
L 911.937693 366.634556 
L 921.05733 365.315993 
L 930.176966 363.997431 
L 939.296602 362.678868 
L 948.416239 361.360306 
L 957.535875 360.041743 
" clip-path="url(#p3148f593d6)" style="fill: none; stroke-dasharray: 1.5,2.475; stroke-dashoffset: 0; stroke: #4ac1fa; stroke-width: 1.5"/>
   </g>
   <g id="line2d_42">
    <path d="M 54.691875 349.572813 
L 63.811511 350.028728 
L 72.931148 350.484643 
L 82.050784 350.940558 
L 91.17042 351.396473 
L 100.290057 351.852388 
L 109.409693 352.308303 
L 118.52933 352.764218 
L 127.648966 353.220133 
L 136.768602 353.676048 
L 145.888239 354.131963 
L 155.007875 354.587878 
L 164.127511 355.043793 
L 173.247148 355.499707 
L 182.366784 355.955622 
L 191.48642 356.411537 
L 200.606057 356.867452 
L 209.725693 357.323367 
L 218.84533 357.779282 
L 227.964966 358.235197 
L 237.084602 358.691112 
L 246.204239 359.147027 
L 255.323875 359.602942 
L 264.443511 360.058857 
L 273.563148 360.514772 
L 282.682784 360.970687 
L 291.80242 361.426602 
L 300.922057 361.882517 
L 310.041693 362.338432 
L 319.16133 362.794347 
L 328.280966 363.250262 
L 337.400602 363.706176 
L 346.520239 364.162091 
L 355.639875 364.618006 
L 364.759511 365.073921 
L 373.879148 365.529836 
L 382.998784 365.985751 
L 392.11842 366.441666 
L 401.238057 366.897581 
L 410.357693 367.353496 
L 419.47733 367.809411 
L 428.596966 368.265326 
L 437.716602 368.721241 
L 446.836239 369.177156 
L 455.955875 369.633071 
L 465.075511 370.088986 
L 474.195148 370.544901 
L 483.314784 371.000816 
L 492.43442 371.456731 
L 501.554057 371.912645 
L 510.673693 372.36856 
L 519.79333 372.824475 
L 528.912966 373.28039 
L 538.032602 373.736305 
L 547.152239 374.19222 
L 556.271875 374.648135 
L 565.391511 375.10405 
L 574.511148 375.559965 
L 583.630784 376.01588 
L 592.75042 376.471795 
L 601.870057 376.92771 
L 610.989693 377.383625 
L 620.10933 377.83954 
L 629.228966 378.295455 
L 638.348602 378.75137 
L 647.468239 379.207285 
L 656.587875 379.663199 
L 665.707511 380.119114 
L 674.827148 380.575029 
L 683.946784 381.030944 
L 693.06642 381.486859 
L 702.186057 381.942774 
L 711.305693 382.398689 
L 720.42533 382.854604 
L 729.544966 383.310519 
L 738.664602 383.766434 
L 747.784239 384.222349 
L 756.903875 384.678264 
L 766.023511 385.134179 
L 775.143148 385.590094 
L 784.262784 386.046009 
L 793.38242 386.501924 
L 802.502057 386.957839 
L 811.621693 387.413754 
L 820.74133 387.869668 
L 829.860966 388.325583 
L 838.980602 388.781498 
L 848.100239 389.237413 
L 857.219875 389.693328 
L 866.339511 390.149243 
L 875.459148 390.605158 
L 884.578784 391.061073 
L 893.69842 391.516988 
L 902.818057 391.972903 
L 911.937693 392.428818 
L 921.05733 392.884733 
L 930.176966 393.340648 
L 939.296602 393.796563 
L 948.416239 394.252478 
L 957.535875 394.708393 
" clip-path="url(#p3148f593d6)" style="fill: none; stroke-dasharray: 1.5,2.475; stroke-dashoffset: 0; stroke: #e9a942; stroke-width: 1.5"/>
   </g>
   <g id="line2d_43">
    <path d="M 54.691875 426.068189 
L 63.811511 425.774972 
L 72.931148 425.481754 
L 82.050784 425.188537 
L 91.17042 424.895319 
L 100.290057 424.602102 
L 109.409693 424.308885 
L 118.52933 424.015667 
L 127.648966 423.72245 
L 136.768602 423.429232 
L 145.888239 423.136015 
L 155.007875 422.842797 
L 164.127511 422.54958 
L 173.247148 422.256363 
L 182.366784 421.963145 
L 191.48642 421.669928 
L 200.606057 421.37671 
L 209.725693 421.083493 
L 218.84533 420.790275 
L 227.964966 420.497058 
L 237.084602 420.203841 
L 246.204239 419.910623 
L 255.323875 419.617406 
L 264.443511 419.324188 
L 273.563148 419.030971 
L 282.682784 418.737753 
L 291.80242 418.444536 
L 300.922057 418.151319 
L 310.041693 417.858101 
L 319.16133 417.564884 
L 328.280966 417.271666 
L 337.400602 416.978449 
L 346.520239 416.685231 
L 355.639875 416.392014 
L 364.759511 416.098797 
L 373.879148 415.805579 
L 382.998784 415.512362 
L 392.11842 415.219144 
L 401.238057 414.925927 
L 410.357693 414.632709 
L 419.47733 414.339492 
L 428.596966 414.046275 
L 437.716602 413.753057 
L 446.836239 413.45984 
L 455.955875 413.166622 
L 465.075511 412.873405 
L 474.195148 412.580187 
L 483.314784 412.28697 
L 492.43442 411.993753 
L 501.554057 411.700535 
L 510.673693 411.407318 
L 519.79333 411.1141 
L 528.912966 410.820883 
L 538.032602 410.527665 
L 547.152239 410.234448 
L 556.271875 409.941231 
L 565.391511 409.648013 
L 574.511148 409.354796 
L 583.630784 409.061578 
L 592.75042 408.768361 
L 601.870057 408.475143 
L 610.989693 408.181926 
L 620.10933 407.888709 
L 629.228966 407.595491 
L 638.348602 407.302274 
L 647.468239 407.009056 
L 656.587875 406.715839 
L 665.707511 406.422621 
L 674.827148 406.129404 
L 683.946784 405.836187 
L 693.06642 405.542969 
L 702.186057 405.249752 
L 711.305693 404.956534 
L 720.42533 404.663317 
L 729.544966 404.370099 
L 738.664602 404.076882 
L 747.784239 403.783665 
L 756.903875 403.490447 
L 766.023511 403.19723 
L 775.143148 402.904012 
L 784.262784 402.610795 
L 793.38242 402.317577 
L 802.502057 402.02436 
L 811.621693 401.731143 
L 820.74133 401.437925 
L 829.860966 401.144708 
L 838.980602 400.85149 
L 848.100239 400.558273 
L 857.219875 400.265055 
L 866.339511 399.971838 
L 875.459148 399.678621 
L 884.578784 399.385403 
L 893.69842 399.092186 
L 902.818057 398.798968 
L 911.937693 398.505751 
L 921.05733 398.212533 
L 930.176966 397.919316 
L 939.296602 397.626099 
L 948.416239 397.332881 
L 957.535875 397.039664 
" clip-path="url(#p3148f593d6)" style="fill: none; stroke-dasharray: 1.5,2.475; stroke-dashoffset: 0; stroke: #9a5689; stroke-width: 1.5"/>
   </g>
   <g id="line2d_44">
    <path d="M 54.691875 516.724176 
L 63.811511 516.218858 
L 72.931148 515.713539 
L 82.050784 515.208221 
L 91.17042 514.702903 
L 100.290057 514.197585 
L 109.409693 513.692267 
L 118.52933 513.186949 
L 127.648966 512.68163 
L 136.768602 512.176312 
L 145.888239 511.670994 
L 155.007875 511.165676 
L 164.127511 510.660358 
L 173.247148 510.15504 
L 182.366784 509.649722 
L 191.48642 509.144403 
L 200.606057 508.639085 
L 209.725693 508.133767 
L 218.84533 507.628449 
L 227.964966 507.123131 
L 237.084602 506.617813 
L 246.204239 506.112494 
L 255.323875 505.607176 
L 264.443511 505.101858 
L 273.563148 504.59654 
L 282.682784 504.091222 
L 291.80242 503.585904 
L 300.922057 503.080586 
L 310.041693 502.575267 
L 319.16133 502.069949 
L 328.280966 501.564631 
L 337.400602 501.059313 
L 346.520239 500.553995 
L 355.639875 500.048677 
L 364.759511 499.543358 
L 373.879148 499.03804 
L 382.998784 498.532722 
L 392.11842 498.027404 
L 401.238057 497.522086 
L 410.357693 497.016768 
L 419.47733 496.51145 
L 428.596966 496.006131 
L 437.716602 495.500813 
L 446.836239 494.995495 
L 455.955875 494.490177 
L 465.075511 493.984859 
L 474.195148 493.479541 
L 483.314784 492.974222 
L 492.43442 492.468904 
L 501.554057 491.963586 
L 510.673693 491.458268 
L 519.79333 490.95295 
L 528.912966 490.447632 
L 538.032602 489.942314 
L 547.152239 489.436995 
L 556.271875 488.931677 
L 565.391511 488.426359 
L 574.511148 487.921041 
L 583.630784 487.415723 
L 592.75042 486.910405 
L 601.870057 486.405086 
L 610.989693 485.899768 
L 620.10933 485.39445 
L 629.228966 484.889132 
L 638.348602 484.383814 
L 647.468239 483.878496 
L 656.587875 483.373178 
L 665.707511 482.867859 
L 674.827148 482.362541 
L 683.946784 481.857223 
L 693.06642 481.351905 
L 702.186057 480.846587 
L 711.305693 480.341269 
L 720.42533 479.83595 
L 729.544966 479.330632 
L 738.664602 478.825314 
L 747.784239 478.319996 
L 756.903875 477.814678 
L 766.023511 477.30936 
L 775.143148 476.804042 
L 784.262784 476.298723 
L 793.38242 475.793405 
L 802.502057 475.288087 
L 811.621693 474.782769 
L 820.74133 474.277451 
L 829.860966 473.772133 
L 838.980602 473.266814 
L 848.100239 472.761496 
L 857.219875 472.256178 
L 866.339511 471.75086 
L 875.459148 471.245542 
L 884.578784 470.740224 
L 893.69842 470.234906 
L 902.818057 469.729587 
L 911.937693 469.224269 
L 921.05733 468.718951 
L 930.176966 468.213633 
L 939.296602 467.708315 
L 948.416239 467.202997 
L 957.535875 466.697678 
" clip-path="url(#p3148f593d6)" style="fill: none; stroke-dasharray: 1.5,2.475; stroke-dashoffset: 0; stroke: #be503b; stroke-width: 1.5"/>
   </g>
   <g id="line2d_45">
    <path d="M 54.691875 407.053566 
L 63.811511 405.984374 
L 72.931148 404.915182 
L 82.050784 403.845991 
L 91.17042 402.776799 
L 100.290057 401.707607 
L 109.409693 400.638415 
L 118.52933 399.569224 
L 127.648966 398.500032 
L 136.768602 397.43084 
L 145.888239 396.361648 
L 155.007875 395.292457 
L 164.127511 394.223265 
L 173.247148 393.154073 
L 182.366784 392.084881 
L 191.48642 391.015689 
L 200.606057 389.946498 
L 209.725693 388.877306 
L 218.84533 387.808114 
L 227.964966 386.738922 
L 237.084602 385.669731 
L 246.204239 384.600539 
L 255.323875 383.531347 
L 264.443511 382.462155 
L 273.563148 381.392964 
L 282.682784 380.323772 
L 291.80242 379.25458 
L 300.922057 378.185388 
L 310.041693 377.116197 
L 319.16133 376.047005 
L 328.280966 374.977813 
L 337.400602 373.908621 
L 346.520239 372.83943 
L 355.639875 371.770238 
L 364.759511 370.701046 
L 373.879148 369.631854 
L 382.998784 368.562662 
L 392.11842 367.493471 
L 401.238057 366.424279 
L 410.357693 365.355087 
L 419.47733 364.285895 
L 428.596966 363.216704 
L 437.716602 362.147512 
L 446.836239 361.07832 
L 455.955875 360.009128 
L 465.075511 358.939937 
L 474.195148 357.870745 
L 483.314784 356.801553 
L 492.43442 355.732361 
L 501.554057 354.66317 
L 510.673693 353.593978 
L 519.79333 352.524786 
L 528.912966 351.455594 
L 538.032602 350.386403 
L 547.152239 349.317211 
L 556.271875 348.248019 
L 565.391511 347.178827 
L 574.511148 346.109635 
L 583.630784 345.040444 
L 592.75042 343.971252 
L 601.870057 342.90206 
L 610.989693 341.832868 
L 620.10933 340.763677 
L 629.228966 339.694485 
L 638.348602 338.625293 
L 647.468239 337.556101 
L 656.587875 336.48691 
L 665.707511 335.417718 
L 674.827148 334.348526 
L 683.946784 333.279334 
L 693.06642 332.210143 
L 702.186057 331.140951 
L 711.305693 330.071759 
L 720.42533 329.002567 
L 729.544966 327.933376 
L 738.664602 326.864184 
L 747.784239 325.794992 
L 756.903875 324.7258 
L 766.023511 323.656609 
L 775.143148 322.587417 
L 784.262784 321.518225 
L 793.38242 320.449033 
L 802.502057 319.379841 
L 811.621693 318.31065 
L 820.74133 317.241458 
L 829.860966 316.172266 
L 838.980602 315.103074 
L 848.100239 314.033883 
L 857.219875 312.964691 
L 866.339511 311.895499 
L 875.459148 310.826307 
L 884.578784 309.757116 
L 893.69842 308.687924 
L 902.818057 307.618732 
L 911.937693 306.54954 
L 921.05733 305.480349 
L 930.176966 304.411157 
L 939.296602 303.341965 
L 948.416239 302.272773 
L 957.535875 301.203582 
" clip-path="url(#p3148f593d6)" style="fill: none; stroke-dasharray: 1.5,2.475; stroke-dashoffset: 0; stroke: #e2321d; stroke-width: 1.5"/>
   </g>
   <g id="line2d_46">
    <path d="M 54.691875 281.955793 
L 63.811511 280.98449 
L 72.931148 280.013186 
L 82.050784 279.041883 
L 91.17042 278.07058 
L 100.290057 277.099277 
L 109.409693 276.127973 
L 118.52933 275.15667 
L 127.648966 274.185367 
L 136.768602 273.214063 
L 145.888239 272.24276 
L 155.007875 271.271457 
L 164.127511 270.300153 
L 173.247148 269.32885 
L 182.366784 268.357547 
L 191.48642 267.386243 
L 200.606057 266.41494 
L 209.725693 265.443637 
L 218.84533 264.472334 
L 227.964966 263.50103 
L 237.084602 262.529727 
L 246.204239 261.558424 
L 255.323875 260.58712 
L 264.443511 259.615817 
L 273.563148 258.644514 
L 282.682784 257.67321 
L 291.80242 256.701907 
L 300.922057 255.730604 
L 310.041693 254.7593 
L 319.16133 253.787997 
L 328.280966 252.816694 
L 337.400602 251.845391 
L 346.520239 250.874087 
L 355.639875 249.902784 
L 364.759511 248.931481 
L 373.879148 247.960177 
L 382.998784 246.988874 
L 392.11842 246.017571 
L 401.238057 245.046267 
L 410.357693 244.074964 
L 419.47733 243.103661 
L 428.596966 242.132358 
L 437.716602 241.161054 
L 446.836239 240.189751 
L 455.955875 239.218448 
L 465.075511 238.247144 
L 474.195148 237.275841 
L 483.314784 236.304538 
L 492.43442 235.333234 
L 501.554057 234.361931 
L 510.673693 233.390628 
L 519.79333 232.419324 
L 528.912966 231.448021 
L 538.032602 230.476718 
L 547.152239 229.505415 
L 556.271875 228.534111 
L 565.391511 227.562808 
L 574.511148 226.591505 
L 583.630784 225.620201 
L 592.75042 224.648898 
L 601.870057 223.677595 
L 610.989693 222.706291 
L 620.10933 221.734988 
L 629.228966 220.763685 
L 638.348602 219.792381 
L 647.468239 218.821078 
L 656.587875 217.849775 
L 665.707511 216.878472 
L 674.827148 215.907168 
L 683.946784 214.935865 
L 693.06642 213.964562 
L 702.186057 212.993258 
L 711.305693 212.021955 
L 720.42533 211.050652 
L 729.544966 210.079348 
L 738.664602 209.108045 
L 747.784239 208.136742 
L 756.903875 207.165438 
L 766.023511 206.194135 
L 775.143148 205.222832 
L 784.262784 204.251529 
L 793.38242 203.280225 
L 802.502057 202.308922 
L 811.621693 201.337619 
L 820.74133 200.366315 
L 829.860966 199.395012 
L 838.980602 198.423709 
L 848.100239 197.452405 
L 857.219875 196.481102 
L 866.339511 195.509799 
L 875.459148 194.538495 
L 884.578784 193.567192 
L 893.69842 192.595889 
L 902.818057 191.624586 
L 911.937693 190.653282 
L 921.05733 189.681979 
L 930.176966 188.710676 
L 939.296602 187.739372 
L 948.416239 186.768069 
L 957.535875 185.796766 
" clip-path="url(#p3148f593d6)" style="fill: none; stroke-dasharray: 1.5,2.475; stroke-dashoffset: 0; stroke: #48b585; stroke-width: 1.5"/>
   </g>
   <g id="line2d_47">
    <path d="M 54.691875 463.282004 
L 72.394699 445.038753 
L 90.097522 453.593775 
L 107.800346 447.720219 
L 125.503169 444.664658 
L 143.205993 439.124237 
L 160.908816 443.495954 
L 178.61164 468.049661 
L 196.314463 469.19652 
L 214.017287 474.679598 
L 231.72011 494.700481 
L 249.422934 493.643732 
L 267.125757 475.015464 
L 284.828581 477.314644 
L 302.531404 472.077321 
L 320.234228 471.381013 
L 337.937051 470.441681 
L 355.639875 473.628311 
L 373.342699 466.616087 
L 391.045522 460.384819 
L 408.748346 466.176458 
L 426.451169 452.741823 
L 444.153993 462.004075 
L 461.856816 459.541059 
L 479.55964 460.622383 
L 497.262463 470.004782 
L 514.965287 457.979146 
L 532.66811 448.266342 
L 585.776581 455.742771 
L 603.479404 391.895488 
L 621.182228 341.578412 
L 638.885051 396.799676 
L 656.587875 372.300582 
L 674.290699 400.546082 
L 691.993522 368.556906 
L 709.696346 385.514037 
L 727.399169 378.66565 
L 745.101993 384.514631 
L 762.804816 372.273276 
L 780.50764 378.337976 
L 798.210463 380.489702 
L 815.913287 383.485189 
L 833.61611 346.187693 
L 851.318934 377.354954 
L 869.021757 358.396281 
L 886.724581 378.411703 
L 904.427404 367.934326 
L 922.130228 360.266754 
L 939.833051 367.773219 
L 957.535875 352.476304 
" clip-path="url(#p3148f593d6)" style="fill: none; stroke: #4ac1fa; stroke-width: 1.5; stroke-linecap: square"/>
   </g>
   <g id="line2d_48">
    <path d="M 54.691875 495.628891 
L 72.394699 489.678876 
L 90.097522 476.804018 
L 107.800346 490.929499 
L 125.503169 494.604909 
L 143.205993 461.599944 
L 160.908816 442.403708 
L 178.61164 344.44556 
L 196.314463 181.233862 
L 214.017287 193.305919 
L 231.72011 171.127849 
L 249.422934 348.858237 
L 267.125757 319.4768 
L 284.828581 331.354983 
L 302.531404 327.851602 
L 320.234228 313.23734 
L 337.937051 356.408392 
L 355.639875 353.12346 
L 373.342699 337.526177 
L 391.045522 357.224847 
L 408.748346 364.567475 
L 426.451169 396.122483 
L 444.153993 383.0046 
L 461.856816 407.525539 
L 479.55964 404.773077 
L 497.262463 424.654698 
L 514.965287 399.841583 
L 532.66811 371.260217 
L 585.776581 204.629787 
L 603.479404 186.837088 
L 621.182228 149.187343 
L 638.885051 187.164762 
L 656.587875 183.726915 
L 674.290699 272.94982 
L 691.993522 181.695337 
L 709.696346 329.828568 
L 727.399169 457.2883 
L 745.101993 459.94519 
L 762.804816 459.14785 
L 780.50764 454.156282 
L 798.210463 470.449873 
L 815.913287 458.014644 
L 833.61611 453.154146 
L 851.318934 462.435513 
L 869.021757 477.426599 
L 886.724581 469.813639 
L 904.427404 466.116384 
L 922.130228 465.261701 
L 939.833051 456.676642 
L 957.535875 457.239149 
" clip-path="url(#p3148f593d6)" style="fill: none; stroke: #e9a942; stroke-width: 1.5; stroke-linecap: square"/>
   </g>
   <g id="line2d_49">
    <path d="M 54.691875 422.786956 
L 72.394699 427.057641 
L 90.097522 426.574322 
L 107.800346 417.904614 
L 125.503169 436.928821 
L 143.205993 441.753821 
L 160.908816 452.345883 
L 178.61164 448.634975 
L 196.314463 424.075808 
L 214.017287 399.60402 
L 231.72011 445.710485 
L 249.422934 430.358957 
L 267.125757 414.133632 
L 284.828581 374.973856 
L 302.531404 406.853807 
L 320.234228 396.155251 
L 337.937051 415.512593 
L 355.639875 413.702194 
L 373.342699 410.818663 
L 391.045522 405.84894 
L 408.748346 427.966936 
L 426.451169 403.14836 
L 444.153993 379.760627 
L 461.856816 410.204274 
L 479.55964 425.19263 
L 497.262463 442.166144 
L 514.965287 392.987735 
L 532.66811 361.257968 
L 585.776581 416.823289 
L 603.479404 396.051487 
L 621.182228 374.070022 
L 638.885051 363.076558 
L 656.587875 422.997214 
L 674.290699 438.870289 
L 691.993522 428.622285 
L 709.696346 440.470431 
L 727.399169 427.074025 
L 745.101993 425.837055 
L 762.804816 428.059777 
L 780.50764 359.472144 
L 798.210463 403.658986 
L 815.913287 424.037579 
L 833.61611 404.486362 
L 851.318934 409.34686 
L 869.021757 409.333207 
L 886.724581 403.134707 
L 904.427404 387.389971 
L 922.130228 396.193479 
L 939.833051 390.79505 
L 957.535875 376.890749 
" clip-path="url(#p3148f593d6)" style="fill: none; stroke: #9a5689; stroke-width: 1.5; stroke-linecap: square"/>
   </g>
   <g id="line2d_50">
    <path d="M 54.691875 485.823246 
L 72.394699 495.869185 
L 90.097522 527.263086 
L 107.800346 525.073132 
L 125.503169 521.692628 
L 143.205993 521.547905 
L 160.908816 513.304173 
L 178.61164 510.827504 
L 196.314463 496.450806 
L 214.017287 520.99086 
L 231.72011 506.261912 
L 249.422934 502.922368 
L 267.125757 498.597071 
L 284.828581 491.445586 
L 302.531404 492.095472 
L 320.234228 474.988158 
L 337.937051 503.678749 
L 355.639875 478.860173 
L 373.342699 509.459465 
L 391.045522 504.962139 
L 408.748346 516.266892 
L 426.451169 511.725877 
L 444.153993 511.267133 
L 461.856816 501.82466 
L 479.55964 505.702136 
L 497.262463 513.255022 
L 514.965287 486.568704 
L 532.66811 483.193662 
L 585.776581 489.493195 
L 603.479404 497.649547 
L 621.182228 496.1559 
L 638.885051 478.947552 
L 656.587875 488.40914 
L 674.290699 500.481197 
L 691.993522 474.575835 
L 709.696346 477.806155 
L 727.399169 470.490832 
L 745.101993 460.622383 
L 762.804816 472.484182 
L 780.50764 465.91978 
L 798.210463 507.321392 
L 815.913287 473.104032 
L 833.61611 469.90648 
L 851.318934 483.392997 
L 869.021757 463.148204 
L 886.724581 471.375552 
L 904.427404 472.830971 
L 922.130228 438.897596 
L 939.833051 465.818747 
L 957.535875 460.682457 
" clip-path="url(#p3148f593d6)" style="fill: none; stroke: #be503b; stroke-width: 1.5; stroke-linecap: square"/>
   </g>
   <g id="line2d_51">
    <path d="M 54.691875 369.154912 
L 72.394699 380.314942 
L 90.097522 376.800639 
L 107.800346 376.205364 
L 125.503169 376.956284 
L 143.205993 386.4561 
L 160.908816 378.496352 
L 178.61164 399.620403 
L 196.314463 390.950695 
L 214.017287 404.713004 
L 231.72011 453.301599 
L 249.422934 434.733405 
L 267.125757 410.744936 
L 284.828581 386.065621 
L 302.531404 375.293338 
L 320.234228 370.738669 
L 337.937051 365.96282 
L 355.639875 361.006751 
L 373.342699 360.468819 
L 391.045522 358.415396 
L 408.748346 374.179246 
L 426.451169 365.20644 
L 444.153993 360.504317 
L 461.856816 358.349861 
L 479.55964 366.831157 
L 497.262463 385.410273 
L 514.965287 353.647739 
L 532.66811 353.448404 
L 585.776581 373.054232 
L 603.479404 338.435472 
L 621.182228 354.00818 
L 638.885051 347.41374 
L 656.587875 344.538401 
L 674.290699 369.436165 
L 691.993522 314.507077 
L 709.696346 355.15777 
L 727.399169 326.005705 
L 745.101993 307.057955 
L 762.804816 316.145447 
L 780.50764 312.289816 
L 798.210463 328.870122 
L 815.913287 328.722668 
L 833.61611 280.131342 
L 851.318934 277.646481 
L 869.021757 295.133351 
L 886.724581 312.022216 
L 904.427404 301.293622 
L 922.130228 296.848178 
L 939.833051 306.918693 
L 957.535875 299.267505 
" clip-path="url(#p3148f593d6)" style="fill: none; stroke: #e2321d; stroke-width: 1.5; stroke-linecap: square"/>
   </g>
   <g id="line2d_52">
    <path d="M 54.691875 182.975996 
L 72.394699 253.245689 
L 90.097522 297.331497 
L 107.800346 301.37281 
L 125.503169 226.551179 
L 143.205993 238.28737 
L 160.908816 216.800146 
L 178.61164 224.249269 
L 196.314463 199.070251 
L 214.017287 206.079745 
L 231.72011 219.047444 
L 249.422934 256.052763 
L 267.125757 229.961719 
L 284.828581 263.351702 
L 302.531404 295.540213 
L 320.234228 329.784878 
L 337.937051 272.365468 
L 355.639875 277.810318 
L 373.342699 295.887001 
L 391.045522 270.672485 
L 408.748346 331.554318 
L 426.451169 261.620491 
L 444.153993 198.48863 
L 461.856816 274.047528 
L 479.55964 287.970943 
L 497.262463 305.411393 
L 514.965287 226.832432 
L 532.66811 287.094415 
L 585.776581 267.322019 
L 603.479404 295.354531 
L 621.182228 248.906739 
L 638.885051 217.507376 
L 656.587875 228.683791 
L 674.290699 277.646481 
L 691.993522 265.517081 
L 709.696346 320.427054 
L 727.399169 249.780536 
L 745.101993 209.047925 
L 762.804816 194.234329 
L 780.50764 175.270195 
L 798.210463 206.696864 
L 815.913287 178.839111 
L 833.61611 199.646411 
L 851.318934 213.987611 
L 869.021757 127.978643 
L 886.724581 126.689791 
L 904.427404 48.099909 
L 922.130228 100.391221 
L 939.833051 140.285533 
L 957.535875 183.355552 
" clip-path="url(#p3148f593d6)" style="fill: none; stroke: #48b585; stroke-width: 6; stroke-linecap: square"/>
   </g>
   <g id="patch_3">
    <path d="M 54.691875 567.74175 
L 54.691875 24.14175 
" style="fill: none; stroke: #ffffff; stroke-linejoin: miter; stroke-linecap: square"/>
   </g>
   <g id="patch_4">
    <path d="M 957.535875 567.74175 
L 957.535875 24.14175 
" style="fill: none; stroke: #ffffff; stroke-linejoin: miter; stroke-linecap: square"/>
   </g>
   <g id="patch_5">
    <path d="M 54.691875 567.74175 
L 957.535875 567.74175 
" style="fill: none; stroke: #ffffff; stroke-linejoin: miter; stroke-linecap: square"/>
   </g>
   <g id="patch_6">
    <path d="M 54.691875 24.14175 
L 957.535875 24.14175 
" style="fill: none; stroke: #ffffff; stroke-linejoin: miter; stroke-linecap: square"/>
   </g>
   <g id="text_23">
    <!-- Potentially Ephemeral Enterprise Linux 8 and 9 Instances by Distribution -->
    <g transform="translate(54.691875 18.14175)scale(0.144 -0.144)">
     <defs>
      <path id="DejaVuSans-50" d="M 1259 4147 
L 1259 2394 
L 2053 2394 
Q 2494 2394 2734 2622 
Q 2975 2850 2975 3272 
Q 2975 3691 2734 3919 
Q 2494 4147 2053 4147 
L 1259 4147 
z
M 628 4666 
L 2053 4666 
Q 2838 4666 3239 4311 
Q 3641 3956 3641 3272 
Q 3641 2581 3239 2228 
Q 2838 1875 2053 1875 
L 1259 1875 
L 1259 0 
L 628 0 
L 628 4666 
z
" transform="scale(0.015625)"/>
      <path id="DejaVuSans-6f" d="M 1959 3097 
Q 1497 3097 1228 2736 
Q 959 2375 959 1747 
Q 959 1119 1226 758 
Q 1494 397 1959 397 
Q 2419 397 2687 759 
Q 2956 1122 2956 1747 
Q 2956 2369 2687 2733 
Q 2419 3097 1959 3097 
z
M 1959 3584 
Q 2709 3584 3137 3096 
Q 3566 2609 3566 1747 
Q 3566 888 3137 398 
Q 2709 -91 1959 -91 
Q 1206 -91 779 398 
Q 353 888 353 1747 
Q 353 2609 779 3096 
Q 1206 3584 1959 3584 
z
" transform="scale(0.015625)"/>
      <path id="DejaVuSans-69" d="M 603 3500 
L 1178 3500 
L 1178 0 
L 603 0 
L 603 3500 
z
M 603 4863 
L 1178 4863 
L 1178 4134 
L 603 4134 
L 603 4863 
z
" transform="scale(0.015625)"/>
      <path id="DejaVuSans-6c" d="M 603 4863 
L 1178 4863 
L 1178 0 
L 603 0 
L 603 4863 
z
" transform="scale(0.015625)"/>
      <path id="DejaVuSans-79" d="M 2059 -325 
Q 1816 -950 1584 -1140 
Q 1353 -1331 966 -1331 
L 506 -1331 
L 506 -850 
L 844 -850 
Q 1081 -850 1212 -737 
Q 1344 -625 1503 -206 
L 1606 56 
L 191 3500 
L 800 3500 
L 1894 763 
L 2988 3500 
L 3597 3500 
L 2059 -325 
z
" transform="scale(0.015625)"/>
      <path id="DejaVuSans-20" transform="scale(0.015625)"/>
      <path id="DejaVuSans-45" d="M 628 4666 
L 3578 4666 
L 3578 4134 
L 1259 4134 
L 1259 2753 
L 3481 2753 
L 3481 2222 
L 1259 2222 
L 1259 531 
L 3634 531 
L 3634 0 
L 628 0 
L 628 4666 
z
" transform="scale(0.015625)"/>
      <path id="DejaVuSans-70" d="M 1159 525 
L 1159 -1331 
L 581 -1331 
L 581 3500 
L 1159 3500 
L 1159 2969 
Q 1341 3281 1617 3432 
Q 1894 3584 2278 3584 
Q 2916 3584 3314 3078 
Q 3713 2572 3713 1747 
Q 3713 922 3314 415 
Q 2916 -91 2278 -91 
Q 1894 -91 1617 61 
Q 1341 213 1159 525 
z
M 3116 1747 
Q 3116 2381 2855 2742 
Q 2594 3103 2138 3103 
Q 1681 3103 1420 2742 
Q 1159 2381 1159 1747 
Q 1159 1113 1420 752 
Q 1681 391 2138 391 
Q 2594 391 2855 752 
Q 3116 1113 3116 1747 
z
" transform="scale(0.015625)"/>
      <path id="DejaVuSans-68" d="M 3513 2113 
L 3513 0 
L 2938 0 
L 2938 2094 
Q 2938 2591 2744 2837 
Q 2550 3084 2163 3084 
Q 1697 3084 1428 2787 
Q 1159 2491 1159 1978 
L 1159 0 
L 581 0 
L 581 4863 
L 1159 4863 
L 1159 2956 
Q 1366 3272 1645 3428 
Q 1925 3584 2291 3584 
Q 2894 3584 3203 3211 
Q 3513 2838 3513 2113 
z
" transform="scale(0.015625)"/>
      <path id="DejaVuSans-6d" d="M 3328 2828 
Q 3544 3216 3844 3400 
Q 4144 3584 4550 3584 
Q 5097 3584 5394 3201 
Q 5691 2819 5691 2113 
L 5691 0 
L 5113 0 
L 5113 2094 
Q 5113 2597 4934 2840 
Q 4756 3084 4391 3084 
Q 3944 3084 3684 2787 
Q 3425 2491 3425 1978 
L 3425 0 
L 2847 0 
L 2847 2094 
Q 2847 2600 2669 2842 
Q 2491 3084 2119 3084 
Q 1678 3084 1418 2786 
Q 1159 2488 1159 1978 
L 1159 0 
L 581 0 
L 581 3500 
L 1159 3500 
L 1159 2956 
Q 1356 3278 1631 3431 
Q 1906 3584 2284 3584 
Q 2666 3584 2933 3390 
Q 3200 3197 3328 2828 
z
" transform="scale(0.015625)"/>
      <path id="DejaVuSans-72" d="M 2631 2963 
Q 2534 3019 2420 3045 
Q 2306 3072 2169 3072 
Q 1681 3072 1420 2755 
Q 1159 2438 1159 1844 
L 1159 0 
L 581 0 
L 581 3500 
L 1159 3500 
L 1159 2956 
Q 1341 3275 1631 3429 
Q 1922 3584 2338 3584 
Q 2397 3584 2469 3576 
Q 2541 3569 2628 3553 
L 2631 2963 
z
" transform="scale(0.015625)"/>
      <path id="DejaVuSans-4c" d="M 628 4666 
L 1259 4666 
L 1259 531 
L 3531 531 
L 3531 0 
L 628 0 
L 628 4666 
z
" transform="scale(0.015625)"/>
      <path id="DejaVuSans-75" d="M 544 1381 
L 544 3500 
L 1119 3500 
L 1119 1403 
Q 1119 906 1312 657 
Q 1506 409 1894 409 
Q 2359 409 2629 706 
Q 2900 1003 2900 1516 
L 2900 3500 
L 3475 3500 
L 3475 0 
L 2900 0 
L 2900 538 
Q 2691 219 2414 64 
Q 2138 -91 1772 -91 
Q 1169 -91 856 284 
Q 544 659 544 1381 
z
M 1991 3584 
L 1991 3584 
z
" transform="scale(0.015625)"/>
      <path id="DejaVuSans-78" d="M 3513 3500 
L 2247 1797 
L 3578 0 
L 2900 0 
L 1881 1375 
L 863 0 
L 184 0 
L 1544 1831 
L 300 3500 
L 978 3500 
L 1906 2253 
L 2834 3500 
L 3513 3500 
z
" transform="scale(0.015625)"/>
      <path id="DejaVuSans-64" d="M 2906 2969 
L 2906 4863 
L 3481 4863 
L 3481 0 
L 2906 0 
L 2906 525 
Q 2725 213 2448 61 
Q 2172 -91 1784 -91 
Q 1150 -91 751 415 
Q 353 922 353 1747 
Q 353 2572 751 3078 
Q 1150 3584 1784 3584 
Q 2172 3584 2448 3432 
Q 2725 3281 2906 2969 
z
M 947 1747 
Q 947 1113 1208 752 
Q 1469 391 1925 391 
Q 2381 391 2643 752 
Q 2906 1113 2906 1747 
Q 2906 2381 2643 2742 
Q 2381 3103 1925 3103 
Q 1469 3103 1208 2742 
Q 947 2381 947 1747 
z
" transform="scale(0.015625)"/>
      <path id="DejaVuSans-62" d="M 3116 1747 
Q 3116 2381 2855 2742 
Q 2594 3103 2138 3103 
Q 1681 3103 1420 2742 
Q 1159 2381 1159 1747 
Q 1159 1113 1420 752 
Q 1681 391 2138 391 
Q 2594 391 2855 752 
Q 3116 1113 3116 1747 
z
M 1159 2969 
Q 1341 3281 1617 3432 
Q 1894 3584 2278 3584 
Q 2916 3584 3314 3078 
Q 3713 2572 3713 1747 
Q 3713 922 3314 415 
Q 2916 -91 2278 -91 
Q 1894 -91 1617 61 
Q 1341 213 1159 525 
L 1159 0 
L 581 0 
L 581 4863 
L 1159 4863 
L 1159 2969 
z
" transform="scale(0.015625)"/>
     </defs>
     <use xlink:href="#DejaVuSans-50"/>
     <use xlink:href="#DejaVuSans-6f" x="56.677734"/>
     <use xlink:href="#DejaVuSans-74" x="117.859375"/>
     <use xlink:href="#DejaVuSans-65" x="157.068359"/>
     <use xlink:href="#DejaVuSans-6e" x="218.591797"/>
     <use xlink:href="#DejaVuSans-74" x="281.970703"/>
     <use xlink:href="#DejaVuSans-69" x="321.179688"/>
     <use xlink:href="#DejaVuSans-61" x="348.962891"/>
     <use xlink:href="#DejaVuSans-6c" x="410.242188"/>
     <use xlink:href="#DejaVuSans-6c" x="438.025391"/>
     <use xlink:href="#DejaVuSans-79" x="465.808594"/>
     <use xlink:href="#DejaVuSans-20" x="524.988281"/>
     <use xlink:href="#DejaVuSans-45" x="556.775391"/>
     <use xlink:href="#DejaVuSans-70" x="619.958984"/>
     <use xlink:href="#DejaVuSans-68" x="683.435547"/>
     <use xlink:href="#DejaVuSans-65" x="746.814453"/>
     <use xlink:href="#DejaVuSans-6d" x="808.337891"/>
     <use xlink:href="#DejaVuSans-65" x="905.75"/>
     <use xlink:href="#DejaVuSans-72" x="967.273438"/>
     <use xlink:href="#DejaVuSans-61" x="1008.386719"/>
     <use xlink:href="#DejaVuSans-6c" x="1069.666016"/>
     <use xlink:href="#DejaVuSans-20" x="1097.449219"/>
     <use xlink:href="#DejaVuSans-45" x="1129.236328"/>
     <use xlink:href="#DejaVuSans-6e" x="1192.419922"/>
     <use xlink:href="#DejaVuSans-74" x="1255.798828"/>
     <use xlink:href="#DejaVuSans-65" x="1295.007812"/>
     <use xlink:href="#DejaVuSans-72" x="1356.53125"/>
     <use xlink:href="#DejaVuSans-70" x="1397.644531"/>
     <use xlink:href="#DejaVuSans-72" x="1461.121094"/>
     <use xlink:href="#DejaVuSans-69" x="1502.234375"/>
     <use xlink:href="#DejaVuSans-73" x="1530.017578"/>
     <use xlink:href="#DejaVuSans-65" x="1582.117188"/>
     <use xlink:href="#DejaVuSans-20" x="1643.640625"/>
     <use xlink:href="#DejaVuSans-4c" x="1675.427734"/>
     <use xlink:href="#DejaVuSans-69" x="1731.140625"/>
     <use xlink:href="#DejaVuSans-6e" x="1758.923828"/>
     <use xlink:href="#DejaVuSans-75" x="1822.302734"/>
     <use xlink:href="#DejaVuSans-78" x="1885.681641"/>
     <use xlink:href="#DejaVuSans-20" x="1944.861328"/>
     <use xlink:href="#DejaVuSans-38" x="1976.648438"/>
     <use xlink:href="#DejaVuSans-20" x="2040.271484"/>
     <use xlink:href="#DejaVuSans-61" x="2072.058594"/>
     <use xlink:href="#DejaVuSans-6e" x="2133.337891"/>
     <use xlink:href="#DejaVuSans-64" x="2196.716797"/>
     <use xlink:href="#DejaVuSans-20" x="2260.193359"/>
     <use xlink:href="#DejaVuSans-39" x="2291.980469"/>
     <use xlink:href="#DejaVuSans-20" x="2355.603516"/>
     <use xlink:href="#DejaVuSans-49" x="2387.390625"/>
     <use xlink:href="#DejaVuSans-6e" x="2416.882812"/>
     <use xlink:href="#DejaVuSans-73" x="2480.261719"/>
     <use xlink:href="#DejaVuSans-74" x="2532.361328"/>
     <use xlink:href="#DejaVuSans-61" x="2571.570312"/>
     <use xlink:href="#DejaVuSans-6e" x="2632.849609"/>
     <use xlink:href="#DejaVuSans-63" x="2696.228516"/>
     <use xlink:href="#DejaVuSans-65" x="2751.208984"/>
     <use xlink:href="#DejaVuSans-73" x="2812.732422"/>
     <use xlink:href="#DejaVuSans-20" x="2864.832031"/>
     <use xlink:href="#DejaVuSans-62" x="2896.619141"/>
     <use xlink:href="#DejaVuSans-79" x="2960.095703"/>
     <use xlink:href="#DejaVuSans-20" x="3019.275391"/>
     <use xlink:href="#DejaVuSans-44" x="3051.0625"/>
     <use xlink:href="#DejaVuSans-69" x="3128.064453"/>
     <use xlink:href="#DejaVuSans-73" x="3155.847656"/>
     <use xlink:href="#DejaVuSans-74" x="3207.947266"/>
     <use xlink:href="#DejaVuSans-72" x="3247.15625"/>
     <use xlink:href="#DejaVuSans-69" x="3288.269531"/>
     <use xlink:href="#DejaVuSans-62" x="3316.052734"/>
     <use xlink:href="#DejaVuSans-75" x="3379.529297"/>
     <use xlink:href="#DejaVuSans-74" x="3442.908203"/>
     <use xlink:href="#DejaVuSans-69" x="3482.117188"/>
     <use xlink:href="#DejaVuSans-6f" x="3509.900391"/>
     <use xlink:href="#DejaVuSans-6e" x="3571.082031"/>
    </g>
   </g>
   <g id="text_24">
    <!-- 2023-10-19 12:17 UTC -->
    <g transform="translate(794.653875 18.14175)scale(0.144 -0.144)">
     <defs>
      <path id="DejaVuSans-3a" d="M 750 794 
L 1409 794 
L 1409 0 
L 750 0 
L 750 794 
z
M 750 3309 
L 1409 3309 
L 1409 2516 
L 750 2516 
L 750 3309 
z
" transform="scale(0.015625)"/>
      <path id="DejaVuSans-55" d="M 556 4666 
L 1191 4666 
L 1191 1831 
Q 1191 1081 1462 751 
Q 1734 422 2344 422 
Q 2950 422 3222 751 
Q 3494 1081 3494 1831 
L 3494 4666 
L 4128 4666 
L 4128 1753 
Q 4128 841 3676 375 
Q 3225 -91 2344 -91 
Q 1459 -91 1007 375 
Q 556 841 556 1753 
L 556 4666 
z
" transform="scale(0.015625)"/>
      <path id="DejaVuSans-54" d="M -19 4666 
L 3928 4666 
L 3928 4134 
L 2272 4134 
L 2272 0 
L 1638 0 
L 1638 4134 
L -19 4134 
L -19 4666 
z
" transform="scale(0.015625)"/>
      <path id="DejaVuSans-43" d="M 4122 4306 
L 4122 3641 
Q 3803 3938 3442 4084 
Q 3081 4231 2675 4231 
Q 1875 4231 1450 3742 
Q 1025 3253 1025 2328 
Q 1025 1406 1450 917 
Q 1875 428 2675 428 
Q 3081 428 3442 575 
Q 3803 722 4122 1019 
L 4122 359 
Q 3791 134 3420 21 
Q 3050 -91 2638 -91 
Q 1578 -91 968 557 
Q 359 1206 359 2328 
Q 359 3453 968 4101 
Q 1578 4750 2638 4750 
Q 3056 4750 3426 4639 
Q 3797 4528 4122 4306 
z
" transform="scale(0.015625)"/>
     </defs>
     <use xlink:href="#DejaVuSans-32"/>
     <use xlink:href="#DejaVuSans-30" x="63.623047"/>
     <use xlink:href="#DejaVuSans-32" x="127.246094"/>
     <use xlink:href="#DejaVuSans-33" x="190.869141"/>
     <use xlink:href="#DejaVuSans-2d" x="254.492188"/>
     <use xlink:href="#DejaVuSans-31" x="290.576172"/>
     <use xlink:href="#DejaVuSans-30" x="354.199219"/>
     <use xlink:href="#DejaVuSans-2d" x="417.822266"/>
     <use xlink:href="#DejaVuSans-31" x="453.90625"/>
     <use xlink:href="#DejaVuSans-39" x="517.529297"/>
     <use xlink:href="#DejaVuSans-20" x="581.152344"/>
     <use xlink:href="#DejaVuSans-31" x="612.939453"/>
     <use xlink:href="#DejaVuSans-32" x="676.5625"/>
     <use xlink:href="#DejaVuSans-3a" x="740.185547"/>
     <use xlink:href="#DejaVuSans-31" x="773.876953"/>
     <use xlink:href="#DejaVuSans-37" x="837.5"/>
     <use xlink:href="#DejaVuSans-20" x="901.123047"/>
     <use xlink:href="#DejaVuSans-55" x="932.910156"/>
     <use xlink:href="#DejaVuSans-54" x="1006.103516"/>
     <use xlink:href="#DejaVuSans-43" x="1061.3125"/>
    </g>
   </g>
   <g id="legend_1">
    <g id="patch_7">
     <path d="M 61.691875 134.888625 
L 170.660625 134.888625 
Q 172.660625 134.888625 172.660625 132.888625 
L 172.660625 31.14175 
Q 172.660625 29.14175 170.660625 29.14175 
L 61.691875 29.14175 
Q 59.691875 29.14175 59.691875 31.14175 
L 59.691875 132.888625 
Q 59.691875 134.888625 61.691875 134.888625 
z
" style="fill: #e5e5e5; opacity: 0.8; stroke: #cccccc; stroke-width: 0.5; stroke-linejoin: miter"/>
    </g>
    <g id="text_25">
     <!-- Distribution -->
     <g transform="translate(87.0075 40.740187)scale(0.1 -0.1)">
      <use xlink:href="#DejaVuSans-44"/>
      <use xlink:href="#DejaVuSans-69" x="77.001953"/>
      <use xlink:href="#DejaVuSans-73" x="104.785156"/>
      <use xlink:href="#DejaVuSans-74" x="156.884766"/>
      <use xlink:href="#DejaVuSans-72" x="196.09375"/>
      <use xlink:href="#DejaVuSans-69" x="237.207031"/>
      <use xlink:href="#DejaVuSans-62" x="264.990234"/>
      <use xlink:href="#DejaVuSans-75" x="328.466797"/>
      <use xlink:href="#DejaVuSans-74" x="391.845703"/>
      <use xlink:href="#DejaVuSans-69" x="431.054688"/>
      <use xlink:href="#DejaVuSans-6f" x="458.837891"/>
      <use xlink:href="#DejaVuSans-6e" x="520.019531"/>
     </g>
    </g>
    <g id="line2d_53">
     <path d="M 63.691875 51.918312 
L 73.691875 51.918312 
L 83.691875 51.918312 
" style="fill: none; stroke: #4ac1fa; stroke-width: 1.5; stroke-linecap: square"/>
    </g>
    <g id="text_26">
     <!-- AlmaLinux -->
     <g transform="translate(91.691875 55.418312)scale(0.1 -0.1)">
      <defs>
       <path id="DejaVuSans-41" d="M 2188 4044 
L 1331 1722 
L 3047 1722 
L 2188 4044 
z
M 1831 4666 
L 2547 4666 
L 4325 0 
L 3669 0 
L 3244 1197 
L 1141 1197 
L 716 0 
L 50 0 
L 1831 4666 
z
" transform="scale(0.015625)"/>
      </defs>
      <use xlink:href="#DejaVuSans-41"/>
      <use xlink:href="#DejaVuSans-6c" x="68.408203"/>
      <use xlink:href="#DejaVuSans-6d" x="96.191406"/>
      <use xlink:href="#DejaVuSans-61" x="193.603516"/>
      <use xlink:href="#DejaVuSans-4c" x="254.882812"/>
      <use xlink:href="#DejaVuSans-69" x="310.595703"/>
      <use xlink:href="#DejaVuSans-6e" x="338.378906"/>
      <use xlink:href="#DejaVuSans-75" x="401.757812"/>
      <use xlink:href="#DejaVuSans-78" x="465.136719"/>
     </g>
    </g>
    <g id="line2d_54">
     <path d="M 63.691875 66.596437 
L 73.691875 66.596437 
L 83.691875 66.596437 
" style="fill: none; stroke: #e9a942; stroke-width: 1.5; stroke-linecap: square"/>
    </g>
    <g id="text_27">
     <!-- CentOS Legacy -->
     <g transform="translate(91.691875 70.096437)scale(0.1 -0.1)">
      <defs>
       <path id="DejaVuSans-4f" d="M 2522 4238 
Q 1834 4238 1429 3725 
Q 1025 3213 1025 2328 
Q 1025 1447 1429 934 
Q 1834 422 2522 422 
Q 3209 422 3611 934 
Q 4013 1447 4013 2328 
Q 4013 3213 3611 3725 
Q 3209 4238 2522 4238 
z
M 2522 4750 
Q 3503 4750 4090 4092 
Q 4678 3434 4678 2328 
Q 4678 1225 4090 567 
Q 3503 -91 2522 -91 
Q 1538 -91 948 565 
Q 359 1222 359 2328 
Q 359 3434 948 4092 
Q 1538 4750 2522 4750 
z
" transform="scale(0.015625)"/>
       <path id="DejaVuSans-53" d="M 3425 4513 
L 3425 3897 
Q 3066 4069 2747 4153 
Q 2428 4238 2131 4238 
Q 1616 4238 1336 4038 
Q 1056 3838 1056 3469 
Q 1056 3159 1242 3001 
Q 1428 2844 1947 2747 
L 2328 2669 
Q 3034 2534 3370 2195 
Q 3706 1856 3706 1288 
Q 3706 609 3251 259 
Q 2797 -91 1919 -91 
Q 1588 -91 1214 -16 
Q 841 59 441 206 
L 441 856 
Q 825 641 1194 531 
Q 1563 422 1919 422 
Q 2459 422 2753 634 
Q 3047 847 3047 1241 
Q 3047 1584 2836 1778 
Q 2625 1972 2144 2069 
L 1759 2144 
Q 1053 2284 737 2584 
Q 422 2884 422 3419 
Q 422 4038 858 4394 
Q 1294 4750 2059 4750 
Q 2388 4750 2728 4690 
Q 3069 4631 3425 4513 
z
" transform="scale(0.015625)"/>
       <path id="DejaVuSans-67" d="M 2906 1791 
Q 2906 2416 2648 2759 
Q 2391 3103 1925 3103 
Q 1463 3103 1205 2759 
Q 947 2416 947 1791 
Q 947 1169 1205 825 
Q 1463 481 1925 481 
Q 2391 481 2648 825 
Q 2906 1169 2906 1791 
z
M 3481 434 
Q 3481 -459 3084 -895 
Q 2688 -1331 1869 -1331 
Q 1566 -1331 1297 -1286 
Q 1028 -1241 775 -1147 
L 775 -588 
Q 1028 -725 1275 -790 
Q 1522 -856 1778 -856 
Q 2344 -856 2625 -561 
Q 2906 -266 2906 331 
L 2906 616 
Q 2728 306 2450 153 
Q 2172 0 1784 0 
Q 1141 0 747 490 
Q 353 981 353 1791 
Q 353 2603 747 3093 
Q 1141 3584 1784 3584 
Q 2172 3584 2450 3431 
Q 2728 3278 2906 2969 
L 2906 3500 
L 3481 3500 
L 3481 434 
z
" transform="scale(0.015625)"/>
      </defs>
      <use xlink:href="#DejaVuSans-43"/>
      <use xlink:href="#DejaVuSans-65" x="69.824219"/>
      <use xlink:href="#DejaVuSans-6e" x="131.347656"/>
      <use xlink:href="#DejaVuSans-74" x="194.726562"/>
      <use xlink:href="#DejaVuSans-4f" x="233.935547"/>
      <use xlink:href="#DejaVuSans-53" x="312.646484"/>
      <use xlink:href="#DejaVuSans-20" x="376.123047"/>
      <use xlink:href="#DejaVuSans-4c" x="407.910156"/>
      <use xlink:href="#DejaVuSans-65" x="461.873047"/>
      <use xlink:href="#DejaVuSans-67" x="523.396484"/>
      <use xlink:href="#DejaVuSans-61" x="586.873047"/>
      <use xlink:href="#DejaVuSans-63" x="648.152344"/>
      <use xlink:href="#DejaVuSans-79" x="703.132812"/>
     </g>
    </g>
    <g id="line2d_55">
     <path d="M 63.691875 81.274563 
L 73.691875 81.274563 
L 83.691875 81.274563 
" style="fill: none; stroke: #9a5689; stroke-width: 1.5; stroke-linecap: square"/>
    </g>
    <g id="text_28">
     <!-- CentOS Stream -->
     <g transform="translate(91.691875 84.774563)scale(0.1 -0.1)">
      <use xlink:href="#DejaVuSans-43"/>
      <use xlink:href="#DejaVuSans-65" x="69.824219"/>
      <use xlink:href="#DejaVuSans-6e" x="131.347656"/>
      <use xlink:href="#DejaVuSans-74" x="194.726562"/>
      <use xlink:href="#DejaVuSans-4f" x="233.935547"/>
      <use xlink:href="#DejaVuSans-53" x="312.646484"/>
      <use xlink:href="#DejaVuSans-20" x="376.123047"/>
      <use xlink:href="#DejaVuSans-53" x="407.910156"/>
      <use xlink:href="#DejaVuSans-74" x="471.386719"/>
      <use xlink:href="#DejaVuSans-72" x="510.595703"/>
      <use xlink:href="#DejaVuSans-65" x="549.458984"/>
      <use xlink:href="#DejaVuSans-61" x="610.982422"/>
      <use xlink:href="#DejaVuSans-6d" x="672.261719"/>
     </g>
    </g>
    <g id="line2d_56">
     <path d="M 63.691875 95.952687 
L 73.691875 95.952687 
L 83.691875 95.952687 
" style="fill: none; stroke: #be503b; stroke-width: 1.5; stroke-linecap: square"/>
    </g>
    <g id="text_29">
     <!-- Oracle -->
     <g transform="translate(91.691875 99.452687)scale(0.1 -0.1)">
      <use xlink:href="#DejaVuSans-4f"/>
      <use xlink:href="#DejaVuSans-72" x="78.710938"/>
      <use xlink:href="#DejaVuSans-61" x="119.824219"/>
      <use xlink:href="#DejaVuSans-63" x="181.103516"/>
      <use xlink:href="#DejaVuSans-6c" x="236.083984"/>
      <use xlink:href="#DejaVuSans-65" x="263.867188"/>
     </g>
    </g>
    <g id="line2d_57">
     <path d="M 63.691875 110.630812 
L 73.691875 110.630812 
L 83.691875 110.630812 
" style="fill: none; stroke: #e2321d; stroke-width: 1.5; stroke-linecap: square"/>
    </g>
    <g id="text_30">
     <!-- RHEL -->
     <g transform="translate(91.691875 114.130812)scale(0.1 -0.1)">
      <defs>
       <path id="DejaVuSans-52" d="M 2841 2188 
Q 3044 2119 3236 1894 
Q 3428 1669 3622 1275 
L 4263 0 
L 3584 0 
L 2988 1197 
Q 2756 1666 2539 1819 
Q 2322 1972 1947 1972 
L 1259 1972 
L 1259 0 
L 628 0 
L 628 4666 
L 2053 4666 
Q 2853 4666 3247 4331 
Q 3641 3997 3641 3322 
Q 3641 2881 3436 2590 
Q 3231 2300 2841 2188 
z
M 1259 4147 
L 1259 2491 
L 2053 2491 
Q 2509 2491 2742 2702 
Q 2975 2913 2975 3322 
Q 2975 3731 2742 3939 
Q 2509 4147 2053 4147 
L 1259 4147 
z
" transform="scale(0.015625)"/>
       <path id="DejaVuSans-48" d="M 628 4666 
L 1259 4666 
L 1259 2753 
L 3553 2753 
L 3553 4666 
L 4184 4666 
L 4184 0 
L 3553 0 
L 3553 2222 
L 1259 2222 
L 1259 0 
L 628 0 
L 628 4666 
z
" transform="scale(0.015625)"/>
      </defs>
      <use xlink:href="#DejaVuSans-52"/>
      <use xlink:href="#DejaVuSans-48" x="69.482422"/>
      <use xlink:href="#DejaVuSans-45" x="144.677734"/>
      <use xlink:href="#DejaVuSans-4c" x="207.861328"/>
     </g>
    </g>
    <g id="line2d_58">
     <path d="M 63.691875 125.308937 
L 73.691875 125.308937 
L 83.691875 125.308937 
" style="fill: none; stroke: #48b585; stroke-width: 6; stroke-linecap: square"/>
    </g>
    <g id="text_31">
     <!-- Rocky Linux -->
     <g transform="translate(91.691875 128.808937)scale(0.1 -0.1)">
      <use xlink:href="#DejaVuSans-52"/>
      <use xlink:href="#DejaVuSans-6f" x="64.982422"/>
      <use xlink:href="#DejaVuSans-63" x="126.164062"/>
      <use xlink:href="#DejaVuSans-6b" x="181.144531"/>
      <use xlink:href="#DejaVuSans-79" x="235.429688"/>
      <use xlink:href="#DejaVuSans-20" x="294.609375"/>
      <use xlink:href="#DejaVuSans-4c" x="326.396484"/>
      <use xlink:href="#DejaVuSans-69" x="382.109375"/>
      <use xlink:href="#DejaVuSans-6e" x="409.892578"/>
      <use xlink:href="#DejaVuSans-75" x="473.271484"/>
      <use xlink:href="#DejaVuSans-78" x="536.650391"/>
     </g>
    </g>
   </g>
  </g>
 </g>
 <defs>
  <clipPath id="p3148f593d6">
   <rect x="54.691875" y="24.14175" width="902.844" height="543.6"/>
  </clipPath>
 </defs>
</svg>
