<?xml version="1.0" encoding="utf-8" standalone="no"?>
<!DOCTYPE svg PUBLIC "-//W3C//DTD SVG 1.1//EN"
  "http://www.w3.org/Graphics/SVG/1.1/DTD/svg11.dtd">
<svg xmlns:xlink="http://www.w3.org/1999/xlink" width="964.735875pt" height="633.943878pt" viewBox="0 0 964.735875 633.943878" xmlns="http://www.w3.org/2000/svg" version="1.1">
 <metadata>
  <rdf:RDF xmlns:dc="http://purl.org/dc/elements/1.1/" xmlns:cc="http://creativecommons.org/ns#" xmlns:rdf="http://www.w3.org/1999/02/22-rdf-syntax-ns#">
   <cc:Work>
    <dc:type rdf:resource="http://purl.org/dc/dcmitype/StillImage"/>
    <dc:date>2023-12-07T11:54:35.731027</dc:date>
    <dc:format>image/svg+xml</dc:format>
    <dc:creator>
     <cc:Agent>
      <dc:title>Matplotlib v3.5.1, https://matplotlib.org/</dc:title>
     </cc:Agent>
    </dc:creator>
   </cc:Work>
  </rdf:RDF>
 </metadata>
 <defs>
  <style type="text/css">*{stroke-linejoin: round; stroke-linecap: butt}</style>
 </defs>
 <g id="figure_1">
  <g id="patch_1">
   <path d="M 0 633.943878 
L 964.735875 633.943878 
L 964.735875 0 
L 0 0 
z
" style="fill: #ffffff"/>
  </g>
  <g id="axes_1">
   <g id="patch_2">
    <path d="M 54.691875 567.74175 
L 957.535875 567.74175 
L 957.535875 24.14175 
L 54.691875 24.14175 
z
" style="fill: #e5e5e5"/>
   </g>
   <g id="matplotlib.axis_1">
    <g id="xtick_1">
     <g id="line2d_1">
      <path d="M 77.452648 567.74175 
L 77.452648 24.14175 
" clip-path="url(#pde7369c555)" style="fill: none; stroke: #ffffff; stroke-width: 0.8; stroke-linecap: square"/>
     </g>
     <g id="line2d_2">
      <defs>
       <path id="m16e22af9b6" d="M 0 0 
L 0 3.5 
" style="stroke: #555555; stroke-width: 0.8"/>
      </defs>
      <g>
       <use xlink:href="#m16e22af9b6" x="77.452648" y="567.74175" style="fill: #555555; stroke: #555555; stroke-width: 0.8"/>
      </g>
     </g>
     <g id="text_1">
      <!-- 2022-12 -->
      <g style="fill: #555555" transform="translate(64.631366 609.659567)rotate(-45)scale(0.1 -0.1)">
       <defs>
        <path id="DejaVuSans-32" d="M 1228 531 
L 3431 531 
L 3431 0 
L 469 0 
L 469 531 
Q 828 903 1448 1529 
Q 2069 2156 2228 2338 
Q 2531 2678 2651 2914 
Q 2772 3150 2772 3378 
Q 2772 3750 2511 3984 
Q 2250 4219 1831 4219 
Q 1534 4219 1204 4116 
Q 875 4013 500 3803 
L 500 4441 
Q 881 4594 1212 4672 
Q 1544 4750 1819 4750 
Q 2544 4750 2975 4387 
Q 3406 4025 3406 3419 
Q 3406 3131 3298 2873 
Q 3191 2616 2906 2266 
Q 2828 2175 2409 1742 
Q 1991 1309 1228 531 
z
" transform="scale(0.015625)"/>
        <path id="DejaVuSans-30" d="M 2034 4250 
Q 1547 4250 1301 3770 
Q 1056 3291 1056 2328 
Q 1056 1369 1301 889 
Q 1547 409 2034 409 
Q 2525 409 2770 889 
Q 3016 1369 3016 2328 
Q 3016 3291 2770 3770 
Q 2525 4250 2034 4250 
z
M 2034 4750 
Q 2819 4750 3233 4129 
Q 3647 3509 3647 2328 
Q 3647 1150 3233 529 
Q 2819 -91 2034 -91 
Q 1250 -91 836 529 
Q 422 1150 422 2328 
Q 422 3509 836 4129 
Q 1250 4750 2034 4750 
z
" transform="scale(0.015625)"/>
        <path id="DejaVuSans-2d" d="M 313 2009 
L 1997 2009 
L 1997 1497 
L 313 1497 
L 313 2009 
z
" transform="scale(0.015625)"/>
        <path id="DejaVuSans-31" d="M 794 531 
L 1825 531 
L 1825 4091 
L 703 3866 
L 703 4441 
L 1819 4666 
L 2450 4666 
L 2450 531 
L 3481 531 
L 3481 0 
L 794 0 
L 794 531 
z
" transform="scale(0.015625)"/>
       </defs>
       <use xlink:href="#DejaVuSans-32"/>
       <use xlink:href="#DejaVuSans-30" x="63.623047"/>
       <use xlink:href="#DejaVuSans-32" x="127.246094"/>
       <use xlink:href="#DejaVuSans-32" x="190.869141"/>
       <use xlink:href="#DejaVuSans-2d" x="254.492188"/>
       <use xlink:href="#DejaVuSans-31" x="290.576172"/>
       <use xlink:href="#DejaVuSans-32" x="354.199219"/>
      </g>
     </g>
    </g>
    <g id="xtick_2">
     <g id="line2d_3">
      <path d="M 155.850867 567.74175 
L 155.850867 24.14175 
" clip-path="url(#pde7369c555)" style="fill: none; stroke: #ffffff; stroke-width: 0.8; stroke-linecap: square"/>
     </g>
     <g id="line2d_4">
      <g>
       <use xlink:href="#m16e22af9b6" x="155.850867" y="567.74175" style="fill: #555555; stroke: #555555; stroke-width: 0.8"/>
      </g>
     </g>
     <g id="text_2">
      <!-- 2023-01 -->
      <g style="fill: #555555" transform="translate(143.029584 609.659567)rotate(-45)scale(0.1 -0.1)">
       <defs>
        <path id="DejaVuSans-33" d="M 2597 2516 
Q 3050 2419 3304 2112 
Q 3559 1806 3559 1356 
Q 3559 666 3084 287 
Q 2609 -91 1734 -91 
Q 1441 -91 1130 -33 
Q 819 25 488 141 
L 488 750 
Q 750 597 1062 519 
Q 1375 441 1716 441 
Q 2309 441 2620 675 
Q 2931 909 2931 1356 
Q 2931 1769 2642 2001 
Q 2353 2234 1838 2234 
L 1294 2234 
L 1294 2753 
L 1863 2753 
Q 2328 2753 2575 2939 
Q 2822 3125 2822 3475 
Q 2822 3834 2567 4026 
Q 2313 4219 1838 4219 
Q 1578 4219 1281 4162 
Q 984 4106 628 3988 
L 628 4550 
Q 988 4650 1302 4700 
Q 1616 4750 1894 4750 
Q 2613 4750 3031 4423 
Q 3450 4097 3450 3541 
Q 3450 3153 3228 2886 
Q 3006 2619 2597 2516 
z
" transform="scale(0.015625)"/>
       </defs>
       <use xlink:href="#DejaVuSans-32"/>
       <use xlink:href="#DejaVuSans-30" x="63.623047"/>
       <use xlink:href="#DejaVuSans-32" x="127.246094"/>
       <use xlink:href="#DejaVuSans-33" x="190.869141"/>
       <use xlink:href="#DejaVuSans-2d" x="254.492188"/>
       <use xlink:href="#DejaVuSans-30" x="290.576172"/>
       <use xlink:href="#DejaVuSans-31" x="354.199219"/>
      </g>
     </g>
    </g>
    <g id="xtick_3">
     <g id="line2d_5">
      <path d="M 234.249085 567.74175 
L 234.249085 24.14175 
" clip-path="url(#pde7369c555)" style="fill: none; stroke: #ffffff; stroke-width: 0.8; stroke-linecap: square"/>
     </g>
     <g id="line2d_6">
      <g>
       <use xlink:href="#m16e22af9b6" x="234.249085" y="567.74175" style="fill: #555555; stroke: #555555; stroke-width: 0.8"/>
      </g>
     </g>
     <g id="text_3">
      <!-- 2023-02 -->
      <g style="fill: #555555" transform="translate(221.427803 609.659567)rotate(-45)scale(0.1 -0.1)">
       <use xlink:href="#DejaVuSans-32"/>
       <use xlink:href="#DejaVuSans-30" x="63.623047"/>
       <use xlink:href="#DejaVuSans-32" x="127.246094"/>
       <use xlink:href="#DejaVuSans-33" x="190.869141"/>
       <use xlink:href="#DejaVuSans-2d" x="254.492188"/>
       <use xlink:href="#DejaVuSans-30" x="290.576172"/>
       <use xlink:href="#DejaVuSans-32" x="354.199219"/>
      </g>
     </g>
    </g>
    <g id="xtick_4">
     <g id="line2d_7">
      <path d="M 305.060379 567.74175 
L 305.060379 24.14175 
" clip-path="url(#pde7369c555)" style="fill: none; stroke: #ffffff; stroke-width: 0.8; stroke-linecap: square"/>
     </g>
     <g id="line2d_8">
      <g>
       <use xlink:href="#m16e22af9b6" x="305.060379" y="567.74175" style="fill: #555555; stroke: #555555; stroke-width: 0.8"/>
      </g>
     </g>
     <g id="text_4">
      <!-- 2023-03 -->
      <g style="fill: #555555" transform="translate(292.239097 609.659567)rotate(-45)scale(0.1 -0.1)">
       <use xlink:href="#DejaVuSans-32"/>
       <use xlink:href="#DejaVuSans-30" x="63.623047"/>
       <use xlink:href="#DejaVuSans-32" x="127.246094"/>
       <use xlink:href="#DejaVuSans-33" x="190.869141"/>
       <use xlink:href="#DejaVuSans-2d" x="254.492188"/>
       <use xlink:href="#DejaVuSans-30" x="290.576172"/>
       <use xlink:href="#DejaVuSans-33" x="354.199219"/>
      </g>
     </g>
    </g>
    <g id="xtick_5">
     <g id="line2d_9">
      <path d="M 383.458598 567.74175 
L 383.458598 24.14175 
" clip-path="url(#pde7369c555)" style="fill: none; stroke: #ffffff; stroke-width: 0.8; stroke-linecap: square"/>
     </g>
     <g id="line2d_10">
      <g>
       <use xlink:href="#m16e22af9b6" x="383.458598" y="567.74175" style="fill: #555555; stroke: #555555; stroke-width: 0.8"/>
      </g>
     </g>
     <g id="text_5">
      <!-- 2023-04 -->
      <g style="fill: #555555" transform="translate(370.637315 609.659567)rotate(-45)scale(0.1 -0.1)">
       <defs>
        <path id="DejaVuSans-34" d="M 2419 4116 
L 825 1625 
L 2419 1625 
L 2419 4116 
z
M 2253 4666 
L 3047 4666 
L 3047 1625 
L 3713 1625 
L 3713 1100 
L 3047 1100 
L 3047 0 
L 2419 0 
L 2419 1100 
L 313 1100 
L 313 1709 
L 2253 4666 
z
" transform="scale(0.015625)"/>
       </defs>
       <use xlink:href="#DejaVuSans-32"/>
       <use xlink:href="#DejaVuSans-30" x="63.623047"/>
       <use xlink:href="#DejaVuSans-32" x="127.246094"/>
       <use xlink:href="#DejaVuSans-33" x="190.869141"/>
       <use xlink:href="#DejaVuSans-2d" x="254.492188"/>
       <use xlink:href="#DejaVuSans-30" x="290.576172"/>
       <use xlink:href="#DejaVuSans-34" x="354.199219"/>
      </g>
     </g>
    </g>
    <g id="xtick_6">
     <g id="line2d_11">
      <path d="M 459.327841 567.74175 
L 459.327841 24.14175 
" clip-path="url(#pde7369c555)" style="fill: none; stroke: #ffffff; stroke-width: 0.8; stroke-linecap: square"/>
     </g>
     <g id="line2d_12">
      <g>
       <use xlink:href="#m16e22af9b6" x="459.327841" y="567.74175" style="fill: #555555; stroke: #555555; stroke-width: 0.8"/>
      </g>
     </g>
     <g id="text_6">
      <!-- 2023-05 -->
      <g style="fill: #555555" transform="translate(446.506559 609.659567)rotate(-45)scale(0.1 -0.1)">
       <defs>
        <path id="DejaVuSans-35" d="M 691 4666 
L 3169 4666 
L 3169 4134 
L 1269 4134 
L 1269 2991 
Q 1406 3038 1543 3061 
Q 1681 3084 1819 3084 
Q 2600 3084 3056 2656 
Q 3513 2228 3513 1497 
Q 3513 744 3044 326 
Q 2575 -91 1722 -91 
Q 1428 -91 1123 -41 
Q 819 9 494 109 
L 494 744 
Q 775 591 1075 516 
Q 1375 441 1709 441 
Q 2250 441 2565 725 
Q 2881 1009 2881 1497 
Q 2881 1984 2565 2268 
Q 2250 2553 1709 2553 
Q 1456 2553 1204 2497 
Q 953 2441 691 2322 
L 691 4666 
z
" transform="scale(0.015625)"/>
       </defs>
       <use xlink:href="#DejaVuSans-32"/>
       <use xlink:href="#DejaVuSans-30" x="63.623047"/>
       <use xlink:href="#DejaVuSans-32" x="127.246094"/>
       <use xlink:href="#DejaVuSans-33" x="190.869141"/>
       <use xlink:href="#DejaVuSans-2d" x="254.492188"/>
       <use xlink:href="#DejaVuSans-30" x="290.576172"/>
       <use xlink:href="#DejaVuSans-35" x="354.199219"/>
      </g>
     </g>
    </g>
    <g id="xtick_7">
     <g id="line2d_13">
      <path d="M 537.72606 567.74175 
L 537.72606 24.14175 
" clip-path="url(#pde7369c555)" style="fill: none; stroke: #ffffff; stroke-width: 0.8; stroke-linecap: square"/>
     </g>
     <g id="line2d_14">
      <g>
       <use xlink:href="#m16e22af9b6" x="537.72606" y="567.74175" style="fill: #555555; stroke: #555555; stroke-width: 0.8"/>
      </g>
     </g>
     <g id="text_7">
      <!-- 2023-06 -->
      <g style="fill: #555555" transform="translate(524.904778 609.659567)rotate(-45)scale(0.1 -0.1)">
       <defs>
        <path id="DejaVuSans-36" d="M 2113 2584 
Q 1688 2584 1439 2293 
Q 1191 2003 1191 1497 
Q 1191 994 1439 701 
Q 1688 409 2113 409 
Q 2538 409 2786 701 
Q 3034 994 3034 1497 
Q 3034 2003 2786 2293 
Q 2538 2584 2113 2584 
z
M 3366 4563 
L 3366 3988 
Q 3128 4100 2886 4159 
Q 2644 4219 2406 4219 
Q 1781 4219 1451 3797 
Q 1122 3375 1075 2522 
Q 1259 2794 1537 2939 
Q 1816 3084 2150 3084 
Q 2853 3084 3261 2657 
Q 3669 2231 3669 1497 
Q 3669 778 3244 343 
Q 2819 -91 2113 -91 
Q 1303 -91 875 529 
Q 447 1150 447 2328 
Q 447 3434 972 4092 
Q 1497 4750 2381 4750 
Q 2619 4750 2861 4703 
Q 3103 4656 3366 4563 
z
" transform="scale(0.015625)"/>
       </defs>
       <use xlink:href="#DejaVuSans-32"/>
       <use xlink:href="#DejaVuSans-30" x="63.623047"/>
       <use xlink:href="#DejaVuSans-32" x="127.246094"/>
       <use xlink:href="#DejaVuSans-33" x="190.869141"/>
       <use xlink:href="#DejaVuSans-2d" x="254.492188"/>
       <use xlink:href="#DejaVuSans-30" x="290.576172"/>
       <use xlink:href="#DejaVuSans-36" x="354.199219"/>
      </g>
     </g>
    </g>
    <g id="xtick_8">
     <g id="line2d_15">
      <path d="M 613.595304 567.74175 
L 613.595304 24.14175 
" clip-path="url(#pde7369c555)" style="fill: none; stroke: #ffffff; stroke-width: 0.8; stroke-linecap: square"/>
     </g>
     <g id="line2d_16">
      <g>
       <use xlink:href="#m16e22af9b6" x="613.595304" y="567.74175" style="fill: #555555; stroke: #555555; stroke-width: 0.8"/>
      </g>
     </g>
     <g id="text_8">
      <!-- 2023-07 -->
      <g style="fill: #555555" transform="translate(600.774021 609.659567)rotate(-45)scale(0.1 -0.1)">
       <defs>
        <path id="DejaVuSans-37" d="M 525 4666 
L 3525 4666 
L 3525 4397 
L 1831 0 
L 1172 0 
L 2766 4134 
L 525 4134 
L 525 4666 
z
" transform="scale(0.015625)"/>
       </defs>
       <use xlink:href="#DejaVuSans-32"/>
       <use xlink:href="#DejaVuSans-30" x="63.623047"/>
       <use xlink:href="#DejaVuSans-32" x="127.246094"/>
       <use xlink:href="#DejaVuSans-33" x="190.869141"/>
       <use xlink:href="#DejaVuSans-2d" x="254.492188"/>
       <use xlink:href="#DejaVuSans-30" x="290.576172"/>
       <use xlink:href="#DejaVuSans-37" x="354.199219"/>
      </g>
     </g>
    </g>
    <g id="xtick_9">
     <g id="line2d_17">
      <path d="M 691.993522 567.74175 
L 691.993522 24.14175 
" clip-path="url(#pde7369c555)" style="fill: none; stroke: #ffffff; stroke-width: 0.8; stroke-linecap: square"/>
     </g>
     <g id="line2d_18">
      <g>
       <use xlink:href="#m16e22af9b6" x="691.993522" y="567.74175" style="fill: #555555; stroke: #555555; stroke-width: 0.8"/>
      </g>
     </g>
     <g id="text_9">
      <!-- 2023-08 -->
      <g style="fill: #555555" transform="translate(679.17224 609.659567)rotate(-45)scale(0.1 -0.1)">
       <defs>
        <path id="DejaVuSans-38" d="M 2034 2216 
Q 1584 2216 1326 1975 
Q 1069 1734 1069 1313 
Q 1069 891 1326 650 
Q 1584 409 2034 409 
Q 2484 409 2743 651 
Q 3003 894 3003 1313 
Q 3003 1734 2745 1975 
Q 2488 2216 2034 2216 
z
M 1403 2484 
Q 997 2584 770 2862 
Q 544 3141 544 3541 
Q 544 4100 942 4425 
Q 1341 4750 2034 4750 
Q 2731 4750 3128 4425 
Q 3525 4100 3525 3541 
Q 3525 3141 3298 2862 
Q 3072 2584 2669 2484 
Q 3125 2378 3379 2068 
Q 3634 1759 3634 1313 
Q 3634 634 3220 271 
Q 2806 -91 2034 -91 
Q 1263 -91 848 271 
Q 434 634 434 1313 
Q 434 1759 690 2068 
Q 947 2378 1403 2484 
z
M 1172 3481 
Q 1172 3119 1398 2916 
Q 1625 2713 2034 2713 
Q 2441 2713 2670 2916 
Q 2900 3119 2900 3481 
Q 2900 3844 2670 4047 
Q 2441 4250 2034 4250 
Q 1625 4250 1398 4047 
Q 1172 3844 1172 3481 
z
" transform="scale(0.015625)"/>
       </defs>
       <use xlink:href="#DejaVuSans-32"/>
       <use xlink:href="#DejaVuSans-30" x="63.623047"/>
       <use xlink:href="#DejaVuSans-32" x="127.246094"/>
       <use xlink:href="#DejaVuSans-33" x="190.869141"/>
       <use xlink:href="#DejaVuSans-2d" x="254.492188"/>
       <use xlink:href="#DejaVuSans-30" x="290.576172"/>
       <use xlink:href="#DejaVuSans-38" x="354.199219"/>
      </g>
     </g>
    </g>
    <g id="xtick_10">
     <g id="line2d_19">
      <path d="M 770.391741 567.74175 
L 770.391741 24.14175 
" clip-path="url(#pde7369c555)" style="fill: none; stroke: #ffffff; stroke-width: 0.8; stroke-linecap: square"/>
     </g>
     <g id="line2d_20">
      <g>
       <use xlink:href="#m16e22af9b6" x="770.391741" y="567.74175" style="fill: #555555; stroke: #555555; stroke-width: 0.8"/>
      </g>
     </g>
     <g id="text_10">
      <!-- 2023-09 -->
      <g style="fill: #555555" transform="translate(757.570458 609.659567)rotate(-45)scale(0.1 -0.1)">
       <defs>
        <path id="DejaVuSans-39" d="M 703 97 
L 703 672 
Q 941 559 1184 500 
Q 1428 441 1663 441 
Q 2288 441 2617 861 
Q 2947 1281 2994 2138 
Q 2813 1869 2534 1725 
Q 2256 1581 1919 1581 
Q 1219 1581 811 2004 
Q 403 2428 403 3163 
Q 403 3881 828 4315 
Q 1253 4750 1959 4750 
Q 2769 4750 3195 4129 
Q 3622 3509 3622 2328 
Q 3622 1225 3098 567 
Q 2575 -91 1691 -91 
Q 1453 -91 1209 -44 
Q 966 3 703 97 
z
M 1959 2075 
Q 2384 2075 2632 2365 
Q 2881 2656 2881 3163 
Q 2881 3666 2632 3958 
Q 2384 4250 1959 4250 
Q 1534 4250 1286 3958 
Q 1038 3666 1038 3163 
Q 1038 2656 1286 2365 
Q 1534 2075 1959 2075 
z
" transform="scale(0.015625)"/>
       </defs>
       <use xlink:href="#DejaVuSans-32"/>
       <use xlink:href="#DejaVuSans-30" x="63.623047"/>
       <use xlink:href="#DejaVuSans-32" x="127.246094"/>
       <use xlink:href="#DejaVuSans-33" x="190.869141"/>
       <use xlink:href="#DejaVuSans-2d" x="254.492188"/>
       <use xlink:href="#DejaVuSans-30" x="290.576172"/>
       <use xlink:href="#DejaVuSans-39" x="354.199219"/>
      </g>
     </g>
    </g>
    <g id="xtick_11">
     <g id="line2d_21">
      <path d="M 846.260984 567.74175 
L 846.260984 24.14175 
" clip-path="url(#pde7369c555)" style="fill: none; stroke: #ffffff; stroke-width: 0.8; stroke-linecap: square"/>
     </g>
     <g id="line2d_22">
      <g>
       <use xlink:href="#m16e22af9b6" x="846.260984" y="567.74175" style="fill: #555555; stroke: #555555; stroke-width: 0.8"/>
      </g>
     </g>
     <g id="text_11">
      <!-- 2023-10 -->
      <g style="fill: #555555" transform="translate(833.439702 609.659567)rotate(-45)scale(0.1 -0.1)">
       <use xlink:href="#DejaVuSans-32"/>
       <use xlink:href="#DejaVuSans-30" x="63.623047"/>
       <use xlink:href="#DejaVuSans-32" x="127.246094"/>
       <use xlink:href="#DejaVuSans-33" x="190.869141"/>
       <use xlink:href="#DejaVuSans-2d" x="254.492188"/>
       <use xlink:href="#DejaVuSans-31" x="290.576172"/>
       <use xlink:href="#DejaVuSans-30" x="354.199219"/>
      </g>
     </g>
    </g>
    <g id="xtick_12">
     <g id="line2d_23">
      <path d="M 924.659203 567.74175 
L 924.659203 24.14175 
" clip-path="url(#pde7369c555)" style="fill: none; stroke: #ffffff; stroke-width: 0.8; stroke-linecap: square"/>
     </g>
     <g id="line2d_24">
      <g>
       <use xlink:href="#m16e22af9b6" x="924.659203" y="567.74175" style="fill: #555555; stroke: #555555; stroke-width: 0.8"/>
      </g>
     </g>
     <g id="text_12">
      <!-- 2023-11 -->
      <g style="fill: #555555" transform="translate(911.83792 609.659567)rotate(-45)scale(0.1 -0.1)">
       <use xlink:href="#DejaVuSans-32"/>
       <use xlink:href="#DejaVuSans-30" x="63.623047"/>
       <use xlink:href="#DejaVuSans-32" x="127.246094"/>
       <use xlink:href="#DejaVuSans-33" x="190.869141"/>
       <use xlink:href="#DejaVuSans-2d" x="254.492188"/>
       <use xlink:href="#DejaVuSans-31" x="290.576172"/>
       <use xlink:href="#DejaVuSans-31" x="354.199219"/>
      </g>
     </g>
    </g>
    <g id="text_13">
     <!-- Date -->
     <g style="fill: #555555" transform="translate(491.772938 624.248253)scale(0.12 -0.12)">
      <defs>
       <path id="DejaVuSans-44" d="M 1259 4147 
L 1259 519 
L 2022 519 
Q 2988 519 3436 956 
Q 3884 1394 3884 2338 
Q 3884 3275 3436 3711 
Q 2988 4147 2022 4147 
L 1259 4147 
z
M 628 4666 
L 1925 4666 
Q 3281 4666 3915 4102 
Q 4550 3538 4550 2338 
Q 4550 1131 3912 565 
Q 3275 0 1925 0 
L 628 0 
L 628 4666 
z
" transform="scale(0.015625)"/>
       <path id="DejaVuSans-61" d="M 2194 1759 
Q 1497 1759 1228 1600 
Q 959 1441 959 1056 
Q 959 750 1161 570 
Q 1363 391 1709 391 
Q 2188 391 2477 730 
Q 2766 1069 2766 1631 
L 2766 1759 
L 2194 1759 
z
M 3341 1997 
L 3341 0 
L 2766 0 
L 2766 531 
Q 2569 213 2275 61 
Q 1981 -91 1556 -91 
Q 1019 -91 701 211 
Q 384 513 384 1019 
Q 384 1609 779 1909 
Q 1175 2209 1959 2209 
L 2766 2209 
L 2766 2266 
Q 2766 2663 2505 2880 
Q 2244 3097 1772 3097 
Q 1472 3097 1187 3025 
Q 903 2953 641 2809 
L 641 3341 
Q 956 3463 1253 3523 
Q 1550 3584 1831 3584 
Q 2591 3584 2966 3190 
Q 3341 2797 3341 1997 
z
" transform="scale(0.015625)"/>
       <path id="DejaVuSans-74" d="M 1172 4494 
L 1172 3500 
L 2356 3500 
L 2356 3053 
L 1172 3053 
L 1172 1153 
Q 1172 725 1289 603 
Q 1406 481 1766 481 
L 2356 481 
L 2356 0 
L 1766 0 
Q 1100 0 847 248 
Q 594 497 594 1153 
L 594 3053 
L 172 3053 
L 172 3500 
L 594 3500 
L 594 4494 
L 1172 4494 
z
" transform="scale(0.015625)"/>
       <path id="DejaVuSans-65" d="M 3597 1894 
L 3597 1613 
L 953 1613 
Q 991 1019 1311 708 
Q 1631 397 2203 397 
Q 2534 397 2845 478 
Q 3156 559 3463 722 
L 3463 178 
Q 3153 47 2828 -22 
Q 2503 -91 2169 -91 
Q 1331 -91 842 396 
Q 353 884 353 1716 
Q 353 2575 817 3079 
Q 1281 3584 2069 3584 
Q 2775 3584 3186 3129 
Q 3597 2675 3597 1894 
z
M 3022 2063 
Q 3016 2534 2758 2815 
Q 2500 3097 2075 3097 
Q 1594 3097 1305 2825 
Q 1016 2553 972 2059 
L 3022 2063 
z
" transform="scale(0.015625)"/>
      </defs>
      <use xlink:href="#DejaVuSans-44"/>
      <use xlink:href="#DejaVuSans-61" x="77.001953"/>
      <use xlink:href="#DejaVuSans-74" x="138.28125"/>
      <use xlink:href="#DejaVuSans-65" x="177.490234"/>
     </g>
    </g>
   </g>
   <g id="matplotlib.axis_2">
    <g id="ytick_1">
     <g id="line2d_25">
      <path d="M 54.691875 567.74175 
L 957.535875 567.74175 
" clip-path="url(#pde7369c555)" style="fill: none; stroke: #ffffff; stroke-width: 0.8; stroke-linecap: square"/>
     </g>
     <g id="line2d_26">
      <defs>
       <path id="m46cd882c23" d="M 0 0 
L -3.5 0 
" style="stroke: #555555; stroke-width: 0.8"/>
      </defs>
      <g>
       <use xlink:href="#m46cd882c23" x="54.691875" y="567.74175" style="fill: #555555; stroke: #555555; stroke-width: 0.8"/>
      </g>
     </g>
     <g id="text_14">
      <!-- 0k -->
      <g style="fill: #555555" transform="translate(35.53875 571.540969)scale(0.1 -0.1)">
       <defs>
        <path id="DejaVuSans-6b" d="M 581 4863 
L 1159 4863 
L 1159 1991 
L 2875 3500 
L 3609 3500 
L 1753 1863 
L 3688 0 
L 2938 0 
L 1159 1709 
L 1159 0 
L 581 0 
L 581 4863 
z
" transform="scale(0.015625)"/>
       </defs>
       <use xlink:href="#DejaVuSans-30"/>
       <use xlink:href="#DejaVuSans-6b" x="63.623047"/>
      </g>
     </g>
    </g>
    <g id="ytick_2">
     <g id="line2d_27">
      <path d="M 54.691875 484.318775 
L 957.535875 484.318775 
" clip-path="url(#pde7369c555)" style="fill: none; stroke: #ffffff; stroke-width: 0.8; stroke-linecap: square"/>
     </g>
     <g id="line2d_28">
      <g>
       <use xlink:href="#m46cd882c23" x="54.691875" y="484.318775" style="fill: #555555; stroke: #555555; stroke-width: 0.8"/>
      </g>
     </g>
     <g id="text_15">
      <!-- 100k -->
      <g style="fill: #555555" transform="translate(22.81375 488.117993)scale(0.1 -0.1)">
       <use xlink:href="#DejaVuSans-31"/>
       <use xlink:href="#DejaVuSans-30" x="63.623047"/>
       <use xlink:href="#DejaVuSans-30" x="127.246094"/>
       <use xlink:href="#DejaVuSans-6b" x="190.869141"/>
      </g>
     </g>
    </g>
    <g id="ytick_3">
     <g id="line2d_29">
      <path d="M 54.691875 400.895799 
L 957.535875 400.895799 
" clip-path="url(#pde7369c555)" style="fill: none; stroke: #ffffff; stroke-width: 0.8; stroke-linecap: square"/>
     </g>
     <g id="line2d_30">
      <g>
       <use xlink:href="#m46cd882c23" x="54.691875" y="400.895799" style="fill: #555555; stroke: #555555; stroke-width: 0.8"/>
      </g>
     </g>
     <g id="text_16">
      <!-- 200k -->
      <g style="fill: #555555" transform="translate(22.81375 404.695018)scale(0.1 -0.1)">
       <use xlink:href="#DejaVuSans-32"/>
       <use xlink:href="#DejaVuSans-30" x="63.623047"/>
       <use xlink:href="#DejaVuSans-30" x="127.246094"/>
       <use xlink:href="#DejaVuSans-6b" x="190.869141"/>
      </g>
     </g>
    </g>
    <g id="ytick_4">
     <g id="line2d_31">
      <path d="M 54.691875 317.472824 
L 957.535875 317.472824 
" clip-path="url(#pde7369c555)" style="fill: none; stroke: #ffffff; stroke-width: 0.8; stroke-linecap: square"/>
     </g>
     <g id="line2d_32">
      <g>
       <use xlink:href="#m46cd882c23" x="54.691875" y="317.472824" style="fill: #555555; stroke: #555555; stroke-width: 0.8"/>
      </g>
     </g>
     <g id="text_17">
      <!-- 300k -->
      <g style="fill: #555555" transform="translate(22.81375 321.272042)scale(0.1 -0.1)">
       <use xlink:href="#DejaVuSans-33"/>
       <use xlink:href="#DejaVuSans-30" x="63.623047"/>
       <use xlink:href="#DejaVuSans-30" x="127.246094"/>
       <use xlink:href="#DejaVuSans-6b" x="190.869141"/>
      </g>
     </g>
    </g>
    <g id="ytick_5">
     <g id="line2d_33">
      <path d="M 54.691875 234.049848 
L 957.535875 234.049848 
" clip-path="url(#pde7369c555)" style="fill: none; stroke: #ffffff; stroke-width: 0.8; stroke-linecap: square"/>
     </g>
     <g id="line2d_34">
      <g>
       <use xlink:href="#m46cd882c23" x="54.691875" y="234.049848" style="fill: #555555; stroke: #555555; stroke-width: 0.8"/>
      </g>
     </g>
     <g id="text_18">
      <!-- 400k -->
      <g style="fill: #555555" transform="translate(22.81375 237.849067)scale(0.1 -0.1)">
       <use xlink:href="#DejaVuSans-34"/>
       <use xlink:href="#DejaVuSans-30" x="63.623047"/>
       <use xlink:href="#DejaVuSans-30" x="127.246094"/>
       <use xlink:href="#DejaVuSans-6b" x="190.869141"/>
      </g>
     </g>
    </g>
    <g id="ytick_6">
     <g id="line2d_35">
      <path d="M 54.691875 150.626873 
L 957.535875 150.626873 
" clip-path="url(#pde7369c555)" style="fill: none; stroke: #ffffff; stroke-width: 0.8; stroke-linecap: square"/>
     </g>
     <g id="line2d_36">
      <g>
       <use xlink:href="#m46cd882c23" x="54.691875" y="150.626873" style="fill: #555555; stroke: #555555; stroke-width: 0.8"/>
      </g>
     </g>
     <g id="text_19">
      <!-- 500k -->
      <g style="fill: #555555" transform="translate(22.81375 154.426092)scale(0.1 -0.1)">
       <use xlink:href="#DejaVuSans-35"/>
       <use xlink:href="#DejaVuSans-30" x="63.623047"/>
       <use xlink:href="#DejaVuSans-30" x="127.246094"/>
       <use xlink:href="#DejaVuSans-6b" x="190.869141"/>
      </g>
     </g>
    </g>
    <g id="ytick_7">
     <g id="line2d_37">
      <path d="M 54.691875 67.203897 
L 957.535875 67.203897 
" clip-path="url(#pde7369c555)" style="fill: none; stroke: #ffffff; stroke-width: 0.8; stroke-linecap: square"/>
     </g>
     <g id="line2d_38">
      <g>
       <use xlink:href="#m46cd882c23" x="54.691875" y="67.203897" style="fill: #555555; stroke: #555555; stroke-width: 0.8"/>
      </g>
     </g>
     <g id="text_20">
      <!-- 600k -->
      <g style="fill: #555555" transform="translate(22.81375 71.003116)scale(0.1 -0.1)">
       <use xlink:href="#DejaVuSans-36"/>
       <use xlink:href="#DejaVuSans-30" x="63.623047"/>
       <use xlink:href="#DejaVuSans-30" x="127.246094"/>
       <use xlink:href="#DejaVuSans-6b" x="190.869141"/>
      </g>
     </g>
    </g>
    <g id="text_21">
     <!-- Instances -->
     <g style="fill: #555555" transform="translate(16.318125 324.588)rotate(-90)scale(0.12 -0.12)">
      <defs>
       <path id="DejaVuSans-49" d="M 628 4666 
L 1259 4666 
L 1259 0 
L 628 0 
L 628 4666 
z
" transform="scale(0.015625)"/>
       <path id="DejaVuSans-6e" d="M 3513 2113 
L 3513 0 
L 2938 0 
L 2938 2094 
Q 2938 2591 2744 2837 
Q 2550 3084 2163 3084 
Q 1697 3084 1428 2787 
Q 1159 2491 1159 1978 
L 1159 0 
L 581 0 
L 581 3500 
L 1159 3500 
L 1159 2956 
Q 1366 3272 1645 3428 
Q 1925 3584 2291 3584 
Q 2894 3584 3203 3211 
Q 3513 2838 3513 2113 
z
" transform="scale(0.015625)"/>
       <path id="DejaVuSans-73" d="M 2834 3397 
L 2834 2853 
Q 2591 2978 2328 3040 
Q 2066 3103 1784 3103 
Q 1356 3103 1142 2972 
Q 928 2841 928 2578 
Q 928 2378 1081 2264 
Q 1234 2150 1697 2047 
L 1894 2003 
Q 2506 1872 2764 1633 
Q 3022 1394 3022 966 
Q 3022 478 2636 193 
Q 2250 -91 1575 -91 
Q 1294 -91 989 -36 
Q 684 19 347 128 
L 347 722 
Q 666 556 975 473 
Q 1284 391 1588 391 
Q 1994 391 2212 530 
Q 2431 669 2431 922 
Q 2431 1156 2273 1281 
Q 2116 1406 1581 1522 
L 1381 1569 
Q 847 1681 609 1914 
Q 372 2147 372 2553 
Q 372 3047 722 3315 
Q 1072 3584 1716 3584 
Q 2034 3584 2315 3537 
Q 2597 3491 2834 3397 
z
" transform="scale(0.015625)"/>
       <path id="DejaVuSans-63" d="M 3122 3366 
L 3122 2828 
Q 2878 2963 2633 3030 
Q 2388 3097 2138 3097 
Q 1578 3097 1268 2742 
Q 959 2388 959 1747 
Q 959 1106 1268 751 
Q 1578 397 2138 397 
Q 2388 397 2633 464 
Q 2878 531 3122 666 
L 3122 134 
Q 2881 22 2623 -34 
Q 2366 -91 2075 -91 
Q 1284 -91 818 406 
Q 353 903 353 1747 
Q 353 2603 823 3093 
Q 1294 3584 2113 3584 
Q 2378 3584 2631 3529 
Q 2884 3475 3122 3366 
z
" transform="scale(0.015625)"/>
      </defs>
      <use xlink:href="#DejaVuSans-49"/>
      <use xlink:href="#DejaVuSans-6e" x="29.492188"/>
      <use xlink:href="#DejaVuSans-73" x="92.871094"/>
      <use xlink:href="#DejaVuSans-74" x="144.970703"/>
      <use xlink:href="#DejaVuSans-61" x="184.179688"/>
      <use xlink:href="#DejaVuSans-6e" x="245.458984"/>
      <use xlink:href="#DejaVuSans-63" x="308.837891"/>
      <use xlink:href="#DejaVuSans-65" x="363.818359"/>
      <use xlink:href="#DejaVuSans-73" x="425.341797"/>
     </g>
    </g>
   </g>
   <g id="line2d_39">
    <path d="M 54.691875 429.08006 
L 63.811511 427.480614 
L 72.931148 425.881169 
L 82.050784 424.281724 
L 91.17042 422.682279 
L 100.290057 421.082833 
L 109.409693 419.483388 
L 118.52933 417.883943 
L 127.648966 416.284498 
L 136.768602 414.685053 
L 145.888239 413.085607 
L 155.007875 411.486162 
L 164.127511 409.886717 
L 173.247148 408.287272 
L 182.366784 406.687827 
L 191.48642 405.088381 
L 200.606057 403.488936 
L 209.725693 401.889491 
L 218.84533 400.290046 
L 227.964966 398.6906 
L 237.084602 397.091155 
L 246.204239 395.49171 
L 255.323875 393.892265 
L 264.443511 392.29282 
L 273.563148 390.693374 
L 282.682784 389.093929 
L 291.80242 387.494484 
L 300.922057 385.895039 
L 310.041693 384.295593 
L 319.16133 382.696148 
L 328.280966 381.096703 
L 337.400602 379.497258 
L 346.520239 377.897813 
L 355.639875 376.298367 
L 364.759511 374.698922 
L 373.879148 373.099477 
L 382.998784 371.500032 
L 392.11842 369.900586 
L 401.238057 368.301141 
L 410.357693 366.701696 
L 419.47733 365.102251 
L 428.596966 363.502806 
L 437.716602 361.90336 
L 446.836239 360.303915 
L 455.955875 358.70447 
L 465.075511 357.105025 
L 474.195148 355.505579 
L 483.314784 353.906134 
L 492.43442 352.306689 
L 501.554057 350.707244 
L 510.673693 349.107799 
L 519.79333 347.508353 
L 528.912966 345.908908 
L 538.032602 344.309463 
L 547.152239 342.710018 
L 556.271875 341.110572 
L 565.391511 339.511127 
L 574.511148 337.911682 
L 583.630784 336.312237 
L 592.75042 334.712792 
L 601.870057 333.113346 
L 610.989693 331.513901 
L 620.10933 329.914456 
L 629.228966 328.315011 
L 638.348602 326.715565 
L 647.468239 325.11612 
L 656.587875 323.516675 
L 665.707511 321.91723 
L 674.827148 320.317785 
L 683.946784 318.718339 
L 693.06642 317.118894 
L 702.186057 315.519449 
L 711.305693 313.920004 
L 720.42533 312.320558 
L 729.544966 310.721113 
L 738.664602 309.121668 
L 747.784239 307.522223 
L 756.903875 305.922778 
L 766.023511 304.323332 
L 775.143148 302.723887 
L 784.262784 301.124442 
L 793.38242 299.524997 
L 802.502057 297.925551 
L 811.621693 296.326106 
L 820.74133 294.726661 
L 829.860966 293.127216 
L 838.980602 291.527771 
L 848.100239 289.928325 
L 857.219875 288.32888 
L 866.339511 286.729435 
L 875.459148 285.12999 
L 884.578784 283.530544 
L 893.69842 281.931099 
L 902.818057 280.331654 
L 911.937693 278.732209 
L 921.05733 277.132764 
L 930.176966 275.533318 
L 939.296602 273.933873 
L 948.416239 272.334428 
L 957.535875 270.734983 
" clip-path="url(#pde7369c555)" style="fill: none; stroke-dasharray: 1.5,2.475; stroke-dashoffset: 0; stroke: #4ac1fa; stroke-width: 1.5"/>
   </g>
   <g id="line2d_40">
    <path d="M 54.691875 183.979211 
L 63.811511 185.229848 
L 72.931148 186.480485 
L 82.050784 187.731121 
L 91.17042 188.981758 
L 100.290057 190.232395 
L 109.409693 191.483031 
L 118.52933 192.733668 
L 127.648966 193.984305 
L 136.768602 195.234941 
L 145.888239 196.485578 
L 155.007875 197.736215 
L 164.127511 198.986851 
L 173.247148 200.237488 
L 182.366784 201.488124 
L 191.48642 202.738761 
L 200.606057 203.989398 
L 209.725693 205.240034 
L 218.84533 206.490671 
L 227.964966 207.741308 
L 237.084602 208.991944 
L 246.204239 210.242581 
L 255.323875 211.493218 
L 264.443511 212.743854 
L 273.563148 213.994491 
L 282.682784 215.245128 
L 291.80242 216.495764 
L 300.922057 217.746401 
L 310.041693 218.997038 
L 319.16133 220.247674 
L 328.280966 221.498311 
L 337.400602 222.748948 
L 346.520239 223.999584 
L 355.639875 225.250221 
L 364.759511 226.500858 
L 373.879148 227.751494 
L 382.998784 229.002131 
L 392.11842 230.252768 
L 401.238057 231.503404 
L 410.357693 232.754041 
L 419.47733 234.004678 
L 428.596966 235.255314 
L 437.716602 236.505951 
L 446.836239 237.756588 
L 455.955875 239.007224 
L 465.075511 240.257861 
L 474.195148 241.508498 
L 483.314784 242.759134 
L 492.43442 244.009771 
L 501.554057 245.260408 
L 510.673693 246.511044 
L 519.79333 247.761681 
L 528.912966 249.012318 
L 538.032602 250.262954 
L 547.152239 251.513591 
L 556.271875 252.764228 
L 565.391511 254.014864 
L 574.511148 255.265501 
L 583.630784 256.516138 
L 592.75042 257.766774 
L 601.870057 259.017411 
L 610.989693 260.268048 
L 620.10933 261.518684 
L 629.228966 262.769321 
L 638.348602 264.019958 
L 647.468239 265.270594 
L 656.587875 266.521231 
L 665.707511 267.771868 
L 674.827148 269.022504 
L 683.946784 270.273141 
L 693.06642 271.523778 
L 702.186057 272.774414 
L 711.305693 274.025051 
L 720.42533 275.275688 
L 729.544966 276.526324 
L 738.664602 277.776961 
L 747.784239 279.027598 
L 756.903875 280.278234 
L 766.023511 281.528871 
L 775.143148 282.779508 
L 784.262784 284.030144 
L 793.38242 285.280781 
L 802.502057 286.531418 
L 811.621693 287.782054 
L 820.74133 289.032691 
L 829.860966 290.283328 
L 838.980602 291.533964 
L 848.100239 292.784601 
L 857.219875 294.035238 
L 866.339511 295.285874 
L 875.459148 296.536511 
L 884.578784 297.787148 
L 893.69842 299.037784 
L 902.818057 300.288421 
L 911.937693 301.539058 
L 921.05733 302.789694 
L 930.176966 304.040331 
L 939.296602 305.290968 
L 948.416239 306.541604 
L 957.535875 307.792241 
" clip-path="url(#pde7369c555)" style="fill: none; stroke-dasharray: 1.5,2.475; stroke-dashoffset: 0; stroke: #e9a942; stroke-width: 1.5"/>
   </g>
   <g id="line2d_41">
    <path d="M 54.691875 357.149111 
L 63.811511 356.794583 
L 72.931148 356.440055 
L 82.050784 356.085527 
L 91.17042 355.730999 
L 100.290057 355.376471 
L 109.409693 355.021943 
L 118.52933 354.667415 
L 127.648966 354.312887 
L 136.768602 353.958359 
L 145.888239 353.603832 
L 155.007875 353.249304 
L 164.127511 352.894776 
L 173.247148 352.540248 
L 182.366784 352.18572 
L 191.48642 351.831192 
L 200.606057 351.476664 
L 209.725693 351.122136 
L 218.84533 350.767608 
L 227.964966 350.41308 
L 237.084602 350.058552 
L 246.204239 349.704024 
L 255.323875 349.349496 
L 264.443511 348.994968 
L 273.563148 348.64044 
L 282.682784 348.285913 
L 291.80242 347.931385 
L 300.922057 347.576857 
L 310.041693 347.222329 
L 319.16133 346.867801 
L 328.280966 346.513273 
L 337.400602 346.158745 
L 346.520239 345.804217 
L 355.639875 345.449689 
L 364.759511 345.095161 
L 373.879148 344.740633 
L 382.998784 344.386105 
L 392.11842 344.031577 
L 401.238057 343.677049 
L 410.357693 343.322521 
L 419.47733 342.967994 
L 428.596966 342.613466 
L 437.716602 342.258938 
L 446.836239 341.90441 
L 455.955875 341.549882 
L 465.075511 341.195354 
L 474.195148 340.840826 
L 483.314784 340.486298 
L 492.43442 340.13177 
L 501.554057 339.777242 
L 510.673693 339.422714 
L 519.79333 339.068186 
L 528.912966 338.713658 
L 538.032602 338.35913 
L 547.152239 338.004602 
L 556.271875 337.650075 
L 565.391511 337.295547 
L 574.511148 336.941019 
L 583.630784 336.586491 
L 592.75042 336.231963 
L 601.870057 335.877435 
L 610.989693 335.522907 
L 620.10933 335.168379 
L 629.228966 334.813851 
L 638.348602 334.459323 
L 647.468239 334.104795 
L 656.587875 333.750267 
L 665.707511 333.395739 
L 674.827148 333.041211 
L 683.946784 332.686684 
L 693.06642 332.332156 
L 702.186057 331.977628 
L 711.305693 331.6231 
L 720.42533 331.268572 
L 729.544966 330.914044 
L 738.664602 330.559516 
L 747.784239 330.204988 
L 756.903875 329.85046 
L 766.023511 329.495932 
L 775.143148 329.141404 
L 784.262784 328.786876 
L 793.38242 328.432348 
L 802.502057 328.07782 
L 811.621693 327.723292 
L 820.74133 327.368765 
L 829.860966 327.014237 
L 838.980602 326.659709 
L 848.100239 326.305181 
L 857.219875 325.950653 
L 866.339511 325.596125 
L 875.459148 325.241597 
L 884.578784 324.887069 
L 893.69842 324.532541 
L 902.818057 324.178013 
L 911.937693 323.823485 
L 921.05733 323.468957 
L 930.176966 323.114429 
L 939.296602 322.759901 
L 948.416239 322.405373 
L 957.535875 322.050846 
" clip-path="url(#pde7369c555)" style="fill: none; stroke-dasharray: 1.5,2.475; stroke-dashoffset: 0; stroke: #9a5689; stroke-width: 1.5"/>
   </g>
   <g id="line2d_42">
    <path d="M 54.691875 525.010514 
L 63.811511 524.770354 
L 72.931148 524.530194 
L 82.050784 524.290034 
L 91.17042 524.049874 
L 100.290057 523.809713 
L 109.409693 523.569553 
L 118.52933 523.329393 
L 127.648966 523.089233 
L 136.768602 522.849073 
L 145.888239 522.608913 
L 155.007875 522.368752 
L 164.127511 522.128592 
L 173.247148 521.888432 
L 182.366784 521.648272 
L 191.48642 521.408112 
L 200.606057 521.167952 
L 209.725693 520.927791 
L 218.84533 520.687631 
L 227.964966 520.447471 
L 237.084602 520.207311 
L 246.204239 519.967151 
L 255.323875 519.726991 
L 264.443511 519.48683 
L 273.563148 519.24667 
L 282.682784 519.00651 
L 291.80242 518.76635 
L 300.922057 518.52619 
L 310.041693 518.28603 
L 319.16133 518.045869 
L 328.280966 517.805709 
L 337.400602 517.565549 
L 346.520239 517.325389 
L 355.639875 517.085229 
L 364.759511 516.845069 
L 373.879148 516.604908 
L 382.998784 516.364748 
L 392.11842 516.124588 
L 401.238057 515.884428 
L 410.357693 515.644268 
L 419.47733 515.404108 
L 428.596966 515.163947 
L 437.716602 514.923787 
L 446.836239 514.683627 
L 455.955875 514.443467 
L 465.075511 514.203307 
L 474.195148 513.963147 
L 483.314784 513.722986 
L 492.43442 513.482826 
L 501.554057 513.242666 
L 510.673693 513.002506 
L 519.79333 512.762346 
L 528.912966 512.522186 
L 538.032602 512.282025 
L 547.152239 512.041865 
L 556.271875 511.801705 
L 565.391511 511.561545 
L 574.511148 511.321385 
L 583.630784 511.081225 
L 592.75042 510.841064 
L 601.870057 510.600904 
L 610.989693 510.360744 
L 620.10933 510.120584 
L 629.228966 509.880424 
L 638.348602 509.640264 
L 647.468239 509.400103 
L 656.587875 509.159943 
L 665.707511 508.919783 
L 674.827148 508.679623 
L 683.946784 508.439463 
L 693.06642 508.199303 
L 702.186057 507.959142 
L 711.305693 507.718982 
L 720.42533 507.478822 
L 729.544966 507.238662 
L 738.664602 506.998502 
L 747.784239 506.758342 
L 756.903875 506.518181 
L 766.023511 506.278021 
L 775.143148 506.037861 
L 784.262784 505.797701 
L 793.38242 505.557541 
L 802.502057 505.317381 
L 811.621693 505.07722 
L 820.74133 504.83706 
L 829.860966 504.5969 
L 838.980602 504.35674 
L 848.100239 504.11658 
L 857.219875 503.87642 
L 866.339511 503.636259 
L 875.459148 503.396099 
L 884.578784 503.155939 
L 893.69842 502.915779 
L 902.818057 502.675619 
L 911.937693 502.435459 
L 921.05733 502.195298 
L 930.176966 501.955138 
L 939.296602 501.714978 
L 948.416239 501.474818 
L 957.535875 501.234658 
" clip-path="url(#pde7369c555)" style="fill: none; stroke-dasharray: 1.5,2.475; stroke-dashoffset: 0; stroke: #be503b; stroke-width: 1.5"/>
   </g>
   <g id="line2d_43">
    <path d="M 54.691875 317.383437 
L 63.811511 316.428804 
L 72.931148 315.474171 
L 82.050784 314.519537 
L 91.17042 313.564904 
L 100.290057 312.610271 
L 109.409693 311.655638 
L 118.52933 310.701004 
L 127.648966 309.746371 
L 136.768602 308.791738 
L 145.888239 307.837105 
L 155.007875 306.882471 
L 164.127511 305.927838 
L 173.247148 304.973205 
L 182.366784 304.018572 
L 191.48642 303.063938 
L 200.606057 302.109305 
L 209.725693 301.154672 
L 218.84533 300.200039 
L 227.964966 299.245405 
L 237.084602 298.290772 
L 246.204239 297.336139 
L 255.323875 296.381506 
L 264.443511 295.426872 
L 273.563148 294.472239 
L 282.682784 293.517606 
L 291.80242 292.562973 
L 300.922057 291.608339 
L 310.041693 290.653706 
L 319.16133 289.699073 
L 328.280966 288.74444 
L 337.400602 287.789806 
L 346.520239 286.835173 
L 355.639875 285.88054 
L 364.759511 284.925906 
L 373.879148 283.971273 
L 382.998784 283.01664 
L 392.11842 282.062007 
L 401.238057 281.107373 
L 410.357693 280.15274 
L 419.47733 279.198107 
L 428.596966 278.243474 
L 437.716602 277.28884 
L 446.836239 276.334207 
L 455.955875 275.379574 
L 465.075511 274.424941 
L 474.195148 273.470307 
L 483.314784 272.515674 
L 492.43442 271.561041 
L 501.554057 270.606408 
L 510.673693 269.651774 
L 519.79333 268.697141 
L 528.912966 267.742508 
L 538.032602 266.787875 
L 547.152239 265.833241 
L 556.271875 264.878608 
L 565.391511 263.923975 
L 574.511148 262.969342 
L 583.630784 262.014708 
L 592.75042 261.060075 
L 601.870057 260.105442 
L 610.989693 259.150808 
L 620.10933 258.196175 
L 629.228966 257.241542 
L 638.348602 256.286909 
L 647.468239 255.332275 
L 656.587875 254.377642 
L 665.707511 253.423009 
L 674.827148 252.468376 
L 683.946784 251.513742 
L 693.06642 250.559109 
L 702.186057 249.604476 
L 711.305693 248.649843 
L 720.42533 247.695209 
L 729.544966 246.740576 
L 738.664602 245.785943 
L 747.784239 244.83131 
L 756.903875 243.876676 
L 766.023511 242.922043 
L 775.143148 241.96741 
L 784.262784 241.012777 
L 793.38242 240.058143 
L 802.502057 239.10351 
L 811.621693 238.148877 
L 820.74133 237.194244 
L 829.860966 236.23961 
L 838.980602 235.284977 
L 848.100239 234.330344 
L 857.219875 233.375711 
L 866.339511 232.421077 
L 875.459148 231.466444 
L 884.578784 230.511811 
L 893.69842 229.557177 
L 902.818057 228.602544 
L 911.937693 227.647911 
L 921.05733 226.693278 
L 930.176966 225.738644 
L 939.296602 224.784011 
L 948.416239 223.829378 
L 957.535875 222.874745 
" clip-path="url(#pde7369c555)" style="fill: none; stroke-dasharray: 1.5,2.475; stroke-dashoffset: 0; stroke: #e2321d; stroke-width: 1.5"/>
   </g>
   <g id="line2d_44">
    <path d="M 54.691875 341.91612 
L 63.811511 339.501477 
L 72.931148 337.086834 
L 82.050784 334.672191 
L 91.17042 332.257548 
L 100.290057 329.842905 
L 109.409693 327.428262 
L 118.52933 325.013619 
L 127.648966 322.598976 
L 136.768602 320.184333 
L 145.888239 317.76969 
L 155.007875 315.355047 
L 164.127511 312.940404 
L 173.247148 310.525761 
L 182.366784 308.111118 
L 191.48642 305.696475 
L 200.606057 303.281832 
L 209.725693 300.867189 
L 218.84533 298.452546 
L 227.964966 296.037904 
L 237.084602 293.623261 
L 246.204239 291.208618 
L 255.323875 288.793975 
L 264.443511 286.379332 
L 273.563148 283.964689 
L 282.682784 281.550046 
L 291.80242 279.135403 
L 300.922057 276.72076 
L 310.041693 274.306117 
L 319.16133 271.891474 
L 328.280966 269.476831 
L 337.400602 267.062188 
L 346.520239 264.647545 
L 355.639875 262.232902 
L 364.759511 259.818259 
L 373.879148 257.403616 
L 382.998784 254.988973 
L 392.11842 252.57433 
L 401.238057 250.159687 
L 410.357693 247.745044 
L 419.47733 245.330401 
L 428.596966 242.915758 
L 437.716602 240.501115 
L 446.836239 238.086472 
L 455.955875 235.671829 
L 465.075511 233.257186 
L 474.195148 230.842543 
L 483.314784 228.4279 
L 492.43442 226.013257 
L 501.554057 223.598614 
L 510.673693 221.183971 
L 519.79333 218.769328 
L 528.912966 216.354685 
L 538.032602 213.940042 
L 547.152239 211.525399 
L 556.271875 209.110756 
L 565.391511 206.696113 
L 574.511148 204.28147 
L 583.630784 201.866827 
L 592.75042 199.452184 
L 601.870057 197.037541 
L 610.989693 194.622898 
L 620.10933 192.208255 
L 629.228966 189.793612 
L 638.348602 187.378969 
L 647.468239 184.964326 
L 656.587875 182.549683 
L 665.707511 180.13504 
L 674.827148 177.720397 
L 683.946784 175.305754 
L 693.06642 172.891111 
L 702.186057 170.476468 
L 711.305693 168.061825 
L 720.42533 165.647182 
L 729.544966 163.232539 
L 738.664602 160.817896 
L 747.784239 158.403253 
L 756.903875 155.98861 
L 766.023511 153.573967 
L 775.143148 151.159324 
L 784.262784 148.744681 
L 793.38242 146.330038 
L 802.502057 143.915395 
L 811.621693 141.500752 
L 820.74133 139.086109 
L 829.860966 136.671466 
L 838.980602 134.256823 
L 848.100239 131.84218 
L 857.219875 129.427537 
L 866.339511 127.012894 
L 875.459148 124.598251 
L 884.578784 122.183608 
L 893.69842 119.768965 
L 902.818057 117.354322 
L 911.937693 114.939679 
L 921.05733 112.525036 
L 930.176966 110.110393 
L 939.296602 107.69575 
L 948.416239 105.281107 
L 957.535875 102.866464 
" clip-path="url(#pde7369c555)" style="fill: none; stroke-dasharray: 1.5,2.475; stroke-dashoffset: 0; stroke: #48b585; stroke-width: 1.5"/>
   </g>
   <g id="line2d_45">
    <path d="M 54.691875 418.697428 
L 72.394699 416.737822 
L 90.097522 416.275659 
L 107.800346 419.610909 
L 125.503169 413.947324 
L 143.205993 415.071865 
L 160.908816 411.778326 
L 178.61164 401.752553 
L 196.314463 399.680326 
L 214.017287 397.333638 
L 231.72011 395.676858 
L 249.422934 392.979793 
L 267.125757 394.620723 
L 284.828581 389.378423 
L 302.531404 385.586015 
L 320.234228 383.883352 
L 337.937051 380.62485 
L 355.639875 379.773102 
L 373.342699 382.73128 
L 391.045522 371.557607 
L 408.748346 372.297569 
L 461.856816 362.138319 
L 479.55964 378.570142 
L 497.262463 363.557344 
L 514.965287 347.254826 
L 532.66811 344.621997 
L 550.370934 345.185936 
L 568.073757 333.542591 
L 585.776581 334.733037 
L 603.479404 329.907018 
L 621.182228 329.569989 
L 638.885051 326.202204 
L 656.587875 323.566872 
L 674.290699 322.116147 
L 691.993522 323.971473 
L 709.696346 326.281456 
L 727.399169 317.572931 
L 745.101993 316.389993 
L 762.804816 302.927194 
L 780.50764 297.047542 
L 798.210463 294.448082 
L 815.913287 296.171601 
L 833.61611 291.907853 
L 851.318934 289.018081 
L 904.427404 274.312279 
L 922.130228 268.716266 
L 939.833051 260.000233 
L 957.535875 261.397568 
" clip-path="url(#pde7369c555)" style="fill: none; stroke: #4ac1fa; stroke-width: 1.5; stroke-linecap: square"/>
   </g>
   <g id="line2d_46">
    <path d="M 54.691875 177.941223 
L 72.394699 188.175554 
L 90.097522 259.206881 
L 107.800346 246.206244 
L 125.503169 269.662282 
L 143.205993 257.630187 
L 160.908816 209.002934 
L 178.61164 176.284443 
L 196.314463 165.472826 
L 214.017287 197.211097 
L 231.72011 164.21147 
L 249.422934 145.116785 
L 267.125757 150.706125 
L 284.828581 194.233731 
L 302.531404 125.051057 
L 320.234228 84.767771 
L 337.937051 201.757649 
L 355.639875 224.291863 
L 373.342699 308.165322 
L 391.045522 152.141 
L 408.748346 197.600682 
L 461.856816 222.673457 
L 479.55964 153.228001 
L 497.262463 189.894067 
L 514.965287 244.524437 
L 532.66811 281.26475 
L 550.370934 305.153753 
L 568.073757 333.231424 
L 585.776581 375.446786 
L 603.479404 319.243893 
L 621.182228 304.271972 
L 638.885051 307.825791 
L 656.587875 345.589703 
L 674.290699 296.026445 
L 691.993522 274.001945 
L 709.696346 304.44716 
L 727.399169 348.281763 
L 745.101993 331.109977 
L 762.804816 280.958587 
L 780.50764 240.319919 
L 798.210463 284.084446 
L 815.913287 341.639625 
L 833.61611 306.637848 
L 851.318934 287.302905 
L 904.427404 241.275112 
L 922.130228 188.621033 
L 939.833051 238.614753 
L 957.535875 279.46615 
" clip-path="url(#pde7369c555)" style="fill: none; stroke: #e9a942; stroke-width: 1.5; stroke-linecap: square"/>
   </g>
   <g id="line2d_47">
    <path d="M 54.691875 350.17463 
L 72.394699 345.38782 
L 90.097522 352.371991 
L 107.800346 359.20767 
L 125.503169 346.319654 
L 143.205993 348.733915 
L 160.908816 351.129823 
L 178.61164 336.24049 
L 196.314463 330.860543 
L 214.017287 325.019266 
L 231.72011 330.911431 
L 249.422934 324.660547 
L 267.125757 341.183302 
L 284.828581 347.601031 
L 302.531404 347.826273 
L 320.234228 357.037004 
L 337.937051 355.338512 
L 355.639875 361.03213 
L 373.342699 372.158253 
L 391.045522 363.262861 
L 408.748346 361.429224 
L 461.856816 359.124247 
L 479.55964 369.549616 
L 497.262463 344.678724 
L 514.965287 310.358512 
L 532.66811 350.721885 
L 550.370934 354.927237 
L 568.073757 345.893363 
L 585.776581 351.013031 
L 603.479404 348.873232 
L 621.182228 346.857733 
L 638.885051 348.564567 
L 656.587875 349.180228 
L 674.290699 352.445403 
L 691.993522 343.484942 
L 709.696346 338.282685 
L 727.399169 335.916809 
L 745.101993 306.339193 
L 762.804816 325.225321 
L 780.50764 333.270633 
L 798.210463 329.474887 
L 815.913287 328.266088 
L 833.61611 329.247142 
L 851.318934 324.605488 
L 904.427404 304.785858 
L 922.130228 290.820017 
L 939.833051 288.774486 
L 957.535875 305.630098 
" clip-path="url(#pde7369c555)" style="fill: none; stroke: #9a5689; stroke-width: 1.5; stroke-linecap: square"/>
   </g>
   <g id="line2d_48">
    <path d="M 54.691875 525.7241 
L 72.394699 524.39684 
L 90.097522 523.969715 
L 107.800346 524.928245 
L 125.503169 522.419716 
L 143.205993 525.378729 
L 160.908816 524.775581 
L 178.61164 521.211751 
L 196.314463 520.364174 
L 214.017287 520.325799 
L 231.72011 519.10699 
L 249.422934 519.009385 
L 267.125757 518.720741 
L 284.828581 518.163476 
L 302.531404 516.474995 
L 320.234228 517.449375 
L 337.937051 516.208041 
L 355.639875 517.282529 
L 373.342699 518.961834 
L 391.045522 516.493348 
L 408.748346 515.484764 
L 461.856816 513.933097 
L 479.55964 515.90605 
L 497.262463 512.954545 
L 514.965287 512.77018 
L 532.66811 512.821903 
L 550.370934 513.49596 
L 568.073757 510.189908 
L 585.776581 511.663992 
L 603.479404 510.259149 
L 621.182228 509.285603 
L 638.885051 509.97134 
L 656.587875 509.486652 
L 674.290699 508.725834 
L 691.993522 508.075135 
L 709.696346 507.578769 
L 727.399169 507.622149 
L 745.101993 504.545509 
L 762.804816 505.716768 
L 780.50764 503.058912 
L 798.210463 504.615584 
L 815.913287 504.132565 
L 833.61611 504.459584 
L 851.318934 504.86919 
L 904.427404 503.667065 
L 922.130228 503.143169 
L 939.833051 502.972152 
L 957.535875 502.96381 
" clip-path="url(#pde7369c555)" style="fill: none; stroke: #be503b; stroke-width: 1.5; stroke-linecap: square"/>
   </g>
   <g id="line2d_49">
    <path d="M 54.691875 335.226901 
L 72.394699 325.088507 
L 90.097522 328.923461 
L 107.800346 352.603907 
L 125.503169 330.497653 
L 143.205993 332.487291 
L 160.908816 319.645158 
L 178.61164 285.327449 
L 196.314463 286.448653 
L 214.017287 280.081812 
L 231.72011 279.119945 
L 249.422934 273.895998 
L 267.125757 280.914373 
L 284.828581 282.246638 
L 302.531404 276.382003 
L 320.234228 282.345911 
L 337.937051 278.148902 
L 355.639875 302.676925 
L 373.342699 291.348919 
L 391.045522 271.276517 
L 408.748346 269.189274 
L 461.856816 266.41546 
L 479.55964 285.243191 
L 497.262463 296.26003 
L 514.965287 257.867108 
L 532.66811 256.766759 
L 550.370934 264.676925 
L 568.073757 280.579847 
L 585.776581 282.737999 
L 603.479404 243.058695 
L 621.182228 239.802697 
L 638.885051 227.830665 
L 656.587875 228.777516 
L 674.290699 265.250041 
L 691.993522 233.816264 
L 709.696346 242.181086 
L 727.399169 255.229273 
L 745.101993 209.073844 
L 762.804816 241.674708 
L 780.50764 249.121043 
L 798.210463 242.425515 
L 815.913287 251.895691 
L 833.61611 248.829897 
L 851.318934 247.301588 
L 904.427404 238.980146 
L 922.130228 242.464724 
L 939.833051 239.680065 
L 957.535875 227.385187 
" clip-path="url(#pde7369c555)" style="fill: none; stroke: #e2321d; stroke-width: 1.5; stroke-linecap: square"/>
   </g>
   <g id="line2d_50">
    <path d="M 54.691875 327.216627 
L 72.394699 315.422287 
L 90.097522 310.884077 
L 107.800346 318.712489 
L 125.503169 308.880257 
L 143.205993 319.56674 
L 160.908816 314.380334 
L 178.61164 287.041791 
L 196.314463 283.630625 
L 214.017287 292.695366 
L 231.72011 294.481452 
L 249.422934 274.83117 
L 267.125757 272.889917 
L 284.828581 271.816263 
L 302.531404 264.794552 
L 320.234228 278.135554 
L 337.937051 268.628672 
L 355.639875 275.289996 
L 373.342699 285.576049 
L 391.045522 265.932441 
L 408.748346 254.919774 
L 461.856816 252.815012 
L 479.55964 254.551879 
L 497.262463 239.096938 
L 514.965287 238.417041 
L 532.66811 235.674928 
L 550.370934 244.198253 
L 568.073757 215.743511 
L 585.776581 209.083854 
L 603.479404 212.474164 
L 621.182228 223.150637 
L 638.885051 204.834288 
L 656.587875 209.415878 
L 674.290699 201.544086 
L 691.993522 192.572779 
L 709.696346 179.835759 
L 727.399169 175.778066 
L 745.101993 171.894726 
L 762.804816 144.743885 
L 780.50764 141.115819 
L 798.210463 146.262183 
L 815.913287 126.605227 
L 833.61611 105.523407 
L 851.318934 112.299855 
L 904.427404 86.09503 
L 922.130228 89.597961 
L 939.833051 87.070245 
L 957.535875 48.026624 
" clip-path="url(#pde7369c555)" style="fill: none; stroke: #48b585; stroke-width: 6; stroke-linecap: square"/>
   </g>
   <g id="patch_3">
    <path d="M 54.691875 567.74175 
L 54.691875 24.14175 
" style="fill: none; stroke: #ffffff; stroke-linejoin: miter; stroke-linecap: square"/>
   </g>
   <g id="patch_4">
    <path d="M 957.535875 567.74175 
L 957.535875 24.14175 
" style="fill: none; stroke: #ffffff; stroke-linejoin: miter; stroke-linecap: square"/>
   </g>
   <g id="patch_5">
    <path d="M 54.691875 567.74175 
L 957.535875 567.74175 
" style="fill: none; stroke: #ffffff; stroke-linejoin: miter; stroke-linecap: square"/>
   </g>
   <g id="patch_6">
    <path d="M 54.691875 24.14175 
L 957.535875 24.14175 
" style="fill: none; stroke: #ffffff; stroke-linejoin: miter; stroke-linecap: square"/>
   </g>
   <g id="text_22">
    <!-- Enterprise Linux 8 and 9 Instances by Distribution (System Age &gt; 1 Week) -->
    <g transform="translate(54.691875 18.14175)scale(0.144 -0.144)">
     <defs>
      <path id="DejaVuSans-45" d="M 628 4666 
L 3578 4666 
L 3578 4134 
L 1259 4134 
L 1259 2753 
L 3481 2753 
L 3481 2222 
L 1259 2222 
L 1259 531 
L 3634 531 
L 3634 0 
L 628 0 
L 628 4666 
z
" transform="scale(0.015625)"/>
      <path id="DejaVuSans-72" d="M 2631 2963 
Q 2534 3019 2420 3045 
Q 2306 3072 2169 3072 
Q 1681 3072 1420 2755 
Q 1159 2438 1159 1844 
L 1159 0 
L 581 0 
L 581 3500 
L 1159 3500 
L 1159 2956 
Q 1341 3275 1631 3429 
Q 1922 3584 2338 3584 
Q 2397 3584 2469 3576 
Q 2541 3569 2628 3553 
L 2631 2963 
z
" transform="scale(0.015625)"/>
      <path id="DejaVuSans-70" d="M 1159 525 
L 1159 -1331 
L 581 -1331 
L 581 3500 
L 1159 3500 
L 1159 2969 
Q 1341 3281 1617 3432 
Q 1894 3584 2278 3584 
Q 2916 3584 3314 3078 
Q 3713 2572 3713 1747 
Q 3713 922 3314 415 
Q 2916 -91 2278 -91 
Q 1894 -91 1617 61 
Q 1341 213 1159 525 
z
M 3116 1747 
Q 3116 2381 2855 2742 
Q 2594 3103 2138 3103 
Q 1681 3103 1420 2742 
Q 1159 2381 1159 1747 
Q 1159 1113 1420 752 
Q 1681 391 2138 391 
Q 2594 391 2855 752 
Q 3116 1113 3116 1747 
z
" transform="scale(0.015625)"/>
      <path id="DejaVuSans-69" d="M 603 3500 
L 1178 3500 
L 1178 0 
L 603 0 
L 603 3500 
z
M 603 4863 
L 1178 4863 
L 1178 4134 
L 603 4134 
L 603 4863 
z
" transform="scale(0.015625)"/>
      <path id="DejaVuSans-20" transform="scale(0.015625)"/>
      <path id="DejaVuSans-4c" d="M 628 4666 
L 1259 4666 
L 1259 531 
L 3531 531 
L 3531 0 
L 628 0 
L 628 4666 
z
" transform="scale(0.015625)"/>
      <path id="DejaVuSans-75" d="M 544 1381 
L 544 3500 
L 1119 3500 
L 1119 1403 
Q 1119 906 1312 657 
Q 1506 409 1894 409 
Q 2359 409 2629 706 
Q 2900 1003 2900 1516 
L 2900 3500 
L 3475 3500 
L 3475 0 
L 2900 0 
L 2900 538 
Q 2691 219 2414 64 
Q 2138 -91 1772 -91 
Q 1169 -91 856 284 
Q 544 659 544 1381 
z
M 1991 3584 
L 1991 3584 
z
" transform="scale(0.015625)"/>
      <path id="DejaVuSans-78" d="M 3513 3500 
L 2247 1797 
L 3578 0 
L 2900 0 
L 1881 1375 
L 863 0 
L 184 0 
L 1544 1831 
L 300 3500 
L 978 3500 
L 1906 2253 
L 2834 3500 
L 3513 3500 
z
" transform="scale(0.015625)"/>
      <path id="DejaVuSans-64" d="M 2906 2969 
L 2906 4863 
L 3481 4863 
L 3481 0 
L 2906 0 
L 2906 525 
Q 2725 213 2448 61 
Q 2172 -91 1784 -91 
Q 1150 -91 751 415 
Q 353 922 353 1747 
Q 353 2572 751 3078 
Q 1150 3584 1784 3584 
Q 2172 3584 2448 3432 
Q 2725 3281 2906 2969 
z
M 947 1747 
Q 947 1113 1208 752 
Q 1469 391 1925 391 
Q 2381 391 2643 752 
Q 2906 1113 2906 1747 
Q 2906 2381 2643 2742 
Q 2381 3103 1925 3103 
Q 1469 3103 1208 2742 
Q 947 2381 947 1747 
z
" transform="scale(0.015625)"/>
      <path id="DejaVuSans-62" d="M 3116 1747 
Q 3116 2381 2855 2742 
Q 2594 3103 2138 3103 
Q 1681 3103 1420 2742 
Q 1159 2381 1159 1747 
Q 1159 1113 1420 752 
Q 1681 391 2138 391 
Q 2594 391 2855 752 
Q 3116 1113 3116 1747 
z
M 1159 2969 
Q 1341 3281 1617 3432 
Q 1894 3584 2278 3584 
Q 2916 3584 3314 3078 
Q 3713 2572 3713 1747 
Q 3713 922 3314 415 
Q 2916 -91 2278 -91 
Q 1894 -91 1617 61 
Q 1341 213 1159 525 
L 1159 0 
L 581 0 
L 581 4863 
L 1159 4863 
L 1159 2969 
z
" transform="scale(0.015625)"/>
      <path id="DejaVuSans-79" d="M 2059 -325 
Q 1816 -950 1584 -1140 
Q 1353 -1331 966 -1331 
L 506 -1331 
L 506 -850 
L 844 -850 
Q 1081 -850 1212 -737 
Q 1344 -625 1503 -206 
L 1606 56 
L 191 3500 
L 800 3500 
L 1894 763 
L 2988 3500 
L 3597 3500 
L 2059 -325 
z
" transform="scale(0.015625)"/>
      <path id="DejaVuSans-6f" d="M 1959 3097 
Q 1497 3097 1228 2736 
Q 959 2375 959 1747 
Q 959 1119 1226 758 
Q 1494 397 1959 397 
Q 2419 397 2687 759 
Q 2956 1122 2956 1747 
Q 2956 2369 2687 2733 
Q 2419 3097 1959 3097 
z
M 1959 3584 
Q 2709 3584 3137 3096 
Q 3566 2609 3566 1747 
Q 3566 888 3137 398 
Q 2709 -91 1959 -91 
Q 1206 -91 779 398 
Q 353 888 353 1747 
Q 353 2609 779 3096 
Q 1206 3584 1959 3584 
z
" transform="scale(0.015625)"/>
      <path id="DejaVuSans-28" d="M 1984 4856 
Q 1566 4138 1362 3434 
Q 1159 2731 1159 2009 
Q 1159 1288 1364 580 
Q 1569 -128 1984 -844 
L 1484 -844 
Q 1016 -109 783 600 
Q 550 1309 550 2009 
Q 550 2706 781 3412 
Q 1013 4119 1484 4856 
L 1984 4856 
z
" transform="scale(0.015625)"/>
      <path id="DejaVuSans-53" d="M 3425 4513 
L 3425 3897 
Q 3066 4069 2747 4153 
Q 2428 4238 2131 4238 
Q 1616 4238 1336 4038 
Q 1056 3838 1056 3469 
Q 1056 3159 1242 3001 
Q 1428 2844 1947 2747 
L 2328 2669 
Q 3034 2534 3370 2195 
Q 3706 1856 3706 1288 
Q 3706 609 3251 259 
Q 2797 -91 1919 -91 
Q 1588 -91 1214 -16 
Q 841 59 441 206 
L 441 856 
Q 825 641 1194 531 
Q 1563 422 1919 422 
Q 2459 422 2753 634 
Q 3047 847 3047 1241 
Q 3047 1584 2836 1778 
Q 2625 1972 2144 2069 
L 1759 2144 
Q 1053 2284 737 2584 
Q 422 2884 422 3419 
Q 422 4038 858 4394 
Q 1294 4750 2059 4750 
Q 2388 4750 2728 4690 
Q 3069 4631 3425 4513 
z
" transform="scale(0.015625)"/>
      <path id="DejaVuSans-6d" d="M 3328 2828 
Q 3544 3216 3844 3400 
Q 4144 3584 4550 3584 
Q 5097 3584 5394 3201 
Q 5691 2819 5691 2113 
L 5691 0 
L 5113 0 
L 5113 2094 
Q 5113 2597 4934 2840 
Q 4756 3084 4391 3084 
Q 3944 3084 3684 2787 
Q 3425 2491 3425 1978 
L 3425 0 
L 2847 0 
L 2847 2094 
Q 2847 2600 2669 2842 
Q 2491 3084 2119 3084 
Q 1678 3084 1418 2786 
Q 1159 2488 1159 1978 
L 1159 0 
L 581 0 
L 581 3500 
L 1159 3500 
L 1159 2956 
Q 1356 3278 1631 3431 
Q 1906 3584 2284 3584 
Q 2666 3584 2933 3390 
Q 3200 3197 3328 2828 
z
" transform="scale(0.015625)"/>
      <path id="DejaVuSans-41" d="M 2188 4044 
L 1331 1722 
L 3047 1722 
L 2188 4044 
z
M 1831 4666 
L 2547 4666 
L 4325 0 
L 3669 0 
L 3244 1197 
L 1141 1197 
L 716 0 
L 50 0 
L 1831 4666 
z
" transform="scale(0.015625)"/>
      <path id="DejaVuSans-67" d="M 2906 1791 
Q 2906 2416 2648 2759 
Q 2391 3103 1925 3103 
Q 1463 3103 1205 2759 
Q 947 2416 947 1791 
Q 947 1169 1205 825 
Q 1463 481 1925 481 
Q 2391 481 2648 825 
Q 2906 1169 2906 1791 
z
M 3481 434 
Q 3481 -459 3084 -895 
Q 2688 -1331 1869 -1331 
Q 1566 -1331 1297 -1286 
Q 1028 -1241 775 -1147 
L 775 -588 
Q 1028 -725 1275 -790 
Q 1522 -856 1778 -856 
Q 2344 -856 2625 -561 
Q 2906 -266 2906 331 
L 2906 616 
Q 2728 306 2450 153 
Q 2172 0 1784 0 
Q 1141 0 747 490 
Q 353 981 353 1791 
Q 353 2603 747 3093 
Q 1141 3584 1784 3584 
Q 2172 3584 2450 3431 
Q 2728 3278 2906 2969 
L 2906 3500 
L 3481 3500 
L 3481 434 
z
" transform="scale(0.015625)"/>
      <path id="DejaVuSans-3e" d="M 678 3150 
L 678 3719 
L 4684 2266 
L 4684 1747 
L 678 294 
L 678 863 
L 3897 2003 
L 678 3150 
z
" transform="scale(0.015625)"/>
      <path id="DejaVuSans-57" d="M 213 4666 
L 850 4666 
L 1831 722 
L 2809 4666 
L 3519 4666 
L 4500 722 
L 5478 4666 
L 6119 4666 
L 4947 0 
L 4153 0 
L 3169 4050 
L 2175 0 
L 1381 0 
L 213 4666 
z
" transform="scale(0.015625)"/>
      <path id="DejaVuSans-29" d="M 513 4856 
L 1013 4856 
Q 1481 4119 1714 3412 
Q 1947 2706 1947 2009 
Q 1947 1309 1714 600 
Q 1481 -109 1013 -844 
L 513 -844 
Q 928 -128 1133 580 
Q 1338 1288 1338 2009 
Q 1338 2731 1133 3434 
Q 928 4138 513 4856 
z
" transform="scale(0.015625)"/>
     </defs>
     <use xlink:href="#DejaVuSans-45"/>
     <use xlink:href="#DejaVuSans-6e" x="63.183594"/>
     <use xlink:href="#DejaVuSans-74" x="126.5625"/>
     <use xlink:href="#DejaVuSans-65" x="165.771484"/>
     <use xlink:href="#DejaVuSans-72" x="227.294922"/>
     <use xlink:href="#DejaVuSans-70" x="268.408203"/>
     <use xlink:href="#DejaVuSans-72" x="331.884766"/>
     <use xlink:href="#DejaVuSans-69" x="372.998047"/>
     <use xlink:href="#DejaVuSans-73" x="400.78125"/>
     <use xlink:href="#DejaVuSans-65" x="452.880859"/>
     <use xlink:href="#DejaVuSans-20" x="514.404297"/>
     <use xlink:href="#DejaVuSans-4c" x="546.191406"/>
     <use xlink:href="#DejaVuSans-69" x="601.904297"/>
     <use xlink:href="#DejaVuSans-6e" x="629.6875"/>
     <use xlink:href="#DejaVuSans-75" x="693.066406"/>
     <use xlink:href="#DejaVuSans-78" x="756.445312"/>
     <use xlink:href="#DejaVuSans-20" x="815.625"/>
     <use xlink:href="#DejaVuSans-38" x="847.412109"/>
     <use xlink:href="#DejaVuSans-20" x="911.035156"/>
     <use xlink:href="#DejaVuSans-61" x="942.822266"/>
     <use xlink:href="#DejaVuSans-6e" x="1004.101562"/>
     <use xlink:href="#DejaVuSans-64" x="1067.480469"/>
     <use xlink:href="#DejaVuSans-20" x="1130.957031"/>
     <use xlink:href="#DejaVuSans-39" x="1162.744141"/>
     <use xlink:href="#DejaVuSans-20" x="1226.367188"/>
     <use xlink:href="#DejaVuSans-49" x="1258.154297"/>
     <use xlink:href="#DejaVuSans-6e" x="1287.646484"/>
     <use xlink:href="#DejaVuSans-73" x="1351.025391"/>
     <use xlink:href="#DejaVuSans-74" x="1403.125"/>
     <use xlink:href="#DejaVuSans-61" x="1442.333984"/>
     <use xlink:href="#DejaVuSans-6e" x="1503.613281"/>
     <use xlink:href="#DejaVuSans-63" x="1566.992188"/>
     <use xlink:href="#DejaVuSans-65" x="1621.972656"/>
     <use xlink:href="#DejaVuSans-73" x="1683.496094"/>
     <use xlink:href="#DejaVuSans-20" x="1735.595703"/>
     <use xlink:href="#DejaVuSans-62" x="1767.382812"/>
     <use xlink:href="#DejaVuSans-79" x="1830.859375"/>
     <use xlink:href="#DejaVuSans-20" x="1890.039062"/>
     <use xlink:href="#DejaVuSans-44" x="1921.826172"/>
     <use xlink:href="#DejaVuSans-69" x="1998.828125"/>
     <use xlink:href="#DejaVuSans-73" x="2026.611328"/>
     <use xlink:href="#DejaVuSans-74" x="2078.710938"/>
     <use xlink:href="#DejaVuSans-72" x="2117.919922"/>
     <use xlink:href="#DejaVuSans-69" x="2159.033203"/>
     <use xlink:href="#DejaVuSans-62" x="2186.816406"/>
     <use xlink:href="#DejaVuSans-75" x="2250.292969"/>
     <use xlink:href="#DejaVuSans-74" x="2313.671875"/>
     <use xlink:href="#DejaVuSans-69" x="2352.880859"/>
     <use xlink:href="#DejaVuSans-6f" x="2380.664062"/>
     <use xlink:href="#DejaVuSans-6e" x="2441.845703"/>
     <use xlink:href="#DejaVuSans-20" x="2505.224609"/>
     <use xlink:href="#DejaVuSans-28" x="2537.011719"/>
     <use xlink:href="#DejaVuSans-53" x="2576.025391"/>
     <use xlink:href="#DejaVuSans-79" x="2639.501953"/>
     <use xlink:href="#DejaVuSans-73" x="2698.681641"/>
     <use xlink:href="#DejaVuSans-74" x="2750.78125"/>
     <use xlink:href="#DejaVuSans-65" x="2789.990234"/>
     <use xlink:href="#DejaVuSans-6d" x="2851.513672"/>
     <use xlink:href="#DejaVuSans-20" x="2948.925781"/>
     <use xlink:href="#DejaVuSans-41" x="2980.712891"/>
     <use xlink:href="#DejaVuSans-67" x="3049.121094"/>
     <use xlink:href="#DejaVuSans-65" x="3112.597656"/>
     <use xlink:href="#DejaVuSans-20" x="3174.121094"/>
     <use xlink:href="#DejaVuSans-3e" x="3205.908203"/>
     <use xlink:href="#DejaVuSans-20" x="3289.697266"/>
     <use xlink:href="#DejaVuSans-31" x="3321.484375"/>
     <use xlink:href="#DejaVuSans-20" x="3385.107422"/>
     <use xlink:href="#DejaVuSans-57" x="3416.894531"/>
     <use xlink:href="#DejaVuSans-65" x="3509.896484"/>
     <use xlink:href="#DejaVuSans-65" x="3571.419922"/>
     <use xlink:href="#DejaVuSans-6b" x="3632.943359"/>
     <use xlink:href="#DejaVuSans-29" x="3690.853516"/>
    </g>
   </g>
   <g id="text_23">
    <!-- 2023-12-07 11:54 UTC -->
    <g transform="translate(794.653875 18.14175)scale(0.144 -0.144)">
     <defs>
      <path id="DejaVuSans-3a" d="M 750 794 
L 1409 794 
L 1409 0 
L 750 0 
L 750 794 
z
M 750 3309 
L 1409 3309 
L 1409 2516 
L 750 2516 
L 750 3309 
z
" transform="scale(0.015625)"/>
      <path id="DejaVuSans-55" d="M 556 4666 
L 1191 4666 
L 1191 1831 
Q 1191 1081 1462 751 
Q 1734 422 2344 422 
Q 2950 422 3222 751 
Q 3494 1081 3494 1831 
L 3494 4666 
L 4128 4666 
L 4128 1753 
Q 4128 841 3676 375 
Q 3225 -91 2344 -91 
Q 1459 -91 1007 375 
Q 556 841 556 1753 
L 556 4666 
z
" transform="scale(0.015625)"/>
      <path id="DejaVuSans-54" d="M -19 4666 
L 3928 4666 
L 3928 4134 
L 2272 4134 
L 2272 0 
L 1638 0 
L 1638 4134 
L -19 4134 
L -19 4666 
z
" transform="scale(0.015625)"/>
      <path id="DejaVuSans-43" d="M 4122 4306 
L 4122 3641 
Q 3803 3938 3442 4084 
Q 3081 4231 2675 4231 
Q 1875 4231 1450 3742 
Q 1025 3253 1025 2328 
Q 1025 1406 1450 917 
Q 1875 428 2675 428 
Q 3081 428 3442 575 
Q 3803 722 4122 1019 
L 4122 359 
Q 3791 134 3420 21 
Q 3050 -91 2638 -91 
Q 1578 -91 968 557 
Q 359 1206 359 2328 
Q 359 3453 968 4101 
Q 1578 4750 2638 4750 
Q 3056 4750 3426 4639 
Q 3797 4528 4122 4306 
z
" transform="scale(0.015625)"/>
     </defs>
     <use xlink:href="#DejaVuSans-32"/>
     <use xlink:href="#DejaVuSans-30" x="63.623047"/>
     <use xlink:href="#DejaVuSans-32" x="127.246094"/>
     <use xlink:href="#DejaVuSans-33" x="190.869141"/>
     <use xlink:href="#DejaVuSans-2d" x="254.492188"/>
     <use xlink:href="#DejaVuSans-31" x="290.576172"/>
     <use xlink:href="#DejaVuSans-32" x="354.199219"/>
     <use xlink:href="#DejaVuSans-2d" x="417.822266"/>
     <use xlink:href="#DejaVuSans-30" x="453.90625"/>
     <use xlink:href="#DejaVuSans-37" x="517.529297"/>
     <use xlink:href="#DejaVuSans-20" x="581.152344"/>
     <use xlink:href="#DejaVuSans-31" x="612.939453"/>
     <use xlink:href="#DejaVuSans-31" x="676.5625"/>
     <use xlink:href="#DejaVuSans-3a" x="740.185547"/>
     <use xlink:href="#DejaVuSans-35" x="773.876953"/>
     <use xlink:href="#DejaVuSans-34" x="837.5"/>
     <use xlink:href="#DejaVuSans-20" x="901.123047"/>
     <use xlink:href="#DejaVuSans-55" x="932.910156"/>
     <use xlink:href="#DejaVuSans-54" x="1006.103516"/>
     <use xlink:href="#DejaVuSans-43" x="1061.3125"/>
    </g>
   </g>
   <g id="legend_1">
    <g id="patch_7">
     <path d="M 61.691875 134.888625 
L 170.660625 134.888625 
Q 172.660625 134.888625 172.660625 132.888625 
L 172.660625 31.14175 
Q 172.660625 29.14175 170.660625 29.14175 
L 61.691875 29.14175 
Q 59.691875 29.14175 59.691875 31.14175 
L 59.691875 132.888625 
Q 59.691875 134.888625 61.691875 134.888625 
z
" style="fill: #e5e5e5; opacity: 0.8; stroke: #cccccc; stroke-width: 0.5; stroke-linejoin: miter"/>
    </g>
    <g id="text_24">
     <!-- Distribution -->
     <g transform="translate(87.0075 40.740187)scale(0.1 -0.1)">
      <use xlink:href="#DejaVuSans-44"/>
      <use xlink:href="#DejaVuSans-69" x="77.001953"/>
      <use xlink:href="#DejaVuSans-73" x="104.785156"/>
      <use xlink:href="#DejaVuSans-74" x="156.884766"/>
      <use xlink:href="#DejaVuSans-72" x="196.09375"/>
      <use xlink:href="#DejaVuSans-69" x="237.207031"/>
      <use xlink:href="#DejaVuSans-62" x="264.990234"/>
      <use xlink:href="#DejaVuSans-75" x="328.466797"/>
      <use xlink:href="#DejaVuSans-74" x="391.845703"/>
      <use xlink:href="#DejaVuSans-69" x="431.054688"/>
      <use xlink:href="#DejaVuSans-6f" x="458.837891"/>
      <use xlink:href="#DejaVuSans-6e" x="520.019531"/>
     </g>
    </g>
    <g id="line2d_51">
     <path d="M 63.691875 51.918312 
L 73.691875 51.918312 
L 83.691875 51.918312 
" style="fill: none; stroke: #4ac1fa; stroke-width: 1.5; stroke-linecap: square"/>
    </g>
    <g id="text_25">
     <!-- AlmaLinux -->
     <g transform="translate(91.691875 55.418312)scale(0.1 -0.1)">
      <defs>
       <path id="DejaVuSans-6c" d="M 603 4863 
L 1178 4863 
L 1178 0 
L 603 0 
L 603 4863 
z
" transform="scale(0.015625)"/>
      </defs>
      <use xlink:href="#DejaVuSans-41"/>
      <use xlink:href="#DejaVuSans-6c" x="68.408203"/>
      <use xlink:href="#DejaVuSans-6d" x="96.191406"/>
      <use xlink:href="#DejaVuSans-61" x="193.603516"/>
      <use xlink:href="#DejaVuSans-4c" x="254.882812"/>
      <use xlink:href="#DejaVuSans-69" x="310.595703"/>
      <use xlink:href="#DejaVuSans-6e" x="338.378906"/>
      <use xlink:href="#DejaVuSans-75" x="401.757812"/>
      <use xlink:href="#DejaVuSans-78" x="465.136719"/>
     </g>
    </g>
    <g id="line2d_52">
     <path d="M 63.691875 66.596437 
L 73.691875 66.596437 
L 83.691875 66.596437 
" style="fill: none; stroke: #e9a942; stroke-width: 1.5; stroke-linecap: square"/>
    </g>
    <g id="text_26">
     <!-- CentOS Legacy -->
     <g transform="translate(91.691875 70.096437)scale(0.1 -0.1)">
      <defs>
       <path id="DejaVuSans-4f" d="M 2522 4238 
Q 1834 4238 1429 3725 
Q 1025 3213 1025 2328 
Q 1025 1447 1429 934 
Q 1834 422 2522 422 
Q 3209 422 3611 934 
Q 4013 1447 4013 2328 
Q 4013 3213 3611 3725 
Q 3209 4238 2522 4238 
z
M 2522 4750 
Q 3503 4750 4090 4092 
Q 4678 3434 4678 2328 
Q 4678 1225 4090 567 
Q 3503 -91 2522 -91 
Q 1538 -91 948 565 
Q 359 1222 359 2328 
Q 359 3434 948 4092 
Q 1538 4750 2522 4750 
z
" transform="scale(0.015625)"/>
      </defs>
      <use xlink:href="#DejaVuSans-43"/>
      <use xlink:href="#DejaVuSans-65" x="69.824219"/>
      <use xlink:href="#DejaVuSans-6e" x="131.347656"/>
      <use xlink:href="#DejaVuSans-74" x="194.726562"/>
      <use xlink:href="#DejaVuSans-4f" x="233.935547"/>
      <use xlink:href="#DejaVuSans-53" x="312.646484"/>
      <use xlink:href="#DejaVuSans-20" x="376.123047"/>
      <use xlink:href="#DejaVuSans-4c" x="407.910156"/>
      <use xlink:href="#DejaVuSans-65" x="461.873047"/>
      <use xlink:href="#DejaVuSans-67" x="523.396484"/>
      <use xlink:href="#DejaVuSans-61" x="586.873047"/>
      <use xlink:href="#DejaVuSans-63" x="648.152344"/>
      <use xlink:href="#DejaVuSans-79" x="703.132812"/>
     </g>
    </g>
    <g id="line2d_53">
     <path d="M 63.691875 81.274563 
L 73.691875 81.274563 
L 83.691875 81.274563 
" style="fill: none; stroke: #9a5689; stroke-width: 1.5; stroke-linecap: square"/>
    </g>
    <g id="text_27">
     <!-- CentOS Stream -->
     <g transform="translate(91.691875 84.774563)scale(0.1 -0.1)">
      <use xlink:href="#DejaVuSans-43"/>
      <use xlink:href="#DejaVuSans-65" x="69.824219"/>
      <use xlink:href="#DejaVuSans-6e" x="131.347656"/>
      <use xlink:href="#DejaVuSans-74" x="194.726562"/>
      <use xlink:href="#DejaVuSans-4f" x="233.935547"/>
      <use xlink:href="#DejaVuSans-53" x="312.646484"/>
      <use xlink:href="#DejaVuSans-20" x="376.123047"/>
      <use xlink:href="#DejaVuSans-53" x="407.910156"/>
      <use xlink:href="#DejaVuSans-74" x="471.386719"/>
      <use xlink:href="#DejaVuSans-72" x="510.595703"/>
      <use xlink:href="#DejaVuSans-65" x="549.458984"/>
      <use xlink:href="#DejaVuSans-61" x="610.982422"/>
      <use xlink:href="#DejaVuSans-6d" x="672.261719"/>
     </g>
    </g>
    <g id="line2d_54">
     <path d="M 63.691875 95.952687 
L 73.691875 95.952687 
L 83.691875 95.952687 
" style="fill: none; stroke: #be503b; stroke-width: 1.5; stroke-linecap: square"/>
    </g>
    <g id="text_28">
     <!-- Oracle -->
     <g transform="translate(91.691875 99.452687)scale(0.1 -0.1)">
      <use xlink:href="#DejaVuSans-4f"/>
      <use xlink:href="#DejaVuSans-72" x="78.710938"/>
      <use xlink:href="#DejaVuSans-61" x="119.824219"/>
      <use xlink:href="#DejaVuSans-63" x="181.103516"/>
      <use xlink:href="#DejaVuSans-6c" x="236.083984"/>
      <use xlink:href="#DejaVuSans-65" x="263.867188"/>
     </g>
    </g>
    <g id="line2d_55">
     <path d="M 63.691875 110.630812 
L 73.691875 110.630812 
L 83.691875 110.630812 
" style="fill: none; stroke: #e2321d; stroke-width: 1.5; stroke-linecap: square"/>
    </g>
    <g id="text_29">
     <!-- RHEL -->
     <g transform="translate(91.691875 114.130812)scale(0.1 -0.1)">
      <defs>
       <path id="DejaVuSans-52" d="M 2841 2188 
Q 3044 2119 3236 1894 
Q 3428 1669 3622 1275 
L 4263 0 
L 3584 0 
L 2988 1197 
Q 2756 1666 2539 1819 
Q 2322 1972 1947 1972 
L 1259 1972 
L 1259 0 
L 628 0 
L 628 4666 
L 2053 4666 
Q 2853 4666 3247 4331 
Q 3641 3997 3641 3322 
Q 3641 2881 3436 2590 
Q 3231 2300 2841 2188 
z
M 1259 4147 
L 1259 2491 
L 2053 2491 
Q 2509 2491 2742 2702 
Q 2975 2913 2975 3322 
Q 2975 3731 2742 3939 
Q 2509 4147 2053 4147 
L 1259 4147 
z
" transform="scale(0.015625)"/>
       <path id="DejaVuSans-48" d="M 628 4666 
L 1259 4666 
L 1259 2753 
L 3553 2753 
L 3553 4666 
L 4184 4666 
L 4184 0 
L 3553 0 
L 3553 2222 
L 1259 2222 
L 1259 0 
L 628 0 
L 628 4666 
z
" transform="scale(0.015625)"/>
      </defs>
      <use xlink:href="#DejaVuSans-52"/>
      <use xlink:href="#DejaVuSans-48" x="69.482422"/>
      <use xlink:href="#DejaVuSans-45" x="144.677734"/>
      <use xlink:href="#DejaVuSans-4c" x="207.861328"/>
     </g>
    </g>
    <g id="line2d_56">
     <path d="M 63.691875 125.308937 
L 73.691875 125.308937 
L 83.691875 125.308937 
" style="fill: none; stroke: #48b585; stroke-width: 6; stroke-linecap: square"/>
    </g>
    <g id="text_30">
     <!-- Rocky Linux -->
     <g transform="translate(91.691875 128.808937)scale(0.1 -0.1)">
      <use xlink:href="#DejaVuSans-52"/>
      <use xlink:href="#DejaVuSans-6f" x="64.982422"/>
      <use xlink:href="#DejaVuSans-63" x="126.164062"/>
      <use xlink:href="#DejaVuSans-6b" x="181.144531"/>
      <use xlink:href="#DejaVuSans-79" x="235.429688"/>
      <use xlink:href="#DejaVuSans-20" x="294.609375"/>
      <use xlink:href="#DejaVuSans-4c" x="326.396484"/>
      <use xlink:href="#DejaVuSans-69" x="382.109375"/>
      <use xlink:href="#DejaVuSans-6e" x="409.892578"/>
      <use xlink:href="#DejaVuSans-75" x="473.271484"/>
      <use xlink:href="#DejaVuSans-78" x="536.650391"/>
     </g>
    </g>
   </g>
  </g>
 </g>
 <defs>
  <clipPath id="pde7369c555">
   <rect x="54.691875" y="24.14175" width="902.844" height="543.6"/>
  </clipPath>
 </defs>
</svg>
