<?xml version="1.0" encoding="utf-8" standalone="no"?>
<!DOCTYPE svg PUBLIC "-//W3C//DTD SVG 1.1//EN"
  "http://www.w3.org/Graphics/SVG/1.1/DTD/svg11.dtd">
<svg xmlns:xlink="http://www.w3.org/1999/xlink" width="974.2765pt" height="633.943878pt" viewBox="0 0 974.2765 633.943878" xmlns="http://www.w3.org/2000/svg" version="1.1">
 <metadata>
  <rdf:RDF xmlns:dc="http://purl.org/dc/elements/1.1/" xmlns:cc="http://creativecommons.org/ns#" xmlns:rdf="http://www.w3.org/1999/02/22-rdf-syntax-ns#">
   <cc:Work>
    <dc:type rdf:resource="http://purl.org/dc/dcmitype/StillImage"/>
    <dc:date>2024-08-08T11:54:58.581246</dc:date>
    <dc:format>image/svg+xml</dc:format>
    <dc:creator>
     <cc:Agent>
      <dc:title>Matplotlib v3.5.1, https://matplotlib.org/</dc:title>
     </cc:Agent>
    </dc:creator>
   </cc:Work>
  </rdf:RDF>
 </metadata>
 <defs>
  <style type="text/css">*{stroke-linejoin: round; stroke-linecap: butt}</style>
 </defs>
 <g id="figure_1">
  <g id="patch_1">
   <path d="M 0 633.943878 
L 974.2765 633.943878 
L 974.2765 0 
L 0 0 
z
" style="fill: #ffffff"/>
  </g>
  <g id="axes_1">
   <g id="patch_2">
    <path d="M 64.2325 567.74175 
L 967.0765 567.74175 
L 967.0765 24.14175 
L 64.2325 24.14175 
z
" style="fill: #e5e5e5"/>
   </g>
   <g id="matplotlib.axis_1">
    <g id="xtick_1">
     <g id="line2d_1">
      <path d="M 105.505369 567.74175 
L 105.505369 24.14175 
" clip-path="url(#p57cbf77765)" style="fill: none; stroke: #ffffff; stroke-width: 0.8; stroke-linecap: square"/>
     </g>
     <g id="line2d_2">
      <defs>
       <path id="m4471fd3f95" d="M 0 0 
L 0 3.5 
" style="stroke: #555555; stroke-width: 0.8"/>
      </defs>
      <g>
       <use xlink:href="#m4471fd3f95" x="105.505369" y="567.74175" style="fill: #555555; stroke: #555555; stroke-width: 0.8"/>
      </g>
     </g>
     <g id="text_1">
      <!-- 2023-08 -->
      <g style="fill: #555555" transform="translate(92.684086 609.659567)rotate(-45)scale(0.1 -0.1)">
       <defs>
        <path id="DejaVuSans-32" d="M 1228 531 
L 3431 531 
L 3431 0 
L 469 0 
L 469 531 
Q 828 903 1448 1529 
Q 2069 2156 2228 2338 
Q 2531 2678 2651 2914 
Q 2772 3150 2772 3378 
Q 2772 3750 2511 3984 
Q 2250 4219 1831 4219 
Q 1534 4219 1204 4116 
Q 875 4013 500 3803 
L 500 4441 
Q 881 4594 1212 4672 
Q 1544 4750 1819 4750 
Q 2544 4750 2975 4387 
Q 3406 4025 3406 3419 
Q 3406 3131 3298 2873 
Q 3191 2616 2906 2266 
Q 2828 2175 2409 1742 
Q 1991 1309 1228 531 
z
" transform="scale(0.015625)"/>
        <path id="DejaVuSans-30" d="M 2034 4250 
Q 1547 4250 1301 3770 
Q 1056 3291 1056 2328 
Q 1056 1369 1301 889 
Q 1547 409 2034 409 
Q 2525 409 2770 889 
Q 3016 1369 3016 2328 
Q 3016 3291 2770 3770 
Q 2525 4250 2034 4250 
z
M 2034 4750 
Q 2819 4750 3233 4129 
Q 3647 3509 3647 2328 
Q 3647 1150 3233 529 
Q 2819 -91 2034 -91 
Q 1250 -91 836 529 
Q 422 1150 422 2328 
Q 422 3509 836 4129 
Q 1250 4750 2034 4750 
z
" transform="scale(0.015625)"/>
        <path id="DejaVuSans-33" d="M 2597 2516 
Q 3050 2419 3304 2112 
Q 3559 1806 3559 1356 
Q 3559 666 3084 287 
Q 2609 -91 1734 -91 
Q 1441 -91 1130 -33 
Q 819 25 488 141 
L 488 750 
Q 750 597 1062 519 
Q 1375 441 1716 441 
Q 2309 441 2620 675 
Q 2931 909 2931 1356 
Q 2931 1769 2642 2001 
Q 2353 2234 1838 2234 
L 1294 2234 
L 1294 2753 
L 1863 2753 
Q 2328 2753 2575 2939 
Q 2822 3125 2822 3475 
Q 2822 3834 2567 4026 
Q 2313 4219 1838 4219 
Q 1578 4219 1281 4162 
Q 984 4106 628 3988 
L 628 4550 
Q 988 4650 1302 4700 
Q 1616 4750 1894 4750 
Q 2613 4750 3031 4423 
Q 3450 4097 3450 3541 
Q 3450 3153 3228 2886 
Q 3006 2619 2597 2516 
z
" transform="scale(0.015625)"/>
        <path id="DejaVuSans-2d" d="M 313 2009 
L 1997 2009 
L 1997 1497 
L 313 1497 
L 313 2009 
z
" transform="scale(0.015625)"/>
        <path id="DejaVuSans-38" d="M 2034 2216 
Q 1584 2216 1326 1975 
Q 1069 1734 1069 1313 
Q 1069 891 1326 650 
Q 1584 409 2034 409 
Q 2484 409 2743 651 
Q 3003 894 3003 1313 
Q 3003 1734 2745 1975 
Q 2488 2216 2034 2216 
z
M 1403 2484 
Q 997 2584 770 2862 
Q 544 3141 544 3541 
Q 544 4100 942 4425 
Q 1341 4750 2034 4750 
Q 2731 4750 3128 4425 
Q 3525 4100 3525 3541 
Q 3525 3141 3298 2862 
Q 3072 2584 2669 2484 
Q 3125 2378 3379 2068 
Q 3634 1759 3634 1313 
Q 3634 634 3220 271 
Q 2806 -91 2034 -91 
Q 1263 -91 848 271 
Q 434 634 434 1313 
Q 434 1759 690 2068 
Q 947 2378 1403 2484 
z
M 1172 3481 
Q 1172 3119 1398 2916 
Q 1625 2713 2034 2713 
Q 2441 2713 2670 2916 
Q 2900 3119 2900 3481 
Q 2900 3844 2670 4047 
Q 2441 4250 2034 4250 
Q 1625 4250 1398 4047 
Q 1172 3844 1172 3481 
z
" transform="scale(0.015625)"/>
       </defs>
       <use xlink:href="#DejaVuSans-32"/>
       <use xlink:href="#DejaVuSans-30" x="63.623047"/>
       <use xlink:href="#DejaVuSans-32" x="127.246094"/>
       <use xlink:href="#DejaVuSans-33" x="190.869141"/>
       <use xlink:href="#DejaVuSans-2d" x="254.492188"/>
       <use xlink:href="#DejaVuSans-30" x="290.576172"/>
       <use xlink:href="#DejaVuSans-38" x="354.199219"/>
      </g>
     </g>
    </g>
    <g id="xtick_2">
     <g id="line2d_3">
      <path d="M 185.471551 567.74175 
L 185.471551 24.14175 
" clip-path="url(#p57cbf77765)" style="fill: none; stroke: #ffffff; stroke-width: 0.8; stroke-linecap: square"/>
     </g>
     <g id="line2d_4">
      <g>
       <use xlink:href="#m4471fd3f95" x="185.471551" y="567.74175" style="fill: #555555; stroke: #555555; stroke-width: 0.8"/>
      </g>
     </g>
     <g id="text_2">
      <!-- 2023-09 -->
      <g style="fill: #555555" transform="translate(172.650269 609.659567)rotate(-45)scale(0.1 -0.1)">
       <defs>
        <path id="DejaVuSans-39" d="M 703 97 
L 703 672 
Q 941 559 1184 500 
Q 1428 441 1663 441 
Q 2288 441 2617 861 
Q 2947 1281 2994 2138 
Q 2813 1869 2534 1725 
Q 2256 1581 1919 1581 
Q 1219 1581 811 2004 
Q 403 2428 403 3163 
Q 403 3881 828 4315 
Q 1253 4750 1959 4750 
Q 2769 4750 3195 4129 
Q 3622 3509 3622 2328 
Q 3622 1225 3098 567 
Q 2575 -91 1691 -91 
Q 1453 -91 1209 -44 
Q 966 3 703 97 
z
M 1959 2075 
Q 2384 2075 2632 2365 
Q 2881 2656 2881 3163 
Q 2881 3666 2632 3958 
Q 2384 4250 1959 4250 
Q 1534 4250 1286 3958 
Q 1038 3666 1038 3163 
Q 1038 2656 1286 2365 
Q 1534 2075 1959 2075 
z
" transform="scale(0.015625)"/>
       </defs>
       <use xlink:href="#DejaVuSans-32"/>
       <use xlink:href="#DejaVuSans-30" x="63.623047"/>
       <use xlink:href="#DejaVuSans-32" x="127.246094"/>
       <use xlink:href="#DejaVuSans-33" x="190.869141"/>
       <use xlink:href="#DejaVuSans-2d" x="254.492188"/>
       <use xlink:href="#DejaVuSans-30" x="290.576172"/>
       <use xlink:href="#DejaVuSans-39" x="354.199219"/>
      </g>
     </g>
    </g>
    <g id="xtick_3">
     <g id="line2d_5">
      <path d="M 262.85818 567.74175 
L 262.85818 24.14175 
" clip-path="url(#p57cbf77765)" style="fill: none; stroke: #ffffff; stroke-width: 0.8; stroke-linecap: square"/>
     </g>
     <g id="line2d_6">
      <g>
       <use xlink:href="#m4471fd3f95" x="262.85818" y="567.74175" style="fill: #555555; stroke: #555555; stroke-width: 0.8"/>
      </g>
     </g>
     <g id="text_3">
      <!-- 2023-10 -->
      <g style="fill: #555555" transform="translate(250.036898 609.659567)rotate(-45)scale(0.1 -0.1)">
       <defs>
        <path id="DejaVuSans-31" d="M 794 531 
L 1825 531 
L 1825 4091 
L 703 3866 
L 703 4441 
L 1819 4666 
L 2450 4666 
L 2450 531 
L 3481 531 
L 3481 0 
L 794 0 
L 794 531 
z
" transform="scale(0.015625)"/>
       </defs>
       <use xlink:href="#DejaVuSans-32"/>
       <use xlink:href="#DejaVuSans-30" x="63.623047"/>
       <use xlink:href="#DejaVuSans-32" x="127.246094"/>
       <use xlink:href="#DejaVuSans-33" x="190.869141"/>
       <use xlink:href="#DejaVuSans-2d" x="254.492188"/>
       <use xlink:href="#DejaVuSans-31" x="290.576172"/>
       <use xlink:href="#DejaVuSans-30" x="354.199219"/>
      </g>
     </g>
    </g>
    <g id="xtick_4">
     <g id="line2d_7">
      <path d="M 342.824363 567.74175 
L 342.824363 24.14175 
" clip-path="url(#p57cbf77765)" style="fill: none; stroke: #ffffff; stroke-width: 0.8; stroke-linecap: square"/>
     </g>
     <g id="line2d_8">
      <g>
       <use xlink:href="#m4471fd3f95" x="342.824363" y="567.74175" style="fill: #555555; stroke: #555555; stroke-width: 0.8"/>
      </g>
     </g>
     <g id="text_4">
      <!-- 2023-11 -->
      <g style="fill: #555555" transform="translate(330.003081 609.659567)rotate(-45)scale(0.1 -0.1)">
       <use xlink:href="#DejaVuSans-32"/>
       <use xlink:href="#DejaVuSans-30" x="63.623047"/>
       <use xlink:href="#DejaVuSans-32" x="127.246094"/>
       <use xlink:href="#DejaVuSans-33" x="190.869141"/>
       <use xlink:href="#DejaVuSans-2d" x="254.492188"/>
       <use xlink:href="#DejaVuSans-31" x="290.576172"/>
       <use xlink:href="#DejaVuSans-31" x="354.199219"/>
      </g>
     </g>
    </g>
    <g id="xtick_5">
     <g id="line2d_9">
      <path d="M 420.210991 567.74175 
L 420.210991 24.14175 
" clip-path="url(#p57cbf77765)" style="fill: none; stroke: #ffffff; stroke-width: 0.8; stroke-linecap: square"/>
     </g>
     <g id="line2d_10">
      <g>
       <use xlink:href="#m4471fd3f95" x="420.210991" y="567.74175" style="fill: #555555; stroke: #555555; stroke-width: 0.8"/>
      </g>
     </g>
     <g id="text_5">
      <!-- 2023-12 -->
      <g style="fill: #555555" transform="translate(407.389709 609.659567)rotate(-45)scale(0.1 -0.1)">
       <use xlink:href="#DejaVuSans-32"/>
       <use xlink:href="#DejaVuSans-30" x="63.623047"/>
       <use xlink:href="#DejaVuSans-32" x="127.246094"/>
       <use xlink:href="#DejaVuSans-33" x="190.869141"/>
       <use xlink:href="#DejaVuSans-2d" x="254.492188"/>
       <use xlink:href="#DejaVuSans-31" x="290.576172"/>
       <use xlink:href="#DejaVuSans-32" x="354.199219"/>
      </g>
     </g>
    </g>
    <g id="xtick_6">
     <g id="line2d_11">
      <path d="M 500.177174 567.74175 
L 500.177174 24.14175 
" clip-path="url(#p57cbf77765)" style="fill: none; stroke: #ffffff; stroke-width: 0.8; stroke-linecap: square"/>
     </g>
     <g id="line2d_12">
      <g>
       <use xlink:href="#m4471fd3f95" x="500.177174" y="567.74175" style="fill: #555555; stroke: #555555; stroke-width: 0.8"/>
      </g>
     </g>
     <g id="text_6">
      <!-- 2024-01 -->
      <g style="fill: #555555" transform="translate(487.355892 609.659567)rotate(-45)scale(0.1 -0.1)">
       <defs>
        <path id="DejaVuSans-34" d="M 2419 4116 
L 825 1625 
L 2419 1625 
L 2419 4116 
z
M 2253 4666 
L 3047 4666 
L 3047 1625 
L 3713 1625 
L 3713 1100 
L 3047 1100 
L 3047 0 
L 2419 0 
L 2419 1100 
L 313 1100 
L 313 1709 
L 2253 4666 
z
" transform="scale(0.015625)"/>
       </defs>
       <use xlink:href="#DejaVuSans-32"/>
       <use xlink:href="#DejaVuSans-30" x="63.623047"/>
       <use xlink:href="#DejaVuSans-32" x="127.246094"/>
       <use xlink:href="#DejaVuSans-34" x="190.869141"/>
       <use xlink:href="#DejaVuSans-2d" x="254.492188"/>
       <use xlink:href="#DejaVuSans-30" x="290.576172"/>
       <use xlink:href="#DejaVuSans-31" x="354.199219"/>
      </g>
     </g>
    </g>
    <g id="xtick_7">
     <g id="line2d_13">
      <path d="M 580.143357 567.74175 
L 580.143357 24.14175 
" clip-path="url(#p57cbf77765)" style="fill: none; stroke: #ffffff; stroke-width: 0.8; stroke-linecap: square"/>
     </g>
     <g id="line2d_14">
      <g>
       <use xlink:href="#m4471fd3f95" x="580.143357" y="567.74175" style="fill: #555555; stroke: #555555; stroke-width: 0.8"/>
      </g>
     </g>
     <g id="text_7">
      <!-- 2024-02 -->
      <g style="fill: #555555" transform="translate(567.322075 609.659567)rotate(-45)scale(0.1 -0.1)">
       <use xlink:href="#DejaVuSans-32"/>
       <use xlink:href="#DejaVuSans-30" x="63.623047"/>
       <use xlink:href="#DejaVuSans-32" x="127.246094"/>
       <use xlink:href="#DejaVuSans-34" x="190.869141"/>
       <use xlink:href="#DejaVuSans-2d" x="254.492188"/>
       <use xlink:href="#DejaVuSans-30" x="290.576172"/>
       <use xlink:href="#DejaVuSans-32" x="354.199219"/>
      </g>
     </g>
    </g>
    <g id="xtick_8">
     <g id="line2d_15">
      <path d="M 654.950431 567.74175 
L 654.950431 24.14175 
" clip-path="url(#p57cbf77765)" style="fill: none; stroke: #ffffff; stroke-width: 0.8; stroke-linecap: square"/>
     </g>
     <g id="line2d_16">
      <g>
       <use xlink:href="#m4471fd3f95" x="654.950431" y="567.74175" style="fill: #555555; stroke: #555555; stroke-width: 0.8"/>
      </g>
     </g>
     <g id="text_8">
      <!-- 2024-03 -->
      <g style="fill: #555555" transform="translate(642.129149 609.659567)rotate(-45)scale(0.1 -0.1)">
       <use xlink:href="#DejaVuSans-32"/>
       <use xlink:href="#DejaVuSans-30" x="63.623047"/>
       <use xlink:href="#DejaVuSans-32" x="127.246094"/>
       <use xlink:href="#DejaVuSans-34" x="190.869141"/>
       <use xlink:href="#DejaVuSans-2d" x="254.492188"/>
       <use xlink:href="#DejaVuSans-30" x="290.576172"/>
       <use xlink:href="#DejaVuSans-33" x="354.199219"/>
      </g>
     </g>
    </g>
    <g id="xtick_9">
     <g id="line2d_17">
      <path d="M 734.916614 567.74175 
L 734.916614 24.14175 
" clip-path="url(#p57cbf77765)" style="fill: none; stroke: #ffffff; stroke-width: 0.8; stroke-linecap: square"/>
     </g>
     <g id="line2d_18">
      <g>
       <use xlink:href="#m4471fd3f95" x="734.916614" y="567.74175" style="fill: #555555; stroke: #555555; stroke-width: 0.8"/>
      </g>
     </g>
     <g id="text_9">
      <!-- 2024-04 -->
      <g style="fill: #555555" transform="translate(722.095332 609.659567)rotate(-45)scale(0.1 -0.1)">
       <use xlink:href="#DejaVuSans-32"/>
       <use xlink:href="#DejaVuSans-30" x="63.623047"/>
       <use xlink:href="#DejaVuSans-32" x="127.246094"/>
       <use xlink:href="#DejaVuSans-34" x="190.869141"/>
       <use xlink:href="#DejaVuSans-2d" x="254.492188"/>
       <use xlink:href="#DejaVuSans-30" x="290.576172"/>
       <use xlink:href="#DejaVuSans-34" x="354.199219"/>
      </g>
     </g>
    </g>
    <g id="xtick_10">
     <g id="line2d_19">
      <path d="M 812.303243 567.74175 
L 812.303243 24.14175 
" clip-path="url(#p57cbf77765)" style="fill: none; stroke: #ffffff; stroke-width: 0.8; stroke-linecap: square"/>
     </g>
     <g id="line2d_20">
      <g>
       <use xlink:href="#m4471fd3f95" x="812.303243" y="567.74175" style="fill: #555555; stroke: #555555; stroke-width: 0.8"/>
      </g>
     </g>
     <g id="text_10">
      <!-- 2024-05 -->
      <g style="fill: #555555" transform="translate(799.481961 609.659567)rotate(-45)scale(0.1 -0.1)">
       <defs>
        <path id="DejaVuSans-35" d="M 691 4666 
L 3169 4666 
L 3169 4134 
L 1269 4134 
L 1269 2991 
Q 1406 3038 1543 3061 
Q 1681 3084 1819 3084 
Q 2600 3084 3056 2656 
Q 3513 2228 3513 1497 
Q 3513 744 3044 326 
Q 2575 -91 1722 -91 
Q 1428 -91 1123 -41 
Q 819 9 494 109 
L 494 744 
Q 775 591 1075 516 
Q 1375 441 1709 441 
Q 2250 441 2565 725 
Q 2881 1009 2881 1497 
Q 2881 1984 2565 2268 
Q 2250 2553 1709 2553 
Q 1456 2553 1204 2497 
Q 953 2441 691 2322 
L 691 4666 
z
" transform="scale(0.015625)"/>
       </defs>
       <use xlink:href="#DejaVuSans-32"/>
       <use xlink:href="#DejaVuSans-30" x="63.623047"/>
       <use xlink:href="#DejaVuSans-32" x="127.246094"/>
       <use xlink:href="#DejaVuSans-34" x="190.869141"/>
       <use xlink:href="#DejaVuSans-2d" x="254.492188"/>
       <use xlink:href="#DejaVuSans-30" x="290.576172"/>
       <use xlink:href="#DejaVuSans-35" x="354.199219"/>
      </g>
     </g>
    </g>
    <g id="xtick_11">
     <g id="line2d_21">
      <path d="M 892.269426 567.74175 
L 892.269426 24.14175 
" clip-path="url(#p57cbf77765)" style="fill: none; stroke: #ffffff; stroke-width: 0.8; stroke-linecap: square"/>
     </g>
     <g id="line2d_22">
      <g>
       <use xlink:href="#m4471fd3f95" x="892.269426" y="567.74175" style="fill: #555555; stroke: #555555; stroke-width: 0.8"/>
      </g>
     </g>
     <g id="text_11">
      <!-- 2024-06 -->
      <g style="fill: #555555" transform="translate(879.448143 609.659567)rotate(-45)scale(0.1 -0.1)">
       <defs>
        <path id="DejaVuSans-36" d="M 2113 2584 
Q 1688 2584 1439 2293 
Q 1191 2003 1191 1497 
Q 1191 994 1439 701 
Q 1688 409 2113 409 
Q 2538 409 2786 701 
Q 3034 994 3034 1497 
Q 3034 2003 2786 2293 
Q 2538 2584 2113 2584 
z
M 3366 4563 
L 3366 3988 
Q 3128 4100 2886 4159 
Q 2644 4219 2406 4219 
Q 1781 4219 1451 3797 
Q 1122 3375 1075 2522 
Q 1259 2794 1537 2939 
Q 1816 3084 2150 3084 
Q 2853 3084 3261 2657 
Q 3669 2231 3669 1497 
Q 3669 778 3244 343 
Q 2819 -91 2113 -91 
Q 1303 -91 875 529 
Q 447 1150 447 2328 
Q 447 3434 972 4092 
Q 1497 4750 2381 4750 
Q 2619 4750 2861 4703 
Q 3103 4656 3366 4563 
z
" transform="scale(0.015625)"/>
       </defs>
       <use xlink:href="#DejaVuSans-32"/>
       <use xlink:href="#DejaVuSans-30" x="63.623047"/>
       <use xlink:href="#DejaVuSans-32" x="127.246094"/>
       <use xlink:href="#DejaVuSans-34" x="190.869141"/>
       <use xlink:href="#DejaVuSans-2d" x="254.492188"/>
       <use xlink:href="#DejaVuSans-30" x="290.576172"/>
       <use xlink:href="#DejaVuSans-36" x="354.199219"/>
      </g>
     </g>
    </g>
    <g id="text_12">
     <!-- Date -->
     <g style="fill: #555555" transform="translate(501.313563 624.248253)scale(0.12 -0.12)">
      <defs>
       <path id="DejaVuSans-44" d="M 1259 4147 
L 1259 519 
L 2022 519 
Q 2988 519 3436 956 
Q 3884 1394 3884 2338 
Q 3884 3275 3436 3711 
Q 2988 4147 2022 4147 
L 1259 4147 
z
M 628 4666 
L 1925 4666 
Q 3281 4666 3915 4102 
Q 4550 3538 4550 2338 
Q 4550 1131 3912 565 
Q 3275 0 1925 0 
L 628 0 
L 628 4666 
z
" transform="scale(0.015625)"/>
       <path id="DejaVuSans-61" d="M 2194 1759 
Q 1497 1759 1228 1600 
Q 959 1441 959 1056 
Q 959 750 1161 570 
Q 1363 391 1709 391 
Q 2188 391 2477 730 
Q 2766 1069 2766 1631 
L 2766 1759 
L 2194 1759 
z
M 3341 1997 
L 3341 0 
L 2766 0 
L 2766 531 
Q 2569 213 2275 61 
Q 1981 -91 1556 -91 
Q 1019 -91 701 211 
Q 384 513 384 1019 
Q 384 1609 779 1909 
Q 1175 2209 1959 2209 
L 2766 2209 
L 2766 2266 
Q 2766 2663 2505 2880 
Q 2244 3097 1772 3097 
Q 1472 3097 1187 3025 
Q 903 2953 641 2809 
L 641 3341 
Q 956 3463 1253 3523 
Q 1550 3584 1831 3584 
Q 2591 3584 2966 3190 
Q 3341 2797 3341 1997 
z
" transform="scale(0.015625)"/>
       <path id="DejaVuSans-74" d="M 1172 4494 
L 1172 3500 
L 2356 3500 
L 2356 3053 
L 1172 3053 
L 1172 1153 
Q 1172 725 1289 603 
Q 1406 481 1766 481 
L 2356 481 
L 2356 0 
L 1766 0 
Q 1100 0 847 248 
Q 594 497 594 1153 
L 594 3053 
L 172 3053 
L 172 3500 
L 594 3500 
L 594 4494 
L 1172 4494 
z
" transform="scale(0.015625)"/>
       <path id="DejaVuSans-65" d="M 3597 1894 
L 3597 1613 
L 953 1613 
Q 991 1019 1311 708 
Q 1631 397 2203 397 
Q 2534 397 2845 478 
Q 3156 559 3463 722 
L 3463 178 
Q 3153 47 2828 -22 
Q 2503 -91 2169 -91 
Q 1331 -91 842 396 
Q 353 884 353 1716 
Q 353 2575 817 3079 
Q 1281 3584 2069 3584 
Q 2775 3584 3186 3129 
Q 3597 2675 3597 1894 
z
M 3022 2063 
Q 3016 2534 2758 2815 
Q 2500 3097 2075 3097 
Q 1594 3097 1305 2825 
Q 1016 2553 972 2059 
L 3022 2063 
z
" transform="scale(0.015625)"/>
      </defs>
      <use xlink:href="#DejaVuSans-44"/>
      <use xlink:href="#DejaVuSans-61" x="77.001953"/>
      <use xlink:href="#DejaVuSans-74" x="138.28125"/>
      <use xlink:href="#DejaVuSans-65" x="177.490234"/>
     </g>
    </g>
   </g>
   <g id="matplotlib.axis_2">
    <g id="ytick_1">
     <g id="line2d_23">
      <path d="M 64.2325 567.74175 
L 967.0765 567.74175 
" clip-path="url(#p57cbf77765)" style="fill: none; stroke: #ffffff; stroke-width: 0.8; stroke-linecap: square"/>
     </g>
     <g id="line2d_24">
      <defs>
       <path id="m90db42899e" d="M 0 0 
L -3.5 0 
" style="stroke: #555555; stroke-width: 0.8"/>
      </defs>
      <g>
       <use xlink:href="#m90db42899e" x="64.2325" y="567.74175" style="fill: #555555; stroke: #555555; stroke-width: 0.8"/>
      </g>
     </g>
     <g id="text_13">
      <!-- 0k -->
      <g style="fill: #555555" transform="translate(45.079375 571.540969)scale(0.1 -0.1)">
       <defs>
        <path id="DejaVuSans-6b" d="M 581 4863 
L 1159 4863 
L 1159 1991 
L 2875 3500 
L 3609 3500 
L 1753 1863 
L 3688 0 
L 2938 0 
L 1159 1709 
L 1159 0 
L 581 0 
L 581 4863 
z
" transform="scale(0.015625)"/>
       </defs>
       <use xlink:href="#DejaVuSans-30"/>
       <use xlink:href="#DejaVuSans-6b" x="63.623047"/>
      </g>
     </g>
    </g>
    <g id="ytick_2">
     <g id="line2d_25">
      <path d="M 64.2325 479.972178 
L 967.0765 479.972178 
" clip-path="url(#p57cbf77765)" style="fill: none; stroke: #ffffff; stroke-width: 0.8; stroke-linecap: square"/>
     </g>
     <g id="line2d_26">
      <g>
       <use xlink:href="#m90db42899e" x="64.2325" y="479.972178" style="fill: #555555; stroke: #555555; stroke-width: 0.8"/>
      </g>
     </g>
     <g id="text_14">
      <!-- 200k -->
      <g style="fill: #555555" transform="translate(32.354375 483.771397)scale(0.1 -0.1)">
       <use xlink:href="#DejaVuSans-32"/>
       <use xlink:href="#DejaVuSans-30" x="63.623047"/>
       <use xlink:href="#DejaVuSans-30" x="127.246094"/>
       <use xlink:href="#DejaVuSans-6b" x="190.869141"/>
      </g>
     </g>
    </g>
    <g id="ytick_3">
     <g id="line2d_27">
      <path d="M 64.2325 392.202607 
L 967.0765 392.202607 
" clip-path="url(#p57cbf77765)" style="fill: none; stroke: #ffffff; stroke-width: 0.8; stroke-linecap: square"/>
     </g>
     <g id="line2d_28">
      <g>
       <use xlink:href="#m90db42899e" x="64.2325" y="392.202607" style="fill: #555555; stroke: #555555; stroke-width: 0.8"/>
      </g>
     </g>
     <g id="text_15">
      <!-- 400k -->
      <g style="fill: #555555" transform="translate(32.354375 396.001825)scale(0.1 -0.1)">
       <use xlink:href="#DejaVuSans-34"/>
       <use xlink:href="#DejaVuSans-30" x="63.623047"/>
       <use xlink:href="#DejaVuSans-30" x="127.246094"/>
       <use xlink:href="#DejaVuSans-6b" x="190.869141"/>
      </g>
     </g>
    </g>
    <g id="ytick_4">
     <g id="line2d_29">
      <path d="M 64.2325 304.433035 
L 967.0765 304.433035 
" clip-path="url(#p57cbf77765)" style="fill: none; stroke: #ffffff; stroke-width: 0.8; stroke-linecap: square"/>
     </g>
     <g id="line2d_30">
      <g>
       <use xlink:href="#m90db42899e" x="64.2325" y="304.433035" style="fill: #555555; stroke: #555555; stroke-width: 0.8"/>
      </g>
     </g>
     <g id="text_16">
      <!-- 600k -->
      <g style="fill: #555555" transform="translate(32.354375 308.232254)scale(0.1 -0.1)">
       <use xlink:href="#DejaVuSans-36"/>
       <use xlink:href="#DejaVuSans-30" x="63.623047"/>
       <use xlink:href="#DejaVuSans-30" x="127.246094"/>
       <use xlink:href="#DejaVuSans-6b" x="190.869141"/>
      </g>
     </g>
    </g>
    <g id="ytick_5">
     <g id="line2d_31">
      <path d="M 64.2325 216.663463 
L 967.0765 216.663463 
" clip-path="url(#p57cbf77765)" style="fill: none; stroke: #ffffff; stroke-width: 0.8; stroke-linecap: square"/>
     </g>
     <g id="line2d_32">
      <g>
       <use xlink:href="#m90db42899e" x="64.2325" y="216.663463" style="fill: #555555; stroke: #555555; stroke-width: 0.8"/>
      </g>
     </g>
     <g id="text_17">
      <!-- 800k -->
      <g style="fill: #555555" transform="translate(32.354375 220.462682)scale(0.1 -0.1)">
       <use xlink:href="#DejaVuSans-38"/>
       <use xlink:href="#DejaVuSans-30" x="63.623047"/>
       <use xlink:href="#DejaVuSans-30" x="127.246094"/>
       <use xlink:href="#DejaVuSans-6b" x="190.869141"/>
      </g>
     </g>
    </g>
    <g id="ytick_6">
     <g id="line2d_33">
      <path d="M 64.2325 128.893892 
L 967.0765 128.893892 
" clip-path="url(#p57cbf77765)" style="fill: none; stroke: #ffffff; stroke-width: 0.8; stroke-linecap: square"/>
     </g>
     <g id="line2d_34">
      <g>
       <use xlink:href="#m90db42899e" x="64.2325" y="128.893892" style="fill: #555555; stroke: #555555; stroke-width: 0.8"/>
      </g>
     </g>
     <g id="text_18">
      <!-- 1,000k -->
      <g style="fill: #555555" transform="translate(22.81375 132.69311)scale(0.1 -0.1)">
       <defs>
        <path id="DejaVuSans-2c" d="M 750 794 
L 1409 794 
L 1409 256 
L 897 -744 
L 494 -744 
L 750 256 
L 750 794 
z
" transform="scale(0.015625)"/>
       </defs>
       <use xlink:href="#DejaVuSans-31"/>
       <use xlink:href="#DejaVuSans-2c" x="63.623047"/>
       <use xlink:href="#DejaVuSans-30" x="95.410156"/>
       <use xlink:href="#DejaVuSans-30" x="159.033203"/>
       <use xlink:href="#DejaVuSans-30" x="222.65625"/>
       <use xlink:href="#DejaVuSans-6b" x="286.279297"/>
      </g>
     </g>
    </g>
    <g id="ytick_7">
     <g id="line2d_35">
      <path d="M 64.2325 41.12432 
L 967.0765 41.12432 
" clip-path="url(#p57cbf77765)" style="fill: none; stroke: #ffffff; stroke-width: 0.8; stroke-linecap: square"/>
     </g>
     <g id="line2d_36">
      <g>
       <use xlink:href="#m90db42899e" x="64.2325" y="41.12432" style="fill: #555555; stroke: #555555; stroke-width: 0.8"/>
      </g>
     </g>
     <g id="text_19">
      <!-- 1,200k -->
      <g style="fill: #555555" transform="translate(22.81375 44.923539)scale(0.1 -0.1)">
       <use xlink:href="#DejaVuSans-31"/>
       <use xlink:href="#DejaVuSans-2c" x="63.623047"/>
       <use xlink:href="#DejaVuSans-32" x="95.410156"/>
       <use xlink:href="#DejaVuSans-30" x="159.033203"/>
       <use xlink:href="#DejaVuSans-30" x="222.65625"/>
       <use xlink:href="#DejaVuSans-6b" x="286.279297"/>
      </g>
     </g>
    </g>
    <g id="text_20">
     <!-- Instances -->
     <g style="fill: #555555" transform="translate(16.318125 324.588)rotate(-90)scale(0.12 -0.12)">
      <defs>
       <path id="DejaVuSans-49" d="M 628 4666 
L 1259 4666 
L 1259 0 
L 628 0 
L 628 4666 
z
" transform="scale(0.015625)"/>
       <path id="DejaVuSans-6e" d="M 3513 2113 
L 3513 0 
L 2938 0 
L 2938 2094 
Q 2938 2591 2744 2837 
Q 2550 3084 2163 3084 
Q 1697 3084 1428 2787 
Q 1159 2491 1159 1978 
L 1159 0 
L 581 0 
L 581 3500 
L 1159 3500 
L 1159 2956 
Q 1366 3272 1645 3428 
Q 1925 3584 2291 3584 
Q 2894 3584 3203 3211 
Q 3513 2838 3513 2113 
z
" transform="scale(0.015625)"/>
       <path id="DejaVuSans-73" d="M 2834 3397 
L 2834 2853 
Q 2591 2978 2328 3040 
Q 2066 3103 1784 3103 
Q 1356 3103 1142 2972 
Q 928 2841 928 2578 
Q 928 2378 1081 2264 
Q 1234 2150 1697 2047 
L 1894 2003 
Q 2506 1872 2764 1633 
Q 3022 1394 3022 966 
Q 3022 478 2636 193 
Q 2250 -91 1575 -91 
Q 1294 -91 989 -36 
Q 684 19 347 128 
L 347 722 
Q 666 556 975 473 
Q 1284 391 1588 391 
Q 1994 391 2212 530 
Q 2431 669 2431 922 
Q 2431 1156 2273 1281 
Q 2116 1406 1581 1522 
L 1381 1569 
Q 847 1681 609 1914 
Q 372 2147 372 2553 
Q 372 3047 722 3315 
Q 1072 3584 1716 3584 
Q 2034 3584 2315 3537 
Q 2597 3491 2834 3397 
z
" transform="scale(0.015625)"/>
       <path id="DejaVuSans-63" d="M 3122 3366 
L 3122 2828 
Q 2878 2963 2633 3030 
Q 2388 3097 2138 3097 
Q 1578 3097 1268 2742 
Q 959 2388 959 1747 
Q 959 1106 1268 751 
Q 1578 397 2138 397 
Q 2388 397 2633 464 
Q 2878 531 3122 666 
L 3122 134 
Q 2881 22 2623 -34 
Q 2366 -91 2075 -91 
Q 1284 -91 818 406 
Q 353 903 353 1747 
Q 353 2603 823 3093 
Q 1294 3584 2113 3584 
Q 2378 3584 2631 3529 
Q 2884 3475 3122 3366 
z
" transform="scale(0.015625)"/>
      </defs>
      <use xlink:href="#DejaVuSans-49"/>
      <use xlink:href="#DejaVuSans-6e" x="29.492188"/>
      <use xlink:href="#DejaVuSans-73" x="92.871094"/>
      <use xlink:href="#DejaVuSans-74" x="144.970703"/>
      <use xlink:href="#DejaVuSans-61" x="184.179688"/>
      <use xlink:href="#DejaVuSans-6e" x="245.458984"/>
      <use xlink:href="#DejaVuSans-63" x="308.837891"/>
      <use xlink:href="#DejaVuSans-65" x="363.818359"/>
      <use xlink:href="#DejaVuSans-73" x="425.341797"/>
     </g>
    </g>
   </g>
   <g id="line2d_37">
    <path d="M 64.2325 446.227331 
L 73.352136 444.957524 
L 82.471773 443.687718 
L 91.591409 442.417912 
L 100.711045 441.148105 
L 109.830682 439.878299 
L 118.950318 438.608493 
L 128.069955 437.338686 
L 137.189591 436.06888 
L 146.309227 434.799074 
L 155.428864 433.529267 
L 164.5485 432.259461 
L 173.668136 430.989655 
L 182.787773 429.719848 
L 191.907409 428.450042 
L 201.027045 427.180236 
L 210.146682 425.910429 
L 219.266318 424.640623 
L 228.385955 423.370817 
L 237.505591 422.10101 
L 246.625227 420.831204 
L 255.744864 419.561398 
L 264.8645 418.291591 
L 273.984136 417.021785 
L 283.103773 415.751979 
L 292.223409 414.482173 
L 301.343045 413.212366 
L 310.462682 411.94256 
L 319.582318 410.672754 
L 328.701955 409.402947 
L 337.821591 408.133141 
L 346.941227 406.863335 
L 356.060864 405.593528 
L 365.1805 404.323722 
L 374.300136 403.053916 
L 383.419773 401.784109 
L 392.539409 400.514303 
L 401.659045 399.244497 
L 410.778682 397.97469 
L 419.898318 396.704884 
L 429.017955 395.435078 
L 438.137591 394.165271 
L 447.257227 392.895465 
L 456.376864 391.625659 
L 465.4965 390.355852 
L 474.616136 389.086046 
L 483.735773 387.81624 
L 492.855409 386.546433 
L 501.975045 385.276627 
L 511.094682 384.006821 
L 520.214318 382.737014 
L 529.333955 381.467208 
L 538.453591 380.197402 
L 547.573227 378.927596 
L 556.692864 377.657789 
L 565.8125 376.387983 
L 574.932136 375.118177 
L 584.051773 373.84837 
L 593.171409 372.578564 
L 602.291045 371.308758 
L 611.410682 370.038951 
L 620.530318 368.769145 
L 629.649955 367.499339 
L 638.769591 366.229532 
L 647.889227 364.959726 
L 657.008864 363.68992 
L 666.1285 362.420113 
L 675.248136 361.150307 
L 684.367773 359.880501 
L 693.487409 358.610694 
L 702.607045 357.340888 
L 711.726682 356.071082 
L 720.846318 354.801275 
L 729.965955 353.531469 
L 739.085591 352.261663 
L 748.205227 350.991856 
L 757.324864 349.72205 
L 766.4445 348.452244 
L 775.564136 347.182437 
L 784.683773 345.912631 
L 793.803409 344.642825 
L 802.923045 343.373018 
L 812.042682 342.103212 
L 821.162318 340.833406 
L 830.281955 339.5636 
L 839.401591 338.293793 
L 848.521227 337.023987 
L 857.640864 335.754181 
L 866.7605 334.484374 
L 875.880136 333.214568 
L 884.999773 331.944762 
L 894.119409 330.674955 
L 903.239045 329.405149 
L 912.358682 328.135343 
L 921.478318 326.865536 
L 930.597955 325.59573 
L 939.717591 324.325924 
L 948.837227 323.056117 
L 957.956864 321.786311 
L 967.0765 320.516505 
" clip-path="url(#p57cbf77765)" style="fill: none; stroke-dasharray: 1.5,2.475; stroke-dashoffset: 0; stroke: #4ac1fa; stroke-width: 1.5"/>
   </g>
   <g id="line2d_38">
    <path d="M 64.2325 411.258418 
L 73.352136 411.170318 
L 82.471773 411.082219 
L 91.591409 410.99412 
L 100.711045 410.906021 
L 109.830682 410.817922 
L 118.950318 410.729823 
L 128.069955 410.641723 
L 137.189591 410.553624 
L 146.309227 410.465525 
L 155.428864 410.377426 
L 164.5485 410.289327 
L 173.668136 410.201228 
L 182.787773 410.113128 
L 191.907409 410.025029 
L 201.027045 409.93693 
L 210.146682 409.848831 
L 219.266318 409.760732 
L 228.385955 409.672633 
L 237.505591 409.584534 
L 246.625227 409.496434 
L 255.744864 409.408335 
L 264.8645 409.320236 
L 273.984136 409.232137 
L 283.103773 409.144038 
L 292.223409 409.055939 
L 301.343045 408.967839 
L 310.462682 408.87974 
L 319.582318 408.791641 
L 328.701955 408.703542 
L 337.821591 408.615443 
L 346.941227 408.527344 
L 356.060864 408.439244 
L 365.1805 408.351145 
L 374.300136 408.263046 
L 383.419773 408.174947 
L 392.539409 408.086848 
L 401.659045 407.998749 
L 410.778682 407.910649 
L 419.898318 407.82255 
L 429.017955 407.734451 
L 438.137591 407.646352 
L 447.257227 407.558253 
L 456.376864 407.470154 
L 465.4965 407.382055 
L 474.616136 407.293955 
L 483.735773 407.205856 
L 492.855409 407.117757 
L 501.975045 407.029658 
L 511.094682 406.941559 
L 520.214318 406.85346 
L 529.333955 406.76536 
L 538.453591 406.677261 
L 547.573227 406.589162 
L 556.692864 406.501063 
L 565.8125 406.412964 
L 574.932136 406.324865 
L 584.051773 406.236765 
L 593.171409 406.148666 
L 602.291045 406.060567 
L 611.410682 405.972468 
L 620.530318 405.884369 
L 629.649955 405.79627 
L 638.769591 405.70817 
L 647.889227 405.620071 
L 657.008864 405.531972 
L 666.1285 405.443873 
L 675.248136 405.355774 
L 684.367773 405.267675 
L 693.487409 405.179576 
L 702.607045 405.091476 
L 711.726682 405.003377 
L 720.846318 404.915278 
L 729.965955 404.827179 
L 739.085591 404.73908 
L 748.205227 404.650981 
L 757.324864 404.562881 
L 766.4445 404.474782 
L 775.564136 404.386683 
L 784.683773 404.298584 
L 793.803409 404.210485 
L 802.923045 404.122386 
L 812.042682 404.034286 
L 821.162318 403.946187 
L 830.281955 403.858088 
L 839.401591 403.769989 
L 848.521227 403.68189 
L 857.640864 403.593791 
L 866.7605 403.505691 
L 875.880136 403.417592 
L 884.999773 403.329493 
L 894.119409 403.241394 
L 903.239045 403.153295 
L 912.358682 403.065196 
L 921.478318 402.977097 
L 930.597955 402.888997 
L 939.717591 402.800898 
L 948.837227 402.712799 
L 957.956864 402.6247 
L 967.0765 402.536601 
" clip-path="url(#p57cbf77765)" style="fill: none; stroke-dasharray: 1.5,2.475; stroke-dashoffset: 0; stroke: #e9a942; stroke-width: 1.5"/>
   </g>
   <g id="line2d_39">
    <path d="M 64.2325 428.428599 
L 73.352136 428.500394 
L 82.471773 428.57219 
L 91.591409 428.643986 
L 100.711045 428.715781 
L 109.830682 428.787577 
L 118.950318 428.859372 
L 128.069955 428.931168 
L 137.189591 429.002964 
L 146.309227 429.074759 
L 155.428864 429.146555 
L 164.5485 429.21835 
L 173.668136 429.290146 
L 182.787773 429.361942 
L 191.907409 429.433737 
L 201.027045 429.505533 
L 210.146682 429.577328 
L 219.266318 429.649124 
L 228.385955 429.72092 
L 237.505591 429.792715 
L 246.625227 429.864511 
L 255.744864 429.936306 
L 264.8645 430.008102 
L 273.984136 430.079898 
L 283.103773 430.151693 
L 292.223409 430.223489 
L 301.343045 430.295284 
L 310.462682 430.36708 
L 319.582318 430.438875 
L 328.701955 430.510671 
L 337.821591 430.582467 
L 346.941227 430.654262 
L 356.060864 430.726058 
L 365.1805 430.797853 
L 374.300136 430.869649 
L 383.419773 430.941445 
L 392.539409 431.01324 
L 401.659045 431.085036 
L 410.778682 431.156831 
L 419.898318 431.228627 
L 429.017955 431.300423 
L 438.137591 431.372218 
L 447.257227 431.444014 
L 456.376864 431.515809 
L 465.4965 431.587605 
L 474.616136 431.659401 
L 483.735773 431.731196 
L 492.855409 431.802992 
L 501.975045 431.874787 
L 511.094682 431.946583 
L 520.214318 432.018378 
L 529.333955 432.090174 
L 538.453591 432.16197 
L 547.573227 432.233765 
L 556.692864 432.305561 
L 565.8125 432.377356 
L 574.932136 432.449152 
L 584.051773 432.520948 
L 593.171409 432.592743 
L 602.291045 432.664539 
L 611.410682 432.736334 
L 620.530318 432.80813 
L 629.649955 432.879926 
L 638.769591 432.951721 
L 647.889227 433.023517 
L 657.008864 433.095312 
L 666.1285 433.167108 
L 675.248136 433.238904 
L 684.367773 433.310699 
L 693.487409 433.382495 
L 702.607045 433.45429 
L 711.726682 433.526086 
L 720.846318 433.597881 
L 729.965955 433.669677 
L 739.085591 433.741473 
L 748.205227 433.813268 
L 757.324864 433.885064 
L 766.4445 433.956859 
L 775.564136 434.028655 
L 784.683773 434.100451 
L 793.803409 434.172246 
L 802.923045 434.244042 
L 812.042682 434.315837 
L 821.162318 434.387633 
L 830.281955 434.459429 
L 839.401591 434.531224 
L 848.521227 434.60302 
L 857.640864 434.674815 
L 866.7605 434.746611 
L 875.880136 434.818407 
L 884.999773 434.890202 
L 894.119409 434.961998 
L 903.239045 435.033793 
L 912.358682 435.105589 
L 921.478318 435.177385 
L 930.597955 435.24918 
L 939.717591 435.320976 
L 948.837227 435.392771 
L 957.956864 435.464567 
L 967.0765 435.536362 
" clip-path="url(#p57cbf77765)" style="fill: none; stroke-dasharray: 1.5,2.475; stroke-dashoffset: 0; stroke: #9a5689; stroke-width: 1.5"/>
   </g>
   <g id="line2d_40">
    <path d="M 64.2325 537.121852 
L 73.352136 536.988883 
L 82.471773 536.855915 
L 91.591409 536.722947 
L 100.711045 536.589978 
L 109.830682 536.45701 
L 118.950318 536.324042 
L 128.069955 536.191073 
L 137.189591 536.058105 
L 146.309227 535.925137 
L 155.428864 535.792168 
L 164.5485 535.6592 
L 173.668136 535.526232 
L 182.787773 535.393263 
L 191.907409 535.260295 
L 201.027045 535.127327 
L 210.146682 534.994358 
L 219.266318 534.86139 
L 228.385955 534.728422 
L 237.505591 534.595453 
L 246.625227 534.462485 
L 255.744864 534.329517 
L 264.8645 534.196548 
L 273.984136 534.06358 
L 283.103773 533.930612 
L 292.223409 533.797643 
L 301.343045 533.664675 
L 310.462682 533.531707 
L 319.582318 533.398738 
L 328.701955 533.26577 
L 337.821591 533.132802 
L 346.941227 532.999833 
L 356.060864 532.866865 
L 365.1805 532.733897 
L 374.300136 532.600928 
L 383.419773 532.46796 
L 392.539409 532.334992 
L 401.659045 532.202023 
L 410.778682 532.069055 
L 419.898318 531.936087 
L 429.017955 531.803118 
L 438.137591 531.67015 
L 447.257227 531.537182 
L 456.376864 531.404213 
L 465.4965 531.271245 
L 474.616136 531.138277 
L 483.735773 531.005308 
L 492.855409 530.87234 
L 501.975045 530.739372 
L 511.094682 530.606403 
L 520.214318 530.473435 
L 529.333955 530.340467 
L 538.453591 530.207498 
L 547.573227 530.07453 
L 556.692864 529.941562 
L 565.8125 529.808593 
L 574.932136 529.675625 
L 584.051773 529.542657 
L 593.171409 529.409688 
L 602.291045 529.27672 
L 611.410682 529.143752 
L 620.530318 529.010783 
L 629.649955 528.877815 
L 638.769591 528.744847 
L 647.889227 528.611878 
L 657.008864 528.47891 
L 666.1285 528.345942 
L 675.248136 528.212973 
L 684.367773 528.080005 
L 693.487409 527.947037 
L 702.607045 527.814068 
L 711.726682 527.6811 
L 720.846318 527.548132 
L 729.965955 527.415163 
L 739.085591 527.282195 
L 748.205227 527.149227 
L 757.324864 527.016258 
L 766.4445 526.88329 
L 775.564136 526.750322 
L 784.683773 526.617353 
L 793.803409 526.484385 
L 802.923045 526.351417 
L 812.042682 526.218448 
L 821.162318 526.08548 
L 830.281955 525.952512 
L 839.401591 525.819543 
L 848.521227 525.686575 
L 857.640864 525.553607 
L 866.7605 525.420638 
L 875.880136 525.28767 
L 884.999773 525.154702 
L 894.119409 525.021733 
L 903.239045 524.888765 
L 912.358682 524.755797 
L 921.478318 524.622828 
L 930.597955 524.48986 
L 939.717591 524.356892 
L 948.837227 524.223923 
L 957.956864 524.090955 
L 967.0765 523.957987 
" clip-path="url(#p57cbf77765)" style="fill: none; stroke-dasharray: 1.5,2.475; stroke-dashoffset: 0; stroke: #be503b; stroke-width: 1.5"/>
   </g>
   <g id="line2d_41">
    <path d="M 64.2325 415.16986 
L 73.352136 414.286593 
L 82.471773 413.403326 
L 91.591409 412.520058 
L 100.711045 411.636791 
L 109.830682 410.753524 
L 118.950318 409.870256 
L 128.069955 408.986989 
L 137.189591 408.103722 
L 146.309227 407.220454 
L 155.428864 406.337187 
L 164.5485 405.45392 
L 173.668136 404.570652 
L 182.787773 403.687385 
L 191.907409 402.804118 
L 201.027045 401.92085 
L 210.146682 401.037583 
L 219.266318 400.154316 
L 228.385955 399.271048 
L 237.505591 398.387781 
L 246.625227 397.504514 
L 255.744864 396.621246 
L 264.8645 395.737979 
L 273.984136 394.854712 
L 283.103773 393.971444 
L 292.223409 393.088177 
L 301.343045 392.20491 
L 310.462682 391.321642 
L 319.582318 390.438375 
L 328.701955 389.555108 
L 337.821591 388.67184 
L 346.941227 387.788573 
L 356.060864 386.905306 
L 365.1805 386.022038 
L 374.300136 385.138771 
L 383.419773 384.255504 
L 392.539409 383.372237 
L 401.659045 382.488969 
L 410.778682 381.605702 
L 419.898318 380.722435 
L 429.017955 379.839167 
L 438.137591 378.9559 
L 447.257227 378.072633 
L 456.376864 377.189365 
L 465.4965 376.306098 
L 474.616136 375.422831 
L 483.735773 374.539563 
L 492.855409 373.656296 
L 501.975045 372.773029 
L 511.094682 371.889761 
L 520.214318 371.006494 
L 529.333955 370.123227 
L 538.453591 369.239959 
L 547.573227 368.356692 
L 556.692864 367.473425 
L 565.8125 366.590157 
L 574.932136 365.70689 
L 584.051773 364.823623 
L 593.171409 363.940355 
L 602.291045 363.057088 
L 611.410682 362.173821 
L 620.530318 361.290553 
L 629.649955 360.407286 
L 638.769591 359.524019 
L 647.889227 358.640751 
L 657.008864 357.757484 
L 666.1285 356.874217 
L 675.248136 355.99095 
L 684.367773 355.107682 
L 693.487409 354.224415 
L 702.607045 353.341148 
L 711.726682 352.45788 
L 720.846318 351.574613 
L 729.965955 350.691346 
L 739.085591 349.808078 
L 748.205227 348.924811 
L 757.324864 348.041544 
L 766.4445 347.158276 
L 775.564136 346.275009 
L 784.683773 345.391742 
L 793.803409 344.508474 
L 802.923045 343.625207 
L 812.042682 342.74194 
L 821.162318 341.858672 
L 830.281955 340.975405 
L 839.401591 340.092138 
L 848.521227 339.20887 
L 857.640864 338.325603 
L 866.7605 337.442336 
L 875.880136 336.559068 
L 884.999773 335.675801 
L 894.119409 334.792534 
L 903.239045 333.909266 
L 912.358682 333.025999 
L 921.478318 332.142732 
L 930.597955 331.259464 
L 939.717591 330.376197 
L 948.837227 329.49293 
L 957.956864 328.609662 
L 967.0765 327.726395 
" clip-path="url(#p57cbf77765)" style="fill: none; stroke-dasharray: 1.5,2.475; stroke-dashoffset: 0; stroke: #e2321d; stroke-width: 1.5"/>
   </g>
   <g id="line2d_42">
    <path d="M 64.2325 389.733135 
L 73.352136 386.636264 
L 82.471773 383.539393 
L 91.591409 380.442522 
L 100.711045 377.345651 
L 109.830682 374.24878 
L 118.950318 371.15191 
L 128.069955 368.055039 
L 137.189591 364.958168 
L 146.309227 361.861297 
L 155.428864 358.764426 
L 164.5485 355.667555 
L 173.668136 352.570684 
L 182.787773 349.473813 
L 191.907409 346.376942 
L 201.027045 343.280071 
L 210.146682 340.183201 
L 219.266318 337.08633 
L 228.385955 333.989459 
L 237.505591 330.892588 
L 246.625227 327.795717 
L 255.744864 324.698846 
L 264.8645 321.601975 
L 273.984136 318.505104 
L 283.103773 315.408233 
L 292.223409 312.311362 
L 301.343045 309.214492 
L 310.462682 306.117621 
L 319.582318 303.02075 
L 328.701955 299.923879 
L 337.821591 296.827008 
L 346.941227 293.730137 
L 356.060864 290.633266 
L 365.1805 287.536395 
L 374.300136 284.439524 
L 383.419773 281.342653 
L 392.539409 278.245783 
L 401.659045 275.148912 
L 410.778682 272.052041 
L 419.898318 268.95517 
L 429.017955 265.858299 
L 438.137591 262.761428 
L 447.257227 259.664557 
L 456.376864 256.567686 
L 465.4965 253.470815 
L 474.616136 250.373944 
L 483.735773 247.277074 
L 492.855409 244.180203 
L 501.975045 241.083332 
L 511.094682 237.986461 
L 520.214318 234.88959 
L 529.333955 231.792719 
L 538.453591 228.695848 
L 547.573227 225.598977 
L 556.692864 222.502106 
L 565.8125 219.405235 
L 574.932136 216.308365 
L 584.051773 213.211494 
L 593.171409 210.114623 
L 602.291045 207.017752 
L 611.410682 203.920881 
L 620.530318 200.82401 
L 629.649955 197.727139 
L 638.769591 194.630268 
L 647.889227 191.533397 
L 657.008864 188.436526 
L 666.1285 185.339656 
L 675.248136 182.242785 
L 684.367773 179.145914 
L 693.487409 176.049043 
L 702.607045 172.952172 
L 711.726682 169.855301 
L 720.846318 166.75843 
L 729.965955 163.661559 
L 739.085591 160.564688 
L 748.205227 157.467817 
L 757.324864 154.370947 
L 766.4445 151.274076 
L 775.564136 148.177205 
L 784.683773 145.080334 
L 793.803409 141.983463 
L 802.923045 138.886592 
L 812.042682 135.789721 
L 821.162318 132.69285 
L 830.281955 129.595979 
L 839.401591 126.499108 
L 848.521227 123.402238 
L 857.640864 120.305367 
L 866.7605 117.208496 
L 875.880136 114.111625 
L 884.999773 111.014754 
L 894.119409 107.917883 
L 903.239045 104.821012 
L 912.358682 101.724141 
L 921.478318 98.62727 
L 930.597955 95.530399 
L 939.717591 92.433529 
L 948.837227 89.336658 
L 957.956864 86.239787 
L 967.0765 83.142916 
" clip-path="url(#p57cbf77765)" style="fill: none; stroke-dasharray: 1.5,2.475; stroke-dashoffset: 0; stroke: #48b585; stroke-width: 1.5"/>
   </g>
   <g id="line2d_43">
    <path d="M 64.2325 438.53002 
L 82.28938 439.506017 
L 100.34626 440.721187 
L 118.40314 436.140054 
L 136.46002 438.342632 
L 154.5169 431.263138 
L 172.57378 428.237282 
L 190.63066 423.975192 
L 208.68754 424.881851 
L 226.74442 422.6389 
L 244.8013 421.118731 
L 298.97194 413.334448 
L 317.02882 410.438929 
L 335.0857 405.853847 
L 353.14258 406.588917 
L 371.19946 406.861003 
L 389.25634 401.635641 
L 407.31322 403.5635 
L 425.3701 403.520493 
L 443.42698 398.123103 
L 461.48386 398.934094 
L 479.54074 397.938348 
L 497.59762 399.953099 
L 515.6545 383.268542 
L 533.71138 378.995042 
L 551.76826 379.747666 
L 569.82514 375.961725 
L 587.88202 373.161876 
L 605.9389 367.407703 
L 623.99578 355.131373 
L 642.05266 358.285372 
L 660.10954 358.454329 
L 678.16642 355.435494 
L 696.2233 357.185181 
L 714.28018 362.130118 
L 732.33706 356.926699 
L 750.39394 358.935745 
L 768.45082 354.529273 
L 786.5077 350.523031 
L 804.56458 349.372372 
L 822.62146 345.87651 
L 840.67834 344.574887 
L 858.73522 329.192392 
L 876.7921 326.183213 
L 894.84898 331.322121 
L 912.90586 328.544653 
L 930.96274 318.606943 
L 949.01962 315.301541 
L 967.0765 310.185892 
" clip-path="url(#p57cbf77765)" style="fill: none; stroke: #4ac1fa; stroke-width: 1.5; stroke-linecap: square"/>
   </g>
   <g id="line2d_44">
    <path d="M 64.2325 424.805492 
L 82.28938 413.219469 
L 100.34626 429.235222 
L 118.40314 452.294483 
L 136.46002 446.868129 
L 154.5169 420.46792 
L 172.57378 399.051266 
L 190.63066 418.523385 
L 208.68754 448.800376 
L 226.74442 430.387637 
L 244.8013 420.21646 
L 298.97194 395.976259 
L 317.02882 368.304708 
L 335.0857 394.603982 
L 353.14258 416.093923 
L 371.19946 374.72593 
L 389.25634 352.380674 
L 407.31322 421.369752 
L 425.3701 446.042217 
L 443.42698 452.105339 
L 461.48386 432.070179 
L 479.54074 391.646148 
L 497.59762 387.534143 
L 515.6545 397.568838 
L 533.71138 435.001244 
L 551.76826 356.265794 
L 569.82514 370.570479 
L 587.88202 359.740153 
L 605.9389 378.117346 
L 623.99578 346.679163 
L 642.05266 310.961775 
L 660.10954 347.668765 
L 678.16642 360.795143 
L 696.2233 426.194884 
L 714.28018 413.522713 
L 732.33706 401.181434 
L 750.39394 427.444723 
L 768.45082 426.262467 
L 786.5077 421.863456 
L 804.56458 405.347417 
L 822.62146 401.146326 
L 840.67834 402.000763 
L 858.73522 420.512243 
L 876.7921 406.713989 
L 894.84898 429.91763 
L 912.90586 433.548658 
L 930.96274 437.643108 
L 949.01962 442.482283 
L 967.0765 437.394281 
" clip-path="url(#p57cbf77765)" style="fill: none; stroke: #e9a942; stroke-width: 1.5; stroke-linecap: square"/>
   </g>
   <g id="line2d_45">
    <path d="M 64.2325 454.484772 
L 82.28938 449.771108 
L 100.34626 447.034452 
L 118.40314 445.78988 
L 136.46002 433.647398 
L 154.5169 443.557461 
L 172.57378 447.818235 
L 190.63066 442.401097 
L 208.68754 441.765206 
L 226.74442 442.281291 
L 244.8013 439.839542 
L 298.97194 429.397157 
L 317.02882 422.066642 
L 335.0857 420.990587 
L 353.14258 429.857508 
L 371.19946 425.257066 
L 389.25634 412.844693 
L 407.31322 425.832835 
L 425.3701 439.34496 
L 443.42698 433.78388 
L 461.48386 426.037338 
L 479.54074 423.650883 
L 497.59762 426.069812 
L 515.6545 422.661281 
L 533.71138 419.351052 
L 551.76826 422.500224 
L 569.82514 418.142465 
L 587.88202 419.786828 
L 605.9389 415.153911 
L 623.99578 391.508349 
L 642.05266 392.349182 
L 660.10954 413.196649 
L 678.16642 410.759727 
L 696.2233 373.980766 
L 714.28018 398.979295 
L 732.33706 400.898816 
L 750.39394 413.44767 
L 768.45082 403.526637 
L 786.5077 404.772965 
L 804.56458 398.590476 
L 822.62146 406.560392 
L 840.67834 462.916356 
L 858.73522 491.574877 
L 876.7921 489.734349 
L 894.84898 484.346175 
L 912.90586 482.948006 
L 930.96274 480.172293 
L 949.01962 476.553115 
L 967.0765 473.044087 
" clip-path="url(#p57cbf77765)" style="fill: none; stroke: #9a5689; stroke-width: 1.5; stroke-linecap: square"/>
   </g>
   <g id="line2d_46">
    <path d="M 64.2325 536.696336 
L 82.28938 536.354035 
L 100.34626 536.09292 
L 118.40314 536.11574 
L 136.46002 534.788225 
L 154.5169 535.402174 
L 172.57378 534.040868 
L 190.63066 534.534133 
L 208.68754 534.28004 
L 226.74442 534.452068 
L 244.8013 534.667542 
L 298.97194 534.020681 
L 317.02882 533.759566 
L 335.0857 533.669602 
L 353.14258 533.665214 
L 371.19946 533.428236 
L 389.25634 533.022741 
L 407.31322 533.176337 
L 425.3701 533.925012 
L 443.42698 532.854223 
L 461.48386 532.57336 
L 479.54074 532.172253 
L 497.59762 532.262217 
L 515.6545 530.392286 
L 533.71138 529.42726 
L 551.76826 530.139071 
L 569.82514 529.542677 
L 587.88202 529.353095 
L 605.9389 529.251721 
L 623.99578 527.96063 
L 642.05266 528.08263 
L 660.10954 528.039623 
L 678.16642 526.993849 
L 696.2233 527.184309 
L 714.28018 526.870532 
L 732.33706 527.720142 
L 750.39394 527.670991 
L 768.45082 526.958302 
L 786.5077 527.215028 
L 804.56458 526.713425 
L 822.62146 526.591864 
L 840.67834 529.154297 
L 858.73522 526.680072 
L 876.7921 525.695737 
L 894.84898 524.919854 
L 912.90586 523.705562 
L 930.96274 522.749751 
L 949.01962 522.399112 
L 967.0765 521.982206 
" clip-path="url(#p57cbf77765)" style="fill: none; stroke: #be503b; stroke-width: 1.5; stroke-linecap: square"/>
   </g>
   <g id="line2d_47">
    <path d="M 64.2325 408.615517 
L 82.28938 392.079729 
L 100.34626 396.480057 
L 118.40314 403.344076 
L 136.46002 381.733891 
L 154.5169 398.999482 
L 172.57378 402.904789 
L 190.63066 396.608639 
L 208.68754 401.59044 
L 226.74442 399.977674 
L 244.8013 399.173705 
L 298.97194 394.722032 
L 317.02882 396.629265 
L 335.0857 395.164391 
L 353.14258 388.696651 
L 371.19946 391.054142 
L 389.25634 387.92384 
L 407.31322 392.20129 
L 425.3701 403.564817 
L 443.42698 390.470035 
L 461.48386 386.602469 
L 479.54074 383.197449 
L 497.59762 383.609966 
L 515.6545 380.050032 
L 533.71138 377.06455 
L 551.76826 377.587656 
L 569.82514 375.801107 
L 587.88202 374.724613 
L 605.9389 372.135411 
L 623.99578 360.798654 
L 642.05266 359.330708 
L 660.10954 361.474041 
L 678.16642 357.008325 
L 696.2233 355.384588 
L 714.28018 351.829481 
L 732.33706 348.655295 
L 750.39394 350.832858 
L 768.45082 347.009615 
L 786.5077 344.447183 
L 804.56458 342.149814 
L 822.62146 337.31766 
L 840.67834 347.923735 
L 858.73522 335.921685 
L 876.7921 327.634921 
L 894.84898 325.99758 
L 912.90586 326.768636 
L 930.96274 318.373915 
L 949.01962 314.798183 
L 967.0765 307.374193 
" clip-path="url(#p57cbf77765)" style="fill: none; stroke: #e2321d; stroke-width: 1.5; stroke-linecap: square"/>
   </g>
   <g id="line2d_48">
    <path d="M 64.2325 375.1029 
L 82.28938 370.38353 
L 100.34626 363.683201 
L 118.40314 361.548645 
L 136.46002 363.88156 
L 154.5169 349.705897 
L 172.57378 347.928563 
L 190.63066 346.021769 
L 208.68754 335.681197 
L 226.74442 324.591073 
L 244.8013 328.155834 
L 298.97194 314.307112 
L 317.02882 316.213467 
L 335.0857 314.883758 
L 353.14258 294.3448 
L 371.19946 270.934461 
L 389.25634 256.028555 
L 407.31322 266.84045 
L 425.3701 282.147902 
L 443.42698 270.629023 
L 461.48386 263.179142 
L 479.54074 259.815812 
L 497.59762 283.558798 
L 515.6545 282.388391 
L 533.71138 264.717743 
L 551.76826 240.917707 
L 569.82514 249.990886 
L 587.88202 241.765122 
L 605.9389 203.728862 
L 623.99578 200.208863 
L 642.05266 182.503546 
L 660.10954 188.464855 
L 678.16642 145.420463 
L 696.2233 157.809138 
L 714.28018 155.739971 
L 732.33706 149.290224 
L 750.39394 141.304509 
L 768.45082 143.243778 
L 786.5077 148.624053 
L 804.56458 145.373945 
L 822.62146 128.00303 
L 840.67834 127.064335 
L 858.73522 117.235898 
L 876.7921 48.569374 
L 894.84898 87.706704 
L 912.90586 103.528047 
L 930.96274 81.100288 
L 949.01962 102.94394 
L 967.0765 122.69341 
" clip-path="url(#p57cbf77765)" style="fill: none; stroke: #48b585; stroke-width: 6; stroke-linecap: square"/>
   </g>
   <g id="patch_3">
    <path d="M 64.2325 567.74175 
L 64.2325 24.14175 
" style="fill: none; stroke: #ffffff; stroke-linejoin: miter; stroke-linecap: square"/>
   </g>
   <g id="patch_4">
    <path d="M 967.0765 567.74175 
L 967.0765 24.14175 
" style="fill: none; stroke: #ffffff; stroke-linejoin: miter; stroke-linecap: square"/>
   </g>
   <g id="patch_5">
    <path d="M 64.2325 567.74175 
L 967.0765 567.74175 
" style="fill: none; stroke: #ffffff; stroke-linejoin: miter; stroke-linecap: square"/>
   </g>
   <g id="patch_6">
    <path d="M 64.2325 24.14175 
L 967.0765 24.14175 
" style="fill: none; stroke: #ffffff; stroke-linejoin: miter; stroke-linecap: square"/>
   </g>
   <g id="text_21">
    <!-- Enterprise Linux 8 and 9 Instances by Distribution (System Age &gt; 1 Week) -->
    <g transform="translate(64.2325 18.14175)scale(0.144 -0.144)">
     <defs>
      <path id="DejaVuSans-45" d="M 628 4666 
L 3578 4666 
L 3578 4134 
L 1259 4134 
L 1259 2753 
L 3481 2753 
L 3481 2222 
L 1259 2222 
L 1259 531 
L 3634 531 
L 3634 0 
L 628 0 
L 628 4666 
z
" transform="scale(0.015625)"/>
      <path id="DejaVuSans-72" d="M 2631 2963 
Q 2534 3019 2420 3045 
Q 2306 3072 2169 3072 
Q 1681 3072 1420 2755 
Q 1159 2438 1159 1844 
L 1159 0 
L 581 0 
L 581 3500 
L 1159 3500 
L 1159 2956 
Q 1341 3275 1631 3429 
Q 1922 3584 2338 3584 
Q 2397 3584 2469 3576 
Q 2541 3569 2628 3553 
L 2631 2963 
z
" transform="scale(0.015625)"/>
      <path id="DejaVuSans-70" d="M 1159 525 
L 1159 -1331 
L 581 -1331 
L 581 3500 
L 1159 3500 
L 1159 2969 
Q 1341 3281 1617 3432 
Q 1894 3584 2278 3584 
Q 2916 3584 3314 3078 
Q 3713 2572 3713 1747 
Q 3713 922 3314 415 
Q 2916 -91 2278 -91 
Q 1894 -91 1617 61 
Q 1341 213 1159 525 
z
M 3116 1747 
Q 3116 2381 2855 2742 
Q 2594 3103 2138 3103 
Q 1681 3103 1420 2742 
Q 1159 2381 1159 1747 
Q 1159 1113 1420 752 
Q 1681 391 2138 391 
Q 2594 391 2855 752 
Q 3116 1113 3116 1747 
z
" transform="scale(0.015625)"/>
      <path id="DejaVuSans-69" d="M 603 3500 
L 1178 3500 
L 1178 0 
L 603 0 
L 603 3500 
z
M 603 4863 
L 1178 4863 
L 1178 4134 
L 603 4134 
L 603 4863 
z
" transform="scale(0.015625)"/>
      <path id="DejaVuSans-20" transform="scale(0.015625)"/>
      <path id="DejaVuSans-4c" d="M 628 4666 
L 1259 4666 
L 1259 531 
L 3531 531 
L 3531 0 
L 628 0 
L 628 4666 
z
" transform="scale(0.015625)"/>
      <path id="DejaVuSans-75" d="M 544 1381 
L 544 3500 
L 1119 3500 
L 1119 1403 
Q 1119 906 1312 657 
Q 1506 409 1894 409 
Q 2359 409 2629 706 
Q 2900 1003 2900 1516 
L 2900 3500 
L 3475 3500 
L 3475 0 
L 2900 0 
L 2900 538 
Q 2691 219 2414 64 
Q 2138 -91 1772 -91 
Q 1169 -91 856 284 
Q 544 659 544 1381 
z
M 1991 3584 
L 1991 3584 
z
" transform="scale(0.015625)"/>
      <path id="DejaVuSans-78" d="M 3513 3500 
L 2247 1797 
L 3578 0 
L 2900 0 
L 1881 1375 
L 863 0 
L 184 0 
L 1544 1831 
L 300 3500 
L 978 3500 
L 1906 2253 
L 2834 3500 
L 3513 3500 
z
" transform="scale(0.015625)"/>
      <path id="DejaVuSans-64" d="M 2906 2969 
L 2906 4863 
L 3481 4863 
L 3481 0 
L 2906 0 
L 2906 525 
Q 2725 213 2448 61 
Q 2172 -91 1784 -91 
Q 1150 -91 751 415 
Q 353 922 353 1747 
Q 353 2572 751 3078 
Q 1150 3584 1784 3584 
Q 2172 3584 2448 3432 
Q 2725 3281 2906 2969 
z
M 947 1747 
Q 947 1113 1208 752 
Q 1469 391 1925 391 
Q 2381 391 2643 752 
Q 2906 1113 2906 1747 
Q 2906 2381 2643 2742 
Q 2381 3103 1925 3103 
Q 1469 3103 1208 2742 
Q 947 2381 947 1747 
z
" transform="scale(0.015625)"/>
      <path id="DejaVuSans-62" d="M 3116 1747 
Q 3116 2381 2855 2742 
Q 2594 3103 2138 3103 
Q 1681 3103 1420 2742 
Q 1159 2381 1159 1747 
Q 1159 1113 1420 752 
Q 1681 391 2138 391 
Q 2594 391 2855 752 
Q 3116 1113 3116 1747 
z
M 1159 2969 
Q 1341 3281 1617 3432 
Q 1894 3584 2278 3584 
Q 2916 3584 3314 3078 
Q 3713 2572 3713 1747 
Q 3713 922 3314 415 
Q 2916 -91 2278 -91 
Q 1894 -91 1617 61 
Q 1341 213 1159 525 
L 1159 0 
L 581 0 
L 581 4863 
L 1159 4863 
L 1159 2969 
z
" transform="scale(0.015625)"/>
      <path id="DejaVuSans-79" d="M 2059 -325 
Q 1816 -950 1584 -1140 
Q 1353 -1331 966 -1331 
L 506 -1331 
L 506 -850 
L 844 -850 
Q 1081 -850 1212 -737 
Q 1344 -625 1503 -206 
L 1606 56 
L 191 3500 
L 800 3500 
L 1894 763 
L 2988 3500 
L 3597 3500 
L 2059 -325 
z
" transform="scale(0.015625)"/>
      <path id="DejaVuSans-6f" d="M 1959 3097 
Q 1497 3097 1228 2736 
Q 959 2375 959 1747 
Q 959 1119 1226 758 
Q 1494 397 1959 397 
Q 2419 397 2687 759 
Q 2956 1122 2956 1747 
Q 2956 2369 2687 2733 
Q 2419 3097 1959 3097 
z
M 1959 3584 
Q 2709 3584 3137 3096 
Q 3566 2609 3566 1747 
Q 3566 888 3137 398 
Q 2709 -91 1959 -91 
Q 1206 -91 779 398 
Q 353 888 353 1747 
Q 353 2609 779 3096 
Q 1206 3584 1959 3584 
z
" transform="scale(0.015625)"/>
      <path id="DejaVuSans-28" d="M 1984 4856 
Q 1566 4138 1362 3434 
Q 1159 2731 1159 2009 
Q 1159 1288 1364 580 
Q 1569 -128 1984 -844 
L 1484 -844 
Q 1016 -109 783 600 
Q 550 1309 550 2009 
Q 550 2706 781 3412 
Q 1013 4119 1484 4856 
L 1984 4856 
z
" transform="scale(0.015625)"/>
      <path id="DejaVuSans-53" d="M 3425 4513 
L 3425 3897 
Q 3066 4069 2747 4153 
Q 2428 4238 2131 4238 
Q 1616 4238 1336 4038 
Q 1056 3838 1056 3469 
Q 1056 3159 1242 3001 
Q 1428 2844 1947 2747 
L 2328 2669 
Q 3034 2534 3370 2195 
Q 3706 1856 3706 1288 
Q 3706 609 3251 259 
Q 2797 -91 1919 -91 
Q 1588 -91 1214 -16 
Q 841 59 441 206 
L 441 856 
Q 825 641 1194 531 
Q 1563 422 1919 422 
Q 2459 422 2753 634 
Q 3047 847 3047 1241 
Q 3047 1584 2836 1778 
Q 2625 1972 2144 2069 
L 1759 2144 
Q 1053 2284 737 2584 
Q 422 2884 422 3419 
Q 422 4038 858 4394 
Q 1294 4750 2059 4750 
Q 2388 4750 2728 4690 
Q 3069 4631 3425 4513 
z
" transform="scale(0.015625)"/>
      <path id="DejaVuSans-6d" d="M 3328 2828 
Q 3544 3216 3844 3400 
Q 4144 3584 4550 3584 
Q 5097 3584 5394 3201 
Q 5691 2819 5691 2113 
L 5691 0 
L 5113 0 
L 5113 2094 
Q 5113 2597 4934 2840 
Q 4756 3084 4391 3084 
Q 3944 3084 3684 2787 
Q 3425 2491 3425 1978 
L 3425 0 
L 2847 0 
L 2847 2094 
Q 2847 2600 2669 2842 
Q 2491 3084 2119 3084 
Q 1678 3084 1418 2786 
Q 1159 2488 1159 1978 
L 1159 0 
L 581 0 
L 581 3500 
L 1159 3500 
L 1159 2956 
Q 1356 3278 1631 3431 
Q 1906 3584 2284 3584 
Q 2666 3584 2933 3390 
Q 3200 3197 3328 2828 
z
" transform="scale(0.015625)"/>
      <path id="DejaVuSans-41" d="M 2188 4044 
L 1331 1722 
L 3047 1722 
L 2188 4044 
z
M 1831 4666 
L 2547 4666 
L 4325 0 
L 3669 0 
L 3244 1197 
L 1141 1197 
L 716 0 
L 50 0 
L 1831 4666 
z
" transform="scale(0.015625)"/>
      <path id="DejaVuSans-67" d="M 2906 1791 
Q 2906 2416 2648 2759 
Q 2391 3103 1925 3103 
Q 1463 3103 1205 2759 
Q 947 2416 947 1791 
Q 947 1169 1205 825 
Q 1463 481 1925 481 
Q 2391 481 2648 825 
Q 2906 1169 2906 1791 
z
M 3481 434 
Q 3481 -459 3084 -895 
Q 2688 -1331 1869 -1331 
Q 1566 -1331 1297 -1286 
Q 1028 -1241 775 -1147 
L 775 -588 
Q 1028 -725 1275 -790 
Q 1522 -856 1778 -856 
Q 2344 -856 2625 -561 
Q 2906 -266 2906 331 
L 2906 616 
Q 2728 306 2450 153 
Q 2172 0 1784 0 
Q 1141 0 747 490 
Q 353 981 353 1791 
Q 353 2603 747 3093 
Q 1141 3584 1784 3584 
Q 2172 3584 2450 3431 
Q 2728 3278 2906 2969 
L 2906 3500 
L 3481 3500 
L 3481 434 
z
" transform="scale(0.015625)"/>
      <path id="DejaVuSans-3e" d="M 678 3150 
L 678 3719 
L 4684 2266 
L 4684 1747 
L 678 294 
L 678 863 
L 3897 2003 
L 678 3150 
z
" transform="scale(0.015625)"/>
      <path id="DejaVuSans-57" d="M 213 4666 
L 850 4666 
L 1831 722 
L 2809 4666 
L 3519 4666 
L 4500 722 
L 5478 4666 
L 6119 4666 
L 4947 0 
L 4153 0 
L 3169 4050 
L 2175 0 
L 1381 0 
L 213 4666 
z
" transform="scale(0.015625)"/>
      <path id="DejaVuSans-29" d="M 513 4856 
L 1013 4856 
Q 1481 4119 1714 3412 
Q 1947 2706 1947 2009 
Q 1947 1309 1714 600 
Q 1481 -109 1013 -844 
L 513 -844 
Q 928 -128 1133 580 
Q 1338 1288 1338 2009 
Q 1338 2731 1133 3434 
Q 928 4138 513 4856 
z
" transform="scale(0.015625)"/>
     </defs>
     <use xlink:href="#DejaVuSans-45"/>
     <use xlink:href="#DejaVuSans-6e" x="63.183594"/>
     <use xlink:href="#DejaVuSans-74" x="126.5625"/>
     <use xlink:href="#DejaVuSans-65" x="165.771484"/>
     <use xlink:href="#DejaVuSans-72" x="227.294922"/>
     <use xlink:href="#DejaVuSans-70" x="268.408203"/>
     <use xlink:href="#DejaVuSans-72" x="331.884766"/>
     <use xlink:href="#DejaVuSans-69" x="372.998047"/>
     <use xlink:href="#DejaVuSans-73" x="400.78125"/>
     <use xlink:href="#DejaVuSans-65" x="452.880859"/>
     <use xlink:href="#DejaVuSans-20" x="514.404297"/>
     <use xlink:href="#DejaVuSans-4c" x="546.191406"/>
     <use xlink:href="#DejaVuSans-69" x="601.904297"/>
     <use xlink:href="#DejaVuSans-6e" x="629.6875"/>
     <use xlink:href="#DejaVuSans-75" x="693.066406"/>
     <use xlink:href="#DejaVuSans-78" x="756.445312"/>
     <use xlink:href="#DejaVuSans-20" x="815.625"/>
     <use xlink:href="#DejaVuSans-38" x="847.412109"/>
     <use xlink:href="#DejaVuSans-20" x="911.035156"/>
     <use xlink:href="#DejaVuSans-61" x="942.822266"/>
     <use xlink:href="#DejaVuSans-6e" x="1004.101562"/>
     <use xlink:href="#DejaVuSans-64" x="1067.480469"/>
     <use xlink:href="#DejaVuSans-20" x="1130.957031"/>
     <use xlink:href="#DejaVuSans-39" x="1162.744141"/>
     <use xlink:href="#DejaVuSans-20" x="1226.367188"/>
     <use xlink:href="#DejaVuSans-49" x="1258.154297"/>
     <use xlink:href="#DejaVuSans-6e" x="1287.646484"/>
     <use xlink:href="#DejaVuSans-73" x="1351.025391"/>
     <use xlink:href="#DejaVuSans-74" x="1403.125"/>
     <use xlink:href="#DejaVuSans-61" x="1442.333984"/>
     <use xlink:href="#DejaVuSans-6e" x="1503.613281"/>
     <use xlink:href="#DejaVuSans-63" x="1566.992188"/>
     <use xlink:href="#DejaVuSans-65" x="1621.972656"/>
     <use xlink:href="#DejaVuSans-73" x="1683.496094"/>
     <use xlink:href="#DejaVuSans-20" x="1735.595703"/>
     <use xlink:href="#DejaVuSans-62" x="1767.382812"/>
     <use xlink:href="#DejaVuSans-79" x="1830.859375"/>
     <use xlink:href="#DejaVuSans-20" x="1890.039062"/>
     <use xlink:href="#DejaVuSans-44" x="1921.826172"/>
     <use xlink:href="#DejaVuSans-69" x="1998.828125"/>
     <use xlink:href="#DejaVuSans-73" x="2026.611328"/>
     <use xlink:href="#DejaVuSans-74" x="2078.710938"/>
     <use xlink:href="#DejaVuSans-72" x="2117.919922"/>
     <use xlink:href="#DejaVuSans-69" x="2159.033203"/>
     <use xlink:href="#DejaVuSans-62" x="2186.816406"/>
     <use xlink:href="#DejaVuSans-75" x="2250.292969"/>
     <use xlink:href="#DejaVuSans-74" x="2313.671875"/>
     <use xlink:href="#DejaVuSans-69" x="2352.880859"/>
     <use xlink:href="#DejaVuSans-6f" x="2380.664062"/>
     <use xlink:href="#DejaVuSans-6e" x="2441.845703"/>
     <use xlink:href="#DejaVuSans-20" x="2505.224609"/>
     <use xlink:href="#DejaVuSans-28" x="2537.011719"/>
     <use xlink:href="#DejaVuSans-53" x="2576.025391"/>
     <use xlink:href="#DejaVuSans-79" x="2639.501953"/>
     <use xlink:href="#DejaVuSans-73" x="2698.681641"/>
     <use xlink:href="#DejaVuSans-74" x="2750.78125"/>
     <use xlink:href="#DejaVuSans-65" x="2789.990234"/>
     <use xlink:href="#DejaVuSans-6d" x="2851.513672"/>
     <use xlink:href="#DejaVuSans-20" x="2948.925781"/>
     <use xlink:href="#DejaVuSans-41" x="2980.712891"/>
     <use xlink:href="#DejaVuSans-67" x="3049.121094"/>
     <use xlink:href="#DejaVuSans-65" x="3112.597656"/>
     <use xlink:href="#DejaVuSans-20" x="3174.121094"/>
     <use xlink:href="#DejaVuSans-3e" x="3205.908203"/>
     <use xlink:href="#DejaVuSans-20" x="3289.697266"/>
     <use xlink:href="#DejaVuSans-31" x="3321.484375"/>
     <use xlink:href="#DejaVuSans-20" x="3385.107422"/>
     <use xlink:href="#DejaVuSans-57" x="3416.894531"/>
     <use xlink:href="#DejaVuSans-65" x="3509.896484"/>
     <use xlink:href="#DejaVuSans-65" x="3571.419922"/>
     <use xlink:href="#DejaVuSans-6b" x="3632.943359"/>
     <use xlink:href="#DejaVuSans-29" x="3690.853516"/>
    </g>
   </g>
   <g id="text_22">
    <!-- 2024-08-08 11:54 UTC -->
    <g transform="translate(804.1945 18.14175)scale(0.144 -0.144)">
     <defs>
      <path id="DejaVuSans-3a" d="M 750 794 
L 1409 794 
L 1409 0 
L 750 0 
L 750 794 
z
M 750 3309 
L 1409 3309 
L 1409 2516 
L 750 2516 
L 750 3309 
z
" transform="scale(0.015625)"/>
      <path id="DejaVuSans-55" d="M 556 4666 
L 1191 4666 
L 1191 1831 
Q 1191 1081 1462 751 
Q 1734 422 2344 422 
Q 2950 422 3222 751 
Q 3494 1081 3494 1831 
L 3494 4666 
L 4128 4666 
L 4128 1753 
Q 4128 841 3676 375 
Q 3225 -91 2344 -91 
Q 1459 -91 1007 375 
Q 556 841 556 1753 
L 556 4666 
z
" transform="scale(0.015625)"/>
      <path id="DejaVuSans-54" d="M -19 4666 
L 3928 4666 
L 3928 4134 
L 2272 4134 
L 2272 0 
L 1638 0 
L 1638 4134 
L -19 4134 
L -19 4666 
z
" transform="scale(0.015625)"/>
      <path id="DejaVuSans-43" d="M 4122 4306 
L 4122 3641 
Q 3803 3938 3442 4084 
Q 3081 4231 2675 4231 
Q 1875 4231 1450 3742 
Q 1025 3253 1025 2328 
Q 1025 1406 1450 917 
Q 1875 428 2675 428 
Q 3081 428 3442 575 
Q 3803 722 4122 1019 
L 4122 359 
Q 3791 134 3420 21 
Q 3050 -91 2638 -91 
Q 1578 -91 968 557 
Q 359 1206 359 2328 
Q 359 3453 968 4101 
Q 1578 4750 2638 4750 
Q 3056 4750 3426 4639 
Q 3797 4528 4122 4306 
z
" transform="scale(0.015625)"/>
     </defs>
     <use xlink:href="#DejaVuSans-32"/>
     <use xlink:href="#DejaVuSans-30" x="63.623047"/>
     <use xlink:href="#DejaVuSans-32" x="127.246094"/>
     <use xlink:href="#DejaVuSans-34" x="190.869141"/>
     <use xlink:href="#DejaVuSans-2d" x="254.492188"/>
     <use xlink:href="#DejaVuSans-30" x="290.576172"/>
     <use xlink:href="#DejaVuSans-38" x="354.199219"/>
     <use xlink:href="#DejaVuSans-2d" x="417.822266"/>
     <use xlink:href="#DejaVuSans-30" x="453.90625"/>
     <use xlink:href="#DejaVuSans-38" x="517.529297"/>
     <use xlink:href="#DejaVuSans-20" x="581.152344"/>
     <use xlink:href="#DejaVuSans-31" x="612.939453"/>
     <use xlink:href="#DejaVuSans-31" x="676.5625"/>
     <use xlink:href="#DejaVuSans-3a" x="740.185547"/>
     <use xlink:href="#DejaVuSans-35" x="773.876953"/>
     <use xlink:href="#DejaVuSans-34" x="837.5"/>
     <use xlink:href="#DejaVuSans-20" x="901.123047"/>
     <use xlink:href="#DejaVuSans-55" x="932.910156"/>
     <use xlink:href="#DejaVuSans-54" x="1006.103516"/>
     <use xlink:href="#DejaVuSans-43" x="1061.3125"/>
    </g>
   </g>
   <g id="legend_1">
    <g id="patch_7">
     <path d="M 71.2325 134.888625 
L 180.20125 134.888625 
Q 182.20125 134.888625 182.20125 132.888625 
L 182.20125 31.14175 
Q 182.20125 29.14175 180.20125 29.14175 
L 71.2325 29.14175 
Q 69.2325 29.14175 69.2325 31.14175 
L 69.2325 132.888625 
Q 69.2325 134.888625 71.2325 134.888625 
z
" style="fill: #e5e5e5; opacity: 0.8; stroke: #cccccc; stroke-width: 0.5; stroke-linejoin: miter"/>
    </g>
    <g id="text_23">
     <!-- Distribution -->
     <g transform="translate(96.548125 40.740187)scale(0.1 -0.1)">
      <use xlink:href="#DejaVuSans-44"/>
      <use xlink:href="#DejaVuSans-69" x="77.001953"/>
      <use xlink:href="#DejaVuSans-73" x="104.785156"/>
      <use xlink:href="#DejaVuSans-74" x="156.884766"/>
      <use xlink:href="#DejaVuSans-72" x="196.09375"/>
      <use xlink:href="#DejaVuSans-69" x="237.207031"/>
      <use xlink:href="#DejaVuSans-62" x="264.990234"/>
      <use xlink:href="#DejaVuSans-75" x="328.466797"/>
      <use xlink:href="#DejaVuSans-74" x="391.845703"/>
      <use xlink:href="#DejaVuSans-69" x="431.054688"/>
      <use xlink:href="#DejaVuSans-6f" x="458.837891"/>
      <use xlink:href="#DejaVuSans-6e" x="520.019531"/>
     </g>
    </g>
    <g id="line2d_49">
     <path d="M 73.2325 51.918312 
L 83.2325 51.918312 
L 93.2325 51.918312 
" style="fill: none; stroke: #4ac1fa; stroke-width: 1.5; stroke-linecap: square"/>
    </g>
    <g id="text_24">
     <!-- AlmaLinux -->
     <g transform="translate(101.2325 55.418312)scale(0.1 -0.1)">
      <defs>
       <path id="DejaVuSans-6c" d="M 603 4863 
L 1178 4863 
L 1178 0 
L 603 0 
L 603 4863 
z
" transform="scale(0.015625)"/>
      </defs>
      <use xlink:href="#DejaVuSans-41"/>
      <use xlink:href="#DejaVuSans-6c" x="68.408203"/>
      <use xlink:href="#DejaVuSans-6d" x="96.191406"/>
      <use xlink:href="#DejaVuSans-61" x="193.603516"/>
      <use xlink:href="#DejaVuSans-4c" x="254.882812"/>
      <use xlink:href="#DejaVuSans-69" x="310.595703"/>
      <use xlink:href="#DejaVuSans-6e" x="338.378906"/>
      <use xlink:href="#DejaVuSans-75" x="401.757812"/>
      <use xlink:href="#DejaVuSans-78" x="465.136719"/>
     </g>
    </g>
    <g id="line2d_50">
     <path d="M 73.2325 66.596437 
L 83.2325 66.596437 
L 93.2325 66.596437 
" style="fill: none; stroke: #e9a942; stroke-width: 1.5; stroke-linecap: square"/>
    </g>
    <g id="text_25">
     <!-- CentOS Legacy -->
     <g transform="translate(101.2325 70.096437)scale(0.1 -0.1)">
      <defs>
       <path id="DejaVuSans-4f" d="M 2522 4238 
Q 1834 4238 1429 3725 
Q 1025 3213 1025 2328 
Q 1025 1447 1429 934 
Q 1834 422 2522 422 
Q 3209 422 3611 934 
Q 4013 1447 4013 2328 
Q 4013 3213 3611 3725 
Q 3209 4238 2522 4238 
z
M 2522 4750 
Q 3503 4750 4090 4092 
Q 4678 3434 4678 2328 
Q 4678 1225 4090 567 
Q 3503 -91 2522 -91 
Q 1538 -91 948 565 
Q 359 1222 359 2328 
Q 359 3434 948 4092 
Q 1538 4750 2522 4750 
z
" transform="scale(0.015625)"/>
      </defs>
      <use xlink:href="#DejaVuSans-43"/>
      <use xlink:href="#DejaVuSans-65" x="69.824219"/>
      <use xlink:href="#DejaVuSans-6e" x="131.347656"/>
      <use xlink:href="#DejaVuSans-74" x="194.726562"/>
      <use xlink:href="#DejaVuSans-4f" x="233.935547"/>
      <use xlink:href="#DejaVuSans-53" x="312.646484"/>
      <use xlink:href="#DejaVuSans-20" x="376.123047"/>
      <use xlink:href="#DejaVuSans-4c" x="407.910156"/>
      <use xlink:href="#DejaVuSans-65" x="461.873047"/>
      <use xlink:href="#DejaVuSans-67" x="523.396484"/>
      <use xlink:href="#DejaVuSans-61" x="586.873047"/>
      <use xlink:href="#DejaVuSans-63" x="648.152344"/>
      <use xlink:href="#DejaVuSans-79" x="703.132812"/>
     </g>
    </g>
    <g id="line2d_51">
     <path d="M 73.2325 81.274563 
L 83.2325 81.274563 
L 93.2325 81.274563 
" style="fill: none; stroke: #9a5689; stroke-width: 1.5; stroke-linecap: square"/>
    </g>
    <g id="text_26">
     <!-- CentOS Stream -->
     <g transform="translate(101.2325 84.774563)scale(0.1 -0.1)">
      <use xlink:href="#DejaVuSans-43"/>
      <use xlink:href="#DejaVuSans-65" x="69.824219"/>
      <use xlink:href="#DejaVuSans-6e" x="131.347656"/>
      <use xlink:href="#DejaVuSans-74" x="194.726562"/>
      <use xlink:href="#DejaVuSans-4f" x="233.935547"/>
      <use xlink:href="#DejaVuSans-53" x="312.646484"/>
      <use xlink:href="#DejaVuSans-20" x="376.123047"/>
      <use xlink:href="#DejaVuSans-53" x="407.910156"/>
      <use xlink:href="#DejaVuSans-74" x="471.386719"/>
      <use xlink:href="#DejaVuSans-72" x="510.595703"/>
      <use xlink:href="#DejaVuSans-65" x="549.458984"/>
      <use xlink:href="#DejaVuSans-61" x="610.982422"/>
      <use xlink:href="#DejaVuSans-6d" x="672.261719"/>
     </g>
    </g>
    <g id="line2d_52">
     <path d="M 73.2325 95.952687 
L 83.2325 95.952687 
L 93.2325 95.952687 
" style="fill: none; stroke: #be503b; stroke-width: 1.5; stroke-linecap: square"/>
    </g>
    <g id="text_27">
     <!-- Oracle -->
     <g transform="translate(101.2325 99.452687)scale(0.1 -0.1)">
      <use xlink:href="#DejaVuSans-4f"/>
      <use xlink:href="#DejaVuSans-72" x="78.710938"/>
      <use xlink:href="#DejaVuSans-61" x="119.824219"/>
      <use xlink:href="#DejaVuSans-63" x="181.103516"/>
      <use xlink:href="#DejaVuSans-6c" x="236.083984"/>
      <use xlink:href="#DejaVuSans-65" x="263.867188"/>
     </g>
    </g>
    <g id="line2d_53">
     <path d="M 73.2325 110.630812 
L 83.2325 110.630812 
L 93.2325 110.630812 
" style="fill: none; stroke: #e2321d; stroke-width: 1.5; stroke-linecap: square"/>
    </g>
    <g id="text_28">
     <!-- RHEL -->
     <g transform="translate(101.2325 114.130812)scale(0.1 -0.1)">
      <defs>
       <path id="DejaVuSans-52" d="M 2841 2188 
Q 3044 2119 3236 1894 
Q 3428 1669 3622 1275 
L 4263 0 
L 3584 0 
L 2988 1197 
Q 2756 1666 2539 1819 
Q 2322 1972 1947 1972 
L 1259 1972 
L 1259 0 
L 628 0 
L 628 4666 
L 2053 4666 
Q 2853 4666 3247 4331 
Q 3641 3997 3641 3322 
Q 3641 2881 3436 2590 
Q 3231 2300 2841 2188 
z
M 1259 4147 
L 1259 2491 
L 2053 2491 
Q 2509 2491 2742 2702 
Q 2975 2913 2975 3322 
Q 2975 3731 2742 3939 
Q 2509 4147 2053 4147 
L 1259 4147 
z
" transform="scale(0.015625)"/>
       <path id="DejaVuSans-48" d="M 628 4666 
L 1259 4666 
L 1259 2753 
L 3553 2753 
L 3553 4666 
L 4184 4666 
L 4184 0 
L 3553 0 
L 3553 2222 
L 1259 2222 
L 1259 0 
L 628 0 
L 628 4666 
z
" transform="scale(0.015625)"/>
      </defs>
      <use xlink:href="#DejaVuSans-52"/>
      <use xlink:href="#DejaVuSans-48" x="69.482422"/>
      <use xlink:href="#DejaVuSans-45" x="144.677734"/>
      <use xlink:href="#DejaVuSans-4c" x="207.861328"/>
     </g>
    </g>
    <g id="line2d_54">
     <path d="M 73.2325 125.308937 
L 83.2325 125.308937 
L 93.2325 125.308937 
" style="fill: none; stroke: #48b585; stroke-width: 6; stroke-linecap: square"/>
    </g>
    <g id="text_29">
     <!-- Rocky Linux -->
     <g transform="translate(101.2325 128.808937)scale(0.1 -0.1)">
      <use xlink:href="#DejaVuSans-52"/>
      <use xlink:href="#DejaVuSans-6f" x="64.982422"/>
      <use xlink:href="#DejaVuSans-63" x="126.164062"/>
      <use xlink:href="#DejaVuSans-6b" x="181.144531"/>
      <use xlink:href="#DejaVuSans-79" x="235.429688"/>
      <use xlink:href="#DejaVuSans-20" x="294.609375"/>
      <use xlink:href="#DejaVuSans-4c" x="326.396484"/>
      <use xlink:href="#DejaVuSans-69" x="382.109375"/>
      <use xlink:href="#DejaVuSans-6e" x="409.892578"/>
      <use xlink:href="#DejaVuSans-75" x="473.271484"/>
      <use xlink:href="#DejaVuSans-78" x="536.650391"/>
     </g>
    </g>
   </g>
  </g>
 </g>
 <defs>
  <clipPath id="p57cbf77765">
   <rect x="64.2325" y="24.14175" width="902.844" height="543.6"/>
  </clipPath>
 </defs>
</svg>
