<?xml version="1.0" encoding="utf-8" standalone="no"?>
<!DOCTYPE svg PUBLIC "-//W3C//DTD SVG 1.1//EN"
  "http://www.w3.org/Graphics/SVG/1.1/DTD/svg11.dtd">
<svg xmlns:xlink="http://www.w3.org/1999/xlink" width="962.123375pt" height="633.943878pt" viewBox="0 0 962.123375 633.943878" xmlns="http://www.w3.org/2000/svg" version="1.1">
 <metadata>
  <rdf:RDF xmlns:dc="http://purl.org/dc/elements/1.1/" xmlns:cc="http://creativecommons.org/ns#" xmlns:rdf="http://www.w3.org/1999/02/22-rdf-syntax-ns#">
   <cc:Work>
    <dc:type rdf:resource="http://purl.org/dc/dcmitype/StillImage"/>
    <dc:date>2024-02-22T11:55:03.269888</dc:date>
    <dc:format>image/svg+xml</dc:format>
    <dc:creator>
     <cc:Agent>
      <dc:title>Matplotlib v3.5.1, https://matplotlib.org/</dc:title>
     </cc:Agent>
    </dc:creator>
   </cc:Work>
  </rdf:RDF>
 </metadata>
 <defs>
  <style type="text/css">*{stroke-linejoin: round; stroke-linecap: butt}</style>
 </defs>
 <g id="figure_1">
  <g id="patch_1">
   <path d="M 0 633.943878 
L 962.123375 633.943878 
L 962.123375 0 
L 0 0 
z
" style="fill: #ffffff"/>
  </g>
  <g id="axes_1">
   <g id="patch_2">
    <path d="M 52.079375 567.74175 
L 954.923375 567.74175 
L 954.923375 24.14175 
L 52.079375 24.14175 
z
" style="fill: #e5e5e5"/>
   </g>
   <g id="matplotlib.axis_1">
    <g id="xtick_1">
     <g id="line2d_1">
      <path d="M 64.724249 567.74175 
L 64.724249 24.14175 
" clip-path="url(#p0ba4b246f8)" style="fill: none; stroke: #ffffff; stroke-width: 0.8; stroke-linecap: square"/>
     </g>
     <g id="line2d_2">
      <defs>
       <path id="mcc45dd121e" d="M 0 0 
L 0 3.5 
" style="stroke: #555555; stroke-width: 0.8"/>
      </defs>
      <g>
       <use xlink:href="#mcc45dd121e" x="64.724249" y="567.74175" style="fill: #555555; stroke: #555555; stroke-width: 0.8"/>
      </g>
     </g>
     <g id="text_1">
      <!-- 2023-03 -->
      <g style="fill: #555555" transform="translate(51.902967 609.659567)rotate(-45)scale(0.1 -0.1)">
       <defs>
        <path id="DejaVuSans-32" d="M 1228 531 
L 3431 531 
L 3431 0 
L 469 0 
L 469 531 
Q 828 903 1448 1529 
Q 2069 2156 2228 2338 
Q 2531 2678 2651 2914 
Q 2772 3150 2772 3378 
Q 2772 3750 2511 3984 
Q 2250 4219 1831 4219 
Q 1534 4219 1204 4116 
Q 875 4013 500 3803 
L 500 4441 
Q 881 4594 1212 4672 
Q 1544 4750 1819 4750 
Q 2544 4750 2975 4387 
Q 3406 4025 3406 3419 
Q 3406 3131 3298 2873 
Q 3191 2616 2906 2266 
Q 2828 2175 2409 1742 
Q 1991 1309 1228 531 
z
" transform="scale(0.015625)"/>
        <path id="DejaVuSans-30" d="M 2034 4250 
Q 1547 4250 1301 3770 
Q 1056 3291 1056 2328 
Q 1056 1369 1301 889 
Q 1547 409 2034 409 
Q 2525 409 2770 889 
Q 3016 1369 3016 2328 
Q 3016 3291 2770 3770 
Q 2525 4250 2034 4250 
z
M 2034 4750 
Q 2819 4750 3233 4129 
Q 3647 3509 3647 2328 
Q 3647 1150 3233 529 
Q 2819 -91 2034 -91 
Q 1250 -91 836 529 
Q 422 1150 422 2328 
Q 422 3509 836 4129 
Q 1250 4750 2034 4750 
z
" transform="scale(0.015625)"/>
        <path id="DejaVuSans-33" d="M 2597 2516 
Q 3050 2419 3304 2112 
Q 3559 1806 3559 1356 
Q 3559 666 3084 287 
Q 2609 -91 1734 -91 
Q 1441 -91 1130 -33 
Q 819 25 488 141 
L 488 750 
Q 750 597 1062 519 
Q 1375 441 1716 441 
Q 2309 441 2620 675 
Q 2931 909 2931 1356 
Q 2931 1769 2642 2001 
Q 2353 2234 1838 2234 
L 1294 2234 
L 1294 2753 
L 1863 2753 
Q 2328 2753 2575 2939 
Q 2822 3125 2822 3475 
Q 2822 3834 2567 4026 
Q 2313 4219 1838 4219 
Q 1578 4219 1281 4162 
Q 984 4106 628 3988 
L 628 4550 
Q 988 4650 1302 4700 
Q 1616 4750 1894 4750 
Q 2613 4750 3031 4423 
Q 3450 4097 3450 3541 
Q 3450 3153 3228 2886 
Q 3006 2619 2597 2516 
z
" transform="scale(0.015625)"/>
        <path id="DejaVuSans-2d" d="M 313 2009 
L 1997 2009 
L 1997 1497 
L 313 1497 
L 313 2009 
z
" transform="scale(0.015625)"/>
       </defs>
       <use xlink:href="#DejaVuSans-32"/>
       <use xlink:href="#DejaVuSans-30" x="63.623047"/>
       <use xlink:href="#DejaVuSans-32" x="127.246094"/>
       <use xlink:href="#DejaVuSans-33" x="190.869141"/>
       <use xlink:href="#DejaVuSans-2d" x="254.492188"/>
       <use xlink:href="#DejaVuSans-30" x="290.576172"/>
       <use xlink:href="#DejaVuSans-33" x="354.199219"/>
      </g>
     </g>
    </g>
    <g id="xtick_2">
     <g id="line2d_3">
      <path d="M 143.122467 567.74175 
L 143.122467 24.14175 
" clip-path="url(#p0ba4b246f8)" style="fill: none; stroke: #ffffff; stroke-width: 0.8; stroke-linecap: square"/>
     </g>
     <g id="line2d_4">
      <g>
       <use xlink:href="#mcc45dd121e" x="143.122467" y="567.74175" style="fill: #555555; stroke: #555555; stroke-width: 0.8"/>
      </g>
     </g>
     <g id="text_2">
      <!-- 2023-04 -->
      <g style="fill: #555555" transform="translate(130.301185 609.659567)rotate(-45)scale(0.1 -0.1)">
       <defs>
        <path id="DejaVuSans-34" d="M 2419 4116 
L 825 1625 
L 2419 1625 
L 2419 4116 
z
M 2253 4666 
L 3047 4666 
L 3047 1625 
L 3713 1625 
L 3713 1100 
L 3047 1100 
L 3047 0 
L 2419 0 
L 2419 1100 
L 313 1100 
L 313 1709 
L 2253 4666 
z
" transform="scale(0.015625)"/>
       </defs>
       <use xlink:href="#DejaVuSans-32"/>
       <use xlink:href="#DejaVuSans-30" x="63.623047"/>
       <use xlink:href="#DejaVuSans-32" x="127.246094"/>
       <use xlink:href="#DejaVuSans-33" x="190.869141"/>
       <use xlink:href="#DejaVuSans-2d" x="254.492188"/>
       <use xlink:href="#DejaVuSans-30" x="290.576172"/>
       <use xlink:href="#DejaVuSans-34" x="354.199219"/>
      </g>
     </g>
    </g>
    <g id="xtick_3">
     <g id="line2d_5">
      <path d="M 218.991711 567.74175 
L 218.991711 24.14175 
" clip-path="url(#p0ba4b246f8)" style="fill: none; stroke: #ffffff; stroke-width: 0.8; stroke-linecap: square"/>
     </g>
     <g id="line2d_6">
      <g>
       <use xlink:href="#mcc45dd121e" x="218.991711" y="567.74175" style="fill: #555555; stroke: #555555; stroke-width: 0.8"/>
      </g>
     </g>
     <g id="text_3">
      <!-- 2023-05 -->
      <g style="fill: #555555" transform="translate(206.170429 609.659567)rotate(-45)scale(0.1 -0.1)">
       <defs>
        <path id="DejaVuSans-35" d="M 691 4666 
L 3169 4666 
L 3169 4134 
L 1269 4134 
L 1269 2991 
Q 1406 3038 1543 3061 
Q 1681 3084 1819 3084 
Q 2600 3084 3056 2656 
Q 3513 2228 3513 1497 
Q 3513 744 3044 326 
Q 2575 -91 1722 -91 
Q 1428 -91 1123 -41 
Q 819 9 494 109 
L 494 744 
Q 775 591 1075 516 
Q 1375 441 1709 441 
Q 2250 441 2565 725 
Q 2881 1009 2881 1497 
Q 2881 1984 2565 2268 
Q 2250 2553 1709 2553 
Q 1456 2553 1204 2497 
Q 953 2441 691 2322 
L 691 4666 
z
" transform="scale(0.015625)"/>
       </defs>
       <use xlink:href="#DejaVuSans-32"/>
       <use xlink:href="#DejaVuSans-30" x="63.623047"/>
       <use xlink:href="#DejaVuSans-32" x="127.246094"/>
       <use xlink:href="#DejaVuSans-33" x="190.869141"/>
       <use xlink:href="#DejaVuSans-2d" x="254.492188"/>
       <use xlink:href="#DejaVuSans-30" x="290.576172"/>
       <use xlink:href="#DejaVuSans-35" x="354.199219"/>
      </g>
     </g>
    </g>
    <g id="xtick_4">
     <g id="line2d_7">
      <path d="M 297.38993 567.74175 
L 297.38993 24.14175 
" clip-path="url(#p0ba4b246f8)" style="fill: none; stroke: #ffffff; stroke-width: 0.8; stroke-linecap: square"/>
     </g>
     <g id="line2d_8">
      <g>
       <use xlink:href="#mcc45dd121e" x="297.38993" y="567.74175" style="fill: #555555; stroke: #555555; stroke-width: 0.8"/>
      </g>
     </g>
     <g id="text_4">
      <!-- 2023-06 -->
      <g style="fill: #555555" transform="translate(284.568647 609.659567)rotate(-45)scale(0.1 -0.1)">
       <defs>
        <path id="DejaVuSans-36" d="M 2113 2584 
Q 1688 2584 1439 2293 
Q 1191 2003 1191 1497 
Q 1191 994 1439 701 
Q 1688 409 2113 409 
Q 2538 409 2786 701 
Q 3034 994 3034 1497 
Q 3034 2003 2786 2293 
Q 2538 2584 2113 2584 
z
M 3366 4563 
L 3366 3988 
Q 3128 4100 2886 4159 
Q 2644 4219 2406 4219 
Q 1781 4219 1451 3797 
Q 1122 3375 1075 2522 
Q 1259 2794 1537 2939 
Q 1816 3084 2150 3084 
Q 2853 3084 3261 2657 
Q 3669 2231 3669 1497 
Q 3669 778 3244 343 
Q 2819 -91 2113 -91 
Q 1303 -91 875 529 
Q 447 1150 447 2328 
Q 447 3434 972 4092 
Q 1497 4750 2381 4750 
Q 2619 4750 2861 4703 
Q 3103 4656 3366 4563 
z
" transform="scale(0.015625)"/>
       </defs>
       <use xlink:href="#DejaVuSans-32"/>
       <use xlink:href="#DejaVuSans-30" x="63.623047"/>
       <use xlink:href="#DejaVuSans-32" x="127.246094"/>
       <use xlink:href="#DejaVuSans-33" x="190.869141"/>
       <use xlink:href="#DejaVuSans-2d" x="254.492188"/>
       <use xlink:href="#DejaVuSans-30" x="290.576172"/>
       <use xlink:href="#DejaVuSans-36" x="354.199219"/>
      </g>
     </g>
    </g>
    <g id="xtick_5">
     <g id="line2d_9">
      <path d="M 373.259173 567.74175 
L 373.259173 24.14175 
" clip-path="url(#p0ba4b246f8)" style="fill: none; stroke: #ffffff; stroke-width: 0.8; stroke-linecap: square"/>
     </g>
     <g id="line2d_10">
      <g>
       <use xlink:href="#mcc45dd121e" x="373.259173" y="567.74175" style="fill: #555555; stroke: #555555; stroke-width: 0.8"/>
      </g>
     </g>
     <g id="text_5">
      <!-- 2023-07 -->
      <g style="fill: #555555" transform="translate(360.437891 609.659567)rotate(-45)scale(0.1 -0.1)">
       <defs>
        <path id="DejaVuSans-37" d="M 525 4666 
L 3525 4666 
L 3525 4397 
L 1831 0 
L 1172 0 
L 2766 4134 
L 525 4134 
L 525 4666 
z
" transform="scale(0.015625)"/>
       </defs>
       <use xlink:href="#DejaVuSans-32"/>
       <use xlink:href="#DejaVuSans-30" x="63.623047"/>
       <use xlink:href="#DejaVuSans-32" x="127.246094"/>
       <use xlink:href="#DejaVuSans-33" x="190.869141"/>
       <use xlink:href="#DejaVuSans-2d" x="254.492188"/>
       <use xlink:href="#DejaVuSans-30" x="290.576172"/>
       <use xlink:href="#DejaVuSans-37" x="354.199219"/>
      </g>
     </g>
    </g>
    <g id="xtick_6">
     <g id="line2d_11">
      <path d="M 451.657392 567.74175 
L 451.657392 24.14175 
" clip-path="url(#p0ba4b246f8)" style="fill: none; stroke: #ffffff; stroke-width: 0.8; stroke-linecap: square"/>
     </g>
     <g id="line2d_12">
      <g>
       <use xlink:href="#mcc45dd121e" x="451.657392" y="567.74175" style="fill: #555555; stroke: #555555; stroke-width: 0.8"/>
      </g>
     </g>
     <g id="text_6">
      <!-- 2023-08 -->
      <g style="fill: #555555" transform="translate(438.83611 609.659567)rotate(-45)scale(0.1 -0.1)">
       <defs>
        <path id="DejaVuSans-38" d="M 2034 2216 
Q 1584 2216 1326 1975 
Q 1069 1734 1069 1313 
Q 1069 891 1326 650 
Q 1584 409 2034 409 
Q 2484 409 2743 651 
Q 3003 894 3003 1313 
Q 3003 1734 2745 1975 
Q 2488 2216 2034 2216 
z
M 1403 2484 
Q 997 2584 770 2862 
Q 544 3141 544 3541 
Q 544 4100 942 4425 
Q 1341 4750 2034 4750 
Q 2731 4750 3128 4425 
Q 3525 4100 3525 3541 
Q 3525 3141 3298 2862 
Q 3072 2584 2669 2484 
Q 3125 2378 3379 2068 
Q 3634 1759 3634 1313 
Q 3634 634 3220 271 
Q 2806 -91 2034 -91 
Q 1263 -91 848 271 
Q 434 634 434 1313 
Q 434 1759 690 2068 
Q 947 2378 1403 2484 
z
M 1172 3481 
Q 1172 3119 1398 2916 
Q 1625 2713 2034 2713 
Q 2441 2713 2670 2916 
Q 2900 3119 2900 3481 
Q 2900 3844 2670 4047 
Q 2441 4250 2034 4250 
Q 1625 4250 1398 4047 
Q 1172 3844 1172 3481 
z
" transform="scale(0.015625)"/>
       </defs>
       <use xlink:href="#DejaVuSans-32"/>
       <use xlink:href="#DejaVuSans-30" x="63.623047"/>
       <use xlink:href="#DejaVuSans-32" x="127.246094"/>
       <use xlink:href="#DejaVuSans-33" x="190.869141"/>
       <use xlink:href="#DejaVuSans-2d" x="254.492188"/>
       <use xlink:href="#DejaVuSans-30" x="290.576172"/>
       <use xlink:href="#DejaVuSans-38" x="354.199219"/>
      </g>
     </g>
    </g>
    <g id="xtick_7">
     <g id="line2d_13">
      <path d="M 530.05561 567.74175 
L 530.05561 24.14175 
" clip-path="url(#p0ba4b246f8)" style="fill: none; stroke: #ffffff; stroke-width: 0.8; stroke-linecap: square"/>
     </g>
     <g id="line2d_14">
      <g>
       <use xlink:href="#mcc45dd121e" x="530.05561" y="567.74175" style="fill: #555555; stroke: #555555; stroke-width: 0.8"/>
      </g>
     </g>
     <g id="text_7">
      <!-- 2023-09 -->
      <g style="fill: #555555" transform="translate(517.234328 609.659567)rotate(-45)scale(0.1 -0.1)">
       <defs>
        <path id="DejaVuSans-39" d="M 703 97 
L 703 672 
Q 941 559 1184 500 
Q 1428 441 1663 441 
Q 2288 441 2617 861 
Q 2947 1281 2994 2138 
Q 2813 1869 2534 1725 
Q 2256 1581 1919 1581 
Q 1219 1581 811 2004 
Q 403 2428 403 3163 
Q 403 3881 828 4315 
Q 1253 4750 1959 4750 
Q 2769 4750 3195 4129 
Q 3622 3509 3622 2328 
Q 3622 1225 3098 567 
Q 2575 -91 1691 -91 
Q 1453 -91 1209 -44 
Q 966 3 703 97 
z
M 1959 2075 
Q 2384 2075 2632 2365 
Q 2881 2656 2881 3163 
Q 2881 3666 2632 3958 
Q 2384 4250 1959 4250 
Q 1534 4250 1286 3958 
Q 1038 3666 1038 3163 
Q 1038 2656 1286 2365 
Q 1534 2075 1959 2075 
z
" transform="scale(0.015625)"/>
       </defs>
       <use xlink:href="#DejaVuSans-32"/>
       <use xlink:href="#DejaVuSans-30" x="63.623047"/>
       <use xlink:href="#DejaVuSans-32" x="127.246094"/>
       <use xlink:href="#DejaVuSans-33" x="190.869141"/>
       <use xlink:href="#DejaVuSans-2d" x="254.492188"/>
       <use xlink:href="#DejaVuSans-30" x="290.576172"/>
       <use xlink:href="#DejaVuSans-39" x="354.199219"/>
      </g>
     </g>
    </g>
    <g id="xtick_8">
     <g id="line2d_15">
      <path d="M 605.924854 567.74175 
L 605.924854 24.14175 
" clip-path="url(#p0ba4b246f8)" style="fill: none; stroke: #ffffff; stroke-width: 0.8; stroke-linecap: square"/>
     </g>
     <g id="line2d_16">
      <g>
       <use xlink:href="#mcc45dd121e" x="605.924854" y="567.74175" style="fill: #555555; stroke: #555555; stroke-width: 0.8"/>
      </g>
     </g>
     <g id="text_8">
      <!-- 2023-10 -->
      <g style="fill: #555555" transform="translate(593.103572 609.659567)rotate(-45)scale(0.1 -0.1)">
       <defs>
        <path id="DejaVuSans-31" d="M 794 531 
L 1825 531 
L 1825 4091 
L 703 3866 
L 703 4441 
L 1819 4666 
L 2450 4666 
L 2450 531 
L 3481 531 
L 3481 0 
L 794 0 
L 794 531 
z
" transform="scale(0.015625)"/>
       </defs>
       <use xlink:href="#DejaVuSans-32"/>
       <use xlink:href="#DejaVuSans-30" x="63.623047"/>
       <use xlink:href="#DejaVuSans-32" x="127.246094"/>
       <use xlink:href="#DejaVuSans-33" x="190.869141"/>
       <use xlink:href="#DejaVuSans-2d" x="254.492188"/>
       <use xlink:href="#DejaVuSans-31" x="290.576172"/>
       <use xlink:href="#DejaVuSans-30" x="354.199219"/>
      </g>
     </g>
    </g>
    <g id="xtick_9">
     <g id="line2d_17">
      <path d="M 684.323072 567.74175 
L 684.323072 24.14175 
" clip-path="url(#p0ba4b246f8)" style="fill: none; stroke: #ffffff; stroke-width: 0.8; stroke-linecap: square"/>
     </g>
     <g id="line2d_18">
      <g>
       <use xlink:href="#mcc45dd121e" x="684.323072" y="567.74175" style="fill: #555555; stroke: #555555; stroke-width: 0.8"/>
      </g>
     </g>
     <g id="text_9">
      <!-- 2023-11 -->
      <g style="fill: #555555" transform="translate(671.50179 609.659567)rotate(-45)scale(0.1 -0.1)">
       <use xlink:href="#DejaVuSans-32"/>
       <use xlink:href="#DejaVuSans-30" x="63.623047"/>
       <use xlink:href="#DejaVuSans-32" x="127.246094"/>
       <use xlink:href="#DejaVuSans-33" x="190.869141"/>
       <use xlink:href="#DejaVuSans-2d" x="254.492188"/>
       <use xlink:href="#DejaVuSans-31" x="290.576172"/>
       <use xlink:href="#DejaVuSans-31" x="354.199219"/>
      </g>
     </g>
    </g>
    <g id="xtick_10">
     <g id="line2d_19">
      <path d="M 760.192316 567.74175 
L 760.192316 24.14175 
" clip-path="url(#p0ba4b246f8)" style="fill: none; stroke: #ffffff; stroke-width: 0.8; stroke-linecap: square"/>
     </g>
     <g id="line2d_20">
      <g>
       <use xlink:href="#mcc45dd121e" x="760.192316" y="567.74175" style="fill: #555555; stroke: #555555; stroke-width: 0.8"/>
      </g>
     </g>
     <g id="text_10">
      <!-- 2023-12 -->
      <g style="fill: #555555" transform="translate(747.371034 609.659567)rotate(-45)scale(0.1 -0.1)">
       <use xlink:href="#DejaVuSans-32"/>
       <use xlink:href="#DejaVuSans-30" x="63.623047"/>
       <use xlink:href="#DejaVuSans-32" x="127.246094"/>
       <use xlink:href="#DejaVuSans-33" x="190.869141"/>
       <use xlink:href="#DejaVuSans-2d" x="254.492188"/>
       <use xlink:href="#DejaVuSans-31" x="290.576172"/>
       <use xlink:href="#DejaVuSans-32" x="354.199219"/>
      </g>
     </g>
    </g>
    <g id="xtick_11">
     <g id="line2d_21">
      <path d="M 838.590535 567.74175 
L 838.590535 24.14175 
" clip-path="url(#p0ba4b246f8)" style="fill: none; stroke: #ffffff; stroke-width: 0.8; stroke-linecap: square"/>
     </g>
     <g id="line2d_22">
      <g>
       <use xlink:href="#mcc45dd121e" x="838.590535" y="567.74175" style="fill: #555555; stroke: #555555; stroke-width: 0.8"/>
      </g>
     </g>
     <g id="text_11">
      <!-- 2024-01 -->
      <g style="fill: #555555" transform="translate(825.769252 609.659567)rotate(-45)scale(0.1 -0.1)">
       <use xlink:href="#DejaVuSans-32"/>
       <use xlink:href="#DejaVuSans-30" x="63.623047"/>
       <use xlink:href="#DejaVuSans-32" x="127.246094"/>
       <use xlink:href="#DejaVuSans-34" x="190.869141"/>
       <use xlink:href="#DejaVuSans-2d" x="254.492188"/>
       <use xlink:href="#DejaVuSans-30" x="290.576172"/>
       <use xlink:href="#DejaVuSans-31" x="354.199219"/>
      </g>
     </g>
    </g>
    <g id="xtick_12">
     <g id="line2d_23">
      <path d="M 916.988753 567.74175 
L 916.988753 24.14175 
" clip-path="url(#p0ba4b246f8)" style="fill: none; stroke: #ffffff; stroke-width: 0.8; stroke-linecap: square"/>
     </g>
     <g id="line2d_24">
      <g>
       <use xlink:href="#mcc45dd121e" x="916.988753" y="567.74175" style="fill: #555555; stroke: #555555; stroke-width: 0.8"/>
      </g>
     </g>
     <g id="text_12">
      <!-- 2024-02 -->
      <g style="fill: #555555" transform="translate(904.167471 609.659567)rotate(-45)scale(0.1 -0.1)">
       <use xlink:href="#DejaVuSans-32"/>
       <use xlink:href="#DejaVuSans-30" x="63.623047"/>
       <use xlink:href="#DejaVuSans-32" x="127.246094"/>
       <use xlink:href="#DejaVuSans-34" x="190.869141"/>
       <use xlink:href="#DejaVuSans-2d" x="254.492188"/>
       <use xlink:href="#DejaVuSans-30" x="290.576172"/>
       <use xlink:href="#DejaVuSans-32" x="354.199219"/>
      </g>
     </g>
    </g>
    <g id="text_13">
     <!-- Date -->
     <g style="fill: #555555" transform="translate(489.160438 624.248253)scale(0.12 -0.12)">
      <defs>
       <path id="DejaVuSans-44" d="M 1259 4147 
L 1259 519 
L 2022 519 
Q 2988 519 3436 956 
Q 3884 1394 3884 2338 
Q 3884 3275 3436 3711 
Q 2988 4147 2022 4147 
L 1259 4147 
z
M 628 4666 
L 1925 4666 
Q 3281 4666 3915 4102 
Q 4550 3538 4550 2338 
Q 4550 1131 3912 565 
Q 3275 0 1925 0 
L 628 0 
L 628 4666 
z
" transform="scale(0.015625)"/>
       <path id="DejaVuSans-61" d="M 2194 1759 
Q 1497 1759 1228 1600 
Q 959 1441 959 1056 
Q 959 750 1161 570 
Q 1363 391 1709 391 
Q 2188 391 2477 730 
Q 2766 1069 2766 1631 
L 2766 1759 
L 2194 1759 
z
M 3341 1997 
L 3341 0 
L 2766 0 
L 2766 531 
Q 2569 213 2275 61 
Q 1981 -91 1556 -91 
Q 1019 -91 701 211 
Q 384 513 384 1019 
Q 384 1609 779 1909 
Q 1175 2209 1959 2209 
L 2766 2209 
L 2766 2266 
Q 2766 2663 2505 2880 
Q 2244 3097 1772 3097 
Q 1472 3097 1187 3025 
Q 903 2953 641 2809 
L 641 3341 
Q 956 3463 1253 3523 
Q 1550 3584 1831 3584 
Q 2591 3584 2966 3190 
Q 3341 2797 3341 1997 
z
" transform="scale(0.015625)"/>
       <path id="DejaVuSans-74" d="M 1172 4494 
L 1172 3500 
L 2356 3500 
L 2356 3053 
L 1172 3053 
L 1172 1153 
Q 1172 725 1289 603 
Q 1406 481 1766 481 
L 2356 481 
L 2356 0 
L 1766 0 
Q 1100 0 847 248 
Q 594 497 594 1153 
L 594 3053 
L 172 3053 
L 172 3500 
L 594 3500 
L 594 4494 
L 1172 4494 
z
" transform="scale(0.015625)"/>
       <path id="DejaVuSans-65" d="M 3597 1894 
L 3597 1613 
L 953 1613 
Q 991 1019 1311 708 
Q 1631 397 2203 397 
Q 2534 397 2845 478 
Q 3156 559 3463 722 
L 3463 178 
Q 3153 47 2828 -22 
Q 2503 -91 2169 -91 
Q 1331 -91 842 396 
Q 353 884 353 1716 
Q 353 2575 817 3079 
Q 1281 3584 2069 3584 
Q 2775 3584 3186 3129 
Q 3597 2675 3597 1894 
z
M 3022 2063 
Q 3016 2534 2758 2815 
Q 2500 3097 2075 3097 
Q 1594 3097 1305 2825 
Q 1016 2553 972 2059 
L 3022 2063 
z
" transform="scale(0.015625)"/>
      </defs>
      <use xlink:href="#DejaVuSans-44"/>
      <use xlink:href="#DejaVuSans-61" x="77.001953"/>
      <use xlink:href="#DejaVuSans-74" x="138.28125"/>
      <use xlink:href="#DejaVuSans-65" x="177.490234"/>
     </g>
    </g>
   </g>
   <g id="matplotlib.axis_2">
    <g id="ytick_1">
     <g id="line2d_25">
      <path d="M 52.079375 567.74175 
L 954.923375 567.74175 
" clip-path="url(#p0ba4b246f8)" style="fill: none; stroke: #ffffff; stroke-width: 0.8; stroke-linecap: square"/>
     </g>
     <g id="line2d_26">
      <defs>
       <path id="mdb24d273af" d="M 0 0 
L -3.5 0 
" style="stroke: #555555; stroke-width: 0.8"/>
      </defs>
      <g>
       <use xlink:href="#mdb24d273af" x="52.079375" y="567.74175" style="fill: #555555; stroke: #555555; stroke-width: 0.8"/>
      </g>
     </g>
     <g id="text_14">
      <!-- 0.00 -->
      <g style="fill: #555555" transform="translate(22.81375 571.540969)scale(0.1 -0.1)">
       <defs>
        <path id="DejaVuSans-2e" d="M 684 794 
L 1344 794 
L 1344 0 
L 684 0 
L 684 794 
z
" transform="scale(0.015625)"/>
       </defs>
       <use xlink:href="#DejaVuSans-30"/>
       <use xlink:href="#DejaVuSans-2e" x="63.623047"/>
       <use xlink:href="#DejaVuSans-30" x="95.410156"/>
       <use xlink:href="#DejaVuSans-30" x="159.033203"/>
      </g>
     </g>
    </g>
    <g id="ytick_2">
     <g id="line2d_27">
      <path d="M 52.079375 485.773208 
L 954.923375 485.773208 
" clip-path="url(#p0ba4b246f8)" style="fill: none; stroke: #ffffff; stroke-width: 0.8; stroke-linecap: square"/>
     </g>
     <g id="line2d_28">
      <g>
       <use xlink:href="#mdb24d273af" x="52.079375" y="485.773208" style="fill: #555555; stroke: #555555; stroke-width: 0.8"/>
      </g>
     </g>
     <g id="text_15">
      <!-- 0.05 -->
      <g style="fill: #555555" transform="translate(22.81375 489.572427)scale(0.1 -0.1)">
       <use xlink:href="#DejaVuSans-30"/>
       <use xlink:href="#DejaVuSans-2e" x="63.623047"/>
       <use xlink:href="#DejaVuSans-30" x="95.410156"/>
       <use xlink:href="#DejaVuSans-35" x="159.033203"/>
      </g>
     </g>
    </g>
    <g id="ytick_3">
     <g id="line2d_29">
      <path d="M 52.079375 403.804667 
L 954.923375 403.804667 
" clip-path="url(#p0ba4b246f8)" style="fill: none; stroke: #ffffff; stroke-width: 0.8; stroke-linecap: square"/>
     </g>
     <g id="line2d_30">
      <g>
       <use xlink:href="#mdb24d273af" x="52.079375" y="403.804667" style="fill: #555555; stroke: #555555; stroke-width: 0.8"/>
      </g>
     </g>
     <g id="text_16">
      <!-- 0.10 -->
      <g style="fill: #555555" transform="translate(22.81375 407.603885)scale(0.1 -0.1)">
       <use xlink:href="#DejaVuSans-30"/>
       <use xlink:href="#DejaVuSans-2e" x="63.623047"/>
       <use xlink:href="#DejaVuSans-31" x="95.410156"/>
       <use xlink:href="#DejaVuSans-30" x="159.033203"/>
      </g>
     </g>
    </g>
    <g id="ytick_4">
     <g id="line2d_31">
      <path d="M 52.079375 321.836125 
L 954.923375 321.836125 
" clip-path="url(#p0ba4b246f8)" style="fill: none; stroke: #ffffff; stroke-width: 0.8; stroke-linecap: square"/>
     </g>
     <g id="line2d_32">
      <g>
       <use xlink:href="#mdb24d273af" x="52.079375" y="321.836125" style="fill: #555555; stroke: #555555; stroke-width: 0.8"/>
      </g>
     </g>
     <g id="text_17">
      <!-- 0.15 -->
      <g style="fill: #555555" transform="translate(22.81375 325.635344)scale(0.1 -0.1)">
       <use xlink:href="#DejaVuSans-30"/>
       <use xlink:href="#DejaVuSans-2e" x="63.623047"/>
       <use xlink:href="#DejaVuSans-31" x="95.410156"/>
       <use xlink:href="#DejaVuSans-35" x="159.033203"/>
      </g>
     </g>
    </g>
    <g id="ytick_5">
     <g id="line2d_33">
      <path d="M 52.079375 239.867583 
L 954.923375 239.867583 
" clip-path="url(#p0ba4b246f8)" style="fill: none; stroke: #ffffff; stroke-width: 0.8; stroke-linecap: square"/>
     </g>
     <g id="line2d_34">
      <g>
       <use xlink:href="#mdb24d273af" x="52.079375" y="239.867583" style="fill: #555555; stroke: #555555; stroke-width: 0.8"/>
      </g>
     </g>
     <g id="text_18">
      <!-- 0.20 -->
      <g style="fill: #555555" transform="translate(22.81375 243.666802)scale(0.1 -0.1)">
       <use xlink:href="#DejaVuSans-30"/>
       <use xlink:href="#DejaVuSans-2e" x="63.623047"/>
       <use xlink:href="#DejaVuSans-32" x="95.410156"/>
       <use xlink:href="#DejaVuSans-30" x="159.033203"/>
      </g>
     </g>
    </g>
    <g id="ytick_6">
     <g id="line2d_35">
      <path d="M 52.079375 157.899041 
L 954.923375 157.899041 
" clip-path="url(#p0ba4b246f8)" style="fill: none; stroke: #ffffff; stroke-width: 0.8; stroke-linecap: square"/>
     </g>
     <g id="line2d_36">
      <g>
       <use xlink:href="#mdb24d273af" x="52.079375" y="157.899041" style="fill: #555555; stroke: #555555; stroke-width: 0.8"/>
      </g>
     </g>
     <g id="text_19">
      <!-- 0.25 -->
      <g style="fill: #555555" transform="translate(22.81375 161.69826)scale(0.1 -0.1)">
       <use xlink:href="#DejaVuSans-30"/>
       <use xlink:href="#DejaVuSans-2e" x="63.623047"/>
       <use xlink:href="#DejaVuSans-32" x="95.410156"/>
       <use xlink:href="#DejaVuSans-35" x="159.033203"/>
      </g>
     </g>
    </g>
    <g id="ytick_7">
     <g id="line2d_37">
      <path d="M 52.079375 75.9305 
L 954.923375 75.9305 
" clip-path="url(#p0ba4b246f8)" style="fill: none; stroke: #ffffff; stroke-width: 0.8; stroke-linecap: square"/>
     </g>
     <g id="line2d_38">
      <g>
       <use xlink:href="#mdb24d273af" x="52.079375" y="75.9305" style="fill: #555555; stroke: #555555; stroke-width: 0.8"/>
      </g>
     </g>
     <g id="text_20">
      <!-- 0.30 -->
      <g style="fill: #555555" transform="translate(22.81375 79.729718)scale(0.1 -0.1)">
       <use xlink:href="#DejaVuSans-30"/>
       <use xlink:href="#DejaVuSans-2e" x="63.623047"/>
       <use xlink:href="#DejaVuSans-33" x="95.410156"/>
       <use xlink:href="#DejaVuSans-30" x="159.033203"/>
      </g>
     </g>
    </g>
    <g id="text_21">
     <!-- Share -->
     <g style="fill: #555555" transform="translate(16.318125 313.253625)rotate(-90)scale(0.12 -0.12)">
      <defs>
       <path id="DejaVuSans-53" d="M 3425 4513 
L 3425 3897 
Q 3066 4069 2747 4153 
Q 2428 4238 2131 4238 
Q 1616 4238 1336 4038 
Q 1056 3838 1056 3469 
Q 1056 3159 1242 3001 
Q 1428 2844 1947 2747 
L 2328 2669 
Q 3034 2534 3370 2195 
Q 3706 1856 3706 1288 
Q 3706 609 3251 259 
Q 2797 -91 1919 -91 
Q 1588 -91 1214 -16 
Q 841 59 441 206 
L 441 856 
Q 825 641 1194 531 
Q 1563 422 1919 422 
Q 2459 422 2753 634 
Q 3047 847 3047 1241 
Q 3047 1584 2836 1778 
Q 2625 1972 2144 2069 
L 1759 2144 
Q 1053 2284 737 2584 
Q 422 2884 422 3419 
Q 422 4038 858 4394 
Q 1294 4750 2059 4750 
Q 2388 4750 2728 4690 
Q 3069 4631 3425 4513 
z
" transform="scale(0.015625)"/>
       <path id="DejaVuSans-68" d="M 3513 2113 
L 3513 0 
L 2938 0 
L 2938 2094 
Q 2938 2591 2744 2837 
Q 2550 3084 2163 3084 
Q 1697 3084 1428 2787 
Q 1159 2491 1159 1978 
L 1159 0 
L 581 0 
L 581 4863 
L 1159 4863 
L 1159 2956 
Q 1366 3272 1645 3428 
Q 1925 3584 2291 3584 
Q 2894 3584 3203 3211 
Q 3513 2838 3513 2113 
z
" transform="scale(0.015625)"/>
       <path id="DejaVuSans-72" d="M 2631 2963 
Q 2534 3019 2420 3045 
Q 2306 3072 2169 3072 
Q 1681 3072 1420 2755 
Q 1159 2438 1159 1844 
L 1159 0 
L 581 0 
L 581 3500 
L 1159 3500 
L 1159 2956 
Q 1341 3275 1631 3429 
Q 1922 3584 2338 3584 
Q 2397 3584 2469 3576 
Q 2541 3569 2628 3553 
L 2631 2963 
z
" transform="scale(0.015625)"/>
      </defs>
      <use xlink:href="#DejaVuSans-53"/>
      <use xlink:href="#DejaVuSans-68" x="63.476562"/>
      <use xlink:href="#DejaVuSans-61" x="126.855469"/>
      <use xlink:href="#DejaVuSans-72" x="188.134766"/>
      <use xlink:href="#DejaVuSans-65" x="226.998047"/>
     </g>
    </g>
   </g>
   <g id="line2d_39">
    <path d="M 52.079375 354.94145 
L 61.199011 354.096842 
L 70.318648 353.252234 
L 79.438284 352.407626 
L 88.55792 351.563018 
L 97.677557 350.71841 
L 106.797193 349.873801 
L 115.91683 349.029193 
L 125.036466 348.184585 
L 134.156102 347.339977 
L 143.275739 346.495369 
L 152.395375 345.650761 
L 161.515011 344.806152 
L 170.634648 343.961544 
L 179.754284 343.116936 
L 188.87392 342.272328 
L 197.993557 341.42772 
L 207.113193 340.583112 
L 216.23283 339.738504 
L 225.352466 338.893895 
L 234.472102 338.049287 
L 243.591739 337.204679 
L 252.711375 336.360071 
L 261.831011 335.515463 
L 270.950648 334.670855 
L 280.070284 333.826247 
L 289.18992 332.981638 
L 298.309557 332.13703 
L 307.429193 331.292422 
L 316.54883 330.447814 
L 325.668466 329.603206 
L 334.788102 328.758598 
L 343.907739 327.91399 
L 353.027375 327.069381 
L 362.147011 326.224773 
L 371.266648 325.380165 
L 380.386284 324.535557 
L 389.50592 323.690949 
L 398.625557 322.846341 
L 407.745193 322.001733 
L 416.86483 321.157124 
L 425.984466 320.312516 
L 435.104102 319.467908 
L 444.223739 318.6233 
L 453.343375 317.778692 
L 462.463011 316.934084 
L 471.582648 316.089476 
L 480.702284 315.244867 
L 489.82192 314.400259 
L 498.941557 313.555651 
L 508.061193 312.711043 
L 517.18083 311.866435 
L 526.300466 311.021827 
L 535.420102 310.177219 
L 544.539739 309.33261 
L 553.659375 308.488002 
L 562.779011 307.643394 
L 571.898648 306.798786 
L 581.018284 305.954178 
L 590.13792 305.10957 
L 599.257557 304.264962 
L 608.377193 303.420353 
L 617.49683 302.575745 
L 626.616466 301.731137 
L 635.736102 300.886529 
L 644.855739 300.041921 
L 653.975375 299.197313 
L 663.095011 298.352704 
L 672.214648 297.508096 
L 681.334284 296.663488 
L 690.45392 295.81888 
L 699.573557 294.974272 
L 708.693193 294.129664 
L 717.81283 293.285056 
L 726.932466 292.440447 
L 736.052102 291.595839 
L 745.171739 290.751231 
L 754.291375 289.906623 
L 763.411011 289.062015 
L 772.530648 288.217407 
L 781.650284 287.372799 
L 790.76992 286.52819 
L 799.889557 285.683582 
L 809.009193 284.838974 
L 818.12883 283.994366 
L 827.248466 283.149758 
L 836.368102 282.30515 
L 845.487739 281.460542 
L 854.607375 280.615933 
L 863.727011 279.771325 
L 872.846648 278.926717 
L 881.966284 278.082109 
L 891.08592 277.237501 
L 900.205557 276.392893 
L 909.325193 275.548285 
L 918.44483 274.703676 
L 927.564466 273.859068 
L 936.684102 273.01446 
L 945.803739 272.169852 
L 954.923375 271.325244 
" clip-path="url(#p0ba4b246f8)" style="fill: none; stroke-dasharray: 1.5,2.475; stroke-dashoffset: 0; stroke: #4ac1fa; stroke-width: 1.5"/>
   </g>
   <g id="line2d_40">
    <path d="M 52.079375 139.547539 
L 61.199011 141.678626 
L 70.318648 143.809714 
L 79.438284 145.940801 
L 88.55792 148.071889 
L 97.677557 150.202977 
L 106.797193 152.334064 
L 115.91683 154.465152 
L 125.036466 156.59624 
L 134.156102 158.727327 
L 143.275739 160.858415 
L 152.395375 162.989502 
L 161.515011 165.12059 
L 170.634648 167.251678 
L 179.754284 169.382765 
L 188.87392 171.513853 
L 197.993557 173.644941 
L 207.113193 175.776028 
L 216.23283 177.907116 
L 225.352466 180.038204 
L 234.472102 182.169291 
L 243.591739 184.300379 
L 252.711375 186.431466 
L 261.831011 188.562554 
L 270.950648 190.693642 
L 280.070284 192.824729 
L 289.18992 194.955817 
L 298.309557 197.086905 
L 307.429193 199.217992 
L 316.54883 201.34908 
L 325.668466 203.480168 
L 334.788102 205.611255 
L 343.907739 207.742343 
L 353.027375 209.87343 
L 362.147011 212.004518 
L 371.266648 214.135606 
L 380.386284 216.266693 
L 389.50592 218.397781 
L 398.625557 220.528869 
L 407.745193 222.659956 
L 416.86483 224.791044 
L 425.984466 226.922131 
L 435.104102 229.053219 
L 444.223739 231.184307 
L 453.343375 233.315394 
L 462.463011 235.446482 
L 471.582648 237.57757 
L 480.702284 239.708657 
L 489.82192 241.839745 
L 498.941557 243.970833 
L 508.061193 246.10192 
L 517.18083 248.233008 
L 526.300466 250.364095 
L 535.420102 252.495183 
L 544.539739 254.626271 
L 553.659375 256.757358 
L 562.779011 258.888446 
L 571.898648 261.019534 
L 581.018284 263.150621 
L 590.13792 265.281709 
L 599.257557 267.412797 
L 608.377193 269.543884 
L 617.49683 271.674972 
L 626.616466 273.806059 
L 635.736102 275.937147 
L 644.855739 278.068235 
L 653.975375 280.199322 
L 663.095011 282.33041 
L 672.214648 284.461498 
L 681.334284 286.592585 
L 690.45392 288.723673 
L 699.573557 290.85476 
L 708.693193 292.985848 
L 717.81283 295.116936 
L 726.932466 297.248023 
L 736.052102 299.379111 
L 745.171739 301.510199 
L 754.291375 303.641286 
L 763.411011 305.772374 
L 772.530648 307.903462 
L 781.650284 310.034549 
L 790.76992 312.165637 
L 799.889557 314.296724 
L 809.009193 316.427812 
L 818.12883 318.5589 
L 827.248466 320.689987 
L 836.368102 322.821075 
L 845.487739 324.952163 
L 854.607375 327.08325 
L 863.727011 329.214338 
L 872.846648 331.345425 
L 881.966284 333.476513 
L 891.08592 335.607601 
L 900.205557 337.738688 
L 909.325193 339.869776 
L 918.44483 342.000864 
L 927.564466 344.131951 
L 936.684102 346.263039 
L 945.803739 348.394127 
L 954.923375 350.525214 
" clip-path="url(#p0ba4b246f8)" style="fill: none; stroke-dasharray: 1.5,2.475; stroke-dashoffset: 0; stroke: #e9a942; stroke-width: 1.5"/>
   </g>
   <g id="line2d_41">
    <path d="M 52.079375 317.858829 
L 61.199011 318.025374 
L 70.318648 318.191918 
L 79.438284 318.358462 
L 88.55792 318.525006 
L 97.677557 318.69155 
L 106.797193 318.858094 
L 115.91683 319.024638 
L 125.036466 319.191182 
L 134.156102 319.357726 
L 143.275739 319.52427 
L 152.395375 319.690814 
L 161.515011 319.857358 
L 170.634648 320.023902 
L 179.754284 320.190446 
L 188.87392 320.35699 
L 197.993557 320.523535 
L 207.113193 320.690079 
L 216.23283 320.856623 
L 225.352466 321.023167 
L 234.472102 321.189711 
L 243.591739 321.356255 
L 252.711375 321.522799 
L 261.831011 321.689343 
L 270.950648 321.855887 
L 280.070284 322.022431 
L 289.18992 322.188975 
L 298.309557 322.355519 
L 307.429193 322.522063 
L 316.54883 322.688607 
L 325.668466 322.855151 
L 334.788102 323.021695 
L 343.907739 323.18824 
L 353.027375 323.354784 
L 362.147011 323.521328 
L 371.266648 323.687872 
L 380.386284 323.854416 
L 389.50592 324.02096 
L 398.625557 324.187504 
L 407.745193 324.354048 
L 416.86483 324.520592 
L 425.984466 324.687136 
L 435.104102 324.85368 
L 444.223739 325.020224 
L 453.343375 325.186768 
L 462.463011 325.353312 
L 471.582648 325.519856 
L 480.702284 325.6864 
L 489.82192 325.852945 
L 498.941557 326.019489 
L 508.061193 326.186033 
L 517.18083 326.352577 
L 526.300466 326.519121 
L 535.420102 326.685665 
L 544.539739 326.852209 
L 553.659375 327.018753 
L 562.779011 327.185297 
L 571.898648 327.351841 
L 581.018284 327.518385 
L 590.13792 327.684929 
L 599.257557 327.851473 
L 608.377193 328.018017 
L 617.49683 328.184561 
L 626.616466 328.351105 
L 635.736102 328.51765 
L 644.855739 328.684194 
L 653.975375 328.850738 
L 663.095011 329.017282 
L 672.214648 329.183826 
L 681.334284 329.35037 
L 690.45392 329.516914 
L 699.573557 329.683458 
L 708.693193 329.850002 
L 717.81283 330.016546 
L 726.932466 330.18309 
L 736.052102 330.349634 
L 745.171739 330.516178 
L 754.291375 330.682722 
L 763.411011 330.849266 
L 772.530648 331.015811 
L 781.650284 331.182355 
L 790.76992 331.348899 
L 799.889557 331.515443 
L 809.009193 331.681987 
L 818.12883 331.848531 
L 827.248466 332.015075 
L 836.368102 332.181619 
L 845.487739 332.348163 
L 854.607375 332.514707 
L 863.727011 332.681251 
L 872.846648 332.847795 
L 881.966284 333.014339 
L 891.08592 333.180883 
L 900.205557 333.347427 
L 909.325193 333.513971 
L 918.44483 333.680516 
L 927.564466 333.84706 
L 936.684102 334.013604 
L 945.803739 334.180148 
L 954.923375 334.346692 
" clip-path="url(#p0ba4b246f8)" style="fill: none; stroke-dasharray: 1.5,2.475; stroke-dashoffset: 0; stroke: #9a5689; stroke-width: 1.5"/>
   </g>
   <g id="line2d_42">
    <path d="M 52.079375 507.520101 
L 61.199011 507.51712 
L 70.318648 507.514138 
L 79.438284 507.511157 
L 88.55792 507.508175 
L 97.677557 507.505194 
L 106.797193 507.502213 
L 115.91683 507.499231 
L 125.036466 507.49625 
L 134.156102 507.493268 
L 143.275739 507.490287 
L 152.395375 507.487306 
L 161.515011 507.484324 
L 170.634648 507.481343 
L 179.754284 507.478362 
L 188.87392 507.47538 
L 197.993557 507.472399 
L 207.113193 507.469417 
L 216.23283 507.466436 
L 225.352466 507.463455 
L 234.472102 507.460473 
L 243.591739 507.457492 
L 252.711375 507.45451 
L 261.831011 507.451529 
L 270.950648 507.448548 
L 280.070284 507.445566 
L 289.18992 507.442585 
L 298.309557 507.439603 
L 307.429193 507.436622 
L 316.54883 507.433641 
L 325.668466 507.430659 
L 334.788102 507.427678 
L 343.907739 507.424697 
L 353.027375 507.421715 
L 362.147011 507.418734 
L 371.266648 507.415752 
L 380.386284 507.412771 
L 389.50592 507.40979 
L 398.625557 507.406808 
L 407.745193 507.403827 
L 416.86483 507.400845 
L 425.984466 507.397864 
L 435.104102 507.394883 
L 444.223739 507.391901 
L 453.343375 507.38892 
L 462.463011 507.385938 
L 471.582648 507.382957 
L 480.702284 507.379976 
L 489.82192 507.376994 
L 498.941557 507.374013 
L 508.061193 507.371031 
L 517.18083 507.36805 
L 526.300466 507.365069 
L 535.420102 507.362087 
L 544.539739 507.359106 
L 553.659375 507.356125 
L 562.779011 507.353143 
L 571.898648 507.350162 
L 581.018284 507.34718 
L 590.13792 507.344199 
L 599.257557 507.341218 
L 608.377193 507.338236 
L 617.49683 507.335255 
L 626.616466 507.332273 
L 635.736102 507.329292 
L 644.855739 507.326311 
L 653.975375 507.323329 
L 663.095011 507.320348 
L 672.214648 507.317366 
L 681.334284 507.314385 
L 690.45392 507.311404 
L 699.573557 507.308422 
L 708.693193 507.305441 
L 717.81283 507.30246 
L 726.932466 507.299478 
L 736.052102 507.296497 
L 745.171739 507.293515 
L 754.291375 507.290534 
L 763.411011 507.287553 
L 772.530648 507.284571 
L 781.650284 507.28159 
L 790.76992 507.278608 
L 799.889557 507.275627 
L 809.009193 507.272646 
L 818.12883 507.269664 
L 827.248466 507.266683 
L 836.368102 507.263701 
L 845.487739 507.26072 
L 854.607375 507.257739 
L 863.727011 507.254757 
L 872.846648 507.251776 
L 881.966284 507.248794 
L 891.08592 507.245813 
L 900.205557 507.242832 
L 909.325193 507.23985 
L 918.44483 507.236869 
L 927.564466 507.233888 
L 936.684102 507.230906 
L 945.803739 507.227925 
L 954.923375 507.224943 
" clip-path="url(#p0ba4b246f8)" style="fill: none; stroke-dasharray: 1.5,2.475; stroke-dashoffset: 0; stroke: #be503b; stroke-width: 1.5"/>
   </g>
   <g id="line2d_43">
    <path d="M 52.079375 221.35671 
L 61.199011 221.81731 
L 70.318648 222.27791 
L 79.438284 222.738511 
L 88.55792 223.199111 
L 97.677557 223.659711 
L 106.797193 224.120311 
L 115.91683 224.580911 
L 125.036466 225.041512 
L 134.156102 225.502112 
L 143.275739 225.962712 
L 152.395375 226.423312 
L 161.515011 226.883912 
L 170.634648 227.344512 
L 179.754284 227.805113 
L 188.87392 228.265713 
L 197.993557 228.726313 
L 207.113193 229.186913 
L 216.23283 229.647513 
L 225.352466 230.108114 
L 234.472102 230.568714 
L 243.591739 231.029314 
L 252.711375 231.489914 
L 261.831011 231.950514 
L 270.950648 232.411114 
L 280.070284 232.871715 
L 289.18992 233.332315 
L 298.309557 233.792915 
L 307.429193 234.253515 
L 316.54883 234.714115 
L 325.668466 235.174716 
L 334.788102 235.635316 
L 343.907739 236.095916 
L 353.027375 236.556516 
L 362.147011 237.017116 
L 371.266648 237.477717 
L 380.386284 237.938317 
L 389.50592 238.398917 
L 398.625557 238.859517 
L 407.745193 239.320117 
L 416.86483 239.780717 
L 425.984466 240.241318 
L 435.104102 240.701918 
L 444.223739 241.162518 
L 453.343375 241.623118 
L 462.463011 242.083718 
L 471.582648 242.544319 
L 480.702284 243.004919 
L 489.82192 243.465519 
L 498.941557 243.926119 
L 508.061193 244.386719 
L 517.18083 244.847319 
L 526.300466 245.30792 
L 535.420102 245.76852 
L 544.539739 246.22912 
L 553.659375 246.68972 
L 562.779011 247.15032 
L 571.898648 247.610921 
L 581.018284 248.071521 
L 590.13792 248.532121 
L 599.257557 248.992721 
L 608.377193 249.453321 
L 617.49683 249.913922 
L 626.616466 250.374522 
L 635.736102 250.835122 
L 644.855739 251.295722 
L 653.975375 251.756322 
L 663.095011 252.216922 
L 672.214648 252.677523 
L 681.334284 253.138123 
L 690.45392 253.598723 
L 699.573557 254.059323 
L 708.693193 254.519923 
L 717.81283 254.980524 
L 726.932466 255.441124 
L 736.052102 255.901724 
L 745.171739 256.362324 
L 754.291375 256.822924 
L 763.411011 257.283525 
L 772.530648 257.744125 
L 781.650284 258.204725 
L 790.76992 258.665325 
L 799.889557 259.125925 
L 809.009193 259.586525 
L 818.12883 260.047126 
L 827.248466 260.507726 
L 836.368102 260.968326 
L 845.487739 261.428926 
L 854.607375 261.889526 
L 863.727011 262.350127 
L 872.846648 262.810727 
L 881.966284 263.271327 
L 891.08592 263.731927 
L 900.205557 264.192527 
L 909.325193 264.653127 
L 918.44483 265.113728 
L 927.564466 265.574328 
L 936.684102 266.034928 
L 945.803739 266.495528 
L 954.923375 266.956128 
" clip-path="url(#p0ba4b246f8)" style="fill: none; stroke-dasharray: 1.5,2.475; stroke-dashoffset: 0; stroke: #e2321d; stroke-width: 1.5"/>
   </g>
   <g id="line2d_44">
    <path d="M 52.079375 245.962231 
L 61.199011 244.153502 
L 70.318648 242.344774 
L 79.438284 240.536045 
L 88.55792 238.727317 
L 97.677557 236.918588 
L 106.797193 235.10986 
L 115.91683 233.301132 
L 125.036466 231.492403 
L 134.156102 229.683675 
L 143.275739 227.874946 
L 152.395375 226.066218 
L 161.515011 224.257489 
L 170.634648 222.448761 
L 179.754284 220.640032 
L 188.87392 218.831304 
L 197.993557 217.022576 
L 207.113193 215.213847 
L 216.23283 213.405119 
L 225.352466 211.59639 
L 234.472102 209.787662 
L 243.591739 207.978933 
L 252.711375 206.170205 
L 261.831011 204.361476 
L 270.950648 202.552748 
L 280.070284 200.74402 
L 289.18992 198.935291 
L 298.309557 197.126563 
L 307.429193 195.317834 
L 316.54883 193.509106 
L 325.668466 191.700377 
L 334.788102 189.891649 
L 343.907739 188.08292 
L 353.027375 186.274192 
L 362.147011 184.465463 
L 371.266648 182.656735 
L 380.386284 180.848007 
L 389.50592 179.039278 
L 398.625557 177.23055 
L 407.745193 175.421821 
L 416.86483 173.613093 
L 425.984466 171.804364 
L 435.104102 169.995636 
L 444.223739 168.186907 
L 453.343375 166.378179 
L 462.463011 164.569451 
L 471.582648 162.760722 
L 480.702284 160.951994 
L 489.82192 159.143265 
L 498.941557 157.334537 
L 508.061193 155.525808 
L 517.18083 153.71708 
L 526.300466 151.908351 
L 535.420102 150.099623 
L 544.539739 148.290895 
L 553.659375 146.482166 
L 562.779011 144.673438 
L 571.898648 142.864709 
L 581.018284 141.055981 
L 590.13792 139.247252 
L 599.257557 137.438524 
L 608.377193 135.629795 
L 617.49683 133.821067 
L 626.616466 132.012339 
L 635.736102 130.20361 
L 644.855739 128.394882 
L 653.975375 126.586153 
L 663.095011 124.777425 
L 672.214648 122.968696 
L 681.334284 121.159968 
L 690.45392 119.351239 
L 699.573557 117.542511 
L 708.693193 115.733782 
L 717.81283 113.925054 
L 726.932466 112.116326 
L 736.052102 110.307597 
L 745.171739 108.498869 
L 754.291375 106.69014 
L 763.411011 104.881412 
L 772.530648 103.072683 
L 781.650284 101.263955 
L 790.76992 99.455226 
L 799.889557 97.646498 
L 809.009193 95.83777 
L 818.12883 94.029041 
L 827.248466 92.220313 
L 836.368102 90.411584 
L 845.487739 88.602856 
L 854.607375 86.794127 
L 863.727011 84.985399 
L 872.846648 83.17667 
L 881.966284 81.367942 
L 891.08592 79.559214 
L 900.205557 77.750485 
L 909.325193 75.941757 
L 918.44483 74.133028 
L 927.564466 72.3243 
L 936.684102 70.515571 
L 945.803739 68.706843 
L 954.923375 66.898114 
" clip-path="url(#p0ba4b246f8)" style="fill: none; stroke-dasharray: 1.5,2.475; stroke-dashoffset: 0; stroke: #48b585; stroke-width: 1.5"/>
   </g>
   <g id="line2d_45">
    <path d="M 52.079375 375.770327 
L 69.782199 373.969521 
L 87.485022 366.249573 
L 105.187846 369.702831 
L 122.890669 369.703109 
L 140.593493 352.566929 
L 158.296316 342.095561 
L 175.99914 333.675655 
L 193.701963 351.16102 
L 211.404787 346.90338 
L 264.513257 343.635188 
L 282.216081 356.505176 
L 299.918904 341.490754 
L 317.621728 329.237342 
L 335.324551 314.628741 
L 353.027375 311.725373 
L 370.730199 295.042997 
L 388.433022 287.486065 
L 406.135846 301.491686 
L 423.838669 303.15239 
L 441.541493 304.527508 
L 459.244316 294.431261 
L 476.94714 296.354882 
L 494.649963 310.418017 
L 512.352787 309.266487 
L 530.05561 292.490442 
L 547.758434 309.048043 
L 565.461257 301.354279 
L 583.164081 301.752329 
L 600.866904 293.301922 
L 618.569728 286.830814 
L 636.272551 293.248784 
L 653.975375 294.047713 
L 707.083846 298.695252 
L 724.786669 303.331263 
L 742.489493 290.570138 
L 760.192316 290.725232 
L 777.89514 309.471011 
L 795.597963 315.612273 
L 813.300787 293.322528 
L 831.00361 273.133776 
L 848.706434 273.828693 
L 866.409257 286.769255 
L 884.112081 299.164826 
L 901.814904 295.671516 
L 919.517728 273.819298 
L 937.220551 264.652625 
L 954.923375 291.971539 
" clip-path="url(#p0ba4b246f8)" style="fill: none; stroke: #4ac1fa; stroke-width: 1.5; stroke-linecap: square"/>
   </g>
   <g id="line2d_46">
    <path d="M 52.079375 103.499318 
L 69.782199 100.958922 
L 87.485022 122.544523 
L 105.187846 86.450365 
L 122.890669 47.517971 
L 140.593493 146.878837 
L 158.296316 155.448749 
L 175.99914 220.256577 
L 193.701963 108.932427 
L 211.404787 151.340575 
L 264.513257 152.696068 
L 282.216081 104.879138 
L 299.918904 149.059364 
L 317.621728 218.112155 
L 335.324551 242.754587 
L 353.027375 252.264094 
L 370.730199 294.680677 
L 388.433022 336.455305 
L 406.135846 289.554583 
L 423.838669 275.04836 
L 441.541493 284.502077 
L 459.244316 319.081917 
L 476.94714 267.528887 
L 494.649963 257.670218 
L 512.352787 285.893595 
L 530.05561 326.27821 
L 547.758434 326.092151 
L 565.461257 280.283498 
L 583.164081 246.104137 
L 600.866904 282.894822 
L 618.569728 333.862733 
L 636.272551 307.907171 
L 653.975375 292.363487 
L 707.083846 268.449534 
L 724.786669 232.507803 
L 742.489493 271.309013 
L 760.192316 307.06403 
L 777.89514 257.882805 
L 795.597963 240.849043 
L 813.300787 323.085165 
L 831.00361 349.416465 
L 848.706434 367.368433 
L 866.409257 341.922728 
L 884.112081 289.212493 
L 901.814904 275.53411 
L 919.517728 296.60406 
L 937.220551 354.587285 
L 954.923375 257.525771 
" clip-path="url(#p0ba4b246f8)" style="fill: none; stroke: #e9a942; stroke-width: 1.5; stroke-linecap: square"/>
   </g>
   <g id="line2d_47">
    <path d="M 52.079375 300.723429 
L 69.782199 314.157675 
L 87.485022 316.403232 
L 105.187846 328.650606 
L 122.890669 340.786212 
L 140.593493 323.48894 
L 158.296316 319.598039 
L 175.99914 315.737785 
L 193.701963 342.003898 
L 211.404787 333.102539 
L 264.513257 338.978552 
L 282.216081 346.432495 
L 299.918904 320.571888 
L 317.621728 289.32598 
L 335.324551 321.548617 
L 353.027375 320.985112 
L 370.730199 309.42409 
L 388.433022 307.067139 
L 406.135846 322.72389 
L 423.838669 322.35766 
L 441.541493 328.896571 
L 459.244316 323.100873 
L 476.94714 329.865078 
L 494.649963 331.01642 
L 512.352787 322.113406 
L 530.05561 312.673518 
L 547.758434 299.66137 
L 565.461257 325.351105 
L 583.164081 339.086805 
L 600.866904 328.475625 
L 618.569728 320.029206 
L 636.272551 330.406553 
L 653.975375 328.992937 
L 707.083846 326.683668 
L 724.786669 322.876299 
L 742.489493 316.486063 
L 760.192316 330.723189 
L 777.89514 339.003226 
L 795.597963 332.626291 
L 813.300787 330.54508 
L 831.00361 337.401788 
L 848.706434 335.621239 
L 866.409257 331.881344 
L 884.112081 339.834173 
L 901.814904 338.019913 
L 919.517728 336.584025 
L 937.220551 329.456234 
L 954.923375 354.68565 
" clip-path="url(#p0ba4b246f8)" style="fill: none; stroke: #9a5689; stroke-width: 1.5; stroke-linecap: square"/>
   </g>
   <g id="line2d_48">
    <path d="M 52.079375 514.210526 
L 69.782199 512.87314 
L 87.485022 511.743062 
L 105.187846 512.004758 
L 122.890669 513.570531 
L 140.593493 508.480633 
L 158.296316 507.168186 
L 175.99914 506.388713 
L 193.701963 511.165229 
L 211.404787 509.391389 
L 264.513257 508.829698 
L 282.216081 509.859937 
L 299.918904 507.03359 
L 317.621728 508.27808 
L 335.324551 505.439208 
L 353.027375 505.451446 
L 370.730199 500.72906 
L 388.433022 500.293154 
L 406.135846 503.391408 
L 423.838669 502.801748 
L 441.541493 504.787277 
L 459.244316 502.535495 
L 476.94714 502.536233 
L 494.649963 504.757713 
L 512.352787 503.339267 
L 530.05561 501.594422 
L 547.758434 501.861321 
L 565.461257 504.619347 
L 583.164081 503.485183 
L 600.866904 504.350841 
L 618.569728 501.944697 
L 636.272551 504.767222 
L 653.975375 506.00374 
L 707.083846 508.984583 
L 724.786669 510.621059 
L 742.489493 509.406124 
L 760.192316 509.165284 
L 777.89514 512.656373 
L 795.597963 515.042389 
L 813.300787 509.966657 
L 831.00361 507.075543 
L 848.706434 507.289082 
L 866.409257 509.2056 
L 884.112081 511.481711 
L 901.814904 510.21149 
L 919.517728 508.232589 
L 937.220551 506.216411 
L 954.923375 512.582043 
" clip-path="url(#p0ba4b246f8)" style="fill: none; stroke: #be503b; stroke-width: 1.5; stroke-linecap: square"/>
   </g>
   <g id="line2d_49">
    <path d="M 52.079375 244.959904 
L 69.782199 246.699408 
L 87.485022 239.438189 
L 105.187846 250.976707 
L 122.890669 260.334502 
L 140.593493 234.724853 
L 158.296316 249.545774 
L 175.99914 211.719983 
L 193.701963 240.454052 
L 211.404787 233.215915 
L 264.513257 228.068142 
L 282.216081 252.292573 
L 299.918904 266.920494 
L 317.621728 232.545146 
L 335.324551 214.963412 
L 353.027375 208.799133 
L 370.730199 233.373798 
L 388.433022 224.948039 
L 406.135846 204.267149 
L 423.838669 203.428264 
L 441.541493 197.328541 
L 459.244316 188.331382 
L 476.94714 233.524648 
L 494.649963 215.250241 
L 512.352787 219.239821 
L 530.05561 223.896068 
L 547.758434 195.876291 
L 565.461257 238.380063 
L 583.164081 253.451546 
L 600.866904 241.061179 
L 618.569728 241.032012 
L 636.272551 250.380246 
L 653.975375 253.084003 
L 707.083846 266.26411 
L 724.786669 280.118583 
L 742.489493 272.2685 
L 760.192316 259.969004 
L 777.89514 284.095385 
L 795.597963 294.799376 
L 813.300787 274.330921 
L 831.00361 273.213291 
L 848.706434 260.567554 
L 866.409257 266.243839 
L 884.112081 275.849242 
L 901.814904 269.171034 
L 919.517728 268.691223 
L 937.220551 261.552645 
L 954.923375 288.803002 
" clip-path="url(#p0ba4b246f8)" style="fill: none; stroke: #e2321d; stroke-width: 1.5; stroke-linecap: square"/>
   </g>
   <g id="line2d_50">
    <path d="M 52.079375 245.987165 
L 69.782199 237.717733 
L 87.485022 229.695104 
L 105.187846 238.378881 
L 122.890669 255.799417 
L 140.593493 223.777078 
L 158.296316 216.669248 
L 175.99914 203.688041 
L 193.701963 234.554371 
L 211.404787 215.023854 
L 264.513257 216.629578 
L 282.216081 218.021428 
L 299.918904 203.579681 
L 317.621728 211.505682 
L 335.324551 191.036275 
L 353.027375 190.673988 
L 370.730199 157.879128 
L 388.433022 136.359108 
L 406.135846 170.028527 
L 423.838669 184.929187 
L 441.541493 172.26857 
L 459.244316 166.65946 
L 476.94714 163.137199 
L 494.649963 171.713647 
L 512.352787 152.50121 
L 530.05561 136.478903 
L 547.758434 160.186051 
L 565.461257 142.165766 
L 583.164081 148.629851 
L 600.866904 144.494549 
L 618.569728 111.432121 
L 636.272551 107.770422 
L 653.975375 120.518407 
L 707.083846 126.145396 
L 724.786669 144.947578 
L 742.489493 134.818375 
L 760.192316 97.781219 
L 777.89514 91.260635 
L 795.597963 94.597893 
L 813.300787 64.793882 
L 831.00361 55.395015 
L 848.706434 52.908556 
L 866.409257 60.811449 
L 884.112081 80.697318 
L 901.814904 106.937507 
L 919.517728 113.086247 
L 937.220551 81.146345 
L 954.923375 88.320625 
" clip-path="url(#p0ba4b246f8)" style="fill: none; stroke: #48b585; stroke-width: 6; stroke-linecap: square"/>
   </g>
   <g id="patch_3">
    <path d="M 52.079375 567.74175 
L 52.079375 24.14175 
" style="fill: none; stroke: #ffffff; stroke-linejoin: miter; stroke-linecap: square"/>
   </g>
   <g id="patch_4">
    <path d="M 954.923375 567.74175 
L 954.923375 24.14175 
" style="fill: none; stroke: #ffffff; stroke-linejoin: miter; stroke-linecap: square"/>
   </g>
   <g id="patch_5">
    <path d="M 52.079375 567.74175 
L 954.923375 567.74175 
" style="fill: none; stroke: #ffffff; stroke-linejoin: miter; stroke-linecap: square"/>
   </g>
   <g id="patch_6">
    <path d="M 52.079375 24.14175 
L 954.923375 24.14175 
" style="fill: none; stroke: #ffffff; stroke-linejoin: miter; stroke-linecap: square"/>
   </g>
   <g id="text_22">
    <!-- Enterprise Linux 8 and 9 Instances by Distribution Share (System Age &gt; 1 Week) -->
    <g transform="translate(52.079375 18.14175)scale(0.144 -0.144)">
     <defs>
      <path id="DejaVuSans-45" d="M 628 4666 
L 3578 4666 
L 3578 4134 
L 1259 4134 
L 1259 2753 
L 3481 2753 
L 3481 2222 
L 1259 2222 
L 1259 531 
L 3634 531 
L 3634 0 
L 628 0 
L 628 4666 
z
" transform="scale(0.015625)"/>
      <path id="DejaVuSans-6e" d="M 3513 2113 
L 3513 0 
L 2938 0 
L 2938 2094 
Q 2938 2591 2744 2837 
Q 2550 3084 2163 3084 
Q 1697 3084 1428 2787 
Q 1159 2491 1159 1978 
L 1159 0 
L 581 0 
L 581 3500 
L 1159 3500 
L 1159 2956 
Q 1366 3272 1645 3428 
Q 1925 3584 2291 3584 
Q 2894 3584 3203 3211 
Q 3513 2838 3513 2113 
z
" transform="scale(0.015625)"/>
      <path id="DejaVuSans-70" d="M 1159 525 
L 1159 -1331 
L 581 -1331 
L 581 3500 
L 1159 3500 
L 1159 2969 
Q 1341 3281 1617 3432 
Q 1894 3584 2278 3584 
Q 2916 3584 3314 3078 
Q 3713 2572 3713 1747 
Q 3713 922 3314 415 
Q 2916 -91 2278 -91 
Q 1894 -91 1617 61 
Q 1341 213 1159 525 
z
M 3116 1747 
Q 3116 2381 2855 2742 
Q 2594 3103 2138 3103 
Q 1681 3103 1420 2742 
Q 1159 2381 1159 1747 
Q 1159 1113 1420 752 
Q 1681 391 2138 391 
Q 2594 391 2855 752 
Q 3116 1113 3116 1747 
z
" transform="scale(0.015625)"/>
      <path id="DejaVuSans-69" d="M 603 3500 
L 1178 3500 
L 1178 0 
L 603 0 
L 603 3500 
z
M 603 4863 
L 1178 4863 
L 1178 4134 
L 603 4134 
L 603 4863 
z
" transform="scale(0.015625)"/>
      <path id="DejaVuSans-73" d="M 2834 3397 
L 2834 2853 
Q 2591 2978 2328 3040 
Q 2066 3103 1784 3103 
Q 1356 3103 1142 2972 
Q 928 2841 928 2578 
Q 928 2378 1081 2264 
Q 1234 2150 1697 2047 
L 1894 2003 
Q 2506 1872 2764 1633 
Q 3022 1394 3022 966 
Q 3022 478 2636 193 
Q 2250 -91 1575 -91 
Q 1294 -91 989 -36 
Q 684 19 347 128 
L 347 722 
Q 666 556 975 473 
Q 1284 391 1588 391 
Q 1994 391 2212 530 
Q 2431 669 2431 922 
Q 2431 1156 2273 1281 
Q 2116 1406 1581 1522 
L 1381 1569 
Q 847 1681 609 1914 
Q 372 2147 372 2553 
Q 372 3047 722 3315 
Q 1072 3584 1716 3584 
Q 2034 3584 2315 3537 
Q 2597 3491 2834 3397 
z
" transform="scale(0.015625)"/>
      <path id="DejaVuSans-20" transform="scale(0.015625)"/>
      <path id="DejaVuSans-4c" d="M 628 4666 
L 1259 4666 
L 1259 531 
L 3531 531 
L 3531 0 
L 628 0 
L 628 4666 
z
" transform="scale(0.015625)"/>
      <path id="DejaVuSans-75" d="M 544 1381 
L 544 3500 
L 1119 3500 
L 1119 1403 
Q 1119 906 1312 657 
Q 1506 409 1894 409 
Q 2359 409 2629 706 
Q 2900 1003 2900 1516 
L 2900 3500 
L 3475 3500 
L 3475 0 
L 2900 0 
L 2900 538 
Q 2691 219 2414 64 
Q 2138 -91 1772 -91 
Q 1169 -91 856 284 
Q 544 659 544 1381 
z
M 1991 3584 
L 1991 3584 
z
" transform="scale(0.015625)"/>
      <path id="DejaVuSans-78" d="M 3513 3500 
L 2247 1797 
L 3578 0 
L 2900 0 
L 1881 1375 
L 863 0 
L 184 0 
L 1544 1831 
L 300 3500 
L 978 3500 
L 1906 2253 
L 2834 3500 
L 3513 3500 
z
" transform="scale(0.015625)"/>
      <path id="DejaVuSans-64" d="M 2906 2969 
L 2906 4863 
L 3481 4863 
L 3481 0 
L 2906 0 
L 2906 525 
Q 2725 213 2448 61 
Q 2172 -91 1784 -91 
Q 1150 -91 751 415 
Q 353 922 353 1747 
Q 353 2572 751 3078 
Q 1150 3584 1784 3584 
Q 2172 3584 2448 3432 
Q 2725 3281 2906 2969 
z
M 947 1747 
Q 947 1113 1208 752 
Q 1469 391 1925 391 
Q 2381 391 2643 752 
Q 2906 1113 2906 1747 
Q 2906 2381 2643 2742 
Q 2381 3103 1925 3103 
Q 1469 3103 1208 2742 
Q 947 2381 947 1747 
z
" transform="scale(0.015625)"/>
      <path id="DejaVuSans-49" d="M 628 4666 
L 1259 4666 
L 1259 0 
L 628 0 
L 628 4666 
z
" transform="scale(0.015625)"/>
      <path id="DejaVuSans-63" d="M 3122 3366 
L 3122 2828 
Q 2878 2963 2633 3030 
Q 2388 3097 2138 3097 
Q 1578 3097 1268 2742 
Q 959 2388 959 1747 
Q 959 1106 1268 751 
Q 1578 397 2138 397 
Q 2388 397 2633 464 
Q 2878 531 3122 666 
L 3122 134 
Q 2881 22 2623 -34 
Q 2366 -91 2075 -91 
Q 1284 -91 818 406 
Q 353 903 353 1747 
Q 353 2603 823 3093 
Q 1294 3584 2113 3584 
Q 2378 3584 2631 3529 
Q 2884 3475 3122 3366 
z
" transform="scale(0.015625)"/>
      <path id="DejaVuSans-62" d="M 3116 1747 
Q 3116 2381 2855 2742 
Q 2594 3103 2138 3103 
Q 1681 3103 1420 2742 
Q 1159 2381 1159 1747 
Q 1159 1113 1420 752 
Q 1681 391 2138 391 
Q 2594 391 2855 752 
Q 3116 1113 3116 1747 
z
M 1159 2969 
Q 1341 3281 1617 3432 
Q 1894 3584 2278 3584 
Q 2916 3584 3314 3078 
Q 3713 2572 3713 1747 
Q 3713 922 3314 415 
Q 2916 -91 2278 -91 
Q 1894 -91 1617 61 
Q 1341 213 1159 525 
L 1159 0 
L 581 0 
L 581 4863 
L 1159 4863 
L 1159 2969 
z
" transform="scale(0.015625)"/>
      <path id="DejaVuSans-79" d="M 2059 -325 
Q 1816 -950 1584 -1140 
Q 1353 -1331 966 -1331 
L 506 -1331 
L 506 -850 
L 844 -850 
Q 1081 -850 1212 -737 
Q 1344 -625 1503 -206 
L 1606 56 
L 191 3500 
L 800 3500 
L 1894 763 
L 2988 3500 
L 3597 3500 
L 2059 -325 
z
" transform="scale(0.015625)"/>
      <path id="DejaVuSans-6f" d="M 1959 3097 
Q 1497 3097 1228 2736 
Q 959 2375 959 1747 
Q 959 1119 1226 758 
Q 1494 397 1959 397 
Q 2419 397 2687 759 
Q 2956 1122 2956 1747 
Q 2956 2369 2687 2733 
Q 2419 3097 1959 3097 
z
M 1959 3584 
Q 2709 3584 3137 3096 
Q 3566 2609 3566 1747 
Q 3566 888 3137 398 
Q 2709 -91 1959 -91 
Q 1206 -91 779 398 
Q 353 888 353 1747 
Q 353 2609 779 3096 
Q 1206 3584 1959 3584 
z
" transform="scale(0.015625)"/>
      <path id="DejaVuSans-28" d="M 1984 4856 
Q 1566 4138 1362 3434 
Q 1159 2731 1159 2009 
Q 1159 1288 1364 580 
Q 1569 -128 1984 -844 
L 1484 -844 
Q 1016 -109 783 600 
Q 550 1309 550 2009 
Q 550 2706 781 3412 
Q 1013 4119 1484 4856 
L 1984 4856 
z
" transform="scale(0.015625)"/>
      <path id="DejaVuSans-6d" d="M 3328 2828 
Q 3544 3216 3844 3400 
Q 4144 3584 4550 3584 
Q 5097 3584 5394 3201 
Q 5691 2819 5691 2113 
L 5691 0 
L 5113 0 
L 5113 2094 
Q 5113 2597 4934 2840 
Q 4756 3084 4391 3084 
Q 3944 3084 3684 2787 
Q 3425 2491 3425 1978 
L 3425 0 
L 2847 0 
L 2847 2094 
Q 2847 2600 2669 2842 
Q 2491 3084 2119 3084 
Q 1678 3084 1418 2786 
Q 1159 2488 1159 1978 
L 1159 0 
L 581 0 
L 581 3500 
L 1159 3500 
L 1159 2956 
Q 1356 3278 1631 3431 
Q 1906 3584 2284 3584 
Q 2666 3584 2933 3390 
Q 3200 3197 3328 2828 
z
" transform="scale(0.015625)"/>
      <path id="DejaVuSans-41" d="M 2188 4044 
L 1331 1722 
L 3047 1722 
L 2188 4044 
z
M 1831 4666 
L 2547 4666 
L 4325 0 
L 3669 0 
L 3244 1197 
L 1141 1197 
L 716 0 
L 50 0 
L 1831 4666 
z
" transform="scale(0.015625)"/>
      <path id="DejaVuSans-67" d="M 2906 1791 
Q 2906 2416 2648 2759 
Q 2391 3103 1925 3103 
Q 1463 3103 1205 2759 
Q 947 2416 947 1791 
Q 947 1169 1205 825 
Q 1463 481 1925 481 
Q 2391 481 2648 825 
Q 2906 1169 2906 1791 
z
M 3481 434 
Q 3481 -459 3084 -895 
Q 2688 -1331 1869 -1331 
Q 1566 -1331 1297 -1286 
Q 1028 -1241 775 -1147 
L 775 -588 
Q 1028 -725 1275 -790 
Q 1522 -856 1778 -856 
Q 2344 -856 2625 -561 
Q 2906 -266 2906 331 
L 2906 616 
Q 2728 306 2450 153 
Q 2172 0 1784 0 
Q 1141 0 747 490 
Q 353 981 353 1791 
Q 353 2603 747 3093 
Q 1141 3584 1784 3584 
Q 2172 3584 2450 3431 
Q 2728 3278 2906 2969 
L 2906 3500 
L 3481 3500 
L 3481 434 
z
" transform="scale(0.015625)"/>
      <path id="DejaVuSans-3e" d="M 678 3150 
L 678 3719 
L 4684 2266 
L 4684 1747 
L 678 294 
L 678 863 
L 3897 2003 
L 678 3150 
z
" transform="scale(0.015625)"/>
      <path id="DejaVuSans-57" d="M 213 4666 
L 850 4666 
L 1831 722 
L 2809 4666 
L 3519 4666 
L 4500 722 
L 5478 4666 
L 6119 4666 
L 4947 0 
L 4153 0 
L 3169 4050 
L 2175 0 
L 1381 0 
L 213 4666 
z
" transform="scale(0.015625)"/>
      <path id="DejaVuSans-6b" d="M 581 4863 
L 1159 4863 
L 1159 1991 
L 2875 3500 
L 3609 3500 
L 1753 1863 
L 3688 0 
L 2938 0 
L 1159 1709 
L 1159 0 
L 581 0 
L 581 4863 
z
" transform="scale(0.015625)"/>
      <path id="DejaVuSans-29" d="M 513 4856 
L 1013 4856 
Q 1481 4119 1714 3412 
Q 1947 2706 1947 2009 
Q 1947 1309 1714 600 
Q 1481 -109 1013 -844 
L 513 -844 
Q 928 -128 1133 580 
Q 1338 1288 1338 2009 
Q 1338 2731 1133 3434 
Q 928 4138 513 4856 
z
" transform="scale(0.015625)"/>
     </defs>
     <use xlink:href="#DejaVuSans-45"/>
     <use xlink:href="#DejaVuSans-6e" x="63.183594"/>
     <use xlink:href="#DejaVuSans-74" x="126.5625"/>
     <use xlink:href="#DejaVuSans-65" x="165.771484"/>
     <use xlink:href="#DejaVuSans-72" x="227.294922"/>
     <use xlink:href="#DejaVuSans-70" x="268.408203"/>
     <use xlink:href="#DejaVuSans-72" x="331.884766"/>
     <use xlink:href="#DejaVuSans-69" x="372.998047"/>
     <use xlink:href="#DejaVuSans-73" x="400.78125"/>
     <use xlink:href="#DejaVuSans-65" x="452.880859"/>
     <use xlink:href="#DejaVuSans-20" x="514.404297"/>
     <use xlink:href="#DejaVuSans-4c" x="546.191406"/>
     <use xlink:href="#DejaVuSans-69" x="601.904297"/>
     <use xlink:href="#DejaVuSans-6e" x="629.6875"/>
     <use xlink:href="#DejaVuSans-75" x="693.066406"/>
     <use xlink:href="#DejaVuSans-78" x="756.445312"/>
     <use xlink:href="#DejaVuSans-20" x="815.625"/>
     <use xlink:href="#DejaVuSans-38" x="847.412109"/>
     <use xlink:href="#DejaVuSans-20" x="911.035156"/>
     <use xlink:href="#DejaVuSans-61" x="942.822266"/>
     <use xlink:href="#DejaVuSans-6e" x="1004.101562"/>
     <use xlink:href="#DejaVuSans-64" x="1067.480469"/>
     <use xlink:href="#DejaVuSans-20" x="1130.957031"/>
     <use xlink:href="#DejaVuSans-39" x="1162.744141"/>
     <use xlink:href="#DejaVuSans-20" x="1226.367188"/>
     <use xlink:href="#DejaVuSans-49" x="1258.154297"/>
     <use xlink:href="#DejaVuSans-6e" x="1287.646484"/>
     <use xlink:href="#DejaVuSans-73" x="1351.025391"/>
     <use xlink:href="#DejaVuSans-74" x="1403.125"/>
     <use xlink:href="#DejaVuSans-61" x="1442.333984"/>
     <use xlink:href="#DejaVuSans-6e" x="1503.613281"/>
     <use xlink:href="#DejaVuSans-63" x="1566.992188"/>
     <use xlink:href="#DejaVuSans-65" x="1621.972656"/>
     <use xlink:href="#DejaVuSans-73" x="1683.496094"/>
     <use xlink:href="#DejaVuSans-20" x="1735.595703"/>
     <use xlink:href="#DejaVuSans-62" x="1767.382812"/>
     <use xlink:href="#DejaVuSans-79" x="1830.859375"/>
     <use xlink:href="#DejaVuSans-20" x="1890.039062"/>
     <use xlink:href="#DejaVuSans-44" x="1921.826172"/>
     <use xlink:href="#DejaVuSans-69" x="1998.828125"/>
     <use xlink:href="#DejaVuSans-73" x="2026.611328"/>
     <use xlink:href="#DejaVuSans-74" x="2078.710938"/>
     <use xlink:href="#DejaVuSans-72" x="2117.919922"/>
     <use xlink:href="#DejaVuSans-69" x="2159.033203"/>
     <use xlink:href="#DejaVuSans-62" x="2186.816406"/>
     <use xlink:href="#DejaVuSans-75" x="2250.292969"/>
     <use xlink:href="#DejaVuSans-74" x="2313.671875"/>
     <use xlink:href="#DejaVuSans-69" x="2352.880859"/>
     <use xlink:href="#DejaVuSans-6f" x="2380.664062"/>
     <use xlink:href="#DejaVuSans-6e" x="2441.845703"/>
     <use xlink:href="#DejaVuSans-20" x="2505.224609"/>
     <use xlink:href="#DejaVuSans-53" x="2537.011719"/>
     <use xlink:href="#DejaVuSans-68" x="2600.488281"/>
     <use xlink:href="#DejaVuSans-61" x="2663.867188"/>
     <use xlink:href="#DejaVuSans-72" x="2725.146484"/>
     <use xlink:href="#DejaVuSans-65" x="2764.009766"/>
     <use xlink:href="#DejaVuSans-20" x="2825.533203"/>
     <use xlink:href="#DejaVuSans-28" x="2857.320312"/>
     <use xlink:href="#DejaVuSans-53" x="2896.333984"/>
     <use xlink:href="#DejaVuSans-79" x="2959.810547"/>
     <use xlink:href="#DejaVuSans-73" x="3018.990234"/>
     <use xlink:href="#DejaVuSans-74" x="3071.089844"/>
     <use xlink:href="#DejaVuSans-65" x="3110.298828"/>
     <use xlink:href="#DejaVuSans-6d" x="3171.822266"/>
     <use xlink:href="#DejaVuSans-20" x="3269.234375"/>
     <use xlink:href="#DejaVuSans-41" x="3301.021484"/>
     <use xlink:href="#DejaVuSans-67" x="3369.429688"/>
     <use xlink:href="#DejaVuSans-65" x="3432.90625"/>
     <use xlink:href="#DejaVuSans-20" x="3494.429688"/>
     <use xlink:href="#DejaVuSans-3e" x="3526.216797"/>
     <use xlink:href="#DejaVuSans-20" x="3610.005859"/>
     <use xlink:href="#DejaVuSans-31" x="3641.792969"/>
     <use xlink:href="#DejaVuSans-20" x="3705.416016"/>
     <use xlink:href="#DejaVuSans-57" x="3737.203125"/>
     <use xlink:href="#DejaVuSans-65" x="3830.205078"/>
     <use xlink:href="#DejaVuSans-65" x="3891.728516"/>
     <use xlink:href="#DejaVuSans-6b" x="3953.251953"/>
     <use xlink:href="#DejaVuSans-29" x="4011.162109"/>
    </g>
   </g>
   <g id="text_23">
    <!-- 2024-02-22 11:55 UTC -->
    <g transform="translate(792.041375 18.14175)scale(0.144 -0.144)">
     <defs>
      <path id="DejaVuSans-3a" d="M 750 794 
L 1409 794 
L 1409 0 
L 750 0 
L 750 794 
z
M 750 3309 
L 1409 3309 
L 1409 2516 
L 750 2516 
L 750 3309 
z
" transform="scale(0.015625)"/>
      <path id="DejaVuSans-55" d="M 556 4666 
L 1191 4666 
L 1191 1831 
Q 1191 1081 1462 751 
Q 1734 422 2344 422 
Q 2950 422 3222 751 
Q 3494 1081 3494 1831 
L 3494 4666 
L 4128 4666 
L 4128 1753 
Q 4128 841 3676 375 
Q 3225 -91 2344 -91 
Q 1459 -91 1007 375 
Q 556 841 556 1753 
L 556 4666 
z
" transform="scale(0.015625)"/>
      <path id="DejaVuSans-54" d="M -19 4666 
L 3928 4666 
L 3928 4134 
L 2272 4134 
L 2272 0 
L 1638 0 
L 1638 4134 
L -19 4134 
L -19 4666 
z
" transform="scale(0.015625)"/>
      <path id="DejaVuSans-43" d="M 4122 4306 
L 4122 3641 
Q 3803 3938 3442 4084 
Q 3081 4231 2675 4231 
Q 1875 4231 1450 3742 
Q 1025 3253 1025 2328 
Q 1025 1406 1450 917 
Q 1875 428 2675 428 
Q 3081 428 3442 575 
Q 3803 722 4122 1019 
L 4122 359 
Q 3791 134 3420 21 
Q 3050 -91 2638 -91 
Q 1578 -91 968 557 
Q 359 1206 359 2328 
Q 359 3453 968 4101 
Q 1578 4750 2638 4750 
Q 3056 4750 3426 4639 
Q 3797 4528 4122 4306 
z
" transform="scale(0.015625)"/>
     </defs>
     <use xlink:href="#DejaVuSans-32"/>
     <use xlink:href="#DejaVuSans-30" x="63.623047"/>
     <use xlink:href="#DejaVuSans-32" x="127.246094"/>
     <use xlink:href="#DejaVuSans-34" x="190.869141"/>
     <use xlink:href="#DejaVuSans-2d" x="254.492188"/>
     <use xlink:href="#DejaVuSans-30" x="290.576172"/>
     <use xlink:href="#DejaVuSans-32" x="354.199219"/>
     <use xlink:href="#DejaVuSans-2d" x="417.822266"/>
     <use xlink:href="#DejaVuSans-32" x="453.90625"/>
     <use xlink:href="#DejaVuSans-32" x="517.529297"/>
     <use xlink:href="#DejaVuSans-20" x="581.152344"/>
     <use xlink:href="#DejaVuSans-31" x="612.939453"/>
     <use xlink:href="#DejaVuSans-31" x="676.5625"/>
     <use xlink:href="#DejaVuSans-3a" x="740.185547"/>
     <use xlink:href="#DejaVuSans-35" x="773.876953"/>
     <use xlink:href="#DejaVuSans-35" x="837.5"/>
     <use xlink:href="#DejaVuSans-20" x="901.123047"/>
     <use xlink:href="#DejaVuSans-55" x="932.910156"/>
     <use xlink:href="#DejaVuSans-54" x="1006.103516"/>
     <use xlink:href="#DejaVuSans-43" x="1061.3125"/>
    </g>
   </g>
   <g id="legend_1">
    <g id="patch_7">
     <path d="M 449.017 134.888625 
L 557.98575 134.888625 
Q 559.98575 134.888625 559.98575 132.888625 
L 559.98575 31.14175 
Q 559.98575 29.14175 557.98575 29.14175 
L 449.017 29.14175 
Q 447.017 29.14175 447.017 31.14175 
L 447.017 132.888625 
Q 447.017 134.888625 449.017 134.888625 
z
" style="fill: #e5e5e5; opacity: 0.8; stroke: #cccccc; stroke-width: 0.5; stroke-linejoin: miter"/>
    </g>
    <g id="text_24">
     <!-- Distribution -->
     <g transform="translate(474.332625 40.740187)scale(0.1 -0.1)">
      <use xlink:href="#DejaVuSans-44"/>
      <use xlink:href="#DejaVuSans-69" x="77.001953"/>
      <use xlink:href="#DejaVuSans-73" x="104.785156"/>
      <use xlink:href="#DejaVuSans-74" x="156.884766"/>
      <use xlink:href="#DejaVuSans-72" x="196.09375"/>
      <use xlink:href="#DejaVuSans-69" x="237.207031"/>
      <use xlink:href="#DejaVuSans-62" x="264.990234"/>
      <use xlink:href="#DejaVuSans-75" x="328.466797"/>
      <use xlink:href="#DejaVuSans-74" x="391.845703"/>
      <use xlink:href="#DejaVuSans-69" x="431.054688"/>
      <use xlink:href="#DejaVuSans-6f" x="458.837891"/>
      <use xlink:href="#DejaVuSans-6e" x="520.019531"/>
     </g>
    </g>
    <g id="line2d_51">
     <path d="M 451.017 51.918312 
L 461.017 51.918312 
L 471.017 51.918312 
" style="fill: none; stroke: #4ac1fa; stroke-width: 1.5; stroke-linecap: square"/>
    </g>
    <g id="text_25">
     <!-- AlmaLinux -->
     <g transform="translate(479.017 55.418312)scale(0.1 -0.1)">
      <defs>
       <path id="DejaVuSans-6c" d="M 603 4863 
L 1178 4863 
L 1178 0 
L 603 0 
L 603 4863 
z
" transform="scale(0.015625)"/>
      </defs>
      <use xlink:href="#DejaVuSans-41"/>
      <use xlink:href="#DejaVuSans-6c" x="68.408203"/>
      <use xlink:href="#DejaVuSans-6d" x="96.191406"/>
      <use xlink:href="#DejaVuSans-61" x="193.603516"/>
      <use xlink:href="#DejaVuSans-4c" x="254.882812"/>
      <use xlink:href="#DejaVuSans-69" x="310.595703"/>
      <use xlink:href="#DejaVuSans-6e" x="338.378906"/>
      <use xlink:href="#DejaVuSans-75" x="401.757812"/>
      <use xlink:href="#DejaVuSans-78" x="465.136719"/>
     </g>
    </g>
    <g id="line2d_52">
     <path d="M 451.017 66.596437 
L 461.017 66.596437 
L 471.017 66.596437 
" style="fill: none; stroke: #e9a942; stroke-width: 1.5; stroke-linecap: square"/>
    </g>
    <g id="text_26">
     <!-- CentOS Legacy -->
     <g transform="translate(479.017 70.096437)scale(0.1 -0.1)">
      <defs>
       <path id="DejaVuSans-4f" d="M 2522 4238 
Q 1834 4238 1429 3725 
Q 1025 3213 1025 2328 
Q 1025 1447 1429 934 
Q 1834 422 2522 422 
Q 3209 422 3611 934 
Q 4013 1447 4013 2328 
Q 4013 3213 3611 3725 
Q 3209 4238 2522 4238 
z
M 2522 4750 
Q 3503 4750 4090 4092 
Q 4678 3434 4678 2328 
Q 4678 1225 4090 567 
Q 3503 -91 2522 -91 
Q 1538 -91 948 565 
Q 359 1222 359 2328 
Q 359 3434 948 4092 
Q 1538 4750 2522 4750 
z
" transform="scale(0.015625)"/>
      </defs>
      <use xlink:href="#DejaVuSans-43"/>
      <use xlink:href="#DejaVuSans-65" x="69.824219"/>
      <use xlink:href="#DejaVuSans-6e" x="131.347656"/>
      <use xlink:href="#DejaVuSans-74" x="194.726562"/>
      <use xlink:href="#DejaVuSans-4f" x="233.935547"/>
      <use xlink:href="#DejaVuSans-53" x="312.646484"/>
      <use xlink:href="#DejaVuSans-20" x="376.123047"/>
      <use xlink:href="#DejaVuSans-4c" x="407.910156"/>
      <use xlink:href="#DejaVuSans-65" x="461.873047"/>
      <use xlink:href="#DejaVuSans-67" x="523.396484"/>
      <use xlink:href="#DejaVuSans-61" x="586.873047"/>
      <use xlink:href="#DejaVuSans-63" x="648.152344"/>
      <use xlink:href="#DejaVuSans-79" x="703.132812"/>
     </g>
    </g>
    <g id="line2d_53">
     <path d="M 451.017 81.274563 
L 461.017 81.274563 
L 471.017 81.274563 
" style="fill: none; stroke: #9a5689; stroke-width: 1.5; stroke-linecap: square"/>
    </g>
    <g id="text_27">
     <!-- CentOS Stream -->
     <g transform="translate(479.017 84.774563)scale(0.1 -0.1)">
      <use xlink:href="#DejaVuSans-43"/>
      <use xlink:href="#DejaVuSans-65" x="69.824219"/>
      <use xlink:href="#DejaVuSans-6e" x="131.347656"/>
      <use xlink:href="#DejaVuSans-74" x="194.726562"/>
      <use xlink:href="#DejaVuSans-4f" x="233.935547"/>
      <use xlink:href="#DejaVuSans-53" x="312.646484"/>
      <use xlink:href="#DejaVuSans-20" x="376.123047"/>
      <use xlink:href="#DejaVuSans-53" x="407.910156"/>
      <use xlink:href="#DejaVuSans-74" x="471.386719"/>
      <use xlink:href="#DejaVuSans-72" x="510.595703"/>
      <use xlink:href="#DejaVuSans-65" x="549.458984"/>
      <use xlink:href="#DejaVuSans-61" x="610.982422"/>
      <use xlink:href="#DejaVuSans-6d" x="672.261719"/>
     </g>
    </g>
    <g id="line2d_54">
     <path d="M 451.017 95.952687 
L 461.017 95.952687 
L 471.017 95.952687 
" style="fill: none; stroke: #be503b; stroke-width: 1.5; stroke-linecap: square"/>
    </g>
    <g id="text_28">
     <!-- Oracle -->
     <g transform="translate(479.017 99.452687)scale(0.1 -0.1)">
      <use xlink:href="#DejaVuSans-4f"/>
      <use xlink:href="#DejaVuSans-72" x="78.710938"/>
      <use xlink:href="#DejaVuSans-61" x="119.824219"/>
      <use xlink:href="#DejaVuSans-63" x="181.103516"/>
      <use xlink:href="#DejaVuSans-6c" x="236.083984"/>
      <use xlink:href="#DejaVuSans-65" x="263.867188"/>
     </g>
    </g>
    <g id="line2d_55">
     <path d="M 451.017 110.630812 
L 461.017 110.630812 
L 471.017 110.630812 
" style="fill: none; stroke: #e2321d; stroke-width: 1.5; stroke-linecap: square"/>
    </g>
    <g id="text_29">
     <!-- RHEL -->
     <g transform="translate(479.017 114.130812)scale(0.1 -0.1)">
      <defs>
       <path id="DejaVuSans-52" d="M 2841 2188 
Q 3044 2119 3236 1894 
Q 3428 1669 3622 1275 
L 4263 0 
L 3584 0 
L 2988 1197 
Q 2756 1666 2539 1819 
Q 2322 1972 1947 1972 
L 1259 1972 
L 1259 0 
L 628 0 
L 628 4666 
L 2053 4666 
Q 2853 4666 3247 4331 
Q 3641 3997 3641 3322 
Q 3641 2881 3436 2590 
Q 3231 2300 2841 2188 
z
M 1259 4147 
L 1259 2491 
L 2053 2491 
Q 2509 2491 2742 2702 
Q 2975 2913 2975 3322 
Q 2975 3731 2742 3939 
Q 2509 4147 2053 4147 
L 1259 4147 
z
" transform="scale(0.015625)"/>
       <path id="DejaVuSans-48" d="M 628 4666 
L 1259 4666 
L 1259 2753 
L 3553 2753 
L 3553 4666 
L 4184 4666 
L 4184 0 
L 3553 0 
L 3553 2222 
L 1259 2222 
L 1259 0 
L 628 0 
L 628 4666 
z
" transform="scale(0.015625)"/>
      </defs>
      <use xlink:href="#DejaVuSans-52"/>
      <use xlink:href="#DejaVuSans-48" x="69.482422"/>
      <use xlink:href="#DejaVuSans-45" x="144.677734"/>
      <use xlink:href="#DejaVuSans-4c" x="207.861328"/>
     </g>
    </g>
    <g id="line2d_56">
     <path d="M 451.017 125.308937 
L 461.017 125.308937 
L 471.017 125.308937 
" style="fill: none; stroke: #48b585; stroke-width: 6; stroke-linecap: square"/>
    </g>
    <g id="text_30">
     <!-- Rocky Linux -->
     <g transform="translate(479.017 128.808937)scale(0.1 -0.1)">
      <use xlink:href="#DejaVuSans-52"/>
      <use xlink:href="#DejaVuSans-6f" x="64.982422"/>
      <use xlink:href="#DejaVuSans-63" x="126.164062"/>
      <use xlink:href="#DejaVuSans-6b" x="181.144531"/>
      <use xlink:href="#DejaVuSans-79" x="235.429688"/>
      <use xlink:href="#DejaVuSans-20" x="294.609375"/>
      <use xlink:href="#DejaVuSans-4c" x="326.396484"/>
      <use xlink:href="#DejaVuSans-69" x="382.109375"/>
      <use xlink:href="#DejaVuSans-6e" x="409.892578"/>
      <use xlink:href="#DejaVuSans-75" x="473.271484"/>
      <use xlink:href="#DejaVuSans-78" x="536.650391"/>
     </g>
    </g>
   </g>
  </g>
 </g>
 <defs>
  <clipPath id="p0ba4b246f8">
   <rect x="52.079375" y="24.14175" width="902.844" height="543.6"/>
  </clipPath>
 </defs>
</svg>
