<?xml version="1.0" encoding="utf-8" standalone="no"?>
<!DOCTYPE svg PUBLIC "-//W3C//DTD SVG 1.1//EN"
  "http://www.w3.org/Graphics/SVG/1.1/DTD/svg11.dtd">
<svg xmlns:xlink="http://www.w3.org/1999/xlink" width="964.735875pt" height="644.743878pt" viewBox="0 0 964.735875 644.743878" xmlns="http://www.w3.org/2000/svg" version="1.1">
 <metadata>
  <rdf:RDF xmlns:dc="http://purl.org/dc/elements/1.1/" xmlns:cc="http://creativecommons.org/ns#" xmlns:rdf="http://www.w3.org/1999/02/22-rdf-syntax-ns#">
   <cc:Work>
    <dc:type rdf:resource="http://purl.org/dc/dcmitype/StillImage"/>
    <dc:date>2024-12-19T15:59:02.331513</dc:date>
    <dc:format>image/svg+xml</dc:format>
    <dc:creator>
     <cc:Agent>
      <dc:title>Matplotlib v3.6.3, https://matplotlib.org/</dc:title>
     </cc:Agent>
    </dc:creator>
   </cc:Work>
  </rdf:RDF>
 </metadata>
 <defs>
  <style type="text/css">*{stroke-linejoin: round; stroke-linecap: butt}</style>
 </defs>
 <g id="figure_1">
  <g id="patch_1">
   <path d="M 0 644.743878 
L 964.735875 644.743878 
L 964.735875 0 
L 0 0 
z
" style="fill: #ffffff"/>
  </g>
  <g id="axes_1">
   <g id="patch_2">
    <path d="M 54.691875 578.54175 
L 957.535875 578.54175 
L 957.535875 24.14175 
L 54.691875 24.14175 
z
" style="fill: #e5e5e5"/>
   </g>
   <g id="matplotlib.axis_1">
    <g id="xtick_1">
     <g id="line2d_1">
      <path d="M 79.981623 578.54175 
L 79.981623 24.14175 
" clip-path="url(#p9e0581ce89)" style="fill: none; stroke: #ffffff; stroke-width: 0.8; stroke-linecap: square"/>
     </g>
     <g id="line2d_2">
      <defs>
       <path id="m934e9f05f5" d="M 0 0 
L 0 3.5 
" style="stroke: #555555; stroke-width: 0.8"/>
      </defs>
      <g>
       <use xlink:href="#m934e9f05f5" x="79.981623" y="578.54175" style="fill: #555555; stroke: #555555; stroke-width: 0.8"/>
      </g>
     </g>
     <g id="text_1">
      <!-- 2024-01 -->
      <g style="fill: #555555" transform="translate(67.160341 620.459567) rotate(-45) scale(0.1 -0.1)">
       <defs>
        <path id="DejaVuSans-32" d="M 1228 531 
L 3431 531 
L 3431 0 
L 469 0 
L 469 531 
Q 828 903 1448 1529 
Q 2069 2156 2228 2338 
Q 2531 2678 2651 2914 
Q 2772 3150 2772 3378 
Q 2772 3750 2511 3984 
Q 2250 4219 1831 4219 
Q 1534 4219 1204 4116 
Q 875 4013 500 3803 
L 500 4441 
Q 881 4594 1212 4672 
Q 1544 4750 1819 4750 
Q 2544 4750 2975 4387 
Q 3406 4025 3406 3419 
Q 3406 3131 3298 2873 
Q 3191 2616 2906 2266 
Q 2828 2175 2409 1742 
Q 1991 1309 1228 531 
z
" transform="scale(0.015625)"/>
        <path id="DejaVuSans-30" d="M 2034 4250 
Q 1547 4250 1301 3770 
Q 1056 3291 1056 2328 
Q 1056 1369 1301 889 
Q 1547 409 2034 409 
Q 2525 409 2770 889 
Q 3016 1369 3016 2328 
Q 3016 3291 2770 3770 
Q 2525 4250 2034 4250 
z
M 2034 4750 
Q 2819 4750 3233 4129 
Q 3647 3509 3647 2328 
Q 3647 1150 3233 529 
Q 2819 -91 2034 -91 
Q 1250 -91 836 529 
Q 422 1150 422 2328 
Q 422 3509 836 4129 
Q 1250 4750 2034 4750 
z
" transform="scale(0.015625)"/>
        <path id="DejaVuSans-34" d="M 2419 4116 
L 825 1625 
L 2419 1625 
L 2419 4116 
z
M 2253 4666 
L 3047 4666 
L 3047 1625 
L 3713 1625 
L 3713 1100 
L 3047 1100 
L 3047 0 
L 2419 0 
L 2419 1100 
L 313 1100 
L 313 1709 
L 2253 4666 
z
" transform="scale(0.015625)"/>
        <path id="DejaVuSans-2d" d="M 313 2009 
L 1997 2009 
L 1997 1497 
L 313 1497 
L 313 2009 
z
" transform="scale(0.015625)"/>
        <path id="DejaVuSans-31" d="M 794 531 
L 1825 531 
L 1825 4091 
L 703 3866 
L 703 4441 
L 1819 4666 
L 2450 4666 
L 2450 531 
L 3481 531 
L 3481 0 
L 794 0 
L 794 531 
z
" transform="scale(0.015625)"/>
       </defs>
       <use xlink:href="#DejaVuSans-32"/>
       <use xlink:href="#DejaVuSans-30" x="63.623047"/>
       <use xlink:href="#DejaVuSans-32" x="127.246094"/>
       <use xlink:href="#DejaVuSans-34" x="190.869141"/>
       <use xlink:href="#DejaVuSans-2d" x="254.492188"/>
       <use xlink:href="#DejaVuSans-30" x="290.576172"/>
       <use xlink:href="#DejaVuSans-31" x="354.199219"/>
      </g>
     </g>
    </g>
    <g id="xtick_2">
     <g id="line2d_3">
      <path d="M 158.379841 578.54175 
L 158.379841 24.14175 
" clip-path="url(#p9e0581ce89)" style="fill: none; stroke: #ffffff; stroke-width: 0.8; stroke-linecap: square"/>
     </g>
     <g id="line2d_4">
      <g>
       <use xlink:href="#m934e9f05f5" x="158.379841" y="578.54175" style="fill: #555555; stroke: #555555; stroke-width: 0.8"/>
      </g>
     </g>
     <g id="text_2">
      <!-- 2024-02 -->
      <g style="fill: #555555" transform="translate(145.558559 620.459567) rotate(-45) scale(0.1 -0.1)">
       <use xlink:href="#DejaVuSans-32"/>
       <use xlink:href="#DejaVuSans-30" x="63.623047"/>
       <use xlink:href="#DejaVuSans-32" x="127.246094"/>
       <use xlink:href="#DejaVuSans-34" x="190.869141"/>
       <use xlink:href="#DejaVuSans-2d" x="254.492188"/>
       <use xlink:href="#DejaVuSans-30" x="290.576172"/>
       <use xlink:href="#DejaVuSans-32" x="354.199219"/>
      </g>
     </g>
    </g>
    <g id="xtick_3">
     <g id="line2d_5">
      <path d="M 231.72011 578.54175 
L 231.72011 24.14175 
" clip-path="url(#p9e0581ce89)" style="fill: none; stroke: #ffffff; stroke-width: 0.8; stroke-linecap: square"/>
     </g>
     <g id="line2d_6">
      <g>
       <use xlink:href="#m934e9f05f5" x="231.72011" y="578.54175" style="fill: #555555; stroke: #555555; stroke-width: 0.8"/>
      </g>
     </g>
     <g id="text_3">
      <!-- 2024-03 -->
      <g style="fill: #555555" transform="translate(218.898828 620.459567) rotate(-45) scale(0.1 -0.1)">
       <defs>
        <path id="DejaVuSans-33" d="M 2597 2516 
Q 3050 2419 3304 2112 
Q 3559 1806 3559 1356 
Q 3559 666 3084 287 
Q 2609 -91 1734 -91 
Q 1441 -91 1130 -33 
Q 819 25 488 141 
L 488 750 
Q 750 597 1062 519 
Q 1375 441 1716 441 
Q 2309 441 2620 675 
Q 2931 909 2931 1356 
Q 2931 1769 2642 2001 
Q 2353 2234 1838 2234 
L 1294 2234 
L 1294 2753 
L 1863 2753 
Q 2328 2753 2575 2939 
Q 2822 3125 2822 3475 
Q 2822 3834 2567 4026 
Q 2313 4219 1838 4219 
Q 1578 4219 1281 4162 
Q 984 4106 628 3988 
L 628 4550 
Q 988 4650 1302 4700 
Q 1616 4750 1894 4750 
Q 2613 4750 3031 4423 
Q 3450 4097 3450 3541 
Q 3450 3153 3228 2886 
Q 3006 2619 2597 2516 
z
" transform="scale(0.015625)"/>
       </defs>
       <use xlink:href="#DejaVuSans-32"/>
       <use xlink:href="#DejaVuSans-30" x="63.623047"/>
       <use xlink:href="#DejaVuSans-32" x="127.246094"/>
       <use xlink:href="#DejaVuSans-34" x="190.869141"/>
       <use xlink:href="#DejaVuSans-2d" x="254.492188"/>
       <use xlink:href="#DejaVuSans-30" x="290.576172"/>
       <use xlink:href="#DejaVuSans-33" x="354.199219"/>
      </g>
     </g>
    </g>
    <g id="xtick_4">
     <g id="line2d_7">
      <path d="M 310.118329 578.54175 
L 310.118329 24.14175 
" clip-path="url(#p9e0581ce89)" style="fill: none; stroke: #ffffff; stroke-width: 0.8; stroke-linecap: square"/>
     </g>
     <g id="line2d_8">
      <g>
       <use xlink:href="#m934e9f05f5" x="310.118329" y="578.54175" style="fill: #555555; stroke: #555555; stroke-width: 0.8"/>
      </g>
     </g>
     <g id="text_4">
      <!-- 2024-04 -->
      <g style="fill: #555555" transform="translate(297.297047 620.459567) rotate(-45) scale(0.1 -0.1)">
       <use xlink:href="#DejaVuSans-32"/>
       <use xlink:href="#DejaVuSans-30" x="63.623047"/>
       <use xlink:href="#DejaVuSans-32" x="127.246094"/>
       <use xlink:href="#DejaVuSans-34" x="190.869141"/>
       <use xlink:href="#DejaVuSans-2d" x="254.492188"/>
       <use xlink:href="#DejaVuSans-30" x="290.576172"/>
       <use xlink:href="#DejaVuSans-34" x="354.199219"/>
      </g>
     </g>
    </g>
    <g id="xtick_5">
     <g id="line2d_9">
      <path d="M 385.987572 578.54175 
L 385.987572 24.14175 
" clip-path="url(#p9e0581ce89)" style="fill: none; stroke: #ffffff; stroke-width: 0.8; stroke-linecap: square"/>
     </g>
     <g id="line2d_10">
      <g>
       <use xlink:href="#m934e9f05f5" x="385.987572" y="578.54175" style="fill: #555555; stroke: #555555; stroke-width: 0.8"/>
      </g>
     </g>
     <g id="text_5">
      <!-- 2024-05 -->
      <g style="fill: #555555" transform="translate(373.16629 620.459567) rotate(-45) scale(0.1 -0.1)">
       <defs>
        <path id="DejaVuSans-35" d="M 691 4666 
L 3169 4666 
L 3169 4134 
L 1269 4134 
L 1269 2991 
Q 1406 3038 1543 3061 
Q 1681 3084 1819 3084 
Q 2600 3084 3056 2656 
Q 3513 2228 3513 1497 
Q 3513 744 3044 326 
Q 2575 -91 1722 -91 
Q 1428 -91 1123 -41 
Q 819 9 494 109 
L 494 744 
Q 775 591 1075 516 
Q 1375 441 1709 441 
Q 2250 441 2565 725 
Q 2881 1009 2881 1497 
Q 2881 1984 2565 2268 
Q 2250 2553 1709 2553 
Q 1456 2553 1204 2497 
Q 953 2441 691 2322 
L 691 4666 
z
" transform="scale(0.015625)"/>
       </defs>
       <use xlink:href="#DejaVuSans-32"/>
       <use xlink:href="#DejaVuSans-30" x="63.623047"/>
       <use xlink:href="#DejaVuSans-32" x="127.246094"/>
       <use xlink:href="#DejaVuSans-34" x="190.869141"/>
       <use xlink:href="#DejaVuSans-2d" x="254.492188"/>
       <use xlink:href="#DejaVuSans-30" x="290.576172"/>
       <use xlink:href="#DejaVuSans-35" x="354.199219"/>
      </g>
     </g>
    </g>
    <g id="xtick_6">
     <g id="line2d_11">
      <path d="M 464.385791 578.54175 
L 464.385791 24.14175 
" clip-path="url(#p9e0581ce89)" style="fill: none; stroke: #ffffff; stroke-width: 0.8; stroke-linecap: square"/>
     </g>
     <g id="line2d_12">
      <g>
       <use xlink:href="#m934e9f05f5" x="464.385791" y="578.54175" style="fill: #555555; stroke: #555555; stroke-width: 0.8"/>
      </g>
     </g>
     <g id="text_6">
      <!-- 2024-06 -->
      <g style="fill: #555555" transform="translate(451.564509 620.459567) rotate(-45) scale(0.1 -0.1)">
       <defs>
        <path id="DejaVuSans-36" d="M 2113 2584 
Q 1688 2584 1439 2293 
Q 1191 2003 1191 1497 
Q 1191 994 1439 701 
Q 1688 409 2113 409 
Q 2538 409 2786 701 
Q 3034 994 3034 1497 
Q 3034 2003 2786 2293 
Q 2538 2584 2113 2584 
z
M 3366 4563 
L 3366 3988 
Q 3128 4100 2886 4159 
Q 2644 4219 2406 4219 
Q 1781 4219 1451 3797 
Q 1122 3375 1075 2522 
Q 1259 2794 1537 2939 
Q 1816 3084 2150 3084 
Q 2853 3084 3261 2657 
Q 3669 2231 3669 1497 
Q 3669 778 3244 343 
Q 2819 -91 2113 -91 
Q 1303 -91 875 529 
Q 447 1150 447 2328 
Q 447 3434 972 4092 
Q 1497 4750 2381 4750 
Q 2619 4750 2861 4703 
Q 3103 4656 3366 4563 
z
" transform="scale(0.015625)"/>
       </defs>
       <use xlink:href="#DejaVuSans-32"/>
       <use xlink:href="#DejaVuSans-30" x="63.623047"/>
       <use xlink:href="#DejaVuSans-32" x="127.246094"/>
       <use xlink:href="#DejaVuSans-34" x="190.869141"/>
       <use xlink:href="#DejaVuSans-2d" x="254.492188"/>
       <use xlink:href="#DejaVuSans-30" x="290.576172"/>
       <use xlink:href="#DejaVuSans-36" x="354.199219"/>
      </g>
     </g>
    </g>
    <g id="xtick_7">
     <g id="line2d_13">
      <path d="M 540.255035 578.54175 
L 540.255035 24.14175 
" clip-path="url(#p9e0581ce89)" style="fill: none; stroke: #ffffff; stroke-width: 0.8; stroke-linecap: square"/>
     </g>
     <g id="line2d_14">
      <g>
       <use xlink:href="#m934e9f05f5" x="540.255035" y="578.54175" style="fill: #555555; stroke: #555555; stroke-width: 0.8"/>
      </g>
     </g>
     <g id="text_7">
      <!-- 2024-07 -->
      <g style="fill: #555555" transform="translate(527.433752 620.459567) rotate(-45) scale(0.1 -0.1)">
       <defs>
        <path id="DejaVuSans-37" d="M 525 4666 
L 3525 4666 
L 3525 4397 
L 1831 0 
L 1172 0 
L 2766 4134 
L 525 4134 
L 525 4666 
z
" transform="scale(0.015625)"/>
       </defs>
       <use xlink:href="#DejaVuSans-32"/>
       <use xlink:href="#DejaVuSans-30" x="63.623047"/>
       <use xlink:href="#DejaVuSans-32" x="127.246094"/>
       <use xlink:href="#DejaVuSans-34" x="190.869141"/>
       <use xlink:href="#DejaVuSans-2d" x="254.492188"/>
       <use xlink:href="#DejaVuSans-30" x="290.576172"/>
       <use xlink:href="#DejaVuSans-37" x="354.199219"/>
      </g>
     </g>
    </g>
    <g id="xtick_8">
     <g id="line2d_15">
      <path d="M 618.653253 578.54175 
L 618.653253 24.14175 
" clip-path="url(#p9e0581ce89)" style="fill: none; stroke: #ffffff; stroke-width: 0.8; stroke-linecap: square"/>
     </g>
     <g id="line2d_16">
      <g>
       <use xlink:href="#m934e9f05f5" x="618.653253" y="578.54175" style="fill: #555555; stroke: #555555; stroke-width: 0.8"/>
      </g>
     </g>
     <g id="text_8">
      <!-- 2024-08 -->
      <g style="fill: #555555" transform="translate(605.831971 620.459567) rotate(-45) scale(0.1 -0.1)">
       <defs>
        <path id="DejaVuSans-38" d="M 2034 2216 
Q 1584 2216 1326 1975 
Q 1069 1734 1069 1313 
Q 1069 891 1326 650 
Q 1584 409 2034 409 
Q 2484 409 2743 651 
Q 3003 894 3003 1313 
Q 3003 1734 2745 1975 
Q 2488 2216 2034 2216 
z
M 1403 2484 
Q 997 2584 770 2862 
Q 544 3141 544 3541 
Q 544 4100 942 4425 
Q 1341 4750 2034 4750 
Q 2731 4750 3128 4425 
Q 3525 4100 3525 3541 
Q 3525 3141 3298 2862 
Q 3072 2584 2669 2484 
Q 3125 2378 3379 2068 
Q 3634 1759 3634 1313 
Q 3634 634 3220 271 
Q 2806 -91 2034 -91 
Q 1263 -91 848 271 
Q 434 634 434 1313 
Q 434 1759 690 2068 
Q 947 2378 1403 2484 
z
M 1172 3481 
Q 1172 3119 1398 2916 
Q 1625 2713 2034 2713 
Q 2441 2713 2670 2916 
Q 2900 3119 2900 3481 
Q 2900 3844 2670 4047 
Q 2441 4250 2034 4250 
Q 1625 4250 1398 4047 
Q 1172 3844 1172 3481 
z
" transform="scale(0.015625)"/>
       </defs>
       <use xlink:href="#DejaVuSans-32"/>
       <use xlink:href="#DejaVuSans-30" x="63.623047"/>
       <use xlink:href="#DejaVuSans-32" x="127.246094"/>
       <use xlink:href="#DejaVuSans-34" x="190.869141"/>
       <use xlink:href="#DejaVuSans-2d" x="254.492188"/>
       <use xlink:href="#DejaVuSans-30" x="290.576172"/>
       <use xlink:href="#DejaVuSans-38" x="354.199219"/>
      </g>
     </g>
    </g>
    <g id="xtick_9">
     <g id="line2d_17">
      <path d="M 697.051472 578.54175 
L 697.051472 24.14175 
" clip-path="url(#p9e0581ce89)" style="fill: none; stroke: #ffffff; stroke-width: 0.8; stroke-linecap: square"/>
     </g>
     <g id="line2d_18">
      <g>
       <use xlink:href="#m934e9f05f5" x="697.051472" y="578.54175" style="fill: #555555; stroke: #555555; stroke-width: 0.8"/>
      </g>
     </g>
     <g id="text_9">
      <!-- 2024-09 -->
      <g style="fill: #555555" transform="translate(684.230189 620.459567) rotate(-45) scale(0.1 -0.1)">
       <defs>
        <path id="DejaVuSans-39" d="M 703 97 
L 703 672 
Q 941 559 1184 500 
Q 1428 441 1663 441 
Q 2288 441 2617 861 
Q 2947 1281 2994 2138 
Q 2813 1869 2534 1725 
Q 2256 1581 1919 1581 
Q 1219 1581 811 2004 
Q 403 2428 403 3163 
Q 403 3881 828 4315 
Q 1253 4750 1959 4750 
Q 2769 4750 3195 4129 
Q 3622 3509 3622 2328 
Q 3622 1225 3098 567 
Q 2575 -91 1691 -91 
Q 1453 -91 1209 -44 
Q 966 3 703 97 
z
M 1959 2075 
Q 2384 2075 2632 2365 
Q 2881 2656 2881 3163 
Q 2881 3666 2632 3958 
Q 2384 4250 1959 4250 
Q 1534 4250 1286 3958 
Q 1038 3666 1038 3163 
Q 1038 2656 1286 2365 
Q 1534 2075 1959 2075 
z
" transform="scale(0.015625)"/>
       </defs>
       <use xlink:href="#DejaVuSans-32"/>
       <use xlink:href="#DejaVuSans-30" x="63.623047"/>
       <use xlink:href="#DejaVuSans-32" x="127.246094"/>
       <use xlink:href="#DejaVuSans-34" x="190.869141"/>
       <use xlink:href="#DejaVuSans-2d" x="254.492188"/>
       <use xlink:href="#DejaVuSans-30" x="290.576172"/>
       <use xlink:href="#DejaVuSans-39" x="354.199219"/>
      </g>
     </g>
    </g>
    <g id="xtick_10">
     <g id="line2d_19">
      <path d="M 772.920715 578.54175 
L 772.920715 24.14175 
" clip-path="url(#p9e0581ce89)" style="fill: none; stroke: #ffffff; stroke-width: 0.8; stroke-linecap: square"/>
     </g>
     <g id="line2d_20">
      <g>
       <use xlink:href="#m934e9f05f5" x="772.920715" y="578.54175" style="fill: #555555; stroke: #555555; stroke-width: 0.8"/>
      </g>
     </g>
     <g id="text_10">
      <!-- 2024-10 -->
      <g style="fill: #555555" transform="translate(760.099433 620.459567) rotate(-45) scale(0.1 -0.1)">
       <use xlink:href="#DejaVuSans-32"/>
       <use xlink:href="#DejaVuSans-30" x="63.623047"/>
       <use xlink:href="#DejaVuSans-32" x="127.246094"/>
       <use xlink:href="#DejaVuSans-34" x="190.869141"/>
       <use xlink:href="#DejaVuSans-2d" x="254.492188"/>
       <use xlink:href="#DejaVuSans-31" x="290.576172"/>
       <use xlink:href="#DejaVuSans-30" x="354.199219"/>
      </g>
     </g>
    </g>
    <g id="xtick_11">
     <g id="line2d_21">
      <path d="M 851.318934 578.54175 
L 851.318934 24.14175 
" clip-path="url(#p9e0581ce89)" style="fill: none; stroke: #ffffff; stroke-width: 0.8; stroke-linecap: square"/>
     </g>
     <g id="line2d_22">
      <g>
       <use xlink:href="#m934e9f05f5" x="851.318934" y="578.54175" style="fill: #555555; stroke: #555555; stroke-width: 0.8"/>
      </g>
     </g>
     <g id="text_11">
      <!-- 2024-11 -->
      <g style="fill: #555555" transform="translate(838.497652 620.459567) rotate(-45) scale(0.1 -0.1)">
       <use xlink:href="#DejaVuSans-32"/>
       <use xlink:href="#DejaVuSans-30" x="63.623047"/>
       <use xlink:href="#DejaVuSans-32" x="127.246094"/>
       <use xlink:href="#DejaVuSans-34" x="190.869141"/>
       <use xlink:href="#DejaVuSans-2d" x="254.492188"/>
       <use xlink:href="#DejaVuSans-31" x="290.576172"/>
       <use xlink:href="#DejaVuSans-31" x="354.199219"/>
      </g>
     </g>
    </g>
    <g id="xtick_12">
     <g id="line2d_23">
      <path d="M 927.188178 578.54175 
L 927.188178 24.14175 
" clip-path="url(#p9e0581ce89)" style="fill: none; stroke: #ffffff; stroke-width: 0.8; stroke-linecap: square"/>
     </g>
     <g id="line2d_24">
      <g>
       <use xlink:href="#m934e9f05f5" x="927.188178" y="578.54175" style="fill: #555555; stroke: #555555; stroke-width: 0.8"/>
      </g>
     </g>
     <g id="text_12">
      <!-- 2024-12 -->
      <g style="fill: #555555" transform="translate(914.366895 620.459567) rotate(-45) scale(0.1 -0.1)">
       <use xlink:href="#DejaVuSans-32"/>
       <use xlink:href="#DejaVuSans-30" x="63.623047"/>
       <use xlink:href="#DejaVuSans-32" x="127.246094"/>
       <use xlink:href="#DejaVuSans-34" x="190.869141"/>
       <use xlink:href="#DejaVuSans-2d" x="254.492188"/>
       <use xlink:href="#DejaVuSans-31" x="290.576172"/>
       <use xlink:href="#DejaVuSans-32" x="354.199219"/>
      </g>
     </g>
    </g>
    <g id="text_13">
     <!-- Date -->
     <g style="fill: #555555" transform="translate(491.772938 635.048253) scale(0.12 -0.12)">
      <defs>
       <path id="DejaVuSans-44" d="M 1259 4147 
L 1259 519 
L 2022 519 
Q 2988 519 3436 956 
Q 3884 1394 3884 2338 
Q 3884 3275 3436 3711 
Q 2988 4147 2022 4147 
L 1259 4147 
z
M 628 4666 
L 1925 4666 
Q 3281 4666 3915 4102 
Q 4550 3538 4550 2338 
Q 4550 1131 3912 565 
Q 3275 0 1925 0 
L 628 0 
L 628 4666 
z
" transform="scale(0.015625)"/>
       <path id="DejaVuSans-61" d="M 2194 1759 
Q 1497 1759 1228 1600 
Q 959 1441 959 1056 
Q 959 750 1161 570 
Q 1363 391 1709 391 
Q 2188 391 2477 730 
Q 2766 1069 2766 1631 
L 2766 1759 
L 2194 1759 
z
M 3341 1997 
L 3341 0 
L 2766 0 
L 2766 531 
Q 2569 213 2275 61 
Q 1981 -91 1556 -91 
Q 1019 -91 701 211 
Q 384 513 384 1019 
Q 384 1609 779 1909 
Q 1175 2209 1959 2209 
L 2766 2209 
L 2766 2266 
Q 2766 2663 2505 2880 
Q 2244 3097 1772 3097 
Q 1472 3097 1187 3025 
Q 903 2953 641 2809 
L 641 3341 
Q 956 3463 1253 3523 
Q 1550 3584 1831 3584 
Q 2591 3584 2966 3190 
Q 3341 2797 3341 1997 
z
" transform="scale(0.015625)"/>
       <path id="DejaVuSans-74" d="M 1172 4494 
L 1172 3500 
L 2356 3500 
L 2356 3053 
L 1172 3053 
L 1172 1153 
Q 1172 725 1289 603 
Q 1406 481 1766 481 
L 2356 481 
L 2356 0 
L 1766 0 
Q 1100 0 847 248 
Q 594 497 594 1153 
L 594 3053 
L 172 3053 
L 172 3500 
L 594 3500 
L 594 4494 
L 1172 4494 
z
" transform="scale(0.015625)"/>
       <path id="DejaVuSans-65" d="M 3597 1894 
L 3597 1613 
L 953 1613 
Q 991 1019 1311 708 
Q 1631 397 2203 397 
Q 2534 397 2845 478 
Q 3156 559 3463 722 
L 3463 178 
Q 3153 47 2828 -22 
Q 2503 -91 2169 -91 
Q 1331 -91 842 396 
Q 353 884 353 1716 
Q 353 2575 817 3079 
Q 1281 3584 2069 3584 
Q 2775 3584 3186 3129 
Q 3597 2675 3597 1894 
z
M 3022 2063 
Q 3016 2534 2758 2815 
Q 2500 3097 2075 3097 
Q 1594 3097 1305 2825 
Q 1016 2553 972 2059 
L 3022 2063 
z
" transform="scale(0.015625)"/>
      </defs>
      <use xlink:href="#DejaVuSans-44"/>
      <use xlink:href="#DejaVuSans-61" x="77.001953"/>
      <use xlink:href="#DejaVuSans-74" x="138.28125"/>
      <use xlink:href="#DejaVuSans-65" x="177.490234"/>
     </g>
    </g>
   </g>
   <g id="matplotlib.axis_2">
    <g id="ytick_1">
     <g id="line2d_25">
      <path d="M 54.691875 578.54175 
L 957.535875 578.54175 
" clip-path="url(#p9e0581ce89)" style="fill: none; stroke: #ffffff; stroke-width: 0.8; stroke-linecap: square"/>
     </g>
     <g id="line2d_26">
      <defs>
       <path id="m10d61af814" d="M 0 0 
L -3.5 0 
" style="stroke: #555555; stroke-width: 0.8"/>
      </defs>
      <g>
       <use xlink:href="#m10d61af814" x="54.691875" y="578.54175" style="fill: #555555; stroke: #555555; stroke-width: 0.8"/>
      </g>
     </g>
     <g id="text_14">
      <!-- 0k -->
      <g style="fill: #555555" transform="translate(35.53875 582.340969) scale(0.1 -0.1)">
       <defs>
        <path id="DejaVuSans-6b" d="M 581 4863 
L 1159 4863 
L 1159 1991 
L 2875 3500 
L 3609 3500 
L 1753 1863 
L 3688 0 
L 2938 0 
L 1159 1709 
L 1159 0 
L 581 0 
L 581 4863 
z
" transform="scale(0.015625)"/>
       </defs>
       <use xlink:href="#DejaVuSans-30"/>
       <use xlink:href="#DejaVuSans-6b" x="63.623047"/>
      </g>
     </g>
    </g>
    <g id="ytick_2">
     <g id="line2d_27">
      <path d="M 54.691875 475.983264 
L 957.535875 475.983264 
" clip-path="url(#p9e0581ce89)" style="fill: none; stroke: #ffffff; stroke-width: 0.8; stroke-linecap: square"/>
     </g>
     <g id="line2d_28">
      <g>
       <use xlink:href="#m10d61af814" x="54.691875" y="475.983264" style="fill: #555555; stroke: #555555; stroke-width: 0.8"/>
      </g>
     </g>
     <g id="text_15">
      <!-- 100k -->
      <g style="fill: #555555" transform="translate(22.81375 479.782482) scale(0.1 -0.1)">
       <use xlink:href="#DejaVuSans-31"/>
       <use xlink:href="#DejaVuSans-30" x="63.623047"/>
       <use xlink:href="#DejaVuSans-30" x="127.246094"/>
       <use xlink:href="#DejaVuSans-6b" x="190.869141"/>
      </g>
     </g>
    </g>
    <g id="ytick_3">
     <g id="line2d_29">
      <path d="M 54.691875 373.424777 
L 957.535875 373.424777 
" clip-path="url(#p9e0581ce89)" style="fill: none; stroke: #ffffff; stroke-width: 0.8; stroke-linecap: square"/>
     </g>
     <g id="line2d_30">
      <g>
       <use xlink:href="#m10d61af814" x="54.691875" y="373.424777" style="fill: #555555; stroke: #555555; stroke-width: 0.8"/>
      </g>
     </g>
     <g id="text_16">
      <!-- 200k -->
      <g style="fill: #555555" transform="translate(22.81375 377.223996) scale(0.1 -0.1)">
       <use xlink:href="#DejaVuSans-32"/>
       <use xlink:href="#DejaVuSans-30" x="63.623047"/>
       <use xlink:href="#DejaVuSans-30" x="127.246094"/>
       <use xlink:href="#DejaVuSans-6b" x="190.869141"/>
      </g>
     </g>
    </g>
    <g id="ytick_4">
     <g id="line2d_31">
      <path d="M 54.691875 270.866291 
L 957.535875 270.866291 
" clip-path="url(#p9e0581ce89)" style="fill: none; stroke: #ffffff; stroke-width: 0.8; stroke-linecap: square"/>
     </g>
     <g id="line2d_32">
      <g>
       <use xlink:href="#m10d61af814" x="54.691875" y="270.866291" style="fill: #555555; stroke: #555555; stroke-width: 0.8"/>
      </g>
     </g>
     <g id="text_17">
      <!-- 300k -->
      <g style="fill: #555555" transform="translate(22.81375 274.665509) scale(0.1 -0.1)">
       <use xlink:href="#DejaVuSans-33"/>
       <use xlink:href="#DejaVuSans-30" x="63.623047"/>
       <use xlink:href="#DejaVuSans-30" x="127.246094"/>
       <use xlink:href="#DejaVuSans-6b" x="190.869141"/>
      </g>
     </g>
    </g>
    <g id="ytick_5">
     <g id="line2d_33">
      <path d="M 54.691875 168.307804 
L 957.535875 168.307804 
" clip-path="url(#p9e0581ce89)" style="fill: none; stroke: #ffffff; stroke-width: 0.8; stroke-linecap: square"/>
     </g>
     <g id="line2d_34">
      <g>
       <use xlink:href="#m10d61af814" x="54.691875" y="168.307804" style="fill: #555555; stroke: #555555; stroke-width: 0.8"/>
      </g>
     </g>
     <g id="text_18">
      <!-- 400k -->
      <g style="fill: #555555" transform="translate(22.81375 172.107023) scale(0.1 -0.1)">
       <use xlink:href="#DejaVuSans-34"/>
       <use xlink:href="#DejaVuSans-30" x="63.623047"/>
       <use xlink:href="#DejaVuSans-30" x="127.246094"/>
       <use xlink:href="#DejaVuSans-6b" x="190.869141"/>
      </g>
     </g>
    </g>
    <g id="ytick_6">
     <g id="line2d_35">
      <path d="M 54.691875 65.749318 
L 957.535875 65.749318 
" clip-path="url(#p9e0581ce89)" style="fill: none; stroke: #ffffff; stroke-width: 0.8; stroke-linecap: square"/>
     </g>
     <g id="line2d_36">
      <g>
       <use xlink:href="#m10d61af814" x="54.691875" y="65.749318" style="fill: #555555; stroke: #555555; stroke-width: 0.8"/>
      </g>
     </g>
     <g id="text_19">
      <!-- 500k -->
      <g style="fill: #555555" transform="translate(22.81375 69.548536) scale(0.1 -0.1)">
       <use xlink:href="#DejaVuSans-35"/>
       <use xlink:href="#DejaVuSans-30" x="63.623047"/>
       <use xlink:href="#DejaVuSans-30" x="127.246094"/>
       <use xlink:href="#DejaVuSans-6b" x="190.869141"/>
      </g>
     </g>
    </g>
    <g id="text_20">
     <!-- Instances -->
     <g style="fill: #555555" transform="translate(16.318125 329.988) rotate(-90) scale(0.12 -0.12)">
      <defs>
       <path id="DejaVuSans-49" d="M 628 4666 
L 1259 4666 
L 1259 0 
L 628 0 
L 628 4666 
z
" transform="scale(0.015625)"/>
       <path id="DejaVuSans-6e" d="M 3513 2113 
L 3513 0 
L 2938 0 
L 2938 2094 
Q 2938 2591 2744 2837 
Q 2550 3084 2163 3084 
Q 1697 3084 1428 2787 
Q 1159 2491 1159 1978 
L 1159 0 
L 581 0 
L 581 3500 
L 1159 3500 
L 1159 2956 
Q 1366 3272 1645 3428 
Q 1925 3584 2291 3584 
Q 2894 3584 3203 3211 
Q 3513 2838 3513 2113 
z
" transform="scale(0.015625)"/>
       <path id="DejaVuSans-73" d="M 2834 3397 
L 2834 2853 
Q 2591 2978 2328 3040 
Q 2066 3103 1784 3103 
Q 1356 3103 1142 2972 
Q 928 2841 928 2578 
Q 928 2378 1081 2264 
Q 1234 2150 1697 2047 
L 1894 2003 
Q 2506 1872 2764 1633 
Q 3022 1394 3022 966 
Q 3022 478 2636 193 
Q 2250 -91 1575 -91 
Q 1294 -91 989 -36 
Q 684 19 347 128 
L 347 722 
Q 666 556 975 473 
Q 1284 391 1588 391 
Q 1994 391 2212 530 
Q 2431 669 2431 922 
Q 2431 1156 2273 1281 
Q 2116 1406 1581 1522 
L 1381 1569 
Q 847 1681 609 1914 
Q 372 2147 372 2553 
Q 372 3047 722 3315 
Q 1072 3584 1716 3584 
Q 2034 3584 2315 3537 
Q 2597 3491 2834 3397 
z
" transform="scale(0.015625)"/>
       <path id="DejaVuSans-63" d="M 3122 3366 
L 3122 2828 
Q 2878 2963 2633 3030 
Q 2388 3097 2138 3097 
Q 1578 3097 1268 2742 
Q 959 2388 959 1747 
Q 959 1106 1268 751 
Q 1578 397 2138 397 
Q 2388 397 2633 464 
Q 2878 531 3122 666 
L 3122 134 
Q 2881 22 2623 -34 
Q 2366 -91 2075 -91 
Q 1284 -91 818 406 
Q 353 903 353 1747 
Q 353 2603 823 3093 
Q 1294 3584 2113 3584 
Q 2378 3584 2631 3529 
Q 2884 3475 3122 3366 
z
" transform="scale(0.015625)"/>
      </defs>
      <use xlink:href="#DejaVuSans-49"/>
      <use xlink:href="#DejaVuSans-6e" x="29.492188"/>
      <use xlink:href="#DejaVuSans-73" x="92.871094"/>
      <use xlink:href="#DejaVuSans-74" x="144.970703"/>
      <use xlink:href="#DejaVuSans-61" x="184.179688"/>
      <use xlink:href="#DejaVuSans-6e" x="245.458984"/>
      <use xlink:href="#DejaVuSans-63" x="308.837891"/>
      <use xlink:href="#DejaVuSans-65" x="363.818359"/>
      <use xlink:href="#DejaVuSans-73" x="425.341797"/>
     </g>
    </g>
   </g>
   <g id="line2d_37">
    <path d="M 54.691875 484.807734 
L 63.811511 483.892931 
L 72.931148 482.978128 
L 82.050784 482.063325 
L 91.17042 481.148522 
L 100.290057 480.233718 
L 109.409693 479.318915 
L 118.52933 478.404112 
L 127.648966 477.489309 
L 136.768602 476.574506 
L 145.888239 475.659703 
L 155.007875 474.7449 
L 164.127511 473.830097 
L 173.247148 472.915294 
L 182.366784 472.000491 
L 191.48642 471.085688 
L 200.606057 470.170885 
L 209.725693 469.256082 
L 218.84533 468.341279 
L 227.964966 467.426476 
L 237.084602 466.511673 
L 246.204239 465.59687 
L 255.323875 464.682067 
L 264.443511 463.767264 
L 273.563148 462.852461 
L 282.682784 461.937658 
L 291.80242 461.022855 
L 300.922057 460.108052 
L 310.041693 459.193249 
L 319.16133 458.278446 
L 328.280966 457.363643 
L 337.400602 456.44884 
L 346.520239 455.534037 
L 355.639875 454.619234 
L 364.759511 453.704431 
L 373.879148 452.789628 
L 382.998784 451.874825 
L 392.11842 450.960022 
L 401.238057 450.045219 
L 410.357693 449.130416 
L 419.47733 448.215613 
L 428.596966 447.30081 
L 437.716602 446.386007 
L 446.836239 445.471204 
L 455.955875 444.556401 
L 465.075511 443.641597 
L 474.195148 442.726794 
L 483.314784 441.811991 
L 492.43442 440.897188 
L 501.554057 439.982385 
L 510.673693 439.067582 
L 519.79333 438.152779 
L 528.912966 437.237976 
L 538.032602 436.323173 
L 547.152239 435.40837 
L 556.271875 434.493567 
L 565.391511 433.578764 
L 574.511148 432.663961 
L 583.630784 431.749158 
L 592.75042 430.834355 
L 601.870057 429.919552 
L 610.989693 429.004749 
L 620.10933 428.089946 
L 629.228966 427.175143 
L 638.348602 426.26034 
L 647.468239 425.345537 
L 656.587875 424.430734 
L 665.707511 423.515931 
L 674.827148 422.601128 
L 683.946784 421.686325 
L 693.06642 420.771522 
L 702.186057 419.856719 
L 711.305693 418.941916 
L 720.42533 418.027113 
L 729.544966 417.11231 
L 738.664602 416.197507 
L 747.784239 415.282704 
L 756.903875 414.367901 
L 766.023511 413.453098 
L 775.143148 412.538295 
L 784.262784 411.623492 
L 793.38242 410.708689 
L 802.502057 409.793886 
L 811.621693 408.879083 
L 820.74133 407.96428 
L 829.860966 407.049476 
L 838.980602 406.134673 
L 848.100239 405.21987 
L 857.219875 404.305067 
L 866.339511 403.390264 
L 875.459148 402.475461 
L 884.578784 401.560658 
L 893.69842 400.645855 
L 902.818057 399.731052 
L 911.937693 398.816249 
L 921.05733 397.901446 
L 930.176966 396.986643 
L 939.296602 396.07184 
L 948.416239 395.157037 
L 957.535875 394.242234 
" clip-path="url(#p9e0581ce89)" style="fill: none; stroke-dasharray: 1.5,2.475; stroke-dashoffset: 0; stroke: #4ac1fa; stroke-width: 1.5"/>
   </g>
   <g id="line2d_38">
    <path d="M 54.691875 536.112273 
L 63.811511 535.326198 
L 72.931148 534.540124 
L 82.050784 533.754049 
L 91.17042 532.967975 
L 100.290057 532.181901 
L 109.409693 531.395826 
L 118.52933 530.609752 
L 127.648966 529.823677 
L 136.768602 529.037603 
L 145.888239 528.251528 
L 155.007875 527.465454 
L 164.127511 526.67938 
L 173.247148 525.893305 
L 182.366784 525.107231 
L 191.48642 524.321156 
L 200.606057 523.535082 
L 209.725693 522.749007 
L 218.84533 521.962933 
L 227.964966 521.176859 
L 237.084602 520.390784 
L 246.204239 519.60471 
L 255.323875 518.818635 
L 264.443511 518.032561 
L 273.563148 517.246487 
L 282.682784 516.460412 
L 291.80242 515.674338 
L 300.922057 514.888263 
L 310.041693 514.102189 
L 319.16133 513.316114 
L 328.280966 512.53004 
L 337.400602 511.743966 
L 346.520239 510.957891 
L 355.639875 510.171817 
L 364.759511 509.385742 
L 373.879148 508.599668 
L 382.998784 507.813593 
L 392.11842 507.027519 
L 401.238057 506.241445 
L 410.357693 505.45537 
L 419.47733 504.669296 
L 428.596966 503.883221 
L 437.716602 503.097147 
L 446.836239 502.311073 
L 455.955875 501.524998 
L 465.075511 500.738924 
L 474.195148 499.952849 
L 483.314784 499.166775 
L 492.43442 498.3807 
L 501.554057 497.594626 
L 510.673693 496.808552 
L 519.79333 496.022477 
L 528.912966 495.236403 
L 538.032602 494.450328 
L 547.152239 493.664254 
L 556.271875 492.878179 
L 565.391511 492.092105 
L 574.511148 491.306031 
L 583.630784 490.519956 
L 592.75042 489.733882 
L 601.870057 488.947807 
L 610.989693 488.161733 
L 620.10933 487.375659 
L 629.228966 486.589584 
L 638.348602 485.80351 
L 647.468239 485.017435 
L 656.587875 484.231361 
L 665.707511 483.445286 
L 674.827148 482.659212 
L 683.946784 481.873138 
L 693.06642 481.087063 
L 702.186057 480.300989 
L 711.305693 479.514914 
L 720.42533 478.72884 
L 729.544966 477.942766 
L 738.664602 477.156691 
L 747.784239 476.370617 
L 756.903875 475.584542 
L 766.023511 474.798468 
L 775.143148 474.012393 
L 784.262784 473.226319 
L 793.38242 472.440245 
L 802.502057 471.65417 
L 811.621693 470.868096 
L 820.74133 470.082021 
L 829.860966 469.295947 
L 838.980602 468.509872 
L 848.100239 467.723798 
L 857.219875 466.937724 
L 866.339511 466.151649 
L 875.459148 465.365575 
L 884.578784 464.5795 
L 893.69842 463.793426 
L 902.818057 463.007352 
L 911.937693 462.221277 
L 921.05733 461.435203 
L 930.176966 460.649128 
L 939.296602 459.863054 
L 948.416239 459.076979 
L 957.535875 458.290905 
" clip-path="url(#p9e0581ce89)" style="fill: none; stroke-dasharray: 1.5,2.475; stroke-dashoffset: 0; stroke: #e9a942; stroke-width: 1.5"/>
   </g>
   <g id="line2d_39">
    <path d="M 54.691875 506.67947 
L 63.811511 506.741353 
L 72.931148 506.803236 
L 82.050784 506.86512 
L 91.17042 506.927003 
L 100.290057 506.988886 
L 109.409693 507.05077 
L 118.52933 507.112653 
L 127.648966 507.174537 
L 136.768602 507.23642 
L 145.888239 507.298303 
L 155.007875 507.360187 
L 164.127511 507.42207 
L 173.247148 507.483954 
L 182.366784 507.545837 
L 191.48642 507.60772 
L 200.606057 507.669604 
L 209.725693 507.731487 
L 218.84533 507.79337 
L 227.964966 507.855254 
L 237.084602 507.917137 
L 246.204239 507.979021 
L 255.323875 508.040904 
L 264.443511 508.102787 
L 273.563148 508.164671 
L 282.682784 508.226554 
L 291.80242 508.288437 
L 300.922057 508.350321 
L 310.041693 508.412204 
L 319.16133 508.474088 
L 328.280966 508.535971 
L 337.400602 508.597854 
L 346.520239 508.659738 
L 355.639875 508.721621 
L 364.759511 508.783505 
L 373.879148 508.845388 
L 382.998784 508.907271 
L 392.11842 508.969155 
L 401.238057 509.031038 
L 410.357693 509.092921 
L 419.47733 509.154805 
L 428.596966 509.216688 
L 437.716602 509.278572 
L 446.836239 509.340455 
L 455.955875 509.402338 
L 465.075511 509.464222 
L 474.195148 509.526105 
L 483.314784 509.587988 
L 492.43442 509.649872 
L 501.554057 509.711755 
L 510.673693 509.773639 
L 519.79333 509.835522 
L 528.912966 509.897405 
L 538.032602 509.959289 
L 547.152239 510.021172 
L 556.271875 510.083056 
L 565.391511 510.144939 
L 574.511148 510.206822 
L 583.630784 510.268706 
L 592.75042 510.330589 
L 601.870057 510.392472 
L 610.989693 510.454356 
L 620.10933 510.516239 
L 629.228966 510.578123 
L 638.348602 510.640006 
L 647.468239 510.701889 
L 656.587875 510.763773 
L 665.707511 510.825656 
L 674.827148 510.887539 
L 683.946784 510.949423 
L 693.06642 511.011306 
L 702.186057 511.07319 
L 711.305693 511.135073 
L 720.42533 511.196956 
L 729.544966 511.25884 
L 738.664602 511.320723 
L 747.784239 511.382607 
L 756.903875 511.44449 
L 766.023511 511.506373 
L 775.143148 511.568257 
L 784.262784 511.63014 
L 793.38242 511.692023 
L 802.502057 511.753907 
L 811.621693 511.81579 
L 820.74133 511.877674 
L 829.860966 511.939557 
L 838.980602 512.00144 
L 848.100239 512.063324 
L 857.219875 512.125207 
L 866.339511 512.18709 
L 875.459148 512.248974 
L 884.578784 512.310857 
L 893.69842 512.372741 
L 902.818057 512.434624 
L 911.937693 512.496507 
L 921.05733 512.558391 
L 930.176966 512.620274 
L 939.296602 512.682158 
L 948.416239 512.744041 
L 957.535875 512.805924 
" clip-path="url(#p9e0581ce89)" style="fill: none; stroke-dasharray: 1.5,2.475; stroke-dashoffset: 0; stroke: #9a5689; stroke-width: 1.5"/>
   </g>
   <g id="line2d_40">
    <path d="M 54.691875 532.98598 
L 63.811511 532.816106 
L 72.931148 532.646232 
L 82.050784 532.476358 
L 91.17042 532.306484 
L 100.290057 532.13661 
L 109.409693 531.966735 
L 118.52933 531.796861 
L 127.648966 531.626987 
L 136.768602 531.457113 
L 145.888239 531.287239 
L 155.007875 531.117365 
L 164.127511 530.947491 
L 173.247148 530.777616 
L 182.366784 530.607742 
L 191.48642 530.437868 
L 200.606057 530.267994 
L 209.725693 530.09812 
L 218.84533 529.928246 
L 227.964966 529.758372 
L 237.084602 529.588497 
L 246.204239 529.418623 
L 255.323875 529.248749 
L 264.443511 529.078875 
L 273.563148 528.909001 
L 282.682784 528.739127 
L 291.80242 528.569252 
L 300.922057 528.399378 
L 310.041693 528.229504 
L 319.16133 528.05963 
L 328.280966 527.889756 
L 337.400602 527.719882 
L 346.520239 527.550008 
L 355.639875 527.380133 
L 364.759511 527.210259 
L 373.879148 527.040385 
L 382.998784 526.870511 
L 392.11842 526.700637 
L 401.238057 526.530763 
L 410.357693 526.360889 
L 419.47733 526.191014 
L 428.596966 526.02114 
L 437.716602 525.851266 
L 446.836239 525.681392 
L 455.955875 525.511518 
L 465.075511 525.341644 
L 474.195148 525.17177 
L 483.314784 525.001895 
L 492.43442 524.832021 
L 501.554057 524.662147 
L 510.673693 524.492273 
L 519.79333 524.322399 
L 528.912966 524.152525 
L 538.032602 523.982651 
L 547.152239 523.812776 
L 556.271875 523.642902 
L 565.391511 523.473028 
L 574.511148 523.303154 
L 583.630784 523.13328 
L 592.75042 522.963406 
L 601.870057 522.793531 
L 610.989693 522.623657 
L 620.10933 522.453783 
L 629.228966 522.283909 
L 638.348602 522.114035 
L 647.468239 521.944161 
L 656.587875 521.774287 
L 665.707511 521.604412 
L 674.827148 521.434538 
L 683.946784 521.264664 
L 693.06642 521.09479 
L 702.186057 520.924916 
L 711.305693 520.755042 
L 720.42533 520.585168 
L 729.544966 520.415293 
L 738.664602 520.245419 
L 747.784239 520.075545 
L 756.903875 519.905671 
L 766.023511 519.735797 
L 775.143148 519.565923 
L 784.262784 519.396049 
L 793.38242 519.226174 
L 802.502057 519.0563 
L 811.621693 518.886426 
L 820.74133 518.716552 
L 829.860966 518.546678 
L 838.980602 518.376804 
L 848.100239 518.206929 
L 857.219875 518.037055 
L 866.339511 517.867181 
L 875.459148 517.697307 
L 884.578784 517.527433 
L 893.69842 517.357559 
L 902.818057 517.187685 
L 911.937693 517.01781 
L 921.05733 516.847936 
L 930.176966 516.678062 
L 939.296602 516.508188 
L 948.416239 516.338314 
L 957.535875 516.16844 
" clip-path="url(#p9e0581ce89)" style="fill: none; stroke-dasharray: 1.5,2.475; stroke-dashoffset: 0; stroke: #be503b; stroke-width: 1.5"/>
   </g>
   <g id="line2d_41">
    <path d="M 54.691875 463.98755 
L 63.811511 463.225618 
L 72.931148 462.463686 
L 82.050784 461.701754 
L 91.17042 460.939822 
L 100.290057 460.17789 
L 109.409693 459.415958 
L 118.52933 458.654027 
L 127.648966 457.892095 
L 136.768602 457.130163 
L 145.888239 456.368231 
L 155.007875 455.606299 
L 164.127511 454.844367 
L 173.247148 454.082435 
L 182.366784 453.320504 
L 191.48642 452.558572 
L 200.606057 451.79664 
L 209.725693 451.034708 
L 218.84533 450.272776 
L 227.964966 449.510844 
L 237.084602 448.748912 
L 246.204239 447.986981 
L 255.323875 447.225049 
L 264.443511 446.463117 
L 273.563148 445.701185 
L 282.682784 444.939253 
L 291.80242 444.177321 
L 300.922057 443.415389 
L 310.041693 442.653458 
L 319.16133 441.891526 
L 328.280966 441.129594 
L 337.400602 440.367662 
L 346.520239 439.60573 
L 355.639875 438.843798 
L 364.759511 438.081866 
L 373.879148 437.319935 
L 382.998784 436.558003 
L 392.11842 435.796071 
L 401.238057 435.034139 
L 410.357693 434.272207 
L 419.47733 433.510275 
L 428.596966 432.748343 
L 437.716602 431.986412 
L 446.836239 431.22448 
L 455.955875 430.462548 
L 465.075511 429.700616 
L 474.195148 428.938684 
L 483.314784 428.176752 
L 492.43442 427.41482 
L 501.554057 426.652889 
L 510.673693 425.890957 
L 519.79333 425.129025 
L 528.912966 424.367093 
L 538.032602 423.605161 
L 547.152239 422.843229 
L 556.271875 422.081297 
L 565.391511 421.319366 
L 574.511148 420.557434 
L 583.630784 419.795502 
L 592.75042 419.03357 
L 601.870057 418.271638 
L 610.989693 417.509706 
L 620.10933 416.747774 
L 629.228966 415.985843 
L 638.348602 415.223911 
L 647.468239 414.461979 
L 656.587875 413.700047 
L 665.707511 412.938115 
L 674.827148 412.176183 
L 683.946784 411.414251 
L 693.06642 410.65232 
L 702.186057 409.890388 
L 711.305693 409.128456 
L 720.42533 408.366524 
L 729.544966 407.604592 
L 738.664602 406.84266 
L 747.784239 406.080728 
L 756.903875 405.318797 
L 766.023511 404.556865 
L 775.143148 403.794933 
L 784.262784 403.033001 
L 793.38242 402.271069 
L 802.502057 401.509137 
L 811.621693 400.747205 
L 820.74133 399.985274 
L 829.860966 399.223342 
L 838.980602 398.46141 
L 848.100239 397.699478 
L 857.219875 396.937546 
L 866.339511 396.175614 
L 875.459148 395.413682 
L 884.578784 394.65175 
L 893.69842 393.889819 
L 902.818057 393.127887 
L 911.937693 392.365955 
L 921.05733 391.604023 
L 930.176966 390.842091 
L 939.296602 390.080159 
L 948.416239 389.318227 
L 957.535875 388.556296 
" clip-path="url(#p9e0581ce89)" style="fill: none; stroke-dasharray: 1.5,2.475; stroke-dashoffset: 0; stroke: #e2321d; stroke-width: 1.5"/>
   </g>
   <g id="line2d_42">
    <path d="M 54.691875 413.599456 
L 63.811511 410.462888 
L 72.931148 407.32632 
L 82.050784 404.189753 
L 91.17042 401.053185 
L 100.290057 397.916618 
L 109.409693 394.78005 
L 118.52933 391.643483 
L 127.648966 388.506915 
L 136.768602 385.370348 
L 145.888239 382.23378 
L 155.007875 379.097213 
L 164.127511 375.960645 
L 173.247148 372.824078 
L 182.366784 369.68751 
L 191.48642 366.550943 
L 200.606057 363.414375 
L 209.725693 360.277808 
L 218.84533 357.14124 
L 227.964966 354.004673 
L 237.084602 350.868105 
L 246.204239 347.731538 
L 255.323875 344.59497 
L 264.443511 341.458403 
L 273.563148 338.321835 
L 282.682784 335.185267 
L 291.80242 332.0487 
L 300.922057 328.912132 
L 310.041693 325.775565 
L 319.16133 322.638997 
L 328.280966 319.50243 
L 337.400602 316.365862 
L 346.520239 313.229295 
L 355.639875 310.092727 
L 364.759511 306.95616 
L 373.879148 303.819592 
L 382.998784 300.683025 
L 392.11842 297.546457 
L 401.238057 294.40989 
L 410.357693 291.273322 
L 419.47733 288.136755 
L 428.596966 285.000187 
L 437.716602 281.86362 
L 446.836239 278.727052 
L 455.955875 275.590485 
L 465.075511 272.453917 
L 474.195148 269.31735 
L 483.314784 266.180782 
L 492.43442 263.044214 
L 501.554057 259.907647 
L 510.673693 256.771079 
L 519.79333 253.634512 
L 528.912966 250.497944 
L 538.032602 247.361377 
L 547.152239 244.224809 
L 556.271875 241.088242 
L 565.391511 237.951674 
L 574.511148 234.815107 
L 583.630784 231.678539 
L 592.75042 228.541972 
L 601.870057 225.405404 
L 610.989693 222.268837 
L 620.10933 219.132269 
L 629.228966 215.995702 
L 638.348602 212.859134 
L 647.468239 209.722567 
L 656.587875 206.585999 
L 665.707511 203.449432 
L 674.827148 200.312864 
L 683.946784 197.176297 
L 693.06642 194.039729 
L 702.186057 190.903161 
L 711.305693 187.766594 
L 720.42533 184.630026 
L 729.544966 181.493459 
L 738.664602 178.356891 
L 747.784239 175.220324 
L 756.903875 172.083756 
L 766.023511 168.947189 
L 775.143148 165.810621 
L 784.262784 162.674054 
L 793.38242 159.537486 
L 802.502057 156.400919 
L 811.621693 153.264351 
L 820.74133 150.127784 
L 829.860966 146.991216 
L 838.980602 143.854649 
L 848.100239 140.718081 
L 857.219875 137.581514 
L 866.339511 134.444946 
L 875.459148 131.308379 
L 884.578784 128.171811 
L 893.69842 125.035244 
L 902.818057 121.898676 
L 911.937693 118.762108 
L 921.05733 115.625541 
L 930.176966 112.488973 
L 939.296602 109.352406 
L 948.416239 106.215838 
L 957.535875 103.079271 
" clip-path="url(#p9e0581ce89)" style="fill: none; stroke-dasharray: 1.5,2.475; stroke-dashoffset: 0; stroke: #48b585; stroke-width: 1.5"/>
   </g>
   <g id="line2d_43">
    <path d="M 54.691875 431.329299 
L 72.394699 478.194425 
L 90.097522 437.045909 
L 107.800346 436.740284 
L 125.503169 465.629984 
L 143.205993 469.022619 
L 160.908816 489.711743 
L 178.61164 476.430419 
L 196.314463 475.874552 
L 214.017287 481.986012 
L 231.72011 482.008575 
L 249.422934 493.6264 
L 267.125757 492.002899 
L 284.828581 485.131481 
L 302.531404 497.617976 
L 320.234228 488.164135 
L 337.937051 489.587647 
L 355.639875 453.532185 
L 373.342699 447.006389 
L 391.045522 442.553299 
L 408.748346 446.1049 
L 426.451169 478.57184 
L 444.153993 444.583957 
L 461.856816 446.636153 
L 479.55964 459.025218 
L 497.262463 444.813688 
L 514.965287 443.748106 
L 532.66811 422.776946 
L 550.370934 422.563625 
L 568.073757 409.255636 
L 585.776581 406.32554 
L 603.479404 412.729291 
L 621.182228 428.15819 
L 638.885051 400.620211 
L 656.587875 428.172548 
L 674.290699 412.719036 
L 691.993522 427.0803 
L 709.696346 433.23381 
L 727.399169 433.631737 
L 745.101993 427.114145 
L 762.804816 415.271716 
L 780.50764 415.325047 
L 798.210463 385.85384 
L 815.913287 404.788188 
L 833.61611 412.192911 
L 851.318934 425.804473 
L 869.021757 399.07568 
L 886.724581 410.95503 
L 904.427404 383.414999 
L 922.130228 383.756519 
L 939.833051 386.821992 
L 957.535875 390.977662 
" clip-path="url(#p9e0581ce89)" style="fill: none; stroke: #4ac1fa; stroke-width: 1.5; stroke-linecap: square"/>
   </g>
   <g id="line2d_44">
    <path d="M 54.691875 545.621501 
L 72.394699 547.984449 
L 90.097522 543.928261 
L 107.800346 535.460007 
L 125.503169 532.109421 
L 143.205993 535.294887 
L 160.908816 532.421199 
L 178.61164 528.470646 
L 196.314463 534.796453 
L 214.017287 522.74378 
L 231.72011 518.760408 
L 249.422934 518.006603 
L 267.125757 508.806082 
L 284.828581 517.079475 
L 302.531404 514.376033 
L 320.234228 514.453977 
L 337.937051 510.933145 
L 355.639875 513.726838 
L 373.342699 516.490789 
L 391.045522 508.449178 
L 408.748346 509.195804 
L 426.451169 497.019035 
L 444.153993 479.68665 
L 461.856816 473.700312 
L 479.55964 490.703483 
L 497.262463 492.507487 
L 514.965287 494.558657 
L 532.66811 466.49045 
L 550.370934 475.255098 
L 568.073757 489.226641 
L 585.776581 495.921659 
L 603.479404 480.753259 
L 621.182228 480.259952 
L 638.885051 475.200742 
L 656.587875 487.978504 
L 674.290699 466.939656 
L 691.993522 497.575927 
L 709.696346 489.328174 
L 727.399169 480.895815 
L 745.101993 479.766646 
L 762.804816 470.498436 
L 780.50764 460.418988 
L 798.210463 466.581727 
L 815.913287 471.682986 
L 833.61611 483.418754 
L 851.318934 477.463183 
L 869.021757 479.514352 
L 886.724581 473.783384 
L 904.427404 471.917845 
L 922.130228 467.3663 
L 939.833051 467.907808 
L 957.535875 461.051774 
" clip-path="url(#p9e0581ce89)" style="fill: none; stroke: #e9a942; stroke-width: 1.5; stroke-linecap: square"/>
   </g>
   <g id="line2d_45">
    <path d="M 54.691875 518.589136 
L 72.394699 531.352539 
L 90.097522 523.916023 
L 107.800346 515.468281 
L 125.503169 515.130863 
L 143.205993 509.473737 
L 160.908816 514.371931 
L 178.61164 512.631513 
L 196.314463 513.203789 
L 214.017287 518.710155 
L 231.72011 517.073321 
L 249.422934 493.452051 
L 267.125757 474.473603 
L 284.828581 473.314692 
L 302.531404 488.58565 
L 320.234228 497.407731 
L 337.937051 496.086778 
L 355.639875 490.332221 
L 373.342699 491.039875 
L 391.045522 497.300045 
L 408.748346 491.495235 
L 426.451169 502.387971 
L 444.153993 516.060043 
L 461.856816 512.528955 
L 479.55964 531.994555 
L 497.262463 524.521118 
L 514.965287 514.806779 
L 532.66811 524.515991 
L 550.370934 521.970489 
L 568.073757 515.08984 
L 585.776581 509.587577 
L 603.479404 505.075004 
L 621.182228 509.32913 
L 638.885051 506.82978 
L 656.587875 511.737203 
L 674.290699 509.832692 
L 691.993522 504.090442 
L 709.696346 514.926772 
L 727.399169 511.4244 
L 745.101993 511.072624 
L 762.804816 508.408155 
L 780.50764 515.564686 
L 798.210463 513.227378 
L 815.913287 511.698231 
L 833.61611 513.882727 
L 851.318934 516.027225 
L 869.021757 516.465149 
L 886.724581 513.825294 
L 904.427404 514.960616 
L 922.130228 515.920564 
L 939.833051 511.706436 
L 957.535875 513.743247 
" clip-path="url(#p9e0581ce89)" style="fill: none; stroke: #9a5689; stroke-width: 1.5; stroke-linecap: square"/>
   </g>
   <g id="line2d_46">
    <path d="M 54.691875 533.027319 
L 72.394699 545.971226 
L 90.097522 535.846652 
L 107.800346 534.77389 
L 125.503169 537.768598 
L 143.205993 523.117093 
L 160.908816 541.047393 
L 178.61164 536.630199 
L 196.314463 535.96562 
L 214.017287 527.284044 
L 231.72011 534.475445 
L 249.422934 526.95278 
L 267.125757 523.712958 
L 284.828581 530.551557 
L 302.531404 528.901391 
L 320.234228 532.036604 
L 337.937051 504.275048 
L 355.639875 519.24551 
L 373.342699 529.541356 
L 391.045522 515.346236 
L 408.748346 523.782697 
L 426.451169 521.127458 
L 444.153993 514.595508 
L 461.856816 531.92379 
L 479.55964 514.264244 
L 497.262463 523.0853 
L 514.965287 519.261919 
L 532.66811 518.718359 
L 550.370934 534.018034 
L 568.073757 528.262452 
L 585.776581 517.138959 
L 603.479404 518.445554 
L 621.182228 525.054423 
L 638.885051 523.883205 
L 656.587875 524.250364 
L 674.290699 519.25474 
L 691.993522 526.927141 
L 709.696346 519.941882 
L 727.399169 521.50795 
L 745.101993 523.811414 
L 762.804816 516.047736 
L 780.50764 527.341477 
L 798.210463 521.878186 
L 815.913287 527.615308 
L 833.61611 525.265693 
L 851.318934 516.045685 
L 869.021757 511.502344 
L 886.724581 519.709074 
L 904.427404 522.842236 
L 922.130228 507.257448 
L 939.833051 511.072624 
L 957.535875 525.710797 
" clip-path="url(#p9e0581ce89)" style="fill: none; stroke: #be503b; stroke-width: 1.5; stroke-linecap: square"/>
   </g>
   <g id="line2d_47">
    <path d="M 54.691875 468.643153 
L 72.394699 504.991931 
L 90.097522 490.823477 
L 107.800346 469.694377 
L 125.503169 459.545189 
L 143.205993 460.991264 
L 160.908816 453.798837 
L 178.61164 456.808929 
L 196.314463 451.169238 
L 214.017287 448.909874 
L 231.72011 448.644248 
L 249.422934 429.961168 
L 267.125757 439.58218 
L 284.828581 436.981297 
L 302.531404 444.528576 
L 320.234228 443.10609 
L 337.937051 432.44616 
L 355.639875 428.169472 
L 373.342699 431.242124 
L 391.045522 447.472004 
L 408.748346 434.781417 
L 426.451169 434.773213 
L 444.153993 439.175023 
L 461.856816 432.984593 
L 479.55964 431.722098 
L 497.262463 410.585819 
L 514.965287 263.791806 
L 532.66811 421.806743 
L 550.370934 433.310728 
L 568.073757 431.417499 
L 585.776581 429.81451 
L 603.479404 426.305984 
L 621.182228 412.048303 
L 638.885051 427.325415 
L 656.587875 399.063373 
L 674.290699 417.806962 
L 691.993522 415.236846 
L 709.696346 415.415298 
L 727.399169 409.838168 
L 745.101993 408.20236 
L 762.804816 405.378925 
L 780.50764 415.550675 
L 798.210463 411.873954 
L 815.913287 398.044967 
L 833.61611 375.06879 
L 851.318934 406.636292 
L 869.021757 402.247814 
L 886.724581 395.540489 
L 904.427404 393.673925 
L 922.130228 396.899389 
L 939.833051 410.196097 
L 957.535875 412.112915 
" clip-path="url(#p9e0581ce89)" style="fill: none; stroke: #e2321d; stroke-width: 1.5; stroke-linecap: square"/>
   </g>
   <g id="line2d_48">
    <path d="M 54.691875 395.179483 
L 72.394699 439.248865 
L 90.097522 395.579461 
L 107.800346 387.327606 
L 125.503169 373.820653 
L 143.205993 338.610273 
L 160.908816 327.218077 
L 178.61164 360.420361 
L 196.314463 347.788232 
L 214.017287 313.56344 
L 231.72011 314.1511 
L 249.422934 301.706653 
L 267.125757 311.773794 
L 284.828581 259.230005 
L 302.531404 330.350213 
L 320.234228 272.116479 
L 337.937051 307.070462 
L 355.639875 293.402492 
L 373.342699 318.46471 
L 391.045522 352.835135 
L 408.748346 334.314098 
L 426.451169 337.756987 
L 444.153993 320.539468 
L 461.856816 328.387243 
L 479.55964 319.75387 
L 497.262463 313.083466 
L 514.965287 320.852271 
L 532.66811 308.957538 
L 550.370934 313.390116 
L 568.073757 285.316781 
L 585.776581 270.398624 
L 603.479404 220.45059 
L 621.182228 262.130359 
L 638.885051 250.975072 
L 656.587875 225.767222 
L 674.290699 264.536381 
L 691.993522 191.220396 
L 709.696346 233.168868 
L 727.399169 212.640761 
L 745.101993 180.61072 
L 762.804816 165.734612 
L 780.50764 124.725575 
L 798.210463 95.965099 
L 815.913287 92.901677 
L 833.61611 92.712969 
L 851.318934 49.08664 
L 869.021757 77.00306 
L 886.724581 102.825236 
L 904.427404 83.554497 
L 922.130228 114.532287 
L 939.833051 129.320196 
L 957.535875 71.176713 
" clip-path="url(#p9e0581ce89)" style="fill: none; stroke: #48b585; stroke-width: 6; stroke-linecap: square"/>
   </g>
   <g id="patch_3">
    <path d="M 54.691875 578.54175 
L 54.691875 24.14175 
" style="fill: none; stroke: #ffffff; stroke-linejoin: miter; stroke-linecap: square"/>
   </g>
   <g id="patch_4">
    <path d="M 957.535875 578.54175 
L 957.535875 24.14175 
" style="fill: none; stroke: #ffffff; stroke-linejoin: miter; stroke-linecap: square"/>
   </g>
   <g id="patch_5">
    <path d="M 54.691875 578.54175 
L 957.535875 578.54175 
" style="fill: none; stroke: #ffffff; stroke-linejoin: miter; stroke-linecap: square"/>
   </g>
   <g id="patch_6">
    <path d="M 54.691875 24.14175 
L 957.535875 24.14175 
" style="fill: none; stroke: #ffffff; stroke-linejoin: miter; stroke-linecap: square"/>
   </g>
   <g id="text_21">
    <!-- Potentially Ephemeral Enterprise Linux Instances by Distribution -->
    <g transform="translate(54.691875 18.14175) scale(0.144 -0.144)">
     <defs>
      <path id="DejaVuSans-50" d="M 1259 4147 
L 1259 2394 
L 2053 2394 
Q 2494 2394 2734 2622 
Q 2975 2850 2975 3272 
Q 2975 3691 2734 3919 
Q 2494 4147 2053 4147 
L 1259 4147 
z
M 628 4666 
L 2053 4666 
Q 2838 4666 3239 4311 
Q 3641 3956 3641 3272 
Q 3641 2581 3239 2228 
Q 2838 1875 2053 1875 
L 1259 1875 
L 1259 0 
L 628 0 
L 628 4666 
z
" transform="scale(0.015625)"/>
      <path id="DejaVuSans-6f" d="M 1959 3097 
Q 1497 3097 1228 2736 
Q 959 2375 959 1747 
Q 959 1119 1226 758 
Q 1494 397 1959 397 
Q 2419 397 2687 759 
Q 2956 1122 2956 1747 
Q 2956 2369 2687 2733 
Q 2419 3097 1959 3097 
z
M 1959 3584 
Q 2709 3584 3137 3096 
Q 3566 2609 3566 1747 
Q 3566 888 3137 398 
Q 2709 -91 1959 -91 
Q 1206 -91 779 398 
Q 353 888 353 1747 
Q 353 2609 779 3096 
Q 1206 3584 1959 3584 
z
" transform="scale(0.015625)"/>
      <path id="DejaVuSans-69" d="M 603 3500 
L 1178 3500 
L 1178 0 
L 603 0 
L 603 3500 
z
M 603 4863 
L 1178 4863 
L 1178 4134 
L 603 4134 
L 603 4863 
z
" transform="scale(0.015625)"/>
      <path id="DejaVuSans-6c" d="M 603 4863 
L 1178 4863 
L 1178 0 
L 603 0 
L 603 4863 
z
" transform="scale(0.015625)"/>
      <path id="DejaVuSans-79" d="M 2059 -325 
Q 1816 -950 1584 -1140 
Q 1353 -1331 966 -1331 
L 506 -1331 
L 506 -850 
L 844 -850 
Q 1081 -850 1212 -737 
Q 1344 -625 1503 -206 
L 1606 56 
L 191 3500 
L 800 3500 
L 1894 763 
L 2988 3500 
L 3597 3500 
L 2059 -325 
z
" transform="scale(0.015625)"/>
      <path id="DejaVuSans-20" transform="scale(0.015625)"/>
      <path id="DejaVuSans-45" d="M 628 4666 
L 3578 4666 
L 3578 4134 
L 1259 4134 
L 1259 2753 
L 3481 2753 
L 3481 2222 
L 1259 2222 
L 1259 531 
L 3634 531 
L 3634 0 
L 628 0 
L 628 4666 
z
" transform="scale(0.015625)"/>
      <path id="DejaVuSans-70" d="M 1159 525 
L 1159 -1331 
L 581 -1331 
L 581 3500 
L 1159 3500 
L 1159 2969 
Q 1341 3281 1617 3432 
Q 1894 3584 2278 3584 
Q 2916 3584 3314 3078 
Q 3713 2572 3713 1747 
Q 3713 922 3314 415 
Q 2916 -91 2278 -91 
Q 1894 -91 1617 61 
Q 1341 213 1159 525 
z
M 3116 1747 
Q 3116 2381 2855 2742 
Q 2594 3103 2138 3103 
Q 1681 3103 1420 2742 
Q 1159 2381 1159 1747 
Q 1159 1113 1420 752 
Q 1681 391 2138 391 
Q 2594 391 2855 752 
Q 3116 1113 3116 1747 
z
" transform="scale(0.015625)"/>
      <path id="DejaVuSans-68" d="M 3513 2113 
L 3513 0 
L 2938 0 
L 2938 2094 
Q 2938 2591 2744 2837 
Q 2550 3084 2163 3084 
Q 1697 3084 1428 2787 
Q 1159 2491 1159 1978 
L 1159 0 
L 581 0 
L 581 4863 
L 1159 4863 
L 1159 2956 
Q 1366 3272 1645 3428 
Q 1925 3584 2291 3584 
Q 2894 3584 3203 3211 
Q 3513 2838 3513 2113 
z
" transform="scale(0.015625)"/>
      <path id="DejaVuSans-6d" d="M 3328 2828 
Q 3544 3216 3844 3400 
Q 4144 3584 4550 3584 
Q 5097 3584 5394 3201 
Q 5691 2819 5691 2113 
L 5691 0 
L 5113 0 
L 5113 2094 
Q 5113 2597 4934 2840 
Q 4756 3084 4391 3084 
Q 3944 3084 3684 2787 
Q 3425 2491 3425 1978 
L 3425 0 
L 2847 0 
L 2847 2094 
Q 2847 2600 2669 2842 
Q 2491 3084 2119 3084 
Q 1678 3084 1418 2786 
Q 1159 2488 1159 1978 
L 1159 0 
L 581 0 
L 581 3500 
L 1159 3500 
L 1159 2956 
Q 1356 3278 1631 3431 
Q 1906 3584 2284 3584 
Q 2666 3584 2933 3390 
Q 3200 3197 3328 2828 
z
" transform="scale(0.015625)"/>
      <path id="DejaVuSans-72" d="M 2631 2963 
Q 2534 3019 2420 3045 
Q 2306 3072 2169 3072 
Q 1681 3072 1420 2755 
Q 1159 2438 1159 1844 
L 1159 0 
L 581 0 
L 581 3500 
L 1159 3500 
L 1159 2956 
Q 1341 3275 1631 3429 
Q 1922 3584 2338 3584 
Q 2397 3584 2469 3576 
Q 2541 3569 2628 3553 
L 2631 2963 
z
" transform="scale(0.015625)"/>
      <path id="DejaVuSans-4c" d="M 628 4666 
L 1259 4666 
L 1259 531 
L 3531 531 
L 3531 0 
L 628 0 
L 628 4666 
z
" transform="scale(0.015625)"/>
      <path id="DejaVuSans-75" d="M 544 1381 
L 544 3500 
L 1119 3500 
L 1119 1403 
Q 1119 906 1312 657 
Q 1506 409 1894 409 
Q 2359 409 2629 706 
Q 2900 1003 2900 1516 
L 2900 3500 
L 3475 3500 
L 3475 0 
L 2900 0 
L 2900 538 
Q 2691 219 2414 64 
Q 2138 -91 1772 -91 
Q 1169 -91 856 284 
Q 544 659 544 1381 
z
M 1991 3584 
L 1991 3584 
z
" transform="scale(0.015625)"/>
      <path id="DejaVuSans-78" d="M 3513 3500 
L 2247 1797 
L 3578 0 
L 2900 0 
L 1881 1375 
L 863 0 
L 184 0 
L 1544 1831 
L 300 3500 
L 978 3500 
L 1906 2253 
L 2834 3500 
L 3513 3500 
z
" transform="scale(0.015625)"/>
      <path id="DejaVuSans-62" d="M 3116 1747 
Q 3116 2381 2855 2742 
Q 2594 3103 2138 3103 
Q 1681 3103 1420 2742 
Q 1159 2381 1159 1747 
Q 1159 1113 1420 752 
Q 1681 391 2138 391 
Q 2594 391 2855 752 
Q 3116 1113 3116 1747 
z
M 1159 2969 
Q 1341 3281 1617 3432 
Q 1894 3584 2278 3584 
Q 2916 3584 3314 3078 
Q 3713 2572 3713 1747 
Q 3713 922 3314 415 
Q 2916 -91 2278 -91 
Q 1894 -91 1617 61 
Q 1341 213 1159 525 
L 1159 0 
L 581 0 
L 581 4863 
L 1159 4863 
L 1159 2969 
z
" transform="scale(0.015625)"/>
     </defs>
     <use xlink:href="#DejaVuSans-50"/>
     <use xlink:href="#DejaVuSans-6f" x="56.677734"/>
     <use xlink:href="#DejaVuSans-74" x="117.859375"/>
     <use xlink:href="#DejaVuSans-65" x="157.068359"/>
     <use xlink:href="#DejaVuSans-6e" x="218.591797"/>
     <use xlink:href="#DejaVuSans-74" x="281.970703"/>
     <use xlink:href="#DejaVuSans-69" x="321.179688"/>
     <use xlink:href="#DejaVuSans-61" x="348.962891"/>
     <use xlink:href="#DejaVuSans-6c" x="410.242188"/>
     <use xlink:href="#DejaVuSans-6c" x="438.025391"/>
     <use xlink:href="#DejaVuSans-79" x="465.808594"/>
     <use xlink:href="#DejaVuSans-20" x="524.988281"/>
     <use xlink:href="#DejaVuSans-45" x="556.775391"/>
     <use xlink:href="#DejaVuSans-70" x="619.958984"/>
     <use xlink:href="#DejaVuSans-68" x="683.435547"/>
     <use xlink:href="#DejaVuSans-65" x="746.814453"/>
     <use xlink:href="#DejaVuSans-6d" x="808.337891"/>
     <use xlink:href="#DejaVuSans-65" x="905.75"/>
     <use xlink:href="#DejaVuSans-72" x="967.273438"/>
     <use xlink:href="#DejaVuSans-61" x="1008.386719"/>
     <use xlink:href="#DejaVuSans-6c" x="1069.666016"/>
     <use xlink:href="#DejaVuSans-20" x="1097.449219"/>
     <use xlink:href="#DejaVuSans-45" x="1129.236328"/>
     <use xlink:href="#DejaVuSans-6e" x="1192.419922"/>
     <use xlink:href="#DejaVuSans-74" x="1255.798828"/>
     <use xlink:href="#DejaVuSans-65" x="1295.007812"/>
     <use xlink:href="#DejaVuSans-72" x="1356.53125"/>
     <use xlink:href="#DejaVuSans-70" x="1397.644531"/>
     <use xlink:href="#DejaVuSans-72" x="1461.121094"/>
     <use xlink:href="#DejaVuSans-69" x="1502.234375"/>
     <use xlink:href="#DejaVuSans-73" x="1530.017578"/>
     <use xlink:href="#DejaVuSans-65" x="1582.117188"/>
     <use xlink:href="#DejaVuSans-20" x="1643.640625"/>
     <use xlink:href="#DejaVuSans-4c" x="1675.427734"/>
     <use xlink:href="#DejaVuSans-69" x="1731.140625"/>
     <use xlink:href="#DejaVuSans-6e" x="1758.923828"/>
     <use xlink:href="#DejaVuSans-75" x="1822.302734"/>
     <use xlink:href="#DejaVuSans-78" x="1885.681641"/>
     <use xlink:href="#DejaVuSans-20" x="1944.861328"/>
     <use xlink:href="#DejaVuSans-49" x="1976.648438"/>
     <use xlink:href="#DejaVuSans-6e" x="2006.140625"/>
     <use xlink:href="#DejaVuSans-73" x="2069.519531"/>
     <use xlink:href="#DejaVuSans-74" x="2121.619141"/>
     <use xlink:href="#DejaVuSans-61" x="2160.828125"/>
     <use xlink:href="#DejaVuSans-6e" x="2222.107422"/>
     <use xlink:href="#DejaVuSans-63" x="2285.486328"/>
     <use xlink:href="#DejaVuSans-65" x="2340.466797"/>
     <use xlink:href="#DejaVuSans-73" x="2401.990234"/>
     <use xlink:href="#DejaVuSans-20" x="2454.089844"/>
     <use xlink:href="#DejaVuSans-62" x="2485.876953"/>
     <use xlink:href="#DejaVuSans-79" x="2549.353516"/>
     <use xlink:href="#DejaVuSans-20" x="2608.533203"/>
     <use xlink:href="#DejaVuSans-44" x="2640.320312"/>
     <use xlink:href="#DejaVuSans-69" x="2717.322266"/>
     <use xlink:href="#DejaVuSans-73" x="2745.105469"/>
     <use xlink:href="#DejaVuSans-74" x="2797.205078"/>
     <use xlink:href="#DejaVuSans-72" x="2836.414062"/>
     <use xlink:href="#DejaVuSans-69" x="2877.527344"/>
     <use xlink:href="#DejaVuSans-62" x="2905.310547"/>
     <use xlink:href="#DejaVuSans-75" x="2968.787109"/>
     <use xlink:href="#DejaVuSans-74" x="3032.166016"/>
     <use xlink:href="#DejaVuSans-69" x="3071.375"/>
     <use xlink:href="#DejaVuSans-6f" x="3099.158203"/>
     <use xlink:href="#DejaVuSans-6e" x="3160.339844"/>
    </g>
   </g>
   <g id="text_22">
    <!-- 2024-12-19 15:59 UTC -->
    <g transform="translate(794.653875 18.14175) scale(0.144 -0.144)">
     <defs>
      <path id="DejaVuSans-3a" d="M 750 794 
L 1409 794 
L 1409 0 
L 750 0 
L 750 794 
z
M 750 3309 
L 1409 3309 
L 1409 2516 
L 750 2516 
L 750 3309 
z
" transform="scale(0.015625)"/>
      <path id="DejaVuSans-55" d="M 556 4666 
L 1191 4666 
L 1191 1831 
Q 1191 1081 1462 751 
Q 1734 422 2344 422 
Q 2950 422 3222 751 
Q 3494 1081 3494 1831 
L 3494 4666 
L 4128 4666 
L 4128 1753 
Q 4128 841 3676 375 
Q 3225 -91 2344 -91 
Q 1459 -91 1007 375 
Q 556 841 556 1753 
L 556 4666 
z
" transform="scale(0.015625)"/>
      <path id="DejaVuSans-54" d="M -19 4666 
L 3928 4666 
L 3928 4134 
L 2272 4134 
L 2272 0 
L 1638 0 
L 1638 4134 
L -19 4134 
L -19 4666 
z
" transform="scale(0.015625)"/>
      <path id="DejaVuSans-43" d="M 4122 4306 
L 4122 3641 
Q 3803 3938 3442 4084 
Q 3081 4231 2675 4231 
Q 1875 4231 1450 3742 
Q 1025 3253 1025 2328 
Q 1025 1406 1450 917 
Q 1875 428 2675 428 
Q 3081 428 3442 575 
Q 3803 722 4122 1019 
L 4122 359 
Q 3791 134 3420 21 
Q 3050 -91 2638 -91 
Q 1578 -91 968 557 
Q 359 1206 359 2328 
Q 359 3453 968 4101 
Q 1578 4750 2638 4750 
Q 3056 4750 3426 4639 
Q 3797 4528 4122 4306 
z
" transform="scale(0.015625)"/>
     </defs>
     <use xlink:href="#DejaVuSans-32"/>
     <use xlink:href="#DejaVuSans-30" x="63.623047"/>
     <use xlink:href="#DejaVuSans-32" x="127.246094"/>
     <use xlink:href="#DejaVuSans-34" x="190.869141"/>
     <use xlink:href="#DejaVuSans-2d" x="254.492188"/>
     <use xlink:href="#DejaVuSans-31" x="290.576172"/>
     <use xlink:href="#DejaVuSans-32" x="354.199219"/>
     <use xlink:href="#DejaVuSans-2d" x="417.822266"/>
     <use xlink:href="#DejaVuSans-31" x="453.90625"/>
     <use xlink:href="#DejaVuSans-39" x="517.529297"/>
     <use xlink:href="#DejaVuSans-20" x="581.152344"/>
     <use xlink:href="#DejaVuSans-31" x="612.939453"/>
     <use xlink:href="#DejaVuSans-35" x="676.5625"/>
     <use xlink:href="#DejaVuSans-3a" x="740.185547"/>
     <use xlink:href="#DejaVuSans-35" x="773.876953"/>
     <use xlink:href="#DejaVuSans-39" x="837.5"/>
     <use xlink:href="#DejaVuSans-20" x="901.123047"/>
     <use xlink:href="#DejaVuSans-55" x="932.910156"/>
     <use xlink:href="#DejaVuSans-54" x="1006.103516"/>
     <use xlink:href="#DejaVuSans-43" x="1061.3125"/>
    </g>
   </g>
   <g id="legend_1">
    <g id="patch_7">
     <path d="M 61.691875 134.888625 
L 170.660625 134.888625 
Q 172.660625 134.888625 172.660625 132.888625 
L 172.660625 31.14175 
Q 172.660625 29.14175 170.660625 29.14175 
L 61.691875 29.14175 
Q 59.691875 29.14175 59.691875 31.14175 
L 59.691875 132.888625 
Q 59.691875 134.888625 61.691875 134.888625 
z
" style="fill: #e5e5e5; opacity: 0.8; stroke: #cccccc; stroke-width: 0.5; stroke-linejoin: miter"/>
    </g>
    <g id="text_23">
     <!-- Distribution -->
     <g transform="translate(87.0075 40.740188) scale(0.1 -0.1)">
      <use xlink:href="#DejaVuSans-44"/>
      <use xlink:href="#DejaVuSans-69" x="77.001953"/>
      <use xlink:href="#DejaVuSans-73" x="104.785156"/>
      <use xlink:href="#DejaVuSans-74" x="156.884766"/>
      <use xlink:href="#DejaVuSans-72" x="196.09375"/>
      <use xlink:href="#DejaVuSans-69" x="237.207031"/>
      <use xlink:href="#DejaVuSans-62" x="264.990234"/>
      <use xlink:href="#DejaVuSans-75" x="328.466797"/>
      <use xlink:href="#DejaVuSans-74" x="391.845703"/>
      <use xlink:href="#DejaVuSans-69" x="431.054688"/>
      <use xlink:href="#DejaVuSans-6f" x="458.837891"/>
      <use xlink:href="#DejaVuSans-6e" x="520.019531"/>
     </g>
    </g>
    <g id="line2d_49">
     <path d="M 63.691875 51.918313 
L 73.691875 51.918313 
L 83.691875 51.918313 
" style="fill: none; stroke: #4ac1fa; stroke-width: 1.5; stroke-linecap: square"/>
    </g>
    <g id="text_24">
     <!-- AlmaLinux -->
     <g transform="translate(91.691875 55.418313) scale(0.1 -0.1)">
      <defs>
       <path id="DejaVuSans-41" d="M 2188 4044 
L 1331 1722 
L 3047 1722 
L 2188 4044 
z
M 1831 4666 
L 2547 4666 
L 4325 0 
L 3669 0 
L 3244 1197 
L 1141 1197 
L 716 0 
L 50 0 
L 1831 4666 
z
" transform="scale(0.015625)"/>
      </defs>
      <use xlink:href="#DejaVuSans-41"/>
      <use xlink:href="#DejaVuSans-6c" x="68.408203"/>
      <use xlink:href="#DejaVuSans-6d" x="96.191406"/>
      <use xlink:href="#DejaVuSans-61" x="193.603516"/>
      <use xlink:href="#DejaVuSans-4c" x="254.882812"/>
      <use xlink:href="#DejaVuSans-69" x="310.595703"/>
      <use xlink:href="#DejaVuSans-6e" x="338.378906"/>
      <use xlink:href="#DejaVuSans-75" x="401.757812"/>
      <use xlink:href="#DejaVuSans-78" x="465.136719"/>
     </g>
    </g>
    <g id="line2d_50">
     <path d="M 63.691875 66.596438 
L 73.691875 66.596438 
L 83.691875 66.596438 
" style="fill: none; stroke: #e9a942; stroke-width: 1.5; stroke-linecap: square"/>
    </g>
    <g id="text_25">
     <!-- CentOS Legacy -->
     <g transform="translate(91.691875 70.096438) scale(0.1 -0.1)">
      <defs>
       <path id="DejaVuSans-4f" d="M 2522 4238 
Q 1834 4238 1429 3725 
Q 1025 3213 1025 2328 
Q 1025 1447 1429 934 
Q 1834 422 2522 422 
Q 3209 422 3611 934 
Q 4013 1447 4013 2328 
Q 4013 3213 3611 3725 
Q 3209 4238 2522 4238 
z
M 2522 4750 
Q 3503 4750 4090 4092 
Q 4678 3434 4678 2328 
Q 4678 1225 4090 567 
Q 3503 -91 2522 -91 
Q 1538 -91 948 565 
Q 359 1222 359 2328 
Q 359 3434 948 4092 
Q 1538 4750 2522 4750 
z
" transform="scale(0.015625)"/>
       <path id="DejaVuSans-53" d="M 3425 4513 
L 3425 3897 
Q 3066 4069 2747 4153 
Q 2428 4238 2131 4238 
Q 1616 4238 1336 4038 
Q 1056 3838 1056 3469 
Q 1056 3159 1242 3001 
Q 1428 2844 1947 2747 
L 2328 2669 
Q 3034 2534 3370 2195 
Q 3706 1856 3706 1288 
Q 3706 609 3251 259 
Q 2797 -91 1919 -91 
Q 1588 -91 1214 -16 
Q 841 59 441 206 
L 441 856 
Q 825 641 1194 531 
Q 1563 422 1919 422 
Q 2459 422 2753 634 
Q 3047 847 3047 1241 
Q 3047 1584 2836 1778 
Q 2625 1972 2144 2069 
L 1759 2144 
Q 1053 2284 737 2584 
Q 422 2884 422 3419 
Q 422 4038 858 4394 
Q 1294 4750 2059 4750 
Q 2388 4750 2728 4690 
Q 3069 4631 3425 4513 
z
" transform="scale(0.015625)"/>
       <path id="DejaVuSans-67" d="M 2906 1791 
Q 2906 2416 2648 2759 
Q 2391 3103 1925 3103 
Q 1463 3103 1205 2759 
Q 947 2416 947 1791 
Q 947 1169 1205 825 
Q 1463 481 1925 481 
Q 2391 481 2648 825 
Q 2906 1169 2906 1791 
z
M 3481 434 
Q 3481 -459 3084 -895 
Q 2688 -1331 1869 -1331 
Q 1566 -1331 1297 -1286 
Q 1028 -1241 775 -1147 
L 775 -588 
Q 1028 -725 1275 -790 
Q 1522 -856 1778 -856 
Q 2344 -856 2625 -561 
Q 2906 -266 2906 331 
L 2906 616 
Q 2728 306 2450 153 
Q 2172 0 1784 0 
Q 1141 0 747 490 
Q 353 981 353 1791 
Q 353 2603 747 3093 
Q 1141 3584 1784 3584 
Q 2172 3584 2450 3431 
Q 2728 3278 2906 2969 
L 2906 3500 
L 3481 3500 
L 3481 434 
z
" transform="scale(0.015625)"/>
      </defs>
      <use xlink:href="#DejaVuSans-43"/>
      <use xlink:href="#DejaVuSans-65" x="69.824219"/>
      <use xlink:href="#DejaVuSans-6e" x="131.347656"/>
      <use xlink:href="#DejaVuSans-74" x="194.726562"/>
      <use xlink:href="#DejaVuSans-4f" x="233.935547"/>
      <use xlink:href="#DejaVuSans-53" x="312.646484"/>
      <use xlink:href="#DejaVuSans-20" x="376.123047"/>
      <use xlink:href="#DejaVuSans-4c" x="407.910156"/>
      <use xlink:href="#DejaVuSans-65" x="461.873047"/>
      <use xlink:href="#DejaVuSans-67" x="523.396484"/>
      <use xlink:href="#DejaVuSans-61" x="586.873047"/>
      <use xlink:href="#DejaVuSans-63" x="648.152344"/>
      <use xlink:href="#DejaVuSans-79" x="703.132812"/>
     </g>
    </g>
    <g id="line2d_51">
     <path d="M 63.691875 81.274563 
L 73.691875 81.274563 
L 83.691875 81.274563 
" style="fill: none; stroke: #9a5689; stroke-width: 1.5; stroke-linecap: square"/>
    </g>
    <g id="text_26">
     <!-- CentOS Stream -->
     <g transform="translate(91.691875 84.774563) scale(0.1 -0.1)">
      <use xlink:href="#DejaVuSans-43"/>
      <use xlink:href="#DejaVuSans-65" x="69.824219"/>
      <use xlink:href="#DejaVuSans-6e" x="131.347656"/>
      <use xlink:href="#DejaVuSans-74" x="194.726562"/>
      <use xlink:href="#DejaVuSans-4f" x="233.935547"/>
      <use xlink:href="#DejaVuSans-53" x="312.646484"/>
      <use xlink:href="#DejaVuSans-20" x="376.123047"/>
      <use xlink:href="#DejaVuSans-53" x="407.910156"/>
      <use xlink:href="#DejaVuSans-74" x="471.386719"/>
      <use xlink:href="#DejaVuSans-72" x="510.595703"/>
      <use xlink:href="#DejaVuSans-65" x="549.458984"/>
      <use xlink:href="#DejaVuSans-61" x="610.982422"/>
      <use xlink:href="#DejaVuSans-6d" x="672.261719"/>
     </g>
    </g>
    <g id="line2d_52">
     <path d="M 63.691875 95.952688 
L 73.691875 95.952688 
L 83.691875 95.952688 
" style="fill: none; stroke: #be503b; stroke-width: 1.5; stroke-linecap: square"/>
    </g>
    <g id="text_27">
     <!-- Oracle -->
     <g transform="translate(91.691875 99.452688) scale(0.1 -0.1)">
      <use xlink:href="#DejaVuSans-4f"/>
      <use xlink:href="#DejaVuSans-72" x="78.710938"/>
      <use xlink:href="#DejaVuSans-61" x="119.824219"/>
      <use xlink:href="#DejaVuSans-63" x="181.103516"/>
      <use xlink:href="#DejaVuSans-6c" x="236.083984"/>
      <use xlink:href="#DejaVuSans-65" x="263.867188"/>
     </g>
    </g>
    <g id="line2d_53">
     <path d="M 63.691875 110.630813 
L 73.691875 110.630813 
L 83.691875 110.630813 
" style="fill: none; stroke: #e2321d; stroke-width: 1.5; stroke-linecap: square"/>
    </g>
    <g id="text_28">
     <!-- RHEL -->
     <g transform="translate(91.691875 114.130813) scale(0.1 -0.1)">
      <defs>
       <path id="DejaVuSans-52" d="M 2841 2188 
Q 3044 2119 3236 1894 
Q 3428 1669 3622 1275 
L 4263 0 
L 3584 0 
L 2988 1197 
Q 2756 1666 2539 1819 
Q 2322 1972 1947 1972 
L 1259 1972 
L 1259 0 
L 628 0 
L 628 4666 
L 2053 4666 
Q 2853 4666 3247 4331 
Q 3641 3997 3641 3322 
Q 3641 2881 3436 2590 
Q 3231 2300 2841 2188 
z
M 1259 4147 
L 1259 2491 
L 2053 2491 
Q 2509 2491 2742 2702 
Q 2975 2913 2975 3322 
Q 2975 3731 2742 3939 
Q 2509 4147 2053 4147 
L 1259 4147 
z
" transform="scale(0.015625)"/>
       <path id="DejaVuSans-48" d="M 628 4666 
L 1259 4666 
L 1259 2753 
L 3553 2753 
L 3553 4666 
L 4184 4666 
L 4184 0 
L 3553 0 
L 3553 2222 
L 1259 2222 
L 1259 0 
L 628 0 
L 628 4666 
z
" transform="scale(0.015625)"/>
      </defs>
      <use xlink:href="#DejaVuSans-52"/>
      <use xlink:href="#DejaVuSans-48" x="69.482422"/>
      <use xlink:href="#DejaVuSans-45" x="144.677734"/>
      <use xlink:href="#DejaVuSans-4c" x="207.861328"/>
     </g>
    </g>
    <g id="line2d_54">
     <path d="M 63.691875 125.308938 
L 73.691875 125.308938 
L 83.691875 125.308938 
" style="fill: none; stroke: #48b585; stroke-width: 6; stroke-linecap: square"/>
    </g>
    <g id="text_29">
     <!-- Rocky Linux -->
     <g transform="translate(91.691875 128.808938) scale(0.1 -0.1)">
      <use xlink:href="#DejaVuSans-52"/>
      <use xlink:href="#DejaVuSans-6f" x="64.982422"/>
      <use xlink:href="#DejaVuSans-63" x="126.164062"/>
      <use xlink:href="#DejaVuSans-6b" x="181.144531"/>
      <use xlink:href="#DejaVuSans-79" x="235.429688"/>
      <use xlink:href="#DejaVuSans-20" x="294.609375"/>
      <use xlink:href="#DejaVuSans-4c" x="326.396484"/>
      <use xlink:href="#DejaVuSans-69" x="382.109375"/>
      <use xlink:href="#DejaVuSans-6e" x="409.892578"/>
      <use xlink:href="#DejaVuSans-75" x="473.271484"/>
      <use xlink:href="#DejaVuSans-78" x="536.650391"/>
     </g>
    </g>
   </g>
  </g>
 </g>
 <defs>
  <clipPath id="p9e0581ce89">
   <rect x="54.691875" y="24.14175" width="902.844" height="554.4"/>
  </clipPath>
 </defs>
</svg>
