<?xml version="1.0" encoding="utf-8" standalone="no"?>
<!DOCTYPE svg PUBLIC "-//W3C//DTD SVG 1.1//EN"
  "http://www.w3.org/Graphics/SVG/1.1/DTD/svg11.dtd">
<svg xmlns:xlink="http://www.w3.org/1999/xlink" width="964.735875pt" height="644.743878pt" viewBox="0 0 964.735875 644.743878" xmlns="http://www.w3.org/2000/svg" version="1.1">
 <metadata>
  <rdf:RDF xmlns:dc="http://purl.org/dc/elements/1.1/" xmlns:cc="http://creativecommons.org/ns#" xmlns:rdf="http://www.w3.org/1999/02/22-rdf-syntax-ns#">
   <cc:Work>
    <dc:type rdf:resource="http://purl.org/dc/dcmitype/StillImage"/>
    <dc:date>2025-09-04T11:54:50.308348</dc:date>
    <dc:format>image/svg+xml</dc:format>
    <dc:creator>
     <cc:Agent>
      <dc:title>Matplotlib v3.6.3, https://matplotlib.org/</dc:title>
     </cc:Agent>
    </dc:creator>
   </cc:Work>
  </rdf:RDF>
 </metadata>
 <defs>
  <style type="text/css">*{stroke-linejoin: round; stroke-linecap: butt}</style>
 </defs>
 <g id="figure_1">
  <g id="patch_1">
   <path d="M 0 644.743878 
L 964.735875 644.743878 
L 964.735875 0 
L 0 0 
z
" style="fill: #ffffff"/>
  </g>
  <g id="axes_1">
   <g id="patch_2">
    <path d="M 54.691875 578.54175 
L 957.535875 578.54175 
L 957.535875 24.14175 
L 54.691875 24.14175 
z
" style="fill: #e5e5e5"/>
   </g>
   <g id="matplotlib.axis_1">
    <g id="xtick_1">
     <g id="line2d_1">
      <path d="M 72.394699 578.54175 
L 72.394699 24.14175 
" clip-path="url(#pe0be39aa18)" style="fill: none; stroke: #ffffff; stroke-width: 0.8; stroke-linecap: square"/>
     </g>
     <g id="line2d_2">
      <defs>
       <path id="m702bfeb2a9" d="M 0 0 
L 0 3.5 
" style="stroke: #555555; stroke-width: 0.8"/>
      </defs>
      <g>
       <use xlink:href="#m702bfeb2a9" x="72.394699" y="578.54175" style="fill: #555555; stroke: #555555; stroke-width: 0.8"/>
      </g>
     </g>
     <g id="text_1">
      <!-- 2024-09 -->
      <g style="fill: #555555" transform="translate(59.573416 620.459567) rotate(-45) scale(0.1 -0.1)">
       <defs>
        <path id="DejaVuSans-32" d="M 1228 531 
L 3431 531 
L 3431 0 
L 469 0 
L 469 531 
Q 828 903 1448 1529 
Q 2069 2156 2228 2338 
Q 2531 2678 2651 2914 
Q 2772 3150 2772 3378 
Q 2772 3750 2511 3984 
Q 2250 4219 1831 4219 
Q 1534 4219 1204 4116 
Q 875 4013 500 3803 
L 500 4441 
Q 881 4594 1212 4672 
Q 1544 4750 1819 4750 
Q 2544 4750 2975 4387 
Q 3406 4025 3406 3419 
Q 3406 3131 3298 2873 
Q 3191 2616 2906 2266 
Q 2828 2175 2409 1742 
Q 1991 1309 1228 531 
z
" transform="scale(0.015625)"/>
        <path id="DejaVuSans-30" d="M 2034 4250 
Q 1547 4250 1301 3770 
Q 1056 3291 1056 2328 
Q 1056 1369 1301 889 
Q 1547 409 2034 409 
Q 2525 409 2770 889 
Q 3016 1369 3016 2328 
Q 3016 3291 2770 3770 
Q 2525 4250 2034 4250 
z
M 2034 4750 
Q 2819 4750 3233 4129 
Q 3647 3509 3647 2328 
Q 3647 1150 3233 529 
Q 2819 -91 2034 -91 
Q 1250 -91 836 529 
Q 422 1150 422 2328 
Q 422 3509 836 4129 
Q 1250 4750 2034 4750 
z
" transform="scale(0.015625)"/>
        <path id="DejaVuSans-34" d="M 2419 4116 
L 825 1625 
L 2419 1625 
L 2419 4116 
z
M 2253 4666 
L 3047 4666 
L 3047 1625 
L 3713 1625 
L 3713 1100 
L 3047 1100 
L 3047 0 
L 2419 0 
L 2419 1100 
L 313 1100 
L 313 1709 
L 2253 4666 
z
" transform="scale(0.015625)"/>
        <path id="DejaVuSans-2d" d="M 313 2009 
L 1997 2009 
L 1997 1497 
L 313 1497 
L 313 2009 
z
" transform="scale(0.015625)"/>
        <path id="DejaVuSans-39" d="M 703 97 
L 703 672 
Q 941 559 1184 500 
Q 1428 441 1663 441 
Q 2288 441 2617 861 
Q 2947 1281 2994 2138 
Q 2813 1869 2534 1725 
Q 2256 1581 1919 1581 
Q 1219 1581 811 2004 
Q 403 2428 403 3163 
Q 403 3881 828 4315 
Q 1253 4750 1959 4750 
Q 2769 4750 3195 4129 
Q 3622 3509 3622 2328 
Q 3622 1225 3098 567 
Q 2575 -91 1691 -91 
Q 1453 -91 1209 -44 
Q 966 3 703 97 
z
M 1959 2075 
Q 2384 2075 2632 2365 
Q 2881 2656 2881 3163 
Q 2881 3666 2632 3958 
Q 2384 4250 1959 4250 
Q 1534 4250 1286 3958 
Q 1038 3666 1038 3163 
Q 1038 2656 1286 2365 
Q 1534 2075 1959 2075 
z
" transform="scale(0.015625)"/>
       </defs>
       <use xlink:href="#DejaVuSans-32"/>
       <use xlink:href="#DejaVuSans-30" x="63.623047"/>
       <use xlink:href="#DejaVuSans-32" x="127.246094"/>
       <use xlink:href="#DejaVuSans-34" x="190.869141"/>
       <use xlink:href="#DejaVuSans-2d" x="254.492188"/>
       <use xlink:href="#DejaVuSans-30" x="290.576172"/>
       <use xlink:href="#DejaVuSans-39" x="354.199219"/>
      </g>
     </g>
    </g>
    <g id="xtick_2">
     <g id="line2d_3">
      <path d="M 148.263942 578.54175 
L 148.263942 24.14175 
" clip-path="url(#pe0be39aa18)" style="fill: none; stroke: #ffffff; stroke-width: 0.8; stroke-linecap: square"/>
     </g>
     <g id="line2d_4">
      <g>
       <use xlink:href="#m702bfeb2a9" x="148.263942" y="578.54175" style="fill: #555555; stroke: #555555; stroke-width: 0.8"/>
      </g>
     </g>
     <g id="text_2">
      <!-- 2024-10 -->
      <g style="fill: #555555" transform="translate(135.44266 620.459567) rotate(-45) scale(0.1 -0.1)">
       <defs>
        <path id="DejaVuSans-31" d="M 794 531 
L 1825 531 
L 1825 4091 
L 703 3866 
L 703 4441 
L 1819 4666 
L 2450 4666 
L 2450 531 
L 3481 531 
L 3481 0 
L 794 0 
L 794 531 
z
" transform="scale(0.015625)"/>
       </defs>
       <use xlink:href="#DejaVuSans-32"/>
       <use xlink:href="#DejaVuSans-30" x="63.623047"/>
       <use xlink:href="#DejaVuSans-32" x="127.246094"/>
       <use xlink:href="#DejaVuSans-34" x="190.869141"/>
       <use xlink:href="#DejaVuSans-2d" x="254.492188"/>
       <use xlink:href="#DejaVuSans-31" x="290.576172"/>
       <use xlink:href="#DejaVuSans-30" x="354.199219"/>
      </g>
     </g>
    </g>
    <g id="xtick_3">
     <g id="line2d_5">
      <path d="M 226.662161 578.54175 
L 226.662161 24.14175 
" clip-path="url(#pe0be39aa18)" style="fill: none; stroke: #ffffff; stroke-width: 0.8; stroke-linecap: square"/>
     </g>
     <g id="line2d_6">
      <g>
       <use xlink:href="#m702bfeb2a9" x="226.662161" y="578.54175" style="fill: #555555; stroke: #555555; stroke-width: 0.8"/>
      </g>
     </g>
     <g id="text_3">
      <!-- 2024-11 -->
      <g style="fill: #555555" transform="translate(213.840878 620.459567) rotate(-45) scale(0.1 -0.1)">
       <use xlink:href="#DejaVuSans-32"/>
       <use xlink:href="#DejaVuSans-30" x="63.623047"/>
       <use xlink:href="#DejaVuSans-32" x="127.246094"/>
       <use xlink:href="#DejaVuSans-34" x="190.869141"/>
       <use xlink:href="#DejaVuSans-2d" x="254.492188"/>
       <use xlink:href="#DejaVuSans-31" x="290.576172"/>
       <use xlink:href="#DejaVuSans-31" x="354.199219"/>
      </g>
     </g>
    </g>
    <g id="xtick_4">
     <g id="line2d_7">
      <path d="M 302.531404 578.54175 
L 302.531404 24.14175 
" clip-path="url(#pe0be39aa18)" style="fill: none; stroke: #ffffff; stroke-width: 0.8; stroke-linecap: square"/>
     </g>
     <g id="line2d_8">
      <g>
       <use xlink:href="#m702bfeb2a9" x="302.531404" y="578.54175" style="fill: #555555; stroke: #555555; stroke-width: 0.8"/>
      </g>
     </g>
     <g id="text_4">
      <!-- 2024-12 -->
      <g style="fill: #555555" transform="translate(289.710122 620.459567) rotate(-45) scale(0.1 -0.1)">
       <use xlink:href="#DejaVuSans-32"/>
       <use xlink:href="#DejaVuSans-30" x="63.623047"/>
       <use xlink:href="#DejaVuSans-32" x="127.246094"/>
       <use xlink:href="#DejaVuSans-34" x="190.869141"/>
       <use xlink:href="#DejaVuSans-2d" x="254.492188"/>
       <use xlink:href="#DejaVuSans-31" x="290.576172"/>
       <use xlink:href="#DejaVuSans-32" x="354.199219"/>
      </g>
     </g>
    </g>
    <g id="xtick_5">
     <g id="line2d_9">
      <path d="M 380.929623 578.54175 
L 380.929623 24.14175 
" clip-path="url(#pe0be39aa18)" style="fill: none; stroke: #ffffff; stroke-width: 0.8; stroke-linecap: square"/>
     </g>
     <g id="line2d_10">
      <g>
       <use xlink:href="#m702bfeb2a9" x="380.929623" y="578.54175" style="fill: #555555; stroke: #555555; stroke-width: 0.8"/>
      </g>
     </g>
     <g id="text_5">
      <!-- 2025-01 -->
      <g style="fill: #555555" transform="translate(368.108341 620.459567) rotate(-45) scale(0.1 -0.1)">
       <defs>
        <path id="DejaVuSans-35" d="M 691 4666 
L 3169 4666 
L 3169 4134 
L 1269 4134 
L 1269 2991 
Q 1406 3038 1543 3061 
Q 1681 3084 1819 3084 
Q 2600 3084 3056 2656 
Q 3513 2228 3513 1497 
Q 3513 744 3044 326 
Q 2575 -91 1722 -91 
Q 1428 -91 1123 -41 
Q 819 9 494 109 
L 494 744 
Q 775 591 1075 516 
Q 1375 441 1709 441 
Q 2250 441 2565 725 
Q 2881 1009 2881 1497 
Q 2881 1984 2565 2268 
Q 2250 2553 1709 2553 
Q 1456 2553 1204 2497 
Q 953 2441 691 2322 
L 691 4666 
z
" transform="scale(0.015625)"/>
       </defs>
       <use xlink:href="#DejaVuSans-32"/>
       <use xlink:href="#DejaVuSans-30" x="63.623047"/>
       <use xlink:href="#DejaVuSans-32" x="127.246094"/>
       <use xlink:href="#DejaVuSans-35" x="190.869141"/>
       <use xlink:href="#DejaVuSans-2d" x="254.492188"/>
       <use xlink:href="#DejaVuSans-30" x="290.576172"/>
       <use xlink:href="#DejaVuSans-31" x="354.199219"/>
      </g>
     </g>
    </g>
    <g id="xtick_6">
     <g id="line2d_11">
      <path d="M 459.327841 578.54175 
L 459.327841 24.14175 
" clip-path="url(#pe0be39aa18)" style="fill: none; stroke: #ffffff; stroke-width: 0.8; stroke-linecap: square"/>
     </g>
     <g id="line2d_12">
      <g>
       <use xlink:href="#m702bfeb2a9" x="459.327841" y="578.54175" style="fill: #555555; stroke: #555555; stroke-width: 0.8"/>
      </g>
     </g>
     <g id="text_6">
      <!-- 2025-02 -->
      <g style="fill: #555555" transform="translate(446.506559 620.459567) rotate(-45) scale(0.1 -0.1)">
       <use xlink:href="#DejaVuSans-32"/>
       <use xlink:href="#DejaVuSans-30" x="63.623047"/>
       <use xlink:href="#DejaVuSans-32" x="127.246094"/>
       <use xlink:href="#DejaVuSans-35" x="190.869141"/>
       <use xlink:href="#DejaVuSans-2d" x="254.492188"/>
       <use xlink:href="#DejaVuSans-30" x="290.576172"/>
       <use xlink:href="#DejaVuSans-32" x="354.199219"/>
      </g>
     </g>
    </g>
    <g id="xtick_7">
     <g id="line2d_13">
      <path d="M 530.139136 578.54175 
L 530.139136 24.14175 
" clip-path="url(#pe0be39aa18)" style="fill: none; stroke: #ffffff; stroke-width: 0.8; stroke-linecap: square"/>
     </g>
     <g id="line2d_14">
      <g>
       <use xlink:href="#m702bfeb2a9" x="530.139136" y="578.54175" style="fill: #555555; stroke: #555555; stroke-width: 0.8"/>
      </g>
     </g>
     <g id="text_7">
      <!-- 2025-03 -->
      <g style="fill: #555555" transform="translate(517.317853 620.459567) rotate(-45) scale(0.1 -0.1)">
       <defs>
        <path id="DejaVuSans-33" d="M 2597 2516 
Q 3050 2419 3304 2112 
Q 3559 1806 3559 1356 
Q 3559 666 3084 287 
Q 2609 -91 1734 -91 
Q 1441 -91 1130 -33 
Q 819 25 488 141 
L 488 750 
Q 750 597 1062 519 
Q 1375 441 1716 441 
Q 2309 441 2620 675 
Q 2931 909 2931 1356 
Q 2931 1769 2642 2001 
Q 2353 2234 1838 2234 
L 1294 2234 
L 1294 2753 
L 1863 2753 
Q 2328 2753 2575 2939 
Q 2822 3125 2822 3475 
Q 2822 3834 2567 4026 
Q 2313 4219 1838 4219 
Q 1578 4219 1281 4162 
Q 984 4106 628 3988 
L 628 4550 
Q 988 4650 1302 4700 
Q 1616 4750 1894 4750 
Q 2613 4750 3031 4423 
Q 3450 4097 3450 3541 
Q 3450 3153 3228 2886 
Q 3006 2619 2597 2516 
z
" transform="scale(0.015625)"/>
       </defs>
       <use xlink:href="#DejaVuSans-32"/>
       <use xlink:href="#DejaVuSans-30" x="63.623047"/>
       <use xlink:href="#DejaVuSans-32" x="127.246094"/>
       <use xlink:href="#DejaVuSans-35" x="190.869141"/>
       <use xlink:href="#DejaVuSans-2d" x="254.492188"/>
       <use xlink:href="#DejaVuSans-30" x="290.576172"/>
       <use xlink:href="#DejaVuSans-33" x="354.199219"/>
      </g>
     </g>
    </g>
    <g id="xtick_8">
     <g id="line2d_15">
      <path d="M 608.537354 578.54175 
L 608.537354 24.14175 
" clip-path="url(#pe0be39aa18)" style="fill: none; stroke: #ffffff; stroke-width: 0.8; stroke-linecap: square"/>
     </g>
     <g id="line2d_16">
      <g>
       <use xlink:href="#m702bfeb2a9" x="608.537354" y="578.54175" style="fill: #555555; stroke: #555555; stroke-width: 0.8"/>
      </g>
     </g>
     <g id="text_8">
      <!-- 2025-04 -->
      <g style="fill: #555555" transform="translate(595.716072 620.459567) rotate(-45) scale(0.1 -0.1)">
       <use xlink:href="#DejaVuSans-32"/>
       <use xlink:href="#DejaVuSans-30" x="63.623047"/>
       <use xlink:href="#DejaVuSans-32" x="127.246094"/>
       <use xlink:href="#DejaVuSans-35" x="190.869141"/>
       <use xlink:href="#DejaVuSans-2d" x="254.492188"/>
       <use xlink:href="#DejaVuSans-30" x="290.576172"/>
       <use xlink:href="#DejaVuSans-34" x="354.199219"/>
      </g>
     </g>
    </g>
    <g id="xtick_9">
     <g id="line2d_17">
      <path d="M 684.406598 578.54175 
L 684.406598 24.14175 
" clip-path="url(#pe0be39aa18)" style="fill: none; stroke: #ffffff; stroke-width: 0.8; stroke-linecap: square"/>
     </g>
     <g id="line2d_18">
      <g>
       <use xlink:href="#m702bfeb2a9" x="684.406598" y="578.54175" style="fill: #555555; stroke: #555555; stroke-width: 0.8"/>
      </g>
     </g>
     <g id="text_9">
      <!-- 2025-05 -->
      <g style="fill: #555555" transform="translate(671.585315 620.459567) rotate(-45) scale(0.1 -0.1)">
       <use xlink:href="#DejaVuSans-32"/>
       <use xlink:href="#DejaVuSans-30" x="63.623047"/>
       <use xlink:href="#DejaVuSans-32" x="127.246094"/>
       <use xlink:href="#DejaVuSans-35" x="190.869141"/>
       <use xlink:href="#DejaVuSans-2d" x="254.492188"/>
       <use xlink:href="#DejaVuSans-30" x="290.576172"/>
       <use xlink:href="#DejaVuSans-35" x="354.199219"/>
      </g>
     </g>
    </g>
    <g id="xtick_10">
     <g id="line2d_19">
      <path d="M 762.804816 578.54175 
L 762.804816 24.14175 
" clip-path="url(#pe0be39aa18)" style="fill: none; stroke: #ffffff; stroke-width: 0.8; stroke-linecap: square"/>
     </g>
     <g id="line2d_20">
      <g>
       <use xlink:href="#m702bfeb2a9" x="762.804816" y="578.54175" style="fill: #555555; stroke: #555555; stroke-width: 0.8"/>
      </g>
     </g>
     <g id="text_10">
      <!-- 2025-06 -->
      <g style="fill: #555555" transform="translate(749.983534 620.459567) rotate(-45) scale(0.1 -0.1)">
       <defs>
        <path id="DejaVuSans-36" d="M 2113 2584 
Q 1688 2584 1439 2293 
Q 1191 2003 1191 1497 
Q 1191 994 1439 701 
Q 1688 409 2113 409 
Q 2538 409 2786 701 
Q 3034 994 3034 1497 
Q 3034 2003 2786 2293 
Q 2538 2584 2113 2584 
z
M 3366 4563 
L 3366 3988 
Q 3128 4100 2886 4159 
Q 2644 4219 2406 4219 
Q 1781 4219 1451 3797 
Q 1122 3375 1075 2522 
Q 1259 2794 1537 2939 
Q 1816 3084 2150 3084 
Q 2853 3084 3261 2657 
Q 3669 2231 3669 1497 
Q 3669 778 3244 343 
Q 2819 -91 2113 -91 
Q 1303 -91 875 529 
Q 447 1150 447 2328 
Q 447 3434 972 4092 
Q 1497 4750 2381 4750 
Q 2619 4750 2861 4703 
Q 3103 4656 3366 4563 
z
" transform="scale(0.015625)"/>
       </defs>
       <use xlink:href="#DejaVuSans-32"/>
       <use xlink:href="#DejaVuSans-30" x="63.623047"/>
       <use xlink:href="#DejaVuSans-32" x="127.246094"/>
       <use xlink:href="#DejaVuSans-35" x="190.869141"/>
       <use xlink:href="#DejaVuSans-2d" x="254.492188"/>
       <use xlink:href="#DejaVuSans-30" x="290.576172"/>
       <use xlink:href="#DejaVuSans-36" x="354.199219"/>
      </g>
     </g>
    </g>
    <g id="xtick_11">
     <g id="line2d_21">
      <path d="M 838.67406 578.54175 
L 838.67406 24.14175 
" clip-path="url(#pe0be39aa18)" style="fill: none; stroke: #ffffff; stroke-width: 0.8; stroke-linecap: square"/>
     </g>
     <g id="line2d_22">
      <g>
       <use xlink:href="#m702bfeb2a9" x="838.67406" y="578.54175" style="fill: #555555; stroke: #555555; stroke-width: 0.8"/>
      </g>
     </g>
     <g id="text_11">
      <!-- 2025-07 -->
      <g style="fill: #555555" transform="translate(825.852778 620.459567) rotate(-45) scale(0.1 -0.1)">
       <defs>
        <path id="DejaVuSans-37" d="M 525 4666 
L 3525 4666 
L 3525 4397 
L 1831 0 
L 1172 0 
L 2766 4134 
L 525 4134 
L 525 4666 
z
" transform="scale(0.015625)"/>
       </defs>
       <use xlink:href="#DejaVuSans-32"/>
       <use xlink:href="#DejaVuSans-30" x="63.623047"/>
       <use xlink:href="#DejaVuSans-32" x="127.246094"/>
       <use xlink:href="#DejaVuSans-35" x="190.869141"/>
       <use xlink:href="#DejaVuSans-2d" x="254.492188"/>
       <use xlink:href="#DejaVuSans-30" x="290.576172"/>
       <use xlink:href="#DejaVuSans-37" x="354.199219"/>
      </g>
     </g>
    </g>
    <g id="xtick_12">
     <g id="line2d_23">
      <path d="M 917.072278 578.54175 
L 917.072278 24.14175 
" clip-path="url(#pe0be39aa18)" style="fill: none; stroke: #ffffff; stroke-width: 0.8; stroke-linecap: square"/>
     </g>
     <g id="line2d_24">
      <g>
       <use xlink:href="#m702bfeb2a9" x="917.072278" y="578.54175" style="fill: #555555; stroke: #555555; stroke-width: 0.8"/>
      </g>
     </g>
     <g id="text_12">
      <!-- 2025-08 -->
      <g style="fill: #555555" transform="translate(904.250996 620.459567) rotate(-45) scale(0.1 -0.1)">
       <defs>
        <path id="DejaVuSans-38" d="M 2034 2216 
Q 1584 2216 1326 1975 
Q 1069 1734 1069 1313 
Q 1069 891 1326 650 
Q 1584 409 2034 409 
Q 2484 409 2743 651 
Q 3003 894 3003 1313 
Q 3003 1734 2745 1975 
Q 2488 2216 2034 2216 
z
M 1403 2484 
Q 997 2584 770 2862 
Q 544 3141 544 3541 
Q 544 4100 942 4425 
Q 1341 4750 2034 4750 
Q 2731 4750 3128 4425 
Q 3525 4100 3525 3541 
Q 3525 3141 3298 2862 
Q 3072 2584 2669 2484 
Q 3125 2378 3379 2068 
Q 3634 1759 3634 1313 
Q 3634 634 3220 271 
Q 2806 -91 2034 -91 
Q 1263 -91 848 271 
Q 434 634 434 1313 
Q 434 1759 690 2068 
Q 947 2378 1403 2484 
z
M 1172 3481 
Q 1172 3119 1398 2916 
Q 1625 2713 2034 2713 
Q 2441 2713 2670 2916 
Q 2900 3119 2900 3481 
Q 2900 3844 2670 4047 
Q 2441 4250 2034 4250 
Q 1625 4250 1398 4047 
Q 1172 3844 1172 3481 
z
" transform="scale(0.015625)"/>
       </defs>
       <use xlink:href="#DejaVuSans-32"/>
       <use xlink:href="#DejaVuSans-30" x="63.623047"/>
       <use xlink:href="#DejaVuSans-32" x="127.246094"/>
       <use xlink:href="#DejaVuSans-35" x="190.869141"/>
       <use xlink:href="#DejaVuSans-2d" x="254.492188"/>
       <use xlink:href="#DejaVuSans-30" x="290.576172"/>
       <use xlink:href="#DejaVuSans-38" x="354.199219"/>
      </g>
     </g>
    </g>
    <g id="text_13">
     <!-- Date -->
     <g style="fill: #555555" transform="translate(491.772938 635.048253) scale(0.12 -0.12)">
      <defs>
       <path id="DejaVuSans-44" d="M 1259 4147 
L 1259 519 
L 2022 519 
Q 2988 519 3436 956 
Q 3884 1394 3884 2338 
Q 3884 3275 3436 3711 
Q 2988 4147 2022 4147 
L 1259 4147 
z
M 628 4666 
L 1925 4666 
Q 3281 4666 3915 4102 
Q 4550 3538 4550 2338 
Q 4550 1131 3912 565 
Q 3275 0 1925 0 
L 628 0 
L 628 4666 
z
" transform="scale(0.015625)"/>
       <path id="DejaVuSans-61" d="M 2194 1759 
Q 1497 1759 1228 1600 
Q 959 1441 959 1056 
Q 959 750 1161 570 
Q 1363 391 1709 391 
Q 2188 391 2477 730 
Q 2766 1069 2766 1631 
L 2766 1759 
L 2194 1759 
z
M 3341 1997 
L 3341 0 
L 2766 0 
L 2766 531 
Q 2569 213 2275 61 
Q 1981 -91 1556 -91 
Q 1019 -91 701 211 
Q 384 513 384 1019 
Q 384 1609 779 1909 
Q 1175 2209 1959 2209 
L 2766 2209 
L 2766 2266 
Q 2766 2663 2505 2880 
Q 2244 3097 1772 3097 
Q 1472 3097 1187 3025 
Q 903 2953 641 2809 
L 641 3341 
Q 956 3463 1253 3523 
Q 1550 3584 1831 3584 
Q 2591 3584 2966 3190 
Q 3341 2797 3341 1997 
z
" transform="scale(0.015625)"/>
       <path id="DejaVuSans-74" d="M 1172 4494 
L 1172 3500 
L 2356 3500 
L 2356 3053 
L 1172 3053 
L 1172 1153 
Q 1172 725 1289 603 
Q 1406 481 1766 481 
L 2356 481 
L 2356 0 
L 1766 0 
Q 1100 0 847 248 
Q 594 497 594 1153 
L 594 3053 
L 172 3053 
L 172 3500 
L 594 3500 
L 594 4494 
L 1172 4494 
z
" transform="scale(0.015625)"/>
       <path id="DejaVuSans-65" d="M 3597 1894 
L 3597 1613 
L 953 1613 
Q 991 1019 1311 708 
Q 1631 397 2203 397 
Q 2534 397 2845 478 
Q 3156 559 3463 722 
L 3463 178 
Q 3153 47 2828 -22 
Q 2503 -91 2169 -91 
Q 1331 -91 842 396 
Q 353 884 353 1716 
Q 353 2575 817 3079 
Q 1281 3584 2069 3584 
Q 2775 3584 3186 3129 
Q 3597 2675 3597 1894 
z
M 3022 2063 
Q 3016 2534 2758 2815 
Q 2500 3097 2075 3097 
Q 1594 3097 1305 2825 
Q 1016 2553 972 2059 
L 3022 2063 
z
" transform="scale(0.015625)"/>
      </defs>
      <use xlink:href="#DejaVuSans-44"/>
      <use xlink:href="#DejaVuSans-61" x="77.001953"/>
      <use xlink:href="#DejaVuSans-74" x="138.28125"/>
      <use xlink:href="#DejaVuSans-65" x="177.490234"/>
     </g>
    </g>
   </g>
   <g id="matplotlib.axis_2">
    <g id="ytick_1">
     <g id="line2d_25">
      <path d="M 54.691875 578.54175 
L 957.535875 578.54175 
" clip-path="url(#pe0be39aa18)" style="fill: none; stroke: #ffffff; stroke-width: 0.8; stroke-linecap: square"/>
     </g>
     <g id="line2d_26">
      <defs>
       <path id="m9dab9db490" d="M 0 0 
L -3.5 0 
" style="stroke: #555555; stroke-width: 0.8"/>
      </defs>
      <g>
       <use xlink:href="#m9dab9db490" x="54.691875" y="578.54175" style="fill: #555555; stroke: #555555; stroke-width: 0.8"/>
      </g>
     </g>
     <g id="text_14">
      <!-- 0k -->
      <g style="fill: #555555" transform="translate(35.53875 582.340969) scale(0.1 -0.1)">
       <defs>
        <path id="DejaVuSans-6b" d="M 581 4863 
L 1159 4863 
L 1159 1991 
L 2875 3500 
L 3609 3500 
L 1753 1863 
L 3688 0 
L 2938 0 
L 1159 1709 
L 1159 0 
L 581 0 
L 581 4863 
z
" transform="scale(0.015625)"/>
       </defs>
       <use xlink:href="#DejaVuSans-30"/>
       <use xlink:href="#DejaVuSans-6b" x="63.623047"/>
      </g>
     </g>
    </g>
    <g id="ytick_2">
     <g id="line2d_27">
      <path d="M 54.691875 505.397894 
L 957.535875 505.397894 
" clip-path="url(#pe0be39aa18)" style="fill: none; stroke: #ffffff; stroke-width: 0.8; stroke-linecap: square"/>
     </g>
     <g id="line2d_28">
      <g>
       <use xlink:href="#m9dab9db490" x="54.691875" y="505.397894" style="fill: #555555; stroke: #555555; stroke-width: 0.8"/>
      </g>
     </g>
     <g id="text_15">
      <!-- 100k -->
      <g style="fill: #555555" transform="translate(22.81375 509.197113) scale(0.1 -0.1)">
       <use xlink:href="#DejaVuSans-31"/>
       <use xlink:href="#DejaVuSans-30" x="63.623047"/>
       <use xlink:href="#DejaVuSans-30" x="127.246094"/>
       <use xlink:href="#DejaVuSans-6b" x="190.869141"/>
      </g>
     </g>
    </g>
    <g id="ytick_3">
     <g id="line2d_29">
      <path d="M 54.691875 432.254038 
L 957.535875 432.254038 
" clip-path="url(#pe0be39aa18)" style="fill: none; stroke: #ffffff; stroke-width: 0.8; stroke-linecap: square"/>
     </g>
     <g id="line2d_30">
      <g>
       <use xlink:href="#m9dab9db490" x="54.691875" y="432.254038" style="fill: #555555; stroke: #555555; stroke-width: 0.8"/>
      </g>
     </g>
     <g id="text_16">
      <!-- 200k -->
      <g style="fill: #555555" transform="translate(22.81375 436.053257) scale(0.1 -0.1)">
       <use xlink:href="#DejaVuSans-32"/>
       <use xlink:href="#DejaVuSans-30" x="63.623047"/>
       <use xlink:href="#DejaVuSans-30" x="127.246094"/>
       <use xlink:href="#DejaVuSans-6b" x="190.869141"/>
      </g>
     </g>
    </g>
    <g id="ytick_4">
     <g id="line2d_31">
      <path d="M 54.691875 359.110182 
L 957.535875 359.110182 
" clip-path="url(#pe0be39aa18)" style="fill: none; stroke: #ffffff; stroke-width: 0.8; stroke-linecap: square"/>
     </g>
     <g id="line2d_32">
      <g>
       <use xlink:href="#m9dab9db490" x="54.691875" y="359.110182" style="fill: #555555; stroke: #555555; stroke-width: 0.8"/>
      </g>
     </g>
     <g id="text_17">
      <!-- 300k -->
      <g style="fill: #555555" transform="translate(22.81375 362.909401) scale(0.1 -0.1)">
       <use xlink:href="#DejaVuSans-33"/>
       <use xlink:href="#DejaVuSans-30" x="63.623047"/>
       <use xlink:href="#DejaVuSans-30" x="127.246094"/>
       <use xlink:href="#DejaVuSans-6b" x="190.869141"/>
      </g>
     </g>
    </g>
    <g id="ytick_5">
     <g id="line2d_33">
      <path d="M 54.691875 285.966326 
L 957.535875 285.966326 
" clip-path="url(#pe0be39aa18)" style="fill: none; stroke: #ffffff; stroke-width: 0.8; stroke-linecap: square"/>
     </g>
     <g id="line2d_34">
      <g>
       <use xlink:href="#m9dab9db490" x="54.691875" y="285.966326" style="fill: #555555; stroke: #555555; stroke-width: 0.8"/>
      </g>
     </g>
     <g id="text_18">
      <!-- 400k -->
      <g style="fill: #555555" transform="translate(22.81375 289.765545) scale(0.1 -0.1)">
       <use xlink:href="#DejaVuSans-34"/>
       <use xlink:href="#DejaVuSans-30" x="63.623047"/>
       <use xlink:href="#DejaVuSans-30" x="127.246094"/>
       <use xlink:href="#DejaVuSans-6b" x="190.869141"/>
      </g>
     </g>
    </g>
    <g id="ytick_6">
     <g id="line2d_35">
      <path d="M 54.691875 212.82247 
L 957.535875 212.82247 
" clip-path="url(#pe0be39aa18)" style="fill: none; stroke: #ffffff; stroke-width: 0.8; stroke-linecap: square"/>
     </g>
     <g id="line2d_36">
      <g>
       <use xlink:href="#m9dab9db490" x="54.691875" y="212.82247" style="fill: #555555; stroke: #555555; stroke-width: 0.8"/>
      </g>
     </g>
     <g id="text_19">
      <!-- 500k -->
      <g style="fill: #555555" transform="translate(22.81375 216.621689) scale(0.1 -0.1)">
       <use xlink:href="#DejaVuSans-35"/>
       <use xlink:href="#DejaVuSans-30" x="63.623047"/>
       <use xlink:href="#DejaVuSans-30" x="127.246094"/>
       <use xlink:href="#DejaVuSans-6b" x="190.869141"/>
      </g>
     </g>
    </g>
    <g id="ytick_7">
     <g id="line2d_37">
      <path d="M 54.691875 139.678615 
L 957.535875 139.678615 
" clip-path="url(#pe0be39aa18)" style="fill: none; stroke: #ffffff; stroke-width: 0.8; stroke-linecap: square"/>
     </g>
     <g id="line2d_38">
      <g>
       <use xlink:href="#m9dab9db490" x="54.691875" y="139.678615" style="fill: #555555; stroke: #555555; stroke-width: 0.8"/>
      </g>
     </g>
     <g id="text_20">
      <!-- 600k -->
      <g style="fill: #555555" transform="translate(22.81375 143.477833) scale(0.1 -0.1)">
       <use xlink:href="#DejaVuSans-36"/>
       <use xlink:href="#DejaVuSans-30" x="63.623047"/>
       <use xlink:href="#DejaVuSans-30" x="127.246094"/>
       <use xlink:href="#DejaVuSans-6b" x="190.869141"/>
      </g>
     </g>
    </g>
    <g id="ytick_8">
     <g id="line2d_39">
      <path d="M 54.691875 66.534759 
L 957.535875 66.534759 
" clip-path="url(#pe0be39aa18)" style="fill: none; stroke: #ffffff; stroke-width: 0.8; stroke-linecap: square"/>
     </g>
     <g id="line2d_40">
      <g>
       <use xlink:href="#m9dab9db490" x="54.691875" y="66.534759" style="fill: #555555; stroke: #555555; stroke-width: 0.8"/>
      </g>
     </g>
     <g id="text_21">
      <!-- 700k -->
      <g style="fill: #555555" transform="translate(22.81375 70.333977) scale(0.1 -0.1)">
       <use xlink:href="#DejaVuSans-37"/>
       <use xlink:href="#DejaVuSans-30" x="63.623047"/>
       <use xlink:href="#DejaVuSans-30" x="127.246094"/>
       <use xlink:href="#DejaVuSans-6b" x="190.869141"/>
      </g>
     </g>
    </g>
    <g id="text_22">
     <!-- Instances -->
     <g style="fill: #555555" transform="translate(16.318125 329.988) rotate(-90) scale(0.12 -0.12)">
      <defs>
       <path id="DejaVuSans-49" d="M 628 4666 
L 1259 4666 
L 1259 0 
L 628 0 
L 628 4666 
z
" transform="scale(0.015625)"/>
       <path id="DejaVuSans-6e" d="M 3513 2113 
L 3513 0 
L 2938 0 
L 2938 2094 
Q 2938 2591 2744 2837 
Q 2550 3084 2163 3084 
Q 1697 3084 1428 2787 
Q 1159 2491 1159 1978 
L 1159 0 
L 581 0 
L 581 3500 
L 1159 3500 
L 1159 2956 
Q 1366 3272 1645 3428 
Q 1925 3584 2291 3584 
Q 2894 3584 3203 3211 
Q 3513 2838 3513 2113 
z
" transform="scale(0.015625)"/>
       <path id="DejaVuSans-73" d="M 2834 3397 
L 2834 2853 
Q 2591 2978 2328 3040 
Q 2066 3103 1784 3103 
Q 1356 3103 1142 2972 
Q 928 2841 928 2578 
Q 928 2378 1081 2264 
Q 1234 2150 1697 2047 
L 1894 2003 
Q 2506 1872 2764 1633 
Q 3022 1394 3022 966 
Q 3022 478 2636 193 
Q 2250 -91 1575 -91 
Q 1294 -91 989 -36 
Q 684 19 347 128 
L 347 722 
Q 666 556 975 473 
Q 1284 391 1588 391 
Q 1994 391 2212 530 
Q 2431 669 2431 922 
Q 2431 1156 2273 1281 
Q 2116 1406 1581 1522 
L 1381 1569 
Q 847 1681 609 1914 
Q 372 2147 372 2553 
Q 372 3047 722 3315 
Q 1072 3584 1716 3584 
Q 2034 3584 2315 3537 
Q 2597 3491 2834 3397 
z
" transform="scale(0.015625)"/>
       <path id="DejaVuSans-63" d="M 3122 3366 
L 3122 2828 
Q 2878 2963 2633 3030 
Q 2388 3097 2138 3097 
Q 1578 3097 1268 2742 
Q 959 2388 959 1747 
Q 959 1106 1268 751 
Q 1578 397 2138 397 
Q 2388 397 2633 464 
Q 2878 531 3122 666 
L 3122 134 
Q 2881 22 2623 -34 
Q 2366 -91 2075 -91 
Q 1284 -91 818 406 
Q 353 903 353 1747 
Q 353 2603 823 3093 
Q 1294 3584 2113 3584 
Q 2378 3584 2631 3529 
Q 2884 3475 3122 3366 
z
" transform="scale(0.015625)"/>
      </defs>
      <use xlink:href="#DejaVuSans-49"/>
      <use xlink:href="#DejaVuSans-6e" x="29.492188"/>
      <use xlink:href="#DejaVuSans-73" x="92.871094"/>
      <use xlink:href="#DejaVuSans-74" x="144.970703"/>
      <use xlink:href="#DejaVuSans-61" x="184.179688"/>
      <use xlink:href="#DejaVuSans-6e" x="245.458984"/>
      <use xlink:href="#DejaVuSans-63" x="308.837891"/>
      <use xlink:href="#DejaVuSans-65" x="363.818359"/>
      <use xlink:href="#DejaVuSans-73" x="425.341797"/>
     </g>
    </g>
   </g>
   <g id="line2d_41">
    <path d="M 54.691875 537.005924 
L 63.811511 533.378693 
L 72.931148 529.751461 
L 82.050784 526.12423 
L 91.17042 522.496999 
L 100.290057 518.869767 
L 109.409693 515.242536 
L 118.52933 511.615305 
L 127.648966 507.988074 
L 136.768602 504.360842 
L 145.888239 500.733611 
L 155.007875 497.10638 
L 164.127511 493.479148 
L 173.247148 489.851917 
L 182.366784 486.224686 
L 191.48642 482.597454 
L 200.606057 478.970223 
L 209.725693 475.342992 
L 218.84533 471.715761 
L 227.964966 468.088529 
L 237.084602 464.461298 
L 246.204239 460.834067 
L 255.323875 457.206835 
L 264.443511 453.579604 
L 273.563148 449.952373 
L 282.682784 446.325142 
L 291.80242 442.69791 
L 300.922057 439.070679 
L 310.041693 435.443448 
L 319.16133 431.816216 
L 328.280966 428.188985 
L 337.400602 424.561754 
L 346.520239 420.934523 
L 355.639875 417.307291 
L 364.759511 413.68006 
L 373.879148 410.052829 
L 382.998784 406.425597 
L 392.11842 402.798366 
L 401.238057 399.171135 
L 410.357693 395.543904 
L 419.47733 391.916672 
L 428.596966 388.289441 
L 437.716602 384.66221 
L 446.836239 381.034978 
L 455.955875 377.407747 
L 465.075511 373.780516 
L 474.195148 370.153285 
L 483.314784 366.526053 
L 492.43442 362.898822 
L 501.554057 359.271591 
L 510.673693 355.644359 
L 519.79333 352.017128 
L 528.912966 348.389897 
L 538.032602 344.762666 
L 547.152239 341.135434 
L 556.271875 337.508203 
L 565.391511 333.880972 
L 574.511148 330.25374 
L 583.630784 326.626509 
L 592.75042 322.999278 
L 601.870057 319.372047 
L 610.989693 315.744815 
L 620.10933 312.117584 
L 629.228966 308.490353 
L 638.348602 304.863121 
L 647.468239 301.23589 
L 656.587875 297.608659 
L 665.707511 293.981428 
L 674.827148 290.354196 
L 683.946784 286.726965 
L 693.06642 283.099734 
L 702.186057 279.472502 
L 711.305693 275.845271 
L 720.42533 272.21804 
L 729.544966 268.590809 
L 738.664602 264.963577 
L 747.784239 261.336346 
L 756.903875 257.709115 
L 766.023511 254.081883 
L 775.143148 250.454652 
L 784.262784 246.827421 
L 793.38242 243.20019 
L 802.502057 239.572958 
L 811.621693 235.945727 
L 820.74133 232.318496 
L 829.860966 228.691264 
L 838.980602 225.064033 
L 848.100239 221.436802 
L 857.219875 217.809571 
L 866.339511 214.182339 
L 875.459148 210.555108 
L 884.578784 206.927877 
L 893.69842 203.300645 
L 902.818057 199.673414 
L 911.937693 196.046183 
L 921.05733 192.418951 
L 930.176966 188.79172 
L 939.296602 185.164489 
L 948.416239 181.537258 
L 957.535875 177.910026 
" clip-path="url(#pe0be39aa18)" style="fill: none; stroke-dasharray: 3,4.95; stroke-dashoffset: 0; stroke: #4ac1fa; stroke-opacity: 0.9; stroke-width: 3"/>
   </g>
   <g id="line2d_42">
    <path d="M 54.691875 483.753062 
L 63.811511 484.288422 
L 72.931148 484.823782 
L 82.050784 485.359143 
L 91.17042 485.894503 
L 100.290057 486.429863 
L 109.409693 486.965223 
L 118.52933 487.500584 
L 127.648966 488.035944 
L 136.768602 488.571304 
L 145.888239 489.106664 
L 155.007875 489.642025 
L 164.127511 490.177385 
L 173.247148 490.712745 
L 182.366784 491.248105 
L 191.48642 491.783466 
L 200.606057 492.318826 
L 209.725693 492.854186 
L 218.84533 493.389546 
L 227.964966 493.924907 
L 237.084602 494.460267 
L 246.204239 494.995627 
L 255.323875 495.530987 
L 264.443511 496.066348 
L 273.563148 496.601708 
L 282.682784 497.137068 
L 291.80242 497.672428 
L 300.922057 498.207789 
L 310.041693 498.743149 
L 319.16133 499.278509 
L 328.280966 499.813869 
L 337.400602 500.34923 
L 346.520239 500.88459 
L 355.639875 501.41995 
L 364.759511 501.95531 
L 373.879148 502.490671 
L 382.998784 503.026031 
L 392.11842 503.561391 
L 401.238057 504.096751 
L 410.357693 504.632112 
L 419.47733 505.167472 
L 428.596966 505.702832 
L 437.716602 506.238192 
L 446.836239 506.773553 
L 455.955875 507.308913 
L 465.075511 507.844273 
L 474.195148 508.379633 
L 483.314784 508.914994 
L 492.43442 509.450354 
L 501.554057 509.985714 
L 510.673693 510.521074 
L 519.79333 511.056435 
L 528.912966 511.591795 
L 538.032602 512.127155 
L 547.152239 512.662515 
L 556.271875 513.197876 
L 565.391511 513.733236 
L 574.511148 514.268596 
L 583.630784 514.803956 
L 592.75042 515.339317 
L 601.870057 515.874677 
L 610.989693 516.410037 
L 620.10933 516.945397 
L 629.228966 517.480758 
L 638.348602 518.016118 
L 647.468239 518.551478 
L 656.587875 519.086838 
L 665.707511 519.622199 
L 674.827148 520.157559 
L 683.946784 520.692919 
L 693.06642 521.228279 
L 702.186057 521.76364 
L 711.305693 522.299 
L 720.42533 522.83436 
L 729.544966 523.36972 
L 738.664602 523.905081 
L 747.784239 524.440441 
L 756.903875 524.975801 
L 766.023511 525.511161 
L 775.143148 526.046522 
L 784.262784 526.581882 
L 793.38242 527.117242 
L 802.502057 527.652602 
L 811.621693 528.187963 
L 820.74133 528.723323 
L 829.860966 529.258683 
L 838.980602 529.794043 
L 848.100239 530.329404 
L 857.219875 530.864764 
L 866.339511 531.400124 
L 875.459148 531.935484 
L 884.578784 532.470845 
L 893.69842 533.006205 
L 902.818057 533.541565 
L 911.937693 534.076925 
L 921.05733 534.612286 
L 930.176966 535.147646 
L 939.296602 535.683006 
L 948.416239 536.218366 
L 957.535875 536.753727 
" clip-path="url(#pe0be39aa18)" style="fill: none; stroke-dasharray: 3,4.95; stroke-dashoffset: 0; stroke: #e9a942; stroke-opacity: 0.9; stroke-width: 3"/>
   </g>
   <g id="line2d_43">
    <path d="M 54.691875 533.160142 
L 63.811511 533.088177 
L 72.931148 533.016211 
L 82.050784 532.944246 
L 91.17042 532.872281 
L 100.290057 532.800316 
L 109.409693 532.72835 
L 118.52933 532.656385 
L 127.648966 532.58442 
L 136.768602 532.512455 
L 145.888239 532.44049 
L 155.007875 532.368524 
L 164.127511 532.296559 
L 173.247148 532.224594 
L 182.366784 532.152629 
L 191.48642 532.080663 
L 200.606057 532.008698 
L 209.725693 531.936733 
L 218.84533 531.864768 
L 227.964966 531.792802 
L 237.084602 531.720837 
L 246.204239 531.648872 
L 255.323875 531.576907 
L 264.443511 531.504941 
L 273.563148 531.432976 
L 282.682784 531.361011 
L 291.80242 531.289046 
L 300.922057 531.21708 
L 310.041693 531.145115 
L 319.16133 531.07315 
L 328.280966 531.001185 
L 337.400602 530.929219 
L 346.520239 530.857254 
L 355.639875 530.785289 
L 364.759511 530.713324 
L 373.879148 530.641358 
L 382.998784 530.569393 
L 392.11842 530.497428 
L 401.238057 530.425463 
L 410.357693 530.353497 
L 419.47733 530.281532 
L 428.596966 530.209567 
L 437.716602 530.137602 
L 446.836239 530.065636 
L 455.955875 529.993671 
L 465.075511 529.921706 
L 474.195148 529.849741 
L 483.314784 529.777775 
L 492.43442 529.70581 
L 501.554057 529.633845 
L 510.673693 529.56188 
L 519.79333 529.489914 
L 528.912966 529.417949 
L 538.032602 529.345984 
L 547.152239 529.274019 
L 556.271875 529.202053 
L 565.391511 529.130088 
L 574.511148 529.058123 
L 583.630784 528.986158 
L 592.75042 528.914193 
L 601.870057 528.842227 
L 610.989693 528.770262 
L 620.10933 528.698297 
L 629.228966 528.626332 
L 638.348602 528.554366 
L 647.468239 528.482401 
L 656.587875 528.410436 
L 665.707511 528.338471 
L 674.827148 528.266505 
L 683.946784 528.19454 
L 693.06642 528.122575 
L 702.186057 528.05061 
L 711.305693 527.978644 
L 720.42533 527.906679 
L 729.544966 527.834714 
L 738.664602 527.762749 
L 747.784239 527.690783 
L 756.903875 527.618818 
L 766.023511 527.546853 
L 775.143148 527.474888 
L 784.262784 527.402922 
L 793.38242 527.330957 
L 802.502057 527.258992 
L 811.621693 527.187027 
L 820.74133 527.115061 
L 829.860966 527.043096 
L 838.980602 526.971131 
L 848.100239 526.899166 
L 857.219875 526.8272 
L 866.339511 526.755235 
L 875.459148 526.68327 
L 884.578784 526.611305 
L 893.69842 526.539339 
L 902.818057 526.467374 
L 911.937693 526.395409 
L 921.05733 526.323444 
L 930.176966 526.251478 
L 939.296602 526.179513 
L 948.416239 526.107548 
L 957.535875 526.035583 
" clip-path="url(#pe0be39aa18)" style="fill: none; stroke-dasharray: 3,4.95; stroke-dashoffset: 0; stroke: #9a5689; stroke-opacity: 0.9; stroke-width: 3"/>
   </g>
   <g id="line2d_44">
    <path d="M 54.691875 545.973441 
L 63.811511 545.682854 
L 72.931148 545.392267 
L 82.050784 545.10168 
L 91.17042 544.811093 
L 100.290057 544.520506 
L 109.409693 544.229919 
L 118.52933 543.939333 
L 127.648966 543.648746 
L 136.768602 543.358159 
L 145.888239 543.067572 
L 155.007875 542.776985 
L 164.127511 542.486398 
L 173.247148 542.195811 
L 182.366784 541.905224 
L 191.48642 541.614637 
L 200.606057 541.32405 
L 209.725693 541.033463 
L 218.84533 540.742876 
L 227.964966 540.452289 
L 237.084602 540.161702 
L 246.204239 539.871115 
L 255.323875 539.580528 
L 264.443511 539.289941 
L 273.563148 538.999354 
L 282.682784 538.708767 
L 291.80242 538.41818 
L 300.922057 538.127593 
L 310.041693 537.837006 
L 319.16133 537.546419 
L 328.280966 537.255832 
L 337.400602 536.965245 
L 346.520239 536.674658 
L 355.639875 536.384072 
L 364.759511 536.093485 
L 373.879148 535.802898 
L 382.998784 535.512311 
L 392.11842 535.221724 
L 401.238057 534.931137 
L 410.357693 534.64055 
L 419.47733 534.349963 
L 428.596966 534.059376 
L 437.716602 533.768789 
L 446.836239 533.478202 
L 455.955875 533.187615 
L 465.075511 532.897028 
L 474.195148 532.606441 
L 483.314784 532.315854 
L 492.43442 532.025267 
L 501.554057 531.73468 
L 510.673693 531.444093 
L 519.79333 531.153506 
L 528.912966 530.862919 
L 538.032602 530.572332 
L 547.152239 530.281745 
L 556.271875 529.991158 
L 565.391511 529.700571 
L 574.511148 529.409984 
L 583.630784 529.119398 
L 592.75042 528.828811 
L 601.870057 528.538224 
L 610.989693 528.247637 
L 620.10933 527.95705 
L 629.228966 527.666463 
L 638.348602 527.375876 
L 647.468239 527.085289 
L 656.587875 526.794702 
L 665.707511 526.504115 
L 674.827148 526.213528 
L 683.946784 525.922941 
L 693.06642 525.632354 
L 702.186057 525.341767 
L 711.305693 525.05118 
L 720.42533 524.760593 
L 729.544966 524.470006 
L 738.664602 524.179419 
L 747.784239 523.888832 
L 756.903875 523.598245 
L 766.023511 523.307658 
L 775.143148 523.017071 
L 784.262784 522.726484 
L 793.38242 522.435897 
L 802.502057 522.14531 
L 811.621693 521.854723 
L 820.74133 521.564137 
L 829.860966 521.27355 
L 838.980602 520.982963 
L 848.100239 520.692376 
L 857.219875 520.401789 
L 866.339511 520.111202 
L 875.459148 519.820615 
L 884.578784 519.530028 
L 893.69842 519.239441 
L 902.818057 518.948854 
L 911.937693 518.658267 
L 921.05733 518.36768 
L 930.176966 518.077093 
L 939.296602 517.786506 
L 948.416239 517.495919 
L 957.535875 517.205332 
" clip-path="url(#pe0be39aa18)" style="fill: none; stroke-dasharray: 3,4.95; stroke-dashoffset: 0; stroke: #be503b; stroke-opacity: 0.9; stroke-width: 3"/>
   </g>
   <g id="line2d_45">
    <path d="M 54.691875 457.892934 
L 63.811511 457.78979 
L 72.931148 457.686645 
L 82.050784 457.5835 
L 91.17042 457.480356 
L 100.290057 457.377211 
L 109.409693 457.274067 
L 118.52933 457.170922 
L 127.648966 457.067777 
L 136.768602 456.964633 
L 145.888239 456.861488 
L 155.007875 456.758344 
L 164.127511 456.655199 
L 173.247148 456.552054 
L 182.366784 456.44891 
L 191.48642 456.345765 
L 200.606057 456.242621 
L 209.725693 456.139476 
L 218.84533 456.036332 
L 227.964966 455.933187 
L 237.084602 455.830042 
L 246.204239 455.726898 
L 255.323875 455.623753 
L 264.443511 455.520609 
L 273.563148 455.417464 
L 282.682784 455.314319 
L 291.80242 455.211175 
L 300.922057 455.10803 
L 310.041693 455.004886 
L 319.16133 454.901741 
L 328.280966 454.798596 
L 337.400602 454.695452 
L 346.520239 454.592307 
L 355.639875 454.489163 
L 364.759511 454.386018 
L 373.879148 454.282873 
L 382.998784 454.179729 
L 392.11842 454.076584 
L 401.238057 453.97344 
L 410.357693 453.870295 
L 419.47733 453.76715 
L 428.596966 453.664006 
L 437.716602 453.560861 
L 446.836239 453.457717 
L 455.955875 453.354572 
L 465.075511 453.251427 
L 474.195148 453.148283 
L 483.314784 453.045138 
L 492.43442 452.941994 
L 501.554057 452.838849 
L 510.673693 452.735704 
L 519.79333 452.63256 
L 528.912966 452.529415 
L 538.032602 452.426271 
L 547.152239 452.323126 
L 556.271875 452.219982 
L 565.391511 452.116837 
L 574.511148 452.013692 
L 583.630784 451.910548 
L 592.75042 451.807403 
L 601.870057 451.704259 
L 610.989693 451.601114 
L 620.10933 451.497969 
L 629.228966 451.394825 
L 638.348602 451.29168 
L 647.468239 451.188536 
L 656.587875 451.085391 
L 665.707511 450.982246 
L 674.827148 450.879102 
L 683.946784 450.775957 
L 693.06642 450.672813 
L 702.186057 450.569668 
L 711.305693 450.466523 
L 720.42533 450.363379 
L 729.544966 450.260234 
L 738.664602 450.15709 
L 747.784239 450.053945 
L 756.903875 449.9508 
L 766.023511 449.847656 
L 775.143148 449.744511 
L 784.262784 449.641367 
L 793.38242 449.538222 
L 802.502057 449.435077 
L 811.621693 449.331933 
L 820.74133 449.228788 
L 829.860966 449.125644 
L 838.980602 449.022499 
L 848.100239 448.919354 
L 857.219875 448.81621 
L 866.339511 448.713065 
L 875.459148 448.609921 
L 884.578784 448.506776 
L 893.69842 448.403632 
L 902.818057 448.300487 
L 911.937693 448.197342 
L 921.05733 448.094198 
L 930.176966 447.991053 
L 939.296602 447.887909 
L 948.416239 447.784764 
L 957.535875 447.681619 
" clip-path="url(#pe0be39aa18)" style="fill: none; stroke-dasharray: 3,4.95; stroke-dashoffset: 0; stroke: #e2321d; stroke-opacity: 0.9; stroke-width: 3"/>
   </g>
   <g id="line2d_46">
    <path d="M 54.691875 258.866162 
L 63.811511 257.511931 
L 72.931148 256.1577 
L 82.050784 254.803468 
L 91.17042 253.449237 
L 100.290057 252.095006 
L 109.409693 250.740775 
L 118.52933 249.386544 
L 127.648966 248.032312 
L 136.768602 246.678081 
L 145.888239 245.32385 
L 155.007875 243.969619 
L 164.127511 242.615387 
L 173.247148 241.261156 
L 182.366784 239.906925 
L 191.48642 238.552694 
L 200.606057 237.198463 
L 209.725693 235.844231 
L 218.84533 234.49 
L 227.964966 233.135769 
L 237.084602 231.781538 
L 246.204239 230.427307 
L 255.323875 229.073075 
L 264.443511 227.718844 
L 273.563148 226.364613 
L 282.682784 225.010382 
L 291.80242 223.65615 
L 300.922057 222.301919 
L 310.041693 220.947688 
L 319.16133 219.593457 
L 328.280966 218.239226 
L 337.400602 216.884994 
L 346.520239 215.530763 
L 355.639875 214.176532 
L 364.759511 212.822301 
L 373.879148 211.46807 
L 382.998784 210.113838 
L 392.11842 208.759607 
L 401.238057 207.405376 
L 410.357693 206.051145 
L 419.47733 204.696913 
L 428.596966 203.342682 
L 437.716602 201.988451 
L 446.836239 200.63422 
L 455.955875 199.279989 
L 465.075511 197.925757 
L 474.195148 196.571526 
L 483.314784 195.217295 
L 492.43442 193.863064 
L 501.554057 192.508833 
L 510.673693 191.154601 
L 519.79333 189.80037 
L 528.912966 188.446139 
L 538.032602 187.091908 
L 547.152239 185.737677 
L 556.271875 184.383445 
L 565.391511 183.029214 
L 574.511148 181.674983 
L 583.630784 180.320752 
L 592.75042 178.96652 
L 601.870057 177.612289 
L 610.989693 176.258058 
L 620.10933 174.903827 
L 629.228966 173.549596 
L 638.348602 172.195364 
L 647.468239 170.841133 
L 656.587875 169.486902 
L 665.707511 168.132671 
L 674.827148 166.77844 
L 683.946784 165.424208 
L 693.06642 164.069977 
L 702.186057 162.715746 
L 711.305693 161.361515 
L 720.42533 160.007283 
L 729.544966 158.653052 
L 738.664602 157.298821 
L 747.784239 155.94459 
L 756.903875 154.590359 
L 766.023511 153.236127 
L 775.143148 151.881896 
L 784.262784 150.527665 
L 793.38242 149.173434 
L 802.502057 147.819203 
L 811.621693 146.464971 
L 820.74133 145.11074 
L 829.860966 143.756509 
L 838.980602 142.402278 
L 848.100239 141.048047 
L 857.219875 139.693815 
L 866.339511 138.339584 
L 875.459148 136.985353 
L 884.578784 135.631122 
L 893.69842 134.27689 
L 902.818057 132.922659 
L 911.937693 131.568428 
L 921.05733 130.214197 
L 930.176966 128.859966 
L 939.296602 127.505734 
L 948.416239 126.151503 
L 957.535875 124.797272 
" clip-path="url(#pe0be39aa18)" style="fill: none; stroke-dasharray: 3,4.95; stroke-dashoffset: 0; stroke: #48b585; stroke-opacity: 0.9; stroke-width: 3"/>
   </g>
   <g id="line2d_47">
    <path d="M 54.691875 474.909341 
L 72.394699 475.193139 
L 90.097522 470.544847 
L 107.800346 462.098926 
L 125.503169 462.136961 
L 143.205993 441.118342 
L 160.908816 454.622161 
L 178.61164 459.903147 
L 196.314463 469.6108 
L 214.017287 450.548048 
L 231.72011 459.020301 
L 249.422934 439.378981 
L 267.125757 439.62255 
L 284.828581 441.80882 
L 302.531404 444.772609 
L 320.234228 446.17112 
L 337.937051 487.39646 
L 355.639875 481.372332 
L 373.342699 442.8204 
L 391.045522 435.892945 
L 408.748346 429.939035 
L 426.451169 432.736788 
L 444.153993 432.326451 
L 461.856816 431.173703 
L 479.55964 421.29782 
L 497.262463 413.740597 
L 514.965287 434.18723 
L 532.66811 394.236056 
L 550.370934 426.945989 
L 568.073757 415.352687 
L 585.776581 441.384586 
L 603.479404 442.508807 
L 621.182228 440.056293 
L 638.885051 437.905864 
L 656.587875 431.33462 
L 674.290699 198.360467 
L 691.993522 121.237586 
L 709.696346 145.236085 
L 727.399169 127.00571 
L 745.101993 150.147695 
L 762.804816 162.229597 
L 780.50764 166.636514 
L 798.210463 173.54934 
L 815.913287 213.111389 
L 833.61611 208.662779 
L 851.318934 183.167025 
L 869.021757 181.250656 
L 886.724581 185.702923 
L 904.427404 197.974268 
L 922.130228 208.235619 
L 939.833051 149.988972 
L 957.535875 251.249327 
" clip-path="url(#pe0be39aa18)" style="fill: none; stroke: #4ac1fa; stroke-width: 1.5; stroke-linecap: square"/>
   </g>
   <g id="line2d_48">
    <path d="M 54.691875 514.915373 
L 72.394699 508.901485 
L 90.097522 508.096171 
L 107.800346 501.486161 
L 125.503169 494.297583 
L 143.205993 498.692797 
L 160.908816 502.330972 
L 178.61164 510.700824 
L 196.314463 506.45336 
L 214.017287 507.916237 
L 231.72011 503.828958 
L 249.422934 502.498472 
L 267.125757 499.252347 
L 284.828581 499.638547 
L 302.531404 494.74888 
L 320.234228 498.250276 
L 337.937051 489.742183 
L 355.639875 502.679868 
L 373.342699 472.313465 
L 391.045522 474.591165 
L 408.748346 471.603238 
L 426.451169 473.556179 
L 444.153993 478.411468 
L 461.856816 486.034521 
L 479.55964 495.726813 
L 497.262463 475.937743 
L 514.965287 511.68022 
L 532.66811 506.039366 
L 550.370934 495.90309 
L 568.073757 503.985486 
L 585.776581 508.998766 
L 603.479404 501.005606 
L 621.182228 503.259899 
L 638.885051 524.784673 
L 656.587875 533.460266 
L 674.290699 533.145016 
L 691.993522 508.325843 
L 709.696346 506.515532 
L 727.399169 451.836111 
L 745.101993 441.714464 
L 762.804816 504.965614 
L 780.50764 555.525573 
L 798.210463 557.864713 
L 815.913287 562.821672 
L 833.61611 560.452543 
L 851.318934 557.149366 
L 869.021757 554.813883 
L 886.724581 556.137055 
L 904.427404 554.347225 
L 922.130228 555.475104 
L 939.833051 552.602013 
L 957.535875 557.762312 
" clip-path="url(#pe0be39aa18)" style="fill: none; stroke: #e9a942; stroke-width: 1.5; stroke-linecap: square"/>
   </g>
   <g id="line2d_49">
    <path d="M 54.691875 533.172079 
L 72.394699 530.674216 
L 90.097522 530.423333 
L 107.800346 528.523056 
L 125.503169 533.627034 
L 143.205993 531.960085 
L 160.908816 530.86951 
L 178.61164 532.427475 
L 196.314463 533.956913 
L 214.017287 534.269237 
L 231.72011 532.386514 
L 249.422934 533.196217 
L 267.125757 533.880843 
L 284.828581 530.875362 
L 302.531404 532.327999 
L 320.234228 529.479046 
L 337.937051 545.229112 
L 355.639875 544.752946 
L 373.342699 534.684694 
L 391.045522 532.677627 
L 408.748346 531.968131 
L 426.451169 530.350189 
L 444.153993 520.915363 
L 461.856816 520.29876 
L 479.55964 522.420664 
L 497.262463 524.823439 
L 514.965287 529.255957 
L 532.66811 528.975816 
L 550.370934 518.895861 
L 568.073757 528.659103 
L 585.776581 529.737244 
L 603.479404 531.154772 
L 621.182228 531.547554 
L 638.885051 528.53037 
L 656.587875 529.375181 
L 674.290699 523.465158 
L 691.993522 524.571824 
L 709.696346 528.382619 
L 727.399169 524.430657 
L 745.101993 527.951802 
L 762.804816 529.193785 
L 780.50764 523.820637 
L 798.210463 524.604008 
L 815.913287 539.868399 
L 833.61611 535.142575 
L 851.318934 527.063836 
L 869.021757 520.40555 
L 886.724581 520.511609 
L 904.427404 524.402131 
L 922.130228 530.042253 
L 939.833051 530.194393 
L 957.535875 528.735904 
" clip-path="url(#pe0be39aa18)" style="fill: none; stroke: #9a5689; stroke-width: 1.5; stroke-linecap: square"/>
   </g>
   <g id="line2d_50">
    <path d="M 54.691875 536.748814 
L 72.394699 537.86572 
L 90.097522 539.508531 
L 107.800346 533.971541 
L 125.503169 542.026143 
L 143.205993 538.12977 
L 160.908816 542.221437 
L 178.61164 540.545711 
L 196.314463 533.970079 
L 214.017287 530.729806 
L 231.72011 536.582777 
L 249.422934 538.817322 
L 267.125757 527.702382 
L 284.828581 530.423333 
L 302.531404 540.863156 
L 320.234228 535.120631 
L 337.937051 563.844224 
L 355.639875 563.073287 
L 373.342699 547.252271 
L 391.045522 543.064054 
L 408.748346 546.996999 
L 426.451169 543.674805 
L 444.153993 534.060045 
L 461.856816 534.667139 
L 479.55964 538.415031 
L 497.262463 530.462099 
L 514.965287 527.786497 
L 532.66811 527.227678 
L 550.370934 528.948753 
L 568.073757 540.501825 
L 585.776581 536.839512 
L 603.479404 537.575339 
L 621.182228 539.268619 
L 638.885051 519.779439 
L 656.587875 533.747721 
L 674.290699 526.062496 
L 691.993522 524.689586 
L 709.696346 527.608757 
L 727.399169 533.678235 
L 745.101993 526.36458 
L 762.804816 512.011562 
L 780.50764 526.712014 
L 798.210463 525.055305 
L 815.913287 533.511467 
L 833.61611 511.88356 
L 851.318934 496.450938 
L 869.021757 496.932224 
L 886.724581 495.181892 
L 904.427404 507.146032 
L 922.130228 529.18135 
L 939.833051 525.538055 
L 957.535875 522.227564 
" clip-path="url(#pe0be39aa18)" style="fill: none; stroke: #be503b; stroke-width: 1.5; stroke-linecap: square"/>
   </g>
   <g id="line2d_51">
    <path d="M 54.691875 462.201327 
L 72.394699 458.223764 
L 90.097522 457.05712 
L 107.800346 455.043469 
L 125.503169 462.297877 
L 143.205993 459.67567 
L 160.908816 449.812952 
L 178.61164 433.426534 
L 196.314463 455.940213 
L 214.017287 452.810387 
L 231.72011 448.026779 
L 249.422934 446.695561 
L 267.125757 448.995935 
L 284.828581 458.479036 
L 302.531404 459.846095 
L 320.234228 459.501587 
L 337.937051 499.758503 
L 355.639875 500.598194 
L 373.342699 469.947993 
L 391.045522 452.529515 
L 408.748346 455.956305 
L 426.451169 453.17245 
L 444.153993 453.238279 
L 461.856816 445.25097 
L 479.55964 442.201603 
L 497.262463 446.552199 
L 514.965287 448.505872 
L 532.66811 448.51538 
L 550.370934 424.23674 
L 568.073757 437.462612 
L 585.776581 448.660936 
L 603.479404 434.460057 
L 621.182228 451.252423 
L 638.885051 446.116262 
L 656.587875 457.071748 
L 674.290699 452.525126 
L 691.993522 440.801629 
L 709.696346 442.50515 
L 727.399169 455.622769 
L 745.101993 447.979967 
L 762.804816 451.834648 
L 780.50764 436.888433 
L 798.210463 442.743599 
L 815.913287 485.204338 
L 833.61611 476.490711 
L 851.318934 455.72005 
L 869.021757 431.156149 
L 886.724581 448.813807 
L 904.427404 444.382021 
L 922.130228 445.653261 
L 939.833051 452.072366 
L 957.535875 451.02202 
" clip-path="url(#pe0be39aa18)" style="fill: none; stroke: #e2321d; stroke-width: 1.5; stroke-linecap: square"/>
   </g>
   <g id="line2d_52">
    <path d="M 54.691875 332.224695 
L 72.394699 317.584221 
L 90.097522 294.740663 
L 107.800346 284.131147 
L 125.503169 254.883845 
L 143.205993 234.372113 
L 160.908816 232.187306 
L 178.61164 232.052722 
L 196.314463 200.938788 
L 214.017287 220.848546 
L 231.72011 239.264706 
L 249.422934 225.520975 
L 267.125757 247.614077 
L 284.828581 258.16069 
L 302.531404 216.693243 
L 320.234228 201.430315 
L 337.937051 294.806493 
L 355.639875 283.992174 
L 373.342699 229.60606 
L 391.045522 184.493855 
L 408.748346 201.662181 
L 426.451169 173.012464 
L 444.153993 151.781728 
L 461.856816 95.027216 
L 479.55964 99.791076 
L 497.262463 118.309637 
L 514.965287 97.193737 
L 532.66811 122.802864 
L 550.370934 78.125134 
L 568.073757 138.983748 
L 585.776581 123.188332 
L 603.479404 145.824893 
L 621.182228 200.769094 
L 638.885051 165.145842 
L 656.587875 176.828379 
L 674.290699 167.415496 
L 691.993522 153.981896 
L 709.696346 137.757857 
L 727.399169 200.993646 
L 745.101993 232.694193 
L 762.804816 247.535813 
L 780.50764 243.484375 
L 798.210463 197.264772 
L 815.913287 321.481326 
L 833.61611 254.670996 
L 851.318934 117.311223 
L 869.021757 119.025715 
L 886.724581 125.550879 
L 904.427404 109.820561 
L 922.130228 133.549159 
L 939.833051 88.876549 
L 957.535875 49.841868 
" clip-path="url(#pe0be39aa18)" style="fill: none; stroke: #48b585; stroke-width: 6; stroke-linecap: square"/>
   </g>
   <g id="patch_3">
    <path d="M 54.691875 578.54175 
L 54.691875 24.14175 
" style="fill: none; stroke: #ffffff; stroke-linejoin: miter; stroke-linecap: square"/>
   </g>
   <g id="patch_4">
    <path d="M 957.535875 578.54175 
L 957.535875 24.14175 
" style="fill: none; stroke: #ffffff; stroke-linejoin: miter; stroke-linecap: square"/>
   </g>
   <g id="patch_5">
    <path d="M 54.691875 578.54175 
L 957.535875 578.54175 
" style="fill: none; stroke: #ffffff; stroke-linejoin: miter; stroke-linecap: square"/>
   </g>
   <g id="patch_6">
    <path d="M 54.691875 24.14175 
L 957.535875 24.14175 
" style="fill: none; stroke: #ffffff; stroke-linejoin: miter; stroke-linecap: square"/>
   </g>
   <g id="text_23">
    <!-- Potentially Ephemeral Enterprise Linux Instances by Distribution -->
    <g transform="translate(54.691875 18.14175) scale(0.144 -0.144)">
     <defs>
      <path id="DejaVuSans-50" d="M 1259 4147 
L 1259 2394 
L 2053 2394 
Q 2494 2394 2734 2622 
Q 2975 2850 2975 3272 
Q 2975 3691 2734 3919 
Q 2494 4147 2053 4147 
L 1259 4147 
z
M 628 4666 
L 2053 4666 
Q 2838 4666 3239 4311 
Q 3641 3956 3641 3272 
Q 3641 2581 3239 2228 
Q 2838 1875 2053 1875 
L 1259 1875 
L 1259 0 
L 628 0 
L 628 4666 
z
" transform="scale(0.015625)"/>
      <path id="DejaVuSans-6f" d="M 1959 3097 
Q 1497 3097 1228 2736 
Q 959 2375 959 1747 
Q 959 1119 1226 758 
Q 1494 397 1959 397 
Q 2419 397 2687 759 
Q 2956 1122 2956 1747 
Q 2956 2369 2687 2733 
Q 2419 3097 1959 3097 
z
M 1959 3584 
Q 2709 3584 3137 3096 
Q 3566 2609 3566 1747 
Q 3566 888 3137 398 
Q 2709 -91 1959 -91 
Q 1206 -91 779 398 
Q 353 888 353 1747 
Q 353 2609 779 3096 
Q 1206 3584 1959 3584 
z
" transform="scale(0.015625)"/>
      <path id="DejaVuSans-69" d="M 603 3500 
L 1178 3500 
L 1178 0 
L 603 0 
L 603 3500 
z
M 603 4863 
L 1178 4863 
L 1178 4134 
L 603 4134 
L 603 4863 
z
" transform="scale(0.015625)"/>
      <path id="DejaVuSans-6c" d="M 603 4863 
L 1178 4863 
L 1178 0 
L 603 0 
L 603 4863 
z
" transform="scale(0.015625)"/>
      <path id="DejaVuSans-79" d="M 2059 -325 
Q 1816 -950 1584 -1140 
Q 1353 -1331 966 -1331 
L 506 -1331 
L 506 -850 
L 844 -850 
Q 1081 -850 1212 -737 
Q 1344 -625 1503 -206 
L 1606 56 
L 191 3500 
L 800 3500 
L 1894 763 
L 2988 3500 
L 3597 3500 
L 2059 -325 
z
" transform="scale(0.015625)"/>
      <path id="DejaVuSans-20" transform="scale(0.015625)"/>
      <path id="DejaVuSans-45" d="M 628 4666 
L 3578 4666 
L 3578 4134 
L 1259 4134 
L 1259 2753 
L 3481 2753 
L 3481 2222 
L 1259 2222 
L 1259 531 
L 3634 531 
L 3634 0 
L 628 0 
L 628 4666 
z
" transform="scale(0.015625)"/>
      <path id="DejaVuSans-70" d="M 1159 525 
L 1159 -1331 
L 581 -1331 
L 581 3500 
L 1159 3500 
L 1159 2969 
Q 1341 3281 1617 3432 
Q 1894 3584 2278 3584 
Q 2916 3584 3314 3078 
Q 3713 2572 3713 1747 
Q 3713 922 3314 415 
Q 2916 -91 2278 -91 
Q 1894 -91 1617 61 
Q 1341 213 1159 525 
z
M 3116 1747 
Q 3116 2381 2855 2742 
Q 2594 3103 2138 3103 
Q 1681 3103 1420 2742 
Q 1159 2381 1159 1747 
Q 1159 1113 1420 752 
Q 1681 391 2138 391 
Q 2594 391 2855 752 
Q 3116 1113 3116 1747 
z
" transform="scale(0.015625)"/>
      <path id="DejaVuSans-68" d="M 3513 2113 
L 3513 0 
L 2938 0 
L 2938 2094 
Q 2938 2591 2744 2837 
Q 2550 3084 2163 3084 
Q 1697 3084 1428 2787 
Q 1159 2491 1159 1978 
L 1159 0 
L 581 0 
L 581 4863 
L 1159 4863 
L 1159 2956 
Q 1366 3272 1645 3428 
Q 1925 3584 2291 3584 
Q 2894 3584 3203 3211 
Q 3513 2838 3513 2113 
z
" transform="scale(0.015625)"/>
      <path id="DejaVuSans-6d" d="M 3328 2828 
Q 3544 3216 3844 3400 
Q 4144 3584 4550 3584 
Q 5097 3584 5394 3201 
Q 5691 2819 5691 2113 
L 5691 0 
L 5113 0 
L 5113 2094 
Q 5113 2597 4934 2840 
Q 4756 3084 4391 3084 
Q 3944 3084 3684 2787 
Q 3425 2491 3425 1978 
L 3425 0 
L 2847 0 
L 2847 2094 
Q 2847 2600 2669 2842 
Q 2491 3084 2119 3084 
Q 1678 3084 1418 2786 
Q 1159 2488 1159 1978 
L 1159 0 
L 581 0 
L 581 3500 
L 1159 3500 
L 1159 2956 
Q 1356 3278 1631 3431 
Q 1906 3584 2284 3584 
Q 2666 3584 2933 3390 
Q 3200 3197 3328 2828 
z
" transform="scale(0.015625)"/>
      <path id="DejaVuSans-72" d="M 2631 2963 
Q 2534 3019 2420 3045 
Q 2306 3072 2169 3072 
Q 1681 3072 1420 2755 
Q 1159 2438 1159 1844 
L 1159 0 
L 581 0 
L 581 3500 
L 1159 3500 
L 1159 2956 
Q 1341 3275 1631 3429 
Q 1922 3584 2338 3584 
Q 2397 3584 2469 3576 
Q 2541 3569 2628 3553 
L 2631 2963 
z
" transform="scale(0.015625)"/>
      <path id="DejaVuSans-4c" d="M 628 4666 
L 1259 4666 
L 1259 531 
L 3531 531 
L 3531 0 
L 628 0 
L 628 4666 
z
" transform="scale(0.015625)"/>
      <path id="DejaVuSans-75" d="M 544 1381 
L 544 3500 
L 1119 3500 
L 1119 1403 
Q 1119 906 1312 657 
Q 1506 409 1894 409 
Q 2359 409 2629 706 
Q 2900 1003 2900 1516 
L 2900 3500 
L 3475 3500 
L 3475 0 
L 2900 0 
L 2900 538 
Q 2691 219 2414 64 
Q 2138 -91 1772 -91 
Q 1169 -91 856 284 
Q 544 659 544 1381 
z
M 1991 3584 
L 1991 3584 
z
" transform="scale(0.015625)"/>
      <path id="DejaVuSans-78" d="M 3513 3500 
L 2247 1797 
L 3578 0 
L 2900 0 
L 1881 1375 
L 863 0 
L 184 0 
L 1544 1831 
L 300 3500 
L 978 3500 
L 1906 2253 
L 2834 3500 
L 3513 3500 
z
" transform="scale(0.015625)"/>
      <path id="DejaVuSans-62" d="M 3116 1747 
Q 3116 2381 2855 2742 
Q 2594 3103 2138 3103 
Q 1681 3103 1420 2742 
Q 1159 2381 1159 1747 
Q 1159 1113 1420 752 
Q 1681 391 2138 391 
Q 2594 391 2855 752 
Q 3116 1113 3116 1747 
z
M 1159 2969 
Q 1341 3281 1617 3432 
Q 1894 3584 2278 3584 
Q 2916 3584 3314 3078 
Q 3713 2572 3713 1747 
Q 3713 922 3314 415 
Q 2916 -91 2278 -91 
Q 1894 -91 1617 61 
Q 1341 213 1159 525 
L 1159 0 
L 581 0 
L 581 4863 
L 1159 4863 
L 1159 2969 
z
" transform="scale(0.015625)"/>
     </defs>
     <use xlink:href="#DejaVuSans-50"/>
     <use xlink:href="#DejaVuSans-6f" x="56.677734"/>
     <use xlink:href="#DejaVuSans-74" x="117.859375"/>
     <use xlink:href="#DejaVuSans-65" x="157.068359"/>
     <use xlink:href="#DejaVuSans-6e" x="218.591797"/>
     <use xlink:href="#DejaVuSans-74" x="281.970703"/>
     <use xlink:href="#DejaVuSans-69" x="321.179688"/>
     <use xlink:href="#DejaVuSans-61" x="348.962891"/>
     <use xlink:href="#DejaVuSans-6c" x="410.242188"/>
     <use xlink:href="#DejaVuSans-6c" x="438.025391"/>
     <use xlink:href="#DejaVuSans-79" x="465.808594"/>
     <use xlink:href="#DejaVuSans-20" x="524.988281"/>
     <use xlink:href="#DejaVuSans-45" x="556.775391"/>
     <use xlink:href="#DejaVuSans-70" x="619.958984"/>
     <use xlink:href="#DejaVuSans-68" x="683.435547"/>
     <use xlink:href="#DejaVuSans-65" x="746.814453"/>
     <use xlink:href="#DejaVuSans-6d" x="808.337891"/>
     <use xlink:href="#DejaVuSans-65" x="905.75"/>
     <use xlink:href="#DejaVuSans-72" x="967.273438"/>
     <use xlink:href="#DejaVuSans-61" x="1008.386719"/>
     <use xlink:href="#DejaVuSans-6c" x="1069.666016"/>
     <use xlink:href="#DejaVuSans-20" x="1097.449219"/>
     <use xlink:href="#DejaVuSans-45" x="1129.236328"/>
     <use xlink:href="#DejaVuSans-6e" x="1192.419922"/>
     <use xlink:href="#DejaVuSans-74" x="1255.798828"/>
     <use xlink:href="#DejaVuSans-65" x="1295.007812"/>
     <use xlink:href="#DejaVuSans-72" x="1356.53125"/>
     <use xlink:href="#DejaVuSans-70" x="1397.644531"/>
     <use xlink:href="#DejaVuSans-72" x="1461.121094"/>
     <use xlink:href="#DejaVuSans-69" x="1502.234375"/>
     <use xlink:href="#DejaVuSans-73" x="1530.017578"/>
     <use xlink:href="#DejaVuSans-65" x="1582.117188"/>
     <use xlink:href="#DejaVuSans-20" x="1643.640625"/>
     <use xlink:href="#DejaVuSans-4c" x="1675.427734"/>
     <use xlink:href="#DejaVuSans-69" x="1731.140625"/>
     <use xlink:href="#DejaVuSans-6e" x="1758.923828"/>
     <use xlink:href="#DejaVuSans-75" x="1822.302734"/>
     <use xlink:href="#DejaVuSans-78" x="1885.681641"/>
     <use xlink:href="#DejaVuSans-20" x="1944.861328"/>
     <use xlink:href="#DejaVuSans-49" x="1976.648438"/>
     <use xlink:href="#DejaVuSans-6e" x="2006.140625"/>
     <use xlink:href="#DejaVuSans-73" x="2069.519531"/>
     <use xlink:href="#DejaVuSans-74" x="2121.619141"/>
     <use xlink:href="#DejaVuSans-61" x="2160.828125"/>
     <use xlink:href="#DejaVuSans-6e" x="2222.107422"/>
     <use xlink:href="#DejaVuSans-63" x="2285.486328"/>
     <use xlink:href="#DejaVuSans-65" x="2340.466797"/>
     <use xlink:href="#DejaVuSans-73" x="2401.990234"/>
     <use xlink:href="#DejaVuSans-20" x="2454.089844"/>
     <use xlink:href="#DejaVuSans-62" x="2485.876953"/>
     <use xlink:href="#DejaVuSans-79" x="2549.353516"/>
     <use xlink:href="#DejaVuSans-20" x="2608.533203"/>
     <use xlink:href="#DejaVuSans-44" x="2640.320312"/>
     <use xlink:href="#DejaVuSans-69" x="2717.322266"/>
     <use xlink:href="#DejaVuSans-73" x="2745.105469"/>
     <use xlink:href="#DejaVuSans-74" x="2797.205078"/>
     <use xlink:href="#DejaVuSans-72" x="2836.414062"/>
     <use xlink:href="#DejaVuSans-69" x="2877.527344"/>
     <use xlink:href="#DejaVuSans-62" x="2905.310547"/>
     <use xlink:href="#DejaVuSans-75" x="2968.787109"/>
     <use xlink:href="#DejaVuSans-74" x="3032.166016"/>
     <use xlink:href="#DejaVuSans-69" x="3071.375"/>
     <use xlink:href="#DejaVuSans-6f" x="3099.158203"/>
     <use xlink:href="#DejaVuSans-6e" x="3160.339844"/>
    </g>
   </g>
   <g id="text_24">
    <!-- 2025-09-04 11:54 UTC -->
    <g transform="translate(794.653875 18.14175) scale(0.144 -0.144)">
     <defs>
      <path id="DejaVuSans-3a" d="M 750 794 
L 1409 794 
L 1409 0 
L 750 0 
L 750 794 
z
M 750 3309 
L 1409 3309 
L 1409 2516 
L 750 2516 
L 750 3309 
z
" transform="scale(0.015625)"/>
      <path id="DejaVuSans-55" d="M 556 4666 
L 1191 4666 
L 1191 1831 
Q 1191 1081 1462 751 
Q 1734 422 2344 422 
Q 2950 422 3222 751 
Q 3494 1081 3494 1831 
L 3494 4666 
L 4128 4666 
L 4128 1753 
Q 4128 841 3676 375 
Q 3225 -91 2344 -91 
Q 1459 -91 1007 375 
Q 556 841 556 1753 
L 556 4666 
z
" transform="scale(0.015625)"/>
      <path id="DejaVuSans-54" d="M -19 4666 
L 3928 4666 
L 3928 4134 
L 2272 4134 
L 2272 0 
L 1638 0 
L 1638 4134 
L -19 4134 
L -19 4666 
z
" transform="scale(0.015625)"/>
      <path id="DejaVuSans-43" d="M 4122 4306 
L 4122 3641 
Q 3803 3938 3442 4084 
Q 3081 4231 2675 4231 
Q 1875 4231 1450 3742 
Q 1025 3253 1025 2328 
Q 1025 1406 1450 917 
Q 1875 428 2675 428 
Q 3081 428 3442 575 
Q 3803 722 4122 1019 
L 4122 359 
Q 3791 134 3420 21 
Q 3050 -91 2638 -91 
Q 1578 -91 968 557 
Q 359 1206 359 2328 
Q 359 3453 968 4101 
Q 1578 4750 2638 4750 
Q 3056 4750 3426 4639 
Q 3797 4528 4122 4306 
z
" transform="scale(0.015625)"/>
     </defs>
     <use xlink:href="#DejaVuSans-32"/>
     <use xlink:href="#DejaVuSans-30" x="63.623047"/>
     <use xlink:href="#DejaVuSans-32" x="127.246094"/>
     <use xlink:href="#DejaVuSans-35" x="190.869141"/>
     <use xlink:href="#DejaVuSans-2d" x="254.492188"/>
     <use xlink:href="#DejaVuSans-30" x="290.576172"/>
     <use xlink:href="#DejaVuSans-39" x="354.199219"/>
     <use xlink:href="#DejaVuSans-2d" x="417.822266"/>
     <use xlink:href="#DejaVuSans-30" x="453.90625"/>
     <use xlink:href="#DejaVuSans-34" x="517.529297"/>
     <use xlink:href="#DejaVuSans-20" x="581.152344"/>
     <use xlink:href="#DejaVuSans-31" x="612.939453"/>
     <use xlink:href="#DejaVuSans-31" x="676.5625"/>
     <use xlink:href="#DejaVuSans-3a" x="740.185547"/>
     <use xlink:href="#DejaVuSans-35" x="773.876953"/>
     <use xlink:href="#DejaVuSans-34" x="837.5"/>
     <use xlink:href="#DejaVuSans-20" x="901.123047"/>
     <use xlink:href="#DejaVuSans-55" x="932.910156"/>
     <use xlink:href="#DejaVuSans-54" x="1006.103516"/>
     <use xlink:href="#DejaVuSans-43" x="1061.3125"/>
    </g>
   </g>
   <g id="legend_1">
    <g id="patch_7">
     <path d="M 61.691875 134.888625 
L 170.660625 134.888625 
Q 172.660625 134.888625 172.660625 132.888625 
L 172.660625 31.14175 
Q 172.660625 29.14175 170.660625 29.14175 
L 61.691875 29.14175 
Q 59.691875 29.14175 59.691875 31.14175 
L 59.691875 132.888625 
Q 59.691875 134.888625 61.691875 134.888625 
z
" style="fill: #e5e5e5; opacity: 0.8; stroke: #cccccc; stroke-width: 0.5; stroke-linejoin: miter"/>
    </g>
    <g id="text_25">
     <!-- Distribution -->
     <g transform="translate(87.0075 40.740188) scale(0.1 -0.1)">
      <use xlink:href="#DejaVuSans-44"/>
      <use xlink:href="#DejaVuSans-69" x="77.001953"/>
      <use xlink:href="#DejaVuSans-73" x="104.785156"/>
      <use xlink:href="#DejaVuSans-74" x="156.884766"/>
      <use xlink:href="#DejaVuSans-72" x="196.09375"/>
      <use xlink:href="#DejaVuSans-69" x="237.207031"/>
      <use xlink:href="#DejaVuSans-62" x="264.990234"/>
      <use xlink:href="#DejaVuSans-75" x="328.466797"/>
      <use xlink:href="#DejaVuSans-74" x="391.845703"/>
      <use xlink:href="#DejaVuSans-69" x="431.054688"/>
      <use xlink:href="#DejaVuSans-6f" x="458.837891"/>
      <use xlink:href="#DejaVuSans-6e" x="520.019531"/>
     </g>
    </g>
    <g id="line2d_53">
     <path d="M 63.691875 51.918313 
L 73.691875 51.918313 
L 83.691875 51.918313 
" style="fill: none; stroke: #4ac1fa; stroke-width: 1.5; stroke-linecap: square"/>
    </g>
    <g id="text_26">
     <!-- AlmaLinux -->
     <g transform="translate(91.691875 55.418313) scale(0.1 -0.1)">
      <defs>
       <path id="DejaVuSans-41" d="M 2188 4044 
L 1331 1722 
L 3047 1722 
L 2188 4044 
z
M 1831 4666 
L 2547 4666 
L 4325 0 
L 3669 0 
L 3244 1197 
L 1141 1197 
L 716 0 
L 50 0 
L 1831 4666 
z
" transform="scale(0.015625)"/>
      </defs>
      <use xlink:href="#DejaVuSans-41"/>
      <use xlink:href="#DejaVuSans-6c" x="68.408203"/>
      <use xlink:href="#DejaVuSans-6d" x="96.191406"/>
      <use xlink:href="#DejaVuSans-61" x="193.603516"/>
      <use xlink:href="#DejaVuSans-4c" x="254.882812"/>
      <use xlink:href="#DejaVuSans-69" x="310.595703"/>
      <use xlink:href="#DejaVuSans-6e" x="338.378906"/>
      <use xlink:href="#DejaVuSans-75" x="401.757812"/>
      <use xlink:href="#DejaVuSans-78" x="465.136719"/>
     </g>
    </g>
    <g id="line2d_54">
     <path d="M 63.691875 66.596438 
L 73.691875 66.596438 
L 83.691875 66.596438 
" style="fill: none; stroke: #e9a942; stroke-width: 1.5; stroke-linecap: square"/>
    </g>
    <g id="text_27">
     <!-- CentOS Legacy -->
     <g transform="translate(91.691875 70.096438) scale(0.1 -0.1)">
      <defs>
       <path id="DejaVuSans-4f" d="M 2522 4238 
Q 1834 4238 1429 3725 
Q 1025 3213 1025 2328 
Q 1025 1447 1429 934 
Q 1834 422 2522 422 
Q 3209 422 3611 934 
Q 4013 1447 4013 2328 
Q 4013 3213 3611 3725 
Q 3209 4238 2522 4238 
z
M 2522 4750 
Q 3503 4750 4090 4092 
Q 4678 3434 4678 2328 
Q 4678 1225 4090 567 
Q 3503 -91 2522 -91 
Q 1538 -91 948 565 
Q 359 1222 359 2328 
Q 359 3434 948 4092 
Q 1538 4750 2522 4750 
z
" transform="scale(0.015625)"/>
       <path id="DejaVuSans-53" d="M 3425 4513 
L 3425 3897 
Q 3066 4069 2747 4153 
Q 2428 4238 2131 4238 
Q 1616 4238 1336 4038 
Q 1056 3838 1056 3469 
Q 1056 3159 1242 3001 
Q 1428 2844 1947 2747 
L 2328 2669 
Q 3034 2534 3370 2195 
Q 3706 1856 3706 1288 
Q 3706 609 3251 259 
Q 2797 -91 1919 -91 
Q 1588 -91 1214 -16 
Q 841 59 441 206 
L 441 856 
Q 825 641 1194 531 
Q 1563 422 1919 422 
Q 2459 422 2753 634 
Q 3047 847 3047 1241 
Q 3047 1584 2836 1778 
Q 2625 1972 2144 2069 
L 1759 2144 
Q 1053 2284 737 2584 
Q 422 2884 422 3419 
Q 422 4038 858 4394 
Q 1294 4750 2059 4750 
Q 2388 4750 2728 4690 
Q 3069 4631 3425 4513 
z
" transform="scale(0.015625)"/>
       <path id="DejaVuSans-67" d="M 2906 1791 
Q 2906 2416 2648 2759 
Q 2391 3103 1925 3103 
Q 1463 3103 1205 2759 
Q 947 2416 947 1791 
Q 947 1169 1205 825 
Q 1463 481 1925 481 
Q 2391 481 2648 825 
Q 2906 1169 2906 1791 
z
M 3481 434 
Q 3481 -459 3084 -895 
Q 2688 -1331 1869 -1331 
Q 1566 -1331 1297 -1286 
Q 1028 -1241 775 -1147 
L 775 -588 
Q 1028 -725 1275 -790 
Q 1522 -856 1778 -856 
Q 2344 -856 2625 -561 
Q 2906 -266 2906 331 
L 2906 616 
Q 2728 306 2450 153 
Q 2172 0 1784 0 
Q 1141 0 747 490 
Q 353 981 353 1791 
Q 353 2603 747 3093 
Q 1141 3584 1784 3584 
Q 2172 3584 2450 3431 
Q 2728 3278 2906 2969 
L 2906 3500 
L 3481 3500 
L 3481 434 
z
" transform="scale(0.015625)"/>
      </defs>
      <use xlink:href="#DejaVuSans-43"/>
      <use xlink:href="#DejaVuSans-65" x="69.824219"/>
      <use xlink:href="#DejaVuSans-6e" x="131.347656"/>
      <use xlink:href="#DejaVuSans-74" x="194.726562"/>
      <use xlink:href="#DejaVuSans-4f" x="233.935547"/>
      <use xlink:href="#DejaVuSans-53" x="312.646484"/>
      <use xlink:href="#DejaVuSans-20" x="376.123047"/>
      <use xlink:href="#DejaVuSans-4c" x="407.910156"/>
      <use xlink:href="#DejaVuSans-65" x="461.873047"/>
      <use xlink:href="#DejaVuSans-67" x="523.396484"/>
      <use xlink:href="#DejaVuSans-61" x="586.873047"/>
      <use xlink:href="#DejaVuSans-63" x="648.152344"/>
      <use xlink:href="#DejaVuSans-79" x="703.132812"/>
     </g>
    </g>
    <g id="line2d_55">
     <path d="M 63.691875 81.274563 
L 73.691875 81.274563 
L 83.691875 81.274563 
" style="fill: none; stroke: #9a5689; stroke-width: 1.5; stroke-linecap: square"/>
    </g>
    <g id="text_28">
     <!-- CentOS Stream -->
     <g transform="translate(91.691875 84.774563) scale(0.1 -0.1)">
      <use xlink:href="#DejaVuSans-43"/>
      <use xlink:href="#DejaVuSans-65" x="69.824219"/>
      <use xlink:href="#DejaVuSans-6e" x="131.347656"/>
      <use xlink:href="#DejaVuSans-74" x="194.726562"/>
      <use xlink:href="#DejaVuSans-4f" x="233.935547"/>
      <use xlink:href="#DejaVuSans-53" x="312.646484"/>
      <use xlink:href="#DejaVuSans-20" x="376.123047"/>
      <use xlink:href="#DejaVuSans-53" x="407.910156"/>
      <use xlink:href="#DejaVuSans-74" x="471.386719"/>
      <use xlink:href="#DejaVuSans-72" x="510.595703"/>
      <use xlink:href="#DejaVuSans-65" x="549.458984"/>
      <use xlink:href="#DejaVuSans-61" x="610.982422"/>
      <use xlink:href="#DejaVuSans-6d" x="672.261719"/>
     </g>
    </g>
    <g id="line2d_56">
     <path d="M 63.691875 95.952688 
L 73.691875 95.952688 
L 83.691875 95.952688 
" style="fill: none; stroke: #be503b; stroke-width: 1.5; stroke-linecap: square"/>
    </g>
    <g id="text_29">
     <!-- Oracle -->
     <g transform="translate(91.691875 99.452688) scale(0.1 -0.1)">
      <use xlink:href="#DejaVuSans-4f"/>
      <use xlink:href="#DejaVuSans-72" x="78.710938"/>
      <use xlink:href="#DejaVuSans-61" x="119.824219"/>
      <use xlink:href="#DejaVuSans-63" x="181.103516"/>
      <use xlink:href="#DejaVuSans-6c" x="236.083984"/>
      <use xlink:href="#DejaVuSans-65" x="263.867188"/>
     </g>
    </g>
    <g id="line2d_57">
     <path d="M 63.691875 110.630813 
L 73.691875 110.630813 
L 83.691875 110.630813 
" style="fill: none; stroke: #e2321d; stroke-width: 1.5; stroke-linecap: square"/>
    </g>
    <g id="text_30">
     <!-- RHEL -->
     <g transform="translate(91.691875 114.130813) scale(0.1 -0.1)">
      <defs>
       <path id="DejaVuSans-52" d="M 2841 2188 
Q 3044 2119 3236 1894 
Q 3428 1669 3622 1275 
L 4263 0 
L 3584 0 
L 2988 1197 
Q 2756 1666 2539 1819 
Q 2322 1972 1947 1972 
L 1259 1972 
L 1259 0 
L 628 0 
L 628 4666 
L 2053 4666 
Q 2853 4666 3247 4331 
Q 3641 3997 3641 3322 
Q 3641 2881 3436 2590 
Q 3231 2300 2841 2188 
z
M 1259 4147 
L 1259 2491 
L 2053 2491 
Q 2509 2491 2742 2702 
Q 2975 2913 2975 3322 
Q 2975 3731 2742 3939 
Q 2509 4147 2053 4147 
L 1259 4147 
z
" transform="scale(0.015625)"/>
       <path id="DejaVuSans-48" d="M 628 4666 
L 1259 4666 
L 1259 2753 
L 3553 2753 
L 3553 4666 
L 4184 4666 
L 4184 0 
L 3553 0 
L 3553 2222 
L 1259 2222 
L 1259 0 
L 628 0 
L 628 4666 
z
" transform="scale(0.015625)"/>
      </defs>
      <use xlink:href="#DejaVuSans-52"/>
      <use xlink:href="#DejaVuSans-48" x="69.482422"/>
      <use xlink:href="#DejaVuSans-45" x="144.677734"/>
      <use xlink:href="#DejaVuSans-4c" x="207.861328"/>
     </g>
    </g>
    <g id="line2d_58">
     <path d="M 63.691875 125.308938 
L 73.691875 125.308938 
L 83.691875 125.308938 
" style="fill: none; stroke: #48b585; stroke-width: 6; stroke-linecap: square"/>
    </g>
    <g id="text_31">
     <!-- Rocky Linux -->
     <g transform="translate(91.691875 128.808938) scale(0.1 -0.1)">
      <use xlink:href="#DejaVuSans-52"/>
      <use xlink:href="#DejaVuSans-6f" x="64.982422"/>
      <use xlink:href="#DejaVuSans-63" x="126.164062"/>
      <use xlink:href="#DejaVuSans-6b" x="181.144531"/>
      <use xlink:href="#DejaVuSans-79" x="235.429688"/>
      <use xlink:href="#DejaVuSans-20" x="294.609375"/>
      <use xlink:href="#DejaVuSans-4c" x="326.396484"/>
      <use xlink:href="#DejaVuSans-69" x="382.109375"/>
      <use xlink:href="#DejaVuSans-6e" x="409.892578"/>
      <use xlink:href="#DejaVuSans-75" x="473.271484"/>
      <use xlink:href="#DejaVuSans-78" x="536.650391"/>
     </g>
    </g>
   </g>
  </g>
 </g>
 <defs>
  <clipPath id="pe0be39aa18">
   <rect x="54.691875" y="24.14175" width="902.844" height="554.4"/>
  </clipPath>
 </defs>
</svg>
