<?xml version="1.0" encoding="utf-8" standalone="no"?>
<!DOCTYPE svg PUBLIC "-//W3C//DTD SVG 1.1//EN"
  "http://www.w3.org/Graphics/SVG/1.1/DTD/svg11.dtd">
<svg xmlns:xlink="http://www.w3.org/1999/xlink" width="964.735875pt" height="633.943878pt" viewBox="0 0 964.735875 633.943878" xmlns="http://www.w3.org/2000/svg" version="1.1">
 <metadata>
  <rdf:RDF xmlns:dc="http://purl.org/dc/elements/1.1/" xmlns:cc="http://creativecommons.org/ns#" xmlns:rdf="http://www.w3.org/1999/02/22-rdf-syntax-ns#">
   <cc:Work>
    <dc:type rdf:resource="http://purl.org/dc/dcmitype/StillImage"/>
    <dc:date>2024-12-05T11:55:14.402040</dc:date>
    <dc:format>image/svg+xml</dc:format>
    <dc:creator>
     <cc:Agent>
      <dc:title>Matplotlib v3.5.1, https://matplotlib.org/</dc:title>
     </cc:Agent>
    </dc:creator>
   </cc:Work>
  </rdf:RDF>
 </metadata>
 <defs>
  <style type="text/css">*{stroke-linejoin: round; stroke-linecap: butt}</style>
 </defs>
 <g id="figure_1">
  <g id="patch_1">
   <path d="M 0 633.943878 
L 964.735875 633.943878 
L 964.735875 0 
L 0 0 
z
" style="fill: #ffffff"/>
  </g>
  <g id="axes_1">
   <g id="patch_2">
    <path d="M 54.691875 567.74175 
L 957.535875 567.74175 
L 957.535875 24.14175 
L 54.691875 24.14175 
z
" style="fill: #e5e5e5"/>
   </g>
   <g id="matplotlib.axis_1">
    <g id="xtick_1">
     <g id="line2d_1">
      <path d="M 98.544298 567.74175 
L 98.544298 24.14175 
" clip-path="url(#p441367b7ea)" style="fill: none; stroke: #ffffff; stroke-width: 0.8; stroke-linecap: square"/>
     </g>
     <g id="line2d_2">
      <defs>
       <path id="mf2a7310800" d="M 0 0 
L 0 3.5 
" style="stroke: #555555; stroke-width: 0.8"/>
      </defs>
      <g>
       <use xlink:href="#mf2a7310800" x="98.544298" y="567.74175" style="fill: #555555; stroke: #555555; stroke-width: 0.8"/>
      </g>
     </g>
     <g id="text_1">
      <!-- 2023-12 -->
      <g style="fill: #555555" transform="translate(85.723016 609.659567)rotate(-45)scale(0.1 -0.1)">
       <defs>
        <path id="DejaVuSans-32" d="M 1228 531 
L 3431 531 
L 3431 0 
L 469 0 
L 469 531 
Q 828 903 1448 1529 
Q 2069 2156 2228 2338 
Q 2531 2678 2651 2914 
Q 2772 3150 2772 3378 
Q 2772 3750 2511 3984 
Q 2250 4219 1831 4219 
Q 1534 4219 1204 4116 
Q 875 4013 500 3803 
L 500 4441 
Q 881 4594 1212 4672 
Q 1544 4750 1819 4750 
Q 2544 4750 2975 4387 
Q 3406 4025 3406 3419 
Q 3406 3131 3298 2873 
Q 3191 2616 2906 2266 
Q 2828 2175 2409 1742 
Q 1991 1309 1228 531 
z
" transform="scale(0.015625)"/>
        <path id="DejaVuSans-30" d="M 2034 4250 
Q 1547 4250 1301 3770 
Q 1056 3291 1056 2328 
Q 1056 1369 1301 889 
Q 1547 409 2034 409 
Q 2525 409 2770 889 
Q 3016 1369 3016 2328 
Q 3016 3291 2770 3770 
Q 2525 4250 2034 4250 
z
M 2034 4750 
Q 2819 4750 3233 4129 
Q 3647 3509 3647 2328 
Q 3647 1150 3233 529 
Q 2819 -91 2034 -91 
Q 1250 -91 836 529 
Q 422 1150 422 2328 
Q 422 3509 836 4129 
Q 1250 4750 2034 4750 
z
" transform="scale(0.015625)"/>
        <path id="DejaVuSans-33" d="M 2597 2516 
Q 3050 2419 3304 2112 
Q 3559 1806 3559 1356 
Q 3559 666 3084 287 
Q 2609 -91 1734 -91 
Q 1441 -91 1130 -33 
Q 819 25 488 141 
L 488 750 
Q 750 597 1062 519 
Q 1375 441 1716 441 
Q 2309 441 2620 675 
Q 2931 909 2931 1356 
Q 2931 1769 2642 2001 
Q 2353 2234 1838 2234 
L 1294 2234 
L 1294 2753 
L 1863 2753 
Q 2328 2753 2575 2939 
Q 2822 3125 2822 3475 
Q 2822 3834 2567 4026 
Q 2313 4219 1838 4219 
Q 1578 4219 1281 4162 
Q 984 4106 628 3988 
L 628 4550 
Q 988 4650 1302 4700 
Q 1616 4750 1894 4750 
Q 2613 4750 3031 4423 
Q 3450 4097 3450 3541 
Q 3450 3153 3228 2886 
Q 3006 2619 2597 2516 
z
" transform="scale(0.015625)"/>
        <path id="DejaVuSans-2d" d="M 313 2009 
L 1997 2009 
L 1997 1497 
L 313 1497 
L 313 2009 
z
" transform="scale(0.015625)"/>
        <path id="DejaVuSans-31" d="M 794 531 
L 1825 531 
L 1825 4091 
L 703 3866 
L 703 4441 
L 1819 4666 
L 2450 4666 
L 2450 531 
L 3481 531 
L 3481 0 
L 794 0 
L 794 531 
z
" transform="scale(0.015625)"/>
       </defs>
       <use xlink:href="#DejaVuSans-32"/>
       <use xlink:href="#DejaVuSans-30" x="63.623047"/>
       <use xlink:href="#DejaVuSans-32" x="127.246094"/>
       <use xlink:href="#DejaVuSans-33" x="190.869141"/>
       <use xlink:href="#DejaVuSans-2d" x="254.492188"/>
       <use xlink:href="#DejaVuSans-31" x="290.576172"/>
       <use xlink:href="#DejaVuSans-32" x="354.199219"/>
      </g>
     </g>
    </g>
    <g id="xtick_2">
     <g id="line2d_3">
      <path d="M 178.510481 567.74175 
L 178.510481 24.14175 
" clip-path="url(#p441367b7ea)" style="fill: none; stroke: #ffffff; stroke-width: 0.8; stroke-linecap: square"/>
     </g>
     <g id="line2d_4">
      <g>
       <use xlink:href="#mf2a7310800" x="178.510481" y="567.74175" style="fill: #555555; stroke: #555555; stroke-width: 0.8"/>
      </g>
     </g>
     <g id="text_2">
      <!-- 2024-01 -->
      <g style="fill: #555555" transform="translate(165.689198 609.659567)rotate(-45)scale(0.1 -0.1)">
       <defs>
        <path id="DejaVuSans-34" d="M 2419 4116 
L 825 1625 
L 2419 1625 
L 2419 4116 
z
M 2253 4666 
L 3047 4666 
L 3047 1625 
L 3713 1625 
L 3713 1100 
L 3047 1100 
L 3047 0 
L 2419 0 
L 2419 1100 
L 313 1100 
L 313 1709 
L 2253 4666 
z
" transform="scale(0.015625)"/>
       </defs>
       <use xlink:href="#DejaVuSans-32"/>
       <use xlink:href="#DejaVuSans-30" x="63.623047"/>
       <use xlink:href="#DejaVuSans-32" x="127.246094"/>
       <use xlink:href="#DejaVuSans-34" x="190.869141"/>
       <use xlink:href="#DejaVuSans-2d" x="254.492188"/>
       <use xlink:href="#DejaVuSans-30" x="290.576172"/>
       <use xlink:href="#DejaVuSans-31" x="354.199219"/>
      </g>
     </g>
    </g>
    <g id="xtick_3">
     <g id="line2d_5">
      <path d="M 258.476664 567.74175 
L 258.476664 24.14175 
" clip-path="url(#p441367b7ea)" style="fill: none; stroke: #ffffff; stroke-width: 0.8; stroke-linecap: square"/>
     </g>
     <g id="line2d_6">
      <g>
       <use xlink:href="#mf2a7310800" x="258.476664" y="567.74175" style="fill: #555555; stroke: #555555; stroke-width: 0.8"/>
      </g>
     </g>
     <g id="text_3">
      <!-- 2024-02 -->
      <g style="fill: #555555" transform="translate(245.655381 609.659567)rotate(-45)scale(0.1 -0.1)">
       <use xlink:href="#DejaVuSans-32"/>
       <use xlink:href="#DejaVuSans-30" x="63.623047"/>
       <use xlink:href="#DejaVuSans-32" x="127.246094"/>
       <use xlink:href="#DejaVuSans-34" x="190.869141"/>
       <use xlink:href="#DejaVuSans-2d" x="254.492188"/>
       <use xlink:href="#DejaVuSans-30" x="290.576172"/>
       <use xlink:href="#DejaVuSans-32" x="354.199219"/>
      </g>
     </g>
    </g>
    <g id="xtick_4">
     <g id="line2d_7">
      <path d="M 333.283738 567.74175 
L 333.283738 24.14175 
" clip-path="url(#p441367b7ea)" style="fill: none; stroke: #ffffff; stroke-width: 0.8; stroke-linecap: square"/>
     </g>
     <g id="line2d_8">
      <g>
       <use xlink:href="#mf2a7310800" x="333.283738" y="567.74175" style="fill: #555555; stroke: #555555; stroke-width: 0.8"/>
      </g>
     </g>
     <g id="text_4">
      <!-- 2024-03 -->
      <g style="fill: #555555" transform="translate(320.462456 609.659567)rotate(-45)scale(0.1 -0.1)">
       <use xlink:href="#DejaVuSans-32"/>
       <use xlink:href="#DejaVuSans-30" x="63.623047"/>
       <use xlink:href="#DejaVuSans-32" x="127.246094"/>
       <use xlink:href="#DejaVuSans-34" x="190.869141"/>
       <use xlink:href="#DejaVuSans-2d" x="254.492188"/>
       <use xlink:href="#DejaVuSans-30" x="290.576172"/>
       <use xlink:href="#DejaVuSans-33" x="354.199219"/>
      </g>
     </g>
    </g>
    <g id="xtick_5">
     <g id="line2d_9">
      <path d="M 413.249921 567.74175 
L 413.249921 24.14175 
" clip-path="url(#p441367b7ea)" style="fill: none; stroke: #ffffff; stroke-width: 0.8; stroke-linecap: square"/>
     </g>
     <g id="line2d_10">
      <g>
       <use xlink:href="#mf2a7310800" x="413.249921" y="567.74175" style="fill: #555555; stroke: #555555; stroke-width: 0.8"/>
      </g>
     </g>
     <g id="text_5">
      <!-- 2024-04 -->
      <g style="fill: #555555" transform="translate(400.428638 609.659567)rotate(-45)scale(0.1 -0.1)">
       <use xlink:href="#DejaVuSans-32"/>
       <use xlink:href="#DejaVuSans-30" x="63.623047"/>
       <use xlink:href="#DejaVuSans-32" x="127.246094"/>
       <use xlink:href="#DejaVuSans-34" x="190.869141"/>
       <use xlink:href="#DejaVuSans-2d" x="254.492188"/>
       <use xlink:href="#DejaVuSans-30" x="290.576172"/>
       <use xlink:href="#DejaVuSans-34" x="354.199219"/>
      </g>
     </g>
    </g>
    <g id="xtick_6">
     <g id="line2d_11">
      <path d="M 490.636549 567.74175 
L 490.636549 24.14175 
" clip-path="url(#p441367b7ea)" style="fill: none; stroke: #ffffff; stroke-width: 0.8; stroke-linecap: square"/>
     </g>
     <g id="line2d_12">
      <g>
       <use xlink:href="#mf2a7310800" x="490.636549" y="567.74175" style="fill: #555555; stroke: #555555; stroke-width: 0.8"/>
      </g>
     </g>
     <g id="text_6">
      <!-- 2024-05 -->
      <g style="fill: #555555" transform="translate(477.815267 609.659567)rotate(-45)scale(0.1 -0.1)">
       <defs>
        <path id="DejaVuSans-35" d="M 691 4666 
L 3169 4666 
L 3169 4134 
L 1269 4134 
L 1269 2991 
Q 1406 3038 1543 3061 
Q 1681 3084 1819 3084 
Q 2600 3084 3056 2656 
Q 3513 2228 3513 1497 
Q 3513 744 3044 326 
Q 2575 -91 1722 -91 
Q 1428 -91 1123 -41 
Q 819 9 494 109 
L 494 744 
Q 775 591 1075 516 
Q 1375 441 1709 441 
Q 2250 441 2565 725 
Q 2881 1009 2881 1497 
Q 2881 1984 2565 2268 
Q 2250 2553 1709 2553 
Q 1456 2553 1204 2497 
Q 953 2441 691 2322 
L 691 4666 
z
" transform="scale(0.015625)"/>
       </defs>
       <use xlink:href="#DejaVuSans-32"/>
       <use xlink:href="#DejaVuSans-30" x="63.623047"/>
       <use xlink:href="#DejaVuSans-32" x="127.246094"/>
       <use xlink:href="#DejaVuSans-34" x="190.869141"/>
       <use xlink:href="#DejaVuSans-2d" x="254.492188"/>
       <use xlink:href="#DejaVuSans-30" x="290.576172"/>
       <use xlink:href="#DejaVuSans-35" x="354.199219"/>
      </g>
     </g>
    </g>
    <g id="xtick_7">
     <g id="line2d_13">
      <path d="M 570.602732 567.74175 
L 570.602732 24.14175 
" clip-path="url(#p441367b7ea)" style="fill: none; stroke: #ffffff; stroke-width: 0.8; stroke-linecap: square"/>
     </g>
     <g id="line2d_14">
      <g>
       <use xlink:href="#mf2a7310800" x="570.602732" y="567.74175" style="fill: #555555; stroke: #555555; stroke-width: 0.8"/>
      </g>
     </g>
     <g id="text_7">
      <!-- 2024-06 -->
      <g style="fill: #555555" transform="translate(557.78145 609.659567)rotate(-45)scale(0.1 -0.1)">
       <defs>
        <path id="DejaVuSans-36" d="M 2113 2584 
Q 1688 2584 1439 2293 
Q 1191 2003 1191 1497 
Q 1191 994 1439 701 
Q 1688 409 2113 409 
Q 2538 409 2786 701 
Q 3034 994 3034 1497 
Q 3034 2003 2786 2293 
Q 2538 2584 2113 2584 
z
M 3366 4563 
L 3366 3988 
Q 3128 4100 2886 4159 
Q 2644 4219 2406 4219 
Q 1781 4219 1451 3797 
Q 1122 3375 1075 2522 
Q 1259 2794 1537 2939 
Q 1816 3084 2150 3084 
Q 2853 3084 3261 2657 
Q 3669 2231 3669 1497 
Q 3669 778 3244 343 
Q 2819 -91 2113 -91 
Q 1303 -91 875 529 
Q 447 1150 447 2328 
Q 447 3434 972 4092 
Q 1497 4750 2381 4750 
Q 2619 4750 2861 4703 
Q 3103 4656 3366 4563 
z
" transform="scale(0.015625)"/>
       </defs>
       <use xlink:href="#DejaVuSans-32"/>
       <use xlink:href="#DejaVuSans-30" x="63.623047"/>
       <use xlink:href="#DejaVuSans-32" x="127.246094"/>
       <use xlink:href="#DejaVuSans-34" x="190.869141"/>
       <use xlink:href="#DejaVuSans-2d" x="254.492188"/>
       <use xlink:href="#DejaVuSans-30" x="290.576172"/>
       <use xlink:href="#DejaVuSans-36" x="354.199219"/>
      </g>
     </g>
    </g>
    <g id="xtick_8">
     <g id="line2d_15">
      <path d="M 647.989361 567.74175 
L 647.989361 24.14175 
" clip-path="url(#p441367b7ea)" style="fill: none; stroke: #ffffff; stroke-width: 0.8; stroke-linecap: square"/>
     </g>
     <g id="line2d_16">
      <g>
       <use xlink:href="#mf2a7310800" x="647.989361" y="567.74175" style="fill: #555555; stroke: #555555; stroke-width: 0.8"/>
      </g>
     </g>
     <g id="text_8">
      <!-- 2024-07 -->
      <g style="fill: #555555" transform="translate(635.168078 609.659567)rotate(-45)scale(0.1 -0.1)">
       <defs>
        <path id="DejaVuSans-37" d="M 525 4666 
L 3525 4666 
L 3525 4397 
L 1831 0 
L 1172 0 
L 2766 4134 
L 525 4134 
L 525 4666 
z
" transform="scale(0.015625)"/>
       </defs>
       <use xlink:href="#DejaVuSans-32"/>
       <use xlink:href="#DejaVuSans-30" x="63.623047"/>
       <use xlink:href="#DejaVuSans-32" x="127.246094"/>
       <use xlink:href="#DejaVuSans-34" x="190.869141"/>
       <use xlink:href="#DejaVuSans-2d" x="254.492188"/>
       <use xlink:href="#DejaVuSans-30" x="290.576172"/>
       <use xlink:href="#DejaVuSans-37" x="354.199219"/>
      </g>
     </g>
    </g>
    <g id="xtick_9">
     <g id="line2d_17">
      <path d="M 727.955544 567.74175 
L 727.955544 24.14175 
" clip-path="url(#p441367b7ea)" style="fill: none; stroke: #ffffff; stroke-width: 0.8; stroke-linecap: square"/>
     </g>
     <g id="line2d_18">
      <g>
       <use xlink:href="#mf2a7310800" x="727.955544" y="567.74175" style="fill: #555555; stroke: #555555; stroke-width: 0.8"/>
      </g>
     </g>
     <g id="text_9">
      <!-- 2024-08 -->
      <g style="fill: #555555" transform="translate(715.134261 609.659567)rotate(-45)scale(0.1 -0.1)">
       <defs>
        <path id="DejaVuSans-38" d="M 2034 2216 
Q 1584 2216 1326 1975 
Q 1069 1734 1069 1313 
Q 1069 891 1326 650 
Q 1584 409 2034 409 
Q 2484 409 2743 651 
Q 3003 894 3003 1313 
Q 3003 1734 2745 1975 
Q 2488 2216 2034 2216 
z
M 1403 2484 
Q 997 2584 770 2862 
Q 544 3141 544 3541 
Q 544 4100 942 4425 
Q 1341 4750 2034 4750 
Q 2731 4750 3128 4425 
Q 3525 4100 3525 3541 
Q 3525 3141 3298 2862 
Q 3072 2584 2669 2484 
Q 3125 2378 3379 2068 
Q 3634 1759 3634 1313 
Q 3634 634 3220 271 
Q 2806 -91 2034 -91 
Q 1263 -91 848 271 
Q 434 634 434 1313 
Q 434 1759 690 2068 
Q 947 2378 1403 2484 
z
M 1172 3481 
Q 1172 3119 1398 2916 
Q 1625 2713 2034 2713 
Q 2441 2713 2670 2916 
Q 2900 3119 2900 3481 
Q 2900 3844 2670 4047 
Q 2441 4250 2034 4250 
Q 1625 4250 1398 4047 
Q 1172 3844 1172 3481 
z
" transform="scale(0.015625)"/>
       </defs>
       <use xlink:href="#DejaVuSans-32"/>
       <use xlink:href="#DejaVuSans-30" x="63.623047"/>
       <use xlink:href="#DejaVuSans-32" x="127.246094"/>
       <use xlink:href="#DejaVuSans-34" x="190.869141"/>
       <use xlink:href="#DejaVuSans-2d" x="254.492188"/>
       <use xlink:href="#DejaVuSans-30" x="290.576172"/>
       <use xlink:href="#DejaVuSans-38" x="354.199219"/>
      </g>
     </g>
    </g>
    <g id="xtick_10">
     <g id="line2d_19">
      <path d="M 807.921726 567.74175 
L 807.921726 24.14175 
" clip-path="url(#p441367b7ea)" style="fill: none; stroke: #ffffff; stroke-width: 0.8; stroke-linecap: square"/>
     </g>
     <g id="line2d_20">
      <g>
       <use xlink:href="#mf2a7310800" x="807.921726" y="567.74175" style="fill: #555555; stroke: #555555; stroke-width: 0.8"/>
      </g>
     </g>
     <g id="text_10">
      <!-- 2024-09 -->
      <g style="fill: #555555" transform="translate(795.100444 609.659567)rotate(-45)scale(0.1 -0.1)">
       <defs>
        <path id="DejaVuSans-39" d="M 703 97 
L 703 672 
Q 941 559 1184 500 
Q 1428 441 1663 441 
Q 2288 441 2617 861 
Q 2947 1281 2994 2138 
Q 2813 1869 2534 1725 
Q 2256 1581 1919 1581 
Q 1219 1581 811 2004 
Q 403 2428 403 3163 
Q 403 3881 828 4315 
Q 1253 4750 1959 4750 
Q 2769 4750 3195 4129 
Q 3622 3509 3622 2328 
Q 3622 1225 3098 567 
Q 2575 -91 1691 -91 
Q 1453 -91 1209 -44 
Q 966 3 703 97 
z
M 1959 2075 
Q 2384 2075 2632 2365 
Q 2881 2656 2881 3163 
Q 2881 3666 2632 3958 
Q 2384 4250 1959 4250 
Q 1534 4250 1286 3958 
Q 1038 3666 1038 3163 
Q 1038 2656 1286 2365 
Q 1534 2075 1959 2075 
z
" transform="scale(0.015625)"/>
       </defs>
       <use xlink:href="#DejaVuSans-32"/>
       <use xlink:href="#DejaVuSans-30" x="63.623047"/>
       <use xlink:href="#DejaVuSans-32" x="127.246094"/>
       <use xlink:href="#DejaVuSans-34" x="190.869141"/>
       <use xlink:href="#DejaVuSans-2d" x="254.492188"/>
       <use xlink:href="#DejaVuSans-30" x="290.576172"/>
       <use xlink:href="#DejaVuSans-39" x="354.199219"/>
      </g>
     </g>
    </g>
    <g id="xtick_11">
     <g id="line2d_21">
      <path d="M 885.308355 567.74175 
L 885.308355 24.14175 
" clip-path="url(#p441367b7ea)" style="fill: none; stroke: #ffffff; stroke-width: 0.8; stroke-linecap: square"/>
     </g>
     <g id="line2d_22">
      <g>
       <use xlink:href="#mf2a7310800" x="885.308355" y="567.74175" style="fill: #555555; stroke: #555555; stroke-width: 0.8"/>
      </g>
     </g>
     <g id="text_11">
      <!-- 2024-10 -->
      <g style="fill: #555555" transform="translate(872.487073 609.659567)rotate(-45)scale(0.1 -0.1)">
       <use xlink:href="#DejaVuSans-32"/>
       <use xlink:href="#DejaVuSans-30" x="63.623047"/>
       <use xlink:href="#DejaVuSans-32" x="127.246094"/>
       <use xlink:href="#DejaVuSans-34" x="190.869141"/>
       <use xlink:href="#DejaVuSans-2d" x="254.492188"/>
       <use xlink:href="#DejaVuSans-31" x="290.576172"/>
       <use xlink:href="#DejaVuSans-30" x="354.199219"/>
      </g>
     </g>
    </g>
    <g id="text_12">
     <!-- Date -->
     <g style="fill: #555555" transform="translate(491.772938 624.248253)scale(0.12 -0.12)">
      <defs>
       <path id="DejaVuSans-44" d="M 1259 4147 
L 1259 519 
L 2022 519 
Q 2988 519 3436 956 
Q 3884 1394 3884 2338 
Q 3884 3275 3436 3711 
Q 2988 4147 2022 4147 
L 1259 4147 
z
M 628 4666 
L 1925 4666 
Q 3281 4666 3915 4102 
Q 4550 3538 4550 2338 
Q 4550 1131 3912 565 
Q 3275 0 1925 0 
L 628 0 
L 628 4666 
z
" transform="scale(0.015625)"/>
       <path id="DejaVuSans-61" d="M 2194 1759 
Q 1497 1759 1228 1600 
Q 959 1441 959 1056 
Q 959 750 1161 570 
Q 1363 391 1709 391 
Q 2188 391 2477 730 
Q 2766 1069 2766 1631 
L 2766 1759 
L 2194 1759 
z
M 3341 1997 
L 3341 0 
L 2766 0 
L 2766 531 
Q 2569 213 2275 61 
Q 1981 -91 1556 -91 
Q 1019 -91 701 211 
Q 384 513 384 1019 
Q 384 1609 779 1909 
Q 1175 2209 1959 2209 
L 2766 2209 
L 2766 2266 
Q 2766 2663 2505 2880 
Q 2244 3097 1772 3097 
Q 1472 3097 1187 3025 
Q 903 2953 641 2809 
L 641 3341 
Q 956 3463 1253 3523 
Q 1550 3584 1831 3584 
Q 2591 3584 2966 3190 
Q 3341 2797 3341 1997 
z
" transform="scale(0.015625)"/>
       <path id="DejaVuSans-74" d="M 1172 4494 
L 1172 3500 
L 2356 3500 
L 2356 3053 
L 1172 3053 
L 1172 1153 
Q 1172 725 1289 603 
Q 1406 481 1766 481 
L 2356 481 
L 2356 0 
L 1766 0 
Q 1100 0 847 248 
Q 594 497 594 1153 
L 594 3053 
L 172 3053 
L 172 3500 
L 594 3500 
L 594 4494 
L 1172 4494 
z
" transform="scale(0.015625)"/>
       <path id="DejaVuSans-65" d="M 3597 1894 
L 3597 1613 
L 953 1613 
Q 991 1019 1311 708 
Q 1631 397 2203 397 
Q 2534 397 2845 478 
Q 3156 559 3463 722 
L 3463 178 
Q 3153 47 2828 -22 
Q 2503 -91 2169 -91 
Q 1331 -91 842 396 
Q 353 884 353 1716 
Q 353 2575 817 3079 
Q 1281 3584 2069 3584 
Q 2775 3584 3186 3129 
Q 3597 2675 3597 1894 
z
M 3022 2063 
Q 3016 2534 2758 2815 
Q 2500 3097 2075 3097 
Q 1594 3097 1305 2825 
Q 1016 2553 972 2059 
L 3022 2063 
z
" transform="scale(0.015625)"/>
      </defs>
      <use xlink:href="#DejaVuSans-44"/>
      <use xlink:href="#DejaVuSans-61" x="77.001953"/>
      <use xlink:href="#DejaVuSans-74" x="138.28125"/>
      <use xlink:href="#DejaVuSans-65" x="177.490234"/>
     </g>
    </g>
   </g>
   <g id="matplotlib.axis_2">
    <g id="ytick_1">
     <g id="line2d_23">
      <path d="M 54.691875 567.74175 
L 957.535875 567.74175 
" clip-path="url(#p441367b7ea)" style="fill: none; stroke: #ffffff; stroke-width: 0.8; stroke-linecap: square"/>
     </g>
     <g id="line2d_24">
      <defs>
       <path id="m9b58537dde" d="M 0 0 
L -3.5 0 
" style="stroke: #555555; stroke-width: 0.8"/>
      </defs>
      <g>
       <use xlink:href="#m9b58537dde" x="54.691875" y="567.74175" style="fill: #555555; stroke: #555555; stroke-width: 0.8"/>
      </g>
     </g>
     <g id="text_13">
      <!-- 0k -->
      <g style="fill: #555555" transform="translate(35.53875 571.540969)scale(0.1 -0.1)">
       <defs>
        <path id="DejaVuSans-6b" d="M 581 4863 
L 1159 4863 
L 1159 1991 
L 2875 3500 
L 3609 3500 
L 1753 1863 
L 3688 0 
L 2938 0 
L 1159 1709 
L 1159 0 
L 581 0 
L 581 4863 
z
" transform="scale(0.015625)"/>
       </defs>
       <use xlink:href="#DejaVuSans-30"/>
       <use xlink:href="#DejaVuSans-6b" x="63.623047"/>
      </g>
     </g>
    </g>
    <g id="ytick_2">
     <g id="line2d_25">
      <path d="M 54.691875 467.181156 
L 957.535875 467.181156 
" clip-path="url(#p441367b7ea)" style="fill: none; stroke: #ffffff; stroke-width: 0.8; stroke-linecap: square"/>
     </g>
     <g id="line2d_26">
      <g>
       <use xlink:href="#m9b58537dde" x="54.691875" y="467.181156" style="fill: #555555; stroke: #555555; stroke-width: 0.8"/>
      </g>
     </g>
     <g id="text_14">
      <!-- 100k -->
      <g style="fill: #555555" transform="translate(22.81375 470.980375)scale(0.1 -0.1)">
       <use xlink:href="#DejaVuSans-31"/>
       <use xlink:href="#DejaVuSans-30" x="63.623047"/>
       <use xlink:href="#DejaVuSans-30" x="127.246094"/>
       <use xlink:href="#DejaVuSans-6b" x="190.869141"/>
      </g>
     </g>
    </g>
    <g id="ytick_3">
     <g id="line2d_27">
      <path d="M 54.691875 366.620562 
L 957.535875 366.620562 
" clip-path="url(#p441367b7ea)" style="fill: none; stroke: #ffffff; stroke-width: 0.8; stroke-linecap: square"/>
     </g>
     <g id="line2d_28">
      <g>
       <use xlink:href="#m9b58537dde" x="54.691875" y="366.620562" style="fill: #555555; stroke: #555555; stroke-width: 0.8"/>
      </g>
     </g>
     <g id="text_15">
      <!-- 200k -->
      <g style="fill: #555555" transform="translate(22.81375 370.419781)scale(0.1 -0.1)">
       <use xlink:href="#DejaVuSans-32"/>
       <use xlink:href="#DejaVuSans-30" x="63.623047"/>
       <use xlink:href="#DejaVuSans-30" x="127.246094"/>
       <use xlink:href="#DejaVuSans-6b" x="190.869141"/>
      </g>
     </g>
    </g>
    <g id="ytick_4">
     <g id="line2d_29">
      <path d="M 54.691875 266.059968 
L 957.535875 266.059968 
" clip-path="url(#p441367b7ea)" style="fill: none; stroke: #ffffff; stroke-width: 0.8; stroke-linecap: square"/>
     </g>
     <g id="line2d_30">
      <g>
       <use xlink:href="#m9b58537dde" x="54.691875" y="266.059968" style="fill: #555555; stroke: #555555; stroke-width: 0.8"/>
      </g>
     </g>
     <g id="text_16">
      <!-- 300k -->
      <g style="fill: #555555" transform="translate(22.81375 269.859187)scale(0.1 -0.1)">
       <use xlink:href="#DejaVuSans-33"/>
       <use xlink:href="#DejaVuSans-30" x="63.623047"/>
       <use xlink:href="#DejaVuSans-30" x="127.246094"/>
       <use xlink:href="#DejaVuSans-6b" x="190.869141"/>
      </g>
     </g>
    </g>
    <g id="ytick_5">
     <g id="line2d_31">
      <path d="M 54.691875 165.499375 
L 957.535875 165.499375 
" clip-path="url(#p441367b7ea)" style="fill: none; stroke: #ffffff; stroke-width: 0.8; stroke-linecap: square"/>
     </g>
     <g id="line2d_32">
      <g>
       <use xlink:href="#m9b58537dde" x="54.691875" y="165.499375" style="fill: #555555; stroke: #555555; stroke-width: 0.8"/>
      </g>
     </g>
     <g id="text_17">
      <!-- 400k -->
      <g style="fill: #555555" transform="translate(22.81375 169.298593)scale(0.1 -0.1)">
       <use xlink:href="#DejaVuSans-34"/>
       <use xlink:href="#DejaVuSans-30" x="63.623047"/>
       <use xlink:href="#DejaVuSans-30" x="127.246094"/>
       <use xlink:href="#DejaVuSans-6b" x="190.869141"/>
      </g>
     </g>
    </g>
    <g id="ytick_6">
     <g id="line2d_33">
      <path d="M 54.691875 64.938781 
L 957.535875 64.938781 
" clip-path="url(#p441367b7ea)" style="fill: none; stroke: #ffffff; stroke-width: 0.8; stroke-linecap: square"/>
     </g>
     <g id="line2d_34">
      <g>
       <use xlink:href="#m9b58537dde" x="54.691875" y="64.938781" style="fill: #555555; stroke: #555555; stroke-width: 0.8"/>
      </g>
     </g>
     <g id="text_18">
      <!-- 500k -->
      <g style="fill: #555555" transform="translate(22.81375 68.737999)scale(0.1 -0.1)">
       <use xlink:href="#DejaVuSans-35"/>
       <use xlink:href="#DejaVuSans-30" x="63.623047"/>
       <use xlink:href="#DejaVuSans-30" x="127.246094"/>
       <use xlink:href="#DejaVuSans-6b" x="190.869141"/>
      </g>
     </g>
    </g>
    <g id="text_19">
     <!-- Instances -->
     <g style="fill: #555555" transform="translate(16.318125 324.588)rotate(-90)scale(0.12 -0.12)">
      <defs>
       <path id="DejaVuSans-49" d="M 628 4666 
L 1259 4666 
L 1259 0 
L 628 0 
L 628 4666 
z
" transform="scale(0.015625)"/>
       <path id="DejaVuSans-6e" d="M 3513 2113 
L 3513 0 
L 2938 0 
L 2938 2094 
Q 2938 2591 2744 2837 
Q 2550 3084 2163 3084 
Q 1697 3084 1428 2787 
Q 1159 2491 1159 1978 
L 1159 0 
L 581 0 
L 581 3500 
L 1159 3500 
L 1159 2956 
Q 1366 3272 1645 3428 
Q 1925 3584 2291 3584 
Q 2894 3584 3203 3211 
Q 3513 2838 3513 2113 
z
" transform="scale(0.015625)"/>
       <path id="DejaVuSans-73" d="M 2834 3397 
L 2834 2853 
Q 2591 2978 2328 3040 
Q 2066 3103 1784 3103 
Q 1356 3103 1142 2972 
Q 928 2841 928 2578 
Q 928 2378 1081 2264 
Q 1234 2150 1697 2047 
L 1894 2003 
Q 2506 1872 2764 1633 
Q 3022 1394 3022 966 
Q 3022 478 2636 193 
Q 2250 -91 1575 -91 
Q 1294 -91 989 -36 
Q 684 19 347 128 
L 347 722 
Q 666 556 975 473 
Q 1284 391 1588 391 
Q 1994 391 2212 530 
Q 2431 669 2431 922 
Q 2431 1156 2273 1281 
Q 2116 1406 1581 1522 
L 1381 1569 
Q 847 1681 609 1914 
Q 372 2147 372 2553 
Q 372 3047 722 3315 
Q 1072 3584 1716 3584 
Q 2034 3584 2315 3537 
Q 2597 3491 2834 3397 
z
" transform="scale(0.015625)"/>
       <path id="DejaVuSans-63" d="M 3122 3366 
L 3122 2828 
Q 2878 2963 2633 3030 
Q 2388 3097 2138 3097 
Q 1578 3097 1268 2742 
Q 959 2388 959 1747 
Q 959 1106 1268 751 
Q 1578 397 2138 397 
Q 2388 397 2633 464 
Q 2878 531 3122 666 
L 3122 134 
Q 2881 22 2623 -34 
Q 2366 -91 2075 -91 
Q 1284 -91 818 406 
Q 353 903 353 1747 
Q 353 2603 823 3093 
Q 1294 3584 2113 3584 
Q 2378 3584 2631 3529 
Q 2884 3475 3122 3366 
z
" transform="scale(0.015625)"/>
      </defs>
      <use xlink:href="#DejaVuSans-49"/>
      <use xlink:href="#DejaVuSans-6e" x="29.492188"/>
      <use xlink:href="#DejaVuSans-73" x="92.871094"/>
      <use xlink:href="#DejaVuSans-74" x="144.970703"/>
      <use xlink:href="#DejaVuSans-61" x="184.179688"/>
      <use xlink:href="#DejaVuSans-6e" x="245.458984"/>
      <use xlink:href="#DejaVuSans-63" x="308.837891"/>
      <use xlink:href="#DejaVuSans-65" x="363.818359"/>
      <use xlink:href="#DejaVuSans-73" x="425.341797"/>
     </g>
    </g>
   </g>
   <g id="line2d_35">
    <path d="M 54.691875 469.744427 
L 63.811511 469.023778 
L 72.931148 468.303129 
L 82.050784 467.58248 
L 91.17042 466.861831 
L 100.290057 466.141183 
L 109.409693 465.420534 
L 118.52933 464.699885 
L 127.648966 463.979236 
L 136.768602 463.258587 
L 145.888239 462.537939 
L 155.007875 461.81729 
L 164.127511 461.096641 
L 173.247148 460.375992 
L 182.366784 459.655343 
L 191.48642 458.934694 
L 200.606057 458.214046 
L 209.725693 457.493397 
L 218.84533 456.772748 
L 227.964966 456.052099 
L 237.084602 455.33145 
L 246.204239 454.610802 
L 255.323875 453.890153 
L 264.443511 453.169504 
L 273.563148 452.448855 
L 282.682784 451.728206 
L 291.80242 451.007557 
L 300.922057 450.286909 
L 310.041693 449.56626 
L 319.16133 448.845611 
L 328.280966 448.124962 
L 337.400602 447.404313 
L 346.520239 446.683665 
L 355.639875 445.963016 
L 364.759511 445.242367 
L 373.879148 444.521718 
L 382.998784 443.801069 
L 392.11842 443.08042 
L 401.238057 442.359772 
L 410.357693 441.639123 
L 419.47733 440.918474 
L 428.596966 440.197825 
L 437.716602 439.477176 
L 446.836239 438.756527 
L 455.955875 438.035879 
L 465.075511 437.31523 
L 474.195148 436.594581 
L 483.314784 435.873932 
L 492.43442 435.153283 
L 501.554057 434.432635 
L 510.673693 433.711986 
L 519.79333 432.991337 
L 528.912966 432.270688 
L 538.032602 431.550039 
L 547.152239 430.82939 
L 556.271875 430.108742 
L 565.391511 429.388093 
L 574.511148 428.667444 
L 583.630784 427.946795 
L 592.75042 427.226146 
L 601.870057 426.505498 
L 610.989693 425.784849 
L 620.10933 425.0642 
L 629.228966 424.343551 
L 638.348602 423.622902 
L 647.468239 422.902253 
L 656.587875 422.181605 
L 665.707511 421.460956 
L 674.827148 420.740307 
L 683.946784 420.019658 
L 693.06642 419.299009 
L 702.186057 418.578361 
L 711.305693 417.857712 
L 720.42533 417.137063 
L 729.544966 416.416414 
L 738.664602 415.695765 
L 747.784239 414.975116 
L 756.903875 414.254468 
L 766.023511 413.533819 
L 775.143148 412.81317 
L 784.262784 412.092521 
L 793.38242 411.371872 
L 802.502057 410.651224 
L 811.621693 409.930575 
L 820.74133 409.209926 
L 829.860966 408.489277 
L 838.980602 407.768628 
L 848.100239 407.047979 
L 857.219875 406.327331 
L 866.339511 405.606682 
L 875.459148 404.886033 
L 884.578784 404.165384 
L 893.69842 403.444735 
L 902.818057 402.724087 
L 911.937693 402.003438 
L 921.05733 401.282789 
L 930.176966 400.56214 
L 939.296602 399.841491 
L 948.416239 399.120842 
L 957.535875 398.400194 
" clip-path="url(#p441367b7ea)" style="fill: none; stroke-dasharray: 1.5,2.475; stroke-dashoffset: 0; stroke: #4ac1fa; stroke-width: 1.5"/>
   </g>
   <g id="line2d_36">
    <path d="M 54.691875 529.299474 
L 63.811511 528.531199 
L 72.931148 527.762923 
L 82.050784 526.994648 
L 91.17042 526.226372 
L 100.290057 525.458097 
L 109.409693 524.689821 
L 118.52933 523.921545 
L 127.648966 523.15327 
L 136.768602 522.384994 
L 145.888239 521.616719 
L 155.007875 520.848443 
L 164.127511 520.080168 
L 173.247148 519.311892 
L 182.366784 518.543617 
L 191.48642 517.775341 
L 200.606057 517.007066 
L 209.725693 516.23879 
L 218.84533 515.470515 
L 227.964966 514.702239 
L 237.084602 513.933963 
L 246.204239 513.165688 
L 255.323875 512.397412 
L 264.443511 511.629137 
L 273.563148 510.860861 
L 282.682784 510.092586 
L 291.80242 509.32431 
L 300.922057 508.556035 
L 310.041693 507.787759 
L 319.16133 507.019484 
L 328.280966 506.251208 
L 337.400602 505.482933 
L 346.520239 504.714657 
L 355.639875 503.946382 
L 364.759511 503.178106 
L 373.879148 502.40983 
L 382.998784 501.641555 
L 392.11842 500.873279 
L 401.238057 500.105004 
L 410.357693 499.336728 
L 419.47733 498.568453 
L 428.596966 497.800177 
L 437.716602 497.031902 
L 446.836239 496.263626 
L 455.955875 495.495351 
L 465.075511 494.727075 
L 474.195148 493.9588 
L 483.314784 493.190524 
L 492.43442 492.422248 
L 501.554057 491.653973 
L 510.673693 490.885697 
L 519.79333 490.117422 
L 528.912966 489.349146 
L 538.032602 488.580871 
L 547.152239 487.812595 
L 556.271875 487.04432 
L 565.391511 486.276044 
L 574.511148 485.507769 
L 583.630784 484.739493 
L 592.75042 483.971218 
L 601.870057 483.202942 
L 610.989693 482.434666 
L 620.10933 481.666391 
L 629.228966 480.898115 
L 638.348602 480.12984 
L 647.468239 479.361564 
L 656.587875 478.593289 
L 665.707511 477.825013 
L 674.827148 477.056738 
L 683.946784 476.288462 
L 693.06642 475.520187 
L 702.186057 474.751911 
L 711.305693 473.983636 
L 720.42533 473.21536 
L 729.544966 472.447084 
L 738.664602 471.678809 
L 747.784239 470.910533 
L 756.903875 470.142258 
L 766.023511 469.373982 
L 775.143148 468.605707 
L 784.262784 467.837431 
L 793.38242 467.069156 
L 802.502057 466.30088 
L 811.621693 465.532605 
L 820.74133 464.764329 
L 829.860966 463.996054 
L 838.980602 463.227778 
L 848.100239 462.459503 
L 857.219875 461.691227 
L 866.339511 460.922951 
L 875.459148 460.154676 
L 884.578784 459.3864 
L 893.69842 458.618125 
L 902.818057 457.849849 
L 911.937693 457.081574 
L 921.05733 456.313298 
L 930.176966 455.545023 
L 939.296602 454.776747 
L 948.416239 454.008472 
L 957.535875 453.240196 
" clip-path="url(#p441367b7ea)" style="fill: none; stroke-dasharray: 1.5,2.475; stroke-dashoffset: 0; stroke: #e9a942; stroke-width: 1.5"/>
   </g>
   <g id="line2d_37">
    <path d="M 54.691875 497.63988 
L 63.811511 497.688892 
L 72.931148 497.737905 
L 82.050784 497.786917 
L 91.17042 497.835929 
L 100.290057 497.884942 
L 109.409693 497.933954 
L 118.52933 497.982966 
L 127.648966 498.031978 
L 136.768602 498.080991 
L 145.888239 498.130003 
L 155.007875 498.179015 
L 164.127511 498.228028 
L 173.247148 498.27704 
L 182.366784 498.326052 
L 191.48642 498.375064 
L 200.606057 498.424077 
L 209.725693 498.473089 
L 218.84533 498.522101 
L 227.964966 498.571114 
L 237.084602 498.620126 
L 246.204239 498.669138 
L 255.323875 498.718151 
L 264.443511 498.767163 
L 273.563148 498.816175 
L 282.682784 498.865187 
L 291.80242 498.9142 
L 300.922057 498.963212 
L 310.041693 499.012224 
L 319.16133 499.061237 
L 328.280966 499.110249 
L 337.400602 499.159261 
L 346.520239 499.208273 
L 355.639875 499.257286 
L 364.759511 499.306298 
L 373.879148 499.35531 
L 382.998784 499.404323 
L 392.11842 499.453335 
L 401.238057 499.502347 
L 410.357693 499.55136 
L 419.47733 499.600372 
L 428.596966 499.649384 
L 437.716602 499.698396 
L 446.836239 499.747409 
L 455.955875 499.796421 
L 465.075511 499.845433 
L 474.195148 499.894446 
L 483.314784 499.943458 
L 492.43442 499.99247 
L 501.554057 500.041482 
L 510.673693 500.090495 
L 519.79333 500.139507 
L 528.912966 500.188519 
L 538.032602 500.237532 
L 547.152239 500.286544 
L 556.271875 500.335556 
L 565.391511 500.384569 
L 574.511148 500.433581 
L 583.630784 500.482593 
L 592.75042 500.531605 
L 601.870057 500.580618 
L 610.989693 500.62963 
L 620.10933 500.678642 
L 629.228966 500.727655 
L 638.348602 500.776667 
L 647.468239 500.825679 
L 656.587875 500.874691 
L 665.707511 500.923704 
L 674.827148 500.972716 
L 683.946784 501.021728 
L 693.06642 501.070741 
L 702.186057 501.119753 
L 711.305693 501.168765 
L 720.42533 501.217777 
L 729.544966 501.26679 
L 738.664602 501.315802 
L 747.784239 501.364814 
L 756.903875 501.413827 
L 766.023511 501.462839 
L 775.143148 501.511851 
L 784.262784 501.560864 
L 793.38242 501.609876 
L 802.502057 501.658888 
L 811.621693 501.7079 
L 820.74133 501.756913 
L 829.860966 501.805925 
L 838.980602 501.854937 
L 848.100239 501.90395 
L 857.219875 501.952962 
L 866.339511 502.001974 
L 875.459148 502.050986 
L 884.578784 502.099999 
L 893.69842 502.149011 
L 902.818057 502.198023 
L 911.937693 502.247036 
L 921.05733 502.296048 
L 930.176966 502.34506 
L 939.296602 502.394073 
L 948.416239 502.443085 
L 957.535875 502.492097 
" clip-path="url(#p441367b7ea)" style="fill: none; stroke-dasharray: 1.5,2.475; stroke-dashoffset: 0; stroke: #9a5689; stroke-width: 1.5"/>
   </g>
   <g id="line2d_38">
    <path d="M 54.691875 522.496974 
L 63.811511 522.355007 
L 72.931148 522.21304 
L 82.050784 522.071073 
L 91.17042 521.929106 
L 100.290057 521.787139 
L 109.409693 521.645172 
L 118.52933 521.503205 
L 127.648966 521.361237 
L 136.768602 521.21927 
L 145.888239 521.077303 
L 155.007875 520.935336 
L 164.127511 520.793369 
L 173.247148 520.651402 
L 182.366784 520.509435 
L 191.48642 520.367468 
L 200.606057 520.225501 
L 209.725693 520.083534 
L 218.84533 519.941567 
L 227.964966 519.7996 
L 237.084602 519.657633 
L 246.204239 519.515666 
L 255.323875 519.373698 
L 264.443511 519.231731 
L 273.563148 519.089764 
L 282.682784 518.947797 
L 291.80242 518.80583 
L 300.922057 518.663863 
L 310.041693 518.521896 
L 319.16133 518.379929 
L 328.280966 518.237962 
L 337.400602 518.095995 
L 346.520239 517.954028 
L 355.639875 517.812061 
L 364.759511 517.670094 
L 373.879148 517.528127 
L 382.998784 517.386159 
L 392.11842 517.244192 
L 401.238057 517.102225 
L 410.357693 516.960258 
L 419.47733 516.818291 
L 428.596966 516.676324 
L 437.716602 516.534357 
L 446.836239 516.39239 
L 455.955875 516.250423 
L 465.075511 516.108456 
L 474.195148 515.966489 
L 483.314784 515.824522 
L 492.43442 515.682555 
L 501.554057 515.540588 
L 510.673693 515.398621 
L 519.79333 515.256653 
L 528.912966 515.114686 
L 538.032602 514.972719 
L 547.152239 514.830752 
L 556.271875 514.688785 
L 565.391511 514.546818 
L 574.511148 514.404851 
L 583.630784 514.262884 
L 592.75042 514.120917 
L 601.870057 513.97895 
L 610.989693 513.836983 
L 620.10933 513.695016 
L 629.228966 513.553049 
L 638.348602 513.411082 
L 647.468239 513.269114 
L 656.587875 513.127147 
L 665.707511 512.98518 
L 674.827148 512.843213 
L 683.946784 512.701246 
L 693.06642 512.559279 
L 702.186057 512.417312 
L 711.305693 512.275345 
L 720.42533 512.133378 
L 729.544966 511.991411 
L 738.664602 511.849444 
L 747.784239 511.707477 
L 756.903875 511.56551 
L 766.023511 511.423543 
L 775.143148 511.281575 
L 784.262784 511.139608 
L 793.38242 510.997641 
L 802.502057 510.855674 
L 811.621693 510.713707 
L 820.74133 510.57174 
L 829.860966 510.429773 
L 838.980602 510.287806 
L 848.100239 510.145839 
L 857.219875 510.003872 
L 866.339511 509.861905 
L 875.459148 509.719938 
L 884.578784 509.577971 
L 893.69842 509.436004 
L 902.818057 509.294036 
L 911.937693 509.152069 
L 921.05733 509.010102 
L 930.176966 508.868135 
L 939.296602 508.726168 
L 948.416239 508.584201 
L 957.535875 508.442234 
" clip-path="url(#p441367b7ea)" style="fill: none; stroke-dasharray: 1.5,2.475; stroke-dashoffset: 0; stroke: #be503b; stroke-width: 1.5"/>
   </g>
   <g id="line2d_39">
    <path d="M 54.691875 458.31411 
L 63.811511 457.553468 
L 72.931148 456.792827 
L 82.050784 456.032185 
L 91.17042 455.271544 
L 100.290057 454.510902 
L 109.409693 453.750261 
L 118.52933 452.98962 
L 127.648966 452.228978 
L 136.768602 451.468337 
L 145.888239 450.707695 
L 155.007875 449.947054 
L 164.127511 449.186412 
L 173.247148 448.425771 
L 182.366784 447.665129 
L 191.48642 446.904488 
L 200.606057 446.143846 
L 209.725693 445.383205 
L 218.84533 444.622564 
L 227.964966 443.861922 
L 237.084602 443.101281 
L 246.204239 442.340639 
L 255.323875 441.579998 
L 264.443511 440.819356 
L 273.563148 440.058715 
L 282.682784 439.298073 
L 291.80242 438.537432 
L 300.922057 437.77679 
L 310.041693 437.016149 
L 319.16133 436.255508 
L 328.280966 435.494866 
L 337.400602 434.734225 
L 346.520239 433.973583 
L 355.639875 433.212942 
L 364.759511 432.4523 
L 373.879148 431.691659 
L 382.998784 430.931017 
L 392.11842 430.170376 
L 401.238057 429.409735 
L 410.357693 428.649093 
L 419.47733 427.888452 
L 428.596966 427.12781 
L 437.716602 426.367169 
L 446.836239 425.606527 
L 455.955875 424.845886 
L 465.075511 424.085244 
L 474.195148 423.324603 
L 483.314784 422.563961 
L 492.43442 421.80332 
L 501.554057 421.042679 
L 510.673693 420.282037 
L 519.79333 419.521396 
L 528.912966 418.760754 
L 538.032602 418.000113 
L 547.152239 417.239471 
L 556.271875 416.47883 
L 565.391511 415.718188 
L 574.511148 414.957547 
L 583.630784 414.196905 
L 592.75042 413.436264 
L 601.870057 412.675623 
L 610.989693 411.914981 
L 620.10933 411.15434 
L 629.228966 410.393698 
L 638.348602 409.633057 
L 647.468239 408.872415 
L 656.587875 408.111774 
L 665.707511 407.351132 
L 674.827148 406.590491 
L 683.946784 405.829849 
L 693.06642 405.069208 
L 702.186057 404.308567 
L 711.305693 403.547925 
L 720.42533 402.787284 
L 729.544966 402.026642 
L 738.664602 401.266001 
L 747.784239 400.505359 
L 756.903875 399.744718 
L 766.023511 398.984076 
L 775.143148 398.223435 
L 784.262784 397.462793 
L 793.38242 396.702152 
L 802.502057 395.941511 
L 811.621693 395.180869 
L 820.74133 394.420228 
L 829.860966 393.659586 
L 838.980602 392.898945 
L 848.100239 392.138303 
L 857.219875 391.377662 
L 866.339511 390.61702 
L 875.459148 389.856379 
L 884.578784 389.095737 
L 893.69842 388.335096 
L 902.818057 387.574455 
L 911.937693 386.813813 
L 921.05733 386.053172 
L 930.176966 385.29253 
L 939.296602 384.531889 
L 948.416239 383.771247 
L 957.535875 383.010606 
" clip-path="url(#p441367b7ea)" style="fill: none; stroke-dasharray: 1.5,2.475; stroke-dashoffset: 0; stroke: #e2321d; stroke-width: 1.5"/>
   </g>
   <g id="line2d_40">
    <path d="M 54.691875 416.658691 
L 63.811511 413.670717 
L 72.931148 410.682743 
L 82.050784 407.694768 
L 91.17042 404.706794 
L 100.290057 401.71882 
L 109.409693 398.730846 
L 118.52933 395.742871 
L 127.648966 392.754897 
L 136.768602 389.766923 
L 145.888239 386.778949 
L 155.007875 383.790975 
L 164.127511 380.803 
L 173.247148 377.815026 
L 182.366784 374.827052 
L 191.48642 371.839078 
L 200.606057 368.851103 
L 209.725693 365.863129 
L 218.84533 362.875155 
L 227.964966 359.887181 
L 237.084602 356.899207 
L 246.204239 353.911232 
L 255.323875 350.923258 
L 264.443511 347.935284 
L 273.563148 344.94731 
L 282.682784 341.959335 
L 291.80242 338.971361 
L 300.922057 335.983387 
L 310.041693 332.995413 
L 319.16133 330.007439 
L 328.280966 327.019464 
L 337.400602 324.03149 
L 346.520239 321.043516 
L 355.639875 318.055542 
L 364.759511 315.067567 
L 373.879148 312.079593 
L 382.998784 309.091619 
L 392.11842 306.103645 
L 401.238057 303.115671 
L 410.357693 300.127696 
L 419.47733 297.139722 
L 428.596966 294.151748 
L 437.716602 291.163774 
L 446.836239 288.175799 
L 455.955875 285.187825 
L 465.075511 282.199851 
L 474.195148 279.211877 
L 483.314784 276.223903 
L 492.43442 273.235928 
L 501.554057 270.247954 
L 510.673693 267.25998 
L 519.79333 264.272006 
L 528.912966 261.284031 
L 538.032602 258.296057 
L 547.152239 255.308083 
L 556.271875 252.320109 
L 565.391511 249.332135 
L 574.511148 246.34416 
L 583.630784 243.356186 
L 592.75042 240.368212 
L 601.870057 237.380238 
L 610.989693 234.392263 
L 620.10933 231.404289 
L 629.228966 228.416315 
L 638.348602 225.428341 
L 647.468239 222.440367 
L 656.587875 219.452392 
L 665.707511 216.464418 
L 674.827148 213.476444 
L 683.946784 210.48847 
L 693.06642 207.500495 
L 702.186057 204.512521 
L 711.305693 201.524547 
L 720.42533 198.536573 
L 729.544966 195.548599 
L 738.664602 192.560624 
L 747.784239 189.57265 
L 756.903875 186.584676 
L 766.023511 183.596702 
L 775.143148 180.608727 
L 784.262784 177.620753 
L 793.38242 174.632779 
L 802.502057 171.644805 
L 811.621693 168.656831 
L 820.74133 165.668856 
L 829.860966 162.680882 
L 838.980602 159.692908 
L 848.100239 156.704934 
L 857.219875 153.716959 
L 866.339511 150.728985 
L 875.459148 147.741011 
L 884.578784 144.753037 
L 893.69842 141.765063 
L 902.818057 138.777088 
L 911.937693 135.789114 
L 921.05733 132.80114 
L 930.176966 129.813166 
L 939.296602 126.825192 
L 948.416239 123.837217 
L 957.535875 120.849243 
" clip-path="url(#p441367b7ea)" style="fill: none; stroke-dasharray: 1.5,2.475; stroke-dashoffset: 0; stroke: #48b585; stroke-width: 1.5"/>
   </g>
   <g id="line2d_41">
    <path d="M 54.691875 418.391167 
L 72.748755 425.112637 
L 90.805635 423.397074 
L 108.862515 469.349243 
L 126.919395 429.002321 
L 144.976275 428.702651 
L 163.033155 457.029564 
L 181.090035 460.356109 
L 199.146915 480.642197 
L 217.203795 467.6196 
L 235.260675 467.074562 
L 253.317555 473.066968 
L 271.374435 473.089091 
L 289.431315 484.480595 
L 307.488195 482.888721 
L 325.545075 476.151161 
L 343.601955 488.394413 
L 361.658835 479.124738 
L 379.715715 480.520519 
L 397.772595 445.167437 
L 415.829475 438.768766 
L 433.886355 434.402425 
L 451.943235 437.884838 
L 470.000115 469.719306 
L 488.056995 436.393525 
L 506.113875 438.405742 
L 524.170755 450.553462 
L 542.227635 436.61878 
L 560.284515 435.573956 
L 578.341395 415.011326 
L 596.398275 414.80216 
L 614.455155 401.753417 
L 632.512035 398.880401 
L 650.568915 405.159404 
L 668.625795 420.28774 
L 686.682675 393.286215 
L 704.739555 420.301818 
L 722.796435 405.149348 
L 740.853315 419.230848 
L 758.910195 425.264484 
L 776.967075 425.65667 
L 795.023955 419.264033 
L 813.080835 407.652301 
L 831.137715 407.704593 
L 849.194595 378.807501 
L 867.251475 397.372997 
L 885.308355 404.633472 
L 903.365235 417.979874 
L 921.422115 391.771772 
L 939.478995 403.419706 
L 957.535875 376.41617 
" clip-path="url(#p441367b7ea)" style="fill: none; stroke: #4ac1fa; stroke-width: 1.5; stroke-linecap: square"/>
   </g>
   <g id="line2d_42">
    <path d="M 54.691875 523.795765 
L 72.748755 526.222292 
L 90.805635 535.462805 
L 108.862515 537.779721 
L 126.919395 533.80255 
L 144.976275 525.499261 
L 163.033155 522.213947 
L 181.090035 525.337359 
L 199.146915 522.519651 
L 217.203795 518.646057 
L 235.260675 524.848634 
L 253.317555 513.030753 
L 271.374435 509.12498 
L 289.431315 508.385859 
L 307.488195 499.364569 
L 325.545075 507.476792 
L 343.601955 504.826014 
L 361.658835 504.902441 
L 379.715715 501.450195 
L 397.772595 504.189466 
L 415.829475 506.899574 
L 433.886355 499.014618 
L 451.943235 499.746699 
L 470.000115 487.80714 
L 488.056995 470.812399 
L 506.113875 464.942677 
L 524.170755 481.614618 
L 542.227635 483.383479 
L 560.284515 485.394691 
L 578.341395 457.873268 
L 596.398275 466.467176 
L 614.455155 480.166546 
L 632.512035 486.731141 
L 650.568915 471.858229 
L 668.625795 471.374533 
L 686.682675 466.413879 
L 704.739555 478.942723 
L 722.796435 458.313723 
L 740.853315 488.353184 
L 758.910195 480.266101 
L 776.967075 471.998009 
L 795.023955 470.890836 
L 813.080835 461.803176 
L 831.137715 451.92008 
L 849.194595 457.962766 
L 867.251475 462.96465 
L 885.308355 474.471799 
L 903.365235 468.632246 
L 921.422115 470.643457 
L 939.478995 465.024131 
L 957.535875 463.194934 
" clip-path="url(#p441367b7ea)" style="fill: none; stroke: #e9a942; stroke-width: 1.5; stroke-linecap: square"/>
   </g>
   <g id="line2d_43">
    <path d="M 54.691875 499.502337 
L 72.748755 501.214884 
L 90.805635 508.957044 
L 108.862515 521.47181 
L 126.919395 514.180161 
L 144.976275 505.896985 
L 163.033155 505.56614 
L 181.090035 500.019218 
L 199.146915 504.821992 
L 217.203795 503.115479 
L 235.260675 503.676607 
L 253.317555 509.075705 
L 271.374435 507.470758 
L 289.431315 484.309642 
L 307.488195 465.700904 
L 325.545075 464.564569 
L 343.601955 479.538042 
L 361.658835 488.188264 
L 379.715715 486.893044 
L 397.772595 481.250589 
L 415.829475 481.944457 
L 433.886355 488.082676 
L 451.943235 482.390946 
L 470.000115 493.071487 
L 488.056995 506.477219 
L 506.113875 503.014918 
L 524.170755 522.101319 
L 542.227635 514.773468 
L 560.284515 505.248369 
L 578.341395 514.76844 
L 596.398275 512.272526 
L 614.455155 505.525916 
L 632.512035 500.13084 
L 650.568915 495.706174 
L 668.625795 499.877428 
L 686.682675 497.426766 
L 704.739555 502.239596 
L 722.796435 500.388275 
L 740.853315 494.756882 
L 758.910195 505.387143 
L 776.967075 501.952998 
L 795.023955 501.614109 
L 813.080835 499.004562 
L 831.137715 506.011624 
L 849.194595 503.717837 
L 867.251475 502.228534 
L 885.308355 504.41271 
L 903.365235 506.475208 
L 921.422115 506.936781 
L 939.478995 504.410699 
L 957.535875 505.601337 
" clip-path="url(#p441367b7ea)" style="fill: none; stroke: #9a5689; stroke-width: 1.5; stroke-linecap: square"/>
   </g>
   <g id="line2d_44">
    <path d="M 54.691875 515.625217 
L 72.748755 517.617322 
L 90.805635 523.113964 
L 108.862515 535.805717 
L 126.919395 525.878375 
L 144.976275 524.826511 
L 163.033155 527.76288 
L 181.090035 513.396794 
L 199.146915 530.977802 
L 217.203795 526.646658 
L 235.260675 525.995025 
L 253.317555 517.482571 
L 271.374435 524.53388 
L 289.431315 517.15776 
L 307.488195 513.981051 
L 325.545075 520.686431 
L 343.601955 519.068411 
L 361.658835 522.142549 
L 379.715715 494.921802 
L 397.772595 509.600631 
L 415.829475 519.695909 
L 433.886355 505.777318 
L 451.943235 514.049432 
L 470.000115 511.445918 
L 488.056995 505.041214 
L 506.113875 522.031932 
L 524.170755 504.716403 
L 542.227635 513.36562 
L 560.284515 509.616721 
L 578.341395 509.08375 
L 596.398275 524.085379 
L 614.455155 518.441919 
L 632.512035 507.535117 
L 650.568915 508.816259 
L 668.625795 515.296383 
L 686.682675 514.147982 
L 704.739555 514.507988 
L 722.796435 509.609682 
L 740.853315 517.13262 
L 758.910195 510.283438 
L 776.967075 511.818998 
L 795.023955 514.077589 
L 813.080835 506.465152 
L 831.137715 517.538885 
L 849.194595 512.182022 
L 867.251475 517.807382 
L 885.308355 515.503538 
L 903.365235 506.463141 
L 921.422115 502.008307 
L 939.478995 510.055165 
L 957.535875 513.127291 
" clip-path="url(#p441367b7ea)" style="fill: none; stroke: #be503b; stroke-width: 1.5; stroke-linecap: square"/>
   </g>
   <g id="line2d_45">
    <path d="M 54.691875 444.494686 
L 72.748755 444.649549 
L 90.805635 459.984034 
L 108.862515 495.62472 
L 126.919395 481.732274 
L 144.976275 461.014781 
L 163.033155 451.063304 
L 181.090035 452.481209 
L 199.146915 445.428894 
L 217.203795 448.380348 
L 235.260675 442.85052 
L 253.317555 440.635171 
L 271.374435 440.374719 
L 289.431315 422.055595 
L 307.488195 431.489185 
L 325.545075 428.938968 
L 343.601955 436.339222 
L 361.658835 434.944447 
L 379.715715 424.492178 
L 397.772595 420.298802 
L 415.829475 423.311597 
L 433.886355 439.225311 
L 451.943235 426.781943 
L 470.000115 426.773898 
L 488.056995 431.089959 
L 506.113875 425.020122 
L 524.170755 423.782221 
L 542.227635 403.057688 
L 560.284515 259.123299 
L 578.341395 414.060022 
L 596.398275 425.339904 
L 614.455155 423.483556 
L 632.512035 421.911794 
L 650.568915 418.471616 
L 668.625795 404.491682 
L 686.682675 419.471188 
L 704.739555 391.760711 
L 722.796435 410.143187 
L 740.853315 407.728727 
L 758.910195 407.941916 
L 776.967075 402.379909 
L 795.023955 400.771946 
L 813.080835 398.004518 
L 831.137715 407.928843 
L 849.194595 404.328774 
L 867.251475 390.779239 
L 885.308355 368.282829 
L 903.365235 399.358064 
L 921.422115 395.015857 
L 939.478995 388.767022 
L 957.535875 387.920302 
" clip-path="url(#p441367b7ea)" style="fill: none; stroke: #e2321d; stroke-width: 1.5; stroke-linecap: square"/>
   </g>
   <g id="line2d_46">
    <path d="M 54.691875 414.164605 
L 72.748755 406.180094 
L 90.805635 387.951475 
L 108.862515 431.162363 
L 126.919395 388.343662 
L 144.976275 380.252556 
L 163.033155 367.008726 
L 181.090035 332.484263 
L 199.146915 321.313992 
L 217.203795 353.869479 
L 235.260675 341.483431 
L 253.317555 307.925355 
L 271.374435 308.501567 
L 289.431315 296.299545 
L 307.488195 306.170572 
L 325.545075 254.650363 
L 343.601955 324.385113 
L 361.658835 267.285802 
L 379.715715 301.558864 
L 397.772595 288.157153 
L 415.829475 312.731146 
L 433.886355 346.432017 
L 451.943235 328.27178 
L 470.000115 331.647599 
L 488.056995 314.765486 
L 506.113875 322.460383 
L 524.170755 313.995192 
L 542.227635 307.454731 
L 560.284515 315.072196 
L 578.341395 303.409179 
L 596.398275 307.755407 
L 614.455155 280.228956 
L 632.512035 265.601412 
L 650.568915 216.626392 
L 668.625795 257.494217 
L 686.682675 246.556241 
L 704.739555 221.839453 
L 722.796435 259.853369 
L 740.853315 187.965617 
L 758.910195 229.096911 
L 776.967075 208.968702 
L 795.023955 177.562623 
L 813.080835 162.976309 
L 831.137715 122.76615 
L 849.194595 94.566948 
L 867.251475 91.563204 
L 885.308355 91.377166 
L 903.365235 48.600701 
L 921.422115 75.973295 
L 939.478995 101.292441 
L 957.535875 82.398111 
" clip-path="url(#p441367b7ea)" style="fill: none; stroke: #48b585; stroke-width: 6; stroke-linecap: square"/>
   </g>
   <g id="patch_3">
    <path d="M 54.691875 567.74175 
L 54.691875 24.14175 
" style="fill: none; stroke: #ffffff; stroke-linejoin: miter; stroke-linecap: square"/>
   </g>
   <g id="patch_4">
    <path d="M 957.535875 567.74175 
L 957.535875 24.14175 
" style="fill: none; stroke: #ffffff; stroke-linejoin: miter; stroke-linecap: square"/>
   </g>
   <g id="patch_5">
    <path d="M 54.691875 567.74175 
L 957.535875 567.74175 
" style="fill: none; stroke: #ffffff; stroke-linejoin: miter; stroke-linecap: square"/>
   </g>
   <g id="patch_6">
    <path d="M 54.691875 24.14175 
L 957.535875 24.14175 
" style="fill: none; stroke: #ffffff; stroke-linejoin: miter; stroke-linecap: square"/>
   </g>
   <g id="text_20">
    <!-- Potentially Ephemeral Enterprise Linux 8 and 9 Instances by Distribution -->
    <g transform="translate(54.691875 18.14175)scale(0.144 -0.144)">
     <defs>
      <path id="DejaVuSans-50" d="M 1259 4147 
L 1259 2394 
L 2053 2394 
Q 2494 2394 2734 2622 
Q 2975 2850 2975 3272 
Q 2975 3691 2734 3919 
Q 2494 4147 2053 4147 
L 1259 4147 
z
M 628 4666 
L 2053 4666 
Q 2838 4666 3239 4311 
Q 3641 3956 3641 3272 
Q 3641 2581 3239 2228 
Q 2838 1875 2053 1875 
L 1259 1875 
L 1259 0 
L 628 0 
L 628 4666 
z
" transform="scale(0.015625)"/>
      <path id="DejaVuSans-6f" d="M 1959 3097 
Q 1497 3097 1228 2736 
Q 959 2375 959 1747 
Q 959 1119 1226 758 
Q 1494 397 1959 397 
Q 2419 397 2687 759 
Q 2956 1122 2956 1747 
Q 2956 2369 2687 2733 
Q 2419 3097 1959 3097 
z
M 1959 3584 
Q 2709 3584 3137 3096 
Q 3566 2609 3566 1747 
Q 3566 888 3137 398 
Q 2709 -91 1959 -91 
Q 1206 -91 779 398 
Q 353 888 353 1747 
Q 353 2609 779 3096 
Q 1206 3584 1959 3584 
z
" transform="scale(0.015625)"/>
      <path id="DejaVuSans-69" d="M 603 3500 
L 1178 3500 
L 1178 0 
L 603 0 
L 603 3500 
z
M 603 4863 
L 1178 4863 
L 1178 4134 
L 603 4134 
L 603 4863 
z
" transform="scale(0.015625)"/>
      <path id="DejaVuSans-6c" d="M 603 4863 
L 1178 4863 
L 1178 0 
L 603 0 
L 603 4863 
z
" transform="scale(0.015625)"/>
      <path id="DejaVuSans-79" d="M 2059 -325 
Q 1816 -950 1584 -1140 
Q 1353 -1331 966 -1331 
L 506 -1331 
L 506 -850 
L 844 -850 
Q 1081 -850 1212 -737 
Q 1344 -625 1503 -206 
L 1606 56 
L 191 3500 
L 800 3500 
L 1894 763 
L 2988 3500 
L 3597 3500 
L 2059 -325 
z
" transform="scale(0.015625)"/>
      <path id="DejaVuSans-20" transform="scale(0.015625)"/>
      <path id="DejaVuSans-45" d="M 628 4666 
L 3578 4666 
L 3578 4134 
L 1259 4134 
L 1259 2753 
L 3481 2753 
L 3481 2222 
L 1259 2222 
L 1259 531 
L 3634 531 
L 3634 0 
L 628 0 
L 628 4666 
z
" transform="scale(0.015625)"/>
      <path id="DejaVuSans-70" d="M 1159 525 
L 1159 -1331 
L 581 -1331 
L 581 3500 
L 1159 3500 
L 1159 2969 
Q 1341 3281 1617 3432 
Q 1894 3584 2278 3584 
Q 2916 3584 3314 3078 
Q 3713 2572 3713 1747 
Q 3713 922 3314 415 
Q 2916 -91 2278 -91 
Q 1894 -91 1617 61 
Q 1341 213 1159 525 
z
M 3116 1747 
Q 3116 2381 2855 2742 
Q 2594 3103 2138 3103 
Q 1681 3103 1420 2742 
Q 1159 2381 1159 1747 
Q 1159 1113 1420 752 
Q 1681 391 2138 391 
Q 2594 391 2855 752 
Q 3116 1113 3116 1747 
z
" transform="scale(0.015625)"/>
      <path id="DejaVuSans-68" d="M 3513 2113 
L 3513 0 
L 2938 0 
L 2938 2094 
Q 2938 2591 2744 2837 
Q 2550 3084 2163 3084 
Q 1697 3084 1428 2787 
Q 1159 2491 1159 1978 
L 1159 0 
L 581 0 
L 581 4863 
L 1159 4863 
L 1159 2956 
Q 1366 3272 1645 3428 
Q 1925 3584 2291 3584 
Q 2894 3584 3203 3211 
Q 3513 2838 3513 2113 
z
" transform="scale(0.015625)"/>
      <path id="DejaVuSans-6d" d="M 3328 2828 
Q 3544 3216 3844 3400 
Q 4144 3584 4550 3584 
Q 5097 3584 5394 3201 
Q 5691 2819 5691 2113 
L 5691 0 
L 5113 0 
L 5113 2094 
Q 5113 2597 4934 2840 
Q 4756 3084 4391 3084 
Q 3944 3084 3684 2787 
Q 3425 2491 3425 1978 
L 3425 0 
L 2847 0 
L 2847 2094 
Q 2847 2600 2669 2842 
Q 2491 3084 2119 3084 
Q 1678 3084 1418 2786 
Q 1159 2488 1159 1978 
L 1159 0 
L 581 0 
L 581 3500 
L 1159 3500 
L 1159 2956 
Q 1356 3278 1631 3431 
Q 1906 3584 2284 3584 
Q 2666 3584 2933 3390 
Q 3200 3197 3328 2828 
z
" transform="scale(0.015625)"/>
      <path id="DejaVuSans-72" d="M 2631 2963 
Q 2534 3019 2420 3045 
Q 2306 3072 2169 3072 
Q 1681 3072 1420 2755 
Q 1159 2438 1159 1844 
L 1159 0 
L 581 0 
L 581 3500 
L 1159 3500 
L 1159 2956 
Q 1341 3275 1631 3429 
Q 1922 3584 2338 3584 
Q 2397 3584 2469 3576 
Q 2541 3569 2628 3553 
L 2631 2963 
z
" transform="scale(0.015625)"/>
      <path id="DejaVuSans-4c" d="M 628 4666 
L 1259 4666 
L 1259 531 
L 3531 531 
L 3531 0 
L 628 0 
L 628 4666 
z
" transform="scale(0.015625)"/>
      <path id="DejaVuSans-75" d="M 544 1381 
L 544 3500 
L 1119 3500 
L 1119 1403 
Q 1119 906 1312 657 
Q 1506 409 1894 409 
Q 2359 409 2629 706 
Q 2900 1003 2900 1516 
L 2900 3500 
L 3475 3500 
L 3475 0 
L 2900 0 
L 2900 538 
Q 2691 219 2414 64 
Q 2138 -91 1772 -91 
Q 1169 -91 856 284 
Q 544 659 544 1381 
z
M 1991 3584 
L 1991 3584 
z
" transform="scale(0.015625)"/>
      <path id="DejaVuSans-78" d="M 3513 3500 
L 2247 1797 
L 3578 0 
L 2900 0 
L 1881 1375 
L 863 0 
L 184 0 
L 1544 1831 
L 300 3500 
L 978 3500 
L 1906 2253 
L 2834 3500 
L 3513 3500 
z
" transform="scale(0.015625)"/>
      <path id="DejaVuSans-64" d="M 2906 2969 
L 2906 4863 
L 3481 4863 
L 3481 0 
L 2906 0 
L 2906 525 
Q 2725 213 2448 61 
Q 2172 -91 1784 -91 
Q 1150 -91 751 415 
Q 353 922 353 1747 
Q 353 2572 751 3078 
Q 1150 3584 1784 3584 
Q 2172 3584 2448 3432 
Q 2725 3281 2906 2969 
z
M 947 1747 
Q 947 1113 1208 752 
Q 1469 391 1925 391 
Q 2381 391 2643 752 
Q 2906 1113 2906 1747 
Q 2906 2381 2643 2742 
Q 2381 3103 1925 3103 
Q 1469 3103 1208 2742 
Q 947 2381 947 1747 
z
" transform="scale(0.015625)"/>
      <path id="DejaVuSans-62" d="M 3116 1747 
Q 3116 2381 2855 2742 
Q 2594 3103 2138 3103 
Q 1681 3103 1420 2742 
Q 1159 2381 1159 1747 
Q 1159 1113 1420 752 
Q 1681 391 2138 391 
Q 2594 391 2855 752 
Q 3116 1113 3116 1747 
z
M 1159 2969 
Q 1341 3281 1617 3432 
Q 1894 3584 2278 3584 
Q 2916 3584 3314 3078 
Q 3713 2572 3713 1747 
Q 3713 922 3314 415 
Q 2916 -91 2278 -91 
Q 1894 -91 1617 61 
Q 1341 213 1159 525 
L 1159 0 
L 581 0 
L 581 4863 
L 1159 4863 
L 1159 2969 
z
" transform="scale(0.015625)"/>
     </defs>
     <use xlink:href="#DejaVuSans-50"/>
     <use xlink:href="#DejaVuSans-6f" x="56.677734"/>
     <use xlink:href="#DejaVuSans-74" x="117.859375"/>
     <use xlink:href="#DejaVuSans-65" x="157.068359"/>
     <use xlink:href="#DejaVuSans-6e" x="218.591797"/>
     <use xlink:href="#DejaVuSans-74" x="281.970703"/>
     <use xlink:href="#DejaVuSans-69" x="321.179688"/>
     <use xlink:href="#DejaVuSans-61" x="348.962891"/>
     <use xlink:href="#DejaVuSans-6c" x="410.242188"/>
     <use xlink:href="#DejaVuSans-6c" x="438.025391"/>
     <use xlink:href="#DejaVuSans-79" x="465.808594"/>
     <use xlink:href="#DejaVuSans-20" x="524.988281"/>
     <use xlink:href="#DejaVuSans-45" x="556.775391"/>
     <use xlink:href="#DejaVuSans-70" x="619.958984"/>
     <use xlink:href="#DejaVuSans-68" x="683.435547"/>
     <use xlink:href="#DejaVuSans-65" x="746.814453"/>
     <use xlink:href="#DejaVuSans-6d" x="808.337891"/>
     <use xlink:href="#DejaVuSans-65" x="905.75"/>
     <use xlink:href="#DejaVuSans-72" x="967.273438"/>
     <use xlink:href="#DejaVuSans-61" x="1008.386719"/>
     <use xlink:href="#DejaVuSans-6c" x="1069.666016"/>
     <use xlink:href="#DejaVuSans-20" x="1097.449219"/>
     <use xlink:href="#DejaVuSans-45" x="1129.236328"/>
     <use xlink:href="#DejaVuSans-6e" x="1192.419922"/>
     <use xlink:href="#DejaVuSans-74" x="1255.798828"/>
     <use xlink:href="#DejaVuSans-65" x="1295.007812"/>
     <use xlink:href="#DejaVuSans-72" x="1356.53125"/>
     <use xlink:href="#DejaVuSans-70" x="1397.644531"/>
     <use xlink:href="#DejaVuSans-72" x="1461.121094"/>
     <use xlink:href="#DejaVuSans-69" x="1502.234375"/>
     <use xlink:href="#DejaVuSans-73" x="1530.017578"/>
     <use xlink:href="#DejaVuSans-65" x="1582.117188"/>
     <use xlink:href="#DejaVuSans-20" x="1643.640625"/>
     <use xlink:href="#DejaVuSans-4c" x="1675.427734"/>
     <use xlink:href="#DejaVuSans-69" x="1731.140625"/>
     <use xlink:href="#DejaVuSans-6e" x="1758.923828"/>
     <use xlink:href="#DejaVuSans-75" x="1822.302734"/>
     <use xlink:href="#DejaVuSans-78" x="1885.681641"/>
     <use xlink:href="#DejaVuSans-20" x="1944.861328"/>
     <use xlink:href="#DejaVuSans-38" x="1976.648438"/>
     <use xlink:href="#DejaVuSans-20" x="2040.271484"/>
     <use xlink:href="#DejaVuSans-61" x="2072.058594"/>
     <use xlink:href="#DejaVuSans-6e" x="2133.337891"/>
     <use xlink:href="#DejaVuSans-64" x="2196.716797"/>
     <use xlink:href="#DejaVuSans-20" x="2260.193359"/>
     <use xlink:href="#DejaVuSans-39" x="2291.980469"/>
     <use xlink:href="#DejaVuSans-20" x="2355.603516"/>
     <use xlink:href="#DejaVuSans-49" x="2387.390625"/>
     <use xlink:href="#DejaVuSans-6e" x="2416.882812"/>
     <use xlink:href="#DejaVuSans-73" x="2480.261719"/>
     <use xlink:href="#DejaVuSans-74" x="2532.361328"/>
     <use xlink:href="#DejaVuSans-61" x="2571.570312"/>
     <use xlink:href="#DejaVuSans-6e" x="2632.849609"/>
     <use xlink:href="#DejaVuSans-63" x="2696.228516"/>
     <use xlink:href="#DejaVuSans-65" x="2751.208984"/>
     <use xlink:href="#DejaVuSans-73" x="2812.732422"/>
     <use xlink:href="#DejaVuSans-20" x="2864.832031"/>
     <use xlink:href="#DejaVuSans-62" x="2896.619141"/>
     <use xlink:href="#DejaVuSans-79" x="2960.095703"/>
     <use xlink:href="#DejaVuSans-20" x="3019.275391"/>
     <use xlink:href="#DejaVuSans-44" x="3051.0625"/>
     <use xlink:href="#DejaVuSans-69" x="3128.064453"/>
     <use xlink:href="#DejaVuSans-73" x="3155.847656"/>
     <use xlink:href="#DejaVuSans-74" x="3207.947266"/>
     <use xlink:href="#DejaVuSans-72" x="3247.15625"/>
     <use xlink:href="#DejaVuSans-69" x="3288.269531"/>
     <use xlink:href="#DejaVuSans-62" x="3316.052734"/>
     <use xlink:href="#DejaVuSans-75" x="3379.529297"/>
     <use xlink:href="#DejaVuSans-74" x="3442.908203"/>
     <use xlink:href="#DejaVuSans-69" x="3482.117188"/>
     <use xlink:href="#DejaVuSans-6f" x="3509.900391"/>
     <use xlink:href="#DejaVuSans-6e" x="3571.082031"/>
    </g>
   </g>
   <g id="text_21">
    <!-- 2024-12-05 11:55 UTC -->
    <g transform="translate(794.653875 18.14175)scale(0.144 -0.144)">
     <defs>
      <path id="DejaVuSans-3a" d="M 750 794 
L 1409 794 
L 1409 0 
L 750 0 
L 750 794 
z
M 750 3309 
L 1409 3309 
L 1409 2516 
L 750 2516 
L 750 3309 
z
" transform="scale(0.015625)"/>
      <path id="DejaVuSans-55" d="M 556 4666 
L 1191 4666 
L 1191 1831 
Q 1191 1081 1462 751 
Q 1734 422 2344 422 
Q 2950 422 3222 751 
Q 3494 1081 3494 1831 
L 3494 4666 
L 4128 4666 
L 4128 1753 
Q 4128 841 3676 375 
Q 3225 -91 2344 -91 
Q 1459 -91 1007 375 
Q 556 841 556 1753 
L 556 4666 
z
" transform="scale(0.015625)"/>
      <path id="DejaVuSans-54" d="M -19 4666 
L 3928 4666 
L 3928 4134 
L 2272 4134 
L 2272 0 
L 1638 0 
L 1638 4134 
L -19 4134 
L -19 4666 
z
" transform="scale(0.015625)"/>
      <path id="DejaVuSans-43" d="M 4122 4306 
L 4122 3641 
Q 3803 3938 3442 4084 
Q 3081 4231 2675 4231 
Q 1875 4231 1450 3742 
Q 1025 3253 1025 2328 
Q 1025 1406 1450 917 
Q 1875 428 2675 428 
Q 3081 428 3442 575 
Q 3803 722 4122 1019 
L 4122 359 
Q 3791 134 3420 21 
Q 3050 -91 2638 -91 
Q 1578 -91 968 557 
Q 359 1206 359 2328 
Q 359 3453 968 4101 
Q 1578 4750 2638 4750 
Q 3056 4750 3426 4639 
Q 3797 4528 4122 4306 
z
" transform="scale(0.015625)"/>
     </defs>
     <use xlink:href="#DejaVuSans-32"/>
     <use xlink:href="#DejaVuSans-30" x="63.623047"/>
     <use xlink:href="#DejaVuSans-32" x="127.246094"/>
     <use xlink:href="#DejaVuSans-34" x="190.869141"/>
     <use xlink:href="#DejaVuSans-2d" x="254.492188"/>
     <use xlink:href="#DejaVuSans-31" x="290.576172"/>
     <use xlink:href="#DejaVuSans-32" x="354.199219"/>
     <use xlink:href="#DejaVuSans-2d" x="417.822266"/>
     <use xlink:href="#DejaVuSans-30" x="453.90625"/>
     <use xlink:href="#DejaVuSans-35" x="517.529297"/>
     <use xlink:href="#DejaVuSans-20" x="581.152344"/>
     <use xlink:href="#DejaVuSans-31" x="612.939453"/>
     <use xlink:href="#DejaVuSans-31" x="676.5625"/>
     <use xlink:href="#DejaVuSans-3a" x="740.185547"/>
     <use xlink:href="#DejaVuSans-35" x="773.876953"/>
     <use xlink:href="#DejaVuSans-35" x="837.5"/>
     <use xlink:href="#DejaVuSans-20" x="901.123047"/>
     <use xlink:href="#DejaVuSans-55" x="932.910156"/>
     <use xlink:href="#DejaVuSans-54" x="1006.103516"/>
     <use xlink:href="#DejaVuSans-43" x="1061.3125"/>
    </g>
   </g>
   <g id="legend_1">
    <g id="patch_7">
     <path d="M 61.691875 134.888625 
L 170.660625 134.888625 
Q 172.660625 134.888625 172.660625 132.888625 
L 172.660625 31.14175 
Q 172.660625 29.14175 170.660625 29.14175 
L 61.691875 29.14175 
Q 59.691875 29.14175 59.691875 31.14175 
L 59.691875 132.888625 
Q 59.691875 134.888625 61.691875 134.888625 
z
" style="fill: #e5e5e5; opacity: 0.8; stroke: #cccccc; stroke-width: 0.5; stroke-linejoin: miter"/>
    </g>
    <g id="text_22">
     <!-- Distribution -->
     <g transform="translate(87.0075 40.740187)scale(0.1 -0.1)">
      <use xlink:href="#DejaVuSans-44"/>
      <use xlink:href="#DejaVuSans-69" x="77.001953"/>
      <use xlink:href="#DejaVuSans-73" x="104.785156"/>
      <use xlink:href="#DejaVuSans-74" x="156.884766"/>
      <use xlink:href="#DejaVuSans-72" x="196.09375"/>
      <use xlink:href="#DejaVuSans-69" x="237.207031"/>
      <use xlink:href="#DejaVuSans-62" x="264.990234"/>
      <use xlink:href="#DejaVuSans-75" x="328.466797"/>
      <use xlink:href="#DejaVuSans-74" x="391.845703"/>
      <use xlink:href="#DejaVuSans-69" x="431.054688"/>
      <use xlink:href="#DejaVuSans-6f" x="458.837891"/>
      <use xlink:href="#DejaVuSans-6e" x="520.019531"/>
     </g>
    </g>
    <g id="line2d_47">
     <path d="M 63.691875 51.918312 
L 73.691875 51.918312 
L 83.691875 51.918312 
" style="fill: none; stroke: #4ac1fa; stroke-width: 1.5; stroke-linecap: square"/>
    </g>
    <g id="text_23">
     <!-- AlmaLinux -->
     <g transform="translate(91.691875 55.418312)scale(0.1 -0.1)">
      <defs>
       <path id="DejaVuSans-41" d="M 2188 4044 
L 1331 1722 
L 3047 1722 
L 2188 4044 
z
M 1831 4666 
L 2547 4666 
L 4325 0 
L 3669 0 
L 3244 1197 
L 1141 1197 
L 716 0 
L 50 0 
L 1831 4666 
z
" transform="scale(0.015625)"/>
      </defs>
      <use xlink:href="#DejaVuSans-41"/>
      <use xlink:href="#DejaVuSans-6c" x="68.408203"/>
      <use xlink:href="#DejaVuSans-6d" x="96.191406"/>
      <use xlink:href="#DejaVuSans-61" x="193.603516"/>
      <use xlink:href="#DejaVuSans-4c" x="254.882812"/>
      <use xlink:href="#DejaVuSans-69" x="310.595703"/>
      <use xlink:href="#DejaVuSans-6e" x="338.378906"/>
      <use xlink:href="#DejaVuSans-75" x="401.757812"/>
      <use xlink:href="#DejaVuSans-78" x="465.136719"/>
     </g>
    </g>
    <g id="line2d_48">
     <path d="M 63.691875 66.596437 
L 73.691875 66.596437 
L 83.691875 66.596437 
" style="fill: none; stroke: #e9a942; stroke-width: 1.5; stroke-linecap: square"/>
    </g>
    <g id="text_24">
     <!-- CentOS Legacy -->
     <g transform="translate(91.691875 70.096437)scale(0.1 -0.1)">
      <defs>
       <path id="DejaVuSans-4f" d="M 2522 4238 
Q 1834 4238 1429 3725 
Q 1025 3213 1025 2328 
Q 1025 1447 1429 934 
Q 1834 422 2522 422 
Q 3209 422 3611 934 
Q 4013 1447 4013 2328 
Q 4013 3213 3611 3725 
Q 3209 4238 2522 4238 
z
M 2522 4750 
Q 3503 4750 4090 4092 
Q 4678 3434 4678 2328 
Q 4678 1225 4090 567 
Q 3503 -91 2522 -91 
Q 1538 -91 948 565 
Q 359 1222 359 2328 
Q 359 3434 948 4092 
Q 1538 4750 2522 4750 
z
" transform="scale(0.015625)"/>
       <path id="DejaVuSans-53" d="M 3425 4513 
L 3425 3897 
Q 3066 4069 2747 4153 
Q 2428 4238 2131 4238 
Q 1616 4238 1336 4038 
Q 1056 3838 1056 3469 
Q 1056 3159 1242 3001 
Q 1428 2844 1947 2747 
L 2328 2669 
Q 3034 2534 3370 2195 
Q 3706 1856 3706 1288 
Q 3706 609 3251 259 
Q 2797 -91 1919 -91 
Q 1588 -91 1214 -16 
Q 841 59 441 206 
L 441 856 
Q 825 641 1194 531 
Q 1563 422 1919 422 
Q 2459 422 2753 634 
Q 3047 847 3047 1241 
Q 3047 1584 2836 1778 
Q 2625 1972 2144 2069 
L 1759 2144 
Q 1053 2284 737 2584 
Q 422 2884 422 3419 
Q 422 4038 858 4394 
Q 1294 4750 2059 4750 
Q 2388 4750 2728 4690 
Q 3069 4631 3425 4513 
z
" transform="scale(0.015625)"/>
       <path id="DejaVuSans-67" d="M 2906 1791 
Q 2906 2416 2648 2759 
Q 2391 3103 1925 3103 
Q 1463 3103 1205 2759 
Q 947 2416 947 1791 
Q 947 1169 1205 825 
Q 1463 481 1925 481 
Q 2391 481 2648 825 
Q 2906 1169 2906 1791 
z
M 3481 434 
Q 3481 -459 3084 -895 
Q 2688 -1331 1869 -1331 
Q 1566 -1331 1297 -1286 
Q 1028 -1241 775 -1147 
L 775 -588 
Q 1028 -725 1275 -790 
Q 1522 -856 1778 -856 
Q 2344 -856 2625 -561 
Q 2906 -266 2906 331 
L 2906 616 
Q 2728 306 2450 153 
Q 2172 0 1784 0 
Q 1141 0 747 490 
Q 353 981 353 1791 
Q 353 2603 747 3093 
Q 1141 3584 1784 3584 
Q 2172 3584 2450 3431 
Q 2728 3278 2906 2969 
L 2906 3500 
L 3481 3500 
L 3481 434 
z
" transform="scale(0.015625)"/>
      </defs>
      <use xlink:href="#DejaVuSans-43"/>
      <use xlink:href="#DejaVuSans-65" x="69.824219"/>
      <use xlink:href="#DejaVuSans-6e" x="131.347656"/>
      <use xlink:href="#DejaVuSans-74" x="194.726562"/>
      <use xlink:href="#DejaVuSans-4f" x="233.935547"/>
      <use xlink:href="#DejaVuSans-53" x="312.646484"/>
      <use xlink:href="#DejaVuSans-20" x="376.123047"/>
      <use xlink:href="#DejaVuSans-4c" x="407.910156"/>
      <use xlink:href="#DejaVuSans-65" x="461.873047"/>
      <use xlink:href="#DejaVuSans-67" x="523.396484"/>
      <use xlink:href="#DejaVuSans-61" x="586.873047"/>
      <use xlink:href="#DejaVuSans-63" x="648.152344"/>
      <use xlink:href="#DejaVuSans-79" x="703.132812"/>
     </g>
    </g>
    <g id="line2d_49">
     <path d="M 63.691875 81.274563 
L 73.691875 81.274563 
L 83.691875 81.274563 
" style="fill: none; stroke: #9a5689; stroke-width: 1.5; stroke-linecap: square"/>
    </g>
    <g id="text_25">
     <!-- CentOS Stream -->
     <g transform="translate(91.691875 84.774563)scale(0.1 -0.1)">
      <use xlink:href="#DejaVuSans-43"/>
      <use xlink:href="#DejaVuSans-65" x="69.824219"/>
      <use xlink:href="#DejaVuSans-6e" x="131.347656"/>
      <use xlink:href="#DejaVuSans-74" x="194.726562"/>
      <use xlink:href="#DejaVuSans-4f" x="233.935547"/>
      <use xlink:href="#DejaVuSans-53" x="312.646484"/>
      <use xlink:href="#DejaVuSans-20" x="376.123047"/>
      <use xlink:href="#DejaVuSans-53" x="407.910156"/>
      <use xlink:href="#DejaVuSans-74" x="471.386719"/>
      <use xlink:href="#DejaVuSans-72" x="510.595703"/>
      <use xlink:href="#DejaVuSans-65" x="549.458984"/>
      <use xlink:href="#DejaVuSans-61" x="610.982422"/>
      <use xlink:href="#DejaVuSans-6d" x="672.261719"/>
     </g>
    </g>
    <g id="line2d_50">
     <path d="M 63.691875 95.952687 
L 73.691875 95.952687 
L 83.691875 95.952687 
" style="fill: none; stroke: #be503b; stroke-width: 1.5; stroke-linecap: square"/>
    </g>
    <g id="text_26">
     <!-- Oracle -->
     <g transform="translate(91.691875 99.452687)scale(0.1 -0.1)">
      <use xlink:href="#DejaVuSans-4f"/>
      <use xlink:href="#DejaVuSans-72" x="78.710938"/>
      <use xlink:href="#DejaVuSans-61" x="119.824219"/>
      <use xlink:href="#DejaVuSans-63" x="181.103516"/>
      <use xlink:href="#DejaVuSans-6c" x="236.083984"/>
      <use xlink:href="#DejaVuSans-65" x="263.867188"/>
     </g>
    </g>
    <g id="line2d_51">
     <path d="M 63.691875 110.630812 
L 73.691875 110.630812 
L 83.691875 110.630812 
" style="fill: none; stroke: #e2321d; stroke-width: 1.5; stroke-linecap: square"/>
    </g>
    <g id="text_27">
     <!-- RHEL -->
     <g transform="translate(91.691875 114.130812)scale(0.1 -0.1)">
      <defs>
       <path id="DejaVuSans-52" d="M 2841 2188 
Q 3044 2119 3236 1894 
Q 3428 1669 3622 1275 
L 4263 0 
L 3584 0 
L 2988 1197 
Q 2756 1666 2539 1819 
Q 2322 1972 1947 1972 
L 1259 1972 
L 1259 0 
L 628 0 
L 628 4666 
L 2053 4666 
Q 2853 4666 3247 4331 
Q 3641 3997 3641 3322 
Q 3641 2881 3436 2590 
Q 3231 2300 2841 2188 
z
M 1259 4147 
L 1259 2491 
L 2053 2491 
Q 2509 2491 2742 2702 
Q 2975 2913 2975 3322 
Q 2975 3731 2742 3939 
Q 2509 4147 2053 4147 
L 1259 4147 
z
" transform="scale(0.015625)"/>
       <path id="DejaVuSans-48" d="M 628 4666 
L 1259 4666 
L 1259 2753 
L 3553 2753 
L 3553 4666 
L 4184 4666 
L 4184 0 
L 3553 0 
L 3553 2222 
L 1259 2222 
L 1259 0 
L 628 0 
L 628 4666 
z
" transform="scale(0.015625)"/>
      </defs>
      <use xlink:href="#DejaVuSans-52"/>
      <use xlink:href="#DejaVuSans-48" x="69.482422"/>
      <use xlink:href="#DejaVuSans-45" x="144.677734"/>
      <use xlink:href="#DejaVuSans-4c" x="207.861328"/>
     </g>
    </g>
    <g id="line2d_52">
     <path d="M 63.691875 125.308937 
L 73.691875 125.308937 
L 83.691875 125.308937 
" style="fill: none; stroke: #48b585; stroke-width: 6; stroke-linecap: square"/>
    </g>
    <g id="text_28">
     <!-- Rocky Linux -->
     <g transform="translate(91.691875 128.808937)scale(0.1 -0.1)">
      <use xlink:href="#DejaVuSans-52"/>
      <use xlink:href="#DejaVuSans-6f" x="64.982422"/>
      <use xlink:href="#DejaVuSans-63" x="126.164062"/>
      <use xlink:href="#DejaVuSans-6b" x="181.144531"/>
      <use xlink:href="#DejaVuSans-79" x="235.429688"/>
      <use xlink:href="#DejaVuSans-20" x="294.609375"/>
      <use xlink:href="#DejaVuSans-4c" x="326.396484"/>
      <use xlink:href="#DejaVuSans-69" x="382.109375"/>
      <use xlink:href="#DejaVuSans-6e" x="409.892578"/>
      <use xlink:href="#DejaVuSans-75" x="473.271484"/>
      <use xlink:href="#DejaVuSans-78" x="536.650391"/>
     </g>
    </g>
   </g>
  </g>
 </g>
 <defs>
  <clipPath id="p441367b7ea">
   <rect x="54.691875" y="24.14175" width="902.844" height="543.6"/>
  </clipPath>
 </defs>
</svg>
