<?xml version="1.0" encoding="utf-8" standalone="no"?>
<!DOCTYPE svg PUBLIC "-//W3C//DTD SVG 1.1//EN"
  "http://www.w3.org/Graphics/SVG/1.1/DTD/svg11.dtd">
<svg xmlns:xlink="http://www.w3.org/1999/xlink" width="964.735875pt" height="644.743878pt" viewBox="0 0 964.735875 644.743878" xmlns="http://www.w3.org/2000/svg" version="1.1">
 <metadata>
  <rdf:RDF xmlns:dc="http://purl.org/dc/elements/1.1/" xmlns:cc="http://creativecommons.org/ns#" xmlns:rdf="http://www.w3.org/1999/02/22-rdf-syntax-ns#">
   <cc:Work>
    <dc:type rdf:resource="http://purl.org/dc/dcmitype/StillImage"/>
    <dc:date>2024-12-12T11:55:35.104318</dc:date>
    <dc:format>image/svg+xml</dc:format>
    <dc:creator>
     <cc:Agent>
      <dc:title>Matplotlib v3.6.3, https://matplotlib.org/</dc:title>
     </cc:Agent>
    </dc:creator>
   </cc:Work>
  </rdf:RDF>
 </metadata>
 <defs>
  <style type="text/css">*{stroke-linejoin: round; stroke-linecap: butt}</style>
 </defs>
 <g id="figure_1">
  <g id="patch_1">
   <path d="M 0 644.743878 
L 964.735875 644.743878 
L 964.735875 0 
L 0 0 
z
" style="fill: #ffffff"/>
  </g>
  <g id="axes_1">
   <g id="patch_2">
    <path d="M 54.691875 578.54175 
L 957.535875 578.54175 
L 957.535875 24.14175 
L 54.691875 24.14175 
z
" style="fill: #e5e5e5"/>
   </g>
   <g id="matplotlib.axis_1">
    <g id="xtick_1">
     <g id="line2d_1">
      <path d="M 98.544298 578.54175 
L 98.544298 24.14175 
" clip-path="url(#pa4eb23e87c)" style="fill: none; stroke: #ffffff; stroke-width: 0.8; stroke-linecap: square"/>
     </g>
     <g id="line2d_2">
      <defs>
       <path id="m8fc99e9232" d="M 0 0 
L 0 3.5 
" style="stroke: #555555; stroke-width: 0.8"/>
      </defs>
      <g>
       <use xlink:href="#m8fc99e9232" x="98.544298" y="578.54175" style="fill: #555555; stroke: #555555; stroke-width: 0.8"/>
      </g>
     </g>
     <g id="text_1">
      <!-- 2024-01 -->
      <g style="fill: #555555" transform="translate(85.723016 620.459567) rotate(-45) scale(0.1 -0.1)">
       <defs>
        <path id="DejaVuSans-32" d="M 1228 531 
L 3431 531 
L 3431 0 
L 469 0 
L 469 531 
Q 828 903 1448 1529 
Q 2069 2156 2228 2338 
Q 2531 2678 2651 2914 
Q 2772 3150 2772 3378 
Q 2772 3750 2511 3984 
Q 2250 4219 1831 4219 
Q 1534 4219 1204 4116 
Q 875 4013 500 3803 
L 500 4441 
Q 881 4594 1212 4672 
Q 1544 4750 1819 4750 
Q 2544 4750 2975 4387 
Q 3406 4025 3406 3419 
Q 3406 3131 3298 2873 
Q 3191 2616 2906 2266 
Q 2828 2175 2409 1742 
Q 1991 1309 1228 531 
z
" transform="scale(0.015625)"/>
        <path id="DejaVuSans-30" d="M 2034 4250 
Q 1547 4250 1301 3770 
Q 1056 3291 1056 2328 
Q 1056 1369 1301 889 
Q 1547 409 2034 409 
Q 2525 409 2770 889 
Q 3016 1369 3016 2328 
Q 3016 3291 2770 3770 
Q 2525 4250 2034 4250 
z
M 2034 4750 
Q 2819 4750 3233 4129 
Q 3647 3509 3647 2328 
Q 3647 1150 3233 529 
Q 2819 -91 2034 -91 
Q 1250 -91 836 529 
Q 422 1150 422 2328 
Q 422 3509 836 4129 
Q 1250 4750 2034 4750 
z
" transform="scale(0.015625)"/>
        <path id="DejaVuSans-34" d="M 2419 4116 
L 825 1625 
L 2419 1625 
L 2419 4116 
z
M 2253 4666 
L 3047 4666 
L 3047 1625 
L 3713 1625 
L 3713 1100 
L 3047 1100 
L 3047 0 
L 2419 0 
L 2419 1100 
L 313 1100 
L 313 1709 
L 2253 4666 
z
" transform="scale(0.015625)"/>
        <path id="DejaVuSans-2d" d="M 313 2009 
L 1997 2009 
L 1997 1497 
L 313 1497 
L 313 2009 
z
" transform="scale(0.015625)"/>
        <path id="DejaVuSans-31" d="M 794 531 
L 1825 531 
L 1825 4091 
L 703 3866 
L 703 4441 
L 1819 4666 
L 2450 4666 
L 2450 531 
L 3481 531 
L 3481 0 
L 794 0 
L 794 531 
z
" transform="scale(0.015625)"/>
       </defs>
       <use xlink:href="#DejaVuSans-32"/>
       <use xlink:href="#DejaVuSans-30" x="63.623047"/>
       <use xlink:href="#DejaVuSans-32" x="127.246094"/>
       <use xlink:href="#DejaVuSans-34" x="190.869141"/>
       <use xlink:href="#DejaVuSans-2d" x="254.492188"/>
       <use xlink:href="#DejaVuSans-30" x="290.576172"/>
       <use xlink:href="#DejaVuSans-31" x="354.199219"/>
      </g>
     </g>
    </g>
    <g id="xtick_2">
     <g id="line2d_3">
      <path d="M 178.510481 578.54175 
L 178.510481 24.14175 
" clip-path="url(#pa4eb23e87c)" style="fill: none; stroke: #ffffff; stroke-width: 0.8; stroke-linecap: square"/>
     </g>
     <g id="line2d_4">
      <g>
       <use xlink:href="#m8fc99e9232" x="178.510481" y="578.54175" style="fill: #555555; stroke: #555555; stroke-width: 0.8"/>
      </g>
     </g>
     <g id="text_2">
      <!-- 2024-02 -->
      <g style="fill: #555555" transform="translate(165.689198 620.459567) rotate(-45) scale(0.1 -0.1)">
       <use xlink:href="#DejaVuSans-32"/>
       <use xlink:href="#DejaVuSans-30" x="63.623047"/>
       <use xlink:href="#DejaVuSans-32" x="127.246094"/>
       <use xlink:href="#DejaVuSans-34" x="190.869141"/>
       <use xlink:href="#DejaVuSans-2d" x="254.492188"/>
       <use xlink:href="#DejaVuSans-30" x="290.576172"/>
       <use xlink:href="#DejaVuSans-32" x="354.199219"/>
      </g>
     </g>
    </g>
    <g id="xtick_3">
     <g id="line2d_5">
      <path d="M 253.317555 578.54175 
L 253.317555 24.14175 
" clip-path="url(#pa4eb23e87c)" style="fill: none; stroke: #ffffff; stroke-width: 0.8; stroke-linecap: square"/>
     </g>
     <g id="line2d_6">
      <g>
       <use xlink:href="#m8fc99e9232" x="253.317555" y="578.54175" style="fill: #555555; stroke: #555555; stroke-width: 0.8"/>
      </g>
     </g>
     <g id="text_3">
      <!-- 2024-03 -->
      <g style="fill: #555555" transform="translate(240.496273 620.459567) rotate(-45) scale(0.1 -0.1)">
       <defs>
        <path id="DejaVuSans-33" d="M 2597 2516 
Q 3050 2419 3304 2112 
Q 3559 1806 3559 1356 
Q 3559 666 3084 287 
Q 2609 -91 1734 -91 
Q 1441 -91 1130 -33 
Q 819 25 488 141 
L 488 750 
Q 750 597 1062 519 
Q 1375 441 1716 441 
Q 2309 441 2620 675 
Q 2931 909 2931 1356 
Q 2931 1769 2642 2001 
Q 2353 2234 1838 2234 
L 1294 2234 
L 1294 2753 
L 1863 2753 
Q 2328 2753 2575 2939 
Q 2822 3125 2822 3475 
Q 2822 3834 2567 4026 
Q 2313 4219 1838 4219 
Q 1578 4219 1281 4162 
Q 984 4106 628 3988 
L 628 4550 
Q 988 4650 1302 4700 
Q 1616 4750 1894 4750 
Q 2613 4750 3031 4423 
Q 3450 4097 3450 3541 
Q 3450 3153 3228 2886 
Q 3006 2619 2597 2516 
z
" transform="scale(0.015625)"/>
       </defs>
       <use xlink:href="#DejaVuSans-32"/>
       <use xlink:href="#DejaVuSans-30" x="63.623047"/>
       <use xlink:href="#DejaVuSans-32" x="127.246094"/>
       <use xlink:href="#DejaVuSans-34" x="190.869141"/>
       <use xlink:href="#DejaVuSans-2d" x="254.492188"/>
       <use xlink:href="#DejaVuSans-30" x="290.576172"/>
       <use xlink:href="#DejaVuSans-33" x="354.199219"/>
      </g>
     </g>
    </g>
    <g id="xtick_4">
     <g id="line2d_7">
      <path d="M 333.283738 578.54175 
L 333.283738 24.14175 
" clip-path="url(#pa4eb23e87c)" style="fill: none; stroke: #ffffff; stroke-width: 0.8; stroke-linecap: square"/>
     </g>
     <g id="line2d_8">
      <g>
       <use xlink:href="#m8fc99e9232" x="333.283738" y="578.54175" style="fill: #555555; stroke: #555555; stroke-width: 0.8"/>
      </g>
     </g>
     <g id="text_4">
      <!-- 2024-04 -->
      <g style="fill: #555555" transform="translate(320.462456 620.459567) rotate(-45) scale(0.1 -0.1)">
       <use xlink:href="#DejaVuSans-32"/>
       <use xlink:href="#DejaVuSans-30" x="63.623047"/>
       <use xlink:href="#DejaVuSans-32" x="127.246094"/>
       <use xlink:href="#DejaVuSans-34" x="190.869141"/>
       <use xlink:href="#DejaVuSans-2d" x="254.492188"/>
       <use xlink:href="#DejaVuSans-30" x="290.576172"/>
       <use xlink:href="#DejaVuSans-34" x="354.199219"/>
      </g>
     </g>
    </g>
    <g id="xtick_5">
     <g id="line2d_9">
      <path d="M 410.670366 578.54175 
L 410.670366 24.14175 
" clip-path="url(#pa4eb23e87c)" style="fill: none; stroke: #ffffff; stroke-width: 0.8; stroke-linecap: square"/>
     </g>
     <g id="line2d_10">
      <g>
       <use xlink:href="#m8fc99e9232" x="410.670366" y="578.54175" style="fill: #555555; stroke: #555555; stroke-width: 0.8"/>
      </g>
     </g>
     <g id="text_5">
      <!-- 2024-05 -->
      <g style="fill: #555555" transform="translate(397.849084 620.459567) rotate(-45) scale(0.1 -0.1)">
       <defs>
        <path id="DejaVuSans-35" d="M 691 4666 
L 3169 4666 
L 3169 4134 
L 1269 4134 
L 1269 2991 
Q 1406 3038 1543 3061 
Q 1681 3084 1819 3084 
Q 2600 3084 3056 2656 
Q 3513 2228 3513 1497 
Q 3513 744 3044 326 
Q 2575 -91 1722 -91 
Q 1428 -91 1123 -41 
Q 819 9 494 109 
L 494 744 
Q 775 591 1075 516 
Q 1375 441 1709 441 
Q 2250 441 2565 725 
Q 2881 1009 2881 1497 
Q 2881 1984 2565 2268 
Q 2250 2553 1709 2553 
Q 1456 2553 1204 2497 
Q 953 2441 691 2322 
L 691 4666 
z
" transform="scale(0.015625)"/>
       </defs>
       <use xlink:href="#DejaVuSans-32"/>
       <use xlink:href="#DejaVuSans-30" x="63.623047"/>
       <use xlink:href="#DejaVuSans-32" x="127.246094"/>
       <use xlink:href="#DejaVuSans-34" x="190.869141"/>
       <use xlink:href="#DejaVuSans-2d" x="254.492188"/>
       <use xlink:href="#DejaVuSans-30" x="290.576172"/>
       <use xlink:href="#DejaVuSans-35" x="354.199219"/>
      </g>
     </g>
    </g>
    <g id="xtick_6">
     <g id="line2d_11">
      <path d="M 490.636549 578.54175 
L 490.636549 24.14175 
" clip-path="url(#pa4eb23e87c)" style="fill: none; stroke: #ffffff; stroke-width: 0.8; stroke-linecap: square"/>
     </g>
     <g id="line2d_12">
      <g>
       <use xlink:href="#m8fc99e9232" x="490.636549" y="578.54175" style="fill: #555555; stroke: #555555; stroke-width: 0.8"/>
      </g>
     </g>
     <g id="text_6">
      <!-- 2024-06 -->
      <g style="fill: #555555" transform="translate(477.815267 620.459567) rotate(-45) scale(0.1 -0.1)">
       <defs>
        <path id="DejaVuSans-36" d="M 2113 2584 
Q 1688 2584 1439 2293 
Q 1191 2003 1191 1497 
Q 1191 994 1439 701 
Q 1688 409 2113 409 
Q 2538 409 2786 701 
Q 3034 994 3034 1497 
Q 3034 2003 2786 2293 
Q 2538 2584 2113 2584 
z
M 3366 4563 
L 3366 3988 
Q 3128 4100 2886 4159 
Q 2644 4219 2406 4219 
Q 1781 4219 1451 3797 
Q 1122 3375 1075 2522 
Q 1259 2794 1537 2939 
Q 1816 3084 2150 3084 
Q 2853 3084 3261 2657 
Q 3669 2231 3669 1497 
Q 3669 778 3244 343 
Q 2819 -91 2113 -91 
Q 1303 -91 875 529 
Q 447 1150 447 2328 
Q 447 3434 972 4092 
Q 1497 4750 2381 4750 
Q 2619 4750 2861 4703 
Q 3103 4656 3366 4563 
z
" transform="scale(0.015625)"/>
       </defs>
       <use xlink:href="#DejaVuSans-32"/>
       <use xlink:href="#DejaVuSans-30" x="63.623047"/>
       <use xlink:href="#DejaVuSans-32" x="127.246094"/>
       <use xlink:href="#DejaVuSans-34" x="190.869141"/>
       <use xlink:href="#DejaVuSans-2d" x="254.492188"/>
       <use xlink:href="#DejaVuSans-30" x="290.576172"/>
       <use xlink:href="#DejaVuSans-36" x="354.199219"/>
      </g>
     </g>
    </g>
    <g id="xtick_7">
     <g id="line2d_13">
      <path d="M 568.023178 578.54175 
L 568.023178 24.14175 
" clip-path="url(#pa4eb23e87c)" style="fill: none; stroke: #ffffff; stroke-width: 0.8; stroke-linecap: square"/>
     </g>
     <g id="line2d_14">
      <g>
       <use xlink:href="#m8fc99e9232" x="568.023178" y="578.54175" style="fill: #555555; stroke: #555555; stroke-width: 0.8"/>
      </g>
     </g>
     <g id="text_7">
      <!-- 2024-07 -->
      <g style="fill: #555555" transform="translate(555.201896 620.459567) rotate(-45) scale(0.1 -0.1)">
       <defs>
        <path id="DejaVuSans-37" d="M 525 4666 
L 3525 4666 
L 3525 4397 
L 1831 0 
L 1172 0 
L 2766 4134 
L 525 4134 
L 525 4666 
z
" transform="scale(0.015625)"/>
       </defs>
       <use xlink:href="#DejaVuSans-32"/>
       <use xlink:href="#DejaVuSans-30" x="63.623047"/>
       <use xlink:href="#DejaVuSans-32" x="127.246094"/>
       <use xlink:href="#DejaVuSans-34" x="190.869141"/>
       <use xlink:href="#DejaVuSans-2d" x="254.492188"/>
       <use xlink:href="#DejaVuSans-30" x="290.576172"/>
       <use xlink:href="#DejaVuSans-37" x="354.199219"/>
      </g>
     </g>
    </g>
    <g id="xtick_8">
     <g id="line2d_15">
      <path d="M 647.989361 578.54175 
L 647.989361 24.14175 
" clip-path="url(#pa4eb23e87c)" style="fill: none; stroke: #ffffff; stroke-width: 0.8; stroke-linecap: square"/>
     </g>
     <g id="line2d_16">
      <g>
       <use xlink:href="#m8fc99e9232" x="647.989361" y="578.54175" style="fill: #555555; stroke: #555555; stroke-width: 0.8"/>
      </g>
     </g>
     <g id="text_8">
      <!-- 2024-08 -->
      <g style="fill: #555555" transform="translate(635.168078 620.459567) rotate(-45) scale(0.1 -0.1)">
       <defs>
        <path id="DejaVuSans-38" d="M 2034 2216 
Q 1584 2216 1326 1975 
Q 1069 1734 1069 1313 
Q 1069 891 1326 650 
Q 1584 409 2034 409 
Q 2484 409 2743 651 
Q 3003 894 3003 1313 
Q 3003 1734 2745 1975 
Q 2488 2216 2034 2216 
z
M 1403 2484 
Q 997 2584 770 2862 
Q 544 3141 544 3541 
Q 544 4100 942 4425 
Q 1341 4750 2034 4750 
Q 2731 4750 3128 4425 
Q 3525 4100 3525 3541 
Q 3525 3141 3298 2862 
Q 3072 2584 2669 2484 
Q 3125 2378 3379 2068 
Q 3634 1759 3634 1313 
Q 3634 634 3220 271 
Q 2806 -91 2034 -91 
Q 1263 -91 848 271 
Q 434 634 434 1313 
Q 434 1759 690 2068 
Q 947 2378 1403 2484 
z
M 1172 3481 
Q 1172 3119 1398 2916 
Q 1625 2713 2034 2713 
Q 2441 2713 2670 2916 
Q 2900 3119 2900 3481 
Q 2900 3844 2670 4047 
Q 2441 4250 2034 4250 
Q 1625 4250 1398 4047 
Q 1172 3844 1172 3481 
z
" transform="scale(0.015625)"/>
       </defs>
       <use xlink:href="#DejaVuSans-32"/>
       <use xlink:href="#DejaVuSans-30" x="63.623047"/>
       <use xlink:href="#DejaVuSans-32" x="127.246094"/>
       <use xlink:href="#DejaVuSans-34" x="190.869141"/>
       <use xlink:href="#DejaVuSans-2d" x="254.492188"/>
       <use xlink:href="#DejaVuSans-30" x="290.576172"/>
       <use xlink:href="#DejaVuSans-38" x="354.199219"/>
      </g>
     </g>
    </g>
    <g id="xtick_9">
     <g id="line2d_17">
      <path d="M 727.955544 578.54175 
L 727.955544 24.14175 
" clip-path="url(#pa4eb23e87c)" style="fill: none; stroke: #ffffff; stroke-width: 0.8; stroke-linecap: square"/>
     </g>
     <g id="line2d_18">
      <g>
       <use xlink:href="#m8fc99e9232" x="727.955544" y="578.54175" style="fill: #555555; stroke: #555555; stroke-width: 0.8"/>
      </g>
     </g>
     <g id="text_9">
      <!-- 2024-09 -->
      <g style="fill: #555555" transform="translate(715.134261 620.459567) rotate(-45) scale(0.1 -0.1)">
       <defs>
        <path id="DejaVuSans-39" d="M 703 97 
L 703 672 
Q 941 559 1184 500 
Q 1428 441 1663 441 
Q 2288 441 2617 861 
Q 2947 1281 2994 2138 
Q 2813 1869 2534 1725 
Q 2256 1581 1919 1581 
Q 1219 1581 811 2004 
Q 403 2428 403 3163 
Q 403 3881 828 4315 
Q 1253 4750 1959 4750 
Q 2769 4750 3195 4129 
Q 3622 3509 3622 2328 
Q 3622 1225 3098 567 
Q 2575 -91 1691 -91 
Q 1453 -91 1209 -44 
Q 966 3 703 97 
z
M 1959 2075 
Q 2384 2075 2632 2365 
Q 2881 2656 2881 3163 
Q 2881 3666 2632 3958 
Q 2384 4250 1959 4250 
Q 1534 4250 1286 3958 
Q 1038 3666 1038 3163 
Q 1038 2656 1286 2365 
Q 1534 2075 1959 2075 
z
" transform="scale(0.015625)"/>
       </defs>
       <use xlink:href="#DejaVuSans-32"/>
       <use xlink:href="#DejaVuSans-30" x="63.623047"/>
       <use xlink:href="#DejaVuSans-32" x="127.246094"/>
       <use xlink:href="#DejaVuSans-34" x="190.869141"/>
       <use xlink:href="#DejaVuSans-2d" x="254.492188"/>
       <use xlink:href="#DejaVuSans-30" x="290.576172"/>
       <use xlink:href="#DejaVuSans-39" x="354.199219"/>
      </g>
     </g>
    </g>
    <g id="xtick_10">
     <g id="line2d_19">
      <path d="M 805.342172 578.54175 
L 805.342172 24.14175 
" clip-path="url(#pa4eb23e87c)" style="fill: none; stroke: #ffffff; stroke-width: 0.8; stroke-linecap: square"/>
     </g>
     <g id="line2d_20">
      <g>
       <use xlink:href="#m8fc99e9232" x="805.342172" y="578.54175" style="fill: #555555; stroke: #555555; stroke-width: 0.8"/>
      </g>
     </g>
     <g id="text_10">
      <!-- 2024-10 -->
      <g style="fill: #555555" transform="translate(792.52089 620.459567) rotate(-45) scale(0.1 -0.1)">
       <use xlink:href="#DejaVuSans-32"/>
       <use xlink:href="#DejaVuSans-30" x="63.623047"/>
       <use xlink:href="#DejaVuSans-32" x="127.246094"/>
       <use xlink:href="#DejaVuSans-34" x="190.869141"/>
       <use xlink:href="#DejaVuSans-2d" x="254.492188"/>
       <use xlink:href="#DejaVuSans-31" x="290.576172"/>
       <use xlink:href="#DejaVuSans-30" x="354.199219"/>
      </g>
     </g>
    </g>
    <g id="xtick_11">
     <g id="line2d_21">
      <path d="M 885.308355 578.54175 
L 885.308355 24.14175 
" clip-path="url(#pa4eb23e87c)" style="fill: none; stroke: #ffffff; stroke-width: 0.8; stroke-linecap: square"/>
     </g>
     <g id="line2d_22">
      <g>
       <use xlink:href="#m8fc99e9232" x="885.308355" y="578.54175" style="fill: #555555; stroke: #555555; stroke-width: 0.8"/>
      </g>
     </g>
     <g id="text_11">
      <!-- 2024-11 -->
      <g style="fill: #555555" transform="translate(872.487073 620.459567) rotate(-45) scale(0.1 -0.1)">
       <use xlink:href="#DejaVuSans-32"/>
       <use xlink:href="#DejaVuSans-30" x="63.623047"/>
       <use xlink:href="#DejaVuSans-32" x="127.246094"/>
       <use xlink:href="#DejaVuSans-34" x="190.869141"/>
       <use xlink:href="#DejaVuSans-2d" x="254.492188"/>
       <use xlink:href="#DejaVuSans-31" x="290.576172"/>
       <use xlink:href="#DejaVuSans-31" x="354.199219"/>
      </g>
     </g>
    </g>
    <g id="text_12">
     <!-- Date -->
     <g style="fill: #555555" transform="translate(491.772938 635.048253) scale(0.12 -0.12)">
      <defs>
       <path id="DejaVuSans-44" d="M 1259 4147 
L 1259 519 
L 2022 519 
Q 2988 519 3436 956 
Q 3884 1394 3884 2338 
Q 3884 3275 3436 3711 
Q 2988 4147 2022 4147 
L 1259 4147 
z
M 628 4666 
L 1925 4666 
Q 3281 4666 3915 4102 
Q 4550 3538 4550 2338 
Q 4550 1131 3912 565 
Q 3275 0 1925 0 
L 628 0 
L 628 4666 
z
" transform="scale(0.015625)"/>
       <path id="DejaVuSans-61" d="M 2194 1759 
Q 1497 1759 1228 1600 
Q 959 1441 959 1056 
Q 959 750 1161 570 
Q 1363 391 1709 391 
Q 2188 391 2477 730 
Q 2766 1069 2766 1631 
L 2766 1759 
L 2194 1759 
z
M 3341 1997 
L 3341 0 
L 2766 0 
L 2766 531 
Q 2569 213 2275 61 
Q 1981 -91 1556 -91 
Q 1019 -91 701 211 
Q 384 513 384 1019 
Q 384 1609 779 1909 
Q 1175 2209 1959 2209 
L 2766 2209 
L 2766 2266 
Q 2766 2663 2505 2880 
Q 2244 3097 1772 3097 
Q 1472 3097 1187 3025 
Q 903 2953 641 2809 
L 641 3341 
Q 956 3463 1253 3523 
Q 1550 3584 1831 3584 
Q 2591 3584 2966 3190 
Q 3341 2797 3341 1997 
z
" transform="scale(0.015625)"/>
       <path id="DejaVuSans-74" d="M 1172 4494 
L 1172 3500 
L 2356 3500 
L 2356 3053 
L 1172 3053 
L 1172 1153 
Q 1172 725 1289 603 
Q 1406 481 1766 481 
L 2356 481 
L 2356 0 
L 1766 0 
Q 1100 0 847 248 
Q 594 497 594 1153 
L 594 3053 
L 172 3053 
L 172 3500 
L 594 3500 
L 594 4494 
L 1172 4494 
z
" transform="scale(0.015625)"/>
       <path id="DejaVuSans-65" d="M 3597 1894 
L 3597 1613 
L 953 1613 
Q 991 1019 1311 708 
Q 1631 397 2203 397 
Q 2534 397 2845 478 
Q 3156 559 3463 722 
L 3463 178 
Q 3153 47 2828 -22 
Q 2503 -91 2169 -91 
Q 1331 -91 842 396 
Q 353 884 353 1716 
Q 353 2575 817 3079 
Q 1281 3584 2069 3584 
Q 2775 3584 3186 3129 
Q 3597 2675 3597 1894 
z
M 3022 2063 
Q 3016 2534 2758 2815 
Q 2500 3097 2075 3097 
Q 1594 3097 1305 2825 
Q 1016 2553 972 2059 
L 3022 2063 
z
" transform="scale(0.015625)"/>
      </defs>
      <use xlink:href="#DejaVuSans-44"/>
      <use xlink:href="#DejaVuSans-61" x="77.001953"/>
      <use xlink:href="#DejaVuSans-74" x="138.28125"/>
      <use xlink:href="#DejaVuSans-65" x="177.490234"/>
     </g>
    </g>
   </g>
   <g id="matplotlib.axis_2">
    <g id="ytick_1">
     <g id="line2d_23">
      <path d="M 54.691875 578.54175 
L 957.535875 578.54175 
" clip-path="url(#pa4eb23e87c)" style="fill: none; stroke: #ffffff; stroke-width: 0.8; stroke-linecap: square"/>
     </g>
     <g id="line2d_24">
      <defs>
       <path id="m77bb2422fa" d="M 0 0 
L -3.5 0 
" style="stroke: #555555; stroke-width: 0.8"/>
      </defs>
      <g>
       <use xlink:href="#m77bb2422fa" x="54.691875" y="578.54175" style="fill: #555555; stroke: #555555; stroke-width: 0.8"/>
      </g>
     </g>
     <g id="text_13">
      <!-- 0k -->
      <g style="fill: #555555" transform="translate(35.53875 582.340969) scale(0.1 -0.1)">
       <defs>
        <path id="DejaVuSans-6b" d="M 581 4863 
L 1159 4863 
L 1159 1991 
L 2875 3500 
L 3609 3500 
L 1753 1863 
L 3688 0 
L 2938 0 
L 1159 1709 
L 1159 0 
L 581 0 
L 581 4863 
z
" transform="scale(0.015625)"/>
       </defs>
       <use xlink:href="#DejaVuSans-30"/>
       <use xlink:href="#DejaVuSans-6b" x="63.623047"/>
      </g>
     </g>
    </g>
    <g id="ytick_2">
     <g id="line2d_25">
      <path d="M 54.691875 475.983264 
L 957.535875 475.983264 
" clip-path="url(#pa4eb23e87c)" style="fill: none; stroke: #ffffff; stroke-width: 0.8; stroke-linecap: square"/>
     </g>
     <g id="line2d_26">
      <g>
       <use xlink:href="#m77bb2422fa" x="54.691875" y="475.983264" style="fill: #555555; stroke: #555555; stroke-width: 0.8"/>
      </g>
     </g>
     <g id="text_14">
      <!-- 100k -->
      <g style="fill: #555555" transform="translate(22.81375 479.782482) scale(0.1 -0.1)">
       <use xlink:href="#DejaVuSans-31"/>
       <use xlink:href="#DejaVuSans-30" x="63.623047"/>
       <use xlink:href="#DejaVuSans-30" x="127.246094"/>
       <use xlink:href="#DejaVuSans-6b" x="190.869141"/>
      </g>
     </g>
    </g>
    <g id="ytick_3">
     <g id="line2d_27">
      <path d="M 54.691875 373.424777 
L 957.535875 373.424777 
" clip-path="url(#pa4eb23e87c)" style="fill: none; stroke: #ffffff; stroke-width: 0.8; stroke-linecap: square"/>
     </g>
     <g id="line2d_28">
      <g>
       <use xlink:href="#m77bb2422fa" x="54.691875" y="373.424777" style="fill: #555555; stroke: #555555; stroke-width: 0.8"/>
      </g>
     </g>
     <g id="text_15">
      <!-- 200k -->
      <g style="fill: #555555" transform="translate(22.81375 377.223996) scale(0.1 -0.1)">
       <use xlink:href="#DejaVuSans-32"/>
       <use xlink:href="#DejaVuSans-30" x="63.623047"/>
       <use xlink:href="#DejaVuSans-30" x="127.246094"/>
       <use xlink:href="#DejaVuSans-6b" x="190.869141"/>
      </g>
     </g>
    </g>
    <g id="ytick_4">
     <g id="line2d_29">
      <path d="M 54.691875 270.866291 
L 957.535875 270.866291 
" clip-path="url(#pa4eb23e87c)" style="fill: none; stroke: #ffffff; stroke-width: 0.8; stroke-linecap: square"/>
     </g>
     <g id="line2d_30">
      <g>
       <use xlink:href="#m77bb2422fa" x="54.691875" y="270.866291" style="fill: #555555; stroke: #555555; stroke-width: 0.8"/>
      </g>
     </g>
     <g id="text_16">
      <!-- 300k -->
      <g style="fill: #555555" transform="translate(22.81375 274.665509) scale(0.1 -0.1)">
       <use xlink:href="#DejaVuSans-33"/>
       <use xlink:href="#DejaVuSans-30" x="63.623047"/>
       <use xlink:href="#DejaVuSans-30" x="127.246094"/>
       <use xlink:href="#DejaVuSans-6b" x="190.869141"/>
      </g>
     </g>
    </g>
    <g id="ytick_5">
     <g id="line2d_31">
      <path d="M 54.691875 168.307804 
L 957.535875 168.307804 
" clip-path="url(#pa4eb23e87c)" style="fill: none; stroke: #ffffff; stroke-width: 0.8; stroke-linecap: square"/>
     </g>
     <g id="line2d_32">
      <g>
       <use xlink:href="#m77bb2422fa" x="54.691875" y="168.307804" style="fill: #555555; stroke: #555555; stroke-width: 0.8"/>
      </g>
     </g>
     <g id="text_17">
      <!-- 400k -->
      <g style="fill: #555555" transform="translate(22.81375 172.107023) scale(0.1 -0.1)">
       <use xlink:href="#DejaVuSans-34"/>
       <use xlink:href="#DejaVuSans-30" x="63.623047"/>
       <use xlink:href="#DejaVuSans-30" x="127.246094"/>
       <use xlink:href="#DejaVuSans-6b" x="190.869141"/>
      </g>
     </g>
    </g>
    <g id="ytick_6">
     <g id="line2d_33">
      <path d="M 54.691875 65.749318 
L 957.535875 65.749318 
" clip-path="url(#pa4eb23e87c)" style="fill: none; stroke: #ffffff; stroke-width: 0.8; stroke-linecap: square"/>
     </g>
     <g id="line2d_34">
      <g>
       <use xlink:href="#m77bb2422fa" x="54.691875" y="65.749318" style="fill: #555555; stroke: #555555; stroke-width: 0.8"/>
      </g>
     </g>
     <g id="text_18">
      <!-- 500k -->
      <g style="fill: #555555" transform="translate(22.81375 69.548536) scale(0.1 -0.1)">
       <use xlink:href="#DejaVuSans-35"/>
       <use xlink:href="#DejaVuSans-30" x="63.623047"/>
       <use xlink:href="#DejaVuSans-30" x="127.246094"/>
       <use xlink:href="#DejaVuSans-6b" x="190.869141"/>
      </g>
     </g>
    </g>
    <g id="text_19">
     <!-- Instances -->
     <g style="fill: #555555" transform="translate(16.318125 329.988) rotate(-90) scale(0.12 -0.12)">
      <defs>
       <path id="DejaVuSans-49" d="M 628 4666 
L 1259 4666 
L 1259 0 
L 628 0 
L 628 4666 
z
" transform="scale(0.015625)"/>
       <path id="DejaVuSans-6e" d="M 3513 2113 
L 3513 0 
L 2938 0 
L 2938 2094 
Q 2938 2591 2744 2837 
Q 2550 3084 2163 3084 
Q 1697 3084 1428 2787 
Q 1159 2491 1159 1978 
L 1159 0 
L 581 0 
L 581 3500 
L 1159 3500 
L 1159 2956 
Q 1366 3272 1645 3428 
Q 1925 3584 2291 3584 
Q 2894 3584 3203 3211 
Q 3513 2838 3513 2113 
z
" transform="scale(0.015625)"/>
       <path id="DejaVuSans-73" d="M 2834 3397 
L 2834 2853 
Q 2591 2978 2328 3040 
Q 2066 3103 1784 3103 
Q 1356 3103 1142 2972 
Q 928 2841 928 2578 
Q 928 2378 1081 2264 
Q 1234 2150 1697 2047 
L 1894 2003 
Q 2506 1872 2764 1633 
Q 3022 1394 3022 966 
Q 3022 478 2636 193 
Q 2250 -91 1575 -91 
Q 1294 -91 989 -36 
Q 684 19 347 128 
L 347 722 
Q 666 556 975 473 
Q 1284 391 1588 391 
Q 1994 391 2212 530 
Q 2431 669 2431 922 
Q 2431 1156 2273 1281 
Q 2116 1406 1581 1522 
L 1381 1569 
Q 847 1681 609 1914 
Q 372 2147 372 2553 
Q 372 3047 722 3315 
Q 1072 3584 1716 3584 
Q 2034 3584 2315 3537 
Q 2597 3491 2834 3397 
z
" transform="scale(0.015625)"/>
       <path id="DejaVuSans-63" d="M 3122 3366 
L 3122 2828 
Q 2878 2963 2633 3030 
Q 2388 3097 2138 3097 
Q 1578 3097 1268 2742 
Q 959 2388 959 1747 
Q 959 1106 1268 751 
Q 1578 397 2138 397 
Q 2388 397 2633 464 
Q 2878 531 3122 666 
L 3122 134 
Q 2881 22 2623 -34 
Q 2366 -91 2075 -91 
Q 1284 -91 818 406 
Q 353 903 353 1747 
Q 353 2603 823 3093 
Q 1294 3584 2113 3584 
Q 2378 3584 2631 3529 
Q 2884 3475 3122 3366 
z
" transform="scale(0.015625)"/>
      </defs>
      <use xlink:href="#DejaVuSans-49"/>
      <use xlink:href="#DejaVuSans-6e" x="29.492188"/>
      <use xlink:href="#DejaVuSans-73" x="92.871094"/>
      <use xlink:href="#DejaVuSans-74" x="144.970703"/>
      <use xlink:href="#DejaVuSans-61" x="184.179688"/>
      <use xlink:href="#DejaVuSans-6e" x="245.458984"/>
      <use xlink:href="#DejaVuSans-63" x="308.837891"/>
      <use xlink:href="#DejaVuSans-65" x="363.818359"/>
      <use xlink:href="#DejaVuSans-73" x="425.341797"/>
     </g>
    </g>
   </g>
   <g id="line2d_35">
    <path d="M 54.691875 482.012079 
L 63.811511 481.191308 
L 72.931148 480.370538 
L 82.050784 479.549767 
L 91.17042 478.728996 
L 100.290057 477.908226 
L 109.409693 477.087455 
L 118.52933 476.266684 
L 127.648966 475.445914 
L 136.768602 474.625143 
L 145.888239 473.804372 
L 155.007875 472.983602 
L 164.127511 472.162831 
L 173.247148 471.342061 
L 182.366784 470.52129 
L 191.48642 469.700519 
L 200.606057 468.879749 
L 209.725693 468.058978 
L 218.84533 467.238207 
L 227.964966 466.417437 
L 237.084602 465.596666 
L 246.204239 464.775895 
L 255.323875 463.955125 
L 264.443511 463.134354 
L 273.563148 462.313583 
L 282.682784 461.492813 
L 291.80242 460.672042 
L 300.922057 459.851271 
L 310.041693 459.030501 
L 319.16133 458.20973 
L 328.280966 457.388959 
L 337.400602 456.568189 
L 346.520239 455.747418 
L 355.639875 454.926647 
L 364.759511 454.105877 
L 373.879148 453.285106 
L 382.998784 452.464335 
L 392.11842 451.643565 
L 401.238057 450.822794 
L 410.357693 450.002023 
L 419.47733 449.181253 
L 428.596966 448.360482 
L 437.716602 447.539711 
L 446.836239 446.718941 
L 455.955875 445.89817 
L 465.075511 445.077399 
L 474.195148 444.256629 
L 483.314784 443.435858 
L 492.43442 442.615087 
L 501.554057 441.794317 
L 510.673693 440.973546 
L 519.79333 440.152775 
L 528.912966 439.332005 
L 538.032602 438.511234 
L 547.152239 437.690463 
L 556.271875 436.869693 
L 565.391511 436.048922 
L 574.511148 435.228152 
L 583.630784 434.407381 
L 592.75042 433.58661 
L 601.870057 432.76584 
L 610.989693 431.945069 
L 620.10933 431.124298 
L 629.228966 430.303528 
L 638.348602 429.482757 
L 647.468239 428.661986 
L 656.587875 427.841216 
L 665.707511 427.020445 
L 674.827148 426.199674 
L 683.946784 425.378904 
L 693.06642 424.558133 
L 702.186057 423.737362 
L 711.305693 422.916592 
L 720.42533 422.095821 
L 729.544966 421.27505 
L 738.664602 420.45428 
L 747.784239 419.633509 
L 756.903875 418.812738 
L 766.023511 417.991968 
L 775.143148 417.171197 
L 784.262784 416.350426 
L 793.38242 415.529656 
L 802.502057 414.708885 
L 811.621693 413.888114 
L 820.74133 413.067344 
L 829.860966 412.246573 
L 838.980602 411.425802 
L 848.100239 410.605032 
L 857.219875 409.784261 
L 866.339511 408.96349 
L 875.459148 408.14272 
L 884.578784 407.321949 
L 893.69842 406.501178 
L 902.818057 405.680408 
L 911.937693 404.859637 
L 921.05733 404.038866 
L 930.176966 403.218096 
L 939.296602 402.397325 
L 948.416239 401.576554 
L 957.535875 400.755784 
" clip-path="url(#pa4eb23e87c)" style="fill: none; stroke-dasharray: 1.5,2.475; stroke-dashoffset: 0; stroke: #4ac1fa; stroke-width: 1.5"/>
   </g>
   <g id="line2d_36">
    <path d="M 54.691875 537.960249 
L 63.811511 537.178212 
L 72.931148 536.396175 
L 82.050784 535.614138 
L 91.17042 534.832101 
L 100.290057 534.050064 
L 109.409693 533.268027 
L 118.52933 532.48599 
L 127.648966 531.703953 
L 136.768602 530.921916 
L 145.888239 530.139879 
L 155.007875 529.357842 
L 164.127511 528.575805 
L 173.247148 527.793769 
L 182.366784 527.011732 
L 191.48642 526.229695 
L 200.606057 525.447658 
L 209.725693 524.665621 
L 218.84533 523.883584 
L 227.964966 523.101547 
L 237.084602 522.31951 
L 246.204239 521.537473 
L 255.323875 520.755436 
L 264.443511 519.973399 
L 273.563148 519.191362 
L 282.682784 518.409325 
L 291.80242 517.627288 
L 300.922057 516.845251 
L 310.041693 516.063214 
L 319.16133 515.281178 
L 328.280966 514.499141 
L 337.400602 513.717104 
L 346.520239 512.935067 
L 355.639875 512.15303 
L 364.759511 511.370993 
L 373.879148 510.588956 
L 382.998784 509.806919 
L 392.11842 509.024882 
L 401.238057 508.242845 
L 410.357693 507.460808 
L 419.47733 506.678771 
L 428.596966 505.896734 
L 437.716602 505.114697 
L 446.836239 504.33266 
L 455.955875 503.550624 
L 465.075511 502.768587 
L 474.195148 501.98655 
L 483.314784 501.204513 
L 492.43442 500.422476 
L 501.554057 499.640439 
L 510.673693 498.858402 
L 519.79333 498.076365 
L 528.912966 497.294328 
L 538.032602 496.512291 
L 547.152239 495.730254 
L 556.271875 494.948217 
L 565.391511 494.16618 
L 574.511148 493.384143 
L 583.630784 492.602106 
L 592.75042 491.820069 
L 601.870057 491.038033 
L 610.989693 490.255996 
L 620.10933 489.473959 
L 629.228966 488.691922 
L 638.348602 487.909885 
L 647.468239 487.127848 
L 656.587875 486.345811 
L 665.707511 485.563774 
L 674.827148 484.781737 
L 683.946784 483.9997 
L 693.06642 483.217663 
L 702.186057 482.435626 
L 711.305693 481.653589 
L 720.42533 480.871552 
L 729.544966 480.089515 
L 738.664602 479.307478 
L 747.784239 478.525442 
L 756.903875 477.743405 
L 766.023511 476.961368 
L 775.143148 476.179331 
L 784.262784 475.397294 
L 793.38242 474.615257 
L 802.502057 473.83322 
L 811.621693 473.051183 
L 820.74133 472.269146 
L 829.860966 471.487109 
L 838.980602 470.705072 
L 848.100239 469.923035 
L 857.219875 469.140998 
L 866.339511 468.358961 
L 875.459148 467.576924 
L 884.578784 466.794888 
L 893.69842 466.012851 
L 902.818057 465.230814 
L 911.937693 464.448777 
L 921.05733 463.66674 
L 930.176966 462.884703 
L 939.296602 462.102666 
L 948.416239 461.320629 
L 957.535875 460.538592 
" clip-path="url(#pa4eb23e87c)" style="fill: none; stroke-dasharray: 1.5,2.475; stroke-dashoffset: 0; stroke: #e9a942; stroke-width: 1.5"/>
   </g>
   <g id="line2d_37">
    <path d="M 54.691875 506.849492 
L 63.811511 506.9063 
L 72.931148 506.963109 
L 82.050784 507.019917 
L 91.17042 507.076725 
L 100.290057 507.133533 
L 109.409693 507.190342 
L 118.52933 507.24715 
L 127.648966 507.303958 
L 136.768602 507.360766 
L 145.888239 507.417575 
L 155.007875 507.474383 
L 164.127511 507.531191 
L 173.247148 507.587999 
L 182.366784 507.644808 
L 191.48642 507.701616 
L 200.606057 507.758424 
L 209.725693 507.815232 
L 218.84533 507.87204 
L 227.964966 507.928849 
L 237.084602 507.985657 
L 246.204239 508.042465 
L 255.323875 508.099273 
L 264.443511 508.156082 
L 273.563148 508.21289 
L 282.682784 508.269698 
L 291.80242 508.326506 
L 300.922057 508.383315 
L 310.041693 508.440123 
L 319.16133 508.496931 
L 328.280966 508.553739 
L 337.400602 508.610547 
L 346.520239 508.667356 
L 355.639875 508.724164 
L 364.759511 508.780972 
L 373.879148 508.83778 
L 382.998784 508.894589 
L 392.11842 508.951397 
L 401.238057 509.008205 
L 410.357693 509.065013 
L 419.47733 509.121822 
L 428.596966 509.17863 
L 437.716602 509.235438 
L 446.836239 509.292246 
L 455.955875 509.349054 
L 465.075511 509.405863 
L 474.195148 509.462671 
L 483.314784 509.519479 
L 492.43442 509.576287 
L 501.554057 509.633096 
L 510.673693 509.689904 
L 519.79333 509.746712 
L 528.912966 509.80352 
L 538.032602 509.860329 
L 547.152239 509.917137 
L 556.271875 509.973945 
L 565.391511 510.030753 
L 574.511148 510.087562 
L 583.630784 510.14437 
L 592.75042 510.201178 
L 601.870057 510.257986 
L 610.989693 510.314794 
L 620.10933 510.371603 
L 629.228966 510.428411 
L 638.348602 510.485219 
L 647.468239 510.542027 
L 656.587875 510.598836 
L 665.707511 510.655644 
L 674.827148 510.712452 
L 683.946784 510.76926 
L 693.06642 510.826069 
L 702.186057 510.882877 
L 711.305693 510.939685 
L 720.42533 510.996493 
L 729.544966 511.053301 
L 738.664602 511.11011 
L 747.784239 511.166918 
L 756.903875 511.223726 
L 766.023511 511.280534 
L 775.143148 511.337343 
L 784.262784 511.394151 
L 793.38242 511.450959 
L 802.502057 511.507767 
L 811.621693 511.564576 
L 820.74133 511.621384 
L 829.860966 511.678192 
L 838.980602 511.735 
L 848.100239 511.791808 
L 857.219875 511.848617 
L 866.339511 511.905425 
L 875.459148 511.962233 
L 884.578784 512.019041 
L 893.69842 512.07585 
L 902.818057 512.132658 
L 911.937693 512.189466 
L 921.05733 512.246274 
L 930.176966 512.303083 
L 939.296602 512.359891 
L 948.416239 512.416699 
L 957.535875 512.473507 
" clip-path="url(#pa4eb23e87c)" style="fill: none; stroke-dasharray: 1.5,2.475; stroke-dashoffset: 0; stroke: #9a5689; stroke-width: 1.5"/>
   </g>
   <g id="line2d_38">
    <path d="M 54.691875 533.049808 
L 63.811511 532.884671 
L 72.931148 532.719535 
L 82.050784 532.554398 
L 91.17042 532.389262 
L 100.290057 532.224125 
L 109.409693 532.058989 
L 118.52933 531.893852 
L 127.648966 531.728715 
L 136.768602 531.563579 
L 145.888239 531.398442 
L 155.007875 531.233306 
L 164.127511 531.068169 
L 173.247148 530.903033 
L 182.366784 530.737896 
L 191.48642 530.57276 
L 200.606057 530.407623 
L 209.725693 530.242486 
L 218.84533 530.07735 
L 227.964966 529.912213 
L 237.084602 529.747077 
L 246.204239 529.58194 
L 255.323875 529.416804 
L 264.443511 529.251667 
L 273.563148 529.086531 
L 282.682784 528.921394 
L 291.80242 528.756258 
L 300.922057 528.591121 
L 310.041693 528.425984 
L 319.16133 528.260848 
L 328.280966 528.095711 
L 337.400602 527.930575 
L 346.520239 527.765438 
L 355.639875 527.600302 
L 364.759511 527.435165 
L 373.879148 527.270029 
L 382.998784 527.104892 
L 392.11842 526.939755 
L 401.238057 526.774619 
L 410.357693 526.609482 
L 419.47733 526.444346 
L 428.596966 526.279209 
L 437.716602 526.114073 
L 446.836239 525.948936 
L 455.955875 525.7838 
L 465.075511 525.618663 
L 474.195148 525.453526 
L 483.314784 525.28839 
L 492.43442 525.123253 
L 501.554057 524.958117 
L 510.673693 524.79298 
L 519.79333 524.627844 
L 528.912966 524.462707 
L 538.032602 524.297571 
L 547.152239 524.132434 
L 556.271875 523.967297 
L 565.391511 523.802161 
L 574.511148 523.637024 
L 583.630784 523.471888 
L 592.75042 523.306751 
L 601.870057 523.141615 
L 610.989693 522.976478 
L 620.10933 522.811342 
L 629.228966 522.646205 
L 638.348602 522.481068 
L 647.468239 522.315932 
L 656.587875 522.150795 
L 665.707511 521.985659 
L 674.827148 521.820522 
L 683.946784 521.655386 
L 693.06642 521.490249 
L 702.186057 521.325113 
L 711.305693 521.159976 
L 720.42533 520.994839 
L 729.544966 520.829703 
L 738.664602 520.664566 
L 747.784239 520.49943 
L 756.903875 520.334293 
L 766.023511 520.169157 
L 775.143148 520.00402 
L 784.262784 519.838884 
L 793.38242 519.673747 
L 802.502057 519.50861 
L 811.621693 519.343474 
L 820.74133 519.178337 
L 829.860966 519.013201 
L 838.980602 518.848064 
L 848.100239 518.682928 
L 857.219875 518.517791 
L 866.339511 518.352655 
L 875.459148 518.187518 
L 884.578784 518.022382 
L 893.69842 517.857245 
L 902.818057 517.692108 
L 911.937693 517.526972 
L 921.05733 517.361835 
L 930.176966 517.196699 
L 939.296602 517.031562 
L 948.416239 516.866426 
L 957.535875 516.701289 
" clip-path="url(#pa4eb23e87c)" style="fill: none; stroke-dasharray: 1.5,2.475; stroke-dashoffset: 0; stroke: #be503b; stroke-width: 1.5"/>
   </g>
   <g id="line2d_39">
    <path d="M 54.691875 466.149128 
L 63.811511 465.367768 
L 72.931148 464.586408 
L 82.050784 463.805049 
L 91.17042 463.023689 
L 100.290057 462.242329 
L 109.409693 461.460969 
L 118.52933 460.679609 
L 127.648966 459.898249 
L 136.768602 459.116889 
L 145.888239 458.335529 
L 155.007875 457.554169 
L 164.127511 456.772809 
L 173.247148 455.991449 
L 182.366784 455.210089 
L 191.48642 454.42873 
L 200.606057 453.64737 
L 209.725693 452.86601 
L 218.84533 452.08465 
L 227.964966 451.30329 
L 237.084602 450.52193 
L 246.204239 449.74057 
L 255.323875 448.95921 
L 264.443511 448.17785 
L 273.563148 447.39649 
L 282.682784 446.61513 
L 291.80242 445.83377 
L 300.922057 445.052411 
L 310.041693 444.271051 
L 319.16133 443.489691 
L 328.280966 442.708331 
L 337.400602 441.926971 
L 346.520239 441.145611 
L 355.639875 440.364251 
L 364.759511 439.582891 
L 373.879148 438.801531 
L 382.998784 438.020171 
L 392.11842 437.238811 
L 401.238057 436.457451 
L 410.357693 435.676092 
L 419.47733 434.894732 
L 428.596966 434.113372 
L 437.716602 433.332012 
L 446.836239 432.550652 
L 455.955875 431.769292 
L 465.075511 430.987932 
L 474.195148 430.206572 
L 483.314784 429.425212 
L 492.43442 428.643852 
L 501.554057 427.862492 
L 510.673693 427.081132 
L 519.79333 426.299773 
L 528.912966 425.518413 
L 538.032602 424.737053 
L 547.152239 423.955693 
L 556.271875 423.174333 
L 565.391511 422.392973 
L 574.511148 421.611613 
L 583.630784 420.830253 
L 592.75042 420.048893 
L 601.870057 419.267533 
L 610.989693 418.486173 
L 620.10933 417.704813 
L 629.228966 416.923454 
L 638.348602 416.142094 
L 647.468239 415.360734 
L 656.587875 414.579374 
L 665.707511 413.798014 
L 674.827148 413.016654 
L 683.946784 412.235294 
L 693.06642 411.453934 
L 702.186057 410.672574 
L 711.305693 409.891214 
L 720.42533 409.109854 
L 729.544966 408.328495 
L 738.664602 407.547135 
L 747.784239 406.765775 
L 756.903875 405.984415 
L 766.023511 405.203055 
L 775.143148 404.421695 
L 784.262784 403.640335 
L 793.38242 402.858975 
L 802.502057 402.077615 
L 811.621693 401.296255 
L 820.74133 400.514895 
L 829.860966 399.733535 
L 838.980602 398.952176 
L 848.100239 398.170816 
L 857.219875 397.389456 
L 866.339511 396.608096 
L 875.459148 395.826736 
L 884.578784 395.045376 
L 893.69842 394.264016 
L 902.818057 393.482656 
L 911.937693 392.701296 
L 921.05733 391.919936 
L 930.176966 391.138576 
L 939.296602 390.357216 
L 948.416239 389.575857 
L 957.535875 388.794497 
" clip-path="url(#pa4eb23e87c)" style="fill: none; stroke-dasharray: 1.5,2.475; stroke-dashoffset: 0; stroke: #e2321d; stroke-width: 1.5"/>
   </g>
   <g id="line2d_40">
    <path d="M 54.691875 418.704278 
L 63.811511 415.651399 
L 72.931148 412.598519 
L 82.050784 409.545639 
L 91.17042 406.49276 
L 100.290057 403.43988 
L 109.409693 400.387 
L 118.52933 397.33412 
L 127.648966 394.281241 
L 136.768602 391.228361 
L 145.888239 388.175481 
L 155.007875 385.122601 
L 164.127511 382.069722 
L 173.247148 379.016842 
L 182.366784 375.963962 
L 191.48642 372.911082 
L 200.606057 369.858203 
L 209.725693 366.805323 
L 218.84533 363.752443 
L 227.964966 360.699564 
L 237.084602 357.646684 
L 246.204239 354.593804 
L 255.323875 351.540924 
L 264.443511 348.488045 
L 273.563148 345.435165 
L 282.682784 342.382285 
L 291.80242 339.329405 
L 300.922057 336.276526 
L 310.041693 333.223646 
L 319.16133 330.170766 
L 328.280966 327.117886 
L 337.400602 324.065007 
L 346.520239 321.012127 
L 355.639875 317.959247 
L 364.759511 314.906368 
L 373.879148 311.853488 
L 382.998784 308.800608 
L 392.11842 305.747728 
L 401.238057 302.694849 
L 410.357693 299.641969 
L 419.47733 296.589089 
L 428.596966 293.536209 
L 437.716602 290.48333 
L 446.836239 287.43045 
L 455.955875 284.37757 
L 465.075511 281.32469 
L 474.195148 278.271811 
L 483.314784 275.218931 
L 492.43442 272.166051 
L 501.554057 269.113172 
L 510.673693 266.060292 
L 519.79333 263.007412 
L 528.912966 259.954532 
L 538.032602 256.901653 
L 547.152239 253.848773 
L 556.271875 250.795893 
L 565.391511 247.743013 
L 574.511148 244.690134 
L 583.630784 241.637254 
L 592.75042 238.584374 
L 601.870057 235.531494 
L 610.989693 232.478615 
L 620.10933 229.425735 
L 629.228966 226.372855 
L 638.348602 223.319976 
L 647.468239 220.267096 
L 656.587875 217.214216 
L 665.707511 214.161336 
L 674.827148 211.108457 
L 683.946784 208.055577 
L 693.06642 205.002697 
L 702.186057 201.949817 
L 711.305693 198.896938 
L 720.42533 195.844058 
L 729.544966 192.791178 
L 738.664602 189.738298 
L 747.784239 186.685419 
L 756.903875 183.632539 
L 766.023511 180.579659 
L 775.143148 177.52678 
L 784.262784 174.4739 
L 793.38242 171.42102 
L 802.502057 168.36814 
L 811.621693 165.315261 
L 820.74133 162.262381 
L 829.860966 159.209501 
L 838.980602 156.156621 
L 848.100239 153.103742 
L 857.219875 150.050862 
L 866.339511 146.997982 
L 875.459148 143.945102 
L 884.578784 140.892223 
L 893.69842 137.839343 
L 902.818057 134.786463 
L 911.937693 131.733584 
L 921.05733 128.680704 
L 930.176966 125.627824 
L 939.296602 122.574944 
L 948.416239 119.522065 
L 957.535875 116.469185 
" clip-path="url(#pa4eb23e87c)" style="fill: none; stroke-dasharray: 1.5,2.475; stroke-dashoffset: 0; stroke: #48b585; stroke-width: 1.5"/>
   </g>
   <g id="line2d_41">
    <path d="M 54.691875 433.078946 
L 72.748755 431.329299 
L 90.805635 478.194425 
L 108.862515 437.045909 
L 126.919395 436.740284 
L 144.976275 465.629984 
L 163.033155 469.022619 
L 181.090035 489.711743 
L 199.146915 476.430419 
L 217.203795 475.874552 
L 235.260675 481.986012 
L 253.317555 482.008575 
L 271.374435 493.6264 
L 289.431315 492.002899 
L 307.488195 485.131481 
L 325.545075 497.617976 
L 343.601955 488.164135 
L 361.658835 489.587647 
L 379.715715 453.532185 
L 397.772595 447.006389 
L 415.829475 442.553299 
L 433.886355 446.1049 
L 451.943235 478.57184 
L 470.000115 444.583957 
L 488.056995 446.636153 
L 506.113875 459.025218 
L 524.170755 444.813688 
L 542.227635 443.748106 
L 560.284515 422.776946 
L 578.341395 422.563625 
L 596.398275 409.255636 
L 614.455155 406.32554 
L 632.512035 412.729291 
L 650.568915 428.15819 
L 668.625795 400.620211 
L 686.682675 428.172548 
L 704.739555 412.719036 
L 722.796435 427.0803 
L 740.853315 433.23381 
L 758.910195 433.633788 
L 776.967075 427.114145 
L 795.023955 415.271716 
L 813.080835 415.325047 
L 831.137715 385.85384 
L 849.194595 404.788188 
L 867.251475 412.192911 
L 885.308355 425.804473 
L 903.365235 399.07568 
L 921.422115 410.95503 
L 939.478995 383.414999 
L 957.535875 383.756519 
" clip-path="url(#pa4eb23e87c)" style="fill: none; stroke: #4ac1fa; stroke-width: 1.5; stroke-linecap: square"/>
   </g>
   <g id="line2d_42">
    <path d="M 54.691875 536.197402 
L 72.748755 545.621501 
L 90.805635 547.984449 
L 108.862515 543.928261 
L 126.919395 535.460007 
L 144.976275 532.109421 
L 163.033155 535.294887 
L 181.090035 532.421199 
L 199.146915 528.470646 
L 217.203795 534.796453 
L 235.260675 522.74378 
L 253.317555 518.760408 
L 271.374435 518.006603 
L 289.431315 508.806082 
L 307.488195 517.079475 
L 325.545075 514.376033 
L 343.601955 514.453977 
L 361.658835 510.933145 
L 379.715715 513.726838 
L 397.772595 516.490789 
L 415.829475 508.449178 
L 433.886355 509.195804 
L 451.943235 497.019035 
L 470.000115 479.68665 
L 488.056995 473.700312 
L 506.113875 490.703483 
L 524.170755 492.507487 
L 542.227635 494.558657 
L 560.284515 466.49045 
L 578.341395 475.255098 
L 596.398275 489.226641 
L 614.455155 495.921659 
L 632.512035 480.753259 
L 650.568915 480.259952 
L 668.625795 475.200742 
L 686.682675 487.978504 
L 704.739555 466.939656 
L 722.796435 497.575927 
L 740.853315 489.328174 
L 758.910195 480.895815 
L 776.967075 479.766646 
L 795.023955 470.498436 
L 813.080835 460.418988 
L 831.137715 466.581727 
L 849.194595 471.682986 
L 867.251475 483.418754 
L 885.308355 477.463183 
L 903.365235 479.514352 
L 921.422115 473.783384 
L 939.478995 471.917845 
L 957.535875 467.3663 
" clip-path="url(#pa4eb23e87c)" style="fill: none; stroke: #e9a942; stroke-width: 1.5; stroke-linecap: square"/>
   </g>
   <g id="line2d_43">
    <path d="M 54.691875 510.693158 
L 72.748755 518.589136 
L 90.805635 531.352539 
L 108.862515 523.916023 
L 126.919395 515.468281 
L 144.976275 515.130863 
L 163.033155 509.473737 
L 181.090035 514.371931 
L 199.146915 512.631513 
L 217.203795 513.203789 
L 235.260675 518.710155 
L 253.317555 517.073321 
L 271.374435 493.452051 
L 289.431315 474.473603 
L 307.488195 473.314692 
L 325.545075 488.58565 
L 343.601955 497.407731 
L 361.658835 496.086778 
L 379.715715 490.332221 
L 397.772595 491.039875 
L 415.829475 497.300045 
L 433.886355 491.495235 
L 451.943235 502.387971 
L 470.000115 516.060043 
L 488.056995 512.528955 
L 506.113875 531.994555 
L 524.170755 524.521118 
L 542.227635 514.806779 
L 560.284515 524.515991 
L 578.341395 521.970489 
L 596.398275 515.08984 
L 614.455155 509.587577 
L 632.512035 505.075004 
L 650.568915 509.32913 
L 668.625795 506.82978 
L 686.682675 511.738229 
L 704.739555 509.850127 
L 722.796435 504.106852 
L 740.853315 514.948309 
L 758.910195 511.445937 
L 776.967075 511.100315 
L 795.023955 508.438922 
L 813.080835 515.585198 
L 831.137715 513.245838 
L 849.194595 511.726947 
L 867.251475 513.954518 
L 885.308355 516.057992 
L 903.365235 516.528736 
L 921.422115 513.952466 
L 939.478995 515.166759 
L 957.535875 516.089785 
" clip-path="url(#pa4eb23e87c)" style="fill: none; stroke: #9a5689; stroke-width: 1.5; stroke-linecap: square"/>
   </g>
   <g id="line2d_44">
    <path d="M 54.691875 527.421472 
L 72.748755 533.027319 
L 90.805635 545.971226 
L 108.862515 535.846652 
L 126.919395 534.77389 
L 144.976275 537.768598 
L 163.033155 523.117093 
L 181.090035 541.047393 
L 199.146915 536.630199 
L 217.203795 535.96562 
L 235.260675 527.284044 
L 253.317555 534.475445 
L 271.374435 526.95278 
L 289.431315 523.712958 
L 307.488195 530.551557 
L 325.545075 528.901391 
L 343.601955 532.036604 
L 361.658835 504.275048 
L 379.715715 519.24551 
L 397.772595 529.541356 
L 415.829475 515.346236 
L 433.886355 523.782697 
L 451.943235 521.127458 
L 470.000115 514.595508 
L 488.056995 531.92379 
L 506.113875 514.264244 
L 524.170755 523.0853 
L 542.227635 519.261919 
L 560.284515 518.718359 
L 578.341395 534.018034 
L 596.398275 528.262452 
L 614.455155 517.138959 
L 632.512035 518.445554 
L 650.568915 525.054423 
L 668.625795 523.883205 
L 686.682675 524.250364 
L 704.739555 519.25474 
L 722.796435 526.927141 
L 740.853315 519.941882 
L 758.910195 521.50795 
L 776.967075 523.811414 
L 795.023955 516.047736 
L 813.080835 527.341477 
L 831.137715 521.878186 
L 849.194595 527.615308 
L 867.251475 525.265693 
L 885.308355 516.045685 
L 903.365235 511.502344 
L 921.422115 519.709074 
L 939.478995 522.842236 
L 957.535875 507.257448 
" clip-path="url(#pa4eb23e87c)" style="fill: none; stroke: #be503b; stroke-width: 1.5; stroke-linecap: square"/>
   </g>
   <g id="line2d_45">
    <path d="M 54.691875 453.004009 
L 72.748755 468.643153 
L 90.805635 504.991931 
L 108.862515 490.823477 
L 126.919395 469.694377 
L 144.976275 459.545189 
L 163.033155 460.991264 
L 181.090035 453.798837 
L 199.146915 456.808929 
L 217.203795 451.169238 
L 235.260675 448.909874 
L 253.317555 448.644248 
L 271.374435 429.961168 
L 289.431315 439.58218 
L 307.488195 436.981297 
L 325.545075 444.528576 
L 343.601955 443.10609 
L 361.658835 432.44616 
L 379.715715 428.169472 
L 397.772595 431.242124 
L 415.829475 447.472004 
L 433.886355 434.781417 
L 451.943235 434.773213 
L 470.000115 439.175023 
L 488.056995 432.984593 
L 506.113875 431.722098 
L 524.170755 410.585819 
L 542.227635 263.791806 
L 560.284515 421.806743 
L 578.341395 433.310728 
L 596.398275 431.417499 
L 614.455155 429.81451 
L 632.512035 426.305984 
L 650.568915 412.048303 
L 668.625795 427.325415 
L 686.682675 399.064399 
L 704.739555 417.81209 
L 722.796435 415.349661 
L 740.853315 415.567085 
L 758.910195 409.894575 
L 776.967075 408.254665 
L 795.023955 405.432255 
L 813.080835 415.553752 
L 831.137715 411.882158 
L 849.194595 398.063428 
L 867.251475 375.120069 
L 885.308355 406.812692 
L 903.365235 402.384217 
L 921.422115 396.011233 
L 939.478995 395.14769 
L 957.535875 398.35572 
" clip-path="url(#pa4eb23e87c)" style="fill: none; stroke: #e2321d; stroke-width: 1.5; stroke-linecap: square"/>
   </g>
   <g id="line2d_46">
    <path d="M 54.691875 413.77026 
L 72.748755 395.179483 
L 90.805635 439.248865 
L 108.862515 395.579461 
L 126.919395 387.327606 
L 144.976275 373.820653 
L 163.033155 338.610273 
L 181.090035 327.218077 
L 199.146915 360.420361 
L 217.203795 347.788232 
L 235.260675 313.56344 
L 253.317555 314.1511 
L 271.374435 301.706653 
L 289.431315 311.773794 
L 307.488195 259.230005 
L 325.545075 330.350213 
L 343.601955 272.116479 
L 361.658835 307.070462 
L 379.715715 293.402492 
L 397.772595 318.46471 
L 415.829475 352.835135 
L 433.886355 334.314098 
L 451.943235 337.756987 
L 470.000115 320.539468 
L 488.056995 328.387243 
L 506.113875 319.75387 
L 524.170755 313.083466 
L 542.227635 320.852271 
L 560.284515 308.957538 
L 578.341395 313.390116 
L 596.398275 285.316781 
L 614.455155 270.398624 
L 632.512035 220.45059 
L 650.568915 262.130359 
L 668.625795 250.975072 
L 686.682675 225.767222 
L 704.739555 264.536381 
L 722.796435 191.220396 
L 740.853315 233.168868 
L 758.910195 212.640761 
L 776.967075 180.61072 
L 795.023955 165.734612 
L 813.080835 124.725575 
L 831.137715 95.966125 
L 849.194595 92.902703 
L 867.251475 92.712969 
L 885.308355 49.08664 
L 903.365235 77.00306 
L 921.422115 102.825236 
L 939.478995 83.555522 
L 957.535875 114.532287 
" clip-path="url(#pa4eb23e87c)" style="fill: none; stroke: #48b585; stroke-width: 6; stroke-linecap: square"/>
   </g>
   <g id="patch_3">
    <path d="M 54.691875 578.54175 
L 54.691875 24.14175 
" style="fill: none; stroke: #ffffff; stroke-linejoin: miter; stroke-linecap: square"/>
   </g>
   <g id="patch_4">
    <path d="M 957.535875 578.54175 
L 957.535875 24.14175 
" style="fill: none; stroke: #ffffff; stroke-linejoin: miter; stroke-linecap: square"/>
   </g>
   <g id="patch_5">
    <path d="M 54.691875 578.54175 
L 957.535875 578.54175 
" style="fill: none; stroke: #ffffff; stroke-linejoin: miter; stroke-linecap: square"/>
   </g>
   <g id="patch_6">
    <path d="M 54.691875 24.14175 
L 957.535875 24.14175 
" style="fill: none; stroke: #ffffff; stroke-linejoin: miter; stroke-linecap: square"/>
   </g>
   <g id="text_20">
    <!-- Potentially Ephemeral Enterprise Linux 8 and 9 Instances by Distribution -->
    <g transform="translate(54.691875 18.14175) scale(0.144 -0.144)">
     <defs>
      <path id="DejaVuSans-50" d="M 1259 4147 
L 1259 2394 
L 2053 2394 
Q 2494 2394 2734 2622 
Q 2975 2850 2975 3272 
Q 2975 3691 2734 3919 
Q 2494 4147 2053 4147 
L 1259 4147 
z
M 628 4666 
L 2053 4666 
Q 2838 4666 3239 4311 
Q 3641 3956 3641 3272 
Q 3641 2581 3239 2228 
Q 2838 1875 2053 1875 
L 1259 1875 
L 1259 0 
L 628 0 
L 628 4666 
z
" transform="scale(0.015625)"/>
      <path id="DejaVuSans-6f" d="M 1959 3097 
Q 1497 3097 1228 2736 
Q 959 2375 959 1747 
Q 959 1119 1226 758 
Q 1494 397 1959 397 
Q 2419 397 2687 759 
Q 2956 1122 2956 1747 
Q 2956 2369 2687 2733 
Q 2419 3097 1959 3097 
z
M 1959 3584 
Q 2709 3584 3137 3096 
Q 3566 2609 3566 1747 
Q 3566 888 3137 398 
Q 2709 -91 1959 -91 
Q 1206 -91 779 398 
Q 353 888 353 1747 
Q 353 2609 779 3096 
Q 1206 3584 1959 3584 
z
" transform="scale(0.015625)"/>
      <path id="DejaVuSans-69" d="M 603 3500 
L 1178 3500 
L 1178 0 
L 603 0 
L 603 3500 
z
M 603 4863 
L 1178 4863 
L 1178 4134 
L 603 4134 
L 603 4863 
z
" transform="scale(0.015625)"/>
      <path id="DejaVuSans-6c" d="M 603 4863 
L 1178 4863 
L 1178 0 
L 603 0 
L 603 4863 
z
" transform="scale(0.015625)"/>
      <path id="DejaVuSans-79" d="M 2059 -325 
Q 1816 -950 1584 -1140 
Q 1353 -1331 966 -1331 
L 506 -1331 
L 506 -850 
L 844 -850 
Q 1081 -850 1212 -737 
Q 1344 -625 1503 -206 
L 1606 56 
L 191 3500 
L 800 3500 
L 1894 763 
L 2988 3500 
L 3597 3500 
L 2059 -325 
z
" transform="scale(0.015625)"/>
      <path id="DejaVuSans-20" transform="scale(0.015625)"/>
      <path id="DejaVuSans-45" d="M 628 4666 
L 3578 4666 
L 3578 4134 
L 1259 4134 
L 1259 2753 
L 3481 2753 
L 3481 2222 
L 1259 2222 
L 1259 531 
L 3634 531 
L 3634 0 
L 628 0 
L 628 4666 
z
" transform="scale(0.015625)"/>
      <path id="DejaVuSans-70" d="M 1159 525 
L 1159 -1331 
L 581 -1331 
L 581 3500 
L 1159 3500 
L 1159 2969 
Q 1341 3281 1617 3432 
Q 1894 3584 2278 3584 
Q 2916 3584 3314 3078 
Q 3713 2572 3713 1747 
Q 3713 922 3314 415 
Q 2916 -91 2278 -91 
Q 1894 -91 1617 61 
Q 1341 213 1159 525 
z
M 3116 1747 
Q 3116 2381 2855 2742 
Q 2594 3103 2138 3103 
Q 1681 3103 1420 2742 
Q 1159 2381 1159 1747 
Q 1159 1113 1420 752 
Q 1681 391 2138 391 
Q 2594 391 2855 752 
Q 3116 1113 3116 1747 
z
" transform="scale(0.015625)"/>
      <path id="DejaVuSans-68" d="M 3513 2113 
L 3513 0 
L 2938 0 
L 2938 2094 
Q 2938 2591 2744 2837 
Q 2550 3084 2163 3084 
Q 1697 3084 1428 2787 
Q 1159 2491 1159 1978 
L 1159 0 
L 581 0 
L 581 4863 
L 1159 4863 
L 1159 2956 
Q 1366 3272 1645 3428 
Q 1925 3584 2291 3584 
Q 2894 3584 3203 3211 
Q 3513 2838 3513 2113 
z
" transform="scale(0.015625)"/>
      <path id="DejaVuSans-6d" d="M 3328 2828 
Q 3544 3216 3844 3400 
Q 4144 3584 4550 3584 
Q 5097 3584 5394 3201 
Q 5691 2819 5691 2113 
L 5691 0 
L 5113 0 
L 5113 2094 
Q 5113 2597 4934 2840 
Q 4756 3084 4391 3084 
Q 3944 3084 3684 2787 
Q 3425 2491 3425 1978 
L 3425 0 
L 2847 0 
L 2847 2094 
Q 2847 2600 2669 2842 
Q 2491 3084 2119 3084 
Q 1678 3084 1418 2786 
Q 1159 2488 1159 1978 
L 1159 0 
L 581 0 
L 581 3500 
L 1159 3500 
L 1159 2956 
Q 1356 3278 1631 3431 
Q 1906 3584 2284 3584 
Q 2666 3584 2933 3390 
Q 3200 3197 3328 2828 
z
" transform="scale(0.015625)"/>
      <path id="DejaVuSans-72" d="M 2631 2963 
Q 2534 3019 2420 3045 
Q 2306 3072 2169 3072 
Q 1681 3072 1420 2755 
Q 1159 2438 1159 1844 
L 1159 0 
L 581 0 
L 581 3500 
L 1159 3500 
L 1159 2956 
Q 1341 3275 1631 3429 
Q 1922 3584 2338 3584 
Q 2397 3584 2469 3576 
Q 2541 3569 2628 3553 
L 2631 2963 
z
" transform="scale(0.015625)"/>
      <path id="DejaVuSans-4c" d="M 628 4666 
L 1259 4666 
L 1259 531 
L 3531 531 
L 3531 0 
L 628 0 
L 628 4666 
z
" transform="scale(0.015625)"/>
      <path id="DejaVuSans-75" d="M 544 1381 
L 544 3500 
L 1119 3500 
L 1119 1403 
Q 1119 906 1312 657 
Q 1506 409 1894 409 
Q 2359 409 2629 706 
Q 2900 1003 2900 1516 
L 2900 3500 
L 3475 3500 
L 3475 0 
L 2900 0 
L 2900 538 
Q 2691 219 2414 64 
Q 2138 -91 1772 -91 
Q 1169 -91 856 284 
Q 544 659 544 1381 
z
M 1991 3584 
L 1991 3584 
z
" transform="scale(0.015625)"/>
      <path id="DejaVuSans-78" d="M 3513 3500 
L 2247 1797 
L 3578 0 
L 2900 0 
L 1881 1375 
L 863 0 
L 184 0 
L 1544 1831 
L 300 3500 
L 978 3500 
L 1906 2253 
L 2834 3500 
L 3513 3500 
z
" transform="scale(0.015625)"/>
      <path id="DejaVuSans-64" d="M 2906 2969 
L 2906 4863 
L 3481 4863 
L 3481 0 
L 2906 0 
L 2906 525 
Q 2725 213 2448 61 
Q 2172 -91 1784 -91 
Q 1150 -91 751 415 
Q 353 922 353 1747 
Q 353 2572 751 3078 
Q 1150 3584 1784 3584 
Q 2172 3584 2448 3432 
Q 2725 3281 2906 2969 
z
M 947 1747 
Q 947 1113 1208 752 
Q 1469 391 1925 391 
Q 2381 391 2643 752 
Q 2906 1113 2906 1747 
Q 2906 2381 2643 2742 
Q 2381 3103 1925 3103 
Q 1469 3103 1208 2742 
Q 947 2381 947 1747 
z
" transform="scale(0.015625)"/>
      <path id="DejaVuSans-62" d="M 3116 1747 
Q 3116 2381 2855 2742 
Q 2594 3103 2138 3103 
Q 1681 3103 1420 2742 
Q 1159 2381 1159 1747 
Q 1159 1113 1420 752 
Q 1681 391 2138 391 
Q 2594 391 2855 752 
Q 3116 1113 3116 1747 
z
M 1159 2969 
Q 1341 3281 1617 3432 
Q 1894 3584 2278 3584 
Q 2916 3584 3314 3078 
Q 3713 2572 3713 1747 
Q 3713 922 3314 415 
Q 2916 -91 2278 -91 
Q 1894 -91 1617 61 
Q 1341 213 1159 525 
L 1159 0 
L 581 0 
L 581 4863 
L 1159 4863 
L 1159 2969 
z
" transform="scale(0.015625)"/>
     </defs>
     <use xlink:href="#DejaVuSans-50"/>
     <use xlink:href="#DejaVuSans-6f" x="56.677734"/>
     <use xlink:href="#DejaVuSans-74" x="117.859375"/>
     <use xlink:href="#DejaVuSans-65" x="157.068359"/>
     <use xlink:href="#DejaVuSans-6e" x="218.591797"/>
     <use xlink:href="#DejaVuSans-74" x="281.970703"/>
     <use xlink:href="#DejaVuSans-69" x="321.179688"/>
     <use xlink:href="#DejaVuSans-61" x="348.962891"/>
     <use xlink:href="#DejaVuSans-6c" x="410.242188"/>
     <use xlink:href="#DejaVuSans-6c" x="438.025391"/>
     <use xlink:href="#DejaVuSans-79" x="465.808594"/>
     <use xlink:href="#DejaVuSans-20" x="524.988281"/>
     <use xlink:href="#DejaVuSans-45" x="556.775391"/>
     <use xlink:href="#DejaVuSans-70" x="619.958984"/>
     <use xlink:href="#DejaVuSans-68" x="683.435547"/>
     <use xlink:href="#DejaVuSans-65" x="746.814453"/>
     <use xlink:href="#DejaVuSans-6d" x="808.337891"/>
     <use xlink:href="#DejaVuSans-65" x="905.75"/>
     <use xlink:href="#DejaVuSans-72" x="967.273438"/>
     <use xlink:href="#DejaVuSans-61" x="1008.386719"/>
     <use xlink:href="#DejaVuSans-6c" x="1069.666016"/>
     <use xlink:href="#DejaVuSans-20" x="1097.449219"/>
     <use xlink:href="#DejaVuSans-45" x="1129.236328"/>
     <use xlink:href="#DejaVuSans-6e" x="1192.419922"/>
     <use xlink:href="#DejaVuSans-74" x="1255.798828"/>
     <use xlink:href="#DejaVuSans-65" x="1295.007812"/>
     <use xlink:href="#DejaVuSans-72" x="1356.53125"/>
     <use xlink:href="#DejaVuSans-70" x="1397.644531"/>
     <use xlink:href="#DejaVuSans-72" x="1461.121094"/>
     <use xlink:href="#DejaVuSans-69" x="1502.234375"/>
     <use xlink:href="#DejaVuSans-73" x="1530.017578"/>
     <use xlink:href="#DejaVuSans-65" x="1582.117188"/>
     <use xlink:href="#DejaVuSans-20" x="1643.640625"/>
     <use xlink:href="#DejaVuSans-4c" x="1675.427734"/>
     <use xlink:href="#DejaVuSans-69" x="1731.140625"/>
     <use xlink:href="#DejaVuSans-6e" x="1758.923828"/>
     <use xlink:href="#DejaVuSans-75" x="1822.302734"/>
     <use xlink:href="#DejaVuSans-78" x="1885.681641"/>
     <use xlink:href="#DejaVuSans-20" x="1944.861328"/>
     <use xlink:href="#DejaVuSans-38" x="1976.648438"/>
     <use xlink:href="#DejaVuSans-20" x="2040.271484"/>
     <use xlink:href="#DejaVuSans-61" x="2072.058594"/>
     <use xlink:href="#DejaVuSans-6e" x="2133.337891"/>
     <use xlink:href="#DejaVuSans-64" x="2196.716797"/>
     <use xlink:href="#DejaVuSans-20" x="2260.193359"/>
     <use xlink:href="#DejaVuSans-39" x="2291.980469"/>
     <use xlink:href="#DejaVuSans-20" x="2355.603516"/>
     <use xlink:href="#DejaVuSans-49" x="2387.390625"/>
     <use xlink:href="#DejaVuSans-6e" x="2416.882812"/>
     <use xlink:href="#DejaVuSans-73" x="2480.261719"/>
     <use xlink:href="#DejaVuSans-74" x="2532.361328"/>
     <use xlink:href="#DejaVuSans-61" x="2571.570312"/>
     <use xlink:href="#DejaVuSans-6e" x="2632.849609"/>
     <use xlink:href="#DejaVuSans-63" x="2696.228516"/>
     <use xlink:href="#DejaVuSans-65" x="2751.208984"/>
     <use xlink:href="#DejaVuSans-73" x="2812.732422"/>
     <use xlink:href="#DejaVuSans-20" x="2864.832031"/>
     <use xlink:href="#DejaVuSans-62" x="2896.619141"/>
     <use xlink:href="#DejaVuSans-79" x="2960.095703"/>
     <use xlink:href="#DejaVuSans-20" x="3019.275391"/>
     <use xlink:href="#DejaVuSans-44" x="3051.0625"/>
     <use xlink:href="#DejaVuSans-69" x="3128.064453"/>
     <use xlink:href="#DejaVuSans-73" x="3155.847656"/>
     <use xlink:href="#DejaVuSans-74" x="3207.947266"/>
     <use xlink:href="#DejaVuSans-72" x="3247.15625"/>
     <use xlink:href="#DejaVuSans-69" x="3288.269531"/>
     <use xlink:href="#DejaVuSans-62" x="3316.052734"/>
     <use xlink:href="#DejaVuSans-75" x="3379.529297"/>
     <use xlink:href="#DejaVuSans-74" x="3442.908203"/>
     <use xlink:href="#DejaVuSans-69" x="3482.117188"/>
     <use xlink:href="#DejaVuSans-6f" x="3509.900391"/>
     <use xlink:href="#DejaVuSans-6e" x="3571.082031"/>
    </g>
   </g>
   <g id="text_21">
    <!-- 2024-12-12 11:55 UTC -->
    <g transform="translate(794.653875 18.14175) scale(0.144 -0.144)">
     <defs>
      <path id="DejaVuSans-3a" d="M 750 794 
L 1409 794 
L 1409 0 
L 750 0 
L 750 794 
z
M 750 3309 
L 1409 3309 
L 1409 2516 
L 750 2516 
L 750 3309 
z
" transform="scale(0.015625)"/>
      <path id="DejaVuSans-55" d="M 556 4666 
L 1191 4666 
L 1191 1831 
Q 1191 1081 1462 751 
Q 1734 422 2344 422 
Q 2950 422 3222 751 
Q 3494 1081 3494 1831 
L 3494 4666 
L 4128 4666 
L 4128 1753 
Q 4128 841 3676 375 
Q 3225 -91 2344 -91 
Q 1459 -91 1007 375 
Q 556 841 556 1753 
L 556 4666 
z
" transform="scale(0.015625)"/>
      <path id="DejaVuSans-54" d="M -19 4666 
L 3928 4666 
L 3928 4134 
L 2272 4134 
L 2272 0 
L 1638 0 
L 1638 4134 
L -19 4134 
L -19 4666 
z
" transform="scale(0.015625)"/>
      <path id="DejaVuSans-43" d="M 4122 4306 
L 4122 3641 
Q 3803 3938 3442 4084 
Q 3081 4231 2675 4231 
Q 1875 4231 1450 3742 
Q 1025 3253 1025 2328 
Q 1025 1406 1450 917 
Q 1875 428 2675 428 
Q 3081 428 3442 575 
Q 3803 722 4122 1019 
L 4122 359 
Q 3791 134 3420 21 
Q 3050 -91 2638 -91 
Q 1578 -91 968 557 
Q 359 1206 359 2328 
Q 359 3453 968 4101 
Q 1578 4750 2638 4750 
Q 3056 4750 3426 4639 
Q 3797 4528 4122 4306 
z
" transform="scale(0.015625)"/>
     </defs>
     <use xlink:href="#DejaVuSans-32"/>
     <use xlink:href="#DejaVuSans-30" x="63.623047"/>
     <use xlink:href="#DejaVuSans-32" x="127.246094"/>
     <use xlink:href="#DejaVuSans-34" x="190.869141"/>
     <use xlink:href="#DejaVuSans-2d" x="254.492188"/>
     <use xlink:href="#DejaVuSans-31" x="290.576172"/>
     <use xlink:href="#DejaVuSans-32" x="354.199219"/>
     <use xlink:href="#DejaVuSans-2d" x="417.822266"/>
     <use xlink:href="#DejaVuSans-31" x="453.90625"/>
     <use xlink:href="#DejaVuSans-32" x="517.529297"/>
     <use xlink:href="#DejaVuSans-20" x="581.152344"/>
     <use xlink:href="#DejaVuSans-31" x="612.939453"/>
     <use xlink:href="#DejaVuSans-31" x="676.5625"/>
     <use xlink:href="#DejaVuSans-3a" x="740.185547"/>
     <use xlink:href="#DejaVuSans-35" x="773.876953"/>
     <use xlink:href="#DejaVuSans-35" x="837.5"/>
     <use xlink:href="#DejaVuSans-20" x="901.123047"/>
     <use xlink:href="#DejaVuSans-55" x="932.910156"/>
     <use xlink:href="#DejaVuSans-54" x="1006.103516"/>
     <use xlink:href="#DejaVuSans-43" x="1061.3125"/>
    </g>
   </g>
   <g id="legend_1">
    <g id="patch_7">
     <path d="M 61.691875 134.888625 
L 170.660625 134.888625 
Q 172.660625 134.888625 172.660625 132.888625 
L 172.660625 31.14175 
Q 172.660625 29.14175 170.660625 29.14175 
L 61.691875 29.14175 
Q 59.691875 29.14175 59.691875 31.14175 
L 59.691875 132.888625 
Q 59.691875 134.888625 61.691875 134.888625 
z
" style="fill: #e5e5e5; opacity: 0.8; stroke: #cccccc; stroke-width: 0.5; stroke-linejoin: miter"/>
    </g>
    <g id="text_22">
     <!-- Distribution -->
     <g transform="translate(87.0075 40.740188) scale(0.1 -0.1)">
      <use xlink:href="#DejaVuSans-44"/>
      <use xlink:href="#DejaVuSans-69" x="77.001953"/>
      <use xlink:href="#DejaVuSans-73" x="104.785156"/>
      <use xlink:href="#DejaVuSans-74" x="156.884766"/>
      <use xlink:href="#DejaVuSans-72" x="196.09375"/>
      <use xlink:href="#DejaVuSans-69" x="237.207031"/>
      <use xlink:href="#DejaVuSans-62" x="264.990234"/>
      <use xlink:href="#DejaVuSans-75" x="328.466797"/>
      <use xlink:href="#DejaVuSans-74" x="391.845703"/>
      <use xlink:href="#DejaVuSans-69" x="431.054688"/>
      <use xlink:href="#DejaVuSans-6f" x="458.837891"/>
      <use xlink:href="#DejaVuSans-6e" x="520.019531"/>
     </g>
    </g>
    <g id="line2d_47">
     <path d="M 63.691875 51.918313 
L 73.691875 51.918313 
L 83.691875 51.918313 
" style="fill: none; stroke: #4ac1fa; stroke-width: 1.5; stroke-linecap: square"/>
    </g>
    <g id="text_23">
     <!-- AlmaLinux -->
     <g transform="translate(91.691875 55.418313) scale(0.1 -0.1)">
      <defs>
       <path id="DejaVuSans-41" d="M 2188 4044 
L 1331 1722 
L 3047 1722 
L 2188 4044 
z
M 1831 4666 
L 2547 4666 
L 4325 0 
L 3669 0 
L 3244 1197 
L 1141 1197 
L 716 0 
L 50 0 
L 1831 4666 
z
" transform="scale(0.015625)"/>
      </defs>
      <use xlink:href="#DejaVuSans-41"/>
      <use xlink:href="#DejaVuSans-6c" x="68.408203"/>
      <use xlink:href="#DejaVuSans-6d" x="96.191406"/>
      <use xlink:href="#DejaVuSans-61" x="193.603516"/>
      <use xlink:href="#DejaVuSans-4c" x="254.882812"/>
      <use xlink:href="#DejaVuSans-69" x="310.595703"/>
      <use xlink:href="#DejaVuSans-6e" x="338.378906"/>
      <use xlink:href="#DejaVuSans-75" x="401.757812"/>
      <use xlink:href="#DejaVuSans-78" x="465.136719"/>
     </g>
    </g>
    <g id="line2d_48">
     <path d="M 63.691875 66.596438 
L 73.691875 66.596438 
L 83.691875 66.596438 
" style="fill: none; stroke: #e9a942; stroke-width: 1.5; stroke-linecap: square"/>
    </g>
    <g id="text_24">
     <!-- CentOS Legacy -->
     <g transform="translate(91.691875 70.096438) scale(0.1 -0.1)">
      <defs>
       <path id="DejaVuSans-4f" d="M 2522 4238 
Q 1834 4238 1429 3725 
Q 1025 3213 1025 2328 
Q 1025 1447 1429 934 
Q 1834 422 2522 422 
Q 3209 422 3611 934 
Q 4013 1447 4013 2328 
Q 4013 3213 3611 3725 
Q 3209 4238 2522 4238 
z
M 2522 4750 
Q 3503 4750 4090 4092 
Q 4678 3434 4678 2328 
Q 4678 1225 4090 567 
Q 3503 -91 2522 -91 
Q 1538 -91 948 565 
Q 359 1222 359 2328 
Q 359 3434 948 4092 
Q 1538 4750 2522 4750 
z
" transform="scale(0.015625)"/>
       <path id="DejaVuSans-53" d="M 3425 4513 
L 3425 3897 
Q 3066 4069 2747 4153 
Q 2428 4238 2131 4238 
Q 1616 4238 1336 4038 
Q 1056 3838 1056 3469 
Q 1056 3159 1242 3001 
Q 1428 2844 1947 2747 
L 2328 2669 
Q 3034 2534 3370 2195 
Q 3706 1856 3706 1288 
Q 3706 609 3251 259 
Q 2797 -91 1919 -91 
Q 1588 -91 1214 -16 
Q 841 59 441 206 
L 441 856 
Q 825 641 1194 531 
Q 1563 422 1919 422 
Q 2459 422 2753 634 
Q 3047 847 3047 1241 
Q 3047 1584 2836 1778 
Q 2625 1972 2144 2069 
L 1759 2144 
Q 1053 2284 737 2584 
Q 422 2884 422 3419 
Q 422 4038 858 4394 
Q 1294 4750 2059 4750 
Q 2388 4750 2728 4690 
Q 3069 4631 3425 4513 
z
" transform="scale(0.015625)"/>
       <path id="DejaVuSans-67" d="M 2906 1791 
Q 2906 2416 2648 2759 
Q 2391 3103 1925 3103 
Q 1463 3103 1205 2759 
Q 947 2416 947 1791 
Q 947 1169 1205 825 
Q 1463 481 1925 481 
Q 2391 481 2648 825 
Q 2906 1169 2906 1791 
z
M 3481 434 
Q 3481 -459 3084 -895 
Q 2688 -1331 1869 -1331 
Q 1566 -1331 1297 -1286 
Q 1028 -1241 775 -1147 
L 775 -588 
Q 1028 -725 1275 -790 
Q 1522 -856 1778 -856 
Q 2344 -856 2625 -561 
Q 2906 -266 2906 331 
L 2906 616 
Q 2728 306 2450 153 
Q 2172 0 1784 0 
Q 1141 0 747 490 
Q 353 981 353 1791 
Q 353 2603 747 3093 
Q 1141 3584 1784 3584 
Q 2172 3584 2450 3431 
Q 2728 3278 2906 2969 
L 2906 3500 
L 3481 3500 
L 3481 434 
z
" transform="scale(0.015625)"/>
      </defs>
      <use xlink:href="#DejaVuSans-43"/>
      <use xlink:href="#DejaVuSans-65" x="69.824219"/>
      <use xlink:href="#DejaVuSans-6e" x="131.347656"/>
      <use xlink:href="#DejaVuSans-74" x="194.726562"/>
      <use xlink:href="#DejaVuSans-4f" x="233.935547"/>
      <use xlink:href="#DejaVuSans-53" x="312.646484"/>
      <use xlink:href="#DejaVuSans-20" x="376.123047"/>
      <use xlink:href="#DejaVuSans-4c" x="407.910156"/>
      <use xlink:href="#DejaVuSans-65" x="461.873047"/>
      <use xlink:href="#DejaVuSans-67" x="523.396484"/>
      <use xlink:href="#DejaVuSans-61" x="586.873047"/>
      <use xlink:href="#DejaVuSans-63" x="648.152344"/>
      <use xlink:href="#DejaVuSans-79" x="703.132812"/>
     </g>
    </g>
    <g id="line2d_49">
     <path d="M 63.691875 81.274563 
L 73.691875 81.274563 
L 83.691875 81.274563 
" style="fill: none; stroke: #9a5689; stroke-width: 1.5; stroke-linecap: square"/>
    </g>
    <g id="text_25">
     <!-- CentOS Stream -->
     <g transform="translate(91.691875 84.774563) scale(0.1 -0.1)">
      <use xlink:href="#DejaVuSans-43"/>
      <use xlink:href="#DejaVuSans-65" x="69.824219"/>
      <use xlink:href="#DejaVuSans-6e" x="131.347656"/>
      <use xlink:href="#DejaVuSans-74" x="194.726562"/>
      <use xlink:href="#DejaVuSans-4f" x="233.935547"/>
      <use xlink:href="#DejaVuSans-53" x="312.646484"/>
      <use xlink:href="#DejaVuSans-20" x="376.123047"/>
      <use xlink:href="#DejaVuSans-53" x="407.910156"/>
      <use xlink:href="#DejaVuSans-74" x="471.386719"/>
      <use xlink:href="#DejaVuSans-72" x="510.595703"/>
      <use xlink:href="#DejaVuSans-65" x="549.458984"/>
      <use xlink:href="#DejaVuSans-61" x="610.982422"/>
      <use xlink:href="#DejaVuSans-6d" x="672.261719"/>
     </g>
    </g>
    <g id="line2d_50">
     <path d="M 63.691875 95.952688 
L 73.691875 95.952688 
L 83.691875 95.952688 
" style="fill: none; stroke: #be503b; stroke-width: 1.5; stroke-linecap: square"/>
    </g>
    <g id="text_26">
     <!-- Oracle -->
     <g transform="translate(91.691875 99.452688) scale(0.1 -0.1)">
      <use xlink:href="#DejaVuSans-4f"/>
      <use xlink:href="#DejaVuSans-72" x="78.710938"/>
      <use xlink:href="#DejaVuSans-61" x="119.824219"/>
      <use xlink:href="#DejaVuSans-63" x="181.103516"/>
      <use xlink:href="#DejaVuSans-6c" x="236.083984"/>
      <use xlink:href="#DejaVuSans-65" x="263.867188"/>
     </g>
    </g>
    <g id="line2d_51">
     <path d="M 63.691875 110.630813 
L 73.691875 110.630813 
L 83.691875 110.630813 
" style="fill: none; stroke: #e2321d; stroke-width: 1.5; stroke-linecap: square"/>
    </g>
    <g id="text_27">
     <!-- RHEL -->
     <g transform="translate(91.691875 114.130813) scale(0.1 -0.1)">
      <defs>
       <path id="DejaVuSans-52" d="M 2841 2188 
Q 3044 2119 3236 1894 
Q 3428 1669 3622 1275 
L 4263 0 
L 3584 0 
L 2988 1197 
Q 2756 1666 2539 1819 
Q 2322 1972 1947 1972 
L 1259 1972 
L 1259 0 
L 628 0 
L 628 4666 
L 2053 4666 
Q 2853 4666 3247 4331 
Q 3641 3997 3641 3322 
Q 3641 2881 3436 2590 
Q 3231 2300 2841 2188 
z
M 1259 4147 
L 1259 2491 
L 2053 2491 
Q 2509 2491 2742 2702 
Q 2975 2913 2975 3322 
Q 2975 3731 2742 3939 
Q 2509 4147 2053 4147 
L 1259 4147 
z
" transform="scale(0.015625)"/>
       <path id="DejaVuSans-48" d="M 628 4666 
L 1259 4666 
L 1259 2753 
L 3553 2753 
L 3553 4666 
L 4184 4666 
L 4184 0 
L 3553 0 
L 3553 2222 
L 1259 2222 
L 1259 0 
L 628 0 
L 628 4666 
z
" transform="scale(0.015625)"/>
      </defs>
      <use xlink:href="#DejaVuSans-52"/>
      <use xlink:href="#DejaVuSans-48" x="69.482422"/>
      <use xlink:href="#DejaVuSans-45" x="144.677734"/>
      <use xlink:href="#DejaVuSans-4c" x="207.861328"/>
     </g>
    </g>
    <g id="line2d_52">
     <path d="M 63.691875 125.308938 
L 73.691875 125.308938 
L 83.691875 125.308938 
" style="fill: none; stroke: #48b585; stroke-width: 6; stroke-linecap: square"/>
    </g>
    <g id="text_28">
     <!-- Rocky Linux -->
     <g transform="translate(91.691875 128.808938) scale(0.1 -0.1)">
      <use xlink:href="#DejaVuSans-52"/>
      <use xlink:href="#DejaVuSans-6f" x="64.982422"/>
      <use xlink:href="#DejaVuSans-63" x="126.164062"/>
      <use xlink:href="#DejaVuSans-6b" x="181.144531"/>
      <use xlink:href="#DejaVuSans-79" x="235.429688"/>
      <use xlink:href="#DejaVuSans-20" x="294.609375"/>
      <use xlink:href="#DejaVuSans-4c" x="326.396484"/>
      <use xlink:href="#DejaVuSans-69" x="382.109375"/>
      <use xlink:href="#DejaVuSans-6e" x="409.892578"/>
      <use xlink:href="#DejaVuSans-75" x="473.271484"/>
      <use xlink:href="#DejaVuSans-78" x="536.650391"/>
     </g>
    </g>
   </g>
  </g>
 </g>
 <defs>
  <clipPath id="pa4eb23e87c">
   <rect x="54.691875" y="24.14175" width="902.844" height="554.4"/>
  </clipPath>
 </defs>
</svg>
