<?xml version="1.0" encoding="utf-8" standalone="no"?>
<!DOCTYPE svg PUBLIC "-//W3C//DTD SVG 1.1//EN"
  "http://www.w3.org/Graphics/SVG/1.1/DTD/svg11.dtd">
<svg xmlns:xlink="http://www.w3.org/1999/xlink" width="962.123375pt" height="644.743878pt" viewBox="0 0 962.123375 644.743878" xmlns="http://www.w3.org/2000/svg" version="1.1">
 <metadata>
  <rdf:RDF xmlns:dc="http://purl.org/dc/elements/1.1/" xmlns:cc="http://creativecommons.org/ns#" xmlns:rdf="http://www.w3.org/1999/02/22-rdf-syntax-ns#">
   <cc:Work>
    <dc:type rdf:resource="http://purl.org/dc/dcmitype/StillImage"/>
    <dc:date>2025-05-01T11:55:07.605188</dc:date>
    <dc:format>image/svg+xml</dc:format>
    <dc:creator>
     <cc:Agent>
      <dc:title>Matplotlib v3.6.3, https://matplotlib.org/</dc:title>
     </cc:Agent>
    </dc:creator>
   </cc:Work>
  </rdf:RDF>
 </metadata>
 <defs>
  <style type="text/css">*{stroke-linejoin: round; stroke-linecap: butt}</style>
 </defs>
 <g id="figure_1">
  <g id="patch_1">
   <path d="M 0 644.743878 
L 962.123375 644.743878 
L 962.123375 0 
L 0 0 
z
" style="fill: #ffffff"/>
  </g>
  <g id="axes_1">
   <g id="patch_2">
    <path d="M 52.079375 578.54175 
L 954.923375 578.54175 
L 954.923375 24.14175 
L 52.079375 24.14175 
z
" style="fill: #e5e5e5"/>
   </g>
   <g id="matplotlib.axis_1">
    <g id="xtick_1">
     <g id="line2d_1">
      <path d="M 74.840148 578.54175 
L 74.840148 24.14175 
" clip-path="url(#p53932daec7)" style="fill: none; stroke: #ffffff; stroke-width: 0.8; stroke-linecap: square"/>
     </g>
     <g id="line2d_2">
      <defs>
       <path id="medb79362bf" d="M 0 0 
L 0 3.5 
" style="stroke: #555555; stroke-width: 0.8"/>
      </defs>
      <g>
       <use xlink:href="#medb79362bf" x="74.840148" y="578.54175" style="fill: #555555; stroke: #555555; stroke-width: 0.8"/>
      </g>
     </g>
     <g id="text_1">
      <!-- 2024-05 -->
      <g style="fill: #555555" transform="translate(62.018866 620.459567) rotate(-45) scale(0.1 -0.1)">
       <defs>
        <path id="DejaVuSans-32" d="M 1228 531 
L 3431 531 
L 3431 0 
L 469 0 
L 469 531 
Q 828 903 1448 1529 
Q 2069 2156 2228 2338 
Q 2531 2678 2651 2914 
Q 2772 3150 2772 3378 
Q 2772 3750 2511 3984 
Q 2250 4219 1831 4219 
Q 1534 4219 1204 4116 
Q 875 4013 500 3803 
L 500 4441 
Q 881 4594 1212 4672 
Q 1544 4750 1819 4750 
Q 2544 4750 2975 4387 
Q 3406 4025 3406 3419 
Q 3406 3131 3298 2873 
Q 3191 2616 2906 2266 
Q 2828 2175 2409 1742 
Q 1991 1309 1228 531 
z
" transform="scale(0.015625)"/>
        <path id="DejaVuSans-30" d="M 2034 4250 
Q 1547 4250 1301 3770 
Q 1056 3291 1056 2328 
Q 1056 1369 1301 889 
Q 1547 409 2034 409 
Q 2525 409 2770 889 
Q 3016 1369 3016 2328 
Q 3016 3291 2770 3770 
Q 2525 4250 2034 4250 
z
M 2034 4750 
Q 2819 4750 3233 4129 
Q 3647 3509 3647 2328 
Q 3647 1150 3233 529 
Q 2819 -91 2034 -91 
Q 1250 -91 836 529 
Q 422 1150 422 2328 
Q 422 3509 836 4129 
Q 1250 4750 2034 4750 
z
" transform="scale(0.015625)"/>
        <path id="DejaVuSans-34" d="M 2419 4116 
L 825 1625 
L 2419 1625 
L 2419 4116 
z
M 2253 4666 
L 3047 4666 
L 3047 1625 
L 3713 1625 
L 3713 1100 
L 3047 1100 
L 3047 0 
L 2419 0 
L 2419 1100 
L 313 1100 
L 313 1709 
L 2253 4666 
z
" transform="scale(0.015625)"/>
        <path id="DejaVuSans-2d" d="M 313 2009 
L 1997 2009 
L 1997 1497 
L 313 1497 
L 313 2009 
z
" transform="scale(0.015625)"/>
        <path id="DejaVuSans-35" d="M 691 4666 
L 3169 4666 
L 3169 4134 
L 1269 4134 
L 1269 2991 
Q 1406 3038 1543 3061 
Q 1681 3084 1819 3084 
Q 2600 3084 3056 2656 
Q 3513 2228 3513 1497 
Q 3513 744 3044 326 
Q 2575 -91 1722 -91 
Q 1428 -91 1123 -41 
Q 819 9 494 109 
L 494 744 
Q 775 591 1075 516 
Q 1375 441 1709 441 
Q 2250 441 2565 725 
Q 2881 1009 2881 1497 
Q 2881 1984 2565 2268 
Q 2250 2553 1709 2553 
Q 1456 2553 1204 2497 
Q 953 2441 691 2322 
L 691 4666 
z
" transform="scale(0.015625)"/>
       </defs>
       <use xlink:href="#DejaVuSans-32"/>
       <use xlink:href="#DejaVuSans-30" x="63.623047"/>
       <use xlink:href="#DejaVuSans-32" x="127.246094"/>
       <use xlink:href="#DejaVuSans-34" x="190.869141"/>
       <use xlink:href="#DejaVuSans-2d" x="254.492188"/>
       <use xlink:href="#DejaVuSans-30" x="290.576172"/>
       <use xlink:href="#DejaVuSans-35" x="354.199219"/>
      </g>
     </g>
    </g>
    <g id="xtick_2">
     <g id="line2d_3">
      <path d="M 153.238367 578.54175 
L 153.238367 24.14175 
" clip-path="url(#p53932daec7)" style="fill: none; stroke: #ffffff; stroke-width: 0.8; stroke-linecap: square"/>
     </g>
     <g id="line2d_4">
      <g>
       <use xlink:href="#medb79362bf" x="153.238367" y="578.54175" style="fill: #555555; stroke: #555555; stroke-width: 0.8"/>
      </g>
     </g>
     <g id="text_2">
      <!-- 2024-06 -->
      <g style="fill: #555555" transform="translate(140.417084 620.459567) rotate(-45) scale(0.1 -0.1)">
       <defs>
        <path id="DejaVuSans-36" d="M 2113 2584 
Q 1688 2584 1439 2293 
Q 1191 2003 1191 1497 
Q 1191 994 1439 701 
Q 1688 409 2113 409 
Q 2538 409 2786 701 
Q 3034 994 3034 1497 
Q 3034 2003 2786 2293 
Q 2538 2584 2113 2584 
z
M 3366 4563 
L 3366 3988 
Q 3128 4100 2886 4159 
Q 2644 4219 2406 4219 
Q 1781 4219 1451 3797 
Q 1122 3375 1075 2522 
Q 1259 2794 1537 2939 
Q 1816 3084 2150 3084 
Q 2853 3084 3261 2657 
Q 3669 2231 3669 1497 
Q 3669 778 3244 343 
Q 2819 -91 2113 -91 
Q 1303 -91 875 529 
Q 447 1150 447 2328 
Q 447 3434 972 4092 
Q 1497 4750 2381 4750 
Q 2619 4750 2861 4703 
Q 3103 4656 3366 4563 
z
" transform="scale(0.015625)"/>
       </defs>
       <use xlink:href="#DejaVuSans-32"/>
       <use xlink:href="#DejaVuSans-30" x="63.623047"/>
       <use xlink:href="#DejaVuSans-32" x="127.246094"/>
       <use xlink:href="#DejaVuSans-34" x="190.869141"/>
       <use xlink:href="#DejaVuSans-2d" x="254.492188"/>
       <use xlink:href="#DejaVuSans-30" x="290.576172"/>
       <use xlink:href="#DejaVuSans-36" x="354.199219"/>
      </g>
     </g>
    </g>
    <g id="xtick_3">
     <g id="line2d_5">
      <path d="M 229.10761 578.54175 
L 229.10761 24.14175 
" clip-path="url(#p53932daec7)" style="fill: none; stroke: #ffffff; stroke-width: 0.8; stroke-linecap: square"/>
     </g>
     <g id="line2d_6">
      <g>
       <use xlink:href="#medb79362bf" x="229.10761" y="578.54175" style="fill: #555555; stroke: #555555; stroke-width: 0.8"/>
      </g>
     </g>
     <g id="text_3">
      <!-- 2024-07 -->
      <g style="fill: #555555" transform="translate(216.286328 620.459567) rotate(-45) scale(0.1 -0.1)">
       <defs>
        <path id="DejaVuSans-37" d="M 525 4666 
L 3525 4666 
L 3525 4397 
L 1831 0 
L 1172 0 
L 2766 4134 
L 525 4134 
L 525 4666 
z
" transform="scale(0.015625)"/>
       </defs>
       <use xlink:href="#DejaVuSans-32"/>
       <use xlink:href="#DejaVuSans-30" x="63.623047"/>
       <use xlink:href="#DejaVuSans-32" x="127.246094"/>
       <use xlink:href="#DejaVuSans-34" x="190.869141"/>
       <use xlink:href="#DejaVuSans-2d" x="254.492188"/>
       <use xlink:href="#DejaVuSans-30" x="290.576172"/>
       <use xlink:href="#DejaVuSans-37" x="354.199219"/>
      </g>
     </g>
    </g>
    <g id="xtick_4">
     <g id="line2d_7">
      <path d="M 307.505829 578.54175 
L 307.505829 24.14175 
" clip-path="url(#p53932daec7)" style="fill: none; stroke: #ffffff; stroke-width: 0.8; stroke-linecap: square"/>
     </g>
     <g id="line2d_8">
      <g>
       <use xlink:href="#medb79362bf" x="307.505829" y="578.54175" style="fill: #555555; stroke: #555555; stroke-width: 0.8"/>
      </g>
     </g>
     <g id="text_4">
      <!-- 2024-08 -->
      <g style="fill: #555555" transform="translate(294.684547 620.459567) rotate(-45) scale(0.1 -0.1)">
       <defs>
        <path id="DejaVuSans-38" d="M 2034 2216 
Q 1584 2216 1326 1975 
Q 1069 1734 1069 1313 
Q 1069 891 1326 650 
Q 1584 409 2034 409 
Q 2484 409 2743 651 
Q 3003 894 3003 1313 
Q 3003 1734 2745 1975 
Q 2488 2216 2034 2216 
z
M 1403 2484 
Q 997 2584 770 2862 
Q 544 3141 544 3541 
Q 544 4100 942 4425 
Q 1341 4750 2034 4750 
Q 2731 4750 3128 4425 
Q 3525 4100 3525 3541 
Q 3525 3141 3298 2862 
Q 3072 2584 2669 2484 
Q 3125 2378 3379 2068 
Q 3634 1759 3634 1313 
Q 3634 634 3220 271 
Q 2806 -91 2034 -91 
Q 1263 -91 848 271 
Q 434 634 434 1313 
Q 434 1759 690 2068 
Q 947 2378 1403 2484 
z
M 1172 3481 
Q 1172 3119 1398 2916 
Q 1625 2713 2034 2713 
Q 2441 2713 2670 2916 
Q 2900 3119 2900 3481 
Q 2900 3844 2670 4047 
Q 2441 4250 2034 4250 
Q 1625 4250 1398 4047 
Q 1172 3844 1172 3481 
z
" transform="scale(0.015625)"/>
       </defs>
       <use xlink:href="#DejaVuSans-32"/>
       <use xlink:href="#DejaVuSans-30" x="63.623047"/>
       <use xlink:href="#DejaVuSans-32" x="127.246094"/>
       <use xlink:href="#DejaVuSans-34" x="190.869141"/>
       <use xlink:href="#DejaVuSans-2d" x="254.492188"/>
       <use xlink:href="#DejaVuSans-30" x="290.576172"/>
       <use xlink:href="#DejaVuSans-38" x="354.199219"/>
      </g>
     </g>
    </g>
    <g id="xtick_5">
     <g id="line2d_9">
      <path d="M 385.904047 578.54175 
L 385.904047 24.14175 
" clip-path="url(#p53932daec7)" style="fill: none; stroke: #ffffff; stroke-width: 0.8; stroke-linecap: square"/>
     </g>
     <g id="line2d_10">
      <g>
       <use xlink:href="#medb79362bf" x="385.904047" y="578.54175" style="fill: #555555; stroke: #555555; stroke-width: 0.8"/>
      </g>
     </g>
     <g id="text_5">
      <!-- 2024-09 -->
      <g style="fill: #555555" transform="translate(373.082765 620.459567) rotate(-45) scale(0.1 -0.1)">
       <defs>
        <path id="DejaVuSans-39" d="M 703 97 
L 703 672 
Q 941 559 1184 500 
Q 1428 441 1663 441 
Q 2288 441 2617 861 
Q 2947 1281 2994 2138 
Q 2813 1869 2534 1725 
Q 2256 1581 1919 1581 
Q 1219 1581 811 2004 
Q 403 2428 403 3163 
Q 403 3881 828 4315 
Q 1253 4750 1959 4750 
Q 2769 4750 3195 4129 
Q 3622 3509 3622 2328 
Q 3622 1225 3098 567 
Q 2575 -91 1691 -91 
Q 1453 -91 1209 -44 
Q 966 3 703 97 
z
M 1959 2075 
Q 2384 2075 2632 2365 
Q 2881 2656 2881 3163 
Q 2881 3666 2632 3958 
Q 2384 4250 1959 4250 
Q 1534 4250 1286 3958 
Q 1038 3666 1038 3163 
Q 1038 2656 1286 2365 
Q 1534 2075 1959 2075 
z
" transform="scale(0.015625)"/>
       </defs>
       <use xlink:href="#DejaVuSans-32"/>
       <use xlink:href="#DejaVuSans-30" x="63.623047"/>
       <use xlink:href="#DejaVuSans-32" x="127.246094"/>
       <use xlink:href="#DejaVuSans-34" x="190.869141"/>
       <use xlink:href="#DejaVuSans-2d" x="254.492188"/>
       <use xlink:href="#DejaVuSans-30" x="290.576172"/>
       <use xlink:href="#DejaVuSans-39" x="354.199219"/>
      </g>
     </g>
    </g>
    <g id="xtick_6">
     <g id="line2d_11">
      <path d="M 461.773291 578.54175 
L 461.773291 24.14175 
" clip-path="url(#p53932daec7)" style="fill: none; stroke: #ffffff; stroke-width: 0.8; stroke-linecap: square"/>
     </g>
     <g id="line2d_12">
      <g>
       <use xlink:href="#medb79362bf" x="461.773291" y="578.54175" style="fill: #555555; stroke: #555555; stroke-width: 0.8"/>
      </g>
     </g>
     <g id="text_6">
      <!-- 2024-10 -->
      <g style="fill: #555555" transform="translate(448.952009 620.459567) rotate(-45) scale(0.1 -0.1)">
       <defs>
        <path id="DejaVuSans-31" d="M 794 531 
L 1825 531 
L 1825 4091 
L 703 3866 
L 703 4441 
L 1819 4666 
L 2450 4666 
L 2450 531 
L 3481 531 
L 3481 0 
L 794 0 
L 794 531 
z
" transform="scale(0.015625)"/>
       </defs>
       <use xlink:href="#DejaVuSans-32"/>
       <use xlink:href="#DejaVuSans-30" x="63.623047"/>
       <use xlink:href="#DejaVuSans-32" x="127.246094"/>
       <use xlink:href="#DejaVuSans-34" x="190.869141"/>
       <use xlink:href="#DejaVuSans-2d" x="254.492188"/>
       <use xlink:href="#DejaVuSans-31" x="290.576172"/>
       <use xlink:href="#DejaVuSans-30" x="354.199219"/>
      </g>
     </g>
    </g>
    <g id="xtick_7">
     <g id="line2d_13">
      <path d="M 540.171509 578.54175 
L 540.171509 24.14175 
" clip-path="url(#p53932daec7)" style="fill: none; stroke: #ffffff; stroke-width: 0.8; stroke-linecap: square"/>
     </g>
     <g id="line2d_14">
      <g>
       <use xlink:href="#medb79362bf" x="540.171509" y="578.54175" style="fill: #555555; stroke: #555555; stroke-width: 0.8"/>
      </g>
     </g>
     <g id="text_7">
      <!-- 2024-11 -->
      <g style="fill: #555555" transform="translate(527.350227 620.459567) rotate(-45) scale(0.1 -0.1)">
       <use xlink:href="#DejaVuSans-32"/>
       <use xlink:href="#DejaVuSans-30" x="63.623047"/>
       <use xlink:href="#DejaVuSans-32" x="127.246094"/>
       <use xlink:href="#DejaVuSans-34" x="190.869141"/>
       <use xlink:href="#DejaVuSans-2d" x="254.492188"/>
       <use xlink:href="#DejaVuSans-31" x="290.576172"/>
       <use xlink:href="#DejaVuSans-31" x="354.199219"/>
      </g>
     </g>
    </g>
    <g id="xtick_8">
     <g id="line2d_15">
      <path d="M 616.040753 578.54175 
L 616.040753 24.14175 
" clip-path="url(#p53932daec7)" style="fill: none; stroke: #ffffff; stroke-width: 0.8; stroke-linecap: square"/>
     </g>
     <g id="line2d_16">
      <g>
       <use xlink:href="#medb79362bf" x="616.040753" y="578.54175" style="fill: #555555; stroke: #555555; stroke-width: 0.8"/>
      </g>
     </g>
     <g id="text_8">
      <!-- 2024-12 -->
      <g style="fill: #555555" transform="translate(603.219471 620.459567) rotate(-45) scale(0.1 -0.1)">
       <use xlink:href="#DejaVuSans-32"/>
       <use xlink:href="#DejaVuSans-30" x="63.623047"/>
       <use xlink:href="#DejaVuSans-32" x="127.246094"/>
       <use xlink:href="#DejaVuSans-34" x="190.869141"/>
       <use xlink:href="#DejaVuSans-2d" x="254.492188"/>
       <use xlink:href="#DejaVuSans-31" x="290.576172"/>
       <use xlink:href="#DejaVuSans-32" x="354.199219"/>
      </g>
     </g>
    </g>
    <g id="xtick_9">
     <g id="line2d_17">
      <path d="M 694.438972 578.54175 
L 694.438972 24.14175 
" clip-path="url(#p53932daec7)" style="fill: none; stroke: #ffffff; stroke-width: 0.8; stroke-linecap: square"/>
     </g>
     <g id="line2d_18">
      <g>
       <use xlink:href="#medb79362bf" x="694.438972" y="578.54175" style="fill: #555555; stroke: #555555; stroke-width: 0.8"/>
      </g>
     </g>
     <g id="text_9">
      <!-- 2025-01 -->
      <g style="fill: #555555" transform="translate(681.617689 620.459567) rotate(-45) scale(0.1 -0.1)">
       <use xlink:href="#DejaVuSans-32"/>
       <use xlink:href="#DejaVuSans-30" x="63.623047"/>
       <use xlink:href="#DejaVuSans-32" x="127.246094"/>
       <use xlink:href="#DejaVuSans-35" x="190.869141"/>
       <use xlink:href="#DejaVuSans-2d" x="254.492188"/>
       <use xlink:href="#DejaVuSans-30" x="290.576172"/>
       <use xlink:href="#DejaVuSans-31" x="354.199219"/>
      </g>
     </g>
    </g>
    <g id="xtick_10">
     <g id="line2d_19">
      <path d="M 772.83719 578.54175 
L 772.83719 24.14175 
" clip-path="url(#p53932daec7)" style="fill: none; stroke: #ffffff; stroke-width: 0.8; stroke-linecap: square"/>
     </g>
     <g id="line2d_20">
      <g>
       <use xlink:href="#medb79362bf" x="772.83719" y="578.54175" style="fill: #555555; stroke: #555555; stroke-width: 0.8"/>
      </g>
     </g>
     <g id="text_10">
      <!-- 2025-02 -->
      <g style="fill: #555555" transform="translate(760.015908 620.459567) rotate(-45) scale(0.1 -0.1)">
       <use xlink:href="#DejaVuSans-32"/>
       <use xlink:href="#DejaVuSans-30" x="63.623047"/>
       <use xlink:href="#DejaVuSans-32" x="127.246094"/>
       <use xlink:href="#DejaVuSans-35" x="190.869141"/>
       <use xlink:href="#DejaVuSans-2d" x="254.492188"/>
       <use xlink:href="#DejaVuSans-30" x="290.576172"/>
       <use xlink:href="#DejaVuSans-32" x="354.199219"/>
      </g>
     </g>
    </g>
    <g id="xtick_11">
     <g id="line2d_21">
      <path d="M 843.648484 578.54175 
L 843.648484 24.14175 
" clip-path="url(#p53932daec7)" style="fill: none; stroke: #ffffff; stroke-width: 0.8; stroke-linecap: square"/>
     </g>
     <g id="line2d_22">
      <g>
       <use xlink:href="#medb79362bf" x="843.648484" y="578.54175" style="fill: #555555; stroke: #555555; stroke-width: 0.8"/>
      </g>
     </g>
     <g id="text_11">
      <!-- 2025-03 -->
      <g style="fill: #555555" transform="translate(830.827202 620.459567) rotate(-45) scale(0.1 -0.1)">
       <defs>
        <path id="DejaVuSans-33" d="M 2597 2516 
Q 3050 2419 3304 2112 
Q 3559 1806 3559 1356 
Q 3559 666 3084 287 
Q 2609 -91 1734 -91 
Q 1441 -91 1130 -33 
Q 819 25 488 141 
L 488 750 
Q 750 597 1062 519 
Q 1375 441 1716 441 
Q 2309 441 2620 675 
Q 2931 909 2931 1356 
Q 2931 1769 2642 2001 
Q 2353 2234 1838 2234 
L 1294 2234 
L 1294 2753 
L 1863 2753 
Q 2328 2753 2575 2939 
Q 2822 3125 2822 3475 
Q 2822 3834 2567 4026 
Q 2313 4219 1838 4219 
Q 1578 4219 1281 4162 
Q 984 4106 628 3988 
L 628 4550 
Q 988 4650 1302 4700 
Q 1616 4750 1894 4750 
Q 2613 4750 3031 4423 
Q 3450 4097 3450 3541 
Q 3450 3153 3228 2886 
Q 3006 2619 2597 2516 
z
" transform="scale(0.015625)"/>
       </defs>
       <use xlink:href="#DejaVuSans-32"/>
       <use xlink:href="#DejaVuSans-30" x="63.623047"/>
       <use xlink:href="#DejaVuSans-32" x="127.246094"/>
       <use xlink:href="#DejaVuSans-35" x="190.869141"/>
       <use xlink:href="#DejaVuSans-2d" x="254.492188"/>
       <use xlink:href="#DejaVuSans-30" x="290.576172"/>
       <use xlink:href="#DejaVuSans-33" x="354.199219"/>
      </g>
     </g>
    </g>
    <g id="xtick_12">
     <g id="line2d_23">
      <path d="M 922.046703 578.54175 
L 922.046703 24.14175 
" clip-path="url(#p53932daec7)" style="fill: none; stroke: #ffffff; stroke-width: 0.8; stroke-linecap: square"/>
     </g>
     <g id="line2d_24">
      <g>
       <use xlink:href="#medb79362bf" x="922.046703" y="578.54175" style="fill: #555555; stroke: #555555; stroke-width: 0.8"/>
      </g>
     </g>
     <g id="text_12">
      <!-- 2025-04 -->
      <g style="fill: #555555" transform="translate(909.22542 620.459567) rotate(-45) scale(0.1 -0.1)">
       <use xlink:href="#DejaVuSans-32"/>
       <use xlink:href="#DejaVuSans-30" x="63.623047"/>
       <use xlink:href="#DejaVuSans-32" x="127.246094"/>
       <use xlink:href="#DejaVuSans-35" x="190.869141"/>
       <use xlink:href="#DejaVuSans-2d" x="254.492188"/>
       <use xlink:href="#DejaVuSans-30" x="290.576172"/>
       <use xlink:href="#DejaVuSans-34" x="354.199219"/>
      </g>
     </g>
    </g>
    <g id="text_13">
     <!-- Date -->
     <g style="fill: #555555" transform="translate(489.160438 635.048253) scale(0.12 -0.12)">
      <defs>
       <path id="DejaVuSans-44" d="M 1259 4147 
L 1259 519 
L 2022 519 
Q 2988 519 3436 956 
Q 3884 1394 3884 2338 
Q 3884 3275 3436 3711 
Q 2988 4147 2022 4147 
L 1259 4147 
z
M 628 4666 
L 1925 4666 
Q 3281 4666 3915 4102 
Q 4550 3538 4550 2338 
Q 4550 1131 3912 565 
Q 3275 0 1925 0 
L 628 0 
L 628 4666 
z
" transform="scale(0.015625)"/>
       <path id="DejaVuSans-61" d="M 2194 1759 
Q 1497 1759 1228 1600 
Q 959 1441 959 1056 
Q 959 750 1161 570 
Q 1363 391 1709 391 
Q 2188 391 2477 730 
Q 2766 1069 2766 1631 
L 2766 1759 
L 2194 1759 
z
M 3341 1997 
L 3341 0 
L 2766 0 
L 2766 531 
Q 2569 213 2275 61 
Q 1981 -91 1556 -91 
Q 1019 -91 701 211 
Q 384 513 384 1019 
Q 384 1609 779 1909 
Q 1175 2209 1959 2209 
L 2766 2209 
L 2766 2266 
Q 2766 2663 2505 2880 
Q 2244 3097 1772 3097 
Q 1472 3097 1187 3025 
Q 903 2953 641 2809 
L 641 3341 
Q 956 3463 1253 3523 
Q 1550 3584 1831 3584 
Q 2591 3584 2966 3190 
Q 3341 2797 3341 1997 
z
" transform="scale(0.015625)"/>
       <path id="DejaVuSans-74" d="M 1172 4494 
L 1172 3500 
L 2356 3500 
L 2356 3053 
L 1172 3053 
L 1172 1153 
Q 1172 725 1289 603 
Q 1406 481 1766 481 
L 2356 481 
L 2356 0 
L 1766 0 
Q 1100 0 847 248 
Q 594 497 594 1153 
L 594 3053 
L 172 3053 
L 172 3500 
L 594 3500 
L 594 4494 
L 1172 4494 
z
" transform="scale(0.015625)"/>
       <path id="DejaVuSans-65" d="M 3597 1894 
L 3597 1613 
L 953 1613 
Q 991 1019 1311 708 
Q 1631 397 2203 397 
Q 2534 397 2845 478 
Q 3156 559 3463 722 
L 3463 178 
Q 3153 47 2828 -22 
Q 2503 -91 2169 -91 
Q 1331 -91 842 396 
Q 353 884 353 1716 
Q 353 2575 817 3079 
Q 1281 3584 2069 3584 
Q 2775 3584 3186 3129 
Q 3597 2675 3597 1894 
z
M 3022 2063 
Q 3016 2534 2758 2815 
Q 2500 3097 2075 3097 
Q 1594 3097 1305 2825 
Q 1016 2553 972 2059 
L 3022 2063 
z
" transform="scale(0.015625)"/>
      </defs>
      <use xlink:href="#DejaVuSans-44"/>
      <use xlink:href="#DejaVuSans-61" x="77.001953"/>
      <use xlink:href="#DejaVuSans-74" x="138.28125"/>
      <use xlink:href="#DejaVuSans-65" x="177.490234"/>
     </g>
    </g>
   </g>
   <g id="matplotlib.axis_2">
    <g id="ytick_1">
     <g id="line2d_25">
      <path d="M 52.079375 578.54175 
L 954.923375 578.54175 
" clip-path="url(#p53932daec7)" style="fill: none; stroke: #ffffff; stroke-width: 0.8; stroke-linecap: square"/>
     </g>
     <g id="line2d_26">
      <defs>
       <path id="m187624d73d" d="M 0 0 
L -3.5 0 
" style="stroke: #555555; stroke-width: 0.8"/>
      </defs>
      <g>
       <use xlink:href="#m187624d73d" x="52.079375" y="578.54175" style="fill: #555555; stroke: #555555; stroke-width: 0.8"/>
      </g>
     </g>
     <g id="text_14">
      <!-- 0.00 -->
      <g style="fill: #555555" transform="translate(22.81375 582.340969) scale(0.1 -0.1)">
       <defs>
        <path id="DejaVuSans-2e" d="M 684 794 
L 1344 794 
L 1344 0 
L 684 0 
L 684 794 
z
" transform="scale(0.015625)"/>
       </defs>
       <use xlink:href="#DejaVuSans-30"/>
       <use xlink:href="#DejaVuSans-2e" x="63.623047"/>
       <use xlink:href="#DejaVuSans-30" x="95.410156"/>
       <use xlink:href="#DejaVuSans-30" x="159.033203"/>
      </g>
     </g>
    </g>
    <g id="ytick_2">
     <g id="line2d_27">
      <path d="M 52.079375 512.853102 
L 954.923375 512.853102 
" clip-path="url(#p53932daec7)" style="fill: none; stroke: #ffffff; stroke-width: 0.8; stroke-linecap: square"/>
     </g>
     <g id="line2d_28">
      <g>
       <use xlink:href="#m187624d73d" x="52.079375" y="512.853102" style="fill: #555555; stroke: #555555; stroke-width: 0.8"/>
      </g>
     </g>
     <g id="text_15">
      <!-- 0.05 -->
      <g style="fill: #555555" transform="translate(22.81375 516.652321) scale(0.1 -0.1)">
       <use xlink:href="#DejaVuSans-30"/>
       <use xlink:href="#DejaVuSans-2e" x="63.623047"/>
       <use xlink:href="#DejaVuSans-30" x="95.410156"/>
       <use xlink:href="#DejaVuSans-35" x="159.033203"/>
      </g>
     </g>
    </g>
    <g id="ytick_3">
     <g id="line2d_29">
      <path d="M 52.079375 447.164454 
L 954.923375 447.164454 
" clip-path="url(#p53932daec7)" style="fill: none; stroke: #ffffff; stroke-width: 0.8; stroke-linecap: square"/>
     </g>
     <g id="line2d_30">
      <g>
       <use xlink:href="#m187624d73d" x="52.079375" y="447.164454" style="fill: #555555; stroke: #555555; stroke-width: 0.8"/>
      </g>
     </g>
     <g id="text_16">
      <!-- 0.10 -->
      <g style="fill: #555555" transform="translate(22.81375 450.963673) scale(0.1 -0.1)">
       <use xlink:href="#DejaVuSans-30"/>
       <use xlink:href="#DejaVuSans-2e" x="63.623047"/>
       <use xlink:href="#DejaVuSans-31" x="95.410156"/>
       <use xlink:href="#DejaVuSans-30" x="159.033203"/>
      </g>
     </g>
    </g>
    <g id="ytick_4">
     <g id="line2d_31">
      <path d="M 52.079375 381.475807 
L 954.923375 381.475807 
" clip-path="url(#p53932daec7)" style="fill: none; stroke: #ffffff; stroke-width: 0.8; stroke-linecap: square"/>
     </g>
     <g id="line2d_32">
      <g>
       <use xlink:href="#m187624d73d" x="52.079375" y="381.475807" style="fill: #555555; stroke: #555555; stroke-width: 0.8"/>
      </g>
     </g>
     <g id="text_17">
      <!-- 0.15 -->
      <g style="fill: #555555" transform="translate(22.81375 385.275025) scale(0.1 -0.1)">
       <use xlink:href="#DejaVuSans-30"/>
       <use xlink:href="#DejaVuSans-2e" x="63.623047"/>
       <use xlink:href="#DejaVuSans-31" x="95.410156"/>
       <use xlink:href="#DejaVuSans-35" x="159.033203"/>
      </g>
     </g>
    </g>
    <g id="ytick_5">
     <g id="line2d_33">
      <path d="M 52.079375 315.787159 
L 954.923375 315.787159 
" clip-path="url(#p53932daec7)" style="fill: none; stroke: #ffffff; stroke-width: 0.8; stroke-linecap: square"/>
     </g>
     <g id="line2d_34">
      <g>
       <use xlink:href="#m187624d73d" x="52.079375" y="315.787159" style="fill: #555555; stroke: #555555; stroke-width: 0.8"/>
      </g>
     </g>
     <g id="text_18">
      <!-- 0.20 -->
      <g style="fill: #555555" transform="translate(22.81375 319.586378) scale(0.1 -0.1)">
       <use xlink:href="#DejaVuSans-30"/>
       <use xlink:href="#DejaVuSans-2e" x="63.623047"/>
       <use xlink:href="#DejaVuSans-32" x="95.410156"/>
       <use xlink:href="#DejaVuSans-30" x="159.033203"/>
      </g>
     </g>
    </g>
    <g id="ytick_6">
     <g id="line2d_35">
      <path d="M 52.079375 250.098511 
L 954.923375 250.098511 
" clip-path="url(#p53932daec7)" style="fill: none; stroke: #ffffff; stroke-width: 0.8; stroke-linecap: square"/>
     </g>
     <g id="line2d_36">
      <g>
       <use xlink:href="#m187624d73d" x="52.079375" y="250.098511" style="fill: #555555; stroke: #555555; stroke-width: 0.8"/>
      </g>
     </g>
     <g id="text_19">
      <!-- 0.25 -->
      <g style="fill: #555555" transform="translate(22.81375 253.89773) scale(0.1 -0.1)">
       <use xlink:href="#DejaVuSans-30"/>
       <use xlink:href="#DejaVuSans-2e" x="63.623047"/>
       <use xlink:href="#DejaVuSans-32" x="95.410156"/>
       <use xlink:href="#DejaVuSans-35" x="159.033203"/>
      </g>
     </g>
    </g>
    <g id="ytick_7">
     <g id="line2d_37">
      <path d="M 52.079375 184.409863 
L 954.923375 184.409863 
" clip-path="url(#p53932daec7)" style="fill: none; stroke: #ffffff; stroke-width: 0.8; stroke-linecap: square"/>
     </g>
     <g id="line2d_38">
      <g>
       <use xlink:href="#m187624d73d" x="52.079375" y="184.409863" style="fill: #555555; stroke: #555555; stroke-width: 0.8"/>
      </g>
     </g>
     <g id="text_20">
      <!-- 0.30 -->
      <g style="fill: #555555" transform="translate(22.81375 188.209082) scale(0.1 -0.1)">
       <use xlink:href="#DejaVuSans-30"/>
       <use xlink:href="#DejaVuSans-2e" x="63.623047"/>
       <use xlink:href="#DejaVuSans-33" x="95.410156"/>
       <use xlink:href="#DejaVuSans-30" x="159.033203"/>
      </g>
     </g>
    </g>
    <g id="ytick_8">
     <g id="line2d_39">
      <path d="M 52.079375 118.721215 
L 954.923375 118.721215 
" clip-path="url(#p53932daec7)" style="fill: none; stroke: #ffffff; stroke-width: 0.8; stroke-linecap: square"/>
     </g>
     <g id="line2d_40">
      <g>
       <use xlink:href="#m187624d73d" x="52.079375" y="118.721215" style="fill: #555555; stroke: #555555; stroke-width: 0.8"/>
      </g>
     </g>
     <g id="text_21">
      <!-- 0.35 -->
      <g style="fill: #555555" transform="translate(22.81375 122.520434) scale(0.1 -0.1)">
       <use xlink:href="#DejaVuSans-30"/>
       <use xlink:href="#DejaVuSans-2e" x="63.623047"/>
       <use xlink:href="#DejaVuSans-33" x="95.410156"/>
       <use xlink:href="#DejaVuSans-35" x="159.033203"/>
      </g>
     </g>
    </g>
    <g id="ytick_9">
     <g id="line2d_41">
      <path d="M 52.079375 53.032568 
L 954.923375 53.032568 
" clip-path="url(#p53932daec7)" style="fill: none; stroke: #ffffff; stroke-width: 0.8; stroke-linecap: square"/>
     </g>
     <g id="line2d_42">
      <g>
       <use xlink:href="#m187624d73d" x="52.079375" y="53.032568" style="fill: #555555; stroke: #555555; stroke-width: 0.8"/>
      </g>
     </g>
     <g id="text_22">
      <!-- 0.40 -->
      <g style="fill: #555555" transform="translate(22.81375 56.831786) scale(0.1 -0.1)">
       <use xlink:href="#DejaVuSans-30"/>
       <use xlink:href="#DejaVuSans-2e" x="63.623047"/>
       <use xlink:href="#DejaVuSans-34" x="95.410156"/>
       <use xlink:href="#DejaVuSans-30" x="159.033203"/>
      </g>
     </g>
    </g>
    <g id="text_23">
     <!-- Share -->
     <g style="fill: #555555" transform="translate(16.318125 318.653625) rotate(-90) scale(0.12 -0.12)">
      <defs>
       <path id="DejaVuSans-53" d="M 3425 4513 
L 3425 3897 
Q 3066 4069 2747 4153 
Q 2428 4238 2131 4238 
Q 1616 4238 1336 4038 
Q 1056 3838 1056 3469 
Q 1056 3159 1242 3001 
Q 1428 2844 1947 2747 
L 2328 2669 
Q 3034 2534 3370 2195 
Q 3706 1856 3706 1288 
Q 3706 609 3251 259 
Q 2797 -91 1919 -91 
Q 1588 -91 1214 -16 
Q 841 59 441 206 
L 441 856 
Q 825 641 1194 531 
Q 1563 422 1919 422 
Q 2459 422 2753 634 
Q 3047 847 3047 1241 
Q 3047 1584 2836 1778 
Q 2625 1972 2144 2069 
L 1759 2144 
Q 1053 2284 737 2584 
Q 422 2884 422 3419 
Q 422 4038 858 4394 
Q 1294 4750 2059 4750 
Q 2388 4750 2728 4690 
Q 3069 4631 3425 4513 
z
" transform="scale(0.015625)"/>
       <path id="DejaVuSans-68" d="M 3513 2113 
L 3513 0 
L 2938 0 
L 2938 2094 
Q 2938 2591 2744 2837 
Q 2550 3084 2163 3084 
Q 1697 3084 1428 2787 
Q 1159 2491 1159 1978 
L 1159 0 
L 581 0 
L 581 4863 
L 1159 4863 
L 1159 2956 
Q 1366 3272 1645 3428 
Q 1925 3584 2291 3584 
Q 2894 3584 3203 3211 
Q 3513 2838 3513 2113 
z
" transform="scale(0.015625)"/>
       <path id="DejaVuSans-72" d="M 2631 2963 
Q 2534 3019 2420 3045 
Q 2306 3072 2169 3072 
Q 1681 3072 1420 2755 
Q 1159 2438 1159 1844 
L 1159 0 
L 581 0 
L 581 3500 
L 1159 3500 
L 1159 2956 
Q 1341 3275 1631 3429 
Q 1922 3584 2338 3584 
Q 2397 3584 2469 3576 
Q 2541 3569 2628 3553 
L 2631 2963 
z
" transform="scale(0.015625)"/>
      </defs>
      <use xlink:href="#DejaVuSans-53"/>
      <use xlink:href="#DejaVuSans-68" x="63.476562"/>
      <use xlink:href="#DejaVuSans-61" x="126.855469"/>
      <use xlink:href="#DejaVuSans-72" x="188.134766"/>
      <use xlink:href="#DejaVuSans-65" x="226.998047"/>
     </g>
    </g>
   </g>
   <g id="line2d_43">
    <path d="M 52.079375 337.321028 
L 61.199011 336.854431 
L 70.318648 336.387833 
L 79.438284 335.921236 
L 88.55792 335.454639 
L 97.677557 334.988041 
L 106.797193 334.521444 
L 115.91683 334.054846 
L 125.036466 333.588249 
L 134.156102 333.121652 
L 143.275739 332.655054 
L 152.395375 332.188457 
L 161.515011 331.721859 
L 170.634648 331.255262 
L 179.754284 330.788665 
L 188.87392 330.322067 
L 197.993557 329.85547 
L 207.113193 329.388872 
L 216.23283 328.922275 
L 225.352466 328.455678 
L 234.472102 327.98908 
L 243.591739 327.522483 
L 252.711375 327.055885 
L 261.831011 326.589288 
L 270.950648 326.122691 
L 280.070284 325.656093 
L 289.18992 325.189496 
L 298.309557 324.722899 
L 307.429193 324.256301 
L 316.54883 323.789704 
L 325.668466 323.323106 
L 334.788102 322.856509 
L 343.907739 322.389912 
L 353.027375 321.923314 
L 362.147011 321.456717 
L 371.266648 320.990119 
L 380.386284 320.523522 
L 389.50592 320.056925 
L 398.625557 319.590327 
L 407.745193 319.12373 
L 416.86483 318.657132 
L 425.984466 318.190535 
L 435.104102 317.723938 
L 444.223739 317.25734 
L 453.343375 316.790743 
L 462.463011 316.324145 
L 471.582648 315.857548 
L 480.702284 315.390951 
L 489.82192 314.924353 
L 498.941557 314.457756 
L 508.061193 313.991158 
L 517.18083 313.524561 
L 526.300466 313.057964 
L 535.420102 312.591366 
L 544.539739 312.124769 
L 553.659375 311.658172 
L 562.779011 311.191574 
L 571.898648 310.724977 
L 581.018284 310.258379 
L 590.13792 309.791782 
L 599.257557 309.325185 
L 608.377193 308.858587 
L 617.49683 308.39199 
L 626.616466 307.925392 
L 635.736102 307.458795 
L 644.855739 306.992198 
L 653.975375 306.5256 
L 663.095011 306.059003 
L 672.214648 305.592405 
L 681.334284 305.125808 
L 690.45392 304.659211 
L 699.573557 304.192613 
L 708.693193 303.726016 
L 717.81283 303.259418 
L 726.932466 302.792821 
L 736.052102 302.326224 
L 745.171739 301.859626 
L 754.291375 301.393029 
L 763.411011 300.926432 
L 772.530648 300.459834 
L 781.650284 299.993237 
L 790.76992 299.526639 
L 799.889557 299.060042 
L 809.009193 298.593445 
L 818.12883 298.126847 
L 827.248466 297.66025 
L 836.368102 297.193652 
L 845.487739 296.727055 
L 854.607375 296.260458 
L 863.727011 295.79386 
L 872.846648 295.327263 
L 881.966284 294.860665 
L 891.08592 294.394068 
L 900.205557 293.927471 
L 909.325193 293.460873 
L 918.44483 292.994276 
L 927.564466 292.527678 
L 936.684102 292.061081 
L 945.803739 291.594484 
L 954.923375 291.127886 
" clip-path="url(#p53932daec7)" style="fill: none; stroke-dasharray: 1.5,2.475; stroke-dashoffset: 0; stroke: #4ac1fa; stroke-width: 1.5"/>
   </g>
   <g id="line2d_44">
    <path d="M 52.079375 421.421863 
L 61.199011 422.328089 
L 70.318648 423.234315 
L 79.438284 424.140541 
L 88.55792 425.046767 
L 97.677557 425.952993 
L 106.797193 426.859219 
L 115.91683 427.765445 
L 125.036466 428.671671 
L 134.156102 429.577897 
L 143.275739 430.484123 
L 152.395375 431.390348 
L 161.515011 432.296574 
L 170.634648 433.2028 
L 179.754284 434.109026 
L 188.87392 435.015252 
L 197.993557 435.921478 
L 207.113193 436.827704 
L 216.23283 437.73393 
L 225.352466 438.640156 
L 234.472102 439.546382 
L 243.591739 440.452608 
L 252.711375 441.358834 
L 261.831011 442.26506 
L 270.950648 443.171286 
L 280.070284 444.077512 
L 289.18992 444.983737 
L 298.309557 445.889963 
L 307.429193 446.796189 
L 316.54883 447.702415 
L 325.668466 448.608641 
L 334.788102 449.514867 
L 343.907739 450.421093 
L 353.027375 451.327319 
L 362.147011 452.233545 
L 371.266648 453.139771 
L 380.386284 454.045997 
L 389.50592 454.952223 
L 398.625557 455.858449 
L 407.745193 456.764675 
L 416.86483 457.670901 
L 425.984466 458.577127 
L 435.104102 459.483352 
L 444.223739 460.389578 
L 453.343375 461.295804 
L 462.463011 462.20203 
L 471.582648 463.108256 
L 480.702284 464.014482 
L 489.82192 464.920708 
L 498.941557 465.826934 
L 508.061193 466.73316 
L 517.18083 467.639386 
L 526.300466 468.545612 
L 535.420102 469.451838 
L 544.539739 470.358064 
L 553.659375 471.26429 
L 562.779011 472.170516 
L 571.898648 473.076741 
L 581.018284 473.982967 
L 590.13792 474.889193 
L 599.257557 475.795419 
L 608.377193 476.701645 
L 617.49683 477.607871 
L 626.616466 478.514097 
L 635.736102 479.420323 
L 644.855739 480.326549 
L 653.975375 481.232775 
L 663.095011 482.139001 
L 672.214648 483.045227 
L 681.334284 483.951453 
L 690.45392 484.857679 
L 699.573557 485.763905 
L 708.693193 486.67013 
L 717.81283 487.576356 
L 726.932466 488.482582 
L 736.052102 489.388808 
L 745.171739 490.295034 
L 754.291375 491.20126 
L 763.411011 492.107486 
L 772.530648 493.013712 
L 781.650284 493.919938 
L 790.76992 494.826164 
L 799.889557 495.73239 
L 809.009193 496.638616 
L 818.12883 497.544842 
L 827.248466 498.451068 
L 836.368102 499.357294 
L 845.487739 500.263519 
L 854.607375 501.169745 
L 863.727011 502.075971 
L 872.846648 502.982197 
L 881.966284 503.888423 
L 891.08592 504.794649 
L 900.205557 505.700875 
L 909.325193 506.607101 
L 918.44483 507.513327 
L 927.564466 508.419553 
L 936.684102 509.325779 
L 945.803739 510.232005 
L 954.923375 511.138231 
" clip-path="url(#p53932daec7)" style="fill: none; stroke-dasharray: 1.5,2.475; stroke-dashoffset: 0; stroke: #e9a942; stroke-width: 1.5"/>
   </g>
   <g id="line2d_45">
    <path d="M 52.079375 460.846501 
L 61.199011 461.105393 
L 70.318648 461.364286 
L 79.438284 461.623178 
L 88.55792 461.88207 
L 97.677557 462.140962 
L 106.797193 462.399855 
L 115.91683 462.658747 
L 125.036466 462.917639 
L 134.156102 463.176531 
L 143.275739 463.435424 
L 152.395375 463.694316 
L 161.515011 463.953208 
L 170.634648 464.2121 
L 179.754284 464.470993 
L 188.87392 464.729885 
L 197.993557 464.988777 
L 207.113193 465.247669 
L 216.23283 465.506562 
L 225.352466 465.765454 
L 234.472102 466.024346 
L 243.591739 466.283238 
L 252.711375 466.542131 
L 261.831011 466.801023 
L 270.950648 467.059915 
L 280.070284 467.318807 
L 289.18992 467.5777 
L 298.309557 467.836592 
L 307.429193 468.095484 
L 316.54883 468.354376 
L 325.668466 468.613269 
L 334.788102 468.872161 
L 343.907739 469.131053 
L 353.027375 469.389945 
L 362.147011 469.648838 
L 371.266648 469.90773 
L 380.386284 470.166622 
L 389.50592 470.425514 
L 398.625557 470.684407 
L 407.745193 470.943299 
L 416.86483 471.202191 
L 425.984466 471.461083 
L 435.104102 471.719976 
L 444.223739 471.978868 
L 453.343375 472.23776 
L 462.463011 472.496652 
L 471.582648 472.755545 
L 480.702284 473.014437 
L 489.82192 473.273329 
L 498.941557 473.532221 
L 508.061193 473.791114 
L 517.18083 474.050006 
L 526.300466 474.308898 
L 535.420102 474.56779 
L 544.539739 474.826683 
L 553.659375 475.085575 
L 562.779011 475.344467 
L 571.898648 475.603359 
L 581.018284 475.862252 
L 590.13792 476.121144 
L 599.257557 476.380036 
L 608.377193 476.638928 
L 617.49683 476.897821 
L 626.616466 477.156713 
L 635.736102 477.415605 
L 644.855739 477.674498 
L 653.975375 477.93339 
L 663.095011 478.192282 
L 672.214648 478.451174 
L 681.334284 478.710067 
L 690.45392 478.968959 
L 699.573557 479.227851 
L 708.693193 479.486743 
L 717.81283 479.745636 
L 726.932466 480.004528 
L 736.052102 480.26342 
L 745.171739 480.522312 
L 754.291375 480.781205 
L 763.411011 481.040097 
L 772.530648 481.298989 
L 781.650284 481.557881 
L 790.76992 481.816774 
L 799.889557 482.075666 
L 809.009193 482.334558 
L 818.12883 482.59345 
L 827.248466 482.852343 
L 836.368102 483.111235 
L 845.487739 483.370127 
L 854.607375 483.629019 
L 863.727011 483.887912 
L 872.846648 484.146804 
L 881.966284 484.405696 
L 891.08592 484.664588 
L 900.205557 484.923481 
L 909.325193 485.182373 
L 918.44483 485.441265 
L 927.564466 485.700157 
L 936.684102 485.95905 
L 945.803739 486.217942 
L 954.923375 486.476834 
" clip-path="url(#p53932daec7)" style="fill: none; stroke-dasharray: 1.5,2.475; stroke-dashoffset: 0; stroke: #9a5689; stroke-width: 1.5"/>
   </g>
   <g id="line2d_46">
    <path d="M 52.079375 533.615267 
L 61.199011 533.646403 
L 70.318648 533.677538 
L 79.438284 533.708673 
L 88.55792 533.739808 
L 97.677557 533.770943 
L 106.797193 533.802079 
L 115.91683 533.833214 
L 125.036466 533.864349 
L 134.156102 533.895484 
L 143.275739 533.92662 
L 152.395375 533.957755 
L 161.515011 533.98889 
L 170.634648 534.020025 
L 179.754284 534.051161 
L 188.87392 534.082296 
L 197.993557 534.113431 
L 207.113193 534.144566 
L 216.23283 534.175701 
L 225.352466 534.206837 
L 234.472102 534.237972 
L 243.591739 534.269107 
L 252.711375 534.300242 
L 261.831011 534.331378 
L 270.950648 534.362513 
L 280.070284 534.393648 
L 289.18992 534.424783 
L 298.309557 534.455919 
L 307.429193 534.487054 
L 316.54883 534.518189 
L 325.668466 534.549324 
L 334.788102 534.580459 
L 343.907739 534.611595 
L 353.027375 534.64273 
L 362.147011 534.673865 
L 371.266648 534.705 
L 380.386284 534.736136 
L 389.50592 534.767271 
L 398.625557 534.798406 
L 407.745193 534.829541 
L 416.86483 534.860677 
L 425.984466 534.891812 
L 435.104102 534.922947 
L 444.223739 534.954082 
L 453.343375 534.985217 
L 462.463011 535.016353 
L 471.582648 535.047488 
L 480.702284 535.078623 
L 489.82192 535.109758 
L 498.941557 535.140894 
L 508.061193 535.172029 
L 517.18083 535.203164 
L 526.300466 535.234299 
L 535.420102 535.265435 
L 544.539739 535.29657 
L 553.659375 535.327705 
L 562.779011 535.35884 
L 571.898648 535.389975 
L 581.018284 535.421111 
L 590.13792 535.452246 
L 599.257557 535.483381 
L 608.377193 535.514516 
L 617.49683 535.545652 
L 626.616466 535.576787 
L 635.736102 535.607922 
L 644.855739 535.639057 
L 653.975375 535.670193 
L 663.095011 535.701328 
L 672.214648 535.732463 
L 681.334284 535.763598 
L 690.45392 535.794733 
L 699.573557 535.825869 
L 708.693193 535.857004 
L 717.81283 535.888139 
L 726.932466 535.919274 
L 736.052102 535.95041 
L 745.171739 535.981545 
L 754.291375 536.01268 
L 763.411011 536.043815 
L 772.530648 536.074951 
L 781.650284 536.106086 
L 790.76992 536.137221 
L 799.889557 536.168356 
L 809.009193 536.199491 
L 818.12883 536.230627 
L 827.248466 536.261762 
L 836.368102 536.292897 
L 845.487739 536.324032 
L 854.607375 536.355168 
L 863.727011 536.386303 
L 872.846648 536.417438 
L 881.966284 536.448573 
L 891.08592 536.479709 
L 900.205557 536.510844 
L 909.325193 536.541979 
L 918.44483 536.573114 
L 927.564466 536.604249 
L 936.684102 536.635385 
L 945.803739 536.66652 
L 954.923375 536.697655 
" clip-path="url(#p53932daec7)" style="fill: none; stroke-dasharray: 1.5,2.475; stroke-dashoffset: 0; stroke: #be503b; stroke-width: 1.5"/>
   </g>
   <g id="line2d_47">
    <path d="M 52.079375 323.748244 
L 61.199011 323.630096 
L 70.318648 323.511949 
L 79.438284 323.393802 
L 88.55792 323.275655 
L 97.677557 323.157508 
L 106.797193 323.03936 
L 115.91683 322.921213 
L 125.036466 322.803066 
L 134.156102 322.684919 
L 143.275739 322.566772 
L 152.395375 322.448624 
L 161.515011 322.330477 
L 170.634648 322.21233 
L 179.754284 322.094183 
L 188.87392 321.976036 
L 197.993557 321.857889 
L 207.113193 321.739741 
L 216.23283 321.621594 
L 225.352466 321.503447 
L 234.472102 321.3853 
L 243.591739 321.267153 
L 252.711375 321.149005 
L 261.831011 321.030858 
L 270.950648 320.912711 
L 280.070284 320.794564 
L 289.18992 320.676417 
L 298.309557 320.558269 
L 307.429193 320.440122 
L 316.54883 320.321975 
L 325.668466 320.203828 
L 334.788102 320.085681 
L 343.907739 319.967533 
L 353.027375 319.849386 
L 362.147011 319.731239 
L 371.266648 319.613092 
L 380.386284 319.494945 
L 389.50592 319.376798 
L 398.625557 319.25865 
L 407.745193 319.140503 
L 416.86483 319.022356 
L 425.984466 318.904209 
L 435.104102 318.786062 
L 444.223739 318.667914 
L 453.343375 318.549767 
L 462.463011 318.43162 
L 471.582648 318.313473 
L 480.702284 318.195326 
L 489.82192 318.077178 
L 498.941557 317.959031 
L 508.061193 317.840884 
L 517.18083 317.722737 
L 526.300466 317.60459 
L 535.420102 317.486442 
L 544.539739 317.368295 
L 553.659375 317.250148 
L 562.779011 317.132001 
L 571.898648 317.013854 
L 581.018284 316.895707 
L 590.13792 316.777559 
L 599.257557 316.659412 
L 608.377193 316.541265 
L 617.49683 316.423118 
L 626.616466 316.304971 
L 635.736102 316.186823 
L 644.855739 316.068676 
L 653.975375 315.950529 
L 663.095011 315.832382 
L 672.214648 315.714235 
L 681.334284 315.596087 
L 690.45392 315.47794 
L 699.573557 315.359793 
L 708.693193 315.241646 
L 717.81283 315.123499 
L 726.932466 315.005351 
L 736.052102 314.887204 
L 745.171739 314.769057 
L 754.291375 314.65091 
L 763.411011 314.532763 
L 772.530648 314.414616 
L 781.650284 314.296468 
L 790.76992 314.178321 
L 799.889557 314.060174 
L 809.009193 313.942027 
L 818.12883 313.82388 
L 827.248466 313.705732 
L 836.368102 313.587585 
L 845.487739 313.469438 
L 854.607375 313.351291 
L 863.727011 313.233144 
L 872.846648 313.114996 
L 881.966284 312.996849 
L 891.08592 312.878702 
L 900.205557 312.760555 
L 909.325193 312.642408 
L 918.44483 312.524261 
L 927.564466 312.406113 
L 936.684102 312.287966 
L 945.803739 312.169819 
L 954.923375 312.051672 
" clip-path="url(#p53932daec7)" style="fill: none; stroke-dasharray: 1.5,2.475; stroke-dashoffset: 0; stroke: #e2321d; stroke-width: 1.5"/>
   </g>
   <g id="line2d_48">
    <path d="M 52.079375 107.593995 
L 61.199011 107.02388 
L 70.318648 106.453765 
L 79.438284 105.883651 
L 88.55792 105.313536 
L 97.677557 104.743421 
L 106.797193 104.173306 
L 115.91683 103.603191 
L 125.036466 103.033076 
L 134.156102 102.462961 
L 143.275739 101.892846 
L 152.395375 101.322732 
L 161.515011 100.752617 
L 170.634648 100.182502 
L 179.754284 99.612387 
L 188.87392 99.042272 
L 197.993557 98.472157 
L 207.113193 97.902042 
L 216.23283 97.331927 
L 225.352466 96.761812 
L 234.472102 96.191698 
L 243.591739 95.621583 
L 252.711375 95.051468 
L 261.831011 94.481353 
L 270.950648 93.911238 
L 280.070284 93.341123 
L 289.18992 92.771008 
L 298.309557 92.200893 
L 307.429193 91.630778 
L 316.54883 91.060664 
L 325.668466 90.490549 
L 334.788102 89.920434 
L 343.907739 89.350319 
L 353.027375 88.780204 
L 362.147011 88.210089 
L 371.266648 87.639974 
L 380.386284 87.069859 
L 389.50592 86.499744 
L 398.625557 85.92963 
L 407.745193 85.359515 
L 416.86483 84.7894 
L 425.984466 84.219285 
L 435.104102 83.64917 
L 444.223739 83.079055 
L 453.343375 82.50894 
L 462.463011 81.938825 
L 471.582648 81.368711 
L 480.702284 80.798596 
L 489.82192 80.228481 
L 498.941557 79.658366 
L 508.061193 79.088251 
L 517.18083 78.518136 
L 526.300466 77.948021 
L 535.420102 77.377906 
L 544.539739 76.807791 
L 553.659375 76.237677 
L 562.779011 75.667562 
L 571.898648 75.097447 
L 581.018284 74.527332 
L 590.13792 73.957217 
L 599.257557 73.387102 
L 608.377193 72.816987 
L 617.49683 72.246872 
L 626.616466 71.676757 
L 635.736102 71.106643 
L 644.855739 70.536528 
L 653.975375 69.966413 
L 663.095011 69.396298 
L 672.214648 68.826183 
L 681.334284 68.256068 
L 690.45392 67.685953 
L 699.573557 67.115838 
L 708.693193 66.545723 
L 717.81283 65.975609 
L 726.932466 65.405494 
L 736.052102 64.835379 
L 745.171739 64.265264 
L 754.291375 63.695149 
L 763.411011 63.125034 
L 772.530648 62.554919 
L 781.650284 61.984804 
L 790.76992 61.41469 
L 799.889557 60.844575 
L 809.009193 60.27446 
L 818.12883 59.704345 
L 827.248466 59.13423 
L 836.368102 58.564115 
L 845.487739 57.994 
L 854.607375 57.423885 
L 863.727011 56.85377 
L 872.846648 56.283656 
L 881.966284 55.713541 
L 891.08592 55.143426 
L 900.205557 54.573311 
L 909.325193 54.003196 
L 918.44483 53.433081 
L 927.564466 52.862966 
L 936.684102 52.292851 
L 945.803739 51.722736 
L 954.923375 51.152622 
" clip-path="url(#p53932daec7)" style="fill: none; stroke-dasharray: 1.5,2.475; stroke-dashoffset: 0; stroke: #48b585; stroke-width: 1.5"/>
   </g>
   <g id="line2d_49">
    <path d="M 52.079375 351.689345 
L 69.782199 350.382468 
L 87.485022 347.055061 
L 105.187846 351.422305 
L 122.890669 351.795146 
L 140.593493 337.55092 
L 158.296316 319.617805 
L 175.99914 335.96096 
L 193.701963 329.822645 
L 211.404787 324.013673 
L 229.10761 321.941829 
L 246.810434 315.418021 
L 264.513257 310.605115 
L 282.216081 311.462139 
L 299.918904 308.600514 
L 317.621728 311.77018 
L 335.324551 318.757591 
L 353.027375 307.978017 
L 370.730199 310.921029 
L 388.433022 312.565442 
L 406.135846 311.540755 
L 423.838669 311.817519 
L 441.541493 312.450836 
L 459.244316 321.847518 
L 476.94714 317.403465 
L 494.649963 315.571209 
L 512.352787 315.164324 
L 530.05561 319.021193 
L 547.758434 312.359711 
L 565.461257 324.092114 
L 583.164081 306.873859 
L 600.866904 318.627075 
L 618.569728 315.50103 
L 636.272551 316.918991 
L 653.975375 302.591138 
L 671.678199 307.033354 
L 689.381022 312.598184 
L 707.083846 306.051746 
L 724.786669 307.834968 
L 742.489493 302.138899 
L 760.192316 300.051611 
L 777.89514 302.529217 
L 795.597963 302.454294 
L 813.300787 301.697879 
L 831.00361 302.4233 
L 848.706434 298.58327 
L 866.409257 291.829475 
L 884.112081 288.571276 
L 901.814904 289.611171 
L 919.517728 299.326751 
L 937.220551 291.537846 
L 954.923375 284.287593 
" clip-path="url(#p53932daec7)" style="fill: none; stroke: #4ac1fa; stroke-width: 1.5; stroke-linecap: square"/>
   </g>
   <g id="line2d_50">
    <path d="M 52.079375 426.119323 
L 69.782199 427.144363 
L 87.485022 423.081467 
L 105.187846 409.640271 
L 122.890669 408.280979 
L 140.593493 399.563305 
L 158.296316 418.737317 
L 175.99914 416.832535 
L 193.701963 433.54748 
L 211.404787 435.747752 
L 229.10761 444.544812 
L 246.810434 447.981178 
L 264.513257 442.940633 
L 282.216081 456.480851 
L 299.918904 461.201095 
L 317.621728 443.109946 
L 335.324551 445.931034 
L 353.027375 462.324343 
L 370.730199 463.455615 
L 388.433022 461.39005 
L 406.135846 455.035534 
L 423.838669 462.870845 
L 441.541493 481.073317 
L 459.244316 465.001034 
L 476.94714 470.615899 
L 494.649963 471.059035 
L 512.352787 477.513272 
L 530.05561 476.024376 
L 547.758434 483.086715 
L 565.461257 478.194797 
L 583.164081 494.015371 
L 600.866904 480.1972 
L 618.569728 477.510818 
L 636.272551 472.889169 
L 653.975375 486.374824 
L 671.678199 486.483553 
L 689.381022 485.722482 
L 707.083846 488.638961 
L 724.786669 481.686816 
L 742.489493 493.489538 
L 760.192316 491.708992 
L 777.89514 488.567523 
L 795.597963 492.760516 
L 813.300787 491.814288 
L 831.00361 493.537412 
L 848.706434 493.169406 
L 866.409257 493.823857 
L 884.112081 495.172648 
L 901.814904 491.352918 
L 919.517728 492.731762 
L 937.220551 510.649115 
L 954.923375 515.736094 
" clip-path="url(#p53932daec7)" style="fill: none; stroke: #e9a942; stroke-width: 1.5; stroke-linecap: square"/>
   </g>
   <g id="line2d_51">
    <path d="M 52.079375 410.912553 
L 69.782199 402.814687 
L 87.485022 404.868391 
L 105.187846 402.61258 
L 122.890669 413.814163 
L 140.593493 465.344126 
L 158.296316 495.869436 
L 175.99914 500.204229 
L 193.701963 490.80761 
L 211.404787 488.313278 
L 229.10761 488.348348 
L 246.810434 483.493921 
L 264.513257 480.027302 
L 282.216081 479.65909 
L 299.918904 485.468929 
L 317.621728 487.7206 
L 335.324551 489.262215 
L 353.027375 483.90757 
L 370.730199 486.149107 
L 388.433022 485.168718 
L 406.135846 486.896062 
L 423.838669 485.866305 
L 441.541493 481.715689 
L 459.244316 485.600755 
L 476.94714 486.39559 
L 494.649963 486.611992 
L 512.352787 480.651362 
L 530.05561 481.328573 
L 547.758434 480.23433 
L 565.461257 469.824304 
L 583.164081 471.689148 
L 600.866904 481.068162 
L 618.569728 482.085135 
L 636.272551 481.852431 
L 653.975375 476.302909 
L 671.678199 474.830708 
L 689.381022 474.018404 
L 707.083846 477.286795 
L 724.786669 478.481832 
L 742.489493 477.236873 
L 760.192316 476.448097 
L 777.89514 476.504952 
L 795.597963 479.545925 
L 813.300787 475.733718 
L 831.00361 470.593961 
L 848.706434 473.412235 
L 866.409257 474.514274 
L 884.112081 474.932493 
L 901.814904 476.255561 
L 919.517728 478.783415 
L 937.220551 474.529176 
L 954.923375 474.408696 
" clip-path="url(#p53932daec7)" style="fill: none; stroke: #9a5689; stroke-width: 1.5; stroke-linecap: square"/>
   </g>
   <g id="line2d_52">
    <path d="M 52.079375 535.00781 
L 69.782199 534.899265 
L 87.485022 535.353038 
L 105.187846 535.869419 
L 122.890669 536.486505 
L 140.593493 536.872381 
L 158.296316 533.97298 
L 175.99914 536.317802 
L 193.701963 533.492091 
L 211.404787 531.683128 
L 229.10761 532.201604 
L 246.810434 531.280166 
L 264.513257 530.93787 
L 282.216081 532.204708 
L 299.918904 531.414579 
L 317.621728 533.668511 
L 335.324551 534.730822 
L 353.027375 532.804272 
L 370.730199 533.963488 
L 388.433022 533.865784 
L 406.135846 534.727126 
L 423.838669 535.235559 
L 441.541493 534.070421 
L 459.244316 535.049922 
L 476.94714 535.882898 
L 494.649963 536.272697 
L 512.352787 535.796626 
L 530.05561 536.234195 
L 547.758434 535.74192 
L 565.461257 536.048777 
L 583.164081 534.426182 
L 600.866904 536.713604 
L 618.569728 537.398378 
L 636.272551 537.594145 
L 653.975375 534.020109 
L 671.678199 534.267805 
L 689.381022 535.410824 
L 707.083846 535.161844 
L 724.786669 536.585183 
L 742.489493 535.615208 
L 760.192316 536.262117 
L 777.89514 536.673804 
L 795.597963 536.38862 
L 813.300787 536.278503 
L 831.00361 536.649482 
L 848.706434 535.964798 
L 866.409257 537.200052 
L 884.112081 536.938305 
L 901.814904 537.323459 
L 919.517728 537.550167 
L 937.220551 536.194785 
L 954.923375 535.43225 
" clip-path="url(#p53932daec7)" style="fill: none; stroke: #be503b; stroke-width: 1.5; stroke-linecap: square"/>
   </g>
   <g id="line2d_53">
    <path d="M 52.079375 342.886153 
L 69.782199 342.33566 
L 87.485022 340.580121 
L 105.187846 343.910339 
L 122.890669 343.047988 
L 140.593493 341.167235 
L 158.296316 326.921849 
L 175.99914 337.418812 
L 193.701963 324.221101 
L 211.404787 322.123825 
L 229.10761 321.701818 
L 246.810434 314.89336 
L 264.513257 307.680091 
L 282.216081 310.3927 
L 299.918904 307.32614 
L 317.621728 318.342036 
L 335.324551 308.582866 
L 353.027375 310.821194 
L 370.730199 310.692254 
L 388.433022 313.752742 
L 406.135846 316.445549 
L 423.838669 316.503557 
L 441.541493 285.154635 
L 459.244316 297.428315 
L 476.94714 298.837983 
L 494.649963 301.571348 
L 512.352787 297.152672 
L 530.05561 305.671454 
L 547.758434 308.725065 
L 565.461257 315.77092 
L 583.164081 310.352203 
L 600.866904 311.044461 
L 618.569728 310.104702 
L 636.272551 317.29634 
L 653.975375 314.827944 
L 671.678199 316.15253 
L 689.381022 314.982052 
L 707.083846 313.546073 
L 724.786669 322.237725 
L 742.489493 315.810152 
L 760.192316 318.855537 
L 777.89514 320.51731 
L 795.597963 309.175886 
L 813.300787 313.852898 
L 831.00361 315.333508 
L 848.706434 319.106008 
L 866.409257 327.695833 
L 884.112081 326.169813 
L 901.814904 326.377146 
L 919.517728 330.136331 
L 937.220551 323.120967 
L 954.923375 322.042598 
" clip-path="url(#p53932daec7)" style="fill: none; stroke: #e2321d; stroke-width: 1.5; stroke-linecap: square"/>
   </g>
   <g id="line2d_54">
    <path d="M 52.079375 115.248975 
L 69.782199 124.285253 
L 87.485022 131.894385 
L 105.187846 139.249655 
L 122.890669 129.128126 
L 140.593493 102.668161 
L 158.296316 89.558029 
L 175.99914 57.172286 
L 193.701963 73.533399 
L 211.404787 84.574965 
L 229.10761 77.318487 
L 246.810434 94.073235 
L 264.513257 115.555757 
L 282.216081 96.915334 
L 299.918904 93.754764 
L 317.621728 92.35807 
L 335.324551 89.306931 
L 353.027375 89.810089 
L 370.730199 82.71532 
L 388.433022 80.655591 
L 406.135846 82.709229 
L 423.838669 75.177139 
L 441.541493 94.358481 
L 459.244316 82.121361 
L 476.94714 77.307554 
L 494.649963 75.152064 
L 512.352787 80.577072 
L 530.05561 67.904274 
L 547.758434 66.064846 
L 565.461257 61.796139 
L 583.164081 70.551656 
L 600.866904 58.441821 
L 618.569728 63.559051 
L 636.272551 60.451675 
L 653.975375 74.358527 
L 671.678199 70.103105 
L 689.381022 64.716152 
L 707.083846 66.393525 
L 724.786669 60.434915 
L 742.489493 63.506115 
L 760.192316 64.385492 
L 777.89514 63.236661 
L 795.597963 68.010902 
L 813.300787 68.609129 
L 831.00361 68.945285 
L 848.706434 67.798763 
L 866.409257 62.52094 
L 884.112081 65.911222 
L 901.814904 66.602035 
L 919.517728 48.591864 
L 937.220551 51.663174 
L 954.923375 55.675058 
" clip-path="url(#p53932daec7)" style="fill: none; stroke: #48b585; stroke-width: 6; stroke-linecap: square"/>
   </g>
   <g id="patch_3">
    <path d="M 52.079375 578.54175 
L 52.079375 24.14175 
" style="fill: none; stroke: #ffffff; stroke-linejoin: miter; stroke-linecap: square"/>
   </g>
   <g id="patch_4">
    <path d="M 954.923375 578.54175 
L 954.923375 24.14175 
" style="fill: none; stroke: #ffffff; stroke-linejoin: miter; stroke-linecap: square"/>
   </g>
   <g id="patch_5">
    <path d="M 52.079375 578.54175 
L 954.923375 578.54175 
" style="fill: none; stroke: #ffffff; stroke-linejoin: miter; stroke-linecap: square"/>
   </g>
   <g id="patch_6">
    <path d="M 52.079375 24.14175 
L 954.923375 24.14175 
" style="fill: none; stroke: #ffffff; stroke-linejoin: miter; stroke-linecap: square"/>
   </g>
   <g id="text_24">
    <!-- Enterprise Linux Instances by Distribution Share (System Age &gt; 1 Week) -->
    <g transform="translate(52.079375 18.14175) scale(0.144 -0.144)">
     <defs>
      <path id="DejaVuSans-45" d="M 628 4666 
L 3578 4666 
L 3578 4134 
L 1259 4134 
L 1259 2753 
L 3481 2753 
L 3481 2222 
L 1259 2222 
L 1259 531 
L 3634 531 
L 3634 0 
L 628 0 
L 628 4666 
z
" transform="scale(0.015625)"/>
      <path id="DejaVuSans-6e" d="M 3513 2113 
L 3513 0 
L 2938 0 
L 2938 2094 
Q 2938 2591 2744 2837 
Q 2550 3084 2163 3084 
Q 1697 3084 1428 2787 
Q 1159 2491 1159 1978 
L 1159 0 
L 581 0 
L 581 3500 
L 1159 3500 
L 1159 2956 
Q 1366 3272 1645 3428 
Q 1925 3584 2291 3584 
Q 2894 3584 3203 3211 
Q 3513 2838 3513 2113 
z
" transform="scale(0.015625)"/>
      <path id="DejaVuSans-70" d="M 1159 525 
L 1159 -1331 
L 581 -1331 
L 581 3500 
L 1159 3500 
L 1159 2969 
Q 1341 3281 1617 3432 
Q 1894 3584 2278 3584 
Q 2916 3584 3314 3078 
Q 3713 2572 3713 1747 
Q 3713 922 3314 415 
Q 2916 -91 2278 -91 
Q 1894 -91 1617 61 
Q 1341 213 1159 525 
z
M 3116 1747 
Q 3116 2381 2855 2742 
Q 2594 3103 2138 3103 
Q 1681 3103 1420 2742 
Q 1159 2381 1159 1747 
Q 1159 1113 1420 752 
Q 1681 391 2138 391 
Q 2594 391 2855 752 
Q 3116 1113 3116 1747 
z
" transform="scale(0.015625)"/>
      <path id="DejaVuSans-69" d="M 603 3500 
L 1178 3500 
L 1178 0 
L 603 0 
L 603 3500 
z
M 603 4863 
L 1178 4863 
L 1178 4134 
L 603 4134 
L 603 4863 
z
" transform="scale(0.015625)"/>
      <path id="DejaVuSans-73" d="M 2834 3397 
L 2834 2853 
Q 2591 2978 2328 3040 
Q 2066 3103 1784 3103 
Q 1356 3103 1142 2972 
Q 928 2841 928 2578 
Q 928 2378 1081 2264 
Q 1234 2150 1697 2047 
L 1894 2003 
Q 2506 1872 2764 1633 
Q 3022 1394 3022 966 
Q 3022 478 2636 193 
Q 2250 -91 1575 -91 
Q 1294 -91 989 -36 
Q 684 19 347 128 
L 347 722 
Q 666 556 975 473 
Q 1284 391 1588 391 
Q 1994 391 2212 530 
Q 2431 669 2431 922 
Q 2431 1156 2273 1281 
Q 2116 1406 1581 1522 
L 1381 1569 
Q 847 1681 609 1914 
Q 372 2147 372 2553 
Q 372 3047 722 3315 
Q 1072 3584 1716 3584 
Q 2034 3584 2315 3537 
Q 2597 3491 2834 3397 
z
" transform="scale(0.015625)"/>
      <path id="DejaVuSans-20" transform="scale(0.015625)"/>
      <path id="DejaVuSans-4c" d="M 628 4666 
L 1259 4666 
L 1259 531 
L 3531 531 
L 3531 0 
L 628 0 
L 628 4666 
z
" transform="scale(0.015625)"/>
      <path id="DejaVuSans-75" d="M 544 1381 
L 544 3500 
L 1119 3500 
L 1119 1403 
Q 1119 906 1312 657 
Q 1506 409 1894 409 
Q 2359 409 2629 706 
Q 2900 1003 2900 1516 
L 2900 3500 
L 3475 3500 
L 3475 0 
L 2900 0 
L 2900 538 
Q 2691 219 2414 64 
Q 2138 -91 1772 -91 
Q 1169 -91 856 284 
Q 544 659 544 1381 
z
M 1991 3584 
L 1991 3584 
z
" transform="scale(0.015625)"/>
      <path id="DejaVuSans-78" d="M 3513 3500 
L 2247 1797 
L 3578 0 
L 2900 0 
L 1881 1375 
L 863 0 
L 184 0 
L 1544 1831 
L 300 3500 
L 978 3500 
L 1906 2253 
L 2834 3500 
L 3513 3500 
z
" transform="scale(0.015625)"/>
      <path id="DejaVuSans-49" d="M 628 4666 
L 1259 4666 
L 1259 0 
L 628 0 
L 628 4666 
z
" transform="scale(0.015625)"/>
      <path id="DejaVuSans-63" d="M 3122 3366 
L 3122 2828 
Q 2878 2963 2633 3030 
Q 2388 3097 2138 3097 
Q 1578 3097 1268 2742 
Q 959 2388 959 1747 
Q 959 1106 1268 751 
Q 1578 397 2138 397 
Q 2388 397 2633 464 
Q 2878 531 3122 666 
L 3122 134 
Q 2881 22 2623 -34 
Q 2366 -91 2075 -91 
Q 1284 -91 818 406 
Q 353 903 353 1747 
Q 353 2603 823 3093 
Q 1294 3584 2113 3584 
Q 2378 3584 2631 3529 
Q 2884 3475 3122 3366 
z
" transform="scale(0.015625)"/>
      <path id="DejaVuSans-62" d="M 3116 1747 
Q 3116 2381 2855 2742 
Q 2594 3103 2138 3103 
Q 1681 3103 1420 2742 
Q 1159 2381 1159 1747 
Q 1159 1113 1420 752 
Q 1681 391 2138 391 
Q 2594 391 2855 752 
Q 3116 1113 3116 1747 
z
M 1159 2969 
Q 1341 3281 1617 3432 
Q 1894 3584 2278 3584 
Q 2916 3584 3314 3078 
Q 3713 2572 3713 1747 
Q 3713 922 3314 415 
Q 2916 -91 2278 -91 
Q 1894 -91 1617 61 
Q 1341 213 1159 525 
L 1159 0 
L 581 0 
L 581 4863 
L 1159 4863 
L 1159 2969 
z
" transform="scale(0.015625)"/>
      <path id="DejaVuSans-79" d="M 2059 -325 
Q 1816 -950 1584 -1140 
Q 1353 -1331 966 -1331 
L 506 -1331 
L 506 -850 
L 844 -850 
Q 1081 -850 1212 -737 
Q 1344 -625 1503 -206 
L 1606 56 
L 191 3500 
L 800 3500 
L 1894 763 
L 2988 3500 
L 3597 3500 
L 2059 -325 
z
" transform="scale(0.015625)"/>
      <path id="DejaVuSans-6f" d="M 1959 3097 
Q 1497 3097 1228 2736 
Q 959 2375 959 1747 
Q 959 1119 1226 758 
Q 1494 397 1959 397 
Q 2419 397 2687 759 
Q 2956 1122 2956 1747 
Q 2956 2369 2687 2733 
Q 2419 3097 1959 3097 
z
M 1959 3584 
Q 2709 3584 3137 3096 
Q 3566 2609 3566 1747 
Q 3566 888 3137 398 
Q 2709 -91 1959 -91 
Q 1206 -91 779 398 
Q 353 888 353 1747 
Q 353 2609 779 3096 
Q 1206 3584 1959 3584 
z
" transform="scale(0.015625)"/>
      <path id="DejaVuSans-28" d="M 1984 4856 
Q 1566 4138 1362 3434 
Q 1159 2731 1159 2009 
Q 1159 1288 1364 580 
Q 1569 -128 1984 -844 
L 1484 -844 
Q 1016 -109 783 600 
Q 550 1309 550 2009 
Q 550 2706 781 3412 
Q 1013 4119 1484 4856 
L 1984 4856 
z
" transform="scale(0.015625)"/>
      <path id="DejaVuSans-6d" d="M 3328 2828 
Q 3544 3216 3844 3400 
Q 4144 3584 4550 3584 
Q 5097 3584 5394 3201 
Q 5691 2819 5691 2113 
L 5691 0 
L 5113 0 
L 5113 2094 
Q 5113 2597 4934 2840 
Q 4756 3084 4391 3084 
Q 3944 3084 3684 2787 
Q 3425 2491 3425 1978 
L 3425 0 
L 2847 0 
L 2847 2094 
Q 2847 2600 2669 2842 
Q 2491 3084 2119 3084 
Q 1678 3084 1418 2786 
Q 1159 2488 1159 1978 
L 1159 0 
L 581 0 
L 581 3500 
L 1159 3500 
L 1159 2956 
Q 1356 3278 1631 3431 
Q 1906 3584 2284 3584 
Q 2666 3584 2933 3390 
Q 3200 3197 3328 2828 
z
" transform="scale(0.015625)"/>
      <path id="DejaVuSans-41" d="M 2188 4044 
L 1331 1722 
L 3047 1722 
L 2188 4044 
z
M 1831 4666 
L 2547 4666 
L 4325 0 
L 3669 0 
L 3244 1197 
L 1141 1197 
L 716 0 
L 50 0 
L 1831 4666 
z
" transform="scale(0.015625)"/>
      <path id="DejaVuSans-67" d="M 2906 1791 
Q 2906 2416 2648 2759 
Q 2391 3103 1925 3103 
Q 1463 3103 1205 2759 
Q 947 2416 947 1791 
Q 947 1169 1205 825 
Q 1463 481 1925 481 
Q 2391 481 2648 825 
Q 2906 1169 2906 1791 
z
M 3481 434 
Q 3481 -459 3084 -895 
Q 2688 -1331 1869 -1331 
Q 1566 -1331 1297 -1286 
Q 1028 -1241 775 -1147 
L 775 -588 
Q 1028 -725 1275 -790 
Q 1522 -856 1778 -856 
Q 2344 -856 2625 -561 
Q 2906 -266 2906 331 
L 2906 616 
Q 2728 306 2450 153 
Q 2172 0 1784 0 
Q 1141 0 747 490 
Q 353 981 353 1791 
Q 353 2603 747 3093 
Q 1141 3584 1784 3584 
Q 2172 3584 2450 3431 
Q 2728 3278 2906 2969 
L 2906 3500 
L 3481 3500 
L 3481 434 
z
" transform="scale(0.015625)"/>
      <path id="DejaVuSans-3e" d="M 678 3150 
L 678 3719 
L 4684 2266 
L 4684 1747 
L 678 294 
L 678 863 
L 3897 2003 
L 678 3150 
z
" transform="scale(0.015625)"/>
      <path id="DejaVuSans-57" d="M 213 4666 
L 850 4666 
L 1831 722 
L 2809 4666 
L 3519 4666 
L 4500 722 
L 5478 4666 
L 6119 4666 
L 4947 0 
L 4153 0 
L 3169 4050 
L 2175 0 
L 1381 0 
L 213 4666 
z
" transform="scale(0.015625)"/>
      <path id="DejaVuSans-6b" d="M 581 4863 
L 1159 4863 
L 1159 1991 
L 2875 3500 
L 3609 3500 
L 1753 1863 
L 3688 0 
L 2938 0 
L 1159 1709 
L 1159 0 
L 581 0 
L 581 4863 
z
" transform="scale(0.015625)"/>
      <path id="DejaVuSans-29" d="M 513 4856 
L 1013 4856 
Q 1481 4119 1714 3412 
Q 1947 2706 1947 2009 
Q 1947 1309 1714 600 
Q 1481 -109 1013 -844 
L 513 -844 
Q 928 -128 1133 580 
Q 1338 1288 1338 2009 
Q 1338 2731 1133 3434 
Q 928 4138 513 4856 
z
" transform="scale(0.015625)"/>
     </defs>
     <use xlink:href="#DejaVuSans-45"/>
     <use xlink:href="#DejaVuSans-6e" x="63.183594"/>
     <use xlink:href="#DejaVuSans-74" x="126.5625"/>
     <use xlink:href="#DejaVuSans-65" x="165.771484"/>
     <use xlink:href="#DejaVuSans-72" x="227.294922"/>
     <use xlink:href="#DejaVuSans-70" x="268.408203"/>
     <use xlink:href="#DejaVuSans-72" x="331.884766"/>
     <use xlink:href="#DejaVuSans-69" x="372.998047"/>
     <use xlink:href="#DejaVuSans-73" x="400.78125"/>
     <use xlink:href="#DejaVuSans-65" x="452.880859"/>
     <use xlink:href="#DejaVuSans-20" x="514.404297"/>
     <use xlink:href="#DejaVuSans-4c" x="546.191406"/>
     <use xlink:href="#DejaVuSans-69" x="601.904297"/>
     <use xlink:href="#DejaVuSans-6e" x="629.6875"/>
     <use xlink:href="#DejaVuSans-75" x="693.066406"/>
     <use xlink:href="#DejaVuSans-78" x="756.445312"/>
     <use xlink:href="#DejaVuSans-20" x="815.625"/>
     <use xlink:href="#DejaVuSans-49" x="847.412109"/>
     <use xlink:href="#DejaVuSans-6e" x="876.904297"/>
     <use xlink:href="#DejaVuSans-73" x="940.283203"/>
     <use xlink:href="#DejaVuSans-74" x="992.382812"/>
     <use xlink:href="#DejaVuSans-61" x="1031.591797"/>
     <use xlink:href="#DejaVuSans-6e" x="1092.871094"/>
     <use xlink:href="#DejaVuSans-63" x="1156.25"/>
     <use xlink:href="#DejaVuSans-65" x="1211.230469"/>
     <use xlink:href="#DejaVuSans-73" x="1272.753906"/>
     <use xlink:href="#DejaVuSans-20" x="1324.853516"/>
     <use xlink:href="#DejaVuSans-62" x="1356.640625"/>
     <use xlink:href="#DejaVuSans-79" x="1420.117188"/>
     <use xlink:href="#DejaVuSans-20" x="1479.296875"/>
     <use xlink:href="#DejaVuSans-44" x="1511.083984"/>
     <use xlink:href="#DejaVuSans-69" x="1588.085938"/>
     <use xlink:href="#DejaVuSans-73" x="1615.869141"/>
     <use xlink:href="#DejaVuSans-74" x="1667.96875"/>
     <use xlink:href="#DejaVuSans-72" x="1707.177734"/>
     <use xlink:href="#DejaVuSans-69" x="1748.291016"/>
     <use xlink:href="#DejaVuSans-62" x="1776.074219"/>
     <use xlink:href="#DejaVuSans-75" x="1839.550781"/>
     <use xlink:href="#DejaVuSans-74" x="1902.929688"/>
     <use xlink:href="#DejaVuSans-69" x="1942.138672"/>
     <use xlink:href="#DejaVuSans-6f" x="1969.921875"/>
     <use xlink:href="#DejaVuSans-6e" x="2031.103516"/>
     <use xlink:href="#DejaVuSans-20" x="2094.482422"/>
     <use xlink:href="#DejaVuSans-53" x="2126.269531"/>
     <use xlink:href="#DejaVuSans-68" x="2189.746094"/>
     <use xlink:href="#DejaVuSans-61" x="2253.125"/>
     <use xlink:href="#DejaVuSans-72" x="2314.404297"/>
     <use xlink:href="#DejaVuSans-65" x="2353.267578"/>
     <use xlink:href="#DejaVuSans-20" x="2414.791016"/>
     <use xlink:href="#DejaVuSans-28" x="2446.578125"/>
     <use xlink:href="#DejaVuSans-53" x="2485.591797"/>
     <use xlink:href="#DejaVuSans-79" x="2549.068359"/>
     <use xlink:href="#DejaVuSans-73" x="2608.248047"/>
     <use xlink:href="#DejaVuSans-74" x="2660.347656"/>
     <use xlink:href="#DejaVuSans-65" x="2699.556641"/>
     <use xlink:href="#DejaVuSans-6d" x="2761.080078"/>
     <use xlink:href="#DejaVuSans-20" x="2858.492188"/>
     <use xlink:href="#DejaVuSans-41" x="2890.279297"/>
     <use xlink:href="#DejaVuSans-67" x="2958.6875"/>
     <use xlink:href="#DejaVuSans-65" x="3022.164062"/>
     <use xlink:href="#DejaVuSans-20" x="3083.6875"/>
     <use xlink:href="#DejaVuSans-3e" x="3115.474609"/>
     <use xlink:href="#DejaVuSans-20" x="3199.263672"/>
     <use xlink:href="#DejaVuSans-31" x="3231.050781"/>
     <use xlink:href="#DejaVuSans-20" x="3294.673828"/>
     <use xlink:href="#DejaVuSans-57" x="3326.460938"/>
     <use xlink:href="#DejaVuSans-65" x="3419.462891"/>
     <use xlink:href="#DejaVuSans-65" x="3480.986328"/>
     <use xlink:href="#DejaVuSans-6b" x="3542.509766"/>
     <use xlink:href="#DejaVuSans-29" x="3600.419922"/>
    </g>
   </g>
   <g id="text_25">
    <!-- 2025-05-01 11:55 UTC -->
    <g transform="translate(792.041375 18.14175) scale(0.144 -0.144)">
     <defs>
      <path id="DejaVuSans-3a" d="M 750 794 
L 1409 794 
L 1409 0 
L 750 0 
L 750 794 
z
M 750 3309 
L 1409 3309 
L 1409 2516 
L 750 2516 
L 750 3309 
z
" transform="scale(0.015625)"/>
      <path id="DejaVuSans-55" d="M 556 4666 
L 1191 4666 
L 1191 1831 
Q 1191 1081 1462 751 
Q 1734 422 2344 422 
Q 2950 422 3222 751 
Q 3494 1081 3494 1831 
L 3494 4666 
L 4128 4666 
L 4128 1753 
Q 4128 841 3676 375 
Q 3225 -91 2344 -91 
Q 1459 -91 1007 375 
Q 556 841 556 1753 
L 556 4666 
z
" transform="scale(0.015625)"/>
      <path id="DejaVuSans-54" d="M -19 4666 
L 3928 4666 
L 3928 4134 
L 2272 4134 
L 2272 0 
L 1638 0 
L 1638 4134 
L -19 4134 
L -19 4666 
z
" transform="scale(0.015625)"/>
      <path id="DejaVuSans-43" d="M 4122 4306 
L 4122 3641 
Q 3803 3938 3442 4084 
Q 3081 4231 2675 4231 
Q 1875 4231 1450 3742 
Q 1025 3253 1025 2328 
Q 1025 1406 1450 917 
Q 1875 428 2675 428 
Q 3081 428 3442 575 
Q 3803 722 4122 1019 
L 4122 359 
Q 3791 134 3420 21 
Q 3050 -91 2638 -91 
Q 1578 -91 968 557 
Q 359 1206 359 2328 
Q 359 3453 968 4101 
Q 1578 4750 2638 4750 
Q 3056 4750 3426 4639 
Q 3797 4528 4122 4306 
z
" transform="scale(0.015625)"/>
     </defs>
     <use xlink:href="#DejaVuSans-32"/>
     <use xlink:href="#DejaVuSans-30" x="63.623047"/>
     <use xlink:href="#DejaVuSans-32" x="127.246094"/>
     <use xlink:href="#DejaVuSans-35" x="190.869141"/>
     <use xlink:href="#DejaVuSans-2d" x="254.492188"/>
     <use xlink:href="#DejaVuSans-30" x="290.576172"/>
     <use xlink:href="#DejaVuSans-35" x="354.199219"/>
     <use xlink:href="#DejaVuSans-2d" x="417.822266"/>
     <use xlink:href="#DejaVuSans-30" x="453.90625"/>
     <use xlink:href="#DejaVuSans-31" x="517.529297"/>
     <use xlink:href="#DejaVuSans-20" x="581.152344"/>
     <use xlink:href="#DejaVuSans-31" x="612.939453"/>
     <use xlink:href="#DejaVuSans-31" x="676.5625"/>
     <use xlink:href="#DejaVuSans-3a" x="740.185547"/>
     <use xlink:href="#DejaVuSans-35" x="773.876953"/>
     <use xlink:href="#DejaVuSans-35" x="837.5"/>
     <use xlink:href="#DejaVuSans-20" x="901.123047"/>
     <use xlink:href="#DejaVuSans-55" x="932.910156"/>
     <use xlink:href="#DejaVuSans-54" x="1006.103516"/>
     <use xlink:href="#DejaVuSans-43" x="1061.3125"/>
    </g>
   </g>
   <g id="legend_1">
    <g id="patch_7">
     <path d="M 59.079375 134.888625 
L 168.048125 134.888625 
Q 170.048125 134.888625 170.048125 132.888625 
L 170.048125 31.14175 
Q 170.048125 29.14175 168.048125 29.14175 
L 59.079375 29.14175 
Q 57.079375 29.14175 57.079375 31.14175 
L 57.079375 132.888625 
Q 57.079375 134.888625 59.079375 134.888625 
z
" style="fill: #e5e5e5; opacity: 0.8; stroke: #cccccc; stroke-width: 0.5; stroke-linejoin: miter"/>
    </g>
    <g id="text_26">
     <!-- Distribution -->
     <g transform="translate(84.395 40.740188) scale(0.1 -0.1)">
      <use xlink:href="#DejaVuSans-44"/>
      <use xlink:href="#DejaVuSans-69" x="77.001953"/>
      <use xlink:href="#DejaVuSans-73" x="104.785156"/>
      <use xlink:href="#DejaVuSans-74" x="156.884766"/>
      <use xlink:href="#DejaVuSans-72" x="196.09375"/>
      <use xlink:href="#DejaVuSans-69" x="237.207031"/>
      <use xlink:href="#DejaVuSans-62" x="264.990234"/>
      <use xlink:href="#DejaVuSans-75" x="328.466797"/>
      <use xlink:href="#DejaVuSans-74" x="391.845703"/>
      <use xlink:href="#DejaVuSans-69" x="431.054688"/>
      <use xlink:href="#DejaVuSans-6f" x="458.837891"/>
      <use xlink:href="#DejaVuSans-6e" x="520.019531"/>
     </g>
    </g>
    <g id="line2d_55">
     <path d="M 61.079375 51.918313 
L 71.079375 51.918313 
L 81.079375 51.918313 
" style="fill: none; stroke: #4ac1fa; stroke-width: 1.5; stroke-linecap: square"/>
    </g>
    <g id="text_27">
     <!-- AlmaLinux -->
     <g transform="translate(89.079375 55.418313) scale(0.1 -0.1)">
      <defs>
       <path id="DejaVuSans-6c" d="M 603 4863 
L 1178 4863 
L 1178 0 
L 603 0 
L 603 4863 
z
" transform="scale(0.015625)"/>
      </defs>
      <use xlink:href="#DejaVuSans-41"/>
      <use xlink:href="#DejaVuSans-6c" x="68.408203"/>
      <use xlink:href="#DejaVuSans-6d" x="96.191406"/>
      <use xlink:href="#DejaVuSans-61" x="193.603516"/>
      <use xlink:href="#DejaVuSans-4c" x="254.882812"/>
      <use xlink:href="#DejaVuSans-69" x="310.595703"/>
      <use xlink:href="#DejaVuSans-6e" x="338.378906"/>
      <use xlink:href="#DejaVuSans-75" x="401.757812"/>
      <use xlink:href="#DejaVuSans-78" x="465.136719"/>
     </g>
    </g>
    <g id="line2d_56">
     <path d="M 61.079375 66.596438 
L 71.079375 66.596438 
L 81.079375 66.596438 
" style="fill: none; stroke: #e9a942; stroke-width: 1.5; stroke-linecap: square"/>
    </g>
    <g id="text_28">
     <!-- CentOS Legacy -->
     <g transform="translate(89.079375 70.096438) scale(0.1 -0.1)">
      <defs>
       <path id="DejaVuSans-4f" d="M 2522 4238 
Q 1834 4238 1429 3725 
Q 1025 3213 1025 2328 
Q 1025 1447 1429 934 
Q 1834 422 2522 422 
Q 3209 422 3611 934 
Q 4013 1447 4013 2328 
Q 4013 3213 3611 3725 
Q 3209 4238 2522 4238 
z
M 2522 4750 
Q 3503 4750 4090 4092 
Q 4678 3434 4678 2328 
Q 4678 1225 4090 567 
Q 3503 -91 2522 -91 
Q 1538 -91 948 565 
Q 359 1222 359 2328 
Q 359 3434 948 4092 
Q 1538 4750 2522 4750 
z
" transform="scale(0.015625)"/>
      </defs>
      <use xlink:href="#DejaVuSans-43"/>
      <use xlink:href="#DejaVuSans-65" x="69.824219"/>
      <use xlink:href="#DejaVuSans-6e" x="131.347656"/>
      <use xlink:href="#DejaVuSans-74" x="194.726562"/>
      <use xlink:href="#DejaVuSans-4f" x="233.935547"/>
      <use xlink:href="#DejaVuSans-53" x="312.646484"/>
      <use xlink:href="#DejaVuSans-20" x="376.123047"/>
      <use xlink:href="#DejaVuSans-4c" x="407.910156"/>
      <use xlink:href="#DejaVuSans-65" x="461.873047"/>
      <use xlink:href="#DejaVuSans-67" x="523.396484"/>
      <use xlink:href="#DejaVuSans-61" x="586.873047"/>
      <use xlink:href="#DejaVuSans-63" x="648.152344"/>
      <use xlink:href="#DejaVuSans-79" x="703.132812"/>
     </g>
    </g>
    <g id="line2d_57">
     <path d="M 61.079375 81.274563 
L 71.079375 81.274563 
L 81.079375 81.274563 
" style="fill: none; stroke: #9a5689; stroke-width: 1.5; stroke-linecap: square"/>
    </g>
    <g id="text_29">
     <!-- CentOS Stream -->
     <g transform="translate(89.079375 84.774563) scale(0.1 -0.1)">
      <use xlink:href="#DejaVuSans-43"/>
      <use xlink:href="#DejaVuSans-65" x="69.824219"/>
      <use xlink:href="#DejaVuSans-6e" x="131.347656"/>
      <use xlink:href="#DejaVuSans-74" x="194.726562"/>
      <use xlink:href="#DejaVuSans-4f" x="233.935547"/>
      <use xlink:href="#DejaVuSans-53" x="312.646484"/>
      <use xlink:href="#DejaVuSans-20" x="376.123047"/>
      <use xlink:href="#DejaVuSans-53" x="407.910156"/>
      <use xlink:href="#DejaVuSans-74" x="471.386719"/>
      <use xlink:href="#DejaVuSans-72" x="510.595703"/>
      <use xlink:href="#DejaVuSans-65" x="549.458984"/>
      <use xlink:href="#DejaVuSans-61" x="610.982422"/>
      <use xlink:href="#DejaVuSans-6d" x="672.261719"/>
     </g>
    </g>
    <g id="line2d_58">
     <path d="M 61.079375 95.952688 
L 71.079375 95.952688 
L 81.079375 95.952688 
" style="fill: none; stroke: #be503b; stroke-width: 1.5; stroke-linecap: square"/>
    </g>
    <g id="text_30">
     <!-- Oracle -->
     <g transform="translate(89.079375 99.452688) scale(0.1 -0.1)">
      <use xlink:href="#DejaVuSans-4f"/>
      <use xlink:href="#DejaVuSans-72" x="78.710938"/>
      <use xlink:href="#DejaVuSans-61" x="119.824219"/>
      <use xlink:href="#DejaVuSans-63" x="181.103516"/>
      <use xlink:href="#DejaVuSans-6c" x="236.083984"/>
      <use xlink:href="#DejaVuSans-65" x="263.867188"/>
     </g>
    </g>
    <g id="line2d_59">
     <path d="M 61.079375 110.630813 
L 71.079375 110.630813 
L 81.079375 110.630813 
" style="fill: none; stroke: #e2321d; stroke-width: 1.5; stroke-linecap: square"/>
    </g>
    <g id="text_31">
     <!-- RHEL -->
     <g transform="translate(89.079375 114.130813) scale(0.1 -0.1)">
      <defs>
       <path id="DejaVuSans-52" d="M 2841 2188 
Q 3044 2119 3236 1894 
Q 3428 1669 3622 1275 
L 4263 0 
L 3584 0 
L 2988 1197 
Q 2756 1666 2539 1819 
Q 2322 1972 1947 1972 
L 1259 1972 
L 1259 0 
L 628 0 
L 628 4666 
L 2053 4666 
Q 2853 4666 3247 4331 
Q 3641 3997 3641 3322 
Q 3641 2881 3436 2590 
Q 3231 2300 2841 2188 
z
M 1259 4147 
L 1259 2491 
L 2053 2491 
Q 2509 2491 2742 2702 
Q 2975 2913 2975 3322 
Q 2975 3731 2742 3939 
Q 2509 4147 2053 4147 
L 1259 4147 
z
" transform="scale(0.015625)"/>
       <path id="DejaVuSans-48" d="M 628 4666 
L 1259 4666 
L 1259 2753 
L 3553 2753 
L 3553 4666 
L 4184 4666 
L 4184 0 
L 3553 0 
L 3553 2222 
L 1259 2222 
L 1259 0 
L 628 0 
L 628 4666 
z
" transform="scale(0.015625)"/>
      </defs>
      <use xlink:href="#DejaVuSans-52"/>
      <use xlink:href="#DejaVuSans-48" x="69.482422"/>
      <use xlink:href="#DejaVuSans-45" x="144.677734"/>
      <use xlink:href="#DejaVuSans-4c" x="207.861328"/>
     </g>
    </g>
    <g id="line2d_60">
     <path d="M 61.079375 125.308938 
L 71.079375 125.308938 
L 81.079375 125.308938 
" style="fill: none; stroke: #48b585; stroke-width: 6; stroke-linecap: square"/>
    </g>
    <g id="text_32">
     <!-- Rocky Linux -->
     <g transform="translate(89.079375 128.808938) scale(0.1 -0.1)">
      <use xlink:href="#DejaVuSans-52"/>
      <use xlink:href="#DejaVuSans-6f" x="64.982422"/>
      <use xlink:href="#DejaVuSans-63" x="126.164062"/>
      <use xlink:href="#DejaVuSans-6b" x="181.144531"/>
      <use xlink:href="#DejaVuSans-79" x="235.429688"/>
      <use xlink:href="#DejaVuSans-20" x="294.609375"/>
      <use xlink:href="#DejaVuSans-4c" x="326.396484"/>
      <use xlink:href="#DejaVuSans-69" x="382.109375"/>
      <use xlink:href="#DejaVuSans-6e" x="409.892578"/>
      <use xlink:href="#DejaVuSans-75" x="473.271484"/>
      <use xlink:href="#DejaVuSans-78" x="536.650391"/>
     </g>
    </g>
   </g>
  </g>
 </g>
 <defs>
  <clipPath id="p53932daec7">
   <rect x="52.079375" y="24.14175" width="902.844" height="554.4"/>
  </clipPath>
 </defs>
</svg>
