<?xml version="1.0" encoding="utf-8" standalone="no"?>
<!DOCTYPE svg PUBLIC "-//W3C//DTD SVG 1.1//EN"
  "http://www.w3.org/Graphics/SVG/1.1/DTD/svg11.dtd">
<svg xmlns:xlink="http://www.w3.org/1999/xlink" width="964.735875pt" height="633.943878pt" viewBox="0 0 964.735875 633.943878" xmlns="http://www.w3.org/2000/svg" version="1.1">
 <metadata>
  <rdf:RDF xmlns:dc="http://purl.org/dc/elements/1.1/" xmlns:cc="http://creativecommons.org/ns#" xmlns:rdf="http://www.w3.org/1999/02/22-rdf-syntax-ns#">
   <cc:Work>
    <dc:type rdf:resource="http://purl.org/dc/dcmitype/StillImage"/>
    <dc:date>2024-10-17T11:55:07.997684</dc:date>
    <dc:format>image/svg+xml</dc:format>
    <dc:creator>
     <cc:Agent>
      <dc:title>Matplotlib v3.5.1, https://matplotlib.org/</dc:title>
     </cc:Agent>
    </dc:creator>
   </cc:Work>
  </rdf:RDF>
 </metadata>
 <defs>
  <style type="text/css">*{stroke-linejoin: round; stroke-linecap: butt}</style>
 </defs>
 <g id="figure_1">
  <g id="patch_1">
   <path d="M 0 633.943878 
L 964.735875 633.943878 
L 964.735875 0 
L 0 0 
z
" style="fill: #ffffff"/>
  </g>
  <g id="axes_1">
   <g id="patch_2">
    <path d="M 54.691875 567.74175 
L 957.535875 567.74175 
L 957.535875 24.14175 
L 54.691875 24.14175 
z
" style="fill: #e5e5e5"/>
   </g>
   <g id="matplotlib.axis_1">
    <g id="xtick_1">
     <g id="line2d_1">
      <path d="M 98.544298 567.74175 
L 98.544298 24.14175 
" clip-path="url(#pd4ef0a943c)" style="fill: none; stroke: #ffffff; stroke-width: 0.8; stroke-linecap: square"/>
     </g>
     <g id="line2d_2">
      <defs>
       <path id="m37864e98a6" d="M 0 0 
L 0 3.5 
" style="stroke: #555555; stroke-width: 0.8"/>
      </defs>
      <g>
       <use xlink:href="#m37864e98a6" x="98.544298" y="567.74175" style="fill: #555555; stroke: #555555; stroke-width: 0.8"/>
      </g>
     </g>
     <g id="text_1">
      <!-- 2023-11 -->
      <g style="fill: #555555" transform="translate(85.723016 609.659567)rotate(-45)scale(0.1 -0.1)">
       <defs>
        <path id="DejaVuSans-32" d="M 1228 531 
L 3431 531 
L 3431 0 
L 469 0 
L 469 531 
Q 828 903 1448 1529 
Q 2069 2156 2228 2338 
Q 2531 2678 2651 2914 
Q 2772 3150 2772 3378 
Q 2772 3750 2511 3984 
Q 2250 4219 1831 4219 
Q 1534 4219 1204 4116 
Q 875 4013 500 3803 
L 500 4441 
Q 881 4594 1212 4672 
Q 1544 4750 1819 4750 
Q 2544 4750 2975 4387 
Q 3406 4025 3406 3419 
Q 3406 3131 3298 2873 
Q 3191 2616 2906 2266 
Q 2828 2175 2409 1742 
Q 1991 1309 1228 531 
z
" transform="scale(0.015625)"/>
        <path id="DejaVuSans-30" d="M 2034 4250 
Q 1547 4250 1301 3770 
Q 1056 3291 1056 2328 
Q 1056 1369 1301 889 
Q 1547 409 2034 409 
Q 2525 409 2770 889 
Q 3016 1369 3016 2328 
Q 3016 3291 2770 3770 
Q 2525 4250 2034 4250 
z
M 2034 4750 
Q 2819 4750 3233 4129 
Q 3647 3509 3647 2328 
Q 3647 1150 3233 529 
Q 2819 -91 2034 -91 
Q 1250 -91 836 529 
Q 422 1150 422 2328 
Q 422 3509 836 4129 
Q 1250 4750 2034 4750 
z
" transform="scale(0.015625)"/>
        <path id="DejaVuSans-33" d="M 2597 2516 
Q 3050 2419 3304 2112 
Q 3559 1806 3559 1356 
Q 3559 666 3084 287 
Q 2609 -91 1734 -91 
Q 1441 -91 1130 -33 
Q 819 25 488 141 
L 488 750 
Q 750 597 1062 519 
Q 1375 441 1716 441 
Q 2309 441 2620 675 
Q 2931 909 2931 1356 
Q 2931 1769 2642 2001 
Q 2353 2234 1838 2234 
L 1294 2234 
L 1294 2753 
L 1863 2753 
Q 2328 2753 2575 2939 
Q 2822 3125 2822 3475 
Q 2822 3834 2567 4026 
Q 2313 4219 1838 4219 
Q 1578 4219 1281 4162 
Q 984 4106 628 3988 
L 628 4550 
Q 988 4650 1302 4700 
Q 1616 4750 1894 4750 
Q 2613 4750 3031 4423 
Q 3450 4097 3450 3541 
Q 3450 3153 3228 2886 
Q 3006 2619 2597 2516 
z
" transform="scale(0.015625)"/>
        <path id="DejaVuSans-2d" d="M 313 2009 
L 1997 2009 
L 1997 1497 
L 313 1497 
L 313 2009 
z
" transform="scale(0.015625)"/>
        <path id="DejaVuSans-31" d="M 794 531 
L 1825 531 
L 1825 4091 
L 703 3866 
L 703 4441 
L 1819 4666 
L 2450 4666 
L 2450 531 
L 3481 531 
L 3481 0 
L 794 0 
L 794 531 
z
" transform="scale(0.015625)"/>
       </defs>
       <use xlink:href="#DejaVuSans-32"/>
       <use xlink:href="#DejaVuSans-30" x="63.623047"/>
       <use xlink:href="#DejaVuSans-32" x="127.246094"/>
       <use xlink:href="#DejaVuSans-33" x="190.869141"/>
       <use xlink:href="#DejaVuSans-2d" x="254.492188"/>
       <use xlink:href="#DejaVuSans-31" x="290.576172"/>
       <use xlink:href="#DejaVuSans-31" x="354.199219"/>
      </g>
     </g>
    </g>
    <g id="xtick_2">
     <g id="line2d_3">
      <path d="M 175.930926 567.74175 
L 175.930926 24.14175 
" clip-path="url(#pd4ef0a943c)" style="fill: none; stroke: #ffffff; stroke-width: 0.8; stroke-linecap: square"/>
     </g>
     <g id="line2d_4">
      <g>
       <use xlink:href="#m37864e98a6" x="175.930926" y="567.74175" style="fill: #555555; stroke: #555555; stroke-width: 0.8"/>
      </g>
     </g>
     <g id="text_2">
      <!-- 2023-12 -->
      <g style="fill: #555555" transform="translate(163.109644 609.659567)rotate(-45)scale(0.1 -0.1)">
       <use xlink:href="#DejaVuSans-32"/>
       <use xlink:href="#DejaVuSans-30" x="63.623047"/>
       <use xlink:href="#DejaVuSans-32" x="127.246094"/>
       <use xlink:href="#DejaVuSans-33" x="190.869141"/>
       <use xlink:href="#DejaVuSans-2d" x="254.492188"/>
       <use xlink:href="#DejaVuSans-31" x="290.576172"/>
       <use xlink:href="#DejaVuSans-32" x="354.199219"/>
      </g>
     </g>
    </g>
    <g id="xtick_3">
     <g id="line2d_5">
      <path d="M 255.897109 567.74175 
L 255.897109 24.14175 
" clip-path="url(#pd4ef0a943c)" style="fill: none; stroke: #ffffff; stroke-width: 0.8; stroke-linecap: square"/>
     </g>
     <g id="line2d_6">
      <g>
       <use xlink:href="#m37864e98a6" x="255.897109" y="567.74175" style="fill: #555555; stroke: #555555; stroke-width: 0.8"/>
      </g>
     </g>
     <g id="text_3">
      <!-- 2024-01 -->
      <g style="fill: #555555" transform="translate(243.075827 609.659567)rotate(-45)scale(0.1 -0.1)">
       <defs>
        <path id="DejaVuSans-34" d="M 2419 4116 
L 825 1625 
L 2419 1625 
L 2419 4116 
z
M 2253 4666 
L 3047 4666 
L 3047 1625 
L 3713 1625 
L 3713 1100 
L 3047 1100 
L 3047 0 
L 2419 0 
L 2419 1100 
L 313 1100 
L 313 1709 
L 2253 4666 
z
" transform="scale(0.015625)"/>
       </defs>
       <use xlink:href="#DejaVuSans-32"/>
       <use xlink:href="#DejaVuSans-30" x="63.623047"/>
       <use xlink:href="#DejaVuSans-32" x="127.246094"/>
       <use xlink:href="#DejaVuSans-34" x="190.869141"/>
       <use xlink:href="#DejaVuSans-2d" x="254.492188"/>
       <use xlink:href="#DejaVuSans-30" x="290.576172"/>
       <use xlink:href="#DejaVuSans-31" x="354.199219"/>
      </g>
     </g>
    </g>
    <g id="xtick_4">
     <g id="line2d_7">
      <path d="M 335.863292 567.74175 
L 335.863292 24.14175 
" clip-path="url(#pd4ef0a943c)" style="fill: none; stroke: #ffffff; stroke-width: 0.8; stroke-linecap: square"/>
     </g>
     <g id="line2d_8">
      <g>
       <use xlink:href="#m37864e98a6" x="335.863292" y="567.74175" style="fill: #555555; stroke: #555555; stroke-width: 0.8"/>
      </g>
     </g>
     <g id="text_4">
      <!-- 2024-02 -->
      <g style="fill: #555555" transform="translate(323.04201 609.659567)rotate(-45)scale(0.1 -0.1)">
       <use xlink:href="#DejaVuSans-32"/>
       <use xlink:href="#DejaVuSans-30" x="63.623047"/>
       <use xlink:href="#DejaVuSans-32" x="127.246094"/>
       <use xlink:href="#DejaVuSans-34" x="190.869141"/>
       <use xlink:href="#DejaVuSans-2d" x="254.492188"/>
       <use xlink:href="#DejaVuSans-30" x="290.576172"/>
       <use xlink:href="#DejaVuSans-32" x="354.199219"/>
      </g>
     </g>
    </g>
    <g id="xtick_5">
     <g id="line2d_9">
      <path d="M 410.670366 567.74175 
L 410.670366 24.14175 
" clip-path="url(#pd4ef0a943c)" style="fill: none; stroke: #ffffff; stroke-width: 0.8; stroke-linecap: square"/>
     </g>
     <g id="line2d_10">
      <g>
       <use xlink:href="#m37864e98a6" x="410.670366" y="567.74175" style="fill: #555555; stroke: #555555; stroke-width: 0.8"/>
      </g>
     </g>
     <g id="text_5">
      <!-- 2024-03 -->
      <g style="fill: #555555" transform="translate(397.849084 609.659567)rotate(-45)scale(0.1 -0.1)">
       <use xlink:href="#DejaVuSans-32"/>
       <use xlink:href="#DejaVuSans-30" x="63.623047"/>
       <use xlink:href="#DejaVuSans-32" x="127.246094"/>
       <use xlink:href="#DejaVuSans-34" x="190.869141"/>
       <use xlink:href="#DejaVuSans-2d" x="254.492188"/>
       <use xlink:href="#DejaVuSans-30" x="290.576172"/>
       <use xlink:href="#DejaVuSans-33" x="354.199219"/>
      </g>
     </g>
    </g>
    <g id="xtick_6">
     <g id="line2d_11">
      <path d="M 490.636549 567.74175 
L 490.636549 24.14175 
" clip-path="url(#pd4ef0a943c)" style="fill: none; stroke: #ffffff; stroke-width: 0.8; stroke-linecap: square"/>
     </g>
     <g id="line2d_12">
      <g>
       <use xlink:href="#m37864e98a6" x="490.636549" y="567.74175" style="fill: #555555; stroke: #555555; stroke-width: 0.8"/>
      </g>
     </g>
     <g id="text_6">
      <!-- 2024-04 -->
      <g style="fill: #555555" transform="translate(477.815267 609.659567)rotate(-45)scale(0.1 -0.1)">
       <use xlink:href="#DejaVuSans-32"/>
       <use xlink:href="#DejaVuSans-30" x="63.623047"/>
       <use xlink:href="#DejaVuSans-32" x="127.246094"/>
       <use xlink:href="#DejaVuSans-34" x="190.869141"/>
       <use xlink:href="#DejaVuSans-2d" x="254.492188"/>
       <use xlink:href="#DejaVuSans-30" x="290.576172"/>
       <use xlink:href="#DejaVuSans-34" x="354.199219"/>
      </g>
     </g>
    </g>
    <g id="xtick_7">
     <g id="line2d_13">
      <path d="M 568.023178 567.74175 
L 568.023178 24.14175 
" clip-path="url(#pd4ef0a943c)" style="fill: none; stroke: #ffffff; stroke-width: 0.8; stroke-linecap: square"/>
     </g>
     <g id="line2d_14">
      <g>
       <use xlink:href="#m37864e98a6" x="568.023178" y="567.74175" style="fill: #555555; stroke: #555555; stroke-width: 0.8"/>
      </g>
     </g>
     <g id="text_7">
      <!-- 2024-05 -->
      <g style="fill: #555555" transform="translate(555.201896 609.659567)rotate(-45)scale(0.1 -0.1)">
       <defs>
        <path id="DejaVuSans-35" d="M 691 4666 
L 3169 4666 
L 3169 4134 
L 1269 4134 
L 1269 2991 
Q 1406 3038 1543 3061 
Q 1681 3084 1819 3084 
Q 2600 3084 3056 2656 
Q 3513 2228 3513 1497 
Q 3513 744 3044 326 
Q 2575 -91 1722 -91 
Q 1428 -91 1123 -41 
Q 819 9 494 109 
L 494 744 
Q 775 591 1075 516 
Q 1375 441 1709 441 
Q 2250 441 2565 725 
Q 2881 1009 2881 1497 
Q 2881 1984 2565 2268 
Q 2250 2553 1709 2553 
Q 1456 2553 1204 2497 
Q 953 2441 691 2322 
L 691 4666 
z
" transform="scale(0.015625)"/>
       </defs>
       <use xlink:href="#DejaVuSans-32"/>
       <use xlink:href="#DejaVuSans-30" x="63.623047"/>
       <use xlink:href="#DejaVuSans-32" x="127.246094"/>
       <use xlink:href="#DejaVuSans-34" x="190.869141"/>
       <use xlink:href="#DejaVuSans-2d" x="254.492188"/>
       <use xlink:href="#DejaVuSans-30" x="290.576172"/>
       <use xlink:href="#DejaVuSans-35" x="354.199219"/>
      </g>
     </g>
    </g>
    <g id="xtick_8">
     <g id="line2d_15">
      <path d="M 647.989361 567.74175 
L 647.989361 24.14175 
" clip-path="url(#pd4ef0a943c)" style="fill: none; stroke: #ffffff; stroke-width: 0.8; stroke-linecap: square"/>
     </g>
     <g id="line2d_16">
      <g>
       <use xlink:href="#m37864e98a6" x="647.989361" y="567.74175" style="fill: #555555; stroke: #555555; stroke-width: 0.8"/>
      </g>
     </g>
     <g id="text_8">
      <!-- 2024-06 -->
      <g style="fill: #555555" transform="translate(635.168078 609.659567)rotate(-45)scale(0.1 -0.1)">
       <defs>
        <path id="DejaVuSans-36" d="M 2113 2584 
Q 1688 2584 1439 2293 
Q 1191 2003 1191 1497 
Q 1191 994 1439 701 
Q 1688 409 2113 409 
Q 2538 409 2786 701 
Q 3034 994 3034 1497 
Q 3034 2003 2786 2293 
Q 2538 2584 2113 2584 
z
M 3366 4563 
L 3366 3988 
Q 3128 4100 2886 4159 
Q 2644 4219 2406 4219 
Q 1781 4219 1451 3797 
Q 1122 3375 1075 2522 
Q 1259 2794 1537 2939 
Q 1816 3084 2150 3084 
Q 2853 3084 3261 2657 
Q 3669 2231 3669 1497 
Q 3669 778 3244 343 
Q 2819 -91 2113 -91 
Q 1303 -91 875 529 
Q 447 1150 447 2328 
Q 447 3434 972 4092 
Q 1497 4750 2381 4750 
Q 2619 4750 2861 4703 
Q 3103 4656 3366 4563 
z
" transform="scale(0.015625)"/>
       </defs>
       <use xlink:href="#DejaVuSans-32"/>
       <use xlink:href="#DejaVuSans-30" x="63.623047"/>
       <use xlink:href="#DejaVuSans-32" x="127.246094"/>
       <use xlink:href="#DejaVuSans-34" x="190.869141"/>
       <use xlink:href="#DejaVuSans-2d" x="254.492188"/>
       <use xlink:href="#DejaVuSans-30" x="290.576172"/>
       <use xlink:href="#DejaVuSans-36" x="354.199219"/>
      </g>
     </g>
    </g>
    <g id="xtick_9">
     <g id="line2d_17">
      <path d="M 725.375989 567.74175 
L 725.375989 24.14175 
" clip-path="url(#pd4ef0a943c)" style="fill: none; stroke: #ffffff; stroke-width: 0.8; stroke-linecap: square"/>
     </g>
     <g id="line2d_18">
      <g>
       <use xlink:href="#m37864e98a6" x="725.375989" y="567.74175" style="fill: #555555; stroke: #555555; stroke-width: 0.8"/>
      </g>
     </g>
     <g id="text_9">
      <!-- 2024-07 -->
      <g style="fill: #555555" transform="translate(712.554707 609.659567)rotate(-45)scale(0.1 -0.1)">
       <defs>
        <path id="DejaVuSans-37" d="M 525 4666 
L 3525 4666 
L 3525 4397 
L 1831 0 
L 1172 0 
L 2766 4134 
L 525 4134 
L 525 4666 
z
" transform="scale(0.015625)"/>
       </defs>
       <use xlink:href="#DejaVuSans-32"/>
       <use xlink:href="#DejaVuSans-30" x="63.623047"/>
       <use xlink:href="#DejaVuSans-32" x="127.246094"/>
       <use xlink:href="#DejaVuSans-34" x="190.869141"/>
       <use xlink:href="#DejaVuSans-2d" x="254.492188"/>
       <use xlink:href="#DejaVuSans-30" x="290.576172"/>
       <use xlink:href="#DejaVuSans-37" x="354.199219"/>
      </g>
     </g>
    </g>
    <g id="xtick_10">
     <g id="line2d_19">
      <path d="M 805.342172 567.74175 
L 805.342172 24.14175 
" clip-path="url(#pd4ef0a943c)" style="fill: none; stroke: #ffffff; stroke-width: 0.8; stroke-linecap: square"/>
     </g>
     <g id="line2d_20">
      <g>
       <use xlink:href="#m37864e98a6" x="805.342172" y="567.74175" style="fill: #555555; stroke: #555555; stroke-width: 0.8"/>
      </g>
     </g>
     <g id="text_10">
      <!-- 2024-08 -->
      <g style="fill: #555555" transform="translate(792.52089 609.659567)rotate(-45)scale(0.1 -0.1)">
       <defs>
        <path id="DejaVuSans-38" d="M 2034 2216 
Q 1584 2216 1326 1975 
Q 1069 1734 1069 1313 
Q 1069 891 1326 650 
Q 1584 409 2034 409 
Q 2484 409 2743 651 
Q 3003 894 3003 1313 
Q 3003 1734 2745 1975 
Q 2488 2216 2034 2216 
z
M 1403 2484 
Q 997 2584 770 2862 
Q 544 3141 544 3541 
Q 544 4100 942 4425 
Q 1341 4750 2034 4750 
Q 2731 4750 3128 4425 
Q 3525 4100 3525 3541 
Q 3525 3141 3298 2862 
Q 3072 2584 2669 2484 
Q 3125 2378 3379 2068 
Q 3634 1759 3634 1313 
Q 3634 634 3220 271 
Q 2806 -91 2034 -91 
Q 1263 -91 848 271 
Q 434 634 434 1313 
Q 434 1759 690 2068 
Q 947 2378 1403 2484 
z
M 1172 3481 
Q 1172 3119 1398 2916 
Q 1625 2713 2034 2713 
Q 2441 2713 2670 2916 
Q 2900 3119 2900 3481 
Q 2900 3844 2670 4047 
Q 2441 4250 2034 4250 
Q 1625 4250 1398 4047 
Q 1172 3844 1172 3481 
z
" transform="scale(0.015625)"/>
       </defs>
       <use xlink:href="#DejaVuSans-32"/>
       <use xlink:href="#DejaVuSans-30" x="63.623047"/>
       <use xlink:href="#DejaVuSans-32" x="127.246094"/>
       <use xlink:href="#DejaVuSans-34" x="190.869141"/>
       <use xlink:href="#DejaVuSans-2d" x="254.492188"/>
       <use xlink:href="#DejaVuSans-30" x="290.576172"/>
       <use xlink:href="#DejaVuSans-38" x="354.199219"/>
      </g>
     </g>
    </g>
    <g id="xtick_11">
     <g id="line2d_21">
      <path d="M 885.308355 567.74175 
L 885.308355 24.14175 
" clip-path="url(#pd4ef0a943c)" style="fill: none; stroke: #ffffff; stroke-width: 0.8; stroke-linecap: square"/>
     </g>
     <g id="line2d_22">
      <g>
       <use xlink:href="#m37864e98a6" x="885.308355" y="567.74175" style="fill: #555555; stroke: #555555; stroke-width: 0.8"/>
      </g>
     </g>
     <g id="text_11">
      <!-- 2024-09 -->
      <g style="fill: #555555" transform="translate(872.487073 609.659567)rotate(-45)scale(0.1 -0.1)">
       <defs>
        <path id="DejaVuSans-39" d="M 703 97 
L 703 672 
Q 941 559 1184 500 
Q 1428 441 1663 441 
Q 2288 441 2617 861 
Q 2947 1281 2994 2138 
Q 2813 1869 2534 1725 
Q 2256 1581 1919 1581 
Q 1219 1581 811 2004 
Q 403 2428 403 3163 
Q 403 3881 828 4315 
Q 1253 4750 1959 4750 
Q 2769 4750 3195 4129 
Q 3622 3509 3622 2328 
Q 3622 1225 3098 567 
Q 2575 -91 1691 -91 
Q 1453 -91 1209 -44 
Q 966 3 703 97 
z
M 1959 2075 
Q 2384 2075 2632 2365 
Q 2881 2656 2881 3163 
Q 2881 3666 2632 3958 
Q 2384 4250 1959 4250 
Q 1534 4250 1286 3958 
Q 1038 3666 1038 3163 
Q 1038 2656 1286 2365 
Q 1534 2075 1959 2075 
z
" transform="scale(0.015625)"/>
       </defs>
       <use xlink:href="#DejaVuSans-32"/>
       <use xlink:href="#DejaVuSans-30" x="63.623047"/>
       <use xlink:href="#DejaVuSans-32" x="127.246094"/>
       <use xlink:href="#DejaVuSans-34" x="190.869141"/>
       <use xlink:href="#DejaVuSans-2d" x="254.492188"/>
       <use xlink:href="#DejaVuSans-30" x="290.576172"/>
       <use xlink:href="#DejaVuSans-39" x="354.199219"/>
      </g>
     </g>
    </g>
    <g id="text_12">
     <!-- Date -->
     <g style="fill: #555555" transform="translate(491.772938 624.248253)scale(0.12 -0.12)">
      <defs>
       <path id="DejaVuSans-44" d="M 1259 4147 
L 1259 519 
L 2022 519 
Q 2988 519 3436 956 
Q 3884 1394 3884 2338 
Q 3884 3275 3436 3711 
Q 2988 4147 2022 4147 
L 1259 4147 
z
M 628 4666 
L 1925 4666 
Q 3281 4666 3915 4102 
Q 4550 3538 4550 2338 
Q 4550 1131 3912 565 
Q 3275 0 1925 0 
L 628 0 
L 628 4666 
z
" transform="scale(0.015625)"/>
       <path id="DejaVuSans-61" d="M 2194 1759 
Q 1497 1759 1228 1600 
Q 959 1441 959 1056 
Q 959 750 1161 570 
Q 1363 391 1709 391 
Q 2188 391 2477 730 
Q 2766 1069 2766 1631 
L 2766 1759 
L 2194 1759 
z
M 3341 1997 
L 3341 0 
L 2766 0 
L 2766 531 
Q 2569 213 2275 61 
Q 1981 -91 1556 -91 
Q 1019 -91 701 211 
Q 384 513 384 1019 
Q 384 1609 779 1909 
Q 1175 2209 1959 2209 
L 2766 2209 
L 2766 2266 
Q 2766 2663 2505 2880 
Q 2244 3097 1772 3097 
Q 1472 3097 1187 3025 
Q 903 2953 641 2809 
L 641 3341 
Q 956 3463 1253 3523 
Q 1550 3584 1831 3584 
Q 2591 3584 2966 3190 
Q 3341 2797 3341 1997 
z
" transform="scale(0.015625)"/>
       <path id="DejaVuSans-74" d="M 1172 4494 
L 1172 3500 
L 2356 3500 
L 2356 3053 
L 1172 3053 
L 1172 1153 
Q 1172 725 1289 603 
Q 1406 481 1766 481 
L 2356 481 
L 2356 0 
L 1766 0 
Q 1100 0 847 248 
Q 594 497 594 1153 
L 594 3053 
L 172 3053 
L 172 3500 
L 594 3500 
L 594 4494 
L 1172 4494 
z
" transform="scale(0.015625)"/>
       <path id="DejaVuSans-65" d="M 3597 1894 
L 3597 1613 
L 953 1613 
Q 991 1019 1311 708 
Q 1631 397 2203 397 
Q 2534 397 2845 478 
Q 3156 559 3463 722 
L 3463 178 
Q 3153 47 2828 -22 
Q 2503 -91 2169 -91 
Q 1331 -91 842 396 
Q 353 884 353 1716 
Q 353 2575 817 3079 
Q 1281 3584 2069 3584 
Q 2775 3584 3186 3129 
Q 3597 2675 3597 1894 
z
M 3022 2063 
Q 3016 2534 2758 2815 
Q 2500 3097 2075 3097 
Q 1594 3097 1305 2825 
Q 1016 2553 972 2059 
L 3022 2063 
z
" transform="scale(0.015625)"/>
      </defs>
      <use xlink:href="#DejaVuSans-44"/>
      <use xlink:href="#DejaVuSans-61" x="77.001953"/>
      <use xlink:href="#DejaVuSans-74" x="138.28125"/>
      <use xlink:href="#DejaVuSans-65" x="177.490234"/>
     </g>
    </g>
   </g>
   <g id="matplotlib.axis_2">
    <g id="ytick_1">
     <g id="line2d_23">
      <path d="M 54.691875 567.74175 
L 957.535875 567.74175 
" clip-path="url(#pd4ef0a943c)" style="fill: none; stroke: #ffffff; stroke-width: 0.8; stroke-linecap: square"/>
     </g>
     <g id="line2d_24">
      <defs>
       <path id="me8e8d4b435" d="M 0 0 
L -3.5 0 
" style="stroke: #555555; stroke-width: 0.8"/>
      </defs>
      <g>
       <use xlink:href="#me8e8d4b435" x="54.691875" y="567.74175" style="fill: #555555; stroke: #555555; stroke-width: 0.8"/>
      </g>
     </g>
     <g id="text_13">
      <!-- 0k -->
      <g style="fill: #555555" transform="translate(35.53875 571.540969)scale(0.1 -0.1)">
       <defs>
        <path id="DejaVuSans-6b" d="M 581 4863 
L 1159 4863 
L 1159 1991 
L 2875 3500 
L 3609 3500 
L 1753 1863 
L 3688 0 
L 2938 0 
L 1159 1709 
L 1159 0 
L 581 0 
L 581 4863 
z
" transform="scale(0.015625)"/>
       </defs>
       <use xlink:href="#DejaVuSans-30"/>
       <use xlink:href="#DejaVuSans-6b" x="63.623047"/>
      </g>
     </g>
    </g>
    <g id="ytick_2">
     <g id="line2d_25">
      <path d="M 54.691875 450.367353 
L 957.535875 450.367353 
" clip-path="url(#pd4ef0a943c)" style="fill: none; stroke: #ffffff; stroke-width: 0.8; stroke-linecap: square"/>
     </g>
     <g id="line2d_26">
      <g>
       <use xlink:href="#me8e8d4b435" x="54.691875" y="450.367353" style="fill: #555555; stroke: #555555; stroke-width: 0.8"/>
      </g>
     </g>
     <g id="text_14">
      <!-- 100k -->
      <g style="fill: #555555" transform="translate(22.81375 454.166571)scale(0.1 -0.1)">
       <use xlink:href="#DejaVuSans-31"/>
       <use xlink:href="#DejaVuSans-30" x="63.623047"/>
       <use xlink:href="#DejaVuSans-30" x="127.246094"/>
       <use xlink:href="#DejaVuSans-6b" x="190.869141"/>
      </g>
     </g>
    </g>
    <g id="ytick_3">
     <g id="line2d_27">
      <path d="M 54.691875 332.992955 
L 957.535875 332.992955 
" clip-path="url(#pd4ef0a943c)" style="fill: none; stroke: #ffffff; stroke-width: 0.8; stroke-linecap: square"/>
     </g>
     <g id="line2d_28">
      <g>
       <use xlink:href="#me8e8d4b435" x="54.691875" y="332.992955" style="fill: #555555; stroke: #555555; stroke-width: 0.8"/>
      </g>
     </g>
     <g id="text_15">
      <!-- 200k -->
      <g style="fill: #555555" transform="translate(22.81375 336.792174)scale(0.1 -0.1)">
       <use xlink:href="#DejaVuSans-32"/>
       <use xlink:href="#DejaVuSans-30" x="63.623047"/>
       <use xlink:href="#DejaVuSans-30" x="127.246094"/>
       <use xlink:href="#DejaVuSans-6b" x="190.869141"/>
      </g>
     </g>
    </g>
    <g id="ytick_4">
     <g id="line2d_29">
      <path d="M 54.691875 215.618558 
L 957.535875 215.618558 
" clip-path="url(#pd4ef0a943c)" style="fill: none; stroke: #ffffff; stroke-width: 0.8; stroke-linecap: square"/>
     </g>
     <g id="line2d_30">
      <g>
       <use xlink:href="#me8e8d4b435" x="54.691875" y="215.618558" style="fill: #555555; stroke: #555555; stroke-width: 0.8"/>
      </g>
     </g>
     <g id="text_16">
      <!-- 300k -->
      <g style="fill: #555555" transform="translate(22.81375 219.417777)scale(0.1 -0.1)">
       <use xlink:href="#DejaVuSans-33"/>
       <use xlink:href="#DejaVuSans-30" x="63.623047"/>
       <use xlink:href="#DejaVuSans-30" x="127.246094"/>
       <use xlink:href="#DejaVuSans-6b" x="190.869141"/>
      </g>
     </g>
    </g>
    <g id="ytick_5">
     <g id="line2d_31">
      <path d="M 54.691875 98.244161 
L 957.535875 98.244161 
" clip-path="url(#pd4ef0a943c)" style="fill: none; stroke: #ffffff; stroke-width: 0.8; stroke-linecap: square"/>
     </g>
     <g id="line2d_32">
      <g>
       <use xlink:href="#me8e8d4b435" x="54.691875" y="98.244161" style="fill: #555555; stroke: #555555; stroke-width: 0.8"/>
      </g>
     </g>
     <g id="text_17">
      <!-- 400k -->
      <g style="fill: #555555" transform="translate(22.81375 102.04338)scale(0.1 -0.1)">
       <use xlink:href="#DejaVuSans-34"/>
       <use xlink:href="#DejaVuSans-30" x="63.623047"/>
       <use xlink:href="#DejaVuSans-30" x="127.246094"/>
       <use xlink:href="#DejaVuSans-6b" x="190.869141"/>
      </g>
     </g>
    </g>
    <g id="text_18">
     <!-- Instances -->
     <g style="fill: #555555" transform="translate(16.318125 324.588)rotate(-90)scale(0.12 -0.12)">
      <defs>
       <path id="DejaVuSans-49" d="M 628 4666 
L 1259 4666 
L 1259 0 
L 628 0 
L 628 4666 
z
" transform="scale(0.015625)"/>
       <path id="DejaVuSans-6e" d="M 3513 2113 
L 3513 0 
L 2938 0 
L 2938 2094 
Q 2938 2591 2744 2837 
Q 2550 3084 2163 3084 
Q 1697 3084 1428 2787 
Q 1159 2491 1159 1978 
L 1159 0 
L 581 0 
L 581 3500 
L 1159 3500 
L 1159 2956 
Q 1366 3272 1645 3428 
Q 1925 3584 2291 3584 
Q 2894 3584 3203 3211 
Q 3513 2838 3513 2113 
z
" transform="scale(0.015625)"/>
       <path id="DejaVuSans-73" d="M 2834 3397 
L 2834 2853 
Q 2591 2978 2328 3040 
Q 2066 3103 1784 3103 
Q 1356 3103 1142 2972 
Q 928 2841 928 2578 
Q 928 2378 1081 2264 
Q 1234 2150 1697 2047 
L 1894 2003 
Q 2506 1872 2764 1633 
Q 3022 1394 3022 966 
Q 3022 478 2636 193 
Q 2250 -91 1575 -91 
Q 1294 -91 989 -36 
Q 684 19 347 128 
L 347 722 
Q 666 556 975 473 
Q 1284 391 1588 391 
Q 1994 391 2212 530 
Q 2431 669 2431 922 
Q 2431 1156 2273 1281 
Q 2116 1406 1581 1522 
L 1381 1569 
Q 847 1681 609 1914 
Q 372 2147 372 2553 
Q 372 3047 722 3315 
Q 1072 3584 1716 3584 
Q 2034 3584 2315 3537 
Q 2597 3491 2834 3397 
z
" transform="scale(0.015625)"/>
       <path id="DejaVuSans-63" d="M 3122 3366 
L 3122 2828 
Q 2878 2963 2633 3030 
Q 2388 3097 2138 3097 
Q 1578 3097 1268 2742 
Q 959 2388 959 1747 
Q 959 1106 1268 751 
Q 1578 397 2138 397 
Q 2388 397 2633 464 
Q 2878 531 3122 666 
L 3122 134 
Q 2881 22 2623 -34 
Q 2366 -91 2075 -91 
Q 1284 -91 818 406 
Q 353 903 353 1747 
Q 353 2603 823 3093 
Q 1294 3584 2113 3584 
Q 2378 3584 2631 3529 
Q 2884 3475 3122 3366 
z
" transform="scale(0.015625)"/>
      </defs>
      <use xlink:href="#DejaVuSans-49"/>
      <use xlink:href="#DejaVuSans-6e" x="29.492188"/>
      <use xlink:href="#DejaVuSans-73" x="92.871094"/>
      <use xlink:href="#DejaVuSans-74" x="144.970703"/>
      <use xlink:href="#DejaVuSans-61" x="184.179688"/>
      <use xlink:href="#DejaVuSans-6e" x="245.458984"/>
      <use xlink:href="#DejaVuSans-63" x="308.837891"/>
      <use xlink:href="#DejaVuSans-65" x="363.818359"/>
      <use xlink:href="#DejaVuSans-73" x="425.341797"/>
     </g>
    </g>
   </g>
   <g id="line2d_33">
    <path d="M 54.691875 443.619252 
L 63.811511 443.125968 
L 72.931148 442.632684 
L 82.050784 442.1394 
L 91.17042 441.646116 
L 100.290057 441.152832 
L 109.409693 440.659548 
L 118.52933 440.166264 
L 127.648966 439.67298 
L 136.768602 439.179696 
L 145.888239 438.686412 
L 155.007875 438.193128 
L 164.127511 437.699844 
L 173.247148 437.20656 
L 182.366784 436.713276 
L 191.48642 436.219992 
L 200.606057 435.726708 
L 209.725693 435.233424 
L 218.84533 434.74014 
L 227.964966 434.246856 
L 237.084602 433.753572 
L 246.204239 433.260288 
L 255.323875 432.767004 
L 264.443511 432.27372 
L 273.563148 431.780436 
L 282.682784 431.287152 
L 291.80242 430.793868 
L 300.922057 430.300584 
L 310.041693 429.807299 
L 319.16133 429.314015 
L 328.280966 428.820731 
L 337.400602 428.327447 
L 346.520239 427.834163 
L 355.639875 427.340879 
L 364.759511 426.847595 
L 373.879148 426.354311 
L 382.998784 425.861027 
L 392.11842 425.367743 
L 401.238057 424.874459 
L 410.357693 424.381175 
L 419.47733 423.887891 
L 428.596966 423.394607 
L 437.716602 422.901323 
L 446.836239 422.408039 
L 455.955875 421.914755 
L 465.075511 421.421471 
L 474.195148 420.928187 
L 483.314784 420.434903 
L 492.43442 419.941619 
L 501.554057 419.448335 
L 510.673693 418.955051 
L 519.79333 418.461767 
L 528.912966 417.968483 
L 538.032602 417.475199 
L 547.152239 416.981915 
L 556.271875 416.488631 
L 565.391511 415.995347 
L 574.511148 415.502063 
L 583.630784 415.008779 
L 592.75042 414.515495 
L 601.870057 414.022211 
L 610.989693 413.528927 
L 620.10933 413.035643 
L 629.228966 412.542359 
L 638.348602 412.049075 
L 647.468239 411.555791 
L 656.587875 411.062507 
L 665.707511 410.569223 
L 674.827148 410.075939 
L 683.946784 409.582655 
L 693.06642 409.089371 
L 702.186057 408.596087 
L 711.305693 408.102803 
L 720.42533 407.609519 
L 729.544966 407.116235 
L 738.664602 406.622951 
L 747.784239 406.129667 
L 756.903875 405.636383 
L 766.023511 405.143099 
L 775.143148 404.649815 
L 784.262784 404.156531 
L 793.38242 403.663247 
L 802.502057 403.169963 
L 811.621693 402.676679 
L 820.74133 402.183395 
L 829.860966 401.690111 
L 838.980602 401.196827 
L 848.100239 400.703543 
L 857.219875 400.210259 
L 866.339511 399.716975 
L 875.459148 399.223691 
L 884.578784 398.730407 
L 893.69842 398.237123 
L 902.818057 397.743839 
L 911.937693 397.250555 
L 921.05733 396.75727 
L 930.176966 396.263986 
L 939.296602 395.770702 
L 948.416239 395.277418 
L 957.535875 394.784134 
" clip-path="url(#pd4ef0a943c)" style="fill: none; stroke-dasharray: 1.5,2.475; stroke-dashoffset: 0; stroke: #4ac1fa; stroke-width: 1.5"/>
   </g>
   <g id="line2d_34">
    <path d="M 54.691875 532.849127 
L 63.811511 531.942306 
L 72.931148 531.035485 
L 82.050784 530.128664 
L 91.17042 529.221843 
L 100.290057 528.315022 
L 109.409693 527.408201 
L 118.52933 526.50138 
L 127.648966 525.594559 
L 136.768602 524.687738 
L 145.888239 523.780917 
L 155.007875 522.874096 
L 164.127511 521.967275 
L 173.247148 521.060454 
L 182.366784 520.153633 
L 191.48642 519.246812 
L 200.606057 518.339991 
L 209.725693 517.43317 
L 218.84533 516.526349 
L 227.964966 515.619528 
L 237.084602 514.712707 
L 246.204239 513.805886 
L 255.323875 512.899065 
L 264.443511 511.992244 
L 273.563148 511.085423 
L 282.682784 510.178602 
L 291.80242 509.271781 
L 300.922057 508.36496 
L 310.041693 507.458139 
L 319.16133 506.551318 
L 328.280966 505.644497 
L 337.400602 504.737676 
L 346.520239 503.830855 
L 355.639875 502.924034 
L 364.759511 502.017213 
L 373.879148 501.110392 
L 382.998784 500.203571 
L 392.11842 499.29675 
L 401.238057 498.389929 
L 410.357693 497.483108 
L 419.47733 496.576287 
L 428.596966 495.669466 
L 437.716602 494.762645 
L 446.836239 493.855824 
L 455.955875 492.949003 
L 465.075511 492.042182 
L 474.195148 491.135361 
L 483.314784 490.22854 
L 492.43442 489.321719 
L 501.554057 488.414898 
L 510.673693 487.508077 
L 519.79333 486.601256 
L 528.912966 485.694435 
L 538.032602 484.787614 
L 547.152239 483.880793 
L 556.271875 482.973972 
L 565.391511 482.067151 
L 574.511148 481.16033 
L 583.630784 480.253509 
L 592.75042 479.346688 
L 601.870057 478.439867 
L 610.989693 477.533046 
L 620.10933 476.626225 
L 629.228966 475.719404 
L 638.348602 474.812583 
L 647.468239 473.905762 
L 656.587875 472.998941 
L 665.707511 472.09212 
L 674.827148 471.185299 
L 683.946784 470.278478 
L 693.06642 469.371658 
L 702.186057 468.464837 
L 711.305693 467.558016 
L 720.42533 466.651195 
L 729.544966 465.744374 
L 738.664602 464.837553 
L 747.784239 463.930732 
L 756.903875 463.023911 
L 766.023511 462.11709 
L 775.143148 461.210269 
L 784.262784 460.303448 
L 793.38242 459.396627 
L 802.502057 458.489806 
L 811.621693 457.582985 
L 820.74133 456.676164 
L 829.860966 455.769343 
L 838.980602 454.862522 
L 848.100239 453.955701 
L 857.219875 453.04888 
L 866.339511 452.142059 
L 875.459148 451.235238 
L 884.578784 450.328417 
L 893.69842 449.421596 
L 902.818057 448.514775 
L 911.937693 447.607954 
L 921.05733 446.701133 
L 930.176966 445.794312 
L 939.296602 444.887491 
L 948.416239 443.98067 
L 957.535875 443.073849 
" clip-path="url(#pd4ef0a943c)" style="fill: none; stroke-dasharray: 1.5,2.475; stroke-dashoffset: 0; stroke: #e9a942; stroke-width: 1.5"/>
   </g>
   <g id="line2d_35">
    <path d="M 54.691875 482.899175 
L 63.811511 482.973961 
L 72.931148 483.048748 
L 82.050784 483.123534 
L 91.17042 483.198321 
L 100.290057 483.273107 
L 109.409693 483.347894 
L 118.52933 483.42268 
L 127.648966 483.497467 
L 136.768602 483.572253 
L 145.888239 483.64704 
L 155.007875 483.721826 
L 164.127511 483.796613 
L 173.247148 483.871399 
L 182.366784 483.946186 
L 191.48642 484.020972 
L 200.606057 484.095759 
L 209.725693 484.170545 
L 218.84533 484.245332 
L 227.964966 484.320118 
L 237.084602 484.394905 
L 246.204239 484.469691 
L 255.323875 484.544478 
L 264.443511 484.619264 
L 273.563148 484.694051 
L 282.682784 484.768837 
L 291.80242 484.843624 
L 300.922057 484.91841 
L 310.041693 484.993197 
L 319.16133 485.067983 
L 328.280966 485.14277 
L 337.400602 485.217556 
L 346.520239 485.292343 
L 355.639875 485.367129 
L 364.759511 485.441916 
L 373.879148 485.516702 
L 382.998784 485.591489 
L 392.11842 485.666275 
L 401.238057 485.741062 
L 410.357693 485.815848 
L 419.47733 485.890635 
L 428.596966 485.965421 
L 437.716602 486.040208 
L 446.836239 486.114994 
L 455.955875 486.189781 
L 465.075511 486.264567 
L 474.195148 486.339354 
L 483.314784 486.41414 
L 492.43442 486.488927 
L 501.554057 486.563713 
L 510.673693 486.6385 
L 519.79333 486.713286 
L 528.912966 486.788073 
L 538.032602 486.862859 
L 547.152239 486.937646 
L 556.271875 487.012432 
L 565.391511 487.087219 
L 574.511148 487.162005 
L 583.630784 487.236792 
L 592.75042 487.311578 
L 601.870057 487.386365 
L 610.989693 487.461151 
L 620.10933 487.535938 
L 629.228966 487.610724 
L 638.348602 487.685511 
L 647.468239 487.760297 
L 656.587875 487.835084 
L 665.707511 487.90987 
L 674.827148 487.984657 
L 683.946784 488.059443 
L 693.06642 488.13423 
L 702.186057 488.209016 
L 711.305693 488.283802 
L 720.42533 488.358589 
L 729.544966 488.433375 
L 738.664602 488.508162 
L 747.784239 488.582948 
L 756.903875 488.657735 
L 766.023511 488.732521 
L 775.143148 488.807308 
L 784.262784 488.882094 
L 793.38242 488.956881 
L 802.502057 489.031667 
L 811.621693 489.106454 
L 820.74133 489.18124 
L 829.860966 489.256027 
L 838.980602 489.330813 
L 848.100239 489.4056 
L 857.219875 489.480386 
L 866.339511 489.555173 
L 875.459148 489.629959 
L 884.578784 489.704746 
L 893.69842 489.779532 
L 902.818057 489.854319 
L 911.937693 489.929105 
L 921.05733 490.003892 
L 930.176966 490.078678 
L 939.296602 490.153465 
L 948.416239 490.228251 
L 957.535875 490.303038 
" clip-path="url(#pd4ef0a943c)" style="fill: none; stroke-dasharray: 1.5,2.475; stroke-dashoffset: 0; stroke: #9a5689; stroke-width: 1.5"/>
   </g>
   <g id="line2d_36">
    <path d="M 54.691875 514.017459 
L 63.811511 513.888411 
L 72.931148 513.759364 
L 82.050784 513.630317 
L 91.17042 513.501269 
L 100.290057 513.372222 
L 109.409693 513.243175 
L 118.52933 513.114127 
L 127.648966 512.98508 
L 136.768602 512.856032 
L 145.888239 512.726985 
L 155.007875 512.597938 
L 164.127511 512.46889 
L 173.247148 512.339843 
L 182.366784 512.210796 
L 191.48642 512.081748 
L 200.606057 511.952701 
L 209.725693 511.823654 
L 218.84533 511.694606 
L 227.964966 511.565559 
L 237.084602 511.436511 
L 246.204239 511.307464 
L 255.323875 511.178417 
L 264.443511 511.049369 
L 273.563148 510.920322 
L 282.682784 510.791275 
L 291.80242 510.662227 
L 300.922057 510.53318 
L 310.041693 510.404132 
L 319.16133 510.275085 
L 328.280966 510.146038 
L 337.400602 510.01699 
L 346.520239 509.887943 
L 355.639875 509.758896 
L 364.759511 509.629848 
L 373.879148 509.500801 
L 382.998784 509.371753 
L 392.11842 509.242706 
L 401.238057 509.113659 
L 410.357693 508.984611 
L 419.47733 508.855564 
L 428.596966 508.726517 
L 437.716602 508.597469 
L 446.836239 508.468422 
L 455.955875 508.339374 
L 465.075511 508.210327 
L 474.195148 508.08128 
L 483.314784 507.952232 
L 492.43442 507.823185 
L 501.554057 507.694138 
L 510.673693 507.56509 
L 519.79333 507.436043 
L 528.912966 507.306996 
L 538.032602 507.177948 
L 547.152239 507.048901 
L 556.271875 506.919853 
L 565.391511 506.790806 
L 574.511148 506.661759 
L 583.630784 506.532711 
L 592.75042 506.403664 
L 601.870057 506.274617 
L 610.989693 506.145569 
L 620.10933 506.016522 
L 629.228966 505.887474 
L 638.348602 505.758427 
L 647.468239 505.62938 
L 656.587875 505.500332 
L 665.707511 505.371285 
L 674.827148 505.242238 
L 683.946784 505.11319 
L 693.06642 504.984143 
L 702.186057 504.855095 
L 711.305693 504.726048 
L 720.42533 504.597001 
L 729.544966 504.467953 
L 738.664602 504.338906 
L 747.784239 504.209859 
L 756.903875 504.080811 
L 766.023511 503.951764 
L 775.143148 503.822716 
L 784.262784 503.693669 
L 793.38242 503.564622 
L 802.502057 503.435574 
L 811.621693 503.306527 
L 820.74133 503.17748 
L 829.860966 503.048432 
L 838.980602 502.919385 
L 848.100239 502.790337 
L 857.219875 502.66129 
L 866.339511 502.532243 
L 875.459148 502.403195 
L 884.578784 502.274148 
L 893.69842 502.145101 
L 902.818057 502.016053 
L 911.937693 501.887006 
L 921.05733 501.757959 
L 930.176966 501.628911 
L 939.296602 501.499864 
L 948.416239 501.370816 
L 957.535875 501.241769 
" clip-path="url(#pd4ef0a943c)" style="fill: none; stroke-dasharray: 1.5,2.475; stroke-dashoffset: 0; stroke: #be503b; stroke-width: 1.5"/>
   </g>
   <g id="line2d_37">
    <path d="M 54.691875 448.804649 
L 63.811511 447.950493 
L 72.931148 447.096338 
L 82.050784 446.242182 
L 91.17042 445.388026 
L 100.290057 444.53387 
L 109.409693 443.679714 
L 118.52933 442.825558 
L 127.648966 441.971402 
L 136.768602 441.117246 
L 145.888239 440.26309 
L 155.007875 439.408934 
L 164.127511 438.554778 
L 173.247148 437.700623 
L 182.366784 436.846467 
L 191.48642 435.992311 
L 200.606057 435.138155 
L 209.725693 434.283999 
L 218.84533 433.429843 
L 227.964966 432.575687 
L 237.084602 431.721531 
L 246.204239 430.867375 
L 255.323875 430.013219 
L 264.443511 429.159064 
L 273.563148 428.304908 
L 282.682784 427.450752 
L 291.80242 426.596596 
L 300.922057 425.74244 
L 310.041693 424.888284 
L 319.16133 424.034128 
L 328.280966 423.179972 
L 337.400602 422.325816 
L 346.520239 421.47166 
L 355.639875 420.617505 
L 364.759511 419.763349 
L 373.879148 418.909193 
L 382.998784 418.055037 
L 392.11842 417.200881 
L 401.238057 416.346725 
L 410.357693 415.492569 
L 419.47733 414.638413 
L 428.596966 413.784257 
L 437.716602 412.930101 
L 446.836239 412.075946 
L 455.955875 411.22179 
L 465.075511 410.367634 
L 474.195148 409.513478 
L 483.314784 408.659322 
L 492.43442 407.805166 
L 501.554057 406.95101 
L 510.673693 406.096854 
L 519.79333 405.242698 
L 528.912966 404.388542 
L 538.032602 403.534386 
L 547.152239 402.680231 
L 556.271875 401.826075 
L 565.391511 400.971919 
L 574.511148 400.117763 
L 583.630784 399.263607 
L 592.75042 398.409451 
L 601.870057 397.555295 
L 610.989693 396.701139 
L 620.10933 395.846983 
L 629.228966 394.992827 
L 638.348602 394.138672 
L 647.468239 393.284516 
L 656.587875 392.43036 
L 665.707511 391.576204 
L 674.827148 390.722048 
L 683.946784 389.867892 
L 693.06642 389.013736 
L 702.186057 388.15958 
L 711.305693 387.305424 
L 720.42533 386.451268 
L 729.544966 385.597113 
L 738.664602 384.742957 
L 747.784239 383.888801 
L 756.903875 383.034645 
L 766.023511 382.180489 
L 775.143148 381.326333 
L 784.262784 380.472177 
L 793.38242 379.618021 
L 802.502057 378.763865 
L 811.621693 377.909709 
L 820.74133 377.055553 
L 829.860966 376.201398 
L 838.980602 375.347242 
L 848.100239 374.493086 
L 857.219875 373.63893 
L 866.339511 372.784774 
L 875.459148 371.930618 
L 884.578784 371.076462 
L 893.69842 370.222306 
L 902.818057 369.36815 
L 911.937693 368.513994 
L 921.05733 367.659839 
L 930.176966 366.805683 
L 939.296602 365.951527 
L 948.416239 365.097371 
L 957.535875 364.243215 
" clip-path="url(#pd4ef0a943c)" style="fill: none; stroke-dasharray: 1.5,2.475; stroke-dashoffset: 0; stroke: #e2321d; stroke-width: 1.5"/>
   </g>
   <g id="line2d_38">
    <path d="M 54.691875 377.462762 
L 63.811511 375.168367 
L 72.931148 372.873971 
L 82.050784 370.579575 
L 91.17042 368.28518 
L 100.290057 365.990784 
L 109.409693 363.696389 
L 118.52933 361.401993 
L 127.648966 359.107598 
L 136.768602 356.813202 
L 145.888239 354.518807 
L 155.007875 352.224411 
L 164.127511 349.930015 
L 173.247148 347.63562 
L 182.366784 345.341224 
L 191.48642 343.046829 
L 200.606057 340.752433 
L 209.725693 338.458038 
L 218.84533 336.163642 
L 227.964966 333.869247 
L 237.084602 331.574851 
L 246.204239 329.280456 
L 255.323875 326.98606 
L 264.443511 324.691664 
L 273.563148 322.397269 
L 282.682784 320.102873 
L 291.80242 317.808478 
L 300.922057 315.514082 
L 310.041693 313.219687 
L 319.16133 310.925291 
L 328.280966 308.630896 
L 337.400602 306.3365 
L 346.520239 304.042104 
L 355.639875 301.747709 
L 364.759511 299.453313 
L 373.879148 297.158918 
L 382.998784 294.864522 
L 392.11842 292.570127 
L 401.238057 290.275731 
L 410.357693 287.981336 
L 419.47733 285.68694 
L 428.596966 283.392545 
L 437.716602 281.098149 
L 446.836239 278.803753 
L 455.955875 276.509358 
L 465.075511 274.214962 
L 474.195148 271.920567 
L 483.314784 269.626171 
L 492.43442 267.331776 
L 501.554057 265.03738 
L 510.673693 262.742985 
L 519.79333 260.448589 
L 528.912966 258.154193 
L 538.032602 255.859798 
L 547.152239 253.565402 
L 556.271875 251.271007 
L 565.391511 248.976611 
L 574.511148 246.682216 
L 583.630784 244.38782 
L 592.75042 242.093425 
L 601.870057 239.799029 
L 610.989693 237.504634 
L 620.10933 235.210238 
L 629.228966 232.915842 
L 638.348602 230.621447 
L 647.468239 228.327051 
L 656.587875 226.032656 
L 665.707511 223.73826 
L 674.827148 221.443865 
L 683.946784 219.149469 
L 693.06642 216.855074 
L 702.186057 214.560678 
L 711.305693 212.266282 
L 720.42533 209.971887 
L 729.544966 207.677491 
L 738.664602 205.383096 
L 747.784239 203.0887 
L 756.903875 200.794305 
L 766.023511 198.499909 
L 775.143148 196.205514 
L 784.262784 193.911118 
L 793.38242 191.616723 
L 802.502057 189.322327 
L 811.621693 187.027931 
L 820.74133 184.733536 
L 829.860966 182.43914 
L 838.980602 180.144745 
L 848.100239 177.850349 
L 857.219875 175.555954 
L 866.339511 173.261558 
L 875.459148 170.967163 
L 884.578784 168.672767 
L 893.69842 166.378371 
L 902.818057 164.083976 
L 911.937693 161.78958 
L 921.05733 159.495185 
L 930.176966 157.200789 
L 939.296602 154.906394 
L 948.416239 152.611998 
L 957.535875 150.317603 
" clip-path="url(#pd4ef0a943c)" style="fill: none; stroke-dasharray: 1.5,2.475; stroke-dashoffset: 0; stroke: #48b585; stroke-width: 1.5"/>
   </g>
   <g id="line2d_39">
    <path d="M 54.691875 383.163468 
L 108.862515 426.391285 
L 126.919395 426.627207 
L 144.976275 406.955258 
L 163.033155 423.11067 
L 181.090035 393.419643 
L 199.146915 401.264947 
L 217.203795 399.26254 
L 235.260675 452.897945 
L 253.317555 405.804989 
L 271.374435 405.455213 
L 289.431315 438.518407 
L 307.488195 442.401152 
L 325.545075 466.07909 
L 343.601955 450.879105 
L 361.658835 450.242936 
L 379.715715 457.237276 
L 397.772595 457.263099 
L 415.829475 470.55927 
L 433.886355 468.701234 
L 451.943235 460.837149 
L 470.000115 475.127482 
L 488.056995 464.30791 
L 506.113875 465.937067 
L 524.170755 424.672923 
L 542.227635 417.204391 
L 560.284515 412.107994 
L 578.341395 416.17267 
L 596.398275 453.329883 
L 614.455155 414.432007 
L 632.512035 416.780669 
L 650.568915 430.959496 
L 668.625795 414.694926 
L 686.682675 413.475406 
L 704.739555 389.474689 
L 722.796435 389.23055 
L 740.853315 374.000049 
L 758.910195 370.646662 
L 776.967075 377.975519 
L 795.023955 395.633324 
L 813.080835 364.117124 
L 831.137715 395.649756 
L 849.194595 377.963782 
L 867.251475 394.399719 
L 885.308355 401.442183 
L 903.365235 401.899943 
L 921.422115 394.438452 
L 939.478995 380.885231 
L 957.535875 380.946265 
" clip-path="url(#pd4ef0a943c)" style="fill: none; stroke: #4ac1fa; stroke-width: 1.5; stroke-linecap: square"/>
   </g>
   <g id="line2d_40">
    <path d="M 54.691875 515.234313 
L 108.862515 508.230583 
L 126.919395 509.090937 
L 144.976275 519.883513 
L 163.033155 514.581712 
L 181.090035 516.447965 
L 199.146915 519.280209 
L 217.203795 530.065742 
L 235.260675 532.770048 
L 253.317555 528.127891 
L 271.374435 518.436287 
L 289.431315 514.601665 
L 307.488195 518.247314 
L 325.545075 514.958484 
L 343.601955 510.437222 
L 361.658835 517.676875 
L 379.715715 503.883035 
L 397.772595 499.324214 
L 415.829475 498.461512 
L 433.886355 487.931855 
L 451.943235 497.400447 
L 470.000115 494.306458 
L 488.056995 494.395663 
L 506.113875 490.3662 
L 524.170755 493.563478 
L 542.227635 496.726718 
L 560.284515 487.523392 
L 578.341395 488.377878 
L 596.398275 474.442015 
L 614.455155 454.605742 
L 632.512035 447.754599 
L 650.568915 467.2141 
L 668.625795 469.278716 
L 686.682675 471.626204 
L 704.739555 439.503179 
L 722.796435 449.533995 
L 740.853315 465.523909 
L 758.910195 473.186109 
L 776.967075 455.826436 
L 795.023955 455.261865 
L 813.080835 449.471786 
L 831.137715 464.095462 
L 849.194595 440.017278 
L 867.251475 475.079358 
L 885.308355 465.640109 
L 903.365235 455.989586 
L 921.422115 454.697294 
L 939.478995 444.09017 
L 957.535875 432.554614 
" clip-path="url(#pd4ef0a943c)" style="fill: none; stroke: #e9a942; stroke-width: 1.5; stroke-linecap: square"/>
   </g>
   <g id="line2d_41">
    <path d="M 54.691875 488.041013 
L 108.862515 471.623856 
L 126.919395 455.383934 
L 144.976275 478.578289 
L 163.033155 490.654941 
L 181.090035 488.092658 
L 199.146915 490.091544 
L 217.203795 499.128199 
L 235.260675 513.735442 
L 253.317555 505.224625 
L 271.374435 495.556496 
L 289.431315 495.170334 
L 307.488195 488.695962 
L 325.545075 494.301763 
L 343.601955 492.30992 
L 361.658835 492.964869 
L 379.715715 499.2667 
L 397.772595 497.393405 
L 415.829475 470.359734 
L 433.886355 448.639602 
L 451.943235 447.313271 
L 470.000115 464.790319 
L 488.056995 474.886864 
L 506.113875 473.375082 
L 524.170755 466.789205 
L 542.227635 467.599088 
L 560.284515 474.763621 
L 578.341395 468.12023 
L 596.398275 480.586565 
L 614.455155 496.233746 
L 632.512035 492.192545 
L 650.568915 514.470206 
L 668.625795 505.917134 
L 686.682675 494.799431 
L 704.739555 505.911265 
L 722.796435 502.998032 
L 740.853315 495.123384 
L 758.910195 488.826248 
L 776.967075 483.661774 
L 795.023955 488.530464 
L 813.080835 485.67005 
L 831.137715 491.287589 
L 849.194595 489.126726 
L 867.251475 482.55376 
L 885.308355 494.961407 
L 903.365235 490.953072 
L 921.422115 490.55752 
L 939.478995 487.511654 
L 957.535875 495.690302 
" clip-path="url(#pd4ef0a943c)" style="fill: none; stroke: #9a5689; stroke-width: 1.5; stroke-linecap: square"/>
   </g>
   <g id="line2d_42">
    <path d="M 54.691875 519.02668 
L 108.862515 502.325477 
L 126.919395 493.690243 
L 144.976275 511.105082 
L 163.033155 503.242171 
L 181.090035 506.911295 
L 199.146915 509.236482 
L 217.203795 515.652166 
L 235.260675 530.465989 
L 253.317555 518.878788 
L 271.374435 517.651052 
L 289.431315 521.078385 
L 307.488195 504.310278 
L 325.545075 524.830844 
L 343.601955 519.775529 
L 361.658835 519.014943 
L 379.715715 509.0792 
L 397.772595 517.309493 
L 415.829475 508.700081 
L 433.886355 504.992223 
L 451.943235 512.818748 
L 470.000115 510.930194 
L 488.056995 514.51833 
L 506.113875 482.746254 
L 524.170755 499.879395 
L 542.227635 511.66261 
L 560.284515 495.41682 
L 578.341395 505.072038 
L 596.398275 502.033215 
L 614.455155 494.55764 
L 632.512035 514.389218 
L 650.568915 494.17852 
L 668.625795 504.273892 
L 686.682675 499.898175 
L 704.739555 499.27609 
L 722.796435 516.786003 
L 740.853315 510.198952 
L 758.910195 497.468525 
L 776.967075 498.963874 
L 795.023955 506.527481 
L 813.080835 505.187065 
L 831.137715 505.607265 
L 849.194595 499.889958 
L 867.251475 508.670737 
L 885.308355 500.676367 
L 903.365235 502.468674 
L 921.422115 505.104903 
L 939.478995 496.219661 
L 957.535875 509.14493 
" clip-path="url(#pd4ef0a943c)" style="fill: none; stroke: #be503b; stroke-width: 1.5; stroke-linecap: square"/>
   </g>
   <g id="line2d_43">
    <path d="M 54.691875 443.280287 
L 108.862515 436.737838 
L 126.919395 415.164423 
L 144.976275 440.803687 
L 163.033155 431.765858 
L 181.090035 423.887689 
L 199.146915 424.068445 
L 217.203795 441.966867 
L 235.260675 483.566701 
L 253.317555 467.351428 
L 271.374435 443.169955 
L 289.431315 431.554584 
L 307.488195 433.209563 
L 325.545075 424.978097 
L 343.601955 428.423035 
L 361.658835 421.968617 
L 379.715715 419.382859 
L 397.772595 419.07886 
L 415.829475 397.696766 
L 433.886355 408.707658 
L 451.943235 405.731043 
L 470.000115 414.368625 
L 488.056995 412.740642 
L 506.113875 400.540747 
L 524.170755 395.646235 
L 542.227635 399.162772 
L 560.284515 417.73727 
L 578.341395 403.213362 
L 596.398275 403.203972 
L 614.455155 408.241682 
L 632.512035 401.156963 
L 650.568915 399.712084 
L 668.625795 375.522395 
L 686.682675 207.522072 
L 704.739555 388.364327 
L 722.796435 401.530214 
L 740.853315 399.363482 
L 758.910195 397.52892 
L 776.967075 393.513542 
L 795.023955 377.196153 
L 813.080835 394.680244 
L 831.137715 362.336555 
L 849.194595 383.792595 
L 867.251475 380.974435 
L 885.308355 381.223269 
L 903.365235 374.731291 
L 921.422115 372.854475 
L 939.478995 369.624331 
L 957.535875 381.20801 
" clip-path="url(#pd4ef0a943c)" style="fill: none; stroke: #e2321d; stroke-width: 1.5; stroke-linecap: square"/>
   </g>
   <g id="line2d_44">
    <path d="M 54.691875 376.902717 
L 108.862515 306.326666 
L 126.919395 301.307737 
L 144.976275 258.709047 
L 163.033155 336.169107 
L 181.090035 388.486397 
L 199.146915 379.16687 
L 217.203795 357.890413 
L 235.260675 408.326191 
L 253.317555 358.348173 
L 271.374435 348.904229 
L 289.431315 333.446021 
L 307.488195 293.149043 
L 325.545075 280.111095 
L 343.601955 318.109882 
L 361.658835 303.652877 
L 379.715715 264.483867 
L 397.772595 265.156423 
L 415.829475 250.914213 
L 433.886355 262.435684 
L 451.943235 202.301259 
L 470.000115 283.695709 
L 488.056995 217.049352 
L 506.113875 257.052894 
L 524.170755 241.410408 
L 542.227635 270.09319 
L 560.284515 309.428871 
L 578.341395 288.232229 
L 596.398275 292.172488 
L 614.455155 272.467674 
L 632.512035 281.449163 
L 650.568915 271.568586 
L 668.625795 263.934555 
L 686.682675 272.825666 
L 704.739555 259.212583 
L 722.796435 264.285505 
L 740.853315 232.156611 
L 758.910195 215.083331 
L 776.967075 157.919652 
L 795.023955 205.620607 
L 813.080835 192.853794 
L 831.137715 164.004341 
L 849.194595 208.37421 
L 867.251475 124.466775 
L 885.308355 172.475251 
L 903.365235 148.981592 
L 921.422115 112.324394 
L 939.478995 95.299237 
L 957.535875 48.365911 
" clip-path="url(#pd4ef0a943c)" style="fill: none; stroke: #48b585; stroke-width: 6; stroke-linecap: square"/>
   </g>
   <g id="patch_3">
    <path d="M 54.691875 567.74175 
L 54.691875 24.14175 
" style="fill: none; stroke: #ffffff; stroke-linejoin: miter; stroke-linecap: square"/>
   </g>
   <g id="patch_4">
    <path d="M 957.535875 567.74175 
L 957.535875 24.14175 
" style="fill: none; stroke: #ffffff; stroke-linejoin: miter; stroke-linecap: square"/>
   </g>
   <g id="patch_5">
    <path d="M 54.691875 567.74175 
L 957.535875 567.74175 
" style="fill: none; stroke: #ffffff; stroke-linejoin: miter; stroke-linecap: square"/>
   </g>
   <g id="patch_6">
    <path d="M 54.691875 24.14175 
L 957.535875 24.14175 
" style="fill: none; stroke: #ffffff; stroke-linejoin: miter; stroke-linecap: square"/>
   </g>
   <g id="text_19">
    <!-- Potentially Ephemeral Enterprise Linux 8 and 9 Instances by Distribution -->
    <g transform="translate(54.691875 18.14175)scale(0.144 -0.144)">
     <defs>
      <path id="DejaVuSans-50" d="M 1259 4147 
L 1259 2394 
L 2053 2394 
Q 2494 2394 2734 2622 
Q 2975 2850 2975 3272 
Q 2975 3691 2734 3919 
Q 2494 4147 2053 4147 
L 1259 4147 
z
M 628 4666 
L 2053 4666 
Q 2838 4666 3239 4311 
Q 3641 3956 3641 3272 
Q 3641 2581 3239 2228 
Q 2838 1875 2053 1875 
L 1259 1875 
L 1259 0 
L 628 0 
L 628 4666 
z
" transform="scale(0.015625)"/>
      <path id="DejaVuSans-6f" d="M 1959 3097 
Q 1497 3097 1228 2736 
Q 959 2375 959 1747 
Q 959 1119 1226 758 
Q 1494 397 1959 397 
Q 2419 397 2687 759 
Q 2956 1122 2956 1747 
Q 2956 2369 2687 2733 
Q 2419 3097 1959 3097 
z
M 1959 3584 
Q 2709 3584 3137 3096 
Q 3566 2609 3566 1747 
Q 3566 888 3137 398 
Q 2709 -91 1959 -91 
Q 1206 -91 779 398 
Q 353 888 353 1747 
Q 353 2609 779 3096 
Q 1206 3584 1959 3584 
z
" transform="scale(0.015625)"/>
      <path id="DejaVuSans-69" d="M 603 3500 
L 1178 3500 
L 1178 0 
L 603 0 
L 603 3500 
z
M 603 4863 
L 1178 4863 
L 1178 4134 
L 603 4134 
L 603 4863 
z
" transform="scale(0.015625)"/>
      <path id="DejaVuSans-6c" d="M 603 4863 
L 1178 4863 
L 1178 0 
L 603 0 
L 603 4863 
z
" transform="scale(0.015625)"/>
      <path id="DejaVuSans-79" d="M 2059 -325 
Q 1816 -950 1584 -1140 
Q 1353 -1331 966 -1331 
L 506 -1331 
L 506 -850 
L 844 -850 
Q 1081 -850 1212 -737 
Q 1344 -625 1503 -206 
L 1606 56 
L 191 3500 
L 800 3500 
L 1894 763 
L 2988 3500 
L 3597 3500 
L 2059 -325 
z
" transform="scale(0.015625)"/>
      <path id="DejaVuSans-20" transform="scale(0.015625)"/>
      <path id="DejaVuSans-45" d="M 628 4666 
L 3578 4666 
L 3578 4134 
L 1259 4134 
L 1259 2753 
L 3481 2753 
L 3481 2222 
L 1259 2222 
L 1259 531 
L 3634 531 
L 3634 0 
L 628 0 
L 628 4666 
z
" transform="scale(0.015625)"/>
      <path id="DejaVuSans-70" d="M 1159 525 
L 1159 -1331 
L 581 -1331 
L 581 3500 
L 1159 3500 
L 1159 2969 
Q 1341 3281 1617 3432 
Q 1894 3584 2278 3584 
Q 2916 3584 3314 3078 
Q 3713 2572 3713 1747 
Q 3713 922 3314 415 
Q 2916 -91 2278 -91 
Q 1894 -91 1617 61 
Q 1341 213 1159 525 
z
M 3116 1747 
Q 3116 2381 2855 2742 
Q 2594 3103 2138 3103 
Q 1681 3103 1420 2742 
Q 1159 2381 1159 1747 
Q 1159 1113 1420 752 
Q 1681 391 2138 391 
Q 2594 391 2855 752 
Q 3116 1113 3116 1747 
z
" transform="scale(0.015625)"/>
      <path id="DejaVuSans-68" d="M 3513 2113 
L 3513 0 
L 2938 0 
L 2938 2094 
Q 2938 2591 2744 2837 
Q 2550 3084 2163 3084 
Q 1697 3084 1428 2787 
Q 1159 2491 1159 1978 
L 1159 0 
L 581 0 
L 581 4863 
L 1159 4863 
L 1159 2956 
Q 1366 3272 1645 3428 
Q 1925 3584 2291 3584 
Q 2894 3584 3203 3211 
Q 3513 2838 3513 2113 
z
" transform="scale(0.015625)"/>
      <path id="DejaVuSans-6d" d="M 3328 2828 
Q 3544 3216 3844 3400 
Q 4144 3584 4550 3584 
Q 5097 3584 5394 3201 
Q 5691 2819 5691 2113 
L 5691 0 
L 5113 0 
L 5113 2094 
Q 5113 2597 4934 2840 
Q 4756 3084 4391 3084 
Q 3944 3084 3684 2787 
Q 3425 2491 3425 1978 
L 3425 0 
L 2847 0 
L 2847 2094 
Q 2847 2600 2669 2842 
Q 2491 3084 2119 3084 
Q 1678 3084 1418 2786 
Q 1159 2488 1159 1978 
L 1159 0 
L 581 0 
L 581 3500 
L 1159 3500 
L 1159 2956 
Q 1356 3278 1631 3431 
Q 1906 3584 2284 3584 
Q 2666 3584 2933 3390 
Q 3200 3197 3328 2828 
z
" transform="scale(0.015625)"/>
      <path id="DejaVuSans-72" d="M 2631 2963 
Q 2534 3019 2420 3045 
Q 2306 3072 2169 3072 
Q 1681 3072 1420 2755 
Q 1159 2438 1159 1844 
L 1159 0 
L 581 0 
L 581 3500 
L 1159 3500 
L 1159 2956 
Q 1341 3275 1631 3429 
Q 1922 3584 2338 3584 
Q 2397 3584 2469 3576 
Q 2541 3569 2628 3553 
L 2631 2963 
z
" transform="scale(0.015625)"/>
      <path id="DejaVuSans-4c" d="M 628 4666 
L 1259 4666 
L 1259 531 
L 3531 531 
L 3531 0 
L 628 0 
L 628 4666 
z
" transform="scale(0.015625)"/>
      <path id="DejaVuSans-75" d="M 544 1381 
L 544 3500 
L 1119 3500 
L 1119 1403 
Q 1119 906 1312 657 
Q 1506 409 1894 409 
Q 2359 409 2629 706 
Q 2900 1003 2900 1516 
L 2900 3500 
L 3475 3500 
L 3475 0 
L 2900 0 
L 2900 538 
Q 2691 219 2414 64 
Q 2138 -91 1772 -91 
Q 1169 -91 856 284 
Q 544 659 544 1381 
z
M 1991 3584 
L 1991 3584 
z
" transform="scale(0.015625)"/>
      <path id="DejaVuSans-78" d="M 3513 3500 
L 2247 1797 
L 3578 0 
L 2900 0 
L 1881 1375 
L 863 0 
L 184 0 
L 1544 1831 
L 300 3500 
L 978 3500 
L 1906 2253 
L 2834 3500 
L 3513 3500 
z
" transform="scale(0.015625)"/>
      <path id="DejaVuSans-64" d="M 2906 2969 
L 2906 4863 
L 3481 4863 
L 3481 0 
L 2906 0 
L 2906 525 
Q 2725 213 2448 61 
Q 2172 -91 1784 -91 
Q 1150 -91 751 415 
Q 353 922 353 1747 
Q 353 2572 751 3078 
Q 1150 3584 1784 3584 
Q 2172 3584 2448 3432 
Q 2725 3281 2906 2969 
z
M 947 1747 
Q 947 1113 1208 752 
Q 1469 391 1925 391 
Q 2381 391 2643 752 
Q 2906 1113 2906 1747 
Q 2906 2381 2643 2742 
Q 2381 3103 1925 3103 
Q 1469 3103 1208 2742 
Q 947 2381 947 1747 
z
" transform="scale(0.015625)"/>
      <path id="DejaVuSans-62" d="M 3116 1747 
Q 3116 2381 2855 2742 
Q 2594 3103 2138 3103 
Q 1681 3103 1420 2742 
Q 1159 2381 1159 1747 
Q 1159 1113 1420 752 
Q 1681 391 2138 391 
Q 2594 391 2855 752 
Q 3116 1113 3116 1747 
z
M 1159 2969 
Q 1341 3281 1617 3432 
Q 1894 3584 2278 3584 
Q 2916 3584 3314 3078 
Q 3713 2572 3713 1747 
Q 3713 922 3314 415 
Q 2916 -91 2278 -91 
Q 1894 -91 1617 61 
Q 1341 213 1159 525 
L 1159 0 
L 581 0 
L 581 4863 
L 1159 4863 
L 1159 2969 
z
" transform="scale(0.015625)"/>
     </defs>
     <use xlink:href="#DejaVuSans-50"/>
     <use xlink:href="#DejaVuSans-6f" x="56.677734"/>
     <use xlink:href="#DejaVuSans-74" x="117.859375"/>
     <use xlink:href="#DejaVuSans-65" x="157.068359"/>
     <use xlink:href="#DejaVuSans-6e" x="218.591797"/>
     <use xlink:href="#DejaVuSans-74" x="281.970703"/>
     <use xlink:href="#DejaVuSans-69" x="321.179688"/>
     <use xlink:href="#DejaVuSans-61" x="348.962891"/>
     <use xlink:href="#DejaVuSans-6c" x="410.242188"/>
     <use xlink:href="#DejaVuSans-6c" x="438.025391"/>
     <use xlink:href="#DejaVuSans-79" x="465.808594"/>
     <use xlink:href="#DejaVuSans-20" x="524.988281"/>
     <use xlink:href="#DejaVuSans-45" x="556.775391"/>
     <use xlink:href="#DejaVuSans-70" x="619.958984"/>
     <use xlink:href="#DejaVuSans-68" x="683.435547"/>
     <use xlink:href="#DejaVuSans-65" x="746.814453"/>
     <use xlink:href="#DejaVuSans-6d" x="808.337891"/>
     <use xlink:href="#DejaVuSans-65" x="905.75"/>
     <use xlink:href="#DejaVuSans-72" x="967.273438"/>
     <use xlink:href="#DejaVuSans-61" x="1008.386719"/>
     <use xlink:href="#DejaVuSans-6c" x="1069.666016"/>
     <use xlink:href="#DejaVuSans-20" x="1097.449219"/>
     <use xlink:href="#DejaVuSans-45" x="1129.236328"/>
     <use xlink:href="#DejaVuSans-6e" x="1192.419922"/>
     <use xlink:href="#DejaVuSans-74" x="1255.798828"/>
     <use xlink:href="#DejaVuSans-65" x="1295.007812"/>
     <use xlink:href="#DejaVuSans-72" x="1356.53125"/>
     <use xlink:href="#DejaVuSans-70" x="1397.644531"/>
     <use xlink:href="#DejaVuSans-72" x="1461.121094"/>
     <use xlink:href="#DejaVuSans-69" x="1502.234375"/>
     <use xlink:href="#DejaVuSans-73" x="1530.017578"/>
     <use xlink:href="#DejaVuSans-65" x="1582.117188"/>
     <use xlink:href="#DejaVuSans-20" x="1643.640625"/>
     <use xlink:href="#DejaVuSans-4c" x="1675.427734"/>
     <use xlink:href="#DejaVuSans-69" x="1731.140625"/>
     <use xlink:href="#DejaVuSans-6e" x="1758.923828"/>
     <use xlink:href="#DejaVuSans-75" x="1822.302734"/>
     <use xlink:href="#DejaVuSans-78" x="1885.681641"/>
     <use xlink:href="#DejaVuSans-20" x="1944.861328"/>
     <use xlink:href="#DejaVuSans-38" x="1976.648438"/>
     <use xlink:href="#DejaVuSans-20" x="2040.271484"/>
     <use xlink:href="#DejaVuSans-61" x="2072.058594"/>
     <use xlink:href="#DejaVuSans-6e" x="2133.337891"/>
     <use xlink:href="#DejaVuSans-64" x="2196.716797"/>
     <use xlink:href="#DejaVuSans-20" x="2260.193359"/>
     <use xlink:href="#DejaVuSans-39" x="2291.980469"/>
     <use xlink:href="#DejaVuSans-20" x="2355.603516"/>
     <use xlink:href="#DejaVuSans-49" x="2387.390625"/>
     <use xlink:href="#DejaVuSans-6e" x="2416.882812"/>
     <use xlink:href="#DejaVuSans-73" x="2480.261719"/>
     <use xlink:href="#DejaVuSans-74" x="2532.361328"/>
     <use xlink:href="#DejaVuSans-61" x="2571.570312"/>
     <use xlink:href="#DejaVuSans-6e" x="2632.849609"/>
     <use xlink:href="#DejaVuSans-63" x="2696.228516"/>
     <use xlink:href="#DejaVuSans-65" x="2751.208984"/>
     <use xlink:href="#DejaVuSans-73" x="2812.732422"/>
     <use xlink:href="#DejaVuSans-20" x="2864.832031"/>
     <use xlink:href="#DejaVuSans-62" x="2896.619141"/>
     <use xlink:href="#DejaVuSans-79" x="2960.095703"/>
     <use xlink:href="#DejaVuSans-20" x="3019.275391"/>
     <use xlink:href="#DejaVuSans-44" x="3051.0625"/>
     <use xlink:href="#DejaVuSans-69" x="3128.064453"/>
     <use xlink:href="#DejaVuSans-73" x="3155.847656"/>
     <use xlink:href="#DejaVuSans-74" x="3207.947266"/>
     <use xlink:href="#DejaVuSans-72" x="3247.15625"/>
     <use xlink:href="#DejaVuSans-69" x="3288.269531"/>
     <use xlink:href="#DejaVuSans-62" x="3316.052734"/>
     <use xlink:href="#DejaVuSans-75" x="3379.529297"/>
     <use xlink:href="#DejaVuSans-74" x="3442.908203"/>
     <use xlink:href="#DejaVuSans-69" x="3482.117188"/>
     <use xlink:href="#DejaVuSans-6f" x="3509.900391"/>
     <use xlink:href="#DejaVuSans-6e" x="3571.082031"/>
    </g>
   </g>
   <g id="text_20">
    <!-- 2024-10-17 11:55 UTC -->
    <g transform="translate(794.653875 18.14175)scale(0.144 -0.144)">
     <defs>
      <path id="DejaVuSans-3a" d="M 750 794 
L 1409 794 
L 1409 0 
L 750 0 
L 750 794 
z
M 750 3309 
L 1409 3309 
L 1409 2516 
L 750 2516 
L 750 3309 
z
" transform="scale(0.015625)"/>
      <path id="DejaVuSans-55" d="M 556 4666 
L 1191 4666 
L 1191 1831 
Q 1191 1081 1462 751 
Q 1734 422 2344 422 
Q 2950 422 3222 751 
Q 3494 1081 3494 1831 
L 3494 4666 
L 4128 4666 
L 4128 1753 
Q 4128 841 3676 375 
Q 3225 -91 2344 -91 
Q 1459 -91 1007 375 
Q 556 841 556 1753 
L 556 4666 
z
" transform="scale(0.015625)"/>
      <path id="DejaVuSans-54" d="M -19 4666 
L 3928 4666 
L 3928 4134 
L 2272 4134 
L 2272 0 
L 1638 0 
L 1638 4134 
L -19 4134 
L -19 4666 
z
" transform="scale(0.015625)"/>
      <path id="DejaVuSans-43" d="M 4122 4306 
L 4122 3641 
Q 3803 3938 3442 4084 
Q 3081 4231 2675 4231 
Q 1875 4231 1450 3742 
Q 1025 3253 1025 2328 
Q 1025 1406 1450 917 
Q 1875 428 2675 428 
Q 3081 428 3442 575 
Q 3803 722 4122 1019 
L 4122 359 
Q 3791 134 3420 21 
Q 3050 -91 2638 -91 
Q 1578 -91 968 557 
Q 359 1206 359 2328 
Q 359 3453 968 4101 
Q 1578 4750 2638 4750 
Q 3056 4750 3426 4639 
Q 3797 4528 4122 4306 
z
" transform="scale(0.015625)"/>
     </defs>
     <use xlink:href="#DejaVuSans-32"/>
     <use xlink:href="#DejaVuSans-30" x="63.623047"/>
     <use xlink:href="#DejaVuSans-32" x="127.246094"/>
     <use xlink:href="#DejaVuSans-34" x="190.869141"/>
     <use xlink:href="#DejaVuSans-2d" x="254.492188"/>
     <use xlink:href="#DejaVuSans-31" x="290.576172"/>
     <use xlink:href="#DejaVuSans-30" x="354.199219"/>
     <use xlink:href="#DejaVuSans-2d" x="417.822266"/>
     <use xlink:href="#DejaVuSans-31" x="453.90625"/>
     <use xlink:href="#DejaVuSans-37" x="517.529297"/>
     <use xlink:href="#DejaVuSans-20" x="581.152344"/>
     <use xlink:href="#DejaVuSans-31" x="612.939453"/>
     <use xlink:href="#DejaVuSans-31" x="676.5625"/>
     <use xlink:href="#DejaVuSans-3a" x="740.185547"/>
     <use xlink:href="#DejaVuSans-35" x="773.876953"/>
     <use xlink:href="#DejaVuSans-35" x="837.5"/>
     <use xlink:href="#DejaVuSans-20" x="901.123047"/>
     <use xlink:href="#DejaVuSans-55" x="932.910156"/>
     <use xlink:href="#DejaVuSans-54" x="1006.103516"/>
     <use xlink:href="#DejaVuSans-43" x="1061.3125"/>
    </g>
   </g>
   <g id="legend_1">
    <g id="patch_7">
     <path d="M 61.691875 134.888625 
L 170.660625 134.888625 
Q 172.660625 134.888625 172.660625 132.888625 
L 172.660625 31.14175 
Q 172.660625 29.14175 170.660625 29.14175 
L 61.691875 29.14175 
Q 59.691875 29.14175 59.691875 31.14175 
L 59.691875 132.888625 
Q 59.691875 134.888625 61.691875 134.888625 
z
" style="fill: #e5e5e5; opacity: 0.8; stroke: #cccccc; stroke-width: 0.5; stroke-linejoin: miter"/>
    </g>
    <g id="text_21">
     <!-- Distribution -->
     <g transform="translate(87.0075 40.740187)scale(0.1 -0.1)">
      <use xlink:href="#DejaVuSans-44"/>
      <use xlink:href="#DejaVuSans-69" x="77.001953"/>
      <use xlink:href="#DejaVuSans-73" x="104.785156"/>
      <use xlink:href="#DejaVuSans-74" x="156.884766"/>
      <use xlink:href="#DejaVuSans-72" x="196.09375"/>
      <use xlink:href="#DejaVuSans-69" x="237.207031"/>
      <use xlink:href="#DejaVuSans-62" x="264.990234"/>
      <use xlink:href="#DejaVuSans-75" x="328.466797"/>
      <use xlink:href="#DejaVuSans-74" x="391.845703"/>
      <use xlink:href="#DejaVuSans-69" x="431.054688"/>
      <use xlink:href="#DejaVuSans-6f" x="458.837891"/>
      <use xlink:href="#DejaVuSans-6e" x="520.019531"/>
     </g>
    </g>
    <g id="line2d_45">
     <path d="M 63.691875 51.918312 
L 73.691875 51.918312 
L 83.691875 51.918312 
" style="fill: none; stroke: #4ac1fa; stroke-width: 1.5; stroke-linecap: square"/>
    </g>
    <g id="text_22">
     <!-- AlmaLinux -->
     <g transform="translate(91.691875 55.418312)scale(0.1 -0.1)">
      <defs>
       <path id="DejaVuSans-41" d="M 2188 4044 
L 1331 1722 
L 3047 1722 
L 2188 4044 
z
M 1831 4666 
L 2547 4666 
L 4325 0 
L 3669 0 
L 3244 1197 
L 1141 1197 
L 716 0 
L 50 0 
L 1831 4666 
z
" transform="scale(0.015625)"/>
      </defs>
      <use xlink:href="#DejaVuSans-41"/>
      <use xlink:href="#DejaVuSans-6c" x="68.408203"/>
      <use xlink:href="#DejaVuSans-6d" x="96.191406"/>
      <use xlink:href="#DejaVuSans-61" x="193.603516"/>
      <use xlink:href="#DejaVuSans-4c" x="254.882812"/>
      <use xlink:href="#DejaVuSans-69" x="310.595703"/>
      <use xlink:href="#DejaVuSans-6e" x="338.378906"/>
      <use xlink:href="#DejaVuSans-75" x="401.757812"/>
      <use xlink:href="#DejaVuSans-78" x="465.136719"/>
     </g>
    </g>
    <g id="line2d_46">
     <path d="M 63.691875 66.596437 
L 73.691875 66.596437 
L 83.691875 66.596437 
" style="fill: none; stroke: #e9a942; stroke-width: 1.5; stroke-linecap: square"/>
    </g>
    <g id="text_23">
     <!-- CentOS Legacy -->
     <g transform="translate(91.691875 70.096437)scale(0.1 -0.1)">
      <defs>
       <path id="DejaVuSans-4f" d="M 2522 4238 
Q 1834 4238 1429 3725 
Q 1025 3213 1025 2328 
Q 1025 1447 1429 934 
Q 1834 422 2522 422 
Q 3209 422 3611 934 
Q 4013 1447 4013 2328 
Q 4013 3213 3611 3725 
Q 3209 4238 2522 4238 
z
M 2522 4750 
Q 3503 4750 4090 4092 
Q 4678 3434 4678 2328 
Q 4678 1225 4090 567 
Q 3503 -91 2522 -91 
Q 1538 -91 948 565 
Q 359 1222 359 2328 
Q 359 3434 948 4092 
Q 1538 4750 2522 4750 
z
" transform="scale(0.015625)"/>
       <path id="DejaVuSans-53" d="M 3425 4513 
L 3425 3897 
Q 3066 4069 2747 4153 
Q 2428 4238 2131 4238 
Q 1616 4238 1336 4038 
Q 1056 3838 1056 3469 
Q 1056 3159 1242 3001 
Q 1428 2844 1947 2747 
L 2328 2669 
Q 3034 2534 3370 2195 
Q 3706 1856 3706 1288 
Q 3706 609 3251 259 
Q 2797 -91 1919 -91 
Q 1588 -91 1214 -16 
Q 841 59 441 206 
L 441 856 
Q 825 641 1194 531 
Q 1563 422 1919 422 
Q 2459 422 2753 634 
Q 3047 847 3047 1241 
Q 3047 1584 2836 1778 
Q 2625 1972 2144 2069 
L 1759 2144 
Q 1053 2284 737 2584 
Q 422 2884 422 3419 
Q 422 4038 858 4394 
Q 1294 4750 2059 4750 
Q 2388 4750 2728 4690 
Q 3069 4631 3425 4513 
z
" transform="scale(0.015625)"/>
       <path id="DejaVuSans-67" d="M 2906 1791 
Q 2906 2416 2648 2759 
Q 2391 3103 1925 3103 
Q 1463 3103 1205 2759 
Q 947 2416 947 1791 
Q 947 1169 1205 825 
Q 1463 481 1925 481 
Q 2391 481 2648 825 
Q 2906 1169 2906 1791 
z
M 3481 434 
Q 3481 -459 3084 -895 
Q 2688 -1331 1869 -1331 
Q 1566 -1331 1297 -1286 
Q 1028 -1241 775 -1147 
L 775 -588 
Q 1028 -725 1275 -790 
Q 1522 -856 1778 -856 
Q 2344 -856 2625 -561 
Q 2906 -266 2906 331 
L 2906 616 
Q 2728 306 2450 153 
Q 2172 0 1784 0 
Q 1141 0 747 490 
Q 353 981 353 1791 
Q 353 2603 747 3093 
Q 1141 3584 1784 3584 
Q 2172 3584 2450 3431 
Q 2728 3278 2906 2969 
L 2906 3500 
L 3481 3500 
L 3481 434 
z
" transform="scale(0.015625)"/>
      </defs>
      <use xlink:href="#DejaVuSans-43"/>
      <use xlink:href="#DejaVuSans-65" x="69.824219"/>
      <use xlink:href="#DejaVuSans-6e" x="131.347656"/>
      <use xlink:href="#DejaVuSans-74" x="194.726562"/>
      <use xlink:href="#DejaVuSans-4f" x="233.935547"/>
      <use xlink:href="#DejaVuSans-53" x="312.646484"/>
      <use xlink:href="#DejaVuSans-20" x="376.123047"/>
      <use xlink:href="#DejaVuSans-4c" x="407.910156"/>
      <use xlink:href="#DejaVuSans-65" x="461.873047"/>
      <use xlink:href="#DejaVuSans-67" x="523.396484"/>
      <use xlink:href="#DejaVuSans-61" x="586.873047"/>
      <use xlink:href="#DejaVuSans-63" x="648.152344"/>
      <use xlink:href="#DejaVuSans-79" x="703.132812"/>
     </g>
    </g>
    <g id="line2d_47">
     <path d="M 63.691875 81.274563 
L 73.691875 81.274563 
L 83.691875 81.274563 
" style="fill: none; stroke: #9a5689; stroke-width: 1.5; stroke-linecap: square"/>
    </g>
    <g id="text_24">
     <!-- CentOS Stream -->
     <g transform="translate(91.691875 84.774563)scale(0.1 -0.1)">
      <use xlink:href="#DejaVuSans-43"/>
      <use xlink:href="#DejaVuSans-65" x="69.824219"/>
      <use xlink:href="#DejaVuSans-6e" x="131.347656"/>
      <use xlink:href="#DejaVuSans-74" x="194.726562"/>
      <use xlink:href="#DejaVuSans-4f" x="233.935547"/>
      <use xlink:href="#DejaVuSans-53" x="312.646484"/>
      <use xlink:href="#DejaVuSans-20" x="376.123047"/>
      <use xlink:href="#DejaVuSans-53" x="407.910156"/>
      <use xlink:href="#DejaVuSans-74" x="471.386719"/>
      <use xlink:href="#DejaVuSans-72" x="510.595703"/>
      <use xlink:href="#DejaVuSans-65" x="549.458984"/>
      <use xlink:href="#DejaVuSans-61" x="610.982422"/>
      <use xlink:href="#DejaVuSans-6d" x="672.261719"/>
     </g>
    </g>
    <g id="line2d_48">
     <path d="M 63.691875 95.952687 
L 73.691875 95.952687 
L 83.691875 95.952687 
" style="fill: none; stroke: #be503b; stroke-width: 1.5; stroke-linecap: square"/>
    </g>
    <g id="text_25">
     <!-- Oracle -->
     <g transform="translate(91.691875 99.452687)scale(0.1 -0.1)">
      <use xlink:href="#DejaVuSans-4f"/>
      <use xlink:href="#DejaVuSans-72" x="78.710938"/>
      <use xlink:href="#DejaVuSans-61" x="119.824219"/>
      <use xlink:href="#DejaVuSans-63" x="181.103516"/>
      <use xlink:href="#DejaVuSans-6c" x="236.083984"/>
      <use xlink:href="#DejaVuSans-65" x="263.867188"/>
     </g>
    </g>
    <g id="line2d_49">
     <path d="M 63.691875 110.630812 
L 73.691875 110.630812 
L 83.691875 110.630812 
" style="fill: none; stroke: #e2321d; stroke-width: 1.5; stroke-linecap: square"/>
    </g>
    <g id="text_26">
     <!-- RHEL -->
     <g transform="translate(91.691875 114.130812)scale(0.1 -0.1)">
      <defs>
       <path id="DejaVuSans-52" d="M 2841 2188 
Q 3044 2119 3236 1894 
Q 3428 1669 3622 1275 
L 4263 0 
L 3584 0 
L 2988 1197 
Q 2756 1666 2539 1819 
Q 2322 1972 1947 1972 
L 1259 1972 
L 1259 0 
L 628 0 
L 628 4666 
L 2053 4666 
Q 2853 4666 3247 4331 
Q 3641 3997 3641 3322 
Q 3641 2881 3436 2590 
Q 3231 2300 2841 2188 
z
M 1259 4147 
L 1259 2491 
L 2053 2491 
Q 2509 2491 2742 2702 
Q 2975 2913 2975 3322 
Q 2975 3731 2742 3939 
Q 2509 4147 2053 4147 
L 1259 4147 
z
" transform="scale(0.015625)"/>
       <path id="DejaVuSans-48" d="M 628 4666 
L 1259 4666 
L 1259 2753 
L 3553 2753 
L 3553 4666 
L 4184 4666 
L 4184 0 
L 3553 0 
L 3553 2222 
L 1259 2222 
L 1259 0 
L 628 0 
L 628 4666 
z
" transform="scale(0.015625)"/>
      </defs>
      <use xlink:href="#DejaVuSans-52"/>
      <use xlink:href="#DejaVuSans-48" x="69.482422"/>
      <use xlink:href="#DejaVuSans-45" x="144.677734"/>
      <use xlink:href="#DejaVuSans-4c" x="207.861328"/>
     </g>
    </g>
    <g id="line2d_50">
     <path d="M 63.691875 125.308937 
L 73.691875 125.308937 
L 83.691875 125.308937 
" style="fill: none; stroke: #48b585; stroke-width: 6; stroke-linecap: square"/>
    </g>
    <g id="text_27">
     <!-- Rocky Linux -->
     <g transform="translate(91.691875 128.808937)scale(0.1 -0.1)">
      <use xlink:href="#DejaVuSans-52"/>
      <use xlink:href="#DejaVuSans-6f" x="64.982422"/>
      <use xlink:href="#DejaVuSans-63" x="126.164062"/>
      <use xlink:href="#DejaVuSans-6b" x="181.144531"/>
      <use xlink:href="#DejaVuSans-79" x="235.429688"/>
      <use xlink:href="#DejaVuSans-20" x="294.609375"/>
      <use xlink:href="#DejaVuSans-4c" x="326.396484"/>
      <use xlink:href="#DejaVuSans-69" x="382.109375"/>
      <use xlink:href="#DejaVuSans-6e" x="409.892578"/>
      <use xlink:href="#DejaVuSans-75" x="473.271484"/>
      <use xlink:href="#DejaVuSans-78" x="536.650391"/>
     </g>
    </g>
   </g>
  </g>
 </g>
 <defs>
  <clipPath id="pd4ef0a943c">
   <rect x="54.691875" y="24.14175" width="902.844" height="543.6"/>
  </clipPath>
 </defs>
</svg>
