<?xml version="1.0" encoding="utf-8" standalone="no"?>
<!DOCTYPE svg PUBLIC "-//W3C//DTD SVG 1.1//EN"
  "http://www.w3.org/Graphics/SVG/1.1/DTD/svg11.dtd">
<svg xmlns:xlink="http://www.w3.org/1999/xlink" width="962.123375pt" height="633.943878pt" viewBox="0 0 962.123375 633.943878" xmlns="http://www.w3.org/2000/svg" version="1.1">
 <metadata>
  <rdf:RDF xmlns:dc="http://purl.org/dc/elements/1.1/" xmlns:cc="http://creativecommons.org/ns#" xmlns:rdf="http://www.w3.org/1999/02/22-rdf-syntax-ns#">
   <cc:Work>
    <dc:type rdf:resource="http://purl.org/dc/dcmitype/StillImage"/>
    <dc:date>2024-05-16T11:54:45.169408</dc:date>
    <dc:format>image/svg+xml</dc:format>
    <dc:creator>
     <cc:Agent>
      <dc:title>Matplotlib v3.5.1, https://matplotlib.org/</dc:title>
     </cc:Agent>
    </dc:creator>
   </cc:Work>
  </rdf:RDF>
 </metadata>
 <defs>
  <style type="text/css">*{stroke-linejoin: round; stroke-linecap: butt}</style>
 </defs>
 <g id="figure_1">
  <g id="patch_1">
   <path d="M 0 633.943878 
L 962.123375 633.943878 
L 962.123375 0 
L 0 0 
z
" style="fill: #ffffff"/>
  </g>
  <g id="axes_1">
   <g id="patch_2">
    <path d="M 52.079375 567.74175 
L 954.923375 567.74175 
L 954.923375 24.14175 
L 52.079375 24.14175 
z
" style="fill: #e5e5e5"/>
   </g>
   <g id="matplotlib.axis_1">
    <g id="xtick_1">
     <g id="line2d_1">
      <path d="M 95.931798 567.74175 
L 95.931798 24.14175 
" clip-path="url(#p17ffc7eebe)" style="fill: none; stroke: #ffffff; stroke-width: 0.8; stroke-linecap: square"/>
     </g>
     <g id="line2d_2">
      <defs>
       <path id="ma33c2d32c9" d="M 0 0 
L 0 3.5 
" style="stroke: #555555; stroke-width: 0.8"/>
      </defs>
      <g>
       <use xlink:href="#ma33c2d32c9" x="95.931798" y="567.74175" style="fill: #555555; stroke: #555555; stroke-width: 0.8"/>
      </g>
     </g>
     <g id="text_1">
      <!-- 2023-06 -->
      <g style="fill: #555555" transform="translate(83.110516 609.659567)rotate(-45)scale(0.1 -0.1)">
       <defs>
        <path id="DejaVuSans-32" d="M 1228 531 
L 3431 531 
L 3431 0 
L 469 0 
L 469 531 
Q 828 903 1448 1529 
Q 2069 2156 2228 2338 
Q 2531 2678 2651 2914 
Q 2772 3150 2772 3378 
Q 2772 3750 2511 3984 
Q 2250 4219 1831 4219 
Q 1534 4219 1204 4116 
Q 875 4013 500 3803 
L 500 4441 
Q 881 4594 1212 4672 
Q 1544 4750 1819 4750 
Q 2544 4750 2975 4387 
Q 3406 4025 3406 3419 
Q 3406 3131 3298 2873 
Q 3191 2616 2906 2266 
Q 2828 2175 2409 1742 
Q 1991 1309 1228 531 
z
" transform="scale(0.015625)"/>
        <path id="DejaVuSans-30" d="M 2034 4250 
Q 1547 4250 1301 3770 
Q 1056 3291 1056 2328 
Q 1056 1369 1301 889 
Q 1547 409 2034 409 
Q 2525 409 2770 889 
Q 3016 1369 3016 2328 
Q 3016 3291 2770 3770 
Q 2525 4250 2034 4250 
z
M 2034 4750 
Q 2819 4750 3233 4129 
Q 3647 3509 3647 2328 
Q 3647 1150 3233 529 
Q 2819 -91 2034 -91 
Q 1250 -91 836 529 
Q 422 1150 422 2328 
Q 422 3509 836 4129 
Q 1250 4750 2034 4750 
z
" transform="scale(0.015625)"/>
        <path id="DejaVuSans-33" d="M 2597 2516 
Q 3050 2419 3304 2112 
Q 3559 1806 3559 1356 
Q 3559 666 3084 287 
Q 2609 -91 1734 -91 
Q 1441 -91 1130 -33 
Q 819 25 488 141 
L 488 750 
Q 750 597 1062 519 
Q 1375 441 1716 441 
Q 2309 441 2620 675 
Q 2931 909 2931 1356 
Q 2931 1769 2642 2001 
Q 2353 2234 1838 2234 
L 1294 2234 
L 1294 2753 
L 1863 2753 
Q 2328 2753 2575 2939 
Q 2822 3125 2822 3475 
Q 2822 3834 2567 4026 
Q 2313 4219 1838 4219 
Q 1578 4219 1281 4162 
Q 984 4106 628 3988 
L 628 4550 
Q 988 4650 1302 4700 
Q 1616 4750 1894 4750 
Q 2613 4750 3031 4423 
Q 3450 4097 3450 3541 
Q 3450 3153 3228 2886 
Q 3006 2619 2597 2516 
z
" transform="scale(0.015625)"/>
        <path id="DejaVuSans-2d" d="M 313 2009 
L 1997 2009 
L 1997 1497 
L 313 1497 
L 313 2009 
z
" transform="scale(0.015625)"/>
        <path id="DejaVuSans-36" d="M 2113 2584 
Q 1688 2584 1439 2293 
Q 1191 2003 1191 1497 
Q 1191 994 1439 701 
Q 1688 409 2113 409 
Q 2538 409 2786 701 
Q 3034 994 3034 1497 
Q 3034 2003 2786 2293 
Q 2538 2584 2113 2584 
z
M 3366 4563 
L 3366 3988 
Q 3128 4100 2886 4159 
Q 2644 4219 2406 4219 
Q 1781 4219 1451 3797 
Q 1122 3375 1075 2522 
Q 1259 2794 1537 2939 
Q 1816 3084 2150 3084 
Q 2853 3084 3261 2657 
Q 3669 2231 3669 1497 
Q 3669 778 3244 343 
Q 2819 -91 2113 -91 
Q 1303 -91 875 529 
Q 447 1150 447 2328 
Q 447 3434 972 4092 
Q 1497 4750 2381 4750 
Q 2619 4750 2861 4703 
Q 3103 4656 3366 4563 
z
" transform="scale(0.015625)"/>
       </defs>
       <use xlink:href="#DejaVuSans-32"/>
       <use xlink:href="#DejaVuSans-30" x="63.623047"/>
       <use xlink:href="#DejaVuSans-32" x="127.246094"/>
       <use xlink:href="#DejaVuSans-33" x="190.869141"/>
       <use xlink:href="#DejaVuSans-2d" x="254.492188"/>
       <use xlink:href="#DejaVuSans-30" x="290.576172"/>
       <use xlink:href="#DejaVuSans-36" x="354.199219"/>
      </g>
     </g>
    </g>
    <g id="xtick_2">
     <g id="line2d_3">
      <path d="M 173.318426 567.74175 
L 173.318426 24.14175 
" clip-path="url(#p17ffc7eebe)" style="fill: none; stroke: #ffffff; stroke-width: 0.8; stroke-linecap: square"/>
     </g>
     <g id="line2d_4">
      <g>
       <use xlink:href="#ma33c2d32c9" x="173.318426" y="567.74175" style="fill: #555555; stroke: #555555; stroke-width: 0.8"/>
      </g>
     </g>
     <g id="text_2">
      <!-- 2023-07 -->
      <g style="fill: #555555" transform="translate(160.497144 609.659567)rotate(-45)scale(0.1 -0.1)">
       <defs>
        <path id="DejaVuSans-37" d="M 525 4666 
L 3525 4666 
L 3525 4397 
L 1831 0 
L 1172 0 
L 2766 4134 
L 525 4134 
L 525 4666 
z
" transform="scale(0.015625)"/>
       </defs>
       <use xlink:href="#DejaVuSans-32"/>
       <use xlink:href="#DejaVuSans-30" x="63.623047"/>
       <use xlink:href="#DejaVuSans-32" x="127.246094"/>
       <use xlink:href="#DejaVuSans-33" x="190.869141"/>
       <use xlink:href="#DejaVuSans-2d" x="254.492188"/>
       <use xlink:href="#DejaVuSans-30" x="290.576172"/>
       <use xlink:href="#DejaVuSans-37" x="354.199219"/>
      </g>
     </g>
    </g>
    <g id="xtick_3">
     <g id="line2d_5">
      <path d="M 253.284609 567.74175 
L 253.284609 24.14175 
" clip-path="url(#p17ffc7eebe)" style="fill: none; stroke: #ffffff; stroke-width: 0.8; stroke-linecap: square"/>
     </g>
     <g id="line2d_6">
      <g>
       <use xlink:href="#ma33c2d32c9" x="253.284609" y="567.74175" style="fill: #555555; stroke: #555555; stroke-width: 0.8"/>
      </g>
     </g>
     <g id="text_3">
      <!-- 2023-08 -->
      <g style="fill: #555555" transform="translate(240.463327 609.659567)rotate(-45)scale(0.1 -0.1)">
       <defs>
        <path id="DejaVuSans-38" d="M 2034 2216 
Q 1584 2216 1326 1975 
Q 1069 1734 1069 1313 
Q 1069 891 1326 650 
Q 1584 409 2034 409 
Q 2484 409 2743 651 
Q 3003 894 3003 1313 
Q 3003 1734 2745 1975 
Q 2488 2216 2034 2216 
z
M 1403 2484 
Q 997 2584 770 2862 
Q 544 3141 544 3541 
Q 544 4100 942 4425 
Q 1341 4750 2034 4750 
Q 2731 4750 3128 4425 
Q 3525 4100 3525 3541 
Q 3525 3141 3298 2862 
Q 3072 2584 2669 2484 
Q 3125 2378 3379 2068 
Q 3634 1759 3634 1313 
Q 3634 634 3220 271 
Q 2806 -91 2034 -91 
Q 1263 -91 848 271 
Q 434 634 434 1313 
Q 434 1759 690 2068 
Q 947 2378 1403 2484 
z
M 1172 3481 
Q 1172 3119 1398 2916 
Q 1625 2713 2034 2713 
Q 2441 2713 2670 2916 
Q 2900 3119 2900 3481 
Q 2900 3844 2670 4047 
Q 2441 4250 2034 4250 
Q 1625 4250 1398 4047 
Q 1172 3844 1172 3481 
z
" transform="scale(0.015625)"/>
       </defs>
       <use xlink:href="#DejaVuSans-32"/>
       <use xlink:href="#DejaVuSans-30" x="63.623047"/>
       <use xlink:href="#DejaVuSans-32" x="127.246094"/>
       <use xlink:href="#DejaVuSans-33" x="190.869141"/>
       <use xlink:href="#DejaVuSans-2d" x="254.492188"/>
       <use xlink:href="#DejaVuSans-30" x="290.576172"/>
       <use xlink:href="#DejaVuSans-38" x="354.199219"/>
      </g>
     </g>
    </g>
    <g id="xtick_4">
     <g id="line2d_7">
      <path d="M 333.250792 567.74175 
L 333.250792 24.14175 
" clip-path="url(#p17ffc7eebe)" style="fill: none; stroke: #ffffff; stroke-width: 0.8; stroke-linecap: square"/>
     </g>
     <g id="line2d_8">
      <g>
       <use xlink:href="#ma33c2d32c9" x="333.250792" y="567.74175" style="fill: #555555; stroke: #555555; stroke-width: 0.8"/>
      </g>
     </g>
     <g id="text_4">
      <!-- 2023-09 -->
      <g style="fill: #555555" transform="translate(320.42951 609.659567)rotate(-45)scale(0.1 -0.1)">
       <defs>
        <path id="DejaVuSans-39" d="M 703 97 
L 703 672 
Q 941 559 1184 500 
Q 1428 441 1663 441 
Q 2288 441 2617 861 
Q 2947 1281 2994 2138 
Q 2813 1869 2534 1725 
Q 2256 1581 1919 1581 
Q 1219 1581 811 2004 
Q 403 2428 403 3163 
Q 403 3881 828 4315 
Q 1253 4750 1959 4750 
Q 2769 4750 3195 4129 
Q 3622 3509 3622 2328 
Q 3622 1225 3098 567 
Q 2575 -91 1691 -91 
Q 1453 -91 1209 -44 
Q 966 3 703 97 
z
M 1959 2075 
Q 2384 2075 2632 2365 
Q 2881 2656 2881 3163 
Q 2881 3666 2632 3958 
Q 2384 4250 1959 4250 
Q 1534 4250 1286 3958 
Q 1038 3666 1038 3163 
Q 1038 2656 1286 2365 
Q 1534 2075 1959 2075 
z
" transform="scale(0.015625)"/>
       </defs>
       <use xlink:href="#DejaVuSans-32"/>
       <use xlink:href="#DejaVuSans-30" x="63.623047"/>
       <use xlink:href="#DejaVuSans-32" x="127.246094"/>
       <use xlink:href="#DejaVuSans-33" x="190.869141"/>
       <use xlink:href="#DejaVuSans-2d" x="254.492188"/>
       <use xlink:href="#DejaVuSans-30" x="290.576172"/>
       <use xlink:href="#DejaVuSans-39" x="354.199219"/>
      </g>
     </g>
    </g>
    <g id="xtick_5">
     <g id="line2d_9">
      <path d="M 410.637421 567.74175 
L 410.637421 24.14175 
" clip-path="url(#p17ffc7eebe)" style="fill: none; stroke: #ffffff; stroke-width: 0.8; stroke-linecap: square"/>
     </g>
     <g id="line2d_10">
      <g>
       <use xlink:href="#ma33c2d32c9" x="410.637421" y="567.74175" style="fill: #555555; stroke: #555555; stroke-width: 0.8"/>
      </g>
     </g>
     <g id="text_5">
      <!-- 2023-10 -->
      <g style="fill: #555555" transform="translate(397.816138 609.659567)rotate(-45)scale(0.1 -0.1)">
       <defs>
        <path id="DejaVuSans-31" d="M 794 531 
L 1825 531 
L 1825 4091 
L 703 3866 
L 703 4441 
L 1819 4666 
L 2450 4666 
L 2450 531 
L 3481 531 
L 3481 0 
L 794 0 
L 794 531 
z
" transform="scale(0.015625)"/>
       </defs>
       <use xlink:href="#DejaVuSans-32"/>
       <use xlink:href="#DejaVuSans-30" x="63.623047"/>
       <use xlink:href="#DejaVuSans-32" x="127.246094"/>
       <use xlink:href="#DejaVuSans-33" x="190.869141"/>
       <use xlink:href="#DejaVuSans-2d" x="254.492188"/>
       <use xlink:href="#DejaVuSans-31" x="290.576172"/>
       <use xlink:href="#DejaVuSans-30" x="354.199219"/>
      </g>
     </g>
    </g>
    <g id="xtick_6">
     <g id="line2d_11">
      <path d="M 490.603604 567.74175 
L 490.603604 24.14175 
" clip-path="url(#p17ffc7eebe)" style="fill: none; stroke: #ffffff; stroke-width: 0.8; stroke-linecap: square"/>
     </g>
     <g id="line2d_12">
      <g>
       <use xlink:href="#ma33c2d32c9" x="490.603604" y="567.74175" style="fill: #555555; stroke: #555555; stroke-width: 0.8"/>
      </g>
     </g>
     <g id="text_6">
      <!-- 2023-11 -->
      <g style="fill: #555555" transform="translate(477.782321 609.659567)rotate(-45)scale(0.1 -0.1)">
       <use xlink:href="#DejaVuSans-32"/>
       <use xlink:href="#DejaVuSans-30" x="63.623047"/>
       <use xlink:href="#DejaVuSans-32" x="127.246094"/>
       <use xlink:href="#DejaVuSans-33" x="190.869141"/>
       <use xlink:href="#DejaVuSans-2d" x="254.492188"/>
       <use xlink:href="#DejaVuSans-31" x="290.576172"/>
       <use xlink:href="#DejaVuSans-31" x="354.199219"/>
      </g>
     </g>
    </g>
    <g id="xtick_7">
     <g id="line2d_13">
      <path d="M 567.990232 567.74175 
L 567.990232 24.14175 
" clip-path="url(#p17ffc7eebe)" style="fill: none; stroke: #ffffff; stroke-width: 0.8; stroke-linecap: square"/>
     </g>
     <g id="line2d_14">
      <g>
       <use xlink:href="#ma33c2d32c9" x="567.990232" y="567.74175" style="fill: #555555; stroke: #555555; stroke-width: 0.8"/>
      </g>
     </g>
     <g id="text_7">
      <!-- 2023-12 -->
      <g style="fill: #555555" transform="translate(555.16895 609.659567)rotate(-45)scale(0.1 -0.1)">
       <use xlink:href="#DejaVuSans-32"/>
       <use xlink:href="#DejaVuSans-30" x="63.623047"/>
       <use xlink:href="#DejaVuSans-32" x="127.246094"/>
       <use xlink:href="#DejaVuSans-33" x="190.869141"/>
       <use xlink:href="#DejaVuSans-2d" x="254.492188"/>
       <use xlink:href="#DejaVuSans-31" x="290.576172"/>
       <use xlink:href="#DejaVuSans-32" x="354.199219"/>
      </g>
     </g>
    </g>
    <g id="xtick_8">
     <g id="line2d_15">
      <path d="M 647.956415 567.74175 
L 647.956415 24.14175 
" clip-path="url(#p17ffc7eebe)" style="fill: none; stroke: #ffffff; stroke-width: 0.8; stroke-linecap: square"/>
     </g>
     <g id="line2d_16">
      <g>
       <use xlink:href="#ma33c2d32c9" x="647.956415" y="567.74175" style="fill: #555555; stroke: #555555; stroke-width: 0.8"/>
      </g>
     </g>
     <g id="text_8">
      <!-- 2024-01 -->
      <g style="fill: #555555" transform="translate(635.135133 609.659567)rotate(-45)scale(0.1 -0.1)">
       <defs>
        <path id="DejaVuSans-34" d="M 2419 4116 
L 825 1625 
L 2419 1625 
L 2419 4116 
z
M 2253 4666 
L 3047 4666 
L 3047 1625 
L 3713 1625 
L 3713 1100 
L 3047 1100 
L 3047 0 
L 2419 0 
L 2419 1100 
L 313 1100 
L 313 1709 
L 2253 4666 
z
" transform="scale(0.015625)"/>
       </defs>
       <use xlink:href="#DejaVuSans-32"/>
       <use xlink:href="#DejaVuSans-30" x="63.623047"/>
       <use xlink:href="#DejaVuSans-32" x="127.246094"/>
       <use xlink:href="#DejaVuSans-34" x="190.869141"/>
       <use xlink:href="#DejaVuSans-2d" x="254.492188"/>
       <use xlink:href="#DejaVuSans-30" x="290.576172"/>
       <use xlink:href="#DejaVuSans-31" x="354.199219"/>
      </g>
     </g>
    </g>
    <g id="xtick_9">
     <g id="line2d_17">
      <path d="M 727.922598 567.74175 
L 727.922598 24.14175 
" clip-path="url(#p17ffc7eebe)" style="fill: none; stroke: #ffffff; stroke-width: 0.8; stroke-linecap: square"/>
     </g>
     <g id="line2d_18">
      <g>
       <use xlink:href="#ma33c2d32c9" x="727.922598" y="567.74175" style="fill: #555555; stroke: #555555; stroke-width: 0.8"/>
      </g>
     </g>
     <g id="text_9">
      <!-- 2024-02 -->
      <g style="fill: #555555" transform="translate(715.101316 609.659567)rotate(-45)scale(0.1 -0.1)">
       <use xlink:href="#DejaVuSans-32"/>
       <use xlink:href="#DejaVuSans-30" x="63.623047"/>
       <use xlink:href="#DejaVuSans-32" x="127.246094"/>
       <use xlink:href="#DejaVuSans-34" x="190.869141"/>
       <use xlink:href="#DejaVuSans-2d" x="254.492188"/>
       <use xlink:href="#DejaVuSans-30" x="290.576172"/>
       <use xlink:href="#DejaVuSans-32" x="354.199219"/>
      </g>
     </g>
    </g>
    <g id="xtick_10">
     <g id="line2d_19">
      <path d="M 802.729672 567.74175 
L 802.729672 24.14175 
" clip-path="url(#p17ffc7eebe)" style="fill: none; stroke: #ffffff; stroke-width: 0.8; stroke-linecap: square"/>
     </g>
     <g id="line2d_20">
      <g>
       <use xlink:href="#ma33c2d32c9" x="802.729672" y="567.74175" style="fill: #555555; stroke: #555555; stroke-width: 0.8"/>
      </g>
     </g>
     <g id="text_10">
      <!-- 2024-03 -->
      <g style="fill: #555555" transform="translate(789.90839 609.659567)rotate(-45)scale(0.1 -0.1)">
       <use xlink:href="#DejaVuSans-32"/>
       <use xlink:href="#DejaVuSans-30" x="63.623047"/>
       <use xlink:href="#DejaVuSans-32" x="127.246094"/>
       <use xlink:href="#DejaVuSans-34" x="190.869141"/>
       <use xlink:href="#DejaVuSans-2d" x="254.492188"/>
       <use xlink:href="#DejaVuSans-30" x="290.576172"/>
       <use xlink:href="#DejaVuSans-33" x="354.199219"/>
      </g>
     </g>
    </g>
    <g id="xtick_11">
     <g id="line2d_21">
      <path d="M 882.695855 567.74175 
L 882.695855 24.14175 
" clip-path="url(#p17ffc7eebe)" style="fill: none; stroke: #ffffff; stroke-width: 0.8; stroke-linecap: square"/>
     </g>
     <g id="line2d_22">
      <g>
       <use xlink:href="#ma33c2d32c9" x="882.695855" y="567.74175" style="fill: #555555; stroke: #555555; stroke-width: 0.8"/>
      </g>
     </g>
     <g id="text_11">
      <!-- 2024-04 -->
      <g style="fill: #555555" transform="translate(869.874573 609.659567)rotate(-45)scale(0.1 -0.1)">
       <use xlink:href="#DejaVuSans-32"/>
       <use xlink:href="#DejaVuSans-30" x="63.623047"/>
       <use xlink:href="#DejaVuSans-32" x="127.246094"/>
       <use xlink:href="#DejaVuSans-34" x="190.869141"/>
       <use xlink:href="#DejaVuSans-2d" x="254.492188"/>
       <use xlink:href="#DejaVuSans-30" x="290.576172"/>
       <use xlink:href="#DejaVuSans-34" x="354.199219"/>
      </g>
     </g>
    </g>
    <g id="text_12">
     <!-- Date -->
     <g style="fill: #555555" transform="translate(489.160438 624.248253)scale(0.12 -0.12)">
      <defs>
       <path id="DejaVuSans-44" d="M 1259 4147 
L 1259 519 
L 2022 519 
Q 2988 519 3436 956 
Q 3884 1394 3884 2338 
Q 3884 3275 3436 3711 
Q 2988 4147 2022 4147 
L 1259 4147 
z
M 628 4666 
L 1925 4666 
Q 3281 4666 3915 4102 
Q 4550 3538 4550 2338 
Q 4550 1131 3912 565 
Q 3275 0 1925 0 
L 628 0 
L 628 4666 
z
" transform="scale(0.015625)"/>
       <path id="DejaVuSans-61" d="M 2194 1759 
Q 1497 1759 1228 1600 
Q 959 1441 959 1056 
Q 959 750 1161 570 
Q 1363 391 1709 391 
Q 2188 391 2477 730 
Q 2766 1069 2766 1631 
L 2766 1759 
L 2194 1759 
z
M 3341 1997 
L 3341 0 
L 2766 0 
L 2766 531 
Q 2569 213 2275 61 
Q 1981 -91 1556 -91 
Q 1019 -91 701 211 
Q 384 513 384 1019 
Q 384 1609 779 1909 
Q 1175 2209 1959 2209 
L 2766 2209 
L 2766 2266 
Q 2766 2663 2505 2880 
Q 2244 3097 1772 3097 
Q 1472 3097 1187 3025 
Q 903 2953 641 2809 
L 641 3341 
Q 956 3463 1253 3523 
Q 1550 3584 1831 3584 
Q 2591 3584 2966 3190 
Q 3341 2797 3341 1997 
z
" transform="scale(0.015625)"/>
       <path id="DejaVuSans-74" d="M 1172 4494 
L 1172 3500 
L 2356 3500 
L 2356 3053 
L 1172 3053 
L 1172 1153 
Q 1172 725 1289 603 
Q 1406 481 1766 481 
L 2356 481 
L 2356 0 
L 1766 0 
Q 1100 0 847 248 
Q 594 497 594 1153 
L 594 3053 
L 172 3053 
L 172 3500 
L 594 3500 
L 594 4494 
L 1172 4494 
z
" transform="scale(0.015625)"/>
       <path id="DejaVuSans-65" d="M 3597 1894 
L 3597 1613 
L 953 1613 
Q 991 1019 1311 708 
Q 1631 397 2203 397 
Q 2534 397 2845 478 
Q 3156 559 3463 722 
L 3463 178 
Q 3153 47 2828 -22 
Q 2503 -91 2169 -91 
Q 1331 -91 842 396 
Q 353 884 353 1716 
Q 353 2575 817 3079 
Q 1281 3584 2069 3584 
Q 2775 3584 3186 3129 
Q 3597 2675 3597 1894 
z
M 3022 2063 
Q 3016 2534 2758 2815 
Q 2500 3097 2075 3097 
Q 1594 3097 1305 2825 
Q 1016 2553 972 2059 
L 3022 2063 
z
" transform="scale(0.015625)"/>
      </defs>
      <use xlink:href="#DejaVuSans-44"/>
      <use xlink:href="#DejaVuSans-61" x="77.001953"/>
      <use xlink:href="#DejaVuSans-74" x="138.28125"/>
      <use xlink:href="#DejaVuSans-65" x="177.490234"/>
     </g>
    </g>
   </g>
   <g id="matplotlib.axis_2">
    <g id="ytick_1">
     <g id="line2d_23">
      <path d="M 52.079375 567.74175 
L 954.923375 567.74175 
" clip-path="url(#p17ffc7eebe)" style="fill: none; stroke: #ffffff; stroke-width: 0.8; stroke-linecap: square"/>
     </g>
     <g id="line2d_24">
      <defs>
       <path id="m914fa5ad1e" d="M 0 0 
L -3.5 0 
" style="stroke: #555555; stroke-width: 0.8"/>
      </defs>
      <g>
       <use xlink:href="#m914fa5ad1e" x="52.079375" y="567.74175" style="fill: #555555; stroke: #555555; stroke-width: 0.8"/>
      </g>
     </g>
     <g id="text_13">
      <!-- 0.00 -->
      <g style="fill: #555555" transform="translate(22.81375 571.540969)scale(0.1 -0.1)">
       <defs>
        <path id="DejaVuSans-2e" d="M 684 794 
L 1344 794 
L 1344 0 
L 684 0 
L 684 794 
z
" transform="scale(0.015625)"/>
       </defs>
       <use xlink:href="#DejaVuSans-30"/>
       <use xlink:href="#DejaVuSans-2e" x="63.623047"/>
       <use xlink:href="#DejaVuSans-30" x="95.410156"/>
       <use xlink:href="#DejaVuSans-30" x="159.033203"/>
      </g>
     </g>
    </g>
    <g id="ytick_2">
     <g id="line2d_25">
      <path d="M 52.079375 494.032208 
L 954.923375 494.032208 
" clip-path="url(#p17ffc7eebe)" style="fill: none; stroke: #ffffff; stroke-width: 0.8; stroke-linecap: square"/>
     </g>
     <g id="line2d_26">
      <g>
       <use xlink:href="#m914fa5ad1e" x="52.079375" y="494.032208" style="fill: #555555; stroke: #555555; stroke-width: 0.8"/>
      </g>
     </g>
     <g id="text_14">
      <!-- 0.05 -->
      <g style="fill: #555555" transform="translate(22.81375 497.831427)scale(0.1 -0.1)">
       <defs>
        <path id="DejaVuSans-35" d="M 691 4666 
L 3169 4666 
L 3169 4134 
L 1269 4134 
L 1269 2991 
Q 1406 3038 1543 3061 
Q 1681 3084 1819 3084 
Q 2600 3084 3056 2656 
Q 3513 2228 3513 1497 
Q 3513 744 3044 326 
Q 2575 -91 1722 -91 
Q 1428 -91 1123 -41 
Q 819 9 494 109 
L 494 744 
Q 775 591 1075 516 
Q 1375 441 1709 441 
Q 2250 441 2565 725 
Q 2881 1009 2881 1497 
Q 2881 1984 2565 2268 
Q 2250 2553 1709 2553 
Q 1456 2553 1204 2497 
Q 953 2441 691 2322 
L 691 4666 
z
" transform="scale(0.015625)"/>
       </defs>
       <use xlink:href="#DejaVuSans-30"/>
       <use xlink:href="#DejaVuSans-2e" x="63.623047"/>
       <use xlink:href="#DejaVuSans-30" x="95.410156"/>
       <use xlink:href="#DejaVuSans-35" x="159.033203"/>
      </g>
     </g>
    </g>
    <g id="ytick_3">
     <g id="line2d_27">
      <path d="M 52.079375 420.322666 
L 954.923375 420.322666 
" clip-path="url(#p17ffc7eebe)" style="fill: none; stroke: #ffffff; stroke-width: 0.8; stroke-linecap: square"/>
     </g>
     <g id="line2d_28">
      <g>
       <use xlink:href="#m914fa5ad1e" x="52.079375" y="420.322666" style="fill: #555555; stroke: #555555; stroke-width: 0.8"/>
      </g>
     </g>
     <g id="text_15">
      <!-- 0.10 -->
      <g style="fill: #555555" transform="translate(22.81375 424.121885)scale(0.1 -0.1)">
       <use xlink:href="#DejaVuSans-30"/>
       <use xlink:href="#DejaVuSans-2e" x="63.623047"/>
       <use xlink:href="#DejaVuSans-31" x="95.410156"/>
       <use xlink:href="#DejaVuSans-30" x="159.033203"/>
      </g>
     </g>
    </g>
    <g id="ytick_4">
     <g id="line2d_29">
      <path d="M 52.079375 346.613125 
L 954.923375 346.613125 
" clip-path="url(#p17ffc7eebe)" style="fill: none; stroke: #ffffff; stroke-width: 0.8; stroke-linecap: square"/>
     </g>
     <g id="line2d_30">
      <g>
       <use xlink:href="#m914fa5ad1e" x="52.079375" y="346.613125" style="fill: #555555; stroke: #555555; stroke-width: 0.8"/>
      </g>
     </g>
     <g id="text_16">
      <!-- 0.15 -->
      <g style="fill: #555555" transform="translate(22.81375 350.412343)scale(0.1 -0.1)">
       <use xlink:href="#DejaVuSans-30"/>
       <use xlink:href="#DejaVuSans-2e" x="63.623047"/>
       <use xlink:href="#DejaVuSans-31" x="95.410156"/>
       <use xlink:href="#DejaVuSans-35" x="159.033203"/>
      </g>
     </g>
    </g>
    <g id="ytick_5">
     <g id="line2d_31">
      <path d="M 52.079375 272.903583 
L 954.923375 272.903583 
" clip-path="url(#p17ffc7eebe)" style="fill: none; stroke: #ffffff; stroke-width: 0.8; stroke-linecap: square"/>
     </g>
     <g id="line2d_32">
      <g>
       <use xlink:href="#m914fa5ad1e" x="52.079375" y="272.903583" style="fill: #555555; stroke: #555555; stroke-width: 0.8"/>
      </g>
     </g>
     <g id="text_17">
      <!-- 0.20 -->
      <g style="fill: #555555" transform="translate(22.81375 276.702802)scale(0.1 -0.1)">
       <use xlink:href="#DejaVuSans-30"/>
       <use xlink:href="#DejaVuSans-2e" x="63.623047"/>
       <use xlink:href="#DejaVuSans-32" x="95.410156"/>
       <use xlink:href="#DejaVuSans-30" x="159.033203"/>
      </g>
     </g>
    </g>
    <g id="ytick_6">
     <g id="line2d_33">
      <path d="M 52.079375 199.194041 
L 954.923375 199.194041 
" clip-path="url(#p17ffc7eebe)" style="fill: none; stroke: #ffffff; stroke-width: 0.8; stroke-linecap: square"/>
     </g>
     <g id="line2d_34">
      <g>
       <use xlink:href="#m914fa5ad1e" x="52.079375" y="199.194041" style="fill: #555555; stroke: #555555; stroke-width: 0.8"/>
      </g>
     </g>
     <g id="text_18">
      <!-- 0.25 -->
      <g style="fill: #555555" transform="translate(22.81375 202.99326)scale(0.1 -0.1)">
       <use xlink:href="#DejaVuSans-30"/>
       <use xlink:href="#DejaVuSans-2e" x="63.623047"/>
       <use xlink:href="#DejaVuSans-32" x="95.410156"/>
       <use xlink:href="#DejaVuSans-35" x="159.033203"/>
      </g>
     </g>
    </g>
    <g id="ytick_7">
     <g id="line2d_35">
      <path d="M 52.079375 125.484499 
L 954.923375 125.484499 
" clip-path="url(#p17ffc7eebe)" style="fill: none; stroke: #ffffff; stroke-width: 0.8; stroke-linecap: square"/>
     </g>
     <g id="line2d_36">
      <g>
       <use xlink:href="#m914fa5ad1e" x="52.079375" y="125.484499" style="fill: #555555; stroke: #555555; stroke-width: 0.8"/>
      </g>
     </g>
     <g id="text_19">
      <!-- 0.30 -->
      <g style="fill: #555555" transform="translate(22.81375 129.283718)scale(0.1 -0.1)">
       <use xlink:href="#DejaVuSans-30"/>
       <use xlink:href="#DejaVuSans-2e" x="63.623047"/>
       <use xlink:href="#DejaVuSans-33" x="95.410156"/>
       <use xlink:href="#DejaVuSans-30" x="159.033203"/>
      </g>
     </g>
    </g>
    <g id="ytick_8">
     <g id="line2d_37">
      <path d="M 52.079375 51.774958 
L 954.923375 51.774958 
" clip-path="url(#p17ffc7eebe)" style="fill: none; stroke: #ffffff; stroke-width: 0.8; stroke-linecap: square"/>
     </g>
     <g id="line2d_38">
      <g>
       <use xlink:href="#m914fa5ad1e" x="52.079375" y="51.774958" style="fill: #555555; stroke: #555555; stroke-width: 0.8"/>
      </g>
     </g>
     <g id="text_20">
      <!-- 0.35 -->
      <g style="fill: #555555" transform="translate(22.81375 55.574176)scale(0.1 -0.1)">
       <use xlink:href="#DejaVuSans-30"/>
       <use xlink:href="#DejaVuSans-2e" x="63.623047"/>
       <use xlink:href="#DejaVuSans-33" x="95.410156"/>
       <use xlink:href="#DejaVuSans-35" x="159.033203"/>
      </g>
     </g>
    </g>
    <g id="text_21">
     <!-- Share -->
     <g style="fill: #555555" transform="translate(16.318125 313.253625)rotate(-90)scale(0.12 -0.12)">
      <defs>
       <path id="DejaVuSans-53" d="M 3425 4513 
L 3425 3897 
Q 3066 4069 2747 4153 
Q 2428 4238 2131 4238 
Q 1616 4238 1336 4038 
Q 1056 3838 1056 3469 
Q 1056 3159 1242 3001 
Q 1428 2844 1947 2747 
L 2328 2669 
Q 3034 2534 3370 2195 
Q 3706 1856 3706 1288 
Q 3706 609 3251 259 
Q 2797 -91 1919 -91 
Q 1588 -91 1214 -16 
Q 841 59 441 206 
L 441 856 
Q 825 641 1194 531 
Q 1563 422 1919 422 
Q 2459 422 2753 634 
Q 3047 847 3047 1241 
Q 3047 1584 2836 1778 
Q 2625 1972 2144 2069 
L 1759 2144 
Q 1053 2284 737 2584 
Q 422 2884 422 3419 
Q 422 4038 858 4394 
Q 1294 4750 2059 4750 
Q 2388 4750 2728 4690 
Q 3069 4631 3425 4513 
z
" transform="scale(0.015625)"/>
       <path id="DejaVuSans-68" d="M 3513 2113 
L 3513 0 
L 2938 0 
L 2938 2094 
Q 2938 2591 2744 2837 
Q 2550 3084 2163 3084 
Q 1697 3084 1428 2787 
Q 1159 2491 1159 1978 
L 1159 0 
L 581 0 
L 581 4863 
L 1159 4863 
L 1159 2956 
Q 1366 3272 1645 3428 
Q 1925 3584 2291 3584 
Q 2894 3584 3203 3211 
Q 3513 2838 3513 2113 
z
" transform="scale(0.015625)"/>
       <path id="DejaVuSans-72" d="M 2631 2963 
Q 2534 3019 2420 3045 
Q 2306 3072 2169 3072 
Q 1681 3072 1420 2755 
Q 1159 2438 1159 1844 
L 1159 0 
L 581 0 
L 581 3500 
L 1159 3500 
L 1159 2956 
Q 1341 3275 1631 3429 
Q 1922 3584 2338 3584 
Q 2397 3584 2469 3576 
Q 2541 3569 2628 3553 
L 2631 2963 
z
" transform="scale(0.015625)"/>
      </defs>
      <use xlink:href="#DejaVuSans-53"/>
      <use xlink:href="#DejaVuSans-68" x="63.476562"/>
      <use xlink:href="#DejaVuSans-61" x="126.855469"/>
      <use xlink:href="#DejaVuSans-72" x="188.134766"/>
      <use xlink:href="#DejaVuSans-65" x="226.998047"/>
     </g>
    </g>
   </g>
   <g id="line2d_39">
    <path d="M 52.079375 342.054222 
L 61.199011 341.71768 
L 70.318648 341.381137 
L 79.438284 341.044595 
L 88.55792 340.708053 
L 97.677557 340.371511 
L 106.797193 340.034968 
L 115.91683 339.698426 
L 125.036466 339.361884 
L 134.156102 339.025341 
L 143.275739 338.688799 
L 152.395375 338.352257 
L 161.515011 338.015714 
L 170.634648 337.679172 
L 179.754284 337.34263 
L 188.87392 337.006087 
L 197.993557 336.669545 
L 207.113193 336.333003 
L 216.23283 335.99646 
L 225.352466 335.659918 
L 234.472102 335.323376 
L 243.591739 334.986834 
L 252.711375 334.650291 
L 261.831011 334.313749 
L 270.950648 333.977207 
L 280.070284 333.640664 
L 289.18992 333.304122 
L 298.309557 332.96758 
L 307.429193 332.631037 
L 316.54883 332.294495 
L 325.668466 331.957953 
L 334.788102 331.62141 
L 343.907739 331.284868 
L 353.027375 330.948326 
L 362.147011 330.611783 
L 371.266648 330.275241 
L 380.386284 329.938699 
L 389.50592 329.602156 
L 398.625557 329.265614 
L 407.745193 328.929072 
L 416.86483 328.59253 
L 425.984466 328.255987 
L 435.104102 327.919445 
L 444.223739 327.582903 
L 453.343375 327.24636 
L 462.463011 326.909818 
L 471.582648 326.573276 
L 480.702284 326.236733 
L 489.82192 325.900191 
L 498.941557 325.563649 
L 508.061193 325.227106 
L 517.18083 324.890564 
L 526.300466 324.554022 
L 535.420102 324.217479 
L 544.539739 323.880937 
L 553.659375 323.544395 
L 562.779011 323.207852 
L 571.898648 322.87131 
L 581.018284 322.534768 
L 590.13792 322.198226 
L 599.257557 321.861683 
L 608.377193 321.525141 
L 617.49683 321.188599 
L 626.616466 320.852056 
L 635.736102 320.515514 
L 644.855739 320.178972 
L 653.975375 319.842429 
L 663.095011 319.505887 
L 672.214648 319.169345 
L 681.334284 318.832802 
L 690.45392 318.49626 
L 699.573557 318.159718 
L 708.693193 317.823175 
L 717.81283 317.486633 
L 726.932466 317.150091 
L 736.052102 316.813549 
L 745.171739 316.477006 
L 754.291375 316.140464 
L 763.411011 315.803922 
L 772.530648 315.467379 
L 781.650284 315.130837 
L 790.76992 314.794295 
L 799.889557 314.457752 
L 809.009193 314.12121 
L 818.12883 313.784668 
L 827.248466 313.448125 
L 836.368102 313.111583 
L 845.487739 312.775041 
L 854.607375 312.438498 
L 863.727011 312.101956 
L 872.846648 311.765414 
L 881.966284 311.428871 
L 891.08592 311.092329 
L 900.205557 310.755787 
L 909.325193 310.419245 
L 918.44483 310.082702 
L 927.564466 309.74616 
L 936.684102 309.409618 
L 945.803739 309.073075 
L 954.923375 308.736533 
" clip-path="url(#p17ffc7eebe)" style="fill: none; stroke-dasharray: 1.5,2.475; stroke-dashoffset: 0; stroke: #4ac1fa; stroke-width: 1.5"/>
   </g>
   <g id="line2d_40">
    <path d="M 52.079375 271.14202 
L 61.199011 271.993558 
L 70.318648 272.845097 
L 79.438284 273.696635 
L 88.55792 274.548174 
L 97.677557 275.399712 
L 106.797193 276.251251 
L 115.91683 277.102789 
L 125.036466 277.954327 
L 134.156102 278.805866 
L 143.275739 279.657404 
L 152.395375 280.508943 
L 161.515011 281.360481 
L 170.634648 282.21202 
L 179.754284 283.063558 
L 188.87392 283.915096 
L 197.993557 284.766635 
L 207.113193 285.618173 
L 216.23283 286.469712 
L 225.352466 287.32125 
L 234.472102 288.172789 
L 243.591739 289.024327 
L 252.711375 289.875866 
L 261.831011 290.727404 
L 270.950648 291.578942 
L 280.070284 292.430481 
L 289.18992 293.282019 
L 298.309557 294.133558 
L 307.429193 294.985096 
L 316.54883 295.836635 
L 325.668466 296.688173 
L 334.788102 297.539711 
L 343.907739 298.39125 
L 353.027375 299.242788 
L 362.147011 300.094327 
L 371.266648 300.945865 
L 380.386284 301.797404 
L 389.50592 302.648942 
L 398.625557 303.500481 
L 407.745193 304.352019 
L 416.86483 305.203557 
L 425.984466 306.055096 
L 435.104102 306.906634 
L 444.223739 307.758173 
L 453.343375 308.609711 
L 462.463011 309.46125 
L 471.582648 310.312788 
L 480.702284 311.164326 
L 489.82192 312.015865 
L 498.941557 312.867403 
L 508.061193 313.718942 
L 517.18083 314.57048 
L 526.300466 315.422019 
L 535.420102 316.273557 
L 544.539739 317.125096 
L 553.659375 317.976634 
L 562.779011 318.828172 
L 571.898648 319.679711 
L 581.018284 320.531249 
L 590.13792 321.382788 
L 599.257557 322.234326 
L 608.377193 323.085865 
L 617.49683 323.937403 
L 626.616466 324.788941 
L 635.736102 325.64048 
L 644.855739 326.492018 
L 653.975375 327.343557 
L 663.095011 328.195095 
L 672.214648 329.046634 
L 681.334284 329.898172 
L 690.45392 330.749711 
L 699.573557 331.601249 
L 708.693193 332.452787 
L 717.81283 333.304326 
L 726.932466 334.155864 
L 736.052102 335.007403 
L 745.171739 335.858941 
L 754.291375 336.71048 
L 763.411011 337.562018 
L 772.530648 338.413557 
L 781.650284 339.265095 
L 790.76992 340.116633 
L 799.889557 340.968172 
L 809.009193 341.81971 
L 818.12883 342.671249 
L 827.248466 343.522787 
L 836.368102 344.374326 
L 845.487739 345.225864 
L 854.607375 346.077402 
L 863.727011 346.928941 
L 872.846648 347.780479 
L 881.966284 348.632018 
L 891.08592 349.483556 
L 900.205557 350.335095 
L 909.325193 351.186633 
L 918.44483 352.038172 
L 927.564466 352.88971 
L 936.684102 353.741248 
L 945.803739 354.592787 
L 954.923375 355.444325 
" clip-path="url(#p17ffc7eebe)" style="fill: none; stroke-dasharray: 1.5,2.475; stroke-dashoffset: 0; stroke: #e9a942; stroke-width: 1.5"/>
   </g>
   <g id="line2d_41">
    <path d="M 52.079375 340.897493 
L 61.199011 341.185681 
L 70.318648 341.473869 
L 79.438284 341.762057 
L 88.55792 342.050246 
L 97.677557 342.338434 
L 106.797193 342.626622 
L 115.91683 342.91481 
L 125.036466 343.202998 
L 134.156102 343.491187 
L 143.275739 343.779375 
L 152.395375 344.067563 
L 161.515011 344.355751 
L 170.634648 344.643939 
L 179.754284 344.932128 
L 188.87392 345.220316 
L 197.993557 345.508504 
L 207.113193 345.796692 
L 216.23283 346.08488 
L 225.352466 346.373069 
L 234.472102 346.661257 
L 243.591739 346.949445 
L 252.711375 347.237633 
L 261.831011 347.525821 
L 270.950648 347.81401 
L 280.070284 348.102198 
L 289.18992 348.390386 
L 298.309557 348.678574 
L 307.429193 348.966762 
L 316.54883 349.25495 
L 325.668466 349.543139 
L 334.788102 349.831327 
L 343.907739 350.119515 
L 353.027375 350.407703 
L 362.147011 350.695891 
L 371.266648 350.98408 
L 380.386284 351.272268 
L 389.50592 351.560456 
L 398.625557 351.848644 
L 407.745193 352.136832 
L 416.86483 352.425021 
L 425.984466 352.713209 
L 435.104102 353.001397 
L 444.223739 353.289585 
L 453.343375 353.577773 
L 462.463011 353.865962 
L 471.582648 354.15415 
L 480.702284 354.442338 
L 489.82192 354.730526 
L 498.941557 355.018714 
L 508.061193 355.306903 
L 517.18083 355.595091 
L 526.300466 355.883279 
L 535.420102 356.171467 
L 544.539739 356.459655 
L 553.659375 356.747843 
L 562.779011 357.036032 
L 571.898648 357.32422 
L 581.018284 357.612408 
L 590.13792 357.900596 
L 599.257557 358.188784 
L 608.377193 358.476973 
L 617.49683 358.765161 
L 626.616466 359.053349 
L 635.736102 359.341537 
L 644.855739 359.629725 
L 653.975375 359.917914 
L 663.095011 360.206102 
L 672.214648 360.49429 
L 681.334284 360.782478 
L 690.45392 361.070666 
L 699.573557 361.358855 
L 708.693193 361.647043 
L 717.81283 361.935231 
L 726.932466 362.223419 
L 736.052102 362.511607 
L 745.171739 362.799796 
L 754.291375 363.087984 
L 763.411011 363.376172 
L 772.530648 363.66436 
L 781.650284 363.952548 
L 790.76992 364.240736 
L 799.889557 364.528925 
L 809.009193 364.817113 
L 818.12883 365.105301 
L 827.248466 365.393489 
L 836.368102 365.681677 
L 845.487739 365.969866 
L 854.607375 366.258054 
L 863.727011 366.546242 
L 872.846648 366.83443 
L 881.966284 367.122618 
L 891.08592 367.410807 
L 900.205557 367.698995 
L 909.325193 367.987183 
L 918.44483 368.275371 
L 927.564466 368.563559 
L 936.684102 368.851748 
L 945.803739 369.139936 
L 954.923375 369.428124 
" clip-path="url(#p17ffc7eebe)" style="fill: none; stroke-dasharray: 1.5,2.475; stroke-dashoffset: 0; stroke: #9a5689; stroke-width: 1.5"/>
   </g>
   <g id="line2d_42">
    <path d="M 52.079375 508.989973 
L 61.199011 509.094693 
L 70.318648 509.199413 
L 79.438284 509.304133 
L 88.55792 509.408853 
L 97.677557 509.513573 
L 106.797193 509.618293 
L 115.91683 509.723013 
L 125.036466 509.827733 
L 134.156102 509.932453 
L 143.275739 510.037173 
L 152.395375 510.141893 
L 161.515011 510.246613 
L 170.634648 510.351333 
L 179.754284 510.456053 
L 188.87392 510.560773 
L 197.993557 510.665493 
L 207.113193 510.770213 
L 216.23283 510.874933 
L 225.352466 510.979654 
L 234.472102 511.084374 
L 243.591739 511.189094 
L 252.711375 511.293814 
L 261.831011 511.398534 
L 270.950648 511.503254 
L 280.070284 511.607974 
L 289.18992 511.712694 
L 298.309557 511.817414 
L 307.429193 511.922134 
L 316.54883 512.026854 
L 325.668466 512.131574 
L 334.788102 512.236294 
L 343.907739 512.341014 
L 353.027375 512.445734 
L 362.147011 512.550454 
L 371.266648 512.655174 
L 380.386284 512.759894 
L 389.50592 512.864614 
L 398.625557 512.969334 
L 407.745193 513.074054 
L 416.86483 513.178774 
L 425.984466 513.283494 
L 435.104102 513.388214 
L 444.223739 513.492934 
L 453.343375 513.597654 
L 462.463011 513.702374 
L 471.582648 513.807094 
L 480.702284 513.911814 
L 489.82192 514.016534 
L 498.941557 514.121254 
L 508.061193 514.225974 
L 517.18083 514.330694 
L 526.300466 514.435414 
L 535.420102 514.540134 
L 544.539739 514.644855 
L 553.659375 514.749575 
L 562.779011 514.854295 
L 571.898648 514.959015 
L 581.018284 515.063735 
L 590.13792 515.168455 
L 599.257557 515.273175 
L 608.377193 515.377895 
L 617.49683 515.482615 
L 626.616466 515.587335 
L 635.736102 515.692055 
L 644.855739 515.796775 
L 653.975375 515.901495 
L 663.095011 516.006215 
L 672.214648 516.110935 
L 681.334284 516.215655 
L 690.45392 516.320375 
L 699.573557 516.425095 
L 708.693193 516.529815 
L 717.81283 516.634535 
L 726.932466 516.739255 
L 736.052102 516.843975 
L 745.171739 516.948695 
L 754.291375 517.053415 
L 763.411011 517.158135 
L 772.530648 517.262855 
L 781.650284 517.367575 
L 790.76992 517.472295 
L 799.889557 517.577015 
L 809.009193 517.681735 
L 818.12883 517.786455 
L 827.248466 517.891175 
L 836.368102 517.995895 
L 845.487739 518.100615 
L 854.607375 518.205335 
L 863.727011 518.310056 
L 872.846648 518.414776 
L 881.966284 518.519496 
L 891.08592 518.624216 
L 900.205557 518.728936 
L 909.325193 518.833656 
L 918.44483 518.938376 
L 927.564466 519.043096 
L 936.684102 519.147816 
L 945.803739 519.252536 
L 954.923375 519.357256 
" clip-path="url(#p17ffc7eebe)" style="fill: none; stroke-dasharray: 1.5,2.475; stroke-dashoffset: 0; stroke: #be503b; stroke-width: 1.5"/>
   </g>
   <g id="line2d_43">
    <path d="M 52.079375 248.733391 
L 61.199011 249.489607 
L 70.318648 250.245823 
L 79.438284 251.00204 
L 88.55792 251.758256 
L 97.677557 252.514472 
L 106.797193 253.270689 
L 115.91683 254.026905 
L 125.036466 254.783121 
L 134.156102 255.539338 
L 143.275739 256.295554 
L 152.395375 257.05177 
L 161.515011 257.807986 
L 170.634648 258.564203 
L 179.754284 259.320419 
L 188.87392 260.076635 
L 197.993557 260.832852 
L 207.113193 261.589068 
L 216.23283 262.345284 
L 225.352466 263.101501 
L 234.472102 263.857717 
L 243.591739 264.613933 
L 252.711375 265.37015 
L 261.831011 266.126366 
L 270.950648 266.882582 
L 280.070284 267.638799 
L 289.18992 268.395015 
L 298.309557 269.151231 
L 307.429193 269.907448 
L 316.54883 270.663664 
L 325.668466 271.41988 
L 334.788102 272.176097 
L 343.907739 272.932313 
L 353.027375 273.688529 
L 362.147011 274.444745 
L 371.266648 275.200962 
L 380.386284 275.957178 
L 389.50592 276.713394 
L 398.625557 277.469611 
L 407.745193 278.225827 
L 416.86483 278.982043 
L 425.984466 279.73826 
L 435.104102 280.494476 
L 444.223739 281.250692 
L 453.343375 282.006909 
L 462.463011 282.763125 
L 471.582648 283.519341 
L 480.702284 284.275558 
L 489.82192 285.031774 
L 498.941557 285.78799 
L 508.061193 286.544207 
L 517.18083 287.300423 
L 526.300466 288.056639 
L 535.420102 288.812855 
L 544.539739 289.569072 
L 553.659375 290.325288 
L 562.779011 291.081504 
L 571.898648 291.837721 
L 581.018284 292.593937 
L 590.13792 293.350153 
L 599.257557 294.10637 
L 608.377193 294.862586 
L 617.49683 295.618802 
L 626.616466 296.375019 
L 635.736102 297.131235 
L 644.855739 297.887451 
L 653.975375 298.643668 
L 663.095011 299.399884 
L 672.214648 300.1561 
L 681.334284 300.912317 
L 690.45392 301.668533 
L 699.573557 302.424749 
L 708.693193 303.180965 
L 717.81283 303.937182 
L 726.932466 304.693398 
L 736.052102 305.449614 
L 745.171739 306.205831 
L 754.291375 306.962047 
L 763.411011 307.718263 
L 772.530648 308.47448 
L 781.650284 309.230696 
L 790.76992 309.986912 
L 799.889557 310.743129 
L 809.009193 311.499345 
L 818.12883 312.255561 
L 827.248466 313.011778 
L 836.368102 313.767994 
L 845.487739 314.52421 
L 854.607375 315.280427 
L 863.727011 316.036643 
L 872.846648 316.792859 
L 881.966284 317.549076 
L 891.08592 318.305292 
L 900.205557 319.061508 
L 909.325193 319.817724 
L 918.44483 320.573941 
L 927.564466 321.330157 
L 936.684102 322.086373 
L 945.803739 322.84259 
L 954.923375 323.598806 
" clip-path="url(#p17ffc7eebe)" style="fill: none; stroke-dasharray: 1.5,2.475; stroke-dashoffset: 0; stroke: #e2321d; stroke-width: 1.5"/>
   </g>
   <g id="line2d_44">
    <path d="M 52.079375 241.430125 
L 61.199011 239.828212 
L 70.318648 238.226298 
L 79.438284 236.624385 
L 88.55792 235.022471 
L 97.677557 233.420558 
L 106.797193 231.818645 
L 115.91683 230.216731 
L 125.036466 228.614818 
L 134.156102 227.012904 
L 143.275739 225.410991 
L 152.395375 223.809077 
L 161.515011 222.207164 
L 170.634648 220.605251 
L 179.754284 219.003337 
L 188.87392 217.401424 
L 197.993557 215.79951 
L 207.113193 214.197597 
L 216.23283 212.595684 
L 225.352466 210.99377 
L 234.472102 209.391857 
L 243.591739 207.789943 
L 252.711375 206.18803 
L 261.831011 204.586116 
L 270.950648 202.984203 
L 280.070284 201.38229 
L 289.18992 199.780376 
L 298.309557 198.178463 
L 307.429193 196.576549 
L 316.54883 194.974636 
L 325.668466 193.372723 
L 334.788102 191.770809 
L 343.907739 190.168896 
L 353.027375 188.566982 
L 362.147011 186.965069 
L 371.266648 185.363155 
L 380.386284 183.761242 
L 389.50592 182.159329 
L 398.625557 180.557415 
L 407.745193 178.955502 
L 416.86483 177.353588 
L 425.984466 175.751675 
L 435.104102 174.149762 
L 444.223739 172.547848 
L 453.343375 170.945935 
L 462.463011 169.344021 
L 471.582648 167.742108 
L 480.702284 166.140194 
L 489.82192 164.538281 
L 498.941557 162.936368 
L 508.061193 161.334454 
L 517.18083 159.732541 
L 526.300466 158.130627 
L 535.420102 156.528714 
L 544.539739 154.926801 
L 553.659375 153.324887 
L 562.779011 151.722974 
L 571.898648 150.12106 
L 581.018284 148.519147 
L 590.13792 146.917233 
L 599.257557 145.31532 
L 608.377193 143.713407 
L 617.49683 142.111493 
L 626.616466 140.50958 
L 635.736102 138.907666 
L 644.855739 137.305753 
L 653.975375 135.70384 
L 663.095011 134.101926 
L 672.214648 132.500013 
L 681.334284 130.898099 
L 690.45392 129.296186 
L 699.573557 127.694272 
L 708.693193 126.092359 
L 717.81283 124.490446 
L 726.932466 122.888532 
L 736.052102 121.286619 
L 745.171739 119.684705 
L 754.291375 118.082792 
L 763.411011 116.480879 
L 772.530648 114.878965 
L 781.650284 113.277052 
L 790.76992 111.675138 
L 799.889557 110.073225 
L 809.009193 108.471311 
L 818.12883 106.869398 
L 827.248466 105.267485 
L 836.368102 103.665571 
L 845.487739 102.063658 
L 854.607375 100.461744 
L 863.727011 98.859831 
L 872.846648 97.257918 
L 881.966284 95.656004 
L 891.08592 94.054091 
L 900.205557 92.452177 
L 909.325193 90.850264 
L 918.44483 89.24835 
L 927.564466 87.646437 
L 936.684102 86.044524 
L 945.803739 84.44261 
L 954.923375 82.840697 
" clip-path="url(#p17ffc7eebe)" style="fill: none; stroke-dasharray: 1.5,2.475; stroke-dashoffset: 0; stroke: #48b585; stroke-width: 1.5"/>
   </g>
   <g id="line2d_45">
    <path d="M 52.079375 366.215755 
L 70.136255 377.788985 
L 88.193135 364.28739 
L 106.250015 353.268608 
L 124.306895 340.131944 
L 142.363775 337.521114 
L 160.420655 322.519623 
L 178.477535 315.724114 
L 196.534415 328.318554 
L 214.591295 329.811929 
L 232.648175 331.048493 
L 250.705055 321.969525 
L 268.761935 323.699325 
L 286.818815 336.345485 
L 304.875695 335.30998 
L 322.932575 320.224259 
L 340.989455 335.113547 
L 359.046335 328.194992 
L 377.103215 328.552935 
L 395.160095 320.953976 
L 413.216975 315.134884 
L 431.273855 320.906192 
L 449.330735 321.624622 
L 503.501375 325.803884 
L 521.558255 329.972779 
L 539.615135 318.497441 
L 557.672015 318.636909 
L 575.728895 335.493897 
L 593.785775 341.016376 
L 611.842655 320.972505 
L 629.899535 302.817935 
L 647.956415 303.442834 
L 666.013295 315.079528 
L 684.070175 326.226144 
L 702.127055 323.084814 
L 720.183935 303.434385 
L 738.240815 295.19133 
L 756.297695 319.757639 
L 774.354575 311.911126 
L 792.411455 313.14656 
L 810.468335 313.140122 
L 828.525215 316.065849 
L 846.582095 329.42725 
L 864.638975 316.995333 
L 882.695855 321.608958 
L 900.752735 315.508508 
L 918.809615 319.247854 
L 936.866495 318.038651 
L 954.923375 313.189596 
" clip-path="url(#p17ffc7eebe)" style="fill: none; stroke: #4ac1fa; stroke-width: 1.5; stroke-linecap: square"/>
   </g>
   <g id="line2d_46">
    <path d="M 52.079375 194.51531 
L 70.136255 151.516326 
L 88.193135 191.245034 
L 106.250015 253.340192 
L 124.306895 275.499698 
L 142.363775 284.051044 
L 160.420655 322.19381 
L 178.477535 359.759303 
L 196.534415 317.584212 
L 214.591295 304.539609 
L 232.648175 313.040787 
L 250.705055 344.136425 
L 268.761935 297.777785 
L 286.818815 288.912457 
L 304.875695 314.292099 
L 322.932575 350.607633 
L 340.989455 350.440321 
L 359.046335 309.247264 
L 377.103215 278.511753 
L 395.160095 311.595476 
L 413.216975 357.427954 
L 431.273855 334.087626 
L 449.330735 320.110096 
L 503.501375 298.605669 
L 521.558255 266.285361 
L 539.615135 301.177032 
L 557.672015 333.329439 
L 575.728895 289.103624 
L 593.785775 273.786153 
L 611.842655 347.736314 
L 629.899535 371.41452 
L 647.956415 387.557681 
L 666.013295 364.675839 
L 684.070175 317.27659 
L 702.127055 304.976416 
L 720.183935 323.923396 
L 738.240815 376.064338 
L 756.297695 288.782564 
L 774.354575 304.719315 
L 792.411455 295.585103 
L 810.468335 326.750851 
L 828.525215 306.06061 
L 846.582095 275.583583 
L 864.638975 304.073193 
L 882.695855 327.822554 
L 900.752735 398.177699 
L 918.809615 381.358864 
L 936.866495 370.456846 
L 954.923375 396.707826 
" clip-path="url(#p17ffc7eebe)" style="fill: none; stroke: #e9a942; stroke-width: 1.5; stroke-linecap: square"/>
   </g>
   <g id="line2d_47">
    <path d="M 52.079375 362.028312 
L 70.136255 368.73121 
L 88.193135 345.47627 
L 106.250015 317.378642 
L 124.306895 346.354585 
L 142.363775 345.847858 
L 160.420655 335.451704 
L 178.477535 333.332235 
L 196.534415 347.41144 
L 214.591295 347.082111 
L 232.648175 352.962173 
L 250.705055 347.750439 
L 268.761935 353.833095 
L 286.818815 354.868431 
L 304.875695 346.862468 
L 322.932575 338.373726 
L 340.989455 326.672657 
L 359.046335 349.773942 
L 377.103215 362.125658 
L 395.160095 352.583641 
L 413.216975 344.988268 
L 431.273855 354.320012 
L 449.330735 353.048829 
L 503.501375 350.972238 
L 521.558255 347.548493 
L 539.615135 341.802125 
L 557.672015 354.604745 
L 575.728895 362.050501 
L 593.785775 356.316094 
L 611.842655 354.444581 
L 629.899535 360.61042 
L 647.956415 359.009276 
L 666.013295 355.646206 
L 684.070175 362.797723 
L 702.127055 361.166264 
L 720.183935 359.875053 
L 738.240815 353.465446 
L 756.297695 376.152792 
L 774.354575 368.179369 
L 792.411455 374.152296 
L 810.468335 373.820083 
L 828.525215 359.126816 
L 846.582095 368.184245 
L 864.638975 382.581887 
L 882.695855 385.747944 
L 900.752735 335.62854 
L 918.809615 363.782278 
L 936.866495 370.122095 
L 954.923375 379.644237 
" clip-path="url(#p17ffc7eebe)" style="fill: none; stroke: #9a5689; stroke-width: 1.5; stroke-linecap: square"/>
   </g>
   <g id="line2d_48">
    <path d="M 52.079375 514.765569 
L 70.136255 515.692002 
L 88.193135 513.150433 
L 106.250015 514.26953 
L 124.306895 511.716698 
L 142.363775 511.727703 
L 160.420655 507.481136 
L 178.477535 507.089151 
L 196.534415 509.875231 
L 214.591295 509.344983 
L 232.648175 511.130454 
L 250.705055 509.105558 
L 268.761935 509.106221 
L 286.818815 511.103869 
L 304.875695 509.828343 
L 322.932575 508.259305 
L 340.989455 508.499312 
L 359.046335 510.979444 
L 377.103215 509.959557 
L 395.160095 510.737993 
L 413.216975 508.574287 
L 431.273855 511.11242 
L 449.330735 512.224349 
L 503.501375 514.904848 
L 521.558255 516.376435 
L 539.615135 515.283915 
L 557.672015 515.067342 
L 575.728895 518.206674 
L 593.785775 520.35228 
L 611.842655 515.787969 
L 629.899535 513.188159 
L 647.956415 513.380182 
L 666.013295 515.103596 
L 684.070175 517.150369 
L 702.127055 516.008133 
L 720.183935 514.228623 
L 738.240815 512.415591 
L 756.297695 518.139834 
L 774.354575 516.784969 
L 792.411455 517.512676 
L 810.468335 518.825332 
L 828.525215 520.651155 
L 846.582095 522.618544 
L 864.638975 520.174792 
L 882.695855 520.501528 
L 900.752735 519.156541 
L 918.809615 518.346451 
L 936.866495 520.337547 
L 954.923375 518.892111 
" clip-path="url(#p17ffc7eebe)" style="fill: none; stroke: #be503b; stroke-width: 1.5; stroke-linecap: square"/>
   </g>
   <g id="line2d_49">
    <path d="M 52.079375 262.293032 
L 70.136255 284.076654 
L 88.193135 297.230692 
L 106.250015 266.318941 
L 124.306895 250.50871 
L 142.363775 244.965533 
L 160.420655 267.0641 
L 178.477535 259.487305 
L 196.534415 240.890183 
L 214.591295 240.135823 
L 232.648175 234.650697 
L 250.705055 226.560075 
L 268.761935 267.19975 
L 286.818815 250.766639 
L 304.875695 254.354236 
L 322.932575 258.541328 
L 340.989455 233.344773 
L 359.046335 271.565942 
L 377.103215 285.11885 
L 395.160095 273.976914 
L 413.216975 273.950686 
L 431.273855 282.357009 
L 449.330735 284.788341 
L 503.501375 296.640444 
L 521.558255 309.098966 
L 539.615135 302.039843 
L 557.672015 290.979622 
L 575.728895 312.675073 
L 593.785775 322.300549 
L 611.842655 303.894458 
L 629.899535 302.889439 
L 647.956415 291.517862 
L 666.013295 296.622215 
L 684.070175 305.259796 
L 702.127055 299.254472 
L 720.183935 298.823006 
L 738.240815 292.403698 
L 756.297695 316.908358 
L 774.354575 311.696865 
L 792.411455 315.1913 
L 810.468335 319.148497 
L 828.525215 322.774449 
L 846.582095 330.616608 
L 864.638975 320.613238 
L 882.695855 323.432386 
L 900.752735 313.351513 
L 918.809615 306.798921 
L 936.866495 308.24146 
L 954.923375 303.311492 
" clip-path="url(#p17ffc7eebe)" style="fill: none; stroke: #e2321d; stroke-width: 1.5; stroke-linecap: square"/>
   </g>
   <g id="line2d_50">
    <path d="M 52.079375 252.006997 
L 70.136255 253.258606 
L 88.193135 240.271983 
L 106.250015 247.399375 
L 124.306895 228.992428 
L 142.363775 228.666644 
L 160.420655 199.176134 
L 178.477535 179.824432 
L 196.534415 210.101382 
L 214.591295 223.500678 
L 232.648175 212.115723 
L 250.705055 207.071776 
L 268.761935 203.904411 
L 286.818815 211.616713 
L 304.875695 194.340085 
L 322.932575 179.932157 
L 340.989455 201.250615 
L 359.046335 185.046022 
L 377.103215 190.858798 
L 395.160095 187.140161 
L 413.216975 157.409043 
L 431.273855 154.116289 
L 449.330735 165.579811 
L 503.501375 170.639835 
L 521.558255 187.547544 
L 539.615135 178.438941 
L 557.672015 145.13358 
L 575.728895 139.269999 
L 593.785775 142.271 
L 611.842655 115.469987 
L 629.899535 107.018132 
L 647.956415 104.782205 
L 666.013295 111.888816 
L 684.070175 129.771022 
L 702.127055 153.367298 
L 720.183935 158.896502 
L 738.240815 130.174806 
L 756.297695 136.626218 
L 774.354575 143.868608 
L 792.411455 141.222399 
L 810.468335 105.123062 
L 828.525215 132.677518 
L 846.582095 129.426857 
L 864.638975 113.33163 
L 882.695855 78.13245 
L 900.752735 76.668818 
L 918.809615 69.813075 
L 936.866495 72.100464 
L 954.923375 47.87874 
" clip-path="url(#p17ffc7eebe)" style="fill: none; stroke: #48b585; stroke-width: 6; stroke-linecap: square"/>
   </g>
   <g id="patch_3">
    <path d="M 52.079375 567.74175 
L 52.079375 24.14175 
" style="fill: none; stroke: #ffffff; stroke-linejoin: miter; stroke-linecap: square"/>
   </g>
   <g id="patch_4">
    <path d="M 954.923375 567.74175 
L 954.923375 24.14175 
" style="fill: none; stroke: #ffffff; stroke-linejoin: miter; stroke-linecap: square"/>
   </g>
   <g id="patch_5">
    <path d="M 52.079375 567.74175 
L 954.923375 567.74175 
" style="fill: none; stroke: #ffffff; stroke-linejoin: miter; stroke-linecap: square"/>
   </g>
   <g id="patch_6">
    <path d="M 52.079375 24.14175 
L 954.923375 24.14175 
" style="fill: none; stroke: #ffffff; stroke-linejoin: miter; stroke-linecap: square"/>
   </g>
   <g id="text_22">
    <!-- Enterprise Linux 8 and 9 Instances by Distribution Share (System Age &gt; 1 Week) -->
    <g transform="translate(52.079375 18.14175)scale(0.144 -0.144)">
     <defs>
      <path id="DejaVuSans-45" d="M 628 4666 
L 3578 4666 
L 3578 4134 
L 1259 4134 
L 1259 2753 
L 3481 2753 
L 3481 2222 
L 1259 2222 
L 1259 531 
L 3634 531 
L 3634 0 
L 628 0 
L 628 4666 
z
" transform="scale(0.015625)"/>
      <path id="DejaVuSans-6e" d="M 3513 2113 
L 3513 0 
L 2938 0 
L 2938 2094 
Q 2938 2591 2744 2837 
Q 2550 3084 2163 3084 
Q 1697 3084 1428 2787 
Q 1159 2491 1159 1978 
L 1159 0 
L 581 0 
L 581 3500 
L 1159 3500 
L 1159 2956 
Q 1366 3272 1645 3428 
Q 1925 3584 2291 3584 
Q 2894 3584 3203 3211 
Q 3513 2838 3513 2113 
z
" transform="scale(0.015625)"/>
      <path id="DejaVuSans-70" d="M 1159 525 
L 1159 -1331 
L 581 -1331 
L 581 3500 
L 1159 3500 
L 1159 2969 
Q 1341 3281 1617 3432 
Q 1894 3584 2278 3584 
Q 2916 3584 3314 3078 
Q 3713 2572 3713 1747 
Q 3713 922 3314 415 
Q 2916 -91 2278 -91 
Q 1894 -91 1617 61 
Q 1341 213 1159 525 
z
M 3116 1747 
Q 3116 2381 2855 2742 
Q 2594 3103 2138 3103 
Q 1681 3103 1420 2742 
Q 1159 2381 1159 1747 
Q 1159 1113 1420 752 
Q 1681 391 2138 391 
Q 2594 391 2855 752 
Q 3116 1113 3116 1747 
z
" transform="scale(0.015625)"/>
      <path id="DejaVuSans-69" d="M 603 3500 
L 1178 3500 
L 1178 0 
L 603 0 
L 603 3500 
z
M 603 4863 
L 1178 4863 
L 1178 4134 
L 603 4134 
L 603 4863 
z
" transform="scale(0.015625)"/>
      <path id="DejaVuSans-73" d="M 2834 3397 
L 2834 2853 
Q 2591 2978 2328 3040 
Q 2066 3103 1784 3103 
Q 1356 3103 1142 2972 
Q 928 2841 928 2578 
Q 928 2378 1081 2264 
Q 1234 2150 1697 2047 
L 1894 2003 
Q 2506 1872 2764 1633 
Q 3022 1394 3022 966 
Q 3022 478 2636 193 
Q 2250 -91 1575 -91 
Q 1294 -91 989 -36 
Q 684 19 347 128 
L 347 722 
Q 666 556 975 473 
Q 1284 391 1588 391 
Q 1994 391 2212 530 
Q 2431 669 2431 922 
Q 2431 1156 2273 1281 
Q 2116 1406 1581 1522 
L 1381 1569 
Q 847 1681 609 1914 
Q 372 2147 372 2553 
Q 372 3047 722 3315 
Q 1072 3584 1716 3584 
Q 2034 3584 2315 3537 
Q 2597 3491 2834 3397 
z
" transform="scale(0.015625)"/>
      <path id="DejaVuSans-20" transform="scale(0.015625)"/>
      <path id="DejaVuSans-4c" d="M 628 4666 
L 1259 4666 
L 1259 531 
L 3531 531 
L 3531 0 
L 628 0 
L 628 4666 
z
" transform="scale(0.015625)"/>
      <path id="DejaVuSans-75" d="M 544 1381 
L 544 3500 
L 1119 3500 
L 1119 1403 
Q 1119 906 1312 657 
Q 1506 409 1894 409 
Q 2359 409 2629 706 
Q 2900 1003 2900 1516 
L 2900 3500 
L 3475 3500 
L 3475 0 
L 2900 0 
L 2900 538 
Q 2691 219 2414 64 
Q 2138 -91 1772 -91 
Q 1169 -91 856 284 
Q 544 659 544 1381 
z
M 1991 3584 
L 1991 3584 
z
" transform="scale(0.015625)"/>
      <path id="DejaVuSans-78" d="M 3513 3500 
L 2247 1797 
L 3578 0 
L 2900 0 
L 1881 1375 
L 863 0 
L 184 0 
L 1544 1831 
L 300 3500 
L 978 3500 
L 1906 2253 
L 2834 3500 
L 3513 3500 
z
" transform="scale(0.015625)"/>
      <path id="DejaVuSans-64" d="M 2906 2969 
L 2906 4863 
L 3481 4863 
L 3481 0 
L 2906 0 
L 2906 525 
Q 2725 213 2448 61 
Q 2172 -91 1784 -91 
Q 1150 -91 751 415 
Q 353 922 353 1747 
Q 353 2572 751 3078 
Q 1150 3584 1784 3584 
Q 2172 3584 2448 3432 
Q 2725 3281 2906 2969 
z
M 947 1747 
Q 947 1113 1208 752 
Q 1469 391 1925 391 
Q 2381 391 2643 752 
Q 2906 1113 2906 1747 
Q 2906 2381 2643 2742 
Q 2381 3103 1925 3103 
Q 1469 3103 1208 2742 
Q 947 2381 947 1747 
z
" transform="scale(0.015625)"/>
      <path id="DejaVuSans-49" d="M 628 4666 
L 1259 4666 
L 1259 0 
L 628 0 
L 628 4666 
z
" transform="scale(0.015625)"/>
      <path id="DejaVuSans-63" d="M 3122 3366 
L 3122 2828 
Q 2878 2963 2633 3030 
Q 2388 3097 2138 3097 
Q 1578 3097 1268 2742 
Q 959 2388 959 1747 
Q 959 1106 1268 751 
Q 1578 397 2138 397 
Q 2388 397 2633 464 
Q 2878 531 3122 666 
L 3122 134 
Q 2881 22 2623 -34 
Q 2366 -91 2075 -91 
Q 1284 -91 818 406 
Q 353 903 353 1747 
Q 353 2603 823 3093 
Q 1294 3584 2113 3584 
Q 2378 3584 2631 3529 
Q 2884 3475 3122 3366 
z
" transform="scale(0.015625)"/>
      <path id="DejaVuSans-62" d="M 3116 1747 
Q 3116 2381 2855 2742 
Q 2594 3103 2138 3103 
Q 1681 3103 1420 2742 
Q 1159 2381 1159 1747 
Q 1159 1113 1420 752 
Q 1681 391 2138 391 
Q 2594 391 2855 752 
Q 3116 1113 3116 1747 
z
M 1159 2969 
Q 1341 3281 1617 3432 
Q 1894 3584 2278 3584 
Q 2916 3584 3314 3078 
Q 3713 2572 3713 1747 
Q 3713 922 3314 415 
Q 2916 -91 2278 -91 
Q 1894 -91 1617 61 
Q 1341 213 1159 525 
L 1159 0 
L 581 0 
L 581 4863 
L 1159 4863 
L 1159 2969 
z
" transform="scale(0.015625)"/>
      <path id="DejaVuSans-79" d="M 2059 -325 
Q 1816 -950 1584 -1140 
Q 1353 -1331 966 -1331 
L 506 -1331 
L 506 -850 
L 844 -850 
Q 1081 -850 1212 -737 
Q 1344 -625 1503 -206 
L 1606 56 
L 191 3500 
L 800 3500 
L 1894 763 
L 2988 3500 
L 3597 3500 
L 2059 -325 
z
" transform="scale(0.015625)"/>
      <path id="DejaVuSans-6f" d="M 1959 3097 
Q 1497 3097 1228 2736 
Q 959 2375 959 1747 
Q 959 1119 1226 758 
Q 1494 397 1959 397 
Q 2419 397 2687 759 
Q 2956 1122 2956 1747 
Q 2956 2369 2687 2733 
Q 2419 3097 1959 3097 
z
M 1959 3584 
Q 2709 3584 3137 3096 
Q 3566 2609 3566 1747 
Q 3566 888 3137 398 
Q 2709 -91 1959 -91 
Q 1206 -91 779 398 
Q 353 888 353 1747 
Q 353 2609 779 3096 
Q 1206 3584 1959 3584 
z
" transform="scale(0.015625)"/>
      <path id="DejaVuSans-28" d="M 1984 4856 
Q 1566 4138 1362 3434 
Q 1159 2731 1159 2009 
Q 1159 1288 1364 580 
Q 1569 -128 1984 -844 
L 1484 -844 
Q 1016 -109 783 600 
Q 550 1309 550 2009 
Q 550 2706 781 3412 
Q 1013 4119 1484 4856 
L 1984 4856 
z
" transform="scale(0.015625)"/>
      <path id="DejaVuSans-6d" d="M 3328 2828 
Q 3544 3216 3844 3400 
Q 4144 3584 4550 3584 
Q 5097 3584 5394 3201 
Q 5691 2819 5691 2113 
L 5691 0 
L 5113 0 
L 5113 2094 
Q 5113 2597 4934 2840 
Q 4756 3084 4391 3084 
Q 3944 3084 3684 2787 
Q 3425 2491 3425 1978 
L 3425 0 
L 2847 0 
L 2847 2094 
Q 2847 2600 2669 2842 
Q 2491 3084 2119 3084 
Q 1678 3084 1418 2786 
Q 1159 2488 1159 1978 
L 1159 0 
L 581 0 
L 581 3500 
L 1159 3500 
L 1159 2956 
Q 1356 3278 1631 3431 
Q 1906 3584 2284 3584 
Q 2666 3584 2933 3390 
Q 3200 3197 3328 2828 
z
" transform="scale(0.015625)"/>
      <path id="DejaVuSans-41" d="M 2188 4044 
L 1331 1722 
L 3047 1722 
L 2188 4044 
z
M 1831 4666 
L 2547 4666 
L 4325 0 
L 3669 0 
L 3244 1197 
L 1141 1197 
L 716 0 
L 50 0 
L 1831 4666 
z
" transform="scale(0.015625)"/>
      <path id="DejaVuSans-67" d="M 2906 1791 
Q 2906 2416 2648 2759 
Q 2391 3103 1925 3103 
Q 1463 3103 1205 2759 
Q 947 2416 947 1791 
Q 947 1169 1205 825 
Q 1463 481 1925 481 
Q 2391 481 2648 825 
Q 2906 1169 2906 1791 
z
M 3481 434 
Q 3481 -459 3084 -895 
Q 2688 -1331 1869 -1331 
Q 1566 -1331 1297 -1286 
Q 1028 -1241 775 -1147 
L 775 -588 
Q 1028 -725 1275 -790 
Q 1522 -856 1778 -856 
Q 2344 -856 2625 -561 
Q 2906 -266 2906 331 
L 2906 616 
Q 2728 306 2450 153 
Q 2172 0 1784 0 
Q 1141 0 747 490 
Q 353 981 353 1791 
Q 353 2603 747 3093 
Q 1141 3584 1784 3584 
Q 2172 3584 2450 3431 
Q 2728 3278 2906 2969 
L 2906 3500 
L 3481 3500 
L 3481 434 
z
" transform="scale(0.015625)"/>
      <path id="DejaVuSans-3e" d="M 678 3150 
L 678 3719 
L 4684 2266 
L 4684 1747 
L 678 294 
L 678 863 
L 3897 2003 
L 678 3150 
z
" transform="scale(0.015625)"/>
      <path id="DejaVuSans-57" d="M 213 4666 
L 850 4666 
L 1831 722 
L 2809 4666 
L 3519 4666 
L 4500 722 
L 5478 4666 
L 6119 4666 
L 4947 0 
L 4153 0 
L 3169 4050 
L 2175 0 
L 1381 0 
L 213 4666 
z
" transform="scale(0.015625)"/>
      <path id="DejaVuSans-6b" d="M 581 4863 
L 1159 4863 
L 1159 1991 
L 2875 3500 
L 3609 3500 
L 1753 1863 
L 3688 0 
L 2938 0 
L 1159 1709 
L 1159 0 
L 581 0 
L 581 4863 
z
" transform="scale(0.015625)"/>
      <path id="DejaVuSans-29" d="M 513 4856 
L 1013 4856 
Q 1481 4119 1714 3412 
Q 1947 2706 1947 2009 
Q 1947 1309 1714 600 
Q 1481 -109 1013 -844 
L 513 -844 
Q 928 -128 1133 580 
Q 1338 1288 1338 2009 
Q 1338 2731 1133 3434 
Q 928 4138 513 4856 
z
" transform="scale(0.015625)"/>
     </defs>
     <use xlink:href="#DejaVuSans-45"/>
     <use xlink:href="#DejaVuSans-6e" x="63.183594"/>
     <use xlink:href="#DejaVuSans-74" x="126.5625"/>
     <use xlink:href="#DejaVuSans-65" x="165.771484"/>
     <use xlink:href="#DejaVuSans-72" x="227.294922"/>
     <use xlink:href="#DejaVuSans-70" x="268.408203"/>
     <use xlink:href="#DejaVuSans-72" x="331.884766"/>
     <use xlink:href="#DejaVuSans-69" x="372.998047"/>
     <use xlink:href="#DejaVuSans-73" x="400.78125"/>
     <use xlink:href="#DejaVuSans-65" x="452.880859"/>
     <use xlink:href="#DejaVuSans-20" x="514.404297"/>
     <use xlink:href="#DejaVuSans-4c" x="546.191406"/>
     <use xlink:href="#DejaVuSans-69" x="601.904297"/>
     <use xlink:href="#DejaVuSans-6e" x="629.6875"/>
     <use xlink:href="#DejaVuSans-75" x="693.066406"/>
     <use xlink:href="#DejaVuSans-78" x="756.445312"/>
     <use xlink:href="#DejaVuSans-20" x="815.625"/>
     <use xlink:href="#DejaVuSans-38" x="847.412109"/>
     <use xlink:href="#DejaVuSans-20" x="911.035156"/>
     <use xlink:href="#DejaVuSans-61" x="942.822266"/>
     <use xlink:href="#DejaVuSans-6e" x="1004.101562"/>
     <use xlink:href="#DejaVuSans-64" x="1067.480469"/>
     <use xlink:href="#DejaVuSans-20" x="1130.957031"/>
     <use xlink:href="#DejaVuSans-39" x="1162.744141"/>
     <use xlink:href="#DejaVuSans-20" x="1226.367188"/>
     <use xlink:href="#DejaVuSans-49" x="1258.154297"/>
     <use xlink:href="#DejaVuSans-6e" x="1287.646484"/>
     <use xlink:href="#DejaVuSans-73" x="1351.025391"/>
     <use xlink:href="#DejaVuSans-74" x="1403.125"/>
     <use xlink:href="#DejaVuSans-61" x="1442.333984"/>
     <use xlink:href="#DejaVuSans-6e" x="1503.613281"/>
     <use xlink:href="#DejaVuSans-63" x="1566.992188"/>
     <use xlink:href="#DejaVuSans-65" x="1621.972656"/>
     <use xlink:href="#DejaVuSans-73" x="1683.496094"/>
     <use xlink:href="#DejaVuSans-20" x="1735.595703"/>
     <use xlink:href="#DejaVuSans-62" x="1767.382812"/>
     <use xlink:href="#DejaVuSans-79" x="1830.859375"/>
     <use xlink:href="#DejaVuSans-20" x="1890.039062"/>
     <use xlink:href="#DejaVuSans-44" x="1921.826172"/>
     <use xlink:href="#DejaVuSans-69" x="1998.828125"/>
     <use xlink:href="#DejaVuSans-73" x="2026.611328"/>
     <use xlink:href="#DejaVuSans-74" x="2078.710938"/>
     <use xlink:href="#DejaVuSans-72" x="2117.919922"/>
     <use xlink:href="#DejaVuSans-69" x="2159.033203"/>
     <use xlink:href="#DejaVuSans-62" x="2186.816406"/>
     <use xlink:href="#DejaVuSans-75" x="2250.292969"/>
     <use xlink:href="#DejaVuSans-74" x="2313.671875"/>
     <use xlink:href="#DejaVuSans-69" x="2352.880859"/>
     <use xlink:href="#DejaVuSans-6f" x="2380.664062"/>
     <use xlink:href="#DejaVuSans-6e" x="2441.845703"/>
     <use xlink:href="#DejaVuSans-20" x="2505.224609"/>
     <use xlink:href="#DejaVuSans-53" x="2537.011719"/>
     <use xlink:href="#DejaVuSans-68" x="2600.488281"/>
     <use xlink:href="#DejaVuSans-61" x="2663.867188"/>
     <use xlink:href="#DejaVuSans-72" x="2725.146484"/>
     <use xlink:href="#DejaVuSans-65" x="2764.009766"/>
     <use xlink:href="#DejaVuSans-20" x="2825.533203"/>
     <use xlink:href="#DejaVuSans-28" x="2857.320312"/>
     <use xlink:href="#DejaVuSans-53" x="2896.333984"/>
     <use xlink:href="#DejaVuSans-79" x="2959.810547"/>
     <use xlink:href="#DejaVuSans-73" x="3018.990234"/>
     <use xlink:href="#DejaVuSans-74" x="3071.089844"/>
     <use xlink:href="#DejaVuSans-65" x="3110.298828"/>
     <use xlink:href="#DejaVuSans-6d" x="3171.822266"/>
     <use xlink:href="#DejaVuSans-20" x="3269.234375"/>
     <use xlink:href="#DejaVuSans-41" x="3301.021484"/>
     <use xlink:href="#DejaVuSans-67" x="3369.429688"/>
     <use xlink:href="#DejaVuSans-65" x="3432.90625"/>
     <use xlink:href="#DejaVuSans-20" x="3494.429688"/>
     <use xlink:href="#DejaVuSans-3e" x="3526.216797"/>
     <use xlink:href="#DejaVuSans-20" x="3610.005859"/>
     <use xlink:href="#DejaVuSans-31" x="3641.792969"/>
     <use xlink:href="#DejaVuSans-20" x="3705.416016"/>
     <use xlink:href="#DejaVuSans-57" x="3737.203125"/>
     <use xlink:href="#DejaVuSans-65" x="3830.205078"/>
     <use xlink:href="#DejaVuSans-65" x="3891.728516"/>
     <use xlink:href="#DejaVuSans-6b" x="3953.251953"/>
     <use xlink:href="#DejaVuSans-29" x="4011.162109"/>
    </g>
   </g>
   <g id="text_23">
    <!-- 2024-05-16 11:54 UTC -->
    <g transform="translate(792.041375 18.14175)scale(0.144 -0.144)">
     <defs>
      <path id="DejaVuSans-3a" d="M 750 794 
L 1409 794 
L 1409 0 
L 750 0 
L 750 794 
z
M 750 3309 
L 1409 3309 
L 1409 2516 
L 750 2516 
L 750 3309 
z
" transform="scale(0.015625)"/>
      <path id="DejaVuSans-55" d="M 556 4666 
L 1191 4666 
L 1191 1831 
Q 1191 1081 1462 751 
Q 1734 422 2344 422 
Q 2950 422 3222 751 
Q 3494 1081 3494 1831 
L 3494 4666 
L 4128 4666 
L 4128 1753 
Q 4128 841 3676 375 
Q 3225 -91 2344 -91 
Q 1459 -91 1007 375 
Q 556 841 556 1753 
L 556 4666 
z
" transform="scale(0.015625)"/>
      <path id="DejaVuSans-54" d="M -19 4666 
L 3928 4666 
L 3928 4134 
L 2272 4134 
L 2272 0 
L 1638 0 
L 1638 4134 
L -19 4134 
L -19 4666 
z
" transform="scale(0.015625)"/>
      <path id="DejaVuSans-43" d="M 4122 4306 
L 4122 3641 
Q 3803 3938 3442 4084 
Q 3081 4231 2675 4231 
Q 1875 4231 1450 3742 
Q 1025 3253 1025 2328 
Q 1025 1406 1450 917 
Q 1875 428 2675 428 
Q 3081 428 3442 575 
Q 3803 722 4122 1019 
L 4122 359 
Q 3791 134 3420 21 
Q 3050 -91 2638 -91 
Q 1578 -91 968 557 
Q 359 1206 359 2328 
Q 359 3453 968 4101 
Q 1578 4750 2638 4750 
Q 3056 4750 3426 4639 
Q 3797 4528 4122 4306 
z
" transform="scale(0.015625)"/>
     </defs>
     <use xlink:href="#DejaVuSans-32"/>
     <use xlink:href="#DejaVuSans-30" x="63.623047"/>
     <use xlink:href="#DejaVuSans-32" x="127.246094"/>
     <use xlink:href="#DejaVuSans-34" x="190.869141"/>
     <use xlink:href="#DejaVuSans-2d" x="254.492188"/>
     <use xlink:href="#DejaVuSans-30" x="290.576172"/>
     <use xlink:href="#DejaVuSans-35" x="354.199219"/>
     <use xlink:href="#DejaVuSans-2d" x="417.822266"/>
     <use xlink:href="#DejaVuSans-31" x="453.90625"/>
     <use xlink:href="#DejaVuSans-36" x="517.529297"/>
     <use xlink:href="#DejaVuSans-20" x="581.152344"/>
     <use xlink:href="#DejaVuSans-31" x="612.939453"/>
     <use xlink:href="#DejaVuSans-31" x="676.5625"/>
     <use xlink:href="#DejaVuSans-3a" x="740.185547"/>
     <use xlink:href="#DejaVuSans-35" x="773.876953"/>
     <use xlink:href="#DejaVuSans-34" x="837.5"/>
     <use xlink:href="#DejaVuSans-20" x="901.123047"/>
     <use xlink:href="#DejaVuSans-55" x="932.910156"/>
     <use xlink:href="#DejaVuSans-54" x="1006.103516"/>
     <use xlink:href="#DejaVuSans-43" x="1061.3125"/>
    </g>
   </g>
   <g id="legend_1">
    <g id="patch_7">
     <path d="M 59.079375 134.888625 
L 168.048125 134.888625 
Q 170.048125 134.888625 170.048125 132.888625 
L 170.048125 31.14175 
Q 170.048125 29.14175 168.048125 29.14175 
L 59.079375 29.14175 
Q 57.079375 29.14175 57.079375 31.14175 
L 57.079375 132.888625 
Q 57.079375 134.888625 59.079375 134.888625 
z
" style="fill: #e5e5e5; opacity: 0.8; stroke: #cccccc; stroke-width: 0.5; stroke-linejoin: miter"/>
    </g>
    <g id="text_24">
     <!-- Distribution -->
     <g transform="translate(84.395 40.740187)scale(0.1 -0.1)">
      <use xlink:href="#DejaVuSans-44"/>
      <use xlink:href="#DejaVuSans-69" x="77.001953"/>
      <use xlink:href="#DejaVuSans-73" x="104.785156"/>
      <use xlink:href="#DejaVuSans-74" x="156.884766"/>
      <use xlink:href="#DejaVuSans-72" x="196.09375"/>
      <use xlink:href="#DejaVuSans-69" x="237.207031"/>
      <use xlink:href="#DejaVuSans-62" x="264.990234"/>
      <use xlink:href="#DejaVuSans-75" x="328.466797"/>
      <use xlink:href="#DejaVuSans-74" x="391.845703"/>
      <use xlink:href="#DejaVuSans-69" x="431.054688"/>
      <use xlink:href="#DejaVuSans-6f" x="458.837891"/>
      <use xlink:href="#DejaVuSans-6e" x="520.019531"/>
     </g>
    </g>
    <g id="line2d_51">
     <path d="M 61.079375 51.918312 
L 71.079375 51.918312 
L 81.079375 51.918312 
" style="fill: none; stroke: #4ac1fa; stroke-width: 1.5; stroke-linecap: square"/>
    </g>
    <g id="text_25">
     <!-- AlmaLinux -->
     <g transform="translate(89.079375 55.418312)scale(0.1 -0.1)">
      <defs>
       <path id="DejaVuSans-6c" d="M 603 4863 
L 1178 4863 
L 1178 0 
L 603 0 
L 603 4863 
z
" transform="scale(0.015625)"/>
      </defs>
      <use xlink:href="#DejaVuSans-41"/>
      <use xlink:href="#DejaVuSans-6c" x="68.408203"/>
      <use xlink:href="#DejaVuSans-6d" x="96.191406"/>
      <use xlink:href="#DejaVuSans-61" x="193.603516"/>
      <use xlink:href="#DejaVuSans-4c" x="254.882812"/>
      <use xlink:href="#DejaVuSans-69" x="310.595703"/>
      <use xlink:href="#DejaVuSans-6e" x="338.378906"/>
      <use xlink:href="#DejaVuSans-75" x="401.757812"/>
      <use xlink:href="#DejaVuSans-78" x="465.136719"/>
     </g>
    </g>
    <g id="line2d_52">
     <path d="M 61.079375 66.596437 
L 71.079375 66.596437 
L 81.079375 66.596437 
" style="fill: none; stroke: #e9a942; stroke-width: 1.5; stroke-linecap: square"/>
    </g>
    <g id="text_26">
     <!-- CentOS Legacy -->
     <g transform="translate(89.079375 70.096437)scale(0.1 -0.1)">
      <defs>
       <path id="DejaVuSans-4f" d="M 2522 4238 
Q 1834 4238 1429 3725 
Q 1025 3213 1025 2328 
Q 1025 1447 1429 934 
Q 1834 422 2522 422 
Q 3209 422 3611 934 
Q 4013 1447 4013 2328 
Q 4013 3213 3611 3725 
Q 3209 4238 2522 4238 
z
M 2522 4750 
Q 3503 4750 4090 4092 
Q 4678 3434 4678 2328 
Q 4678 1225 4090 567 
Q 3503 -91 2522 -91 
Q 1538 -91 948 565 
Q 359 1222 359 2328 
Q 359 3434 948 4092 
Q 1538 4750 2522 4750 
z
" transform="scale(0.015625)"/>
      </defs>
      <use xlink:href="#DejaVuSans-43"/>
      <use xlink:href="#DejaVuSans-65" x="69.824219"/>
      <use xlink:href="#DejaVuSans-6e" x="131.347656"/>
      <use xlink:href="#DejaVuSans-74" x="194.726562"/>
      <use xlink:href="#DejaVuSans-4f" x="233.935547"/>
      <use xlink:href="#DejaVuSans-53" x="312.646484"/>
      <use xlink:href="#DejaVuSans-20" x="376.123047"/>
      <use xlink:href="#DejaVuSans-4c" x="407.910156"/>
      <use xlink:href="#DejaVuSans-65" x="461.873047"/>
      <use xlink:href="#DejaVuSans-67" x="523.396484"/>
      <use xlink:href="#DejaVuSans-61" x="586.873047"/>
      <use xlink:href="#DejaVuSans-63" x="648.152344"/>
      <use xlink:href="#DejaVuSans-79" x="703.132812"/>
     </g>
    </g>
    <g id="line2d_53">
     <path d="M 61.079375 81.274563 
L 71.079375 81.274563 
L 81.079375 81.274563 
" style="fill: none; stroke: #9a5689; stroke-width: 1.5; stroke-linecap: square"/>
    </g>
    <g id="text_27">
     <!-- CentOS Stream -->
     <g transform="translate(89.079375 84.774563)scale(0.1 -0.1)">
      <use xlink:href="#DejaVuSans-43"/>
      <use xlink:href="#DejaVuSans-65" x="69.824219"/>
      <use xlink:href="#DejaVuSans-6e" x="131.347656"/>
      <use xlink:href="#DejaVuSans-74" x="194.726562"/>
      <use xlink:href="#DejaVuSans-4f" x="233.935547"/>
      <use xlink:href="#DejaVuSans-53" x="312.646484"/>
      <use xlink:href="#DejaVuSans-20" x="376.123047"/>
      <use xlink:href="#DejaVuSans-53" x="407.910156"/>
      <use xlink:href="#DejaVuSans-74" x="471.386719"/>
      <use xlink:href="#DejaVuSans-72" x="510.595703"/>
      <use xlink:href="#DejaVuSans-65" x="549.458984"/>
      <use xlink:href="#DejaVuSans-61" x="610.982422"/>
      <use xlink:href="#DejaVuSans-6d" x="672.261719"/>
     </g>
    </g>
    <g id="line2d_54">
     <path d="M 61.079375 95.952687 
L 71.079375 95.952687 
L 81.079375 95.952687 
" style="fill: none; stroke: #be503b; stroke-width: 1.5; stroke-linecap: square"/>
    </g>
    <g id="text_28">
     <!-- Oracle -->
     <g transform="translate(89.079375 99.452687)scale(0.1 -0.1)">
      <use xlink:href="#DejaVuSans-4f"/>
      <use xlink:href="#DejaVuSans-72" x="78.710938"/>
      <use xlink:href="#DejaVuSans-61" x="119.824219"/>
      <use xlink:href="#DejaVuSans-63" x="181.103516"/>
      <use xlink:href="#DejaVuSans-6c" x="236.083984"/>
      <use xlink:href="#DejaVuSans-65" x="263.867188"/>
     </g>
    </g>
    <g id="line2d_55">
     <path d="M 61.079375 110.630812 
L 71.079375 110.630812 
L 81.079375 110.630812 
" style="fill: none; stroke: #e2321d; stroke-width: 1.5; stroke-linecap: square"/>
    </g>
    <g id="text_29">
     <!-- RHEL -->
     <g transform="translate(89.079375 114.130812)scale(0.1 -0.1)">
      <defs>
       <path id="DejaVuSans-52" d="M 2841 2188 
Q 3044 2119 3236 1894 
Q 3428 1669 3622 1275 
L 4263 0 
L 3584 0 
L 2988 1197 
Q 2756 1666 2539 1819 
Q 2322 1972 1947 1972 
L 1259 1972 
L 1259 0 
L 628 0 
L 628 4666 
L 2053 4666 
Q 2853 4666 3247 4331 
Q 3641 3997 3641 3322 
Q 3641 2881 3436 2590 
Q 3231 2300 2841 2188 
z
M 1259 4147 
L 1259 2491 
L 2053 2491 
Q 2509 2491 2742 2702 
Q 2975 2913 2975 3322 
Q 2975 3731 2742 3939 
Q 2509 4147 2053 4147 
L 1259 4147 
z
" transform="scale(0.015625)"/>
       <path id="DejaVuSans-48" d="M 628 4666 
L 1259 4666 
L 1259 2753 
L 3553 2753 
L 3553 4666 
L 4184 4666 
L 4184 0 
L 3553 0 
L 3553 2222 
L 1259 2222 
L 1259 0 
L 628 0 
L 628 4666 
z
" transform="scale(0.015625)"/>
      </defs>
      <use xlink:href="#DejaVuSans-52"/>
      <use xlink:href="#DejaVuSans-48" x="69.482422"/>
      <use xlink:href="#DejaVuSans-45" x="144.677734"/>
      <use xlink:href="#DejaVuSans-4c" x="207.861328"/>
     </g>
    </g>
    <g id="line2d_56">
     <path d="M 61.079375 125.308937 
L 71.079375 125.308937 
L 81.079375 125.308937 
" style="fill: none; stroke: #48b585; stroke-width: 6; stroke-linecap: square"/>
    </g>
    <g id="text_30">
     <!-- Rocky Linux -->
     <g transform="translate(89.079375 128.808937)scale(0.1 -0.1)">
      <use xlink:href="#DejaVuSans-52"/>
      <use xlink:href="#DejaVuSans-6f" x="64.982422"/>
      <use xlink:href="#DejaVuSans-63" x="126.164062"/>
      <use xlink:href="#DejaVuSans-6b" x="181.144531"/>
      <use xlink:href="#DejaVuSans-79" x="235.429688"/>
      <use xlink:href="#DejaVuSans-20" x="294.609375"/>
      <use xlink:href="#DejaVuSans-4c" x="326.396484"/>
      <use xlink:href="#DejaVuSans-69" x="382.109375"/>
      <use xlink:href="#DejaVuSans-6e" x="409.892578"/>
      <use xlink:href="#DejaVuSans-75" x="473.271484"/>
      <use xlink:href="#DejaVuSans-78" x="536.650391"/>
     </g>
    </g>
   </g>
  </g>
 </g>
 <defs>
  <clipPath id="p17ffc7eebe">
   <rect x="52.079375" y="24.14175" width="902.844" height="543.6"/>
  </clipPath>
 </defs>
</svg>
