<?xml version="1.0" encoding="utf-8" standalone="no"?>
<!DOCTYPE svg PUBLIC "-//W3C//DTD SVG 1.1//EN"
  "http://www.w3.org/Graphics/SVG/1.1/DTD/svg11.dtd">
<svg xmlns:xlink="http://www.w3.org/1999/xlink" width="974.2765pt" height="644.743878pt" viewBox="0 0 974.2765 644.743878" xmlns="http://www.w3.org/2000/svg" version="1.1">
 <metadata>
  <rdf:RDF xmlns:dc="http://purl.org/dc/elements/1.1/" xmlns:cc="http://creativecommons.org/ns#" xmlns:rdf="http://www.w3.org/1999/02/22-rdf-syntax-ns#">
   <cc:Work>
    <dc:type rdf:resource="http://purl.org/dc/dcmitype/StillImage"/>
    <dc:date>2025-11-27T11:55:04.148152</dc:date>
    <dc:format>image/svg+xml</dc:format>
    <dc:creator>
     <cc:Agent>
      <dc:title>Matplotlib v3.6.3, https://matplotlib.org/</dc:title>
     </cc:Agent>
    </dc:creator>
   </cc:Work>
  </rdf:RDF>
 </metadata>
 <defs>
  <style type="text/css">*{stroke-linejoin: round; stroke-linecap: butt}</style>
 </defs>
 <g id="figure_1">
  <g id="patch_1">
   <path d="M 0 644.743878 
L 974.2765 644.743878 
L 974.2765 0 
L 0 0 
z
" style="fill: #ffffff"/>
  </g>
  <g id="axes_1">
   <g id="patch_2">
    <path d="M 64.2325 578.54175 
L 967.0765 578.54175 
L 967.0765 24.14175 
L 64.2325 24.14175 
z
" style="fill: #e5e5e5"/>
   </g>
   <g id="matplotlib.axis_1">
    <g id="xtick_1">
     <g id="line2d_1">
      <path d="M 74.730686 578.54175 
L 74.730686 24.14175 
" clip-path="url(#pfb444ec89a)" style="fill: none; stroke: #ffffff; stroke-width: 0.8; stroke-linecap: square"/>
     </g>
     <g id="line2d_2">
      <defs>
       <path id="m78171a95f9" d="M 0 0 
L 0 3.5 
" style="stroke: #555555; stroke-width: 0.8"/>
      </defs>
      <g>
       <use xlink:href="#m78171a95f9" x="74.730686" y="578.54175" style="fill: #555555; stroke: #555555; stroke-width: 0.8"/>
      </g>
     </g>
     <g id="text_1">
      <!-- 2021-01 -->
      <g style="fill: #555555" transform="translate(61.909404 620.459567) rotate(-45) scale(0.1 -0.1)">
       <defs>
        <path id="DejaVuSans-32" d="M 1228 531 
L 3431 531 
L 3431 0 
L 469 0 
L 469 531 
Q 828 903 1448 1529 
Q 2069 2156 2228 2338 
Q 2531 2678 2651 2914 
Q 2772 3150 2772 3378 
Q 2772 3750 2511 3984 
Q 2250 4219 1831 4219 
Q 1534 4219 1204 4116 
Q 875 4013 500 3803 
L 500 4441 
Q 881 4594 1212 4672 
Q 1544 4750 1819 4750 
Q 2544 4750 2975 4387 
Q 3406 4025 3406 3419 
Q 3406 3131 3298 2873 
Q 3191 2616 2906 2266 
Q 2828 2175 2409 1742 
Q 1991 1309 1228 531 
z
" transform="scale(0.015625)"/>
        <path id="DejaVuSans-30" d="M 2034 4250 
Q 1547 4250 1301 3770 
Q 1056 3291 1056 2328 
Q 1056 1369 1301 889 
Q 1547 409 2034 409 
Q 2525 409 2770 889 
Q 3016 1369 3016 2328 
Q 3016 3291 2770 3770 
Q 2525 4250 2034 4250 
z
M 2034 4750 
Q 2819 4750 3233 4129 
Q 3647 3509 3647 2328 
Q 3647 1150 3233 529 
Q 2819 -91 2034 -91 
Q 1250 -91 836 529 
Q 422 1150 422 2328 
Q 422 3509 836 4129 
Q 1250 4750 2034 4750 
z
" transform="scale(0.015625)"/>
        <path id="DejaVuSans-31" d="M 794 531 
L 1825 531 
L 1825 4091 
L 703 3866 
L 703 4441 
L 1819 4666 
L 2450 4666 
L 2450 531 
L 3481 531 
L 3481 0 
L 794 0 
L 794 531 
z
" transform="scale(0.015625)"/>
        <path id="DejaVuSans-2d" d="M 313 2009 
L 1997 2009 
L 1997 1497 
L 313 1497 
L 313 2009 
z
" transform="scale(0.015625)"/>
       </defs>
       <use xlink:href="#DejaVuSans-32"/>
       <use xlink:href="#DejaVuSans-30" x="63.623047"/>
       <use xlink:href="#DejaVuSans-32" x="127.246094"/>
       <use xlink:href="#DejaVuSans-31" x="190.869141"/>
       <use xlink:href="#DejaVuSans-2d" x="254.492188"/>
       <use xlink:href="#DejaVuSans-30" x="290.576172"/>
       <use xlink:href="#DejaVuSans-31" x="354.199219"/>
      </g>
     </g>
    </g>
    <g id="xtick_2">
     <g id="line2d_3">
      <path d="M 119.722912 578.54175 
L 119.722912 24.14175 
" clip-path="url(#pfb444ec89a)" style="fill: none; stroke: #ffffff; stroke-width: 0.8; stroke-linecap: square"/>
     </g>
     <g id="line2d_4">
      <g>
       <use xlink:href="#m78171a95f9" x="119.722912" y="578.54175" style="fill: #555555; stroke: #555555; stroke-width: 0.8"/>
      </g>
     </g>
     <g id="text_2">
      <!-- 2021-04 -->
      <g style="fill: #555555" transform="translate(106.90163 620.459567) rotate(-45) scale(0.1 -0.1)">
       <defs>
        <path id="DejaVuSans-34" d="M 2419 4116 
L 825 1625 
L 2419 1625 
L 2419 4116 
z
M 2253 4666 
L 3047 4666 
L 3047 1625 
L 3713 1625 
L 3713 1100 
L 3047 1100 
L 3047 0 
L 2419 0 
L 2419 1100 
L 313 1100 
L 313 1709 
L 2253 4666 
z
" transform="scale(0.015625)"/>
       </defs>
       <use xlink:href="#DejaVuSans-32"/>
       <use xlink:href="#DejaVuSans-30" x="63.623047"/>
       <use xlink:href="#DejaVuSans-32" x="127.246094"/>
       <use xlink:href="#DejaVuSans-31" x="190.869141"/>
       <use xlink:href="#DejaVuSans-2d" x="254.492188"/>
       <use xlink:href="#DejaVuSans-30" x="290.576172"/>
       <use xlink:href="#DejaVuSans-34" x="354.199219"/>
      </g>
     </g>
    </g>
    <g id="xtick_3">
     <g id="line2d_5">
      <path d="M 165.215051 578.54175 
L 165.215051 24.14175 
" clip-path="url(#pfb444ec89a)" style="fill: none; stroke: #ffffff; stroke-width: 0.8; stroke-linecap: square"/>
     </g>
     <g id="line2d_6">
      <g>
       <use xlink:href="#m78171a95f9" x="165.215051" y="578.54175" style="fill: #555555; stroke: #555555; stroke-width: 0.8"/>
      </g>
     </g>
     <g id="text_3">
      <!-- 2021-07 -->
      <g style="fill: #555555" transform="translate(152.393769 620.459567) rotate(-45) scale(0.1 -0.1)">
       <defs>
        <path id="DejaVuSans-37" d="M 525 4666 
L 3525 4666 
L 3525 4397 
L 1831 0 
L 1172 0 
L 2766 4134 
L 525 4134 
L 525 4666 
z
" transform="scale(0.015625)"/>
       </defs>
       <use xlink:href="#DejaVuSans-32"/>
       <use xlink:href="#DejaVuSans-30" x="63.623047"/>
       <use xlink:href="#DejaVuSans-32" x="127.246094"/>
       <use xlink:href="#DejaVuSans-31" x="190.869141"/>
       <use xlink:href="#DejaVuSans-2d" x="254.492188"/>
       <use xlink:href="#DejaVuSans-30" x="290.576172"/>
       <use xlink:href="#DejaVuSans-37" x="354.199219"/>
      </g>
     </g>
    </g>
    <g id="xtick_4">
     <g id="line2d_7">
      <path d="M 211.207105 578.54175 
L 211.207105 24.14175 
" clip-path="url(#pfb444ec89a)" style="fill: none; stroke: #ffffff; stroke-width: 0.8; stroke-linecap: square"/>
     </g>
     <g id="line2d_8">
      <g>
       <use xlink:href="#m78171a95f9" x="211.207105" y="578.54175" style="fill: #555555; stroke: #555555; stroke-width: 0.8"/>
      </g>
     </g>
     <g id="text_4">
      <!-- 2021-10 -->
      <g style="fill: #555555" transform="translate(198.385822 620.459567) rotate(-45) scale(0.1 -0.1)">
       <use xlink:href="#DejaVuSans-32"/>
       <use xlink:href="#DejaVuSans-30" x="63.623047"/>
       <use xlink:href="#DejaVuSans-32" x="127.246094"/>
       <use xlink:href="#DejaVuSans-31" x="190.869141"/>
       <use xlink:href="#DejaVuSans-2d" x="254.492188"/>
       <use xlink:href="#DejaVuSans-31" x="290.576172"/>
       <use xlink:href="#DejaVuSans-30" x="354.199219"/>
      </g>
     </g>
    </g>
    <g id="xtick_5">
     <g id="line2d_9">
      <path d="M 257.199158 578.54175 
L 257.199158 24.14175 
" clip-path="url(#pfb444ec89a)" style="fill: none; stroke: #ffffff; stroke-width: 0.8; stroke-linecap: square"/>
     </g>
     <g id="line2d_10">
      <g>
       <use xlink:href="#m78171a95f9" x="257.199158" y="578.54175" style="fill: #555555; stroke: #555555; stroke-width: 0.8"/>
      </g>
     </g>
     <g id="text_5">
      <!-- 2022-01 -->
      <g style="fill: #555555" transform="translate(244.377876 620.459567) rotate(-45) scale(0.1 -0.1)">
       <use xlink:href="#DejaVuSans-32"/>
       <use xlink:href="#DejaVuSans-30" x="63.623047"/>
       <use xlink:href="#DejaVuSans-32" x="127.246094"/>
       <use xlink:href="#DejaVuSans-32" x="190.869141"/>
       <use xlink:href="#DejaVuSans-2d" x="254.492188"/>
       <use xlink:href="#DejaVuSans-30" x="290.576172"/>
       <use xlink:href="#DejaVuSans-31" x="354.199219"/>
      </g>
     </g>
    </g>
    <g id="xtick_6">
     <g id="line2d_11">
      <path d="M 302.191384 578.54175 
L 302.191384 24.14175 
" clip-path="url(#pfb444ec89a)" style="fill: none; stroke: #ffffff; stroke-width: 0.8; stroke-linecap: square"/>
     </g>
     <g id="line2d_12">
      <g>
       <use xlink:href="#m78171a95f9" x="302.191384" y="578.54175" style="fill: #555555; stroke: #555555; stroke-width: 0.8"/>
      </g>
     </g>
     <g id="text_6">
      <!-- 2022-04 -->
      <g style="fill: #555555" transform="translate(289.370101 620.459567) rotate(-45) scale(0.1 -0.1)">
       <use xlink:href="#DejaVuSans-32"/>
       <use xlink:href="#DejaVuSans-30" x="63.623047"/>
       <use xlink:href="#DejaVuSans-32" x="127.246094"/>
       <use xlink:href="#DejaVuSans-32" x="190.869141"/>
       <use xlink:href="#DejaVuSans-2d" x="254.492188"/>
       <use xlink:href="#DejaVuSans-30" x="290.576172"/>
       <use xlink:href="#DejaVuSans-34" x="354.199219"/>
      </g>
     </g>
    </g>
    <g id="xtick_7">
     <g id="line2d_13">
      <path d="M 347.683523 578.54175 
L 347.683523 24.14175 
" clip-path="url(#pfb444ec89a)" style="fill: none; stroke: #ffffff; stroke-width: 0.8; stroke-linecap: square"/>
     </g>
     <g id="line2d_14">
      <g>
       <use xlink:href="#m78171a95f9" x="347.683523" y="578.54175" style="fill: #555555; stroke: #555555; stroke-width: 0.8"/>
      </g>
     </g>
     <g id="text_7">
      <!-- 2022-07 -->
      <g style="fill: #555555" transform="translate(334.862241 620.459567) rotate(-45) scale(0.1 -0.1)">
       <use xlink:href="#DejaVuSans-32"/>
       <use xlink:href="#DejaVuSans-30" x="63.623047"/>
       <use xlink:href="#DejaVuSans-32" x="127.246094"/>
       <use xlink:href="#DejaVuSans-32" x="190.869141"/>
       <use xlink:href="#DejaVuSans-2d" x="254.492188"/>
       <use xlink:href="#DejaVuSans-30" x="290.576172"/>
       <use xlink:href="#DejaVuSans-37" x="354.199219"/>
      </g>
     </g>
    </g>
    <g id="xtick_8">
     <g id="line2d_15">
      <path d="M 393.675576 578.54175 
L 393.675576 24.14175 
" clip-path="url(#pfb444ec89a)" style="fill: none; stroke: #ffffff; stroke-width: 0.8; stroke-linecap: square"/>
     </g>
     <g id="line2d_16">
      <g>
       <use xlink:href="#m78171a95f9" x="393.675576" y="578.54175" style="fill: #555555; stroke: #555555; stroke-width: 0.8"/>
      </g>
     </g>
     <g id="text_8">
      <!-- 2022-10 -->
      <g style="fill: #555555" transform="translate(380.854294 620.459567) rotate(-45) scale(0.1 -0.1)">
       <use xlink:href="#DejaVuSans-32"/>
       <use xlink:href="#DejaVuSans-30" x="63.623047"/>
       <use xlink:href="#DejaVuSans-32" x="127.246094"/>
       <use xlink:href="#DejaVuSans-32" x="190.869141"/>
       <use xlink:href="#DejaVuSans-2d" x="254.492188"/>
       <use xlink:href="#DejaVuSans-31" x="290.576172"/>
       <use xlink:href="#DejaVuSans-30" x="354.199219"/>
      </g>
     </g>
    </g>
    <g id="xtick_9">
     <g id="line2d_17">
      <path d="M 439.66763 578.54175 
L 439.66763 24.14175 
" clip-path="url(#pfb444ec89a)" style="fill: none; stroke: #ffffff; stroke-width: 0.8; stroke-linecap: square"/>
     </g>
     <g id="line2d_18">
      <g>
       <use xlink:href="#m78171a95f9" x="439.66763" y="578.54175" style="fill: #555555; stroke: #555555; stroke-width: 0.8"/>
      </g>
     </g>
     <g id="text_9">
      <!-- 2023-01 -->
      <g style="fill: #555555" transform="translate(426.846347 620.459567) rotate(-45) scale(0.1 -0.1)">
       <defs>
        <path id="DejaVuSans-33" d="M 2597 2516 
Q 3050 2419 3304 2112 
Q 3559 1806 3559 1356 
Q 3559 666 3084 287 
Q 2609 -91 1734 -91 
Q 1441 -91 1130 -33 
Q 819 25 488 141 
L 488 750 
Q 750 597 1062 519 
Q 1375 441 1716 441 
Q 2309 441 2620 675 
Q 2931 909 2931 1356 
Q 2931 1769 2642 2001 
Q 2353 2234 1838 2234 
L 1294 2234 
L 1294 2753 
L 1863 2753 
Q 2328 2753 2575 2939 
Q 2822 3125 2822 3475 
Q 2822 3834 2567 4026 
Q 2313 4219 1838 4219 
Q 1578 4219 1281 4162 
Q 984 4106 628 3988 
L 628 4550 
Q 988 4650 1302 4700 
Q 1616 4750 1894 4750 
Q 2613 4750 3031 4423 
Q 3450 4097 3450 3541 
Q 3450 3153 3228 2886 
Q 3006 2619 2597 2516 
z
" transform="scale(0.015625)"/>
       </defs>
       <use xlink:href="#DejaVuSans-32"/>
       <use xlink:href="#DejaVuSans-30" x="63.623047"/>
       <use xlink:href="#DejaVuSans-32" x="127.246094"/>
       <use xlink:href="#DejaVuSans-33" x="190.869141"/>
       <use xlink:href="#DejaVuSans-2d" x="254.492188"/>
       <use xlink:href="#DejaVuSans-30" x="290.576172"/>
       <use xlink:href="#DejaVuSans-31" x="354.199219"/>
      </g>
     </g>
    </g>
    <g id="xtick_10">
     <g id="line2d_19">
      <path d="M 484.659855 578.54175 
L 484.659855 24.14175 
" clip-path="url(#pfb444ec89a)" style="fill: none; stroke: #ffffff; stroke-width: 0.8; stroke-linecap: square"/>
     </g>
     <g id="line2d_20">
      <g>
       <use xlink:href="#m78171a95f9" x="484.659855" y="578.54175" style="fill: #555555; stroke: #555555; stroke-width: 0.8"/>
      </g>
     </g>
     <g id="text_10">
      <!-- 2023-04 -->
      <g style="fill: #555555" transform="translate(471.838573 620.459567) rotate(-45) scale(0.1 -0.1)">
       <use xlink:href="#DejaVuSans-32"/>
       <use xlink:href="#DejaVuSans-30" x="63.623047"/>
       <use xlink:href="#DejaVuSans-32" x="127.246094"/>
       <use xlink:href="#DejaVuSans-33" x="190.869141"/>
       <use xlink:href="#DejaVuSans-2d" x="254.492188"/>
       <use xlink:href="#DejaVuSans-30" x="290.576172"/>
       <use xlink:href="#DejaVuSans-34" x="354.199219"/>
      </g>
     </g>
    </g>
    <g id="xtick_11">
     <g id="line2d_21">
      <path d="M 530.151995 578.54175 
L 530.151995 24.14175 
" clip-path="url(#pfb444ec89a)" style="fill: none; stroke: #ffffff; stroke-width: 0.8; stroke-linecap: square"/>
     </g>
     <g id="line2d_22">
      <g>
       <use xlink:href="#m78171a95f9" x="530.151995" y="578.54175" style="fill: #555555; stroke: #555555; stroke-width: 0.8"/>
      </g>
     </g>
     <g id="text_11">
      <!-- 2023-07 -->
      <g style="fill: #555555" transform="translate(517.330713 620.459567) rotate(-45) scale(0.1 -0.1)">
       <use xlink:href="#DejaVuSans-32"/>
       <use xlink:href="#DejaVuSans-30" x="63.623047"/>
       <use xlink:href="#DejaVuSans-32" x="127.246094"/>
       <use xlink:href="#DejaVuSans-33" x="190.869141"/>
       <use xlink:href="#DejaVuSans-2d" x="254.492188"/>
       <use xlink:href="#DejaVuSans-30" x="290.576172"/>
       <use xlink:href="#DejaVuSans-37" x="354.199219"/>
      </g>
     </g>
    </g>
    <g id="xtick_12">
     <g id="line2d_23">
      <path d="M 576.144048 578.54175 
L 576.144048 24.14175 
" clip-path="url(#pfb444ec89a)" style="fill: none; stroke: #ffffff; stroke-width: 0.8; stroke-linecap: square"/>
     </g>
     <g id="line2d_24">
      <g>
       <use xlink:href="#m78171a95f9" x="576.144048" y="578.54175" style="fill: #555555; stroke: #555555; stroke-width: 0.8"/>
      </g>
     </g>
     <g id="text_12">
      <!-- 2023-10 -->
      <g style="fill: #555555" transform="translate(563.322766 620.459567) rotate(-45) scale(0.1 -0.1)">
       <use xlink:href="#DejaVuSans-32"/>
       <use xlink:href="#DejaVuSans-30" x="63.623047"/>
       <use xlink:href="#DejaVuSans-32" x="127.246094"/>
       <use xlink:href="#DejaVuSans-33" x="190.869141"/>
       <use xlink:href="#DejaVuSans-2d" x="254.492188"/>
       <use xlink:href="#DejaVuSans-31" x="290.576172"/>
       <use xlink:href="#DejaVuSans-30" x="354.199219"/>
      </g>
     </g>
    </g>
    <g id="xtick_13">
     <g id="line2d_25">
      <path d="M 622.136101 578.54175 
L 622.136101 24.14175 
" clip-path="url(#pfb444ec89a)" style="fill: none; stroke: #ffffff; stroke-width: 0.8; stroke-linecap: square"/>
     </g>
     <g id="line2d_26">
      <g>
       <use xlink:href="#m78171a95f9" x="622.136101" y="578.54175" style="fill: #555555; stroke: #555555; stroke-width: 0.8"/>
      </g>
     </g>
     <g id="text_13">
      <!-- 2024-01 -->
      <g style="fill: #555555" transform="translate(609.314819 620.459567) rotate(-45) scale(0.1 -0.1)">
       <use xlink:href="#DejaVuSans-32"/>
       <use xlink:href="#DejaVuSans-30" x="63.623047"/>
       <use xlink:href="#DejaVuSans-32" x="127.246094"/>
       <use xlink:href="#DejaVuSans-34" x="190.869141"/>
       <use xlink:href="#DejaVuSans-2d" x="254.492188"/>
       <use xlink:href="#DejaVuSans-30" x="290.576172"/>
       <use xlink:href="#DejaVuSans-31" x="354.199219"/>
      </g>
     </g>
    </g>
    <g id="xtick_14">
     <g id="line2d_27">
      <path d="M 667.628241 578.54175 
L 667.628241 24.14175 
" clip-path="url(#pfb444ec89a)" style="fill: none; stroke: #ffffff; stroke-width: 0.8; stroke-linecap: square"/>
     </g>
     <g id="line2d_28">
      <g>
       <use xlink:href="#m78171a95f9" x="667.628241" y="578.54175" style="fill: #555555; stroke: #555555; stroke-width: 0.8"/>
      </g>
     </g>
     <g id="text_14">
      <!-- 2024-04 -->
      <g style="fill: #555555" transform="translate(654.806959 620.459567) rotate(-45) scale(0.1 -0.1)">
       <use xlink:href="#DejaVuSans-32"/>
       <use xlink:href="#DejaVuSans-30" x="63.623047"/>
       <use xlink:href="#DejaVuSans-32" x="127.246094"/>
       <use xlink:href="#DejaVuSans-34" x="190.869141"/>
       <use xlink:href="#DejaVuSans-2d" x="254.492188"/>
       <use xlink:href="#DejaVuSans-30" x="290.576172"/>
       <use xlink:href="#DejaVuSans-34" x="354.199219"/>
      </g>
     </g>
    </g>
    <g id="xtick_15">
     <g id="line2d_29">
      <path d="M 713.12038 578.54175 
L 713.12038 24.14175 
" clip-path="url(#pfb444ec89a)" style="fill: none; stroke: #ffffff; stroke-width: 0.8; stroke-linecap: square"/>
     </g>
     <g id="line2d_30">
      <g>
       <use xlink:href="#m78171a95f9" x="713.12038" y="578.54175" style="fill: #555555; stroke: #555555; stroke-width: 0.8"/>
      </g>
     </g>
     <g id="text_15">
      <!-- 2024-07 -->
      <g style="fill: #555555" transform="translate(700.299098 620.459567) rotate(-45) scale(0.1 -0.1)">
       <use xlink:href="#DejaVuSans-32"/>
       <use xlink:href="#DejaVuSans-30" x="63.623047"/>
       <use xlink:href="#DejaVuSans-32" x="127.246094"/>
       <use xlink:href="#DejaVuSans-34" x="190.869141"/>
       <use xlink:href="#DejaVuSans-2d" x="254.492188"/>
       <use xlink:href="#DejaVuSans-30" x="290.576172"/>
       <use xlink:href="#DejaVuSans-37" x="354.199219"/>
      </g>
     </g>
    </g>
    <g id="xtick_16">
     <g id="line2d_31">
      <path d="M 759.112434 578.54175 
L 759.112434 24.14175 
" clip-path="url(#pfb444ec89a)" style="fill: none; stroke: #ffffff; stroke-width: 0.8; stroke-linecap: square"/>
     </g>
     <g id="line2d_32">
      <g>
       <use xlink:href="#m78171a95f9" x="759.112434" y="578.54175" style="fill: #555555; stroke: #555555; stroke-width: 0.8"/>
      </g>
     </g>
     <g id="text_16">
      <!-- 2024-10 -->
      <g style="fill: #555555" transform="translate(746.291151 620.459567) rotate(-45) scale(0.1 -0.1)">
       <use xlink:href="#DejaVuSans-32"/>
       <use xlink:href="#DejaVuSans-30" x="63.623047"/>
       <use xlink:href="#DejaVuSans-32" x="127.246094"/>
       <use xlink:href="#DejaVuSans-34" x="190.869141"/>
       <use xlink:href="#DejaVuSans-2d" x="254.492188"/>
       <use xlink:href="#DejaVuSans-31" x="290.576172"/>
       <use xlink:href="#DejaVuSans-30" x="354.199219"/>
      </g>
     </g>
    </g>
    <g id="xtick_17">
     <g id="line2d_33">
      <path d="M 805.104487 578.54175 
L 805.104487 24.14175 
" clip-path="url(#pfb444ec89a)" style="fill: none; stroke: #ffffff; stroke-width: 0.8; stroke-linecap: square"/>
     </g>
     <g id="line2d_34">
      <g>
       <use xlink:href="#m78171a95f9" x="805.104487" y="578.54175" style="fill: #555555; stroke: #555555; stroke-width: 0.8"/>
      </g>
     </g>
     <g id="text_17">
      <!-- 2025-01 -->
      <g style="fill: #555555" transform="translate(792.283204 620.459567) rotate(-45) scale(0.1 -0.1)">
       <defs>
        <path id="DejaVuSans-35" d="M 691 4666 
L 3169 4666 
L 3169 4134 
L 1269 4134 
L 1269 2991 
Q 1406 3038 1543 3061 
Q 1681 3084 1819 3084 
Q 2600 3084 3056 2656 
Q 3513 2228 3513 1497 
Q 3513 744 3044 326 
Q 2575 -91 1722 -91 
Q 1428 -91 1123 -41 
Q 819 9 494 109 
L 494 744 
Q 775 591 1075 516 
Q 1375 441 1709 441 
Q 2250 441 2565 725 
Q 2881 1009 2881 1497 
Q 2881 1984 2565 2268 
Q 2250 2553 1709 2553 
Q 1456 2553 1204 2497 
Q 953 2441 691 2322 
L 691 4666 
z
" transform="scale(0.015625)"/>
       </defs>
       <use xlink:href="#DejaVuSans-32"/>
       <use xlink:href="#DejaVuSans-30" x="63.623047"/>
       <use xlink:href="#DejaVuSans-32" x="127.246094"/>
       <use xlink:href="#DejaVuSans-35" x="190.869141"/>
       <use xlink:href="#DejaVuSans-2d" x="254.492188"/>
       <use xlink:href="#DejaVuSans-30" x="290.576172"/>
       <use xlink:href="#DejaVuSans-31" x="354.199219"/>
      </g>
     </g>
    </g>
    <g id="xtick_18">
     <g id="line2d_35">
      <path d="M 850.096713 578.54175 
L 850.096713 24.14175 
" clip-path="url(#pfb444ec89a)" style="fill: none; stroke: #ffffff; stroke-width: 0.8; stroke-linecap: square"/>
     </g>
     <g id="line2d_36">
      <g>
       <use xlink:href="#m78171a95f9" x="850.096713" y="578.54175" style="fill: #555555; stroke: #555555; stroke-width: 0.8"/>
      </g>
     </g>
     <g id="text_18">
      <!-- 2025-04 -->
      <g style="fill: #555555" transform="translate(837.27543 620.459567) rotate(-45) scale(0.1 -0.1)">
       <use xlink:href="#DejaVuSans-32"/>
       <use xlink:href="#DejaVuSans-30" x="63.623047"/>
       <use xlink:href="#DejaVuSans-32" x="127.246094"/>
       <use xlink:href="#DejaVuSans-35" x="190.869141"/>
       <use xlink:href="#DejaVuSans-2d" x="254.492188"/>
       <use xlink:href="#DejaVuSans-30" x="290.576172"/>
       <use xlink:href="#DejaVuSans-34" x="354.199219"/>
      </g>
     </g>
    </g>
    <g id="xtick_19">
     <g id="line2d_37">
      <path d="M 895.588852 578.54175 
L 895.588852 24.14175 
" clip-path="url(#pfb444ec89a)" style="fill: none; stroke: #ffffff; stroke-width: 0.8; stroke-linecap: square"/>
     </g>
     <g id="line2d_38">
      <g>
       <use xlink:href="#m78171a95f9" x="895.588852" y="578.54175" style="fill: #555555; stroke: #555555; stroke-width: 0.8"/>
      </g>
     </g>
     <g id="text_19">
      <!-- 2025-07 -->
      <g style="fill: #555555" transform="translate(882.76757 620.459567) rotate(-45) scale(0.1 -0.1)">
       <use xlink:href="#DejaVuSans-32"/>
       <use xlink:href="#DejaVuSans-30" x="63.623047"/>
       <use xlink:href="#DejaVuSans-32" x="127.246094"/>
       <use xlink:href="#DejaVuSans-35" x="190.869141"/>
       <use xlink:href="#DejaVuSans-2d" x="254.492188"/>
       <use xlink:href="#DejaVuSans-30" x="290.576172"/>
       <use xlink:href="#DejaVuSans-37" x="354.199219"/>
      </g>
     </g>
    </g>
    <g id="xtick_20">
     <g id="line2d_39">
      <path d="M 941.580905 578.54175 
L 941.580905 24.14175 
" clip-path="url(#pfb444ec89a)" style="fill: none; stroke: #ffffff; stroke-width: 0.8; stroke-linecap: square"/>
     </g>
     <g id="line2d_40">
      <g>
       <use xlink:href="#m78171a95f9" x="941.580905" y="578.54175" style="fill: #555555; stroke: #555555; stroke-width: 0.8"/>
      </g>
     </g>
     <g id="text_20">
      <!-- 2025-10 -->
      <g style="fill: #555555" transform="translate(928.759623 620.459567) rotate(-45) scale(0.1 -0.1)">
       <use xlink:href="#DejaVuSans-32"/>
       <use xlink:href="#DejaVuSans-30" x="63.623047"/>
       <use xlink:href="#DejaVuSans-32" x="127.246094"/>
       <use xlink:href="#DejaVuSans-35" x="190.869141"/>
       <use xlink:href="#DejaVuSans-2d" x="254.492188"/>
       <use xlink:href="#DejaVuSans-31" x="290.576172"/>
       <use xlink:href="#DejaVuSans-30" x="354.199219"/>
      </g>
     </g>
    </g>
    <g id="text_21">
     <!-- Date -->
     <g style="fill: #555555" transform="translate(501.313563 635.048253) scale(0.12 -0.12)">
      <defs>
       <path id="DejaVuSans-44" d="M 1259 4147 
L 1259 519 
L 2022 519 
Q 2988 519 3436 956 
Q 3884 1394 3884 2338 
Q 3884 3275 3436 3711 
Q 2988 4147 2022 4147 
L 1259 4147 
z
M 628 4666 
L 1925 4666 
Q 3281 4666 3915 4102 
Q 4550 3538 4550 2338 
Q 4550 1131 3912 565 
Q 3275 0 1925 0 
L 628 0 
L 628 4666 
z
" transform="scale(0.015625)"/>
       <path id="DejaVuSans-61" d="M 2194 1759 
Q 1497 1759 1228 1600 
Q 959 1441 959 1056 
Q 959 750 1161 570 
Q 1363 391 1709 391 
Q 2188 391 2477 730 
Q 2766 1069 2766 1631 
L 2766 1759 
L 2194 1759 
z
M 3341 1997 
L 3341 0 
L 2766 0 
L 2766 531 
Q 2569 213 2275 61 
Q 1981 -91 1556 -91 
Q 1019 -91 701 211 
Q 384 513 384 1019 
Q 384 1609 779 1909 
Q 1175 2209 1959 2209 
L 2766 2209 
L 2766 2266 
Q 2766 2663 2505 2880 
Q 2244 3097 1772 3097 
Q 1472 3097 1187 3025 
Q 903 2953 641 2809 
L 641 3341 
Q 956 3463 1253 3523 
Q 1550 3584 1831 3584 
Q 2591 3584 2966 3190 
Q 3341 2797 3341 1997 
z
" transform="scale(0.015625)"/>
       <path id="DejaVuSans-74" d="M 1172 4494 
L 1172 3500 
L 2356 3500 
L 2356 3053 
L 1172 3053 
L 1172 1153 
Q 1172 725 1289 603 
Q 1406 481 1766 481 
L 2356 481 
L 2356 0 
L 1766 0 
Q 1100 0 847 248 
Q 594 497 594 1153 
L 594 3053 
L 172 3053 
L 172 3500 
L 594 3500 
L 594 4494 
L 1172 4494 
z
" transform="scale(0.015625)"/>
       <path id="DejaVuSans-65" d="M 3597 1894 
L 3597 1613 
L 953 1613 
Q 991 1019 1311 708 
Q 1631 397 2203 397 
Q 2534 397 2845 478 
Q 3156 559 3463 722 
L 3463 178 
Q 3153 47 2828 -22 
Q 2503 -91 2169 -91 
Q 1331 -91 842 396 
Q 353 884 353 1716 
Q 353 2575 817 3079 
Q 1281 3584 2069 3584 
Q 2775 3584 3186 3129 
Q 3597 2675 3597 1894 
z
M 3022 2063 
Q 3016 2534 2758 2815 
Q 2500 3097 2075 3097 
Q 1594 3097 1305 2825 
Q 1016 2553 972 2059 
L 3022 2063 
z
" transform="scale(0.015625)"/>
      </defs>
      <use xlink:href="#DejaVuSans-44"/>
      <use xlink:href="#DejaVuSans-61" x="77.001953"/>
      <use xlink:href="#DejaVuSans-74" x="138.28125"/>
      <use xlink:href="#DejaVuSans-65" x="177.490234"/>
     </g>
    </g>
   </g>
   <g id="matplotlib.axis_2">
    <g id="ytick_1">
     <g id="line2d_41">
      <path d="M 64.2325 578.54175 
L 967.0765 578.54175 
" clip-path="url(#pfb444ec89a)" style="fill: none; stroke: #ffffff; stroke-width: 0.8; stroke-linecap: square"/>
     </g>
     <g id="line2d_42">
      <defs>
       <path id="m73b5a6e11a" d="M 0 0 
L -3.5 0 
" style="stroke: #555555; stroke-width: 0.8"/>
      </defs>
      <g>
       <use xlink:href="#m73b5a6e11a" x="64.2325" y="578.54175" style="fill: #555555; stroke: #555555; stroke-width: 0.8"/>
      </g>
     </g>
     <g id="text_22">
      <!-- 0k -->
      <g style="fill: #555555" transform="translate(45.079375 582.340969) scale(0.1 -0.1)">
       <defs>
        <path id="DejaVuSans-6b" d="M 581 4863 
L 1159 4863 
L 1159 1991 
L 2875 3500 
L 3609 3500 
L 1753 1863 
L 3688 0 
L 2938 0 
L 1159 1709 
L 1159 0 
L 581 0 
L 581 4863 
z
" transform="scale(0.015625)"/>
       </defs>
       <use xlink:href="#DejaVuSans-30"/>
       <use xlink:href="#DejaVuSans-6b" x="63.623047"/>
      </g>
     </g>
    </g>
    <g id="ytick_2">
     <g id="line2d_43">
      <path d="M 64.2325 468.451054 
L 967.0765 468.451054 
" clip-path="url(#pfb444ec89a)" style="fill: none; stroke: #ffffff; stroke-width: 0.8; stroke-linecap: square"/>
     </g>
     <g id="line2d_44">
      <g>
       <use xlink:href="#m73b5a6e11a" x="64.2325" y="468.451054" style="fill: #555555; stroke: #555555; stroke-width: 0.8"/>
      </g>
     </g>
     <g id="text_23">
      <!-- 200k -->
      <g style="fill: #555555" transform="translate(32.354375 472.250273) scale(0.1 -0.1)">
       <use xlink:href="#DejaVuSans-32"/>
       <use xlink:href="#DejaVuSans-30" x="63.623047"/>
       <use xlink:href="#DejaVuSans-30" x="127.246094"/>
       <use xlink:href="#DejaVuSans-6b" x="190.869141"/>
      </g>
     </g>
    </g>
    <g id="ytick_3">
     <g id="line2d_45">
      <path d="M 64.2325 358.360358 
L 967.0765 358.360358 
" clip-path="url(#pfb444ec89a)" style="fill: none; stroke: #ffffff; stroke-width: 0.8; stroke-linecap: square"/>
     </g>
     <g id="line2d_46">
      <g>
       <use xlink:href="#m73b5a6e11a" x="64.2325" y="358.360358" style="fill: #555555; stroke: #555555; stroke-width: 0.8"/>
      </g>
     </g>
     <g id="text_24">
      <!-- 400k -->
      <g style="fill: #555555" transform="translate(32.354375 362.159577) scale(0.1 -0.1)">
       <use xlink:href="#DejaVuSans-34"/>
       <use xlink:href="#DejaVuSans-30" x="63.623047"/>
       <use xlink:href="#DejaVuSans-30" x="127.246094"/>
       <use xlink:href="#DejaVuSans-6b" x="190.869141"/>
      </g>
     </g>
    </g>
    <g id="ytick_4">
     <g id="line2d_47">
      <path d="M 64.2325 248.269663 
L 967.0765 248.269663 
" clip-path="url(#pfb444ec89a)" style="fill: none; stroke: #ffffff; stroke-width: 0.8; stroke-linecap: square"/>
     </g>
     <g id="line2d_48">
      <g>
       <use xlink:href="#m73b5a6e11a" x="64.2325" y="248.269663" style="fill: #555555; stroke: #555555; stroke-width: 0.8"/>
      </g>
     </g>
     <g id="text_25">
      <!-- 600k -->
      <g style="fill: #555555" transform="translate(32.354375 252.068881) scale(0.1 -0.1)">
       <defs>
        <path id="DejaVuSans-36" d="M 2113 2584 
Q 1688 2584 1439 2293 
Q 1191 2003 1191 1497 
Q 1191 994 1439 701 
Q 1688 409 2113 409 
Q 2538 409 2786 701 
Q 3034 994 3034 1497 
Q 3034 2003 2786 2293 
Q 2538 2584 2113 2584 
z
M 3366 4563 
L 3366 3988 
Q 3128 4100 2886 4159 
Q 2644 4219 2406 4219 
Q 1781 4219 1451 3797 
Q 1122 3375 1075 2522 
Q 1259 2794 1537 2939 
Q 1816 3084 2150 3084 
Q 2853 3084 3261 2657 
Q 3669 2231 3669 1497 
Q 3669 778 3244 343 
Q 2819 -91 2113 -91 
Q 1303 -91 875 529 
Q 447 1150 447 2328 
Q 447 3434 972 4092 
Q 1497 4750 2381 4750 
Q 2619 4750 2861 4703 
Q 3103 4656 3366 4563 
z
" transform="scale(0.015625)"/>
       </defs>
       <use xlink:href="#DejaVuSans-36"/>
       <use xlink:href="#DejaVuSans-30" x="63.623047"/>
       <use xlink:href="#DejaVuSans-30" x="127.246094"/>
       <use xlink:href="#DejaVuSans-6b" x="190.869141"/>
      </g>
     </g>
    </g>
    <g id="ytick_5">
     <g id="line2d_49">
      <path d="M 64.2325 138.178967 
L 967.0765 138.178967 
" clip-path="url(#pfb444ec89a)" style="fill: none; stroke: #ffffff; stroke-width: 0.8; stroke-linecap: square"/>
     </g>
     <g id="line2d_50">
      <g>
       <use xlink:href="#m73b5a6e11a" x="64.2325" y="138.178967" style="fill: #555555; stroke: #555555; stroke-width: 0.8"/>
      </g>
     </g>
     <g id="text_26">
      <!-- 800k -->
      <g style="fill: #555555" transform="translate(32.354375 141.978186) scale(0.1 -0.1)">
       <defs>
        <path id="DejaVuSans-38" d="M 2034 2216 
Q 1584 2216 1326 1975 
Q 1069 1734 1069 1313 
Q 1069 891 1326 650 
Q 1584 409 2034 409 
Q 2484 409 2743 651 
Q 3003 894 3003 1313 
Q 3003 1734 2745 1975 
Q 2488 2216 2034 2216 
z
M 1403 2484 
Q 997 2584 770 2862 
Q 544 3141 544 3541 
Q 544 4100 942 4425 
Q 1341 4750 2034 4750 
Q 2731 4750 3128 4425 
Q 3525 4100 3525 3541 
Q 3525 3141 3298 2862 
Q 3072 2584 2669 2484 
Q 3125 2378 3379 2068 
Q 3634 1759 3634 1313 
Q 3634 634 3220 271 
Q 2806 -91 2034 -91 
Q 1263 -91 848 271 
Q 434 634 434 1313 
Q 434 1759 690 2068 
Q 947 2378 1403 2484 
z
M 1172 3481 
Q 1172 3119 1398 2916 
Q 1625 2713 2034 2713 
Q 2441 2713 2670 2916 
Q 2900 3119 2900 3481 
Q 2900 3844 2670 4047 
Q 2441 4250 2034 4250 
Q 1625 4250 1398 4047 
Q 1172 3844 1172 3481 
z
" transform="scale(0.015625)"/>
       </defs>
       <use xlink:href="#DejaVuSans-38"/>
       <use xlink:href="#DejaVuSans-30" x="63.623047"/>
       <use xlink:href="#DejaVuSans-30" x="127.246094"/>
       <use xlink:href="#DejaVuSans-6b" x="190.869141"/>
      </g>
     </g>
    </g>
    <g id="ytick_6">
     <g id="line2d_51">
      <path d="M 64.2325 28.088271 
L 967.0765 28.088271 
" clip-path="url(#pfb444ec89a)" style="fill: none; stroke: #ffffff; stroke-width: 0.8; stroke-linecap: square"/>
     </g>
     <g id="line2d_52">
      <g>
       <use xlink:href="#m73b5a6e11a" x="64.2325" y="28.088271" style="fill: #555555; stroke: #555555; stroke-width: 0.8"/>
      </g>
     </g>
     <g id="text_27">
      <!-- 1,000k -->
      <g style="fill: #555555" transform="translate(22.81375 31.88749) scale(0.1 -0.1)">
       <defs>
        <path id="DejaVuSans-2c" d="M 750 794 
L 1409 794 
L 1409 256 
L 897 -744 
L 494 -744 
L 750 256 
L 750 794 
z
" transform="scale(0.015625)"/>
       </defs>
       <use xlink:href="#DejaVuSans-31"/>
       <use xlink:href="#DejaVuSans-2c" x="63.623047"/>
       <use xlink:href="#DejaVuSans-30" x="95.410156"/>
       <use xlink:href="#DejaVuSans-30" x="159.033203"/>
       <use xlink:href="#DejaVuSans-30" x="222.65625"/>
       <use xlink:href="#DejaVuSans-6b" x="286.279297"/>
      </g>
     </g>
    </g>
    <g id="text_28">
     <!-- Instances -->
     <g style="fill: #555555" transform="translate(16.318125 329.988) rotate(-90) scale(0.12 -0.12)">
      <defs>
       <path id="DejaVuSans-49" d="M 628 4666 
L 1259 4666 
L 1259 0 
L 628 0 
L 628 4666 
z
" transform="scale(0.015625)"/>
       <path id="DejaVuSans-6e" d="M 3513 2113 
L 3513 0 
L 2938 0 
L 2938 2094 
Q 2938 2591 2744 2837 
Q 2550 3084 2163 3084 
Q 1697 3084 1428 2787 
Q 1159 2491 1159 1978 
L 1159 0 
L 581 0 
L 581 3500 
L 1159 3500 
L 1159 2956 
Q 1366 3272 1645 3428 
Q 1925 3584 2291 3584 
Q 2894 3584 3203 3211 
Q 3513 2838 3513 2113 
z
" transform="scale(0.015625)"/>
       <path id="DejaVuSans-73" d="M 2834 3397 
L 2834 2853 
Q 2591 2978 2328 3040 
Q 2066 3103 1784 3103 
Q 1356 3103 1142 2972 
Q 928 2841 928 2578 
Q 928 2378 1081 2264 
Q 1234 2150 1697 2047 
L 1894 2003 
Q 2506 1872 2764 1633 
Q 3022 1394 3022 966 
Q 3022 478 2636 193 
Q 2250 -91 1575 -91 
Q 1294 -91 989 -36 
Q 684 19 347 128 
L 347 722 
Q 666 556 975 473 
Q 1284 391 1588 391 
Q 1994 391 2212 530 
Q 2431 669 2431 922 
Q 2431 1156 2273 1281 
Q 2116 1406 1581 1522 
L 1381 1569 
Q 847 1681 609 1914 
Q 372 2147 372 2553 
Q 372 3047 722 3315 
Q 1072 3584 1716 3584 
Q 2034 3584 2315 3537 
Q 2597 3491 2834 3397 
z
" transform="scale(0.015625)"/>
       <path id="DejaVuSans-63" d="M 3122 3366 
L 3122 2828 
Q 2878 2963 2633 3030 
Q 2388 3097 2138 3097 
Q 1578 3097 1268 2742 
Q 959 2388 959 1747 
Q 959 1106 1268 751 
Q 1578 397 2138 397 
Q 2388 397 2633 464 
Q 2878 531 3122 666 
L 3122 134 
Q 2881 22 2623 -34 
Q 2366 -91 2075 -91 
Q 1284 -91 818 406 
Q 353 903 353 1747 
Q 353 2603 823 3093 
Q 1294 3584 2113 3584 
Q 2378 3584 2631 3529 
Q 2884 3475 3122 3366 
z
" transform="scale(0.015625)"/>
      </defs>
      <use xlink:href="#DejaVuSans-49"/>
      <use xlink:href="#DejaVuSans-6e" x="29.492188"/>
      <use xlink:href="#DejaVuSans-73" x="92.871094"/>
      <use xlink:href="#DejaVuSans-74" x="144.970703"/>
      <use xlink:href="#DejaVuSans-61" x="184.179688"/>
      <use xlink:href="#DejaVuSans-6e" x="245.458984"/>
      <use xlink:href="#DejaVuSans-63" x="308.837891"/>
      <use xlink:href="#DejaVuSans-65" x="363.818359"/>
      <use xlink:href="#DejaVuSans-73" x="425.341797"/>
     </g>
    </g>
   </g>
   <g id="line2d_53">
    <path d="M 64.2325 624.254657 
L 73.352136 622.034644 
L 82.471773 619.814631 
L 91.591409 617.594618 
L 100.711045 615.374606 
L 109.830682 613.154593 
L 118.950318 610.93458 
L 128.069955 608.714567 
L 137.189591 606.494554 
L 146.309227 604.274542 
L 155.428864 602.054529 
L 164.5485 599.834516 
L 173.668136 597.614503 
L 182.787773 595.394491 
L 191.907409 593.174478 
L 201.027045 590.954465 
L 210.146682 588.734452 
L 219.266318 586.514439 
L 228.385955 584.294427 
L 237.505591 582.074414 
L 246.625227 579.854401 
L 255.744864 577.634388 
L 264.8645 575.414375 
L 273.984136 573.194363 
L 283.103773 570.97435 
L 292.223409 568.754337 
L 301.343045 566.534324 
L 310.462682 564.314311 
L 319.582318 562.094299 
L 328.701955 559.874286 
L 337.821591 557.654273 
L 346.941227 555.43426 
L 356.060864 553.214248 
L 365.1805 550.994235 
L 374.300136 548.774222 
L 383.419773 546.554209 
L 392.539409 544.334196 
L 401.659045 542.114184 
L 410.778682 539.894171 
L 419.898318 537.674158 
L 429.017955 535.454145 
L 438.137591 533.234132 
L 447.257227 531.01412 
L 456.376864 528.794107 
L 465.4965 526.574094 
L 474.616136 524.354081 
L 483.735773 522.134069 
L 492.855409 519.914056 
L 501.975045 517.694043 
L 511.094682 515.47403 
L 520.214318 513.254017 
L 529.333955 511.034005 
L 538.453591 508.813992 
L 547.573227 506.593979 
L 556.692864 504.373966 
L 565.8125 502.153953 
L 574.932136 499.933941 
L 584.051773 497.713928 
L 593.171409 495.493915 
L 602.291045 493.273902 
L 611.410682 491.053889 
L 620.530318 488.833877 
L 629.649955 486.613864 
L 638.769591 484.393851 
L 647.889227 482.173838 
L 657.008864 479.953826 
L 666.1285 477.733813 
L 675.248136 475.5138 
L 684.367773 473.293787 
L 693.487409 471.073774 
L 702.607045 468.853762 
L 711.726682 466.633749 
L 720.846318 464.413736 
L 729.965955 462.193723 
L 739.085591 459.97371 
L 748.205227 457.753698 
L 757.324864 455.533685 
L 766.4445 453.313672 
L 775.564136 451.093659 
L 784.683773 448.873647 
L 793.803409 446.653634 
L 802.923045 444.433621 
L 812.042682 442.213608 
L 821.162318 439.993595 
L 830.281955 437.773583 
L 839.401591 435.55357 
L 848.521227 433.333557 
L 857.640864 431.113544 
L 866.7605 428.893531 
L 875.880136 426.673519 
L 884.999773 424.453506 
L 894.119409 422.233493 
L 903.239045 420.01348 
L 912.358682 417.793467 
L 921.478318 415.573455 
L 930.597955 413.353442 
L 939.717591 411.133429 
L 948.837227 408.913416 
L 957.956864 406.693404 
L 967.0765 404.473391 
" clip-path="url(#pfb444ec89a)" style="fill: none; stroke-dasharray: 3,4.95; stroke-dashoffset: 0; stroke: #4ac1fa; stroke-opacity: 0.9; stroke-width: 3"/>
   </g>
   <g id="line2d_54">
    <path d="M 64.2325 467.417208 
L 73.352136 468.393413 
L 82.471773 469.369619 
L 91.591409 470.345824 
L 100.711045 471.322029 
L 109.830682 472.298234 
L 118.950318 473.27444 
L 128.069955 474.250645 
L 137.189591 475.22685 
L 146.309227 476.203056 
L 155.428864 477.179261 
L 164.5485 478.155466 
L 173.668136 479.131671 
L 182.787773 480.107877 
L 191.907409 481.084082 
L 201.027045 482.060287 
L 210.146682 483.036493 
L 219.266318 484.012698 
L 228.385955 484.988903 
L 237.505591 485.965108 
L 246.625227 486.941314 
L 255.744864 487.917519 
L 264.8645 488.893724 
L 273.984136 489.86993 
L 283.103773 490.846135 
L 292.223409 491.82234 
L 301.343045 492.798545 
L 310.462682 493.774751 
L 319.582318 494.750956 
L 328.701955 495.727161 
L 337.821591 496.703366 
L 346.941227 497.679572 
L 356.060864 498.655777 
L 365.1805 499.631982 
L 374.300136 500.608188 
L 383.419773 501.584393 
L 392.539409 502.560598 
L 401.659045 503.536803 
L 410.778682 504.513009 
L 419.898318 505.489214 
L 429.017955 506.465419 
L 438.137591 507.441625 
L 447.257227 508.41783 
L 456.376864 509.394035 
L 465.4965 510.37024 
L 474.616136 511.346446 
L 483.735773 512.322651 
L 492.855409 513.298856 
L 501.975045 514.275062 
L 511.094682 515.251267 
L 520.214318 516.227472 
L 529.333955 517.203677 
L 538.453591 518.179883 
L 547.573227 519.156088 
L 556.692864 520.132293 
L 565.8125 521.108499 
L 574.932136 522.084704 
L 584.051773 523.060909 
L 593.171409 524.037114 
L 602.291045 525.01332 
L 611.410682 525.989525 
L 620.530318 526.96573 
L 629.649955 527.941935 
L 638.769591 528.918141 
L 647.889227 529.894346 
L 657.008864 530.870551 
L 666.1285 531.846757 
L 675.248136 532.822962 
L 684.367773 533.799167 
L 693.487409 534.775372 
L 702.607045 535.751578 
L 711.726682 536.727783 
L 720.846318 537.703988 
L 729.965955 538.680194 
L 739.085591 539.656399 
L 748.205227 540.632604 
L 757.324864 541.608809 
L 766.4445 542.585015 
L 775.564136 543.56122 
L 784.683773 544.537425 
L 793.803409 545.513631 
L 802.923045 546.489836 
L 812.042682 547.466041 
L 821.162318 548.442246 
L 830.281955 549.418452 
L 839.401591 550.394657 
L 848.521227 551.370862 
L 857.640864 552.347068 
L 866.7605 553.323273 
L 875.880136 554.299478 
L 884.999773 555.275683 
L 894.119409 556.251889 
L 903.239045 557.228094 
L 912.358682 558.204299 
L 921.478318 559.180504 
L 930.597955 560.15671 
L 939.717591 561.132915 
L 948.837227 562.10912 
L 957.956864 563.085326 
L 967.0765 564.061531 
" clip-path="url(#pfb444ec89a)" style="fill: none; stroke-dasharray: 3,4.95; stroke-dashoffset: 0; stroke: #e9a942; stroke-opacity: 0.9; stroke-width: 3"/>
   </g>
   <g id="line2d_55">
    <path d="M 64.2325 572.040392 
L 73.352136 571.621982 
L 82.471773 571.203573 
L 91.591409 570.785163 
L 100.711045 570.366753 
L 109.830682 569.948344 
L 118.950318 569.529934 
L 128.069955 569.111525 
L 137.189591 568.693115 
L 146.309227 568.274705 
L 155.428864 567.856296 
L 164.5485 567.437886 
L 173.668136 567.019477 
L 182.787773 566.601067 
L 191.907409 566.182657 
L 201.027045 565.764248 
L 210.146682 565.345838 
L 219.266318 564.927429 
L 228.385955 564.509019 
L 237.505591 564.090609 
L 246.625227 563.6722 
L 255.744864 563.25379 
L 264.8645 562.835381 
L 273.984136 562.416971 
L 283.103773 561.998561 
L 292.223409 561.580152 
L 301.343045 561.161742 
L 310.462682 560.743333 
L 319.582318 560.324923 
L 328.701955 559.906514 
L 337.821591 559.488104 
L 346.941227 559.069694 
L 356.060864 558.651285 
L 365.1805 558.232875 
L 374.300136 557.814466 
L 383.419773 557.396056 
L 392.539409 556.977646 
L 401.659045 556.559237 
L 410.778682 556.140827 
L 419.898318 555.722418 
L 429.017955 555.304008 
L 438.137591 554.885598 
L 447.257227 554.467189 
L 456.376864 554.048779 
L 465.4965 553.63037 
L 474.616136 553.21196 
L 483.735773 552.79355 
L 492.855409 552.375141 
L 501.975045 551.956731 
L 511.094682 551.538322 
L 520.214318 551.119912 
L 529.333955 550.701502 
L 538.453591 550.283093 
L 547.573227 549.864683 
L 556.692864 549.446274 
L 565.8125 549.027864 
L 574.932136 548.609454 
L 584.051773 548.191045 
L 593.171409 547.772635 
L 602.291045 547.354226 
L 611.410682 546.935816 
L 620.530318 546.517407 
L 629.649955 546.098997 
L 638.769591 545.680587 
L 647.889227 545.262178 
L 657.008864 544.843768 
L 666.1285 544.425359 
L 675.248136 544.006949 
L 684.367773 543.588539 
L 693.487409 543.17013 
L 702.607045 542.75172 
L 711.726682 542.333311 
L 720.846318 541.914901 
L 729.965955 541.496491 
L 739.085591 541.078082 
L 748.205227 540.659672 
L 757.324864 540.241263 
L 766.4445 539.822853 
L 775.564136 539.404443 
L 784.683773 538.986034 
L 793.803409 538.567624 
L 802.923045 538.149215 
L 812.042682 537.730805 
L 821.162318 537.312395 
L 830.281955 536.893986 
L 839.401591 536.475576 
L 848.521227 536.057167 
L 857.640864 535.638757 
L 866.7605 535.220348 
L 875.880136 534.801938 
L 884.999773 534.383528 
L 894.119409 533.965119 
L 903.239045 533.546709 
L 912.358682 533.1283 
L 921.478318 532.70989 
L 930.597955 532.29148 
L 939.717591 531.873071 
L 948.837227 531.454661 
L 957.956864 531.036252 
L 967.0765 530.617842 
" clip-path="url(#pfb444ec89a)" style="fill: none; stroke-dasharray: 3,4.95; stroke-dashoffset: 0; stroke: #9a5689; stroke-opacity: 0.9; stroke-width: 3"/>
   </g>
   <g id="line2d_56">
    <path d="M 64.2325 581.260806 
L 73.352136 580.811497 
L 82.471773 580.362188 
L 91.591409 579.91288 
L 100.711045 579.463571 
L 109.830682 579.014262 
L 118.950318 578.564953 
L 128.069955 578.115644 
L 137.189591 577.666335 
L 146.309227 577.217026 
L 155.428864 576.767717 
L 164.5485 576.318408 
L 173.668136 575.869099 
L 182.787773 575.41979 
L 191.907409 574.970481 
L 201.027045 574.521172 
L 210.146682 574.071863 
L 219.266318 573.622554 
L 228.385955 573.173245 
L 237.505591 572.723936 
L 246.625227 572.274627 
L 255.744864 571.825318 
L 264.8645 571.376009 
L 273.984136 570.9267 
L 283.103773 570.477391 
L 292.223409 570.028082 
L 301.343045 569.578774 
L 310.462682 569.129465 
L 319.582318 568.680156 
L 328.701955 568.230847 
L 337.821591 567.781538 
L 346.941227 567.332229 
L 356.060864 566.88292 
L 365.1805 566.433611 
L 374.300136 565.984302 
L 383.419773 565.534993 
L 392.539409 565.085684 
L 401.659045 564.636375 
L 410.778682 564.187066 
L 419.898318 563.737757 
L 429.017955 563.288448 
L 438.137591 562.839139 
L 447.257227 562.38983 
L 456.376864 561.940521 
L 465.4965 561.491212 
L 474.616136 561.041903 
L 483.735773 560.592594 
L 492.855409 560.143285 
L 501.975045 559.693976 
L 511.094682 559.244668 
L 520.214318 558.795359 
L 529.333955 558.34605 
L 538.453591 557.896741 
L 547.573227 557.447432 
L 556.692864 556.998123 
L 565.8125 556.548814 
L 574.932136 556.099505 
L 584.051773 555.650196 
L 593.171409 555.200887 
L 602.291045 554.751578 
L 611.410682 554.302269 
L 620.530318 553.85296 
L 629.649955 553.403651 
L 638.769591 552.954342 
L 647.889227 552.505033 
L 657.008864 552.055724 
L 666.1285 551.606415 
L 675.248136 551.157106 
L 684.367773 550.707797 
L 693.487409 550.258488 
L 702.607045 549.809179 
L 711.726682 549.35987 
L 720.846318 548.910562 
L 729.965955 548.461253 
L 739.085591 548.011944 
L 748.205227 547.562635 
L 757.324864 547.113326 
L 766.4445 546.664017 
L 775.564136 546.214708 
L 784.683773 545.765399 
L 793.803409 545.31609 
L 802.923045 544.866781 
L 812.042682 544.417472 
L 821.162318 543.968163 
L 830.281955 543.518854 
L 839.401591 543.069545 
L 848.521227 542.620236 
L 857.640864 542.170927 
L 866.7605 541.721618 
L 875.880136 541.272309 
L 884.999773 540.823 
L 894.119409 540.373691 
L 903.239045 539.924382 
L 912.358682 539.475073 
L 921.478318 539.025764 
L 930.597955 538.576456 
L 939.717591 538.127147 
L 948.837227 537.677838 
L 957.956864 537.228529 
L 967.0765 536.77922 
" clip-path="url(#pfb444ec89a)" style="fill: none; stroke-dasharray: 3,4.95; stroke-dashoffset: 0; stroke: #be503b; stroke-opacity: 0.9; stroke-width: 3"/>
   </g>
   <g id="line2d_57">
    <path d="M 64.2325 551.330336 
L 73.352136 550.589084 
L 82.471773 549.847832 
L 91.591409 549.10658 
L 100.711045 548.365327 
L 109.830682 547.624075 
L 118.950318 546.882823 
L 128.069955 546.141571 
L 137.189591 545.400318 
L 146.309227 544.659066 
L 155.428864 543.917814 
L 164.5485 543.176562 
L 173.668136 542.43531 
L 182.787773 541.694057 
L 191.907409 540.952805 
L 201.027045 540.211553 
L 210.146682 539.470301 
L 219.266318 538.729048 
L 228.385955 537.987796 
L 237.505591 537.246544 
L 246.625227 536.505292 
L 255.744864 535.76404 
L 264.8645 535.022787 
L 273.984136 534.281535 
L 283.103773 533.540283 
L 292.223409 532.799031 
L 301.343045 532.057778 
L 310.462682 531.316526 
L 319.582318 530.575274 
L 328.701955 529.834022 
L 337.821591 529.09277 
L 346.941227 528.351517 
L 356.060864 527.610265 
L 365.1805 526.869013 
L 374.300136 526.127761 
L 383.419773 525.386508 
L 392.539409 524.645256 
L 401.659045 523.904004 
L 410.778682 523.162752 
L 419.898318 522.421499 
L 429.017955 521.680247 
L 438.137591 520.938995 
L 447.257227 520.197743 
L 456.376864 519.456491 
L 465.4965 518.715238 
L 474.616136 517.973986 
L 483.735773 517.232734 
L 492.855409 516.491482 
L 501.975045 515.750229 
L 511.094682 515.008977 
L 520.214318 514.267725 
L 529.333955 513.526473 
L 538.453591 512.785221 
L 547.573227 512.043968 
L 556.692864 511.302716 
L 565.8125 510.561464 
L 574.932136 509.820212 
L 584.051773 509.078959 
L 593.171409 508.337707 
L 602.291045 507.596455 
L 611.410682 506.855203 
L 620.530318 506.113951 
L 629.649955 505.372698 
L 638.769591 504.631446 
L 647.889227 503.890194 
L 657.008864 503.148942 
L 666.1285 502.407689 
L 675.248136 501.666437 
L 684.367773 500.925185 
L 693.487409 500.183933 
L 702.607045 499.44268 
L 711.726682 498.701428 
L 720.846318 497.960176 
L 729.965955 497.218924 
L 739.085591 496.477672 
L 748.205227 495.736419 
L 757.324864 494.995167 
L 766.4445 494.253915 
L 775.564136 493.512663 
L 784.683773 492.77141 
L 793.803409 492.030158 
L 802.923045 491.288906 
L 812.042682 490.547654 
L 821.162318 489.806402 
L 830.281955 489.065149 
L 839.401591 488.323897 
L 848.521227 487.582645 
L 857.640864 486.841393 
L 866.7605 486.10014 
L 875.880136 485.358888 
L 884.999773 484.617636 
L 894.119409 483.876384 
L 903.239045 483.135132 
L 912.358682 482.393879 
L 921.478318 481.652627 
L 930.597955 480.911375 
L 939.717591 480.170123 
L 948.837227 479.42887 
L 957.956864 478.687618 
L 967.0765 477.946366 
" clip-path="url(#pfb444ec89a)" style="fill: none; stroke-dasharray: 3,4.95; stroke-dashoffset: 0; stroke: #e2321d; stroke-opacity: 0.9; stroke-width: 3"/>
   </g>
   <g id="line2d_58">
    <path d="M 77.561461 645.743878 
L 82.471773 643.603777 
L 91.591409 639.629093 
L 100.711045 635.654408 
L 109.830682 631.679724 
L 118.950318 627.705039 
L 128.069955 623.730355 
L 137.189591 619.75567 
L 146.309227 615.780986 
L 155.428864 611.806301 
L 164.5485 607.831617 
L 173.668136 603.856932 
L 182.787773 599.882248 
L 191.907409 595.907563 
L 201.027045 591.932879 
L 210.146682 587.958194 
L 219.266318 583.98351 
L 228.385955 580.008825 
L 237.505591 576.034141 
L 246.625227 572.059456 
L 255.744864 568.084772 
L 264.8645 564.110087 
L 273.984136 560.135403 
L 283.103773 556.160719 
L 292.223409 552.186034 
L 301.343045 548.21135 
L 310.462682 544.236665 
L 319.582318 540.261981 
L 328.701955 536.287296 
L 337.821591 532.312612 
L 346.941227 528.337927 
L 356.060864 524.363243 
L 365.1805 520.388558 
L 374.300136 516.413874 
L 383.419773 512.439189 
L 392.539409 508.464505 
L 401.659045 504.48982 
L 410.778682 500.515136 
L 419.898318 496.540451 
L 429.017955 492.565767 
L 438.137591 488.591082 
L 447.257227 484.616398 
L 456.376864 480.641713 
L 465.4965 476.667029 
L 474.616136 472.692345 
L 483.735773 468.71766 
L 492.855409 464.742976 
L 501.975045 460.768291 
L 511.094682 456.793607 
L 520.214318 452.818922 
L 529.333955 448.844238 
L 538.453591 444.869553 
L 547.573227 440.894869 
L 556.692864 436.920184 
L 565.8125 432.9455 
L 574.932136 428.970815 
L 584.051773 424.996131 
L 593.171409 421.021446 
L 602.291045 417.046762 
L 611.410682 413.072077 
L 620.530318 409.097393 
L 629.649955 405.122708 
L 638.769591 401.148024 
L 647.889227 397.173339 
L 657.008864 393.198655 
L 666.1285 389.22397 
L 675.248136 385.249286 
L 684.367773 381.274602 
L 693.487409 377.299917 
L 702.607045 373.325233 
L 711.726682 369.350548 
L 720.846318 365.375864 
L 729.965955 361.401179 
L 739.085591 357.426495 
L 748.205227 353.45181 
L 757.324864 349.477126 
L 766.4445 345.502441 
L 775.564136 341.527757 
L 784.683773 337.553072 
L 793.803409 333.578388 
L 802.923045 329.603703 
L 812.042682 325.629019 
L 821.162318 321.654334 
L 830.281955 317.67965 
L 839.401591 313.704965 
L 848.521227 309.730281 
L 857.640864 305.755596 
L 866.7605 301.780912 
L 875.880136 297.806227 
L 884.999773 293.831543 
L 894.119409 289.856859 
L 903.239045 285.882174 
L 912.358682 281.90749 
L 921.478318 277.932805 
L 930.597955 273.958121 
L 939.717591 269.983436 
L 948.837227 266.008752 
L 957.956864 262.034067 
L 967.0765 258.059383 
" clip-path="url(#pfb444ec89a)" style="fill: none; stroke-dasharray: 3,4.95; stroke-dashoffset: 0; stroke: #48b585; stroke-opacity: 0.9; stroke-width: 3"/>
   </g>
   <g id="line2d_59">
    <path d="M 64.2325 578.54175 
L 85.228872 578.540924 
L 99.226453 578.264321 
L 106.225244 577.829463 
L 113.224035 577.774143 
L 120.222826 577.250386 
L 127.221616 575.997004 
L 134.220407 576.785253 
L 141.219198 576.853509 
L 148.217988 576.666905 
L 155.216779 576.703511 
L 162.21557 576.45443 
L 169.21436 576.407642 
L 176.213151 576.479201 
L 204.208314 576.005536 
L 211.207105 573.24391 
L 218.205895 571.636036 
L 225.204686 569.410277 
L 232.203477 573.08593 
L 239.202267 572.081903 
L 246.201058 571.657779 
L 253.199849 568.69689 
L 260.19864 570.307516 
L 267.19743 567.712679 
L 274.196221 566.255904 
L 281.195012 565.673249 
L 288.193802 566.68278 
L 295.192593 566.025264 
L 302.191384 564.111337 
L 309.190174 566.151868 
L 316.188965 562.851899 
L 323.187756 559.780644 
L 330.186547 560.62504 
L 337.185337 561.072008 
L 344.184128 555.871323 
L 351.182919 559.314135 
L 358.181709 558.190934 
L 365.1805 561.241272 
L 372.179291 565.310225 
L 379.178081 564.2184 
L 386.176872 554.336934 
L 400.174453 557.110945 
L 407.173244 556.574528 
L 414.172035 555.602977 
L 421.170826 554.263174 
L 428.169616 556.291595 
L 435.168407 559.914129 
L 442.167198 564.126199 
L 449.165988 560.081192 
L 456.164779 559.18698 
L 463.16357 559.248631 
L 477.161151 555.785453 
L 484.159942 556.978285 
L 491.158733 556.942231 
L 498.157523 555.289769 
M 512.155105 547.926353 
L 519.153895 538.516351 
L 526.152686 539.416342 
L 533.151477 540.098079 
L 540.150267 541.016235 
L 547.149058 539.749367 
L 554.147849 541.096326 
L 561.14664 537.021044 
L 568.14543 538.358096 
L 582.143012 536.343161 
L 589.141802 491.979638 
L 596.140593 512.252289 
L 603.139384 507.75013 
L 610.138174 503.751636 
L 617.136965 499.999194 
L 624.135756 513.640533 
L 631.134547 510.186712 
L 638.133337 525.312623 
L 645.132128 523.587227 
L 652.130919 526.724261 
L 659.129709 532.530169 
L 666.1285 531.757333 
L 673.127291 530.416153 
L 680.126081 509.695157 
L 687.124872 506.506931 
L 694.123663 515.764733 
L 708.121244 506.481059 
L 715.120035 494.882179 
L 722.118826 486.895925 
L 729.117616 493.687144 
L 736.116407 490.441395 
L 743.115198 493.395129 
L 750.113988 500.658638 
L 757.112779 494.089251 
L 764.11157 483.030916 
L 771.11036 487.271609 
L 778.109151 489.391405 
L 785.107942 481.203685 
L 792.106733 474.818975 
L 799.105523 478.398299 
L 806.104314 507.682424 
L 813.103105 473.796233 
L 820.101895 467.761611 
L 827.100686 468.071792 
L 834.099477 457.362169 
L 841.098267 454.873018 
L 848.097058 460.09407 
L 855.095849 475.745388 
L 862.09464 473.513575 
L 869.09343 380.095289 
L 876.092221 243.421819 
L 883.091012 247.440405 
L 890.089802 266.898935 
L 897.088593 288.645976 
L 904.087384 290.591003 
L 911.086174 281.230542 
L 918.084965 296.001961 
L 925.083756 294.131245 
L 932.082547 368.387419 
L 939.081337 378.458791 
L 946.080128 370.959963 
L 953.078919 376.512112 
L 960.077709 391.089221 
L 967.0765 393.999744 
L 967.0765 393.999744 
" clip-path="url(#pfb444ec89a)" style="fill: none; stroke: #4ac1fa; stroke-width: 1.5; stroke-linecap: square"/>
   </g>
   <g id="line2d_60">
    <path d="M 64.2325 490.288094 
L 71.231291 515.70088 
L 78.230081 525.211065 
L 85.228872 505.310795 
L 92.227663 496.191433 
L 99.226453 495.287313 
L 106.225244 495.209974 
L 113.224035 484.528975 
L 120.222826 509.013421 
L 127.221616 496.80161 
L 134.220407 480.959834 
L 141.219198 472.326522 
L 148.217988 462.110656 
L 155.216779 454.148346 
L 162.21557 451.612682 
L 169.21436 431.57535 
L 176.213151 429.211978 
L 183.211942 431.772688 
L 190.210733 427.23007 
L 197.209523 432.612955 
L 204.208314 420.670591 
L 211.207105 391.390319 
L 218.205895 379.554469 
L 225.204686 371.995366 
L 232.203477 363.548382 
L 239.202267 332.175286 
L 246.201058 316.790937 
L 253.199849 318.31184 
L 260.19864 335.357458 
L 267.19743 316.025807 
L 274.196221 415.696694 
L 281.195012 482.24762 
L 288.193802 458.289683 
L 295.192593 565.601965 
L 302.191384 564.614176 
L 309.190174 564.670322 
L 316.188965 563.834183 
L 323.187756 565.903338 
L 330.186547 565.481966 
L 337.185337 565.220501 
L 344.184128 565.935264 
L 351.182919 566.119391 
L 358.181709 564.243446 
L 365.1805 565.066098 
L 379.178081 565.945173 
L 386.176872 566.1004 
L 393.175663 565.035273 
L 400.174453 566.220124 
L 407.173244 564.259134 
L 414.172035 562.937495 
L 421.170826 563.621984 
L 428.169616 554.346017 
L 435.168407 543.163279 
L 442.167198 537.563241 
L 449.165988 529.692306 
L 456.164779 528.710297 
L 463.16357 535.608856 
L 470.16236 534.119053 
L 477.161151 539.081391 
L 484.159942 543.772906 
L 491.158733 546.540036 
L 498.157523 539.980007 
M 512.155105 498.070681 
L 519.153895 497.994993 
L 526.152686 506.398491 
L 533.151477 515.651064 
L 540.150267 556.543702 
L 547.149058 556.147651 
L 554.147849 557.67571 
L 561.14664 556.378016 
L 568.14543 559.568169 
L 575.144221 557.075165 
L 582.143012 554.091432 
L 589.141802 553.917214 
L 596.140593 550.632658 
L 603.139384 553.56685 
L 610.138174 554.048772 
L 617.136965 558.343685 
L 624.135756 561.052467 
L 631.134547 554.519685 
L 638.133337 554.559042 
L 645.132128 553.365109 
L 652.130919 547.524797 
L 659.129709 543.582174 
L 666.1285 544.828126 
L 673.127291 543.199609 
L 680.126081 544.495927 
L 687.124872 541.121923 
L 694.123663 530.135422 
L 701.122453 526.834077 
L 708.121244 532.915762 
L 715.120035 520.753492 
L 722.118826 532.401088 
L 729.117616 525.924177 
L 736.116407 526.505456 
L 743.115198 526.864076 
L 750.113988 528.395989 
L 757.112779 523.039801 
L 764.11157 516.796558 
L 771.11036 524.33777 
L 778.109151 524.84116 
L 785.107942 521.815042 
L 792.106733 519.016812 
L 799.105523 516.79986 
L 806.104314 516.582706 
L 813.103105 499.455346 
L 820.101895 498.798655 
L 827.100686 506.055834 
L 834.099477 508.772047 
L 841.098267 526.101698 
L 848.097058 519.392221 
L 855.095849 523.198607 
L 862.09464 529.986799 
L 869.09343 544.496478 
L 876.092221 525.018681 
L 883.091012 479.379207 
L 890.089802 542.195857 
L 897.088593 564.846192 
L 904.087384 563.685561 
L 911.086174 561.182924 
L 918.084965 560.758249 
L 925.083756 560.962192 
L 932.082547 560.586508 
L 939.081337 564.325463 
L 946.080128 564.556378 
L 953.078919 565.640221 
L 960.077709 565.079584 
L 967.0765 566.631038 
L 967.0765 566.631038 
" clip-path="url(#pfb444ec89a)" style="fill: none; stroke: #e9a942; stroke-width: 1.5; stroke-linecap: square"/>
   </g>
   <g id="line2d_61">
    <path d="M 64.2325 577.043416 
L 71.231291 576.495714 
L 78.230081 576.981765 
L 85.228872 576.418376 
L 99.226453 575.935078 
L 106.225244 575.874528 
L 113.224035 575.571778 
L 120.222826 575.901225 
L 127.221616 575.528292 
L 134.220407 575.301781 
L 141.219198 575.637833 
L 148.217988 575.700309 
L 155.216779 575.618567 
L 162.21557 575.285542 
L 169.21436 574.426009 
L 176.213151 573.720603 
L 183.211942 572.578137 
L 190.210733 571.078977 
L 197.209523 571.036042 
L 204.208314 566.455443 
L 211.207105 567.893503 
L 218.205895 566.96819 
L 232.203477 567.638643 
L 239.202267 571.269709 
L 246.201058 570.263205 
L 253.199849 570.531001 
L 260.19864 572.722081 
L 267.19743 570.442378 
L 274.196221 558.476895 
L 281.195012 542.741081 
L 288.193802 559.227989 
L 295.192593 548.182589 
L 302.191384 557.716719 
L 309.190174 556.363429 
L 316.188965 555.310411 
L 323.187756 558.152953 
L 330.186547 558.134788 
L 337.185337 558.812396 
L 344.184128 557.654242 
L 351.182919 558.07011 
L 358.181709 558.71414 
L 365.1805 555.143624 
L 372.179291 558.89579 
L 379.178081 556.391777 
L 386.176872 552.961351 
L 393.175663 547.46755 
L 400.174453 551.269532 
L 407.173244 549.960829 
L 414.172035 549.368266 
L 421.170826 552.776674 
L 428.169616 554.150606 
L 435.168407 547.377551 
L 442.167198 552.42631 
L 449.165988 543.629513 
L 456.164779 545.030693 
L 463.16357 547.672044 
L 470.16236 546.407102 
L 477.161151 546.634164 
L 484.159942 543.715935 
L 491.158733 550.221744 
L 498.157523 539.877898 
M 512.155105 543.55245 
L 519.153895 538.392224 
L 526.152686 548.971664 
L 533.151477 551.691455 
L 540.150267 550.060461 
L 547.149058 543.470707 
L 554.147849 547.519018 
L 561.14664 546.121691 
L 568.14543 545.984078 
L 575.144221 542.892456 
L 582.143012 541.07018 
L 589.141802 541.164307 
L 596.140593 533.465115 
L 603.139384 531.287796 
L 610.138174 541.789347 
L 617.136965 544.24492 
L 624.135756 551.218615 
L 631.134547 544.598311 
L 638.133337 542.785943 
L 645.132128 543.319883 
L 652.130919 545.989583 
L 659.129709 527.779205 
L 666.1285 526.162248 
L 673.127291 534.640883 
L 680.126081 531.387703 
L 687.124872 533.379794 
L 694.123663 541.337425 
L 701.122453 548.335065 
L 708.121244 546.940766 
L 715.120035 548.861849 
L 722.118826 543.009152 
L 729.117616 540.252206 
L 736.116407 541.369351 
L 743.115198 540.123125 
L 750.113988 543.458322 
L 757.112779 541.614578 
L 764.11157 544.113362 
L 771.11036 543.251627 
L 778.109151 545.10638 
L 785.107942 544.111711 
L 792.106733 543.800704 
L 799.105523 542.69099 
L 806.104314 553.292724 
L 813.103105 544.781337 
L 820.101895 542.883374 
L 827.100686 534.942257 
L 834.099477 537.211226 
L 841.098267 541.345682 
L 848.097058 537.328197 
L 855.095849 542.346681 
L 862.09464 542.040354 
L 869.09343 539.316986 
L 876.092221 539.359921 
L 883.091012 539.144694 
L 890.089802 539.38249 
L 897.088593 543.693916 
L 904.087384 542.841264 
L 911.086174 534.830514 
L 918.084965 539.920558 
L 925.083756 541.608523 
L 932.082547 535.687295 
L 939.081337 533.047596 
L 946.080128 533.903 
L 953.078919 537.006182 
L 960.077709 528.702866 
L 967.0765 534.578132 
L 967.0765 534.578132 
" clip-path="url(#pfb444ec89a)" style="fill: none; stroke: #9a5689; stroke-width: 1.5; stroke-linecap: square"/>
   </g>
   <g id="line2d_62">
    <path d="M 64.2325 577.973682 
L 71.231291 577.713868 
L 78.230081 577.822307 
L 85.228872 577.58231 
L 106.225244 577.297725 
L 120.222826 577.470568 
L 134.220407 577.277909 
L 148.217988 577.511576 
L 155.216779 576.86672 
L 162.21557 575.386826 
L 169.21436 575.058756 
L 176.213151 575.041141 
L 183.211942 575.64719 
L 190.210733 575.471045 
L 197.209523 575.785629 
L 204.208314 575.501871 
L 211.207105 575.930123 
L 218.205895 575.60453 
L 225.204686 575.517008 
L 232.203477 575.86462 
L 239.202267 574.776923 
L 246.201058 574.248213 
L 260.19864 574.7183 
L 274.196221 572.788685 
L 281.195012 572.506853 
L 288.193802 565.11674 
L 295.192593 566.618102 
L 302.191384 561.785396 
L 309.190174 566.149391 
L 316.188965 560.099907 
L 323.187756 559.613857 
L 330.186547 560.391372 
L 337.185337 563.749689 
L 344.184128 557.779195 
L 351.182919 560.642654 
L 358.181709 564.765551 
L 365.1805 567.843136 
L 372.179291 561.288611 
L 379.178081 566.810485 
L 386.176872 575.71297 
L 393.175663 574.607659 
L 400.174453 570.295131 
L 407.173244 563.124924 
L 414.172035 570.205407 
L 421.170826 569.282022 
L 428.169616 566.309848 
L 435.168407 566.665166 
L 442.167198 565.82077 
L 449.165988 563.882348 
L 456.164779 561.568242 
L 463.16357 563.126025 
L 470.16236 566.339573 
L 477.161151 567.578093 
L 484.159942 566.205537 
L 491.158733 566.422416 
L 498.157523 561.828056 
M 512.155105 562.285758 
L 526.152686 562.521902 
L 533.151477 560.086421 
L 540.150267 557.94268 
L 547.149058 558.677535 
L 554.147849 562.913 
L 561.14664 560.178897 
L 568.14543 558.286438 
L 575.144221 555.974258 
L 582.143012 557.454428 
L 589.141802 555.695729 
L 596.140593 547.863326 
L 603.139384 547.897179 
L 610.138174 549.153589 
L 617.136965 552.608786 
L 624.135756 558.34341 
L 631.134547 555.854259 
L 638.133337 553.605932 
L 645.132128 555.868571 
L 659.129709 549.983398 
L 666.1285 552.341541 
L 673.127291 546.131324 
L 680.126081 549.479182 
L 687.124872 546.887372 
L 694.123663 545.973344 
L 701.122453 548.781758 
L 708.121244 547.751034 
L 715.120035 550.539081 
L 722.118826 548.570659 
L 729.117616 548.060389 
L 736.116407 549.303863 
L 743.115198 548.780107 
L 750.113988 547.51021 
L 757.112779 547.083334 
L 764.11157 549.595328 
L 771.11036 550.577888 
L 778.109151 543.779512 
L 785.107942 547.805804 
L 792.106733 541.305774 
L 799.105523 548.025435 
L 806.104314 567.190849 
L 813.103105 553.418503 
L 820.101895 553.552263 
L 827.100686 545.29491 
L 834.099477 545.351332 
L 841.098267 540.134959 
L 848.097058 545.56711 
L 855.095849 547.435073 
L 862.09464 541.652835 
L 869.09343 541.939621 
L 876.092221 539.113043 
L 883.091012 542.027143 
L 890.089802 534.005109 
L 897.088593 541.471736 
L 904.087384 522.570264 
L 911.086174 516.466836 
L 918.084965 533.103467 
L 925.083756 537.407462 
L 932.082547 530.912937 
L 939.081337 536.118025 
L 946.080128 537.238473 
L 953.078919 542.877043 
L 960.077709 538.512498 
L 967.0765 534.553086 
L 967.0765 534.553086 
" clip-path="url(#pfb444ec89a)" style="fill: none; stroke: #be503b; stroke-width: 1.5; stroke-linecap: square"/>
   </g>
   <g id="line2d_63">
    <path d="M 64.2325 569.116335 
L 78.230081 571.953097 
L 85.228872 567.209564 
L 92.227663 566.283701 
L 99.226453 563.628589 
L 106.225244 559.724773 
L 113.224035 558.292493 
L 120.222826 551.943287 
L 127.221616 541.211922 
L 134.220407 527.827921 
L 141.219198 528.742774 
L 148.217988 522.912371 
L 155.216779 533.373739 
L 162.21557 524.322633 
L 169.21436 519.106536 
L 176.213151 516.464909 
L 183.211942 515.304829 
L 190.210733 513.854659 
L 197.209523 514.833365 
L 204.208314 501.513492 
L 211.207105 494.810895 
L 218.205895 489.4148 
L 225.204686 493.031004 
L 232.203477 493.46889 
L 239.202267 489.350121 
L 246.201058 498.080589 
L 253.199849 528.633509 
L 260.19864 523.907866 
L 267.19743 520.484045 
L 274.196221 526.493621 
L 281.195012 524.334468 
L 288.193802 525.621703 
L 295.192593 525.045103 
L 302.191384 519.398276 
L 309.190174 521.169635 
L 316.188965 526.957378 
L 323.187756 545.92518 
L 330.186547 546.667191 
L 337.185337 548.285799 
L 344.184128 546.104903 
L 351.182919 549.687804 
L 358.181709 547.768373 
L 365.1805 546.389762 
L 372.179291 547.967087 
L 379.178081 544.524275 
L 386.176872 544.169783 
L 393.175663 543.949877 
L 400.174453 544.195104 
L 407.173244 540.186977 
L 414.172035 540.59046 
L 421.170826 541.656963 
L 428.169616 541.822099 
L 435.168407 544.732622 
L 442.167198 553.786206 
L 449.165988 544.405928 
L 456.164779 539.287812 
L 463.16357 537.366454 
L 470.16236 536.551507 
L 477.161151 536.818202 
L 484.159942 536.54848 
L 491.158733 538.19296 
L 498.157523 535.092806 
M 512.155105 532.484757 
L 519.153895 534.791432 
L 526.152686 533.323923 
L 533.151477 531.590545 
L 540.150267 527.901406 
L 547.149058 527.434897 
L 554.147849 530.373768 
L 561.14664 520.31313 
L 568.14543 525.290055 
L 575.144221 524.054287 
L 582.143012 524.455567 
L 589.141802 520.172764 
L 596.140593 517.104536 
L 603.139384 512.999254 
L 610.138174 512.925494 
L 617.136965 515.359874 
L 624.135756 535.263721 
L 631.134547 517.397378 
L 638.133337 513.519708 
L 645.132128 511.691652 
L 652.130919 508.894247 
L 659.129709 501.377255 
L 666.1285 504.5886 
L 673.127291 502.989808 
L 680.126081 498.65829 
L 687.124872 504.78814 
L 694.123663 502.559354 
L 701.122453 500.079285 
L 708.121244 449.002432 
L 715.120035 497.505915 
L 722.118826 499.146817 
L 729.117616 493.007334 
L 736.116407 489.796264 
L 743.115198 491.58221 
L 750.113988 489.491588 
L 757.112779 486.359232 
L 764.11157 490.074243 
L 771.11036 475.499336 
L 778.109151 485.098694 
L 785.107942 479.82012 
L 792.106733 484.618699 
L 799.105523 489.086179 
L 806.104314 519.568366 
L 813.103105 490.263874 
L 820.101895 485.240986 
L 827.100686 481.237538 
L 834.099477 477.57427 
L 841.098267 480.685158 
L 848.097058 467.394184 
L 855.095849 475.454749 
L 862.09464 480.815891 
L 869.09343 485.417131 
L 876.092221 475.524657 
L 883.091012 483.161648 
L 890.089802 477.562711 
L 897.088593 492.322295 
L 904.087384 493.926316 
L 911.086174 474.269072 
L 918.084965 478.056467 
L 925.083756 482.970366 
L 932.082547 476.793727 
L 939.081337 459.691688 
L 946.080128 455.181547 
L 953.078919 465.30246 
L 960.077709 458.675826 
L 967.0765 454.063852 
L 967.0765 454.063852 
" clip-path="url(#pfb444ec89a)" style="fill: none; stroke: #e2321d; stroke-width: 1.5; stroke-linecap: square"/>
   </g>
   <g id="line2d_64">
    <path d="M 64.2325 578.54175 
L 134.220407 578.431384 
L 141.219198 576.693602 
L 148.217988 577.913958 
L 155.216779 577.935976 
L 162.21557 576.974609 
L 169.21436 575.179855 
L 176.213151 575.150131 
L 183.211942 575.277836 
L 197.209523 574.560045 
L 204.208314 574.429312 
L 211.207105 573.938583 
L 218.205895 572.906483 
L 225.204686 572.547312 
L 232.203477 571.827318 
L 239.202267 570.692008 
L 246.201058 566.116364 
L 253.199849 567.214794 
L 260.19864 567.721211 
L 267.19743 566.255628 
L 274.196221 562.196584 
L 281.195012 556.781774 
L 288.193802 555.940405 
L 295.192593 552.169524 
L 302.191384 549.708722 
L 309.190174 553.092359 
L 316.188965 551.609713 
L 323.187756 546.844712 
L 330.186547 544.421891 
L 337.185337 524.030067 
L 344.184128 514.501167 
L 351.182919 520.117719 
L 358.181709 530.143678 
L 365.1805 529.11378 
L 372.179291 514.290893 
L 386.176872 512.430361 
L 393.175663 504.219797 
L 400.174453 509.37039 
L 407.173244 515.755375 
L 414.172035 527.107377 
L 421.170826 516.82408 
L 428.169616 511.770917 
L 435.168407 515.674733 
L 442.167198 519.159379 
L 449.165988 513.815577 
L 456.164779 527.121413 
L 463.16357 519.546898 
L 470.16236 521.198259 
L 477.161151 520.664319 
L 484.159942 511.721377 
L 491.158733 521.374129 
L 498.157523 515.54978 
M 512.155105 516.478671 
L 519.153895 511.104318 
L 526.152686 510.674964 
L 533.151477 523.152093 
L 540.150267 510.339738 
L 547.149058 501.336521 
L 554.147849 502.952377 
L 561.14664 505.784461 
L 568.14543 489.761861 
L 575.144221 478.663618 
L 582.143012 495.921435 
L 589.141802 489.043519 
L 596.140593 455.945302 
L 603.139384 443.602759 
L 610.138174 482.208263 
L 617.136965 485.116309 
L 624.135756 492.061105 
L 631.134547 472.288265 
L 638.133337 446.708142 
L 645.132128 458.081336 
L 652.130919 436.47989 
L 659.129709 432.660019 
L 666.1285 426.246135 
L 673.127291 423.456987 
L 680.126081 432.227087 
L 687.124872 452.42983 
L 694.123663 444.686877 
L 701.122453 441.961581 
L 708.121244 438.149416 
L 715.120035 435.039629 
L 722.118826 417.158148 
L 729.117616 397.531729 
L 736.116407 395.964863 
L 743.115198 390.333174 
L 750.113988 387.663749 
L 757.112779 360.971435 
L 764.11157 327.250654 
L 771.11036 317.837625 
L 778.109151 301.863465 
L 785.107942 318.042944 
L 792.106733 333.466375 
L 799.105523 300.484854 
L 806.104314 360.943912 
L 813.103105 298.970832 
L 820.101895 284.135835 
L 827.100686 236.022348 
L 834.099477 225.219974 
L 841.098267 225.933361 
L 848.097058 224.846766 
L 855.095849 244.377406 
L 862.09464 280.83972 
L 869.09343 272.685302 
L 876.092221 252.928976 
L 883.091012 306.341404 
L 890.089802 327.914501 
L 897.088593 338.347246 
L 904.087384 283.122726 
L 911.086174 235.182356 
L 918.084965 234.728232 
L 925.083756 195.349891 
L 932.082547 171.37489 
L 939.081337 150.845177 
L 946.080128 166.415304 
L 953.078919 196.458229 
L 960.077709 173.094782 
L 967.0765 54.018483 
L 967.0765 54.018483 
" clip-path="url(#pfb444ec89a)" style="fill: none; stroke: #48b585; stroke-width: 6; stroke-linecap: square"/>
   </g>
   <g id="patch_3">
    <path d="M 64.2325 578.54175 
L 64.2325 24.14175 
" style="fill: none; stroke: #ffffff; stroke-linejoin: miter; stroke-linecap: square"/>
   </g>
   <g id="patch_4">
    <path d="M 967.0765 578.54175 
L 967.0765 24.14175 
" style="fill: none; stroke: #ffffff; stroke-linejoin: miter; stroke-linecap: square"/>
   </g>
   <g id="patch_5">
    <path d="M 64.2325 578.54175 
L 967.0765 578.54175 
" style="fill: none; stroke: #ffffff; stroke-linejoin: miter; stroke-linecap: square"/>
   </g>
   <g id="patch_6">
    <path d="M 64.2325 24.14175 
L 967.0765 24.14175 
" style="fill: none; stroke: #ffffff; stroke-linejoin: miter; stroke-linecap: square"/>
   </g>
   <g id="text_29">
    <!-- Potentially Ephemeral Enterprise Linux Instances by Distribution (2 Week Resample) -->
    <g transform="translate(64.2325 18.14175) scale(0.144 -0.144)">
     <defs>
      <path id="DejaVuSans-50" d="M 1259 4147 
L 1259 2394 
L 2053 2394 
Q 2494 2394 2734 2622 
Q 2975 2850 2975 3272 
Q 2975 3691 2734 3919 
Q 2494 4147 2053 4147 
L 1259 4147 
z
M 628 4666 
L 2053 4666 
Q 2838 4666 3239 4311 
Q 3641 3956 3641 3272 
Q 3641 2581 3239 2228 
Q 2838 1875 2053 1875 
L 1259 1875 
L 1259 0 
L 628 0 
L 628 4666 
z
" transform="scale(0.015625)"/>
      <path id="DejaVuSans-6f" d="M 1959 3097 
Q 1497 3097 1228 2736 
Q 959 2375 959 1747 
Q 959 1119 1226 758 
Q 1494 397 1959 397 
Q 2419 397 2687 759 
Q 2956 1122 2956 1747 
Q 2956 2369 2687 2733 
Q 2419 3097 1959 3097 
z
M 1959 3584 
Q 2709 3584 3137 3096 
Q 3566 2609 3566 1747 
Q 3566 888 3137 398 
Q 2709 -91 1959 -91 
Q 1206 -91 779 398 
Q 353 888 353 1747 
Q 353 2609 779 3096 
Q 1206 3584 1959 3584 
z
" transform="scale(0.015625)"/>
      <path id="DejaVuSans-69" d="M 603 3500 
L 1178 3500 
L 1178 0 
L 603 0 
L 603 3500 
z
M 603 4863 
L 1178 4863 
L 1178 4134 
L 603 4134 
L 603 4863 
z
" transform="scale(0.015625)"/>
      <path id="DejaVuSans-6c" d="M 603 4863 
L 1178 4863 
L 1178 0 
L 603 0 
L 603 4863 
z
" transform="scale(0.015625)"/>
      <path id="DejaVuSans-79" d="M 2059 -325 
Q 1816 -950 1584 -1140 
Q 1353 -1331 966 -1331 
L 506 -1331 
L 506 -850 
L 844 -850 
Q 1081 -850 1212 -737 
Q 1344 -625 1503 -206 
L 1606 56 
L 191 3500 
L 800 3500 
L 1894 763 
L 2988 3500 
L 3597 3500 
L 2059 -325 
z
" transform="scale(0.015625)"/>
      <path id="DejaVuSans-20" transform="scale(0.015625)"/>
      <path id="DejaVuSans-45" d="M 628 4666 
L 3578 4666 
L 3578 4134 
L 1259 4134 
L 1259 2753 
L 3481 2753 
L 3481 2222 
L 1259 2222 
L 1259 531 
L 3634 531 
L 3634 0 
L 628 0 
L 628 4666 
z
" transform="scale(0.015625)"/>
      <path id="DejaVuSans-70" d="M 1159 525 
L 1159 -1331 
L 581 -1331 
L 581 3500 
L 1159 3500 
L 1159 2969 
Q 1341 3281 1617 3432 
Q 1894 3584 2278 3584 
Q 2916 3584 3314 3078 
Q 3713 2572 3713 1747 
Q 3713 922 3314 415 
Q 2916 -91 2278 -91 
Q 1894 -91 1617 61 
Q 1341 213 1159 525 
z
M 3116 1747 
Q 3116 2381 2855 2742 
Q 2594 3103 2138 3103 
Q 1681 3103 1420 2742 
Q 1159 2381 1159 1747 
Q 1159 1113 1420 752 
Q 1681 391 2138 391 
Q 2594 391 2855 752 
Q 3116 1113 3116 1747 
z
" transform="scale(0.015625)"/>
      <path id="DejaVuSans-68" d="M 3513 2113 
L 3513 0 
L 2938 0 
L 2938 2094 
Q 2938 2591 2744 2837 
Q 2550 3084 2163 3084 
Q 1697 3084 1428 2787 
Q 1159 2491 1159 1978 
L 1159 0 
L 581 0 
L 581 4863 
L 1159 4863 
L 1159 2956 
Q 1366 3272 1645 3428 
Q 1925 3584 2291 3584 
Q 2894 3584 3203 3211 
Q 3513 2838 3513 2113 
z
" transform="scale(0.015625)"/>
      <path id="DejaVuSans-6d" d="M 3328 2828 
Q 3544 3216 3844 3400 
Q 4144 3584 4550 3584 
Q 5097 3584 5394 3201 
Q 5691 2819 5691 2113 
L 5691 0 
L 5113 0 
L 5113 2094 
Q 5113 2597 4934 2840 
Q 4756 3084 4391 3084 
Q 3944 3084 3684 2787 
Q 3425 2491 3425 1978 
L 3425 0 
L 2847 0 
L 2847 2094 
Q 2847 2600 2669 2842 
Q 2491 3084 2119 3084 
Q 1678 3084 1418 2786 
Q 1159 2488 1159 1978 
L 1159 0 
L 581 0 
L 581 3500 
L 1159 3500 
L 1159 2956 
Q 1356 3278 1631 3431 
Q 1906 3584 2284 3584 
Q 2666 3584 2933 3390 
Q 3200 3197 3328 2828 
z
" transform="scale(0.015625)"/>
      <path id="DejaVuSans-72" d="M 2631 2963 
Q 2534 3019 2420 3045 
Q 2306 3072 2169 3072 
Q 1681 3072 1420 2755 
Q 1159 2438 1159 1844 
L 1159 0 
L 581 0 
L 581 3500 
L 1159 3500 
L 1159 2956 
Q 1341 3275 1631 3429 
Q 1922 3584 2338 3584 
Q 2397 3584 2469 3576 
Q 2541 3569 2628 3553 
L 2631 2963 
z
" transform="scale(0.015625)"/>
      <path id="DejaVuSans-4c" d="M 628 4666 
L 1259 4666 
L 1259 531 
L 3531 531 
L 3531 0 
L 628 0 
L 628 4666 
z
" transform="scale(0.015625)"/>
      <path id="DejaVuSans-75" d="M 544 1381 
L 544 3500 
L 1119 3500 
L 1119 1403 
Q 1119 906 1312 657 
Q 1506 409 1894 409 
Q 2359 409 2629 706 
Q 2900 1003 2900 1516 
L 2900 3500 
L 3475 3500 
L 3475 0 
L 2900 0 
L 2900 538 
Q 2691 219 2414 64 
Q 2138 -91 1772 -91 
Q 1169 -91 856 284 
Q 544 659 544 1381 
z
M 1991 3584 
L 1991 3584 
z
" transform="scale(0.015625)"/>
      <path id="DejaVuSans-78" d="M 3513 3500 
L 2247 1797 
L 3578 0 
L 2900 0 
L 1881 1375 
L 863 0 
L 184 0 
L 1544 1831 
L 300 3500 
L 978 3500 
L 1906 2253 
L 2834 3500 
L 3513 3500 
z
" transform="scale(0.015625)"/>
      <path id="DejaVuSans-62" d="M 3116 1747 
Q 3116 2381 2855 2742 
Q 2594 3103 2138 3103 
Q 1681 3103 1420 2742 
Q 1159 2381 1159 1747 
Q 1159 1113 1420 752 
Q 1681 391 2138 391 
Q 2594 391 2855 752 
Q 3116 1113 3116 1747 
z
M 1159 2969 
Q 1341 3281 1617 3432 
Q 1894 3584 2278 3584 
Q 2916 3584 3314 3078 
Q 3713 2572 3713 1747 
Q 3713 922 3314 415 
Q 2916 -91 2278 -91 
Q 1894 -91 1617 61 
Q 1341 213 1159 525 
L 1159 0 
L 581 0 
L 581 4863 
L 1159 4863 
L 1159 2969 
z
" transform="scale(0.015625)"/>
      <path id="DejaVuSans-28" d="M 1984 4856 
Q 1566 4138 1362 3434 
Q 1159 2731 1159 2009 
Q 1159 1288 1364 580 
Q 1569 -128 1984 -844 
L 1484 -844 
Q 1016 -109 783 600 
Q 550 1309 550 2009 
Q 550 2706 781 3412 
Q 1013 4119 1484 4856 
L 1984 4856 
z
" transform="scale(0.015625)"/>
      <path id="DejaVuSans-57" d="M 213 4666 
L 850 4666 
L 1831 722 
L 2809 4666 
L 3519 4666 
L 4500 722 
L 5478 4666 
L 6119 4666 
L 4947 0 
L 4153 0 
L 3169 4050 
L 2175 0 
L 1381 0 
L 213 4666 
z
" transform="scale(0.015625)"/>
      <path id="DejaVuSans-52" d="M 2841 2188 
Q 3044 2119 3236 1894 
Q 3428 1669 3622 1275 
L 4263 0 
L 3584 0 
L 2988 1197 
Q 2756 1666 2539 1819 
Q 2322 1972 1947 1972 
L 1259 1972 
L 1259 0 
L 628 0 
L 628 4666 
L 2053 4666 
Q 2853 4666 3247 4331 
Q 3641 3997 3641 3322 
Q 3641 2881 3436 2590 
Q 3231 2300 2841 2188 
z
M 1259 4147 
L 1259 2491 
L 2053 2491 
Q 2509 2491 2742 2702 
Q 2975 2913 2975 3322 
Q 2975 3731 2742 3939 
Q 2509 4147 2053 4147 
L 1259 4147 
z
" transform="scale(0.015625)"/>
      <path id="DejaVuSans-29" d="M 513 4856 
L 1013 4856 
Q 1481 4119 1714 3412 
Q 1947 2706 1947 2009 
Q 1947 1309 1714 600 
Q 1481 -109 1013 -844 
L 513 -844 
Q 928 -128 1133 580 
Q 1338 1288 1338 2009 
Q 1338 2731 1133 3434 
Q 928 4138 513 4856 
z
" transform="scale(0.015625)"/>
     </defs>
     <use xlink:href="#DejaVuSans-50"/>
     <use xlink:href="#DejaVuSans-6f" x="56.677734"/>
     <use xlink:href="#DejaVuSans-74" x="117.859375"/>
     <use xlink:href="#DejaVuSans-65" x="157.068359"/>
     <use xlink:href="#DejaVuSans-6e" x="218.591797"/>
     <use xlink:href="#DejaVuSans-74" x="281.970703"/>
     <use xlink:href="#DejaVuSans-69" x="321.179688"/>
     <use xlink:href="#DejaVuSans-61" x="348.962891"/>
     <use xlink:href="#DejaVuSans-6c" x="410.242188"/>
     <use xlink:href="#DejaVuSans-6c" x="438.025391"/>
     <use xlink:href="#DejaVuSans-79" x="465.808594"/>
     <use xlink:href="#DejaVuSans-20" x="524.988281"/>
     <use xlink:href="#DejaVuSans-45" x="556.775391"/>
     <use xlink:href="#DejaVuSans-70" x="619.958984"/>
     <use xlink:href="#DejaVuSans-68" x="683.435547"/>
     <use xlink:href="#DejaVuSans-65" x="746.814453"/>
     <use xlink:href="#DejaVuSans-6d" x="808.337891"/>
     <use xlink:href="#DejaVuSans-65" x="905.75"/>
     <use xlink:href="#DejaVuSans-72" x="967.273438"/>
     <use xlink:href="#DejaVuSans-61" x="1008.386719"/>
     <use xlink:href="#DejaVuSans-6c" x="1069.666016"/>
     <use xlink:href="#DejaVuSans-20" x="1097.449219"/>
     <use xlink:href="#DejaVuSans-45" x="1129.236328"/>
     <use xlink:href="#DejaVuSans-6e" x="1192.419922"/>
     <use xlink:href="#DejaVuSans-74" x="1255.798828"/>
     <use xlink:href="#DejaVuSans-65" x="1295.007812"/>
     <use xlink:href="#DejaVuSans-72" x="1356.53125"/>
     <use xlink:href="#DejaVuSans-70" x="1397.644531"/>
     <use xlink:href="#DejaVuSans-72" x="1461.121094"/>
     <use xlink:href="#DejaVuSans-69" x="1502.234375"/>
     <use xlink:href="#DejaVuSans-73" x="1530.017578"/>
     <use xlink:href="#DejaVuSans-65" x="1582.117188"/>
     <use xlink:href="#DejaVuSans-20" x="1643.640625"/>
     <use xlink:href="#DejaVuSans-4c" x="1675.427734"/>
     <use xlink:href="#DejaVuSans-69" x="1731.140625"/>
     <use xlink:href="#DejaVuSans-6e" x="1758.923828"/>
     <use xlink:href="#DejaVuSans-75" x="1822.302734"/>
     <use xlink:href="#DejaVuSans-78" x="1885.681641"/>
     <use xlink:href="#DejaVuSans-20" x="1944.861328"/>
     <use xlink:href="#DejaVuSans-49" x="1976.648438"/>
     <use xlink:href="#DejaVuSans-6e" x="2006.140625"/>
     <use xlink:href="#DejaVuSans-73" x="2069.519531"/>
     <use xlink:href="#DejaVuSans-74" x="2121.619141"/>
     <use xlink:href="#DejaVuSans-61" x="2160.828125"/>
     <use xlink:href="#DejaVuSans-6e" x="2222.107422"/>
     <use xlink:href="#DejaVuSans-63" x="2285.486328"/>
     <use xlink:href="#DejaVuSans-65" x="2340.466797"/>
     <use xlink:href="#DejaVuSans-73" x="2401.990234"/>
     <use xlink:href="#DejaVuSans-20" x="2454.089844"/>
     <use xlink:href="#DejaVuSans-62" x="2485.876953"/>
     <use xlink:href="#DejaVuSans-79" x="2549.353516"/>
     <use xlink:href="#DejaVuSans-20" x="2608.533203"/>
     <use xlink:href="#DejaVuSans-44" x="2640.320312"/>
     <use xlink:href="#DejaVuSans-69" x="2717.322266"/>
     <use xlink:href="#DejaVuSans-73" x="2745.105469"/>
     <use xlink:href="#DejaVuSans-74" x="2797.205078"/>
     <use xlink:href="#DejaVuSans-72" x="2836.414062"/>
     <use xlink:href="#DejaVuSans-69" x="2877.527344"/>
     <use xlink:href="#DejaVuSans-62" x="2905.310547"/>
     <use xlink:href="#DejaVuSans-75" x="2968.787109"/>
     <use xlink:href="#DejaVuSans-74" x="3032.166016"/>
     <use xlink:href="#DejaVuSans-69" x="3071.375"/>
     <use xlink:href="#DejaVuSans-6f" x="3099.158203"/>
     <use xlink:href="#DejaVuSans-6e" x="3160.339844"/>
     <use xlink:href="#DejaVuSans-20" x="3223.71875"/>
     <use xlink:href="#DejaVuSans-28" x="3255.505859"/>
     <use xlink:href="#DejaVuSans-32" x="3294.519531"/>
     <use xlink:href="#DejaVuSans-20" x="3358.142578"/>
     <use xlink:href="#DejaVuSans-57" x="3389.929688"/>
     <use xlink:href="#DejaVuSans-65" x="3482.931641"/>
     <use xlink:href="#DejaVuSans-65" x="3544.455078"/>
     <use xlink:href="#DejaVuSans-6b" x="3605.978516"/>
     <use xlink:href="#DejaVuSans-20" x="3663.888672"/>
     <use xlink:href="#DejaVuSans-52" x="3695.675781"/>
     <use xlink:href="#DejaVuSans-65" x="3760.658203"/>
     <use xlink:href="#DejaVuSans-73" x="3822.181641"/>
     <use xlink:href="#DejaVuSans-61" x="3874.28125"/>
     <use xlink:href="#DejaVuSans-6d" x="3935.560547"/>
     <use xlink:href="#DejaVuSans-70" x="4032.972656"/>
     <use xlink:href="#DejaVuSans-6c" x="4096.449219"/>
     <use xlink:href="#DejaVuSans-65" x="4124.232422"/>
     <use xlink:href="#DejaVuSans-29" x="4185.755859"/>
    </g>
   </g>
   <g id="text_30">
    <!-- 2025-11-27 11:55 UTC -->
    <g transform="translate(804.1945 18.14175) scale(0.144 -0.144)">
     <defs>
      <path id="DejaVuSans-3a" d="M 750 794 
L 1409 794 
L 1409 0 
L 750 0 
L 750 794 
z
M 750 3309 
L 1409 3309 
L 1409 2516 
L 750 2516 
L 750 3309 
z
" transform="scale(0.015625)"/>
      <path id="DejaVuSans-55" d="M 556 4666 
L 1191 4666 
L 1191 1831 
Q 1191 1081 1462 751 
Q 1734 422 2344 422 
Q 2950 422 3222 751 
Q 3494 1081 3494 1831 
L 3494 4666 
L 4128 4666 
L 4128 1753 
Q 4128 841 3676 375 
Q 3225 -91 2344 -91 
Q 1459 -91 1007 375 
Q 556 841 556 1753 
L 556 4666 
z
" transform="scale(0.015625)"/>
      <path id="DejaVuSans-54" d="M -19 4666 
L 3928 4666 
L 3928 4134 
L 2272 4134 
L 2272 0 
L 1638 0 
L 1638 4134 
L -19 4134 
L -19 4666 
z
" transform="scale(0.015625)"/>
      <path id="DejaVuSans-43" d="M 4122 4306 
L 4122 3641 
Q 3803 3938 3442 4084 
Q 3081 4231 2675 4231 
Q 1875 4231 1450 3742 
Q 1025 3253 1025 2328 
Q 1025 1406 1450 917 
Q 1875 428 2675 428 
Q 3081 428 3442 575 
Q 3803 722 4122 1019 
L 4122 359 
Q 3791 134 3420 21 
Q 3050 -91 2638 -91 
Q 1578 -91 968 557 
Q 359 1206 359 2328 
Q 359 3453 968 4101 
Q 1578 4750 2638 4750 
Q 3056 4750 3426 4639 
Q 3797 4528 4122 4306 
z
" transform="scale(0.015625)"/>
     </defs>
     <use xlink:href="#DejaVuSans-32"/>
     <use xlink:href="#DejaVuSans-30" x="63.623047"/>
     <use xlink:href="#DejaVuSans-32" x="127.246094"/>
     <use xlink:href="#DejaVuSans-35" x="190.869141"/>
     <use xlink:href="#DejaVuSans-2d" x="254.492188"/>
     <use xlink:href="#DejaVuSans-31" x="290.576172"/>
     <use xlink:href="#DejaVuSans-31" x="354.199219"/>
     <use xlink:href="#DejaVuSans-2d" x="417.822266"/>
     <use xlink:href="#DejaVuSans-32" x="453.90625"/>
     <use xlink:href="#DejaVuSans-37" x="517.529297"/>
     <use xlink:href="#DejaVuSans-20" x="581.152344"/>
     <use xlink:href="#DejaVuSans-31" x="612.939453"/>
     <use xlink:href="#DejaVuSans-31" x="676.5625"/>
     <use xlink:href="#DejaVuSans-3a" x="740.185547"/>
     <use xlink:href="#DejaVuSans-35" x="773.876953"/>
     <use xlink:href="#DejaVuSans-35" x="837.5"/>
     <use xlink:href="#DejaVuSans-20" x="901.123047"/>
     <use xlink:href="#DejaVuSans-55" x="932.910156"/>
     <use xlink:href="#DejaVuSans-54" x="1006.103516"/>
     <use xlink:href="#DejaVuSans-43" x="1061.3125"/>
    </g>
   </g>
   <g id="legend_1">
    <g id="patch_7">
     <path d="M 851.10775 134.888625 
L 960.0765 134.888625 
Q 962.0765 134.888625 962.0765 132.888625 
L 962.0765 31.14175 
Q 962.0765 29.14175 960.0765 29.14175 
L 851.10775 29.14175 
Q 849.10775 29.14175 849.10775 31.14175 
L 849.10775 132.888625 
Q 849.10775 134.888625 851.10775 134.888625 
z
" style="fill: #e5e5e5; opacity: 0.8; stroke: #cccccc; stroke-width: 0.5; stroke-linejoin: miter"/>
    </g>
    <g id="text_31">
     <!-- Distribution -->
     <g transform="translate(876.423375 40.740188) scale(0.1 -0.1)">
      <use xlink:href="#DejaVuSans-44"/>
      <use xlink:href="#DejaVuSans-69" x="77.001953"/>
      <use xlink:href="#DejaVuSans-73" x="104.785156"/>
      <use xlink:href="#DejaVuSans-74" x="156.884766"/>
      <use xlink:href="#DejaVuSans-72" x="196.09375"/>
      <use xlink:href="#DejaVuSans-69" x="237.207031"/>
      <use xlink:href="#DejaVuSans-62" x="264.990234"/>
      <use xlink:href="#DejaVuSans-75" x="328.466797"/>
      <use xlink:href="#DejaVuSans-74" x="391.845703"/>
      <use xlink:href="#DejaVuSans-69" x="431.054688"/>
      <use xlink:href="#DejaVuSans-6f" x="458.837891"/>
      <use xlink:href="#DejaVuSans-6e" x="520.019531"/>
     </g>
    </g>
    <g id="line2d_65">
     <path d="M 853.10775 51.918313 
L 863.10775 51.918313 
L 873.10775 51.918313 
" style="fill: none; stroke: #4ac1fa; stroke-width: 1.5; stroke-linecap: square"/>
    </g>
    <g id="text_32">
     <!-- AlmaLinux -->
     <g transform="translate(881.10775 55.418313) scale(0.1 -0.1)">
      <defs>
       <path id="DejaVuSans-41" d="M 2188 4044 
L 1331 1722 
L 3047 1722 
L 2188 4044 
z
M 1831 4666 
L 2547 4666 
L 4325 0 
L 3669 0 
L 3244 1197 
L 1141 1197 
L 716 0 
L 50 0 
L 1831 4666 
z
" transform="scale(0.015625)"/>
      </defs>
      <use xlink:href="#DejaVuSans-41"/>
      <use xlink:href="#DejaVuSans-6c" x="68.408203"/>
      <use xlink:href="#DejaVuSans-6d" x="96.191406"/>
      <use xlink:href="#DejaVuSans-61" x="193.603516"/>
      <use xlink:href="#DejaVuSans-4c" x="254.882812"/>
      <use xlink:href="#DejaVuSans-69" x="310.595703"/>
      <use xlink:href="#DejaVuSans-6e" x="338.378906"/>
      <use xlink:href="#DejaVuSans-75" x="401.757812"/>
      <use xlink:href="#DejaVuSans-78" x="465.136719"/>
     </g>
    </g>
    <g id="line2d_66">
     <path d="M 853.10775 66.596438 
L 863.10775 66.596438 
L 873.10775 66.596438 
" style="fill: none; stroke: #e9a942; stroke-width: 1.5; stroke-linecap: square"/>
    </g>
    <g id="text_33">
     <!-- CentOS Legacy -->
     <g transform="translate(881.10775 70.096438) scale(0.1 -0.1)">
      <defs>
       <path id="DejaVuSans-4f" d="M 2522 4238 
Q 1834 4238 1429 3725 
Q 1025 3213 1025 2328 
Q 1025 1447 1429 934 
Q 1834 422 2522 422 
Q 3209 422 3611 934 
Q 4013 1447 4013 2328 
Q 4013 3213 3611 3725 
Q 3209 4238 2522 4238 
z
M 2522 4750 
Q 3503 4750 4090 4092 
Q 4678 3434 4678 2328 
Q 4678 1225 4090 567 
Q 3503 -91 2522 -91 
Q 1538 -91 948 565 
Q 359 1222 359 2328 
Q 359 3434 948 4092 
Q 1538 4750 2522 4750 
z
" transform="scale(0.015625)"/>
       <path id="DejaVuSans-53" d="M 3425 4513 
L 3425 3897 
Q 3066 4069 2747 4153 
Q 2428 4238 2131 4238 
Q 1616 4238 1336 4038 
Q 1056 3838 1056 3469 
Q 1056 3159 1242 3001 
Q 1428 2844 1947 2747 
L 2328 2669 
Q 3034 2534 3370 2195 
Q 3706 1856 3706 1288 
Q 3706 609 3251 259 
Q 2797 -91 1919 -91 
Q 1588 -91 1214 -16 
Q 841 59 441 206 
L 441 856 
Q 825 641 1194 531 
Q 1563 422 1919 422 
Q 2459 422 2753 634 
Q 3047 847 3047 1241 
Q 3047 1584 2836 1778 
Q 2625 1972 2144 2069 
L 1759 2144 
Q 1053 2284 737 2584 
Q 422 2884 422 3419 
Q 422 4038 858 4394 
Q 1294 4750 2059 4750 
Q 2388 4750 2728 4690 
Q 3069 4631 3425 4513 
z
" transform="scale(0.015625)"/>
       <path id="DejaVuSans-67" d="M 2906 1791 
Q 2906 2416 2648 2759 
Q 2391 3103 1925 3103 
Q 1463 3103 1205 2759 
Q 947 2416 947 1791 
Q 947 1169 1205 825 
Q 1463 481 1925 481 
Q 2391 481 2648 825 
Q 2906 1169 2906 1791 
z
M 3481 434 
Q 3481 -459 3084 -895 
Q 2688 -1331 1869 -1331 
Q 1566 -1331 1297 -1286 
Q 1028 -1241 775 -1147 
L 775 -588 
Q 1028 -725 1275 -790 
Q 1522 -856 1778 -856 
Q 2344 -856 2625 -561 
Q 2906 -266 2906 331 
L 2906 616 
Q 2728 306 2450 153 
Q 2172 0 1784 0 
Q 1141 0 747 490 
Q 353 981 353 1791 
Q 353 2603 747 3093 
Q 1141 3584 1784 3584 
Q 2172 3584 2450 3431 
Q 2728 3278 2906 2969 
L 2906 3500 
L 3481 3500 
L 3481 434 
z
" transform="scale(0.015625)"/>
      </defs>
      <use xlink:href="#DejaVuSans-43"/>
      <use xlink:href="#DejaVuSans-65" x="69.824219"/>
      <use xlink:href="#DejaVuSans-6e" x="131.347656"/>
      <use xlink:href="#DejaVuSans-74" x="194.726562"/>
      <use xlink:href="#DejaVuSans-4f" x="233.935547"/>
      <use xlink:href="#DejaVuSans-53" x="312.646484"/>
      <use xlink:href="#DejaVuSans-20" x="376.123047"/>
      <use xlink:href="#DejaVuSans-4c" x="407.910156"/>
      <use xlink:href="#DejaVuSans-65" x="461.873047"/>
      <use xlink:href="#DejaVuSans-67" x="523.396484"/>
      <use xlink:href="#DejaVuSans-61" x="586.873047"/>
      <use xlink:href="#DejaVuSans-63" x="648.152344"/>
      <use xlink:href="#DejaVuSans-79" x="703.132812"/>
     </g>
    </g>
    <g id="line2d_67">
     <path d="M 853.10775 81.274563 
L 863.10775 81.274563 
L 873.10775 81.274563 
" style="fill: none; stroke: #9a5689; stroke-width: 1.5; stroke-linecap: square"/>
    </g>
    <g id="text_34">
     <!-- CentOS Stream -->
     <g transform="translate(881.10775 84.774563) scale(0.1 -0.1)">
      <use xlink:href="#DejaVuSans-43"/>
      <use xlink:href="#DejaVuSans-65" x="69.824219"/>
      <use xlink:href="#DejaVuSans-6e" x="131.347656"/>
      <use xlink:href="#DejaVuSans-74" x="194.726562"/>
      <use xlink:href="#DejaVuSans-4f" x="233.935547"/>
      <use xlink:href="#DejaVuSans-53" x="312.646484"/>
      <use xlink:href="#DejaVuSans-20" x="376.123047"/>
      <use xlink:href="#DejaVuSans-53" x="407.910156"/>
      <use xlink:href="#DejaVuSans-74" x="471.386719"/>
      <use xlink:href="#DejaVuSans-72" x="510.595703"/>
      <use xlink:href="#DejaVuSans-65" x="549.458984"/>
      <use xlink:href="#DejaVuSans-61" x="610.982422"/>
      <use xlink:href="#DejaVuSans-6d" x="672.261719"/>
     </g>
    </g>
    <g id="line2d_68">
     <path d="M 853.10775 95.952688 
L 863.10775 95.952688 
L 873.10775 95.952688 
" style="fill: none; stroke: #be503b; stroke-width: 1.5; stroke-linecap: square"/>
    </g>
    <g id="text_35">
     <!-- Oracle -->
     <g transform="translate(881.10775 99.452688) scale(0.1 -0.1)">
      <use xlink:href="#DejaVuSans-4f"/>
      <use xlink:href="#DejaVuSans-72" x="78.710938"/>
      <use xlink:href="#DejaVuSans-61" x="119.824219"/>
      <use xlink:href="#DejaVuSans-63" x="181.103516"/>
      <use xlink:href="#DejaVuSans-6c" x="236.083984"/>
      <use xlink:href="#DejaVuSans-65" x="263.867188"/>
     </g>
    </g>
    <g id="line2d_69">
     <path d="M 853.10775 110.630813 
L 863.10775 110.630813 
L 873.10775 110.630813 
" style="fill: none; stroke: #e2321d; stroke-width: 1.5; stroke-linecap: square"/>
    </g>
    <g id="text_36">
     <!-- RHEL -->
     <g transform="translate(881.10775 114.130813) scale(0.1 -0.1)">
      <defs>
       <path id="DejaVuSans-48" d="M 628 4666 
L 1259 4666 
L 1259 2753 
L 3553 2753 
L 3553 4666 
L 4184 4666 
L 4184 0 
L 3553 0 
L 3553 2222 
L 1259 2222 
L 1259 0 
L 628 0 
L 628 4666 
z
" transform="scale(0.015625)"/>
      </defs>
      <use xlink:href="#DejaVuSans-52"/>
      <use xlink:href="#DejaVuSans-48" x="69.482422"/>
      <use xlink:href="#DejaVuSans-45" x="144.677734"/>
      <use xlink:href="#DejaVuSans-4c" x="207.861328"/>
     </g>
    </g>
    <g id="line2d_70">
     <path d="M 853.10775 125.308938 
L 863.10775 125.308938 
L 873.10775 125.308938 
" style="fill: none; stroke: #48b585; stroke-width: 6; stroke-linecap: square"/>
    </g>
    <g id="text_37">
     <!-- Rocky Linux -->
     <g transform="translate(881.10775 128.808938) scale(0.1 -0.1)">
      <use xlink:href="#DejaVuSans-52"/>
      <use xlink:href="#DejaVuSans-6f" x="64.982422"/>
      <use xlink:href="#DejaVuSans-63" x="126.164062"/>
      <use xlink:href="#DejaVuSans-6b" x="181.144531"/>
      <use xlink:href="#DejaVuSans-79" x="235.429688"/>
      <use xlink:href="#DejaVuSans-20" x="294.609375"/>
      <use xlink:href="#DejaVuSans-4c" x="326.396484"/>
      <use xlink:href="#DejaVuSans-69" x="382.109375"/>
      <use xlink:href="#DejaVuSans-6e" x="409.892578"/>
      <use xlink:href="#DejaVuSans-75" x="473.271484"/>
      <use xlink:href="#DejaVuSans-78" x="536.650391"/>
     </g>
    </g>
   </g>
  </g>
 </g>
 <defs>
  <clipPath id="pfb444ec89a">
   <rect x="64.2325" y="24.14175" width="902.844" height="554.4"/>
  </clipPath>
 </defs>
</svg>
