<?xml version="1.0" encoding="utf-8" standalone="no"?>
<!DOCTYPE svg PUBLIC "-//W3C//DTD SVG 1.1//EN"
  "http://www.w3.org/Graphics/SVG/1.1/DTD/svg11.dtd">
<svg xmlns:xlink="http://www.w3.org/1999/xlink" width="980.317564pt" height="633.943878pt" viewBox="0 0 980.317564 633.943878" xmlns="http://www.w3.org/2000/svg" version="1.1">
 <metadata>
  <rdf:RDF xmlns:dc="http://purl.org/dc/elements/1.1/" xmlns:cc="http://creativecommons.org/ns#" xmlns:rdf="http://www.w3.org/1999/02/22-rdf-syntax-ns#">
   <cc:Work>
    <dc:type rdf:resource="http://purl.org/dc/dcmitype/StillImage"/>
    <dc:date>2024-08-29T11:54:53.609263</dc:date>
    <dc:format>image/svg+xml</dc:format>
    <dc:creator>
     <cc:Agent>
      <dc:title>Matplotlib v3.5.1, https://matplotlib.org/</dc:title>
     </cc:Agent>
    </dc:creator>
   </cc:Work>
  </rdf:RDF>
 </metadata>
 <defs>
  <style type="text/css">*{stroke-linejoin: round; stroke-linecap: butt}</style>
 </defs>
 <g id="figure_1">
  <g id="patch_1">
   <path d="M 0 633.943878 
L 980.317564 633.943878 
L 980.317564 0 
L 0 0 
z
" style="fill: #ffffff"/>
  </g>
  <g id="axes_1">
   <g id="patch_2">
    <path d="M 52.079375 567.74175 
L 954.923375 567.74175 
L 954.923375 24.14175 
L 52.079375 24.14175 
z
" style="fill: #e5e5e5"/>
   </g>
   <g id="matplotlib.axis_1">
    <g id="xtick_1">
     <g id="line2d_1">
      <path d="M 90.772689 567.74175 
L 90.772689 24.14175 
" clip-path="url(#p004b235f59)" style="fill: none; stroke: #ffffff; stroke-width: 0.8; stroke-linecap: square"/>
     </g>
     <g id="line2d_2">
      <defs>
       <path id="m34482b4ea1" d="M 0 0 
L 0 3.5 
" style="stroke: #555555; stroke-width: 0.8"/>
      </defs>
      <g>
       <use xlink:href="#m34482b4ea1" x="90.772689" y="567.74175" style="fill: #555555; stroke: #555555; stroke-width: 0.8"/>
      </g>
     </g>
     <g id="text_1">
      <!-- 2023-09 -->
      <g style="fill: #555555" transform="translate(77.951407 609.659567)rotate(-45)scale(0.1 -0.1)">
       <defs>
        <path id="DejaVuSans-32" d="M 1228 531 
L 3431 531 
L 3431 0 
L 469 0 
L 469 531 
Q 828 903 1448 1529 
Q 2069 2156 2228 2338 
Q 2531 2678 2651 2914 
Q 2772 3150 2772 3378 
Q 2772 3750 2511 3984 
Q 2250 4219 1831 4219 
Q 1534 4219 1204 4116 
Q 875 4013 500 3803 
L 500 4441 
Q 881 4594 1212 4672 
Q 1544 4750 1819 4750 
Q 2544 4750 2975 4387 
Q 3406 4025 3406 3419 
Q 3406 3131 3298 2873 
Q 3191 2616 2906 2266 
Q 2828 2175 2409 1742 
Q 1991 1309 1228 531 
z
" transform="scale(0.015625)"/>
        <path id="DejaVuSans-30" d="M 2034 4250 
Q 1547 4250 1301 3770 
Q 1056 3291 1056 2328 
Q 1056 1369 1301 889 
Q 1547 409 2034 409 
Q 2525 409 2770 889 
Q 3016 1369 3016 2328 
Q 3016 3291 2770 3770 
Q 2525 4250 2034 4250 
z
M 2034 4750 
Q 2819 4750 3233 4129 
Q 3647 3509 3647 2328 
Q 3647 1150 3233 529 
Q 2819 -91 2034 -91 
Q 1250 -91 836 529 
Q 422 1150 422 2328 
Q 422 3509 836 4129 
Q 1250 4750 2034 4750 
z
" transform="scale(0.015625)"/>
        <path id="DejaVuSans-33" d="M 2597 2516 
Q 3050 2419 3304 2112 
Q 3559 1806 3559 1356 
Q 3559 666 3084 287 
Q 2609 -91 1734 -91 
Q 1441 -91 1130 -33 
Q 819 25 488 141 
L 488 750 
Q 750 597 1062 519 
Q 1375 441 1716 441 
Q 2309 441 2620 675 
Q 2931 909 2931 1356 
Q 2931 1769 2642 2001 
Q 2353 2234 1838 2234 
L 1294 2234 
L 1294 2753 
L 1863 2753 
Q 2328 2753 2575 2939 
Q 2822 3125 2822 3475 
Q 2822 3834 2567 4026 
Q 2313 4219 1838 4219 
Q 1578 4219 1281 4162 
Q 984 4106 628 3988 
L 628 4550 
Q 988 4650 1302 4700 
Q 1616 4750 1894 4750 
Q 2613 4750 3031 4423 
Q 3450 4097 3450 3541 
Q 3450 3153 3228 2886 
Q 3006 2619 2597 2516 
z
" transform="scale(0.015625)"/>
        <path id="DejaVuSans-2d" d="M 313 2009 
L 1997 2009 
L 1997 1497 
L 313 1497 
L 313 2009 
z
" transform="scale(0.015625)"/>
        <path id="DejaVuSans-39" d="M 703 97 
L 703 672 
Q 941 559 1184 500 
Q 1428 441 1663 441 
Q 2288 441 2617 861 
Q 2947 1281 2994 2138 
Q 2813 1869 2534 1725 
Q 2256 1581 1919 1581 
Q 1219 1581 811 2004 
Q 403 2428 403 3163 
Q 403 3881 828 4315 
Q 1253 4750 1959 4750 
Q 2769 4750 3195 4129 
Q 3622 3509 3622 2328 
Q 3622 1225 3098 567 
Q 2575 -91 1691 -91 
Q 1453 -91 1209 -44 
Q 966 3 703 97 
z
M 1959 2075 
Q 2384 2075 2632 2365 
Q 2881 2656 2881 3163 
Q 2881 3666 2632 3958 
Q 2384 4250 1959 4250 
Q 1534 4250 1286 3958 
Q 1038 3666 1038 3163 
Q 1038 2656 1286 2365 
Q 1534 2075 1959 2075 
z
" transform="scale(0.015625)"/>
       </defs>
       <use xlink:href="#DejaVuSans-32"/>
       <use xlink:href="#DejaVuSans-30" x="63.623047"/>
       <use xlink:href="#DejaVuSans-32" x="127.246094"/>
       <use xlink:href="#DejaVuSans-33" x="190.869141"/>
       <use xlink:href="#DejaVuSans-2d" x="254.492188"/>
       <use xlink:href="#DejaVuSans-30" x="290.576172"/>
       <use xlink:href="#DejaVuSans-39" x="354.199219"/>
      </g>
     </g>
    </g>
    <g id="xtick_2">
     <g id="line2d_3">
      <path d="M 168.159318 567.74175 
L 168.159318 24.14175 
" clip-path="url(#p004b235f59)" style="fill: none; stroke: #ffffff; stroke-width: 0.8; stroke-linecap: square"/>
     </g>
     <g id="line2d_4">
      <g>
       <use xlink:href="#m34482b4ea1" x="168.159318" y="567.74175" style="fill: #555555; stroke: #555555; stroke-width: 0.8"/>
      </g>
     </g>
     <g id="text_2">
      <!-- 2023-10 -->
      <g style="fill: #555555" transform="translate(155.338036 609.659567)rotate(-45)scale(0.1 -0.1)">
       <defs>
        <path id="DejaVuSans-31" d="M 794 531 
L 1825 531 
L 1825 4091 
L 703 3866 
L 703 4441 
L 1819 4666 
L 2450 4666 
L 2450 531 
L 3481 531 
L 3481 0 
L 794 0 
L 794 531 
z
" transform="scale(0.015625)"/>
       </defs>
       <use xlink:href="#DejaVuSans-32"/>
       <use xlink:href="#DejaVuSans-30" x="63.623047"/>
       <use xlink:href="#DejaVuSans-32" x="127.246094"/>
       <use xlink:href="#DejaVuSans-33" x="190.869141"/>
       <use xlink:href="#DejaVuSans-2d" x="254.492188"/>
       <use xlink:href="#DejaVuSans-31" x="290.576172"/>
       <use xlink:href="#DejaVuSans-30" x="354.199219"/>
      </g>
     </g>
    </g>
    <g id="xtick_3">
     <g id="line2d_5">
      <path d="M 248.125501 567.74175 
L 248.125501 24.14175 
" clip-path="url(#p004b235f59)" style="fill: none; stroke: #ffffff; stroke-width: 0.8; stroke-linecap: square"/>
     </g>
     <g id="line2d_6">
      <g>
       <use xlink:href="#m34482b4ea1" x="248.125501" y="567.74175" style="fill: #555555; stroke: #555555; stroke-width: 0.8"/>
      </g>
     </g>
     <g id="text_3">
      <!-- 2023-11 -->
      <g style="fill: #555555" transform="translate(235.304218 609.659567)rotate(-45)scale(0.1 -0.1)">
       <use xlink:href="#DejaVuSans-32"/>
       <use xlink:href="#DejaVuSans-30" x="63.623047"/>
       <use xlink:href="#DejaVuSans-32" x="127.246094"/>
       <use xlink:href="#DejaVuSans-33" x="190.869141"/>
       <use xlink:href="#DejaVuSans-2d" x="254.492188"/>
       <use xlink:href="#DejaVuSans-31" x="290.576172"/>
       <use xlink:href="#DejaVuSans-31" x="354.199219"/>
      </g>
     </g>
    </g>
    <g id="xtick_4">
     <g id="line2d_7">
      <path d="M 325.512129 567.74175 
L 325.512129 24.14175 
" clip-path="url(#p004b235f59)" style="fill: none; stroke: #ffffff; stroke-width: 0.8; stroke-linecap: square"/>
     </g>
     <g id="line2d_8">
      <g>
       <use xlink:href="#m34482b4ea1" x="325.512129" y="567.74175" style="fill: #555555; stroke: #555555; stroke-width: 0.8"/>
      </g>
     </g>
     <g id="text_4">
      <!-- 2023-12 -->
      <g style="fill: #555555" transform="translate(312.690847 609.659567)rotate(-45)scale(0.1 -0.1)">
       <use xlink:href="#DejaVuSans-32"/>
       <use xlink:href="#DejaVuSans-30" x="63.623047"/>
       <use xlink:href="#DejaVuSans-32" x="127.246094"/>
       <use xlink:href="#DejaVuSans-33" x="190.869141"/>
       <use xlink:href="#DejaVuSans-2d" x="254.492188"/>
       <use xlink:href="#DejaVuSans-31" x="290.576172"/>
       <use xlink:href="#DejaVuSans-32" x="354.199219"/>
      </g>
     </g>
    </g>
    <g id="xtick_5">
     <g id="line2d_9">
      <path d="M 405.478312 567.74175 
L 405.478312 24.14175 
" clip-path="url(#p004b235f59)" style="fill: none; stroke: #ffffff; stroke-width: 0.8; stroke-linecap: square"/>
     </g>
     <g id="line2d_10">
      <g>
       <use xlink:href="#m34482b4ea1" x="405.478312" y="567.74175" style="fill: #555555; stroke: #555555; stroke-width: 0.8"/>
      </g>
     </g>
     <g id="text_5">
      <!-- 2024-01 -->
      <g style="fill: #555555" transform="translate(392.65703 609.659567)rotate(-45)scale(0.1 -0.1)">
       <defs>
        <path id="DejaVuSans-34" d="M 2419 4116 
L 825 1625 
L 2419 1625 
L 2419 4116 
z
M 2253 4666 
L 3047 4666 
L 3047 1625 
L 3713 1625 
L 3713 1100 
L 3047 1100 
L 3047 0 
L 2419 0 
L 2419 1100 
L 313 1100 
L 313 1709 
L 2253 4666 
z
" transform="scale(0.015625)"/>
       </defs>
       <use xlink:href="#DejaVuSans-32"/>
       <use xlink:href="#DejaVuSans-30" x="63.623047"/>
       <use xlink:href="#DejaVuSans-32" x="127.246094"/>
       <use xlink:href="#DejaVuSans-34" x="190.869141"/>
       <use xlink:href="#DejaVuSans-2d" x="254.492188"/>
       <use xlink:href="#DejaVuSans-30" x="290.576172"/>
       <use xlink:href="#DejaVuSans-31" x="354.199219"/>
      </g>
     </g>
    </g>
    <g id="xtick_6">
     <g id="line2d_11">
      <path d="M 485.444495 567.74175 
L 485.444495 24.14175 
" clip-path="url(#p004b235f59)" style="fill: none; stroke: #ffffff; stroke-width: 0.8; stroke-linecap: square"/>
     </g>
     <g id="line2d_12">
      <g>
       <use xlink:href="#m34482b4ea1" x="485.444495" y="567.74175" style="fill: #555555; stroke: #555555; stroke-width: 0.8"/>
      </g>
     </g>
     <g id="text_6">
      <!-- 2024-02 -->
      <g style="fill: #555555" transform="translate(472.623213 609.659567)rotate(-45)scale(0.1 -0.1)">
       <use xlink:href="#DejaVuSans-32"/>
       <use xlink:href="#DejaVuSans-30" x="63.623047"/>
       <use xlink:href="#DejaVuSans-32" x="127.246094"/>
       <use xlink:href="#DejaVuSans-34" x="190.869141"/>
       <use xlink:href="#DejaVuSans-2d" x="254.492188"/>
       <use xlink:href="#DejaVuSans-30" x="290.576172"/>
       <use xlink:href="#DejaVuSans-32" x="354.199219"/>
      </g>
     </g>
    </g>
    <g id="xtick_7">
     <g id="line2d_13">
      <path d="M 560.251569 567.74175 
L 560.251569 24.14175 
" clip-path="url(#p004b235f59)" style="fill: none; stroke: #ffffff; stroke-width: 0.8; stroke-linecap: square"/>
     </g>
     <g id="line2d_14">
      <g>
       <use xlink:href="#m34482b4ea1" x="560.251569" y="567.74175" style="fill: #555555; stroke: #555555; stroke-width: 0.8"/>
      </g>
     </g>
     <g id="text_7">
      <!-- 2024-03 -->
      <g style="fill: #555555" transform="translate(547.430287 609.659567)rotate(-45)scale(0.1 -0.1)">
       <use xlink:href="#DejaVuSans-32"/>
       <use xlink:href="#DejaVuSans-30" x="63.623047"/>
       <use xlink:href="#DejaVuSans-32" x="127.246094"/>
       <use xlink:href="#DejaVuSans-34" x="190.869141"/>
       <use xlink:href="#DejaVuSans-2d" x="254.492188"/>
       <use xlink:href="#DejaVuSans-30" x="290.576172"/>
       <use xlink:href="#DejaVuSans-33" x="354.199219"/>
      </g>
     </g>
    </g>
    <g id="xtick_8">
     <g id="line2d_15">
      <path d="M 640.217752 567.74175 
L 640.217752 24.14175 
" clip-path="url(#p004b235f59)" style="fill: none; stroke: #ffffff; stroke-width: 0.8; stroke-linecap: square"/>
     </g>
     <g id="line2d_16">
      <g>
       <use xlink:href="#m34482b4ea1" x="640.217752" y="567.74175" style="fill: #555555; stroke: #555555; stroke-width: 0.8"/>
      </g>
     </g>
     <g id="text_8">
      <!-- 2024-04 -->
      <g style="fill: #555555" transform="translate(627.39647 609.659567)rotate(-45)scale(0.1 -0.1)">
       <use xlink:href="#DejaVuSans-32"/>
       <use xlink:href="#DejaVuSans-30" x="63.623047"/>
       <use xlink:href="#DejaVuSans-32" x="127.246094"/>
       <use xlink:href="#DejaVuSans-34" x="190.869141"/>
       <use xlink:href="#DejaVuSans-2d" x="254.492188"/>
       <use xlink:href="#DejaVuSans-30" x="290.576172"/>
       <use xlink:href="#DejaVuSans-34" x="354.199219"/>
      </g>
     </g>
    </g>
    <g id="xtick_9">
     <g id="line2d_17">
      <path d="M 717.604381 567.74175 
L 717.604381 24.14175 
" clip-path="url(#p004b235f59)" style="fill: none; stroke: #ffffff; stroke-width: 0.8; stroke-linecap: square"/>
     </g>
     <g id="line2d_18">
      <g>
       <use xlink:href="#m34482b4ea1" x="717.604381" y="567.74175" style="fill: #555555; stroke: #555555; stroke-width: 0.8"/>
      </g>
     </g>
     <g id="text_9">
      <!-- 2024-05 -->
      <g style="fill: #555555" transform="translate(704.783098 609.659567)rotate(-45)scale(0.1 -0.1)">
       <defs>
        <path id="DejaVuSans-35" d="M 691 4666 
L 3169 4666 
L 3169 4134 
L 1269 4134 
L 1269 2991 
Q 1406 3038 1543 3061 
Q 1681 3084 1819 3084 
Q 2600 3084 3056 2656 
Q 3513 2228 3513 1497 
Q 3513 744 3044 326 
Q 2575 -91 1722 -91 
Q 1428 -91 1123 -41 
Q 819 9 494 109 
L 494 744 
Q 775 591 1075 516 
Q 1375 441 1709 441 
Q 2250 441 2565 725 
Q 2881 1009 2881 1497 
Q 2881 1984 2565 2268 
Q 2250 2553 1709 2553 
Q 1456 2553 1204 2497 
Q 953 2441 691 2322 
L 691 4666 
z
" transform="scale(0.015625)"/>
       </defs>
       <use xlink:href="#DejaVuSans-32"/>
       <use xlink:href="#DejaVuSans-30" x="63.623047"/>
       <use xlink:href="#DejaVuSans-32" x="127.246094"/>
       <use xlink:href="#DejaVuSans-34" x="190.869141"/>
       <use xlink:href="#DejaVuSans-2d" x="254.492188"/>
       <use xlink:href="#DejaVuSans-30" x="290.576172"/>
       <use xlink:href="#DejaVuSans-35" x="354.199219"/>
      </g>
     </g>
    </g>
    <g id="xtick_10">
     <g id="line2d_19">
      <path d="M 797.570564 567.74175 
L 797.570564 24.14175 
" clip-path="url(#p004b235f59)" style="fill: none; stroke: #ffffff; stroke-width: 0.8; stroke-linecap: square"/>
     </g>
     <g id="line2d_20">
      <g>
       <use xlink:href="#m34482b4ea1" x="797.570564" y="567.74175" style="fill: #555555; stroke: #555555; stroke-width: 0.8"/>
      </g>
     </g>
     <g id="text_10">
      <!-- 2024-06 -->
      <g style="fill: #555555" transform="translate(784.749281 609.659567)rotate(-45)scale(0.1 -0.1)">
       <defs>
        <path id="DejaVuSans-36" d="M 2113 2584 
Q 1688 2584 1439 2293 
Q 1191 2003 1191 1497 
Q 1191 994 1439 701 
Q 1688 409 2113 409 
Q 2538 409 2786 701 
Q 3034 994 3034 1497 
Q 3034 2003 2786 2293 
Q 2538 2584 2113 2584 
z
M 3366 4563 
L 3366 3988 
Q 3128 4100 2886 4159 
Q 2644 4219 2406 4219 
Q 1781 4219 1451 3797 
Q 1122 3375 1075 2522 
Q 1259 2794 1537 2939 
Q 1816 3084 2150 3084 
Q 2853 3084 3261 2657 
Q 3669 2231 3669 1497 
Q 3669 778 3244 343 
Q 2819 -91 2113 -91 
Q 1303 -91 875 529 
Q 447 1150 447 2328 
Q 447 3434 972 4092 
Q 1497 4750 2381 4750 
Q 2619 4750 2861 4703 
Q 3103 4656 3366 4563 
z
" transform="scale(0.015625)"/>
       </defs>
       <use xlink:href="#DejaVuSans-32"/>
       <use xlink:href="#DejaVuSans-30" x="63.623047"/>
       <use xlink:href="#DejaVuSans-32" x="127.246094"/>
       <use xlink:href="#DejaVuSans-34" x="190.869141"/>
       <use xlink:href="#DejaVuSans-2d" x="254.492188"/>
       <use xlink:href="#DejaVuSans-30" x="290.576172"/>
       <use xlink:href="#DejaVuSans-36" x="354.199219"/>
      </g>
     </g>
    </g>
    <g id="xtick_11">
     <g id="line2d_21">
      <path d="M 874.957192 567.74175 
L 874.957192 24.14175 
" clip-path="url(#p004b235f59)" style="fill: none; stroke: #ffffff; stroke-width: 0.8; stroke-linecap: square"/>
     </g>
     <g id="line2d_22">
      <g>
       <use xlink:href="#m34482b4ea1" x="874.957192" y="567.74175" style="fill: #555555; stroke: #555555; stroke-width: 0.8"/>
      </g>
     </g>
     <g id="text_11">
      <!-- 2024-07 -->
      <g style="fill: #555555" transform="translate(862.13591 609.659567)rotate(-45)scale(0.1 -0.1)">
       <defs>
        <path id="DejaVuSans-37" d="M 525 4666 
L 3525 4666 
L 3525 4397 
L 1831 0 
L 1172 0 
L 2766 4134 
L 525 4134 
L 525 4666 
z
" transform="scale(0.015625)"/>
       </defs>
       <use xlink:href="#DejaVuSans-32"/>
       <use xlink:href="#DejaVuSans-30" x="63.623047"/>
       <use xlink:href="#DejaVuSans-32" x="127.246094"/>
       <use xlink:href="#DejaVuSans-34" x="190.869141"/>
       <use xlink:href="#DejaVuSans-2d" x="254.492188"/>
       <use xlink:href="#DejaVuSans-30" x="290.576172"/>
       <use xlink:href="#DejaVuSans-37" x="354.199219"/>
      </g>
     </g>
    </g>
    <g id="xtick_12">
     <g id="line2d_23">
      <path d="M 954.923375 567.74175 
L 954.923375 24.14175 
" clip-path="url(#p004b235f59)" style="fill: none; stroke: #ffffff; stroke-width: 0.8; stroke-linecap: square"/>
     </g>
     <g id="line2d_24">
      <g>
       <use xlink:href="#m34482b4ea1" x="954.923375" y="567.74175" style="fill: #555555; stroke: #555555; stroke-width: 0.8"/>
      </g>
     </g>
     <g id="text_12">
      <!-- 2024-08 -->
      <g style="fill: #555555" transform="translate(942.102093 609.659567)rotate(-45)scale(0.1 -0.1)">
       <defs>
        <path id="DejaVuSans-38" d="M 2034 2216 
Q 1584 2216 1326 1975 
Q 1069 1734 1069 1313 
Q 1069 891 1326 650 
Q 1584 409 2034 409 
Q 2484 409 2743 651 
Q 3003 894 3003 1313 
Q 3003 1734 2745 1975 
Q 2488 2216 2034 2216 
z
M 1403 2484 
Q 997 2584 770 2862 
Q 544 3141 544 3541 
Q 544 4100 942 4425 
Q 1341 4750 2034 4750 
Q 2731 4750 3128 4425 
Q 3525 4100 3525 3541 
Q 3525 3141 3298 2862 
Q 3072 2584 2669 2484 
Q 3125 2378 3379 2068 
Q 3634 1759 3634 1313 
Q 3634 634 3220 271 
Q 2806 -91 2034 -91 
Q 1263 -91 848 271 
Q 434 634 434 1313 
Q 434 1759 690 2068 
Q 947 2378 1403 2484 
z
M 1172 3481 
Q 1172 3119 1398 2916 
Q 1625 2713 2034 2713 
Q 2441 2713 2670 2916 
Q 2900 3119 2900 3481 
Q 2900 3844 2670 4047 
Q 2441 4250 2034 4250 
Q 1625 4250 1398 4047 
Q 1172 3844 1172 3481 
z
" transform="scale(0.015625)"/>
       </defs>
       <use xlink:href="#DejaVuSans-32"/>
       <use xlink:href="#DejaVuSans-30" x="63.623047"/>
       <use xlink:href="#DejaVuSans-32" x="127.246094"/>
       <use xlink:href="#DejaVuSans-34" x="190.869141"/>
       <use xlink:href="#DejaVuSans-2d" x="254.492188"/>
       <use xlink:href="#DejaVuSans-30" x="290.576172"/>
       <use xlink:href="#DejaVuSans-38" x="354.199219"/>
      </g>
     </g>
    </g>
    <g id="text_13">
     <!-- Date -->
     <g style="fill: #555555" transform="translate(489.160438 624.248253)scale(0.12 -0.12)">
      <defs>
       <path id="DejaVuSans-44" d="M 1259 4147 
L 1259 519 
L 2022 519 
Q 2988 519 3436 956 
Q 3884 1394 3884 2338 
Q 3884 3275 3436 3711 
Q 2988 4147 2022 4147 
L 1259 4147 
z
M 628 4666 
L 1925 4666 
Q 3281 4666 3915 4102 
Q 4550 3538 4550 2338 
Q 4550 1131 3912 565 
Q 3275 0 1925 0 
L 628 0 
L 628 4666 
z
" transform="scale(0.015625)"/>
       <path id="DejaVuSans-61" d="M 2194 1759 
Q 1497 1759 1228 1600 
Q 959 1441 959 1056 
Q 959 750 1161 570 
Q 1363 391 1709 391 
Q 2188 391 2477 730 
Q 2766 1069 2766 1631 
L 2766 1759 
L 2194 1759 
z
M 3341 1997 
L 3341 0 
L 2766 0 
L 2766 531 
Q 2569 213 2275 61 
Q 1981 -91 1556 -91 
Q 1019 -91 701 211 
Q 384 513 384 1019 
Q 384 1609 779 1909 
Q 1175 2209 1959 2209 
L 2766 2209 
L 2766 2266 
Q 2766 2663 2505 2880 
Q 2244 3097 1772 3097 
Q 1472 3097 1187 3025 
Q 903 2953 641 2809 
L 641 3341 
Q 956 3463 1253 3523 
Q 1550 3584 1831 3584 
Q 2591 3584 2966 3190 
Q 3341 2797 3341 1997 
z
" transform="scale(0.015625)"/>
       <path id="DejaVuSans-74" d="M 1172 4494 
L 1172 3500 
L 2356 3500 
L 2356 3053 
L 1172 3053 
L 1172 1153 
Q 1172 725 1289 603 
Q 1406 481 1766 481 
L 2356 481 
L 2356 0 
L 1766 0 
Q 1100 0 847 248 
Q 594 497 594 1153 
L 594 3053 
L 172 3053 
L 172 3500 
L 594 3500 
L 594 4494 
L 1172 4494 
z
" transform="scale(0.015625)"/>
       <path id="DejaVuSans-65" d="M 3597 1894 
L 3597 1613 
L 953 1613 
Q 991 1019 1311 708 
Q 1631 397 2203 397 
Q 2534 397 2845 478 
Q 3156 559 3463 722 
L 3463 178 
Q 3153 47 2828 -22 
Q 2503 -91 2169 -91 
Q 1331 -91 842 396 
Q 353 884 353 1716 
Q 353 2575 817 3079 
Q 1281 3584 2069 3584 
Q 2775 3584 3186 3129 
Q 3597 2675 3597 1894 
z
M 3022 2063 
Q 3016 2534 2758 2815 
Q 2500 3097 2075 3097 
Q 1594 3097 1305 2825 
Q 1016 2553 972 2059 
L 3022 2063 
z
" transform="scale(0.015625)"/>
      </defs>
      <use xlink:href="#DejaVuSans-44"/>
      <use xlink:href="#DejaVuSans-61" x="77.001953"/>
      <use xlink:href="#DejaVuSans-74" x="138.28125"/>
      <use xlink:href="#DejaVuSans-65" x="177.490234"/>
     </g>
    </g>
   </g>
   <g id="matplotlib.axis_2">
    <g id="ytick_1">
     <g id="line2d_25">
      <path d="M 52.079375 567.74175 
L 954.923375 567.74175 
" clip-path="url(#p004b235f59)" style="fill: none; stroke: #ffffff; stroke-width: 0.8; stroke-linecap: square"/>
     </g>
     <g id="line2d_26">
      <defs>
       <path id="m39ce3e419d" d="M 0 0 
L -3.5 0 
" style="stroke: #555555; stroke-width: 0.8"/>
      </defs>
      <g>
       <use xlink:href="#m39ce3e419d" x="52.079375" y="567.74175" style="fill: #555555; stroke: #555555; stroke-width: 0.8"/>
      </g>
     </g>
     <g id="text_14">
      <!-- 0.00 -->
      <g style="fill: #555555" transform="translate(22.81375 571.540969)scale(0.1 -0.1)">
       <defs>
        <path id="DejaVuSans-2e" d="M 684 794 
L 1344 794 
L 1344 0 
L 684 0 
L 684 794 
z
" transform="scale(0.015625)"/>
       </defs>
       <use xlink:href="#DejaVuSans-30"/>
       <use xlink:href="#DejaVuSans-2e" x="63.623047"/>
       <use xlink:href="#DejaVuSans-30" x="95.410156"/>
       <use xlink:href="#DejaVuSans-30" x="159.033203"/>
      </g>
     </g>
    </g>
    <g id="ytick_2">
     <g id="line2d_27">
      <path d="M 52.079375 502.273172 
L 954.923375 502.273172 
" clip-path="url(#p004b235f59)" style="fill: none; stroke: #ffffff; stroke-width: 0.8; stroke-linecap: square"/>
     </g>
     <g id="line2d_28">
      <g>
       <use xlink:href="#m39ce3e419d" x="52.079375" y="502.273172" style="fill: #555555; stroke: #555555; stroke-width: 0.8"/>
      </g>
     </g>
     <g id="text_15">
      <!-- 0.05 -->
      <g style="fill: #555555" transform="translate(22.81375 506.072391)scale(0.1 -0.1)">
       <use xlink:href="#DejaVuSans-30"/>
       <use xlink:href="#DejaVuSans-2e" x="63.623047"/>
       <use xlink:href="#DejaVuSans-30" x="95.410156"/>
       <use xlink:href="#DejaVuSans-35" x="159.033203"/>
      </g>
     </g>
    </g>
    <g id="ytick_3">
     <g id="line2d_29">
      <path d="M 52.079375 436.804594 
L 954.923375 436.804594 
" clip-path="url(#p004b235f59)" style="fill: none; stroke: #ffffff; stroke-width: 0.8; stroke-linecap: square"/>
     </g>
     <g id="line2d_30">
      <g>
       <use xlink:href="#m39ce3e419d" x="52.079375" y="436.804594" style="fill: #555555; stroke: #555555; stroke-width: 0.8"/>
      </g>
     </g>
     <g id="text_16">
      <!-- 0.10 -->
      <g style="fill: #555555" transform="translate(22.81375 440.603812)scale(0.1 -0.1)">
       <use xlink:href="#DejaVuSans-30"/>
       <use xlink:href="#DejaVuSans-2e" x="63.623047"/>
       <use xlink:href="#DejaVuSans-31" x="95.410156"/>
       <use xlink:href="#DejaVuSans-30" x="159.033203"/>
      </g>
     </g>
    </g>
    <g id="ytick_4">
     <g id="line2d_31">
      <path d="M 52.079375 371.336016 
L 954.923375 371.336016 
" clip-path="url(#p004b235f59)" style="fill: none; stroke: #ffffff; stroke-width: 0.8; stroke-linecap: square"/>
     </g>
     <g id="line2d_32">
      <g>
       <use xlink:href="#m39ce3e419d" x="52.079375" y="371.336016" style="fill: #555555; stroke: #555555; stroke-width: 0.8"/>
      </g>
     </g>
     <g id="text_17">
      <!-- 0.15 -->
      <g style="fill: #555555" transform="translate(22.81375 375.135234)scale(0.1 -0.1)">
       <use xlink:href="#DejaVuSans-30"/>
       <use xlink:href="#DejaVuSans-2e" x="63.623047"/>
       <use xlink:href="#DejaVuSans-31" x="95.410156"/>
       <use xlink:href="#DejaVuSans-35" x="159.033203"/>
      </g>
     </g>
    </g>
    <g id="ytick_5">
     <g id="line2d_33">
      <path d="M 52.079375 305.867437 
L 954.923375 305.867437 
" clip-path="url(#p004b235f59)" style="fill: none; stroke: #ffffff; stroke-width: 0.8; stroke-linecap: square"/>
     </g>
     <g id="line2d_34">
      <g>
       <use xlink:href="#m39ce3e419d" x="52.079375" y="305.867437" style="fill: #555555; stroke: #555555; stroke-width: 0.8"/>
      </g>
     </g>
     <g id="text_18">
      <!-- 0.20 -->
      <g style="fill: #555555" transform="translate(22.81375 309.666656)scale(0.1 -0.1)">
       <use xlink:href="#DejaVuSans-30"/>
       <use xlink:href="#DejaVuSans-2e" x="63.623047"/>
       <use xlink:href="#DejaVuSans-32" x="95.410156"/>
       <use xlink:href="#DejaVuSans-30" x="159.033203"/>
      </g>
     </g>
    </g>
    <g id="ytick_6">
     <g id="line2d_35">
      <path d="M 52.079375 240.398859 
L 954.923375 240.398859 
" clip-path="url(#p004b235f59)" style="fill: none; stroke: #ffffff; stroke-width: 0.8; stroke-linecap: square"/>
     </g>
     <g id="line2d_36">
      <g>
       <use xlink:href="#m39ce3e419d" x="52.079375" y="240.398859" style="fill: #555555; stroke: #555555; stroke-width: 0.8"/>
      </g>
     </g>
     <g id="text_19">
      <!-- 0.25 -->
      <g style="fill: #555555" transform="translate(22.81375 244.198078)scale(0.1 -0.1)">
       <use xlink:href="#DejaVuSans-30"/>
       <use xlink:href="#DejaVuSans-2e" x="63.623047"/>
       <use xlink:href="#DejaVuSans-32" x="95.410156"/>
       <use xlink:href="#DejaVuSans-35" x="159.033203"/>
      </g>
     </g>
    </g>
    <g id="ytick_7">
     <g id="line2d_37">
      <path d="M 52.079375 174.930281 
L 954.923375 174.930281 
" clip-path="url(#p004b235f59)" style="fill: none; stroke: #ffffff; stroke-width: 0.8; stroke-linecap: square"/>
     </g>
     <g id="line2d_38">
      <g>
       <use xlink:href="#m39ce3e419d" x="52.079375" y="174.930281" style="fill: #555555; stroke: #555555; stroke-width: 0.8"/>
      </g>
     </g>
     <g id="text_20">
      <!-- 0.30 -->
      <g style="fill: #555555" transform="translate(22.81375 178.7295)scale(0.1 -0.1)">
       <use xlink:href="#DejaVuSans-30"/>
       <use xlink:href="#DejaVuSans-2e" x="63.623047"/>
       <use xlink:href="#DejaVuSans-33" x="95.410156"/>
       <use xlink:href="#DejaVuSans-30" x="159.033203"/>
      </g>
     </g>
    </g>
    <g id="ytick_8">
     <g id="line2d_39">
      <path d="M 52.079375 109.461703 
L 954.923375 109.461703 
" clip-path="url(#p004b235f59)" style="fill: none; stroke: #ffffff; stroke-width: 0.8; stroke-linecap: square"/>
     </g>
     <g id="line2d_40">
      <g>
       <use xlink:href="#m39ce3e419d" x="52.079375" y="109.461703" style="fill: #555555; stroke: #555555; stroke-width: 0.8"/>
      </g>
     </g>
     <g id="text_21">
      <!-- 0.35 -->
      <g style="fill: #555555" transform="translate(22.81375 113.260922)scale(0.1 -0.1)">
       <use xlink:href="#DejaVuSans-30"/>
       <use xlink:href="#DejaVuSans-2e" x="63.623047"/>
       <use xlink:href="#DejaVuSans-33" x="95.410156"/>
       <use xlink:href="#DejaVuSans-35" x="159.033203"/>
      </g>
     </g>
    </g>
    <g id="ytick_9">
     <g id="line2d_41">
      <path d="M 52.079375 43.993125 
L 954.923375 43.993125 
" clip-path="url(#p004b235f59)" style="fill: none; stroke: #ffffff; stroke-width: 0.8; stroke-linecap: square"/>
     </g>
     <g id="line2d_42">
      <g>
       <use xlink:href="#m39ce3e419d" x="52.079375" y="43.993125" style="fill: #555555; stroke: #555555; stroke-width: 0.8"/>
      </g>
     </g>
     <g id="text_22">
      <!-- 0.40 -->
      <g style="fill: #555555" transform="translate(22.81375 47.792344)scale(0.1 -0.1)">
       <use xlink:href="#DejaVuSans-30"/>
       <use xlink:href="#DejaVuSans-2e" x="63.623047"/>
       <use xlink:href="#DejaVuSans-34" x="95.410156"/>
       <use xlink:href="#DejaVuSans-30" x="159.033203"/>
      </g>
     </g>
    </g>
    <g id="text_23">
     <!-- Share -->
     <g style="fill: #555555" transform="translate(16.318125 313.253625)rotate(-90)scale(0.12 -0.12)">
      <defs>
       <path id="DejaVuSans-53" d="M 3425 4513 
L 3425 3897 
Q 3066 4069 2747 4153 
Q 2428 4238 2131 4238 
Q 1616 4238 1336 4038 
Q 1056 3838 1056 3469 
Q 1056 3159 1242 3001 
Q 1428 2844 1947 2747 
L 2328 2669 
Q 3034 2534 3370 2195 
Q 3706 1856 3706 1288 
Q 3706 609 3251 259 
Q 2797 -91 1919 -91 
Q 1588 -91 1214 -16 
Q 841 59 441 206 
L 441 856 
Q 825 641 1194 531 
Q 1563 422 1919 422 
Q 2459 422 2753 634 
Q 3047 847 3047 1241 
Q 3047 1584 2836 1778 
Q 2625 1972 2144 2069 
L 1759 2144 
Q 1053 2284 737 2584 
Q 422 2884 422 3419 
Q 422 4038 858 4394 
Q 1294 4750 2059 4750 
Q 2388 4750 2728 4690 
Q 3069 4631 3425 4513 
z
" transform="scale(0.015625)"/>
       <path id="DejaVuSans-68" d="M 3513 2113 
L 3513 0 
L 2938 0 
L 2938 2094 
Q 2938 2591 2744 2837 
Q 2550 3084 2163 3084 
Q 1697 3084 1428 2787 
Q 1159 2491 1159 1978 
L 1159 0 
L 581 0 
L 581 4863 
L 1159 4863 
L 1159 2956 
Q 1366 3272 1645 3428 
Q 1925 3584 2291 3584 
Q 2894 3584 3203 3211 
Q 3513 2838 3513 2113 
z
" transform="scale(0.015625)"/>
       <path id="DejaVuSans-72" d="M 2631 2963 
Q 2534 3019 2420 3045 
Q 2306 3072 2169 3072 
Q 1681 3072 1420 2755 
Q 1159 2438 1159 1844 
L 1159 0 
L 581 0 
L 581 3500 
L 1159 3500 
L 1159 2956 
Q 1341 3275 1631 3429 
Q 1922 3584 2338 3584 
Q 2397 3584 2469 3576 
Q 2541 3569 2628 3553 
L 2631 2963 
z
" transform="scale(0.015625)"/>
      </defs>
      <use xlink:href="#DejaVuSans-53"/>
      <use xlink:href="#DejaVuSans-68" x="63.476562"/>
      <use xlink:href="#DejaVuSans-61" x="126.855469"/>
      <use xlink:href="#DejaVuSans-72" x="188.134766"/>
      <use xlink:href="#DejaVuSans-65" x="226.998047"/>
     </g>
    </g>
   </g>
   <g id="line2d_43">
    <path d="M 52.079375 361.55069 
L 61.199011 361.094848 
L 70.318648 360.639006 
L 79.438284 360.183164 
L 88.55792 359.727322 
L 97.677557 359.27148 
L 106.797193 358.815638 
L 115.91683 358.359796 
L 125.036466 357.903954 
L 134.156102 357.448112 
L 143.275739 356.99227 
L 152.395375 356.536428 
L 161.515011 356.080586 
L 170.634648 355.624744 
L 179.754284 355.168902 
L 188.87392 354.713061 
L 197.993557 354.257219 
L 207.113193 353.801377 
L 216.23283 353.345535 
L 225.352466 352.889693 
L 234.472102 352.433851 
L 243.591739 351.978009 
L 252.711375 351.522167 
L 261.831011 351.066325 
L 270.950648 350.610483 
L 280.070284 350.154641 
L 289.18992 349.698799 
L 298.309557 349.242957 
L 307.429193 348.787115 
L 316.54883 348.331273 
L 325.668466 347.875431 
L 334.788102 347.419589 
L 343.907739 346.963747 
L 353.027375 346.507905 
L 362.147011 346.052063 
L 371.266648 345.596221 
L 380.386284 345.140379 
L 389.50592 344.684537 
L 398.625557 344.228695 
L 407.745193 343.772854 
L 416.86483 343.317012 
L 425.984466 342.86117 
L 435.104102 342.405328 
L 444.223739 341.949486 
L 453.343375 341.493644 
L 462.463011 341.037802 
L 471.582648 340.58196 
L 480.702284 340.126118 
L 489.82192 339.670276 
L 498.941557 339.214434 
L 508.061193 338.758592 
L 517.18083 338.30275 
L 526.300466 337.846908 
L 535.420102 337.391066 
L 544.539739 336.935224 
L 553.659375 336.479382 
L 562.779011 336.02354 
L 571.898648 335.567698 
L 581.018284 335.111856 
L 590.13792 334.656014 
L 599.257557 334.200172 
L 608.377193 333.74433 
L 617.49683 333.288488 
L 626.616466 332.832647 
L 635.736102 332.376805 
L 644.855739 331.920963 
L 653.975375 331.465121 
L 663.095011 331.009279 
L 672.214648 330.553437 
L 681.334284 330.097595 
L 690.45392 329.641753 
L 699.573557 329.185911 
L 708.693193 328.730069 
L 717.81283 328.274227 
L 726.932466 327.818385 
L 736.052102 327.362543 
L 745.171739 326.906701 
L 754.291375 326.450859 
L 763.411011 325.995017 
L 772.530648 325.539175 
L 781.650284 325.083333 
L 790.76992 324.627491 
L 799.889557 324.171649 
L 809.009193 323.715807 
L 818.12883 323.259965 
L 827.248466 322.804123 
L 836.368102 322.348281 
L 845.487739 321.89244 
L 854.607375 321.436598 
L 863.727011 320.980756 
L 872.846648 320.524914 
L 881.966284 320.069072 
L 891.08592 319.61323 
L 900.205557 319.157388 
L 909.325193 318.701546 
L 918.44483 318.245704 
L 927.564466 317.789862 
L 936.684102 317.33402 
L 945.803739 316.878178 
L 954.923375 316.422336 
" clip-path="url(#p004b235f59)" style="fill: none; stroke-dasharray: 1.5,2.475; stroke-dashoffset: 0; stroke: #4ac1fa; stroke-width: 1.5"/>
   </g>
   <g id="line2d_44">
    <path d="M 52.079375 323.448097 
L 61.199011 324.460415 
L 70.318648 325.472733 
L 79.438284 326.485052 
L 88.55792 327.49737 
L 97.677557 328.509688 
L 106.797193 329.522007 
L 115.91683 330.534325 
L 125.036466 331.546644 
L 134.156102 332.558962 
L 143.275739 333.57128 
L 152.395375 334.583599 
L 161.515011 335.595917 
L 170.634648 336.608235 
L 179.754284 337.620554 
L 188.87392 338.632872 
L 197.993557 339.645191 
L 207.113193 340.657509 
L 216.23283 341.669827 
L 225.352466 342.682146 
L 234.472102 343.694464 
L 243.591739 344.706782 
L 252.711375 345.719101 
L 261.831011 346.731419 
L 270.950648 347.743738 
L 280.070284 348.756056 
L 289.18992 349.768374 
L 298.309557 350.780693 
L 307.429193 351.793011 
L 316.54883 352.805329 
L 325.668466 353.817648 
L 334.788102 354.829966 
L 343.907739 355.842284 
L 353.027375 356.854603 
L 362.147011 357.866921 
L 371.266648 358.87924 
L 380.386284 359.891558 
L 389.50592 360.903876 
L 398.625557 361.916195 
L 407.745193 362.928513 
L 416.86483 363.940831 
L 425.984466 364.95315 
L 435.104102 365.965468 
L 444.223739 366.977787 
L 453.343375 367.990105 
L 462.463011 369.002423 
L 471.582648 370.014742 
L 480.702284 371.02706 
L 489.82192 372.039378 
L 498.941557 373.051697 
L 508.061193 374.064015 
L 517.18083 375.076333 
L 526.300466 376.088652 
L 535.420102 377.10097 
L 544.539739 378.113289 
L 553.659375 379.125607 
L 562.779011 380.137925 
L 571.898648 381.150244 
L 581.018284 382.162562 
L 590.13792 383.17488 
L 599.257557 384.187199 
L 608.377193 385.199517 
L 617.49683 386.211836 
L 626.616466 387.224154 
L 635.736102 388.236472 
L 644.855739 389.248791 
L 653.975375 390.261109 
L 663.095011 391.273427 
L 672.214648 392.285746 
L 681.334284 393.298064 
L 690.45392 394.310382 
L 699.573557 395.322701 
L 708.693193 396.335019 
L 717.81283 397.347338 
L 726.932466 398.359656 
L 736.052102 399.371974 
L 745.171739 400.384293 
L 754.291375 401.396611 
L 763.411011 402.408929 
L 772.530648 403.421248 
L 781.650284 404.433566 
L 790.76992 405.445885 
L 799.889557 406.458203 
L 809.009193 407.470521 
L 818.12883 408.48284 
L 827.248466 409.495158 
L 836.368102 410.507476 
L 845.487739 411.519795 
L 854.607375 412.532113 
L 863.727011 413.544432 
L 872.846648 414.55675 
L 881.966284 415.569068 
L 891.08592 416.581387 
L 900.205557 417.593705 
L 909.325193 418.606023 
L 918.44483 419.618342 
L 927.564466 420.63066 
L 936.684102 421.642978 
L 945.803739 422.655297 
L 954.923375 423.667615 
" clip-path="url(#p004b235f59)" style="fill: none; stroke-dasharray: 1.5,2.475; stroke-dashoffset: 0; stroke: #e9a942; stroke-width: 1.5"/>
   </g>
   <g id="line2d_45">
    <path d="M 52.079375 347.325688 
L 61.199011 348.444865 
L 70.318648 349.564041 
L 79.438284 350.683218 
L 88.55792 351.802395 
L 97.677557 352.921572 
L 106.797193 354.040748 
L 115.91683 355.159925 
L 125.036466 356.279102 
L 134.156102 357.398278 
L 143.275739 358.517455 
L 152.395375 359.636632 
L 161.515011 360.755808 
L 170.634648 361.874985 
L 179.754284 362.994162 
L 188.87392 364.113339 
L 197.993557 365.232515 
L 207.113193 366.351692 
L 216.23283 367.470869 
L 225.352466 368.590045 
L 234.472102 369.709222 
L 243.591739 370.828399 
L 252.711375 371.947575 
L 261.831011 373.066752 
L 270.950648 374.185929 
L 280.070284 375.305106 
L 289.18992 376.424282 
L 298.309557 377.543459 
L 307.429193 378.662636 
L 316.54883 379.781812 
L 325.668466 380.900989 
L 334.788102 382.020166 
L 343.907739 383.139342 
L 353.027375 384.258519 
L 362.147011 385.377696 
L 371.266648 386.496873 
L 380.386284 387.616049 
L 389.50592 388.735226 
L 398.625557 389.854403 
L 407.745193 390.973579 
L 416.86483 392.092756 
L 425.984466 393.211933 
L 435.104102 394.331109 
L 444.223739 395.450286 
L 453.343375 396.569463 
L 462.463011 397.68864 
L 471.582648 398.807816 
L 480.702284 399.926993 
L 489.82192 401.04617 
L 498.941557 402.165346 
L 508.061193 403.284523 
L 517.18083 404.4037 
L 526.300466 405.522876 
L 535.420102 406.642053 
L 544.539739 407.76123 
L 553.659375 408.880406 
L 562.779011 409.999583 
L 571.898648 411.11876 
L 581.018284 412.237937 
L 590.13792 413.357113 
L 599.257557 414.47629 
L 608.377193 415.595467 
L 617.49683 416.714643 
L 626.616466 417.83382 
L 635.736102 418.952997 
L 644.855739 420.072173 
L 653.975375 421.19135 
L 663.095011 422.310527 
L 672.214648 423.429704 
L 681.334284 424.54888 
L 690.45392 425.668057 
L 699.573557 426.787234 
L 708.693193 427.90641 
L 717.81283 429.025587 
L 726.932466 430.144764 
L 736.052102 431.26394 
L 745.171739 432.383117 
L 754.291375 433.502294 
L 763.411011 434.621471 
L 772.530648 435.740647 
L 781.650284 436.859824 
L 790.76992 437.979001 
L 799.889557 439.098177 
L 809.009193 440.217354 
L 818.12883 441.336531 
L 827.248466 442.455707 
L 836.368102 443.574884 
L 845.487739 444.694061 
L 854.607375 445.813238 
L 863.727011 446.932414 
L 872.846648 448.051591 
L 881.966284 449.170768 
L 891.08592 450.289944 
L 900.205557 451.409121 
L 909.325193 452.528298 
L 918.44483 453.647474 
L 927.564466 454.766651 
L 936.684102 455.885828 
L 945.803739 457.005005 
L 954.923375 458.124181 
" clip-path="url(#p004b235f59)" style="fill: none; stroke-dasharray: 1.5,2.475; stroke-dashoffset: 0; stroke: #9a5689; stroke-width: 1.5"/>
   </g>
   <g id="line2d_46">
    <path d="M 52.079375 518.554209 
L 61.199011 518.620761 
L 70.318648 518.687313 
L 79.438284 518.753865 
L 88.55792 518.820417 
L 97.677557 518.886969 
L 106.797193 518.95352 
L 115.91683 519.020072 
L 125.036466 519.086624 
L 134.156102 519.153176 
L 143.275739 519.219728 
L 152.395375 519.28628 
L 161.515011 519.352832 
L 170.634648 519.419384 
L 179.754284 519.485935 
L 188.87392 519.552487 
L 197.993557 519.619039 
L 207.113193 519.685591 
L 216.23283 519.752143 
L 225.352466 519.818695 
L 234.472102 519.885247 
L 243.591739 519.951799 
L 252.711375 520.01835 
L 261.831011 520.084902 
L 270.950648 520.151454 
L 280.070284 520.218006 
L 289.18992 520.284558 
L 298.309557 520.35111 
L 307.429193 520.417662 
L 316.54883 520.484214 
L 325.668466 520.550765 
L 334.788102 520.617317 
L 343.907739 520.683869 
L 353.027375 520.750421 
L 362.147011 520.816973 
L 371.266648 520.883525 
L 380.386284 520.950077 
L 389.50592 521.016629 
L 398.625557 521.08318 
L 407.745193 521.149732 
L 416.86483 521.216284 
L 425.984466 521.282836 
L 435.104102 521.349388 
L 444.223739 521.41594 
L 453.343375 521.482492 
L 462.463011 521.549044 
L 471.582648 521.615595 
L 480.702284 521.682147 
L 489.82192 521.748699 
L 498.941557 521.815251 
L 508.061193 521.881803 
L 517.18083 521.948355 
L 526.300466 522.014907 
L 535.420102 522.081459 
L 544.539739 522.14801 
L 553.659375 522.214562 
L 562.779011 522.281114 
L 571.898648 522.347666 
L 581.018284 522.414218 
L 590.13792 522.48077 
L 599.257557 522.547322 
L 608.377193 522.613874 
L 617.49683 522.680425 
L 626.616466 522.746977 
L 635.736102 522.813529 
L 644.855739 522.880081 
L 653.975375 522.946633 
L 663.095011 523.013185 
L 672.214648 523.079737 
L 681.334284 523.146289 
L 690.45392 523.21284 
L 699.573557 523.279392 
L 708.693193 523.345944 
L 717.81283 523.412496 
L 726.932466 523.479048 
L 736.052102 523.5456 
L 745.171739 523.612152 
L 754.291375 523.678704 
L 763.411011 523.745255 
L 772.530648 523.811807 
L 781.650284 523.878359 
L 790.76992 523.944911 
L 799.889557 524.011463 
L 809.009193 524.078015 
L 818.12883 524.144567 
L 827.248466 524.211119 
L 836.368102 524.27767 
L 845.487739 524.344222 
L 854.607375 524.410774 
L 863.727011 524.477326 
L 872.846648 524.543878 
L 881.966284 524.61043 
L 891.08592 524.676982 
L 900.205557 524.743534 
L 909.325193 524.810085 
L 918.44483 524.876637 
L 927.564466 524.943189 
L 936.684102 525.009741 
L 945.803739 525.076293 
L 954.923375 525.142845 
" clip-path="url(#p004b235f59)" style="fill: none; stroke-dasharray: 1.5,2.475; stroke-dashoffset: 0; stroke: #be503b; stroke-width: 1.5"/>
   </g>
   <g id="line2d_47">
    <path d="M 52.079375 323.421105 
L 61.199011 323.463339 
L 70.318648 323.505574 
L 79.438284 323.547808 
L 88.55792 323.590042 
L 97.677557 323.632276 
L 106.797193 323.674511 
L 115.91683 323.716745 
L 125.036466 323.758979 
L 134.156102 323.801213 
L 143.275739 323.843447 
L 152.395375 323.885682 
L 161.515011 323.927916 
L 170.634648 323.97015 
L 179.754284 324.012384 
L 188.87392 324.054619 
L 197.993557 324.096853 
L 207.113193 324.139087 
L 216.23283 324.181321 
L 225.352466 324.223556 
L 234.472102 324.26579 
L 243.591739 324.308024 
L 252.711375 324.350258 
L 261.831011 324.392493 
L 270.950648 324.434727 
L 280.070284 324.476961 
L 289.18992 324.519195 
L 298.309557 324.56143 
L 307.429193 324.603664 
L 316.54883 324.645898 
L 325.668466 324.688132 
L 334.788102 324.730367 
L 343.907739 324.772601 
L 353.027375 324.814835 
L 362.147011 324.857069 
L 371.266648 324.899304 
L 380.386284 324.941538 
L 389.50592 324.983772 
L 398.625557 325.026006 
L 407.745193 325.068241 
L 416.86483 325.110475 
L 425.984466 325.152709 
L 435.104102 325.194943 
L 444.223739 325.237178 
L 453.343375 325.279412 
L 462.463011 325.321646 
L 471.582648 325.36388 
L 480.702284 325.406115 
L 489.82192 325.448349 
L 498.941557 325.490583 
L 508.061193 325.532817 
L 517.18083 325.575052 
L 526.300466 325.617286 
L 535.420102 325.65952 
L 544.539739 325.701754 
L 553.659375 325.743989 
L 562.779011 325.786223 
L 571.898648 325.828457 
L 581.018284 325.870691 
L 590.13792 325.912925 
L 599.257557 325.95516 
L 608.377193 325.997394 
L 617.49683 326.039628 
L 626.616466 326.081862 
L 635.736102 326.124097 
L 644.855739 326.166331 
L 653.975375 326.208565 
L 663.095011 326.250799 
L 672.214648 326.293034 
L 681.334284 326.335268 
L 690.45392 326.377502 
L 699.573557 326.419736 
L 708.693193 326.461971 
L 717.81283 326.504205 
L 726.932466 326.546439 
L 736.052102 326.588673 
L 745.171739 326.630908 
L 754.291375 326.673142 
L 763.411011 326.715376 
L 772.530648 326.75761 
L 781.650284 326.799845 
L 790.76992 326.842079 
L 799.889557 326.884313 
L 809.009193 326.926547 
L 818.12883 326.968782 
L 827.248466 327.011016 
L 836.368102 327.05325 
L 845.487739 327.095484 
L 854.607375 327.137719 
L 863.727011 327.179953 
L 872.846648 327.222187 
L 881.966284 327.264421 
L 891.08592 327.306656 
L 900.205557 327.34889 
L 909.325193 327.391124 
L 918.44483 327.433358 
L 927.564466 327.475593 
L 936.684102 327.517827 
L 945.803739 327.560061 
L 954.923375 327.602295 
" clip-path="url(#p004b235f59)" style="fill: none; stroke-dasharray: 1.5,2.475; stroke-dashoffset: 0; stroke: #e2321d; stroke-width: 1.5"/>
   </g>
   <g id="line2d_48">
    <path d="M 52.079375 242.62725 
L 61.199011 240.923925 
L 70.318648 239.220601 
L 79.438284 237.517277 
L 88.55792 235.813953 
L 97.677557 234.110629 
L 106.797193 232.407305 
L 115.91683 230.703981 
L 125.036466 229.000657 
L 134.156102 227.297333 
L 143.275739 225.594009 
L 152.395375 223.890685 
L 161.515011 222.187361 
L 170.634648 220.484037 
L 179.754284 218.780713 
L 188.87392 217.077388 
L 197.993557 215.374064 
L 207.113193 213.67074 
L 216.23283 211.967416 
L 225.352466 210.264092 
L 234.472102 208.560768 
L 243.591739 206.857444 
L 252.711375 205.15412 
L 261.831011 203.450796 
L 270.950648 201.747472 
L 280.070284 200.044148 
L 289.18992 198.340824 
L 298.309557 196.6375 
L 307.429193 194.934176 
L 316.54883 193.230851 
L 325.668466 191.527527 
L 334.788102 189.824203 
L 343.907739 188.120879 
L 353.027375 186.417555 
L 362.147011 184.714231 
L 371.266648 183.010907 
L 380.386284 181.307583 
L 389.50592 179.604259 
L 398.625557 177.900935 
L 407.745193 176.197611 
L 416.86483 174.494287 
L 425.984466 172.790963 
L 435.104102 171.087639 
L 444.223739 169.384314 
L 453.343375 167.68099 
L 462.463011 165.977666 
L 471.582648 164.274342 
L 480.702284 162.571018 
L 489.82192 160.867694 
L 498.941557 159.16437 
L 508.061193 157.461046 
L 517.18083 155.757722 
L 526.300466 154.054398 
L 535.420102 152.351074 
L 544.539739 150.64775 
L 553.659375 148.944426 
L 562.779011 147.241102 
L 571.898648 145.537777 
L 581.018284 143.834453 
L 590.13792 142.131129 
L 599.257557 140.427805 
L 608.377193 138.724481 
L 617.49683 137.021157 
L 626.616466 135.317833 
L 635.736102 133.614509 
L 644.855739 131.911185 
L 653.975375 130.207861 
L 663.095011 128.504537 
L 672.214648 126.801213 
L 681.334284 125.097889 
L 690.45392 123.394564 
L 699.573557 121.69124 
L 708.693193 119.987916 
L 717.81283 118.284592 
L 726.932466 116.581268 
L 736.052102 114.877944 
L 745.171739 113.17462 
L 754.291375 111.471296 
L 763.411011 109.767972 
L 772.530648 108.064648 
L 781.650284 106.361324 
L 790.76992 104.658 
L 799.889557 102.954676 
L 809.009193 101.251352 
L 818.12883 99.548027 
L 827.248466 97.844703 
L 836.368102 96.141379 
L 845.487739 94.438055 
L 854.607375 92.734731 
L 863.727011 91.031407 
L 872.846648 89.328083 
L 881.966284 87.624759 
L 891.08592 85.921435 
L 900.205557 84.218111 
L 909.325193 82.514787 
L 918.44483 80.811463 
L 927.564466 79.108139 
L 936.684102 77.404815 
L 945.803739 75.70149 
L 954.923375 73.998166 
" clip-path="url(#p004b235f59)" style="fill: none; stroke-dasharray: 1.5,2.475; stroke-dashoffset: 0; stroke: #48b585; stroke-width: 1.5"/>
   </g>
   <g id="line2d_49">
    <path d="M 52.079375 347.89751 
L 70.136255 361.122127 
L 88.193135 354.977089 
L 106.250015 355.295013 
L 124.306895 348.545642 
L 142.363775 343.377144 
L 160.420655 348.5032 
L 178.477535 349.141308 
L 232.648175 352.853315 
L 250.705055 356.556114 
L 268.761935 346.363756 
L 286.818815 346.48763 
L 304.875695 361.459953 
L 322.932575 366.365002 
L 340.989455 348.5621 
L 359.046335 332.437269 
L 377.103215 332.992302 
L 395.160095 343.327976 
L 413.216975 353.228365 
L 431.273855 350.438245 
L 449.330735 332.984798 
L 467.387615 325.663343 
L 485.444495 347.48306 
L 503.501375 340.513812 
L 521.558255 341.61112 
L 539.615135 341.605402 
L 557.672015 344.204023 
L 575.728895 356.071577 
L 593.785775 345.029589 
L 611.842655 349.127395 
L 629.899535 343.708995 
L 647.956415 347.03027 
L 666.013295 345.95626 
L 684.070175 341.649345 
L 702.127055 340.346845 
L 720.183935 337.030586 
L 738.240815 341.383199 
L 756.297695 341.75479 
L 774.354575 327.558286 
L 792.411455 309.68525 
L 810.468335 325.973652 
L 828.525215 319.855902 
L 846.582095 314.066391 
L 864.638975 312.001488 
L 882.695855 305.499536 
L 900.752735 300.702754 
L 918.809615 301.556907 
L 936.866495 298.704869 
L 954.923375 301.863917 
" clip-path="url(#p004b235f59)" style="fill: none; stroke: #4ac1fa; stroke-width: 1.5; stroke-linecap: square"/>
   </g>
   <g id="line2d_50">
    <path d="M 52.079375 374.883925 
L 70.136255 374.735319 
L 88.193135 338.147778 
L 106.250015 310.848596 
L 124.306895 340.233453 
L 142.363775 380.941712 
L 160.420655 360.210908 
L 178.477535 347.79611 
L 232.648175 328.695948 
L 250.705055 299.989154 
L 268.761935 330.979824 
L 286.818815 359.537489 
L 304.875695 320.256262 
L 322.932575 306.651333 
L 340.989455 372.333629 
L 359.046335 393.364536 
L 377.103215 407.702839 
L 395.160095 387.37926 
L 413.216975 345.2794 
L 431.273855 334.354425 
L 449.330735 351.183072 
L 467.387615 397.494488 
L 485.444495 319.971097 
L 503.501375 334.126068 
L 521.558255 326.01309 
L 539.615135 353.694408 
L 557.672015 335.317403 
L 575.728895 308.247805 
L 593.785775 333.552185 
L 611.842655 354.646291 
L 629.899535 417.135505 
L 647.956415 402.19707 
L 666.013295 392.513932 
L 684.070175 415.829968 
L 702.127055 416.851574 
L 720.183935 412.802289 
L 738.240815 399.406124 
L 756.297695 398.051386 
L 774.354575 389.362917 
L 792.411455 408.472693 
L 810.468335 406.574292 
L 828.525215 423.233238 
L 846.582095 425.42614 
L 864.638975 434.193728 
L 882.695855 437.618582 
L 900.752735 432.594923 
L 918.809615 446.089779 
L 936.866495 450.794209 
L 954.923375 432.763668 
" clip-path="url(#p004b235f59)" style="fill: none; stroke: #e9a942; stroke-width: 1.5; stroke-linecap: square"/>
   </g>
   <g id="line2d_51">
    <path d="M 52.079375 364.017808 
L 70.136255 353.624956 
L 88.193135 374.143443 
L 106.250015 385.114198 
L 124.306895 376.639009 
L 142.363775 369.892823 
L 160.420655 378.181249 
L 178.477535 377.052188 
L 232.648175 375.207766 
L 250.705055 372.166806 
L 268.761935 367.062901 
L 286.818815 378.434147 
L 304.875695 385.047443 
L 322.932575 379.954161 
L 340.989455 378.29189 
L 359.046335 383.768368 
L 377.103215 382.346237 
L 395.160095 379.359169 
L 413.216975 385.711123 
L 431.273855 384.262067 
L 449.330735 383.115218 
L 467.387615 377.422225 
L 485.444495 397.573053 
L 503.501375 390.491084 
L 521.558255 395.796219 
L 539.615135 395.501149 
L 557.672015 382.450636 
L 575.728895 390.495415 
L 593.785775 403.283355 
L 611.842655 406.095436 
L 629.899535 361.579543 
L 647.956415 386.585602 
L 666.013295 392.216607 
L 684.070175 400.674143 
L 702.127055 392.603406 
L 720.183935 394.65023 
L 738.240815 392.401976 
L 756.297695 403.566032 
L 774.354575 454.92336 
L 792.411455 485.346405 
L 810.468335 489.666675 
L 828.525215 480.301537 
L 846.582095 477.81556 
L 864.638975 477.850513 
L 882.695855 473.01235 
L 900.752735 469.557345 
L 918.809615 469.190366 
L 936.866495 474.980741 
L 954.923375 477.224869 
" clip-path="url(#p004b235f59)" style="fill: none; stroke: #9a5689; stroke-width: 1.5; stroke-linecap: square"/>
   </g>
   <g id="line2d_52">
    <path d="M 52.079375 514.909634 
L 70.136255 515.122807 
L 88.193135 517.325653 
L 106.250015 516.419792 
L 124.306895 517.111196 
L 142.363775 515.189399 
L 160.420655 517.443761 
L 178.477535 518.431372 
L 232.648175 520.812183 
L 250.705055 522.119242 
L 268.761935 521.14887 
L 286.818815 520.95651 
L 304.875695 523.744855 
L 322.932575 525.650575 
L 340.989455 521.596569 
L 359.046335 519.287426 
L 377.103215 519.45798 
L 395.160095 520.98871 
L 413.216975 522.806648 
L 431.273855 521.792118 
L 449.330735 520.211562 
L 467.387615 518.601234 
L 485.444495 523.685487 
L 503.501375 522.482101 
L 521.558255 523.128447 
L 539.615135 524.294344 
L 557.672015 525.916035 
L 575.728895 527.663463 
L 593.785775 525.49293 
L 611.842655 525.783136 
L 629.899535 524.588523 
L 647.956415 523.869004 
L 666.013295 525.637489 
L 684.070175 524.353657 
L 702.127055 524.245476 
L 720.183935 524.697728 
L 738.240815 525.212379 
L 756.297695 525.827399 
L 774.354575 526.211981 
L 792.411455 523.322294 
L 810.468335 525.65926 
L 828.525215 522.843016 
L 846.582095 521.040114 
L 864.638975 521.556852 
L 882.695855 520.638501 
L 900.752735 520.297352 
L 918.809615 521.559946 
L 936.866495 520.772464 
L 954.923375 523.018845 
" clip-path="url(#p004b235f59)" style="fill: none; stroke: #be503b; stroke-width: 1.5; stroke-linecap: square"/>
   </g>
   <g id="line2d_53">
    <path d="M 52.079375 293.110929 
L 70.136255 270.731429 
L 88.193135 304.679349 
L 106.250015 316.716999 
L 124.306895 306.820766 
L 142.363775 306.797471 
L 160.420655 314.26394 
L 178.477535 316.423441 
L 232.648175 326.950442 
L 250.705055 338.01606 
L 268.761935 331.74617 
L 286.818815 321.922517 
L 304.875695 341.192347 
L 322.932575 349.741664 
L 340.989455 333.393433 
L 359.046335 332.500778 
L 377.103215 322.400581 
L 395.160095 326.93425 
L 413.216975 334.606122 
L 431.273855 329.272213 
L 449.330735 328.888986 
L 467.387615 323.187377 
L 485.444495 344.952338 
L 503.501375 340.323506 
L 521.558255 343.427252 
L 539.615135 346.942021 
L 557.672015 350.162581 
L 575.728895 357.127961 
L 593.785775 348.243 
L 611.842655 350.746958 
L 629.899535 341.793159 
L 647.956415 335.973168 
L 666.013295 337.254427 
L 684.070175 332.875645 
L 702.127055 332.326996 
L 720.183935 330.577338 
L 738.240815 333.896399 
L 756.297695 333.036938 
L 774.354575 331.162486 
L 792.411455 316.964824 
L 810.468335 327.426621 
L 828.525215 314.273124 
L 846.582095 312.182874 
L 864.638975 311.762281 
L 882.695855 304.976632 
L 900.752735 297.78753 
L 918.809615 300.491051 
L 936.866495 297.434765 
L 954.923375 308.413755 
" clip-path="url(#p004b235f59)" style="fill: none; stroke: #e2321d; stroke-width: 1.5; stroke-linecap: square"/>
   </g>
   <g id="line2d_54">
    <path d="M 52.079375 223.290516 
L 70.136255 242.225502 
L 88.193135 227.832634 
L 106.250015 232.995523 
L 124.306895 229.692642 
L 142.363775 203.285558 
L 160.420655 200.360945 
L 178.477535 210.542808 
L 232.648175 215.037105 
L 250.705055 230.054478 
L 268.761935 221.964246 
L 286.818815 192.382531 
L 304.875695 187.174517 
L 322.932575 189.839997 
L 340.989455 166.035423 
L 359.046335 158.528513 
L 377.103215 156.542569 
L 395.160095 162.854639 
L 413.216975 178.737557 
L 431.273855 199.695693 
L 449.330735 204.606715 
L 467.387615 179.096196 
L 485.444495 184.82632 
L 503.501375 191.258987 
L 521.558255 188.908633 
L 539.615135 156.845318 
L 557.672015 181.319097 
L 575.728895 178.43187 
L 593.785775 164.136142 
L 611.842655 132.872343 
L 629.899535 131.57235 
L 647.956415 125.483101 
L 666.013295 127.514753 
L 684.070175 106.001095 
L 702.127055 115.0071 
L 720.183935 122.59074 
L 738.240815 129.921369 
L 756.297695 119.833748 
L 774.354575 93.462429 
L 792.411455 80.396219 
L 810.468335 48.118974 
L 828.525215 64.425274 
L 846.582095 75.429849 
L 864.638975 68.197682 
L 882.695855 84.896298 
L 900.752735 106.30685 
L 918.809615 87.728876 
L 936.866495 84.578894 
L 954.923375 83.186879 
" clip-path="url(#p004b235f59)" style="fill: none; stroke: #48b585; stroke-width: 6; stroke-linecap: square"/>
   </g>
   <g id="patch_3">
    <path d="M 52.079375 567.74175 
L 52.079375 24.14175 
" style="fill: none; stroke: #ffffff; stroke-linejoin: miter; stroke-linecap: square"/>
   </g>
   <g id="patch_4">
    <path d="M 954.923375 567.74175 
L 954.923375 24.14175 
" style="fill: none; stroke: #ffffff; stroke-linejoin: miter; stroke-linecap: square"/>
   </g>
   <g id="patch_5">
    <path d="M 52.079375 567.74175 
L 954.923375 567.74175 
" style="fill: none; stroke: #ffffff; stroke-linejoin: miter; stroke-linecap: square"/>
   </g>
   <g id="patch_6">
    <path d="M 52.079375 24.14175 
L 954.923375 24.14175 
" style="fill: none; stroke: #ffffff; stroke-linejoin: miter; stroke-linecap: square"/>
   </g>
   <g id="text_24">
    <!-- Enterprise Linux 8 and 9 Instances by Distribution Share (System Age &gt; 1 Week) -->
    <g transform="translate(52.079375 18.14175)scale(0.144 -0.144)">
     <defs>
      <path id="DejaVuSans-45" d="M 628 4666 
L 3578 4666 
L 3578 4134 
L 1259 4134 
L 1259 2753 
L 3481 2753 
L 3481 2222 
L 1259 2222 
L 1259 531 
L 3634 531 
L 3634 0 
L 628 0 
L 628 4666 
z
" transform="scale(0.015625)"/>
      <path id="DejaVuSans-6e" d="M 3513 2113 
L 3513 0 
L 2938 0 
L 2938 2094 
Q 2938 2591 2744 2837 
Q 2550 3084 2163 3084 
Q 1697 3084 1428 2787 
Q 1159 2491 1159 1978 
L 1159 0 
L 581 0 
L 581 3500 
L 1159 3500 
L 1159 2956 
Q 1366 3272 1645 3428 
Q 1925 3584 2291 3584 
Q 2894 3584 3203 3211 
Q 3513 2838 3513 2113 
z
" transform="scale(0.015625)"/>
      <path id="DejaVuSans-70" d="M 1159 525 
L 1159 -1331 
L 581 -1331 
L 581 3500 
L 1159 3500 
L 1159 2969 
Q 1341 3281 1617 3432 
Q 1894 3584 2278 3584 
Q 2916 3584 3314 3078 
Q 3713 2572 3713 1747 
Q 3713 922 3314 415 
Q 2916 -91 2278 -91 
Q 1894 -91 1617 61 
Q 1341 213 1159 525 
z
M 3116 1747 
Q 3116 2381 2855 2742 
Q 2594 3103 2138 3103 
Q 1681 3103 1420 2742 
Q 1159 2381 1159 1747 
Q 1159 1113 1420 752 
Q 1681 391 2138 391 
Q 2594 391 2855 752 
Q 3116 1113 3116 1747 
z
" transform="scale(0.015625)"/>
      <path id="DejaVuSans-69" d="M 603 3500 
L 1178 3500 
L 1178 0 
L 603 0 
L 603 3500 
z
M 603 4863 
L 1178 4863 
L 1178 4134 
L 603 4134 
L 603 4863 
z
" transform="scale(0.015625)"/>
      <path id="DejaVuSans-73" d="M 2834 3397 
L 2834 2853 
Q 2591 2978 2328 3040 
Q 2066 3103 1784 3103 
Q 1356 3103 1142 2972 
Q 928 2841 928 2578 
Q 928 2378 1081 2264 
Q 1234 2150 1697 2047 
L 1894 2003 
Q 2506 1872 2764 1633 
Q 3022 1394 3022 966 
Q 3022 478 2636 193 
Q 2250 -91 1575 -91 
Q 1294 -91 989 -36 
Q 684 19 347 128 
L 347 722 
Q 666 556 975 473 
Q 1284 391 1588 391 
Q 1994 391 2212 530 
Q 2431 669 2431 922 
Q 2431 1156 2273 1281 
Q 2116 1406 1581 1522 
L 1381 1569 
Q 847 1681 609 1914 
Q 372 2147 372 2553 
Q 372 3047 722 3315 
Q 1072 3584 1716 3584 
Q 2034 3584 2315 3537 
Q 2597 3491 2834 3397 
z
" transform="scale(0.015625)"/>
      <path id="DejaVuSans-20" transform="scale(0.015625)"/>
      <path id="DejaVuSans-4c" d="M 628 4666 
L 1259 4666 
L 1259 531 
L 3531 531 
L 3531 0 
L 628 0 
L 628 4666 
z
" transform="scale(0.015625)"/>
      <path id="DejaVuSans-75" d="M 544 1381 
L 544 3500 
L 1119 3500 
L 1119 1403 
Q 1119 906 1312 657 
Q 1506 409 1894 409 
Q 2359 409 2629 706 
Q 2900 1003 2900 1516 
L 2900 3500 
L 3475 3500 
L 3475 0 
L 2900 0 
L 2900 538 
Q 2691 219 2414 64 
Q 2138 -91 1772 -91 
Q 1169 -91 856 284 
Q 544 659 544 1381 
z
M 1991 3584 
L 1991 3584 
z
" transform="scale(0.015625)"/>
      <path id="DejaVuSans-78" d="M 3513 3500 
L 2247 1797 
L 3578 0 
L 2900 0 
L 1881 1375 
L 863 0 
L 184 0 
L 1544 1831 
L 300 3500 
L 978 3500 
L 1906 2253 
L 2834 3500 
L 3513 3500 
z
" transform="scale(0.015625)"/>
      <path id="DejaVuSans-64" d="M 2906 2969 
L 2906 4863 
L 3481 4863 
L 3481 0 
L 2906 0 
L 2906 525 
Q 2725 213 2448 61 
Q 2172 -91 1784 -91 
Q 1150 -91 751 415 
Q 353 922 353 1747 
Q 353 2572 751 3078 
Q 1150 3584 1784 3584 
Q 2172 3584 2448 3432 
Q 2725 3281 2906 2969 
z
M 947 1747 
Q 947 1113 1208 752 
Q 1469 391 1925 391 
Q 2381 391 2643 752 
Q 2906 1113 2906 1747 
Q 2906 2381 2643 2742 
Q 2381 3103 1925 3103 
Q 1469 3103 1208 2742 
Q 947 2381 947 1747 
z
" transform="scale(0.015625)"/>
      <path id="DejaVuSans-49" d="M 628 4666 
L 1259 4666 
L 1259 0 
L 628 0 
L 628 4666 
z
" transform="scale(0.015625)"/>
      <path id="DejaVuSans-63" d="M 3122 3366 
L 3122 2828 
Q 2878 2963 2633 3030 
Q 2388 3097 2138 3097 
Q 1578 3097 1268 2742 
Q 959 2388 959 1747 
Q 959 1106 1268 751 
Q 1578 397 2138 397 
Q 2388 397 2633 464 
Q 2878 531 3122 666 
L 3122 134 
Q 2881 22 2623 -34 
Q 2366 -91 2075 -91 
Q 1284 -91 818 406 
Q 353 903 353 1747 
Q 353 2603 823 3093 
Q 1294 3584 2113 3584 
Q 2378 3584 2631 3529 
Q 2884 3475 3122 3366 
z
" transform="scale(0.015625)"/>
      <path id="DejaVuSans-62" d="M 3116 1747 
Q 3116 2381 2855 2742 
Q 2594 3103 2138 3103 
Q 1681 3103 1420 2742 
Q 1159 2381 1159 1747 
Q 1159 1113 1420 752 
Q 1681 391 2138 391 
Q 2594 391 2855 752 
Q 3116 1113 3116 1747 
z
M 1159 2969 
Q 1341 3281 1617 3432 
Q 1894 3584 2278 3584 
Q 2916 3584 3314 3078 
Q 3713 2572 3713 1747 
Q 3713 922 3314 415 
Q 2916 -91 2278 -91 
Q 1894 -91 1617 61 
Q 1341 213 1159 525 
L 1159 0 
L 581 0 
L 581 4863 
L 1159 4863 
L 1159 2969 
z
" transform="scale(0.015625)"/>
      <path id="DejaVuSans-79" d="M 2059 -325 
Q 1816 -950 1584 -1140 
Q 1353 -1331 966 -1331 
L 506 -1331 
L 506 -850 
L 844 -850 
Q 1081 -850 1212 -737 
Q 1344 -625 1503 -206 
L 1606 56 
L 191 3500 
L 800 3500 
L 1894 763 
L 2988 3500 
L 3597 3500 
L 2059 -325 
z
" transform="scale(0.015625)"/>
      <path id="DejaVuSans-6f" d="M 1959 3097 
Q 1497 3097 1228 2736 
Q 959 2375 959 1747 
Q 959 1119 1226 758 
Q 1494 397 1959 397 
Q 2419 397 2687 759 
Q 2956 1122 2956 1747 
Q 2956 2369 2687 2733 
Q 2419 3097 1959 3097 
z
M 1959 3584 
Q 2709 3584 3137 3096 
Q 3566 2609 3566 1747 
Q 3566 888 3137 398 
Q 2709 -91 1959 -91 
Q 1206 -91 779 398 
Q 353 888 353 1747 
Q 353 2609 779 3096 
Q 1206 3584 1959 3584 
z
" transform="scale(0.015625)"/>
      <path id="DejaVuSans-28" d="M 1984 4856 
Q 1566 4138 1362 3434 
Q 1159 2731 1159 2009 
Q 1159 1288 1364 580 
Q 1569 -128 1984 -844 
L 1484 -844 
Q 1016 -109 783 600 
Q 550 1309 550 2009 
Q 550 2706 781 3412 
Q 1013 4119 1484 4856 
L 1984 4856 
z
" transform="scale(0.015625)"/>
      <path id="DejaVuSans-6d" d="M 3328 2828 
Q 3544 3216 3844 3400 
Q 4144 3584 4550 3584 
Q 5097 3584 5394 3201 
Q 5691 2819 5691 2113 
L 5691 0 
L 5113 0 
L 5113 2094 
Q 5113 2597 4934 2840 
Q 4756 3084 4391 3084 
Q 3944 3084 3684 2787 
Q 3425 2491 3425 1978 
L 3425 0 
L 2847 0 
L 2847 2094 
Q 2847 2600 2669 2842 
Q 2491 3084 2119 3084 
Q 1678 3084 1418 2786 
Q 1159 2488 1159 1978 
L 1159 0 
L 581 0 
L 581 3500 
L 1159 3500 
L 1159 2956 
Q 1356 3278 1631 3431 
Q 1906 3584 2284 3584 
Q 2666 3584 2933 3390 
Q 3200 3197 3328 2828 
z
" transform="scale(0.015625)"/>
      <path id="DejaVuSans-41" d="M 2188 4044 
L 1331 1722 
L 3047 1722 
L 2188 4044 
z
M 1831 4666 
L 2547 4666 
L 4325 0 
L 3669 0 
L 3244 1197 
L 1141 1197 
L 716 0 
L 50 0 
L 1831 4666 
z
" transform="scale(0.015625)"/>
      <path id="DejaVuSans-67" d="M 2906 1791 
Q 2906 2416 2648 2759 
Q 2391 3103 1925 3103 
Q 1463 3103 1205 2759 
Q 947 2416 947 1791 
Q 947 1169 1205 825 
Q 1463 481 1925 481 
Q 2391 481 2648 825 
Q 2906 1169 2906 1791 
z
M 3481 434 
Q 3481 -459 3084 -895 
Q 2688 -1331 1869 -1331 
Q 1566 -1331 1297 -1286 
Q 1028 -1241 775 -1147 
L 775 -588 
Q 1028 -725 1275 -790 
Q 1522 -856 1778 -856 
Q 2344 -856 2625 -561 
Q 2906 -266 2906 331 
L 2906 616 
Q 2728 306 2450 153 
Q 2172 0 1784 0 
Q 1141 0 747 490 
Q 353 981 353 1791 
Q 353 2603 747 3093 
Q 1141 3584 1784 3584 
Q 2172 3584 2450 3431 
Q 2728 3278 2906 2969 
L 2906 3500 
L 3481 3500 
L 3481 434 
z
" transform="scale(0.015625)"/>
      <path id="DejaVuSans-3e" d="M 678 3150 
L 678 3719 
L 4684 2266 
L 4684 1747 
L 678 294 
L 678 863 
L 3897 2003 
L 678 3150 
z
" transform="scale(0.015625)"/>
      <path id="DejaVuSans-57" d="M 213 4666 
L 850 4666 
L 1831 722 
L 2809 4666 
L 3519 4666 
L 4500 722 
L 5478 4666 
L 6119 4666 
L 4947 0 
L 4153 0 
L 3169 4050 
L 2175 0 
L 1381 0 
L 213 4666 
z
" transform="scale(0.015625)"/>
      <path id="DejaVuSans-6b" d="M 581 4863 
L 1159 4863 
L 1159 1991 
L 2875 3500 
L 3609 3500 
L 1753 1863 
L 3688 0 
L 2938 0 
L 1159 1709 
L 1159 0 
L 581 0 
L 581 4863 
z
" transform="scale(0.015625)"/>
      <path id="DejaVuSans-29" d="M 513 4856 
L 1013 4856 
Q 1481 4119 1714 3412 
Q 1947 2706 1947 2009 
Q 1947 1309 1714 600 
Q 1481 -109 1013 -844 
L 513 -844 
Q 928 -128 1133 580 
Q 1338 1288 1338 2009 
Q 1338 2731 1133 3434 
Q 928 4138 513 4856 
z
" transform="scale(0.015625)"/>
     </defs>
     <use xlink:href="#DejaVuSans-45"/>
     <use xlink:href="#DejaVuSans-6e" x="63.183594"/>
     <use xlink:href="#DejaVuSans-74" x="126.5625"/>
     <use xlink:href="#DejaVuSans-65" x="165.771484"/>
     <use xlink:href="#DejaVuSans-72" x="227.294922"/>
     <use xlink:href="#DejaVuSans-70" x="268.408203"/>
     <use xlink:href="#DejaVuSans-72" x="331.884766"/>
     <use xlink:href="#DejaVuSans-69" x="372.998047"/>
     <use xlink:href="#DejaVuSans-73" x="400.78125"/>
     <use xlink:href="#DejaVuSans-65" x="452.880859"/>
     <use xlink:href="#DejaVuSans-20" x="514.404297"/>
     <use xlink:href="#DejaVuSans-4c" x="546.191406"/>
     <use xlink:href="#DejaVuSans-69" x="601.904297"/>
     <use xlink:href="#DejaVuSans-6e" x="629.6875"/>
     <use xlink:href="#DejaVuSans-75" x="693.066406"/>
     <use xlink:href="#DejaVuSans-78" x="756.445312"/>
     <use xlink:href="#DejaVuSans-20" x="815.625"/>
     <use xlink:href="#DejaVuSans-38" x="847.412109"/>
     <use xlink:href="#DejaVuSans-20" x="911.035156"/>
     <use xlink:href="#DejaVuSans-61" x="942.822266"/>
     <use xlink:href="#DejaVuSans-6e" x="1004.101562"/>
     <use xlink:href="#DejaVuSans-64" x="1067.480469"/>
     <use xlink:href="#DejaVuSans-20" x="1130.957031"/>
     <use xlink:href="#DejaVuSans-39" x="1162.744141"/>
     <use xlink:href="#DejaVuSans-20" x="1226.367188"/>
     <use xlink:href="#DejaVuSans-49" x="1258.154297"/>
     <use xlink:href="#DejaVuSans-6e" x="1287.646484"/>
     <use xlink:href="#DejaVuSans-73" x="1351.025391"/>
     <use xlink:href="#DejaVuSans-74" x="1403.125"/>
     <use xlink:href="#DejaVuSans-61" x="1442.333984"/>
     <use xlink:href="#DejaVuSans-6e" x="1503.613281"/>
     <use xlink:href="#DejaVuSans-63" x="1566.992188"/>
     <use xlink:href="#DejaVuSans-65" x="1621.972656"/>
     <use xlink:href="#DejaVuSans-73" x="1683.496094"/>
     <use xlink:href="#DejaVuSans-20" x="1735.595703"/>
     <use xlink:href="#DejaVuSans-62" x="1767.382812"/>
     <use xlink:href="#DejaVuSans-79" x="1830.859375"/>
     <use xlink:href="#DejaVuSans-20" x="1890.039062"/>
     <use xlink:href="#DejaVuSans-44" x="1921.826172"/>
     <use xlink:href="#DejaVuSans-69" x="1998.828125"/>
     <use xlink:href="#DejaVuSans-73" x="2026.611328"/>
     <use xlink:href="#DejaVuSans-74" x="2078.710938"/>
     <use xlink:href="#DejaVuSans-72" x="2117.919922"/>
     <use xlink:href="#DejaVuSans-69" x="2159.033203"/>
     <use xlink:href="#DejaVuSans-62" x="2186.816406"/>
     <use xlink:href="#DejaVuSans-75" x="2250.292969"/>
     <use xlink:href="#DejaVuSans-74" x="2313.671875"/>
     <use xlink:href="#DejaVuSans-69" x="2352.880859"/>
     <use xlink:href="#DejaVuSans-6f" x="2380.664062"/>
     <use xlink:href="#DejaVuSans-6e" x="2441.845703"/>
     <use xlink:href="#DejaVuSans-20" x="2505.224609"/>
     <use xlink:href="#DejaVuSans-53" x="2537.011719"/>
     <use xlink:href="#DejaVuSans-68" x="2600.488281"/>
     <use xlink:href="#DejaVuSans-61" x="2663.867188"/>
     <use xlink:href="#DejaVuSans-72" x="2725.146484"/>
     <use xlink:href="#DejaVuSans-65" x="2764.009766"/>
     <use xlink:href="#DejaVuSans-20" x="2825.533203"/>
     <use xlink:href="#DejaVuSans-28" x="2857.320312"/>
     <use xlink:href="#DejaVuSans-53" x="2896.333984"/>
     <use xlink:href="#DejaVuSans-79" x="2959.810547"/>
     <use xlink:href="#DejaVuSans-73" x="3018.990234"/>
     <use xlink:href="#DejaVuSans-74" x="3071.089844"/>
     <use xlink:href="#DejaVuSans-65" x="3110.298828"/>
     <use xlink:href="#DejaVuSans-6d" x="3171.822266"/>
     <use xlink:href="#DejaVuSans-20" x="3269.234375"/>
     <use xlink:href="#DejaVuSans-41" x="3301.021484"/>
     <use xlink:href="#DejaVuSans-67" x="3369.429688"/>
     <use xlink:href="#DejaVuSans-65" x="3432.90625"/>
     <use xlink:href="#DejaVuSans-20" x="3494.429688"/>
     <use xlink:href="#DejaVuSans-3e" x="3526.216797"/>
     <use xlink:href="#DejaVuSans-20" x="3610.005859"/>
     <use xlink:href="#DejaVuSans-31" x="3641.792969"/>
     <use xlink:href="#DejaVuSans-20" x="3705.416016"/>
     <use xlink:href="#DejaVuSans-57" x="3737.203125"/>
     <use xlink:href="#DejaVuSans-65" x="3830.205078"/>
     <use xlink:href="#DejaVuSans-65" x="3891.728516"/>
     <use xlink:href="#DejaVuSans-6b" x="3953.251953"/>
     <use xlink:href="#DejaVuSans-29" x="4011.162109"/>
    </g>
   </g>
   <g id="text_25">
    <!-- 2024-08-29 11:54 UTC -->
    <g transform="translate(792.041375 18.14175)scale(0.144 -0.144)">
     <defs>
      <path id="DejaVuSans-3a" d="M 750 794 
L 1409 794 
L 1409 0 
L 750 0 
L 750 794 
z
M 750 3309 
L 1409 3309 
L 1409 2516 
L 750 2516 
L 750 3309 
z
" transform="scale(0.015625)"/>
      <path id="DejaVuSans-55" d="M 556 4666 
L 1191 4666 
L 1191 1831 
Q 1191 1081 1462 751 
Q 1734 422 2344 422 
Q 2950 422 3222 751 
Q 3494 1081 3494 1831 
L 3494 4666 
L 4128 4666 
L 4128 1753 
Q 4128 841 3676 375 
Q 3225 -91 2344 -91 
Q 1459 -91 1007 375 
Q 556 841 556 1753 
L 556 4666 
z
" transform="scale(0.015625)"/>
      <path id="DejaVuSans-54" d="M -19 4666 
L 3928 4666 
L 3928 4134 
L 2272 4134 
L 2272 0 
L 1638 0 
L 1638 4134 
L -19 4134 
L -19 4666 
z
" transform="scale(0.015625)"/>
      <path id="DejaVuSans-43" d="M 4122 4306 
L 4122 3641 
Q 3803 3938 3442 4084 
Q 3081 4231 2675 4231 
Q 1875 4231 1450 3742 
Q 1025 3253 1025 2328 
Q 1025 1406 1450 917 
Q 1875 428 2675 428 
Q 3081 428 3442 575 
Q 3803 722 4122 1019 
L 4122 359 
Q 3791 134 3420 21 
Q 3050 -91 2638 -91 
Q 1578 -91 968 557 
Q 359 1206 359 2328 
Q 359 3453 968 4101 
Q 1578 4750 2638 4750 
Q 3056 4750 3426 4639 
Q 3797 4528 4122 4306 
z
" transform="scale(0.015625)"/>
     </defs>
     <use xlink:href="#DejaVuSans-32"/>
     <use xlink:href="#DejaVuSans-30" x="63.623047"/>
     <use xlink:href="#DejaVuSans-32" x="127.246094"/>
     <use xlink:href="#DejaVuSans-34" x="190.869141"/>
     <use xlink:href="#DejaVuSans-2d" x="254.492188"/>
     <use xlink:href="#DejaVuSans-30" x="290.576172"/>
     <use xlink:href="#DejaVuSans-38" x="354.199219"/>
     <use xlink:href="#DejaVuSans-2d" x="417.822266"/>
     <use xlink:href="#DejaVuSans-32" x="453.90625"/>
     <use xlink:href="#DejaVuSans-39" x="517.529297"/>
     <use xlink:href="#DejaVuSans-20" x="581.152344"/>
     <use xlink:href="#DejaVuSans-31" x="612.939453"/>
     <use xlink:href="#DejaVuSans-31" x="676.5625"/>
     <use xlink:href="#DejaVuSans-3a" x="740.185547"/>
     <use xlink:href="#DejaVuSans-35" x="773.876953"/>
     <use xlink:href="#DejaVuSans-34" x="837.5"/>
     <use xlink:href="#DejaVuSans-20" x="901.123047"/>
     <use xlink:href="#DejaVuSans-55" x="932.910156"/>
     <use xlink:href="#DejaVuSans-54" x="1006.103516"/>
     <use xlink:href="#DejaVuSans-43" x="1061.3125"/>
    </g>
   </g>
   <g id="legend_1">
    <g id="patch_7">
     <path d="M 59.079375 134.888625 
L 168.048125 134.888625 
Q 170.048125 134.888625 170.048125 132.888625 
L 170.048125 31.14175 
Q 170.048125 29.14175 168.048125 29.14175 
L 59.079375 29.14175 
Q 57.079375 29.14175 57.079375 31.14175 
L 57.079375 132.888625 
Q 57.079375 134.888625 59.079375 134.888625 
z
" style="fill: #e5e5e5; opacity: 0.8; stroke: #cccccc; stroke-width: 0.5; stroke-linejoin: miter"/>
    </g>
    <g id="text_26">
     <!-- Distribution -->
     <g transform="translate(84.395 40.740187)scale(0.1 -0.1)">
      <use xlink:href="#DejaVuSans-44"/>
      <use xlink:href="#DejaVuSans-69" x="77.001953"/>
      <use xlink:href="#DejaVuSans-73" x="104.785156"/>
      <use xlink:href="#DejaVuSans-74" x="156.884766"/>
      <use xlink:href="#DejaVuSans-72" x="196.09375"/>
      <use xlink:href="#DejaVuSans-69" x="237.207031"/>
      <use xlink:href="#DejaVuSans-62" x="264.990234"/>
      <use xlink:href="#DejaVuSans-75" x="328.466797"/>
      <use xlink:href="#DejaVuSans-74" x="391.845703"/>
      <use xlink:href="#DejaVuSans-69" x="431.054688"/>
      <use xlink:href="#DejaVuSans-6f" x="458.837891"/>
      <use xlink:href="#DejaVuSans-6e" x="520.019531"/>
     </g>
    </g>
    <g id="line2d_55">
     <path d="M 61.079375 51.918312 
L 71.079375 51.918312 
L 81.079375 51.918312 
" style="fill: none; stroke: #4ac1fa; stroke-width: 1.5; stroke-linecap: square"/>
    </g>
    <g id="text_27">
     <!-- AlmaLinux -->
     <g transform="translate(89.079375 55.418312)scale(0.1 -0.1)">
      <defs>
       <path id="DejaVuSans-6c" d="M 603 4863 
L 1178 4863 
L 1178 0 
L 603 0 
L 603 4863 
z
" transform="scale(0.015625)"/>
      </defs>
      <use xlink:href="#DejaVuSans-41"/>
      <use xlink:href="#DejaVuSans-6c" x="68.408203"/>
      <use xlink:href="#DejaVuSans-6d" x="96.191406"/>
      <use xlink:href="#DejaVuSans-61" x="193.603516"/>
      <use xlink:href="#DejaVuSans-4c" x="254.882812"/>
      <use xlink:href="#DejaVuSans-69" x="310.595703"/>
      <use xlink:href="#DejaVuSans-6e" x="338.378906"/>
      <use xlink:href="#DejaVuSans-75" x="401.757812"/>
      <use xlink:href="#DejaVuSans-78" x="465.136719"/>
     </g>
    </g>
    <g id="line2d_56">
     <path d="M 61.079375 66.596437 
L 71.079375 66.596437 
L 81.079375 66.596437 
" style="fill: none; stroke: #e9a942; stroke-width: 1.5; stroke-linecap: square"/>
    </g>
    <g id="text_28">
     <!-- CentOS Legacy -->
     <g transform="translate(89.079375 70.096437)scale(0.1 -0.1)">
      <defs>
       <path id="DejaVuSans-4f" d="M 2522 4238 
Q 1834 4238 1429 3725 
Q 1025 3213 1025 2328 
Q 1025 1447 1429 934 
Q 1834 422 2522 422 
Q 3209 422 3611 934 
Q 4013 1447 4013 2328 
Q 4013 3213 3611 3725 
Q 3209 4238 2522 4238 
z
M 2522 4750 
Q 3503 4750 4090 4092 
Q 4678 3434 4678 2328 
Q 4678 1225 4090 567 
Q 3503 -91 2522 -91 
Q 1538 -91 948 565 
Q 359 1222 359 2328 
Q 359 3434 948 4092 
Q 1538 4750 2522 4750 
z
" transform="scale(0.015625)"/>
      </defs>
      <use xlink:href="#DejaVuSans-43"/>
      <use xlink:href="#DejaVuSans-65" x="69.824219"/>
      <use xlink:href="#DejaVuSans-6e" x="131.347656"/>
      <use xlink:href="#DejaVuSans-74" x="194.726562"/>
      <use xlink:href="#DejaVuSans-4f" x="233.935547"/>
      <use xlink:href="#DejaVuSans-53" x="312.646484"/>
      <use xlink:href="#DejaVuSans-20" x="376.123047"/>
      <use xlink:href="#DejaVuSans-4c" x="407.910156"/>
      <use xlink:href="#DejaVuSans-65" x="461.873047"/>
      <use xlink:href="#DejaVuSans-67" x="523.396484"/>
      <use xlink:href="#DejaVuSans-61" x="586.873047"/>
      <use xlink:href="#DejaVuSans-63" x="648.152344"/>
      <use xlink:href="#DejaVuSans-79" x="703.132812"/>
     </g>
    </g>
    <g id="line2d_57">
     <path d="M 61.079375 81.274563 
L 71.079375 81.274563 
L 81.079375 81.274563 
" style="fill: none; stroke: #9a5689; stroke-width: 1.5; stroke-linecap: square"/>
    </g>
    <g id="text_29">
     <!-- CentOS Stream -->
     <g transform="translate(89.079375 84.774563)scale(0.1 -0.1)">
      <use xlink:href="#DejaVuSans-43"/>
      <use xlink:href="#DejaVuSans-65" x="69.824219"/>
      <use xlink:href="#DejaVuSans-6e" x="131.347656"/>
      <use xlink:href="#DejaVuSans-74" x="194.726562"/>
      <use xlink:href="#DejaVuSans-4f" x="233.935547"/>
      <use xlink:href="#DejaVuSans-53" x="312.646484"/>
      <use xlink:href="#DejaVuSans-20" x="376.123047"/>
      <use xlink:href="#DejaVuSans-53" x="407.910156"/>
      <use xlink:href="#DejaVuSans-74" x="471.386719"/>
      <use xlink:href="#DejaVuSans-72" x="510.595703"/>
      <use xlink:href="#DejaVuSans-65" x="549.458984"/>
      <use xlink:href="#DejaVuSans-61" x="610.982422"/>
      <use xlink:href="#DejaVuSans-6d" x="672.261719"/>
     </g>
    </g>
    <g id="line2d_58">
     <path d="M 61.079375 95.952687 
L 71.079375 95.952687 
L 81.079375 95.952687 
" style="fill: none; stroke: #be503b; stroke-width: 1.5; stroke-linecap: square"/>
    </g>
    <g id="text_30">
     <!-- Oracle -->
     <g transform="translate(89.079375 99.452687)scale(0.1 -0.1)">
      <use xlink:href="#DejaVuSans-4f"/>
      <use xlink:href="#DejaVuSans-72" x="78.710938"/>
      <use xlink:href="#DejaVuSans-61" x="119.824219"/>
      <use xlink:href="#DejaVuSans-63" x="181.103516"/>
      <use xlink:href="#DejaVuSans-6c" x="236.083984"/>
      <use xlink:href="#DejaVuSans-65" x="263.867188"/>
     </g>
    </g>
    <g id="line2d_59">
     <path d="M 61.079375 110.630812 
L 71.079375 110.630812 
L 81.079375 110.630812 
" style="fill: none; stroke: #e2321d; stroke-width: 1.5; stroke-linecap: square"/>
    </g>
    <g id="text_31">
     <!-- RHEL -->
     <g transform="translate(89.079375 114.130812)scale(0.1 -0.1)">
      <defs>
       <path id="DejaVuSans-52" d="M 2841 2188 
Q 3044 2119 3236 1894 
Q 3428 1669 3622 1275 
L 4263 0 
L 3584 0 
L 2988 1197 
Q 2756 1666 2539 1819 
Q 2322 1972 1947 1972 
L 1259 1972 
L 1259 0 
L 628 0 
L 628 4666 
L 2053 4666 
Q 2853 4666 3247 4331 
Q 3641 3997 3641 3322 
Q 3641 2881 3436 2590 
Q 3231 2300 2841 2188 
z
M 1259 4147 
L 1259 2491 
L 2053 2491 
Q 2509 2491 2742 2702 
Q 2975 2913 2975 3322 
Q 2975 3731 2742 3939 
Q 2509 4147 2053 4147 
L 1259 4147 
z
" transform="scale(0.015625)"/>
       <path id="DejaVuSans-48" d="M 628 4666 
L 1259 4666 
L 1259 2753 
L 3553 2753 
L 3553 4666 
L 4184 4666 
L 4184 0 
L 3553 0 
L 3553 2222 
L 1259 2222 
L 1259 0 
L 628 0 
L 628 4666 
z
" transform="scale(0.015625)"/>
      </defs>
      <use xlink:href="#DejaVuSans-52"/>
      <use xlink:href="#DejaVuSans-48" x="69.482422"/>
      <use xlink:href="#DejaVuSans-45" x="144.677734"/>
      <use xlink:href="#DejaVuSans-4c" x="207.861328"/>
     </g>
    </g>
    <g id="line2d_60">
     <path d="M 61.079375 125.308937 
L 71.079375 125.308937 
L 81.079375 125.308937 
" style="fill: none; stroke: #48b585; stroke-width: 6; stroke-linecap: square"/>
    </g>
    <g id="text_32">
     <!-- Rocky Linux -->
     <g transform="translate(89.079375 128.808937)scale(0.1 -0.1)">
      <use xlink:href="#DejaVuSans-52"/>
      <use xlink:href="#DejaVuSans-6f" x="64.982422"/>
      <use xlink:href="#DejaVuSans-63" x="126.164062"/>
      <use xlink:href="#DejaVuSans-6b" x="181.144531"/>
      <use xlink:href="#DejaVuSans-79" x="235.429688"/>
      <use xlink:href="#DejaVuSans-20" x="294.609375"/>
      <use xlink:href="#DejaVuSans-4c" x="326.396484"/>
      <use xlink:href="#DejaVuSans-69" x="382.109375"/>
      <use xlink:href="#DejaVuSans-6e" x="409.892578"/>
      <use xlink:href="#DejaVuSans-75" x="473.271484"/>
      <use xlink:href="#DejaVuSans-78" x="536.650391"/>
     </g>
    </g>
   </g>
  </g>
 </g>
 <defs>
  <clipPath id="p004b235f59">
   <rect x="52.079375" y="24.14175" width="902.844" height="543.6"/>
  </clipPath>
 </defs>
</svg>
