<?xml version="1.0" encoding="utf-8" standalone="no"?>
<!DOCTYPE svg PUBLIC "-//W3C//DTD SVG 1.1//EN"
  "http://www.w3.org/Graphics/SVG/1.1/DTD/svg11.dtd">
<svg xmlns:xlink="http://www.w3.org/1999/xlink" width="974.2765pt" height="633.943878pt" viewBox="0 0 974.2765 633.943878" xmlns="http://www.w3.org/2000/svg" version="1.1">
 <metadata>
  <rdf:RDF xmlns:dc="http://purl.org/dc/elements/1.1/" xmlns:cc="http://creativecommons.org/ns#" xmlns:rdf="http://www.w3.org/1999/02/22-rdf-syntax-ns#">
   <cc:Work>
    <dc:type rdf:resource="http://purl.org/dc/dcmitype/StillImage"/>
    <dc:date>2024-10-01T15:39:11.630992</dc:date>
    <dc:format>image/svg+xml</dc:format>
    <dc:creator>
     <cc:Agent>
      <dc:title>Matplotlib v3.5.1, https://matplotlib.org/</dc:title>
     </cc:Agent>
    </dc:creator>
   </cc:Work>
  </rdf:RDF>
 </metadata>
 <defs>
  <style type="text/css">*{stroke-linejoin: round; stroke-linecap: butt}</style>
 </defs>
 <g id="figure_1">
  <g id="patch_1">
   <path d="M 0 633.943878 
L 974.2765 633.943878 
L 974.2765 0 
L 0 0 
z
" style="fill: #ffffff"/>
  </g>
  <g id="axes_1">
   <g id="patch_2">
    <path d="M 64.2325 567.74175 
L 967.0765 567.74175 
L 967.0765 24.14175 
L 64.2325 24.14175 
z
" style="fill: #e5e5e5"/>
   </g>
   <g id="matplotlib.axis_1">
    <g id="xtick_1">
     <g id="line2d_1">
      <path d="M 108.084923 567.74175 
L 108.084923 24.14175 
" clip-path="url(#p577868aee8)" style="fill: none; stroke: #ffffff; stroke-width: 0.8; stroke-linecap: square"/>
     </g>
     <g id="line2d_2">
      <defs>
       <path id="m5114cf3700" d="M 0 0 
L 0 3.5 
" style="stroke: #555555; stroke-width: 0.8"/>
      </defs>
      <g>
       <use xlink:href="#m5114cf3700" x="108.084923" y="567.74175" style="fill: #555555; stroke: #555555; stroke-width: 0.8"/>
      </g>
     </g>
     <g id="text_1">
      <!-- 2023-10 -->
      <g style="fill: #555555" transform="translate(95.263641 609.659567)rotate(-45)scale(0.1 -0.1)">
       <defs>
        <path id="DejaVuSans-32" d="M 1228 531 
L 3431 531 
L 3431 0 
L 469 0 
L 469 531 
Q 828 903 1448 1529 
Q 2069 2156 2228 2338 
Q 2531 2678 2651 2914 
Q 2772 3150 2772 3378 
Q 2772 3750 2511 3984 
Q 2250 4219 1831 4219 
Q 1534 4219 1204 4116 
Q 875 4013 500 3803 
L 500 4441 
Q 881 4594 1212 4672 
Q 1544 4750 1819 4750 
Q 2544 4750 2975 4387 
Q 3406 4025 3406 3419 
Q 3406 3131 3298 2873 
Q 3191 2616 2906 2266 
Q 2828 2175 2409 1742 
Q 1991 1309 1228 531 
z
" transform="scale(0.015625)"/>
        <path id="DejaVuSans-30" d="M 2034 4250 
Q 1547 4250 1301 3770 
Q 1056 3291 1056 2328 
Q 1056 1369 1301 889 
Q 1547 409 2034 409 
Q 2525 409 2770 889 
Q 3016 1369 3016 2328 
Q 3016 3291 2770 3770 
Q 2525 4250 2034 4250 
z
M 2034 4750 
Q 2819 4750 3233 4129 
Q 3647 3509 3647 2328 
Q 3647 1150 3233 529 
Q 2819 -91 2034 -91 
Q 1250 -91 836 529 
Q 422 1150 422 2328 
Q 422 3509 836 4129 
Q 1250 4750 2034 4750 
z
" transform="scale(0.015625)"/>
        <path id="DejaVuSans-33" d="M 2597 2516 
Q 3050 2419 3304 2112 
Q 3559 1806 3559 1356 
Q 3559 666 3084 287 
Q 2609 -91 1734 -91 
Q 1441 -91 1130 -33 
Q 819 25 488 141 
L 488 750 
Q 750 597 1062 519 
Q 1375 441 1716 441 
Q 2309 441 2620 675 
Q 2931 909 2931 1356 
Q 2931 1769 2642 2001 
Q 2353 2234 1838 2234 
L 1294 2234 
L 1294 2753 
L 1863 2753 
Q 2328 2753 2575 2939 
Q 2822 3125 2822 3475 
Q 2822 3834 2567 4026 
Q 2313 4219 1838 4219 
Q 1578 4219 1281 4162 
Q 984 4106 628 3988 
L 628 4550 
Q 988 4650 1302 4700 
Q 1616 4750 1894 4750 
Q 2613 4750 3031 4423 
Q 3450 4097 3450 3541 
Q 3450 3153 3228 2886 
Q 3006 2619 2597 2516 
z
" transform="scale(0.015625)"/>
        <path id="DejaVuSans-2d" d="M 313 2009 
L 1997 2009 
L 1997 1497 
L 313 1497 
L 313 2009 
z
" transform="scale(0.015625)"/>
        <path id="DejaVuSans-31" d="M 794 531 
L 1825 531 
L 1825 4091 
L 703 3866 
L 703 4441 
L 1819 4666 
L 2450 4666 
L 2450 531 
L 3481 531 
L 3481 0 
L 794 0 
L 794 531 
z
" transform="scale(0.015625)"/>
       </defs>
       <use xlink:href="#DejaVuSans-32"/>
       <use xlink:href="#DejaVuSans-30" x="63.623047"/>
       <use xlink:href="#DejaVuSans-32" x="127.246094"/>
       <use xlink:href="#DejaVuSans-33" x="190.869141"/>
       <use xlink:href="#DejaVuSans-2d" x="254.492188"/>
       <use xlink:href="#DejaVuSans-31" x="290.576172"/>
       <use xlink:href="#DejaVuSans-30" x="354.199219"/>
      </g>
     </g>
    </g>
    <g id="xtick_2">
     <g id="line2d_3">
      <path d="M 188.051106 567.74175 
L 188.051106 24.14175 
" clip-path="url(#p577868aee8)" style="fill: none; stroke: #ffffff; stroke-width: 0.8; stroke-linecap: square"/>
     </g>
     <g id="line2d_4">
      <g>
       <use xlink:href="#m5114cf3700" x="188.051106" y="567.74175" style="fill: #555555; stroke: #555555; stroke-width: 0.8"/>
      </g>
     </g>
     <g id="text_2">
      <!-- 2023-11 -->
      <g style="fill: #555555" transform="translate(175.229823 609.659567)rotate(-45)scale(0.1 -0.1)">
       <use xlink:href="#DejaVuSans-32"/>
       <use xlink:href="#DejaVuSans-30" x="63.623047"/>
       <use xlink:href="#DejaVuSans-32" x="127.246094"/>
       <use xlink:href="#DejaVuSans-33" x="190.869141"/>
       <use xlink:href="#DejaVuSans-2d" x="254.492188"/>
       <use xlink:href="#DejaVuSans-31" x="290.576172"/>
       <use xlink:href="#DejaVuSans-31" x="354.199219"/>
      </g>
     </g>
    </g>
    <g id="xtick_3">
     <g id="line2d_5">
      <path d="M 265.437734 567.74175 
L 265.437734 24.14175 
" clip-path="url(#p577868aee8)" style="fill: none; stroke: #ffffff; stroke-width: 0.8; stroke-linecap: square"/>
     </g>
     <g id="line2d_6">
      <g>
       <use xlink:href="#m5114cf3700" x="265.437734" y="567.74175" style="fill: #555555; stroke: #555555; stroke-width: 0.8"/>
      </g>
     </g>
     <g id="text_3">
      <!-- 2023-12 -->
      <g style="fill: #555555" transform="translate(252.616452 609.659567)rotate(-45)scale(0.1 -0.1)">
       <use xlink:href="#DejaVuSans-32"/>
       <use xlink:href="#DejaVuSans-30" x="63.623047"/>
       <use xlink:href="#DejaVuSans-32" x="127.246094"/>
       <use xlink:href="#DejaVuSans-33" x="190.869141"/>
       <use xlink:href="#DejaVuSans-2d" x="254.492188"/>
       <use xlink:href="#DejaVuSans-31" x="290.576172"/>
       <use xlink:href="#DejaVuSans-32" x="354.199219"/>
      </g>
     </g>
    </g>
    <g id="xtick_4">
     <g id="line2d_7">
      <path d="M 345.403917 567.74175 
L 345.403917 24.14175 
" clip-path="url(#p577868aee8)" style="fill: none; stroke: #ffffff; stroke-width: 0.8; stroke-linecap: square"/>
     </g>
     <g id="line2d_8">
      <g>
       <use xlink:href="#m5114cf3700" x="345.403917" y="567.74175" style="fill: #555555; stroke: #555555; stroke-width: 0.8"/>
      </g>
     </g>
     <g id="text_4">
      <!-- 2024-01 -->
      <g style="fill: #555555" transform="translate(332.582635 609.659567)rotate(-45)scale(0.1 -0.1)">
       <defs>
        <path id="DejaVuSans-34" d="M 2419 4116 
L 825 1625 
L 2419 1625 
L 2419 4116 
z
M 2253 4666 
L 3047 4666 
L 3047 1625 
L 3713 1625 
L 3713 1100 
L 3047 1100 
L 3047 0 
L 2419 0 
L 2419 1100 
L 313 1100 
L 313 1709 
L 2253 4666 
z
" transform="scale(0.015625)"/>
       </defs>
       <use xlink:href="#DejaVuSans-32"/>
       <use xlink:href="#DejaVuSans-30" x="63.623047"/>
       <use xlink:href="#DejaVuSans-32" x="127.246094"/>
       <use xlink:href="#DejaVuSans-34" x="190.869141"/>
       <use xlink:href="#DejaVuSans-2d" x="254.492188"/>
       <use xlink:href="#DejaVuSans-30" x="290.576172"/>
       <use xlink:href="#DejaVuSans-31" x="354.199219"/>
      </g>
     </g>
    </g>
    <g id="xtick_5">
     <g id="line2d_9">
      <path d="M 425.3701 567.74175 
L 425.3701 24.14175 
" clip-path="url(#p577868aee8)" style="fill: none; stroke: #ffffff; stroke-width: 0.8; stroke-linecap: square"/>
     </g>
     <g id="line2d_10">
      <g>
       <use xlink:href="#m5114cf3700" x="425.3701" y="567.74175" style="fill: #555555; stroke: #555555; stroke-width: 0.8"/>
      </g>
     </g>
     <g id="text_5">
      <!-- 2024-02 -->
      <g style="fill: #555555" transform="translate(412.548818 609.659567)rotate(-45)scale(0.1 -0.1)">
       <use xlink:href="#DejaVuSans-32"/>
       <use xlink:href="#DejaVuSans-30" x="63.623047"/>
       <use xlink:href="#DejaVuSans-32" x="127.246094"/>
       <use xlink:href="#DejaVuSans-34" x="190.869141"/>
       <use xlink:href="#DejaVuSans-2d" x="254.492188"/>
       <use xlink:href="#DejaVuSans-30" x="290.576172"/>
       <use xlink:href="#DejaVuSans-32" x="354.199219"/>
      </g>
     </g>
    </g>
    <g id="xtick_6">
     <g id="line2d_11">
      <path d="M 500.177174 567.74175 
L 500.177174 24.14175 
" clip-path="url(#p577868aee8)" style="fill: none; stroke: #ffffff; stroke-width: 0.8; stroke-linecap: square"/>
     </g>
     <g id="line2d_12">
      <g>
       <use xlink:href="#m5114cf3700" x="500.177174" y="567.74175" style="fill: #555555; stroke: #555555; stroke-width: 0.8"/>
      </g>
     </g>
     <g id="text_6">
      <!-- 2024-03 -->
      <g style="fill: #555555" transform="translate(487.355892 609.659567)rotate(-45)scale(0.1 -0.1)">
       <use xlink:href="#DejaVuSans-32"/>
       <use xlink:href="#DejaVuSans-30" x="63.623047"/>
       <use xlink:href="#DejaVuSans-32" x="127.246094"/>
       <use xlink:href="#DejaVuSans-34" x="190.869141"/>
       <use xlink:href="#DejaVuSans-2d" x="254.492188"/>
       <use xlink:href="#DejaVuSans-30" x="290.576172"/>
       <use xlink:href="#DejaVuSans-33" x="354.199219"/>
      </g>
     </g>
    </g>
    <g id="xtick_7">
     <g id="line2d_13">
      <path d="M 580.143357 567.74175 
L 580.143357 24.14175 
" clip-path="url(#p577868aee8)" style="fill: none; stroke: #ffffff; stroke-width: 0.8; stroke-linecap: square"/>
     </g>
     <g id="line2d_14">
      <g>
       <use xlink:href="#m5114cf3700" x="580.143357" y="567.74175" style="fill: #555555; stroke: #555555; stroke-width: 0.8"/>
      </g>
     </g>
     <g id="text_7">
      <!-- 2024-04 -->
      <g style="fill: #555555" transform="translate(567.322075 609.659567)rotate(-45)scale(0.1 -0.1)">
       <use xlink:href="#DejaVuSans-32"/>
       <use xlink:href="#DejaVuSans-30" x="63.623047"/>
       <use xlink:href="#DejaVuSans-32" x="127.246094"/>
       <use xlink:href="#DejaVuSans-34" x="190.869141"/>
       <use xlink:href="#DejaVuSans-2d" x="254.492188"/>
       <use xlink:href="#DejaVuSans-30" x="290.576172"/>
       <use xlink:href="#DejaVuSans-34" x="354.199219"/>
      </g>
     </g>
    </g>
    <g id="xtick_8">
     <g id="line2d_15">
      <path d="M 657.529986 567.74175 
L 657.529986 24.14175 
" clip-path="url(#p577868aee8)" style="fill: none; stroke: #ffffff; stroke-width: 0.8; stroke-linecap: square"/>
     </g>
     <g id="line2d_16">
      <g>
       <use xlink:href="#m5114cf3700" x="657.529986" y="567.74175" style="fill: #555555; stroke: #555555; stroke-width: 0.8"/>
      </g>
     </g>
     <g id="text_8">
      <!-- 2024-05 -->
      <g style="fill: #555555" transform="translate(644.708703 609.659567)rotate(-45)scale(0.1 -0.1)">
       <defs>
        <path id="DejaVuSans-35" d="M 691 4666 
L 3169 4666 
L 3169 4134 
L 1269 4134 
L 1269 2991 
Q 1406 3038 1543 3061 
Q 1681 3084 1819 3084 
Q 2600 3084 3056 2656 
Q 3513 2228 3513 1497 
Q 3513 744 3044 326 
Q 2575 -91 1722 -91 
Q 1428 -91 1123 -41 
Q 819 9 494 109 
L 494 744 
Q 775 591 1075 516 
Q 1375 441 1709 441 
Q 2250 441 2565 725 
Q 2881 1009 2881 1497 
Q 2881 1984 2565 2268 
Q 2250 2553 1709 2553 
Q 1456 2553 1204 2497 
Q 953 2441 691 2322 
L 691 4666 
z
" transform="scale(0.015625)"/>
       </defs>
       <use xlink:href="#DejaVuSans-32"/>
       <use xlink:href="#DejaVuSans-30" x="63.623047"/>
       <use xlink:href="#DejaVuSans-32" x="127.246094"/>
       <use xlink:href="#DejaVuSans-34" x="190.869141"/>
       <use xlink:href="#DejaVuSans-2d" x="254.492188"/>
       <use xlink:href="#DejaVuSans-30" x="290.576172"/>
       <use xlink:href="#DejaVuSans-35" x="354.199219"/>
      </g>
     </g>
    </g>
    <g id="xtick_9">
     <g id="line2d_17">
      <path d="M 737.496169 567.74175 
L 737.496169 24.14175 
" clip-path="url(#p577868aee8)" style="fill: none; stroke: #ffffff; stroke-width: 0.8; stroke-linecap: square"/>
     </g>
     <g id="line2d_18">
      <g>
       <use xlink:href="#m5114cf3700" x="737.496169" y="567.74175" style="fill: #555555; stroke: #555555; stroke-width: 0.8"/>
      </g>
     </g>
     <g id="text_9">
      <!-- 2024-06 -->
      <g style="fill: #555555" transform="translate(724.674886 609.659567)rotate(-45)scale(0.1 -0.1)">
       <defs>
        <path id="DejaVuSans-36" d="M 2113 2584 
Q 1688 2584 1439 2293 
Q 1191 2003 1191 1497 
Q 1191 994 1439 701 
Q 1688 409 2113 409 
Q 2538 409 2786 701 
Q 3034 994 3034 1497 
Q 3034 2003 2786 2293 
Q 2538 2584 2113 2584 
z
M 3366 4563 
L 3366 3988 
Q 3128 4100 2886 4159 
Q 2644 4219 2406 4219 
Q 1781 4219 1451 3797 
Q 1122 3375 1075 2522 
Q 1259 2794 1537 2939 
Q 1816 3084 2150 3084 
Q 2853 3084 3261 2657 
Q 3669 2231 3669 1497 
Q 3669 778 3244 343 
Q 2819 -91 2113 -91 
Q 1303 -91 875 529 
Q 447 1150 447 2328 
Q 447 3434 972 4092 
Q 1497 4750 2381 4750 
Q 2619 4750 2861 4703 
Q 3103 4656 3366 4563 
z
" transform="scale(0.015625)"/>
       </defs>
       <use xlink:href="#DejaVuSans-32"/>
       <use xlink:href="#DejaVuSans-30" x="63.623047"/>
       <use xlink:href="#DejaVuSans-32" x="127.246094"/>
       <use xlink:href="#DejaVuSans-34" x="190.869141"/>
       <use xlink:href="#DejaVuSans-2d" x="254.492188"/>
       <use xlink:href="#DejaVuSans-30" x="290.576172"/>
       <use xlink:href="#DejaVuSans-36" x="354.199219"/>
      </g>
     </g>
    </g>
    <g id="xtick_10">
     <g id="line2d_19">
      <path d="M 814.882797 567.74175 
L 814.882797 24.14175 
" clip-path="url(#p577868aee8)" style="fill: none; stroke: #ffffff; stroke-width: 0.8; stroke-linecap: square"/>
     </g>
     <g id="line2d_20">
      <g>
       <use xlink:href="#m5114cf3700" x="814.882797" y="567.74175" style="fill: #555555; stroke: #555555; stroke-width: 0.8"/>
      </g>
     </g>
     <g id="text_10">
      <!-- 2024-07 -->
      <g style="fill: #555555" transform="translate(802.061515 609.659567)rotate(-45)scale(0.1 -0.1)">
       <defs>
        <path id="DejaVuSans-37" d="M 525 4666 
L 3525 4666 
L 3525 4397 
L 1831 0 
L 1172 0 
L 2766 4134 
L 525 4134 
L 525 4666 
z
" transform="scale(0.015625)"/>
       </defs>
       <use xlink:href="#DejaVuSans-32"/>
       <use xlink:href="#DejaVuSans-30" x="63.623047"/>
       <use xlink:href="#DejaVuSans-32" x="127.246094"/>
       <use xlink:href="#DejaVuSans-34" x="190.869141"/>
       <use xlink:href="#DejaVuSans-2d" x="254.492188"/>
       <use xlink:href="#DejaVuSans-30" x="290.576172"/>
       <use xlink:href="#DejaVuSans-37" x="354.199219"/>
      </g>
     </g>
    </g>
    <g id="xtick_11">
     <g id="line2d_21">
      <path d="M 894.84898 567.74175 
L 894.84898 24.14175 
" clip-path="url(#p577868aee8)" style="fill: none; stroke: #ffffff; stroke-width: 0.8; stroke-linecap: square"/>
     </g>
     <g id="line2d_22">
      <g>
       <use xlink:href="#m5114cf3700" x="894.84898" y="567.74175" style="fill: #555555; stroke: #555555; stroke-width: 0.8"/>
      </g>
     </g>
     <g id="text_11">
      <!-- 2024-08 -->
      <g style="fill: #555555" transform="translate(882.027698 609.659567)rotate(-45)scale(0.1 -0.1)">
       <defs>
        <path id="DejaVuSans-38" d="M 2034 2216 
Q 1584 2216 1326 1975 
Q 1069 1734 1069 1313 
Q 1069 891 1326 650 
Q 1584 409 2034 409 
Q 2484 409 2743 651 
Q 3003 894 3003 1313 
Q 3003 1734 2745 1975 
Q 2488 2216 2034 2216 
z
M 1403 2484 
Q 997 2584 770 2862 
Q 544 3141 544 3541 
Q 544 4100 942 4425 
Q 1341 4750 2034 4750 
Q 2731 4750 3128 4425 
Q 3525 4100 3525 3541 
Q 3525 3141 3298 2862 
Q 3072 2584 2669 2484 
Q 3125 2378 3379 2068 
Q 3634 1759 3634 1313 
Q 3634 634 3220 271 
Q 2806 -91 2034 -91 
Q 1263 -91 848 271 
Q 434 634 434 1313 
Q 434 1759 690 2068 
Q 947 2378 1403 2484 
z
M 1172 3481 
Q 1172 3119 1398 2916 
Q 1625 2713 2034 2713 
Q 2441 2713 2670 2916 
Q 2900 3119 2900 3481 
Q 2900 3844 2670 4047 
Q 2441 4250 2034 4250 
Q 1625 4250 1398 4047 
Q 1172 3844 1172 3481 
z
" transform="scale(0.015625)"/>
       </defs>
       <use xlink:href="#DejaVuSans-32"/>
       <use xlink:href="#DejaVuSans-30" x="63.623047"/>
       <use xlink:href="#DejaVuSans-32" x="127.246094"/>
       <use xlink:href="#DejaVuSans-34" x="190.869141"/>
       <use xlink:href="#DejaVuSans-2d" x="254.492188"/>
       <use xlink:href="#DejaVuSans-30" x="290.576172"/>
       <use xlink:href="#DejaVuSans-38" x="354.199219"/>
      </g>
     </g>
    </g>
    <g id="text_12">
     <!-- Date -->
     <g style="fill: #555555" transform="translate(501.313563 624.248253)scale(0.12 -0.12)">
      <defs>
       <path id="DejaVuSans-44" d="M 1259 4147 
L 1259 519 
L 2022 519 
Q 2988 519 3436 956 
Q 3884 1394 3884 2338 
Q 3884 3275 3436 3711 
Q 2988 4147 2022 4147 
L 1259 4147 
z
M 628 4666 
L 1925 4666 
Q 3281 4666 3915 4102 
Q 4550 3538 4550 2338 
Q 4550 1131 3912 565 
Q 3275 0 1925 0 
L 628 0 
L 628 4666 
z
" transform="scale(0.015625)"/>
       <path id="DejaVuSans-61" d="M 2194 1759 
Q 1497 1759 1228 1600 
Q 959 1441 959 1056 
Q 959 750 1161 570 
Q 1363 391 1709 391 
Q 2188 391 2477 730 
Q 2766 1069 2766 1631 
L 2766 1759 
L 2194 1759 
z
M 3341 1997 
L 3341 0 
L 2766 0 
L 2766 531 
Q 2569 213 2275 61 
Q 1981 -91 1556 -91 
Q 1019 -91 701 211 
Q 384 513 384 1019 
Q 384 1609 779 1909 
Q 1175 2209 1959 2209 
L 2766 2209 
L 2766 2266 
Q 2766 2663 2505 2880 
Q 2244 3097 1772 3097 
Q 1472 3097 1187 3025 
Q 903 2953 641 2809 
L 641 3341 
Q 956 3463 1253 3523 
Q 1550 3584 1831 3584 
Q 2591 3584 2966 3190 
Q 3341 2797 3341 1997 
z
" transform="scale(0.015625)"/>
       <path id="DejaVuSans-74" d="M 1172 4494 
L 1172 3500 
L 2356 3500 
L 2356 3053 
L 1172 3053 
L 1172 1153 
Q 1172 725 1289 603 
Q 1406 481 1766 481 
L 2356 481 
L 2356 0 
L 1766 0 
Q 1100 0 847 248 
Q 594 497 594 1153 
L 594 3053 
L 172 3053 
L 172 3500 
L 594 3500 
L 594 4494 
L 1172 4494 
z
" transform="scale(0.015625)"/>
       <path id="DejaVuSans-65" d="M 3597 1894 
L 3597 1613 
L 953 1613 
Q 991 1019 1311 708 
Q 1631 397 2203 397 
Q 2534 397 2845 478 
Q 3156 559 3463 722 
L 3463 178 
Q 3153 47 2828 -22 
Q 2503 -91 2169 -91 
Q 1331 -91 842 396 
Q 353 884 353 1716 
Q 353 2575 817 3079 
Q 1281 3584 2069 3584 
Q 2775 3584 3186 3129 
Q 3597 2675 3597 1894 
z
M 3022 2063 
Q 3016 2534 2758 2815 
Q 2500 3097 2075 3097 
Q 1594 3097 1305 2825 
Q 1016 2553 972 2059 
L 3022 2063 
z
" transform="scale(0.015625)"/>
      </defs>
      <use xlink:href="#DejaVuSans-44"/>
      <use xlink:href="#DejaVuSans-61" x="77.001953"/>
      <use xlink:href="#DejaVuSans-74" x="138.28125"/>
      <use xlink:href="#DejaVuSans-65" x="177.490234"/>
     </g>
    </g>
   </g>
   <g id="matplotlib.axis_2">
    <g id="ytick_1">
     <g id="line2d_23">
      <path d="M 64.2325 567.74175 
L 967.0765 567.74175 
" clip-path="url(#p577868aee8)" style="fill: none; stroke: #ffffff; stroke-width: 0.8; stroke-linecap: square"/>
     </g>
     <g id="line2d_24">
      <defs>
       <path id="m40ccd4802a" d="M 0 0 
L -3.5 0 
" style="stroke: #555555; stroke-width: 0.8"/>
      </defs>
      <g>
       <use xlink:href="#m40ccd4802a" x="64.2325" y="567.74175" style="fill: #555555; stroke: #555555; stroke-width: 0.8"/>
      </g>
     </g>
     <g id="text_13">
      <!-- 0k -->
      <g style="fill: #555555" transform="translate(45.079375 571.540969)scale(0.1 -0.1)">
       <defs>
        <path id="DejaVuSans-6b" d="M 581 4863 
L 1159 4863 
L 1159 1991 
L 2875 3500 
L 3609 3500 
L 1753 1863 
L 3688 0 
L 2938 0 
L 1159 1709 
L 1159 0 
L 581 0 
L 581 4863 
z
" transform="scale(0.015625)"/>
       </defs>
       <use xlink:href="#DejaVuSans-30"/>
       <use xlink:href="#DejaVuSans-6b" x="63.623047"/>
      </g>
     </g>
    </g>
    <g id="ytick_2">
     <g id="line2d_25">
      <path d="M 64.2325 484.659267 
L 967.0765 484.659267 
" clip-path="url(#p577868aee8)" style="fill: none; stroke: #ffffff; stroke-width: 0.8; stroke-linecap: square"/>
     </g>
     <g id="line2d_26">
      <g>
       <use xlink:href="#m40ccd4802a" x="64.2325" y="484.659267" style="fill: #555555; stroke: #555555; stroke-width: 0.8"/>
      </g>
     </g>
     <g id="text_14">
      <!-- 200k -->
      <g style="fill: #555555" transform="translate(32.354375 488.458486)scale(0.1 -0.1)">
       <use xlink:href="#DejaVuSans-32"/>
       <use xlink:href="#DejaVuSans-30" x="63.623047"/>
       <use xlink:href="#DejaVuSans-30" x="127.246094"/>
       <use xlink:href="#DejaVuSans-6b" x="190.869141"/>
      </g>
     </g>
    </g>
    <g id="ytick_3">
     <g id="line2d_27">
      <path d="M 64.2325 401.576784 
L 967.0765 401.576784 
" clip-path="url(#p577868aee8)" style="fill: none; stroke: #ffffff; stroke-width: 0.8; stroke-linecap: square"/>
     </g>
     <g id="line2d_28">
      <g>
       <use xlink:href="#m40ccd4802a" x="64.2325" y="401.576784" style="fill: #555555; stroke: #555555; stroke-width: 0.8"/>
      </g>
     </g>
     <g id="text_15">
      <!-- 400k -->
      <g style="fill: #555555" transform="translate(32.354375 405.376003)scale(0.1 -0.1)">
       <use xlink:href="#DejaVuSans-34"/>
       <use xlink:href="#DejaVuSans-30" x="63.623047"/>
       <use xlink:href="#DejaVuSans-30" x="127.246094"/>
       <use xlink:href="#DejaVuSans-6b" x="190.869141"/>
      </g>
     </g>
    </g>
    <g id="ytick_4">
     <g id="line2d_29">
      <path d="M 64.2325 318.494301 
L 967.0765 318.494301 
" clip-path="url(#p577868aee8)" style="fill: none; stroke: #ffffff; stroke-width: 0.8; stroke-linecap: square"/>
     </g>
     <g id="line2d_30">
      <g>
       <use xlink:href="#m40ccd4802a" x="64.2325" y="318.494301" style="fill: #555555; stroke: #555555; stroke-width: 0.8"/>
      </g>
     </g>
     <g id="text_16">
      <!-- 600k -->
      <g style="fill: #555555" transform="translate(32.354375 322.29352)scale(0.1 -0.1)">
       <use xlink:href="#DejaVuSans-36"/>
       <use xlink:href="#DejaVuSans-30" x="63.623047"/>
       <use xlink:href="#DejaVuSans-30" x="127.246094"/>
       <use xlink:href="#DejaVuSans-6b" x="190.869141"/>
      </g>
     </g>
    </g>
    <g id="ytick_5">
     <g id="line2d_31">
      <path d="M 64.2325 235.411818 
L 967.0765 235.411818 
" clip-path="url(#p577868aee8)" style="fill: none; stroke: #ffffff; stroke-width: 0.8; stroke-linecap: square"/>
     </g>
     <g id="line2d_32">
      <g>
       <use xlink:href="#m40ccd4802a" x="64.2325" y="235.411818" style="fill: #555555; stroke: #555555; stroke-width: 0.8"/>
      </g>
     </g>
     <g id="text_17">
      <!-- 800k -->
      <g style="fill: #555555" transform="translate(32.354375 239.211037)scale(0.1 -0.1)">
       <use xlink:href="#DejaVuSans-38"/>
       <use xlink:href="#DejaVuSans-30" x="63.623047"/>
       <use xlink:href="#DejaVuSans-30" x="127.246094"/>
       <use xlink:href="#DejaVuSans-6b" x="190.869141"/>
      </g>
     </g>
    </g>
    <g id="ytick_6">
     <g id="line2d_33">
      <path d="M 64.2325 152.329335 
L 967.0765 152.329335 
" clip-path="url(#p577868aee8)" style="fill: none; stroke: #ffffff; stroke-width: 0.8; stroke-linecap: square"/>
     </g>
     <g id="line2d_34">
      <g>
       <use xlink:href="#m40ccd4802a" x="64.2325" y="152.329335" style="fill: #555555; stroke: #555555; stroke-width: 0.8"/>
      </g>
     </g>
     <g id="text_18">
      <!-- 1,000k -->
      <g style="fill: #555555" transform="translate(22.81375 156.128553)scale(0.1 -0.1)">
       <defs>
        <path id="DejaVuSans-2c" d="M 750 794 
L 1409 794 
L 1409 256 
L 897 -744 
L 494 -744 
L 750 256 
L 750 794 
z
" transform="scale(0.015625)"/>
       </defs>
       <use xlink:href="#DejaVuSans-31"/>
       <use xlink:href="#DejaVuSans-2c" x="63.623047"/>
       <use xlink:href="#DejaVuSans-30" x="95.410156"/>
       <use xlink:href="#DejaVuSans-30" x="159.033203"/>
       <use xlink:href="#DejaVuSans-30" x="222.65625"/>
       <use xlink:href="#DejaVuSans-6b" x="286.279297"/>
      </g>
     </g>
    </g>
    <g id="ytick_7">
     <g id="line2d_35">
      <path d="M 64.2325 69.246852 
L 967.0765 69.246852 
" clip-path="url(#p577868aee8)" style="fill: none; stroke: #ffffff; stroke-width: 0.8; stroke-linecap: square"/>
     </g>
     <g id="line2d_36">
      <g>
       <use xlink:href="#m40ccd4802a" x="64.2325" y="69.246852" style="fill: #555555; stroke: #555555; stroke-width: 0.8"/>
      </g>
     </g>
     <g id="text_19">
      <!-- 1,200k -->
      <g style="fill: #555555" transform="translate(22.81375 73.04607)scale(0.1 -0.1)">
       <use xlink:href="#DejaVuSans-31"/>
       <use xlink:href="#DejaVuSans-2c" x="63.623047"/>
       <use xlink:href="#DejaVuSans-32" x="95.410156"/>
       <use xlink:href="#DejaVuSans-30" x="159.033203"/>
       <use xlink:href="#DejaVuSans-30" x="222.65625"/>
       <use xlink:href="#DejaVuSans-6b" x="286.279297"/>
      </g>
     </g>
    </g>
    <g id="text_20">
     <!-- Instances -->
     <g style="fill: #555555" transform="translate(16.318125 324.588)rotate(-90)scale(0.12 -0.12)">
      <defs>
       <path id="DejaVuSans-49" d="M 628 4666 
L 1259 4666 
L 1259 0 
L 628 0 
L 628 4666 
z
" transform="scale(0.015625)"/>
       <path id="DejaVuSans-6e" d="M 3513 2113 
L 3513 0 
L 2938 0 
L 2938 2094 
Q 2938 2591 2744 2837 
Q 2550 3084 2163 3084 
Q 1697 3084 1428 2787 
Q 1159 2491 1159 1978 
L 1159 0 
L 581 0 
L 581 3500 
L 1159 3500 
L 1159 2956 
Q 1366 3272 1645 3428 
Q 1925 3584 2291 3584 
Q 2894 3584 3203 3211 
Q 3513 2838 3513 2113 
z
" transform="scale(0.015625)"/>
       <path id="DejaVuSans-73" d="M 2834 3397 
L 2834 2853 
Q 2591 2978 2328 3040 
Q 2066 3103 1784 3103 
Q 1356 3103 1142 2972 
Q 928 2841 928 2578 
Q 928 2378 1081 2264 
Q 1234 2150 1697 2047 
L 1894 2003 
Q 2506 1872 2764 1633 
Q 3022 1394 3022 966 
Q 3022 478 2636 193 
Q 2250 -91 1575 -91 
Q 1294 -91 989 -36 
Q 684 19 347 128 
L 347 722 
Q 666 556 975 473 
Q 1284 391 1588 391 
Q 1994 391 2212 530 
Q 2431 669 2431 922 
Q 2431 1156 2273 1281 
Q 2116 1406 1581 1522 
L 1381 1569 
Q 847 1681 609 1914 
Q 372 2147 372 2553 
Q 372 3047 722 3315 
Q 1072 3584 1716 3584 
Q 2034 3584 2315 3537 
Q 2597 3491 2834 3397 
z
" transform="scale(0.015625)"/>
       <path id="DejaVuSans-63" d="M 3122 3366 
L 3122 2828 
Q 2878 2963 2633 3030 
Q 2388 3097 2138 3097 
Q 1578 3097 1268 2742 
Q 959 2388 959 1747 
Q 959 1106 1268 751 
Q 1578 397 2138 397 
Q 2388 397 2633 464 
Q 2878 531 3122 666 
L 3122 134 
Q 2881 22 2623 -34 
Q 2366 -91 2075 -91 
Q 1284 -91 818 406 
Q 353 903 353 1747 
Q 353 2603 823 3093 
Q 1294 3584 2113 3584 
Q 2378 3584 2631 3529 
Q 2884 3475 3122 3366 
z
" transform="scale(0.015625)"/>
      </defs>
      <use xlink:href="#DejaVuSans-49"/>
      <use xlink:href="#DejaVuSans-6e" x="29.492188"/>
      <use xlink:href="#DejaVuSans-73" x="92.871094"/>
      <use xlink:href="#DejaVuSans-74" x="144.970703"/>
      <use xlink:href="#DejaVuSans-61" x="184.179688"/>
      <use xlink:href="#DejaVuSans-6e" x="245.458984"/>
      <use xlink:href="#DejaVuSans-63" x="308.837891"/>
      <use xlink:href="#DejaVuSans-65" x="363.818359"/>
      <use xlink:href="#DejaVuSans-73" x="425.341797"/>
     </g>
    </g>
   </g>
   <g id="line2d_37">
    <path d="M 64.2325 441.233439 
L 73.352136 439.828674 
L 82.471773 438.423909 
L 91.591409 437.019145 
L 100.711045 435.61438 
L 109.830682 434.209616 
L 118.950318 432.804851 
L 128.069955 431.400086 
L 137.189591 429.995322 
L 146.309227 428.590557 
L 155.428864 427.185792 
L 164.5485 425.781028 
L 173.668136 424.376263 
L 182.787773 422.971499 
L 191.907409 421.566734 
L 201.027045 420.161969 
L 210.146682 418.757205 
L 219.266318 417.35244 
L 228.385955 415.947676 
L 237.505591 414.542911 
L 246.625227 413.138146 
L 255.744864 411.733382 
L 264.8645 410.328617 
L 273.984136 408.923852 
L 283.103773 407.519088 
L 292.223409 406.114323 
L 301.343045 404.709559 
L 310.462682 403.304794 
L 319.582318 401.900029 
L 328.701955 400.495265 
L 337.821591 399.0905 
L 346.941227 397.685736 
L 356.060864 396.280971 
L 365.1805 394.876206 
L 374.300136 393.471442 
L 383.419773 392.066677 
L 392.539409 390.661912 
L 401.659045 389.257148 
L 410.778682 387.852383 
L 419.898318 386.447619 
L 429.017955 385.042854 
L 438.137591 383.638089 
L 447.257227 382.233325 
L 456.376864 380.82856 
L 465.4965 379.423796 
L 474.616136 378.019031 
L 483.735773 376.614266 
L 492.855409 375.209502 
L 501.975045 373.804737 
L 511.094682 372.399972 
L 520.214318 370.995208 
L 529.333955 369.590443 
L 538.453591 368.185679 
L 547.573227 366.780914 
L 556.692864 365.376149 
L 565.8125 363.971385 
L 574.932136 362.56662 
L 584.051773 361.161856 
L 593.171409 359.757091 
L 602.291045 358.352326 
L 611.410682 356.947562 
L 620.530318 355.542797 
L 629.649955 354.138033 
L 638.769591 352.733268 
L 647.889227 351.328503 
L 657.008864 349.923739 
L 666.1285 348.518974 
L 675.248136 347.114209 
L 684.367773 345.709445 
L 693.487409 344.30468 
L 702.607045 342.899916 
L 711.726682 341.495151 
L 720.846318 340.090386 
L 729.965955 338.685622 
L 739.085591 337.280857 
L 748.205227 335.876093 
L 757.324864 334.471328 
L 766.4445 333.066563 
L 775.564136 331.661799 
L 784.683773 330.257034 
L 793.803409 328.852269 
L 802.923045 327.447505 
L 812.042682 326.04274 
L 821.162318 324.637976 
L 830.281955 323.233211 
L 839.401591 321.828446 
L 848.521227 320.423682 
L 857.640864 319.018917 
L 866.7605 317.614153 
L 875.880136 316.209388 
L 884.999773 314.804623 
L 894.119409 313.399859 
L 903.239045 311.995094 
L 912.358682 310.590329 
L 921.478318 309.185565 
L 930.597955 307.7808 
L 939.717591 306.376036 
L 948.837227 304.971271 
L 957.956864 303.566506 
L 967.0765 302.161742 
" clip-path="url(#p577868aee8)" style="fill: none; stroke-dasharray: 1.5,2.475; stroke-dashoffset: 0; stroke: #4ac1fa; stroke-width: 1.5"/>
   </g>
   <g id="line2d_38">
    <path d="M 64.2325 397.876184 
L 73.352136 398.259809 
L 82.471773 398.643433 
L 91.591409 399.027058 
L 100.711045 399.410682 
L 109.830682 399.794307 
L 118.950318 400.177931 
L 128.069955 400.561556 
L 137.189591 400.94518 
L 146.309227 401.328805 
L 155.428864 401.712429 
L 164.5485 402.096054 
L 173.668136 402.479678 
L 182.787773 402.863303 
L 191.907409 403.246927 
L 201.027045 403.630552 
L 210.146682 404.014176 
L 219.266318 404.397801 
L 228.385955 404.781425 
L 237.505591 405.16505 
L 246.625227 405.548674 
L 255.744864 405.932299 
L 264.8645 406.315923 
L 273.984136 406.699548 
L 283.103773 407.083172 
L 292.223409 407.466797 
L 301.343045 407.850421 
L 310.462682 408.234046 
L 319.582318 408.61767 
L 328.701955 409.001295 
L 337.821591 409.384919 
L 346.941227 409.768544 
L 356.060864 410.152168 
L 365.1805 410.535793 
L 374.300136 410.919417 
L 383.419773 411.303042 
L 392.539409 411.686666 
L 401.659045 412.070291 
L 410.778682 412.453915 
L 419.898318 412.83754 
L 429.017955 413.221164 
L 438.137591 413.604789 
L 447.257227 413.988413 
L 456.376864 414.372038 
L 465.4965 414.755662 
L 474.616136 415.139287 
L 483.735773 415.522911 
L 492.855409 415.906536 
L 501.975045 416.29016 
L 511.094682 416.673785 
L 520.214318 417.057409 
L 529.333955 417.441034 
L 538.453591 417.824658 
L 547.573227 418.208283 
L 556.692864 418.591907 
L 565.8125 418.975532 
L 574.932136 419.359156 
L 584.051773 419.742781 
L 593.171409 420.126405 
L 602.291045 420.51003 
L 611.410682 420.893655 
L 620.530318 421.277279 
L 629.649955 421.660904 
L 638.769591 422.044528 
L 647.889227 422.428153 
L 657.008864 422.811777 
L 666.1285 423.195402 
L 675.248136 423.579026 
L 684.367773 423.962651 
L 693.487409 424.346275 
L 702.607045 424.7299 
L 711.726682 425.113524 
L 720.846318 425.497149 
L 729.965955 425.880773 
L 739.085591 426.264398 
L 748.205227 426.648022 
L 757.324864 427.031647 
L 766.4445 427.415271 
L 775.564136 427.798896 
L 784.683773 428.18252 
L 793.803409 428.566145 
L 802.923045 428.949769 
L 812.042682 429.333394 
L 821.162318 429.717018 
L 830.281955 430.100643 
L 839.401591 430.484267 
L 848.521227 430.867892 
L 857.640864 431.251516 
L 866.7605 431.635141 
L 875.880136 432.018765 
L 884.999773 432.40239 
L 894.119409 432.786014 
L 903.239045 433.169639 
L 912.358682 433.553263 
L 921.478318 433.936888 
L 930.597955 434.320512 
L 939.717591 434.704137 
L 948.837227 435.087761 
L 957.956864 435.471386 
L 967.0765 435.85501 
" clip-path="url(#p577868aee8)" style="fill: none; stroke-dasharray: 1.5,2.475; stroke-dashoffset: 0; stroke: #e9a942; stroke-width: 1.5"/>
   </g>
   <g id="line2d_39">
    <path d="M 64.2325 416.13435 
L 73.352136 416.661165 
L 82.471773 417.18798 
L 91.591409 417.714795 
L 100.711045 418.24161 
L 109.830682 418.768425 
L 118.950318 419.29524 
L 128.069955 419.822055 
L 137.189591 420.34887 
L 146.309227 420.875685 
L 155.428864 421.4025 
L 164.5485 421.929315 
L 173.668136 422.45613 
L 182.787773 422.982946 
L 191.907409 423.509761 
L 201.027045 424.036576 
L 210.146682 424.563391 
L 219.266318 425.090206 
L 228.385955 425.617021 
L 237.505591 426.143836 
L 246.625227 426.670651 
L 255.744864 427.197466 
L 264.8645 427.724281 
L 273.984136 428.251096 
L 283.103773 428.777911 
L 292.223409 429.304726 
L 301.343045 429.831541 
L 310.462682 430.358356 
L 319.582318 430.885171 
L 328.701955 431.411986 
L 337.821591 431.938801 
L 346.941227 432.465616 
L 356.060864 432.992431 
L 365.1805 433.519246 
L 374.300136 434.046062 
L 383.419773 434.572877 
L 392.539409 435.099692 
L 401.659045 435.626507 
L 410.778682 436.153322 
L 419.898318 436.680137 
L 429.017955 437.206952 
L 438.137591 437.733767 
L 447.257227 438.260582 
L 456.376864 438.787397 
L 465.4965 439.314212 
L 474.616136 439.841027 
L 483.735773 440.367842 
L 492.855409 440.894657 
L 501.975045 441.421472 
L 511.094682 441.948287 
L 520.214318 442.475102 
L 529.333955 443.001917 
L 538.453591 443.528732 
L 547.573227 444.055547 
L 556.692864 444.582362 
L 565.8125 445.109177 
L 574.932136 445.635993 
L 584.051773 446.162808 
L 593.171409 446.689623 
L 602.291045 447.216438 
L 611.410682 447.743253 
L 620.530318 448.270068 
L 629.649955 448.796883 
L 638.769591 449.323698 
L 647.889227 449.850513 
L 657.008864 450.377328 
L 666.1285 450.904143 
L 675.248136 451.430958 
L 684.367773 451.957773 
L 693.487409 452.484588 
L 702.607045 453.011403 
L 711.726682 453.538218 
L 720.846318 454.065033 
L 729.965955 454.591848 
L 739.085591 455.118663 
L 748.205227 455.645478 
L 757.324864 456.172293 
L 766.4445 456.699109 
L 775.564136 457.225924 
L 784.683773 457.752739 
L 793.803409 458.279554 
L 802.923045 458.806369 
L 812.042682 459.333184 
L 821.162318 459.859999 
L 830.281955 460.386814 
L 839.401591 460.913629 
L 848.521227 461.440444 
L 857.640864 461.967259 
L 866.7605 462.494074 
L 875.880136 463.020889 
L 884.999773 463.547704 
L 894.119409 464.074519 
L 903.239045 464.601334 
L 912.358682 465.128149 
L 921.478318 465.654964 
L 930.597955 466.181779 
L 939.717591 466.708594 
L 948.837227 467.235409 
L 957.956864 467.762225 
L 967.0765 468.28904 
" clip-path="url(#p577868aee8)" style="fill: none; stroke-dasharray: 1.5,2.475; stroke-dashoffset: 0; stroke: #9a5689; stroke-width: 1.5"/>
   </g>
   <g id="line2d_40">
    <path d="M 64.2325 537.852737 
L 73.352136 537.700795 
L 82.471773 537.548853 
L 91.591409 537.396912 
L 100.711045 537.24497 
L 109.830682 537.093028 
L 118.950318 536.941087 
L 128.069955 536.789145 
L 137.189591 536.637203 
L 146.309227 536.485262 
L 155.428864 536.33332 
L 164.5485 536.181378 
L 173.668136 536.029437 
L 182.787773 535.877495 
L 191.907409 535.725553 
L 201.027045 535.573611 
L 210.146682 535.42167 
L 219.266318 535.269728 
L 228.385955 535.117786 
L 237.505591 534.965845 
L 246.625227 534.813903 
L 255.744864 534.661961 
L 264.8645 534.51002 
L 273.984136 534.358078 
L 283.103773 534.206136 
L 292.223409 534.054194 
L 301.343045 533.902253 
L 310.462682 533.750311 
L 319.582318 533.598369 
L 328.701955 533.446428 
L 337.821591 533.294486 
L 346.941227 533.142544 
L 356.060864 532.990603 
L 365.1805 532.838661 
L 374.300136 532.686719 
L 383.419773 532.534778 
L 392.539409 532.382836 
L 401.659045 532.230894 
L 410.778682 532.078952 
L 419.898318 531.927011 
L 429.017955 531.775069 
L 438.137591 531.623127 
L 447.257227 531.471186 
L 456.376864 531.319244 
L 465.4965 531.167302 
L 474.616136 531.015361 
L 483.735773 530.863419 
L 492.855409 530.711477 
L 501.975045 530.559536 
L 511.094682 530.407594 
L 520.214318 530.255652 
L 529.333955 530.10371 
L 538.453591 529.951769 
L 547.573227 529.799827 
L 556.692864 529.647885 
L 565.8125 529.495944 
L 574.932136 529.344002 
L 584.051773 529.19206 
L 593.171409 529.040119 
L 602.291045 528.888177 
L 611.410682 528.736235 
L 620.530318 528.584294 
L 629.649955 528.432352 
L 638.769591 528.28041 
L 647.889227 528.128468 
L 657.008864 527.976527 
L 666.1285 527.824585 
L 675.248136 527.672643 
L 684.367773 527.520702 
L 693.487409 527.36876 
L 702.607045 527.216818 
L 711.726682 527.064877 
L 720.846318 526.912935 
L 729.965955 526.760993 
L 739.085591 526.609052 
L 748.205227 526.45711 
L 757.324864 526.305168 
L 766.4445 526.153226 
L 775.564136 526.001285 
L 784.683773 525.849343 
L 793.803409 525.697401 
L 802.923045 525.54546 
L 812.042682 525.393518 
L 821.162318 525.241576 
L 830.281955 525.089635 
L 839.401591 524.937693 
L 848.521227 524.785751 
L 857.640864 524.63381 
L 866.7605 524.481868 
L 875.880136 524.329926 
L 884.999773 524.177984 
L 894.119409 524.026043 
L 903.239045 523.874101 
L 912.358682 523.722159 
L 921.478318 523.570218 
L 930.597955 523.418276 
L 939.717591 523.266334 
L 948.837227 523.114393 
L 957.956864 522.962451 
L 967.0765 522.810509 
" clip-path="url(#p577868aee8)" style="fill: none; stroke-dasharray: 1.5,2.475; stroke-dashoffset: 0; stroke: #be503b; stroke-width: 1.5"/>
   </g>
   <g id="line2d_41">
    <path d="M 64.2325 426.6847 
L 73.352136 425.464088 
L 82.471773 424.243476 
L 91.591409 423.022864 
L 100.711045 421.802252 
L 109.830682 420.58164 
L 118.950318 419.361028 
L 128.069955 418.140416 
L 137.189591 416.919804 
L 146.309227 415.699192 
L 155.428864 414.47858 
L 164.5485 413.257968 
L 173.668136 412.037356 
L 182.787773 410.816744 
L 191.907409 409.596132 
L 201.027045 408.37552 
L 210.146682 407.154908 
L 219.266318 405.934296 
L 228.385955 404.713684 
L 237.505591 403.493072 
L 246.625227 402.27246 
L 255.744864 401.051848 
L 264.8645 399.831236 
L 273.984136 398.610624 
L 283.103773 397.390012 
L 292.223409 396.1694 
L 301.343045 394.948788 
L 310.462682 393.728176 
L 319.582318 392.507564 
L 328.701955 391.286952 
L 337.821591 390.06634 
L 346.941227 388.845728 
L 356.060864 387.625116 
L 365.1805 386.404504 
L 374.300136 385.183892 
L 383.419773 383.96328 
L 392.539409 382.742668 
L 401.659045 381.522056 
L 410.778682 380.301444 
L 419.898318 379.080832 
L 429.017955 377.86022 
L 438.137591 376.639608 
L 447.257227 375.418996 
L 456.376864 374.198384 
L 465.4965 372.977772 
L 474.616136 371.75716 
L 483.735773 370.536548 
L 492.855409 369.315936 
L 501.975045 368.095324 
L 511.094682 366.874712 
L 520.214318 365.6541 
L 529.333955 364.433488 
L 538.453591 363.212876 
L 547.573227 361.992264 
L 556.692864 360.771652 
L 565.8125 359.55104 
L 574.932136 358.330428 
L 584.051773 357.109816 
L 593.171409 355.889204 
L 602.291045 354.668592 
L 611.410682 353.44798 
L 620.530318 352.227368 
L 629.649955 351.006756 
L 638.769591 349.786144 
L 647.889227 348.565532 
L 657.008864 347.34492 
L 666.1285 346.124308 
L 675.248136 344.903696 
L 684.367773 343.683084 
L 693.487409 342.462472 
L 702.607045 341.24186 
L 711.726682 340.021248 
L 720.846318 338.800636 
L 729.965955 337.580024 
L 739.085591 336.359412 
L 748.205227 335.1388 
L 757.324864 333.918188 
L 766.4445 332.697576 
L 775.564136 331.476964 
L 784.683773 330.256352 
L 793.803409 329.03574 
L 802.923045 327.815128 
L 812.042682 326.594516 
L 821.162318 325.373904 
L 830.281955 324.153292 
L 839.401591 322.93268 
L 848.521227 321.712068 
L 857.640864 320.491456 
L 866.7605 319.270844 
L 875.880136 318.050232 
L 884.999773 316.82962 
L 894.119409 315.609008 
L 903.239045 314.388396 
L 912.358682 313.167784 
L 921.478318 311.947172 
L 930.597955 310.72656 
L 939.717591 309.505948 
L 948.837227 308.285336 
L 957.956864 307.064724 
L 967.0765 305.844112 
" clip-path="url(#p577868aee8)" style="fill: none; stroke-dasharray: 1.5,2.475; stroke-dashoffset: 0; stroke: #e2321d; stroke-width: 1.5"/>
   </g>
   <g id="line2d_42">
    <path d="M 64.2325 360.224679 
L 73.352136 357.168699 
L 82.471773 354.11272 
L 91.591409 351.05674 
L 100.711045 348.000761 
L 109.830682 344.944781 
L 118.950318 341.888802 
L 128.069955 338.832822 
L 137.189591 335.776843 
L 146.309227 332.720863 
L 155.428864 329.664884 
L 164.5485 326.608904 
L 173.668136 323.552924 
L 182.787773 320.496945 
L 191.907409 317.440965 
L 201.027045 314.384986 
L 210.146682 311.329006 
L 219.266318 308.273027 
L 228.385955 305.217047 
L 237.505591 302.161068 
L 246.625227 299.105088 
L 255.744864 296.049109 
L 264.8645 292.993129 
L 273.984136 289.93715 
L 283.103773 286.88117 
L 292.223409 283.825191 
L 301.343045 280.769211 
L 310.462682 277.713232 
L 319.582318 274.657252 
L 328.701955 271.601273 
L 337.821591 268.545293 
L 346.941227 265.489314 
L 356.060864 262.433334 
L 365.1805 259.377355 
L 374.300136 256.321375 
L 383.419773 253.265396 
L 392.539409 250.209416 
L 401.659045 247.153437 
L 410.778682 244.097457 
L 419.898318 241.041477 
L 429.017955 237.985498 
L 438.137591 234.929518 
L 447.257227 231.873539 
L 456.376864 228.817559 
L 465.4965 225.76158 
L 474.616136 222.7056 
L 483.735773 219.649621 
L 492.855409 216.593641 
L 501.975045 213.537662 
L 511.094682 210.481682 
L 520.214318 207.425703 
L 529.333955 204.369723 
L 538.453591 201.313744 
L 547.573227 198.257764 
L 556.692864 195.201785 
L 565.8125 192.145805 
L 574.932136 189.089826 
L 584.051773 186.033846 
L 593.171409 182.977867 
L 602.291045 179.921887 
L 611.410682 176.865908 
L 620.530318 173.809928 
L 629.649955 170.753949 
L 638.769591 167.697969 
L 647.889227 164.64199 
L 657.008864 161.58601 
L 666.1285 158.53003 
L 675.248136 155.474051 
L 684.367773 152.418071 
L 693.487409 149.362092 
L 702.607045 146.306112 
L 711.726682 143.250133 
L 720.846318 140.194153 
L 729.965955 137.138174 
L 739.085591 134.082194 
L 748.205227 131.026215 
L 757.324864 127.970235 
L 766.4445 124.914256 
L 775.564136 121.858276 
L 784.683773 118.802297 
L 793.803409 115.746317 
L 802.923045 112.690338 
L 812.042682 109.634358 
L 821.162318 106.578379 
L 830.281955 103.522399 
L 839.401591 100.46642 
L 848.521227 97.41044 
L 857.640864 94.354461 
L 866.7605 91.298481 
L 875.880136 88.242502 
L 884.999773 85.186522 
L 894.119409 82.130543 
L 903.239045 79.074563 
L 912.358682 76.018583 
L 921.478318 72.962604 
L 930.597955 69.906624 
L 939.717591 66.850645 
L 948.837227 63.794665 
L 957.956864 60.738686 
L 967.0765 57.682706 
" clip-path="url(#p577868aee8)" style="fill: none; stroke-dasharray: 1.5,2.475; stroke-dashoffset: 0; stroke: #48b585; stroke-width: 1.5"/>
   </g>
   <g id="line2d_43">
    <path d="M 64.2325 432.510885 
L 82.28938 430.387712 
L 100.34626 428.948723 
L 154.5169 421.580138 
L 172.57378 418.839247 
L 190.63066 414.499018 
L 208.68754 415.194834 
L 226.74442 415.452389 
L 244.8013 410.506074 
L 262.85818 412.330981 
L 280.91506 412.29027 
L 298.97194 407.181113 
L 317.02882 407.948795 
L 335.0857 407.006224 
L 353.14258 408.913383 
L 371.19946 393.119818 
L 389.25634 389.074532 
L 407.31322 389.786964 
L 425.3701 386.203201 
L 443.42698 383.55287 
L 461.48386 378.105982 
L 479.54074 366.485236 
L 497.59762 369.470805 
L 515.6545 369.630738 
L 533.71138 366.773116 
L 551.76826 368.429366 
L 569.82514 373.110233 
L 587.88202 368.184688 
L 605.9389 370.086446 
L 623.99578 365.91529 
L 642.05266 362.12299 
L 660.10954 361.033778 
L 678.16642 357.724603 
L 696.2233 356.49249 
L 714.28018 341.931454 
L 732.33706 339.082971 
L 750.39394 343.94745 
L 768.45082 341.318305 
L 786.5077 331.911291 
L 804.56458 328.782405 
L 822.62146 323.939942 
L 840.67834 316.576757 
L 858.73522 317.751543 
L 876.7921 308.18875 
L 894.84898 303.42937 
L 912.90586 298.886835 
L 930.96274 297.068159 
L 949.01962 293.680886 
L 967.0765 288.191211 
" clip-path="url(#p577868aee8)" style="fill: none; stroke: #4ac1fa; stroke-width: 1.5; stroke-linecap: square"/>
   </g>
   <g id="line2d_44">
    <path d="M 64.2325 455.152108 
L 82.28938 437.722649 
L 100.34626 428.094635 
L 154.5169 405.148915 
L 172.57378 378.955085 
L 190.63066 403.849921 
L 208.68754 424.192251 
L 226.74442 385.0334 
L 244.8013 363.881431 
L 262.85818 429.186339 
L 280.91506 452.541241 
L 298.97194 458.280579 
L 317.02882 439.31534 
L 335.0857 401.050041 
L 353.14258 397.157627 
L 371.19946 406.656447 
L 389.25634 442.08988 
L 407.31322 367.559077 
L 425.3701 381.09986 
L 443.42698 370.847897 
L 461.48386 388.243707 
L 479.54074 358.484392 
L 497.59762 324.674391 
L 515.6545 359.421147 
L 533.71138 371.846548 
L 551.76826 433.753799 
L 569.82514 421.75835 
L 587.88202 410.076122 
L 605.9389 434.936893 
L 623.99578 433.817772 
L 642.05266 429.653678 
L 660.10954 414.019632 
L 678.16642 410.042889 
L 696.2233 410.851697 
L 714.28018 428.374623 
L 732.33706 415.313226 
L 750.39394 437.277742 
L 768.45082 440.714865 
L 786.5077 444.590662 
L 804.56458 449.171415 
L 822.62146 444.355124 
L 840.67834 452.954161 
L 858.73522 459.073601 
L 876.7921 435.974594 
L 894.84898 432.819536 
L 912.90586 452.258345 
L 930.96274 451.342776 
L 949.01962 447.029133 
L 967.0765 438.430512 
" clip-path="url(#p577868aee8)" style="fill: none; stroke: #e9a942; stroke-width: 1.5; stroke-linecap: square"/>
   </g>
   <g id="line2d_45">
    <path d="M 64.2325 448.492631 
L 82.28938 448.981156 
L 100.34626 446.669802 
L 154.5169 436.785063 
L 172.57378 429.846014 
L 190.63066 428.827423 
L 208.68754 437.220831 
L 226.74442 432.866062 
L 244.8013 421.116538 
L 262.85818 433.411084 
L 280.91506 446.201632 
L 298.97194 440.937526 
L 317.02882 433.604666 
L 335.0857 431.345653 
L 353.14258 433.635406 
L 371.19946 430.408898 
L 389.25634 427.275442 
L 407.31322 430.256442 
L 425.3701 426.131396 
L 443.42698 427.687947 
L 461.48386 423.302438 
L 479.54074 400.919601 
L 497.59762 401.715532 
L 515.6545 421.449698 
L 533.71138 419.142913 
L 551.76826 384.32803 
L 569.82514 407.991582 
L 587.88202 409.808596 
L 605.9389 421.687314 
L 623.99578 412.296086 
L 642.05266 413.475857 
L 660.10954 407.623527 
L 678.16642 415.167832 
L 696.2233 468.514263 
L 714.28018 495.642356 
L 732.33706 493.900116 
L 750.39394 488.799682 
L 768.45082 487.476179 
L 786.5077 484.848695 
L 804.56458 481.422789 
L 822.62146 478.101151 
L 840.67834 474.751265 
L 858.73522 481.547828 
L 876.7921 479.378129 
L 894.84898 476.907256 
L 912.90586 473.705257 
L 930.96274 474.296389 
L 949.01962 471.53265 
L 967.0765 471.791452 
" clip-path="url(#p577868aee8)" style="fill: none; stroke: #9a5689; stroke-width: 1.5; stroke-linecap: square"/>
   </g>
   <g id="line2d_46">
    <path d="M 64.2325 536.066969 
L 82.28938 536.22981 
L 100.34626 536.433778 
L 154.5169 535.82146 
L 172.57378 535.57429 
L 190.63066 535.48913 
L 208.68754 535.484976 
L 226.74442 535.260653 
L 244.8013 534.876812 
L 262.85818 535.022207 
L 280.91506 535.7309 
L 298.97194 534.717294 
L 317.02882 534.45143 
L 335.0857 534.071743 
L 353.14258 534.156902 
L 371.19946 532.38683 
L 389.25634 531.473338 
L 407.31322 532.147137 
L 425.3701 531.582592 
L 443.42698 531.403134 
L 461.48386 531.307173 
L 479.54074 530.08503 
L 497.59762 530.200515 
L 515.6545 530.159804 
L 533.71138 529.169876 
L 551.76826 529.350165 
L 569.82514 529.053146 
L 587.88202 529.857384 
L 605.9389 529.810858 
L 623.99578 529.136228 
L 642.05266 529.379244 
L 660.10954 528.904428 
L 678.16642 528.789359 
L 696.2233 531.214952 
L 714.28018 528.872857 
L 732.33706 527.941086 
L 750.39394 527.206637 
L 768.45082 526.057191 
L 786.5077 525.152423 
L 804.56458 524.820508 
L 822.62146 524.425867 
L 840.67834 524.165818 
L 858.73522 524.097691 
L 876.7921 524.082736 
L 894.84898 523.167167 
L 912.90586 522.293139 
L 930.96274 522.654964 
L 949.01962 521.707823 
L 967.0765 521.867757 
" clip-path="url(#p577868aee8)" style="fill: none; stroke: #be503b; stroke-width: 1.5; stroke-linecap: square"/>
   </g>
   <g id="line2d_47">
    <path d="M 64.2325 410.463286 
L 82.28938 408.936646 
L 100.34626 408.17561 
L 154.5169 403.961667 
L 172.57378 405.767049 
L 190.63066 404.380402 
L 208.68754 398.258054 
L 226.74442 400.48965 
L 244.8013 397.526513 
L 262.85818 401.575538 
L 280.91506 412.332227 
L 298.97194 399.936736 
L 317.02882 396.275706 
L 335.0857 393.052521 
L 353.14258 393.443009 
L 371.19946 390.073183 
L 389.25634 387.247133 
L 407.31322 387.742304 
L 425.3701 386.05116 
L 443.42698 385.032154 
L 461.48386 382.58122 
L 479.54074 371.849871 
L 497.59762 370.460317 
L 515.6545 372.489191 
L 533.71138 368.261954 
L 551.76826 366.724928 
L 569.82514 363.359673 
L 587.88202 360.354995 
L 605.9389 362.416271 
L 623.99578 358.797198 
L 642.05266 356.371605 
L 660.10954 354.196921 
L 678.16642 349.622815 
L 696.2233 359.662502 
L 714.28018 348.301388 
L 732.33706 340.457155 
L 750.39394 338.907252 
L 768.45082 339.637131 
L 786.5077 331.690707 
L 804.56458 328.305927 
L 822.62146 321.278395 
L 840.67834 315.571044 
L 858.73522 316.571357 
L 876.7921 314.582778 
L 894.84898 293.077708 
L 912.90586 301.71247 
L 930.96274 296.83719 
L 949.01962 294.905107 
L 967.0765 293.32737 
" clip-path="url(#p577868aee8)" style="fill: none; stroke: #e2321d; stroke-width: 1.5; stroke-linecap: square"/>
   </g>
   <g id="line2d_48">
    <path d="M 64.2325 348.073742 
L 82.28938 337.575855 
L 100.34626 340.95025 
L 154.5169 327.84108 
L 172.57378 329.645632 
L 190.63066 328.386932 
L 208.68754 308.9448 
L 226.74442 286.784625 
L 244.8013 272.674727 
L 262.85818 282.909243 
L 280.91506 297.399243 
L 298.97194 286.495498 
L 317.02882 279.443457 
L 335.0857 276.259736 
L 353.14258 298.734794 
L 371.19946 297.626889 
L 389.25634 280.899893 
L 407.31322 258.370831 
L 425.3701 266.959483 
L 443.42698 259.172993 
L 461.48386 223.167952 
L 479.54074 219.835929 
L 497.59762 203.076115 
L 515.6545 208.719078 
L 533.71138 167.973351 
L 551.76826 179.700443 
L 569.82514 177.741774 
L 587.88202 171.636458 
L 605.9389 164.077198 
L 623.99578 165.912905 
L 642.05266 171.005862 
L 660.10954 167.929317 
L 678.16642 151.486048 
L 696.2233 150.59748 
L 714.28018 141.293904 
L 732.33706 76.294323 
L 750.39394 113.341633 
L 768.45082 128.318082 
L 786.5077 107.088015 
L 804.56458 127.765168 
L 822.62146 146.459973 
L 840.67834 114.81427 
L 858.73522 118.784782 
L 876.7921 94.71371 
L 894.84898 69.979224 
L 912.90586 82.096804 
L 930.96274 66.259206 
L 949.01962 54.721957 
L 967.0765 48.604178 
" clip-path="url(#p577868aee8)" style="fill: none; stroke: #48b585; stroke-width: 6; stroke-linecap: square"/>
   </g>
   <g id="patch_3">
    <path d="M 64.2325 567.74175 
L 64.2325 24.14175 
" style="fill: none; stroke: #ffffff; stroke-linejoin: miter; stroke-linecap: square"/>
   </g>
   <g id="patch_4">
    <path d="M 967.0765 567.74175 
L 967.0765 24.14175 
" style="fill: none; stroke: #ffffff; stroke-linejoin: miter; stroke-linecap: square"/>
   </g>
   <g id="patch_5">
    <path d="M 64.2325 567.74175 
L 967.0765 567.74175 
" style="fill: none; stroke: #ffffff; stroke-linejoin: miter; stroke-linecap: square"/>
   </g>
   <g id="patch_6">
    <path d="M 64.2325 24.14175 
L 967.0765 24.14175 
" style="fill: none; stroke: #ffffff; stroke-linejoin: miter; stroke-linecap: square"/>
   </g>
   <g id="text_21">
    <!-- Enterprise Linux 8 and 9 Instances by Distribution (System Age &gt; 1 Week) -->
    <g transform="translate(64.2325 18.14175)scale(0.144 -0.144)">
     <defs>
      <path id="DejaVuSans-45" d="M 628 4666 
L 3578 4666 
L 3578 4134 
L 1259 4134 
L 1259 2753 
L 3481 2753 
L 3481 2222 
L 1259 2222 
L 1259 531 
L 3634 531 
L 3634 0 
L 628 0 
L 628 4666 
z
" transform="scale(0.015625)"/>
      <path id="DejaVuSans-72" d="M 2631 2963 
Q 2534 3019 2420 3045 
Q 2306 3072 2169 3072 
Q 1681 3072 1420 2755 
Q 1159 2438 1159 1844 
L 1159 0 
L 581 0 
L 581 3500 
L 1159 3500 
L 1159 2956 
Q 1341 3275 1631 3429 
Q 1922 3584 2338 3584 
Q 2397 3584 2469 3576 
Q 2541 3569 2628 3553 
L 2631 2963 
z
" transform="scale(0.015625)"/>
      <path id="DejaVuSans-70" d="M 1159 525 
L 1159 -1331 
L 581 -1331 
L 581 3500 
L 1159 3500 
L 1159 2969 
Q 1341 3281 1617 3432 
Q 1894 3584 2278 3584 
Q 2916 3584 3314 3078 
Q 3713 2572 3713 1747 
Q 3713 922 3314 415 
Q 2916 -91 2278 -91 
Q 1894 -91 1617 61 
Q 1341 213 1159 525 
z
M 3116 1747 
Q 3116 2381 2855 2742 
Q 2594 3103 2138 3103 
Q 1681 3103 1420 2742 
Q 1159 2381 1159 1747 
Q 1159 1113 1420 752 
Q 1681 391 2138 391 
Q 2594 391 2855 752 
Q 3116 1113 3116 1747 
z
" transform="scale(0.015625)"/>
      <path id="DejaVuSans-69" d="M 603 3500 
L 1178 3500 
L 1178 0 
L 603 0 
L 603 3500 
z
M 603 4863 
L 1178 4863 
L 1178 4134 
L 603 4134 
L 603 4863 
z
" transform="scale(0.015625)"/>
      <path id="DejaVuSans-20" transform="scale(0.015625)"/>
      <path id="DejaVuSans-4c" d="M 628 4666 
L 1259 4666 
L 1259 531 
L 3531 531 
L 3531 0 
L 628 0 
L 628 4666 
z
" transform="scale(0.015625)"/>
      <path id="DejaVuSans-75" d="M 544 1381 
L 544 3500 
L 1119 3500 
L 1119 1403 
Q 1119 906 1312 657 
Q 1506 409 1894 409 
Q 2359 409 2629 706 
Q 2900 1003 2900 1516 
L 2900 3500 
L 3475 3500 
L 3475 0 
L 2900 0 
L 2900 538 
Q 2691 219 2414 64 
Q 2138 -91 1772 -91 
Q 1169 -91 856 284 
Q 544 659 544 1381 
z
M 1991 3584 
L 1991 3584 
z
" transform="scale(0.015625)"/>
      <path id="DejaVuSans-78" d="M 3513 3500 
L 2247 1797 
L 3578 0 
L 2900 0 
L 1881 1375 
L 863 0 
L 184 0 
L 1544 1831 
L 300 3500 
L 978 3500 
L 1906 2253 
L 2834 3500 
L 3513 3500 
z
" transform="scale(0.015625)"/>
      <path id="DejaVuSans-64" d="M 2906 2969 
L 2906 4863 
L 3481 4863 
L 3481 0 
L 2906 0 
L 2906 525 
Q 2725 213 2448 61 
Q 2172 -91 1784 -91 
Q 1150 -91 751 415 
Q 353 922 353 1747 
Q 353 2572 751 3078 
Q 1150 3584 1784 3584 
Q 2172 3584 2448 3432 
Q 2725 3281 2906 2969 
z
M 947 1747 
Q 947 1113 1208 752 
Q 1469 391 1925 391 
Q 2381 391 2643 752 
Q 2906 1113 2906 1747 
Q 2906 2381 2643 2742 
Q 2381 3103 1925 3103 
Q 1469 3103 1208 2742 
Q 947 2381 947 1747 
z
" transform="scale(0.015625)"/>
      <path id="DejaVuSans-39" d="M 703 97 
L 703 672 
Q 941 559 1184 500 
Q 1428 441 1663 441 
Q 2288 441 2617 861 
Q 2947 1281 2994 2138 
Q 2813 1869 2534 1725 
Q 2256 1581 1919 1581 
Q 1219 1581 811 2004 
Q 403 2428 403 3163 
Q 403 3881 828 4315 
Q 1253 4750 1959 4750 
Q 2769 4750 3195 4129 
Q 3622 3509 3622 2328 
Q 3622 1225 3098 567 
Q 2575 -91 1691 -91 
Q 1453 -91 1209 -44 
Q 966 3 703 97 
z
M 1959 2075 
Q 2384 2075 2632 2365 
Q 2881 2656 2881 3163 
Q 2881 3666 2632 3958 
Q 2384 4250 1959 4250 
Q 1534 4250 1286 3958 
Q 1038 3666 1038 3163 
Q 1038 2656 1286 2365 
Q 1534 2075 1959 2075 
z
" transform="scale(0.015625)"/>
      <path id="DejaVuSans-62" d="M 3116 1747 
Q 3116 2381 2855 2742 
Q 2594 3103 2138 3103 
Q 1681 3103 1420 2742 
Q 1159 2381 1159 1747 
Q 1159 1113 1420 752 
Q 1681 391 2138 391 
Q 2594 391 2855 752 
Q 3116 1113 3116 1747 
z
M 1159 2969 
Q 1341 3281 1617 3432 
Q 1894 3584 2278 3584 
Q 2916 3584 3314 3078 
Q 3713 2572 3713 1747 
Q 3713 922 3314 415 
Q 2916 -91 2278 -91 
Q 1894 -91 1617 61 
Q 1341 213 1159 525 
L 1159 0 
L 581 0 
L 581 4863 
L 1159 4863 
L 1159 2969 
z
" transform="scale(0.015625)"/>
      <path id="DejaVuSans-79" d="M 2059 -325 
Q 1816 -950 1584 -1140 
Q 1353 -1331 966 -1331 
L 506 -1331 
L 506 -850 
L 844 -850 
Q 1081 -850 1212 -737 
Q 1344 -625 1503 -206 
L 1606 56 
L 191 3500 
L 800 3500 
L 1894 763 
L 2988 3500 
L 3597 3500 
L 2059 -325 
z
" transform="scale(0.015625)"/>
      <path id="DejaVuSans-6f" d="M 1959 3097 
Q 1497 3097 1228 2736 
Q 959 2375 959 1747 
Q 959 1119 1226 758 
Q 1494 397 1959 397 
Q 2419 397 2687 759 
Q 2956 1122 2956 1747 
Q 2956 2369 2687 2733 
Q 2419 3097 1959 3097 
z
M 1959 3584 
Q 2709 3584 3137 3096 
Q 3566 2609 3566 1747 
Q 3566 888 3137 398 
Q 2709 -91 1959 -91 
Q 1206 -91 779 398 
Q 353 888 353 1747 
Q 353 2609 779 3096 
Q 1206 3584 1959 3584 
z
" transform="scale(0.015625)"/>
      <path id="DejaVuSans-28" d="M 1984 4856 
Q 1566 4138 1362 3434 
Q 1159 2731 1159 2009 
Q 1159 1288 1364 580 
Q 1569 -128 1984 -844 
L 1484 -844 
Q 1016 -109 783 600 
Q 550 1309 550 2009 
Q 550 2706 781 3412 
Q 1013 4119 1484 4856 
L 1984 4856 
z
" transform="scale(0.015625)"/>
      <path id="DejaVuSans-53" d="M 3425 4513 
L 3425 3897 
Q 3066 4069 2747 4153 
Q 2428 4238 2131 4238 
Q 1616 4238 1336 4038 
Q 1056 3838 1056 3469 
Q 1056 3159 1242 3001 
Q 1428 2844 1947 2747 
L 2328 2669 
Q 3034 2534 3370 2195 
Q 3706 1856 3706 1288 
Q 3706 609 3251 259 
Q 2797 -91 1919 -91 
Q 1588 -91 1214 -16 
Q 841 59 441 206 
L 441 856 
Q 825 641 1194 531 
Q 1563 422 1919 422 
Q 2459 422 2753 634 
Q 3047 847 3047 1241 
Q 3047 1584 2836 1778 
Q 2625 1972 2144 2069 
L 1759 2144 
Q 1053 2284 737 2584 
Q 422 2884 422 3419 
Q 422 4038 858 4394 
Q 1294 4750 2059 4750 
Q 2388 4750 2728 4690 
Q 3069 4631 3425 4513 
z
" transform="scale(0.015625)"/>
      <path id="DejaVuSans-6d" d="M 3328 2828 
Q 3544 3216 3844 3400 
Q 4144 3584 4550 3584 
Q 5097 3584 5394 3201 
Q 5691 2819 5691 2113 
L 5691 0 
L 5113 0 
L 5113 2094 
Q 5113 2597 4934 2840 
Q 4756 3084 4391 3084 
Q 3944 3084 3684 2787 
Q 3425 2491 3425 1978 
L 3425 0 
L 2847 0 
L 2847 2094 
Q 2847 2600 2669 2842 
Q 2491 3084 2119 3084 
Q 1678 3084 1418 2786 
Q 1159 2488 1159 1978 
L 1159 0 
L 581 0 
L 581 3500 
L 1159 3500 
L 1159 2956 
Q 1356 3278 1631 3431 
Q 1906 3584 2284 3584 
Q 2666 3584 2933 3390 
Q 3200 3197 3328 2828 
z
" transform="scale(0.015625)"/>
      <path id="DejaVuSans-41" d="M 2188 4044 
L 1331 1722 
L 3047 1722 
L 2188 4044 
z
M 1831 4666 
L 2547 4666 
L 4325 0 
L 3669 0 
L 3244 1197 
L 1141 1197 
L 716 0 
L 50 0 
L 1831 4666 
z
" transform="scale(0.015625)"/>
      <path id="DejaVuSans-67" d="M 2906 1791 
Q 2906 2416 2648 2759 
Q 2391 3103 1925 3103 
Q 1463 3103 1205 2759 
Q 947 2416 947 1791 
Q 947 1169 1205 825 
Q 1463 481 1925 481 
Q 2391 481 2648 825 
Q 2906 1169 2906 1791 
z
M 3481 434 
Q 3481 -459 3084 -895 
Q 2688 -1331 1869 -1331 
Q 1566 -1331 1297 -1286 
Q 1028 -1241 775 -1147 
L 775 -588 
Q 1028 -725 1275 -790 
Q 1522 -856 1778 -856 
Q 2344 -856 2625 -561 
Q 2906 -266 2906 331 
L 2906 616 
Q 2728 306 2450 153 
Q 2172 0 1784 0 
Q 1141 0 747 490 
Q 353 981 353 1791 
Q 353 2603 747 3093 
Q 1141 3584 1784 3584 
Q 2172 3584 2450 3431 
Q 2728 3278 2906 2969 
L 2906 3500 
L 3481 3500 
L 3481 434 
z
" transform="scale(0.015625)"/>
      <path id="DejaVuSans-3e" d="M 678 3150 
L 678 3719 
L 4684 2266 
L 4684 1747 
L 678 294 
L 678 863 
L 3897 2003 
L 678 3150 
z
" transform="scale(0.015625)"/>
      <path id="DejaVuSans-57" d="M 213 4666 
L 850 4666 
L 1831 722 
L 2809 4666 
L 3519 4666 
L 4500 722 
L 5478 4666 
L 6119 4666 
L 4947 0 
L 4153 0 
L 3169 4050 
L 2175 0 
L 1381 0 
L 213 4666 
z
" transform="scale(0.015625)"/>
      <path id="DejaVuSans-29" d="M 513 4856 
L 1013 4856 
Q 1481 4119 1714 3412 
Q 1947 2706 1947 2009 
Q 1947 1309 1714 600 
Q 1481 -109 1013 -844 
L 513 -844 
Q 928 -128 1133 580 
Q 1338 1288 1338 2009 
Q 1338 2731 1133 3434 
Q 928 4138 513 4856 
z
" transform="scale(0.015625)"/>
     </defs>
     <use xlink:href="#DejaVuSans-45"/>
     <use xlink:href="#DejaVuSans-6e" x="63.183594"/>
     <use xlink:href="#DejaVuSans-74" x="126.5625"/>
     <use xlink:href="#DejaVuSans-65" x="165.771484"/>
     <use xlink:href="#DejaVuSans-72" x="227.294922"/>
     <use xlink:href="#DejaVuSans-70" x="268.408203"/>
     <use xlink:href="#DejaVuSans-72" x="331.884766"/>
     <use xlink:href="#DejaVuSans-69" x="372.998047"/>
     <use xlink:href="#DejaVuSans-73" x="400.78125"/>
     <use xlink:href="#DejaVuSans-65" x="452.880859"/>
     <use xlink:href="#DejaVuSans-20" x="514.404297"/>
     <use xlink:href="#DejaVuSans-4c" x="546.191406"/>
     <use xlink:href="#DejaVuSans-69" x="601.904297"/>
     <use xlink:href="#DejaVuSans-6e" x="629.6875"/>
     <use xlink:href="#DejaVuSans-75" x="693.066406"/>
     <use xlink:href="#DejaVuSans-78" x="756.445312"/>
     <use xlink:href="#DejaVuSans-20" x="815.625"/>
     <use xlink:href="#DejaVuSans-38" x="847.412109"/>
     <use xlink:href="#DejaVuSans-20" x="911.035156"/>
     <use xlink:href="#DejaVuSans-61" x="942.822266"/>
     <use xlink:href="#DejaVuSans-6e" x="1004.101562"/>
     <use xlink:href="#DejaVuSans-64" x="1067.480469"/>
     <use xlink:href="#DejaVuSans-20" x="1130.957031"/>
     <use xlink:href="#DejaVuSans-39" x="1162.744141"/>
     <use xlink:href="#DejaVuSans-20" x="1226.367188"/>
     <use xlink:href="#DejaVuSans-49" x="1258.154297"/>
     <use xlink:href="#DejaVuSans-6e" x="1287.646484"/>
     <use xlink:href="#DejaVuSans-73" x="1351.025391"/>
     <use xlink:href="#DejaVuSans-74" x="1403.125"/>
     <use xlink:href="#DejaVuSans-61" x="1442.333984"/>
     <use xlink:href="#DejaVuSans-6e" x="1503.613281"/>
     <use xlink:href="#DejaVuSans-63" x="1566.992188"/>
     <use xlink:href="#DejaVuSans-65" x="1621.972656"/>
     <use xlink:href="#DejaVuSans-73" x="1683.496094"/>
     <use xlink:href="#DejaVuSans-20" x="1735.595703"/>
     <use xlink:href="#DejaVuSans-62" x="1767.382812"/>
     <use xlink:href="#DejaVuSans-79" x="1830.859375"/>
     <use xlink:href="#DejaVuSans-20" x="1890.039062"/>
     <use xlink:href="#DejaVuSans-44" x="1921.826172"/>
     <use xlink:href="#DejaVuSans-69" x="1998.828125"/>
     <use xlink:href="#DejaVuSans-73" x="2026.611328"/>
     <use xlink:href="#DejaVuSans-74" x="2078.710938"/>
     <use xlink:href="#DejaVuSans-72" x="2117.919922"/>
     <use xlink:href="#DejaVuSans-69" x="2159.033203"/>
     <use xlink:href="#DejaVuSans-62" x="2186.816406"/>
     <use xlink:href="#DejaVuSans-75" x="2250.292969"/>
     <use xlink:href="#DejaVuSans-74" x="2313.671875"/>
     <use xlink:href="#DejaVuSans-69" x="2352.880859"/>
     <use xlink:href="#DejaVuSans-6f" x="2380.664062"/>
     <use xlink:href="#DejaVuSans-6e" x="2441.845703"/>
     <use xlink:href="#DejaVuSans-20" x="2505.224609"/>
     <use xlink:href="#DejaVuSans-28" x="2537.011719"/>
     <use xlink:href="#DejaVuSans-53" x="2576.025391"/>
     <use xlink:href="#DejaVuSans-79" x="2639.501953"/>
     <use xlink:href="#DejaVuSans-73" x="2698.681641"/>
     <use xlink:href="#DejaVuSans-74" x="2750.78125"/>
     <use xlink:href="#DejaVuSans-65" x="2789.990234"/>
     <use xlink:href="#DejaVuSans-6d" x="2851.513672"/>
     <use xlink:href="#DejaVuSans-20" x="2948.925781"/>
     <use xlink:href="#DejaVuSans-41" x="2980.712891"/>
     <use xlink:href="#DejaVuSans-67" x="3049.121094"/>
     <use xlink:href="#DejaVuSans-65" x="3112.597656"/>
     <use xlink:href="#DejaVuSans-20" x="3174.121094"/>
     <use xlink:href="#DejaVuSans-3e" x="3205.908203"/>
     <use xlink:href="#DejaVuSans-20" x="3289.697266"/>
     <use xlink:href="#DejaVuSans-31" x="3321.484375"/>
     <use xlink:href="#DejaVuSans-20" x="3385.107422"/>
     <use xlink:href="#DejaVuSans-57" x="3416.894531"/>
     <use xlink:href="#DejaVuSans-65" x="3509.896484"/>
     <use xlink:href="#DejaVuSans-65" x="3571.419922"/>
     <use xlink:href="#DejaVuSans-6b" x="3632.943359"/>
     <use xlink:href="#DejaVuSans-29" x="3690.853516"/>
    </g>
   </g>
   <g id="text_22">
    <!-- 2024-10-01 15:39 UTC -->
    <g transform="translate(804.1945 18.14175)scale(0.144 -0.144)">
     <defs>
      <path id="DejaVuSans-3a" d="M 750 794 
L 1409 794 
L 1409 0 
L 750 0 
L 750 794 
z
M 750 3309 
L 1409 3309 
L 1409 2516 
L 750 2516 
L 750 3309 
z
" transform="scale(0.015625)"/>
      <path id="DejaVuSans-55" d="M 556 4666 
L 1191 4666 
L 1191 1831 
Q 1191 1081 1462 751 
Q 1734 422 2344 422 
Q 2950 422 3222 751 
Q 3494 1081 3494 1831 
L 3494 4666 
L 4128 4666 
L 4128 1753 
Q 4128 841 3676 375 
Q 3225 -91 2344 -91 
Q 1459 -91 1007 375 
Q 556 841 556 1753 
L 556 4666 
z
" transform="scale(0.015625)"/>
      <path id="DejaVuSans-54" d="M -19 4666 
L 3928 4666 
L 3928 4134 
L 2272 4134 
L 2272 0 
L 1638 0 
L 1638 4134 
L -19 4134 
L -19 4666 
z
" transform="scale(0.015625)"/>
      <path id="DejaVuSans-43" d="M 4122 4306 
L 4122 3641 
Q 3803 3938 3442 4084 
Q 3081 4231 2675 4231 
Q 1875 4231 1450 3742 
Q 1025 3253 1025 2328 
Q 1025 1406 1450 917 
Q 1875 428 2675 428 
Q 3081 428 3442 575 
Q 3803 722 4122 1019 
L 4122 359 
Q 3791 134 3420 21 
Q 3050 -91 2638 -91 
Q 1578 -91 968 557 
Q 359 1206 359 2328 
Q 359 3453 968 4101 
Q 1578 4750 2638 4750 
Q 3056 4750 3426 4639 
Q 3797 4528 4122 4306 
z
" transform="scale(0.015625)"/>
     </defs>
     <use xlink:href="#DejaVuSans-32"/>
     <use xlink:href="#DejaVuSans-30" x="63.623047"/>
     <use xlink:href="#DejaVuSans-32" x="127.246094"/>
     <use xlink:href="#DejaVuSans-34" x="190.869141"/>
     <use xlink:href="#DejaVuSans-2d" x="254.492188"/>
     <use xlink:href="#DejaVuSans-31" x="290.576172"/>
     <use xlink:href="#DejaVuSans-30" x="354.199219"/>
     <use xlink:href="#DejaVuSans-2d" x="417.822266"/>
     <use xlink:href="#DejaVuSans-30" x="453.90625"/>
     <use xlink:href="#DejaVuSans-31" x="517.529297"/>
     <use xlink:href="#DejaVuSans-20" x="581.152344"/>
     <use xlink:href="#DejaVuSans-31" x="612.939453"/>
     <use xlink:href="#DejaVuSans-35" x="676.5625"/>
     <use xlink:href="#DejaVuSans-3a" x="740.185547"/>
     <use xlink:href="#DejaVuSans-33" x="773.876953"/>
     <use xlink:href="#DejaVuSans-39" x="837.5"/>
     <use xlink:href="#DejaVuSans-20" x="901.123047"/>
     <use xlink:href="#DejaVuSans-55" x="932.910156"/>
     <use xlink:href="#DejaVuSans-54" x="1006.103516"/>
     <use xlink:href="#DejaVuSans-43" x="1061.3125"/>
    </g>
   </g>
   <g id="legend_1">
    <g id="patch_7">
     <path d="M 71.2325 134.888625 
L 180.20125 134.888625 
Q 182.20125 134.888625 182.20125 132.888625 
L 182.20125 31.14175 
Q 182.20125 29.14175 180.20125 29.14175 
L 71.2325 29.14175 
Q 69.2325 29.14175 69.2325 31.14175 
L 69.2325 132.888625 
Q 69.2325 134.888625 71.2325 134.888625 
z
" style="fill: #e5e5e5; opacity: 0.8; stroke: #cccccc; stroke-width: 0.5; stroke-linejoin: miter"/>
    </g>
    <g id="text_23">
     <!-- Distribution -->
     <g transform="translate(96.548125 40.740187)scale(0.1 -0.1)">
      <use xlink:href="#DejaVuSans-44"/>
      <use xlink:href="#DejaVuSans-69" x="77.001953"/>
      <use xlink:href="#DejaVuSans-73" x="104.785156"/>
      <use xlink:href="#DejaVuSans-74" x="156.884766"/>
      <use xlink:href="#DejaVuSans-72" x="196.09375"/>
      <use xlink:href="#DejaVuSans-69" x="237.207031"/>
      <use xlink:href="#DejaVuSans-62" x="264.990234"/>
      <use xlink:href="#DejaVuSans-75" x="328.466797"/>
      <use xlink:href="#DejaVuSans-74" x="391.845703"/>
      <use xlink:href="#DejaVuSans-69" x="431.054688"/>
      <use xlink:href="#DejaVuSans-6f" x="458.837891"/>
      <use xlink:href="#DejaVuSans-6e" x="520.019531"/>
     </g>
    </g>
    <g id="line2d_49">
     <path d="M 73.2325 51.918312 
L 83.2325 51.918312 
L 93.2325 51.918312 
" style="fill: none; stroke: #4ac1fa; stroke-width: 1.5; stroke-linecap: square"/>
    </g>
    <g id="text_24">
     <!-- AlmaLinux -->
     <g transform="translate(101.2325 55.418312)scale(0.1 -0.1)">
      <defs>
       <path id="DejaVuSans-6c" d="M 603 4863 
L 1178 4863 
L 1178 0 
L 603 0 
L 603 4863 
z
" transform="scale(0.015625)"/>
      </defs>
      <use xlink:href="#DejaVuSans-41"/>
      <use xlink:href="#DejaVuSans-6c" x="68.408203"/>
      <use xlink:href="#DejaVuSans-6d" x="96.191406"/>
      <use xlink:href="#DejaVuSans-61" x="193.603516"/>
      <use xlink:href="#DejaVuSans-4c" x="254.882812"/>
      <use xlink:href="#DejaVuSans-69" x="310.595703"/>
      <use xlink:href="#DejaVuSans-6e" x="338.378906"/>
      <use xlink:href="#DejaVuSans-75" x="401.757812"/>
      <use xlink:href="#DejaVuSans-78" x="465.136719"/>
     </g>
    </g>
    <g id="line2d_50">
     <path d="M 73.2325 66.596437 
L 83.2325 66.596437 
L 93.2325 66.596437 
" style="fill: none; stroke: #e9a942; stroke-width: 1.5; stroke-linecap: square"/>
    </g>
    <g id="text_25">
     <!-- CentOS Legacy -->
     <g transform="translate(101.2325 70.096437)scale(0.1 -0.1)">
      <defs>
       <path id="DejaVuSans-4f" d="M 2522 4238 
Q 1834 4238 1429 3725 
Q 1025 3213 1025 2328 
Q 1025 1447 1429 934 
Q 1834 422 2522 422 
Q 3209 422 3611 934 
Q 4013 1447 4013 2328 
Q 4013 3213 3611 3725 
Q 3209 4238 2522 4238 
z
M 2522 4750 
Q 3503 4750 4090 4092 
Q 4678 3434 4678 2328 
Q 4678 1225 4090 567 
Q 3503 -91 2522 -91 
Q 1538 -91 948 565 
Q 359 1222 359 2328 
Q 359 3434 948 4092 
Q 1538 4750 2522 4750 
z
" transform="scale(0.015625)"/>
      </defs>
      <use xlink:href="#DejaVuSans-43"/>
      <use xlink:href="#DejaVuSans-65" x="69.824219"/>
      <use xlink:href="#DejaVuSans-6e" x="131.347656"/>
      <use xlink:href="#DejaVuSans-74" x="194.726562"/>
      <use xlink:href="#DejaVuSans-4f" x="233.935547"/>
      <use xlink:href="#DejaVuSans-53" x="312.646484"/>
      <use xlink:href="#DejaVuSans-20" x="376.123047"/>
      <use xlink:href="#DejaVuSans-4c" x="407.910156"/>
      <use xlink:href="#DejaVuSans-65" x="461.873047"/>
      <use xlink:href="#DejaVuSans-67" x="523.396484"/>
      <use xlink:href="#DejaVuSans-61" x="586.873047"/>
      <use xlink:href="#DejaVuSans-63" x="648.152344"/>
      <use xlink:href="#DejaVuSans-79" x="703.132812"/>
     </g>
    </g>
    <g id="line2d_51">
     <path d="M 73.2325 81.274563 
L 83.2325 81.274563 
L 93.2325 81.274563 
" style="fill: none; stroke: #9a5689; stroke-width: 1.5; stroke-linecap: square"/>
    </g>
    <g id="text_26">
     <!-- CentOS Stream -->
     <g transform="translate(101.2325 84.774563)scale(0.1 -0.1)">
      <use xlink:href="#DejaVuSans-43"/>
      <use xlink:href="#DejaVuSans-65" x="69.824219"/>
      <use xlink:href="#DejaVuSans-6e" x="131.347656"/>
      <use xlink:href="#DejaVuSans-74" x="194.726562"/>
      <use xlink:href="#DejaVuSans-4f" x="233.935547"/>
      <use xlink:href="#DejaVuSans-53" x="312.646484"/>
      <use xlink:href="#DejaVuSans-20" x="376.123047"/>
      <use xlink:href="#DejaVuSans-53" x="407.910156"/>
      <use xlink:href="#DejaVuSans-74" x="471.386719"/>
      <use xlink:href="#DejaVuSans-72" x="510.595703"/>
      <use xlink:href="#DejaVuSans-65" x="549.458984"/>
      <use xlink:href="#DejaVuSans-61" x="610.982422"/>
      <use xlink:href="#DejaVuSans-6d" x="672.261719"/>
     </g>
    </g>
    <g id="line2d_52">
     <path d="M 73.2325 95.952687 
L 83.2325 95.952687 
L 93.2325 95.952687 
" style="fill: none; stroke: #be503b; stroke-width: 1.5; stroke-linecap: square"/>
    </g>
    <g id="text_27">
     <!-- Oracle -->
     <g transform="translate(101.2325 99.452687)scale(0.1 -0.1)">
      <use xlink:href="#DejaVuSans-4f"/>
      <use xlink:href="#DejaVuSans-72" x="78.710938"/>
      <use xlink:href="#DejaVuSans-61" x="119.824219"/>
      <use xlink:href="#DejaVuSans-63" x="181.103516"/>
      <use xlink:href="#DejaVuSans-6c" x="236.083984"/>
      <use xlink:href="#DejaVuSans-65" x="263.867188"/>
     </g>
    </g>
    <g id="line2d_53">
     <path d="M 73.2325 110.630812 
L 83.2325 110.630812 
L 93.2325 110.630812 
" style="fill: none; stroke: #e2321d; stroke-width: 1.5; stroke-linecap: square"/>
    </g>
    <g id="text_28">
     <!-- RHEL -->
     <g transform="translate(101.2325 114.130812)scale(0.1 -0.1)">
      <defs>
       <path id="DejaVuSans-52" d="M 2841 2188 
Q 3044 2119 3236 1894 
Q 3428 1669 3622 1275 
L 4263 0 
L 3584 0 
L 2988 1197 
Q 2756 1666 2539 1819 
Q 2322 1972 1947 1972 
L 1259 1972 
L 1259 0 
L 628 0 
L 628 4666 
L 2053 4666 
Q 2853 4666 3247 4331 
Q 3641 3997 3641 3322 
Q 3641 2881 3436 2590 
Q 3231 2300 2841 2188 
z
M 1259 4147 
L 1259 2491 
L 2053 2491 
Q 2509 2491 2742 2702 
Q 2975 2913 2975 3322 
Q 2975 3731 2742 3939 
Q 2509 4147 2053 4147 
L 1259 4147 
z
" transform="scale(0.015625)"/>
       <path id="DejaVuSans-48" d="M 628 4666 
L 1259 4666 
L 1259 2753 
L 3553 2753 
L 3553 4666 
L 4184 4666 
L 4184 0 
L 3553 0 
L 3553 2222 
L 1259 2222 
L 1259 0 
L 628 0 
L 628 4666 
z
" transform="scale(0.015625)"/>
      </defs>
      <use xlink:href="#DejaVuSans-52"/>
      <use xlink:href="#DejaVuSans-48" x="69.482422"/>
      <use xlink:href="#DejaVuSans-45" x="144.677734"/>
      <use xlink:href="#DejaVuSans-4c" x="207.861328"/>
     </g>
    </g>
    <g id="line2d_54">
     <path d="M 73.2325 125.308937 
L 83.2325 125.308937 
L 93.2325 125.308937 
" style="fill: none; stroke: #48b585; stroke-width: 6; stroke-linecap: square"/>
    </g>
    <g id="text_29">
     <!-- Rocky Linux -->
     <g transform="translate(101.2325 128.808937)scale(0.1 -0.1)">
      <use xlink:href="#DejaVuSans-52"/>
      <use xlink:href="#DejaVuSans-6f" x="64.982422"/>
      <use xlink:href="#DejaVuSans-63" x="126.164062"/>
      <use xlink:href="#DejaVuSans-6b" x="181.144531"/>
      <use xlink:href="#DejaVuSans-79" x="235.429688"/>
      <use xlink:href="#DejaVuSans-20" x="294.609375"/>
      <use xlink:href="#DejaVuSans-4c" x="326.396484"/>
      <use xlink:href="#DejaVuSans-69" x="382.109375"/>
      <use xlink:href="#DejaVuSans-6e" x="409.892578"/>
      <use xlink:href="#DejaVuSans-75" x="473.271484"/>
      <use xlink:href="#DejaVuSans-78" x="536.650391"/>
     </g>
    </g>
   </g>
  </g>
 </g>
 <defs>
  <clipPath id="p577868aee8">
   <rect x="64.2325" y="24.14175" width="902.844" height="543.6"/>
  </clipPath>
 </defs>
</svg>
