<?xml version="1.0" encoding="utf-8" standalone="no"?>
<!DOCTYPE svg PUBLIC "-//W3C//DTD SVG 1.1//EN"
  "http://www.w3.org/Graphics/SVG/1.1/DTD/svg11.dtd">
<svg xmlns:xlink="http://www.w3.org/1999/xlink" width="962.123375pt" height="644.743878pt" viewBox="0 0 962.123375 644.743878" xmlns="http://www.w3.org/2000/svg" version="1.1">
 <metadata>
  <rdf:RDF xmlns:dc="http://purl.org/dc/elements/1.1/" xmlns:cc="http://creativecommons.org/ns#" xmlns:rdf="http://www.w3.org/1999/02/22-rdf-syntax-ns#">
   <cc:Work>
    <dc:type rdf:resource="http://purl.org/dc/dcmitype/StillImage"/>
    <dc:date>2025-09-25T11:55:10.237799</dc:date>
    <dc:format>image/svg+xml</dc:format>
    <dc:creator>
     <cc:Agent>
      <dc:title>Matplotlib v3.6.3, https://matplotlib.org/</dc:title>
     </cc:Agent>
    </dc:creator>
   </cc:Work>
  </rdf:RDF>
 </metadata>
 <defs>
  <style type="text/css">*{stroke-linejoin: round; stroke-linecap: butt}</style>
 </defs>
 <g id="figure_1">
  <g id="patch_1">
   <path d="M 0 644.743878 
L 962.123375 644.743878 
L 962.123375 0 
L 0 0 
z
" style="fill: #ffffff"/>
  </g>
  <g id="axes_1">
   <g id="patch_2">
    <path d="M 52.079375 578.54175 
L 954.923375 578.54175 
L 954.923375 24.14175 
L 52.079375 24.14175 
z
" style="fill: #e5e5e5"/>
   </g>
   <g id="matplotlib.axis_1">
    <g id="xtick_1">
     <g id="line2d_1">
      <path d="M 69.782199 578.54175 
L 69.782199 24.14175 
" clip-path="url(#p0af8cb3a67)" style="fill: none; stroke: #ffffff; stroke-width: 0.8; stroke-linecap: square"/>
     </g>
     <g id="line2d_2">
      <defs>
       <path id="m0cf4e3b808" d="M 0 0 
L 0 3.5 
" style="stroke: #555555; stroke-width: 0.8"/>
      </defs>
      <g>
       <use xlink:href="#m0cf4e3b808" x="69.782199" y="578.54175" style="fill: #555555; stroke: #555555; stroke-width: 0.8"/>
      </g>
     </g>
     <g id="text_1">
      <!-- 2024-10 -->
      <g style="fill: #555555" transform="translate(56.960916 620.459567) rotate(-45) scale(0.1 -0.1)">
       <defs>
        <path id="DejaVuSans-32" d="M 1228 531 
L 3431 531 
L 3431 0 
L 469 0 
L 469 531 
Q 828 903 1448 1529 
Q 2069 2156 2228 2338 
Q 2531 2678 2651 2914 
Q 2772 3150 2772 3378 
Q 2772 3750 2511 3984 
Q 2250 4219 1831 4219 
Q 1534 4219 1204 4116 
Q 875 4013 500 3803 
L 500 4441 
Q 881 4594 1212 4672 
Q 1544 4750 1819 4750 
Q 2544 4750 2975 4387 
Q 3406 4025 3406 3419 
Q 3406 3131 3298 2873 
Q 3191 2616 2906 2266 
Q 2828 2175 2409 1742 
Q 1991 1309 1228 531 
z
" transform="scale(0.015625)"/>
        <path id="DejaVuSans-30" d="M 2034 4250 
Q 1547 4250 1301 3770 
Q 1056 3291 1056 2328 
Q 1056 1369 1301 889 
Q 1547 409 2034 409 
Q 2525 409 2770 889 
Q 3016 1369 3016 2328 
Q 3016 3291 2770 3770 
Q 2525 4250 2034 4250 
z
M 2034 4750 
Q 2819 4750 3233 4129 
Q 3647 3509 3647 2328 
Q 3647 1150 3233 529 
Q 2819 -91 2034 -91 
Q 1250 -91 836 529 
Q 422 1150 422 2328 
Q 422 3509 836 4129 
Q 1250 4750 2034 4750 
z
" transform="scale(0.015625)"/>
        <path id="DejaVuSans-34" d="M 2419 4116 
L 825 1625 
L 2419 1625 
L 2419 4116 
z
M 2253 4666 
L 3047 4666 
L 3047 1625 
L 3713 1625 
L 3713 1100 
L 3047 1100 
L 3047 0 
L 2419 0 
L 2419 1100 
L 313 1100 
L 313 1709 
L 2253 4666 
z
" transform="scale(0.015625)"/>
        <path id="DejaVuSans-2d" d="M 313 2009 
L 1997 2009 
L 1997 1497 
L 313 1497 
L 313 2009 
z
" transform="scale(0.015625)"/>
        <path id="DejaVuSans-31" d="M 794 531 
L 1825 531 
L 1825 4091 
L 703 3866 
L 703 4441 
L 1819 4666 
L 2450 4666 
L 2450 531 
L 3481 531 
L 3481 0 
L 794 0 
L 794 531 
z
" transform="scale(0.015625)"/>
       </defs>
       <use xlink:href="#DejaVuSans-32"/>
       <use xlink:href="#DejaVuSans-30" x="63.623047"/>
       <use xlink:href="#DejaVuSans-32" x="127.246094"/>
       <use xlink:href="#DejaVuSans-34" x="190.869141"/>
       <use xlink:href="#DejaVuSans-2d" x="254.492188"/>
       <use xlink:href="#DejaVuSans-31" x="290.576172"/>
       <use xlink:href="#DejaVuSans-30" x="354.199219"/>
      </g>
     </g>
    </g>
    <g id="xtick_2">
     <g id="line2d_3">
      <path d="M 148.180417 578.54175 
L 148.180417 24.14175 
" clip-path="url(#p0af8cb3a67)" style="fill: none; stroke: #ffffff; stroke-width: 0.8; stroke-linecap: square"/>
     </g>
     <g id="line2d_4">
      <g>
       <use xlink:href="#m0cf4e3b808" x="148.180417" y="578.54175" style="fill: #555555; stroke: #555555; stroke-width: 0.8"/>
      </g>
     </g>
     <g id="text_2">
      <!-- 2024-11 -->
      <g style="fill: #555555" transform="translate(135.359135 620.459567) rotate(-45) scale(0.1 -0.1)">
       <use xlink:href="#DejaVuSans-32"/>
       <use xlink:href="#DejaVuSans-30" x="63.623047"/>
       <use xlink:href="#DejaVuSans-32" x="127.246094"/>
       <use xlink:href="#DejaVuSans-34" x="190.869141"/>
       <use xlink:href="#DejaVuSans-2d" x="254.492188"/>
       <use xlink:href="#DejaVuSans-31" x="290.576172"/>
       <use xlink:href="#DejaVuSans-31" x="354.199219"/>
      </g>
     </g>
    </g>
    <g id="xtick_3">
     <g id="line2d_5">
      <path d="M 224.049661 578.54175 
L 224.049661 24.14175 
" clip-path="url(#p0af8cb3a67)" style="fill: none; stroke: #ffffff; stroke-width: 0.8; stroke-linecap: square"/>
     </g>
     <g id="line2d_6">
      <g>
       <use xlink:href="#m0cf4e3b808" x="224.049661" y="578.54175" style="fill: #555555; stroke: #555555; stroke-width: 0.8"/>
      </g>
     </g>
     <g id="text_3">
      <!-- 2024-12 -->
      <g style="fill: #555555" transform="translate(211.228378 620.459567) rotate(-45) scale(0.1 -0.1)">
       <use xlink:href="#DejaVuSans-32"/>
       <use xlink:href="#DejaVuSans-30" x="63.623047"/>
       <use xlink:href="#DejaVuSans-32" x="127.246094"/>
       <use xlink:href="#DejaVuSans-34" x="190.869141"/>
       <use xlink:href="#DejaVuSans-2d" x="254.492188"/>
       <use xlink:href="#DejaVuSans-31" x="290.576172"/>
       <use xlink:href="#DejaVuSans-32" x="354.199219"/>
      </g>
     </g>
    </g>
    <g id="xtick_4">
     <g id="line2d_7">
      <path d="M 302.447879 578.54175 
L 302.447879 24.14175 
" clip-path="url(#p0af8cb3a67)" style="fill: none; stroke: #ffffff; stroke-width: 0.8; stroke-linecap: square"/>
     </g>
     <g id="line2d_8">
      <g>
       <use xlink:href="#m0cf4e3b808" x="302.447879" y="578.54175" style="fill: #555555; stroke: #555555; stroke-width: 0.8"/>
      </g>
     </g>
     <g id="text_4">
      <!-- 2025-01 -->
      <g style="fill: #555555" transform="translate(289.626597 620.459567) rotate(-45) scale(0.1 -0.1)">
       <defs>
        <path id="DejaVuSans-35" d="M 691 4666 
L 3169 4666 
L 3169 4134 
L 1269 4134 
L 1269 2991 
Q 1406 3038 1543 3061 
Q 1681 3084 1819 3084 
Q 2600 3084 3056 2656 
Q 3513 2228 3513 1497 
Q 3513 744 3044 326 
Q 2575 -91 1722 -91 
Q 1428 -91 1123 -41 
Q 819 9 494 109 
L 494 744 
Q 775 591 1075 516 
Q 1375 441 1709 441 
Q 2250 441 2565 725 
Q 2881 1009 2881 1497 
Q 2881 1984 2565 2268 
Q 2250 2553 1709 2553 
Q 1456 2553 1204 2497 
Q 953 2441 691 2322 
L 691 4666 
z
" transform="scale(0.015625)"/>
       </defs>
       <use xlink:href="#DejaVuSans-32"/>
       <use xlink:href="#DejaVuSans-30" x="63.623047"/>
       <use xlink:href="#DejaVuSans-32" x="127.246094"/>
       <use xlink:href="#DejaVuSans-35" x="190.869141"/>
       <use xlink:href="#DejaVuSans-2d" x="254.492188"/>
       <use xlink:href="#DejaVuSans-30" x="290.576172"/>
       <use xlink:href="#DejaVuSans-31" x="354.199219"/>
      </g>
     </g>
    </g>
    <g id="xtick_5">
     <g id="line2d_9">
      <path d="M 380.846098 578.54175 
L 380.846098 24.14175 
" clip-path="url(#p0af8cb3a67)" style="fill: none; stroke: #ffffff; stroke-width: 0.8; stroke-linecap: square"/>
     </g>
     <g id="line2d_10">
      <g>
       <use xlink:href="#m0cf4e3b808" x="380.846098" y="578.54175" style="fill: #555555; stroke: #555555; stroke-width: 0.8"/>
      </g>
     </g>
     <g id="text_5">
      <!-- 2025-02 -->
      <g style="fill: #555555" transform="translate(368.024815 620.459567) rotate(-45) scale(0.1 -0.1)">
       <use xlink:href="#DejaVuSans-32"/>
       <use xlink:href="#DejaVuSans-30" x="63.623047"/>
       <use xlink:href="#DejaVuSans-32" x="127.246094"/>
       <use xlink:href="#DejaVuSans-35" x="190.869141"/>
       <use xlink:href="#DejaVuSans-2d" x="254.492188"/>
       <use xlink:href="#DejaVuSans-30" x="290.576172"/>
       <use xlink:href="#DejaVuSans-32" x="354.199219"/>
      </g>
     </g>
    </g>
    <g id="xtick_6">
     <g id="line2d_11">
      <path d="M 451.657392 578.54175 
L 451.657392 24.14175 
" clip-path="url(#p0af8cb3a67)" style="fill: none; stroke: #ffffff; stroke-width: 0.8; stroke-linecap: square"/>
     </g>
     <g id="line2d_12">
      <g>
       <use xlink:href="#m0cf4e3b808" x="451.657392" y="578.54175" style="fill: #555555; stroke: #555555; stroke-width: 0.8"/>
      </g>
     </g>
     <g id="text_6">
      <!-- 2025-03 -->
      <g style="fill: #555555" transform="translate(438.83611 620.459567) rotate(-45) scale(0.1 -0.1)">
       <defs>
        <path id="DejaVuSans-33" d="M 2597 2516 
Q 3050 2419 3304 2112 
Q 3559 1806 3559 1356 
Q 3559 666 3084 287 
Q 2609 -91 1734 -91 
Q 1441 -91 1130 -33 
Q 819 25 488 141 
L 488 750 
Q 750 597 1062 519 
Q 1375 441 1716 441 
Q 2309 441 2620 675 
Q 2931 909 2931 1356 
Q 2931 1769 2642 2001 
Q 2353 2234 1838 2234 
L 1294 2234 
L 1294 2753 
L 1863 2753 
Q 2328 2753 2575 2939 
Q 2822 3125 2822 3475 
Q 2822 3834 2567 4026 
Q 2313 4219 1838 4219 
Q 1578 4219 1281 4162 
Q 984 4106 628 3988 
L 628 4550 
Q 988 4650 1302 4700 
Q 1616 4750 1894 4750 
Q 2613 4750 3031 4423 
Q 3450 4097 3450 3541 
Q 3450 3153 3228 2886 
Q 3006 2619 2597 2516 
z
" transform="scale(0.015625)"/>
       </defs>
       <use xlink:href="#DejaVuSans-32"/>
       <use xlink:href="#DejaVuSans-30" x="63.623047"/>
       <use xlink:href="#DejaVuSans-32" x="127.246094"/>
       <use xlink:href="#DejaVuSans-35" x="190.869141"/>
       <use xlink:href="#DejaVuSans-2d" x="254.492188"/>
       <use xlink:href="#DejaVuSans-30" x="290.576172"/>
       <use xlink:href="#DejaVuSans-33" x="354.199219"/>
      </g>
     </g>
    </g>
    <g id="xtick_7">
     <g id="line2d_13">
      <path d="M 530.05561 578.54175 
L 530.05561 24.14175 
" clip-path="url(#p0af8cb3a67)" style="fill: none; stroke: #ffffff; stroke-width: 0.8; stroke-linecap: square"/>
     </g>
     <g id="line2d_14">
      <g>
       <use xlink:href="#m0cf4e3b808" x="530.05561" y="578.54175" style="fill: #555555; stroke: #555555; stroke-width: 0.8"/>
      </g>
     </g>
     <g id="text_7">
      <!-- 2025-04 -->
      <g style="fill: #555555" transform="translate(517.234328 620.459567) rotate(-45) scale(0.1 -0.1)">
       <use xlink:href="#DejaVuSans-32"/>
       <use xlink:href="#DejaVuSans-30" x="63.623047"/>
       <use xlink:href="#DejaVuSans-32" x="127.246094"/>
       <use xlink:href="#DejaVuSans-35" x="190.869141"/>
       <use xlink:href="#DejaVuSans-2d" x="254.492188"/>
       <use xlink:href="#DejaVuSans-30" x="290.576172"/>
       <use xlink:href="#DejaVuSans-34" x="354.199219"/>
      </g>
     </g>
    </g>
    <g id="xtick_8">
     <g id="line2d_15">
      <path d="M 605.924854 578.54175 
L 605.924854 24.14175 
" clip-path="url(#p0af8cb3a67)" style="fill: none; stroke: #ffffff; stroke-width: 0.8; stroke-linecap: square"/>
     </g>
     <g id="line2d_16">
      <g>
       <use xlink:href="#m0cf4e3b808" x="605.924854" y="578.54175" style="fill: #555555; stroke: #555555; stroke-width: 0.8"/>
      </g>
     </g>
     <g id="text_8">
      <!-- 2025-05 -->
      <g style="fill: #555555" transform="translate(593.103572 620.459567) rotate(-45) scale(0.1 -0.1)">
       <use xlink:href="#DejaVuSans-32"/>
       <use xlink:href="#DejaVuSans-30" x="63.623047"/>
       <use xlink:href="#DejaVuSans-32" x="127.246094"/>
       <use xlink:href="#DejaVuSans-35" x="190.869141"/>
       <use xlink:href="#DejaVuSans-2d" x="254.492188"/>
       <use xlink:href="#DejaVuSans-30" x="290.576172"/>
       <use xlink:href="#DejaVuSans-35" x="354.199219"/>
      </g>
     </g>
    </g>
    <g id="xtick_9">
     <g id="line2d_17">
      <path d="M 684.323072 578.54175 
L 684.323072 24.14175 
" clip-path="url(#p0af8cb3a67)" style="fill: none; stroke: #ffffff; stroke-width: 0.8; stroke-linecap: square"/>
     </g>
     <g id="line2d_18">
      <g>
       <use xlink:href="#m0cf4e3b808" x="684.323072" y="578.54175" style="fill: #555555; stroke: #555555; stroke-width: 0.8"/>
      </g>
     </g>
     <g id="text_9">
      <!-- 2025-06 -->
      <g style="fill: #555555" transform="translate(671.50179 620.459567) rotate(-45) scale(0.1 -0.1)">
       <defs>
        <path id="DejaVuSans-36" d="M 2113 2584 
Q 1688 2584 1439 2293 
Q 1191 2003 1191 1497 
Q 1191 994 1439 701 
Q 1688 409 2113 409 
Q 2538 409 2786 701 
Q 3034 994 3034 1497 
Q 3034 2003 2786 2293 
Q 2538 2584 2113 2584 
z
M 3366 4563 
L 3366 3988 
Q 3128 4100 2886 4159 
Q 2644 4219 2406 4219 
Q 1781 4219 1451 3797 
Q 1122 3375 1075 2522 
Q 1259 2794 1537 2939 
Q 1816 3084 2150 3084 
Q 2853 3084 3261 2657 
Q 3669 2231 3669 1497 
Q 3669 778 3244 343 
Q 2819 -91 2113 -91 
Q 1303 -91 875 529 
Q 447 1150 447 2328 
Q 447 3434 972 4092 
Q 1497 4750 2381 4750 
Q 2619 4750 2861 4703 
Q 3103 4656 3366 4563 
z
" transform="scale(0.015625)"/>
       </defs>
       <use xlink:href="#DejaVuSans-32"/>
       <use xlink:href="#DejaVuSans-30" x="63.623047"/>
       <use xlink:href="#DejaVuSans-32" x="127.246094"/>
       <use xlink:href="#DejaVuSans-35" x="190.869141"/>
       <use xlink:href="#DejaVuSans-2d" x="254.492188"/>
       <use xlink:href="#DejaVuSans-30" x="290.576172"/>
       <use xlink:href="#DejaVuSans-36" x="354.199219"/>
      </g>
     </g>
    </g>
    <g id="xtick_10">
     <g id="line2d_19">
      <path d="M 760.192316 578.54175 
L 760.192316 24.14175 
" clip-path="url(#p0af8cb3a67)" style="fill: none; stroke: #ffffff; stroke-width: 0.8; stroke-linecap: square"/>
     </g>
     <g id="line2d_20">
      <g>
       <use xlink:href="#m0cf4e3b808" x="760.192316" y="578.54175" style="fill: #555555; stroke: #555555; stroke-width: 0.8"/>
      </g>
     </g>
     <g id="text_10">
      <!-- 2025-07 -->
      <g style="fill: #555555" transform="translate(747.371034 620.459567) rotate(-45) scale(0.1 -0.1)">
       <defs>
        <path id="DejaVuSans-37" d="M 525 4666 
L 3525 4666 
L 3525 4397 
L 1831 0 
L 1172 0 
L 2766 4134 
L 525 4134 
L 525 4666 
z
" transform="scale(0.015625)"/>
       </defs>
       <use xlink:href="#DejaVuSans-32"/>
       <use xlink:href="#DejaVuSans-30" x="63.623047"/>
       <use xlink:href="#DejaVuSans-32" x="127.246094"/>
       <use xlink:href="#DejaVuSans-35" x="190.869141"/>
       <use xlink:href="#DejaVuSans-2d" x="254.492188"/>
       <use xlink:href="#DejaVuSans-30" x="290.576172"/>
       <use xlink:href="#DejaVuSans-37" x="354.199219"/>
      </g>
     </g>
    </g>
    <g id="xtick_11">
     <g id="line2d_21">
      <path d="M 838.590535 578.54175 
L 838.590535 24.14175 
" clip-path="url(#p0af8cb3a67)" style="fill: none; stroke: #ffffff; stroke-width: 0.8; stroke-linecap: square"/>
     </g>
     <g id="line2d_22">
      <g>
       <use xlink:href="#m0cf4e3b808" x="838.590535" y="578.54175" style="fill: #555555; stroke: #555555; stroke-width: 0.8"/>
      </g>
     </g>
     <g id="text_11">
      <!-- 2025-08 -->
      <g style="fill: #555555" transform="translate(825.769252 620.459567) rotate(-45) scale(0.1 -0.1)">
       <defs>
        <path id="DejaVuSans-38" d="M 2034 2216 
Q 1584 2216 1326 1975 
Q 1069 1734 1069 1313 
Q 1069 891 1326 650 
Q 1584 409 2034 409 
Q 2484 409 2743 651 
Q 3003 894 3003 1313 
Q 3003 1734 2745 1975 
Q 2488 2216 2034 2216 
z
M 1403 2484 
Q 997 2584 770 2862 
Q 544 3141 544 3541 
Q 544 4100 942 4425 
Q 1341 4750 2034 4750 
Q 2731 4750 3128 4425 
Q 3525 4100 3525 3541 
Q 3525 3141 3298 2862 
Q 3072 2584 2669 2484 
Q 3125 2378 3379 2068 
Q 3634 1759 3634 1313 
Q 3634 634 3220 271 
Q 2806 -91 2034 -91 
Q 1263 -91 848 271 
Q 434 634 434 1313 
Q 434 1759 690 2068 
Q 947 2378 1403 2484 
z
M 1172 3481 
Q 1172 3119 1398 2916 
Q 1625 2713 2034 2713 
Q 2441 2713 2670 2916 
Q 2900 3119 2900 3481 
Q 2900 3844 2670 4047 
Q 2441 4250 2034 4250 
Q 1625 4250 1398 4047 
Q 1172 3844 1172 3481 
z
" transform="scale(0.015625)"/>
       </defs>
       <use xlink:href="#DejaVuSans-32"/>
       <use xlink:href="#DejaVuSans-30" x="63.623047"/>
       <use xlink:href="#DejaVuSans-32" x="127.246094"/>
       <use xlink:href="#DejaVuSans-35" x="190.869141"/>
       <use xlink:href="#DejaVuSans-2d" x="254.492188"/>
       <use xlink:href="#DejaVuSans-30" x="290.576172"/>
       <use xlink:href="#DejaVuSans-38" x="354.199219"/>
      </g>
     </g>
    </g>
    <g id="xtick_12">
     <g id="line2d_23">
      <path d="M 916.988753 578.54175 
L 916.988753 24.14175 
" clip-path="url(#p0af8cb3a67)" style="fill: none; stroke: #ffffff; stroke-width: 0.8; stroke-linecap: square"/>
     </g>
     <g id="line2d_24">
      <g>
       <use xlink:href="#m0cf4e3b808" x="916.988753" y="578.54175" style="fill: #555555; stroke: #555555; stroke-width: 0.8"/>
      </g>
     </g>
     <g id="text_12">
      <!-- 2025-09 -->
      <g style="fill: #555555" transform="translate(904.167471 620.459567) rotate(-45) scale(0.1 -0.1)">
       <defs>
        <path id="DejaVuSans-39" d="M 703 97 
L 703 672 
Q 941 559 1184 500 
Q 1428 441 1663 441 
Q 2288 441 2617 861 
Q 2947 1281 2994 2138 
Q 2813 1869 2534 1725 
Q 2256 1581 1919 1581 
Q 1219 1581 811 2004 
Q 403 2428 403 3163 
Q 403 3881 828 4315 
Q 1253 4750 1959 4750 
Q 2769 4750 3195 4129 
Q 3622 3509 3622 2328 
Q 3622 1225 3098 567 
Q 2575 -91 1691 -91 
Q 1453 -91 1209 -44 
Q 966 3 703 97 
z
M 1959 2075 
Q 2384 2075 2632 2365 
Q 2881 2656 2881 3163 
Q 2881 3666 2632 3958 
Q 2384 4250 1959 4250 
Q 1534 4250 1286 3958 
Q 1038 3666 1038 3163 
Q 1038 2656 1286 2365 
Q 1534 2075 1959 2075 
z
" transform="scale(0.015625)"/>
       </defs>
       <use xlink:href="#DejaVuSans-32"/>
       <use xlink:href="#DejaVuSans-30" x="63.623047"/>
       <use xlink:href="#DejaVuSans-32" x="127.246094"/>
       <use xlink:href="#DejaVuSans-35" x="190.869141"/>
       <use xlink:href="#DejaVuSans-2d" x="254.492188"/>
       <use xlink:href="#DejaVuSans-30" x="290.576172"/>
       <use xlink:href="#DejaVuSans-39" x="354.199219"/>
      </g>
     </g>
    </g>
    <g id="text_13">
     <!-- Date -->
     <g style="fill: #555555" transform="translate(489.160438 635.048253) scale(0.12 -0.12)">
      <defs>
       <path id="DejaVuSans-44" d="M 1259 4147 
L 1259 519 
L 2022 519 
Q 2988 519 3436 956 
Q 3884 1394 3884 2338 
Q 3884 3275 3436 3711 
Q 2988 4147 2022 4147 
L 1259 4147 
z
M 628 4666 
L 1925 4666 
Q 3281 4666 3915 4102 
Q 4550 3538 4550 2338 
Q 4550 1131 3912 565 
Q 3275 0 1925 0 
L 628 0 
L 628 4666 
z
" transform="scale(0.015625)"/>
       <path id="DejaVuSans-61" d="M 2194 1759 
Q 1497 1759 1228 1600 
Q 959 1441 959 1056 
Q 959 750 1161 570 
Q 1363 391 1709 391 
Q 2188 391 2477 730 
Q 2766 1069 2766 1631 
L 2766 1759 
L 2194 1759 
z
M 3341 1997 
L 3341 0 
L 2766 0 
L 2766 531 
Q 2569 213 2275 61 
Q 1981 -91 1556 -91 
Q 1019 -91 701 211 
Q 384 513 384 1019 
Q 384 1609 779 1909 
Q 1175 2209 1959 2209 
L 2766 2209 
L 2766 2266 
Q 2766 2663 2505 2880 
Q 2244 3097 1772 3097 
Q 1472 3097 1187 3025 
Q 903 2953 641 2809 
L 641 3341 
Q 956 3463 1253 3523 
Q 1550 3584 1831 3584 
Q 2591 3584 2966 3190 
Q 3341 2797 3341 1997 
z
" transform="scale(0.015625)"/>
       <path id="DejaVuSans-74" d="M 1172 4494 
L 1172 3500 
L 2356 3500 
L 2356 3053 
L 1172 3053 
L 1172 1153 
Q 1172 725 1289 603 
Q 1406 481 1766 481 
L 2356 481 
L 2356 0 
L 1766 0 
Q 1100 0 847 248 
Q 594 497 594 1153 
L 594 3053 
L 172 3053 
L 172 3500 
L 594 3500 
L 594 4494 
L 1172 4494 
z
" transform="scale(0.015625)"/>
       <path id="DejaVuSans-65" d="M 3597 1894 
L 3597 1613 
L 953 1613 
Q 991 1019 1311 708 
Q 1631 397 2203 397 
Q 2534 397 2845 478 
Q 3156 559 3463 722 
L 3463 178 
Q 3153 47 2828 -22 
Q 2503 -91 2169 -91 
Q 1331 -91 842 396 
Q 353 884 353 1716 
Q 353 2575 817 3079 
Q 1281 3584 2069 3584 
Q 2775 3584 3186 3129 
Q 3597 2675 3597 1894 
z
M 3022 2063 
Q 3016 2534 2758 2815 
Q 2500 3097 2075 3097 
Q 1594 3097 1305 2825 
Q 1016 2553 972 2059 
L 3022 2063 
z
" transform="scale(0.015625)"/>
      </defs>
      <use xlink:href="#DejaVuSans-44"/>
      <use xlink:href="#DejaVuSans-61" x="77.001953"/>
      <use xlink:href="#DejaVuSans-74" x="138.28125"/>
      <use xlink:href="#DejaVuSans-65" x="177.490234"/>
     </g>
    </g>
   </g>
   <g id="matplotlib.axis_2">
    <g id="ytick_1">
     <g id="line2d_25">
      <path d="M 52.079375 578.54175 
L 954.923375 578.54175 
" clip-path="url(#p0af8cb3a67)" style="fill: none; stroke: #ffffff; stroke-width: 0.8; stroke-linecap: square"/>
     </g>
     <g id="line2d_26">
      <defs>
       <path id="m722310961c" d="M 0 0 
L -3.5 0 
" style="stroke: #555555; stroke-width: 0.8"/>
      </defs>
      <g>
       <use xlink:href="#m722310961c" x="52.079375" y="578.54175" style="fill: #555555; stroke: #555555; stroke-width: 0.8"/>
      </g>
     </g>
     <g id="text_14">
      <!-- 0.00 -->
      <g style="fill: #555555" transform="translate(22.81375 582.340969) scale(0.1 -0.1)">
       <defs>
        <path id="DejaVuSans-2e" d="M 684 794 
L 1344 794 
L 1344 0 
L 684 0 
L 684 794 
z
" transform="scale(0.015625)"/>
       </defs>
       <use xlink:href="#DejaVuSans-30"/>
       <use xlink:href="#DejaVuSans-2e" x="63.623047"/>
       <use xlink:href="#DejaVuSans-30" x="95.410156"/>
       <use xlink:href="#DejaVuSans-30" x="159.033203"/>
      </g>
     </g>
    </g>
    <g id="ytick_2">
     <g id="line2d_27">
      <path d="M 52.079375 516.113154 
L 954.923375 516.113154 
" clip-path="url(#p0af8cb3a67)" style="fill: none; stroke: #ffffff; stroke-width: 0.8; stroke-linecap: square"/>
     </g>
     <g id="line2d_28">
      <g>
       <use xlink:href="#m722310961c" x="52.079375" y="516.113154" style="fill: #555555; stroke: #555555; stroke-width: 0.8"/>
      </g>
     </g>
     <g id="text_15">
      <!-- 0.05 -->
      <g style="fill: #555555" transform="translate(22.81375 519.912373) scale(0.1 -0.1)">
       <use xlink:href="#DejaVuSans-30"/>
       <use xlink:href="#DejaVuSans-2e" x="63.623047"/>
       <use xlink:href="#DejaVuSans-30" x="95.410156"/>
       <use xlink:href="#DejaVuSans-35" x="159.033203"/>
      </g>
     </g>
    </g>
    <g id="ytick_3">
     <g id="line2d_29">
      <path d="M 52.079375 453.684558 
L 954.923375 453.684558 
" clip-path="url(#p0af8cb3a67)" style="fill: none; stroke: #ffffff; stroke-width: 0.8; stroke-linecap: square"/>
     </g>
     <g id="line2d_30">
      <g>
       <use xlink:href="#m722310961c" x="52.079375" y="453.684558" style="fill: #555555; stroke: #555555; stroke-width: 0.8"/>
      </g>
     </g>
     <g id="text_16">
      <!-- 0.10 -->
      <g style="fill: #555555" transform="translate(22.81375 457.483776) scale(0.1 -0.1)">
       <use xlink:href="#DejaVuSans-30"/>
       <use xlink:href="#DejaVuSans-2e" x="63.623047"/>
       <use xlink:href="#DejaVuSans-31" x="95.410156"/>
       <use xlink:href="#DejaVuSans-30" x="159.033203"/>
      </g>
     </g>
    </g>
    <g id="ytick_4">
     <g id="line2d_31">
      <path d="M 52.079375 391.255961 
L 954.923375 391.255961 
" clip-path="url(#p0af8cb3a67)" style="fill: none; stroke: #ffffff; stroke-width: 0.8; stroke-linecap: square"/>
     </g>
     <g id="line2d_32">
      <g>
       <use xlink:href="#m722310961c" x="52.079375" y="391.255961" style="fill: #555555; stroke: #555555; stroke-width: 0.8"/>
      </g>
     </g>
     <g id="text_17">
      <!-- 0.15 -->
      <g style="fill: #555555" transform="translate(22.81375 395.05518) scale(0.1 -0.1)">
       <use xlink:href="#DejaVuSans-30"/>
       <use xlink:href="#DejaVuSans-2e" x="63.623047"/>
       <use xlink:href="#DejaVuSans-31" x="95.410156"/>
       <use xlink:href="#DejaVuSans-35" x="159.033203"/>
      </g>
     </g>
    </g>
    <g id="ytick_5">
     <g id="line2d_33">
      <path d="M 52.079375 328.827365 
L 954.923375 328.827365 
" clip-path="url(#p0af8cb3a67)" style="fill: none; stroke: #ffffff; stroke-width: 0.8; stroke-linecap: square"/>
     </g>
     <g id="line2d_34">
      <g>
       <use xlink:href="#m722310961c" x="52.079375" y="328.827365" style="fill: #555555; stroke: #555555; stroke-width: 0.8"/>
      </g>
     </g>
     <g id="text_18">
      <!-- 0.20 -->
      <g style="fill: #555555" transform="translate(22.81375 332.626584) scale(0.1 -0.1)">
       <use xlink:href="#DejaVuSans-30"/>
       <use xlink:href="#DejaVuSans-2e" x="63.623047"/>
       <use xlink:href="#DejaVuSans-32" x="95.410156"/>
       <use xlink:href="#DejaVuSans-30" x="159.033203"/>
      </g>
     </g>
    </g>
    <g id="ytick_6">
     <g id="line2d_35">
      <path d="M 52.079375 266.398769 
L 954.923375 266.398769 
" clip-path="url(#p0af8cb3a67)" style="fill: none; stroke: #ffffff; stroke-width: 0.8; stroke-linecap: square"/>
     </g>
     <g id="line2d_36">
      <g>
       <use xlink:href="#m722310961c" x="52.079375" y="266.398769" style="fill: #555555; stroke: #555555; stroke-width: 0.8"/>
      </g>
     </g>
     <g id="text_19">
      <!-- 0.25 -->
      <g style="fill: #555555" transform="translate(22.81375 270.197988) scale(0.1 -0.1)">
       <use xlink:href="#DejaVuSans-30"/>
       <use xlink:href="#DejaVuSans-2e" x="63.623047"/>
       <use xlink:href="#DejaVuSans-32" x="95.410156"/>
       <use xlink:href="#DejaVuSans-35" x="159.033203"/>
      </g>
     </g>
    </g>
    <g id="ytick_7">
     <g id="line2d_37">
      <path d="M 52.079375 203.970173 
L 954.923375 203.970173 
" clip-path="url(#p0af8cb3a67)" style="fill: none; stroke: #ffffff; stroke-width: 0.8; stroke-linecap: square"/>
     </g>
     <g id="line2d_38">
      <g>
       <use xlink:href="#m722310961c" x="52.079375" y="203.970173" style="fill: #555555; stroke: #555555; stroke-width: 0.8"/>
      </g>
     </g>
     <g id="text_20">
      <!-- 0.30 -->
      <g style="fill: #555555" transform="translate(22.81375 207.769392) scale(0.1 -0.1)">
       <use xlink:href="#DejaVuSans-30"/>
       <use xlink:href="#DejaVuSans-2e" x="63.623047"/>
       <use xlink:href="#DejaVuSans-33" x="95.410156"/>
       <use xlink:href="#DejaVuSans-30" x="159.033203"/>
      </g>
     </g>
    </g>
    <g id="ytick_8">
     <g id="line2d_39">
      <path d="M 52.079375 141.541577 
L 954.923375 141.541577 
" clip-path="url(#p0af8cb3a67)" style="fill: none; stroke: #ffffff; stroke-width: 0.8; stroke-linecap: square"/>
     </g>
     <g id="line2d_40">
      <g>
       <use xlink:href="#m722310961c" x="52.079375" y="141.541577" style="fill: #555555; stroke: #555555; stroke-width: 0.8"/>
      </g>
     </g>
     <g id="text_21">
      <!-- 0.35 -->
      <g style="fill: #555555" transform="translate(22.81375 145.340795) scale(0.1 -0.1)">
       <use xlink:href="#DejaVuSans-30"/>
       <use xlink:href="#DejaVuSans-2e" x="63.623047"/>
       <use xlink:href="#DejaVuSans-33" x="95.410156"/>
       <use xlink:href="#DejaVuSans-35" x="159.033203"/>
      </g>
     </g>
    </g>
    <g id="ytick_9">
     <g id="line2d_41">
      <path d="M 52.079375 79.11298 
L 954.923375 79.11298 
" clip-path="url(#p0af8cb3a67)" style="fill: none; stroke: #ffffff; stroke-width: 0.8; stroke-linecap: square"/>
     </g>
     <g id="line2d_42">
      <g>
       <use xlink:href="#m722310961c" x="52.079375" y="79.11298" style="fill: #555555; stroke: #555555; stroke-width: 0.8"/>
      </g>
     </g>
     <g id="text_22">
      <!-- 0.40 -->
      <g style="fill: #555555" transform="translate(22.81375 82.912199) scale(0.1 -0.1)">
       <use xlink:href="#DejaVuSans-30"/>
       <use xlink:href="#DejaVuSans-2e" x="63.623047"/>
       <use xlink:href="#DejaVuSans-34" x="95.410156"/>
       <use xlink:href="#DejaVuSans-30" x="159.033203"/>
      </g>
     </g>
    </g>
    <g id="text_23">
     <!-- Share -->
     <g style="fill: #555555" transform="translate(16.318125 318.653625) rotate(-90) scale(0.12 -0.12)">
      <defs>
       <path id="DejaVuSans-53" d="M 3425 4513 
L 3425 3897 
Q 3066 4069 2747 4153 
Q 2428 4238 2131 4238 
Q 1616 4238 1336 4038 
Q 1056 3838 1056 3469 
Q 1056 3159 1242 3001 
Q 1428 2844 1947 2747 
L 2328 2669 
Q 3034 2534 3370 2195 
Q 3706 1856 3706 1288 
Q 3706 609 3251 259 
Q 2797 -91 1919 -91 
Q 1588 -91 1214 -16 
Q 841 59 441 206 
L 441 856 
Q 825 641 1194 531 
Q 1563 422 1919 422 
Q 2459 422 2753 634 
Q 3047 847 3047 1241 
Q 3047 1584 2836 1778 
Q 2625 1972 2144 2069 
L 1759 2144 
Q 1053 2284 737 2584 
Q 422 2884 422 3419 
Q 422 4038 858 4394 
Q 1294 4750 2059 4750 
Q 2388 4750 2728 4690 
Q 3069 4631 3425 4513 
z
" transform="scale(0.015625)"/>
       <path id="DejaVuSans-68" d="M 3513 2113 
L 3513 0 
L 2938 0 
L 2938 2094 
Q 2938 2591 2744 2837 
Q 2550 3084 2163 3084 
Q 1697 3084 1428 2787 
Q 1159 2491 1159 1978 
L 1159 0 
L 581 0 
L 581 4863 
L 1159 4863 
L 1159 2956 
Q 1366 3272 1645 3428 
Q 1925 3584 2291 3584 
Q 2894 3584 3203 3211 
Q 3513 2838 3513 2113 
z
" transform="scale(0.015625)"/>
       <path id="DejaVuSans-72" d="M 2631 2963 
Q 2534 3019 2420 3045 
Q 2306 3072 2169 3072 
Q 1681 3072 1420 2755 
Q 1159 2438 1159 1844 
L 1159 0 
L 581 0 
L 581 3500 
L 1159 3500 
L 1159 2956 
Q 1341 3275 1631 3429 
Q 1922 3584 2338 3584 
Q 2397 3584 2469 3576 
Q 2541 3569 2628 3553 
L 2631 2963 
z
" transform="scale(0.015625)"/>
      </defs>
      <use xlink:href="#DejaVuSans-53"/>
      <use xlink:href="#DejaVuSans-68" x="63.476562"/>
      <use xlink:href="#DejaVuSans-61" x="126.855469"/>
      <use xlink:href="#DejaVuSans-72" x="188.134766"/>
      <use xlink:href="#DejaVuSans-65" x="226.998047"/>
     </g>
    </g>
   </g>
   <g id="line2d_43">
    <path d="M 52.079375 333.878604 
L 61.199011 333.403986 
L 70.318648 332.929368 
L 79.438284 332.454751 
L 88.55792 331.980133 
L 97.677557 331.505515 
L 106.797193 331.030897 
L 115.91683 330.55628 
L 125.036466 330.081662 
L 134.156102 329.607044 
L 143.275739 329.132426 
L 152.395375 328.657808 
L 161.515011 328.183191 
L 170.634648 327.708573 
L 179.754284 327.233955 
L 188.87392 326.759337 
L 197.993557 326.28472 
L 207.113193 325.810102 
L 216.23283 325.335484 
L 225.352466 324.860866 
L 234.472102 324.386249 
L 243.591739 323.911631 
L 252.711375 323.437013 
L 261.831011 322.962395 
L 270.950648 322.487777 
L 280.070284 322.01316 
L 289.18992 321.538542 
L 298.309557 321.063924 
L 307.429193 320.589306 
L 316.54883 320.114689 
L 325.668466 319.640071 
L 334.788102 319.165453 
L 343.907739 318.690835 
L 353.027375 318.216217 
L 362.147011 317.7416 
L 371.266648 317.266982 
L 380.386284 316.792364 
L 389.50592 316.317746 
L 398.625557 315.843129 
L 407.745193 315.368511 
L 416.86483 314.893893 
L 425.984466 314.419275 
L 435.104102 313.944658 
L 444.223739 313.47004 
L 453.343375 312.995422 
L 462.463011 312.520804 
L 471.582648 312.046186 
L 480.702284 311.571569 
L 489.82192 311.096951 
L 498.941557 310.622333 
L 508.061193 310.147715 
L 517.18083 309.673098 
L 526.300466 309.19848 
L 535.420102 308.723862 
L 544.539739 308.249244 
L 553.659375 307.774626 
L 562.779011 307.300009 
L 571.898648 306.825391 
L 581.018284 306.350773 
L 590.13792 305.876155 
L 599.257557 305.401538 
L 608.377193 304.92692 
L 617.49683 304.452302 
L 626.616466 303.977684 
L 635.736102 303.503067 
L 644.855739 303.028449 
L 653.975375 302.553831 
L 663.095011 302.079213 
L 672.214648 301.604595 
L 681.334284 301.129978 
L 690.45392 300.65536 
L 699.573557 300.180742 
L 708.693193 299.706124 
L 717.81283 299.231507 
L 726.932466 298.756889 
L 736.052102 298.282271 
L 745.171739 297.807653 
L 754.291375 297.333035 
L 763.411011 296.858418 
L 772.530648 296.3838 
L 781.650284 295.909182 
L 790.76992 295.434564 
L 799.889557 294.959947 
L 809.009193 294.485329 
L 818.12883 294.010711 
L 827.248466 293.536093 
L 836.368102 293.061476 
L 845.487739 292.586858 
L 854.607375 292.11224 
L 863.727011 291.637622 
L 872.846648 291.163004 
L 881.966284 290.688387 
L 891.08592 290.213769 
L 900.205557 289.739151 
L 909.325193 289.264533 
L 918.44483 288.789916 
L 927.564466 288.315298 
L 936.684102 287.84068 
L 945.803739 287.366062 
L 954.923375 286.891444 
" clip-path="url(#p0af8cb3a67)" style="fill: none; stroke-dasharray: 1.5,2.475; stroke-dashoffset: 0; stroke: #4ac1fa; stroke-width: 1.5"/>
   </g>
   <g id="line2d_44">
    <path d="M 52.079375 469.200398 
L 61.199011 470.03186 
L 70.318648 470.863322 
L 79.438284 471.694785 
L 88.55792 472.526247 
L 97.677557 473.357709 
L 106.797193 474.189172 
L 115.91683 475.020634 
L 125.036466 475.852096 
L 134.156102 476.683559 
L 143.275739 477.515021 
L 152.395375 478.346484 
L 161.515011 479.177946 
L 170.634648 480.009408 
L 179.754284 480.840871 
L 188.87392 481.672333 
L 197.993557 482.503795 
L 207.113193 483.335258 
L 216.23283 484.16672 
L 225.352466 484.998182 
L 234.472102 485.829645 
L 243.591739 486.661107 
L 252.711375 487.492569 
L 261.831011 488.324032 
L 270.950648 489.155494 
L 280.070284 489.986957 
L 289.18992 490.818419 
L 298.309557 491.649881 
L 307.429193 492.481344 
L 316.54883 493.312806 
L 325.668466 494.144268 
L 334.788102 494.975731 
L 343.907739 495.807193 
L 353.027375 496.638655 
L 362.147011 497.470118 
L 371.266648 498.30158 
L 380.386284 499.133042 
L 389.50592 499.964505 
L 398.625557 500.795967 
L 407.745193 501.62743 
L 416.86483 502.458892 
L 425.984466 503.290354 
L 435.104102 504.121817 
L 444.223739 504.953279 
L 453.343375 505.784741 
L 462.463011 506.616204 
L 471.582648 507.447666 
L 480.702284 508.279128 
L 489.82192 509.110591 
L 498.941557 509.942053 
L 508.061193 510.773515 
L 517.18083 511.604978 
L 526.300466 512.43644 
L 535.420102 513.267903 
L 544.539739 514.099365 
L 553.659375 514.930827 
L 562.779011 515.76229 
L 571.898648 516.593752 
L 581.018284 517.425214 
L 590.13792 518.256677 
L 599.257557 519.088139 
L 608.377193 519.919601 
L 617.49683 520.751064 
L 626.616466 521.582526 
L 635.736102 522.413988 
L 644.855739 523.245451 
L 653.975375 524.076913 
L 663.095011 524.908376 
L 672.214648 525.739838 
L 681.334284 526.5713 
L 690.45392 527.402763 
L 699.573557 528.234225 
L 708.693193 529.065687 
L 717.81283 529.89715 
L 726.932466 530.728612 
L 736.052102 531.560074 
L 745.171739 532.391537 
L 754.291375 533.222999 
L 763.411011 534.054461 
L 772.530648 534.885924 
L 781.650284 535.717386 
L 790.76992 536.548849 
L 799.889557 537.380311 
L 809.009193 538.211773 
L 818.12883 539.043236 
L 827.248466 539.874698 
L 836.368102 540.70616 
L 845.487739 541.537623 
L 854.607375 542.369085 
L 863.727011 543.200547 
L 872.846648 544.03201 
L 881.966284 544.863472 
L 891.08592 545.694934 
L 900.205557 546.526397 
L 909.325193 547.357859 
L 918.44483 548.189322 
L 927.564466 549.020784 
L 936.684102 549.852246 
L 945.803739 550.683709 
L 954.923375 551.515171 
" clip-path="url(#p0af8cb3a67)" style="fill: none; stroke-dasharray: 1.5,2.475; stroke-dashoffset: 0; stroke: #e9a942; stroke-width: 1.5"/>
   </g>
   <g id="line2d_45">
    <path d="M 52.079375 486.21631 
L 61.199011 486.118807 
L 70.318648 486.021304 
L 79.438284 485.923801 
L 88.55792 485.826297 
L 97.677557 485.728794 
L 106.797193 485.631291 
L 115.91683 485.533788 
L 125.036466 485.436284 
L 134.156102 485.338781 
L 143.275739 485.241278 
L 152.395375 485.143775 
L 161.515011 485.046271 
L 170.634648 484.948768 
L 179.754284 484.851265 
L 188.87392 484.753762 
L 197.993557 484.656258 
L 207.113193 484.558755 
L 216.23283 484.461252 
L 225.352466 484.363749 
L 234.472102 484.266245 
L 243.591739 484.168742 
L 252.711375 484.071239 
L 261.831011 483.973736 
L 270.950648 483.876232 
L 280.070284 483.778729 
L 289.18992 483.681226 
L 298.309557 483.583723 
L 307.429193 483.486219 
L 316.54883 483.388716 
L 325.668466 483.291213 
L 334.788102 483.19371 
L 343.907739 483.096206 
L 353.027375 482.998703 
L 362.147011 482.9012 
L 371.266648 482.803697 
L 380.386284 482.706193 
L 389.50592 482.60869 
L 398.625557 482.511187 
L 407.745193 482.413684 
L 416.86483 482.31618 
L 425.984466 482.218677 
L 435.104102 482.121174 
L 444.223739 482.023671 
L 453.343375 481.926167 
L 462.463011 481.828664 
L 471.582648 481.731161 
L 480.702284 481.633658 
L 489.82192 481.536154 
L 498.941557 481.438651 
L 508.061193 481.341148 
L 517.18083 481.243645 
L 526.300466 481.146141 
L 535.420102 481.048638 
L 544.539739 480.951135 
L 553.659375 480.853632 
L 562.779011 480.756128 
L 571.898648 480.658625 
L 581.018284 480.561122 
L 590.13792 480.463619 
L 599.257557 480.366115 
L 608.377193 480.268612 
L 617.49683 480.171109 
L 626.616466 480.073606 
L 635.736102 479.976102 
L 644.855739 479.878599 
L 653.975375 479.781096 
L 663.095011 479.683593 
L 672.214648 479.586089 
L 681.334284 479.488586 
L 690.45392 479.391083 
L 699.573557 479.29358 
L 708.693193 479.196076 
L 717.81283 479.098573 
L 726.932466 479.00107 
L 736.052102 478.903566 
L 745.171739 478.806063 
L 754.291375 478.70856 
L 763.411011 478.611057 
L 772.530648 478.513553 
L 781.650284 478.41605 
L 790.76992 478.318547 
L 799.889557 478.221044 
L 809.009193 478.12354 
L 818.12883 478.026037 
L 827.248466 477.928534 
L 836.368102 477.831031 
L 845.487739 477.733527 
L 854.607375 477.636024 
L 863.727011 477.538521 
L 872.846648 477.441018 
L 881.966284 477.343514 
L 891.08592 477.246011 
L 900.205557 477.148508 
L 909.325193 477.051005 
L 918.44483 476.953501 
L 927.564466 476.855998 
L 936.684102 476.758495 
L 945.803739 476.660992 
L 954.923375 476.563488 
" clip-path="url(#p0af8cb3a67)" style="fill: none; stroke-dasharray: 1.5,2.475; stroke-dashoffset: 0; stroke: #9a5689; stroke-width: 1.5"/>
   </g>
   <g id="line2d_46">
    <path d="M 52.079375 538.787138 
L 61.199011 538.757189 
L 70.318648 538.727239 
L 79.438284 538.697289 
L 88.55792 538.66734 
L 97.677557 538.63739 
L 106.797193 538.607441 
L 115.91683 538.577491 
L 125.036466 538.547541 
L 134.156102 538.517592 
L 143.275739 538.487642 
L 152.395375 538.457693 
L 161.515011 538.427743 
L 170.634648 538.397793 
L 179.754284 538.367844 
L 188.87392 538.337894 
L 197.993557 538.307944 
L 207.113193 538.277995 
L 216.23283 538.248045 
L 225.352466 538.218096 
L 234.472102 538.188146 
L 243.591739 538.158196 
L 252.711375 538.128247 
L 261.831011 538.098297 
L 270.950648 538.068348 
L 280.070284 538.038398 
L 289.18992 538.008448 
L 298.309557 537.978499 
L 307.429193 537.948549 
L 316.54883 537.9186 
L 325.668466 537.88865 
L 334.788102 537.8587 
L 343.907739 537.828751 
L 353.027375 537.798801 
L 362.147011 537.768852 
L 371.266648 537.738902 
L 380.386284 537.708952 
L 389.50592 537.679003 
L 398.625557 537.649053 
L 407.745193 537.619103 
L 416.86483 537.589154 
L 425.984466 537.559204 
L 435.104102 537.529255 
L 444.223739 537.499305 
L 453.343375 537.469355 
L 462.463011 537.439406 
L 471.582648 537.409456 
L 480.702284 537.379507 
L 489.82192 537.349557 
L 498.941557 537.319607 
L 508.061193 537.289658 
L 517.18083 537.259708 
L 526.300466 537.229759 
L 535.420102 537.199809 
L 544.539739 537.169859 
L 553.659375 537.13991 
L 562.779011 537.10996 
L 571.898648 537.080011 
L 581.018284 537.050061 
L 590.13792 537.020111 
L 599.257557 536.990162 
L 608.377193 536.960212 
L 617.49683 536.930262 
L 626.616466 536.900313 
L 635.736102 536.870363 
L 644.855739 536.840414 
L 653.975375 536.810464 
L 663.095011 536.780514 
L 672.214648 536.750565 
L 681.334284 536.720615 
L 690.45392 536.690666 
L 699.573557 536.660716 
L 708.693193 536.630766 
L 717.81283 536.600817 
L 726.932466 536.570867 
L 736.052102 536.540918 
L 745.171739 536.510968 
L 754.291375 536.481018 
L 763.411011 536.451069 
L 772.530648 536.421119 
L 781.650284 536.39117 
L 790.76992 536.36122 
L 799.889557 536.33127 
L 809.009193 536.301321 
L 818.12883 536.271371 
L 827.248466 536.241421 
L 836.368102 536.211472 
L 845.487739 536.181522 
L 854.607375 536.151573 
L 863.727011 536.121623 
L 872.846648 536.091673 
L 881.966284 536.061724 
L 891.08592 536.031774 
L 900.205557 536.001825 
L 909.325193 535.971875 
L 918.44483 535.941925 
L 927.564466 535.911976 
L 936.684102 535.882026 
L 945.803739 535.852077 
L 954.923375 535.822127 
" clip-path="url(#p0af8cb3a67)" style="fill: none; stroke-dasharray: 1.5,2.475; stroke-dashoffset: 0; stroke: #be503b; stroke-width: 1.5"/>
   </g>
   <g id="line2d_47">
    <path d="M 52.079375 319.65641 
L 61.199011 319.851424 
L 70.318648 320.046437 
L 79.438284 320.24145 
L 88.55792 320.436463 
L 97.677557 320.631476 
L 106.797193 320.82649 
L 115.91683 321.021503 
L 125.036466 321.216516 
L 134.156102 321.411529 
L 143.275739 321.606542 
L 152.395375 321.801556 
L 161.515011 321.996569 
L 170.634648 322.191582 
L 179.754284 322.386595 
L 188.87392 322.581608 
L 197.993557 322.776622 
L 207.113193 322.971635 
L 216.23283 323.166648 
L 225.352466 323.361661 
L 234.472102 323.556675 
L 243.591739 323.751688 
L 252.711375 323.946701 
L 261.831011 324.141714 
L 270.950648 324.336727 
L 280.070284 324.531741 
L 289.18992 324.726754 
L 298.309557 324.921767 
L 307.429193 325.11678 
L 316.54883 325.311793 
L 325.668466 325.506807 
L 334.788102 325.70182 
L 343.907739 325.896833 
L 353.027375 326.091846 
L 362.147011 326.286859 
L 371.266648 326.481873 
L 380.386284 326.676886 
L 389.50592 326.871899 
L 398.625557 327.066912 
L 407.745193 327.261926 
L 416.86483 327.456939 
L 425.984466 327.651952 
L 435.104102 327.846965 
L 444.223739 328.041978 
L 453.343375 328.236992 
L 462.463011 328.432005 
L 471.582648 328.627018 
L 480.702284 328.822031 
L 489.82192 329.017044 
L 498.941557 329.212058 
L 508.061193 329.407071 
L 517.18083 329.602084 
L 526.300466 329.797097 
L 535.420102 329.99211 
L 544.539739 330.187124 
L 553.659375 330.382137 
L 562.779011 330.57715 
L 571.898648 330.772163 
L 581.018284 330.967177 
L 590.13792 331.16219 
L 599.257557 331.357203 
L 608.377193 331.552216 
L 617.49683 331.747229 
L 626.616466 331.942243 
L 635.736102 332.137256 
L 644.855739 332.332269 
L 653.975375 332.527282 
L 663.095011 332.722295 
L 672.214648 332.917309 
L 681.334284 333.112322 
L 690.45392 333.307335 
L 699.573557 333.502348 
L 708.693193 333.697361 
L 717.81283 333.892375 
L 726.932466 334.087388 
L 736.052102 334.282401 
L 745.171739 334.477414 
L 754.291375 334.672428 
L 763.411011 334.867441 
L 772.530648 335.062454 
L 781.650284 335.257467 
L 790.76992 335.45248 
L 799.889557 335.647494 
L 809.009193 335.842507 
L 818.12883 336.03752 
L 827.248466 336.232533 
L 836.368102 336.427546 
L 845.487739 336.62256 
L 854.607375 336.817573 
L 863.727011 337.012586 
L 872.846648 337.207599 
L 881.966284 337.402612 
L 891.08592 337.597626 
L 900.205557 337.792639 
L 909.325193 337.987652 
L 918.44483 338.182665 
L 927.564466 338.377679 
L 936.684102 338.572692 
L 945.803739 338.767705 
L 954.923375 338.962718 
" clip-path="url(#p0af8cb3a67)" style="fill: none; stroke-dasharray: 1.5,2.475; stroke-dashoffset: 0; stroke: #e2321d; stroke-width: 1.5"/>
   </g>
   <g id="line2d_48">
    <path d="M 52.079375 103.053405 
L 61.199011 102.638247 
L 70.318648 102.223089 
L 79.438284 101.807931 
L 88.55792 101.392773 
L 97.677557 100.977614 
L 106.797193 100.562456 
L 115.91683 100.147298 
L 125.036466 99.73214 
L 134.156102 99.316982 
L 143.275739 98.901823 
L 152.395375 98.486665 
L 161.515011 98.071507 
L 170.634648 97.656349 
L 179.754284 97.241191 
L 188.87392 96.826033 
L 197.993557 96.410874 
L 207.113193 95.995716 
L 216.23283 95.580558 
L 225.352466 95.1654 
L 234.472102 94.750242 
L 243.591739 94.335083 
L 252.711375 93.919925 
L 261.831011 93.504767 
L 270.950648 93.089609 
L 280.070284 92.674451 
L 289.18992 92.259293 
L 298.309557 91.844134 
L 307.429193 91.428976 
L 316.54883 91.013818 
L 325.668466 90.59866 
L 334.788102 90.183502 
L 343.907739 89.768343 
L 353.027375 89.353185 
L 362.147011 88.938027 
L 371.266648 88.522869 
L 380.386284 88.107711 
L 389.50592 87.692553 
L 398.625557 87.277394 
L 407.745193 86.862236 
L 416.86483 86.447078 
L 425.984466 86.03192 
L 435.104102 85.616762 
L 444.223739 85.201604 
L 453.343375 84.786445 
L 462.463011 84.371287 
L 471.582648 83.956129 
L 480.702284 83.540971 
L 489.82192 83.125813 
L 498.941557 82.710654 
L 508.061193 82.295496 
L 517.18083 81.880338 
L 526.300466 81.46518 
L 535.420102 81.050022 
L 544.539739 80.634864 
L 553.659375 80.219705 
L 562.779011 79.804547 
L 571.898648 79.389389 
L 581.018284 78.974231 
L 590.13792 78.559073 
L 599.257557 78.143914 
L 608.377193 77.728756 
L 617.49683 77.313598 
L 626.616466 76.89844 
L 635.736102 76.483282 
L 644.855739 76.068124 
L 653.975375 75.652965 
L 663.095011 75.237807 
L 672.214648 74.822649 
L 681.334284 74.407491 
L 690.45392 73.992333 
L 699.573557 73.577174 
L 708.693193 73.162016 
L 717.81283 72.746858 
L 726.932466 72.3317 
L 736.052102 71.916542 
L 745.171739 71.501384 
L 754.291375 71.086225 
L 763.411011 70.671067 
L 772.530648 70.255909 
L 781.650284 69.840751 
L 790.76992 69.425593 
L 799.889557 69.010435 
L 809.009193 68.595276 
L 818.12883 68.180118 
L 827.248466 67.76496 
L 836.368102 67.349802 
L 845.487739 66.934644 
L 854.607375 66.519485 
L 863.727011 66.104327 
L 872.846648 65.689169 
L 881.966284 65.274011 
L 891.08592 64.858853 
L 900.205557 64.443695 
L 909.325193 64.028536 
L 918.44483 63.613378 
L 927.564466 63.19822 
L 936.684102 62.783062 
L 945.803739 62.367904 
L 954.923375 61.952745 
" clip-path="url(#p0af8cb3a67)" style="fill: none; stroke-dasharray: 1.5,2.475; stroke-dashoffset: 0; stroke: #48b585; stroke-width: 1.5"/>
   </g>
   <g id="line2d_49">
    <path d="M 52.079375 325.054734 
L 69.782199 325.65662 
L 87.485022 334.586956 
L 105.187846 330.363456 
L 122.890669 328.622132 
L 140.593493 328.235441 
L 158.296316 331.900897 
L 175.99914 325.570017 
L 193.701963 336.720155 
L 211.404787 320.356422 
L 229.10761 331.52634 
L 246.810434 328.555436 
L 264.513257 329.903026 
L 282.216081 316.286248 
L 299.918904 320.508002 
L 317.621728 325.796656 
L 335.324551 319.57511 
L 353.027375 321.269833 
L 370.730199 315.856452 
L 388.433022 313.872755 
L 406.135846 316.2274 
L 423.838669 316.156195 
L 441.541493 315.43732 
L 459.244316 316.126739 
L 476.94714 312.477285 
L 494.649963 306.058674 
L 512.352787 302.962175 
L 530.05561 303.950462 
L 547.758434 313.183868 
L 565.461257 305.781518 
L 583.164081 298.891086 
L 600.866904 309.955278 
L 618.569728 304.468371 
L 636.272551 302.518042 
L 653.975375 300.505943 
L 671.678199 302.974035 
L 689.381022 298.48519 
L 707.083846 310.73102 
L 724.786669 304.271622 
L 742.489493 294.07878 
L 760.192316 285.267643 
L 777.89514 293.949607 
L 795.597963 294.312499 
L 813.300787 291.701837 
L 831.00361 289.26241 
L 848.706434 293.653439 
L 866.409257 296.112847 
L 884.112081 304.258178 
L 901.814904 291.668304 
L 919.517728 283.306788 
L 937.220551 286.883644 
L 954.923375 284.186374 
" clip-path="url(#p0af8cb3a67)" style="fill: none; stroke: #4ac1fa; stroke-width: 1.5; stroke-linecap: square"/>
   </g>
   <g id="line2d_50">
    <path d="M 52.079375 468.611458 
L 69.782199 485.910562 
L 87.485022 470.635929 
L 105.187846 475.972135 
L 122.890669 476.393278 
L 140.593493 482.527199 
L 158.296316 481.112195 
L 175.99914 487.824038 
L 193.701963 483.1749 
L 211.404787 498.210317 
L 229.10761 485.077926 
L 246.810434 482.524866 
L 264.513257 478.132584 
L 282.216081 490.948962 
L 299.918904 491.052295 
L 317.621728 490.328995 
L 335.324551 493.100733 
L 353.027375 486.493615 
L 370.730199 497.71058 
L 388.433022 496.018402 
L 406.135846 493.03284 
L 423.838669 497.017739 
L 441.541493 496.118472 
L 459.244316 497.756079 
L 476.94714 497.406337 
L 494.649963 498.028308 
L 512.352787 499.31016 
L 530.05561 495.679999 
L 547.758434 496.990412 
L 565.461257 514.018548 
L 583.164081 518.853066 
L 600.866904 527.778718 
L 618.569728 536.382324 
L 636.272551 534.245778 
L 653.975375 536.614493 
L 671.678199 536.917788 
L 689.381022 537.610043 
L 707.083846 540.394549 
L 724.786669 539.861832 
L 742.489493 540.647464 
L 760.192316 543.443912 
L 777.89514 544.435896 
L 795.597963 540.801553 
L 813.300787 540.932626 
L 831.00361 541.209508 
L 848.706434 543.659284 
L 866.409257 541.709226 
L 884.112081 542.229922 
L 901.814904 541.402937 
L 919.517728 540.506513 
L 937.220551 540.877693 
L 954.923375 540.969793 
" clip-path="url(#p0af8cb3a67)" style="fill: none; stroke: #e9a942; stroke-width: 1.5; stroke-linecap: square"/>
   </g>
   <g id="line2d_51">
    <path d="M 52.079375 490.46568 
L 69.782199 486.521054 
L 87.485022 490.213309 
L 105.187846 490.968697 
L 122.890669 491.17436 
L 140.593493 485.509548 
L 158.296316 486.15315 
L 175.99914 485.113214 
L 193.701963 475.219825 
L 211.404787 476.992119 
L 229.10761 485.905663 
L 246.810434 486.872165 
L 264.513257 486.65101 
L 282.216081 481.376904 
L 299.918904 479.977767 
L 317.621728 479.205776 
L 335.324551 482.311962 
L 353.027375 483.44769 
L 370.730199 482.264517 
L 388.433022 481.514887 
L 406.135846 481.56892 
L 423.838669 484.458974 
L 441.541493 480.835962 
L 459.244316 475.951284 
L 476.94714 478.629692 
L 494.649963 479.677037 
L 512.352787 480.074501 
L 530.05561 481.331906 
L 547.758434 483.734305 
L 565.461257 479.691199 
L 583.164081 479.576699 
L 600.866904 482.421069 
L 618.569728 477.191302 
L 636.272551 475.924592 
L 653.975375 481.585201 
L 671.678199 474.269393 
L 689.381022 480.901761 
L 707.083846 482.5702 
L 724.786669 479.472291 
L 742.489493 481.624144 
L 760.192316 482.236668 
L 777.89514 483.56042 
L 795.597963 483.051641 
L 813.300787 482.877937 
L 831.00361 480.72768 
L 848.706434 477.290456 
L 866.409257 477.028418 
L 884.112081 474.391753 
L 901.814904 474.189367 
L 919.517728 475.527724 
L 937.220551 477.011109 
L 954.923375 475.031867 
" clip-path="url(#p0af8cb3a67)" style="fill: none; stroke: #9a5689; stroke-width: 1.5; stroke-linecap: square"/>
   </g>
   <g id="line2d_52">
    <path d="M 52.079375 537.384795 
L 69.782199 536.277481 
L 87.485022 537.208371 
L 105.187846 538.000008 
L 122.890669 538.370461 
L 140.593493 537.918017 
L 158.296316 538.33387 
L 175.99914 537.866026 
L 193.701963 538.157654 
L 211.404787 536.615587 
L 229.10761 538.789486 
L 246.810434 539.440276 
L 264.513257 539.626327 
L 282.216081 536.229666 
L 299.918904 536.46507 
L 317.621728 537.551362 
L 335.324551 537.314739 
L 353.027375 538.667439 
L 370.730199 537.745602 
L 388.433022 538.360406 
L 406.135846 538.751661 
L 423.838669 538.480631 
L 441.541493 538.375979 
L 459.244316 538.728546 
L 476.94714 538.077843 
L 494.649963 539.251792 
L 512.352787 539.003036 
L 530.05561 539.369075 
L 547.758434 539.584531 
L 565.461257 538.296416 
L 583.164081 537.571724 
L 600.866904 537.821587 
L 618.569728 538.2249 
L 636.272551 537.948305 
L 653.975375 535.83213 
L 671.678199 536.269891 
L 689.381022 538.080385 
L 707.083846 537.374365 
L 724.786669 535.089753 
L 742.489493 533.910861 
L 760.192316 536.053405 
L 777.89514 537.021878 
L 795.597963 537.269253 
L 813.300787 538.235039 
L 831.00361 537.946185 
L 848.706434 534.872661 
L 866.409257 534.79571 
L 884.112081 536.367844 
L 901.814904 533.987171 
L 919.517728 530.833938 
L 937.220551 534.349109 
L 954.923375 535.742646 
" clip-path="url(#p0af8cb3a67)" style="fill: none; stroke: #be503b; stroke-width: 1.5; stroke-linecap: square"/>
   </g>
   <g id="line2d_53">
    <path d="M 52.079375 329.508209 
L 69.782199 299.715098 
L 87.485022 311.379649 
L 105.187846 312.719357 
L 122.890669 315.317069 
L 140.593493 311.117686 
L 158.296316 319.213691 
L 175.99914 322.115755 
L 193.701963 328.811932 
L 211.404787 323.66214 
L 229.10761 324.320042 
L 246.810434 323.426922 
L 264.513257 330.261647 
L 282.216081 327.915755 
L 299.918904 329.174603 
L 317.621728 328.062215 
L 335.324551 326.697502 
L 353.027375 334.957797 
L 370.730199 328.849217 
L 388.433022 331.743464 
L 406.135846 333.322764 
L 423.838669 322.544203 
L 441.541493 326.989099 
L 459.244316 328.396229 
L 476.94714 331.981503 
L 494.649963 340.145026 
L 512.352787 338.69474 
L 530.05561 338.891784 
L 547.758434 342.464405 
L 565.461257 335.797205 
L 583.164081 334.772354 
L 600.866904 329.605209 
L 618.569728 325.781018 
L 636.272551 327.286132 
L 653.975375 326.923893 
L 671.678199 328.91925 
L 689.381022 330.484927 
L 707.083846 330.405103 
L 724.786669 326.963785 
L 742.489493 331.019153 
L 760.192316 339.922459 
L 777.89514 340.659688 
L 795.597963 332.193001 
L 813.300787 333.858523 
L 831.00361 328.203361 
L 848.706434 340.856112 
L 866.409257 341.888222 
L 884.112081 339.506949 
L 901.814904 336.695731 
L 919.517728 329.319295 
L 937.220551 340.310675 
L 954.923375 330.325795 
" clip-path="url(#p0af8cb3a67)" style="fill: none; stroke: #e2321d; stroke-width: 1.5; stroke-linecap: square"/>
   </g>
   <g id="line2d_54">
    <path d="M 52.079375 100.158542 
L 69.782199 118.387936 
L 87.485022 106.758131 
L 105.187846 102.183227 
L 122.890669 100.134711 
L 140.593493 105.290483 
L 158.296316 93.246621 
L 175.99914 91.498481 
L 193.701963 87.441625 
L 211.404787 95.762616 
L 229.10761 84.253779 
L 246.810434 89.117047 
L 264.513257 86.163886 
L 282.216081 99.380557 
L 299.918904 95.336327 
L 317.621728 90.216722 
L 335.324551 91.810849 
L 353.027375 86.147957 
L 370.730199 89.066738 
L 388.433022 89.902472 
L 406.135846 88.810656 
L 423.838669 93.347957 
L 441.541493 93.916495 
L 459.244316 94.235968 
L 476.94714 93.146347 
L 494.649963 88.130456 
L 512.352787 91.352482 
L 530.05561 92.009011 
L 547.758434 74.892664 
L 565.461257 77.811548 
L 583.164081 81.624327 
L 600.866904 63.486348 
L 618.569728 70.056072 
L 636.272551 75.332276 
L 653.975375 70.601981 
L 671.678199 72.327196 
L 689.381022 66.401019 
L 707.083846 49.25477 
L 724.786669 65.758432 
L 742.489493 70.127116 
L 760.192316 64.132982 
L 777.89514 50.224418 
L 795.597963 63.567336 
L 813.300787 64.124138 
L 831.00361 74.519551 
L 848.706434 60.607173 
L 866.409257 59.661934 
L 884.112081 54.35986 
L 901.814904 73.552209 
L 919.517728 93.205658 
L 937.220551 71.947389 
L 954.923375 85.375443 
" clip-path="url(#p0af8cb3a67)" style="fill: none; stroke: #48b585; stroke-width: 6; stroke-linecap: square"/>
   </g>
   <g id="patch_3">
    <path d="M 52.079375 578.54175 
L 52.079375 24.14175 
" style="fill: none; stroke: #ffffff; stroke-linejoin: miter; stroke-linecap: square"/>
   </g>
   <g id="patch_4">
    <path d="M 954.923375 578.54175 
L 954.923375 24.14175 
" style="fill: none; stroke: #ffffff; stroke-linejoin: miter; stroke-linecap: square"/>
   </g>
   <g id="patch_5">
    <path d="M 52.079375 578.54175 
L 954.923375 578.54175 
" style="fill: none; stroke: #ffffff; stroke-linejoin: miter; stroke-linecap: square"/>
   </g>
   <g id="patch_6">
    <path d="M 52.079375 24.14175 
L 954.923375 24.14175 
" style="fill: none; stroke: #ffffff; stroke-linejoin: miter; stroke-linecap: square"/>
   </g>
   <g id="text_24">
    <!-- Enterprise Linux Instances by Distribution Share (System Age &gt; 1 Week) -->
    <g transform="translate(52.079375 18.14175) scale(0.144 -0.144)">
     <defs>
      <path id="DejaVuSans-45" d="M 628 4666 
L 3578 4666 
L 3578 4134 
L 1259 4134 
L 1259 2753 
L 3481 2753 
L 3481 2222 
L 1259 2222 
L 1259 531 
L 3634 531 
L 3634 0 
L 628 0 
L 628 4666 
z
" transform="scale(0.015625)"/>
      <path id="DejaVuSans-6e" d="M 3513 2113 
L 3513 0 
L 2938 0 
L 2938 2094 
Q 2938 2591 2744 2837 
Q 2550 3084 2163 3084 
Q 1697 3084 1428 2787 
Q 1159 2491 1159 1978 
L 1159 0 
L 581 0 
L 581 3500 
L 1159 3500 
L 1159 2956 
Q 1366 3272 1645 3428 
Q 1925 3584 2291 3584 
Q 2894 3584 3203 3211 
Q 3513 2838 3513 2113 
z
" transform="scale(0.015625)"/>
      <path id="DejaVuSans-70" d="M 1159 525 
L 1159 -1331 
L 581 -1331 
L 581 3500 
L 1159 3500 
L 1159 2969 
Q 1341 3281 1617 3432 
Q 1894 3584 2278 3584 
Q 2916 3584 3314 3078 
Q 3713 2572 3713 1747 
Q 3713 922 3314 415 
Q 2916 -91 2278 -91 
Q 1894 -91 1617 61 
Q 1341 213 1159 525 
z
M 3116 1747 
Q 3116 2381 2855 2742 
Q 2594 3103 2138 3103 
Q 1681 3103 1420 2742 
Q 1159 2381 1159 1747 
Q 1159 1113 1420 752 
Q 1681 391 2138 391 
Q 2594 391 2855 752 
Q 3116 1113 3116 1747 
z
" transform="scale(0.015625)"/>
      <path id="DejaVuSans-69" d="M 603 3500 
L 1178 3500 
L 1178 0 
L 603 0 
L 603 3500 
z
M 603 4863 
L 1178 4863 
L 1178 4134 
L 603 4134 
L 603 4863 
z
" transform="scale(0.015625)"/>
      <path id="DejaVuSans-73" d="M 2834 3397 
L 2834 2853 
Q 2591 2978 2328 3040 
Q 2066 3103 1784 3103 
Q 1356 3103 1142 2972 
Q 928 2841 928 2578 
Q 928 2378 1081 2264 
Q 1234 2150 1697 2047 
L 1894 2003 
Q 2506 1872 2764 1633 
Q 3022 1394 3022 966 
Q 3022 478 2636 193 
Q 2250 -91 1575 -91 
Q 1294 -91 989 -36 
Q 684 19 347 128 
L 347 722 
Q 666 556 975 473 
Q 1284 391 1588 391 
Q 1994 391 2212 530 
Q 2431 669 2431 922 
Q 2431 1156 2273 1281 
Q 2116 1406 1581 1522 
L 1381 1569 
Q 847 1681 609 1914 
Q 372 2147 372 2553 
Q 372 3047 722 3315 
Q 1072 3584 1716 3584 
Q 2034 3584 2315 3537 
Q 2597 3491 2834 3397 
z
" transform="scale(0.015625)"/>
      <path id="DejaVuSans-20" transform="scale(0.015625)"/>
      <path id="DejaVuSans-4c" d="M 628 4666 
L 1259 4666 
L 1259 531 
L 3531 531 
L 3531 0 
L 628 0 
L 628 4666 
z
" transform="scale(0.015625)"/>
      <path id="DejaVuSans-75" d="M 544 1381 
L 544 3500 
L 1119 3500 
L 1119 1403 
Q 1119 906 1312 657 
Q 1506 409 1894 409 
Q 2359 409 2629 706 
Q 2900 1003 2900 1516 
L 2900 3500 
L 3475 3500 
L 3475 0 
L 2900 0 
L 2900 538 
Q 2691 219 2414 64 
Q 2138 -91 1772 -91 
Q 1169 -91 856 284 
Q 544 659 544 1381 
z
M 1991 3584 
L 1991 3584 
z
" transform="scale(0.015625)"/>
      <path id="DejaVuSans-78" d="M 3513 3500 
L 2247 1797 
L 3578 0 
L 2900 0 
L 1881 1375 
L 863 0 
L 184 0 
L 1544 1831 
L 300 3500 
L 978 3500 
L 1906 2253 
L 2834 3500 
L 3513 3500 
z
" transform="scale(0.015625)"/>
      <path id="DejaVuSans-49" d="M 628 4666 
L 1259 4666 
L 1259 0 
L 628 0 
L 628 4666 
z
" transform="scale(0.015625)"/>
      <path id="DejaVuSans-63" d="M 3122 3366 
L 3122 2828 
Q 2878 2963 2633 3030 
Q 2388 3097 2138 3097 
Q 1578 3097 1268 2742 
Q 959 2388 959 1747 
Q 959 1106 1268 751 
Q 1578 397 2138 397 
Q 2388 397 2633 464 
Q 2878 531 3122 666 
L 3122 134 
Q 2881 22 2623 -34 
Q 2366 -91 2075 -91 
Q 1284 -91 818 406 
Q 353 903 353 1747 
Q 353 2603 823 3093 
Q 1294 3584 2113 3584 
Q 2378 3584 2631 3529 
Q 2884 3475 3122 3366 
z
" transform="scale(0.015625)"/>
      <path id="DejaVuSans-62" d="M 3116 1747 
Q 3116 2381 2855 2742 
Q 2594 3103 2138 3103 
Q 1681 3103 1420 2742 
Q 1159 2381 1159 1747 
Q 1159 1113 1420 752 
Q 1681 391 2138 391 
Q 2594 391 2855 752 
Q 3116 1113 3116 1747 
z
M 1159 2969 
Q 1341 3281 1617 3432 
Q 1894 3584 2278 3584 
Q 2916 3584 3314 3078 
Q 3713 2572 3713 1747 
Q 3713 922 3314 415 
Q 2916 -91 2278 -91 
Q 1894 -91 1617 61 
Q 1341 213 1159 525 
L 1159 0 
L 581 0 
L 581 4863 
L 1159 4863 
L 1159 2969 
z
" transform="scale(0.015625)"/>
      <path id="DejaVuSans-79" d="M 2059 -325 
Q 1816 -950 1584 -1140 
Q 1353 -1331 966 -1331 
L 506 -1331 
L 506 -850 
L 844 -850 
Q 1081 -850 1212 -737 
Q 1344 -625 1503 -206 
L 1606 56 
L 191 3500 
L 800 3500 
L 1894 763 
L 2988 3500 
L 3597 3500 
L 2059 -325 
z
" transform="scale(0.015625)"/>
      <path id="DejaVuSans-6f" d="M 1959 3097 
Q 1497 3097 1228 2736 
Q 959 2375 959 1747 
Q 959 1119 1226 758 
Q 1494 397 1959 397 
Q 2419 397 2687 759 
Q 2956 1122 2956 1747 
Q 2956 2369 2687 2733 
Q 2419 3097 1959 3097 
z
M 1959 3584 
Q 2709 3584 3137 3096 
Q 3566 2609 3566 1747 
Q 3566 888 3137 398 
Q 2709 -91 1959 -91 
Q 1206 -91 779 398 
Q 353 888 353 1747 
Q 353 2609 779 3096 
Q 1206 3584 1959 3584 
z
" transform="scale(0.015625)"/>
      <path id="DejaVuSans-28" d="M 1984 4856 
Q 1566 4138 1362 3434 
Q 1159 2731 1159 2009 
Q 1159 1288 1364 580 
Q 1569 -128 1984 -844 
L 1484 -844 
Q 1016 -109 783 600 
Q 550 1309 550 2009 
Q 550 2706 781 3412 
Q 1013 4119 1484 4856 
L 1984 4856 
z
" transform="scale(0.015625)"/>
      <path id="DejaVuSans-6d" d="M 3328 2828 
Q 3544 3216 3844 3400 
Q 4144 3584 4550 3584 
Q 5097 3584 5394 3201 
Q 5691 2819 5691 2113 
L 5691 0 
L 5113 0 
L 5113 2094 
Q 5113 2597 4934 2840 
Q 4756 3084 4391 3084 
Q 3944 3084 3684 2787 
Q 3425 2491 3425 1978 
L 3425 0 
L 2847 0 
L 2847 2094 
Q 2847 2600 2669 2842 
Q 2491 3084 2119 3084 
Q 1678 3084 1418 2786 
Q 1159 2488 1159 1978 
L 1159 0 
L 581 0 
L 581 3500 
L 1159 3500 
L 1159 2956 
Q 1356 3278 1631 3431 
Q 1906 3584 2284 3584 
Q 2666 3584 2933 3390 
Q 3200 3197 3328 2828 
z
" transform="scale(0.015625)"/>
      <path id="DejaVuSans-41" d="M 2188 4044 
L 1331 1722 
L 3047 1722 
L 2188 4044 
z
M 1831 4666 
L 2547 4666 
L 4325 0 
L 3669 0 
L 3244 1197 
L 1141 1197 
L 716 0 
L 50 0 
L 1831 4666 
z
" transform="scale(0.015625)"/>
      <path id="DejaVuSans-67" d="M 2906 1791 
Q 2906 2416 2648 2759 
Q 2391 3103 1925 3103 
Q 1463 3103 1205 2759 
Q 947 2416 947 1791 
Q 947 1169 1205 825 
Q 1463 481 1925 481 
Q 2391 481 2648 825 
Q 2906 1169 2906 1791 
z
M 3481 434 
Q 3481 -459 3084 -895 
Q 2688 -1331 1869 -1331 
Q 1566 -1331 1297 -1286 
Q 1028 -1241 775 -1147 
L 775 -588 
Q 1028 -725 1275 -790 
Q 1522 -856 1778 -856 
Q 2344 -856 2625 -561 
Q 2906 -266 2906 331 
L 2906 616 
Q 2728 306 2450 153 
Q 2172 0 1784 0 
Q 1141 0 747 490 
Q 353 981 353 1791 
Q 353 2603 747 3093 
Q 1141 3584 1784 3584 
Q 2172 3584 2450 3431 
Q 2728 3278 2906 2969 
L 2906 3500 
L 3481 3500 
L 3481 434 
z
" transform="scale(0.015625)"/>
      <path id="DejaVuSans-3e" d="M 678 3150 
L 678 3719 
L 4684 2266 
L 4684 1747 
L 678 294 
L 678 863 
L 3897 2003 
L 678 3150 
z
" transform="scale(0.015625)"/>
      <path id="DejaVuSans-57" d="M 213 4666 
L 850 4666 
L 1831 722 
L 2809 4666 
L 3519 4666 
L 4500 722 
L 5478 4666 
L 6119 4666 
L 4947 0 
L 4153 0 
L 3169 4050 
L 2175 0 
L 1381 0 
L 213 4666 
z
" transform="scale(0.015625)"/>
      <path id="DejaVuSans-6b" d="M 581 4863 
L 1159 4863 
L 1159 1991 
L 2875 3500 
L 3609 3500 
L 1753 1863 
L 3688 0 
L 2938 0 
L 1159 1709 
L 1159 0 
L 581 0 
L 581 4863 
z
" transform="scale(0.015625)"/>
      <path id="DejaVuSans-29" d="M 513 4856 
L 1013 4856 
Q 1481 4119 1714 3412 
Q 1947 2706 1947 2009 
Q 1947 1309 1714 600 
Q 1481 -109 1013 -844 
L 513 -844 
Q 928 -128 1133 580 
Q 1338 1288 1338 2009 
Q 1338 2731 1133 3434 
Q 928 4138 513 4856 
z
" transform="scale(0.015625)"/>
     </defs>
     <use xlink:href="#DejaVuSans-45"/>
     <use xlink:href="#DejaVuSans-6e" x="63.183594"/>
     <use xlink:href="#DejaVuSans-74" x="126.5625"/>
     <use xlink:href="#DejaVuSans-65" x="165.771484"/>
     <use xlink:href="#DejaVuSans-72" x="227.294922"/>
     <use xlink:href="#DejaVuSans-70" x="268.408203"/>
     <use xlink:href="#DejaVuSans-72" x="331.884766"/>
     <use xlink:href="#DejaVuSans-69" x="372.998047"/>
     <use xlink:href="#DejaVuSans-73" x="400.78125"/>
     <use xlink:href="#DejaVuSans-65" x="452.880859"/>
     <use xlink:href="#DejaVuSans-20" x="514.404297"/>
     <use xlink:href="#DejaVuSans-4c" x="546.191406"/>
     <use xlink:href="#DejaVuSans-69" x="601.904297"/>
     <use xlink:href="#DejaVuSans-6e" x="629.6875"/>
     <use xlink:href="#DejaVuSans-75" x="693.066406"/>
     <use xlink:href="#DejaVuSans-78" x="756.445312"/>
     <use xlink:href="#DejaVuSans-20" x="815.625"/>
     <use xlink:href="#DejaVuSans-49" x="847.412109"/>
     <use xlink:href="#DejaVuSans-6e" x="876.904297"/>
     <use xlink:href="#DejaVuSans-73" x="940.283203"/>
     <use xlink:href="#DejaVuSans-74" x="992.382812"/>
     <use xlink:href="#DejaVuSans-61" x="1031.591797"/>
     <use xlink:href="#DejaVuSans-6e" x="1092.871094"/>
     <use xlink:href="#DejaVuSans-63" x="1156.25"/>
     <use xlink:href="#DejaVuSans-65" x="1211.230469"/>
     <use xlink:href="#DejaVuSans-73" x="1272.753906"/>
     <use xlink:href="#DejaVuSans-20" x="1324.853516"/>
     <use xlink:href="#DejaVuSans-62" x="1356.640625"/>
     <use xlink:href="#DejaVuSans-79" x="1420.117188"/>
     <use xlink:href="#DejaVuSans-20" x="1479.296875"/>
     <use xlink:href="#DejaVuSans-44" x="1511.083984"/>
     <use xlink:href="#DejaVuSans-69" x="1588.085938"/>
     <use xlink:href="#DejaVuSans-73" x="1615.869141"/>
     <use xlink:href="#DejaVuSans-74" x="1667.96875"/>
     <use xlink:href="#DejaVuSans-72" x="1707.177734"/>
     <use xlink:href="#DejaVuSans-69" x="1748.291016"/>
     <use xlink:href="#DejaVuSans-62" x="1776.074219"/>
     <use xlink:href="#DejaVuSans-75" x="1839.550781"/>
     <use xlink:href="#DejaVuSans-74" x="1902.929688"/>
     <use xlink:href="#DejaVuSans-69" x="1942.138672"/>
     <use xlink:href="#DejaVuSans-6f" x="1969.921875"/>
     <use xlink:href="#DejaVuSans-6e" x="2031.103516"/>
     <use xlink:href="#DejaVuSans-20" x="2094.482422"/>
     <use xlink:href="#DejaVuSans-53" x="2126.269531"/>
     <use xlink:href="#DejaVuSans-68" x="2189.746094"/>
     <use xlink:href="#DejaVuSans-61" x="2253.125"/>
     <use xlink:href="#DejaVuSans-72" x="2314.404297"/>
     <use xlink:href="#DejaVuSans-65" x="2353.267578"/>
     <use xlink:href="#DejaVuSans-20" x="2414.791016"/>
     <use xlink:href="#DejaVuSans-28" x="2446.578125"/>
     <use xlink:href="#DejaVuSans-53" x="2485.591797"/>
     <use xlink:href="#DejaVuSans-79" x="2549.068359"/>
     <use xlink:href="#DejaVuSans-73" x="2608.248047"/>
     <use xlink:href="#DejaVuSans-74" x="2660.347656"/>
     <use xlink:href="#DejaVuSans-65" x="2699.556641"/>
     <use xlink:href="#DejaVuSans-6d" x="2761.080078"/>
     <use xlink:href="#DejaVuSans-20" x="2858.492188"/>
     <use xlink:href="#DejaVuSans-41" x="2890.279297"/>
     <use xlink:href="#DejaVuSans-67" x="2958.6875"/>
     <use xlink:href="#DejaVuSans-65" x="3022.164062"/>
     <use xlink:href="#DejaVuSans-20" x="3083.6875"/>
     <use xlink:href="#DejaVuSans-3e" x="3115.474609"/>
     <use xlink:href="#DejaVuSans-20" x="3199.263672"/>
     <use xlink:href="#DejaVuSans-31" x="3231.050781"/>
     <use xlink:href="#DejaVuSans-20" x="3294.673828"/>
     <use xlink:href="#DejaVuSans-57" x="3326.460938"/>
     <use xlink:href="#DejaVuSans-65" x="3419.462891"/>
     <use xlink:href="#DejaVuSans-65" x="3480.986328"/>
     <use xlink:href="#DejaVuSans-6b" x="3542.509766"/>
     <use xlink:href="#DejaVuSans-29" x="3600.419922"/>
    </g>
   </g>
   <g id="text_25">
    <!-- 2025-09-25 11:55 UTC -->
    <g transform="translate(792.041375 18.14175) scale(0.144 -0.144)">
     <defs>
      <path id="DejaVuSans-3a" d="M 750 794 
L 1409 794 
L 1409 0 
L 750 0 
L 750 794 
z
M 750 3309 
L 1409 3309 
L 1409 2516 
L 750 2516 
L 750 3309 
z
" transform="scale(0.015625)"/>
      <path id="DejaVuSans-55" d="M 556 4666 
L 1191 4666 
L 1191 1831 
Q 1191 1081 1462 751 
Q 1734 422 2344 422 
Q 2950 422 3222 751 
Q 3494 1081 3494 1831 
L 3494 4666 
L 4128 4666 
L 4128 1753 
Q 4128 841 3676 375 
Q 3225 -91 2344 -91 
Q 1459 -91 1007 375 
Q 556 841 556 1753 
L 556 4666 
z
" transform="scale(0.015625)"/>
      <path id="DejaVuSans-54" d="M -19 4666 
L 3928 4666 
L 3928 4134 
L 2272 4134 
L 2272 0 
L 1638 0 
L 1638 4134 
L -19 4134 
L -19 4666 
z
" transform="scale(0.015625)"/>
      <path id="DejaVuSans-43" d="M 4122 4306 
L 4122 3641 
Q 3803 3938 3442 4084 
Q 3081 4231 2675 4231 
Q 1875 4231 1450 3742 
Q 1025 3253 1025 2328 
Q 1025 1406 1450 917 
Q 1875 428 2675 428 
Q 3081 428 3442 575 
Q 3803 722 4122 1019 
L 4122 359 
Q 3791 134 3420 21 
Q 3050 -91 2638 -91 
Q 1578 -91 968 557 
Q 359 1206 359 2328 
Q 359 3453 968 4101 
Q 1578 4750 2638 4750 
Q 3056 4750 3426 4639 
Q 3797 4528 4122 4306 
z
" transform="scale(0.015625)"/>
     </defs>
     <use xlink:href="#DejaVuSans-32"/>
     <use xlink:href="#DejaVuSans-30" x="63.623047"/>
     <use xlink:href="#DejaVuSans-32" x="127.246094"/>
     <use xlink:href="#DejaVuSans-35" x="190.869141"/>
     <use xlink:href="#DejaVuSans-2d" x="254.492188"/>
     <use xlink:href="#DejaVuSans-30" x="290.576172"/>
     <use xlink:href="#DejaVuSans-39" x="354.199219"/>
     <use xlink:href="#DejaVuSans-2d" x="417.822266"/>
     <use xlink:href="#DejaVuSans-32" x="453.90625"/>
     <use xlink:href="#DejaVuSans-35" x="517.529297"/>
     <use xlink:href="#DejaVuSans-20" x="581.152344"/>
     <use xlink:href="#DejaVuSans-31" x="612.939453"/>
     <use xlink:href="#DejaVuSans-31" x="676.5625"/>
     <use xlink:href="#DejaVuSans-3a" x="740.185547"/>
     <use xlink:href="#DejaVuSans-35" x="773.876953"/>
     <use xlink:href="#DejaVuSans-35" x="837.5"/>
     <use xlink:href="#DejaVuSans-20" x="901.123047"/>
     <use xlink:href="#DejaVuSans-55" x="932.910156"/>
     <use xlink:href="#DejaVuSans-54" x="1006.103516"/>
     <use xlink:href="#DejaVuSans-43" x="1061.3125"/>
    </g>
   </g>
   <g id="legend_1">
    <g id="patch_7">
     <path d="M 838.954625 134.888625 
L 947.923375 134.888625 
Q 949.923375 134.888625 949.923375 132.888625 
L 949.923375 31.14175 
Q 949.923375 29.14175 947.923375 29.14175 
L 838.954625 29.14175 
Q 836.954625 29.14175 836.954625 31.14175 
L 836.954625 132.888625 
Q 836.954625 134.888625 838.954625 134.888625 
z
" style="fill: #e5e5e5; opacity: 0.8; stroke: #cccccc; stroke-width: 0.5; stroke-linejoin: miter"/>
    </g>
    <g id="text_26">
     <!-- Distribution -->
     <g transform="translate(864.27025 40.740188) scale(0.1 -0.1)">
      <use xlink:href="#DejaVuSans-44"/>
      <use xlink:href="#DejaVuSans-69" x="77.001953"/>
      <use xlink:href="#DejaVuSans-73" x="104.785156"/>
      <use xlink:href="#DejaVuSans-74" x="156.884766"/>
      <use xlink:href="#DejaVuSans-72" x="196.09375"/>
      <use xlink:href="#DejaVuSans-69" x="237.207031"/>
      <use xlink:href="#DejaVuSans-62" x="264.990234"/>
      <use xlink:href="#DejaVuSans-75" x="328.466797"/>
      <use xlink:href="#DejaVuSans-74" x="391.845703"/>
      <use xlink:href="#DejaVuSans-69" x="431.054688"/>
      <use xlink:href="#DejaVuSans-6f" x="458.837891"/>
      <use xlink:href="#DejaVuSans-6e" x="520.019531"/>
     </g>
    </g>
    <g id="line2d_55">
     <path d="M 840.954625 51.918313 
L 850.954625 51.918313 
L 860.954625 51.918313 
" style="fill: none; stroke: #4ac1fa; stroke-width: 1.5; stroke-linecap: square"/>
    </g>
    <g id="text_27">
     <!-- AlmaLinux -->
     <g transform="translate(868.954625 55.418313) scale(0.1 -0.1)">
      <defs>
       <path id="DejaVuSans-6c" d="M 603 4863 
L 1178 4863 
L 1178 0 
L 603 0 
L 603 4863 
z
" transform="scale(0.015625)"/>
      </defs>
      <use xlink:href="#DejaVuSans-41"/>
      <use xlink:href="#DejaVuSans-6c" x="68.408203"/>
      <use xlink:href="#DejaVuSans-6d" x="96.191406"/>
      <use xlink:href="#DejaVuSans-61" x="193.603516"/>
      <use xlink:href="#DejaVuSans-4c" x="254.882812"/>
      <use xlink:href="#DejaVuSans-69" x="310.595703"/>
      <use xlink:href="#DejaVuSans-6e" x="338.378906"/>
      <use xlink:href="#DejaVuSans-75" x="401.757812"/>
      <use xlink:href="#DejaVuSans-78" x="465.136719"/>
     </g>
    </g>
    <g id="line2d_56">
     <path d="M 840.954625 66.596438 
L 850.954625 66.596438 
L 860.954625 66.596438 
" style="fill: none; stroke: #e9a942; stroke-width: 1.5; stroke-linecap: square"/>
    </g>
    <g id="text_28">
     <!-- CentOS Legacy -->
     <g transform="translate(868.954625 70.096438) scale(0.1 -0.1)">
      <defs>
       <path id="DejaVuSans-4f" d="M 2522 4238 
Q 1834 4238 1429 3725 
Q 1025 3213 1025 2328 
Q 1025 1447 1429 934 
Q 1834 422 2522 422 
Q 3209 422 3611 934 
Q 4013 1447 4013 2328 
Q 4013 3213 3611 3725 
Q 3209 4238 2522 4238 
z
M 2522 4750 
Q 3503 4750 4090 4092 
Q 4678 3434 4678 2328 
Q 4678 1225 4090 567 
Q 3503 -91 2522 -91 
Q 1538 -91 948 565 
Q 359 1222 359 2328 
Q 359 3434 948 4092 
Q 1538 4750 2522 4750 
z
" transform="scale(0.015625)"/>
      </defs>
      <use xlink:href="#DejaVuSans-43"/>
      <use xlink:href="#DejaVuSans-65" x="69.824219"/>
      <use xlink:href="#DejaVuSans-6e" x="131.347656"/>
      <use xlink:href="#DejaVuSans-74" x="194.726562"/>
      <use xlink:href="#DejaVuSans-4f" x="233.935547"/>
      <use xlink:href="#DejaVuSans-53" x="312.646484"/>
      <use xlink:href="#DejaVuSans-20" x="376.123047"/>
      <use xlink:href="#DejaVuSans-4c" x="407.910156"/>
      <use xlink:href="#DejaVuSans-65" x="461.873047"/>
      <use xlink:href="#DejaVuSans-67" x="523.396484"/>
      <use xlink:href="#DejaVuSans-61" x="586.873047"/>
      <use xlink:href="#DejaVuSans-63" x="648.152344"/>
      <use xlink:href="#DejaVuSans-79" x="703.132812"/>
     </g>
    </g>
    <g id="line2d_57">
     <path d="M 840.954625 81.274563 
L 850.954625 81.274563 
L 860.954625 81.274563 
" style="fill: none; stroke: #9a5689; stroke-width: 1.5; stroke-linecap: square"/>
    </g>
    <g id="text_29">
     <!-- CentOS Stream -->
     <g transform="translate(868.954625 84.774563) scale(0.1 -0.1)">
      <use xlink:href="#DejaVuSans-43"/>
      <use xlink:href="#DejaVuSans-65" x="69.824219"/>
      <use xlink:href="#DejaVuSans-6e" x="131.347656"/>
      <use xlink:href="#DejaVuSans-74" x="194.726562"/>
      <use xlink:href="#DejaVuSans-4f" x="233.935547"/>
      <use xlink:href="#DejaVuSans-53" x="312.646484"/>
      <use xlink:href="#DejaVuSans-20" x="376.123047"/>
      <use xlink:href="#DejaVuSans-53" x="407.910156"/>
      <use xlink:href="#DejaVuSans-74" x="471.386719"/>
      <use xlink:href="#DejaVuSans-72" x="510.595703"/>
      <use xlink:href="#DejaVuSans-65" x="549.458984"/>
      <use xlink:href="#DejaVuSans-61" x="610.982422"/>
      <use xlink:href="#DejaVuSans-6d" x="672.261719"/>
     </g>
    </g>
    <g id="line2d_58">
     <path d="M 840.954625 95.952688 
L 850.954625 95.952688 
L 860.954625 95.952688 
" style="fill: none; stroke: #be503b; stroke-width: 1.5; stroke-linecap: square"/>
    </g>
    <g id="text_30">
     <!-- Oracle -->
     <g transform="translate(868.954625 99.452688) scale(0.1 -0.1)">
      <use xlink:href="#DejaVuSans-4f"/>
      <use xlink:href="#DejaVuSans-72" x="78.710938"/>
      <use xlink:href="#DejaVuSans-61" x="119.824219"/>
      <use xlink:href="#DejaVuSans-63" x="181.103516"/>
      <use xlink:href="#DejaVuSans-6c" x="236.083984"/>
      <use xlink:href="#DejaVuSans-65" x="263.867188"/>
     </g>
    </g>
    <g id="line2d_59">
     <path d="M 840.954625 110.630813 
L 850.954625 110.630813 
L 860.954625 110.630813 
" style="fill: none; stroke: #e2321d; stroke-width: 1.5; stroke-linecap: square"/>
    </g>
    <g id="text_31">
     <!-- RHEL -->
     <g transform="translate(868.954625 114.130813) scale(0.1 -0.1)">
      <defs>
       <path id="DejaVuSans-52" d="M 2841 2188 
Q 3044 2119 3236 1894 
Q 3428 1669 3622 1275 
L 4263 0 
L 3584 0 
L 2988 1197 
Q 2756 1666 2539 1819 
Q 2322 1972 1947 1972 
L 1259 1972 
L 1259 0 
L 628 0 
L 628 4666 
L 2053 4666 
Q 2853 4666 3247 4331 
Q 3641 3997 3641 3322 
Q 3641 2881 3436 2590 
Q 3231 2300 2841 2188 
z
M 1259 4147 
L 1259 2491 
L 2053 2491 
Q 2509 2491 2742 2702 
Q 2975 2913 2975 3322 
Q 2975 3731 2742 3939 
Q 2509 4147 2053 4147 
L 1259 4147 
z
" transform="scale(0.015625)"/>
       <path id="DejaVuSans-48" d="M 628 4666 
L 1259 4666 
L 1259 2753 
L 3553 2753 
L 3553 4666 
L 4184 4666 
L 4184 0 
L 3553 0 
L 3553 2222 
L 1259 2222 
L 1259 0 
L 628 0 
L 628 4666 
z
" transform="scale(0.015625)"/>
      </defs>
      <use xlink:href="#DejaVuSans-52"/>
      <use xlink:href="#DejaVuSans-48" x="69.482422"/>
      <use xlink:href="#DejaVuSans-45" x="144.677734"/>
      <use xlink:href="#DejaVuSans-4c" x="207.861328"/>
     </g>
    </g>
    <g id="line2d_60">
     <path d="M 840.954625 125.308938 
L 850.954625 125.308938 
L 860.954625 125.308938 
" style="fill: none; stroke: #48b585; stroke-width: 6; stroke-linecap: square"/>
    </g>
    <g id="text_32">
     <!-- Rocky Linux -->
     <g transform="translate(868.954625 128.808938) scale(0.1 -0.1)">
      <use xlink:href="#DejaVuSans-52"/>
      <use xlink:href="#DejaVuSans-6f" x="64.982422"/>
      <use xlink:href="#DejaVuSans-63" x="126.164062"/>
      <use xlink:href="#DejaVuSans-6b" x="181.144531"/>
      <use xlink:href="#DejaVuSans-79" x="235.429688"/>
      <use xlink:href="#DejaVuSans-20" x="294.609375"/>
      <use xlink:href="#DejaVuSans-4c" x="326.396484"/>
      <use xlink:href="#DejaVuSans-69" x="382.109375"/>
      <use xlink:href="#DejaVuSans-6e" x="409.892578"/>
      <use xlink:href="#DejaVuSans-75" x="473.271484"/>
      <use xlink:href="#DejaVuSans-78" x="536.650391"/>
     </g>
    </g>
   </g>
  </g>
 </g>
 <defs>
  <clipPath id="p0af8cb3a67">
   <rect x="52.079375" y="24.14175" width="902.844" height="554.4"/>
  </clipPath>
 </defs>
</svg>
