<?xml version="1.0" encoding="utf-8" standalone="no"?>
<!DOCTYPE svg PUBLIC "-//W3C//DTD SVG 1.1//EN"
  "http://www.w3.org/Graphics/SVG/1.1/DTD/svg11.dtd">
<svg xmlns:xlink="http://www.w3.org/1999/xlink" width="974.2765pt" height="644.743878pt" viewBox="0 0 974.2765 644.743878" xmlns="http://www.w3.org/2000/svg" version="1.1">
 <metadata>
  <rdf:RDF xmlns:dc="http://purl.org/dc/elements/1.1/" xmlns:cc="http://creativecommons.org/ns#" xmlns:rdf="http://www.w3.org/1999/02/22-rdf-syntax-ns#">
   <cc:Work>
    <dc:type rdf:resource="http://purl.org/dc/dcmitype/StillImage"/>
    <dc:date>2025-07-17T14:16:09.011513</dc:date>
    <dc:format>image/svg+xml</dc:format>
    <dc:creator>
     <cc:Agent>
      <dc:title>Matplotlib v3.6.3, https://matplotlib.org/</dc:title>
     </cc:Agent>
    </dc:creator>
   </cc:Work>
  </rdf:RDF>
 </metadata>
 <defs>
  <style type="text/css">*{stroke-linejoin: round; stroke-linecap: butt}</style>
 </defs>
 <g id="figure_1">
  <g id="patch_1">
   <path d="M 0 644.743878 
L 974.2765 644.743878 
L 974.2765 0 
L 0 0 
z
" style="fill: #ffffff"/>
  </g>
  <g id="axes_1">
   <g id="patch_2">
    <path d="M 64.2325 578.54175 
L 967.0765 578.54175 
L 967.0765 24.14175 
L 64.2325 24.14175 
z
" style="fill: #e5e5e5"/>
   </g>
   <g id="matplotlib.axis_1">
    <g id="xtick_1">
     <g id="line2d_1">
      <path d="M 86.993273 578.54175 
L 86.993273 24.14175 
" clip-path="url(#p01d4a87305)" style="fill: none; stroke: #ffffff; stroke-width: 0.8; stroke-linecap: square"/>
     </g>
     <g id="line2d_2">
      <defs>
       <path id="m6a0fd49f4a" d="M 0 0 
L 0 3.5 
" style="stroke: #555555; stroke-width: 0.8"/>
      </defs>
      <g>
       <use xlink:href="#m6a0fd49f4a" x="86.993273" y="578.54175" style="fill: #555555; stroke: #555555; stroke-width: 0.8"/>
      </g>
     </g>
     <g id="text_1">
      <!-- 2024-07 -->
      <g style="fill: #555555" transform="translate(74.171991 620.459567) rotate(-45) scale(0.1 -0.1)">
       <defs>
        <path id="DejaVuSans-32" d="M 1228 531 
L 3431 531 
L 3431 0 
L 469 0 
L 469 531 
Q 828 903 1448 1529 
Q 2069 2156 2228 2338 
Q 2531 2678 2651 2914 
Q 2772 3150 2772 3378 
Q 2772 3750 2511 3984 
Q 2250 4219 1831 4219 
Q 1534 4219 1204 4116 
Q 875 4013 500 3803 
L 500 4441 
Q 881 4594 1212 4672 
Q 1544 4750 1819 4750 
Q 2544 4750 2975 4387 
Q 3406 4025 3406 3419 
Q 3406 3131 3298 2873 
Q 3191 2616 2906 2266 
Q 2828 2175 2409 1742 
Q 1991 1309 1228 531 
z
" transform="scale(0.015625)"/>
        <path id="DejaVuSans-30" d="M 2034 4250 
Q 1547 4250 1301 3770 
Q 1056 3291 1056 2328 
Q 1056 1369 1301 889 
Q 1547 409 2034 409 
Q 2525 409 2770 889 
Q 3016 1369 3016 2328 
Q 3016 3291 2770 3770 
Q 2525 4250 2034 4250 
z
M 2034 4750 
Q 2819 4750 3233 4129 
Q 3647 3509 3647 2328 
Q 3647 1150 3233 529 
Q 2819 -91 2034 -91 
Q 1250 -91 836 529 
Q 422 1150 422 2328 
Q 422 3509 836 4129 
Q 1250 4750 2034 4750 
z
" transform="scale(0.015625)"/>
        <path id="DejaVuSans-34" d="M 2419 4116 
L 825 1625 
L 2419 1625 
L 2419 4116 
z
M 2253 4666 
L 3047 4666 
L 3047 1625 
L 3713 1625 
L 3713 1100 
L 3047 1100 
L 3047 0 
L 2419 0 
L 2419 1100 
L 313 1100 
L 313 1709 
L 2253 4666 
z
" transform="scale(0.015625)"/>
        <path id="DejaVuSans-2d" d="M 313 2009 
L 1997 2009 
L 1997 1497 
L 313 1497 
L 313 2009 
z
" transform="scale(0.015625)"/>
        <path id="DejaVuSans-37" d="M 525 4666 
L 3525 4666 
L 3525 4397 
L 1831 0 
L 1172 0 
L 2766 4134 
L 525 4134 
L 525 4666 
z
" transform="scale(0.015625)"/>
       </defs>
       <use xlink:href="#DejaVuSans-32"/>
       <use xlink:href="#DejaVuSans-30" x="63.623047"/>
       <use xlink:href="#DejaVuSans-32" x="127.246094"/>
       <use xlink:href="#DejaVuSans-34" x="190.869141"/>
       <use xlink:href="#DejaVuSans-2d" x="254.492188"/>
       <use xlink:href="#DejaVuSans-30" x="290.576172"/>
       <use xlink:href="#DejaVuSans-37" x="354.199219"/>
      </g>
     </g>
    </g>
    <g id="xtick_2">
     <g id="line2d_3">
      <path d="M 165.391492 578.54175 
L 165.391492 24.14175 
" clip-path="url(#p01d4a87305)" style="fill: none; stroke: #ffffff; stroke-width: 0.8; stroke-linecap: square"/>
     </g>
     <g id="line2d_4">
      <g>
       <use xlink:href="#m6a0fd49f4a" x="165.391492" y="578.54175" style="fill: #555555; stroke: #555555; stroke-width: 0.8"/>
      </g>
     </g>
     <g id="text_2">
      <!-- 2024-08 -->
      <g style="fill: #555555" transform="translate(152.570209 620.459567) rotate(-45) scale(0.1 -0.1)">
       <defs>
        <path id="DejaVuSans-38" d="M 2034 2216 
Q 1584 2216 1326 1975 
Q 1069 1734 1069 1313 
Q 1069 891 1326 650 
Q 1584 409 2034 409 
Q 2484 409 2743 651 
Q 3003 894 3003 1313 
Q 3003 1734 2745 1975 
Q 2488 2216 2034 2216 
z
M 1403 2484 
Q 997 2584 770 2862 
Q 544 3141 544 3541 
Q 544 4100 942 4425 
Q 1341 4750 2034 4750 
Q 2731 4750 3128 4425 
Q 3525 4100 3525 3541 
Q 3525 3141 3298 2862 
Q 3072 2584 2669 2484 
Q 3125 2378 3379 2068 
Q 3634 1759 3634 1313 
Q 3634 634 3220 271 
Q 2806 -91 2034 -91 
Q 1263 -91 848 271 
Q 434 634 434 1313 
Q 434 1759 690 2068 
Q 947 2378 1403 2484 
z
M 1172 3481 
Q 1172 3119 1398 2916 
Q 1625 2713 2034 2713 
Q 2441 2713 2670 2916 
Q 2900 3119 2900 3481 
Q 2900 3844 2670 4047 
Q 2441 4250 2034 4250 
Q 1625 4250 1398 4047 
Q 1172 3844 1172 3481 
z
" transform="scale(0.015625)"/>
       </defs>
       <use xlink:href="#DejaVuSans-32"/>
       <use xlink:href="#DejaVuSans-30" x="63.623047"/>
       <use xlink:href="#DejaVuSans-32" x="127.246094"/>
       <use xlink:href="#DejaVuSans-34" x="190.869141"/>
       <use xlink:href="#DejaVuSans-2d" x="254.492188"/>
       <use xlink:href="#DejaVuSans-30" x="290.576172"/>
       <use xlink:href="#DejaVuSans-38" x="354.199219"/>
      </g>
     </g>
    </g>
    <g id="xtick_3">
     <g id="line2d_5">
      <path d="M 243.78971 578.54175 
L 243.78971 24.14175 
" clip-path="url(#p01d4a87305)" style="fill: none; stroke: #ffffff; stroke-width: 0.8; stroke-linecap: square"/>
     </g>
     <g id="line2d_6">
      <g>
       <use xlink:href="#m6a0fd49f4a" x="243.78971" y="578.54175" style="fill: #555555; stroke: #555555; stroke-width: 0.8"/>
      </g>
     </g>
     <g id="text_3">
      <!-- 2024-09 -->
      <g style="fill: #555555" transform="translate(230.968428 620.459567) rotate(-45) scale(0.1 -0.1)">
       <defs>
        <path id="DejaVuSans-39" d="M 703 97 
L 703 672 
Q 941 559 1184 500 
Q 1428 441 1663 441 
Q 2288 441 2617 861 
Q 2947 1281 2994 2138 
Q 2813 1869 2534 1725 
Q 2256 1581 1919 1581 
Q 1219 1581 811 2004 
Q 403 2428 403 3163 
Q 403 3881 828 4315 
Q 1253 4750 1959 4750 
Q 2769 4750 3195 4129 
Q 3622 3509 3622 2328 
Q 3622 1225 3098 567 
Q 2575 -91 1691 -91 
Q 1453 -91 1209 -44 
Q 966 3 703 97 
z
M 1959 2075 
Q 2384 2075 2632 2365 
Q 2881 2656 2881 3163 
Q 2881 3666 2632 3958 
Q 2384 4250 1959 4250 
Q 1534 4250 1286 3958 
Q 1038 3666 1038 3163 
Q 1038 2656 1286 2365 
Q 1534 2075 1959 2075 
z
" transform="scale(0.015625)"/>
       </defs>
       <use xlink:href="#DejaVuSans-32"/>
       <use xlink:href="#DejaVuSans-30" x="63.623047"/>
       <use xlink:href="#DejaVuSans-32" x="127.246094"/>
       <use xlink:href="#DejaVuSans-34" x="190.869141"/>
       <use xlink:href="#DejaVuSans-2d" x="254.492188"/>
       <use xlink:href="#DejaVuSans-30" x="290.576172"/>
       <use xlink:href="#DejaVuSans-39" x="354.199219"/>
      </g>
     </g>
    </g>
    <g id="xtick_4">
     <g id="line2d_7">
      <path d="M 319.658954 578.54175 
L 319.658954 24.14175 
" clip-path="url(#p01d4a87305)" style="fill: none; stroke: #ffffff; stroke-width: 0.8; stroke-linecap: square"/>
     </g>
     <g id="line2d_8">
      <g>
       <use xlink:href="#m6a0fd49f4a" x="319.658954" y="578.54175" style="fill: #555555; stroke: #555555; stroke-width: 0.8"/>
      </g>
     </g>
     <g id="text_4">
      <!-- 2024-10 -->
      <g style="fill: #555555" transform="translate(306.837672 620.459567) rotate(-45) scale(0.1 -0.1)">
       <defs>
        <path id="DejaVuSans-31" d="M 794 531 
L 1825 531 
L 1825 4091 
L 703 3866 
L 703 4441 
L 1819 4666 
L 2450 4666 
L 2450 531 
L 3481 531 
L 3481 0 
L 794 0 
L 794 531 
z
" transform="scale(0.015625)"/>
       </defs>
       <use xlink:href="#DejaVuSans-32"/>
       <use xlink:href="#DejaVuSans-30" x="63.623047"/>
       <use xlink:href="#DejaVuSans-32" x="127.246094"/>
       <use xlink:href="#DejaVuSans-34" x="190.869141"/>
       <use xlink:href="#DejaVuSans-2d" x="254.492188"/>
       <use xlink:href="#DejaVuSans-31" x="290.576172"/>
       <use xlink:href="#DejaVuSans-30" x="354.199219"/>
      </g>
     </g>
    </g>
    <g id="xtick_5">
     <g id="line2d_9">
      <path d="M 398.057172 578.54175 
L 398.057172 24.14175 
" clip-path="url(#p01d4a87305)" style="fill: none; stroke: #ffffff; stroke-width: 0.8; stroke-linecap: square"/>
     </g>
     <g id="line2d_10">
      <g>
       <use xlink:href="#m6a0fd49f4a" x="398.057172" y="578.54175" style="fill: #555555; stroke: #555555; stroke-width: 0.8"/>
      </g>
     </g>
     <g id="text_5">
      <!-- 2024-11 -->
      <g style="fill: #555555" transform="translate(385.23589 620.459567) rotate(-45) scale(0.1 -0.1)">
       <use xlink:href="#DejaVuSans-32"/>
       <use xlink:href="#DejaVuSans-30" x="63.623047"/>
       <use xlink:href="#DejaVuSans-32" x="127.246094"/>
       <use xlink:href="#DejaVuSans-34" x="190.869141"/>
       <use xlink:href="#DejaVuSans-2d" x="254.492188"/>
       <use xlink:href="#DejaVuSans-31" x="290.576172"/>
       <use xlink:href="#DejaVuSans-31" x="354.199219"/>
      </g>
     </g>
    </g>
    <g id="xtick_6">
     <g id="line2d_11">
      <path d="M 473.926416 578.54175 
L 473.926416 24.14175 
" clip-path="url(#p01d4a87305)" style="fill: none; stroke: #ffffff; stroke-width: 0.8; stroke-linecap: square"/>
     </g>
     <g id="line2d_12">
      <g>
       <use xlink:href="#m6a0fd49f4a" x="473.926416" y="578.54175" style="fill: #555555; stroke: #555555; stroke-width: 0.8"/>
      </g>
     </g>
     <g id="text_6">
      <!-- 2024-12 -->
      <g style="fill: #555555" transform="translate(461.105134 620.459567) rotate(-45) scale(0.1 -0.1)">
       <use xlink:href="#DejaVuSans-32"/>
       <use xlink:href="#DejaVuSans-30" x="63.623047"/>
       <use xlink:href="#DejaVuSans-32" x="127.246094"/>
       <use xlink:href="#DejaVuSans-34" x="190.869141"/>
       <use xlink:href="#DejaVuSans-2d" x="254.492188"/>
       <use xlink:href="#DejaVuSans-31" x="290.576172"/>
       <use xlink:href="#DejaVuSans-32" x="354.199219"/>
      </g>
     </g>
    </g>
    <g id="xtick_7">
     <g id="line2d_13">
      <path d="M 552.324634 578.54175 
L 552.324634 24.14175 
" clip-path="url(#p01d4a87305)" style="fill: none; stroke: #ffffff; stroke-width: 0.8; stroke-linecap: square"/>
     </g>
     <g id="line2d_14">
      <g>
       <use xlink:href="#m6a0fd49f4a" x="552.324634" y="578.54175" style="fill: #555555; stroke: #555555; stroke-width: 0.8"/>
      </g>
     </g>
     <g id="text_7">
      <!-- 2025-01 -->
      <g style="fill: #555555" transform="translate(539.503352 620.459567) rotate(-45) scale(0.1 -0.1)">
       <defs>
        <path id="DejaVuSans-35" d="M 691 4666 
L 3169 4666 
L 3169 4134 
L 1269 4134 
L 1269 2991 
Q 1406 3038 1543 3061 
Q 1681 3084 1819 3084 
Q 2600 3084 3056 2656 
Q 3513 2228 3513 1497 
Q 3513 744 3044 326 
Q 2575 -91 1722 -91 
Q 1428 -91 1123 -41 
Q 819 9 494 109 
L 494 744 
Q 775 591 1075 516 
Q 1375 441 1709 441 
Q 2250 441 2565 725 
Q 2881 1009 2881 1497 
Q 2881 1984 2565 2268 
Q 2250 2553 1709 2553 
Q 1456 2553 1204 2497 
Q 953 2441 691 2322 
L 691 4666 
z
" transform="scale(0.015625)"/>
       </defs>
       <use xlink:href="#DejaVuSans-32"/>
       <use xlink:href="#DejaVuSans-30" x="63.623047"/>
       <use xlink:href="#DejaVuSans-32" x="127.246094"/>
       <use xlink:href="#DejaVuSans-35" x="190.869141"/>
       <use xlink:href="#DejaVuSans-2d" x="254.492188"/>
       <use xlink:href="#DejaVuSans-30" x="290.576172"/>
       <use xlink:href="#DejaVuSans-31" x="354.199219"/>
      </g>
     </g>
    </g>
    <g id="xtick_8">
     <g id="line2d_15">
      <path d="M 701.534147 578.54175 
L 701.534147 24.14175 
" clip-path="url(#p01d4a87305)" style="fill: none; stroke: #ffffff; stroke-width: 0.8; stroke-linecap: square"/>
     </g>
     <g id="line2d_16">
      <g>
       <use xlink:href="#m6a0fd49f4a" x="701.534147" y="578.54175" style="fill: #555555; stroke: #555555; stroke-width: 0.8"/>
      </g>
     </g>
     <g id="text_8">
      <!-- 2025-03 -->
      <g style="fill: #555555" transform="translate(688.712865 620.459567) rotate(-45) scale(0.1 -0.1)">
       <defs>
        <path id="DejaVuSans-33" d="M 2597 2516 
Q 3050 2419 3304 2112 
Q 3559 1806 3559 1356 
Q 3559 666 3084 287 
Q 2609 -91 1734 -91 
Q 1441 -91 1130 -33 
Q 819 25 488 141 
L 488 750 
Q 750 597 1062 519 
Q 1375 441 1716 441 
Q 2309 441 2620 675 
Q 2931 909 2931 1356 
Q 2931 1769 2642 2001 
Q 2353 2234 1838 2234 
L 1294 2234 
L 1294 2753 
L 1863 2753 
Q 2328 2753 2575 2939 
Q 2822 3125 2822 3475 
Q 2822 3834 2567 4026 
Q 2313 4219 1838 4219 
Q 1578 4219 1281 4162 
Q 984 4106 628 3988 
L 628 4550 
Q 988 4650 1302 4700 
Q 1616 4750 1894 4750 
Q 2613 4750 3031 4423 
Q 3450 4097 3450 3541 
Q 3450 3153 3228 2886 
Q 3006 2619 2597 2516 
z
" transform="scale(0.015625)"/>
       </defs>
       <use xlink:href="#DejaVuSans-32"/>
       <use xlink:href="#DejaVuSans-30" x="63.623047"/>
       <use xlink:href="#DejaVuSans-32" x="127.246094"/>
       <use xlink:href="#DejaVuSans-35" x="190.869141"/>
       <use xlink:href="#DejaVuSans-2d" x="254.492188"/>
       <use xlink:href="#DejaVuSans-30" x="290.576172"/>
       <use xlink:href="#DejaVuSans-33" x="354.199219"/>
      </g>
     </g>
    </g>
    <g id="xtick_9">
     <g id="line2d_17">
      <path d="M 779.932366 578.54175 
L 779.932366 24.14175 
" clip-path="url(#p01d4a87305)" style="fill: none; stroke: #ffffff; stroke-width: 0.8; stroke-linecap: square"/>
     </g>
     <g id="line2d_18">
      <g>
       <use xlink:href="#m6a0fd49f4a" x="779.932366" y="578.54175" style="fill: #555555; stroke: #555555; stroke-width: 0.8"/>
      </g>
     </g>
     <g id="text_9">
      <!-- 2025-04 -->
      <g style="fill: #555555" transform="translate(767.111083 620.459567) rotate(-45) scale(0.1 -0.1)">
       <use xlink:href="#DejaVuSans-32"/>
       <use xlink:href="#DejaVuSans-30" x="63.623047"/>
       <use xlink:href="#DejaVuSans-32" x="127.246094"/>
       <use xlink:href="#DejaVuSans-35" x="190.869141"/>
       <use xlink:href="#DejaVuSans-2d" x="254.492188"/>
       <use xlink:href="#DejaVuSans-30" x="290.576172"/>
       <use xlink:href="#DejaVuSans-34" x="354.199219"/>
      </g>
     </g>
    </g>
    <g id="xtick_10">
     <g id="line2d_19">
      <path d="M 855.801609 578.54175 
L 855.801609 24.14175 
" clip-path="url(#p01d4a87305)" style="fill: none; stroke: #ffffff; stroke-width: 0.8; stroke-linecap: square"/>
     </g>
     <g id="line2d_20">
      <g>
       <use xlink:href="#m6a0fd49f4a" x="855.801609" y="578.54175" style="fill: #555555; stroke: #555555; stroke-width: 0.8"/>
      </g>
     </g>
     <g id="text_10">
      <!-- 2025-05 -->
      <g style="fill: #555555" transform="translate(842.980327 620.459567) rotate(-45) scale(0.1 -0.1)">
       <use xlink:href="#DejaVuSans-32"/>
       <use xlink:href="#DejaVuSans-30" x="63.623047"/>
       <use xlink:href="#DejaVuSans-32" x="127.246094"/>
       <use xlink:href="#DejaVuSans-35" x="190.869141"/>
       <use xlink:href="#DejaVuSans-2d" x="254.492188"/>
       <use xlink:href="#DejaVuSans-30" x="290.576172"/>
       <use xlink:href="#DejaVuSans-35" x="354.199219"/>
      </g>
     </g>
    </g>
    <g id="xtick_11">
     <g id="line2d_21">
      <path d="M 934.199828 578.54175 
L 934.199828 24.14175 
" clip-path="url(#p01d4a87305)" style="fill: none; stroke: #ffffff; stroke-width: 0.8; stroke-linecap: square"/>
     </g>
     <g id="line2d_22">
      <g>
       <use xlink:href="#m6a0fd49f4a" x="934.199828" y="578.54175" style="fill: #555555; stroke: #555555; stroke-width: 0.8"/>
      </g>
     </g>
     <g id="text_11">
      <!-- 2025-06 -->
      <g style="fill: #555555" transform="translate(921.378545 620.459567) rotate(-45) scale(0.1 -0.1)">
       <defs>
        <path id="DejaVuSans-36" d="M 2113 2584 
Q 1688 2584 1439 2293 
Q 1191 2003 1191 1497 
Q 1191 994 1439 701 
Q 1688 409 2113 409 
Q 2538 409 2786 701 
Q 3034 994 3034 1497 
Q 3034 2003 2786 2293 
Q 2538 2584 2113 2584 
z
M 3366 4563 
L 3366 3988 
Q 3128 4100 2886 4159 
Q 2644 4219 2406 4219 
Q 1781 4219 1451 3797 
Q 1122 3375 1075 2522 
Q 1259 2794 1537 2939 
Q 1816 3084 2150 3084 
Q 2853 3084 3261 2657 
Q 3669 2231 3669 1497 
Q 3669 778 3244 343 
Q 2819 -91 2113 -91 
Q 1303 -91 875 529 
Q 447 1150 447 2328 
Q 447 3434 972 4092 
Q 1497 4750 2381 4750 
Q 2619 4750 2861 4703 
Q 3103 4656 3366 4563 
z
" transform="scale(0.015625)"/>
       </defs>
       <use xlink:href="#DejaVuSans-32"/>
       <use xlink:href="#DejaVuSans-30" x="63.623047"/>
       <use xlink:href="#DejaVuSans-32" x="127.246094"/>
       <use xlink:href="#DejaVuSans-35" x="190.869141"/>
       <use xlink:href="#DejaVuSans-2d" x="254.492188"/>
       <use xlink:href="#DejaVuSans-30" x="290.576172"/>
       <use xlink:href="#DejaVuSans-36" x="354.199219"/>
      </g>
     </g>
    </g>
    <g id="text_12">
     <!-- Date -->
     <g style="fill: #555555" transform="translate(501.313563 635.048253) scale(0.12 -0.12)">
      <defs>
       <path id="DejaVuSans-44" d="M 1259 4147 
L 1259 519 
L 2022 519 
Q 2988 519 3436 956 
Q 3884 1394 3884 2338 
Q 3884 3275 3436 3711 
Q 2988 4147 2022 4147 
L 1259 4147 
z
M 628 4666 
L 1925 4666 
Q 3281 4666 3915 4102 
Q 4550 3538 4550 2338 
Q 4550 1131 3912 565 
Q 3275 0 1925 0 
L 628 0 
L 628 4666 
z
" transform="scale(0.015625)"/>
       <path id="DejaVuSans-61" d="M 2194 1759 
Q 1497 1759 1228 1600 
Q 959 1441 959 1056 
Q 959 750 1161 570 
Q 1363 391 1709 391 
Q 2188 391 2477 730 
Q 2766 1069 2766 1631 
L 2766 1759 
L 2194 1759 
z
M 3341 1997 
L 3341 0 
L 2766 0 
L 2766 531 
Q 2569 213 2275 61 
Q 1981 -91 1556 -91 
Q 1019 -91 701 211 
Q 384 513 384 1019 
Q 384 1609 779 1909 
Q 1175 2209 1959 2209 
L 2766 2209 
L 2766 2266 
Q 2766 2663 2505 2880 
Q 2244 3097 1772 3097 
Q 1472 3097 1187 3025 
Q 903 2953 641 2809 
L 641 3341 
Q 956 3463 1253 3523 
Q 1550 3584 1831 3584 
Q 2591 3584 2966 3190 
Q 3341 2797 3341 1997 
z
" transform="scale(0.015625)"/>
       <path id="DejaVuSans-74" d="M 1172 4494 
L 1172 3500 
L 2356 3500 
L 2356 3053 
L 1172 3053 
L 1172 1153 
Q 1172 725 1289 603 
Q 1406 481 1766 481 
L 2356 481 
L 2356 0 
L 1766 0 
Q 1100 0 847 248 
Q 594 497 594 1153 
L 594 3053 
L 172 3053 
L 172 3500 
L 594 3500 
L 594 4494 
L 1172 4494 
z
" transform="scale(0.015625)"/>
       <path id="DejaVuSans-65" d="M 3597 1894 
L 3597 1613 
L 953 1613 
Q 991 1019 1311 708 
Q 1631 397 2203 397 
Q 2534 397 2845 478 
Q 3156 559 3463 722 
L 3463 178 
Q 3153 47 2828 -22 
Q 2503 -91 2169 -91 
Q 1331 -91 842 396 
Q 353 884 353 1716 
Q 353 2575 817 3079 
Q 1281 3584 2069 3584 
Q 2775 3584 3186 3129 
Q 3597 2675 3597 1894 
z
M 3022 2063 
Q 3016 2534 2758 2815 
Q 2500 3097 2075 3097 
Q 1594 3097 1305 2825 
Q 1016 2553 972 2059 
L 3022 2063 
z
" transform="scale(0.015625)"/>
      </defs>
      <use xlink:href="#DejaVuSans-44"/>
      <use xlink:href="#DejaVuSans-61" x="77.001953"/>
      <use xlink:href="#DejaVuSans-74" x="138.28125"/>
      <use xlink:href="#DejaVuSans-65" x="177.490234"/>
     </g>
    </g>
   </g>
   <g id="matplotlib.axis_2">
    <g id="ytick_1">
     <g id="line2d_23">
      <path d="M 64.2325 578.54175 
L 967.0765 578.54175 
" clip-path="url(#p01d4a87305)" style="fill: none; stroke: #ffffff; stroke-width: 0.8; stroke-linecap: square"/>
     </g>
     <g id="line2d_24">
      <defs>
       <path id="m5f81a57d98" d="M 0 0 
L -3.5 0 
" style="stroke: #555555; stroke-width: 0.8"/>
      </defs>
      <g>
       <use xlink:href="#m5f81a57d98" x="64.2325" y="578.54175" style="fill: #555555; stroke: #555555; stroke-width: 0.8"/>
      </g>
     </g>
     <g id="text_13">
      <!-- 0k -->
      <g style="fill: #555555" transform="translate(45.079375 582.340969) scale(0.1 -0.1)">
       <defs>
        <path id="DejaVuSans-6b" d="M 581 4863 
L 1159 4863 
L 1159 1991 
L 2875 3500 
L 3609 3500 
L 1753 1863 
L 3688 0 
L 2938 0 
L 1159 1709 
L 1159 0 
L 581 0 
L 581 4863 
z
" transform="scale(0.015625)"/>
       </defs>
       <use xlink:href="#DejaVuSans-30"/>
       <use xlink:href="#DejaVuSans-6b" x="63.623047"/>
      </g>
     </g>
    </g>
    <g id="ytick_2">
     <g id="line2d_25">
      <path d="M 64.2325 501.944456 
L 967.0765 501.944456 
" clip-path="url(#p01d4a87305)" style="fill: none; stroke: #ffffff; stroke-width: 0.8; stroke-linecap: square"/>
     </g>
     <g id="line2d_26">
      <g>
       <use xlink:href="#m5f81a57d98" x="64.2325" y="501.944456" style="fill: #555555; stroke: #555555; stroke-width: 0.8"/>
      </g>
     </g>
     <g id="text_14">
      <!-- 250k -->
      <g style="fill: #555555" transform="translate(32.354375 505.743675) scale(0.1 -0.1)">
       <use xlink:href="#DejaVuSans-32"/>
       <use xlink:href="#DejaVuSans-35" x="63.623047"/>
       <use xlink:href="#DejaVuSans-30" x="127.246094"/>
       <use xlink:href="#DejaVuSans-6b" x="190.869141"/>
      </g>
     </g>
    </g>
    <g id="ytick_3">
     <g id="line2d_27">
      <path d="M 64.2325 425.347162 
L 967.0765 425.347162 
" clip-path="url(#p01d4a87305)" style="fill: none; stroke: #ffffff; stroke-width: 0.8; stroke-linecap: square"/>
     </g>
     <g id="line2d_28">
      <g>
       <use xlink:href="#m5f81a57d98" x="64.2325" y="425.347162" style="fill: #555555; stroke: #555555; stroke-width: 0.8"/>
      </g>
     </g>
     <g id="text_15">
      <!-- 500k -->
      <g style="fill: #555555" transform="translate(32.354375 429.146381) scale(0.1 -0.1)">
       <use xlink:href="#DejaVuSans-35"/>
       <use xlink:href="#DejaVuSans-30" x="63.623047"/>
       <use xlink:href="#DejaVuSans-30" x="127.246094"/>
       <use xlink:href="#DejaVuSans-6b" x="190.869141"/>
      </g>
     </g>
    </g>
    <g id="ytick_4">
     <g id="line2d_29">
      <path d="M 64.2325 348.749868 
L 967.0765 348.749868 
" clip-path="url(#p01d4a87305)" style="fill: none; stroke: #ffffff; stroke-width: 0.8; stroke-linecap: square"/>
     </g>
     <g id="line2d_30">
      <g>
       <use xlink:href="#m5f81a57d98" x="64.2325" y="348.749868" style="fill: #555555; stroke: #555555; stroke-width: 0.8"/>
      </g>
     </g>
     <g id="text_16">
      <!-- 750k -->
      <g style="fill: #555555" transform="translate(32.354375 352.549087) scale(0.1 -0.1)">
       <use xlink:href="#DejaVuSans-37"/>
       <use xlink:href="#DejaVuSans-35" x="63.623047"/>
       <use xlink:href="#DejaVuSans-30" x="127.246094"/>
       <use xlink:href="#DejaVuSans-6b" x="190.869141"/>
      </g>
     </g>
    </g>
    <g id="ytick_5">
     <g id="line2d_31">
      <path d="M 64.2325 272.152574 
L 967.0765 272.152574 
" clip-path="url(#p01d4a87305)" style="fill: none; stroke: #ffffff; stroke-width: 0.8; stroke-linecap: square"/>
     </g>
     <g id="line2d_32">
      <g>
       <use xlink:href="#m5f81a57d98" x="64.2325" y="272.152574" style="fill: #555555; stroke: #555555; stroke-width: 0.8"/>
      </g>
     </g>
     <g id="text_17">
      <!-- 1,000k -->
      <g style="fill: #555555" transform="translate(22.81375 275.951793) scale(0.1 -0.1)">
       <defs>
        <path id="DejaVuSans-2c" d="M 750 794 
L 1409 794 
L 1409 256 
L 897 -744 
L 494 -744 
L 750 256 
L 750 794 
z
" transform="scale(0.015625)"/>
       </defs>
       <use xlink:href="#DejaVuSans-31"/>
       <use xlink:href="#DejaVuSans-2c" x="63.623047"/>
       <use xlink:href="#DejaVuSans-30" x="95.410156"/>
       <use xlink:href="#DejaVuSans-30" x="159.033203"/>
       <use xlink:href="#DejaVuSans-30" x="222.65625"/>
       <use xlink:href="#DejaVuSans-6b" x="286.279297"/>
      </g>
     </g>
    </g>
    <g id="ytick_6">
     <g id="line2d_33">
      <path d="M 64.2325 195.55528 
L 967.0765 195.55528 
" clip-path="url(#p01d4a87305)" style="fill: none; stroke: #ffffff; stroke-width: 0.8; stroke-linecap: square"/>
     </g>
     <g id="line2d_34">
      <g>
       <use xlink:href="#m5f81a57d98" x="64.2325" y="195.55528" style="fill: #555555; stroke: #555555; stroke-width: 0.8"/>
      </g>
     </g>
     <g id="text_18">
      <!-- 1,250k -->
      <g style="fill: #555555" transform="translate(22.81375 199.354499) scale(0.1 -0.1)">
       <use xlink:href="#DejaVuSans-31"/>
       <use xlink:href="#DejaVuSans-2c" x="63.623047"/>
       <use xlink:href="#DejaVuSans-32" x="95.410156"/>
       <use xlink:href="#DejaVuSans-35" x="159.033203"/>
       <use xlink:href="#DejaVuSans-30" x="222.65625"/>
       <use xlink:href="#DejaVuSans-6b" x="286.279297"/>
      </g>
     </g>
    </g>
    <g id="ytick_7">
     <g id="line2d_35">
      <path d="M 64.2325 118.957986 
L 967.0765 118.957986 
" clip-path="url(#p01d4a87305)" style="fill: none; stroke: #ffffff; stroke-width: 0.8; stroke-linecap: square"/>
     </g>
     <g id="line2d_36">
      <g>
       <use xlink:href="#m5f81a57d98" x="64.2325" y="118.957986" style="fill: #555555; stroke: #555555; stroke-width: 0.8"/>
      </g>
     </g>
     <g id="text_19">
      <!-- 1,500k -->
      <g style="fill: #555555" transform="translate(22.81375 122.757205) scale(0.1 -0.1)">
       <use xlink:href="#DejaVuSans-31"/>
       <use xlink:href="#DejaVuSans-2c" x="63.623047"/>
       <use xlink:href="#DejaVuSans-35" x="95.410156"/>
       <use xlink:href="#DejaVuSans-30" x="159.033203"/>
       <use xlink:href="#DejaVuSans-30" x="222.65625"/>
       <use xlink:href="#DejaVuSans-6b" x="286.279297"/>
      </g>
     </g>
    </g>
    <g id="ytick_8">
     <g id="line2d_37">
      <path d="M 64.2325 42.360692 
L 967.0765 42.360692 
" clip-path="url(#p01d4a87305)" style="fill: none; stroke: #ffffff; stroke-width: 0.8; stroke-linecap: square"/>
     </g>
     <g id="line2d_38">
      <g>
       <use xlink:href="#m5f81a57d98" x="64.2325" y="42.360692" style="fill: #555555; stroke: #555555; stroke-width: 0.8"/>
      </g>
     </g>
     <g id="text_20">
      <!-- 1,750k -->
      <g style="fill: #555555" transform="translate(22.81375 46.159911) scale(0.1 -0.1)">
       <use xlink:href="#DejaVuSans-31"/>
       <use xlink:href="#DejaVuSans-2c" x="63.623047"/>
       <use xlink:href="#DejaVuSans-37" x="95.410156"/>
       <use xlink:href="#DejaVuSans-35" x="159.033203"/>
       <use xlink:href="#DejaVuSans-30" x="222.65625"/>
       <use xlink:href="#DejaVuSans-6b" x="286.279297"/>
      </g>
     </g>
    </g>
    <g id="text_21">
     <!-- Instances -->
     <g style="fill: #555555" transform="translate(16.318125 329.988) rotate(-90) scale(0.12 -0.12)">
      <defs>
       <path id="DejaVuSans-49" d="M 628 4666 
L 1259 4666 
L 1259 0 
L 628 0 
L 628 4666 
z
" transform="scale(0.015625)"/>
       <path id="DejaVuSans-6e" d="M 3513 2113 
L 3513 0 
L 2938 0 
L 2938 2094 
Q 2938 2591 2744 2837 
Q 2550 3084 2163 3084 
Q 1697 3084 1428 2787 
Q 1159 2491 1159 1978 
L 1159 0 
L 581 0 
L 581 3500 
L 1159 3500 
L 1159 2956 
Q 1366 3272 1645 3428 
Q 1925 3584 2291 3584 
Q 2894 3584 3203 3211 
Q 3513 2838 3513 2113 
z
" transform="scale(0.015625)"/>
       <path id="DejaVuSans-73" d="M 2834 3397 
L 2834 2853 
Q 2591 2978 2328 3040 
Q 2066 3103 1784 3103 
Q 1356 3103 1142 2972 
Q 928 2841 928 2578 
Q 928 2378 1081 2264 
Q 1234 2150 1697 2047 
L 1894 2003 
Q 2506 1872 2764 1633 
Q 3022 1394 3022 966 
Q 3022 478 2636 193 
Q 2250 -91 1575 -91 
Q 1294 -91 989 -36 
Q 684 19 347 128 
L 347 722 
Q 666 556 975 473 
Q 1284 391 1588 391 
Q 1994 391 2212 530 
Q 2431 669 2431 922 
Q 2431 1156 2273 1281 
Q 2116 1406 1581 1522 
L 1381 1569 
Q 847 1681 609 1914 
Q 372 2147 372 2553 
Q 372 3047 722 3315 
Q 1072 3584 1716 3584 
Q 2034 3584 2315 3537 
Q 2597 3491 2834 3397 
z
" transform="scale(0.015625)"/>
       <path id="DejaVuSans-63" d="M 3122 3366 
L 3122 2828 
Q 2878 2963 2633 3030 
Q 2388 3097 2138 3097 
Q 1578 3097 1268 2742 
Q 959 2388 959 1747 
Q 959 1106 1268 751 
Q 1578 397 2138 397 
Q 2388 397 2633 464 
Q 2878 531 3122 666 
L 3122 134 
Q 2881 22 2623 -34 
Q 2366 -91 2075 -91 
Q 1284 -91 818 406 
Q 353 903 353 1747 
Q 353 2603 823 3093 
Q 1294 3584 2113 3584 
Q 2378 3584 2631 3529 
Q 2884 3475 3122 3366 
z
" transform="scale(0.015625)"/>
      </defs>
      <use xlink:href="#DejaVuSans-49"/>
      <use xlink:href="#DejaVuSans-6e" x="29.492188"/>
      <use xlink:href="#DejaVuSans-73" x="92.871094"/>
      <use xlink:href="#DejaVuSans-74" x="144.970703"/>
      <use xlink:href="#DejaVuSans-61" x="184.179688"/>
      <use xlink:href="#DejaVuSans-6e" x="245.458984"/>
      <use xlink:href="#DejaVuSans-63" x="308.837891"/>
      <use xlink:href="#DejaVuSans-65" x="363.818359"/>
      <use xlink:href="#DejaVuSans-73" x="425.341797"/>
     </g>
    </g>
   </g>
   <g id="line2d_39">
    <path d="M 64.2325 393.438862 
L 73.352136 392.464309 
L 82.471773 391.489755 
L 91.591409 390.515202 
L 100.711045 389.540649 
L 109.830682 388.566095 
L 118.950318 387.591542 
L 128.069955 386.616988 
L 137.189591 385.642435 
L 146.309227 384.667882 
L 155.428864 383.693328 
L 164.5485 382.718775 
L 173.668136 381.744222 
L 182.787773 380.769668 
L 191.907409 379.795115 
L 201.027045 378.820561 
L 210.146682 377.846008 
L 219.266318 376.871455 
L 228.385955 375.896901 
L 237.505591 374.922348 
L 246.625227 373.947795 
L 255.744864 372.973241 
L 264.8645 371.998688 
L 273.984136 371.024134 
L 283.103773 370.049581 
L 292.223409 369.075028 
L 301.343045 368.100474 
L 310.462682 367.125921 
L 319.582318 366.151367 
L 328.701955 365.176814 
L 337.821591 364.202261 
L 346.941227 363.227707 
L 356.060864 362.253154 
L 365.1805 361.278601 
L 374.300136 360.304047 
L 383.419773 359.329494 
L 392.539409 358.35494 
L 401.659045 357.380387 
L 410.778682 356.405834 
L 419.898318 355.43128 
L 429.017955 354.456727 
L 438.137591 353.482174 
L 447.257227 352.50762 
L 456.376864 351.533067 
L 465.4965 350.558513 
L 474.616136 349.58396 
L 483.735773 348.609407 
L 492.855409 347.634853 
L 501.975045 346.6603 
L 511.094682 345.685747 
L 520.214318 344.711193 
L 529.333955 343.73664 
L 538.453591 342.762086 
L 547.573227 341.787533 
L 556.692864 340.81298 
L 565.8125 339.838426 
L 574.932136 338.863873 
L 584.051773 337.88932 
L 593.171409 336.914766 
L 602.291045 335.940213 
L 611.410682 334.965659 
L 620.530318 333.991106 
L 629.649955 333.016553 
L 638.769591 332.041999 
L 647.889227 331.067446 
L 657.008864 330.092893 
L 666.1285 329.118339 
L 675.248136 328.143786 
L 684.367773 327.169232 
L 693.487409 326.194679 
L 702.607045 325.220126 
L 711.726682 324.245572 
L 720.846318 323.271019 
L 729.965955 322.296465 
L 739.085591 321.321912 
L 748.205227 320.347359 
L 757.324864 319.372805 
L 766.4445 318.398252 
L 775.564136 317.423699 
L 784.683773 316.449145 
L 793.803409 315.474592 
L 802.923045 314.500038 
L 812.042682 313.525485 
L 821.162318 312.550932 
L 830.281955 311.576378 
L 839.401591 310.601825 
L 848.521227 309.627272 
L 857.640864 308.652718 
L 866.7605 307.678165 
L 875.880136 306.703611 
L 884.999773 305.729058 
L 894.119409 304.754505 
L 903.239045 303.779951 
L 912.358682 302.805398 
L 921.478318 301.830845 
L 930.597955 300.856291 
L 939.717591 299.881738 
L 948.837227 298.907184 
L 957.956864 297.932631 
L 967.0765 296.958078 
" clip-path="url(#p01d4a87305)" style="fill: none; stroke-dasharray: 1.5,2.475; stroke-dashoffset: 0; stroke: #4ac1fa; stroke-width: 1.5"/>
   </g>
   <g id="line2d_40">
    <path d="M 64.2325 478.499665 
L 73.352136 479.050109 
L 82.471773 479.600554 
L 91.591409 480.150999 
L 100.711045 480.701443 
L 109.830682 481.251888 
L 118.950318 481.802332 
L 128.069955 482.352777 
L 137.189591 482.903222 
L 146.309227 483.453666 
L 155.428864 484.004111 
L 164.5485 484.554556 
L 173.668136 485.105 
L 182.787773 485.655445 
L 191.907409 486.20589 
L 201.027045 486.756334 
L 210.146682 487.306779 
L 219.266318 487.857224 
L 228.385955 488.407668 
L 237.505591 488.958113 
L 246.625227 489.508558 
L 255.744864 490.059002 
L 264.8645 490.609447 
L 273.984136 491.159892 
L 283.103773 491.710336 
L 292.223409 492.260781 
L 301.343045 492.811226 
L 310.462682 493.36167 
L 319.582318 493.912115 
L 328.701955 494.46256 
L 337.821591 495.013004 
L 346.941227 495.563449 
L 356.060864 496.113894 
L 365.1805 496.664338 
L 374.300136 497.214783 
L 383.419773 497.765227 
L 392.539409 498.315672 
L 401.659045 498.866117 
L 410.778682 499.416561 
L 419.898318 499.967006 
L 429.017955 500.517451 
L 438.137591 501.067895 
L 447.257227 501.61834 
L 456.376864 502.168785 
L 465.4965 502.719229 
L 474.616136 503.269674 
L 483.735773 503.820119 
L 492.855409 504.370563 
L 501.975045 504.921008 
L 511.094682 505.471453 
L 520.214318 506.021897 
L 529.333955 506.572342 
L 538.453591 507.122787 
L 547.573227 507.673231 
L 556.692864 508.223676 
L 565.8125 508.774121 
L 574.932136 509.324565 
L 584.051773 509.87501 
L 593.171409 510.425455 
L 602.291045 510.975899 
L 611.410682 511.526344 
L 620.530318 512.076789 
L 629.649955 512.627233 
L 638.769591 513.177678 
L 647.889227 513.728122 
L 657.008864 514.278567 
L 666.1285 514.829012 
L 675.248136 515.379456 
L 684.367773 515.929901 
L 693.487409 516.480346 
L 702.607045 517.03079 
L 711.726682 517.581235 
L 720.846318 518.13168 
L 729.965955 518.682124 
L 739.085591 519.232569 
L 748.205227 519.783014 
L 757.324864 520.333458 
L 766.4445 520.883903 
L 775.564136 521.434348 
L 784.683773 521.984792 
L 793.803409 522.535237 
L 802.923045 523.085682 
L 812.042682 523.636126 
L 821.162318 524.186571 
L 830.281955 524.737016 
L 839.401591 525.28746 
L 848.521227 525.837905 
L 857.640864 526.38835 
L 866.7605 526.938794 
L 875.880136 527.489239 
L 884.999773 528.039684 
L 894.119409 528.590128 
L 903.239045 529.140573 
L 912.358682 529.691017 
L 921.478318 530.241462 
L 930.597955 530.791907 
L 939.717591 531.342351 
L 948.837227 531.892796 
L 957.956864 532.443241 
L 967.0765 532.993685 
" clip-path="url(#p01d4a87305)" style="fill: none; stroke-dasharray: 1.5,2.475; stroke-dashoffset: 0; stroke: #e9a942; stroke-width: 1.5"/>
   </g>
   <g id="line2d_41">
    <path d="M 64.2325 510.732969 
L 73.352136 510.392004 
L 82.471773 510.051039 
L 91.591409 509.710074 
L 100.711045 509.369109 
L 109.830682 509.028145 
L 118.950318 508.68718 
L 128.069955 508.346215 
L 137.189591 508.00525 
L 146.309227 507.664285 
L 155.428864 507.323321 
L 164.5485 506.982356 
L 173.668136 506.641391 
L 182.787773 506.300426 
L 191.907409 505.959461 
L 201.027045 505.618496 
L 210.146682 505.277532 
L 219.266318 504.936567 
L 228.385955 504.595602 
L 237.505591 504.254637 
L 246.625227 503.913672 
L 255.744864 503.572708 
L 264.8645 503.231743 
L 273.984136 502.890778 
L 283.103773 502.549813 
L 292.223409 502.208848 
L 301.343045 501.867883 
L 310.462682 501.526919 
L 319.582318 501.185954 
L 328.701955 500.844989 
L 337.821591 500.504024 
L 346.941227 500.163059 
L 356.060864 499.822095 
L 365.1805 499.48113 
L 374.300136 499.140165 
L 383.419773 498.7992 
L 392.539409 498.458235 
L 401.659045 498.11727 
L 410.778682 497.776306 
L 419.898318 497.435341 
L 429.017955 497.094376 
L 438.137591 496.753411 
L 447.257227 496.412446 
L 456.376864 496.071482 
L 465.4965 495.730517 
L 474.616136 495.389552 
L 483.735773 495.048587 
L 492.855409 494.707622 
L 501.975045 494.366657 
L 511.094682 494.025693 
L 520.214318 493.684728 
L 529.333955 493.343763 
L 538.453591 493.002798 
L 547.573227 492.661833 
L 556.692864 492.320869 
L 565.8125 491.979904 
L 574.932136 491.638939 
L 584.051773 491.297974 
L 593.171409 490.957009 
L 602.291045 490.616044 
L 611.410682 490.27508 
L 620.530318 489.934115 
L 629.649955 489.59315 
L 638.769591 489.252185 
L 647.889227 488.91122 
L 657.008864 488.570256 
L 666.1285 488.229291 
L 675.248136 487.888326 
L 684.367773 487.547361 
L 693.487409 487.206396 
L 702.607045 486.865431 
L 711.726682 486.524467 
L 720.846318 486.183502 
L 729.965955 485.842537 
L 739.085591 485.501572 
L 748.205227 485.160607 
L 757.324864 484.819643 
L 766.4445 484.478678 
L 775.564136 484.137713 
L 784.683773 483.796748 
L 793.803409 483.455783 
L 802.923045 483.114818 
L 812.042682 482.773854 
L 821.162318 482.432889 
L 830.281955 482.091924 
L 839.401591 481.750959 
L 848.521227 481.409994 
L 857.640864 481.06903 
L 866.7605 480.728065 
L 875.880136 480.3871 
L 884.999773 480.046135 
L 894.119409 479.70517 
L 903.239045 479.364205 
L 912.358682 479.023241 
L 921.478318 478.682276 
L 930.597955 478.341311 
L 939.717591 478.000346 
L 948.837227 477.659381 
L 957.956864 477.318417 
L 967.0765 476.977452 
" clip-path="url(#p01d4a87305)" style="fill: none; stroke-dasharray: 1.5,2.475; stroke-dashoffset: 0; stroke: #9a5689; stroke-width: 1.5"/>
   </g>
   <g id="line2d_42">
    <path d="M 64.2325 546.461983 
L 73.352136 546.369894 
L 82.471773 546.277805 
L 91.591409 546.185716 
L 100.711045 546.093627 
L 109.830682 546.001538 
L 118.950318 545.909449 
L 128.069955 545.81736 
L 137.189591 545.725271 
L 146.309227 545.633182 
L 155.428864 545.541093 
L 164.5485 545.449004 
L 173.668136 545.356915 
L 182.787773 545.264826 
L 191.907409 545.172738 
L 201.027045 545.080649 
L 210.146682 544.98856 
L 219.266318 544.896471 
L 228.385955 544.804382 
L 237.505591 544.712293 
L 246.625227 544.620204 
L 255.744864 544.528115 
L 264.8645 544.436026 
L 273.984136 544.343937 
L 283.103773 544.251848 
L 292.223409 544.159759 
L 301.343045 544.06767 
L 310.462682 543.975581 
L 319.582318 543.883492 
L 328.701955 543.791403 
L 337.821591 543.699314 
L 346.941227 543.607225 
L 356.060864 543.515136 
L 365.1805 543.423047 
L 374.300136 543.330958 
L 383.419773 543.238869 
L 392.539409 543.14678 
L 401.659045 543.054691 
L 410.778682 542.962602 
L 419.898318 542.870513 
L 429.017955 542.778424 
L 438.137591 542.686335 
L 447.257227 542.594246 
L 456.376864 542.502157 
L 465.4965 542.410068 
L 474.616136 542.31798 
L 483.735773 542.225891 
L 492.855409 542.133802 
L 501.975045 542.041713 
L 511.094682 541.949624 
L 520.214318 541.857535 
L 529.333955 541.765446 
L 538.453591 541.673357 
L 547.573227 541.581268 
L 556.692864 541.489179 
L 565.8125 541.39709 
L 574.932136 541.305001 
L 584.051773 541.212912 
L 593.171409 541.120823 
L 602.291045 541.028734 
L 611.410682 540.936645 
L 620.530318 540.844556 
L 629.649955 540.752467 
L 638.769591 540.660378 
L 647.889227 540.568289 
L 657.008864 540.4762 
L 666.1285 540.384111 
L 675.248136 540.292022 
L 684.367773 540.199933 
L 693.487409 540.107844 
L 702.607045 540.015755 
L 711.726682 539.923666 
L 720.846318 539.831577 
L 729.965955 539.739488 
L 739.085591 539.647399 
L 748.205227 539.55531 
L 757.324864 539.463222 
L 766.4445 539.371133 
L 775.564136 539.279044 
L 784.683773 539.186955 
L 793.803409 539.094866 
L 802.923045 539.002777 
L 812.042682 538.910688 
L 821.162318 538.818599 
L 830.281955 538.72651 
L 839.401591 538.634421 
L 848.521227 538.542332 
L 857.640864 538.450243 
L 866.7605 538.358154 
L 875.880136 538.266065 
L 884.999773 538.173976 
L 894.119409 538.081887 
L 903.239045 537.989798 
L 912.358682 537.897709 
L 921.478318 537.80562 
L 930.597955 537.713531 
L 939.717591 537.621442 
L 948.837227 537.529353 
L 957.956864 537.437264 
L 967.0765 537.345175 
" clip-path="url(#p01d4a87305)" style="fill: none; stroke-dasharray: 1.5,2.475; stroke-dashoffset: 0; stroke: #be503b; stroke-width: 1.5"/>
   </g>
   <g id="line2d_43">
    <path d="M 64.2325 380.366244 
L 73.352136 379.861787 
L 82.471773 379.35733 
L 91.591409 378.852874 
L 100.711045 378.348417 
L 109.830682 377.84396 
L 118.950318 377.339504 
L 128.069955 376.835047 
L 137.189591 376.33059 
L 146.309227 375.826134 
L 155.428864 375.321677 
L 164.5485 374.81722 
L 173.668136 374.312764 
L 182.787773 373.808307 
L 191.907409 373.30385 
L 201.027045 372.799394 
L 210.146682 372.294937 
L 219.266318 371.79048 
L 228.385955 371.286023 
L 237.505591 370.781567 
L 246.625227 370.27711 
L 255.744864 369.772653 
L 264.8645 369.268197 
L 273.984136 368.76374 
L 283.103773 368.259283 
L 292.223409 367.754827 
L 301.343045 367.25037 
L 310.462682 366.745913 
L 319.582318 366.241457 
L 328.701955 365.737 
L 337.821591 365.232543 
L 346.941227 364.728087 
L 356.060864 364.22363 
L 365.1805 363.719173 
L 374.300136 363.214716 
L 383.419773 362.71026 
L 392.539409 362.205803 
L 401.659045 361.701346 
L 410.778682 361.19689 
L 419.898318 360.692433 
L 429.017955 360.187976 
L 438.137591 359.68352 
L 447.257227 359.179063 
L 456.376864 358.674606 
L 465.4965 358.17015 
L 474.616136 357.665693 
L 483.735773 357.161236 
L 492.855409 356.65678 
L 501.975045 356.152323 
L 511.094682 355.647866 
L 520.214318 355.143409 
L 529.333955 354.638953 
L 538.453591 354.134496 
L 547.573227 353.630039 
L 556.692864 353.125583 
L 565.8125 352.621126 
L 574.932136 352.116669 
L 584.051773 351.612213 
L 593.171409 351.107756 
L 602.291045 350.603299 
L 611.410682 350.098843 
L 620.530318 349.594386 
L 629.649955 349.089929 
L 638.769591 348.585473 
L 647.889227 348.081016 
L 657.008864 347.576559 
L 666.1285 347.072102 
L 675.248136 346.567646 
L 684.367773 346.063189 
L 693.487409 345.558732 
L 702.607045 345.054276 
L 711.726682 344.549819 
L 720.846318 344.045362 
L 729.965955 343.540906 
L 739.085591 343.036449 
L 748.205227 342.531992 
L 757.324864 342.027536 
L 766.4445 341.523079 
L 775.564136 341.018622 
L 784.683773 340.514166 
L 793.803409 340.009709 
L 802.923045 339.505252 
L 812.042682 339.000796 
L 821.162318 338.496339 
L 830.281955 337.991882 
L 839.401591 337.487425 
L 848.521227 336.982969 
L 857.640864 336.478512 
L 866.7605 335.974055 
L 875.880136 335.469599 
L 884.999773 334.965142 
L 894.119409 334.460685 
L 903.239045 333.956229 
L 912.358682 333.451772 
L 921.478318 332.947315 
L 930.597955 332.442859 
L 939.717591 331.938402 
L 948.837227 331.433945 
L 957.956864 330.929489 
L 967.0765 330.425032 
" clip-path="url(#p01d4a87305)" style="fill: none; stroke-dasharray: 1.5,2.475; stroke-dashoffset: 0; stroke: #e2321d; stroke-width: 1.5"/>
   </g>
   <g id="line2d_44">
    <path d="M 64.2325 229.260422 
L 73.352136 227.53684 
L 82.471773 225.813258 
L 91.591409 224.089676 
L 100.711045 222.366094 
L 109.830682 220.642511 
L 118.950318 218.918929 
L 128.069955 217.195347 
L 137.189591 215.471765 
L 146.309227 213.748183 
L 155.428864 212.0246 
L 164.5485 210.301018 
L 173.668136 208.577436 
L 182.787773 206.853854 
L 191.907409 205.130272 
L 201.027045 203.40669 
L 210.146682 201.683107 
L 219.266318 199.959525 
L 228.385955 198.235943 
L 237.505591 196.512361 
L 246.625227 194.788779 
L 255.744864 193.065196 
L 264.8645 191.341614 
L 273.984136 189.618032 
L 283.103773 187.89445 
L 292.223409 186.170868 
L 301.343045 184.447286 
L 310.462682 182.723703 
L 319.582318 181.000121 
L 328.701955 179.276539 
L 337.821591 177.552957 
L 346.941227 175.829375 
L 356.060864 174.105792 
L 365.1805 172.38221 
L 374.300136 170.658628 
L 383.419773 168.935046 
L 392.539409 167.211464 
L 401.659045 165.487882 
L 410.778682 163.764299 
L 419.898318 162.040717 
L 429.017955 160.317135 
L 438.137591 158.593553 
L 447.257227 156.869971 
L 456.376864 155.146388 
L 465.4965 153.422806 
L 474.616136 151.699224 
L 483.735773 149.975642 
L 492.855409 148.25206 
L 501.975045 146.528478 
L 511.094682 144.804895 
L 520.214318 143.081313 
L 529.333955 141.357731 
L 538.453591 139.634149 
L 547.573227 137.910567 
L 556.692864 136.186984 
L 565.8125 134.463402 
L 574.932136 132.73982 
L 584.051773 131.016238 
L 593.171409 129.292656 
L 602.291045 127.569074 
L 611.410682 125.845491 
L 620.530318 124.121909 
L 629.649955 122.398327 
L 638.769591 120.674745 
L 647.889227 118.951163 
L 657.008864 117.22758 
L 666.1285 115.503998 
L 675.248136 113.780416 
L 684.367773 112.056834 
L 693.487409 110.333252 
L 702.607045 108.609669 
L 711.726682 106.886087 
L 720.846318 105.162505 
L 729.965955 103.438923 
L 739.085591 101.715341 
L 748.205227 99.991759 
L 757.324864 98.268176 
L 766.4445 96.544594 
L 775.564136 94.821012 
L 784.683773 93.09743 
L 793.803409 91.373848 
L 802.923045 89.650265 
L 812.042682 87.926683 
L 821.162318 86.203101 
L 830.281955 84.479519 
L 839.401591 82.755937 
L 848.521227 81.032355 
L 857.640864 79.308772 
L 866.7605 77.58519 
L 875.880136 75.861608 
L 884.999773 74.138026 
L 894.119409 72.414444 
L 903.239045 70.690861 
L 912.358682 68.967279 
L 921.478318 67.243697 
L 930.597955 65.520115 
L 939.717591 63.796533 
L 948.837227 62.072951 
L 957.956864 60.349368 
L 967.0765 58.625786 
" clip-path="url(#p01d4a87305)" style="fill: none; stroke-dasharray: 1.5,2.475; stroke-dashoffset: 0; stroke: #48b585; stroke-width: 1.5"/>
   </g>
   <g id="line2d_45">
    <path d="M 64.2325 402.296279 
L 81.935324 398.7247 
L 99.638147 393.293952 
L 117.340971 394.160421 
L 135.043794 387.107342 
L 152.746618 383.597041 
L 170.449441 380.246675 
L 188.152265 378.905304 
L 205.855088 376.407006 
L 223.557912 372.358073 
L 241.260735 369.879998 
L 258.963559 375.349044 
L 276.666382 375.469762 
L 294.369206 367.961389 
L 312.072029 362.366722 
L 329.774853 365.955765 
L 347.477676 363.378419 
L 365.1805 358.040507 
L 382.883324 363.468804 
L 400.586147 358.698631 
L 418.288971 353.981157 
L 435.991794 350.786743 
L 453.694618 352.096251 
L 471.397441 358.783194 
L 489.100265 358.10301 
L 506.803088 349.53116 
L 524.505912 343.562393 
L 542.208735 340.326004 
L 559.911559 338.398816 
L 577.614382 333.089092 
L 595.317206 333.068564 
L 613.020029 333.942692 
L 630.722853 331.047621 
L 648.425676 329.209286 
L 666.1285 328.014061 
L 683.831324 314.50812 
L 701.534147 312.359106 
L 719.236971 309.366297 
L 736.939794 314.015446 
L 754.642618 314.145049 
L 772.345441 303.332881 
L 790.048265 327.024731 
L 807.751088 309.246499 
L 825.453912 307.232296 
L 843.156735 302.519724 
L 860.859559 302.142866 
L 878.562382 293.214685 
L 896.265206 310.713184 
L 913.968029 298.869404 
L 931.670853 287.080468 
L 949.373676 346.52487 
L 967.0765 336.418929 
" clip-path="url(#p01d4a87305)" style="fill: none; stroke: #4ac1fa; stroke-width: 1.5; stroke-linecap: square"/>
   </g>
   <g id="line2d_46">
    <path d="M 64.2325 491.0897 
L 81.935324 487.537424 
L 99.638147 493.87968 
L 117.340971 498.393099 
L 135.043794 481.356329 
L 152.746618 479.029303 
L 170.449441 493.366478 
L 188.152265 492.691197 
L 205.855088 489.509651 
L 223.557912 483.167702 
L 241.260735 488.050932 
L 258.963559 504.112772 
L 276.666382 488.719167 
L 294.369206 491.510985 
L 312.072029 490.185546 
L 329.774853 496.996271 
L 347.477676 493.546635 
L 365.1805 499.468219 
L 382.883324 493.723728 
L 400.586147 510.14006 
L 418.288971 493.57421 
L 435.991794 491.063657 
L 453.694618 487.094998 
L 471.397441 505.142853 
L 489.100265 503.799336 
L 506.803088 498.61278 
L 524.505912 501.014871 
L 542.208735 493.311635 
L 559.911559 504.647115 
L 577.614382 502.010023 
L 595.317206 498.522702 
L 613.020029 502.54406 
L 630.722853 501.008743 
L 648.425676 501.783602 
L 666.1285 502.144222 
L 683.831324 500.524955 
L 701.534147 502.011862 
L 719.236971 497.314303 
L 736.939794 497.245978 
L 754.642618 515.996996 
L 772.345441 519.801124 
L 790.048265 531.004857 
L 807.751088 537.117321 
L 825.453912 535.002316 
L 843.156735 536.918168 
L 860.859559 536.792242 
L 878.562382 536.839732 
L 896.265206 540.392008 
L 913.968029 539.099965 
L 931.670853 539.715194 
L 949.373676 550.774925 
L 967.0765 549.525469 
" clip-path="url(#p01d4a87305)" style="fill: none; stroke: #e9a942; stroke-width: 1.5; stroke-linecap: square"/>
   </g>
   <g id="line2d_47">
    <path d="M 64.2325 514.876837 
L 81.935324 512.426949 
L 99.638147 509.956227 
L 117.340971 514.96906 
L 135.043794 513.368789 
L 152.746618 511.545467 
L 170.449441 509.184739 
L 188.152265 509.619811 
L 205.855088 507.580791 
L 223.557912 507.771059 
L 241.260735 506.040573 
L 258.963559 504.603301 
L 276.666382 505.015701 
L 294.369206 504.235634 
L 312.072029 502.97086 
L 329.774853 499.52919 
L 347.477676 497.944239 
L 365.1805 497.105345 
L 382.883324 486.648589 
L 400.586147 492.072903 
L 418.288971 494.326702 
L 435.991794 495.02435 
L 453.694618 494.853079 
L 471.397441 497.12189 
L 489.100265 494.338345 
L 506.803088 488.534108 
L 524.505912 491.225431 
L 542.208735 490.491322 
L 559.911559 490.526557 
L 577.614382 488.559538 
L 595.317206 487.794791 
L 613.020029 490.836623 
L 630.722853 486.632963 
L 648.425676 481.065872 
L 666.1285 484.464034 
L 683.831324 482.74274 
L 701.534147 483.432116 
L 719.236971 483.249201 
L 736.939794 484.031413 
L 754.642618 482.722212 
L 772.345441 481.148597 
L 790.048265 488.529819 
L 807.751088 478.958221 
L 825.453912 477.677208 
L 843.156735 482.287446 
L 860.859559 473.954886 
L 878.562382 479.064232 
L 896.265206 482.563809 
L 913.968029 477.520949 
L 931.670853 479.239793 
L 949.373676 502.35226 
L 967.0765 497.734362 
" clip-path="url(#p01d4a87305)" style="fill: none; stroke: #9a5689; stroke-width: 1.5; stroke-linecap: square"/>
   </g>
   <g id="line2d_48">
    <path d="M 64.2325 546.885008 
L 81.935324 546.593938 
L 99.638147 546.402138 
L 117.340971 546.35189 
L 135.043794 546.34086 
L 152.746618 545.665579 
L 170.449441 545.020936 
L 188.152265 545.287801 
L 205.855088 544.589233 
L 223.557912 544.707193 
L 241.260735 544.662767 
L 258.963559 544.582493 
L 276.666382 544.135165 
L 294.369206 544.141905 
L 312.072029 543.79446 
L 329.774853 544.039878 
L 347.477676 543.465398 
L 365.1805 543.087007 
L 382.883324 542.624666 
L 400.586147 542.841896 
L 418.288971 542.403147 
L 435.991794 542.917574 
L 453.694618 543.099876 
L 471.397441 543.086088 
L 489.100265 542.595559 
L 506.803088 541.400641 
L 524.505912 541.13347 
L 542.208735 541.620935 
L 559.911559 541.246528 
L 577.614382 541.277779 
L 595.317206 541.306273 
L 613.020029 541.19628 
L 630.722853 540.759062 
L 648.425676 540.71341 
L 666.1285 540.440724 
L 683.831324 540.470137 
L 701.534147 540.351258 
L 719.236971 540.141688 
L 736.939794 539.706616 
L 754.642618 539.530442 
L 772.345441 538.222466 
L 790.048265 540.409472 
L 807.751088 538.927774 
L 825.453912 538.641607 
L 843.156735 536.141471 
L 860.859559 536.14239 
L 878.562382 537.318925 
L 896.265206 537.371624 
L 913.968029 534.233892 
L 931.670853 532.812859 
L 949.373676 544.9281 
L 967.0765 543.217836 
" clip-path="url(#p01d4a87305)" style="fill: none; stroke: #be503b; stroke-width: 1.5; stroke-linecap: square"/>
   </g>
   <g id="line2d_49">
    <path d="M 64.2325 401.94485 
L 81.935324 396.761665 
L 99.638147 392.552184 
L 117.340971 393.289969 
L 135.043794 391.823284 
L 152.746618 375.961823 
L 170.449441 382.330428 
L 188.152265 378.734645 
L 205.855088 377.309322 
L 223.557912 376.145656 
L 241.260735 373.545944 
L 258.963559 354.505082 
L 276.666382 356.151618 
L 294.369206 352.990294 
L 312.072029 350.858132 
L 329.774853 351.417599 
L 347.477676 352.310417 
L 365.1805 355.029621 
L 382.883324 356.435334 
L 400.586147 361.513428 
L 418.288971 347.429943 
L 435.991794 346.114308 
L 453.694618 352.422861 
L 471.397441 368.528209 
L 489.100265 365.506905 
L 506.803088 351.583968 
L 524.505912 350.02506 
L 542.208735 353.000099 
L 559.911559 350.276605 
L 577.614382 349.662295 
L 595.317206 349.066368 
L 613.020029 339.897672 
L 630.722853 341.914019 
L 648.425676 340.867087 
L 666.1285 346.379335 
L 683.831324 347.537486 
L 701.534147 346.873234 
L 719.236971 343.618462 
L 736.939794 343.204224 
L 754.642618 343.240378 
L 772.345441 338.644234 
L 790.048265 345.425852 
L 807.751088 330.187586 
L 825.453912 331.577368 
L 843.156735 328.746332 
L 860.859559 328.166337 
L 878.562382 325.816638 
L 896.265206 330.388578 
L 913.968029 322.008527 
L 931.670853 324.929642 
L 949.373676 389.763736 
L 967.0765 376.158525 
" clip-path="url(#p01d4a87305)" style="fill: none; stroke: #e2321d; stroke-width: 1.5; stroke-linecap: square"/>
   </g>
   <g id="line2d_50">
    <path d="M 64.2325 254.035169 
L 81.935324 267.823601 
L 99.638147 244.48318 
L 117.340971 247.411648 
L 135.043794 229.657927 
L 152.746618 211.414903 
L 170.449441 220.352275 
L 188.152265 208.671188 
L 205.855088 200.161841 
L 223.557912 195.649648 
L 241.260735 184.753223 
L 258.963559 208.809063 
L 276.666382 185.821296 
L 294.369206 174.349472 
L 312.072029 164.730078 
L 329.774853 176.607867 
L 347.477676 155.182378 
L 365.1805 154.013504 
L 382.883324 141.763758 
L 400.586147 167.458473 
L 418.288971 129.186789 
L 435.991794 132.641633 
L 453.694618 130.113003 
L 471.397441 177.025782 
L 489.100265 165.738405 
L 506.803088 136.073805 
L 524.505912 136.895234 
L 542.208735 122.619643 
L 559.911559 131.071082 
L 577.614382 125.38021 
L 595.317206 120.25248 
L 613.020029 126.238099 
L 630.722853 122.669891 
L 648.425676 118.380749 
L 666.1285 121.490905 
L 683.831324 103.337653 
L 701.534147 107.965049 
L 719.236971 101.605022 
L 736.939794 76.470999 
L 754.642618 93.165226 
L 772.345441 89.51705 
L 790.048265 96.21962 
L 807.751088 78.920887 
L 825.453912 83.926673 
L 843.156735 74.280929 
L 860.859559 70.800348 
L 878.562382 56.762822 
L 896.265206 49.21952 
L 913.968029 55.658289 
L 931.670853 57.619179 
L 949.373676 171.579408 
L 967.0765 129.064539 
" clip-path="url(#p01d4a87305)" style="fill: none; stroke: #48b585; stroke-width: 6; stroke-linecap: square"/>
   </g>
   <g id="patch_3">
    <path d="M 64.2325 578.54175 
L 64.2325 24.14175 
" style="fill: none; stroke: #ffffff; stroke-linejoin: miter; stroke-linecap: square"/>
   </g>
   <g id="patch_4">
    <path d="M 967.0765 578.54175 
L 967.0765 24.14175 
" style="fill: none; stroke: #ffffff; stroke-linejoin: miter; stroke-linecap: square"/>
   </g>
   <g id="patch_5">
    <path d="M 64.2325 578.54175 
L 967.0765 578.54175 
" style="fill: none; stroke: #ffffff; stroke-linejoin: miter; stroke-linecap: square"/>
   </g>
   <g id="patch_6">
    <path d="M 64.2325 24.14175 
L 967.0765 24.14175 
" style="fill: none; stroke: #ffffff; stroke-linejoin: miter; stroke-linecap: square"/>
   </g>
   <g id="text_22">
    <!-- Enterprise Linux Instances by Distribution (System Age &gt; 1 Week) -->
    <g transform="translate(64.2325 18.14175) scale(0.144 -0.144)">
     <defs>
      <path id="DejaVuSans-45" d="M 628 4666 
L 3578 4666 
L 3578 4134 
L 1259 4134 
L 1259 2753 
L 3481 2753 
L 3481 2222 
L 1259 2222 
L 1259 531 
L 3634 531 
L 3634 0 
L 628 0 
L 628 4666 
z
" transform="scale(0.015625)"/>
      <path id="DejaVuSans-72" d="M 2631 2963 
Q 2534 3019 2420 3045 
Q 2306 3072 2169 3072 
Q 1681 3072 1420 2755 
Q 1159 2438 1159 1844 
L 1159 0 
L 581 0 
L 581 3500 
L 1159 3500 
L 1159 2956 
Q 1341 3275 1631 3429 
Q 1922 3584 2338 3584 
Q 2397 3584 2469 3576 
Q 2541 3569 2628 3553 
L 2631 2963 
z
" transform="scale(0.015625)"/>
      <path id="DejaVuSans-70" d="M 1159 525 
L 1159 -1331 
L 581 -1331 
L 581 3500 
L 1159 3500 
L 1159 2969 
Q 1341 3281 1617 3432 
Q 1894 3584 2278 3584 
Q 2916 3584 3314 3078 
Q 3713 2572 3713 1747 
Q 3713 922 3314 415 
Q 2916 -91 2278 -91 
Q 1894 -91 1617 61 
Q 1341 213 1159 525 
z
M 3116 1747 
Q 3116 2381 2855 2742 
Q 2594 3103 2138 3103 
Q 1681 3103 1420 2742 
Q 1159 2381 1159 1747 
Q 1159 1113 1420 752 
Q 1681 391 2138 391 
Q 2594 391 2855 752 
Q 3116 1113 3116 1747 
z
" transform="scale(0.015625)"/>
      <path id="DejaVuSans-69" d="M 603 3500 
L 1178 3500 
L 1178 0 
L 603 0 
L 603 3500 
z
M 603 4863 
L 1178 4863 
L 1178 4134 
L 603 4134 
L 603 4863 
z
" transform="scale(0.015625)"/>
      <path id="DejaVuSans-20" transform="scale(0.015625)"/>
      <path id="DejaVuSans-4c" d="M 628 4666 
L 1259 4666 
L 1259 531 
L 3531 531 
L 3531 0 
L 628 0 
L 628 4666 
z
" transform="scale(0.015625)"/>
      <path id="DejaVuSans-75" d="M 544 1381 
L 544 3500 
L 1119 3500 
L 1119 1403 
Q 1119 906 1312 657 
Q 1506 409 1894 409 
Q 2359 409 2629 706 
Q 2900 1003 2900 1516 
L 2900 3500 
L 3475 3500 
L 3475 0 
L 2900 0 
L 2900 538 
Q 2691 219 2414 64 
Q 2138 -91 1772 -91 
Q 1169 -91 856 284 
Q 544 659 544 1381 
z
M 1991 3584 
L 1991 3584 
z
" transform="scale(0.015625)"/>
      <path id="DejaVuSans-78" d="M 3513 3500 
L 2247 1797 
L 3578 0 
L 2900 0 
L 1881 1375 
L 863 0 
L 184 0 
L 1544 1831 
L 300 3500 
L 978 3500 
L 1906 2253 
L 2834 3500 
L 3513 3500 
z
" transform="scale(0.015625)"/>
      <path id="DejaVuSans-62" d="M 3116 1747 
Q 3116 2381 2855 2742 
Q 2594 3103 2138 3103 
Q 1681 3103 1420 2742 
Q 1159 2381 1159 1747 
Q 1159 1113 1420 752 
Q 1681 391 2138 391 
Q 2594 391 2855 752 
Q 3116 1113 3116 1747 
z
M 1159 2969 
Q 1341 3281 1617 3432 
Q 1894 3584 2278 3584 
Q 2916 3584 3314 3078 
Q 3713 2572 3713 1747 
Q 3713 922 3314 415 
Q 2916 -91 2278 -91 
Q 1894 -91 1617 61 
Q 1341 213 1159 525 
L 1159 0 
L 581 0 
L 581 4863 
L 1159 4863 
L 1159 2969 
z
" transform="scale(0.015625)"/>
      <path id="DejaVuSans-79" d="M 2059 -325 
Q 1816 -950 1584 -1140 
Q 1353 -1331 966 -1331 
L 506 -1331 
L 506 -850 
L 844 -850 
Q 1081 -850 1212 -737 
Q 1344 -625 1503 -206 
L 1606 56 
L 191 3500 
L 800 3500 
L 1894 763 
L 2988 3500 
L 3597 3500 
L 2059 -325 
z
" transform="scale(0.015625)"/>
      <path id="DejaVuSans-6f" d="M 1959 3097 
Q 1497 3097 1228 2736 
Q 959 2375 959 1747 
Q 959 1119 1226 758 
Q 1494 397 1959 397 
Q 2419 397 2687 759 
Q 2956 1122 2956 1747 
Q 2956 2369 2687 2733 
Q 2419 3097 1959 3097 
z
M 1959 3584 
Q 2709 3584 3137 3096 
Q 3566 2609 3566 1747 
Q 3566 888 3137 398 
Q 2709 -91 1959 -91 
Q 1206 -91 779 398 
Q 353 888 353 1747 
Q 353 2609 779 3096 
Q 1206 3584 1959 3584 
z
" transform="scale(0.015625)"/>
      <path id="DejaVuSans-28" d="M 1984 4856 
Q 1566 4138 1362 3434 
Q 1159 2731 1159 2009 
Q 1159 1288 1364 580 
Q 1569 -128 1984 -844 
L 1484 -844 
Q 1016 -109 783 600 
Q 550 1309 550 2009 
Q 550 2706 781 3412 
Q 1013 4119 1484 4856 
L 1984 4856 
z
" transform="scale(0.015625)"/>
      <path id="DejaVuSans-53" d="M 3425 4513 
L 3425 3897 
Q 3066 4069 2747 4153 
Q 2428 4238 2131 4238 
Q 1616 4238 1336 4038 
Q 1056 3838 1056 3469 
Q 1056 3159 1242 3001 
Q 1428 2844 1947 2747 
L 2328 2669 
Q 3034 2534 3370 2195 
Q 3706 1856 3706 1288 
Q 3706 609 3251 259 
Q 2797 -91 1919 -91 
Q 1588 -91 1214 -16 
Q 841 59 441 206 
L 441 856 
Q 825 641 1194 531 
Q 1563 422 1919 422 
Q 2459 422 2753 634 
Q 3047 847 3047 1241 
Q 3047 1584 2836 1778 
Q 2625 1972 2144 2069 
L 1759 2144 
Q 1053 2284 737 2584 
Q 422 2884 422 3419 
Q 422 4038 858 4394 
Q 1294 4750 2059 4750 
Q 2388 4750 2728 4690 
Q 3069 4631 3425 4513 
z
" transform="scale(0.015625)"/>
      <path id="DejaVuSans-6d" d="M 3328 2828 
Q 3544 3216 3844 3400 
Q 4144 3584 4550 3584 
Q 5097 3584 5394 3201 
Q 5691 2819 5691 2113 
L 5691 0 
L 5113 0 
L 5113 2094 
Q 5113 2597 4934 2840 
Q 4756 3084 4391 3084 
Q 3944 3084 3684 2787 
Q 3425 2491 3425 1978 
L 3425 0 
L 2847 0 
L 2847 2094 
Q 2847 2600 2669 2842 
Q 2491 3084 2119 3084 
Q 1678 3084 1418 2786 
Q 1159 2488 1159 1978 
L 1159 0 
L 581 0 
L 581 3500 
L 1159 3500 
L 1159 2956 
Q 1356 3278 1631 3431 
Q 1906 3584 2284 3584 
Q 2666 3584 2933 3390 
Q 3200 3197 3328 2828 
z
" transform="scale(0.015625)"/>
      <path id="DejaVuSans-41" d="M 2188 4044 
L 1331 1722 
L 3047 1722 
L 2188 4044 
z
M 1831 4666 
L 2547 4666 
L 4325 0 
L 3669 0 
L 3244 1197 
L 1141 1197 
L 716 0 
L 50 0 
L 1831 4666 
z
" transform="scale(0.015625)"/>
      <path id="DejaVuSans-67" d="M 2906 1791 
Q 2906 2416 2648 2759 
Q 2391 3103 1925 3103 
Q 1463 3103 1205 2759 
Q 947 2416 947 1791 
Q 947 1169 1205 825 
Q 1463 481 1925 481 
Q 2391 481 2648 825 
Q 2906 1169 2906 1791 
z
M 3481 434 
Q 3481 -459 3084 -895 
Q 2688 -1331 1869 -1331 
Q 1566 -1331 1297 -1286 
Q 1028 -1241 775 -1147 
L 775 -588 
Q 1028 -725 1275 -790 
Q 1522 -856 1778 -856 
Q 2344 -856 2625 -561 
Q 2906 -266 2906 331 
L 2906 616 
Q 2728 306 2450 153 
Q 2172 0 1784 0 
Q 1141 0 747 490 
Q 353 981 353 1791 
Q 353 2603 747 3093 
Q 1141 3584 1784 3584 
Q 2172 3584 2450 3431 
Q 2728 3278 2906 2969 
L 2906 3500 
L 3481 3500 
L 3481 434 
z
" transform="scale(0.015625)"/>
      <path id="DejaVuSans-3e" d="M 678 3150 
L 678 3719 
L 4684 2266 
L 4684 1747 
L 678 294 
L 678 863 
L 3897 2003 
L 678 3150 
z
" transform="scale(0.015625)"/>
      <path id="DejaVuSans-57" d="M 213 4666 
L 850 4666 
L 1831 722 
L 2809 4666 
L 3519 4666 
L 4500 722 
L 5478 4666 
L 6119 4666 
L 4947 0 
L 4153 0 
L 3169 4050 
L 2175 0 
L 1381 0 
L 213 4666 
z
" transform="scale(0.015625)"/>
      <path id="DejaVuSans-29" d="M 513 4856 
L 1013 4856 
Q 1481 4119 1714 3412 
Q 1947 2706 1947 2009 
Q 1947 1309 1714 600 
Q 1481 -109 1013 -844 
L 513 -844 
Q 928 -128 1133 580 
Q 1338 1288 1338 2009 
Q 1338 2731 1133 3434 
Q 928 4138 513 4856 
z
" transform="scale(0.015625)"/>
     </defs>
     <use xlink:href="#DejaVuSans-45"/>
     <use xlink:href="#DejaVuSans-6e" x="63.183594"/>
     <use xlink:href="#DejaVuSans-74" x="126.5625"/>
     <use xlink:href="#DejaVuSans-65" x="165.771484"/>
     <use xlink:href="#DejaVuSans-72" x="227.294922"/>
     <use xlink:href="#DejaVuSans-70" x="268.408203"/>
     <use xlink:href="#DejaVuSans-72" x="331.884766"/>
     <use xlink:href="#DejaVuSans-69" x="372.998047"/>
     <use xlink:href="#DejaVuSans-73" x="400.78125"/>
     <use xlink:href="#DejaVuSans-65" x="452.880859"/>
     <use xlink:href="#DejaVuSans-20" x="514.404297"/>
     <use xlink:href="#DejaVuSans-4c" x="546.191406"/>
     <use xlink:href="#DejaVuSans-69" x="601.904297"/>
     <use xlink:href="#DejaVuSans-6e" x="629.6875"/>
     <use xlink:href="#DejaVuSans-75" x="693.066406"/>
     <use xlink:href="#DejaVuSans-78" x="756.445312"/>
     <use xlink:href="#DejaVuSans-20" x="815.625"/>
     <use xlink:href="#DejaVuSans-49" x="847.412109"/>
     <use xlink:href="#DejaVuSans-6e" x="876.904297"/>
     <use xlink:href="#DejaVuSans-73" x="940.283203"/>
     <use xlink:href="#DejaVuSans-74" x="992.382812"/>
     <use xlink:href="#DejaVuSans-61" x="1031.591797"/>
     <use xlink:href="#DejaVuSans-6e" x="1092.871094"/>
     <use xlink:href="#DejaVuSans-63" x="1156.25"/>
     <use xlink:href="#DejaVuSans-65" x="1211.230469"/>
     <use xlink:href="#DejaVuSans-73" x="1272.753906"/>
     <use xlink:href="#DejaVuSans-20" x="1324.853516"/>
     <use xlink:href="#DejaVuSans-62" x="1356.640625"/>
     <use xlink:href="#DejaVuSans-79" x="1420.117188"/>
     <use xlink:href="#DejaVuSans-20" x="1479.296875"/>
     <use xlink:href="#DejaVuSans-44" x="1511.083984"/>
     <use xlink:href="#DejaVuSans-69" x="1588.085938"/>
     <use xlink:href="#DejaVuSans-73" x="1615.869141"/>
     <use xlink:href="#DejaVuSans-74" x="1667.96875"/>
     <use xlink:href="#DejaVuSans-72" x="1707.177734"/>
     <use xlink:href="#DejaVuSans-69" x="1748.291016"/>
     <use xlink:href="#DejaVuSans-62" x="1776.074219"/>
     <use xlink:href="#DejaVuSans-75" x="1839.550781"/>
     <use xlink:href="#DejaVuSans-74" x="1902.929688"/>
     <use xlink:href="#DejaVuSans-69" x="1942.138672"/>
     <use xlink:href="#DejaVuSans-6f" x="1969.921875"/>
     <use xlink:href="#DejaVuSans-6e" x="2031.103516"/>
     <use xlink:href="#DejaVuSans-20" x="2094.482422"/>
     <use xlink:href="#DejaVuSans-28" x="2126.269531"/>
     <use xlink:href="#DejaVuSans-53" x="2165.283203"/>
     <use xlink:href="#DejaVuSans-79" x="2228.759766"/>
     <use xlink:href="#DejaVuSans-73" x="2287.939453"/>
     <use xlink:href="#DejaVuSans-74" x="2340.039062"/>
     <use xlink:href="#DejaVuSans-65" x="2379.248047"/>
     <use xlink:href="#DejaVuSans-6d" x="2440.771484"/>
     <use xlink:href="#DejaVuSans-20" x="2538.183594"/>
     <use xlink:href="#DejaVuSans-41" x="2569.970703"/>
     <use xlink:href="#DejaVuSans-67" x="2638.378906"/>
     <use xlink:href="#DejaVuSans-65" x="2701.855469"/>
     <use xlink:href="#DejaVuSans-20" x="2763.378906"/>
     <use xlink:href="#DejaVuSans-3e" x="2795.166016"/>
     <use xlink:href="#DejaVuSans-20" x="2878.955078"/>
     <use xlink:href="#DejaVuSans-31" x="2910.742188"/>
     <use xlink:href="#DejaVuSans-20" x="2974.365234"/>
     <use xlink:href="#DejaVuSans-57" x="3006.152344"/>
     <use xlink:href="#DejaVuSans-65" x="3099.154297"/>
     <use xlink:href="#DejaVuSans-65" x="3160.677734"/>
     <use xlink:href="#DejaVuSans-6b" x="3222.201172"/>
     <use xlink:href="#DejaVuSans-29" x="3280.111328"/>
    </g>
   </g>
   <g id="text_23">
    <!-- 2025-07-17 14:16 UTC -->
    <g transform="translate(804.1945 18.14175) scale(0.144 -0.144)">
     <defs>
      <path id="DejaVuSans-3a" d="M 750 794 
L 1409 794 
L 1409 0 
L 750 0 
L 750 794 
z
M 750 3309 
L 1409 3309 
L 1409 2516 
L 750 2516 
L 750 3309 
z
" transform="scale(0.015625)"/>
      <path id="DejaVuSans-55" d="M 556 4666 
L 1191 4666 
L 1191 1831 
Q 1191 1081 1462 751 
Q 1734 422 2344 422 
Q 2950 422 3222 751 
Q 3494 1081 3494 1831 
L 3494 4666 
L 4128 4666 
L 4128 1753 
Q 4128 841 3676 375 
Q 3225 -91 2344 -91 
Q 1459 -91 1007 375 
Q 556 841 556 1753 
L 556 4666 
z
" transform="scale(0.015625)"/>
      <path id="DejaVuSans-54" d="M -19 4666 
L 3928 4666 
L 3928 4134 
L 2272 4134 
L 2272 0 
L 1638 0 
L 1638 4134 
L -19 4134 
L -19 4666 
z
" transform="scale(0.015625)"/>
      <path id="DejaVuSans-43" d="M 4122 4306 
L 4122 3641 
Q 3803 3938 3442 4084 
Q 3081 4231 2675 4231 
Q 1875 4231 1450 3742 
Q 1025 3253 1025 2328 
Q 1025 1406 1450 917 
Q 1875 428 2675 428 
Q 3081 428 3442 575 
Q 3803 722 4122 1019 
L 4122 359 
Q 3791 134 3420 21 
Q 3050 -91 2638 -91 
Q 1578 -91 968 557 
Q 359 1206 359 2328 
Q 359 3453 968 4101 
Q 1578 4750 2638 4750 
Q 3056 4750 3426 4639 
Q 3797 4528 4122 4306 
z
" transform="scale(0.015625)"/>
     </defs>
     <use xlink:href="#DejaVuSans-32"/>
     <use xlink:href="#DejaVuSans-30" x="63.623047"/>
     <use xlink:href="#DejaVuSans-32" x="127.246094"/>
     <use xlink:href="#DejaVuSans-35" x="190.869141"/>
     <use xlink:href="#DejaVuSans-2d" x="254.492188"/>
     <use xlink:href="#DejaVuSans-30" x="290.576172"/>
     <use xlink:href="#DejaVuSans-37" x="354.199219"/>
     <use xlink:href="#DejaVuSans-2d" x="417.822266"/>
     <use xlink:href="#DejaVuSans-31" x="453.90625"/>
     <use xlink:href="#DejaVuSans-37" x="517.529297"/>
     <use xlink:href="#DejaVuSans-20" x="581.152344"/>
     <use xlink:href="#DejaVuSans-31" x="612.939453"/>
     <use xlink:href="#DejaVuSans-34" x="676.5625"/>
     <use xlink:href="#DejaVuSans-3a" x="740.185547"/>
     <use xlink:href="#DejaVuSans-31" x="773.876953"/>
     <use xlink:href="#DejaVuSans-36" x="837.5"/>
     <use xlink:href="#DejaVuSans-20" x="901.123047"/>
     <use xlink:href="#DejaVuSans-55" x="932.910156"/>
     <use xlink:href="#DejaVuSans-54" x="1006.103516"/>
     <use xlink:href="#DejaVuSans-43" x="1061.3125"/>
    </g>
   </g>
   <g id="legend_1">
    <g id="patch_7">
     <path d="M 71.2325 134.888625 
L 180.20125 134.888625 
Q 182.20125 134.888625 182.20125 132.888625 
L 182.20125 31.14175 
Q 182.20125 29.14175 180.20125 29.14175 
L 71.2325 29.14175 
Q 69.2325 29.14175 69.2325 31.14175 
L 69.2325 132.888625 
Q 69.2325 134.888625 71.2325 134.888625 
z
" style="fill: #e5e5e5; opacity: 0.8; stroke: #cccccc; stroke-width: 0.5; stroke-linejoin: miter"/>
    </g>
    <g id="text_24">
     <!-- Distribution -->
     <g transform="translate(96.548125 40.740188) scale(0.1 -0.1)">
      <use xlink:href="#DejaVuSans-44"/>
      <use xlink:href="#DejaVuSans-69" x="77.001953"/>
      <use xlink:href="#DejaVuSans-73" x="104.785156"/>
      <use xlink:href="#DejaVuSans-74" x="156.884766"/>
      <use xlink:href="#DejaVuSans-72" x="196.09375"/>
      <use xlink:href="#DejaVuSans-69" x="237.207031"/>
      <use xlink:href="#DejaVuSans-62" x="264.990234"/>
      <use xlink:href="#DejaVuSans-75" x="328.466797"/>
      <use xlink:href="#DejaVuSans-74" x="391.845703"/>
      <use xlink:href="#DejaVuSans-69" x="431.054688"/>
      <use xlink:href="#DejaVuSans-6f" x="458.837891"/>
      <use xlink:href="#DejaVuSans-6e" x="520.019531"/>
     </g>
    </g>
    <g id="line2d_51">
     <path d="M 73.2325 51.918313 
L 83.2325 51.918313 
L 93.2325 51.918313 
" style="fill: none; stroke: #4ac1fa; stroke-width: 1.5; stroke-linecap: square"/>
    </g>
    <g id="text_25">
     <!-- AlmaLinux -->
     <g transform="translate(101.2325 55.418313) scale(0.1 -0.1)">
      <defs>
       <path id="DejaVuSans-6c" d="M 603 4863 
L 1178 4863 
L 1178 0 
L 603 0 
L 603 4863 
z
" transform="scale(0.015625)"/>
      </defs>
      <use xlink:href="#DejaVuSans-41"/>
      <use xlink:href="#DejaVuSans-6c" x="68.408203"/>
      <use xlink:href="#DejaVuSans-6d" x="96.191406"/>
      <use xlink:href="#DejaVuSans-61" x="193.603516"/>
      <use xlink:href="#DejaVuSans-4c" x="254.882812"/>
      <use xlink:href="#DejaVuSans-69" x="310.595703"/>
      <use xlink:href="#DejaVuSans-6e" x="338.378906"/>
      <use xlink:href="#DejaVuSans-75" x="401.757812"/>
      <use xlink:href="#DejaVuSans-78" x="465.136719"/>
     </g>
    </g>
    <g id="line2d_52">
     <path d="M 73.2325 66.596438 
L 83.2325 66.596438 
L 93.2325 66.596438 
" style="fill: none; stroke: #e9a942; stroke-width: 1.5; stroke-linecap: square"/>
    </g>
    <g id="text_26">
     <!-- CentOS Legacy -->
     <g transform="translate(101.2325 70.096438) scale(0.1 -0.1)">
      <defs>
       <path id="DejaVuSans-4f" d="M 2522 4238 
Q 1834 4238 1429 3725 
Q 1025 3213 1025 2328 
Q 1025 1447 1429 934 
Q 1834 422 2522 422 
Q 3209 422 3611 934 
Q 4013 1447 4013 2328 
Q 4013 3213 3611 3725 
Q 3209 4238 2522 4238 
z
M 2522 4750 
Q 3503 4750 4090 4092 
Q 4678 3434 4678 2328 
Q 4678 1225 4090 567 
Q 3503 -91 2522 -91 
Q 1538 -91 948 565 
Q 359 1222 359 2328 
Q 359 3434 948 4092 
Q 1538 4750 2522 4750 
z
" transform="scale(0.015625)"/>
      </defs>
      <use xlink:href="#DejaVuSans-43"/>
      <use xlink:href="#DejaVuSans-65" x="69.824219"/>
      <use xlink:href="#DejaVuSans-6e" x="131.347656"/>
      <use xlink:href="#DejaVuSans-74" x="194.726562"/>
      <use xlink:href="#DejaVuSans-4f" x="233.935547"/>
      <use xlink:href="#DejaVuSans-53" x="312.646484"/>
      <use xlink:href="#DejaVuSans-20" x="376.123047"/>
      <use xlink:href="#DejaVuSans-4c" x="407.910156"/>
      <use xlink:href="#DejaVuSans-65" x="461.873047"/>
      <use xlink:href="#DejaVuSans-67" x="523.396484"/>
      <use xlink:href="#DejaVuSans-61" x="586.873047"/>
      <use xlink:href="#DejaVuSans-63" x="648.152344"/>
      <use xlink:href="#DejaVuSans-79" x="703.132812"/>
     </g>
    </g>
    <g id="line2d_53">
     <path d="M 73.2325 81.274563 
L 83.2325 81.274563 
L 93.2325 81.274563 
" style="fill: none; stroke: #9a5689; stroke-width: 1.5; stroke-linecap: square"/>
    </g>
    <g id="text_27">
     <!-- CentOS Stream -->
     <g transform="translate(101.2325 84.774563) scale(0.1 -0.1)">
      <use xlink:href="#DejaVuSans-43"/>
      <use xlink:href="#DejaVuSans-65" x="69.824219"/>
      <use xlink:href="#DejaVuSans-6e" x="131.347656"/>
      <use xlink:href="#DejaVuSans-74" x="194.726562"/>
      <use xlink:href="#DejaVuSans-4f" x="233.935547"/>
      <use xlink:href="#DejaVuSans-53" x="312.646484"/>
      <use xlink:href="#DejaVuSans-20" x="376.123047"/>
      <use xlink:href="#DejaVuSans-53" x="407.910156"/>
      <use xlink:href="#DejaVuSans-74" x="471.386719"/>
      <use xlink:href="#DejaVuSans-72" x="510.595703"/>
      <use xlink:href="#DejaVuSans-65" x="549.458984"/>
      <use xlink:href="#DejaVuSans-61" x="610.982422"/>
      <use xlink:href="#DejaVuSans-6d" x="672.261719"/>
     </g>
    </g>
    <g id="line2d_54">
     <path d="M 73.2325 95.952688 
L 83.2325 95.952688 
L 93.2325 95.952688 
" style="fill: none; stroke: #be503b; stroke-width: 1.5; stroke-linecap: square"/>
    </g>
    <g id="text_28">
     <!-- Oracle -->
     <g transform="translate(101.2325 99.452688) scale(0.1 -0.1)">
      <use xlink:href="#DejaVuSans-4f"/>
      <use xlink:href="#DejaVuSans-72" x="78.710938"/>
      <use xlink:href="#DejaVuSans-61" x="119.824219"/>
      <use xlink:href="#DejaVuSans-63" x="181.103516"/>
      <use xlink:href="#DejaVuSans-6c" x="236.083984"/>
      <use xlink:href="#DejaVuSans-65" x="263.867188"/>
     </g>
    </g>
    <g id="line2d_55">
     <path d="M 73.2325 110.630813 
L 83.2325 110.630813 
L 93.2325 110.630813 
" style="fill: none; stroke: #e2321d; stroke-width: 1.5; stroke-linecap: square"/>
    </g>
    <g id="text_29">
     <!-- RHEL -->
     <g transform="translate(101.2325 114.130813) scale(0.1 -0.1)">
      <defs>
       <path id="DejaVuSans-52" d="M 2841 2188 
Q 3044 2119 3236 1894 
Q 3428 1669 3622 1275 
L 4263 0 
L 3584 0 
L 2988 1197 
Q 2756 1666 2539 1819 
Q 2322 1972 1947 1972 
L 1259 1972 
L 1259 0 
L 628 0 
L 628 4666 
L 2053 4666 
Q 2853 4666 3247 4331 
Q 3641 3997 3641 3322 
Q 3641 2881 3436 2590 
Q 3231 2300 2841 2188 
z
M 1259 4147 
L 1259 2491 
L 2053 2491 
Q 2509 2491 2742 2702 
Q 2975 2913 2975 3322 
Q 2975 3731 2742 3939 
Q 2509 4147 2053 4147 
L 1259 4147 
z
" transform="scale(0.015625)"/>
       <path id="DejaVuSans-48" d="M 628 4666 
L 1259 4666 
L 1259 2753 
L 3553 2753 
L 3553 4666 
L 4184 4666 
L 4184 0 
L 3553 0 
L 3553 2222 
L 1259 2222 
L 1259 0 
L 628 0 
L 628 4666 
z
" transform="scale(0.015625)"/>
      </defs>
      <use xlink:href="#DejaVuSans-52"/>
      <use xlink:href="#DejaVuSans-48" x="69.482422"/>
      <use xlink:href="#DejaVuSans-45" x="144.677734"/>
      <use xlink:href="#DejaVuSans-4c" x="207.861328"/>
     </g>
    </g>
    <g id="line2d_56">
     <path d="M 73.2325 125.308938 
L 83.2325 125.308938 
L 93.2325 125.308938 
" style="fill: none; stroke: #48b585; stroke-width: 6; stroke-linecap: square"/>
    </g>
    <g id="text_30">
     <!-- Rocky Linux -->
     <g transform="translate(101.2325 128.808938) scale(0.1 -0.1)">
      <use xlink:href="#DejaVuSans-52"/>
      <use xlink:href="#DejaVuSans-6f" x="64.982422"/>
      <use xlink:href="#DejaVuSans-63" x="126.164062"/>
      <use xlink:href="#DejaVuSans-6b" x="181.144531"/>
      <use xlink:href="#DejaVuSans-79" x="235.429688"/>
      <use xlink:href="#DejaVuSans-20" x="294.609375"/>
      <use xlink:href="#DejaVuSans-4c" x="326.396484"/>
      <use xlink:href="#DejaVuSans-69" x="382.109375"/>
      <use xlink:href="#DejaVuSans-6e" x="409.892578"/>
      <use xlink:href="#DejaVuSans-75" x="473.271484"/>
      <use xlink:href="#DejaVuSans-78" x="536.650391"/>
     </g>
    </g>
   </g>
  </g>
 </g>
 <defs>
  <clipPath id="p01d4a87305">
   <rect x="64.2325" y="24.14175" width="902.844" height="554.4"/>
  </clipPath>
 </defs>
</svg>
