<?xml version="1.0" encoding="utf-8" standalone="no"?>
<!DOCTYPE svg PUBLIC "-//W3C//DTD SVG 1.1//EN"
  "http://www.w3.org/Graphics/SVG/1.1/DTD/svg11.dtd">
<svg xmlns:xlink="http://www.w3.org/1999/xlink" width="964.735875pt" height="633.943878pt" viewBox="0 0 964.735875 633.943878" xmlns="http://www.w3.org/2000/svg" version="1.1">
 <metadata>
  <rdf:RDF xmlns:dc="http://purl.org/dc/elements/1.1/" xmlns:cc="http://creativecommons.org/ns#" xmlns:rdf="http://www.w3.org/1999/02/22-rdf-syntax-ns#">
   <cc:Work>
    <dc:type rdf:resource="http://purl.org/dc/dcmitype/StillImage"/>
    <dc:date>2024-03-07T11:55:15.857253</dc:date>
    <dc:format>image/svg+xml</dc:format>
    <dc:creator>
     <cc:Agent>
      <dc:title>Matplotlib v3.5.1, https://matplotlib.org/</dc:title>
     </cc:Agent>
    </dc:creator>
   </cc:Work>
  </rdf:RDF>
 </metadata>
 <defs>
  <style type="text/css">*{stroke-linejoin: round; stroke-linecap: butt}</style>
 </defs>
 <g id="figure_1">
  <g id="patch_1">
   <path d="M 0 633.943878 
L 964.735875 633.943878 
L 964.735875 0 
L 0 0 
z
" style="fill: #ffffff"/>
  </g>
  <g id="axes_1">
   <g id="patch_2">
    <path d="M 54.691875 567.74175 
L 957.535875 567.74175 
L 957.535875 24.14175 
L 54.691875 24.14175 
z
" style="fill: #e5e5e5"/>
   </g>
   <g id="matplotlib.axis_1">
    <g id="xtick_1">
     <g id="line2d_1">
      <path d="M 82.510598 567.74175 
L 82.510598 24.14175 
" clip-path="url(#p4135df8a9f)" style="fill: none; stroke: #ffffff; stroke-width: 0.8; stroke-linecap: square"/>
     </g>
     <g id="line2d_2">
      <defs>
       <path id="m34527f5742" d="M 0 0 
L 0 3.5 
" style="stroke: #555555; stroke-width: 0.8"/>
      </defs>
      <g>
       <use xlink:href="#m34527f5742" x="82.510598" y="567.74175" style="fill: #555555; stroke: #555555; stroke-width: 0.8"/>
      </g>
     </g>
     <g id="text_1">
      <!-- 2023-03 -->
      <g style="fill: #555555" transform="translate(69.689315 609.659567)rotate(-45)scale(0.1 -0.1)">
       <defs>
        <path id="DejaVuSans-32" d="M 1228 531 
L 3431 531 
L 3431 0 
L 469 0 
L 469 531 
Q 828 903 1448 1529 
Q 2069 2156 2228 2338 
Q 2531 2678 2651 2914 
Q 2772 3150 2772 3378 
Q 2772 3750 2511 3984 
Q 2250 4219 1831 4219 
Q 1534 4219 1204 4116 
Q 875 4013 500 3803 
L 500 4441 
Q 881 4594 1212 4672 
Q 1544 4750 1819 4750 
Q 2544 4750 2975 4387 
Q 3406 4025 3406 3419 
Q 3406 3131 3298 2873 
Q 3191 2616 2906 2266 
Q 2828 2175 2409 1742 
Q 1991 1309 1228 531 
z
" transform="scale(0.015625)"/>
        <path id="DejaVuSans-30" d="M 2034 4250 
Q 1547 4250 1301 3770 
Q 1056 3291 1056 2328 
Q 1056 1369 1301 889 
Q 1547 409 2034 409 
Q 2525 409 2770 889 
Q 3016 1369 3016 2328 
Q 3016 3291 2770 3770 
Q 2525 4250 2034 4250 
z
M 2034 4750 
Q 2819 4750 3233 4129 
Q 3647 3509 3647 2328 
Q 3647 1150 3233 529 
Q 2819 -91 2034 -91 
Q 1250 -91 836 529 
Q 422 1150 422 2328 
Q 422 3509 836 4129 
Q 1250 4750 2034 4750 
z
" transform="scale(0.015625)"/>
        <path id="DejaVuSans-33" d="M 2597 2516 
Q 3050 2419 3304 2112 
Q 3559 1806 3559 1356 
Q 3559 666 3084 287 
Q 2609 -91 1734 -91 
Q 1441 -91 1130 -33 
Q 819 25 488 141 
L 488 750 
Q 750 597 1062 519 
Q 1375 441 1716 441 
Q 2309 441 2620 675 
Q 2931 909 2931 1356 
Q 2931 1769 2642 2001 
Q 2353 2234 1838 2234 
L 1294 2234 
L 1294 2753 
L 1863 2753 
Q 2328 2753 2575 2939 
Q 2822 3125 2822 3475 
Q 2822 3834 2567 4026 
Q 2313 4219 1838 4219 
Q 1578 4219 1281 4162 
Q 984 4106 628 3988 
L 628 4550 
Q 988 4650 1302 4700 
Q 1616 4750 1894 4750 
Q 2613 4750 3031 4423 
Q 3450 4097 3450 3541 
Q 3450 3153 3228 2886 
Q 3006 2619 2597 2516 
z
" transform="scale(0.015625)"/>
        <path id="DejaVuSans-2d" d="M 313 2009 
L 1997 2009 
L 1997 1497 
L 313 1497 
L 313 2009 
z
" transform="scale(0.015625)"/>
       </defs>
       <use xlink:href="#DejaVuSans-32"/>
       <use xlink:href="#DejaVuSans-30" x="63.623047"/>
       <use xlink:href="#DejaVuSans-32" x="127.246094"/>
       <use xlink:href="#DejaVuSans-33" x="190.869141"/>
       <use xlink:href="#DejaVuSans-2d" x="254.492188"/>
       <use xlink:href="#DejaVuSans-30" x="290.576172"/>
       <use xlink:href="#DejaVuSans-33" x="354.199219"/>
      </g>
     </g>
    </g>
    <g id="xtick_2">
     <g id="line2d_3">
      <path d="M 160.908816 567.74175 
L 160.908816 24.14175 
" clip-path="url(#p4135df8a9f)" style="fill: none; stroke: #ffffff; stroke-width: 0.8; stroke-linecap: square"/>
     </g>
     <g id="line2d_4">
      <g>
       <use xlink:href="#m34527f5742" x="160.908816" y="567.74175" style="fill: #555555; stroke: #555555; stroke-width: 0.8"/>
      </g>
     </g>
     <g id="text_2">
      <!-- 2023-04 -->
      <g style="fill: #555555" transform="translate(148.087534 609.659567)rotate(-45)scale(0.1 -0.1)">
       <defs>
        <path id="DejaVuSans-34" d="M 2419 4116 
L 825 1625 
L 2419 1625 
L 2419 4116 
z
M 2253 4666 
L 3047 4666 
L 3047 1625 
L 3713 1625 
L 3713 1100 
L 3047 1100 
L 3047 0 
L 2419 0 
L 2419 1100 
L 313 1100 
L 313 1709 
L 2253 4666 
z
" transform="scale(0.015625)"/>
       </defs>
       <use xlink:href="#DejaVuSans-32"/>
       <use xlink:href="#DejaVuSans-30" x="63.623047"/>
       <use xlink:href="#DejaVuSans-32" x="127.246094"/>
       <use xlink:href="#DejaVuSans-33" x="190.869141"/>
       <use xlink:href="#DejaVuSans-2d" x="254.492188"/>
       <use xlink:href="#DejaVuSans-30" x="290.576172"/>
       <use xlink:href="#DejaVuSans-34" x="354.199219"/>
      </g>
     </g>
    </g>
    <g id="xtick_3">
     <g id="line2d_5">
      <path d="M 236.77806 567.74175 
L 236.77806 24.14175 
" clip-path="url(#p4135df8a9f)" style="fill: none; stroke: #ffffff; stroke-width: 0.8; stroke-linecap: square"/>
     </g>
     <g id="line2d_6">
      <g>
       <use xlink:href="#m34527f5742" x="236.77806" y="567.74175" style="fill: #555555; stroke: #555555; stroke-width: 0.8"/>
      </g>
     </g>
     <g id="text_3">
      <!-- 2023-05 -->
      <g style="fill: #555555" transform="translate(223.956778 609.659567)rotate(-45)scale(0.1 -0.1)">
       <defs>
        <path id="DejaVuSans-35" d="M 691 4666 
L 3169 4666 
L 3169 4134 
L 1269 4134 
L 1269 2991 
Q 1406 3038 1543 3061 
Q 1681 3084 1819 3084 
Q 2600 3084 3056 2656 
Q 3513 2228 3513 1497 
Q 3513 744 3044 326 
Q 2575 -91 1722 -91 
Q 1428 -91 1123 -41 
Q 819 9 494 109 
L 494 744 
Q 775 591 1075 516 
Q 1375 441 1709 441 
Q 2250 441 2565 725 
Q 2881 1009 2881 1497 
Q 2881 1984 2565 2268 
Q 2250 2553 1709 2553 
Q 1456 2553 1204 2497 
Q 953 2441 691 2322 
L 691 4666 
z
" transform="scale(0.015625)"/>
       </defs>
       <use xlink:href="#DejaVuSans-32"/>
       <use xlink:href="#DejaVuSans-30" x="63.623047"/>
       <use xlink:href="#DejaVuSans-32" x="127.246094"/>
       <use xlink:href="#DejaVuSans-33" x="190.869141"/>
       <use xlink:href="#DejaVuSans-2d" x="254.492188"/>
       <use xlink:href="#DejaVuSans-30" x="290.576172"/>
       <use xlink:href="#DejaVuSans-35" x="354.199219"/>
      </g>
     </g>
    </g>
    <g id="xtick_4">
     <g id="line2d_7">
      <path d="M 315.176278 567.74175 
L 315.176278 24.14175 
" clip-path="url(#p4135df8a9f)" style="fill: none; stroke: #ffffff; stroke-width: 0.8; stroke-linecap: square"/>
     </g>
     <g id="line2d_8">
      <g>
       <use xlink:href="#m34527f5742" x="315.176278" y="567.74175" style="fill: #555555; stroke: #555555; stroke-width: 0.8"/>
      </g>
     </g>
     <g id="text_4">
      <!-- 2023-06 -->
      <g style="fill: #555555" transform="translate(302.354996 609.659567)rotate(-45)scale(0.1 -0.1)">
       <defs>
        <path id="DejaVuSans-36" d="M 2113 2584 
Q 1688 2584 1439 2293 
Q 1191 2003 1191 1497 
Q 1191 994 1439 701 
Q 1688 409 2113 409 
Q 2538 409 2786 701 
Q 3034 994 3034 1497 
Q 3034 2003 2786 2293 
Q 2538 2584 2113 2584 
z
M 3366 4563 
L 3366 3988 
Q 3128 4100 2886 4159 
Q 2644 4219 2406 4219 
Q 1781 4219 1451 3797 
Q 1122 3375 1075 2522 
Q 1259 2794 1537 2939 
Q 1816 3084 2150 3084 
Q 2853 3084 3261 2657 
Q 3669 2231 3669 1497 
Q 3669 778 3244 343 
Q 2819 -91 2113 -91 
Q 1303 -91 875 529 
Q 447 1150 447 2328 
Q 447 3434 972 4092 
Q 1497 4750 2381 4750 
Q 2619 4750 2861 4703 
Q 3103 4656 3366 4563 
z
" transform="scale(0.015625)"/>
       </defs>
       <use xlink:href="#DejaVuSans-32"/>
       <use xlink:href="#DejaVuSans-30" x="63.623047"/>
       <use xlink:href="#DejaVuSans-32" x="127.246094"/>
       <use xlink:href="#DejaVuSans-33" x="190.869141"/>
       <use xlink:href="#DejaVuSans-2d" x="254.492188"/>
       <use xlink:href="#DejaVuSans-30" x="290.576172"/>
       <use xlink:href="#DejaVuSans-36" x="354.199219"/>
      </g>
     </g>
    </g>
    <g id="xtick_5">
     <g id="line2d_9">
      <path d="M 391.045522 567.74175 
L 391.045522 24.14175 
" clip-path="url(#p4135df8a9f)" style="fill: none; stroke: #ffffff; stroke-width: 0.8; stroke-linecap: square"/>
     </g>
     <g id="line2d_10">
      <g>
       <use xlink:href="#m34527f5742" x="391.045522" y="567.74175" style="fill: #555555; stroke: #555555; stroke-width: 0.8"/>
      </g>
     </g>
     <g id="text_5">
      <!-- 2023-07 -->
      <g style="fill: #555555" transform="translate(378.22424 609.659567)rotate(-45)scale(0.1 -0.1)">
       <defs>
        <path id="DejaVuSans-37" d="M 525 4666 
L 3525 4666 
L 3525 4397 
L 1831 0 
L 1172 0 
L 2766 4134 
L 525 4134 
L 525 4666 
z
" transform="scale(0.015625)"/>
       </defs>
       <use xlink:href="#DejaVuSans-32"/>
       <use xlink:href="#DejaVuSans-30" x="63.623047"/>
       <use xlink:href="#DejaVuSans-32" x="127.246094"/>
       <use xlink:href="#DejaVuSans-33" x="190.869141"/>
       <use xlink:href="#DejaVuSans-2d" x="254.492188"/>
       <use xlink:href="#DejaVuSans-30" x="290.576172"/>
       <use xlink:href="#DejaVuSans-37" x="354.199219"/>
      </g>
     </g>
    </g>
    <g id="xtick_6">
     <g id="line2d_11">
      <path d="M 469.443741 567.74175 
L 469.443741 24.14175 
" clip-path="url(#p4135df8a9f)" style="fill: none; stroke: #ffffff; stroke-width: 0.8; stroke-linecap: square"/>
     </g>
     <g id="line2d_12">
      <g>
       <use xlink:href="#m34527f5742" x="469.443741" y="567.74175" style="fill: #555555; stroke: #555555; stroke-width: 0.8"/>
      </g>
     </g>
     <g id="text_6">
      <!-- 2023-08 -->
      <g style="fill: #555555" transform="translate(456.622458 609.659567)rotate(-45)scale(0.1 -0.1)">
       <defs>
        <path id="DejaVuSans-38" d="M 2034 2216 
Q 1584 2216 1326 1975 
Q 1069 1734 1069 1313 
Q 1069 891 1326 650 
Q 1584 409 2034 409 
Q 2484 409 2743 651 
Q 3003 894 3003 1313 
Q 3003 1734 2745 1975 
Q 2488 2216 2034 2216 
z
M 1403 2484 
Q 997 2584 770 2862 
Q 544 3141 544 3541 
Q 544 4100 942 4425 
Q 1341 4750 2034 4750 
Q 2731 4750 3128 4425 
Q 3525 4100 3525 3541 
Q 3525 3141 3298 2862 
Q 3072 2584 2669 2484 
Q 3125 2378 3379 2068 
Q 3634 1759 3634 1313 
Q 3634 634 3220 271 
Q 2806 -91 2034 -91 
Q 1263 -91 848 271 
Q 434 634 434 1313 
Q 434 1759 690 2068 
Q 947 2378 1403 2484 
z
M 1172 3481 
Q 1172 3119 1398 2916 
Q 1625 2713 2034 2713 
Q 2441 2713 2670 2916 
Q 2900 3119 2900 3481 
Q 2900 3844 2670 4047 
Q 2441 4250 2034 4250 
Q 1625 4250 1398 4047 
Q 1172 3844 1172 3481 
z
" transform="scale(0.015625)"/>
       </defs>
       <use xlink:href="#DejaVuSans-32"/>
       <use xlink:href="#DejaVuSans-30" x="63.623047"/>
       <use xlink:href="#DejaVuSans-32" x="127.246094"/>
       <use xlink:href="#DejaVuSans-33" x="190.869141"/>
       <use xlink:href="#DejaVuSans-2d" x="254.492188"/>
       <use xlink:href="#DejaVuSans-30" x="290.576172"/>
       <use xlink:href="#DejaVuSans-38" x="354.199219"/>
      </g>
     </g>
    </g>
    <g id="xtick_7">
     <g id="line2d_13">
      <path d="M 547.841959 567.74175 
L 547.841959 24.14175 
" clip-path="url(#p4135df8a9f)" style="fill: none; stroke: #ffffff; stroke-width: 0.8; stroke-linecap: square"/>
     </g>
     <g id="line2d_14">
      <g>
       <use xlink:href="#m34527f5742" x="547.841959" y="567.74175" style="fill: #555555; stroke: #555555; stroke-width: 0.8"/>
      </g>
     </g>
     <g id="text_7">
      <!-- 2023-09 -->
      <g style="fill: #555555" transform="translate(535.020677 609.659567)rotate(-45)scale(0.1 -0.1)">
       <defs>
        <path id="DejaVuSans-39" d="M 703 97 
L 703 672 
Q 941 559 1184 500 
Q 1428 441 1663 441 
Q 2288 441 2617 861 
Q 2947 1281 2994 2138 
Q 2813 1869 2534 1725 
Q 2256 1581 1919 1581 
Q 1219 1581 811 2004 
Q 403 2428 403 3163 
Q 403 3881 828 4315 
Q 1253 4750 1959 4750 
Q 2769 4750 3195 4129 
Q 3622 3509 3622 2328 
Q 3622 1225 3098 567 
Q 2575 -91 1691 -91 
Q 1453 -91 1209 -44 
Q 966 3 703 97 
z
M 1959 2075 
Q 2384 2075 2632 2365 
Q 2881 2656 2881 3163 
Q 2881 3666 2632 3958 
Q 2384 4250 1959 4250 
Q 1534 4250 1286 3958 
Q 1038 3666 1038 3163 
Q 1038 2656 1286 2365 
Q 1534 2075 1959 2075 
z
" transform="scale(0.015625)"/>
       </defs>
       <use xlink:href="#DejaVuSans-32"/>
       <use xlink:href="#DejaVuSans-30" x="63.623047"/>
       <use xlink:href="#DejaVuSans-32" x="127.246094"/>
       <use xlink:href="#DejaVuSans-33" x="190.869141"/>
       <use xlink:href="#DejaVuSans-2d" x="254.492188"/>
       <use xlink:href="#DejaVuSans-30" x="290.576172"/>
       <use xlink:href="#DejaVuSans-39" x="354.199219"/>
      </g>
     </g>
    </g>
    <g id="xtick_8">
     <g id="line2d_15">
      <path d="M 623.711203 567.74175 
L 623.711203 24.14175 
" clip-path="url(#p4135df8a9f)" style="fill: none; stroke: #ffffff; stroke-width: 0.8; stroke-linecap: square"/>
     </g>
     <g id="line2d_16">
      <g>
       <use xlink:href="#m34527f5742" x="623.711203" y="567.74175" style="fill: #555555; stroke: #555555; stroke-width: 0.8"/>
      </g>
     </g>
     <g id="text_8">
      <!-- 2023-10 -->
      <g style="fill: #555555" transform="translate(610.88992 609.659567)rotate(-45)scale(0.1 -0.1)">
       <defs>
        <path id="DejaVuSans-31" d="M 794 531 
L 1825 531 
L 1825 4091 
L 703 3866 
L 703 4441 
L 1819 4666 
L 2450 4666 
L 2450 531 
L 3481 531 
L 3481 0 
L 794 0 
L 794 531 
z
" transform="scale(0.015625)"/>
       </defs>
       <use xlink:href="#DejaVuSans-32"/>
       <use xlink:href="#DejaVuSans-30" x="63.623047"/>
       <use xlink:href="#DejaVuSans-32" x="127.246094"/>
       <use xlink:href="#DejaVuSans-33" x="190.869141"/>
       <use xlink:href="#DejaVuSans-2d" x="254.492188"/>
       <use xlink:href="#DejaVuSans-31" x="290.576172"/>
       <use xlink:href="#DejaVuSans-30" x="354.199219"/>
      </g>
     </g>
    </g>
    <g id="xtick_9">
     <g id="line2d_17">
      <path d="M 702.109421 567.74175 
L 702.109421 24.14175 
" clip-path="url(#p4135df8a9f)" style="fill: none; stroke: #ffffff; stroke-width: 0.8; stroke-linecap: square"/>
     </g>
     <g id="line2d_18">
      <g>
       <use xlink:href="#m34527f5742" x="702.109421" y="567.74175" style="fill: #555555; stroke: #555555; stroke-width: 0.8"/>
      </g>
     </g>
     <g id="text_9">
      <!-- 2023-11 -->
      <g style="fill: #555555" transform="translate(689.288139 609.659567)rotate(-45)scale(0.1 -0.1)">
       <use xlink:href="#DejaVuSans-32"/>
       <use xlink:href="#DejaVuSans-30" x="63.623047"/>
       <use xlink:href="#DejaVuSans-32" x="127.246094"/>
       <use xlink:href="#DejaVuSans-33" x="190.869141"/>
       <use xlink:href="#DejaVuSans-2d" x="254.492188"/>
       <use xlink:href="#DejaVuSans-31" x="290.576172"/>
       <use xlink:href="#DejaVuSans-31" x="354.199219"/>
      </g>
     </g>
    </g>
    <g id="xtick_10">
     <g id="line2d_19">
      <path d="M 777.978665 567.74175 
L 777.978665 24.14175 
" clip-path="url(#p4135df8a9f)" style="fill: none; stroke: #ffffff; stroke-width: 0.8; stroke-linecap: square"/>
     </g>
     <g id="line2d_20">
      <g>
       <use xlink:href="#m34527f5742" x="777.978665" y="567.74175" style="fill: #555555; stroke: #555555; stroke-width: 0.8"/>
      </g>
     </g>
     <g id="text_10">
      <!-- 2023-12 -->
      <g style="fill: #555555" transform="translate(765.157383 609.659567)rotate(-45)scale(0.1 -0.1)">
       <use xlink:href="#DejaVuSans-32"/>
       <use xlink:href="#DejaVuSans-30" x="63.623047"/>
       <use xlink:href="#DejaVuSans-32" x="127.246094"/>
       <use xlink:href="#DejaVuSans-33" x="190.869141"/>
       <use xlink:href="#DejaVuSans-2d" x="254.492188"/>
       <use xlink:href="#DejaVuSans-31" x="290.576172"/>
       <use xlink:href="#DejaVuSans-32" x="354.199219"/>
      </g>
     </g>
    </g>
    <g id="xtick_11">
     <g id="line2d_21">
      <path d="M 856.376883 567.74175 
L 856.376883 24.14175 
" clip-path="url(#p4135df8a9f)" style="fill: none; stroke: #ffffff; stroke-width: 0.8; stroke-linecap: square"/>
     </g>
     <g id="line2d_22">
      <g>
       <use xlink:href="#m34527f5742" x="856.376883" y="567.74175" style="fill: #555555; stroke: #555555; stroke-width: 0.8"/>
      </g>
     </g>
     <g id="text_11">
      <!-- 2024-01 -->
      <g style="fill: #555555" transform="translate(843.555601 609.659567)rotate(-45)scale(0.1 -0.1)">
       <use xlink:href="#DejaVuSans-32"/>
       <use xlink:href="#DejaVuSans-30" x="63.623047"/>
       <use xlink:href="#DejaVuSans-32" x="127.246094"/>
       <use xlink:href="#DejaVuSans-34" x="190.869141"/>
       <use xlink:href="#DejaVuSans-2d" x="254.492188"/>
       <use xlink:href="#DejaVuSans-30" x="290.576172"/>
       <use xlink:href="#DejaVuSans-31" x="354.199219"/>
      </g>
     </g>
    </g>
    <g id="xtick_12">
     <g id="line2d_23">
      <path d="M 934.775102 567.74175 
L 934.775102 24.14175 
" clip-path="url(#p4135df8a9f)" style="fill: none; stroke: #ffffff; stroke-width: 0.8; stroke-linecap: square"/>
     </g>
     <g id="line2d_24">
      <g>
       <use xlink:href="#m34527f5742" x="934.775102" y="567.74175" style="fill: #555555; stroke: #555555; stroke-width: 0.8"/>
      </g>
     </g>
     <g id="text_12">
      <!-- 2024-02 -->
      <g style="fill: #555555" transform="translate(921.95382 609.659567)rotate(-45)scale(0.1 -0.1)">
       <use xlink:href="#DejaVuSans-32"/>
       <use xlink:href="#DejaVuSans-30" x="63.623047"/>
       <use xlink:href="#DejaVuSans-32" x="127.246094"/>
       <use xlink:href="#DejaVuSans-34" x="190.869141"/>
       <use xlink:href="#DejaVuSans-2d" x="254.492188"/>
       <use xlink:href="#DejaVuSans-30" x="290.576172"/>
       <use xlink:href="#DejaVuSans-32" x="354.199219"/>
      </g>
     </g>
    </g>
    <g id="text_13">
     <!-- Date -->
     <g style="fill: #555555" transform="translate(491.772938 624.248253)scale(0.12 -0.12)">
      <defs>
       <path id="DejaVuSans-44" d="M 1259 4147 
L 1259 519 
L 2022 519 
Q 2988 519 3436 956 
Q 3884 1394 3884 2338 
Q 3884 3275 3436 3711 
Q 2988 4147 2022 4147 
L 1259 4147 
z
M 628 4666 
L 1925 4666 
Q 3281 4666 3915 4102 
Q 4550 3538 4550 2338 
Q 4550 1131 3912 565 
Q 3275 0 1925 0 
L 628 0 
L 628 4666 
z
" transform="scale(0.015625)"/>
       <path id="DejaVuSans-61" d="M 2194 1759 
Q 1497 1759 1228 1600 
Q 959 1441 959 1056 
Q 959 750 1161 570 
Q 1363 391 1709 391 
Q 2188 391 2477 730 
Q 2766 1069 2766 1631 
L 2766 1759 
L 2194 1759 
z
M 3341 1997 
L 3341 0 
L 2766 0 
L 2766 531 
Q 2569 213 2275 61 
Q 1981 -91 1556 -91 
Q 1019 -91 701 211 
Q 384 513 384 1019 
Q 384 1609 779 1909 
Q 1175 2209 1959 2209 
L 2766 2209 
L 2766 2266 
Q 2766 2663 2505 2880 
Q 2244 3097 1772 3097 
Q 1472 3097 1187 3025 
Q 903 2953 641 2809 
L 641 3341 
Q 956 3463 1253 3523 
Q 1550 3584 1831 3584 
Q 2591 3584 2966 3190 
Q 3341 2797 3341 1997 
z
" transform="scale(0.015625)"/>
       <path id="DejaVuSans-74" d="M 1172 4494 
L 1172 3500 
L 2356 3500 
L 2356 3053 
L 1172 3053 
L 1172 1153 
Q 1172 725 1289 603 
Q 1406 481 1766 481 
L 2356 481 
L 2356 0 
L 1766 0 
Q 1100 0 847 248 
Q 594 497 594 1153 
L 594 3053 
L 172 3053 
L 172 3500 
L 594 3500 
L 594 4494 
L 1172 4494 
z
" transform="scale(0.015625)"/>
       <path id="DejaVuSans-65" d="M 3597 1894 
L 3597 1613 
L 953 1613 
Q 991 1019 1311 708 
Q 1631 397 2203 397 
Q 2534 397 2845 478 
Q 3156 559 3463 722 
L 3463 178 
Q 3153 47 2828 -22 
Q 2503 -91 2169 -91 
Q 1331 -91 842 396 
Q 353 884 353 1716 
Q 353 2575 817 3079 
Q 1281 3584 2069 3584 
Q 2775 3584 3186 3129 
Q 3597 2675 3597 1894 
z
M 3022 2063 
Q 3016 2534 2758 2815 
Q 2500 3097 2075 3097 
Q 1594 3097 1305 2825 
Q 1016 2553 972 2059 
L 3022 2063 
z
" transform="scale(0.015625)"/>
      </defs>
      <use xlink:href="#DejaVuSans-44"/>
      <use xlink:href="#DejaVuSans-61" x="77.001953"/>
      <use xlink:href="#DejaVuSans-74" x="138.28125"/>
      <use xlink:href="#DejaVuSans-65" x="177.490234"/>
     </g>
    </g>
   </g>
   <g id="matplotlib.axis_2">
    <g id="ytick_1">
     <g id="line2d_25">
      <path d="M 54.691875 567.74175 
L 957.535875 567.74175 
" clip-path="url(#p4135df8a9f)" style="fill: none; stroke: #ffffff; stroke-width: 0.8; stroke-linecap: square"/>
     </g>
     <g id="line2d_26">
      <defs>
       <path id="m10fe388e54" d="M 0 0 
L -3.5 0 
" style="stroke: #555555; stroke-width: 0.8"/>
      </defs>
      <g>
       <use xlink:href="#m10fe388e54" x="54.691875" y="567.74175" style="fill: #555555; stroke: #555555; stroke-width: 0.8"/>
      </g>
     </g>
     <g id="text_14">
      <!-- 0k -->
      <g style="fill: #555555" transform="translate(35.53875 571.540969)scale(0.1 -0.1)">
       <defs>
        <path id="DejaVuSans-6b" d="M 581 4863 
L 1159 4863 
L 1159 1991 
L 2875 3500 
L 3609 3500 
L 1753 1863 
L 3688 0 
L 2938 0 
L 1159 1709 
L 1159 0 
L 581 0 
L 581 4863 
z
" transform="scale(0.015625)"/>
       </defs>
       <use xlink:href="#DejaVuSans-30"/>
       <use xlink:href="#DejaVuSans-6b" x="63.623047"/>
      </g>
     </g>
    </g>
    <g id="ytick_2">
     <g id="line2d_27">
      <path d="M 54.691875 497.959853 
L 957.535875 497.959853 
" clip-path="url(#p4135df8a9f)" style="fill: none; stroke: #ffffff; stroke-width: 0.8; stroke-linecap: square"/>
     </g>
     <g id="line2d_28">
      <g>
       <use xlink:href="#m10fe388e54" x="54.691875" y="497.959853" style="fill: #555555; stroke: #555555; stroke-width: 0.8"/>
      </g>
     </g>
     <g id="text_15">
      <!-- 100k -->
      <g style="fill: #555555" transform="translate(22.81375 501.759072)scale(0.1 -0.1)">
       <use xlink:href="#DejaVuSans-31"/>
       <use xlink:href="#DejaVuSans-30" x="63.623047"/>
       <use xlink:href="#DejaVuSans-30" x="127.246094"/>
       <use xlink:href="#DejaVuSans-6b" x="190.869141"/>
      </g>
     </g>
    </g>
    <g id="ytick_3">
     <g id="line2d_29">
      <path d="M 54.691875 428.177957 
L 957.535875 428.177957 
" clip-path="url(#p4135df8a9f)" style="fill: none; stroke: #ffffff; stroke-width: 0.8; stroke-linecap: square"/>
     </g>
     <g id="line2d_30">
      <g>
       <use xlink:href="#m10fe388e54" x="54.691875" y="428.177957" style="fill: #555555; stroke: #555555; stroke-width: 0.8"/>
      </g>
     </g>
     <g id="text_16">
      <!-- 200k -->
      <g style="fill: #555555" transform="translate(22.81375 431.977175)scale(0.1 -0.1)">
       <use xlink:href="#DejaVuSans-32"/>
       <use xlink:href="#DejaVuSans-30" x="63.623047"/>
       <use xlink:href="#DejaVuSans-30" x="127.246094"/>
       <use xlink:href="#DejaVuSans-6b" x="190.869141"/>
      </g>
     </g>
    </g>
    <g id="ytick_4">
     <g id="line2d_31">
      <path d="M 54.691875 358.39606 
L 957.535875 358.39606 
" clip-path="url(#p4135df8a9f)" style="fill: none; stroke: #ffffff; stroke-width: 0.8; stroke-linecap: square"/>
     </g>
     <g id="line2d_32">
      <g>
       <use xlink:href="#m10fe388e54" x="54.691875" y="358.39606" style="fill: #555555; stroke: #555555; stroke-width: 0.8"/>
      </g>
     </g>
     <g id="text_17">
      <!-- 300k -->
      <g style="fill: #555555" transform="translate(22.81375 362.195279)scale(0.1 -0.1)">
       <use xlink:href="#DejaVuSans-33"/>
       <use xlink:href="#DejaVuSans-30" x="63.623047"/>
       <use xlink:href="#DejaVuSans-30" x="127.246094"/>
       <use xlink:href="#DejaVuSans-6b" x="190.869141"/>
      </g>
     </g>
    </g>
    <g id="ytick_5">
     <g id="line2d_33">
      <path d="M 54.691875 288.614163 
L 957.535875 288.614163 
" clip-path="url(#p4135df8a9f)" style="fill: none; stroke: #ffffff; stroke-width: 0.8; stroke-linecap: square"/>
     </g>
     <g id="line2d_34">
      <g>
       <use xlink:href="#m10fe388e54" x="54.691875" y="288.614163" style="fill: #555555; stroke: #555555; stroke-width: 0.8"/>
      </g>
     </g>
     <g id="text_18">
      <!-- 400k -->
      <g style="fill: #555555" transform="translate(22.81375 292.413382)scale(0.1 -0.1)">
       <use xlink:href="#DejaVuSans-34"/>
       <use xlink:href="#DejaVuSans-30" x="63.623047"/>
       <use xlink:href="#DejaVuSans-30" x="127.246094"/>
       <use xlink:href="#DejaVuSans-6b" x="190.869141"/>
      </g>
     </g>
    </g>
    <g id="ytick_6">
     <g id="line2d_35">
      <path d="M 54.691875 218.832266 
L 957.535875 218.832266 
" clip-path="url(#p4135df8a9f)" style="fill: none; stroke: #ffffff; stroke-width: 0.8; stroke-linecap: square"/>
     </g>
     <g id="line2d_36">
      <g>
       <use xlink:href="#m10fe388e54" x="54.691875" y="218.832266" style="fill: #555555; stroke: #555555; stroke-width: 0.8"/>
      </g>
     </g>
     <g id="text_19">
      <!-- 500k -->
      <g style="fill: #555555" transform="translate(22.81375 222.631485)scale(0.1 -0.1)">
       <use xlink:href="#DejaVuSans-35"/>
       <use xlink:href="#DejaVuSans-30" x="63.623047"/>
       <use xlink:href="#DejaVuSans-30" x="127.246094"/>
       <use xlink:href="#DejaVuSans-6b" x="190.869141"/>
      </g>
     </g>
    </g>
    <g id="ytick_7">
     <g id="line2d_37">
      <path d="M 54.691875 149.05037 
L 957.535875 149.05037 
" clip-path="url(#p4135df8a9f)" style="fill: none; stroke: #ffffff; stroke-width: 0.8; stroke-linecap: square"/>
     </g>
     <g id="line2d_38">
      <g>
       <use xlink:href="#m10fe388e54" x="54.691875" y="149.05037" style="fill: #555555; stroke: #555555; stroke-width: 0.8"/>
      </g>
     </g>
     <g id="text_20">
      <!-- 600k -->
      <g style="fill: #555555" transform="translate(22.81375 152.849588)scale(0.1 -0.1)">
       <use xlink:href="#DejaVuSans-36"/>
       <use xlink:href="#DejaVuSans-30" x="63.623047"/>
       <use xlink:href="#DejaVuSans-30" x="127.246094"/>
       <use xlink:href="#DejaVuSans-6b" x="190.869141"/>
      </g>
     </g>
    </g>
    <g id="ytick_8">
     <g id="line2d_39">
      <path d="M 54.691875 79.268473 
L 957.535875 79.268473 
" clip-path="url(#p4135df8a9f)" style="fill: none; stroke: #ffffff; stroke-width: 0.8; stroke-linecap: square"/>
     </g>
     <g id="line2d_40">
      <g>
       <use xlink:href="#m10fe388e54" x="54.691875" y="79.268473" style="fill: #555555; stroke: #555555; stroke-width: 0.8"/>
      </g>
     </g>
     <g id="text_21">
      <!-- 700k -->
      <g style="fill: #555555" transform="translate(22.81375 83.067692)scale(0.1 -0.1)">
       <use xlink:href="#DejaVuSans-37"/>
       <use xlink:href="#DejaVuSans-30" x="63.623047"/>
       <use xlink:href="#DejaVuSans-30" x="127.246094"/>
       <use xlink:href="#DejaVuSans-6b" x="190.869141"/>
      </g>
     </g>
    </g>
    <g id="text_22">
     <!-- Instances -->
     <g style="fill: #555555" transform="translate(16.318125 324.588)rotate(-90)scale(0.12 -0.12)">
      <defs>
       <path id="DejaVuSans-49" d="M 628 4666 
L 1259 4666 
L 1259 0 
L 628 0 
L 628 4666 
z
" transform="scale(0.015625)"/>
       <path id="DejaVuSans-6e" d="M 3513 2113 
L 3513 0 
L 2938 0 
L 2938 2094 
Q 2938 2591 2744 2837 
Q 2550 3084 2163 3084 
Q 1697 3084 1428 2787 
Q 1159 2491 1159 1978 
L 1159 0 
L 581 0 
L 581 3500 
L 1159 3500 
L 1159 2956 
Q 1366 3272 1645 3428 
Q 1925 3584 2291 3584 
Q 2894 3584 3203 3211 
Q 3513 2838 3513 2113 
z
" transform="scale(0.015625)"/>
       <path id="DejaVuSans-73" d="M 2834 3397 
L 2834 2853 
Q 2591 2978 2328 3040 
Q 2066 3103 1784 3103 
Q 1356 3103 1142 2972 
Q 928 2841 928 2578 
Q 928 2378 1081 2264 
Q 1234 2150 1697 2047 
L 1894 2003 
Q 2506 1872 2764 1633 
Q 3022 1394 3022 966 
Q 3022 478 2636 193 
Q 2250 -91 1575 -91 
Q 1294 -91 989 -36 
Q 684 19 347 128 
L 347 722 
Q 666 556 975 473 
Q 1284 391 1588 391 
Q 1994 391 2212 530 
Q 2431 669 2431 922 
Q 2431 1156 2273 1281 
Q 2116 1406 1581 1522 
L 1381 1569 
Q 847 1681 609 1914 
Q 372 2147 372 2553 
Q 372 3047 722 3315 
Q 1072 3584 1716 3584 
Q 2034 3584 2315 3537 
Q 2597 3491 2834 3397 
z
" transform="scale(0.015625)"/>
       <path id="DejaVuSans-63" d="M 3122 3366 
L 3122 2828 
Q 2878 2963 2633 3030 
Q 2388 3097 2138 3097 
Q 1578 3097 1268 2742 
Q 959 2388 959 1747 
Q 959 1106 1268 751 
Q 1578 397 2138 397 
Q 2388 397 2633 464 
Q 2878 531 3122 666 
L 3122 134 
Q 2881 22 2623 -34 
Q 2366 -91 2075 -91 
Q 1284 -91 818 406 
Q 353 903 353 1747 
Q 353 2603 823 3093 
Q 1294 3584 2113 3584 
Q 2378 3584 2631 3529 
Q 2884 3475 3122 3366 
z
" transform="scale(0.015625)"/>
      </defs>
      <use xlink:href="#DejaVuSans-49"/>
      <use xlink:href="#DejaVuSans-6e" x="29.492188"/>
      <use xlink:href="#DejaVuSans-73" x="92.871094"/>
      <use xlink:href="#DejaVuSans-74" x="144.970703"/>
      <use xlink:href="#DejaVuSans-61" x="184.179688"/>
      <use xlink:href="#DejaVuSans-6e" x="245.458984"/>
      <use xlink:href="#DejaVuSans-63" x="308.837891"/>
      <use xlink:href="#DejaVuSans-65" x="363.818359"/>
      <use xlink:href="#DejaVuSans-73" x="425.341797"/>
     </g>
    </g>
   </g>
   <g id="line2d_41">
    <path d="M 54.691875 425.422608 
L 63.811511 423.883973 
L 72.931148 422.345338 
L 82.050784 420.806703 
L 91.17042 419.268068 
L 100.290057 417.729433 
L 109.409693 416.190798 
L 118.52933 414.652163 
L 127.648966 413.113528 
L 136.768602 411.574893 
L 145.888239 410.036258 
L 155.007875 408.497623 
L 164.127511 406.958988 
L 173.247148 405.420353 
L 182.366784 403.881718 
L 191.48642 402.343083 
L 200.606057 400.804448 
L 209.725693 399.265813 
L 218.84533 397.727179 
L 227.964966 396.188544 
L 237.084602 394.649909 
L 246.204239 393.111274 
L 255.323875 391.572639 
L 264.443511 390.034004 
L 273.563148 388.495369 
L 282.682784 386.956734 
L 291.80242 385.418099 
L 300.922057 383.879464 
L 310.041693 382.340829 
L 319.16133 380.802194 
L 328.280966 379.263559 
L 337.400602 377.724924 
L 346.520239 376.186289 
L 355.639875 374.647654 
L 364.759511 373.109019 
L 373.879148 371.570384 
L 382.998784 370.031749 
L 392.11842 368.493114 
L 401.238057 366.954479 
L 410.357693 365.415844 
L 419.47733 363.87721 
L 428.596966 362.338575 
L 437.716602 360.79994 
L 446.836239 359.261305 
L 455.955875 357.72267 
L 465.075511 356.184035 
L 474.195148 354.6454 
L 483.314784 353.106765 
L 492.43442 351.56813 
L 501.554057 350.029495 
L 510.673693 348.49086 
L 519.79333 346.952225 
L 528.912966 345.41359 
L 538.032602 343.874955 
L 547.152239 342.33632 
L 556.271875 340.797685 
L 565.391511 339.25905 
L 574.511148 337.720415 
L 583.630784 336.18178 
L 592.75042 334.643145 
L 601.870057 333.10451 
L 610.989693 331.565875 
L 620.10933 330.027241 
L 629.228966 328.488606 
L 638.348602 326.949971 
L 647.468239 325.411336 
L 656.587875 323.872701 
L 665.707511 322.334066 
L 674.827148 320.795431 
L 683.946784 319.256796 
L 693.06642 317.718161 
L 702.186057 316.179526 
L 711.305693 314.640891 
L 720.42533 313.102256 
L 729.544966 311.563621 
L 738.664602 310.024986 
L 747.784239 308.486351 
L 756.903875 306.947716 
L 766.023511 305.409081 
L 775.143148 303.870446 
L 784.262784 302.331811 
L 793.38242 300.793176 
L 802.502057 299.254541 
L 811.621693 297.715906 
L 820.74133 296.177272 
L 829.860966 294.638637 
L 838.980602 293.100002 
L 848.100239 291.561367 
L 857.219875 290.022732 
L 866.339511 288.484097 
L 875.459148 286.945462 
L 884.578784 285.406827 
L 893.69842 283.868192 
L 902.818057 282.329557 
L 911.937693 280.790922 
L 921.05733 279.252287 
L 930.176966 277.713652 
L 939.296602 276.175017 
L 948.416239 274.636382 
L 957.535875 273.097747 
" clip-path="url(#p4135df8a9f)" style="fill: none; stroke-dasharray: 1.5,2.475; stroke-dashoffset: 0; stroke: #4ac1fa; stroke-width: 1.5"/>
   </g>
   <g id="line2d_42">
    <path d="M 54.691875 285.211404 
L 63.811511 285.617357 
L 72.931148 286.02331 
L 82.050784 286.429264 
L 91.17042 286.835217 
L 100.290057 287.24117 
L 109.409693 287.647123 
L 118.52933 288.053076 
L 127.648966 288.459029 
L 136.768602 288.864982 
L 145.888239 289.270935 
L 155.007875 289.676888 
L 164.127511 290.082841 
L 173.247148 290.488794 
L 182.366784 290.894747 
L 191.48642 291.3007 
L 200.606057 291.706654 
L 209.725693 292.112607 
L 218.84533 292.51856 
L 227.964966 292.924513 
L 237.084602 293.330466 
L 246.204239 293.736419 
L 255.323875 294.142372 
L 264.443511 294.548325 
L 273.563148 294.954278 
L 282.682784 295.360231 
L 291.80242 295.766184 
L 300.922057 296.172137 
L 310.041693 296.578091 
L 319.16133 296.984044 
L 328.280966 297.389997 
L 337.400602 297.79595 
L 346.520239 298.201903 
L 355.639875 298.607856 
L 364.759511 299.013809 
L 373.879148 299.419762 
L 382.998784 299.825715 
L 392.11842 300.231668 
L 401.238057 300.637621 
L 410.357693 301.043574 
L 419.47733 301.449528 
L 428.596966 301.855481 
L 437.716602 302.261434 
L 446.836239 302.667387 
L 455.955875 303.07334 
L 465.075511 303.479293 
L 474.195148 303.885246 
L 483.314784 304.291199 
L 492.43442 304.697152 
L 501.554057 305.103105 
L 510.673693 305.509058 
L 519.79333 305.915011 
L 528.912966 306.320964 
L 538.032602 306.726918 
L 547.152239 307.132871 
L 556.271875 307.538824 
L 565.391511 307.944777 
L 574.511148 308.35073 
L 583.630784 308.756683 
L 592.75042 309.162636 
L 601.870057 309.568589 
L 610.989693 309.974542 
L 620.10933 310.380495 
L 629.228966 310.786448 
L 638.348602 311.192401 
L 647.468239 311.598355 
L 656.587875 312.004308 
L 665.707511 312.410261 
L 674.827148 312.816214 
L 683.946784 313.222167 
L 693.06642 313.62812 
L 702.186057 314.034073 
L 711.305693 314.440026 
L 720.42533 314.845979 
L 729.544966 315.251932 
L 738.664602 315.657885 
L 747.784239 316.063838 
L 756.903875 316.469792 
L 766.023511 316.875745 
L 775.143148 317.281698 
L 784.262784 317.687651 
L 793.38242 318.093604 
L 802.502057 318.499557 
L 811.621693 318.90551 
L 820.74133 319.311463 
L 829.860966 319.717416 
L 838.980602 320.123369 
L 848.100239 320.529322 
L 857.219875 320.935275 
L 866.339511 321.341228 
L 875.459148 321.747182 
L 884.578784 322.153135 
L 893.69842 322.559088 
L 902.818057 322.965041 
L 911.937693 323.370994 
L 921.05733 323.776947 
L 930.176966 324.1829 
L 939.296602 324.588853 
L 948.416239 324.994806 
L 957.535875 325.400759 
" clip-path="url(#p4135df8a9f)" style="fill: none; stroke-dasharray: 1.5,2.475; stroke-dashoffset: 0; stroke: #e9a942; stroke-width: 1.5"/>
   </g>
   <g id="line2d_43">
    <path d="M 54.691875 400.155703 
L 63.811511 399.485484 
L 72.931148 398.815265 
L 82.050784 398.145046 
L 91.17042 397.474827 
L 100.290057 396.804608 
L 109.409693 396.134389 
L 118.52933 395.46417 
L 127.648966 394.793951 
L 136.768602 394.123732 
L 145.888239 393.453513 
L 155.007875 392.783294 
L 164.127511 392.113075 
L 173.247148 391.442856 
L 182.366784 390.772637 
L 191.48642 390.102418 
L 200.606057 389.432199 
L 209.725693 388.76198 
L 218.84533 388.091761 
L 227.964966 387.421542 
L 237.084602 386.751322 
L 246.204239 386.081103 
L 255.323875 385.410884 
L 264.443511 384.740665 
L 273.563148 384.070446 
L 282.682784 383.400227 
L 291.80242 382.730008 
L 300.922057 382.059789 
L 310.041693 381.38957 
L 319.16133 380.719351 
L 328.280966 380.049132 
L 337.400602 379.378913 
L 346.520239 378.708694 
L 355.639875 378.038475 
L 364.759511 377.368256 
L 373.879148 376.698037 
L 382.998784 376.027818 
L 392.11842 375.357599 
L 401.238057 374.68738 
L 410.357693 374.017161 
L 419.47733 373.346942 
L 428.596966 372.676723 
L 437.716602 372.006504 
L 446.836239 371.336285 
L 455.955875 370.666066 
L 465.075511 369.995847 
L 474.195148 369.325628 
L 483.314784 368.655409 
L 492.43442 367.98519 
L 501.554057 367.314971 
L 510.673693 366.644751 
L 519.79333 365.974532 
L 528.912966 365.304313 
L 538.032602 364.634094 
L 547.152239 363.963875 
L 556.271875 363.293656 
L 565.391511 362.623437 
L 574.511148 361.953218 
L 583.630784 361.282999 
L 592.75042 360.61278 
L 601.870057 359.942561 
L 610.989693 359.272342 
L 620.10933 358.602123 
L 629.228966 357.931904 
L 638.348602 357.261685 
L 647.468239 356.591466 
L 656.587875 355.921247 
L 665.707511 355.251028 
L 674.827148 354.580809 
L 683.946784 353.91059 
L 693.06642 353.240371 
L 702.186057 352.570152 
L 711.305693 351.899933 
L 720.42533 351.229714 
L 729.544966 350.559495 
L 738.664602 349.889276 
L 747.784239 349.219057 
L 756.903875 348.548838 
L 766.023511 347.878619 
L 775.143148 347.2084 
L 784.262784 346.538181 
L 793.38242 345.867961 
L 802.502057 345.197742 
L 811.621693 344.527523 
L 820.74133 343.857304 
L 829.860966 343.187085 
L 838.980602 342.516866 
L 848.100239 341.846647 
L 857.219875 341.176428 
L 866.339511 340.506209 
L 875.459148 339.83599 
L 884.578784 339.165771 
L 893.69842 338.495552 
L 902.818057 337.825333 
L 911.937693 337.155114 
L 921.05733 336.484895 
L 930.176966 335.814676 
L 939.296602 335.144457 
L 948.416239 334.474238 
L 957.535875 333.804019 
" clip-path="url(#p4135df8a9f)" style="fill: none; stroke-dasharray: 1.5,2.475; stroke-dashoffset: 0; stroke: #9a5689; stroke-width: 1.5"/>
   </g>
   <g id="line2d_44">
    <path d="M 54.691875 526.29133 
L 63.811511 526.107288 
L 72.931148 525.923246 
L 82.050784 525.739205 
L 91.17042 525.555163 
L 100.290057 525.371121 
L 109.409693 525.18708 
L 118.52933 525.003038 
L 127.648966 524.818996 
L 136.768602 524.634955 
L 145.888239 524.450913 
L 155.007875 524.266871 
L 164.127511 524.08283 
L 173.247148 523.898788 
L 182.366784 523.714746 
L 191.48642 523.530705 
L 200.606057 523.346663 
L 209.725693 523.162621 
L 218.84533 522.97858 
L 227.964966 522.794538 
L 237.084602 522.610496 
L 246.204239 522.426455 
L 255.323875 522.242413 
L 264.443511 522.058371 
L 273.563148 521.87433 
L 282.682784 521.690288 
L 291.80242 521.506246 
L 300.922057 521.322205 
L 310.041693 521.138163 
L 319.16133 520.954121 
L 328.280966 520.77008 
L 337.400602 520.586038 
L 346.520239 520.401996 
L 355.639875 520.217955 
L 364.759511 520.033913 
L 373.879148 519.849871 
L 382.998784 519.66583 
L 392.11842 519.481788 
L 401.238057 519.297746 
L 410.357693 519.113705 
L 419.47733 518.929663 
L 428.596966 518.745621 
L 437.716602 518.56158 
L 446.836239 518.377538 
L 455.955875 518.193496 
L 465.075511 518.009455 
L 474.195148 517.825413 
L 483.314784 517.641371 
L 492.43442 517.457329 
L 501.554057 517.273288 
L 510.673693 517.089246 
L 519.79333 516.905204 
L 528.912966 516.721163 
L 538.032602 516.537121 
L 547.152239 516.353079 
L 556.271875 516.169038 
L 565.391511 515.984996 
L 574.511148 515.800954 
L 583.630784 515.616913 
L 592.75042 515.432871 
L 601.870057 515.248829 
L 610.989693 515.064788 
L 620.10933 514.880746 
L 629.228966 514.696704 
L 638.348602 514.512663 
L 647.468239 514.328621 
L 656.587875 514.144579 
L 665.707511 513.960538 
L 674.827148 513.776496 
L 683.946784 513.592454 
L 693.06642 513.408413 
L 702.186057 513.224371 
L 711.305693 513.040329 
L 720.42533 512.856288 
L 729.544966 512.672246 
L 738.664602 512.488204 
L 747.784239 512.304163 
L 756.903875 512.120121 
L 766.023511 511.936079 
L 775.143148 511.752038 
L 784.262784 511.567996 
L 793.38242 511.383954 
L 802.502057 511.199913 
L 811.621693 511.015871 
L 820.74133 510.831829 
L 829.860966 510.647788 
L 838.980602 510.463746 
L 848.100239 510.279704 
L 857.219875 510.095663 
L 866.339511 509.911621 
L 875.459148 509.727579 
L 884.578784 509.543538 
L 893.69842 509.359496 
L 902.818057 509.175454 
L 911.937693 508.991413 
L 921.05733 508.807371 
L 930.176966 508.623329 
L 939.296602 508.439288 
L 948.416239 508.255246 
L 957.535875 508.071204 
" clip-path="url(#p4135df8a9f)" style="fill: none; stroke-dasharray: 1.5,2.475; stroke-dashoffset: 0; stroke: #be503b; stroke-width: 1.5"/>
   </g>
   <g id="line2d_45">
    <path d="M 54.691875 329.236992 
L 63.811511 328.637619 
L 72.931148 328.038247 
L 82.050784 327.438874 
L 91.17042 326.839502 
L 100.290057 326.240129 
L 109.409693 325.640757 
L 118.52933 325.041385 
L 127.648966 324.442012 
L 136.768602 323.84264 
L 145.888239 323.243267 
L 155.007875 322.643895 
L 164.127511 322.044522 
L 173.247148 321.44515 
L 182.366784 320.845778 
L 191.48642 320.246405 
L 200.606057 319.647033 
L 209.725693 319.04766 
L 218.84533 318.448288 
L 227.964966 317.848915 
L 237.084602 317.249543 
L 246.204239 316.650171 
L 255.323875 316.050798 
L 264.443511 315.451426 
L 273.563148 314.852053 
L 282.682784 314.252681 
L 291.80242 313.653308 
L 300.922057 313.053936 
L 310.041693 312.454564 
L 319.16133 311.855191 
L 328.280966 311.255819 
L 337.400602 310.656446 
L 346.520239 310.057074 
L 355.639875 309.457702 
L 364.759511 308.858329 
L 373.879148 308.258957 
L 382.998784 307.659584 
L 392.11842 307.060212 
L 401.238057 306.460839 
L 410.357693 305.861467 
L 419.47733 305.262095 
L 428.596966 304.662722 
L 437.716602 304.06335 
L 446.836239 303.463977 
L 455.955875 302.864605 
L 465.075511 302.265232 
L 474.195148 301.66586 
L 483.314784 301.066488 
L 492.43442 300.467115 
L 501.554057 299.867743 
L 510.673693 299.26837 
L 519.79333 298.668998 
L 528.912966 298.069625 
L 538.032602 297.470253 
L 547.152239 296.870881 
L 556.271875 296.271508 
L 565.391511 295.672136 
L 574.511148 295.072763 
L 583.630784 294.473391 
L 592.75042 293.874018 
L 601.870057 293.274646 
L 610.989693 292.675274 
L 620.10933 292.075901 
L 629.228966 291.476529 
L 638.348602 290.877156 
L 647.468239 290.277784 
L 656.587875 289.678412 
L 665.707511 289.079039 
L 674.827148 288.479667 
L 683.946784 287.880294 
L 693.06642 287.280922 
L 702.186057 286.681549 
L 711.305693 286.082177 
L 720.42533 285.482805 
L 729.544966 284.883432 
L 738.664602 284.28406 
L 747.784239 283.684687 
L 756.903875 283.085315 
L 766.023511 282.485942 
L 775.143148 281.88657 
L 784.262784 281.287198 
L 793.38242 280.687825 
L 802.502057 280.088453 
L 811.621693 279.48908 
L 820.74133 278.889708 
L 829.860966 278.290335 
L 838.980602 277.690963 
L 848.100239 277.091591 
L 857.219875 276.492218 
L 866.339511 275.892846 
L 875.459148 275.293473 
L 884.578784 274.694101 
L 893.69842 274.094728 
L 902.818057 273.495356 
L 911.937693 272.895984 
L 921.05733 272.296611 
L 930.176966 271.697239 
L 939.296602 271.097866 
L 948.416239 270.498494 
L 957.535875 269.899122 
" clip-path="url(#p4135df8a9f)" style="fill: none; stroke-dasharray: 1.5,2.475; stroke-dashoffset: 0; stroke: #e2321d; stroke-width: 1.5"/>
   </g>
   <g id="line2d_46">
    <path d="M 54.691875 359.090097 
L 63.811511 356.135356 
L 72.931148 353.180615 
L 82.050784 350.225874 
L 91.17042 347.271133 
L 100.290057 344.316391 
L 109.409693 341.36165 
L 118.52933 338.406909 
L 127.648966 335.452168 
L 136.768602 332.497427 
L 145.888239 329.542686 
L 155.007875 326.587944 
L 164.127511 323.633203 
L 173.247148 320.678462 
L 182.366784 317.723721 
L 191.48642 314.76898 
L 200.606057 311.814238 
L 209.725693 308.859497 
L 218.84533 305.904756 
L 227.964966 302.950015 
L 237.084602 299.995274 
L 246.204239 297.040533 
L 255.323875 294.085791 
L 264.443511 291.13105 
L 273.563148 288.176309 
L 282.682784 285.221568 
L 291.80242 282.266827 
L 300.922057 279.312085 
L 310.041693 276.357344 
L 319.16133 273.402603 
L 328.280966 270.447862 
L 337.400602 267.493121 
L 346.520239 264.538379 
L 355.639875 261.583638 
L 364.759511 258.628897 
L 373.879148 255.674156 
L 382.998784 252.719415 
L 392.11842 249.764674 
L 401.238057 246.809932 
L 410.357693 243.855191 
L 419.47733 240.90045 
L 428.596966 237.945709 
L 437.716602 234.990968 
L 446.836239 232.036226 
L 455.955875 229.081485 
L 465.075511 226.126744 
L 474.195148 223.172003 
L 483.314784 220.217262 
L 492.43442 217.262521 
L 501.554057 214.307779 
L 510.673693 211.353038 
L 519.79333 208.398297 
L 528.912966 205.443556 
L 538.032602 202.488815 
L 547.152239 199.534073 
L 556.271875 196.579332 
L 565.391511 193.624591 
L 574.511148 190.66985 
L 583.630784 187.715109 
L 592.75042 184.760368 
L 601.870057 181.805626 
L 610.989693 178.850885 
L 620.10933 175.896144 
L 629.228966 172.941403 
L 638.348602 169.986662 
L 647.468239 167.03192 
L 656.587875 164.077179 
L 665.707511 161.122438 
L 674.827148 158.167697 
L 683.946784 155.212956 
L 693.06642 152.258214 
L 702.186057 149.303473 
L 711.305693 146.348732 
L 720.42533 143.393991 
L 729.544966 140.43925 
L 738.664602 137.484509 
L 747.784239 134.529767 
L 756.903875 131.575026 
L 766.023511 128.620285 
L 775.143148 125.665544 
L 784.262784 122.710803 
L 793.38242 119.756061 
L 802.502057 116.80132 
L 811.621693 113.846579 
L 820.74133 110.891838 
L 829.860966 107.937097 
L 838.980602 104.982356 
L 848.100239 102.027614 
L 857.219875 99.072873 
L 866.339511 96.118132 
L 875.459148 93.163391 
L 884.578784 90.20865 
L 893.69842 87.253908 
L 902.818057 84.299167 
L 911.937693 81.344426 
L 921.05733 78.389685 
L 930.176966 75.434944 
L 939.296602 72.480202 
L 948.416239 69.525461 
L 957.535875 66.57072 
" clip-path="url(#p4135df8a9f)" style="fill: none; stroke-dasharray: 1.5,2.475; stroke-dashoffset: 0; stroke: #48b585; stroke-width: 1.5"/>
   </g>
   <g id="line2d_47">
    <path d="M 54.691875 417.18033 
L 72.394699 415.371583 
L 90.097522 413.947334 
L 107.800346 411.221653 
L 125.503169 410.50918 
L 143.205993 406.235039 
L 160.908816 403.637059 
L 178.61164 400.659466 
L 231.72011 393.275843 
L 249.422934 409.502925 
L 267.125757 396.944975 
L 284.828581 383.308197 
L 302.531404 381.10588 
L 320.234228 377.912661 
L 337.937051 371.838147 
L 355.639875 372.833934 
L 373.342699 368.797051 
L 391.045522 368.515133 
L 408.748346 365.698037 
L 426.451169 363.493627 
L 444.153993 362.28012 
L 461.856816 363.83207 
L 479.55964 365.76433 
L 497.262463 358.479798 
L 514.965287 361.982151 
L 532.66811 350.724936 
L 550.370934 345.913474 
L 568.073757 339.136256 
L 585.776581 340.57795 
L 603.479404 337.011398 
L 621.182228 334.594153 
L 674.290699 322.21624 
L 691.993522 317.61203 
L 709.696346 310.321218 
L 727.399169 311.490064 
L 745.101993 311.922712 
L 762.804816 303.613782 
L 780.50764 306.6793 
L 798.210463 306.610914 
L 815.913287 298.028439 
L 833.61611 299.318008 
L 851.318934 297.734657 
L 869.021757 300.938344 
L 886.724581 274.407964 
L 904.427404 267.612603 
L 922.130228 268.809363 
L 939.833051 262.789279 
L 957.535875 258.337194 
" clip-path="url(#p4135df8a9f)" style="fill: none; stroke: #4ac1fa; stroke-width: 1.5; stroke-linecap: square"/>
   </g>
   <g id="line2d_48">
    <path d="M 54.691875 235.076096 
L 72.394699 197.438532 
L 90.097522 163.74225 
L 107.800346 261.602289 
L 125.503169 280.451775 
L 143.205993 327.97534 
L 160.908816 220.098808 
L 178.61164 252.700212 
L 231.72011 244.630634 
L 249.422934 221.008066 
L 267.125757 251.678605 
L 284.828581 297.375978 
L 302.531404 328.108623 
L 320.234228 333.82376 
L 337.937051 371.57786 
L 355.639875 406.890291 
L 373.342699 359.877529 
L 391.045522 347.353772 
L 408.748346 350.326481 
L 426.451169 381.91535 
L 444.153993 340.45653 
L 461.856816 322.033411 
L 479.55964 347.500314 
L 497.262463 384.167212 
L 514.965287 375.538681 
L 532.66811 333.559287 
L 550.370934 299.504326 
L 568.073757 330.467251 
L 585.776581 378.611177 
L 603.479404 349.332787 
L 621.182228 333.159437 
L 674.290699 294.614708 
L 691.993522 250.613733 
L 709.696346 292.432628 
L 727.399169 326.604125 
L 745.101993 260.82422 
L 762.804816 225.292674 
L 780.50764 334.993305 
L 798.210463 374.225385 
L 815.913287 383.866452 
L 833.61611 352.008225 
L 851.318934 287.729329 
L 869.021757 281.190765 
L 886.724581 297.147093 
L 904.427404 356.668958 
L 922.130228 231.470466 
L 939.833051 254.216573 
L 957.535875 236.995098 
" clip-path="url(#p4135df8a9f)" style="fill: none; stroke: #e9a942; stroke-width: 1.5; stroke-linecap: square"/>
   </g>
   <g id="line2d_49">
    <path d="M 54.691875 379.933544 
L 72.394699 383.786203 
L 90.097522 391.490822 
L 107.800346 390.070063 
L 125.503169 394.832677 
L 143.205993 393.857824 
L 160.908816 396.698645 
L 178.61164 390.218 
L 231.72011 389.650674 
L 249.422934 401.957409 
L 267.125757 381.153332 
L 284.828581 352.44506 
L 302.531404 386.208333 
L 320.234228 384.778501 
L 337.937051 382.169356 
L 355.639875 386.451871 
L 373.342699 384.661966 
L 391.045522 382.976035 
L 408.748346 384.403773 
L 426.451169 384.918763 
L 444.153993 387.650027 
L 461.856816 380.154753 
L 479.55964 375.803154 
L 497.262463 373.824139 
L 514.965287 354.516186 
L 532.66811 370.274334 
L 550.370934 377.049459 
L 568.073757 368.435581 
L 585.776581 367.424442 
L 603.479404 368.245077 
L 621.182228 364.362412 
L 674.290699 347.75781 
L 691.993522 336.101442 
L 709.696346 334.390389 
L 727.399169 348.489822 
L 745.101993 341.174585 
L 762.804816 321.437474 
L 780.50764 342.090124 
L 798.210463 363.57597 
L 815.913287 354.733208 
L 833.61611 342.415308 
L 851.318934 338.620568 
L 869.021757 342.466946 
L 886.724581 337.046986 
L 904.427404 331.783338 
L 922.130228 336.790887 
L 939.833051 329.861544 
L 957.535875 332.476272 
" clip-path="url(#p4135df8a9f)" style="fill: none; stroke: #9a5689; stroke-width: 1.5; stroke-linecap: square"/>
   </g>
   <g id="line2d_50">
    <path d="M 54.691875 525.897733 
L 72.394699 524.857983 
L 90.097522 525.673036 
L 107.800346 524.634681 
L 125.503169 525.533472 
L 143.205993 525.407865 
L 160.908816 524.873335 
L 178.61164 523.594931 
L 231.72011 521.878994 
L 249.422934 524.382071 
L 267.125757 521.913187 
L 284.828581 521.758969 
L 302.531404 521.802234 
L 320.234228 521.555206 
L 337.937051 519.600615 
L 355.639875 520.833661 
L 373.342699 519.658534 
L 391.045522 518.844179 
L 408.748346 519.417787 
L 426.451169 519.012354 
L 444.153993 518.375943 
L 461.856816 517.831644 
L 479.55964 517.416442 
L 497.262463 517.452728 
L 514.965287 515.341826 
L 532.66811 516.318075 
L 550.370934 514.15344 
L 568.073757 514.937789 
L 585.776581 514.533752 
L 603.479404 514.807297 
L 621.182228 515.149926 
L 674.290699 514.121341 
L 691.993522 513.706138 
L 709.696346 513.563085 
L 727.399169 513.556107 
L 745.101993 513.179285 
L 762.804816 512.5345 
L 780.50764 512.778737 
L 798.210463 513.969216 
L 815.913287 512.266538 
L 833.61611 511.819934 
L 851.318934 511.182127 
L 869.021757 511.32518 
L 886.724581 508.351773 
L 904.427404 506.817269 
L 922.130228 507.949132 
L 939.833051 507.000796 
L 957.535875 506.699338 
" clip-path="url(#p4135df8a9f)" style="fill: none; stroke: #be503b; stroke-width: 1.5; stroke-linecap: square"/>
   </g>
   <g id="line2d_51">
    <path d="M 54.691875 322.422794 
L 72.394699 324.024289 
L 90.097522 329.012997 
L 107.800346 325.502269 
L 125.503169 346.019543 
L 143.205993 322.08505 
L 160.908816 319.753637 
L 178.61164 314.645602 
L 231.72011 303.307439 
L 249.422934 331.436522 
L 267.125757 340.651919 
L 284.828581 308.536895 
L 302.531404 307.616471 
L 320.234228 301.595689 
L 337.937051 327.535714 
L 355.639875 329.340971 
L 373.342699 296.14991 
L 391.045522 293.426323 
L 408.748346 283.411923 
L 426.451169 284.203947 
L 444.153993 314.712592 
L 461.856816 288.418774 
L 479.55964 295.415805 
L 497.262463 306.330391 
L 514.965287 271.967692 
L 532.66811 299.421983 
L 550.370934 305.631874 
L 568.073757 295.620265 
L 585.776581 303.541906 
L 603.479404 300.977422 
L 621.182228 299.699017 
L 674.290699 292.620342 
L 691.993522 295.653063 
L 709.696346 293.323743 
L 727.399169 283.039287 
L 745.101993 286.787971 
L 762.804816 281.810428 
L 780.50764 288.61207 
L 798.210463 306.681394 
L 815.913287 285.859174 
L 833.61611 279.709295 
L 851.318934 274.294918 
L 869.021757 274.950868 
L 886.724581 269.29016 
L 904.427404 264.542898 
L 922.130228 265.374698 
L 939.833051 262.533877 
L 957.535875 260.822127 
" clip-path="url(#p4135df8a9f)" style="fill: none; stroke: #e2321d; stroke-width: 1.5; stroke-linecap: square"/>
   </g>
   <g id="line2d_52">
    <path d="M 54.691875 315.142449 
L 72.394699 314.331583 
L 90.097522 325.491104 
L 107.800346 317.538759 
L 125.503169 323.110844 
L 143.205993 316.542972 
L 160.908816 315.283408 
L 178.61164 300.88182 
L 231.72011 294.402571 
L 249.422934 305.763762 
L 267.125757 292.835968 
L 284.828581 292.267245 
L 302.531404 289.973514 
L 320.234228 288.156394 
L 337.937051 273.301224 
L 355.639875 267.730535 
L 373.342699 270.566471 
L 391.045522 279.497158 
L 408.748346 264.175845 
L 426.451169 268.008267 
L 444.153993 261.423647 
L 461.856816 253.919302 
L 479.55964 243.265002 
L 497.262463 239.87081 
L 514.965287 243.580416 
L 532.66811 221.039468 
L 550.370934 218.213301 
L 568.073757 215.181277 
L 585.776581 198.738569 
L 603.479404 181.103986 
L 621.182228 186.772369 
L 674.290699 164.751296 
L 691.993522 167.782622 
L 709.696346 165.66823 
L 727.399169 133.008907 
L 745.101993 95.783754 
L 762.804816 72.081635 
L 780.50764 89.273801 
L 798.210463 113.614425 
L 815.913287 95.298072 
L 833.61611 83.451898 
L 851.318934 78.103813 
L 869.021757 115.857913 
L 886.724581 113.996829 
L 904.427404 85.898451 
L 922.130228 48.053635 
L 939.833051 62.481042 
L 957.535875 49.401123 
" clip-path="url(#p4135df8a9f)" style="fill: none; stroke: #48b585; stroke-width: 6; stroke-linecap: square"/>
   </g>
   <g id="patch_3">
    <path d="M 54.691875 567.74175 
L 54.691875 24.14175 
" style="fill: none; stroke: #ffffff; stroke-linejoin: miter; stroke-linecap: square"/>
   </g>
   <g id="patch_4">
    <path d="M 957.535875 567.74175 
L 957.535875 24.14175 
" style="fill: none; stroke: #ffffff; stroke-linejoin: miter; stroke-linecap: square"/>
   </g>
   <g id="patch_5">
    <path d="M 54.691875 567.74175 
L 957.535875 567.74175 
" style="fill: none; stroke: #ffffff; stroke-linejoin: miter; stroke-linecap: square"/>
   </g>
   <g id="patch_6">
    <path d="M 54.691875 24.14175 
L 957.535875 24.14175 
" style="fill: none; stroke: #ffffff; stroke-linejoin: miter; stroke-linecap: square"/>
   </g>
   <g id="text_23">
    <!-- Enterprise Linux 8 and 9 Instances by Distribution (System Age &gt; 1 Week) -->
    <g transform="translate(54.691875 18.14175)scale(0.144 -0.144)">
     <defs>
      <path id="DejaVuSans-45" d="M 628 4666 
L 3578 4666 
L 3578 4134 
L 1259 4134 
L 1259 2753 
L 3481 2753 
L 3481 2222 
L 1259 2222 
L 1259 531 
L 3634 531 
L 3634 0 
L 628 0 
L 628 4666 
z
" transform="scale(0.015625)"/>
      <path id="DejaVuSans-72" d="M 2631 2963 
Q 2534 3019 2420 3045 
Q 2306 3072 2169 3072 
Q 1681 3072 1420 2755 
Q 1159 2438 1159 1844 
L 1159 0 
L 581 0 
L 581 3500 
L 1159 3500 
L 1159 2956 
Q 1341 3275 1631 3429 
Q 1922 3584 2338 3584 
Q 2397 3584 2469 3576 
Q 2541 3569 2628 3553 
L 2631 2963 
z
" transform="scale(0.015625)"/>
      <path id="DejaVuSans-70" d="M 1159 525 
L 1159 -1331 
L 581 -1331 
L 581 3500 
L 1159 3500 
L 1159 2969 
Q 1341 3281 1617 3432 
Q 1894 3584 2278 3584 
Q 2916 3584 3314 3078 
Q 3713 2572 3713 1747 
Q 3713 922 3314 415 
Q 2916 -91 2278 -91 
Q 1894 -91 1617 61 
Q 1341 213 1159 525 
z
M 3116 1747 
Q 3116 2381 2855 2742 
Q 2594 3103 2138 3103 
Q 1681 3103 1420 2742 
Q 1159 2381 1159 1747 
Q 1159 1113 1420 752 
Q 1681 391 2138 391 
Q 2594 391 2855 752 
Q 3116 1113 3116 1747 
z
" transform="scale(0.015625)"/>
      <path id="DejaVuSans-69" d="M 603 3500 
L 1178 3500 
L 1178 0 
L 603 0 
L 603 3500 
z
M 603 4863 
L 1178 4863 
L 1178 4134 
L 603 4134 
L 603 4863 
z
" transform="scale(0.015625)"/>
      <path id="DejaVuSans-20" transform="scale(0.015625)"/>
      <path id="DejaVuSans-4c" d="M 628 4666 
L 1259 4666 
L 1259 531 
L 3531 531 
L 3531 0 
L 628 0 
L 628 4666 
z
" transform="scale(0.015625)"/>
      <path id="DejaVuSans-75" d="M 544 1381 
L 544 3500 
L 1119 3500 
L 1119 1403 
Q 1119 906 1312 657 
Q 1506 409 1894 409 
Q 2359 409 2629 706 
Q 2900 1003 2900 1516 
L 2900 3500 
L 3475 3500 
L 3475 0 
L 2900 0 
L 2900 538 
Q 2691 219 2414 64 
Q 2138 -91 1772 -91 
Q 1169 -91 856 284 
Q 544 659 544 1381 
z
M 1991 3584 
L 1991 3584 
z
" transform="scale(0.015625)"/>
      <path id="DejaVuSans-78" d="M 3513 3500 
L 2247 1797 
L 3578 0 
L 2900 0 
L 1881 1375 
L 863 0 
L 184 0 
L 1544 1831 
L 300 3500 
L 978 3500 
L 1906 2253 
L 2834 3500 
L 3513 3500 
z
" transform="scale(0.015625)"/>
      <path id="DejaVuSans-64" d="M 2906 2969 
L 2906 4863 
L 3481 4863 
L 3481 0 
L 2906 0 
L 2906 525 
Q 2725 213 2448 61 
Q 2172 -91 1784 -91 
Q 1150 -91 751 415 
Q 353 922 353 1747 
Q 353 2572 751 3078 
Q 1150 3584 1784 3584 
Q 2172 3584 2448 3432 
Q 2725 3281 2906 2969 
z
M 947 1747 
Q 947 1113 1208 752 
Q 1469 391 1925 391 
Q 2381 391 2643 752 
Q 2906 1113 2906 1747 
Q 2906 2381 2643 2742 
Q 2381 3103 1925 3103 
Q 1469 3103 1208 2742 
Q 947 2381 947 1747 
z
" transform="scale(0.015625)"/>
      <path id="DejaVuSans-62" d="M 3116 1747 
Q 3116 2381 2855 2742 
Q 2594 3103 2138 3103 
Q 1681 3103 1420 2742 
Q 1159 2381 1159 1747 
Q 1159 1113 1420 752 
Q 1681 391 2138 391 
Q 2594 391 2855 752 
Q 3116 1113 3116 1747 
z
M 1159 2969 
Q 1341 3281 1617 3432 
Q 1894 3584 2278 3584 
Q 2916 3584 3314 3078 
Q 3713 2572 3713 1747 
Q 3713 922 3314 415 
Q 2916 -91 2278 -91 
Q 1894 -91 1617 61 
Q 1341 213 1159 525 
L 1159 0 
L 581 0 
L 581 4863 
L 1159 4863 
L 1159 2969 
z
" transform="scale(0.015625)"/>
      <path id="DejaVuSans-79" d="M 2059 -325 
Q 1816 -950 1584 -1140 
Q 1353 -1331 966 -1331 
L 506 -1331 
L 506 -850 
L 844 -850 
Q 1081 -850 1212 -737 
Q 1344 -625 1503 -206 
L 1606 56 
L 191 3500 
L 800 3500 
L 1894 763 
L 2988 3500 
L 3597 3500 
L 2059 -325 
z
" transform="scale(0.015625)"/>
      <path id="DejaVuSans-6f" d="M 1959 3097 
Q 1497 3097 1228 2736 
Q 959 2375 959 1747 
Q 959 1119 1226 758 
Q 1494 397 1959 397 
Q 2419 397 2687 759 
Q 2956 1122 2956 1747 
Q 2956 2369 2687 2733 
Q 2419 3097 1959 3097 
z
M 1959 3584 
Q 2709 3584 3137 3096 
Q 3566 2609 3566 1747 
Q 3566 888 3137 398 
Q 2709 -91 1959 -91 
Q 1206 -91 779 398 
Q 353 888 353 1747 
Q 353 2609 779 3096 
Q 1206 3584 1959 3584 
z
" transform="scale(0.015625)"/>
      <path id="DejaVuSans-28" d="M 1984 4856 
Q 1566 4138 1362 3434 
Q 1159 2731 1159 2009 
Q 1159 1288 1364 580 
Q 1569 -128 1984 -844 
L 1484 -844 
Q 1016 -109 783 600 
Q 550 1309 550 2009 
Q 550 2706 781 3412 
Q 1013 4119 1484 4856 
L 1984 4856 
z
" transform="scale(0.015625)"/>
      <path id="DejaVuSans-53" d="M 3425 4513 
L 3425 3897 
Q 3066 4069 2747 4153 
Q 2428 4238 2131 4238 
Q 1616 4238 1336 4038 
Q 1056 3838 1056 3469 
Q 1056 3159 1242 3001 
Q 1428 2844 1947 2747 
L 2328 2669 
Q 3034 2534 3370 2195 
Q 3706 1856 3706 1288 
Q 3706 609 3251 259 
Q 2797 -91 1919 -91 
Q 1588 -91 1214 -16 
Q 841 59 441 206 
L 441 856 
Q 825 641 1194 531 
Q 1563 422 1919 422 
Q 2459 422 2753 634 
Q 3047 847 3047 1241 
Q 3047 1584 2836 1778 
Q 2625 1972 2144 2069 
L 1759 2144 
Q 1053 2284 737 2584 
Q 422 2884 422 3419 
Q 422 4038 858 4394 
Q 1294 4750 2059 4750 
Q 2388 4750 2728 4690 
Q 3069 4631 3425 4513 
z
" transform="scale(0.015625)"/>
      <path id="DejaVuSans-6d" d="M 3328 2828 
Q 3544 3216 3844 3400 
Q 4144 3584 4550 3584 
Q 5097 3584 5394 3201 
Q 5691 2819 5691 2113 
L 5691 0 
L 5113 0 
L 5113 2094 
Q 5113 2597 4934 2840 
Q 4756 3084 4391 3084 
Q 3944 3084 3684 2787 
Q 3425 2491 3425 1978 
L 3425 0 
L 2847 0 
L 2847 2094 
Q 2847 2600 2669 2842 
Q 2491 3084 2119 3084 
Q 1678 3084 1418 2786 
Q 1159 2488 1159 1978 
L 1159 0 
L 581 0 
L 581 3500 
L 1159 3500 
L 1159 2956 
Q 1356 3278 1631 3431 
Q 1906 3584 2284 3584 
Q 2666 3584 2933 3390 
Q 3200 3197 3328 2828 
z
" transform="scale(0.015625)"/>
      <path id="DejaVuSans-41" d="M 2188 4044 
L 1331 1722 
L 3047 1722 
L 2188 4044 
z
M 1831 4666 
L 2547 4666 
L 4325 0 
L 3669 0 
L 3244 1197 
L 1141 1197 
L 716 0 
L 50 0 
L 1831 4666 
z
" transform="scale(0.015625)"/>
      <path id="DejaVuSans-67" d="M 2906 1791 
Q 2906 2416 2648 2759 
Q 2391 3103 1925 3103 
Q 1463 3103 1205 2759 
Q 947 2416 947 1791 
Q 947 1169 1205 825 
Q 1463 481 1925 481 
Q 2391 481 2648 825 
Q 2906 1169 2906 1791 
z
M 3481 434 
Q 3481 -459 3084 -895 
Q 2688 -1331 1869 -1331 
Q 1566 -1331 1297 -1286 
Q 1028 -1241 775 -1147 
L 775 -588 
Q 1028 -725 1275 -790 
Q 1522 -856 1778 -856 
Q 2344 -856 2625 -561 
Q 2906 -266 2906 331 
L 2906 616 
Q 2728 306 2450 153 
Q 2172 0 1784 0 
Q 1141 0 747 490 
Q 353 981 353 1791 
Q 353 2603 747 3093 
Q 1141 3584 1784 3584 
Q 2172 3584 2450 3431 
Q 2728 3278 2906 2969 
L 2906 3500 
L 3481 3500 
L 3481 434 
z
" transform="scale(0.015625)"/>
      <path id="DejaVuSans-3e" d="M 678 3150 
L 678 3719 
L 4684 2266 
L 4684 1747 
L 678 294 
L 678 863 
L 3897 2003 
L 678 3150 
z
" transform="scale(0.015625)"/>
      <path id="DejaVuSans-57" d="M 213 4666 
L 850 4666 
L 1831 722 
L 2809 4666 
L 3519 4666 
L 4500 722 
L 5478 4666 
L 6119 4666 
L 4947 0 
L 4153 0 
L 3169 4050 
L 2175 0 
L 1381 0 
L 213 4666 
z
" transform="scale(0.015625)"/>
      <path id="DejaVuSans-29" d="M 513 4856 
L 1013 4856 
Q 1481 4119 1714 3412 
Q 1947 2706 1947 2009 
Q 1947 1309 1714 600 
Q 1481 -109 1013 -844 
L 513 -844 
Q 928 -128 1133 580 
Q 1338 1288 1338 2009 
Q 1338 2731 1133 3434 
Q 928 4138 513 4856 
z
" transform="scale(0.015625)"/>
     </defs>
     <use xlink:href="#DejaVuSans-45"/>
     <use xlink:href="#DejaVuSans-6e" x="63.183594"/>
     <use xlink:href="#DejaVuSans-74" x="126.5625"/>
     <use xlink:href="#DejaVuSans-65" x="165.771484"/>
     <use xlink:href="#DejaVuSans-72" x="227.294922"/>
     <use xlink:href="#DejaVuSans-70" x="268.408203"/>
     <use xlink:href="#DejaVuSans-72" x="331.884766"/>
     <use xlink:href="#DejaVuSans-69" x="372.998047"/>
     <use xlink:href="#DejaVuSans-73" x="400.78125"/>
     <use xlink:href="#DejaVuSans-65" x="452.880859"/>
     <use xlink:href="#DejaVuSans-20" x="514.404297"/>
     <use xlink:href="#DejaVuSans-4c" x="546.191406"/>
     <use xlink:href="#DejaVuSans-69" x="601.904297"/>
     <use xlink:href="#DejaVuSans-6e" x="629.6875"/>
     <use xlink:href="#DejaVuSans-75" x="693.066406"/>
     <use xlink:href="#DejaVuSans-78" x="756.445312"/>
     <use xlink:href="#DejaVuSans-20" x="815.625"/>
     <use xlink:href="#DejaVuSans-38" x="847.412109"/>
     <use xlink:href="#DejaVuSans-20" x="911.035156"/>
     <use xlink:href="#DejaVuSans-61" x="942.822266"/>
     <use xlink:href="#DejaVuSans-6e" x="1004.101562"/>
     <use xlink:href="#DejaVuSans-64" x="1067.480469"/>
     <use xlink:href="#DejaVuSans-20" x="1130.957031"/>
     <use xlink:href="#DejaVuSans-39" x="1162.744141"/>
     <use xlink:href="#DejaVuSans-20" x="1226.367188"/>
     <use xlink:href="#DejaVuSans-49" x="1258.154297"/>
     <use xlink:href="#DejaVuSans-6e" x="1287.646484"/>
     <use xlink:href="#DejaVuSans-73" x="1351.025391"/>
     <use xlink:href="#DejaVuSans-74" x="1403.125"/>
     <use xlink:href="#DejaVuSans-61" x="1442.333984"/>
     <use xlink:href="#DejaVuSans-6e" x="1503.613281"/>
     <use xlink:href="#DejaVuSans-63" x="1566.992188"/>
     <use xlink:href="#DejaVuSans-65" x="1621.972656"/>
     <use xlink:href="#DejaVuSans-73" x="1683.496094"/>
     <use xlink:href="#DejaVuSans-20" x="1735.595703"/>
     <use xlink:href="#DejaVuSans-62" x="1767.382812"/>
     <use xlink:href="#DejaVuSans-79" x="1830.859375"/>
     <use xlink:href="#DejaVuSans-20" x="1890.039062"/>
     <use xlink:href="#DejaVuSans-44" x="1921.826172"/>
     <use xlink:href="#DejaVuSans-69" x="1998.828125"/>
     <use xlink:href="#DejaVuSans-73" x="2026.611328"/>
     <use xlink:href="#DejaVuSans-74" x="2078.710938"/>
     <use xlink:href="#DejaVuSans-72" x="2117.919922"/>
     <use xlink:href="#DejaVuSans-69" x="2159.033203"/>
     <use xlink:href="#DejaVuSans-62" x="2186.816406"/>
     <use xlink:href="#DejaVuSans-75" x="2250.292969"/>
     <use xlink:href="#DejaVuSans-74" x="2313.671875"/>
     <use xlink:href="#DejaVuSans-69" x="2352.880859"/>
     <use xlink:href="#DejaVuSans-6f" x="2380.664062"/>
     <use xlink:href="#DejaVuSans-6e" x="2441.845703"/>
     <use xlink:href="#DejaVuSans-20" x="2505.224609"/>
     <use xlink:href="#DejaVuSans-28" x="2537.011719"/>
     <use xlink:href="#DejaVuSans-53" x="2576.025391"/>
     <use xlink:href="#DejaVuSans-79" x="2639.501953"/>
     <use xlink:href="#DejaVuSans-73" x="2698.681641"/>
     <use xlink:href="#DejaVuSans-74" x="2750.78125"/>
     <use xlink:href="#DejaVuSans-65" x="2789.990234"/>
     <use xlink:href="#DejaVuSans-6d" x="2851.513672"/>
     <use xlink:href="#DejaVuSans-20" x="2948.925781"/>
     <use xlink:href="#DejaVuSans-41" x="2980.712891"/>
     <use xlink:href="#DejaVuSans-67" x="3049.121094"/>
     <use xlink:href="#DejaVuSans-65" x="3112.597656"/>
     <use xlink:href="#DejaVuSans-20" x="3174.121094"/>
     <use xlink:href="#DejaVuSans-3e" x="3205.908203"/>
     <use xlink:href="#DejaVuSans-20" x="3289.697266"/>
     <use xlink:href="#DejaVuSans-31" x="3321.484375"/>
     <use xlink:href="#DejaVuSans-20" x="3385.107422"/>
     <use xlink:href="#DejaVuSans-57" x="3416.894531"/>
     <use xlink:href="#DejaVuSans-65" x="3509.896484"/>
     <use xlink:href="#DejaVuSans-65" x="3571.419922"/>
     <use xlink:href="#DejaVuSans-6b" x="3632.943359"/>
     <use xlink:href="#DejaVuSans-29" x="3690.853516"/>
    </g>
   </g>
   <g id="text_24">
    <!-- 2024-03-07 11:55 UTC -->
    <g transform="translate(794.653875 18.14175)scale(0.144 -0.144)">
     <defs>
      <path id="DejaVuSans-3a" d="M 750 794 
L 1409 794 
L 1409 0 
L 750 0 
L 750 794 
z
M 750 3309 
L 1409 3309 
L 1409 2516 
L 750 2516 
L 750 3309 
z
" transform="scale(0.015625)"/>
      <path id="DejaVuSans-55" d="M 556 4666 
L 1191 4666 
L 1191 1831 
Q 1191 1081 1462 751 
Q 1734 422 2344 422 
Q 2950 422 3222 751 
Q 3494 1081 3494 1831 
L 3494 4666 
L 4128 4666 
L 4128 1753 
Q 4128 841 3676 375 
Q 3225 -91 2344 -91 
Q 1459 -91 1007 375 
Q 556 841 556 1753 
L 556 4666 
z
" transform="scale(0.015625)"/>
      <path id="DejaVuSans-54" d="M -19 4666 
L 3928 4666 
L 3928 4134 
L 2272 4134 
L 2272 0 
L 1638 0 
L 1638 4134 
L -19 4134 
L -19 4666 
z
" transform="scale(0.015625)"/>
      <path id="DejaVuSans-43" d="M 4122 4306 
L 4122 3641 
Q 3803 3938 3442 4084 
Q 3081 4231 2675 4231 
Q 1875 4231 1450 3742 
Q 1025 3253 1025 2328 
Q 1025 1406 1450 917 
Q 1875 428 2675 428 
Q 3081 428 3442 575 
Q 3803 722 4122 1019 
L 4122 359 
Q 3791 134 3420 21 
Q 3050 -91 2638 -91 
Q 1578 -91 968 557 
Q 359 1206 359 2328 
Q 359 3453 968 4101 
Q 1578 4750 2638 4750 
Q 3056 4750 3426 4639 
Q 3797 4528 4122 4306 
z
" transform="scale(0.015625)"/>
     </defs>
     <use xlink:href="#DejaVuSans-32"/>
     <use xlink:href="#DejaVuSans-30" x="63.623047"/>
     <use xlink:href="#DejaVuSans-32" x="127.246094"/>
     <use xlink:href="#DejaVuSans-34" x="190.869141"/>
     <use xlink:href="#DejaVuSans-2d" x="254.492188"/>
     <use xlink:href="#DejaVuSans-30" x="290.576172"/>
     <use xlink:href="#DejaVuSans-33" x="354.199219"/>
     <use xlink:href="#DejaVuSans-2d" x="417.822266"/>
     <use xlink:href="#DejaVuSans-30" x="453.90625"/>
     <use xlink:href="#DejaVuSans-37" x="517.529297"/>
     <use xlink:href="#DejaVuSans-20" x="581.152344"/>
     <use xlink:href="#DejaVuSans-31" x="612.939453"/>
     <use xlink:href="#DejaVuSans-31" x="676.5625"/>
     <use xlink:href="#DejaVuSans-3a" x="740.185547"/>
     <use xlink:href="#DejaVuSans-35" x="773.876953"/>
     <use xlink:href="#DejaVuSans-35" x="837.5"/>
     <use xlink:href="#DejaVuSans-20" x="901.123047"/>
     <use xlink:href="#DejaVuSans-55" x="932.910156"/>
     <use xlink:href="#DejaVuSans-54" x="1006.103516"/>
     <use xlink:href="#DejaVuSans-43" x="1061.3125"/>
    </g>
   </g>
   <g id="legend_1">
    <g id="patch_7">
     <path d="M 61.691875 134.888625 
L 170.660625 134.888625 
Q 172.660625 134.888625 172.660625 132.888625 
L 172.660625 31.14175 
Q 172.660625 29.14175 170.660625 29.14175 
L 61.691875 29.14175 
Q 59.691875 29.14175 59.691875 31.14175 
L 59.691875 132.888625 
Q 59.691875 134.888625 61.691875 134.888625 
z
" style="fill: #e5e5e5; opacity: 0.8; stroke: #cccccc; stroke-width: 0.5; stroke-linejoin: miter"/>
    </g>
    <g id="text_25">
     <!-- Distribution -->
     <g transform="translate(87.0075 40.740187)scale(0.1 -0.1)">
      <use xlink:href="#DejaVuSans-44"/>
      <use xlink:href="#DejaVuSans-69" x="77.001953"/>
      <use xlink:href="#DejaVuSans-73" x="104.785156"/>
      <use xlink:href="#DejaVuSans-74" x="156.884766"/>
      <use xlink:href="#DejaVuSans-72" x="196.09375"/>
      <use xlink:href="#DejaVuSans-69" x="237.207031"/>
      <use xlink:href="#DejaVuSans-62" x="264.990234"/>
      <use xlink:href="#DejaVuSans-75" x="328.466797"/>
      <use xlink:href="#DejaVuSans-74" x="391.845703"/>
      <use xlink:href="#DejaVuSans-69" x="431.054688"/>
      <use xlink:href="#DejaVuSans-6f" x="458.837891"/>
      <use xlink:href="#DejaVuSans-6e" x="520.019531"/>
     </g>
    </g>
    <g id="line2d_53">
     <path d="M 63.691875 51.918312 
L 73.691875 51.918312 
L 83.691875 51.918312 
" style="fill: none; stroke: #4ac1fa; stroke-width: 1.5; stroke-linecap: square"/>
    </g>
    <g id="text_26">
     <!-- AlmaLinux -->
     <g transform="translate(91.691875 55.418312)scale(0.1 -0.1)">
      <defs>
       <path id="DejaVuSans-6c" d="M 603 4863 
L 1178 4863 
L 1178 0 
L 603 0 
L 603 4863 
z
" transform="scale(0.015625)"/>
      </defs>
      <use xlink:href="#DejaVuSans-41"/>
      <use xlink:href="#DejaVuSans-6c" x="68.408203"/>
      <use xlink:href="#DejaVuSans-6d" x="96.191406"/>
      <use xlink:href="#DejaVuSans-61" x="193.603516"/>
      <use xlink:href="#DejaVuSans-4c" x="254.882812"/>
      <use xlink:href="#DejaVuSans-69" x="310.595703"/>
      <use xlink:href="#DejaVuSans-6e" x="338.378906"/>
      <use xlink:href="#DejaVuSans-75" x="401.757812"/>
      <use xlink:href="#DejaVuSans-78" x="465.136719"/>
     </g>
    </g>
    <g id="line2d_54">
     <path d="M 63.691875 66.596437 
L 73.691875 66.596437 
L 83.691875 66.596437 
" style="fill: none; stroke: #e9a942; stroke-width: 1.5; stroke-linecap: square"/>
    </g>
    <g id="text_27">
     <!-- CentOS Legacy -->
     <g transform="translate(91.691875 70.096437)scale(0.1 -0.1)">
      <defs>
       <path id="DejaVuSans-4f" d="M 2522 4238 
Q 1834 4238 1429 3725 
Q 1025 3213 1025 2328 
Q 1025 1447 1429 934 
Q 1834 422 2522 422 
Q 3209 422 3611 934 
Q 4013 1447 4013 2328 
Q 4013 3213 3611 3725 
Q 3209 4238 2522 4238 
z
M 2522 4750 
Q 3503 4750 4090 4092 
Q 4678 3434 4678 2328 
Q 4678 1225 4090 567 
Q 3503 -91 2522 -91 
Q 1538 -91 948 565 
Q 359 1222 359 2328 
Q 359 3434 948 4092 
Q 1538 4750 2522 4750 
z
" transform="scale(0.015625)"/>
      </defs>
      <use xlink:href="#DejaVuSans-43"/>
      <use xlink:href="#DejaVuSans-65" x="69.824219"/>
      <use xlink:href="#DejaVuSans-6e" x="131.347656"/>
      <use xlink:href="#DejaVuSans-74" x="194.726562"/>
      <use xlink:href="#DejaVuSans-4f" x="233.935547"/>
      <use xlink:href="#DejaVuSans-53" x="312.646484"/>
      <use xlink:href="#DejaVuSans-20" x="376.123047"/>
      <use xlink:href="#DejaVuSans-4c" x="407.910156"/>
      <use xlink:href="#DejaVuSans-65" x="461.873047"/>
      <use xlink:href="#DejaVuSans-67" x="523.396484"/>
      <use xlink:href="#DejaVuSans-61" x="586.873047"/>
      <use xlink:href="#DejaVuSans-63" x="648.152344"/>
      <use xlink:href="#DejaVuSans-79" x="703.132812"/>
     </g>
    </g>
    <g id="line2d_55">
     <path d="M 63.691875 81.274563 
L 73.691875 81.274563 
L 83.691875 81.274563 
" style="fill: none; stroke: #9a5689; stroke-width: 1.5; stroke-linecap: square"/>
    </g>
    <g id="text_28">
     <!-- CentOS Stream -->
     <g transform="translate(91.691875 84.774563)scale(0.1 -0.1)">
      <use xlink:href="#DejaVuSans-43"/>
      <use xlink:href="#DejaVuSans-65" x="69.824219"/>
      <use xlink:href="#DejaVuSans-6e" x="131.347656"/>
      <use xlink:href="#DejaVuSans-74" x="194.726562"/>
      <use xlink:href="#DejaVuSans-4f" x="233.935547"/>
      <use xlink:href="#DejaVuSans-53" x="312.646484"/>
      <use xlink:href="#DejaVuSans-20" x="376.123047"/>
      <use xlink:href="#DejaVuSans-53" x="407.910156"/>
      <use xlink:href="#DejaVuSans-74" x="471.386719"/>
      <use xlink:href="#DejaVuSans-72" x="510.595703"/>
      <use xlink:href="#DejaVuSans-65" x="549.458984"/>
      <use xlink:href="#DejaVuSans-61" x="610.982422"/>
      <use xlink:href="#DejaVuSans-6d" x="672.261719"/>
     </g>
    </g>
    <g id="line2d_56">
     <path d="M 63.691875 95.952687 
L 73.691875 95.952687 
L 83.691875 95.952687 
" style="fill: none; stroke: #be503b; stroke-width: 1.5; stroke-linecap: square"/>
    </g>
    <g id="text_29">
     <!-- Oracle -->
     <g transform="translate(91.691875 99.452687)scale(0.1 -0.1)">
      <use xlink:href="#DejaVuSans-4f"/>
      <use xlink:href="#DejaVuSans-72" x="78.710938"/>
      <use xlink:href="#DejaVuSans-61" x="119.824219"/>
      <use xlink:href="#DejaVuSans-63" x="181.103516"/>
      <use xlink:href="#DejaVuSans-6c" x="236.083984"/>
      <use xlink:href="#DejaVuSans-65" x="263.867188"/>
     </g>
    </g>
    <g id="line2d_57">
     <path d="M 63.691875 110.630812 
L 73.691875 110.630812 
L 83.691875 110.630812 
" style="fill: none; stroke: #e2321d; stroke-width: 1.5; stroke-linecap: square"/>
    </g>
    <g id="text_30">
     <!-- RHEL -->
     <g transform="translate(91.691875 114.130812)scale(0.1 -0.1)">
      <defs>
       <path id="DejaVuSans-52" d="M 2841 2188 
Q 3044 2119 3236 1894 
Q 3428 1669 3622 1275 
L 4263 0 
L 3584 0 
L 2988 1197 
Q 2756 1666 2539 1819 
Q 2322 1972 1947 1972 
L 1259 1972 
L 1259 0 
L 628 0 
L 628 4666 
L 2053 4666 
Q 2853 4666 3247 4331 
Q 3641 3997 3641 3322 
Q 3641 2881 3436 2590 
Q 3231 2300 2841 2188 
z
M 1259 4147 
L 1259 2491 
L 2053 2491 
Q 2509 2491 2742 2702 
Q 2975 2913 2975 3322 
Q 2975 3731 2742 3939 
Q 2509 4147 2053 4147 
L 1259 4147 
z
" transform="scale(0.015625)"/>
       <path id="DejaVuSans-48" d="M 628 4666 
L 1259 4666 
L 1259 2753 
L 3553 2753 
L 3553 4666 
L 4184 4666 
L 4184 0 
L 3553 0 
L 3553 2222 
L 1259 2222 
L 1259 0 
L 628 0 
L 628 4666 
z
" transform="scale(0.015625)"/>
      </defs>
      <use xlink:href="#DejaVuSans-52"/>
      <use xlink:href="#DejaVuSans-48" x="69.482422"/>
      <use xlink:href="#DejaVuSans-45" x="144.677734"/>
      <use xlink:href="#DejaVuSans-4c" x="207.861328"/>
     </g>
    </g>
    <g id="line2d_58">
     <path d="M 63.691875 125.308937 
L 73.691875 125.308937 
L 83.691875 125.308937 
" style="fill: none; stroke: #48b585; stroke-width: 6; stroke-linecap: square"/>
    </g>
    <g id="text_31">
     <!-- Rocky Linux -->
     <g transform="translate(91.691875 128.808937)scale(0.1 -0.1)">
      <use xlink:href="#DejaVuSans-52"/>
      <use xlink:href="#DejaVuSans-6f" x="64.982422"/>
      <use xlink:href="#DejaVuSans-63" x="126.164062"/>
      <use xlink:href="#DejaVuSans-6b" x="181.144531"/>
      <use xlink:href="#DejaVuSans-79" x="235.429688"/>
      <use xlink:href="#DejaVuSans-20" x="294.609375"/>
      <use xlink:href="#DejaVuSans-4c" x="326.396484"/>
      <use xlink:href="#DejaVuSans-69" x="382.109375"/>
      <use xlink:href="#DejaVuSans-6e" x="409.892578"/>
      <use xlink:href="#DejaVuSans-75" x="473.271484"/>
      <use xlink:href="#DejaVuSans-78" x="536.650391"/>
     </g>
    </g>
   </g>
  </g>
 </g>
 <defs>
  <clipPath id="p4135df8a9f">
   <rect x="54.691875" y="24.14175" width="902.844" height="543.6"/>
  </clipPath>
 </defs>
</svg>
