<?xml version="1.0" encoding="utf-8" standalone="no"?>
<!DOCTYPE svg PUBLIC "-//W3C//DTD SVG 1.1//EN"
  "http://www.w3.org/Graphics/SVG/1.1/DTD/svg11.dtd">
<svg xmlns:xlink="http://www.w3.org/1999/xlink" width="974.2765pt" height="644.743878pt" viewBox="0 0 974.2765 644.743878" xmlns="http://www.w3.org/2000/svg" version="1.1">
 <metadata>
  <rdf:RDF xmlns:dc="http://purl.org/dc/elements/1.1/" xmlns:cc="http://creativecommons.org/ns#" xmlns:rdf="http://www.w3.org/1999/02/22-rdf-syntax-ns#">
   <cc:Work>
    <dc:type rdf:resource="http://purl.org/dc/dcmitype/StillImage"/>
    <dc:date>2025-08-29T09:13:27.919039</dc:date>
    <dc:format>image/svg+xml</dc:format>
    <dc:creator>
     <cc:Agent>
      <dc:title>Matplotlib v3.6.3, https://matplotlib.org/</dc:title>
     </cc:Agent>
    </dc:creator>
   </cc:Work>
  </rdf:RDF>
 </metadata>
 <defs>
  <style type="text/css">*{stroke-linejoin: round; stroke-linecap: butt}</style>
 </defs>
 <g id="figure_1">
  <g id="patch_1">
   <path d="M 0 644.743878 
L 974.2765 644.743878 
L 974.2765 0 
L 0 0 
z
" style="fill: #ffffff"/>
  </g>
  <g id="axes_1">
   <g id="patch_2">
    <path d="M 64.2325 578.54175 
L 967.0765 578.54175 
L 967.0765 24.14175 
L 64.2325 24.14175 
z
" style="fill: #e5e5e5"/>
   </g>
   <g id="matplotlib.axis_1">
    <g id="xtick_1">
     <g id="line2d_1">
      <path d="M 81.935324 578.54175 
L 81.935324 24.14175 
" clip-path="url(#pf599568bc7)" style="fill: none; stroke: #ffffff; stroke-width: 0.8; stroke-linecap: square"/>
     </g>
     <g id="line2d_2">
      <defs>
       <path id="m2a053f22f2" d="M 0 0 
L 0 3.5 
" style="stroke: #555555; stroke-width: 0.8"/>
      </defs>
      <g>
       <use xlink:href="#m2a053f22f2" x="81.935324" y="578.54175" style="fill: #555555; stroke: #555555; stroke-width: 0.8"/>
      </g>
     </g>
     <g id="text_1">
      <!-- 2024-09 -->
      <g style="fill: #555555" transform="translate(69.114041 620.459567) rotate(-45) scale(0.1 -0.1)">
       <defs>
        <path id="DejaVuSans-32" d="M 1228 531 
L 3431 531 
L 3431 0 
L 469 0 
L 469 531 
Q 828 903 1448 1529 
Q 2069 2156 2228 2338 
Q 2531 2678 2651 2914 
Q 2772 3150 2772 3378 
Q 2772 3750 2511 3984 
Q 2250 4219 1831 4219 
Q 1534 4219 1204 4116 
Q 875 4013 500 3803 
L 500 4441 
Q 881 4594 1212 4672 
Q 1544 4750 1819 4750 
Q 2544 4750 2975 4387 
Q 3406 4025 3406 3419 
Q 3406 3131 3298 2873 
Q 3191 2616 2906 2266 
Q 2828 2175 2409 1742 
Q 1991 1309 1228 531 
z
" transform="scale(0.015625)"/>
        <path id="DejaVuSans-30" d="M 2034 4250 
Q 1547 4250 1301 3770 
Q 1056 3291 1056 2328 
Q 1056 1369 1301 889 
Q 1547 409 2034 409 
Q 2525 409 2770 889 
Q 3016 1369 3016 2328 
Q 3016 3291 2770 3770 
Q 2525 4250 2034 4250 
z
M 2034 4750 
Q 2819 4750 3233 4129 
Q 3647 3509 3647 2328 
Q 3647 1150 3233 529 
Q 2819 -91 2034 -91 
Q 1250 -91 836 529 
Q 422 1150 422 2328 
Q 422 3509 836 4129 
Q 1250 4750 2034 4750 
z
" transform="scale(0.015625)"/>
        <path id="DejaVuSans-34" d="M 2419 4116 
L 825 1625 
L 2419 1625 
L 2419 4116 
z
M 2253 4666 
L 3047 4666 
L 3047 1625 
L 3713 1625 
L 3713 1100 
L 3047 1100 
L 3047 0 
L 2419 0 
L 2419 1100 
L 313 1100 
L 313 1709 
L 2253 4666 
z
" transform="scale(0.015625)"/>
        <path id="DejaVuSans-2d" d="M 313 2009 
L 1997 2009 
L 1997 1497 
L 313 1497 
L 313 2009 
z
" transform="scale(0.015625)"/>
        <path id="DejaVuSans-39" d="M 703 97 
L 703 672 
Q 941 559 1184 500 
Q 1428 441 1663 441 
Q 2288 441 2617 861 
Q 2947 1281 2994 2138 
Q 2813 1869 2534 1725 
Q 2256 1581 1919 1581 
Q 1219 1581 811 2004 
Q 403 2428 403 3163 
Q 403 3881 828 4315 
Q 1253 4750 1959 4750 
Q 2769 4750 3195 4129 
Q 3622 3509 3622 2328 
Q 3622 1225 3098 567 
Q 2575 -91 1691 -91 
Q 1453 -91 1209 -44 
Q 966 3 703 97 
z
M 1959 2075 
Q 2384 2075 2632 2365 
Q 2881 2656 2881 3163 
Q 2881 3666 2632 3958 
Q 2384 4250 1959 4250 
Q 1534 4250 1286 3958 
Q 1038 3666 1038 3163 
Q 1038 2656 1286 2365 
Q 1534 2075 1959 2075 
z
" transform="scale(0.015625)"/>
       </defs>
       <use xlink:href="#DejaVuSans-32"/>
       <use xlink:href="#DejaVuSans-30" x="63.623047"/>
       <use xlink:href="#DejaVuSans-32" x="127.246094"/>
       <use xlink:href="#DejaVuSans-34" x="190.869141"/>
       <use xlink:href="#DejaVuSans-2d" x="254.492188"/>
       <use xlink:href="#DejaVuSans-30" x="290.576172"/>
       <use xlink:href="#DejaVuSans-39" x="354.199219"/>
      </g>
     </g>
    </g>
    <g id="xtick_2">
     <g id="line2d_3">
      <path d="M 157.804567 578.54175 
L 157.804567 24.14175 
" clip-path="url(#pf599568bc7)" style="fill: none; stroke: #ffffff; stroke-width: 0.8; stroke-linecap: square"/>
     </g>
     <g id="line2d_4">
      <g>
       <use xlink:href="#m2a053f22f2" x="157.804567" y="578.54175" style="fill: #555555; stroke: #555555; stroke-width: 0.8"/>
      </g>
     </g>
     <g id="text_2">
      <!-- 2024-10 -->
      <g style="fill: #555555" transform="translate(144.983285 620.459567) rotate(-45) scale(0.1 -0.1)">
       <defs>
        <path id="DejaVuSans-31" d="M 794 531 
L 1825 531 
L 1825 4091 
L 703 3866 
L 703 4441 
L 1819 4666 
L 2450 4666 
L 2450 531 
L 3481 531 
L 3481 0 
L 794 0 
L 794 531 
z
" transform="scale(0.015625)"/>
       </defs>
       <use xlink:href="#DejaVuSans-32"/>
       <use xlink:href="#DejaVuSans-30" x="63.623047"/>
       <use xlink:href="#DejaVuSans-32" x="127.246094"/>
       <use xlink:href="#DejaVuSans-34" x="190.869141"/>
       <use xlink:href="#DejaVuSans-2d" x="254.492188"/>
       <use xlink:href="#DejaVuSans-31" x="290.576172"/>
       <use xlink:href="#DejaVuSans-30" x="354.199219"/>
      </g>
     </g>
    </g>
    <g id="xtick_3">
     <g id="line2d_5">
      <path d="M 236.202786 578.54175 
L 236.202786 24.14175 
" clip-path="url(#pf599568bc7)" style="fill: none; stroke: #ffffff; stroke-width: 0.8; stroke-linecap: square"/>
     </g>
     <g id="line2d_6">
      <g>
       <use xlink:href="#m2a053f22f2" x="236.202786" y="578.54175" style="fill: #555555; stroke: #555555; stroke-width: 0.8"/>
      </g>
     </g>
     <g id="text_3">
      <!-- 2024-11 -->
      <g style="fill: #555555" transform="translate(223.381503 620.459567) rotate(-45) scale(0.1 -0.1)">
       <use xlink:href="#DejaVuSans-32"/>
       <use xlink:href="#DejaVuSans-30" x="63.623047"/>
       <use xlink:href="#DejaVuSans-32" x="127.246094"/>
       <use xlink:href="#DejaVuSans-34" x="190.869141"/>
       <use xlink:href="#DejaVuSans-2d" x="254.492188"/>
       <use xlink:href="#DejaVuSans-31" x="290.576172"/>
       <use xlink:href="#DejaVuSans-31" x="354.199219"/>
      </g>
     </g>
    </g>
    <g id="xtick_4">
     <g id="line2d_7">
      <path d="M 312.072029 578.54175 
L 312.072029 24.14175 
" clip-path="url(#pf599568bc7)" style="fill: none; stroke: #ffffff; stroke-width: 0.8; stroke-linecap: square"/>
     </g>
     <g id="line2d_8">
      <g>
       <use xlink:href="#m2a053f22f2" x="312.072029" y="578.54175" style="fill: #555555; stroke: #555555; stroke-width: 0.8"/>
      </g>
     </g>
     <g id="text_4">
      <!-- 2024-12 -->
      <g style="fill: #555555" transform="translate(299.250747 620.459567) rotate(-45) scale(0.1 -0.1)">
       <use xlink:href="#DejaVuSans-32"/>
       <use xlink:href="#DejaVuSans-30" x="63.623047"/>
       <use xlink:href="#DejaVuSans-32" x="127.246094"/>
       <use xlink:href="#DejaVuSans-34" x="190.869141"/>
       <use xlink:href="#DejaVuSans-2d" x="254.492188"/>
       <use xlink:href="#DejaVuSans-31" x="290.576172"/>
       <use xlink:href="#DejaVuSans-32" x="354.199219"/>
      </g>
     </g>
    </g>
    <g id="xtick_5">
     <g id="line2d_9">
      <path d="M 390.470248 578.54175 
L 390.470248 24.14175 
" clip-path="url(#pf599568bc7)" style="fill: none; stroke: #ffffff; stroke-width: 0.8; stroke-linecap: square"/>
     </g>
     <g id="line2d_10">
      <g>
       <use xlink:href="#m2a053f22f2" x="390.470248" y="578.54175" style="fill: #555555; stroke: #555555; stroke-width: 0.8"/>
      </g>
     </g>
     <g id="text_5">
      <!-- 2025-01 -->
      <g style="fill: #555555" transform="translate(377.648966 620.459567) rotate(-45) scale(0.1 -0.1)">
       <defs>
        <path id="DejaVuSans-35" d="M 691 4666 
L 3169 4666 
L 3169 4134 
L 1269 4134 
L 1269 2991 
Q 1406 3038 1543 3061 
Q 1681 3084 1819 3084 
Q 2600 3084 3056 2656 
Q 3513 2228 3513 1497 
Q 3513 744 3044 326 
Q 2575 -91 1722 -91 
Q 1428 -91 1123 -41 
Q 819 9 494 109 
L 494 744 
Q 775 591 1075 516 
Q 1375 441 1709 441 
Q 2250 441 2565 725 
Q 2881 1009 2881 1497 
Q 2881 1984 2565 2268 
Q 2250 2553 1709 2553 
Q 1456 2553 1204 2497 
Q 953 2441 691 2322 
L 691 4666 
z
" transform="scale(0.015625)"/>
       </defs>
       <use xlink:href="#DejaVuSans-32"/>
       <use xlink:href="#DejaVuSans-30" x="63.623047"/>
       <use xlink:href="#DejaVuSans-32" x="127.246094"/>
       <use xlink:href="#DejaVuSans-35" x="190.869141"/>
       <use xlink:href="#DejaVuSans-2d" x="254.492188"/>
       <use xlink:href="#DejaVuSans-30" x="290.576172"/>
       <use xlink:href="#DejaVuSans-31" x="354.199219"/>
      </g>
     </g>
    </g>
    <g id="xtick_6">
     <g id="line2d_11">
      <path d="M 468.868466 578.54175 
L 468.868466 24.14175 
" clip-path="url(#pf599568bc7)" style="fill: none; stroke: #ffffff; stroke-width: 0.8; stroke-linecap: square"/>
     </g>
     <g id="line2d_12">
      <g>
       <use xlink:href="#m2a053f22f2" x="468.868466" y="578.54175" style="fill: #555555; stroke: #555555; stroke-width: 0.8"/>
      </g>
     </g>
     <g id="text_6">
      <!-- 2025-02 -->
      <g style="fill: #555555" transform="translate(456.047184 620.459567) rotate(-45) scale(0.1 -0.1)">
       <use xlink:href="#DejaVuSans-32"/>
       <use xlink:href="#DejaVuSans-30" x="63.623047"/>
       <use xlink:href="#DejaVuSans-32" x="127.246094"/>
       <use xlink:href="#DejaVuSans-35" x="190.869141"/>
       <use xlink:href="#DejaVuSans-2d" x="254.492188"/>
       <use xlink:href="#DejaVuSans-30" x="290.576172"/>
       <use xlink:href="#DejaVuSans-32" x="354.199219"/>
      </g>
     </g>
    </g>
    <g id="xtick_7">
     <g id="line2d_13">
      <path d="M 539.679761 578.54175 
L 539.679761 24.14175 
" clip-path="url(#pf599568bc7)" style="fill: none; stroke: #ffffff; stroke-width: 0.8; stroke-linecap: square"/>
     </g>
     <g id="line2d_14">
      <g>
       <use xlink:href="#m2a053f22f2" x="539.679761" y="578.54175" style="fill: #555555; stroke: #555555; stroke-width: 0.8"/>
      </g>
     </g>
     <g id="text_7">
      <!-- 2025-03 -->
      <g style="fill: #555555" transform="translate(526.858478 620.459567) rotate(-45) scale(0.1 -0.1)">
       <defs>
        <path id="DejaVuSans-33" d="M 2597 2516 
Q 3050 2419 3304 2112 
Q 3559 1806 3559 1356 
Q 3559 666 3084 287 
Q 2609 -91 1734 -91 
Q 1441 -91 1130 -33 
Q 819 25 488 141 
L 488 750 
Q 750 597 1062 519 
Q 1375 441 1716 441 
Q 2309 441 2620 675 
Q 2931 909 2931 1356 
Q 2931 1769 2642 2001 
Q 2353 2234 1838 2234 
L 1294 2234 
L 1294 2753 
L 1863 2753 
Q 2328 2753 2575 2939 
Q 2822 3125 2822 3475 
Q 2822 3834 2567 4026 
Q 2313 4219 1838 4219 
Q 1578 4219 1281 4162 
Q 984 4106 628 3988 
L 628 4550 
Q 988 4650 1302 4700 
Q 1616 4750 1894 4750 
Q 2613 4750 3031 4423 
Q 3450 4097 3450 3541 
Q 3450 3153 3228 2886 
Q 3006 2619 2597 2516 
z
" transform="scale(0.015625)"/>
       </defs>
       <use xlink:href="#DejaVuSans-32"/>
       <use xlink:href="#DejaVuSans-30" x="63.623047"/>
       <use xlink:href="#DejaVuSans-32" x="127.246094"/>
       <use xlink:href="#DejaVuSans-35" x="190.869141"/>
       <use xlink:href="#DejaVuSans-2d" x="254.492188"/>
       <use xlink:href="#DejaVuSans-30" x="290.576172"/>
       <use xlink:href="#DejaVuSans-33" x="354.199219"/>
      </g>
     </g>
    </g>
    <g id="xtick_8">
     <g id="line2d_15">
      <path d="M 618.077979 578.54175 
L 618.077979 24.14175 
" clip-path="url(#pf599568bc7)" style="fill: none; stroke: #ffffff; stroke-width: 0.8; stroke-linecap: square"/>
     </g>
     <g id="line2d_16">
      <g>
       <use xlink:href="#m2a053f22f2" x="618.077979" y="578.54175" style="fill: #555555; stroke: #555555; stroke-width: 0.8"/>
      </g>
     </g>
     <g id="text_8">
      <!-- 2025-04 -->
      <g style="fill: #555555" transform="translate(605.256697 620.459567) rotate(-45) scale(0.1 -0.1)">
       <use xlink:href="#DejaVuSans-32"/>
       <use xlink:href="#DejaVuSans-30" x="63.623047"/>
       <use xlink:href="#DejaVuSans-32" x="127.246094"/>
       <use xlink:href="#DejaVuSans-35" x="190.869141"/>
       <use xlink:href="#DejaVuSans-2d" x="254.492188"/>
       <use xlink:href="#DejaVuSans-30" x="290.576172"/>
       <use xlink:href="#DejaVuSans-34" x="354.199219"/>
      </g>
     </g>
    </g>
    <g id="xtick_9">
     <g id="line2d_17">
      <path d="M 693.947223 578.54175 
L 693.947223 24.14175 
" clip-path="url(#pf599568bc7)" style="fill: none; stroke: #ffffff; stroke-width: 0.8; stroke-linecap: square"/>
     </g>
     <g id="line2d_18">
      <g>
       <use xlink:href="#m2a053f22f2" x="693.947223" y="578.54175" style="fill: #555555; stroke: #555555; stroke-width: 0.8"/>
      </g>
     </g>
     <g id="text_9">
      <!-- 2025-05 -->
      <g style="fill: #555555" transform="translate(681.12594 620.459567) rotate(-45) scale(0.1 -0.1)">
       <use xlink:href="#DejaVuSans-32"/>
       <use xlink:href="#DejaVuSans-30" x="63.623047"/>
       <use xlink:href="#DejaVuSans-32" x="127.246094"/>
       <use xlink:href="#DejaVuSans-35" x="190.869141"/>
       <use xlink:href="#DejaVuSans-2d" x="254.492188"/>
       <use xlink:href="#DejaVuSans-30" x="290.576172"/>
       <use xlink:href="#DejaVuSans-35" x="354.199219"/>
      </g>
     </g>
    </g>
    <g id="xtick_10">
     <g id="line2d_19">
      <path d="M 772.345441 578.54175 
L 772.345441 24.14175 
" clip-path="url(#pf599568bc7)" style="fill: none; stroke: #ffffff; stroke-width: 0.8; stroke-linecap: square"/>
     </g>
     <g id="line2d_20">
      <g>
       <use xlink:href="#m2a053f22f2" x="772.345441" y="578.54175" style="fill: #555555; stroke: #555555; stroke-width: 0.8"/>
      </g>
     </g>
     <g id="text_10">
      <!-- 2025-06 -->
      <g style="fill: #555555" transform="translate(759.524159 620.459567) rotate(-45) scale(0.1 -0.1)">
       <defs>
        <path id="DejaVuSans-36" d="M 2113 2584 
Q 1688 2584 1439 2293 
Q 1191 2003 1191 1497 
Q 1191 994 1439 701 
Q 1688 409 2113 409 
Q 2538 409 2786 701 
Q 3034 994 3034 1497 
Q 3034 2003 2786 2293 
Q 2538 2584 2113 2584 
z
M 3366 4563 
L 3366 3988 
Q 3128 4100 2886 4159 
Q 2644 4219 2406 4219 
Q 1781 4219 1451 3797 
Q 1122 3375 1075 2522 
Q 1259 2794 1537 2939 
Q 1816 3084 2150 3084 
Q 2853 3084 3261 2657 
Q 3669 2231 3669 1497 
Q 3669 778 3244 343 
Q 2819 -91 2113 -91 
Q 1303 -91 875 529 
Q 447 1150 447 2328 
Q 447 3434 972 4092 
Q 1497 4750 2381 4750 
Q 2619 4750 2861 4703 
Q 3103 4656 3366 4563 
z
" transform="scale(0.015625)"/>
       </defs>
       <use xlink:href="#DejaVuSans-32"/>
       <use xlink:href="#DejaVuSans-30" x="63.623047"/>
       <use xlink:href="#DejaVuSans-32" x="127.246094"/>
       <use xlink:href="#DejaVuSans-35" x="190.869141"/>
       <use xlink:href="#DejaVuSans-2d" x="254.492188"/>
       <use xlink:href="#DejaVuSans-30" x="290.576172"/>
       <use xlink:href="#DejaVuSans-36" x="354.199219"/>
      </g>
     </g>
    </g>
    <g id="xtick_11">
     <g id="line2d_21">
      <path d="M 848.214685 578.54175 
L 848.214685 24.14175 
" clip-path="url(#pf599568bc7)" style="fill: none; stroke: #ffffff; stroke-width: 0.8; stroke-linecap: square"/>
     </g>
     <g id="line2d_22">
      <g>
       <use xlink:href="#m2a053f22f2" x="848.214685" y="578.54175" style="fill: #555555; stroke: #555555; stroke-width: 0.8"/>
      </g>
     </g>
     <g id="text_11">
      <!-- 2025-07 -->
      <g style="fill: #555555" transform="translate(835.393403 620.459567) rotate(-45) scale(0.1 -0.1)">
       <defs>
        <path id="DejaVuSans-37" d="M 525 4666 
L 3525 4666 
L 3525 4397 
L 1831 0 
L 1172 0 
L 2766 4134 
L 525 4134 
L 525 4666 
z
" transform="scale(0.015625)"/>
       </defs>
       <use xlink:href="#DejaVuSans-32"/>
       <use xlink:href="#DejaVuSans-30" x="63.623047"/>
       <use xlink:href="#DejaVuSans-32" x="127.246094"/>
       <use xlink:href="#DejaVuSans-35" x="190.869141"/>
       <use xlink:href="#DejaVuSans-2d" x="254.492188"/>
       <use xlink:href="#DejaVuSans-30" x="290.576172"/>
       <use xlink:href="#DejaVuSans-37" x="354.199219"/>
      </g>
     </g>
    </g>
    <g id="xtick_12">
     <g id="line2d_23">
      <path d="M 926.612903 578.54175 
L 926.612903 24.14175 
" clip-path="url(#pf599568bc7)" style="fill: none; stroke: #ffffff; stroke-width: 0.8; stroke-linecap: square"/>
     </g>
     <g id="line2d_24">
      <g>
       <use xlink:href="#m2a053f22f2" x="926.612903" y="578.54175" style="fill: #555555; stroke: #555555; stroke-width: 0.8"/>
      </g>
     </g>
     <g id="text_12">
      <!-- 2025-08 -->
      <g style="fill: #555555" transform="translate(913.791621 620.459567) rotate(-45) scale(0.1 -0.1)">
       <defs>
        <path id="DejaVuSans-38" d="M 2034 2216 
Q 1584 2216 1326 1975 
Q 1069 1734 1069 1313 
Q 1069 891 1326 650 
Q 1584 409 2034 409 
Q 2484 409 2743 651 
Q 3003 894 3003 1313 
Q 3003 1734 2745 1975 
Q 2488 2216 2034 2216 
z
M 1403 2484 
Q 997 2584 770 2862 
Q 544 3141 544 3541 
Q 544 4100 942 4425 
Q 1341 4750 2034 4750 
Q 2731 4750 3128 4425 
Q 3525 4100 3525 3541 
Q 3525 3141 3298 2862 
Q 3072 2584 2669 2484 
Q 3125 2378 3379 2068 
Q 3634 1759 3634 1313 
Q 3634 634 3220 271 
Q 2806 -91 2034 -91 
Q 1263 -91 848 271 
Q 434 634 434 1313 
Q 434 1759 690 2068 
Q 947 2378 1403 2484 
z
M 1172 3481 
Q 1172 3119 1398 2916 
Q 1625 2713 2034 2713 
Q 2441 2713 2670 2916 
Q 2900 3119 2900 3481 
Q 2900 3844 2670 4047 
Q 2441 4250 2034 4250 
Q 1625 4250 1398 4047 
Q 1172 3844 1172 3481 
z
" transform="scale(0.015625)"/>
       </defs>
       <use xlink:href="#DejaVuSans-32"/>
       <use xlink:href="#DejaVuSans-30" x="63.623047"/>
       <use xlink:href="#DejaVuSans-32" x="127.246094"/>
       <use xlink:href="#DejaVuSans-35" x="190.869141"/>
       <use xlink:href="#DejaVuSans-2d" x="254.492188"/>
       <use xlink:href="#DejaVuSans-30" x="290.576172"/>
       <use xlink:href="#DejaVuSans-38" x="354.199219"/>
      </g>
     </g>
    </g>
    <g id="text_13">
     <!-- Date -->
     <g style="fill: #555555" transform="translate(501.313563 635.048253) scale(0.12 -0.12)">
      <defs>
       <path id="DejaVuSans-44" d="M 1259 4147 
L 1259 519 
L 2022 519 
Q 2988 519 3436 956 
Q 3884 1394 3884 2338 
Q 3884 3275 3436 3711 
Q 2988 4147 2022 4147 
L 1259 4147 
z
M 628 4666 
L 1925 4666 
Q 3281 4666 3915 4102 
Q 4550 3538 4550 2338 
Q 4550 1131 3912 565 
Q 3275 0 1925 0 
L 628 0 
L 628 4666 
z
" transform="scale(0.015625)"/>
       <path id="DejaVuSans-61" d="M 2194 1759 
Q 1497 1759 1228 1600 
Q 959 1441 959 1056 
Q 959 750 1161 570 
Q 1363 391 1709 391 
Q 2188 391 2477 730 
Q 2766 1069 2766 1631 
L 2766 1759 
L 2194 1759 
z
M 3341 1997 
L 3341 0 
L 2766 0 
L 2766 531 
Q 2569 213 2275 61 
Q 1981 -91 1556 -91 
Q 1019 -91 701 211 
Q 384 513 384 1019 
Q 384 1609 779 1909 
Q 1175 2209 1959 2209 
L 2766 2209 
L 2766 2266 
Q 2766 2663 2505 2880 
Q 2244 3097 1772 3097 
Q 1472 3097 1187 3025 
Q 903 2953 641 2809 
L 641 3341 
Q 956 3463 1253 3523 
Q 1550 3584 1831 3584 
Q 2591 3584 2966 3190 
Q 3341 2797 3341 1997 
z
" transform="scale(0.015625)"/>
       <path id="DejaVuSans-74" d="M 1172 4494 
L 1172 3500 
L 2356 3500 
L 2356 3053 
L 1172 3053 
L 1172 1153 
Q 1172 725 1289 603 
Q 1406 481 1766 481 
L 2356 481 
L 2356 0 
L 1766 0 
Q 1100 0 847 248 
Q 594 497 594 1153 
L 594 3053 
L 172 3053 
L 172 3500 
L 594 3500 
L 594 4494 
L 1172 4494 
z
" transform="scale(0.015625)"/>
       <path id="DejaVuSans-65" d="M 3597 1894 
L 3597 1613 
L 953 1613 
Q 991 1019 1311 708 
Q 1631 397 2203 397 
Q 2534 397 2845 478 
Q 3156 559 3463 722 
L 3463 178 
Q 3153 47 2828 -22 
Q 2503 -91 2169 -91 
Q 1331 -91 842 396 
Q 353 884 353 1716 
Q 353 2575 817 3079 
Q 1281 3584 2069 3584 
Q 2775 3584 3186 3129 
Q 3597 2675 3597 1894 
z
M 3022 2063 
Q 3016 2534 2758 2815 
Q 2500 3097 2075 3097 
Q 1594 3097 1305 2825 
Q 1016 2553 972 2059 
L 3022 2063 
z
" transform="scale(0.015625)"/>
      </defs>
      <use xlink:href="#DejaVuSans-44"/>
      <use xlink:href="#DejaVuSans-61" x="77.001953"/>
      <use xlink:href="#DejaVuSans-74" x="138.28125"/>
      <use xlink:href="#DejaVuSans-65" x="177.490234"/>
     </g>
    </g>
   </g>
   <g id="matplotlib.axis_2">
    <g id="ytick_1">
     <g id="line2d_25">
      <path d="M 64.2325 578.54175 
L 967.0765 578.54175 
" clip-path="url(#pf599568bc7)" style="fill: none; stroke: #ffffff; stroke-width: 0.8; stroke-linecap: square"/>
     </g>
     <g id="line2d_26">
      <defs>
       <path id="m9061f64b57" d="M 0 0 
L -3.5 0 
" style="stroke: #555555; stroke-width: 0.8"/>
      </defs>
      <g>
       <use xlink:href="#m9061f64b57" x="64.2325" y="578.54175" style="fill: #555555; stroke: #555555; stroke-width: 0.8"/>
      </g>
     </g>
     <g id="text_14">
      <!-- 0k -->
      <g style="fill: #555555" transform="translate(45.079375 582.340969) scale(0.1 -0.1)">
       <defs>
        <path id="DejaVuSans-6b" d="M 581 4863 
L 1159 4863 
L 1159 1991 
L 2875 3500 
L 3609 3500 
L 1753 1863 
L 3688 0 
L 2938 0 
L 1159 1709 
L 1159 0 
L 581 0 
L 581 4863 
z
" transform="scale(0.015625)"/>
       </defs>
       <use xlink:href="#DejaVuSans-30"/>
       <use xlink:href="#DejaVuSans-6b" x="63.623047"/>
      </g>
     </g>
    </g>
    <g id="ytick_2">
     <g id="line2d_27">
      <path d="M 64.2325 505.861268 
L 967.0765 505.861268 
" clip-path="url(#pf599568bc7)" style="fill: none; stroke: #ffffff; stroke-width: 0.8; stroke-linecap: square"/>
     </g>
     <g id="line2d_28">
      <g>
       <use xlink:href="#m9061f64b57" x="64.2325" y="505.861268" style="fill: #555555; stroke: #555555; stroke-width: 0.8"/>
      </g>
     </g>
     <g id="text_15">
      <!-- 250k -->
      <g style="fill: #555555" transform="translate(32.354375 509.660487) scale(0.1 -0.1)">
       <use xlink:href="#DejaVuSans-32"/>
       <use xlink:href="#DejaVuSans-35" x="63.623047"/>
       <use xlink:href="#DejaVuSans-30" x="127.246094"/>
       <use xlink:href="#DejaVuSans-6b" x="190.869141"/>
      </g>
     </g>
    </g>
    <g id="ytick_3">
     <g id="line2d_29">
      <path d="M 64.2325 433.180786 
L 967.0765 433.180786 
" clip-path="url(#pf599568bc7)" style="fill: none; stroke: #ffffff; stroke-width: 0.8; stroke-linecap: square"/>
     </g>
     <g id="line2d_30">
      <g>
       <use xlink:href="#m9061f64b57" x="64.2325" y="433.180786" style="fill: #555555; stroke: #555555; stroke-width: 0.8"/>
      </g>
     </g>
     <g id="text_16">
      <!-- 500k -->
      <g style="fill: #555555" transform="translate(32.354375 436.980005) scale(0.1 -0.1)">
       <use xlink:href="#DejaVuSans-35"/>
       <use xlink:href="#DejaVuSans-30" x="63.623047"/>
       <use xlink:href="#DejaVuSans-30" x="127.246094"/>
       <use xlink:href="#DejaVuSans-6b" x="190.869141"/>
      </g>
     </g>
    </g>
    <g id="ytick_4">
     <g id="line2d_31">
      <path d="M 64.2325 360.500304 
L 967.0765 360.500304 
" clip-path="url(#pf599568bc7)" style="fill: none; stroke: #ffffff; stroke-width: 0.8; stroke-linecap: square"/>
     </g>
     <g id="line2d_32">
      <g>
       <use xlink:href="#m9061f64b57" x="64.2325" y="360.500304" style="fill: #555555; stroke: #555555; stroke-width: 0.8"/>
      </g>
     </g>
     <g id="text_17">
      <!-- 750k -->
      <g style="fill: #555555" transform="translate(32.354375 364.299523) scale(0.1 -0.1)">
       <use xlink:href="#DejaVuSans-37"/>
       <use xlink:href="#DejaVuSans-35" x="63.623047"/>
       <use xlink:href="#DejaVuSans-30" x="127.246094"/>
       <use xlink:href="#DejaVuSans-6b" x="190.869141"/>
      </g>
     </g>
    </g>
    <g id="ytick_5">
     <g id="line2d_33">
      <path d="M 64.2325 287.819823 
L 967.0765 287.819823 
" clip-path="url(#pf599568bc7)" style="fill: none; stroke: #ffffff; stroke-width: 0.8; stroke-linecap: square"/>
     </g>
     <g id="line2d_34">
      <g>
       <use xlink:href="#m9061f64b57" x="64.2325" y="287.819823" style="fill: #555555; stroke: #555555; stroke-width: 0.8"/>
      </g>
     </g>
     <g id="text_18">
      <!-- 1,000k -->
      <g style="fill: #555555" transform="translate(22.81375 291.619041) scale(0.1 -0.1)">
       <defs>
        <path id="DejaVuSans-2c" d="M 750 794 
L 1409 794 
L 1409 256 
L 897 -744 
L 494 -744 
L 750 256 
L 750 794 
z
" transform="scale(0.015625)"/>
       </defs>
       <use xlink:href="#DejaVuSans-31"/>
       <use xlink:href="#DejaVuSans-2c" x="63.623047"/>
       <use xlink:href="#DejaVuSans-30" x="95.410156"/>
       <use xlink:href="#DejaVuSans-30" x="159.033203"/>
       <use xlink:href="#DejaVuSans-30" x="222.65625"/>
       <use xlink:href="#DejaVuSans-6b" x="286.279297"/>
      </g>
     </g>
    </g>
    <g id="ytick_6">
     <g id="line2d_35">
      <path d="M 64.2325 215.139341 
L 967.0765 215.139341 
" clip-path="url(#pf599568bc7)" style="fill: none; stroke: #ffffff; stroke-width: 0.8; stroke-linecap: square"/>
     </g>
     <g id="line2d_36">
      <g>
       <use xlink:href="#m9061f64b57" x="64.2325" y="215.139341" style="fill: #555555; stroke: #555555; stroke-width: 0.8"/>
      </g>
     </g>
     <g id="text_19">
      <!-- 1,250k -->
      <g style="fill: #555555" transform="translate(22.81375 218.938559) scale(0.1 -0.1)">
       <use xlink:href="#DejaVuSans-31"/>
       <use xlink:href="#DejaVuSans-2c" x="63.623047"/>
       <use xlink:href="#DejaVuSans-32" x="95.410156"/>
       <use xlink:href="#DejaVuSans-35" x="159.033203"/>
       <use xlink:href="#DejaVuSans-30" x="222.65625"/>
       <use xlink:href="#DejaVuSans-6b" x="286.279297"/>
      </g>
     </g>
    </g>
    <g id="ytick_7">
     <g id="line2d_37">
      <path d="M 64.2325 142.458859 
L 967.0765 142.458859 
" clip-path="url(#pf599568bc7)" style="fill: none; stroke: #ffffff; stroke-width: 0.8; stroke-linecap: square"/>
     </g>
     <g id="line2d_38">
      <g>
       <use xlink:href="#m9061f64b57" x="64.2325" y="142.458859" style="fill: #555555; stroke: #555555; stroke-width: 0.8"/>
      </g>
     </g>
     <g id="text_20">
      <!-- 1,500k -->
      <g style="fill: #555555" transform="translate(22.81375 146.258078) scale(0.1 -0.1)">
       <use xlink:href="#DejaVuSans-31"/>
       <use xlink:href="#DejaVuSans-2c" x="63.623047"/>
       <use xlink:href="#DejaVuSans-35" x="95.410156"/>
       <use xlink:href="#DejaVuSans-30" x="159.033203"/>
       <use xlink:href="#DejaVuSans-30" x="222.65625"/>
       <use xlink:href="#DejaVuSans-6b" x="286.279297"/>
      </g>
     </g>
    </g>
    <g id="ytick_8">
     <g id="line2d_39">
      <path d="M 64.2325 69.778377 
L 967.0765 69.778377 
" clip-path="url(#pf599568bc7)" style="fill: none; stroke: #ffffff; stroke-width: 0.8; stroke-linecap: square"/>
     </g>
     <g id="line2d_40">
      <g>
       <use xlink:href="#m9061f64b57" x="64.2325" y="69.778377" style="fill: #555555; stroke: #555555; stroke-width: 0.8"/>
      </g>
     </g>
     <g id="text_21">
      <!-- 1,750k -->
      <g style="fill: #555555" transform="translate(22.81375 73.577596) scale(0.1 -0.1)">
       <use xlink:href="#DejaVuSans-31"/>
       <use xlink:href="#DejaVuSans-2c" x="63.623047"/>
       <use xlink:href="#DejaVuSans-37" x="95.410156"/>
       <use xlink:href="#DejaVuSans-35" x="159.033203"/>
       <use xlink:href="#DejaVuSans-30" x="222.65625"/>
       <use xlink:href="#DejaVuSans-6b" x="286.279297"/>
      </g>
     </g>
    </g>
    <g id="text_22">
     <!-- Instances -->
     <g style="fill: #555555" transform="translate(16.318125 329.988) rotate(-90) scale(0.12 -0.12)">
      <defs>
       <path id="DejaVuSans-49" d="M 628 4666 
L 1259 4666 
L 1259 0 
L 628 0 
L 628 4666 
z
" transform="scale(0.015625)"/>
       <path id="DejaVuSans-6e" d="M 3513 2113 
L 3513 0 
L 2938 0 
L 2938 2094 
Q 2938 2591 2744 2837 
Q 2550 3084 2163 3084 
Q 1697 3084 1428 2787 
Q 1159 2491 1159 1978 
L 1159 0 
L 581 0 
L 581 3500 
L 1159 3500 
L 1159 2956 
Q 1366 3272 1645 3428 
Q 1925 3584 2291 3584 
Q 2894 3584 3203 3211 
Q 3513 2838 3513 2113 
z
" transform="scale(0.015625)"/>
       <path id="DejaVuSans-73" d="M 2834 3397 
L 2834 2853 
Q 2591 2978 2328 3040 
Q 2066 3103 1784 3103 
Q 1356 3103 1142 2972 
Q 928 2841 928 2578 
Q 928 2378 1081 2264 
Q 1234 2150 1697 2047 
L 1894 2003 
Q 2506 1872 2764 1633 
Q 3022 1394 3022 966 
Q 3022 478 2636 193 
Q 2250 -91 1575 -91 
Q 1294 -91 989 -36 
Q 684 19 347 128 
L 347 722 
Q 666 556 975 473 
Q 1284 391 1588 391 
Q 1994 391 2212 530 
Q 2431 669 2431 922 
Q 2431 1156 2273 1281 
Q 2116 1406 1581 1522 
L 1381 1569 
Q 847 1681 609 1914 
Q 372 2147 372 2553 
Q 372 3047 722 3315 
Q 1072 3584 1716 3584 
Q 2034 3584 2315 3537 
Q 2597 3491 2834 3397 
z
" transform="scale(0.015625)"/>
       <path id="DejaVuSans-63" d="M 3122 3366 
L 3122 2828 
Q 2878 2963 2633 3030 
Q 2388 3097 2138 3097 
Q 1578 3097 1268 2742 
Q 959 2388 959 1747 
Q 959 1106 1268 751 
Q 1578 397 2138 397 
Q 2388 397 2633 464 
Q 2878 531 3122 666 
L 3122 134 
Q 2881 22 2623 -34 
Q 2366 -91 2075 -91 
Q 1284 -91 818 406 
Q 353 903 353 1747 
Q 353 2603 823 3093 
Q 1294 3584 2113 3584 
Q 2378 3584 2631 3529 
Q 2884 3475 3122 3366 
z
" transform="scale(0.015625)"/>
      </defs>
      <use xlink:href="#DejaVuSans-49"/>
      <use xlink:href="#DejaVuSans-6e" x="29.492188"/>
      <use xlink:href="#DejaVuSans-73" x="92.871094"/>
      <use xlink:href="#DejaVuSans-74" x="144.970703"/>
      <use xlink:href="#DejaVuSans-61" x="184.179688"/>
      <use xlink:href="#DejaVuSans-6e" x="245.458984"/>
      <use xlink:href="#DejaVuSans-63" x="308.837891"/>
      <use xlink:href="#DejaVuSans-65" x="363.818359"/>
      <use xlink:href="#DejaVuSans-73" x="425.341797"/>
     </g>
    </g>
   </g>
   <g id="line2d_41">
    <path d="M 64.2325 390.980066 
L 73.352136 390.054468 
L 82.471773 389.128869 
L 91.591409 388.203271 
L 100.711045 387.277672 
L 109.830682 386.352074 
L 118.950318 385.426476 
L 128.069955 384.500877 
L 137.189591 383.575279 
L 146.309227 382.64968 
L 155.428864 381.724082 
L 164.5485 380.798483 
L 173.668136 379.872885 
L 182.787773 378.947287 
L 191.907409 378.021688 
L 201.027045 377.09609 
L 210.146682 376.170491 
L 219.266318 375.244893 
L 228.385955 374.319295 
L 237.505591 373.393696 
L 246.625227 372.468098 
L 255.744864 371.542499 
L 264.8645 370.616901 
L 273.984136 369.691303 
L 283.103773 368.765704 
L 292.223409 367.840106 
L 301.343045 366.914507 
L 310.462682 365.988909 
L 319.582318 365.063311 
L 328.701955 364.137712 
L 337.821591 363.212114 
L 346.941227 362.286515 
L 356.060864 361.360917 
L 365.1805 360.435319 
L 374.300136 359.50972 
L 383.419773 358.584122 
L 392.539409 357.658523 
L 401.659045 356.732925 
L 410.778682 355.807327 
L 419.898318 354.881728 
L 429.017955 353.95613 
L 438.137591 353.030531 
L 447.257227 352.104933 
L 456.376864 351.179334 
L 465.4965 350.253736 
L 474.616136 349.328138 
L 483.735773 348.402539 
L 492.855409 347.476941 
L 501.975045 346.551342 
L 511.094682 345.625744 
L 520.214318 344.700146 
L 529.333955 343.774547 
L 538.453591 342.848949 
L 547.573227 341.92335 
L 556.692864 340.997752 
L 565.8125 340.072154 
L 574.932136 339.146555 
L 584.051773 338.220957 
L 593.171409 337.295358 
L 602.291045 336.36976 
L 611.410682 335.444162 
L 620.530318 334.518563 
L 629.649955 333.592965 
L 638.769591 332.667366 
L 647.889227 331.741768 
L 657.008864 330.81617 
L 666.1285 329.890571 
L 675.248136 328.964973 
L 684.367773 328.039374 
L 693.487409 327.113776 
L 702.607045 326.188178 
L 711.726682 325.262579 
L 720.846318 324.336981 
L 729.965955 323.411382 
L 739.085591 322.485784 
L 748.205227 321.560185 
L 757.324864 320.634587 
L 766.4445 319.708989 
L 775.564136 318.78339 
L 784.683773 317.857792 
L 793.803409 316.932193 
L 802.923045 316.006595 
L 812.042682 315.080997 
L 821.162318 314.155398 
L 830.281955 313.2298 
L 839.401591 312.304201 
L 848.521227 311.378603 
L 857.640864 310.453005 
L 866.7605 309.527406 
L 875.880136 308.601808 
L 884.999773 307.676209 
L 894.119409 306.750611 
L 903.239045 305.825013 
L 912.358682 304.899414 
L 921.478318 303.973816 
L 930.597955 303.048217 
L 939.717591 302.122619 
L 948.837227 301.197021 
L 957.956864 300.271422 
L 967.0765 299.345824 
" clip-path="url(#pf599568bc7)" style="fill: none; stroke-dasharray: 3,4.95; stroke-dashoffset: 0; stroke: #4ac1fa; stroke-opacity: 0.9; stroke-width: 3"/>
   </g>
   <g id="line2d_42">
    <path d="M 64.2325 485.525632 
L 73.352136 486.123817 
L 82.471773 486.722003 
L 91.591409 487.320189 
L 100.711045 487.918374 
L 109.830682 488.51656 
L 118.950318 489.114746 
L 128.069955 489.712931 
L 137.189591 490.311117 
L 146.309227 490.909303 
L 155.428864 491.507488 
L 164.5485 492.105674 
L 173.668136 492.70386 
L 182.787773 493.302046 
L 191.907409 493.900231 
L 201.027045 494.498417 
L 210.146682 495.096603 
L 219.266318 495.694788 
L 228.385955 496.292974 
L 237.505591 496.89116 
L 246.625227 497.489345 
L 255.744864 498.087531 
L 264.8645 498.685717 
L 273.984136 499.283902 
L 283.103773 499.882088 
L 292.223409 500.480274 
L 301.343045 501.078459 
L 310.462682 501.676645 
L 319.582318 502.274831 
L 328.701955 502.873017 
L 337.821591 503.471202 
L 346.941227 504.069388 
L 356.060864 504.667574 
L 365.1805 505.265759 
L 374.300136 505.863945 
L 383.419773 506.462131 
L 392.539409 507.060316 
L 401.659045 507.658502 
L 410.778682 508.256688 
L 419.898318 508.854873 
L 429.017955 509.453059 
L 438.137591 510.051245 
L 447.257227 510.64943 
L 456.376864 511.247616 
L 465.4965 511.845802 
L 474.616136 512.443988 
L 483.735773 513.042173 
L 492.855409 513.640359 
L 501.975045 514.238545 
L 511.094682 514.83673 
L 520.214318 515.434916 
L 529.333955 516.033102 
L 538.453591 516.631287 
L 547.573227 517.229473 
L 556.692864 517.827659 
L 565.8125 518.425844 
L 574.932136 519.02403 
L 584.051773 519.622216 
L 593.171409 520.220402 
L 602.291045 520.818587 
L 611.410682 521.416773 
L 620.530318 522.014959 
L 629.649955 522.613144 
L 638.769591 523.21133 
L 647.889227 523.809516 
L 657.008864 524.407701 
L 666.1285 525.005887 
L 675.248136 525.604073 
L 684.367773 526.202258 
L 693.487409 526.800444 
L 702.607045 527.39863 
L 711.726682 527.996815 
L 720.846318 528.595001 
L 729.965955 529.193187 
L 739.085591 529.791373 
L 748.205227 530.389558 
L 757.324864 530.987744 
L 766.4445 531.58593 
L 775.564136 532.184115 
L 784.683773 532.782301 
L 793.803409 533.380487 
L 802.923045 533.978672 
L 812.042682 534.576858 
L 821.162318 535.175044 
L 830.281955 535.773229 
L 839.401591 536.371415 
L 848.521227 536.969601 
L 857.640864 537.567786 
L 866.7605 538.165972 
L 875.880136 538.764158 
L 884.999773 539.362344 
L 894.119409 539.960529 
L 903.239045 540.558715 
L 912.358682 541.156901 
L 921.478318 541.755086 
L 930.597955 542.353272 
L 939.717591 542.951458 
L 948.837227 543.549643 
L 957.956864 544.147829 
L 967.0765 544.746015 
" clip-path="url(#pf599568bc7)" style="fill: none; stroke-dasharray: 3,4.95; stroke-dashoffset: 0; stroke: #e9a942; stroke-opacity: 0.9; stroke-width: 3"/>
   </g>
   <g id="line2d_43">
    <path d="M 64.2325 508.606321 
L 73.352136 508.312866 
L 82.471773 508.019412 
L 91.591409 507.725957 
L 100.711045 507.432502 
L 109.830682 507.139048 
L 118.950318 506.845593 
L 128.069955 506.552139 
L 137.189591 506.258684 
L 146.309227 505.965229 
L 155.428864 505.671775 
L 164.5485 505.37832 
L 173.668136 505.084865 
L 182.787773 504.791411 
L 191.907409 504.497956 
L 201.027045 504.204501 
L 210.146682 503.911047 
L 219.266318 503.617592 
L 228.385955 503.324137 
L 237.505591 503.030683 
L 246.625227 502.737228 
L 255.744864 502.443773 
L 264.8645 502.150319 
L 273.984136 501.856864 
L 283.103773 501.563409 
L 292.223409 501.269955 
L 301.343045 500.9765 
L 310.462682 500.683045 
L 319.582318 500.389591 
L 328.701955 500.096136 
L 337.821591 499.802681 
L 346.941227 499.509227 
L 356.060864 499.215772 
L 365.1805 498.922317 
L 374.300136 498.628863 
L 383.419773 498.335408 
L 392.539409 498.041953 
L 401.659045 497.748499 
L 410.778682 497.455044 
L 419.898318 497.161589 
L 429.017955 496.868135 
L 438.137591 496.57468 
L 447.257227 496.281225 
L 456.376864 495.987771 
L 465.4965 495.694316 
L 474.616136 495.400861 
L 483.735773 495.107407 
L 492.855409 494.813952 
L 501.975045 494.520498 
L 511.094682 494.227043 
L 520.214318 493.933588 
L 529.333955 493.640134 
L 538.453591 493.346679 
L 547.573227 493.053224 
L 556.692864 492.75977 
L 565.8125 492.466315 
L 574.932136 492.17286 
L 584.051773 491.879406 
L 593.171409 491.585951 
L 602.291045 491.292496 
L 611.410682 490.999042 
L 620.530318 490.705587 
L 629.649955 490.412132 
L 638.769591 490.118678 
L 647.889227 489.825223 
L 657.008864 489.531768 
L 666.1285 489.238314 
L 675.248136 488.944859 
L 684.367773 488.651404 
L 693.487409 488.35795 
L 702.607045 488.064495 
L 711.726682 487.77104 
L 720.846318 487.477586 
L 729.965955 487.184131 
L 739.085591 486.890676 
L 748.205227 486.597222 
L 757.324864 486.303767 
L 766.4445 486.010312 
L 775.564136 485.716858 
L 784.683773 485.423403 
L 793.803409 485.129948 
L 802.923045 484.836494 
L 812.042682 484.543039 
L 821.162318 484.249584 
L 830.281955 483.95613 
L 839.401591 483.662675 
L 848.521227 483.36922 
L 857.640864 483.075766 
L 866.7605 482.782311 
L 875.880136 482.488856 
L 884.999773 482.195402 
L 894.119409 481.901947 
L 903.239045 481.608493 
L 912.358682 481.315038 
L 921.478318 481.021583 
L 930.597955 480.728129 
L 939.717591 480.434674 
L 948.837227 480.141219 
L 957.956864 479.847765 
L 967.0765 479.55431 
" clip-path="url(#pf599568bc7)" style="fill: none; stroke-dasharray: 3,4.95; stroke-dashoffset: 0; stroke: #9a5689; stroke-opacity: 0.9; stroke-width: 3"/>
   </g>
   <g id="line2d_44">
    <path d="M 64.2325 547.241285 
L 73.352136 547.146058 
L 82.471773 547.05083 
L 91.591409 546.955602 
L 100.711045 546.860375 
L 109.830682 546.765147 
L 118.950318 546.669919 
L 128.069955 546.574692 
L 137.189591 546.479464 
L 146.309227 546.384236 
L 155.428864 546.289009 
L 164.5485 546.193781 
L 173.668136 546.098553 
L 182.787773 546.003325 
L 191.907409 545.908098 
L 201.027045 545.81287 
L 210.146682 545.717642 
L 219.266318 545.622415 
L 228.385955 545.527187 
L 237.505591 545.431959 
L 246.625227 545.336732 
L 255.744864 545.241504 
L 264.8645 545.146276 
L 273.984136 545.051049 
L 283.103773 544.955821 
L 292.223409 544.860593 
L 301.343045 544.765365 
L 310.462682 544.670138 
L 319.582318 544.57491 
L 328.701955 544.479682 
L 337.821591 544.384455 
L 346.941227 544.289227 
L 356.060864 544.193999 
L 365.1805 544.098772 
L 374.300136 544.003544 
L 383.419773 543.908316 
L 392.539409 543.813088 
L 401.659045 543.717861 
L 410.778682 543.622633 
L 419.898318 543.527405 
L 429.017955 543.432178 
L 438.137591 543.33695 
L 447.257227 543.241722 
L 456.376864 543.146495 
L 465.4965 543.051267 
L 474.616136 542.956039 
L 483.735773 542.860812 
L 492.855409 542.765584 
L 501.975045 542.670356 
L 511.094682 542.575128 
L 520.214318 542.479901 
L 529.333955 542.384673 
L 538.453591 542.289445 
L 547.573227 542.194218 
L 556.692864 542.09899 
L 565.8125 542.003762 
L 574.932136 541.908535 
L 584.051773 541.813307 
L 593.171409 541.718079 
L 602.291045 541.622851 
L 611.410682 541.527624 
L 620.530318 541.432396 
L 629.649955 541.337168 
L 638.769591 541.241941 
L 647.889227 541.146713 
L 657.008864 541.051485 
L 666.1285 540.956258 
L 675.248136 540.86103 
L 684.367773 540.765802 
L 693.487409 540.670575 
L 702.607045 540.575347 
L 711.726682 540.480119 
L 720.846318 540.384891 
L 729.965955 540.289664 
L 739.085591 540.194436 
L 748.205227 540.099208 
L 757.324864 540.003981 
L 766.4445 539.908753 
L 775.564136 539.813525 
L 784.683773 539.718298 
L 793.803409 539.62307 
L 802.923045 539.527842 
L 812.042682 539.432614 
L 821.162318 539.337387 
L 830.281955 539.242159 
L 839.401591 539.146931 
L 848.521227 539.051704 
L 857.640864 538.956476 
L 866.7605 538.861248 
L 875.880136 538.766021 
L 884.999773 538.670793 
L 894.119409 538.575565 
L 903.239045 538.480338 
L 912.358682 538.38511 
L 921.478318 538.289882 
L 930.597955 538.194654 
L 939.717591 538.099427 
L 948.837227 538.004199 
L 957.956864 537.908971 
L 967.0765 537.813744 
" clip-path="url(#pf599568bc7)" style="fill: none; stroke-dasharray: 3,4.95; stroke-dashoffset: 0; stroke: #be503b; stroke-opacity: 0.9; stroke-width: 3"/>
   </g>
   <g id="line2d_45">
    <path d="M 64.2325 378.153481 
L 73.352136 377.779518 
L 82.471773 377.405555 
L 91.591409 377.031592 
L 100.711045 376.65763 
L 109.830682 376.283667 
L 118.950318 375.909704 
L 128.069955 375.535741 
L 137.189591 375.161778 
L 146.309227 374.787815 
L 155.428864 374.413852 
L 164.5485 374.039889 
L 173.668136 373.665926 
L 182.787773 373.291963 
L 191.907409 372.918 
L 201.027045 372.544037 
L 210.146682 372.170075 
L 219.266318 371.796112 
L 228.385955 371.422149 
L 237.505591 371.048186 
L 246.625227 370.674223 
L 255.744864 370.30026 
L 264.8645 369.926297 
L 273.984136 369.552334 
L 283.103773 369.178371 
L 292.223409 368.804408 
L 301.343045 368.430445 
L 310.462682 368.056482 
L 319.582318 367.68252 
L 328.701955 367.308557 
L 337.821591 366.934594 
L 346.941227 366.560631 
L 356.060864 366.186668 
L 365.1805 365.812705 
L 374.300136 365.438742 
L 383.419773 365.064779 
L 392.539409 364.690816 
L 401.659045 364.316853 
L 410.778682 363.94289 
L 419.898318 363.568928 
L 429.017955 363.194965 
L 438.137591 362.821002 
L 447.257227 362.447039 
L 456.376864 362.073076 
L 465.4965 361.699113 
L 474.616136 361.32515 
L 483.735773 360.951187 
L 492.855409 360.577224 
L 501.975045 360.203261 
L 511.094682 359.829298 
L 520.214318 359.455335 
L 529.333955 359.081373 
L 538.453591 358.70741 
L 547.573227 358.333447 
L 556.692864 357.959484 
L 565.8125 357.585521 
L 574.932136 357.211558 
L 584.051773 356.837595 
L 593.171409 356.463632 
L 602.291045 356.089669 
L 611.410682 355.715706 
L 620.530318 355.341743 
L 629.649955 354.96778 
L 638.769591 354.593818 
L 647.889227 354.219855 
L 657.008864 353.845892 
L 666.1285 353.471929 
L 675.248136 353.097966 
L 684.367773 352.724003 
L 693.487409 352.35004 
L 702.607045 351.976077 
L 711.726682 351.602114 
L 720.846318 351.228151 
L 729.965955 350.854188 
L 739.085591 350.480225 
L 748.205227 350.106263 
L 757.324864 349.7323 
L 766.4445 349.358337 
L 775.564136 348.984374 
L 784.683773 348.610411 
L 793.803409 348.236448 
L 802.923045 347.862485 
L 812.042682 347.488522 
L 821.162318 347.114559 
L 830.281955 346.740596 
L 839.401591 346.366633 
L 848.521227 345.992671 
L 857.640864 345.618708 
L 866.7605 345.244745 
L 875.880136 344.870782 
L 884.999773 344.496819 
L 894.119409 344.122856 
L 903.239045 343.748893 
L 912.358682 343.37493 
L 921.478318 343.000967 
L 930.597955 342.627004 
L 939.717591 342.253041 
L 948.837227 341.879078 
L 957.956864 341.505116 
L 967.0765 341.131153 
" clip-path="url(#pf599568bc7)" style="fill: none; stroke-dasharray: 3,4.95; stroke-dashoffset: 0; stroke: #e2321d; stroke-opacity: 0.9; stroke-width: 3"/>
   </g>
   <g id="line2d_46">
    <path d="M 64.2325 218.481778 
L 73.352136 216.983064 
L 82.471773 215.48435 
L 91.591409 213.985636 
L 100.711045 212.486922 
L 109.830682 210.988208 
L 118.950318 209.489494 
L 128.069955 207.99078 
L 137.189591 206.492066 
L 146.309227 204.993353 
L 155.428864 203.494639 
L 164.5485 201.995925 
L 173.668136 200.497211 
L 182.787773 198.998497 
L 191.907409 197.499783 
L 201.027045 196.001069 
L 210.146682 194.502355 
L 219.266318 193.003641 
L 228.385955 191.504927 
L 237.505591 190.006213 
L 246.625227 188.507499 
L 255.744864 187.008785 
L 264.8645 185.510072 
L 273.984136 184.011358 
L 283.103773 182.512644 
L 292.223409 181.01393 
L 301.343045 179.515216 
L 310.462682 178.016502 
L 319.582318 176.517788 
L 328.701955 175.019074 
L 337.821591 173.52036 
L 346.941227 172.021646 
L 356.060864 170.522932 
L 365.1805 169.024218 
L 374.300136 167.525504 
L 383.419773 166.026791 
L 392.539409 164.528077 
L 401.659045 163.029363 
L 410.778682 161.530649 
L 419.898318 160.031935 
L 429.017955 158.533221 
L 438.137591 157.034507 
L 447.257227 155.535793 
L 456.376864 154.037079 
L 465.4965 152.538365 
L 474.616136 151.039651 
L 483.735773 149.540937 
L 492.855409 148.042223 
L 501.975045 146.54351 
L 511.094682 145.044796 
L 520.214318 143.546082 
L 529.333955 142.047368 
L 538.453591 140.548654 
L 547.573227 139.04994 
L 556.692864 137.551226 
L 565.8125 136.052512 
L 574.932136 134.553798 
L 584.051773 133.055084 
L 593.171409 131.55637 
L 602.291045 130.057656 
L 611.410682 128.558942 
L 620.530318 127.060229 
L 629.649955 125.561515 
L 638.769591 124.062801 
L 647.889227 122.564087 
L 657.008864 121.065373 
L 666.1285 119.566659 
L 675.248136 118.067945 
L 684.367773 116.569231 
L 693.487409 115.070517 
L 702.607045 113.571803 
L 711.726682 112.073089 
L 720.846318 110.574375 
L 729.965955 109.075661 
L 739.085591 107.576948 
L 748.205227 106.078234 
L 757.324864 104.57952 
L 766.4445 103.080806 
L 775.564136 101.582092 
L 784.683773 100.083378 
L 793.803409 98.584664 
L 802.923045 97.08595 
L 812.042682 95.587236 
L 821.162318 94.088522 
L 830.281955 92.589808 
L 839.401591 91.091094 
L 848.521227 89.59238 
L 857.640864 88.093667 
L 866.7605 86.594953 
L 875.880136 85.096239 
L 884.999773 83.597525 
L 894.119409 82.098811 
L 903.239045 80.600097 
L 912.358682 79.101383 
L 921.478318 77.602669 
L 930.597955 76.103955 
L 939.717591 74.605241 
L 948.837227 73.106527 
L 957.956864 71.607813 
L 967.0765 70.109099 
" clip-path="url(#pf599568bc7)" style="fill: none; stroke-dasharray: 3,4.95; stroke-dashoffset: 0; stroke: #48b585; stroke-opacity: 0.9; stroke-width: 3"/>
   </g>
   <g id="line2d_47">
    <path d="M 64.2325 390.386519 
L 81.935324 389.113738 
L 99.638147 386.743191 
L 117.340971 382.901301 
L 135.043794 380.549942 
L 152.746618 385.739329 
L 170.449441 385.853873 
L 188.152265 378.729441 
L 205.855088 373.420859 
L 223.557912 376.826376 
L 241.260735 374.380823 
L 258.963559 369.315865 
L 276.666382 374.466586 
L 294.369206 369.940336 
L 312.072029 365.464091 
L 329.774853 362.433024 
L 347.477676 363.675569 
L 365.1805 370.020575 
L 382.883324 369.375173 
L 400.586147 361.241645 
L 418.288971 355.578091 
L 435.991794 352.507196 
L 453.694618 350.678555 
L 471.397441 345.640344 
L 489.100265 345.620865 
L 506.803088 346.450295 
L 524.505912 343.703264 
L 542.208735 341.958932 
L 559.911559 340.824826 
L 577.614382 328.009513 
L 595.317206 325.970389 
L 613.020029 323.130617 
L 630.722853 327.542032 
L 648.425676 327.665007 
L 666.1285 317.405721 
L 683.831324 339.886085 
L 701.534147 323.016945 
L 719.236971 321.105739 
L 736.939794 316.634145 
L 754.642618 316.276557 
L 772.345441 307.80492 
L 790.048265 324.408631 
L 807.751088 313.170484 
L 825.453912 301.984376 
L 843.156735 358.389082 
L 860.859559 348.79991 
L 878.562382 297.02844 
L 896.265206 294.018014 
L 913.968029 292.738838 
L 931.670853 313.471381 
L 949.373676 294.871864 
L 967.0765 301.603821 
" clip-path="url(#pf599568bc7)" style="fill: none; stroke: #4ac1fa; stroke-width: 1.5; stroke-linecap: square"/>
   </g>
   <g id="line2d_48">
    <path d="M 64.2325 497.721926 
L 81.935324 497.081175 
L 99.638147 494.062319 
L 117.340971 488.044666 
L 135.043794 492.678192 
L 152.746618 507.918707 
L 170.449441 493.312256 
L 188.152265 495.961314 
L 205.855088 494.703651 
L 223.557912 501.166109 
L 241.260735 497.892871 
L 258.963559 503.511654 
L 276.666382 498.060908 
L 294.369206 513.637789 
L 312.072029 497.919036 
L 329.774853 495.53686 
L 347.477676 491.771139 
L 365.1805 508.896114 
L 382.883324 507.621299 
L 400.586147 502.699958 
L 418.288971 504.979218 
L 435.991794 497.669887 
L 453.694618 508.425726 
L 471.397441 505.923483 
L 489.100265 502.614486 
L 506.803088 506.430211 
L 524.505912 504.973403 
L 542.208735 505.708639 
L 559.911559 506.050819 
L 577.614382 504.514353 
L 595.317206 505.925227 
L 613.020029 501.467878 
L 630.722853 501.403047 
L 648.425676 519.195229 
L 666.1285 522.804833 
L 683.831324 533.435662 
L 701.534147 539.235564 
L 719.236971 537.22871 
L 736.939794 539.046595 
L 754.642618 538.927108 
L 772.345441 538.97217 
L 790.048265 542.3428 
L 807.751088 541.116826 
L 825.453912 541.700595 
L 843.156735 552.194785 
L 860.859559 551.009221 
L 878.562382 541.162178 
L 896.265206 541.236312 
L 913.968029 541.65815 
L 931.670853 546.085845 
L 949.373676 541.547385 
L 967.0765 541.878517 
" clip-path="url(#pf599568bc7)" style="fill: none; stroke: #e9a942; stroke-width: 1.5; stroke-linecap: square"/>
   </g>
   <g id="line2d_49">
    <path d="M 64.2325 512.731318 
L 81.935324 513.144143 
L 99.638147 511.209389 
L 117.340971 511.389927 
L 135.043794 509.74793 
L 152.746618 508.384153 
L 170.449441 508.775465 
L 188.152265 508.035287 
L 205.855088 506.835187 
L 223.557912 503.569507 
L 241.260735 502.065603 
L 258.963559 501.269606 
L 276.666382 491.347557 
L 294.369206 496.494498 
L 312.072029 498.633049 
L 329.774853 499.295023 
L 347.477676 499.132509 
L 365.1805 501.285305 
L 382.883324 498.644096 
L 400.586147 493.13666 
L 418.288971 495.690362 
L 435.991794 494.993792 
L 453.694618 495.027225 
L 471.397441 493.16079 
L 489.100265 492.435148 
L 506.803088 495.321435 
L 524.505912 491.332731 
L 542.208735 486.050313 
L 559.911559 489.27471 
L 577.614382 487.641434 
L 595.317206 488.295559 
L 613.020029 488.121998 
L 630.722853 488.864211 
L 648.425676 487.621956 
L 666.1285 486.128808 
L 683.831324 493.13259 
L 701.534147 484.050437 
L 719.236971 482.834929 
L 736.939794 487.209421 
L 754.642618 479.302948 
L 772.345441 484.151027 
L 790.048265 487.471653 
L 807.751088 482.68666 
L 825.453912 484.31761 
L 843.156735 506.248219 
L 860.859559 501.866458 
L 878.562382 483.964093 
L 896.265206 483.650404 
L 913.968029 481.903165 
L 931.670853 484.333891 
L 949.373676 476.582372 
L 967.0765 473.383849 
" clip-path="url(#pf599568bc7)" style="fill: none; stroke: #9a5689; stroke-width: 1.5; stroke-linecap: square"/>
   </g>
   <g id="line2d_50">
    <path d="M 64.2325 546.735027 
L 81.935324 546.988246 
L 99.638147 546.3254 
L 117.340971 546.437328 
L 135.043794 546.395173 
L 152.746618 546.319004 
L 170.449441 545.89455 
L 188.152265 545.900946 
L 205.855088 545.571267 
L 223.557912 545.804135 
L 241.260735 545.259032 
L 258.963559 544.89999 
L 276.666382 544.461291 
L 294.369206 544.667412 
L 312.072029 544.251099 
L 329.774853 544.739221 
L 347.477676 544.9122 
L 365.1805 544.899118 
L 382.883324 544.433672 
L 400.586147 543.299857 
L 418.288971 543.046347 
L 435.991794 543.508886 
L 453.694618 543.153623 
L 471.397441 543.183277 
L 489.100265 543.210314 
L 506.803088 543.105945 
L 524.505912 542.691085 
L 542.208735 542.647767 
L 559.911559 542.389025 
L 577.614382 542.416934 
L 595.317206 542.304134 
L 613.020029 542.10528 
L 630.722853 541.692455 
L 648.425676 541.52529 
L 666.1285 540.284198 
L 683.831324 542.359371 
L 701.534147 540.95344 
L 719.236971 540.681906 
L 736.939794 538.309615 
L 754.642618 538.310487 
L 772.345441 539.426859 
L 790.048265 539.476863 
L 807.751088 536.49958 
L 825.453912 535.151212 
L 843.156735 546.646938 
L 860.859559 545.024128 
L 878.562382 537.663631 
L 896.265206 538.560508 
L 913.968029 538.434044 
L 931.670853 537.910453 
L 949.373676 534.603491 
L 967.0765 535.959709 
" clip-path="url(#pf599568bc7)" style="fill: none; stroke: #be503b; stroke-width: 1.5; stroke-linecap: square"/>
   </g>
   <g id="line2d_51">
    <path d="M 64.2325 392.363718 
L 81.935324 388.951806 
L 99.638147 387.599367 
L 117.340971 386.495206 
L 135.043794 384.02843 
L 152.746618 365.961225 
L 170.449441 367.523565 
L 188.152265 364.523896 
L 205.855088 362.500762 
L 223.557912 363.03162 
L 241.260735 363.878784 
L 258.963559 366.458941 
L 276.666382 367.792773 
L 294.369206 372.611198 
L 312.072029 359.247874 
L 329.774853 357.999514 
L 347.477676 363.985479 
L 365.1805 379.267277 
L 382.883324 376.400468 
L 400.586147 363.189482 
L 418.288971 361.710289 
L 435.991794 364.533199 
L 453.694618 361.948972 
L 471.397441 361.366074 
L 489.100265 360.80062 
L 506.803088 352.100766 
L 524.505912 354.014007 
L 542.208735 353.020611 
L 559.911559 358.250989 
L 577.614382 359.349918 
L 595.317206 358.719633 
L 613.020029 355.631294 
L 630.722853 355.238238 
L 648.425676 355.272543 
L 666.1285 350.911423 
L 683.831324 357.346262 
L 701.534147 342.887207 
L 719.236971 344.205922 
L 736.939794 341.519651 
L 754.642618 340.969315 
L 772.345441 338.739768 
L 790.048265 343.077921 
L 807.751088 335.126385 
L 825.453912 337.898128 
L 843.156735 399.416923 
L 860.859559 386.507416 
L 878.562382 334.546976 
L 896.265206 335.834293 
L 913.968029 331.211815 
L 931.670853 357.390452 
L 949.373676 340.848374 
L 967.0765 337.193709 
" clip-path="url(#pf599568bc7)" style="fill: none; stroke: #e2321d; stroke-width: 1.5; stroke-linecap: square"/>
   </g>
   <g id="line2d_52">
    <path d="M 64.2325 238.668338 
L 81.935324 227.584565 
L 99.638147 219.510345 
L 117.340971 215.228883 
L 135.043794 204.889648 
L 152.746618 227.71539 
L 170.449441 205.903105 
L 188.152265 195.017895 
L 205.855088 185.890389 
L 223.557912 197.160806 
L 241.260735 176.830912 
L 258.963559 175.721808 
L 276.666382 164.098455 
L 294.369206 188.479268 
L 312.072029 152.16461 
L 329.774853 155.442791 
L 347.477676 153.043463 
L 365.1805 197.557351 
L 382.883324 186.847155 
L 400.586147 158.699458 
L 418.288971 159.478883 
L 435.991794 145.933277 
L 453.694618 153.95255 
L 471.397441 148.552681 
L 489.100265 143.687159 
L 506.803088 149.366703 
L 524.505912 145.980955 
L 542.208735 141.911139 
L 559.911559 144.862257 
L 577.614382 127.637273 
L 595.317206 132.028047 
L 613.020029 125.993241 
L 630.722853 102.144449 
L 648.425676 117.985015 
L 666.1285 114.523389 
L 683.831324 120.883222 
L 701.534147 104.469062 
L 719.236971 109.218877 
L 736.939794 100.066369 
L 754.642618 96.763768 
L 772.345441 83.444052 
L 790.048265 76.286478 
L 807.751088 82.395999 
L 825.453912 84.25662 
L 843.156735 192.389478 
L 860.859559 152.048612 
L 878.562382 68.488153 
L 896.265206 68.277961 
L 913.968029 80.576661 
L 931.670853 96.636722 
L 949.373676 57.381994 
L 967.0765 49.287133 
" clip-path="url(#pf599568bc7)" style="fill: none; stroke: #48b585; stroke-width: 6; stroke-linecap: square"/>
   </g>
   <g id="patch_3">
    <path d="M 64.2325 578.54175 
L 64.2325 24.14175 
" style="fill: none; stroke: #ffffff; stroke-linejoin: miter; stroke-linecap: square"/>
   </g>
   <g id="patch_4">
    <path d="M 967.0765 578.54175 
L 967.0765 24.14175 
" style="fill: none; stroke: #ffffff; stroke-linejoin: miter; stroke-linecap: square"/>
   </g>
   <g id="patch_5">
    <path d="M 64.2325 578.54175 
L 967.0765 578.54175 
" style="fill: none; stroke: #ffffff; stroke-linejoin: miter; stroke-linecap: square"/>
   </g>
   <g id="patch_6">
    <path d="M 64.2325 24.14175 
L 967.0765 24.14175 
" style="fill: none; stroke: #ffffff; stroke-linejoin: miter; stroke-linecap: square"/>
   </g>
   <g id="text_23">
    <!-- Enterprise Linux Instances by Distribution (System Age &gt; 1 Week) -->
    <g transform="translate(64.2325 18.14175) scale(0.144 -0.144)">
     <defs>
      <path id="DejaVuSans-45" d="M 628 4666 
L 3578 4666 
L 3578 4134 
L 1259 4134 
L 1259 2753 
L 3481 2753 
L 3481 2222 
L 1259 2222 
L 1259 531 
L 3634 531 
L 3634 0 
L 628 0 
L 628 4666 
z
" transform="scale(0.015625)"/>
      <path id="DejaVuSans-72" d="M 2631 2963 
Q 2534 3019 2420 3045 
Q 2306 3072 2169 3072 
Q 1681 3072 1420 2755 
Q 1159 2438 1159 1844 
L 1159 0 
L 581 0 
L 581 3500 
L 1159 3500 
L 1159 2956 
Q 1341 3275 1631 3429 
Q 1922 3584 2338 3584 
Q 2397 3584 2469 3576 
Q 2541 3569 2628 3553 
L 2631 2963 
z
" transform="scale(0.015625)"/>
      <path id="DejaVuSans-70" d="M 1159 525 
L 1159 -1331 
L 581 -1331 
L 581 3500 
L 1159 3500 
L 1159 2969 
Q 1341 3281 1617 3432 
Q 1894 3584 2278 3584 
Q 2916 3584 3314 3078 
Q 3713 2572 3713 1747 
Q 3713 922 3314 415 
Q 2916 -91 2278 -91 
Q 1894 -91 1617 61 
Q 1341 213 1159 525 
z
M 3116 1747 
Q 3116 2381 2855 2742 
Q 2594 3103 2138 3103 
Q 1681 3103 1420 2742 
Q 1159 2381 1159 1747 
Q 1159 1113 1420 752 
Q 1681 391 2138 391 
Q 2594 391 2855 752 
Q 3116 1113 3116 1747 
z
" transform="scale(0.015625)"/>
      <path id="DejaVuSans-69" d="M 603 3500 
L 1178 3500 
L 1178 0 
L 603 0 
L 603 3500 
z
M 603 4863 
L 1178 4863 
L 1178 4134 
L 603 4134 
L 603 4863 
z
" transform="scale(0.015625)"/>
      <path id="DejaVuSans-20" transform="scale(0.015625)"/>
      <path id="DejaVuSans-4c" d="M 628 4666 
L 1259 4666 
L 1259 531 
L 3531 531 
L 3531 0 
L 628 0 
L 628 4666 
z
" transform="scale(0.015625)"/>
      <path id="DejaVuSans-75" d="M 544 1381 
L 544 3500 
L 1119 3500 
L 1119 1403 
Q 1119 906 1312 657 
Q 1506 409 1894 409 
Q 2359 409 2629 706 
Q 2900 1003 2900 1516 
L 2900 3500 
L 3475 3500 
L 3475 0 
L 2900 0 
L 2900 538 
Q 2691 219 2414 64 
Q 2138 -91 1772 -91 
Q 1169 -91 856 284 
Q 544 659 544 1381 
z
M 1991 3584 
L 1991 3584 
z
" transform="scale(0.015625)"/>
      <path id="DejaVuSans-78" d="M 3513 3500 
L 2247 1797 
L 3578 0 
L 2900 0 
L 1881 1375 
L 863 0 
L 184 0 
L 1544 1831 
L 300 3500 
L 978 3500 
L 1906 2253 
L 2834 3500 
L 3513 3500 
z
" transform="scale(0.015625)"/>
      <path id="DejaVuSans-62" d="M 3116 1747 
Q 3116 2381 2855 2742 
Q 2594 3103 2138 3103 
Q 1681 3103 1420 2742 
Q 1159 2381 1159 1747 
Q 1159 1113 1420 752 
Q 1681 391 2138 391 
Q 2594 391 2855 752 
Q 3116 1113 3116 1747 
z
M 1159 2969 
Q 1341 3281 1617 3432 
Q 1894 3584 2278 3584 
Q 2916 3584 3314 3078 
Q 3713 2572 3713 1747 
Q 3713 922 3314 415 
Q 2916 -91 2278 -91 
Q 1894 -91 1617 61 
Q 1341 213 1159 525 
L 1159 0 
L 581 0 
L 581 4863 
L 1159 4863 
L 1159 2969 
z
" transform="scale(0.015625)"/>
      <path id="DejaVuSans-79" d="M 2059 -325 
Q 1816 -950 1584 -1140 
Q 1353 -1331 966 -1331 
L 506 -1331 
L 506 -850 
L 844 -850 
Q 1081 -850 1212 -737 
Q 1344 -625 1503 -206 
L 1606 56 
L 191 3500 
L 800 3500 
L 1894 763 
L 2988 3500 
L 3597 3500 
L 2059 -325 
z
" transform="scale(0.015625)"/>
      <path id="DejaVuSans-6f" d="M 1959 3097 
Q 1497 3097 1228 2736 
Q 959 2375 959 1747 
Q 959 1119 1226 758 
Q 1494 397 1959 397 
Q 2419 397 2687 759 
Q 2956 1122 2956 1747 
Q 2956 2369 2687 2733 
Q 2419 3097 1959 3097 
z
M 1959 3584 
Q 2709 3584 3137 3096 
Q 3566 2609 3566 1747 
Q 3566 888 3137 398 
Q 2709 -91 1959 -91 
Q 1206 -91 779 398 
Q 353 888 353 1747 
Q 353 2609 779 3096 
Q 1206 3584 1959 3584 
z
" transform="scale(0.015625)"/>
      <path id="DejaVuSans-28" d="M 1984 4856 
Q 1566 4138 1362 3434 
Q 1159 2731 1159 2009 
Q 1159 1288 1364 580 
Q 1569 -128 1984 -844 
L 1484 -844 
Q 1016 -109 783 600 
Q 550 1309 550 2009 
Q 550 2706 781 3412 
Q 1013 4119 1484 4856 
L 1984 4856 
z
" transform="scale(0.015625)"/>
      <path id="DejaVuSans-53" d="M 3425 4513 
L 3425 3897 
Q 3066 4069 2747 4153 
Q 2428 4238 2131 4238 
Q 1616 4238 1336 4038 
Q 1056 3838 1056 3469 
Q 1056 3159 1242 3001 
Q 1428 2844 1947 2747 
L 2328 2669 
Q 3034 2534 3370 2195 
Q 3706 1856 3706 1288 
Q 3706 609 3251 259 
Q 2797 -91 1919 -91 
Q 1588 -91 1214 -16 
Q 841 59 441 206 
L 441 856 
Q 825 641 1194 531 
Q 1563 422 1919 422 
Q 2459 422 2753 634 
Q 3047 847 3047 1241 
Q 3047 1584 2836 1778 
Q 2625 1972 2144 2069 
L 1759 2144 
Q 1053 2284 737 2584 
Q 422 2884 422 3419 
Q 422 4038 858 4394 
Q 1294 4750 2059 4750 
Q 2388 4750 2728 4690 
Q 3069 4631 3425 4513 
z
" transform="scale(0.015625)"/>
      <path id="DejaVuSans-6d" d="M 3328 2828 
Q 3544 3216 3844 3400 
Q 4144 3584 4550 3584 
Q 5097 3584 5394 3201 
Q 5691 2819 5691 2113 
L 5691 0 
L 5113 0 
L 5113 2094 
Q 5113 2597 4934 2840 
Q 4756 3084 4391 3084 
Q 3944 3084 3684 2787 
Q 3425 2491 3425 1978 
L 3425 0 
L 2847 0 
L 2847 2094 
Q 2847 2600 2669 2842 
Q 2491 3084 2119 3084 
Q 1678 3084 1418 2786 
Q 1159 2488 1159 1978 
L 1159 0 
L 581 0 
L 581 3500 
L 1159 3500 
L 1159 2956 
Q 1356 3278 1631 3431 
Q 1906 3584 2284 3584 
Q 2666 3584 2933 3390 
Q 3200 3197 3328 2828 
z
" transform="scale(0.015625)"/>
      <path id="DejaVuSans-41" d="M 2188 4044 
L 1331 1722 
L 3047 1722 
L 2188 4044 
z
M 1831 4666 
L 2547 4666 
L 4325 0 
L 3669 0 
L 3244 1197 
L 1141 1197 
L 716 0 
L 50 0 
L 1831 4666 
z
" transform="scale(0.015625)"/>
      <path id="DejaVuSans-67" d="M 2906 1791 
Q 2906 2416 2648 2759 
Q 2391 3103 1925 3103 
Q 1463 3103 1205 2759 
Q 947 2416 947 1791 
Q 947 1169 1205 825 
Q 1463 481 1925 481 
Q 2391 481 2648 825 
Q 2906 1169 2906 1791 
z
M 3481 434 
Q 3481 -459 3084 -895 
Q 2688 -1331 1869 -1331 
Q 1566 -1331 1297 -1286 
Q 1028 -1241 775 -1147 
L 775 -588 
Q 1028 -725 1275 -790 
Q 1522 -856 1778 -856 
Q 2344 -856 2625 -561 
Q 2906 -266 2906 331 
L 2906 616 
Q 2728 306 2450 153 
Q 2172 0 1784 0 
Q 1141 0 747 490 
Q 353 981 353 1791 
Q 353 2603 747 3093 
Q 1141 3584 1784 3584 
Q 2172 3584 2450 3431 
Q 2728 3278 2906 2969 
L 2906 3500 
L 3481 3500 
L 3481 434 
z
" transform="scale(0.015625)"/>
      <path id="DejaVuSans-3e" d="M 678 3150 
L 678 3719 
L 4684 2266 
L 4684 1747 
L 678 294 
L 678 863 
L 3897 2003 
L 678 3150 
z
" transform="scale(0.015625)"/>
      <path id="DejaVuSans-57" d="M 213 4666 
L 850 4666 
L 1831 722 
L 2809 4666 
L 3519 4666 
L 4500 722 
L 5478 4666 
L 6119 4666 
L 4947 0 
L 4153 0 
L 3169 4050 
L 2175 0 
L 1381 0 
L 213 4666 
z
" transform="scale(0.015625)"/>
      <path id="DejaVuSans-29" d="M 513 4856 
L 1013 4856 
Q 1481 4119 1714 3412 
Q 1947 2706 1947 2009 
Q 1947 1309 1714 600 
Q 1481 -109 1013 -844 
L 513 -844 
Q 928 -128 1133 580 
Q 1338 1288 1338 2009 
Q 1338 2731 1133 3434 
Q 928 4138 513 4856 
z
" transform="scale(0.015625)"/>
     </defs>
     <use xlink:href="#DejaVuSans-45"/>
     <use xlink:href="#DejaVuSans-6e" x="63.183594"/>
     <use xlink:href="#DejaVuSans-74" x="126.5625"/>
     <use xlink:href="#DejaVuSans-65" x="165.771484"/>
     <use xlink:href="#DejaVuSans-72" x="227.294922"/>
     <use xlink:href="#DejaVuSans-70" x="268.408203"/>
     <use xlink:href="#DejaVuSans-72" x="331.884766"/>
     <use xlink:href="#DejaVuSans-69" x="372.998047"/>
     <use xlink:href="#DejaVuSans-73" x="400.78125"/>
     <use xlink:href="#DejaVuSans-65" x="452.880859"/>
     <use xlink:href="#DejaVuSans-20" x="514.404297"/>
     <use xlink:href="#DejaVuSans-4c" x="546.191406"/>
     <use xlink:href="#DejaVuSans-69" x="601.904297"/>
     <use xlink:href="#DejaVuSans-6e" x="629.6875"/>
     <use xlink:href="#DejaVuSans-75" x="693.066406"/>
     <use xlink:href="#DejaVuSans-78" x="756.445312"/>
     <use xlink:href="#DejaVuSans-20" x="815.625"/>
     <use xlink:href="#DejaVuSans-49" x="847.412109"/>
     <use xlink:href="#DejaVuSans-6e" x="876.904297"/>
     <use xlink:href="#DejaVuSans-73" x="940.283203"/>
     <use xlink:href="#DejaVuSans-74" x="992.382812"/>
     <use xlink:href="#DejaVuSans-61" x="1031.591797"/>
     <use xlink:href="#DejaVuSans-6e" x="1092.871094"/>
     <use xlink:href="#DejaVuSans-63" x="1156.25"/>
     <use xlink:href="#DejaVuSans-65" x="1211.230469"/>
     <use xlink:href="#DejaVuSans-73" x="1272.753906"/>
     <use xlink:href="#DejaVuSans-20" x="1324.853516"/>
     <use xlink:href="#DejaVuSans-62" x="1356.640625"/>
     <use xlink:href="#DejaVuSans-79" x="1420.117188"/>
     <use xlink:href="#DejaVuSans-20" x="1479.296875"/>
     <use xlink:href="#DejaVuSans-44" x="1511.083984"/>
     <use xlink:href="#DejaVuSans-69" x="1588.085938"/>
     <use xlink:href="#DejaVuSans-73" x="1615.869141"/>
     <use xlink:href="#DejaVuSans-74" x="1667.96875"/>
     <use xlink:href="#DejaVuSans-72" x="1707.177734"/>
     <use xlink:href="#DejaVuSans-69" x="1748.291016"/>
     <use xlink:href="#DejaVuSans-62" x="1776.074219"/>
     <use xlink:href="#DejaVuSans-75" x="1839.550781"/>
     <use xlink:href="#DejaVuSans-74" x="1902.929688"/>
     <use xlink:href="#DejaVuSans-69" x="1942.138672"/>
     <use xlink:href="#DejaVuSans-6f" x="1969.921875"/>
     <use xlink:href="#DejaVuSans-6e" x="2031.103516"/>
     <use xlink:href="#DejaVuSans-20" x="2094.482422"/>
     <use xlink:href="#DejaVuSans-28" x="2126.269531"/>
     <use xlink:href="#DejaVuSans-53" x="2165.283203"/>
     <use xlink:href="#DejaVuSans-79" x="2228.759766"/>
     <use xlink:href="#DejaVuSans-73" x="2287.939453"/>
     <use xlink:href="#DejaVuSans-74" x="2340.039062"/>
     <use xlink:href="#DejaVuSans-65" x="2379.248047"/>
     <use xlink:href="#DejaVuSans-6d" x="2440.771484"/>
     <use xlink:href="#DejaVuSans-20" x="2538.183594"/>
     <use xlink:href="#DejaVuSans-41" x="2569.970703"/>
     <use xlink:href="#DejaVuSans-67" x="2638.378906"/>
     <use xlink:href="#DejaVuSans-65" x="2701.855469"/>
     <use xlink:href="#DejaVuSans-20" x="2763.378906"/>
     <use xlink:href="#DejaVuSans-3e" x="2795.166016"/>
     <use xlink:href="#DejaVuSans-20" x="2878.955078"/>
     <use xlink:href="#DejaVuSans-31" x="2910.742188"/>
     <use xlink:href="#DejaVuSans-20" x="2974.365234"/>
     <use xlink:href="#DejaVuSans-57" x="3006.152344"/>
     <use xlink:href="#DejaVuSans-65" x="3099.154297"/>
     <use xlink:href="#DejaVuSans-65" x="3160.677734"/>
     <use xlink:href="#DejaVuSans-6b" x="3222.201172"/>
     <use xlink:href="#DejaVuSans-29" x="3280.111328"/>
    </g>
   </g>
   <g id="text_24">
    <!-- 2025-08-29 09:13 UTC -->
    <g transform="translate(804.1945 18.14175) scale(0.144 -0.144)">
     <defs>
      <path id="DejaVuSans-3a" d="M 750 794 
L 1409 794 
L 1409 0 
L 750 0 
L 750 794 
z
M 750 3309 
L 1409 3309 
L 1409 2516 
L 750 2516 
L 750 3309 
z
" transform="scale(0.015625)"/>
      <path id="DejaVuSans-55" d="M 556 4666 
L 1191 4666 
L 1191 1831 
Q 1191 1081 1462 751 
Q 1734 422 2344 422 
Q 2950 422 3222 751 
Q 3494 1081 3494 1831 
L 3494 4666 
L 4128 4666 
L 4128 1753 
Q 4128 841 3676 375 
Q 3225 -91 2344 -91 
Q 1459 -91 1007 375 
Q 556 841 556 1753 
L 556 4666 
z
" transform="scale(0.015625)"/>
      <path id="DejaVuSans-54" d="M -19 4666 
L 3928 4666 
L 3928 4134 
L 2272 4134 
L 2272 0 
L 1638 0 
L 1638 4134 
L -19 4134 
L -19 4666 
z
" transform="scale(0.015625)"/>
      <path id="DejaVuSans-43" d="M 4122 4306 
L 4122 3641 
Q 3803 3938 3442 4084 
Q 3081 4231 2675 4231 
Q 1875 4231 1450 3742 
Q 1025 3253 1025 2328 
Q 1025 1406 1450 917 
Q 1875 428 2675 428 
Q 3081 428 3442 575 
Q 3803 722 4122 1019 
L 4122 359 
Q 3791 134 3420 21 
Q 3050 -91 2638 -91 
Q 1578 -91 968 557 
Q 359 1206 359 2328 
Q 359 3453 968 4101 
Q 1578 4750 2638 4750 
Q 3056 4750 3426 4639 
Q 3797 4528 4122 4306 
z
" transform="scale(0.015625)"/>
     </defs>
     <use xlink:href="#DejaVuSans-32"/>
     <use xlink:href="#DejaVuSans-30" x="63.623047"/>
     <use xlink:href="#DejaVuSans-32" x="127.246094"/>
     <use xlink:href="#DejaVuSans-35" x="190.869141"/>
     <use xlink:href="#DejaVuSans-2d" x="254.492188"/>
     <use xlink:href="#DejaVuSans-30" x="290.576172"/>
     <use xlink:href="#DejaVuSans-38" x="354.199219"/>
     <use xlink:href="#DejaVuSans-2d" x="417.822266"/>
     <use xlink:href="#DejaVuSans-32" x="453.90625"/>
     <use xlink:href="#DejaVuSans-39" x="517.529297"/>
     <use xlink:href="#DejaVuSans-20" x="581.152344"/>
     <use xlink:href="#DejaVuSans-30" x="612.939453"/>
     <use xlink:href="#DejaVuSans-39" x="676.5625"/>
     <use xlink:href="#DejaVuSans-3a" x="740.185547"/>
     <use xlink:href="#DejaVuSans-31" x="773.876953"/>
     <use xlink:href="#DejaVuSans-33" x="837.5"/>
     <use xlink:href="#DejaVuSans-20" x="901.123047"/>
     <use xlink:href="#DejaVuSans-55" x="932.910156"/>
     <use xlink:href="#DejaVuSans-54" x="1006.103516"/>
     <use xlink:href="#DejaVuSans-43" x="1061.3125"/>
    </g>
   </g>
   <g id="legend_1">
    <g id="patch_7">
     <path d="M 71.2325 134.888625 
L 180.20125 134.888625 
Q 182.20125 134.888625 182.20125 132.888625 
L 182.20125 31.14175 
Q 182.20125 29.14175 180.20125 29.14175 
L 71.2325 29.14175 
Q 69.2325 29.14175 69.2325 31.14175 
L 69.2325 132.888625 
Q 69.2325 134.888625 71.2325 134.888625 
z
" style="fill: #e5e5e5; opacity: 0.8; stroke: #cccccc; stroke-width: 0.5; stroke-linejoin: miter"/>
    </g>
    <g id="text_25">
     <!-- Distribution -->
     <g transform="translate(96.548125 40.740188) scale(0.1 -0.1)">
      <use xlink:href="#DejaVuSans-44"/>
      <use xlink:href="#DejaVuSans-69" x="77.001953"/>
      <use xlink:href="#DejaVuSans-73" x="104.785156"/>
      <use xlink:href="#DejaVuSans-74" x="156.884766"/>
      <use xlink:href="#DejaVuSans-72" x="196.09375"/>
      <use xlink:href="#DejaVuSans-69" x="237.207031"/>
      <use xlink:href="#DejaVuSans-62" x="264.990234"/>
      <use xlink:href="#DejaVuSans-75" x="328.466797"/>
      <use xlink:href="#DejaVuSans-74" x="391.845703"/>
      <use xlink:href="#DejaVuSans-69" x="431.054688"/>
      <use xlink:href="#DejaVuSans-6f" x="458.837891"/>
      <use xlink:href="#DejaVuSans-6e" x="520.019531"/>
     </g>
    </g>
    <g id="line2d_53">
     <path d="M 73.2325 51.918313 
L 83.2325 51.918313 
L 93.2325 51.918313 
" style="fill: none; stroke: #4ac1fa; stroke-width: 1.5; stroke-linecap: square"/>
    </g>
    <g id="text_26">
     <!-- AlmaLinux -->
     <g transform="translate(101.2325 55.418313) scale(0.1 -0.1)">
      <defs>
       <path id="DejaVuSans-6c" d="M 603 4863 
L 1178 4863 
L 1178 0 
L 603 0 
L 603 4863 
z
" transform="scale(0.015625)"/>
      </defs>
      <use xlink:href="#DejaVuSans-41"/>
      <use xlink:href="#DejaVuSans-6c" x="68.408203"/>
      <use xlink:href="#DejaVuSans-6d" x="96.191406"/>
      <use xlink:href="#DejaVuSans-61" x="193.603516"/>
      <use xlink:href="#DejaVuSans-4c" x="254.882812"/>
      <use xlink:href="#DejaVuSans-69" x="310.595703"/>
      <use xlink:href="#DejaVuSans-6e" x="338.378906"/>
      <use xlink:href="#DejaVuSans-75" x="401.757812"/>
      <use xlink:href="#DejaVuSans-78" x="465.136719"/>
     </g>
    </g>
    <g id="line2d_54">
     <path d="M 73.2325 66.596438 
L 83.2325 66.596438 
L 93.2325 66.596438 
" style="fill: none; stroke: #e9a942; stroke-width: 1.5; stroke-linecap: square"/>
    </g>
    <g id="text_27">
     <!-- CentOS Legacy -->
     <g transform="translate(101.2325 70.096438) scale(0.1 -0.1)">
      <defs>
       <path id="DejaVuSans-4f" d="M 2522 4238 
Q 1834 4238 1429 3725 
Q 1025 3213 1025 2328 
Q 1025 1447 1429 934 
Q 1834 422 2522 422 
Q 3209 422 3611 934 
Q 4013 1447 4013 2328 
Q 4013 3213 3611 3725 
Q 3209 4238 2522 4238 
z
M 2522 4750 
Q 3503 4750 4090 4092 
Q 4678 3434 4678 2328 
Q 4678 1225 4090 567 
Q 3503 -91 2522 -91 
Q 1538 -91 948 565 
Q 359 1222 359 2328 
Q 359 3434 948 4092 
Q 1538 4750 2522 4750 
z
" transform="scale(0.015625)"/>
      </defs>
      <use xlink:href="#DejaVuSans-43"/>
      <use xlink:href="#DejaVuSans-65" x="69.824219"/>
      <use xlink:href="#DejaVuSans-6e" x="131.347656"/>
      <use xlink:href="#DejaVuSans-74" x="194.726562"/>
      <use xlink:href="#DejaVuSans-4f" x="233.935547"/>
      <use xlink:href="#DejaVuSans-53" x="312.646484"/>
      <use xlink:href="#DejaVuSans-20" x="376.123047"/>
      <use xlink:href="#DejaVuSans-4c" x="407.910156"/>
      <use xlink:href="#DejaVuSans-65" x="461.873047"/>
      <use xlink:href="#DejaVuSans-67" x="523.396484"/>
      <use xlink:href="#DejaVuSans-61" x="586.873047"/>
      <use xlink:href="#DejaVuSans-63" x="648.152344"/>
      <use xlink:href="#DejaVuSans-79" x="703.132812"/>
     </g>
    </g>
    <g id="line2d_55">
     <path d="M 73.2325 81.274563 
L 83.2325 81.274563 
L 93.2325 81.274563 
" style="fill: none; stroke: #9a5689; stroke-width: 1.5; stroke-linecap: square"/>
    </g>
    <g id="text_28">
     <!-- CentOS Stream -->
     <g transform="translate(101.2325 84.774563) scale(0.1 -0.1)">
      <use xlink:href="#DejaVuSans-43"/>
      <use xlink:href="#DejaVuSans-65" x="69.824219"/>
      <use xlink:href="#DejaVuSans-6e" x="131.347656"/>
      <use xlink:href="#DejaVuSans-74" x="194.726562"/>
      <use xlink:href="#DejaVuSans-4f" x="233.935547"/>
      <use xlink:href="#DejaVuSans-53" x="312.646484"/>
      <use xlink:href="#DejaVuSans-20" x="376.123047"/>
      <use xlink:href="#DejaVuSans-53" x="407.910156"/>
      <use xlink:href="#DejaVuSans-74" x="471.386719"/>
      <use xlink:href="#DejaVuSans-72" x="510.595703"/>
      <use xlink:href="#DejaVuSans-65" x="549.458984"/>
      <use xlink:href="#DejaVuSans-61" x="610.982422"/>
      <use xlink:href="#DejaVuSans-6d" x="672.261719"/>
     </g>
    </g>
    <g id="line2d_56">
     <path d="M 73.2325 95.952688 
L 83.2325 95.952688 
L 93.2325 95.952688 
" style="fill: none; stroke: #be503b; stroke-width: 1.5; stroke-linecap: square"/>
    </g>
    <g id="text_29">
     <!-- Oracle -->
     <g transform="translate(101.2325 99.452688) scale(0.1 -0.1)">
      <use xlink:href="#DejaVuSans-4f"/>
      <use xlink:href="#DejaVuSans-72" x="78.710938"/>
      <use xlink:href="#DejaVuSans-61" x="119.824219"/>
      <use xlink:href="#DejaVuSans-63" x="181.103516"/>
      <use xlink:href="#DejaVuSans-6c" x="236.083984"/>
      <use xlink:href="#DejaVuSans-65" x="263.867188"/>
     </g>
    </g>
    <g id="line2d_57">
     <path d="M 73.2325 110.630813 
L 83.2325 110.630813 
L 93.2325 110.630813 
" style="fill: none; stroke: #e2321d; stroke-width: 1.5; stroke-linecap: square"/>
    </g>
    <g id="text_30">
     <!-- RHEL -->
     <g transform="translate(101.2325 114.130813) scale(0.1 -0.1)">
      <defs>
       <path id="DejaVuSans-52" d="M 2841 2188 
Q 3044 2119 3236 1894 
Q 3428 1669 3622 1275 
L 4263 0 
L 3584 0 
L 2988 1197 
Q 2756 1666 2539 1819 
Q 2322 1972 1947 1972 
L 1259 1972 
L 1259 0 
L 628 0 
L 628 4666 
L 2053 4666 
Q 2853 4666 3247 4331 
Q 3641 3997 3641 3322 
Q 3641 2881 3436 2590 
Q 3231 2300 2841 2188 
z
M 1259 4147 
L 1259 2491 
L 2053 2491 
Q 2509 2491 2742 2702 
Q 2975 2913 2975 3322 
Q 2975 3731 2742 3939 
Q 2509 4147 2053 4147 
L 1259 4147 
z
" transform="scale(0.015625)"/>
       <path id="DejaVuSans-48" d="M 628 4666 
L 1259 4666 
L 1259 2753 
L 3553 2753 
L 3553 4666 
L 4184 4666 
L 4184 0 
L 3553 0 
L 3553 2222 
L 1259 2222 
L 1259 0 
L 628 0 
L 628 4666 
z
" transform="scale(0.015625)"/>
      </defs>
      <use xlink:href="#DejaVuSans-52"/>
      <use xlink:href="#DejaVuSans-48" x="69.482422"/>
      <use xlink:href="#DejaVuSans-45" x="144.677734"/>
      <use xlink:href="#DejaVuSans-4c" x="207.861328"/>
     </g>
    </g>
    <g id="line2d_58">
     <path d="M 73.2325 125.308938 
L 83.2325 125.308938 
L 93.2325 125.308938 
" style="fill: none; stroke: #48b585; stroke-width: 6; stroke-linecap: square"/>
    </g>
    <g id="text_31">
     <!-- Rocky Linux -->
     <g transform="translate(101.2325 128.808938) scale(0.1 -0.1)">
      <use xlink:href="#DejaVuSans-52"/>
      <use xlink:href="#DejaVuSans-6f" x="64.982422"/>
      <use xlink:href="#DejaVuSans-63" x="126.164062"/>
      <use xlink:href="#DejaVuSans-6b" x="181.144531"/>
      <use xlink:href="#DejaVuSans-79" x="235.429688"/>
      <use xlink:href="#DejaVuSans-20" x="294.609375"/>
      <use xlink:href="#DejaVuSans-4c" x="326.396484"/>
      <use xlink:href="#DejaVuSans-69" x="382.109375"/>
      <use xlink:href="#DejaVuSans-6e" x="409.892578"/>
      <use xlink:href="#DejaVuSans-75" x="473.271484"/>
      <use xlink:href="#DejaVuSans-78" x="536.650391"/>
     </g>
    </g>
   </g>
  </g>
 </g>
 <defs>
  <clipPath id="pf599568bc7">
   <rect x="64.2325" y="24.14175" width="902.844" height="554.4"/>
  </clipPath>
 </defs>
</svg>
