<?xml version="1.0" encoding="utf-8" standalone="no"?>
<!DOCTYPE svg PUBLIC "-//W3C//DTD SVG 1.1//EN"
  "http://www.w3.org/Graphics/SVG/1.1/DTD/svg11.dtd">
<svg xmlns:xlink="http://www.w3.org/1999/xlink" width="962.123375pt" height="633.943878pt" viewBox="0 0 962.123375 633.943878" xmlns="http://www.w3.org/2000/svg" version="1.1">
 <metadata>
  <rdf:RDF xmlns:dc="http://purl.org/dc/elements/1.1/" xmlns:cc="http://creativecommons.org/ns#" xmlns:rdf="http://www.w3.org/1999/02/22-rdf-syntax-ns#">
   <cc:Work>
    <dc:type rdf:resource="http://purl.org/dc/dcmitype/StillImage"/>
    <dc:date>2023-06-15T11:50:13.709479</dc:date>
    <dc:format>image/svg+xml</dc:format>
    <dc:creator>
     <cc:Agent>
      <dc:title>Matplotlib v3.5.1, https://matplotlib.org/</dc:title>
     </cc:Agent>
    </dc:creator>
   </cc:Work>
  </rdf:RDF>
 </metadata>
 <defs>
  <style type="text/css">*{stroke-linejoin: round; stroke-linecap: butt}</style>
 </defs>
 <g id="figure_1">
  <g id="patch_1">
   <path d="M 0 633.943878 
L 962.123375 633.943878 
L 962.123375 0 
L 0 0 
z
" style="fill: #ffffff"/>
  </g>
  <g id="axes_1">
   <g id="patch_2">
    <path d="M 52.079375 567.74175 
L 954.923375 567.74175 
L 954.923375 24.14175 
L 52.079375 24.14175 
z
" style="fill: #e5e5e5"/>
   </g>
   <g id="matplotlib.axis_1">
    <g id="xtick_1">
     <g id="line2d_1">
      <path d="M 69.782199 567.74175 
L 69.782199 24.14175 
" clip-path="url(#p0eb79cbc7c)" style="fill: none; stroke: #ffffff; stroke-width: 0.8; stroke-linecap: square"/>
     </g>
     <g id="line2d_2">
      <defs>
       <path id="m65196cd275" d="M 0 0 
L 0 3.5 
" style="stroke: #555555; stroke-width: 0.8"/>
      </defs>
      <g>
       <use xlink:href="#m65196cd275" x="69.782199" y="567.74175" style="fill: #555555; stroke: #555555; stroke-width: 0.8"/>
      </g>
     </g>
     <g id="text_1">
      <!-- 2022-06 -->
      <g style="fill: #555555" transform="translate(56.960916 609.659567)rotate(-45)scale(0.1 -0.1)">
       <defs>
        <path id="DejaVuSans-32" d="M 1228 531 
L 3431 531 
L 3431 0 
L 469 0 
L 469 531 
Q 828 903 1448 1529 
Q 2069 2156 2228 2338 
Q 2531 2678 2651 2914 
Q 2772 3150 2772 3378 
Q 2772 3750 2511 3984 
Q 2250 4219 1831 4219 
Q 1534 4219 1204 4116 
Q 875 4013 500 3803 
L 500 4441 
Q 881 4594 1212 4672 
Q 1544 4750 1819 4750 
Q 2544 4750 2975 4387 
Q 3406 4025 3406 3419 
Q 3406 3131 3298 2873 
Q 3191 2616 2906 2266 
Q 2828 2175 2409 1742 
Q 1991 1309 1228 531 
z
" transform="scale(0.015625)"/>
        <path id="DejaVuSans-30" d="M 2034 4250 
Q 1547 4250 1301 3770 
Q 1056 3291 1056 2328 
Q 1056 1369 1301 889 
Q 1547 409 2034 409 
Q 2525 409 2770 889 
Q 3016 1369 3016 2328 
Q 3016 3291 2770 3770 
Q 2525 4250 2034 4250 
z
M 2034 4750 
Q 2819 4750 3233 4129 
Q 3647 3509 3647 2328 
Q 3647 1150 3233 529 
Q 2819 -91 2034 -91 
Q 1250 -91 836 529 
Q 422 1150 422 2328 
Q 422 3509 836 4129 
Q 1250 4750 2034 4750 
z
" transform="scale(0.015625)"/>
        <path id="DejaVuSans-2d" d="M 313 2009 
L 1997 2009 
L 1997 1497 
L 313 1497 
L 313 2009 
z
" transform="scale(0.015625)"/>
        <path id="DejaVuSans-36" d="M 2113 2584 
Q 1688 2584 1439 2293 
Q 1191 2003 1191 1497 
Q 1191 994 1439 701 
Q 1688 409 2113 409 
Q 2538 409 2786 701 
Q 3034 994 3034 1497 
Q 3034 2003 2786 2293 
Q 2538 2584 2113 2584 
z
M 3366 4563 
L 3366 3988 
Q 3128 4100 2886 4159 
Q 2644 4219 2406 4219 
Q 1781 4219 1451 3797 
Q 1122 3375 1075 2522 
Q 1259 2794 1537 2939 
Q 1816 3084 2150 3084 
Q 2853 3084 3261 2657 
Q 3669 2231 3669 1497 
Q 3669 778 3244 343 
Q 2819 -91 2113 -91 
Q 1303 -91 875 529 
Q 447 1150 447 2328 
Q 447 3434 972 4092 
Q 1497 4750 2381 4750 
Q 2619 4750 2861 4703 
Q 3103 4656 3366 4563 
z
" transform="scale(0.015625)"/>
       </defs>
       <use xlink:href="#DejaVuSans-32"/>
       <use xlink:href="#DejaVuSans-30" x="63.623047"/>
       <use xlink:href="#DejaVuSans-32" x="127.246094"/>
       <use xlink:href="#DejaVuSans-32" x="190.869141"/>
       <use xlink:href="#DejaVuSans-2d" x="254.492188"/>
       <use xlink:href="#DejaVuSans-30" x="290.576172"/>
       <use xlink:href="#DejaVuSans-36" x="354.199219"/>
      </g>
     </g>
    </g>
    <g id="xtick_2">
     <g id="line2d_3">
      <path d="M 145.651442 567.74175 
L 145.651442 24.14175 
" clip-path="url(#p0eb79cbc7c)" style="fill: none; stroke: #ffffff; stroke-width: 0.8; stroke-linecap: square"/>
     </g>
     <g id="line2d_4">
      <g>
       <use xlink:href="#m65196cd275" x="145.651442" y="567.74175" style="fill: #555555; stroke: #555555; stroke-width: 0.8"/>
      </g>
     </g>
     <g id="text_2">
      <!-- 2022-07 -->
      <g style="fill: #555555" transform="translate(132.83016 609.659567)rotate(-45)scale(0.1 -0.1)">
       <defs>
        <path id="DejaVuSans-37" d="M 525 4666 
L 3525 4666 
L 3525 4397 
L 1831 0 
L 1172 0 
L 2766 4134 
L 525 4134 
L 525 4666 
z
" transform="scale(0.015625)"/>
       </defs>
       <use xlink:href="#DejaVuSans-32"/>
       <use xlink:href="#DejaVuSans-30" x="63.623047"/>
       <use xlink:href="#DejaVuSans-32" x="127.246094"/>
       <use xlink:href="#DejaVuSans-32" x="190.869141"/>
       <use xlink:href="#DejaVuSans-2d" x="254.492188"/>
       <use xlink:href="#DejaVuSans-30" x="290.576172"/>
       <use xlink:href="#DejaVuSans-37" x="354.199219"/>
      </g>
     </g>
    </g>
    <g id="xtick_3">
     <g id="line2d_5">
      <path d="M 224.049661 567.74175 
L 224.049661 24.14175 
" clip-path="url(#p0eb79cbc7c)" style="fill: none; stroke: #ffffff; stroke-width: 0.8; stroke-linecap: square"/>
     </g>
     <g id="line2d_6">
      <g>
       <use xlink:href="#m65196cd275" x="224.049661" y="567.74175" style="fill: #555555; stroke: #555555; stroke-width: 0.8"/>
      </g>
     </g>
     <g id="text_3">
      <!-- 2022-08 -->
      <g style="fill: #555555" transform="translate(211.228378 609.659567)rotate(-45)scale(0.1 -0.1)">
       <defs>
        <path id="DejaVuSans-38" d="M 2034 2216 
Q 1584 2216 1326 1975 
Q 1069 1734 1069 1313 
Q 1069 891 1326 650 
Q 1584 409 2034 409 
Q 2484 409 2743 651 
Q 3003 894 3003 1313 
Q 3003 1734 2745 1975 
Q 2488 2216 2034 2216 
z
M 1403 2484 
Q 997 2584 770 2862 
Q 544 3141 544 3541 
Q 544 4100 942 4425 
Q 1341 4750 2034 4750 
Q 2731 4750 3128 4425 
Q 3525 4100 3525 3541 
Q 3525 3141 3298 2862 
Q 3072 2584 2669 2484 
Q 3125 2378 3379 2068 
Q 3634 1759 3634 1313 
Q 3634 634 3220 271 
Q 2806 -91 2034 -91 
Q 1263 -91 848 271 
Q 434 634 434 1313 
Q 434 1759 690 2068 
Q 947 2378 1403 2484 
z
M 1172 3481 
Q 1172 3119 1398 2916 
Q 1625 2713 2034 2713 
Q 2441 2713 2670 2916 
Q 2900 3119 2900 3481 
Q 2900 3844 2670 4047 
Q 2441 4250 2034 4250 
Q 1625 4250 1398 4047 
Q 1172 3844 1172 3481 
z
" transform="scale(0.015625)"/>
       </defs>
       <use xlink:href="#DejaVuSans-32"/>
       <use xlink:href="#DejaVuSans-30" x="63.623047"/>
       <use xlink:href="#DejaVuSans-32" x="127.246094"/>
       <use xlink:href="#DejaVuSans-32" x="190.869141"/>
       <use xlink:href="#DejaVuSans-2d" x="254.492188"/>
       <use xlink:href="#DejaVuSans-30" x="290.576172"/>
       <use xlink:href="#DejaVuSans-38" x="354.199219"/>
      </g>
     </g>
    </g>
    <g id="xtick_4">
     <g id="line2d_7">
      <path d="M 302.447879 567.74175 
L 302.447879 24.14175 
" clip-path="url(#p0eb79cbc7c)" style="fill: none; stroke: #ffffff; stroke-width: 0.8; stroke-linecap: square"/>
     </g>
     <g id="line2d_8">
      <g>
       <use xlink:href="#m65196cd275" x="302.447879" y="567.74175" style="fill: #555555; stroke: #555555; stroke-width: 0.8"/>
      </g>
     </g>
     <g id="text_4">
      <!-- 2022-09 -->
      <g style="fill: #555555" transform="translate(289.626597 609.659567)rotate(-45)scale(0.1 -0.1)">
       <defs>
        <path id="DejaVuSans-39" d="M 703 97 
L 703 672 
Q 941 559 1184 500 
Q 1428 441 1663 441 
Q 2288 441 2617 861 
Q 2947 1281 2994 2138 
Q 2813 1869 2534 1725 
Q 2256 1581 1919 1581 
Q 1219 1581 811 2004 
Q 403 2428 403 3163 
Q 403 3881 828 4315 
Q 1253 4750 1959 4750 
Q 2769 4750 3195 4129 
Q 3622 3509 3622 2328 
Q 3622 1225 3098 567 
Q 2575 -91 1691 -91 
Q 1453 -91 1209 -44 
Q 966 3 703 97 
z
M 1959 2075 
Q 2384 2075 2632 2365 
Q 2881 2656 2881 3163 
Q 2881 3666 2632 3958 
Q 2384 4250 1959 4250 
Q 1534 4250 1286 3958 
Q 1038 3666 1038 3163 
Q 1038 2656 1286 2365 
Q 1534 2075 1959 2075 
z
" transform="scale(0.015625)"/>
       </defs>
       <use xlink:href="#DejaVuSans-32"/>
       <use xlink:href="#DejaVuSans-30" x="63.623047"/>
       <use xlink:href="#DejaVuSans-32" x="127.246094"/>
       <use xlink:href="#DejaVuSans-32" x="190.869141"/>
       <use xlink:href="#DejaVuSans-2d" x="254.492188"/>
       <use xlink:href="#DejaVuSans-30" x="290.576172"/>
       <use xlink:href="#DejaVuSans-39" x="354.199219"/>
      </g>
     </g>
    </g>
    <g id="xtick_5">
     <g id="line2d_9">
      <path d="M 378.317123 567.74175 
L 378.317123 24.14175 
" clip-path="url(#p0eb79cbc7c)" style="fill: none; stroke: #ffffff; stroke-width: 0.8; stroke-linecap: square"/>
     </g>
     <g id="line2d_10">
      <g>
       <use xlink:href="#m65196cd275" x="378.317123" y="567.74175" style="fill: #555555; stroke: #555555; stroke-width: 0.8"/>
      </g>
     </g>
     <g id="text_5">
      <!-- 2022-10 -->
      <g style="fill: #555555" transform="translate(365.495841 609.659567)rotate(-45)scale(0.1 -0.1)">
       <defs>
        <path id="DejaVuSans-31" d="M 794 531 
L 1825 531 
L 1825 4091 
L 703 3866 
L 703 4441 
L 1819 4666 
L 2450 4666 
L 2450 531 
L 3481 531 
L 3481 0 
L 794 0 
L 794 531 
z
" transform="scale(0.015625)"/>
       </defs>
       <use xlink:href="#DejaVuSans-32"/>
       <use xlink:href="#DejaVuSans-30" x="63.623047"/>
       <use xlink:href="#DejaVuSans-32" x="127.246094"/>
       <use xlink:href="#DejaVuSans-32" x="190.869141"/>
       <use xlink:href="#DejaVuSans-2d" x="254.492188"/>
       <use xlink:href="#DejaVuSans-31" x="290.576172"/>
       <use xlink:href="#DejaVuSans-30" x="354.199219"/>
      </g>
     </g>
    </g>
    <g id="xtick_6">
     <g id="line2d_11">
      <path d="M 456.715341 567.74175 
L 456.715341 24.14175 
" clip-path="url(#p0eb79cbc7c)" style="fill: none; stroke: #ffffff; stroke-width: 0.8; stroke-linecap: square"/>
     </g>
     <g id="line2d_12">
      <g>
       <use xlink:href="#m65196cd275" x="456.715341" y="567.74175" style="fill: #555555; stroke: #555555; stroke-width: 0.8"/>
      </g>
     </g>
     <g id="text_6">
      <!-- 2022-11 -->
      <g style="fill: #555555" transform="translate(443.894059 609.659567)rotate(-45)scale(0.1 -0.1)">
       <use xlink:href="#DejaVuSans-32"/>
       <use xlink:href="#DejaVuSans-30" x="63.623047"/>
       <use xlink:href="#DejaVuSans-32" x="127.246094"/>
       <use xlink:href="#DejaVuSans-32" x="190.869141"/>
       <use xlink:href="#DejaVuSans-2d" x="254.492188"/>
       <use xlink:href="#DejaVuSans-31" x="290.576172"/>
       <use xlink:href="#DejaVuSans-31" x="354.199219"/>
      </g>
     </g>
    </g>
    <g id="xtick_7">
     <g id="line2d_13">
      <path d="M 532.584585 567.74175 
L 532.584585 24.14175 
" clip-path="url(#p0eb79cbc7c)" style="fill: none; stroke: #ffffff; stroke-width: 0.8; stroke-linecap: square"/>
     </g>
     <g id="line2d_14">
      <g>
       <use xlink:href="#m65196cd275" x="532.584585" y="567.74175" style="fill: #555555; stroke: #555555; stroke-width: 0.8"/>
      </g>
     </g>
     <g id="text_7">
      <!-- 2022-12 -->
      <g style="fill: #555555" transform="translate(519.763303 609.659567)rotate(-45)scale(0.1 -0.1)">
       <use xlink:href="#DejaVuSans-32"/>
       <use xlink:href="#DejaVuSans-30" x="63.623047"/>
       <use xlink:href="#DejaVuSans-32" x="127.246094"/>
       <use xlink:href="#DejaVuSans-32" x="190.869141"/>
       <use xlink:href="#DejaVuSans-2d" x="254.492188"/>
       <use xlink:href="#DejaVuSans-31" x="290.576172"/>
       <use xlink:href="#DejaVuSans-32" x="354.199219"/>
      </g>
     </g>
    </g>
    <g id="xtick_8">
     <g id="line2d_15">
      <path d="M 610.982804 567.74175 
L 610.982804 24.14175 
" clip-path="url(#p0eb79cbc7c)" style="fill: none; stroke: #ffffff; stroke-width: 0.8; stroke-linecap: square"/>
     </g>
     <g id="line2d_16">
      <g>
       <use xlink:href="#m65196cd275" x="610.982804" y="567.74175" style="fill: #555555; stroke: #555555; stroke-width: 0.8"/>
      </g>
     </g>
     <g id="text_8">
      <!-- 2023-01 -->
      <g style="fill: #555555" transform="translate(598.161521 609.659567)rotate(-45)scale(0.1 -0.1)">
       <defs>
        <path id="DejaVuSans-33" d="M 2597 2516 
Q 3050 2419 3304 2112 
Q 3559 1806 3559 1356 
Q 3559 666 3084 287 
Q 2609 -91 1734 -91 
Q 1441 -91 1130 -33 
Q 819 25 488 141 
L 488 750 
Q 750 597 1062 519 
Q 1375 441 1716 441 
Q 2309 441 2620 675 
Q 2931 909 2931 1356 
Q 2931 1769 2642 2001 
Q 2353 2234 1838 2234 
L 1294 2234 
L 1294 2753 
L 1863 2753 
Q 2328 2753 2575 2939 
Q 2822 3125 2822 3475 
Q 2822 3834 2567 4026 
Q 2313 4219 1838 4219 
Q 1578 4219 1281 4162 
Q 984 4106 628 3988 
L 628 4550 
Q 988 4650 1302 4700 
Q 1616 4750 1894 4750 
Q 2613 4750 3031 4423 
Q 3450 4097 3450 3541 
Q 3450 3153 3228 2886 
Q 3006 2619 2597 2516 
z
" transform="scale(0.015625)"/>
       </defs>
       <use xlink:href="#DejaVuSans-32"/>
       <use xlink:href="#DejaVuSans-30" x="63.623047"/>
       <use xlink:href="#DejaVuSans-32" x="127.246094"/>
       <use xlink:href="#DejaVuSans-33" x="190.869141"/>
       <use xlink:href="#DejaVuSans-2d" x="254.492188"/>
       <use xlink:href="#DejaVuSans-30" x="290.576172"/>
       <use xlink:href="#DejaVuSans-31" x="354.199219"/>
      </g>
     </g>
    </g>
    <g id="xtick_9">
     <g id="line2d_17">
      <path d="M 689.381022 567.74175 
L 689.381022 24.14175 
" clip-path="url(#p0eb79cbc7c)" style="fill: none; stroke: #ffffff; stroke-width: 0.8; stroke-linecap: square"/>
     </g>
     <g id="line2d_18">
      <g>
       <use xlink:href="#m65196cd275" x="689.381022" y="567.74175" style="fill: #555555; stroke: #555555; stroke-width: 0.8"/>
      </g>
     </g>
     <g id="text_9">
      <!-- 2023-02 -->
      <g style="fill: #555555" transform="translate(676.55974 609.659567)rotate(-45)scale(0.1 -0.1)">
       <use xlink:href="#DejaVuSans-32"/>
       <use xlink:href="#DejaVuSans-30" x="63.623047"/>
       <use xlink:href="#DejaVuSans-32" x="127.246094"/>
       <use xlink:href="#DejaVuSans-33" x="190.869141"/>
       <use xlink:href="#DejaVuSans-2d" x="254.492188"/>
       <use xlink:href="#DejaVuSans-30" x="290.576172"/>
       <use xlink:href="#DejaVuSans-32" x="354.199219"/>
      </g>
     </g>
    </g>
    <g id="xtick_10">
     <g id="line2d_19">
      <path d="M 760.192316 567.74175 
L 760.192316 24.14175 
" clip-path="url(#p0eb79cbc7c)" style="fill: none; stroke: #ffffff; stroke-width: 0.8; stroke-linecap: square"/>
     </g>
     <g id="line2d_20">
      <g>
       <use xlink:href="#m65196cd275" x="760.192316" y="567.74175" style="fill: #555555; stroke: #555555; stroke-width: 0.8"/>
      </g>
     </g>
     <g id="text_10">
      <!-- 2023-03 -->
      <g style="fill: #555555" transform="translate(747.371034 609.659567)rotate(-45)scale(0.1 -0.1)">
       <use xlink:href="#DejaVuSans-32"/>
       <use xlink:href="#DejaVuSans-30" x="63.623047"/>
       <use xlink:href="#DejaVuSans-32" x="127.246094"/>
       <use xlink:href="#DejaVuSans-33" x="190.869141"/>
       <use xlink:href="#DejaVuSans-2d" x="254.492188"/>
       <use xlink:href="#DejaVuSans-30" x="290.576172"/>
       <use xlink:href="#DejaVuSans-33" x="354.199219"/>
      </g>
     </g>
    </g>
    <g id="xtick_11">
     <g id="line2d_21">
      <path d="M 838.590535 567.74175 
L 838.590535 24.14175 
" clip-path="url(#p0eb79cbc7c)" style="fill: none; stroke: #ffffff; stroke-width: 0.8; stroke-linecap: square"/>
     </g>
     <g id="line2d_22">
      <g>
       <use xlink:href="#m65196cd275" x="838.590535" y="567.74175" style="fill: #555555; stroke: #555555; stroke-width: 0.8"/>
      </g>
     </g>
     <g id="text_11">
      <!-- 2023-04 -->
      <g style="fill: #555555" transform="translate(825.769252 609.659567)rotate(-45)scale(0.1 -0.1)">
       <defs>
        <path id="DejaVuSans-34" d="M 2419 4116 
L 825 1625 
L 2419 1625 
L 2419 4116 
z
M 2253 4666 
L 3047 4666 
L 3047 1625 
L 3713 1625 
L 3713 1100 
L 3047 1100 
L 3047 0 
L 2419 0 
L 2419 1100 
L 313 1100 
L 313 1709 
L 2253 4666 
z
" transform="scale(0.015625)"/>
       </defs>
       <use xlink:href="#DejaVuSans-32"/>
       <use xlink:href="#DejaVuSans-30" x="63.623047"/>
       <use xlink:href="#DejaVuSans-32" x="127.246094"/>
       <use xlink:href="#DejaVuSans-33" x="190.869141"/>
       <use xlink:href="#DejaVuSans-2d" x="254.492188"/>
       <use xlink:href="#DejaVuSans-30" x="290.576172"/>
       <use xlink:href="#DejaVuSans-34" x="354.199219"/>
      </g>
     </g>
    </g>
    <g id="xtick_12">
     <g id="line2d_23">
      <path d="M 914.459778 567.74175 
L 914.459778 24.14175 
" clip-path="url(#p0eb79cbc7c)" style="fill: none; stroke: #ffffff; stroke-width: 0.8; stroke-linecap: square"/>
     </g>
     <g id="line2d_24">
      <g>
       <use xlink:href="#m65196cd275" x="914.459778" y="567.74175" style="fill: #555555; stroke: #555555; stroke-width: 0.8"/>
      </g>
     </g>
     <g id="text_12">
      <!-- 2023-05 -->
      <g style="fill: #555555" transform="translate(901.638496 609.659567)rotate(-45)scale(0.1 -0.1)">
       <defs>
        <path id="DejaVuSans-35" d="M 691 4666 
L 3169 4666 
L 3169 4134 
L 1269 4134 
L 1269 2991 
Q 1406 3038 1543 3061 
Q 1681 3084 1819 3084 
Q 2600 3084 3056 2656 
Q 3513 2228 3513 1497 
Q 3513 744 3044 326 
Q 2575 -91 1722 -91 
Q 1428 -91 1123 -41 
Q 819 9 494 109 
L 494 744 
Q 775 591 1075 516 
Q 1375 441 1709 441 
Q 2250 441 2565 725 
Q 2881 1009 2881 1497 
Q 2881 1984 2565 2268 
Q 2250 2553 1709 2553 
Q 1456 2553 1204 2497 
Q 953 2441 691 2322 
L 691 4666 
z
" transform="scale(0.015625)"/>
       </defs>
       <use xlink:href="#DejaVuSans-32"/>
       <use xlink:href="#DejaVuSans-30" x="63.623047"/>
       <use xlink:href="#DejaVuSans-32" x="127.246094"/>
       <use xlink:href="#DejaVuSans-33" x="190.869141"/>
       <use xlink:href="#DejaVuSans-2d" x="254.492188"/>
       <use xlink:href="#DejaVuSans-30" x="290.576172"/>
       <use xlink:href="#DejaVuSans-35" x="354.199219"/>
      </g>
     </g>
    </g>
    <g id="text_13">
     <!-- Date -->
     <g style="fill: #555555" transform="translate(489.160438 624.248253)scale(0.12 -0.12)">
      <defs>
       <path id="DejaVuSans-44" d="M 1259 4147 
L 1259 519 
L 2022 519 
Q 2988 519 3436 956 
Q 3884 1394 3884 2338 
Q 3884 3275 3436 3711 
Q 2988 4147 2022 4147 
L 1259 4147 
z
M 628 4666 
L 1925 4666 
Q 3281 4666 3915 4102 
Q 4550 3538 4550 2338 
Q 4550 1131 3912 565 
Q 3275 0 1925 0 
L 628 0 
L 628 4666 
z
" transform="scale(0.015625)"/>
       <path id="DejaVuSans-61" d="M 2194 1759 
Q 1497 1759 1228 1600 
Q 959 1441 959 1056 
Q 959 750 1161 570 
Q 1363 391 1709 391 
Q 2188 391 2477 730 
Q 2766 1069 2766 1631 
L 2766 1759 
L 2194 1759 
z
M 3341 1997 
L 3341 0 
L 2766 0 
L 2766 531 
Q 2569 213 2275 61 
Q 1981 -91 1556 -91 
Q 1019 -91 701 211 
Q 384 513 384 1019 
Q 384 1609 779 1909 
Q 1175 2209 1959 2209 
L 2766 2209 
L 2766 2266 
Q 2766 2663 2505 2880 
Q 2244 3097 1772 3097 
Q 1472 3097 1187 3025 
Q 903 2953 641 2809 
L 641 3341 
Q 956 3463 1253 3523 
Q 1550 3584 1831 3584 
Q 2591 3584 2966 3190 
Q 3341 2797 3341 1997 
z
" transform="scale(0.015625)"/>
       <path id="DejaVuSans-74" d="M 1172 4494 
L 1172 3500 
L 2356 3500 
L 2356 3053 
L 1172 3053 
L 1172 1153 
Q 1172 725 1289 603 
Q 1406 481 1766 481 
L 2356 481 
L 2356 0 
L 1766 0 
Q 1100 0 847 248 
Q 594 497 594 1153 
L 594 3053 
L 172 3053 
L 172 3500 
L 594 3500 
L 594 4494 
L 1172 4494 
z
" transform="scale(0.015625)"/>
       <path id="DejaVuSans-65" d="M 3597 1894 
L 3597 1613 
L 953 1613 
Q 991 1019 1311 708 
Q 1631 397 2203 397 
Q 2534 397 2845 478 
Q 3156 559 3463 722 
L 3463 178 
Q 3153 47 2828 -22 
Q 2503 -91 2169 -91 
Q 1331 -91 842 396 
Q 353 884 353 1716 
Q 353 2575 817 3079 
Q 1281 3584 2069 3584 
Q 2775 3584 3186 3129 
Q 3597 2675 3597 1894 
z
M 3022 2063 
Q 3016 2534 2758 2815 
Q 2500 3097 2075 3097 
Q 1594 3097 1305 2825 
Q 1016 2553 972 2059 
L 3022 2063 
z
" transform="scale(0.015625)"/>
      </defs>
      <use xlink:href="#DejaVuSans-44"/>
      <use xlink:href="#DejaVuSans-61" x="77.001953"/>
      <use xlink:href="#DejaVuSans-74" x="138.28125"/>
      <use xlink:href="#DejaVuSans-65" x="177.490234"/>
     </g>
    </g>
   </g>
   <g id="matplotlib.axis_2">
    <g id="ytick_1">
     <g id="line2d_25">
      <path d="M 52.079375 567.74175 
L 954.923375 567.74175 
" clip-path="url(#p0eb79cbc7c)" style="fill: none; stroke: #ffffff; stroke-width: 0.8; stroke-linecap: square"/>
     </g>
     <g id="line2d_26">
      <defs>
       <path id="m018036bb22" d="M 0 0 
L -3.5 0 
" style="stroke: #555555; stroke-width: 0.8"/>
      </defs>
      <g>
       <use xlink:href="#m018036bb22" x="52.079375" y="567.74175" style="fill: #555555; stroke: #555555; stroke-width: 0.8"/>
      </g>
     </g>
     <g id="text_14">
      <!-- 0.00 -->
      <g style="fill: #555555" transform="translate(22.81375 571.540969)scale(0.1 -0.1)">
       <defs>
        <path id="DejaVuSans-2e" d="M 684 794 
L 1344 794 
L 1344 0 
L 684 0 
L 684 794 
z
" transform="scale(0.015625)"/>
       </defs>
       <use xlink:href="#DejaVuSans-30"/>
       <use xlink:href="#DejaVuSans-2e" x="63.623047"/>
       <use xlink:href="#DejaVuSans-30" x="95.410156"/>
       <use xlink:href="#DejaVuSans-30" x="159.033203"/>
      </g>
     </g>
    </g>
    <g id="ytick_2">
     <g id="line2d_27">
      <path d="M 52.079375 456.459693 
L 954.923375 456.459693 
" clip-path="url(#p0eb79cbc7c)" style="fill: none; stroke: #ffffff; stroke-width: 0.8; stroke-linecap: square"/>
     </g>
     <g id="line2d_28">
      <g>
       <use xlink:href="#m018036bb22" x="52.079375" y="456.459693" style="fill: #555555; stroke: #555555; stroke-width: 0.8"/>
      </g>
     </g>
     <g id="text_15">
      <!-- 0.05 -->
      <g style="fill: #555555" transform="translate(22.81375 460.258911)scale(0.1 -0.1)">
       <use xlink:href="#DejaVuSans-30"/>
       <use xlink:href="#DejaVuSans-2e" x="63.623047"/>
       <use xlink:href="#DejaVuSans-30" x="95.410156"/>
       <use xlink:href="#DejaVuSans-35" x="159.033203"/>
      </g>
     </g>
    </g>
    <g id="ytick_3">
     <g id="line2d_29">
      <path d="M 52.079375 345.177635 
L 954.923375 345.177635 
" clip-path="url(#p0eb79cbc7c)" style="fill: none; stroke: #ffffff; stroke-width: 0.8; stroke-linecap: square"/>
     </g>
     <g id="line2d_30">
      <g>
       <use xlink:href="#m018036bb22" x="52.079375" y="345.177635" style="fill: #555555; stroke: #555555; stroke-width: 0.8"/>
      </g>
     </g>
     <g id="text_16">
      <!-- 0.10 -->
      <g style="fill: #555555" transform="translate(22.81375 348.976854)scale(0.1 -0.1)">
       <use xlink:href="#DejaVuSans-30"/>
       <use xlink:href="#DejaVuSans-2e" x="63.623047"/>
       <use xlink:href="#DejaVuSans-31" x="95.410156"/>
       <use xlink:href="#DejaVuSans-30" x="159.033203"/>
      </g>
     </g>
    </g>
    <g id="ytick_4">
     <g id="line2d_31">
      <path d="M 52.079375 233.895578 
L 954.923375 233.895578 
" clip-path="url(#p0eb79cbc7c)" style="fill: none; stroke: #ffffff; stroke-width: 0.8; stroke-linecap: square"/>
     </g>
     <g id="line2d_32">
      <g>
       <use xlink:href="#m018036bb22" x="52.079375" y="233.895578" style="fill: #555555; stroke: #555555; stroke-width: 0.8"/>
      </g>
     </g>
     <g id="text_17">
      <!-- 0.15 -->
      <g style="fill: #555555" transform="translate(22.81375 237.694796)scale(0.1 -0.1)">
       <use xlink:href="#DejaVuSans-30"/>
       <use xlink:href="#DejaVuSans-2e" x="63.623047"/>
       <use xlink:href="#DejaVuSans-31" x="95.410156"/>
       <use xlink:href="#DejaVuSans-35" x="159.033203"/>
      </g>
     </g>
    </g>
    <g id="ytick_5">
     <g id="line2d_33">
      <path d="M 52.079375 122.61352 
L 954.923375 122.61352 
" clip-path="url(#p0eb79cbc7c)" style="fill: none; stroke: #ffffff; stroke-width: 0.8; stroke-linecap: square"/>
     </g>
     <g id="line2d_34">
      <g>
       <use xlink:href="#m018036bb22" x="52.079375" y="122.61352" style="fill: #555555; stroke: #555555; stroke-width: 0.8"/>
      </g>
     </g>
     <g id="text_18">
      <!-- 0.20 -->
      <g style="fill: #555555" transform="translate(22.81375 126.412739)scale(0.1 -0.1)">
       <use xlink:href="#DejaVuSans-30"/>
       <use xlink:href="#DejaVuSans-2e" x="63.623047"/>
       <use xlink:href="#DejaVuSans-32" x="95.410156"/>
       <use xlink:href="#DejaVuSans-30" x="159.033203"/>
      </g>
     </g>
    </g>
    <g id="text_19">
     <!-- Share -->
     <g style="fill: #555555" transform="translate(16.318125 313.253625)rotate(-90)scale(0.12 -0.12)">
      <defs>
       <path id="DejaVuSans-53" d="M 3425 4513 
L 3425 3897 
Q 3066 4069 2747 4153 
Q 2428 4238 2131 4238 
Q 1616 4238 1336 4038 
Q 1056 3838 1056 3469 
Q 1056 3159 1242 3001 
Q 1428 2844 1947 2747 
L 2328 2669 
Q 3034 2534 3370 2195 
Q 3706 1856 3706 1288 
Q 3706 609 3251 259 
Q 2797 -91 1919 -91 
Q 1588 -91 1214 -16 
Q 841 59 441 206 
L 441 856 
Q 825 641 1194 531 
Q 1563 422 1919 422 
Q 2459 422 2753 634 
Q 3047 847 3047 1241 
Q 3047 1584 2836 1778 
Q 2625 1972 2144 2069 
L 1759 2144 
Q 1053 2284 737 2584 
Q 422 2884 422 3419 
Q 422 4038 858 4394 
Q 1294 4750 2059 4750 
Q 2388 4750 2728 4690 
Q 3069 4631 3425 4513 
z
" transform="scale(0.015625)"/>
       <path id="DejaVuSans-68" d="M 3513 2113 
L 3513 0 
L 2938 0 
L 2938 2094 
Q 2938 2591 2744 2837 
Q 2550 3084 2163 3084 
Q 1697 3084 1428 2787 
Q 1159 2491 1159 1978 
L 1159 0 
L 581 0 
L 581 4863 
L 1159 4863 
L 1159 2956 
Q 1366 3272 1645 3428 
Q 1925 3584 2291 3584 
Q 2894 3584 3203 3211 
Q 3513 2838 3513 2113 
z
" transform="scale(0.015625)"/>
       <path id="DejaVuSans-72" d="M 2631 2963 
Q 2534 3019 2420 3045 
Q 2306 3072 2169 3072 
Q 1681 3072 1420 2755 
Q 1159 2438 1159 1844 
L 1159 0 
L 581 0 
L 581 3500 
L 1159 3500 
L 1159 2956 
Q 1341 3275 1631 3429 
Q 1922 3584 2338 3584 
Q 2397 3584 2469 3576 
Q 2541 3569 2628 3553 
L 2631 2963 
z
" transform="scale(0.015625)"/>
      </defs>
      <use xlink:href="#DejaVuSans-53"/>
      <use xlink:href="#DejaVuSans-68" x="63.476562"/>
      <use xlink:href="#DejaVuSans-61" x="126.855469"/>
      <use xlink:href="#DejaVuSans-72" x="188.134766"/>
      <use xlink:href="#DejaVuSans-65" x="226.998047"/>
     </g>
    </g>
   </g>
   <g id="line2d_35">
    <path d="M 52.079375 392.688565 
L 61.199011 391.20345 
L 70.318648 389.718335 
L 79.438284 388.23322 
L 88.55792 386.748105 
L 97.677557 385.26299 
L 106.797193 383.777875 
L 115.91683 382.29276 
L 125.036466 380.807645 
L 134.156102 379.322529 
L 143.275739 377.837414 
L 152.395375 376.352299 
L 161.515011 374.867184 
L 170.634648 373.382069 
L 179.754284 371.896954 
L 188.87392 370.411839 
L 197.993557 368.926724 
L 207.113193 367.441609 
L 216.23283 365.956494 
L 225.352466 364.471378 
L 234.472102 362.986263 
L 243.591739 361.501148 
L 252.711375 360.016033 
L 261.831011 358.530918 
L 270.950648 357.045803 
L 280.070284 355.560688 
L 289.18992 354.075573 
L 298.309557 352.590458 
L 307.429193 351.105343 
L 316.54883 349.620227 
L 325.668466 348.135112 
L 334.788102 346.649997 
L 343.907739 345.164882 
L 353.027375 343.679767 
L 362.147011 342.194652 
L 371.266648 340.709537 
L 380.386284 339.224422 
L 389.50592 337.739307 
L 398.625557 336.254192 
L 407.745193 334.769076 
L 416.86483 333.283961 
L 425.984466 331.798846 
L 435.104102 330.313731 
L 444.223739 328.828616 
L 453.343375 327.343501 
L 462.463011 325.858386 
L 471.582648 324.373271 
L 480.702284 322.888156 
L 489.82192 321.403041 
L 498.941557 319.917925 
L 508.061193 318.43281 
L 517.18083 316.947695 
L 526.300466 315.46258 
L 535.420102 313.977465 
L 544.539739 312.49235 
L 553.659375 311.007235 
L 562.779011 309.52212 
L 571.898648 308.037005 
L 581.018284 306.55189 
L 590.13792 305.066774 
L 599.257557 303.581659 
L 608.377193 302.096544 
L 617.49683 300.611429 
L 626.616466 299.126314 
L 635.736102 297.641199 
L 644.855739 296.156084 
L 653.975375 294.670969 
L 663.095011 293.185854 
L 672.214648 291.700739 
L 681.334284 290.215623 
L 690.45392 288.730508 
L 699.573557 287.245393 
L 708.693193 285.760278 
L 717.81283 284.275163 
L 726.932466 282.790048 
L 736.052102 281.304933 
L 745.171739 279.819818 
L 754.291375 278.334703 
L 763.411011 276.849588 
L 772.530648 275.364472 
L 781.650284 273.879357 
L 790.76992 272.394242 
L 799.889557 270.909127 
L 809.009193 269.424012 
L 818.12883 267.938897 
L 827.248466 266.453782 
L 836.368102 264.968667 
L 845.487739 263.483552 
L 854.607375 261.998437 
L 863.727011 260.513321 
L 872.846648 259.028206 
L 881.966284 257.543091 
L 891.08592 256.057976 
L 900.205557 254.572861 
L 909.325193 253.087746 
L 918.44483 251.602631 
L 927.564466 250.117516 
L 936.684102 248.632401 
L 945.803739 247.147286 
L 954.923375 245.66217 
" clip-path="url(#p0eb79cbc7c)" style="fill: none; stroke-dasharray: 1.5,2.475; stroke-dashoffset: 0; stroke: #4ac1fa; stroke-width: 1.5"/>
   </g>
   <g id="line2d_36">
    <path d="M 52.079375 246.012181 
L 61.199011 245.567593 
L 70.318648 245.123006 
L 79.438284 244.678418 
L 88.55792 244.233831 
L 97.677557 243.789243 
L 106.797193 243.344656 
L 115.91683 242.900068 
L 125.036466 242.455481 
L 134.156102 242.010893 
L 143.275739 241.566305 
L 152.395375 241.121718 
L 161.515011 240.67713 
L 170.634648 240.232543 
L 179.754284 239.787955 
L 188.87392 239.343368 
L 197.993557 238.89878 
L 207.113193 238.454193 
L 216.23283 238.009605 
L 225.352466 237.565018 
L 234.472102 237.12043 
L 243.591739 236.675842 
L 252.711375 236.231255 
L 261.831011 235.786667 
L 270.950648 235.34208 
L 280.070284 234.897492 
L 289.18992 234.452905 
L 298.309557 234.008317 
L 307.429193 233.56373 
L 316.54883 233.119142 
L 325.668466 232.674555 
L 334.788102 232.229967 
L 343.907739 231.78538 
L 353.027375 231.340792 
L 362.147011 230.896204 
L 371.266648 230.451617 
L 380.386284 230.007029 
L 389.50592 229.562442 
L 398.625557 229.117854 
L 407.745193 228.673267 
L 416.86483 228.228679 
L 425.984466 227.784092 
L 435.104102 227.339504 
L 444.223739 226.894917 
L 453.343375 226.450329 
L 462.463011 226.005741 
L 471.582648 225.561154 
L 480.702284 225.116566 
L 489.82192 224.671979 
L 498.941557 224.227391 
L 508.061193 223.782804 
L 517.18083 223.338216 
L 526.300466 222.893629 
L 535.420102 222.449041 
L 544.539739 222.004454 
L 553.659375 221.559866 
L 562.779011 221.115278 
L 571.898648 220.670691 
L 581.018284 220.226103 
L 590.13792 219.781516 
L 599.257557 219.336928 
L 608.377193 218.892341 
L 617.49683 218.447753 
L 626.616466 218.003166 
L 635.736102 217.558578 
L 644.855739 217.113991 
L 653.975375 216.669403 
L 663.095011 216.224816 
L 672.214648 215.780228 
L 681.334284 215.33564 
L 690.45392 214.891053 
L 699.573557 214.446465 
L 708.693193 214.001878 
L 717.81283 213.55729 
L 726.932466 213.112703 
L 736.052102 212.668115 
L 745.171739 212.223528 
L 754.291375 211.77894 
L 763.411011 211.334353 
L 772.530648 210.889765 
L 781.650284 210.445177 
L 790.76992 210.00059 
L 799.889557 209.556002 
L 809.009193 209.111415 
L 818.12883 208.666827 
L 827.248466 208.22224 
L 836.368102 207.777652 
L 845.487739 207.333065 
L 854.607375 206.888477 
L 863.727011 206.44389 
L 872.846648 205.999302 
L 881.966284 205.554714 
L 891.08592 205.110127 
L 900.205557 204.665539 
L 909.325193 204.220952 
L 918.44483 203.776364 
L 927.564466 203.331777 
L 936.684102 202.887189 
L 945.803739 202.442602 
L 954.923375 201.998014 
" clip-path="url(#p0eb79cbc7c)" style="fill: none; stroke-dasharray: 1.5,2.475; stroke-dashoffset: 0; stroke: #9a5689; stroke-width: 1.5"/>
   </g>
   <g id="line2d_37">
    <path d="M 52.079375 477.593175 
L 61.199011 477.780186 
L 70.318648 477.967196 
L 79.438284 478.154207 
L 88.55792 478.341217 
L 97.677557 478.528228 
L 106.797193 478.715238 
L 115.91683 478.902249 
L 125.036466 479.089259 
L 134.156102 479.27627 
L 143.275739 479.463281 
L 152.395375 479.650291 
L 161.515011 479.837302 
L 170.634648 480.024312 
L 179.754284 480.211323 
L 188.87392 480.398333 
L 197.993557 480.585344 
L 207.113193 480.772354 
L 216.23283 480.959365 
L 225.352466 481.146376 
L 234.472102 481.333386 
L 243.591739 481.520397 
L 252.711375 481.707407 
L 261.831011 481.894418 
L 270.950648 482.081428 
L 280.070284 482.268439 
L 289.18992 482.455449 
L 298.309557 482.64246 
L 307.429193 482.829471 
L 316.54883 483.016481 
L 325.668466 483.203492 
L 334.788102 483.390502 
L 343.907739 483.577513 
L 353.027375 483.764523 
L 362.147011 483.951534 
L 371.266648 484.138544 
L 380.386284 484.325555 
L 389.50592 484.512565 
L 398.625557 484.699576 
L 407.745193 484.886587 
L 416.86483 485.073597 
L 425.984466 485.260608 
L 435.104102 485.447618 
L 444.223739 485.634629 
L 453.343375 485.821639 
L 462.463011 486.00865 
L 471.582648 486.19566 
L 480.702284 486.382671 
L 489.82192 486.569682 
L 498.941557 486.756692 
L 508.061193 486.943703 
L 517.18083 487.130713 
L 526.300466 487.317724 
L 535.420102 487.504734 
L 544.539739 487.691745 
L 553.659375 487.878755 
L 562.779011 488.065766 
L 571.898648 488.252777 
L 581.018284 488.439787 
L 590.13792 488.626798 
L 599.257557 488.813808 
L 608.377193 489.000819 
L 617.49683 489.187829 
L 626.616466 489.37484 
L 635.736102 489.56185 
L 644.855739 489.748861 
L 653.975375 489.935871 
L 663.095011 490.122882 
L 672.214648 490.309893 
L 681.334284 490.496903 
L 690.45392 490.683914 
L 699.573557 490.870924 
L 708.693193 491.057935 
L 717.81283 491.244945 
L 726.932466 491.431956 
L 736.052102 491.618966 
L 745.171739 491.805977 
L 754.291375 491.992988 
L 763.411011 492.179998 
L 772.530648 492.367009 
L 781.650284 492.554019 
L 790.76992 492.74103 
L 799.889557 492.92804 
L 809.009193 493.115051 
L 818.12883 493.302061 
L 827.248466 493.489072 
L 836.368102 493.676083 
L 845.487739 493.863093 
L 854.607375 494.050104 
L 863.727011 494.237114 
L 872.846648 494.424125 
L 881.966284 494.611135 
L 891.08592 494.798146 
L 900.205557 494.985156 
L 909.325193 495.172167 
L 918.44483 495.359178 
L 927.564466 495.546188 
L 936.684102 495.733199 
L 945.803739 495.920209 
L 954.923375 496.10722 
" clip-path="url(#p0eb79cbc7c)" style="fill: none; stroke-dasharray: 1.5,2.475; stroke-dashoffset: 0; stroke: #be503b; stroke-width: 1.5"/>
   </g>
   <g id="line2d_38">
    <path d="M 52.079375 254.752437 
L 61.199011 253.022636 
L 70.318648 251.292834 
L 79.438284 249.563033 
L 88.55792 247.833232 
L 97.677557 246.103431 
L 106.797193 244.373629 
L 115.91683 242.643828 
L 125.036466 240.914027 
L 134.156102 239.184226 
L 143.275739 237.454424 
L 152.395375 235.724623 
L 161.515011 233.994822 
L 170.634648 232.26502 
L 179.754284 230.535219 
L 188.87392 228.805418 
L 197.993557 227.075617 
L 207.113193 225.345815 
L 216.23283 223.616014 
L 225.352466 221.886213 
L 234.472102 220.156411 
L 243.591739 218.42661 
L 252.711375 216.696809 
L 261.831011 214.967008 
L 270.950648 213.237206 
L 280.070284 211.507405 
L 289.18992 209.777604 
L 298.309557 208.047802 
L 307.429193 206.318001 
L 316.54883 204.5882 
L 325.668466 202.858399 
L 334.788102 201.128597 
L 343.907739 199.398796 
L 353.027375 197.668995 
L 362.147011 195.939193 
L 371.266648 194.209392 
L 380.386284 192.479591 
L 389.50592 190.74979 
L 398.625557 189.019988 
L 407.745193 187.290187 
L 416.86483 185.560386 
L 425.984466 183.830584 
L 435.104102 182.100783 
L 444.223739 180.370982 
L 453.343375 178.641181 
L 462.463011 176.911379 
L 471.582648 175.181578 
L 480.702284 173.451777 
L 489.82192 171.721975 
L 498.941557 169.992174 
L 508.061193 168.262373 
L 517.18083 166.532572 
L 526.300466 164.80277 
L 535.420102 163.072969 
L 544.539739 161.343168 
L 553.659375 159.613366 
L 562.779011 157.883565 
L 571.898648 156.153764 
L 581.018284 154.423963 
L 590.13792 152.694161 
L 599.257557 150.96436 
L 608.377193 149.234559 
L 617.49683 147.504757 
L 626.616466 145.774956 
L 635.736102 144.045155 
L 644.855739 142.315354 
L 653.975375 140.585552 
L 663.095011 138.855751 
L 672.214648 137.12595 
L 681.334284 135.396148 
L 690.45392 133.666347 
L 699.573557 131.936546 
L 708.693193 130.206745 
L 717.81283 128.476943 
L 726.932466 126.747142 
L 736.052102 125.017341 
L 745.171739 123.28754 
L 754.291375 121.557738 
L 763.411011 119.827937 
L 772.530648 118.098136 
L 781.650284 116.368334 
L 790.76992 114.638533 
L 799.889557 112.908732 
L 809.009193 111.178931 
L 818.12883 109.449129 
L 827.248466 107.719328 
L 836.368102 105.989527 
L 845.487739 104.259725 
L 854.607375 102.529924 
L 863.727011 100.800123 
L 872.846648 99.070322 
L 881.966284 97.34052 
L 891.08592 95.610719 
L 900.205557 93.880918 
L 909.325193 92.151116 
L 918.44483 90.421315 
L 927.564466 88.691514 
L 936.684102 86.961713 
L 945.803739 85.231911 
L 954.923375 83.50211 
" clip-path="url(#p0eb79cbc7c)" style="fill: none; stroke-dasharray: 1.5,2.475; stroke-dashoffset: 0; stroke: #e2321d; stroke-width: 1.5"/>
   </g>
   <g id="line2d_39">
    <path d="M 52.079375 272.70369 
L 61.199011 270.421327 
L 70.318648 268.138964 
L 79.438284 265.856602 
L 88.55792 263.574239 
L 97.677557 261.291877 
L 106.797193 259.009514 
L 115.91683 256.727151 
L 125.036466 254.444789 
L 134.156102 252.162426 
L 143.275739 249.880064 
L 152.395375 247.597701 
L 161.515011 245.315338 
L 170.634648 243.032976 
L 179.754284 240.750613 
L 188.87392 238.46825 
L 197.993557 236.185888 
L 207.113193 233.903525 
L 216.23283 231.621163 
L 225.352466 229.3388 
L 234.472102 227.056437 
L 243.591739 224.774075 
L 252.711375 222.491712 
L 261.831011 220.20935 
L 270.950648 217.926987 
L 280.070284 215.644624 
L 289.18992 213.362262 
L 298.309557 211.079899 
L 307.429193 208.797537 
L 316.54883 206.515174 
L 325.668466 204.232811 
L 334.788102 201.950449 
L 343.907739 199.668086 
L 353.027375 197.385724 
L 362.147011 195.103361 
L 371.266648 192.820998 
L 380.386284 190.538636 
L 389.50592 188.256273 
L 398.625557 185.973911 
L 407.745193 183.691548 
L 416.86483 181.409185 
L 425.984466 179.126823 
L 435.104102 176.84446 
L 444.223739 174.562098 
L 453.343375 172.279735 
L 462.463011 169.997372 
L 471.582648 167.71501 
L 480.702284 165.432647 
L 489.82192 163.150285 
L 498.941557 160.867922 
L 508.061193 158.585559 
L 517.18083 156.303197 
L 526.300466 154.020834 
L 535.420102 151.738471 
L 544.539739 149.456109 
L 553.659375 147.173746 
L 562.779011 144.891384 
L 571.898648 142.609021 
L 581.018284 140.326658 
L 590.13792 138.044296 
L 599.257557 135.761933 
L 608.377193 133.479571 
L 617.49683 131.197208 
L 626.616466 128.914845 
L 635.736102 126.632483 
L 644.855739 124.35012 
L 653.975375 122.067758 
L 663.095011 119.785395 
L 672.214648 117.503032 
L 681.334284 115.22067 
L 690.45392 112.938307 
L 699.573557 110.655945 
L 708.693193 108.373582 
L 717.81283 106.091219 
L 726.932466 103.808857 
L 736.052102 101.526494 
L 745.171739 99.244132 
L 754.291375 96.961769 
L 763.411011 94.679406 
L 772.530648 92.397044 
L 781.650284 90.114681 
L 790.76992 87.832319 
L 799.889557 85.549956 
L 809.009193 83.267593 
L 818.12883 80.985231 
L 827.248466 78.702868 
L 836.368102 76.420506 
L 845.487739 74.138143 
L 854.607375 71.85578 
L 863.727011 69.573418 
L 872.846648 67.291055 
L 881.966284 65.008693 
L 891.08592 62.72633 
L 900.205557 60.443967 
L 909.325193 58.161605 
L 918.44483 55.879242 
L 927.564466 53.596879 
L 936.684102 51.314517 
L 945.803739 49.032154 
L 954.923375 46.749792 
" clip-path="url(#p0eb79cbc7c)" style="fill: none; stroke-dasharray: 1.5,2.475; stroke-dashoffset: 0; stroke: #48b585; stroke-width: 1.5"/>
   </g>
   <g id="line2d_40">
    <path d="M 52.079375 429.429536 
L 69.782199 430.98581 
L 87.485022 415.462321 
L 105.187846 399.776244 
L 122.890669 387.84964 
L 140.593493 385.175647 
L 158.296316 337.589339 
L 175.99914 384.929683 
L 193.701963 380.85077 
L 211.404787 394.082245 
L 229.10761 389.992825 
L 246.810434 337.353558 
L 264.513257 310.740675 
L 282.216081 314.603511 
L 299.918904 347.308187 
L 317.621728 335.803458 
L 335.324551 326.068886 
L 353.027375 325.762542 
L 370.730199 332.921229 
L 388.433022 334.845672 
L 406.135846 321.999121 
L 423.838669 323.998755 
L 441.541493 332.070716 
L 459.244316 325.301899 
L 476.94714 317.028545 
L 494.649963 310.131705 
L 512.352787 310.690342 
L 530.05561 293.908476 
L 547.758434 293.274542 
L 565.461257 289.440747 
L 583.164081 289.903627 
L 600.866904 298.815709 
L 618.569728 306.556327 
L 636.272551 307.329379 
L 653.975375 298.851889 
L 671.678199 301.865648 
L 689.381022 307.11768 
L 707.083846 304.672872 
L 724.786669 288.122529 
L 742.489493 298.880332 
L 760.192316 298.880709 
L 777.89514 275.616304 
L 795.597963 261.400176 
L 813.300787 242.633983 
L 831.00361 273.707615 
L 848.706434 268.670447 
L 901.814904 251.961471 
L 919.517728 280.962943 
L 937.220551 260.579078 
L 954.923375 243.943611 
" clip-path="url(#p0eb79cbc7c)" style="fill: none; stroke: #4ac1fa; stroke-width: 1.5; stroke-linecap: square"/>
   </g>
   <g id="line2d_41">
    <path d="M 52.079375 298.104538 
L 69.782199 303.776878 
L 87.485022 305.55285 
L 105.187846 271.882214 
L 122.890669 252.002987 
L 140.593493 256.035673 
L 158.296316 205.706039 
L 175.99914 288.447376 
L 193.701963 305.051005 
L 211.404787 307.558871 
L 229.10761 303.213359 
L 246.810434 223.946599 
L 264.513257 184.895676 
L 282.216081 203.580758 
L 299.918904 259.0521 
L 317.621728 209.927869 
L 335.324551 192.711607 
L 353.027375 176.199076 
L 370.730199 214.190773 
L 388.433022 183.232512 
L 406.135846 162.523195 
L 423.838669 181.142178 
L 441.541493 211.133621 
L 459.244316 186.969141 
L 476.94714 192.793797 
L 494.649963 191.696056 
L 512.352787 189.232452 
L 530.05561 178.377994 
L 547.758434 181.355185 
L 565.461257 167.064088 
L 583.164081 169.177712 
L 600.866904 194.240153 
L 618.569728 203.472536 
L 636.272551 200.692635 
L 653.975375 184.74581 
L 671.678199 201.789571 
L 689.381022 205.232578 
L 707.083846 223.471168 
L 724.786669 222.628338 
L 742.489493 243.147047 
L 760.192316 259.622578 
L 777.89514 236.139471 
L 795.597963 230.85711 
L 813.300787 224.054637 
L 831.00361 261.275731 
L 848.706434 252.039559 
L 901.814904 247.332246 
L 919.517728 267.28808 
L 937.220551 232.179225 
L 954.923375 189.759184 
" clip-path="url(#p0eb79cbc7c)" style="fill: none; stroke: #9a5689; stroke-width: 1.5; stroke-linecap: square"/>
   </g>
   <g id="line2d_42">
    <path d="M 52.079375 470.11075 
L 69.782199 468.943512 
L 87.485022 467.280947 
L 105.187846 469.631571 
L 122.890669 461.644 
L 140.593493 471.45015 
L 158.296316 462.927321 
L 175.99914 473.457544 
L 193.701963 479.399136 
L 211.404787 479.16638 
L 229.10761 482.381096 
L 246.810434 480.762755 
L 264.513257 483.266957 
L 282.216081 484.689477 
L 299.918904 495.607656 
L 317.621728 491.589642 
L 335.324551 488.885684 
L 353.027375 488.364055 
L 370.730199 493.800268 
L 388.433022 496.297215 
L 406.135846 495.891444 
L 423.838669 495.899615 
L 441.541493 498.910625 
L 459.244316 494.748098 
L 476.94714 496.93228 
L 494.649963 495.117925 
L 512.352787 493.956451 
L 530.05561 488.606944 
L 547.758434 488.413886 
L 565.461257 485.728586 
L 583.164081 490.646897 
L 600.866904 493.65565 
L 618.569728 494.526398 
L 636.272551 494.329859 
L 653.975375 492.923314 
L 671.678199 492.590914 
L 689.381022 495.066738 
L 707.083846 493.251077 
L 724.786669 490.018158 
L 742.489493 492.072145 
L 760.192316 494.197868 
L 777.89514 487.287725 
L 795.597963 485.505923 
L 813.300787 482.023738 
L 831.00361 490.932384 
L 848.706434 487.77741 
L 901.814904 485.098617 
L 919.517728 489.160295 
L 937.220551 485.323192 
L 954.923375 487.012736 
" clip-path="url(#p0eb79cbc7c)" style="fill: none; stroke: #be503b; stroke-width: 1.5; stroke-linecap: square"/>
   </g>
   <g id="line2d_43">
    <path d="M 52.079375 309.172868 
L 69.782199 316.213201 
L 87.485022 310.809098 
L 105.187846 286.970532 
L 122.890669 264.807176 
L 140.593493 260.068719 
L 158.296316 191.034428 
L 175.99914 261.232206 
L 193.701963 285.695464 
L 211.404787 291.555463 
L 229.10761 212.232175 
L 246.810434 202.637595 
L 264.513257 154.57936 
L 282.216081 231.642639 
L 299.918904 100.863078 
L 317.621728 159.020845 
L 335.324551 137.437063 
L 353.027375 134.17569 
L 370.730199 159.328637 
L 388.433022 177.674642 
L 406.135846 158.403375 
L 423.838669 194.601584 
L 441.541493 167.33249 
L 459.244316 171.944311 
L 476.94714 169.624228 
L 494.649963 165.860217 
L 512.352787 154.677279 
L 530.05561 135.985749 
L 547.758434 169.11927 
L 565.461257 138.433148 
L 583.164081 139.611097 
L 600.866904 139.951486 
L 618.569728 123.360428 
L 636.272551 131.876097 
L 653.975375 113.838236 
L 671.678199 121.760937 
L 689.381022 129.526952 
L 707.083846 131.888536 
L 724.786669 120.17261 
L 742.489493 137.695479 
L 760.192316 150.399801 
L 777.89514 115.631652 
L 795.597963 135.752817 
L 813.300787 82.053257 
L 831.00361 123.409721 
L 848.706434 110.892753 
L 901.814904 104.943539 
L 919.517728 139.481924 
L 937.220551 159.341069 
L 954.923375 112.67244 
" clip-path="url(#p0eb79cbc7c)" style="fill: none; stroke: #e2321d; stroke-width: 1.5; stroke-linecap: square"/>
   </g>
   <g id="line2d_44">
    <path d="M 52.079375 361.21861 
L 69.782199 358.184598 
L 87.485022 351.475288 
L 105.187846 324.087852 
L 122.890669 274.269417 
L 140.593493 251.235815 
L 158.296316 172.262767 
L 175.99914 251.467831 
L 193.701963 297.890056 
L 211.404787 316.395848 
L 229.10761 308.626734 
L 246.810434 209.836132 
L 264.513257 139.485403 
L 282.216081 141.369701 
L 299.918904 172.090721 
L 317.621728 143.319295 
L 335.324551 137.662618 
L 353.027375 132.611396 
L 370.730199 153.817928 
L 388.433022 144.896641 
L 406.135846 129.497807 
L 423.838669 120.62244 
L 441.541493 163.873612 
L 459.244316 149.985847 
L 476.94714 165.212581 
L 494.649963 152.01516 
L 512.352787 138.222637 
L 530.05561 103.372617 
L 547.758434 106.322875 
L 565.461257 99.315067 
L 583.164081 116.097479 
L 600.866904 130.873407 
L 618.569728 126.05796 
L 636.272551 127.509542 
L 653.975375 133.741377 
L 671.678199 145.497665 
L 689.381022 130.921582 
L 707.083846 119.694843 
L 724.786669 103.820968 
L 742.489493 120.59243 
L 760.192316 144.242882 
L 777.89514 100.768743 
L 795.597963 91.119018 
L 813.300787 71.90894 
L 831.00361 115.400202 
L 848.706434 89.057373 
L 901.814904 84.055011 
L 919.517728 92.954762 
L 937.220551 73.348371 
L 954.923375 84.108862 
" clip-path="url(#p0eb79cbc7c)" style="fill: none; stroke: #48b585; stroke-width: 6; stroke-linecap: square"/>
   </g>
   <g id="patch_3">
    <path d="M 52.079375 567.74175 
L 52.079375 24.14175 
" style="fill: none; stroke: #ffffff; stroke-linejoin: miter; stroke-linecap: square"/>
   </g>
   <g id="patch_4">
    <path d="M 954.923375 567.74175 
L 954.923375 24.14175 
" style="fill: none; stroke: #ffffff; stroke-linejoin: miter; stroke-linecap: square"/>
   </g>
   <g id="patch_5">
    <path d="M 52.079375 567.74175 
L 954.923375 567.74175 
" style="fill: none; stroke: #ffffff; stroke-linejoin: miter; stroke-linecap: square"/>
   </g>
   <g id="patch_6">
    <path d="M 52.079375 24.14175 
L 954.923375 24.14175 
" style="fill: none; stroke: #ffffff; stroke-linejoin: miter; stroke-linecap: square"/>
   </g>
   <g id="text_20">
    <!-- Enterprise Linux 8 and 9 Instances by Distribution Share (System Age &gt; 1 Week) -->
    <g transform="translate(211.890125 18.14175)scale(0.144 -0.144)">
     <defs>
      <path id="DejaVuSans-45" d="M 628 4666 
L 3578 4666 
L 3578 4134 
L 1259 4134 
L 1259 2753 
L 3481 2753 
L 3481 2222 
L 1259 2222 
L 1259 531 
L 3634 531 
L 3634 0 
L 628 0 
L 628 4666 
z
" transform="scale(0.015625)"/>
      <path id="DejaVuSans-6e" d="M 3513 2113 
L 3513 0 
L 2938 0 
L 2938 2094 
Q 2938 2591 2744 2837 
Q 2550 3084 2163 3084 
Q 1697 3084 1428 2787 
Q 1159 2491 1159 1978 
L 1159 0 
L 581 0 
L 581 3500 
L 1159 3500 
L 1159 2956 
Q 1366 3272 1645 3428 
Q 1925 3584 2291 3584 
Q 2894 3584 3203 3211 
Q 3513 2838 3513 2113 
z
" transform="scale(0.015625)"/>
      <path id="DejaVuSans-70" d="M 1159 525 
L 1159 -1331 
L 581 -1331 
L 581 3500 
L 1159 3500 
L 1159 2969 
Q 1341 3281 1617 3432 
Q 1894 3584 2278 3584 
Q 2916 3584 3314 3078 
Q 3713 2572 3713 1747 
Q 3713 922 3314 415 
Q 2916 -91 2278 -91 
Q 1894 -91 1617 61 
Q 1341 213 1159 525 
z
M 3116 1747 
Q 3116 2381 2855 2742 
Q 2594 3103 2138 3103 
Q 1681 3103 1420 2742 
Q 1159 2381 1159 1747 
Q 1159 1113 1420 752 
Q 1681 391 2138 391 
Q 2594 391 2855 752 
Q 3116 1113 3116 1747 
z
" transform="scale(0.015625)"/>
      <path id="DejaVuSans-69" d="M 603 3500 
L 1178 3500 
L 1178 0 
L 603 0 
L 603 3500 
z
M 603 4863 
L 1178 4863 
L 1178 4134 
L 603 4134 
L 603 4863 
z
" transform="scale(0.015625)"/>
      <path id="DejaVuSans-73" d="M 2834 3397 
L 2834 2853 
Q 2591 2978 2328 3040 
Q 2066 3103 1784 3103 
Q 1356 3103 1142 2972 
Q 928 2841 928 2578 
Q 928 2378 1081 2264 
Q 1234 2150 1697 2047 
L 1894 2003 
Q 2506 1872 2764 1633 
Q 3022 1394 3022 966 
Q 3022 478 2636 193 
Q 2250 -91 1575 -91 
Q 1294 -91 989 -36 
Q 684 19 347 128 
L 347 722 
Q 666 556 975 473 
Q 1284 391 1588 391 
Q 1994 391 2212 530 
Q 2431 669 2431 922 
Q 2431 1156 2273 1281 
Q 2116 1406 1581 1522 
L 1381 1569 
Q 847 1681 609 1914 
Q 372 2147 372 2553 
Q 372 3047 722 3315 
Q 1072 3584 1716 3584 
Q 2034 3584 2315 3537 
Q 2597 3491 2834 3397 
z
" transform="scale(0.015625)"/>
      <path id="DejaVuSans-20" transform="scale(0.015625)"/>
      <path id="DejaVuSans-4c" d="M 628 4666 
L 1259 4666 
L 1259 531 
L 3531 531 
L 3531 0 
L 628 0 
L 628 4666 
z
" transform="scale(0.015625)"/>
      <path id="DejaVuSans-75" d="M 544 1381 
L 544 3500 
L 1119 3500 
L 1119 1403 
Q 1119 906 1312 657 
Q 1506 409 1894 409 
Q 2359 409 2629 706 
Q 2900 1003 2900 1516 
L 2900 3500 
L 3475 3500 
L 3475 0 
L 2900 0 
L 2900 538 
Q 2691 219 2414 64 
Q 2138 -91 1772 -91 
Q 1169 -91 856 284 
Q 544 659 544 1381 
z
M 1991 3584 
L 1991 3584 
z
" transform="scale(0.015625)"/>
      <path id="DejaVuSans-78" d="M 3513 3500 
L 2247 1797 
L 3578 0 
L 2900 0 
L 1881 1375 
L 863 0 
L 184 0 
L 1544 1831 
L 300 3500 
L 978 3500 
L 1906 2253 
L 2834 3500 
L 3513 3500 
z
" transform="scale(0.015625)"/>
      <path id="DejaVuSans-64" d="M 2906 2969 
L 2906 4863 
L 3481 4863 
L 3481 0 
L 2906 0 
L 2906 525 
Q 2725 213 2448 61 
Q 2172 -91 1784 -91 
Q 1150 -91 751 415 
Q 353 922 353 1747 
Q 353 2572 751 3078 
Q 1150 3584 1784 3584 
Q 2172 3584 2448 3432 
Q 2725 3281 2906 2969 
z
M 947 1747 
Q 947 1113 1208 752 
Q 1469 391 1925 391 
Q 2381 391 2643 752 
Q 2906 1113 2906 1747 
Q 2906 2381 2643 2742 
Q 2381 3103 1925 3103 
Q 1469 3103 1208 2742 
Q 947 2381 947 1747 
z
" transform="scale(0.015625)"/>
      <path id="DejaVuSans-49" d="M 628 4666 
L 1259 4666 
L 1259 0 
L 628 0 
L 628 4666 
z
" transform="scale(0.015625)"/>
      <path id="DejaVuSans-63" d="M 3122 3366 
L 3122 2828 
Q 2878 2963 2633 3030 
Q 2388 3097 2138 3097 
Q 1578 3097 1268 2742 
Q 959 2388 959 1747 
Q 959 1106 1268 751 
Q 1578 397 2138 397 
Q 2388 397 2633 464 
Q 2878 531 3122 666 
L 3122 134 
Q 2881 22 2623 -34 
Q 2366 -91 2075 -91 
Q 1284 -91 818 406 
Q 353 903 353 1747 
Q 353 2603 823 3093 
Q 1294 3584 2113 3584 
Q 2378 3584 2631 3529 
Q 2884 3475 3122 3366 
z
" transform="scale(0.015625)"/>
      <path id="DejaVuSans-62" d="M 3116 1747 
Q 3116 2381 2855 2742 
Q 2594 3103 2138 3103 
Q 1681 3103 1420 2742 
Q 1159 2381 1159 1747 
Q 1159 1113 1420 752 
Q 1681 391 2138 391 
Q 2594 391 2855 752 
Q 3116 1113 3116 1747 
z
M 1159 2969 
Q 1341 3281 1617 3432 
Q 1894 3584 2278 3584 
Q 2916 3584 3314 3078 
Q 3713 2572 3713 1747 
Q 3713 922 3314 415 
Q 2916 -91 2278 -91 
Q 1894 -91 1617 61 
Q 1341 213 1159 525 
L 1159 0 
L 581 0 
L 581 4863 
L 1159 4863 
L 1159 2969 
z
" transform="scale(0.015625)"/>
      <path id="DejaVuSans-79" d="M 2059 -325 
Q 1816 -950 1584 -1140 
Q 1353 -1331 966 -1331 
L 506 -1331 
L 506 -850 
L 844 -850 
Q 1081 -850 1212 -737 
Q 1344 -625 1503 -206 
L 1606 56 
L 191 3500 
L 800 3500 
L 1894 763 
L 2988 3500 
L 3597 3500 
L 2059 -325 
z
" transform="scale(0.015625)"/>
      <path id="DejaVuSans-6f" d="M 1959 3097 
Q 1497 3097 1228 2736 
Q 959 2375 959 1747 
Q 959 1119 1226 758 
Q 1494 397 1959 397 
Q 2419 397 2687 759 
Q 2956 1122 2956 1747 
Q 2956 2369 2687 2733 
Q 2419 3097 1959 3097 
z
M 1959 3584 
Q 2709 3584 3137 3096 
Q 3566 2609 3566 1747 
Q 3566 888 3137 398 
Q 2709 -91 1959 -91 
Q 1206 -91 779 398 
Q 353 888 353 1747 
Q 353 2609 779 3096 
Q 1206 3584 1959 3584 
z
" transform="scale(0.015625)"/>
      <path id="DejaVuSans-28" d="M 1984 4856 
Q 1566 4138 1362 3434 
Q 1159 2731 1159 2009 
Q 1159 1288 1364 580 
Q 1569 -128 1984 -844 
L 1484 -844 
Q 1016 -109 783 600 
Q 550 1309 550 2009 
Q 550 2706 781 3412 
Q 1013 4119 1484 4856 
L 1984 4856 
z
" transform="scale(0.015625)"/>
      <path id="DejaVuSans-6d" d="M 3328 2828 
Q 3544 3216 3844 3400 
Q 4144 3584 4550 3584 
Q 5097 3584 5394 3201 
Q 5691 2819 5691 2113 
L 5691 0 
L 5113 0 
L 5113 2094 
Q 5113 2597 4934 2840 
Q 4756 3084 4391 3084 
Q 3944 3084 3684 2787 
Q 3425 2491 3425 1978 
L 3425 0 
L 2847 0 
L 2847 2094 
Q 2847 2600 2669 2842 
Q 2491 3084 2119 3084 
Q 1678 3084 1418 2786 
Q 1159 2488 1159 1978 
L 1159 0 
L 581 0 
L 581 3500 
L 1159 3500 
L 1159 2956 
Q 1356 3278 1631 3431 
Q 1906 3584 2284 3584 
Q 2666 3584 2933 3390 
Q 3200 3197 3328 2828 
z
" transform="scale(0.015625)"/>
      <path id="DejaVuSans-41" d="M 2188 4044 
L 1331 1722 
L 3047 1722 
L 2188 4044 
z
M 1831 4666 
L 2547 4666 
L 4325 0 
L 3669 0 
L 3244 1197 
L 1141 1197 
L 716 0 
L 50 0 
L 1831 4666 
z
" transform="scale(0.015625)"/>
      <path id="DejaVuSans-67" d="M 2906 1791 
Q 2906 2416 2648 2759 
Q 2391 3103 1925 3103 
Q 1463 3103 1205 2759 
Q 947 2416 947 1791 
Q 947 1169 1205 825 
Q 1463 481 1925 481 
Q 2391 481 2648 825 
Q 2906 1169 2906 1791 
z
M 3481 434 
Q 3481 -459 3084 -895 
Q 2688 -1331 1869 -1331 
Q 1566 -1331 1297 -1286 
Q 1028 -1241 775 -1147 
L 775 -588 
Q 1028 -725 1275 -790 
Q 1522 -856 1778 -856 
Q 2344 -856 2625 -561 
Q 2906 -266 2906 331 
L 2906 616 
Q 2728 306 2450 153 
Q 2172 0 1784 0 
Q 1141 0 747 490 
Q 353 981 353 1791 
Q 353 2603 747 3093 
Q 1141 3584 1784 3584 
Q 2172 3584 2450 3431 
Q 2728 3278 2906 2969 
L 2906 3500 
L 3481 3500 
L 3481 434 
z
" transform="scale(0.015625)"/>
      <path id="DejaVuSans-3e" d="M 678 3150 
L 678 3719 
L 4684 2266 
L 4684 1747 
L 678 294 
L 678 863 
L 3897 2003 
L 678 3150 
z
" transform="scale(0.015625)"/>
      <path id="DejaVuSans-57" d="M 213 4666 
L 850 4666 
L 1831 722 
L 2809 4666 
L 3519 4666 
L 4500 722 
L 5478 4666 
L 6119 4666 
L 4947 0 
L 4153 0 
L 3169 4050 
L 2175 0 
L 1381 0 
L 213 4666 
z
" transform="scale(0.015625)"/>
      <path id="DejaVuSans-6b" d="M 581 4863 
L 1159 4863 
L 1159 1991 
L 2875 3500 
L 3609 3500 
L 1753 1863 
L 3688 0 
L 2938 0 
L 1159 1709 
L 1159 0 
L 581 0 
L 581 4863 
z
" transform="scale(0.015625)"/>
      <path id="DejaVuSans-29" d="M 513 4856 
L 1013 4856 
Q 1481 4119 1714 3412 
Q 1947 2706 1947 2009 
Q 1947 1309 1714 600 
Q 1481 -109 1013 -844 
L 513 -844 
Q 928 -128 1133 580 
Q 1338 1288 1338 2009 
Q 1338 2731 1133 3434 
Q 928 4138 513 4856 
z
" transform="scale(0.015625)"/>
     </defs>
     <use xlink:href="#DejaVuSans-45"/>
     <use xlink:href="#DejaVuSans-6e" x="63.183594"/>
     <use xlink:href="#DejaVuSans-74" x="126.5625"/>
     <use xlink:href="#DejaVuSans-65" x="165.771484"/>
     <use xlink:href="#DejaVuSans-72" x="227.294922"/>
     <use xlink:href="#DejaVuSans-70" x="268.408203"/>
     <use xlink:href="#DejaVuSans-72" x="331.884766"/>
     <use xlink:href="#DejaVuSans-69" x="372.998047"/>
     <use xlink:href="#DejaVuSans-73" x="400.78125"/>
     <use xlink:href="#DejaVuSans-65" x="452.880859"/>
     <use xlink:href="#DejaVuSans-20" x="514.404297"/>
     <use xlink:href="#DejaVuSans-4c" x="546.191406"/>
     <use xlink:href="#DejaVuSans-69" x="601.904297"/>
     <use xlink:href="#DejaVuSans-6e" x="629.6875"/>
     <use xlink:href="#DejaVuSans-75" x="693.066406"/>
     <use xlink:href="#DejaVuSans-78" x="756.445312"/>
     <use xlink:href="#DejaVuSans-20" x="815.625"/>
     <use xlink:href="#DejaVuSans-38" x="847.412109"/>
     <use xlink:href="#DejaVuSans-20" x="911.035156"/>
     <use xlink:href="#DejaVuSans-61" x="942.822266"/>
     <use xlink:href="#DejaVuSans-6e" x="1004.101562"/>
     <use xlink:href="#DejaVuSans-64" x="1067.480469"/>
     <use xlink:href="#DejaVuSans-20" x="1130.957031"/>
     <use xlink:href="#DejaVuSans-39" x="1162.744141"/>
     <use xlink:href="#DejaVuSans-20" x="1226.367188"/>
     <use xlink:href="#DejaVuSans-49" x="1258.154297"/>
     <use xlink:href="#DejaVuSans-6e" x="1287.646484"/>
     <use xlink:href="#DejaVuSans-73" x="1351.025391"/>
     <use xlink:href="#DejaVuSans-74" x="1403.125"/>
     <use xlink:href="#DejaVuSans-61" x="1442.333984"/>
     <use xlink:href="#DejaVuSans-6e" x="1503.613281"/>
     <use xlink:href="#DejaVuSans-63" x="1566.992188"/>
     <use xlink:href="#DejaVuSans-65" x="1621.972656"/>
     <use xlink:href="#DejaVuSans-73" x="1683.496094"/>
     <use xlink:href="#DejaVuSans-20" x="1735.595703"/>
     <use xlink:href="#DejaVuSans-62" x="1767.382812"/>
     <use xlink:href="#DejaVuSans-79" x="1830.859375"/>
     <use xlink:href="#DejaVuSans-20" x="1890.039062"/>
     <use xlink:href="#DejaVuSans-44" x="1921.826172"/>
     <use xlink:href="#DejaVuSans-69" x="1998.828125"/>
     <use xlink:href="#DejaVuSans-73" x="2026.611328"/>
     <use xlink:href="#DejaVuSans-74" x="2078.710938"/>
     <use xlink:href="#DejaVuSans-72" x="2117.919922"/>
     <use xlink:href="#DejaVuSans-69" x="2159.033203"/>
     <use xlink:href="#DejaVuSans-62" x="2186.816406"/>
     <use xlink:href="#DejaVuSans-75" x="2250.292969"/>
     <use xlink:href="#DejaVuSans-74" x="2313.671875"/>
     <use xlink:href="#DejaVuSans-69" x="2352.880859"/>
     <use xlink:href="#DejaVuSans-6f" x="2380.664062"/>
     <use xlink:href="#DejaVuSans-6e" x="2441.845703"/>
     <use xlink:href="#DejaVuSans-20" x="2505.224609"/>
     <use xlink:href="#DejaVuSans-53" x="2537.011719"/>
     <use xlink:href="#DejaVuSans-68" x="2600.488281"/>
     <use xlink:href="#DejaVuSans-61" x="2663.867188"/>
     <use xlink:href="#DejaVuSans-72" x="2725.146484"/>
     <use xlink:href="#DejaVuSans-65" x="2764.009766"/>
     <use xlink:href="#DejaVuSans-20" x="2825.533203"/>
     <use xlink:href="#DejaVuSans-28" x="2857.320312"/>
     <use xlink:href="#DejaVuSans-53" x="2896.333984"/>
     <use xlink:href="#DejaVuSans-79" x="2959.810547"/>
     <use xlink:href="#DejaVuSans-73" x="3018.990234"/>
     <use xlink:href="#DejaVuSans-74" x="3071.089844"/>
     <use xlink:href="#DejaVuSans-65" x="3110.298828"/>
     <use xlink:href="#DejaVuSans-6d" x="3171.822266"/>
     <use xlink:href="#DejaVuSans-20" x="3269.234375"/>
     <use xlink:href="#DejaVuSans-41" x="3301.021484"/>
     <use xlink:href="#DejaVuSans-67" x="3369.429688"/>
     <use xlink:href="#DejaVuSans-65" x="3432.90625"/>
     <use xlink:href="#DejaVuSans-20" x="3494.429688"/>
     <use xlink:href="#DejaVuSans-3e" x="3526.216797"/>
     <use xlink:href="#DejaVuSans-20" x="3610.005859"/>
     <use xlink:href="#DejaVuSans-31" x="3641.792969"/>
     <use xlink:href="#DejaVuSans-20" x="3705.416016"/>
     <use xlink:href="#DejaVuSans-57" x="3737.203125"/>
     <use xlink:href="#DejaVuSans-65" x="3830.205078"/>
     <use xlink:href="#DejaVuSans-65" x="3891.728516"/>
     <use xlink:href="#DejaVuSans-6b" x="3953.251953"/>
     <use xlink:href="#DejaVuSans-29" x="4011.162109"/>
    </g>
   </g>
   <g id="legend_1">
    <g id="patch_7">
     <path d="M 59.079375 120.2105 
L 168.048125 120.2105 
Q 170.048125 120.2105 170.048125 118.2105 
L 170.048125 31.14175 
Q 170.048125 29.14175 168.048125 29.14175 
L 59.079375 29.14175 
Q 57.079375 29.14175 57.079375 31.14175 
L 57.079375 118.2105 
Q 57.079375 120.2105 59.079375 120.2105 
z
" style="fill: #e5e5e5; opacity: 0.8; stroke: #cccccc; stroke-width: 0.5; stroke-linejoin: miter"/>
    </g>
    <g id="text_21">
     <!-- Distribution -->
     <g transform="translate(84.395 40.740187)scale(0.1 -0.1)">
      <use xlink:href="#DejaVuSans-44"/>
      <use xlink:href="#DejaVuSans-69" x="77.001953"/>
      <use xlink:href="#DejaVuSans-73" x="104.785156"/>
      <use xlink:href="#DejaVuSans-74" x="156.884766"/>
      <use xlink:href="#DejaVuSans-72" x="196.09375"/>
      <use xlink:href="#DejaVuSans-69" x="237.207031"/>
      <use xlink:href="#DejaVuSans-62" x="264.990234"/>
      <use xlink:href="#DejaVuSans-75" x="328.466797"/>
      <use xlink:href="#DejaVuSans-74" x="391.845703"/>
      <use xlink:href="#DejaVuSans-69" x="431.054688"/>
      <use xlink:href="#DejaVuSans-6f" x="458.837891"/>
      <use xlink:href="#DejaVuSans-6e" x="520.019531"/>
     </g>
    </g>
    <g id="line2d_45">
     <path d="M 61.079375 51.918312 
L 71.079375 51.918312 
L 81.079375 51.918312 
" style="fill: none; stroke: #4ac1fa; stroke-width: 1.5; stroke-linecap: square"/>
    </g>
    <g id="text_22">
     <!-- AlmaLinux -->
     <g transform="translate(89.079375 55.418312)scale(0.1 -0.1)">
      <defs>
       <path id="DejaVuSans-6c" d="M 603 4863 
L 1178 4863 
L 1178 0 
L 603 0 
L 603 4863 
z
" transform="scale(0.015625)"/>
      </defs>
      <use xlink:href="#DejaVuSans-41"/>
      <use xlink:href="#DejaVuSans-6c" x="68.408203"/>
      <use xlink:href="#DejaVuSans-6d" x="96.191406"/>
      <use xlink:href="#DejaVuSans-61" x="193.603516"/>
      <use xlink:href="#DejaVuSans-4c" x="254.882812"/>
      <use xlink:href="#DejaVuSans-69" x="310.595703"/>
      <use xlink:href="#DejaVuSans-6e" x="338.378906"/>
      <use xlink:href="#DejaVuSans-75" x="401.757812"/>
      <use xlink:href="#DejaVuSans-78" x="465.136719"/>
     </g>
    </g>
    <g id="line2d_46">
     <path d="M 61.079375 66.596437 
L 71.079375 66.596437 
L 81.079375 66.596437 
" style="fill: none; stroke: #9a5689; stroke-width: 1.5; stroke-linecap: square"/>
    </g>
    <g id="text_23">
     <!-- CentOS Stream -->
     <g transform="translate(89.079375 70.096437)scale(0.1 -0.1)">
      <defs>
       <path id="DejaVuSans-43" d="M 4122 4306 
L 4122 3641 
Q 3803 3938 3442 4084 
Q 3081 4231 2675 4231 
Q 1875 4231 1450 3742 
Q 1025 3253 1025 2328 
Q 1025 1406 1450 917 
Q 1875 428 2675 428 
Q 3081 428 3442 575 
Q 3803 722 4122 1019 
L 4122 359 
Q 3791 134 3420 21 
Q 3050 -91 2638 -91 
Q 1578 -91 968 557 
Q 359 1206 359 2328 
Q 359 3453 968 4101 
Q 1578 4750 2638 4750 
Q 3056 4750 3426 4639 
Q 3797 4528 4122 4306 
z
" transform="scale(0.015625)"/>
       <path id="DejaVuSans-4f" d="M 2522 4238 
Q 1834 4238 1429 3725 
Q 1025 3213 1025 2328 
Q 1025 1447 1429 934 
Q 1834 422 2522 422 
Q 3209 422 3611 934 
Q 4013 1447 4013 2328 
Q 4013 3213 3611 3725 
Q 3209 4238 2522 4238 
z
M 2522 4750 
Q 3503 4750 4090 4092 
Q 4678 3434 4678 2328 
Q 4678 1225 4090 567 
Q 3503 -91 2522 -91 
Q 1538 -91 948 565 
Q 359 1222 359 2328 
Q 359 3434 948 4092 
Q 1538 4750 2522 4750 
z
" transform="scale(0.015625)"/>
      </defs>
      <use xlink:href="#DejaVuSans-43"/>
      <use xlink:href="#DejaVuSans-65" x="69.824219"/>
      <use xlink:href="#DejaVuSans-6e" x="131.347656"/>
      <use xlink:href="#DejaVuSans-74" x="194.726562"/>
      <use xlink:href="#DejaVuSans-4f" x="233.935547"/>
      <use xlink:href="#DejaVuSans-53" x="312.646484"/>
      <use xlink:href="#DejaVuSans-20" x="376.123047"/>
      <use xlink:href="#DejaVuSans-53" x="407.910156"/>
      <use xlink:href="#DejaVuSans-74" x="471.386719"/>
      <use xlink:href="#DejaVuSans-72" x="510.595703"/>
      <use xlink:href="#DejaVuSans-65" x="549.458984"/>
      <use xlink:href="#DejaVuSans-61" x="610.982422"/>
      <use xlink:href="#DejaVuSans-6d" x="672.261719"/>
     </g>
    </g>
    <g id="line2d_47">
     <path d="M 61.079375 81.274563 
L 71.079375 81.274563 
L 81.079375 81.274563 
" style="fill: none; stroke: #be503b; stroke-width: 1.5; stroke-linecap: square"/>
    </g>
    <g id="text_24">
     <!-- Oracle -->
     <g transform="translate(89.079375 84.774563)scale(0.1 -0.1)">
      <use xlink:href="#DejaVuSans-4f"/>
      <use xlink:href="#DejaVuSans-72" x="78.710938"/>
      <use xlink:href="#DejaVuSans-61" x="119.824219"/>
      <use xlink:href="#DejaVuSans-63" x="181.103516"/>
      <use xlink:href="#DejaVuSans-6c" x="236.083984"/>
      <use xlink:href="#DejaVuSans-65" x="263.867188"/>
     </g>
    </g>
    <g id="line2d_48">
     <path d="M 61.079375 95.952687 
L 71.079375 95.952687 
L 81.079375 95.952687 
" style="fill: none; stroke: #e2321d; stroke-width: 1.5; stroke-linecap: square"/>
    </g>
    <g id="text_25">
     <!-- RHEL -->
     <g transform="translate(89.079375 99.452687)scale(0.1 -0.1)">
      <defs>
       <path id="DejaVuSans-52" d="M 2841 2188 
Q 3044 2119 3236 1894 
Q 3428 1669 3622 1275 
L 4263 0 
L 3584 0 
L 2988 1197 
Q 2756 1666 2539 1819 
Q 2322 1972 1947 1972 
L 1259 1972 
L 1259 0 
L 628 0 
L 628 4666 
L 2053 4666 
Q 2853 4666 3247 4331 
Q 3641 3997 3641 3322 
Q 3641 2881 3436 2590 
Q 3231 2300 2841 2188 
z
M 1259 4147 
L 1259 2491 
L 2053 2491 
Q 2509 2491 2742 2702 
Q 2975 2913 2975 3322 
Q 2975 3731 2742 3939 
Q 2509 4147 2053 4147 
L 1259 4147 
z
" transform="scale(0.015625)"/>
       <path id="DejaVuSans-48" d="M 628 4666 
L 1259 4666 
L 1259 2753 
L 3553 2753 
L 3553 4666 
L 4184 4666 
L 4184 0 
L 3553 0 
L 3553 2222 
L 1259 2222 
L 1259 0 
L 628 0 
L 628 4666 
z
" transform="scale(0.015625)"/>
      </defs>
      <use xlink:href="#DejaVuSans-52"/>
      <use xlink:href="#DejaVuSans-48" x="69.482422"/>
      <use xlink:href="#DejaVuSans-45" x="144.677734"/>
      <use xlink:href="#DejaVuSans-4c" x="207.861328"/>
     </g>
    </g>
    <g id="line2d_49">
     <path d="M 61.079375 110.630812 
L 71.079375 110.630812 
L 81.079375 110.630812 
" style="fill: none; stroke: #48b585; stroke-width: 6; stroke-linecap: square"/>
    </g>
    <g id="text_26">
     <!-- Rocky Linux -->
     <g transform="translate(89.079375 114.130812)scale(0.1 -0.1)">
      <use xlink:href="#DejaVuSans-52"/>
      <use xlink:href="#DejaVuSans-6f" x="64.982422"/>
      <use xlink:href="#DejaVuSans-63" x="126.164062"/>
      <use xlink:href="#DejaVuSans-6b" x="181.144531"/>
      <use xlink:href="#DejaVuSans-79" x="235.429688"/>
      <use xlink:href="#DejaVuSans-20" x="294.609375"/>
      <use xlink:href="#DejaVuSans-4c" x="326.396484"/>
      <use xlink:href="#DejaVuSans-69" x="382.109375"/>
      <use xlink:href="#DejaVuSans-6e" x="409.892578"/>
      <use xlink:href="#DejaVuSans-75" x="473.271484"/>
      <use xlink:href="#DejaVuSans-78" x="536.650391"/>
     </g>
    </g>
   </g>
  </g>
 </g>
 <defs>
  <clipPath id="p0eb79cbc7c">
   <rect x="52.079375" y="24.14175" width="902.844" height="543.6"/>
  </clipPath>
 </defs>
</svg>
