<?xml version="1.0" encoding="utf-8" standalone="no"?>
<!DOCTYPE svg PUBLIC "-//W3C//DTD SVG 1.1//EN"
  "http://www.w3.org/Graphics/SVG/1.1/DTD/svg11.dtd">
<svg xmlns:xlink="http://www.w3.org/1999/xlink" width="974.2765pt" height="644.743878pt" viewBox="0 0 974.2765 644.743878" xmlns="http://www.w3.org/2000/svg" version="1.1">
 <metadata>
  <rdf:RDF xmlns:dc="http://purl.org/dc/elements/1.1/" xmlns:cc="http://creativecommons.org/ns#" xmlns:rdf="http://www.w3.org/1999/02/22-rdf-syntax-ns#">
   <cc:Work>
    <dc:type rdf:resource="http://purl.org/dc/dcmitype/StillImage"/>
    <dc:date>2025-01-02T11:55:01.566127</dc:date>
    <dc:format>image/svg+xml</dc:format>
    <dc:creator>
     <cc:Agent>
      <dc:title>Matplotlib v3.6.3, https://matplotlib.org/</dc:title>
     </cc:Agent>
    </dc:creator>
   </cc:Work>
  </rdf:RDF>
 </metadata>
 <defs>
  <style type="text/css">*{stroke-linejoin: round; stroke-linecap: butt}</style>
 </defs>
 <g id="figure_1">
  <g id="patch_1">
   <path d="M 0 644.743878 
L 974.2765 644.743878 
L 974.2765 0 
L 0 0 
z
" style="fill: #ffffff"/>
  </g>
  <g id="axes_1">
   <g id="patch_2">
    <path d="M 64.2325 578.54175 
L 967.0765 578.54175 
L 967.0765 24.14175 
L 64.2325 24.14175 
z
" style="fill: #e5e5e5"/>
   </g>
   <g id="matplotlib.axis_1">
    <g id="xtick_1">
     <g id="line2d_1">
      <path d="M 105.505369 578.54175 
L 105.505369 24.14175 
" clip-path="url(#p2e7bf179bd)" style="fill: none; stroke: #ffffff; stroke-width: 0.8; stroke-linecap: square"/>
     </g>
     <g id="line2d_2">
      <defs>
       <path id="mc40c9d55be" d="M 0 0 
L 0 3.5 
" style="stroke: #555555; stroke-width: 0.8"/>
      </defs>
      <g>
       <use xlink:href="#mc40c9d55be" x="105.505369" y="578.54175" style="fill: #555555; stroke: #555555; stroke-width: 0.8"/>
      </g>
     </g>
     <g id="text_1">
      <!-- 2024-01 -->
      <g style="fill: #555555" transform="translate(92.684086 620.459567) rotate(-45) scale(0.1 -0.1)">
       <defs>
        <path id="DejaVuSans-32" d="M 1228 531 
L 3431 531 
L 3431 0 
L 469 0 
L 469 531 
Q 828 903 1448 1529 
Q 2069 2156 2228 2338 
Q 2531 2678 2651 2914 
Q 2772 3150 2772 3378 
Q 2772 3750 2511 3984 
Q 2250 4219 1831 4219 
Q 1534 4219 1204 4116 
Q 875 4013 500 3803 
L 500 4441 
Q 881 4594 1212 4672 
Q 1544 4750 1819 4750 
Q 2544 4750 2975 4387 
Q 3406 4025 3406 3419 
Q 3406 3131 3298 2873 
Q 3191 2616 2906 2266 
Q 2828 2175 2409 1742 
Q 1991 1309 1228 531 
z
" transform="scale(0.015625)"/>
        <path id="DejaVuSans-30" d="M 2034 4250 
Q 1547 4250 1301 3770 
Q 1056 3291 1056 2328 
Q 1056 1369 1301 889 
Q 1547 409 2034 409 
Q 2525 409 2770 889 
Q 3016 1369 3016 2328 
Q 3016 3291 2770 3770 
Q 2525 4250 2034 4250 
z
M 2034 4750 
Q 2819 4750 3233 4129 
Q 3647 3509 3647 2328 
Q 3647 1150 3233 529 
Q 2819 -91 2034 -91 
Q 1250 -91 836 529 
Q 422 1150 422 2328 
Q 422 3509 836 4129 
Q 1250 4750 2034 4750 
z
" transform="scale(0.015625)"/>
        <path id="DejaVuSans-34" d="M 2419 4116 
L 825 1625 
L 2419 1625 
L 2419 4116 
z
M 2253 4666 
L 3047 4666 
L 3047 1625 
L 3713 1625 
L 3713 1100 
L 3047 1100 
L 3047 0 
L 2419 0 
L 2419 1100 
L 313 1100 
L 313 1709 
L 2253 4666 
z
" transform="scale(0.015625)"/>
        <path id="DejaVuSans-2d" d="M 313 2009 
L 1997 2009 
L 1997 1497 
L 313 1497 
L 313 2009 
z
" transform="scale(0.015625)"/>
        <path id="DejaVuSans-31" d="M 794 531 
L 1825 531 
L 1825 4091 
L 703 3866 
L 703 4441 
L 1819 4666 
L 2450 4666 
L 2450 531 
L 3481 531 
L 3481 0 
L 794 0 
L 794 531 
z
" transform="scale(0.015625)"/>
       </defs>
       <use xlink:href="#DejaVuSans-32"/>
       <use xlink:href="#DejaVuSans-30" x="63.623047"/>
       <use xlink:href="#DejaVuSans-32" x="127.246094"/>
       <use xlink:href="#DejaVuSans-34" x="190.869141"/>
       <use xlink:href="#DejaVuSans-2d" x="254.492188"/>
       <use xlink:href="#DejaVuSans-30" x="290.576172"/>
       <use xlink:href="#DejaVuSans-31" x="354.199219"/>
      </g>
     </g>
    </g>
    <g id="xtick_2">
     <g id="line2d_3">
      <path d="M 185.471551 578.54175 
L 185.471551 24.14175 
" clip-path="url(#p2e7bf179bd)" style="fill: none; stroke: #ffffff; stroke-width: 0.8; stroke-linecap: square"/>
     </g>
     <g id="line2d_4">
      <g>
       <use xlink:href="#mc40c9d55be" x="185.471551" y="578.54175" style="fill: #555555; stroke: #555555; stroke-width: 0.8"/>
      </g>
     </g>
     <g id="text_2">
      <!-- 2024-02 -->
      <g style="fill: #555555" transform="translate(172.650269 620.459567) rotate(-45) scale(0.1 -0.1)">
       <use xlink:href="#DejaVuSans-32"/>
       <use xlink:href="#DejaVuSans-30" x="63.623047"/>
       <use xlink:href="#DejaVuSans-32" x="127.246094"/>
       <use xlink:href="#DejaVuSans-34" x="190.869141"/>
       <use xlink:href="#DejaVuSans-2d" x="254.492188"/>
       <use xlink:href="#DejaVuSans-30" x="290.576172"/>
       <use xlink:href="#DejaVuSans-32" x="354.199219"/>
      </g>
     </g>
    </g>
    <g id="xtick_3">
     <g id="line2d_5">
      <path d="M 260.278626 578.54175 
L 260.278626 24.14175 
" clip-path="url(#p2e7bf179bd)" style="fill: none; stroke: #ffffff; stroke-width: 0.8; stroke-linecap: square"/>
     </g>
     <g id="line2d_6">
      <g>
       <use xlink:href="#mc40c9d55be" x="260.278626" y="578.54175" style="fill: #555555; stroke: #555555; stroke-width: 0.8"/>
      </g>
     </g>
     <g id="text_3">
      <!-- 2024-03 -->
      <g style="fill: #555555" transform="translate(247.457343 620.459567) rotate(-45) scale(0.1 -0.1)">
       <defs>
        <path id="DejaVuSans-33" d="M 2597 2516 
Q 3050 2419 3304 2112 
Q 3559 1806 3559 1356 
Q 3559 666 3084 287 
Q 2609 -91 1734 -91 
Q 1441 -91 1130 -33 
Q 819 25 488 141 
L 488 750 
Q 750 597 1062 519 
Q 1375 441 1716 441 
Q 2309 441 2620 675 
Q 2931 909 2931 1356 
Q 2931 1769 2642 2001 
Q 2353 2234 1838 2234 
L 1294 2234 
L 1294 2753 
L 1863 2753 
Q 2328 2753 2575 2939 
Q 2822 3125 2822 3475 
Q 2822 3834 2567 4026 
Q 2313 4219 1838 4219 
Q 1578 4219 1281 4162 
Q 984 4106 628 3988 
L 628 4550 
Q 988 4650 1302 4700 
Q 1616 4750 1894 4750 
Q 2613 4750 3031 4423 
Q 3450 4097 3450 3541 
Q 3450 3153 3228 2886 
Q 3006 2619 2597 2516 
z
" transform="scale(0.015625)"/>
       </defs>
       <use xlink:href="#DejaVuSans-32"/>
       <use xlink:href="#DejaVuSans-30" x="63.623047"/>
       <use xlink:href="#DejaVuSans-32" x="127.246094"/>
       <use xlink:href="#DejaVuSans-34" x="190.869141"/>
       <use xlink:href="#DejaVuSans-2d" x="254.492188"/>
       <use xlink:href="#DejaVuSans-30" x="290.576172"/>
       <use xlink:href="#DejaVuSans-33" x="354.199219"/>
      </g>
     </g>
    </g>
    <g id="xtick_4">
     <g id="line2d_7">
      <path d="M 340.244809 578.54175 
L 340.244809 24.14175 
" clip-path="url(#p2e7bf179bd)" style="fill: none; stroke: #ffffff; stroke-width: 0.8; stroke-linecap: square"/>
     </g>
     <g id="line2d_8">
      <g>
       <use xlink:href="#mc40c9d55be" x="340.244809" y="578.54175" style="fill: #555555; stroke: #555555; stroke-width: 0.8"/>
      </g>
     </g>
     <g id="text_4">
      <!-- 2024-04 -->
      <g style="fill: #555555" transform="translate(327.423526 620.459567) rotate(-45) scale(0.1 -0.1)">
       <use xlink:href="#DejaVuSans-32"/>
       <use xlink:href="#DejaVuSans-30" x="63.623047"/>
       <use xlink:href="#DejaVuSans-32" x="127.246094"/>
       <use xlink:href="#DejaVuSans-34" x="190.869141"/>
       <use xlink:href="#DejaVuSans-2d" x="254.492188"/>
       <use xlink:href="#DejaVuSans-30" x="290.576172"/>
       <use xlink:href="#DejaVuSans-34" x="354.199219"/>
      </g>
     </g>
    </g>
    <g id="xtick_5">
     <g id="line2d_9">
      <path d="M 417.631437 578.54175 
L 417.631437 24.14175 
" clip-path="url(#p2e7bf179bd)" style="fill: none; stroke: #ffffff; stroke-width: 0.8; stroke-linecap: square"/>
     </g>
     <g id="line2d_10">
      <g>
       <use xlink:href="#mc40c9d55be" x="417.631437" y="578.54175" style="fill: #555555; stroke: #555555; stroke-width: 0.8"/>
      </g>
     </g>
     <g id="text_5">
      <!-- 2024-05 -->
      <g style="fill: #555555" transform="translate(404.810155 620.459567) rotate(-45) scale(0.1 -0.1)">
       <defs>
        <path id="DejaVuSans-35" d="M 691 4666 
L 3169 4666 
L 3169 4134 
L 1269 4134 
L 1269 2991 
Q 1406 3038 1543 3061 
Q 1681 3084 1819 3084 
Q 2600 3084 3056 2656 
Q 3513 2228 3513 1497 
Q 3513 744 3044 326 
Q 2575 -91 1722 -91 
Q 1428 -91 1123 -41 
Q 819 9 494 109 
L 494 744 
Q 775 591 1075 516 
Q 1375 441 1709 441 
Q 2250 441 2565 725 
Q 2881 1009 2881 1497 
Q 2881 1984 2565 2268 
Q 2250 2553 1709 2553 
Q 1456 2553 1204 2497 
Q 953 2441 691 2322 
L 691 4666 
z
" transform="scale(0.015625)"/>
       </defs>
       <use xlink:href="#DejaVuSans-32"/>
       <use xlink:href="#DejaVuSans-30" x="63.623047"/>
       <use xlink:href="#DejaVuSans-32" x="127.246094"/>
       <use xlink:href="#DejaVuSans-34" x="190.869141"/>
       <use xlink:href="#DejaVuSans-2d" x="254.492188"/>
       <use xlink:href="#DejaVuSans-30" x="290.576172"/>
       <use xlink:href="#DejaVuSans-35" x="354.199219"/>
      </g>
     </g>
    </g>
    <g id="xtick_6">
     <g id="line2d_11">
      <path d="M 497.59762 578.54175 
L 497.59762 24.14175 
" clip-path="url(#p2e7bf179bd)" style="fill: none; stroke: #ffffff; stroke-width: 0.8; stroke-linecap: square"/>
     </g>
     <g id="line2d_12">
      <g>
       <use xlink:href="#mc40c9d55be" x="497.59762" y="578.54175" style="fill: #555555; stroke: #555555; stroke-width: 0.8"/>
      </g>
     </g>
     <g id="text_6">
      <!-- 2024-06 -->
      <g style="fill: #555555" transform="translate(484.776338 620.459567) rotate(-45) scale(0.1 -0.1)">
       <defs>
        <path id="DejaVuSans-36" d="M 2113 2584 
Q 1688 2584 1439 2293 
Q 1191 2003 1191 1497 
Q 1191 994 1439 701 
Q 1688 409 2113 409 
Q 2538 409 2786 701 
Q 3034 994 3034 1497 
Q 3034 2003 2786 2293 
Q 2538 2584 2113 2584 
z
M 3366 4563 
L 3366 3988 
Q 3128 4100 2886 4159 
Q 2644 4219 2406 4219 
Q 1781 4219 1451 3797 
Q 1122 3375 1075 2522 
Q 1259 2794 1537 2939 
Q 1816 3084 2150 3084 
Q 2853 3084 3261 2657 
Q 3669 2231 3669 1497 
Q 3669 778 3244 343 
Q 2819 -91 2113 -91 
Q 1303 -91 875 529 
Q 447 1150 447 2328 
Q 447 3434 972 4092 
Q 1497 4750 2381 4750 
Q 2619 4750 2861 4703 
Q 3103 4656 3366 4563 
z
" transform="scale(0.015625)"/>
       </defs>
       <use xlink:href="#DejaVuSans-32"/>
       <use xlink:href="#DejaVuSans-30" x="63.623047"/>
       <use xlink:href="#DejaVuSans-32" x="127.246094"/>
       <use xlink:href="#DejaVuSans-34" x="190.869141"/>
       <use xlink:href="#DejaVuSans-2d" x="254.492188"/>
       <use xlink:href="#DejaVuSans-30" x="290.576172"/>
       <use xlink:href="#DejaVuSans-36" x="354.199219"/>
      </g>
     </g>
    </g>
    <g id="xtick_7">
     <g id="line2d_13">
      <path d="M 574.984249 578.54175 
L 574.984249 24.14175 
" clip-path="url(#p2e7bf179bd)" style="fill: none; stroke: #ffffff; stroke-width: 0.8; stroke-linecap: square"/>
     </g>
     <g id="line2d_14">
      <g>
       <use xlink:href="#mc40c9d55be" x="574.984249" y="578.54175" style="fill: #555555; stroke: #555555; stroke-width: 0.8"/>
      </g>
     </g>
     <g id="text_7">
      <!-- 2024-07 -->
      <g style="fill: #555555" transform="translate(562.162966 620.459567) rotate(-45) scale(0.1 -0.1)">
       <defs>
        <path id="DejaVuSans-37" d="M 525 4666 
L 3525 4666 
L 3525 4397 
L 1831 0 
L 1172 0 
L 2766 4134 
L 525 4134 
L 525 4666 
z
" transform="scale(0.015625)"/>
       </defs>
       <use xlink:href="#DejaVuSans-32"/>
       <use xlink:href="#DejaVuSans-30" x="63.623047"/>
       <use xlink:href="#DejaVuSans-32" x="127.246094"/>
       <use xlink:href="#DejaVuSans-34" x="190.869141"/>
       <use xlink:href="#DejaVuSans-2d" x="254.492188"/>
       <use xlink:href="#DejaVuSans-30" x="290.576172"/>
       <use xlink:href="#DejaVuSans-37" x="354.199219"/>
      </g>
     </g>
    </g>
    <g id="xtick_8">
     <g id="line2d_15">
      <path d="M 654.950431 578.54175 
L 654.950431 24.14175 
" clip-path="url(#p2e7bf179bd)" style="fill: none; stroke: #ffffff; stroke-width: 0.8; stroke-linecap: square"/>
     </g>
     <g id="line2d_16">
      <g>
       <use xlink:href="#mc40c9d55be" x="654.950431" y="578.54175" style="fill: #555555; stroke: #555555; stroke-width: 0.8"/>
      </g>
     </g>
     <g id="text_8">
      <!-- 2024-08 -->
      <g style="fill: #555555" transform="translate(642.129149 620.459567) rotate(-45) scale(0.1 -0.1)">
       <defs>
        <path id="DejaVuSans-38" d="M 2034 2216 
Q 1584 2216 1326 1975 
Q 1069 1734 1069 1313 
Q 1069 891 1326 650 
Q 1584 409 2034 409 
Q 2484 409 2743 651 
Q 3003 894 3003 1313 
Q 3003 1734 2745 1975 
Q 2488 2216 2034 2216 
z
M 1403 2484 
Q 997 2584 770 2862 
Q 544 3141 544 3541 
Q 544 4100 942 4425 
Q 1341 4750 2034 4750 
Q 2731 4750 3128 4425 
Q 3525 4100 3525 3541 
Q 3525 3141 3298 2862 
Q 3072 2584 2669 2484 
Q 3125 2378 3379 2068 
Q 3634 1759 3634 1313 
Q 3634 634 3220 271 
Q 2806 -91 2034 -91 
Q 1263 -91 848 271 
Q 434 634 434 1313 
Q 434 1759 690 2068 
Q 947 2378 1403 2484 
z
M 1172 3481 
Q 1172 3119 1398 2916 
Q 1625 2713 2034 2713 
Q 2441 2713 2670 2916 
Q 2900 3119 2900 3481 
Q 2900 3844 2670 4047 
Q 2441 4250 2034 4250 
Q 1625 4250 1398 4047 
Q 1172 3844 1172 3481 
z
" transform="scale(0.015625)"/>
       </defs>
       <use xlink:href="#DejaVuSans-32"/>
       <use xlink:href="#DejaVuSans-30" x="63.623047"/>
       <use xlink:href="#DejaVuSans-32" x="127.246094"/>
       <use xlink:href="#DejaVuSans-34" x="190.869141"/>
       <use xlink:href="#DejaVuSans-2d" x="254.492188"/>
       <use xlink:href="#DejaVuSans-30" x="290.576172"/>
       <use xlink:href="#DejaVuSans-38" x="354.199219"/>
      </g>
     </g>
    </g>
    <g id="xtick_9">
     <g id="line2d_17">
      <path d="M 734.916614 578.54175 
L 734.916614 24.14175 
" clip-path="url(#p2e7bf179bd)" style="fill: none; stroke: #ffffff; stroke-width: 0.8; stroke-linecap: square"/>
     </g>
     <g id="line2d_18">
      <g>
       <use xlink:href="#mc40c9d55be" x="734.916614" y="578.54175" style="fill: #555555; stroke: #555555; stroke-width: 0.8"/>
      </g>
     </g>
     <g id="text_9">
      <!-- 2024-09 -->
      <g style="fill: #555555" transform="translate(722.095332 620.459567) rotate(-45) scale(0.1 -0.1)">
       <defs>
        <path id="DejaVuSans-39" d="M 703 97 
L 703 672 
Q 941 559 1184 500 
Q 1428 441 1663 441 
Q 2288 441 2617 861 
Q 2947 1281 2994 2138 
Q 2813 1869 2534 1725 
Q 2256 1581 1919 1581 
Q 1219 1581 811 2004 
Q 403 2428 403 3163 
Q 403 3881 828 4315 
Q 1253 4750 1959 4750 
Q 2769 4750 3195 4129 
Q 3622 3509 3622 2328 
Q 3622 1225 3098 567 
Q 2575 -91 1691 -91 
Q 1453 -91 1209 -44 
Q 966 3 703 97 
z
M 1959 2075 
Q 2384 2075 2632 2365 
Q 2881 2656 2881 3163 
Q 2881 3666 2632 3958 
Q 2384 4250 1959 4250 
Q 1534 4250 1286 3958 
Q 1038 3666 1038 3163 
Q 1038 2656 1286 2365 
Q 1534 2075 1959 2075 
z
" transform="scale(0.015625)"/>
       </defs>
       <use xlink:href="#DejaVuSans-32"/>
       <use xlink:href="#DejaVuSans-30" x="63.623047"/>
       <use xlink:href="#DejaVuSans-32" x="127.246094"/>
       <use xlink:href="#DejaVuSans-34" x="190.869141"/>
       <use xlink:href="#DejaVuSans-2d" x="254.492188"/>
       <use xlink:href="#DejaVuSans-30" x="290.576172"/>
       <use xlink:href="#DejaVuSans-39" x="354.199219"/>
      </g>
     </g>
    </g>
    <g id="xtick_10">
     <g id="line2d_19">
      <path d="M 812.303243 578.54175 
L 812.303243 24.14175 
" clip-path="url(#p2e7bf179bd)" style="fill: none; stroke: #ffffff; stroke-width: 0.8; stroke-linecap: square"/>
     </g>
     <g id="line2d_20">
      <g>
       <use xlink:href="#mc40c9d55be" x="812.303243" y="578.54175" style="fill: #555555; stroke: #555555; stroke-width: 0.8"/>
      </g>
     </g>
     <g id="text_10">
      <!-- 2024-10 -->
      <g style="fill: #555555" transform="translate(799.481961 620.459567) rotate(-45) scale(0.1 -0.1)">
       <use xlink:href="#DejaVuSans-32"/>
       <use xlink:href="#DejaVuSans-30" x="63.623047"/>
       <use xlink:href="#DejaVuSans-32" x="127.246094"/>
       <use xlink:href="#DejaVuSans-34" x="190.869141"/>
       <use xlink:href="#DejaVuSans-2d" x="254.492188"/>
       <use xlink:href="#DejaVuSans-31" x="290.576172"/>
       <use xlink:href="#DejaVuSans-30" x="354.199219"/>
      </g>
     </g>
    </g>
    <g id="xtick_11">
     <g id="line2d_21">
      <path d="M 892.269426 578.54175 
L 892.269426 24.14175 
" clip-path="url(#p2e7bf179bd)" style="fill: none; stroke: #ffffff; stroke-width: 0.8; stroke-linecap: square"/>
     </g>
     <g id="line2d_22">
      <g>
       <use xlink:href="#mc40c9d55be" x="892.269426" y="578.54175" style="fill: #555555; stroke: #555555; stroke-width: 0.8"/>
      </g>
     </g>
     <g id="text_11">
      <!-- 2024-11 -->
      <g style="fill: #555555" transform="translate(879.448143 620.459567) rotate(-45) scale(0.1 -0.1)">
       <use xlink:href="#DejaVuSans-32"/>
       <use xlink:href="#DejaVuSans-30" x="63.623047"/>
       <use xlink:href="#DejaVuSans-32" x="127.246094"/>
       <use xlink:href="#DejaVuSans-34" x="190.869141"/>
       <use xlink:href="#DejaVuSans-2d" x="254.492188"/>
       <use xlink:href="#DejaVuSans-31" x="290.576172"/>
       <use xlink:href="#DejaVuSans-31" x="354.199219"/>
      </g>
     </g>
    </g>
    <g id="text_12">
     <!-- Date -->
     <g style="fill: #555555" transform="translate(501.313563 635.048253) scale(0.12 -0.12)">
      <defs>
       <path id="DejaVuSans-44" d="M 1259 4147 
L 1259 519 
L 2022 519 
Q 2988 519 3436 956 
Q 3884 1394 3884 2338 
Q 3884 3275 3436 3711 
Q 2988 4147 2022 4147 
L 1259 4147 
z
M 628 4666 
L 1925 4666 
Q 3281 4666 3915 4102 
Q 4550 3538 4550 2338 
Q 4550 1131 3912 565 
Q 3275 0 1925 0 
L 628 0 
L 628 4666 
z
" transform="scale(0.015625)"/>
       <path id="DejaVuSans-61" d="M 2194 1759 
Q 1497 1759 1228 1600 
Q 959 1441 959 1056 
Q 959 750 1161 570 
Q 1363 391 1709 391 
Q 2188 391 2477 730 
Q 2766 1069 2766 1631 
L 2766 1759 
L 2194 1759 
z
M 3341 1997 
L 3341 0 
L 2766 0 
L 2766 531 
Q 2569 213 2275 61 
Q 1981 -91 1556 -91 
Q 1019 -91 701 211 
Q 384 513 384 1019 
Q 384 1609 779 1909 
Q 1175 2209 1959 2209 
L 2766 2209 
L 2766 2266 
Q 2766 2663 2505 2880 
Q 2244 3097 1772 3097 
Q 1472 3097 1187 3025 
Q 903 2953 641 2809 
L 641 3341 
Q 956 3463 1253 3523 
Q 1550 3584 1831 3584 
Q 2591 3584 2966 3190 
Q 3341 2797 3341 1997 
z
" transform="scale(0.015625)"/>
       <path id="DejaVuSans-74" d="M 1172 4494 
L 1172 3500 
L 2356 3500 
L 2356 3053 
L 1172 3053 
L 1172 1153 
Q 1172 725 1289 603 
Q 1406 481 1766 481 
L 2356 481 
L 2356 0 
L 1766 0 
Q 1100 0 847 248 
Q 594 497 594 1153 
L 594 3053 
L 172 3053 
L 172 3500 
L 594 3500 
L 594 4494 
L 1172 4494 
z
" transform="scale(0.015625)"/>
       <path id="DejaVuSans-65" d="M 3597 1894 
L 3597 1613 
L 953 1613 
Q 991 1019 1311 708 
Q 1631 397 2203 397 
Q 2534 397 2845 478 
Q 3156 559 3463 722 
L 3463 178 
Q 3153 47 2828 -22 
Q 2503 -91 2169 -91 
Q 1331 -91 842 396 
Q 353 884 353 1716 
Q 353 2575 817 3079 
Q 1281 3584 2069 3584 
Q 2775 3584 3186 3129 
Q 3597 2675 3597 1894 
z
M 3022 2063 
Q 3016 2534 2758 2815 
Q 2500 3097 2075 3097 
Q 1594 3097 1305 2825 
Q 1016 2553 972 2059 
L 3022 2063 
z
" transform="scale(0.015625)"/>
      </defs>
      <use xlink:href="#DejaVuSans-44"/>
      <use xlink:href="#DejaVuSans-61" x="77.001953"/>
      <use xlink:href="#DejaVuSans-74" x="138.28125"/>
      <use xlink:href="#DejaVuSans-65" x="177.490234"/>
     </g>
    </g>
   </g>
   <g id="matplotlib.axis_2">
    <g id="ytick_1">
     <g id="line2d_23">
      <path d="M 64.2325 578.54175 
L 967.0765 578.54175 
" clip-path="url(#p2e7bf179bd)" style="fill: none; stroke: #ffffff; stroke-width: 0.8; stroke-linecap: square"/>
     </g>
     <g id="line2d_24">
      <defs>
       <path id="m0a149e456e" d="M 0 0 
L -3.5 0 
" style="stroke: #555555; stroke-width: 0.8"/>
      </defs>
      <g>
       <use xlink:href="#m0a149e456e" x="64.2325" y="578.54175" style="fill: #555555; stroke: #555555; stroke-width: 0.8"/>
      </g>
     </g>
     <g id="text_13">
      <!-- 0k -->
      <g style="fill: #555555" transform="translate(45.079375 582.340969) scale(0.1 -0.1)">
       <defs>
        <path id="DejaVuSans-6b" d="M 581 4863 
L 1159 4863 
L 1159 1991 
L 2875 3500 
L 3609 3500 
L 1753 1863 
L 3688 0 
L 2938 0 
L 1159 1709 
L 1159 0 
L 581 0 
L 581 4863 
z
" transform="scale(0.015625)"/>
       </defs>
       <use xlink:href="#DejaVuSans-30"/>
       <use xlink:href="#DejaVuSans-6b" x="63.623047"/>
      </g>
     </g>
    </g>
    <g id="ytick_2">
     <g id="line2d_25">
      <path d="M 64.2325 506.35288 
L 967.0765 506.35288 
" clip-path="url(#p2e7bf179bd)" style="fill: none; stroke: #ffffff; stroke-width: 0.8; stroke-linecap: square"/>
     </g>
     <g id="line2d_26">
      <g>
       <use xlink:href="#m0a149e456e" x="64.2325" y="506.35288" style="fill: #555555; stroke: #555555; stroke-width: 0.8"/>
      </g>
     </g>
     <g id="text_14">
      <!-- 200k -->
      <g style="fill: #555555" transform="translate(32.354375 510.152099) scale(0.1 -0.1)">
       <use xlink:href="#DejaVuSans-32"/>
       <use xlink:href="#DejaVuSans-30" x="63.623047"/>
       <use xlink:href="#DejaVuSans-30" x="127.246094"/>
       <use xlink:href="#DejaVuSans-6b" x="190.869141"/>
      </g>
     </g>
    </g>
    <g id="ytick_3">
     <g id="line2d_27">
      <path d="M 64.2325 434.16401 
L 967.0765 434.16401 
" clip-path="url(#p2e7bf179bd)" style="fill: none; stroke: #ffffff; stroke-width: 0.8; stroke-linecap: square"/>
     </g>
     <g id="line2d_28">
      <g>
       <use xlink:href="#m0a149e456e" x="64.2325" y="434.16401" style="fill: #555555; stroke: #555555; stroke-width: 0.8"/>
      </g>
     </g>
     <g id="text_15">
      <!-- 400k -->
      <g style="fill: #555555" transform="translate(32.354375 437.963229) scale(0.1 -0.1)">
       <use xlink:href="#DejaVuSans-34"/>
       <use xlink:href="#DejaVuSans-30" x="63.623047"/>
       <use xlink:href="#DejaVuSans-30" x="127.246094"/>
       <use xlink:href="#DejaVuSans-6b" x="190.869141"/>
      </g>
     </g>
    </g>
    <g id="ytick_4">
     <g id="line2d_29">
      <path d="M 64.2325 361.97514 
L 967.0765 361.97514 
" clip-path="url(#p2e7bf179bd)" style="fill: none; stroke: #ffffff; stroke-width: 0.8; stroke-linecap: square"/>
     </g>
     <g id="line2d_30">
      <g>
       <use xlink:href="#m0a149e456e" x="64.2325" y="361.97514" style="fill: #555555; stroke: #555555; stroke-width: 0.8"/>
      </g>
     </g>
     <g id="text_16">
      <!-- 600k -->
      <g style="fill: #555555" transform="translate(32.354375 365.774359) scale(0.1 -0.1)">
       <use xlink:href="#DejaVuSans-36"/>
       <use xlink:href="#DejaVuSans-30" x="63.623047"/>
       <use xlink:href="#DejaVuSans-30" x="127.246094"/>
       <use xlink:href="#DejaVuSans-6b" x="190.869141"/>
      </g>
     </g>
    </g>
    <g id="ytick_5">
     <g id="line2d_31">
      <path d="M 64.2325 289.78627 
L 967.0765 289.78627 
" clip-path="url(#p2e7bf179bd)" style="fill: none; stroke: #ffffff; stroke-width: 0.8; stroke-linecap: square"/>
     </g>
     <g id="line2d_32">
      <g>
       <use xlink:href="#m0a149e456e" x="64.2325" y="289.78627" style="fill: #555555; stroke: #555555; stroke-width: 0.8"/>
      </g>
     </g>
     <g id="text_17">
      <!-- 800k -->
      <g style="fill: #555555" transform="translate(32.354375 293.585489) scale(0.1 -0.1)">
       <use xlink:href="#DejaVuSans-38"/>
       <use xlink:href="#DejaVuSans-30" x="63.623047"/>
       <use xlink:href="#DejaVuSans-30" x="127.246094"/>
       <use xlink:href="#DejaVuSans-6b" x="190.869141"/>
      </g>
     </g>
    </g>
    <g id="ytick_6">
     <g id="line2d_33">
      <path d="M 64.2325 217.5974 
L 967.0765 217.5974 
" clip-path="url(#p2e7bf179bd)" style="fill: none; stroke: #ffffff; stroke-width: 0.8; stroke-linecap: square"/>
     </g>
     <g id="line2d_34">
      <g>
       <use xlink:href="#m0a149e456e" x="64.2325" y="217.5974" style="fill: #555555; stroke: #555555; stroke-width: 0.8"/>
      </g>
     </g>
     <g id="text_18">
      <!-- 1,000k -->
      <g style="fill: #555555" transform="translate(22.81375 221.396619) scale(0.1 -0.1)">
       <defs>
        <path id="DejaVuSans-2c" d="M 750 794 
L 1409 794 
L 1409 256 
L 897 -744 
L 494 -744 
L 750 256 
L 750 794 
z
" transform="scale(0.015625)"/>
       </defs>
       <use xlink:href="#DejaVuSans-31"/>
       <use xlink:href="#DejaVuSans-2c" x="63.623047"/>
       <use xlink:href="#DejaVuSans-30" x="95.410156"/>
       <use xlink:href="#DejaVuSans-30" x="159.033203"/>
       <use xlink:href="#DejaVuSans-30" x="222.65625"/>
       <use xlink:href="#DejaVuSans-6b" x="286.279297"/>
      </g>
     </g>
    </g>
    <g id="ytick_7">
     <g id="line2d_35">
      <path d="M 64.2325 145.40853 
L 967.0765 145.40853 
" clip-path="url(#p2e7bf179bd)" style="fill: none; stroke: #ffffff; stroke-width: 0.8; stroke-linecap: square"/>
     </g>
     <g id="line2d_36">
      <g>
       <use xlink:href="#m0a149e456e" x="64.2325" y="145.40853" style="fill: #555555; stroke: #555555; stroke-width: 0.8"/>
      </g>
     </g>
     <g id="text_19">
      <!-- 1,200k -->
      <g style="fill: #555555" transform="translate(22.81375 149.207749) scale(0.1 -0.1)">
       <use xlink:href="#DejaVuSans-31"/>
       <use xlink:href="#DejaVuSans-2c" x="63.623047"/>
       <use xlink:href="#DejaVuSans-32" x="95.410156"/>
       <use xlink:href="#DejaVuSans-30" x="159.033203"/>
       <use xlink:href="#DejaVuSans-30" x="222.65625"/>
       <use xlink:href="#DejaVuSans-6b" x="286.279297"/>
      </g>
     </g>
    </g>
    <g id="ytick_8">
     <g id="line2d_37">
      <path d="M 64.2325 73.21966 
L 967.0765 73.21966 
" clip-path="url(#p2e7bf179bd)" style="fill: none; stroke: #ffffff; stroke-width: 0.8; stroke-linecap: square"/>
     </g>
     <g id="line2d_38">
      <g>
       <use xlink:href="#m0a149e456e" x="64.2325" y="73.21966" style="fill: #555555; stroke: #555555; stroke-width: 0.8"/>
      </g>
     </g>
     <g id="text_20">
      <!-- 1,400k -->
      <g style="fill: #555555" transform="translate(22.81375 77.018879) scale(0.1 -0.1)">
       <use xlink:href="#DejaVuSans-31"/>
       <use xlink:href="#DejaVuSans-2c" x="63.623047"/>
       <use xlink:href="#DejaVuSans-34" x="95.410156"/>
       <use xlink:href="#DejaVuSans-30" x="159.033203"/>
       <use xlink:href="#DejaVuSans-30" x="222.65625"/>
       <use xlink:href="#DejaVuSans-6b" x="286.279297"/>
      </g>
     </g>
    </g>
    <g id="text_21">
     <!-- Instances -->
     <g style="fill: #555555" transform="translate(16.318125 329.988) rotate(-90) scale(0.12 -0.12)">
      <defs>
       <path id="DejaVuSans-49" d="M 628 4666 
L 1259 4666 
L 1259 0 
L 628 0 
L 628 4666 
z
" transform="scale(0.015625)"/>
       <path id="DejaVuSans-6e" d="M 3513 2113 
L 3513 0 
L 2938 0 
L 2938 2094 
Q 2938 2591 2744 2837 
Q 2550 3084 2163 3084 
Q 1697 3084 1428 2787 
Q 1159 2491 1159 1978 
L 1159 0 
L 581 0 
L 581 3500 
L 1159 3500 
L 1159 2956 
Q 1366 3272 1645 3428 
Q 1925 3584 2291 3584 
Q 2894 3584 3203 3211 
Q 3513 2838 3513 2113 
z
" transform="scale(0.015625)"/>
       <path id="DejaVuSans-73" d="M 2834 3397 
L 2834 2853 
Q 2591 2978 2328 3040 
Q 2066 3103 1784 3103 
Q 1356 3103 1142 2972 
Q 928 2841 928 2578 
Q 928 2378 1081 2264 
Q 1234 2150 1697 2047 
L 1894 2003 
Q 2506 1872 2764 1633 
Q 3022 1394 3022 966 
Q 3022 478 2636 193 
Q 2250 -91 1575 -91 
Q 1294 -91 989 -36 
Q 684 19 347 128 
L 347 722 
Q 666 556 975 473 
Q 1284 391 1588 391 
Q 1994 391 2212 530 
Q 2431 669 2431 922 
Q 2431 1156 2273 1281 
Q 2116 1406 1581 1522 
L 1381 1569 
Q 847 1681 609 1914 
Q 372 2147 372 2553 
Q 372 3047 722 3315 
Q 1072 3584 1716 3584 
Q 2034 3584 2315 3537 
Q 2597 3491 2834 3397 
z
" transform="scale(0.015625)"/>
       <path id="DejaVuSans-63" d="M 3122 3366 
L 3122 2828 
Q 2878 2963 2633 3030 
Q 2388 3097 2138 3097 
Q 1578 3097 1268 2742 
Q 959 2388 959 1747 
Q 959 1106 1268 751 
Q 1578 397 2138 397 
Q 2388 397 2633 464 
Q 2878 531 3122 666 
L 3122 134 
Q 2881 22 2623 -34 
Q 2366 -91 2075 -91 
Q 1284 -91 818 406 
Q 353 903 353 1747 
Q 353 2603 823 3093 
Q 1294 3584 2113 3584 
Q 2378 3584 2631 3529 
Q 2884 3475 3122 3366 
z
" transform="scale(0.015625)"/>
      </defs>
      <use xlink:href="#DejaVuSans-49"/>
      <use xlink:href="#DejaVuSans-6e" x="29.492188"/>
      <use xlink:href="#DejaVuSans-73" x="92.871094"/>
      <use xlink:href="#DejaVuSans-74" x="144.970703"/>
      <use xlink:href="#DejaVuSans-61" x="184.179688"/>
      <use xlink:href="#DejaVuSans-6e" x="245.458984"/>
      <use xlink:href="#DejaVuSans-63" x="308.837891"/>
      <use xlink:href="#DejaVuSans-65" x="363.818359"/>
      <use xlink:href="#DejaVuSans-73" x="425.341797"/>
     </g>
    </g>
   </g>
   <g id="line2d_39">
    <path d="M 64.2325 442.819671 
L 73.352136 441.467728 
L 82.471773 440.115786 
L 91.591409 438.763843 
L 100.711045 437.411901 
L 109.830682 436.059958 
L 118.950318 434.708016 
L 128.069955 433.356073 
L 137.189591 432.004131 
L 146.309227 430.652188 
L 155.428864 429.300246 
L 164.5485 427.948304 
L 173.668136 426.596361 
L 182.787773 425.244419 
L 191.907409 423.892476 
L 201.027045 422.540534 
L 210.146682 421.188591 
L 219.266318 419.836649 
L 228.385955 418.484706 
L 237.505591 417.132764 
L 246.625227 415.780821 
L 255.744864 414.428879 
L 264.8645 413.076936 
L 273.984136 411.724994 
L 283.103773 410.373052 
L 292.223409 409.021109 
L 301.343045 407.669167 
L 310.462682 406.317224 
L 319.582318 404.965282 
L 328.701955 403.613339 
L 337.821591 402.261397 
L 346.941227 400.909454 
L 356.060864 399.557512 
L 365.1805 398.205569 
L 374.300136 396.853627 
L 383.419773 395.501684 
L 392.539409 394.149742 
L 401.659045 392.7978 
L 410.778682 391.445857 
L 419.898318 390.093915 
L 429.017955 388.741972 
L 438.137591 387.39003 
L 447.257227 386.038087 
L 456.376864 384.686145 
L 465.4965 383.334202 
L 474.616136 381.98226 
L 483.735773 380.630317 
L 492.855409 379.278375 
L 501.975045 377.926432 
L 511.094682 376.57449 
L 520.214318 375.222548 
L 529.333955 373.870605 
L 538.453591 372.518663 
L 547.573227 371.16672 
L 556.692864 369.814778 
L 565.8125 368.462835 
L 574.932136 367.110893 
L 584.051773 365.75895 
L 593.171409 364.407008 
L 602.291045 363.055065 
L 611.410682 361.703123 
L 620.530318 360.35118 
L 629.649955 358.999238 
L 638.769591 357.647296 
L 647.889227 356.295353 
L 657.008864 354.943411 
L 666.1285 353.591468 
L 675.248136 352.239526 
L 684.367773 350.887583 
L 693.487409 349.535641 
L 702.607045 348.183698 
L 711.726682 346.831756 
L 720.846318 345.479813 
L 729.965955 344.127871 
L 739.085591 342.775929 
L 748.205227 341.423986 
L 757.324864 340.072044 
L 766.4445 338.720101 
L 775.564136 337.368159 
L 784.683773 336.016216 
L 793.803409 334.664274 
L 802.923045 333.312331 
L 812.042682 331.960389 
L 821.162318 330.608446 
L 830.281955 329.256504 
L 839.401591 327.904561 
L 848.521227 326.552619 
L 857.640864 325.200677 
L 866.7605 323.848734 
L 875.880136 322.496792 
L 884.999773 321.144849 
L 894.119409 319.792907 
L 903.239045 318.440964 
L 912.358682 317.089022 
L 921.478318 315.737079 
L 930.597955 314.385137 
L 939.717591 313.033194 
L 948.837227 311.681252 
L 957.956864 310.329309 
L 967.0765 308.977367 
" clip-path="url(#p2e7bf179bd)" style="fill: none; stroke-dasharray: 1.5,2.475; stroke-dashoffset: 0; stroke: #4ac1fa; stroke-width: 1.5"/>
   </g>
   <g id="line2d_40">
    <path d="M 64.2325 424.89925 
L 73.352136 425.538606 
L 82.471773 426.177962 
L 91.591409 426.817318 
L 100.711045 427.456673 
L 109.830682 428.096029 
L 118.950318 428.735385 
L 128.069955 429.37474 
L 137.189591 430.014096 
L 146.309227 430.653452 
L 155.428864 431.292808 
L 164.5485 431.932163 
L 173.668136 432.571519 
L 182.787773 433.210875 
L 191.907409 433.85023 
L 201.027045 434.489586 
L 210.146682 435.128942 
L 219.266318 435.768298 
L 228.385955 436.407653 
L 237.505591 437.047009 
L 246.625227 437.686365 
L 255.744864 438.32572 
L 264.8645 438.965076 
L 273.984136 439.604432 
L 283.103773 440.243788 
L 292.223409 440.883143 
L 301.343045 441.522499 
L 310.462682 442.161855 
L 319.582318 442.80121 
L 328.701955 443.440566 
L 337.821591 444.079922 
L 346.941227 444.719277 
L 356.060864 445.358633 
L 365.1805 445.997989 
L 374.300136 446.637345 
L 383.419773 447.2767 
L 392.539409 447.916056 
L 401.659045 448.555412 
L 410.778682 449.194767 
L 419.898318 449.834123 
L 429.017955 450.473479 
L 438.137591 451.112835 
L 447.257227 451.75219 
L 456.376864 452.391546 
L 465.4965 453.030902 
L 474.616136 453.670257 
L 483.735773 454.309613 
L 492.855409 454.948969 
L 501.975045 455.588325 
L 511.094682 456.22768 
L 520.214318 456.867036 
L 529.333955 457.506392 
L 538.453591 458.145747 
L 547.573227 458.785103 
L 556.692864 459.424459 
L 565.8125 460.063815 
L 574.932136 460.70317 
L 584.051773 461.342526 
L 593.171409 461.981882 
L 602.291045 462.621237 
L 611.410682 463.260593 
L 620.530318 463.899949 
L 629.649955 464.539305 
L 638.769591 465.17866 
L 647.889227 465.818016 
L 657.008864 466.457372 
L 666.1285 467.096727 
L 675.248136 467.736083 
L 684.367773 468.375439 
L 693.487409 469.014795 
L 702.607045 469.65415 
L 711.726682 470.293506 
L 720.846318 470.932862 
L 729.965955 471.572217 
L 739.085591 472.211573 
L 748.205227 472.850929 
L 757.324864 473.490285 
L 766.4445 474.12964 
L 775.564136 474.768996 
L 784.683773 475.408352 
L 793.803409 476.047707 
L 802.923045 476.687063 
L 812.042682 477.326419 
L 821.162318 477.965774 
L 830.281955 478.60513 
L 839.401591 479.244486 
L 848.521227 479.883842 
L 857.640864 480.523197 
L 866.7605 481.162553 
L 875.880136 481.801909 
L 884.999773 482.441264 
L 894.119409 483.08062 
L 903.239045 483.719976 
L 912.358682 484.359332 
L 921.478318 484.998687 
L 930.597955 485.638043 
L 939.717591 486.277399 
L 948.837227 486.916754 
L 957.956864 487.55611 
L 967.0765 488.195466 
" clip-path="url(#p2e7bf179bd)" style="fill: none; stroke-dasharray: 1.5,2.475; stroke-dashoffset: 0; stroke: #e9a942; stroke-width: 1.5"/>
   </g>
   <g id="line2d_41">
    <path d="M 64.2325 450.58209 
L 73.352136 451.073707 
L 82.471773 451.565324 
L 91.591409 452.056941 
L 100.711045 452.548557 
L 109.830682 453.040174 
L 118.950318 453.531791 
L 128.069955 454.023408 
L 137.189591 454.515025 
L 146.309227 455.006642 
L 155.428864 455.498259 
L 164.5485 455.989876 
L 173.668136 456.481492 
L 182.787773 456.973109 
L 191.907409 457.464726 
L 201.027045 457.956343 
L 210.146682 458.44796 
L 219.266318 458.939577 
L 228.385955 459.431194 
L 237.505591 459.922811 
L 246.625227 460.414428 
L 255.744864 460.906044 
L 264.8645 461.397661 
L 273.984136 461.889278 
L 283.103773 462.380895 
L 292.223409 462.872512 
L 301.343045 463.364129 
L 310.462682 463.855746 
L 319.582318 464.347363 
L 328.701955 464.838979 
L 337.821591 465.330596 
L 346.941227 465.822213 
L 356.060864 466.31383 
L 365.1805 466.805447 
L 374.300136 467.297064 
L 383.419773 467.788681 
L 392.539409 468.280298 
L 401.659045 468.771914 
L 410.778682 469.263531 
L 419.898318 469.755148 
L 429.017955 470.246765 
L 438.137591 470.738382 
L 447.257227 471.229999 
L 456.376864 471.721616 
L 465.4965 472.213233 
L 474.616136 472.704849 
L 483.735773 473.196466 
L 492.855409 473.688083 
L 501.975045 474.1797 
L 511.094682 474.671317 
L 520.214318 475.162934 
L 529.333955 475.654551 
L 538.453591 476.146168 
L 547.573227 476.637785 
L 556.692864 477.129401 
L 565.8125 477.621018 
L 574.932136 478.112635 
L 584.051773 478.604252 
L 593.171409 479.095869 
L 602.291045 479.587486 
L 611.410682 480.079103 
L 620.530318 480.57072 
L 629.649955 481.062336 
L 638.769591 481.553953 
L 647.889227 482.04557 
L 657.008864 482.537187 
L 666.1285 483.028804 
L 675.248136 483.520421 
L 684.367773 484.012038 
L 693.487409 484.503655 
L 702.607045 484.995271 
L 711.726682 485.486888 
L 720.846318 485.978505 
L 729.965955 486.470122 
L 739.085591 486.961739 
L 748.205227 487.453356 
L 757.324864 487.944973 
L 766.4445 488.43659 
L 775.564136 488.928206 
L 784.683773 489.419823 
L 793.803409 489.91144 
L 802.923045 490.403057 
L 812.042682 490.894674 
L 821.162318 491.386291 
L 830.281955 491.877908 
L 839.401591 492.369525 
L 848.521227 492.861141 
L 857.640864 493.352758 
L 866.7605 493.844375 
L 875.880136 494.335992 
L 884.999773 494.827609 
L 894.119409 495.319226 
L 903.239045 495.810843 
L 912.358682 496.30246 
L 921.478318 496.794077 
L 930.597955 497.285693 
L 939.717591 497.77731 
L 948.837227 498.268927 
L 957.956864 498.760544 
L 967.0765 499.252161 
" clip-path="url(#p2e7bf179bd)" style="fill: none; stroke-dasharray: 1.5,2.475; stroke-dashoffset: 0; stroke: #9a5689; stroke-width: 1.5"/>
   </g>
   <g id="line2d_42">
    <path d="M 64.2325 549.574154 
L 73.352136 549.433103 
L 82.471773 549.292052 
L 91.591409 549.151002 
L 100.711045 549.009951 
L 109.830682 548.8689 
L 118.950318 548.72785 
L 128.069955 548.586799 
L 137.189591 548.445748 
L 146.309227 548.304698 
L 155.428864 548.163647 
L 164.5485 548.022596 
L 173.668136 547.881546 
L 182.787773 547.740495 
L 191.907409 547.599444 
L 201.027045 547.458394 
L 210.146682 547.317343 
L 219.266318 547.176292 
L 228.385955 547.035242 
L 237.505591 546.894191 
L 246.625227 546.75314 
L 255.744864 546.61209 
L 264.8645 546.471039 
L 273.984136 546.329988 
L 283.103773 546.188938 
L 292.223409 546.047887 
L 301.343045 545.906836 
L 310.462682 545.765786 
L 319.582318 545.624735 
L 328.701955 545.483684 
L 337.821591 545.342634 
L 346.941227 545.201583 
L 356.060864 545.060532 
L 365.1805 544.919482 
L 374.300136 544.778431 
L 383.419773 544.63738 
L 392.539409 544.49633 
L 401.659045 544.355279 
L 410.778682 544.214228 
L 419.898318 544.073178 
L 429.017955 543.932127 
L 438.137591 543.791076 
L 447.257227 543.650026 
L 456.376864 543.508975 
L 465.4965 543.367924 
L 474.616136 543.226874 
L 483.735773 543.085823 
L 492.855409 542.944772 
L 501.975045 542.803722 
L 511.094682 542.662671 
L 520.214318 542.52162 
L 529.333955 542.38057 
L 538.453591 542.239519 
L 547.573227 542.098468 
L 556.692864 541.957418 
L 565.8125 541.816367 
L 574.932136 541.675316 
L 584.051773 541.534266 
L 593.171409 541.393215 
L 602.291045 541.252164 
L 611.410682 541.111114 
L 620.530318 540.970063 
L 629.649955 540.829012 
L 638.769591 540.687962 
L 647.889227 540.546911 
L 657.008864 540.40586 
L 666.1285 540.26481 
L 675.248136 540.123759 
L 684.367773 539.982708 
L 693.487409 539.841658 
L 702.607045 539.700607 
L 711.726682 539.559556 
L 720.846318 539.418506 
L 729.965955 539.277455 
L 739.085591 539.136404 
L 748.205227 538.995354 
L 757.324864 538.854303 
L 766.4445 538.713252 
L 775.564136 538.572202 
L 784.683773 538.431151 
L 793.803409 538.2901 
L 802.923045 538.14905 
L 812.042682 538.007999 
L 821.162318 537.866948 
L 830.281955 537.725898 
L 839.401591 537.584847 
L 848.521227 537.443796 
L 857.640864 537.302746 
L 866.7605 537.161695 
L 875.880136 537.020644 
L 884.999773 536.879594 
L 894.119409 536.738543 
L 903.239045 536.597492 
L 912.358682 536.456442 
L 921.478318 536.315391 
L 930.597955 536.17434 
L 939.717591 536.03329 
L 948.837227 535.892239 
L 957.956864 535.751188 
L 967.0765 535.610138 
" clip-path="url(#p2e7bf179bd)" style="fill: none; stroke-dasharray: 1.5,2.475; stroke-dashoffset: 0; stroke: #be503b; stroke-width: 1.5"/>
   </g>
   <g id="line2d_43">
    <path d="M 64.2325 440.92563 
L 73.352136 439.531221 
L 82.471773 438.136813 
L 91.591409 436.742405 
L 100.711045 435.347997 
L 109.830682 433.953588 
L 118.950318 432.55918 
L 128.069955 431.164772 
L 137.189591 429.770363 
L 146.309227 428.375955 
L 155.428864 426.981547 
L 164.5485 425.587138 
L 173.668136 424.19273 
L 182.787773 422.798322 
L 191.907409 421.403914 
L 201.027045 420.009505 
L 210.146682 418.615097 
L 219.266318 417.220689 
L 228.385955 415.82628 
L 237.505591 414.431872 
L 246.625227 413.037464 
L 255.744864 411.643056 
L 264.8645 410.248647 
L 273.984136 408.854239 
L 283.103773 407.459831 
L 292.223409 406.065422 
L 301.343045 404.671014 
L 310.462682 403.276606 
L 319.582318 401.882197 
L 328.701955 400.487789 
L 337.821591 399.093381 
L 346.941227 397.698973 
L 356.060864 396.304564 
L 365.1805 394.910156 
L 374.300136 393.515748 
L 383.419773 392.121339 
L 392.539409 390.726931 
L 401.659045 389.332523 
L 410.778682 387.938114 
L 419.898318 386.543706 
L 429.017955 385.149298 
L 438.137591 383.75489 
L 447.257227 382.360481 
L 456.376864 380.966073 
L 465.4965 379.571665 
L 474.616136 378.177256 
L 483.735773 376.782848 
L 492.855409 375.38844 
L 501.975045 373.994031 
L 511.094682 372.599623 
L 520.214318 371.205215 
L 529.333955 369.810807 
L 538.453591 368.416398 
L 547.573227 367.02199 
L 556.692864 365.627582 
L 565.8125 364.233173 
L 574.932136 362.838765 
L 584.051773 361.444357 
L 593.171409 360.049948 
L 602.291045 358.65554 
L 611.410682 357.261132 
L 620.530318 355.866724 
L 629.649955 354.472315 
L 638.769591 353.077907 
L 647.889227 351.683499 
L 657.008864 350.28909 
L 666.1285 348.894682 
L 675.248136 347.500274 
L 684.367773 346.105865 
L 693.487409 344.711457 
L 702.607045 343.317049 
L 711.726682 341.922641 
L 720.846318 340.528232 
L 729.965955 339.133824 
L 739.085591 337.739416 
L 748.205227 336.345007 
L 757.324864 334.950599 
L 766.4445 333.556191 
L 775.564136 332.161782 
L 784.683773 330.767374 
L 793.803409 329.372966 
L 802.923045 327.978558 
L 812.042682 326.584149 
L 821.162318 325.189741 
L 830.281955 323.795333 
L 839.401591 322.400924 
L 848.521227 321.006516 
L 857.640864 319.612108 
L 866.7605 318.217699 
L 875.880136 316.823291 
L 884.999773 315.428883 
L 894.119409 314.034475 
L 903.239045 312.640066 
L 912.358682 311.245658 
L 921.478318 309.85125 
L 930.597955 308.456841 
L 939.717591 307.062433 
L 948.837227 305.668025 
L 957.956864 304.273616 
L 967.0765 302.879208 
" clip-path="url(#p2e7bf179bd)" style="fill: none; stroke-dasharray: 1.5,2.475; stroke-dashoffset: 0; stroke: #e2321d; stroke-width: 1.5"/>
   </g>
   <g id="line2d_44">
    <path d="M 64.2325 339.519754 
L 73.352136 336.639029 
L 82.471773 333.758303 
L 91.591409 330.877578 
L 100.711045 327.996852 
L 109.830682 325.116126 
L 118.950318 322.235401 
L 128.069955 319.354675 
L 137.189591 316.47395 
L 146.309227 313.593224 
L 155.428864 310.712499 
L 164.5485 307.831773 
L 173.668136 304.951047 
L 182.787773 302.070322 
L 191.907409 299.189596 
L 201.027045 296.308871 
L 210.146682 293.428145 
L 219.266318 290.54742 
L 228.385955 287.666694 
L 237.505591 284.785968 
L 246.625227 281.905243 
L 255.744864 279.024517 
L 264.8645 276.143792 
L 273.984136 273.263066 
L 283.103773 270.38234 
L 292.223409 267.501615 
L 301.343045 264.620889 
L 310.462682 261.740164 
L 319.582318 258.859438 
L 328.701955 255.978713 
L 337.821591 253.097987 
L 346.941227 250.217261 
L 356.060864 247.336536 
L 365.1805 244.45581 
L 374.300136 241.575085 
L 383.419773 238.694359 
L 392.539409 235.813634 
L 401.659045 232.932908 
L 410.778682 230.052182 
L 419.898318 227.171457 
L 429.017955 224.290731 
L 438.137591 221.410006 
L 447.257227 218.52928 
L 456.376864 215.648554 
L 465.4965 212.767829 
L 474.616136 209.887103 
L 483.735773 207.006378 
L 492.855409 204.125652 
L 501.975045 201.244927 
L 511.094682 198.364201 
L 520.214318 195.483475 
L 529.333955 192.60275 
L 538.453591 189.722024 
L 547.573227 186.841299 
L 556.692864 183.960573 
L 565.8125 181.079848 
L 574.932136 178.199122 
L 584.051773 175.318396 
L 593.171409 172.437671 
L 602.291045 169.556945 
L 611.410682 166.67622 
L 620.530318 163.795494 
L 629.649955 160.914768 
L 638.769591 158.034043 
L 647.889227 155.153317 
L 657.008864 152.272592 
L 666.1285 149.391866 
L 675.248136 146.511141 
L 684.367773 143.630415 
L 693.487409 140.749689 
L 702.607045 137.868964 
L 711.726682 134.988238 
L 720.846318 132.107513 
L 729.965955 129.226787 
L 739.085591 126.346062 
L 748.205227 123.465336 
L 757.324864 120.58461 
L 766.4445 117.703885 
L 775.564136 114.823159 
L 784.683773 111.942434 
L 793.803409 109.061708 
L 802.923045 106.180982 
L 812.042682 103.300257 
L 821.162318 100.419531 
L 830.281955 97.538806 
L 839.401591 94.65808 
L 848.521227 91.777355 
L 857.640864 88.896629 
L 866.7605 86.015903 
L 875.880136 83.135178 
L 884.999773 80.254452 
L 894.119409 77.373727 
L 903.239045 74.493001 
L 912.358682 71.612276 
L 921.478318 68.73155 
L 930.597955 65.850824 
L 939.717591 62.970099 
L 948.837227 60.089373 
L 957.956864 57.208648 
L 967.0765 54.327922 
" clip-path="url(#p2e7bf179bd)" style="fill: none; stroke-dasharray: 1.5,2.475; stroke-dashoffset: 0; stroke: #48b585; stroke-width: 1.5"/>
   </g>
   <g id="line2d_45">
    <path d="M 64.2325 439.03351 
L 82.28938 439.700535 
L 100.34626 438.881553 
L 118.40314 440.538648 
L 136.46002 426.815905 
L 154.5169 423.301029 
L 172.57378 423.920048 
L 190.63066 420.806182 
L 208.68754 418.503357 
L 226.74442 413.770654 
L 244.8013 403.673597 
L 262.85818 406.267704 
L 280.91506 406.406668 
L 298.97194 403.923731 
L 317.02882 405.362817 
L 335.0857 409.429937 
L 353.14258 405.15022 
L 371.19946 406.802624 
L 389.25634 403.178381 
L 407.31322 399.88332 
L 425.3701 398.936924 
L 443.42698 396.061642 
L 461.48386 394.991081 
L 479.54074 382.339259 
L 497.59762 379.864264 
L 515.6545 384.090922 
L 533.71138 381.806505 
L 551.76826 373.632921 
L 569.82514 370.914288 
L 587.88202 366.70676 
L 605.9389 360.309021 
L 623.99578 361.329772 
L 642.05266 353.020833 
L 660.10954 348.885493 
L 678.16642 344.938567 
L 696.2233 343.358352 
L 714.28018 340.415212 
L 732.33706 335.645333 
L 750.39394 332.726015 
L 768.45082 339.168871 
L 786.5077 339.311083 
L 804.56458 330.465781 
L 822.62146 323.874937 
L 840.67834 328.103039 
L 858.73522 325.066776 
L 876.7921 318.778403 
L 894.84898 325.173254 
L 912.90586 319.553712 
L 930.96274 313.996251 
L 949.01962 310.233046 
L 967.0765 311.775722 
" clip-path="url(#p2e7bf179bd)" style="fill: none; stroke: #4ac1fa; stroke-width: 1.5; stroke-linecap: square"/>
   </g>
   <g id="line2d_46">
    <path d="M 64.2325 483.432914 
L 82.28938 466.95436 
L 100.34626 433.706333 
L 118.40314 430.324284 
L 136.46002 438.577638 
L 154.5169 469.365108 
L 172.57378 404.606638 
L 190.63066 416.37198 
L 208.68754 407.464235 
L 226.74442 422.57914 
L 244.8013 396.721809 
L 262.85818 367.344909 
L 280.91506 397.535738 
L 298.97194 408.331945 
L 317.02882 462.122037 
L 335.0857 451.699408 
L 353.14258 441.548931 
L 371.19946 463.150007 
L 389.25634 462.177623 
L 407.31322 458.559517 
L 425.3701 444.975376 
L 443.42698 441.520056 
L 461.48386 442.222815 
L 479.54074 457.448169 
L 497.59762 446.099357 
L 515.6545 465.183928 
L 533.71138 468.170382 
L 551.76826 471.537993 
L 569.82514 475.518126 
L 587.88202 471.333337 
L 605.9389 478.804885 
L 623.99578 484.121957 
L 642.05266 464.051646 
L 660.10954 461.310274 
L 678.16642 478.200304 
L 696.2233 477.404782 
L 714.28018 473.656736 
L 732.33706 466.185549 
L 750.39394 471.93828 
L 768.45082 490.860066 
L 786.5077 472.7255 
L 804.56458 476.014425 
L 822.62146 474.452979 
L 840.67834 482.476411 
L 858.73522 478.412539 
L 876.7921 485.38851 
L 894.84898 478.621165 
L 912.90586 497.960563 
L 930.96274 478.445024 
L 949.01962 475.487446 
L 967.0765 470.812134 
" clip-path="url(#p2e7bf179bd)" style="fill: none; stroke: #e9a942; stroke-width: 1.5; stroke-linecap: square"/>
   </g>
   <g id="line2d_47">
    <path d="M 64.2325 468.363848 
L 82.28938 461.992458 
L 100.34626 460.029643 
L 118.40314 462.019168 
L 136.46002 459.215714 
L 154.5169 456.49311 
L 172.57378 459.083247 
L 190.63066 455.49907 
L 208.68754 456.851528 
L 226.74442 453.041039 
L 244.8013 433.592996 
L 262.85818 434.284565 
L 280.91506 451.431227 
L 298.97194 449.426903 
L 317.02882 419.176879 
L 335.0857 439.737713 
L 353.14258 441.316483 
L 371.19946 451.637687 
L 389.25634 443.477818 
L 407.31322 444.5029 
L 425.3701 439.417916 
L 443.42698 445.973026 
L 461.48386 492.324778 
L 479.54074 515.895888 
L 497.59762 514.382087 
L 515.6545 509.950412 
L 533.71138 508.800444 
L 551.76826 506.517471 
L 569.82514 503.540763 
L 587.88202 500.654652 
L 605.9389 497.743996 
L 623.99578 503.649407 
L 642.05266 501.764194 
L 660.10954 499.616215 
L 678.16642 496.835138 
L 696.2233 497.347679 
L 714.28018 494.945595 
L 732.33706 495.169741 
L 750.39394 493.131128 
L 768.45082 491.437938 
L 786.5077 491.923769 
L 804.56458 491.004804 
L 822.62146 489.514826 
L 840.67834 485.460338 
L 858.73522 483.593173 
L 876.7921 482.604907 
L 894.84898 470.286238 
L 912.90586 476.676397 
L 930.96274 479.331503 
L 949.01962 480.153373 
L 967.0765 479.951606 
" clip-path="url(#p2e7bf179bd)" style="fill: none; stroke: #9a5689; stroke-width: 1.5; stroke-linecap: square"/>
   </g>
   <g id="line2d_48">
    <path d="M 64.2325 549.847396 
L 82.28938 549.616392 
L 100.34626 549.286489 
L 118.40314 549.360482 
L 136.46002 547.822498 
L 154.5169 547.028782 
L 172.57378 547.614233 
L 190.63066 547.12371 
L 208.68754 546.967782 
L 226.74442 546.884404 
L 244.8013 545.822506 
L 262.85818 545.922848 
L 280.91506 545.887476 
L 298.97194 545.027345 
L 317.02882 545.183995 
L 335.0857 544.92592 
L 353.14258 545.624708 
L 371.19946 545.584282 
L 389.25634 544.998109 
L 407.31322 545.209261 
L 425.3701 544.796702 
L 443.42698 544.69672 
L 461.48386 546.804274 
L 479.54074 544.76927 
L 497.59762 543.959672 
L 515.6545 543.321522 
L 533.71138 542.322789 
L 551.76826 541.536652 
L 569.82514 541.248258 
L 587.88202 540.905361 
L 605.9389 540.67941 
L 623.99578 540.620215 
L 642.05266 540.607221 
L 660.10954 539.811699 
L 678.16642 539.052272 
L 696.2233 539.366655 
L 714.28018 538.543702 
L 732.33706 538.682665 
L 750.39394 538.630329 
L 768.45082 538.535761 
L 786.5077 538.008782 
L 804.56458 538.016723 
L 822.62146 537.607412 
L 840.67834 537.896529 
L 858.73522 537.219758 
L 876.7921 536.773992 
L 894.84898 536.229327 
L 912.90586 536.485236 
L 930.96274 535.968364 
L 949.01962 536.574389 
L 967.0765 536.789151 
" clip-path="url(#p2e7bf179bd)" style="fill: none; stroke: #be503b; stroke-width: 1.5; stroke-linecap: square"/>
   </g>
   <g id="line2d_49">
    <path d="M 64.2325 432.739002 
L 82.28938 429.557999 
L 100.34626 426.757432 
L 118.40314 427.09672 
L 136.46002 424.168739 
L 154.5169 421.713235 
L 172.57378 422.14348 
L 190.63066 420.674076 
L 208.68754 419.788679 
L 226.74442 417.659108 
L 244.8013 408.334832 
L 262.85818 407.127473 
L 280.91506 408.890326 
L 298.97194 405.217356 
L 317.02882 403.881862 
L 335.0857 400.957852 
L 353.14258 398.347141 
L 371.19946 400.138147 
L 389.25634 396.9936 
L 407.31322 394.886046 
L 425.3701 392.996502 
L 443.42698 389.022144 
L 461.48386 397.745447 
L 479.54074 387.87398 
L 497.59762 381.058268 
L 515.6545 379.711584 
L 533.71138 380.345764 
L 551.76826 373.441259 
L 569.82514 370.500285 
L 587.88202 364.394189 
L 605.9389 359.435175 
L 623.99578 360.304329 
L 642.05266 358.576488 
L 660.10954 339.89076 
L 678.16642 347.393349 
L 696.2233 343.157306 
L 714.28018 341.478193 
L 732.33706 340.107327 
L 750.39394 337.044714 
L 768.45082 314.613466 
L 786.5077 316.553181 
L 804.56458 312.828957 
L 822.62146 310.317146 
L 840.67834 310.97623 
L 858.73522 312.028022 
L 876.7921 315.231403 
L 894.84898 316.887416 
L 912.90586 322.869707 
L 930.96274 306.278539 
L 949.01962 304.728644 
L 967.0765 312.160488 
" clip-path="url(#p2e7bf179bd)" style="fill: none; stroke: #e2321d; stroke-width: 1.5; stroke-linecap: square"/>
   </g>
   <g id="line2d_50">
    <path d="M 64.2325 334.171958 
L 82.28938 328.044566 
L 100.34626 325.278289 
L 118.40314 344.806461 
L 136.46002 343.843822 
L 154.5169 329.310037 
L 172.57378 309.734942 
L 190.63066 317.197467 
L 208.68754 310.431926 
L 226.74442 279.147796 
L 244.8013 276.252662 
L 262.85818 261.690362 
L 280.91506 266.59343 
L 298.97194 231.190203 
L 317.02882 241.379662 
L 335.0857 239.67781 
L 353.14258 234.373011 
L 371.19946 227.804906 
L 389.25634 229.399919 
L 407.31322 233.825097 
L 425.3701 231.151943 
L 443.42698 216.864683 
L 461.48386 216.092623 
L 479.54074 208.008913 
L 497.59762 151.531951 
L 515.6545 183.72169 
L 533.71138 196.734456 
L 551.76826 178.288034 
L 569.82514 196.254039 
L 587.88202 212.497617 
L 605.9389 185.001238 
L 623.99578 188.451144 
L 642.05266 167.536223 
L 660.10954 146.044875 
L 678.16642 156.573622 
L 696.2233 142.812618 
L 714.28018 132.788111 
L 732.33706 127.472483 
L 750.39394 114.635859 
L 768.45082 142.975043 
L 786.5077 115.894111 
L 804.56458 102.379632 
L 822.62146 91.047423 
L 840.67834 105.040153 
L 858.73522 79.799676 
L 876.7921 78.422673 
L 894.84898 63.991757 
L 912.90586 94.261633 
L 930.96274 49.175352 
L 949.01962 53.245361 
L 967.0765 50.266487 
" clip-path="url(#p2e7bf179bd)" style="fill: none; stroke: #48b585; stroke-width: 6; stroke-linecap: square"/>
   </g>
   <g id="patch_3">
    <path d="M 64.2325 578.54175 
L 64.2325 24.14175 
" style="fill: none; stroke: #ffffff; stroke-linejoin: miter; stroke-linecap: square"/>
   </g>
   <g id="patch_4">
    <path d="M 967.0765 578.54175 
L 967.0765 24.14175 
" style="fill: none; stroke: #ffffff; stroke-linejoin: miter; stroke-linecap: square"/>
   </g>
   <g id="patch_5">
    <path d="M 64.2325 578.54175 
L 967.0765 578.54175 
" style="fill: none; stroke: #ffffff; stroke-linejoin: miter; stroke-linecap: square"/>
   </g>
   <g id="patch_6">
    <path d="M 64.2325 24.14175 
L 967.0765 24.14175 
" style="fill: none; stroke: #ffffff; stroke-linejoin: miter; stroke-linecap: square"/>
   </g>
   <g id="text_22">
    <!-- Enterprise Linux Instances by Distribution (System Age &gt; 1 Week) -->
    <g transform="translate(64.2325 18.14175) scale(0.144 -0.144)">
     <defs>
      <path id="DejaVuSans-45" d="M 628 4666 
L 3578 4666 
L 3578 4134 
L 1259 4134 
L 1259 2753 
L 3481 2753 
L 3481 2222 
L 1259 2222 
L 1259 531 
L 3634 531 
L 3634 0 
L 628 0 
L 628 4666 
z
" transform="scale(0.015625)"/>
      <path id="DejaVuSans-72" d="M 2631 2963 
Q 2534 3019 2420 3045 
Q 2306 3072 2169 3072 
Q 1681 3072 1420 2755 
Q 1159 2438 1159 1844 
L 1159 0 
L 581 0 
L 581 3500 
L 1159 3500 
L 1159 2956 
Q 1341 3275 1631 3429 
Q 1922 3584 2338 3584 
Q 2397 3584 2469 3576 
Q 2541 3569 2628 3553 
L 2631 2963 
z
" transform="scale(0.015625)"/>
      <path id="DejaVuSans-70" d="M 1159 525 
L 1159 -1331 
L 581 -1331 
L 581 3500 
L 1159 3500 
L 1159 2969 
Q 1341 3281 1617 3432 
Q 1894 3584 2278 3584 
Q 2916 3584 3314 3078 
Q 3713 2572 3713 1747 
Q 3713 922 3314 415 
Q 2916 -91 2278 -91 
Q 1894 -91 1617 61 
Q 1341 213 1159 525 
z
M 3116 1747 
Q 3116 2381 2855 2742 
Q 2594 3103 2138 3103 
Q 1681 3103 1420 2742 
Q 1159 2381 1159 1747 
Q 1159 1113 1420 752 
Q 1681 391 2138 391 
Q 2594 391 2855 752 
Q 3116 1113 3116 1747 
z
" transform="scale(0.015625)"/>
      <path id="DejaVuSans-69" d="M 603 3500 
L 1178 3500 
L 1178 0 
L 603 0 
L 603 3500 
z
M 603 4863 
L 1178 4863 
L 1178 4134 
L 603 4134 
L 603 4863 
z
" transform="scale(0.015625)"/>
      <path id="DejaVuSans-20" transform="scale(0.015625)"/>
      <path id="DejaVuSans-4c" d="M 628 4666 
L 1259 4666 
L 1259 531 
L 3531 531 
L 3531 0 
L 628 0 
L 628 4666 
z
" transform="scale(0.015625)"/>
      <path id="DejaVuSans-75" d="M 544 1381 
L 544 3500 
L 1119 3500 
L 1119 1403 
Q 1119 906 1312 657 
Q 1506 409 1894 409 
Q 2359 409 2629 706 
Q 2900 1003 2900 1516 
L 2900 3500 
L 3475 3500 
L 3475 0 
L 2900 0 
L 2900 538 
Q 2691 219 2414 64 
Q 2138 -91 1772 -91 
Q 1169 -91 856 284 
Q 544 659 544 1381 
z
M 1991 3584 
L 1991 3584 
z
" transform="scale(0.015625)"/>
      <path id="DejaVuSans-78" d="M 3513 3500 
L 2247 1797 
L 3578 0 
L 2900 0 
L 1881 1375 
L 863 0 
L 184 0 
L 1544 1831 
L 300 3500 
L 978 3500 
L 1906 2253 
L 2834 3500 
L 3513 3500 
z
" transform="scale(0.015625)"/>
      <path id="DejaVuSans-62" d="M 3116 1747 
Q 3116 2381 2855 2742 
Q 2594 3103 2138 3103 
Q 1681 3103 1420 2742 
Q 1159 2381 1159 1747 
Q 1159 1113 1420 752 
Q 1681 391 2138 391 
Q 2594 391 2855 752 
Q 3116 1113 3116 1747 
z
M 1159 2969 
Q 1341 3281 1617 3432 
Q 1894 3584 2278 3584 
Q 2916 3584 3314 3078 
Q 3713 2572 3713 1747 
Q 3713 922 3314 415 
Q 2916 -91 2278 -91 
Q 1894 -91 1617 61 
Q 1341 213 1159 525 
L 1159 0 
L 581 0 
L 581 4863 
L 1159 4863 
L 1159 2969 
z
" transform="scale(0.015625)"/>
      <path id="DejaVuSans-79" d="M 2059 -325 
Q 1816 -950 1584 -1140 
Q 1353 -1331 966 -1331 
L 506 -1331 
L 506 -850 
L 844 -850 
Q 1081 -850 1212 -737 
Q 1344 -625 1503 -206 
L 1606 56 
L 191 3500 
L 800 3500 
L 1894 763 
L 2988 3500 
L 3597 3500 
L 2059 -325 
z
" transform="scale(0.015625)"/>
      <path id="DejaVuSans-6f" d="M 1959 3097 
Q 1497 3097 1228 2736 
Q 959 2375 959 1747 
Q 959 1119 1226 758 
Q 1494 397 1959 397 
Q 2419 397 2687 759 
Q 2956 1122 2956 1747 
Q 2956 2369 2687 2733 
Q 2419 3097 1959 3097 
z
M 1959 3584 
Q 2709 3584 3137 3096 
Q 3566 2609 3566 1747 
Q 3566 888 3137 398 
Q 2709 -91 1959 -91 
Q 1206 -91 779 398 
Q 353 888 353 1747 
Q 353 2609 779 3096 
Q 1206 3584 1959 3584 
z
" transform="scale(0.015625)"/>
      <path id="DejaVuSans-28" d="M 1984 4856 
Q 1566 4138 1362 3434 
Q 1159 2731 1159 2009 
Q 1159 1288 1364 580 
Q 1569 -128 1984 -844 
L 1484 -844 
Q 1016 -109 783 600 
Q 550 1309 550 2009 
Q 550 2706 781 3412 
Q 1013 4119 1484 4856 
L 1984 4856 
z
" transform="scale(0.015625)"/>
      <path id="DejaVuSans-53" d="M 3425 4513 
L 3425 3897 
Q 3066 4069 2747 4153 
Q 2428 4238 2131 4238 
Q 1616 4238 1336 4038 
Q 1056 3838 1056 3469 
Q 1056 3159 1242 3001 
Q 1428 2844 1947 2747 
L 2328 2669 
Q 3034 2534 3370 2195 
Q 3706 1856 3706 1288 
Q 3706 609 3251 259 
Q 2797 -91 1919 -91 
Q 1588 -91 1214 -16 
Q 841 59 441 206 
L 441 856 
Q 825 641 1194 531 
Q 1563 422 1919 422 
Q 2459 422 2753 634 
Q 3047 847 3047 1241 
Q 3047 1584 2836 1778 
Q 2625 1972 2144 2069 
L 1759 2144 
Q 1053 2284 737 2584 
Q 422 2884 422 3419 
Q 422 4038 858 4394 
Q 1294 4750 2059 4750 
Q 2388 4750 2728 4690 
Q 3069 4631 3425 4513 
z
" transform="scale(0.015625)"/>
      <path id="DejaVuSans-6d" d="M 3328 2828 
Q 3544 3216 3844 3400 
Q 4144 3584 4550 3584 
Q 5097 3584 5394 3201 
Q 5691 2819 5691 2113 
L 5691 0 
L 5113 0 
L 5113 2094 
Q 5113 2597 4934 2840 
Q 4756 3084 4391 3084 
Q 3944 3084 3684 2787 
Q 3425 2491 3425 1978 
L 3425 0 
L 2847 0 
L 2847 2094 
Q 2847 2600 2669 2842 
Q 2491 3084 2119 3084 
Q 1678 3084 1418 2786 
Q 1159 2488 1159 1978 
L 1159 0 
L 581 0 
L 581 3500 
L 1159 3500 
L 1159 2956 
Q 1356 3278 1631 3431 
Q 1906 3584 2284 3584 
Q 2666 3584 2933 3390 
Q 3200 3197 3328 2828 
z
" transform="scale(0.015625)"/>
      <path id="DejaVuSans-41" d="M 2188 4044 
L 1331 1722 
L 3047 1722 
L 2188 4044 
z
M 1831 4666 
L 2547 4666 
L 4325 0 
L 3669 0 
L 3244 1197 
L 1141 1197 
L 716 0 
L 50 0 
L 1831 4666 
z
" transform="scale(0.015625)"/>
      <path id="DejaVuSans-67" d="M 2906 1791 
Q 2906 2416 2648 2759 
Q 2391 3103 1925 3103 
Q 1463 3103 1205 2759 
Q 947 2416 947 1791 
Q 947 1169 1205 825 
Q 1463 481 1925 481 
Q 2391 481 2648 825 
Q 2906 1169 2906 1791 
z
M 3481 434 
Q 3481 -459 3084 -895 
Q 2688 -1331 1869 -1331 
Q 1566 -1331 1297 -1286 
Q 1028 -1241 775 -1147 
L 775 -588 
Q 1028 -725 1275 -790 
Q 1522 -856 1778 -856 
Q 2344 -856 2625 -561 
Q 2906 -266 2906 331 
L 2906 616 
Q 2728 306 2450 153 
Q 2172 0 1784 0 
Q 1141 0 747 490 
Q 353 981 353 1791 
Q 353 2603 747 3093 
Q 1141 3584 1784 3584 
Q 2172 3584 2450 3431 
Q 2728 3278 2906 2969 
L 2906 3500 
L 3481 3500 
L 3481 434 
z
" transform="scale(0.015625)"/>
      <path id="DejaVuSans-3e" d="M 678 3150 
L 678 3719 
L 4684 2266 
L 4684 1747 
L 678 294 
L 678 863 
L 3897 2003 
L 678 3150 
z
" transform="scale(0.015625)"/>
      <path id="DejaVuSans-57" d="M 213 4666 
L 850 4666 
L 1831 722 
L 2809 4666 
L 3519 4666 
L 4500 722 
L 5478 4666 
L 6119 4666 
L 4947 0 
L 4153 0 
L 3169 4050 
L 2175 0 
L 1381 0 
L 213 4666 
z
" transform="scale(0.015625)"/>
      <path id="DejaVuSans-29" d="M 513 4856 
L 1013 4856 
Q 1481 4119 1714 3412 
Q 1947 2706 1947 2009 
Q 1947 1309 1714 600 
Q 1481 -109 1013 -844 
L 513 -844 
Q 928 -128 1133 580 
Q 1338 1288 1338 2009 
Q 1338 2731 1133 3434 
Q 928 4138 513 4856 
z
" transform="scale(0.015625)"/>
     </defs>
     <use xlink:href="#DejaVuSans-45"/>
     <use xlink:href="#DejaVuSans-6e" x="63.183594"/>
     <use xlink:href="#DejaVuSans-74" x="126.5625"/>
     <use xlink:href="#DejaVuSans-65" x="165.771484"/>
     <use xlink:href="#DejaVuSans-72" x="227.294922"/>
     <use xlink:href="#DejaVuSans-70" x="268.408203"/>
     <use xlink:href="#DejaVuSans-72" x="331.884766"/>
     <use xlink:href="#DejaVuSans-69" x="372.998047"/>
     <use xlink:href="#DejaVuSans-73" x="400.78125"/>
     <use xlink:href="#DejaVuSans-65" x="452.880859"/>
     <use xlink:href="#DejaVuSans-20" x="514.404297"/>
     <use xlink:href="#DejaVuSans-4c" x="546.191406"/>
     <use xlink:href="#DejaVuSans-69" x="601.904297"/>
     <use xlink:href="#DejaVuSans-6e" x="629.6875"/>
     <use xlink:href="#DejaVuSans-75" x="693.066406"/>
     <use xlink:href="#DejaVuSans-78" x="756.445312"/>
     <use xlink:href="#DejaVuSans-20" x="815.625"/>
     <use xlink:href="#DejaVuSans-49" x="847.412109"/>
     <use xlink:href="#DejaVuSans-6e" x="876.904297"/>
     <use xlink:href="#DejaVuSans-73" x="940.283203"/>
     <use xlink:href="#DejaVuSans-74" x="992.382812"/>
     <use xlink:href="#DejaVuSans-61" x="1031.591797"/>
     <use xlink:href="#DejaVuSans-6e" x="1092.871094"/>
     <use xlink:href="#DejaVuSans-63" x="1156.25"/>
     <use xlink:href="#DejaVuSans-65" x="1211.230469"/>
     <use xlink:href="#DejaVuSans-73" x="1272.753906"/>
     <use xlink:href="#DejaVuSans-20" x="1324.853516"/>
     <use xlink:href="#DejaVuSans-62" x="1356.640625"/>
     <use xlink:href="#DejaVuSans-79" x="1420.117188"/>
     <use xlink:href="#DejaVuSans-20" x="1479.296875"/>
     <use xlink:href="#DejaVuSans-44" x="1511.083984"/>
     <use xlink:href="#DejaVuSans-69" x="1588.085938"/>
     <use xlink:href="#DejaVuSans-73" x="1615.869141"/>
     <use xlink:href="#DejaVuSans-74" x="1667.96875"/>
     <use xlink:href="#DejaVuSans-72" x="1707.177734"/>
     <use xlink:href="#DejaVuSans-69" x="1748.291016"/>
     <use xlink:href="#DejaVuSans-62" x="1776.074219"/>
     <use xlink:href="#DejaVuSans-75" x="1839.550781"/>
     <use xlink:href="#DejaVuSans-74" x="1902.929688"/>
     <use xlink:href="#DejaVuSans-69" x="1942.138672"/>
     <use xlink:href="#DejaVuSans-6f" x="1969.921875"/>
     <use xlink:href="#DejaVuSans-6e" x="2031.103516"/>
     <use xlink:href="#DejaVuSans-20" x="2094.482422"/>
     <use xlink:href="#DejaVuSans-28" x="2126.269531"/>
     <use xlink:href="#DejaVuSans-53" x="2165.283203"/>
     <use xlink:href="#DejaVuSans-79" x="2228.759766"/>
     <use xlink:href="#DejaVuSans-73" x="2287.939453"/>
     <use xlink:href="#DejaVuSans-74" x="2340.039062"/>
     <use xlink:href="#DejaVuSans-65" x="2379.248047"/>
     <use xlink:href="#DejaVuSans-6d" x="2440.771484"/>
     <use xlink:href="#DejaVuSans-20" x="2538.183594"/>
     <use xlink:href="#DejaVuSans-41" x="2569.970703"/>
     <use xlink:href="#DejaVuSans-67" x="2638.378906"/>
     <use xlink:href="#DejaVuSans-65" x="2701.855469"/>
     <use xlink:href="#DejaVuSans-20" x="2763.378906"/>
     <use xlink:href="#DejaVuSans-3e" x="2795.166016"/>
     <use xlink:href="#DejaVuSans-20" x="2878.955078"/>
     <use xlink:href="#DejaVuSans-31" x="2910.742188"/>
     <use xlink:href="#DejaVuSans-20" x="2974.365234"/>
     <use xlink:href="#DejaVuSans-57" x="3006.152344"/>
     <use xlink:href="#DejaVuSans-65" x="3099.154297"/>
     <use xlink:href="#DejaVuSans-65" x="3160.677734"/>
     <use xlink:href="#DejaVuSans-6b" x="3222.201172"/>
     <use xlink:href="#DejaVuSans-29" x="3280.111328"/>
    </g>
   </g>
   <g id="text_23">
    <!-- 2025-01-02 11:55 UTC -->
    <g transform="translate(804.1945 18.14175) scale(0.144 -0.144)">
     <defs>
      <path id="DejaVuSans-3a" d="M 750 794 
L 1409 794 
L 1409 0 
L 750 0 
L 750 794 
z
M 750 3309 
L 1409 3309 
L 1409 2516 
L 750 2516 
L 750 3309 
z
" transform="scale(0.015625)"/>
      <path id="DejaVuSans-55" d="M 556 4666 
L 1191 4666 
L 1191 1831 
Q 1191 1081 1462 751 
Q 1734 422 2344 422 
Q 2950 422 3222 751 
Q 3494 1081 3494 1831 
L 3494 4666 
L 4128 4666 
L 4128 1753 
Q 4128 841 3676 375 
Q 3225 -91 2344 -91 
Q 1459 -91 1007 375 
Q 556 841 556 1753 
L 556 4666 
z
" transform="scale(0.015625)"/>
      <path id="DejaVuSans-54" d="M -19 4666 
L 3928 4666 
L 3928 4134 
L 2272 4134 
L 2272 0 
L 1638 0 
L 1638 4134 
L -19 4134 
L -19 4666 
z
" transform="scale(0.015625)"/>
      <path id="DejaVuSans-43" d="M 4122 4306 
L 4122 3641 
Q 3803 3938 3442 4084 
Q 3081 4231 2675 4231 
Q 1875 4231 1450 3742 
Q 1025 3253 1025 2328 
Q 1025 1406 1450 917 
Q 1875 428 2675 428 
Q 3081 428 3442 575 
Q 3803 722 4122 1019 
L 4122 359 
Q 3791 134 3420 21 
Q 3050 -91 2638 -91 
Q 1578 -91 968 557 
Q 359 1206 359 2328 
Q 359 3453 968 4101 
Q 1578 4750 2638 4750 
Q 3056 4750 3426 4639 
Q 3797 4528 4122 4306 
z
" transform="scale(0.015625)"/>
     </defs>
     <use xlink:href="#DejaVuSans-32"/>
     <use xlink:href="#DejaVuSans-30" x="63.623047"/>
     <use xlink:href="#DejaVuSans-32" x="127.246094"/>
     <use xlink:href="#DejaVuSans-35" x="190.869141"/>
     <use xlink:href="#DejaVuSans-2d" x="254.492188"/>
     <use xlink:href="#DejaVuSans-30" x="290.576172"/>
     <use xlink:href="#DejaVuSans-31" x="354.199219"/>
     <use xlink:href="#DejaVuSans-2d" x="417.822266"/>
     <use xlink:href="#DejaVuSans-30" x="453.90625"/>
     <use xlink:href="#DejaVuSans-32" x="517.529297"/>
     <use xlink:href="#DejaVuSans-20" x="581.152344"/>
     <use xlink:href="#DejaVuSans-31" x="612.939453"/>
     <use xlink:href="#DejaVuSans-31" x="676.5625"/>
     <use xlink:href="#DejaVuSans-3a" x="740.185547"/>
     <use xlink:href="#DejaVuSans-35" x="773.876953"/>
     <use xlink:href="#DejaVuSans-35" x="837.5"/>
     <use xlink:href="#DejaVuSans-20" x="901.123047"/>
     <use xlink:href="#DejaVuSans-55" x="932.910156"/>
     <use xlink:href="#DejaVuSans-54" x="1006.103516"/>
     <use xlink:href="#DejaVuSans-43" x="1061.3125"/>
    </g>
   </g>
   <g id="legend_1">
    <g id="patch_7">
     <path d="M 71.2325 134.888625 
L 180.20125 134.888625 
Q 182.20125 134.888625 182.20125 132.888625 
L 182.20125 31.14175 
Q 182.20125 29.14175 180.20125 29.14175 
L 71.2325 29.14175 
Q 69.2325 29.14175 69.2325 31.14175 
L 69.2325 132.888625 
Q 69.2325 134.888625 71.2325 134.888625 
z
" style="fill: #e5e5e5; opacity: 0.8; stroke: #cccccc; stroke-width: 0.5; stroke-linejoin: miter"/>
    </g>
    <g id="text_24">
     <!-- Distribution -->
     <g transform="translate(96.548125 40.740188) scale(0.1 -0.1)">
      <use xlink:href="#DejaVuSans-44"/>
      <use xlink:href="#DejaVuSans-69" x="77.001953"/>
      <use xlink:href="#DejaVuSans-73" x="104.785156"/>
      <use xlink:href="#DejaVuSans-74" x="156.884766"/>
      <use xlink:href="#DejaVuSans-72" x="196.09375"/>
      <use xlink:href="#DejaVuSans-69" x="237.207031"/>
      <use xlink:href="#DejaVuSans-62" x="264.990234"/>
      <use xlink:href="#DejaVuSans-75" x="328.466797"/>
      <use xlink:href="#DejaVuSans-74" x="391.845703"/>
      <use xlink:href="#DejaVuSans-69" x="431.054688"/>
      <use xlink:href="#DejaVuSans-6f" x="458.837891"/>
      <use xlink:href="#DejaVuSans-6e" x="520.019531"/>
     </g>
    </g>
    <g id="line2d_51">
     <path d="M 73.2325 51.918313 
L 83.2325 51.918313 
L 93.2325 51.918313 
" style="fill: none; stroke: #4ac1fa; stroke-width: 1.5; stroke-linecap: square"/>
    </g>
    <g id="text_25">
     <!-- AlmaLinux -->
     <g transform="translate(101.2325 55.418313) scale(0.1 -0.1)">
      <defs>
       <path id="DejaVuSans-6c" d="M 603 4863 
L 1178 4863 
L 1178 0 
L 603 0 
L 603 4863 
z
" transform="scale(0.015625)"/>
      </defs>
      <use xlink:href="#DejaVuSans-41"/>
      <use xlink:href="#DejaVuSans-6c" x="68.408203"/>
      <use xlink:href="#DejaVuSans-6d" x="96.191406"/>
      <use xlink:href="#DejaVuSans-61" x="193.603516"/>
      <use xlink:href="#DejaVuSans-4c" x="254.882812"/>
      <use xlink:href="#DejaVuSans-69" x="310.595703"/>
      <use xlink:href="#DejaVuSans-6e" x="338.378906"/>
      <use xlink:href="#DejaVuSans-75" x="401.757812"/>
      <use xlink:href="#DejaVuSans-78" x="465.136719"/>
     </g>
    </g>
    <g id="line2d_52">
     <path d="M 73.2325 66.596438 
L 83.2325 66.596438 
L 93.2325 66.596438 
" style="fill: none; stroke: #e9a942; stroke-width: 1.5; stroke-linecap: square"/>
    </g>
    <g id="text_26">
     <!-- CentOS Legacy -->
     <g transform="translate(101.2325 70.096438) scale(0.1 -0.1)">
      <defs>
       <path id="DejaVuSans-4f" d="M 2522 4238 
Q 1834 4238 1429 3725 
Q 1025 3213 1025 2328 
Q 1025 1447 1429 934 
Q 1834 422 2522 422 
Q 3209 422 3611 934 
Q 4013 1447 4013 2328 
Q 4013 3213 3611 3725 
Q 3209 4238 2522 4238 
z
M 2522 4750 
Q 3503 4750 4090 4092 
Q 4678 3434 4678 2328 
Q 4678 1225 4090 567 
Q 3503 -91 2522 -91 
Q 1538 -91 948 565 
Q 359 1222 359 2328 
Q 359 3434 948 4092 
Q 1538 4750 2522 4750 
z
" transform="scale(0.015625)"/>
      </defs>
      <use xlink:href="#DejaVuSans-43"/>
      <use xlink:href="#DejaVuSans-65" x="69.824219"/>
      <use xlink:href="#DejaVuSans-6e" x="131.347656"/>
      <use xlink:href="#DejaVuSans-74" x="194.726562"/>
      <use xlink:href="#DejaVuSans-4f" x="233.935547"/>
      <use xlink:href="#DejaVuSans-53" x="312.646484"/>
      <use xlink:href="#DejaVuSans-20" x="376.123047"/>
      <use xlink:href="#DejaVuSans-4c" x="407.910156"/>
      <use xlink:href="#DejaVuSans-65" x="461.873047"/>
      <use xlink:href="#DejaVuSans-67" x="523.396484"/>
      <use xlink:href="#DejaVuSans-61" x="586.873047"/>
      <use xlink:href="#DejaVuSans-63" x="648.152344"/>
      <use xlink:href="#DejaVuSans-79" x="703.132812"/>
     </g>
    </g>
    <g id="line2d_53">
     <path d="M 73.2325 81.274563 
L 83.2325 81.274563 
L 93.2325 81.274563 
" style="fill: none; stroke: #9a5689; stroke-width: 1.5; stroke-linecap: square"/>
    </g>
    <g id="text_27">
     <!-- CentOS Stream -->
     <g transform="translate(101.2325 84.774563) scale(0.1 -0.1)">
      <use xlink:href="#DejaVuSans-43"/>
      <use xlink:href="#DejaVuSans-65" x="69.824219"/>
      <use xlink:href="#DejaVuSans-6e" x="131.347656"/>
      <use xlink:href="#DejaVuSans-74" x="194.726562"/>
      <use xlink:href="#DejaVuSans-4f" x="233.935547"/>
      <use xlink:href="#DejaVuSans-53" x="312.646484"/>
      <use xlink:href="#DejaVuSans-20" x="376.123047"/>
      <use xlink:href="#DejaVuSans-53" x="407.910156"/>
      <use xlink:href="#DejaVuSans-74" x="471.386719"/>
      <use xlink:href="#DejaVuSans-72" x="510.595703"/>
      <use xlink:href="#DejaVuSans-65" x="549.458984"/>
      <use xlink:href="#DejaVuSans-61" x="610.982422"/>
      <use xlink:href="#DejaVuSans-6d" x="672.261719"/>
     </g>
    </g>
    <g id="line2d_54">
     <path d="M 73.2325 95.952688 
L 83.2325 95.952688 
L 93.2325 95.952688 
" style="fill: none; stroke: #be503b; stroke-width: 1.5; stroke-linecap: square"/>
    </g>
    <g id="text_28">
     <!-- Oracle -->
     <g transform="translate(101.2325 99.452688) scale(0.1 -0.1)">
      <use xlink:href="#DejaVuSans-4f"/>
      <use xlink:href="#DejaVuSans-72" x="78.710938"/>
      <use xlink:href="#DejaVuSans-61" x="119.824219"/>
      <use xlink:href="#DejaVuSans-63" x="181.103516"/>
      <use xlink:href="#DejaVuSans-6c" x="236.083984"/>
      <use xlink:href="#DejaVuSans-65" x="263.867188"/>
     </g>
    </g>
    <g id="line2d_55">
     <path d="M 73.2325 110.630813 
L 83.2325 110.630813 
L 93.2325 110.630813 
" style="fill: none; stroke: #e2321d; stroke-width: 1.5; stroke-linecap: square"/>
    </g>
    <g id="text_29">
     <!-- RHEL -->
     <g transform="translate(101.2325 114.130813) scale(0.1 -0.1)">
      <defs>
       <path id="DejaVuSans-52" d="M 2841 2188 
Q 3044 2119 3236 1894 
Q 3428 1669 3622 1275 
L 4263 0 
L 3584 0 
L 2988 1197 
Q 2756 1666 2539 1819 
Q 2322 1972 1947 1972 
L 1259 1972 
L 1259 0 
L 628 0 
L 628 4666 
L 2053 4666 
Q 2853 4666 3247 4331 
Q 3641 3997 3641 3322 
Q 3641 2881 3436 2590 
Q 3231 2300 2841 2188 
z
M 1259 4147 
L 1259 2491 
L 2053 2491 
Q 2509 2491 2742 2702 
Q 2975 2913 2975 3322 
Q 2975 3731 2742 3939 
Q 2509 4147 2053 4147 
L 1259 4147 
z
" transform="scale(0.015625)"/>
       <path id="DejaVuSans-48" d="M 628 4666 
L 1259 4666 
L 1259 2753 
L 3553 2753 
L 3553 4666 
L 4184 4666 
L 4184 0 
L 3553 0 
L 3553 2222 
L 1259 2222 
L 1259 0 
L 628 0 
L 628 4666 
z
" transform="scale(0.015625)"/>
      </defs>
      <use xlink:href="#DejaVuSans-52"/>
      <use xlink:href="#DejaVuSans-48" x="69.482422"/>
      <use xlink:href="#DejaVuSans-45" x="144.677734"/>
      <use xlink:href="#DejaVuSans-4c" x="207.861328"/>
     </g>
    </g>
    <g id="line2d_56">
     <path d="M 73.2325 125.308938 
L 83.2325 125.308938 
L 93.2325 125.308938 
" style="fill: none; stroke: #48b585; stroke-width: 6; stroke-linecap: square"/>
    </g>
    <g id="text_30">
     <!-- Rocky Linux -->
     <g transform="translate(101.2325 128.808938) scale(0.1 -0.1)">
      <use xlink:href="#DejaVuSans-52"/>
      <use xlink:href="#DejaVuSans-6f" x="64.982422"/>
      <use xlink:href="#DejaVuSans-63" x="126.164062"/>
      <use xlink:href="#DejaVuSans-6b" x="181.144531"/>
      <use xlink:href="#DejaVuSans-79" x="235.429688"/>
      <use xlink:href="#DejaVuSans-20" x="294.609375"/>
      <use xlink:href="#DejaVuSans-4c" x="326.396484"/>
      <use xlink:href="#DejaVuSans-69" x="382.109375"/>
      <use xlink:href="#DejaVuSans-6e" x="409.892578"/>
      <use xlink:href="#DejaVuSans-75" x="473.271484"/>
      <use xlink:href="#DejaVuSans-78" x="536.650391"/>
     </g>
    </g>
   </g>
  </g>
 </g>
 <defs>
  <clipPath id="p2e7bf179bd">
   <rect x="64.2325" y="24.14175" width="902.844" height="554.4"/>
  </clipPath>
 </defs>
</svg>
