<?xml version="1.0" encoding="utf-8" standalone="no"?>
<!DOCTYPE svg PUBLIC "-//W3C//DTD SVG 1.1//EN"
  "http://www.w3.org/Graphics/SVG/1.1/DTD/svg11.dtd">
<svg xmlns:xlink="http://www.w3.org/1999/xlink" width="955.760875pt" height="633.943878pt" viewBox="0 0 955.760875 633.943878" xmlns="http://www.w3.org/2000/svg" version="1.1">
 <metadata>
  <rdf:RDF xmlns:dc="http://purl.org/dc/elements/1.1/" xmlns:cc="http://creativecommons.org/ns#" xmlns:rdf="http://www.w3.org/1999/02/22-rdf-syntax-ns#">
   <cc:Work>
    <dc:type rdf:resource="http://purl.org/dc/dcmitype/StillImage"/>
    <dc:date>2024-03-21T11:54:49.317846</dc:date>
    <dc:format>image/svg+xml</dc:format>
    <dc:creator>
     <cc:Agent>
      <dc:title>Matplotlib v3.5.1, https://matplotlib.org/</dc:title>
     </cc:Agent>
    </dc:creator>
   </cc:Work>
  </rdf:RDF>
 </metadata>
 <defs>
  <style type="text/css">*{stroke-linejoin: round; stroke-linecap: butt}</style>
 </defs>
 <g id="figure_1">
  <g id="patch_1">
   <path d="M 0 633.943878 
L 955.760875 633.943878 
L 955.760875 0 
L 0 0 
z
" style="fill: #ffffff"/>
  </g>
  <g id="axes_1">
   <g id="patch_2">
    <path d="M 45.716875 567.74175 
L 948.560875 567.74175 
L 948.560875 24.14175 
L 45.716875 24.14175 
z
" style="fill: #e5e5e5"/>
   </g>
   <g id="matplotlib.axis_1">
    <g id="xtick_1">
     <g id="line2d_1">
      <path d="M 73.535598 567.74175 
L 73.535598 24.14175 
" clip-path="url(#pfcc58465b0)" style="fill: none; stroke: #ffffff; stroke-width: 0.8; stroke-linecap: square"/>
     </g>
     <g id="line2d_2">
      <defs>
       <path id="m0158ecc432" d="M 0 0 
L 0 3.5 
" style="stroke: #555555; stroke-width: 0.8"/>
      </defs>
      <g>
       <use xlink:href="#m0158ecc432" x="73.535598" y="567.74175" style="fill: #555555; stroke: #555555; stroke-width: 0.8"/>
      </g>
     </g>
     <g id="text_1">
      <!-- 2023-04 -->
      <g style="fill: #555555" transform="translate(60.714315 609.659567)rotate(-45)scale(0.1 -0.1)">
       <defs>
        <path id="DejaVuSans-32" d="M 1228 531 
L 3431 531 
L 3431 0 
L 469 0 
L 469 531 
Q 828 903 1448 1529 
Q 2069 2156 2228 2338 
Q 2531 2678 2651 2914 
Q 2772 3150 2772 3378 
Q 2772 3750 2511 3984 
Q 2250 4219 1831 4219 
Q 1534 4219 1204 4116 
Q 875 4013 500 3803 
L 500 4441 
Q 881 4594 1212 4672 
Q 1544 4750 1819 4750 
Q 2544 4750 2975 4387 
Q 3406 4025 3406 3419 
Q 3406 3131 3298 2873 
Q 3191 2616 2906 2266 
Q 2828 2175 2409 1742 
Q 1991 1309 1228 531 
z
" transform="scale(0.015625)"/>
        <path id="DejaVuSans-30" d="M 2034 4250 
Q 1547 4250 1301 3770 
Q 1056 3291 1056 2328 
Q 1056 1369 1301 889 
Q 1547 409 2034 409 
Q 2525 409 2770 889 
Q 3016 1369 3016 2328 
Q 3016 3291 2770 3770 
Q 2525 4250 2034 4250 
z
M 2034 4750 
Q 2819 4750 3233 4129 
Q 3647 3509 3647 2328 
Q 3647 1150 3233 529 
Q 2819 -91 2034 -91 
Q 1250 -91 836 529 
Q 422 1150 422 2328 
Q 422 3509 836 4129 
Q 1250 4750 2034 4750 
z
" transform="scale(0.015625)"/>
        <path id="DejaVuSans-33" d="M 2597 2516 
Q 3050 2419 3304 2112 
Q 3559 1806 3559 1356 
Q 3559 666 3084 287 
Q 2609 -91 1734 -91 
Q 1441 -91 1130 -33 
Q 819 25 488 141 
L 488 750 
Q 750 597 1062 519 
Q 1375 441 1716 441 
Q 2309 441 2620 675 
Q 2931 909 2931 1356 
Q 2931 1769 2642 2001 
Q 2353 2234 1838 2234 
L 1294 2234 
L 1294 2753 
L 1863 2753 
Q 2328 2753 2575 2939 
Q 2822 3125 2822 3475 
Q 2822 3834 2567 4026 
Q 2313 4219 1838 4219 
Q 1578 4219 1281 4162 
Q 984 4106 628 3988 
L 628 4550 
Q 988 4650 1302 4700 
Q 1616 4750 1894 4750 
Q 2613 4750 3031 4423 
Q 3450 4097 3450 3541 
Q 3450 3153 3228 2886 
Q 3006 2619 2597 2516 
z
" transform="scale(0.015625)"/>
        <path id="DejaVuSans-2d" d="M 313 2009 
L 1997 2009 
L 1997 1497 
L 313 1497 
L 313 2009 
z
" transform="scale(0.015625)"/>
        <path id="DejaVuSans-34" d="M 2419 4116 
L 825 1625 
L 2419 1625 
L 2419 4116 
z
M 2253 4666 
L 3047 4666 
L 3047 1625 
L 3713 1625 
L 3713 1100 
L 3047 1100 
L 3047 0 
L 2419 0 
L 2419 1100 
L 313 1100 
L 313 1709 
L 2253 4666 
z
" transform="scale(0.015625)"/>
       </defs>
       <use xlink:href="#DejaVuSans-32"/>
       <use xlink:href="#DejaVuSans-30" x="63.623047"/>
       <use xlink:href="#DejaVuSans-32" x="127.246094"/>
       <use xlink:href="#DejaVuSans-33" x="190.869141"/>
       <use xlink:href="#DejaVuSans-2d" x="254.492188"/>
       <use xlink:href="#DejaVuSans-30" x="290.576172"/>
       <use xlink:href="#DejaVuSans-34" x="354.199219"/>
      </g>
     </g>
    </g>
    <g id="xtick_2">
     <g id="line2d_3">
      <path d="M 149.404841 567.74175 
L 149.404841 24.14175 
" clip-path="url(#pfcc58465b0)" style="fill: none; stroke: #ffffff; stroke-width: 0.8; stroke-linecap: square"/>
     </g>
     <g id="line2d_4">
      <g>
       <use xlink:href="#m0158ecc432" x="149.404841" y="567.74175" style="fill: #555555; stroke: #555555; stroke-width: 0.8"/>
      </g>
     </g>
     <g id="text_2">
      <!-- 2023-05 -->
      <g style="fill: #555555" transform="translate(136.583559 609.659567)rotate(-45)scale(0.1 -0.1)">
       <defs>
        <path id="DejaVuSans-35" d="M 691 4666 
L 3169 4666 
L 3169 4134 
L 1269 4134 
L 1269 2991 
Q 1406 3038 1543 3061 
Q 1681 3084 1819 3084 
Q 2600 3084 3056 2656 
Q 3513 2228 3513 1497 
Q 3513 744 3044 326 
Q 2575 -91 1722 -91 
Q 1428 -91 1123 -41 
Q 819 9 494 109 
L 494 744 
Q 775 591 1075 516 
Q 1375 441 1709 441 
Q 2250 441 2565 725 
Q 2881 1009 2881 1497 
Q 2881 1984 2565 2268 
Q 2250 2553 1709 2553 
Q 1456 2553 1204 2497 
Q 953 2441 691 2322 
L 691 4666 
z
" transform="scale(0.015625)"/>
       </defs>
       <use xlink:href="#DejaVuSans-32"/>
       <use xlink:href="#DejaVuSans-30" x="63.623047"/>
       <use xlink:href="#DejaVuSans-32" x="127.246094"/>
       <use xlink:href="#DejaVuSans-33" x="190.869141"/>
       <use xlink:href="#DejaVuSans-2d" x="254.492188"/>
       <use xlink:href="#DejaVuSans-30" x="290.576172"/>
       <use xlink:href="#DejaVuSans-35" x="354.199219"/>
      </g>
     </g>
    </g>
    <g id="xtick_3">
     <g id="line2d_5">
      <path d="M 227.80306 567.74175 
L 227.80306 24.14175 
" clip-path="url(#pfcc58465b0)" style="fill: none; stroke: #ffffff; stroke-width: 0.8; stroke-linecap: square"/>
     </g>
     <g id="line2d_6">
      <g>
       <use xlink:href="#m0158ecc432" x="227.80306" y="567.74175" style="fill: #555555; stroke: #555555; stroke-width: 0.8"/>
      </g>
     </g>
     <g id="text_3">
      <!-- 2023-06 -->
      <g style="fill: #555555" transform="translate(214.981778 609.659567)rotate(-45)scale(0.1 -0.1)">
       <defs>
        <path id="DejaVuSans-36" d="M 2113 2584 
Q 1688 2584 1439 2293 
Q 1191 2003 1191 1497 
Q 1191 994 1439 701 
Q 1688 409 2113 409 
Q 2538 409 2786 701 
Q 3034 994 3034 1497 
Q 3034 2003 2786 2293 
Q 2538 2584 2113 2584 
z
M 3366 4563 
L 3366 3988 
Q 3128 4100 2886 4159 
Q 2644 4219 2406 4219 
Q 1781 4219 1451 3797 
Q 1122 3375 1075 2522 
Q 1259 2794 1537 2939 
Q 1816 3084 2150 3084 
Q 2853 3084 3261 2657 
Q 3669 2231 3669 1497 
Q 3669 778 3244 343 
Q 2819 -91 2113 -91 
Q 1303 -91 875 529 
Q 447 1150 447 2328 
Q 447 3434 972 4092 
Q 1497 4750 2381 4750 
Q 2619 4750 2861 4703 
Q 3103 4656 3366 4563 
z
" transform="scale(0.015625)"/>
       </defs>
       <use xlink:href="#DejaVuSans-32"/>
       <use xlink:href="#DejaVuSans-30" x="63.623047"/>
       <use xlink:href="#DejaVuSans-32" x="127.246094"/>
       <use xlink:href="#DejaVuSans-33" x="190.869141"/>
       <use xlink:href="#DejaVuSans-2d" x="254.492188"/>
       <use xlink:href="#DejaVuSans-30" x="290.576172"/>
       <use xlink:href="#DejaVuSans-36" x="354.199219"/>
      </g>
     </g>
    </g>
    <g id="xtick_4">
     <g id="line2d_7">
      <path d="M 303.672304 567.74175 
L 303.672304 24.14175 
" clip-path="url(#pfcc58465b0)" style="fill: none; stroke: #ffffff; stroke-width: 0.8; stroke-linecap: square"/>
     </g>
     <g id="line2d_8">
      <g>
       <use xlink:href="#m0158ecc432" x="303.672304" y="567.74175" style="fill: #555555; stroke: #555555; stroke-width: 0.8"/>
      </g>
     </g>
     <g id="text_4">
      <!-- 2023-07 -->
      <g style="fill: #555555" transform="translate(290.851021 609.659567)rotate(-45)scale(0.1 -0.1)">
       <defs>
        <path id="DejaVuSans-37" d="M 525 4666 
L 3525 4666 
L 3525 4397 
L 1831 0 
L 1172 0 
L 2766 4134 
L 525 4134 
L 525 4666 
z
" transform="scale(0.015625)"/>
       </defs>
       <use xlink:href="#DejaVuSans-32"/>
       <use xlink:href="#DejaVuSans-30" x="63.623047"/>
       <use xlink:href="#DejaVuSans-32" x="127.246094"/>
       <use xlink:href="#DejaVuSans-33" x="190.869141"/>
       <use xlink:href="#DejaVuSans-2d" x="254.492188"/>
       <use xlink:href="#DejaVuSans-30" x="290.576172"/>
       <use xlink:href="#DejaVuSans-37" x="354.199219"/>
      </g>
     </g>
    </g>
    <g id="xtick_5">
     <g id="line2d_9">
      <path d="M 382.070522 567.74175 
L 382.070522 24.14175 
" clip-path="url(#pfcc58465b0)" style="fill: none; stroke: #ffffff; stroke-width: 0.8; stroke-linecap: square"/>
     </g>
     <g id="line2d_10">
      <g>
       <use xlink:href="#m0158ecc432" x="382.070522" y="567.74175" style="fill: #555555; stroke: #555555; stroke-width: 0.8"/>
      </g>
     </g>
     <g id="text_5">
      <!-- 2023-08 -->
      <g style="fill: #555555" transform="translate(369.24924 609.659567)rotate(-45)scale(0.1 -0.1)">
       <defs>
        <path id="DejaVuSans-38" d="M 2034 2216 
Q 1584 2216 1326 1975 
Q 1069 1734 1069 1313 
Q 1069 891 1326 650 
Q 1584 409 2034 409 
Q 2484 409 2743 651 
Q 3003 894 3003 1313 
Q 3003 1734 2745 1975 
Q 2488 2216 2034 2216 
z
M 1403 2484 
Q 997 2584 770 2862 
Q 544 3141 544 3541 
Q 544 4100 942 4425 
Q 1341 4750 2034 4750 
Q 2731 4750 3128 4425 
Q 3525 4100 3525 3541 
Q 3525 3141 3298 2862 
Q 3072 2584 2669 2484 
Q 3125 2378 3379 2068 
Q 3634 1759 3634 1313 
Q 3634 634 3220 271 
Q 2806 -91 2034 -91 
Q 1263 -91 848 271 
Q 434 634 434 1313 
Q 434 1759 690 2068 
Q 947 2378 1403 2484 
z
M 1172 3481 
Q 1172 3119 1398 2916 
Q 1625 2713 2034 2713 
Q 2441 2713 2670 2916 
Q 2900 3119 2900 3481 
Q 2900 3844 2670 4047 
Q 2441 4250 2034 4250 
Q 1625 4250 1398 4047 
Q 1172 3844 1172 3481 
z
" transform="scale(0.015625)"/>
       </defs>
       <use xlink:href="#DejaVuSans-32"/>
       <use xlink:href="#DejaVuSans-30" x="63.623047"/>
       <use xlink:href="#DejaVuSans-32" x="127.246094"/>
       <use xlink:href="#DejaVuSans-33" x="190.869141"/>
       <use xlink:href="#DejaVuSans-2d" x="254.492188"/>
       <use xlink:href="#DejaVuSans-30" x="290.576172"/>
       <use xlink:href="#DejaVuSans-38" x="354.199219"/>
      </g>
     </g>
    </g>
    <g id="xtick_6">
     <g id="line2d_11">
      <path d="M 460.468741 567.74175 
L 460.468741 24.14175 
" clip-path="url(#pfcc58465b0)" style="fill: none; stroke: #ffffff; stroke-width: 0.8; stroke-linecap: square"/>
     </g>
     <g id="line2d_12">
      <g>
       <use xlink:href="#m0158ecc432" x="460.468741" y="567.74175" style="fill: #555555; stroke: #555555; stroke-width: 0.8"/>
      </g>
     </g>
     <g id="text_6">
      <!-- 2023-09 -->
      <g style="fill: #555555" transform="translate(447.647458 609.659567)rotate(-45)scale(0.1 -0.1)">
       <defs>
        <path id="DejaVuSans-39" d="M 703 97 
L 703 672 
Q 941 559 1184 500 
Q 1428 441 1663 441 
Q 2288 441 2617 861 
Q 2947 1281 2994 2138 
Q 2813 1869 2534 1725 
Q 2256 1581 1919 1581 
Q 1219 1581 811 2004 
Q 403 2428 403 3163 
Q 403 3881 828 4315 
Q 1253 4750 1959 4750 
Q 2769 4750 3195 4129 
Q 3622 3509 3622 2328 
Q 3622 1225 3098 567 
Q 2575 -91 1691 -91 
Q 1453 -91 1209 -44 
Q 966 3 703 97 
z
M 1959 2075 
Q 2384 2075 2632 2365 
Q 2881 2656 2881 3163 
Q 2881 3666 2632 3958 
Q 2384 4250 1959 4250 
Q 1534 4250 1286 3958 
Q 1038 3666 1038 3163 
Q 1038 2656 1286 2365 
Q 1534 2075 1959 2075 
z
" transform="scale(0.015625)"/>
       </defs>
       <use xlink:href="#DejaVuSans-32"/>
       <use xlink:href="#DejaVuSans-30" x="63.623047"/>
       <use xlink:href="#DejaVuSans-32" x="127.246094"/>
       <use xlink:href="#DejaVuSans-33" x="190.869141"/>
       <use xlink:href="#DejaVuSans-2d" x="254.492188"/>
       <use xlink:href="#DejaVuSans-30" x="290.576172"/>
       <use xlink:href="#DejaVuSans-39" x="354.199219"/>
      </g>
     </g>
    </g>
    <g id="xtick_7">
     <g id="line2d_13">
      <path d="M 536.337984 567.74175 
L 536.337984 24.14175 
" clip-path="url(#pfcc58465b0)" style="fill: none; stroke: #ffffff; stroke-width: 0.8; stroke-linecap: square"/>
     </g>
     <g id="line2d_14">
      <g>
       <use xlink:href="#m0158ecc432" x="536.337984" y="567.74175" style="fill: #555555; stroke: #555555; stroke-width: 0.8"/>
      </g>
     </g>
     <g id="text_7">
      <!-- 2023-10 -->
      <g style="fill: #555555" transform="translate(523.516702 609.659567)rotate(-45)scale(0.1 -0.1)">
       <defs>
        <path id="DejaVuSans-31" d="M 794 531 
L 1825 531 
L 1825 4091 
L 703 3866 
L 703 4441 
L 1819 4666 
L 2450 4666 
L 2450 531 
L 3481 531 
L 3481 0 
L 794 0 
L 794 531 
z
" transform="scale(0.015625)"/>
       </defs>
       <use xlink:href="#DejaVuSans-32"/>
       <use xlink:href="#DejaVuSans-30" x="63.623047"/>
       <use xlink:href="#DejaVuSans-32" x="127.246094"/>
       <use xlink:href="#DejaVuSans-33" x="190.869141"/>
       <use xlink:href="#DejaVuSans-2d" x="254.492188"/>
       <use xlink:href="#DejaVuSans-31" x="290.576172"/>
       <use xlink:href="#DejaVuSans-30" x="354.199219"/>
      </g>
     </g>
    </g>
    <g id="xtick_8">
     <g id="line2d_15">
      <path d="M 614.736203 567.74175 
L 614.736203 24.14175 
" clip-path="url(#pfcc58465b0)" style="fill: none; stroke: #ffffff; stroke-width: 0.8; stroke-linecap: square"/>
     </g>
     <g id="line2d_16">
      <g>
       <use xlink:href="#m0158ecc432" x="614.736203" y="567.74175" style="fill: #555555; stroke: #555555; stroke-width: 0.8"/>
      </g>
     </g>
     <g id="text_8">
      <!-- 2023-11 -->
      <g style="fill: #555555" transform="translate(601.91492 609.659567)rotate(-45)scale(0.1 -0.1)">
       <use xlink:href="#DejaVuSans-32"/>
       <use xlink:href="#DejaVuSans-30" x="63.623047"/>
       <use xlink:href="#DejaVuSans-32" x="127.246094"/>
       <use xlink:href="#DejaVuSans-33" x="190.869141"/>
       <use xlink:href="#DejaVuSans-2d" x="254.492188"/>
       <use xlink:href="#DejaVuSans-31" x="290.576172"/>
       <use xlink:href="#DejaVuSans-31" x="354.199219"/>
      </g>
     </g>
    </g>
    <g id="xtick_9">
     <g id="line2d_17">
      <path d="M 690.605446 567.74175 
L 690.605446 24.14175 
" clip-path="url(#pfcc58465b0)" style="fill: none; stroke: #ffffff; stroke-width: 0.8; stroke-linecap: square"/>
     </g>
     <g id="line2d_18">
      <g>
       <use xlink:href="#m0158ecc432" x="690.605446" y="567.74175" style="fill: #555555; stroke: #555555; stroke-width: 0.8"/>
      </g>
     </g>
     <g id="text_9">
      <!-- 2023-12 -->
      <g style="fill: #555555" transform="translate(677.784164 609.659567)rotate(-45)scale(0.1 -0.1)">
       <use xlink:href="#DejaVuSans-32"/>
       <use xlink:href="#DejaVuSans-30" x="63.623047"/>
       <use xlink:href="#DejaVuSans-32" x="127.246094"/>
       <use xlink:href="#DejaVuSans-33" x="190.869141"/>
       <use xlink:href="#DejaVuSans-2d" x="254.492188"/>
       <use xlink:href="#DejaVuSans-31" x="290.576172"/>
       <use xlink:href="#DejaVuSans-32" x="354.199219"/>
      </g>
     </g>
    </g>
    <g id="xtick_10">
     <g id="line2d_19">
      <path d="M 769.003665 567.74175 
L 769.003665 24.14175 
" clip-path="url(#pfcc58465b0)" style="fill: none; stroke: #ffffff; stroke-width: 0.8; stroke-linecap: square"/>
     </g>
     <g id="line2d_20">
      <g>
       <use xlink:href="#m0158ecc432" x="769.003665" y="567.74175" style="fill: #555555; stroke: #555555; stroke-width: 0.8"/>
      </g>
     </g>
     <g id="text_10">
      <!-- 2024-01 -->
      <g style="fill: #555555" transform="translate(756.182383 609.659567)rotate(-45)scale(0.1 -0.1)">
       <use xlink:href="#DejaVuSans-32"/>
       <use xlink:href="#DejaVuSans-30" x="63.623047"/>
       <use xlink:href="#DejaVuSans-32" x="127.246094"/>
       <use xlink:href="#DejaVuSans-34" x="190.869141"/>
       <use xlink:href="#DejaVuSans-2d" x="254.492188"/>
       <use xlink:href="#DejaVuSans-30" x="290.576172"/>
       <use xlink:href="#DejaVuSans-31" x="354.199219"/>
      </g>
     </g>
    </g>
    <g id="xtick_11">
     <g id="line2d_21">
      <path d="M 847.401883 567.74175 
L 847.401883 24.14175 
" clip-path="url(#pfcc58465b0)" style="fill: none; stroke: #ffffff; stroke-width: 0.8; stroke-linecap: square"/>
     </g>
     <g id="line2d_22">
      <g>
       <use xlink:href="#m0158ecc432" x="847.401883" y="567.74175" style="fill: #555555; stroke: #555555; stroke-width: 0.8"/>
      </g>
     </g>
     <g id="text_11">
      <!-- 2024-02 -->
      <g style="fill: #555555" transform="translate(834.580601 609.659567)rotate(-45)scale(0.1 -0.1)">
       <use xlink:href="#DejaVuSans-32"/>
       <use xlink:href="#DejaVuSans-30" x="63.623047"/>
       <use xlink:href="#DejaVuSans-32" x="127.246094"/>
       <use xlink:href="#DejaVuSans-34" x="190.869141"/>
       <use xlink:href="#DejaVuSans-2d" x="254.492188"/>
       <use xlink:href="#DejaVuSans-30" x="290.576172"/>
       <use xlink:href="#DejaVuSans-32" x="354.199219"/>
      </g>
     </g>
    </g>
    <g id="xtick_12">
     <g id="line2d_23">
      <path d="M 920.742152 567.74175 
L 920.742152 24.14175 
" clip-path="url(#pfcc58465b0)" style="fill: none; stroke: #ffffff; stroke-width: 0.8; stroke-linecap: square"/>
     </g>
     <g id="line2d_24">
      <g>
       <use xlink:href="#m0158ecc432" x="920.742152" y="567.74175" style="fill: #555555; stroke: #555555; stroke-width: 0.8"/>
      </g>
     </g>
     <g id="text_12">
      <!-- 2024-03 -->
      <g style="fill: #555555" transform="translate(907.92087 609.659567)rotate(-45)scale(0.1 -0.1)">
       <use xlink:href="#DejaVuSans-32"/>
       <use xlink:href="#DejaVuSans-30" x="63.623047"/>
       <use xlink:href="#DejaVuSans-32" x="127.246094"/>
       <use xlink:href="#DejaVuSans-34" x="190.869141"/>
       <use xlink:href="#DejaVuSans-2d" x="254.492188"/>
       <use xlink:href="#DejaVuSans-30" x="290.576172"/>
       <use xlink:href="#DejaVuSans-33" x="354.199219"/>
      </g>
     </g>
    </g>
    <g id="text_13">
     <!-- Date -->
     <g style="fill: #555555" transform="translate(482.797938 624.248253)scale(0.12 -0.12)">
      <defs>
       <path id="DejaVuSans-44" d="M 1259 4147 
L 1259 519 
L 2022 519 
Q 2988 519 3436 956 
Q 3884 1394 3884 2338 
Q 3884 3275 3436 3711 
Q 2988 4147 2022 4147 
L 1259 4147 
z
M 628 4666 
L 1925 4666 
Q 3281 4666 3915 4102 
Q 4550 3538 4550 2338 
Q 4550 1131 3912 565 
Q 3275 0 1925 0 
L 628 0 
L 628 4666 
z
" transform="scale(0.015625)"/>
       <path id="DejaVuSans-61" d="M 2194 1759 
Q 1497 1759 1228 1600 
Q 959 1441 959 1056 
Q 959 750 1161 570 
Q 1363 391 1709 391 
Q 2188 391 2477 730 
Q 2766 1069 2766 1631 
L 2766 1759 
L 2194 1759 
z
M 3341 1997 
L 3341 0 
L 2766 0 
L 2766 531 
Q 2569 213 2275 61 
Q 1981 -91 1556 -91 
Q 1019 -91 701 211 
Q 384 513 384 1019 
Q 384 1609 779 1909 
Q 1175 2209 1959 2209 
L 2766 2209 
L 2766 2266 
Q 2766 2663 2505 2880 
Q 2244 3097 1772 3097 
Q 1472 3097 1187 3025 
Q 903 2953 641 2809 
L 641 3341 
Q 956 3463 1253 3523 
Q 1550 3584 1831 3584 
Q 2591 3584 2966 3190 
Q 3341 2797 3341 1997 
z
" transform="scale(0.015625)"/>
       <path id="DejaVuSans-74" d="M 1172 4494 
L 1172 3500 
L 2356 3500 
L 2356 3053 
L 1172 3053 
L 1172 1153 
Q 1172 725 1289 603 
Q 1406 481 1766 481 
L 2356 481 
L 2356 0 
L 1766 0 
Q 1100 0 847 248 
Q 594 497 594 1153 
L 594 3053 
L 172 3053 
L 172 3500 
L 594 3500 
L 594 4494 
L 1172 4494 
z
" transform="scale(0.015625)"/>
       <path id="DejaVuSans-65" d="M 3597 1894 
L 3597 1613 
L 953 1613 
Q 991 1019 1311 708 
Q 1631 397 2203 397 
Q 2534 397 2845 478 
Q 3156 559 3463 722 
L 3463 178 
Q 3153 47 2828 -22 
Q 2503 -91 2169 -91 
Q 1331 -91 842 396 
Q 353 884 353 1716 
Q 353 2575 817 3079 
Q 1281 3584 2069 3584 
Q 2775 3584 3186 3129 
Q 3597 2675 3597 1894 
z
M 3022 2063 
Q 3016 2534 2758 2815 
Q 2500 3097 2075 3097 
Q 1594 3097 1305 2825 
Q 1016 2553 972 2059 
L 3022 2063 
z
" transform="scale(0.015625)"/>
      </defs>
      <use xlink:href="#DejaVuSans-44"/>
      <use xlink:href="#DejaVuSans-61" x="77.001953"/>
      <use xlink:href="#DejaVuSans-74" x="138.28125"/>
      <use xlink:href="#DejaVuSans-65" x="177.490234"/>
     </g>
    </g>
   </g>
   <g id="matplotlib.axis_2">
    <g id="ytick_1">
     <g id="line2d_25">
      <path d="M 45.716875 567.74175 
L 948.560875 567.74175 
" clip-path="url(#pfcc58465b0)" style="fill: none; stroke: #ffffff; stroke-width: 0.8; stroke-linecap: square"/>
     </g>
     <g id="line2d_26">
      <defs>
       <path id="m350f2f6766" d="M 0 0 
L -3.5 0 
" style="stroke: #555555; stroke-width: 0.8"/>
      </defs>
      <g>
       <use xlink:href="#m350f2f6766" x="45.716875" y="567.74175" style="fill: #555555; stroke: #555555; stroke-width: 0.8"/>
      </g>
     </g>
     <g id="text_14">
      <!-- 0.0 -->
      <g style="fill: #555555" transform="translate(22.81375 571.540969)scale(0.1 -0.1)">
       <defs>
        <path id="DejaVuSans-2e" d="M 684 794 
L 1344 794 
L 1344 0 
L 684 0 
L 684 794 
z
" transform="scale(0.015625)"/>
       </defs>
       <use xlink:href="#DejaVuSans-30"/>
       <use xlink:href="#DejaVuSans-2e" x="63.623047"/>
       <use xlink:href="#DejaVuSans-30" x="95.410156"/>
      </g>
     </g>
    </g>
    <g id="ytick_2">
     <g id="line2d_27">
      <path d="M 45.716875 459.01052 
L 948.560875 459.01052 
" clip-path="url(#pfcc58465b0)" style="fill: none; stroke: #ffffff; stroke-width: 0.8; stroke-linecap: square"/>
     </g>
     <g id="line2d_28">
      <g>
       <use xlink:href="#m350f2f6766" x="45.716875" y="459.01052" style="fill: #555555; stroke: #555555; stroke-width: 0.8"/>
      </g>
     </g>
     <g id="text_15">
      <!-- 0.2 -->
      <g style="fill: #555555" transform="translate(22.81375 462.809738)scale(0.1 -0.1)">
       <use xlink:href="#DejaVuSans-30"/>
       <use xlink:href="#DejaVuSans-2e" x="63.623047"/>
       <use xlink:href="#DejaVuSans-32" x="95.410156"/>
      </g>
     </g>
    </g>
    <g id="ytick_3">
     <g id="line2d_29">
      <path d="M 45.716875 350.279289 
L 948.560875 350.279289 
" clip-path="url(#pfcc58465b0)" style="fill: none; stroke: #ffffff; stroke-width: 0.8; stroke-linecap: square"/>
     </g>
     <g id="line2d_30">
      <g>
       <use xlink:href="#m350f2f6766" x="45.716875" y="350.279289" style="fill: #555555; stroke: #555555; stroke-width: 0.8"/>
      </g>
     </g>
     <g id="text_16">
      <!-- 0.4 -->
      <g style="fill: #555555" transform="translate(22.81375 354.078508)scale(0.1 -0.1)">
       <use xlink:href="#DejaVuSans-30"/>
       <use xlink:href="#DejaVuSans-2e" x="63.623047"/>
       <use xlink:href="#DejaVuSans-34" x="95.410156"/>
      </g>
     </g>
    </g>
    <g id="ytick_4">
     <g id="line2d_31">
      <path d="M 45.716875 241.548059 
L 948.560875 241.548059 
" clip-path="url(#pfcc58465b0)" style="fill: none; stroke: #ffffff; stroke-width: 0.8; stroke-linecap: square"/>
     </g>
     <g id="line2d_32">
      <g>
       <use xlink:href="#m350f2f6766" x="45.716875" y="241.548059" style="fill: #555555; stroke: #555555; stroke-width: 0.8"/>
      </g>
     </g>
     <g id="text_17">
      <!-- 0.6 -->
      <g style="fill: #555555" transform="translate(22.81375 245.347278)scale(0.1 -0.1)">
       <use xlink:href="#DejaVuSans-30"/>
       <use xlink:href="#DejaVuSans-2e" x="63.623047"/>
       <use xlink:href="#DejaVuSans-36" x="95.410156"/>
      </g>
     </g>
    </g>
    <g id="ytick_5">
     <g id="line2d_33">
      <path d="M 45.716875 132.816829 
L 948.560875 132.816829 
" clip-path="url(#pfcc58465b0)" style="fill: none; stroke: #ffffff; stroke-width: 0.8; stroke-linecap: square"/>
     </g>
     <g id="line2d_34">
      <g>
       <use xlink:href="#m350f2f6766" x="45.716875" y="132.816829" style="fill: #555555; stroke: #555555; stroke-width: 0.8"/>
      </g>
     </g>
     <g id="text_18">
      <!-- 0.8 -->
      <g style="fill: #555555" transform="translate(22.81375 136.616047)scale(0.1 -0.1)">
       <use xlink:href="#DejaVuSans-30"/>
       <use xlink:href="#DejaVuSans-2e" x="63.623047"/>
       <use xlink:href="#DejaVuSans-38" x="95.410156"/>
      </g>
     </g>
    </g>
    <g id="text_19">
     <!-- Share of Instances -->
     <g style="fill: #555555" transform="translate(16.318125 351.497062)rotate(-90)scale(0.12 -0.12)">
      <defs>
       <path id="DejaVuSans-53" d="M 3425 4513 
L 3425 3897 
Q 3066 4069 2747 4153 
Q 2428 4238 2131 4238 
Q 1616 4238 1336 4038 
Q 1056 3838 1056 3469 
Q 1056 3159 1242 3001 
Q 1428 2844 1947 2747 
L 2328 2669 
Q 3034 2534 3370 2195 
Q 3706 1856 3706 1288 
Q 3706 609 3251 259 
Q 2797 -91 1919 -91 
Q 1588 -91 1214 -16 
Q 841 59 441 206 
L 441 856 
Q 825 641 1194 531 
Q 1563 422 1919 422 
Q 2459 422 2753 634 
Q 3047 847 3047 1241 
Q 3047 1584 2836 1778 
Q 2625 1972 2144 2069 
L 1759 2144 
Q 1053 2284 737 2584 
Q 422 2884 422 3419 
Q 422 4038 858 4394 
Q 1294 4750 2059 4750 
Q 2388 4750 2728 4690 
Q 3069 4631 3425 4513 
z
" transform="scale(0.015625)"/>
       <path id="DejaVuSans-68" d="M 3513 2113 
L 3513 0 
L 2938 0 
L 2938 2094 
Q 2938 2591 2744 2837 
Q 2550 3084 2163 3084 
Q 1697 3084 1428 2787 
Q 1159 2491 1159 1978 
L 1159 0 
L 581 0 
L 581 4863 
L 1159 4863 
L 1159 2956 
Q 1366 3272 1645 3428 
Q 1925 3584 2291 3584 
Q 2894 3584 3203 3211 
Q 3513 2838 3513 2113 
z
" transform="scale(0.015625)"/>
       <path id="DejaVuSans-72" d="M 2631 2963 
Q 2534 3019 2420 3045 
Q 2306 3072 2169 3072 
Q 1681 3072 1420 2755 
Q 1159 2438 1159 1844 
L 1159 0 
L 581 0 
L 581 3500 
L 1159 3500 
L 1159 2956 
Q 1341 3275 1631 3429 
Q 1922 3584 2338 3584 
Q 2397 3584 2469 3576 
Q 2541 3569 2628 3553 
L 2631 2963 
z
" transform="scale(0.015625)"/>
       <path id="DejaVuSans-20" transform="scale(0.015625)"/>
       <path id="DejaVuSans-6f" d="M 1959 3097 
Q 1497 3097 1228 2736 
Q 959 2375 959 1747 
Q 959 1119 1226 758 
Q 1494 397 1959 397 
Q 2419 397 2687 759 
Q 2956 1122 2956 1747 
Q 2956 2369 2687 2733 
Q 2419 3097 1959 3097 
z
M 1959 3584 
Q 2709 3584 3137 3096 
Q 3566 2609 3566 1747 
Q 3566 888 3137 398 
Q 2709 -91 1959 -91 
Q 1206 -91 779 398 
Q 353 888 353 1747 
Q 353 2609 779 3096 
Q 1206 3584 1959 3584 
z
" transform="scale(0.015625)"/>
       <path id="DejaVuSans-66" d="M 2375 4863 
L 2375 4384 
L 1825 4384 
Q 1516 4384 1395 4259 
Q 1275 4134 1275 3809 
L 1275 3500 
L 2222 3500 
L 2222 3053 
L 1275 3053 
L 1275 0 
L 697 0 
L 697 3053 
L 147 3053 
L 147 3500 
L 697 3500 
L 697 3744 
Q 697 4328 969 4595 
Q 1241 4863 1831 4863 
L 2375 4863 
z
" transform="scale(0.015625)"/>
       <path id="DejaVuSans-49" d="M 628 4666 
L 1259 4666 
L 1259 0 
L 628 0 
L 628 4666 
z
" transform="scale(0.015625)"/>
       <path id="DejaVuSans-6e" d="M 3513 2113 
L 3513 0 
L 2938 0 
L 2938 2094 
Q 2938 2591 2744 2837 
Q 2550 3084 2163 3084 
Q 1697 3084 1428 2787 
Q 1159 2491 1159 1978 
L 1159 0 
L 581 0 
L 581 3500 
L 1159 3500 
L 1159 2956 
Q 1366 3272 1645 3428 
Q 1925 3584 2291 3584 
Q 2894 3584 3203 3211 
Q 3513 2838 3513 2113 
z
" transform="scale(0.015625)"/>
       <path id="DejaVuSans-73" d="M 2834 3397 
L 2834 2853 
Q 2591 2978 2328 3040 
Q 2066 3103 1784 3103 
Q 1356 3103 1142 2972 
Q 928 2841 928 2578 
Q 928 2378 1081 2264 
Q 1234 2150 1697 2047 
L 1894 2003 
Q 2506 1872 2764 1633 
Q 3022 1394 3022 966 
Q 3022 478 2636 193 
Q 2250 -91 1575 -91 
Q 1294 -91 989 -36 
Q 684 19 347 128 
L 347 722 
Q 666 556 975 473 
Q 1284 391 1588 391 
Q 1994 391 2212 530 
Q 2431 669 2431 922 
Q 2431 1156 2273 1281 
Q 2116 1406 1581 1522 
L 1381 1569 
Q 847 1681 609 1914 
Q 372 2147 372 2553 
Q 372 3047 722 3315 
Q 1072 3584 1716 3584 
Q 2034 3584 2315 3537 
Q 2597 3491 2834 3397 
z
" transform="scale(0.015625)"/>
       <path id="DejaVuSans-63" d="M 3122 3366 
L 3122 2828 
Q 2878 2963 2633 3030 
Q 2388 3097 2138 3097 
Q 1578 3097 1268 2742 
Q 959 2388 959 1747 
Q 959 1106 1268 751 
Q 1578 397 2138 397 
Q 2388 397 2633 464 
Q 2878 531 3122 666 
L 3122 134 
Q 2881 22 2623 -34 
Q 2366 -91 2075 -91 
Q 1284 -91 818 406 
Q 353 903 353 1747 
Q 353 2603 823 3093 
Q 1294 3584 2113 3584 
Q 2378 3584 2631 3529 
Q 2884 3475 3122 3366 
z
" transform="scale(0.015625)"/>
      </defs>
      <use xlink:href="#DejaVuSans-53"/>
      <use xlink:href="#DejaVuSans-68" x="63.476562"/>
      <use xlink:href="#DejaVuSans-61" x="126.855469"/>
      <use xlink:href="#DejaVuSans-72" x="188.134766"/>
      <use xlink:href="#DejaVuSans-65" x="226.998047"/>
      <use xlink:href="#DejaVuSans-20" x="288.521484"/>
      <use xlink:href="#DejaVuSans-6f" x="320.308594"/>
      <use xlink:href="#DejaVuSans-66" x="381.490234"/>
      <use xlink:href="#DejaVuSans-20" x="416.695312"/>
      <use xlink:href="#DejaVuSans-49" x="448.482422"/>
      <use xlink:href="#DejaVuSans-6e" x="477.974609"/>
      <use xlink:href="#DejaVuSans-73" x="541.353516"/>
      <use xlink:href="#DejaVuSans-74" x="593.453125"/>
      <use xlink:href="#DejaVuSans-61" x="632.662109"/>
      <use xlink:href="#DejaVuSans-6e" x="693.941406"/>
      <use xlink:href="#DejaVuSans-63" x="757.320312"/>
      <use xlink:href="#DejaVuSans-65" x="812.300781"/>
      <use xlink:href="#DejaVuSans-73" x="873.824219"/>
     </g>
    </g>
   </g>
   <g id="PolyCollection_1">
    <path d="M 45.716875 567.74175 
L 45.716875 567.74175 
L 63.419699 567.74175 
L 81.122522 567.74175 
L 98.825346 567.74175 
L 116.528169 567.74175 
L 134.230993 567.74175 
L 187.339463 567.74175 
L 205.042287 567.74175 
L 222.74511 567.74175 
L 240.447934 567.74175 
L 258.150757 567.74175 
L 275.853581 567.74175 
L 293.556404 567.74175 
L 311.259228 567.74175 
L 328.962051 567.74175 
L 346.664875 567.74175 
L 364.367699 567.74175 
L 382.070522 567.74175 
L 399.773346 567.74175 
L 417.476169 567.74175 
L 435.178993 567.74175 
L 452.881816 567.74175 
L 470.58464 567.74175 
L 488.287463 567.74175 
L 505.990287 567.74175 
L 523.69311 567.74175 
L 541.395934 567.74175 
L 559.098757 567.74175 
L 576.801581 567.74175 
L 629.910051 567.74175 
L 647.612875 567.74175 
L 665.315699 567.74175 
L 683.018522 567.74175 
L 700.721346 567.74175 
L 718.424169 567.74175 
L 736.126993 567.74175 
L 753.829816 567.74175 
L 771.53264 567.74175 
L 789.235463 567.74175 
L 806.938287 567.74175 
L 824.64111 567.74175 
L 842.343934 567.74175 
L 860.046757 567.74175 
L 877.749581 567.74175 
L 895.452404 567.74175 
L 913.155228 567.74175 
L 930.858051 567.74175 
L 948.560875 567.74175 
L 948.560875 466.970755 
L 948.560875 466.970755 
L 930.858051 471.429312 
L 913.155228 471.104759 
L 895.452404 475.540639 
L 877.749581 481.571644 
L 860.046757 481.344006 
L 842.343934 483.555153 
L 824.64111 489.390514 
L 806.938287 495.103732 
L 789.235463 499.813887 
L 771.53264 502.927693 
L 753.829816 507.001941 
L 736.126993 510.087026 
L 718.424169 515.752888 
L 700.721346 520.026264 
L 683.018522 531.882734 
L 665.315699 551.476334 
L 647.612875 567.691343 
L 629.910051 567.740847 
L 576.801581 567.74175 
L 559.098757 567.74175 
L 541.395934 567.74175 
L 523.69311 567.74175 
L 505.990287 567.74175 
L 488.287463 567.74175 
L 470.58464 567.74175 
L 452.881816 567.74175 
L 435.178993 567.74175 
L 417.476169 567.74175 
L 399.773346 567.74175 
L 382.070522 567.74175 
L 364.367699 567.74175 
L 346.664875 567.74175 
L 328.962051 567.74175 
L 311.259228 567.74175 
L 293.556404 567.74175 
L 275.853581 567.74175 
L 258.150757 567.74175 
L 240.447934 567.74175 
L 222.74511 567.74175 
L 205.042287 567.74175 
L 187.339463 567.74175 
L 134.230993 567.74175 
L 116.528169 567.74175 
L 98.825346 567.74175 
L 81.122522 567.74175 
L 63.419699 567.74175 
L 45.716875 567.74175 
z
" clip-path="url(#pfcc58465b0)" style="fill: #e24a33"/>
   </g>
   <g id="PolyCollection_2">
    <path d="M 45.716875 567.74175 
L 45.716875 567.74175 
L 63.419699 567.74175 
L 81.122522 567.74175 
L 98.825346 567.74175 
L 116.528169 567.74175 
L 134.230993 567.74175 
L 187.339463 567.74175 
L 205.042287 567.74175 
L 222.74511 567.74175 
L 240.447934 567.74175 
L 258.150757 567.74175 
L 275.853581 567.74175 
L 293.556404 567.74175 
L 311.259228 567.74175 
L 328.962051 567.74175 
L 346.664875 567.74175 
L 364.367699 567.74175 
L 382.070522 567.74175 
L 399.773346 567.74175 
L 417.476169 567.74175 
L 435.178993 567.74175 
L 452.881816 567.74175 
L 470.58464 567.74175 
L 488.287463 567.74175 
L 505.990287 567.74175 
L 523.69311 567.74175 
L 541.395934 567.74175 
L 559.098757 567.74175 
L 576.801581 567.74175 
L 629.910051 567.740847 
L 647.612875 567.691343 
L 665.315699 551.476334 
L 683.018522 531.882734 
L 700.721346 520.026264 
L 718.424169 515.752888 
L 736.126993 510.087026 
L 753.829816 507.001941 
L 771.53264 502.927693 
L 789.235463 499.813887 
L 806.938287 495.103732 
L 824.64111 489.390514 
L 842.343934 483.555153 
L 860.046757 481.344006 
L 877.749581 481.571644 
L 895.452404 475.540639 
L 913.155228 471.104759 
L 930.858051 471.429312 
L 948.560875 466.970755 
L 948.560875 423.564328 
L 948.560875 423.564328 
L 930.858051 427.778141 
L 913.155228 423.868256 
L 895.452404 426.208807 
L 877.749581 430.966368 
L 860.046757 427.001744 
L 842.343934 427.282009 
L 824.64111 430.412868 
L 806.938287 432.07097 
L 789.235463 437.476546 
L 771.53264 439.907808 
L 753.829816 442.163185 
L 736.126993 439.912333 
L 718.424169 443.521635 
L 700.721346 442.109637 
L 683.018522 443.576774 
L 665.315699 450.887596 
L 647.612875 453.520069 
L 629.910051 457.272791 
L 576.801581 462.384017 
L 559.098757 461.687385 
L 541.395934 461.599996 
L 523.69311 461.541438 
L 505.990287 466.829378 
L 488.287463 471.782097 
L 470.58464 468.843471 
L 452.881816 470.575519 
L 435.178993 472.507679 
L 417.476169 474.565616 
L 399.773346 474.001559 
L 382.070522 477.520995 
L 364.367699 485.402699 
L 346.664875 487.233979 
L 328.962051 489.055773 
L 311.259228 491.334954 
L 293.556404 494.618013 
L 275.853581 506.501074 
L 258.150757 514.222871 
L 240.447934 523.082961 
L 222.74511 528.87171 
L 205.042287 537.502991 
L 187.339463 554.951096 
L 134.230993 567.74175 
L 116.528169 567.74175 
L 98.825346 567.74175 
L 81.122522 567.74175 
L 63.419699 567.74175 
L 45.716875 567.74175 
z
" clip-path="url(#pfcc58465b0)" style="fill: #348abd"/>
   </g>
   <g id="PolyCollection_3">
    <path d="M 45.716875 489.377848 
L 45.716875 567.74175 
L 63.419699 567.74175 
L 81.122522 567.74175 
L 98.825346 567.74175 
L 116.528169 567.74175 
L 134.230993 567.74175 
L 187.339463 554.951096 
L 205.042287 537.502991 
L 222.74511 528.87171 
L 240.447934 523.082961 
L 258.150757 514.222871 
L 275.853581 506.501074 
L 293.556404 494.618013 
L 311.259228 491.334954 
L 328.962051 489.055773 
L 346.664875 487.233979 
L 364.367699 485.402699 
L 382.070522 477.520995 
L 399.773346 474.001559 
L 417.476169 474.565616 
L 435.178993 472.507679 
L 452.881816 470.575519 
L 470.58464 468.843471 
L 488.287463 471.782097 
L 505.990287 466.829378 
L 523.69311 461.541438 
L 541.395934 461.599996 
L 559.098757 461.687385 
L 576.801581 462.384017 
L 629.910051 457.272791 
L 647.612875 453.520069 
L 665.315699 450.887596 
L 683.018522 443.576774 
L 700.721346 442.109637 
L 718.424169 443.521635 
L 736.126993 439.912333 
L 753.829816 442.163185 
L 771.53264 439.907808 
L 789.235463 437.476546 
L 806.938287 432.07097 
L 824.64111 430.412868 
L 842.343934 427.282009 
L 860.046757 427.001744 
L 877.749581 430.966368 
L 895.452404 426.208807 
L 913.155228 423.868256 
L 930.858051 427.778141 
L 948.560875 423.564328 
L 948.560875 407.040797 
L 948.560875 407.040797 
L 930.858051 411.437404 
L 913.155228 406.48711 
L 895.452404 408.332258 
L 877.749581 412.712383 
L 860.046757 407.650187 
L 842.343934 407.7538 
L 824.64111 410.52197 
L 806.938287 411.815694 
L 789.235463 416.49602 
L 771.53264 418.179857 
L 753.829816 419.628151 
L 736.126993 417.239958 
L 718.424169 420.71275 
L 700.721346 418.619765 
L 683.018522 419.825809 
L 665.315699 426.823963 
L 647.612875 426.335525 
L 629.910051 427.869918 
L 576.801581 430.895102 
L 559.098757 429.651653 
L 541.395934 428.689799 
L 523.69311 427.563128 
L 505.990287 432.617018 
L 488.287463 435.833572 
L 470.58464 430.831494 
L 452.881816 431.164417 
L 435.178993 432.322174 
L 417.476169 434.300593 
L 399.773346 432.72071 
L 382.070522 435.994762 
L 364.367699 442.105965 
L 346.664875 439.718896 
L 328.962051 439.947155 
L 311.259228 440.685193 
L 293.556404 442.532841 
L 275.853581 450.722853 
L 258.150757 454.858353 
L 240.447934 460.257796 
L 222.74511 461.735067 
L 205.042287 463.823133 
L 187.339463 466.032531 
L 134.230993 474.850864 
L 116.528169 478.611123 
L 98.825346 482.873204 
L 81.122522 487.061351 
L 63.419699 484.788942 
L 45.716875 489.377848 
z
" clip-path="url(#pfcc58465b0)" style="fill: #988ed5"/>
   </g>
   <g id="PolyCollection_4">
    <path d="M 45.716875 474.280395 
L 45.716875 489.377848 
L 63.419699 484.788942 
L 81.122522 487.061351 
L 98.825346 482.873204 
L 116.528169 478.611123 
L 134.230993 474.850864 
L 187.339463 466.032531 
L 205.042287 463.823133 
L 222.74511 461.735067 
L 240.447934 460.257796 
L 258.150757 454.858353 
L 275.853581 450.722853 
L 293.556404 442.532841 
L 311.259228 440.685193 
L 328.962051 439.947155 
L 346.664875 439.718896 
L 364.367699 442.105965 
L 382.070522 435.994762 
L 399.773346 432.72071 
L 417.476169 434.300593 
L 435.178993 432.322174 
L 452.881816 431.164417 
L 470.58464 430.831494 
L 488.287463 435.833572 
L 505.990287 432.617018 
L 523.69311 427.563128 
L 541.395934 428.689799 
L 559.098757 429.651653 
L 576.801581 430.895102 
L 629.910051 427.869918 
L 647.612875 426.335525 
L 665.315699 426.823963 
L 683.018522 419.825809 
L 700.721346 418.619765 
L 718.424169 420.71275 
L 736.126993 417.239958 
L 753.829816 419.628151 
L 771.53264 418.179857 
L 789.235463 416.49602 
L 806.938287 411.815694 
L 824.64111 410.52197 
L 842.343934 407.7538 
L 860.046757 407.650187 
L 877.749581 412.712383 
L 895.452404 408.332258 
L 913.155228 406.48711 
L 930.858051 411.437404 
L 948.560875 407.040797 
L 948.560875 402.616208 
L 948.560875 402.616208 
L 930.858051 407.050926 
L 913.155228 401.836735 
L 895.452404 403.59447 
L 877.749581 407.969049 
L 860.046757 402.57067 
L 842.343934 402.638017 
L 824.64111 405.367208 
L 806.938287 406.524149 
L 789.235463 411.042585 
L 771.53264 412.547905 
L 753.829816 413.847384 
L 736.126993 411.426384 
L 718.424169 414.921629 
L 700.721346 412.658854 
L 683.018522 413.818884 
L 665.315699 420.802436 
L 647.612875 420.064744 
L 629.910051 421.445811 
L 576.801581 423.749138 
L 559.098757 422.47985 
L 541.395934 421.338708 
L 523.69311 420.014656 
L 505.990287 425.02246 
L 488.287463 427.951653 
L 470.58464 422.839523 
L 452.881816 422.978534 
L 435.178993 424.029974 
L 417.476169 425.973032 
L 399.773346 424.212013 
L 382.070522 427.213072 
L 364.367699 433.123125 
L 346.664875 430.372569 
L 328.962051 430.33982 
L 311.259228 430.722939 
L 293.556404 432.593511 
L 275.853581 440.292094 
L 258.150757 443.8662 
L 240.447934 449.16602 
L 222.74511 450.192264 
L 205.042287 451.949327 
L 187.339463 453.771465 
L 134.230993 461.224532 
L 116.528169 465.007762 
L 98.825346 469.113823 
L 81.122522 472.753 
L 63.419699 469.90738 
L 45.716875 474.280395 
z
" clip-path="url(#pfcc58465b0)" style="fill: #777777"/>
   </g>
   <g id="PolyCollection_5">
    <path d="M 45.716875 474.279262 
L 45.716875 474.280395 
L 63.419699 469.90738 
L 81.122522 472.753 
L 98.825346 469.113823 
L 116.528169 465.007762 
L 134.230993 461.224532 
L 187.339463 453.771465 
L 205.042287 451.949327 
L 222.74511 450.192264 
L 240.447934 449.16602 
L 258.150757 443.8662 
L 275.853581 440.292094 
L 293.556404 432.593511 
L 311.259228 430.722939 
L 328.962051 430.33982 
L 346.664875 430.372569 
L 364.367699 433.123125 
L 382.070522 427.213072 
L 399.773346 424.212013 
L 417.476169 425.973032 
L 435.178993 424.029974 
L 452.881816 422.978534 
L 470.58464 422.839523 
L 488.287463 427.951653 
L 505.990287 425.02246 
L 523.69311 420.014656 
L 541.395934 421.338708 
L 559.098757 422.47985 
L 576.801581 423.749138 
L 629.910051 421.445811 
L 647.612875 420.064744 
L 665.315699 420.802436 
L 683.018522 413.818884 
L 700.721346 412.658854 
L 718.424169 414.921629 
L 736.126993 411.426384 
L 753.829816 413.847384 
L 771.53264 412.547905 
L 789.235463 411.042585 
L 806.938287 406.524149 
L 824.64111 405.367208 
L 842.343934 402.638017 
L 860.046757 402.57067 
L 877.749581 407.969049 
L 895.452404 403.59447 
L 913.155228 401.836735 
L 930.858051 407.050926 
L 948.560875 402.616208 
L 948.560875 257.296893 
L 948.560875 257.296893 
L 930.858051 250.55076 
L 913.155228 264.837071 
L 895.452404 267.451587 
L 877.749581 282.131483 
L 860.046757 281.939356 
L 842.343934 285.630599 
L 824.64111 294.987855 
L 806.938287 301.00083 
L 789.235463 304.015748 
L 771.53264 312.064989 
L 753.829816 320.428017 
L 736.126993 324.065965 
L 718.424169 331.901026 
L 700.721346 342.063862 
L 683.018522 361.0205 
L 665.315699 402.924896 
L 647.612875 420.063319 
L 629.910051 421.445811 
L 576.801581 423.749138 
L 559.098757 422.479265 
L 541.395934 421.338113 
L 523.69311 420.014656 
L 505.990287 425.02226 
L 488.287463 427.951653 
L 470.58464 422.839523 
L 452.881816 422.978534 
L 435.178993 424.029974 
L 417.476169 425.973032 
L 399.773346 424.212013 
L 382.070522 427.213072 
L 364.367699 433.123125 
L 346.664875 430.372108 
L 328.962051 430.33982 
L 311.259228 430.722939 
L 293.556404 432.593511 
L 275.853581 440.292094 
L 258.150757 443.8662 
L 240.447934 449.165519 
L 222.74511 450.192264 
L 205.042287 451.949327 
L 187.339463 453.771465 
L 134.230993 461.224259 
L 116.528169 465.007762 
L 98.825346 469.113823 
L 81.122522 472.752142 
L 63.419699 469.905955 
L 45.716875 474.279262 
z
" clip-path="url(#pfcc58465b0)" style="fill: #fbc15e"/>
   </g>
   <g id="PolyCollection_6">
    <path d="M 45.716875 474.279262 
L 45.716875 474.279262 
L 63.419699 469.905955 
L 81.122522 472.752142 
L 98.825346 469.113823 
L 116.528169 465.007762 
L 134.230993 461.224259 
L 187.339463 453.771465 
L 205.042287 451.949327 
L 222.74511 450.192264 
L 240.447934 449.165519 
L 258.150757 443.8662 
L 275.853581 440.292094 
L 293.556404 432.593511 
L 311.259228 430.722939 
L 328.962051 430.33982 
L 346.664875 430.372108 
L 364.367699 433.123125 
L 382.070522 427.213072 
L 399.773346 424.212013 
L 417.476169 425.973032 
L 435.178993 424.029974 
L 452.881816 422.978534 
L 470.58464 422.839523 
L 488.287463 427.951653 
L 505.990287 425.02226 
L 523.69311 420.014656 
L 541.395934 421.338113 
L 559.098757 422.479265 
L 576.801581 423.749138 
L 629.910051 421.445811 
L 647.612875 420.063319 
L 665.315699 402.924896 
L 683.018522 361.0205 
L 700.721346 342.063862 
L 718.424169 331.901026 
L 736.126993 324.065965 
L 753.829816 320.428017 
L 771.53264 312.064989 
L 789.235463 304.015748 
L 806.938287 301.00083 
L 824.64111 294.987855 
L 842.343934 285.630599 
L 860.046757 281.939356 
L 877.749581 282.131483 
L 895.452404 267.451587 
L 913.155228 264.837071 
L 930.858051 250.55076 
L 948.560875 257.296893 
L 948.560875 192.045889 
L 948.560875 192.045889 
L 930.858051 184.412236 
L 913.155228 193.230957 
L 895.452404 190.321323 
L 877.749581 197.090351 
L 860.046757 193.65359 
L 842.343934 193.711507 
L 824.64111 196.903212 
L 806.938287 203.098598 
L 789.235463 198.615227 
L 771.53264 197.512777 
L 753.829816 197.967693 
L 736.126993 199.572956 
L 718.424169 207.154676 
L 700.721346 210.023169 
L 683.018522 216.440571 
L 665.315699 225.177507 
L 647.612875 224.946681 
L 629.910051 226.369027 
L 576.801581 226.16208 
L 559.098757 224.86123 
L 541.395934 224.196725 
L 523.69311 226.324294 
L 505.990287 235.322933 
L 488.287463 238.315513 
L 470.58464 241.208048 
L 452.881816 247.184042 
L 435.178993 249.297396 
L 417.476169 252.688009 
L 399.773346 257.670573 
L 382.070522 262.539941 
L 364.367699 266.884966 
L 346.664875 275.930863 
L 328.962051 282.875995 
L 311.259228 289.746554 
L 293.556404 295.715885 
L 275.853581 314.438871 
L 258.150757 326.519053 
L 240.447934 341.627188 
L 222.74511 364.522547 
L 205.042287 390.905023 
L 187.339463 443.910346 
L 134.230993 461.22262 
L 116.528169 465.006385 
L 98.825346 469.113823 
L 81.122522 472.752142 
L 63.419699 469.905955 
L 45.716875 474.279262 
z
" clip-path="url(#pfcc58465b0)" style="fill: #8eba42"/>
   </g>
   <g id="PolyCollection_7">
    <path d="M 45.716875 234.258448 
L 45.716875 474.279262 
L 63.419699 469.905955 
L 81.122522 472.752142 
L 98.825346 469.113823 
L 116.528169 465.006385 
L 134.230993 461.22262 
L 187.339463 443.910346 
L 205.042287 390.905023 
L 222.74511 364.522547 
L 240.447934 341.627188 
L 258.150757 326.519053 
L 275.853581 314.438871 
L 293.556404 295.715885 
L 311.259228 289.746554 
L 328.962051 282.875995 
L 346.664875 275.930863 
L 364.367699 266.884966 
L 382.070522 262.539941 
L 399.773346 257.670573 
L 417.476169 252.688009 
L 435.178993 249.297396 
L 452.881816 247.184042 
L 470.58464 241.208048 
L 488.287463 238.315513 
L 505.990287 235.322933 
L 523.69311 226.324294 
L 541.395934 224.196725 
L 559.098757 224.86123 
L 576.801581 226.16208 
L 629.910051 226.369027 
L 647.612875 224.946681 
L 665.315699 225.177507 
L 683.018522 216.440571 
L 700.721346 210.023169 
L 718.424169 207.154676 
L 736.126993 199.572956 
L 753.829816 197.967693 
L 771.53264 197.512777 
L 789.235463 198.615227 
L 806.938287 203.098598 
L 824.64111 196.903212 
L 842.343934 193.711507 
L 860.046757 193.65359 
L 877.749581 197.090351 
L 895.452404 190.321323 
L 913.155228 193.230957 
L 930.858051 184.412236 
L 948.560875 192.045889 
L 948.560875 149.354799 
L 948.560875 149.354799 
L 930.858051 142.031794 
L 913.155228 147.828771 
L 895.452404 143.999951 
L 877.749581 150.959374 
L 860.046757 145.660212 
L 842.343934 145.649211 
L 824.64111 148.519538 
L 806.938287 153.746869 
L 789.235463 147.859346 
L 771.53264 145.135862 
L 753.829816 144.280879 
L 736.126993 145.338162 
L 718.424169 151.727257 
L 700.721346 153.508891 
L 683.018522 159.174389 
L 665.315699 166.860631 
L 647.612875 163.994217 
L 629.910051 163.57474 
L 576.801581 156.534361 
L 559.098757 152.696867 
L 541.395934 148.736129 
L 523.69311 148.774557 
L 505.990287 156.728611 
L 488.287463 156.441578 
L 470.58464 158.004759 
L 452.881816 160.22444 
L 435.178993 160.096012 
L 417.476169 161.301099 
L 399.773346 163.263476 
L 382.070522 164.383632 
L 364.367699 165.068427 
L 346.664875 167.752564 
L 328.962051 169.200432 
L 311.259228 172.134376 
L 293.556404 173.361441 
L 275.853581 183.366738 
L 258.150757 185.968096 
L 240.447934 188.612148 
L 222.74511 194.463624 
L 205.042287 197.105311 
L 187.339463 201.310559 
L 134.230993 216.788175 
L 116.528169 218.699137 
L 98.825346 223.418641 
L 81.122522 227.757479 
L 63.419699 232.421765 
L 45.716875 234.258448 
z
" clip-path="url(#pfcc58465b0)" style="fill: #ffb5b8"/>
   </g>
   <g id="PolyCollection_8">
    <path d="M 45.716875 116.837777 
L 45.716875 234.258448 
L 63.419699 232.421765 
L 81.122522 227.757479 
L 98.825346 223.418641 
L 116.528169 218.699137 
L 134.230993 216.788175 
L 187.339463 201.310559 
L 205.042287 197.105311 
L 222.74511 194.463624 
L 240.447934 188.612148 
L 258.150757 185.968096 
L 275.853581 183.366738 
L 293.556404 173.361441 
L 311.259228 172.134376 
L 328.962051 169.200432 
L 346.664875 167.752564 
L 364.367699 165.068427 
L 382.070522 164.383632 
L 399.773346 163.263476 
L 417.476169 161.301099 
L 435.178993 160.096012 
L 452.881816 160.22444 
L 470.58464 158.004759 
L 488.287463 156.441578 
L 505.990287 156.728611 
L 523.69311 148.774557 
L 541.395934 148.736129 
L 559.098757 152.696867 
L 576.801581 156.534361 
L 629.910051 163.57474 
L 647.612875 163.994217 
L 665.315699 166.860631 
L 683.018522 159.174389 
L 700.721346 153.508891 
L 718.424169 151.727257 
L 736.126993 145.338162 
L 753.829816 144.280879 
L 771.53264 145.135862 
L 789.235463 147.859346 
L 806.938287 153.746869 
L 824.64111 148.519538 
L 842.343934 145.649211 
L 860.046757 145.660212 
L 877.749581 150.959374 
L 895.452404 143.999951 
L 913.155228 147.828771 
L 930.858051 142.031794 
L 948.560875 149.354799 
L 948.560875 58.547994 
L 948.560875 58.547994 
L 930.858051 58.394423 
L 913.155228 60.6042 
L 895.452404 61.299747 
L 877.749581 61.590911 
L 860.046757 63.492478 
L 842.343934 64.005722 
L 824.64111 64.979149 
L 806.938287 65.086587 
L 789.235463 64.951428 
L 771.53264 64.531919 
L 753.829816 65.935741 
L 736.126993 65.346511 
L 718.424169 65.596742 
L 700.721346 67.364798 
L 683.018522 69.054293 
L 665.315699 69.085418 
L 647.612875 70.935485 
L 629.910051 71.750157 
L 576.801581 75.478318 
L 559.098757 76.303023 
L 541.395934 77.030382 
L 523.69311 77.691974 
L 505.990287 77.531884 
L 488.287463 80.22335 
L 470.58464 81.392931 
L 452.881816 82.999945 
L 435.178993 83.448708 
L 417.476169 84.142028 
L 399.773346 85.187062 
L 382.070522 86.257307 
L 364.367699 87.673579 
L 346.664875 89.816122 
L 328.962051 90.590409 
L 311.259228 92.260884 
L 293.556404 92.121186 
L 275.853581 95.083146 
L 258.150757 97.550656 
L 240.447934 98.558594 
L 222.74511 100.999086 
L 205.042287 100.907861 
L 187.339463 102.234152 
L 134.230993 108.95799 
L 116.528169 110.097491 
L 98.825346 111.64874 
L 81.122522 113.702461 
L 63.419699 116.376935 
L 45.716875 116.837777 
z
" clip-path="url(#pfcc58465b0)" style="fill: #e24a33"/>
   </g>
   <g id="PolyCollection_9">
    <path d="M 45.716875 39.049656 
L 45.716875 116.837777 
L 63.419699 116.376935 
L 81.122522 113.702461 
L 98.825346 111.64874 
L 116.528169 110.097491 
L 134.230993 108.95799 
L 187.339463 102.234152 
L 205.042287 100.907861 
L 222.74511 100.999086 
L 240.447934 98.558594 
L 258.150757 97.550656 
L 275.853581 95.083146 
L 293.556404 92.121186 
L 311.259228 92.260884 
L 328.962051 90.590409 
L 346.664875 89.816122 
L 364.367699 87.673579 
L 382.070522 86.257307 
L 399.773346 85.187062 
L 417.476169 84.142028 
L 435.178993 83.448708 
L 452.881816 82.999945 
L 470.58464 81.392931 
L 488.287463 80.22335 
L 505.990287 77.531884 
L 523.69311 77.691974 
L 541.395934 77.030382 
L 559.098757 76.303023 
L 576.801581 75.478318 
L 629.910051 71.750157 
L 647.612875 70.935485 
L 665.315699 69.085418 
L 683.018522 69.054293 
L 700.721346 67.364798 
L 718.424169 65.596742 
L 736.126993 65.346511 
L 753.829816 65.935741 
L 771.53264 64.531919 
L 789.235463 64.951428 
L 806.938287 65.086587 
L 824.64111 64.979149 
L 842.343934 64.005722 
L 860.046757 63.492478 
L 877.749581 61.590911 
L 895.452404 61.299747 
L 913.155228 60.6042 
L 930.858051 58.394423 
L 948.560875 58.547994 
L 948.560875 29.96197 
L 948.560875 29.96197 
L 930.858051 29.974343 
L 913.155228 30.434151 
L 895.452404 30.503822 
L 877.749581 30.5977 
L 860.046757 30.88071 
L 842.343934 30.997788 
L 824.64111 31.076733 
L 806.938287 30.841093 
L 789.235463 31.017248 
L 771.53264 31.277656 
L 753.829816 31.631884 
L 736.126993 31.60283 
L 718.424169 31.706079 
L 700.721346 31.848884 
L 683.018522 31.866462 
L 665.315699 31.82314 
L 647.612875 32.267216 
L 629.910051 32.407987 
L 576.801581 32.898641 
L 559.098757 32.910036 
L 541.395934 33.137761 
L 523.69311 33.252257 
L 505.990287 33.261872 
L 488.287463 33.579395 
L 470.58464 33.596071 
L 452.881816 33.822611 
L 435.178993 34.00724 
L 417.476169 33.990839 
L 399.773346 34.199743 
L 382.070522 34.419051 
L 364.367699 34.569971 
L 346.664875 34.99076 
L 328.962051 35.117472 
L 311.259228 35.437135 
L 293.556404 35.444159 
L 275.853581 35.819563 
L 258.150757 36.170322 
L 240.447934 36.272945 
L 222.74511 36.629794 
L 205.042287 36.821736 
L 187.339463 36.990377 
L 134.230993 38.122812 
L 116.528169 38.138073 
L 98.825346 38.437701 
L 81.122522 38.698218 
L 63.419699 38.973716 
L 45.716875 39.049656 
z
" clip-path="url(#pfcc58465b0)" style="fill: #348abd"/>
   </g>
   <g id="PolyCollection_10">
    <path d="M 45.716875 24.19492 
L 45.716875 39.049656 
L 63.419699 38.973716 
L 81.122522 38.698218 
L 98.825346 38.437701 
L 116.528169 38.138073 
L 134.230993 38.122812 
L 187.339463 36.990377 
L 205.042287 36.821736 
L 222.74511 36.629794 
L 240.447934 36.272945 
L 258.150757 36.170322 
L 275.853581 35.819563 
L 293.556404 35.444159 
L 311.259228 35.437135 
L 328.962051 35.117472 
L 346.664875 34.99076 
L 364.367699 34.569971 
L 382.070522 34.419051 
L 399.773346 34.199743 
L 417.476169 33.990839 
L 435.178993 34.00724 
L 452.881816 33.822611 
L 470.58464 33.596071 
L 488.287463 33.579395 
L 505.990287 33.261872 
L 523.69311 33.252257 
L 541.395934 33.137761 
L 559.098757 32.910036 
L 576.801581 32.898641 
L 629.910051 32.407987 
L 647.612875 32.267216 
L 665.315699 31.82314 
L 683.018522 31.866462 
L 700.721346 31.848884 
L 718.424169 31.706079 
L 736.126993 31.60283 
L 753.829816 31.631884 
L 771.53264 31.277656 
L 789.235463 31.017248 
L 806.938287 30.841093 
L 824.64111 31.076733 
L 842.343934 30.997788 
L 860.046757 30.88071 
L 877.749581 30.5977 
L 895.452404 30.503822 
L 913.155228 30.434151 
L 930.858051 29.974343 
L 948.560875 29.96197 
L 948.560875 24.14175 
L 948.560875 24.14175 
L 930.858051 24.143728 
L 913.155228 24.145808 
L 895.452404 24.146664 
L 877.749581 24.146936 
L 860.046757 24.148443 
L 842.343934 24.146644 
L 824.64111 24.148112 
L 806.938287 24.141799 
L 789.235463 24.143951 
L 771.53264 24.147914 
L 753.829816 24.145078 
L 736.126993 24.149176 
L 718.424169 24.152304 
L 700.721346 24.155939 
L 683.018522 24.163754 
L 665.315699 24.162695 
L 647.612875 24.164326 
L 629.910051 24.164881 
L 576.801581 24.173491 
L 559.098757 24.174825 
L 541.395934 24.175608 
L 523.69311 24.173246 
L 505.990287 24.16891 
L 488.287463 24.171238 
L 470.58464 24.172845 
L 452.881816 24.17643 
L 435.178993 24.179629 
L 417.476169 24.175617 
L 399.773346 24.17745 
L 382.070522 24.178165 
L 364.367699 24.185447 
L 346.664875 24.192977 
L 328.962051 24.186173 
L 311.259228 24.188841 
L 293.556404 24.179492 
L 275.853581 24.180581 
L 258.150757 24.178071 
L 240.447934 24.179819 
L 222.74511 24.183764 
L 205.042287 24.189026 
L 187.339463 24.183566 
L 134.230993 24.196788 
L 116.528169 24.196569 
L 98.825346 24.1964 
L 81.122522 24.194838 
L 63.419699 24.198186 
L 45.716875 24.19492 
z
" clip-path="url(#pfcc58465b0)" style="fill: #988ed5"/>
   </g>
   <g id="patch_3">
    <path d="M 45.716875 567.74175 
L 45.716875 24.14175 
" style="fill: none; stroke: #ffffff; stroke-linejoin: miter; stroke-linecap: square"/>
   </g>
   <g id="patch_4">
    <path d="M 948.560875 567.74175 
L 948.560875 24.14175 
" style="fill: none; stroke: #ffffff; stroke-linejoin: miter; stroke-linecap: square"/>
   </g>
   <g id="patch_5">
    <path d="M 45.716875 567.74175 
L 948.560875 567.74175 
" style="fill: none; stroke: #ffffff; stroke-linejoin: miter; stroke-linecap: square"/>
   </g>
   <g id="patch_6">
    <path d="M 45.716875 24.14175 
L 948.560875 24.14175 
" style="fill: none; stroke: #ffffff; stroke-linejoin: miter; stroke-linecap: square"/>
   </g>
   <g id="text_20">
    <!-- Rocky Linux Instances by Version Share -->
    <g transform="translate(45.716875 18.14175)scale(0.144 -0.144)">
     <defs>
      <path id="DejaVuSans-52" d="M 2841 2188 
Q 3044 2119 3236 1894 
Q 3428 1669 3622 1275 
L 4263 0 
L 3584 0 
L 2988 1197 
Q 2756 1666 2539 1819 
Q 2322 1972 1947 1972 
L 1259 1972 
L 1259 0 
L 628 0 
L 628 4666 
L 2053 4666 
Q 2853 4666 3247 4331 
Q 3641 3997 3641 3322 
Q 3641 2881 3436 2590 
Q 3231 2300 2841 2188 
z
M 1259 4147 
L 1259 2491 
L 2053 2491 
Q 2509 2491 2742 2702 
Q 2975 2913 2975 3322 
Q 2975 3731 2742 3939 
Q 2509 4147 2053 4147 
L 1259 4147 
z
" transform="scale(0.015625)"/>
      <path id="DejaVuSans-6b" d="M 581 4863 
L 1159 4863 
L 1159 1991 
L 2875 3500 
L 3609 3500 
L 1753 1863 
L 3688 0 
L 2938 0 
L 1159 1709 
L 1159 0 
L 581 0 
L 581 4863 
z
" transform="scale(0.015625)"/>
      <path id="DejaVuSans-79" d="M 2059 -325 
Q 1816 -950 1584 -1140 
Q 1353 -1331 966 -1331 
L 506 -1331 
L 506 -850 
L 844 -850 
Q 1081 -850 1212 -737 
Q 1344 -625 1503 -206 
L 1606 56 
L 191 3500 
L 800 3500 
L 1894 763 
L 2988 3500 
L 3597 3500 
L 2059 -325 
z
" transform="scale(0.015625)"/>
      <path id="DejaVuSans-4c" d="M 628 4666 
L 1259 4666 
L 1259 531 
L 3531 531 
L 3531 0 
L 628 0 
L 628 4666 
z
" transform="scale(0.015625)"/>
      <path id="DejaVuSans-69" d="M 603 3500 
L 1178 3500 
L 1178 0 
L 603 0 
L 603 3500 
z
M 603 4863 
L 1178 4863 
L 1178 4134 
L 603 4134 
L 603 4863 
z
" transform="scale(0.015625)"/>
      <path id="DejaVuSans-75" d="M 544 1381 
L 544 3500 
L 1119 3500 
L 1119 1403 
Q 1119 906 1312 657 
Q 1506 409 1894 409 
Q 2359 409 2629 706 
Q 2900 1003 2900 1516 
L 2900 3500 
L 3475 3500 
L 3475 0 
L 2900 0 
L 2900 538 
Q 2691 219 2414 64 
Q 2138 -91 1772 -91 
Q 1169 -91 856 284 
Q 544 659 544 1381 
z
M 1991 3584 
L 1991 3584 
z
" transform="scale(0.015625)"/>
      <path id="DejaVuSans-78" d="M 3513 3500 
L 2247 1797 
L 3578 0 
L 2900 0 
L 1881 1375 
L 863 0 
L 184 0 
L 1544 1831 
L 300 3500 
L 978 3500 
L 1906 2253 
L 2834 3500 
L 3513 3500 
z
" transform="scale(0.015625)"/>
      <path id="DejaVuSans-62" d="M 3116 1747 
Q 3116 2381 2855 2742 
Q 2594 3103 2138 3103 
Q 1681 3103 1420 2742 
Q 1159 2381 1159 1747 
Q 1159 1113 1420 752 
Q 1681 391 2138 391 
Q 2594 391 2855 752 
Q 3116 1113 3116 1747 
z
M 1159 2969 
Q 1341 3281 1617 3432 
Q 1894 3584 2278 3584 
Q 2916 3584 3314 3078 
Q 3713 2572 3713 1747 
Q 3713 922 3314 415 
Q 2916 -91 2278 -91 
Q 1894 -91 1617 61 
Q 1341 213 1159 525 
L 1159 0 
L 581 0 
L 581 4863 
L 1159 4863 
L 1159 2969 
z
" transform="scale(0.015625)"/>
      <path id="DejaVuSans-56" d="M 1831 0 
L 50 4666 
L 709 4666 
L 2188 738 
L 3669 4666 
L 4325 4666 
L 2547 0 
L 1831 0 
z
" transform="scale(0.015625)"/>
     </defs>
     <use xlink:href="#DejaVuSans-52"/>
     <use xlink:href="#DejaVuSans-6f" x="64.982422"/>
     <use xlink:href="#DejaVuSans-63" x="126.164062"/>
     <use xlink:href="#DejaVuSans-6b" x="181.144531"/>
     <use xlink:href="#DejaVuSans-79" x="235.429688"/>
     <use xlink:href="#DejaVuSans-20" x="294.609375"/>
     <use xlink:href="#DejaVuSans-4c" x="326.396484"/>
     <use xlink:href="#DejaVuSans-69" x="382.109375"/>
     <use xlink:href="#DejaVuSans-6e" x="409.892578"/>
     <use xlink:href="#DejaVuSans-75" x="473.271484"/>
     <use xlink:href="#DejaVuSans-78" x="536.650391"/>
     <use xlink:href="#DejaVuSans-20" x="595.830078"/>
     <use xlink:href="#DejaVuSans-49" x="627.617188"/>
     <use xlink:href="#DejaVuSans-6e" x="657.109375"/>
     <use xlink:href="#DejaVuSans-73" x="720.488281"/>
     <use xlink:href="#DejaVuSans-74" x="772.587891"/>
     <use xlink:href="#DejaVuSans-61" x="811.796875"/>
     <use xlink:href="#DejaVuSans-6e" x="873.076172"/>
     <use xlink:href="#DejaVuSans-63" x="936.455078"/>
     <use xlink:href="#DejaVuSans-65" x="991.435547"/>
     <use xlink:href="#DejaVuSans-73" x="1052.958984"/>
     <use xlink:href="#DejaVuSans-20" x="1105.058594"/>
     <use xlink:href="#DejaVuSans-62" x="1136.845703"/>
     <use xlink:href="#DejaVuSans-79" x="1200.322266"/>
     <use xlink:href="#DejaVuSans-20" x="1259.501953"/>
     <use xlink:href="#DejaVuSans-56" x="1291.289062"/>
     <use xlink:href="#DejaVuSans-65" x="1351.947266"/>
     <use xlink:href="#DejaVuSans-72" x="1413.470703"/>
     <use xlink:href="#DejaVuSans-73" x="1454.583984"/>
     <use xlink:href="#DejaVuSans-69" x="1506.683594"/>
     <use xlink:href="#DejaVuSans-6f" x="1534.466797"/>
     <use xlink:href="#DejaVuSans-6e" x="1595.648438"/>
     <use xlink:href="#DejaVuSans-20" x="1659.027344"/>
     <use xlink:href="#DejaVuSans-53" x="1690.814453"/>
     <use xlink:href="#DejaVuSans-68" x="1754.291016"/>
     <use xlink:href="#DejaVuSans-61" x="1817.669922"/>
     <use xlink:href="#DejaVuSans-72" x="1878.949219"/>
     <use xlink:href="#DejaVuSans-65" x="1917.8125"/>
    </g>
   </g>
   <g id="text_21">
    <!-- 2024-03-21 11:54 UTC -->
    <g transform="translate(785.678875 18.14175)scale(0.144 -0.144)">
     <defs>
      <path id="DejaVuSans-3a" d="M 750 794 
L 1409 794 
L 1409 0 
L 750 0 
L 750 794 
z
M 750 3309 
L 1409 3309 
L 1409 2516 
L 750 2516 
L 750 3309 
z
" transform="scale(0.015625)"/>
      <path id="DejaVuSans-55" d="M 556 4666 
L 1191 4666 
L 1191 1831 
Q 1191 1081 1462 751 
Q 1734 422 2344 422 
Q 2950 422 3222 751 
Q 3494 1081 3494 1831 
L 3494 4666 
L 4128 4666 
L 4128 1753 
Q 4128 841 3676 375 
Q 3225 -91 2344 -91 
Q 1459 -91 1007 375 
Q 556 841 556 1753 
L 556 4666 
z
" transform="scale(0.015625)"/>
      <path id="DejaVuSans-54" d="M -19 4666 
L 3928 4666 
L 3928 4134 
L 2272 4134 
L 2272 0 
L 1638 0 
L 1638 4134 
L -19 4134 
L -19 4666 
z
" transform="scale(0.015625)"/>
      <path id="DejaVuSans-43" d="M 4122 4306 
L 4122 3641 
Q 3803 3938 3442 4084 
Q 3081 4231 2675 4231 
Q 1875 4231 1450 3742 
Q 1025 3253 1025 2328 
Q 1025 1406 1450 917 
Q 1875 428 2675 428 
Q 3081 428 3442 575 
Q 3803 722 4122 1019 
L 4122 359 
Q 3791 134 3420 21 
Q 3050 -91 2638 -91 
Q 1578 -91 968 557 
Q 359 1206 359 2328 
Q 359 3453 968 4101 
Q 1578 4750 2638 4750 
Q 3056 4750 3426 4639 
Q 3797 4528 4122 4306 
z
" transform="scale(0.015625)"/>
     </defs>
     <use xlink:href="#DejaVuSans-32"/>
     <use xlink:href="#DejaVuSans-30" x="63.623047"/>
     <use xlink:href="#DejaVuSans-32" x="127.246094"/>
     <use xlink:href="#DejaVuSans-34" x="190.869141"/>
     <use xlink:href="#DejaVuSans-2d" x="254.492188"/>
     <use xlink:href="#DejaVuSans-30" x="290.576172"/>
     <use xlink:href="#DejaVuSans-33" x="354.199219"/>
     <use xlink:href="#DejaVuSans-2d" x="417.822266"/>
     <use xlink:href="#DejaVuSans-32" x="453.90625"/>
     <use xlink:href="#DejaVuSans-31" x="517.529297"/>
     <use xlink:href="#DejaVuSans-20" x="581.152344"/>
     <use xlink:href="#DejaVuSans-31" x="612.939453"/>
     <use xlink:href="#DejaVuSans-31" x="676.5625"/>
     <use xlink:href="#DejaVuSans-3a" x="740.185547"/>
     <use xlink:href="#DejaVuSans-35" x="773.876953"/>
     <use xlink:href="#DejaVuSans-34" x="837.5"/>
     <use xlink:href="#DejaVuSans-20" x="901.123047"/>
     <use xlink:href="#DejaVuSans-55" x="932.910156"/>
     <use xlink:href="#DejaVuSans-54" x="1006.103516"/>
     <use xlink:href="#DejaVuSans-43" x="1061.3125"/>
    </g>
   </g>
   <g id="legend_1">
    <g id="patch_7">
     <path d="M 52.716875 193.601125 
L 100.62 193.601125 
Q 102.62 193.601125 102.62 191.601125 
L 102.62 31.14175 
Q 102.62 29.14175 100.62 29.14175 
L 52.716875 29.14175 
Q 50.716875 29.14175 50.716875 31.14175 
L 50.716875 191.601125 
Q 50.716875 193.601125 52.716875 193.601125 
z
" style="fill: #e5e5e5; opacity: 0.8; stroke: #cccccc; stroke-width: 0.5; stroke-linejoin: miter"/>
    </g>
    <g id="text_22">
     <!-- Version -->
     <g transform="translate(58.281719 40.740187)scale(0.1 -0.1)">
      <use xlink:href="#DejaVuSans-56"/>
      <use xlink:href="#DejaVuSans-65" x="60.658203"/>
      <use xlink:href="#DejaVuSans-72" x="122.181641"/>
      <use xlink:href="#DejaVuSans-73" x="163.294922"/>
      <use xlink:href="#DejaVuSans-69" x="215.394531"/>
      <use xlink:href="#DejaVuSans-6f" x="243.177734"/>
      <use xlink:href="#DejaVuSans-6e" x="304.359375"/>
     </g>
    </g>
    <g id="patch_8">
     <path d="M 54.716875 55.418312 
L 74.716875 55.418312 
L 74.716875 48.418312 
L 54.716875 48.418312 
z
" style="fill: #e24a33"/>
    </g>
    <g id="text_23">
     <!-- 9.3 -->
     <g transform="translate(82.716875 55.418312)scale(0.1 -0.1)">
      <use xlink:href="#DejaVuSans-39"/>
      <use xlink:href="#DejaVuSans-2e" x="63.623047"/>
      <use xlink:href="#DejaVuSans-33" x="95.410156"/>
     </g>
    </g>
    <g id="patch_9">
     <path d="M 54.716875 70.096437 
L 74.716875 70.096437 
L 74.716875 63.096437 
L 54.716875 63.096437 
z
" style="fill: #348abd"/>
    </g>
    <g id="text_24">
     <!-- 9.2 -->
     <g transform="translate(82.716875 70.096437)scale(0.1 -0.1)">
      <use xlink:href="#DejaVuSans-39"/>
      <use xlink:href="#DejaVuSans-2e" x="63.623047"/>
      <use xlink:href="#DejaVuSans-32" x="95.410156"/>
     </g>
    </g>
    <g id="patch_10">
     <path d="M 54.716875 84.774563 
L 74.716875 84.774563 
L 74.716875 77.774563 
L 54.716875 77.774563 
z
" style="fill: #988ed5"/>
    </g>
    <g id="text_25">
     <!-- 9.1 -->
     <g transform="translate(82.716875 84.774563)scale(0.1 -0.1)">
      <use xlink:href="#DejaVuSans-39"/>
      <use xlink:href="#DejaVuSans-2e" x="63.623047"/>
      <use xlink:href="#DejaVuSans-31" x="95.410156"/>
     </g>
    </g>
    <g id="patch_11">
     <path d="M 54.716875 99.452687 
L 74.716875 99.452687 
L 74.716875 92.452687 
L 54.716875 92.452687 
z
" style="fill: #777777"/>
    </g>
    <g id="text_26">
     <!-- 9.0 -->
     <g transform="translate(82.716875 99.452687)scale(0.1 -0.1)">
      <use xlink:href="#DejaVuSans-39"/>
      <use xlink:href="#DejaVuSans-2e" x="63.623047"/>
      <use xlink:href="#DejaVuSans-30" x="95.410156"/>
     </g>
    </g>
    <g id="patch_12">
     <path d="M 54.716875 114.130812 
L 74.716875 114.130812 
L 74.716875 107.130812 
L 54.716875 107.130812 
z
" style="fill: #fbc15e"/>
    </g>
    <g id="text_27">
     <!-- 8.9 -->
     <g transform="translate(82.716875 114.130812)scale(0.1 -0.1)">
      <use xlink:href="#DejaVuSans-38"/>
      <use xlink:href="#DejaVuSans-2e" x="63.623047"/>
      <use xlink:href="#DejaVuSans-39" x="95.410156"/>
     </g>
    </g>
    <g id="patch_13">
     <path d="M 54.716875 128.808937 
L 74.716875 128.808937 
L 74.716875 121.808937 
L 54.716875 121.808937 
z
" style="fill: #8eba42"/>
    </g>
    <g id="text_28">
     <!-- 8.8 -->
     <g transform="translate(82.716875 128.808937)scale(0.1 -0.1)">
      <use xlink:href="#DejaVuSans-38"/>
      <use xlink:href="#DejaVuSans-2e" x="63.623047"/>
      <use xlink:href="#DejaVuSans-38" x="95.410156"/>
     </g>
    </g>
    <g id="patch_14">
     <path d="M 54.716875 143.487062 
L 74.716875 143.487062 
L 74.716875 136.487062 
L 54.716875 136.487062 
z
" style="fill: #ffb5b8"/>
    </g>
    <g id="text_29">
     <!-- 8.7 -->
     <g transform="translate(82.716875 143.487062)scale(0.1 -0.1)">
      <use xlink:href="#DejaVuSans-38"/>
      <use xlink:href="#DejaVuSans-2e" x="63.623047"/>
      <use xlink:href="#DejaVuSans-37" x="95.410156"/>
     </g>
    </g>
    <g id="patch_15">
     <path d="M 54.716875 158.165187 
L 74.716875 158.165187 
L 74.716875 151.165187 
L 54.716875 151.165187 
z
" style="fill: #e24a33"/>
    </g>
    <g id="text_30">
     <!-- 8.6 -->
     <g transform="translate(82.716875 158.165187)scale(0.1 -0.1)">
      <use xlink:href="#DejaVuSans-38"/>
      <use xlink:href="#DejaVuSans-2e" x="63.623047"/>
      <use xlink:href="#DejaVuSans-36" x="95.410156"/>
     </g>
    </g>
    <g id="patch_16">
     <path d="M 54.716875 172.843312 
L 74.716875 172.843312 
L 74.716875 165.843312 
L 54.716875 165.843312 
z
" style="fill: #348abd"/>
    </g>
    <g id="text_31">
     <!-- 8.5 -->
     <g transform="translate(82.716875 172.843312)scale(0.1 -0.1)">
      <use xlink:href="#DejaVuSans-38"/>
      <use xlink:href="#DejaVuSans-2e" x="63.623047"/>
      <use xlink:href="#DejaVuSans-35" x="95.410156"/>
     </g>
    </g>
    <g id="patch_17">
     <path d="M 54.716875 187.521437 
L 74.716875 187.521437 
L 74.716875 180.521437 
L 54.716875 180.521437 
z
" style="fill: #988ed5"/>
    </g>
    <g id="text_32">
     <!-- 8.4 -->
     <g transform="translate(82.716875 187.521437)scale(0.1 -0.1)">
      <use xlink:href="#DejaVuSans-38"/>
      <use xlink:href="#DejaVuSans-2e" x="63.623047"/>
      <use xlink:href="#DejaVuSans-34" x="95.410156"/>
     </g>
    </g>
   </g>
  </g>
 </g>
 <defs>
  <clipPath id="pfcc58465b0">
   <rect x="45.716875" y="24.14175" width="902.844" height="543.6"/>
  </clipPath>
 </defs>
</svg>
