<?xml version="1.0" encoding="utf-8" standalone="no"?>
<!DOCTYPE svg PUBLIC "-//W3C//DTD SVG 1.1//EN"
  "http://www.w3.org/Graphics/SVG/1.1/DTD/svg11.dtd">
<svg xmlns:xlink="http://www.w3.org/1999/xlink" width="955.760875pt" height="633.943878pt" viewBox="0 0 955.760875 633.943878" xmlns="http://www.w3.org/2000/svg" version="1.1">
 <metadata>
  <rdf:RDF xmlns:dc="http://purl.org/dc/elements/1.1/" xmlns:cc="http://creativecommons.org/ns#" xmlns:rdf="http://www.w3.org/1999/02/22-rdf-syntax-ns#">
   <cc:Work>
    <dc:type rdf:resource="http://purl.org/dc/dcmitype/StillImage"/>
    <dc:date>2024-08-01T11:54:57.631618</dc:date>
    <dc:format>image/svg+xml</dc:format>
    <dc:creator>
     <cc:Agent>
      <dc:title>Matplotlib v3.5.1, https://matplotlib.org/</dc:title>
     </cc:Agent>
    </dc:creator>
   </cc:Work>
  </rdf:RDF>
 </metadata>
 <defs>
  <style type="text/css">*{stroke-linejoin: round; stroke-linecap: butt}</style>
 </defs>
 <g id="figure_1">
  <g id="patch_1">
   <path d="M 0 633.943878 
L 955.760875 633.943878 
L 955.760875 0 
L 0 0 
z
" style="fill: #ffffff"/>
  </g>
  <g id="axes_1">
   <g id="patch_2">
    <path d="M 45.716875 567.74175 
L 948.560875 567.74175 
L 948.560875 24.14175 
L 45.716875 24.14175 
z
" style="fill: #e5e5e5"/>
   </g>
   <g id="matplotlib.axis_1">
    <g id="xtick_1">
     <g id="line2d_1">
      <path d="M 86.989744 567.74175 
L 86.989744 24.14175 
" clip-path="url(#pc791b9f211)" style="fill: none; stroke: #ffffff; stroke-width: 0.8; stroke-linecap: square"/>
     </g>
     <g id="line2d_2">
      <defs>
       <path id="m499495bc37" d="M 0 0 
L 0 3.5 
" style="stroke: #555555; stroke-width: 0.8"/>
      </defs>
      <g>
       <use xlink:href="#m499495bc37" x="86.989744" y="567.74175" style="fill: #555555; stroke: #555555; stroke-width: 0.8"/>
      </g>
     </g>
     <g id="text_1">
      <!-- 2023-08 -->
      <g style="fill: #555555" transform="translate(74.168461 609.659567)rotate(-45)scale(0.1 -0.1)">
       <defs>
        <path id="DejaVuSans-32" d="M 1228 531 
L 3431 531 
L 3431 0 
L 469 0 
L 469 531 
Q 828 903 1448 1529 
Q 2069 2156 2228 2338 
Q 2531 2678 2651 2914 
Q 2772 3150 2772 3378 
Q 2772 3750 2511 3984 
Q 2250 4219 1831 4219 
Q 1534 4219 1204 4116 
Q 875 4013 500 3803 
L 500 4441 
Q 881 4594 1212 4672 
Q 1544 4750 1819 4750 
Q 2544 4750 2975 4387 
Q 3406 4025 3406 3419 
Q 3406 3131 3298 2873 
Q 3191 2616 2906 2266 
Q 2828 2175 2409 1742 
Q 1991 1309 1228 531 
z
" transform="scale(0.015625)"/>
        <path id="DejaVuSans-30" d="M 2034 4250 
Q 1547 4250 1301 3770 
Q 1056 3291 1056 2328 
Q 1056 1369 1301 889 
Q 1547 409 2034 409 
Q 2525 409 2770 889 
Q 3016 1369 3016 2328 
Q 3016 3291 2770 3770 
Q 2525 4250 2034 4250 
z
M 2034 4750 
Q 2819 4750 3233 4129 
Q 3647 3509 3647 2328 
Q 3647 1150 3233 529 
Q 2819 -91 2034 -91 
Q 1250 -91 836 529 
Q 422 1150 422 2328 
Q 422 3509 836 4129 
Q 1250 4750 2034 4750 
z
" transform="scale(0.015625)"/>
        <path id="DejaVuSans-33" d="M 2597 2516 
Q 3050 2419 3304 2112 
Q 3559 1806 3559 1356 
Q 3559 666 3084 287 
Q 2609 -91 1734 -91 
Q 1441 -91 1130 -33 
Q 819 25 488 141 
L 488 750 
Q 750 597 1062 519 
Q 1375 441 1716 441 
Q 2309 441 2620 675 
Q 2931 909 2931 1356 
Q 2931 1769 2642 2001 
Q 2353 2234 1838 2234 
L 1294 2234 
L 1294 2753 
L 1863 2753 
Q 2328 2753 2575 2939 
Q 2822 3125 2822 3475 
Q 2822 3834 2567 4026 
Q 2313 4219 1838 4219 
Q 1578 4219 1281 4162 
Q 984 4106 628 3988 
L 628 4550 
Q 988 4650 1302 4700 
Q 1616 4750 1894 4750 
Q 2613 4750 3031 4423 
Q 3450 4097 3450 3541 
Q 3450 3153 3228 2886 
Q 3006 2619 2597 2516 
z
" transform="scale(0.015625)"/>
        <path id="DejaVuSans-2d" d="M 313 2009 
L 1997 2009 
L 1997 1497 
L 313 1497 
L 313 2009 
z
" transform="scale(0.015625)"/>
        <path id="DejaVuSans-38" d="M 2034 2216 
Q 1584 2216 1326 1975 
Q 1069 1734 1069 1313 
Q 1069 891 1326 650 
Q 1584 409 2034 409 
Q 2484 409 2743 651 
Q 3003 894 3003 1313 
Q 3003 1734 2745 1975 
Q 2488 2216 2034 2216 
z
M 1403 2484 
Q 997 2584 770 2862 
Q 544 3141 544 3541 
Q 544 4100 942 4425 
Q 1341 4750 2034 4750 
Q 2731 4750 3128 4425 
Q 3525 4100 3525 3541 
Q 3525 3141 3298 2862 
Q 3072 2584 2669 2484 
Q 3125 2378 3379 2068 
Q 3634 1759 3634 1313 
Q 3634 634 3220 271 
Q 2806 -91 2034 -91 
Q 1263 -91 848 271 
Q 434 634 434 1313 
Q 434 1759 690 2068 
Q 947 2378 1403 2484 
z
M 1172 3481 
Q 1172 3119 1398 2916 
Q 1625 2713 2034 2713 
Q 2441 2713 2670 2916 
Q 2900 3119 2900 3481 
Q 2900 3844 2670 4047 
Q 2441 4250 2034 4250 
Q 1625 4250 1398 4047 
Q 1172 3844 1172 3481 
z
" transform="scale(0.015625)"/>
       </defs>
       <use xlink:href="#DejaVuSans-32"/>
       <use xlink:href="#DejaVuSans-30" x="63.623047"/>
       <use xlink:href="#DejaVuSans-32" x="127.246094"/>
       <use xlink:href="#DejaVuSans-33" x="190.869141"/>
       <use xlink:href="#DejaVuSans-2d" x="254.492188"/>
       <use xlink:href="#DejaVuSans-30" x="290.576172"/>
       <use xlink:href="#DejaVuSans-38" x="354.199219"/>
      </g>
     </g>
    </g>
    <g id="xtick_2">
     <g id="line2d_3">
      <path d="M 166.955926 567.74175 
L 166.955926 24.14175 
" clip-path="url(#pc791b9f211)" style="fill: none; stroke: #ffffff; stroke-width: 0.8; stroke-linecap: square"/>
     </g>
     <g id="line2d_4">
      <g>
       <use xlink:href="#m499495bc37" x="166.955926" y="567.74175" style="fill: #555555; stroke: #555555; stroke-width: 0.8"/>
      </g>
     </g>
     <g id="text_2">
      <!-- 2023-09 -->
      <g style="fill: #555555" transform="translate(154.134644 609.659567)rotate(-45)scale(0.1 -0.1)">
       <defs>
        <path id="DejaVuSans-39" d="M 703 97 
L 703 672 
Q 941 559 1184 500 
Q 1428 441 1663 441 
Q 2288 441 2617 861 
Q 2947 1281 2994 2138 
Q 2813 1869 2534 1725 
Q 2256 1581 1919 1581 
Q 1219 1581 811 2004 
Q 403 2428 403 3163 
Q 403 3881 828 4315 
Q 1253 4750 1959 4750 
Q 2769 4750 3195 4129 
Q 3622 3509 3622 2328 
Q 3622 1225 3098 567 
Q 2575 -91 1691 -91 
Q 1453 -91 1209 -44 
Q 966 3 703 97 
z
M 1959 2075 
Q 2384 2075 2632 2365 
Q 2881 2656 2881 3163 
Q 2881 3666 2632 3958 
Q 2384 4250 1959 4250 
Q 1534 4250 1286 3958 
Q 1038 3666 1038 3163 
Q 1038 2656 1286 2365 
Q 1534 2075 1959 2075 
z
" transform="scale(0.015625)"/>
       </defs>
       <use xlink:href="#DejaVuSans-32"/>
       <use xlink:href="#DejaVuSans-30" x="63.623047"/>
       <use xlink:href="#DejaVuSans-32" x="127.246094"/>
       <use xlink:href="#DejaVuSans-33" x="190.869141"/>
       <use xlink:href="#DejaVuSans-2d" x="254.492188"/>
       <use xlink:href="#DejaVuSans-30" x="290.576172"/>
       <use xlink:href="#DejaVuSans-39" x="354.199219"/>
      </g>
     </g>
    </g>
    <g id="xtick_3">
     <g id="line2d_5">
      <path d="M 244.342555 567.74175 
L 244.342555 24.14175 
" clip-path="url(#pc791b9f211)" style="fill: none; stroke: #ffffff; stroke-width: 0.8; stroke-linecap: square"/>
     </g>
     <g id="line2d_6">
      <g>
       <use xlink:href="#m499495bc37" x="244.342555" y="567.74175" style="fill: #555555; stroke: #555555; stroke-width: 0.8"/>
      </g>
     </g>
     <g id="text_3">
      <!-- 2023-10 -->
      <g style="fill: #555555" transform="translate(231.521273 609.659567)rotate(-45)scale(0.1 -0.1)">
       <defs>
        <path id="DejaVuSans-31" d="M 794 531 
L 1825 531 
L 1825 4091 
L 703 3866 
L 703 4441 
L 1819 4666 
L 2450 4666 
L 2450 531 
L 3481 531 
L 3481 0 
L 794 0 
L 794 531 
z
" transform="scale(0.015625)"/>
       </defs>
       <use xlink:href="#DejaVuSans-32"/>
       <use xlink:href="#DejaVuSans-30" x="63.623047"/>
       <use xlink:href="#DejaVuSans-32" x="127.246094"/>
       <use xlink:href="#DejaVuSans-33" x="190.869141"/>
       <use xlink:href="#DejaVuSans-2d" x="254.492188"/>
       <use xlink:href="#DejaVuSans-31" x="290.576172"/>
       <use xlink:href="#DejaVuSans-30" x="354.199219"/>
      </g>
     </g>
    </g>
    <g id="xtick_4">
     <g id="line2d_7">
      <path d="M 324.308738 567.74175 
L 324.308738 24.14175 
" clip-path="url(#pc791b9f211)" style="fill: none; stroke: #ffffff; stroke-width: 0.8; stroke-linecap: square"/>
     </g>
     <g id="line2d_8">
      <g>
       <use xlink:href="#m499495bc37" x="324.308738" y="567.74175" style="fill: #555555; stroke: #555555; stroke-width: 0.8"/>
      </g>
     </g>
     <g id="text_4">
      <!-- 2023-11 -->
      <g style="fill: #555555" transform="translate(311.487456 609.659567)rotate(-45)scale(0.1 -0.1)">
       <use xlink:href="#DejaVuSans-32"/>
       <use xlink:href="#DejaVuSans-30" x="63.623047"/>
       <use xlink:href="#DejaVuSans-32" x="127.246094"/>
       <use xlink:href="#DejaVuSans-33" x="190.869141"/>
       <use xlink:href="#DejaVuSans-2d" x="254.492188"/>
       <use xlink:href="#DejaVuSans-31" x="290.576172"/>
       <use xlink:href="#DejaVuSans-31" x="354.199219"/>
      </g>
     </g>
    </g>
    <g id="xtick_5">
     <g id="line2d_9">
      <path d="M 401.695366 567.74175 
L 401.695366 24.14175 
" clip-path="url(#pc791b9f211)" style="fill: none; stroke: #ffffff; stroke-width: 0.8; stroke-linecap: square"/>
     </g>
     <g id="line2d_10">
      <g>
       <use xlink:href="#m499495bc37" x="401.695366" y="567.74175" style="fill: #555555; stroke: #555555; stroke-width: 0.8"/>
      </g>
     </g>
     <g id="text_5">
      <!-- 2023-12 -->
      <g style="fill: #555555" transform="translate(388.874084 609.659567)rotate(-45)scale(0.1 -0.1)">
       <use xlink:href="#DejaVuSans-32"/>
       <use xlink:href="#DejaVuSans-30" x="63.623047"/>
       <use xlink:href="#DejaVuSans-32" x="127.246094"/>
       <use xlink:href="#DejaVuSans-33" x="190.869141"/>
       <use xlink:href="#DejaVuSans-2d" x="254.492188"/>
       <use xlink:href="#DejaVuSans-31" x="290.576172"/>
       <use xlink:href="#DejaVuSans-32" x="354.199219"/>
      </g>
     </g>
    </g>
    <g id="xtick_6">
     <g id="line2d_11">
      <path d="M 481.661549 567.74175 
L 481.661549 24.14175 
" clip-path="url(#pc791b9f211)" style="fill: none; stroke: #ffffff; stroke-width: 0.8; stroke-linecap: square"/>
     </g>
     <g id="line2d_12">
      <g>
       <use xlink:href="#m499495bc37" x="481.661549" y="567.74175" style="fill: #555555; stroke: #555555; stroke-width: 0.8"/>
      </g>
     </g>
     <g id="text_6">
      <!-- 2024-01 -->
      <g style="fill: #555555" transform="translate(468.840267 609.659567)rotate(-45)scale(0.1 -0.1)">
       <defs>
        <path id="DejaVuSans-34" d="M 2419 4116 
L 825 1625 
L 2419 1625 
L 2419 4116 
z
M 2253 4666 
L 3047 4666 
L 3047 1625 
L 3713 1625 
L 3713 1100 
L 3047 1100 
L 3047 0 
L 2419 0 
L 2419 1100 
L 313 1100 
L 313 1709 
L 2253 4666 
z
" transform="scale(0.015625)"/>
       </defs>
       <use xlink:href="#DejaVuSans-32"/>
       <use xlink:href="#DejaVuSans-30" x="63.623047"/>
       <use xlink:href="#DejaVuSans-32" x="127.246094"/>
       <use xlink:href="#DejaVuSans-34" x="190.869141"/>
       <use xlink:href="#DejaVuSans-2d" x="254.492188"/>
       <use xlink:href="#DejaVuSans-30" x="290.576172"/>
       <use xlink:href="#DejaVuSans-31" x="354.199219"/>
      </g>
     </g>
    </g>
    <g id="xtick_7">
     <g id="line2d_13">
      <path d="M 561.627732 567.74175 
L 561.627732 24.14175 
" clip-path="url(#pc791b9f211)" style="fill: none; stroke: #ffffff; stroke-width: 0.8; stroke-linecap: square"/>
     </g>
     <g id="line2d_14">
      <g>
       <use xlink:href="#m499495bc37" x="561.627732" y="567.74175" style="fill: #555555; stroke: #555555; stroke-width: 0.8"/>
      </g>
     </g>
     <g id="text_7">
      <!-- 2024-02 -->
      <g style="fill: #555555" transform="translate(548.80645 609.659567)rotate(-45)scale(0.1 -0.1)">
       <use xlink:href="#DejaVuSans-32"/>
       <use xlink:href="#DejaVuSans-30" x="63.623047"/>
       <use xlink:href="#DejaVuSans-32" x="127.246094"/>
       <use xlink:href="#DejaVuSans-34" x="190.869141"/>
       <use xlink:href="#DejaVuSans-2d" x="254.492188"/>
       <use xlink:href="#DejaVuSans-30" x="290.576172"/>
       <use xlink:href="#DejaVuSans-32" x="354.199219"/>
      </g>
     </g>
    </g>
    <g id="xtick_8">
     <g id="line2d_15">
      <path d="M 636.434806 567.74175 
L 636.434806 24.14175 
" clip-path="url(#pc791b9f211)" style="fill: none; stroke: #ffffff; stroke-width: 0.8; stroke-linecap: square"/>
     </g>
     <g id="line2d_16">
      <g>
       <use xlink:href="#m499495bc37" x="636.434806" y="567.74175" style="fill: #555555; stroke: #555555; stroke-width: 0.8"/>
      </g>
     </g>
     <g id="text_8">
      <!-- 2024-03 -->
      <g style="fill: #555555" transform="translate(623.613524 609.659567)rotate(-45)scale(0.1 -0.1)">
       <use xlink:href="#DejaVuSans-32"/>
       <use xlink:href="#DejaVuSans-30" x="63.623047"/>
       <use xlink:href="#DejaVuSans-32" x="127.246094"/>
       <use xlink:href="#DejaVuSans-34" x="190.869141"/>
       <use xlink:href="#DejaVuSans-2d" x="254.492188"/>
       <use xlink:href="#DejaVuSans-30" x="290.576172"/>
       <use xlink:href="#DejaVuSans-33" x="354.199219"/>
      </g>
     </g>
    </g>
    <g id="xtick_9">
     <g id="line2d_17">
      <path d="M 716.400989 567.74175 
L 716.400989 24.14175 
" clip-path="url(#pc791b9f211)" style="fill: none; stroke: #ffffff; stroke-width: 0.8; stroke-linecap: square"/>
     </g>
     <g id="line2d_18">
      <g>
       <use xlink:href="#m499495bc37" x="716.400989" y="567.74175" style="fill: #555555; stroke: #555555; stroke-width: 0.8"/>
      </g>
     </g>
     <g id="text_9">
      <!-- 2024-04 -->
      <g style="fill: #555555" transform="translate(703.579707 609.659567)rotate(-45)scale(0.1 -0.1)">
       <use xlink:href="#DejaVuSans-32"/>
       <use xlink:href="#DejaVuSans-30" x="63.623047"/>
       <use xlink:href="#DejaVuSans-32" x="127.246094"/>
       <use xlink:href="#DejaVuSans-34" x="190.869141"/>
       <use xlink:href="#DejaVuSans-2d" x="254.492188"/>
       <use xlink:href="#DejaVuSans-30" x="290.576172"/>
       <use xlink:href="#DejaVuSans-34" x="354.199219"/>
      </g>
     </g>
    </g>
    <g id="xtick_10">
     <g id="line2d_19">
      <path d="M 793.787618 567.74175 
L 793.787618 24.14175 
" clip-path="url(#pc791b9f211)" style="fill: none; stroke: #ffffff; stroke-width: 0.8; stroke-linecap: square"/>
     </g>
     <g id="line2d_20">
      <g>
       <use xlink:href="#m499495bc37" x="793.787618" y="567.74175" style="fill: #555555; stroke: #555555; stroke-width: 0.8"/>
      </g>
     </g>
     <g id="text_10">
      <!-- 2024-05 -->
      <g style="fill: #555555" transform="translate(780.966336 609.659567)rotate(-45)scale(0.1 -0.1)">
       <defs>
        <path id="DejaVuSans-35" d="M 691 4666 
L 3169 4666 
L 3169 4134 
L 1269 4134 
L 1269 2991 
Q 1406 3038 1543 3061 
Q 1681 3084 1819 3084 
Q 2600 3084 3056 2656 
Q 3513 2228 3513 1497 
Q 3513 744 3044 326 
Q 2575 -91 1722 -91 
Q 1428 -91 1123 -41 
Q 819 9 494 109 
L 494 744 
Q 775 591 1075 516 
Q 1375 441 1709 441 
Q 2250 441 2565 725 
Q 2881 1009 2881 1497 
Q 2881 1984 2565 2268 
Q 2250 2553 1709 2553 
Q 1456 2553 1204 2497 
Q 953 2441 691 2322 
L 691 4666 
z
" transform="scale(0.015625)"/>
       </defs>
       <use xlink:href="#DejaVuSans-32"/>
       <use xlink:href="#DejaVuSans-30" x="63.623047"/>
       <use xlink:href="#DejaVuSans-32" x="127.246094"/>
       <use xlink:href="#DejaVuSans-34" x="190.869141"/>
       <use xlink:href="#DejaVuSans-2d" x="254.492188"/>
       <use xlink:href="#DejaVuSans-30" x="290.576172"/>
       <use xlink:href="#DejaVuSans-35" x="354.199219"/>
      </g>
     </g>
    </g>
    <g id="xtick_11">
     <g id="line2d_21">
      <path d="M 873.753801 567.74175 
L 873.753801 24.14175 
" clip-path="url(#pc791b9f211)" style="fill: none; stroke: #ffffff; stroke-width: 0.8; stroke-linecap: square"/>
     </g>
     <g id="line2d_22">
      <g>
       <use xlink:href="#m499495bc37" x="873.753801" y="567.74175" style="fill: #555555; stroke: #555555; stroke-width: 0.8"/>
      </g>
     </g>
     <g id="text_11">
      <!-- 2024-06 -->
      <g style="fill: #555555" transform="translate(860.932518 609.659567)rotate(-45)scale(0.1 -0.1)">
       <defs>
        <path id="DejaVuSans-36" d="M 2113 2584 
Q 1688 2584 1439 2293 
Q 1191 2003 1191 1497 
Q 1191 994 1439 701 
Q 1688 409 2113 409 
Q 2538 409 2786 701 
Q 3034 994 3034 1497 
Q 3034 2003 2786 2293 
Q 2538 2584 2113 2584 
z
M 3366 4563 
L 3366 3988 
Q 3128 4100 2886 4159 
Q 2644 4219 2406 4219 
Q 1781 4219 1451 3797 
Q 1122 3375 1075 2522 
Q 1259 2794 1537 2939 
Q 1816 3084 2150 3084 
Q 2853 3084 3261 2657 
Q 3669 2231 3669 1497 
Q 3669 778 3244 343 
Q 2819 -91 2113 -91 
Q 1303 -91 875 529 
Q 447 1150 447 2328 
Q 447 3434 972 4092 
Q 1497 4750 2381 4750 
Q 2619 4750 2861 4703 
Q 3103 4656 3366 4563 
z
" transform="scale(0.015625)"/>
       </defs>
       <use xlink:href="#DejaVuSans-32"/>
       <use xlink:href="#DejaVuSans-30" x="63.623047"/>
       <use xlink:href="#DejaVuSans-32" x="127.246094"/>
       <use xlink:href="#DejaVuSans-34" x="190.869141"/>
       <use xlink:href="#DejaVuSans-2d" x="254.492188"/>
       <use xlink:href="#DejaVuSans-30" x="290.576172"/>
       <use xlink:href="#DejaVuSans-36" x="354.199219"/>
      </g>
     </g>
    </g>
    <g id="text_12">
     <!-- Date -->
     <g style="fill: #555555" transform="translate(482.797938 624.248253)scale(0.12 -0.12)">
      <defs>
       <path id="DejaVuSans-44" d="M 1259 4147 
L 1259 519 
L 2022 519 
Q 2988 519 3436 956 
Q 3884 1394 3884 2338 
Q 3884 3275 3436 3711 
Q 2988 4147 2022 4147 
L 1259 4147 
z
M 628 4666 
L 1925 4666 
Q 3281 4666 3915 4102 
Q 4550 3538 4550 2338 
Q 4550 1131 3912 565 
Q 3275 0 1925 0 
L 628 0 
L 628 4666 
z
" transform="scale(0.015625)"/>
       <path id="DejaVuSans-61" d="M 2194 1759 
Q 1497 1759 1228 1600 
Q 959 1441 959 1056 
Q 959 750 1161 570 
Q 1363 391 1709 391 
Q 2188 391 2477 730 
Q 2766 1069 2766 1631 
L 2766 1759 
L 2194 1759 
z
M 3341 1997 
L 3341 0 
L 2766 0 
L 2766 531 
Q 2569 213 2275 61 
Q 1981 -91 1556 -91 
Q 1019 -91 701 211 
Q 384 513 384 1019 
Q 384 1609 779 1909 
Q 1175 2209 1959 2209 
L 2766 2209 
L 2766 2266 
Q 2766 2663 2505 2880 
Q 2244 3097 1772 3097 
Q 1472 3097 1187 3025 
Q 903 2953 641 2809 
L 641 3341 
Q 956 3463 1253 3523 
Q 1550 3584 1831 3584 
Q 2591 3584 2966 3190 
Q 3341 2797 3341 1997 
z
" transform="scale(0.015625)"/>
       <path id="DejaVuSans-74" d="M 1172 4494 
L 1172 3500 
L 2356 3500 
L 2356 3053 
L 1172 3053 
L 1172 1153 
Q 1172 725 1289 603 
Q 1406 481 1766 481 
L 2356 481 
L 2356 0 
L 1766 0 
Q 1100 0 847 248 
Q 594 497 594 1153 
L 594 3053 
L 172 3053 
L 172 3500 
L 594 3500 
L 594 4494 
L 1172 4494 
z
" transform="scale(0.015625)"/>
       <path id="DejaVuSans-65" d="M 3597 1894 
L 3597 1613 
L 953 1613 
Q 991 1019 1311 708 
Q 1631 397 2203 397 
Q 2534 397 2845 478 
Q 3156 559 3463 722 
L 3463 178 
Q 3153 47 2828 -22 
Q 2503 -91 2169 -91 
Q 1331 -91 842 396 
Q 353 884 353 1716 
Q 353 2575 817 3079 
Q 1281 3584 2069 3584 
Q 2775 3584 3186 3129 
Q 3597 2675 3597 1894 
z
M 3022 2063 
Q 3016 2534 2758 2815 
Q 2500 3097 2075 3097 
Q 1594 3097 1305 2825 
Q 1016 2553 972 2059 
L 3022 2063 
z
" transform="scale(0.015625)"/>
      </defs>
      <use xlink:href="#DejaVuSans-44"/>
      <use xlink:href="#DejaVuSans-61" x="77.001953"/>
      <use xlink:href="#DejaVuSans-74" x="138.28125"/>
      <use xlink:href="#DejaVuSans-65" x="177.490234"/>
     </g>
    </g>
   </g>
   <g id="matplotlib.axis_2">
    <g id="ytick_1">
     <g id="line2d_23">
      <path d="M 45.716875 567.74175 
L 948.560875 567.74175 
" clip-path="url(#pc791b9f211)" style="fill: none; stroke: #ffffff; stroke-width: 0.8; stroke-linecap: square"/>
     </g>
     <g id="line2d_24">
      <defs>
       <path id="mfa76916f72" d="M 0 0 
L -3.5 0 
" style="stroke: #555555; stroke-width: 0.8"/>
      </defs>
      <g>
       <use xlink:href="#mfa76916f72" x="45.716875" y="567.74175" style="fill: #555555; stroke: #555555; stroke-width: 0.8"/>
      </g>
     </g>
     <g id="text_13">
      <!-- 0.0 -->
      <g style="fill: #555555" transform="translate(22.81375 571.540969)scale(0.1 -0.1)">
       <defs>
        <path id="DejaVuSans-2e" d="M 684 794 
L 1344 794 
L 1344 0 
L 684 0 
L 684 794 
z
" transform="scale(0.015625)"/>
       </defs>
       <use xlink:href="#DejaVuSans-30"/>
       <use xlink:href="#DejaVuSans-2e" x="63.623047"/>
       <use xlink:href="#DejaVuSans-30" x="95.410156"/>
      </g>
     </g>
    </g>
    <g id="ytick_2">
     <g id="line2d_25">
      <path d="M 45.716875 459.01417 
L 948.560875 459.01417 
" clip-path="url(#pc791b9f211)" style="fill: none; stroke: #ffffff; stroke-width: 0.8; stroke-linecap: square"/>
     </g>
     <g id="line2d_26">
      <g>
       <use xlink:href="#mfa76916f72" x="45.716875" y="459.01417" style="fill: #555555; stroke: #555555; stroke-width: 0.8"/>
      </g>
     </g>
     <g id="text_14">
      <!-- 0.2 -->
      <g style="fill: #555555" transform="translate(22.81375 462.813389)scale(0.1 -0.1)">
       <use xlink:href="#DejaVuSans-30"/>
       <use xlink:href="#DejaVuSans-2e" x="63.623047"/>
       <use xlink:href="#DejaVuSans-32" x="95.410156"/>
      </g>
     </g>
    </g>
    <g id="ytick_3">
     <g id="line2d_27">
      <path d="M 45.716875 350.28659 
L 948.560875 350.28659 
" clip-path="url(#pc791b9f211)" style="fill: none; stroke: #ffffff; stroke-width: 0.8; stroke-linecap: square"/>
     </g>
     <g id="line2d_28">
      <g>
       <use xlink:href="#mfa76916f72" x="45.716875" y="350.28659" style="fill: #555555; stroke: #555555; stroke-width: 0.8"/>
      </g>
     </g>
     <g id="text_15">
      <!-- 0.4 -->
      <g style="fill: #555555" transform="translate(22.81375 354.085809)scale(0.1 -0.1)">
       <use xlink:href="#DejaVuSans-30"/>
       <use xlink:href="#DejaVuSans-2e" x="63.623047"/>
       <use xlink:href="#DejaVuSans-34" x="95.410156"/>
      </g>
     </g>
    </g>
    <g id="ytick_4">
     <g id="line2d_29">
      <path d="M 45.716875 241.55901 
L 948.560875 241.55901 
" clip-path="url(#pc791b9f211)" style="fill: none; stroke: #ffffff; stroke-width: 0.8; stroke-linecap: square"/>
     </g>
     <g id="line2d_30">
      <g>
       <use xlink:href="#mfa76916f72" x="45.716875" y="241.55901" style="fill: #555555; stroke: #555555; stroke-width: 0.8"/>
      </g>
     </g>
     <g id="text_16">
      <!-- 0.6 -->
      <g style="fill: #555555" transform="translate(22.81375 245.358229)scale(0.1 -0.1)">
       <use xlink:href="#DejaVuSans-30"/>
       <use xlink:href="#DejaVuSans-2e" x="63.623047"/>
       <use xlink:href="#DejaVuSans-36" x="95.410156"/>
      </g>
     </g>
    </g>
    <g id="ytick_5">
     <g id="line2d_31">
      <path d="M 45.716875 132.83143 
L 948.560875 132.83143 
" clip-path="url(#pc791b9f211)" style="fill: none; stroke: #ffffff; stroke-width: 0.8; stroke-linecap: square"/>
     </g>
     <g id="line2d_32">
      <g>
       <use xlink:href="#mfa76916f72" x="45.716875" y="132.83143" style="fill: #555555; stroke: #555555; stroke-width: 0.8"/>
      </g>
     </g>
     <g id="text_17">
      <!-- 0.8 -->
      <g style="fill: #555555" transform="translate(22.81375 136.630649)scale(0.1 -0.1)">
       <use xlink:href="#DejaVuSans-30"/>
       <use xlink:href="#DejaVuSans-2e" x="63.623047"/>
       <use xlink:href="#DejaVuSans-38" x="95.410156"/>
      </g>
     </g>
    </g>
    <g id="text_18">
     <!-- Share of Instances -->
     <g style="fill: #555555" transform="translate(16.318125 351.497062)rotate(-90)scale(0.12 -0.12)">
      <defs>
       <path id="DejaVuSans-53" d="M 3425 4513 
L 3425 3897 
Q 3066 4069 2747 4153 
Q 2428 4238 2131 4238 
Q 1616 4238 1336 4038 
Q 1056 3838 1056 3469 
Q 1056 3159 1242 3001 
Q 1428 2844 1947 2747 
L 2328 2669 
Q 3034 2534 3370 2195 
Q 3706 1856 3706 1288 
Q 3706 609 3251 259 
Q 2797 -91 1919 -91 
Q 1588 -91 1214 -16 
Q 841 59 441 206 
L 441 856 
Q 825 641 1194 531 
Q 1563 422 1919 422 
Q 2459 422 2753 634 
Q 3047 847 3047 1241 
Q 3047 1584 2836 1778 
Q 2625 1972 2144 2069 
L 1759 2144 
Q 1053 2284 737 2584 
Q 422 2884 422 3419 
Q 422 4038 858 4394 
Q 1294 4750 2059 4750 
Q 2388 4750 2728 4690 
Q 3069 4631 3425 4513 
z
" transform="scale(0.015625)"/>
       <path id="DejaVuSans-68" d="M 3513 2113 
L 3513 0 
L 2938 0 
L 2938 2094 
Q 2938 2591 2744 2837 
Q 2550 3084 2163 3084 
Q 1697 3084 1428 2787 
Q 1159 2491 1159 1978 
L 1159 0 
L 581 0 
L 581 4863 
L 1159 4863 
L 1159 2956 
Q 1366 3272 1645 3428 
Q 1925 3584 2291 3584 
Q 2894 3584 3203 3211 
Q 3513 2838 3513 2113 
z
" transform="scale(0.015625)"/>
       <path id="DejaVuSans-72" d="M 2631 2963 
Q 2534 3019 2420 3045 
Q 2306 3072 2169 3072 
Q 1681 3072 1420 2755 
Q 1159 2438 1159 1844 
L 1159 0 
L 581 0 
L 581 3500 
L 1159 3500 
L 1159 2956 
Q 1341 3275 1631 3429 
Q 1922 3584 2338 3584 
Q 2397 3584 2469 3576 
Q 2541 3569 2628 3553 
L 2631 2963 
z
" transform="scale(0.015625)"/>
       <path id="DejaVuSans-20" transform="scale(0.015625)"/>
       <path id="DejaVuSans-6f" d="M 1959 3097 
Q 1497 3097 1228 2736 
Q 959 2375 959 1747 
Q 959 1119 1226 758 
Q 1494 397 1959 397 
Q 2419 397 2687 759 
Q 2956 1122 2956 1747 
Q 2956 2369 2687 2733 
Q 2419 3097 1959 3097 
z
M 1959 3584 
Q 2709 3584 3137 3096 
Q 3566 2609 3566 1747 
Q 3566 888 3137 398 
Q 2709 -91 1959 -91 
Q 1206 -91 779 398 
Q 353 888 353 1747 
Q 353 2609 779 3096 
Q 1206 3584 1959 3584 
z
" transform="scale(0.015625)"/>
       <path id="DejaVuSans-66" d="M 2375 4863 
L 2375 4384 
L 1825 4384 
Q 1516 4384 1395 4259 
Q 1275 4134 1275 3809 
L 1275 3500 
L 2222 3500 
L 2222 3053 
L 1275 3053 
L 1275 0 
L 697 0 
L 697 3053 
L 147 3053 
L 147 3500 
L 697 3500 
L 697 3744 
Q 697 4328 969 4595 
Q 1241 4863 1831 4863 
L 2375 4863 
z
" transform="scale(0.015625)"/>
       <path id="DejaVuSans-49" d="M 628 4666 
L 1259 4666 
L 1259 0 
L 628 0 
L 628 4666 
z
" transform="scale(0.015625)"/>
       <path id="DejaVuSans-6e" d="M 3513 2113 
L 3513 0 
L 2938 0 
L 2938 2094 
Q 2938 2591 2744 2837 
Q 2550 3084 2163 3084 
Q 1697 3084 1428 2787 
Q 1159 2491 1159 1978 
L 1159 0 
L 581 0 
L 581 3500 
L 1159 3500 
L 1159 2956 
Q 1366 3272 1645 3428 
Q 1925 3584 2291 3584 
Q 2894 3584 3203 3211 
Q 3513 2838 3513 2113 
z
" transform="scale(0.015625)"/>
       <path id="DejaVuSans-73" d="M 2834 3397 
L 2834 2853 
Q 2591 2978 2328 3040 
Q 2066 3103 1784 3103 
Q 1356 3103 1142 2972 
Q 928 2841 928 2578 
Q 928 2378 1081 2264 
Q 1234 2150 1697 2047 
L 1894 2003 
Q 2506 1872 2764 1633 
Q 3022 1394 3022 966 
Q 3022 478 2636 193 
Q 2250 -91 1575 -91 
Q 1294 -91 989 -36 
Q 684 19 347 128 
L 347 722 
Q 666 556 975 473 
Q 1284 391 1588 391 
Q 1994 391 2212 530 
Q 2431 669 2431 922 
Q 2431 1156 2273 1281 
Q 2116 1406 1581 1522 
L 1381 1569 
Q 847 1681 609 1914 
Q 372 2147 372 2553 
Q 372 3047 722 3315 
Q 1072 3584 1716 3584 
Q 2034 3584 2315 3537 
Q 2597 3491 2834 3397 
z
" transform="scale(0.015625)"/>
       <path id="DejaVuSans-63" d="M 3122 3366 
L 3122 2828 
Q 2878 2963 2633 3030 
Q 2388 3097 2138 3097 
Q 1578 3097 1268 2742 
Q 959 2388 959 1747 
Q 959 1106 1268 751 
Q 1578 397 2138 397 
Q 2388 397 2633 464 
Q 2878 531 3122 666 
L 3122 134 
Q 2881 22 2623 -34 
Q 2366 -91 2075 -91 
Q 1284 -91 818 406 
Q 353 903 353 1747 
Q 353 2603 823 3093 
Q 1294 3584 2113 3584 
Q 2378 3584 2631 3529 
Q 2884 3475 3122 3366 
z
" transform="scale(0.015625)"/>
      </defs>
      <use xlink:href="#DejaVuSans-53"/>
      <use xlink:href="#DejaVuSans-68" x="63.476562"/>
      <use xlink:href="#DejaVuSans-61" x="126.855469"/>
      <use xlink:href="#DejaVuSans-72" x="188.134766"/>
      <use xlink:href="#DejaVuSans-65" x="226.998047"/>
      <use xlink:href="#DejaVuSans-20" x="288.521484"/>
      <use xlink:href="#DejaVuSans-6f" x="320.308594"/>
      <use xlink:href="#DejaVuSans-66" x="381.490234"/>
      <use xlink:href="#DejaVuSans-20" x="416.695312"/>
      <use xlink:href="#DejaVuSans-49" x="448.482422"/>
      <use xlink:href="#DejaVuSans-6e" x="477.974609"/>
      <use xlink:href="#DejaVuSans-73" x="541.353516"/>
      <use xlink:href="#DejaVuSans-74" x="593.453125"/>
      <use xlink:href="#DejaVuSans-61" x="632.662109"/>
      <use xlink:href="#DejaVuSans-6e" x="693.941406"/>
      <use xlink:href="#DejaVuSans-63" x="757.320312"/>
      <use xlink:href="#DejaVuSans-65" x="812.300781"/>
      <use xlink:href="#DejaVuSans-73" x="873.824219"/>
     </g>
    </g>
   </g>
   <g id="PolyCollection_1">
    <path d="M 45.716875 567.74175 
L 45.716875 567.74175 
L 63.773755 567.74175 
L 81.830635 567.74175 
L 99.887515 567.74175 
L 117.944395 567.74175 
L 136.001275 567.74175 
L 154.058155 567.74175 
L 172.115035 567.74175 
L 190.171915 567.74175 
L 208.228795 567.74175 
L 226.285675 567.74175 
L 244.342555 567.74175 
L 298.513195 567.74175 
L 316.570075 567.74175 
L 334.626955 567.74175 
L 352.683835 567.74175 
L 370.740715 567.74175 
L 388.797595 567.74175 
L 406.854475 567.74175 
L 424.911355 567.74175 
L 442.968235 567.74175 
L 461.025115 567.74175 
L 479.081995 567.74175 
L 497.138875 567.74175 
L 515.195755 567.74175 
L 533.252635 567.74175 
L 551.309515 567.74175 
L 569.366395 567.74175 
L 587.423275 567.74175 
L 605.480155 567.74175 
L 623.537035 567.74175 
L 641.593915 567.74175 
L 659.650795 567.74175 
L 677.707675 567.74175 
L 695.764555 567.74175 
L 713.821435 567.74175 
L 731.878315 567.74175 
L 749.935195 567.74175 
L 767.992075 567.74175 
L 786.048955 567.74175 
L 804.105835 567.74175 
L 822.162715 567.74175 
L 840.219595 567.74175 
L 858.276475 567.74175 
L 876.333355 567.74175 
L 894.390235 567.74175 
L 912.447115 567.74175 
L 930.503995 567.74175 
L 948.560875 567.74175 
L 948.560875 472.972081 
L 948.560875 472.972081 
L 930.503995 478.979997 
L 912.447115 481.409597 
L 894.390235 488.411176 
L 876.333355 497.028786 
L 858.276475 500.891717 
L 840.219595 507.213535 
L 822.162715 515.266923 
L 804.105835 524.080132 
L 786.048955 536.381701 
L 767.992075 561.243476 
L 749.935195 567.740175 
L 731.878315 567.74175 
L 713.821435 567.74175 
L 695.764555 567.74175 
L 677.707675 567.74175 
L 659.650795 567.74175 
L 641.593915 567.74175 
L 623.537035 567.74175 
L 605.480155 567.74175 
L 587.423275 567.74175 
L 569.366395 567.74175 
L 551.309515 567.74175 
L 533.252635 567.74175 
L 515.195755 567.74175 
L 497.138875 567.74175 
L 479.081995 567.74175 
L 461.025115 567.74175 
L 442.968235 567.74175 
L 424.911355 567.74175 
L 406.854475 567.74175 
L 388.797595 567.74175 
L 370.740715 567.74175 
L 352.683835 567.74175 
L 334.626955 567.74175 
L 316.570075 567.74175 
L 298.513195 567.74175 
L 244.342555 567.74175 
L 226.285675 567.74175 
L 208.228795 567.74175 
L 190.171915 567.74175 
L 172.115035 567.74175 
L 154.058155 567.74175 
L 136.001275 567.74175 
L 117.944395 567.74175 
L 99.887515 567.74175 
L 81.830635 567.74175 
L 63.773755 567.74175 
L 45.716875 567.74175 
z
" clip-path="url(#pc791b9f211)" style="fill: #e24a33"/>
   </g>
   <g id="PolyCollection_2">
    <path d="M 45.716875 567.74175 
L 45.716875 567.74175 
L 63.773755 567.74175 
L 81.830635 567.74175 
L 99.887515 567.74175 
L 117.944395 567.74175 
L 136.001275 567.74175 
L 154.058155 567.74175 
L 172.115035 567.74175 
L 190.171915 567.74175 
L 208.228795 567.74175 
L 226.285675 567.74175 
L 244.342555 567.74175 
L 298.513195 567.74175 
L 316.570075 567.74175 
L 334.626955 567.74175 
L 352.683835 567.74175 
L 370.740715 567.74175 
L 388.797595 567.74175 
L 406.854475 567.74175 
L 424.911355 567.74175 
L 442.968235 567.74175 
L 461.025115 567.74175 
L 479.081995 567.74175 
L 497.138875 567.74175 
L 515.195755 567.74175 
L 533.252635 567.74175 
L 551.309515 567.74175 
L 569.366395 567.74175 
L 587.423275 567.74175 
L 605.480155 567.74175 
L 623.537035 567.74175 
L 641.593915 567.74175 
L 659.650795 567.74175 
L 677.707675 567.74175 
L 695.764555 567.74175 
L 713.821435 567.74175 
L 731.878315 567.74175 
L 749.935195 567.740175 
L 767.992075 561.243476 
L 786.048955 536.381701 
L 804.105835 524.080132 
L 822.162715 515.266923 
L 840.219595 507.213535 
L 858.276475 500.891717 
L 876.333355 497.028786 
L 894.390235 488.411176 
L 912.447115 481.409597 
L 930.503995 478.979997 
L 948.560875 472.972081 
L 948.560875 417.72287 
L 948.560875 417.72287 
L 930.503995 420.87202 
L 912.447115 419.930287 
L 894.390235 424.53986 
L 876.333355 433.160933 
L 858.276475 431.748411 
L 840.219595 434.209312 
L 822.162715 434.349368 
L 804.105835 436.266624 
L 786.048955 437.878089 
L 767.992075 441.513777 
L 749.935195 447.227609 
L 731.878315 449.153976 
L 713.821435 454.002736 
L 695.764555 458.168252 
L 677.707675 462.967174 
L 659.650795 460.657382 
L 641.593915 464.683292 
L 623.537035 466.974138 
L 605.480155 471.432545 
L 587.423275 471.108003 
L 569.366395 475.543735 
L 551.309515 481.574537 
L 533.252635 481.346906 
L 515.195755 483.55798 
L 497.138875 489.393145 
L 479.081995 495.10617 
L 461.025115 499.816167 
L 442.968235 502.929869 
L 424.911355 507.00398 
L 406.854475 510.088962 
L 388.797595 515.754633 
L 370.740715 520.027866 
L 352.683835 531.883938 
L 334.626955 551.47688 
L 316.570075 567.691345 
L 298.513195 567.740847 
L 244.342555 567.74175 
L 226.285675 567.74175 
L 208.228795 567.74175 
L 190.171915 567.74175 
L 172.115035 567.74175 
L 154.058155 567.74175 
L 136.001275 567.74175 
L 117.944395 567.74175 
L 99.887515 567.74175 
L 81.830635 567.74175 
L 63.773755 567.74175 
L 45.716875 567.74175 
z
" clip-path="url(#pc791b9f211)" style="fill: #348abd"/>
   </g>
   <g id="PolyCollection_3">
    <path d="M 45.716875 477.524024 
L 45.716875 567.74175 
L 63.773755 567.74175 
L 81.830635 567.74175 
L 99.887515 567.74175 
L 117.944395 567.74175 
L 136.001275 567.74175 
L 154.058155 567.74175 
L 172.115035 567.74175 
L 190.171915 567.74175 
L 208.228795 567.74175 
L 226.285675 567.74175 
L 244.342555 567.74175 
L 298.513195 567.740847 
L 316.570075 567.691345 
L 334.626955 551.47688 
L 352.683835 531.883938 
L 370.740715 520.027866 
L 388.797595 515.754633 
L 406.854475 510.088962 
L 424.911355 507.00398 
L 442.968235 502.929869 
L 461.025115 499.816167 
L 479.081995 495.10617 
L 497.138875 489.393145 
L 515.195755 483.55798 
L 533.252635 481.346906 
L 551.309515 481.574537 
L 569.366395 475.543735 
L 587.423275 471.108003 
L 605.480155 471.432545 
L 623.537035 466.974138 
L 641.593915 464.683292 
L 659.650795 460.657382 
L 677.707675 462.967174 
L 695.764555 458.168252 
L 713.821435 454.002736 
L 731.878315 449.153976 
L 749.935195 447.227609 
L 767.992075 441.513777 
L 786.048955 437.878089 
L 804.105835 436.266624 
L 822.162715 434.349368 
L 840.219595 434.209312 
L 858.276475 431.748411 
L 876.333355 433.160933 
L 894.390235 424.53986 
L 912.447115 419.930287 
L 930.503995 420.87202 
L 948.560875 417.72287 
L 948.560875 389.282434 
L 948.560875 389.282434 
L 930.503995 392.37959 
L 912.447115 390.23287 
L 894.390235 394.56308 
L 876.333355 404.264011 
L 858.276475 402.801563 
L 840.219595 404.575889 
L 822.162715 403.807588 
L 804.105835 404.615102 
L 786.048955 405.25049 
L 767.992075 408.514002 
L 749.935195 413.670384 
L 731.878315 415.17405 
L 713.821435 418.930091 
L 695.764555 422.220381 
L 677.707675 425.485944 
L 659.650795 418.026656 
L 641.593915 423.345696 
L 623.537035 423.569169 
L 605.480155 427.78284 
L 587.423275 423.873086 
L 569.366395 426.213559 
L 551.309515 430.97096 
L 533.252635 427.006469 
L 515.195755 427.286725 
L 497.138875 430.417479 
L 479.081995 432.075525 
L 461.025115 437.480919 
L 442.968235 439.9121 
L 424.911355 442.167401 
L 406.854475 439.916624 
L 388.797595 443.525805 
L 370.740715 442.113855 
L 352.683835 443.580943 
L 334.626955 450.891519 
L 316.570075 453.523904 
L 298.513195 457.276499 
L 244.342555 462.387554 
L 226.285675 461.690946 
L 208.228795 461.603559 
L 190.171915 461.545004 
L 172.115035 466.832765 
L 154.058155 471.785318 
L 136.001275 468.846792 
L 117.944395 470.578782 
L 99.887515 472.510877 
L 81.830635 474.568744 
L 63.773755 474.004706 
L 45.716875 477.524024 
z
" clip-path="url(#pc791b9f211)" style="fill: #988ed5"/>
   </g>
   <g id="PolyCollection_4">
    <path d="M 45.716875 435.999185 
L 45.716875 477.524024 
L 63.773755 474.004706 
L 81.830635 474.568744 
L 99.887515 472.510877 
L 117.944395 470.578782 
L 136.001275 468.846792 
L 154.058155 471.785318 
L 172.115035 466.832765 
L 190.171915 461.545004 
L 208.228795 461.603559 
L 226.285675 461.690946 
L 244.342555 462.387554 
L 298.513195 457.276499 
L 316.570075 453.523904 
L 334.626955 450.891519 
L 352.683835 443.580943 
L 370.740715 442.113855 
L 388.797595 443.525805 
L 406.854475 439.916624 
L 424.911355 442.167401 
L 442.968235 439.9121 
L 461.025115 437.480919 
L 479.081995 432.075525 
L 497.138875 430.417479 
L 515.195755 427.286725 
L 533.252635 427.006469 
L 551.309515 430.97096 
L 569.366395 426.213559 
L 587.423275 423.873086 
L 605.480155 427.78284 
L 623.537035 423.569169 
L 641.593915 423.345696 
L 659.650795 418.026656 
L 677.707675 425.485944 
L 695.764555 422.220381 
L 713.821435 418.930091 
L 731.878315 415.17405 
L 749.935195 413.670384 
L 767.992075 408.514002 
L 786.048955 405.25049 
L 804.105835 404.615102 
L 822.162715 403.807588 
L 840.219595 404.575889 
L 858.276475 402.801563 
L 876.333355 404.264011 
L 894.390235 394.56308 
L 912.447115 390.23287 
L 930.503995 392.37959 
L 948.560875 389.282434 
L 948.560875 377.502567 
L 948.560875 377.502567 
L 930.503995 380.513386 
L 912.447115 377.730943 
L 894.390235 382.149427 
L 876.333355 392.014256 
L 858.276475 389.971872 
L 840.219595 391.582937 
L 822.162715 390.279967 
L 804.105835 390.680615 
L 786.048955 390.921792 
L 767.992075 394.030625 
L 749.935195 398.810165 
L 731.878315 400.621225 
L 713.821435 404.131569 
L 695.764555 407.405411 
L 677.707675 410.8307 
L 659.650795 402.366898 
L 641.593915 407.679569 
L 623.537035 407.046192 
L 605.480155 411.442652 
L 587.423275 406.492524 
L 569.366395 408.33761 
L 551.309515 412.717587 
L 533.252635 407.655562 
L 515.195755 407.759172 
L 497.138875 410.527249 
L 479.081995 411.820929 
L 461.025115 416.501097 
L 442.968235 418.184879 
L 424.911355 419.633123 
L 406.854475 417.245011 
L 388.797595 420.717686 
L 370.740715 418.624771 
L 352.683835 419.830775 
L 334.626955 426.828694 
L 316.570075 426.340272 
L 298.513195 427.874614 
L 244.342555 430.899696 
L 226.285675 429.656289 
L 208.228795 428.694467 
L 190.171915 427.567835 
L 172.115035 432.621554 
L 154.058155 435.838 
L 136.001275 430.836091 
L 117.944395 431.169002 
L 99.887515 432.32672 
L 81.830635 434.305073 
L 63.773755 432.725243 
L 45.716875 435.999185 
z
" clip-path="url(#pc791b9f211)" style="fill: #777777"/>
   </g>
   <g id="PolyCollection_5">
    <path d="M 45.716875 427.21779 
L 45.716875 435.999185 
L 63.773755 432.725243 
L 81.830635 434.305073 
L 99.887515 432.32672 
L 117.944395 431.169002 
L 136.001275 430.836091 
L 154.058155 435.838 
L 172.115035 432.621554 
L 190.171915 427.567835 
L 208.228795 428.694467 
L 226.285675 429.656289 
L 244.342555 430.899696 
L 298.513195 427.874614 
L 316.570075 426.340272 
L 334.626955 426.828694 
L 352.683835 419.830775 
L 370.740715 418.624771 
L 388.797595 420.717686 
L 406.854475 417.245011 
L 424.911355 419.633123 
L 442.968235 418.184879 
L 461.025115 416.501097 
L 479.081995 411.820929 
L 497.138875 410.527249 
L 515.195755 407.759172 
L 533.252635 407.655562 
L 551.309515 412.717587 
L 569.366395 408.33761 
L 587.423275 406.492524 
L 605.480155 411.442652 
L 623.537035 407.046192 
L 641.593915 407.679569 
L 659.650795 402.366898 
L 677.707675 410.8307 
L 695.764555 407.405411 
L 713.821435 404.131569 
L 731.878315 400.621225 
L 749.935195 398.810165 
L 767.992075 394.030625 
L 786.048955 390.921792 
L 804.105835 390.680615 
L 822.162715 390.279967 
L 840.219595 391.582937 
L 858.276475 389.971872 
L 876.333355 392.014256 
L 894.390235 382.149427 
L 912.447115 377.730943 
L 930.503995 380.513386 
L 948.560875 377.502567 
L 948.560875 374.23486 
L 948.560875 374.23486 
L 930.503995 377.278773 
L 912.447115 374.33371 
L 894.390235 378.644145 
L 876.333355 388.706125 
L 858.276475 386.493927 
L 840.219595 388.034577 
L 822.162715 386.67125 
L 804.105835 386.932 
L 786.048955 387.067825 
L 767.992075 390.146469 
L 749.935195 394.919419 
L 731.878315 396.690114 
L 713.821435 400.171409 
L 695.764555 403.326488 
L 677.707675 406.733349 
L 659.650795 398.066787 
L 641.593915 403.444947 
L 623.537035 402.621752 
L 605.480155 407.056321 
L 587.423275 401.842305 
L 569.366395 403.599981 
L 551.309515 407.974413 
L 533.252635 402.576215 
L 515.195755 402.64356 
L 497.138875 405.372659 
L 479.081995 406.529562 
L 461.025115 411.047846 
L 442.968235 412.553116 
L 424.911355 413.852551 
L 406.854475 411.431632 
L 388.797595 414.92676 
L 370.740715 412.664061 
L 352.683835 413.824052 
L 334.626955 420.80737 
L 316.570075 420.069702 
L 298.513195 421.450722 
L 244.342555 423.753972 
L 226.285675 422.484726 
L 208.228795 421.343623 
L 190.171915 420.019615 
L 172.115035 425.027251 
L 154.058155 427.956346 
L 136.001275 422.844388 
L 117.944395 422.983394 
L 99.887515 424.034799 
L 81.830635 425.977792 
L 63.773755 424.216831 
L 45.716875 427.21779 
z
" clip-path="url(#pc791b9f211)" style="fill: #fbc15e"/>
   </g>
   <g id="PolyCollection_6">
    <path d="M 45.716875 427.21779 
L 45.716875 427.21779 
L 63.773755 424.216831 
L 81.830635 425.977792 
L 99.887515 424.034799 
L 117.944395 422.983394 
L 136.001275 422.844388 
L 154.058155 427.956346 
L 172.115035 425.027251 
L 190.171915 420.019615 
L 208.228795 421.343623 
L 226.285675 422.484726 
L 244.342555 423.753972 
L 298.513195 421.450722 
L 316.570075 420.069702 
L 334.626955 420.80737 
L 352.683835 413.824052 
L 370.740715 412.664061 
L 388.797595 414.92676 
L 406.854475 411.431632 
L 424.911355 413.852551 
L 442.968235 412.553116 
L 461.025115 411.047846 
L 479.081995 406.529562 
L 497.138875 405.372659 
L 515.195755 402.64356 
L 533.252635 402.576215 
L 551.309515 407.974413 
L 569.366395 403.599981 
L 587.423275 401.842305 
L 605.480155 407.056321 
L 623.537035 402.621752 
L 641.593915 403.444947 
L 659.650795 398.066787 
L 677.707675 406.733349 
L 695.764555 403.326488 
L 713.821435 400.171409 
L 731.878315 396.690114 
L 749.935195 394.919419 
L 767.992075 390.146469 
L 786.048955 387.067825 
L 804.105835 386.932 
L 822.162715 386.67125 
L 840.219595 388.034577 
L 858.276475 386.493927 
L 876.333355 388.706125 
L 894.390235 378.644145 
L 912.447115 374.33371 
L 930.503995 377.278773 
L 948.560875 374.23486 
L 948.560875 276.218624 
L 948.560875 276.218624 
L 930.503995 292.581538 
L 912.447115 296.184812 
L 894.390235 306.629967 
L 876.333355 325.34809 
L 858.276475 325.941287 
L 840.219595 347.944916 
L 822.162715 380.973928 
L 804.105835 386.931121 
L 786.048955 387.067825 
L 767.992075 390.146469 
L 749.935195 394.919419 
L 731.878315 396.689595 
L 713.821435 400.170093 
L 695.764555 403.326356 
L 677.707675 406.733349 
L 659.650795 398.066787 
L 641.593915 403.444947 
L 623.537035 402.621752 
L 605.480155 407.056321 
L 587.423275 401.842305 
L 569.366395 403.599981 
L 551.309515 407.974413 
L 533.252635 402.576215 
L 515.195755 402.64356 
L 497.138875 405.372659 
L 479.081995 406.529562 
L 461.025115 411.047846 
L 442.968235 412.553116 
L 424.911355 413.852551 
L 406.854475 411.431632 
L 388.797595 414.92676 
L 370.740715 412.664061 
L 352.683835 413.824052 
L 334.626955 420.80737 
L 316.570075 420.069702 
L 298.513195 421.450722 
L 244.342555 423.753972 
L 226.285675 422.484726 
L 208.228795 421.343623 
L 190.171915 420.019615 
L 172.115035 425.027251 
L 154.058155 427.956346 
L 136.001275 422.844388 
L 117.944395 422.983394 
L 99.887515 424.034799 
L 81.830635 425.977792 
L 63.773755 424.216831 
L 45.716875 427.21779 
z
" clip-path="url(#pc791b9f211)" style="fill: #8eba42"/>
   </g>
   <g id="PolyCollection_7">
    <path d="M 45.716875 427.21779 
L 45.716875 427.21779 
L 63.773755 424.216831 
L 81.830635 425.977792 
L 99.887515 424.034799 
L 117.944395 422.983394 
L 136.001275 422.844388 
L 154.058155 427.956346 
L 172.115035 425.027251 
L 190.171915 420.019615 
L 208.228795 421.343623 
L 226.285675 422.484726 
L 244.342555 423.753972 
L 298.513195 421.450722 
L 316.570075 420.069702 
L 334.626955 420.80737 
L 352.683835 413.824052 
L 370.740715 412.664061 
L 388.797595 414.92676 
L 406.854475 411.431632 
L 424.911355 413.852551 
L 442.968235 412.553116 
L 461.025115 411.047846 
L 479.081995 406.529562 
L 497.138875 405.372659 
L 515.195755 402.64356 
L 533.252635 402.576215 
L 551.309515 407.974413 
L 569.366395 403.599981 
L 587.423275 401.842305 
L 605.480155 407.056321 
L 623.537035 402.621752 
L 641.593915 403.444947 
L 659.650795 398.066787 
L 677.707675 406.733349 
L 695.764555 403.326356 
L 713.821435 400.170093 
L 731.878315 396.689595 
L 749.935195 394.919419 
L 767.992075 390.146469 
L 786.048955 387.067825 
L 804.105835 386.931121 
L 822.162715 380.973928 
L 840.219595 347.944916 
L 858.276475 325.941287 
L 876.333355 325.34809 
L 894.390235 306.629967 
L 912.447115 296.184812 
L 930.503995 292.581538 
L 948.560875 276.218624 
L 948.560875 198.089959 
L 948.560875 198.089959 
L 930.503995 205.8057 
L 912.447115 201.267058 
L 894.390235 204.365463 
L 876.333355 220.848726 
L 858.276475 217.436526 
L 840.219595 225.679128 
L 822.162715 226.165855 
L 804.105835 227.009528 
L 786.048955 230.195608 
L 767.992075 234.707754 
L 749.935195 233.788756 
L 731.878315 235.170656 
L 713.821435 243.797674 
L 695.764555 246.482241 
L 677.707675 248.377907 
L 659.650795 249.772119 
L 641.593915 258.780797 
L 623.537035 257.307316 
L 605.480155 250.561409 
L 587.423275 264.84724 
L 569.366395 267.461668 
L 551.309515 282.141071 
L 533.252635 281.948952 
L 515.195755 285.64007 
L 497.138875 294.997012 
L 479.081995 301.009785 
L 461.025115 304.024602 
L 442.968235 312.073572 
L 424.911355 320.43632 
L 406.854475 324.074146 
L 388.797595 331.908944 
L 370.740715 342.071439 
L 352.683835 361.027441 
L 334.626955 402.930429 
L 316.570075 420.068277 
L 298.513195 421.450722 
L 244.342555 423.753972 
L 226.285675 422.484142 
L 208.228795 421.343029 
L 190.171915 420.019615 
L 172.115035 425.027051 
L 154.058155 427.956346 
L 136.001275 422.844388 
L 117.944395 422.983394 
L 99.887515 424.034799 
L 81.830635 425.977792 
L 63.773755 424.216831 
L 45.716875 427.21779 
z
" clip-path="url(#pc791b9f211)" style="fill: #ffb5b8"/>
   </g>
   <g id="PolyCollection_8">
    <path d="M 45.716875 262.550188 
L 45.716875 427.21779 
L 63.773755 424.216831 
L 81.830635 425.977792 
L 99.887515 424.034799 
L 117.944395 422.983394 
L 136.001275 422.844388 
L 154.058155 427.956346 
L 172.115035 425.027051 
L 190.171915 420.019615 
L 208.228795 421.343029 
L 226.285675 422.484142 
L 244.342555 423.753972 
L 298.513195 421.450722 
L 316.570075 420.068277 
L 334.626955 402.930429 
L 352.683835 361.027441 
L 370.740715 342.071439 
L 388.797595 331.908944 
L 406.854475 324.074146 
L 424.911355 320.43632 
L 442.968235 312.073572 
L 461.025115 304.024602 
L 479.081995 301.009785 
L 497.138875 294.997012 
L 515.195755 285.64007 
L 533.252635 281.948952 
L 551.309515 282.141071 
L 569.366395 267.461668 
L 587.423275 264.84724 
L 605.480155 250.561409 
L 623.537035 257.307316 
L 641.593915 258.780797 
L 659.650795 249.772119 
L 677.707675 248.377907 
L 695.764555 246.482241 
L 713.821435 243.797674 
L 731.878315 235.170656 
L 749.935195 233.788756 
L 767.992075 234.707754 
L 786.048955 230.195608 
L 804.105835 227.009528 
L 822.162715 226.165855 
L 840.219595 225.679128 
L 858.276475 217.436526 
L 876.333355 220.848726 
L 894.390235 204.365463 
L 912.447115 201.267058 
L 930.503995 205.8057 
L 948.560875 198.089959 
L 948.560875 143.828222 
L 948.560875 143.828222 
L 930.503995 148.775286 
L 912.447115 145.71639 
L 894.390235 148.071618 
L 876.333355 168.112327 
L 858.276475 161.305986 
L 840.219595 166.337062 
L 822.162715 166.019291 
L 804.105835 164.980111 
L 786.048955 168.5392 
L 767.992075 175.964468 
L 749.935195 176.695116 
L 731.878315 175.216671 
L 713.821435 185.286276 
L 695.764555 189.037602 
L 677.707675 190.565479 
L 659.650795 188.853047 
L 641.593915 195.701886 
L 623.537035 192.058502 
L 605.480155 184.425106 
L 587.423275 193.243531 
L 569.366395 190.333994 
L 551.309515 197.102795 
L 533.252635 193.666149 
L 515.195755 193.724064 
L 497.138875 196.915662 
L 479.081995 203.11084 
L 461.025115 198.62762 
L 442.968235 197.525207 
L 424.911355 197.980108 
L 406.854475 199.585317 
L 388.797595 207.166782 
L 370.740715 210.035178 
L 352.683835 216.452365 
L 334.626955 225.189008 
L 316.570075 224.95819 
L 298.513195 226.380488 
L 244.342555 226.173548 
L 226.285675 224.872741 
L 208.228795 224.208259 
L 190.171915 226.335756 
L 172.115035 235.334093 
L 154.058155 238.326572 
L 136.001275 241.21901 
L 117.944395 247.194804 
L 99.887515 249.308087 
L 81.830635 252.698587 
L 63.773755 257.680983 
L 45.716875 262.550188 
z
" clip-path="url(#pc791b9f211)" style="fill: #e24a33"/>
   </g>
   <g id="PolyCollection_9">
    <path d="M 45.716875 164.397174 
L 45.716875 262.550188 
L 63.773755 257.680983 
L 81.830635 252.698587 
L 99.887515 249.308087 
L 117.944395 247.194804 
L 136.001275 241.21901 
L 154.058155 238.326572 
L 172.115035 235.334093 
L 190.171915 226.335756 
L 208.228795 224.208259 
L 226.285675 224.872741 
L 244.342555 226.173548 
L 298.513195 226.380488 
L 316.570075 224.95819 
L 334.626955 225.189008 
L 352.683835 216.452365 
L 370.740715 210.035178 
L 388.797595 207.166782 
L 406.854475 199.585317 
L 424.911355 197.980108 
L 442.968235 197.525207 
L 461.025115 198.62762 
L 479.081995 203.11084 
L 497.138875 196.915662 
L 515.195755 193.724064 
L 533.252635 193.666149 
L 551.309515 197.102795 
L 569.366395 190.333994 
L 587.423275 193.243531 
L 605.480155 184.425106 
L 623.537035 192.058502 
L 641.593915 195.701886 
L 659.650795 188.853047 
L 677.707675 190.565479 
L 695.764555 189.037602 
L 713.821435 185.286276 
L 731.878315 175.216671 
L 749.935195 176.695116 
L 767.992075 175.964468 
L 786.048955 168.5392 
L 804.105835 164.980111 
L 822.162715 166.019291 
L 840.219595 166.337062 
L 858.276475 161.305986 
L 876.333355 168.112327 
L 894.390235 148.071618 
L 912.447115 145.71639 
L 930.503995 148.775286 
L 948.560875 143.828222 
L 948.560875 110.999922 
L 948.560875 110.999922 
L 930.503995 116.482728 
L 912.447115 110.640403 
L 894.390235 109.039613 
L 876.333355 127.433932 
L 858.276475 118.888386 
L 840.219595 124.004278 
L 822.162715 123.578294 
L 804.105835 120.203473 
L 786.048955 123.652806 
L 767.992075 132.744271 
L 749.935195 133.310067 
L 731.878315 131.675605 
L 713.821435 140.3853 
L 695.764555 146.155682 
L 677.707675 146.074417 
L 659.650795 141.327594 
L 641.593915 150.985992 
L 623.537035 149.368845 
L 605.480155 142.046086 
L 587.423275 147.842869 
L 569.366395 144.014177 
L 551.309515 150.973367 
L 533.252635 145.674382 
L 515.195755 145.663382 
L 497.138875 148.533613 
L 479.081995 153.760768 
L 461.025115 147.873443 
L 442.968235 145.15005 
L 424.911355 144.295096 
L 406.854475 145.352343 
L 388.797595 151.741224 
L 370.740715 153.522798 
L 352.683835 159.188106 
L 334.626955 166.87409 
L 316.570075 164.007772 
L 298.513195 163.588309 
L 244.342555 156.548166 
L 226.285675 152.710801 
L 208.228795 148.750196 
L 190.171915 148.788623 
L 172.115035 156.74241 
L 154.058155 156.455386 
L 136.001275 158.018515 
L 117.944395 160.238121 
L 99.887515 160.109698 
L 81.830635 161.314744 
L 63.773755 163.277056 
L 45.716875 164.397174 
z
" clip-path="url(#pc791b9f211)" style="fill: #348abd"/>
   </g>
   <g id="PolyCollection_10">
    <path d="M 45.716875 86.273472 
L 45.716875 164.397174 
L 63.773755 163.277056 
L 81.830635 161.314744 
L 99.887515 160.109698 
L 117.944395 160.238121 
L 136.001275 158.018515 
L 154.058155 156.455386 
L 172.115035 156.74241 
L 190.171915 148.788623 
L 208.228795 148.750196 
L 226.285675 152.710801 
L 244.342555 156.548166 
L 298.513195 163.588309 
L 316.570075 164.007772 
L 334.626955 166.87409 
L 352.683835 159.188106 
L 370.740715 153.522798 
L 388.797595 151.741224 
L 406.854475 145.352343 
L 424.911355 144.295096 
L 442.968235 145.15005 
L 461.025115 147.873443 
L 479.081995 153.760768 
L 497.138875 148.533613 
L 515.195755 145.663382 
L 533.252635 145.674382 
L 551.309515 150.973367 
L 569.366395 144.014177 
L 587.423275 147.842869 
L 605.480155 142.046086 
L 623.537035 149.368845 
L 641.593915 150.985992 
L 659.650795 141.327594 
L 677.707675 146.074417 
L 695.764555 146.155682 
L 713.821435 140.3853 
L 731.878315 131.675605 
L 749.935195 133.310067 
L 767.992075 132.744271 
L 786.048955 123.652806 
L 804.105835 120.203473 
L 822.162715 123.578294 
L 840.219595 124.004278 
L 858.276475 118.888386 
L 876.333355 127.433932 
L 894.390235 109.039613 
L 912.447115 110.640403 
L 930.503995 116.482728 
L 948.560875 110.999922 
L 948.560875 48.463167 
L 948.560875 48.463167 
L 930.503995 48.814012 
L 912.447115 50.433369 
L 894.390235 50.614742 
L 876.333355 50.063854 
L 858.276475 51.292558 
L 840.219595 51.777412 
L 822.162715 52.489913 
L 804.105835 53.380173 
L 786.048955 53.969782 
L 767.992075 54.569405 
L 749.935195 54.815617 
L 731.878315 55.010112 
L 713.821435 55.670191 
L 695.764555 55.847596 
L 677.707675 55.750689 
L 659.650795 57.886459 
L 641.593915 57.304324 
L 623.537035 58.56509 
L 605.480155 58.411523 
L 587.423275 60.621226 
L 569.366395 61.31675 
L 551.309515 61.607904 
L 533.252635 63.509407 
L 515.195755 64.022634 
L 497.138875 64.996028 
L 479.081995 65.103463 
L 461.025115 64.968308 
L 442.968235 64.548814 
L 424.911355 65.952588 
L 406.854475 65.363378 
L 388.797595 65.6136 
L 370.740715 67.381597 
L 352.683835 69.071035 
L 334.626955 69.10216 
L 316.570075 70.952165 
L 298.513195 71.766809 
L 244.342555 75.494845 
L 226.285675 76.319522 
L 208.228795 77.046857 
L 190.171915 77.708426 
L 172.115035 77.548342 
L 154.058155 80.239718 
L 136.001275 81.409259 
L 117.944395 83.016219 
L 99.887515 83.464968 
L 81.830635 84.158264 
L 63.773755 85.203263 
L 45.716875 86.273472 
z
" clip-path="url(#pc791b9f211)" style="fill: #988ed5"/>
   </g>
   <g id="PolyCollection_11">
    <path d="M 45.716875 34.436956 
L 45.716875 86.273472 
L 63.773755 85.203263 
L 81.830635 84.158264 
L 99.887515 83.464968 
L 117.944395 83.016219 
L 136.001275 81.409259 
L 154.058155 80.239718 
L 172.115035 77.548342 
L 190.171915 77.708426 
L 208.228795 77.046857 
L 226.285675 76.319522 
L 244.342555 75.494845 
L 298.513195 71.766809 
L 316.570075 70.952165 
L 334.626955 69.10216 
L 352.683835 69.071035 
L 370.740715 67.381597 
L 388.797595 65.6136 
L 406.854475 65.363378 
L 424.911355 65.952588 
L 442.968235 64.548814 
L 461.025115 64.968308 
L 479.081995 65.103463 
L 497.138875 64.996028 
L 515.195755 64.022634 
L 533.252635 63.509407 
L 551.309515 61.607904 
L 569.366395 61.31675 
L 587.423275 60.621226 
L 605.480155 58.411523 
L 623.537035 58.56509 
L 641.593915 57.304324 
L 659.650795 57.886459 
L 677.707675 55.750689 
L 695.764555 55.847596 
L 713.821435 55.670191 
L 731.878315 55.010112 
L 749.935195 54.815617 
L 767.992075 54.569405 
L 786.048955 53.969782 
L 804.105835 53.380173 
L 822.162715 52.489913 
L 840.219595 51.777412 
L 858.276475 51.292558 
L 876.333355 50.063854 
L 894.390235 50.614742 
L 912.447115 50.433369 
L 930.503995 48.814012 
L 948.560875 48.463167 
L 948.560875 28.369826 
L 948.560875 28.369826 
L 930.503995 28.373753 
L 912.447115 28.543966 
L 894.390235 28.556696 
L 876.333355 28.497962 
L 858.276475 28.672482 
L 840.219595 28.84565 
L 822.162715 28.961158 
L 804.105835 29.082482 
L 786.048955 29.199964 
L 767.992075 29.341325 
L 749.935195 29.310592 
L 731.878315 29.380095 
L 713.821435 29.442808 
L 695.764555 29.479263 
L 677.707675 29.523295 
L 659.650795 29.909014 
L 641.593915 29.784252 
L 623.537035 29.980025 
L 605.480155 29.992397 
L 587.423275 30.45219 
L 569.366395 30.521859 
L 551.309515 30.615733 
L 533.252635 30.898734 
L 515.195755 31.015808 
L 497.138875 31.094751 
L 479.081995 30.859118 
L 461.025115 31.035267 
L 442.968235 31.295667 
L 424.911355 31.649883 
L 406.854475 31.62083 
L 388.797595 31.724075 
L 370.740715 31.866875 
L 352.683835 31.884453 
L 334.626955 31.841133 
L 316.570075 32.285193 
L 298.513195 32.42596 
L 244.342555 32.916597 
L 226.285675 32.927992 
L 208.228795 33.155709 
L 190.171915 33.270201 
L 172.115035 33.279816 
L 154.058155 33.597328 
L 136.001275 33.614004 
L 117.944395 33.840536 
L 99.887515 34.025159 
L 81.830635 34.008759 
L 63.773755 34.217655 
L 45.716875 34.436956 
z
" clip-path="url(#pc791b9f211)" style="fill: #777777"/>
   </g>
   <g id="PolyCollection_12">
    <path d="M 45.716875 24.196414 
L 45.716875 34.436956 
L 63.773755 34.217655 
L 81.830635 34.008759 
L 99.887515 34.025159 
L 117.944395 33.840536 
L 136.001275 33.614004 
L 154.058155 33.597328 
L 172.115035 33.279816 
L 190.171915 33.270201 
L 208.228795 33.155709 
L 226.285675 32.927992 
L 244.342555 32.916597 
L 298.513195 32.42596 
L 316.570075 32.285193 
L 334.626955 31.841133 
L 352.683835 31.884453 
L 370.740715 31.866875 
L 388.797595 31.724075 
L 406.854475 31.62083 
L 424.911355 31.649883 
L 442.968235 31.295667 
L 461.025115 31.035267 
L 479.081995 30.859118 
L 497.138875 31.094751 
L 515.195755 31.015808 
L 533.252635 30.898734 
L 551.309515 30.615733 
L 569.366395 30.521859 
L 587.423275 30.45219 
L 605.480155 29.992397 
L 623.537035 29.980025 
L 641.593915 29.784252 
L 659.650795 29.909014 
L 677.707675 29.523295 
L 695.764555 29.479263 
L 713.821435 29.442808 
L 731.878315 29.380095 
L 749.935195 29.310592 
L 767.992075 29.341325 
L 786.048955 29.199964 
L 804.105835 29.082482 
L 822.162715 28.961158 
L 840.219595 28.84565 
L 858.276475 28.672482 
L 876.333355 28.497962 
L 894.390235 28.556696 
L 912.447115 28.543966 
L 930.503995 28.373753 
L 948.560875 28.369826 
L 948.560875 24.143768 
L 948.560875 24.143768 
L 930.503995 24.143865 
L 912.447115 24.14175 
L 894.390235 24.146275 
L 876.333355 24.146525 
L 858.276475 24.148156 
L 840.219595 24.150514 
L 822.162715 24.15019 
L 804.105835 24.151231 
L 786.048955 24.151191 
L 767.992075 24.151737 
L 749.935195 24.147831 
L 731.878315 24.149957 
L 713.821435 24.154352 
L 695.764555 24.150818 
L 677.707675 24.150072 
L 659.650795 24.152288 
L 641.593915 24.153437 
L 623.537035 24.16 
L 605.480155 24.161978 
L 587.423275 24.164058 
L 569.366395 24.164914 
L 551.309515 24.165186 
L 533.252635 24.166693 
L 515.195755 24.164894 
L 497.138875 24.166362 
L 479.081995 24.16005 
L 461.025115 24.162201 
L 442.968235 24.166164 
L 424.911355 24.163328 
L 406.854475 24.167427 
L 388.797595 24.170554 
L 370.740715 24.174189 
L 352.683835 24.182003 
L 334.626955 24.180945 
L 316.570075 24.182575 
L 298.513195 24.183131 
L 244.342555 24.19174 
L 226.285675 24.193074 
L 208.228795 24.193858 
L 190.171915 24.191495 
L 172.115035 24.187159 
L 154.058155 24.189487 
L 136.001275 24.191094 
L 117.944395 24.194679 
L 99.887515 24.197878 
L 81.830635 24.193866 
L 63.773755 24.195699 
L 45.716875 24.196414 
z
" clip-path="url(#pc791b9f211)" style="fill: #fbc15e"/>
   </g>
   <g id="patch_3">
    <path d="M 45.716875 567.74175 
L 45.716875 24.14175 
" style="fill: none; stroke: #ffffff; stroke-linejoin: miter; stroke-linecap: square"/>
   </g>
   <g id="patch_4">
    <path d="M 948.560875 567.74175 
L 948.560875 24.14175 
" style="fill: none; stroke: #ffffff; stroke-linejoin: miter; stroke-linecap: square"/>
   </g>
   <g id="patch_5">
    <path d="M 45.716875 567.74175 
L 948.560875 567.74175 
" style="fill: none; stroke: #ffffff; stroke-linejoin: miter; stroke-linecap: square"/>
   </g>
   <g id="patch_6">
    <path d="M 45.716875 24.14175 
L 948.560875 24.14175 
" style="fill: none; stroke: #ffffff; stroke-linejoin: miter; stroke-linecap: square"/>
   </g>
   <g id="text_19">
    <!-- Rocky Linux Instances by Version Share -->
    <g transform="translate(45.716875 18.14175)scale(0.144 -0.144)">
     <defs>
      <path id="DejaVuSans-52" d="M 2841 2188 
Q 3044 2119 3236 1894 
Q 3428 1669 3622 1275 
L 4263 0 
L 3584 0 
L 2988 1197 
Q 2756 1666 2539 1819 
Q 2322 1972 1947 1972 
L 1259 1972 
L 1259 0 
L 628 0 
L 628 4666 
L 2053 4666 
Q 2853 4666 3247 4331 
Q 3641 3997 3641 3322 
Q 3641 2881 3436 2590 
Q 3231 2300 2841 2188 
z
M 1259 4147 
L 1259 2491 
L 2053 2491 
Q 2509 2491 2742 2702 
Q 2975 2913 2975 3322 
Q 2975 3731 2742 3939 
Q 2509 4147 2053 4147 
L 1259 4147 
z
" transform="scale(0.015625)"/>
      <path id="DejaVuSans-6b" d="M 581 4863 
L 1159 4863 
L 1159 1991 
L 2875 3500 
L 3609 3500 
L 1753 1863 
L 3688 0 
L 2938 0 
L 1159 1709 
L 1159 0 
L 581 0 
L 581 4863 
z
" transform="scale(0.015625)"/>
      <path id="DejaVuSans-79" d="M 2059 -325 
Q 1816 -950 1584 -1140 
Q 1353 -1331 966 -1331 
L 506 -1331 
L 506 -850 
L 844 -850 
Q 1081 -850 1212 -737 
Q 1344 -625 1503 -206 
L 1606 56 
L 191 3500 
L 800 3500 
L 1894 763 
L 2988 3500 
L 3597 3500 
L 2059 -325 
z
" transform="scale(0.015625)"/>
      <path id="DejaVuSans-4c" d="M 628 4666 
L 1259 4666 
L 1259 531 
L 3531 531 
L 3531 0 
L 628 0 
L 628 4666 
z
" transform="scale(0.015625)"/>
      <path id="DejaVuSans-69" d="M 603 3500 
L 1178 3500 
L 1178 0 
L 603 0 
L 603 3500 
z
M 603 4863 
L 1178 4863 
L 1178 4134 
L 603 4134 
L 603 4863 
z
" transform="scale(0.015625)"/>
      <path id="DejaVuSans-75" d="M 544 1381 
L 544 3500 
L 1119 3500 
L 1119 1403 
Q 1119 906 1312 657 
Q 1506 409 1894 409 
Q 2359 409 2629 706 
Q 2900 1003 2900 1516 
L 2900 3500 
L 3475 3500 
L 3475 0 
L 2900 0 
L 2900 538 
Q 2691 219 2414 64 
Q 2138 -91 1772 -91 
Q 1169 -91 856 284 
Q 544 659 544 1381 
z
M 1991 3584 
L 1991 3584 
z
" transform="scale(0.015625)"/>
      <path id="DejaVuSans-78" d="M 3513 3500 
L 2247 1797 
L 3578 0 
L 2900 0 
L 1881 1375 
L 863 0 
L 184 0 
L 1544 1831 
L 300 3500 
L 978 3500 
L 1906 2253 
L 2834 3500 
L 3513 3500 
z
" transform="scale(0.015625)"/>
      <path id="DejaVuSans-62" d="M 3116 1747 
Q 3116 2381 2855 2742 
Q 2594 3103 2138 3103 
Q 1681 3103 1420 2742 
Q 1159 2381 1159 1747 
Q 1159 1113 1420 752 
Q 1681 391 2138 391 
Q 2594 391 2855 752 
Q 3116 1113 3116 1747 
z
M 1159 2969 
Q 1341 3281 1617 3432 
Q 1894 3584 2278 3584 
Q 2916 3584 3314 3078 
Q 3713 2572 3713 1747 
Q 3713 922 3314 415 
Q 2916 -91 2278 -91 
Q 1894 -91 1617 61 
Q 1341 213 1159 525 
L 1159 0 
L 581 0 
L 581 4863 
L 1159 4863 
L 1159 2969 
z
" transform="scale(0.015625)"/>
      <path id="DejaVuSans-56" d="M 1831 0 
L 50 4666 
L 709 4666 
L 2188 738 
L 3669 4666 
L 4325 4666 
L 2547 0 
L 1831 0 
z
" transform="scale(0.015625)"/>
     </defs>
     <use xlink:href="#DejaVuSans-52"/>
     <use xlink:href="#DejaVuSans-6f" x="64.982422"/>
     <use xlink:href="#DejaVuSans-63" x="126.164062"/>
     <use xlink:href="#DejaVuSans-6b" x="181.144531"/>
     <use xlink:href="#DejaVuSans-79" x="235.429688"/>
     <use xlink:href="#DejaVuSans-20" x="294.609375"/>
     <use xlink:href="#DejaVuSans-4c" x="326.396484"/>
     <use xlink:href="#DejaVuSans-69" x="382.109375"/>
     <use xlink:href="#DejaVuSans-6e" x="409.892578"/>
     <use xlink:href="#DejaVuSans-75" x="473.271484"/>
     <use xlink:href="#DejaVuSans-78" x="536.650391"/>
     <use xlink:href="#DejaVuSans-20" x="595.830078"/>
     <use xlink:href="#DejaVuSans-49" x="627.617188"/>
     <use xlink:href="#DejaVuSans-6e" x="657.109375"/>
     <use xlink:href="#DejaVuSans-73" x="720.488281"/>
     <use xlink:href="#DejaVuSans-74" x="772.587891"/>
     <use xlink:href="#DejaVuSans-61" x="811.796875"/>
     <use xlink:href="#DejaVuSans-6e" x="873.076172"/>
     <use xlink:href="#DejaVuSans-63" x="936.455078"/>
     <use xlink:href="#DejaVuSans-65" x="991.435547"/>
     <use xlink:href="#DejaVuSans-73" x="1052.958984"/>
     <use xlink:href="#DejaVuSans-20" x="1105.058594"/>
     <use xlink:href="#DejaVuSans-62" x="1136.845703"/>
     <use xlink:href="#DejaVuSans-79" x="1200.322266"/>
     <use xlink:href="#DejaVuSans-20" x="1259.501953"/>
     <use xlink:href="#DejaVuSans-56" x="1291.289062"/>
     <use xlink:href="#DejaVuSans-65" x="1351.947266"/>
     <use xlink:href="#DejaVuSans-72" x="1413.470703"/>
     <use xlink:href="#DejaVuSans-73" x="1454.583984"/>
     <use xlink:href="#DejaVuSans-69" x="1506.683594"/>
     <use xlink:href="#DejaVuSans-6f" x="1534.466797"/>
     <use xlink:href="#DejaVuSans-6e" x="1595.648438"/>
     <use xlink:href="#DejaVuSans-20" x="1659.027344"/>
     <use xlink:href="#DejaVuSans-53" x="1690.814453"/>
     <use xlink:href="#DejaVuSans-68" x="1754.291016"/>
     <use xlink:href="#DejaVuSans-61" x="1817.669922"/>
     <use xlink:href="#DejaVuSans-72" x="1878.949219"/>
     <use xlink:href="#DejaVuSans-65" x="1917.8125"/>
    </g>
   </g>
   <g id="text_20">
    <!-- 2024-08-01 11:54 UTC -->
    <g transform="translate(785.678875 18.14175)scale(0.144 -0.144)">
     <defs>
      <path id="DejaVuSans-3a" d="M 750 794 
L 1409 794 
L 1409 0 
L 750 0 
L 750 794 
z
M 750 3309 
L 1409 3309 
L 1409 2516 
L 750 2516 
L 750 3309 
z
" transform="scale(0.015625)"/>
      <path id="DejaVuSans-55" d="M 556 4666 
L 1191 4666 
L 1191 1831 
Q 1191 1081 1462 751 
Q 1734 422 2344 422 
Q 2950 422 3222 751 
Q 3494 1081 3494 1831 
L 3494 4666 
L 4128 4666 
L 4128 1753 
Q 4128 841 3676 375 
Q 3225 -91 2344 -91 
Q 1459 -91 1007 375 
Q 556 841 556 1753 
L 556 4666 
z
" transform="scale(0.015625)"/>
      <path id="DejaVuSans-54" d="M -19 4666 
L 3928 4666 
L 3928 4134 
L 2272 4134 
L 2272 0 
L 1638 0 
L 1638 4134 
L -19 4134 
L -19 4666 
z
" transform="scale(0.015625)"/>
      <path id="DejaVuSans-43" d="M 4122 4306 
L 4122 3641 
Q 3803 3938 3442 4084 
Q 3081 4231 2675 4231 
Q 1875 4231 1450 3742 
Q 1025 3253 1025 2328 
Q 1025 1406 1450 917 
Q 1875 428 2675 428 
Q 3081 428 3442 575 
Q 3803 722 4122 1019 
L 4122 359 
Q 3791 134 3420 21 
Q 3050 -91 2638 -91 
Q 1578 -91 968 557 
Q 359 1206 359 2328 
Q 359 3453 968 4101 
Q 1578 4750 2638 4750 
Q 3056 4750 3426 4639 
Q 3797 4528 4122 4306 
z
" transform="scale(0.015625)"/>
     </defs>
     <use xlink:href="#DejaVuSans-32"/>
     <use xlink:href="#DejaVuSans-30" x="63.623047"/>
     <use xlink:href="#DejaVuSans-32" x="127.246094"/>
     <use xlink:href="#DejaVuSans-34" x="190.869141"/>
     <use xlink:href="#DejaVuSans-2d" x="254.492188"/>
     <use xlink:href="#DejaVuSans-30" x="290.576172"/>
     <use xlink:href="#DejaVuSans-38" x="354.199219"/>
     <use xlink:href="#DejaVuSans-2d" x="417.822266"/>
     <use xlink:href="#DejaVuSans-30" x="453.90625"/>
     <use xlink:href="#DejaVuSans-31" x="517.529297"/>
     <use xlink:href="#DejaVuSans-20" x="581.152344"/>
     <use xlink:href="#DejaVuSans-31" x="612.939453"/>
     <use xlink:href="#DejaVuSans-31" x="676.5625"/>
     <use xlink:href="#DejaVuSans-3a" x="740.185547"/>
     <use xlink:href="#DejaVuSans-35" x="773.876953"/>
     <use xlink:href="#DejaVuSans-34" x="837.5"/>
     <use xlink:href="#DejaVuSans-20" x="901.123047"/>
     <use xlink:href="#DejaVuSans-55" x="932.910156"/>
     <use xlink:href="#DejaVuSans-54" x="1006.103516"/>
     <use xlink:href="#DejaVuSans-43" x="1061.3125"/>
    </g>
   </g>
   <g id="legend_1">
    <g id="patch_7">
     <path d="M 52.716875 222.957375 
L 106.9825 222.957375 
Q 108.9825 222.957375 108.9825 220.957375 
L 108.9825 31.14175 
Q 108.9825 29.14175 106.9825 29.14175 
L 52.716875 29.14175 
Q 50.716875 29.14175 50.716875 31.14175 
L 50.716875 220.957375 
Q 50.716875 222.957375 52.716875 222.957375 
z
" style="fill: #e5e5e5; opacity: 0.8; stroke: #cccccc; stroke-width: 0.5; stroke-linejoin: miter"/>
    </g>
    <g id="text_21">
     <!-- Version -->
     <g transform="translate(61.462969 40.740187)scale(0.1 -0.1)">
      <use xlink:href="#DejaVuSans-56"/>
      <use xlink:href="#DejaVuSans-65" x="60.658203"/>
      <use xlink:href="#DejaVuSans-72" x="122.181641"/>
      <use xlink:href="#DejaVuSans-73" x="163.294922"/>
      <use xlink:href="#DejaVuSans-69" x="215.394531"/>
      <use xlink:href="#DejaVuSans-6f" x="243.177734"/>
      <use xlink:href="#DejaVuSans-6e" x="304.359375"/>
     </g>
    </g>
    <g id="patch_8">
     <path d="M 54.716875 55.418312 
L 74.716875 55.418312 
L 74.716875 48.418312 
L 54.716875 48.418312 
z
" style="fill: #e24a33"/>
    </g>
    <g id="text_22">
     <!-- 9.4 -->
     <g transform="translate(82.716875 55.418312)scale(0.1 -0.1)">
      <use xlink:href="#DejaVuSans-39"/>
      <use xlink:href="#DejaVuSans-2e" x="63.623047"/>
      <use xlink:href="#DejaVuSans-34" x="95.410156"/>
     </g>
    </g>
    <g id="patch_9">
     <path d="M 54.716875 70.096437 
L 74.716875 70.096437 
L 74.716875 63.096437 
L 54.716875 63.096437 
z
" style="fill: #348abd"/>
    </g>
    <g id="text_23">
     <!-- 9.3 -->
     <g transform="translate(82.716875 70.096437)scale(0.1 -0.1)">
      <use xlink:href="#DejaVuSans-39"/>
      <use xlink:href="#DejaVuSans-2e" x="63.623047"/>
      <use xlink:href="#DejaVuSans-33" x="95.410156"/>
     </g>
    </g>
    <g id="patch_10">
     <path d="M 54.716875 84.774563 
L 74.716875 84.774563 
L 74.716875 77.774563 
L 54.716875 77.774563 
z
" style="fill: #988ed5"/>
    </g>
    <g id="text_24">
     <!-- 9.2 -->
     <g transform="translate(82.716875 84.774563)scale(0.1 -0.1)">
      <use xlink:href="#DejaVuSans-39"/>
      <use xlink:href="#DejaVuSans-2e" x="63.623047"/>
      <use xlink:href="#DejaVuSans-32" x="95.410156"/>
     </g>
    </g>
    <g id="patch_11">
     <path d="M 54.716875 99.452687 
L 74.716875 99.452687 
L 74.716875 92.452687 
L 54.716875 92.452687 
z
" style="fill: #777777"/>
    </g>
    <g id="text_25">
     <!-- 9.1 -->
     <g transform="translate(82.716875 99.452687)scale(0.1 -0.1)">
      <use xlink:href="#DejaVuSans-39"/>
      <use xlink:href="#DejaVuSans-2e" x="63.623047"/>
      <use xlink:href="#DejaVuSans-31" x="95.410156"/>
     </g>
    </g>
    <g id="patch_12">
     <path d="M 54.716875 114.130812 
L 74.716875 114.130812 
L 74.716875 107.130812 
L 54.716875 107.130812 
z
" style="fill: #fbc15e"/>
    </g>
    <g id="text_26">
     <!-- 9.0 -->
     <g transform="translate(82.716875 114.130812)scale(0.1 -0.1)">
      <use xlink:href="#DejaVuSans-39"/>
      <use xlink:href="#DejaVuSans-2e" x="63.623047"/>
      <use xlink:href="#DejaVuSans-30" x="95.410156"/>
     </g>
    </g>
    <g id="patch_13">
     <path d="M 54.716875 128.808937 
L 74.716875 128.808937 
L 74.716875 121.808937 
L 54.716875 121.808937 
z
" style="fill: #8eba42"/>
    </g>
    <g id="text_27">
     <!-- 8.10 -->
     <g transform="translate(82.716875 128.808937)scale(0.1 -0.1)">
      <use xlink:href="#DejaVuSans-38"/>
      <use xlink:href="#DejaVuSans-2e" x="63.623047"/>
      <use xlink:href="#DejaVuSans-31" x="95.410156"/>
      <use xlink:href="#DejaVuSans-30" x="159.033203"/>
     </g>
    </g>
    <g id="patch_14">
     <path d="M 54.716875 143.487062 
L 74.716875 143.487062 
L 74.716875 136.487062 
L 54.716875 136.487062 
z
" style="fill: #ffb5b8"/>
    </g>
    <g id="text_28">
     <!-- 8.9 -->
     <g transform="translate(82.716875 143.487062)scale(0.1 -0.1)">
      <use xlink:href="#DejaVuSans-38"/>
      <use xlink:href="#DejaVuSans-2e" x="63.623047"/>
      <use xlink:href="#DejaVuSans-39" x="95.410156"/>
     </g>
    </g>
    <g id="patch_15">
     <path d="M 54.716875 158.165187 
L 74.716875 158.165187 
L 74.716875 151.165187 
L 54.716875 151.165187 
z
" style="fill: #e24a33"/>
    </g>
    <g id="text_29">
     <!-- 8.8 -->
     <g transform="translate(82.716875 158.165187)scale(0.1 -0.1)">
      <use xlink:href="#DejaVuSans-38"/>
      <use xlink:href="#DejaVuSans-2e" x="63.623047"/>
      <use xlink:href="#DejaVuSans-38" x="95.410156"/>
     </g>
    </g>
    <g id="patch_16">
     <path d="M 54.716875 172.843312 
L 74.716875 172.843312 
L 74.716875 165.843312 
L 54.716875 165.843312 
z
" style="fill: #348abd"/>
    </g>
    <g id="text_30">
     <!-- 8.7 -->
     <g transform="translate(82.716875 172.843312)scale(0.1 -0.1)">
      <defs>
       <path id="DejaVuSans-37" d="M 525 4666 
L 3525 4666 
L 3525 4397 
L 1831 0 
L 1172 0 
L 2766 4134 
L 525 4134 
L 525 4666 
z
" transform="scale(0.015625)"/>
      </defs>
      <use xlink:href="#DejaVuSans-38"/>
      <use xlink:href="#DejaVuSans-2e" x="63.623047"/>
      <use xlink:href="#DejaVuSans-37" x="95.410156"/>
     </g>
    </g>
    <g id="patch_17">
     <path d="M 54.716875 187.521437 
L 74.716875 187.521437 
L 74.716875 180.521437 
L 54.716875 180.521437 
z
" style="fill: #988ed5"/>
    </g>
    <g id="text_31">
     <!-- 8.6 -->
     <g transform="translate(82.716875 187.521437)scale(0.1 -0.1)">
      <use xlink:href="#DejaVuSans-38"/>
      <use xlink:href="#DejaVuSans-2e" x="63.623047"/>
      <use xlink:href="#DejaVuSans-36" x="95.410156"/>
     </g>
    </g>
    <g id="patch_18">
     <path d="M 54.716875 202.199562 
L 74.716875 202.199562 
L 74.716875 195.199562 
L 54.716875 195.199562 
z
" style="fill: #777777"/>
    </g>
    <g id="text_32">
     <!-- 8.5 -->
     <g transform="translate(82.716875 202.199562)scale(0.1 -0.1)">
      <use xlink:href="#DejaVuSans-38"/>
      <use xlink:href="#DejaVuSans-2e" x="63.623047"/>
      <use xlink:href="#DejaVuSans-35" x="95.410156"/>
     </g>
    </g>
    <g id="patch_19">
     <path d="M 54.716875 216.877687 
L 74.716875 216.877687 
L 74.716875 209.877687 
L 54.716875 209.877687 
z
" style="fill: #fbc15e"/>
    </g>
    <g id="text_33">
     <!-- 8.4 -->
     <g transform="translate(82.716875 216.877687)scale(0.1 -0.1)">
      <use xlink:href="#DejaVuSans-38"/>
      <use xlink:href="#DejaVuSans-2e" x="63.623047"/>
      <use xlink:href="#DejaVuSans-34" x="95.410156"/>
     </g>
    </g>
   </g>
  </g>
 </g>
 <defs>
  <clipPath id="pc791b9f211">
   <rect x="45.716875" y="24.14175" width="902.844" height="543.6"/>
  </clipPath>
 </defs>
</svg>
