<?xml version="1.0" encoding="utf-8" standalone="no"?>
<!DOCTYPE svg PUBLIC "-//W3C//DTD SVG 1.1//EN"
  "http://www.w3.org/Graphics/SVG/1.1/DTD/svg11.dtd">
<svg xmlns:xlink="http://www.w3.org/1999/xlink" width="971.37551pt" height="644.743878pt" viewBox="0 0 971.37551 644.743878" xmlns="http://www.w3.org/2000/svg" version="1.1">
 <metadata>
  <rdf:RDF xmlns:dc="http://purl.org/dc/elements/1.1/" xmlns:cc="http://creativecommons.org/ns#" xmlns:rdf="http://www.w3.org/1999/02/22-rdf-syntax-ns#">
   <cc:Work>
    <dc:type rdf:resource="http://purl.org/dc/dcmitype/StillImage"/>
    <dc:date>2025-06-26T11:55:15.815675</dc:date>
    <dc:format>image/svg+xml</dc:format>
    <dc:creator>
     <cc:Agent>
      <dc:title>Matplotlib v3.6.3, https://matplotlib.org/</dc:title>
     </cc:Agent>
    </dc:creator>
   </cc:Work>
  </rdf:RDF>
 </metadata>
 <defs>
  <style type="text/css">*{stroke-linejoin: round; stroke-linecap: butt}</style>
 </defs>
 <g id="figure_1">
  <g id="patch_1">
   <path d="M 0 644.743878 
L 971.37551 644.743878 
L 971.37551 0 
L 0 0 
z
" style="fill: #ffffff"/>
  </g>
  <g id="axes_1">
   <g id="patch_2">
    <path d="M 45.716875 578.54175 
L 948.560875 578.54175 
L 948.560875 24.14175 
L 45.716875 24.14175 
z
" style="fill: #e5e5e5"/>
   </g>
   <g id="matplotlib.axis_1">
    <g id="xtick_1">
     <g id="line2d_1">
      <path d="M 81.830635 578.54175 
L 81.830635 24.14175 
" clip-path="url(#p47a1f014f9)" style="fill: none; stroke: #ffffff; stroke-width: 0.8; stroke-linecap: square"/>
     </g>
     <g id="line2d_2">
      <defs>
       <path id="m2079595deb" d="M 0 0 
L 0 3.5 
" style="stroke: #555555; stroke-width: 0.8"/>
      </defs>
      <g>
       <use xlink:href="#m2079595deb" x="81.830635" y="578.54175" style="fill: #555555; stroke: #555555; stroke-width: 0.8"/>
      </g>
     </g>
     <g id="text_1">
      <!-- 2024-07 -->
      <g style="fill: #555555" transform="translate(69.009353 620.459567) rotate(-45) scale(0.1 -0.1)">
       <defs>
        <path id="DejaVuSans-32" d="M 1228 531 
L 3431 531 
L 3431 0 
L 469 0 
L 469 531 
Q 828 903 1448 1529 
Q 2069 2156 2228 2338 
Q 2531 2678 2651 2914 
Q 2772 3150 2772 3378 
Q 2772 3750 2511 3984 
Q 2250 4219 1831 4219 
Q 1534 4219 1204 4116 
Q 875 4013 500 3803 
L 500 4441 
Q 881 4594 1212 4672 
Q 1544 4750 1819 4750 
Q 2544 4750 2975 4387 
Q 3406 4025 3406 3419 
Q 3406 3131 3298 2873 
Q 3191 2616 2906 2266 
Q 2828 2175 2409 1742 
Q 1991 1309 1228 531 
z
" transform="scale(0.015625)"/>
        <path id="DejaVuSans-30" d="M 2034 4250 
Q 1547 4250 1301 3770 
Q 1056 3291 1056 2328 
Q 1056 1369 1301 889 
Q 1547 409 2034 409 
Q 2525 409 2770 889 
Q 3016 1369 3016 2328 
Q 3016 3291 2770 3770 
Q 2525 4250 2034 4250 
z
M 2034 4750 
Q 2819 4750 3233 4129 
Q 3647 3509 3647 2328 
Q 3647 1150 3233 529 
Q 2819 -91 2034 -91 
Q 1250 -91 836 529 
Q 422 1150 422 2328 
Q 422 3509 836 4129 
Q 1250 4750 2034 4750 
z
" transform="scale(0.015625)"/>
        <path id="DejaVuSans-34" d="M 2419 4116 
L 825 1625 
L 2419 1625 
L 2419 4116 
z
M 2253 4666 
L 3047 4666 
L 3047 1625 
L 3713 1625 
L 3713 1100 
L 3047 1100 
L 3047 0 
L 2419 0 
L 2419 1100 
L 313 1100 
L 313 1709 
L 2253 4666 
z
" transform="scale(0.015625)"/>
        <path id="DejaVuSans-2d" d="M 313 2009 
L 1997 2009 
L 1997 1497 
L 313 1497 
L 313 2009 
z
" transform="scale(0.015625)"/>
        <path id="DejaVuSans-37" d="M 525 4666 
L 3525 4666 
L 3525 4397 
L 1831 0 
L 1172 0 
L 2766 4134 
L 525 4134 
L 525 4666 
z
" transform="scale(0.015625)"/>
       </defs>
       <use xlink:href="#DejaVuSans-32"/>
       <use xlink:href="#DejaVuSans-30" x="63.623047"/>
       <use xlink:href="#DejaVuSans-32" x="127.246094"/>
       <use xlink:href="#DejaVuSans-34" x="190.869141"/>
       <use xlink:href="#DejaVuSans-2d" x="254.492188"/>
       <use xlink:href="#DejaVuSans-30" x="290.576172"/>
       <use xlink:href="#DejaVuSans-37" x="354.199219"/>
      </g>
     </g>
    </g>
    <g id="xtick_2">
     <g id="line2d_3">
      <path d="M 161.796818 578.54175 
L 161.796818 24.14175 
" clip-path="url(#p47a1f014f9)" style="fill: none; stroke: #ffffff; stroke-width: 0.8; stroke-linecap: square"/>
     </g>
     <g id="line2d_4">
      <g>
       <use xlink:href="#m2079595deb" x="161.796818" y="578.54175" style="fill: #555555; stroke: #555555; stroke-width: 0.8"/>
      </g>
     </g>
     <g id="text_2">
      <!-- 2024-08 -->
      <g style="fill: #555555" transform="translate(148.975536 620.459567) rotate(-45) scale(0.1 -0.1)">
       <defs>
        <path id="DejaVuSans-38" d="M 2034 2216 
Q 1584 2216 1326 1975 
Q 1069 1734 1069 1313 
Q 1069 891 1326 650 
Q 1584 409 2034 409 
Q 2484 409 2743 651 
Q 3003 894 3003 1313 
Q 3003 1734 2745 1975 
Q 2488 2216 2034 2216 
z
M 1403 2484 
Q 997 2584 770 2862 
Q 544 3141 544 3541 
Q 544 4100 942 4425 
Q 1341 4750 2034 4750 
Q 2731 4750 3128 4425 
Q 3525 4100 3525 3541 
Q 3525 3141 3298 2862 
Q 3072 2584 2669 2484 
Q 3125 2378 3379 2068 
Q 3634 1759 3634 1313 
Q 3634 634 3220 271 
Q 2806 -91 2034 -91 
Q 1263 -91 848 271 
Q 434 634 434 1313 
Q 434 1759 690 2068 
Q 947 2378 1403 2484 
z
M 1172 3481 
Q 1172 3119 1398 2916 
Q 1625 2713 2034 2713 
Q 2441 2713 2670 2916 
Q 2900 3119 2900 3481 
Q 2900 3844 2670 4047 
Q 2441 4250 2034 4250 
Q 1625 4250 1398 4047 
Q 1172 3844 1172 3481 
z
" transform="scale(0.015625)"/>
       </defs>
       <use xlink:href="#DejaVuSans-32"/>
       <use xlink:href="#DejaVuSans-30" x="63.623047"/>
       <use xlink:href="#DejaVuSans-32" x="127.246094"/>
       <use xlink:href="#DejaVuSans-34" x="190.869141"/>
       <use xlink:href="#DejaVuSans-2d" x="254.492188"/>
       <use xlink:href="#DejaVuSans-30" x="290.576172"/>
       <use xlink:href="#DejaVuSans-38" x="354.199219"/>
      </g>
     </g>
    </g>
    <g id="xtick_3">
     <g id="line2d_5">
      <path d="M 241.763001 578.54175 
L 241.763001 24.14175 
" clip-path="url(#p47a1f014f9)" style="fill: none; stroke: #ffffff; stroke-width: 0.8; stroke-linecap: square"/>
     </g>
     <g id="line2d_6">
      <g>
       <use xlink:href="#m2079595deb" x="241.763001" y="578.54175" style="fill: #555555; stroke: #555555; stroke-width: 0.8"/>
      </g>
     </g>
     <g id="text_3">
      <!-- 2024-09 -->
      <g style="fill: #555555" transform="translate(228.941718 620.459567) rotate(-45) scale(0.1 -0.1)">
       <defs>
        <path id="DejaVuSans-39" d="M 703 97 
L 703 672 
Q 941 559 1184 500 
Q 1428 441 1663 441 
Q 2288 441 2617 861 
Q 2947 1281 2994 2138 
Q 2813 1869 2534 1725 
Q 2256 1581 1919 1581 
Q 1219 1581 811 2004 
Q 403 2428 403 3163 
Q 403 3881 828 4315 
Q 1253 4750 1959 4750 
Q 2769 4750 3195 4129 
Q 3622 3509 3622 2328 
Q 3622 1225 3098 567 
Q 2575 -91 1691 -91 
Q 1453 -91 1209 -44 
Q 966 3 703 97 
z
M 1959 2075 
Q 2384 2075 2632 2365 
Q 2881 2656 2881 3163 
Q 2881 3666 2632 3958 
Q 2384 4250 1959 4250 
Q 1534 4250 1286 3958 
Q 1038 3666 1038 3163 
Q 1038 2656 1286 2365 
Q 1534 2075 1959 2075 
z
" transform="scale(0.015625)"/>
       </defs>
       <use xlink:href="#DejaVuSans-32"/>
       <use xlink:href="#DejaVuSans-30" x="63.623047"/>
       <use xlink:href="#DejaVuSans-32" x="127.246094"/>
       <use xlink:href="#DejaVuSans-34" x="190.869141"/>
       <use xlink:href="#DejaVuSans-2d" x="254.492188"/>
       <use xlink:href="#DejaVuSans-30" x="290.576172"/>
       <use xlink:href="#DejaVuSans-39" x="354.199219"/>
      </g>
     </g>
    </g>
    <g id="xtick_4">
     <g id="line2d_7">
      <path d="M 319.149629 578.54175 
L 319.149629 24.14175 
" clip-path="url(#p47a1f014f9)" style="fill: none; stroke: #ffffff; stroke-width: 0.8; stroke-linecap: square"/>
     </g>
     <g id="line2d_8">
      <g>
       <use xlink:href="#m2079595deb" x="319.149629" y="578.54175" style="fill: #555555; stroke: #555555; stroke-width: 0.8"/>
      </g>
     </g>
     <g id="text_4">
      <!-- 2024-10 -->
      <g style="fill: #555555" transform="translate(306.328347 620.459567) rotate(-45) scale(0.1 -0.1)">
       <defs>
        <path id="DejaVuSans-31" d="M 794 531 
L 1825 531 
L 1825 4091 
L 703 3866 
L 703 4441 
L 1819 4666 
L 2450 4666 
L 2450 531 
L 3481 531 
L 3481 0 
L 794 0 
L 794 531 
z
" transform="scale(0.015625)"/>
       </defs>
       <use xlink:href="#DejaVuSans-32"/>
       <use xlink:href="#DejaVuSans-30" x="63.623047"/>
       <use xlink:href="#DejaVuSans-32" x="127.246094"/>
       <use xlink:href="#DejaVuSans-34" x="190.869141"/>
       <use xlink:href="#DejaVuSans-2d" x="254.492188"/>
       <use xlink:href="#DejaVuSans-31" x="290.576172"/>
       <use xlink:href="#DejaVuSans-30" x="354.199219"/>
      </g>
     </g>
    </g>
    <g id="xtick_5">
     <g id="line2d_9">
      <path d="M 399.115812 578.54175 
L 399.115812 24.14175 
" clip-path="url(#p47a1f014f9)" style="fill: none; stroke: #ffffff; stroke-width: 0.8; stroke-linecap: square"/>
     </g>
     <g id="line2d_10">
      <g>
       <use xlink:href="#m2079595deb" x="399.115812" y="578.54175" style="fill: #555555; stroke: #555555; stroke-width: 0.8"/>
      </g>
     </g>
     <g id="text_5">
      <!-- 2024-11 -->
      <g style="fill: #555555" transform="translate(386.29453 620.459567) rotate(-45) scale(0.1 -0.1)">
       <use xlink:href="#DejaVuSans-32"/>
       <use xlink:href="#DejaVuSans-30" x="63.623047"/>
       <use xlink:href="#DejaVuSans-32" x="127.246094"/>
       <use xlink:href="#DejaVuSans-34" x="190.869141"/>
       <use xlink:href="#DejaVuSans-2d" x="254.492188"/>
       <use xlink:href="#DejaVuSans-31" x="290.576172"/>
       <use xlink:href="#DejaVuSans-31" x="354.199219"/>
      </g>
     </g>
    </g>
    <g id="xtick_6">
     <g id="line2d_11">
      <path d="M 476.502441 578.54175 
L 476.502441 24.14175 
" clip-path="url(#p47a1f014f9)" style="fill: none; stroke: #ffffff; stroke-width: 0.8; stroke-linecap: square"/>
     </g>
     <g id="line2d_12">
      <g>
       <use xlink:href="#m2079595deb" x="476.502441" y="578.54175" style="fill: #555555; stroke: #555555; stroke-width: 0.8"/>
      </g>
     </g>
     <g id="text_6">
      <!-- 2024-12 -->
      <g style="fill: #555555" transform="translate(463.681158 620.459567) rotate(-45) scale(0.1 -0.1)">
       <use xlink:href="#DejaVuSans-32"/>
       <use xlink:href="#DejaVuSans-30" x="63.623047"/>
       <use xlink:href="#DejaVuSans-32" x="127.246094"/>
       <use xlink:href="#DejaVuSans-34" x="190.869141"/>
       <use xlink:href="#DejaVuSans-2d" x="254.492188"/>
       <use xlink:href="#DejaVuSans-31" x="290.576172"/>
       <use xlink:href="#DejaVuSans-32" x="354.199219"/>
      </g>
     </g>
    </g>
    <g id="xtick_7">
     <g id="line2d_13">
      <path d="M 556.468624 578.54175 
L 556.468624 24.14175 
" clip-path="url(#p47a1f014f9)" style="fill: none; stroke: #ffffff; stroke-width: 0.8; stroke-linecap: square"/>
     </g>
     <g id="line2d_14">
      <g>
       <use xlink:href="#m2079595deb" x="556.468624" y="578.54175" style="fill: #555555; stroke: #555555; stroke-width: 0.8"/>
      </g>
     </g>
     <g id="text_7">
      <!-- 2025-01 -->
      <g style="fill: #555555" transform="translate(543.647341 620.459567) rotate(-45) scale(0.1 -0.1)">
       <defs>
        <path id="DejaVuSans-35" d="M 691 4666 
L 3169 4666 
L 3169 4134 
L 1269 4134 
L 1269 2991 
Q 1406 3038 1543 3061 
Q 1681 3084 1819 3084 
Q 2600 3084 3056 2656 
Q 3513 2228 3513 1497 
Q 3513 744 3044 326 
Q 2575 -91 1722 -91 
Q 1428 -91 1123 -41 
Q 819 9 494 109 
L 494 744 
Q 775 591 1075 516 
Q 1375 441 1709 441 
Q 2250 441 2565 725 
Q 2881 1009 2881 1497 
Q 2881 1984 2565 2268 
Q 2250 2553 1709 2553 
Q 1456 2553 1204 2497 
Q 953 2441 691 2322 
L 691 4666 
z
" transform="scale(0.015625)"/>
       </defs>
       <use xlink:href="#DejaVuSans-32"/>
       <use xlink:href="#DejaVuSans-30" x="63.623047"/>
       <use xlink:href="#DejaVuSans-32" x="127.246094"/>
       <use xlink:href="#DejaVuSans-35" x="190.869141"/>
       <use xlink:href="#DejaVuSans-2d" x="254.492188"/>
       <use xlink:href="#DejaVuSans-30" x="290.576172"/>
       <use xlink:href="#DejaVuSans-31" x="354.199219"/>
      </g>
     </g>
    </g>
    <g id="xtick_8">
     <g id="line2d_15">
      <path d="M 636.434806 578.54175 
L 636.434806 24.14175 
" clip-path="url(#p47a1f014f9)" style="fill: none; stroke: #ffffff; stroke-width: 0.8; stroke-linecap: square"/>
     </g>
     <g id="line2d_16">
      <g>
       <use xlink:href="#m2079595deb" x="636.434806" y="578.54175" style="fill: #555555; stroke: #555555; stroke-width: 0.8"/>
      </g>
     </g>
     <g id="text_8">
      <!-- 2025-02 -->
      <g style="fill: #555555" transform="translate(623.613524 620.459567) rotate(-45) scale(0.1 -0.1)">
       <use xlink:href="#DejaVuSans-32"/>
       <use xlink:href="#DejaVuSans-30" x="63.623047"/>
       <use xlink:href="#DejaVuSans-32" x="127.246094"/>
       <use xlink:href="#DejaVuSans-35" x="190.869141"/>
       <use xlink:href="#DejaVuSans-2d" x="254.492188"/>
       <use xlink:href="#DejaVuSans-30" x="290.576172"/>
       <use xlink:href="#DejaVuSans-32" x="354.199219"/>
      </g>
     </g>
    </g>
    <g id="xtick_9">
     <g id="line2d_17">
      <path d="M 708.662326 578.54175 
L 708.662326 24.14175 
" clip-path="url(#p47a1f014f9)" style="fill: none; stroke: #ffffff; stroke-width: 0.8; stroke-linecap: square"/>
     </g>
     <g id="line2d_18">
      <g>
       <use xlink:href="#m2079595deb" x="708.662326" y="578.54175" style="fill: #555555; stroke: #555555; stroke-width: 0.8"/>
      </g>
     </g>
     <g id="text_9">
      <!-- 2025-03 -->
      <g style="fill: #555555" transform="translate(695.841044 620.459567) rotate(-45) scale(0.1 -0.1)">
       <defs>
        <path id="DejaVuSans-33" d="M 2597 2516 
Q 3050 2419 3304 2112 
Q 3559 1806 3559 1356 
Q 3559 666 3084 287 
Q 2609 -91 1734 -91 
Q 1441 -91 1130 -33 
Q 819 25 488 141 
L 488 750 
Q 750 597 1062 519 
Q 1375 441 1716 441 
Q 2309 441 2620 675 
Q 2931 909 2931 1356 
Q 2931 1769 2642 2001 
Q 2353 2234 1838 2234 
L 1294 2234 
L 1294 2753 
L 1863 2753 
Q 2328 2753 2575 2939 
Q 2822 3125 2822 3475 
Q 2822 3834 2567 4026 
Q 2313 4219 1838 4219 
Q 1578 4219 1281 4162 
Q 984 4106 628 3988 
L 628 4550 
Q 988 4650 1302 4700 
Q 1616 4750 1894 4750 
Q 2613 4750 3031 4423 
Q 3450 4097 3450 3541 
Q 3450 3153 3228 2886 
Q 3006 2619 2597 2516 
z
" transform="scale(0.015625)"/>
       </defs>
       <use xlink:href="#DejaVuSans-32"/>
       <use xlink:href="#DejaVuSans-30" x="63.623047"/>
       <use xlink:href="#DejaVuSans-32" x="127.246094"/>
       <use xlink:href="#DejaVuSans-35" x="190.869141"/>
       <use xlink:href="#DejaVuSans-2d" x="254.492188"/>
       <use xlink:href="#DejaVuSans-30" x="290.576172"/>
       <use xlink:href="#DejaVuSans-33" x="354.199219"/>
      </g>
     </g>
    </g>
    <g id="xtick_10">
     <g id="line2d_19">
      <path d="M 788.628509 578.54175 
L 788.628509 24.14175 
" clip-path="url(#p47a1f014f9)" style="fill: none; stroke: #ffffff; stroke-width: 0.8; stroke-linecap: square"/>
     </g>
     <g id="line2d_20">
      <g>
       <use xlink:href="#m2079595deb" x="788.628509" y="578.54175" style="fill: #555555; stroke: #555555; stroke-width: 0.8"/>
      </g>
     </g>
     <g id="text_10">
      <!-- 2025-04 -->
      <g style="fill: #555555" transform="translate(775.807227 620.459567) rotate(-45) scale(0.1 -0.1)">
       <use xlink:href="#DejaVuSans-32"/>
       <use xlink:href="#DejaVuSans-30" x="63.623047"/>
       <use xlink:href="#DejaVuSans-32" x="127.246094"/>
       <use xlink:href="#DejaVuSans-35" x="190.869141"/>
       <use xlink:href="#DejaVuSans-2d" x="254.492188"/>
       <use xlink:href="#DejaVuSans-30" x="290.576172"/>
       <use xlink:href="#DejaVuSans-34" x="354.199219"/>
      </g>
     </g>
    </g>
    <g id="xtick_11">
     <g id="line2d_21">
      <path d="M 866.015138 578.54175 
L 866.015138 24.14175 
" clip-path="url(#p47a1f014f9)" style="fill: none; stroke: #ffffff; stroke-width: 0.8; stroke-linecap: square"/>
     </g>
     <g id="line2d_22">
      <g>
       <use xlink:href="#m2079595deb" x="866.015138" y="578.54175" style="fill: #555555; stroke: #555555; stroke-width: 0.8"/>
      </g>
     </g>
     <g id="text_11">
      <!-- 2025-05 -->
      <g style="fill: #555555" transform="translate(853.193856 620.459567) rotate(-45) scale(0.1 -0.1)">
       <use xlink:href="#DejaVuSans-32"/>
       <use xlink:href="#DejaVuSans-30" x="63.623047"/>
       <use xlink:href="#DejaVuSans-32" x="127.246094"/>
       <use xlink:href="#DejaVuSans-35" x="190.869141"/>
       <use xlink:href="#DejaVuSans-2d" x="254.492188"/>
       <use xlink:href="#DejaVuSans-30" x="290.576172"/>
       <use xlink:href="#DejaVuSans-35" x="354.199219"/>
      </g>
     </g>
    </g>
    <g id="xtick_12">
     <g id="line2d_23">
      <path d="M 945.981321 578.54175 
L 945.981321 24.14175 
" clip-path="url(#p47a1f014f9)" style="fill: none; stroke: #ffffff; stroke-width: 0.8; stroke-linecap: square"/>
     </g>
     <g id="line2d_24">
      <g>
       <use xlink:href="#m2079595deb" x="945.981321" y="578.54175" style="fill: #555555; stroke: #555555; stroke-width: 0.8"/>
      </g>
     </g>
     <g id="text_12">
      <!-- 2025-06 -->
      <g style="fill: #555555" transform="translate(933.160038 620.459567) rotate(-45) scale(0.1 -0.1)">
       <defs>
        <path id="DejaVuSans-36" d="M 2113 2584 
Q 1688 2584 1439 2293 
Q 1191 2003 1191 1497 
Q 1191 994 1439 701 
Q 1688 409 2113 409 
Q 2538 409 2786 701 
Q 3034 994 3034 1497 
Q 3034 2003 2786 2293 
Q 2538 2584 2113 2584 
z
M 3366 4563 
L 3366 3988 
Q 3128 4100 2886 4159 
Q 2644 4219 2406 4219 
Q 1781 4219 1451 3797 
Q 1122 3375 1075 2522 
Q 1259 2794 1537 2939 
Q 1816 3084 2150 3084 
Q 2853 3084 3261 2657 
Q 3669 2231 3669 1497 
Q 3669 778 3244 343 
Q 2819 -91 2113 -91 
Q 1303 -91 875 529 
Q 447 1150 447 2328 
Q 447 3434 972 4092 
Q 1497 4750 2381 4750 
Q 2619 4750 2861 4703 
Q 3103 4656 3366 4563 
z
" transform="scale(0.015625)"/>
       </defs>
       <use xlink:href="#DejaVuSans-32"/>
       <use xlink:href="#DejaVuSans-30" x="63.623047"/>
       <use xlink:href="#DejaVuSans-32" x="127.246094"/>
       <use xlink:href="#DejaVuSans-35" x="190.869141"/>
       <use xlink:href="#DejaVuSans-2d" x="254.492188"/>
       <use xlink:href="#DejaVuSans-30" x="290.576172"/>
       <use xlink:href="#DejaVuSans-36" x="354.199219"/>
      </g>
     </g>
    </g>
    <g id="text_13">
     <!-- Date -->
     <g style="fill: #555555" transform="translate(482.797938 635.048253) scale(0.12 -0.12)">
      <defs>
       <path id="DejaVuSans-44" d="M 1259 4147 
L 1259 519 
L 2022 519 
Q 2988 519 3436 956 
Q 3884 1394 3884 2338 
Q 3884 3275 3436 3711 
Q 2988 4147 2022 4147 
L 1259 4147 
z
M 628 4666 
L 1925 4666 
Q 3281 4666 3915 4102 
Q 4550 3538 4550 2338 
Q 4550 1131 3912 565 
Q 3275 0 1925 0 
L 628 0 
L 628 4666 
z
" transform="scale(0.015625)"/>
       <path id="DejaVuSans-61" d="M 2194 1759 
Q 1497 1759 1228 1600 
Q 959 1441 959 1056 
Q 959 750 1161 570 
Q 1363 391 1709 391 
Q 2188 391 2477 730 
Q 2766 1069 2766 1631 
L 2766 1759 
L 2194 1759 
z
M 3341 1997 
L 3341 0 
L 2766 0 
L 2766 531 
Q 2569 213 2275 61 
Q 1981 -91 1556 -91 
Q 1019 -91 701 211 
Q 384 513 384 1019 
Q 384 1609 779 1909 
Q 1175 2209 1959 2209 
L 2766 2209 
L 2766 2266 
Q 2766 2663 2505 2880 
Q 2244 3097 1772 3097 
Q 1472 3097 1187 3025 
Q 903 2953 641 2809 
L 641 3341 
Q 956 3463 1253 3523 
Q 1550 3584 1831 3584 
Q 2591 3584 2966 3190 
Q 3341 2797 3341 1997 
z
" transform="scale(0.015625)"/>
       <path id="DejaVuSans-74" d="M 1172 4494 
L 1172 3500 
L 2356 3500 
L 2356 3053 
L 1172 3053 
L 1172 1153 
Q 1172 725 1289 603 
Q 1406 481 1766 481 
L 2356 481 
L 2356 0 
L 1766 0 
Q 1100 0 847 248 
Q 594 497 594 1153 
L 594 3053 
L 172 3053 
L 172 3500 
L 594 3500 
L 594 4494 
L 1172 4494 
z
" transform="scale(0.015625)"/>
       <path id="DejaVuSans-65" d="M 3597 1894 
L 3597 1613 
L 953 1613 
Q 991 1019 1311 708 
Q 1631 397 2203 397 
Q 2534 397 2845 478 
Q 3156 559 3463 722 
L 3463 178 
Q 3153 47 2828 -22 
Q 2503 -91 2169 -91 
Q 1331 -91 842 396 
Q 353 884 353 1716 
Q 353 2575 817 3079 
Q 1281 3584 2069 3584 
Q 2775 3584 3186 3129 
Q 3597 2675 3597 1894 
z
M 3022 2063 
Q 3016 2534 2758 2815 
Q 2500 3097 2075 3097 
Q 1594 3097 1305 2825 
Q 1016 2553 972 2059 
L 3022 2063 
z
" transform="scale(0.015625)"/>
      </defs>
      <use xlink:href="#DejaVuSans-44"/>
      <use xlink:href="#DejaVuSans-61" x="77.001953"/>
      <use xlink:href="#DejaVuSans-74" x="138.28125"/>
      <use xlink:href="#DejaVuSans-65" x="177.490234"/>
     </g>
    </g>
   </g>
   <g id="matplotlib.axis_2">
    <g id="ytick_1">
     <g id="line2d_25">
      <path d="M 45.716875 578.54175 
L 948.560875 578.54175 
" clip-path="url(#p47a1f014f9)" style="fill: none; stroke: #ffffff; stroke-width: 0.8; stroke-linecap: square"/>
     </g>
     <g id="line2d_26">
      <defs>
       <path id="md957d8222e" d="M 0 0 
L -3.5 0 
" style="stroke: #555555; stroke-width: 0.8"/>
      </defs>
      <g>
       <use xlink:href="#md957d8222e" x="45.716875" y="578.54175" style="fill: #555555; stroke: #555555; stroke-width: 0.8"/>
      </g>
     </g>
     <g id="text_14">
      <!-- 0.0 -->
      <g style="fill: #555555" transform="translate(22.81375 582.340969) scale(0.1 -0.1)">
       <defs>
        <path id="DejaVuSans-2e" d="M 684 794 
L 1344 794 
L 1344 0 
L 684 0 
L 684 794 
z
" transform="scale(0.015625)"/>
       </defs>
       <use xlink:href="#DejaVuSans-30"/>
       <use xlink:href="#DejaVuSans-2e" x="63.623047"/>
       <use xlink:href="#DejaVuSans-30" x="95.410156"/>
      </g>
     </g>
    </g>
    <g id="ytick_2">
     <g id="line2d_27">
      <path d="M 45.716875 467.65709 
L 948.560875 467.65709 
" clip-path="url(#p47a1f014f9)" style="fill: none; stroke: #ffffff; stroke-width: 0.8; stroke-linecap: square"/>
     </g>
     <g id="line2d_28">
      <g>
       <use xlink:href="#md957d8222e" x="45.716875" y="467.65709" style="fill: #555555; stroke: #555555; stroke-width: 0.8"/>
      </g>
     </g>
     <g id="text_15">
      <!-- 0.2 -->
      <g style="fill: #555555" transform="translate(22.81375 471.456309) scale(0.1 -0.1)">
       <use xlink:href="#DejaVuSans-30"/>
       <use xlink:href="#DejaVuSans-2e" x="63.623047"/>
       <use xlink:href="#DejaVuSans-32" x="95.410156"/>
      </g>
     </g>
    </g>
    <g id="ytick_3">
     <g id="line2d_29">
      <path d="M 45.716875 356.772431 
L 948.560875 356.772431 
" clip-path="url(#p47a1f014f9)" style="fill: none; stroke: #ffffff; stroke-width: 0.8; stroke-linecap: square"/>
     </g>
     <g id="line2d_30">
      <g>
       <use xlink:href="#md957d8222e" x="45.716875" y="356.772431" style="fill: #555555; stroke: #555555; stroke-width: 0.8"/>
      </g>
     </g>
     <g id="text_16">
      <!-- 0.4 -->
      <g style="fill: #555555" transform="translate(22.81375 360.57165) scale(0.1 -0.1)">
       <use xlink:href="#DejaVuSans-30"/>
       <use xlink:href="#DejaVuSans-2e" x="63.623047"/>
       <use xlink:href="#DejaVuSans-34" x="95.410156"/>
      </g>
     </g>
    </g>
    <g id="ytick_4">
     <g id="line2d_31">
      <path d="M 45.716875 245.887771 
L 948.560875 245.887771 
" clip-path="url(#p47a1f014f9)" style="fill: none; stroke: #ffffff; stroke-width: 0.8; stroke-linecap: square"/>
     </g>
     <g id="line2d_32">
      <g>
       <use xlink:href="#md957d8222e" x="45.716875" y="245.887771" style="fill: #555555; stroke: #555555; stroke-width: 0.8"/>
      </g>
     </g>
     <g id="text_17">
      <!-- 0.6 -->
      <g style="fill: #555555" transform="translate(22.81375 249.68699) scale(0.1 -0.1)">
       <use xlink:href="#DejaVuSans-30"/>
       <use xlink:href="#DejaVuSans-2e" x="63.623047"/>
       <use xlink:href="#DejaVuSans-36" x="95.410156"/>
      </g>
     </g>
    </g>
    <g id="ytick_5">
     <g id="line2d_33">
      <path d="M 45.716875 135.003112 
L 948.560875 135.003112 
" clip-path="url(#p47a1f014f9)" style="fill: none; stroke: #ffffff; stroke-width: 0.8; stroke-linecap: square"/>
     </g>
     <g id="line2d_34">
      <g>
       <use xlink:href="#md957d8222e" x="45.716875" y="135.003112" style="fill: #555555; stroke: #555555; stroke-width: 0.8"/>
      </g>
     </g>
     <g id="text_18">
      <!-- 0.8 -->
      <g style="fill: #555555" transform="translate(22.81375 138.80233) scale(0.1 -0.1)">
       <use xlink:href="#DejaVuSans-30"/>
       <use xlink:href="#DejaVuSans-2e" x="63.623047"/>
       <use xlink:href="#DejaVuSans-38" x="95.410156"/>
      </g>
     </g>
    </g>
    <g id="text_19">
     <!-- Share of Instances -->
     <g style="fill: #555555" transform="translate(16.318125 356.897063) rotate(-90) scale(0.12 -0.12)">
      <defs>
       <path id="DejaVuSans-53" d="M 3425 4513 
L 3425 3897 
Q 3066 4069 2747 4153 
Q 2428 4238 2131 4238 
Q 1616 4238 1336 4038 
Q 1056 3838 1056 3469 
Q 1056 3159 1242 3001 
Q 1428 2844 1947 2747 
L 2328 2669 
Q 3034 2534 3370 2195 
Q 3706 1856 3706 1288 
Q 3706 609 3251 259 
Q 2797 -91 1919 -91 
Q 1588 -91 1214 -16 
Q 841 59 441 206 
L 441 856 
Q 825 641 1194 531 
Q 1563 422 1919 422 
Q 2459 422 2753 634 
Q 3047 847 3047 1241 
Q 3047 1584 2836 1778 
Q 2625 1972 2144 2069 
L 1759 2144 
Q 1053 2284 737 2584 
Q 422 2884 422 3419 
Q 422 4038 858 4394 
Q 1294 4750 2059 4750 
Q 2388 4750 2728 4690 
Q 3069 4631 3425 4513 
z
" transform="scale(0.015625)"/>
       <path id="DejaVuSans-68" d="M 3513 2113 
L 3513 0 
L 2938 0 
L 2938 2094 
Q 2938 2591 2744 2837 
Q 2550 3084 2163 3084 
Q 1697 3084 1428 2787 
Q 1159 2491 1159 1978 
L 1159 0 
L 581 0 
L 581 4863 
L 1159 4863 
L 1159 2956 
Q 1366 3272 1645 3428 
Q 1925 3584 2291 3584 
Q 2894 3584 3203 3211 
Q 3513 2838 3513 2113 
z
" transform="scale(0.015625)"/>
       <path id="DejaVuSans-72" d="M 2631 2963 
Q 2534 3019 2420 3045 
Q 2306 3072 2169 3072 
Q 1681 3072 1420 2755 
Q 1159 2438 1159 1844 
L 1159 0 
L 581 0 
L 581 3500 
L 1159 3500 
L 1159 2956 
Q 1341 3275 1631 3429 
Q 1922 3584 2338 3584 
Q 2397 3584 2469 3576 
Q 2541 3569 2628 3553 
L 2631 2963 
z
" transform="scale(0.015625)"/>
       <path id="DejaVuSans-20" transform="scale(0.015625)"/>
       <path id="DejaVuSans-6f" d="M 1959 3097 
Q 1497 3097 1228 2736 
Q 959 2375 959 1747 
Q 959 1119 1226 758 
Q 1494 397 1959 397 
Q 2419 397 2687 759 
Q 2956 1122 2956 1747 
Q 2956 2369 2687 2733 
Q 2419 3097 1959 3097 
z
M 1959 3584 
Q 2709 3584 3137 3096 
Q 3566 2609 3566 1747 
Q 3566 888 3137 398 
Q 2709 -91 1959 -91 
Q 1206 -91 779 398 
Q 353 888 353 1747 
Q 353 2609 779 3096 
Q 1206 3584 1959 3584 
z
" transform="scale(0.015625)"/>
       <path id="DejaVuSans-66" d="M 2375 4863 
L 2375 4384 
L 1825 4384 
Q 1516 4384 1395 4259 
Q 1275 4134 1275 3809 
L 1275 3500 
L 2222 3500 
L 2222 3053 
L 1275 3053 
L 1275 0 
L 697 0 
L 697 3053 
L 147 3053 
L 147 3500 
L 697 3500 
L 697 3744 
Q 697 4328 969 4595 
Q 1241 4863 1831 4863 
L 2375 4863 
z
" transform="scale(0.015625)"/>
       <path id="DejaVuSans-49" d="M 628 4666 
L 1259 4666 
L 1259 0 
L 628 0 
L 628 4666 
z
" transform="scale(0.015625)"/>
       <path id="DejaVuSans-6e" d="M 3513 2113 
L 3513 0 
L 2938 0 
L 2938 2094 
Q 2938 2591 2744 2837 
Q 2550 3084 2163 3084 
Q 1697 3084 1428 2787 
Q 1159 2491 1159 1978 
L 1159 0 
L 581 0 
L 581 3500 
L 1159 3500 
L 1159 2956 
Q 1366 3272 1645 3428 
Q 1925 3584 2291 3584 
Q 2894 3584 3203 3211 
Q 3513 2838 3513 2113 
z
" transform="scale(0.015625)"/>
       <path id="DejaVuSans-73" d="M 2834 3397 
L 2834 2853 
Q 2591 2978 2328 3040 
Q 2066 3103 1784 3103 
Q 1356 3103 1142 2972 
Q 928 2841 928 2578 
Q 928 2378 1081 2264 
Q 1234 2150 1697 2047 
L 1894 2003 
Q 2506 1872 2764 1633 
Q 3022 1394 3022 966 
Q 3022 478 2636 193 
Q 2250 -91 1575 -91 
Q 1294 -91 989 -36 
Q 684 19 347 128 
L 347 722 
Q 666 556 975 473 
Q 1284 391 1588 391 
Q 1994 391 2212 530 
Q 2431 669 2431 922 
Q 2431 1156 2273 1281 
Q 2116 1406 1581 1522 
L 1381 1569 
Q 847 1681 609 1914 
Q 372 2147 372 2553 
Q 372 3047 722 3315 
Q 1072 3584 1716 3584 
Q 2034 3584 2315 3537 
Q 2597 3491 2834 3397 
z
" transform="scale(0.015625)"/>
       <path id="DejaVuSans-63" d="M 3122 3366 
L 3122 2828 
Q 2878 2963 2633 3030 
Q 2388 3097 2138 3097 
Q 1578 3097 1268 2742 
Q 959 2388 959 1747 
Q 959 1106 1268 751 
Q 1578 397 2138 397 
Q 2388 397 2633 464 
Q 2878 531 3122 666 
L 3122 134 
Q 2881 22 2623 -34 
Q 2366 -91 2075 -91 
Q 1284 -91 818 406 
Q 353 903 353 1747 
Q 353 2603 823 3093 
Q 1294 3584 2113 3584 
Q 2378 3584 2631 3529 
Q 2884 3475 3122 3366 
z
" transform="scale(0.015625)"/>
      </defs>
      <use xlink:href="#DejaVuSans-53"/>
      <use xlink:href="#DejaVuSans-68" x="63.476562"/>
      <use xlink:href="#DejaVuSans-61" x="126.855469"/>
      <use xlink:href="#DejaVuSans-72" x="188.134766"/>
      <use xlink:href="#DejaVuSans-65" x="226.998047"/>
      <use xlink:href="#DejaVuSans-20" x="288.521484"/>
      <use xlink:href="#DejaVuSans-6f" x="320.308594"/>
      <use xlink:href="#DejaVuSans-66" x="381.490234"/>
      <use xlink:href="#DejaVuSans-20" x="416.695312"/>
      <use xlink:href="#DejaVuSans-49" x="448.482422"/>
      <use xlink:href="#DejaVuSans-6e" x="477.974609"/>
      <use xlink:href="#DejaVuSans-73" x="541.353516"/>
      <use xlink:href="#DejaVuSans-74" x="593.453125"/>
      <use xlink:href="#DejaVuSans-61" x="632.662109"/>
      <use xlink:href="#DejaVuSans-6e" x="693.941406"/>
      <use xlink:href="#DejaVuSans-63" x="757.320312"/>
      <use xlink:href="#DejaVuSans-65" x="812.300781"/>
      <use xlink:href="#DejaVuSans-73" x="873.824219"/>
     </g>
    </g>
   </g>
   <g id="PolyCollection_1">
    <path d="M 45.716875 578.54175 
L 45.716875 578.54175 
L 63.773755 578.54175 
L 81.830635 578.54175 
L 99.887515 578.54175 
L 117.944395 578.54175 
L 136.001275 578.54175 
L 154.058155 578.54175 
L 172.115035 578.54175 
L 190.171915 578.54175 
L 208.228795 578.54175 
L 226.285675 578.54175 
L 244.342555 578.54175 
L 262.399435 578.54175 
L 280.456315 578.54175 
L 298.513195 578.54175 
L 316.570075 578.54175 
L 334.626955 578.54175 
L 352.683835 578.54175 
L 370.740715 578.54175 
L 388.797595 578.54175 
L 406.854475 578.54175 
L 424.911355 578.54175 
L 442.968235 578.54175 
L 461.025115 578.54175 
L 479.081995 578.54175 
L 497.138875 578.54175 
L 515.195755 578.54175 
L 533.252635 578.54175 
L 551.309515 578.54175 
L 569.366395 578.54175 
L 587.423275 578.54175 
L 605.480155 578.54175 
L 623.537035 578.54175 
L 641.593915 578.54175 
L 659.650795 578.54175 
L 677.707675 578.54175 
L 695.764555 578.54175 
L 713.821435 578.54175 
L 731.878315 578.54175 
L 749.935195 578.54175 
L 767.992075 578.54175 
L 786.048955 578.54175 
L 804.105835 578.54175 
L 822.162715 578.54175 
L 840.219595 578.54175 
L 858.276475 578.54175 
L 876.333355 578.54175 
L 894.390235 578.54175 
L 912.447115 578.54175 
L 930.503995 578.54175 
L 948.560875 578.54175 
L 948.560875 578.527968 
L 948.560875 578.527968 
L 930.503995 578.540852 
L 912.447115 578.541145 
L 894.390235 578.54175 
L 876.333355 578.54175 
L 858.276475 578.54175 
L 840.219595 578.54175 
L 822.162715 578.54175 
L 804.105835 578.54175 
L 786.048955 578.54175 
L 767.992075 578.54175 
L 749.935195 578.541595 
L 731.878315 578.54175 
L 713.821435 578.54175 
L 695.764555 578.54175 
L 677.707675 578.54159 
L 659.650795 578.54167 
L 641.593915 578.541591 
L 623.537035 578.541587 
L 605.480155 578.54175 
L 587.423275 578.54175 
L 569.366395 578.54175 
L 551.309515 578.54175 
L 533.252635 578.54175 
L 515.195755 578.54175 
L 497.138875 578.54175 
L 479.081995 578.54175 
L 461.025115 578.54175 
L 442.968235 578.54175 
L 424.911355 578.54175 
L 406.854475 578.54175 
L 388.797595 578.54175 
L 370.740715 578.54175 
L 352.683835 578.54175 
L 334.626955 578.541565 
L 316.570075 578.54175 
L 298.513195 578.54175 
L 280.456315 578.54175 
L 262.399435 578.54175 
L 244.342555 578.54175 
L 226.285675 578.54175 
L 208.228795 578.54175 
L 190.171915 578.54175 
L 172.115035 578.54175 
L 154.058155 578.54175 
L 136.001275 578.54175 
L 117.944395 578.54175 
L 99.887515 578.54175 
L 81.830635 578.54175 
L 63.773755 578.54175 
L 45.716875 578.54175 
z
" clip-path="url(#p47a1f014f9)" style="fill: #e24a33"/>
   </g>
   <g id="PolyCollection_2">
    <path d="M 45.716875 578.54175 
L 45.716875 578.54175 
L 63.773755 578.54175 
L 81.830635 578.54175 
L 99.887515 578.54175 
L 117.944395 578.54175 
L 136.001275 578.54175 
L 154.058155 578.54175 
L 172.115035 578.54175 
L 190.171915 578.54175 
L 208.228795 578.54175 
L 226.285675 578.54175 
L 244.342555 578.54175 
L 262.399435 578.54175 
L 280.456315 578.54175 
L 298.513195 578.54175 
L 316.570075 578.54175 
L 334.626955 578.541565 
L 352.683835 578.54175 
L 370.740715 578.54175 
L 388.797595 578.54175 
L 406.854475 578.54175 
L 424.911355 578.54175 
L 442.968235 578.54175 
L 461.025115 578.54175 
L 479.081995 578.54175 
L 497.138875 578.54175 
L 515.195755 578.54175 
L 533.252635 578.54175 
L 551.309515 578.54175 
L 569.366395 578.54175 
L 587.423275 578.54175 
L 605.480155 578.54175 
L 623.537035 578.541587 
L 641.593915 578.541591 
L 659.650795 578.54167 
L 677.707675 578.54159 
L 695.764555 578.54175 
L 713.821435 578.54175 
L 731.878315 578.54175 
L 749.935195 578.541595 
L 767.992075 578.54175 
L 786.048955 578.54175 
L 804.105835 578.54175 
L 822.162715 578.54175 
L 840.219595 578.54175 
L 858.276475 578.54175 
L 876.333355 578.54175 
L 894.390235 578.54175 
L 912.447115 578.541145 
L 930.503995 578.540852 
L 948.560875 578.527968 
L 948.560875 541.589787 
L 948.560875 541.589787 
L 930.503995 566.321664 
L 912.447115 578.533589 
L 894.390235 578.54175 
L 876.333355 578.54175 
L 858.276475 578.54175 
L 840.219595 578.54175 
L 822.162715 578.54175 
L 804.105835 578.54175 
L 786.048955 578.54175 
L 767.992075 578.54175 
L 749.935195 578.541595 
L 731.878315 578.54175 
L 713.821435 578.54175 
L 695.764555 578.54175 
L 677.707675 578.54159 
L 659.650795 578.54167 
L 641.593915 578.541591 
L 623.537035 578.541587 
L 605.480155 578.54175 
L 587.423275 578.54175 
L 569.366395 578.54175 
L 551.309515 578.54175 
L 533.252635 578.54175 
L 515.195755 578.54175 
L 497.138875 578.54175 
L 479.081995 578.54175 
L 461.025115 578.54175 
L 442.968235 578.54175 
L 424.911355 578.54175 
L 406.854475 578.54175 
L 388.797595 578.54175 
L 370.740715 578.54175 
L 352.683835 578.54175 
L 334.626955 578.541565 
L 316.570075 578.54175 
L 298.513195 578.54175 
L 280.456315 578.54175 
L 262.399435 578.54175 
L 244.342555 578.54175 
L 226.285675 578.54175 
L 208.228795 578.54175 
L 190.171915 578.54175 
L 172.115035 578.54175 
L 154.058155 578.54175 
L 136.001275 578.54175 
L 117.944395 578.54175 
L 99.887515 578.54175 
L 81.830635 578.54175 
L 63.773755 578.54175 
L 45.716875 578.54175 
z
" clip-path="url(#p47a1f014f9)" style="fill: #348abd"/>
   </g>
   <g id="PolyCollection_3">
    <path d="M 45.716875 578.540799 
L 45.716875 578.54175 
L 63.773755 578.54175 
L 81.830635 578.54175 
L 99.887515 578.54175 
L 117.944395 578.54175 
L 136.001275 578.54175 
L 154.058155 578.54175 
L 172.115035 578.54175 
L 190.171915 578.54175 
L 208.228795 578.54175 
L 226.285675 578.54175 
L 244.342555 578.54175 
L 262.399435 578.54175 
L 280.456315 578.54175 
L 298.513195 578.54175 
L 316.570075 578.54175 
L 334.626955 578.541565 
L 352.683835 578.54175 
L 370.740715 578.54175 
L 388.797595 578.54175 
L 406.854475 578.54175 
L 424.911355 578.54175 
L 442.968235 578.54175 
L 461.025115 578.54175 
L 479.081995 578.54175 
L 497.138875 578.54175 
L 515.195755 578.54175 
L 533.252635 578.54175 
L 551.309515 578.54175 
L 569.366395 578.54175 
L 587.423275 578.54175 
L 605.480155 578.54175 
L 623.537035 578.541587 
L 641.593915 578.541591 
L 659.650795 578.54167 
L 677.707675 578.54159 
L 695.764555 578.54175 
L 713.821435 578.54175 
L 731.878315 578.54175 
L 749.935195 578.541595 
L 767.992075 578.54175 
L 786.048955 578.54175 
L 804.105835 578.54175 
L 822.162715 578.54175 
L 840.219595 578.54175 
L 858.276475 578.54175 
L 876.333355 578.54175 
L 894.390235 578.54175 
L 912.447115 578.533589 
L 930.503995 566.321664 
L 948.560875 541.589787 
L 948.560875 431.311994 
L 948.560875 431.311994 
L 930.503995 433.131924 
L 912.447115 438.384404 
L 894.390235 440.467452 
L 876.333355 441.795859 
L 858.276475 444.711825 
L 840.219595 447.298309 
L 822.162715 447.571381 
L 804.105835 449.71052 
L 786.048955 453.178069 
L 767.992075 455.309243 
L 749.935195 457.182624 
L 731.878315 463.623774 
L 713.821435 465.264213 
L 695.764555 468.585295 
L 677.707675 470.716886 
L 659.650795 476.023551 
L 641.593915 481.697096 
L 623.537035 483.616251 
L 605.480155 484.474595 
L 587.423275 488.631443 
L 569.366395 492.71844 
L 551.309515 497.993446 
L 533.252635 497.549979 
L 515.195755 504.997474 
L 497.138875 508.417326 
L 479.081995 514.058356 
L 461.025115 527.607393 
L 442.968235 536.719055 
L 424.911355 562.746028 
L 406.854475 578.537519 
L 388.797595 578.54103 
L 370.740715 578.541023 
L 352.683835 578.54102 
L 334.626955 578.540823 
L 316.570075 578.540995 
L 298.513195 578.540961 
L 280.456315 578.540971 
L 262.399435 578.540944 
L 244.342555 578.540935 
L 226.285675 578.54091 
L 208.228795 578.540909 
L 190.171915 578.540896 
L 172.115035 578.540889 
L 154.058155 578.540856 
L 136.001275 578.540853 
L 117.944395 578.540834 
L 99.887515 578.540833 
L 81.830635 578.540828 
L 63.773755 578.540793 
L 45.716875 578.540799 
z
" clip-path="url(#p47a1f014f9)" style="fill: #988ed5"/>
   </g>
   <g id="PolyCollection_4">
    <path d="M 45.716875 497.636362 
L 45.716875 578.540799 
L 63.773755 578.540793 
L 81.830635 578.540828 
L 99.887515 578.540833 
L 117.944395 578.540834 
L 136.001275 578.540853 
L 154.058155 578.540856 
L 172.115035 578.540889 
L 190.171915 578.540896 
L 208.228795 578.540909 
L 226.285675 578.54091 
L 244.342555 578.540935 
L 262.399435 578.540944 
L 280.456315 578.540971 
L 298.513195 578.540961 
L 316.570075 578.540995 
L 334.626955 578.540823 
L 352.683835 578.54102 
L 370.740715 578.541023 
L 388.797595 578.54103 
L 406.854475 578.537519 
L 424.911355 562.746028 
L 442.968235 536.719055 
L 461.025115 527.607393 
L 479.081995 514.058356 
L 497.138875 508.417326 
L 515.195755 504.997474 
L 533.252635 497.549979 
L 551.309515 497.993446 
L 569.366395 492.71844 
L 587.423275 488.631443 
L 605.480155 484.474595 
L 623.537035 483.616251 
L 641.593915 481.697096 
L 659.650795 476.023551 
L 677.707675 470.716886 
L 695.764555 468.585295 
L 713.821435 465.264213 
L 731.878315 463.623774 
L 749.935195 457.182624 
L 767.992075 455.309243 
L 786.048955 453.178069 
L 804.105835 449.71052 
L 822.162715 447.571381 
L 840.219595 447.298309 
L 858.276475 444.711825 
L 876.333355 441.795859 
L 894.390235 440.467452 
L 912.447115 438.384404 
L 930.503995 433.131924 
L 948.560875 431.311994 
L 948.560875 381.086095 
L 948.560875 381.086095 
L 930.503995 381.216028 
L 912.447115 385.899617 
L 894.390235 386.870423 
L 876.333355 387.109503 
L 858.276475 390.496096 
L 840.219595 392.068513 
L 822.162715 391.027753 
L 804.105835 391.85746 
L 786.048955 395.363896 
L 767.992075 397.49332 
L 749.935195 394.469303 
L 731.878315 399.31791 
L 713.821435 399.75692 
L 695.764555 402.281333 
L 677.707675 401.414443 
L 659.650795 406.032161 
L 641.593915 411.301281 
L 623.537035 411.198924 
L 605.480155 410.515 
L 587.423275 412.620595 
L 569.366395 412.932853 
L 551.309515 414.766558 
L 533.252635 411.44119 
L 515.195755 417.140246 
L 497.138875 419.618878 
L 479.081995 419.961119 
L 461.025115 424.536463 
L 442.968235 421.511435 
L 424.911355 430.728644 
L 406.854475 435.643007 
L 388.797595 438.02661 
L 370.740715 439.07373 
L 352.683835 442.321992 
L 334.626955 444.760502 
L 316.570075 448.389288 
L 298.513195 445.95316 
L 280.456315 450.474265 
L 262.399435 454.308236 
L 244.342555 458.151118 
L 226.285675 460.483473 
L 208.228795 464.067697 
L 190.171915 467.283095 
L 172.115035 471.260108 
L 154.058155 469.782084 
L 136.001275 474.791488 
L 117.944395 477.184496 
L 99.887515 481.890999 
L 81.830635 488.018104 
L 63.773755 490.495869 
L 45.716875 497.636362 
z
" clip-path="url(#p47a1f014f9)" style="fill: #777777"/>
   </g>
   <g id="PolyCollection_5">
    <path d="M 45.716875 432.497883 
L 45.716875 497.636362 
L 63.773755 490.495869 
L 81.830635 488.018104 
L 99.887515 481.890999 
L 117.944395 477.184496 
L 136.001275 474.791488 
L 154.058155 469.782084 
L 172.115035 471.260108 
L 190.171915 467.283095 
L 208.228795 464.067697 
L 226.285675 460.483473 
L 244.342555 458.151118 
L 262.399435 454.308236 
L 280.456315 450.474265 
L 298.513195 445.95316 
L 316.570075 448.389288 
L 334.626955 444.760502 
L 352.683835 442.321992 
L 370.740715 439.07373 
L 388.797595 438.02661 
L 406.854475 435.643007 
L 424.911355 430.728644 
L 442.968235 421.511435 
L 461.025115 424.536463 
L 479.081995 419.961119 
L 497.138875 419.618878 
L 515.195755 417.140246 
L 533.252635 411.44119 
L 551.309515 414.766558 
L 569.366395 412.932853 
L 587.423275 412.620595 
L 605.480155 410.515 
L 623.537035 411.198924 
L 641.593915 411.301281 
L 659.650795 406.032161 
L 677.707675 401.414443 
L 695.764555 402.281333 
L 713.821435 399.75692 
L 731.878315 399.31791 
L 749.935195 394.469303 
L 767.992075 397.49332 
L 786.048955 395.363896 
L 804.105835 391.85746 
L 822.162715 391.027753 
L 840.219595 392.068513 
L 858.276475 390.496096 
L 876.333355 387.109503 
L 894.390235 386.870423 
L 912.447115 385.899617 
L 930.503995 381.216028 
L 948.560875 381.086095 
L 948.560875 359.342679 
L 948.560875 359.342679 
L 930.503995 358.947647 
L 912.447115 363.439441 
L 894.390235 364.135825 
L 876.333355 364.053939 
L 858.276475 367.556642 
L 840.219595 369.037275 
L 822.162715 367.609753 
L 804.105835 368.153139 
L 786.048955 371.865833 
L 767.992075 374.14011 
L 749.935195 370.494619 
L 731.878315 375.221522 
L 713.821435 374.634952 
L 695.764555 377.124223 
L 677.707675 375.007484 
L 659.650795 379.078557 
L 641.593915 383.627436 
L 623.537035 382.398478 
L 605.480155 380.138402 
L 587.423275 383.537539 
L 569.366395 382.141937 
L 551.309515 384.466513 
L 533.252635 380.767331 
L 515.195755 385.803678 
L 497.138875 388.327073 
L 479.081995 388.442157 
L 461.025115 391.611937 
L 442.968235 387.903872 
L 424.911355 396.104038 
L 406.854475 400.316787 
L 388.797595 401.635599 
L 370.740715 401.440054 
L 352.683835 403.20595 
L 334.626955 405.047973 
L 316.570075 408.389746 
L 298.513195 404.469584 
L 280.456315 408.519616 
L 262.399435 410.627543 
L 244.342555 413.388086 
L 226.285675 414.456248 
L 208.228795 417.629416 
L 190.171915 419.606747 
L 172.115035 422.811036 
L 154.058155 417.474931 
L 136.001275 421.547817 
L 117.944395 422.139541 
L 99.887515 425.545682 
L 81.830635 428.757304 
L 63.773755 427.796853 
L 45.716875 432.497883 
z
" clip-path="url(#p47a1f014f9)" style="fill: #fbc15e"/>
   </g>
   <g id="PolyCollection_6">
    <path d="M 45.716875 401.926385 
L 45.716875 432.497883 
L 63.773755 427.796853 
L 81.830635 428.757304 
L 99.887515 425.545682 
L 117.944395 422.139541 
L 136.001275 421.547817 
L 154.058155 417.474931 
L 172.115035 422.811036 
L 190.171915 419.606747 
L 208.228795 417.629416 
L 226.285675 414.456248 
L 244.342555 413.388086 
L 262.399435 410.627543 
L 280.456315 408.519616 
L 298.513195 404.469584 
L 316.570075 408.389746 
L 334.626955 405.047973 
L 352.683835 403.20595 
L 370.740715 401.440054 
L 388.797595 401.635599 
L 406.854475 400.316787 
L 424.911355 396.104038 
L 442.968235 387.903872 
L 461.025115 391.611937 
L 479.081995 388.442157 
L 497.138875 388.327073 
L 515.195755 385.803678 
L 533.252635 380.767331 
L 551.309515 384.466513 
L 569.366395 382.141937 
L 587.423275 383.537539 
L 605.480155 380.138402 
L 623.537035 382.398478 
L 641.593915 383.627436 
L 659.650795 379.078557 
L 677.707675 375.007484 
L 695.764555 377.124223 
L 713.821435 374.634952 
L 731.878315 375.221522 
L 749.935195 370.494619 
L 767.992075 374.14011 
L 786.048955 371.865833 
L 804.105835 368.153139 
L 822.162715 367.609753 
L 840.219595 369.037275 
L 858.276475 367.556642 
L 876.333355 364.053939 
L 894.390235 364.135825 
L 912.447115 363.439441 
L 930.503995 358.947647 
L 948.560875 359.342679 
L 948.560875 341.16476 
L 948.560875 341.16476 
L 930.503995 341.206414 
L 912.447115 345.317896 
L 894.390235 345.823178 
L 876.333355 345.370146 
L 858.276475 347.835172 
L 840.219595 348.770037 
L 822.162715 350.087033 
L 804.105835 350.153152 
L 786.048955 354.463474 
L 767.992075 357.432138 
L 749.935195 353.64023 
L 731.878315 358.497536 
L 713.821435 357.332031 
L 695.764555 359.944805 
L 677.707675 357.48881 
L 659.650795 361.203417 
L 641.593915 365.637006 
L 623.537035 363.960009 
L 605.480155 361.538437 
L 587.423275 365.1007 
L 569.366395 363.743472 
L 551.309515 365.599972 
L 533.252635 361.401031 
L 515.195755 366.22516 
L 497.138875 368.932254 
L 479.081995 368.660031 
L 461.025115 371.150048 
L 442.968235 366.787964 
L 424.911355 373.628633 
L 406.854475 378.950209 
L 388.797595 379.895357 
L 370.740715 380.600051 
L 352.683835 381.698398 
L 334.626955 382.802201 
L 316.570075 385.729894 
L 298.513195 380.277212 
L 280.456315 384.996955 
L 262.399435 385.145603 
L 244.342555 386.829162 
L 226.285675 387.704041 
L 208.228795 390.93997 
L 190.171915 392.294538 
L 172.115035 394.331917 
L 154.058155 390.347557 
L 136.001275 393.878045 
L 117.944395 393.498583 
L 99.887515 396.541008 
L 81.830635 399.699604 
L 63.773755 397.51026 
L 45.716875 401.926385 
z
" clip-path="url(#p47a1f014f9)" style="fill: #8eba42"/>
   </g>
   <g id="PolyCollection_7">
    <path d="M 45.716875 389.266453 
L 45.716875 401.926385 
L 63.773755 397.51026 
L 81.830635 399.699604 
L 99.887515 396.541008 
L 117.944395 393.498583 
L 136.001275 393.878045 
L 154.058155 390.347557 
L 172.115035 394.331917 
L 190.171915 392.294538 
L 208.228795 390.93997 
L 226.285675 387.704041 
L 244.342555 386.829162 
L 262.399435 385.145603 
L 280.456315 384.996955 
L 298.513195 380.277212 
L 316.570075 385.729894 
L 334.626955 382.802201 
L 352.683835 381.698398 
L 370.740715 380.600051 
L 388.797595 379.895357 
L 406.854475 378.950209 
L 424.911355 373.628633 
L 442.968235 366.787964 
L 461.025115 371.150048 
L 479.081995 368.660031 
L 497.138875 368.932254 
L 515.195755 366.22516 
L 533.252635 361.401031 
L 551.309515 365.599972 
L 569.366395 363.743472 
L 587.423275 365.1007 
L 605.480155 361.538437 
L 623.537035 363.960009 
L 641.593915 365.637006 
L 659.650795 361.203417 
L 677.707675 357.48881 
L 695.764555 359.944805 
L 713.821435 357.332031 
L 731.878315 358.497536 
L 749.935195 353.64023 
L 767.992075 357.432138 
L 786.048955 354.463474 
L 804.105835 350.153152 
L 822.162715 350.087033 
L 840.219595 348.770037 
L 858.276475 347.835172 
L 876.333355 345.370146 
L 894.390235 345.823178 
L 912.447115 345.317896 
L 930.503995 341.206414 
L 948.560875 341.16476 
L 948.560875 334.529766 
L 948.560875 334.529766 
L 930.503995 334.404844 
L 912.447115 338.510811 
L 894.390235 339.048204 
L 876.333355 338.424562 
L 858.276475 340.890104 
L 840.219595 341.792532 
L 822.162715 343.012126 
L 804.105835 343.012388 
L 786.048955 347.419444 
L 767.992075 350.337988 
L 749.935195 346.450159 
L 731.878315 351.278224 
L 713.821435 349.857431 
L 695.764555 352.409322 
L 677.707675 349.788316 
L 659.650795 353.467773 
L 641.593915 357.800169 
L 623.537035 355.694449 
L 605.480155 353.446273 
L 587.423275 356.849 
L 569.366395 355.329854 
L 551.309515 357.000617 
L 533.252635 352.776097 
L 515.195755 357.454603 
L 497.138875 360.615155 
L 479.081995 360.258583 
L 461.025115 362.567014 
L 442.968235 357.910794 
L 424.911355 364.960066 
L 406.854475 370.057078 
L 388.797595 371.082772 
L 370.740715 371.573785 
L 352.683835 372.58939 
L 334.626955 373.527511 
L 316.570075 376.155168 
L 298.513195 370.103159 
L 280.456315 374.889055 
L 262.399435 374.859514 
L 244.342555 376.37825 
L 226.285675 376.983696 
L 208.228795 380.251153 
L 190.171915 381.186661 
L 172.115035 383.300494 
L 154.058155 378.488169 
L 136.001275 382.145086 
L 117.944395 381.333684 
L 99.887515 384.527436 
L 81.830635 387.597983 
L 63.773755 384.760303 
L 45.716875 389.266453 
z
" clip-path="url(#p47a1f014f9)" style="fill: #ffb5b8"/>
   </g>
   <g id="PolyCollection_8">
    <path d="M 45.716875 385.691629 
L 45.716875 389.266453 
L 63.773755 384.760303 
L 81.830635 387.597983 
L 99.887515 384.527436 
L 117.944395 381.333684 
L 136.001275 382.145086 
L 154.058155 378.488169 
L 172.115035 383.300494 
L 190.171915 381.186661 
L 208.228795 380.251153 
L 226.285675 376.983696 
L 244.342555 376.37825 
L 262.399435 374.859514 
L 280.456315 374.889055 
L 298.513195 370.103159 
L 316.570075 376.155168 
L 334.626955 373.527511 
L 352.683835 372.58939 
L 370.740715 371.573785 
L 388.797595 371.082772 
L 406.854475 370.057078 
L 424.911355 364.960066 
L 442.968235 357.910794 
L 461.025115 362.567014 
L 479.081995 360.258583 
L 497.138875 360.615155 
L 515.195755 357.454603 
L 533.252635 352.776097 
L 551.309515 357.000617 
L 569.366395 355.329854 
L 587.423275 356.849 
L 605.480155 353.446273 
L 623.537035 355.694449 
L 641.593915 357.800169 
L 659.650795 353.467773 
L 677.707675 349.788316 
L 695.764555 352.409322 
L 713.821435 349.857431 
L 731.878315 351.278224 
L 749.935195 346.450159 
L 767.992075 350.337988 
L 786.048955 347.419444 
L 804.105835 343.012388 
L 822.162715 343.012126 
L 840.219595 341.792532 
L 858.276475 340.890104 
L 876.333355 338.424562 
L 894.390235 339.048204 
L 912.447115 338.510811 
L 930.503995 334.404844 
L 948.560875 334.529766 
L 948.560875 332.6514 
L 948.560875 332.6514 
L 930.503995 332.436222 
L 912.447115 336.521463 
L 894.390235 337.050884 
L 876.333355 336.416596 
L 858.276475 338.942396 
L 840.219595 339.747737 
L 822.162715 341.075468 
L 804.105835 340.949868 
L 786.048955 345.447558 
L 767.992075 348.396847 
L 749.935195 344.444722 
L 731.878315 349.288752 
L 713.821435 347.82524 
L 695.764555 350.399517 
L 677.707675 347.723709 
L 659.650795 351.404221 
L 641.593915 355.754621 
L 623.537035 353.600891 
L 605.480155 351.32343 
L 587.423275 354.695497 
L 569.366395 353.161286 
L 551.309515 354.826295 
L 533.252635 350.530796 
L 515.195755 355.180362 
L 497.138875 358.419237 
L 479.081995 357.899791 
L 461.025115 360.049743 
L 442.968235 355.080299 
L 424.911355 362.530842 
L 406.854475 367.593411 
L 388.797595 368.557869 
L 370.740715 369.090401 
L 352.683835 370.149008 
L 334.626955 371.008345 
L 316.570075 373.591621 
L 298.513195 367.413594 
L 280.456315 372.205986 
L 262.399435 372.103647 
L 244.342555 373.501535 
L 226.285675 374.047072 
L 208.228795 377.270086 
L 190.171915 378.187567 
L 172.115035 380.275657 
L 154.058155 375.324264 
L 136.001275 378.920426 
L 117.944395 378.000564 
L 99.887515 381.194901 
L 81.830635 384.299197 
L 63.773755 381.295672 
L 45.716875 385.691629 
z
" clip-path="url(#p47a1f014f9)" style="fill: #e24a33"/>
   </g>
   <g id="PolyCollection_9">
    <path d="M 45.716875 312.248739 
L 45.716875 385.691629 
L 63.773755 381.295672 
L 81.830635 384.299197 
L 99.887515 381.194901 
L 117.944395 378.000564 
L 136.001275 378.920426 
L 154.058155 375.324264 
L 172.115035 380.275657 
L 190.171915 378.187567 
L 208.228795 377.270086 
L 226.285675 374.047072 
L 244.342555 373.501535 
L 262.399435 372.103647 
L 280.456315 372.205986 
L 298.513195 367.413594 
L 316.570075 373.591621 
L 334.626955 371.008345 
L 352.683835 370.149008 
L 370.740715 369.090401 
L 388.797595 368.557869 
L 406.854475 367.593411 
L 424.911355 362.530842 
L 442.968235 355.080299 
L 461.025115 360.049743 
L 479.081995 357.899791 
L 497.138875 358.419237 
L 515.195755 355.180362 
L 533.252635 350.530796 
L 551.309515 354.826295 
L 569.366395 353.161286 
L 587.423275 354.695497 
L 605.480155 351.32343 
L 623.537035 353.600891 
L 641.593915 355.754621 
L 659.650795 351.404221 
L 677.707675 347.723709 
L 695.764555 350.399517 
L 713.821435 347.82524 
L 731.878315 349.288752 
L 749.935195 344.444722 
L 767.992075 348.396847 
L 786.048955 345.447558 
L 804.105835 340.949868 
L 822.162715 341.075468 
L 840.219595 339.747737 
L 858.276475 338.942396 
L 876.333355 336.416596 
L 894.390235 337.050884 
L 912.447115 336.521463 
L 930.503995 332.436222 
L 948.560875 332.6514 
L 948.560875 161.539794 
L 948.560875 161.539794 
L 930.503995 161.122831 
L 912.447115 162.940498 
L 894.390235 161.955013 
L 876.333355 162.260357 
L 858.276475 168.147028 
L 840.219595 170.966753 
L 822.162715 169.485752 
L 804.105835 171.307424 
L 786.048955 172.590149 
L 767.992075 173.998717 
L 749.935195 174.574615 
L 731.878315 176.363921 
L 713.821435 178.980852 
L 695.764555 180.112359 
L 677.707675 183.557869 
L 659.650795 181.916417 
L 641.593915 188.99674 
L 623.537035 188.651321 
L 605.480155 188.724448 
L 587.423275 191.572491 
L 569.366395 191.202442 
L 551.309515 196.035648 
L 533.252635 195.807784 
L 515.195755 196.481944 
L 497.138875 205.577545 
L 479.081995 205.933496 
L 461.025115 206.923133 
L 442.968235 199.269234 
L 424.911355 209.550496 
L 406.854475 215.731589 
L 388.797595 220.129233 
L 370.740715 221.464056 
L 352.683835 227.875992 
L 334.626955 230.276898 
L 316.570075 231.572991 
L 298.513195 221.774609 
L 280.456315 230.045302 
L 262.399435 232.147067 
L 244.342555 234.084178 
L 226.285675 234.312011 
L 208.228795 240.011771 
L 190.171915 247.927356 
L 172.115035 253.48605 
L 154.058155 262.058181 
L 136.001275 269.156279 
L 117.944395 276.640449 
L 99.887515 281.23409 
L 81.830635 297.921628 
L 63.773755 301.596353 
L 45.716875 312.248739 
z
" clip-path="url(#p47a1f014f9)" style="fill: #348abd"/>
   </g>
   <g id="PolyCollection_10">
    <path d="M 45.716875 207.955379 
L 45.716875 312.248739 
L 63.773755 301.596353 
L 81.830635 297.921628 
L 99.887515 281.23409 
L 117.944395 276.640449 
L 136.001275 269.156279 
L 154.058155 262.058181 
L 172.115035 253.48605 
L 190.171915 247.927356 
L 208.228795 240.011771 
L 226.285675 234.312011 
L 244.342555 234.084178 
L 262.399435 232.147067 
L 280.456315 230.045302 
L 298.513195 221.774609 
L 316.570075 231.572991 
L 334.626955 230.276898 
L 352.683835 227.875992 
L 370.740715 221.464056 
L 388.797595 220.129233 
L 406.854475 215.731589 
L 424.911355 209.550496 
L 442.968235 199.269234 
L 461.025115 206.923133 
L 479.081995 205.933496 
L 497.138875 205.577545 
L 515.195755 196.481944 
L 533.252635 195.807784 
L 551.309515 196.035648 
L 569.366395 191.202442 
L 587.423275 191.572491 
L 605.480155 188.724448 
L 623.537035 188.651321 
L 641.593915 188.99674 
L 659.650795 181.916417 
L 677.707675 183.557869 
L 695.764555 180.112359 
L 713.821435 178.980852 
L 731.878315 176.363921 
L 749.935195 174.574615 
L 767.992075 173.998717 
L 786.048955 172.590149 
L 804.105835 171.307424 
L 822.162715 169.485752 
L 840.219595 170.966753 
L 858.276475 168.147028 
L 876.333355 162.260357 
L 894.390235 161.955013 
L 912.447115 162.940498 
L 930.503995 161.122831 
L 948.560875 161.539794 
L 948.560875 134.91087 
L 948.560875 134.91087 
L 930.503995 134.00856 
L 912.447115 135.621627 
L 894.390235 133.956093 
L 876.333355 133.646184 
L 858.276475 139.671676 
L 840.219595 142.67164 
L 822.162715 140.685246 
L 804.105835 141.661231 
L 786.048955 142.900718 
L 767.992075 144.019366 
L 749.935195 143.053482 
L 731.878315 143.586885 
L 713.821435 143.682864 
L 695.764555 143.640493 
L 677.707675 145.147514 
L 659.650795 142.309945 
L 641.593915 148.525254 
L 623.537035 146.09466 
L 605.480155 145.374347 
L 587.423275 148.281121 
L 569.366395 147.644456 
L 551.309515 151.012486 
L 533.252635 151.645636 
L 515.195755 152.773504 
L 497.138875 159.9061 
L 479.081995 158.720332 
L 461.025115 158.698814 
L 442.968235 150.144289 
L 424.911355 160.353276 
L 406.854475 163.224333 
L 388.797595 165.953288 
L 370.740715 165.907275 
L 352.683835 172.094274 
L 334.626955 170.984117 
L 316.570075 169.245123 
L 298.513195 161.062403 
L 280.456315 172.353324 
L 262.399435 175.377873 
L 244.342555 178.390425 
L 226.285675 176.47667 
L 208.228795 180.154482 
L 190.171915 186.33651 
L 172.115035 190.541661 
L 154.058155 196.132734 
L 136.001275 202.531098 
L 117.944395 202.273445 
L 99.887515 201.555406 
L 81.830635 209.424218 
L 63.773755 204.795497 
L 45.716875 207.955379 
z
" clip-path="url(#p47a1f014f9)" style="fill: #988ed5"/>
   </g>
   <g id="PolyCollection_11">
    <path d="M 45.716875 150.544703 
L 45.716875 207.955379 
L 63.773755 204.795497 
L 81.830635 209.424218 
L 99.887515 201.555406 
L 117.944395 202.273445 
L 136.001275 202.531098 
L 154.058155 196.132734 
L 172.115035 190.541661 
L 190.171915 186.33651 
L 208.228795 180.154482 
L 226.285675 176.47667 
L 244.342555 178.390425 
L 262.399435 175.377873 
L 280.456315 172.353324 
L 298.513195 161.062403 
L 316.570075 169.245123 
L 334.626955 170.984117 
L 352.683835 172.094274 
L 370.740715 165.907275 
L 388.797595 165.953288 
L 406.854475 163.224333 
L 424.911355 160.353276 
L 442.968235 150.144289 
L 461.025115 158.698814 
L 479.081995 158.720332 
L 497.138875 159.9061 
L 515.195755 152.773504 
L 533.252635 151.645636 
L 551.309515 151.012486 
L 569.366395 147.644456 
L 587.423275 148.281121 
L 605.480155 145.374347 
L 623.537035 146.09466 
L 641.593915 148.525254 
L 659.650795 142.309945 
L 677.707675 145.147514 
L 695.764555 143.640493 
L 713.821435 143.682864 
L 731.878315 143.586885 
L 749.935195 143.053482 
L 767.992075 144.019366 
L 786.048955 142.900718 
L 804.105835 141.661231 
L 822.162715 140.685246 
L 840.219595 142.67164 
L 858.276475 139.671676 
L 876.333355 133.646184 
L 894.390235 133.956093 
L 912.447115 135.621627 
L 930.503995 134.00856 
L 948.560875 134.91087 
L 948.560875 116.383634 
L 948.560875 116.383634 
L 930.503995 114.501949 
L 912.447115 115.882607 
L 894.390235 113.821948 
L 876.333355 113.136635 
L 858.276475 119.00617 
L 840.219595 121.690707 
L 822.162715 119.041015 
L 804.105835 120.306416 
L 786.048955 122.167443 
L 767.992075 121.962423 
L 749.935195 120.267935 
L 731.878315 121.305075 
L 713.821435 120.807256 
L 695.764555 120.76401 
L 677.707675 121.770817 
L 659.650795 119.463141 
L 641.593915 125.477679 
L 623.537035 122.578887 
L 605.480155 121.915101 
L 587.423275 124.103159 
L 569.366395 122.515719 
L 551.309515 125.956149 
L 533.252635 126.08146 
L 515.195755 126.916515 
L 497.138875 134.7542 
L 479.081995 133.154793 
L 461.025115 132.267807 
L 442.968235 122.834517 
L 424.911355 133.350493 
L 406.854475 136.091583 
L 388.797595 138.482692 
L 370.740715 138.171619 
L 352.683835 143.756884 
L 334.626955 142.927254 
L 316.570075 140.155842 
L 298.513195 130.518536 
L 280.456315 141.182674 
L 262.399435 142.552396 
L 244.342555 144.022139 
L 226.285675 141.786215 
L 208.228795 145.347326 
L 190.171915 148.450078 
L 172.115035 146.396912 
L 154.058155 144.090171 
L 136.001275 147.706159 
L 117.944395 148.297295 
L 99.887515 146.217155 
L 81.830635 151.26236 
L 63.773755 148.142743 
L 45.716875 150.544703 
z
" clip-path="url(#p47a1f014f9)" style="fill: #777777"/>
   </g>
   <g id="PolyCollection_12">
    <path d="M 45.716875 110.73833 
L 45.716875 150.544703 
L 63.773755 148.142743 
L 81.830635 151.26236 
L 99.887515 146.217155 
L 117.944395 148.297295 
L 136.001275 147.706159 
L 154.058155 144.090171 
L 172.115035 146.396912 
L 190.171915 148.450078 
L 208.228795 145.347326 
L 226.285675 141.786215 
L 244.342555 144.022139 
L 262.399435 142.552396 
L 280.456315 141.182674 
L 298.513195 130.518536 
L 316.570075 140.155842 
L 334.626955 142.927254 
L 352.683835 143.756884 
L 370.740715 138.171619 
L 388.797595 138.482692 
L 406.854475 136.091583 
L 424.911355 133.350493 
L 442.968235 122.834517 
L 461.025115 132.267807 
L 479.081995 133.154793 
L 497.138875 134.7542 
L 515.195755 126.916515 
L 533.252635 126.08146 
L 551.309515 125.956149 
L 569.366395 122.515719 
L 587.423275 124.103159 
L 605.480155 121.915101 
L 623.537035 122.578887 
L 641.593915 125.477679 
L 659.650795 119.463141 
L 677.707675 121.770817 
L 695.764555 120.76401 
L 713.821435 120.807256 
L 731.878315 121.305075 
L 749.935195 120.267935 
L 767.992075 121.962423 
L 786.048955 122.167443 
L 804.105835 120.306416 
L 822.162715 119.041015 
L 840.219595 121.690707 
L 858.276475 119.00617 
L 876.333355 113.136635 
L 894.390235 113.821948 
L 912.447115 115.882607 
L 930.503995 114.501949 
L 948.560875 116.383634 
L 948.560875 100.914646 
L 948.560875 100.914646 
L 930.503995 98.568359 
L 912.447115 98.647031 
L 894.390235 96.893644 
L 876.333355 95.642643 
L 858.276475 98.393301 
L 840.219595 101.033023 
L 822.162715 97.467487 
L 804.105835 98.445729 
L 786.048955 100.88153 
L 767.992075 102.697889 
L 749.935195 100.254672 
L 731.878315 101.118227 
L 713.821435 99.728578 
L 695.764555 99.3004 
L 677.707675 99.805087 
L 659.650795 97.792883 
L 641.593915 104.471276 
L 623.537035 101.143108 
L 605.480155 100.263266 
L 587.423275 101.912343 
L 569.366395 99.447554 
L 551.309515 102.412249 
L 533.252635 103.836198 
L 515.195755 104.119694 
L 497.138875 110.717578 
L 479.081995 108.467397 
L 461.025115 108.155909 
L 442.968235 98.240497 
L 424.911355 109.361852 
L 406.854475 110.440166 
L 388.797595 112.339442 
L 370.740715 111.997909 
L 352.683835 115.07598 
L 334.626955 114.423725 
L 316.570075 112.29495 
L 298.513195 100.613144 
L 280.456315 110.429023 
L 262.399435 111.448303 
L 244.342555 110.752001 
L 226.285675 107.746616 
L 208.228795 109.806995 
L 190.171915 114.822948 
L 172.115035 114.602047 
L 154.058155 108.622224 
L 136.001275 111.554105 
L 117.944395 112.002556 
L 99.887515 112.737564 
L 81.830635 118.32914 
L 63.773755 112.370873 
L 45.716875 110.73833 
z
" clip-path="url(#p47a1f014f9)" style="fill: #fbc15e"/>
   </g>
   <g id="PolyCollection_13">
    <path d="M 45.716875 51.15435 
L 45.716875 110.73833 
L 63.773755 112.370873 
L 81.830635 118.32914 
L 99.887515 112.737564 
L 117.944395 112.002556 
L 136.001275 111.554105 
L 154.058155 108.622224 
L 172.115035 114.602047 
L 190.171915 114.822948 
L 208.228795 109.806995 
L 226.285675 107.746616 
L 244.342555 110.752001 
L 262.399435 111.448303 
L 280.456315 110.429023 
L 298.513195 100.613144 
L 316.570075 112.29495 
L 334.626955 114.423725 
L 352.683835 115.07598 
L 370.740715 111.997909 
L 388.797595 112.339442 
L 406.854475 110.440166 
L 424.911355 109.361852 
L 442.968235 98.240497 
L 461.025115 108.155909 
L 479.081995 108.467397 
L 497.138875 110.717578 
L 515.195755 104.119694 
L 533.252635 103.836198 
L 551.309515 102.412249 
L 569.366395 99.447554 
L 587.423275 101.912343 
L 605.480155 100.263266 
L 623.537035 101.143108 
L 641.593915 104.471276 
L 659.650795 97.792883 
L 677.707675 99.805087 
L 695.764555 99.3004 
L 713.821435 99.728578 
L 731.878315 101.118227 
L 749.935195 100.254672 
L 767.992075 102.697889 
L 786.048955 100.88153 
L 804.105835 98.445729 
L 822.162715 97.467487 
L 840.219595 101.033023 
L 858.276475 98.393301 
L 876.333355 95.642643 
L 894.390235 96.893644 
L 912.447115 98.647031 
L 930.503995 98.568359 
L 948.560875 100.914646 
L 948.560875 37.648359 
L 948.560875 37.648359 
L 930.503995 37.906882 
L 912.447115 38.135781 
L 894.390235 38.233963 
L 876.333355 38.307508 
L 858.276475 38.432497 
L 840.219595 38.635543 
L 822.162715 38.802987 
L 804.105835 39.072856 
L 786.048955 38.832326 
L 767.992075 38.976706 
L 749.935195 39.185774 
L 731.878315 39.161449 
L 713.821435 39.609775 
L 695.764555 39.632576 
L 677.707675 39.619292 
L 659.650795 39.912933 
L 641.593915 39.842645 
L 623.537035 40.187605 
L 605.480155 40.226277 
L 587.423275 40.486421 
L 569.366395 40.966126 
L 551.309515 41.353265 
L 533.252635 42.085118 
L 515.195755 42.190397 
L 497.138875 41.251734 
L 479.081995 41.461605 
L 461.025115 41.89503 
L 442.968235 42.558085 
L 424.911355 42.28009 
L 406.854475 42.647316 
L 388.797595 42.667734 
L 370.740715 42.941648 
L 352.683835 43.131306 
L 334.626955 43.519334 
L 316.570075 43.95048 
L 298.513195 44.865765 
L 280.456315 44.675661 
L 262.399435 45.390226 
L 244.342555 45.744118 
L 226.285675 46.509079 
L 208.228795 46.469201 
L 190.171915 46.826548 
L 172.115035 46.870998 
L 154.058155 47.785808 
L 136.001275 48.072621 
L 117.944395 48.707954 
L 99.887515 48.960123 
L 81.830635 49.317923 
L 63.773755 50.969373 
L 45.716875 51.15435 
z
" clip-path="url(#p47a1f014f9)" style="fill: #8eba42"/>
   </g>
   <g id="PolyCollection_14">
    <path d="M 45.716875 28.658688 
L 45.716875 51.15435 
L 63.773755 50.969373 
L 81.830635 49.317923 
L 99.887515 48.960123 
L 117.944395 48.707954 
L 136.001275 48.072621 
L 154.058155 47.785808 
L 172.115035 46.870998 
L 190.171915 46.826548 
L 208.228795 46.469201 
L 226.285675 46.509079 
L 244.342555 45.744118 
L 262.399435 45.390226 
L 280.456315 44.675661 
L 298.513195 44.865765 
L 316.570075 43.95048 
L 334.626955 43.519334 
L 352.683835 43.131306 
L 370.740715 42.941648 
L 388.797595 42.667734 
L 406.854475 42.647316 
L 424.911355 42.28009 
L 442.968235 42.558085 
L 461.025115 41.89503 
L 479.081995 41.461605 
L 497.138875 41.251734 
L 515.195755 42.190397 
L 533.252635 42.085118 
L 551.309515 41.353265 
L 569.366395 40.966126 
L 587.423275 40.486421 
L 605.480155 40.226277 
L 623.537035 40.187605 
L 641.593915 39.842645 
L 659.650795 39.912933 
L 677.707675 39.619292 
L 695.764555 39.632576 
L 713.821435 39.609775 
L 731.878315 39.161449 
L 749.935195 39.185774 
L 767.992075 38.976706 
L 786.048955 38.832326 
L 804.105835 39.072856 
L 822.162715 38.802987 
L 840.219595 38.635543 
L 858.276475 38.432497 
L 876.333355 38.307508 
L 894.390235 38.233963 
L 912.447115 38.135781 
L 930.503995 37.906882 
L 948.560875 37.648359 
L 948.560875 26.472108 
L 948.560875 26.472108 
L 930.503995 26.523032 
L 912.447115 26.580634 
L 894.390235 26.575166 
L 876.333355 26.601275 
L 858.276475 26.573281 
L 840.219595 26.600481 
L 822.162715 26.633719 
L 804.105835 26.712628 
L 786.048955 26.655781 
L 767.992075 26.696951 
L 749.935195 26.743842 
L 731.878315 26.802738 
L 713.821435 26.866418 
L 695.764555 26.888676 
L 677.707675 26.897603 
L 659.650795 27.020407 
L 641.593915 26.910236 
L 623.537035 26.975227 
L 605.480155 27.02946 
L 587.423275 27.115964 
L 569.366395 27.155271 
L 551.309515 27.282943 
L 533.252635 27.355497 
L 515.195755 27.340316 
L 497.138875 27.19798 
L 479.081995 27.233708 
L 461.025115 27.292555 
L 442.968235 27.40025 
L 424.911355 27.349727 
L 406.854475 27.413305 
L 388.797595 27.415352 
L 370.740715 27.483036 
L 352.683835 27.4833 
L 334.626955 27.534565 
L 316.570075 27.596218 
L 298.513195 27.775546 
L 280.456315 27.736529 
L 262.399435 27.864673 
L 244.342555 27.932258 
L 226.285675 28.028736 
L 208.228795 28.04025 
L 190.171915 28.104149 
L 172.115035 28.133157 
L 154.058155 28.287732 
L 136.001275 28.342716 
L 117.944395 28.47345 
L 99.887515 28.468144 
L 81.830635 28.472144 
L 63.773755 28.645699 
L 45.716875 28.658688 
z
" clip-path="url(#p47a1f014f9)" style="fill: #ffb5b8"/>
   </g>
   <g id="PolyCollection_15">
    <path d="M 45.716875 24.160767 
L 45.716875 28.658688 
L 63.773755 28.645699 
L 81.830635 28.472144 
L 99.887515 28.468144 
L 117.944395 28.47345 
L 136.001275 28.342716 
L 154.058155 28.287732 
L 172.115035 28.133157 
L 190.171915 28.104149 
L 208.228795 28.04025 
L 226.285675 28.028736 
L 244.342555 27.932258 
L 262.399435 27.864673 
L 280.456315 27.736529 
L 298.513195 27.775546 
L 316.570075 27.596218 
L 334.626955 27.534565 
L 352.683835 27.4833 
L 370.740715 27.483036 
L 388.797595 27.415352 
L 406.854475 27.413305 
L 424.911355 27.349727 
L 442.968235 27.40025 
L 461.025115 27.292555 
L 479.081995 27.233708 
L 497.138875 27.19798 
L 515.195755 27.340316 
L 533.252635 27.355497 
L 551.309515 27.282943 
L 569.366395 27.155271 
L 587.423275 27.115964 
L 605.480155 27.02946 
L 623.537035 26.975227 
L 641.593915 26.910236 
L 659.650795 27.020407 
L 677.707675 26.897603 
L 695.764555 26.888676 
L 713.821435 26.866418 
L 731.878315 26.802738 
L 749.935195 26.743842 
L 767.992075 26.696951 
L 786.048955 26.655781 
L 804.105835 26.712628 
L 822.162715 26.633719 
L 840.219595 26.600481 
L 858.276475 26.573281 
L 876.333355 26.601275 
L 894.390235 26.575166 
L 912.447115 26.580634 
L 930.503995 26.523032 
L 948.560875 26.472108 
L 948.560875 24.144451 
L 948.560875 24.144451 
L 930.503995 24.144035 
L 912.447115 24.144674 
L 894.390235 24.144149 
L 876.333355 24.142149 
L 858.276475 24.144846 
L 840.219595 24.147239 
L 822.162715 24.147506 
L 804.105835 24.148232 
L 786.048955 24.147875 
L 767.992075 24.147827 
L 749.935195 24.145961 
L 731.878315 24.145937 
L 713.821435 24.146284 
L 695.764555 24.146569 
L 677.707675 24.146948 
L 659.650795 24.145551 
L 641.593915 24.143274 
L 623.537035 24.141902 
L 605.480155 24.14175 
L 587.423275 24.14464 
L 569.366395 24.142843 
L 551.309515 24.144437 
L 533.252635 24.145621 
L 515.195755 24.144838 
L 497.138875 24.145602 
L 479.081995 24.143727 
L 461.025115 24.145007 
L 442.968235 24.147025 
L 424.911355 24.149182 
L 406.854475 24.151491 
L 388.797595 24.152115 
L 370.740715 24.15233 
L 352.683835 24.151224 
L 334.626955 24.152212 
L 316.570075 24.153349 
L 298.513195 24.155946 
L 280.456315 24.156343 
L 262.399435 24.159557 
L 244.342555 24.160347 
L 226.285675 24.160023 
L 208.228795 24.157461 
L 190.171915 24.159338 
L 172.115035 24.157534 
L 154.058155 24.160818 
L 136.001275 24.159831 
L 117.944395 24.160229 
L 99.887515 24.158244 
L 81.830635 24.158338 
L 63.773755 24.156146 
L 45.716875 24.160767 
z
" clip-path="url(#p47a1f014f9)" style="fill: #e24a33"/>
   </g>
   <g id="patch_3">
    <path d="M 45.716875 578.54175 
L 45.716875 24.14175 
" style="fill: none; stroke: #ffffff; stroke-linejoin: miter; stroke-linecap: square"/>
   </g>
   <g id="patch_4">
    <path d="M 948.560875 578.54175 
L 948.560875 24.14175 
" style="fill: none; stroke: #ffffff; stroke-linejoin: miter; stroke-linecap: square"/>
   </g>
   <g id="patch_5">
    <path d="M 45.716875 578.54175 
L 948.560875 578.54175 
" style="fill: none; stroke: #ffffff; stroke-linejoin: miter; stroke-linecap: square"/>
   </g>
   <g id="patch_6">
    <path d="M 45.716875 24.14175 
L 948.560875 24.14175 
" style="fill: none; stroke: #ffffff; stroke-linejoin: miter; stroke-linecap: square"/>
   </g>
   <g id="text_20">
    <!-- Rocky Linux Instances by Version Share -->
    <g transform="translate(45.716875 18.14175) scale(0.144 -0.144)">
     <defs>
      <path id="DejaVuSans-52" d="M 2841 2188 
Q 3044 2119 3236 1894 
Q 3428 1669 3622 1275 
L 4263 0 
L 3584 0 
L 2988 1197 
Q 2756 1666 2539 1819 
Q 2322 1972 1947 1972 
L 1259 1972 
L 1259 0 
L 628 0 
L 628 4666 
L 2053 4666 
Q 2853 4666 3247 4331 
Q 3641 3997 3641 3322 
Q 3641 2881 3436 2590 
Q 3231 2300 2841 2188 
z
M 1259 4147 
L 1259 2491 
L 2053 2491 
Q 2509 2491 2742 2702 
Q 2975 2913 2975 3322 
Q 2975 3731 2742 3939 
Q 2509 4147 2053 4147 
L 1259 4147 
z
" transform="scale(0.015625)"/>
      <path id="DejaVuSans-6b" d="M 581 4863 
L 1159 4863 
L 1159 1991 
L 2875 3500 
L 3609 3500 
L 1753 1863 
L 3688 0 
L 2938 0 
L 1159 1709 
L 1159 0 
L 581 0 
L 581 4863 
z
" transform="scale(0.015625)"/>
      <path id="DejaVuSans-79" d="M 2059 -325 
Q 1816 -950 1584 -1140 
Q 1353 -1331 966 -1331 
L 506 -1331 
L 506 -850 
L 844 -850 
Q 1081 -850 1212 -737 
Q 1344 -625 1503 -206 
L 1606 56 
L 191 3500 
L 800 3500 
L 1894 763 
L 2988 3500 
L 3597 3500 
L 2059 -325 
z
" transform="scale(0.015625)"/>
      <path id="DejaVuSans-4c" d="M 628 4666 
L 1259 4666 
L 1259 531 
L 3531 531 
L 3531 0 
L 628 0 
L 628 4666 
z
" transform="scale(0.015625)"/>
      <path id="DejaVuSans-69" d="M 603 3500 
L 1178 3500 
L 1178 0 
L 603 0 
L 603 3500 
z
M 603 4863 
L 1178 4863 
L 1178 4134 
L 603 4134 
L 603 4863 
z
" transform="scale(0.015625)"/>
      <path id="DejaVuSans-75" d="M 544 1381 
L 544 3500 
L 1119 3500 
L 1119 1403 
Q 1119 906 1312 657 
Q 1506 409 1894 409 
Q 2359 409 2629 706 
Q 2900 1003 2900 1516 
L 2900 3500 
L 3475 3500 
L 3475 0 
L 2900 0 
L 2900 538 
Q 2691 219 2414 64 
Q 2138 -91 1772 -91 
Q 1169 -91 856 284 
Q 544 659 544 1381 
z
M 1991 3584 
L 1991 3584 
z
" transform="scale(0.015625)"/>
      <path id="DejaVuSans-78" d="M 3513 3500 
L 2247 1797 
L 3578 0 
L 2900 0 
L 1881 1375 
L 863 0 
L 184 0 
L 1544 1831 
L 300 3500 
L 978 3500 
L 1906 2253 
L 2834 3500 
L 3513 3500 
z
" transform="scale(0.015625)"/>
      <path id="DejaVuSans-62" d="M 3116 1747 
Q 3116 2381 2855 2742 
Q 2594 3103 2138 3103 
Q 1681 3103 1420 2742 
Q 1159 2381 1159 1747 
Q 1159 1113 1420 752 
Q 1681 391 2138 391 
Q 2594 391 2855 752 
Q 3116 1113 3116 1747 
z
M 1159 2969 
Q 1341 3281 1617 3432 
Q 1894 3584 2278 3584 
Q 2916 3584 3314 3078 
Q 3713 2572 3713 1747 
Q 3713 922 3314 415 
Q 2916 -91 2278 -91 
Q 1894 -91 1617 61 
Q 1341 213 1159 525 
L 1159 0 
L 581 0 
L 581 4863 
L 1159 4863 
L 1159 2969 
z
" transform="scale(0.015625)"/>
      <path id="DejaVuSans-56" d="M 1831 0 
L 50 4666 
L 709 4666 
L 2188 738 
L 3669 4666 
L 4325 4666 
L 2547 0 
L 1831 0 
z
" transform="scale(0.015625)"/>
     </defs>
     <use xlink:href="#DejaVuSans-52"/>
     <use xlink:href="#DejaVuSans-6f" x="64.982422"/>
     <use xlink:href="#DejaVuSans-63" x="126.164062"/>
     <use xlink:href="#DejaVuSans-6b" x="181.144531"/>
     <use xlink:href="#DejaVuSans-79" x="235.429688"/>
     <use xlink:href="#DejaVuSans-20" x="294.609375"/>
     <use xlink:href="#DejaVuSans-4c" x="326.396484"/>
     <use xlink:href="#DejaVuSans-69" x="382.109375"/>
     <use xlink:href="#DejaVuSans-6e" x="409.892578"/>
     <use xlink:href="#DejaVuSans-75" x="473.271484"/>
     <use xlink:href="#DejaVuSans-78" x="536.650391"/>
     <use xlink:href="#DejaVuSans-20" x="595.830078"/>
     <use xlink:href="#DejaVuSans-49" x="627.617188"/>
     <use xlink:href="#DejaVuSans-6e" x="657.109375"/>
     <use xlink:href="#DejaVuSans-73" x="720.488281"/>
     <use xlink:href="#DejaVuSans-74" x="772.587891"/>
     <use xlink:href="#DejaVuSans-61" x="811.796875"/>
     <use xlink:href="#DejaVuSans-6e" x="873.076172"/>
     <use xlink:href="#DejaVuSans-63" x="936.455078"/>
     <use xlink:href="#DejaVuSans-65" x="991.435547"/>
     <use xlink:href="#DejaVuSans-73" x="1052.958984"/>
     <use xlink:href="#DejaVuSans-20" x="1105.058594"/>
     <use xlink:href="#DejaVuSans-62" x="1136.845703"/>
     <use xlink:href="#DejaVuSans-79" x="1200.322266"/>
     <use xlink:href="#DejaVuSans-20" x="1259.501953"/>
     <use xlink:href="#DejaVuSans-56" x="1291.289062"/>
     <use xlink:href="#DejaVuSans-65" x="1351.947266"/>
     <use xlink:href="#DejaVuSans-72" x="1413.470703"/>
     <use xlink:href="#DejaVuSans-73" x="1454.583984"/>
     <use xlink:href="#DejaVuSans-69" x="1506.683594"/>
     <use xlink:href="#DejaVuSans-6f" x="1534.466797"/>
     <use xlink:href="#DejaVuSans-6e" x="1595.648438"/>
     <use xlink:href="#DejaVuSans-20" x="1659.027344"/>
     <use xlink:href="#DejaVuSans-53" x="1690.814453"/>
     <use xlink:href="#DejaVuSans-68" x="1754.291016"/>
     <use xlink:href="#DejaVuSans-61" x="1817.669922"/>
     <use xlink:href="#DejaVuSans-72" x="1878.949219"/>
     <use xlink:href="#DejaVuSans-65" x="1917.8125"/>
    </g>
   </g>
   <g id="text_21">
    <!-- 2025-06-26 11:55 UTC -->
    <g transform="translate(785.678875 18.14175) scale(0.144 -0.144)">
     <defs>
      <path id="DejaVuSans-3a" d="M 750 794 
L 1409 794 
L 1409 0 
L 750 0 
L 750 794 
z
M 750 3309 
L 1409 3309 
L 1409 2516 
L 750 2516 
L 750 3309 
z
" transform="scale(0.015625)"/>
      <path id="DejaVuSans-55" d="M 556 4666 
L 1191 4666 
L 1191 1831 
Q 1191 1081 1462 751 
Q 1734 422 2344 422 
Q 2950 422 3222 751 
Q 3494 1081 3494 1831 
L 3494 4666 
L 4128 4666 
L 4128 1753 
Q 4128 841 3676 375 
Q 3225 -91 2344 -91 
Q 1459 -91 1007 375 
Q 556 841 556 1753 
L 556 4666 
z
" transform="scale(0.015625)"/>
      <path id="DejaVuSans-54" d="M -19 4666 
L 3928 4666 
L 3928 4134 
L 2272 4134 
L 2272 0 
L 1638 0 
L 1638 4134 
L -19 4134 
L -19 4666 
z
" transform="scale(0.015625)"/>
      <path id="DejaVuSans-43" d="M 4122 4306 
L 4122 3641 
Q 3803 3938 3442 4084 
Q 3081 4231 2675 4231 
Q 1875 4231 1450 3742 
Q 1025 3253 1025 2328 
Q 1025 1406 1450 917 
Q 1875 428 2675 428 
Q 3081 428 3442 575 
Q 3803 722 4122 1019 
L 4122 359 
Q 3791 134 3420 21 
Q 3050 -91 2638 -91 
Q 1578 -91 968 557 
Q 359 1206 359 2328 
Q 359 3453 968 4101 
Q 1578 4750 2638 4750 
Q 3056 4750 3426 4639 
Q 3797 4528 4122 4306 
z
" transform="scale(0.015625)"/>
     </defs>
     <use xlink:href="#DejaVuSans-32"/>
     <use xlink:href="#DejaVuSans-30" x="63.623047"/>
     <use xlink:href="#DejaVuSans-32" x="127.246094"/>
     <use xlink:href="#DejaVuSans-35" x="190.869141"/>
     <use xlink:href="#DejaVuSans-2d" x="254.492188"/>
     <use xlink:href="#DejaVuSans-30" x="290.576172"/>
     <use xlink:href="#DejaVuSans-36" x="354.199219"/>
     <use xlink:href="#DejaVuSans-2d" x="417.822266"/>
     <use xlink:href="#DejaVuSans-32" x="453.90625"/>
     <use xlink:href="#DejaVuSans-36" x="517.529297"/>
     <use xlink:href="#DejaVuSans-20" x="581.152344"/>
     <use xlink:href="#DejaVuSans-31" x="612.939453"/>
     <use xlink:href="#DejaVuSans-31" x="676.5625"/>
     <use xlink:href="#DejaVuSans-3a" x="740.185547"/>
     <use xlink:href="#DejaVuSans-35" x="773.876953"/>
     <use xlink:href="#DejaVuSans-35" x="837.5"/>
     <use xlink:href="#DejaVuSans-20" x="901.123047"/>
     <use xlink:href="#DejaVuSans-55" x="932.910156"/>
     <use xlink:href="#DejaVuSans-54" x="1006.103516"/>
     <use xlink:href="#DejaVuSans-43" x="1061.3125"/>
    </g>
   </g>
   <g id="legend_1">
    <g id="patch_7">
     <path d="M 52.716875 266.99175 
L 106.9825 266.99175 
Q 108.9825 266.99175 108.9825 264.99175 
L 108.9825 31.14175 
Q 108.9825 29.14175 106.9825 29.14175 
L 52.716875 29.14175 
Q 50.716875 29.14175 50.716875 31.14175 
L 50.716875 264.99175 
Q 50.716875 266.99175 52.716875 266.99175 
z
" style="fill: #e5e5e5; opacity: 0.8; stroke: #cccccc; stroke-width: 0.5; stroke-linejoin: miter"/>
    </g>
    <g id="text_22">
     <!-- Version -->
     <g transform="translate(61.462969 40.740188) scale(0.1 -0.1)">
      <use xlink:href="#DejaVuSans-56"/>
      <use xlink:href="#DejaVuSans-65" x="60.658203"/>
      <use xlink:href="#DejaVuSans-72" x="122.181641"/>
      <use xlink:href="#DejaVuSans-73" x="163.294922"/>
      <use xlink:href="#DejaVuSans-69" x="215.394531"/>
      <use xlink:href="#DejaVuSans-6f" x="243.177734"/>
      <use xlink:href="#DejaVuSans-6e" x="304.359375"/>
     </g>
    </g>
    <g id="patch_8">
     <path d="M 54.716875 55.418313 
L 74.716875 55.418313 
L 74.716875 48.418313 
L 54.716875 48.418313 
z
" style="fill: #e24a33"/>
    </g>
    <g id="text_23">
     <!-- 10.0 -->
     <g transform="translate(82.716875 55.418313) scale(0.1 -0.1)">
      <use xlink:href="#DejaVuSans-31"/>
      <use xlink:href="#DejaVuSans-30" x="63.623047"/>
      <use xlink:href="#DejaVuSans-2e" x="127.246094"/>
      <use xlink:href="#DejaVuSans-30" x="159.033203"/>
     </g>
    </g>
    <g id="patch_9">
     <path d="M 54.716875 70.096438 
L 74.716875 70.096438 
L 74.716875 63.096438 
L 54.716875 63.096438 
z
" style="fill: #348abd"/>
    </g>
    <g id="text_24">
     <!-- 9.6 -->
     <g transform="translate(82.716875 70.096438) scale(0.1 -0.1)">
      <use xlink:href="#DejaVuSans-39"/>
      <use xlink:href="#DejaVuSans-2e" x="63.623047"/>
      <use xlink:href="#DejaVuSans-36" x="95.410156"/>
     </g>
    </g>
    <g id="patch_10">
     <path d="M 54.716875 84.774563 
L 74.716875 84.774563 
L 74.716875 77.774563 
L 54.716875 77.774563 
z
" style="fill: #988ed5"/>
    </g>
    <g id="text_25">
     <!-- 9.5 -->
     <g transform="translate(82.716875 84.774563) scale(0.1 -0.1)">
      <use xlink:href="#DejaVuSans-39"/>
      <use xlink:href="#DejaVuSans-2e" x="63.623047"/>
      <use xlink:href="#DejaVuSans-35" x="95.410156"/>
     </g>
    </g>
    <g id="patch_11">
     <path d="M 54.716875 99.452688 
L 74.716875 99.452688 
L 74.716875 92.452688 
L 54.716875 92.452688 
z
" style="fill: #777777"/>
    </g>
    <g id="text_26">
     <!-- 9.4 -->
     <g transform="translate(82.716875 99.452688) scale(0.1 -0.1)">
      <use xlink:href="#DejaVuSans-39"/>
      <use xlink:href="#DejaVuSans-2e" x="63.623047"/>
      <use xlink:href="#DejaVuSans-34" x="95.410156"/>
     </g>
    </g>
    <g id="patch_12">
     <path d="M 54.716875 114.130813 
L 74.716875 114.130813 
L 74.716875 107.130813 
L 54.716875 107.130813 
z
" style="fill: #fbc15e"/>
    </g>
    <g id="text_27">
     <!-- 9.3 -->
     <g transform="translate(82.716875 114.130813) scale(0.1 -0.1)">
      <use xlink:href="#DejaVuSans-39"/>
      <use xlink:href="#DejaVuSans-2e" x="63.623047"/>
      <use xlink:href="#DejaVuSans-33" x="95.410156"/>
     </g>
    </g>
    <g id="patch_13">
     <path d="M 54.716875 128.808938 
L 74.716875 128.808938 
L 74.716875 121.808938 
L 54.716875 121.808938 
z
" style="fill: #8eba42"/>
    </g>
    <g id="text_28">
     <!-- 9.2 -->
     <g transform="translate(82.716875 128.808938) scale(0.1 -0.1)">
      <use xlink:href="#DejaVuSans-39"/>
      <use xlink:href="#DejaVuSans-2e" x="63.623047"/>
      <use xlink:href="#DejaVuSans-32" x="95.410156"/>
     </g>
    </g>
    <g id="patch_14">
     <path d="M 54.716875 143.487063 
L 74.716875 143.487063 
L 74.716875 136.487063 
L 54.716875 136.487063 
z
" style="fill: #ffb5b8"/>
    </g>
    <g id="text_29">
     <!-- 9.1 -->
     <g transform="translate(82.716875 143.487063) scale(0.1 -0.1)">
      <use xlink:href="#DejaVuSans-39"/>
      <use xlink:href="#DejaVuSans-2e" x="63.623047"/>
      <use xlink:href="#DejaVuSans-31" x="95.410156"/>
     </g>
    </g>
    <g id="patch_15">
     <path d="M 54.716875 158.165188 
L 74.716875 158.165188 
L 74.716875 151.165188 
L 54.716875 151.165188 
z
" style="fill: #e24a33"/>
    </g>
    <g id="text_30">
     <!-- 9.0 -->
     <g transform="translate(82.716875 158.165188) scale(0.1 -0.1)">
      <use xlink:href="#DejaVuSans-39"/>
      <use xlink:href="#DejaVuSans-2e" x="63.623047"/>
      <use xlink:href="#DejaVuSans-30" x="95.410156"/>
     </g>
    </g>
    <g id="patch_16">
     <path d="M 54.716875 172.843313 
L 74.716875 172.843313 
L 74.716875 165.843313 
L 54.716875 165.843313 
z
" style="fill: #348abd"/>
    </g>
    <g id="text_31">
     <!-- 8.10 -->
     <g transform="translate(82.716875 172.843313) scale(0.1 -0.1)">
      <use xlink:href="#DejaVuSans-38"/>
      <use xlink:href="#DejaVuSans-2e" x="63.623047"/>
      <use xlink:href="#DejaVuSans-31" x="95.410156"/>
      <use xlink:href="#DejaVuSans-30" x="159.033203"/>
     </g>
    </g>
    <g id="patch_17">
     <path d="M 54.716875 187.521438 
L 74.716875 187.521438 
L 74.716875 180.521438 
L 54.716875 180.521438 
z
" style="fill: #988ed5"/>
    </g>
    <g id="text_32">
     <!-- 8.9 -->
     <g transform="translate(82.716875 187.521438) scale(0.1 -0.1)">
      <use xlink:href="#DejaVuSans-38"/>
      <use xlink:href="#DejaVuSans-2e" x="63.623047"/>
      <use xlink:href="#DejaVuSans-39" x="95.410156"/>
     </g>
    </g>
    <g id="patch_18">
     <path d="M 54.716875 202.199563 
L 74.716875 202.199563 
L 74.716875 195.199563 
L 54.716875 195.199563 
z
" style="fill: #777777"/>
    </g>
    <g id="text_33">
     <!-- 8.8 -->
     <g transform="translate(82.716875 202.199563) scale(0.1 -0.1)">
      <use xlink:href="#DejaVuSans-38"/>
      <use xlink:href="#DejaVuSans-2e" x="63.623047"/>
      <use xlink:href="#DejaVuSans-38" x="95.410156"/>
     </g>
    </g>
    <g id="patch_19">
     <path d="M 54.716875 216.877688 
L 74.716875 216.877688 
L 74.716875 209.877688 
L 54.716875 209.877688 
z
" style="fill: #fbc15e"/>
    </g>
    <g id="text_34">
     <!-- 8.7 -->
     <g transform="translate(82.716875 216.877688) scale(0.1 -0.1)">
      <use xlink:href="#DejaVuSans-38"/>
      <use xlink:href="#DejaVuSans-2e" x="63.623047"/>
      <use xlink:href="#DejaVuSans-37" x="95.410156"/>
     </g>
    </g>
    <g id="patch_20">
     <path d="M 54.716875 231.555813 
L 74.716875 231.555813 
L 74.716875 224.555813 
L 54.716875 224.555813 
z
" style="fill: #8eba42"/>
    </g>
    <g id="text_35">
     <!-- 8.6 -->
     <g transform="translate(82.716875 231.555813) scale(0.1 -0.1)">
      <use xlink:href="#DejaVuSans-38"/>
      <use xlink:href="#DejaVuSans-2e" x="63.623047"/>
      <use xlink:href="#DejaVuSans-36" x="95.410156"/>
     </g>
    </g>
    <g id="patch_21">
     <path d="M 54.716875 246.233938 
L 74.716875 246.233938 
L 74.716875 239.233938 
L 54.716875 239.233938 
z
" style="fill: #ffb5b8"/>
    </g>
    <g id="text_36">
     <!-- 8.5 -->
     <g transform="translate(82.716875 246.233938) scale(0.1 -0.1)">
      <use xlink:href="#DejaVuSans-38"/>
      <use xlink:href="#DejaVuSans-2e" x="63.623047"/>
      <use xlink:href="#DejaVuSans-35" x="95.410156"/>
     </g>
    </g>
    <g id="patch_22">
     <path d="M 54.716875 260.912063 
L 74.716875 260.912063 
L 74.716875 253.912063 
L 54.716875 253.912063 
z
" style="fill: #e24a33"/>
    </g>
    <g id="text_37">
     <!-- 8.4 -->
     <g transform="translate(82.716875 260.912063) scale(0.1 -0.1)">
      <use xlink:href="#DejaVuSans-38"/>
      <use xlink:href="#DejaVuSans-2e" x="63.623047"/>
      <use xlink:href="#DejaVuSans-34" x="95.410156"/>
     </g>
    </g>
   </g>
  </g>
 </g>
 <defs>
  <clipPath id="p47a1f014f9">
   <rect x="45.716875" y="24.14175" width="902.844" height="554.4"/>
  </clipPath>
 </defs>
</svg>
