<?xml version="1.0" encoding="utf-8" standalone="no"?>
<!DOCTYPE svg PUBLIC "-//W3C//DTD SVG 1.1//EN"
  "http://www.w3.org/Graphics/SVG/1.1/DTD/svg11.dtd">
<svg xmlns:xlink="http://www.w3.org/1999/xlink" width="955.760875pt" height="644.743878pt" viewBox="0 0 955.760875 644.743878" xmlns="http://www.w3.org/2000/svg" version="1.1">
 <metadata>
  <rdf:RDF xmlns:dc="http://purl.org/dc/elements/1.1/" xmlns:cc="http://creativecommons.org/ns#" xmlns:rdf="http://www.w3.org/1999/02/22-rdf-syntax-ns#">
   <cc:Work>
    <dc:type rdf:resource="http://purl.org/dc/dcmitype/StillImage"/>
    <dc:date>2025-03-20T11:55:13.270403</dc:date>
    <dc:format>image/svg+xml</dc:format>
    <dc:creator>
     <cc:Agent>
      <dc:title>Matplotlib v3.6.3, https://matplotlib.org/</dc:title>
     </cc:Agent>
    </dc:creator>
   </cc:Work>
  </rdf:RDF>
 </metadata>
 <defs>
  <style type="text/css">*{stroke-linejoin: round; stroke-linecap: butt}</style>
 </defs>
 <g id="figure_1">
  <g id="patch_1">
   <path d="M 0 644.743878 
L 955.760875 644.743878 
L 955.760875 0 
L 0 0 
z
" style="fill: #ffffff"/>
  </g>
  <g id="axes_1">
   <g id="patch_2">
    <path d="M 45.716875 578.54175 
L 948.560875 578.54175 
L 948.560875 24.14175 
L 45.716875 24.14175 
z
" style="fill: #e5e5e5"/>
   </g>
   <g id="matplotlib.axis_1">
    <g id="xtick_1">
     <g id="line2d_1">
      <path d="M 92.148852 578.54175 
L 92.148852 24.14175 
" clip-path="url(#pf6ca0ece4c)" style="fill: none; stroke: #ffffff; stroke-width: 0.8; stroke-linecap: square"/>
     </g>
     <g id="line2d_2">
      <defs>
       <path id="mfd9e553f39" d="M 0 0 
L 0 3.5 
" style="stroke: #555555; stroke-width: 0.8"/>
      </defs>
      <g>
       <use xlink:href="#mfd9e553f39" x="92.148852" y="578.54175" style="fill: #555555; stroke: #555555; stroke-width: 0.8"/>
      </g>
     </g>
     <g id="text_1">
      <!-- 2024-04 -->
      <g style="fill: #555555" transform="translate(79.32757 620.459567) rotate(-45) scale(0.1 -0.1)">
       <defs>
        <path id="DejaVuSans-32" d="M 1228 531 
L 3431 531 
L 3431 0 
L 469 0 
L 469 531 
Q 828 903 1448 1529 
Q 2069 2156 2228 2338 
Q 2531 2678 2651 2914 
Q 2772 3150 2772 3378 
Q 2772 3750 2511 3984 
Q 2250 4219 1831 4219 
Q 1534 4219 1204 4116 
Q 875 4013 500 3803 
L 500 4441 
Q 881 4594 1212 4672 
Q 1544 4750 1819 4750 
Q 2544 4750 2975 4387 
Q 3406 4025 3406 3419 
Q 3406 3131 3298 2873 
Q 3191 2616 2906 2266 
Q 2828 2175 2409 1742 
Q 1991 1309 1228 531 
z
" transform="scale(0.015625)"/>
        <path id="DejaVuSans-30" d="M 2034 4250 
Q 1547 4250 1301 3770 
Q 1056 3291 1056 2328 
Q 1056 1369 1301 889 
Q 1547 409 2034 409 
Q 2525 409 2770 889 
Q 3016 1369 3016 2328 
Q 3016 3291 2770 3770 
Q 2525 4250 2034 4250 
z
M 2034 4750 
Q 2819 4750 3233 4129 
Q 3647 3509 3647 2328 
Q 3647 1150 3233 529 
Q 2819 -91 2034 -91 
Q 1250 -91 836 529 
Q 422 1150 422 2328 
Q 422 3509 836 4129 
Q 1250 4750 2034 4750 
z
" transform="scale(0.015625)"/>
        <path id="DejaVuSans-34" d="M 2419 4116 
L 825 1625 
L 2419 1625 
L 2419 4116 
z
M 2253 4666 
L 3047 4666 
L 3047 1625 
L 3713 1625 
L 3713 1100 
L 3047 1100 
L 3047 0 
L 2419 0 
L 2419 1100 
L 313 1100 
L 313 1709 
L 2253 4666 
z
" transform="scale(0.015625)"/>
        <path id="DejaVuSans-2d" d="M 313 2009 
L 1997 2009 
L 1997 1497 
L 313 1497 
L 313 2009 
z
" transform="scale(0.015625)"/>
       </defs>
       <use xlink:href="#DejaVuSans-32"/>
       <use xlink:href="#DejaVuSans-30" x="63.623047"/>
       <use xlink:href="#DejaVuSans-32" x="127.246094"/>
       <use xlink:href="#DejaVuSans-34" x="190.869141"/>
       <use xlink:href="#DejaVuSans-2d" x="254.492188"/>
       <use xlink:href="#DejaVuSans-30" x="290.576172"/>
       <use xlink:href="#DejaVuSans-34" x="354.199219"/>
      </g>
     </g>
    </g>
    <g id="xtick_2">
     <g id="line2d_3">
      <path d="M 169.535481 578.54175 
L 169.535481 24.14175 
" clip-path="url(#pf6ca0ece4c)" style="fill: none; stroke: #ffffff; stroke-width: 0.8; stroke-linecap: square"/>
     </g>
     <g id="line2d_4">
      <g>
       <use xlink:href="#mfd9e553f39" x="169.535481" y="578.54175" style="fill: #555555; stroke: #555555; stroke-width: 0.8"/>
      </g>
     </g>
     <g id="text_2">
      <!-- 2024-05 -->
      <g style="fill: #555555" transform="translate(156.714198 620.459567) rotate(-45) scale(0.1 -0.1)">
       <defs>
        <path id="DejaVuSans-35" d="M 691 4666 
L 3169 4666 
L 3169 4134 
L 1269 4134 
L 1269 2991 
Q 1406 3038 1543 3061 
Q 1681 3084 1819 3084 
Q 2600 3084 3056 2656 
Q 3513 2228 3513 1497 
Q 3513 744 3044 326 
Q 2575 -91 1722 -91 
Q 1428 -91 1123 -41 
Q 819 9 494 109 
L 494 744 
Q 775 591 1075 516 
Q 1375 441 1709 441 
Q 2250 441 2565 725 
Q 2881 1009 2881 1497 
Q 2881 1984 2565 2268 
Q 2250 2553 1709 2553 
Q 1456 2553 1204 2497 
Q 953 2441 691 2322 
L 691 4666 
z
" transform="scale(0.015625)"/>
       </defs>
       <use xlink:href="#DejaVuSans-32"/>
       <use xlink:href="#DejaVuSans-30" x="63.623047"/>
       <use xlink:href="#DejaVuSans-32" x="127.246094"/>
       <use xlink:href="#DejaVuSans-34" x="190.869141"/>
       <use xlink:href="#DejaVuSans-2d" x="254.492188"/>
       <use xlink:href="#DejaVuSans-30" x="290.576172"/>
       <use xlink:href="#DejaVuSans-35" x="354.199219"/>
      </g>
     </g>
    </g>
    <g id="xtick_3">
     <g id="line2d_5">
      <path d="M 249.501664 578.54175 
L 249.501664 24.14175 
" clip-path="url(#pf6ca0ece4c)" style="fill: none; stroke: #ffffff; stroke-width: 0.8; stroke-linecap: square"/>
     </g>
     <g id="line2d_6">
      <g>
       <use xlink:href="#mfd9e553f39" x="249.501664" y="578.54175" style="fill: #555555; stroke: #555555; stroke-width: 0.8"/>
      </g>
     </g>
     <g id="text_3">
      <!-- 2024-06 -->
      <g style="fill: #555555" transform="translate(236.680381 620.459567) rotate(-45) scale(0.1 -0.1)">
       <defs>
        <path id="DejaVuSans-36" d="M 2113 2584 
Q 1688 2584 1439 2293 
Q 1191 2003 1191 1497 
Q 1191 994 1439 701 
Q 1688 409 2113 409 
Q 2538 409 2786 701 
Q 3034 994 3034 1497 
Q 3034 2003 2786 2293 
Q 2538 2584 2113 2584 
z
M 3366 4563 
L 3366 3988 
Q 3128 4100 2886 4159 
Q 2644 4219 2406 4219 
Q 1781 4219 1451 3797 
Q 1122 3375 1075 2522 
Q 1259 2794 1537 2939 
Q 1816 3084 2150 3084 
Q 2853 3084 3261 2657 
Q 3669 2231 3669 1497 
Q 3669 778 3244 343 
Q 2819 -91 2113 -91 
Q 1303 -91 875 529 
Q 447 1150 447 2328 
Q 447 3434 972 4092 
Q 1497 4750 2381 4750 
Q 2619 4750 2861 4703 
Q 3103 4656 3366 4563 
z
" transform="scale(0.015625)"/>
       </defs>
       <use xlink:href="#DejaVuSans-32"/>
       <use xlink:href="#DejaVuSans-30" x="63.623047"/>
       <use xlink:href="#DejaVuSans-32" x="127.246094"/>
       <use xlink:href="#DejaVuSans-34" x="190.869141"/>
       <use xlink:href="#DejaVuSans-2d" x="254.492188"/>
       <use xlink:href="#DejaVuSans-30" x="290.576172"/>
       <use xlink:href="#DejaVuSans-36" x="354.199219"/>
      </g>
     </g>
    </g>
    <g id="xtick_4">
     <g id="line2d_7">
      <path d="M 326.888292 578.54175 
L 326.888292 24.14175 
" clip-path="url(#pf6ca0ece4c)" style="fill: none; stroke: #ffffff; stroke-width: 0.8; stroke-linecap: square"/>
     </g>
     <g id="line2d_8">
      <g>
       <use xlink:href="#mfd9e553f39" x="326.888292" y="578.54175" style="fill: #555555; stroke: #555555; stroke-width: 0.8"/>
      </g>
     </g>
     <g id="text_4">
      <!-- 2024-07 -->
      <g style="fill: #555555" transform="translate(314.06701 620.459567) rotate(-45) scale(0.1 -0.1)">
       <defs>
        <path id="DejaVuSans-37" d="M 525 4666 
L 3525 4666 
L 3525 4397 
L 1831 0 
L 1172 0 
L 2766 4134 
L 525 4134 
L 525 4666 
z
" transform="scale(0.015625)"/>
       </defs>
       <use xlink:href="#DejaVuSans-32"/>
       <use xlink:href="#DejaVuSans-30" x="63.623047"/>
       <use xlink:href="#DejaVuSans-32" x="127.246094"/>
       <use xlink:href="#DejaVuSans-34" x="190.869141"/>
       <use xlink:href="#DejaVuSans-2d" x="254.492188"/>
       <use xlink:href="#DejaVuSans-30" x="290.576172"/>
       <use xlink:href="#DejaVuSans-37" x="354.199219"/>
      </g>
     </g>
    </g>
    <g id="xtick_5">
     <g id="line2d_9">
      <path d="M 406.854475 578.54175 
L 406.854475 24.14175 
" clip-path="url(#pf6ca0ece4c)" style="fill: none; stroke: #ffffff; stroke-width: 0.8; stroke-linecap: square"/>
     </g>
     <g id="line2d_10">
      <g>
       <use xlink:href="#mfd9e553f39" x="406.854475" y="578.54175" style="fill: #555555; stroke: #555555; stroke-width: 0.8"/>
      </g>
     </g>
     <g id="text_5">
      <!-- 2024-08 -->
      <g style="fill: #555555" transform="translate(394.033193 620.459567) rotate(-45) scale(0.1 -0.1)">
       <defs>
        <path id="DejaVuSans-38" d="M 2034 2216 
Q 1584 2216 1326 1975 
Q 1069 1734 1069 1313 
Q 1069 891 1326 650 
Q 1584 409 2034 409 
Q 2484 409 2743 651 
Q 3003 894 3003 1313 
Q 3003 1734 2745 1975 
Q 2488 2216 2034 2216 
z
M 1403 2484 
Q 997 2584 770 2862 
Q 544 3141 544 3541 
Q 544 4100 942 4425 
Q 1341 4750 2034 4750 
Q 2731 4750 3128 4425 
Q 3525 4100 3525 3541 
Q 3525 3141 3298 2862 
Q 3072 2584 2669 2484 
Q 3125 2378 3379 2068 
Q 3634 1759 3634 1313 
Q 3634 634 3220 271 
Q 2806 -91 2034 -91 
Q 1263 -91 848 271 
Q 434 634 434 1313 
Q 434 1759 690 2068 
Q 947 2378 1403 2484 
z
M 1172 3481 
Q 1172 3119 1398 2916 
Q 1625 2713 2034 2713 
Q 2441 2713 2670 2916 
Q 2900 3119 2900 3481 
Q 2900 3844 2670 4047 
Q 2441 4250 2034 4250 
Q 1625 4250 1398 4047 
Q 1172 3844 1172 3481 
z
" transform="scale(0.015625)"/>
       </defs>
       <use xlink:href="#DejaVuSans-32"/>
       <use xlink:href="#DejaVuSans-30" x="63.623047"/>
       <use xlink:href="#DejaVuSans-32" x="127.246094"/>
       <use xlink:href="#DejaVuSans-34" x="190.869141"/>
       <use xlink:href="#DejaVuSans-2d" x="254.492188"/>
       <use xlink:href="#DejaVuSans-30" x="290.576172"/>
       <use xlink:href="#DejaVuSans-38" x="354.199219"/>
      </g>
     </g>
    </g>
    <g id="xtick_6">
     <g id="line2d_11">
      <path d="M 486.820658 578.54175 
L 486.820658 24.14175 
" clip-path="url(#pf6ca0ece4c)" style="fill: none; stroke: #ffffff; stroke-width: 0.8; stroke-linecap: square"/>
     </g>
     <g id="line2d_12">
      <g>
       <use xlink:href="#mfd9e553f39" x="486.820658" y="578.54175" style="fill: #555555; stroke: #555555; stroke-width: 0.8"/>
      </g>
     </g>
     <g id="text_6">
      <!-- 2024-09 -->
      <g style="fill: #555555" transform="translate(473.999376 620.459567) rotate(-45) scale(0.1 -0.1)">
       <defs>
        <path id="DejaVuSans-39" d="M 703 97 
L 703 672 
Q 941 559 1184 500 
Q 1428 441 1663 441 
Q 2288 441 2617 861 
Q 2947 1281 2994 2138 
Q 2813 1869 2534 1725 
Q 2256 1581 1919 1581 
Q 1219 1581 811 2004 
Q 403 2428 403 3163 
Q 403 3881 828 4315 
Q 1253 4750 1959 4750 
Q 2769 4750 3195 4129 
Q 3622 3509 3622 2328 
Q 3622 1225 3098 567 
Q 2575 -91 1691 -91 
Q 1453 -91 1209 -44 
Q 966 3 703 97 
z
M 1959 2075 
Q 2384 2075 2632 2365 
Q 2881 2656 2881 3163 
Q 2881 3666 2632 3958 
Q 2384 4250 1959 4250 
Q 1534 4250 1286 3958 
Q 1038 3666 1038 3163 
Q 1038 2656 1286 2365 
Q 1534 2075 1959 2075 
z
" transform="scale(0.015625)"/>
       </defs>
       <use xlink:href="#DejaVuSans-32"/>
       <use xlink:href="#DejaVuSans-30" x="63.623047"/>
       <use xlink:href="#DejaVuSans-32" x="127.246094"/>
       <use xlink:href="#DejaVuSans-34" x="190.869141"/>
       <use xlink:href="#DejaVuSans-2d" x="254.492188"/>
       <use xlink:href="#DejaVuSans-30" x="290.576172"/>
       <use xlink:href="#DejaVuSans-39" x="354.199219"/>
      </g>
     </g>
    </g>
    <g id="xtick_7">
     <g id="line2d_13">
      <path d="M 564.207286 578.54175 
L 564.207286 24.14175 
" clip-path="url(#pf6ca0ece4c)" style="fill: none; stroke: #ffffff; stroke-width: 0.8; stroke-linecap: square"/>
     </g>
     <g id="line2d_14">
      <g>
       <use xlink:href="#mfd9e553f39" x="564.207286" y="578.54175" style="fill: #555555; stroke: #555555; stroke-width: 0.8"/>
      </g>
     </g>
     <g id="text_7">
      <!-- 2024-10 -->
      <g style="fill: #555555" transform="translate(551.386004 620.459567) rotate(-45) scale(0.1 -0.1)">
       <defs>
        <path id="DejaVuSans-31" d="M 794 531 
L 1825 531 
L 1825 4091 
L 703 3866 
L 703 4441 
L 1819 4666 
L 2450 4666 
L 2450 531 
L 3481 531 
L 3481 0 
L 794 0 
L 794 531 
z
" transform="scale(0.015625)"/>
       </defs>
       <use xlink:href="#DejaVuSans-32"/>
       <use xlink:href="#DejaVuSans-30" x="63.623047"/>
       <use xlink:href="#DejaVuSans-32" x="127.246094"/>
       <use xlink:href="#DejaVuSans-34" x="190.869141"/>
       <use xlink:href="#DejaVuSans-2d" x="254.492188"/>
       <use xlink:href="#DejaVuSans-31" x="290.576172"/>
       <use xlink:href="#DejaVuSans-30" x="354.199219"/>
      </g>
     </g>
    </g>
    <g id="xtick_8">
     <g id="line2d_15">
      <path d="M 644.173469 578.54175 
L 644.173469 24.14175 
" clip-path="url(#pf6ca0ece4c)" style="fill: none; stroke: #ffffff; stroke-width: 0.8; stroke-linecap: square"/>
     </g>
     <g id="line2d_16">
      <g>
       <use xlink:href="#mfd9e553f39" x="644.173469" y="578.54175" style="fill: #555555; stroke: #555555; stroke-width: 0.8"/>
      </g>
     </g>
     <g id="text_8">
      <!-- 2024-11 -->
      <g style="fill: #555555" transform="translate(631.352187 620.459567) rotate(-45) scale(0.1 -0.1)">
       <use xlink:href="#DejaVuSans-32"/>
       <use xlink:href="#DejaVuSans-30" x="63.623047"/>
       <use xlink:href="#DejaVuSans-32" x="127.246094"/>
       <use xlink:href="#DejaVuSans-34" x="190.869141"/>
       <use xlink:href="#DejaVuSans-2d" x="254.492188"/>
       <use xlink:href="#DejaVuSans-31" x="290.576172"/>
       <use xlink:href="#DejaVuSans-31" x="354.199219"/>
      </g>
     </g>
    </g>
    <g id="xtick_9">
     <g id="line2d_17">
      <path d="M 721.560098 578.54175 
L 721.560098 24.14175 
" clip-path="url(#pf6ca0ece4c)" style="fill: none; stroke: #ffffff; stroke-width: 0.8; stroke-linecap: square"/>
     </g>
     <g id="line2d_18">
      <g>
       <use xlink:href="#mfd9e553f39" x="721.560098" y="578.54175" style="fill: #555555; stroke: #555555; stroke-width: 0.8"/>
      </g>
     </g>
     <g id="text_9">
      <!-- 2024-12 -->
      <g style="fill: #555555" transform="translate(708.738816 620.459567) rotate(-45) scale(0.1 -0.1)">
       <use xlink:href="#DejaVuSans-32"/>
       <use xlink:href="#DejaVuSans-30" x="63.623047"/>
       <use xlink:href="#DejaVuSans-32" x="127.246094"/>
       <use xlink:href="#DejaVuSans-34" x="190.869141"/>
       <use xlink:href="#DejaVuSans-2d" x="254.492188"/>
       <use xlink:href="#DejaVuSans-31" x="290.576172"/>
       <use xlink:href="#DejaVuSans-32" x="354.199219"/>
      </g>
     </g>
    </g>
    <g id="xtick_10">
     <g id="line2d_19">
      <path d="M 801.526281 578.54175 
L 801.526281 24.14175 
" clip-path="url(#pf6ca0ece4c)" style="fill: none; stroke: #ffffff; stroke-width: 0.8; stroke-linecap: square"/>
     </g>
     <g id="line2d_20">
      <g>
       <use xlink:href="#mfd9e553f39" x="801.526281" y="578.54175" style="fill: #555555; stroke: #555555; stroke-width: 0.8"/>
      </g>
     </g>
     <g id="text_10">
      <!-- 2025-01 -->
      <g style="fill: #555555" transform="translate(788.704998 620.459567) rotate(-45) scale(0.1 -0.1)">
       <use xlink:href="#DejaVuSans-32"/>
       <use xlink:href="#DejaVuSans-30" x="63.623047"/>
       <use xlink:href="#DejaVuSans-32" x="127.246094"/>
       <use xlink:href="#DejaVuSans-35" x="190.869141"/>
       <use xlink:href="#DejaVuSans-2d" x="254.492188"/>
       <use xlink:href="#DejaVuSans-30" x="290.576172"/>
       <use xlink:href="#DejaVuSans-31" x="354.199219"/>
      </g>
     </g>
    </g>
    <g id="xtick_11">
     <g id="line2d_21">
      <path d="M 881.492464 578.54175 
L 881.492464 24.14175 
" clip-path="url(#pf6ca0ece4c)" style="fill: none; stroke: #ffffff; stroke-width: 0.8; stroke-linecap: square"/>
     </g>
     <g id="line2d_22">
      <g>
       <use xlink:href="#mfd9e553f39" x="881.492464" y="578.54175" style="fill: #555555; stroke: #555555; stroke-width: 0.8"/>
      </g>
     </g>
     <g id="text_11">
      <!-- 2025-02 -->
      <g style="fill: #555555" transform="translate(868.671181 620.459567) rotate(-45) scale(0.1 -0.1)">
       <use xlink:href="#DejaVuSans-32"/>
       <use xlink:href="#DejaVuSans-30" x="63.623047"/>
       <use xlink:href="#DejaVuSans-32" x="127.246094"/>
       <use xlink:href="#DejaVuSans-35" x="190.869141"/>
       <use xlink:href="#DejaVuSans-2d" x="254.492188"/>
       <use xlink:href="#DejaVuSans-30" x="290.576172"/>
       <use xlink:href="#DejaVuSans-32" x="354.199219"/>
      </g>
     </g>
    </g>
    <g id="text_12">
     <!-- Date -->
     <g style="fill: #555555" transform="translate(482.797938 635.048253) scale(0.12 -0.12)">
      <defs>
       <path id="DejaVuSans-44" d="M 1259 4147 
L 1259 519 
L 2022 519 
Q 2988 519 3436 956 
Q 3884 1394 3884 2338 
Q 3884 3275 3436 3711 
Q 2988 4147 2022 4147 
L 1259 4147 
z
M 628 4666 
L 1925 4666 
Q 3281 4666 3915 4102 
Q 4550 3538 4550 2338 
Q 4550 1131 3912 565 
Q 3275 0 1925 0 
L 628 0 
L 628 4666 
z
" transform="scale(0.015625)"/>
       <path id="DejaVuSans-61" d="M 2194 1759 
Q 1497 1759 1228 1600 
Q 959 1441 959 1056 
Q 959 750 1161 570 
Q 1363 391 1709 391 
Q 2188 391 2477 730 
Q 2766 1069 2766 1631 
L 2766 1759 
L 2194 1759 
z
M 3341 1997 
L 3341 0 
L 2766 0 
L 2766 531 
Q 2569 213 2275 61 
Q 1981 -91 1556 -91 
Q 1019 -91 701 211 
Q 384 513 384 1019 
Q 384 1609 779 1909 
Q 1175 2209 1959 2209 
L 2766 2209 
L 2766 2266 
Q 2766 2663 2505 2880 
Q 2244 3097 1772 3097 
Q 1472 3097 1187 3025 
Q 903 2953 641 2809 
L 641 3341 
Q 956 3463 1253 3523 
Q 1550 3584 1831 3584 
Q 2591 3584 2966 3190 
Q 3341 2797 3341 1997 
z
" transform="scale(0.015625)"/>
       <path id="DejaVuSans-74" d="M 1172 4494 
L 1172 3500 
L 2356 3500 
L 2356 3053 
L 1172 3053 
L 1172 1153 
Q 1172 725 1289 603 
Q 1406 481 1766 481 
L 2356 481 
L 2356 0 
L 1766 0 
Q 1100 0 847 248 
Q 594 497 594 1153 
L 594 3053 
L 172 3053 
L 172 3500 
L 594 3500 
L 594 4494 
L 1172 4494 
z
" transform="scale(0.015625)"/>
       <path id="DejaVuSans-65" d="M 3597 1894 
L 3597 1613 
L 953 1613 
Q 991 1019 1311 708 
Q 1631 397 2203 397 
Q 2534 397 2845 478 
Q 3156 559 3463 722 
L 3463 178 
Q 3153 47 2828 -22 
Q 2503 -91 2169 -91 
Q 1331 -91 842 396 
Q 353 884 353 1716 
Q 353 2575 817 3079 
Q 1281 3584 2069 3584 
Q 2775 3584 3186 3129 
Q 3597 2675 3597 1894 
z
M 3022 2063 
Q 3016 2534 2758 2815 
Q 2500 3097 2075 3097 
Q 1594 3097 1305 2825 
Q 1016 2553 972 2059 
L 3022 2063 
z
" transform="scale(0.015625)"/>
      </defs>
      <use xlink:href="#DejaVuSans-44"/>
      <use xlink:href="#DejaVuSans-61" x="77.001953"/>
      <use xlink:href="#DejaVuSans-74" x="138.28125"/>
      <use xlink:href="#DejaVuSans-65" x="177.490234"/>
     </g>
    </g>
   </g>
   <g id="matplotlib.axis_2">
    <g id="ytick_1">
     <g id="line2d_23">
      <path d="M 45.716875 578.54175 
L 948.560875 578.54175 
" clip-path="url(#pf6ca0ece4c)" style="fill: none; stroke: #ffffff; stroke-width: 0.8; stroke-linecap: square"/>
     </g>
     <g id="line2d_24">
      <defs>
       <path id="me9c347366c" d="M 0 0 
L -3.5 0 
" style="stroke: #555555; stroke-width: 0.8"/>
      </defs>
      <g>
       <use xlink:href="#me9c347366c" x="45.716875" y="578.54175" style="fill: #555555; stroke: #555555; stroke-width: 0.8"/>
      </g>
     </g>
     <g id="text_13">
      <!-- 0.0 -->
      <g style="fill: #555555" transform="translate(22.81375 582.340969) scale(0.1 -0.1)">
       <defs>
        <path id="DejaVuSans-2e" d="M 684 794 
L 1344 794 
L 1344 0 
L 684 0 
L 684 794 
z
" transform="scale(0.015625)"/>
       </defs>
       <use xlink:href="#DejaVuSans-30"/>
       <use xlink:href="#DejaVuSans-2e" x="63.623047"/>
       <use xlink:href="#DejaVuSans-30" x="95.410156"/>
      </g>
     </g>
    </g>
    <g id="ytick_2">
     <g id="line2d_25">
      <path d="M 45.716875 467.65709 
L 948.560875 467.65709 
" clip-path="url(#pf6ca0ece4c)" style="fill: none; stroke: #ffffff; stroke-width: 0.8; stroke-linecap: square"/>
     </g>
     <g id="line2d_26">
      <g>
       <use xlink:href="#me9c347366c" x="45.716875" y="467.65709" style="fill: #555555; stroke: #555555; stroke-width: 0.8"/>
      </g>
     </g>
     <g id="text_14">
      <!-- 0.2 -->
      <g style="fill: #555555" transform="translate(22.81375 471.456309) scale(0.1 -0.1)">
       <use xlink:href="#DejaVuSans-30"/>
       <use xlink:href="#DejaVuSans-2e" x="63.623047"/>
       <use xlink:href="#DejaVuSans-32" x="95.410156"/>
      </g>
     </g>
    </g>
    <g id="ytick_3">
     <g id="line2d_27">
      <path d="M 45.716875 356.772431 
L 948.560875 356.772431 
" clip-path="url(#pf6ca0ece4c)" style="fill: none; stroke: #ffffff; stroke-width: 0.8; stroke-linecap: square"/>
     </g>
     <g id="line2d_28">
      <g>
       <use xlink:href="#me9c347366c" x="45.716875" y="356.772431" style="fill: #555555; stroke: #555555; stroke-width: 0.8"/>
      </g>
     </g>
     <g id="text_15">
      <!-- 0.4 -->
      <g style="fill: #555555" transform="translate(22.81375 360.57165) scale(0.1 -0.1)">
       <use xlink:href="#DejaVuSans-30"/>
       <use xlink:href="#DejaVuSans-2e" x="63.623047"/>
       <use xlink:href="#DejaVuSans-34" x="95.410156"/>
      </g>
     </g>
    </g>
    <g id="ytick_4">
     <g id="line2d_29">
      <path d="M 45.716875 245.887771 
L 948.560875 245.887771 
" clip-path="url(#pf6ca0ece4c)" style="fill: none; stroke: #ffffff; stroke-width: 0.8; stroke-linecap: square"/>
     </g>
     <g id="line2d_30">
      <g>
       <use xlink:href="#me9c347366c" x="45.716875" y="245.887771" style="fill: #555555; stroke: #555555; stroke-width: 0.8"/>
      </g>
     </g>
     <g id="text_16">
      <!-- 0.6 -->
      <g style="fill: #555555" transform="translate(22.81375 249.68699) scale(0.1 -0.1)">
       <use xlink:href="#DejaVuSans-30"/>
       <use xlink:href="#DejaVuSans-2e" x="63.623047"/>
       <use xlink:href="#DejaVuSans-36" x="95.410156"/>
      </g>
     </g>
    </g>
    <g id="ytick_5">
     <g id="line2d_31">
      <path d="M 45.716875 135.003112 
L 948.560875 135.003112 
" clip-path="url(#pf6ca0ece4c)" style="fill: none; stroke: #ffffff; stroke-width: 0.8; stroke-linecap: square"/>
     </g>
     <g id="line2d_32">
      <g>
       <use xlink:href="#me9c347366c" x="45.716875" y="135.003112" style="fill: #555555; stroke: #555555; stroke-width: 0.8"/>
      </g>
     </g>
     <g id="text_17">
      <!-- 0.8 -->
      <g style="fill: #555555" transform="translate(22.81375 138.80233) scale(0.1 -0.1)">
       <use xlink:href="#DejaVuSans-30"/>
       <use xlink:href="#DejaVuSans-2e" x="63.623047"/>
       <use xlink:href="#DejaVuSans-38" x="95.410156"/>
      </g>
     </g>
    </g>
    <g id="text_18">
     <!-- Share of Instances -->
     <g style="fill: #555555" transform="translate(16.318125 356.897063) rotate(-90) scale(0.12 -0.12)">
      <defs>
       <path id="DejaVuSans-53" d="M 3425 4513 
L 3425 3897 
Q 3066 4069 2747 4153 
Q 2428 4238 2131 4238 
Q 1616 4238 1336 4038 
Q 1056 3838 1056 3469 
Q 1056 3159 1242 3001 
Q 1428 2844 1947 2747 
L 2328 2669 
Q 3034 2534 3370 2195 
Q 3706 1856 3706 1288 
Q 3706 609 3251 259 
Q 2797 -91 1919 -91 
Q 1588 -91 1214 -16 
Q 841 59 441 206 
L 441 856 
Q 825 641 1194 531 
Q 1563 422 1919 422 
Q 2459 422 2753 634 
Q 3047 847 3047 1241 
Q 3047 1584 2836 1778 
Q 2625 1972 2144 2069 
L 1759 2144 
Q 1053 2284 737 2584 
Q 422 2884 422 3419 
Q 422 4038 858 4394 
Q 1294 4750 2059 4750 
Q 2388 4750 2728 4690 
Q 3069 4631 3425 4513 
z
" transform="scale(0.015625)"/>
       <path id="DejaVuSans-68" d="M 3513 2113 
L 3513 0 
L 2938 0 
L 2938 2094 
Q 2938 2591 2744 2837 
Q 2550 3084 2163 3084 
Q 1697 3084 1428 2787 
Q 1159 2491 1159 1978 
L 1159 0 
L 581 0 
L 581 4863 
L 1159 4863 
L 1159 2956 
Q 1366 3272 1645 3428 
Q 1925 3584 2291 3584 
Q 2894 3584 3203 3211 
Q 3513 2838 3513 2113 
z
" transform="scale(0.015625)"/>
       <path id="DejaVuSans-72" d="M 2631 2963 
Q 2534 3019 2420 3045 
Q 2306 3072 2169 3072 
Q 1681 3072 1420 2755 
Q 1159 2438 1159 1844 
L 1159 0 
L 581 0 
L 581 3500 
L 1159 3500 
L 1159 2956 
Q 1341 3275 1631 3429 
Q 1922 3584 2338 3584 
Q 2397 3584 2469 3576 
Q 2541 3569 2628 3553 
L 2631 2963 
z
" transform="scale(0.015625)"/>
       <path id="DejaVuSans-20" transform="scale(0.015625)"/>
       <path id="DejaVuSans-6f" d="M 1959 3097 
Q 1497 3097 1228 2736 
Q 959 2375 959 1747 
Q 959 1119 1226 758 
Q 1494 397 1959 397 
Q 2419 397 2687 759 
Q 2956 1122 2956 1747 
Q 2956 2369 2687 2733 
Q 2419 3097 1959 3097 
z
M 1959 3584 
Q 2709 3584 3137 3096 
Q 3566 2609 3566 1747 
Q 3566 888 3137 398 
Q 2709 -91 1959 -91 
Q 1206 -91 779 398 
Q 353 888 353 1747 
Q 353 2609 779 3096 
Q 1206 3584 1959 3584 
z
" transform="scale(0.015625)"/>
       <path id="DejaVuSans-66" d="M 2375 4863 
L 2375 4384 
L 1825 4384 
Q 1516 4384 1395 4259 
Q 1275 4134 1275 3809 
L 1275 3500 
L 2222 3500 
L 2222 3053 
L 1275 3053 
L 1275 0 
L 697 0 
L 697 3053 
L 147 3053 
L 147 3500 
L 697 3500 
L 697 3744 
Q 697 4328 969 4595 
Q 1241 4863 1831 4863 
L 2375 4863 
z
" transform="scale(0.015625)"/>
       <path id="DejaVuSans-49" d="M 628 4666 
L 1259 4666 
L 1259 0 
L 628 0 
L 628 4666 
z
" transform="scale(0.015625)"/>
       <path id="DejaVuSans-6e" d="M 3513 2113 
L 3513 0 
L 2938 0 
L 2938 2094 
Q 2938 2591 2744 2837 
Q 2550 3084 2163 3084 
Q 1697 3084 1428 2787 
Q 1159 2491 1159 1978 
L 1159 0 
L 581 0 
L 581 3500 
L 1159 3500 
L 1159 2956 
Q 1366 3272 1645 3428 
Q 1925 3584 2291 3584 
Q 2894 3584 3203 3211 
Q 3513 2838 3513 2113 
z
" transform="scale(0.015625)"/>
       <path id="DejaVuSans-73" d="M 2834 3397 
L 2834 2853 
Q 2591 2978 2328 3040 
Q 2066 3103 1784 3103 
Q 1356 3103 1142 2972 
Q 928 2841 928 2578 
Q 928 2378 1081 2264 
Q 1234 2150 1697 2047 
L 1894 2003 
Q 2506 1872 2764 1633 
Q 3022 1394 3022 966 
Q 3022 478 2636 193 
Q 2250 -91 1575 -91 
Q 1294 -91 989 -36 
Q 684 19 347 128 
L 347 722 
Q 666 556 975 473 
Q 1284 391 1588 391 
Q 1994 391 2212 530 
Q 2431 669 2431 922 
Q 2431 1156 2273 1281 
Q 2116 1406 1581 1522 
L 1381 1569 
Q 847 1681 609 1914 
Q 372 2147 372 2553 
Q 372 3047 722 3315 
Q 1072 3584 1716 3584 
Q 2034 3584 2315 3537 
Q 2597 3491 2834 3397 
z
" transform="scale(0.015625)"/>
       <path id="DejaVuSans-63" d="M 3122 3366 
L 3122 2828 
Q 2878 2963 2633 3030 
Q 2388 3097 2138 3097 
Q 1578 3097 1268 2742 
Q 959 2388 959 1747 
Q 959 1106 1268 751 
Q 1578 397 2138 397 
Q 2388 397 2633 464 
Q 2878 531 3122 666 
L 3122 134 
Q 2881 22 2623 -34 
Q 2366 -91 2075 -91 
Q 1284 -91 818 406 
Q 353 903 353 1747 
Q 353 2603 823 3093 
Q 1294 3584 2113 3584 
Q 2378 3584 2631 3529 
Q 2884 3475 3122 3366 
z
" transform="scale(0.015625)"/>
      </defs>
      <use xlink:href="#DejaVuSans-53"/>
      <use xlink:href="#DejaVuSans-68" x="63.476562"/>
      <use xlink:href="#DejaVuSans-61" x="126.855469"/>
      <use xlink:href="#DejaVuSans-72" x="188.134766"/>
      <use xlink:href="#DejaVuSans-65" x="226.998047"/>
      <use xlink:href="#DejaVuSans-20" x="288.521484"/>
      <use xlink:href="#DejaVuSans-6f" x="320.308594"/>
      <use xlink:href="#DejaVuSans-66" x="381.490234"/>
      <use xlink:href="#DejaVuSans-20" x="416.695312"/>
      <use xlink:href="#DejaVuSans-49" x="448.482422"/>
      <use xlink:href="#DejaVuSans-6e" x="477.974609"/>
      <use xlink:href="#DejaVuSans-73" x="541.353516"/>
      <use xlink:href="#DejaVuSans-74" x="593.453125"/>
      <use xlink:href="#DejaVuSans-61" x="632.662109"/>
      <use xlink:href="#DejaVuSans-6e" x="693.941406"/>
      <use xlink:href="#DejaVuSans-63" x="757.320312"/>
      <use xlink:href="#DejaVuSans-65" x="812.300781"/>
      <use xlink:href="#DejaVuSans-73" x="873.824219"/>
     </g>
    </g>
   </g>
   <g id="PolyCollection_1">
    <path d="M 45.716875 578.540639 
L 45.716875 578.54175 
L 63.773755 578.54175 
L 81.830635 578.54175 
L 99.887515 578.54175 
L 117.944395 578.54175 
L 136.001275 578.54175 
L 154.058155 578.54175 
L 172.115035 578.54175 
L 190.171915 578.54175 
L 208.228795 578.54175 
L 226.285675 578.54175 
L 244.342555 578.54175 
L 262.399435 578.54175 
L 280.456315 578.54175 
L 298.513195 578.54175 
L 316.570075 578.54175 
L 334.626955 578.54175 
L 352.683835 578.54175 
L 370.740715 578.54175 
L 388.797595 578.54175 
L 406.854475 578.54175 
L 424.911355 578.54175 
L 442.968235 578.54175 
L 461.025115 578.54175 
L 479.081995 578.54175 
L 497.138875 578.54175 
L 515.195755 578.54175 
L 533.252635 578.54175 
L 551.309515 578.54175 
L 569.366395 578.54175 
L 587.423275 578.54175 
L 605.480155 578.54175 
L 623.537035 578.54175 
L 641.593915 578.54175 
L 659.650795 578.54175 
L 677.707675 578.54175 
L 695.764555 578.54175 
L 713.821435 578.54175 
L 731.878315 578.54175 
L 749.935195 578.54175 
L 767.992075 578.54175 
L 786.048955 578.54175 
L 804.105835 578.54175 
L 822.162715 578.54175 
L 840.219595 578.54175 
L 858.276475 578.54175 
L 876.333355 578.54175 
L 894.390235 578.54175 
L 912.447115 578.54175 
L 930.503995 578.54175 
L 948.560875 578.54175 
L 948.560875 468.585295 
L 948.560875 468.585295 
L 930.503995 470.717045 
L 912.447115 476.023631 
L 894.390235 481.697255 
L 876.333355 483.616414 
L 858.276475 484.474595 
L 840.219595 488.631443 
L 822.162715 492.71844 
L 804.105835 497.993446 
L 786.048955 497.549979 
L 767.992075 504.997474 
L 749.935195 508.417326 
L 731.878315 514.058356 
L 713.821435 527.607393 
L 695.764555 536.719055 
L 677.707675 562.746028 
L 659.650795 578.537519 
L 641.593915 578.54103 
L 623.537035 578.541023 
L 605.480155 578.54102 
L 587.423275 578.541008 
L 569.366395 578.540995 
L 551.309515 578.540961 
L 533.252635 578.540971 
L 515.195755 578.540944 
L 497.138875 578.540935 
L 479.081995 578.54091 
L 461.025115 578.540909 
L 442.968235 578.540896 
L 424.911355 578.540889 
L 406.854475 578.540856 
L 388.797595 578.540853 
L 370.740715 578.540834 
L 352.683835 578.540833 
L 334.626955 578.540828 
L 316.570075 578.540793 
L 298.513195 578.540799 
L 280.456315 578.540822 
L 262.399435 578.540776 
L 244.342555 578.540759 
L 226.285675 578.540747 
L 208.228795 578.540725 
L 190.171915 578.540703 
L 172.115035 578.540688 
L 154.058155 578.540679 
L 136.001275 578.54069 
L 117.944395 578.540677 
L 99.887515 578.540674 
L 81.830635 578.540682 
L 63.773755 578.540614 
L 45.716875 578.540639 
z
" clip-path="url(#pf6ca0ece4c)" style="fill: #e24a33"/>
   </g>
   <g id="PolyCollection_2">
    <path d="M 45.716875 578.540639 
L 45.716875 578.540639 
L 63.773755 578.540614 
L 81.830635 578.540682 
L 99.887515 578.540674 
L 117.944395 578.540677 
L 136.001275 578.54069 
L 154.058155 578.540679 
L 172.115035 578.540688 
L 190.171915 578.540703 
L 208.228795 578.540725 
L 226.285675 578.540747 
L 244.342555 578.540759 
L 262.399435 578.540776 
L 280.456315 578.540822 
L 298.513195 578.540799 
L 316.570075 578.540793 
L 334.626955 578.540828 
L 352.683835 578.540833 
L 370.740715 578.540834 
L 388.797595 578.540853 
L 406.854475 578.540856 
L 424.911355 578.540889 
L 442.968235 578.540896 
L 461.025115 578.540909 
L 479.081995 578.54091 
L 497.138875 578.540935 
L 515.195755 578.540944 
L 533.252635 578.540971 
L 551.309515 578.540961 
L 569.366395 578.540995 
L 587.423275 578.541008 
L 605.480155 578.54102 
L 623.537035 578.541023 
L 641.593915 578.54103 
L 659.650795 578.537519 
L 677.707675 562.746028 
L 695.764555 536.719055 
L 713.821435 527.607393 
L 731.878315 514.058356 
L 749.935195 508.417326 
L 767.992075 504.997474 
L 786.048955 497.549979 
L 804.105835 497.993446 
L 822.162715 492.71844 
L 840.219595 488.631443 
L 858.276475 484.474595 
L 876.333355 483.616414 
L 894.390235 481.697255 
L 912.447115 476.023631 
L 930.503995 470.717045 
L 948.560875 468.585295 
L 948.560875 402.281333 
L 948.560875 402.281333 
L 930.503995 401.414602 
L 912.447115 406.032241 
L 894.390235 411.30144 
L 876.333355 411.199087 
L 858.276475 410.515 
L 840.219595 412.620595 
L 822.162715 412.932853 
L 804.105835 414.766558 
L 786.048955 411.44119 
L 767.992075 417.140246 
L 749.935195 419.618878 
L 731.878315 419.961119 
L 713.821435 424.536463 
L 695.764555 421.511435 
L 677.707675 430.728644 
L 659.650795 435.643007 
L 641.593915 438.02661 
L 623.537035 439.07373 
L 605.480155 442.321992 
L 587.423275 444.760687 
L 569.366395 448.389288 
L 551.309515 445.95316 
L 533.252635 450.474265 
L 515.195755 454.308236 
L 497.138875 458.151118 
L 479.081995 460.483473 
L 461.025115 464.067697 
L 442.968235 467.283095 
L 424.911355 471.260108 
L 406.854475 469.782084 
L 388.797595 474.791488 
L 370.740715 477.184496 
L 352.683835 481.890999 
L 334.626955 488.018104 
L 316.570075 490.495869 
L 298.513195 497.636362 
L 280.456315 506.424962 
L 262.399435 510.364484 
L 244.342555 516.811706 
L 226.285675 525.024856 
L 208.228795 534.01289 
L 190.171915 546.558493 
L 172.115035 571.913493 
L 154.058155 578.539072 
L 136.001275 578.54069 
L 117.944395 578.540677 
L 99.887515 578.540674 
L 81.830635 578.540682 
L 63.773755 578.540614 
L 45.716875 578.540639 
z
" clip-path="url(#pf6ca0ece4c)" style="fill: #348abd"/>
   </g>
   <g id="PolyCollection_3">
    <path d="M 45.716875 473.437572 
L 45.716875 578.540639 
L 63.773755 578.540614 
L 81.830635 578.540682 
L 99.887515 578.540674 
L 117.944395 578.540677 
L 136.001275 578.54069 
L 154.058155 578.539072 
L 172.115035 571.913493 
L 190.171915 546.558493 
L 208.228795 534.01289 
L 226.285675 525.024856 
L 244.342555 516.811706 
L 262.399435 510.364484 
L 280.456315 506.424962 
L 298.513195 497.636362 
L 316.570075 490.495869 
L 334.626955 488.018104 
L 352.683835 481.890999 
L 370.740715 477.184496 
L 388.797595 474.791488 
L 406.854475 469.782084 
L 424.911355 471.260108 
L 442.968235 467.283095 
L 461.025115 464.067697 
L 479.081995 460.483473 
L 497.138875 458.151118 
L 515.195755 454.308236 
L 533.252635 450.474265 
L 551.309515 445.95316 
L 569.366395 448.389288 
L 587.423275 444.760687 
L 605.480155 442.321992 
L 623.537035 439.07373 
L 641.593915 438.02661 
L 659.650795 435.643007 
L 677.707675 430.728644 
L 695.764555 421.511435 
L 713.821435 424.536463 
L 731.878315 419.961119 
L 749.935195 419.618878 
L 767.992075 417.140246 
L 786.048955 411.44119 
L 804.105835 414.766558 
L 822.162715 412.932853 
L 840.219595 412.620595 
L 858.276475 410.515 
L 876.333355 411.199087 
L 894.390235 411.30144 
L 912.447115 406.032241 
L 930.503995 401.414602 
L 948.560875 402.281333 
L 948.560875 377.124223 
L 948.560875 377.124223 
L 930.503995 375.007643 
L 912.447115 379.078637 
L 894.390235 383.627595 
L 876.333355 382.398641 
L 858.276475 380.138402 
L 840.219595 383.537539 
L 822.162715 382.141937 
L 804.105835 384.466513 
L 786.048955 380.767331 
L 767.992075 385.803678 
L 749.935195 388.327073 
L 731.878315 388.442157 
L 713.821435 391.611937 
L 695.764555 387.903872 
L 677.707675 396.104038 
L 659.650795 400.316787 
L 641.593915 401.635599 
L 623.537035 401.440054 
L 605.480155 403.20595 
L 587.423275 405.048158 
L 569.366395 408.389746 
L 551.309515 404.469584 
L 533.252635 408.519616 
L 515.195755 410.627543 
L 497.138875 413.388086 
L 479.081995 414.456248 
L 461.025115 417.629416 
L 442.968235 419.606747 
L 424.911355 422.811036 
L 406.854475 417.474931 
L 388.797595 421.547817 
L 370.740715 422.139541 
L 352.683835 425.545682 
L 334.626955 428.757304 
L 316.570075 427.796853 
L 298.513195 432.497883 
L 280.456315 441.290014 
L 262.399435 439.849423 
L 244.342555 442.359129 
L 226.285675 442.501953 
L 208.228795 444.457223 
L 190.171915 446.100637 
L 172.115035 449.80844 
L 154.058155 455.635621 
L 136.001275 457.600217 
L 117.944395 462.54516 
L 99.887515 466.793314 
L 81.830635 471.687451 
L 63.773755 469.331767 
L 45.716875 473.437572 
z
" clip-path="url(#pf6ca0ece4c)" style="fill: #988ed5"/>
   </g>
   <g id="PolyCollection_4">
    <path d="M 45.716875 431.279867 
L 45.716875 473.437572 
L 63.773755 469.331767 
L 81.830635 471.687451 
L 99.887515 466.793314 
L 117.944395 462.54516 
L 136.001275 457.600217 
L 154.058155 455.635621 
L 172.115035 449.80844 
L 190.171915 446.100637 
L 208.228795 444.457223 
L 226.285675 442.501953 
L 244.342555 442.359129 
L 262.399435 439.849423 
L 280.456315 441.290014 
L 298.513195 432.497883 
L 316.570075 427.796853 
L 334.626955 428.757304 
L 352.683835 425.545682 
L 370.740715 422.139541 
L 388.797595 421.547817 
L 406.854475 417.474931 
L 424.911355 422.811036 
L 442.968235 419.606747 
L 461.025115 417.629416 
L 479.081995 414.456248 
L 497.138875 413.388086 
L 515.195755 410.627543 
L 533.252635 408.519616 
L 551.309515 404.469584 
L 569.366395 408.389746 
L 587.423275 405.048158 
L 605.480155 403.20595 
L 623.537035 401.440054 
L 641.593915 401.635599 
L 659.650795 400.316787 
L 677.707675 396.104038 
L 695.764555 387.903872 
L 713.821435 391.611937 
L 731.878315 388.442157 
L 749.935195 388.327073 
L 767.992075 385.803678 
L 786.048955 380.767331 
L 804.105835 384.466513 
L 822.162715 382.141937 
L 840.219595 383.537539 
L 858.276475 380.138402 
L 876.333355 382.398641 
L 894.390235 383.627595 
L 912.447115 379.078637 
L 930.503995 375.007643 
L 948.560875 377.124223 
L 948.560875 359.944805 
L 948.560875 359.944805 
L 930.503995 357.488969 
L 912.447115 361.203497 
L 894.390235 365.637166 
L 876.333355 363.960172 
L 858.276475 361.538437 
L 840.219595 365.1007 
L 822.162715 363.743472 
L 804.105835 365.599972 
L 786.048955 361.401031 
L 767.992075 366.22516 
L 749.935195 368.932254 
L 731.878315 368.660031 
L 713.821435 371.150048 
L 695.764555 366.787964 
L 677.707675 373.628633 
L 659.650795 378.950209 
L 641.593915 379.895357 
L 623.537035 380.600051 
L 605.480155 381.698398 
L 587.423275 382.802387 
L 569.366395 385.729894 
L 551.309515 380.277212 
L 533.252635 384.996955 
L 515.195755 385.145603 
L 497.138875 386.829162 
L 479.081995 387.704041 
L 461.025115 390.93997 
L 442.968235 392.294538 
L 424.911355 394.331917 
L 406.854475 390.347557 
L 388.797595 393.878045 
L 370.740715 393.498583 
L 352.683835 396.541008 
L 334.626955 399.699604 
L 316.570075 397.51026 
L 298.513195 401.926385 
L 280.456315 411.819797 
L 262.399435 410.32829 
L 244.342555 412.1378 
L 226.285675 411.354245 
L 208.228795 412.177757 
L 190.171915 412.82573 
L 172.115035 416.153972 
L 154.058155 421.412644 
L 136.001275 422.946153 
L 117.944395 426.776698 
L 99.887515 430.132262 
L 81.830635 433.46262 
L 63.773755 425.855277 
L 45.716875 431.279867 
z
" clip-path="url(#pf6ca0ece4c)" style="fill: #777777"/>
   </g>
   <g id="PolyCollection_5">
    <path d="M 45.716875 415.302935 
L 45.716875 431.279867 
L 63.773755 425.855277 
L 81.830635 433.46262 
L 99.887515 430.132262 
L 117.944395 426.776698 
L 136.001275 422.946153 
L 154.058155 421.412644 
L 172.115035 416.153972 
L 190.171915 412.82573 
L 208.228795 412.177757 
L 226.285675 411.354245 
L 244.342555 412.1378 
L 262.399435 410.32829 
L 280.456315 411.819797 
L 298.513195 401.926385 
L 316.570075 397.51026 
L 334.626955 399.699604 
L 352.683835 396.541008 
L 370.740715 393.498583 
L 388.797595 393.878045 
L 406.854475 390.347557 
L 424.911355 394.331917 
L 442.968235 392.294538 
L 461.025115 390.93997 
L 479.081995 387.704041 
L 497.138875 386.829162 
L 515.195755 385.145603 
L 533.252635 384.996955 
L 551.309515 380.277212 
L 569.366395 385.729894 
L 587.423275 382.802387 
L 605.480155 381.698398 
L 623.537035 380.600051 
L 641.593915 379.895357 
L 659.650795 378.950209 
L 677.707675 373.628633 
L 695.764555 366.787964 
L 713.821435 371.150048 
L 731.878315 368.660031 
L 749.935195 368.932254 
L 767.992075 366.22516 
L 786.048955 361.401031 
L 804.105835 365.599972 
L 822.162715 363.743472 
L 840.219595 365.1007 
L 858.276475 361.538437 
L 876.333355 363.960172 
L 894.390235 365.637166 
L 912.447115 361.203497 
L 930.503995 357.488969 
L 948.560875 359.944805 
L 948.560875 352.409322 
L 948.560875 352.409322 
L 930.503995 349.788476 
L 912.447115 353.467853 
L 894.390235 357.800328 
L 876.333355 355.694612 
L 858.276475 353.446273 
L 840.219595 356.849 
L 822.162715 355.329854 
L 804.105835 357.000617 
L 786.048955 352.776097 
L 767.992075 357.454603 
L 749.935195 360.615155 
L 731.878315 360.258583 
L 713.821435 362.567014 
L 695.764555 357.910794 
L 677.707675 364.960066 
L 659.650795 370.057078 
L 641.593915 371.082772 
L 623.537035 371.573785 
L 605.480155 372.58939 
L 587.423275 373.527696 
L 569.366395 376.155168 
L 551.309515 370.103159 
L 533.252635 374.889055 
L 515.195755 374.859514 
L 497.138875 376.37825 
L 479.081995 376.983696 
L 461.025115 380.251153 
L 442.968235 381.186661 
L 424.911355 383.300494 
L 406.854475 378.488169 
L 388.797595 382.145086 
L 370.740715 381.333684 
L 352.683835 384.527436 
L 334.626955 387.597983 
L 316.570075 384.760303 
L 298.513195 389.266453 
L 280.456315 399.327016 
L 262.399435 397.244067 
L 244.342555 398.887077 
L 226.285675 397.558246 
L 208.228795 397.96682 
L 190.171915 398.21276 
L 172.115035 401.383255 
L 154.058155 406.257608 
L 136.001275 408.104611 
L 117.944395 411.684584 
L 99.887515 415.023373 
L 81.830635 418.516625 
L 63.773755 409.88484 
L 45.716875 415.302935 
z
" clip-path="url(#pf6ca0ece4c)" style="fill: #fbc15e"/>
   </g>
   <g id="PolyCollection_6">
    <path d="M 45.716875 410.984301 
L 45.716875 415.302935 
L 63.773755 409.88484 
L 81.830635 418.516625 
L 99.887515 415.023373 
L 117.944395 411.684584 
L 136.001275 408.104611 
L 154.058155 406.257608 
L 172.115035 401.383255 
L 190.171915 398.21276 
L 208.228795 397.96682 
L 226.285675 397.558246 
L 244.342555 398.887077 
L 262.399435 397.244067 
L 280.456315 399.327016 
L 298.513195 389.266453 
L 316.570075 384.760303 
L 334.626955 387.597983 
L 352.683835 384.527436 
L 370.740715 381.333684 
L 388.797595 382.145086 
L 406.854475 378.488169 
L 424.911355 383.300494 
L 442.968235 381.186661 
L 461.025115 380.251153 
L 479.081995 376.983696 
L 497.138875 376.37825 
L 515.195755 374.859514 
L 533.252635 374.889055 
L 551.309515 370.103159 
L 569.366395 376.155168 
L 587.423275 373.527696 
L 605.480155 372.58939 
L 623.537035 371.573785 
L 641.593915 371.082772 
L 659.650795 370.057078 
L 677.707675 364.960066 
L 695.764555 357.910794 
L 713.821435 362.567014 
L 731.878315 360.258583 
L 749.935195 360.615155 
L 767.992075 357.454603 
L 786.048955 352.776097 
L 804.105835 357.000617 
L 822.162715 355.329854 
L 840.219595 356.849 
L 858.276475 353.446273 
L 876.333355 355.694612 
L 894.390235 357.800328 
L 912.447115 353.467853 
L 930.503995 349.788476 
L 948.560875 352.409322 
L 948.560875 350.399517 
L 948.560875 350.399517 
L 930.503995 347.723868 
L 912.447115 351.404301 
L 894.390235 355.75478 
L 876.333355 353.601055 
L 858.276475 351.32343 
L 840.219595 354.695497 
L 822.162715 353.161286 
L 804.105835 354.826295 
L 786.048955 350.530796 
L 767.992075 355.180362 
L 749.935195 358.419237 
L 731.878315 357.899791 
L 713.821435 360.049743 
L 695.764555 355.080299 
L 677.707675 362.530842 
L 659.650795 367.593411 
L 641.593915 368.557869 
L 623.537035 369.090401 
L 605.480155 370.149008 
L 587.423275 371.00853 
L 569.366395 373.591621 
L 551.309515 367.413594 
L 533.252635 372.205986 
L 515.195755 372.103647 
L 497.138875 373.501535 
L 479.081995 374.047072 
L 461.025115 377.270086 
L 442.968235 378.187567 
L 424.911355 380.275657 
L 406.854475 375.324264 
L 388.797595 378.920426 
L 370.740715 378.000564 
L 352.683835 381.194901 
L 334.626955 384.299197 
L 316.570075 381.295672 
L 298.513195 385.691629 
L 280.456315 395.953254 
L 262.399435 393.697122 
L 244.342555 395.26832 
L 226.285675 393.877934 
L 208.228795 394.143835 
L 190.171915 394.282333 
L 172.115035 397.422041 
L 154.058155 402.289673 
L 136.001275 404.095509 
L 117.944395 407.645856 
L 99.887515 410.863527 
L 81.830635 414.337985 
L 63.773755 405.499418 
L 45.716875 410.984301 
z
" clip-path="url(#pf6ca0ece4c)" style="fill: #8eba42"/>
   </g>
   <g id="PolyCollection_7">
    <path d="M 45.716875 410.984301 
L 45.716875 410.984301 
L 63.773755 405.499418 
L 81.830635 414.337985 
L 99.887515 410.863527 
L 117.944395 407.645856 
L 136.001275 404.095509 
L 154.058155 402.289673 
L 172.115035 397.422041 
L 190.171915 394.282333 
L 208.228795 394.143835 
L 226.285675 393.877934 
L 244.342555 395.26832 
L 262.399435 393.697122 
L 280.456315 395.953254 
L 298.513195 385.691629 
L 316.570075 381.295672 
L 334.626955 384.299197 
L 352.683835 381.194901 
L 370.740715 378.000564 
L 388.797595 378.920426 
L 406.854475 375.324264 
L 424.911355 380.275657 
L 442.968235 378.187567 
L 461.025115 377.270086 
L 479.081995 374.047072 
L 497.138875 373.501535 
L 515.195755 372.103647 
L 533.252635 372.205986 
L 551.309515 367.413594 
L 569.366395 373.591621 
L 587.423275 371.00853 
L 605.480155 370.149008 
L 623.537035 369.090401 
L 641.593915 368.557869 
L 659.650795 367.593411 
L 677.707675 362.530842 
L 695.764555 355.080299 
L 713.821435 360.049743 
L 731.878315 357.899791 
L 749.935195 358.419237 
L 767.992075 355.180362 
L 786.048955 350.530796 
L 804.105835 354.826295 
L 822.162715 353.161286 
L 840.219595 354.695497 
L 858.276475 351.32343 
L 876.333355 353.601055 
L 894.390235 355.75478 
L 912.447115 351.404301 
L 930.503995 347.723868 
L 948.560875 350.399517 
L 948.560875 180.112359 
L 948.560875 180.112359 
L 930.503995 183.558028 
L 912.447115 181.916497 
L 894.390235 188.996899 
L 876.333355 188.651484 
L 858.276475 188.724448 
L 840.219595 191.572491 
L 822.162715 191.202442 
L 804.105835 196.035648 
L 786.048955 195.807784 
L 767.992075 196.481944 
L 749.935195 205.577545 
L 731.878315 205.933496 
L 713.821435 206.923133 
L 695.764555 199.269234 
L 677.707675 209.550496 
L 659.650795 215.731589 
L 641.593915 220.129233 
L 623.537035 221.464056 
L 605.480155 227.875992 
L 587.423275 230.277084 
L 569.366395 231.572991 
L 551.309515 221.774609 
L 533.252635 230.045302 
L 515.195755 232.147067 
L 497.138875 234.084178 
L 479.081995 234.312011 
L 461.025115 240.011771 
L 442.968235 247.927356 
L 424.911355 253.48605 
L 406.854475 262.058181 
L 388.797595 269.156279 
L 370.740715 276.640449 
L 352.683835 281.23409 
L 334.626955 297.921628 
L 316.570075 301.596353 
L 298.513195 312.248739 
L 280.456315 331.33824 
L 262.399435 331.943159 
L 244.342555 354.383308 
L 226.285675 388.067581 
L 208.228795 394.142938 
L 190.171915 394.282333 
L 172.115035 397.422041 
L 154.058155 402.289673 
L 136.001275 404.094979 
L 117.944395 407.644515 
L 99.887515 410.863393 
L 81.830635 414.337985 
L 63.773755 405.499418 
L 45.716875 410.984301 
z
" clip-path="url(#pf6ca0ece4c)" style="fill: #ffb5b8"/>
   </g>
   <g id="PolyCollection_8">
    <path d="M 45.716875 263.450115 
L 45.716875 410.984301 
L 63.773755 405.499418 
L 81.830635 414.337985 
L 99.887515 410.863393 
L 117.944395 407.644515 
L 136.001275 404.094979 
L 154.058155 402.289673 
L 172.115035 397.422041 
L 190.171915 394.282333 
L 208.228795 394.142938 
L 226.285675 388.067581 
L 244.342555 354.383308 
L 262.399435 331.943159 
L 280.456315 331.33824 
L 298.513195 312.248739 
L 316.570075 301.596353 
L 334.626955 297.921628 
L 352.683835 281.23409 
L 370.740715 276.640449 
L 388.797595 269.156279 
L 406.854475 262.058181 
L 424.911355 253.48605 
L 442.968235 247.927356 
L 461.025115 240.011771 
L 479.081995 234.312011 
L 497.138875 234.084178 
L 515.195755 232.147067 
L 533.252635 230.045302 
L 551.309515 221.774609 
L 569.366395 231.572991 
L 587.423275 230.277084 
L 605.480155 227.875992 
L 623.537035 221.464056 
L 641.593915 220.129233 
L 659.650795 215.731589 
L 677.707675 209.550496 
L 695.764555 199.269234 
L 713.821435 206.923133 
L 731.878315 205.933496 
L 749.935195 205.577545 
L 767.992075 196.481944 
L 786.048955 195.807784 
L 804.105835 196.035648 
L 822.162715 191.202442 
L 840.219595 191.572491 
L 858.276475 188.724448 
L 876.333355 188.651484 
L 894.390235 188.996899 
L 912.447115 181.916497 
L 930.503995 183.558028 
L 948.560875 180.112359 
L 948.560875 143.640493 
L 948.560875 143.640493 
L 930.503995 145.147674 
L 912.447115 142.310025 
L 894.390235 148.525413 
L 876.333355 146.094823 
L 858.276475 145.374347 
L 840.219595 148.281121 
L 822.162715 147.644456 
L 804.105835 151.012486 
L 786.048955 151.645636 
L 767.992075 152.773504 
L 749.935195 159.9061 
L 731.878315 158.720332 
L 713.821435 158.698814 
L 695.764555 150.144289 
L 677.707675 160.353276 
L 659.650795 163.224333 
L 641.593915 165.953288 
L 623.537035 165.907275 
L 605.480155 172.094274 
L 587.423275 170.984303 
L 569.366395 169.245123 
L 551.309515 161.062403 
L 533.252635 172.353324 
L 515.195755 175.377873 
L 497.138875 178.390425 
L 479.081995 176.47667 
L 461.025115 180.154482 
L 442.968235 186.33651 
L 424.911355 190.541661 
L 406.854475 196.132734 
L 388.797595 202.531098 
L 370.740715 202.273445 
L 352.683835 201.555406 
L 334.626955 209.424218 
L 316.570075 204.795497 
L 298.513195 207.955379 
L 280.456315 224.765681 
L 262.399435 221.285739 
L 244.342555 229.691851 
L 226.285675 230.188224 
L 208.228795 231.048612 
L 190.171915 234.29788 
L 172.115035 238.89953 
L 154.058155 237.962289 
L 136.001275 239.371617 
L 117.944395 248.169776 
L 99.887515 250.907599 
L 81.830635 252.840882 
L 63.773755 254.262687 
L 45.716875 263.450115 
z
" clip-path="url(#pf6ca0ece4c)" style="fill: #e24a33"/>
   </g>
   <g id="PolyCollection_9">
    <path d="M 45.716875 199.119762 
L 45.716875 263.450115 
L 63.773755 254.262687 
L 81.830635 252.840882 
L 99.887515 250.907599 
L 117.944395 248.169776 
L 136.001275 239.371617 
L 154.058155 237.962289 
L 172.115035 238.89953 
L 190.171915 234.29788 
L 208.228795 231.048612 
L 226.285675 230.188224 
L 244.342555 229.691851 
L 262.399435 221.285739 
L 280.456315 224.765681 
L 298.513195 207.955379 
L 316.570075 204.795497 
L 334.626955 209.424218 
L 352.683835 201.555406 
L 370.740715 202.273445 
L 388.797595 202.531098 
L 406.854475 196.132734 
L 424.911355 190.541661 
L 442.968235 186.33651 
L 461.025115 180.154482 
L 479.081995 176.47667 
L 497.138875 178.390425 
L 515.195755 175.377873 
L 533.252635 172.353324 
L 551.309515 161.062403 
L 569.366395 169.245123 
L 587.423275 170.984303 
L 605.480155 172.094274 
L 623.537035 165.907275 
L 641.593915 165.953288 
L 659.650795 163.224333 
L 677.707675 160.353276 
L 695.764555 150.144289 
L 713.821435 158.698814 
L 731.878315 158.720332 
L 749.935195 159.9061 
L 767.992075 152.773504 
L 786.048955 151.645636 
L 804.105835 151.012486 
L 822.162715 147.644456 
L 840.219595 148.281121 
L 858.276475 145.374347 
L 876.333355 146.094823 
L 894.390235 148.525413 
L 912.447115 142.310025 
L 930.503995 145.147674 
L 948.560875 143.640493 
L 948.560875 120.76401 
L 948.560875 120.76401 
L 930.503995 121.770977 
L 912.447115 119.463221 
L 894.390235 125.477838 
L 876.333355 122.57905 
L 858.276475 121.915101 
L 840.219595 124.103159 
L 822.162715 122.515719 
L 804.105835 125.956149 
L 786.048955 126.08146 
L 767.992075 126.916515 
L 749.935195 134.7542 
L 731.878315 133.154793 
L 713.821435 132.267807 
L 695.764555 122.834517 
L 677.707675 133.350493 
L 659.650795 136.091583 
L 641.593915 138.482692 
L 623.537035 138.171619 
L 605.480155 143.756884 
L 587.423275 142.927439 
L 569.366395 140.155842 
L 551.309515 130.518536 
L 533.252635 141.182674 
L 515.195755 142.552396 
L 497.138875 144.022139 
L 479.081995 141.786215 
L 461.025115 145.347326 
L 442.968235 148.450078 
L 424.911355 146.396912 
L 406.854475 144.090171 
L 388.797595 147.706159 
L 370.740715 148.297295 
L 352.683835 146.217155 
L 334.626955 151.26236 
L 316.570075 148.142743 
L 298.513195 150.544703 
L 280.456315 170.983028 
L 262.399435 164.041608 
L 244.342555 169.17248 
L 226.285675 168.848394 
L 208.228795 167.788575 
L 190.171915 171.418252 
L 172.115035 178.990817 
L 154.058155 179.735951 
L 136.001275 178.228186 
L 117.944395 188.497552 
L 99.887515 192.323299 
L 81.830635 193.881495 
L 63.773755 192.135023 
L 45.716875 199.119762 
z
" clip-path="url(#pf6ca0ece4c)" style="fill: #348abd"/>
   </g>
   <g id="PolyCollection_10">
    <path d="M 45.716875 153.516736 
L 45.716875 199.119762 
L 63.773755 192.135023 
L 81.830635 193.881495 
L 99.887515 192.323299 
L 117.944395 188.497552 
L 136.001275 178.228186 
L 154.058155 179.735951 
L 172.115035 178.990817 
L 190.171915 171.418252 
L 208.228795 167.788575 
L 226.285675 168.848394 
L 244.342555 169.17248 
L 262.399435 164.041608 
L 280.456315 170.983028 
L 298.513195 150.544703 
L 316.570075 148.142743 
L 334.626955 151.26236 
L 352.683835 146.217155 
L 370.740715 148.297295 
L 388.797595 147.706159 
L 406.854475 144.090171 
L 424.911355 146.396912 
L 442.968235 148.450078 
L 461.025115 145.347326 
L 479.081995 141.786215 
L 497.138875 144.022139 
L 515.195755 142.552396 
L 533.252635 141.182674 
L 551.309515 130.518536 
L 569.366395 140.155842 
L 587.423275 142.927439 
L 605.480155 143.756884 
L 623.537035 138.171619 
L 641.593915 138.482692 
L 659.650795 136.091583 
L 677.707675 133.350493 
L 695.764555 122.834517 
L 713.821435 132.267807 
L 731.878315 133.154793 
L 749.935195 134.7542 
L 767.992075 126.916515 
L 786.048955 126.08146 
L 804.105835 125.956149 
L 822.162715 122.515719 
L 840.219595 124.103159 
L 858.276475 121.915101 
L 876.333355 122.57905 
L 894.390235 125.477838 
L 912.447115 119.463221 
L 930.503995 121.770977 
L 948.560875 120.76401 
L 948.560875 99.3004 
L 948.560875 99.3004 
L 930.503995 99.805247 
L 912.447115 97.792963 
L 894.390235 104.471435 
L 876.333355 101.143272 
L 858.276475 100.263266 
L 840.219595 101.912343 
L 822.162715 99.447554 
L 804.105835 102.412249 
L 786.048955 103.836198 
L 767.992075 104.119694 
L 749.935195 110.717578 
L 731.878315 108.467397 
L 713.821435 108.155909 
L 695.764555 98.240497 
L 677.707675 109.361852 
L 659.650795 110.440166 
L 641.593915 112.339442 
L 623.537035 111.997909 
L 605.480155 115.07598 
L 587.423275 114.423911 
L 569.366395 112.29495 
L 551.309515 100.613144 
L 533.252635 110.429023 
L 515.195755 111.448303 
L 497.138875 110.752001 
L 479.081995 107.746616 
L 461.025115 109.806995 
L 442.968235 114.822948 
L 424.911355 114.602047 
L 406.854475 108.622224 
L 388.797595 111.554105 
L 370.740715 112.002556 
L 352.683835 112.737564 
L 334.626955 118.32914 
L 316.570075 112.370873 
L 298.513195 110.73833 
L 280.456315 129.497602 
L 262.399435 120.782473 
L 244.342555 125.999843 
L 226.285675 125.565397 
L 208.228795 122.123599 
L 190.171915 125.641343 
L 172.115035 134.913162 
L 154.058155 135.490173 
L 136.001275 133.823296 
L 117.944395 142.705772 
L 99.887515 148.590631 
L 81.830635 148.507761 
L 63.773755 143.666698 
L 45.716875 153.516736 
z
" clip-path="url(#pf6ca0ece4c)" style="fill: #988ed5"/>
   </g>
   <g id="PolyCollection_11">
    <path d="M 45.716875 57.976488 
L 45.716875 153.516736 
L 63.773755 143.666698 
L 81.830635 148.507761 
L 99.887515 148.590631 
L 117.944395 142.705772 
L 136.001275 133.823296 
L 154.058155 135.490173 
L 172.115035 134.913162 
L 190.171915 125.641343 
L 208.228795 122.123599 
L 226.285675 125.565397 
L 244.342555 125.999843 
L 262.399435 120.782473 
L 280.456315 129.497602 
L 298.513195 110.73833 
L 316.570075 112.370873 
L 334.626955 118.32914 
L 352.683835 112.737564 
L 370.740715 112.002556 
L 388.797595 111.554105 
L 406.854475 108.622224 
L 424.911355 114.602047 
L 442.968235 114.822948 
L 461.025115 109.806995 
L 479.081995 107.746616 
L 497.138875 110.752001 
L 515.195755 111.448303 
L 533.252635 110.429023 
L 551.309515 100.613144 
L 569.366395 112.29495 
L 587.423275 114.423911 
L 605.480155 115.07598 
L 623.537035 111.997909 
L 641.593915 112.339442 
L 659.650795 110.440166 
L 677.707675 109.361852 
L 695.764555 98.240497 
L 713.821435 108.155909 
L 731.878315 108.467397 
L 749.935195 110.717578 
L 767.992075 104.119694 
L 786.048955 103.836198 
L 804.105835 102.412249 
L 822.162715 99.447554 
L 840.219595 101.912343 
L 858.276475 100.263266 
L 876.333355 101.143272 
L 894.390235 104.471435 
L 912.447115 97.792963 
L 930.503995 99.805247 
L 948.560875 99.3004 
L 948.560875 39.632576 
L 948.560875 39.632576 
L 930.503995 39.619452 
L 912.447115 39.913013 
L 894.390235 39.842804 
L 876.333355 40.187769 
L 858.276475 40.226277 
L 840.219595 40.486421 
L 822.162715 40.966126 
L 804.105835 41.353265 
L 786.048955 42.085118 
L 767.992075 42.190397 
L 749.935195 41.251734 
L 731.878315 41.461605 
L 713.821435 41.89503 
L 695.764555 42.558085 
L 677.707675 42.28009 
L 659.650795 42.647316 
L 641.593915 42.667734 
L 623.537035 42.941648 
L 605.480155 43.131306 
L 587.423275 43.519519 
L 569.366395 43.95048 
L 551.309515 44.865765 
L 533.252635 44.675661 
L 515.195755 45.390226 
L 497.138875 45.744118 
L 479.081995 46.509079 
L 461.025115 46.469201 
L 442.968235 46.826548 
L 424.911355 46.870998 
L 406.854475 47.785808 
L 388.797595 48.072621 
L 370.740715 48.707954 
L 352.683835 48.960123 
L 334.626955 49.317923 
L 316.570075 50.969373 
L 298.513195 51.15435 
L 280.456315 50.592555 
L 262.399435 51.845591 
L 244.342555 52.340046 
L 226.285675 53.066672 
L 208.228795 53.974571 
L 190.171915 54.575856 
L 172.115035 55.18736 
L 154.058155 55.438447 
L 136.001275 55.636813 
L 117.944395 56.309974 
L 99.887515 56.490895 
L 81.830635 56.392073 
L 63.773755 58.570148 
L 45.716875 57.976488 
z
" clip-path="url(#pf6ca0ece4c)" style="fill: #777777"/>
   </g>
   <g id="PolyCollection_12">
    <path d="M 45.716875 29.910437 
L 45.716875 57.976488 
L 63.773755 58.570148 
L 81.830635 56.392073 
L 99.887515 56.490895 
L 117.944395 56.309974 
L 136.001275 55.636813 
L 154.058155 55.438447 
L 172.115035 55.18736 
L 190.171915 54.575856 
L 208.228795 53.974571 
L 226.285675 53.066672 
L 244.342555 52.340046 
L 262.399435 51.845591 
L 280.456315 50.592555 
L 298.513195 51.15435 
L 316.570075 50.969373 
L 334.626955 49.317923 
L 352.683835 48.960123 
L 370.740715 48.707954 
L 388.797595 48.072621 
L 406.854475 47.785808 
L 424.911355 46.870998 
L 442.968235 46.826548 
L 461.025115 46.469201 
L 479.081995 46.509079 
L 497.138875 45.744118 
L 515.195755 45.390226 
L 533.252635 44.675661 
L 551.309515 44.865765 
L 569.366395 43.95048 
L 587.423275 43.519519 
L 605.480155 43.131306 
L 623.537035 42.941648 
L 641.593915 42.667734 
L 659.650795 42.647316 
L 677.707675 42.28009 
L 695.764555 42.558085 
L 713.821435 41.89503 
L 731.878315 41.461605 
L 749.935195 41.251734 
L 767.992075 42.190397 
L 786.048955 42.085118 
L 804.105835 41.353265 
L 822.162715 40.966126 
L 840.219595 40.486421 
L 858.276475 40.226277 
L 876.333355 40.187769 
L 894.390235 39.842804 
L 912.447115 39.913013 
L 930.503995 39.619452 
L 948.560875 39.632576 
L 948.560875 26.888676 
L 948.560875 26.888676 
L 930.503995 26.897762 
L 912.447115 27.020487 
L 894.390235 26.910395 
L 876.333355 26.97539 
L 858.276475 27.02946 
L 840.219595 27.115964 
L 822.162715 27.155271 
L 804.105835 27.282943 
L 786.048955 27.355497 
L 767.992075 27.340316 
L 749.935195 27.19798 
L 731.878315 27.233708 
L 713.821435 27.292555 
L 695.764555 27.40025 
L 677.707675 27.349727 
L 659.650795 27.413305 
L 641.593915 27.415352 
L 623.537035 27.483036 
L 605.480155 27.4833 
L 587.423275 27.53475 
L 569.366395 27.596218 
L 551.309515 27.775546 
L 533.252635 27.736529 
L 515.195755 27.864673 
L 497.138875 27.932258 
L 479.081995 28.028736 
L 461.025115 28.04025 
L 442.968235 28.104149 
L 424.911355 28.133157 
L 406.854475 28.287732 
L 388.797595 28.342716 
L 370.740715 28.47345 
L 352.683835 28.468144 
L 334.626955 28.472144 
L 316.570075 28.645699 
L 298.513195 28.658688 
L 280.456315 28.598812 
L 262.399435 28.776748 
L 244.342555 28.953334 
L 226.285675 29.071122 
L 208.228795 29.19483 
L 190.171915 29.314622 
L 172.115035 29.458773 
L 154.058155 29.427421 
L 136.001275 29.498314 
L 117.944395 29.562257 
L 99.887515 29.599432 
L 81.830635 29.644346 
L 63.773755 30.03765 
L 45.716875 29.910437 
z
" clip-path="url(#pf6ca0ece4c)" style="fill: #fbc15e"/>
   </g>
   <g id="PolyCollection_13">
    <path d="M 45.716875 24.167911 
L 45.716875 29.910437 
L 63.773755 30.03765 
L 81.830635 29.644346 
L 99.887515 29.599432 
L 117.944395 29.562257 
L 136.001275 29.498314 
L 154.058155 29.427421 
L 172.115035 29.458773 
L 190.171915 29.314622 
L 208.228795 29.19483 
L 226.285675 29.071122 
L 244.342555 28.953334 
L 262.399435 28.776748 
L 280.456315 28.598812 
L 298.513195 28.658688 
L 316.570075 28.645699 
L 334.626955 28.472144 
L 352.683835 28.468144 
L 370.740715 28.47345 
L 388.797595 28.342716 
L 406.854475 28.287732 
L 424.911355 28.133157 
L 442.968235 28.104149 
L 461.025115 28.04025 
L 479.081995 28.028736 
L 497.138875 27.932258 
L 515.195755 27.864673 
L 533.252635 27.736529 
L 551.309515 27.775546 
L 569.366395 27.596218 
L 587.423275 27.53475 
L 605.480155 27.4833 
L 623.537035 27.483036 
L 641.593915 27.415352 
L 659.650795 27.413305 
L 677.707675 27.349727 
L 695.764555 27.40025 
L 713.821435 27.292555 
L 731.878315 27.233708 
L 749.935195 27.19798 
L 767.992075 27.340316 
L 786.048955 27.355497 
L 804.105835 27.282943 
L 822.162715 27.155271 
L 840.219595 27.115964 
L 858.276475 27.02946 
L 876.333355 26.97539 
L 894.390235 26.910395 
L 912.447115 27.020487 
L 930.503995 26.897762 
L 948.560875 26.888676 
L 948.560875 24.146569 
L 948.560875 24.146569 
L 930.503995 24.147107 
L 912.447115 24.145631 
L 894.390235 24.143433 
L 876.333355 24.142065 
L 858.276475 24.14175 
L 840.219595 24.14464 
L 822.162715 24.142843 
L 804.105835 24.144437 
L 786.048955 24.145621 
L 767.992075 24.144838 
L 749.935195 24.145602 
L 731.878315 24.143727 
L 713.821435 24.145007 
L 695.764555 24.147025 
L 677.707675 24.149182 
L 659.650795 24.151491 
L 641.593915 24.152115 
L 623.537035 24.15233 
L 605.480155 24.151224 
L 587.423275 24.152397 
L 569.366395 24.153349 
L 551.309515 24.155946 
L 533.252635 24.156343 
L 515.195755 24.159557 
L 497.138875 24.160347 
L 479.081995 24.160023 
L 461.025115 24.157461 
L 442.968235 24.159338 
L 424.911355 24.157534 
L 406.854475 24.160818 
L 388.797595 24.159831 
L 370.740715 24.160229 
L 352.683835 24.158244 
L 334.626955 24.158338 
L 316.570075 24.156146 
L 298.513195 24.160767 
L 280.456315 24.161045 
L 262.399435 24.162662 
L 244.342555 24.16505 
L 226.285675 24.164708 
L 208.228795 24.165747 
L 190.171915 24.165685 
L 172.115035 24.166227 
L 154.058155 24.162234 
L 136.001275 24.164413 
L 117.944395 24.168882 
L 99.887515 24.165275 
L 81.830635 24.164522 
L 63.773755 24.166715 
L 45.716875 24.167911 
z
" clip-path="url(#pf6ca0ece4c)" style="fill: #8eba42"/>
   </g>
   <g id="patch_3">
    <path d="M 45.716875 578.54175 
L 45.716875 24.14175 
" style="fill: none; stroke: #ffffff; stroke-linejoin: miter; stroke-linecap: square"/>
   </g>
   <g id="patch_4">
    <path d="M 948.560875 578.54175 
L 948.560875 24.14175 
" style="fill: none; stroke: #ffffff; stroke-linejoin: miter; stroke-linecap: square"/>
   </g>
   <g id="patch_5">
    <path d="M 45.716875 578.54175 
L 948.560875 578.54175 
" style="fill: none; stroke: #ffffff; stroke-linejoin: miter; stroke-linecap: square"/>
   </g>
   <g id="patch_6">
    <path d="M 45.716875 24.14175 
L 948.560875 24.14175 
" style="fill: none; stroke: #ffffff; stroke-linejoin: miter; stroke-linecap: square"/>
   </g>
   <g id="text_19">
    <!-- Rocky Linux Instances by Version Share -->
    <g transform="translate(45.716875 18.14175) scale(0.144 -0.144)">
     <defs>
      <path id="DejaVuSans-52" d="M 2841 2188 
Q 3044 2119 3236 1894 
Q 3428 1669 3622 1275 
L 4263 0 
L 3584 0 
L 2988 1197 
Q 2756 1666 2539 1819 
Q 2322 1972 1947 1972 
L 1259 1972 
L 1259 0 
L 628 0 
L 628 4666 
L 2053 4666 
Q 2853 4666 3247 4331 
Q 3641 3997 3641 3322 
Q 3641 2881 3436 2590 
Q 3231 2300 2841 2188 
z
M 1259 4147 
L 1259 2491 
L 2053 2491 
Q 2509 2491 2742 2702 
Q 2975 2913 2975 3322 
Q 2975 3731 2742 3939 
Q 2509 4147 2053 4147 
L 1259 4147 
z
" transform="scale(0.015625)"/>
      <path id="DejaVuSans-6b" d="M 581 4863 
L 1159 4863 
L 1159 1991 
L 2875 3500 
L 3609 3500 
L 1753 1863 
L 3688 0 
L 2938 0 
L 1159 1709 
L 1159 0 
L 581 0 
L 581 4863 
z
" transform="scale(0.015625)"/>
      <path id="DejaVuSans-79" d="M 2059 -325 
Q 1816 -950 1584 -1140 
Q 1353 -1331 966 -1331 
L 506 -1331 
L 506 -850 
L 844 -850 
Q 1081 -850 1212 -737 
Q 1344 -625 1503 -206 
L 1606 56 
L 191 3500 
L 800 3500 
L 1894 763 
L 2988 3500 
L 3597 3500 
L 2059 -325 
z
" transform="scale(0.015625)"/>
      <path id="DejaVuSans-4c" d="M 628 4666 
L 1259 4666 
L 1259 531 
L 3531 531 
L 3531 0 
L 628 0 
L 628 4666 
z
" transform="scale(0.015625)"/>
      <path id="DejaVuSans-69" d="M 603 3500 
L 1178 3500 
L 1178 0 
L 603 0 
L 603 3500 
z
M 603 4863 
L 1178 4863 
L 1178 4134 
L 603 4134 
L 603 4863 
z
" transform="scale(0.015625)"/>
      <path id="DejaVuSans-75" d="M 544 1381 
L 544 3500 
L 1119 3500 
L 1119 1403 
Q 1119 906 1312 657 
Q 1506 409 1894 409 
Q 2359 409 2629 706 
Q 2900 1003 2900 1516 
L 2900 3500 
L 3475 3500 
L 3475 0 
L 2900 0 
L 2900 538 
Q 2691 219 2414 64 
Q 2138 -91 1772 -91 
Q 1169 -91 856 284 
Q 544 659 544 1381 
z
M 1991 3584 
L 1991 3584 
z
" transform="scale(0.015625)"/>
      <path id="DejaVuSans-78" d="M 3513 3500 
L 2247 1797 
L 3578 0 
L 2900 0 
L 1881 1375 
L 863 0 
L 184 0 
L 1544 1831 
L 300 3500 
L 978 3500 
L 1906 2253 
L 2834 3500 
L 3513 3500 
z
" transform="scale(0.015625)"/>
      <path id="DejaVuSans-62" d="M 3116 1747 
Q 3116 2381 2855 2742 
Q 2594 3103 2138 3103 
Q 1681 3103 1420 2742 
Q 1159 2381 1159 1747 
Q 1159 1113 1420 752 
Q 1681 391 2138 391 
Q 2594 391 2855 752 
Q 3116 1113 3116 1747 
z
M 1159 2969 
Q 1341 3281 1617 3432 
Q 1894 3584 2278 3584 
Q 2916 3584 3314 3078 
Q 3713 2572 3713 1747 
Q 3713 922 3314 415 
Q 2916 -91 2278 -91 
Q 1894 -91 1617 61 
Q 1341 213 1159 525 
L 1159 0 
L 581 0 
L 581 4863 
L 1159 4863 
L 1159 2969 
z
" transform="scale(0.015625)"/>
      <path id="DejaVuSans-56" d="M 1831 0 
L 50 4666 
L 709 4666 
L 2188 738 
L 3669 4666 
L 4325 4666 
L 2547 0 
L 1831 0 
z
" transform="scale(0.015625)"/>
     </defs>
     <use xlink:href="#DejaVuSans-52"/>
     <use xlink:href="#DejaVuSans-6f" x="64.982422"/>
     <use xlink:href="#DejaVuSans-63" x="126.164062"/>
     <use xlink:href="#DejaVuSans-6b" x="181.144531"/>
     <use xlink:href="#DejaVuSans-79" x="235.429688"/>
     <use xlink:href="#DejaVuSans-20" x="294.609375"/>
     <use xlink:href="#DejaVuSans-4c" x="326.396484"/>
     <use xlink:href="#DejaVuSans-69" x="382.109375"/>
     <use xlink:href="#DejaVuSans-6e" x="409.892578"/>
     <use xlink:href="#DejaVuSans-75" x="473.271484"/>
     <use xlink:href="#DejaVuSans-78" x="536.650391"/>
     <use xlink:href="#DejaVuSans-20" x="595.830078"/>
     <use xlink:href="#DejaVuSans-49" x="627.617188"/>
     <use xlink:href="#DejaVuSans-6e" x="657.109375"/>
     <use xlink:href="#DejaVuSans-73" x="720.488281"/>
     <use xlink:href="#DejaVuSans-74" x="772.587891"/>
     <use xlink:href="#DejaVuSans-61" x="811.796875"/>
     <use xlink:href="#DejaVuSans-6e" x="873.076172"/>
     <use xlink:href="#DejaVuSans-63" x="936.455078"/>
     <use xlink:href="#DejaVuSans-65" x="991.435547"/>
     <use xlink:href="#DejaVuSans-73" x="1052.958984"/>
     <use xlink:href="#DejaVuSans-20" x="1105.058594"/>
     <use xlink:href="#DejaVuSans-62" x="1136.845703"/>
     <use xlink:href="#DejaVuSans-79" x="1200.322266"/>
     <use xlink:href="#DejaVuSans-20" x="1259.501953"/>
     <use xlink:href="#DejaVuSans-56" x="1291.289062"/>
     <use xlink:href="#DejaVuSans-65" x="1351.947266"/>
     <use xlink:href="#DejaVuSans-72" x="1413.470703"/>
     <use xlink:href="#DejaVuSans-73" x="1454.583984"/>
     <use xlink:href="#DejaVuSans-69" x="1506.683594"/>
     <use xlink:href="#DejaVuSans-6f" x="1534.466797"/>
     <use xlink:href="#DejaVuSans-6e" x="1595.648438"/>
     <use xlink:href="#DejaVuSans-20" x="1659.027344"/>
     <use xlink:href="#DejaVuSans-53" x="1690.814453"/>
     <use xlink:href="#DejaVuSans-68" x="1754.291016"/>
     <use xlink:href="#DejaVuSans-61" x="1817.669922"/>
     <use xlink:href="#DejaVuSans-72" x="1878.949219"/>
     <use xlink:href="#DejaVuSans-65" x="1917.8125"/>
    </g>
   </g>
   <g id="text_20">
    <!-- 2025-03-20 11:55 UTC -->
    <g transform="translate(785.678875 18.14175) scale(0.144 -0.144)">
     <defs>
      <path id="DejaVuSans-33" d="M 2597 2516 
Q 3050 2419 3304 2112 
Q 3559 1806 3559 1356 
Q 3559 666 3084 287 
Q 2609 -91 1734 -91 
Q 1441 -91 1130 -33 
Q 819 25 488 141 
L 488 750 
Q 750 597 1062 519 
Q 1375 441 1716 441 
Q 2309 441 2620 675 
Q 2931 909 2931 1356 
Q 2931 1769 2642 2001 
Q 2353 2234 1838 2234 
L 1294 2234 
L 1294 2753 
L 1863 2753 
Q 2328 2753 2575 2939 
Q 2822 3125 2822 3475 
Q 2822 3834 2567 4026 
Q 2313 4219 1838 4219 
Q 1578 4219 1281 4162 
Q 984 4106 628 3988 
L 628 4550 
Q 988 4650 1302 4700 
Q 1616 4750 1894 4750 
Q 2613 4750 3031 4423 
Q 3450 4097 3450 3541 
Q 3450 3153 3228 2886 
Q 3006 2619 2597 2516 
z
" transform="scale(0.015625)"/>
      <path id="DejaVuSans-3a" d="M 750 794 
L 1409 794 
L 1409 0 
L 750 0 
L 750 794 
z
M 750 3309 
L 1409 3309 
L 1409 2516 
L 750 2516 
L 750 3309 
z
" transform="scale(0.015625)"/>
      <path id="DejaVuSans-55" d="M 556 4666 
L 1191 4666 
L 1191 1831 
Q 1191 1081 1462 751 
Q 1734 422 2344 422 
Q 2950 422 3222 751 
Q 3494 1081 3494 1831 
L 3494 4666 
L 4128 4666 
L 4128 1753 
Q 4128 841 3676 375 
Q 3225 -91 2344 -91 
Q 1459 -91 1007 375 
Q 556 841 556 1753 
L 556 4666 
z
" transform="scale(0.015625)"/>
      <path id="DejaVuSans-54" d="M -19 4666 
L 3928 4666 
L 3928 4134 
L 2272 4134 
L 2272 0 
L 1638 0 
L 1638 4134 
L -19 4134 
L -19 4666 
z
" transform="scale(0.015625)"/>
      <path id="DejaVuSans-43" d="M 4122 4306 
L 4122 3641 
Q 3803 3938 3442 4084 
Q 3081 4231 2675 4231 
Q 1875 4231 1450 3742 
Q 1025 3253 1025 2328 
Q 1025 1406 1450 917 
Q 1875 428 2675 428 
Q 3081 428 3442 575 
Q 3803 722 4122 1019 
L 4122 359 
Q 3791 134 3420 21 
Q 3050 -91 2638 -91 
Q 1578 -91 968 557 
Q 359 1206 359 2328 
Q 359 3453 968 4101 
Q 1578 4750 2638 4750 
Q 3056 4750 3426 4639 
Q 3797 4528 4122 4306 
z
" transform="scale(0.015625)"/>
     </defs>
     <use xlink:href="#DejaVuSans-32"/>
     <use xlink:href="#DejaVuSans-30" x="63.623047"/>
     <use xlink:href="#DejaVuSans-32" x="127.246094"/>
     <use xlink:href="#DejaVuSans-35" x="190.869141"/>
     <use xlink:href="#DejaVuSans-2d" x="254.492188"/>
     <use xlink:href="#DejaVuSans-30" x="290.576172"/>
     <use xlink:href="#DejaVuSans-33" x="354.199219"/>
     <use xlink:href="#DejaVuSans-2d" x="417.822266"/>
     <use xlink:href="#DejaVuSans-32" x="453.90625"/>
     <use xlink:href="#DejaVuSans-30" x="517.529297"/>
     <use xlink:href="#DejaVuSans-20" x="581.152344"/>
     <use xlink:href="#DejaVuSans-31" x="612.939453"/>
     <use xlink:href="#DejaVuSans-31" x="676.5625"/>
     <use xlink:href="#DejaVuSans-3a" x="740.185547"/>
     <use xlink:href="#DejaVuSans-35" x="773.876953"/>
     <use xlink:href="#DejaVuSans-35" x="837.5"/>
     <use xlink:href="#DejaVuSans-20" x="901.123047"/>
     <use xlink:href="#DejaVuSans-55" x="932.910156"/>
     <use xlink:href="#DejaVuSans-54" x="1006.103516"/>
     <use xlink:href="#DejaVuSans-43" x="1061.3125"/>
    </g>
   </g>
   <g id="legend_1">
    <g id="patch_7">
     <path d="M 52.716875 237.6355 
L 106.9825 237.6355 
Q 108.9825 237.6355 108.9825 235.6355 
L 108.9825 31.14175 
Q 108.9825 29.14175 106.9825 29.14175 
L 52.716875 29.14175 
Q 50.716875 29.14175 50.716875 31.14175 
L 50.716875 235.6355 
Q 50.716875 237.6355 52.716875 237.6355 
z
" style="fill: #e5e5e5; opacity: 0.8; stroke: #cccccc; stroke-width: 0.5; stroke-linejoin: miter"/>
    </g>
    <g id="text_21">
     <!-- Version -->
     <g transform="translate(61.462969 40.740188) scale(0.1 -0.1)">
      <use xlink:href="#DejaVuSans-56"/>
      <use xlink:href="#DejaVuSans-65" x="60.658203"/>
      <use xlink:href="#DejaVuSans-72" x="122.181641"/>
      <use xlink:href="#DejaVuSans-73" x="163.294922"/>
      <use xlink:href="#DejaVuSans-69" x="215.394531"/>
      <use xlink:href="#DejaVuSans-6f" x="243.177734"/>
      <use xlink:href="#DejaVuSans-6e" x="304.359375"/>
     </g>
    </g>
    <g id="patch_8">
     <path d="M 54.716875 55.418313 
L 74.716875 55.418313 
L 74.716875 48.418313 
L 54.716875 48.418313 
z
" style="fill: #e24a33"/>
    </g>
    <g id="text_22">
     <!-- 9.5 -->
     <g transform="translate(82.716875 55.418313) scale(0.1 -0.1)">
      <use xlink:href="#DejaVuSans-39"/>
      <use xlink:href="#DejaVuSans-2e" x="63.623047"/>
      <use xlink:href="#DejaVuSans-35" x="95.410156"/>
     </g>
    </g>
    <g id="patch_9">
     <path d="M 54.716875 70.096438 
L 74.716875 70.096438 
L 74.716875 63.096438 
L 54.716875 63.096438 
z
" style="fill: #348abd"/>
    </g>
    <g id="text_23">
     <!-- 9.4 -->
     <g transform="translate(82.716875 70.096438) scale(0.1 -0.1)">
      <use xlink:href="#DejaVuSans-39"/>
      <use xlink:href="#DejaVuSans-2e" x="63.623047"/>
      <use xlink:href="#DejaVuSans-34" x="95.410156"/>
     </g>
    </g>
    <g id="patch_10">
     <path d="M 54.716875 84.774563 
L 74.716875 84.774563 
L 74.716875 77.774563 
L 54.716875 77.774563 
z
" style="fill: #988ed5"/>
    </g>
    <g id="text_24">
     <!-- 9.3 -->
     <g transform="translate(82.716875 84.774563) scale(0.1 -0.1)">
      <use xlink:href="#DejaVuSans-39"/>
      <use xlink:href="#DejaVuSans-2e" x="63.623047"/>
      <use xlink:href="#DejaVuSans-33" x="95.410156"/>
     </g>
    </g>
    <g id="patch_11">
     <path d="M 54.716875 99.452688 
L 74.716875 99.452688 
L 74.716875 92.452688 
L 54.716875 92.452688 
z
" style="fill: #777777"/>
    </g>
    <g id="text_25">
     <!-- 9.2 -->
     <g transform="translate(82.716875 99.452688) scale(0.1 -0.1)">
      <use xlink:href="#DejaVuSans-39"/>
      <use xlink:href="#DejaVuSans-2e" x="63.623047"/>
      <use xlink:href="#DejaVuSans-32" x="95.410156"/>
     </g>
    </g>
    <g id="patch_12">
     <path d="M 54.716875 114.130813 
L 74.716875 114.130813 
L 74.716875 107.130813 
L 54.716875 107.130813 
z
" style="fill: #fbc15e"/>
    </g>
    <g id="text_26">
     <!-- 9.1 -->
     <g transform="translate(82.716875 114.130813) scale(0.1 -0.1)">
      <use xlink:href="#DejaVuSans-39"/>
      <use xlink:href="#DejaVuSans-2e" x="63.623047"/>
      <use xlink:href="#DejaVuSans-31" x="95.410156"/>
     </g>
    </g>
    <g id="patch_13">
     <path d="M 54.716875 128.808938 
L 74.716875 128.808938 
L 74.716875 121.808938 
L 54.716875 121.808938 
z
" style="fill: #8eba42"/>
    </g>
    <g id="text_27">
     <!-- 9.0 -->
     <g transform="translate(82.716875 128.808938) scale(0.1 -0.1)">
      <use xlink:href="#DejaVuSans-39"/>
      <use xlink:href="#DejaVuSans-2e" x="63.623047"/>
      <use xlink:href="#DejaVuSans-30" x="95.410156"/>
     </g>
    </g>
    <g id="patch_14">
     <path d="M 54.716875 143.487063 
L 74.716875 143.487063 
L 74.716875 136.487063 
L 54.716875 136.487063 
z
" style="fill: #ffb5b8"/>
    </g>
    <g id="text_28">
     <!-- 8.10 -->
     <g transform="translate(82.716875 143.487063) scale(0.1 -0.1)">
      <use xlink:href="#DejaVuSans-38"/>
      <use xlink:href="#DejaVuSans-2e" x="63.623047"/>
      <use xlink:href="#DejaVuSans-31" x="95.410156"/>
      <use xlink:href="#DejaVuSans-30" x="159.033203"/>
     </g>
    </g>
    <g id="patch_15">
     <path d="M 54.716875 158.165188 
L 74.716875 158.165188 
L 74.716875 151.165188 
L 54.716875 151.165188 
z
" style="fill: #e24a33"/>
    </g>
    <g id="text_29">
     <!-- 8.9 -->
     <g transform="translate(82.716875 158.165188) scale(0.1 -0.1)">
      <use xlink:href="#DejaVuSans-38"/>
      <use xlink:href="#DejaVuSans-2e" x="63.623047"/>
      <use xlink:href="#DejaVuSans-39" x="95.410156"/>
     </g>
    </g>
    <g id="patch_16">
     <path d="M 54.716875 172.843313 
L 74.716875 172.843313 
L 74.716875 165.843313 
L 54.716875 165.843313 
z
" style="fill: #348abd"/>
    </g>
    <g id="text_30">
     <!-- 8.8 -->
     <g transform="translate(82.716875 172.843313) scale(0.1 -0.1)">
      <use xlink:href="#DejaVuSans-38"/>
      <use xlink:href="#DejaVuSans-2e" x="63.623047"/>
      <use xlink:href="#DejaVuSans-38" x="95.410156"/>
     </g>
    </g>
    <g id="patch_17">
     <path d="M 54.716875 187.521438 
L 74.716875 187.521438 
L 74.716875 180.521438 
L 54.716875 180.521438 
z
" style="fill: #988ed5"/>
    </g>
    <g id="text_31">
     <!-- 8.7 -->
     <g transform="translate(82.716875 187.521438) scale(0.1 -0.1)">
      <use xlink:href="#DejaVuSans-38"/>
      <use xlink:href="#DejaVuSans-2e" x="63.623047"/>
      <use xlink:href="#DejaVuSans-37" x="95.410156"/>
     </g>
    </g>
    <g id="patch_18">
     <path d="M 54.716875 202.199563 
L 74.716875 202.199563 
L 74.716875 195.199563 
L 54.716875 195.199563 
z
" style="fill: #777777"/>
    </g>
    <g id="text_32">
     <!-- 8.6 -->
     <g transform="translate(82.716875 202.199563) scale(0.1 -0.1)">
      <use xlink:href="#DejaVuSans-38"/>
      <use xlink:href="#DejaVuSans-2e" x="63.623047"/>
      <use xlink:href="#DejaVuSans-36" x="95.410156"/>
     </g>
    </g>
    <g id="patch_19">
     <path d="M 54.716875 216.877688 
L 74.716875 216.877688 
L 74.716875 209.877688 
L 54.716875 209.877688 
z
" style="fill: #fbc15e"/>
    </g>
    <g id="text_33">
     <!-- 8.5 -->
     <g transform="translate(82.716875 216.877688) scale(0.1 -0.1)">
      <use xlink:href="#DejaVuSans-38"/>
      <use xlink:href="#DejaVuSans-2e" x="63.623047"/>
      <use xlink:href="#DejaVuSans-35" x="95.410156"/>
     </g>
    </g>
    <g id="patch_20">
     <path d="M 54.716875 231.555813 
L 74.716875 231.555813 
L 74.716875 224.555813 
L 54.716875 224.555813 
z
" style="fill: #8eba42"/>
    </g>
    <g id="text_34">
     <!-- 8.4 -->
     <g transform="translate(82.716875 231.555813) scale(0.1 -0.1)">
      <use xlink:href="#DejaVuSans-38"/>
      <use xlink:href="#DejaVuSans-2e" x="63.623047"/>
      <use xlink:href="#DejaVuSans-34" x="95.410156"/>
     </g>
    </g>
   </g>
  </g>
 </g>
 <defs>
  <clipPath id="pf6ca0ece4c">
   <rect x="45.716875" y="24.14175" width="902.844" height="554.4"/>
  </clipPath>
 </defs>
</svg>
