<?xml version="1.0" encoding="utf-8" standalone="no"?>
<!DOCTYPE svg PUBLIC "-//W3C//DTD SVG 1.1//EN"
  "http://www.w3.org/Graphics/SVG/1.1/DTD/svg11.dtd">
<svg xmlns:xlink="http://www.w3.org/1999/xlink" width="955.760875pt" height="633.943878pt" viewBox="0 0 955.760875 633.943878" xmlns="http://www.w3.org/2000/svg" version="1.1">
 <metadata>
  <rdf:RDF xmlns:dc="http://purl.org/dc/elements/1.1/" xmlns:cc="http://creativecommons.org/ns#" xmlns:rdf="http://www.w3.org/1999/02/22-rdf-syntax-ns#">
   <cc:Work>
    <dc:type rdf:resource="http://purl.org/dc/dcmitype/StillImage"/>
    <dc:date>2024-07-04T11:55:18.185142</dc:date>
    <dc:format>image/svg+xml</dc:format>
    <dc:creator>
     <cc:Agent>
      <dc:title>Matplotlib v3.5.1, https://matplotlib.org/</dc:title>
     </cc:Agent>
    </dc:creator>
   </cc:Work>
  </rdf:RDF>
 </metadata>
 <defs>
  <style type="text/css">*{stroke-linejoin: round; stroke-linecap: butt}</style>
 </defs>
 <g id="figure_1">
  <g id="patch_1">
   <path d="M 0 633.943878 
L 955.760875 633.943878 
L 955.760875 0 
L 0 0 
z
" style="fill: #ffffff"/>
  </g>
  <g id="axes_1">
   <g id="patch_2">
    <path d="M 45.716875 567.74175 
L 948.560875 567.74175 
L 948.560875 24.14175 
L 45.716875 24.14175 
z
" style="fill: #e5e5e5"/>
   </g>
   <g id="matplotlib.axis_1">
    <g id="xtick_1">
     <g id="line2d_1">
      <path d="M 89.569298 567.74175 
L 89.569298 24.14175 
" clip-path="url(#pd5b6a0cf8d)" style="fill: none; stroke: #ffffff; stroke-width: 0.8; stroke-linecap: square"/>
     </g>
     <g id="line2d_2">
      <defs>
       <path id="m65da2053fa" d="M 0 0 
L 0 3.5 
" style="stroke: #555555; stroke-width: 0.8"/>
      </defs>
      <g>
       <use xlink:href="#m65da2053fa" x="89.569298" y="567.74175" style="fill: #555555; stroke: #555555; stroke-width: 0.8"/>
      </g>
     </g>
     <g id="text_1">
      <!-- 2023-07 -->
      <g style="fill: #555555" transform="translate(76.748016 609.659567)rotate(-45)scale(0.1 -0.1)">
       <defs>
        <path id="DejaVuSans-32" d="M 1228 531 
L 3431 531 
L 3431 0 
L 469 0 
L 469 531 
Q 828 903 1448 1529 
Q 2069 2156 2228 2338 
Q 2531 2678 2651 2914 
Q 2772 3150 2772 3378 
Q 2772 3750 2511 3984 
Q 2250 4219 1831 4219 
Q 1534 4219 1204 4116 
Q 875 4013 500 3803 
L 500 4441 
Q 881 4594 1212 4672 
Q 1544 4750 1819 4750 
Q 2544 4750 2975 4387 
Q 3406 4025 3406 3419 
Q 3406 3131 3298 2873 
Q 3191 2616 2906 2266 
Q 2828 2175 2409 1742 
Q 1991 1309 1228 531 
z
" transform="scale(0.015625)"/>
        <path id="DejaVuSans-30" d="M 2034 4250 
Q 1547 4250 1301 3770 
Q 1056 3291 1056 2328 
Q 1056 1369 1301 889 
Q 1547 409 2034 409 
Q 2525 409 2770 889 
Q 3016 1369 3016 2328 
Q 3016 3291 2770 3770 
Q 2525 4250 2034 4250 
z
M 2034 4750 
Q 2819 4750 3233 4129 
Q 3647 3509 3647 2328 
Q 3647 1150 3233 529 
Q 2819 -91 2034 -91 
Q 1250 -91 836 529 
Q 422 1150 422 2328 
Q 422 3509 836 4129 
Q 1250 4750 2034 4750 
z
" transform="scale(0.015625)"/>
        <path id="DejaVuSans-33" d="M 2597 2516 
Q 3050 2419 3304 2112 
Q 3559 1806 3559 1356 
Q 3559 666 3084 287 
Q 2609 -91 1734 -91 
Q 1441 -91 1130 -33 
Q 819 25 488 141 
L 488 750 
Q 750 597 1062 519 
Q 1375 441 1716 441 
Q 2309 441 2620 675 
Q 2931 909 2931 1356 
Q 2931 1769 2642 2001 
Q 2353 2234 1838 2234 
L 1294 2234 
L 1294 2753 
L 1863 2753 
Q 2328 2753 2575 2939 
Q 2822 3125 2822 3475 
Q 2822 3834 2567 4026 
Q 2313 4219 1838 4219 
Q 1578 4219 1281 4162 
Q 984 4106 628 3988 
L 628 4550 
Q 988 4650 1302 4700 
Q 1616 4750 1894 4750 
Q 2613 4750 3031 4423 
Q 3450 4097 3450 3541 
Q 3450 3153 3228 2886 
Q 3006 2619 2597 2516 
z
" transform="scale(0.015625)"/>
        <path id="DejaVuSans-2d" d="M 313 2009 
L 1997 2009 
L 1997 1497 
L 313 1497 
L 313 2009 
z
" transform="scale(0.015625)"/>
        <path id="DejaVuSans-37" d="M 525 4666 
L 3525 4666 
L 3525 4397 
L 1831 0 
L 1172 0 
L 2766 4134 
L 525 4134 
L 525 4666 
z
" transform="scale(0.015625)"/>
       </defs>
       <use xlink:href="#DejaVuSans-32"/>
       <use xlink:href="#DejaVuSans-30" x="63.623047"/>
       <use xlink:href="#DejaVuSans-32" x="127.246094"/>
       <use xlink:href="#DejaVuSans-33" x="190.869141"/>
       <use xlink:href="#DejaVuSans-2d" x="254.492188"/>
       <use xlink:href="#DejaVuSans-30" x="290.576172"/>
       <use xlink:href="#DejaVuSans-37" x="354.199219"/>
      </g>
     </g>
    </g>
    <g id="xtick_2">
     <g id="line2d_3">
      <path d="M 169.535481 567.74175 
L 169.535481 24.14175 
" clip-path="url(#pd5b6a0cf8d)" style="fill: none; stroke: #ffffff; stroke-width: 0.8; stroke-linecap: square"/>
     </g>
     <g id="line2d_4">
      <g>
       <use xlink:href="#m65da2053fa" x="169.535481" y="567.74175" style="fill: #555555; stroke: #555555; stroke-width: 0.8"/>
      </g>
     </g>
     <g id="text_2">
      <!-- 2023-08 -->
      <g style="fill: #555555" transform="translate(156.714198 609.659567)rotate(-45)scale(0.1 -0.1)">
       <defs>
        <path id="DejaVuSans-38" d="M 2034 2216 
Q 1584 2216 1326 1975 
Q 1069 1734 1069 1313 
Q 1069 891 1326 650 
Q 1584 409 2034 409 
Q 2484 409 2743 651 
Q 3003 894 3003 1313 
Q 3003 1734 2745 1975 
Q 2488 2216 2034 2216 
z
M 1403 2484 
Q 997 2584 770 2862 
Q 544 3141 544 3541 
Q 544 4100 942 4425 
Q 1341 4750 2034 4750 
Q 2731 4750 3128 4425 
Q 3525 4100 3525 3541 
Q 3525 3141 3298 2862 
Q 3072 2584 2669 2484 
Q 3125 2378 3379 2068 
Q 3634 1759 3634 1313 
Q 3634 634 3220 271 
Q 2806 -91 2034 -91 
Q 1263 -91 848 271 
Q 434 634 434 1313 
Q 434 1759 690 2068 
Q 947 2378 1403 2484 
z
M 1172 3481 
Q 1172 3119 1398 2916 
Q 1625 2713 2034 2713 
Q 2441 2713 2670 2916 
Q 2900 3119 2900 3481 
Q 2900 3844 2670 4047 
Q 2441 4250 2034 4250 
Q 1625 4250 1398 4047 
Q 1172 3844 1172 3481 
z
" transform="scale(0.015625)"/>
       </defs>
       <use xlink:href="#DejaVuSans-32"/>
       <use xlink:href="#DejaVuSans-30" x="63.623047"/>
       <use xlink:href="#DejaVuSans-32" x="127.246094"/>
       <use xlink:href="#DejaVuSans-33" x="190.869141"/>
       <use xlink:href="#DejaVuSans-2d" x="254.492188"/>
       <use xlink:href="#DejaVuSans-30" x="290.576172"/>
       <use xlink:href="#DejaVuSans-38" x="354.199219"/>
      </g>
     </g>
    </g>
    <g id="xtick_3">
     <g id="line2d_5">
      <path d="M 249.501664 567.74175 
L 249.501664 24.14175 
" clip-path="url(#pd5b6a0cf8d)" style="fill: none; stroke: #ffffff; stroke-width: 0.8; stroke-linecap: square"/>
     </g>
     <g id="line2d_6">
      <g>
       <use xlink:href="#m65da2053fa" x="249.501664" y="567.74175" style="fill: #555555; stroke: #555555; stroke-width: 0.8"/>
      </g>
     </g>
     <g id="text_3">
      <!-- 2023-09 -->
      <g style="fill: #555555" transform="translate(236.680381 609.659567)rotate(-45)scale(0.1 -0.1)">
       <defs>
        <path id="DejaVuSans-39" d="M 703 97 
L 703 672 
Q 941 559 1184 500 
Q 1428 441 1663 441 
Q 2288 441 2617 861 
Q 2947 1281 2994 2138 
Q 2813 1869 2534 1725 
Q 2256 1581 1919 1581 
Q 1219 1581 811 2004 
Q 403 2428 403 3163 
Q 403 3881 828 4315 
Q 1253 4750 1959 4750 
Q 2769 4750 3195 4129 
Q 3622 3509 3622 2328 
Q 3622 1225 3098 567 
Q 2575 -91 1691 -91 
Q 1453 -91 1209 -44 
Q 966 3 703 97 
z
M 1959 2075 
Q 2384 2075 2632 2365 
Q 2881 2656 2881 3163 
Q 2881 3666 2632 3958 
Q 2384 4250 1959 4250 
Q 1534 4250 1286 3958 
Q 1038 3666 1038 3163 
Q 1038 2656 1286 2365 
Q 1534 2075 1959 2075 
z
" transform="scale(0.015625)"/>
       </defs>
       <use xlink:href="#DejaVuSans-32"/>
       <use xlink:href="#DejaVuSans-30" x="63.623047"/>
       <use xlink:href="#DejaVuSans-32" x="127.246094"/>
       <use xlink:href="#DejaVuSans-33" x="190.869141"/>
       <use xlink:href="#DejaVuSans-2d" x="254.492188"/>
       <use xlink:href="#DejaVuSans-30" x="290.576172"/>
       <use xlink:href="#DejaVuSans-39" x="354.199219"/>
      </g>
     </g>
    </g>
    <g id="xtick_4">
     <g id="line2d_7">
      <path d="M 326.888292 567.74175 
L 326.888292 24.14175 
" clip-path="url(#pd5b6a0cf8d)" style="fill: none; stroke: #ffffff; stroke-width: 0.8; stroke-linecap: square"/>
     </g>
     <g id="line2d_8">
      <g>
       <use xlink:href="#m65da2053fa" x="326.888292" y="567.74175" style="fill: #555555; stroke: #555555; stroke-width: 0.8"/>
      </g>
     </g>
     <g id="text_4">
      <!-- 2023-10 -->
      <g style="fill: #555555" transform="translate(314.06701 609.659567)rotate(-45)scale(0.1 -0.1)">
       <defs>
        <path id="DejaVuSans-31" d="M 794 531 
L 1825 531 
L 1825 4091 
L 703 3866 
L 703 4441 
L 1819 4666 
L 2450 4666 
L 2450 531 
L 3481 531 
L 3481 0 
L 794 0 
L 794 531 
z
" transform="scale(0.015625)"/>
       </defs>
       <use xlink:href="#DejaVuSans-32"/>
       <use xlink:href="#DejaVuSans-30" x="63.623047"/>
       <use xlink:href="#DejaVuSans-32" x="127.246094"/>
       <use xlink:href="#DejaVuSans-33" x="190.869141"/>
       <use xlink:href="#DejaVuSans-2d" x="254.492188"/>
       <use xlink:href="#DejaVuSans-31" x="290.576172"/>
       <use xlink:href="#DejaVuSans-30" x="354.199219"/>
      </g>
     </g>
    </g>
    <g id="xtick_5">
     <g id="line2d_9">
      <path d="M 406.854475 567.74175 
L 406.854475 24.14175 
" clip-path="url(#pd5b6a0cf8d)" style="fill: none; stroke: #ffffff; stroke-width: 0.8; stroke-linecap: square"/>
     </g>
     <g id="line2d_10">
      <g>
       <use xlink:href="#m65da2053fa" x="406.854475" y="567.74175" style="fill: #555555; stroke: #555555; stroke-width: 0.8"/>
      </g>
     </g>
     <g id="text_5">
      <!-- 2023-11 -->
      <g style="fill: #555555" transform="translate(394.033193 609.659567)rotate(-45)scale(0.1 -0.1)">
       <use xlink:href="#DejaVuSans-32"/>
       <use xlink:href="#DejaVuSans-30" x="63.623047"/>
       <use xlink:href="#DejaVuSans-32" x="127.246094"/>
       <use xlink:href="#DejaVuSans-33" x="190.869141"/>
       <use xlink:href="#DejaVuSans-2d" x="254.492188"/>
       <use xlink:href="#DejaVuSans-31" x="290.576172"/>
       <use xlink:href="#DejaVuSans-31" x="354.199219"/>
      </g>
     </g>
    </g>
    <g id="xtick_6">
     <g id="line2d_11">
      <path d="M 484.241104 567.74175 
L 484.241104 24.14175 
" clip-path="url(#pd5b6a0cf8d)" style="fill: none; stroke: #ffffff; stroke-width: 0.8; stroke-linecap: square"/>
     </g>
     <g id="line2d_12">
      <g>
       <use xlink:href="#m65da2053fa" x="484.241104" y="567.74175" style="fill: #555555; stroke: #555555; stroke-width: 0.8"/>
      </g>
     </g>
     <g id="text_6">
      <!-- 2023-12 -->
      <g style="fill: #555555" transform="translate(471.419821 609.659567)rotate(-45)scale(0.1 -0.1)">
       <use xlink:href="#DejaVuSans-32"/>
       <use xlink:href="#DejaVuSans-30" x="63.623047"/>
       <use xlink:href="#DejaVuSans-32" x="127.246094"/>
       <use xlink:href="#DejaVuSans-33" x="190.869141"/>
       <use xlink:href="#DejaVuSans-2d" x="254.492188"/>
       <use xlink:href="#DejaVuSans-31" x="290.576172"/>
       <use xlink:href="#DejaVuSans-32" x="354.199219"/>
      </g>
     </g>
    </g>
    <g id="xtick_7">
     <g id="line2d_13">
      <path d="M 564.207286 567.74175 
L 564.207286 24.14175 
" clip-path="url(#pd5b6a0cf8d)" style="fill: none; stroke: #ffffff; stroke-width: 0.8; stroke-linecap: square"/>
     </g>
     <g id="line2d_14">
      <g>
       <use xlink:href="#m65da2053fa" x="564.207286" y="567.74175" style="fill: #555555; stroke: #555555; stroke-width: 0.8"/>
      </g>
     </g>
     <g id="text_7">
      <!-- 2024-01 -->
      <g style="fill: #555555" transform="translate(551.386004 609.659567)rotate(-45)scale(0.1 -0.1)">
       <defs>
        <path id="DejaVuSans-34" d="M 2419 4116 
L 825 1625 
L 2419 1625 
L 2419 4116 
z
M 2253 4666 
L 3047 4666 
L 3047 1625 
L 3713 1625 
L 3713 1100 
L 3047 1100 
L 3047 0 
L 2419 0 
L 2419 1100 
L 313 1100 
L 313 1709 
L 2253 4666 
z
" transform="scale(0.015625)"/>
       </defs>
       <use xlink:href="#DejaVuSans-32"/>
       <use xlink:href="#DejaVuSans-30" x="63.623047"/>
       <use xlink:href="#DejaVuSans-32" x="127.246094"/>
       <use xlink:href="#DejaVuSans-34" x="190.869141"/>
       <use xlink:href="#DejaVuSans-2d" x="254.492188"/>
       <use xlink:href="#DejaVuSans-30" x="290.576172"/>
       <use xlink:href="#DejaVuSans-31" x="354.199219"/>
      </g>
     </g>
    </g>
    <g id="xtick_8">
     <g id="line2d_15">
      <path d="M 644.173469 567.74175 
L 644.173469 24.14175 
" clip-path="url(#pd5b6a0cf8d)" style="fill: none; stroke: #ffffff; stroke-width: 0.8; stroke-linecap: square"/>
     </g>
     <g id="line2d_16">
      <g>
       <use xlink:href="#m65da2053fa" x="644.173469" y="567.74175" style="fill: #555555; stroke: #555555; stroke-width: 0.8"/>
      </g>
     </g>
     <g id="text_8">
      <!-- 2024-02 -->
      <g style="fill: #555555" transform="translate(631.352187 609.659567)rotate(-45)scale(0.1 -0.1)">
       <use xlink:href="#DejaVuSans-32"/>
       <use xlink:href="#DejaVuSans-30" x="63.623047"/>
       <use xlink:href="#DejaVuSans-32" x="127.246094"/>
       <use xlink:href="#DejaVuSans-34" x="190.869141"/>
       <use xlink:href="#DejaVuSans-2d" x="254.492188"/>
       <use xlink:href="#DejaVuSans-30" x="290.576172"/>
       <use xlink:href="#DejaVuSans-32" x="354.199219"/>
      </g>
     </g>
    </g>
    <g id="xtick_9">
     <g id="line2d_17">
      <path d="M 718.980544 567.74175 
L 718.980544 24.14175 
" clip-path="url(#pd5b6a0cf8d)" style="fill: none; stroke: #ffffff; stroke-width: 0.8; stroke-linecap: square"/>
     </g>
     <g id="line2d_18">
      <g>
       <use xlink:href="#m65da2053fa" x="718.980544" y="567.74175" style="fill: #555555; stroke: #555555; stroke-width: 0.8"/>
      </g>
     </g>
     <g id="text_9">
      <!-- 2024-03 -->
      <g style="fill: #555555" transform="translate(706.159261 609.659567)rotate(-45)scale(0.1 -0.1)">
       <use xlink:href="#DejaVuSans-32"/>
       <use xlink:href="#DejaVuSans-30" x="63.623047"/>
       <use xlink:href="#DejaVuSans-32" x="127.246094"/>
       <use xlink:href="#DejaVuSans-34" x="190.869141"/>
       <use xlink:href="#DejaVuSans-2d" x="254.492188"/>
       <use xlink:href="#DejaVuSans-30" x="290.576172"/>
       <use xlink:href="#DejaVuSans-33" x="354.199219"/>
      </g>
     </g>
    </g>
    <g id="xtick_10">
     <g id="line2d_19">
      <path d="M 798.946726 567.74175 
L 798.946726 24.14175 
" clip-path="url(#pd5b6a0cf8d)" style="fill: none; stroke: #ffffff; stroke-width: 0.8; stroke-linecap: square"/>
     </g>
     <g id="line2d_20">
      <g>
       <use xlink:href="#m65da2053fa" x="798.946726" y="567.74175" style="fill: #555555; stroke: #555555; stroke-width: 0.8"/>
      </g>
     </g>
     <g id="text_10">
      <!-- 2024-04 -->
      <g style="fill: #555555" transform="translate(786.125444 609.659567)rotate(-45)scale(0.1 -0.1)">
       <use xlink:href="#DejaVuSans-32"/>
       <use xlink:href="#DejaVuSans-30" x="63.623047"/>
       <use xlink:href="#DejaVuSans-32" x="127.246094"/>
       <use xlink:href="#DejaVuSans-34" x="190.869141"/>
       <use xlink:href="#DejaVuSans-2d" x="254.492188"/>
       <use xlink:href="#DejaVuSans-30" x="290.576172"/>
       <use xlink:href="#DejaVuSans-34" x="354.199219"/>
      </g>
     </g>
    </g>
    <g id="xtick_11">
     <g id="line2d_21">
      <path d="M 876.333355 567.74175 
L 876.333355 24.14175 
" clip-path="url(#pd5b6a0cf8d)" style="fill: none; stroke: #ffffff; stroke-width: 0.8; stroke-linecap: square"/>
     </g>
     <g id="line2d_22">
      <g>
       <use xlink:href="#m65da2053fa" x="876.333355" y="567.74175" style="fill: #555555; stroke: #555555; stroke-width: 0.8"/>
      </g>
     </g>
     <g id="text_11">
      <!-- 2024-05 -->
      <g style="fill: #555555" transform="translate(863.512073 609.659567)rotate(-45)scale(0.1 -0.1)">
       <defs>
        <path id="DejaVuSans-35" d="M 691 4666 
L 3169 4666 
L 3169 4134 
L 1269 4134 
L 1269 2991 
Q 1406 3038 1543 3061 
Q 1681 3084 1819 3084 
Q 2600 3084 3056 2656 
Q 3513 2228 3513 1497 
Q 3513 744 3044 326 
Q 2575 -91 1722 -91 
Q 1428 -91 1123 -41 
Q 819 9 494 109 
L 494 744 
Q 775 591 1075 516 
Q 1375 441 1709 441 
Q 2250 441 2565 725 
Q 2881 1009 2881 1497 
Q 2881 1984 2565 2268 
Q 2250 2553 1709 2553 
Q 1456 2553 1204 2497 
Q 953 2441 691 2322 
L 691 4666 
z
" transform="scale(0.015625)"/>
       </defs>
       <use xlink:href="#DejaVuSans-32"/>
       <use xlink:href="#DejaVuSans-30" x="63.623047"/>
       <use xlink:href="#DejaVuSans-32" x="127.246094"/>
       <use xlink:href="#DejaVuSans-34" x="190.869141"/>
       <use xlink:href="#DejaVuSans-2d" x="254.492188"/>
       <use xlink:href="#DejaVuSans-30" x="290.576172"/>
       <use xlink:href="#DejaVuSans-35" x="354.199219"/>
      </g>
     </g>
    </g>
    <g id="text_12">
     <!-- Date -->
     <g style="fill: #555555" transform="translate(482.797938 624.248253)scale(0.12 -0.12)">
      <defs>
       <path id="DejaVuSans-44" d="M 1259 4147 
L 1259 519 
L 2022 519 
Q 2988 519 3436 956 
Q 3884 1394 3884 2338 
Q 3884 3275 3436 3711 
Q 2988 4147 2022 4147 
L 1259 4147 
z
M 628 4666 
L 1925 4666 
Q 3281 4666 3915 4102 
Q 4550 3538 4550 2338 
Q 4550 1131 3912 565 
Q 3275 0 1925 0 
L 628 0 
L 628 4666 
z
" transform="scale(0.015625)"/>
       <path id="DejaVuSans-61" d="M 2194 1759 
Q 1497 1759 1228 1600 
Q 959 1441 959 1056 
Q 959 750 1161 570 
Q 1363 391 1709 391 
Q 2188 391 2477 730 
Q 2766 1069 2766 1631 
L 2766 1759 
L 2194 1759 
z
M 3341 1997 
L 3341 0 
L 2766 0 
L 2766 531 
Q 2569 213 2275 61 
Q 1981 -91 1556 -91 
Q 1019 -91 701 211 
Q 384 513 384 1019 
Q 384 1609 779 1909 
Q 1175 2209 1959 2209 
L 2766 2209 
L 2766 2266 
Q 2766 2663 2505 2880 
Q 2244 3097 1772 3097 
Q 1472 3097 1187 3025 
Q 903 2953 641 2809 
L 641 3341 
Q 956 3463 1253 3523 
Q 1550 3584 1831 3584 
Q 2591 3584 2966 3190 
Q 3341 2797 3341 1997 
z
" transform="scale(0.015625)"/>
       <path id="DejaVuSans-74" d="M 1172 4494 
L 1172 3500 
L 2356 3500 
L 2356 3053 
L 1172 3053 
L 1172 1153 
Q 1172 725 1289 603 
Q 1406 481 1766 481 
L 2356 481 
L 2356 0 
L 1766 0 
Q 1100 0 847 248 
Q 594 497 594 1153 
L 594 3053 
L 172 3053 
L 172 3500 
L 594 3500 
L 594 4494 
L 1172 4494 
z
" transform="scale(0.015625)"/>
       <path id="DejaVuSans-65" d="M 3597 1894 
L 3597 1613 
L 953 1613 
Q 991 1019 1311 708 
Q 1631 397 2203 397 
Q 2534 397 2845 478 
Q 3156 559 3463 722 
L 3463 178 
Q 3153 47 2828 -22 
Q 2503 -91 2169 -91 
Q 1331 -91 842 396 
Q 353 884 353 1716 
Q 353 2575 817 3079 
Q 1281 3584 2069 3584 
Q 2775 3584 3186 3129 
Q 3597 2675 3597 1894 
z
M 3022 2063 
Q 3016 2534 2758 2815 
Q 2500 3097 2075 3097 
Q 1594 3097 1305 2825 
Q 1016 2553 972 2059 
L 3022 2063 
z
" transform="scale(0.015625)"/>
      </defs>
      <use xlink:href="#DejaVuSans-44"/>
      <use xlink:href="#DejaVuSans-61" x="77.001953"/>
      <use xlink:href="#DejaVuSans-74" x="138.28125"/>
      <use xlink:href="#DejaVuSans-65" x="177.490234"/>
     </g>
    </g>
   </g>
   <g id="matplotlib.axis_2">
    <g id="ytick_1">
     <g id="line2d_23">
      <path d="M 45.716875 567.74175 
L 948.560875 567.74175 
" clip-path="url(#pd5b6a0cf8d)" style="fill: none; stroke: #ffffff; stroke-width: 0.8; stroke-linecap: square"/>
     </g>
     <g id="line2d_24">
      <defs>
       <path id="m48e2a5d6bf" d="M 0 0 
L -3.5 0 
" style="stroke: #555555; stroke-width: 0.8"/>
      </defs>
      <g>
       <use xlink:href="#m48e2a5d6bf" x="45.716875" y="567.74175" style="fill: #555555; stroke: #555555; stroke-width: 0.8"/>
      </g>
     </g>
     <g id="text_13">
      <!-- 0.0 -->
      <g style="fill: #555555" transform="translate(22.81375 571.540969)scale(0.1 -0.1)">
       <defs>
        <path id="DejaVuSans-2e" d="M 684 794 
L 1344 794 
L 1344 0 
L 684 0 
L 684 794 
z
" transform="scale(0.015625)"/>
       </defs>
       <use xlink:href="#DejaVuSans-30"/>
       <use xlink:href="#DejaVuSans-2e" x="63.623047"/>
       <use xlink:href="#DejaVuSans-30" x="95.410156"/>
      </g>
     </g>
    </g>
    <g id="ytick_2">
     <g id="line2d_25">
      <path d="M 45.716875 459.013215 
L 948.560875 459.013215 
" clip-path="url(#pd5b6a0cf8d)" style="fill: none; stroke: #ffffff; stroke-width: 0.8; stroke-linecap: square"/>
     </g>
     <g id="line2d_26">
      <g>
       <use xlink:href="#m48e2a5d6bf" x="45.716875" y="459.013215" style="fill: #555555; stroke: #555555; stroke-width: 0.8"/>
      </g>
     </g>
     <g id="text_14">
      <!-- 0.2 -->
      <g style="fill: #555555" transform="translate(22.81375 462.812434)scale(0.1 -0.1)">
       <use xlink:href="#DejaVuSans-30"/>
       <use xlink:href="#DejaVuSans-2e" x="63.623047"/>
       <use xlink:href="#DejaVuSans-32" x="95.410156"/>
      </g>
     </g>
    </g>
    <g id="ytick_3">
     <g id="line2d_27">
      <path d="M 45.716875 350.28468 
L 948.560875 350.28468 
" clip-path="url(#pd5b6a0cf8d)" style="fill: none; stroke: #ffffff; stroke-width: 0.8; stroke-linecap: square"/>
     </g>
     <g id="line2d_28">
      <g>
       <use xlink:href="#m48e2a5d6bf" x="45.716875" y="350.28468" style="fill: #555555; stroke: #555555; stroke-width: 0.8"/>
      </g>
     </g>
     <g id="text_15">
      <!-- 0.4 -->
      <g style="fill: #555555" transform="translate(22.81375 354.083899)scale(0.1 -0.1)">
       <use xlink:href="#DejaVuSans-30"/>
       <use xlink:href="#DejaVuSans-2e" x="63.623047"/>
       <use xlink:href="#DejaVuSans-34" x="95.410156"/>
      </g>
     </g>
    </g>
    <g id="ytick_4">
     <g id="line2d_29">
      <path d="M 45.716875 241.556145 
L 948.560875 241.556145 
" clip-path="url(#pd5b6a0cf8d)" style="fill: none; stroke: #ffffff; stroke-width: 0.8; stroke-linecap: square"/>
     </g>
     <g id="line2d_30">
      <g>
       <use xlink:href="#m48e2a5d6bf" x="45.716875" y="241.556145" style="fill: #555555; stroke: #555555; stroke-width: 0.8"/>
      </g>
     </g>
     <g id="text_16">
      <!-- 0.6 -->
      <g style="fill: #555555" transform="translate(22.81375 245.355364)scale(0.1 -0.1)">
       <defs>
        <path id="DejaVuSans-36" d="M 2113 2584 
Q 1688 2584 1439 2293 
Q 1191 2003 1191 1497 
Q 1191 994 1439 701 
Q 1688 409 2113 409 
Q 2538 409 2786 701 
Q 3034 994 3034 1497 
Q 3034 2003 2786 2293 
Q 2538 2584 2113 2584 
z
M 3366 4563 
L 3366 3988 
Q 3128 4100 2886 4159 
Q 2644 4219 2406 4219 
Q 1781 4219 1451 3797 
Q 1122 3375 1075 2522 
Q 1259 2794 1537 2939 
Q 1816 3084 2150 3084 
Q 2853 3084 3261 2657 
Q 3669 2231 3669 1497 
Q 3669 778 3244 343 
Q 2819 -91 2113 -91 
Q 1303 -91 875 529 
Q 447 1150 447 2328 
Q 447 3434 972 4092 
Q 1497 4750 2381 4750 
Q 2619 4750 2861 4703 
Q 3103 4656 3366 4563 
z
" transform="scale(0.015625)"/>
       </defs>
       <use xlink:href="#DejaVuSans-30"/>
       <use xlink:href="#DejaVuSans-2e" x="63.623047"/>
       <use xlink:href="#DejaVuSans-36" x="95.410156"/>
      </g>
     </g>
    </g>
    <g id="ytick_5">
     <g id="line2d_31">
      <path d="M 45.716875 132.82761 
L 948.560875 132.82761 
" clip-path="url(#pd5b6a0cf8d)" style="fill: none; stroke: #ffffff; stroke-width: 0.8; stroke-linecap: square"/>
     </g>
     <g id="line2d_32">
      <g>
       <use xlink:href="#m48e2a5d6bf" x="45.716875" y="132.82761" style="fill: #555555; stroke: #555555; stroke-width: 0.8"/>
      </g>
     </g>
     <g id="text_17">
      <!-- 0.8 -->
      <g style="fill: #555555" transform="translate(22.81375 136.626829)scale(0.1 -0.1)">
       <use xlink:href="#DejaVuSans-30"/>
       <use xlink:href="#DejaVuSans-2e" x="63.623047"/>
       <use xlink:href="#DejaVuSans-38" x="95.410156"/>
      </g>
     </g>
    </g>
    <g id="text_18">
     <!-- Share of Instances -->
     <g style="fill: #555555" transform="translate(16.318125 351.497062)rotate(-90)scale(0.12 -0.12)">
      <defs>
       <path id="DejaVuSans-53" d="M 3425 4513 
L 3425 3897 
Q 3066 4069 2747 4153 
Q 2428 4238 2131 4238 
Q 1616 4238 1336 4038 
Q 1056 3838 1056 3469 
Q 1056 3159 1242 3001 
Q 1428 2844 1947 2747 
L 2328 2669 
Q 3034 2534 3370 2195 
Q 3706 1856 3706 1288 
Q 3706 609 3251 259 
Q 2797 -91 1919 -91 
Q 1588 -91 1214 -16 
Q 841 59 441 206 
L 441 856 
Q 825 641 1194 531 
Q 1563 422 1919 422 
Q 2459 422 2753 634 
Q 3047 847 3047 1241 
Q 3047 1584 2836 1778 
Q 2625 1972 2144 2069 
L 1759 2144 
Q 1053 2284 737 2584 
Q 422 2884 422 3419 
Q 422 4038 858 4394 
Q 1294 4750 2059 4750 
Q 2388 4750 2728 4690 
Q 3069 4631 3425 4513 
z
" transform="scale(0.015625)"/>
       <path id="DejaVuSans-68" d="M 3513 2113 
L 3513 0 
L 2938 0 
L 2938 2094 
Q 2938 2591 2744 2837 
Q 2550 3084 2163 3084 
Q 1697 3084 1428 2787 
Q 1159 2491 1159 1978 
L 1159 0 
L 581 0 
L 581 4863 
L 1159 4863 
L 1159 2956 
Q 1366 3272 1645 3428 
Q 1925 3584 2291 3584 
Q 2894 3584 3203 3211 
Q 3513 2838 3513 2113 
z
" transform="scale(0.015625)"/>
       <path id="DejaVuSans-72" d="M 2631 2963 
Q 2534 3019 2420 3045 
Q 2306 3072 2169 3072 
Q 1681 3072 1420 2755 
Q 1159 2438 1159 1844 
L 1159 0 
L 581 0 
L 581 3500 
L 1159 3500 
L 1159 2956 
Q 1341 3275 1631 3429 
Q 1922 3584 2338 3584 
Q 2397 3584 2469 3576 
Q 2541 3569 2628 3553 
L 2631 2963 
z
" transform="scale(0.015625)"/>
       <path id="DejaVuSans-20" transform="scale(0.015625)"/>
       <path id="DejaVuSans-6f" d="M 1959 3097 
Q 1497 3097 1228 2736 
Q 959 2375 959 1747 
Q 959 1119 1226 758 
Q 1494 397 1959 397 
Q 2419 397 2687 759 
Q 2956 1122 2956 1747 
Q 2956 2369 2687 2733 
Q 2419 3097 1959 3097 
z
M 1959 3584 
Q 2709 3584 3137 3096 
Q 3566 2609 3566 1747 
Q 3566 888 3137 398 
Q 2709 -91 1959 -91 
Q 1206 -91 779 398 
Q 353 888 353 1747 
Q 353 2609 779 3096 
Q 1206 3584 1959 3584 
z
" transform="scale(0.015625)"/>
       <path id="DejaVuSans-66" d="M 2375 4863 
L 2375 4384 
L 1825 4384 
Q 1516 4384 1395 4259 
Q 1275 4134 1275 3809 
L 1275 3500 
L 2222 3500 
L 2222 3053 
L 1275 3053 
L 1275 0 
L 697 0 
L 697 3053 
L 147 3053 
L 147 3500 
L 697 3500 
L 697 3744 
Q 697 4328 969 4595 
Q 1241 4863 1831 4863 
L 2375 4863 
z
" transform="scale(0.015625)"/>
       <path id="DejaVuSans-49" d="M 628 4666 
L 1259 4666 
L 1259 0 
L 628 0 
L 628 4666 
z
" transform="scale(0.015625)"/>
       <path id="DejaVuSans-6e" d="M 3513 2113 
L 3513 0 
L 2938 0 
L 2938 2094 
Q 2938 2591 2744 2837 
Q 2550 3084 2163 3084 
Q 1697 3084 1428 2787 
Q 1159 2491 1159 1978 
L 1159 0 
L 581 0 
L 581 3500 
L 1159 3500 
L 1159 2956 
Q 1366 3272 1645 3428 
Q 1925 3584 2291 3584 
Q 2894 3584 3203 3211 
Q 3513 2838 3513 2113 
z
" transform="scale(0.015625)"/>
       <path id="DejaVuSans-73" d="M 2834 3397 
L 2834 2853 
Q 2591 2978 2328 3040 
Q 2066 3103 1784 3103 
Q 1356 3103 1142 2972 
Q 928 2841 928 2578 
Q 928 2378 1081 2264 
Q 1234 2150 1697 2047 
L 1894 2003 
Q 2506 1872 2764 1633 
Q 3022 1394 3022 966 
Q 3022 478 2636 193 
Q 2250 -91 1575 -91 
Q 1294 -91 989 -36 
Q 684 19 347 128 
L 347 722 
Q 666 556 975 473 
Q 1284 391 1588 391 
Q 1994 391 2212 530 
Q 2431 669 2431 922 
Q 2431 1156 2273 1281 
Q 2116 1406 1581 1522 
L 1381 1569 
Q 847 1681 609 1914 
Q 372 2147 372 2553 
Q 372 3047 722 3315 
Q 1072 3584 1716 3584 
Q 2034 3584 2315 3537 
Q 2597 3491 2834 3397 
z
" transform="scale(0.015625)"/>
       <path id="DejaVuSans-63" d="M 3122 3366 
L 3122 2828 
Q 2878 2963 2633 3030 
Q 2388 3097 2138 3097 
Q 1578 3097 1268 2742 
Q 959 2388 959 1747 
Q 959 1106 1268 751 
Q 1578 397 2138 397 
Q 2388 397 2633 464 
Q 2878 531 3122 666 
L 3122 134 
Q 2881 22 2623 -34 
Q 2366 -91 2075 -91 
Q 1284 -91 818 406 
Q 353 903 353 1747 
Q 353 2603 823 3093 
Q 1294 3584 2113 3584 
Q 2378 3584 2631 3529 
Q 2884 3475 3122 3366 
z
" transform="scale(0.015625)"/>
      </defs>
      <use xlink:href="#DejaVuSans-53"/>
      <use xlink:href="#DejaVuSans-68" x="63.476562"/>
      <use xlink:href="#DejaVuSans-61" x="126.855469"/>
      <use xlink:href="#DejaVuSans-72" x="188.134766"/>
      <use xlink:href="#DejaVuSans-65" x="226.998047"/>
      <use xlink:href="#DejaVuSans-20" x="288.521484"/>
      <use xlink:href="#DejaVuSans-6f" x="320.308594"/>
      <use xlink:href="#DejaVuSans-66" x="381.490234"/>
      <use xlink:href="#DejaVuSans-20" x="416.695312"/>
      <use xlink:href="#DejaVuSans-49" x="448.482422"/>
      <use xlink:href="#DejaVuSans-6e" x="477.974609"/>
      <use xlink:href="#DejaVuSans-73" x="541.353516"/>
      <use xlink:href="#DejaVuSans-74" x="593.453125"/>
      <use xlink:href="#DejaVuSans-61" x="632.662109"/>
      <use xlink:href="#DejaVuSans-6e" x="693.941406"/>
      <use xlink:href="#DejaVuSans-63" x="757.320312"/>
      <use xlink:href="#DejaVuSans-65" x="812.300781"/>
      <use xlink:href="#DejaVuSans-73" x="873.824219"/>
     </g>
    </g>
   </g>
   <g id="PolyCollection_1">
    <path d="M 45.716875 567.74175 
L 45.716875 567.74175 
L 63.773755 567.74175 
L 81.830635 567.74175 
L 99.887515 567.74175 
L 117.944395 567.74175 
L 136.001275 567.74175 
L 154.058155 567.74175 
L 172.115035 567.74175 
L 190.171915 567.74175 
L 208.228795 567.74175 
L 226.285675 567.74175 
L 244.342555 567.74175 
L 262.399435 567.74175 
L 280.456315 567.74175 
L 298.513195 567.74175 
L 316.570075 567.74175 
L 370.740715 567.74175 
L 388.797595 567.74175 
L 406.854475 567.74175 
L 424.911355 567.74175 
L 442.968235 567.74175 
L 461.025115 567.74175 
L 479.081995 567.74175 
L 497.138875 567.74175 
L 515.195755 567.74175 
L 533.252635 567.74175 
L 551.309515 567.74175 
L 569.366395 567.74175 
L 587.423275 567.74175 
L 605.480155 567.74175 
L 623.537035 567.74175 
L 641.593915 567.74175 
L 659.650795 567.74175 
L 677.707675 567.74175 
L 695.764555 567.74175 
L 713.821435 567.74175 
L 731.878315 567.74175 
L 749.935195 567.74175 
L 767.992075 567.74175 
L 786.048955 567.74175 
L 804.105835 567.74175 
L 822.162715 567.74175 
L 840.219595 567.74175 
L 858.276475 567.74175 
L 876.333355 567.74175 
L 894.390235 567.74175 
L 912.447115 567.74175 
L 930.503995 567.74175 
L 948.560875 567.74175 
L 948.560875 497.028165 
L 948.560875 497.028165 
L 930.503995 500.891129 
L 912.447115 507.213004 
L 894.390235 515.266462 
L 876.333355 524.079748 
L 858.276475 536.381426 
L 840.219595 561.243419 
L 822.162715 567.740175 
L 804.105835 567.74175 
L 786.048955 567.74175 
L 767.992075 567.74175 
L 749.935195 567.74175 
L 731.878315 567.74175 
L 713.821435 567.74175 
L 695.764555 567.74175 
L 677.707675 567.74175 
L 659.650795 567.74175 
L 641.593915 567.74175 
L 623.537035 567.74175 
L 605.480155 567.74175 
L 587.423275 567.74175 
L 569.366395 567.74175 
L 551.309515 567.74175 
L 533.252635 567.74175 
L 515.195755 567.74175 
L 497.138875 567.74175 
L 479.081995 567.74175 
L 461.025115 567.74175 
L 442.968235 567.74175 
L 424.911355 567.74175 
L 406.854475 567.74175 
L 388.797595 567.74175 
L 370.740715 567.74175 
L 316.570075 567.74175 
L 298.513195 567.74175 
L 280.456315 567.74175 
L 262.399435 567.74175 
L 244.342555 567.74175 
L 226.285675 567.74175 
L 208.228795 567.74175 
L 190.171915 567.74175 
L 172.115035 567.74175 
L 154.058155 567.74175 
L 136.001275 567.74175 
L 117.944395 567.74175 
L 99.887515 567.74175 
L 81.830635 567.74175 
L 63.773755 567.74175 
L 45.716875 567.74175 
z
" clip-path="url(#pd5b6a0cf8d)" style="fill: #e24a33"/>
   </g>
   <g id="PolyCollection_2">
    <path d="M 45.716875 567.74175 
L 45.716875 567.74175 
L 63.773755 567.74175 
L 81.830635 567.74175 
L 99.887515 567.74175 
L 117.944395 567.74175 
L 136.001275 567.74175 
L 154.058155 567.74175 
L 172.115035 567.74175 
L 190.171915 567.74175 
L 208.228795 567.74175 
L 226.285675 567.74175 
L 244.342555 567.74175 
L 262.399435 567.74175 
L 280.456315 567.74175 
L 298.513195 567.74175 
L 316.570075 567.74175 
L 370.740715 567.74175 
L 388.797595 567.74175 
L 406.854475 567.74175 
L 424.911355 567.74175 
L 442.968235 567.74175 
L 461.025115 567.74175 
L 479.081995 567.74175 
L 497.138875 567.74175 
L 515.195755 567.74175 
L 533.252635 567.74175 
L 551.309515 567.74175 
L 569.366395 567.74175 
L 587.423275 567.74175 
L 605.480155 567.74175 
L 623.537035 567.74175 
L 641.593915 567.74175 
L 659.650795 567.74175 
L 677.707675 567.74175 
L 695.764555 567.74175 
L 713.821435 567.74175 
L 731.878315 567.74175 
L 749.935195 567.74175 
L 767.992075 567.74175 
L 786.048955 567.74175 
L 804.105835 567.74175 
L 822.162715 567.740175 
L 840.219595 561.243419 
L 858.276475 536.381426 
L 876.333355 524.079748 
L 894.390235 515.266462 
L 912.447115 507.213004 
L 930.503995 500.891129 
L 948.560875 497.028165 
L 948.560875 433.159751 
L 948.560875 433.159751 
L 930.503995 431.747216 
L 912.447115 434.208139 
L 894.390235 434.348196 
L 876.333355 436.265469 
L 858.276475 437.876948 
L 840.219595 441.512668 
L 822.162715 447.226551 
L 804.105835 449.152934 
L 786.048955 454.001737 
L 767.992075 458.16729 
L 749.935195 462.966253 
L 731.878315 460.656441 
L 713.821435 464.682387 
L 695.764555 466.973253 
L 677.707675 471.431699 
L 659.650795 471.107154 
L 641.593915 475.542925 
L 623.537035 481.57378 
L 605.480155 481.346148 
L 587.423275 483.55724 
L 569.366395 489.392457 
L 551.309515 495.105532 
L 533.252635 499.815571 
L 515.195755 502.929299 
L 497.138875 507.003447 
L 479.081995 510.088456 
L 461.025115 515.754177 
L 442.968235 520.027447 
L 424.911355 531.883623 
L 406.854475 551.476737 
L 388.797595 567.691344 
L 370.740715 567.740847 
L 316.570075 567.74175 
L 298.513195 567.74175 
L 280.456315 567.74175 
L 262.399435 567.74175 
L 244.342555 567.74175 
L 226.285675 567.74175 
L 208.228795 567.74175 
L 190.171915 567.74175 
L 172.115035 567.74175 
L 154.058155 567.74175 
L 136.001275 567.74175 
L 117.944395 567.74175 
L 99.887515 567.74175 
L 81.830635 567.74175 
L 63.773755 567.74175 
L 45.716875 567.74175 
z
" clip-path="url(#pd5b6a0cf8d)" style="fill: #348abd"/>
   </g>
   <g id="PolyCollection_3">
    <path d="M 45.716875 491.336848 
L 45.716875 567.74175 
L 63.773755 567.74175 
L 81.830635 567.74175 
L 99.887515 567.74175 
L 117.944395 567.74175 
L 136.001275 567.74175 
L 154.058155 567.74175 
L 172.115035 567.74175 
L 190.171915 567.74175 
L 208.228795 567.74175 
L 226.285675 567.74175 
L 244.342555 567.74175 
L 262.399435 567.74175 
L 280.456315 567.74175 
L 298.513195 567.74175 
L 316.570075 567.74175 
L 370.740715 567.740847 
L 388.797595 567.691344 
L 406.854475 551.476737 
L 424.911355 531.883623 
L 442.968235 520.027447 
L 461.025115 515.754177 
L 479.081995 510.088456 
L 497.138875 507.003447 
L 515.195755 502.929299 
L 533.252635 499.815571 
L 551.309515 495.105532 
L 569.366395 489.392457 
L 587.423275 483.55724 
L 605.480155 481.346148 
L 623.537035 481.57378 
L 641.593915 475.542925 
L 659.650795 471.107154 
L 677.707675 471.431699 
L 695.764555 466.973253 
L 713.821435 464.682387 
L 731.878315 460.656441 
L 749.935195 462.966253 
L 767.992075 458.16729 
L 786.048955 454.001737 
L 804.105835 449.152934 
L 822.162715 447.226551 
L 840.219595 441.512668 
L 858.276475 437.876948 
L 876.333355 436.265469 
L 894.390235 434.348196 
L 912.447115 434.208139 
L 930.503995 431.747216 
L 948.560875 433.159751 
L 948.560875 404.262575 
L 948.560875 404.262575 
L 930.503995 402.800114 
L 912.447115 404.574456 
L 894.390235 403.806148 
L 876.333355 404.613669 
L 858.276475 405.249063 
L 840.219595 408.512603 
L 822.162715 413.66903 
L 804.105835 415.17271 
L 786.048955 418.928784 
L 767.992075 422.219103 
L 749.935195 425.484695 
L 731.878315 418.025341 
L 713.821435 423.344427 
L 695.764555 423.567902 
L 677.707675 427.781611 
L 659.650795 423.871822 
L 641.593915 426.212316 
L 623.537035 430.969758 
L 605.480155 427.005233 
L 587.423275 427.285491 
L 569.366395 430.416273 
L 551.309515 432.074333 
L 533.252635 437.479775 
L 515.195755 439.910977 
L 497.138875 442.166298 
L 479.081995 439.915502 
L 461.025115 443.524714 
L 442.968235 442.112751 
L 424.911355 443.579852 
L 406.854475 450.890492 
L 388.797595 453.5229 
L 370.740715 457.275529 
L 316.570075 462.386628 
L 298.513195 461.690014 
L 280.456315 461.602627 
L 262.399435 461.544071 
L 244.342555 466.831879 
L 226.285675 471.784475 
L 208.228795 468.845923 
L 190.171915 470.577928 
L 172.115035 472.51004 
L 154.058155 474.567926 
L 136.001275 474.003882 
L 117.944395 477.523231 
L 99.887515 485.40474 
L 81.830635 487.235975 
L 63.773755 489.057723 
L 45.716875 491.336848 
z
" clip-path="url(#pd5b6a0cf8d)" style="fill: #988ed5"/>
   </g>
   <g id="PolyCollection_4">
    <path d="M 45.716875 440.688342 
L 45.716875 491.336848 
L 63.773755 489.057723 
L 81.830635 487.235975 
L 99.887515 485.40474 
L 117.944395 477.523231 
L 136.001275 474.003882 
L 154.058155 474.567926 
L 172.115035 472.51004 
L 190.171915 470.577928 
L 208.228795 468.845923 
L 226.285675 471.784475 
L 244.342555 466.831879 
L 262.399435 461.544071 
L 280.456315 461.602627 
L 298.513195 461.690014 
L 316.570075 462.386628 
L 370.740715 457.275529 
L 388.797595 453.5229 
L 406.854475 450.890492 
L 424.911355 443.579852 
L 442.968235 442.112751 
L 461.025115 443.524714 
L 479.081995 439.915502 
L 497.138875 442.166298 
L 515.195755 439.910977 
L 533.252635 437.479775 
L 551.309515 432.074333 
L 569.366395 430.416273 
L 587.423275 427.285491 
L 605.480155 427.005233 
L 623.537035 430.969758 
L 641.593915 426.212316 
L 659.650795 423.871822 
L 677.707675 427.781611 
L 695.764555 423.567902 
L 713.821435 423.344427 
L 731.878315 418.025341 
L 749.935195 425.484695 
L 767.992075 422.219103 
L 786.048955 418.928784 
L 804.105835 415.17271 
L 822.162715 413.66903 
L 840.219595 408.512603 
L 858.276475 405.249063 
L 876.333355 404.613669 
L 894.390235 403.806148 
L 912.447115 404.574456 
L 930.503995 402.800114 
L 948.560875 404.262575 
L 948.560875 392.012712 
L 948.560875 392.012712 
L 930.503995 389.97031 
L 912.447115 391.58139 
L 894.390235 390.278409 
L 876.333355 390.67906 
L 858.276475 390.920239 
L 840.219595 394.029099 
L 822.162715 398.808681 
L 804.105835 400.619757 
L 786.048955 404.130132 
L 767.992075 407.404002 
L 749.935195 410.829321 
L 731.878315 402.365445 
L 713.821435 407.678163 
L 695.764555 407.04478 
L 677.707675 411.441279 
L 659.650795 406.491108 
L 641.593915 408.33621 
L 623.537035 412.716226 
L 605.480155 407.654155 
L 587.423275 407.757766 
L 569.366395 410.525868 
L 551.309515 411.81956 
L 533.252635 416.499769 
L 515.195755 418.183565 
L 497.138875 419.631822 
L 479.081995 417.243689 
L 461.025115 420.716394 
L 442.968235 418.623461 
L 424.911355 419.829476 
L 406.854475 426.827456 
L 388.797595 426.33903 
L 370.740715 427.873385 
L 316.570075 430.898494 
L 298.513195 429.655076 
L 280.456315 428.693246 
L 262.399435 427.566603 
L 244.342555 432.620367 
L 226.285675 435.836842 
L 208.228795 430.834888 
L 190.171915 431.167802 
L 172.115035 432.325531 
L 154.058155 434.303901 
L 136.001275 432.724057 
L 117.944395 435.998028 
L 99.887515 442.109079 
L 81.830635 439.722069 
L 63.773755 439.950322 
L 45.716875 440.688342 
z
" clip-path="url(#pd5b6a0cf8d)" style="fill: #777777"/>
   </g>
   <g id="PolyCollection_5">
    <path d="M 45.716875 430.726336 
L 45.716875 440.688342 
L 63.773755 439.950322 
L 81.830635 439.722069 
L 99.887515 442.109079 
L 117.944395 435.998028 
L 136.001275 432.724057 
L 154.058155 434.303901 
L 172.115035 432.325531 
L 190.171915 431.167802 
L 208.228795 430.834888 
L 226.285675 435.836842 
L 244.342555 432.620367 
L 262.399435 427.566603 
L 280.456315 428.693246 
L 298.513195 429.655076 
L 316.570075 430.898494 
L 370.740715 427.873385 
L 388.797595 426.33903 
L 406.854475 426.827456 
L 424.911355 419.829476 
L 442.968235 418.623461 
L 461.025115 420.716394 
L 479.081995 417.243689 
L 497.138875 419.631822 
L 515.195755 418.183565 
L 533.252635 416.499769 
L 551.309515 411.81956 
L 569.366395 410.525868 
L 587.423275 407.757766 
L 605.480155 407.654155 
L 623.537035 412.716226 
L 641.593915 408.33621 
L 659.650795 406.491108 
L 677.707675 411.441279 
L 695.764555 407.04478 
L 713.821435 407.678163 
L 731.878315 402.365445 
L 749.935195 410.829321 
L 767.992075 407.404002 
L 786.048955 404.130132 
L 804.105835 400.619757 
L 822.162715 398.808681 
L 840.219595 394.029099 
L 858.276475 390.920239 
L 876.333355 390.67906 
L 894.390235 390.278409 
L 912.447115 391.58139 
L 930.503995 389.97031 
L 948.560875 392.012712 
L 948.560875 388.704553 
L 948.560875 388.704553 
L 930.503995 386.492335 
L 912.447115 388.032999 
L 894.390235 386.669659 
L 876.333355 386.930412 
L 858.276475 387.066238 
L 840.219595 390.144909 
L 822.162715 394.917901 
L 804.105835 396.688612 
L 786.048955 400.169937 
L 767.992075 403.325044 
L 749.935195 406.731934 
L 731.878315 398.065297 
L 713.821435 403.443503 
L 695.764555 402.620301 
L 677.707675 407.054909 
L 659.650795 401.840848 
L 641.593915 403.598539 
L 623.537035 407.97301 
L 605.480155 402.574764 
L 587.423275 402.642109 
L 569.366395 405.371233 
L 551.309515 406.528146 
L 533.252635 411.04647 
L 515.195755 412.551752 
L 497.138875 413.851199 
L 479.081995 411.430259 
L 461.025115 414.925417 
L 442.968235 412.662699 
L 424.911355 413.8227 
L 406.854475 420.806079 
L 388.797595 420.068405 
L 370.740715 421.449437 
L 316.570075 423.752707 
L 298.513195 422.48345 
L 280.456315 421.342337 
L 262.399435 420.018318 
L 244.342555 425.025998 
L 226.285675 427.955118 
L 208.228795 422.843115 
L 190.171915 422.982122 
L 172.115035 424.033536 
L 154.058155 425.976546 
L 136.001275 424.215571 
L 117.944395 427.216556 
L 99.887515 433.126462 
L 81.830635 430.375974 
L 63.773755 430.343226 
L 45.716875 430.726336 
z
" clip-path="url(#pd5b6a0cf8d)" style="fill: #fbc15e"/>
   </g>
   <g id="PolyCollection_6">
    <path d="M 45.716875 430.726336 
L 45.716875 430.726336 
L 63.773755 430.343226 
L 81.830635 430.375974 
L 99.887515 433.126462 
L 117.944395 427.216556 
L 136.001275 424.215571 
L 154.058155 425.976546 
L 172.115035 424.033536 
L 190.171915 422.982122 
L 208.228795 422.843115 
L 226.285675 427.955118 
L 244.342555 425.025998 
L 262.399435 420.018318 
L 280.456315 421.342337 
L 298.513195 422.48345 
L 316.570075 423.752707 
L 370.740715 421.449437 
L 388.797595 420.068405 
L 406.854475 420.806079 
L 424.911355 413.8227 
L 442.968235 412.662699 
L 461.025115 414.925417 
L 479.081995 411.430259 
L 497.138875 413.851199 
L 515.195755 412.551752 
L 533.252635 411.04647 
L 551.309515 406.528146 
L 569.366395 405.371233 
L 587.423275 402.642109 
L 605.480155 402.574764 
L 623.537035 407.97301 
L 641.593915 403.598539 
L 659.650795 401.840848 
L 677.707675 407.054909 
L 695.764555 402.620301 
L 713.821435 403.443503 
L 731.878315 398.065297 
L 749.935195 406.731934 
L 767.992075 403.325044 
L 786.048955 400.169937 
L 804.105835 396.688612 
L 822.162715 394.917901 
L 840.219595 390.144909 
L 858.276475 387.066238 
L 876.333355 386.930412 
L 894.390235 386.669659 
L 912.447115 388.032999 
L 930.503995 386.492335 
L 948.560875 388.704553 
L 948.560875 325.345961 
L 948.560875 325.345961 
L 930.503995 325.939163 
L 912.447115 347.942985 
L 894.390235 380.972287 
L 876.333355 386.929532 
L 858.276475 387.066238 
L 840.219595 390.144909 
L 822.162715 394.917901 
L 804.105835 396.688092 
L 786.048955 400.168622 
L 767.992075 403.324912 
L 749.935195 406.731934 
L 731.878315 398.065297 
L 713.821435 403.443503 
L 695.764555 402.620301 
L 677.707675 407.054909 
L 659.650795 401.840848 
L 641.593915 403.598539 
L 623.537035 407.97301 
L 605.480155 402.574764 
L 587.423275 402.642109 
L 569.366395 405.371233 
L 551.309515 406.528146 
L 533.252635 411.04647 
L 515.195755 412.551752 
L 497.138875 413.851199 
L 479.081995 411.430259 
L 461.025115 414.925417 
L 442.968235 412.662699 
L 424.911355 413.8227 
L 406.854475 420.806079 
L 388.797595 420.068405 
L 370.740715 421.449437 
L 316.570075 423.752707 
L 298.513195 422.48345 
L 280.456315 421.342337 
L 262.399435 420.018318 
L 244.342555 425.025998 
L 226.285675 427.955118 
L 208.228795 422.843115 
L 190.171915 422.982122 
L 172.115035 424.033536 
L 154.058155 425.976546 
L 136.001275 424.215571 
L 117.944395 427.216556 
L 99.887515 433.126462 
L 81.830635 430.375974 
L 63.773755 430.343226 
L 45.716875 430.726336 
z
" clip-path="url(#pd5b6a0cf8d)" style="fill: #8eba42"/>
   </g>
   <g id="PolyCollection_7">
    <path d="M 45.716875 430.726336 
L 45.716875 430.726336 
L 63.773755 430.343226 
L 81.830635 430.375974 
L 99.887515 433.126462 
L 117.944395 427.216556 
L 136.001275 424.215571 
L 154.058155 425.976546 
L 172.115035 424.033536 
L 190.171915 422.982122 
L 208.228795 422.843115 
L 226.285675 427.955118 
L 244.342555 425.025998 
L 262.399435 420.018318 
L 280.456315 421.342337 
L 298.513195 422.48345 
L 316.570075 423.752707 
L 370.740715 421.449437 
L 388.797595 420.068405 
L 406.854475 420.806079 
L 424.911355 413.8227 
L 442.968235 412.662699 
L 461.025115 414.925417 
L 479.081995 411.430259 
L 497.138875 413.851199 
L 515.195755 412.551752 
L 533.252635 411.04647 
L 551.309515 406.528146 
L 569.366395 405.371233 
L 587.423275 402.642109 
L 605.480155 402.574764 
L 623.537035 407.97301 
L 641.593915 403.598539 
L 659.650795 401.840848 
L 677.707675 407.054909 
L 695.764555 402.620301 
L 713.821435 403.443503 
L 731.878315 398.065297 
L 749.935195 406.731934 
L 767.992075 403.324912 
L 786.048955 400.168622 
L 804.105835 396.688092 
L 822.162715 394.917901 
L 840.219595 390.144909 
L 858.276475 387.066238 
L 876.333355 386.929532 
L 894.390235 380.972287 
L 912.447115 347.942985 
L 930.503995 325.939163 
L 948.560875 325.345961 
L 948.560875 220.845679 
L 948.560875 220.845679 
L 930.503995 217.433449 
L 912.447115 225.676123 
L 894.390235 226.162855 
L 876.333355 227.006535 
L 858.276475 230.192643 
L 840.219595 234.704829 
L 822.162715 233.785823 
L 804.105835 235.167735 
L 786.048955 243.794829 
L 767.992075 246.479419 
L 749.935195 248.375102 
L 731.878315 249.769326 
L 713.821435 258.778083 
L 695.764555 257.304589 
L 677.707675 250.558623 
L 659.650795 264.844579 
L 641.593915 267.459031 
L 623.537035 282.138563 
L 605.480155 281.946441 
L 587.423275 285.637592 
L 569.366395 294.994616 
L 551.309515 301.007442 
L 533.252635 304.022286 
L 515.195755 312.071327 
L 497.138875 320.434148 
L 479.081995 324.072005 
L 461.025115 331.906873 
L 442.968235 342.069456 
L 424.911355 361.025625 
L 406.854475 402.928981 
L 388.797595 420.06698 
L 370.740715 421.449437 
L 316.570075 423.752707 
L 298.513195 422.482866 
L 280.456315 421.341743 
L 262.399435 420.018318 
L 244.342555 425.025798 
L 226.285675 427.955118 
L 208.228795 422.843115 
L 190.171915 422.982122 
L 172.115035 424.033536 
L 154.058155 425.976546 
L 136.001275 424.215571 
L 117.944395 427.216556 
L 99.887515 433.126462 
L 81.830635 430.375514 
L 63.773755 430.343226 
L 45.716875 430.726336 
z
" clip-path="url(#pd5b6a0cf8d)" style="fill: #ffb5b8"/>
   </g>
   <g id="PolyCollection_8">
    <path d="M 45.716875 289.753445 
L 45.716875 430.726336 
L 63.773755 430.343226 
L 81.830635 430.375514 
L 99.887515 433.126462 
L 117.944395 427.216556 
L 136.001275 424.215571 
L 154.058155 425.976546 
L 172.115035 424.033536 
L 190.171915 422.982122 
L 208.228795 422.843115 
L 226.285675 427.955118 
L 244.342555 425.025798 
L 262.399435 420.018318 
L 280.456315 421.341743 
L 298.513195 422.482866 
L 316.570075 423.752707 
L 370.740715 421.449437 
L 388.797595 420.06698 
L 406.854475 402.928981 
L 424.911355 361.025625 
L 442.968235 342.069456 
L 461.025115 331.906873 
L 479.081995 324.072005 
L 497.138875 320.434148 
L 515.195755 312.071327 
L 533.252635 304.022286 
L 551.309515 301.007442 
L 569.366395 294.994616 
L 587.423275 285.637592 
L 605.480155 281.946441 
L 623.537035 282.138563 
L 641.593915 267.459031 
L 659.650795 264.844579 
L 677.707675 250.558623 
L 695.764555 257.304589 
L 713.821435 258.778083 
L 731.878315 249.769326 
L 749.935195 248.375102 
L 767.992075 246.479419 
L 786.048955 243.794829 
L 804.105835 235.167735 
L 822.162715 233.785823 
L 840.219595 234.704829 
L 858.276475 230.192643 
L 876.333355 227.006535 
L 894.390235 226.162855 
L 912.447115 225.676123 
L 930.503995 217.433449 
L 948.560875 220.845679 
L 948.560875 168.108817 
L 948.560875 168.108817 
L 930.503995 161.302415 
L 912.447115 166.333536 
L 894.390235 166.015763 
L 876.333355 164.976573 
L 858.276475 168.535693 
L 840.219595 175.961026 
L 822.162715 176.691681 
L 804.105835 175.213223 
L 786.048955 185.282917 
L 767.992075 189.034276 
L 749.935195 190.562166 
L 731.878315 188.849719 
L 713.821435 195.698618 
L 695.764555 192.055202 
L 677.707675 184.421739 
L 659.650795 193.240241 
L 641.593915 190.330679 
L 623.537035 197.099539 
L 605.480155 193.662863 
L 587.423275 193.720778 
L 569.366395 196.912404 
L 551.309515 203.107637 
L 533.252635 198.624378 
L 515.195755 197.521955 
L 497.138875 197.97686 
L 479.081995 199.582083 
L 461.025115 207.163614 
L 442.968235 210.032036 
L 424.911355 216.449279 
L 406.854475 225.185999 
L 388.797595 224.955179 
L 370.740715 226.377489 
L 316.570075 226.170548 
L 298.513195 224.86973 
L 280.456315 224.205242 
L 262.399435 226.332757 
L 244.342555 235.331173 
L 226.285675 238.323679 
L 208.228795 241.216142 
L 190.171915 247.191988 
L 172.115035 249.30529 
L 154.058155 252.695819 
L 136.001275 257.678259 
L 117.944395 262.547507 
L 99.887515 266.892424 
L 81.830635 275.938097 
L 63.773755 282.883057 
L 45.716875 289.753445 
z
" clip-path="url(#pd5b6a0cf8d)" style="fill: #e24a33"/>
   </g>
   <g id="PolyCollection_9">
    <path d="M 45.716875 172.144183 
L 45.716875 289.753445 
L 63.773755 282.883057 
L 81.830635 275.938097 
L 99.887515 266.892424 
L 117.944395 262.547507 
L 136.001275 257.678259 
L 154.058155 252.695819 
L 172.115035 249.30529 
L 190.171915 247.191988 
L 208.228795 241.216142 
L 226.285675 238.323679 
L 244.342555 235.331173 
L 262.399435 226.332757 
L 280.456315 224.205242 
L 298.513195 224.86973 
L 316.570075 226.170548 
L 370.740715 226.377489 
L 388.797595 224.955179 
L 406.854475 225.185999 
L 424.911355 216.449279 
L 442.968235 210.032036 
L 461.025115 207.163614 
L 479.081995 199.582083 
L 497.138875 197.97686 
L 515.195755 197.521955 
L 533.252635 198.624378 
L 551.309515 203.107637 
L 569.366395 196.912404 
L 587.423275 193.720778 
L 605.480155 193.662863 
L 623.537035 197.099539 
L 641.593915 190.330679 
L 659.650795 193.240241 
L 677.707675 184.421739 
L 695.764555 192.055202 
L 713.821435 195.698618 
L 731.878315 188.849719 
L 749.935195 190.562166 
L 767.992075 189.034276 
L 786.048955 185.282917 
L 804.105835 175.213223 
L 822.162715 176.691681 
L 840.219595 175.961026 
L 858.276475 168.535693 
L 876.333355 164.976573 
L 894.390235 166.015763 
L 912.447115 166.333536 
L 930.503995 161.302415 
L 948.560875 168.108817 
L 948.560875 127.430064 
L 948.560875 127.430064 
L 930.503995 118.884443 
L 912.447115 124.00038 
L 894.390235 123.574393 
L 876.333355 120.199542 
L 858.276475 123.648905 
L 840.219595 132.74045 
L 822.162715 133.306251 
L 804.105835 131.671774 
L 786.048955 140.381546 
L 767.992075 146.151979 
L 749.935195 146.070713 
L 731.878315 141.323849 
L 713.821435 150.982331 
L 695.764555 149.36517 
L 677.707675 142.042347 
L 659.650795 147.83918 
L 641.593915 144.010455 
L 623.537035 150.969706 
L 605.480155 145.670675 
L 587.423275 145.659674 
L 569.366395 148.52993 
L 551.309515 153.757132 
L 533.252635 147.869755 
L 515.195755 145.146338 
L 497.138875 144.291376 
L 479.081995 145.348633 
L 461.025115 151.737569 
L 442.968235 153.51916 
L 424.911355 159.184517 
L 406.854475 166.870568 
L 388.797595 164.004226 
L 370.740715 163.584759 
L 316.570075 156.544554 
L 298.513195 152.707155 
L 280.456315 148.746516 
L 262.399435 148.784943 
L 244.342555 156.7388 
L 226.285675 156.451774 
L 208.228795 158.014916 
L 190.171915 160.234542 
L 172.115035 160.106118 
L 154.058155 161.311174 
L 136.001275 163.273503 
L 117.944395 164.393631 
L 99.887515 165.078409 
L 81.830635 167.76248 
L 63.773755 169.210312 
L 45.716875 172.144183 
z
" clip-path="url(#pd5b6a0cf8d)" style="fill: #348abd"/>
   </g>
   <g id="PolyCollection_10">
    <path d="M 45.716875 92.272671 
L 45.716875 172.144183 
L 63.773755 169.210312 
L 81.830635 167.76248 
L 99.887515 165.078409 
L 117.944395 164.393631 
L 136.001275 163.273503 
L 154.058155 161.311174 
L 172.115035 160.106118 
L 190.171915 160.234542 
L 208.228795 158.014916 
L 226.285675 156.451774 
L 244.342555 156.7388 
L 262.399435 148.784943 
L 280.456315 148.746516 
L 298.513195 152.707155 
L 316.570075 156.544554 
L 370.740715 163.584759 
L 388.797595 164.004226 
L 406.854475 166.870568 
L 424.911355 159.184517 
L 442.968235 153.51916 
L 461.025115 151.737569 
L 479.081995 145.348633 
L 497.138875 144.291376 
L 515.195755 145.146338 
L 533.252635 147.869755 
L 551.309515 153.757132 
L 569.366395 148.52993 
L 587.423275 145.659674 
L 605.480155 145.670675 
L 623.537035 150.969706 
L 641.593915 144.010455 
L 659.650795 147.83918 
L 677.707675 142.042347 
L 695.764555 149.36517 
L 713.821435 150.982331 
L 731.878315 141.323849 
L 749.935195 146.070713 
L 767.992075 146.151979 
L 786.048955 140.381546 
L 804.105835 131.671774 
L 822.162715 133.306251 
L 840.219595 132.74045 
L 858.276475 123.648905 
L 876.333355 120.199542 
L 894.390235 123.574393 
L 912.447115 124.00038 
L 930.503995 118.884443 
L 948.560875 127.430064 
L 948.560875 50.059307 
L 948.560875 50.059307 
L 930.503995 51.288022 
L 912.447115 51.77288 
L 894.390235 52.485387 
L 876.333355 53.375654 
L 858.276475 53.965269 
L 840.219595 54.564897 
L 822.162715 54.811111 
L 804.105835 55.005608 
L 786.048955 55.665693 
L 767.992075 55.8431 
L 749.935195 55.746191 
L 731.878315 57.88198 
L 713.821435 57.29984 
L 695.764555 58.560617 
L 677.707675 58.407049 
L 659.650795 60.616772 
L 641.593915 61.312302 
L 623.537035 61.603458 
L 605.480155 63.504978 
L 587.423275 64.018209 
L 569.366395 64.991612 
L 551.309515 65.099048 
L 533.252635 64.963891 
L 515.195755 64.544394 
L 497.138875 65.94818 
L 479.081995 65.358965 
L 461.025115 65.60919 
L 442.968235 67.377202 
L 424.911355 69.066655 
L 406.854475 69.09778 
L 388.797595 70.947801 
L 370.740715 71.762452 
L 316.570075 75.490521 
L 298.513195 76.315206 
L 280.456315 77.042546 
L 262.399435 77.704122 
L 244.342555 77.544036 
L 226.285675 80.235435 
L 208.228795 81.404987 
L 190.171915 83.011961 
L 172.115035 83.460714 
L 154.058155 84.154016 
L 136.001275 85.199024 
L 117.944395 86.269242 
L 99.887515 87.68548 
L 81.830635 89.827969 
L 63.773755 90.602237 
L 45.716875 92.272671 
z
" clip-path="url(#pd5b6a0cf8d)" style="fill: #988ed5"/>
   </g>
   <g id="PolyCollection_11">
    <path d="M 45.716875 35.45033 
L 45.716875 92.272671 
L 63.773755 90.602237 
L 81.830635 89.827969 
L 99.887515 87.68548 
L 117.944395 86.269242 
L 136.001275 85.199024 
L 154.058155 84.154016 
L 172.115035 83.460714 
L 190.171915 83.011961 
L 208.228795 81.404987 
L 226.285675 80.235435 
L 244.342555 77.544036 
L 262.399435 77.704122 
L 280.456315 77.042546 
L 298.513195 76.315206 
L 316.570075 75.490521 
L 370.740715 71.762452 
L 388.797595 70.947801 
L 406.854475 69.09778 
L 424.911355 69.066655 
L 442.968235 67.377202 
L 461.025115 65.60919 
L 479.081995 65.358965 
L 497.138875 65.94818 
L 515.195755 64.544394 
L 533.252635 64.963891 
L 551.309515 65.099048 
L 569.366395 64.991612 
L 587.423275 64.018209 
L 605.480155 63.504978 
L 623.537035 61.603458 
L 641.593915 61.312302 
L 659.650795 60.616772 
L 677.707675 58.407049 
L 695.764555 58.560617 
L 713.821435 57.29984 
L 731.878315 57.88198 
L 749.935195 55.746191 
L 767.992075 55.8431 
L 786.048955 55.665693 
L 804.105835 55.005608 
L 822.162715 54.811111 
L 840.219595 54.564897 
L 858.276475 53.965269 
L 876.333355 53.375654 
L 894.390235 52.485387 
L 912.447115 51.77288 
L 930.503995 51.288022 
L 948.560875 50.059307 
L 948.560875 28.493226 
L 948.560875 28.493226 
L 930.503995 28.667747 
L 912.447115 28.840916 
L 894.390235 28.956425 
L 876.333355 29.07775 
L 858.276475 29.195234 
L 840.219595 29.336596 
L 822.162715 29.305862 
L 804.105835 29.375366 
L 786.048955 29.438079 
L 767.992075 29.474534 
L 749.935195 29.518567 
L 731.878315 29.90429 
L 713.821435 29.779526 
L 695.764555 29.975301 
L 677.707675 29.987674 
L 659.650795 30.447471 
L 641.593915 30.51714 
L 623.537035 30.611015 
L 605.480155 30.894018 
L 587.423275 31.011094 
L 569.366395 31.090037 
L 551.309515 30.854402 
L 533.252635 31.030553 
L 515.195755 31.290955 
L 497.138875 31.645174 
L 479.081995 31.616121 
L 461.025115 31.719367 
L 442.968235 31.862168 
L 424.911355 31.879746 
L 406.854475 31.836425 
L 388.797595 32.28049 
L 370.740715 32.421258 
L 316.570075 32.911899 
L 298.513195 32.923294 
L 280.456315 33.151014 
L 262.399435 33.265507 
L 244.342555 33.275121 
L 226.285675 33.592636 
L 208.228795 33.609312 
L 190.171915 33.835846 
L 172.115035 34.020471 
L 154.058155 34.00407 
L 136.001275 34.212969 
L 117.944395 34.432271 
L 99.887515 34.583188 
L 81.830635 35.003966 
L 63.773755 35.130675 
L 45.716875 35.45033 
z
" clip-path="url(#pd5b6a0cf8d)" style="fill: #777777"/>
   </g>
   <g id="PolyCollection_12">
    <path d="M 45.716875 24.202316 
L 45.716875 35.45033 
L 63.773755 35.130675 
L 81.830635 35.003966 
L 99.887515 34.583188 
L 117.944395 34.432271 
L 136.001275 34.212969 
L 154.058155 34.00407 
L 172.115035 34.020471 
L 190.171915 33.835846 
L 208.228795 33.609312 
L 226.285675 33.592636 
L 244.342555 33.275121 
L 262.399435 33.265507 
L 280.456315 33.151014 
L 298.513195 32.923294 
L 316.570075 32.911899 
L 370.740715 32.421258 
L 388.797595 32.28049 
L 406.854475 31.836425 
L 424.911355 31.879746 
L 442.968235 31.862168 
L 461.025115 31.719367 
L 479.081995 31.616121 
L 497.138875 31.645174 
L 515.195755 31.290955 
L 533.252635 31.030553 
L 551.309515 30.854402 
L 569.366395 31.090037 
L 587.423275 31.011094 
L 605.480155 30.894018 
L 623.537035 30.611015 
L 641.593915 30.51714 
L 659.650795 30.447471 
L 677.707675 29.987674 
L 695.764555 29.975301 
L 713.821435 29.779526 
L 731.878315 29.90429 
L 749.935195 29.518567 
L 767.992075 29.474534 
L 786.048955 29.438079 
L 804.105835 29.375366 
L 822.162715 29.305862 
L 840.219595 29.336596 
L 858.276475 29.195234 
L 876.333355 29.07775 
L 894.390235 28.956425 
L 912.447115 28.840916 
L 930.503995 28.667747 
L 948.560875 28.493226 
L 948.560875 24.14175 
L 948.560875 24.14175 
L 930.503995 24.143381 
L 912.447115 24.145739 
L 894.390235 24.145415 
L 876.333355 24.146456 
L 858.276475 24.146416 
L 840.219595 24.146962 
L 822.162715 24.143056 
L 804.105835 24.145182 
L 786.048955 24.149577 
L 767.992075 24.146043 
L 749.935195 24.145297 
L 731.878315 24.147513 
L 713.821435 24.148662 
L 695.764555 24.155225 
L 677.707675 24.157203 
L 659.650795 24.159283 
L 641.593915 24.160139 
L 623.537035 24.160411 
L 605.480155 24.161918 
L 587.423275 24.16012 
L 569.366395 24.161588 
L 551.309515 24.155275 
L 533.252635 24.157426 
L 515.195755 24.161389 
L 497.138875 24.158553 
L 479.081995 24.162652 
L 461.025115 24.165779 
L 442.968235 24.169414 
L 424.911355 24.177229 
L 406.854475 24.17617 
L 388.797595 24.177801 
L 370.740715 24.178356 
L 316.570075 24.186965 
L 298.513195 24.188299 
L 280.456315 24.189083 
L 262.399435 24.18672 
L 244.342555 24.182384 
L 226.285675 24.184712 
L 208.228795 24.186319 
L 190.171915 24.189905 
L 172.115035 24.193104 
L 154.058155 24.189091 
L 136.001275 24.190925 
L 117.944395 24.19164 
L 99.887515 24.198922 
L 81.830635 24.206451 
L 63.773755 24.199647 
L 45.716875 24.202316 
z
" clip-path="url(#pd5b6a0cf8d)" style="fill: #fbc15e"/>
   </g>
   <g id="patch_3">
    <path d="M 45.716875 567.74175 
L 45.716875 24.14175 
" style="fill: none; stroke: #ffffff; stroke-linejoin: miter; stroke-linecap: square"/>
   </g>
   <g id="patch_4">
    <path d="M 948.560875 567.74175 
L 948.560875 24.14175 
" style="fill: none; stroke: #ffffff; stroke-linejoin: miter; stroke-linecap: square"/>
   </g>
   <g id="patch_5">
    <path d="M 45.716875 567.74175 
L 948.560875 567.74175 
" style="fill: none; stroke: #ffffff; stroke-linejoin: miter; stroke-linecap: square"/>
   </g>
   <g id="patch_6">
    <path d="M 45.716875 24.14175 
L 948.560875 24.14175 
" style="fill: none; stroke: #ffffff; stroke-linejoin: miter; stroke-linecap: square"/>
   </g>
   <g id="text_19">
    <!-- Rocky Linux Instances by Version Share -->
    <g transform="translate(45.716875 18.14175)scale(0.144 -0.144)">
     <defs>
      <path id="DejaVuSans-52" d="M 2841 2188 
Q 3044 2119 3236 1894 
Q 3428 1669 3622 1275 
L 4263 0 
L 3584 0 
L 2988 1197 
Q 2756 1666 2539 1819 
Q 2322 1972 1947 1972 
L 1259 1972 
L 1259 0 
L 628 0 
L 628 4666 
L 2053 4666 
Q 2853 4666 3247 4331 
Q 3641 3997 3641 3322 
Q 3641 2881 3436 2590 
Q 3231 2300 2841 2188 
z
M 1259 4147 
L 1259 2491 
L 2053 2491 
Q 2509 2491 2742 2702 
Q 2975 2913 2975 3322 
Q 2975 3731 2742 3939 
Q 2509 4147 2053 4147 
L 1259 4147 
z
" transform="scale(0.015625)"/>
      <path id="DejaVuSans-6b" d="M 581 4863 
L 1159 4863 
L 1159 1991 
L 2875 3500 
L 3609 3500 
L 1753 1863 
L 3688 0 
L 2938 0 
L 1159 1709 
L 1159 0 
L 581 0 
L 581 4863 
z
" transform="scale(0.015625)"/>
      <path id="DejaVuSans-79" d="M 2059 -325 
Q 1816 -950 1584 -1140 
Q 1353 -1331 966 -1331 
L 506 -1331 
L 506 -850 
L 844 -850 
Q 1081 -850 1212 -737 
Q 1344 -625 1503 -206 
L 1606 56 
L 191 3500 
L 800 3500 
L 1894 763 
L 2988 3500 
L 3597 3500 
L 2059 -325 
z
" transform="scale(0.015625)"/>
      <path id="DejaVuSans-4c" d="M 628 4666 
L 1259 4666 
L 1259 531 
L 3531 531 
L 3531 0 
L 628 0 
L 628 4666 
z
" transform="scale(0.015625)"/>
      <path id="DejaVuSans-69" d="M 603 3500 
L 1178 3500 
L 1178 0 
L 603 0 
L 603 3500 
z
M 603 4863 
L 1178 4863 
L 1178 4134 
L 603 4134 
L 603 4863 
z
" transform="scale(0.015625)"/>
      <path id="DejaVuSans-75" d="M 544 1381 
L 544 3500 
L 1119 3500 
L 1119 1403 
Q 1119 906 1312 657 
Q 1506 409 1894 409 
Q 2359 409 2629 706 
Q 2900 1003 2900 1516 
L 2900 3500 
L 3475 3500 
L 3475 0 
L 2900 0 
L 2900 538 
Q 2691 219 2414 64 
Q 2138 -91 1772 -91 
Q 1169 -91 856 284 
Q 544 659 544 1381 
z
M 1991 3584 
L 1991 3584 
z
" transform="scale(0.015625)"/>
      <path id="DejaVuSans-78" d="M 3513 3500 
L 2247 1797 
L 3578 0 
L 2900 0 
L 1881 1375 
L 863 0 
L 184 0 
L 1544 1831 
L 300 3500 
L 978 3500 
L 1906 2253 
L 2834 3500 
L 3513 3500 
z
" transform="scale(0.015625)"/>
      <path id="DejaVuSans-62" d="M 3116 1747 
Q 3116 2381 2855 2742 
Q 2594 3103 2138 3103 
Q 1681 3103 1420 2742 
Q 1159 2381 1159 1747 
Q 1159 1113 1420 752 
Q 1681 391 2138 391 
Q 2594 391 2855 752 
Q 3116 1113 3116 1747 
z
M 1159 2969 
Q 1341 3281 1617 3432 
Q 1894 3584 2278 3584 
Q 2916 3584 3314 3078 
Q 3713 2572 3713 1747 
Q 3713 922 3314 415 
Q 2916 -91 2278 -91 
Q 1894 -91 1617 61 
Q 1341 213 1159 525 
L 1159 0 
L 581 0 
L 581 4863 
L 1159 4863 
L 1159 2969 
z
" transform="scale(0.015625)"/>
      <path id="DejaVuSans-56" d="M 1831 0 
L 50 4666 
L 709 4666 
L 2188 738 
L 3669 4666 
L 4325 4666 
L 2547 0 
L 1831 0 
z
" transform="scale(0.015625)"/>
     </defs>
     <use xlink:href="#DejaVuSans-52"/>
     <use xlink:href="#DejaVuSans-6f" x="64.982422"/>
     <use xlink:href="#DejaVuSans-63" x="126.164062"/>
     <use xlink:href="#DejaVuSans-6b" x="181.144531"/>
     <use xlink:href="#DejaVuSans-79" x="235.429688"/>
     <use xlink:href="#DejaVuSans-20" x="294.609375"/>
     <use xlink:href="#DejaVuSans-4c" x="326.396484"/>
     <use xlink:href="#DejaVuSans-69" x="382.109375"/>
     <use xlink:href="#DejaVuSans-6e" x="409.892578"/>
     <use xlink:href="#DejaVuSans-75" x="473.271484"/>
     <use xlink:href="#DejaVuSans-78" x="536.650391"/>
     <use xlink:href="#DejaVuSans-20" x="595.830078"/>
     <use xlink:href="#DejaVuSans-49" x="627.617188"/>
     <use xlink:href="#DejaVuSans-6e" x="657.109375"/>
     <use xlink:href="#DejaVuSans-73" x="720.488281"/>
     <use xlink:href="#DejaVuSans-74" x="772.587891"/>
     <use xlink:href="#DejaVuSans-61" x="811.796875"/>
     <use xlink:href="#DejaVuSans-6e" x="873.076172"/>
     <use xlink:href="#DejaVuSans-63" x="936.455078"/>
     <use xlink:href="#DejaVuSans-65" x="991.435547"/>
     <use xlink:href="#DejaVuSans-73" x="1052.958984"/>
     <use xlink:href="#DejaVuSans-20" x="1105.058594"/>
     <use xlink:href="#DejaVuSans-62" x="1136.845703"/>
     <use xlink:href="#DejaVuSans-79" x="1200.322266"/>
     <use xlink:href="#DejaVuSans-20" x="1259.501953"/>
     <use xlink:href="#DejaVuSans-56" x="1291.289062"/>
     <use xlink:href="#DejaVuSans-65" x="1351.947266"/>
     <use xlink:href="#DejaVuSans-72" x="1413.470703"/>
     <use xlink:href="#DejaVuSans-73" x="1454.583984"/>
     <use xlink:href="#DejaVuSans-69" x="1506.683594"/>
     <use xlink:href="#DejaVuSans-6f" x="1534.466797"/>
     <use xlink:href="#DejaVuSans-6e" x="1595.648438"/>
     <use xlink:href="#DejaVuSans-20" x="1659.027344"/>
     <use xlink:href="#DejaVuSans-53" x="1690.814453"/>
     <use xlink:href="#DejaVuSans-68" x="1754.291016"/>
     <use xlink:href="#DejaVuSans-61" x="1817.669922"/>
     <use xlink:href="#DejaVuSans-72" x="1878.949219"/>
     <use xlink:href="#DejaVuSans-65" x="1917.8125"/>
    </g>
   </g>
   <g id="text_20">
    <!-- 2024-07-04 11:55 UTC -->
    <g transform="translate(785.678875 18.14175)scale(0.144 -0.144)">
     <defs>
      <path id="DejaVuSans-3a" d="M 750 794 
L 1409 794 
L 1409 0 
L 750 0 
L 750 794 
z
M 750 3309 
L 1409 3309 
L 1409 2516 
L 750 2516 
L 750 3309 
z
" transform="scale(0.015625)"/>
      <path id="DejaVuSans-55" d="M 556 4666 
L 1191 4666 
L 1191 1831 
Q 1191 1081 1462 751 
Q 1734 422 2344 422 
Q 2950 422 3222 751 
Q 3494 1081 3494 1831 
L 3494 4666 
L 4128 4666 
L 4128 1753 
Q 4128 841 3676 375 
Q 3225 -91 2344 -91 
Q 1459 -91 1007 375 
Q 556 841 556 1753 
L 556 4666 
z
" transform="scale(0.015625)"/>
      <path id="DejaVuSans-54" d="M -19 4666 
L 3928 4666 
L 3928 4134 
L 2272 4134 
L 2272 0 
L 1638 0 
L 1638 4134 
L -19 4134 
L -19 4666 
z
" transform="scale(0.015625)"/>
      <path id="DejaVuSans-43" d="M 4122 4306 
L 4122 3641 
Q 3803 3938 3442 4084 
Q 3081 4231 2675 4231 
Q 1875 4231 1450 3742 
Q 1025 3253 1025 2328 
Q 1025 1406 1450 917 
Q 1875 428 2675 428 
Q 3081 428 3442 575 
Q 3803 722 4122 1019 
L 4122 359 
Q 3791 134 3420 21 
Q 3050 -91 2638 -91 
Q 1578 -91 968 557 
Q 359 1206 359 2328 
Q 359 3453 968 4101 
Q 1578 4750 2638 4750 
Q 3056 4750 3426 4639 
Q 3797 4528 4122 4306 
z
" transform="scale(0.015625)"/>
     </defs>
     <use xlink:href="#DejaVuSans-32"/>
     <use xlink:href="#DejaVuSans-30" x="63.623047"/>
     <use xlink:href="#DejaVuSans-32" x="127.246094"/>
     <use xlink:href="#DejaVuSans-34" x="190.869141"/>
     <use xlink:href="#DejaVuSans-2d" x="254.492188"/>
     <use xlink:href="#DejaVuSans-30" x="290.576172"/>
     <use xlink:href="#DejaVuSans-37" x="354.199219"/>
     <use xlink:href="#DejaVuSans-2d" x="417.822266"/>
     <use xlink:href="#DejaVuSans-30" x="453.90625"/>
     <use xlink:href="#DejaVuSans-34" x="517.529297"/>
     <use xlink:href="#DejaVuSans-20" x="581.152344"/>
     <use xlink:href="#DejaVuSans-31" x="612.939453"/>
     <use xlink:href="#DejaVuSans-31" x="676.5625"/>
     <use xlink:href="#DejaVuSans-3a" x="740.185547"/>
     <use xlink:href="#DejaVuSans-35" x="773.876953"/>
     <use xlink:href="#DejaVuSans-35" x="837.5"/>
     <use xlink:href="#DejaVuSans-20" x="901.123047"/>
     <use xlink:href="#DejaVuSans-55" x="932.910156"/>
     <use xlink:href="#DejaVuSans-54" x="1006.103516"/>
     <use xlink:href="#DejaVuSans-43" x="1061.3125"/>
    </g>
   </g>
   <g id="legend_1">
    <g id="patch_7">
     <path d="M 52.716875 222.957375 
L 106.9825 222.957375 
Q 108.9825 222.957375 108.9825 220.957375 
L 108.9825 31.14175 
Q 108.9825 29.14175 106.9825 29.14175 
L 52.716875 29.14175 
Q 50.716875 29.14175 50.716875 31.14175 
L 50.716875 220.957375 
Q 50.716875 222.957375 52.716875 222.957375 
z
" style="fill: #e5e5e5; opacity: 0.8; stroke: #cccccc; stroke-width: 0.5; stroke-linejoin: miter"/>
    </g>
    <g id="text_21">
     <!-- Version -->
     <g transform="translate(61.462969 40.740187)scale(0.1 -0.1)">
      <use xlink:href="#DejaVuSans-56"/>
      <use xlink:href="#DejaVuSans-65" x="60.658203"/>
      <use xlink:href="#DejaVuSans-72" x="122.181641"/>
      <use xlink:href="#DejaVuSans-73" x="163.294922"/>
      <use xlink:href="#DejaVuSans-69" x="215.394531"/>
      <use xlink:href="#DejaVuSans-6f" x="243.177734"/>
      <use xlink:href="#DejaVuSans-6e" x="304.359375"/>
     </g>
    </g>
    <g id="patch_8">
     <path d="M 54.716875 55.418312 
L 74.716875 55.418312 
L 74.716875 48.418312 
L 54.716875 48.418312 
z
" style="fill: #e24a33"/>
    </g>
    <g id="text_22">
     <!-- 9.4 -->
     <g transform="translate(82.716875 55.418312)scale(0.1 -0.1)">
      <use xlink:href="#DejaVuSans-39"/>
      <use xlink:href="#DejaVuSans-2e" x="63.623047"/>
      <use xlink:href="#DejaVuSans-34" x="95.410156"/>
     </g>
    </g>
    <g id="patch_9">
     <path d="M 54.716875 70.096437 
L 74.716875 70.096437 
L 74.716875 63.096437 
L 54.716875 63.096437 
z
" style="fill: #348abd"/>
    </g>
    <g id="text_23">
     <!-- 9.3 -->
     <g transform="translate(82.716875 70.096437)scale(0.1 -0.1)">
      <use xlink:href="#DejaVuSans-39"/>
      <use xlink:href="#DejaVuSans-2e" x="63.623047"/>
      <use xlink:href="#DejaVuSans-33" x="95.410156"/>
     </g>
    </g>
    <g id="patch_10">
     <path d="M 54.716875 84.774563 
L 74.716875 84.774563 
L 74.716875 77.774563 
L 54.716875 77.774563 
z
" style="fill: #988ed5"/>
    </g>
    <g id="text_24">
     <!-- 9.2 -->
     <g transform="translate(82.716875 84.774563)scale(0.1 -0.1)">
      <use xlink:href="#DejaVuSans-39"/>
      <use xlink:href="#DejaVuSans-2e" x="63.623047"/>
      <use xlink:href="#DejaVuSans-32" x="95.410156"/>
     </g>
    </g>
    <g id="patch_11">
     <path d="M 54.716875 99.452687 
L 74.716875 99.452687 
L 74.716875 92.452687 
L 54.716875 92.452687 
z
" style="fill: #777777"/>
    </g>
    <g id="text_25">
     <!-- 9.1 -->
     <g transform="translate(82.716875 99.452687)scale(0.1 -0.1)">
      <use xlink:href="#DejaVuSans-39"/>
      <use xlink:href="#DejaVuSans-2e" x="63.623047"/>
      <use xlink:href="#DejaVuSans-31" x="95.410156"/>
     </g>
    </g>
    <g id="patch_12">
     <path d="M 54.716875 114.130812 
L 74.716875 114.130812 
L 74.716875 107.130812 
L 54.716875 107.130812 
z
" style="fill: #fbc15e"/>
    </g>
    <g id="text_26">
     <!-- 9.0 -->
     <g transform="translate(82.716875 114.130812)scale(0.1 -0.1)">
      <use xlink:href="#DejaVuSans-39"/>
      <use xlink:href="#DejaVuSans-2e" x="63.623047"/>
      <use xlink:href="#DejaVuSans-30" x="95.410156"/>
     </g>
    </g>
    <g id="patch_13">
     <path d="M 54.716875 128.808937 
L 74.716875 128.808937 
L 74.716875 121.808937 
L 54.716875 121.808937 
z
" style="fill: #8eba42"/>
    </g>
    <g id="text_27">
     <!-- 8.10 -->
     <g transform="translate(82.716875 128.808937)scale(0.1 -0.1)">
      <use xlink:href="#DejaVuSans-38"/>
      <use xlink:href="#DejaVuSans-2e" x="63.623047"/>
      <use xlink:href="#DejaVuSans-31" x="95.410156"/>
      <use xlink:href="#DejaVuSans-30" x="159.033203"/>
     </g>
    </g>
    <g id="patch_14">
     <path d="M 54.716875 143.487062 
L 74.716875 143.487062 
L 74.716875 136.487062 
L 54.716875 136.487062 
z
" style="fill: #ffb5b8"/>
    </g>
    <g id="text_28">
     <!-- 8.9 -->
     <g transform="translate(82.716875 143.487062)scale(0.1 -0.1)">
      <use xlink:href="#DejaVuSans-38"/>
      <use xlink:href="#DejaVuSans-2e" x="63.623047"/>
      <use xlink:href="#DejaVuSans-39" x="95.410156"/>
     </g>
    </g>
    <g id="patch_15">
     <path d="M 54.716875 158.165187 
L 74.716875 158.165187 
L 74.716875 151.165187 
L 54.716875 151.165187 
z
" style="fill: #e24a33"/>
    </g>
    <g id="text_29">
     <!-- 8.8 -->
     <g transform="translate(82.716875 158.165187)scale(0.1 -0.1)">
      <use xlink:href="#DejaVuSans-38"/>
      <use xlink:href="#DejaVuSans-2e" x="63.623047"/>
      <use xlink:href="#DejaVuSans-38" x="95.410156"/>
     </g>
    </g>
    <g id="patch_16">
     <path d="M 54.716875 172.843312 
L 74.716875 172.843312 
L 74.716875 165.843312 
L 54.716875 165.843312 
z
" style="fill: #348abd"/>
    </g>
    <g id="text_30">
     <!-- 8.7 -->
     <g transform="translate(82.716875 172.843312)scale(0.1 -0.1)">
      <use xlink:href="#DejaVuSans-38"/>
      <use xlink:href="#DejaVuSans-2e" x="63.623047"/>
      <use xlink:href="#DejaVuSans-37" x="95.410156"/>
     </g>
    </g>
    <g id="patch_17">
     <path d="M 54.716875 187.521437 
L 74.716875 187.521437 
L 74.716875 180.521437 
L 54.716875 180.521437 
z
" style="fill: #988ed5"/>
    </g>
    <g id="text_31">
     <!-- 8.6 -->
     <g transform="translate(82.716875 187.521437)scale(0.1 -0.1)">
      <use xlink:href="#DejaVuSans-38"/>
      <use xlink:href="#DejaVuSans-2e" x="63.623047"/>
      <use xlink:href="#DejaVuSans-36" x="95.410156"/>
     </g>
    </g>
    <g id="patch_18">
     <path d="M 54.716875 202.199562 
L 74.716875 202.199562 
L 74.716875 195.199562 
L 54.716875 195.199562 
z
" style="fill: #777777"/>
    </g>
    <g id="text_32">
     <!-- 8.5 -->
     <g transform="translate(82.716875 202.199562)scale(0.1 -0.1)">
      <use xlink:href="#DejaVuSans-38"/>
      <use xlink:href="#DejaVuSans-2e" x="63.623047"/>
      <use xlink:href="#DejaVuSans-35" x="95.410156"/>
     </g>
    </g>
    <g id="patch_19">
     <path d="M 54.716875 216.877687 
L 74.716875 216.877687 
L 74.716875 209.877687 
L 54.716875 209.877687 
z
" style="fill: #fbc15e"/>
    </g>
    <g id="text_33">
     <!-- 8.4 -->
     <g transform="translate(82.716875 216.877687)scale(0.1 -0.1)">
      <use xlink:href="#DejaVuSans-38"/>
      <use xlink:href="#DejaVuSans-2e" x="63.623047"/>
      <use xlink:href="#DejaVuSans-34" x="95.410156"/>
     </g>
    </g>
   </g>
  </g>
 </g>
 <defs>
  <clipPath id="pd5b6a0cf8d">
   <rect x="45.716875" y="24.14175" width="902.844" height="543.6"/>
  </clipPath>
 </defs>
</svg>
