<?xml version="1.0" encoding="utf-8" standalone="no"?>
<!DOCTYPE svg PUBLIC "-//W3C//DTD SVG 1.1//EN"
  "http://www.w3.org/Graphics/SVG/1.1/DTD/svg11.dtd">
<svg xmlns:xlink="http://www.w3.org/1999/xlink" width="955.760875pt" height="633.943878pt" viewBox="0 0 955.760875 633.943878" xmlns="http://www.w3.org/2000/svg" version="1.1">
 <metadata>
  <rdf:RDF xmlns:dc="http://purl.org/dc/elements/1.1/" xmlns:cc="http://creativecommons.org/ns#" xmlns:rdf="http://www.w3.org/1999/02/22-rdf-syntax-ns#">
   <cc:Work>
    <dc:type rdf:resource="http://purl.org/dc/dcmitype/StillImage"/>
    <dc:date>2024-11-28T11:54:57.286154</dc:date>
    <dc:format>image/svg+xml</dc:format>
    <dc:creator>
     <cc:Agent>
      <dc:title>Matplotlib v3.5.1, https://matplotlib.org/</dc:title>
     </cc:Agent>
    </dc:creator>
   </cc:Work>
  </rdf:RDF>
 </metadata>
 <defs>
  <style type="text/css">*{stroke-linejoin: round; stroke-linecap: butt}</style>
 </defs>
 <g id="figure_1">
  <g id="patch_1">
   <path d="M 0 633.943878 
L 955.760875 633.943878 
L 955.760875 0 
L 0 0 
z
" style="fill: #ffffff"/>
  </g>
  <g id="axes_1">
   <g id="patch_2">
    <path d="M 45.716875 567.74175 
L 948.560875 567.74175 
L 948.560875 24.14175 
L 45.716875 24.14175 
z
" style="fill: #e5e5e5"/>
   </g>
   <g id="matplotlib.axis_1">
    <g id="xtick_1">
     <g id="line2d_1">
      <path d="M 89.569298 567.74175 
L 89.569298 24.14175 
" clip-path="url(#p0d748d12c7)" style="fill: none; stroke: #ffffff; stroke-width: 0.8; stroke-linecap: square"/>
     </g>
     <g id="line2d_2">
      <defs>
       <path id="m695a4c1609" d="M 0 0 
L 0 3.5 
" style="stroke: #555555; stroke-width: 0.8"/>
      </defs>
      <g>
       <use xlink:href="#m695a4c1609" x="89.569298" y="567.74175" style="fill: #555555; stroke: #555555; stroke-width: 0.8"/>
      </g>
     </g>
     <g id="text_1">
      <!-- 2023-12 -->
      <g style="fill: #555555" transform="translate(76.748016 609.659567)rotate(-45)scale(0.1 -0.1)">
       <defs>
        <path id="DejaVuSans-32" d="M 1228 531 
L 3431 531 
L 3431 0 
L 469 0 
L 469 531 
Q 828 903 1448 1529 
Q 2069 2156 2228 2338 
Q 2531 2678 2651 2914 
Q 2772 3150 2772 3378 
Q 2772 3750 2511 3984 
Q 2250 4219 1831 4219 
Q 1534 4219 1204 4116 
Q 875 4013 500 3803 
L 500 4441 
Q 881 4594 1212 4672 
Q 1544 4750 1819 4750 
Q 2544 4750 2975 4387 
Q 3406 4025 3406 3419 
Q 3406 3131 3298 2873 
Q 3191 2616 2906 2266 
Q 2828 2175 2409 1742 
Q 1991 1309 1228 531 
z
" transform="scale(0.015625)"/>
        <path id="DejaVuSans-30" d="M 2034 4250 
Q 1547 4250 1301 3770 
Q 1056 3291 1056 2328 
Q 1056 1369 1301 889 
Q 1547 409 2034 409 
Q 2525 409 2770 889 
Q 3016 1369 3016 2328 
Q 3016 3291 2770 3770 
Q 2525 4250 2034 4250 
z
M 2034 4750 
Q 2819 4750 3233 4129 
Q 3647 3509 3647 2328 
Q 3647 1150 3233 529 
Q 2819 -91 2034 -91 
Q 1250 -91 836 529 
Q 422 1150 422 2328 
Q 422 3509 836 4129 
Q 1250 4750 2034 4750 
z
" transform="scale(0.015625)"/>
        <path id="DejaVuSans-33" d="M 2597 2516 
Q 3050 2419 3304 2112 
Q 3559 1806 3559 1356 
Q 3559 666 3084 287 
Q 2609 -91 1734 -91 
Q 1441 -91 1130 -33 
Q 819 25 488 141 
L 488 750 
Q 750 597 1062 519 
Q 1375 441 1716 441 
Q 2309 441 2620 675 
Q 2931 909 2931 1356 
Q 2931 1769 2642 2001 
Q 2353 2234 1838 2234 
L 1294 2234 
L 1294 2753 
L 1863 2753 
Q 2328 2753 2575 2939 
Q 2822 3125 2822 3475 
Q 2822 3834 2567 4026 
Q 2313 4219 1838 4219 
Q 1578 4219 1281 4162 
Q 984 4106 628 3988 
L 628 4550 
Q 988 4650 1302 4700 
Q 1616 4750 1894 4750 
Q 2613 4750 3031 4423 
Q 3450 4097 3450 3541 
Q 3450 3153 3228 2886 
Q 3006 2619 2597 2516 
z
" transform="scale(0.015625)"/>
        <path id="DejaVuSans-2d" d="M 313 2009 
L 1997 2009 
L 1997 1497 
L 313 1497 
L 313 2009 
z
" transform="scale(0.015625)"/>
        <path id="DejaVuSans-31" d="M 794 531 
L 1825 531 
L 1825 4091 
L 703 3866 
L 703 4441 
L 1819 4666 
L 2450 4666 
L 2450 531 
L 3481 531 
L 3481 0 
L 794 0 
L 794 531 
z
" transform="scale(0.015625)"/>
       </defs>
       <use xlink:href="#DejaVuSans-32"/>
       <use xlink:href="#DejaVuSans-30" x="63.623047"/>
       <use xlink:href="#DejaVuSans-32" x="127.246094"/>
       <use xlink:href="#DejaVuSans-33" x="190.869141"/>
       <use xlink:href="#DejaVuSans-2d" x="254.492188"/>
       <use xlink:href="#DejaVuSans-31" x="290.576172"/>
       <use xlink:href="#DejaVuSans-32" x="354.199219"/>
      </g>
     </g>
    </g>
    <g id="xtick_2">
     <g id="line2d_3">
      <path d="M 169.535481 567.74175 
L 169.535481 24.14175 
" clip-path="url(#p0d748d12c7)" style="fill: none; stroke: #ffffff; stroke-width: 0.8; stroke-linecap: square"/>
     </g>
     <g id="line2d_4">
      <g>
       <use xlink:href="#m695a4c1609" x="169.535481" y="567.74175" style="fill: #555555; stroke: #555555; stroke-width: 0.8"/>
      </g>
     </g>
     <g id="text_2">
      <!-- 2024-01 -->
      <g style="fill: #555555" transform="translate(156.714198 609.659567)rotate(-45)scale(0.1 -0.1)">
       <defs>
        <path id="DejaVuSans-34" d="M 2419 4116 
L 825 1625 
L 2419 1625 
L 2419 4116 
z
M 2253 4666 
L 3047 4666 
L 3047 1625 
L 3713 1625 
L 3713 1100 
L 3047 1100 
L 3047 0 
L 2419 0 
L 2419 1100 
L 313 1100 
L 313 1709 
L 2253 4666 
z
" transform="scale(0.015625)"/>
       </defs>
       <use xlink:href="#DejaVuSans-32"/>
       <use xlink:href="#DejaVuSans-30" x="63.623047"/>
       <use xlink:href="#DejaVuSans-32" x="127.246094"/>
       <use xlink:href="#DejaVuSans-34" x="190.869141"/>
       <use xlink:href="#DejaVuSans-2d" x="254.492188"/>
       <use xlink:href="#DejaVuSans-30" x="290.576172"/>
       <use xlink:href="#DejaVuSans-31" x="354.199219"/>
      </g>
     </g>
    </g>
    <g id="xtick_3">
     <g id="line2d_5">
      <path d="M 249.501664 567.74175 
L 249.501664 24.14175 
" clip-path="url(#p0d748d12c7)" style="fill: none; stroke: #ffffff; stroke-width: 0.8; stroke-linecap: square"/>
     </g>
     <g id="line2d_6">
      <g>
       <use xlink:href="#m695a4c1609" x="249.501664" y="567.74175" style="fill: #555555; stroke: #555555; stroke-width: 0.8"/>
      </g>
     </g>
     <g id="text_3">
      <!-- 2024-02 -->
      <g style="fill: #555555" transform="translate(236.680381 609.659567)rotate(-45)scale(0.1 -0.1)">
       <use xlink:href="#DejaVuSans-32"/>
       <use xlink:href="#DejaVuSans-30" x="63.623047"/>
       <use xlink:href="#DejaVuSans-32" x="127.246094"/>
       <use xlink:href="#DejaVuSans-34" x="190.869141"/>
       <use xlink:href="#DejaVuSans-2d" x="254.492188"/>
       <use xlink:href="#DejaVuSans-30" x="290.576172"/>
       <use xlink:href="#DejaVuSans-32" x="354.199219"/>
      </g>
     </g>
    </g>
    <g id="xtick_4">
     <g id="line2d_7">
      <path d="M 324.308738 567.74175 
L 324.308738 24.14175 
" clip-path="url(#p0d748d12c7)" style="fill: none; stroke: #ffffff; stroke-width: 0.8; stroke-linecap: square"/>
     </g>
     <g id="line2d_8">
      <g>
       <use xlink:href="#m695a4c1609" x="324.308738" y="567.74175" style="fill: #555555; stroke: #555555; stroke-width: 0.8"/>
      </g>
     </g>
     <g id="text_4">
      <!-- 2024-03 -->
      <g style="fill: #555555" transform="translate(311.487456 609.659567)rotate(-45)scale(0.1 -0.1)">
       <use xlink:href="#DejaVuSans-32"/>
       <use xlink:href="#DejaVuSans-30" x="63.623047"/>
       <use xlink:href="#DejaVuSans-32" x="127.246094"/>
       <use xlink:href="#DejaVuSans-34" x="190.869141"/>
       <use xlink:href="#DejaVuSans-2d" x="254.492188"/>
       <use xlink:href="#DejaVuSans-30" x="290.576172"/>
       <use xlink:href="#DejaVuSans-33" x="354.199219"/>
      </g>
     </g>
    </g>
    <g id="xtick_5">
     <g id="line2d_9">
      <path d="M 404.274921 567.74175 
L 404.274921 24.14175 
" clip-path="url(#p0d748d12c7)" style="fill: none; stroke: #ffffff; stroke-width: 0.8; stroke-linecap: square"/>
     </g>
     <g id="line2d_10">
      <g>
       <use xlink:href="#m695a4c1609" x="404.274921" y="567.74175" style="fill: #555555; stroke: #555555; stroke-width: 0.8"/>
      </g>
     </g>
     <g id="text_5">
      <!-- 2024-04 -->
      <g style="fill: #555555" transform="translate(391.453638 609.659567)rotate(-45)scale(0.1 -0.1)">
       <use xlink:href="#DejaVuSans-32"/>
       <use xlink:href="#DejaVuSans-30" x="63.623047"/>
       <use xlink:href="#DejaVuSans-32" x="127.246094"/>
       <use xlink:href="#DejaVuSans-34" x="190.869141"/>
       <use xlink:href="#DejaVuSans-2d" x="254.492188"/>
       <use xlink:href="#DejaVuSans-30" x="290.576172"/>
       <use xlink:href="#DejaVuSans-34" x="354.199219"/>
      </g>
     </g>
    </g>
    <g id="xtick_6">
     <g id="line2d_11">
      <path d="M 481.661549 567.74175 
L 481.661549 24.14175 
" clip-path="url(#p0d748d12c7)" style="fill: none; stroke: #ffffff; stroke-width: 0.8; stroke-linecap: square"/>
     </g>
     <g id="line2d_12">
      <g>
       <use xlink:href="#m695a4c1609" x="481.661549" y="567.74175" style="fill: #555555; stroke: #555555; stroke-width: 0.8"/>
      </g>
     </g>
     <g id="text_6">
      <!-- 2024-05 -->
      <g style="fill: #555555" transform="translate(468.840267 609.659567)rotate(-45)scale(0.1 -0.1)">
       <defs>
        <path id="DejaVuSans-35" d="M 691 4666 
L 3169 4666 
L 3169 4134 
L 1269 4134 
L 1269 2991 
Q 1406 3038 1543 3061 
Q 1681 3084 1819 3084 
Q 2600 3084 3056 2656 
Q 3513 2228 3513 1497 
Q 3513 744 3044 326 
Q 2575 -91 1722 -91 
Q 1428 -91 1123 -41 
Q 819 9 494 109 
L 494 744 
Q 775 591 1075 516 
Q 1375 441 1709 441 
Q 2250 441 2565 725 
Q 2881 1009 2881 1497 
Q 2881 1984 2565 2268 
Q 2250 2553 1709 2553 
Q 1456 2553 1204 2497 
Q 953 2441 691 2322 
L 691 4666 
z
" transform="scale(0.015625)"/>
       </defs>
       <use xlink:href="#DejaVuSans-32"/>
       <use xlink:href="#DejaVuSans-30" x="63.623047"/>
       <use xlink:href="#DejaVuSans-32" x="127.246094"/>
       <use xlink:href="#DejaVuSans-34" x="190.869141"/>
       <use xlink:href="#DejaVuSans-2d" x="254.492188"/>
       <use xlink:href="#DejaVuSans-30" x="290.576172"/>
       <use xlink:href="#DejaVuSans-35" x="354.199219"/>
      </g>
     </g>
    </g>
    <g id="xtick_7">
     <g id="line2d_13">
      <path d="M 561.627732 567.74175 
L 561.627732 24.14175 
" clip-path="url(#p0d748d12c7)" style="fill: none; stroke: #ffffff; stroke-width: 0.8; stroke-linecap: square"/>
     </g>
     <g id="line2d_14">
      <g>
       <use xlink:href="#m695a4c1609" x="561.627732" y="567.74175" style="fill: #555555; stroke: #555555; stroke-width: 0.8"/>
      </g>
     </g>
     <g id="text_7">
      <!-- 2024-06 -->
      <g style="fill: #555555" transform="translate(548.80645 609.659567)rotate(-45)scale(0.1 -0.1)">
       <defs>
        <path id="DejaVuSans-36" d="M 2113 2584 
Q 1688 2584 1439 2293 
Q 1191 2003 1191 1497 
Q 1191 994 1439 701 
Q 1688 409 2113 409 
Q 2538 409 2786 701 
Q 3034 994 3034 1497 
Q 3034 2003 2786 2293 
Q 2538 2584 2113 2584 
z
M 3366 4563 
L 3366 3988 
Q 3128 4100 2886 4159 
Q 2644 4219 2406 4219 
Q 1781 4219 1451 3797 
Q 1122 3375 1075 2522 
Q 1259 2794 1537 2939 
Q 1816 3084 2150 3084 
Q 2853 3084 3261 2657 
Q 3669 2231 3669 1497 
Q 3669 778 3244 343 
Q 2819 -91 2113 -91 
Q 1303 -91 875 529 
Q 447 1150 447 2328 
Q 447 3434 972 4092 
Q 1497 4750 2381 4750 
Q 2619 4750 2861 4703 
Q 3103 4656 3366 4563 
z
" transform="scale(0.015625)"/>
       </defs>
       <use xlink:href="#DejaVuSans-32"/>
       <use xlink:href="#DejaVuSans-30" x="63.623047"/>
       <use xlink:href="#DejaVuSans-32" x="127.246094"/>
       <use xlink:href="#DejaVuSans-34" x="190.869141"/>
       <use xlink:href="#DejaVuSans-2d" x="254.492188"/>
       <use xlink:href="#DejaVuSans-30" x="290.576172"/>
       <use xlink:href="#DejaVuSans-36" x="354.199219"/>
      </g>
     </g>
    </g>
    <g id="xtick_8">
     <g id="line2d_15">
      <path d="M 639.014361 567.74175 
L 639.014361 24.14175 
" clip-path="url(#p0d748d12c7)" style="fill: none; stroke: #ffffff; stroke-width: 0.8; stroke-linecap: square"/>
     </g>
     <g id="line2d_16">
      <g>
       <use xlink:href="#m695a4c1609" x="639.014361" y="567.74175" style="fill: #555555; stroke: #555555; stroke-width: 0.8"/>
      </g>
     </g>
     <g id="text_8">
      <!-- 2024-07 -->
      <g style="fill: #555555" transform="translate(626.193078 609.659567)rotate(-45)scale(0.1 -0.1)">
       <defs>
        <path id="DejaVuSans-37" d="M 525 4666 
L 3525 4666 
L 3525 4397 
L 1831 0 
L 1172 0 
L 2766 4134 
L 525 4134 
L 525 4666 
z
" transform="scale(0.015625)"/>
       </defs>
       <use xlink:href="#DejaVuSans-32"/>
       <use xlink:href="#DejaVuSans-30" x="63.623047"/>
       <use xlink:href="#DejaVuSans-32" x="127.246094"/>
       <use xlink:href="#DejaVuSans-34" x="190.869141"/>
       <use xlink:href="#DejaVuSans-2d" x="254.492188"/>
       <use xlink:href="#DejaVuSans-30" x="290.576172"/>
       <use xlink:href="#DejaVuSans-37" x="354.199219"/>
      </g>
     </g>
    </g>
    <g id="xtick_9">
     <g id="line2d_17">
      <path d="M 718.980544 567.74175 
L 718.980544 24.14175 
" clip-path="url(#p0d748d12c7)" style="fill: none; stroke: #ffffff; stroke-width: 0.8; stroke-linecap: square"/>
     </g>
     <g id="line2d_18">
      <g>
       <use xlink:href="#m695a4c1609" x="718.980544" y="567.74175" style="fill: #555555; stroke: #555555; stroke-width: 0.8"/>
      </g>
     </g>
     <g id="text_9">
      <!-- 2024-08 -->
      <g style="fill: #555555" transform="translate(706.159261 609.659567)rotate(-45)scale(0.1 -0.1)">
       <defs>
        <path id="DejaVuSans-38" d="M 2034 2216 
Q 1584 2216 1326 1975 
Q 1069 1734 1069 1313 
Q 1069 891 1326 650 
Q 1584 409 2034 409 
Q 2484 409 2743 651 
Q 3003 894 3003 1313 
Q 3003 1734 2745 1975 
Q 2488 2216 2034 2216 
z
M 1403 2484 
Q 997 2584 770 2862 
Q 544 3141 544 3541 
Q 544 4100 942 4425 
Q 1341 4750 2034 4750 
Q 2731 4750 3128 4425 
Q 3525 4100 3525 3541 
Q 3525 3141 3298 2862 
Q 3072 2584 2669 2484 
Q 3125 2378 3379 2068 
Q 3634 1759 3634 1313 
Q 3634 634 3220 271 
Q 2806 -91 2034 -91 
Q 1263 -91 848 271 
Q 434 634 434 1313 
Q 434 1759 690 2068 
Q 947 2378 1403 2484 
z
M 1172 3481 
Q 1172 3119 1398 2916 
Q 1625 2713 2034 2713 
Q 2441 2713 2670 2916 
Q 2900 3119 2900 3481 
Q 2900 3844 2670 4047 
Q 2441 4250 2034 4250 
Q 1625 4250 1398 4047 
Q 1172 3844 1172 3481 
z
" transform="scale(0.015625)"/>
       </defs>
       <use xlink:href="#DejaVuSans-32"/>
       <use xlink:href="#DejaVuSans-30" x="63.623047"/>
       <use xlink:href="#DejaVuSans-32" x="127.246094"/>
       <use xlink:href="#DejaVuSans-34" x="190.869141"/>
       <use xlink:href="#DejaVuSans-2d" x="254.492188"/>
       <use xlink:href="#DejaVuSans-30" x="290.576172"/>
       <use xlink:href="#DejaVuSans-38" x="354.199219"/>
      </g>
     </g>
    </g>
    <g id="xtick_10">
     <g id="line2d_19">
      <path d="M 798.946726 567.74175 
L 798.946726 24.14175 
" clip-path="url(#p0d748d12c7)" style="fill: none; stroke: #ffffff; stroke-width: 0.8; stroke-linecap: square"/>
     </g>
     <g id="line2d_20">
      <g>
       <use xlink:href="#m695a4c1609" x="798.946726" y="567.74175" style="fill: #555555; stroke: #555555; stroke-width: 0.8"/>
      </g>
     </g>
     <g id="text_10">
      <!-- 2024-09 -->
      <g style="fill: #555555" transform="translate(786.125444 609.659567)rotate(-45)scale(0.1 -0.1)">
       <defs>
        <path id="DejaVuSans-39" d="M 703 97 
L 703 672 
Q 941 559 1184 500 
Q 1428 441 1663 441 
Q 2288 441 2617 861 
Q 2947 1281 2994 2138 
Q 2813 1869 2534 1725 
Q 2256 1581 1919 1581 
Q 1219 1581 811 2004 
Q 403 2428 403 3163 
Q 403 3881 828 4315 
Q 1253 4750 1959 4750 
Q 2769 4750 3195 4129 
Q 3622 3509 3622 2328 
Q 3622 1225 3098 567 
Q 2575 -91 1691 -91 
Q 1453 -91 1209 -44 
Q 966 3 703 97 
z
M 1959 2075 
Q 2384 2075 2632 2365 
Q 2881 2656 2881 3163 
Q 2881 3666 2632 3958 
Q 2384 4250 1959 4250 
Q 1534 4250 1286 3958 
Q 1038 3666 1038 3163 
Q 1038 2656 1286 2365 
Q 1534 2075 1959 2075 
z
" transform="scale(0.015625)"/>
       </defs>
       <use xlink:href="#DejaVuSans-32"/>
       <use xlink:href="#DejaVuSans-30" x="63.623047"/>
       <use xlink:href="#DejaVuSans-32" x="127.246094"/>
       <use xlink:href="#DejaVuSans-34" x="190.869141"/>
       <use xlink:href="#DejaVuSans-2d" x="254.492188"/>
       <use xlink:href="#DejaVuSans-30" x="290.576172"/>
       <use xlink:href="#DejaVuSans-39" x="354.199219"/>
      </g>
     </g>
    </g>
    <g id="xtick_11">
     <g id="line2d_21">
      <path d="M 876.333355 567.74175 
L 876.333355 24.14175 
" clip-path="url(#p0d748d12c7)" style="fill: none; stroke: #ffffff; stroke-width: 0.8; stroke-linecap: square"/>
     </g>
     <g id="line2d_22">
      <g>
       <use xlink:href="#m695a4c1609" x="876.333355" y="567.74175" style="fill: #555555; stroke: #555555; stroke-width: 0.8"/>
      </g>
     </g>
     <g id="text_11">
      <!-- 2024-10 -->
      <g style="fill: #555555" transform="translate(863.512073 609.659567)rotate(-45)scale(0.1 -0.1)">
       <use xlink:href="#DejaVuSans-32"/>
       <use xlink:href="#DejaVuSans-30" x="63.623047"/>
       <use xlink:href="#DejaVuSans-32" x="127.246094"/>
       <use xlink:href="#DejaVuSans-34" x="190.869141"/>
       <use xlink:href="#DejaVuSans-2d" x="254.492188"/>
       <use xlink:href="#DejaVuSans-31" x="290.576172"/>
       <use xlink:href="#DejaVuSans-30" x="354.199219"/>
      </g>
     </g>
    </g>
    <g id="text_12">
     <!-- Date -->
     <g style="fill: #555555" transform="translate(482.797938 624.248253)scale(0.12 -0.12)">
      <defs>
       <path id="DejaVuSans-44" d="M 1259 4147 
L 1259 519 
L 2022 519 
Q 2988 519 3436 956 
Q 3884 1394 3884 2338 
Q 3884 3275 3436 3711 
Q 2988 4147 2022 4147 
L 1259 4147 
z
M 628 4666 
L 1925 4666 
Q 3281 4666 3915 4102 
Q 4550 3538 4550 2338 
Q 4550 1131 3912 565 
Q 3275 0 1925 0 
L 628 0 
L 628 4666 
z
" transform="scale(0.015625)"/>
       <path id="DejaVuSans-61" d="M 2194 1759 
Q 1497 1759 1228 1600 
Q 959 1441 959 1056 
Q 959 750 1161 570 
Q 1363 391 1709 391 
Q 2188 391 2477 730 
Q 2766 1069 2766 1631 
L 2766 1759 
L 2194 1759 
z
M 3341 1997 
L 3341 0 
L 2766 0 
L 2766 531 
Q 2569 213 2275 61 
Q 1981 -91 1556 -91 
Q 1019 -91 701 211 
Q 384 513 384 1019 
Q 384 1609 779 1909 
Q 1175 2209 1959 2209 
L 2766 2209 
L 2766 2266 
Q 2766 2663 2505 2880 
Q 2244 3097 1772 3097 
Q 1472 3097 1187 3025 
Q 903 2953 641 2809 
L 641 3341 
Q 956 3463 1253 3523 
Q 1550 3584 1831 3584 
Q 2591 3584 2966 3190 
Q 3341 2797 3341 1997 
z
" transform="scale(0.015625)"/>
       <path id="DejaVuSans-74" d="M 1172 4494 
L 1172 3500 
L 2356 3500 
L 2356 3053 
L 1172 3053 
L 1172 1153 
Q 1172 725 1289 603 
Q 1406 481 1766 481 
L 2356 481 
L 2356 0 
L 1766 0 
Q 1100 0 847 248 
Q 594 497 594 1153 
L 594 3053 
L 172 3053 
L 172 3500 
L 594 3500 
L 594 4494 
L 1172 4494 
z
" transform="scale(0.015625)"/>
       <path id="DejaVuSans-65" d="M 3597 1894 
L 3597 1613 
L 953 1613 
Q 991 1019 1311 708 
Q 1631 397 2203 397 
Q 2534 397 2845 478 
Q 3156 559 3463 722 
L 3463 178 
Q 3153 47 2828 -22 
Q 2503 -91 2169 -91 
Q 1331 -91 842 396 
Q 353 884 353 1716 
Q 353 2575 817 3079 
Q 1281 3584 2069 3584 
Q 2775 3584 3186 3129 
Q 3597 2675 3597 1894 
z
M 3022 2063 
Q 3016 2534 2758 2815 
Q 2500 3097 2075 3097 
Q 1594 3097 1305 2825 
Q 1016 2553 972 2059 
L 3022 2063 
z
" transform="scale(0.015625)"/>
      </defs>
      <use xlink:href="#DejaVuSans-44"/>
      <use xlink:href="#DejaVuSans-61" x="77.001953"/>
      <use xlink:href="#DejaVuSans-74" x="138.28125"/>
      <use xlink:href="#DejaVuSans-65" x="177.490234"/>
     </g>
    </g>
   </g>
   <g id="matplotlib.axis_2">
    <g id="ytick_1">
     <g id="line2d_23">
      <path d="M 45.716875 567.74175 
L 948.560875 567.74175 
" clip-path="url(#p0d748d12c7)" style="fill: none; stroke: #ffffff; stroke-width: 0.8; stroke-linecap: square"/>
     </g>
     <g id="line2d_24">
      <defs>
       <path id="m337fac1fca" d="M 0 0 
L -3.5 0 
" style="stroke: #555555; stroke-width: 0.8"/>
      </defs>
      <g>
       <use xlink:href="#m337fac1fca" x="45.716875" y="567.74175" style="fill: #555555; stroke: #555555; stroke-width: 0.8"/>
      </g>
     </g>
     <g id="text_13">
      <!-- 0.0 -->
      <g style="fill: #555555" transform="translate(22.81375 571.540969)scale(0.1 -0.1)">
       <defs>
        <path id="DejaVuSans-2e" d="M 684 794 
L 1344 794 
L 1344 0 
L 684 0 
L 684 794 
z
" transform="scale(0.015625)"/>
       </defs>
       <use xlink:href="#DejaVuSans-30"/>
       <use xlink:href="#DejaVuSans-2e" x="63.623047"/>
       <use xlink:href="#DejaVuSans-30" x="95.410156"/>
      </g>
     </g>
    </g>
    <g id="ytick_2">
     <g id="line2d_25">
      <path d="M 45.716875 459.01518 
L 948.560875 459.01518 
" clip-path="url(#p0d748d12c7)" style="fill: none; stroke: #ffffff; stroke-width: 0.8; stroke-linecap: square"/>
     </g>
     <g id="line2d_26">
      <g>
       <use xlink:href="#m337fac1fca" x="45.716875" y="459.01518" style="fill: #555555; stroke: #555555; stroke-width: 0.8"/>
      </g>
     </g>
     <g id="text_14">
      <!-- 0.2 -->
      <g style="fill: #555555" transform="translate(22.81375 462.814399)scale(0.1 -0.1)">
       <use xlink:href="#DejaVuSans-30"/>
       <use xlink:href="#DejaVuSans-2e" x="63.623047"/>
       <use xlink:href="#DejaVuSans-32" x="95.410156"/>
      </g>
     </g>
    </g>
    <g id="ytick_3">
     <g id="line2d_27">
      <path d="M 45.716875 350.28861 
L 948.560875 350.28861 
" clip-path="url(#p0d748d12c7)" style="fill: none; stroke: #ffffff; stroke-width: 0.8; stroke-linecap: square"/>
     </g>
     <g id="line2d_28">
      <g>
       <use xlink:href="#m337fac1fca" x="45.716875" y="350.28861" style="fill: #555555; stroke: #555555; stroke-width: 0.8"/>
      </g>
     </g>
     <g id="text_15">
      <!-- 0.4 -->
      <g style="fill: #555555" transform="translate(22.81375 354.087829)scale(0.1 -0.1)">
       <use xlink:href="#DejaVuSans-30"/>
       <use xlink:href="#DejaVuSans-2e" x="63.623047"/>
       <use xlink:href="#DejaVuSans-34" x="95.410156"/>
      </g>
     </g>
    </g>
    <g id="ytick_4">
     <g id="line2d_29">
      <path d="M 45.716875 241.56204 
L 948.560875 241.56204 
" clip-path="url(#p0d748d12c7)" style="fill: none; stroke: #ffffff; stroke-width: 0.8; stroke-linecap: square"/>
     </g>
     <g id="line2d_30">
      <g>
       <use xlink:href="#m337fac1fca" x="45.716875" y="241.56204" style="fill: #555555; stroke: #555555; stroke-width: 0.8"/>
      </g>
     </g>
     <g id="text_16">
      <!-- 0.6 -->
      <g style="fill: #555555" transform="translate(22.81375 245.361259)scale(0.1 -0.1)">
       <use xlink:href="#DejaVuSans-30"/>
       <use xlink:href="#DejaVuSans-2e" x="63.623047"/>
       <use xlink:href="#DejaVuSans-36" x="95.410156"/>
      </g>
     </g>
    </g>
    <g id="ytick_5">
     <g id="line2d_31">
      <path d="M 45.716875 132.83547 
L 948.560875 132.83547 
" clip-path="url(#p0d748d12c7)" style="fill: none; stroke: #ffffff; stroke-width: 0.8; stroke-linecap: square"/>
     </g>
     <g id="line2d_32">
      <g>
       <use xlink:href="#m337fac1fca" x="45.716875" y="132.83547" style="fill: #555555; stroke: #555555; stroke-width: 0.8"/>
      </g>
     </g>
     <g id="text_17">
      <!-- 0.8 -->
      <g style="fill: #555555" transform="translate(22.81375 136.634688)scale(0.1 -0.1)">
       <use xlink:href="#DejaVuSans-30"/>
       <use xlink:href="#DejaVuSans-2e" x="63.623047"/>
       <use xlink:href="#DejaVuSans-38" x="95.410156"/>
      </g>
     </g>
    </g>
    <g id="text_18">
     <!-- Share of Instances -->
     <g style="fill: #555555" transform="translate(16.318125 351.497062)rotate(-90)scale(0.12 -0.12)">
      <defs>
       <path id="DejaVuSans-53" d="M 3425 4513 
L 3425 3897 
Q 3066 4069 2747 4153 
Q 2428 4238 2131 4238 
Q 1616 4238 1336 4038 
Q 1056 3838 1056 3469 
Q 1056 3159 1242 3001 
Q 1428 2844 1947 2747 
L 2328 2669 
Q 3034 2534 3370 2195 
Q 3706 1856 3706 1288 
Q 3706 609 3251 259 
Q 2797 -91 1919 -91 
Q 1588 -91 1214 -16 
Q 841 59 441 206 
L 441 856 
Q 825 641 1194 531 
Q 1563 422 1919 422 
Q 2459 422 2753 634 
Q 3047 847 3047 1241 
Q 3047 1584 2836 1778 
Q 2625 1972 2144 2069 
L 1759 2144 
Q 1053 2284 737 2584 
Q 422 2884 422 3419 
Q 422 4038 858 4394 
Q 1294 4750 2059 4750 
Q 2388 4750 2728 4690 
Q 3069 4631 3425 4513 
z
" transform="scale(0.015625)"/>
       <path id="DejaVuSans-68" d="M 3513 2113 
L 3513 0 
L 2938 0 
L 2938 2094 
Q 2938 2591 2744 2837 
Q 2550 3084 2163 3084 
Q 1697 3084 1428 2787 
Q 1159 2491 1159 1978 
L 1159 0 
L 581 0 
L 581 4863 
L 1159 4863 
L 1159 2956 
Q 1366 3272 1645 3428 
Q 1925 3584 2291 3584 
Q 2894 3584 3203 3211 
Q 3513 2838 3513 2113 
z
" transform="scale(0.015625)"/>
       <path id="DejaVuSans-72" d="M 2631 2963 
Q 2534 3019 2420 3045 
Q 2306 3072 2169 3072 
Q 1681 3072 1420 2755 
Q 1159 2438 1159 1844 
L 1159 0 
L 581 0 
L 581 3500 
L 1159 3500 
L 1159 2956 
Q 1341 3275 1631 3429 
Q 1922 3584 2338 3584 
Q 2397 3584 2469 3576 
Q 2541 3569 2628 3553 
L 2631 2963 
z
" transform="scale(0.015625)"/>
       <path id="DejaVuSans-20" transform="scale(0.015625)"/>
       <path id="DejaVuSans-6f" d="M 1959 3097 
Q 1497 3097 1228 2736 
Q 959 2375 959 1747 
Q 959 1119 1226 758 
Q 1494 397 1959 397 
Q 2419 397 2687 759 
Q 2956 1122 2956 1747 
Q 2956 2369 2687 2733 
Q 2419 3097 1959 3097 
z
M 1959 3584 
Q 2709 3584 3137 3096 
Q 3566 2609 3566 1747 
Q 3566 888 3137 398 
Q 2709 -91 1959 -91 
Q 1206 -91 779 398 
Q 353 888 353 1747 
Q 353 2609 779 3096 
Q 1206 3584 1959 3584 
z
" transform="scale(0.015625)"/>
       <path id="DejaVuSans-66" d="M 2375 4863 
L 2375 4384 
L 1825 4384 
Q 1516 4384 1395 4259 
Q 1275 4134 1275 3809 
L 1275 3500 
L 2222 3500 
L 2222 3053 
L 1275 3053 
L 1275 0 
L 697 0 
L 697 3053 
L 147 3053 
L 147 3500 
L 697 3500 
L 697 3744 
Q 697 4328 969 4595 
Q 1241 4863 1831 4863 
L 2375 4863 
z
" transform="scale(0.015625)"/>
       <path id="DejaVuSans-49" d="M 628 4666 
L 1259 4666 
L 1259 0 
L 628 0 
L 628 4666 
z
" transform="scale(0.015625)"/>
       <path id="DejaVuSans-6e" d="M 3513 2113 
L 3513 0 
L 2938 0 
L 2938 2094 
Q 2938 2591 2744 2837 
Q 2550 3084 2163 3084 
Q 1697 3084 1428 2787 
Q 1159 2491 1159 1978 
L 1159 0 
L 581 0 
L 581 3500 
L 1159 3500 
L 1159 2956 
Q 1366 3272 1645 3428 
Q 1925 3584 2291 3584 
Q 2894 3584 3203 3211 
Q 3513 2838 3513 2113 
z
" transform="scale(0.015625)"/>
       <path id="DejaVuSans-73" d="M 2834 3397 
L 2834 2853 
Q 2591 2978 2328 3040 
Q 2066 3103 1784 3103 
Q 1356 3103 1142 2972 
Q 928 2841 928 2578 
Q 928 2378 1081 2264 
Q 1234 2150 1697 2047 
L 1894 2003 
Q 2506 1872 2764 1633 
Q 3022 1394 3022 966 
Q 3022 478 2636 193 
Q 2250 -91 1575 -91 
Q 1294 -91 989 -36 
Q 684 19 347 128 
L 347 722 
Q 666 556 975 473 
Q 1284 391 1588 391 
Q 1994 391 2212 530 
Q 2431 669 2431 922 
Q 2431 1156 2273 1281 
Q 2116 1406 1581 1522 
L 1381 1569 
Q 847 1681 609 1914 
Q 372 2147 372 2553 
Q 372 3047 722 3315 
Q 1072 3584 1716 3584 
Q 2034 3584 2315 3537 
Q 2597 3491 2834 3397 
z
" transform="scale(0.015625)"/>
       <path id="DejaVuSans-63" d="M 3122 3366 
L 3122 2828 
Q 2878 2963 2633 3030 
Q 2388 3097 2138 3097 
Q 1578 3097 1268 2742 
Q 959 2388 959 1747 
Q 959 1106 1268 751 
Q 1578 397 2138 397 
Q 2388 397 2633 464 
Q 2878 531 3122 666 
L 3122 134 
Q 2881 22 2623 -34 
Q 2366 -91 2075 -91 
Q 1284 -91 818 406 
Q 353 903 353 1747 
Q 353 2603 823 3093 
Q 1294 3584 2113 3584 
Q 2378 3584 2631 3529 
Q 2884 3475 3122 3366 
z
" transform="scale(0.015625)"/>
      </defs>
      <use xlink:href="#DejaVuSans-53"/>
      <use xlink:href="#DejaVuSans-68" x="63.476562"/>
      <use xlink:href="#DejaVuSans-61" x="126.855469"/>
      <use xlink:href="#DejaVuSans-72" x="188.134766"/>
      <use xlink:href="#DejaVuSans-65" x="226.998047"/>
      <use xlink:href="#DejaVuSans-20" x="288.521484"/>
      <use xlink:href="#DejaVuSans-6f" x="320.308594"/>
      <use xlink:href="#DejaVuSans-66" x="381.490234"/>
      <use xlink:href="#DejaVuSans-20" x="416.695312"/>
      <use xlink:href="#DejaVuSans-49" x="448.482422"/>
      <use xlink:href="#DejaVuSans-6e" x="477.974609"/>
      <use xlink:href="#DejaVuSans-73" x="541.353516"/>
      <use xlink:href="#DejaVuSans-74" x="593.453125"/>
      <use xlink:href="#DejaVuSans-61" x="632.662109"/>
      <use xlink:href="#DejaVuSans-6e" x="693.941406"/>
      <use xlink:href="#DejaVuSans-63" x="757.320312"/>
      <use xlink:href="#DejaVuSans-65" x="812.300781"/>
      <use xlink:href="#DejaVuSans-73" x="873.824219"/>
     </g>
    </g>
   </g>
   <g id="PolyCollection_1">
    <path d="M 45.716875 567.74175 
L 45.716875 567.74175 
L 63.773755 567.74175 
L 81.830635 567.74175 
L 99.887515 567.74175 
L 117.944395 567.74175 
L 136.001275 567.74175 
L 154.058155 567.74175 
L 172.115035 567.74175 
L 190.171915 567.74175 
L 208.228795 567.74175 
L 226.285675 567.74175 
L 244.342555 567.74175 
L 262.399435 567.74175 
L 280.456315 567.74175 
L 298.513195 567.74175 
L 316.570075 567.74175 
L 334.626955 567.74175 
L 352.683835 567.74175 
L 370.740715 567.74175 
L 388.797595 567.74175 
L 406.854475 567.74175 
L 424.911355 567.74175 
L 442.968235 567.74175 
L 461.025115 567.74175 
L 479.081995 567.74175 
L 497.138875 567.74175 
L 515.195755 567.74175 
L 533.252635 567.74175 
L 551.309515 567.74175 
L 569.366395 567.74175 
L 587.423275 567.74175 
L 605.480155 567.74175 
L 623.537035 567.74175 
L 641.593915 567.74175 
L 659.650795 567.74175 
L 677.707675 567.74175 
L 695.764555 567.74175 
L 713.821435 567.74175 
L 731.878315 567.74175 
L 749.935195 567.74175 
L 767.992075 567.74175 
L 786.048955 567.74175 
L 804.105835 567.74175 
L 822.162715 567.74175 
L 840.219595 567.74175 
L 858.276475 567.74175 
L 876.333355 567.74175 
L 894.390235 567.74175 
L 912.447115 567.74175 
L 930.503995 567.74175 
L 948.560875 567.74175 
L 948.560875 427.628319 
L 948.560875 427.628319 
L 930.503995 429.962088 
L 912.447115 430.988835 
L 894.390235 434.173949 
L 876.333355 436.565081 
L 858.276475 440.123258 
L 840.219595 437.734436 
L 822.162715 442.167539 
L 804.105835 445.926917 
L 786.048955 449.695017 
L 767.992075 451.982003 
L 749.935195 455.49647 
L 731.878315 458.649301 
L 713.821435 462.548918 
L 695.764555 461.099693 
L 677.707675 466.011604 
L 659.650795 468.358057 
L 641.593915 472.972961 
L 623.537035 478.980822 
L 605.480155 481.410399 
L 587.423275 488.411913 
L 569.366395 497.029443 
L 551.309515 500.892337 
L 533.252635 507.214098 
L 515.195755 515.26741 
L 497.138875 524.080538 
L 479.081995 536.381992 
L 461.025115 561.243537 
L 442.968235 567.740175 
L 424.911355 567.74175 
L 406.854475 567.74175 
L 388.797595 567.74175 
L 370.740715 567.74175 
L 352.683835 567.74175 
L 334.626955 567.74175 
L 316.570075 567.74175 
L 298.513195 567.74175 
L 280.456315 567.74175 
L 262.399435 567.74175 
L 244.342555 567.74175 
L 226.285675 567.74175 
L 208.228795 567.74175 
L 190.171915 567.74175 
L 172.115035 567.74175 
L 154.058155 567.74175 
L 136.001275 567.74175 
L 117.944395 567.74175 
L 99.887515 567.74175 
L 81.830635 567.74175 
L 63.773755 567.74175 
L 45.716875 567.74175 
z
" clip-path="url(#p0d748d12c7)" style="fill: #e24a33"/>
   </g>
   <g id="PolyCollection_2">
    <path d="M 45.716875 531.884271 
L 45.716875 567.74175 
L 63.773755 567.74175 
L 81.830635 567.74175 
L 99.887515 567.74175 
L 117.944395 567.74175 
L 136.001275 567.74175 
L 154.058155 567.74175 
L 172.115035 567.74175 
L 190.171915 567.74175 
L 208.228795 567.74175 
L 226.285675 567.74175 
L 244.342555 567.74175 
L 262.399435 567.74175 
L 280.456315 567.74175 
L 298.513195 567.74175 
L 316.570075 567.74175 
L 334.626955 567.74175 
L 352.683835 567.74175 
L 370.740715 567.74175 
L 388.797595 567.74175 
L 406.854475 567.74175 
L 424.911355 567.74175 
L 442.968235 567.740175 
L 461.025115 561.243537 
L 479.081995 536.381992 
L 497.138875 524.080538 
L 515.195755 515.26741 
L 533.252635 507.214098 
L 551.309515 500.892337 
L 569.366395 497.029443 
L 587.423275 488.411913 
L 605.480155 481.410399 
L 623.537035 478.980822 
L 641.593915 472.972961 
L 659.650795 468.358057 
L 677.707675 466.011604 
L 695.764555 461.099693 
L 713.821435 462.548918 
L 731.878315 458.649301 
L 749.935195 455.49647 
L 767.992075 451.982003 
L 786.048955 449.695017 
L 804.105835 445.926917 
L 822.162715 442.167539 
L 840.219595 437.734436 
L 858.276475 440.123258 
L 876.333355 436.565081 
L 894.390235 434.173949 
L 912.447115 430.988835 
L 930.503995 429.962088 
L 948.560875 427.628319 
L 948.560875 392.989634 
L 948.560875 392.989634 
L 930.503995 394.279336 
L 912.447115 394.087603 
L 894.390235 395.819195 
L 876.333355 397.625443 
L 858.276475 400.902193 
L 840.219595 397.058233 
L 822.162715 401.029431 
L 804.105835 403.096359 
L 786.048955 405.803184 
L 767.992075 406.850581 
L 749.935195 409.961993 
L 731.878315 411.900852 
L 713.821435 415.042785 
L 695.764555 409.810566 
L 677.707675 413.804186 
L 659.650795 414.384412 
L 641.593915 417.724263 
L 623.537035 420.873384 
L 605.480155 419.93166 
L 587.423275 424.54119 
L 569.366395 433.162183 
L 551.309515 431.749674 
L 533.252635 434.210552 
L 515.195755 434.350607 
L 497.138875 436.267845 
L 479.081995 437.879295 
L 461.025115 441.514949 
L 442.968235 447.228729 
L 424.911355 449.155077 
L 406.854475 454.003793 
L 388.797595 458.16927 
L 370.740715 462.968147 
L 352.683835 460.658377 
L 334.626955 464.684249 
L 316.570075 466.975074 
L 298.513195 471.43344 
L 280.456315 471.1089 
L 262.399435 475.544591 
L 244.342555 481.575337 
L 226.285675 481.347709 
L 208.228795 483.558762 
L 190.171915 489.393872 
L 172.115035 495.106845 
L 154.058155 499.816798 
L 136.001275 502.93047 
L 117.944395 507.004544 
L 99.887515 510.089497 
L 81.830635 515.755116 
L 63.773755 520.028309 
L 45.716875 531.884271 
z
" clip-path="url(#p0d748d12c7)" style="fill: #348abd"/>
   </g>
   <g id="PolyCollection_3">
    <path d="M 45.716875 443.582096 
L 45.716875 531.884271 
L 63.773755 520.028309 
L 81.830635 515.755116 
L 99.887515 510.089497 
L 117.944395 507.004544 
L 136.001275 502.93047 
L 154.058155 499.816798 
L 172.115035 495.106845 
L 190.171915 489.393872 
L 208.228795 483.558762 
L 226.285675 481.347709 
L 244.342555 481.575337 
L 262.399435 475.544591 
L 280.456315 471.1089 
L 298.513195 471.43344 
L 316.570075 466.975074 
L 334.626955 464.684249 
L 352.683835 460.658377 
L 370.740715 462.968147 
L 388.797595 458.16927 
L 406.854475 454.003793 
L 424.911355 449.155077 
L 442.968235 447.228729 
L 461.025115 441.514949 
L 479.081995 437.879295 
L 497.138875 436.267845 
L 515.195755 434.350607 
L 533.252635 434.210552 
L 551.309515 431.749674 
L 569.366395 433.162183 
L 587.423275 424.54119 
L 605.480155 419.93166 
L 623.537035 420.873384 
L 641.593915 417.724263 
L 659.650795 414.384412 
L 677.707675 413.804186 
L 695.764555 409.810566 
L 713.821435 415.042785 
L 731.878315 411.900852 
L 749.935195 409.961993 
L 767.992075 406.850581 
L 786.048955 405.803184 
L 804.105835 403.096359 
L 822.162715 401.029431 
L 840.219595 397.058233 
L 858.276475 400.902193 
L 876.333355 397.625443 
L 894.390235 395.819195 
L 912.447115 394.087603 
L 930.503995 394.279336 
L 948.560875 392.989634 
L 948.560875 372.038902 
L 948.560875 372.038902 
L 930.503995 372.962213 
L 912.447115 373.653198 
L 894.390235 374.73023 
L 876.333355 375.812622 
L 858.276475 378.68335 
L 840.219595 373.336704 
L 822.162715 377.964579 
L 804.105835 378.11036 
L 786.048955 379.761162 
L 767.992075 380.619038 
L 749.935195 383.791989 
L 731.878315 385.120207 
L 713.821435 387.11794 
L 695.764555 383.211158 
L 677.707675 386.672937 
L 659.650795 386.300878 
L 641.593915 389.284091 
L 623.537035 392.381219 
L 605.480155 390.234519 
L 587.423275 394.564689 
L 569.366395 404.265529 
L 551.309515 402.803095 
L 533.252635 404.577404 
L 515.195755 403.809111 
L 497.138875 404.616617 
L 479.081995 405.252 
L 461.025115 408.515481 
L 442.968235 413.671815 
L 424.911355 415.175467 
L 406.854475 418.931473 
L 388.797595 422.221733 
L 370.740715 425.487266 
L 352.683835 418.028047 
L 334.626955 423.347037 
L 316.570075 423.570508 
L 298.513195 427.78414 
L 280.456315 423.874422 
L 262.399435 426.214873 
L 244.342555 430.97223 
L 226.285675 427.007776 
L 208.228795 427.288029 
L 190.171915 430.418754 
L 172.115035 432.076785 
L 154.058155 437.482129 
L 136.001275 439.913287 
L 117.944395 442.168568 
L 99.887515 439.917812 
L 81.830635 443.526959 
L 63.773755 442.115022 
L 45.716875 443.582096 
z
" clip-path="url(#p0d748d12c7)" style="fill: #988ed5"/>
   </g>
   <g id="PolyCollection_4">
    <path d="M 45.716875 419.832149 
L 45.716875 443.582096 
L 63.773755 442.115022 
L 81.830635 443.526959 
L 99.887515 439.917812 
L 117.944395 442.168568 
L 136.001275 439.913287 
L 154.058155 437.482129 
L 172.115035 432.076785 
L 190.171915 430.418754 
L 208.228795 427.288029 
L 226.285675 427.007776 
L 244.342555 430.97223 
L 262.399435 426.214873 
L 280.456315 423.874422 
L 298.513195 427.78414 
L 316.570075 423.570508 
L 334.626955 423.347037 
L 352.683835 418.028047 
L 370.740715 425.487266 
L 388.797595 422.221733 
L 406.854475 418.931473 
L 424.911355 415.175467 
L 442.968235 413.671815 
L 461.025115 408.515481 
L 479.081995 405.252 
L 497.138875 404.616617 
L 515.195755 403.809111 
L 533.252635 404.577404 
L 551.309515 402.803095 
L 569.366395 404.265529 
L 587.423275 394.564689 
L 605.480155 390.234519 
L 623.537035 392.381219 
L 641.593915 389.284091 
L 659.650795 386.300878 
L 677.707675 386.672937 
L 695.764555 383.211158 
L 713.821435 387.11794 
L 731.878315 385.120207 
L 749.935195 383.791989 
L 767.992075 380.619038 
L 786.048955 379.761162 
L 804.105835 378.11036 
L 822.162715 377.964579 
L 840.219595 373.336704 
L 858.276475 378.68335 
L 876.333355 375.812622 
L 894.390235 374.73023 
L 912.447115 373.653198 
L 930.503995 372.962213 
L 948.560875 372.038902 
L 948.560875 363.318854 
L 948.560875 363.318854 
L 930.503995 364.321142 
L 912.447115 364.802605 
L 894.390235 365.798505 
L 876.333355 366.718437 
L 858.276475 369.294968 
L 840.219595 363.360663 
L 822.162715 368.053404 
L 804.105835 368.024464 
L 786.048955 369.513651 
L 767.992075 370.107337 
L 749.935195 373.311203 
L 731.878315 374.228516 
L 713.821435 376.301216 
L 695.764555 371.582583 
L 677.707675 375.168331 
L 659.650795 374.372738 
L 641.593915 377.504334 
L 623.537035 380.515125 
L 605.480155 377.732707 
L 587.423275 382.151151 
L 569.366395 392.015888 
L 551.309515 389.973523 
L 533.252635 391.584573 
L 515.195755 390.281616 
L 497.138875 390.68226 
L 479.081995 390.923434 
L 461.025115 394.032239 
L 442.968235 398.811734 
L 424.911355 400.622777 
L 406.854475 404.133089 
L 388.797595 407.4069 
L 370.740715 410.832157 
L 352.683835 402.368434 
L 334.626955 407.681055 
L 316.570075 407.047685 
L 298.513195 411.444103 
L 280.456315 406.494022 
L 262.399435 408.339091 
L 244.342555 412.719027 
L 226.285675 407.657048 
L 208.228795 407.760657 
L 190.171915 410.528709 
L 172.115035 411.822377 
L 154.058155 416.502502 
L 136.001275 418.186268 
L 117.944395 419.634499 
L 99.887515 417.246409 
L 81.830635 420.719051 
L 63.773755 418.626156 
L 45.716875 419.832149 
z
" clip-path="url(#p0d748d12c7)" style="fill: #777777"/>
   </g>
   <g id="PolyCollection_5">
    <path d="M 45.716875 413.825481 
L 45.716875 419.832149 
L 63.773755 418.626156 
L 81.830635 420.719051 
L 99.887515 417.246409 
L 117.944395 419.634499 
L 136.001275 418.186268 
L 154.058155 416.502502 
L 172.115035 411.822377 
L 190.171915 410.528709 
L 208.228795 407.760657 
L 226.285675 407.657048 
L 244.342555 412.719027 
L 262.399435 408.339091 
L 280.456315 406.494022 
L 298.513195 411.444103 
L 316.570075 407.047685 
L 334.626955 407.681055 
L 352.683835 402.368434 
L 370.740715 410.832157 
L 388.797595 407.4069 
L 406.854475 404.133089 
L 424.911355 400.622777 
L 442.968235 398.811734 
L 461.025115 394.032239 
L 479.081995 390.923434 
L 497.138875 390.68226 
L 515.195755 390.281616 
L 533.252635 391.584573 
L 551.309515 389.973523 
L 569.366395 392.015888 
L 587.423275 382.151151 
L 605.480155 377.732707 
L 623.537035 380.515125 
L 641.593915 377.504334 
L 659.650795 374.372738 
L 677.707675 375.168331 
L 695.764555 371.582583 
L 713.821435 376.301216 
L 731.878315 374.228516 
L 749.935195 373.311203 
L 767.992075 370.107337 
L 786.048955 369.513651 
L 804.105835 368.024464 
L 822.162715 368.053404 
L 840.219595 363.360663 
L 858.276475 369.294968 
L 876.333355 366.718437 
L 894.390235 365.798505 
L 912.447115 364.802605 
L 930.503995 364.321142 
L 948.560875 363.318854 
L 948.560875 360.903135 
L 948.560875 360.903135 
L 930.503995 361.845381 
L 912.447115 362.367555 
L 894.390235 363.405618 
L 876.333355 364.248299 
L 858.276475 366.781313 
L 840.219595 360.723443 
L 822.162715 365.422554 
L 804.105835 365.322233 
L 786.048955 366.692924 
L 767.992075 367.227867 
L 749.935195 370.388154 
L 731.878315 371.287792 
L 713.821435 373.33525 
L 695.764555 368.480255 
L 677.707675 372.00643 
L 659.650795 371.104489 
L 641.593915 374.236658 
L 623.537035 377.280542 
L 605.480155 374.335507 
L 587.423275 378.645901 
L 569.366395 388.707788 
L 551.309515 386.49561 
L 533.252635 388.036246 
L 515.195755 386.672931 
L 497.138875 386.93368 
L 479.081995 387.069503 
L 461.025115 390.148119 
L 442.968235 394.921024 
L 424.911355 396.691703 
L 406.854475 400.172965 
L 388.797595 403.328015 
L 370.740715 406.734844 
L 352.683835 398.068363 
L 334.626955 403.446473 
L 316.570075 402.623285 
L 298.513195 407.057813 
L 280.456315 401.843846 
L 262.399435 403.601506 
L 244.342555 407.975897 
L 226.285675 402.577749 
L 208.228795 402.645093 
L 190.171915 405.374167 
L 172.115035 406.531059 
L 154.058155 411.049301 
L 136.001275 412.554557 
L 117.944395 413.85398 
L 99.887515 411.433084 
L 81.830635 414.928179 
L 63.773755 412.665501 
L 45.716875 413.825481 
z
" clip-path="url(#p0d748d12c7)" style="fill: #fbc15e"/>
   </g>
   <g id="PolyCollection_6">
    <path d="M 45.716875 413.825481 
L 45.716875 413.825481 
L 63.773755 412.665501 
L 81.830635 414.928179 
L 99.887515 411.433084 
L 117.944395 413.85398 
L 136.001275 412.554557 
L 154.058155 411.049301 
L 172.115035 406.531059 
L 190.171915 405.374167 
L 208.228795 402.645093 
L 226.285675 402.577749 
L 244.342555 407.975897 
L 262.399435 403.601506 
L 280.456315 401.843846 
L 298.513195 407.057813 
L 316.570075 402.623285 
L 334.626955 403.446473 
L 352.683835 398.068363 
L 370.740715 406.734844 
L 388.797595 403.328015 
L 406.854475 400.172965 
L 424.911355 396.691703 
L 442.968235 394.921024 
L 461.025115 390.148119 
L 479.081995 387.069503 
L 497.138875 386.93368 
L 515.195755 386.672931 
L 533.252635 388.036246 
L 551.309515 386.49561 
L 569.366395 388.707788 
L 587.423275 378.645901 
L 605.480155 374.335507 
L 623.537035 377.280542 
L 641.593915 374.236658 
L 659.650795 371.104489 
L 677.707675 372.00643 
L 695.764555 368.480255 
L 713.821435 373.33525 
L 731.878315 371.287792 
L 749.935195 370.388154 
L 767.992075 367.227867 
L 786.048955 366.692924 
L 804.105835 365.322233 
L 822.162715 365.422554 
L 840.219595 360.723443 
L 858.276475 366.781313 
L 876.333355 364.248299 
L 894.390235 363.405618 
L 912.447115 362.367555 
L 930.503995 361.845381 
L 948.560875 360.903135 
L 948.560875 211.99692 
L 948.560875 211.99692 
L 930.503995 216.305533 
L 912.447115 217.614383 
L 894.390235 223.901563 
L 876.333355 226.255788 
L 858.276475 227.52667 
L 840.219595 217.918953 
L 822.162715 226.028668 
L 804.105835 228.089553 
L 786.048955 229.988974 
L 767.992075 230.212396 
L 749.935195 235.801226 
L 731.878315 243.562766 
L 713.821435 249.013282 
L 695.764555 257.41861 
L 677.707675 264.378565 
L 659.650795 271.717092 
L 641.593915 276.221332 
L 623.537035 292.584093 
L 605.480155 296.187334 
L 587.423275 306.632392 
L 569.366395 325.350341 
L 551.309515 325.943533 
L 533.252635 347.946957 
L 515.195755 380.975663 
L 497.138875 386.9328 
L 479.081995 387.069503 
L 461.025115 390.148119 
L 442.968235 394.921024 
L 424.911355 396.691184 
L 406.854475 400.17165 
L 388.797595 403.327883 
L 370.740715 406.734844 
L 352.683835 398.068363 
L 334.626955 403.446473 
L 316.570075 402.623285 
L 298.513195 407.057813 
L 280.456315 401.843846 
L 262.399435 403.601506 
L 244.342555 407.975897 
L 226.285675 402.577749 
L 208.228795 402.645093 
L 190.171915 405.374167 
L 172.115035 406.531059 
L 154.058155 411.049301 
L 136.001275 412.554557 
L 117.944395 413.85398 
L 99.887515 411.433084 
L 81.830635 414.928179 
L 63.773755 412.665501 
L 45.716875 413.825481 
z
" clip-path="url(#p0d748d12c7)" style="fill: #8eba42"/>
   </g>
   <g id="PolyCollection_7">
    <path d="M 45.716875 361.029361 
L 45.716875 413.825481 
L 63.773755 412.665501 
L 81.830635 414.928179 
L 99.887515 411.433084 
L 117.944395 413.85398 
L 136.001275 412.554557 
L 154.058155 411.049301 
L 172.115035 406.531059 
L 190.171915 405.374167 
L 208.228795 402.645093 
L 226.285675 402.577749 
L 244.342555 407.975897 
L 262.399435 403.601506 
L 280.456315 401.843846 
L 298.513195 407.057813 
L 316.570075 402.623285 
L 334.626955 403.446473 
L 352.683835 398.068363 
L 370.740715 406.734844 
L 388.797595 403.327883 
L 406.854475 400.17165 
L 424.911355 396.691184 
L 442.968235 394.921024 
L 461.025115 390.148119 
L 479.081995 387.069503 
L 497.138875 386.9328 
L 515.195755 380.975663 
L 533.252635 347.946957 
L 551.309515 325.943533 
L 569.366395 325.350341 
L 587.423275 306.632392 
L 605.480155 296.187334 
L 623.537035 292.584093 
L 641.593915 276.221332 
L 659.650795 271.717092 
L 677.707675 264.378565 
L 695.764555 257.41861 
L 713.821435 249.013282 
L 731.878315 243.562766 
L 749.935195 235.801226 
L 767.992075 230.212396 
L 786.048955 229.988974 
L 804.105835 228.089553 
L 822.162715 226.028668 
L 840.219595 217.918953 
L 858.276475 227.52667 
L 876.333355 226.255788 
L 894.390235 223.901563 
L 912.447115 217.614383 
L 930.503995 216.305533 
L 948.560875 211.99692 
L 948.560875 160.511585 
L 948.560875 160.511585 
L 930.503995 163.183985 
L 912.447115 163.138874 
L 894.390235 169.205487 
L 876.333355 168.116972 
L 858.276475 166.411835 
L 840.219595 158.388357 
L 822.162715 169.459519 
L 804.105835 172.425229 
L 786.048955 175.379159 
L 767.992075 173.502673 
L 749.935195 177.108908 
L 731.878315 183.170631 
L 713.821435 187.293946 
L 695.764555 192.776236 
L 677.707675 199.050075 
L 659.650795 198.797454 
L 641.593915 198.093392 
L 623.537035 205.809061 
L 605.480155 201.270462 
L 587.423275 204.368838 
L 569.366395 220.851948 
L 551.309515 217.439779 
L 533.252635 225.682305 
L 515.195755 226.169027 
L 497.138875 227.012693 
L 479.081995 230.198743 
L 461.025115 234.710848 
L 442.968235 233.791858 
L 424.911355 235.173745 
L 406.854475 243.800683 
L 388.797595 246.485225 
L 370.740715 248.380874 
L 352.683835 249.775072 
L 334.626955 258.783667 
L 316.570075 257.310199 
L 298.513195 250.564355 
L 280.456315 264.850053 
L 262.399435 267.464457 
L 244.342555 282.143724 
L 226.285675 281.951606 
L 208.228795 285.64269 
L 190.171915 294.999545 
L 172.115035 301.012263 
L 154.058155 304.027052 
L 136.001275 312.075947 
L 117.944395 320.438617 
L 99.887515 324.076409 
L 81.830635 331.911135 
L 63.773755 342.073535 
L 45.716875 361.029361 
z
" clip-path="url(#p0d748d12c7)" style="fill: #ffb5b8"/>
   </g>
   <g id="PolyCollection_8">
    <path d="M 45.716875 216.455628 
L 45.716875 361.029361 
L 63.773755 342.073535 
L 81.830635 331.911135 
L 99.887515 324.076409 
L 117.944395 320.438617 
L 136.001275 312.075947 
L 154.058155 304.027052 
L 172.115035 301.012263 
L 190.171915 294.999545 
L 208.228795 285.64269 
L 226.285675 281.951606 
L 244.342555 282.143724 
L 262.399435 267.464457 
L 280.456315 264.850053 
L 298.513195 250.564355 
L 316.570075 257.310199 
L 334.626955 258.783667 
L 352.683835 249.775072 
L 370.740715 248.380874 
L 388.797595 246.485225 
L 406.854475 243.800683 
L 424.911355 235.173745 
L 442.968235 233.791858 
L 461.025115 234.710848 
L 479.081995 230.198743 
L 497.138875 227.012693 
L 515.195755 226.169027 
L 533.252635 225.682305 
L 551.309515 217.439779 
L 569.366395 220.851948 
L 587.423275 204.368838 
L 605.480155 201.270462 
L 623.537035 205.809061 
L 641.593915 198.093392 
L 659.650795 198.797454 
L 677.707675 199.050075 
L 695.764555 192.776236 
L 713.821435 187.293946 
L 731.878315 183.170631 
L 749.935195 177.108908 
L 767.992075 173.502673 
L 786.048955 175.379159 
L 804.105835 172.425229 
L 822.162715 169.459519 
L 840.219595 158.388357 
L 858.276475 166.411835 
L 876.333355 168.116972 
L 894.390235 169.205487 
L 912.447115 163.138874 
L 930.503995 163.183985 
L 948.560875 160.511585 
L 948.560875 133.906906 
L 948.560875 133.906906 
L 930.503995 136.248035 
L 912.447115 135.943023 
L 894.390235 141.419607 
L 876.333355 140.606155 
L 858.276475 137.888693 
L 840.219595 128.438949 
L 822.162715 138.895527 
L 804.105835 140.238617 
L 786.048955 141.679764 
L 767.992075 139.48738 
L 749.935195 142.979185 
L 731.878315 146.021562 
L 713.821435 144.008363 
L 695.764555 141.746549 
L 677.707675 145.292164 
L 659.650795 145.871813 
L 641.593915 143.832159 
L 623.537035 148.779178 
L 605.480155 145.72031 
L 587.423275 148.075515 
L 569.366395 168.116039 
L 551.309515 161.30976 
L 533.252635 166.34079 
L 515.195755 166.023023 
L 497.138875 164.983852 
L 479.081995 168.542908 
L 461.025115 175.968107 
L 442.968235 176.698748 
L 424.911355 175.220316 
L 406.854475 185.289828 
L 388.797595 189.04112 
L 370.740715 190.568982 
L 352.683835 188.856566 
L 334.626955 195.705342 
L 316.570075 192.061991 
L 298.513195 184.428666 
L 280.456315 193.247009 
L 262.399435 190.337499 
L 244.342555 197.106237 
L 226.285675 193.669624 
L 208.228795 193.727538 
L 190.171915 196.919106 
L 172.115035 203.114226 
L 154.058155 198.631048 
L 136.001275 197.528645 
L 117.944395 197.983542 
L 99.887515 199.588736 
L 81.830635 207.17013 
L 63.773755 210.038501 
L 45.716875 216.455628 
z
" clip-path="url(#p0d748d12c7)" style="fill: #e24a33"/>
   </g>
   <g id="PolyCollection_9">
    <path d="M 45.716875 159.191901 
L 45.716875 216.455628 
L 63.773755 210.038501 
L 81.830635 207.17013 
L 99.887515 199.588736 
L 117.944395 197.983542 
L 136.001275 197.528645 
L 154.058155 198.631048 
L 172.115035 203.114226 
L 190.171915 196.919106 
L 208.228795 193.727538 
L 226.285675 193.669624 
L 244.342555 197.106237 
L 262.399435 190.337499 
L 280.456315 193.247009 
L 298.513195 184.428666 
L 316.570075 192.061991 
L 334.626955 195.705342 
L 352.683835 188.856566 
L 370.740715 190.568982 
L 388.797595 189.04112 
L 406.854475 185.289828 
L 424.911355 175.220316 
L 442.968235 176.698748 
L 461.025115 175.968107 
L 479.081995 168.542908 
L 497.138875 164.983852 
L 515.195755 166.023023 
L 533.252635 166.34079 
L 551.309515 161.30976 
L 569.366395 168.116039 
L 587.423275 148.075515 
L 605.480155 145.72031 
L 623.537035 148.779178 
L 641.593915 143.832159 
L 659.650795 145.871813 
L 677.707675 145.292164 
L 695.764555 141.746549 
L 713.821435 144.008363 
L 731.878315 146.021562 
L 749.935195 142.979185 
L 767.992075 139.48738 
L 786.048955 141.679764 
L 804.105835 140.238617 
L 822.162715 138.895527 
L 840.219595 128.438949 
L 858.276475 137.888693 
L 876.333355 140.606155 
L 894.390235 141.419607 
L 912.447115 135.943023 
L 930.503995 136.248035 
L 948.560875 133.906906 
L 948.560875 108.754729 
L 948.560875 108.754729 
L 930.503995 110.613597 
L 912.447115 110.278718 
L 894.390235 113.2969 
L 876.333355 112.657366 
L 858.276475 110.570034 
L 840.219595 99.11559 
L 822.162715 108.740417 
L 804.105835 109.739886 
L 786.048955 109.057145 
L 767.992075 106.110277 
L 749.935195 108.130557 
L 731.878315 113.048899 
L 713.821435 112.832305 
L 695.764555 106.968896 
L 677.707675 109.843719 
L 659.650795 110.28346 
L 641.593915 111.004165 
L 623.537035 116.486919 
L 605.480155 110.644649 
L 587.423275 109.043873 
L 569.366395 127.438021 
L 551.309515 118.892555 
L 533.252635 124.008399 
L 515.195755 123.58242 
L 497.138875 120.20763 
L 479.081995 123.656931 
L 461.025115 132.748312 
L 442.968235 133.314102 
L 424.911355 131.679655 
L 406.854475 140.389269 
L 388.797595 146.159597 
L 370.740715 146.078333 
L 352.683835 141.331555 
L 334.626955 150.989863 
L 316.570075 149.372731 
L 298.513195 142.05004 
L 280.456315 147.846769 
L 262.399435 144.018113 
L 244.342555 150.977237 
L 226.285675 145.678303 
L 208.228795 145.667302 
L 190.171915 148.537506 
L 172.115035 153.764613 
L 154.058155 147.877343 
L 136.001275 145.153975 
L 117.944395 144.299029 
L 99.887515 145.356266 
L 81.830635 151.745087 
L 63.773755 153.526646 
L 45.716875 159.191901 
z
" clip-path="url(#p0d748d12c7)" style="fill: #348abd"/>
   </g>
   <g id="PolyCollection_10">
    <path d="M 45.716875 69.075667 
L 45.716875 159.191901 
L 63.773755 153.526646 
L 81.830635 151.745087 
L 99.887515 145.356266 
L 117.944395 144.299029 
L 136.001275 145.153975 
L 154.058155 147.877343 
L 172.115035 153.764613 
L 190.171915 148.537506 
L 208.228795 145.667302 
L 226.285675 145.678303 
L 244.342555 150.977237 
L 262.399435 144.018113 
L 280.456315 147.846769 
L 298.513195 142.05004 
L 316.570075 149.372731 
L 334.626955 150.989863 
L 352.683835 141.331555 
L 370.740715 146.078333 
L 388.797595 146.159597 
L 406.854475 140.389269 
L 424.911355 131.679655 
L 442.968235 133.314102 
L 461.025115 132.748312 
L 479.081995 123.656931 
L 497.138875 120.20763 
L 515.195755 123.58242 
L 533.252635 124.008399 
L 551.309515 118.892555 
L 569.366395 127.438021 
L 587.423275 109.043873 
L 605.480155 110.644649 
L 623.537035 116.486919 
L 641.593915 111.004165 
L 659.650795 110.28346 
L 677.707675 109.843719 
L 695.764555 106.968896 
L 713.821435 112.832305 
L 731.878315 113.048899 
L 749.935195 108.130557 
L 767.992075 106.110277 
L 786.048955 109.057145 
L 804.105835 109.739886 
L 822.162715 108.740417 
L 840.219595 99.11559 
L 858.276475 110.570034 
L 876.333355 112.657366 
L 894.390235 113.2969 
L 912.447115 110.278718 
L 930.503995 110.613597 
L 948.560875 108.754729 
L 948.560875 42.281295 
L 948.560875 42.281295 
L 930.503995 42.297872 
L 912.447115 42.566462 
L 894.390235 42.752435 
L 876.333355 43.132926 
L 858.276475 43.555693 
L 840.219595 44.453193 
L 822.162715 44.266779 
L 804.105835 44.967462 
L 786.048955 45.314476 
L 767.992075 46.064573 
L 749.935195 46.025473 
L 731.878315 46.375878 
L 713.821435 46.419469 
L 695.764555 47.316508 
L 677.707675 47.597741 
L 659.650795 48.220727 
L 641.593915 48.46799 
L 623.537035 48.818831 
L 605.480155 50.438174 
L 587.423275 50.619545 
L 569.366395 50.068662 
L 551.309515 51.297355 
L 533.252635 51.782204 
L 515.195755 52.494699 
L 497.138875 53.38495 
L 479.081995 53.974553 
L 461.025115 54.574171 
L 442.968235 54.820381 
L 424.911355 55.014874 
L 406.854475 55.674947 
L 388.797595 55.85235 
L 370.740715 55.755444 
L 352.683835 57.891194 
L 334.626955 57.309065 
L 316.570075 58.569819 
L 298.513195 58.416253 
L 280.456315 60.625936 
L 262.399435 61.321454 
L 244.342555 61.612605 
L 226.285675 63.51409 
L 208.228795 64.027312 
L 190.171915 65.000698 
L 172.115035 65.108131 
L 154.058155 64.972977 
L 136.001275 64.553487 
L 117.944395 65.957248 
L 99.887515 65.368044 
L 81.830635 65.618264 
L 63.773755 67.386244 
L 45.716875 69.075667 
z
" clip-path="url(#p0d748d12c7)" style="fill: #988ed5"/>
   </g>
   <g id="PolyCollection_11">
    <path d="M 45.716875 31.88943 
L 45.716875 69.075667 
L 63.773755 67.386244 
L 81.830635 65.618264 
L 99.887515 65.368044 
L 117.944395 65.957248 
L 136.001275 64.553487 
L 154.058155 64.972977 
L 172.115035 65.108131 
L 190.171915 65.000698 
L 208.228795 64.027312 
L 226.285675 63.51409 
L 244.342555 61.612605 
L 262.399435 61.321454 
L 280.456315 60.625936 
L 298.513195 58.416253 
L 316.570075 58.569819 
L 334.626955 57.309065 
L 352.683835 57.891194 
L 370.740715 55.755444 
L 388.797595 55.85235 
L 406.854475 55.674947 
L 424.911355 55.014874 
L 442.968235 54.820381 
L 461.025115 54.574171 
L 479.081995 53.974553 
L 497.138875 53.38495 
L 515.195755 52.494699 
L 533.252635 51.782204 
L 551.309515 51.297355 
L 569.366395 50.068662 
L 587.423275 50.619545 
L 605.480155 50.438174 
L 623.537035 48.818831 
L 641.593915 48.46799 
L 659.650795 48.220727 
L 677.707675 47.597741 
L 695.764555 47.316508 
L 713.821435 46.419469 
L 731.878315 46.375878 
L 749.935195 46.025473 
L 767.992075 46.064573 
L 786.048955 45.314476 
L 804.105835 44.967462 
L 822.162715 44.266779 
L 840.219595 44.453193 
L 858.276475 43.555693 
L 876.333355 43.132926 
L 894.390235 42.752435 
L 912.447115 42.566462 
L 930.503995 42.297872 
L 948.560875 42.281295 
L 948.560875 27.343775 
L 948.560875 27.343775 
L 930.503995 27.34234 
L 912.447115 27.408713 
L 894.390235 27.408976 
L 876.333355 27.459255 
L 858.276475 27.519721 
L 840.219595 27.695592 
L 822.162715 27.657324 
L 804.105835 27.783 
L 786.048955 27.849279 
L 767.992075 27.943904 
L 749.935195 27.955195 
L 731.878315 28.017862 
L 713.821435 28.046314 
L 695.764555 28.197912 
L 677.707675 28.251829 
L 659.650795 28.380036 
L 641.593915 28.374835 
L 623.537035 28.378763 
L 605.480155 28.548974 
L 587.423275 28.561703 
L 569.366395 28.502971 
L 551.309515 28.677489 
L 533.252635 28.850655 
L 515.195755 28.966162 
L 497.138875 29.087485 
L 479.081995 29.204966 
L 461.025115 29.346326 
L 442.968235 29.315593 
L 424.911355 29.385095 
L 406.854475 29.447807 
L 388.797595 29.484262 
L 370.740715 29.528294 
L 352.683835 29.914009 
L 334.626955 29.789248 
L 316.570075 29.98502 
L 298.513195 29.997392 
L 280.456315 30.45718 
L 262.399435 30.526848 
L 244.342555 30.620722 
L 226.285675 30.90372 
L 208.228795 31.020793 
L 190.171915 31.099735 
L 172.115035 30.864105 
L 154.058155 31.040252 
L 136.001275 31.300649 
L 117.944395 31.654862 
L 99.887515 31.625809 
L 81.830635 31.729053 
L 63.773755 31.871853 
L 45.716875 31.88943 
z
" clip-path="url(#p0d748d12c7)" style="fill: #777777"/>
   </g>
   <g id="PolyCollection_12">
    <path d="M 45.716875 24.187052 
L 45.716875 31.88943 
L 63.773755 31.871853 
L 81.830635 31.729053 
L 99.887515 31.625809 
L 117.944395 31.654862 
L 136.001275 31.300649 
L 154.058155 31.040252 
L 172.115035 30.864105 
L 190.171915 31.099735 
L 208.228795 31.020793 
L 226.285675 30.90372 
L 244.342555 30.620722 
L 262.399435 30.526848 
L 280.456315 30.45718 
L 298.513195 29.997392 
L 316.570075 29.98502 
L 334.626955 29.789248 
L 352.683835 29.914009 
L 370.740715 29.528294 
L 388.797595 29.484262 
L 406.854475 29.447807 
L 424.911355 29.385095 
L 442.968235 29.315593 
L 461.025115 29.346326 
L 479.081995 29.204966 
L 497.138875 29.087485 
L 515.195755 28.966162 
L 533.252635 28.850655 
L 551.309515 28.677489 
L 569.366395 28.502971 
L 587.423275 28.561703 
L 605.480155 28.548974 
L 623.537035 28.378763 
L 641.593915 28.374835 
L 659.650795 28.380036 
L 677.707675 28.251829 
L 695.764555 28.197912 
L 713.821435 28.046314 
L 731.878315 28.017862 
L 749.935195 27.955195 
L 767.992075 27.943904 
L 786.048955 27.849279 
L 804.105835 27.783 
L 822.162715 27.657324 
L 840.219595 27.695592 
L 858.276475 27.519721 
L 876.333355 27.459255 
L 894.390235 27.408976 
L 912.447115 27.408713 
L 930.503995 27.34234 
L 948.560875 27.343775 
L 948.560875 24.145444 
L 948.560875 24.145444 
L 930.503995 24.142613 
L 912.447115 24.142831 
L 894.390235 24.14175 
L 876.333355 24.14273 
L 858.276475 24.143858 
L 840.219595 24.146437 
L 822.162715 24.146817 
L 804.105835 24.149995 
L 786.048955 24.150779 
L 767.992075 24.150485 
L 749.935195 24.147974 
L 731.878315 24.149827 
L 713.821435 24.148066 
L 695.764555 24.151318 
L 677.707675 24.150353 
L 659.650795 24.150761 
L 641.593915 24.148817 
L 623.537035 24.148914 
L 605.480155 24.146799 
L 587.423275 24.151324 
L 569.366395 24.151574 
L 551.309515 24.153205 
L 533.252635 24.155563 
L 515.195755 24.155239 
L 497.138875 24.15628 
L 479.081995 24.15624 
L 461.025115 24.156786 
L 442.968235 24.152879 
L 424.911355 24.155005 
L 406.854475 24.159401 
L 388.797595 24.155867 
L 370.740715 24.155121 
L 352.683835 24.157337 
L 334.626955 24.158486 
L 316.570075 24.165049 
L 298.513195 24.167027 
L 280.456315 24.169107 
L 262.399435 24.169963 
L 244.342555 24.170235 
L 226.285675 24.171742 
L 208.228795 24.169943 
L 190.171915 24.171411 
L 172.115035 24.165098 
L 154.058155 24.16725 
L 136.001275 24.171212 
L 117.944395 24.168377 
L 99.887515 24.172475 
L 81.830635 24.175603 
L 63.773755 24.179237 
L 45.716875 24.187052 
z
" clip-path="url(#p0d748d12c7)" style="fill: #fbc15e"/>
   </g>
   <g id="patch_3">
    <path d="M 45.716875 567.74175 
L 45.716875 24.14175 
" style="fill: none; stroke: #ffffff; stroke-linejoin: miter; stroke-linecap: square"/>
   </g>
   <g id="patch_4">
    <path d="M 948.560875 567.74175 
L 948.560875 24.14175 
" style="fill: none; stroke: #ffffff; stroke-linejoin: miter; stroke-linecap: square"/>
   </g>
   <g id="patch_5">
    <path d="M 45.716875 567.74175 
L 948.560875 567.74175 
" style="fill: none; stroke: #ffffff; stroke-linejoin: miter; stroke-linecap: square"/>
   </g>
   <g id="patch_6">
    <path d="M 45.716875 24.14175 
L 948.560875 24.14175 
" style="fill: none; stroke: #ffffff; stroke-linejoin: miter; stroke-linecap: square"/>
   </g>
   <g id="text_19">
    <!-- Rocky Linux Instances by Version Share -->
    <g transform="translate(45.716875 18.14175)scale(0.144 -0.144)">
     <defs>
      <path id="DejaVuSans-52" d="M 2841 2188 
Q 3044 2119 3236 1894 
Q 3428 1669 3622 1275 
L 4263 0 
L 3584 0 
L 2988 1197 
Q 2756 1666 2539 1819 
Q 2322 1972 1947 1972 
L 1259 1972 
L 1259 0 
L 628 0 
L 628 4666 
L 2053 4666 
Q 2853 4666 3247 4331 
Q 3641 3997 3641 3322 
Q 3641 2881 3436 2590 
Q 3231 2300 2841 2188 
z
M 1259 4147 
L 1259 2491 
L 2053 2491 
Q 2509 2491 2742 2702 
Q 2975 2913 2975 3322 
Q 2975 3731 2742 3939 
Q 2509 4147 2053 4147 
L 1259 4147 
z
" transform="scale(0.015625)"/>
      <path id="DejaVuSans-6b" d="M 581 4863 
L 1159 4863 
L 1159 1991 
L 2875 3500 
L 3609 3500 
L 1753 1863 
L 3688 0 
L 2938 0 
L 1159 1709 
L 1159 0 
L 581 0 
L 581 4863 
z
" transform="scale(0.015625)"/>
      <path id="DejaVuSans-79" d="M 2059 -325 
Q 1816 -950 1584 -1140 
Q 1353 -1331 966 -1331 
L 506 -1331 
L 506 -850 
L 844 -850 
Q 1081 -850 1212 -737 
Q 1344 -625 1503 -206 
L 1606 56 
L 191 3500 
L 800 3500 
L 1894 763 
L 2988 3500 
L 3597 3500 
L 2059 -325 
z
" transform="scale(0.015625)"/>
      <path id="DejaVuSans-4c" d="M 628 4666 
L 1259 4666 
L 1259 531 
L 3531 531 
L 3531 0 
L 628 0 
L 628 4666 
z
" transform="scale(0.015625)"/>
      <path id="DejaVuSans-69" d="M 603 3500 
L 1178 3500 
L 1178 0 
L 603 0 
L 603 3500 
z
M 603 4863 
L 1178 4863 
L 1178 4134 
L 603 4134 
L 603 4863 
z
" transform="scale(0.015625)"/>
      <path id="DejaVuSans-75" d="M 544 1381 
L 544 3500 
L 1119 3500 
L 1119 1403 
Q 1119 906 1312 657 
Q 1506 409 1894 409 
Q 2359 409 2629 706 
Q 2900 1003 2900 1516 
L 2900 3500 
L 3475 3500 
L 3475 0 
L 2900 0 
L 2900 538 
Q 2691 219 2414 64 
Q 2138 -91 1772 -91 
Q 1169 -91 856 284 
Q 544 659 544 1381 
z
M 1991 3584 
L 1991 3584 
z
" transform="scale(0.015625)"/>
      <path id="DejaVuSans-78" d="M 3513 3500 
L 2247 1797 
L 3578 0 
L 2900 0 
L 1881 1375 
L 863 0 
L 184 0 
L 1544 1831 
L 300 3500 
L 978 3500 
L 1906 2253 
L 2834 3500 
L 3513 3500 
z
" transform="scale(0.015625)"/>
      <path id="DejaVuSans-62" d="M 3116 1747 
Q 3116 2381 2855 2742 
Q 2594 3103 2138 3103 
Q 1681 3103 1420 2742 
Q 1159 2381 1159 1747 
Q 1159 1113 1420 752 
Q 1681 391 2138 391 
Q 2594 391 2855 752 
Q 3116 1113 3116 1747 
z
M 1159 2969 
Q 1341 3281 1617 3432 
Q 1894 3584 2278 3584 
Q 2916 3584 3314 3078 
Q 3713 2572 3713 1747 
Q 3713 922 3314 415 
Q 2916 -91 2278 -91 
Q 1894 -91 1617 61 
Q 1341 213 1159 525 
L 1159 0 
L 581 0 
L 581 4863 
L 1159 4863 
L 1159 2969 
z
" transform="scale(0.015625)"/>
      <path id="DejaVuSans-56" d="M 1831 0 
L 50 4666 
L 709 4666 
L 2188 738 
L 3669 4666 
L 4325 4666 
L 2547 0 
L 1831 0 
z
" transform="scale(0.015625)"/>
     </defs>
     <use xlink:href="#DejaVuSans-52"/>
     <use xlink:href="#DejaVuSans-6f" x="64.982422"/>
     <use xlink:href="#DejaVuSans-63" x="126.164062"/>
     <use xlink:href="#DejaVuSans-6b" x="181.144531"/>
     <use xlink:href="#DejaVuSans-79" x="235.429688"/>
     <use xlink:href="#DejaVuSans-20" x="294.609375"/>
     <use xlink:href="#DejaVuSans-4c" x="326.396484"/>
     <use xlink:href="#DejaVuSans-69" x="382.109375"/>
     <use xlink:href="#DejaVuSans-6e" x="409.892578"/>
     <use xlink:href="#DejaVuSans-75" x="473.271484"/>
     <use xlink:href="#DejaVuSans-78" x="536.650391"/>
     <use xlink:href="#DejaVuSans-20" x="595.830078"/>
     <use xlink:href="#DejaVuSans-49" x="627.617188"/>
     <use xlink:href="#DejaVuSans-6e" x="657.109375"/>
     <use xlink:href="#DejaVuSans-73" x="720.488281"/>
     <use xlink:href="#DejaVuSans-74" x="772.587891"/>
     <use xlink:href="#DejaVuSans-61" x="811.796875"/>
     <use xlink:href="#DejaVuSans-6e" x="873.076172"/>
     <use xlink:href="#DejaVuSans-63" x="936.455078"/>
     <use xlink:href="#DejaVuSans-65" x="991.435547"/>
     <use xlink:href="#DejaVuSans-73" x="1052.958984"/>
     <use xlink:href="#DejaVuSans-20" x="1105.058594"/>
     <use xlink:href="#DejaVuSans-62" x="1136.845703"/>
     <use xlink:href="#DejaVuSans-79" x="1200.322266"/>
     <use xlink:href="#DejaVuSans-20" x="1259.501953"/>
     <use xlink:href="#DejaVuSans-56" x="1291.289062"/>
     <use xlink:href="#DejaVuSans-65" x="1351.947266"/>
     <use xlink:href="#DejaVuSans-72" x="1413.470703"/>
     <use xlink:href="#DejaVuSans-73" x="1454.583984"/>
     <use xlink:href="#DejaVuSans-69" x="1506.683594"/>
     <use xlink:href="#DejaVuSans-6f" x="1534.466797"/>
     <use xlink:href="#DejaVuSans-6e" x="1595.648438"/>
     <use xlink:href="#DejaVuSans-20" x="1659.027344"/>
     <use xlink:href="#DejaVuSans-53" x="1690.814453"/>
     <use xlink:href="#DejaVuSans-68" x="1754.291016"/>
     <use xlink:href="#DejaVuSans-61" x="1817.669922"/>
     <use xlink:href="#DejaVuSans-72" x="1878.949219"/>
     <use xlink:href="#DejaVuSans-65" x="1917.8125"/>
    </g>
   </g>
   <g id="text_20">
    <!-- 2024-11-28 11:54 UTC -->
    <g transform="translate(785.678875 18.14175)scale(0.144 -0.144)">
     <defs>
      <path id="DejaVuSans-3a" d="M 750 794 
L 1409 794 
L 1409 0 
L 750 0 
L 750 794 
z
M 750 3309 
L 1409 3309 
L 1409 2516 
L 750 2516 
L 750 3309 
z
" transform="scale(0.015625)"/>
      <path id="DejaVuSans-55" d="M 556 4666 
L 1191 4666 
L 1191 1831 
Q 1191 1081 1462 751 
Q 1734 422 2344 422 
Q 2950 422 3222 751 
Q 3494 1081 3494 1831 
L 3494 4666 
L 4128 4666 
L 4128 1753 
Q 4128 841 3676 375 
Q 3225 -91 2344 -91 
Q 1459 -91 1007 375 
Q 556 841 556 1753 
L 556 4666 
z
" transform="scale(0.015625)"/>
      <path id="DejaVuSans-54" d="M -19 4666 
L 3928 4666 
L 3928 4134 
L 2272 4134 
L 2272 0 
L 1638 0 
L 1638 4134 
L -19 4134 
L -19 4666 
z
" transform="scale(0.015625)"/>
      <path id="DejaVuSans-43" d="M 4122 4306 
L 4122 3641 
Q 3803 3938 3442 4084 
Q 3081 4231 2675 4231 
Q 1875 4231 1450 3742 
Q 1025 3253 1025 2328 
Q 1025 1406 1450 917 
Q 1875 428 2675 428 
Q 3081 428 3442 575 
Q 3803 722 4122 1019 
L 4122 359 
Q 3791 134 3420 21 
Q 3050 -91 2638 -91 
Q 1578 -91 968 557 
Q 359 1206 359 2328 
Q 359 3453 968 4101 
Q 1578 4750 2638 4750 
Q 3056 4750 3426 4639 
Q 3797 4528 4122 4306 
z
" transform="scale(0.015625)"/>
     </defs>
     <use xlink:href="#DejaVuSans-32"/>
     <use xlink:href="#DejaVuSans-30" x="63.623047"/>
     <use xlink:href="#DejaVuSans-32" x="127.246094"/>
     <use xlink:href="#DejaVuSans-34" x="190.869141"/>
     <use xlink:href="#DejaVuSans-2d" x="254.492188"/>
     <use xlink:href="#DejaVuSans-31" x="290.576172"/>
     <use xlink:href="#DejaVuSans-31" x="354.199219"/>
     <use xlink:href="#DejaVuSans-2d" x="417.822266"/>
     <use xlink:href="#DejaVuSans-32" x="453.90625"/>
     <use xlink:href="#DejaVuSans-38" x="517.529297"/>
     <use xlink:href="#DejaVuSans-20" x="581.152344"/>
     <use xlink:href="#DejaVuSans-31" x="612.939453"/>
     <use xlink:href="#DejaVuSans-31" x="676.5625"/>
     <use xlink:href="#DejaVuSans-3a" x="740.185547"/>
     <use xlink:href="#DejaVuSans-35" x="773.876953"/>
     <use xlink:href="#DejaVuSans-34" x="837.5"/>
     <use xlink:href="#DejaVuSans-20" x="901.123047"/>
     <use xlink:href="#DejaVuSans-55" x="932.910156"/>
     <use xlink:href="#DejaVuSans-54" x="1006.103516"/>
     <use xlink:href="#DejaVuSans-43" x="1061.3125"/>
    </g>
   </g>
   <g id="legend_1">
    <g id="patch_7">
     <path d="M 52.716875 222.957375 
L 106.9825 222.957375 
Q 108.9825 222.957375 108.9825 220.957375 
L 108.9825 31.14175 
Q 108.9825 29.14175 106.9825 29.14175 
L 52.716875 29.14175 
Q 50.716875 29.14175 50.716875 31.14175 
L 50.716875 220.957375 
Q 50.716875 222.957375 52.716875 222.957375 
z
" style="fill: #e5e5e5; opacity: 0.8; stroke: #cccccc; stroke-width: 0.5; stroke-linejoin: miter"/>
    </g>
    <g id="text_21">
     <!-- Version -->
     <g transform="translate(61.462969 40.740187)scale(0.1 -0.1)">
      <use xlink:href="#DejaVuSans-56"/>
      <use xlink:href="#DejaVuSans-65" x="60.658203"/>
      <use xlink:href="#DejaVuSans-72" x="122.181641"/>
      <use xlink:href="#DejaVuSans-73" x="163.294922"/>
      <use xlink:href="#DejaVuSans-69" x="215.394531"/>
      <use xlink:href="#DejaVuSans-6f" x="243.177734"/>
      <use xlink:href="#DejaVuSans-6e" x="304.359375"/>
     </g>
    </g>
    <g id="patch_8">
     <path d="M 54.716875 55.418312 
L 74.716875 55.418312 
L 74.716875 48.418312 
L 54.716875 48.418312 
z
" style="fill: #e24a33"/>
    </g>
    <g id="text_22">
     <!-- 9.4 -->
     <g transform="translate(82.716875 55.418312)scale(0.1 -0.1)">
      <use xlink:href="#DejaVuSans-39"/>
      <use xlink:href="#DejaVuSans-2e" x="63.623047"/>
      <use xlink:href="#DejaVuSans-34" x="95.410156"/>
     </g>
    </g>
    <g id="patch_9">
     <path d="M 54.716875 70.096437 
L 74.716875 70.096437 
L 74.716875 63.096437 
L 54.716875 63.096437 
z
" style="fill: #348abd"/>
    </g>
    <g id="text_23">
     <!-- 9.3 -->
     <g transform="translate(82.716875 70.096437)scale(0.1 -0.1)">
      <use xlink:href="#DejaVuSans-39"/>
      <use xlink:href="#DejaVuSans-2e" x="63.623047"/>
      <use xlink:href="#DejaVuSans-33" x="95.410156"/>
     </g>
    </g>
    <g id="patch_10">
     <path d="M 54.716875 84.774563 
L 74.716875 84.774563 
L 74.716875 77.774563 
L 54.716875 77.774563 
z
" style="fill: #988ed5"/>
    </g>
    <g id="text_24">
     <!-- 9.2 -->
     <g transform="translate(82.716875 84.774563)scale(0.1 -0.1)">
      <use xlink:href="#DejaVuSans-39"/>
      <use xlink:href="#DejaVuSans-2e" x="63.623047"/>
      <use xlink:href="#DejaVuSans-32" x="95.410156"/>
     </g>
    </g>
    <g id="patch_11">
     <path d="M 54.716875 99.452687 
L 74.716875 99.452687 
L 74.716875 92.452687 
L 54.716875 92.452687 
z
" style="fill: #777777"/>
    </g>
    <g id="text_25">
     <!-- 9.1 -->
     <g transform="translate(82.716875 99.452687)scale(0.1 -0.1)">
      <use xlink:href="#DejaVuSans-39"/>
      <use xlink:href="#DejaVuSans-2e" x="63.623047"/>
      <use xlink:href="#DejaVuSans-31" x="95.410156"/>
     </g>
    </g>
    <g id="patch_12">
     <path d="M 54.716875 114.130812 
L 74.716875 114.130812 
L 74.716875 107.130812 
L 54.716875 107.130812 
z
" style="fill: #fbc15e"/>
    </g>
    <g id="text_26">
     <!-- 9.0 -->
     <g transform="translate(82.716875 114.130812)scale(0.1 -0.1)">
      <use xlink:href="#DejaVuSans-39"/>
      <use xlink:href="#DejaVuSans-2e" x="63.623047"/>
      <use xlink:href="#DejaVuSans-30" x="95.410156"/>
     </g>
    </g>
    <g id="patch_13">
     <path d="M 54.716875 128.808937 
L 74.716875 128.808937 
L 74.716875 121.808937 
L 54.716875 121.808937 
z
" style="fill: #8eba42"/>
    </g>
    <g id="text_27">
     <!-- 8.10 -->
     <g transform="translate(82.716875 128.808937)scale(0.1 -0.1)">
      <use xlink:href="#DejaVuSans-38"/>
      <use xlink:href="#DejaVuSans-2e" x="63.623047"/>
      <use xlink:href="#DejaVuSans-31" x="95.410156"/>
      <use xlink:href="#DejaVuSans-30" x="159.033203"/>
     </g>
    </g>
    <g id="patch_14">
     <path d="M 54.716875 143.487062 
L 74.716875 143.487062 
L 74.716875 136.487062 
L 54.716875 136.487062 
z
" style="fill: #ffb5b8"/>
    </g>
    <g id="text_28">
     <!-- 8.9 -->
     <g transform="translate(82.716875 143.487062)scale(0.1 -0.1)">
      <use xlink:href="#DejaVuSans-38"/>
      <use xlink:href="#DejaVuSans-2e" x="63.623047"/>
      <use xlink:href="#DejaVuSans-39" x="95.410156"/>
     </g>
    </g>
    <g id="patch_15">
     <path d="M 54.716875 158.165187 
L 74.716875 158.165187 
L 74.716875 151.165187 
L 54.716875 151.165187 
z
" style="fill: #e24a33"/>
    </g>
    <g id="text_29">
     <!-- 8.8 -->
     <g transform="translate(82.716875 158.165187)scale(0.1 -0.1)">
      <use xlink:href="#DejaVuSans-38"/>
      <use xlink:href="#DejaVuSans-2e" x="63.623047"/>
      <use xlink:href="#DejaVuSans-38" x="95.410156"/>
     </g>
    </g>
    <g id="patch_16">
     <path d="M 54.716875 172.843312 
L 74.716875 172.843312 
L 74.716875 165.843312 
L 54.716875 165.843312 
z
" style="fill: #348abd"/>
    </g>
    <g id="text_30">
     <!-- 8.7 -->
     <g transform="translate(82.716875 172.843312)scale(0.1 -0.1)">
      <use xlink:href="#DejaVuSans-38"/>
      <use xlink:href="#DejaVuSans-2e" x="63.623047"/>
      <use xlink:href="#DejaVuSans-37" x="95.410156"/>
     </g>
    </g>
    <g id="patch_17">
     <path d="M 54.716875 187.521437 
L 74.716875 187.521437 
L 74.716875 180.521437 
L 54.716875 180.521437 
z
" style="fill: #988ed5"/>
    </g>
    <g id="text_31">
     <!-- 8.6 -->
     <g transform="translate(82.716875 187.521437)scale(0.1 -0.1)">
      <use xlink:href="#DejaVuSans-38"/>
      <use xlink:href="#DejaVuSans-2e" x="63.623047"/>
      <use xlink:href="#DejaVuSans-36" x="95.410156"/>
     </g>
    </g>
    <g id="patch_18">
     <path d="M 54.716875 202.199562 
L 74.716875 202.199562 
L 74.716875 195.199562 
L 54.716875 195.199562 
z
" style="fill: #777777"/>
    </g>
    <g id="text_32">
     <!-- 8.5 -->
     <g transform="translate(82.716875 202.199562)scale(0.1 -0.1)">
      <use xlink:href="#DejaVuSans-38"/>
      <use xlink:href="#DejaVuSans-2e" x="63.623047"/>
      <use xlink:href="#DejaVuSans-35" x="95.410156"/>
     </g>
    </g>
    <g id="patch_19">
     <path d="M 54.716875 216.877687 
L 74.716875 216.877687 
L 74.716875 209.877687 
L 54.716875 209.877687 
z
" style="fill: #fbc15e"/>
    </g>
    <g id="text_33">
     <!-- 8.4 -->
     <g transform="translate(82.716875 216.877687)scale(0.1 -0.1)">
      <use xlink:href="#DejaVuSans-38"/>
      <use xlink:href="#DejaVuSans-2e" x="63.623047"/>
      <use xlink:href="#DejaVuSans-34" x="95.410156"/>
     </g>
    </g>
   </g>
  </g>
 </g>
 <defs>
  <clipPath id="p0d748d12c7">
   <rect x="45.716875" y="24.14175" width="902.844" height="543.6"/>
  </clipPath>
 </defs>
</svg>
