<?xml version="1.0" encoding="utf-8" standalone="no"?>
<!DOCTYPE svg PUBLIC "-//W3C//DTD SVG 1.1//EN"
  "http://www.w3.org/Graphics/SVG/1.1/DTD/svg11.dtd">
<svg xmlns:xlink="http://www.w3.org/1999/xlink" width="955.760875pt" height="633.943878pt" viewBox="0 0 955.760875 633.943878" xmlns="http://www.w3.org/2000/svg" version="1.1">
 <metadata>
  <rdf:RDF xmlns:dc="http://purl.org/dc/elements/1.1/" xmlns:cc="http://creativecommons.org/ns#" xmlns:rdf="http://www.w3.org/1999/02/22-rdf-syntax-ns#">
   <cc:Work>
    <dc:type rdf:resource="http://purl.org/dc/dcmitype/StillImage"/>
    <dc:date>2024-03-14T11:55:26.656135</dc:date>
    <dc:format>image/svg+xml</dc:format>
    <dc:creator>
     <cc:Agent>
      <dc:title>Matplotlib v3.5.1, https://matplotlib.org/</dc:title>
     </cc:Agent>
    </dc:creator>
   </cc:Work>
  </rdf:RDF>
 </metadata>
 <defs>
  <style type="text/css">*{stroke-linejoin: round; stroke-linecap: butt}</style>
 </defs>
 <g id="figure_1">
  <g id="patch_1">
   <path d="M 0 633.943878 
L 955.760875 633.943878 
L 955.760875 0 
L 0 0 
z
" style="fill: #ffffff"/>
  </g>
  <g id="axes_1">
   <g id="patch_2">
    <path d="M 45.716875 567.74175 
L 948.560875 567.74175 
L 948.560875 24.14175 
L 45.716875 24.14175 
z
" style="fill: #e5e5e5"/>
   </g>
   <g id="matplotlib.axis_1">
    <g id="xtick_1">
     <g id="line2d_1">
      <path d="M 73.535598 567.74175 
L 73.535598 24.14175 
" clip-path="url(#p2f7d6d5ef7)" style="fill: none; stroke: #ffffff; stroke-width: 0.8; stroke-linecap: square"/>
     </g>
     <g id="line2d_2">
      <defs>
       <path id="m20f1d77c29" d="M 0 0 
L 0 3.5 
" style="stroke: #555555; stroke-width: 0.8"/>
      </defs>
      <g>
       <use xlink:href="#m20f1d77c29" x="73.535598" y="567.74175" style="fill: #555555; stroke: #555555; stroke-width: 0.8"/>
      </g>
     </g>
     <g id="text_1">
      <!-- 2023-03 -->
      <g style="fill: #555555" transform="translate(60.714315 609.659567)rotate(-45)scale(0.1 -0.1)">
       <defs>
        <path id="DejaVuSans-32" d="M 1228 531 
L 3431 531 
L 3431 0 
L 469 0 
L 469 531 
Q 828 903 1448 1529 
Q 2069 2156 2228 2338 
Q 2531 2678 2651 2914 
Q 2772 3150 2772 3378 
Q 2772 3750 2511 3984 
Q 2250 4219 1831 4219 
Q 1534 4219 1204 4116 
Q 875 4013 500 3803 
L 500 4441 
Q 881 4594 1212 4672 
Q 1544 4750 1819 4750 
Q 2544 4750 2975 4387 
Q 3406 4025 3406 3419 
Q 3406 3131 3298 2873 
Q 3191 2616 2906 2266 
Q 2828 2175 2409 1742 
Q 1991 1309 1228 531 
z
" transform="scale(0.015625)"/>
        <path id="DejaVuSans-30" d="M 2034 4250 
Q 1547 4250 1301 3770 
Q 1056 3291 1056 2328 
Q 1056 1369 1301 889 
Q 1547 409 2034 409 
Q 2525 409 2770 889 
Q 3016 1369 3016 2328 
Q 3016 3291 2770 3770 
Q 2525 4250 2034 4250 
z
M 2034 4750 
Q 2819 4750 3233 4129 
Q 3647 3509 3647 2328 
Q 3647 1150 3233 529 
Q 2819 -91 2034 -91 
Q 1250 -91 836 529 
Q 422 1150 422 2328 
Q 422 3509 836 4129 
Q 1250 4750 2034 4750 
z
" transform="scale(0.015625)"/>
        <path id="DejaVuSans-33" d="M 2597 2516 
Q 3050 2419 3304 2112 
Q 3559 1806 3559 1356 
Q 3559 666 3084 287 
Q 2609 -91 1734 -91 
Q 1441 -91 1130 -33 
Q 819 25 488 141 
L 488 750 
Q 750 597 1062 519 
Q 1375 441 1716 441 
Q 2309 441 2620 675 
Q 2931 909 2931 1356 
Q 2931 1769 2642 2001 
Q 2353 2234 1838 2234 
L 1294 2234 
L 1294 2753 
L 1863 2753 
Q 2328 2753 2575 2939 
Q 2822 3125 2822 3475 
Q 2822 3834 2567 4026 
Q 2313 4219 1838 4219 
Q 1578 4219 1281 4162 
Q 984 4106 628 3988 
L 628 4550 
Q 988 4650 1302 4700 
Q 1616 4750 1894 4750 
Q 2613 4750 3031 4423 
Q 3450 4097 3450 3541 
Q 3450 3153 3228 2886 
Q 3006 2619 2597 2516 
z
" transform="scale(0.015625)"/>
        <path id="DejaVuSans-2d" d="M 313 2009 
L 1997 2009 
L 1997 1497 
L 313 1497 
L 313 2009 
z
" transform="scale(0.015625)"/>
       </defs>
       <use xlink:href="#DejaVuSans-32"/>
       <use xlink:href="#DejaVuSans-30" x="63.623047"/>
       <use xlink:href="#DejaVuSans-32" x="127.246094"/>
       <use xlink:href="#DejaVuSans-33" x="190.869141"/>
       <use xlink:href="#DejaVuSans-2d" x="254.492188"/>
       <use xlink:href="#DejaVuSans-30" x="290.576172"/>
       <use xlink:href="#DejaVuSans-33" x="354.199219"/>
      </g>
     </g>
    </g>
    <g id="xtick_2">
     <g id="line2d_3">
      <path d="M 151.933816 567.74175 
L 151.933816 24.14175 
" clip-path="url(#p2f7d6d5ef7)" style="fill: none; stroke: #ffffff; stroke-width: 0.8; stroke-linecap: square"/>
     </g>
     <g id="line2d_4">
      <g>
       <use xlink:href="#m20f1d77c29" x="151.933816" y="567.74175" style="fill: #555555; stroke: #555555; stroke-width: 0.8"/>
      </g>
     </g>
     <g id="text_2">
      <!-- 2023-04 -->
      <g style="fill: #555555" transform="translate(139.112534 609.659567)rotate(-45)scale(0.1 -0.1)">
       <defs>
        <path id="DejaVuSans-34" d="M 2419 4116 
L 825 1625 
L 2419 1625 
L 2419 4116 
z
M 2253 4666 
L 3047 4666 
L 3047 1625 
L 3713 1625 
L 3713 1100 
L 3047 1100 
L 3047 0 
L 2419 0 
L 2419 1100 
L 313 1100 
L 313 1709 
L 2253 4666 
z
" transform="scale(0.015625)"/>
       </defs>
       <use xlink:href="#DejaVuSans-32"/>
       <use xlink:href="#DejaVuSans-30" x="63.623047"/>
       <use xlink:href="#DejaVuSans-32" x="127.246094"/>
       <use xlink:href="#DejaVuSans-33" x="190.869141"/>
       <use xlink:href="#DejaVuSans-2d" x="254.492188"/>
       <use xlink:href="#DejaVuSans-30" x="290.576172"/>
       <use xlink:href="#DejaVuSans-34" x="354.199219"/>
      </g>
     </g>
    </g>
    <g id="xtick_3">
     <g id="line2d_5">
      <path d="M 227.80306 567.74175 
L 227.80306 24.14175 
" clip-path="url(#p2f7d6d5ef7)" style="fill: none; stroke: #ffffff; stroke-width: 0.8; stroke-linecap: square"/>
     </g>
     <g id="line2d_6">
      <g>
       <use xlink:href="#m20f1d77c29" x="227.80306" y="567.74175" style="fill: #555555; stroke: #555555; stroke-width: 0.8"/>
      </g>
     </g>
     <g id="text_3">
      <!-- 2023-05 -->
      <g style="fill: #555555" transform="translate(214.981778 609.659567)rotate(-45)scale(0.1 -0.1)">
       <defs>
        <path id="DejaVuSans-35" d="M 691 4666 
L 3169 4666 
L 3169 4134 
L 1269 4134 
L 1269 2991 
Q 1406 3038 1543 3061 
Q 1681 3084 1819 3084 
Q 2600 3084 3056 2656 
Q 3513 2228 3513 1497 
Q 3513 744 3044 326 
Q 2575 -91 1722 -91 
Q 1428 -91 1123 -41 
Q 819 9 494 109 
L 494 744 
Q 775 591 1075 516 
Q 1375 441 1709 441 
Q 2250 441 2565 725 
Q 2881 1009 2881 1497 
Q 2881 1984 2565 2268 
Q 2250 2553 1709 2553 
Q 1456 2553 1204 2497 
Q 953 2441 691 2322 
L 691 4666 
z
" transform="scale(0.015625)"/>
       </defs>
       <use xlink:href="#DejaVuSans-32"/>
       <use xlink:href="#DejaVuSans-30" x="63.623047"/>
       <use xlink:href="#DejaVuSans-32" x="127.246094"/>
       <use xlink:href="#DejaVuSans-33" x="190.869141"/>
       <use xlink:href="#DejaVuSans-2d" x="254.492188"/>
       <use xlink:href="#DejaVuSans-30" x="290.576172"/>
       <use xlink:href="#DejaVuSans-35" x="354.199219"/>
      </g>
     </g>
    </g>
    <g id="xtick_4">
     <g id="line2d_7">
      <path d="M 306.201278 567.74175 
L 306.201278 24.14175 
" clip-path="url(#p2f7d6d5ef7)" style="fill: none; stroke: #ffffff; stroke-width: 0.8; stroke-linecap: square"/>
     </g>
     <g id="line2d_8">
      <g>
       <use xlink:href="#m20f1d77c29" x="306.201278" y="567.74175" style="fill: #555555; stroke: #555555; stroke-width: 0.8"/>
      </g>
     </g>
     <g id="text_4">
      <!-- 2023-06 -->
      <g style="fill: #555555" transform="translate(293.379996 609.659567)rotate(-45)scale(0.1 -0.1)">
       <defs>
        <path id="DejaVuSans-36" d="M 2113 2584 
Q 1688 2584 1439 2293 
Q 1191 2003 1191 1497 
Q 1191 994 1439 701 
Q 1688 409 2113 409 
Q 2538 409 2786 701 
Q 3034 994 3034 1497 
Q 3034 2003 2786 2293 
Q 2538 2584 2113 2584 
z
M 3366 4563 
L 3366 3988 
Q 3128 4100 2886 4159 
Q 2644 4219 2406 4219 
Q 1781 4219 1451 3797 
Q 1122 3375 1075 2522 
Q 1259 2794 1537 2939 
Q 1816 3084 2150 3084 
Q 2853 3084 3261 2657 
Q 3669 2231 3669 1497 
Q 3669 778 3244 343 
Q 2819 -91 2113 -91 
Q 1303 -91 875 529 
Q 447 1150 447 2328 
Q 447 3434 972 4092 
Q 1497 4750 2381 4750 
Q 2619 4750 2861 4703 
Q 3103 4656 3366 4563 
z
" transform="scale(0.015625)"/>
       </defs>
       <use xlink:href="#DejaVuSans-32"/>
       <use xlink:href="#DejaVuSans-30" x="63.623047"/>
       <use xlink:href="#DejaVuSans-32" x="127.246094"/>
       <use xlink:href="#DejaVuSans-33" x="190.869141"/>
       <use xlink:href="#DejaVuSans-2d" x="254.492188"/>
       <use xlink:href="#DejaVuSans-30" x="290.576172"/>
       <use xlink:href="#DejaVuSans-36" x="354.199219"/>
      </g>
     </g>
    </g>
    <g id="xtick_5">
     <g id="line2d_9">
      <path d="M 382.070522 567.74175 
L 382.070522 24.14175 
" clip-path="url(#p2f7d6d5ef7)" style="fill: none; stroke: #ffffff; stroke-width: 0.8; stroke-linecap: square"/>
     </g>
     <g id="line2d_10">
      <g>
       <use xlink:href="#m20f1d77c29" x="382.070522" y="567.74175" style="fill: #555555; stroke: #555555; stroke-width: 0.8"/>
      </g>
     </g>
     <g id="text_5">
      <!-- 2023-07 -->
      <g style="fill: #555555" transform="translate(369.24924 609.659567)rotate(-45)scale(0.1 -0.1)">
       <defs>
        <path id="DejaVuSans-37" d="M 525 4666 
L 3525 4666 
L 3525 4397 
L 1831 0 
L 1172 0 
L 2766 4134 
L 525 4134 
L 525 4666 
z
" transform="scale(0.015625)"/>
       </defs>
       <use xlink:href="#DejaVuSans-32"/>
       <use xlink:href="#DejaVuSans-30" x="63.623047"/>
       <use xlink:href="#DejaVuSans-32" x="127.246094"/>
       <use xlink:href="#DejaVuSans-33" x="190.869141"/>
       <use xlink:href="#DejaVuSans-2d" x="254.492188"/>
       <use xlink:href="#DejaVuSans-30" x="290.576172"/>
       <use xlink:href="#DejaVuSans-37" x="354.199219"/>
      </g>
     </g>
    </g>
    <g id="xtick_6">
     <g id="line2d_11">
      <path d="M 460.468741 567.74175 
L 460.468741 24.14175 
" clip-path="url(#p2f7d6d5ef7)" style="fill: none; stroke: #ffffff; stroke-width: 0.8; stroke-linecap: square"/>
     </g>
     <g id="line2d_12">
      <g>
       <use xlink:href="#m20f1d77c29" x="460.468741" y="567.74175" style="fill: #555555; stroke: #555555; stroke-width: 0.8"/>
      </g>
     </g>
     <g id="text_6">
      <!-- 2023-08 -->
      <g style="fill: #555555" transform="translate(447.647458 609.659567)rotate(-45)scale(0.1 -0.1)">
       <defs>
        <path id="DejaVuSans-38" d="M 2034 2216 
Q 1584 2216 1326 1975 
Q 1069 1734 1069 1313 
Q 1069 891 1326 650 
Q 1584 409 2034 409 
Q 2484 409 2743 651 
Q 3003 894 3003 1313 
Q 3003 1734 2745 1975 
Q 2488 2216 2034 2216 
z
M 1403 2484 
Q 997 2584 770 2862 
Q 544 3141 544 3541 
Q 544 4100 942 4425 
Q 1341 4750 2034 4750 
Q 2731 4750 3128 4425 
Q 3525 4100 3525 3541 
Q 3525 3141 3298 2862 
Q 3072 2584 2669 2484 
Q 3125 2378 3379 2068 
Q 3634 1759 3634 1313 
Q 3634 634 3220 271 
Q 2806 -91 2034 -91 
Q 1263 -91 848 271 
Q 434 634 434 1313 
Q 434 1759 690 2068 
Q 947 2378 1403 2484 
z
M 1172 3481 
Q 1172 3119 1398 2916 
Q 1625 2713 2034 2713 
Q 2441 2713 2670 2916 
Q 2900 3119 2900 3481 
Q 2900 3844 2670 4047 
Q 2441 4250 2034 4250 
Q 1625 4250 1398 4047 
Q 1172 3844 1172 3481 
z
" transform="scale(0.015625)"/>
       </defs>
       <use xlink:href="#DejaVuSans-32"/>
       <use xlink:href="#DejaVuSans-30" x="63.623047"/>
       <use xlink:href="#DejaVuSans-32" x="127.246094"/>
       <use xlink:href="#DejaVuSans-33" x="190.869141"/>
       <use xlink:href="#DejaVuSans-2d" x="254.492188"/>
       <use xlink:href="#DejaVuSans-30" x="290.576172"/>
       <use xlink:href="#DejaVuSans-38" x="354.199219"/>
      </g>
     </g>
    </g>
    <g id="xtick_7">
     <g id="line2d_13">
      <path d="M 538.866959 567.74175 
L 538.866959 24.14175 
" clip-path="url(#p2f7d6d5ef7)" style="fill: none; stroke: #ffffff; stroke-width: 0.8; stroke-linecap: square"/>
     </g>
     <g id="line2d_14">
      <g>
       <use xlink:href="#m20f1d77c29" x="538.866959" y="567.74175" style="fill: #555555; stroke: #555555; stroke-width: 0.8"/>
      </g>
     </g>
     <g id="text_7">
      <!-- 2023-09 -->
      <g style="fill: #555555" transform="translate(526.045677 609.659567)rotate(-45)scale(0.1 -0.1)">
       <defs>
        <path id="DejaVuSans-39" d="M 703 97 
L 703 672 
Q 941 559 1184 500 
Q 1428 441 1663 441 
Q 2288 441 2617 861 
Q 2947 1281 2994 2138 
Q 2813 1869 2534 1725 
Q 2256 1581 1919 1581 
Q 1219 1581 811 2004 
Q 403 2428 403 3163 
Q 403 3881 828 4315 
Q 1253 4750 1959 4750 
Q 2769 4750 3195 4129 
Q 3622 3509 3622 2328 
Q 3622 1225 3098 567 
Q 2575 -91 1691 -91 
Q 1453 -91 1209 -44 
Q 966 3 703 97 
z
M 1959 2075 
Q 2384 2075 2632 2365 
Q 2881 2656 2881 3163 
Q 2881 3666 2632 3958 
Q 2384 4250 1959 4250 
Q 1534 4250 1286 3958 
Q 1038 3666 1038 3163 
Q 1038 2656 1286 2365 
Q 1534 2075 1959 2075 
z
" transform="scale(0.015625)"/>
       </defs>
       <use xlink:href="#DejaVuSans-32"/>
       <use xlink:href="#DejaVuSans-30" x="63.623047"/>
       <use xlink:href="#DejaVuSans-32" x="127.246094"/>
       <use xlink:href="#DejaVuSans-33" x="190.869141"/>
       <use xlink:href="#DejaVuSans-2d" x="254.492188"/>
       <use xlink:href="#DejaVuSans-30" x="290.576172"/>
       <use xlink:href="#DejaVuSans-39" x="354.199219"/>
      </g>
     </g>
    </g>
    <g id="xtick_8">
     <g id="line2d_15">
      <path d="M 614.736203 567.74175 
L 614.736203 24.14175 
" clip-path="url(#p2f7d6d5ef7)" style="fill: none; stroke: #ffffff; stroke-width: 0.8; stroke-linecap: square"/>
     </g>
     <g id="line2d_16">
      <g>
       <use xlink:href="#m20f1d77c29" x="614.736203" y="567.74175" style="fill: #555555; stroke: #555555; stroke-width: 0.8"/>
      </g>
     </g>
     <g id="text_8">
      <!-- 2023-10 -->
      <g style="fill: #555555" transform="translate(601.91492 609.659567)rotate(-45)scale(0.1 -0.1)">
       <defs>
        <path id="DejaVuSans-31" d="M 794 531 
L 1825 531 
L 1825 4091 
L 703 3866 
L 703 4441 
L 1819 4666 
L 2450 4666 
L 2450 531 
L 3481 531 
L 3481 0 
L 794 0 
L 794 531 
z
" transform="scale(0.015625)"/>
       </defs>
       <use xlink:href="#DejaVuSans-32"/>
       <use xlink:href="#DejaVuSans-30" x="63.623047"/>
       <use xlink:href="#DejaVuSans-32" x="127.246094"/>
       <use xlink:href="#DejaVuSans-33" x="190.869141"/>
       <use xlink:href="#DejaVuSans-2d" x="254.492188"/>
       <use xlink:href="#DejaVuSans-31" x="290.576172"/>
       <use xlink:href="#DejaVuSans-30" x="354.199219"/>
      </g>
     </g>
    </g>
    <g id="xtick_9">
     <g id="line2d_17">
      <path d="M 693.134421 567.74175 
L 693.134421 24.14175 
" clip-path="url(#p2f7d6d5ef7)" style="fill: none; stroke: #ffffff; stroke-width: 0.8; stroke-linecap: square"/>
     </g>
     <g id="line2d_18">
      <g>
       <use xlink:href="#m20f1d77c29" x="693.134421" y="567.74175" style="fill: #555555; stroke: #555555; stroke-width: 0.8"/>
      </g>
     </g>
     <g id="text_9">
      <!-- 2023-11 -->
      <g style="fill: #555555" transform="translate(680.313139 609.659567)rotate(-45)scale(0.1 -0.1)">
       <use xlink:href="#DejaVuSans-32"/>
       <use xlink:href="#DejaVuSans-30" x="63.623047"/>
       <use xlink:href="#DejaVuSans-32" x="127.246094"/>
       <use xlink:href="#DejaVuSans-33" x="190.869141"/>
       <use xlink:href="#DejaVuSans-2d" x="254.492188"/>
       <use xlink:href="#DejaVuSans-31" x="290.576172"/>
       <use xlink:href="#DejaVuSans-31" x="354.199219"/>
      </g>
     </g>
    </g>
    <g id="xtick_10">
     <g id="line2d_19">
      <path d="M 769.003665 567.74175 
L 769.003665 24.14175 
" clip-path="url(#p2f7d6d5ef7)" style="fill: none; stroke: #ffffff; stroke-width: 0.8; stroke-linecap: square"/>
     </g>
     <g id="line2d_20">
      <g>
       <use xlink:href="#m20f1d77c29" x="769.003665" y="567.74175" style="fill: #555555; stroke: #555555; stroke-width: 0.8"/>
      </g>
     </g>
     <g id="text_10">
      <!-- 2023-12 -->
      <g style="fill: #555555" transform="translate(756.182383 609.659567)rotate(-45)scale(0.1 -0.1)">
       <use xlink:href="#DejaVuSans-32"/>
       <use xlink:href="#DejaVuSans-30" x="63.623047"/>
       <use xlink:href="#DejaVuSans-32" x="127.246094"/>
       <use xlink:href="#DejaVuSans-33" x="190.869141"/>
       <use xlink:href="#DejaVuSans-2d" x="254.492188"/>
       <use xlink:href="#DejaVuSans-31" x="290.576172"/>
       <use xlink:href="#DejaVuSans-32" x="354.199219"/>
      </g>
     </g>
    </g>
    <g id="xtick_11">
     <g id="line2d_21">
      <path d="M 847.401883 567.74175 
L 847.401883 24.14175 
" clip-path="url(#p2f7d6d5ef7)" style="fill: none; stroke: #ffffff; stroke-width: 0.8; stroke-linecap: square"/>
     </g>
     <g id="line2d_22">
      <g>
       <use xlink:href="#m20f1d77c29" x="847.401883" y="567.74175" style="fill: #555555; stroke: #555555; stroke-width: 0.8"/>
      </g>
     </g>
     <g id="text_11">
      <!-- 2024-01 -->
      <g style="fill: #555555" transform="translate(834.580601 609.659567)rotate(-45)scale(0.1 -0.1)">
       <use xlink:href="#DejaVuSans-32"/>
       <use xlink:href="#DejaVuSans-30" x="63.623047"/>
       <use xlink:href="#DejaVuSans-32" x="127.246094"/>
       <use xlink:href="#DejaVuSans-34" x="190.869141"/>
       <use xlink:href="#DejaVuSans-2d" x="254.492188"/>
       <use xlink:href="#DejaVuSans-30" x="290.576172"/>
       <use xlink:href="#DejaVuSans-31" x="354.199219"/>
      </g>
     </g>
    </g>
    <g id="text_12">
     <!-- Date -->
     <g style="fill: #555555" transform="translate(482.797938 624.248253)scale(0.12 -0.12)">
      <defs>
       <path id="DejaVuSans-44" d="M 1259 4147 
L 1259 519 
L 2022 519 
Q 2988 519 3436 956 
Q 3884 1394 3884 2338 
Q 3884 3275 3436 3711 
Q 2988 4147 2022 4147 
L 1259 4147 
z
M 628 4666 
L 1925 4666 
Q 3281 4666 3915 4102 
Q 4550 3538 4550 2338 
Q 4550 1131 3912 565 
Q 3275 0 1925 0 
L 628 0 
L 628 4666 
z
" transform="scale(0.015625)"/>
       <path id="DejaVuSans-61" d="M 2194 1759 
Q 1497 1759 1228 1600 
Q 959 1441 959 1056 
Q 959 750 1161 570 
Q 1363 391 1709 391 
Q 2188 391 2477 730 
Q 2766 1069 2766 1631 
L 2766 1759 
L 2194 1759 
z
M 3341 1997 
L 3341 0 
L 2766 0 
L 2766 531 
Q 2569 213 2275 61 
Q 1981 -91 1556 -91 
Q 1019 -91 701 211 
Q 384 513 384 1019 
Q 384 1609 779 1909 
Q 1175 2209 1959 2209 
L 2766 2209 
L 2766 2266 
Q 2766 2663 2505 2880 
Q 2244 3097 1772 3097 
Q 1472 3097 1187 3025 
Q 903 2953 641 2809 
L 641 3341 
Q 956 3463 1253 3523 
Q 1550 3584 1831 3584 
Q 2591 3584 2966 3190 
Q 3341 2797 3341 1997 
z
" transform="scale(0.015625)"/>
       <path id="DejaVuSans-74" d="M 1172 4494 
L 1172 3500 
L 2356 3500 
L 2356 3053 
L 1172 3053 
L 1172 1153 
Q 1172 725 1289 603 
Q 1406 481 1766 481 
L 2356 481 
L 2356 0 
L 1766 0 
Q 1100 0 847 248 
Q 594 497 594 1153 
L 594 3053 
L 172 3053 
L 172 3500 
L 594 3500 
L 594 4494 
L 1172 4494 
z
" transform="scale(0.015625)"/>
       <path id="DejaVuSans-65" d="M 3597 1894 
L 3597 1613 
L 953 1613 
Q 991 1019 1311 708 
Q 1631 397 2203 397 
Q 2534 397 2845 478 
Q 3156 559 3463 722 
L 3463 178 
Q 3153 47 2828 -22 
Q 2503 -91 2169 -91 
Q 1331 -91 842 396 
Q 353 884 353 1716 
Q 353 2575 817 3079 
Q 1281 3584 2069 3584 
Q 2775 3584 3186 3129 
Q 3597 2675 3597 1894 
z
M 3022 2063 
Q 3016 2534 2758 2815 
Q 2500 3097 2075 3097 
Q 1594 3097 1305 2825 
Q 1016 2553 972 2059 
L 3022 2063 
z
" transform="scale(0.015625)"/>
      </defs>
      <use xlink:href="#DejaVuSans-44"/>
      <use xlink:href="#DejaVuSans-61" x="77.001953"/>
      <use xlink:href="#DejaVuSans-74" x="138.28125"/>
      <use xlink:href="#DejaVuSans-65" x="177.490234"/>
     </g>
    </g>
   </g>
   <g id="matplotlib.axis_2">
    <g id="ytick_1">
     <g id="line2d_23">
      <path d="M 45.716875 567.74175 
L 948.560875 567.74175 
" clip-path="url(#p2f7d6d5ef7)" style="fill: none; stroke: #ffffff; stroke-width: 0.8; stroke-linecap: square"/>
     </g>
     <g id="line2d_24">
      <defs>
       <path id="mef7c111b34" d="M 0 0 
L -3.5 0 
" style="stroke: #555555; stroke-width: 0.8"/>
      </defs>
      <g>
       <use xlink:href="#mef7c111b34" x="45.716875" y="567.74175" style="fill: #555555; stroke: #555555; stroke-width: 0.8"/>
      </g>
     </g>
     <g id="text_13">
      <!-- 0.0 -->
      <g style="fill: #555555" transform="translate(22.81375 571.540969)scale(0.1 -0.1)">
       <defs>
        <path id="DejaVuSans-2e" d="M 684 794 
L 1344 794 
L 1344 0 
L 684 0 
L 684 794 
z
" transform="scale(0.015625)"/>
       </defs>
       <use xlink:href="#DejaVuSans-30"/>
       <use xlink:href="#DejaVuSans-2e" x="63.623047"/>
       <use xlink:href="#DejaVuSans-30" x="95.410156"/>
      </g>
     </g>
    </g>
    <g id="ytick_2">
     <g id="line2d_25">
      <path d="M 45.716875 459.01051 
L 948.560875 459.01051 
" clip-path="url(#p2f7d6d5ef7)" style="fill: none; stroke: #ffffff; stroke-width: 0.8; stroke-linecap: square"/>
     </g>
     <g id="line2d_26">
      <g>
       <use xlink:href="#mef7c111b34" x="45.716875" y="459.01051" style="fill: #555555; stroke: #555555; stroke-width: 0.8"/>
      </g>
     </g>
     <g id="text_14">
      <!-- 0.2 -->
      <g style="fill: #555555" transform="translate(22.81375 462.809729)scale(0.1 -0.1)">
       <use xlink:href="#DejaVuSans-30"/>
       <use xlink:href="#DejaVuSans-2e" x="63.623047"/>
       <use xlink:href="#DejaVuSans-32" x="95.410156"/>
      </g>
     </g>
    </g>
    <g id="ytick_3">
     <g id="line2d_27">
      <path d="M 45.716875 350.27927 
L 948.560875 350.27927 
" clip-path="url(#p2f7d6d5ef7)" style="fill: none; stroke: #ffffff; stroke-width: 0.8; stroke-linecap: square"/>
     </g>
     <g id="line2d_28">
      <g>
       <use xlink:href="#mef7c111b34" x="45.716875" y="350.27927" style="fill: #555555; stroke: #555555; stroke-width: 0.8"/>
      </g>
     </g>
     <g id="text_15">
      <!-- 0.4 -->
      <g style="fill: #555555" transform="translate(22.81375 354.078488)scale(0.1 -0.1)">
       <use xlink:href="#DejaVuSans-30"/>
       <use xlink:href="#DejaVuSans-2e" x="63.623047"/>
       <use xlink:href="#DejaVuSans-34" x="95.410156"/>
      </g>
     </g>
    </g>
    <g id="ytick_4">
     <g id="line2d_29">
      <path d="M 45.716875 241.548029 
L 948.560875 241.548029 
" clip-path="url(#p2f7d6d5ef7)" style="fill: none; stroke: #ffffff; stroke-width: 0.8; stroke-linecap: square"/>
     </g>
     <g id="line2d_30">
      <g>
       <use xlink:href="#mef7c111b34" x="45.716875" y="241.548029" style="fill: #555555; stroke: #555555; stroke-width: 0.8"/>
      </g>
     </g>
     <g id="text_16">
      <!-- 0.6 -->
      <g style="fill: #555555" transform="translate(22.81375 245.347248)scale(0.1 -0.1)">
       <use xlink:href="#DejaVuSans-30"/>
       <use xlink:href="#DejaVuSans-2e" x="63.623047"/>
       <use xlink:href="#DejaVuSans-36" x="95.410156"/>
      </g>
     </g>
    </g>
    <g id="ytick_5">
     <g id="line2d_31">
      <path d="M 45.716875 132.816789 
L 948.560875 132.816789 
" clip-path="url(#p2f7d6d5ef7)" style="fill: none; stroke: #ffffff; stroke-width: 0.8; stroke-linecap: square"/>
     </g>
     <g id="line2d_32">
      <g>
       <use xlink:href="#mef7c111b34" x="45.716875" y="132.816789" style="fill: #555555; stroke: #555555; stroke-width: 0.8"/>
      </g>
     </g>
     <g id="text_17">
      <!-- 0.8 -->
      <g style="fill: #555555" transform="translate(22.81375 136.616008)scale(0.1 -0.1)">
       <use xlink:href="#DejaVuSans-30"/>
       <use xlink:href="#DejaVuSans-2e" x="63.623047"/>
       <use xlink:href="#DejaVuSans-38" x="95.410156"/>
      </g>
     </g>
    </g>
    <g id="text_18">
     <!-- Share of Instances -->
     <g style="fill: #555555" transform="translate(16.318125 351.497062)rotate(-90)scale(0.12 -0.12)">
      <defs>
       <path id="DejaVuSans-53" d="M 3425 4513 
L 3425 3897 
Q 3066 4069 2747 4153 
Q 2428 4238 2131 4238 
Q 1616 4238 1336 4038 
Q 1056 3838 1056 3469 
Q 1056 3159 1242 3001 
Q 1428 2844 1947 2747 
L 2328 2669 
Q 3034 2534 3370 2195 
Q 3706 1856 3706 1288 
Q 3706 609 3251 259 
Q 2797 -91 1919 -91 
Q 1588 -91 1214 -16 
Q 841 59 441 206 
L 441 856 
Q 825 641 1194 531 
Q 1563 422 1919 422 
Q 2459 422 2753 634 
Q 3047 847 3047 1241 
Q 3047 1584 2836 1778 
Q 2625 1972 2144 2069 
L 1759 2144 
Q 1053 2284 737 2584 
Q 422 2884 422 3419 
Q 422 4038 858 4394 
Q 1294 4750 2059 4750 
Q 2388 4750 2728 4690 
Q 3069 4631 3425 4513 
z
" transform="scale(0.015625)"/>
       <path id="DejaVuSans-68" d="M 3513 2113 
L 3513 0 
L 2938 0 
L 2938 2094 
Q 2938 2591 2744 2837 
Q 2550 3084 2163 3084 
Q 1697 3084 1428 2787 
Q 1159 2491 1159 1978 
L 1159 0 
L 581 0 
L 581 4863 
L 1159 4863 
L 1159 2956 
Q 1366 3272 1645 3428 
Q 1925 3584 2291 3584 
Q 2894 3584 3203 3211 
Q 3513 2838 3513 2113 
z
" transform="scale(0.015625)"/>
       <path id="DejaVuSans-72" d="M 2631 2963 
Q 2534 3019 2420 3045 
Q 2306 3072 2169 3072 
Q 1681 3072 1420 2755 
Q 1159 2438 1159 1844 
L 1159 0 
L 581 0 
L 581 3500 
L 1159 3500 
L 1159 2956 
Q 1341 3275 1631 3429 
Q 1922 3584 2338 3584 
Q 2397 3584 2469 3576 
Q 2541 3569 2628 3553 
L 2631 2963 
z
" transform="scale(0.015625)"/>
       <path id="DejaVuSans-20" transform="scale(0.015625)"/>
       <path id="DejaVuSans-6f" d="M 1959 3097 
Q 1497 3097 1228 2736 
Q 959 2375 959 1747 
Q 959 1119 1226 758 
Q 1494 397 1959 397 
Q 2419 397 2687 759 
Q 2956 1122 2956 1747 
Q 2956 2369 2687 2733 
Q 2419 3097 1959 3097 
z
M 1959 3584 
Q 2709 3584 3137 3096 
Q 3566 2609 3566 1747 
Q 3566 888 3137 398 
Q 2709 -91 1959 -91 
Q 1206 -91 779 398 
Q 353 888 353 1747 
Q 353 2609 779 3096 
Q 1206 3584 1959 3584 
z
" transform="scale(0.015625)"/>
       <path id="DejaVuSans-66" d="M 2375 4863 
L 2375 4384 
L 1825 4384 
Q 1516 4384 1395 4259 
Q 1275 4134 1275 3809 
L 1275 3500 
L 2222 3500 
L 2222 3053 
L 1275 3053 
L 1275 0 
L 697 0 
L 697 3053 
L 147 3053 
L 147 3500 
L 697 3500 
L 697 3744 
Q 697 4328 969 4595 
Q 1241 4863 1831 4863 
L 2375 4863 
z
" transform="scale(0.015625)"/>
       <path id="DejaVuSans-49" d="M 628 4666 
L 1259 4666 
L 1259 0 
L 628 0 
L 628 4666 
z
" transform="scale(0.015625)"/>
       <path id="DejaVuSans-6e" d="M 3513 2113 
L 3513 0 
L 2938 0 
L 2938 2094 
Q 2938 2591 2744 2837 
Q 2550 3084 2163 3084 
Q 1697 3084 1428 2787 
Q 1159 2491 1159 1978 
L 1159 0 
L 581 0 
L 581 3500 
L 1159 3500 
L 1159 2956 
Q 1366 3272 1645 3428 
Q 1925 3584 2291 3584 
Q 2894 3584 3203 3211 
Q 3513 2838 3513 2113 
z
" transform="scale(0.015625)"/>
       <path id="DejaVuSans-73" d="M 2834 3397 
L 2834 2853 
Q 2591 2978 2328 3040 
Q 2066 3103 1784 3103 
Q 1356 3103 1142 2972 
Q 928 2841 928 2578 
Q 928 2378 1081 2264 
Q 1234 2150 1697 2047 
L 1894 2003 
Q 2506 1872 2764 1633 
Q 3022 1394 3022 966 
Q 3022 478 2636 193 
Q 2250 -91 1575 -91 
Q 1294 -91 989 -36 
Q 684 19 347 128 
L 347 722 
Q 666 556 975 473 
Q 1284 391 1588 391 
Q 1994 391 2212 530 
Q 2431 669 2431 922 
Q 2431 1156 2273 1281 
Q 2116 1406 1581 1522 
L 1381 1569 
Q 847 1681 609 1914 
Q 372 2147 372 2553 
Q 372 3047 722 3315 
Q 1072 3584 1716 3584 
Q 2034 3584 2315 3537 
Q 2597 3491 2834 3397 
z
" transform="scale(0.015625)"/>
       <path id="DejaVuSans-63" d="M 3122 3366 
L 3122 2828 
Q 2878 2963 2633 3030 
Q 2388 3097 2138 3097 
Q 1578 3097 1268 2742 
Q 959 2388 959 1747 
Q 959 1106 1268 751 
Q 1578 397 2138 397 
Q 2388 397 2633 464 
Q 2878 531 3122 666 
L 3122 134 
Q 2881 22 2623 -34 
Q 2366 -91 2075 -91 
Q 1284 -91 818 406 
Q 353 903 353 1747 
Q 353 2603 823 3093 
Q 1294 3584 2113 3584 
Q 2378 3584 2631 3529 
Q 2884 3475 3122 3366 
z
" transform="scale(0.015625)"/>
      </defs>
      <use xlink:href="#DejaVuSans-53"/>
      <use xlink:href="#DejaVuSans-68" x="63.476562"/>
      <use xlink:href="#DejaVuSans-61" x="126.855469"/>
      <use xlink:href="#DejaVuSans-72" x="188.134766"/>
      <use xlink:href="#DejaVuSans-65" x="226.998047"/>
      <use xlink:href="#DejaVuSans-20" x="288.521484"/>
      <use xlink:href="#DejaVuSans-6f" x="320.308594"/>
      <use xlink:href="#DejaVuSans-66" x="381.490234"/>
      <use xlink:href="#DejaVuSans-20" x="416.695312"/>
      <use xlink:href="#DejaVuSans-49" x="448.482422"/>
      <use xlink:href="#DejaVuSans-6e" x="477.974609"/>
      <use xlink:href="#DejaVuSans-73" x="541.353516"/>
      <use xlink:href="#DejaVuSans-74" x="593.453125"/>
      <use xlink:href="#DejaVuSans-61" x="632.662109"/>
      <use xlink:href="#DejaVuSans-6e" x="693.941406"/>
      <use xlink:href="#DejaVuSans-63" x="757.320312"/>
      <use xlink:href="#DejaVuSans-65" x="812.300781"/>
      <use xlink:href="#DejaVuSans-73" x="873.824219"/>
     </g>
    </g>
   </g>
   <g id="PolyCollection_1">
    <path d="M 45.716875 567.74175 
L 45.716875 567.74175 
L 63.419699 567.74175 
L 81.122522 567.74175 
L 98.825346 567.74175 
L 116.528169 567.74175 
L 134.230993 567.74175 
L 151.933816 567.74175 
L 205.042287 567.74175 
L 222.74511 567.74175 
L 240.447934 567.74175 
L 258.150757 567.74175 
L 275.853581 567.74175 
L 293.556404 567.74175 
L 311.259228 567.74175 
L 328.962051 567.74175 
L 346.664875 567.74175 
L 364.367699 567.74175 
L 382.070522 567.74175 
L 399.773346 567.74175 
L 417.476169 567.74175 
L 435.178993 567.74175 
L 452.881816 567.74175 
L 470.58464 567.74175 
L 488.287463 567.74175 
L 505.990287 567.74175 
L 523.69311 567.74175 
L 541.395934 567.74175 
L 559.098757 567.74175 
L 576.801581 567.74175 
L 594.504404 567.74175 
L 647.612875 567.74175 
L 665.315699 567.74175 
L 683.018522 567.74175 
L 700.721346 567.74175 
L 718.424169 567.74175 
L 736.126993 567.74175 
L 753.829816 567.74175 
L 771.53264 567.74175 
L 789.235463 567.74175 
L 806.938287 567.74175 
L 824.64111 567.74175 
L 842.343934 567.74175 
L 860.046757 567.74175 
L 877.749581 567.74175 
L 895.452404 567.74175 
L 913.155228 567.74175 
L 930.858051 567.74175 
L 948.560875 567.74175 
L 948.560875 471.429303 
L 948.560875 471.429303 
L 930.858051 471.10475 
L 913.155228 475.540631 
L 895.452404 481.571636 
L 877.749581 481.343998 
L 860.046757 483.555146 
L 842.343934 489.390507 
L 824.64111 495.103725 
L 806.938287 499.813881 
L 789.235463 502.927687 
L 771.53264 507.001935 
L 753.829816 510.087021 
L 736.126993 515.752883 
L 718.424169 520.02626 
L 700.721346 531.88273 
L 683.018522 551.476333 
L 665.315699 567.691343 
L 647.612875 567.740847 
L 594.504404 567.74175 
L 576.801581 567.74175 
L 559.098757 567.74175 
L 541.395934 567.74175 
L 523.69311 567.74175 
L 505.990287 567.74175 
L 488.287463 567.74175 
L 470.58464 567.74175 
L 452.881816 567.74175 
L 435.178993 567.74175 
L 417.476169 567.74175 
L 399.773346 567.74175 
L 382.070522 567.74175 
L 364.367699 567.74175 
L 346.664875 567.74175 
L 328.962051 567.74175 
L 311.259228 567.74175 
L 293.556404 567.74175 
L 275.853581 567.74175 
L 258.150757 567.74175 
L 240.447934 567.74175 
L 222.74511 567.74175 
L 205.042287 567.74175 
L 151.933816 567.74175 
L 134.230993 567.74175 
L 116.528169 567.74175 
L 98.825346 567.74175 
L 81.122522 567.74175 
L 63.419699 567.74175 
L 45.716875 567.74175 
z
" clip-path="url(#p2f7d6d5ef7)" style="fill: #e24a33"/>
   </g>
   <g id="PolyCollection_2">
    <path d="M 45.716875 567.74175 
L 45.716875 567.74175 
L 63.419699 567.74175 
L 81.122522 567.74175 
L 98.825346 567.74175 
L 116.528169 567.74175 
L 134.230993 567.74175 
L 151.933816 567.74175 
L 205.042287 567.74175 
L 222.74511 567.74175 
L 240.447934 567.74175 
L 258.150757 567.74175 
L 275.853581 567.74175 
L 293.556404 567.74175 
L 311.259228 567.74175 
L 328.962051 567.74175 
L 346.664875 567.74175 
L 364.367699 567.74175 
L 382.070522 567.74175 
L 399.773346 567.74175 
L 417.476169 567.74175 
L 435.178993 567.74175 
L 452.881816 567.74175 
L 470.58464 567.74175 
L 488.287463 567.74175 
L 505.990287 567.74175 
L 523.69311 567.74175 
L 541.395934 567.74175 
L 559.098757 567.74175 
L 576.801581 567.74175 
L 594.504404 567.74175 
L 647.612875 567.740847 
L 665.315699 567.691343 
L 683.018522 551.476333 
L 700.721346 531.88273 
L 718.424169 520.02626 
L 736.126993 515.752883 
L 753.829816 510.087021 
L 771.53264 507.001935 
L 789.235463 502.927687 
L 806.938287 499.813881 
L 824.64111 495.103725 
L 842.343934 489.390507 
L 860.046757 483.555146 
L 877.749581 481.343998 
L 895.452404 481.571636 
L 913.155228 475.540631 
L 930.858051 471.10475 
L 948.560875 471.429303 
L 948.560875 427.778128 
L 948.560875 427.778128 
L 930.858051 423.868243 
L 913.155228 426.208794 
L 895.452404 430.966355 
L 877.749581 427.001731 
L 860.046757 427.281996 
L 842.343934 430.412856 
L 824.64111 432.070957 
L 806.938287 437.476534 
L 789.235463 439.907797 
L 771.53264 442.163174 
L 753.829816 439.912321 
L 736.126993 443.521624 
L 718.424169 442.109626 
L 700.721346 443.576763 
L 683.018522 450.887585 
L 665.315699 453.520059 
L 647.612875 457.272781 
L 594.504404 462.384007 
L 576.801581 461.687376 
L 559.098757 461.599986 
L 541.395934 461.541429 
L 523.69311 466.829368 
L 505.990287 471.782088 
L 488.287463 468.843462 
L 470.58464 470.575511 
L 452.881816 472.507671 
L 435.178993 474.565608 
L 417.476169 474.00155 
L 399.773346 477.520987 
L 382.070522 485.402692 
L 364.367699 487.233972 
L 346.664875 489.055765 
L 328.962051 491.334947 
L 311.259228 494.618006 
L 293.556404 506.501068 
L 275.853581 514.222866 
L 258.150757 523.082957 
L 240.447934 528.871707 
L 222.74511 537.502988 
L 205.042287 554.951095 
L 151.933816 567.74175 
L 134.230993 567.74175 
L 116.528169 567.74175 
L 98.825346 567.74175 
L 81.122522 567.74175 
L 63.419699 567.74175 
L 45.716875 567.74175 
z
" clip-path="url(#p2f7d6d5ef7)" style="fill: #348abd"/>
   </g>
   <g id="PolyCollection_3">
    <path d="M 45.716875 495.322474 
L 45.716875 567.74175 
L 63.419699 567.74175 
L 81.122522 567.74175 
L 98.825346 567.74175 
L 116.528169 567.74175 
L 134.230993 567.74175 
L 151.933816 567.74175 
L 205.042287 554.951095 
L 222.74511 537.502988 
L 240.447934 528.871707 
L 258.150757 523.082957 
L 275.853581 514.222866 
L 293.556404 506.501068 
L 311.259228 494.618006 
L 328.962051 491.334947 
L 346.664875 489.055765 
L 364.367699 487.233972 
L 382.070522 485.402692 
L 399.773346 477.520987 
L 417.476169 474.00155 
L 435.178993 474.565608 
L 452.881816 472.507671 
L 470.58464 470.575511 
L 488.287463 468.843462 
L 505.990287 471.782088 
L 523.69311 466.829368 
L 541.395934 461.541429 
L 559.098757 461.599986 
L 576.801581 461.687376 
L 594.504404 462.384007 
L 647.612875 457.272781 
L 665.315699 453.520059 
L 683.018522 450.887585 
L 700.721346 443.576763 
L 718.424169 442.109626 
L 736.126993 443.521624 
L 753.829816 439.912321 
L 771.53264 442.163174 
L 789.235463 439.907797 
L 806.938287 437.476534 
L 824.64111 432.070957 
L 842.343934 430.412856 
L 860.046757 427.281996 
L 877.749581 427.001731 
L 895.452404 430.966355 
L 913.155228 426.208794 
L 930.858051 423.868243 
L 948.560875 427.778128 
L 948.560875 411.43739 
L 948.560875 411.43739 
L 930.858051 406.487096 
L 913.155228 408.332244 
L 895.452404 412.712368 
L 877.749581 407.650172 
L 860.046757 407.753786 
L 842.343934 410.521956 
L 824.64111 411.81568 
L 806.938287 416.496006 
L 789.235463 418.179844 
L 771.53264 419.628137 
L 753.829816 417.239944 
L 736.126993 420.712736 
L 718.424169 418.619751 
L 700.721346 419.825796 
L 683.018522 426.82395 
L 665.315699 426.335512 
L 647.612875 427.869905 
L 594.504404 430.89509 
L 576.801581 429.651641 
L 559.098757 428.689786 
L 541.395934 427.563116 
L 523.69311 432.617006 
L 505.990287 435.83356 
L 488.287463 430.831482 
L 470.58464 431.164404 
L 452.881816 432.322161 
L 435.178993 434.300581 
L 417.476169 432.720697 
L 399.773346 435.99475 
L 382.070522 442.105953 
L 364.367699 439.718884 
L 346.664875 439.947143 
L 328.962051 440.685181 
L 311.259228 442.532829 
L 293.556404 450.722843 
L 275.853581 454.858342 
L 258.150757 460.257787 
L 240.447934 461.735058 
L 222.74511 463.823124 
L 205.042287 466.032522 
L 151.933816 474.850855 
L 134.230993 478.611115 
L 116.528169 482.873197 
L 98.825346 487.061344 
L 81.122522 484.788935 
L 63.419699 489.377841 
L 45.716875 495.322474 
z
" clip-path="url(#p2f7d6d5ef7)" style="fill: #988ed5"/>
   </g>
   <g id="PolyCollection_4">
    <path d="M 45.716875 479.414277 
L 45.716875 495.322474 
L 63.419699 489.377841 
L 81.122522 484.788935 
L 98.825346 487.061344 
L 116.528169 482.873197 
L 134.230993 478.611115 
L 151.933816 474.850855 
L 205.042287 466.032522 
L 222.74511 463.823124 
L 240.447934 461.735058 
L 258.150757 460.257787 
L 275.853581 454.858342 
L 293.556404 450.722843 
L 311.259228 442.532829 
L 328.962051 440.685181 
L 346.664875 439.947143 
L 364.367699 439.718884 
L 382.070522 442.105953 
L 399.773346 435.99475 
L 417.476169 432.720697 
L 435.178993 434.300581 
L 452.881816 432.322161 
L 470.58464 431.164404 
L 488.287463 430.831482 
L 505.990287 435.83356 
L 523.69311 432.617006 
L 541.395934 427.563116 
L 559.098757 428.689786 
L 576.801581 429.651641 
L 594.504404 430.89509 
L 647.612875 427.869905 
L 665.315699 426.335512 
L 683.018522 426.82395 
L 700.721346 419.825796 
L 718.424169 418.619751 
L 736.126993 420.712736 
L 753.829816 417.239944 
L 771.53264 419.628137 
L 789.235463 418.179844 
L 806.938287 416.496006 
L 824.64111 411.81568 
L 842.343934 410.521956 
L 860.046757 407.753786 
L 877.749581 407.650172 
L 895.452404 412.712368 
L 913.155228 408.332244 
L 930.858051 406.487096 
L 948.560875 411.43739 
L 948.560875 407.050911 
L 948.560875 407.050911 
L 930.858051 401.83672 
L 913.155228 403.594455 
L 895.452404 407.969034 
L 877.749581 402.570655 
L 860.046757 402.638002 
L 842.343934 405.367193 
L 824.64111 406.524135 
L 806.938287 411.042571 
L 789.235463 412.547891 
L 771.53264 413.84737 
L 753.829816 411.42637 
L 736.126993 414.921615 
L 718.424169 412.65884 
L 700.721346 413.81887 
L 683.018522 420.802423 
L 665.315699 420.064731 
L 647.612875 421.445798 
L 594.504404 423.749125 
L 576.801581 422.479836 
L 559.098757 421.338695 
L 541.395934 420.014642 
L 523.69311 425.022447 
L 505.990287 427.95164 
L 488.287463 422.83951 
L 470.58464 422.978521 
L 452.881816 424.029961 
L 435.178993 425.973019 
L 417.476169 424.212 
L 399.773346 427.21306 
L 382.070522 433.123113 
L 364.367699 430.372557 
L 346.664875 430.339808 
L 328.962051 430.722927 
L 311.259228 432.593499 
L 293.556404 440.292083 
L 275.853581 443.866188 
L 258.150757 449.166009 
L 240.447934 450.192253 
L 222.74511 451.949317 
L 205.042287 453.771455 
L 151.933816 461.224523 
L 134.230993 465.007753 
L 116.528169 469.113814 
L 98.825346 472.752991 
L 81.122522 469.907371 
L 63.419699 474.280387 
L 45.716875 479.414277 
z
" clip-path="url(#p2f7d6d5ef7)" style="fill: #777777"/>
   </g>
   <g id="PolyCollection_5">
    <path d="M 45.716875 479.41399 
L 45.716875 479.414277 
L 63.419699 474.280387 
L 81.122522 469.907371 
L 98.825346 472.752991 
L 116.528169 469.113814 
L 134.230993 465.007753 
L 151.933816 461.224523 
L 205.042287 453.771455 
L 222.74511 451.949317 
L 240.447934 450.192253 
L 258.150757 449.166009 
L 275.853581 443.866188 
L 293.556404 440.292083 
L 311.259228 432.593499 
L 328.962051 430.722927 
L 346.664875 430.339808 
L 364.367699 430.372557 
L 382.070522 433.123113 
L 399.773346 427.21306 
L 417.476169 424.212 
L 435.178993 425.973019 
L 452.881816 424.029961 
L 470.58464 422.978521 
L 488.287463 422.83951 
L 505.990287 427.95164 
L 523.69311 425.022447 
L 541.395934 420.014642 
L 559.098757 421.338695 
L 576.801581 422.479836 
L 594.504404 423.749125 
L 647.612875 421.445798 
L 665.315699 420.064731 
L 683.018522 420.802423 
L 700.721346 413.81887 
L 718.424169 412.65884 
L 736.126993 414.921615 
L 753.829816 411.42637 
L 771.53264 413.84737 
L 789.235463 412.547891 
L 806.938287 411.042571 
L 824.64111 406.524135 
L 842.343934 405.367193 
L 860.046757 402.638002 
L 877.749581 402.570655 
L 895.452404 407.969034 
L 913.155228 403.594455 
L 930.858051 401.83672 
L 948.560875 407.050911 
L 948.560875 250.550731 
L 948.560875 250.550731 
L 930.858051 264.837043 
L 913.155228 267.45156 
L 895.452404 282.131457 
L 877.749581 281.939331 
L 860.046757 285.630573 
L 842.343934 294.98783 
L 824.64111 301.000806 
L 806.938287 304.015724 
L 789.235463 312.064965 
L 771.53264 320.427995 
L 753.829816 324.065943 
L 736.126993 331.901005 
L 718.424169 342.063841 
L 700.721346 361.020482 
L 683.018522 402.924881 
L 665.315699 420.063306 
L 647.612875 421.445798 
L 594.504404 423.749125 
L 576.801581 422.479252 
L 559.098757 421.3381 
L 541.395934 420.014642 
L 523.69311 425.022247 
L 505.990287 427.95164 
L 488.287463 422.83951 
L 470.58464 422.978521 
L 452.881816 424.029961 
L 435.178993 425.973019 
L 417.476169 424.212 
L 399.773346 427.21306 
L 382.070522 433.123113 
L 364.367699 430.372096 
L 346.664875 430.339808 
L 328.962051 430.722927 
L 311.259228 432.593499 
L 293.556404 440.292083 
L 275.853581 443.866188 
L 258.150757 449.165508 
L 240.447934 450.192253 
L 222.74511 451.949317 
L 205.042287 453.771455 
L 151.933816 461.224249 
L 134.230993 465.007753 
L 116.528169 469.113814 
L 98.825346 472.752133 
L 81.122522 469.905946 
L 63.419699 474.279254 
L 45.716875 479.41399 
z
" clip-path="url(#p2f7d6d5ef7)" style="fill: #fbc15e"/>
   </g>
   <g id="PolyCollection_6">
    <path d="M 45.716875 479.41399 
L 45.716875 479.41399 
L 63.419699 474.279254 
L 81.122522 469.905946 
L 98.825346 472.752133 
L 116.528169 469.113814 
L 134.230993 465.007753 
L 151.933816 461.224249 
L 205.042287 453.771455 
L 222.74511 451.949317 
L 240.447934 450.192253 
L 258.150757 449.165508 
L 275.853581 443.866188 
L 293.556404 440.292083 
L 311.259228 432.593499 
L 328.962051 430.722927 
L 346.664875 430.339808 
L 364.367699 430.372096 
L 382.070522 433.123113 
L 399.773346 427.21306 
L 417.476169 424.212 
L 435.178993 425.973019 
L 452.881816 424.029961 
L 470.58464 422.978521 
L 488.287463 422.83951 
L 505.990287 427.95164 
L 523.69311 425.022247 
L 541.395934 420.014642 
L 559.098757 421.3381 
L 576.801581 422.479252 
L 594.504404 423.749125 
L 647.612875 421.445798 
L 665.315699 420.063306 
L 683.018522 402.924881 
L 700.721346 361.020482 
L 718.424169 342.063841 
L 736.126993 331.901005 
L 753.829816 324.065943 
L 771.53264 320.427995 
L 789.235463 312.064965 
L 806.938287 304.015724 
L 824.64111 301.000806 
L 842.343934 294.98783 
L 860.046757 285.630573 
L 877.749581 281.939331 
L 895.452404 282.131457 
L 913.155228 267.45156 
L 930.858051 264.837043 
L 948.560875 250.550731 
L 948.560875 184.412202 
L 948.560875 184.412202 
L 930.858051 193.230923 
L 913.155228 190.321289 
L 895.452404 197.090317 
L 877.749581 193.653556 
L 860.046757 193.711473 
L 842.343934 196.903178 
L 824.64111 203.098565 
L 806.938287 198.615194 
L 789.235463 197.512743 
L 771.53264 197.96766 
L 753.829816 199.572923 
L 736.126993 207.154643 
L 718.424169 210.023136 
L 700.721346 216.440539 
L 683.018522 225.177476 
L 665.315699 224.94665 
L 647.612875 226.368996 
L 594.504404 226.162049 
L 576.801581 224.861199 
L 559.098757 224.196694 
L 541.395934 226.324263 
L 523.69311 235.322903 
L 505.990287 238.315483 
L 488.287463 241.208018 
L 470.58464 247.184013 
L 452.881816 249.297367 
L 435.178993 252.687981 
L 417.476169 257.670545 
L 399.773346 262.539914 
L 382.070522 266.884939 
L 364.367699 275.930837 
L 346.664875 282.875969 
L 328.962051 289.746528 
L 311.259228 295.715861 
L 293.556404 314.438848 
L 275.853581 326.519031 
L 258.150757 341.627167 
L 240.447934 364.522528 
L 222.74511 390.905007 
L 205.042287 443.910335 
L 151.933816 461.22261 
L 134.230993 465.006376 
L 116.528169 469.113814 
L 98.825346 472.752133 
L 81.122522 469.905946 
L 63.419699 474.279254 
L 45.716875 479.41399 
z
" clip-path="url(#p2f7d6d5ef7)" style="fill: #8eba42"/>
   </g>
   <g id="PolyCollection_7">
    <path d="M 45.716875 242.408929 
L 45.716875 479.41399 
L 63.419699 474.279254 
L 81.122522 469.905946 
L 98.825346 472.752133 
L 116.528169 469.113814 
L 134.230993 465.006376 
L 151.933816 461.22261 
L 205.042287 443.910335 
L 222.74511 390.905007 
L 240.447934 364.522528 
L 258.150757 341.627167 
L 275.853581 326.519031 
L 293.556404 314.438848 
L 311.259228 295.715861 
L 328.962051 289.746528 
L 346.664875 282.875969 
L 364.367699 275.930837 
L 382.070522 266.884939 
L 399.773346 262.539914 
L 417.476169 257.670545 
L 435.178993 252.687981 
L 452.881816 249.297367 
L 470.58464 247.184013 
L 488.287463 241.208018 
L 505.990287 238.315483 
L 523.69311 235.322903 
L 541.395934 226.324263 
L 559.098757 224.196694 
L 576.801581 224.861199 
L 594.504404 226.162049 
L 647.612875 226.368996 
L 665.315699 224.94665 
L 683.018522 225.177476 
L 700.721346 216.440539 
L 718.424169 210.023136 
L 736.126993 207.154643 
L 753.829816 199.572923 
L 771.53264 197.96766 
L 789.235463 197.512743 
L 806.938287 198.615194 
L 824.64111 203.098565 
L 842.343934 196.903178 
L 860.046757 193.711473 
L 877.749581 193.653556 
L 895.452404 197.090317 
L 913.155228 190.321289 
L 930.858051 193.230923 
L 948.560875 184.412202 
L 948.560875 142.031755 
L 948.560875 142.031755 
L 930.858051 147.828733 
L 913.155228 143.999913 
L 895.452404 150.959336 
L 877.749581 145.660174 
L 860.046757 145.649173 
L 842.343934 148.5195 
L 824.64111 153.746831 
L 806.938287 147.859308 
L 789.235463 145.135823 
L 771.53264 144.28084 
L 753.829816 145.338124 
L 736.126993 151.727219 
L 718.424169 153.508854 
L 700.721346 159.174352 
L 683.018522 166.860594 
L 665.315699 163.994181 
L 647.612875 163.574703 
L 594.504404 156.534323 
L 576.801581 152.696829 
L 559.098757 148.736091 
L 541.395934 148.774519 
L 523.69311 156.728574 
L 505.990287 156.44154 
L 488.287463 158.004722 
L 470.58464 160.224403 
L 452.881816 160.095976 
L 435.178993 161.301062 
L 417.476169 163.26344 
L 399.773346 164.383596 
L 382.070522 165.068391 
L 364.367699 167.752528 
L 346.664875 169.200396 
L 328.962051 172.13434 
L 311.259228 173.361406 
L 293.556404 183.366703 
L 275.853581 185.968061 
L 258.150757 188.612114 
L 240.447934 194.46359 
L 222.74511 197.105277 
L 205.042287 201.310526 
L 151.933816 216.788143 
L 134.230993 218.699105 
L 116.528169 223.41861 
L 98.825346 227.757448 
L 81.122522 232.421735 
L 63.419699 234.258417 
L 45.716875 242.408929 
z
" clip-path="url(#p2f7d6d5ef7)" style="fill: #ffb5b8"/>
   </g>
   <g id="PolyCollection_8">
    <path d="M 45.716875 119.138887 
L 45.716875 242.408929 
L 63.419699 234.258417 
L 81.122522 232.421735 
L 98.825346 227.757448 
L 116.528169 223.41861 
L 134.230993 218.699105 
L 151.933816 216.788143 
L 205.042287 201.310526 
L 222.74511 197.105277 
L 240.447934 194.46359 
L 258.150757 188.612114 
L 275.853581 185.968061 
L 293.556404 183.366703 
L 311.259228 173.361406 
L 328.962051 172.13434 
L 346.664875 169.200396 
L 364.367699 167.752528 
L 382.070522 165.068391 
L 399.773346 164.383596 
L 417.476169 163.26344 
L 435.178993 161.301062 
L 452.881816 160.095976 
L 470.58464 160.224403 
L 488.287463 158.004722 
L 505.990287 156.44154 
L 523.69311 156.728574 
L 541.395934 148.774519 
L 559.098757 148.736091 
L 576.801581 152.696829 
L 594.504404 156.534323 
L 647.612875 163.574703 
L 665.315699 163.994181 
L 683.018522 166.860594 
L 700.721346 159.174352 
L 718.424169 153.508854 
L 736.126993 151.727219 
L 753.829816 145.338124 
L 771.53264 144.28084 
L 789.235463 145.135823 
L 806.938287 147.859308 
L 824.64111 153.746831 
L 842.343934 148.5195 
L 860.046757 145.649173 
L 877.749581 145.660174 
L 895.452404 150.959336 
L 913.155228 143.999913 
L 930.858051 147.828733 
L 948.560875 142.031755 
L 948.560875 58.394376 
L 948.560875 58.394376 
L 930.858051 60.604154 
L 913.155228 61.299702 
L 895.452404 61.590865 
L 877.749581 63.492432 
L 860.046757 64.005676 
L 842.343934 64.979103 
L 824.64111 65.086542 
L 806.938287 64.951382 
L 789.235463 64.531874 
L 771.53264 65.935695 
L 753.829816 65.346466 
L 736.126993 65.596696 
L 718.424169 67.364752 
L 700.721346 69.054247 
L 683.018522 69.085373 
L 665.315699 70.93544 
L 647.612875 71.750112 
L 594.504404 75.478273 
L 576.801581 76.302979 
L 559.098757 77.030337 
L 541.395934 77.691929 
L 523.69311 77.531839 
L 505.990287 80.223306 
L 488.287463 81.392887 
L 470.58464 82.999901 
L 452.881816 83.448664 
L 435.178993 84.141984 
L 417.476169 85.187018 
L 399.773346 86.257263 
L 382.070522 87.673536 
L 364.367699 89.816078 
L 346.664875 90.590365 
L 328.962051 92.260841 
L 311.259228 92.121142 
L 293.556404 95.083103 
L 275.853581 97.550613 
L 258.150757 98.558551 
L 240.447934 100.999044 
L 222.74511 100.907818 
L 205.042287 102.23411 
L 151.933816 108.957949 
L 134.230993 110.09745 
L 116.528169 111.648698 
L 98.825346 113.70242 
L 81.122522 116.376894 
L 63.419699 116.837736 
L 45.716875 119.138887 
z
" clip-path="url(#p2f7d6d5ef7)" style="fill: #e24a33"/>
   </g>
   <g id="PolyCollection_9">
    <path d="M 45.716875 39.301885 
L 45.716875 119.138887 
L 63.419699 116.837736 
L 81.122522 116.376894 
L 98.825346 113.70242 
L 116.528169 111.648698 
L 134.230993 110.09745 
L 151.933816 108.957949 
L 205.042287 102.23411 
L 222.74511 100.907818 
L 240.447934 100.999044 
L 258.150757 98.558551 
L 275.853581 97.550613 
L 293.556404 95.083103 
L 311.259228 92.121142 
L 328.962051 92.260841 
L 346.664875 90.590365 
L 364.367699 89.816078 
L 382.070522 87.673536 
L 399.773346 86.257263 
L 417.476169 85.187018 
L 435.178993 84.141984 
L 452.881816 83.448664 
L 470.58464 82.999901 
L 488.287463 81.392887 
L 505.990287 80.223306 
L 523.69311 77.531839 
L 541.395934 77.691929 
L 559.098757 77.030337 
L 576.801581 76.302979 
L 594.504404 75.478273 
L 647.612875 71.750112 
L 665.315699 70.93544 
L 683.018522 69.085373 
L 700.721346 69.054247 
L 718.424169 67.364752 
L 736.126993 65.596696 
L 753.829816 65.346466 
L 771.53264 65.935695 
L 789.235463 64.531874 
L 806.938287 64.951382 
L 824.64111 65.086542 
L 842.343934 64.979103 
L 860.046757 64.005676 
L 877.749581 63.492432 
L 895.452404 61.590865 
L 913.155228 61.299702 
L 930.858051 60.604154 
L 948.560875 58.394376 
L 948.560875 29.974294 
L 948.560875 29.974294 
L 930.858051 30.434102 
L 913.155228 30.503773 
L 895.452404 30.597651 
L 877.749581 30.880661 
L 860.046757 30.99774 
L 842.343934 31.076684 
L 824.64111 30.841044 
L 806.938287 31.017199 
L 789.235463 31.277608 
L 771.53264 31.631835 
L 753.829816 31.602781 
L 736.126993 31.70603 
L 718.424169 31.848835 
L 700.721346 31.866413 
L 683.018522 31.823092 
L 665.315699 32.267167 
L 647.612875 32.407939 
L 594.504404 32.898592 
L 576.801581 32.909987 
L 559.098757 33.137713 
L 541.395934 33.252208 
L 523.69311 33.261823 
L 505.990287 33.579346 
L 488.287463 33.596022 
L 470.58464 33.822562 
L 452.881816 34.007191 
L 435.178993 33.990791 
L 417.476169 34.199694 
L 399.773346 34.419002 
L 382.070522 34.569923 
L 364.367699 34.990711 
L 346.664875 35.117423 
L 328.962051 35.437087 
L 311.259228 35.444111 
L 293.556404 35.819514 
L 275.853581 36.170274 
L 258.150757 36.272897 
L 240.447934 36.629746 
L 222.74511 36.821687 
L 205.042287 36.990329 
L 151.933816 38.122764 
L 134.230993 38.138025 
L 116.528169 38.437653 
L 98.825346 38.69817 
L 81.122522 38.973668 
L 63.419699 39.049608 
L 45.716875 39.301885 
z
" clip-path="url(#p2f7d6d5ef7)" style="fill: #348abd"/>
   </g>
   <g id="PolyCollection_10">
    <path d="M 45.716875 24.202345 
L 45.716875 39.301885 
L 63.419699 39.049608 
L 81.122522 38.973668 
L 98.825346 38.69817 
L 116.528169 38.437653 
L 134.230993 38.138025 
L 151.933816 38.122764 
L 205.042287 36.990329 
L 222.74511 36.821687 
L 240.447934 36.629746 
L 258.150757 36.272897 
L 275.853581 36.170274 
L 293.556404 35.819514 
L 311.259228 35.444111 
L 328.962051 35.437087 
L 346.664875 35.117423 
L 364.367699 34.990711 
L 382.070522 34.569923 
L 399.773346 34.419002 
L 417.476169 34.199694 
L 435.178993 33.990791 
L 452.881816 34.007191 
L 470.58464 33.822562 
L 488.287463 33.596022 
L 505.990287 33.579346 
L 523.69311 33.261823 
L 541.395934 33.252208 
L 559.098757 33.137713 
L 576.801581 32.909987 
L 594.504404 32.898592 
L 647.612875 32.407939 
L 665.315699 32.267167 
L 683.018522 31.823092 
L 700.721346 31.866413 
L 718.424169 31.848835 
L 736.126993 31.70603 
L 753.829816 31.602781 
L 771.53264 31.631835 
L 789.235463 31.277608 
L 806.938287 31.017199 
L 824.64111 30.841044 
L 842.343934 31.076684 
L 860.046757 30.99774 
L 877.749581 30.880661 
L 895.452404 30.597651 
L 913.155228 30.503773 
L 930.858051 30.434102 
L 948.560875 29.974294 
L 948.560875 24.143679 
L 948.560875 24.143679 
L 930.858051 24.145759 
L 913.155228 24.146615 
L 895.452404 24.146886 
L 877.749581 24.148394 
L 860.046757 24.146595 
L 842.343934 24.148063 
L 824.64111 24.14175 
L 806.938287 24.143902 
L 789.235463 24.147864 
L 771.53264 24.145029 
L 753.829816 24.149127 
L 736.126993 24.152255 
L 718.424169 24.15589 
L 700.721346 24.163704 
L 683.018522 24.162646 
L 665.315699 24.164277 
L 647.612875 24.164832 
L 594.504404 24.173441 
L 576.801581 24.174775 
L 559.098757 24.175559 
L 541.395934 24.173197 
L 523.69311 24.16886 
L 505.990287 24.171188 
L 488.287463 24.172795 
L 470.58464 24.176381 
L 452.881816 24.17958 
L 435.178993 24.175567 
L 417.476169 24.177401 
L 399.773346 24.178116 
L 382.070522 24.185398 
L 364.367699 24.192928 
L 346.664875 24.186124 
L 328.962051 24.188792 
L 311.259228 24.179443 
L 293.556404 24.180531 
L 275.853581 24.178022 
L 258.150757 24.17977 
L 240.447934 24.183715 
L 222.74511 24.188977 
L 205.042287 24.183516 
L 151.933816 24.196739 
L 134.230993 24.196519 
L 116.528169 24.196351 
L 98.825346 24.194788 
L 81.122522 24.198137 
L 63.419699 24.194871 
L 45.716875 24.202345 
z
" clip-path="url(#p2f7d6d5ef7)" style="fill: #988ed5"/>
   </g>
   <g id="patch_3">
    <path d="M 45.716875 567.74175 
L 45.716875 24.14175 
" style="fill: none; stroke: #ffffff; stroke-linejoin: miter; stroke-linecap: square"/>
   </g>
   <g id="patch_4">
    <path d="M 948.560875 567.74175 
L 948.560875 24.14175 
" style="fill: none; stroke: #ffffff; stroke-linejoin: miter; stroke-linecap: square"/>
   </g>
   <g id="patch_5">
    <path d="M 45.716875 567.74175 
L 948.560875 567.74175 
" style="fill: none; stroke: #ffffff; stroke-linejoin: miter; stroke-linecap: square"/>
   </g>
   <g id="patch_6">
    <path d="M 45.716875 24.14175 
L 948.560875 24.14175 
" style="fill: none; stroke: #ffffff; stroke-linejoin: miter; stroke-linecap: square"/>
   </g>
   <g id="text_19">
    <!-- Rocky Linux Instances by Version Share -->
    <g transform="translate(45.716875 18.14175)scale(0.144 -0.144)">
     <defs>
      <path id="DejaVuSans-52" d="M 2841 2188 
Q 3044 2119 3236 1894 
Q 3428 1669 3622 1275 
L 4263 0 
L 3584 0 
L 2988 1197 
Q 2756 1666 2539 1819 
Q 2322 1972 1947 1972 
L 1259 1972 
L 1259 0 
L 628 0 
L 628 4666 
L 2053 4666 
Q 2853 4666 3247 4331 
Q 3641 3997 3641 3322 
Q 3641 2881 3436 2590 
Q 3231 2300 2841 2188 
z
M 1259 4147 
L 1259 2491 
L 2053 2491 
Q 2509 2491 2742 2702 
Q 2975 2913 2975 3322 
Q 2975 3731 2742 3939 
Q 2509 4147 2053 4147 
L 1259 4147 
z
" transform="scale(0.015625)"/>
      <path id="DejaVuSans-6b" d="M 581 4863 
L 1159 4863 
L 1159 1991 
L 2875 3500 
L 3609 3500 
L 1753 1863 
L 3688 0 
L 2938 0 
L 1159 1709 
L 1159 0 
L 581 0 
L 581 4863 
z
" transform="scale(0.015625)"/>
      <path id="DejaVuSans-79" d="M 2059 -325 
Q 1816 -950 1584 -1140 
Q 1353 -1331 966 -1331 
L 506 -1331 
L 506 -850 
L 844 -850 
Q 1081 -850 1212 -737 
Q 1344 -625 1503 -206 
L 1606 56 
L 191 3500 
L 800 3500 
L 1894 763 
L 2988 3500 
L 3597 3500 
L 2059 -325 
z
" transform="scale(0.015625)"/>
      <path id="DejaVuSans-4c" d="M 628 4666 
L 1259 4666 
L 1259 531 
L 3531 531 
L 3531 0 
L 628 0 
L 628 4666 
z
" transform="scale(0.015625)"/>
      <path id="DejaVuSans-69" d="M 603 3500 
L 1178 3500 
L 1178 0 
L 603 0 
L 603 3500 
z
M 603 4863 
L 1178 4863 
L 1178 4134 
L 603 4134 
L 603 4863 
z
" transform="scale(0.015625)"/>
      <path id="DejaVuSans-75" d="M 544 1381 
L 544 3500 
L 1119 3500 
L 1119 1403 
Q 1119 906 1312 657 
Q 1506 409 1894 409 
Q 2359 409 2629 706 
Q 2900 1003 2900 1516 
L 2900 3500 
L 3475 3500 
L 3475 0 
L 2900 0 
L 2900 538 
Q 2691 219 2414 64 
Q 2138 -91 1772 -91 
Q 1169 -91 856 284 
Q 544 659 544 1381 
z
M 1991 3584 
L 1991 3584 
z
" transform="scale(0.015625)"/>
      <path id="DejaVuSans-78" d="M 3513 3500 
L 2247 1797 
L 3578 0 
L 2900 0 
L 1881 1375 
L 863 0 
L 184 0 
L 1544 1831 
L 300 3500 
L 978 3500 
L 1906 2253 
L 2834 3500 
L 3513 3500 
z
" transform="scale(0.015625)"/>
      <path id="DejaVuSans-62" d="M 3116 1747 
Q 3116 2381 2855 2742 
Q 2594 3103 2138 3103 
Q 1681 3103 1420 2742 
Q 1159 2381 1159 1747 
Q 1159 1113 1420 752 
Q 1681 391 2138 391 
Q 2594 391 2855 752 
Q 3116 1113 3116 1747 
z
M 1159 2969 
Q 1341 3281 1617 3432 
Q 1894 3584 2278 3584 
Q 2916 3584 3314 3078 
Q 3713 2572 3713 1747 
Q 3713 922 3314 415 
Q 2916 -91 2278 -91 
Q 1894 -91 1617 61 
Q 1341 213 1159 525 
L 1159 0 
L 581 0 
L 581 4863 
L 1159 4863 
L 1159 2969 
z
" transform="scale(0.015625)"/>
      <path id="DejaVuSans-56" d="M 1831 0 
L 50 4666 
L 709 4666 
L 2188 738 
L 3669 4666 
L 4325 4666 
L 2547 0 
L 1831 0 
z
" transform="scale(0.015625)"/>
     </defs>
     <use xlink:href="#DejaVuSans-52"/>
     <use xlink:href="#DejaVuSans-6f" x="64.982422"/>
     <use xlink:href="#DejaVuSans-63" x="126.164062"/>
     <use xlink:href="#DejaVuSans-6b" x="181.144531"/>
     <use xlink:href="#DejaVuSans-79" x="235.429688"/>
     <use xlink:href="#DejaVuSans-20" x="294.609375"/>
     <use xlink:href="#DejaVuSans-4c" x="326.396484"/>
     <use xlink:href="#DejaVuSans-69" x="382.109375"/>
     <use xlink:href="#DejaVuSans-6e" x="409.892578"/>
     <use xlink:href="#DejaVuSans-75" x="473.271484"/>
     <use xlink:href="#DejaVuSans-78" x="536.650391"/>
     <use xlink:href="#DejaVuSans-20" x="595.830078"/>
     <use xlink:href="#DejaVuSans-49" x="627.617188"/>
     <use xlink:href="#DejaVuSans-6e" x="657.109375"/>
     <use xlink:href="#DejaVuSans-73" x="720.488281"/>
     <use xlink:href="#DejaVuSans-74" x="772.587891"/>
     <use xlink:href="#DejaVuSans-61" x="811.796875"/>
     <use xlink:href="#DejaVuSans-6e" x="873.076172"/>
     <use xlink:href="#DejaVuSans-63" x="936.455078"/>
     <use xlink:href="#DejaVuSans-65" x="991.435547"/>
     <use xlink:href="#DejaVuSans-73" x="1052.958984"/>
     <use xlink:href="#DejaVuSans-20" x="1105.058594"/>
     <use xlink:href="#DejaVuSans-62" x="1136.845703"/>
     <use xlink:href="#DejaVuSans-79" x="1200.322266"/>
     <use xlink:href="#DejaVuSans-20" x="1259.501953"/>
     <use xlink:href="#DejaVuSans-56" x="1291.289062"/>
     <use xlink:href="#DejaVuSans-65" x="1351.947266"/>
     <use xlink:href="#DejaVuSans-72" x="1413.470703"/>
     <use xlink:href="#DejaVuSans-73" x="1454.583984"/>
     <use xlink:href="#DejaVuSans-69" x="1506.683594"/>
     <use xlink:href="#DejaVuSans-6f" x="1534.466797"/>
     <use xlink:href="#DejaVuSans-6e" x="1595.648438"/>
     <use xlink:href="#DejaVuSans-20" x="1659.027344"/>
     <use xlink:href="#DejaVuSans-53" x="1690.814453"/>
     <use xlink:href="#DejaVuSans-68" x="1754.291016"/>
     <use xlink:href="#DejaVuSans-61" x="1817.669922"/>
     <use xlink:href="#DejaVuSans-72" x="1878.949219"/>
     <use xlink:href="#DejaVuSans-65" x="1917.8125"/>
    </g>
   </g>
   <g id="text_20">
    <!-- 2024-03-14 11:55 UTC -->
    <g transform="translate(785.678875 18.14175)scale(0.144 -0.144)">
     <defs>
      <path id="DejaVuSans-3a" d="M 750 794 
L 1409 794 
L 1409 0 
L 750 0 
L 750 794 
z
M 750 3309 
L 1409 3309 
L 1409 2516 
L 750 2516 
L 750 3309 
z
" transform="scale(0.015625)"/>
      <path id="DejaVuSans-55" d="M 556 4666 
L 1191 4666 
L 1191 1831 
Q 1191 1081 1462 751 
Q 1734 422 2344 422 
Q 2950 422 3222 751 
Q 3494 1081 3494 1831 
L 3494 4666 
L 4128 4666 
L 4128 1753 
Q 4128 841 3676 375 
Q 3225 -91 2344 -91 
Q 1459 -91 1007 375 
Q 556 841 556 1753 
L 556 4666 
z
" transform="scale(0.015625)"/>
      <path id="DejaVuSans-54" d="M -19 4666 
L 3928 4666 
L 3928 4134 
L 2272 4134 
L 2272 0 
L 1638 0 
L 1638 4134 
L -19 4134 
L -19 4666 
z
" transform="scale(0.015625)"/>
      <path id="DejaVuSans-43" d="M 4122 4306 
L 4122 3641 
Q 3803 3938 3442 4084 
Q 3081 4231 2675 4231 
Q 1875 4231 1450 3742 
Q 1025 3253 1025 2328 
Q 1025 1406 1450 917 
Q 1875 428 2675 428 
Q 3081 428 3442 575 
Q 3803 722 4122 1019 
L 4122 359 
Q 3791 134 3420 21 
Q 3050 -91 2638 -91 
Q 1578 -91 968 557 
Q 359 1206 359 2328 
Q 359 3453 968 4101 
Q 1578 4750 2638 4750 
Q 3056 4750 3426 4639 
Q 3797 4528 4122 4306 
z
" transform="scale(0.015625)"/>
     </defs>
     <use xlink:href="#DejaVuSans-32"/>
     <use xlink:href="#DejaVuSans-30" x="63.623047"/>
     <use xlink:href="#DejaVuSans-32" x="127.246094"/>
     <use xlink:href="#DejaVuSans-34" x="190.869141"/>
     <use xlink:href="#DejaVuSans-2d" x="254.492188"/>
     <use xlink:href="#DejaVuSans-30" x="290.576172"/>
     <use xlink:href="#DejaVuSans-33" x="354.199219"/>
     <use xlink:href="#DejaVuSans-2d" x="417.822266"/>
     <use xlink:href="#DejaVuSans-31" x="453.90625"/>
     <use xlink:href="#DejaVuSans-34" x="517.529297"/>
     <use xlink:href="#DejaVuSans-20" x="581.152344"/>
     <use xlink:href="#DejaVuSans-31" x="612.939453"/>
     <use xlink:href="#DejaVuSans-31" x="676.5625"/>
     <use xlink:href="#DejaVuSans-3a" x="740.185547"/>
     <use xlink:href="#DejaVuSans-35" x="773.876953"/>
     <use xlink:href="#DejaVuSans-35" x="837.5"/>
     <use xlink:href="#DejaVuSans-20" x="901.123047"/>
     <use xlink:href="#DejaVuSans-55" x="932.910156"/>
     <use xlink:href="#DejaVuSans-54" x="1006.103516"/>
     <use xlink:href="#DejaVuSans-43" x="1061.3125"/>
    </g>
   </g>
   <g id="legend_1">
    <g id="patch_7">
     <path d="M 52.716875 193.601125 
L 100.62 193.601125 
Q 102.62 193.601125 102.62 191.601125 
L 102.62 31.14175 
Q 102.62 29.14175 100.62 29.14175 
L 52.716875 29.14175 
Q 50.716875 29.14175 50.716875 31.14175 
L 50.716875 191.601125 
Q 50.716875 193.601125 52.716875 193.601125 
z
" style="fill: #e5e5e5; opacity: 0.8; stroke: #cccccc; stroke-width: 0.5; stroke-linejoin: miter"/>
    </g>
    <g id="text_21">
     <!-- Version -->
     <g transform="translate(58.281719 40.740187)scale(0.1 -0.1)">
      <use xlink:href="#DejaVuSans-56"/>
      <use xlink:href="#DejaVuSans-65" x="60.658203"/>
      <use xlink:href="#DejaVuSans-72" x="122.181641"/>
      <use xlink:href="#DejaVuSans-73" x="163.294922"/>
      <use xlink:href="#DejaVuSans-69" x="215.394531"/>
      <use xlink:href="#DejaVuSans-6f" x="243.177734"/>
      <use xlink:href="#DejaVuSans-6e" x="304.359375"/>
     </g>
    </g>
    <g id="patch_8">
     <path d="M 54.716875 55.418312 
L 74.716875 55.418312 
L 74.716875 48.418312 
L 54.716875 48.418312 
z
" style="fill: #e24a33"/>
    </g>
    <g id="text_22">
     <!-- 9.3 -->
     <g transform="translate(82.716875 55.418312)scale(0.1 -0.1)">
      <use xlink:href="#DejaVuSans-39"/>
      <use xlink:href="#DejaVuSans-2e" x="63.623047"/>
      <use xlink:href="#DejaVuSans-33" x="95.410156"/>
     </g>
    </g>
    <g id="patch_9">
     <path d="M 54.716875 70.096437 
L 74.716875 70.096437 
L 74.716875 63.096437 
L 54.716875 63.096437 
z
" style="fill: #348abd"/>
    </g>
    <g id="text_23">
     <!-- 9.2 -->
     <g transform="translate(82.716875 70.096437)scale(0.1 -0.1)">
      <use xlink:href="#DejaVuSans-39"/>
      <use xlink:href="#DejaVuSans-2e" x="63.623047"/>
      <use xlink:href="#DejaVuSans-32" x="95.410156"/>
     </g>
    </g>
    <g id="patch_10">
     <path d="M 54.716875 84.774563 
L 74.716875 84.774563 
L 74.716875 77.774563 
L 54.716875 77.774563 
z
" style="fill: #988ed5"/>
    </g>
    <g id="text_24">
     <!-- 9.1 -->
     <g transform="translate(82.716875 84.774563)scale(0.1 -0.1)">
      <use xlink:href="#DejaVuSans-39"/>
      <use xlink:href="#DejaVuSans-2e" x="63.623047"/>
      <use xlink:href="#DejaVuSans-31" x="95.410156"/>
     </g>
    </g>
    <g id="patch_11">
     <path d="M 54.716875 99.452687 
L 74.716875 99.452687 
L 74.716875 92.452687 
L 54.716875 92.452687 
z
" style="fill: #777777"/>
    </g>
    <g id="text_25">
     <!-- 9.0 -->
     <g transform="translate(82.716875 99.452687)scale(0.1 -0.1)">
      <use xlink:href="#DejaVuSans-39"/>
      <use xlink:href="#DejaVuSans-2e" x="63.623047"/>
      <use xlink:href="#DejaVuSans-30" x="95.410156"/>
     </g>
    </g>
    <g id="patch_12">
     <path d="M 54.716875 114.130812 
L 74.716875 114.130812 
L 74.716875 107.130812 
L 54.716875 107.130812 
z
" style="fill: #fbc15e"/>
    </g>
    <g id="text_26">
     <!-- 8.9 -->
     <g transform="translate(82.716875 114.130812)scale(0.1 -0.1)">
      <use xlink:href="#DejaVuSans-38"/>
      <use xlink:href="#DejaVuSans-2e" x="63.623047"/>
      <use xlink:href="#DejaVuSans-39" x="95.410156"/>
     </g>
    </g>
    <g id="patch_13">
     <path d="M 54.716875 128.808937 
L 74.716875 128.808937 
L 74.716875 121.808937 
L 54.716875 121.808937 
z
" style="fill: #8eba42"/>
    </g>
    <g id="text_27">
     <!-- 8.8 -->
     <g transform="translate(82.716875 128.808937)scale(0.1 -0.1)">
      <use xlink:href="#DejaVuSans-38"/>
      <use xlink:href="#DejaVuSans-2e" x="63.623047"/>
      <use xlink:href="#DejaVuSans-38" x="95.410156"/>
     </g>
    </g>
    <g id="patch_14">
     <path d="M 54.716875 143.487062 
L 74.716875 143.487062 
L 74.716875 136.487062 
L 54.716875 136.487062 
z
" style="fill: #ffb5b8"/>
    </g>
    <g id="text_28">
     <!-- 8.7 -->
     <g transform="translate(82.716875 143.487062)scale(0.1 -0.1)">
      <use xlink:href="#DejaVuSans-38"/>
      <use xlink:href="#DejaVuSans-2e" x="63.623047"/>
      <use xlink:href="#DejaVuSans-37" x="95.410156"/>
     </g>
    </g>
    <g id="patch_15">
     <path d="M 54.716875 158.165187 
L 74.716875 158.165187 
L 74.716875 151.165187 
L 54.716875 151.165187 
z
" style="fill: #e24a33"/>
    </g>
    <g id="text_29">
     <!-- 8.6 -->
     <g transform="translate(82.716875 158.165187)scale(0.1 -0.1)">
      <use xlink:href="#DejaVuSans-38"/>
      <use xlink:href="#DejaVuSans-2e" x="63.623047"/>
      <use xlink:href="#DejaVuSans-36" x="95.410156"/>
     </g>
    </g>
    <g id="patch_16">
     <path d="M 54.716875 172.843312 
L 74.716875 172.843312 
L 74.716875 165.843312 
L 54.716875 165.843312 
z
" style="fill: #348abd"/>
    </g>
    <g id="text_30">
     <!-- 8.5 -->
     <g transform="translate(82.716875 172.843312)scale(0.1 -0.1)">
      <use xlink:href="#DejaVuSans-38"/>
      <use xlink:href="#DejaVuSans-2e" x="63.623047"/>
      <use xlink:href="#DejaVuSans-35" x="95.410156"/>
     </g>
    </g>
    <g id="patch_17">
     <path d="M 54.716875 187.521437 
L 74.716875 187.521437 
L 74.716875 180.521437 
L 54.716875 180.521437 
z
" style="fill: #988ed5"/>
    </g>
    <g id="text_31">
     <!-- 8.4 -->
     <g transform="translate(82.716875 187.521437)scale(0.1 -0.1)">
      <use xlink:href="#DejaVuSans-38"/>
      <use xlink:href="#DejaVuSans-2e" x="63.623047"/>
      <use xlink:href="#DejaVuSans-34" x="95.410156"/>
     </g>
    </g>
   </g>
  </g>
 </g>
 <defs>
  <clipPath id="p2f7d6d5ef7">
   <rect x="45.716875" y="24.14175" width="902.844" height="543.6"/>
  </clipPath>
 </defs>
</svg>
