<?xml version="1.0" encoding="utf-8" standalone="no"?>
<!DOCTYPE svg PUBLIC "-//W3C//DTD SVG 1.1//EN"
  "http://www.w3.org/Graphics/SVG/1.1/DTD/svg11.dtd">
<svg xmlns:xlink="http://www.w3.org/1999/xlink" width="955.760875pt" height="644.743878pt" viewBox="0 0 955.760875 644.743878" xmlns="http://www.w3.org/2000/svg" version="1.1">
 <metadata>
  <rdf:RDF xmlns:dc="http://purl.org/dc/elements/1.1/" xmlns:cc="http://creativecommons.org/ns#" xmlns:rdf="http://www.w3.org/1999/02/22-rdf-syntax-ns#">
   <cc:Work>
    <dc:type rdf:resource="http://purl.org/dc/dcmitype/StillImage"/>
    <dc:date>2025-11-13T11:54:51.963893</dc:date>
    <dc:format>image/svg+xml</dc:format>
    <dc:creator>
     <cc:Agent>
      <dc:title>Matplotlib v3.6.3, https://matplotlib.org/</dc:title>
     </cc:Agent>
    </dc:creator>
   </cc:Work>
  </rdf:RDF>
 </metadata>
 <defs>
  <style type="text/css">*{stroke-linejoin: round; stroke-linecap: butt}</style>
 </defs>
 <g id="figure_1">
  <g id="patch_1">
   <path d="M 0 644.743878 
L 955.760875 644.743878 
L 955.760875 0 
L 0 0 
z
" style="fill: #ffffff"/>
  </g>
  <g id="axes_1">
   <g id="patch_2">
    <path d="M 45.716875 578.54175 
L 948.560875 578.54175 
L 948.560875 24.14175 
L 45.716875 24.14175 
z
" style="fill: #e5e5e5"/>
   </g>
   <g id="matplotlib.axis_1">
    <g id="xtick_1">
     <g id="line2d_1">
      <path d="M 63.419699 578.54175 
L 63.419699 24.14175 
" clip-path="url(#p2fed1df3dc)" style="fill: none; stroke: #ffffff; stroke-width: 0.8; stroke-linecap: square"/>
     </g>
     <g id="line2d_2">
      <defs>
       <path id="mb6cb43afa2" d="M 0 0 
L 0 3.5 
" style="stroke: #555555; stroke-width: 0.8"/>
      </defs>
      <g>
       <use xlink:href="#mb6cb43afa2" x="63.419699" y="578.54175" style="fill: #555555; stroke: #555555; stroke-width: 0.8"/>
      </g>
     </g>
     <g id="text_1">
      <!-- 2024-11 -->
      <g style="fill: #555555" transform="translate(50.598416 620.459567) rotate(-45) scale(0.1 -0.1)">
       <defs>
        <path id="DejaVuSans-32" d="M 1228 531 
L 3431 531 
L 3431 0 
L 469 0 
L 469 531 
Q 828 903 1448 1529 
Q 2069 2156 2228 2338 
Q 2531 2678 2651 2914 
Q 2772 3150 2772 3378 
Q 2772 3750 2511 3984 
Q 2250 4219 1831 4219 
Q 1534 4219 1204 4116 
Q 875 4013 500 3803 
L 500 4441 
Q 881 4594 1212 4672 
Q 1544 4750 1819 4750 
Q 2544 4750 2975 4387 
Q 3406 4025 3406 3419 
Q 3406 3131 3298 2873 
Q 3191 2616 2906 2266 
Q 2828 2175 2409 1742 
Q 1991 1309 1228 531 
z
" transform="scale(0.015625)"/>
        <path id="DejaVuSans-30" d="M 2034 4250 
Q 1547 4250 1301 3770 
Q 1056 3291 1056 2328 
Q 1056 1369 1301 889 
Q 1547 409 2034 409 
Q 2525 409 2770 889 
Q 3016 1369 3016 2328 
Q 3016 3291 2770 3770 
Q 2525 4250 2034 4250 
z
M 2034 4750 
Q 2819 4750 3233 4129 
Q 3647 3509 3647 2328 
Q 3647 1150 3233 529 
Q 2819 -91 2034 -91 
Q 1250 -91 836 529 
Q 422 1150 422 2328 
Q 422 3509 836 4129 
Q 1250 4750 2034 4750 
z
" transform="scale(0.015625)"/>
        <path id="DejaVuSans-34" d="M 2419 4116 
L 825 1625 
L 2419 1625 
L 2419 4116 
z
M 2253 4666 
L 3047 4666 
L 3047 1625 
L 3713 1625 
L 3713 1100 
L 3047 1100 
L 3047 0 
L 2419 0 
L 2419 1100 
L 313 1100 
L 313 1709 
L 2253 4666 
z
" transform="scale(0.015625)"/>
        <path id="DejaVuSans-2d" d="M 313 2009 
L 1997 2009 
L 1997 1497 
L 313 1497 
L 313 2009 
z
" transform="scale(0.015625)"/>
        <path id="DejaVuSans-31" d="M 794 531 
L 1825 531 
L 1825 4091 
L 703 3866 
L 703 4441 
L 1819 4666 
L 2450 4666 
L 2450 531 
L 3481 531 
L 3481 0 
L 794 0 
L 794 531 
z
" transform="scale(0.015625)"/>
       </defs>
       <use xlink:href="#DejaVuSans-32"/>
       <use xlink:href="#DejaVuSans-30" x="63.623047"/>
       <use xlink:href="#DejaVuSans-32" x="127.246094"/>
       <use xlink:href="#DejaVuSans-34" x="190.869141"/>
       <use xlink:href="#DejaVuSans-2d" x="254.492188"/>
       <use xlink:href="#DejaVuSans-31" x="290.576172"/>
       <use xlink:href="#DejaVuSans-31" x="354.199219"/>
      </g>
     </g>
    </g>
    <g id="xtick_2">
     <g id="line2d_3">
      <path d="M 139.288942 578.54175 
L 139.288942 24.14175 
" clip-path="url(#p2fed1df3dc)" style="fill: none; stroke: #ffffff; stroke-width: 0.8; stroke-linecap: square"/>
     </g>
     <g id="line2d_4">
      <g>
       <use xlink:href="#mb6cb43afa2" x="139.288942" y="578.54175" style="fill: #555555; stroke: #555555; stroke-width: 0.8"/>
      </g>
     </g>
     <g id="text_2">
      <!-- 2024-12 -->
      <g style="fill: #555555" transform="translate(126.46766 620.459567) rotate(-45) scale(0.1 -0.1)">
       <use xlink:href="#DejaVuSans-32"/>
       <use xlink:href="#DejaVuSans-30" x="63.623047"/>
       <use xlink:href="#DejaVuSans-32" x="127.246094"/>
       <use xlink:href="#DejaVuSans-34" x="190.869141"/>
       <use xlink:href="#DejaVuSans-2d" x="254.492188"/>
       <use xlink:href="#DejaVuSans-31" x="290.576172"/>
       <use xlink:href="#DejaVuSans-32" x="354.199219"/>
      </g>
     </g>
    </g>
    <g id="xtick_3">
     <g id="line2d_5">
      <path d="M 217.687161 578.54175 
L 217.687161 24.14175 
" clip-path="url(#p2fed1df3dc)" style="fill: none; stroke: #ffffff; stroke-width: 0.8; stroke-linecap: square"/>
     </g>
     <g id="line2d_6">
      <g>
       <use xlink:href="#mb6cb43afa2" x="217.687161" y="578.54175" style="fill: #555555; stroke: #555555; stroke-width: 0.8"/>
      </g>
     </g>
     <g id="text_3">
      <!-- 2025-01 -->
      <g style="fill: #555555" transform="translate(204.865878 620.459567) rotate(-45) scale(0.1 -0.1)">
       <defs>
        <path id="DejaVuSans-35" d="M 691 4666 
L 3169 4666 
L 3169 4134 
L 1269 4134 
L 1269 2991 
Q 1406 3038 1543 3061 
Q 1681 3084 1819 3084 
Q 2600 3084 3056 2656 
Q 3513 2228 3513 1497 
Q 3513 744 3044 326 
Q 2575 -91 1722 -91 
Q 1428 -91 1123 -41 
Q 819 9 494 109 
L 494 744 
Q 775 591 1075 516 
Q 1375 441 1709 441 
Q 2250 441 2565 725 
Q 2881 1009 2881 1497 
Q 2881 1984 2565 2268 
Q 2250 2553 1709 2553 
Q 1456 2553 1204 2497 
Q 953 2441 691 2322 
L 691 4666 
z
" transform="scale(0.015625)"/>
       </defs>
       <use xlink:href="#DejaVuSans-32"/>
       <use xlink:href="#DejaVuSans-30" x="63.623047"/>
       <use xlink:href="#DejaVuSans-32" x="127.246094"/>
       <use xlink:href="#DejaVuSans-35" x="190.869141"/>
       <use xlink:href="#DejaVuSans-2d" x="254.492188"/>
       <use xlink:href="#DejaVuSans-30" x="290.576172"/>
       <use xlink:href="#DejaVuSans-31" x="354.199219"/>
      </g>
     </g>
    </g>
    <g id="xtick_4">
     <g id="line2d_7">
      <path d="M 296.085379 578.54175 
L 296.085379 24.14175 
" clip-path="url(#p2fed1df3dc)" style="fill: none; stroke: #ffffff; stroke-width: 0.8; stroke-linecap: square"/>
     </g>
     <g id="line2d_8">
      <g>
       <use xlink:href="#mb6cb43afa2" x="296.085379" y="578.54175" style="fill: #555555; stroke: #555555; stroke-width: 0.8"/>
      </g>
     </g>
     <g id="text_4">
      <!-- 2025-02 -->
      <g style="fill: #555555" transform="translate(283.264097 620.459567) rotate(-45) scale(0.1 -0.1)">
       <use xlink:href="#DejaVuSans-32"/>
       <use xlink:href="#DejaVuSans-30" x="63.623047"/>
       <use xlink:href="#DejaVuSans-32" x="127.246094"/>
       <use xlink:href="#DejaVuSans-35" x="190.869141"/>
       <use xlink:href="#DejaVuSans-2d" x="254.492188"/>
       <use xlink:href="#DejaVuSans-30" x="290.576172"/>
       <use xlink:href="#DejaVuSans-32" x="354.199219"/>
      </g>
     </g>
    </g>
    <g id="xtick_5">
     <g id="line2d_9">
      <path d="M 366.896673 578.54175 
L 366.896673 24.14175 
" clip-path="url(#p2fed1df3dc)" style="fill: none; stroke: #ffffff; stroke-width: 0.8; stroke-linecap: square"/>
     </g>
     <g id="line2d_10">
      <g>
       <use xlink:href="#mb6cb43afa2" x="366.896673" y="578.54175" style="fill: #555555; stroke: #555555; stroke-width: 0.8"/>
      </g>
     </g>
     <g id="text_5">
      <!-- 2025-03 -->
      <g style="fill: #555555" transform="translate(354.075391 620.459567) rotate(-45) scale(0.1 -0.1)">
       <defs>
        <path id="DejaVuSans-33" d="M 2597 2516 
Q 3050 2419 3304 2112 
Q 3559 1806 3559 1356 
Q 3559 666 3084 287 
Q 2609 -91 1734 -91 
Q 1441 -91 1130 -33 
Q 819 25 488 141 
L 488 750 
Q 750 597 1062 519 
Q 1375 441 1716 441 
Q 2309 441 2620 675 
Q 2931 909 2931 1356 
Q 2931 1769 2642 2001 
Q 2353 2234 1838 2234 
L 1294 2234 
L 1294 2753 
L 1863 2753 
Q 2328 2753 2575 2939 
Q 2822 3125 2822 3475 
Q 2822 3834 2567 4026 
Q 2313 4219 1838 4219 
Q 1578 4219 1281 4162 
Q 984 4106 628 3988 
L 628 4550 
Q 988 4650 1302 4700 
Q 1616 4750 1894 4750 
Q 2613 4750 3031 4423 
Q 3450 4097 3450 3541 
Q 3450 3153 3228 2886 
Q 3006 2619 2597 2516 
z
" transform="scale(0.015625)"/>
       </defs>
       <use xlink:href="#DejaVuSans-32"/>
       <use xlink:href="#DejaVuSans-30" x="63.623047"/>
       <use xlink:href="#DejaVuSans-32" x="127.246094"/>
       <use xlink:href="#DejaVuSans-35" x="190.869141"/>
       <use xlink:href="#DejaVuSans-2d" x="254.492188"/>
       <use xlink:href="#DejaVuSans-30" x="290.576172"/>
       <use xlink:href="#DejaVuSans-33" x="354.199219"/>
      </g>
     </g>
    </g>
    <g id="xtick_6">
     <g id="line2d_11">
      <path d="M 445.294892 578.54175 
L 445.294892 24.14175 
" clip-path="url(#p2fed1df3dc)" style="fill: none; stroke: #ffffff; stroke-width: 0.8; stroke-linecap: square"/>
     </g>
     <g id="line2d_12">
      <g>
       <use xlink:href="#mb6cb43afa2" x="445.294892" y="578.54175" style="fill: #555555; stroke: #555555; stroke-width: 0.8"/>
      </g>
     </g>
     <g id="text_6">
      <!-- 2025-04 -->
      <g style="fill: #555555" transform="translate(432.47361 620.459567) rotate(-45) scale(0.1 -0.1)">
       <use xlink:href="#DejaVuSans-32"/>
       <use xlink:href="#DejaVuSans-30" x="63.623047"/>
       <use xlink:href="#DejaVuSans-32" x="127.246094"/>
       <use xlink:href="#DejaVuSans-35" x="190.869141"/>
       <use xlink:href="#DejaVuSans-2d" x="254.492188"/>
       <use xlink:href="#DejaVuSans-30" x="290.576172"/>
       <use xlink:href="#DejaVuSans-34" x="354.199219"/>
      </g>
     </g>
    </g>
    <g id="xtick_7">
     <g id="line2d_13">
      <path d="M 521.164136 578.54175 
L 521.164136 24.14175 
" clip-path="url(#p2fed1df3dc)" style="fill: none; stroke: #ffffff; stroke-width: 0.8; stroke-linecap: square"/>
     </g>
     <g id="line2d_14">
      <g>
       <use xlink:href="#mb6cb43afa2" x="521.164136" y="578.54175" style="fill: #555555; stroke: #555555; stroke-width: 0.8"/>
      </g>
     </g>
     <g id="text_7">
      <!-- 2025-05 -->
      <g style="fill: #555555" transform="translate(508.342853 620.459567) rotate(-45) scale(0.1 -0.1)">
       <use xlink:href="#DejaVuSans-32"/>
       <use xlink:href="#DejaVuSans-30" x="63.623047"/>
       <use xlink:href="#DejaVuSans-32" x="127.246094"/>
       <use xlink:href="#DejaVuSans-35" x="190.869141"/>
       <use xlink:href="#DejaVuSans-2d" x="254.492188"/>
       <use xlink:href="#DejaVuSans-30" x="290.576172"/>
       <use xlink:href="#DejaVuSans-35" x="354.199219"/>
      </g>
     </g>
    </g>
    <g id="xtick_8">
     <g id="line2d_15">
      <path d="M 599.562354 578.54175 
L 599.562354 24.14175 
" clip-path="url(#p2fed1df3dc)" style="fill: none; stroke: #ffffff; stroke-width: 0.8; stroke-linecap: square"/>
     </g>
     <g id="line2d_16">
      <g>
       <use xlink:href="#mb6cb43afa2" x="599.562354" y="578.54175" style="fill: #555555; stroke: #555555; stroke-width: 0.8"/>
      </g>
     </g>
     <g id="text_8">
      <!-- 2025-06 -->
      <g style="fill: #555555" transform="translate(586.741072 620.459567) rotate(-45) scale(0.1 -0.1)">
       <defs>
        <path id="DejaVuSans-36" d="M 2113 2584 
Q 1688 2584 1439 2293 
Q 1191 2003 1191 1497 
Q 1191 994 1439 701 
Q 1688 409 2113 409 
Q 2538 409 2786 701 
Q 3034 994 3034 1497 
Q 3034 2003 2786 2293 
Q 2538 2584 2113 2584 
z
M 3366 4563 
L 3366 3988 
Q 3128 4100 2886 4159 
Q 2644 4219 2406 4219 
Q 1781 4219 1451 3797 
Q 1122 3375 1075 2522 
Q 1259 2794 1537 2939 
Q 1816 3084 2150 3084 
Q 2853 3084 3261 2657 
Q 3669 2231 3669 1497 
Q 3669 778 3244 343 
Q 2819 -91 2113 -91 
Q 1303 -91 875 529 
Q 447 1150 447 2328 
Q 447 3434 972 4092 
Q 1497 4750 2381 4750 
Q 2619 4750 2861 4703 
Q 3103 4656 3366 4563 
z
" transform="scale(0.015625)"/>
       </defs>
       <use xlink:href="#DejaVuSans-32"/>
       <use xlink:href="#DejaVuSans-30" x="63.623047"/>
       <use xlink:href="#DejaVuSans-32" x="127.246094"/>
       <use xlink:href="#DejaVuSans-35" x="190.869141"/>
       <use xlink:href="#DejaVuSans-2d" x="254.492188"/>
       <use xlink:href="#DejaVuSans-30" x="290.576172"/>
       <use xlink:href="#DejaVuSans-36" x="354.199219"/>
      </g>
     </g>
    </g>
    <g id="xtick_9">
     <g id="line2d_17">
      <path d="M 675.431598 578.54175 
L 675.431598 24.14175 
" clip-path="url(#p2fed1df3dc)" style="fill: none; stroke: #ffffff; stroke-width: 0.8; stroke-linecap: square"/>
     </g>
     <g id="line2d_18">
      <g>
       <use xlink:href="#mb6cb43afa2" x="675.431598" y="578.54175" style="fill: #555555; stroke: #555555; stroke-width: 0.8"/>
      </g>
     </g>
     <g id="text_9">
      <!-- 2025-07 -->
      <g style="fill: #555555" transform="translate(662.610315 620.459567) rotate(-45) scale(0.1 -0.1)">
       <defs>
        <path id="DejaVuSans-37" d="M 525 4666 
L 3525 4666 
L 3525 4397 
L 1831 0 
L 1172 0 
L 2766 4134 
L 525 4134 
L 525 4666 
z
" transform="scale(0.015625)"/>
       </defs>
       <use xlink:href="#DejaVuSans-32"/>
       <use xlink:href="#DejaVuSans-30" x="63.623047"/>
       <use xlink:href="#DejaVuSans-32" x="127.246094"/>
       <use xlink:href="#DejaVuSans-35" x="190.869141"/>
       <use xlink:href="#DejaVuSans-2d" x="254.492188"/>
       <use xlink:href="#DejaVuSans-30" x="290.576172"/>
       <use xlink:href="#DejaVuSans-37" x="354.199219"/>
      </g>
     </g>
    </g>
    <g id="xtick_10">
     <g id="line2d_19">
      <path d="M 753.829816 578.54175 
L 753.829816 24.14175 
" clip-path="url(#p2fed1df3dc)" style="fill: none; stroke: #ffffff; stroke-width: 0.8; stroke-linecap: square"/>
     </g>
     <g id="line2d_20">
      <g>
       <use xlink:href="#mb6cb43afa2" x="753.829816" y="578.54175" style="fill: #555555; stroke: #555555; stroke-width: 0.8"/>
      </g>
     </g>
     <g id="text_10">
      <!-- 2025-08 -->
      <g style="fill: #555555" transform="translate(741.008534 620.459567) rotate(-45) scale(0.1 -0.1)">
       <defs>
        <path id="DejaVuSans-38" d="M 2034 2216 
Q 1584 2216 1326 1975 
Q 1069 1734 1069 1313 
Q 1069 891 1326 650 
Q 1584 409 2034 409 
Q 2484 409 2743 651 
Q 3003 894 3003 1313 
Q 3003 1734 2745 1975 
Q 2488 2216 2034 2216 
z
M 1403 2484 
Q 997 2584 770 2862 
Q 544 3141 544 3541 
Q 544 4100 942 4425 
Q 1341 4750 2034 4750 
Q 2731 4750 3128 4425 
Q 3525 4100 3525 3541 
Q 3525 3141 3298 2862 
Q 3072 2584 2669 2484 
Q 3125 2378 3379 2068 
Q 3634 1759 3634 1313 
Q 3634 634 3220 271 
Q 2806 -91 2034 -91 
Q 1263 -91 848 271 
Q 434 634 434 1313 
Q 434 1759 690 2068 
Q 947 2378 1403 2484 
z
M 1172 3481 
Q 1172 3119 1398 2916 
Q 1625 2713 2034 2713 
Q 2441 2713 2670 2916 
Q 2900 3119 2900 3481 
Q 2900 3844 2670 4047 
Q 2441 4250 2034 4250 
Q 1625 4250 1398 4047 
Q 1172 3844 1172 3481 
z
" transform="scale(0.015625)"/>
       </defs>
       <use xlink:href="#DejaVuSans-32"/>
       <use xlink:href="#DejaVuSans-30" x="63.623047"/>
       <use xlink:href="#DejaVuSans-32" x="127.246094"/>
       <use xlink:href="#DejaVuSans-35" x="190.869141"/>
       <use xlink:href="#DejaVuSans-2d" x="254.492188"/>
       <use xlink:href="#DejaVuSans-30" x="290.576172"/>
       <use xlink:href="#DejaVuSans-38" x="354.199219"/>
      </g>
     </g>
    </g>
    <g id="xtick_11">
     <g id="line2d_21">
      <path d="M 832.228035 578.54175 
L 832.228035 24.14175 
" clip-path="url(#p2fed1df3dc)" style="fill: none; stroke: #ffffff; stroke-width: 0.8; stroke-linecap: square"/>
     </g>
     <g id="line2d_22">
      <g>
       <use xlink:href="#mb6cb43afa2" x="832.228035" y="578.54175" style="fill: #555555; stroke: #555555; stroke-width: 0.8"/>
      </g>
     </g>
     <g id="text_11">
      <!-- 2025-09 -->
      <g style="fill: #555555" transform="translate(819.406752 620.459567) rotate(-45) scale(0.1 -0.1)">
       <defs>
        <path id="DejaVuSans-39" d="M 703 97 
L 703 672 
Q 941 559 1184 500 
Q 1428 441 1663 441 
Q 2288 441 2617 861 
Q 2947 1281 2994 2138 
Q 2813 1869 2534 1725 
Q 2256 1581 1919 1581 
Q 1219 1581 811 2004 
Q 403 2428 403 3163 
Q 403 3881 828 4315 
Q 1253 4750 1959 4750 
Q 2769 4750 3195 4129 
Q 3622 3509 3622 2328 
Q 3622 1225 3098 567 
Q 2575 -91 1691 -91 
Q 1453 -91 1209 -44 
Q 966 3 703 97 
z
M 1959 2075 
Q 2384 2075 2632 2365 
Q 2881 2656 2881 3163 
Q 2881 3666 2632 3958 
Q 2384 4250 1959 4250 
Q 1534 4250 1286 3958 
Q 1038 3666 1038 3163 
Q 1038 2656 1286 2365 
Q 1534 2075 1959 2075 
z
" transform="scale(0.015625)"/>
       </defs>
       <use xlink:href="#DejaVuSans-32"/>
       <use xlink:href="#DejaVuSans-30" x="63.623047"/>
       <use xlink:href="#DejaVuSans-32" x="127.246094"/>
       <use xlink:href="#DejaVuSans-35" x="190.869141"/>
       <use xlink:href="#DejaVuSans-2d" x="254.492188"/>
       <use xlink:href="#DejaVuSans-30" x="290.576172"/>
       <use xlink:href="#DejaVuSans-39" x="354.199219"/>
      </g>
     </g>
    </g>
    <g id="xtick_12">
     <g id="line2d_23">
      <path d="M 908.097278 578.54175 
L 908.097278 24.14175 
" clip-path="url(#p2fed1df3dc)" style="fill: none; stroke: #ffffff; stroke-width: 0.8; stroke-linecap: square"/>
     </g>
     <g id="line2d_24">
      <g>
       <use xlink:href="#mb6cb43afa2" x="908.097278" y="578.54175" style="fill: #555555; stroke: #555555; stroke-width: 0.8"/>
      </g>
     </g>
     <g id="text_12">
      <!-- 2025-10 -->
      <g style="fill: #555555" transform="translate(895.275996 620.459567) rotate(-45) scale(0.1 -0.1)">
       <use xlink:href="#DejaVuSans-32"/>
       <use xlink:href="#DejaVuSans-30" x="63.623047"/>
       <use xlink:href="#DejaVuSans-32" x="127.246094"/>
       <use xlink:href="#DejaVuSans-35" x="190.869141"/>
       <use xlink:href="#DejaVuSans-2d" x="254.492188"/>
       <use xlink:href="#DejaVuSans-31" x="290.576172"/>
       <use xlink:href="#DejaVuSans-30" x="354.199219"/>
      </g>
     </g>
    </g>
    <g id="text_13">
     <!-- Date -->
     <g style="fill: #555555" transform="translate(482.797938 635.048253) scale(0.12 -0.12)">
      <defs>
       <path id="DejaVuSans-44" d="M 1259 4147 
L 1259 519 
L 2022 519 
Q 2988 519 3436 956 
Q 3884 1394 3884 2338 
Q 3884 3275 3436 3711 
Q 2988 4147 2022 4147 
L 1259 4147 
z
M 628 4666 
L 1925 4666 
Q 3281 4666 3915 4102 
Q 4550 3538 4550 2338 
Q 4550 1131 3912 565 
Q 3275 0 1925 0 
L 628 0 
L 628 4666 
z
" transform="scale(0.015625)"/>
       <path id="DejaVuSans-61" d="M 2194 1759 
Q 1497 1759 1228 1600 
Q 959 1441 959 1056 
Q 959 750 1161 570 
Q 1363 391 1709 391 
Q 2188 391 2477 730 
Q 2766 1069 2766 1631 
L 2766 1759 
L 2194 1759 
z
M 3341 1997 
L 3341 0 
L 2766 0 
L 2766 531 
Q 2569 213 2275 61 
Q 1981 -91 1556 -91 
Q 1019 -91 701 211 
Q 384 513 384 1019 
Q 384 1609 779 1909 
Q 1175 2209 1959 2209 
L 2766 2209 
L 2766 2266 
Q 2766 2663 2505 2880 
Q 2244 3097 1772 3097 
Q 1472 3097 1187 3025 
Q 903 2953 641 2809 
L 641 3341 
Q 956 3463 1253 3523 
Q 1550 3584 1831 3584 
Q 2591 3584 2966 3190 
Q 3341 2797 3341 1997 
z
" transform="scale(0.015625)"/>
       <path id="DejaVuSans-74" d="M 1172 4494 
L 1172 3500 
L 2356 3500 
L 2356 3053 
L 1172 3053 
L 1172 1153 
Q 1172 725 1289 603 
Q 1406 481 1766 481 
L 2356 481 
L 2356 0 
L 1766 0 
Q 1100 0 847 248 
Q 594 497 594 1153 
L 594 3053 
L 172 3053 
L 172 3500 
L 594 3500 
L 594 4494 
L 1172 4494 
z
" transform="scale(0.015625)"/>
       <path id="DejaVuSans-65" d="M 3597 1894 
L 3597 1613 
L 953 1613 
Q 991 1019 1311 708 
Q 1631 397 2203 397 
Q 2534 397 2845 478 
Q 3156 559 3463 722 
L 3463 178 
Q 3153 47 2828 -22 
Q 2503 -91 2169 -91 
Q 1331 -91 842 396 
Q 353 884 353 1716 
Q 353 2575 817 3079 
Q 1281 3584 2069 3584 
Q 2775 3584 3186 3129 
Q 3597 2675 3597 1894 
z
M 3022 2063 
Q 3016 2534 2758 2815 
Q 2500 3097 2075 3097 
Q 1594 3097 1305 2825 
Q 1016 2553 972 2059 
L 3022 2063 
z
" transform="scale(0.015625)"/>
      </defs>
      <use xlink:href="#DejaVuSans-44"/>
      <use xlink:href="#DejaVuSans-61" x="77.001953"/>
      <use xlink:href="#DejaVuSans-74" x="138.28125"/>
      <use xlink:href="#DejaVuSans-65" x="177.490234"/>
     </g>
    </g>
   </g>
   <g id="matplotlib.axis_2">
    <g id="ytick_1">
     <g id="line2d_25">
      <path d="M 45.716875 578.54175 
L 948.560875 578.54175 
" clip-path="url(#p2fed1df3dc)" style="fill: none; stroke: #ffffff; stroke-width: 0.8; stroke-linecap: square"/>
     </g>
     <g id="line2d_26">
      <defs>
       <path id="m1eb653fc38" d="M 0 0 
L -3.5 0 
" style="stroke: #555555; stroke-width: 0.8"/>
      </defs>
      <g>
       <use xlink:href="#m1eb653fc38" x="45.716875" y="578.54175" style="fill: #555555; stroke: #555555; stroke-width: 0.8"/>
      </g>
     </g>
     <g id="text_14">
      <!-- 0.0 -->
      <g style="fill: #555555" transform="translate(22.81375 582.340969) scale(0.1 -0.1)">
       <defs>
        <path id="DejaVuSans-2e" d="M 684 794 
L 1344 794 
L 1344 0 
L 684 0 
L 684 794 
z
" transform="scale(0.015625)"/>
       </defs>
       <use xlink:href="#DejaVuSans-30"/>
       <use xlink:href="#DejaVuSans-2e" x="63.623047"/>
       <use xlink:href="#DejaVuSans-30" x="95.410156"/>
      </g>
     </g>
    </g>
    <g id="ytick_2">
     <g id="line2d_27">
      <path d="M 45.716875 467.66175 
L 948.560875 467.66175 
" clip-path="url(#p2fed1df3dc)" style="fill: none; stroke: #ffffff; stroke-width: 0.8; stroke-linecap: square"/>
     </g>
     <g id="line2d_28">
      <g>
       <use xlink:href="#m1eb653fc38" x="45.716875" y="467.66175" style="fill: #555555; stroke: #555555; stroke-width: 0.8"/>
      </g>
     </g>
     <g id="text_15">
      <!-- 0.2 -->
      <g style="fill: #555555" transform="translate(22.81375 471.460969) scale(0.1 -0.1)">
       <use xlink:href="#DejaVuSans-30"/>
       <use xlink:href="#DejaVuSans-2e" x="63.623047"/>
       <use xlink:href="#DejaVuSans-32" x="95.410156"/>
      </g>
     </g>
    </g>
    <g id="ytick_3">
     <g id="line2d_29">
      <path d="M 45.716875 356.78175 
L 948.560875 356.78175 
" clip-path="url(#p2fed1df3dc)" style="fill: none; stroke: #ffffff; stroke-width: 0.8; stroke-linecap: square"/>
     </g>
     <g id="line2d_30">
      <g>
       <use xlink:href="#m1eb653fc38" x="45.716875" y="356.78175" style="fill: #555555; stroke: #555555; stroke-width: 0.8"/>
      </g>
     </g>
     <g id="text_16">
      <!-- 0.4 -->
      <g style="fill: #555555" transform="translate(22.81375 360.580969) scale(0.1 -0.1)">
       <use xlink:href="#DejaVuSans-30"/>
       <use xlink:href="#DejaVuSans-2e" x="63.623047"/>
       <use xlink:href="#DejaVuSans-34" x="95.410156"/>
      </g>
     </g>
    </g>
    <g id="ytick_4">
     <g id="line2d_31">
      <path d="M 45.716875 245.90175 
L 948.560875 245.90175 
" clip-path="url(#p2fed1df3dc)" style="fill: none; stroke: #ffffff; stroke-width: 0.8; stroke-linecap: square"/>
     </g>
     <g id="line2d_32">
      <g>
       <use xlink:href="#m1eb653fc38" x="45.716875" y="245.90175" style="fill: #555555; stroke: #555555; stroke-width: 0.8"/>
      </g>
     </g>
     <g id="text_17">
      <!-- 0.6 -->
      <g style="fill: #555555" transform="translate(22.81375 249.700969) scale(0.1 -0.1)">
       <use xlink:href="#DejaVuSans-30"/>
       <use xlink:href="#DejaVuSans-2e" x="63.623047"/>
       <use xlink:href="#DejaVuSans-36" x="95.410156"/>
      </g>
     </g>
    </g>
    <g id="ytick_5">
     <g id="line2d_33">
      <path d="M 45.716875 135.02175 
L 948.560875 135.02175 
" clip-path="url(#p2fed1df3dc)" style="fill: none; stroke: #ffffff; stroke-width: 0.8; stroke-linecap: square"/>
     </g>
     <g id="line2d_34">
      <g>
       <use xlink:href="#m1eb653fc38" x="45.716875" y="135.02175" style="fill: #555555; stroke: #555555; stroke-width: 0.8"/>
      </g>
     </g>
     <g id="text_18">
      <!-- 0.8 -->
      <g style="fill: #555555" transform="translate(22.81375 138.820969) scale(0.1 -0.1)">
       <use xlink:href="#DejaVuSans-30"/>
       <use xlink:href="#DejaVuSans-2e" x="63.623047"/>
       <use xlink:href="#DejaVuSans-38" x="95.410156"/>
      </g>
     </g>
    </g>
    <g id="ytick_6">
     <g id="line2d_35">
      <path d="M 45.716875 24.14175 
L 948.560875 24.14175 
" clip-path="url(#p2fed1df3dc)" style="fill: none; stroke: #ffffff; stroke-width: 0.8; stroke-linecap: square"/>
     </g>
     <g id="line2d_36">
      <g>
       <use xlink:href="#m1eb653fc38" x="45.716875" y="24.14175" style="fill: #555555; stroke: #555555; stroke-width: 0.8"/>
      </g>
     </g>
     <g id="text_19">
      <!-- 1.0 -->
      <g style="fill: #555555" transform="translate(22.81375 27.940969) scale(0.1 -0.1)">
       <use xlink:href="#DejaVuSans-31"/>
       <use xlink:href="#DejaVuSans-2e" x="63.623047"/>
       <use xlink:href="#DejaVuSans-30" x="95.410156"/>
      </g>
     </g>
    </g>
    <g id="text_20">
     <!-- Share of Instances -->
     <g style="fill: #555555" transform="translate(16.318125 356.897063) rotate(-90) scale(0.12 -0.12)">
      <defs>
       <path id="DejaVuSans-53" d="M 3425 4513 
L 3425 3897 
Q 3066 4069 2747 4153 
Q 2428 4238 2131 4238 
Q 1616 4238 1336 4038 
Q 1056 3838 1056 3469 
Q 1056 3159 1242 3001 
Q 1428 2844 1947 2747 
L 2328 2669 
Q 3034 2534 3370 2195 
Q 3706 1856 3706 1288 
Q 3706 609 3251 259 
Q 2797 -91 1919 -91 
Q 1588 -91 1214 -16 
Q 841 59 441 206 
L 441 856 
Q 825 641 1194 531 
Q 1563 422 1919 422 
Q 2459 422 2753 634 
Q 3047 847 3047 1241 
Q 3047 1584 2836 1778 
Q 2625 1972 2144 2069 
L 1759 2144 
Q 1053 2284 737 2584 
Q 422 2884 422 3419 
Q 422 4038 858 4394 
Q 1294 4750 2059 4750 
Q 2388 4750 2728 4690 
Q 3069 4631 3425 4513 
z
" transform="scale(0.015625)"/>
       <path id="DejaVuSans-68" d="M 3513 2113 
L 3513 0 
L 2938 0 
L 2938 2094 
Q 2938 2591 2744 2837 
Q 2550 3084 2163 3084 
Q 1697 3084 1428 2787 
Q 1159 2491 1159 1978 
L 1159 0 
L 581 0 
L 581 4863 
L 1159 4863 
L 1159 2956 
Q 1366 3272 1645 3428 
Q 1925 3584 2291 3584 
Q 2894 3584 3203 3211 
Q 3513 2838 3513 2113 
z
" transform="scale(0.015625)"/>
       <path id="DejaVuSans-72" d="M 2631 2963 
Q 2534 3019 2420 3045 
Q 2306 3072 2169 3072 
Q 1681 3072 1420 2755 
Q 1159 2438 1159 1844 
L 1159 0 
L 581 0 
L 581 3500 
L 1159 3500 
L 1159 2956 
Q 1341 3275 1631 3429 
Q 1922 3584 2338 3584 
Q 2397 3584 2469 3576 
Q 2541 3569 2628 3553 
L 2631 2963 
z
" transform="scale(0.015625)"/>
       <path id="DejaVuSans-20" transform="scale(0.015625)"/>
       <path id="DejaVuSans-6f" d="M 1959 3097 
Q 1497 3097 1228 2736 
Q 959 2375 959 1747 
Q 959 1119 1226 758 
Q 1494 397 1959 397 
Q 2419 397 2687 759 
Q 2956 1122 2956 1747 
Q 2956 2369 2687 2733 
Q 2419 3097 1959 3097 
z
M 1959 3584 
Q 2709 3584 3137 3096 
Q 3566 2609 3566 1747 
Q 3566 888 3137 398 
Q 2709 -91 1959 -91 
Q 1206 -91 779 398 
Q 353 888 353 1747 
Q 353 2609 779 3096 
Q 1206 3584 1959 3584 
z
" transform="scale(0.015625)"/>
       <path id="DejaVuSans-66" d="M 2375 4863 
L 2375 4384 
L 1825 4384 
Q 1516 4384 1395 4259 
Q 1275 4134 1275 3809 
L 1275 3500 
L 2222 3500 
L 2222 3053 
L 1275 3053 
L 1275 0 
L 697 0 
L 697 3053 
L 147 3053 
L 147 3500 
L 697 3500 
L 697 3744 
Q 697 4328 969 4595 
Q 1241 4863 1831 4863 
L 2375 4863 
z
" transform="scale(0.015625)"/>
       <path id="DejaVuSans-49" d="M 628 4666 
L 1259 4666 
L 1259 0 
L 628 0 
L 628 4666 
z
" transform="scale(0.015625)"/>
       <path id="DejaVuSans-6e" d="M 3513 2113 
L 3513 0 
L 2938 0 
L 2938 2094 
Q 2938 2591 2744 2837 
Q 2550 3084 2163 3084 
Q 1697 3084 1428 2787 
Q 1159 2491 1159 1978 
L 1159 0 
L 581 0 
L 581 3500 
L 1159 3500 
L 1159 2956 
Q 1366 3272 1645 3428 
Q 1925 3584 2291 3584 
Q 2894 3584 3203 3211 
Q 3513 2838 3513 2113 
z
" transform="scale(0.015625)"/>
       <path id="DejaVuSans-73" d="M 2834 3397 
L 2834 2853 
Q 2591 2978 2328 3040 
Q 2066 3103 1784 3103 
Q 1356 3103 1142 2972 
Q 928 2841 928 2578 
Q 928 2378 1081 2264 
Q 1234 2150 1697 2047 
L 1894 2003 
Q 2506 1872 2764 1633 
Q 3022 1394 3022 966 
Q 3022 478 2636 193 
Q 2250 -91 1575 -91 
Q 1294 -91 989 -36 
Q 684 19 347 128 
L 347 722 
Q 666 556 975 473 
Q 1284 391 1588 391 
Q 1994 391 2212 530 
Q 2431 669 2431 922 
Q 2431 1156 2273 1281 
Q 2116 1406 1581 1522 
L 1381 1569 
Q 847 1681 609 1914 
Q 372 2147 372 2553 
Q 372 3047 722 3315 
Q 1072 3584 1716 3584 
Q 2034 3584 2315 3537 
Q 2597 3491 2834 3397 
z
" transform="scale(0.015625)"/>
       <path id="DejaVuSans-63" d="M 3122 3366 
L 3122 2828 
Q 2878 2963 2633 3030 
Q 2388 3097 2138 3097 
Q 1578 3097 1268 2742 
Q 959 2388 959 1747 
Q 959 1106 1268 751 
Q 1578 397 2138 397 
Q 2388 397 2633 464 
Q 2878 531 3122 666 
L 3122 134 
Q 2881 22 2623 -34 
Q 2366 -91 2075 -91 
Q 1284 -91 818 406 
Q 353 903 353 1747 
Q 353 2603 823 3093 
Q 1294 3584 2113 3584 
Q 2378 3584 2631 3529 
Q 2884 3475 3122 3366 
z
" transform="scale(0.015625)"/>
      </defs>
      <use xlink:href="#DejaVuSans-53"/>
      <use xlink:href="#DejaVuSans-68" x="63.476562"/>
      <use xlink:href="#DejaVuSans-61" x="126.855469"/>
      <use xlink:href="#DejaVuSans-72" x="188.134766"/>
      <use xlink:href="#DejaVuSans-65" x="226.998047"/>
      <use xlink:href="#DejaVuSans-20" x="288.521484"/>
      <use xlink:href="#DejaVuSans-6f" x="320.308594"/>
      <use xlink:href="#DejaVuSans-66" x="381.490234"/>
      <use xlink:href="#DejaVuSans-20" x="416.695312"/>
      <use xlink:href="#DejaVuSans-49" x="448.482422"/>
      <use xlink:href="#DejaVuSans-6e" x="477.974609"/>
      <use xlink:href="#DejaVuSans-73" x="541.353516"/>
      <use xlink:href="#DejaVuSans-74" x="593.453125"/>
      <use xlink:href="#DejaVuSans-61" x="632.662109"/>
      <use xlink:href="#DejaVuSans-6e" x="693.941406"/>
      <use xlink:href="#DejaVuSans-63" x="757.320312"/>
      <use xlink:href="#DejaVuSans-65" x="812.300781"/>
      <use xlink:href="#DejaVuSans-73" x="873.824219"/>
     </g>
    </g>
   </g>
   <g id="PolyCollection_1">
    <path d="M 45.716875 578.54175 
L 45.716875 578.54175 
L 63.419699 578.54175 
L 81.122522 578.54175 
L 98.825346 578.54175 
L 116.528169 578.54175 
L 134.230993 578.54175 
L 151.933816 578.54175 
L 169.63664 578.54175 
L 187.339463 578.54175 
L 205.042287 578.54175 
L 222.74511 578.54175 
L 240.447934 578.54175 
L 258.150757 578.54175 
L 275.853581 578.54175 
L 293.556404 578.54175 
L 311.259228 578.54175 
L 328.962051 578.54175 
L 346.664875 578.54175 
L 364.367699 578.54175 
L 382.070522 578.54175 
L 399.773346 578.54175 
L 417.476169 578.54175 
L 435.178993 578.54175 
L 452.881816 578.54175 
L 470.58464 578.54175 
L 488.287463 578.54175 
L 505.990287 578.54175 
L 523.69311 578.54175 
L 541.395934 578.54175 
L 559.098757 578.54175 
L 576.801581 578.54175 
L 594.504404 578.54175 
L 612.207228 578.54175 
L 629.910051 578.54175 
L 647.612875 578.54175 
L 665.315699 578.54175 
L 683.018522 578.54175 
L 700.721346 578.54175 
L 718.424169 578.54175 
L 736.126993 578.54175 
L 753.829816 578.54175 
L 771.53264 578.54175 
L 789.235463 578.54175 
L 806.938287 578.54175 
L 824.64111 578.54175 
L 842.343934 578.54175 
L 860.046757 578.54175 
L 877.749581 578.54175 
L 895.452404 578.54175 
L 913.155228 578.54175 
L 930.858051 578.54175 
L 948.560875 578.54175 
L 948.560875 578.385114 
L 948.560875 578.385114 
L 930.858051 578.382981 
L 913.155228 578.380292 
L 895.452404 578.382795 
L 877.749581 578.374177 
L 860.046757 578.351405 
L 842.343934 578.269836 
L 824.64111 578.281542 
L 806.938287 578.320031 
L 789.235463 578.321124 
L 771.53264 578.344544 
L 753.829816 578.37765 
L 736.126993 578.383348 
L 718.424169 578.396297 
L 700.721346 578.418134 
L 683.018522 578.431026 
L 665.315699 578.447838 
L 647.612875 578.450887 
L 629.910051 578.465505 
L 612.207228 578.482103 
L 594.504404 578.498722 
L 576.801581 578.530561 
L 559.098757 578.541495 
L 541.395934 578.54124 
L 523.69311 578.54175 
L 505.990287 578.54175 
L 488.287463 578.54175 
L 470.58464 578.54175 
L 452.881816 578.54175 
L 435.178993 578.54175 
L 417.476169 578.54175 
L 399.773346 578.54175 
L 382.070522 578.541491 
L 364.367699 578.54175 
L 346.664875 578.54175 
L 328.962051 578.54175 
L 311.259228 578.541488 
L 293.556404 578.54175 
L 275.853581 578.541493 
L 258.150757 578.54175 
L 240.447934 578.54175 
L 222.74511 578.54175 
L 205.042287 578.54175 
L 187.339463 578.54175 
L 169.63664 578.54175 
L 151.933816 578.54175 
L 134.230993 578.54175 
L 116.528169 578.54175 
L 98.825346 578.54175 
L 81.122522 578.54175 
L 63.419699 578.54175 
L 45.716875 578.54175 
z
" clip-path="url(#p2fed1df3dc)" style="fill: #e94b3c"/>
   </g>
   <g id="PolyCollection_2">
    <path d="M 45.716875 578.54175 
L 45.716875 578.54175 
L 63.419699 578.54175 
L 81.122522 578.54175 
L 98.825346 578.54175 
L 116.528169 578.54175 
L 134.230993 578.54175 
L 151.933816 578.54175 
L 169.63664 578.54175 
L 187.339463 578.54175 
L 205.042287 578.54175 
L 222.74511 578.54175 
L 240.447934 578.54175 
L 258.150757 578.54175 
L 275.853581 578.541493 
L 293.556404 578.54175 
L 311.259228 578.541488 
L 328.962051 578.54175 
L 346.664875 578.54175 
L 364.367699 578.54175 
L 382.070522 578.541491 
L 399.773346 578.54175 
L 417.476169 578.54175 
L 435.178993 578.54175 
L 452.881816 578.54175 
L 470.58464 578.54175 
L 488.287463 578.54175 
L 505.990287 578.54175 
L 523.69311 578.54175 
L 541.395934 578.54124 
L 559.098757 578.541495 
L 576.801581 578.530561 
L 594.504404 578.498722 
L 612.207228 578.482103 
L 629.910051 578.465505 
L 647.612875 578.450887 
L 665.315699 578.447838 
L 683.018522 578.431026 
L 700.721346 578.418134 
L 718.424169 578.396297 
L 736.126993 578.383348 
L 753.829816 578.37765 
L 771.53264 578.344544 
L 789.235463 578.321124 
L 806.938287 578.320031 
L 824.64111 578.281542 
L 842.343934 578.269836 
L 860.046757 578.351405 
L 877.749581 578.374177 
L 895.452404 578.382795 
L 913.155228 578.380292 
L 930.858051 578.382981 
L 948.560875 578.385114 
L 948.560875 450.221818 
L 948.560875 450.221818 
L 930.858051 461.829414 
L 913.155228 463.173815 
L 895.452404 467.135969 
L 877.749581 467.286461 
L 860.046757 440.181461 
L 842.343934 449.385455 
L 824.64111 487.184131 
L 806.938287 497.055165 
L 789.235463 493.442378 
L 771.53264 500.240384 
L 753.829816 506.954307 
L 736.126993 510.814249 
L 718.424169 513.307238 
L 700.721346 515.327685 
L 683.018522 520.040577 
L 665.315699 525.088451 
L 647.612875 529.0464 
L 629.910051 529.400532 
L 612.207228 536.679456 
L 594.504404 542.795315 
L 576.801581 556.015235 
L 559.098757 575.293754 
L 541.395934 578.534352 
L 523.69311 578.54175 
L 505.990287 578.54175 
L 488.287463 578.54175 
L 470.58464 578.54175 
L 452.881816 578.54175 
L 435.178993 578.54175 
L 417.476169 578.54175 
L 399.773346 578.54175 
L 382.070522 578.541491 
L 364.367699 578.54175 
L 346.664875 578.54175 
L 328.962051 578.54175 
L 311.259228 578.541488 
L 293.556404 578.54175 
L 275.853581 578.541493 
L 258.150757 578.54175 
L 240.447934 578.54175 
L 222.74511 578.54175 
L 205.042287 578.54175 
L 187.339463 578.54175 
L 169.63664 578.54175 
L 151.933816 578.54175 
L 134.230993 578.54175 
L 116.528169 578.54175 
L 98.825346 578.54175 
L 81.122522 578.54175 
L 63.419699 578.54175 
L 45.716875 578.54175 
z
" clip-path="url(#p2fed1df3dc)" style="fill: #6ea6e8"/>
   </g>
   <g id="PolyCollection_3">
    <path d="M 45.716875 578.539652 
L 45.716875 578.54175 
L 63.419699 578.54175 
L 81.122522 578.54175 
L 98.825346 578.54175 
L 116.528169 578.54175 
L 134.230993 578.54175 
L 151.933816 578.54175 
L 169.63664 578.54175 
L 187.339463 578.54175 
L 205.042287 578.54175 
L 222.74511 578.54175 
L 240.447934 578.54175 
L 258.150757 578.54175 
L 275.853581 578.541493 
L 293.556404 578.54175 
L 311.259228 578.541488 
L 328.962051 578.54175 
L 346.664875 578.54175 
L 364.367699 578.54175 
L 382.070522 578.541491 
L 399.773346 578.54175 
L 417.476169 578.54175 
L 435.178993 578.54175 
L 452.881816 578.54175 
L 470.58464 578.54175 
L 488.287463 578.54175 
L 505.990287 578.54175 
L 523.69311 578.54175 
L 541.395934 578.534352 
L 559.098757 575.293754 
L 576.801581 556.015235 
L 594.504404 542.795315 
L 612.207228 536.679456 
L 629.910051 529.400532 
L 647.612875 529.0464 
L 665.315699 525.088451 
L 683.018522 520.040577 
L 700.721346 515.327685 
L 718.424169 513.307238 
L 736.126993 510.814249 
L 753.829816 506.954307 
L 771.53264 500.240384 
L 789.235463 493.442378 
L 806.938287 497.055165 
L 824.64111 487.184131 
L 842.343934 449.385455 
L 860.046757 440.181461 
L 877.749581 467.286461 
L 895.452404 467.135969 
L 913.155228 463.173815 
L 930.858051 461.829414 
L 948.560875 450.221818 
L 948.560875 409.114086 
L 948.560875 409.114086 
L 930.858051 416.310378 
L 913.155228 415.009678 
L 895.452404 420.592554 
L 877.749581 418.921459 
L 860.046757 394.126684 
L 842.343934 401.773891 
L 824.64111 436.95112 
L 806.938287 447.615216 
L 789.235463 439.680838 
L 771.53264 446.128999 
L 753.829816 451.574737 
L 736.126993 452.316984 
L 718.424169 454.735842 
L 700.721346 452.483756 
L 683.018522 456.360727 
L 665.315699 457.549532 
L 647.612875 460.929258 
L 629.910051 453.504162 
L 612.207228 456.737842 
L 594.504404 455.671656 
L 576.801581 461.241275 
L 559.098757 460.076673 
L 541.395934 463.977918 
L 523.69311 467.549312 
L 505.990287 468.905877 
L 488.287463 470.751126 
L 470.58464 474.462281 
L 452.881816 472.869375 
L 435.178993 475.920087 
L 417.476169 479.917521 
L 399.773346 479.669274 
L 382.070522 480.829208 
L 364.367699 491.017284 
L 346.664875 493.329198 
L 328.962051 495.994381 
L 311.259228 496.526249 
L 293.556404 503.544626 
L 275.853581 508.829604 
L 258.150757 508.414638 
L 240.447934 506.160289 
L 222.74511 513.06407 
L 205.042287 515.50506 
L 187.339463 521.828325 
L 169.63664 515.855399 
L 151.933816 524.0312 
L 134.230993 527.152044 
L 116.528169 529.666322 
L 98.825346 542.937119 
L 81.122522 548.387088 
L 63.419699 573.776 
L 45.716875 578.539652 
z
" clip-path="url(#p2fed1df3dc)" style="fill: #5f9de5"/>
   </g>
   <g id="PolyCollection_4">
    <path d="M 45.716875 459.164 
L 45.716875 578.539652 
L 63.419699 573.776 
L 81.122522 548.387088 
L 98.825346 542.937119 
L 116.528169 529.666322 
L 134.230993 527.152044 
L 151.933816 524.0312 
L 169.63664 515.855399 
L 187.339463 521.828325 
L 205.042287 515.50506 
L 222.74511 513.06407 
L 240.447934 506.160289 
L 258.150757 508.414638 
L 275.853581 508.829604 
L 293.556404 503.544626 
L 311.259228 496.526249 
L 328.962051 495.994381 
L 346.664875 493.329198 
L 364.367699 491.017284 
L 382.070522 480.829208 
L 399.773346 479.669274 
L 417.476169 479.917521 
L 435.178993 475.920087 
L 452.881816 472.869375 
L 470.58464 474.462281 
L 488.287463 470.751126 
L 505.990287 468.905877 
L 523.69311 467.549312 
L 541.395934 463.977918 
L 559.098757 460.076673 
L 576.801581 461.241275 
L 594.504404 455.671656 
L 612.207228 456.737842 
L 629.910051 453.504162 
L 647.612875 460.929258 
L 665.315699 457.549532 
L 683.018522 456.360727 
L 700.721346 452.483756 
L 718.424169 454.735842 
L 736.126993 452.316984 
L 753.829816 451.574737 
L 771.53264 446.128999 
L 789.235463 439.680838 
L 806.938287 447.615216 
L 824.64111 436.95112 
L 842.343934 401.773891 
L 860.046757 394.126684 
L 877.749581 418.921459 
L 895.452404 420.592554 
L 913.155228 415.009678 
L 930.858051 416.310378 
L 948.560875 409.114086 
L 948.560875 378.798404 
L 948.560875 378.798404 
L 930.858051 384.151586 
L 913.155228 381.758388 
L 895.452404 387.526333 
L 877.749581 384.021375 
L 860.046757 363.582407 
L 842.343934 369.063469 
L 824.64111 402.0842 
L 806.938287 409.550761 
L 789.235463 401.258817 
L 771.53264 410.847943 
L 753.829816 413.293012 
L 736.126993 413.422022 
L 718.424169 416.795185 
L 700.721346 412.365502 
L 683.018522 417.662653 
L 665.315699 418.828544 
L 647.612875 421.994105 
L 629.910051 412.704042 
L 612.207228 414.240643 
L 594.504404 409.995842 
L 576.801581 415.828668 
L 559.098757 411.166655 
L 541.395934 416.239119 
L 523.69311 419.273805 
L 505.990287 419.440376 
L 488.287463 423.158179 
L 470.58464 426.83345 
L 452.881816 423.280609 
L 435.178993 424.515431 
L 417.476169 428.696649 
L 399.773346 429.762118 
L 382.070522 423.516805 
L 364.367699 431.869933 
L 346.664875 433.89656 
L 328.962051 435.957645 
L 311.259228 432.405787 
L 293.556404 439.553349 
L 275.853581 445.9912 
L 258.150757 442.958276 
L 240.447934 439.3642 
L 222.74511 445.314023 
L 205.042287 442.805781 
L 187.339463 446.57249 
L 169.63664 439.035536 
L 151.933816 445.200161 
L 134.230993 448.026077 
L 116.528169 445.416539 
L 98.825346 450.489138 
L 81.122522 442.862767 
L 63.419699 456.060259 
L 45.716875 459.164 
z
" clip-path="url(#p2fed1df3dc)" style="fill: #5094e3"/>
   </g>
   <g id="PolyCollection_5">
    <path d="M 45.716875 427.276454 
L 45.716875 459.164 
L 63.419699 456.060259 
L 81.122522 442.862767 
L 98.825346 450.489138 
L 116.528169 445.416539 
L 134.230993 448.026077 
L 151.933816 445.200161 
L 169.63664 439.035536 
L 187.339463 446.57249 
L 205.042287 442.805781 
L 222.74511 445.314023 
L 240.447934 439.3642 
L 258.150757 442.958276 
L 275.853581 445.9912 
L 293.556404 439.553349 
L 311.259228 432.405787 
L 328.962051 435.957645 
L 346.664875 433.89656 
L 364.367699 431.869933 
L 382.070522 423.516805 
L 399.773346 429.762118 
L 417.476169 428.696649 
L 435.178993 424.515431 
L 452.881816 423.280609 
L 470.58464 426.83345 
L 488.287463 423.158179 
L 505.990287 419.440376 
L 523.69311 419.273805 
L 541.395934 416.239119 
L 559.098757 411.166655 
L 576.801581 415.828668 
L 594.504404 409.995842 
L 612.207228 414.240643 
L 629.910051 412.704042 
L 647.612875 421.994105 
L 665.315699 418.828544 
L 683.018522 417.662653 
L 700.721346 412.365502 
L 718.424169 416.795185 
L 736.126993 413.422022 
L 753.829816 413.293012 
L 771.53264 410.847943 
L 789.235463 401.258817 
L 806.938287 409.550761 
L 824.64111 402.0842 
L 842.343934 369.063469 
L 860.046757 363.582407 
L 877.749581 384.021375 
L 895.452404 387.526333 
L 913.155228 381.758388 
L 930.858051 384.151586 
L 948.560875 378.798404 
L 948.560875 364.749555 
L 948.560875 364.749555 
L 930.858051 369.807294 
L 913.155228 367.247544 
L 895.452404 372.518163 
L 877.749581 367.815265 
L 860.046757 348.590282 
L 842.343934 354.108421 
L 824.64111 385.778911 
L 806.938287 393.135019 
L 789.235463 383.390755 
L 771.53264 394.116237 
L 753.829816 396.697043 
L 736.126993 396.363149 
L 718.424169 399.636994 
L 700.721346 395.004776 
L 683.018522 400.909585 
L 665.315699 401.07664 
L 647.612875 404.97302 
L 629.910051 395.086769 
L 612.207228 396.533934 
L 594.504404 390.937701 
L 576.801581 397.82307 
L 559.098757 392.15058 
L 541.395934 397.508743 
L 523.69311 400.604846 
L 505.990287 400.42179 
L 488.287463 404.530344 
L 470.58464 408.603159 
L 452.881816 404.413007 
L 435.178993 405.265737 
L 417.476169 409.975738 
L 399.773346 411.240861 
L 382.070522 403.726933 
L 364.367699 412.72622 
L 346.664875 413.35007 
L 328.962051 415.814067 
L 311.259228 409.917248 
L 293.556404 416.274261 
L 275.853581 422.150696 
L 258.150757 417.052224 
L 240.447934 412.247119 
L 222.74511 419.891808 
L 205.042287 415.915887 
L 187.339463 420.094259 
L 169.63664 413.270303 
L 151.933816 418.205216 
L 134.230993 420.41167 
L 116.528169 417.005948 
L 98.825346 420.459656 
L 81.122522 413.723828 
L 63.419699 424.20356 
L 45.716875 427.276454 
z
" clip-path="url(#p2fed1df3dc)" style="fill: #4689d7"/>
   </g>
   <g id="PolyCollection_6">
    <path d="M 45.716875 410.172856 
L 45.716875 427.276454 
L 63.419699 424.20356 
L 81.122522 413.723828 
L 98.825346 420.459656 
L 116.528169 417.005948 
L 134.230993 420.41167 
L 151.933816 418.205216 
L 169.63664 413.270303 
L 187.339463 420.094259 
L 205.042287 415.915887 
L 222.74511 419.891808 
L 240.447934 412.247119 
L 258.150757 417.052224 
L 275.853581 422.150696 
L 293.556404 416.274261 
L 311.259228 409.917248 
L 328.962051 415.814067 
L 346.664875 413.35007 
L 364.367699 412.72622 
L 382.070522 403.726933 
L 399.773346 411.240861 
L 417.476169 409.975738 
L 435.178993 405.265737 
L 452.881816 404.413007 
L 470.58464 408.603159 
L 488.287463 404.530344 
L 505.990287 400.42179 
L 523.69311 400.604846 
L 541.395934 397.508743 
L 559.098757 392.15058 
L 576.801581 397.82307 
L 594.504404 390.937701 
L 612.207228 396.533934 
L 629.910051 395.086769 
L 647.612875 404.97302 
L 665.315699 401.07664 
L 683.018522 400.909585 
L 700.721346 395.004776 
L 718.424169 399.636994 
L 736.126993 396.363149 
L 753.829816 396.697043 
L 771.53264 394.116237 
L 789.235463 383.390755 
L 806.938287 393.135019 
L 824.64111 385.778911 
L 842.343934 354.108421 
L 860.046757 348.590282 
L 877.749581 367.815265 
L 895.452404 372.518163 
L 913.155228 367.247544 
L 930.858051 369.807294 
L 948.560875 364.749555 
L 948.560875 351.194814 
L 948.560875 351.194814 
L 930.858051 356.84512 
L 913.155228 352.484421 
L 895.452404 358.271903 
L 877.749581 354.647713 
L 860.046757 334.084162 
L 842.343934 339.557129 
L 824.64111 371.995391 
L 806.938287 377.503035 
L 789.235463 371.232652 
L 771.53264 378.998631 
L 753.829816 379.546873 
L 736.126993 379.733991 
L 718.424169 383.898842 
L 700.721346 380.449904 
L 683.018522 385.653153 
L 665.315699 386.080493 
L 647.612875 388.536888 
L 629.910051 377.686019 
L 612.207228 378.635306 
L 594.504404 373.268481 
L 576.801581 379.391013 
L 559.098757 374.153214 
L 541.395934 379.152337 
L 523.69311 382.388353 
L 505.990287 381.701024 
L 488.287463 384.470942 
L 470.58464 387.948098 
L 452.881816 387.685299 
L 435.178993 387.723356 
L 417.476169 393.752108 
L 399.773346 395.90638 
L 382.070522 388.210013 
L 364.367699 398.090192 
L 346.664875 397.751516 
L 328.962051 400.852753 
L 311.259228 394.530684 
L 293.556404 400.547497 
L 275.853581 406.421881 
L 258.150757 400.763735 
L 240.447934 395.787619 
L 222.74511 403.873164 
L 205.042287 400.21894 
L 187.339463 403.764645 
L 169.63664 396.399618 
L 151.933816 400.765261 
L 134.230993 403.87115 
L 116.528169 399.938271 
L 98.825346 403.368025 
L 81.122522 395.819961 
L 63.419699 404.948512 
L 45.716875 410.172856 
z
" clip-path="url(#p2fed1df3dc)" style="fill: #407dc4"/>
   </g>
   <g id="PolyCollection_7">
    <path d="M 45.716875 404.342554 
L 45.716875 410.172856 
L 63.419699 404.948512 
L 81.122522 395.819961 
L 98.825346 403.368025 
L 116.528169 399.938271 
L 134.230993 403.87115 
L 151.933816 400.765261 
L 169.63664 396.399618 
L 187.339463 403.764645 
L 205.042287 400.21894 
L 222.74511 403.873164 
L 240.447934 395.787619 
L 258.150757 400.763735 
L 275.853581 406.421881 
L 293.556404 400.547497 
L 311.259228 394.530684 
L 328.962051 400.852753 
L 346.664875 397.751516 
L 364.367699 398.090192 
L 382.070522 388.210013 
L 399.773346 395.90638 
L 417.476169 393.752108 
L 435.178993 387.723356 
L 452.881816 387.685299 
L 470.58464 387.948098 
L 488.287463 384.470942 
L 505.990287 381.701024 
L 523.69311 382.388353 
L 541.395934 379.152337 
L 559.098757 374.153214 
L 576.801581 379.391013 
L 594.504404 373.268481 
L 612.207228 378.635306 
L 629.910051 377.686019 
L 647.612875 388.536888 
L 665.315699 386.080493 
L 683.018522 385.653153 
L 700.721346 380.449904 
L 718.424169 383.898842 
L 736.126993 379.733991 
L 753.829816 379.546873 
L 771.53264 378.998631 
L 789.235463 371.232652 
L 806.938287 377.503035 
L 824.64111 371.995391 
L 842.343934 339.557129 
L 860.046757 334.084162 
L 877.749581 354.647713 
L 895.452404 358.271903 
L 913.155228 352.484421 
L 930.858051 356.84512 
L 948.560875 351.194814 
L 948.560875 347.819658 
L 948.560875 347.819658 
L 930.858051 353.203294 
L 913.155228 348.6587 
L 895.452404 354.60543 
L 877.749581 350.736525 
L 860.046757 330.527177 
L 842.343934 335.154765 
L 824.64111 367.106799 
L 806.938287 373.640059 
L 789.235463 367.16518 
L 771.53264 375.06425 
L 753.829816 375.783027 
L 736.126993 375.89541 
L 718.424169 379.932283 
L 700.721346 376.3147 
L 683.018522 381.559152 
L 665.315699 381.605033 
L 647.612875 384.209985 
L 629.910051 373.435759 
L 612.207228 374.41808 
L 594.504404 368.932429 
L 576.801581 375.229674 
L 559.098757 369.707381 
L 541.395934 374.777962 
L 523.69311 378.21038 
L 505.990287 377.332736 
L 488.287463 380.13199 
L 470.58464 383.662519 
L 452.881816 383.225688 
L 435.178993 383.213189 
L 417.476169 389.419525 
L 399.773346 391.459751 
L 382.070522 383.677347 
L 364.367699 393.658159 
L 346.664875 393.094049 
L 328.962051 396.181529 
L 311.259228 389.689452 
L 293.556404 395.735772 
L 275.853581 401.540782 
L 258.150757 395.513173 
L 240.447934 390.715136 
L 222.74511 398.654555 
L 205.042287 394.841969 
L 187.339463 398.222267 
L 169.63664 390.772888 
L 151.933816 394.92474 
L 134.230993 398.626377 
L 116.528169 394.591632 
L 98.825346 397.768133 
L 81.122522 389.783096 
L 63.419699 399.3338 
L 45.716875 404.342554 
z
" clip-path="url(#p2fed1df3dc)" style="fill: #3a71b1"/>
   </g>
   <g id="PolyCollection_8">
    <path d="M 45.716875 402.788826 
L 45.716875 404.342554 
L 63.419699 399.3338 
L 81.122522 389.783096 
L 98.825346 397.768133 
L 116.528169 394.591632 
L 134.230993 398.626377 
L 151.933816 394.92474 
L 169.63664 390.772888 
L 187.339463 398.222267 
L 205.042287 394.841969 
L 222.74511 398.654555 
L 240.447934 390.715136 
L 258.150757 395.513173 
L 275.853581 401.540782 
L 293.556404 395.735772 
L 311.259228 389.689452 
L 328.962051 396.181529 
L 346.664875 393.094049 
L 364.367699 393.658159 
L 382.070522 383.677347 
L 399.773346 391.459751 
L 417.476169 389.419525 
L 435.178993 383.213189 
L 452.881816 383.225688 
L 470.58464 383.662519 
L 488.287463 380.13199 
L 505.990287 377.332736 
L 523.69311 378.21038 
L 541.395934 374.777962 
L 559.098757 369.707381 
L 576.801581 375.229674 
L 594.504404 368.932429 
L 612.207228 374.41808 
L 629.910051 373.435759 
L 647.612875 384.209985 
L 665.315699 381.605033 
L 683.018522 381.559152 
L 700.721346 376.3147 
L 718.424169 379.932283 
L 736.126993 375.89541 
L 753.829816 375.783027 
L 771.53264 375.06425 
L 789.235463 367.16518 
L 806.938287 373.640059 
L 824.64111 367.106799 
L 842.343934 335.154765 
L 860.046757 330.527177 
L 877.749581 350.736525 
L 895.452404 354.60543 
L 913.155228 348.6587 
L 930.858051 353.203294 
L 948.560875 347.819658 
L 948.560875 346.741245 
L 948.560875 346.741245 
L 930.858051 352.080668 
L 913.155228 347.491881 
L 895.452404 353.489168 
L 877.749581 349.613811 
L 860.046757 329.447479 
L 842.343934 334.116037 
L 824.64111 366.00449 
L 806.938287 372.558495 
L 789.235463 366.02769 
L 771.53264 373.873769 
L 753.829816 374.642562 
L 736.126993 374.727256 
L 718.424169 378.737539 
L 700.721346 375.119187 
L 683.018522 380.441909 
L 665.315699 380.474371 
L 647.612875 383.117882 
L 629.910051 372.251812 
L 612.207228 373.170233 
L 594.504404 367.629052 
L 576.801581 374.005736 
L 559.098757 368.349782 
L 541.395934 373.464986 
L 523.69311 376.931394 
L 505.990287 376.022729 
L 488.287463 378.862996 
L 470.58464 382.35836 
L 452.881816 381.986694 
L 435.178993 381.841058 
L 417.476169 388.199472 
L 399.773346 390.258159 
L 382.070522 382.34946 
L 364.367699 392.434315 
L 346.664875 391.817349 
L 328.962051 394.95411 
L 311.259228 388.406278 
L 293.556404 394.467598 
L 275.853581 400.271475 
L 258.150757 394.236351 
L 240.447934 389.46263 
L 222.74511 397.335304 
L 205.042287 393.519634 
L 187.339463 396.924255 
L 169.63664 389.431863 
L 151.933816 393.533486 
L 134.230993 397.295224 
L 116.528169 392.94835 
L 98.825346 395.778859 
L 81.122522 386.915461 
L 63.419699 397.708511 
L 45.716875 402.788826 
z
" clip-path="url(#p2fed1df3dc)" style="fill: #34659e"/>
   </g>
   <g id="PolyCollection_9">
    <path d="M 45.716875 250.283665 
L 45.716875 402.788826 
L 63.419699 397.708511 
L 81.122522 386.915461 
L 98.825346 395.778859 
L 116.528169 392.94835 
L 134.230993 397.295224 
L 151.933816 393.533486 
L 169.63664 389.431863 
L 187.339463 396.924255 
L 205.042287 393.519634 
L 222.74511 397.335304 
L 240.447934 389.46263 
L 258.150757 394.236351 
L 275.853581 400.271475 
L 293.556404 394.467598 
L 311.259228 388.406278 
L 328.962051 394.95411 
L 346.664875 391.817349 
L 364.367699 392.434315 
L 382.070522 382.34946 
L 399.773346 390.258159 
L 417.476169 388.199472 
L 435.178993 381.841058 
L 452.881816 381.986694 
L 470.58464 382.35836 
L 488.287463 378.862996 
L 505.990287 376.022729 
L 523.69311 376.931394 
L 541.395934 373.464986 
L 559.098757 368.349782 
L 576.801581 374.005736 
L 594.504404 367.629052 
L 612.207228 373.170233 
L 629.910051 372.251812 
L 647.612875 383.117882 
L 665.315699 380.474371 
L 683.018522 380.441909 
L 700.721346 375.119187 
L 718.424169 378.737539 
L 736.126993 374.727256 
L 753.829816 374.642562 
L 771.53264 373.873769 
L 789.235463 366.02769 
L 806.938287 372.558495 
L 824.64111 366.00449 
L 842.343934 334.116037 
L 860.046757 329.447479 
L 877.749581 349.613811 
L 895.452404 353.489168 
L 913.155228 347.491881 
L 930.858051 352.080668 
L 948.560875 346.741245 
L 948.560875 131.822238 
L 948.560875 131.822238 
L 930.858051 130.326679 
L 913.155228 139.448199 
L 895.452404 137.619759 
L 877.749581 130.72679 
L 860.046757 135.743722 
L 842.343934 133.197199 
L 824.64111 139.31098 
L 806.938287 151.762986 
L 789.235463 131.878819 
L 771.53264 155.971714 
L 753.829816 167.445778 
L 736.126993 166.156099 
L 718.424169 163.683157 
L 700.721346 161.0447 
L 683.018522 165.692512 
L 665.315699 162.677825 
L 647.612875 174.613153 
L 629.910051 179.010044 
L 612.207228 174.422041 
L 594.504404 168.239547 
L 576.801581 179.060841 
L 559.098757 179.745378 
L 541.395934 182.050874 
L 523.69311 176.574873 
L 505.990287 179.3126 
L 488.287463 193.813445 
L 470.58464 200.5685 
L 452.881816 196.01029 
L 435.178993 199.368148 
L 417.476169 195.661197 
L 399.773346 199.247517 
L 382.070522 199.860246 
L 364.367699 196.909926 
L 346.664875 202.48764 
L 328.962051 200.913392 
L 311.259228 206.255814 
L 293.556404 202.76905 
L 275.853581 210.260239 
L 258.150757 212.081389 
L 240.447934 214.908946 
L 222.74511 221.264167 
L 205.042287 221.191986 
L 187.339463 227.713192 
L 169.63664 226.827576 
L 151.933816 229.613708 
L 134.230993 242.261922 
L 116.528169 241.052475 
L 98.825346 240.294116 
L 81.122522 226.722527 
L 63.419699 238.715558 
L 45.716875 250.283665 
z
" clip-path="url(#p2fed1df3dc)" style="fill: #6dc49d"/>
   </g>
   <g id="PolyCollection_10">
    <path d="M 45.716875 190.472182 
L 45.716875 250.283665 
L 63.419699 238.715558 
L 81.122522 226.722527 
L 98.825346 240.294116 
L 116.528169 241.052475 
L 134.230993 242.261922 
L 151.933816 229.613708 
L 169.63664 226.827576 
L 187.339463 227.713192 
L 205.042287 221.191986 
L 222.74511 221.264167 
L 240.447934 214.908946 
L 258.150757 212.081389 
L 275.853581 210.260239 
L 293.556404 202.76905 
L 311.259228 206.255814 
L 328.962051 200.913392 
L 346.664875 202.48764 
L 364.367699 196.909926 
L 382.070522 199.860246 
L 399.773346 199.247517 
L 417.476169 195.661197 
L 435.178993 199.368148 
L 452.881816 196.01029 
L 470.58464 200.5685 
L 488.287463 193.813445 
L 505.990287 179.3126 
L 523.69311 176.574873 
L 541.395934 182.050874 
L 559.098757 179.745378 
L 576.801581 179.060841 
L 594.504404 168.239547 
L 612.207228 174.422041 
L 629.910051 179.010044 
L 647.612875 174.613153 
L 665.315699 162.677825 
L 683.018522 165.692512 
L 700.721346 161.0447 
L 718.424169 163.683157 
L 736.126993 166.156099 
L 753.829816 167.445778 
L 771.53264 155.971714 
L 789.235463 131.878819 
L 806.938287 151.762986 
L 824.64111 139.31098 
L 842.343934 133.197199 
L 860.046757 135.743722 
L 877.749581 130.72679 
L 895.452404 137.619759 
L 913.155228 139.448199 
L 930.858051 130.326679 
L 948.560875 131.822238 
L 948.560875 111.146055 
L 948.560875 111.146055 
L 930.858051 109.796354 
L 913.155228 118.113623 
L 895.452404 115.249803 
L 877.749581 108.844763 
L 860.046757 116.316912 
L 842.343934 112.253766 
L 824.64111 112.668845 
L 806.938287 126.963109 
L 789.235463 106.046673 
L 771.53264 129.635562 
L 753.829816 141.301477 
L 736.126993 140.813704 
L 718.424169 141.220862 
L 700.721346 138.376792 
L 683.018522 142.37183 
L 665.315699 138.157524 
L 647.612875 151.251945 
L 629.910051 152.303082 
L 612.207228 146.31552 
L 594.504404 139.3975 
L 576.801581 150.899328 
L 559.098757 150.714204 
L 541.395934 152.975361 
L 523.69311 146.682051 
L 505.990287 148.786367 
L 488.287463 163.968204 
L 470.58464 172.00363 
L 452.881816 166.914955 
L 435.178993 168.528838 
L 417.476169 164.737761 
L 399.773346 168.057007 
L 382.070522 166.782166 
L 364.367699 162.455508 
L 346.664875 163.655495 
L 328.962051 161.848779 
L 311.259228 164.857481 
L 293.556404 160.48088 
L 275.853581 165.546602 
L 258.150757 162.971847 
L 240.447934 163.261518 
L 222.74511 170.713365 
L 205.042287 171.364082 
L 187.339463 176.750208 
L 169.63664 180.375771 
L 151.933816 183.154603 
L 134.230993 193.254116 
L 116.528169 189.293626 
L 98.825346 187.361492 
L 81.122522 173.128351 
L 63.419699 186.083989 
L 45.716875 190.472182 
z
" clip-path="url(#p2fed1df3dc)" style="fill: #60bf95"/>
   </g>
   <g id="PolyCollection_11">
    <path d="M 45.716875 163.8022 
L 45.716875 190.472182 
L 63.419699 186.083989 
L 81.122522 173.128351 
L 98.825346 187.361492 
L 116.528169 189.293626 
L 134.230993 193.254116 
L 151.933816 183.154603 
L 169.63664 180.375771 
L 187.339463 176.750208 
L 205.042287 171.364082 
L 222.74511 170.713365 
L 240.447934 163.261518 
L 258.150757 162.971847 
L 275.853581 165.546602 
L 293.556404 160.48088 
L 311.259228 164.857481 
L 328.962051 161.848779 
L 346.664875 163.655495 
L 364.367699 162.455508 
L 382.070522 166.782166 
L 399.773346 168.057007 
L 417.476169 164.737761 
L 435.178993 168.528838 
L 452.881816 166.914955 
L 470.58464 172.00363 
L 488.287463 163.968204 
L 505.990287 148.786367 
L 523.69311 146.682051 
L 541.395934 152.975361 
L 559.098757 150.714204 
L 576.801581 150.899328 
L 594.504404 139.3975 
L 612.207228 146.31552 
L 629.910051 152.303082 
L 647.612875 151.251945 
L 665.315699 138.157524 
L 683.018522 142.37183 
L 700.721346 138.376792 
L 718.424169 141.220862 
L 736.126993 140.813704 
L 753.829816 141.301477 
L 771.53264 129.635562 
L 789.235463 106.046673 
L 806.938287 126.963109 
L 824.64111 112.668845 
L 842.343934 112.253766 
L 860.046757 116.316912 
L 877.749581 108.844763 
L 895.452404 115.249803 
L 913.155228 118.113623 
L 930.858051 109.796354 
L 948.560875 111.146055 
L 948.560875 97.297841 
L 948.560875 97.297841 
L 930.858051 95.381625 
L 913.155228 102.941222 
L 895.452404 101.950343 
L 877.749581 93.407216 
L 860.046757 102.48412 
L 842.343934 97.887575 
L 824.64111 97.811827 
L 806.938287 111.931969 
L 789.235463 87.8831 
L 771.53264 112.72567 
L 753.829816 125.416239 
L 736.126993 123.893143 
L 718.424169 124.54462 
L 700.721346 121.192696 
L 683.018522 125.041414 
L 665.315699 121.921228 
L 647.612875 133.167206 
L 629.910051 134.453442 
L 612.207228 127.710361 
L 594.504404 121.530302 
L 576.801581 129.149186 
L 559.098757 126.992905 
L 541.395934 129.076243 
L 523.69311 122.68164 
L 505.990287 123.980361 
L 488.287463 138.765066 
L 470.58464 146.371616 
L 452.881816 139.898463 
L 435.178993 142.623818 
L 417.476169 140.680482 
L 399.773346 142.133099 
L 382.070522 140.373097 
L 364.367699 138.842059 
L 346.664875 139.600307 
L 328.962051 138.204158 
L 311.259228 140.026233 
L 293.556404 137.734404 
L 275.853581 142.09527 
L 258.150757 138.939363 
L 240.447934 140.186465 
L 222.74511 146.036706 
L 205.042287 144.384315 
L 187.339463 150.984757 
L 169.63664 154.130899 
L 151.933816 156.135175 
L 134.230993 167.727478 
L 116.528169 163.343979 
L 98.825346 160.033569 
L 81.122522 144.638029 
L 63.419699 158.502316 
L 45.716875 163.8022 
z
" clip-path="url(#p2fed1df3dc)" style="fill: #52b98c"/>
   </g>
   <g id="PolyCollection_12">
    <path d="M 45.716875 132.075033 
L 45.716875 163.8022 
L 63.419699 158.502316 
L 81.122522 144.638029 
L 98.825346 160.033569 
L 116.528169 163.343979 
L 134.230993 167.727478 
L 151.933816 156.135175 
L 169.63664 154.130899 
L 187.339463 150.984757 
L 205.042287 144.384315 
L 222.74511 146.036706 
L 240.447934 140.186465 
L 258.150757 138.939363 
L 275.853581 142.09527 
L 293.556404 137.734404 
L 311.259228 140.026233 
L 328.962051 138.204158 
L 346.664875 139.600307 
L 364.367699 138.842059 
L 382.070522 140.373097 
L 399.773346 142.133099 
L 417.476169 140.680482 
L 435.178993 142.623818 
L 452.881816 139.898463 
L 470.58464 146.371616 
L 488.287463 138.765066 
L 505.990287 123.980361 
L 523.69311 122.68164 
L 541.395934 129.076243 
L 559.098757 126.992905 
L 576.801581 129.149186 
L 594.504404 121.530302 
L 612.207228 127.710361 
L 629.910051 134.453442 
L 647.612875 133.167206 
L 665.315699 121.921228 
L 683.018522 125.041414 
L 700.721346 121.192696 
L 718.424169 124.54462 
L 736.126993 123.893143 
L 753.829816 125.416239 
L 771.53264 112.72567 
L 789.235463 87.8831 
L 806.938287 111.931969 
L 824.64111 97.811827 
L 842.343934 97.887575 
L 860.046757 102.48412 
L 877.749581 93.407216 
L 895.452404 101.950343 
L 913.155228 102.941222 
L 930.858051 95.381625 
L 948.560875 97.297841 
L 948.560875 88.879092 
L 948.560875 88.879092 
L 930.858051 86.496286 
L 913.155228 93.854255 
L 895.452404 93.24314 
L 877.749581 84.299651 
L 860.046757 94.042701 
L 842.343934 89.294576 
L 824.64111 88.670983 
L 806.938287 103.116605 
L 789.235463 76.725277 
L 771.53264 101.796254 
L 753.829816 114.189272 
L 736.126993 112.421964 
L 718.424169 113.487511 
L 700.721346 108.877656 
L 683.018522 113.031106 
L 665.315699 109.892137 
L 647.612875 121.883004 
L 629.910051 122.378637 
L 612.207228 115.937917 
L 594.504404 109.470032 
L 576.801581 117.663545 
L 559.098757 114.627232 
L 541.395934 114.965133 
L 523.69311 109.544846 
L 505.990287 108.703351 
L 488.287463 113.062321 
L 470.58464 119.606981 
L 452.881816 111.844601 
L 435.178993 113.878203 
L 417.476169 114.69866 
L 399.773346 120.630122 
L 382.070522 116.90131 
L 364.367699 115.43399 
L 346.664875 114.885535 
L 328.962051 111.919893 
L 311.259228 112.985307 
L 293.556404 111.778204 
L 275.853581 118.332909 
L 258.150757 114.658236 
L 240.447934 115.276404 
L 222.74511 119.83794 
L 205.042287 116.279318 
L 187.339463 121.901845 
L 169.63664 128.343806 
L 151.933816 129.402354 
L 134.230993 137.588868 
L 116.528169 132.288784 
L 98.825346 130.898591 
L 81.122522 114.536826 
L 63.419699 130.725689 
L 45.716875 132.075033 
z
" clip-path="url(#p2fed1df3dc)" style="fill: #47b283"/>
   </g>
   <g id="PolyCollection_13">
    <path d="M 45.716875 35.766381 
L 45.716875 132.075033 
L 63.419699 130.725689 
L 81.122522 114.536826 
L 98.825346 130.898591 
L 116.528169 132.288784 
L 134.230993 137.588868 
L 151.933816 129.402354 
L 169.63664 128.343806 
L 187.339463 121.901845 
L 205.042287 116.279318 
L 222.74511 119.83794 
L 240.447934 115.276404 
L 258.150757 114.658236 
L 275.853581 118.332909 
L 293.556404 111.778204 
L 311.259228 112.985307 
L 328.962051 111.919893 
L 346.664875 114.885535 
L 364.367699 115.43399 
L 382.070522 116.90131 
L 399.773346 120.630122 
L 417.476169 114.69866 
L 435.178993 113.878203 
L 452.881816 111.844601 
L 470.58464 119.606981 
L 488.287463 113.062321 
L 505.990287 108.703351 
L 523.69311 109.544846 
L 541.395934 114.965133 
L 559.098757 114.627232 
L 576.801581 117.663545 
L 594.504404 109.470032 
L 612.207228 115.937917 
L 629.910051 122.378637 
L 647.612875 121.883004 
L 665.315699 109.892137 
L 683.018522 113.031106 
L 700.721346 108.877656 
L 718.424169 113.487511 
L 736.126993 112.421964 
L 753.829816 114.189272 
L 771.53264 101.796254 
L 789.235463 76.725277 
L 806.938287 103.116605 
L 824.64111 88.670983 
L 842.343934 89.294576 
L 860.046757 94.042701 
L 877.749581 84.299651 
L 895.452404 93.24314 
L 913.155228 93.854255 
L 930.858051 86.496286 
L 948.560875 88.879092 
L 948.560875 31.125695 
L 948.560875 31.125695 
L 930.858051 31.225563 
L 913.155228 31.433899 
L 895.452404 31.117438 
L 877.749581 31.387936 
L 860.046757 31.012286 
L 842.343934 31.025112 
L 824.64111 31.765358 
L 806.938287 31.423174 
L 789.235463 31.966966 
L 771.53264 31.768477 
L 753.829816 31.744478 
L 736.126993 32.005485 
L 718.424169 31.460009 
L 700.721346 32.30756 
L 683.018522 32.219492 
L 665.315699 32.240023 
L 647.612875 31.852084 
L 629.910051 32.7908 
L 612.207228 32.814291 
L 594.504404 33.010296 
L 576.801581 32.775943 
L 559.098757 33.121577 
L 541.395934 33.25197 
L 523.69311 33.033997 
L 505.990287 33.100618 
L 488.287463 33.217367 
L 470.58464 33.182614 
L 452.881816 33.406248 
L 435.178993 33.749838 
L 417.476169 33.240198 
L 399.773346 33.468272 
L 382.070522 33.693039 
L 364.367699 33.350844 
L 346.664875 33.811118 
L 328.962051 33.731632 
L 311.259228 33.882873 
L 293.556404 34.428948 
L 275.853581 33.916287 
L 258.150757 34.22327 
L 240.447934 34.465292 
L 222.74511 34.653968 
L 205.042287 34.856495 
L 187.339463 35.132719 
L 169.63664 35.999669 
L 151.933816 36.236055 
L 134.230993 34.872765 
L 116.528169 35.154585 
L 98.825346 35.401496 
L 81.122522 36.12185 
L 63.419699 35.593148 
L 45.716875 35.766381 
z
" clip-path="url(#p2fed1df3dc)" style="fill: #42a57a"/>
   </g>
   <g id="PolyCollection_14">
    <path d="M 45.716875 25.972769 
L 45.716875 35.766381 
L 63.419699 35.593148 
L 81.122522 36.12185 
L 98.825346 35.401496 
L 116.528169 35.154585 
L 134.230993 34.872765 
L 151.933816 36.236055 
L 169.63664 35.999669 
L 187.339463 35.132719 
L 205.042287 34.856495 
L 222.74511 34.653968 
L 240.447934 34.465292 
L 258.150757 34.22327 
L 275.853581 33.916287 
L 293.556404 34.428948 
L 311.259228 33.882873 
L 328.962051 33.731632 
L 346.664875 33.811118 
L 364.367699 33.350844 
L 382.070522 33.693039 
L 399.773346 33.468272 
L 417.476169 33.240198 
L 435.178993 33.749838 
L 452.881816 33.406248 
L 470.58464 33.182614 
L 488.287463 33.217367 
L 505.990287 33.100618 
L 523.69311 33.033997 
L 541.395934 33.25197 
L 559.098757 33.121577 
L 576.801581 32.775943 
L 594.504404 33.010296 
L 612.207228 32.814291 
L 629.910051 32.7908 
L 647.612875 31.852084 
L 665.315699 32.240023 
L 683.018522 32.219492 
L 700.721346 32.30756 
L 718.424169 31.460009 
L 736.126993 32.005485 
L 753.829816 31.744478 
L 771.53264 31.768477 
L 789.235463 31.966966 
L 806.938287 31.423174 
L 824.64111 31.765358 
L 842.343934 31.025112 
L 860.046757 31.012286 
L 877.749581 31.387936 
L 895.452404 31.117438 
L 913.155228 31.433899 
L 930.858051 31.225563 
L 948.560875 31.125695 
L 948.560875 25.117866 
L 948.560875 25.117866 
L 930.858051 25.16572 
L 913.155228 25.174803 
L 895.452404 25.157408 
L 877.749581 25.170595 
L 860.046757 25.123903 
L 842.343934 25.123974 
L 824.64111 25.28013 
L 806.938287 25.254708 
L 789.235463 25.319762 
L 771.53264 25.283325 
L 753.829816 25.256386 
L 736.126993 25.266031 
L 718.424169 25.199001 
L 700.721346 25.333221 
L 683.018522 25.315751 
L 665.315699 25.296122 
L 647.612875 25.271593 
L 629.910051 25.388739 
L 612.207228 25.413556 
L 594.504404 25.458701 
L 576.801581 25.391881 
L 559.098757 25.478965 
L 541.395934 25.511867 
L 523.69311 25.457476 
L 505.990287 25.491163 
L 488.287463 25.481033 
L 470.58464 25.495517 
L 452.881816 25.505413 
L 435.178993 25.590683 
L 417.476169 25.503248 
L 399.773346 25.544328 
L 382.070522 25.583537 
L 364.367699 25.561052 
L 346.664875 25.588066 
L 328.962051 25.61763 
L 311.259228 25.617924 
L 293.556404 26.022415 
L 275.853581 25.615411 
L 258.150757 25.68227 
L 240.447934 25.734898 
L 222.74511 25.792266 
L 205.042287 25.813217 
L 187.339463 25.904657 
L 169.63664 26.026725 
L 151.933816 26.010247 
L 134.230993 25.816615 
L 116.528169 25.867197 
L 98.825346 25.908635 
L 81.122522 26.009112 
L 63.419699 25.921025 
L 45.716875 25.972769 
z
" clip-path="url(#p2fed1df3dc)" style="fill: #3d9970"/>
   </g>
   <g id="PolyCollection_15">
    <path d="M 45.716875 24.145347 
L 45.716875 25.972769 
L 63.419699 25.921025 
L 81.122522 26.009112 
L 98.825346 25.908635 
L 116.528169 25.867197 
L 134.230993 25.816615 
L 151.933816 26.010247 
L 169.63664 26.026725 
L 187.339463 25.904657 
L 205.042287 25.813217 
L 222.74511 25.792266 
L 240.447934 25.734898 
L 258.150757 25.68227 
L 275.853581 25.615411 
L 293.556404 26.022415 
L 311.259228 25.617924 
L 328.962051 25.61763 
L 346.664875 25.588066 
L 364.367699 25.561052 
L 382.070522 25.583537 
L 399.773346 25.544328 
L 417.476169 25.503248 
L 435.178993 25.590683 
L 452.881816 25.505413 
L 470.58464 25.495517 
L 488.287463 25.481033 
L 505.990287 25.491163 
L 523.69311 25.457476 
L 541.395934 25.511867 
L 559.098757 25.478965 
L 576.801581 25.391881 
L 594.504404 25.458701 
L 612.207228 25.413556 
L 629.910051 25.388739 
L 647.612875 25.271593 
L 665.315699 25.296122 
L 683.018522 25.315751 
L 700.721346 25.333221 
L 718.424169 25.199001 
L 736.126993 25.266031 
L 753.829816 25.256386 
L 771.53264 25.283325 
L 789.235463 25.319762 
L 806.938287 25.254708 
L 824.64111 25.28013 
L 842.343934 25.123974 
L 860.046757 25.123903 
L 877.749581 25.170595 
L 895.452404 25.157408 
L 913.155228 25.174803 
L 930.858051 25.16572 
L 948.560875 25.117866 
L 948.560875 24.14483 
L 948.560875 24.14483 
L 930.858051 24.144274 
L 913.155228 24.143158 
L 895.452404 24.143091 
L 877.749581 24.1443 
L 860.046757 24.144124 
L 842.343934 24.142832 
L 824.64111 24.143565 
L 806.938287 24.144802 
L 789.235463 24.143646 
L 771.53264 24.143788 
L 753.829816 24.143531 
L 736.126993 24.143135 
L 718.424169 24.143921 
L 700.721346 24.14389 
L 683.018522 24.144541 
L 665.315699 24.144539 
L 647.612875 24.143492 
L 629.910051 24.14373 
L 612.207228 24.142998 
L 594.504404 24.145848 
L 576.801581 24.145819 
L 559.098757 24.146846 
L 541.395934 24.145066 
L 523.69311 24.143969 
L 505.990287 24.143518 
L 488.287463 24.143014 
L 470.58464 24.145666 
L 452.881816 24.144572 
L 435.178993 24.145181 
L 417.476169 24.143987 
L 399.773346 24.143022 
L 382.070522 24.143047 
L 364.367699 24.143238 
L 346.664875 24.142799 
L 328.962051 24.143547 
L 311.259228 24.143321 
L 293.556404 24.143832 
L 275.853581 24.143549 
L 258.150757 24.143094 
L 240.447934 24.143676 
L 222.74511 24.143964 
L 205.042287 24.14371 
L 187.339463 24.143193 
L 169.63664 24.144601 
L 151.933816 24.144688 
L 134.230993 24.143151 
L 116.528169 24.143456 
L 98.825346 24.143497 
L 81.122522 24.143913 
L 63.419699 24.144655 
L 45.716875 24.145347 
z
" clip-path="url(#p2fed1df3dc)" style="fill: #388c67"/>
   </g>
   <g id="PolyCollection_16">
    <path d="M 45.716875 24.14175 
L 45.716875 24.145347 
L 63.419699 24.144655 
L 81.122522 24.143913 
L 98.825346 24.143497 
L 116.528169 24.143456 
L 134.230993 24.143151 
L 151.933816 24.144688 
L 169.63664 24.144601 
L 187.339463 24.143193 
L 205.042287 24.14371 
L 222.74511 24.143964 
L 240.447934 24.143676 
L 258.150757 24.143094 
L 275.853581 24.143549 
L 293.556404 24.143832 
L 311.259228 24.143321 
L 328.962051 24.143547 
L 346.664875 24.142799 
L 364.367699 24.143238 
L 382.070522 24.143047 
L 399.773346 24.143022 
L 417.476169 24.143987 
L 435.178993 24.145181 
L 452.881816 24.144572 
L 470.58464 24.145666 
L 488.287463 24.143014 
L 505.990287 24.143518 
L 523.69311 24.143969 
L 541.395934 24.145066 
L 559.098757 24.146846 
L 576.801581 24.145819 
L 594.504404 24.145848 
L 612.207228 24.142998 
L 629.910051 24.14373 
L 647.612875 24.143492 
L 665.315699 24.144539 
L 683.018522 24.144541 
L 700.721346 24.14389 
L 718.424169 24.143921 
L 736.126993 24.143135 
L 753.829816 24.143531 
L 771.53264 24.143788 
L 789.235463 24.143646 
L 806.938287 24.144802 
L 824.64111 24.143565 
L 842.343934 24.142832 
L 860.046757 24.144124 
L 877.749581 24.1443 
L 895.452404 24.143091 
L 913.155228 24.143158 
L 930.858051 24.144274 
L 948.560875 24.14483 
L 948.560875 24.14175 
L 948.560875 24.14175 
L 930.858051 24.14175 
L 913.155228 24.14175 
L 895.452404 24.14175 
L 877.749581 24.14175 
L 860.046757 24.14175 
L 842.343934 24.14175 
L 824.64111 24.14175 
L 806.938287 24.14175 
L 789.235463 24.14175 
L 771.53264 24.14175 
L 753.829816 24.14175 
L 736.126993 24.14175 
L 718.424169 24.14175 
L 700.721346 24.14175 
L 683.018522 24.14175 
L 665.315699 24.14175 
L 647.612875 24.14175 
L 629.910051 24.14175 
L 612.207228 24.14175 
L 594.504404 24.14175 
L 576.801581 24.14175 
L 559.098757 24.14175 
L 541.395934 24.14175 
L 523.69311 24.14175 
L 505.990287 24.14175 
L 488.287463 24.14175 
L 470.58464 24.14175 
L 452.881816 24.14175 
L 435.178993 24.14175 
L 417.476169 24.14175 
L 399.773346 24.14175 
L 382.070522 24.14175 
L 364.367699 24.14175 
L 346.664875 24.14175 
L 328.962051 24.14175 
L 311.259228 24.14175 
L 293.556404 24.14175 
L 275.853581 24.14175 
L 258.150757 24.14175 
L 240.447934 24.14175 
L 222.74511 24.14175 
L 205.042287 24.14175 
L 187.339463 24.14175 
L 169.63664 24.14175 
L 151.933816 24.14175 
L 134.230993 24.14175 
L 116.528169 24.14175 
L 98.825346 24.14175 
L 81.122522 24.14175 
L 63.419699 24.14175 
L 45.716875 24.14175 
z
" clip-path="url(#p2fed1df3dc)" style="fill: #327f5d"/>
   </g>
   <g id="patch_3">
    <path d="M 45.716875 578.54175 
L 45.716875 24.14175 
" style="fill: none; stroke: #ffffff; stroke-linejoin: miter; stroke-linecap: square"/>
   </g>
   <g id="patch_4">
    <path d="M 948.560875 578.54175 
L 948.560875 24.14175 
" style="fill: none; stroke: #ffffff; stroke-linejoin: miter; stroke-linecap: square"/>
   </g>
   <g id="patch_5">
    <path d="M 45.716875 578.54175 
L 948.560875 578.54175 
" style="fill: none; stroke: #ffffff; stroke-linejoin: miter; stroke-linecap: square"/>
   </g>
   <g id="patch_6">
    <path d="M 45.716875 24.14175 
L 948.560875 24.14175 
" style="fill: none; stroke: #ffffff; stroke-linejoin: miter; stroke-linecap: square"/>
   </g>
   <g id="text_21">
    <!-- Rocky Linux Instances by Version Share -->
    <g transform="translate(45.716875 18.14175) scale(0.144 -0.144)">
     <defs>
      <path id="DejaVuSans-52" d="M 2841 2188 
Q 3044 2119 3236 1894 
Q 3428 1669 3622 1275 
L 4263 0 
L 3584 0 
L 2988 1197 
Q 2756 1666 2539 1819 
Q 2322 1972 1947 1972 
L 1259 1972 
L 1259 0 
L 628 0 
L 628 4666 
L 2053 4666 
Q 2853 4666 3247 4331 
Q 3641 3997 3641 3322 
Q 3641 2881 3436 2590 
Q 3231 2300 2841 2188 
z
M 1259 4147 
L 1259 2491 
L 2053 2491 
Q 2509 2491 2742 2702 
Q 2975 2913 2975 3322 
Q 2975 3731 2742 3939 
Q 2509 4147 2053 4147 
L 1259 4147 
z
" transform="scale(0.015625)"/>
      <path id="DejaVuSans-6b" d="M 581 4863 
L 1159 4863 
L 1159 1991 
L 2875 3500 
L 3609 3500 
L 1753 1863 
L 3688 0 
L 2938 0 
L 1159 1709 
L 1159 0 
L 581 0 
L 581 4863 
z
" transform="scale(0.015625)"/>
      <path id="DejaVuSans-79" d="M 2059 -325 
Q 1816 -950 1584 -1140 
Q 1353 -1331 966 -1331 
L 506 -1331 
L 506 -850 
L 844 -850 
Q 1081 -850 1212 -737 
Q 1344 -625 1503 -206 
L 1606 56 
L 191 3500 
L 800 3500 
L 1894 763 
L 2988 3500 
L 3597 3500 
L 2059 -325 
z
" transform="scale(0.015625)"/>
      <path id="DejaVuSans-4c" d="M 628 4666 
L 1259 4666 
L 1259 531 
L 3531 531 
L 3531 0 
L 628 0 
L 628 4666 
z
" transform="scale(0.015625)"/>
      <path id="DejaVuSans-69" d="M 603 3500 
L 1178 3500 
L 1178 0 
L 603 0 
L 603 3500 
z
M 603 4863 
L 1178 4863 
L 1178 4134 
L 603 4134 
L 603 4863 
z
" transform="scale(0.015625)"/>
      <path id="DejaVuSans-75" d="M 544 1381 
L 544 3500 
L 1119 3500 
L 1119 1403 
Q 1119 906 1312 657 
Q 1506 409 1894 409 
Q 2359 409 2629 706 
Q 2900 1003 2900 1516 
L 2900 3500 
L 3475 3500 
L 3475 0 
L 2900 0 
L 2900 538 
Q 2691 219 2414 64 
Q 2138 -91 1772 -91 
Q 1169 -91 856 284 
Q 544 659 544 1381 
z
M 1991 3584 
L 1991 3584 
z
" transform="scale(0.015625)"/>
      <path id="DejaVuSans-78" d="M 3513 3500 
L 2247 1797 
L 3578 0 
L 2900 0 
L 1881 1375 
L 863 0 
L 184 0 
L 1544 1831 
L 300 3500 
L 978 3500 
L 1906 2253 
L 2834 3500 
L 3513 3500 
z
" transform="scale(0.015625)"/>
      <path id="DejaVuSans-62" d="M 3116 1747 
Q 3116 2381 2855 2742 
Q 2594 3103 2138 3103 
Q 1681 3103 1420 2742 
Q 1159 2381 1159 1747 
Q 1159 1113 1420 752 
Q 1681 391 2138 391 
Q 2594 391 2855 752 
Q 3116 1113 3116 1747 
z
M 1159 2969 
Q 1341 3281 1617 3432 
Q 1894 3584 2278 3584 
Q 2916 3584 3314 3078 
Q 3713 2572 3713 1747 
Q 3713 922 3314 415 
Q 2916 -91 2278 -91 
Q 1894 -91 1617 61 
Q 1341 213 1159 525 
L 1159 0 
L 581 0 
L 581 4863 
L 1159 4863 
L 1159 2969 
z
" transform="scale(0.015625)"/>
      <path id="DejaVuSans-56" d="M 1831 0 
L 50 4666 
L 709 4666 
L 2188 738 
L 3669 4666 
L 4325 4666 
L 2547 0 
L 1831 0 
z
" transform="scale(0.015625)"/>
     </defs>
     <use xlink:href="#DejaVuSans-52"/>
     <use xlink:href="#DejaVuSans-6f" x="64.982422"/>
     <use xlink:href="#DejaVuSans-63" x="126.164062"/>
     <use xlink:href="#DejaVuSans-6b" x="181.144531"/>
     <use xlink:href="#DejaVuSans-79" x="235.429688"/>
     <use xlink:href="#DejaVuSans-20" x="294.609375"/>
     <use xlink:href="#DejaVuSans-4c" x="326.396484"/>
     <use xlink:href="#DejaVuSans-69" x="382.109375"/>
     <use xlink:href="#DejaVuSans-6e" x="409.892578"/>
     <use xlink:href="#DejaVuSans-75" x="473.271484"/>
     <use xlink:href="#DejaVuSans-78" x="536.650391"/>
     <use xlink:href="#DejaVuSans-20" x="595.830078"/>
     <use xlink:href="#DejaVuSans-49" x="627.617188"/>
     <use xlink:href="#DejaVuSans-6e" x="657.109375"/>
     <use xlink:href="#DejaVuSans-73" x="720.488281"/>
     <use xlink:href="#DejaVuSans-74" x="772.587891"/>
     <use xlink:href="#DejaVuSans-61" x="811.796875"/>
     <use xlink:href="#DejaVuSans-6e" x="873.076172"/>
     <use xlink:href="#DejaVuSans-63" x="936.455078"/>
     <use xlink:href="#DejaVuSans-65" x="991.435547"/>
     <use xlink:href="#DejaVuSans-73" x="1052.958984"/>
     <use xlink:href="#DejaVuSans-20" x="1105.058594"/>
     <use xlink:href="#DejaVuSans-62" x="1136.845703"/>
     <use xlink:href="#DejaVuSans-79" x="1200.322266"/>
     <use xlink:href="#DejaVuSans-20" x="1259.501953"/>
     <use xlink:href="#DejaVuSans-56" x="1291.289062"/>
     <use xlink:href="#DejaVuSans-65" x="1351.947266"/>
     <use xlink:href="#DejaVuSans-72" x="1413.470703"/>
     <use xlink:href="#DejaVuSans-73" x="1454.583984"/>
     <use xlink:href="#DejaVuSans-69" x="1506.683594"/>
     <use xlink:href="#DejaVuSans-6f" x="1534.466797"/>
     <use xlink:href="#DejaVuSans-6e" x="1595.648438"/>
     <use xlink:href="#DejaVuSans-20" x="1659.027344"/>
     <use xlink:href="#DejaVuSans-53" x="1690.814453"/>
     <use xlink:href="#DejaVuSans-68" x="1754.291016"/>
     <use xlink:href="#DejaVuSans-61" x="1817.669922"/>
     <use xlink:href="#DejaVuSans-72" x="1878.949219"/>
     <use xlink:href="#DejaVuSans-65" x="1917.8125"/>
    </g>
   </g>
   <g id="text_22">
    <!-- 2025-11-13 11:54 UTC -->
    <g transform="translate(785.678875 18.14175) scale(0.144 -0.144)">
     <defs>
      <path id="DejaVuSans-3a" d="M 750 794 
L 1409 794 
L 1409 0 
L 750 0 
L 750 794 
z
M 750 3309 
L 1409 3309 
L 1409 2516 
L 750 2516 
L 750 3309 
z
" transform="scale(0.015625)"/>
      <path id="DejaVuSans-55" d="M 556 4666 
L 1191 4666 
L 1191 1831 
Q 1191 1081 1462 751 
Q 1734 422 2344 422 
Q 2950 422 3222 751 
Q 3494 1081 3494 1831 
L 3494 4666 
L 4128 4666 
L 4128 1753 
Q 4128 841 3676 375 
Q 3225 -91 2344 -91 
Q 1459 -91 1007 375 
Q 556 841 556 1753 
L 556 4666 
z
" transform="scale(0.015625)"/>
      <path id="DejaVuSans-54" d="M -19 4666 
L 3928 4666 
L 3928 4134 
L 2272 4134 
L 2272 0 
L 1638 0 
L 1638 4134 
L -19 4134 
L -19 4666 
z
" transform="scale(0.015625)"/>
      <path id="DejaVuSans-43" d="M 4122 4306 
L 4122 3641 
Q 3803 3938 3442 4084 
Q 3081 4231 2675 4231 
Q 1875 4231 1450 3742 
Q 1025 3253 1025 2328 
Q 1025 1406 1450 917 
Q 1875 428 2675 428 
Q 3081 428 3442 575 
Q 3803 722 4122 1019 
L 4122 359 
Q 3791 134 3420 21 
Q 3050 -91 2638 -91 
Q 1578 -91 968 557 
Q 359 1206 359 2328 
Q 359 3453 968 4101 
Q 1578 4750 2638 4750 
Q 3056 4750 3426 4639 
Q 3797 4528 4122 4306 
z
" transform="scale(0.015625)"/>
     </defs>
     <use xlink:href="#DejaVuSans-32"/>
     <use xlink:href="#DejaVuSans-30" x="63.623047"/>
     <use xlink:href="#DejaVuSans-32" x="127.246094"/>
     <use xlink:href="#DejaVuSans-35" x="190.869141"/>
     <use xlink:href="#DejaVuSans-2d" x="254.492188"/>
     <use xlink:href="#DejaVuSans-31" x="290.576172"/>
     <use xlink:href="#DejaVuSans-31" x="354.199219"/>
     <use xlink:href="#DejaVuSans-2d" x="417.822266"/>
     <use xlink:href="#DejaVuSans-31" x="453.90625"/>
     <use xlink:href="#DejaVuSans-33" x="517.529297"/>
     <use xlink:href="#DejaVuSans-20" x="581.152344"/>
     <use xlink:href="#DejaVuSans-31" x="612.939453"/>
     <use xlink:href="#DejaVuSans-31" x="676.5625"/>
     <use xlink:href="#DejaVuSans-3a" x="740.185547"/>
     <use xlink:href="#DejaVuSans-35" x="773.876953"/>
     <use xlink:href="#DejaVuSans-34" x="837.5"/>
     <use xlink:href="#DejaVuSans-20" x="901.123047"/>
     <use xlink:href="#DejaVuSans-55" x="932.910156"/>
     <use xlink:href="#DejaVuSans-54" x="1006.103516"/>
     <use xlink:href="#DejaVuSans-43" x="1061.3125"/>
    </g>
   </g>
   <g id="legend_1">
    <g id="patch_7">
     <path d="M 52.716875 281.669875 
L 106.9825 281.669875 
Q 108.9825 281.669875 108.9825 279.669875 
L 108.9825 31.14175 
Q 108.9825 29.14175 106.9825 29.14175 
L 52.716875 29.14175 
Q 50.716875 29.14175 50.716875 31.14175 
L 50.716875 279.669875 
Q 50.716875 281.669875 52.716875 281.669875 
z
" style="fill: #e5e5e5; opacity: 0.8; stroke: #cccccc; stroke-width: 0.5; stroke-linejoin: miter"/>
    </g>
    <g id="text_23">
     <!-- Version -->
     <g transform="translate(61.462969 40.740188) scale(0.1 -0.1)">
      <use xlink:href="#DejaVuSans-56"/>
      <use xlink:href="#DejaVuSans-65" x="60.658203"/>
      <use xlink:href="#DejaVuSans-72" x="122.181641"/>
      <use xlink:href="#DejaVuSans-73" x="163.294922"/>
      <use xlink:href="#DejaVuSans-69" x="215.394531"/>
      <use xlink:href="#DejaVuSans-6f" x="243.177734"/>
      <use xlink:href="#DejaVuSans-6e" x="304.359375"/>
     </g>
    </g>
    <g id="patch_8">
     <path d="M 54.716875 55.418313 
L 74.716875 55.418313 
L 74.716875 48.418313 
L 54.716875 48.418313 
z
" style="fill: #e94b3c"/>
    </g>
    <g id="text_24">
     <!-- 10.0 -->
     <g transform="translate(82.716875 55.418313) scale(0.1 -0.1)">
      <use xlink:href="#DejaVuSans-31"/>
      <use xlink:href="#DejaVuSans-30" x="63.623047"/>
      <use xlink:href="#DejaVuSans-2e" x="127.246094"/>
      <use xlink:href="#DejaVuSans-30" x="159.033203"/>
     </g>
    </g>
    <g id="patch_9">
     <path d="M 54.716875 70.096438 
L 74.716875 70.096438 
L 74.716875 63.096438 
L 54.716875 63.096438 
z
" style="fill: #6ea6e8"/>
    </g>
    <g id="text_25">
     <!-- 9.6 -->
     <g transform="translate(82.716875 70.096438) scale(0.1 -0.1)">
      <use xlink:href="#DejaVuSans-39"/>
      <use xlink:href="#DejaVuSans-2e" x="63.623047"/>
      <use xlink:href="#DejaVuSans-36" x="95.410156"/>
     </g>
    </g>
    <g id="patch_10">
     <path d="M 54.716875 84.774563 
L 74.716875 84.774563 
L 74.716875 77.774563 
L 54.716875 77.774563 
z
" style="fill: #5f9de5"/>
    </g>
    <g id="text_26">
     <!-- 9.5 -->
     <g transform="translate(82.716875 84.774563) scale(0.1 -0.1)">
      <use xlink:href="#DejaVuSans-39"/>
      <use xlink:href="#DejaVuSans-2e" x="63.623047"/>
      <use xlink:href="#DejaVuSans-35" x="95.410156"/>
     </g>
    </g>
    <g id="patch_11">
     <path d="M 54.716875 99.452688 
L 74.716875 99.452688 
L 74.716875 92.452688 
L 54.716875 92.452688 
z
" style="fill: #5094e3"/>
    </g>
    <g id="text_27">
     <!-- 9.4 -->
     <g transform="translate(82.716875 99.452688) scale(0.1 -0.1)">
      <use xlink:href="#DejaVuSans-39"/>
      <use xlink:href="#DejaVuSans-2e" x="63.623047"/>
      <use xlink:href="#DejaVuSans-34" x="95.410156"/>
     </g>
    </g>
    <g id="patch_12">
     <path d="M 54.716875 114.130813 
L 74.716875 114.130813 
L 74.716875 107.130813 
L 54.716875 107.130813 
z
" style="fill: #4689d7"/>
    </g>
    <g id="text_28">
     <!-- 9.3 -->
     <g transform="translate(82.716875 114.130813) scale(0.1 -0.1)">
      <use xlink:href="#DejaVuSans-39"/>
      <use xlink:href="#DejaVuSans-2e" x="63.623047"/>
      <use xlink:href="#DejaVuSans-33" x="95.410156"/>
     </g>
    </g>
    <g id="patch_13">
     <path d="M 54.716875 128.808938 
L 74.716875 128.808938 
L 74.716875 121.808938 
L 54.716875 121.808938 
z
" style="fill: #407dc4"/>
    </g>
    <g id="text_29">
     <!-- 9.2 -->
     <g transform="translate(82.716875 128.808938) scale(0.1 -0.1)">
      <use xlink:href="#DejaVuSans-39"/>
      <use xlink:href="#DejaVuSans-2e" x="63.623047"/>
      <use xlink:href="#DejaVuSans-32" x="95.410156"/>
     </g>
    </g>
    <g id="patch_14">
     <path d="M 54.716875 143.487063 
L 74.716875 143.487063 
L 74.716875 136.487063 
L 54.716875 136.487063 
z
" style="fill: #3a71b1"/>
    </g>
    <g id="text_30">
     <!-- 9.1 -->
     <g transform="translate(82.716875 143.487063) scale(0.1 -0.1)">
      <use xlink:href="#DejaVuSans-39"/>
      <use xlink:href="#DejaVuSans-2e" x="63.623047"/>
      <use xlink:href="#DejaVuSans-31" x="95.410156"/>
     </g>
    </g>
    <g id="patch_15">
     <path d="M 54.716875 158.165188 
L 74.716875 158.165188 
L 74.716875 151.165188 
L 54.716875 151.165188 
z
" style="fill: #34659e"/>
    </g>
    <g id="text_31">
     <!-- 9.0 -->
     <g transform="translate(82.716875 158.165188) scale(0.1 -0.1)">
      <use xlink:href="#DejaVuSans-39"/>
      <use xlink:href="#DejaVuSans-2e" x="63.623047"/>
      <use xlink:href="#DejaVuSans-30" x="95.410156"/>
     </g>
    </g>
    <g id="patch_16">
     <path d="M 54.716875 172.843313 
L 74.716875 172.843313 
L 74.716875 165.843313 
L 54.716875 165.843313 
z
" style="fill: #6dc49d"/>
    </g>
    <g id="text_32">
     <!-- 8.10 -->
     <g transform="translate(82.716875 172.843313) scale(0.1 -0.1)">
      <use xlink:href="#DejaVuSans-38"/>
      <use xlink:href="#DejaVuSans-2e" x="63.623047"/>
      <use xlink:href="#DejaVuSans-31" x="95.410156"/>
      <use xlink:href="#DejaVuSans-30" x="159.033203"/>
     </g>
    </g>
    <g id="patch_17">
     <path d="M 54.716875 187.521438 
L 74.716875 187.521438 
L 74.716875 180.521438 
L 54.716875 180.521438 
z
" style="fill: #60bf95"/>
    </g>
    <g id="text_33">
     <!-- 8.9 -->
     <g transform="translate(82.716875 187.521438) scale(0.1 -0.1)">
      <use xlink:href="#DejaVuSans-38"/>
      <use xlink:href="#DejaVuSans-2e" x="63.623047"/>
      <use xlink:href="#DejaVuSans-39" x="95.410156"/>
     </g>
    </g>
    <g id="patch_18">
     <path d="M 54.716875 202.199563 
L 74.716875 202.199563 
L 74.716875 195.199563 
L 54.716875 195.199563 
z
" style="fill: #52b98c"/>
    </g>
    <g id="text_34">
     <!-- 8.8 -->
     <g transform="translate(82.716875 202.199563) scale(0.1 -0.1)">
      <use xlink:href="#DejaVuSans-38"/>
      <use xlink:href="#DejaVuSans-2e" x="63.623047"/>
      <use xlink:href="#DejaVuSans-38" x="95.410156"/>
     </g>
    </g>
    <g id="patch_19">
     <path d="M 54.716875 216.877688 
L 74.716875 216.877688 
L 74.716875 209.877688 
L 54.716875 209.877688 
z
" style="fill: #47b283"/>
    </g>
    <g id="text_35">
     <!-- 8.7 -->
     <g transform="translate(82.716875 216.877688) scale(0.1 -0.1)">
      <use xlink:href="#DejaVuSans-38"/>
      <use xlink:href="#DejaVuSans-2e" x="63.623047"/>
      <use xlink:href="#DejaVuSans-37" x="95.410156"/>
     </g>
    </g>
    <g id="patch_20">
     <path d="M 54.716875 231.555813 
L 74.716875 231.555813 
L 74.716875 224.555813 
L 54.716875 224.555813 
z
" style="fill: #42a57a"/>
    </g>
    <g id="text_36">
     <!-- 8.6 -->
     <g transform="translate(82.716875 231.555813) scale(0.1 -0.1)">
      <use xlink:href="#DejaVuSans-38"/>
      <use xlink:href="#DejaVuSans-2e" x="63.623047"/>
      <use xlink:href="#DejaVuSans-36" x="95.410156"/>
     </g>
    </g>
    <g id="patch_21">
     <path d="M 54.716875 246.233938 
L 74.716875 246.233938 
L 74.716875 239.233938 
L 54.716875 239.233938 
z
" style="fill: #3d9970"/>
    </g>
    <g id="text_37">
     <!-- 8.5 -->
     <g transform="translate(82.716875 246.233938) scale(0.1 -0.1)">
      <use xlink:href="#DejaVuSans-38"/>
      <use xlink:href="#DejaVuSans-2e" x="63.623047"/>
      <use xlink:href="#DejaVuSans-35" x="95.410156"/>
     </g>
    </g>
    <g id="patch_22">
     <path d="M 54.716875 260.912063 
L 74.716875 260.912063 
L 74.716875 253.912063 
L 54.716875 253.912063 
z
" style="fill: #388c67"/>
    </g>
    <g id="text_38">
     <!-- 8.4 -->
     <g transform="translate(82.716875 260.912063) scale(0.1 -0.1)">
      <use xlink:href="#DejaVuSans-38"/>
      <use xlink:href="#DejaVuSans-2e" x="63.623047"/>
      <use xlink:href="#DejaVuSans-34" x="95.410156"/>
     </g>
    </g>
    <g id="patch_23">
     <path d="M 54.716875 275.590188 
L 74.716875 275.590188 
L 74.716875 268.590188 
L 54.716875 268.590188 
z
" style="fill: #327f5d"/>
    </g>
    <g id="text_39">
     <!-- 8.3 -->
     <g transform="translate(82.716875 275.590188) scale(0.1 -0.1)">
      <use xlink:href="#DejaVuSans-38"/>
      <use xlink:href="#DejaVuSans-2e" x="63.623047"/>
      <use xlink:href="#DejaVuSans-33" x="95.410156"/>
     </g>
    </g>
   </g>
  </g>
 </g>
 <defs>
  <clipPath id="p2fed1df3dc">
   <rect x="45.716875" y="24.14175" width="902.844" height="554.4"/>
  </clipPath>
 </defs>
</svg>
