<?xml version="1.0" encoding="utf-8" standalone="no"?>
<!DOCTYPE svg PUBLIC "-//W3C//DTD SVG 1.1//EN"
  "http://www.w3.org/Graphics/SVG/1.1/DTD/svg11.dtd">
<svg xmlns:xlink="http://www.w3.org/1999/xlink" width="964.735875pt" height="633.943878pt" viewBox="0 0 964.735875 633.943878" xmlns="http://www.w3.org/2000/svg" version="1.1">
 <metadata>
  <rdf:RDF xmlns:dc="http://purl.org/dc/elements/1.1/" xmlns:cc="http://creativecommons.org/ns#" xmlns:rdf="http://www.w3.org/1999/02/22-rdf-syntax-ns#">
   <cc:Work>
    <dc:type rdf:resource="http://purl.org/dc/dcmitype/StillImage"/>
    <dc:date>2023-07-06T11:49:53.165671</dc:date>
    <dc:format>image/svg+xml</dc:format>
    <dc:creator>
     <cc:Agent>
      <dc:title>Matplotlib v3.5.1, https://matplotlib.org/</dc:title>
     </cc:Agent>
    </dc:creator>
   </cc:Work>
  </rdf:RDF>
 </metadata>
 <defs>
  <style type="text/css">*{stroke-linejoin: round; stroke-linecap: butt}</style>
 </defs>
 <g id="figure_1">
  <g id="patch_1">
   <path d="M 0 633.943878 
L 964.735875 633.943878 
L 964.735875 0 
L 0 0 
z
" style="fill: #ffffff"/>
  </g>
  <g id="axes_1">
   <g id="patch_2">
    <path d="M 54.691875 567.74175 
L 957.535875 567.74175 
L 957.535875 24.14175 
L 54.691875 24.14175 
z
" style="fill: #e5e5e5"/>
   </g>
   <g id="matplotlib.axis_1">
    <g id="xtick_1">
     <g id="line2d_1">
      <path d="M 77.452648 567.74175 
L 77.452648 24.14175 
" clip-path="url(#p90dd01874d)" style="fill: none; stroke: #ffffff; stroke-width: 0.8; stroke-linecap: square"/>
     </g>
     <g id="line2d_2">
      <defs>
       <path id="m0f047b9b62" d="M 0 0 
L 0 3.5 
" style="stroke: #555555; stroke-width: 0.8"/>
      </defs>
      <g>
       <use xlink:href="#m0f047b9b62" x="77.452648" y="567.74175" style="fill: #555555; stroke: #555555; stroke-width: 0.8"/>
      </g>
     </g>
     <g id="text_1">
      <!-- 2022-07 -->
      <g style="fill: #555555" transform="translate(64.631366 609.659567)rotate(-45)scale(0.1 -0.1)">
       <defs>
        <path id="DejaVuSans-32" d="M 1228 531 
L 3431 531 
L 3431 0 
L 469 0 
L 469 531 
Q 828 903 1448 1529 
Q 2069 2156 2228 2338 
Q 2531 2678 2651 2914 
Q 2772 3150 2772 3378 
Q 2772 3750 2511 3984 
Q 2250 4219 1831 4219 
Q 1534 4219 1204 4116 
Q 875 4013 500 3803 
L 500 4441 
Q 881 4594 1212 4672 
Q 1544 4750 1819 4750 
Q 2544 4750 2975 4387 
Q 3406 4025 3406 3419 
Q 3406 3131 3298 2873 
Q 3191 2616 2906 2266 
Q 2828 2175 2409 1742 
Q 1991 1309 1228 531 
z
" transform="scale(0.015625)"/>
        <path id="DejaVuSans-30" d="M 2034 4250 
Q 1547 4250 1301 3770 
Q 1056 3291 1056 2328 
Q 1056 1369 1301 889 
Q 1547 409 2034 409 
Q 2525 409 2770 889 
Q 3016 1369 3016 2328 
Q 3016 3291 2770 3770 
Q 2525 4250 2034 4250 
z
M 2034 4750 
Q 2819 4750 3233 4129 
Q 3647 3509 3647 2328 
Q 3647 1150 3233 529 
Q 2819 -91 2034 -91 
Q 1250 -91 836 529 
Q 422 1150 422 2328 
Q 422 3509 836 4129 
Q 1250 4750 2034 4750 
z
" transform="scale(0.015625)"/>
        <path id="DejaVuSans-2d" d="M 313 2009 
L 1997 2009 
L 1997 1497 
L 313 1497 
L 313 2009 
z
" transform="scale(0.015625)"/>
        <path id="DejaVuSans-37" d="M 525 4666 
L 3525 4666 
L 3525 4397 
L 1831 0 
L 1172 0 
L 2766 4134 
L 525 4134 
L 525 4666 
z
" transform="scale(0.015625)"/>
       </defs>
       <use xlink:href="#DejaVuSans-32"/>
       <use xlink:href="#DejaVuSans-30" x="63.623047"/>
       <use xlink:href="#DejaVuSans-32" x="127.246094"/>
       <use xlink:href="#DejaVuSans-32" x="190.869141"/>
       <use xlink:href="#DejaVuSans-2d" x="254.492188"/>
       <use xlink:href="#DejaVuSans-30" x="290.576172"/>
       <use xlink:href="#DejaVuSans-37" x="354.199219"/>
      </g>
     </g>
    </g>
    <g id="xtick_2">
     <g id="line2d_3">
      <path d="M 155.850867 567.74175 
L 155.850867 24.14175 
" clip-path="url(#p90dd01874d)" style="fill: none; stroke: #ffffff; stroke-width: 0.8; stroke-linecap: square"/>
     </g>
     <g id="line2d_4">
      <g>
       <use xlink:href="#m0f047b9b62" x="155.850867" y="567.74175" style="fill: #555555; stroke: #555555; stroke-width: 0.8"/>
      </g>
     </g>
     <g id="text_2">
      <!-- 2022-08 -->
      <g style="fill: #555555" transform="translate(143.029584 609.659567)rotate(-45)scale(0.1 -0.1)">
       <defs>
        <path id="DejaVuSans-38" d="M 2034 2216 
Q 1584 2216 1326 1975 
Q 1069 1734 1069 1313 
Q 1069 891 1326 650 
Q 1584 409 2034 409 
Q 2484 409 2743 651 
Q 3003 894 3003 1313 
Q 3003 1734 2745 1975 
Q 2488 2216 2034 2216 
z
M 1403 2484 
Q 997 2584 770 2862 
Q 544 3141 544 3541 
Q 544 4100 942 4425 
Q 1341 4750 2034 4750 
Q 2731 4750 3128 4425 
Q 3525 4100 3525 3541 
Q 3525 3141 3298 2862 
Q 3072 2584 2669 2484 
Q 3125 2378 3379 2068 
Q 3634 1759 3634 1313 
Q 3634 634 3220 271 
Q 2806 -91 2034 -91 
Q 1263 -91 848 271 
Q 434 634 434 1313 
Q 434 1759 690 2068 
Q 947 2378 1403 2484 
z
M 1172 3481 
Q 1172 3119 1398 2916 
Q 1625 2713 2034 2713 
Q 2441 2713 2670 2916 
Q 2900 3119 2900 3481 
Q 2900 3844 2670 4047 
Q 2441 4250 2034 4250 
Q 1625 4250 1398 4047 
Q 1172 3844 1172 3481 
z
" transform="scale(0.015625)"/>
       </defs>
       <use xlink:href="#DejaVuSans-32"/>
       <use xlink:href="#DejaVuSans-30" x="63.623047"/>
       <use xlink:href="#DejaVuSans-32" x="127.246094"/>
       <use xlink:href="#DejaVuSans-32" x="190.869141"/>
       <use xlink:href="#DejaVuSans-2d" x="254.492188"/>
       <use xlink:href="#DejaVuSans-30" x="290.576172"/>
       <use xlink:href="#DejaVuSans-38" x="354.199219"/>
      </g>
     </g>
    </g>
    <g id="xtick_3">
     <g id="line2d_5">
      <path d="M 234.249085 567.74175 
L 234.249085 24.14175 
" clip-path="url(#p90dd01874d)" style="fill: none; stroke: #ffffff; stroke-width: 0.8; stroke-linecap: square"/>
     </g>
     <g id="line2d_6">
      <g>
       <use xlink:href="#m0f047b9b62" x="234.249085" y="567.74175" style="fill: #555555; stroke: #555555; stroke-width: 0.8"/>
      </g>
     </g>
     <g id="text_3">
      <!-- 2022-09 -->
      <g style="fill: #555555" transform="translate(221.427803 609.659567)rotate(-45)scale(0.1 -0.1)">
       <defs>
        <path id="DejaVuSans-39" d="M 703 97 
L 703 672 
Q 941 559 1184 500 
Q 1428 441 1663 441 
Q 2288 441 2617 861 
Q 2947 1281 2994 2138 
Q 2813 1869 2534 1725 
Q 2256 1581 1919 1581 
Q 1219 1581 811 2004 
Q 403 2428 403 3163 
Q 403 3881 828 4315 
Q 1253 4750 1959 4750 
Q 2769 4750 3195 4129 
Q 3622 3509 3622 2328 
Q 3622 1225 3098 567 
Q 2575 -91 1691 -91 
Q 1453 -91 1209 -44 
Q 966 3 703 97 
z
M 1959 2075 
Q 2384 2075 2632 2365 
Q 2881 2656 2881 3163 
Q 2881 3666 2632 3958 
Q 2384 4250 1959 4250 
Q 1534 4250 1286 3958 
Q 1038 3666 1038 3163 
Q 1038 2656 1286 2365 
Q 1534 2075 1959 2075 
z
" transform="scale(0.015625)"/>
       </defs>
       <use xlink:href="#DejaVuSans-32"/>
       <use xlink:href="#DejaVuSans-30" x="63.623047"/>
       <use xlink:href="#DejaVuSans-32" x="127.246094"/>
       <use xlink:href="#DejaVuSans-32" x="190.869141"/>
       <use xlink:href="#DejaVuSans-2d" x="254.492188"/>
       <use xlink:href="#DejaVuSans-30" x="290.576172"/>
       <use xlink:href="#DejaVuSans-39" x="354.199219"/>
      </g>
     </g>
    </g>
    <g id="xtick_4">
     <g id="line2d_7">
      <path d="M 310.118329 567.74175 
L 310.118329 24.14175 
" clip-path="url(#p90dd01874d)" style="fill: none; stroke: #ffffff; stroke-width: 0.8; stroke-linecap: square"/>
     </g>
     <g id="line2d_8">
      <g>
       <use xlink:href="#m0f047b9b62" x="310.118329" y="567.74175" style="fill: #555555; stroke: #555555; stroke-width: 0.8"/>
      </g>
     </g>
     <g id="text_4">
      <!-- 2022-10 -->
      <g style="fill: #555555" transform="translate(297.297047 609.659567)rotate(-45)scale(0.1 -0.1)">
       <defs>
        <path id="DejaVuSans-31" d="M 794 531 
L 1825 531 
L 1825 4091 
L 703 3866 
L 703 4441 
L 1819 4666 
L 2450 4666 
L 2450 531 
L 3481 531 
L 3481 0 
L 794 0 
L 794 531 
z
" transform="scale(0.015625)"/>
       </defs>
       <use xlink:href="#DejaVuSans-32"/>
       <use xlink:href="#DejaVuSans-30" x="63.623047"/>
       <use xlink:href="#DejaVuSans-32" x="127.246094"/>
       <use xlink:href="#DejaVuSans-32" x="190.869141"/>
       <use xlink:href="#DejaVuSans-2d" x="254.492188"/>
       <use xlink:href="#DejaVuSans-31" x="290.576172"/>
       <use xlink:href="#DejaVuSans-30" x="354.199219"/>
      </g>
     </g>
    </g>
    <g id="xtick_5">
     <g id="line2d_9">
      <path d="M 388.516547 567.74175 
L 388.516547 24.14175 
" clip-path="url(#p90dd01874d)" style="fill: none; stroke: #ffffff; stroke-width: 0.8; stroke-linecap: square"/>
     </g>
     <g id="line2d_10">
      <g>
       <use xlink:href="#m0f047b9b62" x="388.516547" y="567.74175" style="fill: #555555; stroke: #555555; stroke-width: 0.8"/>
      </g>
     </g>
     <g id="text_5">
      <!-- 2022-11 -->
      <g style="fill: #555555" transform="translate(375.695265 609.659567)rotate(-45)scale(0.1 -0.1)">
       <use xlink:href="#DejaVuSans-32"/>
       <use xlink:href="#DejaVuSans-30" x="63.623047"/>
       <use xlink:href="#DejaVuSans-32" x="127.246094"/>
       <use xlink:href="#DejaVuSans-32" x="190.869141"/>
       <use xlink:href="#DejaVuSans-2d" x="254.492188"/>
       <use xlink:href="#DejaVuSans-31" x="290.576172"/>
       <use xlink:href="#DejaVuSans-31" x="354.199219"/>
      </g>
     </g>
    </g>
    <g id="xtick_6">
     <g id="line2d_11">
      <path d="M 464.385791 567.74175 
L 464.385791 24.14175 
" clip-path="url(#p90dd01874d)" style="fill: none; stroke: #ffffff; stroke-width: 0.8; stroke-linecap: square"/>
     </g>
     <g id="line2d_12">
      <g>
       <use xlink:href="#m0f047b9b62" x="464.385791" y="567.74175" style="fill: #555555; stroke: #555555; stroke-width: 0.8"/>
      </g>
     </g>
     <g id="text_6">
      <!-- 2022-12 -->
      <g style="fill: #555555" transform="translate(451.564509 609.659567)rotate(-45)scale(0.1 -0.1)">
       <use xlink:href="#DejaVuSans-32"/>
       <use xlink:href="#DejaVuSans-30" x="63.623047"/>
       <use xlink:href="#DejaVuSans-32" x="127.246094"/>
       <use xlink:href="#DejaVuSans-32" x="190.869141"/>
       <use xlink:href="#DejaVuSans-2d" x="254.492188"/>
       <use xlink:href="#DejaVuSans-31" x="290.576172"/>
       <use xlink:href="#DejaVuSans-32" x="354.199219"/>
      </g>
     </g>
    </g>
    <g id="xtick_7">
     <g id="line2d_13">
      <path d="M 542.784009 567.74175 
L 542.784009 24.14175 
" clip-path="url(#p90dd01874d)" style="fill: none; stroke: #ffffff; stroke-width: 0.8; stroke-linecap: square"/>
     </g>
     <g id="line2d_14">
      <g>
       <use xlink:href="#m0f047b9b62" x="542.784009" y="567.74175" style="fill: #555555; stroke: #555555; stroke-width: 0.8"/>
      </g>
     </g>
     <g id="text_7">
      <!-- 2023-01 -->
      <g style="fill: #555555" transform="translate(529.962727 609.659567)rotate(-45)scale(0.1 -0.1)">
       <defs>
        <path id="DejaVuSans-33" d="M 2597 2516 
Q 3050 2419 3304 2112 
Q 3559 1806 3559 1356 
Q 3559 666 3084 287 
Q 2609 -91 1734 -91 
Q 1441 -91 1130 -33 
Q 819 25 488 141 
L 488 750 
Q 750 597 1062 519 
Q 1375 441 1716 441 
Q 2309 441 2620 675 
Q 2931 909 2931 1356 
Q 2931 1769 2642 2001 
Q 2353 2234 1838 2234 
L 1294 2234 
L 1294 2753 
L 1863 2753 
Q 2328 2753 2575 2939 
Q 2822 3125 2822 3475 
Q 2822 3834 2567 4026 
Q 2313 4219 1838 4219 
Q 1578 4219 1281 4162 
Q 984 4106 628 3988 
L 628 4550 
Q 988 4650 1302 4700 
Q 1616 4750 1894 4750 
Q 2613 4750 3031 4423 
Q 3450 4097 3450 3541 
Q 3450 3153 3228 2886 
Q 3006 2619 2597 2516 
z
" transform="scale(0.015625)"/>
       </defs>
       <use xlink:href="#DejaVuSans-32"/>
       <use xlink:href="#DejaVuSans-30" x="63.623047"/>
       <use xlink:href="#DejaVuSans-32" x="127.246094"/>
       <use xlink:href="#DejaVuSans-33" x="190.869141"/>
       <use xlink:href="#DejaVuSans-2d" x="254.492188"/>
       <use xlink:href="#DejaVuSans-30" x="290.576172"/>
       <use xlink:href="#DejaVuSans-31" x="354.199219"/>
      </g>
     </g>
    </g>
    <g id="xtick_8">
     <g id="line2d_15">
      <path d="M 621.182228 567.74175 
L 621.182228 24.14175 
" clip-path="url(#p90dd01874d)" style="fill: none; stroke: #ffffff; stroke-width: 0.8; stroke-linecap: square"/>
     </g>
     <g id="line2d_16">
      <g>
       <use xlink:href="#m0f047b9b62" x="621.182228" y="567.74175" style="fill: #555555; stroke: #555555; stroke-width: 0.8"/>
      </g>
     </g>
     <g id="text_8">
      <!-- 2023-02 -->
      <g style="fill: #555555" transform="translate(608.360946 609.659567)rotate(-45)scale(0.1 -0.1)">
       <use xlink:href="#DejaVuSans-32"/>
       <use xlink:href="#DejaVuSans-30" x="63.623047"/>
       <use xlink:href="#DejaVuSans-32" x="127.246094"/>
       <use xlink:href="#DejaVuSans-33" x="190.869141"/>
       <use xlink:href="#DejaVuSans-2d" x="254.492188"/>
       <use xlink:href="#DejaVuSans-30" x="290.576172"/>
       <use xlink:href="#DejaVuSans-32" x="354.199219"/>
      </g>
     </g>
    </g>
    <g id="xtick_9">
     <g id="line2d_17">
      <path d="M 691.993522 567.74175 
L 691.993522 24.14175 
" clip-path="url(#p90dd01874d)" style="fill: none; stroke: #ffffff; stroke-width: 0.8; stroke-linecap: square"/>
     </g>
     <g id="line2d_18">
      <g>
       <use xlink:href="#m0f047b9b62" x="691.993522" y="567.74175" style="fill: #555555; stroke: #555555; stroke-width: 0.8"/>
      </g>
     </g>
     <g id="text_9">
      <!-- 2023-03 -->
      <g style="fill: #555555" transform="translate(679.17224 609.659567)rotate(-45)scale(0.1 -0.1)">
       <use xlink:href="#DejaVuSans-32"/>
       <use xlink:href="#DejaVuSans-30" x="63.623047"/>
       <use xlink:href="#DejaVuSans-32" x="127.246094"/>
       <use xlink:href="#DejaVuSans-33" x="190.869141"/>
       <use xlink:href="#DejaVuSans-2d" x="254.492188"/>
       <use xlink:href="#DejaVuSans-30" x="290.576172"/>
       <use xlink:href="#DejaVuSans-33" x="354.199219"/>
      </g>
     </g>
    </g>
    <g id="xtick_10">
     <g id="line2d_19">
      <path d="M 770.391741 567.74175 
L 770.391741 24.14175 
" clip-path="url(#p90dd01874d)" style="fill: none; stroke: #ffffff; stroke-width: 0.8; stroke-linecap: square"/>
     </g>
     <g id="line2d_20">
      <g>
       <use xlink:href="#m0f047b9b62" x="770.391741" y="567.74175" style="fill: #555555; stroke: #555555; stroke-width: 0.8"/>
      </g>
     </g>
     <g id="text_10">
      <!-- 2023-04 -->
      <g style="fill: #555555" transform="translate(757.570458 609.659567)rotate(-45)scale(0.1 -0.1)">
       <defs>
        <path id="DejaVuSans-34" d="M 2419 4116 
L 825 1625 
L 2419 1625 
L 2419 4116 
z
M 2253 4666 
L 3047 4666 
L 3047 1625 
L 3713 1625 
L 3713 1100 
L 3047 1100 
L 3047 0 
L 2419 0 
L 2419 1100 
L 313 1100 
L 313 1709 
L 2253 4666 
z
" transform="scale(0.015625)"/>
       </defs>
       <use xlink:href="#DejaVuSans-32"/>
       <use xlink:href="#DejaVuSans-30" x="63.623047"/>
       <use xlink:href="#DejaVuSans-32" x="127.246094"/>
       <use xlink:href="#DejaVuSans-33" x="190.869141"/>
       <use xlink:href="#DejaVuSans-2d" x="254.492188"/>
       <use xlink:href="#DejaVuSans-30" x="290.576172"/>
       <use xlink:href="#DejaVuSans-34" x="354.199219"/>
      </g>
     </g>
    </g>
    <g id="xtick_11">
     <g id="line2d_21">
      <path d="M 846.260984 567.74175 
L 846.260984 24.14175 
" clip-path="url(#p90dd01874d)" style="fill: none; stroke: #ffffff; stroke-width: 0.8; stroke-linecap: square"/>
     </g>
     <g id="line2d_22">
      <g>
       <use xlink:href="#m0f047b9b62" x="846.260984" y="567.74175" style="fill: #555555; stroke: #555555; stroke-width: 0.8"/>
      </g>
     </g>
     <g id="text_11">
      <!-- 2023-05 -->
      <g style="fill: #555555" transform="translate(833.439702 609.659567)rotate(-45)scale(0.1 -0.1)">
       <defs>
        <path id="DejaVuSans-35" d="M 691 4666 
L 3169 4666 
L 3169 4134 
L 1269 4134 
L 1269 2991 
Q 1406 3038 1543 3061 
Q 1681 3084 1819 3084 
Q 2600 3084 3056 2656 
Q 3513 2228 3513 1497 
Q 3513 744 3044 326 
Q 2575 -91 1722 -91 
Q 1428 -91 1123 -41 
Q 819 9 494 109 
L 494 744 
Q 775 591 1075 516 
Q 1375 441 1709 441 
Q 2250 441 2565 725 
Q 2881 1009 2881 1497 
Q 2881 1984 2565 2268 
Q 2250 2553 1709 2553 
Q 1456 2553 1204 2497 
Q 953 2441 691 2322 
L 691 4666 
z
" transform="scale(0.015625)"/>
       </defs>
       <use xlink:href="#DejaVuSans-32"/>
       <use xlink:href="#DejaVuSans-30" x="63.623047"/>
       <use xlink:href="#DejaVuSans-32" x="127.246094"/>
       <use xlink:href="#DejaVuSans-33" x="190.869141"/>
       <use xlink:href="#DejaVuSans-2d" x="254.492188"/>
       <use xlink:href="#DejaVuSans-30" x="290.576172"/>
       <use xlink:href="#DejaVuSans-35" x="354.199219"/>
      </g>
     </g>
    </g>
    <g id="xtick_12">
     <g id="line2d_23">
      <path d="M 924.659203 567.74175 
L 924.659203 24.14175 
" clip-path="url(#p90dd01874d)" style="fill: none; stroke: #ffffff; stroke-width: 0.8; stroke-linecap: square"/>
     </g>
     <g id="line2d_24">
      <g>
       <use xlink:href="#m0f047b9b62" x="924.659203" y="567.74175" style="fill: #555555; stroke: #555555; stroke-width: 0.8"/>
      </g>
     </g>
     <g id="text_12">
      <!-- 2023-06 -->
      <g style="fill: #555555" transform="translate(911.83792 609.659567)rotate(-45)scale(0.1 -0.1)">
       <defs>
        <path id="DejaVuSans-36" d="M 2113 2584 
Q 1688 2584 1439 2293 
Q 1191 2003 1191 1497 
Q 1191 994 1439 701 
Q 1688 409 2113 409 
Q 2538 409 2786 701 
Q 3034 994 3034 1497 
Q 3034 2003 2786 2293 
Q 2538 2584 2113 2584 
z
M 3366 4563 
L 3366 3988 
Q 3128 4100 2886 4159 
Q 2644 4219 2406 4219 
Q 1781 4219 1451 3797 
Q 1122 3375 1075 2522 
Q 1259 2794 1537 2939 
Q 1816 3084 2150 3084 
Q 2853 3084 3261 2657 
Q 3669 2231 3669 1497 
Q 3669 778 3244 343 
Q 2819 -91 2113 -91 
Q 1303 -91 875 529 
Q 447 1150 447 2328 
Q 447 3434 972 4092 
Q 1497 4750 2381 4750 
Q 2619 4750 2861 4703 
Q 3103 4656 3366 4563 
z
" transform="scale(0.015625)"/>
       </defs>
       <use xlink:href="#DejaVuSans-32"/>
       <use xlink:href="#DejaVuSans-30" x="63.623047"/>
       <use xlink:href="#DejaVuSans-32" x="127.246094"/>
       <use xlink:href="#DejaVuSans-33" x="190.869141"/>
       <use xlink:href="#DejaVuSans-2d" x="254.492188"/>
       <use xlink:href="#DejaVuSans-30" x="290.576172"/>
       <use xlink:href="#DejaVuSans-36" x="354.199219"/>
      </g>
     </g>
    </g>
    <g id="text_13">
     <!-- Date -->
     <g style="fill: #555555" transform="translate(491.772938 624.248253)scale(0.12 -0.12)">
      <defs>
       <path id="DejaVuSans-44" d="M 1259 4147 
L 1259 519 
L 2022 519 
Q 2988 519 3436 956 
Q 3884 1394 3884 2338 
Q 3884 3275 3436 3711 
Q 2988 4147 2022 4147 
L 1259 4147 
z
M 628 4666 
L 1925 4666 
Q 3281 4666 3915 4102 
Q 4550 3538 4550 2338 
Q 4550 1131 3912 565 
Q 3275 0 1925 0 
L 628 0 
L 628 4666 
z
" transform="scale(0.015625)"/>
       <path id="DejaVuSans-61" d="M 2194 1759 
Q 1497 1759 1228 1600 
Q 959 1441 959 1056 
Q 959 750 1161 570 
Q 1363 391 1709 391 
Q 2188 391 2477 730 
Q 2766 1069 2766 1631 
L 2766 1759 
L 2194 1759 
z
M 3341 1997 
L 3341 0 
L 2766 0 
L 2766 531 
Q 2569 213 2275 61 
Q 1981 -91 1556 -91 
Q 1019 -91 701 211 
Q 384 513 384 1019 
Q 384 1609 779 1909 
Q 1175 2209 1959 2209 
L 2766 2209 
L 2766 2266 
Q 2766 2663 2505 2880 
Q 2244 3097 1772 3097 
Q 1472 3097 1187 3025 
Q 903 2953 641 2809 
L 641 3341 
Q 956 3463 1253 3523 
Q 1550 3584 1831 3584 
Q 2591 3584 2966 3190 
Q 3341 2797 3341 1997 
z
" transform="scale(0.015625)"/>
       <path id="DejaVuSans-74" d="M 1172 4494 
L 1172 3500 
L 2356 3500 
L 2356 3053 
L 1172 3053 
L 1172 1153 
Q 1172 725 1289 603 
Q 1406 481 1766 481 
L 2356 481 
L 2356 0 
L 1766 0 
Q 1100 0 847 248 
Q 594 497 594 1153 
L 594 3053 
L 172 3053 
L 172 3500 
L 594 3500 
L 594 4494 
L 1172 4494 
z
" transform="scale(0.015625)"/>
       <path id="DejaVuSans-65" d="M 3597 1894 
L 3597 1613 
L 953 1613 
Q 991 1019 1311 708 
Q 1631 397 2203 397 
Q 2534 397 2845 478 
Q 3156 559 3463 722 
L 3463 178 
Q 3153 47 2828 -22 
Q 2503 -91 2169 -91 
Q 1331 -91 842 396 
Q 353 884 353 1716 
Q 353 2575 817 3079 
Q 1281 3584 2069 3584 
Q 2775 3584 3186 3129 
Q 3597 2675 3597 1894 
z
M 3022 2063 
Q 3016 2534 2758 2815 
Q 2500 3097 2075 3097 
Q 1594 3097 1305 2825 
Q 1016 2553 972 2059 
L 3022 2063 
z
" transform="scale(0.015625)"/>
      </defs>
      <use xlink:href="#DejaVuSans-44"/>
      <use xlink:href="#DejaVuSans-61" x="77.001953"/>
      <use xlink:href="#DejaVuSans-74" x="138.28125"/>
      <use xlink:href="#DejaVuSans-65" x="177.490234"/>
     </g>
    </g>
   </g>
   <g id="matplotlib.axis_2">
    <g id="ytick_1">
     <g id="line2d_25">
      <path d="M 54.691875 567.74175 
L 957.535875 567.74175 
" clip-path="url(#p90dd01874d)" style="fill: none; stroke: #ffffff; stroke-width: 0.8; stroke-linecap: square"/>
     </g>
     <g id="line2d_26">
      <defs>
       <path id="m93dc724831" d="M 0 0 
L -3.5 0 
" style="stroke: #555555; stroke-width: 0.8"/>
      </defs>
      <g>
       <use xlink:href="#m93dc724831" x="54.691875" y="567.74175" style="fill: #555555; stroke: #555555; stroke-width: 0.8"/>
      </g>
     </g>
     <g id="text_14">
      <!-- 0k -->
      <g style="fill: #555555" transform="translate(35.53875 571.540969)scale(0.1 -0.1)">
       <defs>
        <path id="DejaVuSans-6b" d="M 581 4863 
L 1159 4863 
L 1159 1991 
L 2875 3500 
L 3609 3500 
L 1753 1863 
L 3688 0 
L 2938 0 
L 1159 1709 
L 1159 0 
L 581 0 
L 581 4863 
z
" transform="scale(0.015625)"/>
       </defs>
       <use xlink:href="#DejaVuSans-30"/>
       <use xlink:href="#DejaVuSans-6b" x="63.623047"/>
      </g>
     </g>
    </g>
    <g id="ytick_2">
     <g id="line2d_27">
      <path d="M 54.691875 504.306071 
L 957.535875 504.306071 
" clip-path="url(#p90dd01874d)" style="fill: none; stroke: #ffffff; stroke-width: 0.8; stroke-linecap: square"/>
     </g>
     <g id="line2d_28">
      <g>
       <use xlink:href="#m93dc724831" x="54.691875" y="504.306071" style="fill: #555555; stroke: #555555; stroke-width: 0.8"/>
      </g>
     </g>
     <g id="text_15">
      <!-- 20k -->
      <g style="fill: #555555" transform="translate(29.17625 508.10529)scale(0.1 -0.1)">
       <use xlink:href="#DejaVuSans-32"/>
       <use xlink:href="#DejaVuSans-30" x="63.623047"/>
       <use xlink:href="#DejaVuSans-6b" x="127.246094"/>
      </g>
     </g>
    </g>
    <g id="ytick_3">
     <g id="line2d_29">
      <path d="M 54.691875 440.870392 
L 957.535875 440.870392 
" clip-path="url(#p90dd01874d)" style="fill: none; stroke: #ffffff; stroke-width: 0.8; stroke-linecap: square"/>
     </g>
     <g id="line2d_30">
      <g>
       <use xlink:href="#m93dc724831" x="54.691875" y="440.870392" style="fill: #555555; stroke: #555555; stroke-width: 0.8"/>
      </g>
     </g>
     <g id="text_16">
      <!-- 40k -->
      <g style="fill: #555555" transform="translate(29.17625 444.66961)scale(0.1 -0.1)">
       <use xlink:href="#DejaVuSans-34"/>
       <use xlink:href="#DejaVuSans-30" x="63.623047"/>
       <use xlink:href="#DejaVuSans-6b" x="127.246094"/>
      </g>
     </g>
    </g>
    <g id="ytick_4">
     <g id="line2d_31">
      <path d="M 54.691875 377.434712 
L 957.535875 377.434712 
" clip-path="url(#p90dd01874d)" style="fill: none; stroke: #ffffff; stroke-width: 0.8; stroke-linecap: square"/>
     </g>
     <g id="line2d_32">
      <g>
       <use xlink:href="#m93dc724831" x="54.691875" y="377.434712" style="fill: #555555; stroke: #555555; stroke-width: 0.8"/>
      </g>
     </g>
     <g id="text_17">
      <!-- 60k -->
      <g style="fill: #555555" transform="translate(29.17625 381.233931)scale(0.1 -0.1)">
       <use xlink:href="#DejaVuSans-36"/>
       <use xlink:href="#DejaVuSans-30" x="63.623047"/>
       <use xlink:href="#DejaVuSans-6b" x="127.246094"/>
      </g>
     </g>
    </g>
    <g id="ytick_5">
     <g id="line2d_33">
      <path d="M 54.691875 313.999033 
L 957.535875 313.999033 
" clip-path="url(#p90dd01874d)" style="fill: none; stroke: #ffffff; stroke-width: 0.8; stroke-linecap: square"/>
     </g>
     <g id="line2d_34">
      <g>
       <use xlink:href="#m93dc724831" x="54.691875" y="313.999033" style="fill: #555555; stroke: #555555; stroke-width: 0.8"/>
      </g>
     </g>
     <g id="text_18">
      <!-- 80k -->
      <g style="fill: #555555" transform="translate(29.17625 317.798252)scale(0.1 -0.1)">
       <use xlink:href="#DejaVuSans-38"/>
       <use xlink:href="#DejaVuSans-30" x="63.623047"/>
       <use xlink:href="#DejaVuSans-6b" x="127.246094"/>
      </g>
     </g>
    </g>
    <g id="ytick_6">
     <g id="line2d_35">
      <path d="M 54.691875 250.563354 
L 957.535875 250.563354 
" clip-path="url(#p90dd01874d)" style="fill: none; stroke: #ffffff; stroke-width: 0.8; stroke-linecap: square"/>
     </g>
     <g id="line2d_36">
      <g>
       <use xlink:href="#m93dc724831" x="54.691875" y="250.563354" style="fill: #555555; stroke: #555555; stroke-width: 0.8"/>
      </g>
     </g>
     <g id="text_19">
      <!-- 100k -->
      <g style="fill: #555555" transform="translate(22.81375 254.362573)scale(0.1 -0.1)">
       <use xlink:href="#DejaVuSans-31"/>
       <use xlink:href="#DejaVuSans-30" x="63.623047"/>
       <use xlink:href="#DejaVuSans-30" x="127.246094"/>
       <use xlink:href="#DejaVuSans-6b" x="190.869141"/>
      </g>
     </g>
    </g>
    <g id="ytick_7">
     <g id="line2d_37">
      <path d="M 54.691875 187.127675 
L 957.535875 187.127675 
" clip-path="url(#p90dd01874d)" style="fill: none; stroke: #ffffff; stroke-width: 0.8; stroke-linecap: square"/>
     </g>
     <g id="line2d_38">
      <g>
       <use xlink:href="#m93dc724831" x="54.691875" y="187.127675" style="fill: #555555; stroke: #555555; stroke-width: 0.8"/>
      </g>
     </g>
     <g id="text_20">
      <!-- 120k -->
      <g style="fill: #555555" transform="translate(22.81375 190.926894)scale(0.1 -0.1)">
       <use xlink:href="#DejaVuSans-31"/>
       <use xlink:href="#DejaVuSans-32" x="63.623047"/>
       <use xlink:href="#DejaVuSans-30" x="127.246094"/>
       <use xlink:href="#DejaVuSans-6b" x="190.869141"/>
      </g>
     </g>
    </g>
    <g id="ytick_8">
     <g id="line2d_39">
      <path d="M 54.691875 123.691996 
L 957.535875 123.691996 
" clip-path="url(#p90dd01874d)" style="fill: none; stroke: #ffffff; stroke-width: 0.8; stroke-linecap: square"/>
     </g>
     <g id="line2d_40">
      <g>
       <use xlink:href="#m93dc724831" x="54.691875" y="123.691996" style="fill: #555555; stroke: #555555; stroke-width: 0.8"/>
      </g>
     </g>
     <g id="text_21">
      <!-- 140k -->
      <g style="fill: #555555" transform="translate(22.81375 127.491214)scale(0.1 -0.1)">
       <use xlink:href="#DejaVuSans-31"/>
       <use xlink:href="#DejaVuSans-34" x="63.623047"/>
       <use xlink:href="#DejaVuSans-30" x="127.246094"/>
       <use xlink:href="#DejaVuSans-6b" x="190.869141"/>
      </g>
     </g>
    </g>
    <g id="ytick_9">
     <g id="line2d_41">
      <path d="M 54.691875 60.256317 
L 957.535875 60.256317 
" clip-path="url(#p90dd01874d)" style="fill: none; stroke: #ffffff; stroke-width: 0.8; stroke-linecap: square"/>
     </g>
     <g id="line2d_42">
      <g>
       <use xlink:href="#m93dc724831" x="54.691875" y="60.256317" style="fill: #555555; stroke: #555555; stroke-width: 0.8"/>
      </g>
     </g>
     <g id="text_22">
      <!-- 160k -->
      <g style="fill: #555555" transform="translate(22.81375 64.055535)scale(0.1 -0.1)">
       <use xlink:href="#DejaVuSans-31"/>
       <use xlink:href="#DejaVuSans-36" x="63.623047"/>
       <use xlink:href="#DejaVuSans-30" x="127.246094"/>
       <use xlink:href="#DejaVuSans-6b" x="190.869141"/>
      </g>
     </g>
    </g>
    <g id="text_23">
     <!-- Instances -->
     <g style="fill: #555555" transform="translate(16.318125 324.588)rotate(-90)scale(0.12 -0.12)">
      <defs>
       <path id="DejaVuSans-49" d="M 628 4666 
L 1259 4666 
L 1259 0 
L 628 0 
L 628 4666 
z
" transform="scale(0.015625)"/>
       <path id="DejaVuSans-6e" d="M 3513 2113 
L 3513 0 
L 2938 0 
L 2938 2094 
Q 2938 2591 2744 2837 
Q 2550 3084 2163 3084 
Q 1697 3084 1428 2787 
Q 1159 2491 1159 1978 
L 1159 0 
L 581 0 
L 581 3500 
L 1159 3500 
L 1159 2956 
Q 1366 3272 1645 3428 
Q 1925 3584 2291 3584 
Q 2894 3584 3203 3211 
Q 3513 2838 3513 2113 
z
" transform="scale(0.015625)"/>
       <path id="DejaVuSans-73" d="M 2834 3397 
L 2834 2853 
Q 2591 2978 2328 3040 
Q 2066 3103 1784 3103 
Q 1356 3103 1142 2972 
Q 928 2841 928 2578 
Q 928 2378 1081 2264 
Q 1234 2150 1697 2047 
L 1894 2003 
Q 2506 1872 2764 1633 
Q 3022 1394 3022 966 
Q 3022 478 2636 193 
Q 2250 -91 1575 -91 
Q 1294 -91 989 -36 
Q 684 19 347 128 
L 347 722 
Q 666 556 975 473 
Q 1284 391 1588 391 
Q 1994 391 2212 530 
Q 2431 669 2431 922 
Q 2431 1156 2273 1281 
Q 2116 1406 1581 1522 
L 1381 1569 
Q 847 1681 609 1914 
Q 372 2147 372 2553 
Q 372 3047 722 3315 
Q 1072 3584 1716 3584 
Q 2034 3584 2315 3537 
Q 2597 3491 2834 3397 
z
" transform="scale(0.015625)"/>
       <path id="DejaVuSans-63" d="M 3122 3366 
L 3122 2828 
Q 2878 2963 2633 3030 
Q 2388 3097 2138 3097 
Q 1578 3097 1268 2742 
Q 959 2388 959 1747 
Q 959 1106 1268 751 
Q 1578 397 2138 397 
Q 2388 397 2633 464 
Q 2878 531 3122 666 
L 3122 134 
Q 2881 22 2623 -34 
Q 2366 -91 2075 -91 
Q 1284 -91 818 406 
Q 353 903 353 1747 
Q 353 2603 823 3093 
Q 1294 3584 2113 3584 
Q 2378 3584 2631 3529 
Q 2884 3475 3122 3366 
z
" transform="scale(0.015625)"/>
      </defs>
      <use xlink:href="#DejaVuSans-49"/>
      <use xlink:href="#DejaVuSans-6e" x="29.492188"/>
      <use xlink:href="#DejaVuSans-73" x="92.871094"/>
      <use xlink:href="#DejaVuSans-74" x="144.970703"/>
      <use xlink:href="#DejaVuSans-61" x="184.179688"/>
      <use xlink:href="#DejaVuSans-6e" x="245.458984"/>
      <use xlink:href="#DejaVuSans-63" x="308.837891"/>
      <use xlink:href="#DejaVuSans-65" x="363.818359"/>
      <use xlink:href="#DejaVuSans-73" x="425.341797"/>
     </g>
    </g>
   </g>
   <g id="line2d_43">
    <path d="M 54.691875 471.284913 
L 63.811511 470.558309 
L 72.931148 469.831705 
L 82.050784 469.1051 
L 91.17042 468.378496 
L 100.290057 467.651892 
L 109.409693 466.925287 
L 118.52933 466.198683 
L 127.648966 465.472079 
L 136.768602 464.745474 
L 145.888239 464.01887 
L 155.007875 463.292266 
L 164.127511 462.565661 
L 173.247148 461.839057 
L 182.366784 461.112453 
L 191.48642 460.385848 
L 200.606057 459.659244 
L 209.725693 458.93264 
L 218.84533 458.206035 
L 227.964966 457.479431 
L 237.084602 456.752827 
L 246.204239 456.026222 
L 255.323875 455.299618 
L 264.443511 454.573014 
L 273.563148 453.846409 
L 282.682784 453.119805 
L 291.80242 452.393201 
L 300.922057 451.666596 
L 310.041693 450.939992 
L 319.16133 450.213388 
L 328.280966 449.486783 
L 337.400602 448.760179 
L 346.520239 448.033575 
L 355.639875 447.30697 
L 364.759511 446.580366 
L 373.879148 445.853762 
L 382.998784 445.127157 
L 392.11842 444.400553 
L 401.238057 443.673949 
L 410.357693 442.947344 
L 419.47733 442.22074 
L 428.596966 441.494136 
L 437.716602 440.767531 
L 446.836239 440.040927 
L 455.955875 439.314323 
L 465.075511 438.587718 
L 474.195148 437.861114 
L 483.314784 437.13451 
L 492.43442 436.407905 
L 501.554057 435.681301 
L 510.673693 434.954697 
L 519.79333 434.228092 
L 528.912966 433.501488 
L 538.032602 432.774884 
L 547.152239 432.048279 
L 556.271875 431.321675 
L 565.391511 430.595071 
L 574.511148 429.868466 
L 583.630784 429.141862 
L 592.75042 428.415258 
L 601.870057 427.688653 
L 610.989693 426.962049 
L 620.10933 426.235445 
L 629.228966 425.50884 
L 638.348602 424.782236 
L 647.468239 424.055632 
L 656.587875 423.329027 
L 665.707511 422.602423 
L 674.827148 421.875819 
L 683.946784 421.149214 
L 693.06642 420.42261 
L 702.186057 419.696006 
L 711.305693 418.969401 
L 720.42533 418.242797 
L 729.544966 417.516193 
L 738.664602 416.789588 
L 747.784239 416.062984 
L 756.903875 415.33638 
L 766.023511 414.609775 
L 775.143148 413.883171 
L 784.262784 413.156567 
L 793.38242 412.429962 
L 802.502057 411.703358 
L 811.621693 410.976754 
L 820.74133 410.250149 
L 829.860966 409.523545 
L 838.980602 408.796941 
L 848.100239 408.070337 
L 857.219875 407.343732 
L 866.339511 406.617128 
L 875.459148 405.890524 
L 884.578784 405.163919 
L 893.69842 404.437315 
L 902.818057 403.710711 
L 911.937693 402.984106 
L 921.05733 402.257502 
L 930.176966 401.530898 
L 939.296602 400.804293 
L 948.416239 400.077689 
L 957.535875 399.351085 
" clip-path="url(#p90dd01874d)" style="fill: none; stroke-dasharray: 1.5,2.475; stroke-dashoffset: 0; stroke: #4ac1fa; stroke-width: 1.5"/>
   </g>
   <g id="line2d_44">
    <path d="M 54.691875 437.700476 
L 63.811511 436.952205 
L 72.931148 436.203935 
L 82.050784 435.455665 
L 91.17042 434.707395 
L 100.290057 433.959124 
L 109.409693 433.210854 
L 118.52933 432.462584 
L 127.648966 431.714314 
L 136.768602 430.966043 
L 145.888239 430.217773 
L 155.007875 429.469503 
L 164.127511 428.721233 
L 173.247148 427.972962 
L 182.366784 427.224692 
L 191.48642 426.476422 
L 200.606057 425.728152 
L 209.725693 424.979881 
L 218.84533 424.231611 
L 227.964966 423.483341 
L 237.084602 422.735071 
L 246.204239 421.9868 
L 255.323875 421.23853 
L 264.443511 420.49026 
L 273.563148 419.74199 
L 282.682784 418.993719 
L 291.80242 418.245449 
L 300.922057 417.497179 
L 310.041693 416.748909 
L 319.16133 416.000638 
L 328.280966 415.252368 
L 337.400602 414.504098 
L 346.520239 413.755828 
L 355.639875 413.007557 
L 364.759511 412.259287 
L 373.879148 411.511017 
L 382.998784 410.762747 
L 392.11842 410.014476 
L 401.238057 409.266206 
L 410.357693 408.517936 
L 419.47733 407.769666 
L 428.596966 407.021395 
L 437.716602 406.273125 
L 446.836239 405.524855 
L 455.955875 404.776585 
L 465.075511 404.028314 
L 474.195148 403.280044 
L 483.314784 402.531774 
L 492.43442 401.783504 
L 501.554057 401.035233 
L 510.673693 400.286963 
L 519.79333 399.538693 
L 528.912966 398.790423 
L 538.032602 398.042152 
L 547.152239 397.293882 
L 556.271875 396.545612 
L 565.391511 395.797342 
L 574.511148 395.049071 
L 583.630784 394.300801 
L 592.75042 393.552531 
L 601.870057 392.804261 
L 610.989693 392.055991 
L 620.10933 391.30772 
L 629.228966 390.55945 
L 638.348602 389.81118 
L 647.468239 389.06291 
L 656.587875 388.314639 
L 665.707511 387.566369 
L 674.827148 386.818099 
L 683.946784 386.069829 
L 693.06642 385.321558 
L 702.186057 384.573288 
L 711.305693 383.825018 
L 720.42533 383.076748 
L 729.544966 382.328477 
L 738.664602 381.580207 
L 747.784239 380.831937 
L 756.903875 380.083667 
L 766.023511 379.335396 
L 775.143148 378.587126 
L 784.262784 377.838856 
L 793.38242 377.090586 
L 802.502057 376.342315 
L 811.621693 375.594045 
L 820.74133 374.845775 
L 829.860966 374.097505 
L 838.980602 373.349234 
L 848.100239 372.600964 
L 857.219875 371.852694 
L 866.339511 371.104424 
L 875.459148 370.356153 
L 884.578784 369.607883 
L 893.69842 368.859613 
L 902.818057 368.111343 
L 911.937693 367.363072 
L 921.05733 366.614802 
L 930.176966 365.866532 
L 939.296602 365.118262 
L 948.416239 364.369991 
L 957.535875 363.621721 
" clip-path="url(#p90dd01874d)" style="fill: none; stroke-dasharray: 1.5,2.475; stroke-dashoffset: 0; stroke: #9a5689; stroke-width: 1.5"/>
   </g>
   <g id="line2d_45">
    <path d="M 54.691875 511.728337 
L 63.811511 511.405641 
L 72.931148 511.082945 
L 82.050784 510.760249 
L 91.17042 510.437553 
L 100.290057 510.114857 
L 109.409693 509.792161 
L 118.52933 509.469466 
L 127.648966 509.14677 
L 136.768602 508.824074 
L 145.888239 508.501378 
L 155.007875 508.178682 
L 164.127511 507.855986 
L 173.247148 507.53329 
L 182.366784 507.210594 
L 191.48642 506.887898 
L 200.606057 506.565203 
L 209.725693 506.242507 
L 218.84533 505.919811 
L 227.964966 505.597115 
L 237.084602 505.274419 
L 246.204239 504.951723 
L 255.323875 504.629027 
L 264.443511 504.306331 
L 273.563148 503.983636 
L 282.682784 503.66094 
L 291.80242 503.338244 
L 300.922057 503.015548 
L 310.041693 502.692852 
L 319.16133 502.370156 
L 328.280966 502.04746 
L 337.400602 501.724764 
L 346.520239 501.402068 
L 355.639875 501.079373 
L 364.759511 500.756677 
L 373.879148 500.433981 
L 382.998784 500.111285 
L 392.11842 499.788589 
L 401.238057 499.465893 
L 410.357693 499.143197 
L 419.47733 498.820501 
L 428.596966 498.497806 
L 437.716602 498.17511 
L 446.836239 497.852414 
L 455.955875 497.529718 
L 465.075511 497.207022 
L 474.195148 496.884326 
L 483.314784 496.56163 
L 492.43442 496.238934 
L 501.554057 495.916238 
L 510.673693 495.593543 
L 519.79333 495.270847 
L 528.912966 494.948151 
L 538.032602 494.625455 
L 547.152239 494.302759 
L 556.271875 493.980063 
L 565.391511 493.657367 
L 574.511148 493.334671 
L 583.630784 493.011976 
L 592.75042 492.68928 
L 601.870057 492.366584 
L 610.989693 492.043888 
L 620.10933 491.721192 
L 629.228966 491.398496 
L 638.348602 491.0758 
L 647.468239 490.753104 
L 656.587875 490.430409 
L 665.707511 490.107713 
L 674.827148 489.785017 
L 683.946784 489.462321 
L 693.06642 489.139625 
L 702.186057 488.816929 
L 711.305693 488.494233 
L 720.42533 488.171537 
L 729.544966 487.848841 
L 738.664602 487.526146 
L 747.784239 487.20345 
L 756.903875 486.880754 
L 766.023511 486.558058 
L 775.143148 486.235362 
L 784.262784 485.912666 
L 793.38242 485.58997 
L 802.502057 485.267274 
L 811.621693 484.944579 
L 820.74133 484.621883 
L 829.860966 484.299187 
L 838.980602 483.976491 
L 848.100239 483.653795 
L 857.219875 483.331099 
L 866.339511 483.008403 
L 875.459148 482.685707 
L 884.578784 482.363011 
L 893.69842 482.040316 
L 902.818057 481.71762 
L 911.937693 481.394924 
L 921.05733 481.072228 
L 930.176966 480.749532 
L 939.296602 480.426836 
L 948.416239 480.10414 
L 957.535875 479.781444 
" clip-path="url(#p90dd01874d)" style="fill: none; stroke-dasharray: 1.5,2.475; stroke-dashoffset: 0; stroke: #be503b; stroke-width: 1.5"/>
   </g>
   <g id="line2d_46">
    <path d="M 54.691875 392.635977 
L 63.811511 391.827882 
L 72.931148 391.019787 
L 82.050784 390.211692 
L 91.17042 389.403597 
L 100.290057 388.595502 
L 109.409693 387.787407 
L 118.52933 386.979312 
L 127.648966 386.171217 
L 136.768602 385.363122 
L 145.888239 384.555027 
L 155.007875 383.746932 
L 164.127511 382.938837 
L 173.247148 382.130742 
L 182.366784 381.322646 
L 191.48642 380.514551 
L 200.606057 379.706456 
L 209.725693 378.898361 
L 218.84533 378.090266 
L 227.964966 377.282171 
L 237.084602 376.474076 
L 246.204239 375.665981 
L 255.323875 374.857886 
L 264.443511 374.049791 
L 273.563148 373.241696 
L 282.682784 372.433601 
L 291.80242 371.625506 
L 300.922057 370.817411 
L 310.041693 370.009316 
L 319.16133 369.201221 
L 328.280966 368.393126 
L 337.400602 367.585031 
L 346.520239 366.776935 
L 355.639875 365.96884 
L 364.759511 365.160745 
L 373.879148 364.35265 
L 382.998784 363.544555 
L 392.11842 362.73646 
L 401.238057 361.928365 
L 410.357693 361.12027 
L 419.47733 360.312175 
L 428.596966 359.50408 
L 437.716602 358.695985 
L 446.836239 357.88789 
L 455.955875 357.079795 
L 465.075511 356.2717 
L 474.195148 355.463605 
L 483.314784 354.65551 
L 492.43442 353.847415 
L 501.554057 353.03932 
L 510.673693 352.231225 
L 519.79333 351.423129 
L 528.912966 350.615034 
L 538.032602 349.806939 
L 547.152239 348.998844 
L 556.271875 348.190749 
L 565.391511 347.382654 
L 574.511148 346.574559 
L 583.630784 345.766464 
L 592.75042 344.958369 
L 601.870057 344.150274 
L 610.989693 343.342179 
L 620.10933 342.534084 
L 629.228966 341.725989 
L 638.348602 340.917894 
L 647.468239 340.109799 
L 656.587875 339.301704 
L 665.707511 338.493609 
L 674.827148 337.685514 
L 683.946784 336.877419 
L 693.06642 336.069323 
L 702.186057 335.261228 
L 711.305693 334.453133 
L 720.42533 333.645038 
L 729.544966 332.836943 
L 738.664602 332.028848 
L 747.784239 331.220753 
L 756.903875 330.412658 
L 766.023511 329.604563 
L 775.143148 328.796468 
L 784.262784 327.988373 
L 793.38242 327.180278 
L 802.502057 326.372183 
L 811.621693 325.564088 
L 820.74133 324.755993 
L 829.860966 323.947898 
L 838.980602 323.139803 
L 848.100239 322.331708 
L 857.219875 321.523612 
L 866.339511 320.715517 
L 875.459148 319.907422 
L 884.578784 319.099327 
L 893.69842 318.291232 
L 902.818057 317.483137 
L 911.937693 316.675042 
L 921.05733 315.866947 
L 930.176966 315.058852 
L 939.296602 314.250757 
L 948.416239 313.442662 
L 957.535875 312.634567 
" clip-path="url(#p90dd01874d)" style="fill: none; stroke-dasharray: 1.5,2.475; stroke-dashoffset: 0; stroke: #e2321d; stroke-width: 1.5"/>
   </g>
   <g id="line2d_47">
    <path d="M 54.691875 162.25223 
L 63.811511 162.891802 
L 72.931148 163.531375 
L 82.050784 164.170947 
L 91.17042 164.81052 
L 100.290057 165.450092 
L 109.409693 166.089664 
L 118.52933 166.729237 
L 127.648966 167.368809 
L 136.768602 168.008382 
L 145.888239 168.647954 
L 155.007875 169.287527 
L 164.127511 169.927099 
L 173.247148 170.566672 
L 182.366784 171.206244 
L 191.48642 171.845817 
L 200.606057 172.485389 
L 209.725693 173.124962 
L 218.84533 173.764534 
L 227.964966 174.404107 
L 237.084602 175.043679 
L 246.204239 175.683251 
L 255.323875 176.322824 
L 264.443511 176.962396 
L 273.563148 177.601969 
L 282.682784 178.241541 
L 291.80242 178.881114 
L 300.922057 179.520686 
L 310.041693 180.160259 
L 319.16133 180.799831 
L 328.280966 181.439404 
L 337.400602 182.078976 
L 346.520239 182.718549 
L 355.639875 183.358121 
L 364.759511 183.997694 
L 373.879148 184.637266 
L 382.998784 185.276838 
L 392.11842 185.916411 
L 401.238057 186.555983 
L 410.357693 187.195556 
L 419.47733 187.835128 
L 428.596966 188.474701 
L 437.716602 189.114273 
L 446.836239 189.753846 
L 455.955875 190.393418 
L 465.075511 191.032991 
L 474.195148 191.672563 
L 483.314784 192.312136 
L 492.43442 192.951708 
L 501.554057 193.591281 
L 510.673693 194.230853 
L 519.79333 194.870425 
L 528.912966 195.509998 
L 538.032602 196.14957 
L 547.152239 196.789143 
L 556.271875 197.428715 
L 565.391511 198.068288 
L 574.511148 198.70786 
L 583.630784 199.347433 
L 592.75042 199.987005 
L 601.870057 200.626578 
L 610.989693 201.26615 
L 620.10933 201.905723 
L 629.228966 202.545295 
L 638.348602 203.184868 
L 647.468239 203.82444 
L 656.587875 204.464013 
L 665.707511 205.103585 
L 674.827148 205.743157 
L 683.946784 206.38273 
L 693.06642 207.022302 
L 702.186057 207.661875 
L 711.305693 208.301447 
L 720.42533 208.94102 
L 729.544966 209.580592 
L 738.664602 210.220165 
L 747.784239 210.859737 
L 756.903875 211.49931 
L 766.023511 212.138882 
L 775.143148 212.778455 
L 784.262784 213.418027 
L 793.38242 214.0576 
L 802.502057 214.697172 
L 811.621693 215.336744 
L 820.74133 215.976317 
L 829.860966 216.615889 
L 838.980602 217.255462 
L 848.100239 217.895034 
L 857.219875 218.534607 
L 866.339511 219.174179 
L 875.459148 219.813752 
L 884.578784 220.453324 
L 893.69842 221.092897 
L 902.818057 221.732469 
L 911.937693 222.372042 
L 921.05733 223.011614 
L 930.176966 223.651187 
L 939.296602 224.290759 
L 948.416239 224.930331 
L 957.535875 225.569904 
" clip-path="url(#p90dd01874d)" style="fill: none; stroke-dasharray: 1.5,2.475; stroke-dashoffset: 0; stroke: #48b585; stroke-width: 1.5"/>
   </g>
   <g id="line2d_48">
    <path d="M 54.691875 447.217131 
L 72.394699 447.924439 
L 90.097522 431.469224 
L 107.800346 478.659026 
L 125.503169 444.200765 
L 143.205993 487.898432 
L 160.908816 496.195819 
L 178.61164 478.316473 
L 196.314463 483.334235 
L 214.017287 427.729691 
L 231.72011 412.720809 
L 249.422934 428.24352 
L 267.125757 425.721951 
L 284.828581 442.710026 
L 302.531404 447.981531 
L 320.234228 446.405155 
L 337.937051 425.214466 
L 355.639875 435.151665 
L 373.342699 428.329158 
L 391.045522 424.779932 
L 408.748346 418.344382 
L 426.451169 423.422408 
L 444.153993 451.943089 
L 461.856816 453.275239 
L 479.55964 459.644181 
L 497.262463 482.899701 
L 514.965287 481.67222 
L 532.66811 460.03431 
L 550.370934 462.704952 
L 568.073757 456.621471 
L 585.776581 455.812666 
L 603.479404 454.721572 
L 621.182228 458.423044 
L 638.885051 450.277903 
L 656.587875 443.039892 
L 674.290699 449.767246 
L 691.993522 434.162069 
L 709.696346 444.92076 
L 727.399169 442.059811 
L 745.101993 443.315837 
L 762.804816 454.214087 
L 780.50764 440.24555 
L 798.210463 428.963515 
L 851.318934 437.647859 
L 869.021757 363.485207 
L 886.724581 305.038744 
L 904.427404 369.181731 
L 922.130228 340.724485 
L 939.833051 373.533418 
L 957.535875 336.375969 
" clip-path="url(#p90dd01874d)" style="fill: none; stroke: #4ac1fa; stroke-width: 1.5; stroke-linecap: square"/>
   </g>
   <g id="line2d_49">
    <path d="M 54.691875 448.117918 
L 72.394699 454.962628 
L 90.097522 448.092544 
L 107.800346 457.119441 
L 125.503169 403.960342 
L 143.205993 443.26826 
L 160.908816 476.451464 
L 178.61164 432.557146 
L 196.314463 443.461739 
L 214.017287 417.386503 
L 231.72011 420.488508 
L 249.422934 361.49967 
L 267.125757 412.885742 
L 284.828581 411.883458 
L 302.531404 426.847935 
L 320.234228 399.367599 
L 337.937051 404.328269 
L 355.639875 403.766863 
L 373.342699 393.696449 
L 391.045522 415.794268 
L 408.748346 421.39881 
L 426.451169 433.70216 
L 444.153993 429.391705 
L 461.856816 400.864681 
L 479.55964 372.439153 
L 497.262463 425.994725 
L 514.965287 408.162955 
L 532.66811 389.316215 
L 550.370934 343.829661 
L 568.073757 380.860239 
L 585.776581 368.43319 
L 603.479404 390.917966 
L 621.182228 388.815073 
L 638.885051 385.465669 
L 656.587875 379.693023 
L 674.290699 405.384473 
L 691.993522 376.556128 
L 709.696346 349.389799 
L 727.399169 384.752018 
L 745.101993 402.16194 
L 762.804816 421.877749 
L 780.50764 364.75392 
L 798.210463 327.897791 
L 851.318934 392.440422 
L 869.021757 368.312662 
L 886.724581 342.779801 
L 904.427404 330.010199 
L 922.130228 399.611826 
L 939.833051 418.049406 
L 957.535875 406.145701 
" clip-path="url(#p90dd01874d)" style="fill: none; stroke: #9a5689; stroke-width: 1.5; stroke-linecap: square"/>
   </g>
   <g id="line2d_50">
    <path d="M 54.691875 474.224872 
L 72.394699 480.44474 
L 90.097522 495.942077 
L 107.800346 520.713709 
L 125.503169 490.892596 
L 143.205993 482.664989 
L 160.908816 469.768515 
L 178.61164 474.386633 
L 196.314463 524.89412 
L 214.017287 550.315969 
L 231.72011 552.152432 
L 249.422934 550.779049 
L 267.125757 538.913406 
L 284.828581 523.615892 
L 302.531404 519.936622 
L 320.234228 472.588231 
L 337.937051 484.257224 
L 355.639875 520.723225 
L 373.342699 518.179454 
L 391.045522 514.252785 
L 408.748346 514.084681 
L 426.451169 504.509065 
L 444.153993 501.632257 
L 461.856816 484.932814 
L 479.55964 513.437637 
L 497.262463 496.329034 
L 514.965287 492.449942 
L 532.66811 487.425837 
L 550.370934 479.118934 
L 568.073757 479.873819 
L 585.776581 460.002592 
L 603.479404 493.328527 
L 621.182228 464.500182 
L 638.885051 500.043193 
L 656.587875 494.819265 
L 674.290699 507.950451 
L 691.993522 502.675774 
L 709.696346 502.142914 
L 727.399169 491.174885 
L 745.101993 495.678818 
L 762.804816 504.451973 
L 780.50764 473.454128 
L 798.210463 469.533803 
L 851.318934 476.851109 
L 869.021757 486.325228 
L 886.724581 484.590262 
L 904.427404 464.601679 
L 922.130228 475.591911 
L 939.833051 489.614368 
L 957.535875 459.523653 
" clip-path="url(#p90dd01874d)" style="fill: none; stroke: #be503b; stroke-width: 1.5; stroke-linecap: square"/>
   </g>
   <g id="line2d_51">
    <path d="M 54.691875 407.338292 
L 72.394699 386.144431 
L 90.097522 388.272698 
L 107.800346 381.047374 
L 125.503169 377.751891 
L 143.205993 385.294393 
L 160.908816 416.93611 
L 178.61164 370.260137 
L 196.314463 365.477087 
L 214.017287 374.475438 
L 231.72011 358.245419 
L 249.422934 370.171327 
L 267.125757 361.220553 
L 284.828581 375.442832 
L 302.531404 392.70368 
L 320.234228 337.07059 
L 337.937051 350.033671 
L 355.639875 345.951585 
L 373.342699 345.260136 
L 391.045522 346.132377 
L 408.748346 357.167013 
L 426.451169 347.921263 
L 444.153993 372.458183 
L 461.856816 362.387769 
L 479.55964 378.37356 
L 497.262463 434.812284 
L 514.965287 413.244153 
L 532.66811 385.380031 
L 550.370934 356.713448 
L 568.073757 344.20076 
L 585.776581 338.910224 
L 603.479404 333.362774 
L 621.182228 327.605986 
L 638.885051 326.981145 
L 656.587875 324.595963 
L 674.290699 342.906672 
L 691.993522 332.48419 
L 709.696346 327.022378 
L 727.399169 324.519841 
L 745.101993 334.371402 
L 762.804816 355.95222 
L 780.50764 319.058029 
L 798.210463 318.826488 
L 851.318934 341.599897 
L 869.021757 301.38802 
L 886.724581 319.476704 
L 904.427404 311.816846 
L 922.130228 308.476957 
L 939.833051 337.397284 
L 957.535875 273.593677 
" clip-path="url(#p90dd01874d)" style="fill: none; stroke: #e2321d; stroke-width: 1.5; stroke-linecap: square"/>
   </g>
   <g id="line2d_52">
    <path d="M 54.691875 216.250995 
L 72.394699 266.9139 
L 90.097522 211.521865 
L 107.800346 210.725748 
L 125.503169 251.721055 
L 143.205993 158.648227 
L 160.908816 159.955002 
L 178.61164 141.244648 
L 196.314463 127.263424 
L 214.017287 174.465913 
L 231.72011 85.043808 
L 249.422934 62.419473 
L 267.125757 49.285116 
L 284.828581 106.852995 
L 302.531404 149.58644 
L 320.234228 120.812016 
L 337.937051 202.434704 
L 355.639875 253.643156 
L 373.342699 258.337397 
L 391.045522 171.427344 
L 408.748346 185.059672 
L 426.451169 160.100904 
L 444.153993 168.75353 
L 461.856816 139.506511 
L 479.55964 147.64848 
L 497.262463 162.711282 
L 514.965287 205.695298 
L 532.66811 175.388902 
L 550.370934 214.173477 
L 568.073757 251.562466 
L 585.776581 291.339809 
L 603.479404 224.643536 
L 621.182228 230.968073 
L 638.885051 251.965283 
L 656.587875 222.67703 
L 674.290699 293.395125 
L 691.993522 212.162566 
L 709.696346 138.830921 
L 727.399169 226.597354 
L 745.101993 242.770281 
L 762.804816 263.028465 
L 780.50764 171.754038 
L 798.210463 241.752138 
L 851.318934 218.785251 
L 869.021757 251.346785 
L 886.724581 197.39474 
L 904.427404 160.922396 
L 922.130228 173.904508 
L 939.833051 230.777766 
L 957.535875 216.688701 
" clip-path="url(#p90dd01874d)" style="fill: none; stroke: #48b585; stroke-width: 6; stroke-linecap: square"/>
   </g>
   <g id="patch_3">
    <path d="M 54.691875 567.74175 
L 54.691875 24.14175 
" style="fill: none; stroke: #ffffff; stroke-linejoin: miter; stroke-linecap: square"/>
   </g>
   <g id="patch_4">
    <path d="M 957.535875 567.74175 
L 957.535875 24.14175 
" style="fill: none; stroke: #ffffff; stroke-linejoin: miter; stroke-linecap: square"/>
   </g>
   <g id="patch_5">
    <path d="M 54.691875 567.74175 
L 957.535875 567.74175 
" style="fill: none; stroke: #ffffff; stroke-linejoin: miter; stroke-linecap: square"/>
   </g>
   <g id="patch_6">
    <path d="M 54.691875 24.14175 
L 957.535875 24.14175 
" style="fill: none; stroke: #ffffff; stroke-linejoin: miter; stroke-linecap: square"/>
   </g>
   <g id="text_24">
    <!-- Potentially Ephemeral Enterprise Linux 8 and 9 Instances by Distribution -->
    <g transform="translate(244.4355 18.14175)scale(0.144 -0.144)">
     <defs>
      <path id="DejaVuSans-50" d="M 1259 4147 
L 1259 2394 
L 2053 2394 
Q 2494 2394 2734 2622 
Q 2975 2850 2975 3272 
Q 2975 3691 2734 3919 
Q 2494 4147 2053 4147 
L 1259 4147 
z
M 628 4666 
L 2053 4666 
Q 2838 4666 3239 4311 
Q 3641 3956 3641 3272 
Q 3641 2581 3239 2228 
Q 2838 1875 2053 1875 
L 1259 1875 
L 1259 0 
L 628 0 
L 628 4666 
z
" transform="scale(0.015625)"/>
      <path id="DejaVuSans-6f" d="M 1959 3097 
Q 1497 3097 1228 2736 
Q 959 2375 959 1747 
Q 959 1119 1226 758 
Q 1494 397 1959 397 
Q 2419 397 2687 759 
Q 2956 1122 2956 1747 
Q 2956 2369 2687 2733 
Q 2419 3097 1959 3097 
z
M 1959 3584 
Q 2709 3584 3137 3096 
Q 3566 2609 3566 1747 
Q 3566 888 3137 398 
Q 2709 -91 1959 -91 
Q 1206 -91 779 398 
Q 353 888 353 1747 
Q 353 2609 779 3096 
Q 1206 3584 1959 3584 
z
" transform="scale(0.015625)"/>
      <path id="DejaVuSans-69" d="M 603 3500 
L 1178 3500 
L 1178 0 
L 603 0 
L 603 3500 
z
M 603 4863 
L 1178 4863 
L 1178 4134 
L 603 4134 
L 603 4863 
z
" transform="scale(0.015625)"/>
      <path id="DejaVuSans-6c" d="M 603 4863 
L 1178 4863 
L 1178 0 
L 603 0 
L 603 4863 
z
" transform="scale(0.015625)"/>
      <path id="DejaVuSans-79" d="M 2059 -325 
Q 1816 -950 1584 -1140 
Q 1353 -1331 966 -1331 
L 506 -1331 
L 506 -850 
L 844 -850 
Q 1081 -850 1212 -737 
Q 1344 -625 1503 -206 
L 1606 56 
L 191 3500 
L 800 3500 
L 1894 763 
L 2988 3500 
L 3597 3500 
L 2059 -325 
z
" transform="scale(0.015625)"/>
      <path id="DejaVuSans-20" transform="scale(0.015625)"/>
      <path id="DejaVuSans-45" d="M 628 4666 
L 3578 4666 
L 3578 4134 
L 1259 4134 
L 1259 2753 
L 3481 2753 
L 3481 2222 
L 1259 2222 
L 1259 531 
L 3634 531 
L 3634 0 
L 628 0 
L 628 4666 
z
" transform="scale(0.015625)"/>
      <path id="DejaVuSans-70" d="M 1159 525 
L 1159 -1331 
L 581 -1331 
L 581 3500 
L 1159 3500 
L 1159 2969 
Q 1341 3281 1617 3432 
Q 1894 3584 2278 3584 
Q 2916 3584 3314 3078 
Q 3713 2572 3713 1747 
Q 3713 922 3314 415 
Q 2916 -91 2278 -91 
Q 1894 -91 1617 61 
Q 1341 213 1159 525 
z
M 3116 1747 
Q 3116 2381 2855 2742 
Q 2594 3103 2138 3103 
Q 1681 3103 1420 2742 
Q 1159 2381 1159 1747 
Q 1159 1113 1420 752 
Q 1681 391 2138 391 
Q 2594 391 2855 752 
Q 3116 1113 3116 1747 
z
" transform="scale(0.015625)"/>
      <path id="DejaVuSans-68" d="M 3513 2113 
L 3513 0 
L 2938 0 
L 2938 2094 
Q 2938 2591 2744 2837 
Q 2550 3084 2163 3084 
Q 1697 3084 1428 2787 
Q 1159 2491 1159 1978 
L 1159 0 
L 581 0 
L 581 4863 
L 1159 4863 
L 1159 2956 
Q 1366 3272 1645 3428 
Q 1925 3584 2291 3584 
Q 2894 3584 3203 3211 
Q 3513 2838 3513 2113 
z
" transform="scale(0.015625)"/>
      <path id="DejaVuSans-6d" d="M 3328 2828 
Q 3544 3216 3844 3400 
Q 4144 3584 4550 3584 
Q 5097 3584 5394 3201 
Q 5691 2819 5691 2113 
L 5691 0 
L 5113 0 
L 5113 2094 
Q 5113 2597 4934 2840 
Q 4756 3084 4391 3084 
Q 3944 3084 3684 2787 
Q 3425 2491 3425 1978 
L 3425 0 
L 2847 0 
L 2847 2094 
Q 2847 2600 2669 2842 
Q 2491 3084 2119 3084 
Q 1678 3084 1418 2786 
Q 1159 2488 1159 1978 
L 1159 0 
L 581 0 
L 581 3500 
L 1159 3500 
L 1159 2956 
Q 1356 3278 1631 3431 
Q 1906 3584 2284 3584 
Q 2666 3584 2933 3390 
Q 3200 3197 3328 2828 
z
" transform="scale(0.015625)"/>
      <path id="DejaVuSans-72" d="M 2631 2963 
Q 2534 3019 2420 3045 
Q 2306 3072 2169 3072 
Q 1681 3072 1420 2755 
Q 1159 2438 1159 1844 
L 1159 0 
L 581 0 
L 581 3500 
L 1159 3500 
L 1159 2956 
Q 1341 3275 1631 3429 
Q 1922 3584 2338 3584 
Q 2397 3584 2469 3576 
Q 2541 3569 2628 3553 
L 2631 2963 
z
" transform="scale(0.015625)"/>
      <path id="DejaVuSans-4c" d="M 628 4666 
L 1259 4666 
L 1259 531 
L 3531 531 
L 3531 0 
L 628 0 
L 628 4666 
z
" transform="scale(0.015625)"/>
      <path id="DejaVuSans-75" d="M 544 1381 
L 544 3500 
L 1119 3500 
L 1119 1403 
Q 1119 906 1312 657 
Q 1506 409 1894 409 
Q 2359 409 2629 706 
Q 2900 1003 2900 1516 
L 2900 3500 
L 3475 3500 
L 3475 0 
L 2900 0 
L 2900 538 
Q 2691 219 2414 64 
Q 2138 -91 1772 -91 
Q 1169 -91 856 284 
Q 544 659 544 1381 
z
M 1991 3584 
L 1991 3584 
z
" transform="scale(0.015625)"/>
      <path id="DejaVuSans-78" d="M 3513 3500 
L 2247 1797 
L 3578 0 
L 2900 0 
L 1881 1375 
L 863 0 
L 184 0 
L 1544 1831 
L 300 3500 
L 978 3500 
L 1906 2253 
L 2834 3500 
L 3513 3500 
z
" transform="scale(0.015625)"/>
      <path id="DejaVuSans-64" d="M 2906 2969 
L 2906 4863 
L 3481 4863 
L 3481 0 
L 2906 0 
L 2906 525 
Q 2725 213 2448 61 
Q 2172 -91 1784 -91 
Q 1150 -91 751 415 
Q 353 922 353 1747 
Q 353 2572 751 3078 
Q 1150 3584 1784 3584 
Q 2172 3584 2448 3432 
Q 2725 3281 2906 2969 
z
M 947 1747 
Q 947 1113 1208 752 
Q 1469 391 1925 391 
Q 2381 391 2643 752 
Q 2906 1113 2906 1747 
Q 2906 2381 2643 2742 
Q 2381 3103 1925 3103 
Q 1469 3103 1208 2742 
Q 947 2381 947 1747 
z
" transform="scale(0.015625)"/>
      <path id="DejaVuSans-62" d="M 3116 1747 
Q 3116 2381 2855 2742 
Q 2594 3103 2138 3103 
Q 1681 3103 1420 2742 
Q 1159 2381 1159 1747 
Q 1159 1113 1420 752 
Q 1681 391 2138 391 
Q 2594 391 2855 752 
Q 3116 1113 3116 1747 
z
M 1159 2969 
Q 1341 3281 1617 3432 
Q 1894 3584 2278 3584 
Q 2916 3584 3314 3078 
Q 3713 2572 3713 1747 
Q 3713 922 3314 415 
Q 2916 -91 2278 -91 
Q 1894 -91 1617 61 
Q 1341 213 1159 525 
L 1159 0 
L 581 0 
L 581 4863 
L 1159 4863 
L 1159 2969 
z
" transform="scale(0.015625)"/>
     </defs>
     <use xlink:href="#DejaVuSans-50"/>
     <use xlink:href="#DejaVuSans-6f" x="56.677734"/>
     <use xlink:href="#DejaVuSans-74" x="117.859375"/>
     <use xlink:href="#DejaVuSans-65" x="157.068359"/>
     <use xlink:href="#DejaVuSans-6e" x="218.591797"/>
     <use xlink:href="#DejaVuSans-74" x="281.970703"/>
     <use xlink:href="#DejaVuSans-69" x="321.179688"/>
     <use xlink:href="#DejaVuSans-61" x="348.962891"/>
     <use xlink:href="#DejaVuSans-6c" x="410.242188"/>
     <use xlink:href="#DejaVuSans-6c" x="438.025391"/>
     <use xlink:href="#DejaVuSans-79" x="465.808594"/>
     <use xlink:href="#DejaVuSans-20" x="524.988281"/>
     <use xlink:href="#DejaVuSans-45" x="556.775391"/>
     <use xlink:href="#DejaVuSans-70" x="619.958984"/>
     <use xlink:href="#DejaVuSans-68" x="683.435547"/>
     <use xlink:href="#DejaVuSans-65" x="746.814453"/>
     <use xlink:href="#DejaVuSans-6d" x="808.337891"/>
     <use xlink:href="#DejaVuSans-65" x="905.75"/>
     <use xlink:href="#DejaVuSans-72" x="967.273438"/>
     <use xlink:href="#DejaVuSans-61" x="1008.386719"/>
     <use xlink:href="#DejaVuSans-6c" x="1069.666016"/>
     <use xlink:href="#DejaVuSans-20" x="1097.449219"/>
     <use xlink:href="#DejaVuSans-45" x="1129.236328"/>
     <use xlink:href="#DejaVuSans-6e" x="1192.419922"/>
     <use xlink:href="#DejaVuSans-74" x="1255.798828"/>
     <use xlink:href="#DejaVuSans-65" x="1295.007812"/>
     <use xlink:href="#DejaVuSans-72" x="1356.53125"/>
     <use xlink:href="#DejaVuSans-70" x="1397.644531"/>
     <use xlink:href="#DejaVuSans-72" x="1461.121094"/>
     <use xlink:href="#DejaVuSans-69" x="1502.234375"/>
     <use xlink:href="#DejaVuSans-73" x="1530.017578"/>
     <use xlink:href="#DejaVuSans-65" x="1582.117188"/>
     <use xlink:href="#DejaVuSans-20" x="1643.640625"/>
     <use xlink:href="#DejaVuSans-4c" x="1675.427734"/>
     <use xlink:href="#DejaVuSans-69" x="1731.140625"/>
     <use xlink:href="#DejaVuSans-6e" x="1758.923828"/>
     <use xlink:href="#DejaVuSans-75" x="1822.302734"/>
     <use xlink:href="#DejaVuSans-78" x="1885.681641"/>
     <use xlink:href="#DejaVuSans-20" x="1944.861328"/>
     <use xlink:href="#DejaVuSans-38" x="1976.648438"/>
     <use xlink:href="#DejaVuSans-20" x="2040.271484"/>
     <use xlink:href="#DejaVuSans-61" x="2072.058594"/>
     <use xlink:href="#DejaVuSans-6e" x="2133.337891"/>
     <use xlink:href="#DejaVuSans-64" x="2196.716797"/>
     <use xlink:href="#DejaVuSans-20" x="2260.193359"/>
     <use xlink:href="#DejaVuSans-39" x="2291.980469"/>
     <use xlink:href="#DejaVuSans-20" x="2355.603516"/>
     <use xlink:href="#DejaVuSans-49" x="2387.390625"/>
     <use xlink:href="#DejaVuSans-6e" x="2416.882812"/>
     <use xlink:href="#DejaVuSans-73" x="2480.261719"/>
     <use xlink:href="#DejaVuSans-74" x="2532.361328"/>
     <use xlink:href="#DejaVuSans-61" x="2571.570312"/>
     <use xlink:href="#DejaVuSans-6e" x="2632.849609"/>
     <use xlink:href="#DejaVuSans-63" x="2696.228516"/>
     <use xlink:href="#DejaVuSans-65" x="2751.208984"/>
     <use xlink:href="#DejaVuSans-73" x="2812.732422"/>
     <use xlink:href="#DejaVuSans-20" x="2864.832031"/>
     <use xlink:href="#DejaVuSans-62" x="2896.619141"/>
     <use xlink:href="#DejaVuSans-79" x="2960.095703"/>
     <use xlink:href="#DejaVuSans-20" x="3019.275391"/>
     <use xlink:href="#DejaVuSans-44" x="3051.0625"/>
     <use xlink:href="#DejaVuSans-69" x="3128.064453"/>
     <use xlink:href="#DejaVuSans-73" x="3155.847656"/>
     <use xlink:href="#DejaVuSans-74" x="3207.947266"/>
     <use xlink:href="#DejaVuSans-72" x="3247.15625"/>
     <use xlink:href="#DejaVuSans-69" x="3288.269531"/>
     <use xlink:href="#DejaVuSans-62" x="3316.052734"/>
     <use xlink:href="#DejaVuSans-75" x="3379.529297"/>
     <use xlink:href="#DejaVuSans-74" x="3442.908203"/>
     <use xlink:href="#DejaVuSans-69" x="3482.117188"/>
     <use xlink:href="#DejaVuSans-6f" x="3509.900391"/>
     <use xlink:href="#DejaVuSans-6e" x="3571.082031"/>
    </g>
   </g>
   <g id="legend_1">
    <g id="patch_7">
     <path d="M 61.691875 120.2105 
L 170.660625 120.2105 
Q 172.660625 120.2105 172.660625 118.2105 
L 172.660625 31.14175 
Q 172.660625 29.14175 170.660625 29.14175 
L 61.691875 29.14175 
Q 59.691875 29.14175 59.691875 31.14175 
L 59.691875 118.2105 
Q 59.691875 120.2105 61.691875 120.2105 
z
" style="fill: #e5e5e5; opacity: 0.8; stroke: #cccccc; stroke-width: 0.5; stroke-linejoin: miter"/>
    </g>
    <g id="text_25">
     <!-- Distribution -->
     <g transform="translate(87.0075 40.740187)scale(0.1 -0.1)">
      <use xlink:href="#DejaVuSans-44"/>
      <use xlink:href="#DejaVuSans-69" x="77.001953"/>
      <use xlink:href="#DejaVuSans-73" x="104.785156"/>
      <use xlink:href="#DejaVuSans-74" x="156.884766"/>
      <use xlink:href="#DejaVuSans-72" x="196.09375"/>
      <use xlink:href="#DejaVuSans-69" x="237.207031"/>
      <use xlink:href="#DejaVuSans-62" x="264.990234"/>
      <use xlink:href="#DejaVuSans-75" x="328.466797"/>
      <use xlink:href="#DejaVuSans-74" x="391.845703"/>
      <use xlink:href="#DejaVuSans-69" x="431.054688"/>
      <use xlink:href="#DejaVuSans-6f" x="458.837891"/>
      <use xlink:href="#DejaVuSans-6e" x="520.019531"/>
     </g>
    </g>
    <g id="line2d_53">
     <path d="M 63.691875 51.918312 
L 73.691875 51.918312 
L 83.691875 51.918312 
" style="fill: none; stroke: #4ac1fa; stroke-width: 1.5; stroke-linecap: square"/>
    </g>
    <g id="text_26">
     <!-- AlmaLinux -->
     <g transform="translate(91.691875 55.418312)scale(0.1 -0.1)">
      <defs>
       <path id="DejaVuSans-41" d="M 2188 4044 
L 1331 1722 
L 3047 1722 
L 2188 4044 
z
M 1831 4666 
L 2547 4666 
L 4325 0 
L 3669 0 
L 3244 1197 
L 1141 1197 
L 716 0 
L 50 0 
L 1831 4666 
z
" transform="scale(0.015625)"/>
      </defs>
      <use xlink:href="#DejaVuSans-41"/>
      <use xlink:href="#DejaVuSans-6c" x="68.408203"/>
      <use xlink:href="#DejaVuSans-6d" x="96.191406"/>
      <use xlink:href="#DejaVuSans-61" x="193.603516"/>
      <use xlink:href="#DejaVuSans-4c" x="254.882812"/>
      <use xlink:href="#DejaVuSans-69" x="310.595703"/>
      <use xlink:href="#DejaVuSans-6e" x="338.378906"/>
      <use xlink:href="#DejaVuSans-75" x="401.757812"/>
      <use xlink:href="#DejaVuSans-78" x="465.136719"/>
     </g>
    </g>
    <g id="line2d_54">
     <path d="M 63.691875 66.596437 
L 73.691875 66.596437 
L 83.691875 66.596437 
" style="fill: none; stroke: #9a5689; stroke-width: 1.5; stroke-linecap: square"/>
    </g>
    <g id="text_27">
     <!-- CentOS Stream -->
     <g transform="translate(91.691875 70.096437)scale(0.1 -0.1)">
      <defs>
       <path id="DejaVuSans-43" d="M 4122 4306 
L 4122 3641 
Q 3803 3938 3442 4084 
Q 3081 4231 2675 4231 
Q 1875 4231 1450 3742 
Q 1025 3253 1025 2328 
Q 1025 1406 1450 917 
Q 1875 428 2675 428 
Q 3081 428 3442 575 
Q 3803 722 4122 1019 
L 4122 359 
Q 3791 134 3420 21 
Q 3050 -91 2638 -91 
Q 1578 -91 968 557 
Q 359 1206 359 2328 
Q 359 3453 968 4101 
Q 1578 4750 2638 4750 
Q 3056 4750 3426 4639 
Q 3797 4528 4122 4306 
z
" transform="scale(0.015625)"/>
       <path id="DejaVuSans-4f" d="M 2522 4238 
Q 1834 4238 1429 3725 
Q 1025 3213 1025 2328 
Q 1025 1447 1429 934 
Q 1834 422 2522 422 
Q 3209 422 3611 934 
Q 4013 1447 4013 2328 
Q 4013 3213 3611 3725 
Q 3209 4238 2522 4238 
z
M 2522 4750 
Q 3503 4750 4090 4092 
Q 4678 3434 4678 2328 
Q 4678 1225 4090 567 
Q 3503 -91 2522 -91 
Q 1538 -91 948 565 
Q 359 1222 359 2328 
Q 359 3434 948 4092 
Q 1538 4750 2522 4750 
z
" transform="scale(0.015625)"/>
       <path id="DejaVuSans-53" d="M 3425 4513 
L 3425 3897 
Q 3066 4069 2747 4153 
Q 2428 4238 2131 4238 
Q 1616 4238 1336 4038 
Q 1056 3838 1056 3469 
Q 1056 3159 1242 3001 
Q 1428 2844 1947 2747 
L 2328 2669 
Q 3034 2534 3370 2195 
Q 3706 1856 3706 1288 
Q 3706 609 3251 259 
Q 2797 -91 1919 -91 
Q 1588 -91 1214 -16 
Q 841 59 441 206 
L 441 856 
Q 825 641 1194 531 
Q 1563 422 1919 422 
Q 2459 422 2753 634 
Q 3047 847 3047 1241 
Q 3047 1584 2836 1778 
Q 2625 1972 2144 2069 
L 1759 2144 
Q 1053 2284 737 2584 
Q 422 2884 422 3419 
Q 422 4038 858 4394 
Q 1294 4750 2059 4750 
Q 2388 4750 2728 4690 
Q 3069 4631 3425 4513 
z
" transform="scale(0.015625)"/>
      </defs>
      <use xlink:href="#DejaVuSans-43"/>
      <use xlink:href="#DejaVuSans-65" x="69.824219"/>
      <use xlink:href="#DejaVuSans-6e" x="131.347656"/>
      <use xlink:href="#DejaVuSans-74" x="194.726562"/>
      <use xlink:href="#DejaVuSans-4f" x="233.935547"/>
      <use xlink:href="#DejaVuSans-53" x="312.646484"/>
      <use xlink:href="#DejaVuSans-20" x="376.123047"/>
      <use xlink:href="#DejaVuSans-53" x="407.910156"/>
      <use xlink:href="#DejaVuSans-74" x="471.386719"/>
      <use xlink:href="#DejaVuSans-72" x="510.595703"/>
      <use xlink:href="#DejaVuSans-65" x="549.458984"/>
      <use xlink:href="#DejaVuSans-61" x="610.982422"/>
      <use xlink:href="#DejaVuSans-6d" x="672.261719"/>
     </g>
    </g>
    <g id="line2d_55">
     <path d="M 63.691875 81.274563 
L 73.691875 81.274563 
L 83.691875 81.274563 
" style="fill: none; stroke: #be503b; stroke-width: 1.5; stroke-linecap: square"/>
    </g>
    <g id="text_28">
     <!-- Oracle -->
     <g transform="translate(91.691875 84.774563)scale(0.1 -0.1)">
      <use xlink:href="#DejaVuSans-4f"/>
      <use xlink:href="#DejaVuSans-72" x="78.710938"/>
      <use xlink:href="#DejaVuSans-61" x="119.824219"/>
      <use xlink:href="#DejaVuSans-63" x="181.103516"/>
      <use xlink:href="#DejaVuSans-6c" x="236.083984"/>
      <use xlink:href="#DejaVuSans-65" x="263.867188"/>
     </g>
    </g>
    <g id="line2d_56">
     <path d="M 63.691875 95.952687 
L 73.691875 95.952687 
L 83.691875 95.952687 
" style="fill: none; stroke: #e2321d; stroke-width: 1.5; stroke-linecap: square"/>
    </g>
    <g id="text_29">
     <!-- RHEL -->
     <g transform="translate(91.691875 99.452687)scale(0.1 -0.1)">
      <defs>
       <path id="DejaVuSans-52" d="M 2841 2188 
Q 3044 2119 3236 1894 
Q 3428 1669 3622 1275 
L 4263 0 
L 3584 0 
L 2988 1197 
Q 2756 1666 2539 1819 
Q 2322 1972 1947 1972 
L 1259 1972 
L 1259 0 
L 628 0 
L 628 4666 
L 2053 4666 
Q 2853 4666 3247 4331 
Q 3641 3997 3641 3322 
Q 3641 2881 3436 2590 
Q 3231 2300 2841 2188 
z
M 1259 4147 
L 1259 2491 
L 2053 2491 
Q 2509 2491 2742 2702 
Q 2975 2913 2975 3322 
Q 2975 3731 2742 3939 
Q 2509 4147 2053 4147 
L 1259 4147 
z
" transform="scale(0.015625)"/>
       <path id="DejaVuSans-48" d="M 628 4666 
L 1259 4666 
L 1259 2753 
L 3553 2753 
L 3553 4666 
L 4184 4666 
L 4184 0 
L 3553 0 
L 3553 2222 
L 1259 2222 
L 1259 0 
L 628 0 
L 628 4666 
z
" transform="scale(0.015625)"/>
      </defs>
      <use xlink:href="#DejaVuSans-52"/>
      <use xlink:href="#DejaVuSans-48" x="69.482422"/>
      <use xlink:href="#DejaVuSans-45" x="144.677734"/>
      <use xlink:href="#DejaVuSans-4c" x="207.861328"/>
     </g>
    </g>
    <g id="line2d_57">
     <path d="M 63.691875 110.630812 
L 73.691875 110.630812 
L 83.691875 110.630812 
" style="fill: none; stroke: #48b585; stroke-width: 6; stroke-linecap: square"/>
    </g>
    <g id="text_30">
     <!-- Rocky Linux -->
     <g transform="translate(91.691875 114.130812)scale(0.1 -0.1)">
      <use xlink:href="#DejaVuSans-52"/>
      <use xlink:href="#DejaVuSans-6f" x="64.982422"/>
      <use xlink:href="#DejaVuSans-63" x="126.164062"/>
      <use xlink:href="#DejaVuSans-6b" x="181.144531"/>
      <use xlink:href="#DejaVuSans-79" x="235.429688"/>
      <use xlink:href="#DejaVuSans-20" x="294.609375"/>
      <use xlink:href="#DejaVuSans-4c" x="326.396484"/>
      <use xlink:href="#DejaVuSans-69" x="382.109375"/>
      <use xlink:href="#DejaVuSans-6e" x="409.892578"/>
      <use xlink:href="#DejaVuSans-75" x="473.271484"/>
      <use xlink:href="#DejaVuSans-78" x="536.650391"/>
     </g>
    </g>
   </g>
  </g>
 </g>
 <defs>
  <clipPath id="p90dd01874d">
   <rect x="54.691875" y="24.14175" width="902.844" height="543.6"/>
  </clipPath>
 </defs>
</svg>
