<?xml version="1.0" encoding="utf-8" standalone="no"?>
<!DOCTYPE svg PUBLIC "-//W3C//DTD SVG 1.1//EN"
  "http://www.w3.org/Graphics/SVG/1.1/DTD/svg11.dtd">
<svg xmlns:xlink="http://www.w3.org/1999/xlink" width="962.123375pt" height="633.943878pt" viewBox="0 0 962.123375 633.943878" xmlns="http://www.w3.org/2000/svg" version="1.1">
 <metadata>
  <rdf:RDF xmlns:dc="http://purl.org/dc/elements/1.1/" xmlns:cc="http://creativecommons.org/ns#" xmlns:rdf="http://www.w3.org/1999/02/22-rdf-syntax-ns#">
   <cc:Work>
    <dc:type rdf:resource="http://purl.org/dc/dcmitype/StillImage"/>
    <dc:date>2023-07-06T11:49:49.898479</dc:date>
    <dc:format>image/svg+xml</dc:format>
    <dc:creator>
     <cc:Agent>
      <dc:title>Matplotlib v3.5.1, https://matplotlib.org/</dc:title>
     </cc:Agent>
    </dc:creator>
   </cc:Work>
  </rdf:RDF>
 </metadata>
 <defs>
  <style type="text/css">*{stroke-linejoin: round; stroke-linecap: butt}</style>
 </defs>
 <g id="figure_1">
  <g id="patch_1">
   <path d="M 0 633.943878 
L 962.123375 633.943878 
L 962.123375 0 
L 0 0 
z
" style="fill: #ffffff"/>
  </g>
  <g id="axes_1">
   <g id="patch_2">
    <path d="M 52.079375 567.74175 
L 954.923375 567.74175 
L 954.923375 24.14175 
L 52.079375 24.14175 
z
" style="fill: #e5e5e5"/>
   </g>
   <g id="matplotlib.axis_1">
    <g id="xtick_1">
     <g id="line2d_1">
      <path d="M 74.840148 567.74175 
L 74.840148 24.14175 
" clip-path="url(#pa22135d276)" style="fill: none; stroke: #ffffff; stroke-width: 0.8; stroke-linecap: square"/>
     </g>
     <g id="line2d_2">
      <defs>
       <path id="m284892e86b" d="M 0 0 
L 0 3.5 
" style="stroke: #555555; stroke-width: 0.8"/>
      </defs>
      <g>
       <use xlink:href="#m284892e86b" x="74.840148" y="567.74175" style="fill: #555555; stroke: #555555; stroke-width: 0.8"/>
      </g>
     </g>
     <g id="text_1">
      <!-- 2022-07 -->
      <g style="fill: #555555" transform="translate(62.018866 609.659567)rotate(-45)scale(0.1 -0.1)">
       <defs>
        <path id="DejaVuSans-32" d="M 1228 531 
L 3431 531 
L 3431 0 
L 469 0 
L 469 531 
Q 828 903 1448 1529 
Q 2069 2156 2228 2338 
Q 2531 2678 2651 2914 
Q 2772 3150 2772 3378 
Q 2772 3750 2511 3984 
Q 2250 4219 1831 4219 
Q 1534 4219 1204 4116 
Q 875 4013 500 3803 
L 500 4441 
Q 881 4594 1212 4672 
Q 1544 4750 1819 4750 
Q 2544 4750 2975 4387 
Q 3406 4025 3406 3419 
Q 3406 3131 3298 2873 
Q 3191 2616 2906 2266 
Q 2828 2175 2409 1742 
Q 1991 1309 1228 531 
z
" transform="scale(0.015625)"/>
        <path id="DejaVuSans-30" d="M 2034 4250 
Q 1547 4250 1301 3770 
Q 1056 3291 1056 2328 
Q 1056 1369 1301 889 
Q 1547 409 2034 409 
Q 2525 409 2770 889 
Q 3016 1369 3016 2328 
Q 3016 3291 2770 3770 
Q 2525 4250 2034 4250 
z
M 2034 4750 
Q 2819 4750 3233 4129 
Q 3647 3509 3647 2328 
Q 3647 1150 3233 529 
Q 2819 -91 2034 -91 
Q 1250 -91 836 529 
Q 422 1150 422 2328 
Q 422 3509 836 4129 
Q 1250 4750 2034 4750 
z
" transform="scale(0.015625)"/>
        <path id="DejaVuSans-2d" d="M 313 2009 
L 1997 2009 
L 1997 1497 
L 313 1497 
L 313 2009 
z
" transform="scale(0.015625)"/>
        <path id="DejaVuSans-37" d="M 525 4666 
L 3525 4666 
L 3525 4397 
L 1831 0 
L 1172 0 
L 2766 4134 
L 525 4134 
L 525 4666 
z
" transform="scale(0.015625)"/>
       </defs>
       <use xlink:href="#DejaVuSans-32"/>
       <use xlink:href="#DejaVuSans-30" x="63.623047"/>
       <use xlink:href="#DejaVuSans-32" x="127.246094"/>
       <use xlink:href="#DejaVuSans-32" x="190.869141"/>
       <use xlink:href="#DejaVuSans-2d" x="254.492188"/>
       <use xlink:href="#DejaVuSans-30" x="290.576172"/>
       <use xlink:href="#DejaVuSans-37" x="354.199219"/>
      </g>
     </g>
    </g>
    <g id="xtick_2">
     <g id="line2d_3">
      <path d="M 153.238367 567.74175 
L 153.238367 24.14175 
" clip-path="url(#pa22135d276)" style="fill: none; stroke: #ffffff; stroke-width: 0.8; stroke-linecap: square"/>
     </g>
     <g id="line2d_4">
      <g>
       <use xlink:href="#m284892e86b" x="153.238367" y="567.74175" style="fill: #555555; stroke: #555555; stroke-width: 0.8"/>
      </g>
     </g>
     <g id="text_2">
      <!-- 2022-08 -->
      <g style="fill: #555555" transform="translate(140.417084 609.659567)rotate(-45)scale(0.1 -0.1)">
       <defs>
        <path id="DejaVuSans-38" d="M 2034 2216 
Q 1584 2216 1326 1975 
Q 1069 1734 1069 1313 
Q 1069 891 1326 650 
Q 1584 409 2034 409 
Q 2484 409 2743 651 
Q 3003 894 3003 1313 
Q 3003 1734 2745 1975 
Q 2488 2216 2034 2216 
z
M 1403 2484 
Q 997 2584 770 2862 
Q 544 3141 544 3541 
Q 544 4100 942 4425 
Q 1341 4750 2034 4750 
Q 2731 4750 3128 4425 
Q 3525 4100 3525 3541 
Q 3525 3141 3298 2862 
Q 3072 2584 2669 2484 
Q 3125 2378 3379 2068 
Q 3634 1759 3634 1313 
Q 3634 634 3220 271 
Q 2806 -91 2034 -91 
Q 1263 -91 848 271 
Q 434 634 434 1313 
Q 434 1759 690 2068 
Q 947 2378 1403 2484 
z
M 1172 3481 
Q 1172 3119 1398 2916 
Q 1625 2713 2034 2713 
Q 2441 2713 2670 2916 
Q 2900 3119 2900 3481 
Q 2900 3844 2670 4047 
Q 2441 4250 2034 4250 
Q 1625 4250 1398 4047 
Q 1172 3844 1172 3481 
z
" transform="scale(0.015625)"/>
       </defs>
       <use xlink:href="#DejaVuSans-32"/>
       <use xlink:href="#DejaVuSans-30" x="63.623047"/>
       <use xlink:href="#DejaVuSans-32" x="127.246094"/>
       <use xlink:href="#DejaVuSans-32" x="190.869141"/>
       <use xlink:href="#DejaVuSans-2d" x="254.492188"/>
       <use xlink:href="#DejaVuSans-30" x="290.576172"/>
       <use xlink:href="#DejaVuSans-38" x="354.199219"/>
      </g>
     </g>
    </g>
    <g id="xtick_3">
     <g id="line2d_5">
      <path d="M 231.636585 567.74175 
L 231.636585 24.14175 
" clip-path="url(#pa22135d276)" style="fill: none; stroke: #ffffff; stroke-width: 0.8; stroke-linecap: square"/>
     </g>
     <g id="line2d_6">
      <g>
       <use xlink:href="#m284892e86b" x="231.636585" y="567.74175" style="fill: #555555; stroke: #555555; stroke-width: 0.8"/>
      </g>
     </g>
     <g id="text_3">
      <!-- 2022-09 -->
      <g style="fill: #555555" transform="translate(218.815303 609.659567)rotate(-45)scale(0.1 -0.1)">
       <defs>
        <path id="DejaVuSans-39" d="M 703 97 
L 703 672 
Q 941 559 1184 500 
Q 1428 441 1663 441 
Q 2288 441 2617 861 
Q 2947 1281 2994 2138 
Q 2813 1869 2534 1725 
Q 2256 1581 1919 1581 
Q 1219 1581 811 2004 
Q 403 2428 403 3163 
Q 403 3881 828 4315 
Q 1253 4750 1959 4750 
Q 2769 4750 3195 4129 
Q 3622 3509 3622 2328 
Q 3622 1225 3098 567 
Q 2575 -91 1691 -91 
Q 1453 -91 1209 -44 
Q 966 3 703 97 
z
M 1959 2075 
Q 2384 2075 2632 2365 
Q 2881 2656 2881 3163 
Q 2881 3666 2632 3958 
Q 2384 4250 1959 4250 
Q 1534 4250 1286 3958 
Q 1038 3666 1038 3163 
Q 1038 2656 1286 2365 
Q 1534 2075 1959 2075 
z
" transform="scale(0.015625)"/>
       </defs>
       <use xlink:href="#DejaVuSans-32"/>
       <use xlink:href="#DejaVuSans-30" x="63.623047"/>
       <use xlink:href="#DejaVuSans-32" x="127.246094"/>
       <use xlink:href="#DejaVuSans-32" x="190.869141"/>
       <use xlink:href="#DejaVuSans-2d" x="254.492188"/>
       <use xlink:href="#DejaVuSans-30" x="290.576172"/>
       <use xlink:href="#DejaVuSans-39" x="354.199219"/>
      </g>
     </g>
    </g>
    <g id="xtick_4">
     <g id="line2d_7">
      <path d="M 307.505829 567.74175 
L 307.505829 24.14175 
" clip-path="url(#pa22135d276)" style="fill: none; stroke: #ffffff; stroke-width: 0.8; stroke-linecap: square"/>
     </g>
     <g id="line2d_8">
      <g>
       <use xlink:href="#m284892e86b" x="307.505829" y="567.74175" style="fill: #555555; stroke: #555555; stroke-width: 0.8"/>
      </g>
     </g>
     <g id="text_4">
      <!-- 2022-10 -->
      <g style="fill: #555555" transform="translate(294.684547 609.659567)rotate(-45)scale(0.1 -0.1)">
       <defs>
        <path id="DejaVuSans-31" d="M 794 531 
L 1825 531 
L 1825 4091 
L 703 3866 
L 703 4441 
L 1819 4666 
L 2450 4666 
L 2450 531 
L 3481 531 
L 3481 0 
L 794 0 
L 794 531 
z
" transform="scale(0.015625)"/>
       </defs>
       <use xlink:href="#DejaVuSans-32"/>
       <use xlink:href="#DejaVuSans-30" x="63.623047"/>
       <use xlink:href="#DejaVuSans-32" x="127.246094"/>
       <use xlink:href="#DejaVuSans-32" x="190.869141"/>
       <use xlink:href="#DejaVuSans-2d" x="254.492188"/>
       <use xlink:href="#DejaVuSans-31" x="290.576172"/>
       <use xlink:href="#DejaVuSans-30" x="354.199219"/>
      </g>
     </g>
    </g>
    <g id="xtick_5">
     <g id="line2d_9">
      <path d="M 385.904047 567.74175 
L 385.904047 24.14175 
" clip-path="url(#pa22135d276)" style="fill: none; stroke: #ffffff; stroke-width: 0.8; stroke-linecap: square"/>
     </g>
     <g id="line2d_10">
      <g>
       <use xlink:href="#m284892e86b" x="385.904047" y="567.74175" style="fill: #555555; stroke: #555555; stroke-width: 0.8"/>
      </g>
     </g>
     <g id="text_5">
      <!-- 2022-11 -->
      <g style="fill: #555555" transform="translate(373.082765 609.659567)rotate(-45)scale(0.1 -0.1)">
       <use xlink:href="#DejaVuSans-32"/>
       <use xlink:href="#DejaVuSans-30" x="63.623047"/>
       <use xlink:href="#DejaVuSans-32" x="127.246094"/>
       <use xlink:href="#DejaVuSans-32" x="190.869141"/>
       <use xlink:href="#DejaVuSans-2d" x="254.492188"/>
       <use xlink:href="#DejaVuSans-31" x="290.576172"/>
       <use xlink:href="#DejaVuSans-31" x="354.199219"/>
      </g>
     </g>
    </g>
    <g id="xtick_6">
     <g id="line2d_11">
      <path d="M 461.773291 567.74175 
L 461.773291 24.14175 
" clip-path="url(#pa22135d276)" style="fill: none; stroke: #ffffff; stroke-width: 0.8; stroke-linecap: square"/>
     </g>
     <g id="line2d_12">
      <g>
       <use xlink:href="#m284892e86b" x="461.773291" y="567.74175" style="fill: #555555; stroke: #555555; stroke-width: 0.8"/>
      </g>
     </g>
     <g id="text_6">
      <!-- 2022-12 -->
      <g style="fill: #555555" transform="translate(448.952009 609.659567)rotate(-45)scale(0.1 -0.1)">
       <use xlink:href="#DejaVuSans-32"/>
       <use xlink:href="#DejaVuSans-30" x="63.623047"/>
       <use xlink:href="#DejaVuSans-32" x="127.246094"/>
       <use xlink:href="#DejaVuSans-32" x="190.869141"/>
       <use xlink:href="#DejaVuSans-2d" x="254.492188"/>
       <use xlink:href="#DejaVuSans-31" x="290.576172"/>
       <use xlink:href="#DejaVuSans-32" x="354.199219"/>
      </g>
     </g>
    </g>
    <g id="xtick_7">
     <g id="line2d_13">
      <path d="M 540.171509 567.74175 
L 540.171509 24.14175 
" clip-path="url(#pa22135d276)" style="fill: none; stroke: #ffffff; stroke-width: 0.8; stroke-linecap: square"/>
     </g>
     <g id="line2d_14">
      <g>
       <use xlink:href="#m284892e86b" x="540.171509" y="567.74175" style="fill: #555555; stroke: #555555; stroke-width: 0.8"/>
      </g>
     </g>
     <g id="text_7">
      <!-- 2023-01 -->
      <g style="fill: #555555" transform="translate(527.350227 609.659567)rotate(-45)scale(0.1 -0.1)">
       <defs>
        <path id="DejaVuSans-33" d="M 2597 2516 
Q 3050 2419 3304 2112 
Q 3559 1806 3559 1356 
Q 3559 666 3084 287 
Q 2609 -91 1734 -91 
Q 1441 -91 1130 -33 
Q 819 25 488 141 
L 488 750 
Q 750 597 1062 519 
Q 1375 441 1716 441 
Q 2309 441 2620 675 
Q 2931 909 2931 1356 
Q 2931 1769 2642 2001 
Q 2353 2234 1838 2234 
L 1294 2234 
L 1294 2753 
L 1863 2753 
Q 2328 2753 2575 2939 
Q 2822 3125 2822 3475 
Q 2822 3834 2567 4026 
Q 2313 4219 1838 4219 
Q 1578 4219 1281 4162 
Q 984 4106 628 3988 
L 628 4550 
Q 988 4650 1302 4700 
Q 1616 4750 1894 4750 
Q 2613 4750 3031 4423 
Q 3450 4097 3450 3541 
Q 3450 3153 3228 2886 
Q 3006 2619 2597 2516 
z
" transform="scale(0.015625)"/>
       </defs>
       <use xlink:href="#DejaVuSans-32"/>
       <use xlink:href="#DejaVuSans-30" x="63.623047"/>
       <use xlink:href="#DejaVuSans-32" x="127.246094"/>
       <use xlink:href="#DejaVuSans-33" x="190.869141"/>
       <use xlink:href="#DejaVuSans-2d" x="254.492188"/>
       <use xlink:href="#DejaVuSans-30" x="290.576172"/>
       <use xlink:href="#DejaVuSans-31" x="354.199219"/>
      </g>
     </g>
    </g>
    <g id="xtick_8">
     <g id="line2d_15">
      <path d="M 618.569728 567.74175 
L 618.569728 24.14175 
" clip-path="url(#pa22135d276)" style="fill: none; stroke: #ffffff; stroke-width: 0.8; stroke-linecap: square"/>
     </g>
     <g id="line2d_16">
      <g>
       <use xlink:href="#m284892e86b" x="618.569728" y="567.74175" style="fill: #555555; stroke: #555555; stroke-width: 0.8"/>
      </g>
     </g>
     <g id="text_8">
      <!-- 2023-02 -->
      <g style="fill: #555555" transform="translate(605.748446 609.659567)rotate(-45)scale(0.1 -0.1)">
       <use xlink:href="#DejaVuSans-32"/>
       <use xlink:href="#DejaVuSans-30" x="63.623047"/>
       <use xlink:href="#DejaVuSans-32" x="127.246094"/>
       <use xlink:href="#DejaVuSans-33" x="190.869141"/>
       <use xlink:href="#DejaVuSans-2d" x="254.492188"/>
       <use xlink:href="#DejaVuSans-30" x="290.576172"/>
       <use xlink:href="#DejaVuSans-32" x="354.199219"/>
      </g>
     </g>
    </g>
    <g id="xtick_9">
     <g id="line2d_17">
      <path d="M 689.381022 567.74175 
L 689.381022 24.14175 
" clip-path="url(#pa22135d276)" style="fill: none; stroke: #ffffff; stroke-width: 0.8; stroke-linecap: square"/>
     </g>
     <g id="line2d_18">
      <g>
       <use xlink:href="#m284892e86b" x="689.381022" y="567.74175" style="fill: #555555; stroke: #555555; stroke-width: 0.8"/>
      </g>
     </g>
     <g id="text_9">
      <!-- 2023-03 -->
      <g style="fill: #555555" transform="translate(676.55974 609.659567)rotate(-45)scale(0.1 -0.1)">
       <use xlink:href="#DejaVuSans-32"/>
       <use xlink:href="#DejaVuSans-30" x="63.623047"/>
       <use xlink:href="#DejaVuSans-32" x="127.246094"/>
       <use xlink:href="#DejaVuSans-33" x="190.869141"/>
       <use xlink:href="#DejaVuSans-2d" x="254.492188"/>
       <use xlink:href="#DejaVuSans-30" x="290.576172"/>
       <use xlink:href="#DejaVuSans-33" x="354.199219"/>
      </g>
     </g>
    </g>
    <g id="xtick_10">
     <g id="line2d_19">
      <path d="M 767.779241 567.74175 
L 767.779241 24.14175 
" clip-path="url(#pa22135d276)" style="fill: none; stroke: #ffffff; stroke-width: 0.8; stroke-linecap: square"/>
     </g>
     <g id="line2d_20">
      <g>
       <use xlink:href="#m284892e86b" x="767.779241" y="567.74175" style="fill: #555555; stroke: #555555; stroke-width: 0.8"/>
      </g>
     </g>
     <g id="text_10">
      <!-- 2023-04 -->
      <g style="fill: #555555" transform="translate(754.957958 609.659567)rotate(-45)scale(0.1 -0.1)">
       <defs>
        <path id="DejaVuSans-34" d="M 2419 4116 
L 825 1625 
L 2419 1625 
L 2419 4116 
z
M 2253 4666 
L 3047 4666 
L 3047 1625 
L 3713 1625 
L 3713 1100 
L 3047 1100 
L 3047 0 
L 2419 0 
L 2419 1100 
L 313 1100 
L 313 1709 
L 2253 4666 
z
" transform="scale(0.015625)"/>
       </defs>
       <use xlink:href="#DejaVuSans-32"/>
       <use xlink:href="#DejaVuSans-30" x="63.623047"/>
       <use xlink:href="#DejaVuSans-32" x="127.246094"/>
       <use xlink:href="#DejaVuSans-33" x="190.869141"/>
       <use xlink:href="#DejaVuSans-2d" x="254.492188"/>
       <use xlink:href="#DejaVuSans-30" x="290.576172"/>
       <use xlink:href="#DejaVuSans-34" x="354.199219"/>
      </g>
     </g>
    </g>
    <g id="xtick_11">
     <g id="line2d_21">
      <path d="M 843.648484 567.74175 
L 843.648484 24.14175 
" clip-path="url(#pa22135d276)" style="fill: none; stroke: #ffffff; stroke-width: 0.8; stroke-linecap: square"/>
     </g>
     <g id="line2d_22">
      <g>
       <use xlink:href="#m284892e86b" x="843.648484" y="567.74175" style="fill: #555555; stroke: #555555; stroke-width: 0.8"/>
      </g>
     </g>
     <g id="text_11">
      <!-- 2023-05 -->
      <g style="fill: #555555" transform="translate(830.827202 609.659567)rotate(-45)scale(0.1 -0.1)">
       <defs>
        <path id="DejaVuSans-35" d="M 691 4666 
L 3169 4666 
L 3169 4134 
L 1269 4134 
L 1269 2991 
Q 1406 3038 1543 3061 
Q 1681 3084 1819 3084 
Q 2600 3084 3056 2656 
Q 3513 2228 3513 1497 
Q 3513 744 3044 326 
Q 2575 -91 1722 -91 
Q 1428 -91 1123 -41 
Q 819 9 494 109 
L 494 744 
Q 775 591 1075 516 
Q 1375 441 1709 441 
Q 2250 441 2565 725 
Q 2881 1009 2881 1497 
Q 2881 1984 2565 2268 
Q 2250 2553 1709 2553 
Q 1456 2553 1204 2497 
Q 953 2441 691 2322 
L 691 4666 
z
" transform="scale(0.015625)"/>
       </defs>
       <use xlink:href="#DejaVuSans-32"/>
       <use xlink:href="#DejaVuSans-30" x="63.623047"/>
       <use xlink:href="#DejaVuSans-32" x="127.246094"/>
       <use xlink:href="#DejaVuSans-33" x="190.869141"/>
       <use xlink:href="#DejaVuSans-2d" x="254.492188"/>
       <use xlink:href="#DejaVuSans-30" x="290.576172"/>
       <use xlink:href="#DejaVuSans-35" x="354.199219"/>
      </g>
     </g>
    </g>
    <g id="xtick_12">
     <g id="line2d_23">
      <path d="M 922.046703 567.74175 
L 922.046703 24.14175 
" clip-path="url(#pa22135d276)" style="fill: none; stroke: #ffffff; stroke-width: 0.8; stroke-linecap: square"/>
     </g>
     <g id="line2d_24">
      <g>
       <use xlink:href="#m284892e86b" x="922.046703" y="567.74175" style="fill: #555555; stroke: #555555; stroke-width: 0.8"/>
      </g>
     </g>
     <g id="text_12">
      <!-- 2023-06 -->
      <g style="fill: #555555" transform="translate(909.22542 609.659567)rotate(-45)scale(0.1 -0.1)">
       <defs>
        <path id="DejaVuSans-36" d="M 2113 2584 
Q 1688 2584 1439 2293 
Q 1191 2003 1191 1497 
Q 1191 994 1439 701 
Q 1688 409 2113 409 
Q 2538 409 2786 701 
Q 3034 994 3034 1497 
Q 3034 2003 2786 2293 
Q 2538 2584 2113 2584 
z
M 3366 4563 
L 3366 3988 
Q 3128 4100 2886 4159 
Q 2644 4219 2406 4219 
Q 1781 4219 1451 3797 
Q 1122 3375 1075 2522 
Q 1259 2794 1537 2939 
Q 1816 3084 2150 3084 
Q 2853 3084 3261 2657 
Q 3669 2231 3669 1497 
Q 3669 778 3244 343 
Q 2819 -91 2113 -91 
Q 1303 -91 875 529 
Q 447 1150 447 2328 
Q 447 3434 972 4092 
Q 1497 4750 2381 4750 
Q 2619 4750 2861 4703 
Q 3103 4656 3366 4563 
z
" transform="scale(0.015625)"/>
       </defs>
       <use xlink:href="#DejaVuSans-32"/>
       <use xlink:href="#DejaVuSans-30" x="63.623047"/>
       <use xlink:href="#DejaVuSans-32" x="127.246094"/>
       <use xlink:href="#DejaVuSans-33" x="190.869141"/>
       <use xlink:href="#DejaVuSans-2d" x="254.492188"/>
       <use xlink:href="#DejaVuSans-30" x="290.576172"/>
       <use xlink:href="#DejaVuSans-36" x="354.199219"/>
      </g>
     </g>
    </g>
    <g id="text_13">
     <!-- Date -->
     <g style="fill: #555555" transform="translate(489.160438 624.248253)scale(0.12 -0.12)">
      <defs>
       <path id="DejaVuSans-44" d="M 1259 4147 
L 1259 519 
L 2022 519 
Q 2988 519 3436 956 
Q 3884 1394 3884 2338 
Q 3884 3275 3436 3711 
Q 2988 4147 2022 4147 
L 1259 4147 
z
M 628 4666 
L 1925 4666 
Q 3281 4666 3915 4102 
Q 4550 3538 4550 2338 
Q 4550 1131 3912 565 
Q 3275 0 1925 0 
L 628 0 
L 628 4666 
z
" transform="scale(0.015625)"/>
       <path id="DejaVuSans-61" d="M 2194 1759 
Q 1497 1759 1228 1600 
Q 959 1441 959 1056 
Q 959 750 1161 570 
Q 1363 391 1709 391 
Q 2188 391 2477 730 
Q 2766 1069 2766 1631 
L 2766 1759 
L 2194 1759 
z
M 3341 1997 
L 3341 0 
L 2766 0 
L 2766 531 
Q 2569 213 2275 61 
Q 1981 -91 1556 -91 
Q 1019 -91 701 211 
Q 384 513 384 1019 
Q 384 1609 779 1909 
Q 1175 2209 1959 2209 
L 2766 2209 
L 2766 2266 
Q 2766 2663 2505 2880 
Q 2244 3097 1772 3097 
Q 1472 3097 1187 3025 
Q 903 2953 641 2809 
L 641 3341 
Q 956 3463 1253 3523 
Q 1550 3584 1831 3584 
Q 2591 3584 2966 3190 
Q 3341 2797 3341 1997 
z
" transform="scale(0.015625)"/>
       <path id="DejaVuSans-74" d="M 1172 4494 
L 1172 3500 
L 2356 3500 
L 2356 3053 
L 1172 3053 
L 1172 1153 
Q 1172 725 1289 603 
Q 1406 481 1766 481 
L 2356 481 
L 2356 0 
L 1766 0 
Q 1100 0 847 248 
Q 594 497 594 1153 
L 594 3053 
L 172 3053 
L 172 3500 
L 594 3500 
L 594 4494 
L 1172 4494 
z
" transform="scale(0.015625)"/>
       <path id="DejaVuSans-65" d="M 3597 1894 
L 3597 1613 
L 953 1613 
Q 991 1019 1311 708 
Q 1631 397 2203 397 
Q 2534 397 2845 478 
Q 3156 559 3463 722 
L 3463 178 
Q 3153 47 2828 -22 
Q 2503 -91 2169 -91 
Q 1331 -91 842 396 
Q 353 884 353 1716 
Q 353 2575 817 3079 
Q 1281 3584 2069 3584 
Q 2775 3584 3186 3129 
Q 3597 2675 3597 1894 
z
M 3022 2063 
Q 3016 2534 2758 2815 
Q 2500 3097 2075 3097 
Q 1594 3097 1305 2825 
Q 1016 2553 972 2059 
L 3022 2063 
z
" transform="scale(0.015625)"/>
      </defs>
      <use xlink:href="#DejaVuSans-44"/>
      <use xlink:href="#DejaVuSans-61" x="77.001953"/>
      <use xlink:href="#DejaVuSans-74" x="138.28125"/>
      <use xlink:href="#DejaVuSans-65" x="177.490234"/>
     </g>
    </g>
   </g>
   <g id="matplotlib.axis_2">
    <g id="ytick_1">
     <g id="line2d_25">
      <path d="M 52.079375 567.74175 
L 954.923375 567.74175 
" clip-path="url(#pa22135d276)" style="fill: none; stroke: #ffffff; stroke-width: 0.8; stroke-linecap: square"/>
     </g>
     <g id="line2d_26">
      <defs>
       <path id="m5d3430b9f0" d="M 0 0 
L -3.5 0 
" style="stroke: #555555; stroke-width: 0.8"/>
      </defs>
      <g>
       <use xlink:href="#m5d3430b9f0" x="52.079375" y="567.74175" style="fill: #555555; stroke: #555555; stroke-width: 0.8"/>
      </g>
     </g>
     <g id="text_14">
      <!-- 0.00 -->
      <g style="fill: #555555" transform="translate(22.81375 571.540969)scale(0.1 -0.1)">
       <defs>
        <path id="DejaVuSans-2e" d="M 684 794 
L 1344 794 
L 1344 0 
L 684 0 
L 684 794 
z
" transform="scale(0.015625)"/>
       </defs>
       <use xlink:href="#DejaVuSans-30"/>
       <use xlink:href="#DejaVuSans-2e" x="63.623047"/>
       <use xlink:href="#DejaVuSans-30" x="95.410156"/>
       <use xlink:href="#DejaVuSans-30" x="159.033203"/>
      </g>
     </g>
    </g>
    <g id="ytick_2">
     <g id="line2d_27">
      <path d="M 52.079375 463.590424 
L 954.923375 463.590424 
" clip-path="url(#pa22135d276)" style="fill: none; stroke: #ffffff; stroke-width: 0.8; stroke-linecap: square"/>
     </g>
     <g id="line2d_28">
      <g>
       <use xlink:href="#m5d3430b9f0" x="52.079375" y="463.590424" style="fill: #555555; stroke: #555555; stroke-width: 0.8"/>
      </g>
     </g>
     <g id="text_15">
      <!-- 0.05 -->
      <g style="fill: #555555" transform="translate(22.81375 467.389643)scale(0.1 -0.1)">
       <use xlink:href="#DejaVuSans-30"/>
       <use xlink:href="#DejaVuSans-2e" x="63.623047"/>
       <use xlink:href="#DejaVuSans-30" x="95.410156"/>
       <use xlink:href="#DejaVuSans-35" x="159.033203"/>
      </g>
     </g>
    </g>
    <g id="ytick_3">
     <g id="line2d_29">
      <path d="M 52.079375 359.439098 
L 954.923375 359.439098 
" clip-path="url(#pa22135d276)" style="fill: none; stroke: #ffffff; stroke-width: 0.8; stroke-linecap: square"/>
     </g>
     <g id="line2d_30">
      <g>
       <use xlink:href="#m5d3430b9f0" x="52.079375" y="359.439098" style="fill: #555555; stroke: #555555; stroke-width: 0.8"/>
      </g>
     </g>
     <g id="text_16">
      <!-- 0.10 -->
      <g style="fill: #555555" transform="translate(22.81375 363.238317)scale(0.1 -0.1)">
       <use xlink:href="#DejaVuSans-30"/>
       <use xlink:href="#DejaVuSans-2e" x="63.623047"/>
       <use xlink:href="#DejaVuSans-31" x="95.410156"/>
       <use xlink:href="#DejaVuSans-30" x="159.033203"/>
      </g>
     </g>
    </g>
    <g id="ytick_4">
     <g id="line2d_31">
      <path d="M 52.079375 255.287772 
L 954.923375 255.287772 
" clip-path="url(#pa22135d276)" style="fill: none; stroke: #ffffff; stroke-width: 0.8; stroke-linecap: square"/>
     </g>
     <g id="line2d_32">
      <g>
       <use xlink:href="#m5d3430b9f0" x="52.079375" y="255.287772" style="fill: #555555; stroke: #555555; stroke-width: 0.8"/>
      </g>
     </g>
     <g id="text_17">
      <!-- 0.15 -->
      <g style="fill: #555555" transform="translate(22.81375 259.086991)scale(0.1 -0.1)">
       <use xlink:href="#DejaVuSans-30"/>
       <use xlink:href="#DejaVuSans-2e" x="63.623047"/>
       <use xlink:href="#DejaVuSans-31" x="95.410156"/>
       <use xlink:href="#DejaVuSans-35" x="159.033203"/>
      </g>
     </g>
    </g>
    <g id="ytick_5">
     <g id="line2d_33">
      <path d="M 52.079375 151.136446 
L 954.923375 151.136446 
" clip-path="url(#pa22135d276)" style="fill: none; stroke: #ffffff; stroke-width: 0.8; stroke-linecap: square"/>
     </g>
     <g id="line2d_34">
      <g>
       <use xlink:href="#m5d3430b9f0" x="52.079375" y="151.136446" style="fill: #555555; stroke: #555555; stroke-width: 0.8"/>
      </g>
     </g>
     <g id="text_18">
      <!-- 0.20 -->
      <g style="fill: #555555" transform="translate(22.81375 154.935665)scale(0.1 -0.1)">
       <use xlink:href="#DejaVuSans-30"/>
       <use xlink:href="#DejaVuSans-2e" x="63.623047"/>
       <use xlink:href="#DejaVuSans-32" x="95.410156"/>
       <use xlink:href="#DejaVuSans-30" x="159.033203"/>
      </g>
     </g>
    </g>
    <g id="ytick_6">
     <g id="line2d_35">
      <path d="M 52.079375 46.98512 
L 954.923375 46.98512 
" clip-path="url(#pa22135d276)" style="fill: none; stroke: #ffffff; stroke-width: 0.8; stroke-linecap: square"/>
     </g>
     <g id="line2d_36">
      <g>
       <use xlink:href="#m5d3430b9f0" x="52.079375" y="46.98512" style="fill: #555555; stroke: #555555; stroke-width: 0.8"/>
      </g>
     </g>
     <g id="text_19">
      <!-- 0.25 -->
      <g style="fill: #555555" transform="translate(22.81375 50.784339)scale(0.1 -0.1)">
       <use xlink:href="#DejaVuSans-30"/>
       <use xlink:href="#DejaVuSans-2e" x="63.623047"/>
       <use xlink:href="#DejaVuSans-32" x="95.410156"/>
       <use xlink:href="#DejaVuSans-35" x="159.033203"/>
      </g>
     </g>
    </g>
    <g id="text_20">
     <!-- Share -->
     <g style="fill: #555555" transform="translate(16.318125 313.253625)rotate(-90)scale(0.12 -0.12)">
      <defs>
       <path id="DejaVuSans-53" d="M 3425 4513 
L 3425 3897 
Q 3066 4069 2747 4153 
Q 2428 4238 2131 4238 
Q 1616 4238 1336 4038 
Q 1056 3838 1056 3469 
Q 1056 3159 1242 3001 
Q 1428 2844 1947 2747 
L 2328 2669 
Q 3034 2534 3370 2195 
Q 3706 1856 3706 1288 
Q 3706 609 3251 259 
Q 2797 -91 1919 -91 
Q 1588 -91 1214 -16 
Q 841 59 441 206 
L 441 856 
Q 825 641 1194 531 
Q 1563 422 1919 422 
Q 2459 422 2753 634 
Q 3047 847 3047 1241 
Q 3047 1584 2836 1778 
Q 2625 1972 2144 2069 
L 1759 2144 
Q 1053 2284 737 2584 
Q 422 2884 422 3419 
Q 422 4038 858 4394 
Q 1294 4750 2059 4750 
Q 2388 4750 2728 4690 
Q 3069 4631 3425 4513 
z
" transform="scale(0.015625)"/>
       <path id="DejaVuSans-68" d="M 3513 2113 
L 3513 0 
L 2938 0 
L 2938 2094 
Q 2938 2591 2744 2837 
Q 2550 3084 2163 3084 
Q 1697 3084 1428 2787 
Q 1159 2491 1159 1978 
L 1159 0 
L 581 0 
L 581 4863 
L 1159 4863 
L 1159 2956 
Q 1366 3272 1645 3428 
Q 1925 3584 2291 3584 
Q 2894 3584 3203 3211 
Q 3513 2838 3513 2113 
z
" transform="scale(0.015625)"/>
       <path id="DejaVuSans-72" d="M 2631 2963 
Q 2534 3019 2420 3045 
Q 2306 3072 2169 3072 
Q 1681 3072 1420 2755 
Q 1159 2438 1159 1844 
L 1159 0 
L 581 0 
L 581 3500 
L 1159 3500 
L 1159 2956 
Q 1341 3275 1631 3429 
Q 1922 3584 2338 3584 
Q 2397 3584 2469 3576 
Q 2541 3569 2628 3553 
L 2631 2963 
z
" transform="scale(0.015625)"/>
      </defs>
      <use xlink:href="#DejaVuSans-53"/>
      <use xlink:href="#DejaVuSans-68" x="63.476562"/>
      <use xlink:href="#DejaVuSans-61" x="126.855469"/>
      <use xlink:href="#DejaVuSans-72" x="188.134766"/>
      <use xlink:href="#DejaVuSans-65" x="226.998047"/>
     </g>
    </g>
   </g>
   <g id="line2d_37">
    <path d="M 52.079375 390.75028 
L 61.199011 389.391234 
L 70.318648 388.032188 
L 79.438284 386.673142 
L 88.55792 385.314096 
L 97.677557 383.95505 
L 106.797193 382.596004 
L 115.91683 381.236958 
L 125.036466 379.877912 
L 134.156102 378.518866 
L 143.275739 377.15982 
L 152.395375 375.800774 
L 161.515011 374.441728 
L 170.634648 373.082682 
L 179.754284 371.723635 
L 188.87392 370.364589 
L 197.993557 369.005543 
L 207.113193 367.646497 
L 216.23283 366.287451 
L 225.352466 364.928405 
L 234.472102 363.569359 
L 243.591739 362.210313 
L 252.711375 360.851267 
L 261.831011 359.492221 
L 270.950648 358.133175 
L 280.070284 356.774129 
L 289.18992 355.415083 
L 298.309557 354.056037 
L 307.429193 352.696991 
L 316.54883 351.337945 
L 325.668466 349.978899 
L 334.788102 348.619853 
L 343.907739 347.260807 
L 353.027375 345.901761 
L 362.147011 344.542715 
L 371.266648 343.183668 
L 380.386284 341.824622 
L 389.50592 340.465576 
L 398.625557 339.10653 
L 407.745193 337.747484 
L 416.86483 336.388438 
L 425.984466 335.029392 
L 435.104102 333.670346 
L 444.223739 332.3113 
L 453.343375 330.952254 
L 462.463011 329.593208 
L 471.582648 328.234162 
L 480.702284 326.875116 
L 489.82192 325.51607 
L 498.941557 324.157024 
L 508.061193 322.797978 
L 517.18083 321.438932 
L 526.300466 320.079886 
L 535.420102 318.72084 
L 544.539739 317.361794 
L 553.659375 316.002747 
L 562.779011 314.643701 
L 571.898648 313.284655 
L 581.018284 311.925609 
L 590.13792 310.566563 
L 599.257557 309.207517 
L 608.377193 307.848471 
L 617.49683 306.489425 
L 626.616466 305.130379 
L 635.736102 303.771333 
L 644.855739 302.412287 
L 653.975375 301.053241 
L 663.095011 299.694195 
L 672.214648 298.335149 
L 681.334284 296.976103 
L 690.45392 295.617057 
L 699.573557 294.258011 
L 708.693193 292.898965 
L 717.81283 291.539919 
L 726.932466 290.180873 
L 736.052102 288.821827 
L 745.171739 287.46278 
L 754.291375 286.103734 
L 763.411011 284.744688 
L 772.530648 283.385642 
L 781.650284 282.026596 
L 790.76992 280.66755 
L 799.889557 279.308504 
L 809.009193 277.949458 
L 818.12883 276.590412 
L 827.248466 275.231366 
L 836.368102 273.87232 
L 845.487739 272.513274 
L 854.607375 271.154228 
L 863.727011 269.795182 
L 872.846648 268.436136 
L 881.966284 267.07709 
L 891.08592 265.718044 
L 900.205557 264.358998 
L 909.325193 262.999952 
L 918.44483 261.640906 
L 927.564466 260.281859 
L 936.684102 258.922813 
L 945.803739 257.563767 
L 954.923375 256.204721 
" clip-path="url(#pa22135d276)" style="fill: none; stroke-dasharray: 1.5,2.475; stroke-dashoffset: 0; stroke: #4ac1fa; stroke-width: 1.5"/>
   </g>
   <g id="line2d_38">
    <path d="M 52.079375 248.65829 
L 61.199011 248.529127 
L 70.318648 248.399964 
L 79.438284 248.2708 
L 88.55792 248.141637 
L 97.677557 248.012474 
L 106.797193 247.883311 
L 115.91683 247.754148 
L 125.036466 247.624985 
L 134.156102 247.495822 
L 143.275739 247.366658 
L 152.395375 247.237495 
L 161.515011 247.108332 
L 170.634648 246.979169 
L 179.754284 246.850006 
L 188.87392 246.720843 
L 197.993557 246.59168 
L 207.113193 246.462516 
L 216.23283 246.333353 
L 225.352466 246.20419 
L 234.472102 246.075027 
L 243.591739 245.945864 
L 252.711375 245.816701 
L 261.831011 245.687537 
L 270.950648 245.558374 
L 280.070284 245.429211 
L 289.18992 245.300048 
L 298.309557 245.170885 
L 307.429193 245.041722 
L 316.54883 244.912559 
L 325.668466 244.783395 
L 334.788102 244.654232 
L 343.907739 244.525069 
L 353.027375 244.395906 
L 362.147011 244.266743 
L 371.266648 244.13758 
L 380.386284 244.008417 
L 389.50592 243.879253 
L 398.625557 243.75009 
L 407.745193 243.620927 
L 416.86483 243.491764 
L 425.984466 243.362601 
L 435.104102 243.233438 
L 444.223739 243.104274 
L 453.343375 242.975111 
L 462.463011 242.845948 
L 471.582648 242.716785 
L 480.702284 242.587622 
L 489.82192 242.458459 
L 498.941557 242.329296 
L 508.061193 242.200132 
L 517.18083 242.070969 
L 526.300466 241.941806 
L 535.420102 241.812643 
L 544.539739 241.68348 
L 553.659375 241.554317 
L 562.779011 241.425154 
L 571.898648 241.29599 
L 581.018284 241.166827 
L 590.13792 241.037664 
L 599.257557 240.908501 
L 608.377193 240.779338 
L 617.49683 240.650175 
L 626.616466 240.521011 
L 635.736102 240.391848 
L 644.855739 240.262685 
L 653.975375 240.133522 
L 663.095011 240.004359 
L 672.214648 239.875196 
L 681.334284 239.746033 
L 690.45392 239.616869 
L 699.573557 239.487706 
L 708.693193 239.358543 
L 717.81283 239.22938 
L 726.932466 239.100217 
L 736.052102 238.971054 
L 745.171739 238.841891 
L 754.291375 238.712727 
L 763.411011 238.583564 
L 772.530648 238.454401 
L 781.650284 238.325238 
L 790.76992 238.196075 
L 799.889557 238.066912 
L 809.009193 237.937748 
L 818.12883 237.808585 
L 827.248466 237.679422 
L 836.368102 237.550259 
L 845.487739 237.421096 
L 854.607375 237.291933 
L 863.727011 237.16277 
L 872.846648 237.033606 
L 881.966284 236.904443 
L 891.08592 236.77528 
L 900.205557 236.646117 
L 909.325193 236.516954 
L 918.44483 236.387791 
L 927.564466 236.258627 
L 936.684102 236.129464 
L 945.803739 236.000301 
L 954.923375 235.871138 
" clip-path="url(#pa22135d276)" style="fill: none; stroke-dasharray: 1.5,2.475; stroke-dashoffset: 0; stroke: #9a5689; stroke-width: 1.5"/>
   </g>
   <g id="line2d_39">
    <path d="M 52.079375 488.145742 
L 61.199011 488.234254 
L 70.318648 488.322766 
L 79.438284 488.411278 
L 88.55792 488.49979 
L 97.677557 488.588301 
L 106.797193 488.676813 
L 115.91683 488.765325 
L 125.036466 488.853837 
L 134.156102 488.942349 
L 143.275739 489.030861 
L 152.395375 489.119373 
L 161.515011 489.207885 
L 170.634648 489.296397 
L 179.754284 489.384909 
L 188.87392 489.47342 
L 197.993557 489.561932 
L 207.113193 489.650444 
L 216.23283 489.738956 
L 225.352466 489.827468 
L 234.472102 489.91598 
L 243.591739 490.004492 
L 252.711375 490.093004 
L 261.831011 490.181516 
L 270.950648 490.270028 
L 280.070284 490.358539 
L 289.18992 490.447051 
L 298.309557 490.535563 
L 307.429193 490.624075 
L 316.54883 490.712587 
L 325.668466 490.801099 
L 334.788102 490.889611 
L 343.907739 490.978123 
L 353.027375 491.066635 
L 362.147011 491.155147 
L 371.266648 491.243658 
L 380.386284 491.33217 
L 389.50592 491.420682 
L 398.625557 491.509194 
L 407.745193 491.597706 
L 416.86483 491.686218 
L 425.984466 491.77473 
L 435.104102 491.863242 
L 444.223739 491.951754 
L 453.343375 492.040266 
L 462.463011 492.128778 
L 471.582648 492.217289 
L 480.702284 492.305801 
L 489.82192 492.394313 
L 498.941557 492.482825 
L 508.061193 492.571337 
L 517.18083 492.659849 
L 526.300466 492.748361 
L 535.420102 492.836873 
L 544.539739 492.925385 
L 553.659375 493.013897 
L 562.779011 493.102408 
L 571.898648 493.19092 
L 581.018284 493.279432 
L 590.13792 493.367944 
L 599.257557 493.456456 
L 608.377193 493.544968 
L 617.49683 493.63348 
L 626.616466 493.721992 
L 635.736102 493.810504 
L 644.855739 493.899016 
L 653.975375 493.987527 
L 663.095011 494.076039 
L 672.214648 494.164551 
L 681.334284 494.253063 
L 690.45392 494.341575 
L 699.573557 494.430087 
L 708.693193 494.518599 
L 717.81283 494.607111 
L 726.932466 494.695623 
L 736.052102 494.784135 
L 745.171739 494.872646 
L 754.291375 494.961158 
L 763.411011 495.04967 
L 772.530648 495.138182 
L 781.650284 495.226694 
L 790.76992 495.315206 
L 799.889557 495.403718 
L 809.009193 495.49223 
L 818.12883 495.580742 
L 827.248466 495.669254 
L 836.368102 495.757766 
L 845.487739 495.846277 
L 854.607375 495.934789 
L 863.727011 496.023301 
L 872.846648 496.111813 
L 881.966284 496.200325 
L 891.08592 496.288837 
L 900.205557 496.377349 
L 909.325193 496.465861 
L 918.44483 496.554373 
L 927.564466 496.642885 
L 936.684102 496.731396 
L 945.803739 496.819908 
L 954.923375 496.90842 
" clip-path="url(#pa22135d276)" style="fill: none; stroke-dasharray: 1.5,2.475; stroke-dashoffset: 0; stroke: #be503b; stroke-width: 1.5"/>
   </g>
   <g id="line2d_40">
    <path d="M 52.079375 249.706235 
L 61.199011 248.364741 
L 70.318648 247.023248 
L 79.438284 245.681755 
L 88.55792 244.340262 
L 97.677557 242.998769 
L 106.797193 241.657275 
L 115.91683 240.315782 
L 125.036466 238.974289 
L 134.156102 237.632796 
L 143.275739 236.291303 
L 152.395375 234.94981 
L 161.515011 233.608316 
L 170.634648 232.266823 
L 179.754284 230.92533 
L 188.87392 229.583837 
L 197.993557 228.242344 
L 207.113193 226.90085 
L 216.23283 225.559357 
L 225.352466 224.217864 
L 234.472102 222.876371 
L 243.591739 221.534878 
L 252.711375 220.193384 
L 261.831011 218.851891 
L 270.950648 217.510398 
L 280.070284 216.168905 
L 289.18992 214.827412 
L 298.309557 213.485919 
L 307.429193 212.144425 
L 316.54883 210.802932 
L 325.668466 209.461439 
L 334.788102 208.119946 
L 343.907739 206.778453 
L 353.027375 205.436959 
L 362.147011 204.095466 
L 371.266648 202.753973 
L 380.386284 201.41248 
L 389.50592 200.070987 
L 398.625557 198.729493 
L 407.745193 197.388 
L 416.86483 196.046507 
L 425.984466 194.705014 
L 435.104102 193.363521 
L 444.223739 192.022027 
L 453.343375 190.680534 
L 462.463011 189.339041 
L 471.582648 187.997548 
L 480.702284 186.656055 
L 489.82192 185.314562 
L 498.941557 183.973068 
L 508.061193 182.631575 
L 517.18083 181.290082 
L 526.300466 179.948589 
L 535.420102 178.607096 
L 544.539739 177.265602 
L 553.659375 175.924109 
L 562.779011 174.582616 
L 571.898648 173.241123 
L 581.018284 171.89963 
L 590.13792 170.558136 
L 599.257557 169.216643 
L 608.377193 167.87515 
L 617.49683 166.533657 
L 626.616466 165.192164 
L 635.736102 163.850671 
L 644.855739 162.509177 
L 653.975375 161.167684 
L 663.095011 159.826191 
L 672.214648 158.484698 
L 681.334284 157.143205 
L 690.45392 155.801711 
L 699.573557 154.460218 
L 708.693193 153.118725 
L 717.81283 151.777232 
L 726.932466 150.435739 
L 736.052102 149.094245 
L 745.171739 147.752752 
L 754.291375 146.411259 
L 763.411011 145.069766 
L 772.530648 143.728273 
L 781.650284 142.38678 
L 790.76992 141.045286 
L 799.889557 139.703793 
L 809.009193 138.3623 
L 818.12883 137.020807 
L 827.248466 135.679314 
L 836.368102 134.33782 
L 845.487739 132.996327 
L 854.607375 131.654834 
L 863.727011 130.313341 
L 872.846648 128.971848 
L 881.966284 127.630354 
L 891.08592 126.288861 
L 900.205557 124.947368 
L 909.325193 123.605875 
L 918.44483 122.264382 
L 927.564466 120.922888 
L 936.684102 119.581395 
L 945.803739 118.239902 
L 954.923375 116.898409 
" clip-path="url(#pa22135d276)" style="fill: none; stroke-dasharray: 1.5,2.475; stroke-dashoffset: 0; stroke: #e2321d; stroke-width: 1.5"/>
   </g>
   <g id="line2d_41">
    <path d="M 52.079375 259.059952 
L 61.199011 257.241013 
L 70.318648 255.422074 
L 79.438284 253.603135 
L 88.55792 251.784197 
L 97.677557 249.965258 
L 106.797193 248.146319 
L 115.91683 246.32738 
L 125.036466 244.508441 
L 134.156102 242.689502 
L 143.275739 240.870563 
L 152.395375 239.051624 
L 161.515011 237.232685 
L 170.634648 235.413747 
L 179.754284 233.594808 
L 188.87392 231.775869 
L 197.993557 229.95693 
L 207.113193 228.137991 
L 216.23283 226.319052 
L 225.352466 224.500113 
L 234.472102 222.681174 
L 243.591739 220.862235 
L 252.711375 219.043297 
L 261.831011 217.224358 
L 270.950648 215.405419 
L 280.070284 213.58648 
L 289.18992 211.767541 
L 298.309557 209.948602 
L 307.429193 208.129663 
L 316.54883 206.310724 
L 325.668466 204.491785 
L 334.788102 202.672846 
L 343.907739 200.853908 
L 353.027375 199.034969 
L 362.147011 197.21603 
L 371.266648 195.397091 
L 380.386284 193.578152 
L 389.50592 191.759213 
L 398.625557 189.940274 
L 407.745193 188.121335 
L 416.86483 186.302396 
L 425.984466 184.483458 
L 435.104102 182.664519 
L 444.223739 180.84558 
L 453.343375 179.026641 
L 462.463011 177.207702 
L 471.582648 175.388763 
L 480.702284 173.569824 
L 489.82192 171.750885 
L 498.941557 169.931946 
L 508.061193 168.113007 
L 517.18083 166.294069 
L 526.300466 164.47513 
L 535.420102 162.656191 
L 544.539739 160.837252 
L 553.659375 159.018313 
L 562.779011 157.199374 
L 571.898648 155.380435 
L 581.018284 153.561496 
L 590.13792 151.742557 
L 599.257557 149.923619 
L 608.377193 148.10468 
L 617.49683 146.285741 
L 626.616466 144.466802 
L 635.736102 142.647863 
L 644.855739 140.828924 
L 653.975375 139.009985 
L 663.095011 137.191046 
L 672.214648 135.372107 
L 681.334284 133.553168 
L 690.45392 131.73423 
L 699.573557 129.915291 
L 708.693193 128.096352 
L 717.81283 126.277413 
L 726.932466 124.458474 
L 736.052102 122.639535 
L 745.171739 120.820596 
L 754.291375 119.001657 
L 763.411011 117.182718 
L 772.530648 115.36378 
L 781.650284 113.544841 
L 790.76992 111.725902 
L 799.889557 109.906963 
L 809.009193 108.088024 
L 818.12883 106.269085 
L 827.248466 104.450146 
L 836.368102 102.631207 
L 845.487739 100.812268 
L 854.607375 98.99333 
L 863.727011 97.174391 
L 872.846648 95.355452 
L 881.966284 93.536513 
L 891.08592 91.717574 
L 900.205557 89.898635 
L 909.325193 88.079696 
L 918.44483 86.260757 
L 927.564466 84.441818 
L 936.684102 82.622879 
L 945.803739 80.803941 
L 954.923375 78.985002 
" clip-path="url(#pa22135d276)" style="fill: none; stroke-dasharray: 1.5,2.475; stroke-dashoffset: 0; stroke: #48b585; stroke-width: 1.5"/>
   </g>
   <g id="line2d_42">
    <path d="M 52.079375 410.539138 
L 69.782199 399.376766 
L 87.485022 396.874117 
L 105.187846 352.337045 
L 122.890669 396.643914 
L 140.593493 392.82637 
L 158.296316 405.209998 
L 175.99914 401.382621 
L 193.701963 352.116372 
L 211.404787 327.208789 
L 229.10761 330.824103 
L 246.810434 361.433128 
L 264.513257 350.6656 
L 282.216081 341.5548 
L 299.918904 341.268085 
L 317.621728 347.968058 
L 335.324551 349.769187 
L 353.027375 337.745817 
L 370.730199 339.617318 
L 388.433022 347.172044 
L 406.135846 340.836959 
L 423.838669 333.093745 
L 441.541493 326.638841 
L 459.244316 327.161682 
L 476.94714 311.455164 
L 494.649963 310.861852 
L 512.352787 307.273718 
L 530.05561 307.706938 
L 547.758434 316.047952 
L 565.461257 323.292566 
L 583.164081 324.016083 
L 600.866904 316.081813 
L 618.569728 318.902456 
L 636.272551 323.817949 
L 653.975375 321.529799 
L 671.678199 306.039969 
L 689.381022 316.108434 
L 707.083846 316.108786 
L 724.786669 294.335118 
L 742.489493 281.029931 
L 760.192316 263.466238 
L 777.89514 292.548734 
L 795.597963 287.834337 
L 848.706434 272.196039 
L 866.409257 299.339155 
L 884.112081 280.261447 
L 901.814904 264.691948 
L 919.517728 246.129886 
L 937.220551 236.263824 
L 954.923375 221.243738 
" clip-path="url(#pa22135d276)" style="fill: none; stroke: #4ac1fa; stroke-width: 1.5; stroke-linecap: square"/>
   </g>
   <g id="line2d_43">
    <path d="M 52.079375 290.840301 
L 69.782199 272.234895 
L 87.485022 276.009175 
L 105.187846 228.904563 
L 122.890669 306.344 
L 140.593493 321.883702 
L 158.296316 324.230869 
L 175.99914 320.163809 
L 193.701963 245.976304 
L 211.404787 209.427686 
L 229.10761 226.915465 
L 246.810434 278.832315 
L 264.513257 232.855866 
L 282.216081 216.742788 
L 299.918904 201.288347 
L 317.621728 236.845612 
L 335.324551 207.871095 
L 353.027375 188.488789 
L 370.730199 205.914705 
L 388.433022 233.984356 
L 406.135846 211.368287 
L 423.838669 216.819712 
L 441.541493 215.792311 
L 459.244316 213.48657 
L 476.94714 203.327645 
L 494.649963 206.114063 
L 512.352787 192.73871 
L 530.05561 194.716898 
L 547.758434 218.173387 
L 565.461257 226.814178 
L 583.164081 224.212408 
L 600.866904 209.287423 
L 618.569728 225.239055 
L 636.272551 228.46144 
L 653.975375 245.531338 
L 671.678199 244.742515 
L 689.381022 263.946426 
L 707.083846 279.366238 
L 724.786669 257.387881 
L 742.489493 252.444004 
L 760.192316 246.07742 
L 777.89514 280.91346 
L 795.597963 272.269124 
L 848.706434 267.863446 
L 866.409257 286.54055 
L 884.112081 253.6814 
L 901.814904 213.97955 
L 919.517728 254.922457 
L 937.220551 250.772662 
L 954.923375 239.516723 
" clip-path="url(#pa22135d276)" style="fill: none; stroke: #9a5689; stroke-width: 1.5; stroke-linecap: square"/>
   </g>
   <g id="line2d_44">
    <path d="M 52.079375 475.918275 
L 69.782199 468.442531 
L 87.485022 477.620323 
L 105.187846 469.64362 
L 122.890669 479.499087 
L 140.593493 485.059953 
L 158.296316 484.842112 
L 175.99914 487.850836 
L 193.701963 486.336195 
L 211.404787 488.679933 
L 229.10761 490.0113 
L 246.810434 500.229864 
L 264.513257 496.469317 
L 282.216081 493.938623 
L 299.918904 493.450418 
L 317.621728 498.538291 
L 335.324551 500.875238 
L 353.027375 500.495468 
L 370.730199 500.503115 
L 388.433022 503.321186 
L 406.135846 499.425385 
L 423.838669 501.469609 
L 441.541493 499.771515 
L 459.244316 498.684465 
L 476.94714 493.677744 
L 494.649963 493.497056 
L 512.352787 490.983825 
L 530.05561 495.586981 
L 547.758434 498.402939 
L 565.461257 499.217892 
L 583.164081 499.033946 
L 600.866904 497.71753 
L 618.569728 497.406429 
L 636.272551 499.723607 
L 653.975375 498.02429 
L 671.678199 494.99853 
L 689.381022 496.920902 
L 707.083846 498.910413 
L 724.786669 492.443058 
L 742.489493 490.77543 
L 760.192316 487.516376 
L 777.89514 495.854175 
L 795.597963 492.901365 
L 848.706434 490.394224 
L 866.409257 494.195637 
L 884.112081 490.604409 
L 901.814904 492.18569 
L 919.517728 488.578546 
L 937.220551 486.947267 
L 954.923375 482.593712 
" clip-path="url(#pa22135d276)" style="fill: none; stroke: #be503b; stroke-width: 1.5; stroke-linecap: square"/>
   </g>
   <g id="line2d_45">
    <path d="M 52.079375 304.961789 
L 69.782199 284.218618 
L 87.485022 279.783791 
L 105.187846 215.173079 
L 122.890669 280.872724 
L 140.593493 303.768425 
L 158.296316 309.252927 
L 175.99914 235.012517 
L 193.701963 226.032739 
L 211.404787 181.053979 
L 229.10761 253.179197 
L 246.810434 130.779728 
L 264.513257 185.210863 
L 282.216081 165.010126 
L 299.918904 161.957735 
L 317.621728 185.498932 
L 335.324551 202.669361 
L 353.027375 184.632959 
L 370.730199 218.511659 
L 388.433022 192.989914 
L 406.135846 197.306219 
L 423.838669 195.134802 
L 441.541493 191.611981 
L 459.244316 181.145623 
L 476.94714 163.651809 
L 494.649963 194.662201 
L 512.352787 165.942384 
L 530.05561 167.044853 
L 547.758434 167.36343 
L 565.461257 151.835494 
L 583.164081 159.805495 
L 600.866904 142.923464 
L 618.569728 150.338495 
L 636.272551 157.606879 
L 653.975375 159.817137 
L 671.678199 148.851944 
L 689.381022 165.251984 
L 707.083846 177.142238 
L 724.786669 144.601962 
L 742.489493 163.433803 
L 760.192316 113.175204 
L 777.89514 151.881628 
L 795.597963 140.166722 
L 848.706434 134.598722 
L 866.409257 166.923957 
L 884.112081 185.510567 
L 901.814904 141.83237 
L 919.517728 119.492569 
L 937.220551 116.352511 
L 954.923375 142.885277 
" clip-path="url(#pa22135d276)" style="fill: none; stroke: #e2321d; stroke-width: 1.5; stroke-linecap: square"/>
   </g>
   <g id="line2d_46">
    <path d="M 52.079375 339.700706 
L 69.782199 293.074536 
L 87.485022 271.516881 
L 105.187846 197.604269 
L 122.890669 271.734031 
L 140.593493 315.181613 
L 158.296316 332.50159 
L 175.99914 325.230306 
L 193.701963 232.770008 
L 211.404787 166.927213 
L 229.10761 168.690768 
L 246.810434 197.443247 
L 264.513257 170.515437 
L 282.216081 165.221228 
L 299.918904 160.493679 
L 317.621728 180.341339 
L 335.324551 171.99171 
L 353.027375 157.579602 
L 370.730199 149.27295 
L 388.433022 189.752674 
L 406.135846 176.754809 
L 423.838669 191.005844 
L 441.541493 178.654088 
L 459.244316 165.745362 
L 476.94714 133.128462 
L 494.649963 135.889673 
L 512.352787 129.330911 
L 530.05561 145.03794 
L 547.758434 158.867056 
L 565.461257 154.360173 
L 583.164081 155.718741 
L 600.866904 161.551252 
L 618.569728 172.554221 
L 636.272551 158.912144 
L 653.975375 148.404792 
L 671.678199 133.548083 
L 689.381022 149.244863 
L 707.083846 171.379842 
L 724.786669 130.691439 
L 742.489493 121.660048 
L 760.192316 103.680914 
L 777.89514 144.385343 
L 795.597963 119.73051 
L 848.706434 115.048689 
L 866.409257 123.378162 
L 884.112081 105.02811 
L 901.814904 115.099089 
L 919.517728 89.090137 
L 937.220551 85.851274 
L 954.923375 46.959818 
" clip-path="url(#pa22135d276)" style="fill: none; stroke: #48b585; stroke-width: 6; stroke-linecap: square"/>
   </g>
   <g id="patch_3">
    <path d="M 52.079375 567.74175 
L 52.079375 24.14175 
" style="fill: none; stroke: #ffffff; stroke-linejoin: miter; stroke-linecap: square"/>
   </g>
   <g id="patch_4">
    <path d="M 954.923375 567.74175 
L 954.923375 24.14175 
" style="fill: none; stroke: #ffffff; stroke-linejoin: miter; stroke-linecap: square"/>
   </g>
   <g id="patch_5">
    <path d="M 52.079375 567.74175 
L 954.923375 567.74175 
" style="fill: none; stroke: #ffffff; stroke-linejoin: miter; stroke-linecap: square"/>
   </g>
   <g id="patch_6">
    <path d="M 52.079375 24.14175 
L 954.923375 24.14175 
" style="fill: none; stroke: #ffffff; stroke-linejoin: miter; stroke-linecap: square"/>
   </g>
   <g id="text_21">
    <!-- Enterprise Linux 8 and 9 Instances by Distribution Share (System Age &gt; 1 Week) -->
    <g transform="translate(211.890125 18.14175)scale(0.144 -0.144)">
     <defs>
      <path id="DejaVuSans-45" d="M 628 4666 
L 3578 4666 
L 3578 4134 
L 1259 4134 
L 1259 2753 
L 3481 2753 
L 3481 2222 
L 1259 2222 
L 1259 531 
L 3634 531 
L 3634 0 
L 628 0 
L 628 4666 
z
" transform="scale(0.015625)"/>
      <path id="DejaVuSans-6e" d="M 3513 2113 
L 3513 0 
L 2938 0 
L 2938 2094 
Q 2938 2591 2744 2837 
Q 2550 3084 2163 3084 
Q 1697 3084 1428 2787 
Q 1159 2491 1159 1978 
L 1159 0 
L 581 0 
L 581 3500 
L 1159 3500 
L 1159 2956 
Q 1366 3272 1645 3428 
Q 1925 3584 2291 3584 
Q 2894 3584 3203 3211 
Q 3513 2838 3513 2113 
z
" transform="scale(0.015625)"/>
      <path id="DejaVuSans-70" d="M 1159 525 
L 1159 -1331 
L 581 -1331 
L 581 3500 
L 1159 3500 
L 1159 2969 
Q 1341 3281 1617 3432 
Q 1894 3584 2278 3584 
Q 2916 3584 3314 3078 
Q 3713 2572 3713 1747 
Q 3713 922 3314 415 
Q 2916 -91 2278 -91 
Q 1894 -91 1617 61 
Q 1341 213 1159 525 
z
M 3116 1747 
Q 3116 2381 2855 2742 
Q 2594 3103 2138 3103 
Q 1681 3103 1420 2742 
Q 1159 2381 1159 1747 
Q 1159 1113 1420 752 
Q 1681 391 2138 391 
Q 2594 391 2855 752 
Q 3116 1113 3116 1747 
z
" transform="scale(0.015625)"/>
      <path id="DejaVuSans-69" d="M 603 3500 
L 1178 3500 
L 1178 0 
L 603 0 
L 603 3500 
z
M 603 4863 
L 1178 4863 
L 1178 4134 
L 603 4134 
L 603 4863 
z
" transform="scale(0.015625)"/>
      <path id="DejaVuSans-73" d="M 2834 3397 
L 2834 2853 
Q 2591 2978 2328 3040 
Q 2066 3103 1784 3103 
Q 1356 3103 1142 2972 
Q 928 2841 928 2578 
Q 928 2378 1081 2264 
Q 1234 2150 1697 2047 
L 1894 2003 
Q 2506 1872 2764 1633 
Q 3022 1394 3022 966 
Q 3022 478 2636 193 
Q 2250 -91 1575 -91 
Q 1294 -91 989 -36 
Q 684 19 347 128 
L 347 722 
Q 666 556 975 473 
Q 1284 391 1588 391 
Q 1994 391 2212 530 
Q 2431 669 2431 922 
Q 2431 1156 2273 1281 
Q 2116 1406 1581 1522 
L 1381 1569 
Q 847 1681 609 1914 
Q 372 2147 372 2553 
Q 372 3047 722 3315 
Q 1072 3584 1716 3584 
Q 2034 3584 2315 3537 
Q 2597 3491 2834 3397 
z
" transform="scale(0.015625)"/>
      <path id="DejaVuSans-20" transform="scale(0.015625)"/>
      <path id="DejaVuSans-4c" d="M 628 4666 
L 1259 4666 
L 1259 531 
L 3531 531 
L 3531 0 
L 628 0 
L 628 4666 
z
" transform="scale(0.015625)"/>
      <path id="DejaVuSans-75" d="M 544 1381 
L 544 3500 
L 1119 3500 
L 1119 1403 
Q 1119 906 1312 657 
Q 1506 409 1894 409 
Q 2359 409 2629 706 
Q 2900 1003 2900 1516 
L 2900 3500 
L 3475 3500 
L 3475 0 
L 2900 0 
L 2900 538 
Q 2691 219 2414 64 
Q 2138 -91 1772 -91 
Q 1169 -91 856 284 
Q 544 659 544 1381 
z
M 1991 3584 
L 1991 3584 
z
" transform="scale(0.015625)"/>
      <path id="DejaVuSans-78" d="M 3513 3500 
L 2247 1797 
L 3578 0 
L 2900 0 
L 1881 1375 
L 863 0 
L 184 0 
L 1544 1831 
L 300 3500 
L 978 3500 
L 1906 2253 
L 2834 3500 
L 3513 3500 
z
" transform="scale(0.015625)"/>
      <path id="DejaVuSans-64" d="M 2906 2969 
L 2906 4863 
L 3481 4863 
L 3481 0 
L 2906 0 
L 2906 525 
Q 2725 213 2448 61 
Q 2172 -91 1784 -91 
Q 1150 -91 751 415 
Q 353 922 353 1747 
Q 353 2572 751 3078 
Q 1150 3584 1784 3584 
Q 2172 3584 2448 3432 
Q 2725 3281 2906 2969 
z
M 947 1747 
Q 947 1113 1208 752 
Q 1469 391 1925 391 
Q 2381 391 2643 752 
Q 2906 1113 2906 1747 
Q 2906 2381 2643 2742 
Q 2381 3103 1925 3103 
Q 1469 3103 1208 2742 
Q 947 2381 947 1747 
z
" transform="scale(0.015625)"/>
      <path id="DejaVuSans-49" d="M 628 4666 
L 1259 4666 
L 1259 0 
L 628 0 
L 628 4666 
z
" transform="scale(0.015625)"/>
      <path id="DejaVuSans-63" d="M 3122 3366 
L 3122 2828 
Q 2878 2963 2633 3030 
Q 2388 3097 2138 3097 
Q 1578 3097 1268 2742 
Q 959 2388 959 1747 
Q 959 1106 1268 751 
Q 1578 397 2138 397 
Q 2388 397 2633 464 
Q 2878 531 3122 666 
L 3122 134 
Q 2881 22 2623 -34 
Q 2366 -91 2075 -91 
Q 1284 -91 818 406 
Q 353 903 353 1747 
Q 353 2603 823 3093 
Q 1294 3584 2113 3584 
Q 2378 3584 2631 3529 
Q 2884 3475 3122 3366 
z
" transform="scale(0.015625)"/>
      <path id="DejaVuSans-62" d="M 3116 1747 
Q 3116 2381 2855 2742 
Q 2594 3103 2138 3103 
Q 1681 3103 1420 2742 
Q 1159 2381 1159 1747 
Q 1159 1113 1420 752 
Q 1681 391 2138 391 
Q 2594 391 2855 752 
Q 3116 1113 3116 1747 
z
M 1159 2969 
Q 1341 3281 1617 3432 
Q 1894 3584 2278 3584 
Q 2916 3584 3314 3078 
Q 3713 2572 3713 1747 
Q 3713 922 3314 415 
Q 2916 -91 2278 -91 
Q 1894 -91 1617 61 
Q 1341 213 1159 525 
L 1159 0 
L 581 0 
L 581 4863 
L 1159 4863 
L 1159 2969 
z
" transform="scale(0.015625)"/>
      <path id="DejaVuSans-79" d="M 2059 -325 
Q 1816 -950 1584 -1140 
Q 1353 -1331 966 -1331 
L 506 -1331 
L 506 -850 
L 844 -850 
Q 1081 -850 1212 -737 
Q 1344 -625 1503 -206 
L 1606 56 
L 191 3500 
L 800 3500 
L 1894 763 
L 2988 3500 
L 3597 3500 
L 2059 -325 
z
" transform="scale(0.015625)"/>
      <path id="DejaVuSans-6f" d="M 1959 3097 
Q 1497 3097 1228 2736 
Q 959 2375 959 1747 
Q 959 1119 1226 758 
Q 1494 397 1959 397 
Q 2419 397 2687 759 
Q 2956 1122 2956 1747 
Q 2956 2369 2687 2733 
Q 2419 3097 1959 3097 
z
M 1959 3584 
Q 2709 3584 3137 3096 
Q 3566 2609 3566 1747 
Q 3566 888 3137 398 
Q 2709 -91 1959 -91 
Q 1206 -91 779 398 
Q 353 888 353 1747 
Q 353 2609 779 3096 
Q 1206 3584 1959 3584 
z
" transform="scale(0.015625)"/>
      <path id="DejaVuSans-28" d="M 1984 4856 
Q 1566 4138 1362 3434 
Q 1159 2731 1159 2009 
Q 1159 1288 1364 580 
Q 1569 -128 1984 -844 
L 1484 -844 
Q 1016 -109 783 600 
Q 550 1309 550 2009 
Q 550 2706 781 3412 
Q 1013 4119 1484 4856 
L 1984 4856 
z
" transform="scale(0.015625)"/>
      <path id="DejaVuSans-6d" d="M 3328 2828 
Q 3544 3216 3844 3400 
Q 4144 3584 4550 3584 
Q 5097 3584 5394 3201 
Q 5691 2819 5691 2113 
L 5691 0 
L 5113 0 
L 5113 2094 
Q 5113 2597 4934 2840 
Q 4756 3084 4391 3084 
Q 3944 3084 3684 2787 
Q 3425 2491 3425 1978 
L 3425 0 
L 2847 0 
L 2847 2094 
Q 2847 2600 2669 2842 
Q 2491 3084 2119 3084 
Q 1678 3084 1418 2786 
Q 1159 2488 1159 1978 
L 1159 0 
L 581 0 
L 581 3500 
L 1159 3500 
L 1159 2956 
Q 1356 3278 1631 3431 
Q 1906 3584 2284 3584 
Q 2666 3584 2933 3390 
Q 3200 3197 3328 2828 
z
" transform="scale(0.015625)"/>
      <path id="DejaVuSans-41" d="M 2188 4044 
L 1331 1722 
L 3047 1722 
L 2188 4044 
z
M 1831 4666 
L 2547 4666 
L 4325 0 
L 3669 0 
L 3244 1197 
L 1141 1197 
L 716 0 
L 50 0 
L 1831 4666 
z
" transform="scale(0.015625)"/>
      <path id="DejaVuSans-67" d="M 2906 1791 
Q 2906 2416 2648 2759 
Q 2391 3103 1925 3103 
Q 1463 3103 1205 2759 
Q 947 2416 947 1791 
Q 947 1169 1205 825 
Q 1463 481 1925 481 
Q 2391 481 2648 825 
Q 2906 1169 2906 1791 
z
M 3481 434 
Q 3481 -459 3084 -895 
Q 2688 -1331 1869 -1331 
Q 1566 -1331 1297 -1286 
Q 1028 -1241 775 -1147 
L 775 -588 
Q 1028 -725 1275 -790 
Q 1522 -856 1778 -856 
Q 2344 -856 2625 -561 
Q 2906 -266 2906 331 
L 2906 616 
Q 2728 306 2450 153 
Q 2172 0 1784 0 
Q 1141 0 747 490 
Q 353 981 353 1791 
Q 353 2603 747 3093 
Q 1141 3584 1784 3584 
Q 2172 3584 2450 3431 
Q 2728 3278 2906 2969 
L 2906 3500 
L 3481 3500 
L 3481 434 
z
" transform="scale(0.015625)"/>
      <path id="DejaVuSans-3e" d="M 678 3150 
L 678 3719 
L 4684 2266 
L 4684 1747 
L 678 294 
L 678 863 
L 3897 2003 
L 678 3150 
z
" transform="scale(0.015625)"/>
      <path id="DejaVuSans-57" d="M 213 4666 
L 850 4666 
L 1831 722 
L 2809 4666 
L 3519 4666 
L 4500 722 
L 5478 4666 
L 6119 4666 
L 4947 0 
L 4153 0 
L 3169 4050 
L 2175 0 
L 1381 0 
L 213 4666 
z
" transform="scale(0.015625)"/>
      <path id="DejaVuSans-6b" d="M 581 4863 
L 1159 4863 
L 1159 1991 
L 2875 3500 
L 3609 3500 
L 1753 1863 
L 3688 0 
L 2938 0 
L 1159 1709 
L 1159 0 
L 581 0 
L 581 4863 
z
" transform="scale(0.015625)"/>
      <path id="DejaVuSans-29" d="M 513 4856 
L 1013 4856 
Q 1481 4119 1714 3412 
Q 1947 2706 1947 2009 
Q 1947 1309 1714 600 
Q 1481 -109 1013 -844 
L 513 -844 
Q 928 -128 1133 580 
Q 1338 1288 1338 2009 
Q 1338 2731 1133 3434 
Q 928 4138 513 4856 
z
" transform="scale(0.015625)"/>
     </defs>
     <use xlink:href="#DejaVuSans-45"/>
     <use xlink:href="#DejaVuSans-6e" x="63.183594"/>
     <use xlink:href="#DejaVuSans-74" x="126.5625"/>
     <use xlink:href="#DejaVuSans-65" x="165.771484"/>
     <use xlink:href="#DejaVuSans-72" x="227.294922"/>
     <use xlink:href="#DejaVuSans-70" x="268.408203"/>
     <use xlink:href="#DejaVuSans-72" x="331.884766"/>
     <use xlink:href="#DejaVuSans-69" x="372.998047"/>
     <use xlink:href="#DejaVuSans-73" x="400.78125"/>
     <use xlink:href="#DejaVuSans-65" x="452.880859"/>
     <use xlink:href="#DejaVuSans-20" x="514.404297"/>
     <use xlink:href="#DejaVuSans-4c" x="546.191406"/>
     <use xlink:href="#DejaVuSans-69" x="601.904297"/>
     <use xlink:href="#DejaVuSans-6e" x="629.6875"/>
     <use xlink:href="#DejaVuSans-75" x="693.066406"/>
     <use xlink:href="#DejaVuSans-78" x="756.445312"/>
     <use xlink:href="#DejaVuSans-20" x="815.625"/>
     <use xlink:href="#DejaVuSans-38" x="847.412109"/>
     <use xlink:href="#DejaVuSans-20" x="911.035156"/>
     <use xlink:href="#DejaVuSans-61" x="942.822266"/>
     <use xlink:href="#DejaVuSans-6e" x="1004.101562"/>
     <use xlink:href="#DejaVuSans-64" x="1067.480469"/>
     <use xlink:href="#DejaVuSans-20" x="1130.957031"/>
     <use xlink:href="#DejaVuSans-39" x="1162.744141"/>
     <use xlink:href="#DejaVuSans-20" x="1226.367188"/>
     <use xlink:href="#DejaVuSans-49" x="1258.154297"/>
     <use xlink:href="#DejaVuSans-6e" x="1287.646484"/>
     <use xlink:href="#DejaVuSans-73" x="1351.025391"/>
     <use xlink:href="#DejaVuSans-74" x="1403.125"/>
     <use xlink:href="#DejaVuSans-61" x="1442.333984"/>
     <use xlink:href="#DejaVuSans-6e" x="1503.613281"/>
     <use xlink:href="#DejaVuSans-63" x="1566.992188"/>
     <use xlink:href="#DejaVuSans-65" x="1621.972656"/>
     <use xlink:href="#DejaVuSans-73" x="1683.496094"/>
     <use xlink:href="#DejaVuSans-20" x="1735.595703"/>
     <use xlink:href="#DejaVuSans-62" x="1767.382812"/>
     <use xlink:href="#DejaVuSans-79" x="1830.859375"/>
     <use xlink:href="#DejaVuSans-20" x="1890.039062"/>
     <use xlink:href="#DejaVuSans-44" x="1921.826172"/>
     <use xlink:href="#DejaVuSans-69" x="1998.828125"/>
     <use xlink:href="#DejaVuSans-73" x="2026.611328"/>
     <use xlink:href="#DejaVuSans-74" x="2078.710938"/>
     <use xlink:href="#DejaVuSans-72" x="2117.919922"/>
     <use xlink:href="#DejaVuSans-69" x="2159.033203"/>
     <use xlink:href="#DejaVuSans-62" x="2186.816406"/>
     <use xlink:href="#DejaVuSans-75" x="2250.292969"/>
     <use xlink:href="#DejaVuSans-74" x="2313.671875"/>
     <use xlink:href="#DejaVuSans-69" x="2352.880859"/>
     <use xlink:href="#DejaVuSans-6f" x="2380.664062"/>
     <use xlink:href="#DejaVuSans-6e" x="2441.845703"/>
     <use xlink:href="#DejaVuSans-20" x="2505.224609"/>
     <use xlink:href="#DejaVuSans-53" x="2537.011719"/>
     <use xlink:href="#DejaVuSans-68" x="2600.488281"/>
     <use xlink:href="#DejaVuSans-61" x="2663.867188"/>
     <use xlink:href="#DejaVuSans-72" x="2725.146484"/>
     <use xlink:href="#DejaVuSans-65" x="2764.009766"/>
     <use xlink:href="#DejaVuSans-20" x="2825.533203"/>
     <use xlink:href="#DejaVuSans-28" x="2857.320312"/>
     <use xlink:href="#DejaVuSans-53" x="2896.333984"/>
     <use xlink:href="#DejaVuSans-79" x="2959.810547"/>
     <use xlink:href="#DejaVuSans-73" x="3018.990234"/>
     <use xlink:href="#DejaVuSans-74" x="3071.089844"/>
     <use xlink:href="#DejaVuSans-65" x="3110.298828"/>
     <use xlink:href="#DejaVuSans-6d" x="3171.822266"/>
     <use xlink:href="#DejaVuSans-20" x="3269.234375"/>
     <use xlink:href="#DejaVuSans-41" x="3301.021484"/>
     <use xlink:href="#DejaVuSans-67" x="3369.429688"/>
     <use xlink:href="#DejaVuSans-65" x="3432.90625"/>
     <use xlink:href="#DejaVuSans-20" x="3494.429688"/>
     <use xlink:href="#DejaVuSans-3e" x="3526.216797"/>
     <use xlink:href="#DejaVuSans-20" x="3610.005859"/>
     <use xlink:href="#DejaVuSans-31" x="3641.792969"/>
     <use xlink:href="#DejaVuSans-20" x="3705.416016"/>
     <use xlink:href="#DejaVuSans-57" x="3737.203125"/>
     <use xlink:href="#DejaVuSans-65" x="3830.205078"/>
     <use xlink:href="#DejaVuSans-65" x="3891.728516"/>
     <use xlink:href="#DejaVuSans-6b" x="3953.251953"/>
     <use xlink:href="#DejaVuSans-29" x="4011.162109"/>
    </g>
   </g>
   <g id="legend_1">
    <g id="patch_7">
     <path d="M 59.079375 120.2105 
L 168.048125 120.2105 
Q 170.048125 120.2105 170.048125 118.2105 
L 170.048125 31.14175 
Q 170.048125 29.14175 168.048125 29.14175 
L 59.079375 29.14175 
Q 57.079375 29.14175 57.079375 31.14175 
L 57.079375 118.2105 
Q 57.079375 120.2105 59.079375 120.2105 
z
" style="fill: #e5e5e5; opacity: 0.8; stroke: #cccccc; stroke-width: 0.5; stroke-linejoin: miter"/>
    </g>
    <g id="text_22">
     <!-- Distribution -->
     <g transform="translate(84.395 40.740187)scale(0.1 -0.1)">
      <use xlink:href="#DejaVuSans-44"/>
      <use xlink:href="#DejaVuSans-69" x="77.001953"/>
      <use xlink:href="#DejaVuSans-73" x="104.785156"/>
      <use xlink:href="#DejaVuSans-74" x="156.884766"/>
      <use xlink:href="#DejaVuSans-72" x="196.09375"/>
      <use xlink:href="#DejaVuSans-69" x="237.207031"/>
      <use xlink:href="#DejaVuSans-62" x="264.990234"/>
      <use xlink:href="#DejaVuSans-75" x="328.466797"/>
      <use xlink:href="#DejaVuSans-74" x="391.845703"/>
      <use xlink:href="#DejaVuSans-69" x="431.054688"/>
      <use xlink:href="#DejaVuSans-6f" x="458.837891"/>
      <use xlink:href="#DejaVuSans-6e" x="520.019531"/>
     </g>
    </g>
    <g id="line2d_47">
     <path d="M 61.079375 51.918312 
L 71.079375 51.918312 
L 81.079375 51.918312 
" style="fill: none; stroke: #4ac1fa; stroke-width: 1.5; stroke-linecap: square"/>
    </g>
    <g id="text_23">
     <!-- AlmaLinux -->
     <g transform="translate(89.079375 55.418312)scale(0.1 -0.1)">
      <defs>
       <path id="DejaVuSans-6c" d="M 603 4863 
L 1178 4863 
L 1178 0 
L 603 0 
L 603 4863 
z
" transform="scale(0.015625)"/>
      </defs>
      <use xlink:href="#DejaVuSans-41"/>
      <use xlink:href="#DejaVuSans-6c" x="68.408203"/>
      <use xlink:href="#DejaVuSans-6d" x="96.191406"/>
      <use xlink:href="#DejaVuSans-61" x="193.603516"/>
      <use xlink:href="#DejaVuSans-4c" x="254.882812"/>
      <use xlink:href="#DejaVuSans-69" x="310.595703"/>
      <use xlink:href="#DejaVuSans-6e" x="338.378906"/>
      <use xlink:href="#DejaVuSans-75" x="401.757812"/>
      <use xlink:href="#DejaVuSans-78" x="465.136719"/>
     </g>
    </g>
    <g id="line2d_48">
     <path d="M 61.079375 66.596437 
L 71.079375 66.596437 
L 81.079375 66.596437 
" style="fill: none; stroke: #9a5689; stroke-width: 1.5; stroke-linecap: square"/>
    </g>
    <g id="text_24">
     <!-- CentOS Stream -->
     <g transform="translate(89.079375 70.096437)scale(0.1 -0.1)">
      <defs>
       <path id="DejaVuSans-43" d="M 4122 4306 
L 4122 3641 
Q 3803 3938 3442 4084 
Q 3081 4231 2675 4231 
Q 1875 4231 1450 3742 
Q 1025 3253 1025 2328 
Q 1025 1406 1450 917 
Q 1875 428 2675 428 
Q 3081 428 3442 575 
Q 3803 722 4122 1019 
L 4122 359 
Q 3791 134 3420 21 
Q 3050 -91 2638 -91 
Q 1578 -91 968 557 
Q 359 1206 359 2328 
Q 359 3453 968 4101 
Q 1578 4750 2638 4750 
Q 3056 4750 3426 4639 
Q 3797 4528 4122 4306 
z
" transform="scale(0.015625)"/>
       <path id="DejaVuSans-4f" d="M 2522 4238 
Q 1834 4238 1429 3725 
Q 1025 3213 1025 2328 
Q 1025 1447 1429 934 
Q 1834 422 2522 422 
Q 3209 422 3611 934 
Q 4013 1447 4013 2328 
Q 4013 3213 3611 3725 
Q 3209 4238 2522 4238 
z
M 2522 4750 
Q 3503 4750 4090 4092 
Q 4678 3434 4678 2328 
Q 4678 1225 4090 567 
Q 3503 -91 2522 -91 
Q 1538 -91 948 565 
Q 359 1222 359 2328 
Q 359 3434 948 4092 
Q 1538 4750 2522 4750 
z
" transform="scale(0.015625)"/>
      </defs>
      <use xlink:href="#DejaVuSans-43"/>
      <use xlink:href="#DejaVuSans-65" x="69.824219"/>
      <use xlink:href="#DejaVuSans-6e" x="131.347656"/>
      <use xlink:href="#DejaVuSans-74" x="194.726562"/>
      <use xlink:href="#DejaVuSans-4f" x="233.935547"/>
      <use xlink:href="#DejaVuSans-53" x="312.646484"/>
      <use xlink:href="#DejaVuSans-20" x="376.123047"/>
      <use xlink:href="#DejaVuSans-53" x="407.910156"/>
      <use xlink:href="#DejaVuSans-74" x="471.386719"/>
      <use xlink:href="#DejaVuSans-72" x="510.595703"/>
      <use xlink:href="#DejaVuSans-65" x="549.458984"/>
      <use xlink:href="#DejaVuSans-61" x="610.982422"/>
      <use xlink:href="#DejaVuSans-6d" x="672.261719"/>
     </g>
    </g>
    <g id="line2d_49">
     <path d="M 61.079375 81.274563 
L 71.079375 81.274563 
L 81.079375 81.274563 
" style="fill: none; stroke: #be503b; stroke-width: 1.5; stroke-linecap: square"/>
    </g>
    <g id="text_25">
     <!-- Oracle -->
     <g transform="translate(89.079375 84.774563)scale(0.1 -0.1)">
      <use xlink:href="#DejaVuSans-4f"/>
      <use xlink:href="#DejaVuSans-72" x="78.710938"/>
      <use xlink:href="#DejaVuSans-61" x="119.824219"/>
      <use xlink:href="#DejaVuSans-63" x="181.103516"/>
      <use xlink:href="#DejaVuSans-6c" x="236.083984"/>
      <use xlink:href="#DejaVuSans-65" x="263.867188"/>
     </g>
    </g>
    <g id="line2d_50">
     <path d="M 61.079375 95.952687 
L 71.079375 95.952687 
L 81.079375 95.952687 
" style="fill: none; stroke: #e2321d; stroke-width: 1.5; stroke-linecap: square"/>
    </g>
    <g id="text_26">
     <!-- RHEL -->
     <g transform="translate(89.079375 99.452687)scale(0.1 -0.1)">
      <defs>
       <path id="DejaVuSans-52" d="M 2841 2188 
Q 3044 2119 3236 1894 
Q 3428 1669 3622 1275 
L 4263 0 
L 3584 0 
L 2988 1197 
Q 2756 1666 2539 1819 
Q 2322 1972 1947 1972 
L 1259 1972 
L 1259 0 
L 628 0 
L 628 4666 
L 2053 4666 
Q 2853 4666 3247 4331 
Q 3641 3997 3641 3322 
Q 3641 2881 3436 2590 
Q 3231 2300 2841 2188 
z
M 1259 4147 
L 1259 2491 
L 2053 2491 
Q 2509 2491 2742 2702 
Q 2975 2913 2975 3322 
Q 2975 3731 2742 3939 
Q 2509 4147 2053 4147 
L 1259 4147 
z
" transform="scale(0.015625)"/>
       <path id="DejaVuSans-48" d="M 628 4666 
L 1259 4666 
L 1259 2753 
L 3553 2753 
L 3553 4666 
L 4184 4666 
L 4184 0 
L 3553 0 
L 3553 2222 
L 1259 2222 
L 1259 0 
L 628 0 
L 628 4666 
z
" transform="scale(0.015625)"/>
      </defs>
      <use xlink:href="#DejaVuSans-52"/>
      <use xlink:href="#DejaVuSans-48" x="69.482422"/>
      <use xlink:href="#DejaVuSans-45" x="144.677734"/>
      <use xlink:href="#DejaVuSans-4c" x="207.861328"/>
     </g>
    </g>
    <g id="line2d_51">
     <path d="M 61.079375 110.630812 
L 71.079375 110.630812 
L 81.079375 110.630812 
" style="fill: none; stroke: #48b585; stroke-width: 6; stroke-linecap: square"/>
    </g>
    <g id="text_27">
     <!-- Rocky Linux -->
     <g transform="translate(89.079375 114.130812)scale(0.1 -0.1)">
      <use xlink:href="#DejaVuSans-52"/>
      <use xlink:href="#DejaVuSans-6f" x="64.982422"/>
      <use xlink:href="#DejaVuSans-63" x="126.164062"/>
      <use xlink:href="#DejaVuSans-6b" x="181.144531"/>
      <use xlink:href="#DejaVuSans-79" x="235.429688"/>
      <use xlink:href="#DejaVuSans-20" x="294.609375"/>
      <use xlink:href="#DejaVuSans-4c" x="326.396484"/>
      <use xlink:href="#DejaVuSans-69" x="382.109375"/>
      <use xlink:href="#DejaVuSans-6e" x="409.892578"/>
      <use xlink:href="#DejaVuSans-75" x="473.271484"/>
      <use xlink:href="#DejaVuSans-78" x="536.650391"/>
     </g>
    </g>
   </g>
  </g>
 </g>
 <defs>
  <clipPath id="pa22135d276">
   <rect x="52.079375" y="24.14175" width="902.844" height="543.6"/>
  </clipPath>
 </defs>
</svg>
