<?xml version="1.0" encoding="utf-8" standalone="no"?>
<!DOCTYPE svg PUBLIC "-//W3C//DTD SVG 1.1//EN"
  "http://www.w3.org/Graphics/SVG/1.1/DTD/svg11.dtd">
<svg xmlns:xlink="http://www.w3.org/1999/xlink" width="964.735875pt" height="633.943878pt" viewBox="0 0 964.735875 633.943878" xmlns="http://www.w3.org/2000/svg" version="1.1">
 <metadata>
  <rdf:RDF xmlns:dc="http://purl.org/dc/elements/1.1/" xmlns:cc="http://creativecommons.org/ns#" xmlns:rdf="http://www.w3.org/1999/02/22-rdf-syntax-ns#">
   <cc:Work>
    <dc:type rdf:resource="http://purl.org/dc/dcmitype/StillImage"/>
    <dc:date>2024-10-31T11:54:58.244069</dc:date>
    <dc:format>image/svg+xml</dc:format>
    <dc:creator>
     <cc:Agent>
      <dc:title>Matplotlib v3.5.1, https://matplotlib.org/</dc:title>
     </cc:Agent>
    </dc:creator>
   </cc:Work>
  </rdf:RDF>
 </metadata>
 <defs>
  <style type="text/css">*{stroke-linejoin: round; stroke-linecap: butt}</style>
 </defs>
 <g id="figure_1">
  <g id="patch_1">
   <path d="M 0 633.943878 
L 964.735875 633.943878 
L 964.735875 0 
L 0 0 
z
" style="fill: #ffffff"/>
  </g>
  <g id="axes_1">
   <g id="patch_2">
    <path d="M 54.691875 567.74175 
L 957.535875 567.74175 
L 957.535875 24.14175 
L 54.691875 24.14175 
z
" style="fill: #e5e5e5"/>
   </g>
   <g id="matplotlib.axis_1">
    <g id="xtick_1">
     <g id="line2d_1">
      <path d="M 112.600237 567.74175 
L 112.600237 24.14175 
" clip-path="url(#p1aff0ac4f8)" style="fill: none; stroke: #ffffff; stroke-width: 0.8; stroke-linecap: square"/>
     </g>
     <g id="line2d_2">
      <defs>
       <path id="ma8a6c0fd4e" d="M 0 0 
L 0 3.5 
" style="stroke: #555555; stroke-width: 0.8"/>
      </defs>
      <g>
       <use xlink:href="#ma8a6c0fd4e" x="112.600237" y="567.74175" style="fill: #555555; stroke: #555555; stroke-width: 0.8"/>
      </g>
     </g>
     <g id="text_1">
      <!-- 2023-12 -->
      <g style="fill: #555555" transform="translate(99.778954 609.659567)rotate(-45)scale(0.1 -0.1)">
       <defs>
        <path id="DejaVuSans-32" d="M 1228 531 
L 3431 531 
L 3431 0 
L 469 0 
L 469 531 
Q 828 903 1448 1529 
Q 2069 2156 2228 2338 
Q 2531 2678 2651 2914 
Q 2772 3150 2772 3378 
Q 2772 3750 2511 3984 
Q 2250 4219 1831 4219 
Q 1534 4219 1204 4116 
Q 875 4013 500 3803 
L 500 4441 
Q 881 4594 1212 4672 
Q 1544 4750 1819 4750 
Q 2544 4750 2975 4387 
Q 3406 4025 3406 3419 
Q 3406 3131 3298 2873 
Q 3191 2616 2906 2266 
Q 2828 2175 2409 1742 
Q 1991 1309 1228 531 
z
" transform="scale(0.015625)"/>
        <path id="DejaVuSans-30" d="M 2034 4250 
Q 1547 4250 1301 3770 
Q 1056 3291 1056 2328 
Q 1056 1369 1301 889 
Q 1547 409 2034 409 
Q 2525 409 2770 889 
Q 3016 1369 3016 2328 
Q 3016 3291 2770 3770 
Q 2525 4250 2034 4250 
z
M 2034 4750 
Q 2819 4750 3233 4129 
Q 3647 3509 3647 2328 
Q 3647 1150 3233 529 
Q 2819 -91 2034 -91 
Q 1250 -91 836 529 
Q 422 1150 422 2328 
Q 422 3509 836 4129 
Q 1250 4750 2034 4750 
z
" transform="scale(0.015625)"/>
        <path id="DejaVuSans-33" d="M 2597 2516 
Q 3050 2419 3304 2112 
Q 3559 1806 3559 1356 
Q 3559 666 3084 287 
Q 2609 -91 1734 -91 
Q 1441 -91 1130 -33 
Q 819 25 488 141 
L 488 750 
Q 750 597 1062 519 
Q 1375 441 1716 441 
Q 2309 441 2620 675 
Q 2931 909 2931 1356 
Q 2931 1769 2642 2001 
Q 2353 2234 1838 2234 
L 1294 2234 
L 1294 2753 
L 1863 2753 
Q 2328 2753 2575 2939 
Q 2822 3125 2822 3475 
Q 2822 3834 2567 4026 
Q 2313 4219 1838 4219 
Q 1578 4219 1281 4162 
Q 984 4106 628 3988 
L 628 4550 
Q 988 4650 1302 4700 
Q 1616 4750 1894 4750 
Q 2613 4750 3031 4423 
Q 3450 4097 3450 3541 
Q 3450 3153 3228 2886 
Q 3006 2619 2597 2516 
z
" transform="scale(0.015625)"/>
        <path id="DejaVuSans-2d" d="M 313 2009 
L 1997 2009 
L 1997 1497 
L 313 1497 
L 313 2009 
z
" transform="scale(0.015625)"/>
        <path id="DejaVuSans-31" d="M 794 531 
L 1825 531 
L 1825 4091 
L 703 3866 
L 703 4441 
L 1819 4666 
L 2450 4666 
L 2450 531 
L 3481 531 
L 3481 0 
L 794 0 
L 794 531 
z
" transform="scale(0.015625)"/>
       </defs>
       <use xlink:href="#DejaVuSans-32"/>
       <use xlink:href="#DejaVuSans-30" x="63.623047"/>
       <use xlink:href="#DejaVuSans-32" x="127.246094"/>
       <use xlink:href="#DejaVuSans-33" x="190.869141"/>
       <use xlink:href="#DejaVuSans-2d" x="254.492188"/>
       <use xlink:href="#DejaVuSans-31" x="290.576172"/>
       <use xlink:href="#DejaVuSans-32" x="354.199219"/>
      </g>
     </g>
    </g>
    <g id="xtick_2">
     <g id="line2d_3">
      <path d="M 194.198382 567.74175 
L 194.198382 24.14175 
" clip-path="url(#p1aff0ac4f8)" style="fill: none; stroke: #ffffff; stroke-width: 0.8; stroke-linecap: square"/>
     </g>
     <g id="line2d_4">
      <g>
       <use xlink:href="#ma8a6c0fd4e" x="194.198382" y="567.74175" style="fill: #555555; stroke: #555555; stroke-width: 0.8"/>
      </g>
     </g>
     <g id="text_2">
      <!-- 2024-01 -->
      <g style="fill: #555555" transform="translate(181.3771 609.659567)rotate(-45)scale(0.1 -0.1)">
       <defs>
        <path id="DejaVuSans-34" d="M 2419 4116 
L 825 1625 
L 2419 1625 
L 2419 4116 
z
M 2253 4666 
L 3047 4666 
L 3047 1625 
L 3713 1625 
L 3713 1100 
L 3047 1100 
L 3047 0 
L 2419 0 
L 2419 1100 
L 313 1100 
L 313 1709 
L 2253 4666 
z
" transform="scale(0.015625)"/>
       </defs>
       <use xlink:href="#DejaVuSans-32"/>
       <use xlink:href="#DejaVuSans-30" x="63.623047"/>
       <use xlink:href="#DejaVuSans-32" x="127.246094"/>
       <use xlink:href="#DejaVuSans-34" x="190.869141"/>
       <use xlink:href="#DejaVuSans-2d" x="254.492188"/>
       <use xlink:href="#DejaVuSans-30" x="290.576172"/>
       <use xlink:href="#DejaVuSans-31" x="354.199219"/>
      </g>
     </g>
    </g>
    <g id="xtick_3">
     <g id="line2d_5">
      <path d="M 275.796528 567.74175 
L 275.796528 24.14175 
" clip-path="url(#p1aff0ac4f8)" style="fill: none; stroke: #ffffff; stroke-width: 0.8; stroke-linecap: square"/>
     </g>
     <g id="line2d_6">
      <g>
       <use xlink:href="#ma8a6c0fd4e" x="275.796528" y="567.74175" style="fill: #555555; stroke: #555555; stroke-width: 0.8"/>
      </g>
     </g>
     <g id="text_3">
      <!-- 2024-02 -->
      <g style="fill: #555555" transform="translate(262.975246 609.659567)rotate(-45)scale(0.1 -0.1)">
       <use xlink:href="#DejaVuSans-32"/>
       <use xlink:href="#DejaVuSans-30" x="63.623047"/>
       <use xlink:href="#DejaVuSans-32" x="127.246094"/>
       <use xlink:href="#DejaVuSans-34" x="190.869141"/>
       <use xlink:href="#DejaVuSans-2d" x="254.492188"/>
       <use xlink:href="#DejaVuSans-30" x="290.576172"/>
       <use xlink:href="#DejaVuSans-32" x="354.199219"/>
      </g>
     </g>
    </g>
    <g id="xtick_4">
     <g id="line2d_7">
      <path d="M 352.130277 567.74175 
L 352.130277 24.14175 
" clip-path="url(#p1aff0ac4f8)" style="fill: none; stroke: #ffffff; stroke-width: 0.8; stroke-linecap: square"/>
     </g>
     <g id="line2d_8">
      <g>
       <use xlink:href="#ma8a6c0fd4e" x="352.130277" y="567.74175" style="fill: #555555; stroke: #555555; stroke-width: 0.8"/>
      </g>
     </g>
     <g id="text_4">
      <!-- 2024-03 -->
      <g style="fill: #555555" transform="translate(339.308995 609.659567)rotate(-45)scale(0.1 -0.1)">
       <use xlink:href="#DejaVuSans-32"/>
       <use xlink:href="#DejaVuSans-30" x="63.623047"/>
       <use xlink:href="#DejaVuSans-32" x="127.246094"/>
       <use xlink:href="#DejaVuSans-34" x="190.869141"/>
       <use xlink:href="#DejaVuSans-2d" x="254.492188"/>
       <use xlink:href="#DejaVuSans-30" x="290.576172"/>
       <use xlink:href="#DejaVuSans-33" x="354.199219"/>
      </g>
     </g>
    </g>
    <g id="xtick_5">
     <g id="line2d_9">
      <path d="M 433.728423 567.74175 
L 433.728423 24.14175 
" clip-path="url(#p1aff0ac4f8)" style="fill: none; stroke: #ffffff; stroke-width: 0.8; stroke-linecap: square"/>
     </g>
     <g id="line2d_10">
      <g>
       <use xlink:href="#ma8a6c0fd4e" x="433.728423" y="567.74175" style="fill: #555555; stroke: #555555; stroke-width: 0.8"/>
      </g>
     </g>
     <g id="text_5">
      <!-- 2024-04 -->
      <g style="fill: #555555" transform="translate(420.907141 609.659567)rotate(-45)scale(0.1 -0.1)">
       <use xlink:href="#DejaVuSans-32"/>
       <use xlink:href="#DejaVuSans-30" x="63.623047"/>
       <use xlink:href="#DejaVuSans-32" x="127.246094"/>
       <use xlink:href="#DejaVuSans-34" x="190.869141"/>
       <use xlink:href="#DejaVuSans-2d" x="254.492188"/>
       <use xlink:href="#DejaVuSans-30" x="290.576172"/>
       <use xlink:href="#DejaVuSans-34" x="354.199219"/>
      </g>
     </g>
    </g>
    <g id="xtick_6">
     <g id="line2d_11">
      <path d="M 512.694371 567.74175 
L 512.694371 24.14175 
" clip-path="url(#p1aff0ac4f8)" style="fill: none; stroke: #ffffff; stroke-width: 0.8; stroke-linecap: square"/>
     </g>
     <g id="line2d_12">
      <g>
       <use xlink:href="#ma8a6c0fd4e" x="512.694371" y="567.74175" style="fill: #555555; stroke: #555555; stroke-width: 0.8"/>
      </g>
     </g>
     <g id="text_6">
      <!-- 2024-05 -->
      <g style="fill: #555555" transform="translate(499.873088 609.659567)rotate(-45)scale(0.1 -0.1)">
       <defs>
        <path id="DejaVuSans-35" d="M 691 4666 
L 3169 4666 
L 3169 4134 
L 1269 4134 
L 1269 2991 
Q 1406 3038 1543 3061 
Q 1681 3084 1819 3084 
Q 2600 3084 3056 2656 
Q 3513 2228 3513 1497 
Q 3513 744 3044 326 
Q 2575 -91 1722 -91 
Q 1428 -91 1123 -41 
Q 819 9 494 109 
L 494 744 
Q 775 591 1075 516 
Q 1375 441 1709 441 
Q 2250 441 2565 725 
Q 2881 1009 2881 1497 
Q 2881 1984 2565 2268 
Q 2250 2553 1709 2553 
Q 1456 2553 1204 2497 
Q 953 2441 691 2322 
L 691 4666 
z
" transform="scale(0.015625)"/>
       </defs>
       <use xlink:href="#DejaVuSans-32"/>
       <use xlink:href="#DejaVuSans-30" x="63.623047"/>
       <use xlink:href="#DejaVuSans-32" x="127.246094"/>
       <use xlink:href="#DejaVuSans-34" x="190.869141"/>
       <use xlink:href="#DejaVuSans-2d" x="254.492188"/>
       <use xlink:href="#DejaVuSans-30" x="290.576172"/>
       <use xlink:href="#DejaVuSans-35" x="354.199219"/>
      </g>
     </g>
    </g>
    <g id="xtick_7">
     <g id="line2d_13">
      <path d="M 594.292516 567.74175 
L 594.292516 24.14175 
" clip-path="url(#p1aff0ac4f8)" style="fill: none; stroke: #ffffff; stroke-width: 0.8; stroke-linecap: square"/>
     </g>
     <g id="line2d_14">
      <g>
       <use xlink:href="#ma8a6c0fd4e" x="594.292516" y="567.74175" style="fill: #555555; stroke: #555555; stroke-width: 0.8"/>
      </g>
     </g>
     <g id="text_7">
      <!-- 2024-06 -->
      <g style="fill: #555555" transform="translate(581.471234 609.659567)rotate(-45)scale(0.1 -0.1)">
       <defs>
        <path id="DejaVuSans-36" d="M 2113 2584 
Q 1688 2584 1439 2293 
Q 1191 2003 1191 1497 
Q 1191 994 1439 701 
Q 1688 409 2113 409 
Q 2538 409 2786 701 
Q 3034 994 3034 1497 
Q 3034 2003 2786 2293 
Q 2538 2584 2113 2584 
z
M 3366 4563 
L 3366 3988 
Q 3128 4100 2886 4159 
Q 2644 4219 2406 4219 
Q 1781 4219 1451 3797 
Q 1122 3375 1075 2522 
Q 1259 2794 1537 2939 
Q 1816 3084 2150 3084 
Q 2853 3084 3261 2657 
Q 3669 2231 3669 1497 
Q 3669 778 3244 343 
Q 2819 -91 2113 -91 
Q 1303 -91 875 529 
Q 447 1150 447 2328 
Q 447 3434 972 4092 
Q 1497 4750 2381 4750 
Q 2619 4750 2861 4703 
Q 3103 4656 3366 4563 
z
" transform="scale(0.015625)"/>
       </defs>
       <use xlink:href="#DejaVuSans-32"/>
       <use xlink:href="#DejaVuSans-30" x="63.623047"/>
       <use xlink:href="#DejaVuSans-32" x="127.246094"/>
       <use xlink:href="#DejaVuSans-34" x="190.869141"/>
       <use xlink:href="#DejaVuSans-2d" x="254.492188"/>
       <use xlink:href="#DejaVuSans-30" x="290.576172"/>
       <use xlink:href="#DejaVuSans-36" x="354.199219"/>
      </g>
     </g>
    </g>
    <g id="xtick_8">
     <g id="line2d_15">
      <path d="M 673.258464 567.74175 
L 673.258464 24.14175 
" clip-path="url(#p1aff0ac4f8)" style="fill: none; stroke: #ffffff; stroke-width: 0.8; stroke-linecap: square"/>
     </g>
     <g id="line2d_16">
      <g>
       <use xlink:href="#ma8a6c0fd4e" x="673.258464" y="567.74175" style="fill: #555555; stroke: #555555; stroke-width: 0.8"/>
      </g>
     </g>
     <g id="text_8">
      <!-- 2024-07 -->
      <g style="fill: #555555" transform="translate(660.437182 609.659567)rotate(-45)scale(0.1 -0.1)">
       <defs>
        <path id="DejaVuSans-37" d="M 525 4666 
L 3525 4666 
L 3525 4397 
L 1831 0 
L 1172 0 
L 2766 4134 
L 525 4134 
L 525 4666 
z
" transform="scale(0.015625)"/>
       </defs>
       <use xlink:href="#DejaVuSans-32"/>
       <use xlink:href="#DejaVuSans-30" x="63.623047"/>
       <use xlink:href="#DejaVuSans-32" x="127.246094"/>
       <use xlink:href="#DejaVuSans-34" x="190.869141"/>
       <use xlink:href="#DejaVuSans-2d" x="254.492188"/>
       <use xlink:href="#DejaVuSans-30" x="290.576172"/>
       <use xlink:href="#DejaVuSans-37" x="354.199219"/>
      </g>
     </g>
    </g>
    <g id="xtick_9">
     <g id="line2d_17">
      <path d="M 754.85661 567.74175 
L 754.85661 24.14175 
" clip-path="url(#p1aff0ac4f8)" style="fill: none; stroke: #ffffff; stroke-width: 0.8; stroke-linecap: square"/>
     </g>
     <g id="line2d_18">
      <g>
       <use xlink:href="#ma8a6c0fd4e" x="754.85661" y="567.74175" style="fill: #555555; stroke: #555555; stroke-width: 0.8"/>
      </g>
     </g>
     <g id="text_9">
      <!-- 2024-08 -->
      <g style="fill: #555555" transform="translate(742.035327 609.659567)rotate(-45)scale(0.1 -0.1)">
       <defs>
        <path id="DejaVuSans-38" d="M 2034 2216 
Q 1584 2216 1326 1975 
Q 1069 1734 1069 1313 
Q 1069 891 1326 650 
Q 1584 409 2034 409 
Q 2484 409 2743 651 
Q 3003 894 3003 1313 
Q 3003 1734 2745 1975 
Q 2488 2216 2034 2216 
z
M 1403 2484 
Q 997 2584 770 2862 
Q 544 3141 544 3541 
Q 544 4100 942 4425 
Q 1341 4750 2034 4750 
Q 2731 4750 3128 4425 
Q 3525 4100 3525 3541 
Q 3525 3141 3298 2862 
Q 3072 2584 2669 2484 
Q 3125 2378 3379 2068 
Q 3634 1759 3634 1313 
Q 3634 634 3220 271 
Q 2806 -91 2034 -91 
Q 1263 -91 848 271 
Q 434 634 434 1313 
Q 434 1759 690 2068 
Q 947 2378 1403 2484 
z
M 1172 3481 
Q 1172 3119 1398 2916 
Q 1625 2713 2034 2713 
Q 2441 2713 2670 2916 
Q 2900 3119 2900 3481 
Q 2900 3844 2670 4047 
Q 2441 4250 2034 4250 
Q 1625 4250 1398 4047 
Q 1172 3844 1172 3481 
z
" transform="scale(0.015625)"/>
       </defs>
       <use xlink:href="#DejaVuSans-32"/>
       <use xlink:href="#DejaVuSans-30" x="63.623047"/>
       <use xlink:href="#DejaVuSans-32" x="127.246094"/>
       <use xlink:href="#DejaVuSans-34" x="190.869141"/>
       <use xlink:href="#DejaVuSans-2d" x="254.492188"/>
       <use xlink:href="#DejaVuSans-30" x="290.576172"/>
       <use xlink:href="#DejaVuSans-38" x="354.199219"/>
      </g>
     </g>
    </g>
    <g id="xtick_10">
     <g id="line2d_19">
      <path d="M 836.454755 567.74175 
L 836.454755 24.14175 
" clip-path="url(#p1aff0ac4f8)" style="fill: none; stroke: #ffffff; stroke-width: 0.8; stroke-linecap: square"/>
     </g>
     <g id="line2d_20">
      <g>
       <use xlink:href="#ma8a6c0fd4e" x="836.454755" y="567.74175" style="fill: #555555; stroke: #555555; stroke-width: 0.8"/>
      </g>
     </g>
     <g id="text_10">
      <!-- 2024-09 -->
      <g style="fill: #555555" transform="translate(823.633473 609.659567)rotate(-45)scale(0.1 -0.1)">
       <defs>
        <path id="DejaVuSans-39" d="M 703 97 
L 703 672 
Q 941 559 1184 500 
Q 1428 441 1663 441 
Q 2288 441 2617 861 
Q 2947 1281 2994 2138 
Q 2813 1869 2534 1725 
Q 2256 1581 1919 1581 
Q 1219 1581 811 2004 
Q 403 2428 403 3163 
Q 403 3881 828 4315 
Q 1253 4750 1959 4750 
Q 2769 4750 3195 4129 
Q 3622 3509 3622 2328 
Q 3622 1225 3098 567 
Q 2575 -91 1691 -91 
Q 1453 -91 1209 -44 
Q 966 3 703 97 
z
M 1959 2075 
Q 2384 2075 2632 2365 
Q 2881 2656 2881 3163 
Q 2881 3666 2632 3958 
Q 2384 4250 1959 4250 
Q 1534 4250 1286 3958 
Q 1038 3666 1038 3163 
Q 1038 2656 1286 2365 
Q 1534 2075 1959 2075 
z
" transform="scale(0.015625)"/>
       </defs>
       <use xlink:href="#DejaVuSans-32"/>
       <use xlink:href="#DejaVuSans-30" x="63.623047"/>
       <use xlink:href="#DejaVuSans-32" x="127.246094"/>
       <use xlink:href="#DejaVuSans-34" x="190.869141"/>
       <use xlink:href="#DejaVuSans-2d" x="254.492188"/>
       <use xlink:href="#DejaVuSans-30" x="290.576172"/>
       <use xlink:href="#DejaVuSans-39" x="354.199219"/>
      </g>
     </g>
    </g>
    <g id="xtick_11">
     <g id="line2d_21">
      <path d="M 915.420703 567.74175 
L 915.420703 24.14175 
" clip-path="url(#p1aff0ac4f8)" style="fill: none; stroke: #ffffff; stroke-width: 0.8; stroke-linecap: square"/>
     </g>
     <g id="line2d_22">
      <g>
       <use xlink:href="#ma8a6c0fd4e" x="915.420703" y="567.74175" style="fill: #555555; stroke: #555555; stroke-width: 0.8"/>
      </g>
     </g>
     <g id="text_11">
      <!-- 2024-10 -->
      <g style="fill: #555555" transform="translate(902.599421 609.659567)rotate(-45)scale(0.1 -0.1)">
       <use xlink:href="#DejaVuSans-32"/>
       <use xlink:href="#DejaVuSans-30" x="63.623047"/>
       <use xlink:href="#DejaVuSans-32" x="127.246094"/>
       <use xlink:href="#DejaVuSans-34" x="190.869141"/>
       <use xlink:href="#DejaVuSans-2d" x="254.492188"/>
       <use xlink:href="#DejaVuSans-31" x="290.576172"/>
       <use xlink:href="#DejaVuSans-30" x="354.199219"/>
      </g>
     </g>
    </g>
    <g id="text_12">
     <!-- Date -->
     <g style="fill: #555555" transform="translate(491.772938 624.248253)scale(0.12 -0.12)">
      <defs>
       <path id="DejaVuSans-44" d="M 1259 4147 
L 1259 519 
L 2022 519 
Q 2988 519 3436 956 
Q 3884 1394 3884 2338 
Q 3884 3275 3436 3711 
Q 2988 4147 2022 4147 
L 1259 4147 
z
M 628 4666 
L 1925 4666 
Q 3281 4666 3915 4102 
Q 4550 3538 4550 2338 
Q 4550 1131 3912 565 
Q 3275 0 1925 0 
L 628 0 
L 628 4666 
z
" transform="scale(0.015625)"/>
       <path id="DejaVuSans-61" d="M 2194 1759 
Q 1497 1759 1228 1600 
Q 959 1441 959 1056 
Q 959 750 1161 570 
Q 1363 391 1709 391 
Q 2188 391 2477 730 
Q 2766 1069 2766 1631 
L 2766 1759 
L 2194 1759 
z
M 3341 1997 
L 3341 0 
L 2766 0 
L 2766 531 
Q 2569 213 2275 61 
Q 1981 -91 1556 -91 
Q 1019 -91 701 211 
Q 384 513 384 1019 
Q 384 1609 779 1909 
Q 1175 2209 1959 2209 
L 2766 2209 
L 2766 2266 
Q 2766 2663 2505 2880 
Q 2244 3097 1772 3097 
Q 1472 3097 1187 3025 
Q 903 2953 641 2809 
L 641 3341 
Q 956 3463 1253 3523 
Q 1550 3584 1831 3584 
Q 2591 3584 2966 3190 
Q 3341 2797 3341 1997 
z
" transform="scale(0.015625)"/>
       <path id="DejaVuSans-74" d="M 1172 4494 
L 1172 3500 
L 2356 3500 
L 2356 3053 
L 1172 3053 
L 1172 1153 
Q 1172 725 1289 603 
Q 1406 481 1766 481 
L 2356 481 
L 2356 0 
L 1766 0 
Q 1100 0 847 248 
Q 594 497 594 1153 
L 594 3053 
L 172 3053 
L 172 3500 
L 594 3500 
L 594 4494 
L 1172 4494 
z
" transform="scale(0.015625)"/>
       <path id="DejaVuSans-65" d="M 3597 1894 
L 3597 1613 
L 953 1613 
Q 991 1019 1311 708 
Q 1631 397 2203 397 
Q 2534 397 2845 478 
Q 3156 559 3463 722 
L 3463 178 
Q 3153 47 2828 -22 
Q 2503 -91 2169 -91 
Q 1331 -91 842 396 
Q 353 884 353 1716 
Q 353 2575 817 3079 
Q 1281 3584 2069 3584 
Q 2775 3584 3186 3129 
Q 3597 2675 3597 1894 
z
M 3022 2063 
Q 3016 2534 2758 2815 
Q 2500 3097 2075 3097 
Q 1594 3097 1305 2825 
Q 1016 2553 972 2059 
L 3022 2063 
z
" transform="scale(0.015625)"/>
      </defs>
      <use xlink:href="#DejaVuSans-44"/>
      <use xlink:href="#DejaVuSans-61" x="77.001953"/>
      <use xlink:href="#DejaVuSans-74" x="138.28125"/>
      <use xlink:href="#DejaVuSans-65" x="177.490234"/>
     </g>
    </g>
   </g>
   <g id="matplotlib.axis_2">
    <g id="ytick_1">
     <g id="line2d_23">
      <path d="M 54.691875 567.74175 
L 957.535875 567.74175 
" clip-path="url(#p1aff0ac4f8)" style="fill: none; stroke: #ffffff; stroke-width: 0.8; stroke-linecap: square"/>
     </g>
     <g id="line2d_24">
      <defs>
       <path id="mda8b1bc4e7" d="M 0 0 
L -3.5 0 
" style="stroke: #555555; stroke-width: 0.8"/>
      </defs>
      <g>
       <use xlink:href="#mda8b1bc4e7" x="54.691875" y="567.74175" style="fill: #555555; stroke: #555555; stroke-width: 0.8"/>
      </g>
     </g>
     <g id="text_13">
      <!-- 0k -->
      <g style="fill: #555555" transform="translate(35.53875 571.540969)scale(0.1 -0.1)">
       <defs>
        <path id="DejaVuSans-6b" d="M 581 4863 
L 1159 4863 
L 1159 1991 
L 2875 3500 
L 3609 3500 
L 1753 1863 
L 3688 0 
L 2938 0 
L 1159 1709 
L 1159 0 
L 581 0 
L 581 4863 
z
" transform="scale(0.015625)"/>
       </defs>
       <use xlink:href="#DejaVuSans-30"/>
       <use xlink:href="#DejaVuSans-6b" x="63.623047"/>
      </g>
     </g>
    </g>
    <g id="ytick_2">
     <g id="line2d_25">
      <path d="M 54.691875 458.080959 
L 957.535875 458.080959 
" clip-path="url(#p1aff0ac4f8)" style="fill: none; stroke: #ffffff; stroke-width: 0.8; stroke-linecap: square"/>
     </g>
     <g id="line2d_26">
      <g>
       <use xlink:href="#mda8b1bc4e7" x="54.691875" y="458.080959" style="fill: #555555; stroke: #555555; stroke-width: 0.8"/>
      </g>
     </g>
     <g id="text_14">
      <!-- 100k -->
      <g style="fill: #555555" transform="translate(22.81375 461.880178)scale(0.1 -0.1)">
       <use xlink:href="#DejaVuSans-31"/>
       <use xlink:href="#DejaVuSans-30" x="63.623047"/>
       <use xlink:href="#DejaVuSans-30" x="127.246094"/>
       <use xlink:href="#DejaVuSans-6b" x="190.869141"/>
      </g>
     </g>
    </g>
    <g id="ytick_3">
     <g id="line2d_27">
      <path d="M 54.691875 348.420168 
L 957.535875 348.420168 
" clip-path="url(#p1aff0ac4f8)" style="fill: none; stroke: #ffffff; stroke-width: 0.8; stroke-linecap: square"/>
     </g>
     <g id="line2d_28">
      <g>
       <use xlink:href="#mda8b1bc4e7" x="54.691875" y="348.420168" style="fill: #555555; stroke: #555555; stroke-width: 0.8"/>
      </g>
     </g>
     <g id="text_15">
      <!-- 200k -->
      <g style="fill: #555555" transform="translate(22.81375 352.219387)scale(0.1 -0.1)">
       <use xlink:href="#DejaVuSans-32"/>
       <use xlink:href="#DejaVuSans-30" x="63.623047"/>
       <use xlink:href="#DejaVuSans-30" x="127.246094"/>
       <use xlink:href="#DejaVuSans-6b" x="190.869141"/>
      </g>
     </g>
    </g>
    <g id="ytick_4">
     <g id="line2d_29">
      <path d="M 54.691875 238.759377 
L 957.535875 238.759377 
" clip-path="url(#p1aff0ac4f8)" style="fill: none; stroke: #ffffff; stroke-width: 0.8; stroke-linecap: square"/>
     </g>
     <g id="line2d_30">
      <g>
       <use xlink:href="#mda8b1bc4e7" x="54.691875" y="238.759377" style="fill: #555555; stroke: #555555; stroke-width: 0.8"/>
      </g>
     </g>
     <g id="text_16">
      <!-- 300k -->
      <g style="fill: #555555" transform="translate(22.81375 242.558596)scale(0.1 -0.1)">
       <use xlink:href="#DejaVuSans-33"/>
       <use xlink:href="#DejaVuSans-30" x="63.623047"/>
       <use xlink:href="#DejaVuSans-30" x="127.246094"/>
       <use xlink:href="#DejaVuSans-6b" x="190.869141"/>
      </g>
     </g>
    </g>
    <g id="ytick_5">
     <g id="line2d_31">
      <path d="M 54.691875 129.098586 
L 957.535875 129.098586 
" clip-path="url(#p1aff0ac4f8)" style="fill: none; stroke: #ffffff; stroke-width: 0.8; stroke-linecap: square"/>
     </g>
     <g id="line2d_32">
      <g>
       <use xlink:href="#mda8b1bc4e7" x="54.691875" y="129.098586" style="fill: #555555; stroke: #555555; stroke-width: 0.8"/>
      </g>
     </g>
     <g id="text_17">
      <!-- 400k -->
      <g style="fill: #555555" transform="translate(22.81375 132.897805)scale(0.1 -0.1)">
       <use xlink:href="#DejaVuSans-34"/>
       <use xlink:href="#DejaVuSans-30" x="63.623047"/>
       <use xlink:href="#DejaVuSans-30" x="127.246094"/>
       <use xlink:href="#DejaVuSans-6b" x="190.869141"/>
      </g>
     </g>
    </g>
    <g id="text_18">
     <!-- Instances -->
     <g style="fill: #555555" transform="translate(16.318125 324.588)rotate(-90)scale(0.12 -0.12)">
      <defs>
       <path id="DejaVuSans-49" d="M 628 4666 
L 1259 4666 
L 1259 0 
L 628 0 
L 628 4666 
z
" transform="scale(0.015625)"/>
       <path id="DejaVuSans-6e" d="M 3513 2113 
L 3513 0 
L 2938 0 
L 2938 2094 
Q 2938 2591 2744 2837 
Q 2550 3084 2163 3084 
Q 1697 3084 1428 2787 
Q 1159 2491 1159 1978 
L 1159 0 
L 581 0 
L 581 3500 
L 1159 3500 
L 1159 2956 
Q 1366 3272 1645 3428 
Q 1925 3584 2291 3584 
Q 2894 3584 3203 3211 
Q 3513 2838 3513 2113 
z
" transform="scale(0.015625)"/>
       <path id="DejaVuSans-73" d="M 2834 3397 
L 2834 2853 
Q 2591 2978 2328 3040 
Q 2066 3103 1784 3103 
Q 1356 3103 1142 2972 
Q 928 2841 928 2578 
Q 928 2378 1081 2264 
Q 1234 2150 1697 2047 
L 1894 2003 
Q 2506 1872 2764 1633 
Q 3022 1394 3022 966 
Q 3022 478 2636 193 
Q 2250 -91 1575 -91 
Q 1294 -91 989 -36 
Q 684 19 347 128 
L 347 722 
Q 666 556 975 473 
Q 1284 391 1588 391 
Q 1994 391 2212 530 
Q 2431 669 2431 922 
Q 2431 1156 2273 1281 
Q 2116 1406 1581 1522 
L 1381 1569 
Q 847 1681 609 1914 
Q 372 2147 372 2553 
Q 372 3047 722 3315 
Q 1072 3584 1716 3584 
Q 2034 3584 2315 3537 
Q 2597 3491 2834 3397 
z
" transform="scale(0.015625)"/>
       <path id="DejaVuSans-63" d="M 3122 3366 
L 3122 2828 
Q 2878 2963 2633 3030 
Q 2388 3097 2138 3097 
Q 1578 3097 1268 2742 
Q 959 2388 959 1747 
Q 959 1106 1268 751 
Q 1578 397 2138 397 
Q 2388 397 2633 464 
Q 2878 531 3122 666 
L 3122 134 
Q 2881 22 2623 -34 
Q 2366 -91 2075 -91 
Q 1284 -91 818 406 
Q 353 903 353 1747 
Q 353 2603 823 3093 
Q 1294 3584 2113 3584 
Q 2378 3584 2631 3529 
Q 2884 3475 3122 3366 
z
" transform="scale(0.015625)"/>
      </defs>
      <use xlink:href="#DejaVuSans-49"/>
      <use xlink:href="#DejaVuSans-6e" x="29.492188"/>
      <use xlink:href="#DejaVuSans-73" x="92.871094"/>
      <use xlink:href="#DejaVuSans-74" x="144.970703"/>
      <use xlink:href="#DejaVuSans-61" x="184.179688"/>
      <use xlink:href="#DejaVuSans-6e" x="245.458984"/>
      <use xlink:href="#DejaVuSans-63" x="308.837891"/>
      <use xlink:href="#DejaVuSans-65" x="363.818359"/>
      <use xlink:href="#DejaVuSans-73" x="425.341797"/>
     </g>
    </g>
   </g>
   <g id="line2d_33">
    <path d="M 54.691875 456.201654 
L 63.811511 455.601497 
L 72.931148 455.001339 
L 82.050784 454.401181 
L 91.17042 453.801024 
L 100.290057 453.200866 
L 109.409693 452.600708 
L 118.52933 452.00055 
L 127.648966 451.400393 
L 136.768602 450.800235 
L 145.888239 450.200077 
L 155.007875 449.59992 
L 164.127511 448.999762 
L 173.247148 448.399604 
L 182.366784 447.799447 
L 191.48642 447.199289 
L 200.606057 446.599131 
L 209.725693 445.998973 
L 218.84533 445.398816 
L 227.964966 444.798658 
L 237.084602 444.1985 
L 246.204239 443.598343 
L 255.323875 442.998185 
L 264.443511 442.398027 
L 273.563148 441.79787 
L 282.682784 441.197712 
L 291.80242 440.597554 
L 300.922057 439.997396 
L 310.041693 439.397239 
L 319.16133 438.797081 
L 328.280966 438.196923 
L 337.400602 437.596766 
L 346.520239 436.996608 
L 355.639875 436.39645 
L 364.759511 435.796293 
L 373.879148 435.196135 
L 382.998784 434.595977 
L 392.11842 433.995819 
L 401.238057 433.395662 
L 410.357693 432.795504 
L 419.47733 432.195346 
L 428.596966 431.595189 
L 437.716602 430.995031 
L 446.836239 430.394873 
L 455.955875 429.794716 
L 465.075511 429.194558 
L 474.195148 428.5944 
L 483.314784 427.994242 
L 492.43442 427.394085 
L 501.554057 426.793927 
L 510.673693 426.193769 
L 519.79333 425.593612 
L 528.912966 424.993454 
L 538.032602 424.393296 
L 547.152239 423.793139 
L 556.271875 423.192981 
L 565.391511 422.592823 
L 574.511148 421.992665 
L 583.630784 421.392508 
L 592.75042 420.79235 
L 601.870057 420.192192 
L 610.989693 419.592035 
L 620.10933 418.991877 
L 629.228966 418.391719 
L 638.348602 417.791562 
L 647.468239 417.191404 
L 656.587875 416.591246 
L 665.707511 415.991088 
L 674.827148 415.390931 
L 683.946784 414.790773 
L 693.06642 414.190615 
L 702.186057 413.590458 
L 711.305693 412.9903 
L 720.42533 412.390142 
L 729.544966 411.789985 
L 738.664602 411.189827 
L 747.784239 410.589669 
L 756.903875 409.989511 
L 766.023511 409.389354 
L 775.143148 408.789196 
L 784.262784 408.189038 
L 793.38242 407.588881 
L 802.502057 406.988723 
L 811.621693 406.388565 
L 820.74133 405.788407 
L 829.860966 405.18825 
L 838.980602 404.588092 
L 848.100239 403.987934 
L 857.219875 403.387777 
L 866.339511 402.787619 
L 875.459148 402.187461 
L 884.578784 401.587304 
L 893.69842 400.987146 
L 902.818057 400.386988 
L 911.937693 399.78683 
L 921.05733 399.186673 
L 930.176966 398.586515 
L 939.296602 397.986357 
L 948.416239 397.3862 
L 957.535875 396.786042 
" clip-path="url(#p1aff0ac4f8)" style="fill: none; stroke-dasharray: 1.5,2.475; stroke-dashoffset: 0; stroke: #4ac1fa; stroke-width: 1.5"/>
   </g>
   <g id="line2d_34">
    <path d="M 54.691875 531.349049 
L 63.811511 530.501999 
L 72.931148 529.654949 
L 82.050784 528.807898 
L 91.17042 527.960848 
L 100.290057 527.113798 
L 109.409693 526.266748 
L 118.52933 525.419697 
L 127.648966 524.572647 
L 136.768602 523.725597 
L 145.888239 522.878546 
L 155.007875 522.031496 
L 164.127511 521.184446 
L 173.247148 520.337396 
L 182.366784 519.490345 
L 191.48642 518.643295 
L 200.606057 517.796245 
L 209.725693 516.949195 
L 218.84533 516.102144 
L 227.964966 515.255094 
L 237.084602 514.408044 
L 246.204239 513.560994 
L 255.323875 512.713943 
L 264.443511 511.866893 
L 273.563148 511.019843 
L 282.682784 510.172793 
L 291.80242 509.325742 
L 300.922057 508.478692 
L 310.041693 507.631642 
L 319.16133 506.784592 
L 328.280966 505.937541 
L 337.400602 505.090491 
L 346.520239 504.243441 
L 355.639875 503.39639 
L 364.759511 502.54934 
L 373.879148 501.70229 
L 382.998784 500.85524 
L 392.11842 500.008189 
L 401.238057 499.161139 
L 410.357693 498.314089 
L 419.47733 497.467039 
L 428.596966 496.619988 
L 437.716602 495.772938 
L 446.836239 494.925888 
L 455.955875 494.078838 
L 465.075511 493.231787 
L 474.195148 492.384737 
L 483.314784 491.537687 
L 492.43442 490.690637 
L 501.554057 489.843586 
L 510.673693 488.996536 
L 519.79333 488.149486 
L 528.912966 487.302436 
L 538.032602 486.455385 
L 547.152239 485.608335 
L 556.271875 484.761285 
L 565.391511 483.914234 
L 574.511148 483.067184 
L 583.630784 482.220134 
L 592.75042 481.373084 
L 601.870057 480.526033 
L 610.989693 479.678983 
L 620.10933 478.831933 
L 629.228966 477.984883 
L 638.348602 477.137832 
L 647.468239 476.290782 
L 656.587875 475.443732 
L 665.707511 474.596682 
L 674.827148 473.749631 
L 683.946784 472.902581 
L 693.06642 472.055531 
L 702.186057 471.208481 
L 711.305693 470.36143 
L 720.42533 469.51438 
L 729.544966 468.66733 
L 738.664602 467.82028 
L 747.784239 466.973229 
L 756.903875 466.126179 
L 766.023511 465.279129 
L 775.143148 464.432079 
L 784.262784 463.585028 
L 793.38242 462.737978 
L 802.502057 461.890928 
L 811.621693 461.043877 
L 820.74133 460.196827 
L 829.860966 459.349777 
L 838.980602 458.502727 
L 848.100239 457.655676 
L 857.219875 456.808626 
L 866.339511 455.961576 
L 875.459148 455.114526 
L 884.578784 454.267475 
L 893.69842 453.420425 
L 902.818057 452.573375 
L 911.937693 451.726325 
L 921.05733 450.879274 
L 930.176966 450.032224 
L 939.296602 449.185174 
L 948.416239 448.338124 
L 957.535875 447.491073 
" clip-path="url(#p1aff0ac4f8)" style="fill: none; stroke-dasharray: 1.5,2.475; stroke-dashoffset: 0; stroke: #e9a942; stroke-width: 1.5"/>
   </g>
   <g id="line2d_35">
    <path d="M 54.691875 488.374737 
L 63.811511 488.4529 
L 72.931148 488.531062 
L 82.050784 488.609225 
L 91.17042 488.687387 
L 100.290057 488.76555 
L 109.409693 488.843712 
L 118.52933 488.921875 
L 127.648966 489.000037 
L 136.768602 489.0782 
L 145.888239 489.156362 
L 155.007875 489.234525 
L 164.127511 489.312688 
L 173.247148 489.39085 
L 182.366784 489.469013 
L 191.48642 489.547175 
L 200.606057 489.625338 
L 209.725693 489.7035 
L 218.84533 489.781663 
L 227.964966 489.859825 
L 237.084602 489.937988 
L 246.204239 490.01615 
L 255.323875 490.094313 
L 264.443511 490.172475 
L 273.563148 490.250638 
L 282.682784 490.328801 
L 291.80242 490.406963 
L 300.922057 490.485126 
L 310.041693 490.563288 
L 319.16133 490.641451 
L 328.280966 490.719613 
L 337.400602 490.797776 
L 346.520239 490.875938 
L 355.639875 490.954101 
L 364.759511 491.032263 
L 373.879148 491.110426 
L 382.998784 491.188588 
L 392.11842 491.266751 
L 401.238057 491.344914 
L 410.357693 491.423076 
L 419.47733 491.501239 
L 428.596966 491.579401 
L 437.716602 491.657564 
L 446.836239 491.735726 
L 455.955875 491.813889 
L 465.075511 491.892051 
L 474.195148 491.970214 
L 483.314784 492.048376 
L 492.43442 492.126539 
L 501.554057 492.204701 
L 510.673693 492.282864 
L 519.79333 492.361026 
L 528.912966 492.439189 
L 538.032602 492.517352 
L 547.152239 492.595514 
L 556.271875 492.673677 
L 565.391511 492.751839 
L 574.511148 492.830002 
L 583.630784 492.908164 
L 592.75042 492.986327 
L 601.870057 493.064489 
L 610.989693 493.142652 
L 620.10933 493.220814 
L 629.228966 493.298977 
L 638.348602 493.377139 
L 647.468239 493.455302 
L 656.587875 493.533465 
L 665.707511 493.611627 
L 674.827148 493.68979 
L 683.946784 493.767952 
L 693.06642 493.846115 
L 702.186057 493.924277 
L 711.305693 494.00244 
L 720.42533 494.080602 
L 729.544966 494.158765 
L 738.664602 494.236927 
L 747.784239 494.31509 
L 756.903875 494.393252 
L 766.023511 494.471415 
L 775.143148 494.549578 
L 784.262784 494.62774 
L 793.38242 494.705903 
L 802.502057 494.784065 
L 811.621693 494.862228 
L 820.74133 494.94039 
L 829.860966 495.018553 
L 838.980602 495.096715 
L 848.100239 495.174878 
L 857.219875 495.25304 
L 866.339511 495.331203 
L 875.459148 495.409365 
L 884.578784 495.487528 
L 893.69842 495.565691 
L 902.818057 495.643853 
L 911.937693 495.722016 
L 921.05733 495.800178 
L 930.176966 495.878341 
L 939.296602 495.956503 
L 948.416239 496.034666 
L 957.535875 496.112828 
" clip-path="url(#p1aff0ac4f8)" style="fill: none; stroke-dasharray: 1.5,2.475; stroke-dashoffset: 0; stroke: #9a5689; stroke-width: 1.5"/>
   </g>
   <g id="line2d_36">
    <path d="M 54.691875 516.065689 
L 63.811511 515.965137 
L 72.931148 515.864585 
L 82.050784 515.764032 
L 91.17042 515.66348 
L 100.290057 515.562928 
L 109.409693 515.462376 
L 118.52933 515.361824 
L 127.648966 515.261271 
L 136.768602 515.160719 
L 145.888239 515.060167 
L 155.007875 514.959615 
L 164.127511 514.859062 
L 173.247148 514.75851 
L 182.366784 514.657958 
L 191.48642 514.557406 
L 200.606057 514.456853 
L 209.725693 514.356301 
L 218.84533 514.255749 
L 227.964966 514.155197 
L 237.084602 514.054644 
L 246.204239 513.954092 
L 255.323875 513.85354 
L 264.443511 513.752988 
L 273.563148 513.652436 
L 282.682784 513.551883 
L 291.80242 513.451331 
L 300.922057 513.350779 
L 310.041693 513.250227 
L 319.16133 513.149674 
L 328.280966 513.049122 
L 337.400602 512.94857 
L 346.520239 512.848018 
L 355.639875 512.747465 
L 364.759511 512.646913 
L 373.879148 512.546361 
L 382.998784 512.445809 
L 392.11842 512.345256 
L 401.238057 512.244704 
L 410.357693 512.144152 
L 419.47733 512.0436 
L 428.596966 511.943048 
L 437.716602 511.842495 
L 446.836239 511.741943 
L 455.955875 511.641391 
L 465.075511 511.540839 
L 474.195148 511.440286 
L 483.314784 511.339734 
L 492.43442 511.239182 
L 501.554057 511.13863 
L 510.673693 511.038077 
L 519.79333 510.937525 
L 528.912966 510.836973 
L 538.032602 510.736421 
L 547.152239 510.635869 
L 556.271875 510.535316 
L 565.391511 510.434764 
L 574.511148 510.334212 
L 583.630784 510.23366 
L 592.75042 510.133107 
L 601.870057 510.032555 
L 610.989693 509.932003 
L 620.10933 509.831451 
L 629.228966 509.730898 
L 638.348602 509.630346 
L 647.468239 509.529794 
L 656.587875 509.429242 
L 665.707511 509.328689 
L 674.827148 509.228137 
L 683.946784 509.127585 
L 693.06642 509.027033 
L 702.186057 508.926481 
L 711.305693 508.825928 
L 720.42533 508.725376 
L 729.544966 508.624824 
L 738.664602 508.524272 
L 747.784239 508.423719 
L 756.903875 508.323167 
L 766.023511 508.222615 
L 775.143148 508.122063 
L 784.262784 508.02151 
L 793.38242 507.920958 
L 802.502057 507.820406 
L 811.621693 507.719854 
L 820.74133 507.619301 
L 829.860966 507.518749 
L 838.980602 507.418197 
L 848.100239 507.317645 
L 857.219875 507.217093 
L 866.339511 507.11654 
L 875.459148 507.015988 
L 884.578784 506.915436 
L 893.69842 506.814884 
L 902.818057 506.714331 
L 911.937693 506.613779 
L 921.05733 506.513227 
L 930.176966 506.412675 
L 939.296602 506.312122 
L 948.416239 506.21157 
L 957.535875 506.111018 
" clip-path="url(#p1aff0ac4f8)" style="fill: none; stroke-dasharray: 1.5,2.475; stroke-dashoffset: 0; stroke: #be503b; stroke-width: 1.5"/>
   </g>
   <g id="line2d_37">
    <path d="M 54.691875 451.829662 
L 63.811511 451.056297 
L 72.931148 450.282932 
L 82.050784 449.509568 
L 91.17042 448.736203 
L 100.290057 447.962838 
L 109.409693 447.189473 
L 118.52933 446.416109 
L 127.648966 445.642744 
L 136.768602 444.869379 
L 145.888239 444.096014 
L 155.007875 443.32265 
L 164.127511 442.549285 
L 173.247148 441.77592 
L 182.366784 441.002555 
L 191.48642 440.229191 
L 200.606057 439.455826 
L 209.725693 438.682461 
L 218.84533 437.909096 
L 227.964966 437.135732 
L 237.084602 436.362367 
L 246.204239 435.589002 
L 255.323875 434.815637 
L 264.443511 434.042273 
L 273.563148 433.268908 
L 282.682784 432.495543 
L 291.80242 431.722178 
L 300.922057 430.948814 
L 310.041693 430.175449 
L 319.16133 429.402084 
L 328.280966 428.628719 
L 337.400602 427.855355 
L 346.520239 427.08199 
L 355.639875 426.308625 
L 364.759511 425.53526 
L 373.879148 424.761896 
L 382.998784 423.988531 
L 392.11842 423.215166 
L 401.238057 422.441801 
L 410.357693 421.668437 
L 419.47733 420.895072 
L 428.596966 420.121707 
L 437.716602 419.348342 
L 446.836239 418.574978 
L 455.955875 417.801613 
L 465.075511 417.028248 
L 474.195148 416.254883 
L 483.314784 415.481519 
L 492.43442 414.708154 
L 501.554057 413.934789 
L 510.673693 413.161424 
L 519.79333 412.38806 
L 528.912966 411.614695 
L 538.032602 410.84133 
L 547.152239 410.067965 
L 556.271875 409.294601 
L 565.391511 408.521236 
L 574.511148 407.747871 
L 583.630784 406.974506 
L 592.75042 406.201142 
L 601.870057 405.427777 
L 610.989693 404.654412 
L 620.10933 403.881047 
L 629.228966 403.107683 
L 638.348602 402.334318 
L 647.468239 401.560953 
L 656.587875 400.787588 
L 665.707511 400.014224 
L 674.827148 399.240859 
L 683.946784 398.467494 
L 693.06642 397.694129 
L 702.186057 396.920765 
L 711.305693 396.1474 
L 720.42533 395.374035 
L 729.544966 394.60067 
L 738.664602 393.827306 
L 747.784239 393.053941 
L 756.903875 392.280576 
L 766.023511 391.507211 
L 775.143148 390.733847 
L 784.262784 389.960482 
L 793.38242 389.187117 
L 802.502057 388.413752 
L 811.621693 387.640388 
L 820.74133 386.867023 
L 829.860966 386.093658 
L 838.980602 385.320293 
L 848.100239 384.546929 
L 857.219875 383.773564 
L 866.339511 383.000199 
L 875.459148 382.226834 
L 884.578784 381.45347 
L 893.69842 380.680105 
L 902.818057 379.90674 
L 911.937693 379.133375 
L 921.05733 378.360011 
L 930.176966 377.586646 
L 939.296602 376.813281 
L 948.416239 376.039916 
L 957.535875 375.266552 
" clip-path="url(#p1aff0ac4f8)" style="fill: none; stroke-dasharray: 1.5,2.475; stroke-dashoffset: 0; stroke: #e2321d; stroke-width: 1.5"/>
   </g>
   <g id="line2d_38">
    <path d="M 54.691875 386.123499 
L 63.811511 383.745394 
L 72.931148 381.367289 
L 82.050784 378.989184 
L 91.17042 376.61108 
L 100.290057 374.232975 
L 109.409693 371.85487 
L 118.52933 369.476765 
L 127.648966 367.098661 
L 136.768602 364.720556 
L 145.888239 362.342451 
L 155.007875 359.964346 
L 164.127511 357.586242 
L 173.247148 355.208137 
L 182.366784 352.830032 
L 191.48642 350.451927 
L 200.606057 348.073822 
L 209.725693 345.695718 
L 218.84533 343.317613 
L 227.964966 340.939508 
L 237.084602 338.561403 
L 246.204239 336.183299 
L 255.323875 333.805194 
L 264.443511 331.427089 
L 273.563148 329.048984 
L 282.682784 326.67088 
L 291.80242 324.292775 
L 300.922057 321.91467 
L 310.041693 319.536565 
L 319.16133 317.15846 
L 328.280966 314.780356 
L 337.400602 312.402251 
L 346.520239 310.024146 
L 355.639875 307.646041 
L 364.759511 305.267937 
L 373.879148 302.889832 
L 382.998784 300.511727 
L 392.11842 298.133622 
L 401.238057 295.755517 
L 410.357693 293.377413 
L 419.47733 290.999308 
L 428.596966 288.621203 
L 437.716602 286.243098 
L 446.836239 283.864994 
L 455.955875 281.486889 
L 465.075511 279.108784 
L 474.195148 276.730679 
L 483.314784 274.352575 
L 492.43442 271.97447 
L 501.554057 269.596365 
L 510.673693 267.21826 
L 519.79333 264.840155 
L 528.912966 262.462051 
L 538.032602 260.083946 
L 547.152239 257.705841 
L 556.271875 255.327736 
L 565.391511 252.949632 
L 574.511148 250.571527 
L 583.630784 248.193422 
L 592.75042 245.815317 
L 601.870057 243.437213 
L 610.989693 241.059108 
L 620.10933 238.681003 
L 629.228966 236.302898 
L 638.348602 233.924793 
L 647.468239 231.546689 
L 656.587875 229.168584 
L 665.707511 226.790479 
L 674.827148 224.412374 
L 683.946784 222.03427 
L 693.06642 219.656165 
L 702.186057 217.27806 
L 711.305693 214.899955 
L 720.42533 212.52185 
L 729.544966 210.143746 
L 738.664602 207.765641 
L 747.784239 205.387536 
L 756.903875 203.009431 
L 766.023511 200.631327 
L 775.143148 198.253222 
L 784.262784 195.875117 
L 793.38242 193.497012 
L 802.502057 191.118908 
L 811.621693 188.740803 
L 820.74133 186.362698 
L 829.860966 183.984593 
L 838.980602 181.606488 
L 848.100239 179.228384 
L 857.219875 176.850279 
L 866.339511 174.472174 
L 875.459148 172.094069 
L 884.578784 169.715965 
L 893.69842 167.33786 
L 902.818057 164.959755 
L 911.937693 162.58165 
L 921.05733 160.203546 
L 930.176966 157.825441 
L 939.296602 155.447336 
L 948.416239 153.069231 
L 957.535875 150.691126 
" clip-path="url(#p1aff0ac4f8)" style="fill: none; stroke-dasharray: 1.5,2.475; stroke-dashoffset: 0; stroke: #48b585; stroke-width: 1.5"/>
   </g>
   <g id="line2d_39">
    <path d="M 54.691875 435.680549 
L 73.117263 435.900968 
L 91.542651 417.521819 
L 109.968038 432.61553 
L 128.393426 404.875737 
L 146.818814 412.205464 
L 165.244202 410.334651 
L 183.669589 460.445246 
L 202.094977 416.447143 
L 220.520365 416.120354 
L 238.945753 447.010702 
L 257.37114 450.638281 
L 275.796528 472.760153 
L 294.221916 458.55908 
L 312.647304 457.964719 
L 331.072691 464.499405 
L 349.498079 464.523531 
L 367.923467 476.945905 
L 386.348855 475.209975 
L 404.774242 467.862702 
L 423.19963 481.213903 
L 441.625018 471.105371 
L 460.050406 472.627463 
L 478.475793 434.075115 
L 496.901181 427.097399 
L 515.326569 422.335928 
L 533.751957 426.133481 
L 552.177344 460.848797 
L 570.602732 424.507211 
L 589.02812 426.701524 
L 607.453508 439.948547 
L 625.878895 424.752852 
L 644.304283 423.613476 
L 662.729671 401.190037 
L 681.155059 400.961943 
L 699.580446 386.732359 
L 718.005834 383.59935 
L 736.431222 390.44657 
L 754.85661 406.943939 
L 773.281997 377.49892 
L 791.707385 406.959292 
L 810.132773 390.435604 
L 828.558161 405.791404 
L 846.983548 412.371052 
L 865.408936 412.798729 
L 883.834324 405.827592 
L 902.259712 393.165061 
L 920.685099 393.222084 
L 939.110487 361.709959 
L 957.535875 381.955535 
" clip-path="url(#p1aff0ac4f8)" style="fill: none; stroke: #4ac1fa; stroke-width: 1.5; stroke-linecap: square"/>
   </g>
   <g id="line2d_40">
    <path d="M 54.691875 512.141536 
L 73.117263 512.945349 
L 91.542651 523.028659 
L 109.968038 518.075281 
L 128.393426 519.818888 
L 146.818814 522.465003 
L 165.244202 532.541733 
L 183.669589 535.068317 
L 202.094977 530.731233 
L 220.520365 521.676542 
L 238.945753 518.093924 
L 257.37114 521.499988 
L 275.796528 518.427292 
L 294.221916 514.203159 
L 312.647304 520.967036 
L 331.072691 508.0797 
L 349.498079 503.820475 
L 367.923467 503.014468 
L 386.348855 493.176799 
L 404.774242 502.023135 
L 423.19963 499.132476 
L 441.625018 499.215818 
L 460.050406 495.451163 
L 478.475793 498.438323 
L 496.901181 501.393682 
L 515.326569 492.795179 
L 533.751957 493.59351 
L 552.177344 480.573484 
L 570.602732 462.04081 
L 589.02812 455.63991 
L 607.453508 473.820572 
L 625.878895 475.749506 
L 644.304283 477.942722 
L 662.729671 447.930756 
L 681.155059 457.302367 
L 699.580446 472.241457 
L 718.005834 479.400113 
L 736.431222 463.181282 
L 754.85661 462.653814 
L 773.281997 457.244247 
L 791.707385 470.906885 
L 810.132773 448.411071 
L 828.558161 481.168942 
L 846.983548 472.350021 
L 865.408936 463.333711 
L 883.834324 462.126346 
L 902.259712 452.2163 
L 920.685099 441.438837 
L 939.110487 448.028354 
L 957.535875 453.482882 
" clip-path="url(#p1aff0ac4f8)" style="fill: none; stroke: #e9a942; stroke-width: 1.5; stroke-linecap: square"/>
   </g>
   <g id="line2d_41">
    <path d="M 54.691875 477.940528 
L 73.117263 462.767861 
L 91.542651 484.43793 
L 109.968038 495.720929 
L 128.393426 493.327034 
L 146.818814 495.194557 
L 165.244202 503.637341 
L 183.669589 517.284627 
L 202.094977 509.333123 
L 220.520365 500.300364 
L 238.945753 499.93958 
L 257.37114 493.89069 
L 275.796528 499.12809 
L 294.221916 497.267146 
L 312.647304 497.879053 
L 331.072691 503.766741 
L 349.498079 502.016555 
L 367.923467 476.759482 
L 386.348855 456.466752 
L 404.774242 455.227585 
L 423.19963 471.556077 
L 441.625018 480.989098 
L 460.050406 479.576667 
L 478.475793 473.4236 
L 496.901181 474.18026 
L 515.326569 480.873954 
L 533.751957 474.667154 
L 552.177344 486.314226 
L 570.602732 500.933106 
L 589.02812 497.157485 
L 607.453508 517.971103 
L 625.878895 509.980122 
L 644.304283 499.593052 
L 662.729671 509.974639 
L 681.155059 507.252858 
L 699.580446 499.895715 
L 718.005834 494.012414 
L 736.431222 489.187339 
L 754.85661 493.736069 
L 773.281997 491.063635 
L 791.707385 496.312001 
L 810.132773 494.293145 
L 828.558161 488.152141 
L 846.983548 499.744383 
L 865.408936 495.999467 
L 883.834324 495.629911 
L 902.259712 492.784213 
L 920.685099 500.425377 
L 939.110487 497.924014 
L 957.535875 496.299938 
" clip-path="url(#p1aff0ac4f8)" style="fill: none; stroke: #9a5689; stroke-width: 1.5; stroke-linecap: square"/>
   </g>
   <g id="line2d_42">
    <path d="M 54.691875 506.624501 
L 73.117263 498.556757 
L 91.542651 514.827129 
L 109.968038 507.480952 
L 128.393426 510.908949 
L 146.818814 513.081329 
L 165.244202 519.075388 
L 183.669589 532.915676 
L 202.094977 522.089963 
L 220.520365 520.942911 
L 238.945753 524.145006 
L 257.37114 508.478865 
L 275.796528 527.650861 
L 294.221916 522.927771 
L 312.647304 522.217169 
L 331.072691 512.934383 
L 349.498079 520.623798 
L 367.923467 512.580179 
L 386.348855 509.115995 
L 404.774242 516.428176 
L 423.19963 514.663734 
L 441.625018 518.016064 
L 460.050406 488.331985 
L 478.475793 504.339171 
L 496.901181 515.348017 
L 515.326569 500.169867 
L 533.751957 509.190564 
L 552.177344 506.351446 
L 570.602732 499.36715 
L 589.02812 517.895438 
L 607.453508 499.012946 
L 625.878895 508.444871 
L 644.304283 504.356716 
L 662.729671 503.775514 
L 681.155059 520.134711 
L 699.580446 513.980547 
L 718.005834 502.086738 
L 736.431222 503.483816 
L 754.85661 510.550358 
L 773.281997 509.298031 
L 791.707385 509.690617 
L 810.132773 504.34904 
L 828.558161 512.552764 
L 846.983548 505.083767 
L 865.408936 506.758288 
L 883.834324 509.221269 
L 902.259712 500.919947 
L 920.685099 512.995793 
L 939.110487 507.154163 
L 957.535875 513.288588 
" clip-path="url(#p1aff0ac4f8)" style="fill: none; stroke: #be503b; stroke-width: 1.5; stroke-linecap: square"/>
   </g>
   <g id="line2d_43">
    <path d="M 54.691875 445.347148 
L 73.117263 425.191495 
L 91.542651 449.145798 
L 109.968038 440.701917 
L 128.393426 433.341485 
L 146.818814 433.510362 
L 165.244202 450.232536 
L 183.669589 489.098514 
L 202.094977 473.948876 
L 220.520365 451.356559 
L 238.945753 440.504528 
L 257.37114 442.050745 
L 275.796528 434.360233 
L 294.221916 437.578778 
L 312.647304 431.548531 
L 331.072691 429.132704 
L 349.498079 428.848682 
L 367.923467 408.871776 
L 386.348855 419.159055 
L 404.774242 416.378057 
L 423.19963 424.447995 
L 441.625018 422.926999 
L 460.050406 411.528857 
L 478.475793 406.956002 
L 496.901181 410.241439 
L 515.326569 427.595259 
L 533.751957 414.025833 
L 552.177344 414.01706 
L 570.602732 418.723701 
L 589.02812 412.104576 
L 607.453508 410.754652 
L 625.878895 388.154659 
L 644.304283 231.194976 
L 662.729671 400.152646 
L 681.155059 412.453297 
L 699.580446 410.428959 
L 718.005834 408.714961 
L 736.431222 404.963465 
L 754.85661 389.718422 
L 773.281997 406.053493 
L 791.707385 375.835366 
L 810.132773 395.881359 
L 828.558161 393.248403 
L 846.983548 393.480884 
L 865.408936 387.415545 
L 883.834324 385.662069 
L 902.259712 382.644204 
L 920.685099 393.466628 
L 939.110487 389.540772 
L 957.535875 374.765077 
" clip-path="url(#p1aff0ac4f8)" style="fill: none; stroke: #e2321d; stroke-width: 1.5; stroke-linecap: square"/>
   </g>
   <g id="line2d_44">
    <path d="M 54.691875 323.506333 
L 73.117263 318.817238 
L 91.542651 279.018047 
L 109.968038 351.387589 
L 128.393426 400.266694 
L 146.818814 391.559627 
L 165.244202 371.681415 
L 183.669589 418.802657 
L 202.094977 372.109092 
L 220.520365 363.285785 
L 238.945753 348.843459 
L 257.37114 311.194716 
L 275.796528 299.013595 
L 294.221916 334.51518 
L 312.647304 321.00826 
L 331.072691 284.413358 
L 349.498079 285.041714 
L 367.923467 271.735474 
L 386.348855 282.499777 
L 404.774242 226.317264 
L 423.19963 302.362636 
L 441.625018 240.096142 
L 460.050406 277.470733 
L 478.475793 262.85624 
L 496.901181 289.654047 
L 515.326569 326.404668 
L 533.751957 306.601026 
L 552.177344 310.282338 
L 570.602732 291.872485 
L 589.02812 300.263729 
L 607.453508 291.032483 
L 625.878895 283.900145 
L 644.304283 292.20695 
L 662.729671 279.488492 
L 681.155059 284.228031 
L 699.580446 254.210583 
L 718.005834 238.259324 
L 736.431222 184.852326 
L 754.85661 229.418471 
L 773.281997 217.490667 
L 791.707385 190.537141 
L 810.132773 231.991113 
L 828.558161 153.597904 
L 846.983548 198.45136 
L 865.408936 176.501657 
L 883.834324 142.253495 
L 902.259712 126.347197 
L 920.685099 82.498233 
L 939.110487 51.747154 
L 957.535875 48.471587 
" clip-path="url(#p1aff0ac4f8)" style="fill: none; stroke: #48b585; stroke-width: 6; stroke-linecap: square"/>
   </g>
   <g id="patch_3">
    <path d="M 54.691875 567.74175 
L 54.691875 24.14175 
" style="fill: none; stroke: #ffffff; stroke-linejoin: miter; stroke-linecap: square"/>
   </g>
   <g id="patch_4">
    <path d="M 957.535875 567.74175 
L 957.535875 24.14175 
" style="fill: none; stroke: #ffffff; stroke-linejoin: miter; stroke-linecap: square"/>
   </g>
   <g id="patch_5">
    <path d="M 54.691875 567.74175 
L 957.535875 567.74175 
" style="fill: none; stroke: #ffffff; stroke-linejoin: miter; stroke-linecap: square"/>
   </g>
   <g id="patch_6">
    <path d="M 54.691875 24.14175 
L 957.535875 24.14175 
" style="fill: none; stroke: #ffffff; stroke-linejoin: miter; stroke-linecap: square"/>
   </g>
   <g id="text_19">
    <!-- Potentially Ephemeral Enterprise Linux 8 and 9 Instances by Distribution -->
    <g transform="translate(54.691875 18.14175)scale(0.144 -0.144)">
     <defs>
      <path id="DejaVuSans-50" d="M 1259 4147 
L 1259 2394 
L 2053 2394 
Q 2494 2394 2734 2622 
Q 2975 2850 2975 3272 
Q 2975 3691 2734 3919 
Q 2494 4147 2053 4147 
L 1259 4147 
z
M 628 4666 
L 2053 4666 
Q 2838 4666 3239 4311 
Q 3641 3956 3641 3272 
Q 3641 2581 3239 2228 
Q 2838 1875 2053 1875 
L 1259 1875 
L 1259 0 
L 628 0 
L 628 4666 
z
" transform="scale(0.015625)"/>
      <path id="DejaVuSans-6f" d="M 1959 3097 
Q 1497 3097 1228 2736 
Q 959 2375 959 1747 
Q 959 1119 1226 758 
Q 1494 397 1959 397 
Q 2419 397 2687 759 
Q 2956 1122 2956 1747 
Q 2956 2369 2687 2733 
Q 2419 3097 1959 3097 
z
M 1959 3584 
Q 2709 3584 3137 3096 
Q 3566 2609 3566 1747 
Q 3566 888 3137 398 
Q 2709 -91 1959 -91 
Q 1206 -91 779 398 
Q 353 888 353 1747 
Q 353 2609 779 3096 
Q 1206 3584 1959 3584 
z
" transform="scale(0.015625)"/>
      <path id="DejaVuSans-69" d="M 603 3500 
L 1178 3500 
L 1178 0 
L 603 0 
L 603 3500 
z
M 603 4863 
L 1178 4863 
L 1178 4134 
L 603 4134 
L 603 4863 
z
" transform="scale(0.015625)"/>
      <path id="DejaVuSans-6c" d="M 603 4863 
L 1178 4863 
L 1178 0 
L 603 0 
L 603 4863 
z
" transform="scale(0.015625)"/>
      <path id="DejaVuSans-79" d="M 2059 -325 
Q 1816 -950 1584 -1140 
Q 1353 -1331 966 -1331 
L 506 -1331 
L 506 -850 
L 844 -850 
Q 1081 -850 1212 -737 
Q 1344 -625 1503 -206 
L 1606 56 
L 191 3500 
L 800 3500 
L 1894 763 
L 2988 3500 
L 3597 3500 
L 2059 -325 
z
" transform="scale(0.015625)"/>
      <path id="DejaVuSans-20" transform="scale(0.015625)"/>
      <path id="DejaVuSans-45" d="M 628 4666 
L 3578 4666 
L 3578 4134 
L 1259 4134 
L 1259 2753 
L 3481 2753 
L 3481 2222 
L 1259 2222 
L 1259 531 
L 3634 531 
L 3634 0 
L 628 0 
L 628 4666 
z
" transform="scale(0.015625)"/>
      <path id="DejaVuSans-70" d="M 1159 525 
L 1159 -1331 
L 581 -1331 
L 581 3500 
L 1159 3500 
L 1159 2969 
Q 1341 3281 1617 3432 
Q 1894 3584 2278 3584 
Q 2916 3584 3314 3078 
Q 3713 2572 3713 1747 
Q 3713 922 3314 415 
Q 2916 -91 2278 -91 
Q 1894 -91 1617 61 
Q 1341 213 1159 525 
z
M 3116 1747 
Q 3116 2381 2855 2742 
Q 2594 3103 2138 3103 
Q 1681 3103 1420 2742 
Q 1159 2381 1159 1747 
Q 1159 1113 1420 752 
Q 1681 391 2138 391 
Q 2594 391 2855 752 
Q 3116 1113 3116 1747 
z
" transform="scale(0.015625)"/>
      <path id="DejaVuSans-68" d="M 3513 2113 
L 3513 0 
L 2938 0 
L 2938 2094 
Q 2938 2591 2744 2837 
Q 2550 3084 2163 3084 
Q 1697 3084 1428 2787 
Q 1159 2491 1159 1978 
L 1159 0 
L 581 0 
L 581 4863 
L 1159 4863 
L 1159 2956 
Q 1366 3272 1645 3428 
Q 1925 3584 2291 3584 
Q 2894 3584 3203 3211 
Q 3513 2838 3513 2113 
z
" transform="scale(0.015625)"/>
      <path id="DejaVuSans-6d" d="M 3328 2828 
Q 3544 3216 3844 3400 
Q 4144 3584 4550 3584 
Q 5097 3584 5394 3201 
Q 5691 2819 5691 2113 
L 5691 0 
L 5113 0 
L 5113 2094 
Q 5113 2597 4934 2840 
Q 4756 3084 4391 3084 
Q 3944 3084 3684 2787 
Q 3425 2491 3425 1978 
L 3425 0 
L 2847 0 
L 2847 2094 
Q 2847 2600 2669 2842 
Q 2491 3084 2119 3084 
Q 1678 3084 1418 2786 
Q 1159 2488 1159 1978 
L 1159 0 
L 581 0 
L 581 3500 
L 1159 3500 
L 1159 2956 
Q 1356 3278 1631 3431 
Q 1906 3584 2284 3584 
Q 2666 3584 2933 3390 
Q 3200 3197 3328 2828 
z
" transform="scale(0.015625)"/>
      <path id="DejaVuSans-72" d="M 2631 2963 
Q 2534 3019 2420 3045 
Q 2306 3072 2169 3072 
Q 1681 3072 1420 2755 
Q 1159 2438 1159 1844 
L 1159 0 
L 581 0 
L 581 3500 
L 1159 3500 
L 1159 2956 
Q 1341 3275 1631 3429 
Q 1922 3584 2338 3584 
Q 2397 3584 2469 3576 
Q 2541 3569 2628 3553 
L 2631 2963 
z
" transform="scale(0.015625)"/>
      <path id="DejaVuSans-4c" d="M 628 4666 
L 1259 4666 
L 1259 531 
L 3531 531 
L 3531 0 
L 628 0 
L 628 4666 
z
" transform="scale(0.015625)"/>
      <path id="DejaVuSans-75" d="M 544 1381 
L 544 3500 
L 1119 3500 
L 1119 1403 
Q 1119 906 1312 657 
Q 1506 409 1894 409 
Q 2359 409 2629 706 
Q 2900 1003 2900 1516 
L 2900 3500 
L 3475 3500 
L 3475 0 
L 2900 0 
L 2900 538 
Q 2691 219 2414 64 
Q 2138 -91 1772 -91 
Q 1169 -91 856 284 
Q 544 659 544 1381 
z
M 1991 3584 
L 1991 3584 
z
" transform="scale(0.015625)"/>
      <path id="DejaVuSans-78" d="M 3513 3500 
L 2247 1797 
L 3578 0 
L 2900 0 
L 1881 1375 
L 863 0 
L 184 0 
L 1544 1831 
L 300 3500 
L 978 3500 
L 1906 2253 
L 2834 3500 
L 3513 3500 
z
" transform="scale(0.015625)"/>
      <path id="DejaVuSans-64" d="M 2906 2969 
L 2906 4863 
L 3481 4863 
L 3481 0 
L 2906 0 
L 2906 525 
Q 2725 213 2448 61 
Q 2172 -91 1784 -91 
Q 1150 -91 751 415 
Q 353 922 353 1747 
Q 353 2572 751 3078 
Q 1150 3584 1784 3584 
Q 2172 3584 2448 3432 
Q 2725 3281 2906 2969 
z
M 947 1747 
Q 947 1113 1208 752 
Q 1469 391 1925 391 
Q 2381 391 2643 752 
Q 2906 1113 2906 1747 
Q 2906 2381 2643 2742 
Q 2381 3103 1925 3103 
Q 1469 3103 1208 2742 
Q 947 2381 947 1747 
z
" transform="scale(0.015625)"/>
      <path id="DejaVuSans-62" d="M 3116 1747 
Q 3116 2381 2855 2742 
Q 2594 3103 2138 3103 
Q 1681 3103 1420 2742 
Q 1159 2381 1159 1747 
Q 1159 1113 1420 752 
Q 1681 391 2138 391 
Q 2594 391 2855 752 
Q 3116 1113 3116 1747 
z
M 1159 2969 
Q 1341 3281 1617 3432 
Q 1894 3584 2278 3584 
Q 2916 3584 3314 3078 
Q 3713 2572 3713 1747 
Q 3713 922 3314 415 
Q 2916 -91 2278 -91 
Q 1894 -91 1617 61 
Q 1341 213 1159 525 
L 1159 0 
L 581 0 
L 581 4863 
L 1159 4863 
L 1159 2969 
z
" transform="scale(0.015625)"/>
     </defs>
     <use xlink:href="#DejaVuSans-50"/>
     <use xlink:href="#DejaVuSans-6f" x="56.677734"/>
     <use xlink:href="#DejaVuSans-74" x="117.859375"/>
     <use xlink:href="#DejaVuSans-65" x="157.068359"/>
     <use xlink:href="#DejaVuSans-6e" x="218.591797"/>
     <use xlink:href="#DejaVuSans-74" x="281.970703"/>
     <use xlink:href="#DejaVuSans-69" x="321.179688"/>
     <use xlink:href="#DejaVuSans-61" x="348.962891"/>
     <use xlink:href="#DejaVuSans-6c" x="410.242188"/>
     <use xlink:href="#DejaVuSans-6c" x="438.025391"/>
     <use xlink:href="#DejaVuSans-79" x="465.808594"/>
     <use xlink:href="#DejaVuSans-20" x="524.988281"/>
     <use xlink:href="#DejaVuSans-45" x="556.775391"/>
     <use xlink:href="#DejaVuSans-70" x="619.958984"/>
     <use xlink:href="#DejaVuSans-68" x="683.435547"/>
     <use xlink:href="#DejaVuSans-65" x="746.814453"/>
     <use xlink:href="#DejaVuSans-6d" x="808.337891"/>
     <use xlink:href="#DejaVuSans-65" x="905.75"/>
     <use xlink:href="#DejaVuSans-72" x="967.273438"/>
     <use xlink:href="#DejaVuSans-61" x="1008.386719"/>
     <use xlink:href="#DejaVuSans-6c" x="1069.666016"/>
     <use xlink:href="#DejaVuSans-20" x="1097.449219"/>
     <use xlink:href="#DejaVuSans-45" x="1129.236328"/>
     <use xlink:href="#DejaVuSans-6e" x="1192.419922"/>
     <use xlink:href="#DejaVuSans-74" x="1255.798828"/>
     <use xlink:href="#DejaVuSans-65" x="1295.007812"/>
     <use xlink:href="#DejaVuSans-72" x="1356.53125"/>
     <use xlink:href="#DejaVuSans-70" x="1397.644531"/>
     <use xlink:href="#DejaVuSans-72" x="1461.121094"/>
     <use xlink:href="#DejaVuSans-69" x="1502.234375"/>
     <use xlink:href="#DejaVuSans-73" x="1530.017578"/>
     <use xlink:href="#DejaVuSans-65" x="1582.117188"/>
     <use xlink:href="#DejaVuSans-20" x="1643.640625"/>
     <use xlink:href="#DejaVuSans-4c" x="1675.427734"/>
     <use xlink:href="#DejaVuSans-69" x="1731.140625"/>
     <use xlink:href="#DejaVuSans-6e" x="1758.923828"/>
     <use xlink:href="#DejaVuSans-75" x="1822.302734"/>
     <use xlink:href="#DejaVuSans-78" x="1885.681641"/>
     <use xlink:href="#DejaVuSans-20" x="1944.861328"/>
     <use xlink:href="#DejaVuSans-38" x="1976.648438"/>
     <use xlink:href="#DejaVuSans-20" x="2040.271484"/>
     <use xlink:href="#DejaVuSans-61" x="2072.058594"/>
     <use xlink:href="#DejaVuSans-6e" x="2133.337891"/>
     <use xlink:href="#DejaVuSans-64" x="2196.716797"/>
     <use xlink:href="#DejaVuSans-20" x="2260.193359"/>
     <use xlink:href="#DejaVuSans-39" x="2291.980469"/>
     <use xlink:href="#DejaVuSans-20" x="2355.603516"/>
     <use xlink:href="#DejaVuSans-49" x="2387.390625"/>
     <use xlink:href="#DejaVuSans-6e" x="2416.882812"/>
     <use xlink:href="#DejaVuSans-73" x="2480.261719"/>
     <use xlink:href="#DejaVuSans-74" x="2532.361328"/>
     <use xlink:href="#DejaVuSans-61" x="2571.570312"/>
     <use xlink:href="#DejaVuSans-6e" x="2632.849609"/>
     <use xlink:href="#DejaVuSans-63" x="2696.228516"/>
     <use xlink:href="#DejaVuSans-65" x="2751.208984"/>
     <use xlink:href="#DejaVuSans-73" x="2812.732422"/>
     <use xlink:href="#DejaVuSans-20" x="2864.832031"/>
     <use xlink:href="#DejaVuSans-62" x="2896.619141"/>
     <use xlink:href="#DejaVuSans-79" x="2960.095703"/>
     <use xlink:href="#DejaVuSans-20" x="3019.275391"/>
     <use xlink:href="#DejaVuSans-44" x="3051.0625"/>
     <use xlink:href="#DejaVuSans-69" x="3128.064453"/>
     <use xlink:href="#DejaVuSans-73" x="3155.847656"/>
     <use xlink:href="#DejaVuSans-74" x="3207.947266"/>
     <use xlink:href="#DejaVuSans-72" x="3247.15625"/>
     <use xlink:href="#DejaVuSans-69" x="3288.269531"/>
     <use xlink:href="#DejaVuSans-62" x="3316.052734"/>
     <use xlink:href="#DejaVuSans-75" x="3379.529297"/>
     <use xlink:href="#DejaVuSans-74" x="3442.908203"/>
     <use xlink:href="#DejaVuSans-69" x="3482.117188"/>
     <use xlink:href="#DejaVuSans-6f" x="3509.900391"/>
     <use xlink:href="#DejaVuSans-6e" x="3571.082031"/>
    </g>
   </g>
   <g id="text_20">
    <!-- 2024-10-31 11:54 UTC -->
    <g transform="translate(794.653875 18.14175)scale(0.144 -0.144)">
     <defs>
      <path id="DejaVuSans-3a" d="M 750 794 
L 1409 794 
L 1409 0 
L 750 0 
L 750 794 
z
M 750 3309 
L 1409 3309 
L 1409 2516 
L 750 2516 
L 750 3309 
z
" transform="scale(0.015625)"/>
      <path id="DejaVuSans-55" d="M 556 4666 
L 1191 4666 
L 1191 1831 
Q 1191 1081 1462 751 
Q 1734 422 2344 422 
Q 2950 422 3222 751 
Q 3494 1081 3494 1831 
L 3494 4666 
L 4128 4666 
L 4128 1753 
Q 4128 841 3676 375 
Q 3225 -91 2344 -91 
Q 1459 -91 1007 375 
Q 556 841 556 1753 
L 556 4666 
z
" transform="scale(0.015625)"/>
      <path id="DejaVuSans-54" d="M -19 4666 
L 3928 4666 
L 3928 4134 
L 2272 4134 
L 2272 0 
L 1638 0 
L 1638 4134 
L -19 4134 
L -19 4666 
z
" transform="scale(0.015625)"/>
      <path id="DejaVuSans-43" d="M 4122 4306 
L 4122 3641 
Q 3803 3938 3442 4084 
Q 3081 4231 2675 4231 
Q 1875 4231 1450 3742 
Q 1025 3253 1025 2328 
Q 1025 1406 1450 917 
Q 1875 428 2675 428 
Q 3081 428 3442 575 
Q 3803 722 4122 1019 
L 4122 359 
Q 3791 134 3420 21 
Q 3050 -91 2638 -91 
Q 1578 -91 968 557 
Q 359 1206 359 2328 
Q 359 3453 968 4101 
Q 1578 4750 2638 4750 
Q 3056 4750 3426 4639 
Q 3797 4528 4122 4306 
z
" transform="scale(0.015625)"/>
     </defs>
     <use xlink:href="#DejaVuSans-32"/>
     <use xlink:href="#DejaVuSans-30" x="63.623047"/>
     <use xlink:href="#DejaVuSans-32" x="127.246094"/>
     <use xlink:href="#DejaVuSans-34" x="190.869141"/>
     <use xlink:href="#DejaVuSans-2d" x="254.492188"/>
     <use xlink:href="#DejaVuSans-31" x="290.576172"/>
     <use xlink:href="#DejaVuSans-30" x="354.199219"/>
     <use xlink:href="#DejaVuSans-2d" x="417.822266"/>
     <use xlink:href="#DejaVuSans-33" x="453.90625"/>
     <use xlink:href="#DejaVuSans-31" x="517.529297"/>
     <use xlink:href="#DejaVuSans-20" x="581.152344"/>
     <use xlink:href="#DejaVuSans-31" x="612.939453"/>
     <use xlink:href="#DejaVuSans-31" x="676.5625"/>
     <use xlink:href="#DejaVuSans-3a" x="740.185547"/>
     <use xlink:href="#DejaVuSans-35" x="773.876953"/>
     <use xlink:href="#DejaVuSans-34" x="837.5"/>
     <use xlink:href="#DejaVuSans-20" x="901.123047"/>
     <use xlink:href="#DejaVuSans-55" x="932.910156"/>
     <use xlink:href="#DejaVuSans-54" x="1006.103516"/>
     <use xlink:href="#DejaVuSans-43" x="1061.3125"/>
    </g>
   </g>
   <g id="legend_1">
    <g id="patch_7">
     <path d="M 61.691875 134.888625 
L 170.660625 134.888625 
Q 172.660625 134.888625 172.660625 132.888625 
L 172.660625 31.14175 
Q 172.660625 29.14175 170.660625 29.14175 
L 61.691875 29.14175 
Q 59.691875 29.14175 59.691875 31.14175 
L 59.691875 132.888625 
Q 59.691875 134.888625 61.691875 134.888625 
z
" style="fill: #e5e5e5; opacity: 0.8; stroke: #cccccc; stroke-width: 0.5; stroke-linejoin: miter"/>
    </g>
    <g id="text_21">
     <!-- Distribution -->
     <g transform="translate(87.0075 40.740187)scale(0.1 -0.1)">
      <use xlink:href="#DejaVuSans-44"/>
      <use xlink:href="#DejaVuSans-69" x="77.001953"/>
      <use xlink:href="#DejaVuSans-73" x="104.785156"/>
      <use xlink:href="#DejaVuSans-74" x="156.884766"/>
      <use xlink:href="#DejaVuSans-72" x="196.09375"/>
      <use xlink:href="#DejaVuSans-69" x="237.207031"/>
      <use xlink:href="#DejaVuSans-62" x="264.990234"/>
      <use xlink:href="#DejaVuSans-75" x="328.466797"/>
      <use xlink:href="#DejaVuSans-74" x="391.845703"/>
      <use xlink:href="#DejaVuSans-69" x="431.054688"/>
      <use xlink:href="#DejaVuSans-6f" x="458.837891"/>
      <use xlink:href="#DejaVuSans-6e" x="520.019531"/>
     </g>
    </g>
    <g id="line2d_45">
     <path d="M 63.691875 51.918312 
L 73.691875 51.918312 
L 83.691875 51.918312 
" style="fill: none; stroke: #4ac1fa; stroke-width: 1.5; stroke-linecap: square"/>
    </g>
    <g id="text_22">
     <!-- AlmaLinux -->
     <g transform="translate(91.691875 55.418312)scale(0.1 -0.1)">
      <defs>
       <path id="DejaVuSans-41" d="M 2188 4044 
L 1331 1722 
L 3047 1722 
L 2188 4044 
z
M 1831 4666 
L 2547 4666 
L 4325 0 
L 3669 0 
L 3244 1197 
L 1141 1197 
L 716 0 
L 50 0 
L 1831 4666 
z
" transform="scale(0.015625)"/>
      </defs>
      <use xlink:href="#DejaVuSans-41"/>
      <use xlink:href="#DejaVuSans-6c" x="68.408203"/>
      <use xlink:href="#DejaVuSans-6d" x="96.191406"/>
      <use xlink:href="#DejaVuSans-61" x="193.603516"/>
      <use xlink:href="#DejaVuSans-4c" x="254.882812"/>
      <use xlink:href="#DejaVuSans-69" x="310.595703"/>
      <use xlink:href="#DejaVuSans-6e" x="338.378906"/>
      <use xlink:href="#DejaVuSans-75" x="401.757812"/>
      <use xlink:href="#DejaVuSans-78" x="465.136719"/>
     </g>
    </g>
    <g id="line2d_46">
     <path d="M 63.691875 66.596437 
L 73.691875 66.596437 
L 83.691875 66.596437 
" style="fill: none; stroke: #e9a942; stroke-width: 1.5; stroke-linecap: square"/>
    </g>
    <g id="text_23">
     <!-- CentOS Legacy -->
     <g transform="translate(91.691875 70.096437)scale(0.1 -0.1)">
      <defs>
       <path id="DejaVuSans-4f" d="M 2522 4238 
Q 1834 4238 1429 3725 
Q 1025 3213 1025 2328 
Q 1025 1447 1429 934 
Q 1834 422 2522 422 
Q 3209 422 3611 934 
Q 4013 1447 4013 2328 
Q 4013 3213 3611 3725 
Q 3209 4238 2522 4238 
z
M 2522 4750 
Q 3503 4750 4090 4092 
Q 4678 3434 4678 2328 
Q 4678 1225 4090 567 
Q 3503 -91 2522 -91 
Q 1538 -91 948 565 
Q 359 1222 359 2328 
Q 359 3434 948 4092 
Q 1538 4750 2522 4750 
z
" transform="scale(0.015625)"/>
       <path id="DejaVuSans-53" d="M 3425 4513 
L 3425 3897 
Q 3066 4069 2747 4153 
Q 2428 4238 2131 4238 
Q 1616 4238 1336 4038 
Q 1056 3838 1056 3469 
Q 1056 3159 1242 3001 
Q 1428 2844 1947 2747 
L 2328 2669 
Q 3034 2534 3370 2195 
Q 3706 1856 3706 1288 
Q 3706 609 3251 259 
Q 2797 -91 1919 -91 
Q 1588 -91 1214 -16 
Q 841 59 441 206 
L 441 856 
Q 825 641 1194 531 
Q 1563 422 1919 422 
Q 2459 422 2753 634 
Q 3047 847 3047 1241 
Q 3047 1584 2836 1778 
Q 2625 1972 2144 2069 
L 1759 2144 
Q 1053 2284 737 2584 
Q 422 2884 422 3419 
Q 422 4038 858 4394 
Q 1294 4750 2059 4750 
Q 2388 4750 2728 4690 
Q 3069 4631 3425 4513 
z
" transform="scale(0.015625)"/>
       <path id="DejaVuSans-67" d="M 2906 1791 
Q 2906 2416 2648 2759 
Q 2391 3103 1925 3103 
Q 1463 3103 1205 2759 
Q 947 2416 947 1791 
Q 947 1169 1205 825 
Q 1463 481 1925 481 
Q 2391 481 2648 825 
Q 2906 1169 2906 1791 
z
M 3481 434 
Q 3481 -459 3084 -895 
Q 2688 -1331 1869 -1331 
Q 1566 -1331 1297 -1286 
Q 1028 -1241 775 -1147 
L 775 -588 
Q 1028 -725 1275 -790 
Q 1522 -856 1778 -856 
Q 2344 -856 2625 -561 
Q 2906 -266 2906 331 
L 2906 616 
Q 2728 306 2450 153 
Q 2172 0 1784 0 
Q 1141 0 747 490 
Q 353 981 353 1791 
Q 353 2603 747 3093 
Q 1141 3584 1784 3584 
Q 2172 3584 2450 3431 
Q 2728 3278 2906 2969 
L 2906 3500 
L 3481 3500 
L 3481 434 
z
" transform="scale(0.015625)"/>
      </defs>
      <use xlink:href="#DejaVuSans-43"/>
      <use xlink:href="#DejaVuSans-65" x="69.824219"/>
      <use xlink:href="#DejaVuSans-6e" x="131.347656"/>
      <use xlink:href="#DejaVuSans-74" x="194.726562"/>
      <use xlink:href="#DejaVuSans-4f" x="233.935547"/>
      <use xlink:href="#DejaVuSans-53" x="312.646484"/>
      <use xlink:href="#DejaVuSans-20" x="376.123047"/>
      <use xlink:href="#DejaVuSans-4c" x="407.910156"/>
      <use xlink:href="#DejaVuSans-65" x="461.873047"/>
      <use xlink:href="#DejaVuSans-67" x="523.396484"/>
      <use xlink:href="#DejaVuSans-61" x="586.873047"/>
      <use xlink:href="#DejaVuSans-63" x="648.152344"/>
      <use xlink:href="#DejaVuSans-79" x="703.132812"/>
     </g>
    </g>
    <g id="line2d_47">
     <path d="M 63.691875 81.274563 
L 73.691875 81.274563 
L 83.691875 81.274563 
" style="fill: none; stroke: #9a5689; stroke-width: 1.5; stroke-linecap: square"/>
    </g>
    <g id="text_24">
     <!-- CentOS Stream -->
     <g transform="translate(91.691875 84.774563)scale(0.1 -0.1)">
      <use xlink:href="#DejaVuSans-43"/>
      <use xlink:href="#DejaVuSans-65" x="69.824219"/>
      <use xlink:href="#DejaVuSans-6e" x="131.347656"/>
      <use xlink:href="#DejaVuSans-74" x="194.726562"/>
      <use xlink:href="#DejaVuSans-4f" x="233.935547"/>
      <use xlink:href="#DejaVuSans-53" x="312.646484"/>
      <use xlink:href="#DejaVuSans-20" x="376.123047"/>
      <use xlink:href="#DejaVuSans-53" x="407.910156"/>
      <use xlink:href="#DejaVuSans-74" x="471.386719"/>
      <use xlink:href="#DejaVuSans-72" x="510.595703"/>
      <use xlink:href="#DejaVuSans-65" x="549.458984"/>
      <use xlink:href="#DejaVuSans-61" x="610.982422"/>
      <use xlink:href="#DejaVuSans-6d" x="672.261719"/>
     </g>
    </g>
    <g id="line2d_48">
     <path d="M 63.691875 95.952687 
L 73.691875 95.952687 
L 83.691875 95.952687 
" style="fill: none; stroke: #be503b; stroke-width: 1.5; stroke-linecap: square"/>
    </g>
    <g id="text_25">
     <!-- Oracle -->
     <g transform="translate(91.691875 99.452687)scale(0.1 -0.1)">
      <use xlink:href="#DejaVuSans-4f"/>
      <use xlink:href="#DejaVuSans-72" x="78.710938"/>
      <use xlink:href="#DejaVuSans-61" x="119.824219"/>
      <use xlink:href="#DejaVuSans-63" x="181.103516"/>
      <use xlink:href="#DejaVuSans-6c" x="236.083984"/>
      <use xlink:href="#DejaVuSans-65" x="263.867188"/>
     </g>
    </g>
    <g id="line2d_49">
     <path d="M 63.691875 110.630812 
L 73.691875 110.630812 
L 83.691875 110.630812 
" style="fill: none; stroke: #e2321d; stroke-width: 1.5; stroke-linecap: square"/>
    </g>
    <g id="text_26">
     <!-- RHEL -->
     <g transform="translate(91.691875 114.130812)scale(0.1 -0.1)">
      <defs>
       <path id="DejaVuSans-52" d="M 2841 2188 
Q 3044 2119 3236 1894 
Q 3428 1669 3622 1275 
L 4263 0 
L 3584 0 
L 2988 1197 
Q 2756 1666 2539 1819 
Q 2322 1972 1947 1972 
L 1259 1972 
L 1259 0 
L 628 0 
L 628 4666 
L 2053 4666 
Q 2853 4666 3247 4331 
Q 3641 3997 3641 3322 
Q 3641 2881 3436 2590 
Q 3231 2300 2841 2188 
z
M 1259 4147 
L 1259 2491 
L 2053 2491 
Q 2509 2491 2742 2702 
Q 2975 2913 2975 3322 
Q 2975 3731 2742 3939 
Q 2509 4147 2053 4147 
L 1259 4147 
z
" transform="scale(0.015625)"/>
       <path id="DejaVuSans-48" d="M 628 4666 
L 1259 4666 
L 1259 2753 
L 3553 2753 
L 3553 4666 
L 4184 4666 
L 4184 0 
L 3553 0 
L 3553 2222 
L 1259 2222 
L 1259 0 
L 628 0 
L 628 4666 
z
" transform="scale(0.015625)"/>
      </defs>
      <use xlink:href="#DejaVuSans-52"/>
      <use xlink:href="#DejaVuSans-48" x="69.482422"/>
      <use xlink:href="#DejaVuSans-45" x="144.677734"/>
      <use xlink:href="#DejaVuSans-4c" x="207.861328"/>
     </g>
    </g>
    <g id="line2d_50">
     <path d="M 63.691875 125.308937 
L 73.691875 125.308937 
L 83.691875 125.308937 
" style="fill: none; stroke: #48b585; stroke-width: 6; stroke-linecap: square"/>
    </g>
    <g id="text_27">
     <!-- Rocky Linux -->
     <g transform="translate(91.691875 128.808937)scale(0.1 -0.1)">
      <use xlink:href="#DejaVuSans-52"/>
      <use xlink:href="#DejaVuSans-6f" x="64.982422"/>
      <use xlink:href="#DejaVuSans-63" x="126.164062"/>
      <use xlink:href="#DejaVuSans-6b" x="181.144531"/>
      <use xlink:href="#DejaVuSans-79" x="235.429688"/>
      <use xlink:href="#DejaVuSans-20" x="294.609375"/>
      <use xlink:href="#DejaVuSans-4c" x="326.396484"/>
      <use xlink:href="#DejaVuSans-69" x="382.109375"/>
      <use xlink:href="#DejaVuSans-6e" x="409.892578"/>
      <use xlink:href="#DejaVuSans-75" x="473.271484"/>
      <use xlink:href="#DejaVuSans-78" x="536.650391"/>
     </g>
    </g>
   </g>
  </g>
 </g>
 <defs>
  <clipPath id="p1aff0ac4f8">
   <rect x="54.691875" y="24.14175" width="902.844" height="543.6"/>
  </clipPath>
 </defs>
</svg>
